%TF.GenerationSoftware,KiCad,Pcbnew,9.0.6*%
%TF.CreationDate,2026-01-02T00:07:23-05:00*%
%TF.ProjectId,active-vactrol-vca-board,61637469-7665-42d7-9661-6374726f6c2d,rev?*%
%TF.SameCoordinates,Original*%
%TF.FileFunction,Legend,Top*%
%TF.FilePolarity,Positive*%
%FSLAX46Y46*%
G04 Gerber Fmt 4.6, Leading zero omitted, Abs format (unit mm)*
G04 Created by KiCad (PCBNEW 9.0.6) date 2026-01-02 00:07:23*
%MOMM*%
%LPD*%
G01*
G04 APERTURE LIST*
G04 Aperture macros list*
%AMRoundRect*
0 Rectangle with rounded corners*
0 $1 Rounding radius*
0 $2 $3 $4 $5 $6 $7 $8 $9 X,Y pos of 4 corners*
0 Add a 4 corners polygon primitive as box body*
4,1,4,$2,$3,$4,$5,$6,$7,$8,$9,$2,$3,0*
0 Add four circle primitives for the rounded corners*
1,1,$1+$1,$2,$3*
1,1,$1+$1,$4,$5*
1,1,$1+$1,$6,$7*
1,1,$1+$1,$8,$9*
0 Add four rect primitives between the rounded corners*
20,1,$1+$1,$2,$3,$4,$5,0*
20,1,$1+$1,$4,$5,$6,$7,0*
20,1,$1+$1,$6,$7,$8,$9,0*
20,1,$1+$1,$8,$9,$2,$3,0*%
G04 Aperture macros list end*
%ADD10C,0.320000*%
%ADD11C,0.150000*%
%ADD12C,0.200000*%
%ADD13C,0.050800*%
%ADD14C,0.203200*%
%ADD15C,0.120000*%
%ADD16C,0.325000*%
%ADD17RoundRect,0.076200X-1.558000X1.558000X-1.558000X-1.558000X1.558000X-1.558000X1.558000X1.558000X0*%
%ADD18C,1.802400*%
%ADD19RoundRect,0.076200X-0.825000X0.825000X-0.825000X-0.825000X0.825000X-0.825000X0.825000X0.825000X0*%
%ADD20R,1.930000X1.830000*%
%ADD21C,2.130000*%
%ADD22RoundRect,0.249630X0.535370X-0.895370X0.535370X0.895370X-0.535370X0.895370X-0.535370X-0.895370X0*%
%ADD23O,1.570000X2.290000*%
%ADD24C,1.600000*%
%ADD25C,2.032000*%
G04 APERTURE END LIST*
D10*
G36*
X103948730Y-117860667D02*
G01*
X103948730Y-119035768D01*
X103940816Y-119172837D01*
X103930049Y-119233181D01*
X103915220Y-119280695D01*
X103880811Y-119349473D01*
X103835694Y-119412195D01*
X103781274Y-119467141D01*
X103718262Y-119513311D01*
X103648176Y-119550045D01*
X103569470Y-119578378D01*
X103486454Y-119596035D01*
X103398402Y-119602020D01*
X103294468Y-119592164D01*
X103200221Y-119563316D01*
X103113536Y-119515375D01*
X103032931Y-119446686D01*
X102957690Y-119354163D01*
X103244431Y-119060290D01*
X103263225Y-119131030D01*
X103293671Y-119181825D01*
X103336580Y-119215753D01*
X103387851Y-119226863D01*
X103438721Y-119216162D01*
X103475411Y-119185043D01*
X103500780Y-119127802D01*
X103511047Y-119031078D01*
X103511047Y-117860667D01*
X103948730Y-117860667D01*
G37*
G36*
X104902479Y-118373811D02*
G01*
X104995243Y-118402237D01*
X105078505Y-118448999D01*
X105153922Y-118515433D01*
X105153922Y-118401518D01*
X105560342Y-118401518D01*
X105560342Y-119552000D01*
X105153922Y-119552000D01*
X105153922Y-119424700D01*
X105083047Y-119496946D01*
X105002324Y-119547712D01*
X104909776Y-119578718D01*
X104802310Y-119589515D01*
X104680667Y-119577739D01*
X104571549Y-119543402D01*
X104472984Y-119487989D01*
X104387976Y-119414149D01*
X104318687Y-119324262D01*
X104265952Y-119218559D01*
X104233457Y-119102468D01*
X104222282Y-118973339D01*
X104641207Y-118973339D01*
X104646351Y-119028186D01*
X104661430Y-119078168D01*
X104685521Y-119123787D01*
X104716532Y-119162774D01*
X104754554Y-119194739D01*
X104799770Y-119219145D01*
X104849643Y-119234227D01*
X104904306Y-119239369D01*
X104957018Y-119234278D01*
X105006594Y-119219145D01*
X105051792Y-119194734D01*
X105089735Y-119162774D01*
X105121131Y-119124006D01*
X105146008Y-119079341D01*
X105162005Y-119030534D01*
X105167404Y-118977931D01*
X105162025Y-118925005D01*
X105146008Y-118875251D01*
X105121056Y-118829616D01*
X105089735Y-118790743D01*
X105051789Y-118758805D01*
X105006594Y-118734470D01*
X104957014Y-118719263D01*
X104904306Y-118714149D01*
X104849647Y-118719314D01*
X104799770Y-118734470D01*
X104754557Y-118758801D01*
X104716532Y-118790743D01*
X104685398Y-118829311D01*
X104661430Y-118873102D01*
X104646348Y-118920847D01*
X104641207Y-118973339D01*
X104222282Y-118973339D01*
X104233003Y-118852222D01*
X104264780Y-118738378D01*
X104316154Y-118633480D01*
X104383482Y-118543960D01*
X104466592Y-118469659D01*
X104564906Y-118412362D01*
X104636537Y-118385799D01*
X104713833Y-118369565D01*
X104797816Y-118364002D01*
X104902479Y-118373811D01*
G37*
G36*
X106704571Y-118773744D02*
G01*
X106631393Y-118732678D01*
X106560437Y-118709257D01*
X106490321Y-118701644D01*
X106433122Y-118706790D01*
X106380900Y-118721867D01*
X106333162Y-118746412D01*
X106291800Y-118779313D01*
X106257815Y-118819742D01*
X106232010Y-118867240D01*
X106216146Y-118920082D01*
X106210614Y-118981057D01*
X106216094Y-119039987D01*
X106232010Y-119092530D01*
X106257601Y-119140087D01*
X106290726Y-119180360D01*
X106331282Y-119213086D01*
X106379728Y-119237806D01*
X106432963Y-119252981D01*
X106490321Y-119258127D01*
X106564336Y-119249580D01*
X106635215Y-119223803D01*
X106704571Y-119179285D01*
X106704571Y-119524547D01*
X106602742Y-119561632D01*
X106508200Y-119582744D01*
X106419686Y-119589515D01*
X106296678Y-119578749D01*
X106180816Y-119546822D01*
X106073956Y-119494634D01*
X105981221Y-119424309D01*
X105903899Y-119337034D01*
X105843273Y-119233116D01*
X105814992Y-119157322D01*
X105797650Y-119074896D01*
X105791689Y-118984672D01*
X105797375Y-118894209D01*
X105813955Y-118810959D01*
X105841026Y-118733884D01*
X105899697Y-118627685D01*
X105975555Y-118538294D01*
X106068138Y-118465732D01*
X106178569Y-118410115D01*
X106299615Y-118375701D01*
X106430823Y-118364002D01*
X106528048Y-118371151D01*
X106618900Y-118392194D01*
X106704571Y-118427017D01*
X106704571Y-118773744D01*
G37*
G36*
X107395485Y-117688720D02*
G01*
X107395485Y-118816438D01*
X107821054Y-118401518D01*
X108376560Y-118401518D01*
X107800830Y-118932990D01*
X108410167Y-119552000D01*
X107841179Y-119552000D01*
X107395485Y-119083249D01*
X107395485Y-119552000D01*
X106989065Y-119552000D01*
X106989065Y-117688720D01*
X107395485Y-117688720D01*
G37*
G36*
X109348451Y-118697540D02*
G01*
X109271982Y-118664347D01*
X109198919Y-118645298D01*
X109128241Y-118639117D01*
X109075616Y-118645183D01*
X109037188Y-118661588D01*
X109010913Y-118688323D01*
X109002407Y-118722258D01*
X109007976Y-118754791D01*
X109032694Y-118778336D01*
X109088869Y-118798657D01*
X109186567Y-118821127D01*
X109295564Y-118851689D01*
X109377666Y-118892150D01*
X109438234Y-118941197D01*
X109483880Y-119003157D01*
X109511657Y-119075862D01*
X109521375Y-119162383D01*
X109511006Y-119259604D01*
X109481026Y-119344198D01*
X109432827Y-119418551D01*
X109368869Y-119480094D01*
X109291505Y-119528101D01*
X109196239Y-119565384D01*
X109092286Y-119587905D01*
X108974368Y-119595768D01*
X108860280Y-119587849D01*
X108746317Y-119563907D01*
X108631490Y-119523231D01*
X108514899Y-119464561D01*
X108662617Y-119178308D01*
X108780800Y-119246369D01*
X108887854Y-119283849D01*
X108986678Y-119295642D01*
X109039363Y-119289029D01*
X109078904Y-119270827D01*
X109106264Y-119242072D01*
X109114955Y-119207715D01*
X109109288Y-119170492D01*
X109085645Y-119143430D01*
X109032791Y-119120960D01*
X108941737Y-119099466D01*
X108817659Y-119066076D01*
X108732846Y-119027534D01*
X108677564Y-118985649D01*
X108636816Y-118930956D01*
X108611366Y-118862726D01*
X108602240Y-118777066D01*
X108611480Y-118683603D01*
X108638095Y-118602383D01*
X108681822Y-118530604D01*
X108741263Y-118470590D01*
X108814038Y-118423417D01*
X108903733Y-118387157D01*
X109002334Y-118365392D01*
X109115736Y-118357750D01*
X109241234Y-118365970D01*
X109364197Y-118390599D01*
X109485617Y-118432000D01*
X109348451Y-118697540D01*
G37*
G36*
X109849832Y-119120569D02*
G01*
X110230558Y-119120569D01*
X109818472Y-119864630D01*
X109558597Y-119864630D01*
X109849832Y-119120569D01*
G37*
G36*
X112085799Y-118369486D02*
G01*
X112161850Y-118385644D01*
X112233936Y-118412362D01*
X112333283Y-118469609D01*
X112418192Y-118543960D01*
X112487372Y-118633778D01*
X112540021Y-118739550D01*
X112572534Y-118854969D01*
X112583594Y-118980178D01*
X112572491Y-119105003D01*
X112540021Y-119218559D01*
X112487757Y-119322449D01*
X112419365Y-119411902D01*
X112335471Y-119485954D01*
X112237257Y-119542327D01*
X112128755Y-119577527D01*
X112009428Y-119589515D01*
X111904850Y-119579919D01*
X111811828Y-119552089D01*
X111728068Y-119506323D01*
X111651954Y-119441406D01*
X111651954Y-120127240D01*
X111245534Y-120127240D01*
X111245534Y-118977931D01*
X111640719Y-118977931D01*
X111645785Y-119030599D01*
X111660747Y-119079341D01*
X111684736Y-119123701D01*
X111716239Y-119161602D01*
X111754610Y-119193017D01*
X111799574Y-119217973D01*
X111848611Y-119233998D01*
X111900593Y-119239369D01*
X111952632Y-119234250D01*
X112000635Y-119219145D01*
X112044365Y-119194817D01*
X112081724Y-119162774D01*
X112112667Y-119124029D01*
X112137216Y-119079341D01*
X112153119Y-119030843D01*
X112158416Y-118980178D01*
X112153630Y-118927141D01*
X112139463Y-118877498D01*
X112116343Y-118832007D01*
X112085045Y-118792990D01*
X112046678Y-118760724D01*
X112001807Y-118735545D01*
X111952471Y-118719574D01*
X111898541Y-118714149D01*
X111846493Y-118719289D01*
X111798402Y-118734470D01*
X111754740Y-118758712D01*
X111717313Y-118790743D01*
X111686367Y-118829600D01*
X111661724Y-118875251D01*
X111646003Y-118924986D01*
X111640719Y-118977931D01*
X111245534Y-118977931D01*
X111245534Y-118401518D01*
X111651954Y-118401518D01*
X111651954Y-118528817D01*
X111722634Y-118456679D01*
X111803481Y-118405906D01*
X111896524Y-118374838D01*
X112004934Y-118364002D01*
X112085799Y-118369486D01*
G37*
G36*
X113604186Y-118369542D02*
G01*
X113734368Y-118403863D01*
X113853488Y-118459536D01*
X113953601Y-118531944D01*
X114010917Y-118590123D01*
X114058872Y-118655041D01*
X114097899Y-118727338D01*
X114126179Y-118804452D01*
X114143464Y-118887624D01*
X114149386Y-118977931D01*
X114143337Y-119068123D01*
X114125670Y-119151256D01*
X114096727Y-119228427D01*
X114034231Y-119334179D01*
X113952428Y-119423821D01*
X113888293Y-119473643D01*
X113815203Y-119515997D01*
X113732121Y-119550827D01*
X113599772Y-119584270D01*
X113453587Y-119595768D01*
X113309725Y-119584245D01*
X113180523Y-119550827D01*
X113099785Y-119516023D01*
X113028153Y-119473341D01*
X112964710Y-119422746D01*
X112908844Y-119363909D01*
X112861595Y-119297871D01*
X112822659Y-119223933D01*
X112794442Y-119145323D01*
X112777124Y-119059927D01*
X112771602Y-118973339D01*
X113198988Y-118973339D01*
X113204423Y-119029995D01*
X113220188Y-119080220D01*
X113244998Y-119125790D01*
X113276071Y-119164630D01*
X113313875Y-119196588D01*
X113358723Y-119220904D01*
X113407996Y-119236039D01*
X113460328Y-119241127D01*
X113512646Y-119236037D01*
X113561835Y-119220904D01*
X113606747Y-119196577D01*
X113644487Y-119164630D01*
X113675616Y-119125779D01*
X113700370Y-119080220D01*
X113716187Y-119030288D01*
X113721570Y-118975586D01*
X113716243Y-118922919D01*
X113700370Y-118873297D01*
X113675616Y-118827739D01*
X113644487Y-118788887D01*
X113606747Y-118756941D01*
X113561835Y-118732614D01*
X113512646Y-118717481D01*
X113460328Y-118712390D01*
X113407996Y-118717478D01*
X113358723Y-118732614D01*
X113313875Y-118756930D01*
X113276071Y-118788887D01*
X113244934Y-118827558D01*
X113220188Y-118872223D01*
X113204342Y-118920840D01*
X113198988Y-118973339D01*
X112771602Y-118973339D01*
X112771172Y-118966598D01*
X112776995Y-118882363D01*
X112794182Y-118802906D01*
X112822659Y-118727338D01*
X112884153Y-118623502D01*
X112965785Y-118534191D01*
X113064968Y-118461572D01*
X113183943Y-118404937D01*
X113269398Y-118379059D01*
X113361189Y-118363187D01*
X113460230Y-118357750D01*
X113604186Y-118369542D01*
G37*
G36*
X114839225Y-118739159D02*
G01*
X114839225Y-119552000D01*
X114432805Y-119552000D01*
X114432805Y-118739159D01*
X114301500Y-118739159D01*
X114301500Y-118401518D01*
X114432805Y-118401518D01*
X114432805Y-118057624D01*
X114839225Y-118057624D01*
X114839225Y-118401518D01*
X115070572Y-118401518D01*
X115070572Y-118739159D01*
X114839225Y-118739159D01*
G37*
G36*
X115999672Y-118697540D02*
G01*
X115923203Y-118664347D01*
X115850140Y-118645298D01*
X115779463Y-118639117D01*
X115726837Y-118645183D01*
X115688409Y-118661588D01*
X115662134Y-118688323D01*
X115653629Y-118722258D01*
X115659197Y-118754791D01*
X115683915Y-118778336D01*
X115740091Y-118798657D01*
X115837788Y-118821127D01*
X115946785Y-118851689D01*
X116028887Y-118892150D01*
X116089456Y-118941197D01*
X116135101Y-119003157D01*
X116162878Y-119075862D01*
X116172596Y-119162383D01*
X116162227Y-119259604D01*
X116132247Y-119344198D01*
X116084049Y-119418551D01*
X116020091Y-119480094D01*
X115942726Y-119528101D01*
X115847460Y-119565384D01*
X115743507Y-119587905D01*
X115625590Y-119595768D01*
X115511501Y-119587849D01*
X115397538Y-119563907D01*
X115282711Y-119523231D01*
X115166120Y-119464561D01*
X115313838Y-119178308D01*
X115432021Y-119246369D01*
X115539075Y-119283849D01*
X115637899Y-119295642D01*
X115690584Y-119289029D01*
X115730125Y-119270827D01*
X115757485Y-119242072D01*
X115766176Y-119207715D01*
X115760509Y-119170492D01*
X115736867Y-119143430D01*
X115684012Y-119120960D01*
X115592959Y-119099466D01*
X115468881Y-119066076D01*
X115384067Y-119027534D01*
X115328786Y-118985649D01*
X115288037Y-118930956D01*
X115262587Y-118862726D01*
X115253461Y-118777066D01*
X115262701Y-118683603D01*
X115289316Y-118602383D01*
X115333043Y-118530604D01*
X115392484Y-118470590D01*
X115465260Y-118423417D01*
X115554955Y-118387157D01*
X115653555Y-118365392D01*
X115766957Y-118357750D01*
X115892455Y-118365970D01*
X116015418Y-118390599D01*
X116136839Y-118432000D01*
X115999672Y-118697540D01*
G37*
G36*
X116501054Y-119120569D02*
G01*
X116881779Y-119120569D01*
X116469693Y-119864630D01*
X116209818Y-119864630D01*
X116501054Y-119120569D01*
G37*
G36*
X104941885Y-120510725D02*
G01*
X105041667Y-120536650D01*
X105132748Y-120578951D01*
X105209218Y-120634347D01*
X105272282Y-120702777D01*
X105319323Y-120781577D01*
X105348703Y-120868766D01*
X105358695Y-120964661D01*
X105354574Y-121030246D01*
X105342868Y-121087173D01*
X105321878Y-121140106D01*
X105289721Y-121190537D01*
X105248054Y-121236536D01*
X105192610Y-121282665D01*
X105128543Y-121325060D01*
X105044696Y-121371472D01*
X105258751Y-121595980D01*
X105385480Y-121467127D01*
X105479644Y-121353496D01*
X105728283Y-121593440D01*
X105642016Y-121697683D01*
X105531130Y-121808569D01*
X105497620Y-121840027D01*
X105873852Y-122242735D01*
X105327041Y-122242735D01*
X105177955Y-122087397D01*
X105019788Y-122180376D01*
X104871667Y-122242823D01*
X104731683Y-122278501D01*
X104597829Y-122290020D01*
X104482519Y-122280754D01*
X104380649Y-122254068D01*
X104288037Y-122210346D01*
X104210460Y-122153049D01*
X104146630Y-122082053D01*
X104098402Y-121999176D01*
X104068406Y-121907144D01*
X104058150Y-121804954D01*
X104063548Y-121732365D01*
X104514591Y-121732365D01*
X104518527Y-121767123D01*
X104530125Y-121798604D01*
X104548513Y-121826638D01*
X104572428Y-121850188D01*
X104633587Y-121883796D01*
X104669057Y-121892960D01*
X104708129Y-121896106D01*
X104780348Y-121888454D01*
X104856203Y-121864570D01*
X104937229Y-121822149D01*
X104672568Y-121534822D01*
X104594868Y-121591546D01*
X104547380Y-121642368D01*
X104522333Y-121688634D01*
X104514591Y-121732365D01*
X104063548Y-121732365D01*
X104064927Y-121713826D01*
X104083942Y-121637599D01*
X104118033Y-121567561D01*
X104172554Y-121497306D01*
X104222404Y-121449143D01*
X104276894Y-121408597D01*
X104417090Y-121333272D01*
X104464277Y-121310900D01*
X104434577Y-121277194D01*
X104372831Y-121190052D01*
X104332164Y-121109883D01*
X104309307Y-121035288D01*
X104302002Y-120964759D01*
X104304291Y-120943265D01*
X104720928Y-120943265D01*
X104731427Y-120993968D01*
X104770271Y-121065850D01*
X104852526Y-121167773D01*
X104927075Y-121113745D01*
X104974234Y-121061308D01*
X105000192Y-121009580D01*
X105008548Y-120956748D01*
X104998197Y-120898014D01*
X104967320Y-120847913D01*
X104937272Y-120822376D01*
X104902480Y-120807161D01*
X104861416Y-120801898D01*
X104805889Y-120812152D01*
X104761081Y-120842344D01*
X104731128Y-120887345D01*
X104720928Y-120943265D01*
X104304291Y-120943265D01*
X104312226Y-120868750D01*
X104342449Y-120780502D01*
X104390535Y-120700895D01*
X104453726Y-120633272D01*
X104530118Y-120578722D01*
X104621277Y-120536650D01*
X104720773Y-120510681D01*
X104830349Y-120501772D01*
X104941885Y-120510725D01*
G37*
G36*
X107091158Y-121089518D02*
G01*
X107364515Y-121679316D01*
X107642268Y-121089518D01*
X108094703Y-121089518D01*
X107496601Y-122240000D01*
X107225589Y-122240000D01*
X106634229Y-121089518D01*
X107091158Y-121089518D01*
G37*
G36*
X108811927Y-121061811D02*
G01*
X108904691Y-121090237D01*
X108987954Y-121136999D01*
X109063370Y-121203433D01*
X109063370Y-121089518D01*
X109469790Y-121089518D01*
X109469790Y-122240000D01*
X109063370Y-122240000D01*
X109063370Y-122112700D01*
X108992495Y-122184946D01*
X108911772Y-122235712D01*
X108819225Y-122266718D01*
X108711758Y-122277515D01*
X108590115Y-122265739D01*
X108480998Y-122231402D01*
X108382432Y-122175989D01*
X108297425Y-122102149D01*
X108228136Y-122012262D01*
X108175401Y-121906559D01*
X108142906Y-121790468D01*
X108131730Y-121661339D01*
X108550656Y-121661339D01*
X108555799Y-121716186D01*
X108570879Y-121766168D01*
X108594970Y-121811787D01*
X108625980Y-121850774D01*
X108664002Y-121882739D01*
X108709218Y-121907145D01*
X108759091Y-121922227D01*
X108813754Y-121927369D01*
X108866467Y-121922278D01*
X108916043Y-121907145D01*
X108961241Y-121882734D01*
X108999183Y-121850774D01*
X109030579Y-121812006D01*
X109055457Y-121767341D01*
X109071453Y-121718534D01*
X109076852Y-121665931D01*
X109071473Y-121613005D01*
X109055457Y-121563251D01*
X109030504Y-121517616D01*
X108999183Y-121478743D01*
X108961237Y-121446805D01*
X108916043Y-121422470D01*
X108866462Y-121407263D01*
X108813754Y-121402149D01*
X108759096Y-121407314D01*
X108709218Y-121422470D01*
X108664006Y-121446801D01*
X108625980Y-121478743D01*
X108594846Y-121517311D01*
X108570879Y-121561102D01*
X108555797Y-121608847D01*
X108550656Y-121661339D01*
X108131730Y-121661339D01*
X108142452Y-121540222D01*
X108174229Y-121426378D01*
X108225603Y-121321480D01*
X108292931Y-121231960D01*
X108376041Y-121157659D01*
X108474354Y-121100362D01*
X108545985Y-121073799D01*
X108623282Y-121057565D01*
X108707264Y-121052002D01*
X108811927Y-121061811D01*
G37*
G36*
X110614019Y-121461744D02*
G01*
X110540841Y-121420678D01*
X110469886Y-121397257D01*
X110399769Y-121389644D01*
X110342570Y-121394790D01*
X110290349Y-121409867D01*
X110242610Y-121434412D01*
X110201249Y-121467313D01*
X110167264Y-121507742D01*
X110141458Y-121555240D01*
X110125594Y-121608082D01*
X110120062Y-121669057D01*
X110125542Y-121727987D01*
X110141458Y-121780530D01*
X110167050Y-121828087D01*
X110200174Y-121868360D01*
X110240730Y-121901086D01*
X110289176Y-121925806D01*
X110342411Y-121940981D01*
X110399769Y-121946127D01*
X110473784Y-121937580D01*
X110544664Y-121911803D01*
X110614019Y-121867285D01*
X110614019Y-122212547D01*
X110512191Y-122249632D01*
X110417648Y-122270744D01*
X110329134Y-122277515D01*
X110206127Y-122266749D01*
X110090265Y-122234822D01*
X109983405Y-122182634D01*
X109890670Y-122112309D01*
X109813348Y-122025034D01*
X109752721Y-121921116D01*
X109724441Y-121845322D01*
X109707098Y-121762896D01*
X109701137Y-121672672D01*
X109706823Y-121582209D01*
X109723403Y-121498959D01*
X109750474Y-121421884D01*
X109809146Y-121315685D01*
X109885003Y-121226294D01*
X109977586Y-121153732D01*
X110088018Y-121098115D01*
X110209064Y-121063701D01*
X110340272Y-121052002D01*
X110437497Y-121059151D01*
X110528348Y-121080194D01*
X110614019Y-121115017D01*
X110614019Y-121461744D01*
G37*
G36*
X111292428Y-121427159D02*
G01*
X111292428Y-122240000D01*
X110886008Y-122240000D01*
X110886008Y-121427159D01*
X110754703Y-121427159D01*
X110754703Y-121089518D01*
X110886008Y-121089518D01*
X110886008Y-120745624D01*
X111292428Y-120745624D01*
X111292428Y-121089518D01*
X111523775Y-121089518D01*
X111523775Y-121427159D01*
X111292428Y-121427159D01*
G37*
G36*
X111676964Y-121089518D02*
G01*
X112083384Y-121089518D01*
X112083384Y-121279148D01*
X112130871Y-121214012D01*
X112183688Y-121161362D01*
X112242142Y-121119902D01*
X112306860Y-121089634D01*
X112379426Y-121070983D01*
X112461472Y-121064508D01*
X112496155Y-121064508D01*
X112539825Y-121069099D01*
X112539825Y-121459399D01*
X112456330Y-121429315D01*
X112365240Y-121419148D01*
X112275051Y-121429466D01*
X112206299Y-121457849D01*
X112153824Y-121503070D01*
X112116684Y-121563035D01*
X112092383Y-121642752D01*
X112083384Y-121747997D01*
X112083384Y-122240000D01*
X111676964Y-122240000D01*
X111676964Y-121089518D01*
G37*
G36*
X113518212Y-121057542D02*
G01*
X113648395Y-121091863D01*
X113767515Y-121147536D01*
X113867627Y-121219944D01*
X113924943Y-121278123D01*
X113972899Y-121343041D01*
X114011926Y-121415338D01*
X114040205Y-121492452D01*
X114057490Y-121575624D01*
X114063412Y-121665931D01*
X114057364Y-121756123D01*
X114039696Y-121839256D01*
X114010753Y-121916427D01*
X113948258Y-122022179D01*
X113866455Y-122111821D01*
X113802319Y-122161643D01*
X113729229Y-122203997D01*
X113646148Y-122238827D01*
X113513798Y-122272270D01*
X113367613Y-122283768D01*
X113223751Y-122272245D01*
X113094550Y-122238827D01*
X113013811Y-122204023D01*
X112942179Y-122161341D01*
X112878737Y-122110746D01*
X112822871Y-122051909D01*
X112775621Y-121985871D01*
X112736685Y-121911933D01*
X112708468Y-121833323D01*
X112691151Y-121747927D01*
X112685629Y-121661339D01*
X113113014Y-121661339D01*
X113118449Y-121717995D01*
X113134215Y-121768220D01*
X113159025Y-121813790D01*
X113190097Y-121852630D01*
X113227902Y-121884588D01*
X113272749Y-121908904D01*
X113322022Y-121924039D01*
X113374354Y-121929127D01*
X113426673Y-121924037D01*
X113475861Y-121908904D01*
X113520773Y-121884577D01*
X113558513Y-121852630D01*
X113589642Y-121813779D01*
X113614396Y-121768220D01*
X113630214Y-121718288D01*
X113635596Y-121663586D01*
X113630269Y-121610919D01*
X113614396Y-121561297D01*
X113589642Y-121515739D01*
X113558513Y-121476887D01*
X113520773Y-121444941D01*
X113475861Y-121420614D01*
X113426673Y-121405481D01*
X113374354Y-121400390D01*
X113322022Y-121405478D01*
X113272749Y-121420614D01*
X113227902Y-121444930D01*
X113190097Y-121476887D01*
X113158961Y-121515558D01*
X113134215Y-121560223D01*
X113118368Y-121608840D01*
X113113014Y-121661339D01*
X112685629Y-121661339D01*
X112685199Y-121654598D01*
X112691021Y-121570363D01*
X112708208Y-121490906D01*
X112736685Y-121415338D01*
X112798179Y-121311502D01*
X112879811Y-121222191D01*
X112978994Y-121149572D01*
X113097969Y-121092937D01*
X113183424Y-121067059D01*
X113275215Y-121051187D01*
X113374256Y-121045750D01*
X113518212Y-121057542D01*
G37*
G36*
X114703231Y-120376720D02*
G01*
X114703231Y-122240000D01*
X114296811Y-122240000D01*
X114296811Y-120376720D01*
X114703231Y-120376720D01*
G37*
G36*
X115744878Y-121385540D02*
G01*
X115668409Y-121352347D01*
X115595346Y-121333298D01*
X115524668Y-121327117D01*
X115472043Y-121333183D01*
X115433614Y-121349588D01*
X115407340Y-121376323D01*
X115398834Y-121410258D01*
X115404403Y-121442791D01*
X115429120Y-121466336D01*
X115485296Y-121486657D01*
X115582993Y-121509127D01*
X115691990Y-121539689D01*
X115774092Y-121580150D01*
X115834661Y-121629197D01*
X115880307Y-121691157D01*
X115908084Y-121763862D01*
X115917801Y-121850383D01*
X115907433Y-121947604D01*
X115877453Y-122032198D01*
X115829254Y-122106551D01*
X115765296Y-122168094D01*
X115687932Y-122216101D01*
X115592665Y-122253384D01*
X115488713Y-122275905D01*
X115370795Y-122283768D01*
X115256707Y-122275849D01*
X115142743Y-122251907D01*
X115027917Y-122211231D01*
X114911326Y-122152561D01*
X115059044Y-121866308D01*
X115177227Y-121934369D01*
X115284281Y-121971849D01*
X115383105Y-121983642D01*
X115435790Y-121977029D01*
X115475331Y-121958827D01*
X115502691Y-121930072D01*
X115511381Y-121895715D01*
X115505715Y-121858492D01*
X115482072Y-121831430D01*
X115429218Y-121808960D01*
X115338164Y-121787466D01*
X115214086Y-121754076D01*
X115129273Y-121715534D01*
X115073991Y-121673649D01*
X115033243Y-121618956D01*
X115007793Y-121550726D01*
X114998667Y-121465066D01*
X115007907Y-121371603D01*
X115034522Y-121290383D01*
X115078249Y-121218604D01*
X115137690Y-121158590D01*
X115210465Y-121111417D01*
X115300160Y-121075157D01*
X115398761Y-121053392D01*
X115512163Y-121045750D01*
X115637661Y-121053970D01*
X115760624Y-121078599D01*
X115882044Y-121120000D01*
X115744878Y-121385540D01*
G37*
G36*
X105658820Y-124115159D02*
G01*
X105658820Y-124928000D01*
X105252400Y-124928000D01*
X105252400Y-124115159D01*
X105121095Y-124115159D01*
X105121095Y-123777518D01*
X105252400Y-123777518D01*
X105252400Y-123433624D01*
X105658820Y-123433624D01*
X105658820Y-123777518D01*
X105890167Y-123777518D01*
X105890167Y-124115159D01*
X105658820Y-124115159D01*
G37*
G36*
X106094941Y-123064720D02*
G01*
X106501361Y-123064720D01*
X106501361Y-123924064D01*
X106560408Y-123860374D01*
X106616143Y-123815978D01*
X106669302Y-123787483D01*
X106759041Y-123761738D01*
X106868800Y-123752508D01*
X106977159Y-123761053D01*
X107065626Y-123784830D01*
X107137955Y-123822090D01*
X107196964Y-123872577D01*
X107244090Y-123935424D01*
X107278575Y-124008937D01*
X107300272Y-124095161D01*
X107307948Y-124196736D01*
X107307948Y-124928000D01*
X106901528Y-124928000D01*
X106901528Y-124348362D01*
X106897742Y-124265330D01*
X106888046Y-124207483D01*
X106869424Y-124158543D01*
X106843301Y-124124636D01*
X106805305Y-124098651D01*
X106762588Y-124083027D01*
X106713754Y-124077644D01*
X106647878Y-124085122D01*
X106596440Y-124105884D01*
X106556071Y-124139193D01*
X106526951Y-124183352D01*
X106508217Y-124240650D01*
X106501361Y-124314852D01*
X106501361Y-124928000D01*
X106094941Y-124928000D01*
X106094941Y-123064720D01*
G37*
G36*
X107987920Y-123777518D02*
G01*
X107987920Y-124928000D01*
X107581500Y-124928000D01*
X107581500Y-123777518D01*
X107987920Y-123777518D01*
G37*
G36*
X107556490Y-123336709D02*
G01*
X107561006Y-123290904D01*
X107574368Y-123248390D01*
X107595724Y-123209396D01*
X107623608Y-123175606D01*
X107657409Y-123147667D01*
X107696392Y-123126367D01*
X107738976Y-123113000D01*
X107784710Y-123108488D01*
X107830515Y-123113004D01*
X107873028Y-123126367D01*
X107911994Y-123147671D01*
X107945715Y-123175606D01*
X107973654Y-123209407D01*
X107994954Y-123248390D01*
X108008391Y-123290908D01*
X108012931Y-123336709D01*
X108008393Y-123382523D01*
X107994954Y-123425124D01*
X107973660Y-123464026D01*
X107945715Y-123497811D01*
X107912005Y-123525690D01*
X107873028Y-123547050D01*
X107830515Y-123560413D01*
X107784710Y-123564929D01*
X107738976Y-123560417D01*
X107696392Y-123547050D01*
X107657398Y-123525694D01*
X107623608Y-123497811D01*
X107595719Y-123464036D01*
X107574368Y-123425124D01*
X107561004Y-123382527D01*
X107556490Y-123336709D01*
G37*
G36*
X109029567Y-124073540D02*
G01*
X108953098Y-124040347D01*
X108880036Y-124021298D01*
X108809358Y-124015117D01*
X108756732Y-124021183D01*
X108718304Y-124037588D01*
X108692030Y-124064323D01*
X108683524Y-124098258D01*
X108689093Y-124130791D01*
X108713810Y-124154336D01*
X108769986Y-124174657D01*
X108867683Y-124197127D01*
X108976680Y-124227689D01*
X109058782Y-124268150D01*
X109119351Y-124317197D01*
X109164996Y-124379157D01*
X109192774Y-124451862D01*
X109202491Y-124538383D01*
X109192123Y-124635604D01*
X109162142Y-124720198D01*
X109113944Y-124794551D01*
X109049986Y-124856094D01*
X108972622Y-124904101D01*
X108877355Y-124941384D01*
X108773403Y-124963905D01*
X108655485Y-124971768D01*
X108541396Y-124963849D01*
X108427433Y-124939907D01*
X108312606Y-124899231D01*
X108196015Y-124840561D01*
X108343733Y-124554308D01*
X108461917Y-124622369D01*
X108568970Y-124659849D01*
X108667795Y-124671642D01*
X108720480Y-124665029D01*
X108760021Y-124646827D01*
X108787380Y-124618072D01*
X108796071Y-124583715D01*
X108790405Y-124546492D01*
X108766762Y-124519430D01*
X108713908Y-124496960D01*
X108622854Y-124475466D01*
X108498776Y-124442076D01*
X108413962Y-124403534D01*
X108358681Y-124361649D01*
X108317932Y-124306956D01*
X108292483Y-124238726D01*
X108283356Y-124153066D01*
X108292596Y-124059603D01*
X108319211Y-123978383D01*
X108362938Y-123906604D01*
X108422379Y-123846590D01*
X108495155Y-123799417D01*
X108584850Y-123763157D01*
X108683450Y-123741392D01*
X108796853Y-123733750D01*
X108922351Y-123741970D01*
X109045314Y-123766599D01*
X109166734Y-123808000D01*
X109029567Y-124073540D01*
G37*
G36*
X110930363Y-124073540D02*
G01*
X110853894Y-124040347D01*
X110780831Y-124021298D01*
X110710153Y-124015117D01*
X110657528Y-124021183D01*
X110619100Y-124037588D01*
X110592825Y-124064323D01*
X110584319Y-124098258D01*
X110589888Y-124130791D01*
X110614606Y-124154336D01*
X110670781Y-124174657D01*
X110768479Y-124197127D01*
X110877476Y-124227689D01*
X110959578Y-124268150D01*
X111020146Y-124317197D01*
X111065792Y-124379157D01*
X111093569Y-124451862D01*
X111103287Y-124538383D01*
X111092918Y-124635604D01*
X111062938Y-124720198D01*
X111014739Y-124794551D01*
X110950781Y-124856094D01*
X110873417Y-124904101D01*
X110778151Y-124941384D01*
X110674198Y-124963905D01*
X110556280Y-124971768D01*
X110442192Y-124963849D01*
X110328229Y-124939907D01*
X110213402Y-124899231D01*
X110096811Y-124840561D01*
X110244529Y-124554308D01*
X110362712Y-124622369D01*
X110469766Y-124659849D01*
X110568590Y-124671642D01*
X110621275Y-124665029D01*
X110660816Y-124646827D01*
X110688176Y-124618072D01*
X110696867Y-124583715D01*
X110691200Y-124546492D01*
X110667557Y-124519430D01*
X110614703Y-124496960D01*
X110523650Y-124475466D01*
X110399571Y-124442076D01*
X110314758Y-124403534D01*
X110259476Y-124361649D01*
X110218728Y-124306956D01*
X110193278Y-124238726D01*
X110184152Y-124153066D01*
X110193392Y-124059603D01*
X110220007Y-123978383D01*
X110263734Y-123906604D01*
X110323175Y-123846590D01*
X110395950Y-123799417D01*
X110485645Y-123763157D01*
X110584246Y-123741392D01*
X110697648Y-123733750D01*
X110823146Y-123741970D01*
X110946109Y-123766599D01*
X111067529Y-123808000D01*
X110930363Y-124073540D01*
G37*
G36*
X111711354Y-123777518D02*
G01*
X111711354Y-124928000D01*
X111304934Y-124928000D01*
X111304934Y-123777518D01*
X111711354Y-123777518D01*
G37*
G36*
X111279923Y-123336709D02*
G01*
X111284439Y-123290904D01*
X111297802Y-123248390D01*
X111319158Y-123209396D01*
X111347041Y-123175606D01*
X111380842Y-123147667D01*
X111419825Y-123126367D01*
X111462409Y-123113000D01*
X111508144Y-123108488D01*
X111553949Y-123113004D01*
X111596462Y-123126367D01*
X111635427Y-123147671D01*
X111669148Y-123175606D01*
X111697088Y-123209407D01*
X111718388Y-123248390D01*
X111731824Y-123290908D01*
X111736364Y-123336709D01*
X111731826Y-123382523D01*
X111718388Y-123425124D01*
X111697094Y-123464026D01*
X111669148Y-123497811D01*
X111635438Y-123525690D01*
X111596462Y-123547050D01*
X111553949Y-123560413D01*
X111508144Y-123564929D01*
X111462409Y-123560417D01*
X111419825Y-123547050D01*
X111380831Y-123525694D01*
X111347041Y-123497811D01*
X111319152Y-123464036D01*
X111297802Y-123425124D01*
X111284437Y-123382527D01*
X111279923Y-123336709D01*
G37*
G36*
X113282324Y-124928000D02*
G01*
X112875904Y-124928000D01*
X112875904Y-124800700D01*
X112805029Y-124872946D01*
X112724305Y-124923712D01*
X112631758Y-124954718D01*
X112524292Y-124965515D01*
X112441695Y-124960111D01*
X112365083Y-124944291D01*
X112293531Y-124918327D01*
X112194920Y-124862002D01*
X112109958Y-124787902D01*
X112040669Y-124698015D01*
X111987934Y-124592312D01*
X111955392Y-124476511D01*
X111944264Y-124349339D01*
X112363189Y-124349339D01*
X112368333Y-124404186D01*
X112383412Y-124454168D01*
X112407503Y-124499787D01*
X112438513Y-124538774D01*
X112476536Y-124570739D01*
X112521751Y-124595145D01*
X112571624Y-124610227D01*
X112626287Y-124615369D01*
X112679000Y-124610278D01*
X112728576Y-124595145D01*
X112773774Y-124570734D01*
X112811717Y-124538774D01*
X112843113Y-124500006D01*
X112867990Y-124455341D01*
X112883987Y-124406534D01*
X112889386Y-124353931D01*
X112884006Y-124301005D01*
X112867990Y-124251251D01*
X112843038Y-124205616D01*
X112811717Y-124166743D01*
X112773771Y-124134805D01*
X112728576Y-124110470D01*
X112678996Y-124095263D01*
X112626287Y-124090149D01*
X112573579Y-124095263D01*
X112523998Y-124110470D01*
X112478786Y-124134801D01*
X112440760Y-124166743D01*
X112409388Y-124205268D01*
X112384585Y-124249102D01*
X112368615Y-124296905D01*
X112363189Y-124349339D01*
X111944264Y-124349339D01*
X111954722Y-124228177D01*
X111985687Y-124114378D01*
X112036153Y-124009521D01*
X112103217Y-123919960D01*
X112186501Y-123845726D01*
X112285715Y-123788362D01*
X112358103Y-123761767D01*
X112435806Y-123745547D01*
X112519797Y-123740002D01*
X112624523Y-123749753D01*
X112717312Y-123778003D01*
X112800553Y-123824443D01*
X112875904Y-123890358D01*
X112875904Y-123064720D01*
X113282324Y-123064720D01*
X113282324Y-124928000D01*
G37*
G36*
X114292777Y-123745150D02*
G01*
X114413950Y-123777616D01*
X114488533Y-123811688D01*
X114553894Y-123853975D01*
X114611005Y-123904622D01*
X114659864Y-123963274D01*
X114700892Y-124030717D01*
X114734103Y-124108027D01*
X114765600Y-124232984D01*
X114776699Y-124378844D01*
X114776699Y-124421538D01*
X113926343Y-124421538D01*
X113934362Y-124507881D01*
X113955962Y-124572283D01*
X113989085Y-124619938D01*
X114034048Y-124654206D01*
X114093474Y-124676111D01*
X114171856Y-124684147D01*
X114235060Y-124677080D01*
X114287866Y-124656931D01*
X114332582Y-124623904D01*
X114370474Y-124576387D01*
X114761068Y-124576387D01*
X114719331Y-124682389D01*
X114664926Y-124769070D01*
X114597940Y-124839275D01*
X114517298Y-124894756D01*
X114420849Y-124936036D01*
X114305533Y-124962365D01*
X114167557Y-124971768D01*
X114026186Y-124960468D01*
X113901040Y-124927902D01*
X113787704Y-124874151D01*
X113693922Y-124803240D01*
X113617768Y-124714838D01*
X113560663Y-124609995D01*
X113534989Y-124533774D01*
X113519140Y-124450293D01*
X113513670Y-124358425D01*
X113518903Y-124263301D01*
X113532834Y-124183938D01*
X113937481Y-124183938D01*
X114399490Y-124183938D01*
X114380989Y-124130318D01*
X114353536Y-124085364D01*
X114316839Y-124047748D01*
X114272823Y-124019483D01*
X114222791Y-124002314D01*
X114165115Y-123996360D01*
X114104401Y-124002244D01*
X114054152Y-124018841D01*
X114012219Y-124045501D01*
X113978346Y-124081748D01*
X113953395Y-124127217D01*
X113937481Y-124183938D01*
X113532834Y-124183938D01*
X113534025Y-124177150D01*
X113558416Y-124098844D01*
X113593028Y-124024699D01*
X113635546Y-123959480D01*
X113686106Y-123902277D01*
X113776646Y-123831275D01*
X113886483Y-123777616D01*
X114008948Y-123745169D01*
X114151926Y-123733750D01*
X114292777Y-123745150D01*
G37*
D11*
X109404761Y-145969819D02*
X109071428Y-145493628D01*
X108833333Y-145969819D02*
X108833333Y-144969819D01*
X108833333Y-144969819D02*
X109214285Y-144969819D01*
X109214285Y-144969819D02*
X109309523Y-145017438D01*
X109309523Y-145017438D02*
X109357142Y-145065057D01*
X109357142Y-145065057D02*
X109404761Y-145160295D01*
X109404761Y-145160295D02*
X109404761Y-145303152D01*
X109404761Y-145303152D02*
X109357142Y-145398390D01*
X109357142Y-145398390D02*
X109309523Y-145446009D01*
X109309523Y-145446009D02*
X109214285Y-145493628D01*
X109214285Y-145493628D02*
X108833333Y-145493628D01*
X109690476Y-144969819D02*
X110023809Y-145969819D01*
X110023809Y-145969819D02*
X110357142Y-144969819D01*
X110642857Y-145065057D02*
X110690476Y-145017438D01*
X110690476Y-145017438D02*
X110785714Y-144969819D01*
X110785714Y-144969819D02*
X111023809Y-144969819D01*
X111023809Y-144969819D02*
X111119047Y-145017438D01*
X111119047Y-145017438D02*
X111166666Y-145065057D01*
X111166666Y-145065057D02*
X111214285Y-145160295D01*
X111214285Y-145160295D02*
X111214285Y-145255533D01*
X111214285Y-145255533D02*
X111166666Y-145398390D01*
X111166666Y-145398390D02*
X110595238Y-145969819D01*
X110595238Y-145969819D02*
X111214285Y-145969819D01*
X106570112Y-156696009D02*
X106712969Y-156743628D01*
X106712969Y-156743628D02*
X106760588Y-156791247D01*
X106760588Y-156791247D02*
X106808207Y-156886485D01*
X106808207Y-156886485D02*
X106808207Y-157029342D01*
X106808207Y-157029342D02*
X106760588Y-157124580D01*
X106760588Y-157124580D02*
X106712969Y-157172200D01*
X106712969Y-157172200D02*
X106617731Y-157219819D01*
X106617731Y-157219819D02*
X106236779Y-157219819D01*
X106236779Y-157219819D02*
X106236779Y-156219819D01*
X106236779Y-156219819D02*
X106570112Y-156219819D01*
X106570112Y-156219819D02*
X106665350Y-156267438D01*
X106665350Y-156267438D02*
X106712969Y-156315057D01*
X106712969Y-156315057D02*
X106760588Y-156410295D01*
X106760588Y-156410295D02*
X106760588Y-156505533D01*
X106760588Y-156505533D02*
X106712969Y-156600771D01*
X106712969Y-156600771D02*
X106665350Y-156648390D01*
X106665350Y-156648390D02*
X106570112Y-156696009D01*
X106570112Y-156696009D02*
X106236779Y-156696009D01*
X107760588Y-157219819D02*
X107189160Y-157219819D01*
X107474874Y-157219819D02*
X107474874Y-156219819D01*
X107474874Y-156219819D02*
X107379636Y-156362676D01*
X107379636Y-156362676D02*
X107284398Y-156457914D01*
X107284398Y-156457914D02*
X107189160Y-156505533D01*
X108379636Y-156219819D02*
X108474874Y-156219819D01*
X108474874Y-156219819D02*
X108570112Y-156267438D01*
X108570112Y-156267438D02*
X108617731Y-156315057D01*
X108617731Y-156315057D02*
X108665350Y-156410295D01*
X108665350Y-156410295D02*
X108712969Y-156600771D01*
X108712969Y-156600771D02*
X108712969Y-156838866D01*
X108712969Y-156838866D02*
X108665350Y-157029342D01*
X108665350Y-157029342D02*
X108617731Y-157124580D01*
X108617731Y-157124580D02*
X108570112Y-157172200D01*
X108570112Y-157172200D02*
X108474874Y-157219819D01*
X108474874Y-157219819D02*
X108379636Y-157219819D01*
X108379636Y-157219819D02*
X108284398Y-157172200D01*
X108284398Y-157172200D02*
X108236779Y-157124580D01*
X108236779Y-157124580D02*
X108189160Y-157029342D01*
X108189160Y-157029342D02*
X108141541Y-156838866D01*
X108141541Y-156838866D02*
X108141541Y-156600771D01*
X108141541Y-156600771D02*
X108189160Y-156410295D01*
X108189160Y-156410295D02*
X108236779Y-156315057D01*
X108236779Y-156315057D02*
X108284398Y-156267438D01*
X108284398Y-156267438D02*
X108379636Y-156219819D01*
X109141541Y-157219819D02*
X109141541Y-156219819D01*
X109712969Y-157219819D02*
X109284398Y-156648390D01*
X109712969Y-156219819D02*
X109141541Y-156791247D01*
X109404761Y-127069819D02*
X109071428Y-126593628D01*
X108833333Y-127069819D02*
X108833333Y-126069819D01*
X108833333Y-126069819D02*
X109214285Y-126069819D01*
X109214285Y-126069819D02*
X109309523Y-126117438D01*
X109309523Y-126117438D02*
X109357142Y-126165057D01*
X109357142Y-126165057D02*
X109404761Y-126260295D01*
X109404761Y-126260295D02*
X109404761Y-126403152D01*
X109404761Y-126403152D02*
X109357142Y-126498390D01*
X109357142Y-126498390D02*
X109309523Y-126546009D01*
X109309523Y-126546009D02*
X109214285Y-126593628D01*
X109214285Y-126593628D02*
X108833333Y-126593628D01*
X109690476Y-126069819D02*
X110023809Y-127069819D01*
X110023809Y-127069819D02*
X110357142Y-126069819D01*
X111214285Y-127069819D02*
X110642857Y-127069819D01*
X110928571Y-127069819D02*
X110928571Y-126069819D01*
X110928571Y-126069819D02*
X110833333Y-126212676D01*
X110833333Y-126212676D02*
X110738095Y-126307914D01*
X110738095Y-126307914D02*
X110642857Y-126355533D01*
X106570112Y-137696009D02*
X106712969Y-137743628D01*
X106712969Y-137743628D02*
X106760588Y-137791247D01*
X106760588Y-137791247D02*
X106808207Y-137886485D01*
X106808207Y-137886485D02*
X106808207Y-138029342D01*
X106808207Y-138029342D02*
X106760588Y-138124580D01*
X106760588Y-138124580D02*
X106712969Y-138172200D01*
X106712969Y-138172200D02*
X106617731Y-138219819D01*
X106617731Y-138219819D02*
X106236779Y-138219819D01*
X106236779Y-138219819D02*
X106236779Y-137219819D01*
X106236779Y-137219819D02*
X106570112Y-137219819D01*
X106570112Y-137219819D02*
X106665350Y-137267438D01*
X106665350Y-137267438D02*
X106712969Y-137315057D01*
X106712969Y-137315057D02*
X106760588Y-137410295D01*
X106760588Y-137410295D02*
X106760588Y-137505533D01*
X106760588Y-137505533D02*
X106712969Y-137600771D01*
X106712969Y-137600771D02*
X106665350Y-137648390D01*
X106665350Y-137648390D02*
X106570112Y-137696009D01*
X106570112Y-137696009D02*
X106236779Y-137696009D01*
X107760588Y-138219819D02*
X107189160Y-138219819D01*
X107474874Y-138219819D02*
X107474874Y-137219819D01*
X107474874Y-137219819D02*
X107379636Y-137362676D01*
X107379636Y-137362676D02*
X107284398Y-137457914D01*
X107284398Y-137457914D02*
X107189160Y-137505533D01*
X108379636Y-137219819D02*
X108474874Y-137219819D01*
X108474874Y-137219819D02*
X108570112Y-137267438D01*
X108570112Y-137267438D02*
X108617731Y-137315057D01*
X108617731Y-137315057D02*
X108665350Y-137410295D01*
X108665350Y-137410295D02*
X108712969Y-137600771D01*
X108712969Y-137600771D02*
X108712969Y-137838866D01*
X108712969Y-137838866D02*
X108665350Y-138029342D01*
X108665350Y-138029342D02*
X108617731Y-138124580D01*
X108617731Y-138124580D02*
X108570112Y-138172200D01*
X108570112Y-138172200D02*
X108474874Y-138219819D01*
X108474874Y-138219819D02*
X108379636Y-138219819D01*
X108379636Y-138219819D02*
X108284398Y-138172200D01*
X108284398Y-138172200D02*
X108236779Y-138124580D01*
X108236779Y-138124580D02*
X108189160Y-138029342D01*
X108189160Y-138029342D02*
X108141541Y-137838866D01*
X108141541Y-137838866D02*
X108141541Y-137600771D01*
X108141541Y-137600771D02*
X108189160Y-137410295D01*
X108189160Y-137410295D02*
X108236779Y-137315057D01*
X108236779Y-137315057D02*
X108284398Y-137267438D01*
X108284398Y-137267438D02*
X108379636Y-137219819D01*
X109141541Y-138219819D02*
X109141541Y-137219819D01*
X109712969Y-138219819D02*
X109284398Y-137648390D01*
X109712969Y-137219819D02*
X109141541Y-137791247D01*
X101166666Y-175954819D02*
X101166666Y-176669104D01*
X101166666Y-176669104D02*
X101119047Y-176811961D01*
X101119047Y-176811961D02*
X101023809Y-176907200D01*
X101023809Y-176907200D02*
X100880952Y-176954819D01*
X100880952Y-176954819D02*
X100785714Y-176954819D01*
X102166666Y-176954819D02*
X101595238Y-176954819D01*
X101880952Y-176954819D02*
X101880952Y-175954819D01*
X101880952Y-175954819D02*
X101785714Y-176097676D01*
X101785714Y-176097676D02*
X101690476Y-176192914D01*
X101690476Y-176192914D02*
X101595238Y-176240533D01*
X101166666Y-205954819D02*
X101166666Y-206669104D01*
X101166666Y-206669104D02*
X101119047Y-206811961D01*
X101119047Y-206811961D02*
X101023809Y-206907200D01*
X101023809Y-206907200D02*
X100880952Y-206954819D01*
X100880952Y-206954819D02*
X100785714Y-206954819D01*
X101547619Y-205954819D02*
X102166666Y-205954819D01*
X102166666Y-205954819D02*
X101833333Y-206335771D01*
X101833333Y-206335771D02*
X101976190Y-206335771D01*
X101976190Y-206335771D02*
X102071428Y-206383390D01*
X102071428Y-206383390D02*
X102119047Y-206431009D01*
X102119047Y-206431009D02*
X102166666Y-206526247D01*
X102166666Y-206526247D02*
X102166666Y-206764342D01*
X102166666Y-206764342D02*
X102119047Y-206859580D01*
X102119047Y-206859580D02*
X102071428Y-206907200D01*
X102071428Y-206907200D02*
X101976190Y-206954819D01*
X101976190Y-206954819D02*
X101690476Y-206954819D01*
X101690476Y-206954819D02*
X101595238Y-206907200D01*
X101595238Y-206907200D02*
X101547619Y-206859580D01*
X101166666Y-190954819D02*
X101166666Y-191669104D01*
X101166666Y-191669104D02*
X101119047Y-191811961D01*
X101119047Y-191811961D02*
X101023809Y-191907200D01*
X101023809Y-191907200D02*
X100880952Y-191954819D01*
X100880952Y-191954819D02*
X100785714Y-191954819D01*
X101595238Y-191050057D02*
X101642857Y-191002438D01*
X101642857Y-191002438D02*
X101738095Y-190954819D01*
X101738095Y-190954819D02*
X101976190Y-190954819D01*
X101976190Y-190954819D02*
X102071428Y-191002438D01*
X102071428Y-191002438D02*
X102119047Y-191050057D01*
X102119047Y-191050057D02*
X102166666Y-191145295D01*
X102166666Y-191145295D02*
X102166666Y-191240533D01*
X102166666Y-191240533D02*
X102119047Y-191383390D01*
X102119047Y-191383390D02*
X101547619Y-191954819D01*
X101547619Y-191954819D02*
X102166666Y-191954819D01*
X111066666Y-175954819D02*
X111066666Y-176669104D01*
X111066666Y-176669104D02*
X111019047Y-176811961D01*
X111019047Y-176811961D02*
X110923809Y-176907200D01*
X110923809Y-176907200D02*
X110780952Y-176954819D01*
X110780952Y-176954819D02*
X110685714Y-176954819D01*
X111971428Y-176288152D02*
X111971428Y-176954819D01*
X111733333Y-175907200D02*
X111495238Y-176621485D01*
X111495238Y-176621485D02*
X112114285Y-176621485D01*
X114838095Y-171054819D02*
X114838095Y-171864342D01*
X114838095Y-171864342D02*
X114885714Y-171959580D01*
X114885714Y-171959580D02*
X114933333Y-172007200D01*
X114933333Y-172007200D02*
X115028571Y-172054819D01*
X115028571Y-172054819D02*
X115219047Y-172054819D01*
X115219047Y-172054819D02*
X115314285Y-172007200D01*
X115314285Y-172007200D02*
X115361904Y-171959580D01*
X115361904Y-171959580D02*
X115409523Y-171864342D01*
X115409523Y-171864342D02*
X115409523Y-171054819D01*
X116314285Y-171054819D02*
X116123809Y-171054819D01*
X116123809Y-171054819D02*
X116028571Y-171102438D01*
X116028571Y-171102438D02*
X115980952Y-171150057D01*
X115980952Y-171150057D02*
X115885714Y-171292914D01*
X115885714Y-171292914D02*
X115838095Y-171483390D01*
X115838095Y-171483390D02*
X115838095Y-171864342D01*
X115838095Y-171864342D02*
X115885714Y-171959580D01*
X115885714Y-171959580D02*
X115933333Y-172007200D01*
X115933333Y-172007200D02*
X116028571Y-172054819D01*
X116028571Y-172054819D02*
X116219047Y-172054819D01*
X116219047Y-172054819D02*
X116314285Y-172007200D01*
X116314285Y-172007200D02*
X116361904Y-171959580D01*
X116361904Y-171959580D02*
X116409523Y-171864342D01*
X116409523Y-171864342D02*
X116409523Y-171626247D01*
X116409523Y-171626247D02*
X116361904Y-171531009D01*
X116361904Y-171531009D02*
X116314285Y-171483390D01*
X116314285Y-171483390D02*
X116219047Y-171435771D01*
X116219047Y-171435771D02*
X116028571Y-171435771D01*
X116028571Y-171435771D02*
X115933333Y-171483390D01*
X115933333Y-171483390D02*
X115885714Y-171531009D01*
X115885714Y-171531009D02*
X115838095Y-171626247D01*
D12*
X117671266Y-170260951D02*
X117671266Y-169499047D01*
X118052219Y-169879999D02*
X117290314Y-169879999D01*
X113871266Y-170270951D02*
X113871266Y-169509047D01*
D11*
X110966666Y-205954819D02*
X110966666Y-206669104D01*
X110966666Y-206669104D02*
X110919047Y-206811961D01*
X110919047Y-206811961D02*
X110823809Y-206907200D01*
X110823809Y-206907200D02*
X110680952Y-206954819D01*
X110680952Y-206954819D02*
X110585714Y-206954819D01*
X111871428Y-205954819D02*
X111680952Y-205954819D01*
X111680952Y-205954819D02*
X111585714Y-206002438D01*
X111585714Y-206002438D02*
X111538095Y-206050057D01*
X111538095Y-206050057D02*
X111442857Y-206192914D01*
X111442857Y-206192914D02*
X111395238Y-206383390D01*
X111395238Y-206383390D02*
X111395238Y-206764342D01*
X111395238Y-206764342D02*
X111442857Y-206859580D01*
X111442857Y-206859580D02*
X111490476Y-206907200D01*
X111490476Y-206907200D02*
X111585714Y-206954819D01*
X111585714Y-206954819D02*
X111776190Y-206954819D01*
X111776190Y-206954819D02*
X111871428Y-206907200D01*
X111871428Y-206907200D02*
X111919047Y-206859580D01*
X111919047Y-206859580D02*
X111966666Y-206764342D01*
X111966666Y-206764342D02*
X111966666Y-206526247D01*
X111966666Y-206526247D02*
X111919047Y-206431009D01*
X111919047Y-206431009D02*
X111871428Y-206383390D01*
X111871428Y-206383390D02*
X111776190Y-206335771D01*
X111776190Y-206335771D02*
X111585714Y-206335771D01*
X111585714Y-206335771D02*
X111490476Y-206383390D01*
X111490476Y-206383390D02*
X111442857Y-206431009D01*
X111442857Y-206431009D02*
X111395238Y-206526247D01*
X110866666Y-190954819D02*
X110866666Y-191669104D01*
X110866666Y-191669104D02*
X110819047Y-191811961D01*
X110819047Y-191811961D02*
X110723809Y-191907200D01*
X110723809Y-191907200D02*
X110580952Y-191954819D01*
X110580952Y-191954819D02*
X110485714Y-191954819D01*
X111819047Y-190954819D02*
X111342857Y-190954819D01*
X111342857Y-190954819D02*
X111295238Y-191431009D01*
X111295238Y-191431009D02*
X111342857Y-191383390D01*
X111342857Y-191383390D02*
X111438095Y-191335771D01*
X111438095Y-191335771D02*
X111676190Y-191335771D01*
X111676190Y-191335771D02*
X111771428Y-191383390D01*
X111771428Y-191383390D02*
X111819047Y-191431009D01*
X111819047Y-191431009D02*
X111866666Y-191526247D01*
X111866666Y-191526247D02*
X111866666Y-191764342D01*
X111866666Y-191764342D02*
X111819047Y-191859580D01*
X111819047Y-191859580D02*
X111771428Y-191907200D01*
X111771428Y-191907200D02*
X111676190Y-191954819D01*
X111676190Y-191954819D02*
X111438095Y-191954819D01*
X111438095Y-191954819D02*
X111342857Y-191907200D01*
X111342857Y-191907200D02*
X111295238Y-191859580D01*
X103438095Y-171054819D02*
X103438095Y-171864342D01*
X103438095Y-171864342D02*
X103485714Y-171959580D01*
X103485714Y-171959580D02*
X103533333Y-172007200D01*
X103533333Y-172007200D02*
X103628571Y-172054819D01*
X103628571Y-172054819D02*
X103819047Y-172054819D01*
X103819047Y-172054819D02*
X103914285Y-172007200D01*
X103914285Y-172007200D02*
X103961904Y-171959580D01*
X103961904Y-171959580D02*
X104009523Y-171864342D01*
X104009523Y-171864342D02*
X104009523Y-171054819D01*
X104961904Y-171054819D02*
X104485714Y-171054819D01*
X104485714Y-171054819D02*
X104438095Y-171531009D01*
X104438095Y-171531009D02*
X104485714Y-171483390D01*
X104485714Y-171483390D02*
X104580952Y-171435771D01*
X104580952Y-171435771D02*
X104819047Y-171435771D01*
X104819047Y-171435771D02*
X104914285Y-171483390D01*
X104914285Y-171483390D02*
X104961904Y-171531009D01*
X104961904Y-171531009D02*
X105009523Y-171626247D01*
X105009523Y-171626247D02*
X105009523Y-171864342D01*
X105009523Y-171864342D02*
X104961904Y-171959580D01*
X104961904Y-171959580D02*
X104914285Y-172007200D01*
X104914285Y-172007200D02*
X104819047Y-172054819D01*
X104819047Y-172054819D02*
X104580952Y-172054819D01*
X104580952Y-172054819D02*
X104485714Y-172007200D01*
X104485714Y-172007200D02*
X104438095Y-171959580D01*
D12*
X106171266Y-170260951D02*
X106171266Y-169499047D01*
X106552219Y-169879999D02*
X105790314Y-169879999D01*
X102371266Y-170270951D02*
X102371266Y-169509047D01*
D13*
%TO.C,RV2*%
X111397000Y-152000000D02*
G75*
G02*
X108603000Y-152000000I-1397000J0D01*
G01*
X108603000Y-152000000D02*
G75*
G02*
X111397000Y-152000000I1397000J0D01*
G01*
X111016000Y-152000000D02*
G75*
G02*
X108984000Y-152000000I-1016000J0D01*
G01*
X108984000Y-152000000D02*
G75*
G02*
X111016000Y-152000000I1016000J0D01*
G01*
D14*
X114650000Y-154150000D02*
X114650000Y-157350000D01*
X114650000Y-147150000D02*
X114650000Y-149350000D01*
X114650000Y-147150000D02*
X114100000Y-147150000D01*
X114100000Y-157900000D02*
X114100000Y-157350000D01*
X114100000Y-157900000D02*
X105900000Y-157900000D01*
X114100000Y-157350000D02*
X114650000Y-157350000D01*
X114100000Y-147150000D02*
X114100000Y-146600000D01*
X105900000Y-157350000D02*
X105900000Y-157900000D01*
X105900000Y-147150000D02*
X105350000Y-147150000D01*
X105900000Y-146600000D02*
X114100000Y-146600000D01*
X105900000Y-146600000D02*
X105900000Y-147150000D01*
X105350000Y-157350000D02*
X105900000Y-157350000D01*
X105350000Y-157350000D02*
X105350000Y-154150000D01*
X105350000Y-149350000D02*
X105350000Y-147150000D01*
D13*
%TO.C,RV1*%
X111397000Y-133000000D02*
G75*
G02*
X108603000Y-133000000I-1397000J0D01*
G01*
X108603000Y-133000000D02*
G75*
G02*
X111397000Y-133000000I1397000J0D01*
G01*
X111016000Y-133000000D02*
G75*
G02*
X108984000Y-133000000I-1016000J0D01*
G01*
X108984000Y-133000000D02*
G75*
G02*
X111016000Y-133000000I1016000J0D01*
G01*
D14*
X114650000Y-135150000D02*
X114650000Y-138350000D01*
X114650000Y-128150000D02*
X114650000Y-130350000D01*
X114650000Y-128150000D02*
X114100000Y-128150000D01*
X114100000Y-138900000D02*
X114100000Y-138350000D01*
X114100000Y-138900000D02*
X105900000Y-138900000D01*
X114100000Y-138350000D02*
X114650000Y-138350000D01*
X114100000Y-128150000D02*
X114100000Y-127600000D01*
X105900000Y-138350000D02*
X105900000Y-138900000D01*
X105900000Y-128150000D02*
X105350000Y-128150000D01*
X105900000Y-127600000D02*
X114100000Y-127600000D01*
X105900000Y-127600000D02*
X105900000Y-128150000D01*
X105350000Y-138350000D02*
X105900000Y-138350000D01*
X105350000Y-138350000D02*
X105350000Y-135150000D01*
X105350000Y-130350000D02*
X105350000Y-128150000D01*
D15*
%TO.C,J1*%
X100500000Y-177250000D02*
X100500000Y-187750000D01*
X103770000Y-174100000D02*
X103770000Y-174900000D01*
X103770000Y-174100000D02*
X104630000Y-174100000D01*
X104200000Y-187750000D02*
X100500000Y-187750000D01*
X104280000Y-177250000D02*
X100500000Y-177250000D01*
X109500000Y-177250000D02*
X105720000Y-177250000D01*
X109500000Y-177250000D02*
X109500000Y-187750000D01*
X109500000Y-187750000D02*
X105800000Y-187750000D01*
X106800000Y-181750000D02*
G75*
G02*
X103200000Y-181750000I-1800000J0D01*
G01*
X103200000Y-181750000D02*
G75*
G02*
X106800000Y-181750000I1800000J0D01*
G01*
%TO.C,J3*%
X100500000Y-207250000D02*
X100500000Y-217750000D01*
X103770000Y-204100000D02*
X103770000Y-204900000D01*
X103770000Y-204100000D02*
X104630000Y-204100000D01*
X104200000Y-217750000D02*
X100500000Y-217750000D01*
X104280000Y-207250000D02*
X100500000Y-207250000D01*
X109500000Y-207250000D02*
X105720000Y-207250000D01*
X109500000Y-207250000D02*
X109500000Y-217750000D01*
X109500000Y-217750000D02*
X105800000Y-217750000D01*
X106800000Y-211750000D02*
G75*
G02*
X103200000Y-211750000I-1800000J0D01*
G01*
X103200000Y-211750000D02*
G75*
G02*
X106800000Y-211750000I1800000J0D01*
G01*
%TO.C,J2*%
X100500000Y-192250000D02*
X100500000Y-202750000D01*
X103770000Y-189100000D02*
X103770000Y-189900000D01*
X103770000Y-189100000D02*
X104630000Y-189100000D01*
X104200000Y-202750000D02*
X100500000Y-202750000D01*
X104280000Y-192250000D02*
X100500000Y-192250000D01*
X109500000Y-192250000D02*
X105720000Y-192250000D01*
X109500000Y-192250000D02*
X109500000Y-202750000D01*
X109500000Y-202750000D02*
X105800000Y-202750000D01*
X106800000Y-196750000D02*
G75*
G02*
X103200000Y-196750000I-1800000J0D01*
G01*
X103200000Y-196750000D02*
G75*
G02*
X106800000Y-196750000I1800000J0D01*
G01*
%TO.C,J4*%
X110500000Y-177250000D02*
X110500000Y-187750000D01*
X113770000Y-174100000D02*
X113770000Y-174900000D01*
X113770000Y-174100000D02*
X114630000Y-174100000D01*
X114200000Y-187750000D02*
X110500000Y-187750000D01*
X114280000Y-177250000D02*
X110500000Y-177250000D01*
X119500000Y-177250000D02*
X115720000Y-177250000D01*
X119500000Y-177250000D02*
X119500000Y-187750000D01*
X119500000Y-187750000D02*
X115800000Y-187750000D01*
X116800000Y-181750000D02*
G75*
G02*
X113200000Y-181750000I-1800000J0D01*
G01*
X113200000Y-181750000D02*
G75*
G02*
X116800000Y-181750000I1800000J0D01*
G01*
%TO.C,U6*%
X112390000Y-164210000D02*
X119110000Y-164210000D01*
X112390000Y-170630000D02*
X112390000Y-164210000D01*
X113860000Y-171040000D02*
X113860000Y-170630000D01*
X114450000Y-164210000D02*
X114450000Y-163800000D01*
X117000000Y-164210000D02*
X117000000Y-163800000D01*
X117660000Y-171040000D02*
X117660000Y-170630000D01*
X118730000Y-173620000D02*
X118730000Y-170630000D01*
X119110000Y-164210000D02*
X119110000Y-170630000D01*
X119110000Y-170630000D02*
X112390000Y-170630000D01*
D16*
X112812500Y-171070000D02*
G75*
G02*
X112487500Y-171070000I-162500J0D01*
G01*
X112487500Y-171070000D02*
G75*
G02*
X112812500Y-171070000I162500J0D01*
G01*
D15*
%TO.C,J6*%
X110500000Y-207250000D02*
X110500000Y-217750000D01*
X113770000Y-204100000D02*
X113770000Y-204900000D01*
X113770000Y-204100000D02*
X114630000Y-204100000D01*
X114200000Y-217750000D02*
X110500000Y-217750000D01*
X114280000Y-207250000D02*
X110500000Y-207250000D01*
X119500000Y-207250000D02*
X115720000Y-207250000D01*
X119500000Y-207250000D02*
X119500000Y-217750000D01*
X119500000Y-217750000D02*
X115800000Y-217750000D01*
X116800000Y-211750000D02*
G75*
G02*
X113200000Y-211750000I-1800000J0D01*
G01*
X113200000Y-211750000D02*
G75*
G02*
X116800000Y-211750000I1800000J0D01*
G01*
%TO.C,J5*%
X110500000Y-192250000D02*
X110500000Y-202750000D01*
X113770000Y-189100000D02*
X113770000Y-189900000D01*
X113770000Y-189100000D02*
X114630000Y-189100000D01*
X114200000Y-202750000D02*
X110500000Y-202750000D01*
X114280000Y-192250000D02*
X110500000Y-192250000D01*
X119500000Y-192250000D02*
X115720000Y-192250000D01*
X119500000Y-192250000D02*
X119500000Y-202750000D01*
X119500000Y-202750000D02*
X115800000Y-202750000D01*
X116800000Y-196750000D02*
G75*
G02*
X113200000Y-196750000I-1800000J0D01*
G01*
X113200000Y-196750000D02*
G75*
G02*
X116800000Y-196750000I1800000J0D01*
G01*
%TO.C,U5*%
X100890000Y-164210000D02*
X107610000Y-164210000D01*
X100890000Y-170630000D02*
X100890000Y-164210000D01*
X102360000Y-171040000D02*
X102360000Y-170630000D01*
X102950000Y-164210000D02*
X102950000Y-163800000D01*
X105500000Y-164210000D02*
X105500000Y-163800000D01*
X106160000Y-171040000D02*
X106160000Y-170630000D01*
X107230000Y-173620000D02*
X107230000Y-170630000D01*
X107610000Y-164210000D02*
X107610000Y-170630000D01*
X107610000Y-170630000D02*
X100890000Y-170630000D01*
D16*
X101312500Y-171070000D02*
G75*
G02*
X100987500Y-171070000I-162500J0D01*
G01*
X100987500Y-171070000D02*
G75*
G02*
X101312500Y-171070000I162500J0D01*
G01*
%TD*%
%LPC*%
D17*
%TO.C,RV2*%
X114500000Y-152000000D03*
X105500000Y-152000000D03*
D18*
X112500000Y-159000000D03*
X110000000Y-159000000D03*
D19*
X107500000Y-159000000D03*
%TD*%
D17*
%TO.C,RV1*%
X114500000Y-133000000D03*
X105500000Y-133000000D03*
D18*
X112500000Y-140000000D03*
X110000000Y-140000000D03*
D19*
X107500000Y-140000000D03*
%TD*%
D20*
%TO.C,J1*%
X105000000Y-175270000D03*
D21*
X105000000Y-186670000D03*
X105000000Y-178370000D03*
%TD*%
D20*
%TO.C,J3*%
X105000000Y-205270000D03*
D21*
X105000000Y-216670000D03*
X105000000Y-208370000D03*
%TD*%
D20*
%TO.C,J2*%
X105000000Y-190270000D03*
D21*
X105000000Y-201670000D03*
X105000000Y-193370000D03*
%TD*%
D20*
%TO.C,J4*%
X115000000Y-175270000D03*
D21*
X115000000Y-186670000D03*
X115000000Y-178370000D03*
%TD*%
D22*
%TO.C,U6*%
X117660000Y-172500000D03*
D23*
X113850000Y-172500000D03*
X114490000Y-162340000D03*
X117020000Y-162340000D03*
%TD*%
D20*
%TO.C,J6*%
X115000000Y-205270000D03*
D21*
X115000000Y-216670000D03*
X115000000Y-208370000D03*
%TD*%
D20*
%TO.C,J5*%
X115000000Y-190270000D03*
D21*
X115000000Y-201670000D03*
X115000000Y-193370000D03*
%TD*%
D22*
%TO.C,U5*%
X106160000Y-172500000D03*
D23*
X102350000Y-172500000D03*
X102990000Y-162340000D03*
X105520000Y-162340000D03*
%TD*%
D24*
%TO.C,C7*%
X117000000Y-141500000D03*
X117000000Y-136500000D03*
%TD*%
D25*
%TO.C,PWR1*%
X104920000Y-112960000D03*
X104920000Y-115500000D03*
X107460000Y-113214000D03*
X107460000Y-115754000D03*
X110000000Y-112960000D03*
X110000000Y-115500000D03*
X112540000Y-113214000D03*
X112540000Y-115754000D03*
X115080000Y-112960000D03*
X115080000Y-115500000D03*
%TD*%
D24*
%TO.C,C4*%
X103000000Y-141500000D03*
X103000000Y-136500000D03*
%TD*%
%LPD*%
M02*
