%TF.GenerationSoftware,KiCad,Pcbnew,9.0.6*%
%TF.CreationDate,2026-01-02T00:07:23-05:00*%
%TF.ProjectId,active-vactrol-vca-board,61637469-7665-42d7-9661-6374726f6c2d,rev?*%
%TF.SameCoordinates,Original*%
%TF.FileFunction,Copper,L2,Bot*%
%TF.FilePolarity,Positive*%
%FSLAX46Y46*%
G04 Gerber Fmt 4.6, Leading zero omitted, Abs format (unit mm)*
G04 Created by KiCad (PCBNEW 9.0.6) date 2026-01-02 00:07:23*
%MOMM*%
%LPD*%
G01*
G04 APERTURE LIST*
G04 Aperture macros list*
%AMRoundRect*
0 Rectangle with rounded corners*
0 $1 Rounding radius*
0 $2 $3 $4 $5 $6 $7 $8 $9 X,Y pos of 4 corners*
0 Add a 4 corners polygon primitive as box body*
4,1,4,$2,$3,$4,$5,$6,$7,$8,$9,$2,$3,0*
0 Add four circle primitives for the rounded corners*
1,1,$1+$1,$2,$3*
1,1,$1+$1,$4,$5*
1,1,$1+$1,$6,$7*
1,1,$1+$1,$8,$9*
0 Add four rect primitives between the rounded corners*
20,1,$1+$1,$2,$3,$4,$5,0*
20,1,$1+$1,$4,$5,$6,$7,0*
20,1,$1+$1,$6,$7,$8,$9,0*
20,1,$1+$1,$8,$9,$2,$3,0*%
G04 Aperture macros list end*
%TA.AperFunction,SMDPad,CuDef*%
%ADD10RoundRect,0.250000X-0.650000X1.500000X-0.650000X-1.500000X0.650000X-1.500000X0.650000X1.500000X0*%
%TD*%
%TA.AperFunction,ComponentPad*%
%ADD11R,3.116000X3.116000*%
%TD*%
%TA.AperFunction,ComponentPad*%
%ADD12C,1.650000*%
%TD*%
%TA.AperFunction,ComponentPad*%
%ADD13R,1.650000X1.650000*%
%TD*%
%TA.AperFunction,ComponentPad*%
%ADD14R,1.930000X1.830000*%
%TD*%
%TA.AperFunction,ComponentPad*%
%ADD15C,2.130000*%
%TD*%
%TA.AperFunction,ComponentPad*%
%ADD16RoundRect,0.249630X0.535370X-0.895370X0.535370X0.895370X-0.535370X0.895370X-0.535370X-0.895370X0*%
%TD*%
%TA.AperFunction,ComponentPad*%
%ADD17O,1.570000X2.290000*%
%TD*%
%TA.AperFunction,SMDPad,CuDef*%
%ADD18R,1.000000X1.000000*%
%TD*%
%TA.AperFunction,SMDPad,CuDef*%
%ADD19R,1.300000X0.700000*%
%TD*%
%TA.AperFunction,SMDPad,CuDef*%
%ADD20RoundRect,0.150000X-0.150000X0.825000X-0.150000X-0.825000X0.150000X-0.825000X0.150000X0.825000X0*%
%TD*%
%TA.AperFunction,SMDPad,CuDef*%
%ADD21RoundRect,0.150000X0.825000X0.150000X-0.825000X0.150000X-0.825000X-0.150000X0.825000X-0.150000X0*%
%TD*%
%TA.AperFunction,ComponentPad*%
%ADD22C,1.600000*%
%TD*%
%TA.AperFunction,ComponentPad*%
%ADD23C,1.879600*%
%TD*%
%TA.AperFunction,SMDPad,CuDef*%
%ADD24RoundRect,0.375000X0.625000X0.375000X-0.625000X0.375000X-0.625000X-0.375000X0.625000X-0.375000X0*%
%TD*%
%TA.AperFunction,SMDPad,CuDef*%
%ADD25RoundRect,0.500000X0.500000X1.400000X-0.500000X1.400000X-0.500000X-1.400000X0.500000X-1.400000X0*%
%TD*%
%TA.AperFunction,SMDPad,CuDef*%
%ADD26RoundRect,0.250000X0.650000X-1.500000X0.650000X1.500000X-0.650000X1.500000X-0.650000X-1.500000X0*%
%TD*%
%TA.AperFunction,ViaPad*%
%ADD27C,0.700000*%
%TD*%
%TA.AperFunction,ViaPad*%
%ADD28C,0.600000*%
%TD*%
%TA.AperFunction,Conductor*%
%ADD29C,0.600000*%
%TD*%
%TA.AperFunction,Conductor*%
%ADD30C,0.500000*%
%TD*%
%TA.AperFunction,Conductor*%
%ADD31C,0.400000*%
%TD*%
%TA.AperFunction,Conductor*%
%ADD32C,0.300000*%
%TD*%
G04 APERTURE END LIST*
D10*
%TO.P,D2,2,A*%
%TO.N,-12V*%
X103250000Y-127250000D03*
%TO.P,D2,1,K*%
%TO.N,Net-(D2-K)*%
X103250000Y-122250000D03*
%TD*%
D11*
%TO.P,RV2,CHASSIS2*%
%TO.N,N/C*%
X114500000Y-152000000D03*
%TO.P,RV2,CHASSIS1*%
X105500000Y-152000000D03*
D12*
%TO.P,RV2,3,3*%
%TO.N,/Right Gate/R_CV_BUFFERED*%
X112500000Y-159000000D03*
%TO.P,RV2,2,2*%
%TO.N,/Right Gate/R_CV_ATTENUATED*%
X110000000Y-159000000D03*
D13*
%TO.P,RV2,1,1*%
%TO.N,GND*%
X107500000Y-159000000D03*
%TD*%
D11*
%TO.P,RV1,CHASSIS2*%
%TO.N,N/C*%
X114500000Y-133000000D03*
%TO.P,RV1,CHASSIS1*%
X105500000Y-133000000D03*
D12*
%TO.P,RV1,3,3*%
%TO.N,/Left Gate/L_CV_BUFFERED*%
X112500000Y-140000000D03*
%TO.P,RV1,2,2*%
%TO.N,/Left Gate/L_CV_ATTENUATED*%
X110000000Y-140000000D03*
D13*
%TO.P,RV1,1,1*%
%TO.N,GND*%
X107500000Y-140000000D03*
%TD*%
D14*
%TO.P,J1,S*%
%TO.N,GND*%
X105000000Y-175270000D03*
D15*
%TO.P,J1,T*%
%TO.N,L_CV_INPUT*%
X105000000Y-186670000D03*
%TO.P,J1,TN*%
%TO.N,Net-(J1-PadTN)*%
X105000000Y-178370000D03*
%TD*%
D14*
%TO.P,J3,S*%
%TO.N,GND*%
X105000000Y-205270000D03*
D15*
%TO.P,J3,T*%
%TO.N,L_OUTPUT*%
X105000000Y-216670000D03*
%TO.P,J3,TN*%
%TO.N,unconnected-(J3-PadTN)*%
X105000000Y-208370000D03*
%TD*%
D14*
%TO.P,J2,S*%
%TO.N,GND*%
X105000000Y-190270000D03*
D15*
%TO.P,J2,T*%
%TO.N,/Left Gate/L_IN_UNBUFFERED*%
X105000000Y-201670000D03*
%TO.P,J2,TN*%
%TO.N,unconnected-(J2-PadTN)*%
X105000000Y-193370000D03*
%TD*%
D14*
%TO.P,J4,S*%
%TO.N,GND*%
X115000000Y-175270000D03*
D15*
%TO.P,J4,T*%
%TO.N,/Right Gate/R_CV_IN_UNBUFFERED*%
X115000000Y-186670000D03*
%TO.P,J4,TN*%
%TO.N,L_CV_INPUT*%
X115000000Y-178370000D03*
%TD*%
D16*
%TO.P,U6,1,A*%
%TO.N,GND*%
X117660000Y-172500000D03*
D17*
%TO.P,U6,2,K*%
%TO.N,/Right Gate/R_CV_ATTENUATED*%
X113850000Y-172500000D03*
%TO.P,U6,3,R*%
%TO.N,/Right Gate/R_BUFFERED*%
X114490000Y-162340000D03*
%TO.P,U6,4,R*%
%TO.N,/Right Gate/R_VACTROL_OUTPUT*%
X117020000Y-162340000D03*
%TD*%
D14*
%TO.P,J6,S*%
%TO.N,GND*%
X115000000Y-205270000D03*
D15*
%TO.P,J6,T*%
%TO.N,/Right Gate/R_OUT_BUFFERED*%
X115000000Y-216670000D03*
%TO.P,J6,TN*%
%TO.N,unconnected-(J6-PadTN)*%
X115000000Y-208370000D03*
%TD*%
D14*
%TO.P,J5,S*%
%TO.N,GND*%
X115000000Y-190270000D03*
D15*
%TO.P,J5,T*%
%TO.N,/Right Gate/R_IN_UNBUFFERED*%
X115000000Y-201670000D03*
%TO.P,J5,TN*%
%TO.N,L_OUTPUT*%
X115000000Y-193370000D03*
%TD*%
D16*
%TO.P,U5,1,A*%
%TO.N,GND*%
X106160000Y-172500000D03*
D17*
%TO.P,U5,2,K*%
%TO.N,/Left Gate/L_CV_ATTENUATED*%
X102350000Y-172500000D03*
%TO.P,U5,3,R*%
%TO.N,/Left Gate/L_BUFFERED*%
X102990000Y-162340000D03*
%TO.P,U5,4,R*%
%TO.N,/Left Gate/L_VACTROL_OUTPUT*%
X105520000Y-162340000D03*
%TD*%
D18*
%TO.P,R11,1*%
%TO.N,Net-(U3A--)*%
X110300000Y-188650000D03*
%TO.P,R11,2*%
%TO.N,/Right Gate/R_CV_BUFFERED*%
X110300000Y-190350000D03*
%TD*%
%TO.P,R20,1*%
%TO.N,Net-(U2A--)*%
X102100000Y-159400000D03*
%TO.P,R20,2*%
%TO.N,Net-(U2B--)*%
X102100000Y-157700000D03*
%TD*%
%TO.P,R4,1*%
%TO.N,Net-(U1B--)*%
X105000000Y-183600000D03*
%TO.P,R4,2*%
%TO.N,/Left Gate/L_BUFFERED*%
X105000000Y-181900000D03*
%TD*%
%TO.P,L2,1,1*%
%TO.N,/-12V_In*%
X109750000Y-119900000D03*
%TO.P,L2,2,2*%
%TO.N,Net-(D2-K)*%
X108050000Y-119900000D03*
%TD*%
D19*
%TO.P,C6,1*%
%TO.N,GND*%
X109000000Y-132550000D03*
%TO.P,C6,2*%
%TO.N,Net-(C6-Pad2)*%
X109000000Y-130650000D03*
%TD*%
D18*
%TO.P,L1,1,1*%
%TO.N,/+12V_In*%
X111550000Y-119900000D03*
%TO.P,L1,2,2*%
%TO.N,Net-(D1-A)*%
X113250000Y-119900000D03*
%TD*%
%TO.P,R6,1*%
%TO.N,+12V*%
X112450000Y-129000000D03*
%TO.P,R6,2*%
%TO.N,Net-(C3-Pad2)*%
X110750000Y-129000000D03*
%TD*%
D19*
%TO.P,C1,1*%
%TO.N,-12V*%
X102300000Y-131050000D03*
%TO.P,C1,2*%
%TO.N,GND*%
X102300000Y-132950000D03*
%TD*%
D18*
%TO.P,R18,1*%
%TO.N,Net-(R18-Pad1)*%
X106250000Y-148400000D03*
%TO.P,R18,2*%
%TO.N,/Right Gate/R_OUT_BUFFERED*%
X104550000Y-148400000D03*
%TD*%
%TO.P,R13,1*%
%TO.N,Net-(U3B--)*%
X108250000Y-199700000D03*
%TO.P,R13,2*%
%TO.N,/Right Gate/R_BUFFERED*%
X106550000Y-199700000D03*
%TD*%
%TO.P,R8,1*%
%TO.N,Net-(U2B--)*%
X104000000Y-157750000D03*
%TO.P,R8,2*%
%TO.N,L_OUTPUT*%
X104000000Y-159450000D03*
%TD*%
D20*
%TO.P,U4,1*%
%TO.N,Net-(U4A--)*%
X108195000Y-143425000D03*
%TO.P,U4,2,-*%
X109465000Y-143425000D03*
%TO.P,U4,3,+*%
%TO.N,/Right Gate/R_VACTROL_OUTPUT*%
X110735000Y-143425000D03*
%TO.P,U4,4,V-*%
%TO.N,-12V*%
X112005000Y-143425000D03*
%TO.P,U4,5,+*%
%TO.N,GND*%
X112005000Y-148375000D03*
%TO.P,U4,6,-*%
%TO.N,Net-(U4B--)*%
X110735000Y-148375000D03*
%TO.P,U4,7*%
%TO.N,Net-(R18-Pad1)*%
X109465000Y-148375000D03*
%TO.P,U4,8,V+*%
%TO.N,+12V*%
X108195000Y-148375000D03*
%TD*%
D21*
%TO.P,U1,1*%
%TO.N,/Left Gate/L_CV_BUFFERED*%
X112725000Y-181095000D03*
%TO.P,U1,2,-*%
%TO.N,Net-(U1A--)*%
X112725000Y-182365000D03*
%TO.P,U1,3,+*%
%TO.N,GND*%
X112725000Y-183635000D03*
%TO.P,U1,4,V-*%
%TO.N,-12V*%
X112725000Y-184905000D03*
%TO.P,U1,5,+*%
%TO.N,GND*%
X107775000Y-184905000D03*
%TO.P,U1,6,-*%
%TO.N,Net-(U1B--)*%
X107775000Y-183635000D03*
%TO.P,U1,7*%
%TO.N,/Left Gate/L_BUFFERED*%
X107775000Y-182365000D03*
%TO.P,U1,8,V+*%
%TO.N,+12V*%
X107775000Y-181095000D03*
%TD*%
D18*
%TO.P,C5,1*%
%TO.N,L_OUTPUT*%
X109300000Y-161650000D03*
%TO.P,C5,2*%
%TO.N,Net-(U2B--)*%
X109300000Y-163350000D03*
%TD*%
%TO.P,R19,1*%
%TO.N,Net-(U4A--)*%
X106300000Y-142850000D03*
%TO.P,R19,2*%
%TO.N,Net-(U4B--)*%
X106300000Y-144550000D03*
%TD*%
%TO.P,R12,1*%
%TO.N,/Right Gate/R_IN_UNBUFFERED*%
X111900000Y-197950000D03*
%TO.P,R12,2*%
%TO.N,Net-(U3B--)*%
X111900000Y-199650000D03*
%TD*%
D19*
%TO.P,C2,1*%
%TO.N,+12V*%
X117700000Y-130650000D03*
%TO.P,C2,2*%
%TO.N,GND*%
X117700000Y-132550000D03*
%TD*%
D22*
%TO.P,C7,1*%
%TO.N,/Right Gate/R_VACTROL_OUTPUT*%
X117000000Y-141500000D03*
%TO.P,C7,2*%
%TO.N,GND*%
X117000000Y-136500000D03*
%TD*%
D19*
%TO.P,C3,1*%
%TO.N,GND*%
X110900000Y-132550000D03*
%TO.P,C3,2*%
%TO.N,Net-(C3-Pad2)*%
X110900000Y-130650000D03*
%TD*%
D18*
%TO.P,R9,1*%
%TO.N,Net-(R9-Pad1)*%
X111000000Y-163350000D03*
%TO.P,R9,2*%
%TO.N,L_OUTPUT*%
X111000000Y-161650000D03*
%TD*%
D23*
%TO.P,PWR1,1,-12V*%
%TO.N,/-12V_In*%
X104920000Y-112960000D03*
%TO.P,PWR1,2,-12V*%
X104920000Y-115500000D03*
%TO.P,PWR1,3,GND*%
%TO.N,GND*%
X107460000Y-113214000D03*
%TO.P,PWR1,4,GND*%
X107460000Y-115754000D03*
%TO.P,PWR1,5,GND*%
X110000000Y-112960000D03*
%TO.P,PWR1,6,GND*%
X110000000Y-115500000D03*
%TO.P,PWR1,7,GND*%
X112540000Y-113214000D03*
%TO.P,PWR1,8,GND*%
X112540000Y-115754000D03*
%TO.P,PWR1,9,+12V*%
%TO.N,/+12V_In*%
X115080000Y-112960000D03*
%TO.P,PWR1,10,+12V*%
X115080000Y-115500000D03*
%TD*%
D18*
%TO.P,R7,1*%
%TO.N,+5V*%
X107450000Y-129000000D03*
%TO.P,R7,2*%
%TO.N,Net-(C6-Pad2)*%
X109150000Y-129000000D03*
%TD*%
%TO.P,R1,1*%
%TO.N,L_CV_INPUT*%
X108550000Y-187000000D03*
%TO.P,R1,2*%
%TO.N,Net-(U1A--)*%
X110250000Y-187000000D03*
%TD*%
D21*
%TO.P,U2,1*%
%TO.N,Net-(U2A--)*%
X106975000Y-165940000D03*
%TO.P,U2,2,-*%
X106975000Y-167210000D03*
%TO.P,U2,3,+*%
%TO.N,/Left Gate/L_VACTROL_OUTPUT*%
X106975000Y-168480000D03*
%TO.P,U2,4,V-*%
%TO.N,-12V*%
X106975000Y-169750000D03*
%TO.P,U2,5,+*%
%TO.N,GND*%
X102025000Y-169750000D03*
%TO.P,U2,6,-*%
%TO.N,Net-(U2B--)*%
X102025000Y-168480000D03*
%TO.P,U2,7*%
%TO.N,Net-(R9-Pad1)*%
X102025000Y-167210000D03*
%TO.P,U2,8,V+*%
%TO.N,+12V*%
X102025000Y-165940000D03*
%TD*%
D18*
%TO.P,C8,1*%
%TO.N,/Right Gate/R_OUT_BUFFERED*%
X102000000Y-146700000D03*
%TO.P,C8,2*%
%TO.N,Net-(U4B--)*%
X102000000Y-145000000D03*
%TD*%
D20*
%TO.P,U3,1*%
%TO.N,/Right Gate/R_CV_BUFFERED*%
X108095000Y-205525000D03*
%TO.P,U3,2,-*%
%TO.N,Net-(U3A--)*%
X109365000Y-205525000D03*
%TO.P,U3,3,+*%
%TO.N,GND*%
X110635000Y-205525000D03*
%TO.P,U3,4,V-*%
%TO.N,-12V*%
X111905000Y-205525000D03*
%TO.P,U3,5,+*%
%TO.N,GND*%
X111905000Y-210475000D03*
%TO.P,U3,6,-*%
%TO.N,Net-(U3B--)*%
X110635000Y-210475000D03*
%TO.P,U3,7*%
%TO.N,/Right Gate/R_BUFFERED*%
X109365000Y-210475000D03*
%TO.P,U3,8,V+*%
%TO.N,+12V*%
X108095000Y-210475000D03*
%TD*%
D18*
%TO.P,R17,1*%
%TO.N,Net-(U4B--)*%
X106450000Y-146200000D03*
%TO.P,R17,2*%
%TO.N,/Right Gate/R_OUT_BUFFERED*%
X104750000Y-146200000D03*
%TD*%
D22*
%TO.P,C4,1*%
%TO.N,/Left Gate/L_VACTROL_OUTPUT*%
X103000000Y-141500000D03*
%TO.P,C4,2*%
%TO.N,GND*%
X103000000Y-136500000D03*
%TD*%
D24*
%TO.P,U7,1,GND*%
%TO.N,GND*%
X113150000Y-122200000D03*
%TO.P,U7,2,VO*%
%TO.N,+5V*%
X113150000Y-124500000D03*
D25*
X106850000Y-124500000D03*
D24*
%TO.P,U7,3,VI*%
%TO.N,+12V*%
X113150000Y-126800000D03*
%TD*%
D18*
%TO.P,R10,1*%
%TO.N,/Right Gate/R_CV_IN_UNBUFFERED*%
X112400000Y-186950000D03*
%TO.P,R10,2*%
%TO.N,Net-(U3A--)*%
X112400000Y-188650000D03*
%TD*%
%TO.P,R3,1*%
%TO.N,/Left Gate/L_IN_UNBUFFERED*%
X103200000Y-183600000D03*
%TO.P,R3,2*%
%TO.N,Net-(U1B--)*%
X103200000Y-181900000D03*
%TD*%
%TO.P,R2,1*%
%TO.N,Net-(U1A--)*%
X115000000Y-182650000D03*
%TO.P,R2,2*%
%TO.N,/Left Gate/L_CV_BUFFERED*%
X115000000Y-180950000D03*
%TD*%
%TO.P,R5,1*%
%TO.N,+5V*%
X110650000Y-136800000D03*
%TO.P,R5,2*%
%TO.N,Net-(J1-PadTN)*%
X108950000Y-136800000D03*
%TD*%
D26*
%TO.P,D1,1,K*%
%TO.N,+12V*%
X116750000Y-127250000D03*
%TO.P,D1,2,A*%
%TO.N,Net-(D1-A)*%
X116750000Y-122250000D03*
%TD*%
D27*
%TO.N,-12V*%
X105100000Y-127500000D03*
D28*
%TO.N,GND*%
X115200000Y-118000000D03*
X113100000Y-174700000D03*
X105200000Y-188700000D03*
X101800000Y-178700000D03*
X102400000Y-116300000D03*
X113700000Y-147800000D03*
D27*
X117700000Y-133400000D03*
D28*
X107800000Y-156400000D03*
X101900000Y-196200000D03*
X115400000Y-173500000D03*
D27*
X102300000Y-133800000D03*
D28*
X115700000Y-199200000D03*
X102300000Y-213100000D03*
X106000000Y-157100000D03*
X101800000Y-111300000D03*
X102400000Y-114300000D03*
X110000000Y-145300000D03*
D27*
X108700000Y-133300000D03*
D28*
X102200000Y-215600000D03*
X109700000Y-153700000D03*
X102300000Y-209100000D03*
X115000000Y-154800000D03*
X117600000Y-114300000D03*
X116500000Y-191900000D03*
D27*
X111700000Y-122200000D03*
D28*
X111500000Y-153400000D03*
X107800000Y-216100000D03*
X114100000Y-158000000D03*
X109900000Y-155500000D03*
D27*
X111900000Y-135800000D03*
D28*
X101800000Y-117900000D03*
X118100000Y-111400000D03*
X106200000Y-213500000D03*
D27*
X112000000Y-149800000D03*
D28*
X114500000Y-156800000D03*
X101700000Y-188700000D03*
D27*
X111900000Y-211800000D03*
D28*
X115600000Y-138900000D03*
X117000000Y-179600000D03*
D27*
X103500000Y-169750000D03*
D28*
X102100000Y-176000000D03*
X102800000Y-119100000D03*
D27*
X108500000Y-202000000D03*
D28*
X116100000Y-170300000D03*
X118200000Y-117900000D03*
X101600000Y-183000000D03*
X102200000Y-205600000D03*
X117600000Y-116300000D03*
X112700000Y-213600000D03*
D27*
X110900000Y-131900000D03*
D28*
X107100000Y-121500000D03*
X116700000Y-119000000D03*
X110000000Y-121600000D03*
X111400000Y-216900000D03*
X109400000Y-151900000D03*
D27*
X114300000Y-184100000D03*
D28*
X116300000Y-188300000D03*
X117000000Y-182800000D03*
D27*
X106400000Y-184900000D03*
D28*
X103700000Y-118000000D03*
D27*
%TO.N,-12V*%
X116300000Y-184900000D03*
X110700000Y-198800000D03*
X110700000Y-203000000D03*
X101350001Y-131000000D03*
X107000000Y-170400000D03*
X105000000Y-169100000D03*
X107600000Y-195600000D03*
X113700000Y-142600000D03*
X117528000Y-194300000D03*
%TO.N,+12V*%
X102015686Y-164984314D03*
X118300000Y-213100000D03*
X110900000Y-134600000D03*
X101851000Y-149400000D03*
X117700000Y-131649998D03*
X118500000Y-174300000D03*
%TO.N,/Left Gate/L_VACTROL_OUTPUT*%
X103755025Y-165644975D03*
%TO.N,L_OUTPUT*%
X111300000Y-164900000D03*
%TO.N,/Right Gate/R_OUT_BUFFERED*%
X111955025Y-145444975D03*
X118100000Y-147800000D03*
X104800000Y-147200000D03*
%TO.N,Net-(U3A--)*%
X112400000Y-189500000D03*
X109365000Y-204300000D03*
%TO.N,Net-(J1-PadTN)*%
X108200000Y-175500000D03*
X107300000Y-136800000D03*
%TO.N,/Left Gate/L_IN_UNBUFFERED*%
X103200000Y-184900000D03*
%TO.N,L_CV_INPUT*%
X110500000Y-179000000D03*
X110350469Y-185702844D03*
%TO.N,Net-(U1A--)*%
X111200000Y-186000000D03*
X111200000Y-183500000D03*
%TO.N,/Left Gate/L_CV_BUFFERED*%
X116700000Y-157300000D03*
X112700000Y-180200000D03*
X112350000Y-161650000D03*
%TO.N,Net-(U2B--)*%
X104446473Y-167415102D03*
X109300000Y-162700002D03*
X109000000Y-160599998D03*
X107472000Y-163400000D03*
%TO.N,/Left Gate/L_BUFFERED*%
X109200000Y-166600000D03*
X110500000Y-171100000D03*
%TO.N,Net-(U3B--)*%
X110700000Y-209000000D03*
X112000000Y-200800000D03*
%TO.N,/Right Gate/R_CV_BUFFERED*%
X108700000Y-190400000D03*
D28*
X110297403Y-160692883D03*
D27*
X110300000Y-191200000D03*
X108099000Y-204305000D03*
X109447211Y-168413062D03*
X110301000Y-167000000D03*
%TO.N,/Right Gate/R_BUFFERED*%
X106600000Y-198800000D03*
X109600000Y-169300000D03*
X114490000Y-164400000D03*
X106500000Y-200500000D03*
X109300000Y-209100000D03*
%TO.N,/Left Gate/L_CV_ATTENUATED*%
X114550000Y-146500000D03*
%TO.N,Net-(R9-Pad1)*%
X103810076Y-166778704D03*
X106200000Y-164300000D03*
%TD*%
D29*
%TO.N,Net-(D1-A)*%
X113312500Y-119900000D02*
X115800000Y-119900000D01*
X115800000Y-119900000D02*
X116750000Y-120850000D01*
X116750000Y-120850000D02*
X116750000Y-122250000D01*
%TO.N,Net-(D2-K)*%
X103250000Y-122050000D02*
X103250000Y-120650000D01*
X103250000Y-120650000D02*
X104000000Y-119900000D01*
X104000000Y-119900000D02*
X107987500Y-119900000D01*
%TO.N,/-12V_In*%
X104920000Y-115500000D02*
X104920000Y-116920000D01*
X109000000Y-117800000D02*
X109812500Y-118612500D01*
X109812500Y-118612500D02*
X109812500Y-119837500D01*
X104920000Y-116920000D02*
X105800000Y-117800000D01*
X105800000Y-117800000D02*
X109000000Y-117800000D01*
X109812500Y-119837500D02*
X109750000Y-119900000D01*
D30*
%TO.N,-12V*%
X103200000Y-129400000D02*
X103200000Y-129300000D01*
D29*
X103200000Y-129300000D02*
X103250000Y-129250000D01*
X103250000Y-129250000D02*
X103250000Y-127250000D01*
X102300000Y-131050000D02*
X102300000Y-130300000D01*
X102300000Y-130300000D02*
X103200000Y-129400000D01*
D30*
%TO.N,GND*%
X107775000Y-184905000D02*
X106405000Y-184905000D01*
X111700000Y-122200000D02*
X113150000Y-122200000D01*
X108500000Y-202000000D02*
X110635000Y-204135000D01*
X113700000Y-147500000D02*
X112700000Y-146500000D01*
X109000000Y-133000000D02*
X109000000Y-132550000D01*
X112005000Y-149795000D02*
X112000000Y-149800000D01*
X112700000Y-146500000D02*
X111200000Y-146500000D01*
X113700000Y-147800000D02*
X113700000Y-147500000D01*
X114300000Y-184100000D02*
X114300000Y-183894414D01*
X102300000Y-132950000D02*
X102300000Y-133800000D01*
X110635000Y-204135000D02*
X110635000Y-205525000D01*
X111905000Y-210475000D02*
X111905000Y-211795000D01*
D31*
X109400000Y-134420654D02*
X110779346Y-135800000D01*
D30*
X111200000Y-146500000D02*
X110000000Y-145300000D01*
X106200000Y-214500000D02*
X107800000Y-216100000D01*
X108700000Y-133300000D02*
X109000000Y-133000000D01*
X111905000Y-211795000D02*
X111900000Y-211800000D01*
X114040586Y-183635000D02*
X112725000Y-183635000D01*
X114300000Y-183894414D02*
X114040586Y-183635000D01*
X112005000Y-148375000D02*
X112005000Y-149795000D01*
D31*
X110779346Y-135800000D02*
X111900000Y-135800000D01*
D30*
X105200000Y-188700000D02*
X101700000Y-188700000D01*
X106405000Y-184905000D02*
X106400000Y-184900000D01*
X102025000Y-169750000D02*
X103500000Y-169750000D01*
D31*
X108700000Y-133300000D02*
X109400000Y-134000000D01*
D30*
X106200000Y-213500000D02*
X106200000Y-214500000D01*
D31*
X109400000Y-134000000D02*
X109400000Y-134420654D01*
D30*
X117700000Y-132550000D02*
X117700000Y-133400000D01*
X110900000Y-131900000D02*
X110900000Y-132550000D01*
%TO.N,-12V*%
X101350001Y-131000000D02*
X101400001Y-131050000D01*
X107000000Y-169800000D02*
X106975000Y-169775000D01*
X105700000Y-169800000D02*
X106925000Y-169800000D01*
X116200000Y-195600000D02*
X107600000Y-195600000D01*
X117500000Y-194300000D02*
X116200000Y-195600000D01*
X112875000Y-143425000D02*
X113700000Y-142600000D01*
X117528000Y-194300000D02*
X117500000Y-194300000D01*
X105000000Y-169100000D02*
X105700000Y-169800000D01*
X112730000Y-184900000D02*
X112725000Y-184905000D01*
X101400001Y-131050000D02*
X102300000Y-131050000D01*
X116300000Y-184900000D02*
X112730000Y-184900000D01*
X110700000Y-203032214D02*
X111905000Y-204237214D01*
X111905000Y-204237214D02*
X111905000Y-205525000D01*
X112005000Y-143425000D02*
X112875000Y-143425000D01*
X110700000Y-203000000D02*
X110700000Y-203032214D01*
X107000000Y-170400000D02*
X107000000Y-169800000D01*
X106925000Y-169800000D02*
X106975000Y-169750000D01*
X107600000Y-195600000D02*
X110700000Y-198700000D01*
X110700000Y-198700000D02*
X110700000Y-198800000D01*
%TO.N,+12V*%
X118500000Y-174300000D02*
X117700000Y-174300000D01*
X110900000Y-134600000D02*
X112200000Y-133300000D01*
X108100000Y-212500000D02*
X108100000Y-210480000D01*
X112200000Y-133300000D02*
X112200000Y-129350000D01*
X111567214Y-176800000D02*
X107775000Y-180592214D01*
X110500000Y-214900000D02*
X108100000Y-212500000D01*
X107775000Y-180592214D02*
X107775000Y-181095000D01*
X107170000Y-149400000D02*
X101851000Y-149400000D01*
X118300000Y-213100000D02*
X116500000Y-214900000D01*
D29*
X113150000Y-126800000D02*
X116100000Y-126800000D01*
X112450000Y-129000000D02*
X112450000Y-127500000D01*
D30*
X102025000Y-164993628D02*
X102015686Y-164984314D01*
X117700000Y-174300000D02*
X116900000Y-175100000D01*
X108100000Y-210480000D02*
X108095000Y-210475000D01*
X108195000Y-148375000D02*
X107170000Y-149400000D01*
X116100000Y-126800000D02*
X116750000Y-127450000D01*
X117700000Y-130650000D02*
X117700000Y-131649998D01*
X112200000Y-129350000D02*
X112550000Y-129000000D01*
X102025000Y-165940000D02*
X102025000Y-164993628D01*
X116900000Y-176300000D02*
X116400000Y-176800000D01*
D29*
X116750000Y-129700000D02*
X117700000Y-130650000D01*
D30*
X112450000Y-127500000D02*
X113150000Y-126800000D01*
X116500000Y-214900000D02*
X110500000Y-214900000D01*
D29*
X116750000Y-127450000D02*
X116750000Y-129700000D01*
D30*
X116400000Y-176800000D02*
X111567214Y-176800000D01*
X116900000Y-175100000D02*
X116900000Y-176300000D01*
D32*
%TO.N,/Left Gate/L_VACTROL_OUTPUT*%
X103822735Y-165800000D02*
X106502735Y-168480000D01*
X103822735Y-165712685D02*
X103822735Y-165800000D01*
X106502735Y-168480000D02*
X106975000Y-168480000D01*
X103755025Y-165644975D02*
X103822735Y-165712685D01*
%TO.N,L_OUTPUT*%
X109250000Y-161700000D02*
X109300000Y-161650000D01*
X111300000Y-164900000D02*
X111300000Y-164690834D01*
X111851000Y-164139834D02*
X111851000Y-162501000D01*
X107050000Y-161700000D02*
X109250000Y-161700000D01*
X111300000Y-164690834D02*
X111851000Y-164139834D01*
X111851000Y-162501000D02*
X111000000Y-161650000D01*
X111000000Y-161650000D02*
X109300000Y-161650000D01*
X104000000Y-159450000D02*
X104800000Y-159450000D01*
X104800000Y-159450000D02*
X107050000Y-161700000D01*
%TO.N,/Right Gate/R_VACTROL_OUTPUT*%
X110735000Y-143425000D02*
X110735000Y-142450001D01*
X110735000Y-143425000D02*
X110735000Y-144399999D01*
X116600000Y-141900000D02*
X117000000Y-141500000D01*
X111285001Y-141900000D02*
X116600000Y-141900000D01*
X110735000Y-142450001D02*
X111285001Y-141900000D01*
%TO.N,/Right Gate/R_OUT_BUFFERED*%
X104550000Y-146400000D02*
X102300000Y-146400000D01*
X104750000Y-146200000D02*
X104550000Y-146400000D01*
X118100000Y-147800000D02*
X115700000Y-145400000D01*
X102300000Y-146400000D02*
X102000000Y-146700000D01*
X104800000Y-146250000D02*
X104750000Y-146200000D01*
X104650000Y-146200000D02*
X104450000Y-146400000D01*
X102000000Y-147500000D02*
X102000000Y-146700000D01*
X102900000Y-148400000D02*
X102000000Y-147500000D01*
X115700000Y-145400000D02*
X112000000Y-145400000D01*
X112000000Y-145400000D02*
X111955025Y-145444975D01*
X104750000Y-146200000D02*
X104650000Y-146200000D01*
X104550000Y-148400000D02*
X102900000Y-148400000D01*
X104800000Y-147200000D02*
X104800000Y-146250000D01*
D30*
%TO.N,Net-(D1-A)*%
X117300000Y-121500000D02*
X116750000Y-122050000D01*
X116137500Y-122662500D02*
X116750000Y-122050000D01*
%TO.N,Net-(D2-K)*%
X103862500Y-122662500D02*
X103250000Y-122050000D01*
D32*
%TO.N,Net-(U4B--)*%
X107851000Y-144751000D02*
X110735000Y-147635000D01*
X102000000Y-145000000D02*
X102200000Y-144800000D01*
X102200000Y-144800000D02*
X106050000Y-144800000D01*
X106300000Y-144550000D02*
X106500000Y-144750000D01*
X106500000Y-144750000D02*
X106500000Y-146050000D01*
X106500000Y-146050000D02*
X106450000Y-146100000D01*
X106400000Y-144550000D02*
X106601000Y-144751000D01*
X106450000Y-146100000D02*
X106450000Y-146200000D01*
X110735000Y-147635000D02*
X110735000Y-148375000D01*
X106300000Y-144550000D02*
X106400000Y-144550000D01*
X106601000Y-144751000D02*
X107851000Y-144751000D01*
X106050000Y-144800000D02*
X106300000Y-144550000D01*
%TO.N,Net-(U1B--)*%
X107775000Y-183635000D02*
X105035000Y-183635000D01*
X104900000Y-183600000D02*
X103200000Y-181900000D01*
D30*
X105000000Y-183600000D02*
X104900000Y-183600000D01*
X105035000Y-183635000D02*
X105000000Y-183600000D01*
D32*
%TO.N,Net-(U3A--)*%
X109365000Y-204300000D02*
X109365000Y-205525000D01*
X112400000Y-188650000D02*
X110300000Y-188650000D01*
X112400000Y-189500000D02*
X112400000Y-188650000D01*
D30*
%TO.N,+5V*%
X110650000Y-136800000D02*
X107700000Y-133850000D01*
D29*
X107500000Y-125150000D02*
X107500000Y-128950000D01*
D30*
X107700000Y-129250000D02*
X107450000Y-129000000D01*
X107700000Y-133850000D02*
X107700000Y-129250000D01*
D29*
X113150000Y-124500000D02*
X106850000Y-124500000D01*
D30*
X107500000Y-128950000D02*
X107450000Y-129000000D01*
X106750000Y-125550000D02*
X106750000Y-124500000D01*
X106850000Y-124500000D02*
X107500000Y-125150000D01*
%TO.N,Net-(J1-PadTN)*%
X108200000Y-175500000D02*
X105330000Y-178370000D01*
D32*
X105330000Y-178370000D02*
X105000000Y-178370000D01*
X105000000Y-178370000D02*
X105000000Y-178620000D01*
D30*
X107300000Y-136800000D02*
X108950000Y-136800000D01*
D32*
%TO.N,/Left Gate/L_IN_UNBUFFERED*%
X103200000Y-183600000D02*
X103200000Y-184900000D01*
%TO.N,/Right Gate/R_CV_IN_UNBUFFERED*%
X114970000Y-186950000D02*
X115000000Y-186920000D01*
X112400000Y-186950000D02*
X114970000Y-186950000D01*
%TO.N,L_CV_INPUT*%
X110500000Y-179000000D02*
X110880000Y-178620000D01*
X110880000Y-178620000D02*
X115000000Y-178620000D01*
X109400000Y-185800000D02*
X108550000Y-186650000D01*
X110253313Y-185800000D02*
X109400000Y-185800000D01*
X110350469Y-185702844D02*
X110253313Y-185800000D01*
X108550000Y-186650000D02*
X108550000Y-187000000D01*
X105080000Y-187000000D02*
X108550000Y-187000000D01*
X105000000Y-186920000D02*
X105080000Y-187000000D01*
%TO.N,/Right Gate/R_IN_UNBUFFERED*%
X112250000Y-197950000D02*
X111900000Y-197950000D01*
X115000000Y-201920000D02*
X115000000Y-200700000D01*
X115000000Y-200700000D02*
X112250000Y-197950000D01*
D29*
%TO.N,/+12V_In*%
X115080000Y-115520000D02*
X111487500Y-119112500D01*
D30*
X115080000Y-112960000D02*
X115080000Y-115500000D01*
D29*
X111487500Y-119112500D02*
X111487500Y-119900000D01*
D30*
X115080000Y-115500000D02*
X115080000Y-115520000D01*
D29*
%TO.N,/-12V_In*%
X104920000Y-112960000D02*
X104920000Y-115500000D01*
D32*
%TO.N,Net-(U1A--)*%
X111200000Y-183500000D02*
X111200000Y-182600000D01*
X115000000Y-182650000D02*
X114250000Y-182650000D01*
X110250000Y-187000000D02*
X110250000Y-186950000D01*
X111200000Y-182600000D02*
X111435000Y-182365000D01*
X111435000Y-182365000D02*
X112725000Y-182365000D01*
X110250000Y-186950000D02*
X111200000Y-186000000D01*
X112760000Y-182400000D02*
X112725000Y-182365000D01*
X114000000Y-182400000D02*
X112760000Y-182400000D01*
X114250000Y-182650000D02*
X114000000Y-182400000D01*
%TO.N,/Left Gate/L_CV_BUFFERED*%
X112730000Y-181100000D02*
X112725000Y-181095000D01*
X114850000Y-181100000D02*
X112730000Y-181100000D01*
X112725000Y-181095000D02*
X112725000Y-180225000D01*
X115000000Y-180950000D02*
X114850000Y-181100000D01*
X112350000Y-161650000D02*
X116700000Y-157300000D01*
X112725000Y-180225000D02*
X112700000Y-180200000D01*
%TO.N,Net-(U2B--)*%
X108999998Y-160600000D02*
X106850000Y-160600000D01*
X109000000Y-160599998D02*
X108999998Y-160600000D01*
X104384898Y-167415102D02*
X103320000Y-168480000D01*
X109250000Y-163400000D02*
X109300000Y-163350000D01*
X107472000Y-163400000D02*
X109250000Y-163400000D01*
X103320000Y-168480000D02*
X102025000Y-168480000D01*
X102100000Y-157700000D02*
X103950000Y-157700000D01*
X109300000Y-162700002D02*
X109300000Y-163350000D01*
X104446473Y-167415102D02*
X104384898Y-167415102D01*
X103950000Y-157700000D02*
X104000000Y-157750000D01*
X106850000Y-160600000D02*
X104000000Y-157750000D01*
%TO.N,/Left Gate/L_BUFFERED*%
X108011678Y-165289000D02*
X105938322Y-165289000D01*
X104811475Y-164161475D02*
X102990000Y-162340000D01*
D30*
X107775000Y-182365000D02*
X106765000Y-182365000D01*
D32*
X109200000Y-166600000D02*
X109200000Y-166477322D01*
X104811475Y-164690364D02*
X104811475Y-164161475D01*
X105938322Y-165289000D02*
X105927322Y-165300000D01*
X105927322Y-165300000D02*
X105421111Y-165300000D01*
X106300000Y-181900000D02*
X105000000Y-181900000D01*
X109200000Y-166477322D02*
X108011678Y-165289000D01*
X105421111Y-165300000D02*
X104811475Y-164690364D01*
X105000000Y-181900000D02*
X110500000Y-176400000D01*
X110500000Y-176400000D02*
X110500000Y-171100000D01*
X106765000Y-182365000D02*
X106300000Y-181900000D01*
%TO.N,Net-(U3B--)*%
X112000000Y-200800000D02*
X112000000Y-199750000D01*
X108250000Y-199700000D02*
X111850000Y-199700000D01*
X111850000Y-199700000D02*
X111900000Y-199650000D01*
X112000000Y-199750000D02*
X111900000Y-199650000D01*
X110700000Y-210410000D02*
X110635000Y-210475000D01*
X110700000Y-209000000D02*
X110700000Y-210410000D01*
%TO.N,/Right Gate/R_CV_BUFFERED*%
X109495574Y-168413062D02*
X110301000Y-167607636D01*
X108095000Y-204309000D02*
X108095000Y-205525000D01*
X108750000Y-190350000D02*
X110300000Y-190350000D01*
X110301000Y-167607636D02*
X110301000Y-167000000D01*
X108099000Y-204305000D02*
X108095000Y-204309000D01*
X110807117Y-160692883D02*
X112500000Y-159000000D01*
X110300000Y-190350000D02*
X110300000Y-191200000D01*
X108700000Y-190400000D02*
X108750000Y-190350000D01*
X110297403Y-160692883D02*
X110807117Y-160692883D01*
%TO.N,/Right Gate/R_BUFFERED*%
X106550000Y-198850000D02*
X106600000Y-198800000D01*
X114490000Y-164400000D02*
X112590000Y-166300000D01*
X109300000Y-209100000D02*
X109300000Y-210410000D01*
X112590000Y-166300000D02*
X112590000Y-166310000D01*
X112590000Y-166310000D02*
X109600000Y-169300000D01*
X106550000Y-199700000D02*
X106550000Y-198850000D01*
X106500000Y-199750000D02*
X106550000Y-199700000D01*
X109300000Y-210410000D02*
X109365000Y-210475000D01*
X106500000Y-200500000D02*
X106500000Y-199750000D01*
%TO.N,Net-(U2A--)*%
X103400000Y-164300000D02*
X102200000Y-164300000D01*
X100951000Y-160549000D02*
X102100000Y-159400000D01*
X100951000Y-163051000D02*
X100951000Y-160549000D01*
X105040000Y-165940000D02*
X103400000Y-164300000D01*
X106975000Y-165940000D02*
X105040000Y-165940000D01*
X106975000Y-167210000D02*
X106975000Y-165940000D01*
X102200000Y-164300000D02*
X100951000Y-163051000D01*
%TO.N,/Left Gate/L_CV_ATTENUATED*%
X117100000Y-167694975D02*
X114550000Y-170244975D01*
X118156000Y-166644000D02*
X117105025Y-167694975D01*
X114600000Y-146500000D02*
X118156000Y-150056000D01*
X108350000Y-172597078D02*
X106951078Y-173996000D01*
X118156000Y-150056000D02*
X118156000Y-166644000D01*
X103846000Y-173996000D02*
X102350000Y-172500000D01*
X114550000Y-170244975D02*
X110155025Y-170244975D01*
X114550000Y-146500000D02*
X114600000Y-146500000D01*
X108350000Y-172050000D02*
X108350000Y-172597078D01*
X106951078Y-173996000D02*
X103846000Y-173996000D01*
X110155025Y-170244975D02*
X108350000Y-172050000D01*
X117105025Y-167694975D02*
X117100000Y-167694975D01*
%TO.N,Net-(R9-Pad1)*%
X103810076Y-166778704D02*
X103810076Y-166789924D01*
X103400000Y-167200000D02*
X102035000Y-167200000D01*
X103810076Y-166789924D02*
X103400000Y-167200000D01*
X102035000Y-167200000D02*
X102025000Y-167210000D01*
X110050000Y-164300000D02*
X111000000Y-163350000D01*
X106200000Y-164300000D02*
X110050000Y-164300000D01*
%TO.N,Net-(U4A--)*%
X106300000Y-142850000D02*
X106400000Y-142950000D01*
X106400000Y-142950000D02*
X107720000Y-142950000D01*
X109465000Y-143425000D02*
X108195000Y-143425000D01*
X107720000Y-142950000D02*
X108195000Y-143425000D01*
%TO.N,Net-(R18-Pad1)*%
X109465000Y-147400001D02*
X109465000Y-148375000D01*
X107950000Y-146700000D02*
X108764999Y-146700000D01*
X106250000Y-148400000D02*
X107950000Y-146700000D01*
X108764999Y-146700000D02*
X109465000Y-147400001D01*
D30*
%TO.N,Net-(C3-Pad2)*%
X110750000Y-130500000D02*
X110900000Y-130650000D01*
D29*
X110750000Y-129000000D02*
X110750000Y-130500000D01*
D30*
%TO.N,Net-(C6-Pad2)*%
X109150000Y-130500000D02*
X109000000Y-130650000D01*
D29*
X109150000Y-129000000D02*
X109150000Y-130500000D01*
D30*
%TO.N,-12V*%
X105100000Y-127500000D02*
X103500000Y-127500000D01*
X103500000Y-127500000D02*
X103250000Y-127250000D01*
%TD*%
%TA.AperFunction,Conductor*%
%TO.N,GND*%
G36*
X109768834Y-171653625D02*
G01*
X109824767Y-171695497D01*
X109849184Y-171760961D01*
X109849500Y-171769807D01*
X109849500Y-176079191D01*
X109829815Y-176146230D01*
X109813181Y-176166872D01*
X105116871Y-180863181D01*
X105055548Y-180896666D01*
X105029190Y-180899500D01*
X104452129Y-180899500D01*
X104452123Y-180899501D01*
X104392516Y-180905908D01*
X104257671Y-180956202D01*
X104257669Y-180956203D01*
X104174311Y-181018606D01*
X104108847Y-181043023D01*
X104040574Y-181028172D01*
X104025689Y-181018606D01*
X103942330Y-180956203D01*
X103942328Y-180956202D01*
X103807482Y-180905908D01*
X103807483Y-180905908D01*
X103747883Y-180899501D01*
X103747881Y-180899500D01*
X103747873Y-180899500D01*
X103747864Y-180899500D01*
X102652129Y-180899500D01*
X102652123Y-180899501D01*
X102592516Y-180905908D01*
X102457671Y-180956202D01*
X102457664Y-180956206D01*
X102342455Y-181042452D01*
X102342452Y-181042455D01*
X102256206Y-181157664D01*
X102256202Y-181157671D01*
X102205908Y-181292517D01*
X102199501Y-181352116D01*
X102199500Y-181352135D01*
X102199500Y-182447870D01*
X102199501Y-182447876D01*
X102205908Y-182507483D01*
X102256202Y-182642328D01*
X102256203Y-182642330D01*
X102281176Y-182675690D01*
X102305592Y-182741155D01*
X102290740Y-182809428D01*
X102281176Y-182824310D01*
X102256203Y-182857669D01*
X102256202Y-182857671D01*
X102205908Y-182992517D01*
X102199501Y-183052116D01*
X102199500Y-183052135D01*
X102199500Y-184147870D01*
X102199501Y-184147876D01*
X102205908Y-184207483D01*
X102256202Y-184342328D01*
X102256206Y-184342335D01*
X102342452Y-184457544D01*
X102342453Y-184457544D01*
X102342454Y-184457546D01*
X102356072Y-184467740D01*
X102357124Y-184468528D01*
X102398995Y-184524463D01*
X102403978Y-184594155D01*
X102397374Y-184615245D01*
X102382184Y-184651917D01*
X102382182Y-184651925D01*
X102349500Y-184816228D01*
X102349500Y-184983771D01*
X102382182Y-185148074D01*
X102382184Y-185148082D01*
X102446295Y-185302860D01*
X102539373Y-185442162D01*
X102657837Y-185560626D01*
X102675885Y-185572685D01*
X102797137Y-185653703D01*
X102797138Y-185653703D01*
X102797139Y-185653704D01*
X102812735Y-185660164D01*
X102951918Y-185717816D01*
X103116228Y-185750499D01*
X103116232Y-185750500D01*
X103116233Y-185750500D01*
X103283768Y-185750500D01*
X103283769Y-185750499D01*
X103448082Y-185717816D01*
X103492551Y-185699395D01*
X103562020Y-185691926D01*
X103624500Y-185723200D01*
X103660153Y-185783289D01*
X103657660Y-185853114D01*
X103650490Y-185870251D01*
X103549192Y-186069059D01*
X103473048Y-186303406D01*
X103473048Y-186303409D01*
X103434500Y-186546792D01*
X103434500Y-186793207D01*
X103473048Y-187036590D01*
X103473048Y-187036593D01*
X103549192Y-187270940D01*
X103549194Y-187270943D01*
X103661064Y-187490501D01*
X103805903Y-187689855D01*
X103980145Y-187864097D01*
X104179499Y-188008936D01*
X104362397Y-188102127D01*
X104399059Y-188120807D01*
X104633407Y-188196951D01*
X104633408Y-188196951D01*
X104633411Y-188196952D01*
X104876792Y-188235500D01*
X104876793Y-188235500D01*
X105123207Y-188235500D01*
X105123208Y-188235500D01*
X105366589Y-188196952D01*
X105366592Y-188196951D01*
X105366593Y-188196951D01*
X105600940Y-188120807D01*
X105600940Y-188120806D01*
X105600943Y-188120806D01*
X105820501Y-188008936D01*
X106019855Y-187864097D01*
X106194097Y-187689855D01*
X106194097Y-187689854D01*
X106197133Y-187686819D01*
X106258456Y-187653334D01*
X106284814Y-187650500D01*
X107485859Y-187650500D01*
X107552898Y-187670185D01*
X107598653Y-187722989D01*
X107602030Y-187731140D01*
X107606204Y-187742331D01*
X107606205Y-187742332D01*
X107606206Y-187742335D01*
X107692452Y-187857544D01*
X107692455Y-187857547D01*
X107807664Y-187943793D01*
X107807671Y-187943797D01*
X107942517Y-187994091D01*
X107942516Y-187994091D01*
X107949444Y-187994835D01*
X108002127Y-188000500D01*
X109097872Y-188000499D01*
X109151407Y-187994744D01*
X109162247Y-187993579D01*
X109231006Y-188005986D01*
X109282143Y-188053597D01*
X109299500Y-188116869D01*
X109299500Y-189197870D01*
X109299501Y-189197876D01*
X109305908Y-189257483D01*
X109356202Y-189392328D01*
X109356203Y-189392330D01*
X109381176Y-189425690D01*
X109388418Y-189445109D01*
X109400031Y-189462277D01*
X109400381Y-189477184D01*
X109405592Y-189491155D01*
X109401186Y-189511406D01*
X109401674Y-189532128D01*
X109392630Y-189550738D01*
X109390740Y-189559428D01*
X109387771Y-189564568D01*
X109384699Y-189569604D01*
X109356204Y-189607669D01*
X109347894Y-189629947D01*
X109341722Y-189640068D01*
X109324286Y-189655908D01*
X109310171Y-189674766D01*
X109298907Y-189678967D01*
X109290009Y-189687052D01*
X109266777Y-189690951D01*
X109244707Y-189699184D01*
X109235859Y-189699500D01*
X109220102Y-189699500D01*
X109153063Y-189679815D01*
X109151211Y-189678602D01*
X109102868Y-189646300D01*
X109102859Y-189646295D01*
X108948082Y-189582184D01*
X108948074Y-189582182D01*
X108783771Y-189549500D01*
X108783767Y-189549500D01*
X108616233Y-189549500D01*
X108616228Y-189549500D01*
X108451925Y-189582182D01*
X108451917Y-189582184D01*
X108297139Y-189646295D01*
X108157837Y-189739373D01*
X108039373Y-189857837D01*
X107946295Y-189997139D01*
X107882184Y-190151917D01*
X107882182Y-190151925D01*
X107849500Y-190316228D01*
X107849500Y-190483771D01*
X107882182Y-190648074D01*
X107882184Y-190648082D01*
X107946295Y-190802860D01*
X108039373Y-190942162D01*
X108157837Y-191060626D01*
X108238452Y-191114491D01*
X108297137Y-191153703D01*
X108451918Y-191217816D01*
X108616228Y-191250499D01*
X108616232Y-191250500D01*
X108616233Y-191250500D01*
X108783768Y-191250500D01*
X108783769Y-191250499D01*
X108948082Y-191217816D01*
X109102863Y-191153703D01*
X109204637Y-191085699D01*
X109210069Y-191083998D01*
X109214098Y-191079970D01*
X109243045Y-191073672D01*
X109271312Y-191064822D01*
X109276804Y-191066328D01*
X109282371Y-191065118D01*
X109310126Y-191075469D01*
X109338692Y-191083306D01*
X109343895Y-191088064D01*
X109347836Y-191089534D01*
X109372793Y-191114491D01*
X109424767Y-191183919D01*
X109449184Y-191249383D01*
X109449500Y-191258230D01*
X109449500Y-191283771D01*
X109482182Y-191448074D01*
X109482184Y-191448082D01*
X109546295Y-191602860D01*
X109639373Y-191742162D01*
X109757837Y-191860626D01*
X109845488Y-191919192D01*
X109897137Y-191953703D01*
X110051918Y-192017816D01*
X110216228Y-192050499D01*
X110216232Y-192050500D01*
X110216233Y-192050500D01*
X110383768Y-192050500D01*
X110383769Y-192050499D01*
X110548082Y-192017816D01*
X110702863Y-191953703D01*
X110842162Y-191860626D01*
X110960626Y-191742162D01*
X111053703Y-191602863D01*
X111117816Y-191448082D01*
X111150500Y-191283767D01*
X111150500Y-191258230D01*
X111170185Y-191191191D01*
X111175233Y-191183919D01*
X111197853Y-191153703D01*
X111243796Y-191092331D01*
X111294091Y-190957483D01*
X111300500Y-190897873D01*
X111300499Y-189802128D01*
X111294091Y-189742517D01*
X111292919Y-189739374D01*
X111243797Y-189607670D01*
X111236786Y-189598305D01*
X111218823Y-189574310D01*
X111209775Y-189550052D01*
X111197164Y-189527441D01*
X111197763Y-189517850D01*
X111194406Y-189508849D01*
X111199908Y-189483551D01*
X111201525Y-189457708D01*
X111208229Y-189445297D01*
X111209257Y-189440575D01*
X111218162Y-189426581D01*
X111218472Y-189426158D01*
X111243796Y-189392331D01*
X111244280Y-189391032D01*
X111250071Y-189383151D01*
X111271489Y-189366816D01*
X111290533Y-189347759D01*
X111298856Y-189345945D01*
X111305628Y-189340781D01*
X111332478Y-189338618D01*
X111358801Y-189332883D01*
X111366782Y-189335856D01*
X111375272Y-189335173D01*
X111399027Y-189347870D01*
X111424274Y-189357276D01*
X111430876Y-189364893D01*
X111436892Y-189368108D01*
X111442715Y-189378550D01*
X111449444Y-189386312D01*
X111450889Y-189385231D01*
X111456203Y-189392330D01*
X111456204Y-189392331D01*
X111524491Y-189483551D01*
X111524767Y-189483919D01*
X111549184Y-189549383D01*
X111549500Y-189558230D01*
X111549500Y-189583771D01*
X111582182Y-189748074D01*
X111582184Y-189748082D01*
X111646295Y-189902860D01*
X111739373Y-190042162D01*
X111857837Y-190160626D01*
X111931611Y-190209920D01*
X111997137Y-190253703D01*
X112151918Y-190317816D01*
X112316228Y-190350499D01*
X112316232Y-190350500D01*
X112316233Y-190350500D01*
X112483768Y-190350500D01*
X112483769Y-190350499D01*
X112648082Y-190317816D01*
X112802863Y-190253703D01*
X112942162Y-190160626D01*
X113060626Y-190042162D01*
X113153703Y-189902863D01*
X113217816Y-189748082D01*
X113250500Y-189583767D01*
X113250500Y-189558230D01*
X113256738Y-189536984D01*
X113258318Y-189514896D01*
X113268931Y-189495458D01*
X113270185Y-189491191D01*
X113275233Y-189483919D01*
X113311734Y-189435160D01*
X113367667Y-189393290D01*
X113437358Y-189388306D01*
X113498681Y-189421791D01*
X113532166Y-189483114D01*
X113535000Y-189509472D01*
X113535000Y-190020000D01*
X114443294Y-190020000D01*
X114413442Y-190092069D01*
X114390000Y-190209920D01*
X114390000Y-190330080D01*
X114413442Y-190447931D01*
X114443294Y-190520000D01*
X113535000Y-190520000D01*
X113535000Y-191232844D01*
X113541401Y-191292372D01*
X113541403Y-191292379D01*
X113591645Y-191427086D01*
X113591649Y-191427093D01*
X113677809Y-191542187D01*
X113677812Y-191542190D01*
X113792906Y-191628350D01*
X113792913Y-191628354D01*
X113927620Y-191678596D01*
X113927627Y-191678598D01*
X113987155Y-191684999D01*
X113987172Y-191685000D01*
X114342191Y-191685000D01*
X114409230Y-191704685D01*
X114454985Y-191757489D01*
X114464929Y-191826647D01*
X114435904Y-191890203D01*
X114398486Y-191919485D01*
X114179498Y-192031064D01*
X113980142Y-192175905D01*
X113805905Y-192350142D01*
X113661064Y-192549498D01*
X113549192Y-192769059D01*
X113473048Y-193003406D01*
X113473048Y-193003409D01*
X113434500Y-193246792D01*
X113434500Y-193493207D01*
X113473048Y-193736590D01*
X113473048Y-193736593D01*
X113549192Y-193970940D01*
X113619338Y-194108609D01*
X113661064Y-194190501D01*
X113805903Y-194389855D01*
X113980145Y-194564097D01*
X114064222Y-194625183D01*
X114106887Y-194680512D01*
X114112866Y-194750125D01*
X114080260Y-194811920D01*
X114019421Y-194846278D01*
X113991336Y-194849500D01*
X108035261Y-194849500D01*
X107987808Y-194840061D01*
X107848082Y-194782184D01*
X107848074Y-194782182D01*
X107683771Y-194749500D01*
X107683767Y-194749500D01*
X107516233Y-194749500D01*
X107516228Y-194749500D01*
X107351925Y-194782182D01*
X107351917Y-194782184D01*
X107197139Y-194846295D01*
X107057837Y-194939373D01*
X106939373Y-195057837D01*
X106846295Y-195197139D01*
X106782184Y-195351917D01*
X106782182Y-195351925D01*
X106749500Y-195516228D01*
X106749500Y-195683771D01*
X106782182Y-195848074D01*
X106782184Y-195848082D01*
X106846295Y-196002860D01*
X106939373Y-196142162D01*
X107057837Y-196260626D01*
X107149175Y-196321656D01*
X107197137Y-196353703D01*
X107197138Y-196353703D01*
X107197139Y-196353704D01*
X107197141Y-196353705D01*
X107251353Y-196376160D01*
X107336864Y-196411580D01*
X107377091Y-196438459D01*
X109776451Y-198837819D01*
X109809936Y-198899142D01*
X109804952Y-198968834D01*
X109763080Y-199024767D01*
X109697616Y-199049184D01*
X109688770Y-199049500D01*
X109314141Y-199049500D01*
X109247102Y-199029815D01*
X109201347Y-198977011D01*
X109197969Y-198968859D01*
X109193796Y-198957669D01*
X109193793Y-198957665D01*
X109193793Y-198957664D01*
X109107547Y-198842455D01*
X109107544Y-198842452D01*
X108992335Y-198756206D01*
X108992328Y-198756202D01*
X108857482Y-198705908D01*
X108857483Y-198705908D01*
X108797883Y-198699501D01*
X108797881Y-198699500D01*
X108797873Y-198699500D01*
X108797864Y-198699500D01*
X107702129Y-198699500D01*
X107702123Y-198699501D01*
X107642515Y-198705909D01*
X107598372Y-198722373D01*
X107528680Y-198727357D01*
X107467358Y-198693871D01*
X107433873Y-198632548D01*
X107433447Y-198630503D01*
X107417816Y-198551918D01*
X107353703Y-198397137D01*
X107322537Y-198350494D01*
X107260626Y-198257837D01*
X107142162Y-198139373D01*
X107002860Y-198046295D01*
X106848082Y-197982184D01*
X106848074Y-197982182D01*
X106683771Y-197949500D01*
X106683767Y-197949500D01*
X106516233Y-197949500D01*
X106516228Y-197949500D01*
X106351925Y-197982182D01*
X106351917Y-197982184D01*
X106197139Y-198046295D01*
X106057837Y-198139373D01*
X105939373Y-198257837D01*
X105846295Y-198397139D01*
X105782184Y-198551917D01*
X105782182Y-198551925D01*
X105749500Y-198716228D01*
X105749500Y-198737679D01*
X105729815Y-198804718D01*
X105699813Y-198836944D01*
X105692459Y-198842449D01*
X105692451Y-198842457D01*
X105606206Y-198957664D01*
X105606202Y-198957671D01*
X105555908Y-199092517D01*
X105549501Y-199152116D01*
X105549500Y-199152135D01*
X105549500Y-200031807D01*
X105529815Y-200098846D01*
X105477011Y-200144601D01*
X105407853Y-200154545D01*
X105387185Y-200149739D01*
X105366590Y-200143048D01*
X105222750Y-200120266D01*
X105123208Y-200104500D01*
X104876792Y-200104500D01*
X104795665Y-200117349D01*
X104633409Y-200143048D01*
X104633406Y-200143048D01*
X104399059Y-200219192D01*
X104179498Y-200331064D01*
X103980142Y-200475905D01*
X103805905Y-200650142D01*
X103661064Y-200849498D01*
X103549192Y-201069059D01*
X103473048Y-201303406D01*
X103473048Y-201303409D01*
X103434500Y-201546792D01*
X103434500Y-201793207D01*
X103473048Y-202036590D01*
X103473048Y-202036593D01*
X103549192Y-202270940D01*
X103584061Y-202339374D01*
X103661064Y-202490501D01*
X103805903Y-202689855D01*
X103980145Y-202864097D01*
X104179499Y-203008936D01*
X104399057Y-203120806D01*
X104399059Y-203120807D01*
X104633407Y-203196951D01*
X104633408Y-203196951D01*
X104633411Y-203196952D01*
X104876792Y-203235500D01*
X104876793Y-203235500D01*
X105123207Y-203235500D01*
X105123208Y-203235500D01*
X105366589Y-203196952D01*
X105366592Y-203196951D01*
X105366593Y-203196951D01*
X105600940Y-203120807D01*
X105600940Y-203120806D01*
X105600943Y-203120806D01*
X105820501Y-203008936D01*
X106019855Y-202864097D01*
X106194097Y-202689855D01*
X106338936Y-202490501D01*
X106450806Y-202270943D01*
X106458815Y-202246295D01*
X106526951Y-202036593D01*
X106526951Y-202036592D01*
X106526952Y-202036589D01*
X106565500Y-201793208D01*
X106565500Y-201546792D01*
X106554568Y-201477772D01*
X106563522Y-201408481D01*
X106608518Y-201355029D01*
X106652850Y-201336759D01*
X106687807Y-201329805D01*
X106748082Y-201317816D01*
X106902863Y-201253703D01*
X107042162Y-201160626D01*
X107160626Y-201042162D01*
X107253703Y-200902863D01*
X107317816Y-200748082D01*
X107322204Y-200726023D01*
X107354588Y-200664112D01*
X107415304Y-200629538D01*
X107485073Y-200633277D01*
X107503252Y-200641384D01*
X107507670Y-200643797D01*
X107642517Y-200694091D01*
X107642516Y-200694091D01*
X107649444Y-200694835D01*
X107702127Y-200700500D01*
X108797872Y-200700499D01*
X108857483Y-200694091D01*
X108992331Y-200643796D01*
X109107546Y-200557546D01*
X109193796Y-200442331D01*
X109197960Y-200431165D01*
X109239829Y-200375234D01*
X109305293Y-200350816D01*
X109314141Y-200350500D01*
X110862820Y-200350500D01*
X110929859Y-200370185D01*
X110962085Y-200400187D01*
X111042454Y-200507546D01*
X111109206Y-200557517D01*
X111151077Y-200613450D01*
X111156513Y-200680971D01*
X111149500Y-200716231D01*
X111149500Y-200883771D01*
X111182182Y-201048074D01*
X111182184Y-201048082D01*
X111246295Y-201202860D01*
X111339373Y-201342162D01*
X111457837Y-201460626D01*
X111550494Y-201522537D01*
X111597137Y-201553703D01*
X111751918Y-201617816D01*
X111916228Y-201650499D01*
X111916232Y-201650500D01*
X111916233Y-201650500D01*
X112083768Y-201650500D01*
X112083769Y-201650499D01*
X112248082Y-201617816D01*
X112402863Y-201553703D01*
X112542162Y-201460626D01*
X112660626Y-201342162D01*
X112753703Y-201202863D01*
X112817816Y-201048082D01*
X112850500Y-200883767D01*
X112850500Y-200716233D01*
X112817816Y-200551918D01*
X112811536Y-200536756D01*
X112804067Y-200467287D01*
X112826830Y-200414994D01*
X112843796Y-200392331D01*
X112894091Y-200257483D01*
X112900500Y-200197873D01*
X112900499Y-199819805D01*
X112920183Y-199752768D01*
X112972987Y-199707013D01*
X113042146Y-199697069D01*
X113105701Y-199726094D01*
X113112180Y-199732126D01*
X113830370Y-200450316D01*
X113863855Y-200511639D01*
X113858871Y-200581331D01*
X113830370Y-200625678D01*
X113805905Y-200650142D01*
X113661064Y-200849498D01*
X113549192Y-201069059D01*
X113473048Y-201303406D01*
X113473048Y-201303409D01*
X113434500Y-201546792D01*
X113434500Y-201793207D01*
X113473048Y-202036590D01*
X113473048Y-202036593D01*
X113549192Y-202270940D01*
X113584061Y-202339374D01*
X113661064Y-202490501D01*
X113805903Y-202689855D01*
X113980145Y-202864097D01*
X114179499Y-203008936D01*
X114399057Y-203120806D01*
X114399059Y-203120807D01*
X114633407Y-203196951D01*
X114633408Y-203196951D01*
X114633411Y-203196952D01*
X114876792Y-203235500D01*
X114876793Y-203235500D01*
X115123207Y-203235500D01*
X115123208Y-203235500D01*
X115366589Y-203196952D01*
X115366592Y-203196951D01*
X115366593Y-203196951D01*
X115600940Y-203120807D01*
X115600940Y-203120806D01*
X115600943Y-203120806D01*
X115820501Y-203008936D01*
X116019855Y-202864097D01*
X116194097Y-202689855D01*
X116338936Y-202490501D01*
X116450806Y-202270943D01*
X116458815Y-202246295D01*
X116526951Y-202036593D01*
X116526951Y-202036592D01*
X116526952Y-202036589D01*
X116565500Y-201793208D01*
X116565500Y-201546792D01*
X116526952Y-201303411D01*
X116526951Y-201303407D01*
X116526951Y-201303406D01*
X116450807Y-201069059D01*
X116366126Y-200902863D01*
X116338936Y-200849499D01*
X116194097Y-200650145D01*
X116019855Y-200475903D01*
X115820501Y-200331064D01*
X115676090Y-200257483D01*
X115600940Y-200219192D01*
X115389575Y-200150516D01*
X115340212Y-200120266D01*
X112936818Y-197716872D01*
X112903333Y-197655549D01*
X112900499Y-197629191D01*
X112900499Y-197402129D01*
X112900498Y-197402123D01*
X112900497Y-197402116D01*
X112894091Y-197342517D01*
X112843796Y-197207669D01*
X112843795Y-197207668D01*
X112843793Y-197207664D01*
X112757547Y-197092455D01*
X112757544Y-197092452D01*
X112642335Y-197006206D01*
X112642328Y-197006202D01*
X112507482Y-196955908D01*
X112507483Y-196955908D01*
X112447883Y-196949501D01*
X112447881Y-196949500D01*
X112447873Y-196949500D01*
X112447864Y-196949500D01*
X111352129Y-196949500D01*
X111352123Y-196949501D01*
X111292516Y-196955908D01*
X111157671Y-197006202D01*
X111157664Y-197006206D01*
X111042455Y-197092452D01*
X111042452Y-197092455D01*
X110956206Y-197207664D01*
X110956202Y-197207671D01*
X110905908Y-197342517D01*
X110899501Y-197402116D01*
X110899501Y-197402123D01*
X110899500Y-197402135D01*
X110899500Y-197538770D01*
X110879815Y-197605809D01*
X110827011Y-197651564D01*
X110757853Y-197661508D01*
X110694297Y-197632483D01*
X110687819Y-197626451D01*
X109623549Y-196562181D01*
X109590064Y-196500858D01*
X109595048Y-196431166D01*
X109636920Y-196375233D01*
X109702384Y-196350816D01*
X109711230Y-196350500D01*
X116273920Y-196350500D01*
X116371462Y-196331096D01*
X116418913Y-196321658D01*
X116555495Y-196265084D01*
X116614735Y-196225501D01*
X116678416Y-196182952D01*
X117708876Y-195152489D01*
X117770197Y-195119006D01*
X117772318Y-195118564D01*
X117776082Y-195117816D01*
X117930863Y-195053703D01*
X118070162Y-194960626D01*
X118188626Y-194842162D01*
X118281703Y-194702863D01*
X118345816Y-194548082D01*
X118378500Y-194383767D01*
X118378500Y-194216233D01*
X118345816Y-194051918D01*
X118296227Y-193932201D01*
X118281704Y-193897139D01*
X118188626Y-193757837D01*
X118070162Y-193639373D01*
X117930860Y-193546295D01*
X117776082Y-193482184D01*
X117776074Y-193482182D01*
X117611771Y-193449500D01*
X117611767Y-193449500D01*
X117444233Y-193449500D01*
X117444228Y-193449500D01*
X117279925Y-193482182D01*
X117279917Y-193482184D01*
X117125139Y-193546295D01*
X116985837Y-193639373D01*
X116867373Y-193757837D01*
X116774295Y-193897139D01*
X116774293Y-193897143D01*
X116736216Y-193989067D01*
X116731584Y-193995997D01*
X116730488Y-194001040D01*
X116709337Y-194029294D01*
X116663507Y-194075124D01*
X116602184Y-194108609D01*
X116532492Y-194103625D01*
X116476559Y-194061753D01*
X116452142Y-193996289D01*
X116457895Y-193949125D01*
X116526951Y-193736593D01*
X116526951Y-193736592D01*
X116526952Y-193736589D01*
X116565500Y-193493208D01*
X116565500Y-193246792D01*
X116526952Y-193003411D01*
X116526951Y-193003407D01*
X116526951Y-193003406D01*
X116450807Y-192769059D01*
X116338935Y-192549498D01*
X116194097Y-192350145D01*
X116019855Y-192175903D01*
X115820501Y-192031064D01*
X115601513Y-191919484D01*
X115550718Y-191871511D01*
X115533923Y-191803690D01*
X115556460Y-191737555D01*
X115611175Y-191694103D01*
X115657809Y-191685000D01*
X116012828Y-191685000D01*
X116012844Y-191684999D01*
X116072372Y-191678598D01*
X116072379Y-191678596D01*
X116207086Y-191628354D01*
X116207093Y-191628350D01*
X116322187Y-191542190D01*
X116322190Y-191542187D01*
X116408350Y-191427093D01*
X116408354Y-191427086D01*
X116458596Y-191292379D01*
X116458598Y-191292372D01*
X116464999Y-191232844D01*
X116465000Y-191232827D01*
X116465000Y-190520000D01*
X115556706Y-190520000D01*
X115586558Y-190447931D01*
X115610000Y-190330080D01*
X115610000Y-190209920D01*
X115586558Y-190092069D01*
X115556706Y-190020000D01*
X116465000Y-190020000D01*
X116465000Y-189307172D01*
X116464999Y-189307155D01*
X116458598Y-189247627D01*
X116458596Y-189247620D01*
X116408354Y-189112913D01*
X116408350Y-189112906D01*
X116322190Y-188997812D01*
X116322187Y-188997809D01*
X116207093Y-188911649D01*
X116207086Y-188911645D01*
X116072379Y-188861403D01*
X116072372Y-188861401D01*
X116012844Y-188855000D01*
X115250000Y-188855000D01*
X115250000Y-189713293D01*
X115177931Y-189683442D01*
X115060080Y-189660000D01*
X114939920Y-189660000D01*
X114822069Y-189683442D01*
X114750000Y-189713293D01*
X114750000Y-188855000D01*
X113987155Y-188855000D01*
X113927627Y-188861401D01*
X113927620Y-188861403D01*
X113792913Y-188911645D01*
X113792906Y-188911649D01*
X113677812Y-188997809D01*
X113677811Y-188997810D01*
X113623764Y-189070006D01*
X113567830Y-189111876D01*
X113498138Y-189116859D01*
X113436816Y-189083372D01*
X113403332Y-189022048D01*
X113400499Y-188995700D01*
X113400499Y-188102128D01*
X113394091Y-188042517D01*
X113394091Y-188042516D01*
X113343797Y-187907670D01*
X113323891Y-187881080D01*
X113318823Y-187874310D01*
X113311579Y-187854889D01*
X113299967Y-187837721D01*
X113299616Y-187822818D01*
X113294406Y-187808849D01*
X113298812Y-187788592D01*
X113298325Y-187767870D01*
X113307367Y-187749263D01*
X113309257Y-187740575D01*
X113312228Y-187735430D01*
X113315290Y-187730408D01*
X113343796Y-187692331D01*
X113352106Y-187670049D01*
X113358279Y-187659930D01*
X113375713Y-187644090D01*
X113389829Y-187625234D01*
X113401094Y-187621031D01*
X113409994Y-187612947D01*
X113433223Y-187609047D01*
X113455293Y-187600816D01*
X113464141Y-187600500D01*
X113677802Y-187600500D01*
X113744841Y-187620185D01*
X113778121Y-187651616D01*
X113805899Y-187689851D01*
X113805903Y-187689855D01*
X113980145Y-187864097D01*
X114179499Y-188008936D01*
X114362397Y-188102127D01*
X114399059Y-188120807D01*
X114633407Y-188196951D01*
X114633408Y-188196951D01*
X114633411Y-188196952D01*
X114876792Y-188235500D01*
X114876793Y-188235500D01*
X115123207Y-188235500D01*
X115123208Y-188235500D01*
X115366589Y-188196952D01*
X115366592Y-188196951D01*
X115366593Y-188196951D01*
X115600940Y-188120807D01*
X115600940Y-188120806D01*
X115600943Y-188120806D01*
X115820501Y-188008936D01*
X116019855Y-187864097D01*
X116194097Y-187689855D01*
X116338936Y-187490501D01*
X116450806Y-187270943D01*
X116526952Y-187036589D01*
X116565500Y-186793208D01*
X116565500Y-186546792D01*
X116526952Y-186303411D01*
X116526951Y-186303407D01*
X116526951Y-186303406D01*
X116450807Y-186069059D01*
X116418780Y-186006202D01*
X116371627Y-185913660D01*
X116358732Y-185844993D01*
X116385008Y-185780252D01*
X116442115Y-185739995D01*
X116457922Y-185735750D01*
X116482181Y-185730924D01*
X116548082Y-185717816D01*
X116702863Y-185653703D01*
X116842162Y-185560626D01*
X116960626Y-185442162D01*
X117053703Y-185302863D01*
X117117816Y-185148082D01*
X117150500Y-184983767D01*
X117150500Y-184816233D01*
X117117816Y-184651918D01*
X117053703Y-184497137D01*
X116989355Y-184400834D01*
X116960626Y-184357837D01*
X116842162Y-184239373D01*
X116702860Y-184146295D01*
X116548082Y-184082184D01*
X116548074Y-184082182D01*
X116383771Y-184049500D01*
X116383767Y-184049500D01*
X116216233Y-184049500D01*
X116216228Y-184049500D01*
X116051925Y-184082182D01*
X116051917Y-184082184D01*
X115912192Y-184140061D01*
X115864739Y-184149500D01*
X114286132Y-184149500D01*
X114219093Y-184129815D01*
X114173338Y-184077011D01*
X114163394Y-184007853D01*
X114167055Y-183990906D01*
X114197100Y-183887488D01*
X114197295Y-183885001D01*
X114197295Y-183885000D01*
X112849000Y-183885000D01*
X112781961Y-183865315D01*
X112736206Y-183812511D01*
X112725000Y-183761000D01*
X112725000Y-183509000D01*
X112744685Y-183441961D01*
X112797489Y-183396206D01*
X112849000Y-183385000D01*
X113988647Y-183385000D01*
X114055686Y-183404685D01*
X114087911Y-183434686D01*
X114142454Y-183507546D01*
X114188643Y-183542123D01*
X114257664Y-183593793D01*
X114257671Y-183593797D01*
X114392517Y-183644091D01*
X114392516Y-183644091D01*
X114399444Y-183644835D01*
X114452127Y-183650500D01*
X115547872Y-183650499D01*
X115607483Y-183644091D01*
X115742331Y-183593796D01*
X115857546Y-183507546D01*
X115943796Y-183392331D01*
X115994091Y-183257483D01*
X116000500Y-183197873D01*
X116000499Y-182102128D01*
X115994091Y-182042517D01*
X115994091Y-182042516D01*
X115943797Y-181907670D01*
X115936786Y-181898305D01*
X115918823Y-181874310D01*
X115894406Y-181808849D01*
X115909257Y-181740575D01*
X115918820Y-181725694D01*
X115943796Y-181692331D01*
X115994091Y-181557483D01*
X116000500Y-181497873D01*
X116000499Y-180402128D01*
X115995299Y-180353757D01*
X115994091Y-180342516D01*
X115943797Y-180207671D01*
X115943793Y-180207664D01*
X115857547Y-180092455D01*
X115857544Y-180092452D01*
X115742335Y-180006206D01*
X115742325Y-180006201D01*
X115714944Y-179995988D01*
X115659011Y-179954116D01*
X115634595Y-179888652D01*
X115649447Y-179820379D01*
X115698853Y-179770974D01*
X115701945Y-179769342D01*
X115820501Y-179708936D01*
X116019855Y-179564097D01*
X116194097Y-179389855D01*
X116338936Y-179190501D01*
X116450806Y-178970943D01*
X116526952Y-178736589D01*
X116565500Y-178493208D01*
X116565500Y-178246792D01*
X116526952Y-178003411D01*
X116526951Y-178003407D01*
X116526951Y-178003406D01*
X116450807Y-177769059D01*
X116426188Y-177720741D01*
X116413292Y-177652071D01*
X116439568Y-177587331D01*
X116496675Y-177547074D01*
X116512482Y-177542829D01*
X116519704Y-177541392D01*
X116618913Y-177521658D01*
X116755495Y-177465084D01*
X116804729Y-177432186D01*
X116878416Y-177382952D01*
X117482952Y-176778416D01*
X117532186Y-176704729D01*
X117565084Y-176655495D01*
X117621658Y-176518913D01*
X117650500Y-176373918D01*
X117650500Y-175462230D01*
X117670185Y-175395191D01*
X117686819Y-175374549D01*
X117974549Y-175086819D01*
X118001476Y-175072115D01*
X118027295Y-175055523D01*
X118033495Y-175054631D01*
X118035872Y-175053334D01*
X118062230Y-175050500D01*
X118064739Y-175050500D01*
X118112191Y-175059938D01*
X118251918Y-175117816D01*
X118416228Y-175150499D01*
X118416232Y-175150500D01*
X118416233Y-175150500D01*
X118583768Y-175150500D01*
X118583769Y-175150499D01*
X118748082Y-175117816D01*
X118828047Y-175084692D01*
X118897516Y-175077224D01*
X118959996Y-175108499D01*
X118995648Y-175168588D01*
X118999500Y-175199254D01*
X118999500Y-212312515D01*
X118979815Y-212379554D01*
X118927011Y-212425309D01*
X118857853Y-212435253D01*
X118806610Y-212415618D01*
X118749770Y-212377640D01*
X118702863Y-212346297D01*
X118702860Y-212346295D01*
X118702859Y-212346295D01*
X118548082Y-212282184D01*
X118548074Y-212282182D01*
X118383771Y-212249500D01*
X118383767Y-212249500D01*
X118216233Y-212249500D01*
X118216228Y-212249500D01*
X118051925Y-212282182D01*
X118051917Y-212282184D01*
X117897139Y-212346295D01*
X117757837Y-212439373D01*
X117639373Y-212557837D01*
X117546296Y-212697137D01*
X117488419Y-212836864D01*
X117461539Y-212877091D01*
X116225451Y-214113181D01*
X116164128Y-214146666D01*
X116137770Y-214149500D01*
X110862229Y-214149500D01*
X110795190Y-214129815D01*
X110774548Y-214113181D01*
X108886819Y-212225451D01*
X108872115Y-212198523D01*
X108855523Y-212172705D01*
X108854631Y-212166504D01*
X108853334Y-212164128D01*
X108850500Y-212137770D01*
X108850500Y-212036652D01*
X108870185Y-211969613D01*
X108922989Y-211923858D01*
X108992147Y-211913914D01*
X109009095Y-211917576D01*
X109112426Y-211947597D01*
X109112429Y-211947597D01*
X109112431Y-211947598D01*
X109149306Y-211950500D01*
X109149314Y-211950500D01*
X109580686Y-211950500D01*
X109580694Y-211950500D01*
X109617569Y-211947598D01*
X109617571Y-211947597D01*
X109617573Y-211947597D01*
X109659191Y-211935505D01*
X109775398Y-211901744D01*
X109916865Y-211818081D01*
X109916870Y-211818075D01*
X109923031Y-211813298D01*
X109924933Y-211815750D01*
X109973579Y-211789155D01*
X110043274Y-211794104D01*
X110075695Y-211814940D01*
X110076969Y-211813298D01*
X110083132Y-211818078D01*
X110083135Y-211818081D01*
X110224602Y-211901744D01*
X110266224Y-211913836D01*
X110382426Y-211947597D01*
X110382429Y-211947597D01*
X110382431Y-211947598D01*
X110419306Y-211950500D01*
X110419314Y-211950500D01*
X110850686Y-211950500D01*
X110850694Y-211950500D01*
X110887569Y-211947598D01*
X110887571Y-211947597D01*
X110887573Y-211947597D01*
X110929191Y-211935505D01*
X111045398Y-211901744D01*
X111186865Y-211818081D01*
X111186868Y-211818077D01*
X111193026Y-211813301D01*
X111194839Y-211815638D01*
X111243949Y-211788798D01*
X111313643Y-211793756D01*
X111345996Y-211814551D01*
X111347278Y-211812900D01*
X111353447Y-211817685D01*
X111494801Y-211901281D01*
X111652514Y-211947100D01*
X111652511Y-211947100D01*
X111654998Y-211947295D01*
X111655000Y-211947295D01*
X112155000Y-211947295D01*
X112155001Y-211947295D01*
X112157486Y-211947100D01*
X112315198Y-211901281D01*
X112456552Y-211817685D01*
X112456561Y-211817678D01*
X112572678Y-211701561D01*
X112572685Y-211701552D01*
X112656282Y-211560196D01*
X112656283Y-211560193D01*
X112702099Y-211402495D01*
X112702100Y-211402489D01*
X112704999Y-211365649D01*
X112705000Y-211365634D01*
X112705000Y-210725000D01*
X112155000Y-210725000D01*
X112155000Y-211947295D01*
X111655000Y-211947295D01*
X111655000Y-210225000D01*
X112155000Y-210225000D01*
X112705000Y-210225000D01*
X112705000Y-209584365D01*
X112704999Y-209584350D01*
X112702100Y-209547510D01*
X112702099Y-209547504D01*
X112656283Y-209389806D01*
X112656282Y-209389803D01*
X112572685Y-209248447D01*
X112572678Y-209248438D01*
X112456561Y-209132321D01*
X112456552Y-209132314D01*
X112315196Y-209048717D01*
X112315193Y-209048716D01*
X112157494Y-209002900D01*
X112157497Y-209002900D01*
X112155000Y-209002703D01*
X112155000Y-210225000D01*
X111655000Y-210225000D01*
X111655000Y-209015814D01*
X111601678Y-208981223D01*
X111582139Y-208958478D01*
X111560782Y-208937440D01*
X111558330Y-208930762D01*
X111556150Y-208928224D01*
X111555385Y-208922739D01*
X111547547Y-208901387D01*
X111517817Y-208751925D01*
X111517816Y-208751918D01*
X111453703Y-208597137D01*
X111384131Y-208493015D01*
X111360626Y-208457837D01*
X111242168Y-208339379D01*
X111242160Y-208339373D01*
X111156571Y-208282184D01*
X111103604Y-208246792D01*
X113434500Y-208246792D01*
X113434500Y-208493208D01*
X113446150Y-208566765D01*
X113473048Y-208736590D01*
X113473048Y-208736593D01*
X113549192Y-208970940D01*
X113606680Y-209083767D01*
X113661064Y-209190501D01*
X113805903Y-209389855D01*
X113980145Y-209564097D01*
X114179499Y-209708936D01*
X114399057Y-209820806D01*
X114399059Y-209820807D01*
X114633407Y-209896951D01*
X114633408Y-209896951D01*
X114633411Y-209896952D01*
X114876792Y-209935500D01*
X114876793Y-209935500D01*
X115123207Y-209935500D01*
X115123208Y-209935500D01*
X115366589Y-209896952D01*
X115366592Y-209896951D01*
X115366593Y-209896951D01*
X115600940Y-209820807D01*
X115600940Y-209820806D01*
X115600943Y-209820806D01*
X115820501Y-209708936D01*
X116019855Y-209564097D01*
X116194097Y-209389855D01*
X116338936Y-209190501D01*
X116450806Y-208970943D01*
X116489478Y-208851922D01*
X116526951Y-208736593D01*
X116526951Y-208736592D01*
X116526952Y-208736589D01*
X116565500Y-208493208D01*
X116565500Y-208246792D01*
X116526952Y-208003411D01*
X116526951Y-208003407D01*
X116526951Y-208003406D01*
X116450807Y-207769059D01*
X116338935Y-207549498D01*
X116194097Y-207350145D01*
X116019855Y-207175903D01*
X115820501Y-207031064D01*
X115601513Y-206919484D01*
X115550718Y-206871511D01*
X115533923Y-206803690D01*
X115556460Y-206737555D01*
X115611175Y-206694103D01*
X115657809Y-206685000D01*
X116012828Y-206685000D01*
X116012844Y-206684999D01*
X116072372Y-206678598D01*
X116072379Y-206678596D01*
X116207086Y-206628354D01*
X116207093Y-206628350D01*
X116322187Y-206542190D01*
X116322190Y-206542187D01*
X116408350Y-206427093D01*
X116408354Y-206427086D01*
X116458596Y-206292379D01*
X116458598Y-206292372D01*
X116464999Y-206232844D01*
X116465000Y-206232827D01*
X116465000Y-205520000D01*
X115556706Y-205520000D01*
X115586558Y-205447931D01*
X115610000Y-205330080D01*
X115610000Y-205209920D01*
X115586558Y-205092069D01*
X115556706Y-205020000D01*
X116465000Y-205020000D01*
X116465000Y-204307172D01*
X116464999Y-204307155D01*
X116458598Y-204247627D01*
X116458596Y-204247620D01*
X116408354Y-204112913D01*
X116408350Y-204112906D01*
X116322190Y-203997812D01*
X116322187Y-203997809D01*
X116207093Y-203911649D01*
X116207086Y-203911645D01*
X116072379Y-203861403D01*
X116072372Y-203861401D01*
X116012844Y-203855000D01*
X115250000Y-203855000D01*
X115250000Y-204713293D01*
X115177931Y-204683442D01*
X115060080Y-204660000D01*
X114939920Y-204660000D01*
X114822069Y-204683442D01*
X114750000Y-204713293D01*
X114750000Y-203855000D01*
X113987155Y-203855000D01*
X113927627Y-203861401D01*
X113927620Y-203861403D01*
X113792913Y-203911645D01*
X113792906Y-203911649D01*
X113677812Y-203997809D01*
X113677809Y-203997812D01*
X113591649Y-204112906D01*
X113591645Y-204112913D01*
X113541403Y-204247620D01*
X113541401Y-204247627D01*
X113535000Y-204307155D01*
X113535000Y-205020000D01*
X114443294Y-205020000D01*
X114413442Y-205092069D01*
X114390000Y-205209920D01*
X114390000Y-205330080D01*
X114413442Y-205447931D01*
X114443294Y-205520000D01*
X113535000Y-205520000D01*
X113535000Y-206232844D01*
X113541401Y-206292372D01*
X113541403Y-206292379D01*
X113591645Y-206427086D01*
X113591649Y-206427093D01*
X113677809Y-206542187D01*
X113677812Y-206542190D01*
X113792906Y-206628350D01*
X113792913Y-206628354D01*
X113927620Y-206678596D01*
X113927627Y-206678598D01*
X113987155Y-206684999D01*
X113987172Y-206685000D01*
X114342191Y-206685000D01*
X114409230Y-206704685D01*
X114454985Y-206757489D01*
X114464929Y-206826647D01*
X114435904Y-206890203D01*
X114398486Y-206919485D01*
X114179498Y-207031064D01*
X113980142Y-207175905D01*
X113805905Y-207350142D01*
X113661064Y-207549498D01*
X113549192Y-207769059D01*
X113473048Y-208003406D01*
X113473048Y-208003409D01*
X113473048Y-208003411D01*
X113434500Y-208246792D01*
X111103604Y-208246792D01*
X111102860Y-208246295D01*
X110948082Y-208182184D01*
X110948074Y-208182182D01*
X110783771Y-208149500D01*
X110783767Y-208149500D01*
X110616233Y-208149500D01*
X110616228Y-208149500D01*
X110451925Y-208182182D01*
X110451917Y-208182184D01*
X110297139Y-208246295D01*
X110157838Y-208339373D01*
X110037680Y-208459531D01*
X109976357Y-208493015D01*
X109906665Y-208488031D01*
X109862316Y-208459528D01*
X109842164Y-208439375D01*
X109842162Y-208439373D01*
X109702860Y-208346295D01*
X109548082Y-208282184D01*
X109548074Y-208282182D01*
X109383771Y-208249500D01*
X109383767Y-208249500D01*
X109216233Y-208249500D01*
X109216228Y-208249500D01*
X109051925Y-208282182D01*
X109051917Y-208282184D01*
X108897139Y-208346295D01*
X108757837Y-208439373D01*
X108639373Y-208557837D01*
X108546295Y-208697139D01*
X108482184Y-208851917D01*
X108482182Y-208851922D01*
X108472133Y-208902443D01*
X108439747Y-208964354D01*
X108379031Y-208998927D01*
X108340789Y-209001868D01*
X108310704Y-208999500D01*
X108310694Y-208999500D01*
X107879306Y-208999500D01*
X107879298Y-208999500D01*
X107842432Y-209002401D01*
X107842426Y-209002402D01*
X107684606Y-209048254D01*
X107684603Y-209048255D01*
X107543137Y-209131917D01*
X107543129Y-209131923D01*
X107426923Y-209248129D01*
X107426917Y-209248137D01*
X107343255Y-209389603D01*
X107343254Y-209389606D01*
X107297402Y-209547426D01*
X107297401Y-209547432D01*
X107294500Y-209584298D01*
X107294500Y-211365701D01*
X107297401Y-211402567D01*
X107297402Y-211402573D01*
X107344576Y-211564943D01*
X107349500Y-211599538D01*
X107349500Y-212573918D01*
X107349500Y-212573920D01*
X107349499Y-212573920D01*
X107378340Y-212718907D01*
X107378343Y-212718917D01*
X107434913Y-212855490D01*
X107434916Y-212855495D01*
X107452017Y-212881090D01*
X107517046Y-212978414D01*
X107517052Y-212978421D01*
X109917049Y-215378416D01*
X110021584Y-215482951D01*
X110021587Y-215482953D01*
X110021588Y-215482954D01*
X110144503Y-215565083D01*
X110144506Y-215565085D01*
X110194665Y-215585861D01*
X110201080Y-215588518D01*
X110281088Y-215621659D01*
X110397241Y-215644763D01*
X110420380Y-215649365D01*
X110426081Y-215650500D01*
X110426082Y-215650500D01*
X110426083Y-215650500D01*
X110573918Y-215650500D01*
X113562281Y-215650500D01*
X113629320Y-215670185D01*
X113675075Y-215722989D01*
X113685019Y-215792147D01*
X113663465Y-215845254D01*
X113663610Y-215845343D01*
X113663073Y-215846217D01*
X113662601Y-215847383D01*
X113661065Y-215849496D01*
X113549192Y-216069059D01*
X113473048Y-216303406D01*
X113473048Y-216303409D01*
X113434500Y-216546792D01*
X113434500Y-216793207D01*
X113473048Y-217036590D01*
X113473048Y-217036593D01*
X113549192Y-217270940D01*
X113661064Y-217490501D01*
X113706192Y-217552614D01*
X113729672Y-217618421D01*
X113713847Y-217686475D01*
X113663741Y-217735170D01*
X113605874Y-217749500D01*
X106394126Y-217749500D01*
X106327087Y-217729815D01*
X106281332Y-217677011D01*
X106271388Y-217607853D01*
X106293808Y-217552614D01*
X106338936Y-217490501D01*
X106450806Y-217270943D01*
X106526952Y-217036589D01*
X106565500Y-216793208D01*
X106565500Y-216546792D01*
X106526952Y-216303411D01*
X106526951Y-216303407D01*
X106526951Y-216303406D01*
X106450807Y-216069059D01*
X106338935Y-215849498D01*
X106338934Y-215849496D01*
X106194097Y-215650145D01*
X106019855Y-215475903D01*
X105820501Y-215331064D01*
X105600940Y-215219192D01*
X105366592Y-215143048D01*
X105184053Y-215114137D01*
X105123208Y-215104500D01*
X104876792Y-215104500D01*
X104795665Y-215117349D01*
X104633409Y-215143048D01*
X104633406Y-215143048D01*
X104399059Y-215219192D01*
X104179498Y-215331064D01*
X103980142Y-215475905D01*
X103805905Y-215650142D01*
X103661064Y-215849498D01*
X103549192Y-216069059D01*
X103473048Y-216303406D01*
X103473048Y-216303409D01*
X103434500Y-216546792D01*
X103434500Y-216793207D01*
X103473048Y-217036590D01*
X103473048Y-217036593D01*
X103549192Y-217270940D01*
X103661064Y-217490501D01*
X103706192Y-217552614D01*
X103729672Y-217618421D01*
X103713847Y-217686475D01*
X103663741Y-217735170D01*
X103605874Y-217749500D01*
X101124500Y-217749500D01*
X101057461Y-217729815D01*
X101011706Y-217677011D01*
X101000500Y-217625500D01*
X101000500Y-208246792D01*
X103434500Y-208246792D01*
X103434500Y-208493208D01*
X103446150Y-208566765D01*
X103473048Y-208736590D01*
X103473048Y-208736593D01*
X103549192Y-208970940D01*
X103606680Y-209083767D01*
X103661064Y-209190501D01*
X103805903Y-209389855D01*
X103980145Y-209564097D01*
X104179499Y-209708936D01*
X104399057Y-209820806D01*
X104399059Y-209820807D01*
X104633407Y-209896951D01*
X104633408Y-209896951D01*
X104633411Y-209896952D01*
X104876792Y-209935500D01*
X104876793Y-209935500D01*
X105123207Y-209935500D01*
X105123208Y-209935500D01*
X105366589Y-209896952D01*
X105366592Y-209896951D01*
X105366593Y-209896951D01*
X105600940Y-209820807D01*
X105600940Y-209820806D01*
X105600943Y-209820806D01*
X105820501Y-209708936D01*
X106019855Y-209564097D01*
X106194097Y-209389855D01*
X106338936Y-209190501D01*
X106450806Y-208970943D01*
X106489478Y-208851922D01*
X106526951Y-208736593D01*
X106526951Y-208736592D01*
X106526952Y-208736589D01*
X106565500Y-208493208D01*
X106565500Y-208246792D01*
X106526952Y-208003411D01*
X106526951Y-208003407D01*
X106526951Y-208003406D01*
X106450807Y-207769059D01*
X106338935Y-207549498D01*
X106194097Y-207350145D01*
X106019855Y-207175903D01*
X105820501Y-207031064D01*
X105601513Y-206919484D01*
X105550718Y-206871511D01*
X105533923Y-206803690D01*
X105556460Y-206737555D01*
X105611175Y-206694103D01*
X105657809Y-206685000D01*
X106012828Y-206685000D01*
X106012844Y-206684999D01*
X106072372Y-206678598D01*
X106072379Y-206678596D01*
X106207086Y-206628354D01*
X106207093Y-206628350D01*
X106322187Y-206542190D01*
X106322190Y-206542187D01*
X106408350Y-206427093D01*
X106408354Y-206427086D01*
X106458596Y-206292379D01*
X106458598Y-206292372D01*
X106464999Y-206232844D01*
X106465000Y-206232827D01*
X106465000Y-205520000D01*
X105556706Y-205520000D01*
X105586558Y-205447931D01*
X105610000Y-205330080D01*
X105610000Y-205209920D01*
X105586558Y-205092069D01*
X105556706Y-205020000D01*
X106465000Y-205020000D01*
X106465000Y-204307172D01*
X106464999Y-204307155D01*
X106458598Y-204247626D01*
X106458597Y-204247620D01*
X106448753Y-204221228D01*
X107248500Y-204221228D01*
X107248500Y-204388771D01*
X107277023Y-204532164D01*
X107281184Y-204553082D01*
X107286353Y-204565562D01*
X107295410Y-204622740D01*
X107294500Y-204634295D01*
X107294500Y-206415701D01*
X107297401Y-206452567D01*
X107297402Y-206452573D01*
X107343254Y-206610393D01*
X107343255Y-206610396D01*
X107426917Y-206751862D01*
X107426923Y-206751870D01*
X107543129Y-206868076D01*
X107543133Y-206868079D01*
X107543135Y-206868081D01*
X107684602Y-206951744D01*
X107726224Y-206963836D01*
X107842426Y-206997597D01*
X107842429Y-206997597D01*
X107842431Y-206997598D01*
X107879306Y-207000500D01*
X107879314Y-207000500D01*
X108310686Y-207000500D01*
X108310694Y-207000500D01*
X108347569Y-206997598D01*
X108347571Y-206997597D01*
X108347573Y-206997597D01*
X108389191Y-206985505D01*
X108505398Y-206951744D01*
X108646865Y-206868081D01*
X108646870Y-206868075D01*
X108653031Y-206863298D01*
X108654933Y-206865750D01*
X108703579Y-206839155D01*
X108773274Y-206844104D01*
X108805695Y-206864940D01*
X108806969Y-206863298D01*
X108813132Y-206868078D01*
X108813135Y-206868081D01*
X108954602Y-206951744D01*
X108996224Y-206963836D01*
X109112426Y-206997597D01*
X109112429Y-206997597D01*
X109112431Y-206997598D01*
X109149306Y-207000500D01*
X109149314Y-207000500D01*
X109580686Y-207000500D01*
X109580694Y-207000500D01*
X109617569Y-206997598D01*
X109617571Y-206997597D01*
X109617573Y-206997597D01*
X109659191Y-206985505D01*
X109775398Y-206951744D01*
X109916865Y-206868081D01*
X110033081Y-206751865D01*
X110116744Y-206610398D01*
X110162598Y-206452569D01*
X110165500Y-206415694D01*
X110165500Y-204634306D01*
X110164898Y-204626661D01*
X110173956Y-204569470D01*
X110182816Y-204548082D01*
X110215500Y-204383767D01*
X110215500Y-204216233D01*
X110182816Y-204051918D01*
X110124277Y-203910595D01*
X110121874Y-203888245D01*
X110114895Y-203866877D01*
X110118212Y-203854177D01*
X110116809Y-203841128D01*
X110126871Y-203821025D01*
X110132553Y-203799275D01*
X110142209Y-203790384D01*
X110148084Y-203778649D01*
X110167416Y-203767178D01*
X110183956Y-203751951D01*
X110196885Y-203749693D01*
X110208172Y-203742996D01*
X110230639Y-203743798D01*
X110252783Y-203739931D01*
X110269682Y-203745192D01*
X110277998Y-203745489D01*
X110286932Y-203748850D01*
X110294877Y-203752193D01*
X110297137Y-203753703D01*
X110382258Y-203788961D01*
X110382511Y-203789068D01*
X110383604Y-203789959D01*
X110422099Y-203815681D01*
X111077259Y-204470841D01*
X111110744Y-204532164D01*
X111108658Y-204593104D01*
X111107404Y-204597420D01*
X111107401Y-204597436D01*
X111104500Y-204634298D01*
X111104500Y-206415701D01*
X111107401Y-206452567D01*
X111107402Y-206452573D01*
X111153254Y-206610393D01*
X111153255Y-206610396D01*
X111236917Y-206751862D01*
X111236923Y-206751870D01*
X111353129Y-206868076D01*
X111353133Y-206868079D01*
X111353135Y-206868081D01*
X111494602Y-206951744D01*
X111536224Y-206963836D01*
X111652426Y-206997597D01*
X111652429Y-206997597D01*
X111652431Y-206997598D01*
X111689306Y-207000500D01*
X111689314Y-207000500D01*
X112120686Y-207000500D01*
X112120694Y-207000500D01*
X112157569Y-206997598D01*
X112157571Y-206997597D01*
X112157573Y-206997597D01*
X112199191Y-206985505D01*
X112315398Y-206951744D01*
X112456865Y-206868081D01*
X112573081Y-206751865D01*
X112656744Y-206610398D01*
X112702598Y-206452569D01*
X112705500Y-206415694D01*
X112705500Y-204634306D01*
X112702598Y-204597431D01*
X112701341Y-204593104D01*
X112660424Y-204452265D01*
X112655500Y-204417670D01*
X112655500Y-204163293D01*
X112626659Y-204018306D01*
X112626658Y-204018305D01*
X112626658Y-204018301D01*
X112618170Y-203997809D01*
X112570087Y-203881725D01*
X112570080Y-203881712D01*
X112487952Y-203758799D01*
X112461865Y-203732712D01*
X112383416Y-203654263D01*
X111977227Y-203248074D01*
X111553537Y-202824383D01*
X111520052Y-202763060D01*
X111519600Y-202760889D01*
X111517817Y-202751925D01*
X111517816Y-202751918D01*
X111453703Y-202597137D01*
X111382451Y-202490501D01*
X111360626Y-202457837D01*
X111242162Y-202339373D01*
X111102860Y-202246295D01*
X110948082Y-202182184D01*
X110948074Y-202182182D01*
X110783771Y-202149500D01*
X110783767Y-202149500D01*
X110616233Y-202149500D01*
X110616228Y-202149500D01*
X110451925Y-202182182D01*
X110451917Y-202182184D01*
X110297139Y-202246295D01*
X110157837Y-202339373D01*
X110039373Y-202457837D01*
X109946295Y-202597139D01*
X109882184Y-202751917D01*
X109882182Y-202751925D01*
X109849500Y-202916228D01*
X109849500Y-203083771D01*
X109882182Y-203248074D01*
X109882184Y-203248082D01*
X109940721Y-203389402D01*
X109948190Y-203458871D01*
X109916915Y-203521351D01*
X109856826Y-203557003D01*
X109787001Y-203554509D01*
X109768923Y-203546736D01*
X109613082Y-203482184D01*
X109613074Y-203482182D01*
X109448771Y-203449500D01*
X109448767Y-203449500D01*
X109281233Y-203449500D01*
X109281228Y-203449500D01*
X109116925Y-203482182D01*
X109116917Y-203482184D01*
X108962139Y-203546295D01*
X108822837Y-203639373D01*
X108822834Y-203639376D01*
X108817181Y-203645030D01*
X108755858Y-203678515D01*
X108686166Y-203673531D01*
X108646196Y-203647843D01*
X108645872Y-203648239D01*
X108642477Y-203645453D01*
X108641819Y-203645030D01*
X108641162Y-203644373D01*
X108501860Y-203551295D01*
X108347082Y-203487184D01*
X108347074Y-203487182D01*
X108182771Y-203454500D01*
X108182767Y-203454500D01*
X108015233Y-203454500D01*
X108015228Y-203454500D01*
X107850925Y-203487182D01*
X107850917Y-203487184D01*
X107696139Y-203551295D01*
X107556837Y-203644373D01*
X107438373Y-203762837D01*
X107345295Y-203902139D01*
X107281184Y-204056917D01*
X107281182Y-204056925D01*
X107248500Y-204221228D01*
X106448753Y-204221228D01*
X106408354Y-204112913D01*
X106408350Y-204112906D01*
X106322190Y-203997812D01*
X106322187Y-203997809D01*
X106207093Y-203911649D01*
X106207086Y-203911645D01*
X106072379Y-203861403D01*
X106072372Y-203861401D01*
X106012844Y-203855000D01*
X105250000Y-203855000D01*
X105250000Y-204713293D01*
X105177931Y-204683442D01*
X105060080Y-204660000D01*
X104939920Y-204660000D01*
X104822069Y-204683442D01*
X104750000Y-204713293D01*
X104750000Y-203855000D01*
X103987155Y-203855000D01*
X103927627Y-203861401D01*
X103927620Y-203861403D01*
X103792913Y-203911645D01*
X103792906Y-203911649D01*
X103677812Y-203997809D01*
X103677809Y-203997812D01*
X103591649Y-204112906D01*
X103591645Y-204112913D01*
X103541403Y-204247620D01*
X103541401Y-204247627D01*
X103535000Y-204307155D01*
X103535000Y-205020000D01*
X104443294Y-205020000D01*
X104413442Y-205092069D01*
X104390000Y-205209920D01*
X104390000Y-205330080D01*
X104413442Y-205447931D01*
X104443294Y-205520000D01*
X103535000Y-205520000D01*
X103535000Y-206232844D01*
X103541401Y-206292372D01*
X103541403Y-206292379D01*
X103591645Y-206427086D01*
X103591649Y-206427093D01*
X103677809Y-206542187D01*
X103677812Y-206542190D01*
X103792906Y-206628350D01*
X103792913Y-206628354D01*
X103927620Y-206678596D01*
X103927627Y-206678598D01*
X103987155Y-206684999D01*
X103987172Y-206685000D01*
X104342191Y-206685000D01*
X104409230Y-206704685D01*
X104454985Y-206757489D01*
X104464929Y-206826647D01*
X104435904Y-206890203D01*
X104398486Y-206919485D01*
X104179498Y-207031064D01*
X103980142Y-207175905D01*
X103805905Y-207350142D01*
X103661064Y-207549498D01*
X103549192Y-207769059D01*
X103473048Y-208003406D01*
X103473048Y-208003409D01*
X103473048Y-208003411D01*
X103434500Y-208246792D01*
X101000500Y-208246792D01*
X101000500Y-193246792D01*
X103434500Y-193246792D01*
X103434500Y-193493207D01*
X103473048Y-193736590D01*
X103473048Y-193736593D01*
X103549192Y-193970940D01*
X103619338Y-194108609D01*
X103661064Y-194190501D01*
X103805903Y-194389855D01*
X103980145Y-194564097D01*
X104179499Y-194708936D01*
X104323253Y-194782182D01*
X104399059Y-194820807D01*
X104633407Y-194896951D01*
X104633408Y-194896951D01*
X104633411Y-194896952D01*
X104876792Y-194935500D01*
X104876793Y-194935500D01*
X105123207Y-194935500D01*
X105123208Y-194935500D01*
X105366589Y-194896952D01*
X105366592Y-194896951D01*
X105366593Y-194896951D01*
X105600940Y-194820807D01*
X105600940Y-194820806D01*
X105600943Y-194820806D01*
X105820501Y-194708936D01*
X106019855Y-194564097D01*
X106194097Y-194389855D01*
X106338936Y-194190501D01*
X106450806Y-193970943D01*
X106526952Y-193736589D01*
X106565500Y-193493208D01*
X106565500Y-193246792D01*
X106526952Y-193003411D01*
X106526951Y-193003407D01*
X106526951Y-193003406D01*
X106450807Y-192769059D01*
X106338935Y-192549498D01*
X106194097Y-192350145D01*
X106019855Y-192175903D01*
X105820501Y-192031064D01*
X105794498Y-192017815D01*
X105600940Y-191919192D01*
X105366592Y-191843048D01*
X105184053Y-191814137D01*
X105123208Y-191804500D01*
X104876792Y-191804500D01*
X104795665Y-191817349D01*
X104633409Y-191843048D01*
X104633406Y-191843048D01*
X104399059Y-191919192D01*
X104179498Y-192031064D01*
X103980142Y-192175905D01*
X103805905Y-192350142D01*
X103661064Y-192549498D01*
X103549192Y-192769059D01*
X103473048Y-193003406D01*
X103473048Y-193003409D01*
X103434500Y-193246792D01*
X101000500Y-193246792D01*
X101000500Y-178246792D01*
X103434500Y-178246792D01*
X103434500Y-178493207D01*
X103473048Y-178736590D01*
X103473048Y-178736593D01*
X103549192Y-178970940D01*
X103549194Y-178970943D01*
X103661064Y-179190501D01*
X103805903Y-179389855D01*
X103980145Y-179564097D01*
X104179499Y-179708936D01*
X104298014Y-179769322D01*
X104399059Y-179820807D01*
X104633407Y-179896951D01*
X104633408Y-179896951D01*
X104633411Y-179896952D01*
X104876792Y-179935500D01*
X104876793Y-179935500D01*
X105123207Y-179935500D01*
X105123208Y-179935500D01*
X105366589Y-179896952D01*
X105366592Y-179896951D01*
X105366593Y-179896951D01*
X105600940Y-179820807D01*
X105600940Y-179820806D01*
X105600943Y-179820806D01*
X105820501Y-179708936D01*
X106019855Y-179564097D01*
X106194097Y-179389855D01*
X106338936Y-179190501D01*
X106450806Y-178970943D01*
X106526952Y-178736589D01*
X106565500Y-178493208D01*
X106565500Y-178247229D01*
X106585185Y-178180190D01*
X106601819Y-178159548D01*
X107411225Y-177350142D01*
X108422908Y-176338458D01*
X108463130Y-176311582D01*
X108602863Y-176253703D01*
X108742162Y-176160626D01*
X108860626Y-176042162D01*
X108953703Y-175902863D01*
X109017816Y-175748082D01*
X109050500Y-175583767D01*
X109050500Y-175416233D01*
X109017816Y-175251918D01*
X108953703Y-175097137D01*
X108922537Y-175050494D01*
X108860626Y-174957837D01*
X108742162Y-174839373D01*
X108602860Y-174746295D01*
X108448082Y-174682184D01*
X108448074Y-174682182D01*
X108283771Y-174649500D01*
X108283767Y-174649500D01*
X108116233Y-174649500D01*
X108116228Y-174649500D01*
X107951925Y-174682182D01*
X107951917Y-174682184D01*
X107797139Y-174746295D01*
X107657837Y-174839373D01*
X107539373Y-174957837D01*
X107446295Y-175097139D01*
X107388420Y-175236862D01*
X107361540Y-175277090D01*
X105743144Y-176895486D01*
X105681821Y-176928971D01*
X105612129Y-176923987D01*
X105605444Y-176921048D01*
X105605441Y-176921057D01*
X105600941Y-176919193D01*
X105366592Y-176843048D01*
X105184053Y-176814137D01*
X105123208Y-176804500D01*
X104876792Y-176804500D01*
X104795665Y-176817349D01*
X104633409Y-176843048D01*
X104633406Y-176843048D01*
X104399059Y-176919192D01*
X104179498Y-177031064D01*
X103980142Y-177175905D01*
X103805905Y-177350142D01*
X103661064Y-177549498D01*
X103549192Y-177769059D01*
X103473048Y-178003406D01*
X103473048Y-178003409D01*
X103434500Y-178246792D01*
X101000500Y-178246792D01*
X101000500Y-173559511D01*
X101020185Y-173492472D01*
X101072989Y-173446717D01*
X101142147Y-173436773D01*
X101205703Y-173465798D01*
X101234985Y-173503217D01*
X101250540Y-173533747D01*
X101269259Y-173559511D01*
X101369476Y-173697447D01*
X101512553Y-173840524D01*
X101676251Y-173959458D01*
X101856539Y-174051320D01*
X102002665Y-174098799D01*
X102048977Y-174113847D01*
X102248824Y-174145500D01*
X102248829Y-174145500D01*
X102451176Y-174145500D01*
X102651022Y-174113847D01*
X102843461Y-174051320D01*
X102854545Y-174045672D01*
X102923210Y-174032771D01*
X102987952Y-174059042D01*
X102998526Y-174068472D01*
X103431324Y-174501271D01*
X103431327Y-174501274D01*
X103431330Y-174501276D01*
X103501381Y-174548082D01*
X103537873Y-174572465D01*
X103656256Y-174621501D01*
X103656260Y-174621501D01*
X103656261Y-174621502D01*
X103781928Y-174646500D01*
X103781931Y-174646500D01*
X107015149Y-174646500D01*
X107099693Y-174629682D01*
X107140822Y-174621501D01*
X107259205Y-174572465D01*
X107295697Y-174548082D01*
X107365747Y-174501277D01*
X108855276Y-173011748D01*
X108926465Y-172905205D01*
X108975501Y-172786822D01*
X108980016Y-172764125D01*
X109000500Y-172661147D01*
X109000500Y-172370807D01*
X109020185Y-172303768D01*
X109036815Y-172283130D01*
X109637819Y-171682125D01*
X109699142Y-171648641D01*
X109768834Y-171653625D01*
G37*
%TD.AperFunction*%
%TA.AperFunction,Conductor*%
G36*
X112218502Y-179290185D02*
G01*
X112264257Y-179342989D01*
X112274201Y-179412147D01*
X112245176Y-179475703D01*
X112220354Y-179497602D01*
X112157837Y-179539373D01*
X112039373Y-179657837D01*
X111946295Y-179797139D01*
X111882184Y-179951917D01*
X111882182Y-179951925D01*
X111849500Y-180116228D01*
X111849500Y-180189172D01*
X111829815Y-180256211D01*
X111777011Y-180301966D01*
X111760096Y-180308248D01*
X111639604Y-180343254D01*
X111639603Y-180343255D01*
X111498137Y-180426917D01*
X111498129Y-180426923D01*
X111381923Y-180543129D01*
X111381917Y-180543137D01*
X111298255Y-180684603D01*
X111298254Y-180684606D01*
X111252402Y-180842426D01*
X111252401Y-180842432D01*
X111249500Y-180879298D01*
X111249500Y-181310701D01*
X111252401Y-181347567D01*
X111252402Y-181347573D01*
X111298254Y-181505393D01*
X111298257Y-181505400D01*
X111327485Y-181554823D01*
X111344668Y-181622547D01*
X111322508Y-181688809D01*
X111268041Y-181732572D01*
X111251080Y-181737704D01*
X111251088Y-181737730D01*
X111245255Y-181739499D01*
X111126875Y-181788533D01*
X111126866Y-181788538D01*
X111020331Y-181859723D01*
X111020327Y-181859726D01*
X110694725Y-182185327D01*
X110677909Y-182210495D01*
X110661315Y-182235331D01*
X110623534Y-182291873D01*
X110574499Y-182410255D01*
X110574497Y-182410261D01*
X110549500Y-182535928D01*
X110549500Y-182905068D01*
X110529815Y-182972107D01*
X110528602Y-182973959D01*
X110446295Y-183097139D01*
X110382184Y-183251917D01*
X110382182Y-183251925D01*
X110349500Y-183416228D01*
X110349500Y-183583771D01*
X110382182Y-183748074D01*
X110382184Y-183748082D01*
X110446295Y-183902860D01*
X110539373Y-184042162D01*
X110657837Y-184160626D01*
X110727964Y-184207483D01*
X110797137Y-184253703D01*
X110951918Y-184317816D01*
X111100035Y-184347278D01*
X111116228Y-184350499D01*
X111116232Y-184350500D01*
X111174969Y-184350500D01*
X111242008Y-184370185D01*
X111287763Y-184422989D01*
X111297707Y-184492147D01*
X111294045Y-184509095D01*
X111252402Y-184652426D01*
X111252401Y-184652432D01*
X111249500Y-184689298D01*
X111249500Y-185025500D01*
X111249319Y-185026115D01*
X111249494Y-185026733D01*
X111239474Y-185059643D01*
X111229815Y-185092539D01*
X111229331Y-185092957D01*
X111229144Y-185093574D01*
X111202902Y-185115858D01*
X111177011Y-185138294D01*
X111176213Y-185138523D01*
X111175887Y-185138801D01*
X111173475Y-185139313D01*
X111141925Y-185148407D01*
X111133746Y-185149500D01*
X111116233Y-185149500D01*
X111080371Y-185156633D01*
X111076451Y-185157157D01*
X111045664Y-185152417D01*
X111014623Y-185149639D01*
X111010633Y-185147024D01*
X111007395Y-185146526D01*
X111000293Y-185140247D01*
X110972345Y-185121931D01*
X110892631Y-185042217D01*
X110753329Y-184949139D01*
X110598551Y-184885028D01*
X110598543Y-184885026D01*
X110434240Y-184852344D01*
X110434236Y-184852344D01*
X110266702Y-184852344D01*
X110266697Y-184852344D01*
X110102394Y-184885026D01*
X110102386Y-184885028D01*
X109947608Y-184949139D01*
X109808308Y-185042216D01*
X109772826Y-185077698D01*
X109737342Y-185113182D01*
X109676022Y-185146666D01*
X109649663Y-185149500D01*
X109335926Y-185149500D01*
X109320258Y-185152617D01*
X109296067Y-185155000D01*
X108025000Y-185155000D01*
X108025000Y-185705000D01*
X108275691Y-185705000D01*
X108296938Y-185711239D01*
X108319026Y-185712819D01*
X108329808Y-185720890D01*
X108342730Y-185724685D01*
X108357230Y-185741418D01*
X108374959Y-185754691D01*
X108379665Y-185767311D01*
X108388485Y-185777489D01*
X108391636Y-185799406D01*
X108399375Y-185820155D01*
X108396512Y-185833315D01*
X108398429Y-185846647D01*
X108389230Y-185866789D01*
X108384523Y-185888428D01*
X108371253Y-185906152D01*
X108369404Y-185910203D01*
X108363371Y-185916682D01*
X108316870Y-185963182D01*
X108255547Y-185996666D01*
X108229191Y-185999500D01*
X108002130Y-185999500D01*
X108002123Y-185999501D01*
X107942516Y-186005908D01*
X107807671Y-186056202D01*
X107807664Y-186056206D01*
X107692455Y-186142452D01*
X107692452Y-186142455D01*
X107606206Y-186257664D01*
X107606204Y-186257668D01*
X107606204Y-186257669D01*
X107602039Y-186268834D01*
X107560171Y-186324766D01*
X107494707Y-186349184D01*
X107485859Y-186349500D01*
X106632019Y-186349500D01*
X106564980Y-186329815D01*
X106519225Y-186277011D01*
X106514088Y-186263818D01*
X106450807Y-186069059D01*
X106418780Y-186006202D01*
X106338936Y-185849499D01*
X106194097Y-185650145D01*
X106019855Y-185475903D01*
X105820501Y-185331064D01*
X105765153Y-185302863D01*
X105604765Y-185221141D01*
X105604763Y-185221139D01*
X105600943Y-185219193D01*
X105403380Y-185155001D01*
X106302704Y-185155001D01*
X106302899Y-185157486D01*
X106348718Y-185315198D01*
X106432314Y-185456552D01*
X106432321Y-185456561D01*
X106548438Y-185572678D01*
X106548447Y-185572685D01*
X106689803Y-185656282D01*
X106689806Y-185656283D01*
X106847504Y-185702099D01*
X106847510Y-185702100D01*
X106884350Y-185704999D01*
X106884366Y-185705000D01*
X107525000Y-185705000D01*
X107525000Y-185155000D01*
X106302705Y-185155000D01*
X106302704Y-185155001D01*
X105403380Y-185155001D01*
X105366592Y-185143048D01*
X105178017Y-185113181D01*
X105123208Y-185104500D01*
X104876792Y-185104500D01*
X104821983Y-185113181D01*
X104633409Y-185143048D01*
X104633406Y-185143048D01*
X104399057Y-185219193D01*
X104399056Y-185219193D01*
X104177975Y-185331839D01*
X104109306Y-185344735D01*
X104044566Y-185318458D01*
X104004309Y-185261352D01*
X104001317Y-185191546D01*
X104007118Y-185173908D01*
X104017816Y-185148082D01*
X104050500Y-184983767D01*
X104050500Y-184816233D01*
X104017816Y-184651918D01*
X104017811Y-184651907D01*
X104016048Y-184646091D01*
X104017339Y-184645699D01*
X104010607Y-184583075D01*
X104041883Y-184520596D01*
X104101972Y-184484944D01*
X104171798Y-184487439D01*
X104206946Y-184505825D01*
X104234236Y-184526254D01*
X104257669Y-184543796D01*
X104257671Y-184543797D01*
X104392517Y-184594091D01*
X104392516Y-184594091D01*
X104399444Y-184594835D01*
X104452127Y-184600500D01*
X105547872Y-184600499D01*
X105607483Y-184594091D01*
X105742331Y-184543796D01*
X105857546Y-184457546D01*
X105900001Y-184400834D01*
X105949112Y-184335231D01*
X105950907Y-184336575D01*
X105954688Y-184328297D01*
X105973378Y-184316285D01*
X105989106Y-184300596D01*
X106003490Y-184296933D01*
X106013466Y-184290523D01*
X106048401Y-184285500D01*
X106255104Y-184285500D01*
X106322143Y-184305185D01*
X106367898Y-184357989D01*
X106377842Y-184427147D01*
X106361836Y-184472621D01*
X106348718Y-184494801D01*
X106302899Y-184652513D01*
X106302704Y-184654998D01*
X106302705Y-184655000D01*
X109247295Y-184655000D01*
X109247295Y-184654998D01*
X109247100Y-184652513D01*
X109201281Y-184494801D01*
X109117685Y-184353447D01*
X109112900Y-184347278D01*
X109115366Y-184345364D01*
X109088802Y-184296776D01*
X109093749Y-184227082D01*
X109114856Y-184194232D01*
X109113301Y-184193026D01*
X109118077Y-184186868D01*
X109118081Y-184186865D01*
X109201744Y-184045398D01*
X109247598Y-183887569D01*
X109250500Y-183850694D01*
X109250500Y-183419306D01*
X109247598Y-183382431D01*
X109201744Y-183224602D01*
X109118081Y-183083135D01*
X109118078Y-183083132D01*
X109113298Y-183076969D01*
X109115750Y-183075066D01*
X109089155Y-183026421D01*
X109094104Y-182956726D01*
X109114940Y-182924304D01*
X109113298Y-182923031D01*
X109118075Y-182916870D01*
X109118081Y-182916865D01*
X109201744Y-182775398D01*
X109247598Y-182617569D01*
X109250500Y-182580694D01*
X109250500Y-182149306D01*
X109247598Y-182112431D01*
X109244603Y-182102123D01*
X109201745Y-181954606D01*
X109201744Y-181954603D01*
X109201744Y-181954602D01*
X109118081Y-181813135D01*
X109118078Y-181813132D01*
X109113298Y-181806969D01*
X109115750Y-181805066D01*
X109089155Y-181756421D01*
X109094104Y-181686726D01*
X109114940Y-181654304D01*
X109113298Y-181653031D01*
X109118075Y-181646870D01*
X109118081Y-181646865D01*
X109201744Y-181505398D01*
X109235505Y-181389191D01*
X109247597Y-181347573D01*
X109247598Y-181347567D01*
X109250499Y-181310701D01*
X109250500Y-181310694D01*
X109250500Y-180879306D01*
X109247598Y-180842431D01*
X109201744Y-180684602D01*
X109118081Y-180543135D01*
X109118079Y-180543133D01*
X109118076Y-180543129D01*
X109089444Y-180514497D01*
X109055959Y-180453174D01*
X109060943Y-180383482D01*
X109089442Y-180339137D01*
X109775216Y-179653363D01*
X109836537Y-179619880D01*
X109906229Y-179624864D01*
X109950576Y-179653365D01*
X109957837Y-179660626D01*
X110030137Y-179708935D01*
X110097137Y-179753703D01*
X110251918Y-179817816D01*
X110416228Y-179850499D01*
X110416232Y-179850500D01*
X110416233Y-179850500D01*
X110583768Y-179850500D01*
X110583769Y-179850499D01*
X110748082Y-179817816D01*
X110902863Y-179753703D01*
X111042162Y-179660626D01*
X111160626Y-179542162D01*
X111253703Y-179402863D01*
X111276823Y-179347047D01*
X111320664Y-179292644D01*
X111386958Y-179270579D01*
X111391384Y-179270500D01*
X112151463Y-179270500D01*
X112218502Y-179290185D01*
G37*
%TD.AperFunction*%
%TA.AperFunction,Conductor*%
G36*
X118938773Y-166824195D02*
G01*
X118986384Y-166875332D01*
X118999500Y-166930837D01*
X118999500Y-171049262D01*
X118979815Y-171116301D01*
X118927011Y-171162056D01*
X118857853Y-171172000D01*
X118794297Y-171142975D01*
X118787819Y-171136943D01*
X118663482Y-171012606D01*
X118663478Y-171012603D01*
X118514342Y-170920614D01*
X118514331Y-170920609D01*
X118347988Y-170865489D01*
X118347988Y-170865488D01*
X118245327Y-170855000D01*
X117910000Y-170855000D01*
X117910000Y-172177243D01*
X117908676Y-172175919D01*
X117816324Y-172122600D01*
X117713319Y-172095000D01*
X117606681Y-172095000D01*
X117503676Y-172122600D01*
X117411324Y-172175919D01*
X117410000Y-172177243D01*
X117410000Y-170855000D01*
X117074672Y-170855000D01*
X116972011Y-170865488D01*
X116972011Y-170865489D01*
X116805668Y-170920609D01*
X116805657Y-170920614D01*
X116656521Y-171012603D01*
X116656517Y-171012606D01*
X116532606Y-171136517D01*
X116532603Y-171136521D01*
X116440614Y-171285657D01*
X116440609Y-171285668D01*
X116385489Y-171452011D01*
X116385488Y-171452011D01*
X116375000Y-171554672D01*
X116375000Y-172250000D01*
X117337243Y-172250000D01*
X117335919Y-172251324D01*
X117282600Y-172343676D01*
X117255000Y-172446681D01*
X117255000Y-172553319D01*
X117282600Y-172656324D01*
X117335919Y-172748676D01*
X117337243Y-172750000D01*
X116375000Y-172750000D01*
X116375000Y-173445327D01*
X116385488Y-173547988D01*
X116440609Y-173714331D01*
X116440614Y-173714342D01*
X116532603Y-173863478D01*
X116532606Y-173863482D01*
X116656516Y-173987392D01*
X116705327Y-174017499D01*
X116752051Y-174069447D01*
X116763274Y-174138410D01*
X116735430Y-174202492D01*
X116727911Y-174210719D01*
X116317049Y-174621582D01*
X116317045Y-174621586D01*
X116298395Y-174649501D01*
X116298394Y-174649502D01*
X116234916Y-174744503D01*
X116234914Y-174744506D01*
X116178343Y-174881082D01*
X116178340Y-174881092D01*
X116149500Y-175026079D01*
X116149500Y-175925500D01*
X116129815Y-175992539D01*
X116077011Y-176038294D01*
X116025500Y-176049500D01*
X111493294Y-176049500D01*
X111365526Y-176074915D01*
X111365521Y-176074916D01*
X111357737Y-176076465D01*
X111348301Y-176078342D01*
X111318041Y-176090875D01*
X111314007Y-176092232D01*
X111283166Y-176093424D01*
X111252480Y-176096723D01*
X111248564Y-176094762D01*
X111244189Y-176094932D01*
X111217599Y-176079262D01*
X111190002Y-176065447D01*
X111187767Y-176061681D01*
X111183995Y-176059458D01*
X111170098Y-176031899D01*
X111154351Y-176005357D01*
X111153567Y-175999115D01*
X111152536Y-175997071D01*
X111152887Y-175993705D01*
X111150500Y-175974694D01*
X111150500Y-171694931D01*
X111170185Y-171627892D01*
X111171398Y-171626040D01*
X111253703Y-171502863D01*
X111317816Y-171348082D01*
X111350500Y-171183767D01*
X111350500Y-171019475D01*
X111370185Y-170952436D01*
X111422989Y-170906681D01*
X111474500Y-170895475D01*
X112994286Y-170895475D01*
X113061325Y-170915160D01*
X113107080Y-170967964D01*
X113117024Y-171037122D01*
X113087999Y-171100678D01*
X113067172Y-171119793D01*
X113012551Y-171159477D01*
X112869478Y-171302550D01*
X112869478Y-171302551D01*
X112869476Y-171302553D01*
X112836403Y-171348074D01*
X112750542Y-171466250D01*
X112658681Y-171646536D01*
X112596152Y-171838977D01*
X112564500Y-172038823D01*
X112564500Y-172961176D01*
X112596152Y-173161022D01*
X112615803Y-173221500D01*
X112658680Y-173353461D01*
X112750542Y-173533749D01*
X112869476Y-173697447D01*
X113012553Y-173840524D01*
X113176251Y-173959458D01*
X113356539Y-174051320D01*
X113502665Y-174098799D01*
X113548977Y-174113847D01*
X113748824Y-174145500D01*
X113748829Y-174145500D01*
X113951176Y-174145500D01*
X114151022Y-174113847D01*
X114343461Y-174051320D01*
X114523749Y-173959458D01*
X114687447Y-173840524D01*
X114830524Y-173697447D01*
X114949458Y-173533749D01*
X115041320Y-173353461D01*
X115103847Y-173161022D01*
X115127489Y-173011753D01*
X115135500Y-172961176D01*
X115135500Y-172038823D01*
X115103847Y-171838977D01*
X115078498Y-171760961D01*
X115041320Y-171646539D01*
X115039090Y-171642162D01*
X115021591Y-171607817D01*
X114949459Y-171466252D01*
X114930740Y-171440488D01*
X114830524Y-171302553D01*
X114687447Y-171159476D01*
X114687446Y-171159475D01*
X114615754Y-171107387D01*
X114573089Y-171052057D01*
X114567111Y-170982443D01*
X114599718Y-170920649D01*
X114660557Y-170886292D01*
X114664430Y-170885457D01*
X114739744Y-170870476D01*
X114858127Y-170821440D01*
X114868261Y-170814669D01*
X114964669Y-170750252D01*
X117495916Y-168219003D01*
X117514701Y-168203587D01*
X117519694Y-168200252D01*
X118661277Y-167058669D01*
X118732465Y-166952127D01*
X118760939Y-166883385D01*
X118804779Y-166828981D01*
X118871073Y-166806916D01*
X118938773Y-166824195D01*
G37*
%TD.AperFunction*%
%TA.AperFunction,Conductor*%
G36*
X104102157Y-168720301D02*
G01*
X104158091Y-168762172D01*
X104182508Y-168827636D01*
X104180442Y-168860673D01*
X104161635Y-168955224D01*
X104155658Y-168985277D01*
X104149500Y-169016234D01*
X104149500Y-169183771D01*
X104182182Y-169348074D01*
X104182184Y-169348082D01*
X104246295Y-169502860D01*
X104339373Y-169642162D01*
X104457837Y-169760626D01*
X104527183Y-169806961D01*
X104597137Y-169853703D01*
X104597138Y-169853703D01*
X104597139Y-169853704D01*
X104736866Y-169911581D01*
X104777094Y-169938461D01*
X105117048Y-170278415D01*
X105117049Y-170278416D01*
X105221584Y-170382951D01*
X105221585Y-170382952D01*
X105344498Y-170465080D01*
X105344511Y-170465087D01*
X105481082Y-170521656D01*
X105481087Y-170521658D01*
X105481091Y-170521658D01*
X105481092Y-170521659D01*
X105626079Y-170550500D01*
X105626082Y-170550500D01*
X106061010Y-170550500D01*
X106128049Y-170570185D01*
X106173804Y-170622989D01*
X106180058Y-170642358D01*
X106180415Y-170642250D01*
X106182184Y-170648082D01*
X106246295Y-170802860D01*
X106339373Y-170942162D01*
X106339376Y-170942165D01*
X106373680Y-170976468D01*
X106407166Y-171037790D01*
X106410000Y-171064150D01*
X106410000Y-172177243D01*
X106408676Y-172175919D01*
X106316324Y-172122600D01*
X106213319Y-172095000D01*
X106106681Y-172095000D01*
X106003676Y-172122600D01*
X105911324Y-172175919D01*
X105910000Y-172177243D01*
X105910000Y-170855000D01*
X105574672Y-170855000D01*
X105472011Y-170865488D01*
X105472011Y-170865489D01*
X105305668Y-170920609D01*
X105305657Y-170920614D01*
X105156521Y-171012603D01*
X105156517Y-171012606D01*
X105032606Y-171136517D01*
X105032603Y-171136521D01*
X104940614Y-171285657D01*
X104940609Y-171285668D01*
X104885489Y-171452011D01*
X104885488Y-171452011D01*
X104875000Y-171554672D01*
X104875000Y-172250000D01*
X105837243Y-172250000D01*
X105835919Y-172251324D01*
X105782600Y-172343676D01*
X105755000Y-172446681D01*
X105755000Y-172553319D01*
X105782600Y-172656324D01*
X105835919Y-172748676D01*
X105837243Y-172750000D01*
X104875000Y-172750000D01*
X104875000Y-173221500D01*
X104855315Y-173288539D01*
X104802511Y-173334294D01*
X104751000Y-173345500D01*
X104166808Y-173345500D01*
X104099769Y-173325815D01*
X104079127Y-173309181D01*
X103671819Y-172901873D01*
X103638334Y-172840550D01*
X103635500Y-172814192D01*
X103635500Y-172038823D01*
X103603847Y-171838977D01*
X103578498Y-171760961D01*
X103541320Y-171646539D01*
X103539090Y-171642162D01*
X103521591Y-171607817D01*
X103449459Y-171466252D01*
X103430740Y-171440488D01*
X103330524Y-171302553D01*
X103187447Y-171159476D01*
X103023749Y-171040542D01*
X102843461Y-170948680D01*
X102793553Y-170932464D01*
X102651022Y-170886152D01*
X102451176Y-170854500D01*
X102451171Y-170854500D01*
X102248829Y-170854500D01*
X102248824Y-170854500D01*
X102048977Y-170886152D01*
X101856536Y-170948681D01*
X101676250Y-171040542D01*
X101643757Y-171064150D01*
X101512553Y-171159476D01*
X101512551Y-171159478D01*
X101512550Y-171159478D01*
X101369478Y-171302550D01*
X101369478Y-171302551D01*
X101369476Y-171302553D01*
X101336403Y-171348074D01*
X101250540Y-171466253D01*
X101234984Y-171496784D01*
X101187010Y-171547579D01*
X101119189Y-171564374D01*
X101053054Y-171541836D01*
X101009603Y-171487121D01*
X101000500Y-171440488D01*
X101000500Y-170673607D01*
X101020185Y-170606568D01*
X101072989Y-170560813D01*
X101131900Y-170550409D01*
X101131920Y-170549904D01*
X101134246Y-170549995D01*
X101134265Y-170549992D01*
X101134366Y-170550000D01*
X101775000Y-170550000D01*
X102275000Y-170550000D01*
X102915634Y-170550000D01*
X102915649Y-170549999D01*
X102952489Y-170547100D01*
X102952495Y-170547099D01*
X103110193Y-170501283D01*
X103110196Y-170501282D01*
X103251552Y-170417685D01*
X103251561Y-170417678D01*
X103367678Y-170301561D01*
X103367685Y-170301552D01*
X103451281Y-170160198D01*
X103497100Y-170002486D01*
X103497295Y-170000001D01*
X103497295Y-170000000D01*
X102275000Y-170000000D01*
X102275000Y-170550000D01*
X101775000Y-170550000D01*
X101775000Y-169874000D01*
X101794685Y-169806961D01*
X101847489Y-169761206D01*
X101899000Y-169750000D01*
X102025000Y-169750000D01*
X102025000Y-169624000D01*
X102044685Y-169556961D01*
X102097489Y-169511206D01*
X102149000Y-169500000D01*
X103497295Y-169500000D01*
X103497295Y-169499998D01*
X103497100Y-169497513D01*
X103451281Y-169339801D01*
X103422521Y-169291170D01*
X103405338Y-169223446D01*
X103427498Y-169157183D01*
X103481964Y-169113420D01*
X103505065Y-169106431D01*
X103509744Y-169105501D01*
X103628127Y-169056465D01*
X103638551Y-169049500D01*
X103734669Y-168985277D01*
X103971145Y-168748799D01*
X104032465Y-168715317D01*
X104102157Y-168720301D01*
G37*
%TD.AperFunction*%
%TA.AperFunction,Conductor*%
G36*
X110107241Y-144741545D02*
G01*
X110140923Y-144743256D01*
X110142441Y-144744044D01*
X110143274Y-144744104D01*
X110146313Y-144746055D01*
X110172243Y-144759526D01*
X110180496Y-144765442D01*
X110183135Y-144768081D01*
X110189091Y-144771603D01*
X110193520Y-144774778D01*
X110224377Y-144806666D01*
X110229724Y-144814668D01*
X110229728Y-144814673D01*
X110320327Y-144905272D01*
X110320331Y-144905275D01*
X110426866Y-144976460D01*
X110426872Y-144976463D01*
X110426873Y-144976464D01*
X110545256Y-145025500D01*
X110545260Y-145025500D01*
X110545261Y-145025501D01*
X110670928Y-145050499D01*
X110670931Y-145050499D01*
X110799071Y-145050499D01*
X110883615Y-145033681D01*
X110924744Y-145025500D01*
X110990336Y-144998330D01*
X111059801Y-144990862D01*
X111122281Y-145022136D01*
X111157934Y-145082225D01*
X111155441Y-145152050D01*
X111152348Y-145160343D01*
X111137209Y-145196892D01*
X111137207Y-145196900D01*
X111104525Y-145361203D01*
X111104525Y-145528746D01*
X111137207Y-145693049D01*
X111137209Y-145693057D01*
X111201320Y-145847835D01*
X111294398Y-145987137D01*
X111412862Y-146105601D01*
X111443998Y-146126405D01*
X111552162Y-146198678D01*
X111706943Y-146262791D01*
X111871253Y-146295474D01*
X111871257Y-146295475D01*
X111871258Y-146295475D01*
X112038793Y-146295475D01*
X112038794Y-146295474D01*
X112203107Y-146262791D01*
X112357888Y-146198678D01*
X112497187Y-146105601D01*
X112505651Y-146097137D01*
X112515970Y-146086819D01*
X112577293Y-146053334D01*
X112603651Y-146050500D01*
X113630035Y-146050500D01*
X113697074Y-146070185D01*
X113742829Y-146122989D01*
X113752773Y-146192147D01*
X113744596Y-146221952D01*
X113732185Y-146251913D01*
X113732182Y-146251925D01*
X113699500Y-146416228D01*
X113699500Y-146583771D01*
X113732182Y-146748074D01*
X113732184Y-146748082D01*
X113796295Y-146902860D01*
X113889373Y-147042162D01*
X114007837Y-147160626D01*
X114067512Y-147200499D01*
X114147137Y-147253703D01*
X114147138Y-147253703D01*
X114147139Y-147253704D01*
X114182201Y-147268227D01*
X114301918Y-147317816D01*
X114466228Y-147350499D01*
X114466232Y-147350500D01*
X114466233Y-147350500D01*
X114479192Y-147350500D01*
X114546231Y-147370185D01*
X114566873Y-147386819D01*
X117469181Y-150289127D01*
X117502666Y-150350450D01*
X117505500Y-150376808D01*
X117505500Y-156603349D01*
X117485815Y-156670388D01*
X117433011Y-156716143D01*
X117363853Y-156726087D01*
X117300297Y-156697062D01*
X117293819Y-156691030D01*
X117242162Y-156639373D01*
X117102860Y-156546295D01*
X116948082Y-156482184D01*
X116948074Y-156482182D01*
X116783771Y-156449500D01*
X116783767Y-156449500D01*
X116616233Y-156449500D01*
X116616228Y-156449500D01*
X116451925Y-156482182D01*
X116451917Y-156482184D01*
X116297139Y-156546295D01*
X116157837Y-156639373D01*
X116039373Y-156757837D01*
X115946295Y-156897139D01*
X115882184Y-157051917D01*
X115882182Y-157051923D01*
X115853281Y-157197219D01*
X115820896Y-157259130D01*
X115819345Y-157260708D01*
X114037181Y-159042872D01*
X113975858Y-159076357D01*
X113906166Y-159071373D01*
X113850233Y-159029501D01*
X113825816Y-158964037D01*
X113825500Y-158955191D01*
X113825500Y-158895675D01*
X113792862Y-158689610D01*
X113750000Y-158557695D01*
X113728389Y-158491184D01*
X113728387Y-158491181D01*
X113728387Y-158491179D01*
X113662470Y-158361809D01*
X113633670Y-158305286D01*
X113511035Y-158136495D01*
X113363505Y-157988965D01*
X113194714Y-157866330D01*
X113008820Y-157771612D01*
X112810389Y-157707137D01*
X112604324Y-157674500D01*
X112604319Y-157674500D01*
X112395681Y-157674500D01*
X112395676Y-157674500D01*
X112189610Y-157707137D01*
X111991179Y-157771612D01*
X111805285Y-157866330D01*
X111636493Y-157988966D01*
X111488966Y-158136493D01*
X111366330Y-158305286D01*
X111360484Y-158316759D01*
X111312508Y-158367554D01*
X111244687Y-158384348D01*
X111178553Y-158361809D01*
X111139516Y-158316759D01*
X111134789Y-158307483D01*
X111133670Y-158305286D01*
X111011035Y-158136495D01*
X110863505Y-157988965D01*
X110694714Y-157866330D01*
X110508820Y-157771612D01*
X110310389Y-157707137D01*
X110104324Y-157674500D01*
X110104319Y-157674500D01*
X109895681Y-157674500D01*
X109895676Y-157674500D01*
X109689610Y-157707137D01*
X109491179Y-157771612D01*
X109305285Y-157866330D01*
X109136493Y-157988966D01*
X108988966Y-158136493D01*
X108866330Y-158305285D01*
X108771612Y-158491179D01*
X108707137Y-158689610D01*
X108674500Y-158895675D01*
X108674500Y-159104324D01*
X108707137Y-159310389D01*
X108771613Y-159508823D01*
X108822376Y-159608450D01*
X108835272Y-159677119D01*
X108808995Y-159741859D01*
X108756993Y-159778517D01*
X108757546Y-159779851D01*
X108597139Y-159846293D01*
X108473956Y-159928602D01*
X108407278Y-159949480D01*
X108405065Y-159949500D01*
X107170808Y-159949500D01*
X107103769Y-159929815D01*
X107083127Y-159913181D01*
X105036818Y-157866872D01*
X105003333Y-157805549D01*
X105000499Y-157779191D01*
X105000499Y-157202129D01*
X105000498Y-157202123D01*
X104994091Y-157142516D01*
X104943797Y-157007671D01*
X104943793Y-157007664D01*
X104857547Y-156892455D01*
X104857544Y-156892452D01*
X104742335Y-156806206D01*
X104742328Y-156806202D01*
X104607482Y-156755908D01*
X104607483Y-156755908D01*
X104547883Y-156749501D01*
X104547881Y-156749500D01*
X104547873Y-156749500D01*
X104547864Y-156749500D01*
X103452129Y-156749500D01*
X103452123Y-156749501D01*
X103392516Y-156755908D01*
X103257671Y-156806202D01*
X103257668Y-156806204D01*
X103147207Y-156888895D01*
X103081742Y-156913312D01*
X103013469Y-156898460D01*
X102973630Y-156863940D01*
X102957546Y-156842454D01*
X102909125Y-156806206D01*
X102842335Y-156756206D01*
X102842328Y-156756202D01*
X102707482Y-156705908D01*
X102707483Y-156705908D01*
X102647883Y-156699501D01*
X102647881Y-156699500D01*
X102647873Y-156699500D01*
X102647864Y-156699500D01*
X101552129Y-156699500D01*
X101552123Y-156699501D01*
X101492516Y-156705908D01*
X101357671Y-156756202D01*
X101357664Y-156756206D01*
X101242455Y-156842452D01*
X101223766Y-156867418D01*
X101167832Y-156909288D01*
X101098140Y-156914272D01*
X101036818Y-156880786D01*
X101003333Y-156819462D01*
X101000500Y-156793106D01*
X101000500Y-150051651D01*
X101020185Y-149984612D01*
X101072989Y-149938857D01*
X101142147Y-149928913D01*
X101205703Y-149957938D01*
X101212181Y-149963970D01*
X101308837Y-150060626D01*
X101401494Y-150122537D01*
X101448137Y-150153703D01*
X101602918Y-150217816D01*
X101767228Y-150250499D01*
X101767232Y-150250500D01*
X101767233Y-150250500D01*
X101934768Y-150250500D01*
X101934769Y-150250499D01*
X102099082Y-150217816D01*
X102238808Y-150159938D01*
X102286261Y-150150500D01*
X103337949Y-150150500D01*
X103404988Y-150170185D01*
X103450743Y-150222989D01*
X103460687Y-150292147D01*
X103454132Y-150317831D01*
X103447908Y-150334517D01*
X103443362Y-150376808D01*
X103441501Y-150394123D01*
X103441500Y-150394135D01*
X103441500Y-153605870D01*
X103441501Y-153605876D01*
X103447908Y-153665483D01*
X103498202Y-153800328D01*
X103498206Y-153800335D01*
X103584452Y-153915544D01*
X103584455Y-153915547D01*
X103699664Y-154001793D01*
X103699671Y-154001797D01*
X103834517Y-154052091D01*
X103834516Y-154052091D01*
X103841444Y-154052835D01*
X103894127Y-154058500D01*
X107105872Y-154058499D01*
X107165483Y-154052091D01*
X107300331Y-154001796D01*
X107415546Y-153915546D01*
X107501796Y-153800331D01*
X107552091Y-153665483D01*
X107558500Y-153605873D01*
X107558499Y-150394135D01*
X112441500Y-150394135D01*
X112441500Y-153605870D01*
X112441501Y-153605876D01*
X112447908Y-153665483D01*
X112498202Y-153800328D01*
X112498206Y-153800335D01*
X112584452Y-153915544D01*
X112584455Y-153915547D01*
X112699664Y-154001793D01*
X112699671Y-154001797D01*
X112834517Y-154052091D01*
X112834516Y-154052091D01*
X112841444Y-154052835D01*
X112894127Y-154058500D01*
X116105872Y-154058499D01*
X116165483Y-154052091D01*
X116300331Y-154001796D01*
X116415546Y-153915546D01*
X116501796Y-153800331D01*
X116552091Y-153665483D01*
X116558500Y-153605873D01*
X116558499Y-150394128D01*
X116552091Y-150334517D01*
X116520754Y-150250499D01*
X116501797Y-150199671D01*
X116501793Y-150199664D01*
X116415547Y-150084455D01*
X116415544Y-150084452D01*
X116300335Y-149998206D01*
X116300328Y-149998202D01*
X116165482Y-149947908D01*
X116165483Y-149947908D01*
X116105883Y-149941501D01*
X116105881Y-149941500D01*
X116105873Y-149941500D01*
X116105864Y-149941500D01*
X112894129Y-149941500D01*
X112894123Y-149941501D01*
X112834516Y-149947908D01*
X112699671Y-149998202D01*
X112699664Y-149998206D01*
X112584455Y-150084452D01*
X112584452Y-150084455D01*
X112498206Y-150199664D01*
X112498202Y-150199671D01*
X112447908Y-150334517D01*
X112443362Y-150376808D01*
X112441501Y-150394123D01*
X112441500Y-150394135D01*
X107558499Y-150394135D01*
X107558499Y-150394128D01*
X107552091Y-150334517D01*
X107501796Y-150199669D01*
X107501794Y-150199666D01*
X107500627Y-150196537D01*
X107498514Y-150166994D01*
X107493775Y-150137753D01*
X107496049Y-150132527D01*
X107495643Y-150126845D01*
X107509837Y-150100849D01*
X107521660Y-150073688D01*
X107527565Y-150068382D01*
X107529128Y-150065522D01*
X107547911Y-150050105D01*
X107584735Y-150025501D01*
X107648416Y-149982952D01*
X107767634Y-149863732D01*
X107828955Y-149830249D01*
X107889910Y-149832339D01*
X107942431Y-149847598D01*
X107979306Y-149850500D01*
X107979314Y-149850500D01*
X108410686Y-149850500D01*
X108410694Y-149850500D01*
X108447569Y-149847598D01*
X108447571Y-149847597D01*
X108447573Y-149847597D01*
X108507284Y-149830249D01*
X108605398Y-149801744D01*
X108746865Y-149718081D01*
X108746870Y-149718075D01*
X108753031Y-149713298D01*
X108754933Y-149715750D01*
X108803579Y-149689155D01*
X108873274Y-149694104D01*
X108905695Y-149714940D01*
X108906969Y-149713298D01*
X108913132Y-149718078D01*
X108913135Y-149718081D01*
X109054602Y-149801744D01*
X109058454Y-149802863D01*
X109212426Y-149847597D01*
X109212429Y-149847597D01*
X109212431Y-149847598D01*
X109249306Y-149850500D01*
X109249314Y-149850500D01*
X109680686Y-149850500D01*
X109680694Y-149850500D01*
X109717569Y-149847598D01*
X109717571Y-149847597D01*
X109717573Y-149847597D01*
X109777284Y-149830249D01*
X109875398Y-149801744D01*
X110016865Y-149718081D01*
X110016870Y-149718075D01*
X110023031Y-149713298D01*
X110024933Y-149715750D01*
X110073579Y-149689155D01*
X110143274Y-149694104D01*
X110175695Y-149714940D01*
X110176969Y-149713298D01*
X110183132Y-149718078D01*
X110183135Y-149718081D01*
X110324602Y-149801744D01*
X110328454Y-149802863D01*
X110482426Y-149847597D01*
X110482429Y-149847597D01*
X110482431Y-149847598D01*
X110519306Y-149850500D01*
X110519314Y-149850500D01*
X110950686Y-149850500D01*
X110950694Y-149850500D01*
X110987569Y-149847598D01*
X110987571Y-149847597D01*
X110987573Y-149847597D01*
X111047284Y-149830249D01*
X111145398Y-149801744D01*
X111286865Y-149718081D01*
X111286868Y-149718077D01*
X111293026Y-149713301D01*
X111294839Y-149715638D01*
X111343949Y-149688798D01*
X111413643Y-149693756D01*
X111445996Y-149714551D01*
X111447278Y-149712900D01*
X111453447Y-149717685D01*
X111594801Y-149801281D01*
X111752514Y-149847100D01*
X111752511Y-149847100D01*
X111754998Y-149847295D01*
X111755000Y-149847295D01*
X112255000Y-149847295D01*
X112255001Y-149847295D01*
X112257486Y-149847100D01*
X112415198Y-149801281D01*
X112556552Y-149717685D01*
X112556561Y-149717678D01*
X112672678Y-149601561D01*
X112672685Y-149601552D01*
X112756282Y-149460196D01*
X112756283Y-149460193D01*
X112802099Y-149302495D01*
X112802100Y-149302489D01*
X112804999Y-149265649D01*
X112805000Y-149265634D01*
X112805000Y-148625000D01*
X112255000Y-148625000D01*
X112255000Y-149847295D01*
X111755000Y-149847295D01*
X111755000Y-148125000D01*
X112255000Y-148125000D01*
X112805000Y-148125000D01*
X112805000Y-147484365D01*
X112804999Y-147484350D01*
X112802100Y-147447510D01*
X112802099Y-147447504D01*
X112756283Y-147289806D01*
X112756282Y-147289803D01*
X112672685Y-147148447D01*
X112672678Y-147148438D01*
X112556561Y-147032321D01*
X112556552Y-147032314D01*
X112415196Y-146948717D01*
X112415193Y-146948716D01*
X112257494Y-146902900D01*
X112257497Y-146902900D01*
X112255000Y-146902703D01*
X112255000Y-148125000D01*
X111755000Y-148125000D01*
X111755000Y-146902703D01*
X111752503Y-146902900D01*
X111594806Y-146948716D01*
X111594803Y-146948717D01*
X111453449Y-147032313D01*
X111447283Y-147037097D01*
X111445389Y-147034655D01*
X111396580Y-147061239D01*
X111326894Y-147056179D01*
X111294227Y-147035159D01*
X111293031Y-147036702D01*
X111286862Y-147031917D01*
X111147501Y-146949500D01*
X111145398Y-146948256D01*
X111145397Y-146948255D01*
X111145396Y-146948255D01*
X111145393Y-146948254D01*
X110987573Y-146902402D01*
X110987568Y-146902401D01*
X110962378Y-146900419D01*
X110897090Y-146875534D01*
X110884428Y-146864482D01*
X109130023Y-145110077D01*
X109096538Y-145048754D01*
X109101522Y-144979062D01*
X109143394Y-144923129D01*
X109208858Y-144898712D01*
X109227424Y-144898777D01*
X109249306Y-144900500D01*
X109249314Y-144900500D01*
X109680686Y-144900500D01*
X109680694Y-144900500D01*
X109717569Y-144897598D01*
X109717571Y-144897597D01*
X109717573Y-144897597D01*
X109759191Y-144885505D01*
X109875398Y-144851744D01*
X110016865Y-144768081D01*
X110016870Y-144768075D01*
X110023031Y-144763298D01*
X110024933Y-144765750D01*
X110041875Y-144756488D01*
X110071144Y-144739712D01*
X110072439Y-144739777D01*
X110073579Y-144739155D01*
X110107241Y-144741545D01*
G37*
%TD.AperFunction*%
%TA.AperFunction,Conductor*%
G36*
X117893039Y-132569685D02*
G01*
X117938794Y-132622489D01*
X117950000Y-132674000D01*
X117950000Y-133400000D01*
X118397828Y-133400000D01*
X118397844Y-133399999D01*
X118457372Y-133393598D01*
X118457379Y-133393596D01*
X118592086Y-133343354D01*
X118592093Y-133343350D01*
X118707187Y-133257190D01*
X118707190Y-133257187D01*
X118776234Y-133164958D01*
X118832168Y-133123087D01*
X118901859Y-133118103D01*
X118963182Y-133151589D01*
X118996666Y-133212912D01*
X118999500Y-133239269D01*
X118999500Y-147206564D01*
X118979815Y-147273603D01*
X118927011Y-147319358D01*
X118857853Y-147329302D01*
X118794297Y-147300277D01*
X118772399Y-147275456D01*
X118760628Y-147257840D01*
X118760623Y-147257834D01*
X118642162Y-147139373D01*
X118502860Y-147046295D01*
X118348082Y-146982184D01*
X118348074Y-146982182D01*
X118202781Y-146953281D01*
X118140870Y-146920896D01*
X118139291Y-146919345D01*
X116114674Y-144894727D01*
X116114673Y-144894726D01*
X116114669Y-144894723D01*
X116008127Y-144823535D01*
X115986732Y-144814673D01*
X115889744Y-144774499D01*
X115889738Y-144774497D01*
X115764071Y-144749500D01*
X115764069Y-144749500D01*
X112832735Y-144749500D01*
X112765696Y-144729815D01*
X112719941Y-144677011D01*
X112709997Y-144607853D01*
X112726002Y-144562380D01*
X112756744Y-144510398D01*
X112802598Y-144352569D01*
X112805500Y-144315694D01*
X112805500Y-144299500D01*
X112825185Y-144232461D01*
X112877989Y-144186706D01*
X112929500Y-144175500D01*
X112948920Y-144175500D01*
X113046462Y-144156096D01*
X113093913Y-144146658D01*
X113199547Y-144102902D01*
X113230488Y-144090087D01*
X113230488Y-144090086D01*
X113230495Y-144090084D01*
X113289735Y-144050501D01*
X113353416Y-144007952D01*
X113922909Y-143438456D01*
X113963130Y-143411582D01*
X114102863Y-143353703D01*
X114242162Y-143260626D01*
X114360626Y-143142162D01*
X114453703Y-143002863D01*
X114517816Y-142848082D01*
X114550500Y-142683767D01*
X114550500Y-142674500D01*
X114570185Y-142607461D01*
X114622989Y-142561706D01*
X114674500Y-142550500D01*
X116193057Y-142550500D01*
X116260096Y-142570185D01*
X116265942Y-142574182D01*
X116309851Y-142606083D01*
X116318390Y-142612287D01*
X116434607Y-142671503D01*
X116500776Y-142705218D01*
X116500778Y-142705218D01*
X116500781Y-142705220D01*
X116605137Y-142739127D01*
X116695465Y-142768477D01*
X116796557Y-142784488D01*
X116897648Y-142800500D01*
X116897649Y-142800500D01*
X117102351Y-142800500D01*
X117102352Y-142800500D01*
X117304534Y-142768477D01*
X117499219Y-142705220D01*
X117681610Y-142612287D01*
X117774590Y-142544732D01*
X117847213Y-142491971D01*
X117847215Y-142491968D01*
X117847219Y-142491966D01*
X117991966Y-142347219D01*
X117991968Y-142347215D01*
X117991971Y-142347213D01*
X118089158Y-142213444D01*
X118112287Y-142181610D01*
X118205220Y-141999219D01*
X118268477Y-141804534D01*
X118300500Y-141602352D01*
X118300500Y-141397648D01*
X118289073Y-141325500D01*
X118268477Y-141195465D01*
X118239127Y-141105137D01*
X118205220Y-141000781D01*
X118205218Y-141000778D01*
X118205218Y-141000776D01*
X118171503Y-140934607D01*
X118112287Y-140818390D01*
X118104556Y-140807749D01*
X117991971Y-140652786D01*
X117847213Y-140508028D01*
X117681613Y-140387715D01*
X117681612Y-140387714D01*
X117681610Y-140387713D01*
X117624653Y-140358691D01*
X117499223Y-140294781D01*
X117304534Y-140231522D01*
X117129995Y-140203878D01*
X117102352Y-140199500D01*
X116897648Y-140199500D01*
X116873329Y-140203351D01*
X116695465Y-140231522D01*
X116500776Y-140294781D01*
X116318386Y-140387715D01*
X116152786Y-140508028D01*
X116008028Y-140652786D01*
X115887715Y-140818386D01*
X115794781Y-141000778D01*
X115741806Y-141163818D01*
X115702368Y-141221494D01*
X115638010Y-141248692D01*
X115623875Y-141249500D01*
X113416919Y-141249500D01*
X113349880Y-141229815D01*
X113304125Y-141177011D01*
X113294181Y-141107853D01*
X113323206Y-141044297D01*
X113344032Y-141025183D01*
X113363505Y-141011035D01*
X113511035Y-140863505D01*
X113633670Y-140694714D01*
X113728389Y-140508816D01*
X113792862Y-140310389D01*
X113805353Y-140231523D01*
X113825500Y-140104324D01*
X113825500Y-139895675D01*
X113792862Y-139689610D01*
X113728387Y-139491179D01*
X113662470Y-139361809D01*
X113633670Y-139305286D01*
X113511035Y-139136495D01*
X113363505Y-138988965D01*
X113194714Y-138866330D01*
X113008820Y-138771612D01*
X112810389Y-138707137D01*
X112604324Y-138674500D01*
X112604319Y-138674500D01*
X112395681Y-138674500D01*
X112395676Y-138674500D01*
X112189610Y-138707137D01*
X111991179Y-138771612D01*
X111805285Y-138866330D01*
X111636493Y-138988966D01*
X111488966Y-139136493D01*
X111366330Y-139305286D01*
X111360484Y-139316759D01*
X111312508Y-139367554D01*
X111244687Y-139384348D01*
X111178553Y-139361809D01*
X111139516Y-139316759D01*
X111138303Y-139314380D01*
X111133670Y-139305286D01*
X111011035Y-139136495D01*
X110863505Y-138988965D01*
X110694714Y-138866330D01*
X110508820Y-138771612D01*
X110310389Y-138707137D01*
X110104324Y-138674500D01*
X110104319Y-138674500D01*
X109895681Y-138674500D01*
X109895676Y-138674500D01*
X109689610Y-138707137D01*
X109491179Y-138771612D01*
X109305285Y-138866330D01*
X109136493Y-138988966D01*
X108988966Y-139136493D01*
X108866330Y-139305285D01*
X108771612Y-139491179D01*
X108707137Y-139689610D01*
X108674500Y-139895675D01*
X108674500Y-140104324D01*
X108707137Y-140310389D01*
X108771612Y-140508820D01*
X108844964Y-140652781D01*
X108866330Y-140694714D01*
X108988965Y-140863505D01*
X109136495Y-141011035D01*
X109305286Y-141133670D01*
X109390348Y-141177011D01*
X109491179Y-141228387D01*
X109491181Y-141228387D01*
X109491184Y-141228389D01*
X109556157Y-141249500D01*
X109689610Y-141292862D01*
X109895676Y-141325500D01*
X109895681Y-141325500D01*
X110104324Y-141325500D01*
X110310389Y-141292862D01*
X110366904Y-141274499D01*
X110508816Y-141228389D01*
X110694714Y-141133670D01*
X110863505Y-141011035D01*
X111011035Y-140863505D01*
X111133670Y-140694714D01*
X111139515Y-140683243D01*
X111187489Y-140632447D01*
X111255310Y-140615651D01*
X111321445Y-140638188D01*
X111360485Y-140683243D01*
X111366328Y-140694712D01*
X111488966Y-140863506D01*
X111636495Y-141011035D01*
X111655968Y-141025183D01*
X111698633Y-141080513D01*
X111704611Y-141150127D01*
X111672004Y-141211921D01*
X111611165Y-141246278D01*
X111583081Y-141249500D01*
X111220930Y-141249500D01*
X111095262Y-141274497D01*
X111095256Y-141274499D01*
X110976875Y-141323534D01*
X110870327Y-141394726D01*
X110870326Y-141394727D01*
X110229729Y-142035325D01*
X110229726Y-142035327D01*
X110224373Y-142043339D01*
X110220249Y-142047600D01*
X110218984Y-142050789D01*
X110206829Y-142061466D01*
X110193516Y-142075224D01*
X110189086Y-142078399D01*
X110183135Y-142081919D01*
X110180500Y-142084553D01*
X110172241Y-142090474D01*
X110148435Y-142098796D01*
X110126296Y-142110871D01*
X110116016Y-142110130D01*
X110106286Y-142113532D01*
X110081756Y-142107661D01*
X110056607Y-142105850D01*
X110046187Y-142099150D01*
X110038335Y-142097271D01*
X110030394Y-142088994D01*
X110024294Y-142085072D01*
X110023031Y-142086702D01*
X110016862Y-142081917D01*
X109875396Y-141998255D01*
X109875393Y-141998254D01*
X109717573Y-141952402D01*
X109717567Y-141952401D01*
X109680701Y-141949500D01*
X109680694Y-141949500D01*
X109249306Y-141949500D01*
X109249298Y-141949500D01*
X109212432Y-141952401D01*
X109212426Y-141952402D01*
X109054606Y-141998254D01*
X109054603Y-141998255D01*
X108913137Y-142081917D01*
X108906969Y-142086702D01*
X108905072Y-142084256D01*
X108856358Y-142110857D01*
X108786666Y-142105873D01*
X108754296Y-142085069D01*
X108753031Y-142086702D01*
X108746862Y-142081917D01*
X108605396Y-141998255D01*
X108605393Y-141998254D01*
X108447573Y-141952402D01*
X108447567Y-141952401D01*
X108410701Y-141949500D01*
X108410694Y-141949500D01*
X107979306Y-141949500D01*
X107979298Y-141949500D01*
X107942432Y-141952401D01*
X107942426Y-141952402D01*
X107784606Y-141998254D01*
X107784603Y-141998255D01*
X107643137Y-142081917D01*
X107643129Y-142081923D01*
X107526923Y-142198129D01*
X107526919Y-142198135D01*
X107506162Y-142233233D01*
X107455092Y-142280916D01*
X107386350Y-142293419D01*
X107321761Y-142266773D01*
X107283248Y-142213444D01*
X107243797Y-142107671D01*
X107243793Y-142107664D01*
X107157547Y-141992455D01*
X107157544Y-141992452D01*
X107042335Y-141906206D01*
X107042328Y-141906202D01*
X106907482Y-141855908D01*
X106907483Y-141855908D01*
X106847883Y-141849501D01*
X106847881Y-141849500D01*
X106847873Y-141849500D01*
X106847864Y-141849500D01*
X105752129Y-141849500D01*
X105752123Y-141849501D01*
X105692516Y-141855908D01*
X105557671Y-141906202D01*
X105557664Y-141906206D01*
X105442455Y-141992452D01*
X105442452Y-141992455D01*
X105356206Y-142107664D01*
X105356202Y-142107671D01*
X105305908Y-142242517D01*
X105299501Y-142302116D01*
X105299500Y-142302135D01*
X105299500Y-143397870D01*
X105299501Y-143397876D01*
X105305908Y-143457483D01*
X105356202Y-143592328D01*
X105356203Y-143592330D01*
X105381176Y-143625690D01*
X105405592Y-143691155D01*
X105390740Y-143759428D01*
X105381176Y-143774310D01*
X105356203Y-143807669D01*
X105356202Y-143807671D01*
X105305908Y-143942517D01*
X105299501Y-144002116D01*
X105299500Y-144002135D01*
X105299500Y-144025500D01*
X105279815Y-144092539D01*
X105227011Y-144138294D01*
X105175500Y-144149500D01*
X102908231Y-144149500D01*
X102841192Y-144129815D01*
X102833920Y-144124767D01*
X102742331Y-144056204D01*
X102742328Y-144056202D01*
X102607482Y-144005908D01*
X102607483Y-144005908D01*
X102547883Y-143999501D01*
X102547881Y-143999500D01*
X102547873Y-143999500D01*
X102547864Y-143999500D01*
X101452129Y-143999500D01*
X101452123Y-143999501D01*
X101392516Y-144005908D01*
X101257671Y-144056202D01*
X101257668Y-144056204D01*
X101198811Y-144100265D01*
X101133347Y-144124682D01*
X101065074Y-144109830D01*
X101015668Y-144060425D01*
X101000500Y-144000998D01*
X101000500Y-141397648D01*
X101699500Y-141397648D01*
X101699500Y-141602351D01*
X101731522Y-141804534D01*
X101794781Y-141999223D01*
X101850038Y-142107669D01*
X101879277Y-142165054D01*
X101887715Y-142181613D01*
X102008028Y-142347213D01*
X102152786Y-142491971D01*
X102307749Y-142604556D01*
X102318390Y-142612287D01*
X102434607Y-142671503D01*
X102500776Y-142705218D01*
X102500778Y-142705218D01*
X102500781Y-142705220D01*
X102605137Y-142739127D01*
X102695465Y-142768477D01*
X102796557Y-142784488D01*
X102897648Y-142800500D01*
X102897649Y-142800500D01*
X103102351Y-142800500D01*
X103102352Y-142800500D01*
X103304534Y-142768477D01*
X103499219Y-142705220D01*
X103681610Y-142612287D01*
X103774590Y-142544732D01*
X103847213Y-142491971D01*
X103847215Y-142491968D01*
X103847219Y-142491966D01*
X103991966Y-142347219D01*
X103991968Y-142347215D01*
X103991971Y-142347213D01*
X104089158Y-142213444D01*
X104112287Y-142181610D01*
X104205220Y-141999219D01*
X104268477Y-141804534D01*
X104300500Y-141602352D01*
X104300500Y-141397648D01*
X104289073Y-141325500D01*
X104268477Y-141195465D01*
X104239127Y-141105137D01*
X104205220Y-141000781D01*
X104205218Y-141000778D01*
X104205218Y-141000776D01*
X104171503Y-140934607D01*
X104112287Y-140818390D01*
X104104556Y-140807749D01*
X103991971Y-140652786D01*
X103847213Y-140508028D01*
X103681613Y-140387715D01*
X103681612Y-140387714D01*
X103681610Y-140387713D01*
X103624653Y-140358691D01*
X103499223Y-140294781D01*
X103304534Y-140231522D01*
X103129995Y-140203878D01*
X103102352Y-140199500D01*
X102897648Y-140199500D01*
X102873329Y-140203351D01*
X102695465Y-140231522D01*
X102500776Y-140294781D01*
X102318386Y-140387715D01*
X102152786Y-140508028D01*
X102008028Y-140652786D01*
X101887715Y-140818386D01*
X101794781Y-141000776D01*
X101731522Y-141195465D01*
X101699500Y-141397648D01*
X101000500Y-141397648D01*
X101000500Y-136397682D01*
X101700000Y-136397682D01*
X101700000Y-136602317D01*
X101732009Y-136804417D01*
X101795244Y-136999031D01*
X101888141Y-137181350D01*
X101888147Y-137181359D01*
X101920523Y-137225921D01*
X101920524Y-137225922D01*
X102600000Y-136546446D01*
X102600000Y-136552661D01*
X102627259Y-136654394D01*
X102679920Y-136745606D01*
X102754394Y-136820080D01*
X102845606Y-136872741D01*
X102947339Y-136900000D01*
X102953553Y-136900000D01*
X102274076Y-137579474D01*
X102318650Y-137611859D01*
X102500968Y-137704755D01*
X102695582Y-137767990D01*
X102897683Y-137800000D01*
X103102317Y-137800000D01*
X103304417Y-137767990D01*
X103499031Y-137704755D01*
X103681349Y-137611859D01*
X103725921Y-137579474D01*
X103046447Y-136900000D01*
X103052661Y-136900000D01*
X103154394Y-136872741D01*
X103245606Y-136820080D01*
X103320080Y-136745606D01*
X103372741Y-136654394D01*
X103400000Y-136552661D01*
X103400000Y-136546447D01*
X104079474Y-137225921D01*
X104111859Y-137181349D01*
X104204755Y-136999031D01*
X104267990Y-136804417D01*
X104300000Y-136602317D01*
X104300000Y-136397682D01*
X104267990Y-136195582D01*
X104204755Y-136000968D01*
X104111859Y-135818650D01*
X104079474Y-135774077D01*
X104079474Y-135774076D01*
X103400000Y-136453551D01*
X103400000Y-136447339D01*
X103372741Y-136345606D01*
X103320080Y-136254394D01*
X103245606Y-136179920D01*
X103154394Y-136127259D01*
X103052661Y-136100000D01*
X103046446Y-136100000D01*
X103725922Y-135420524D01*
X103725921Y-135420523D01*
X103681359Y-135388147D01*
X103681350Y-135388141D01*
X103499031Y-135295244D01*
X103304417Y-135232009D01*
X103102317Y-135200000D01*
X102897683Y-135200000D01*
X102695582Y-135232009D01*
X102500968Y-135295244D01*
X102318644Y-135388143D01*
X102274077Y-135420523D01*
X102274077Y-135420524D01*
X102953554Y-136100000D01*
X102947339Y-136100000D01*
X102845606Y-136127259D01*
X102754394Y-136179920D01*
X102679920Y-136254394D01*
X102627259Y-136345606D01*
X102600000Y-136447339D01*
X102600000Y-136453553D01*
X101920524Y-135774077D01*
X101920523Y-135774077D01*
X101888143Y-135818644D01*
X101795244Y-136000968D01*
X101732009Y-136195582D01*
X101700000Y-136397682D01*
X101000500Y-136397682D01*
X101000500Y-133639269D01*
X101020185Y-133572230D01*
X101072989Y-133526475D01*
X101142147Y-133516531D01*
X101205703Y-133545556D01*
X101223766Y-133564958D01*
X101292809Y-133657187D01*
X101292812Y-133657190D01*
X101407906Y-133743350D01*
X101407913Y-133743354D01*
X101542620Y-133793596D01*
X101542627Y-133793598D01*
X101602155Y-133799999D01*
X101602172Y-133800000D01*
X102050000Y-133800000D01*
X102050000Y-133074000D01*
X102069685Y-133006961D01*
X102122489Y-132961206D01*
X102174000Y-132950000D01*
X102426000Y-132950000D01*
X102493039Y-132969685D01*
X102538794Y-133022489D01*
X102550000Y-133074000D01*
X102550000Y-133800000D01*
X102997828Y-133800000D01*
X102997844Y-133799999D01*
X103057372Y-133793598D01*
X103057379Y-133793596D01*
X103192086Y-133743354D01*
X103192090Y-133743352D01*
X103243187Y-133705100D01*
X103308651Y-133680681D01*
X103376924Y-133695531D01*
X103426331Y-133744936D01*
X103441500Y-133804365D01*
X103441500Y-134605870D01*
X103441501Y-134605876D01*
X103447908Y-134665483D01*
X103498202Y-134800328D01*
X103498206Y-134800335D01*
X103584452Y-134915544D01*
X103584455Y-134915547D01*
X103699664Y-135001793D01*
X103699671Y-135001797D01*
X103834517Y-135052091D01*
X103834516Y-135052091D01*
X103841444Y-135052835D01*
X103894127Y-135058500D01*
X107105872Y-135058499D01*
X107165483Y-135052091D01*
X107300331Y-135001796D01*
X107415546Y-134915546D01*
X107453355Y-134865038D01*
X107509288Y-134823169D01*
X107578980Y-134818185D01*
X107640302Y-134851670D01*
X108389642Y-135601010D01*
X108423127Y-135662333D01*
X108418143Y-135732025D01*
X108376271Y-135787958D01*
X108345294Y-135804873D01*
X108207671Y-135856202D01*
X108207664Y-135856206D01*
X108092457Y-135942451D01*
X108092451Y-135942457D01*
X108049515Y-135999812D01*
X108045859Y-136002548D01*
X108043962Y-136006703D01*
X108018144Y-136023294D01*
X107993581Y-136041682D01*
X107987953Y-136042697D01*
X107985184Y-136044477D01*
X107950249Y-136049500D01*
X107735261Y-136049500D01*
X107687808Y-136040061D01*
X107607275Y-136006703D01*
X107548082Y-135982184D01*
X107548074Y-135982182D01*
X107383771Y-135949500D01*
X107383767Y-135949500D01*
X107216233Y-135949500D01*
X107216228Y-135949500D01*
X107051925Y-135982182D01*
X107051917Y-135982184D01*
X106897139Y-136046295D01*
X106757837Y-136139373D01*
X106639373Y-136257837D01*
X106546295Y-136397139D01*
X106482184Y-136551917D01*
X106482182Y-136551925D01*
X106449500Y-136716228D01*
X106449500Y-136883771D01*
X106482182Y-137048074D01*
X106482184Y-137048082D01*
X106546295Y-137202860D01*
X106639373Y-137342162D01*
X106757837Y-137460626D01*
X106800121Y-137488879D01*
X106897137Y-137553703D01*
X106897138Y-137553703D01*
X106897139Y-137553704D01*
X106908264Y-137558312D01*
X107051918Y-137617816D01*
X107216228Y-137650499D01*
X107216232Y-137650500D01*
X107216233Y-137650500D01*
X107383768Y-137650500D01*
X107383769Y-137650499D01*
X107548082Y-137617816D01*
X107687808Y-137559938D01*
X107695985Y-137558312D01*
X107700326Y-137555523D01*
X107735261Y-137550500D01*
X107950249Y-137550500D01*
X108017288Y-137570185D01*
X108049515Y-137600188D01*
X108087179Y-137650499D01*
X108092454Y-137657546D01*
X108092457Y-137657548D01*
X108207664Y-137743793D01*
X108207671Y-137743797D01*
X108342517Y-137794091D01*
X108342516Y-137794091D01*
X108349444Y-137794835D01*
X108402127Y-137800500D01*
X109497872Y-137800499D01*
X109557483Y-137794091D01*
X109692329Y-137743797D01*
X109692329Y-137743796D01*
X109692331Y-137743796D01*
X109725689Y-137718823D01*
X109791151Y-137694406D01*
X109859425Y-137709257D01*
X109874305Y-137718820D01*
X109907669Y-137743796D01*
X109907670Y-137743796D01*
X109907670Y-137743797D01*
X110042517Y-137794091D01*
X110042516Y-137794091D01*
X110049444Y-137794835D01*
X110102127Y-137800500D01*
X111197872Y-137800499D01*
X111257483Y-137794091D01*
X111392331Y-137743796D01*
X111507546Y-137657546D01*
X111593796Y-137542331D01*
X111613732Y-137488881D01*
X111613733Y-137488879D01*
X111644090Y-137407485D01*
X111644091Y-137407483D01*
X111650500Y-137347873D01*
X111650499Y-136397682D01*
X115700000Y-136397682D01*
X115700000Y-136602317D01*
X115732009Y-136804417D01*
X115795244Y-136999031D01*
X115888141Y-137181350D01*
X115888147Y-137181359D01*
X115920523Y-137225921D01*
X115920524Y-137225922D01*
X116600000Y-136546446D01*
X116600000Y-136552661D01*
X116627259Y-136654394D01*
X116679920Y-136745606D01*
X116754394Y-136820080D01*
X116845606Y-136872741D01*
X116947339Y-136900000D01*
X116953553Y-136900000D01*
X116274076Y-137579474D01*
X116318650Y-137611859D01*
X116500968Y-137704755D01*
X116695582Y-137767990D01*
X116897683Y-137800000D01*
X117102317Y-137800000D01*
X117304417Y-137767990D01*
X117499031Y-137704755D01*
X117681349Y-137611859D01*
X117725921Y-137579474D01*
X117046447Y-136900000D01*
X117052661Y-136900000D01*
X117154394Y-136872741D01*
X117245606Y-136820080D01*
X117320080Y-136745606D01*
X117372741Y-136654394D01*
X117400000Y-136552661D01*
X117400000Y-136546447D01*
X118079474Y-137225921D01*
X118111859Y-137181349D01*
X118204755Y-136999031D01*
X118267990Y-136804417D01*
X118300000Y-136602317D01*
X118300000Y-136397682D01*
X118267990Y-136195582D01*
X118204755Y-136000968D01*
X118111859Y-135818650D01*
X118079474Y-135774077D01*
X118079474Y-135774076D01*
X117400000Y-136453551D01*
X117400000Y-136447339D01*
X117372741Y-136345606D01*
X117320080Y-136254394D01*
X117245606Y-136179920D01*
X117154394Y-136127259D01*
X117052661Y-136100000D01*
X117046446Y-136100000D01*
X117725922Y-135420524D01*
X117725921Y-135420523D01*
X117681359Y-135388147D01*
X117681350Y-135388141D01*
X117499031Y-135295244D01*
X117304417Y-135232009D01*
X117102317Y-135200000D01*
X116897683Y-135200000D01*
X116695582Y-135232009D01*
X116500968Y-135295244D01*
X116318644Y-135388143D01*
X116274077Y-135420523D01*
X116274077Y-135420524D01*
X116953554Y-136100000D01*
X116947339Y-136100000D01*
X116845606Y-136127259D01*
X116754394Y-136179920D01*
X116679920Y-136254394D01*
X116627259Y-136345606D01*
X116600000Y-136447339D01*
X116600000Y-136453553D01*
X115920524Y-135774077D01*
X115920523Y-135774077D01*
X115888143Y-135818644D01*
X115795244Y-136000968D01*
X115732009Y-136195582D01*
X115700000Y-136397682D01*
X111650499Y-136397682D01*
X111650499Y-136252128D01*
X111645299Y-136203757D01*
X111644091Y-136192516D01*
X111593797Y-136057671D01*
X111593793Y-136057664D01*
X111507547Y-135942455D01*
X111507544Y-135942452D01*
X111392335Y-135856206D01*
X111392328Y-135856202D01*
X111257482Y-135805908D01*
X111257483Y-135805908D01*
X111197883Y-135799501D01*
X111197881Y-135799500D01*
X111197873Y-135799500D01*
X111197865Y-135799500D01*
X110762230Y-135799500D01*
X110732789Y-135790855D01*
X110702803Y-135784332D01*
X110697787Y-135780577D01*
X110695191Y-135779815D01*
X110674549Y-135763181D01*
X110538094Y-135626726D01*
X110504609Y-135565403D01*
X110509593Y-135495711D01*
X110551465Y-135439778D01*
X110616929Y-135415361D01*
X110649966Y-135417428D01*
X110816228Y-135450499D01*
X110816232Y-135450500D01*
X110816233Y-135450500D01*
X110983768Y-135450500D01*
X110983769Y-135450499D01*
X111148082Y-135417816D01*
X111302863Y-135353703D01*
X111442162Y-135260626D01*
X111560626Y-135142162D01*
X111653703Y-135002863D01*
X111711582Y-134863130D01*
X111738458Y-134822907D01*
X112229821Y-134331544D01*
X112291142Y-134298061D01*
X112360834Y-134303045D01*
X112416767Y-134344917D01*
X112441184Y-134410381D01*
X112441500Y-134419226D01*
X112441500Y-134605869D01*
X112441501Y-134605876D01*
X112447908Y-134665483D01*
X112498202Y-134800328D01*
X112498206Y-134800335D01*
X112584452Y-134915544D01*
X112584455Y-134915547D01*
X112699664Y-135001793D01*
X112699671Y-135001797D01*
X112834517Y-135052091D01*
X112834516Y-135052091D01*
X112841444Y-135052835D01*
X112894127Y-135058500D01*
X116105872Y-135058499D01*
X116165483Y-135052091D01*
X116300331Y-135001796D01*
X116415546Y-134915546D01*
X116501796Y-134800331D01*
X116552091Y-134665483D01*
X116558500Y-134605873D01*
X116558499Y-133404362D01*
X116578184Y-133337326D01*
X116630987Y-133291571D01*
X116700146Y-133281627D01*
X116756811Y-133305099D01*
X116807910Y-133343352D01*
X116807913Y-133343354D01*
X116942620Y-133393596D01*
X116942627Y-133393598D01*
X117002155Y-133399999D01*
X117002172Y-133400000D01*
X117450000Y-133400000D01*
X117450000Y-132674000D01*
X117469685Y-132606961D01*
X117522489Y-132561206D01*
X117574000Y-132550000D01*
X117826000Y-132550000D01*
X117893039Y-132569685D01*
G37*
%TD.AperFunction*%
%TA.AperFunction,Conductor*%
G36*
X109998988Y-131441691D02*
G01*
X109999360Y-131440696D01*
X110007666Y-131443794D01*
X110007669Y-131443796D01*
X110142517Y-131494091D01*
X110202127Y-131500500D01*
X111325500Y-131500499D01*
X111392539Y-131520184D01*
X111438294Y-131572987D01*
X111449500Y-131624499D01*
X111449500Y-132937770D01*
X111429815Y-133004809D01*
X111413181Y-133025451D01*
X110677092Y-133761539D01*
X110636864Y-133788419D01*
X110497139Y-133846295D01*
X110357837Y-133939373D01*
X110239373Y-134057837D01*
X110146295Y-134197139D01*
X110082184Y-134351917D01*
X110082182Y-134351925D01*
X110049500Y-134516228D01*
X110049500Y-134683771D01*
X110082571Y-134850033D01*
X110076344Y-134919625D01*
X110033480Y-134974802D01*
X109967590Y-134998046D01*
X109899594Y-134981978D01*
X109873273Y-134961905D01*
X108486819Y-133575451D01*
X108453334Y-133514128D01*
X108450500Y-133487770D01*
X108450500Y-131624499D01*
X108470185Y-131557460D01*
X108522989Y-131511705D01*
X108574500Y-131500499D01*
X109697871Y-131500499D01*
X109697872Y-131500499D01*
X109757483Y-131494091D01*
X109892331Y-131443796D01*
X109892333Y-131443794D01*
X109900640Y-131440696D01*
X109901285Y-131442426D01*
X109958837Y-131429902D01*
X109998988Y-131441691D01*
G37*
%TD.AperFunction*%
%TA.AperFunction,Conductor*%
G36*
X109526619Y-115696081D02*
G01*
X109593498Y-115811920D01*
X109688080Y-115906502D01*
X109803919Y-115973381D01*
X109864057Y-115989494D01*
X109173991Y-116679559D01*
X109245379Y-116731426D01*
X109447311Y-116834316D01*
X109662842Y-116904346D01*
X109886686Y-116939800D01*
X110113314Y-116939800D01*
X110337155Y-116904346D01*
X110337158Y-116904346D01*
X110552688Y-116834316D01*
X110754620Y-116731426D01*
X110826006Y-116679559D01*
X110135942Y-115989495D01*
X110196081Y-115973381D01*
X110311920Y-115906502D01*
X110406502Y-115811920D01*
X110473381Y-115696081D01*
X110489494Y-115635942D01*
X111197106Y-116343554D01*
X111199908Y-116344143D01*
X111213993Y-116358025D01*
X111231108Y-116367932D01*
X111247395Y-116390947D01*
X111249670Y-116393189D01*
X111251549Y-116396704D01*
X111257290Y-116407870D01*
X111257320Y-116408030D01*
X111257322Y-116408033D01*
X111257321Y-116408033D01*
X111257392Y-116408402D01*
X111257485Y-116408355D01*
X111308573Y-116508620D01*
X111360439Y-116580006D01*
X111360439Y-116580007D01*
X112050504Y-115889941D01*
X112066619Y-115950081D01*
X112133498Y-116065920D01*
X112228080Y-116160502D01*
X112343919Y-116227381D01*
X112404057Y-116243494D01*
X111713991Y-116933559D01*
X111785379Y-116985426D01*
X111987314Y-117088317D01*
X111987312Y-117088317D01*
X112090952Y-117121991D01*
X112148628Y-117161428D01*
X112175827Y-117225786D01*
X112163913Y-117294633D01*
X112140316Y-117327603D01*
X110979411Y-118488510D01*
X110979401Y-118488520D01*
X110977211Y-118490711D01*
X110865711Y-118602211D01*
X110835057Y-118648087D01*
X110828958Y-118654830D01*
X110806604Y-118668529D01*
X110786489Y-118685341D01*
X110777290Y-118686496D01*
X110769386Y-118691341D01*
X110743174Y-118690781D01*
X110717164Y-118694048D01*
X110708801Y-118690046D01*
X110699533Y-118689849D01*
X110677787Y-118675208D01*
X110654136Y-118663893D01*
X110649263Y-118656005D01*
X110641574Y-118650828D01*
X110631194Y-118626752D01*
X110617418Y-118604449D01*
X110615527Y-118590411D01*
X110613913Y-118586667D01*
X110614525Y-118582970D01*
X110613000Y-118571645D01*
X110613000Y-118533658D01*
X110608174Y-118509394D01*
X110608174Y-118509392D01*
X110608174Y-118509391D01*
X110590749Y-118421790D01*
X110582238Y-118379003D01*
X110521894Y-118233321D01*
X110521892Y-118233318D01*
X110521890Y-118233314D01*
X110434289Y-118102211D01*
X110434286Y-118102207D01*
X109510292Y-117178213D01*
X109510288Y-117178210D01*
X109379185Y-117090609D01*
X109379172Y-117090602D01*
X109233501Y-117030264D01*
X109233489Y-117030261D01*
X109078845Y-116999500D01*
X109078842Y-116999500D01*
X108403310Y-116999500D01*
X108336271Y-116979815D01*
X108315629Y-116963181D01*
X107595942Y-116243495D01*
X107656081Y-116227381D01*
X107771920Y-116160502D01*
X107866502Y-116065920D01*
X107933381Y-115950081D01*
X107949494Y-115889942D01*
X108639559Y-116580007D01*
X108639560Y-116580006D01*
X108650918Y-116564374D01*
X108744546Y-116404363D01*
X108748238Y-116397117D01*
X108751635Y-116393519D01*
X108752755Y-116391563D01*
X108752932Y-116391320D01*
X108753394Y-116391656D01*
X108796208Y-116346317D01*
X108801421Y-116345025D01*
X109510504Y-115635941D01*
X109526619Y-115696081D01*
G37*
%TD.AperFunction*%
%TA.AperFunction,Conductor*%
G36*
X106986619Y-115950081D02*
G01*
X107053498Y-116065920D01*
X107148080Y-116160502D01*
X107263919Y-116227381D01*
X107324057Y-116243494D01*
X106604370Y-116963181D01*
X106543047Y-116996666D01*
X106516689Y-116999500D01*
X106182940Y-116999500D01*
X106115901Y-116979815D01*
X106095259Y-116963181D01*
X105882166Y-116750088D01*
X105877827Y-116742142D01*
X105870580Y-116736717D01*
X105861345Y-116711957D01*
X105848681Y-116688765D01*
X105849326Y-116679735D01*
X105846163Y-116671253D01*
X105851779Y-116645432D01*
X105853665Y-116619073D01*
X105859483Y-116610019D01*
X105861015Y-116602980D01*
X105882163Y-116574729D01*
X106013279Y-116443613D01*
X106074600Y-116410130D01*
X106144292Y-116415114D01*
X106200225Y-116456986D01*
X106211442Y-116475000D01*
X106228571Y-116508617D01*
X106280439Y-116580006D01*
X106280439Y-116580007D01*
X106970504Y-115889941D01*
X106986619Y-115950081D01*
G37*
%TD.AperFunction*%
%TA.AperFunction,Conductor*%
G36*
X111197106Y-113803554D02*
G01*
X111199908Y-113804143D01*
X111213993Y-113818025D01*
X111231108Y-113827932D01*
X111247395Y-113850947D01*
X111249670Y-113853189D01*
X111251549Y-113856704D01*
X111257290Y-113867870D01*
X111257320Y-113868030D01*
X111257322Y-113868033D01*
X111257321Y-113868033D01*
X111257392Y-113868402D01*
X111257485Y-113868355D01*
X111308573Y-113968620D01*
X111360439Y-114040006D01*
X111360439Y-114040007D01*
X112050504Y-113349941D01*
X112066619Y-113410081D01*
X112133498Y-113525920D01*
X112228080Y-113620502D01*
X112343919Y-113687381D01*
X112404057Y-113703494D01*
X111713991Y-114393559D01*
X111714671Y-114402196D01*
X111743060Y-114439012D01*
X111749039Y-114508625D01*
X111716433Y-114570420D01*
X111714152Y-114572395D01*
X111713991Y-114574439D01*
X112404057Y-115264504D01*
X112343919Y-115280619D01*
X112228080Y-115347498D01*
X112133498Y-115442080D01*
X112066619Y-115557919D01*
X112050504Y-115618058D01*
X111342878Y-114910432D01*
X111340067Y-114909841D01*
X111326000Y-114895970D01*
X111308902Y-114886077D01*
X111292576Y-114863013D01*
X111290316Y-114860784D01*
X111288457Y-114857308D01*
X111282714Y-114846142D01*
X111282682Y-114845977D01*
X111282679Y-114845971D01*
X111282681Y-114845969D01*
X111282608Y-114845591D01*
X111282512Y-114845641D01*
X111231428Y-114745381D01*
X111179559Y-114673992D01*
X111179559Y-114673991D01*
X110489494Y-115364056D01*
X110473381Y-115303919D01*
X110406502Y-115188080D01*
X110311920Y-115093498D01*
X110196081Y-115026619D01*
X110135940Y-115010504D01*
X110815906Y-114330540D01*
X110795210Y-114270272D01*
X110793740Y-114237768D01*
X110790958Y-114205374D01*
X110792171Y-114203074D01*
X110792054Y-114200474D01*
X110808390Y-114172334D01*
X110823564Y-114143579D01*
X110825846Y-114141601D01*
X110826006Y-114139559D01*
X110135942Y-113449495D01*
X110196081Y-113433381D01*
X110311920Y-113366502D01*
X110406502Y-113271920D01*
X110473381Y-113156081D01*
X110489494Y-113095942D01*
X111197106Y-113803554D01*
G37*
%TD.AperFunction*%
%TA.AperFunction,Conductor*%
G36*
X113719559Y-114040007D02*
G01*
X113719559Y-114040006D01*
X113771428Y-113968618D01*
X113771431Y-113968613D01*
X113788556Y-113935003D01*
X113836529Y-113884206D01*
X113904350Y-113867410D01*
X113970485Y-113889946D01*
X113986722Y-113903615D01*
X114141707Y-114058600D01*
X114239543Y-114129681D01*
X114282208Y-114185010D01*
X114288187Y-114254623D01*
X114255582Y-114316419D01*
X114239543Y-114330317D01*
X114141708Y-114401398D01*
X113981398Y-114561708D01*
X113981394Y-114561713D01*
X113848144Y-114745118D01*
X113848143Y-114745119D01*
X113791214Y-114856848D01*
X113743240Y-114907644D01*
X113738811Y-114908740D01*
X113029495Y-115618058D01*
X113013381Y-115557919D01*
X112946502Y-115442080D01*
X112851920Y-115347498D01*
X112736081Y-115280619D01*
X112675940Y-115264504D01*
X113366007Y-114574439D01*
X113365327Y-114565804D01*
X113336937Y-114528987D01*
X113330958Y-114459374D01*
X113363564Y-114397579D01*
X113365846Y-114395601D01*
X113366006Y-114393559D01*
X112675942Y-113703495D01*
X112736081Y-113687381D01*
X112851920Y-113620502D01*
X112946502Y-113525920D01*
X113013381Y-113410081D01*
X113029494Y-113349942D01*
X113719559Y-114040007D01*
G37*
%TD.AperFunction*%
%TA.AperFunction,Conductor*%
G36*
X106986619Y-113410081D02*
G01*
X107053498Y-113525920D01*
X107148080Y-113620502D01*
X107263919Y-113687381D01*
X107324057Y-113703494D01*
X106633991Y-114393559D01*
X106634671Y-114402196D01*
X106663060Y-114439012D01*
X106669039Y-114508625D01*
X106636433Y-114570420D01*
X106634152Y-114572395D01*
X106633991Y-114574439D01*
X107324057Y-115264504D01*
X107263919Y-115280619D01*
X107148080Y-115347498D01*
X107053498Y-115442080D01*
X106986619Y-115557919D01*
X106970504Y-115618057D01*
X106262686Y-114910239D01*
X106260615Y-114909804D01*
X106210861Y-114860750D01*
X106208784Y-114856848D01*
X106203327Y-114846139D01*
X106151855Y-114745118D01*
X106151853Y-114745115D01*
X106151852Y-114745113D01*
X106018605Y-114561713D01*
X106018601Y-114561708D01*
X105895539Y-114438646D01*
X105858293Y-114401400D01*
X105769085Y-114336587D01*
X105766622Y-114334599D01*
X105748437Y-114308367D01*
X105728949Y-114283094D01*
X105728217Y-114279198D01*
X105726816Y-114277177D01*
X105726582Y-114270492D01*
X105720500Y-114238106D01*
X105720500Y-114221893D01*
X105724417Y-114208553D01*
X105724375Y-114207350D01*
X105725156Y-114206035D01*
X105740185Y-114154854D01*
X105771615Y-114121575D01*
X105816332Y-114089085D01*
X105858293Y-114058600D01*
X106013280Y-113903612D01*
X106074600Y-113870130D01*
X106144291Y-113875114D01*
X106200225Y-113916985D01*
X106211442Y-113935000D01*
X106228571Y-113968617D01*
X106280439Y-114040006D01*
X106280439Y-114040007D01*
X106970504Y-113349941D01*
X106986619Y-113410081D01*
G37*
%TD.AperFunction*%
%TA.AperFunction,Conductor*%
G36*
X109526619Y-113156081D02*
G01*
X109593498Y-113271920D01*
X109688080Y-113366502D01*
X109803919Y-113433381D01*
X109864057Y-113449494D01*
X109186064Y-114127486D01*
X109206206Y-114194123D01*
X109206759Y-114263990D01*
X109174402Y-114315227D01*
X109173991Y-114320439D01*
X109864057Y-115010504D01*
X109803919Y-115026619D01*
X109688080Y-115093498D01*
X109593498Y-115188080D01*
X109526619Y-115303919D01*
X109510504Y-115364057D01*
X108820439Y-114673991D01*
X108820438Y-114673992D01*
X108768574Y-114745376D01*
X108768572Y-114745380D01*
X108718217Y-114844207D01*
X108717285Y-114846139D01*
X108711542Y-114857306D01*
X108707298Y-114861765D01*
X108707581Y-114861969D01*
X108707405Y-114862213D01*
X108707089Y-114861985D01*
X108687533Y-114882535D01*
X108663769Y-114907692D01*
X108663539Y-114907748D01*
X108663376Y-114907921D01*
X108658424Y-114909127D01*
X107949494Y-115618057D01*
X107933381Y-115557919D01*
X107866502Y-115442080D01*
X107771920Y-115347498D01*
X107656081Y-115280619D01*
X107595940Y-115264504D01*
X108286007Y-114574439D01*
X108285327Y-114565804D01*
X108256937Y-114528987D01*
X108250958Y-114459374D01*
X108283564Y-114397579D01*
X108285846Y-114395601D01*
X108286006Y-114393559D01*
X107595942Y-113703495D01*
X107656081Y-113687381D01*
X107771920Y-113620502D01*
X107866502Y-113525920D01*
X107933381Y-113410081D01*
X107949494Y-113349942D01*
X108639559Y-114040007D01*
X108639560Y-114040006D01*
X108650918Y-114024374D01*
X108744546Y-113864363D01*
X108748238Y-113857117D01*
X108751635Y-113853519D01*
X108752755Y-113851563D01*
X108752932Y-113851320D01*
X108753394Y-113851656D01*
X108796208Y-113806317D01*
X108801421Y-113805025D01*
X109510504Y-113095941D01*
X109526619Y-113156081D01*
G37*
%TD.AperFunction*%
%TA.AperFunction,Conductor*%
G36*
X118942539Y-110770185D02*
G01*
X118988294Y-110822989D01*
X118999500Y-110874500D01*
X118999500Y-129959897D01*
X118979815Y-130026936D01*
X118927011Y-130072691D01*
X118857853Y-130082635D01*
X118794297Y-130053610D01*
X118776234Y-130034208D01*
X118707547Y-129942455D01*
X118707544Y-129942452D01*
X118592335Y-129856206D01*
X118592328Y-129856202D01*
X118457482Y-129805908D01*
X118457483Y-129805908D01*
X118397883Y-129799501D01*
X118397881Y-129799500D01*
X118397873Y-129799500D01*
X118397865Y-129799500D01*
X118085567Y-129799500D01*
X118060207Y-129792053D01*
X118034045Y-129788289D01*
X118022824Y-129781076D01*
X118018528Y-129779815D01*
X118004355Y-129769205D01*
X117989514Y-129756343D01*
X117843890Y-129630134D01*
X117806122Y-129571353D01*
X117806129Y-129501484D01*
X117822258Y-129467156D01*
X117976651Y-129237955D01*
X117991812Y-129219555D01*
X117992712Y-129218656D01*
X118084814Y-129069334D01*
X118139999Y-128902797D01*
X118150500Y-128800009D01*
X118150499Y-125699992D01*
X118139999Y-125597203D01*
X118084814Y-125430666D01*
X117992712Y-125281344D01*
X117868656Y-125157288D01*
X117719334Y-125065186D01*
X117552797Y-125010001D01*
X117552795Y-125010000D01*
X117450010Y-124999500D01*
X116049998Y-124999500D01*
X116049981Y-124999501D01*
X115947203Y-125010000D01*
X115947200Y-125010001D01*
X115780668Y-125065185D01*
X115780663Y-125065187D01*
X115631342Y-125157289D01*
X115507289Y-125281342D01*
X115415187Y-125430663D01*
X115415185Y-125430668D01*
X115360001Y-125597204D01*
X115360000Y-125597205D01*
X115349569Y-125699313D01*
X115323173Y-125764004D01*
X115276865Y-125799892D01*
X114970938Y-125936809D01*
X114901706Y-125946227D01*
X114871358Y-125937567D01*
X114395484Y-125733226D01*
X114341650Y-125688687D01*
X114320442Y-125622114D01*
X114338593Y-125554643D01*
X114366721Y-125522640D01*
X114397722Y-125497722D01*
X114517030Y-125349296D01*
X114601641Y-125178693D01*
X114647600Y-124993889D01*
X114650500Y-124951123D01*
X114650499Y-124048878D01*
X114647600Y-124006111D01*
X114601641Y-123821307D01*
X114541231Y-123699500D01*
X114517032Y-123650707D01*
X114517030Y-123650704D01*
X114397724Y-123502280D01*
X114397722Y-123502278D01*
X114328112Y-123446324D01*
X114288196Y-123388985D01*
X114285616Y-123319163D01*
X114321194Y-123259030D01*
X114328115Y-123253033D01*
X114397366Y-123197367D01*
X114397367Y-123197366D01*
X114516607Y-123049025D01*
X114516609Y-123049022D01*
X114601168Y-122878523D01*
X114647102Y-122693824D01*
X114650000Y-122651096D01*
X114650000Y-122450000D01*
X111650000Y-122450000D01*
X111650000Y-122651096D01*
X111652897Y-122693824D01*
X111698831Y-122878523D01*
X111783390Y-123049022D01*
X111783392Y-123049025D01*
X111902632Y-123197366D01*
X111902633Y-123197367D01*
X111933794Y-123222415D01*
X111973713Y-123279758D01*
X111976293Y-123349580D01*
X111940714Y-123409713D01*
X111905033Y-123433002D01*
X111307841Y-123689440D01*
X111258915Y-123699500D01*
X109055576Y-123699500D01*
X108988537Y-123679815D01*
X108984467Y-123677085D01*
X108403390Y-123270330D01*
X108359757Y-123215759D01*
X108350499Y-123168745D01*
X108350499Y-123041971D01*
X108350499Y-123041964D01*
X108339886Y-122922582D01*
X108283909Y-122726951D01*
X108189698Y-122546593D01*
X108103537Y-122440925D01*
X108061109Y-122388890D01*
X107903409Y-122260304D01*
X107903410Y-122260304D01*
X107903407Y-122260302D01*
X107723049Y-122166091D01*
X107723048Y-122166090D01*
X107723045Y-122166089D01*
X107605829Y-122132550D01*
X107527418Y-122110114D01*
X107527415Y-122110113D01*
X107527413Y-122110113D01*
X107461102Y-122104217D01*
X107408037Y-122099500D01*
X107408032Y-122099500D01*
X106291971Y-122099500D01*
X106291965Y-122099500D01*
X106291964Y-122099501D01*
X106280316Y-122100536D01*
X106172584Y-122110113D01*
X105976954Y-122166089D01*
X105886772Y-122213196D01*
X105796593Y-122260302D01*
X105796591Y-122260303D01*
X105796590Y-122260304D01*
X105638890Y-122388890D01*
X105510304Y-122546590D01*
X105416089Y-122726954D01*
X105360114Y-122922583D01*
X105360113Y-122922586D01*
X105349500Y-123041966D01*
X105349500Y-125958028D01*
X105349500Y-125958033D01*
X105349501Y-125958036D01*
X105351571Y-125981330D01*
X105360113Y-126077415D01*
X105416089Y-126273045D01*
X105416090Y-126273048D01*
X105416091Y-126273049D01*
X105510302Y-126453407D01*
X105510304Y-126453409D01*
X105563967Y-126519222D01*
X105591076Y-126583619D01*
X105579067Y-126652448D01*
X105531751Y-126703859D01*
X105464152Y-126721527D01*
X105420413Y-126712144D01*
X105348086Y-126682185D01*
X105348074Y-126682182D01*
X105183771Y-126649500D01*
X105183767Y-126649500D01*
X105176515Y-126649500D01*
X105109476Y-126629815D01*
X105095093Y-126619022D01*
X104693077Y-126269018D01*
X104655440Y-126210152D01*
X104650499Y-126175496D01*
X104650499Y-125699998D01*
X104650498Y-125699981D01*
X104639999Y-125597203D01*
X104639998Y-125597200D01*
X104625896Y-125554643D01*
X104584814Y-125430666D01*
X104492712Y-125281344D01*
X104368656Y-125157288D01*
X104219334Y-125065186D01*
X104052797Y-125010001D01*
X104052795Y-125010000D01*
X103950010Y-124999500D01*
X102549998Y-124999500D01*
X102549981Y-124999501D01*
X102447203Y-125010000D01*
X102447200Y-125010001D01*
X102280668Y-125065185D01*
X102280663Y-125065187D01*
X102131342Y-125157289D01*
X102007289Y-125281342D01*
X101915187Y-125430663D01*
X101915186Y-125430666D01*
X101860001Y-125597203D01*
X101860001Y-125597204D01*
X101860000Y-125597204D01*
X101849500Y-125699983D01*
X101849500Y-128800001D01*
X101849501Y-128800018D01*
X101860000Y-128902796D01*
X101860001Y-128902799D01*
X101915185Y-129069331D01*
X101915186Y-129069334D01*
X102007286Y-129218653D01*
X102007289Y-129218657D01*
X102040596Y-129251964D01*
X102074081Y-129313287D01*
X102069097Y-129382979D01*
X102040596Y-129427326D01*
X101789711Y-129678211D01*
X101757186Y-129710736D01*
X101678209Y-129789712D01*
X101590609Y-129920814D01*
X101590602Y-129920827D01*
X101527932Y-130072130D01*
X101525470Y-130071110D01*
X101493522Y-130119903D01*
X101429721Y-130148384D01*
X101413122Y-130149500D01*
X101266229Y-130149500D01*
X101148691Y-130172880D01*
X101079099Y-130166653D01*
X101023922Y-130123790D01*
X101000678Y-130057900D01*
X101000500Y-130051263D01*
X101000500Y-120699983D01*
X101849500Y-120699983D01*
X101849500Y-123800001D01*
X101849501Y-123800018D01*
X101860000Y-123902796D01*
X101860001Y-123902799D01*
X101915185Y-124069331D01*
X101915186Y-124069334D01*
X102007288Y-124218656D01*
X102131344Y-124342712D01*
X102280666Y-124434814D01*
X102447203Y-124489999D01*
X102549991Y-124500500D01*
X103950008Y-124500499D01*
X104052797Y-124489999D01*
X104219334Y-124434814D01*
X104368656Y-124342712D01*
X104492712Y-124218656D01*
X104584814Y-124069334D01*
X104639999Y-123902797D01*
X104650500Y-123800009D01*
X104650499Y-120824499D01*
X104670184Y-120757461D01*
X104722988Y-120711706D01*
X104774499Y-120700500D01*
X107087680Y-120700500D01*
X107154719Y-120720185D01*
X107186948Y-120750191D01*
X107192454Y-120757546D01*
X107192457Y-120757548D01*
X107307664Y-120843793D01*
X107307671Y-120843797D01*
X107442517Y-120894091D01*
X107442516Y-120894091D01*
X107449444Y-120894835D01*
X107502127Y-120900500D01*
X108597872Y-120900499D01*
X108657483Y-120894091D01*
X108762946Y-120854756D01*
X108792329Y-120843797D01*
X108792329Y-120843796D01*
X108792331Y-120843796D01*
X108825689Y-120818823D01*
X108891151Y-120794406D01*
X108959425Y-120809257D01*
X108974305Y-120818820D01*
X109007669Y-120843796D01*
X109007670Y-120843796D01*
X109007670Y-120843797D01*
X109142517Y-120894091D01*
X109142516Y-120894091D01*
X109149444Y-120894835D01*
X109202127Y-120900500D01*
X110297872Y-120900499D01*
X110357483Y-120894091D01*
X110492331Y-120843796D01*
X110575689Y-120781393D01*
X110641153Y-120756977D01*
X110709426Y-120771828D01*
X110724311Y-120781394D01*
X110807669Y-120843796D01*
X110807671Y-120843797D01*
X110942517Y-120894091D01*
X110942516Y-120894091D01*
X110949444Y-120894835D01*
X111002127Y-120900500D01*
X111926320Y-120900499D01*
X111993359Y-120920183D01*
X112039114Y-120972987D01*
X112049058Y-121042146D01*
X112020033Y-121105702D01*
X112004007Y-121121146D01*
X111902633Y-121202632D01*
X111902632Y-121202633D01*
X111783392Y-121350974D01*
X111783390Y-121350977D01*
X111698831Y-121521476D01*
X111652897Y-121706175D01*
X111650000Y-121748903D01*
X111650000Y-121950000D01*
X114650000Y-121950000D01*
X114650000Y-121748903D01*
X114647102Y-121706175D01*
X114601168Y-121521476D01*
X114516609Y-121350977D01*
X114516607Y-121350974D01*
X114397367Y-121202633D01*
X114397366Y-121202632D01*
X114249025Y-121083392D01*
X114249022Y-121083390D01*
X114082686Y-121000896D01*
X114058667Y-120978699D01*
X114033834Y-120957418D01*
X114033142Y-120955110D01*
X114031373Y-120953475D01*
X114023165Y-120921808D01*
X114013782Y-120890488D01*
X114014447Y-120888173D01*
X114013843Y-120885840D01*
X114024061Y-120854756D01*
X114033099Y-120823341D01*
X114035098Y-120821181D01*
X114035663Y-120819465D01*
X114056065Y-120796542D01*
X114059650Y-120793400D01*
X114107546Y-120757546D01*
X114120835Y-120739793D01*
X114130605Y-120731234D01*
X114150993Y-120721787D01*
X114168985Y-120708319D01*
X114187128Y-120705045D01*
X114194001Y-120701861D01*
X114200103Y-120702704D01*
X114212320Y-120700500D01*
X115146774Y-120700500D01*
X115213813Y-120720185D01*
X115259568Y-120772989D01*
X115270646Y-120818867D01*
X115344401Y-122440919D01*
X115347659Y-122479658D01*
X115348226Y-122484268D01*
X115348053Y-122484289D01*
X115349500Y-122501444D01*
X115349500Y-123800001D01*
X115349501Y-123800018D01*
X115360000Y-123902796D01*
X115360001Y-123902799D01*
X115415185Y-124069331D01*
X115415186Y-124069334D01*
X115507288Y-124218656D01*
X115631344Y-124342712D01*
X115780666Y-124434814D01*
X115947203Y-124489999D01*
X116049991Y-124500500D01*
X117450008Y-124500499D01*
X117552797Y-124489999D01*
X117719334Y-124434814D01*
X117868656Y-124342712D01*
X117992712Y-124218656D01*
X118084814Y-124069334D01*
X118139999Y-123902797D01*
X118150500Y-123800009D01*
X118150499Y-120699992D01*
X118139999Y-120597203D01*
X118084814Y-120430666D01*
X117992712Y-120281344D01*
X117868656Y-120157288D01*
X117719334Y-120065186D01*
X117552797Y-120010001D01*
X117552795Y-120010000D01*
X117450016Y-119999500D01*
X117450009Y-119999500D01*
X117194921Y-119999500D01*
X117127882Y-119979815D01*
X117121869Y-119975697D01*
X117118636Y-119973340D01*
X116708519Y-119674328D01*
X116693890Y-119661812D01*
X116310292Y-119278213D01*
X116310288Y-119278210D01*
X116179185Y-119190609D01*
X116179172Y-119190602D01*
X116033501Y-119130264D01*
X116033489Y-119130261D01*
X115878845Y-119099500D01*
X115878842Y-119099500D01*
X114212320Y-119099500D01*
X114145281Y-119079815D01*
X114113052Y-119049809D01*
X114107548Y-119042457D01*
X114107546Y-119042454D01*
X114095796Y-119033658D01*
X113992335Y-118956206D01*
X113992328Y-118956202D01*
X113857482Y-118905908D01*
X113857483Y-118905908D01*
X113797883Y-118899501D01*
X113797881Y-118899500D01*
X113797873Y-118899500D01*
X113797865Y-118899500D01*
X113131939Y-118899500D01*
X113064900Y-118879815D01*
X113019145Y-118827011D01*
X113009201Y-118757853D01*
X113038226Y-118694297D01*
X113044258Y-118687819D01*
X113629870Y-118102207D01*
X114771013Y-116961063D01*
X114832334Y-116927580D01*
X114878085Y-116926273D01*
X114966646Y-116940300D01*
X114966648Y-116940300D01*
X115193353Y-116940300D01*
X115193354Y-116940300D01*
X115417271Y-116904835D01*
X115632883Y-116834779D01*
X115834882Y-116731855D01*
X116018293Y-116598600D01*
X116178600Y-116438293D01*
X116311855Y-116254882D01*
X116414779Y-116052883D01*
X116484835Y-115837271D01*
X116520300Y-115613354D01*
X116520300Y-115386646D01*
X116484835Y-115162729D01*
X116414779Y-114947117D01*
X116414779Y-114947116D01*
X116363049Y-114845591D01*
X116311855Y-114745118D01*
X116260179Y-114673991D01*
X116178605Y-114561713D01*
X116178601Y-114561708D01*
X116018291Y-114401398D01*
X116018286Y-114401394D01*
X115920457Y-114330317D01*
X115877791Y-114274987D01*
X115871812Y-114205374D01*
X115904418Y-114143579D01*
X115920452Y-114129685D01*
X116018293Y-114058600D01*
X116178600Y-113898293D01*
X116311855Y-113714882D01*
X116414779Y-113512883D01*
X116484835Y-113297271D01*
X116520300Y-113073354D01*
X116520300Y-112846646D01*
X116484835Y-112622729D01*
X116414779Y-112407117D01*
X116414779Y-112407116D01*
X116363049Y-112305591D01*
X116311855Y-112205118D01*
X116260179Y-112133991D01*
X116178605Y-112021713D01*
X116178601Y-112021708D01*
X116018291Y-111861398D01*
X116018286Y-111861394D01*
X115834885Y-111728147D01*
X115834884Y-111728146D01*
X115834882Y-111728145D01*
X115770166Y-111695170D01*
X115632883Y-111625220D01*
X115632880Y-111625219D01*
X115417272Y-111555165D01*
X115305312Y-111537432D01*
X115193354Y-111519700D01*
X114966646Y-111519700D01*
X114892007Y-111531521D01*
X114742727Y-111555165D01*
X114527119Y-111625219D01*
X114527116Y-111625220D01*
X114325114Y-111728147D01*
X114141713Y-111861394D01*
X114141708Y-111861398D01*
X113981398Y-112021708D01*
X113981394Y-112021713D01*
X113848144Y-112205118D01*
X113848143Y-112205119D01*
X113791214Y-112316848D01*
X113743240Y-112367644D01*
X113738811Y-112368740D01*
X113029494Y-113078057D01*
X113013381Y-113017919D01*
X112946502Y-112902080D01*
X112851920Y-112807498D01*
X112736081Y-112740619D01*
X112675940Y-112724504D01*
X113366007Y-112034439D01*
X113294620Y-111982573D01*
X113092688Y-111879683D01*
X112877157Y-111809653D01*
X112653314Y-111774200D01*
X112426686Y-111774200D01*
X112202844Y-111809653D01*
X112202841Y-111809653D01*
X111987311Y-111879683D01*
X111785376Y-111982575D01*
X111713992Y-112034438D01*
X111713991Y-112034439D01*
X112404057Y-112724504D01*
X112343919Y-112740619D01*
X112228080Y-112807498D01*
X112133498Y-112902080D01*
X112066619Y-113017919D01*
X112050504Y-113078058D01*
X111342878Y-112370432D01*
X111340067Y-112369841D01*
X111326000Y-112355970D01*
X111308902Y-112346077D01*
X111292576Y-112323013D01*
X111290316Y-112320784D01*
X111288457Y-112317308D01*
X111282714Y-112306142D01*
X111282682Y-112305977D01*
X111282679Y-112305971D01*
X111282681Y-112305969D01*
X111282608Y-112305591D01*
X111282512Y-112305641D01*
X111231428Y-112205381D01*
X111194522Y-112154585D01*
X111194521Y-112154582D01*
X111179561Y-112133992D01*
X111179559Y-112133991D01*
X110489494Y-112824056D01*
X110473381Y-112763919D01*
X110406502Y-112648080D01*
X110311920Y-112553498D01*
X110196081Y-112486619D01*
X110135940Y-112470504D01*
X110826007Y-111780439D01*
X110754620Y-111728573D01*
X110552688Y-111625683D01*
X110337157Y-111555653D01*
X110113314Y-111520200D01*
X109886686Y-111520200D01*
X109662844Y-111555653D01*
X109662841Y-111555653D01*
X109447311Y-111625683D01*
X109245376Y-111728575D01*
X109173992Y-111780438D01*
X109173991Y-111780439D01*
X109864057Y-112470504D01*
X109803919Y-112486619D01*
X109688080Y-112553498D01*
X109593498Y-112648080D01*
X109526619Y-112763919D01*
X109510504Y-112824057D01*
X108820439Y-112133991D01*
X108820438Y-112133992D01*
X108768574Y-112205376D01*
X108768572Y-112205380D01*
X108718217Y-112304207D01*
X108717285Y-112306139D01*
X108711542Y-112317306D01*
X108707298Y-112321765D01*
X108707581Y-112321969D01*
X108707405Y-112322213D01*
X108707089Y-112321985D01*
X108687533Y-112342535D01*
X108663769Y-112367692D01*
X108663539Y-112367748D01*
X108663376Y-112367921D01*
X108658424Y-112369127D01*
X107949494Y-113078057D01*
X107933381Y-113017919D01*
X107866502Y-112902080D01*
X107771920Y-112807498D01*
X107656081Y-112740619D01*
X107595940Y-112724504D01*
X108286007Y-112034439D01*
X108214620Y-111982573D01*
X108127502Y-111938184D01*
X108012688Y-111879683D01*
X107797157Y-111809653D01*
X107573314Y-111774200D01*
X107346686Y-111774200D01*
X107122844Y-111809653D01*
X107122841Y-111809653D01*
X106907311Y-111879683D01*
X106705376Y-111982575D01*
X106633992Y-112034438D01*
X106633991Y-112034439D01*
X107324057Y-112724504D01*
X107263919Y-112740619D01*
X107148080Y-112807498D01*
X107053498Y-112902080D01*
X106986619Y-113017919D01*
X106970504Y-113078057D01*
X106262686Y-112370239D01*
X106260615Y-112369804D01*
X106248256Y-112357848D01*
X106233906Y-112350492D01*
X106216358Y-112326992D01*
X106212025Y-112322800D01*
X106210323Y-112319868D01*
X106151855Y-112205118D01*
X106111408Y-112149447D01*
X106111404Y-112149440D01*
X106018605Y-112021713D01*
X106018601Y-112021708D01*
X105858291Y-111861398D01*
X105858286Y-111861394D01*
X105674885Y-111728147D01*
X105674884Y-111728146D01*
X105674882Y-111728145D01*
X105610166Y-111695170D01*
X105472883Y-111625220D01*
X105472880Y-111625219D01*
X105257272Y-111555165D01*
X105145312Y-111537432D01*
X105033354Y-111519700D01*
X104806646Y-111519700D01*
X104732007Y-111531521D01*
X104582727Y-111555165D01*
X104367119Y-111625219D01*
X104367116Y-111625220D01*
X104165114Y-111728147D01*
X103981713Y-111861394D01*
X103981708Y-111861398D01*
X103821398Y-112021708D01*
X103821394Y-112021713D01*
X103688147Y-112205114D01*
X103585220Y-112407116D01*
X103585219Y-112407119D01*
X103515165Y-112622727D01*
X103479700Y-112846646D01*
X103479700Y-113073353D01*
X103515165Y-113297272D01*
X103585219Y-113512880D01*
X103585220Y-113512883D01*
X103640056Y-113620502D01*
X103674132Y-113687381D01*
X103688147Y-113714885D01*
X103821394Y-113898286D01*
X103821398Y-113898291D01*
X103981710Y-114058603D01*
X104068385Y-114121575D01*
X104071725Y-114125906D01*
X104076703Y-114128180D01*
X104092833Y-114153279D01*
X104111051Y-114176904D01*
X104112304Y-114183577D01*
X104114477Y-114186958D01*
X104119500Y-114221893D01*
X104119500Y-114238106D01*
X104099815Y-114305145D01*
X104068385Y-114338424D01*
X103981713Y-114401394D01*
X103981708Y-114401398D01*
X103821398Y-114561708D01*
X103821394Y-114561713D01*
X103688147Y-114745114D01*
X103585220Y-114947116D01*
X103585219Y-114947119D01*
X103515165Y-115162727D01*
X103479700Y-115386646D01*
X103479700Y-115613353D01*
X103515165Y-115837272D01*
X103585219Y-116052880D01*
X103585220Y-116052883D01*
X103640056Y-116160502D01*
X103674132Y-116227381D01*
X103688147Y-116254885D01*
X103821394Y-116438286D01*
X103821398Y-116438291D01*
X103981710Y-116598603D01*
X104068385Y-116661575D01*
X104111051Y-116716904D01*
X104119500Y-116761893D01*
X104119500Y-116998846D01*
X104150261Y-117153489D01*
X104150264Y-117153501D01*
X104210602Y-117299172D01*
X104210609Y-117299185D01*
X104298210Y-117430288D01*
X104298213Y-117430292D01*
X105178211Y-118310289D01*
X105246924Y-118379002D01*
X105289712Y-118421790D01*
X105420814Y-118509390D01*
X105420827Y-118509397D01*
X105566498Y-118569735D01*
X105566503Y-118569737D01*
X105670438Y-118590411D01*
X105721153Y-118600499D01*
X105721156Y-118600500D01*
X105721158Y-118600500D01*
X108617060Y-118600500D01*
X108684099Y-118620185D01*
X108704741Y-118636819D01*
X108763395Y-118695473D01*
X108796880Y-118756796D01*
X108791896Y-118826488D01*
X108750024Y-118882421D01*
X108684560Y-118906838D01*
X108662460Y-118906444D01*
X108655448Y-118905690D01*
X108597873Y-118899500D01*
X108597865Y-118899500D01*
X107502129Y-118899500D01*
X107502123Y-118899501D01*
X107442516Y-118905908D01*
X107307671Y-118956202D01*
X107307664Y-118956206D01*
X107192457Y-119042451D01*
X107192451Y-119042457D01*
X107186948Y-119049809D01*
X107131015Y-119091681D01*
X107087680Y-119099500D01*
X103921155Y-119099500D01*
X103849071Y-119113839D01*
X103849070Y-119113839D01*
X103766510Y-119130261D01*
X103766498Y-119130264D01*
X103620827Y-119190602D01*
X103620814Y-119190609D01*
X103509017Y-119265311D01*
X103489711Y-119278210D01*
X103489705Y-119278215D01*
X102959804Y-119808116D01*
X102948302Y-119818275D01*
X102749145Y-119973340D01*
X102684156Y-119998994D01*
X102672967Y-119999500D01*
X102549999Y-119999500D01*
X102549980Y-119999501D01*
X102447203Y-120010000D01*
X102447200Y-120010001D01*
X102280668Y-120065185D01*
X102280663Y-120065187D01*
X102131342Y-120157289D01*
X102007289Y-120281342D01*
X101915187Y-120430663D01*
X101915186Y-120430666D01*
X101860001Y-120597203D01*
X101860001Y-120597204D01*
X101860000Y-120597204D01*
X101849500Y-120699983D01*
X101000500Y-120699983D01*
X101000500Y-110874500D01*
X101020185Y-110807461D01*
X101072989Y-110761706D01*
X101124500Y-110750500D01*
X118875500Y-110750500D01*
X118942539Y-110770185D01*
G37*
%TD.AperFunction*%
%TD*%
%TA.AperFunction,Conductor*%
%TO.N,Net-(D1-A)*%
G36*
X115767118Y-119613554D02*
G01*
X116977326Y-120495902D01*
X116981992Y-120503545D01*
X116982032Y-120506893D01*
X116752097Y-122241718D01*
X116747612Y-122249469D01*
X116742810Y-122251650D01*
X115863380Y-122428901D01*
X115854593Y-122427177D01*
X115849599Y-122419744D01*
X115849380Y-122417963D01*
X115748540Y-120200263D01*
X115748528Y-120199732D01*
X115748528Y-119623009D01*
X115751955Y-119614736D01*
X115760228Y-119611309D01*
X115767118Y-119613554D01*
G37*
%TD.AperFunction*%
%TD*%
%TA.AperFunction,Conductor*%
%TO.N,Net-(D2-K)*%
G36*
X104049004Y-119616750D02*
G01*
X104051472Y-119623938D01*
X104051472Y-120200000D01*
X104104418Y-120495551D01*
X104149225Y-120745676D01*
X104147738Y-120753764D01*
X103264527Y-122224148D01*
X103257329Y-122229475D01*
X103248472Y-122228153D01*
X103243145Y-122220955D01*
X103243035Y-122220468D01*
X102896992Y-120507097D01*
X102898713Y-120498311D01*
X102901269Y-120495553D01*
X104032584Y-119614705D01*
X104041217Y-119612328D01*
X104049004Y-119616750D01*
G37*
%TD.AperFunction*%
%TD*%
%TA.AperFunction,Conductor*%
%TO.N,-12V*%
G36*
X103256044Y-127266467D02*
G01*
X103261909Y-127272042D01*
X104072821Y-128918744D01*
X104073402Y-128927680D01*
X104070058Y-128932693D01*
X103420373Y-129504873D01*
X103411899Y-129507770D01*
X103404367Y-129504366D01*
X102987871Y-129087869D01*
X102987869Y-129087868D01*
X102518149Y-128984025D01*
X102510811Y-128978893D01*
X102509251Y-128970075D01*
X102509927Y-128967981D01*
X103240670Y-127272578D01*
X103247090Y-127266339D01*
X103256044Y-127266467D01*
G37*
%TD.AperFunction*%
%TD*%
%TA.AperFunction,Conductor*%
%TO.N,+12V*%
G36*
X115855638Y-126104420D02*
G01*
X116743786Y-127240770D01*
X116746181Y-127249399D01*
X116741773Y-127257193D01*
X116741762Y-127257202D01*
X115857934Y-127946355D01*
X115849303Y-127948739D01*
X115842694Y-127945622D01*
X114953654Y-127103461D01*
X114950004Y-127095284D01*
X114950000Y-127094967D01*
X114950000Y-126507581D01*
X114953427Y-126499308D01*
X114956918Y-126496903D01*
X115841643Y-126100945D01*
X115850592Y-126100694D01*
X115855638Y-126104420D01*
G37*
%TD.AperFunction*%
%TD*%
%TA.AperFunction,Conductor*%
%TO.N,+12V*%
G36*
X113925539Y-126081565D02*
G01*
X114892916Y-126496958D01*
X114899166Y-126503371D01*
X114900000Y-126507709D01*
X114900000Y-127092290D01*
X114896573Y-127100563D01*
X114892916Y-127103041D01*
X113925539Y-127518434D01*
X113916585Y-127518549D01*
X113912921Y-127516218D01*
X113158103Y-126808535D01*
X113154411Y-126800377D01*
X113157570Y-126791998D01*
X113158103Y-126791465D01*
X113468981Y-126500000D01*
X113912921Y-126083780D01*
X113921300Y-126080622D01*
X113925539Y-126081565D01*
G37*
%TD.AperFunction*%
%TD*%
%TA.AperFunction,Conductor*%
%TO.N,+12V*%
G36*
X113150100Y-126802609D02*
G01*
X113155032Y-126806951D01*
X113619821Y-127541359D01*
X113621350Y-127550182D01*
X113617459Y-127556576D01*
X112753263Y-128282342D01*
X112745739Y-128285082D01*
X112161700Y-128285082D01*
X112153427Y-128281655D01*
X112150000Y-128273382D01*
X112150000Y-127170145D01*
X112153427Y-127161872D01*
X112157706Y-127159147D01*
X113141155Y-126802210D01*
X113150100Y-126802609D01*
G37*
%TD.AperFunction*%
%TD*%
%TA.AperFunction,Conductor*%
%TO.N,+12V*%
G36*
X117708259Y-130657283D02*
G01*
X117855153Y-130804597D01*
X118045146Y-130995133D01*
X118048561Y-131003411D01*
X118048111Y-131006608D01*
X117952425Y-131341514D01*
X117946857Y-131348528D01*
X117941175Y-131350000D01*
X117458825Y-131350000D01*
X117450552Y-131346573D01*
X117447575Y-131341514D01*
X117351888Y-131006608D01*
X117352910Y-130997712D01*
X117354853Y-130995133D01*
X117691716Y-130657307D01*
X117699983Y-130653869D01*
X117708259Y-130657283D01*
G37*
%TD.AperFunction*%
%TD*%
%TA.AperFunction,Conductor*%
%TO.N,+12V*%
G36*
X117322876Y-129847514D02*
G01*
X117707114Y-130180521D01*
X117838615Y-130294489D01*
X117842622Y-130302497D01*
X117841772Y-130307782D01*
X117704515Y-130641449D01*
X117698199Y-130647796D01*
X117690972Y-130648377D01*
X117054347Y-130496014D01*
X117047453Y-130491299D01*
X116895945Y-130272673D01*
X116894050Y-130263921D01*
X116897287Y-130257738D01*
X117306942Y-129848083D01*
X117315214Y-129844657D01*
X117322876Y-129847514D01*
G37*
%TD.AperFunction*%
%TD*%
%TA.AperFunction,Conductor*%
%TO.N,+12V*%
G36*
X116754502Y-127265505D02*
G01*
X116759942Y-127270882D01*
X117573775Y-128920691D01*
X117574362Y-128929627D01*
X117572986Y-128932404D01*
X117104182Y-129628355D01*
X117102751Y-129630091D01*
X116689411Y-130043431D01*
X116681138Y-130046858D01*
X116672865Y-130043431D01*
X116671387Y-130041622D01*
X115944216Y-128943886D01*
X115942505Y-128935098D01*
X115943415Y-128932381D01*
X116738897Y-127271003D01*
X116745560Y-127265023D01*
X116754502Y-127265505D01*
G37*
%TD.AperFunction*%
%TD*%
%TA.AperFunction,Conductor*%
%TO.N,+5V*%
G36*
X106863576Y-124518020D02*
G01*
X107847695Y-125896770D01*
X107849865Y-125903965D01*
X107800384Y-127358861D01*
X107796678Y-127367013D01*
X107788691Y-127370163D01*
X107204990Y-127370163D01*
X107196717Y-127366736D01*
X107196546Y-127366562D01*
X107189160Y-127358861D01*
X106789515Y-126942158D01*
X106255398Y-126385245D01*
X106252145Y-126376902D01*
X106252693Y-126373597D01*
X106842906Y-124521263D01*
X106848682Y-124514423D01*
X106857605Y-124513669D01*
X106863576Y-124518020D01*
G37*
%TD.AperFunction*%
%TD*%
%TA.AperFunction,Conductor*%
%TO.N,+5V*%
G36*
X107858037Y-123505626D02*
G01*
X108845010Y-124196507D01*
X108849822Y-124204059D01*
X108850000Y-124206092D01*
X108850000Y-124793908D01*
X108846573Y-124802181D01*
X108845010Y-124803493D01*
X107858037Y-125494373D01*
X107849294Y-125496310D01*
X107843058Y-125493065D01*
X106857285Y-124508277D01*
X106853854Y-124500006D01*
X106857277Y-124491731D01*
X106857285Y-124491723D01*
X107843059Y-123506933D01*
X107851333Y-123503511D01*
X107858037Y-123505626D01*
G37*
%TD.AperFunction*%
%TD*%
%TA.AperFunction,Conductor*%
%TO.N,+5V*%
G36*
X112387078Y-123783781D02*
G01*
X113141896Y-124491465D01*
X113145588Y-124499623D01*
X113142429Y-124508002D01*
X113141896Y-124508535D01*
X112387078Y-125216218D01*
X112378699Y-125219377D01*
X112374460Y-125218434D01*
X111407084Y-124803041D01*
X111400834Y-124796628D01*
X111400000Y-124792290D01*
X111400000Y-124207709D01*
X111403427Y-124199436D01*
X111407084Y-124196958D01*
X112374460Y-123781564D01*
X112383414Y-123781450D01*
X112387078Y-123783781D01*
G37*
%TD.AperFunction*%
%TD*%
%TA.AperFunction,Conductor*%
%TO.N,-12V*%
G36*
X104157678Y-126473125D02*
G01*
X105045983Y-127246503D01*
X105049972Y-127254519D01*
X105050000Y-127255326D01*
X105050000Y-127743335D01*
X105046573Y-127751608D01*
X105044268Y-127753399D01*
X104158383Y-128278726D01*
X104149519Y-128279998D01*
X104143595Y-128276350D01*
X103256696Y-127258829D01*
X103253843Y-127250340D01*
X103257826Y-127242323D01*
X104142318Y-126473120D01*
X104150809Y-126470277D01*
X104157678Y-126473125D01*
G37*
%TD.AperFunction*%
%TD*%
M02*
