%TF.GenerationSoftware,KiCad,Pcbnew,9.0.6*%
%TF.CreationDate,2025-12-14T16:09:08-05:00*%
%TF.ProjectId,active-vactrol-vca-board,61637469-7665-42d7-9661-6374726f6c2d,rev?*%
%TF.SameCoordinates,Original*%
%TF.FileFunction,Legend,Bot*%
%TF.FilePolarity,Positive*%
%FSLAX46Y46*%
G04 Gerber Fmt 4.6, Leading zero omitted, Abs format (unit mm)*
G04 Created by KiCad (PCBNEW 9.0.6) date 2025-12-14 16:09:08*
%MOMM*%
%LPD*%
G01*
G04 APERTURE LIST*
G04 Aperture macros list*
%AMRoundRect*
0 Rectangle with rounded corners*
0 $1 Rounding radius*
0 $2 $3 $4 $5 $6 $7 $8 $9 X,Y pos of 4 corners*
0 Add a 4 corners polygon primitive as box body*
4,1,4,$2,$3,$4,$5,$6,$7,$8,$9,$2,$3,0*
0 Add four circle primitives for the rounded corners*
1,1,$1+$1,$2,$3*
1,1,$1+$1,$4,$5*
1,1,$1+$1,$6,$7*
1,1,$1+$1,$8,$9*
0 Add four rect primitives between the rounded corners*
20,1,$1+$1,$2,$3,$4,$5,0*
20,1,$1+$1,$4,$5,$6,$7,0*
20,1,$1+$1,$6,$7,$8,$9,0*
20,1,$1+$1,$8,$9,$2,$3,0*%
G04 Aperture macros list end*
%ADD10C,0.200000*%
%ADD11C,0.150000*%
%ADD12C,0.125000*%
%ADD13C,0.120000*%
%ADD14C,0.152400*%
%ADD15C,0.127000*%
%ADD16C,0.100000*%
%ADD17R,1.000000X1.000000*%
%ADD18R,1.930000X1.830000*%
%ADD19C,2.130000*%
%ADD20RoundRect,0.076200X-0.825000X0.825000X-0.825000X-0.825000X0.825000X-0.825000X0.825000X0.825000X0*%
%ADD21C,1.802400*%
%ADD22RoundRect,0.076200X-1.558000X1.558000X-1.558000X-1.558000X1.558000X-1.558000X1.558000X1.558000X0*%
%ADD23RoundRect,0.249630X0.535370X-0.895370X0.535370X0.895370X-0.535370X0.895370X-0.535370X-0.895370X0*%
%ADD24O,1.570000X2.290000*%
%ADD25RoundRect,0.250000X-0.900000X1.500000X-0.900000X-1.500000X0.900000X-1.500000X0.900000X1.500000X0*%
%ADD26R,0.700000X1.300000*%
%ADD27R,1.300000X0.700000*%
%ADD28RoundRect,0.150000X-0.150000X0.825000X-0.150000X-0.825000X0.150000X-0.825000X0.150000X0.825000X0*%
%ADD29RoundRect,0.150000X0.825000X0.150000X-0.825000X0.150000X-0.825000X-0.150000X0.825000X-0.150000X0*%
%ADD30C,1.600000*%
%ADD31RoundRect,0.250000X0.900000X-1.500000X0.900000X1.500000X-0.900000X1.500000X-0.900000X-1.500000X0*%
%ADD32C,2.032000*%
%ADD33RoundRect,0.375000X0.625000X0.375000X-0.625000X0.375000X-0.625000X-0.375000X0.625000X-0.375000X0*%
%ADD34RoundRect,0.500000X0.500000X1.400000X-0.500000X1.400000X-0.500000X-1.400000X0.500000X-1.400000X0*%
G04 APERTURE END LIST*
D10*
G36*
X101252605Y-189770202D02*
G01*
X102692173Y-189770202D01*
X102692173Y-190348080D01*
X103102501Y-190348080D01*
X103102501Y-189291486D01*
X101252605Y-189291486D01*
X101252605Y-189770202D01*
G37*
G36*
X101844161Y-190997766D02*
G01*
X103102501Y-190997766D01*
X103102501Y-190553244D01*
X101844161Y-190553244D01*
X101844161Y-190997766D01*
G37*
G36*
X101362026Y-190525889D02*
G01*
X101311927Y-190530829D01*
X101265428Y-190545444D01*
X101222778Y-190568802D01*
X101185820Y-190599299D01*
X101155262Y-190636269D01*
X101131964Y-190678907D01*
X101117344Y-190725484D01*
X101112410Y-190775505D01*
X101117349Y-190825605D01*
X101131964Y-190872103D01*
X101155267Y-190914722D01*
X101185820Y-190951605D01*
X101222790Y-190982163D01*
X101265428Y-191005460D01*
X101311932Y-191020156D01*
X101362026Y-191025122D01*
X101412135Y-191020158D01*
X101458731Y-191005460D01*
X101501279Y-190982170D01*
X101538232Y-190951605D01*
X101568724Y-190914734D01*
X101592087Y-190872103D01*
X101606703Y-190825605D01*
X101611642Y-190775505D01*
X101606707Y-190725484D01*
X101592087Y-190678907D01*
X101568729Y-190636258D01*
X101538232Y-190599299D01*
X101501291Y-190568796D01*
X101458731Y-190545444D01*
X101412140Y-190530826D01*
X101362026Y-190525889D01*
G37*
G36*
X102251284Y-192250976D02*
G01*
X102206368Y-192170938D01*
X102180751Y-192093330D01*
X102172424Y-192016641D01*
X102178052Y-191954079D01*
X102194543Y-191896962D01*
X102221389Y-191844748D01*
X102257374Y-191799509D01*
X102301594Y-191762338D01*
X102353545Y-191734113D01*
X102411341Y-191716762D01*
X102478033Y-191710711D01*
X102542486Y-191716705D01*
X102599956Y-191734113D01*
X102651971Y-191762103D01*
X102696019Y-191798333D01*
X102731814Y-191842692D01*
X102758851Y-191895679D01*
X102775449Y-191953905D01*
X102781077Y-192016641D01*
X102771729Y-192097595D01*
X102743536Y-192175119D01*
X102694844Y-192250976D01*
X103072474Y-192250976D01*
X103113036Y-192139602D01*
X103136127Y-192036196D01*
X103143533Y-191939384D01*
X103131757Y-191804844D01*
X103096837Y-191678120D01*
X103039757Y-191561242D01*
X102962839Y-191459813D01*
X102867382Y-191375242D01*
X102753722Y-191308932D01*
X102670822Y-191278000D01*
X102580668Y-191259032D01*
X102481986Y-191252512D01*
X102383042Y-191258731D01*
X102291987Y-191276865D01*
X102207686Y-191306474D01*
X102091532Y-191370646D01*
X101993760Y-191453615D01*
X101914396Y-191554878D01*
X101853565Y-191675662D01*
X101815924Y-191808057D01*
X101803129Y-191951565D01*
X101810948Y-192057905D01*
X101833963Y-192157274D01*
X101872051Y-192250976D01*
X102251284Y-192250976D01*
G37*
G36*
X101064538Y-192562142D02*
G01*
X101064538Y-193006664D01*
X102004446Y-193006664D01*
X101934785Y-193071247D01*
X101886227Y-193132207D01*
X101855061Y-193190350D01*
X101826902Y-193288502D01*
X101816806Y-193408550D01*
X101826153Y-193527068D01*
X101852159Y-193623829D01*
X101892912Y-193702939D01*
X101948132Y-193767480D01*
X102016871Y-193819024D01*
X102097276Y-193856743D01*
X102191584Y-193880473D01*
X102302682Y-193888869D01*
X103102501Y-193888869D01*
X103102501Y-193444347D01*
X102468522Y-193444347D01*
X102377706Y-193440205D01*
X102314436Y-193429601D01*
X102260908Y-193409233D01*
X102223822Y-193380661D01*
X102195400Y-193339103D01*
X102178312Y-193292381D01*
X102172424Y-193238969D01*
X102180603Y-193166917D01*
X102203312Y-193110657D01*
X102239743Y-193066503D01*
X102288043Y-193034654D01*
X102350711Y-193014163D01*
X102431871Y-193006664D01*
X103102501Y-193006664D01*
X103102501Y-192562142D01*
X101064538Y-192562142D01*
G37*
G36*
X102580009Y-194146178D02*
G01*
X102671317Y-194163512D01*
X102754683Y-194191593D01*
X102869355Y-194254051D01*
X102966045Y-194337345D01*
X103043603Y-194439919D01*
X103102394Y-194563880D01*
X103138013Y-194700759D01*
X103150372Y-194855384D01*
X103140088Y-195006295D01*
X103111291Y-195132422D01*
X103066140Y-195237912D01*
X103005458Y-195326115D01*
X102928671Y-195399380D01*
X102833864Y-195458886D01*
X102717925Y-195504535D01*
X102717925Y-195077324D01*
X102769896Y-195035880D01*
X102806020Y-194986971D01*
X102828058Y-194929214D01*
X102835787Y-194860085D01*
X102826998Y-194774355D01*
X102803039Y-194709358D01*
X102765558Y-194660180D01*
X102713435Y-194623951D01*
X102642996Y-194600326D01*
X102548558Y-194591556D01*
X102548558Y-195521632D01*
X102501862Y-195521632D01*
X102342327Y-195509492D01*
X102205656Y-195475043D01*
X102121098Y-195438718D01*
X102047332Y-195393844D01*
X101983181Y-195340404D01*
X101927787Y-195277939D01*
X101881535Y-195206451D01*
X101844268Y-195124875D01*
X101808758Y-194992343D01*
X101797457Y-194852712D01*
X102083519Y-194852712D01*
X102090031Y-194915796D01*
X102108810Y-194970518D01*
X102139726Y-195018660D01*
X102180868Y-195058798D01*
X102230036Y-195088824D01*
X102288683Y-195109060D01*
X102288683Y-194603737D01*
X102226645Y-194621144D01*
X102176913Y-194648433D01*
X102137268Y-194685482D01*
X102108108Y-194731346D01*
X102089956Y-194786307D01*
X102083519Y-194852712D01*
X101797457Y-194852712D01*
X101796290Y-194838287D01*
X101808780Y-194681905D01*
X101844268Y-194547958D01*
X101902958Y-194427824D01*
X101980617Y-194328796D01*
X102043182Y-194273496D01*
X102114516Y-194226993D01*
X102195612Y-194189135D01*
X102281259Y-194162457D01*
X102375487Y-194145918D01*
X102479529Y-194140195D01*
X102580009Y-194146178D01*
G37*
G36*
X101844161Y-195772958D02*
G01*
X101844161Y-196217480D01*
X102003591Y-196217480D01*
X101934291Y-196282040D01*
X101885970Y-196343000D01*
X101854954Y-196401166D01*
X101826875Y-196499312D01*
X101816806Y-196619367D01*
X101828224Y-196745688D01*
X101859762Y-196846009D01*
X101911685Y-196933404D01*
X101981258Y-197006507D01*
X102049014Y-197052010D01*
X102123590Y-197080024D01*
X102205031Y-197094486D01*
X102302682Y-197099685D01*
X103102501Y-197099685D01*
X103102501Y-196655163D01*
X102467133Y-196655163D01*
X102378397Y-196651355D01*
X102316359Y-196641593D01*
X102263337Y-196622335D01*
X102224356Y-196593935D01*
X102199071Y-196562511D01*
X102182682Y-196527898D01*
X102170393Y-196449786D01*
X102178594Y-196377751D01*
X102201369Y-196321491D01*
X102237927Y-196277320D01*
X102286296Y-196245475D01*
X102349068Y-196224981D01*
X102430375Y-196217480D01*
X103102501Y-196217480D01*
X103102501Y-195772958D01*
X101844161Y-195772958D01*
G37*
G36*
X101252605Y-198751256D02*
G01*
X102692173Y-198751256D01*
X102692173Y-199329134D01*
X103102501Y-199329134D01*
X103102501Y-198272540D01*
X101252605Y-198272540D01*
X101252605Y-198751256D01*
G37*
G36*
X102610826Y-199498650D02*
G01*
X102737800Y-199534191D01*
X102853413Y-199591870D01*
X102951726Y-199667655D01*
X103032489Y-199760632D01*
X103093097Y-199868438D01*
X103130654Y-199987785D01*
X103143533Y-200120832D01*
X103131724Y-200238373D01*
X103097811Y-200339597D01*
X103042286Y-200427889D01*
X102963267Y-200505408D01*
X103102501Y-200505408D01*
X103102501Y-200949930D01*
X101844161Y-200949930D01*
X101844161Y-200505408D01*
X101968756Y-200505408D01*
X101896094Y-200422921D01*
X101844948Y-200331853D01*
X101814469Y-200232390D01*
X102186101Y-200232390D01*
X102191695Y-200290040D01*
X102208327Y-200344269D01*
X102234944Y-200393700D01*
X102269877Y-200435203D01*
X102312394Y-200469461D01*
X102362307Y-200496752D01*
X102416725Y-200514270D01*
X102474613Y-200520154D01*
X102532148Y-200514249D01*
X102585530Y-200496752D01*
X102634383Y-200469543D01*
X102676785Y-200435203D01*
X102711741Y-200393704D01*
X102738441Y-200344269D01*
X102754993Y-200290045D01*
X102760561Y-200232390D01*
X102754937Y-200172602D01*
X102738441Y-200118054D01*
X102711746Y-200068599D01*
X102676785Y-200027012D01*
X102634143Y-199993095D01*
X102584248Y-199966745D01*
X102529579Y-199950252D01*
X102469591Y-199944626D01*
X102412177Y-199950249D01*
X102359956Y-199966745D01*
X102312060Y-199992960D01*
X102269877Y-200027012D01*
X102234939Y-200068603D01*
X102208327Y-200118054D01*
X102191751Y-200172607D01*
X102186101Y-200232390D01*
X101814469Y-200232390D01*
X101813857Y-200230392D01*
X101803129Y-200115917D01*
X101809212Y-200024061D01*
X101826968Y-199939518D01*
X101856022Y-199861171D01*
X101918690Y-199753641D01*
X101999958Y-199662739D01*
X102097869Y-199589100D01*
X102212602Y-199532909D01*
X102337118Y-199498153D01*
X102469591Y-199486427D01*
X102610826Y-199498650D01*
G37*
G36*
X102213457Y-201743230D02*
G01*
X103102501Y-201743230D01*
X103102501Y-201298709D01*
X102213457Y-201298709D01*
X102213457Y-201155094D01*
X101844161Y-201155094D01*
X101844161Y-201298709D01*
X101468027Y-201298709D01*
X101468027Y-201743230D01*
X101844161Y-201743230D01*
X101844161Y-201996266D01*
X102213457Y-201996266D01*
X102213457Y-201743230D01*
G37*
G36*
X102580009Y-202145864D02*
G01*
X102671317Y-202163198D01*
X102754683Y-202191279D01*
X102869355Y-202253737D01*
X102966045Y-202337031D01*
X103043603Y-202439605D01*
X103102394Y-202563566D01*
X103138013Y-202700445D01*
X103150372Y-202855070D01*
X103140088Y-203005981D01*
X103111291Y-203132108D01*
X103066140Y-203237598D01*
X103005458Y-203325800D01*
X102928671Y-203399066D01*
X102833864Y-203458572D01*
X102717925Y-203504221D01*
X102717925Y-203077010D01*
X102769896Y-203035566D01*
X102806020Y-202986657D01*
X102828058Y-202928900D01*
X102835787Y-202859771D01*
X102826998Y-202774041D01*
X102803039Y-202709044D01*
X102765558Y-202659866D01*
X102713435Y-202623637D01*
X102642996Y-202600012D01*
X102548558Y-202591242D01*
X102548558Y-203521318D01*
X102501862Y-203521318D01*
X102342327Y-203509178D01*
X102205656Y-203474729D01*
X102121098Y-203438404D01*
X102047332Y-203393530D01*
X101983181Y-203340090D01*
X101927787Y-203277625D01*
X101881535Y-203206137D01*
X101844268Y-203124561D01*
X101808758Y-202992029D01*
X101797457Y-202852398D01*
X102083519Y-202852398D01*
X102090031Y-202915482D01*
X102108810Y-202970204D01*
X102139726Y-203018346D01*
X102180868Y-203058484D01*
X102230036Y-203088510D01*
X102288683Y-203108746D01*
X102288683Y-202603423D01*
X102226645Y-202620830D01*
X102176913Y-202648119D01*
X102137268Y-202685168D01*
X102108108Y-202731032D01*
X102089956Y-202785993D01*
X102083519Y-202852398D01*
X101797457Y-202852398D01*
X101796290Y-202837973D01*
X101808780Y-202681591D01*
X101844268Y-202547644D01*
X101902958Y-202427510D01*
X101980617Y-202328482D01*
X102043182Y-202273182D01*
X102114516Y-202226679D01*
X102195612Y-202188821D01*
X102281259Y-202162143D01*
X102375487Y-202145604D01*
X102479529Y-202139881D01*
X102580009Y-202145864D01*
G37*
G36*
X101844161Y-203772644D02*
G01*
X101844161Y-204217166D01*
X102003591Y-204217166D01*
X101934291Y-204281726D01*
X101885970Y-204342686D01*
X101854954Y-204400852D01*
X101826875Y-204498998D01*
X101816806Y-204619053D01*
X101828224Y-204745374D01*
X101859762Y-204845695D01*
X101911685Y-204933090D01*
X101981258Y-205006193D01*
X102049014Y-205051696D01*
X102123590Y-205079710D01*
X102205031Y-205094172D01*
X102302682Y-205099371D01*
X103102501Y-205099371D01*
X103102501Y-204654849D01*
X102467133Y-204654849D01*
X102378397Y-204651041D01*
X102316359Y-204641279D01*
X102263337Y-204622021D01*
X102224356Y-204593621D01*
X102199071Y-204562197D01*
X102182682Y-204527584D01*
X102170393Y-204449472D01*
X102178594Y-204377437D01*
X102201369Y-204321177D01*
X102237927Y-204277006D01*
X102286296Y-204245160D01*
X102349068Y-204224667D01*
X102430375Y-204217166D01*
X103102501Y-204217166D01*
X103102501Y-203772644D01*
X101844161Y-203772644D01*
G37*
G36*
X102251284Y-206349162D02*
G01*
X102206368Y-206269123D01*
X102180751Y-206191516D01*
X102172424Y-206114826D01*
X102178052Y-206052265D01*
X102194543Y-205995147D01*
X102221389Y-205942933D01*
X102257374Y-205897694D01*
X102301594Y-205860524D01*
X102353545Y-205832298D01*
X102411341Y-205814948D01*
X102478033Y-205808897D01*
X102542486Y-205814890D01*
X102599956Y-205832298D01*
X102651971Y-205860289D01*
X102696019Y-205896519D01*
X102731814Y-205940877D01*
X102758851Y-205993865D01*
X102775449Y-206052091D01*
X102781077Y-206114826D01*
X102771729Y-206195780D01*
X102743536Y-206273305D01*
X102694844Y-206349162D01*
X103072474Y-206349162D01*
X103113036Y-206237787D01*
X103136127Y-206134382D01*
X103143533Y-206037569D01*
X103131757Y-205903030D01*
X103096837Y-205776306D01*
X103039757Y-205659428D01*
X102962839Y-205557998D01*
X102867382Y-205473428D01*
X102753722Y-205407117D01*
X102670822Y-205376186D01*
X102580668Y-205357218D01*
X102481986Y-205350697D01*
X102383042Y-205356917D01*
X102291987Y-205375051D01*
X102207686Y-205404660D01*
X102091532Y-205468832D01*
X101993760Y-205551801D01*
X101914396Y-205653063D01*
X101853565Y-205773848D01*
X101815924Y-205906242D01*
X101803129Y-206049751D01*
X101810948Y-206156091D01*
X101833963Y-206255460D01*
X101872051Y-206349162D01*
X102251284Y-206349162D01*
G37*
G36*
X101844161Y-207043300D02*
G01*
X103102501Y-207043300D01*
X103102501Y-206598778D01*
X101844161Y-206598778D01*
X101844161Y-207043300D01*
G37*
G36*
X101362026Y-206571423D02*
G01*
X101311927Y-206576363D01*
X101265428Y-206590978D01*
X101222778Y-206614336D01*
X101185820Y-206644833D01*
X101155262Y-206681803D01*
X101131964Y-206724441D01*
X101117344Y-206771018D01*
X101112410Y-206821039D01*
X101117349Y-206871138D01*
X101131964Y-206917637D01*
X101155267Y-206960256D01*
X101185820Y-206997138D01*
X101222790Y-207027697D01*
X101265428Y-207050994D01*
X101311932Y-207065690D01*
X101362026Y-207070655D01*
X101412135Y-207065692D01*
X101458731Y-207050994D01*
X101501279Y-207027703D01*
X101538232Y-206997138D01*
X101568724Y-206960268D01*
X101592087Y-206917637D01*
X101606703Y-206871138D01*
X101611642Y-206821039D01*
X101606707Y-206771018D01*
X101592087Y-206724441D01*
X101568729Y-206681792D01*
X101538232Y-206644833D01*
X101501291Y-206614330D01*
X101458731Y-206590978D01*
X101412140Y-206576360D01*
X101362026Y-206571423D01*
G37*
G36*
X102580009Y-207304028D02*
G01*
X102671317Y-207321362D01*
X102754683Y-207349443D01*
X102869355Y-207411902D01*
X102966045Y-207495195D01*
X103043603Y-207597770D01*
X103102394Y-207721731D01*
X103138013Y-207858609D01*
X103150372Y-208013234D01*
X103140088Y-208164146D01*
X103111291Y-208290273D01*
X103066140Y-208395763D01*
X103005458Y-208483965D01*
X102928671Y-208557231D01*
X102833864Y-208616737D01*
X102717925Y-208662386D01*
X102717925Y-208235175D01*
X102769896Y-208193730D01*
X102806020Y-208144822D01*
X102828058Y-208087065D01*
X102835787Y-208017936D01*
X102826998Y-207932205D01*
X102803039Y-207867208D01*
X102765558Y-207818030D01*
X102713435Y-207781802D01*
X102642996Y-207758177D01*
X102548558Y-207749406D01*
X102548558Y-208679483D01*
X102501862Y-208679483D01*
X102342327Y-208667343D01*
X102205656Y-208632894D01*
X102121098Y-208596569D01*
X102047332Y-208551694D01*
X101983181Y-208498255D01*
X101927787Y-208435790D01*
X101881535Y-208364301D01*
X101844268Y-208282726D01*
X101808758Y-208150193D01*
X101797458Y-208010563D01*
X102083519Y-208010563D01*
X102090031Y-208073647D01*
X102108810Y-208128369D01*
X102139726Y-208176511D01*
X102180868Y-208216648D01*
X102230036Y-208246675D01*
X102288683Y-208266911D01*
X102288683Y-207761588D01*
X102226645Y-207778994D01*
X102176913Y-207806284D01*
X102137268Y-207843333D01*
X102108108Y-207889197D01*
X102089956Y-207944157D01*
X102083519Y-208010563D01*
X101797458Y-208010563D01*
X101796290Y-207996137D01*
X101808780Y-207839756D01*
X101844268Y-207705809D01*
X101902958Y-207585675D01*
X101980617Y-207486647D01*
X102043182Y-207431347D01*
X102114516Y-207384843D01*
X102195612Y-207346986D01*
X102281259Y-207320308D01*
X102375487Y-207303769D01*
X102479529Y-207298046D01*
X102580009Y-207304028D01*
G37*
G36*
X102167936Y-209767493D02*
G01*
X102131630Y-209683856D01*
X102110795Y-209603943D01*
X102104036Y-209526639D01*
X102110670Y-209469080D01*
X102128613Y-209427049D01*
X102157854Y-209398312D01*
X102194970Y-209389009D01*
X102230554Y-209395099D01*
X102256306Y-209422134D01*
X102278532Y-209483576D01*
X102303109Y-209590433D01*
X102336536Y-209709648D01*
X102380790Y-209799447D01*
X102434435Y-209865694D01*
X102502204Y-209915619D01*
X102581725Y-209946000D01*
X102676358Y-209956629D01*
X102782692Y-209945289D01*
X102875217Y-209912497D01*
X102956541Y-209859780D01*
X103023854Y-209789826D01*
X103076361Y-209705209D01*
X103117140Y-209601011D01*
X103141773Y-209487313D01*
X103150372Y-209358341D01*
X103141711Y-209233556D01*
X103115524Y-209108909D01*
X103071035Y-208983317D01*
X103006864Y-208855796D01*
X102693775Y-209017363D01*
X102768217Y-209146626D01*
X102809211Y-209263715D01*
X102822110Y-209371805D01*
X102814877Y-209429429D01*
X102794968Y-209472677D01*
X102763517Y-209502602D01*
X102725939Y-209512107D01*
X102685227Y-209505909D01*
X102655628Y-209480050D01*
X102631051Y-209422241D01*
X102607542Y-209322651D01*
X102571022Y-209186940D01*
X102528867Y-209094176D01*
X102483055Y-209033712D01*
X102423235Y-208989143D01*
X102348608Y-208961307D01*
X102254917Y-208951325D01*
X102152692Y-208961432D01*
X102063858Y-208990542D01*
X101985349Y-209038368D01*
X101919709Y-209103382D01*
X101868114Y-209182980D01*
X101828453Y-209281084D01*
X101804649Y-209388928D01*
X101796290Y-209512962D01*
X101805280Y-209650225D01*
X101832219Y-209784716D01*
X101877501Y-209917520D01*
X102167936Y-209767493D01*
G37*
G36*
X101844161Y-211359117D02*
G01*
X102489253Y-211658101D01*
X101844161Y-211961893D01*
X101844161Y-212456745D01*
X103102501Y-211802571D01*
X103102501Y-211506151D01*
X101844161Y-210859351D01*
X101844161Y-211359117D01*
G37*
G36*
X101659514Y-213105896D02*
G01*
X101659514Y-212835764D01*
X101249186Y-212835764D01*
X101249186Y-213584612D01*
X103102501Y-213584612D01*
X103102501Y-213105896D01*
X101659514Y-213105896D01*
G37*
G36*
X102869874Y-214143684D02*
G01*
X102812420Y-214149249D01*
X102758317Y-214165803D01*
X102708747Y-214192314D01*
X102666313Y-214227139D01*
X102631392Y-214269650D01*
X102604871Y-214319142D01*
X102588322Y-214373274D01*
X102582752Y-214430914D01*
X102588322Y-214488553D01*
X102604871Y-214542685D01*
X102631403Y-214592248D01*
X102666313Y-214634689D01*
X102708758Y-214669575D01*
X102758317Y-214696024D01*
X102812420Y-214712578D01*
X102869874Y-214718143D01*
X102927514Y-214712573D01*
X102981646Y-214696024D01*
X103031224Y-214669580D01*
X103073756Y-214634689D01*
X103108581Y-214592255D01*
X103135092Y-214542685D01*
X103151641Y-214488553D01*
X103157211Y-214430914D01*
X103151641Y-214373274D01*
X103135092Y-214319142D01*
X103108593Y-214269643D01*
X103073756Y-214227139D01*
X103031235Y-214192309D01*
X102981646Y-214165803D01*
X102927514Y-214149254D01*
X102869874Y-214143684D01*
G37*
G36*
X102324410Y-214900975D02*
G01*
X102457683Y-214920431D01*
X102579225Y-214951731D01*
X102696280Y-214996442D01*
X102798845Y-215050457D01*
X102888467Y-215113511D01*
X102968409Y-215187939D01*
X103034389Y-215270238D01*
X103087327Y-215361097D01*
X103125768Y-215458834D01*
X103149195Y-215564130D01*
X103157211Y-215678460D01*
X103149250Y-215791165D01*
X103125874Y-215896076D01*
X103087327Y-215994541D01*
X103034267Y-216086146D01*
X102968272Y-216168418D01*
X102888467Y-216242127D01*
X102798923Y-216304492D01*
X102696360Y-216358122D01*
X102579225Y-216402732D01*
X102457678Y-216434091D01*
X102324406Y-216453583D01*
X102177980Y-216460327D01*
X102031555Y-216453583D01*
X101898283Y-216434091D01*
X101776735Y-216402732D01*
X101659633Y-216358069D01*
X101557522Y-216304432D01*
X101468775Y-216242127D01*
X101389769Y-216168495D01*
X101324217Y-216086225D01*
X101271305Y-215994541D01*
X101232697Y-215896071D01*
X101209287Y-215791161D01*
X101201314Y-215678460D01*
X101625320Y-215678460D01*
X101635422Y-215743437D01*
X101666032Y-215803375D01*
X101713602Y-215854807D01*
X101779513Y-215899118D01*
X101856989Y-215932713D01*
X101954758Y-215959706D01*
X102059707Y-215975933D01*
X102177980Y-215981612D01*
X102298390Y-215975884D01*
X102402592Y-215959706D01*
X102499320Y-215932824D01*
X102577729Y-215899118D01*
X102644649Y-215854735D01*
X102692493Y-215803375D01*
X102723103Y-215743437D01*
X102733205Y-215678460D01*
X102722981Y-215611640D01*
X102692493Y-215552370D01*
X102644805Y-215501705D01*
X102577729Y-215456520D01*
X102499234Y-215421918D01*
X102402592Y-215394757D01*
X102298394Y-215378659D01*
X102177980Y-215372958D01*
X102059703Y-215378610D01*
X101954758Y-215394757D01*
X101857077Y-215422031D01*
X101779513Y-215456520D01*
X101713446Y-215501632D01*
X101666032Y-215552370D01*
X101635544Y-215611640D01*
X101625320Y-215678460D01*
X101201314Y-215678460D01*
X101209342Y-215564135D01*
X101232804Y-215458839D01*
X101271305Y-215361097D01*
X101324096Y-215270160D01*
X101389633Y-215187863D01*
X101468775Y-215113511D01*
X101557601Y-215050516D01*
X101659714Y-214996494D01*
X101776735Y-214951731D01*
X101898278Y-214920431D01*
X102031551Y-214900975D01*
X102177980Y-214894242D01*
X102324410Y-214900975D01*
G37*
X118371980Y-183941101D02*
X118419600Y-183893482D01*
X118419600Y-183893482D02*
X118467219Y-183750625D01*
X118467219Y-183750625D02*
X118467219Y-183655387D01*
X118467219Y-183655387D02*
X118419600Y-183512530D01*
X118419600Y-183512530D02*
X118324361Y-183417292D01*
X118324361Y-183417292D02*
X118229123Y-183369673D01*
X118229123Y-183369673D02*
X118038647Y-183322054D01*
X118038647Y-183322054D02*
X117895790Y-183322054D01*
X117895790Y-183322054D02*
X117705314Y-183369673D01*
X117705314Y-183369673D02*
X117610076Y-183417292D01*
X117610076Y-183417292D02*
X117514838Y-183512530D01*
X117514838Y-183512530D02*
X117467219Y-183655387D01*
X117467219Y-183655387D02*
X117467219Y-183750625D01*
X117467219Y-183750625D02*
X117514838Y-183893482D01*
X117514838Y-183893482D02*
X117562457Y-183941101D01*
X118467219Y-184512530D02*
X118419600Y-184417292D01*
X118419600Y-184417292D02*
X118371980Y-184369673D01*
X118371980Y-184369673D02*
X118276742Y-184322054D01*
X118276742Y-184322054D02*
X117991028Y-184322054D01*
X117991028Y-184322054D02*
X117895790Y-184369673D01*
X117895790Y-184369673D02*
X117848171Y-184417292D01*
X117848171Y-184417292D02*
X117800552Y-184512530D01*
X117800552Y-184512530D02*
X117800552Y-184655387D01*
X117800552Y-184655387D02*
X117848171Y-184750625D01*
X117848171Y-184750625D02*
X117895790Y-184798244D01*
X117895790Y-184798244D02*
X117991028Y-184845863D01*
X117991028Y-184845863D02*
X118276742Y-184845863D01*
X118276742Y-184845863D02*
X118371980Y-184798244D01*
X118371980Y-184798244D02*
X118419600Y-184750625D01*
X118419600Y-184750625D02*
X118467219Y-184655387D01*
X118467219Y-184655387D02*
X118467219Y-184512530D01*
X117800552Y-185274435D02*
X118800552Y-185274435D01*
X117848171Y-185274435D02*
X117800552Y-185369673D01*
X117800552Y-185369673D02*
X117800552Y-185560149D01*
X117800552Y-185560149D02*
X117848171Y-185655387D01*
X117848171Y-185655387D02*
X117895790Y-185703006D01*
X117895790Y-185703006D02*
X117991028Y-185750625D01*
X117991028Y-185750625D02*
X118276742Y-185750625D01*
X118276742Y-185750625D02*
X118371980Y-185703006D01*
X118371980Y-185703006D02*
X118419600Y-185655387D01*
X118419600Y-185655387D02*
X118467219Y-185560149D01*
X118467219Y-185560149D02*
X118467219Y-185369673D01*
X118467219Y-185369673D02*
X118419600Y-185274435D01*
X117800552Y-186083959D02*
X118467219Y-186322054D01*
X117800552Y-186560149D02*
X118467219Y-186322054D01*
X118467219Y-186322054D02*
X118705314Y-186226816D01*
X118705314Y-186226816D02*
X118752933Y-186179197D01*
X118752933Y-186179197D02*
X118800552Y-186083959D01*
X118467219Y-186941102D02*
X117800552Y-186941102D01*
X117991028Y-186941102D02*
X117895790Y-186988721D01*
X117895790Y-186988721D02*
X117848171Y-187036340D01*
X117848171Y-187036340D02*
X117800552Y-187131578D01*
X117800552Y-187131578D02*
X117800552Y-187226816D01*
X118467219Y-187560150D02*
X117800552Y-187560150D01*
X117467219Y-187560150D02*
X117514838Y-187512531D01*
X117514838Y-187512531D02*
X117562457Y-187560150D01*
X117562457Y-187560150D02*
X117514838Y-187607769D01*
X117514838Y-187607769D02*
X117467219Y-187560150D01*
X117467219Y-187560150D02*
X117562457Y-187560150D01*
X117800552Y-188464911D02*
X118610076Y-188464911D01*
X118610076Y-188464911D02*
X118705314Y-188417292D01*
X118705314Y-188417292D02*
X118752933Y-188369673D01*
X118752933Y-188369673D02*
X118800552Y-188274435D01*
X118800552Y-188274435D02*
X118800552Y-188131578D01*
X118800552Y-188131578D02*
X118752933Y-188036340D01*
X118419600Y-188464911D02*
X118467219Y-188369673D01*
X118467219Y-188369673D02*
X118467219Y-188179197D01*
X118467219Y-188179197D02*
X118419600Y-188083959D01*
X118419600Y-188083959D02*
X118371980Y-188036340D01*
X118371980Y-188036340D02*
X118276742Y-187988721D01*
X118276742Y-187988721D02*
X117991028Y-187988721D01*
X117991028Y-187988721D02*
X117895790Y-188036340D01*
X117895790Y-188036340D02*
X117848171Y-188083959D01*
X117848171Y-188083959D02*
X117800552Y-188179197D01*
X117800552Y-188179197D02*
X117800552Y-188369673D01*
X117800552Y-188369673D02*
X117848171Y-188464911D01*
X118467219Y-188941102D02*
X117467219Y-188941102D01*
X118467219Y-189369673D02*
X117943409Y-189369673D01*
X117943409Y-189369673D02*
X117848171Y-189322054D01*
X117848171Y-189322054D02*
X117800552Y-189226816D01*
X117800552Y-189226816D02*
X117800552Y-189083959D01*
X117800552Y-189083959D02*
X117848171Y-188988721D01*
X117848171Y-188988721D02*
X117895790Y-188941102D01*
X117800552Y-189703007D02*
X117800552Y-190083959D01*
X117467219Y-189845864D02*
X118324361Y-189845864D01*
X118324361Y-189845864D02*
X118419600Y-189893483D01*
X118419600Y-189893483D02*
X118467219Y-189988721D01*
X118467219Y-189988721D02*
X118467219Y-190083959D01*
X117562457Y-191131579D02*
X117514838Y-191179198D01*
X117514838Y-191179198D02*
X117467219Y-191274436D01*
X117467219Y-191274436D02*
X117467219Y-191512531D01*
X117467219Y-191512531D02*
X117514838Y-191607769D01*
X117514838Y-191607769D02*
X117562457Y-191655388D01*
X117562457Y-191655388D02*
X117657695Y-191703007D01*
X117657695Y-191703007D02*
X117752933Y-191703007D01*
X117752933Y-191703007D02*
X117895790Y-191655388D01*
X117895790Y-191655388D02*
X118467219Y-191083960D01*
X118467219Y-191083960D02*
X118467219Y-191703007D01*
X117467219Y-192322055D02*
X117467219Y-192417293D01*
X117467219Y-192417293D02*
X117514838Y-192512531D01*
X117514838Y-192512531D02*
X117562457Y-192560150D01*
X117562457Y-192560150D02*
X117657695Y-192607769D01*
X117657695Y-192607769D02*
X117848171Y-192655388D01*
X117848171Y-192655388D02*
X118086266Y-192655388D01*
X118086266Y-192655388D02*
X118276742Y-192607769D01*
X118276742Y-192607769D02*
X118371980Y-192560150D01*
X118371980Y-192560150D02*
X118419600Y-192512531D01*
X118419600Y-192512531D02*
X118467219Y-192417293D01*
X118467219Y-192417293D02*
X118467219Y-192322055D01*
X118467219Y-192322055D02*
X118419600Y-192226817D01*
X118419600Y-192226817D02*
X118371980Y-192179198D01*
X118371980Y-192179198D02*
X118276742Y-192131579D01*
X118276742Y-192131579D02*
X118086266Y-192083960D01*
X118086266Y-192083960D02*
X117848171Y-192083960D01*
X117848171Y-192083960D02*
X117657695Y-192131579D01*
X117657695Y-192131579D02*
X117562457Y-192179198D01*
X117562457Y-192179198D02*
X117514838Y-192226817D01*
X117514838Y-192226817D02*
X117467219Y-192322055D01*
X117562457Y-193036341D02*
X117514838Y-193083960D01*
X117514838Y-193083960D02*
X117467219Y-193179198D01*
X117467219Y-193179198D02*
X117467219Y-193417293D01*
X117467219Y-193417293D02*
X117514838Y-193512531D01*
X117514838Y-193512531D02*
X117562457Y-193560150D01*
X117562457Y-193560150D02*
X117657695Y-193607769D01*
X117657695Y-193607769D02*
X117752933Y-193607769D01*
X117752933Y-193607769D02*
X117895790Y-193560150D01*
X117895790Y-193560150D02*
X118467219Y-192988722D01*
X118467219Y-192988722D02*
X118467219Y-193607769D01*
X117467219Y-194512531D02*
X117467219Y-194036341D01*
X117467219Y-194036341D02*
X117943409Y-193988722D01*
X117943409Y-193988722D02*
X117895790Y-194036341D01*
X117895790Y-194036341D02*
X117848171Y-194131579D01*
X117848171Y-194131579D02*
X117848171Y-194369674D01*
X117848171Y-194369674D02*
X117895790Y-194464912D01*
X117895790Y-194464912D02*
X117943409Y-194512531D01*
X117943409Y-194512531D02*
X118038647Y-194560150D01*
X118038647Y-194560150D02*
X118276742Y-194560150D01*
X118276742Y-194560150D02*
X118371980Y-194512531D01*
X118371980Y-194512531D02*
X118419600Y-194464912D01*
X118419600Y-194464912D02*
X118467219Y-194369674D01*
X118467219Y-194369674D02*
X118467219Y-194131579D01*
X118467219Y-194131579D02*
X118419600Y-194036341D01*
X118419600Y-194036341D02*
X118371980Y-193988722D01*
X118419600Y-195036341D02*
X118467219Y-195036341D01*
X118467219Y-195036341D02*
X118562457Y-194988722D01*
X118562457Y-194988722D02*
X118610076Y-194941103D01*
X118467219Y-196703007D02*
X118467219Y-196226817D01*
X118467219Y-196226817D02*
X117467219Y-196226817D01*
X118467219Y-197036341D02*
X117800552Y-197036341D01*
X117467219Y-197036341D02*
X117514838Y-196988722D01*
X117514838Y-196988722D02*
X117562457Y-197036341D01*
X117562457Y-197036341D02*
X117514838Y-197083960D01*
X117514838Y-197083960D02*
X117467219Y-197036341D01*
X117467219Y-197036341D02*
X117562457Y-197036341D01*
X118419600Y-197941102D02*
X118467219Y-197845864D01*
X118467219Y-197845864D02*
X118467219Y-197655388D01*
X118467219Y-197655388D02*
X118419600Y-197560150D01*
X118419600Y-197560150D02*
X118371980Y-197512531D01*
X118371980Y-197512531D02*
X118276742Y-197464912D01*
X118276742Y-197464912D02*
X117991028Y-197464912D01*
X117991028Y-197464912D02*
X117895790Y-197512531D01*
X117895790Y-197512531D02*
X117848171Y-197560150D01*
X117848171Y-197560150D02*
X117800552Y-197655388D01*
X117800552Y-197655388D02*
X117800552Y-197845864D01*
X117800552Y-197845864D02*
X117848171Y-197941102D01*
X118467219Y-198369674D02*
X117467219Y-198369674D01*
X118467219Y-198798245D02*
X117943409Y-198798245D01*
X117943409Y-198798245D02*
X117848171Y-198750626D01*
X117848171Y-198750626D02*
X117800552Y-198655388D01*
X117800552Y-198655388D02*
X117800552Y-198512531D01*
X117800552Y-198512531D02*
X117848171Y-198417293D01*
X117848171Y-198417293D02*
X117895790Y-198369674D01*
X118419600Y-199655388D02*
X118467219Y-199560150D01*
X118467219Y-199560150D02*
X118467219Y-199369674D01*
X118467219Y-199369674D02*
X118419600Y-199274436D01*
X118419600Y-199274436D02*
X118324361Y-199226817D01*
X118324361Y-199226817D02*
X117943409Y-199226817D01*
X117943409Y-199226817D02*
X117848171Y-199274436D01*
X117848171Y-199274436D02*
X117800552Y-199369674D01*
X117800552Y-199369674D02*
X117800552Y-199560150D01*
X117800552Y-199560150D02*
X117848171Y-199655388D01*
X117848171Y-199655388D02*
X117943409Y-199703007D01*
X117943409Y-199703007D02*
X118038647Y-199703007D01*
X118038647Y-199703007D02*
X118133885Y-199226817D01*
X117800552Y-200131579D02*
X118467219Y-200131579D01*
X117895790Y-200131579D02*
X117848171Y-200179198D01*
X117848171Y-200179198D02*
X117800552Y-200274436D01*
X117800552Y-200274436D02*
X117800552Y-200417293D01*
X117800552Y-200417293D02*
X117848171Y-200512531D01*
X117848171Y-200512531D02*
X117943409Y-200560150D01*
X117943409Y-200560150D02*
X118467219Y-200560150D01*
X118371980Y-202369674D02*
X118419600Y-202322055D01*
X118419600Y-202322055D02*
X118467219Y-202179198D01*
X118467219Y-202179198D02*
X118467219Y-202083960D01*
X118467219Y-202083960D02*
X118419600Y-201941103D01*
X118419600Y-201941103D02*
X118324361Y-201845865D01*
X118324361Y-201845865D02*
X118229123Y-201798246D01*
X118229123Y-201798246D02*
X118038647Y-201750627D01*
X118038647Y-201750627D02*
X117895790Y-201750627D01*
X117895790Y-201750627D02*
X117705314Y-201798246D01*
X117705314Y-201798246D02*
X117610076Y-201845865D01*
X117610076Y-201845865D02*
X117514838Y-201941103D01*
X117514838Y-201941103D02*
X117467219Y-202083960D01*
X117467219Y-202083960D02*
X117467219Y-202179198D01*
X117467219Y-202179198D02*
X117514838Y-202322055D01*
X117514838Y-202322055D02*
X117562457Y-202369674D01*
X118467219Y-202941103D02*
X118419600Y-202845865D01*
X118419600Y-202845865D02*
X118371980Y-202798246D01*
X118371980Y-202798246D02*
X118276742Y-202750627D01*
X118276742Y-202750627D02*
X117991028Y-202750627D01*
X117991028Y-202750627D02*
X117895790Y-202798246D01*
X117895790Y-202798246D02*
X117848171Y-202845865D01*
X117848171Y-202845865D02*
X117800552Y-202941103D01*
X117800552Y-202941103D02*
X117800552Y-203083960D01*
X117800552Y-203083960D02*
X117848171Y-203179198D01*
X117848171Y-203179198D02*
X117895790Y-203226817D01*
X117895790Y-203226817D02*
X117991028Y-203274436D01*
X117991028Y-203274436D02*
X118276742Y-203274436D01*
X118276742Y-203274436D02*
X118371980Y-203226817D01*
X118371980Y-203226817D02*
X118419600Y-203179198D01*
X118419600Y-203179198D02*
X118467219Y-203083960D01*
X118467219Y-203083960D02*
X118467219Y-202941103D01*
X118467219Y-203703008D02*
X117800552Y-203703008D01*
X117895790Y-203703008D02*
X117848171Y-203750627D01*
X117848171Y-203750627D02*
X117800552Y-203845865D01*
X117800552Y-203845865D02*
X117800552Y-203988722D01*
X117800552Y-203988722D02*
X117848171Y-204083960D01*
X117848171Y-204083960D02*
X117943409Y-204131579D01*
X117943409Y-204131579D02*
X118467219Y-204131579D01*
X117943409Y-204131579D02*
X117848171Y-204179198D01*
X117848171Y-204179198D02*
X117800552Y-204274436D01*
X117800552Y-204274436D02*
X117800552Y-204417293D01*
X117800552Y-204417293D02*
X117848171Y-204512532D01*
X117848171Y-204512532D02*
X117943409Y-204560151D01*
X117943409Y-204560151D02*
X118467219Y-204560151D01*
X118467219Y-205036341D02*
X117800552Y-205036341D01*
X117895790Y-205036341D02*
X117848171Y-205083960D01*
X117848171Y-205083960D02*
X117800552Y-205179198D01*
X117800552Y-205179198D02*
X117800552Y-205322055D01*
X117800552Y-205322055D02*
X117848171Y-205417293D01*
X117848171Y-205417293D02*
X117943409Y-205464912D01*
X117943409Y-205464912D02*
X118467219Y-205464912D01*
X117943409Y-205464912D02*
X117848171Y-205512531D01*
X117848171Y-205512531D02*
X117800552Y-205607769D01*
X117800552Y-205607769D02*
X117800552Y-205750626D01*
X117800552Y-205750626D02*
X117848171Y-205845865D01*
X117848171Y-205845865D02*
X117943409Y-205893484D01*
X117943409Y-205893484D02*
X118467219Y-205893484D01*
X117800552Y-206798245D02*
X118467219Y-206798245D01*
X117800552Y-206369674D02*
X118324361Y-206369674D01*
X118324361Y-206369674D02*
X118419600Y-206417293D01*
X118419600Y-206417293D02*
X118467219Y-206512531D01*
X118467219Y-206512531D02*
X118467219Y-206655388D01*
X118467219Y-206655388D02*
X118419600Y-206750626D01*
X118419600Y-206750626D02*
X118371980Y-206798245D01*
X117800552Y-207274436D02*
X118467219Y-207274436D01*
X117895790Y-207274436D02*
X117848171Y-207322055D01*
X117848171Y-207322055D02*
X117800552Y-207417293D01*
X117800552Y-207417293D02*
X117800552Y-207560150D01*
X117800552Y-207560150D02*
X117848171Y-207655388D01*
X117848171Y-207655388D02*
X117943409Y-207703007D01*
X117943409Y-207703007D02*
X118467219Y-207703007D01*
X118467219Y-208179198D02*
X117800552Y-208179198D01*
X117467219Y-208179198D02*
X117514838Y-208131579D01*
X117514838Y-208131579D02*
X117562457Y-208179198D01*
X117562457Y-208179198D02*
X117514838Y-208226817D01*
X117514838Y-208226817D02*
X117467219Y-208179198D01*
X117467219Y-208179198D02*
X117562457Y-208179198D01*
X117800552Y-208512531D02*
X117800552Y-208893483D01*
X117467219Y-208655388D02*
X118324361Y-208655388D01*
X118324361Y-208655388D02*
X118419600Y-208703007D01*
X118419600Y-208703007D02*
X118467219Y-208798245D01*
X118467219Y-208798245D02*
X118467219Y-208893483D01*
X117800552Y-209131579D02*
X118467219Y-209369674D01*
X117800552Y-209607769D02*
X118467219Y-209369674D01*
X118467219Y-209369674D02*
X118705314Y-209274436D01*
X118705314Y-209274436D02*
X118752933Y-209226817D01*
X118752933Y-209226817D02*
X118800552Y-209131579D01*
X118419600Y-210703008D02*
X118467219Y-210845865D01*
X118467219Y-210845865D02*
X118467219Y-211083960D01*
X118467219Y-211083960D02*
X118419600Y-211179198D01*
X118419600Y-211179198D02*
X118371980Y-211226817D01*
X118371980Y-211226817D02*
X118276742Y-211274436D01*
X118276742Y-211274436D02*
X118181504Y-211274436D01*
X118181504Y-211274436D02*
X118086266Y-211226817D01*
X118086266Y-211226817D02*
X118038647Y-211179198D01*
X118038647Y-211179198D02*
X117991028Y-211083960D01*
X117991028Y-211083960D02*
X117943409Y-210893484D01*
X117943409Y-210893484D02*
X117895790Y-210798246D01*
X117895790Y-210798246D02*
X117848171Y-210750627D01*
X117848171Y-210750627D02*
X117752933Y-210703008D01*
X117752933Y-210703008D02*
X117657695Y-210703008D01*
X117657695Y-210703008D02*
X117562457Y-210750627D01*
X117562457Y-210750627D02*
X117514838Y-210798246D01*
X117514838Y-210798246D02*
X117467219Y-210893484D01*
X117467219Y-210893484D02*
X117467219Y-211131579D01*
X117467219Y-211131579D02*
X117514838Y-211274436D01*
X117800552Y-211607770D02*
X118467219Y-211845865D01*
X117800552Y-212083960D02*
X118467219Y-211845865D01*
X118467219Y-211845865D02*
X118705314Y-211750627D01*
X118705314Y-211750627D02*
X118752933Y-211703008D01*
X118752933Y-211703008D02*
X118800552Y-211607770D01*
X118419600Y-212417294D02*
X118467219Y-212512532D01*
X118467219Y-212512532D02*
X118467219Y-212703008D01*
X118467219Y-212703008D02*
X118419600Y-212798246D01*
X118419600Y-212798246D02*
X118324361Y-212845865D01*
X118324361Y-212845865D02*
X118276742Y-212845865D01*
X118276742Y-212845865D02*
X118181504Y-212798246D01*
X118181504Y-212798246D02*
X118133885Y-212703008D01*
X118133885Y-212703008D02*
X118133885Y-212560151D01*
X118133885Y-212560151D02*
X118086266Y-212464913D01*
X118086266Y-212464913D02*
X117991028Y-212417294D01*
X117991028Y-212417294D02*
X117943409Y-212417294D01*
X117943409Y-212417294D02*
X117848171Y-212464913D01*
X117848171Y-212464913D02*
X117800552Y-212560151D01*
X117800552Y-212560151D02*
X117800552Y-212703008D01*
X117800552Y-212703008D02*
X117848171Y-212798246D01*
X117800552Y-213131580D02*
X117800552Y-213512532D01*
X117467219Y-213274437D02*
X118324361Y-213274437D01*
X118324361Y-213274437D02*
X118419600Y-213322056D01*
X118419600Y-213322056D02*
X118467219Y-213417294D01*
X118467219Y-213417294D02*
X118467219Y-213512532D01*
X118419600Y-214226818D02*
X118467219Y-214131580D01*
X118467219Y-214131580D02*
X118467219Y-213941104D01*
X118467219Y-213941104D02*
X118419600Y-213845866D01*
X118419600Y-213845866D02*
X118324361Y-213798247D01*
X118324361Y-213798247D02*
X117943409Y-213798247D01*
X117943409Y-213798247D02*
X117848171Y-213845866D01*
X117848171Y-213845866D02*
X117800552Y-213941104D01*
X117800552Y-213941104D02*
X117800552Y-214131580D01*
X117800552Y-214131580D02*
X117848171Y-214226818D01*
X117848171Y-214226818D02*
X117943409Y-214274437D01*
X117943409Y-214274437D02*
X118038647Y-214274437D01*
X118038647Y-214274437D02*
X118133885Y-213798247D01*
X118467219Y-214703009D02*
X117800552Y-214703009D01*
X117895790Y-214703009D02*
X117848171Y-214750628D01*
X117848171Y-214750628D02*
X117800552Y-214845866D01*
X117800552Y-214845866D02*
X117800552Y-214988723D01*
X117800552Y-214988723D02*
X117848171Y-215083961D01*
X117848171Y-215083961D02*
X117943409Y-215131580D01*
X117943409Y-215131580D02*
X118467219Y-215131580D01*
X117943409Y-215131580D02*
X117848171Y-215179199D01*
X117848171Y-215179199D02*
X117800552Y-215274437D01*
X117800552Y-215274437D02*
X117800552Y-215417294D01*
X117800552Y-215417294D02*
X117848171Y-215512533D01*
X117848171Y-215512533D02*
X117943409Y-215560152D01*
X117943409Y-215560152D02*
X118467219Y-215560152D01*
X118419600Y-215988723D02*
X118467219Y-216083961D01*
X118467219Y-216083961D02*
X118467219Y-216274437D01*
X118467219Y-216274437D02*
X118419600Y-216369675D01*
X118419600Y-216369675D02*
X118324361Y-216417294D01*
X118324361Y-216417294D02*
X118276742Y-216417294D01*
X118276742Y-216417294D02*
X118181504Y-216369675D01*
X118181504Y-216369675D02*
X118133885Y-216274437D01*
X118133885Y-216274437D02*
X118133885Y-216131580D01*
X118133885Y-216131580D02*
X118086266Y-216036342D01*
X118086266Y-216036342D02*
X117991028Y-215988723D01*
X117991028Y-215988723D02*
X117943409Y-215988723D01*
X117943409Y-215988723D02*
X117848171Y-216036342D01*
X117848171Y-216036342D02*
X117800552Y-216131580D01*
X117800552Y-216131580D02*
X117800552Y-216274437D01*
X117800552Y-216274437D02*
X117848171Y-216369675D01*
D11*
X107154819Y-119733333D02*
X107154819Y-119257143D01*
X107154819Y-119257143D02*
X106154819Y-119257143D01*
X106250057Y-120019048D02*
X106202438Y-120066667D01*
X106202438Y-120066667D02*
X106154819Y-120161905D01*
X106154819Y-120161905D02*
X106154819Y-120400000D01*
X106154819Y-120400000D02*
X106202438Y-120495238D01*
X106202438Y-120495238D02*
X106250057Y-120542857D01*
X106250057Y-120542857D02*
X106345295Y-120590476D01*
X106345295Y-120590476D02*
X106440533Y-120590476D01*
X106440533Y-120590476D02*
X106583390Y-120542857D01*
X106583390Y-120542857D02*
X107154819Y-119971429D01*
X107154819Y-119971429D02*
X107154819Y-120590476D01*
X115154819Y-119733333D02*
X115154819Y-119257143D01*
X115154819Y-119257143D02*
X114154819Y-119257143D01*
X115154819Y-120590476D02*
X115154819Y-120019048D01*
X115154819Y-120304762D02*
X114154819Y-120304762D01*
X114154819Y-120304762D02*
X114297676Y-120209524D01*
X114297676Y-120209524D02*
X114392914Y-120114286D01*
X114392914Y-120114286D02*
X114440533Y-120019048D01*
X110942857Y-192454819D02*
X111276190Y-191978628D01*
X111514285Y-192454819D02*
X111514285Y-191454819D01*
X111514285Y-191454819D02*
X111133333Y-191454819D01*
X111133333Y-191454819D02*
X111038095Y-191502438D01*
X111038095Y-191502438D02*
X110990476Y-191550057D01*
X110990476Y-191550057D02*
X110942857Y-191645295D01*
X110942857Y-191645295D02*
X110942857Y-191788152D01*
X110942857Y-191788152D02*
X110990476Y-191883390D01*
X110990476Y-191883390D02*
X111038095Y-191931009D01*
X111038095Y-191931009D02*
X111133333Y-191978628D01*
X111133333Y-191978628D02*
X111514285Y-191978628D01*
X109990476Y-192454819D02*
X110561904Y-192454819D01*
X110276190Y-192454819D02*
X110276190Y-191454819D01*
X110276190Y-191454819D02*
X110371428Y-191597676D01*
X110371428Y-191597676D02*
X110466666Y-191692914D01*
X110466666Y-191692914D02*
X110561904Y-191740533D01*
X109038095Y-192454819D02*
X109609523Y-192454819D01*
X109323809Y-192454819D02*
X109323809Y-191454819D01*
X109323809Y-191454819D02*
X109419047Y-191597676D01*
X109419047Y-191597676D02*
X109514285Y-191692914D01*
X109514285Y-191692914D02*
X109609523Y-191740533D01*
X105438094Y-130704819D02*
X105438094Y-129704819D01*
X105438094Y-129704819D02*
X105199999Y-129704819D01*
X105199999Y-129704819D02*
X105057142Y-129752438D01*
X105057142Y-129752438D02*
X104961904Y-129847676D01*
X104961904Y-129847676D02*
X104914285Y-129942914D01*
X104914285Y-129942914D02*
X104866666Y-130133390D01*
X104866666Y-130133390D02*
X104866666Y-130276247D01*
X104866666Y-130276247D02*
X104914285Y-130466723D01*
X104914285Y-130466723D02*
X104961904Y-130561961D01*
X104961904Y-130561961D02*
X105057142Y-130657200D01*
X105057142Y-130657200D02*
X105199999Y-130704819D01*
X105199999Y-130704819D02*
X105438094Y-130704819D01*
X104485713Y-129800057D02*
X104438094Y-129752438D01*
X104438094Y-129752438D02*
X104342856Y-129704819D01*
X104342856Y-129704819D02*
X104104761Y-129704819D01*
X104104761Y-129704819D02*
X104009523Y-129752438D01*
X104009523Y-129752438D02*
X103961904Y-129800057D01*
X103961904Y-129800057D02*
X103914285Y-129895295D01*
X103914285Y-129895295D02*
X103914285Y-129990533D01*
X103914285Y-129990533D02*
X103961904Y-130133390D01*
X103961904Y-130133390D02*
X104533332Y-130704819D01*
X104533332Y-130704819D02*
X103914285Y-130704819D01*
X102554819Y-154757142D02*
X102078628Y-154423809D01*
X102554819Y-154185714D02*
X101554819Y-154185714D01*
X101554819Y-154185714D02*
X101554819Y-154566666D01*
X101554819Y-154566666D02*
X101602438Y-154661904D01*
X101602438Y-154661904D02*
X101650057Y-154709523D01*
X101650057Y-154709523D02*
X101745295Y-154757142D01*
X101745295Y-154757142D02*
X101888152Y-154757142D01*
X101888152Y-154757142D02*
X101983390Y-154709523D01*
X101983390Y-154709523D02*
X102031009Y-154661904D01*
X102031009Y-154661904D02*
X102078628Y-154566666D01*
X102078628Y-154566666D02*
X102078628Y-154185714D01*
X101650057Y-155138095D02*
X101602438Y-155185714D01*
X101602438Y-155185714D02*
X101554819Y-155280952D01*
X101554819Y-155280952D02*
X101554819Y-155519047D01*
X101554819Y-155519047D02*
X101602438Y-155614285D01*
X101602438Y-155614285D02*
X101650057Y-155661904D01*
X101650057Y-155661904D02*
X101745295Y-155709523D01*
X101745295Y-155709523D02*
X101840533Y-155709523D01*
X101840533Y-155709523D02*
X101983390Y-155661904D01*
X101983390Y-155661904D02*
X102554819Y-155090476D01*
X102554819Y-155090476D02*
X102554819Y-155709523D01*
X101554819Y-156328571D02*
X101554819Y-156423809D01*
X101554819Y-156423809D02*
X101602438Y-156519047D01*
X101602438Y-156519047D02*
X101650057Y-156566666D01*
X101650057Y-156566666D02*
X101745295Y-156614285D01*
X101745295Y-156614285D02*
X101935771Y-156661904D01*
X101935771Y-156661904D02*
X102173866Y-156661904D01*
X102173866Y-156661904D02*
X102364342Y-156614285D01*
X102364342Y-156614285D02*
X102459580Y-156566666D01*
X102459580Y-156566666D02*
X102507200Y-156519047D01*
X102507200Y-156519047D02*
X102554819Y-156423809D01*
X102554819Y-156423809D02*
X102554819Y-156328571D01*
X102554819Y-156328571D02*
X102507200Y-156233333D01*
X102507200Y-156233333D02*
X102459580Y-156185714D01*
X102459580Y-156185714D02*
X102364342Y-156138095D01*
X102364342Y-156138095D02*
X102173866Y-156090476D01*
X102173866Y-156090476D02*
X101935771Y-156090476D01*
X101935771Y-156090476D02*
X101745295Y-156138095D01*
X101745295Y-156138095D02*
X101650057Y-156185714D01*
X101650057Y-156185714D02*
X101602438Y-156233333D01*
X101602438Y-156233333D02*
X101554819Y-156328571D01*
X105166666Y-180954819D02*
X105499999Y-180478628D01*
X105738094Y-180954819D02*
X105738094Y-179954819D01*
X105738094Y-179954819D02*
X105357142Y-179954819D01*
X105357142Y-179954819D02*
X105261904Y-180002438D01*
X105261904Y-180002438D02*
X105214285Y-180050057D01*
X105214285Y-180050057D02*
X105166666Y-180145295D01*
X105166666Y-180145295D02*
X105166666Y-180288152D01*
X105166666Y-180288152D02*
X105214285Y-180383390D01*
X105214285Y-180383390D02*
X105261904Y-180431009D01*
X105261904Y-180431009D02*
X105357142Y-180478628D01*
X105357142Y-180478628D02*
X105738094Y-180478628D01*
X104309523Y-180288152D02*
X104309523Y-180954819D01*
X104547618Y-179907200D02*
X104785713Y-180621485D01*
X104785713Y-180621485D02*
X104166666Y-180621485D01*
X108566666Y-131544580D02*
X108614285Y-131592200D01*
X108614285Y-131592200D02*
X108757142Y-131639819D01*
X108757142Y-131639819D02*
X108852380Y-131639819D01*
X108852380Y-131639819D02*
X108995237Y-131592200D01*
X108995237Y-131592200D02*
X109090475Y-131496961D01*
X109090475Y-131496961D02*
X109138094Y-131401723D01*
X109138094Y-131401723D02*
X109185713Y-131211247D01*
X109185713Y-131211247D02*
X109185713Y-131068390D01*
X109185713Y-131068390D02*
X109138094Y-130877914D01*
X109138094Y-130877914D02*
X109090475Y-130782676D01*
X109090475Y-130782676D02*
X108995237Y-130687438D01*
X108995237Y-130687438D02*
X108852380Y-130639819D01*
X108852380Y-130639819D02*
X108757142Y-130639819D01*
X108757142Y-130639819D02*
X108614285Y-130687438D01*
X108614285Y-130687438D02*
X108566666Y-130735057D01*
X107709523Y-130639819D02*
X107899999Y-130639819D01*
X107899999Y-130639819D02*
X107995237Y-130687438D01*
X107995237Y-130687438D02*
X108042856Y-130735057D01*
X108042856Y-130735057D02*
X108138094Y-130877914D01*
X108138094Y-130877914D02*
X108185713Y-131068390D01*
X108185713Y-131068390D02*
X108185713Y-131449342D01*
X108185713Y-131449342D02*
X108138094Y-131544580D01*
X108138094Y-131544580D02*
X108090475Y-131592200D01*
X108090475Y-131592200D02*
X107995237Y-131639819D01*
X107995237Y-131639819D02*
X107804761Y-131639819D01*
X107804761Y-131639819D02*
X107709523Y-131592200D01*
X107709523Y-131592200D02*
X107661904Y-131544580D01*
X107661904Y-131544580D02*
X107614285Y-131449342D01*
X107614285Y-131449342D02*
X107614285Y-131211247D01*
X107614285Y-131211247D02*
X107661904Y-131116009D01*
X107661904Y-131116009D02*
X107709523Y-131068390D01*
X107709523Y-131068390D02*
X107804761Y-131020771D01*
X107804761Y-131020771D02*
X107995237Y-131020771D01*
X107995237Y-131020771D02*
X108090475Y-131068390D01*
X108090475Y-131068390D02*
X108138094Y-131116009D01*
X108138094Y-131116009D02*
X108185713Y-131211247D01*
X102466666Y-134744580D02*
X102514285Y-134792200D01*
X102514285Y-134792200D02*
X102657142Y-134839819D01*
X102657142Y-134839819D02*
X102752380Y-134839819D01*
X102752380Y-134839819D02*
X102895237Y-134792200D01*
X102895237Y-134792200D02*
X102990475Y-134696961D01*
X102990475Y-134696961D02*
X103038094Y-134601723D01*
X103038094Y-134601723D02*
X103085713Y-134411247D01*
X103085713Y-134411247D02*
X103085713Y-134268390D01*
X103085713Y-134268390D02*
X103038094Y-134077914D01*
X103038094Y-134077914D02*
X102990475Y-133982676D01*
X102990475Y-133982676D02*
X102895237Y-133887438D01*
X102895237Y-133887438D02*
X102752380Y-133839819D01*
X102752380Y-133839819D02*
X102657142Y-133839819D01*
X102657142Y-133839819D02*
X102514285Y-133887438D01*
X102514285Y-133887438D02*
X102466666Y-133935057D01*
X101514285Y-134839819D02*
X102085713Y-134839819D01*
X101799999Y-134839819D02*
X101799999Y-133839819D01*
X101799999Y-133839819D02*
X101895237Y-133982676D01*
X101895237Y-133982676D02*
X101990475Y-134077914D01*
X101990475Y-134077914D02*
X102085713Y-134125533D01*
X103354819Y-148469642D02*
X102878628Y-148136309D01*
X103354819Y-147898214D02*
X102354819Y-147898214D01*
X102354819Y-147898214D02*
X102354819Y-148279166D01*
X102354819Y-148279166D02*
X102402438Y-148374404D01*
X102402438Y-148374404D02*
X102450057Y-148422023D01*
X102450057Y-148422023D02*
X102545295Y-148469642D01*
X102545295Y-148469642D02*
X102688152Y-148469642D01*
X102688152Y-148469642D02*
X102783390Y-148422023D01*
X102783390Y-148422023D02*
X102831009Y-148374404D01*
X102831009Y-148374404D02*
X102878628Y-148279166D01*
X102878628Y-148279166D02*
X102878628Y-147898214D01*
X103354819Y-149422023D02*
X103354819Y-148850595D01*
X103354819Y-149136309D02*
X102354819Y-149136309D01*
X102354819Y-149136309D02*
X102497676Y-149041071D01*
X102497676Y-149041071D02*
X102592914Y-148945833D01*
X102592914Y-148945833D02*
X102640533Y-148850595D01*
X102783390Y-149993452D02*
X102735771Y-149898214D01*
X102735771Y-149898214D02*
X102688152Y-149850595D01*
X102688152Y-149850595D02*
X102592914Y-149802976D01*
X102592914Y-149802976D02*
X102545295Y-149802976D01*
X102545295Y-149802976D02*
X102450057Y-149850595D01*
X102450057Y-149850595D02*
X102402438Y-149898214D01*
X102402438Y-149898214D02*
X102354819Y-149993452D01*
X102354819Y-149993452D02*
X102354819Y-150183928D01*
X102354819Y-150183928D02*
X102402438Y-150279166D01*
X102402438Y-150279166D02*
X102450057Y-150326785D01*
X102450057Y-150326785D02*
X102545295Y-150374404D01*
X102545295Y-150374404D02*
X102592914Y-150374404D01*
X102592914Y-150374404D02*
X102688152Y-150326785D01*
X102688152Y-150326785D02*
X102735771Y-150279166D01*
X102735771Y-150279166D02*
X102783390Y-150183928D01*
X102783390Y-150183928D02*
X102783390Y-149993452D01*
X102783390Y-149993452D02*
X102831009Y-149898214D01*
X102831009Y-149898214D02*
X102878628Y-149850595D01*
X102878628Y-149850595D02*
X102973866Y-149802976D01*
X102973866Y-149802976D02*
X103164342Y-149802976D01*
X103164342Y-149802976D02*
X103259580Y-149850595D01*
X103259580Y-149850595D02*
X103307200Y-149898214D01*
X103307200Y-149898214D02*
X103354819Y-149993452D01*
X103354819Y-149993452D02*
X103354819Y-150183928D01*
X103354819Y-150183928D02*
X103307200Y-150279166D01*
X103307200Y-150279166D02*
X103259580Y-150326785D01*
X103259580Y-150326785D02*
X103164342Y-150374404D01*
X103164342Y-150374404D02*
X102973866Y-150374404D01*
X102973866Y-150374404D02*
X102878628Y-150326785D01*
X102878628Y-150326785D02*
X102831009Y-150279166D01*
X102831009Y-150279166D02*
X102783390Y-150183928D01*
X108092857Y-198704819D02*
X108426190Y-198228628D01*
X108664285Y-198704819D02*
X108664285Y-197704819D01*
X108664285Y-197704819D02*
X108283333Y-197704819D01*
X108283333Y-197704819D02*
X108188095Y-197752438D01*
X108188095Y-197752438D02*
X108140476Y-197800057D01*
X108140476Y-197800057D02*
X108092857Y-197895295D01*
X108092857Y-197895295D02*
X108092857Y-198038152D01*
X108092857Y-198038152D02*
X108140476Y-198133390D01*
X108140476Y-198133390D02*
X108188095Y-198181009D01*
X108188095Y-198181009D02*
X108283333Y-198228628D01*
X108283333Y-198228628D02*
X108664285Y-198228628D01*
X107140476Y-198704819D02*
X107711904Y-198704819D01*
X107426190Y-198704819D02*
X107426190Y-197704819D01*
X107426190Y-197704819D02*
X107521428Y-197847676D01*
X107521428Y-197847676D02*
X107616666Y-197942914D01*
X107616666Y-197942914D02*
X107711904Y-197990533D01*
X106807142Y-197704819D02*
X106188095Y-197704819D01*
X106188095Y-197704819D02*
X106521428Y-198085771D01*
X106521428Y-198085771D02*
X106378571Y-198085771D01*
X106378571Y-198085771D02*
X106283333Y-198133390D01*
X106283333Y-198133390D02*
X106235714Y-198181009D01*
X106235714Y-198181009D02*
X106188095Y-198276247D01*
X106188095Y-198276247D02*
X106188095Y-198514342D01*
X106188095Y-198514342D02*
X106235714Y-198609580D01*
X106235714Y-198609580D02*
X106283333Y-198657200D01*
X106283333Y-198657200D02*
X106378571Y-198704819D01*
X106378571Y-198704819D02*
X106664285Y-198704819D01*
X106664285Y-198704819D02*
X106759523Y-198657200D01*
X106759523Y-198657200D02*
X106807142Y-198609580D01*
X104454819Y-155733333D02*
X103978628Y-155400000D01*
X104454819Y-155161905D02*
X103454819Y-155161905D01*
X103454819Y-155161905D02*
X103454819Y-155542857D01*
X103454819Y-155542857D02*
X103502438Y-155638095D01*
X103502438Y-155638095D02*
X103550057Y-155685714D01*
X103550057Y-155685714D02*
X103645295Y-155733333D01*
X103645295Y-155733333D02*
X103788152Y-155733333D01*
X103788152Y-155733333D02*
X103883390Y-155685714D01*
X103883390Y-155685714D02*
X103931009Y-155638095D01*
X103931009Y-155638095D02*
X103978628Y-155542857D01*
X103978628Y-155542857D02*
X103978628Y-155161905D01*
X103883390Y-156304762D02*
X103835771Y-156209524D01*
X103835771Y-156209524D02*
X103788152Y-156161905D01*
X103788152Y-156161905D02*
X103692914Y-156114286D01*
X103692914Y-156114286D02*
X103645295Y-156114286D01*
X103645295Y-156114286D02*
X103550057Y-156161905D01*
X103550057Y-156161905D02*
X103502438Y-156209524D01*
X103502438Y-156209524D02*
X103454819Y-156304762D01*
X103454819Y-156304762D02*
X103454819Y-156495238D01*
X103454819Y-156495238D02*
X103502438Y-156590476D01*
X103502438Y-156590476D02*
X103550057Y-156638095D01*
X103550057Y-156638095D02*
X103645295Y-156685714D01*
X103645295Y-156685714D02*
X103692914Y-156685714D01*
X103692914Y-156685714D02*
X103788152Y-156638095D01*
X103788152Y-156638095D02*
X103835771Y-156590476D01*
X103835771Y-156590476D02*
X103883390Y-156495238D01*
X103883390Y-156495238D02*
X103883390Y-156304762D01*
X103883390Y-156304762D02*
X103931009Y-156209524D01*
X103931009Y-156209524D02*
X103978628Y-156161905D01*
X103978628Y-156161905D02*
X104073866Y-156114286D01*
X104073866Y-156114286D02*
X104264342Y-156114286D01*
X104264342Y-156114286D02*
X104359580Y-156161905D01*
X104359580Y-156161905D02*
X104407200Y-156209524D01*
X104407200Y-156209524D02*
X104454819Y-156304762D01*
X104454819Y-156304762D02*
X104454819Y-156495238D01*
X104454819Y-156495238D02*
X104407200Y-156590476D01*
X104407200Y-156590476D02*
X104359580Y-156638095D01*
X104359580Y-156638095D02*
X104264342Y-156685714D01*
X104264342Y-156685714D02*
X104073866Y-156685714D01*
X104073866Y-156685714D02*
X103978628Y-156638095D01*
X103978628Y-156638095D02*
X103931009Y-156590476D01*
X103931009Y-156590476D02*
X103883390Y-156495238D01*
X110861904Y-150054819D02*
X110861904Y-150864342D01*
X110861904Y-150864342D02*
X110814285Y-150959580D01*
X110814285Y-150959580D02*
X110766666Y-151007200D01*
X110766666Y-151007200D02*
X110671428Y-151054819D01*
X110671428Y-151054819D02*
X110480952Y-151054819D01*
X110480952Y-151054819D02*
X110385714Y-151007200D01*
X110385714Y-151007200D02*
X110338095Y-150959580D01*
X110338095Y-150959580D02*
X110290476Y-150864342D01*
X110290476Y-150864342D02*
X110290476Y-150054819D01*
X109385714Y-150388152D02*
X109385714Y-151054819D01*
X109623809Y-150007200D02*
X109861904Y-150721485D01*
X109861904Y-150721485D02*
X109242857Y-150721485D01*
X111011904Y-179054819D02*
X111011904Y-179864342D01*
X111011904Y-179864342D02*
X110964285Y-179959580D01*
X110964285Y-179959580D02*
X110916666Y-180007200D01*
X110916666Y-180007200D02*
X110821428Y-180054819D01*
X110821428Y-180054819D02*
X110630952Y-180054819D01*
X110630952Y-180054819D02*
X110535714Y-180007200D01*
X110535714Y-180007200D02*
X110488095Y-179959580D01*
X110488095Y-179959580D02*
X110440476Y-179864342D01*
X110440476Y-179864342D02*
X110440476Y-179054819D01*
X109440476Y-180054819D02*
X110011904Y-180054819D01*
X109726190Y-180054819D02*
X109726190Y-179054819D01*
X109726190Y-179054819D02*
X109821428Y-179197676D01*
X109821428Y-179197676D02*
X109916666Y-179292914D01*
X109916666Y-179292914D02*
X110011904Y-179340533D01*
X107666666Y-163959580D02*
X107714285Y-164007200D01*
X107714285Y-164007200D02*
X107857142Y-164054819D01*
X107857142Y-164054819D02*
X107952380Y-164054819D01*
X107952380Y-164054819D02*
X108095237Y-164007200D01*
X108095237Y-164007200D02*
X108190475Y-163911961D01*
X108190475Y-163911961D02*
X108238094Y-163816723D01*
X108238094Y-163816723D02*
X108285713Y-163626247D01*
X108285713Y-163626247D02*
X108285713Y-163483390D01*
X108285713Y-163483390D02*
X108238094Y-163292914D01*
X108238094Y-163292914D02*
X108190475Y-163197676D01*
X108190475Y-163197676D02*
X108095237Y-163102438D01*
X108095237Y-163102438D02*
X107952380Y-163054819D01*
X107952380Y-163054819D02*
X107857142Y-163054819D01*
X107857142Y-163054819D02*
X107714285Y-163102438D01*
X107714285Y-163102438D02*
X107666666Y-163150057D01*
X106761904Y-163054819D02*
X107238094Y-163054819D01*
X107238094Y-163054819D02*
X107285713Y-163531009D01*
X107285713Y-163531009D02*
X107238094Y-163483390D01*
X107238094Y-163483390D02*
X107142856Y-163435771D01*
X107142856Y-163435771D02*
X106904761Y-163435771D01*
X106904761Y-163435771D02*
X106809523Y-163483390D01*
X106809523Y-163483390D02*
X106761904Y-163531009D01*
X106761904Y-163531009D02*
X106714285Y-163626247D01*
X106714285Y-163626247D02*
X106714285Y-163864342D01*
X106714285Y-163864342D02*
X106761904Y-163959580D01*
X106761904Y-163959580D02*
X106809523Y-164007200D01*
X106809523Y-164007200D02*
X106904761Y-164054819D01*
X106904761Y-164054819D02*
X107142856Y-164054819D01*
X107142856Y-164054819D02*
X107238094Y-164007200D01*
X107238094Y-164007200D02*
X107285713Y-163959580D01*
X106942857Y-142054819D02*
X107276190Y-141578628D01*
X107514285Y-142054819D02*
X107514285Y-141054819D01*
X107514285Y-141054819D02*
X107133333Y-141054819D01*
X107133333Y-141054819D02*
X107038095Y-141102438D01*
X107038095Y-141102438D02*
X106990476Y-141150057D01*
X106990476Y-141150057D02*
X106942857Y-141245295D01*
X106942857Y-141245295D02*
X106942857Y-141388152D01*
X106942857Y-141388152D02*
X106990476Y-141483390D01*
X106990476Y-141483390D02*
X107038095Y-141531009D01*
X107038095Y-141531009D02*
X107133333Y-141578628D01*
X107133333Y-141578628D02*
X107514285Y-141578628D01*
X105990476Y-142054819D02*
X106561904Y-142054819D01*
X106276190Y-142054819D02*
X106276190Y-141054819D01*
X106276190Y-141054819D02*
X106371428Y-141197676D01*
X106371428Y-141197676D02*
X106466666Y-141292914D01*
X106466666Y-141292914D02*
X106561904Y-141340533D01*
X105514285Y-142054819D02*
X105323809Y-142054819D01*
X105323809Y-142054819D02*
X105228571Y-142007200D01*
X105228571Y-142007200D02*
X105180952Y-141959580D01*
X105180952Y-141959580D02*
X105085714Y-141816723D01*
X105085714Y-141816723D02*
X105038095Y-141626247D01*
X105038095Y-141626247D02*
X105038095Y-141245295D01*
X105038095Y-141245295D02*
X105085714Y-141150057D01*
X105085714Y-141150057D02*
X105133333Y-141102438D01*
X105133333Y-141102438D02*
X105228571Y-141054819D01*
X105228571Y-141054819D02*
X105419047Y-141054819D01*
X105419047Y-141054819D02*
X105514285Y-141102438D01*
X105514285Y-141102438D02*
X105561904Y-141150057D01*
X105561904Y-141150057D02*
X105609523Y-141245295D01*
X105609523Y-141245295D02*
X105609523Y-141483390D01*
X105609523Y-141483390D02*
X105561904Y-141578628D01*
X105561904Y-141578628D02*
X105514285Y-141626247D01*
X105514285Y-141626247D02*
X105419047Y-141673866D01*
X105419047Y-141673866D02*
X105228571Y-141673866D01*
X105228571Y-141673866D02*
X105133333Y-141626247D01*
X105133333Y-141626247D02*
X105085714Y-141578628D01*
X105085714Y-141578628D02*
X105038095Y-141483390D01*
X110904819Y-198107142D02*
X110428628Y-197773809D01*
X110904819Y-197535714D02*
X109904819Y-197535714D01*
X109904819Y-197535714D02*
X109904819Y-197916666D01*
X109904819Y-197916666D02*
X109952438Y-198011904D01*
X109952438Y-198011904D02*
X110000057Y-198059523D01*
X110000057Y-198059523D02*
X110095295Y-198107142D01*
X110095295Y-198107142D02*
X110238152Y-198107142D01*
X110238152Y-198107142D02*
X110333390Y-198059523D01*
X110333390Y-198059523D02*
X110381009Y-198011904D01*
X110381009Y-198011904D02*
X110428628Y-197916666D01*
X110428628Y-197916666D02*
X110428628Y-197535714D01*
X110904819Y-199059523D02*
X110904819Y-198488095D01*
X110904819Y-198773809D02*
X109904819Y-198773809D01*
X109904819Y-198773809D02*
X110047676Y-198678571D01*
X110047676Y-198678571D02*
X110142914Y-198583333D01*
X110142914Y-198583333D02*
X110190533Y-198488095D01*
X110000057Y-199440476D02*
X109952438Y-199488095D01*
X109952438Y-199488095D02*
X109904819Y-199583333D01*
X109904819Y-199583333D02*
X109904819Y-199821428D01*
X109904819Y-199821428D02*
X109952438Y-199916666D01*
X109952438Y-199916666D02*
X110000057Y-199964285D01*
X110000057Y-199964285D02*
X110095295Y-200011904D01*
X110095295Y-200011904D02*
X110190533Y-200011904D01*
X110190533Y-200011904D02*
X110333390Y-199964285D01*
X110333390Y-199964285D02*
X110904819Y-199392857D01*
X110904819Y-199392857D02*
X110904819Y-200011904D01*
X117866666Y-134344580D02*
X117914285Y-134392200D01*
X117914285Y-134392200D02*
X118057142Y-134439819D01*
X118057142Y-134439819D02*
X118152380Y-134439819D01*
X118152380Y-134439819D02*
X118295237Y-134392200D01*
X118295237Y-134392200D02*
X118390475Y-134296961D01*
X118390475Y-134296961D02*
X118438094Y-134201723D01*
X118438094Y-134201723D02*
X118485713Y-134011247D01*
X118485713Y-134011247D02*
X118485713Y-133868390D01*
X118485713Y-133868390D02*
X118438094Y-133677914D01*
X118438094Y-133677914D02*
X118390475Y-133582676D01*
X118390475Y-133582676D02*
X118295237Y-133487438D01*
X118295237Y-133487438D02*
X118152380Y-133439819D01*
X118152380Y-133439819D02*
X118057142Y-133439819D01*
X118057142Y-133439819D02*
X117914285Y-133487438D01*
X117914285Y-133487438D02*
X117866666Y-133535057D01*
X117485713Y-133535057D02*
X117438094Y-133487438D01*
X117438094Y-133487438D02*
X117342856Y-133439819D01*
X117342856Y-133439819D02*
X117104761Y-133439819D01*
X117104761Y-133439819D02*
X117009523Y-133487438D01*
X117009523Y-133487438D02*
X116961904Y-133535057D01*
X116961904Y-133535057D02*
X116914285Y-133630295D01*
X116914285Y-133630295D02*
X116914285Y-133725533D01*
X116914285Y-133725533D02*
X116961904Y-133868390D01*
X116961904Y-133868390D02*
X117533332Y-134439819D01*
X117533332Y-134439819D02*
X116914285Y-134439819D01*
X114566666Y-139359580D02*
X114614285Y-139407200D01*
X114614285Y-139407200D02*
X114757142Y-139454819D01*
X114757142Y-139454819D02*
X114852380Y-139454819D01*
X114852380Y-139454819D02*
X114995237Y-139407200D01*
X114995237Y-139407200D02*
X115090475Y-139311961D01*
X115090475Y-139311961D02*
X115138094Y-139216723D01*
X115138094Y-139216723D02*
X115185713Y-139026247D01*
X115185713Y-139026247D02*
X115185713Y-138883390D01*
X115185713Y-138883390D02*
X115138094Y-138692914D01*
X115138094Y-138692914D02*
X115090475Y-138597676D01*
X115090475Y-138597676D02*
X114995237Y-138502438D01*
X114995237Y-138502438D02*
X114852380Y-138454819D01*
X114852380Y-138454819D02*
X114757142Y-138454819D01*
X114757142Y-138454819D02*
X114614285Y-138502438D01*
X114614285Y-138502438D02*
X114566666Y-138550057D01*
X114233332Y-138454819D02*
X113566666Y-138454819D01*
X113566666Y-138454819D02*
X113995237Y-139454819D01*
X111666666Y-131544580D02*
X111714285Y-131592200D01*
X111714285Y-131592200D02*
X111857142Y-131639819D01*
X111857142Y-131639819D02*
X111952380Y-131639819D01*
X111952380Y-131639819D02*
X112095237Y-131592200D01*
X112095237Y-131592200D02*
X112190475Y-131496961D01*
X112190475Y-131496961D02*
X112238094Y-131401723D01*
X112238094Y-131401723D02*
X112285713Y-131211247D01*
X112285713Y-131211247D02*
X112285713Y-131068390D01*
X112285713Y-131068390D02*
X112238094Y-130877914D01*
X112238094Y-130877914D02*
X112190475Y-130782676D01*
X112190475Y-130782676D02*
X112095237Y-130687438D01*
X112095237Y-130687438D02*
X111952380Y-130639819D01*
X111952380Y-130639819D02*
X111857142Y-130639819D01*
X111857142Y-130639819D02*
X111714285Y-130687438D01*
X111714285Y-130687438D02*
X111666666Y-130735057D01*
X111333332Y-130639819D02*
X110714285Y-130639819D01*
X110714285Y-130639819D02*
X111047618Y-131020771D01*
X111047618Y-131020771D02*
X110904761Y-131020771D01*
X110904761Y-131020771D02*
X110809523Y-131068390D01*
X110809523Y-131068390D02*
X110761904Y-131116009D01*
X110761904Y-131116009D02*
X110714285Y-131211247D01*
X110714285Y-131211247D02*
X110714285Y-131449342D01*
X110714285Y-131449342D02*
X110761904Y-131544580D01*
X110761904Y-131544580D02*
X110809523Y-131592200D01*
X110809523Y-131592200D02*
X110904761Y-131639819D01*
X110904761Y-131639819D02*
X111190475Y-131639819D01*
X111190475Y-131639819D02*
X111285713Y-131592200D01*
X111285713Y-131592200D02*
X111333332Y-131544580D01*
X112966666Y-164154819D02*
X113299999Y-163678628D01*
X113538094Y-164154819D02*
X113538094Y-163154819D01*
X113538094Y-163154819D02*
X113157142Y-163154819D01*
X113157142Y-163154819D02*
X113061904Y-163202438D01*
X113061904Y-163202438D02*
X113014285Y-163250057D01*
X113014285Y-163250057D02*
X112966666Y-163345295D01*
X112966666Y-163345295D02*
X112966666Y-163488152D01*
X112966666Y-163488152D02*
X113014285Y-163583390D01*
X113014285Y-163583390D02*
X113061904Y-163631009D01*
X113061904Y-163631009D02*
X113157142Y-163678628D01*
X113157142Y-163678628D02*
X113538094Y-163678628D01*
X112490475Y-164154819D02*
X112299999Y-164154819D01*
X112299999Y-164154819D02*
X112204761Y-164107200D01*
X112204761Y-164107200D02*
X112157142Y-164059580D01*
X112157142Y-164059580D02*
X112061904Y-163916723D01*
X112061904Y-163916723D02*
X112014285Y-163726247D01*
X112014285Y-163726247D02*
X112014285Y-163345295D01*
X112014285Y-163345295D02*
X112061904Y-163250057D01*
X112061904Y-163250057D02*
X112109523Y-163202438D01*
X112109523Y-163202438D02*
X112204761Y-163154819D01*
X112204761Y-163154819D02*
X112395237Y-163154819D01*
X112395237Y-163154819D02*
X112490475Y-163202438D01*
X112490475Y-163202438D02*
X112538094Y-163250057D01*
X112538094Y-163250057D02*
X112585713Y-163345295D01*
X112585713Y-163345295D02*
X112585713Y-163583390D01*
X112585713Y-163583390D02*
X112538094Y-163678628D01*
X112538094Y-163678628D02*
X112490475Y-163726247D01*
X112490475Y-163726247D02*
X112395237Y-163773866D01*
X112395237Y-163773866D02*
X112204761Y-163773866D01*
X112204761Y-163773866D02*
X112109523Y-163726247D01*
X112109523Y-163726247D02*
X112061904Y-163678628D01*
X112061904Y-163678628D02*
X112014285Y-163583390D01*
X115938094Y-130704819D02*
X115938094Y-129704819D01*
X115938094Y-129704819D02*
X115699999Y-129704819D01*
X115699999Y-129704819D02*
X115557142Y-129752438D01*
X115557142Y-129752438D02*
X115461904Y-129847676D01*
X115461904Y-129847676D02*
X115414285Y-129942914D01*
X115414285Y-129942914D02*
X115366666Y-130133390D01*
X115366666Y-130133390D02*
X115366666Y-130276247D01*
X115366666Y-130276247D02*
X115414285Y-130466723D01*
X115414285Y-130466723D02*
X115461904Y-130561961D01*
X115461904Y-130561961D02*
X115557142Y-130657200D01*
X115557142Y-130657200D02*
X115699999Y-130704819D01*
X115699999Y-130704819D02*
X115938094Y-130704819D01*
X114414285Y-130704819D02*
X114985713Y-130704819D01*
X114699999Y-130704819D02*
X114699999Y-129704819D01*
X114699999Y-129704819D02*
X114795237Y-129847676D01*
X114795237Y-129847676D02*
X114890475Y-129942914D01*
X114890475Y-129942914D02*
X114985713Y-129990533D01*
D10*
X117756266Y-112595095D02*
X117756266Y-113357000D01*
X118137219Y-112976047D02*
X117375314Y-112976047D01*
X118137219Y-114356999D02*
X118137219Y-113785571D01*
X118137219Y-114071285D02*
X117137219Y-114071285D01*
X117137219Y-114071285D02*
X117280076Y-113976047D01*
X117280076Y-113976047D02*
X117375314Y-113880809D01*
X117375314Y-113880809D02*
X117422933Y-113785571D01*
X117232457Y-114737952D02*
X117184838Y-114785571D01*
X117184838Y-114785571D02*
X117137219Y-114880809D01*
X117137219Y-114880809D02*
X117137219Y-115118904D01*
X117137219Y-115118904D02*
X117184838Y-115214142D01*
X117184838Y-115214142D02*
X117232457Y-115261761D01*
X117232457Y-115261761D02*
X117327695Y-115309380D01*
X117327695Y-115309380D02*
X117422933Y-115309380D01*
X117422933Y-115309380D02*
X117565790Y-115261761D01*
X117565790Y-115261761D02*
X118137219Y-114690333D01*
X118137219Y-114690333D02*
X118137219Y-115309380D01*
X117137219Y-115595095D02*
X118137219Y-115928428D01*
X118137219Y-115928428D02*
X117137219Y-116261761D01*
D11*
X105857142Y-119807200D02*
X105714285Y-119854819D01*
X105714285Y-119854819D02*
X105476190Y-119854819D01*
X105476190Y-119854819D02*
X105380952Y-119807200D01*
X105380952Y-119807200D02*
X105333333Y-119759580D01*
X105333333Y-119759580D02*
X105285714Y-119664342D01*
X105285714Y-119664342D02*
X105285714Y-119569104D01*
X105285714Y-119569104D02*
X105333333Y-119473866D01*
X105333333Y-119473866D02*
X105380952Y-119426247D01*
X105380952Y-119426247D02*
X105476190Y-119378628D01*
X105476190Y-119378628D02*
X105666666Y-119331009D01*
X105666666Y-119331009D02*
X105761904Y-119283390D01*
X105761904Y-119283390D02*
X105809523Y-119235771D01*
X105809523Y-119235771D02*
X105857142Y-119140533D01*
X105857142Y-119140533D02*
X105857142Y-119045295D01*
X105857142Y-119045295D02*
X105809523Y-118950057D01*
X105809523Y-118950057D02*
X105761904Y-118902438D01*
X105761904Y-118902438D02*
X105666666Y-118854819D01*
X105666666Y-118854819D02*
X105428571Y-118854819D01*
X105428571Y-118854819D02*
X105285714Y-118902438D01*
X104999999Y-118854819D02*
X104428571Y-118854819D01*
X104714285Y-119854819D02*
X104714285Y-118854819D01*
X103523809Y-119854819D02*
X103857142Y-119378628D01*
X104095237Y-119854819D02*
X104095237Y-118854819D01*
X104095237Y-118854819D02*
X103714285Y-118854819D01*
X103714285Y-118854819D02*
X103619047Y-118902438D01*
X103619047Y-118902438D02*
X103571428Y-118950057D01*
X103571428Y-118950057D02*
X103523809Y-119045295D01*
X103523809Y-119045295D02*
X103523809Y-119188152D01*
X103523809Y-119188152D02*
X103571428Y-119283390D01*
X103571428Y-119283390D02*
X103619047Y-119331009D01*
X103619047Y-119331009D02*
X103714285Y-119378628D01*
X103714285Y-119378628D02*
X104095237Y-119378628D01*
X103095237Y-119854819D02*
X103095237Y-118854819D01*
X102619047Y-119854819D02*
X102619047Y-118854819D01*
X102619047Y-118854819D02*
X102238095Y-118854819D01*
X102238095Y-118854819D02*
X102142857Y-118902438D01*
X102142857Y-118902438D02*
X102095238Y-118950057D01*
X102095238Y-118950057D02*
X102047619Y-119045295D01*
X102047619Y-119045295D02*
X102047619Y-119188152D01*
X102047619Y-119188152D02*
X102095238Y-119283390D01*
X102095238Y-119283390D02*
X102142857Y-119331009D01*
X102142857Y-119331009D02*
X102238095Y-119378628D01*
X102238095Y-119378628D02*
X102619047Y-119378628D01*
X101619047Y-119331009D02*
X101285714Y-119331009D01*
X101142857Y-119854819D02*
X101619047Y-119854819D01*
X101619047Y-119854819D02*
X101619047Y-118854819D01*
X101619047Y-118854819D02*
X101142857Y-118854819D01*
D10*
X102386266Y-112595095D02*
X102386266Y-113357000D01*
X102767219Y-114356999D02*
X102767219Y-113785571D01*
X102767219Y-114071285D02*
X101767219Y-114071285D01*
X101767219Y-114071285D02*
X101910076Y-113976047D01*
X101910076Y-113976047D02*
X102005314Y-113880809D01*
X102005314Y-113880809D02*
X102052933Y-113785571D01*
X101862457Y-114737952D02*
X101814838Y-114785571D01*
X101814838Y-114785571D02*
X101767219Y-114880809D01*
X101767219Y-114880809D02*
X101767219Y-115118904D01*
X101767219Y-115118904D02*
X101814838Y-115214142D01*
X101814838Y-115214142D02*
X101862457Y-115261761D01*
X101862457Y-115261761D02*
X101957695Y-115309380D01*
X101957695Y-115309380D02*
X102052933Y-115309380D01*
X102052933Y-115309380D02*
X102195790Y-115261761D01*
X102195790Y-115261761D02*
X102767219Y-114690333D01*
X102767219Y-114690333D02*
X102767219Y-115309380D01*
X101767219Y-115595095D02*
X102767219Y-115928428D01*
X102767219Y-115928428D02*
X101767219Y-116261761D01*
D11*
X107066666Y-187454819D02*
X107399999Y-186978628D01*
X107638094Y-187454819D02*
X107638094Y-186454819D01*
X107638094Y-186454819D02*
X107257142Y-186454819D01*
X107257142Y-186454819D02*
X107161904Y-186502438D01*
X107161904Y-186502438D02*
X107114285Y-186550057D01*
X107114285Y-186550057D02*
X107066666Y-186645295D01*
X107066666Y-186645295D02*
X107066666Y-186788152D01*
X107066666Y-186788152D02*
X107114285Y-186883390D01*
X107114285Y-186883390D02*
X107161904Y-186931009D01*
X107161904Y-186931009D02*
X107257142Y-186978628D01*
X107257142Y-186978628D02*
X107638094Y-186978628D01*
X106114285Y-187454819D02*
X106685713Y-187454819D01*
X106399999Y-187454819D02*
X106399999Y-186454819D01*
X106399999Y-186454819D02*
X106495237Y-186597676D01*
X106495237Y-186597676D02*
X106590475Y-186692914D01*
X106590475Y-186692914D02*
X106685713Y-186740533D01*
X105261904Y-163854819D02*
X105261904Y-164664342D01*
X105261904Y-164664342D02*
X105214285Y-164759580D01*
X105214285Y-164759580D02*
X105166666Y-164807200D01*
X105166666Y-164807200D02*
X105071428Y-164854819D01*
X105071428Y-164854819D02*
X104880952Y-164854819D01*
X104880952Y-164854819D02*
X104785714Y-164807200D01*
X104785714Y-164807200D02*
X104738095Y-164759580D01*
X104738095Y-164759580D02*
X104690476Y-164664342D01*
X104690476Y-164664342D02*
X104690476Y-163854819D01*
X104261904Y-163950057D02*
X104214285Y-163902438D01*
X104214285Y-163902438D02*
X104119047Y-163854819D01*
X104119047Y-163854819D02*
X103880952Y-163854819D01*
X103880952Y-163854819D02*
X103785714Y-163902438D01*
X103785714Y-163902438D02*
X103738095Y-163950057D01*
X103738095Y-163950057D02*
X103690476Y-164045295D01*
X103690476Y-164045295D02*
X103690476Y-164140533D01*
X103690476Y-164140533D02*
X103738095Y-164283390D01*
X103738095Y-164283390D02*
X104309523Y-164854819D01*
X104309523Y-164854819D02*
X103690476Y-164854819D01*
X102166666Y-144009580D02*
X102214285Y-144057200D01*
X102214285Y-144057200D02*
X102357142Y-144104819D01*
X102357142Y-144104819D02*
X102452380Y-144104819D01*
X102452380Y-144104819D02*
X102595237Y-144057200D01*
X102595237Y-144057200D02*
X102690475Y-143961961D01*
X102690475Y-143961961D02*
X102738094Y-143866723D01*
X102738094Y-143866723D02*
X102785713Y-143676247D01*
X102785713Y-143676247D02*
X102785713Y-143533390D01*
X102785713Y-143533390D02*
X102738094Y-143342914D01*
X102738094Y-143342914D02*
X102690475Y-143247676D01*
X102690475Y-143247676D02*
X102595237Y-143152438D01*
X102595237Y-143152438D02*
X102452380Y-143104819D01*
X102452380Y-143104819D02*
X102357142Y-143104819D01*
X102357142Y-143104819D02*
X102214285Y-143152438D01*
X102214285Y-143152438D02*
X102166666Y-143200057D01*
X101595237Y-143533390D02*
X101690475Y-143485771D01*
X101690475Y-143485771D02*
X101738094Y-143438152D01*
X101738094Y-143438152D02*
X101785713Y-143342914D01*
X101785713Y-143342914D02*
X101785713Y-143295295D01*
X101785713Y-143295295D02*
X101738094Y-143200057D01*
X101738094Y-143200057D02*
X101690475Y-143152438D01*
X101690475Y-143152438D02*
X101595237Y-143104819D01*
X101595237Y-143104819D02*
X101404761Y-143104819D01*
X101404761Y-143104819D02*
X101309523Y-143152438D01*
X101309523Y-143152438D02*
X101261904Y-143200057D01*
X101261904Y-143200057D02*
X101214285Y-143295295D01*
X101214285Y-143295295D02*
X101214285Y-143342914D01*
X101214285Y-143342914D02*
X101261904Y-143438152D01*
X101261904Y-143438152D02*
X101309523Y-143485771D01*
X101309523Y-143485771D02*
X101404761Y-143533390D01*
X101404761Y-143533390D02*
X101595237Y-143533390D01*
X101595237Y-143533390D02*
X101690475Y-143581009D01*
X101690475Y-143581009D02*
X101738094Y-143628628D01*
X101738094Y-143628628D02*
X101785713Y-143723866D01*
X101785713Y-143723866D02*
X101785713Y-143914342D01*
X101785713Y-143914342D02*
X101738094Y-144009580D01*
X101738094Y-144009580D02*
X101690475Y-144057200D01*
X101690475Y-144057200D02*
X101595237Y-144104819D01*
X101595237Y-144104819D02*
X101404761Y-144104819D01*
X101404761Y-144104819D02*
X101309523Y-144057200D01*
X101309523Y-144057200D02*
X101261904Y-144009580D01*
X101261904Y-144009580D02*
X101214285Y-143914342D01*
X101214285Y-143914342D02*
X101214285Y-143723866D01*
X101214285Y-143723866D02*
X101261904Y-143628628D01*
X101261904Y-143628628D02*
X101309523Y-143581009D01*
X101309523Y-143581009D02*
X101404761Y-143533390D01*
X110761904Y-211954819D02*
X110761904Y-212764342D01*
X110761904Y-212764342D02*
X110714285Y-212859580D01*
X110714285Y-212859580D02*
X110666666Y-212907200D01*
X110666666Y-212907200D02*
X110571428Y-212954819D01*
X110571428Y-212954819D02*
X110380952Y-212954819D01*
X110380952Y-212954819D02*
X110285714Y-212907200D01*
X110285714Y-212907200D02*
X110238095Y-212859580D01*
X110238095Y-212859580D02*
X110190476Y-212764342D01*
X110190476Y-212764342D02*
X110190476Y-211954819D01*
X109809523Y-211954819D02*
X109190476Y-211954819D01*
X109190476Y-211954819D02*
X109523809Y-212335771D01*
X109523809Y-212335771D02*
X109380952Y-212335771D01*
X109380952Y-212335771D02*
X109285714Y-212383390D01*
X109285714Y-212383390D02*
X109238095Y-212431009D01*
X109238095Y-212431009D02*
X109190476Y-212526247D01*
X109190476Y-212526247D02*
X109190476Y-212764342D01*
X109190476Y-212764342D02*
X109238095Y-212859580D01*
X109238095Y-212859580D02*
X109285714Y-212907200D01*
X109285714Y-212907200D02*
X109380952Y-212954819D01*
X109380952Y-212954819D02*
X109666666Y-212954819D01*
X109666666Y-212954819D02*
X109761904Y-212907200D01*
X109761904Y-212907200D02*
X109809523Y-212859580D01*
X104842857Y-145254819D02*
X105176190Y-144778628D01*
X105414285Y-145254819D02*
X105414285Y-144254819D01*
X105414285Y-144254819D02*
X105033333Y-144254819D01*
X105033333Y-144254819D02*
X104938095Y-144302438D01*
X104938095Y-144302438D02*
X104890476Y-144350057D01*
X104890476Y-144350057D02*
X104842857Y-144445295D01*
X104842857Y-144445295D02*
X104842857Y-144588152D01*
X104842857Y-144588152D02*
X104890476Y-144683390D01*
X104890476Y-144683390D02*
X104938095Y-144731009D01*
X104938095Y-144731009D02*
X105033333Y-144778628D01*
X105033333Y-144778628D02*
X105414285Y-144778628D01*
X103890476Y-145254819D02*
X104461904Y-145254819D01*
X104176190Y-145254819D02*
X104176190Y-144254819D01*
X104176190Y-144254819D02*
X104271428Y-144397676D01*
X104271428Y-144397676D02*
X104366666Y-144492914D01*
X104366666Y-144492914D02*
X104461904Y-144540533D01*
X103557142Y-144254819D02*
X102890476Y-144254819D01*
X102890476Y-144254819D02*
X103319047Y-145254819D01*
X105666666Y-139359580D02*
X105714285Y-139407200D01*
X105714285Y-139407200D02*
X105857142Y-139454819D01*
X105857142Y-139454819D02*
X105952380Y-139454819D01*
X105952380Y-139454819D02*
X106095237Y-139407200D01*
X106095237Y-139407200D02*
X106190475Y-139311961D01*
X106190475Y-139311961D02*
X106238094Y-139216723D01*
X106238094Y-139216723D02*
X106285713Y-139026247D01*
X106285713Y-139026247D02*
X106285713Y-138883390D01*
X106285713Y-138883390D02*
X106238094Y-138692914D01*
X106238094Y-138692914D02*
X106190475Y-138597676D01*
X106190475Y-138597676D02*
X106095237Y-138502438D01*
X106095237Y-138502438D02*
X105952380Y-138454819D01*
X105952380Y-138454819D02*
X105857142Y-138454819D01*
X105857142Y-138454819D02*
X105714285Y-138502438D01*
X105714285Y-138502438D02*
X105666666Y-138550057D01*
X104809523Y-138788152D02*
X104809523Y-139454819D01*
X105047618Y-138407200D02*
X105285713Y-139121485D01*
X105285713Y-139121485D02*
X104666666Y-139121485D01*
X107261904Y-121154819D02*
X107261904Y-121964342D01*
X107261904Y-121964342D02*
X107214285Y-122059580D01*
X107214285Y-122059580D02*
X107166666Y-122107200D01*
X107166666Y-122107200D02*
X107071428Y-122154819D01*
X107071428Y-122154819D02*
X106880952Y-122154819D01*
X106880952Y-122154819D02*
X106785714Y-122107200D01*
X106785714Y-122107200D02*
X106738095Y-122059580D01*
X106738095Y-122059580D02*
X106690476Y-121964342D01*
X106690476Y-121964342D02*
X106690476Y-121154819D01*
X106309523Y-121154819D02*
X105642857Y-121154819D01*
X105642857Y-121154819D02*
X106071428Y-122154819D01*
X113142857Y-190654819D02*
X113476190Y-190178628D01*
X113714285Y-190654819D02*
X113714285Y-189654819D01*
X113714285Y-189654819D02*
X113333333Y-189654819D01*
X113333333Y-189654819D02*
X113238095Y-189702438D01*
X113238095Y-189702438D02*
X113190476Y-189750057D01*
X113190476Y-189750057D02*
X113142857Y-189845295D01*
X113142857Y-189845295D02*
X113142857Y-189988152D01*
X113142857Y-189988152D02*
X113190476Y-190083390D01*
X113190476Y-190083390D02*
X113238095Y-190131009D01*
X113238095Y-190131009D02*
X113333333Y-190178628D01*
X113333333Y-190178628D02*
X113714285Y-190178628D01*
X112190476Y-190654819D02*
X112761904Y-190654819D01*
X112476190Y-190654819D02*
X112476190Y-189654819D01*
X112476190Y-189654819D02*
X112571428Y-189797676D01*
X112571428Y-189797676D02*
X112666666Y-189892914D01*
X112666666Y-189892914D02*
X112761904Y-189940533D01*
X111571428Y-189654819D02*
X111476190Y-189654819D01*
X111476190Y-189654819D02*
X111380952Y-189702438D01*
X111380952Y-189702438D02*
X111333333Y-189750057D01*
X111333333Y-189750057D02*
X111285714Y-189845295D01*
X111285714Y-189845295D02*
X111238095Y-190035771D01*
X111238095Y-190035771D02*
X111238095Y-190273866D01*
X111238095Y-190273866D02*
X111285714Y-190464342D01*
X111285714Y-190464342D02*
X111333333Y-190559580D01*
X111333333Y-190559580D02*
X111380952Y-190607200D01*
X111380952Y-190607200D02*
X111476190Y-190654819D01*
X111476190Y-190654819D02*
X111571428Y-190654819D01*
X111571428Y-190654819D02*
X111666666Y-190607200D01*
X111666666Y-190607200D02*
X111714285Y-190559580D01*
X111714285Y-190559580D02*
X111761904Y-190464342D01*
X111761904Y-190464342D02*
X111809523Y-190273866D01*
X111809523Y-190273866D02*
X111809523Y-190035771D01*
X111809523Y-190035771D02*
X111761904Y-189845295D01*
X111761904Y-189845295D02*
X111714285Y-189750057D01*
X111714285Y-189750057D02*
X111666666Y-189702438D01*
X111666666Y-189702438D02*
X111571428Y-189654819D01*
X103366666Y-185654819D02*
X103699999Y-185178628D01*
X103938094Y-185654819D02*
X103938094Y-184654819D01*
X103938094Y-184654819D02*
X103557142Y-184654819D01*
X103557142Y-184654819D02*
X103461904Y-184702438D01*
X103461904Y-184702438D02*
X103414285Y-184750057D01*
X103414285Y-184750057D02*
X103366666Y-184845295D01*
X103366666Y-184845295D02*
X103366666Y-184988152D01*
X103366666Y-184988152D02*
X103414285Y-185083390D01*
X103414285Y-185083390D02*
X103461904Y-185131009D01*
X103461904Y-185131009D02*
X103557142Y-185178628D01*
X103557142Y-185178628D02*
X103938094Y-185178628D01*
X103033332Y-184654819D02*
X102414285Y-184654819D01*
X102414285Y-184654819D02*
X102747618Y-185035771D01*
X102747618Y-185035771D02*
X102604761Y-185035771D01*
X102604761Y-185035771D02*
X102509523Y-185083390D01*
X102509523Y-185083390D02*
X102461904Y-185131009D01*
X102461904Y-185131009D02*
X102414285Y-185226247D01*
X102414285Y-185226247D02*
X102414285Y-185464342D01*
X102414285Y-185464342D02*
X102461904Y-185559580D01*
X102461904Y-185559580D02*
X102509523Y-185607200D01*
X102509523Y-185607200D02*
X102604761Y-185654819D01*
X102604761Y-185654819D02*
X102890475Y-185654819D01*
X102890475Y-185654819D02*
X102985713Y-185607200D01*
X102985713Y-185607200D02*
X103033332Y-185559580D01*
X115066666Y-184654819D02*
X115399999Y-184178628D01*
X115638094Y-184654819D02*
X115638094Y-183654819D01*
X115638094Y-183654819D02*
X115257142Y-183654819D01*
X115257142Y-183654819D02*
X115161904Y-183702438D01*
X115161904Y-183702438D02*
X115114285Y-183750057D01*
X115114285Y-183750057D02*
X115066666Y-183845295D01*
X115066666Y-183845295D02*
X115066666Y-183988152D01*
X115066666Y-183988152D02*
X115114285Y-184083390D01*
X115114285Y-184083390D02*
X115161904Y-184131009D01*
X115161904Y-184131009D02*
X115257142Y-184178628D01*
X115257142Y-184178628D02*
X115638094Y-184178628D01*
X114685713Y-183750057D02*
X114638094Y-183702438D01*
X114638094Y-183702438D02*
X114542856Y-183654819D01*
X114542856Y-183654819D02*
X114304761Y-183654819D01*
X114304761Y-183654819D02*
X114209523Y-183702438D01*
X114209523Y-183702438D02*
X114161904Y-183750057D01*
X114161904Y-183750057D02*
X114114285Y-183845295D01*
X114114285Y-183845295D02*
X114114285Y-183940533D01*
X114114285Y-183940533D02*
X114161904Y-184083390D01*
X114161904Y-184083390D02*
X114733332Y-184654819D01*
X114733332Y-184654819D02*
X114114285Y-184654819D01*
X108566666Y-136854819D02*
X108899999Y-136378628D01*
X109138094Y-136854819D02*
X109138094Y-135854819D01*
X109138094Y-135854819D02*
X108757142Y-135854819D01*
X108757142Y-135854819D02*
X108661904Y-135902438D01*
X108661904Y-135902438D02*
X108614285Y-135950057D01*
X108614285Y-135950057D02*
X108566666Y-136045295D01*
X108566666Y-136045295D02*
X108566666Y-136188152D01*
X108566666Y-136188152D02*
X108614285Y-136283390D01*
X108614285Y-136283390D02*
X108661904Y-136331009D01*
X108661904Y-136331009D02*
X108757142Y-136378628D01*
X108757142Y-136378628D02*
X109138094Y-136378628D01*
X107661904Y-135854819D02*
X108138094Y-135854819D01*
X108138094Y-135854819D02*
X108185713Y-136331009D01*
X108185713Y-136331009D02*
X108138094Y-136283390D01*
X108138094Y-136283390D02*
X108042856Y-136235771D01*
X108042856Y-136235771D02*
X107804761Y-136235771D01*
X107804761Y-136235771D02*
X107709523Y-136283390D01*
X107709523Y-136283390D02*
X107661904Y-136331009D01*
X107661904Y-136331009D02*
X107614285Y-136426247D01*
X107614285Y-136426247D02*
X107614285Y-136664342D01*
X107614285Y-136664342D02*
X107661904Y-136759580D01*
X107661904Y-136759580D02*
X107709523Y-136807200D01*
X107709523Y-136807200D02*
X107804761Y-136854819D01*
X107804761Y-136854819D02*
X108042856Y-136854819D01*
X108042856Y-136854819D02*
X108138094Y-136807200D01*
X108138094Y-136807200D02*
X108185713Y-136759580D01*
D12*
%TO.C,L2*%
X109750000Y-119187500D02*
X108050000Y-119187500D01*
X108050000Y-120612500D02*
X109750000Y-120612500D01*
%TO.C,L1*%
X111550000Y-120612500D02*
X113250000Y-120612500D01*
X113250000Y-119187500D02*
X111550000Y-119187500D01*
%TO.C,R11*%
X109587500Y-188650000D02*
X109587500Y-190350000D01*
X111012500Y-190350000D02*
X111012500Y-188650000D01*
D13*
%TO.C,D2*%
X101100000Y-120040000D02*
X101100000Y-127450000D01*
X101100000Y-120040000D02*
X105400000Y-120040000D01*
X105400000Y-120040000D02*
X105400000Y-127450000D01*
D12*
%TO.C,R20*%
X101387500Y-157700000D02*
X101387500Y-159400000D01*
X102812500Y-159400000D02*
X102812500Y-157700000D01*
%TO.C,R4*%
X104287500Y-181900000D02*
X104287500Y-183600000D01*
X105712500Y-183600000D02*
X105712500Y-181900000D01*
D14*
%TO.C,C6*%
X107446000Y-129958800D02*
X107446000Y-128841200D01*
X107954000Y-129958800D02*
X107954000Y-128841200D01*
%TO.C,C1*%
X102858800Y-131746000D02*
X101741200Y-131746000D01*
X102858800Y-132254000D02*
X101741200Y-132254000D01*
D12*
%TO.C,R18*%
X104550000Y-149112500D02*
X106250000Y-149112500D01*
X106250000Y-147687500D02*
X104550000Y-147687500D01*
%TO.C,R13*%
X106550000Y-200412500D02*
X108250000Y-200412500D01*
X108250000Y-198987500D02*
X106550000Y-198987500D01*
%TO.C,R8*%
X103287500Y-157750000D02*
X103287500Y-159450000D01*
X104712500Y-159450000D02*
X104712500Y-157750000D01*
D13*
%TO.C,U4*%
X107540000Y-143840000D02*
X107540000Y-147960000D01*
X107540000Y-147960000D02*
X107635000Y-147960000D01*
X107635000Y-143840000D02*
X107540000Y-143840000D01*
X112565000Y-147960000D02*
X112660000Y-147960000D01*
X112660000Y-143840000D02*
X112565000Y-143840000D01*
X112660000Y-147960000D02*
X112660000Y-143840000D01*
X107630000Y-143300000D02*
X107300000Y-143540000D01*
X107300000Y-143060000D01*
X107630000Y-143300000D01*
G36*
X107630000Y-143300000D02*
G01*
X107300000Y-143540000D01*
X107300000Y-143060000D01*
X107630000Y-143300000D01*
G37*
%TO.C,U1*%
X108190000Y-180440000D02*
X108190000Y-180535000D01*
X108190000Y-185465000D02*
X108190000Y-185560000D01*
X108190000Y-185560000D02*
X112310000Y-185560000D01*
X112310000Y-180440000D02*
X108190000Y-180440000D01*
X112310000Y-180535000D02*
X112310000Y-180440000D01*
X112310000Y-185560000D02*
X112310000Y-185465000D01*
X112850000Y-180530000D02*
X112610000Y-180200000D01*
X113090000Y-180200000D01*
X112850000Y-180530000D01*
G36*
X112850000Y-180530000D02*
G01*
X112610000Y-180200000D01*
X113090000Y-180200000D01*
X112850000Y-180530000D01*
G37*
D11*
%TO.C,C5*%
X108550000Y-162400000D02*
X110050000Y-162400000D01*
X110050000Y-162600000D02*
X108550000Y-162600000D01*
D12*
%TO.C,R19*%
X105587500Y-142850000D02*
X105587500Y-144550000D01*
X107012500Y-144550000D02*
X107012500Y-142850000D01*
%TO.C,R12*%
X111187500Y-197950000D02*
X111187500Y-199650000D01*
X112612500Y-199650000D02*
X112612500Y-197950000D01*
D14*
%TO.C,C2*%
X118258800Y-131346000D02*
X117141200Y-131346000D01*
X118258800Y-131854000D02*
X117141200Y-131854000D01*
D13*
%TO.C,C7*%
X115630000Y-135280000D02*
X115630000Y-142720000D01*
X115630000Y-142720000D02*
X118370000Y-142720000D01*
X118370000Y-135280000D02*
X115630000Y-135280000D01*
X118370000Y-142720000D02*
X118370000Y-135280000D01*
D14*
%TO.C,C3*%
X111946000Y-128841200D02*
X111946000Y-129958800D01*
X112454000Y-128841200D02*
X112454000Y-129958800D01*
D12*
%TO.C,R9*%
X110287500Y-161650000D02*
X110287500Y-163350000D01*
X111712500Y-163350000D02*
X111712500Y-161650000D01*
D13*
%TO.C,D1*%
X114600000Y-129460000D02*
X114600000Y-122050000D01*
X118900000Y-129460000D02*
X114600000Y-129460000D01*
X118900000Y-129460000D02*
X118900000Y-122050000D01*
D15*
%TO.C,PWR1*%
X101364000Y-110928000D02*
X101364000Y-117786000D01*
X101364000Y-117786000D02*
X118636000Y-117786000D01*
X118636000Y-110928000D02*
X101364000Y-110928000D01*
X118636000Y-117786000D02*
X118636000Y-110928000D01*
D16*
X106190000Y-110357000D02*
X103650000Y-110357000D01*
X103650000Y-111487000D01*
X106190000Y-111487000D01*
X106190000Y-110357000D01*
G36*
X106190000Y-110357000D02*
G01*
X103650000Y-110357000D01*
X103650000Y-111487000D01*
X106190000Y-111487000D01*
X106190000Y-110357000D01*
G37*
X106190000Y-110387000D02*
X103650000Y-110387000D01*
X103650000Y-118357000D01*
X106190000Y-118357000D01*
X106190000Y-110387000D01*
X106190000Y-117227000D02*
X103650000Y-117227000D01*
X103650000Y-118357000D01*
X106190000Y-118357000D01*
X106190000Y-117227000D01*
G36*
X106190000Y-117227000D02*
G01*
X103650000Y-117227000D01*
X103650000Y-118357000D01*
X106190000Y-118357000D01*
X106190000Y-117227000D01*
G37*
X112250000Y-110357000D02*
X107750000Y-110357000D01*
X107750000Y-110928000D01*
X112250000Y-110928000D01*
X112250000Y-110357000D01*
G36*
X112250000Y-110357000D02*
G01*
X107750000Y-110357000D01*
X107750000Y-110928000D01*
X112250000Y-110928000D01*
X112250000Y-110357000D01*
G37*
D12*
%TO.C,R1*%
X108550000Y-187712500D02*
X110250000Y-187712500D01*
X110250000Y-186287500D02*
X108550000Y-186287500D01*
D13*
%TO.C,U2*%
X102440000Y-165285000D02*
X102440000Y-165380000D01*
X102440000Y-170310000D02*
X102440000Y-170405000D01*
X102440000Y-170405000D02*
X106560000Y-170405000D01*
X106560000Y-165285000D02*
X102440000Y-165285000D01*
X106560000Y-165380000D02*
X106560000Y-165285000D01*
X106560000Y-170405000D02*
X106560000Y-170310000D01*
X107100000Y-165375000D02*
X106860000Y-165045000D01*
X107340000Y-165045000D01*
X107100000Y-165375000D01*
G36*
X107100000Y-165375000D02*
G01*
X106860000Y-165045000D01*
X107340000Y-165045000D01*
X107100000Y-165375000D01*
G37*
D11*
%TO.C,C8*%
X101250000Y-145750000D02*
X102750000Y-145750000D01*
X102750000Y-145950000D02*
X101250000Y-145950000D01*
D13*
%TO.C,U3*%
X107440000Y-205940000D02*
X107440000Y-210060000D01*
X107440000Y-210060000D02*
X107535000Y-210060000D01*
X107535000Y-205940000D02*
X107440000Y-205940000D01*
X112465000Y-210060000D02*
X112560000Y-210060000D01*
X112560000Y-205940000D02*
X112465000Y-205940000D01*
X112560000Y-210060000D02*
X112560000Y-205940000D01*
X107530000Y-205400000D02*
X107200000Y-205640000D01*
X107200000Y-205160000D01*
X107530000Y-205400000D01*
G36*
X107530000Y-205400000D02*
G01*
X107200000Y-205640000D01*
X107200000Y-205160000D01*
X107530000Y-205400000D01*
G37*
D12*
%TO.C,R17*%
X104750000Y-146912500D02*
X106450000Y-146912500D01*
X106450000Y-145487500D02*
X104750000Y-145487500D01*
D13*
%TO.C,C4*%
X101630000Y-135280000D02*
X101630000Y-142720000D01*
X101630000Y-142720000D02*
X104370000Y-142720000D01*
X104370000Y-135280000D02*
X101630000Y-135280000D01*
X104370000Y-142720000D02*
X104370000Y-135280000D01*
%TO.C,U7*%
X108090000Y-121090000D02*
X108090000Y-122350000D01*
X108090000Y-127910000D02*
X108090000Y-126650000D01*
X111850000Y-121090000D02*
X108090000Y-121090000D01*
X111850000Y-127910000D02*
X108090000Y-127910000D01*
X113130000Y-121190000D02*
X112890000Y-120860000D01*
X113370000Y-120860000D01*
X113130000Y-121190000D01*
G36*
X113130000Y-121190000D02*
G01*
X112890000Y-120860000D01*
X113370000Y-120860000D01*
X113130000Y-121190000D01*
G37*
D12*
%TO.C,R10*%
X111687500Y-186950000D02*
X111687500Y-188650000D01*
X113112500Y-188650000D02*
X113112500Y-186950000D01*
%TO.C,R3*%
X102487500Y-181900000D02*
X102487500Y-183600000D01*
X103912500Y-183600000D02*
X103912500Y-181900000D01*
%TO.C,R2*%
X114287500Y-180950000D02*
X114287500Y-182650000D01*
X115712500Y-182650000D02*
X115712500Y-180950000D01*
%TO.C,R5*%
X107687500Y-133050000D02*
X107687500Y-134750000D01*
X109112500Y-134750000D02*
X109112500Y-133050000D01*
%TD*%
%LPC*%
D17*
%TO.C,L2*%
X109750000Y-119900000D03*
X108050000Y-119900000D03*
%TD*%
%TO.C,L1*%
X111550000Y-119900000D03*
X113250000Y-119900000D03*
%TD*%
D18*
%TO.C,J1*%
X105000000Y-175270000D03*
D19*
X105000000Y-186670000D03*
X105000000Y-178370000D03*
%TD*%
D18*
%TO.C,J3*%
X105000000Y-205270000D03*
D19*
X105000000Y-216670000D03*
X105000000Y-208370000D03*
%TD*%
D18*
%TO.C,J2*%
X105000000Y-190270000D03*
D19*
X105000000Y-201670000D03*
X105000000Y-193370000D03*
%TD*%
D20*
%TO.C,RV2*%
X107500000Y-159000000D03*
D21*
X110000000Y-159000000D03*
X112500000Y-159000000D03*
D22*
X105500000Y-152000000D03*
X114500000Y-152000000D03*
%TD*%
D18*
%TO.C,J4*%
X115000000Y-175270000D03*
D19*
X115000000Y-186670000D03*
X115000000Y-178370000D03*
%TD*%
D23*
%TO.C,U6*%
X117660000Y-172500000D03*
D24*
X113850000Y-172500000D03*
X114490000Y-162340000D03*
X117020000Y-162340000D03*
%TD*%
D20*
%TO.C,RV1*%
X107500000Y-140000000D03*
D21*
X110000000Y-140000000D03*
X112500000Y-140000000D03*
D22*
X105500000Y-133000000D03*
X114500000Y-133000000D03*
%TD*%
D18*
%TO.C,J6*%
X115000000Y-205270000D03*
D19*
X115000000Y-216670000D03*
X115000000Y-208370000D03*
%TD*%
D18*
%TO.C,J5*%
X115000000Y-190270000D03*
D19*
X115000000Y-201670000D03*
X115000000Y-193370000D03*
%TD*%
D23*
%TO.C,U5*%
X106160000Y-172500000D03*
D24*
X102350000Y-172500000D03*
X102990000Y-162340000D03*
X105520000Y-162340000D03*
%TD*%
D17*
%TO.C,R11*%
X110300000Y-188650000D03*
X110300000Y-190350000D03*
%TD*%
D25*
%TO.C,D2*%
X103250000Y-122050000D03*
X103250000Y-127450000D03*
%TD*%
D17*
%TO.C,R20*%
X102100000Y-159400000D03*
X102100000Y-157700000D03*
%TD*%
%TO.C,R4*%
X105000000Y-183600000D03*
X105000000Y-181900000D03*
%TD*%
D26*
%TO.C,C6*%
X108650000Y-129400000D03*
X106750000Y-129400000D03*
%TD*%
D27*
%TO.C,C1*%
X102300000Y-131050000D03*
X102300000Y-132950000D03*
%TD*%
D17*
%TO.C,R18*%
X106250000Y-148400000D03*
X104550000Y-148400000D03*
%TD*%
%TO.C,R13*%
X108250000Y-199700000D03*
X106550000Y-199700000D03*
%TD*%
%TO.C,R8*%
X104000000Y-157750000D03*
X104000000Y-159450000D03*
%TD*%
D28*
%TO.C,U4*%
X108195000Y-143425000D03*
X109465000Y-143425000D03*
X110735000Y-143425000D03*
X112005000Y-143425000D03*
X112005000Y-148375000D03*
X110735000Y-148375000D03*
X109465000Y-148375000D03*
X108195000Y-148375000D03*
%TD*%
D29*
%TO.C,U1*%
X112725000Y-181095000D03*
X112725000Y-182365000D03*
X112725000Y-183635000D03*
X112725000Y-184905000D03*
X107775000Y-184905000D03*
X107775000Y-183635000D03*
X107775000Y-182365000D03*
X107775000Y-181095000D03*
%TD*%
D17*
%TO.C,C5*%
X109300000Y-161650000D03*
X109300000Y-163350000D03*
%TD*%
%TO.C,R19*%
X106300000Y-142850000D03*
X106300000Y-144550000D03*
%TD*%
%TO.C,R12*%
X111900000Y-197950000D03*
X111900000Y-199650000D03*
%TD*%
D27*
%TO.C,C2*%
X117700000Y-130650000D03*
X117700000Y-132550000D03*
%TD*%
D30*
%TO.C,C7*%
X117000000Y-141500000D03*
X117000000Y-136500000D03*
%TD*%
D26*
%TO.C,C3*%
X111250000Y-129400000D03*
X113150000Y-129400000D03*
%TD*%
D17*
%TO.C,R9*%
X111000000Y-163350000D03*
X111000000Y-161650000D03*
%TD*%
D31*
%TO.C,D1*%
X116750000Y-127450000D03*
X116750000Y-122050000D03*
%TD*%
D32*
%TO.C,PWR1*%
X104920000Y-112960000D03*
X104920000Y-115500000D03*
X107460000Y-113214000D03*
X107460000Y-115754000D03*
X110000000Y-112960000D03*
X110000000Y-115500000D03*
X112540000Y-113214000D03*
X112540000Y-115754000D03*
X115080000Y-112960000D03*
X115080000Y-115500000D03*
%TD*%
D17*
%TO.C,R1*%
X108550000Y-187000000D03*
X110250000Y-187000000D03*
%TD*%
D29*
%TO.C,U2*%
X106975000Y-165940000D03*
X106975000Y-167210000D03*
X106975000Y-168480000D03*
X106975000Y-169750000D03*
X102025000Y-169750000D03*
X102025000Y-168480000D03*
X102025000Y-167210000D03*
X102025000Y-165940000D03*
%TD*%
D17*
%TO.C,C8*%
X102000000Y-146700000D03*
X102000000Y-145000000D03*
%TD*%
D28*
%TO.C,U3*%
X108095000Y-205525000D03*
X109365000Y-205525000D03*
X110635000Y-205525000D03*
X111905000Y-205525000D03*
X111905000Y-210475000D03*
X110635000Y-210475000D03*
X109365000Y-210475000D03*
X108095000Y-210475000D03*
%TD*%
D17*
%TO.C,R17*%
X106450000Y-146200000D03*
X104750000Y-146200000D03*
%TD*%
D30*
%TO.C,C4*%
X103000000Y-141500000D03*
X103000000Y-136500000D03*
%TD*%
D33*
%TO.C,U7*%
X113150000Y-122200000D03*
X113150000Y-124500000D03*
D34*
X106850000Y-124500000D03*
D33*
X113150000Y-126800000D03*
%TD*%
D17*
%TO.C,R10*%
X112400000Y-186950000D03*
X112400000Y-188650000D03*
%TD*%
%TO.C,R3*%
X103200000Y-183600000D03*
X103200000Y-181900000D03*
%TD*%
%TO.C,R2*%
X115000000Y-182650000D03*
X115000000Y-180950000D03*
%TD*%
%TO.C,R5*%
X108400000Y-133050000D03*
X108400000Y-134750000D03*
%TD*%
%LPD*%
M02*
