M48
; DRILL file {KiCad 9.0.6} date 2026-01-02T00:07:23-0500
; FORMAT={-:-/ absolute / inch / decimal}
; #@! TF.CreationDate,2026-01-02T00:07:23-05:00
; #@! TF.GenerationSoftware,Kicad,Pcbnew,9.0.6
; #@! TF.FileFunction,Plated,1,2,PTH
FMAT,2
INCH
; #@! TA.AperFunction,Plated,PTH,ViaDrill
T1C0.0118
; #@! TA.AperFunction,Plated,PTH,ComponentDrill
T2C0.0315
; #@! TA.AperFunction,Plated,PTH,ComponentDrill
T3C0.0319
; #@! TA.AperFunction,Plated,PTH,ComponentDrill
T4C0.0400
; #@! TA.AperFunction,Plated,PTH,ComponentDrill
T5C0.0433
; #@! TA.AperFunction,Plated,PTH,ComponentDrill
T6C0.0480
; #@! TA.AperFunction,Plated,PTH,ComponentDrill
T7C0.0559
; #@! TA.AperFunction,Plated,PTH,ComponentDrill
T8C0.0563
; #@! TA.AperFunction,Plated,PTH,ComponentDrill
T9C0.0827
%
G90
G05
T1
X3.9902Y-5.1575
X4.0Y-7.2047
X4.0039Y-7.4291
X4.0079Y-4.3819
X4.0079Y-4.6417
X4.0079Y-7.0354
X4.0099Y-5.8819
X4.0118Y-7.7244
X4.0164Y-6.4954
X4.0197Y-6.9291
X4.0236Y-8.0945
X4.0236Y-8.4882
X4.0276Y-5.2677
X4.0276Y-8.2323
X4.0276Y-8.3898
X4.0315Y-4.5
X4.0315Y-4.5787
X4.0472Y-4.689
X4.063Y-7.2795
X4.0748Y-6.6831
X4.0827Y-4.6457
X4.0848Y-6.5215
X4.087Y-6.5661
X4.1121Y-6.5911
X4.126Y-5.7953
X4.1339Y-6.6575
X4.1378Y-5.0197
X4.1417Y-7.4291
X4.1732Y-6.185
X4.1811Y-6.4685
X4.1811Y-8.4055
X4.189Y-7.2795
X4.1929Y-7.8937
X4.1969Y-7.8268
X4.2126Y-6.7087
X4.2165Y-4.7835
X4.2244Y-5.3858
X4.2312Y-6.4331
X4.2362Y-7.7008
X4.2441Y-6.1575
X4.2441Y-8.5079
X4.2559Y-8.0435
X4.2598Y-6.9094
X4.2717Y-7.9528
X4.2795Y-5.248
X4.2795Y-7.4961
X4.2913Y-6.3228
X4.2992Y-6.5591
X4.3031Y-6.4055
X4.3031Y-8.2323
X4.3057Y-8.0433
X4.3071Y-5.9803
X4.3089Y-6.6304
X4.315Y-6.6654
X4.3189Y-6.0512
X4.3268Y-6.122
X4.3307Y-4.7874
X4.3307Y-5.7205
X4.3424Y-6.3265
X4.3425Y-7.5276
X4.3426Y-6.5748
X4.3445Y-7.3111
X4.3504Y-6.7362
X4.3504Y-7.0472
X4.3583Y-7.8268
X4.3583Y-7.9921
X4.3583Y-8.2283
X4.3661Y-5.1929
X4.3661Y-5.2992
X4.378Y-7.2244
X4.378Y-7.3228
X4.3819Y-6.4921
X4.3858Y-8.5394
X4.3898Y-6.0394
X4.3976Y-4.811
X4.4055Y-5.3465
X4.4055Y-8.3386
X4.4077Y-5.7262
X4.4094Y-5.8976
X4.4094Y-7.9055
X4.4232Y-6.3642
X4.4252Y-7.4606
X4.437Y-7.0945
X4.437Y-8.4094
X4.4528Y-6.878
X4.4764Y-5.6142
X4.4764Y-5.8189
X4.4921Y-6.2205
X4.5Y-7.248
X4.5075Y-6.4724
X4.5079Y-6.1732
X4.5098Y-5.7677
X4.5276Y-6.0945
X4.5354Y-4.6457
X4.5433Y-6.8307
X4.5512Y-5.4685
X4.5551Y-7.8425
X4.5709Y-6.7047
X4.5787Y-7.2795
X4.5787Y-7.4134
X4.5866Y-7.5551
X4.5945Y-4.685
X4.5945Y-6.1929
X4.6063Y-7.0709
X4.6063Y-7.1969
X4.6271Y-7.6496
X4.6299Y-4.5
X4.6299Y-4.5787
X4.6339Y-5.1831
X4.6339Y-5.252
X4.6496Y-4.3858
X4.6496Y-5.8189
X4.6535Y-4.6417
X4.6575Y-8.3898
X4.6654Y-6.8622
T2
X4.0551Y-5.374
X4.0551Y-5.5709
X4.6063Y-5.374
X4.6063Y-5.5709
T3
X4.0295Y-6.7913
X4.0547Y-6.3913
X4.1543Y-6.3913
X4.1795Y-6.7913
X4.4823Y-6.7913
X4.5075Y-6.3913
X4.6071Y-6.3913
X4.6323Y-6.7913
T4
X4.1307Y-4.4472
X4.1307Y-4.5472
X4.2307Y-4.4572
X4.2307Y-4.5572
X4.3307Y-4.4472
X4.3307Y-4.5472
X4.4307Y-4.4572
X4.4307Y-4.5572
X4.5307Y-4.4472
X4.5307Y-4.5472
T5
X4.2323Y-5.5118
X4.2323Y-6.2598
X4.3307Y-5.5118
X4.3307Y-6.2598
X4.4291Y-5.5118
X4.4291Y-6.2598
T6
X4.1339Y-6.9004
X4.1339Y-7.4909
X4.1339Y-8.0815
X4.5276Y-6.9004
X4.5276Y-7.4909
X4.5276Y-8.0815
T7
X4.1339Y-7.0224
X4.1339Y-7.613
X4.1339Y-8.2035
X4.5276Y-7.0224
X4.5276Y-7.613
X4.5276Y-8.2035
T8
X4.1339Y-7.3492
X4.1339Y-7.9398
X4.1339Y-8.5303
X4.5276Y-7.3492
X4.5276Y-7.9398
X4.5276Y-8.5303
T9
X4.1535Y-5.2362
X4.1535Y-5.9843
X4.5079Y-5.2362
X4.5079Y-5.9843
M30
