%TF.GenerationSoftware,KiCad,Pcbnew,9.0.6*%
%TF.CreationDate,2026-01-02T00:07:23-05:00*%
%TF.ProjectId,active-vactrol-vca-board,61637469-7665-42d7-9661-6374726f6c2d,rev?*%
%TF.SameCoordinates,Original*%
%TF.FileFunction,Copper,L1,Top*%
%TF.FilePolarity,Positive*%
%FSLAX46Y46*%
G04 Gerber Fmt 4.6, Leading zero omitted, Abs format (unit mm)*
G04 Created by KiCad (PCBNEW 9.0.6) date 2026-01-02 00:07:23*
%MOMM*%
%LPD*%
G01*
G04 APERTURE LIST*
G04 Aperture macros list*
%AMRoundRect*
0 Rectangle with rounded corners*
0 $1 Rounding radius*
0 $2 $3 $4 $5 $6 $7 $8 $9 X,Y pos of 4 corners*
0 Add a 4 corners polygon primitive as box body*
4,1,4,$2,$3,$4,$5,$6,$7,$8,$9,$2,$3,0*
0 Add four circle primitives for the rounded corners*
1,1,$1+$1,$2,$3*
1,1,$1+$1,$4,$5*
1,1,$1+$1,$6,$7*
1,1,$1+$1,$8,$9*
0 Add four rect primitives between the rounded corners*
20,1,$1+$1,$2,$3,$4,$5,0*
20,1,$1+$1,$4,$5,$6,$7,0*
20,1,$1+$1,$6,$7,$8,$9,0*
20,1,$1+$1,$8,$9,$2,$3,0*%
G04 Aperture macros list end*
%TA.AperFunction,ComponentPad*%
%ADD10R,3.116000X3.116000*%
%TD*%
%TA.AperFunction,ComponentPad*%
%ADD11C,1.650000*%
%TD*%
%TA.AperFunction,ComponentPad*%
%ADD12R,1.650000X1.650000*%
%TD*%
%TA.AperFunction,ComponentPad*%
%ADD13R,1.930000X1.830000*%
%TD*%
%TA.AperFunction,ComponentPad*%
%ADD14C,2.130000*%
%TD*%
%TA.AperFunction,ComponentPad*%
%ADD15RoundRect,0.249630X0.535370X-0.895370X0.535370X0.895370X-0.535370X0.895370X-0.535370X-0.895370X0*%
%TD*%
%TA.AperFunction,ComponentPad*%
%ADD16O,1.570000X2.290000*%
%TD*%
%TA.AperFunction,ComponentPad*%
%ADD17C,1.600000*%
%TD*%
%TA.AperFunction,ComponentPad*%
%ADD18C,1.879600*%
%TD*%
%TA.AperFunction,ViaPad*%
%ADD19C,0.700000*%
%TD*%
%TA.AperFunction,ViaPad*%
%ADD20C,0.600000*%
%TD*%
%TA.AperFunction,Conductor*%
%ADD21C,0.500000*%
%TD*%
%TA.AperFunction,Conductor*%
%ADD22C,0.300000*%
%TD*%
G04 APERTURE END LIST*
D10*
%TO.P,RV2,CHASSIS2*%
%TO.N,N/C*%
X114500000Y-152000000D03*
%TO.P,RV2,CHASSIS1*%
X105500000Y-152000000D03*
D11*
%TO.P,RV2,3,3*%
%TO.N,/Right Gate/R_CV_BUFFERED*%
X112500000Y-159000000D03*
%TO.P,RV2,2,2*%
%TO.N,/Right Gate/R_CV_ATTENUATED*%
X110000000Y-159000000D03*
D12*
%TO.P,RV2,1,1*%
%TO.N,GND*%
X107500000Y-159000000D03*
%TD*%
D10*
%TO.P,RV1,CHASSIS2*%
%TO.N,N/C*%
X114500000Y-133000000D03*
%TO.P,RV1,CHASSIS1*%
X105500000Y-133000000D03*
D11*
%TO.P,RV1,3,3*%
%TO.N,/Left Gate/L_CV_BUFFERED*%
X112500000Y-140000000D03*
%TO.P,RV1,2,2*%
%TO.N,/Left Gate/L_CV_ATTENUATED*%
X110000000Y-140000000D03*
D12*
%TO.P,RV1,1,1*%
%TO.N,GND*%
X107500000Y-140000000D03*
%TD*%
D13*
%TO.P,J1,S*%
%TO.N,GND*%
X105000000Y-175270000D03*
D14*
%TO.P,J1,T*%
%TO.N,L_CV_INPUT*%
X105000000Y-186670000D03*
%TO.P,J1,TN*%
%TO.N,Net-(J1-PadTN)*%
X105000000Y-178370000D03*
%TD*%
D13*
%TO.P,J3,S*%
%TO.N,GND*%
X105000000Y-205270000D03*
D14*
%TO.P,J3,T*%
%TO.N,L_OUTPUT*%
X105000000Y-216670000D03*
%TO.P,J3,TN*%
%TO.N,unconnected-(J3-PadTN)*%
X105000000Y-208370000D03*
%TD*%
D13*
%TO.P,J2,S*%
%TO.N,GND*%
X105000000Y-190270000D03*
D14*
%TO.P,J2,T*%
%TO.N,/Left Gate/L_IN_UNBUFFERED*%
X105000000Y-201670000D03*
%TO.P,J2,TN*%
%TO.N,unconnected-(J2-PadTN)*%
X105000000Y-193370000D03*
%TD*%
D13*
%TO.P,J4,S*%
%TO.N,GND*%
X115000000Y-175270000D03*
D14*
%TO.P,J4,T*%
%TO.N,/Right Gate/R_CV_IN_UNBUFFERED*%
X115000000Y-186670000D03*
%TO.P,J4,TN*%
%TO.N,L_CV_INPUT*%
X115000000Y-178370000D03*
%TD*%
D15*
%TO.P,U6,1,A*%
%TO.N,GND*%
X117660000Y-172500000D03*
D16*
%TO.P,U6,2,K*%
%TO.N,/Right Gate/R_CV_ATTENUATED*%
X113850000Y-172500000D03*
%TO.P,U6,3,R*%
%TO.N,/Right Gate/R_BUFFERED*%
X114490000Y-162340000D03*
%TO.P,U6,4,R*%
%TO.N,/Right Gate/R_VACTROL_OUTPUT*%
X117020000Y-162340000D03*
%TD*%
D13*
%TO.P,J6,S*%
%TO.N,GND*%
X115000000Y-205270000D03*
D14*
%TO.P,J6,T*%
%TO.N,/Right Gate/R_OUT_BUFFERED*%
X115000000Y-216670000D03*
%TO.P,J6,TN*%
%TO.N,unconnected-(J6-PadTN)*%
X115000000Y-208370000D03*
%TD*%
D13*
%TO.P,J5,S*%
%TO.N,GND*%
X115000000Y-190270000D03*
D14*
%TO.P,J5,T*%
%TO.N,/Right Gate/R_IN_UNBUFFERED*%
X115000000Y-201670000D03*
%TO.P,J5,TN*%
%TO.N,L_OUTPUT*%
X115000000Y-193370000D03*
%TD*%
D15*
%TO.P,U5,1,A*%
%TO.N,GND*%
X106160000Y-172500000D03*
D16*
%TO.P,U5,2,K*%
%TO.N,/Left Gate/L_CV_ATTENUATED*%
X102350000Y-172500000D03*
%TO.P,U5,3,R*%
%TO.N,/Left Gate/L_BUFFERED*%
X102990000Y-162340000D03*
%TO.P,U5,4,R*%
%TO.N,/Left Gate/L_VACTROL_OUTPUT*%
X105520000Y-162340000D03*
%TD*%
D17*
%TO.P,C7,1*%
%TO.N,/Right Gate/R_VACTROL_OUTPUT*%
X117000000Y-141500000D03*
%TO.P,C7,2*%
%TO.N,GND*%
X117000000Y-136500000D03*
%TD*%
D18*
%TO.P,PWR1,1,-12V*%
%TO.N,/-12V_In*%
X104920000Y-112960000D03*
%TO.P,PWR1,2,-12V*%
X104920000Y-115500000D03*
%TO.P,PWR1,3,GND*%
%TO.N,GND*%
X107460000Y-113214000D03*
%TO.P,PWR1,4,GND*%
X107460000Y-115754000D03*
%TO.P,PWR1,5,GND*%
X110000000Y-112960000D03*
%TO.P,PWR1,6,GND*%
X110000000Y-115500000D03*
%TO.P,PWR1,7,GND*%
X112540000Y-113214000D03*
%TO.P,PWR1,8,GND*%
X112540000Y-115754000D03*
%TO.P,PWR1,9,+12V*%
%TO.N,/+12V_In*%
X115080000Y-112960000D03*
%TO.P,PWR1,10,+12V*%
X115080000Y-115500000D03*
%TD*%
D17*
%TO.P,C4,1*%
%TO.N,/Left Gate/L_VACTROL_OUTPUT*%
X103000000Y-141500000D03*
%TO.P,C4,2*%
%TO.N,GND*%
X103000000Y-136500000D03*
%TD*%
D19*
%TO.N,-12V*%
X105100000Y-127500000D03*
D20*
%TO.N,GND*%
X115200000Y-118000000D03*
X113100000Y-174700000D03*
X105200000Y-188700000D03*
X101800000Y-178700000D03*
X102400000Y-116300000D03*
X113700000Y-147800000D03*
D19*
X117700000Y-133400000D03*
D20*
X107800000Y-156400000D03*
X101900000Y-196200000D03*
X115400000Y-173500000D03*
D19*
X102300000Y-133800000D03*
D20*
X115700000Y-199200000D03*
X102300000Y-213100000D03*
X106000000Y-157100000D03*
X101800000Y-111300000D03*
X102400000Y-114300000D03*
X110000000Y-145300000D03*
D19*
X108700000Y-133300000D03*
D20*
X102200000Y-215600000D03*
X109700000Y-153700000D03*
X102300000Y-209100000D03*
X115000000Y-154800000D03*
X117600000Y-114300000D03*
X116500000Y-191900000D03*
D19*
X111700000Y-122200000D03*
D20*
X111500000Y-153400000D03*
X107800000Y-216100000D03*
X114100000Y-158000000D03*
X109900000Y-155500000D03*
D19*
X111900000Y-135800000D03*
D20*
X101800000Y-117900000D03*
X118100000Y-111400000D03*
X106200000Y-213500000D03*
D19*
X112000000Y-149800000D03*
D20*
X114500000Y-156800000D03*
X101700000Y-188700000D03*
D19*
X111900000Y-211800000D03*
D20*
X115600000Y-138900000D03*
X117000000Y-179600000D03*
D19*
X103500000Y-169750000D03*
D20*
X102100000Y-176000000D03*
X102800000Y-119100000D03*
D19*
X108500000Y-202000000D03*
D20*
X116100000Y-170300000D03*
X118200000Y-117900000D03*
X101600000Y-183000000D03*
X102200000Y-205600000D03*
X117600000Y-116300000D03*
X112700000Y-213600000D03*
D19*
X110900000Y-131900000D03*
D20*
X107100000Y-121500000D03*
X116700000Y-119000000D03*
X110000000Y-121600000D03*
X111400000Y-216900000D03*
X109400000Y-151900000D03*
D19*
X114300000Y-184100000D03*
D20*
X116300000Y-188300000D03*
X117000000Y-182800000D03*
D19*
X106400000Y-184900000D03*
D20*
X103700000Y-118000000D03*
D19*
%TO.N,-12V*%
X116300000Y-184900000D03*
X110700000Y-198800000D03*
X110700000Y-203000000D03*
X101350001Y-131000000D03*
X107000000Y-170400000D03*
X105000000Y-169100000D03*
X107600000Y-195600000D03*
X113700000Y-142600000D03*
X117528000Y-194300000D03*
%TO.N,+12V*%
X102015686Y-164984314D03*
X118300000Y-213100000D03*
X110900000Y-134600000D03*
X101851000Y-149400000D03*
X117700000Y-131649998D03*
X118500000Y-174300000D03*
%TO.N,/Left Gate/L_VACTROL_OUTPUT*%
X103755025Y-165644975D03*
%TO.N,L_OUTPUT*%
X111300000Y-164900000D03*
%TO.N,/Right Gate/R_OUT_BUFFERED*%
X111955025Y-145444975D03*
X118100000Y-147800000D03*
X104800000Y-147200000D03*
%TO.N,Net-(U3A--)*%
X112400000Y-189500000D03*
X109365000Y-204300000D03*
%TO.N,Net-(J1-PadTN)*%
X108200000Y-175500000D03*
X107300000Y-136800000D03*
%TO.N,/Left Gate/L_IN_UNBUFFERED*%
X103200000Y-184900000D03*
%TO.N,L_CV_INPUT*%
X110500000Y-179000000D03*
X110350469Y-185702844D03*
%TO.N,Net-(U1A--)*%
X111200000Y-186000000D03*
X111200000Y-183500000D03*
%TO.N,/Left Gate/L_CV_BUFFERED*%
X116700000Y-157300000D03*
X112700000Y-180200000D03*
X112350000Y-161650000D03*
%TO.N,Net-(U2B--)*%
X104446473Y-167415102D03*
X109300000Y-162700002D03*
X109000000Y-160599998D03*
X107472000Y-163400000D03*
%TO.N,/Left Gate/L_BUFFERED*%
X109200000Y-166600000D03*
X110500000Y-171100000D03*
%TO.N,Net-(U3B--)*%
X110700000Y-209000000D03*
X112000000Y-200800000D03*
%TO.N,/Right Gate/R_CV_BUFFERED*%
X108700000Y-190400000D03*
D20*
X110297403Y-160692883D03*
D19*
X110300000Y-191200000D03*
X108099000Y-204305000D03*
X109447211Y-168413062D03*
X110301000Y-167000000D03*
%TO.N,/Right Gate/R_BUFFERED*%
X106600000Y-198800000D03*
X109600000Y-169300000D03*
X114490000Y-164400000D03*
X106500000Y-200500000D03*
X109300000Y-209100000D03*
%TO.N,/Left Gate/L_CV_ATTENUATED*%
X114550000Y-146500000D03*
%TO.N,Net-(R9-Pad1)*%
X103810076Y-166778704D03*
X106200000Y-164300000D03*
%TD*%
D21*
%TO.N,GND*%
X116756141Y-198143859D02*
X115700000Y-199200000D01*
X115784000Y-164484000D02*
X115784000Y-159684000D01*
D22*
X117660000Y-172460000D02*
X117660000Y-172500000D01*
D21*
X115784000Y-159684000D02*
X114100000Y-158000000D01*
X115800000Y-165400000D02*
X115800000Y-164500000D01*
X116516000Y-195783738D02*
X116756141Y-196023879D01*
X115800000Y-164500000D02*
X115784000Y-164484000D01*
X116756141Y-196023879D02*
X116756141Y-198143859D01*
X116516000Y-191916000D02*
X116516000Y-195783738D01*
X116500000Y-191900000D02*
X116516000Y-191916000D01*
%TO.N,-12V*%
X107400000Y-195400000D02*
X107600000Y-195600000D01*
X101350001Y-131000000D02*
X101051000Y-131299001D01*
X101051000Y-165151000D02*
X105000000Y-169100000D01*
X107400000Y-170800000D02*
X107400000Y-195400000D01*
X117700000Y-186300000D02*
X116300000Y-184900000D01*
X110700000Y-198800000D02*
X110700000Y-203000000D01*
X101051000Y-131299001D02*
X101051000Y-165151000D01*
X117700000Y-194128000D02*
X117700000Y-186300000D01*
X117528000Y-194300000D02*
X117700000Y-194128000D01*
X107000000Y-170400000D02*
X107400000Y-170800000D01*
%TO.N,+12V*%
X118500000Y-174300000D02*
X118900000Y-173900000D01*
X110900000Y-134600000D02*
X110700000Y-134800000D01*
X118300000Y-213100000D02*
X118900000Y-212500000D01*
X101749000Y-140981818D02*
X101749000Y-164717628D01*
X118900000Y-132900000D02*
X117700000Y-131700000D01*
X118900000Y-212500000D02*
X118900000Y-174700000D01*
X110700000Y-134800000D02*
X107930818Y-134800000D01*
X118900000Y-173900000D02*
X118900000Y-132900000D01*
X107930818Y-134800000D02*
X101749000Y-140981818D01*
X117700000Y-131700000D02*
X117700000Y-131649998D01*
X101749000Y-164717628D02*
X102015686Y-164984314D01*
X118900000Y-174700000D02*
X118500000Y-174300000D01*
D22*
%TO.N,/Left Gate/L_VACTROL_OUTPUT*%
X103800000Y-165600000D02*
X103800000Y-164060000D01*
X103000000Y-141500000D02*
X103000000Y-158400000D01*
X103755025Y-165644975D02*
X103800000Y-165600000D01*
X103800000Y-164060000D02*
X105520000Y-162340000D01*
X103000000Y-158400000D02*
X105520000Y-160920000D01*
X105520000Y-160920000D02*
X105520000Y-162340000D01*
%TO.N,L_OUTPUT*%
X113584000Y-192204000D02*
X114750000Y-193370000D01*
X112900000Y-208770000D02*
X105000000Y-216670000D01*
X111300000Y-164900000D02*
X111300000Y-182608636D01*
X111300000Y-182608636D02*
X113584000Y-184892636D01*
X105000000Y-216670000D02*
X105000000Y-216920000D01*
X115000000Y-193620000D02*
X112900000Y-195720000D01*
X115000000Y-193370000D02*
X115000000Y-193620000D01*
X112900000Y-195720000D02*
X112900000Y-208770000D01*
X114750000Y-193370000D02*
X115000000Y-193370000D01*
X113584000Y-184892636D02*
X113584000Y-192204000D01*
%TO.N,/Right Gate/R_VACTROL_OUTPUT*%
X117400000Y-161960000D02*
X117020000Y-162340000D01*
X117400000Y-141900000D02*
X117400000Y-161960000D01*
X117000000Y-141500000D02*
X117400000Y-141900000D01*
%TO.N,/Right Gate/R_OUT_BUFFERED*%
X116524000Y-171348922D02*
X116524000Y-173651078D01*
X104800000Y-147200000D02*
X110200000Y-147200000D01*
X117500000Y-196300000D02*
X117500000Y-214170000D01*
X117500000Y-214170000D02*
X115000000Y-216670000D01*
X118100000Y-169772922D02*
X116524000Y-171348922D01*
X118100000Y-161453453D02*
X118156000Y-161509453D01*
X116524000Y-173651078D02*
X118228000Y-175355078D01*
X118100000Y-147800000D02*
X118100000Y-161453453D01*
X110200000Y-147200000D02*
X111955025Y-145444975D01*
X118228000Y-195572000D02*
X117500000Y-196300000D01*
X118100000Y-163226547D02*
X118100000Y-169772922D01*
X118156000Y-163170547D02*
X118100000Y-163226547D01*
X118228000Y-175355078D02*
X118228000Y-195572000D01*
X118156000Y-161509453D02*
X118156000Y-163170547D01*
X115000000Y-216670000D02*
X115000000Y-216920000D01*
%TO.N,Net-(U3A--)*%
X112400000Y-190391364D02*
X112400000Y-189500000D01*
X109900000Y-203400000D02*
X109900000Y-192891364D01*
X109365000Y-203935000D02*
X109900000Y-203400000D01*
X109365000Y-204300000D02*
X109365000Y-203935000D01*
X109900000Y-192891364D02*
X112400000Y-190391364D01*
D21*
%TO.N,Net-(J1-PadTN)*%
X107509000Y-149991000D02*
X103591000Y-149991000D01*
X107531026Y-161731026D02*
X107388190Y-161731026D01*
X108200000Y-175500000D02*
X108200000Y-163804786D01*
X108273000Y-163731786D02*
X108273000Y-163068214D01*
X108200000Y-163804786D02*
X108273000Y-163731786D01*
X103591000Y-154009000D02*
X107509000Y-154009000D01*
X106918976Y-161118976D02*
X103591000Y-157791000D01*
X105300000Y-143900000D02*
X105300000Y-138800000D01*
X107509000Y-154009000D02*
X107509000Y-149991000D01*
X105300000Y-138800000D02*
X107300000Y-136800000D01*
X108273000Y-163068214D02*
X108200000Y-162995214D01*
X108200000Y-162400000D02*
X107531026Y-161731026D01*
X103591000Y-157791000D02*
X103591000Y-154009000D01*
X103591000Y-149991000D02*
X103591000Y-145609000D01*
X103591000Y-145609000D02*
X105300000Y-143900000D01*
X107388190Y-161731026D02*
X106918976Y-161261812D01*
X106918976Y-161261812D02*
X106918976Y-161118976D01*
X108200000Y-162995214D02*
X108200000Y-162400000D01*
D22*
%TO.N,/Left Gate/L_IN_UNBUFFERED*%
X103200000Y-200120000D02*
X104750000Y-201670000D01*
X104750000Y-201670000D02*
X105000000Y-201670000D01*
X103200000Y-184900000D02*
X103200000Y-200120000D01*
%TO.N,L_CV_INPUT*%
X110500000Y-179000000D02*
X110500000Y-185553313D01*
X110500000Y-185553313D02*
X110350469Y-185702844D01*
%TO.N,Net-(U1A--)*%
X111200000Y-186000000D02*
X111200000Y-183500000D01*
%TO.N,/Left Gate/L_CV_BUFFERED*%
X116700000Y-157300000D02*
X116700000Y-147008636D01*
X112000000Y-179500000D02*
X112700000Y-180200000D01*
X116700000Y-147008636D02*
X112500000Y-142808636D01*
X112350000Y-161650000D02*
X112000000Y-162000000D01*
X112500000Y-142808636D02*
X112500000Y-140000000D01*
X112000000Y-162000000D02*
X112000000Y-179500000D01*
%TO.N,Net-(U2B--)*%
X109000000Y-162200000D02*
X109300000Y-162500000D01*
X106900000Y-164900000D02*
X104446473Y-167353527D01*
X109000000Y-160599998D02*
X109000000Y-162200000D01*
X104446473Y-167353527D02*
X104446473Y-167415102D01*
X106900000Y-163972000D02*
X106900000Y-164900000D01*
X107472000Y-163400000D02*
X106900000Y-163972000D01*
X109300000Y-162500000D02*
X109300000Y-162700002D01*
%TO.N,/Left Gate/L_BUFFERED*%
X110500000Y-168474487D02*
X109200000Y-167174487D01*
X109200000Y-167174487D02*
X109200000Y-166600000D01*
X110500000Y-171100000D02*
X110500000Y-168474487D01*
%TO.N,Net-(U3B--)*%
X112000000Y-200800000D02*
X112000000Y-207700000D01*
X112000000Y-207700000D02*
X110700000Y-209000000D01*
%TO.N,/Right Gate/R_CV_BUFFERED*%
X108700000Y-188800000D02*
X108700000Y-190400000D01*
X110297403Y-160692883D02*
X110301000Y-160696480D01*
X109100000Y-188400000D02*
X108700000Y-188800000D01*
X109472000Y-192328000D02*
X110300000Y-191500000D01*
X109472000Y-202528000D02*
X109472000Y-192328000D01*
X109447211Y-168413062D02*
X109495574Y-168413062D01*
X109100000Y-174528000D02*
X109100000Y-188400000D01*
X108099000Y-204305000D02*
X108099000Y-203901000D01*
X108899000Y-169009636D02*
X108899000Y-174327000D01*
X110301000Y-160696480D02*
X110301000Y-167000000D01*
X109447211Y-168461425D02*
X108899000Y-169009636D01*
X109447211Y-168413062D02*
X109447211Y-168461425D01*
X108899000Y-174327000D02*
X109100000Y-174528000D01*
X110300000Y-191500000D02*
X110300000Y-191200000D01*
X108099000Y-203901000D02*
X109472000Y-202528000D01*
%TO.N,/Right Gate/R_BUFFERED*%
X109599000Y-191490364D02*
X109600000Y-191491364D01*
X107399000Y-201399000D02*
X107399000Y-207199000D01*
X109599000Y-190909636D02*
X109599000Y-191490364D01*
X109044000Y-192150717D02*
X109044000Y-196356000D01*
X109600000Y-169300000D02*
X109600000Y-190908636D01*
X109044000Y-196356000D02*
X106600000Y-198800000D01*
X106500000Y-200500000D02*
X107399000Y-201399000D01*
X109600000Y-190908636D02*
X109599000Y-190909636D01*
X107399000Y-207199000D02*
X109300000Y-209100000D01*
X109600000Y-191491364D02*
X109600000Y-191594716D01*
X114490000Y-164400000D02*
X114490000Y-162340000D01*
X109600000Y-191594716D02*
X109044000Y-192150717D01*
%TO.N,/Left Gate/L_CV_ATTENUATED*%
X114550000Y-146500000D02*
X110000000Y-141950000D01*
X110000000Y-141950000D02*
X110000000Y-140000000D01*
%TO.N,/Right Gate/R_CV_ATTENUATED*%
X113100000Y-169100000D02*
X113100000Y-161408636D01*
X113850000Y-169850000D02*
X113100000Y-169100000D01*
X113850000Y-172500000D02*
X113850000Y-169850000D01*
X110691364Y-159000000D02*
X110000000Y-159000000D01*
X113100000Y-161408636D02*
X110691364Y-159000000D01*
%TO.N,Net-(R9-Pad1)*%
X103810076Y-166778704D02*
X106200000Y-164388780D01*
X106200000Y-164388780D02*
X106200000Y-164300000D01*
D21*
%TO.N,-12V*%
X113776000Y-142524000D02*
X113776000Y-136176000D01*
X113700000Y-142600000D02*
X113776000Y-142524000D01*
X113776000Y-136176000D02*
X105100000Y-127500000D01*
%TD*%
%TA.AperFunction,Conductor*%
%TO.N,GND*%
G36*
X101205703Y-166367516D02*
G01*
X101212181Y-166373548D01*
X104161539Y-169322907D01*
X104188419Y-169363135D01*
X104246295Y-169502860D01*
X104339373Y-169642162D01*
X104457837Y-169760626D01*
X104550494Y-169822537D01*
X104597137Y-169853703D01*
X104751918Y-169917816D01*
X104916228Y-169950499D01*
X104916232Y-169950500D01*
X104916233Y-169950500D01*
X105083768Y-169950500D01*
X105083769Y-169950499D01*
X105248082Y-169917816D01*
X105268306Y-169909438D01*
X105315758Y-169900000D01*
X106100953Y-169900000D01*
X106167992Y-169919685D01*
X106213747Y-169972489D01*
X106223691Y-170041647D01*
X106215514Y-170071453D01*
X106182184Y-170151917D01*
X106182182Y-170151925D01*
X106149500Y-170316228D01*
X106149500Y-170483771D01*
X106182182Y-170648074D01*
X106182184Y-170648082D01*
X106246295Y-170802860D01*
X106339373Y-170942162D01*
X106339376Y-170942165D01*
X106373680Y-170976468D01*
X106407166Y-171037790D01*
X106410000Y-171064150D01*
X106410000Y-172177243D01*
X106408676Y-172175919D01*
X106316324Y-172122600D01*
X106213319Y-172095000D01*
X106106681Y-172095000D01*
X106003676Y-172122600D01*
X105911324Y-172175919D01*
X105910000Y-172177243D01*
X105910000Y-170855000D01*
X105574672Y-170855000D01*
X105472011Y-170865488D01*
X105472011Y-170865489D01*
X105305668Y-170920609D01*
X105305657Y-170920614D01*
X105156521Y-171012603D01*
X105156517Y-171012606D01*
X105032606Y-171136517D01*
X105032603Y-171136521D01*
X104940614Y-171285657D01*
X104940609Y-171285668D01*
X104885489Y-171452011D01*
X104885488Y-171452011D01*
X104875000Y-171554672D01*
X104875000Y-172250000D01*
X105837243Y-172250000D01*
X105835919Y-172251324D01*
X105782600Y-172343676D01*
X105755000Y-172446681D01*
X105755000Y-172553319D01*
X105782600Y-172656324D01*
X105835919Y-172748676D01*
X105837243Y-172750000D01*
X104875000Y-172750000D01*
X104875000Y-173445327D01*
X104885488Y-173547988D01*
X104940609Y-173714331D01*
X104940614Y-173714342D01*
X105032603Y-173863478D01*
X105032606Y-173863482D01*
X105156517Y-173987393D01*
X105156521Y-173987396D01*
X105305657Y-174079385D01*
X105305668Y-174079390D01*
X105472011Y-174134510D01*
X105472011Y-174134511D01*
X105574672Y-174144999D01*
X105574685Y-174145000D01*
X105910000Y-174145000D01*
X105910000Y-172822757D01*
X105911324Y-172824081D01*
X106003676Y-172877400D01*
X106106681Y-172905000D01*
X106213319Y-172905000D01*
X106316324Y-172877400D01*
X106408676Y-172824081D01*
X106410000Y-172822757D01*
X106410000Y-174145000D01*
X106525500Y-174145000D01*
X106592539Y-174164685D01*
X106638294Y-174217489D01*
X106649500Y-174269000D01*
X106649500Y-177642517D01*
X106629815Y-177709556D01*
X106577011Y-177755311D01*
X106507853Y-177765255D01*
X106444297Y-177736230D01*
X106415015Y-177698812D01*
X106338935Y-177549498D01*
X106194097Y-177350145D01*
X106019855Y-177175903D01*
X105820501Y-177031064D01*
X105600940Y-176919192D01*
X105366592Y-176843048D01*
X105184053Y-176814137D01*
X105123208Y-176804500D01*
X104876792Y-176804500D01*
X104795665Y-176817349D01*
X104633409Y-176843048D01*
X104633406Y-176843048D01*
X104399059Y-176919192D01*
X104179498Y-177031064D01*
X103980142Y-177175905D01*
X103805905Y-177350142D01*
X103661064Y-177549498D01*
X103549192Y-177769059D01*
X103473048Y-178003406D01*
X103473048Y-178003409D01*
X103434500Y-178246792D01*
X103434500Y-178493207D01*
X103473048Y-178736590D01*
X103473048Y-178736593D01*
X103549192Y-178970940D01*
X103655302Y-179179192D01*
X103661064Y-179190501D01*
X103805903Y-179389855D01*
X103980145Y-179564097D01*
X104179499Y-179708936D01*
X104352604Y-179797137D01*
X104399059Y-179820807D01*
X104633407Y-179896951D01*
X104633408Y-179896951D01*
X104633411Y-179896952D01*
X104876792Y-179935500D01*
X104876793Y-179935500D01*
X105123207Y-179935500D01*
X105123208Y-179935500D01*
X105366589Y-179896952D01*
X105366592Y-179896951D01*
X105366593Y-179896951D01*
X105600940Y-179820807D01*
X105600940Y-179820806D01*
X105600943Y-179820806D01*
X105820501Y-179708936D01*
X106019855Y-179564097D01*
X106194097Y-179389855D01*
X106338936Y-179190501D01*
X106415015Y-179041186D01*
X106462989Y-178990391D01*
X106530810Y-178973596D01*
X106596945Y-178996133D01*
X106640397Y-179050848D01*
X106649500Y-179097482D01*
X106649500Y-181185471D01*
X106629815Y-181252510D01*
X106577011Y-181298265D01*
X106507853Y-181308209D01*
X106444297Y-181279184D01*
X106411785Y-181234916D01*
X106326487Y-181038746D01*
X106326486Y-181038744D01*
X106192508Y-180831645D01*
X106026504Y-180649210D01*
X105832932Y-180496336D01*
X105616991Y-180377130D01*
X105616982Y-180377126D01*
X105384491Y-180294796D01*
X105384471Y-180294791D01*
X105141644Y-180251538D01*
X105141652Y-180251538D01*
X104900496Y-180248592D01*
X104895007Y-180248525D01*
X104895006Y-180248525D01*
X104895005Y-180248525D01*
X104895004Y-180248525D01*
X104651190Y-180285834D01*
X104651180Y-180285837D01*
X104416732Y-180362466D01*
X104197951Y-180476356D01*
X104197948Y-180476358D01*
X104000698Y-180624456D01*
X103830289Y-180802779D01*
X103830279Y-180802792D01*
X103691287Y-181006547D01*
X103691285Y-181006552D01*
X103587439Y-181230268D01*
X103587436Y-181230276D01*
X103521520Y-181467960D01*
X103521519Y-181467967D01*
X103495307Y-181713225D01*
X103509507Y-181959474D01*
X103509507Y-181959479D01*
X103563731Y-182200092D01*
X103563734Y-182200099D01*
X103610689Y-182315737D01*
X103656533Y-182428636D01*
X103785412Y-182638947D01*
X103860393Y-182725507D01*
X103946908Y-182825382D01*
X104136687Y-182982939D01*
X104136690Y-182982941D01*
X104136696Y-182982945D01*
X104349650Y-183107385D01*
X104580072Y-183195375D01*
X104580075Y-183195375D01*
X104580079Y-183195377D01*
X104821785Y-183244553D01*
X105068278Y-183253592D01*
X105312936Y-183222250D01*
X105549191Y-183151370D01*
X105770697Y-183042856D01*
X105971505Y-182899621D01*
X106146223Y-182725512D01*
X106290158Y-182525205D01*
X106399445Y-182304079D01*
X106406855Y-182279691D01*
X106445177Y-182221269D01*
X106509002Y-182192839D01*
X106578064Y-182203429D01*
X106630438Y-182249676D01*
X106649500Y-182315737D01*
X106649500Y-185942517D01*
X106629815Y-186009556D01*
X106577011Y-186055311D01*
X106507853Y-186065255D01*
X106444297Y-186036230D01*
X106415015Y-185998812D01*
X106338935Y-185849498D01*
X106268039Y-185751918D01*
X106194097Y-185650145D01*
X106019855Y-185475903D01*
X105820501Y-185331064D01*
X105765153Y-185302863D01*
X105600940Y-185219192D01*
X105366592Y-185143048D01*
X105184053Y-185114137D01*
X105123208Y-185104500D01*
X104876792Y-185104500D01*
X104803351Y-185116132D01*
X104633409Y-185143048D01*
X104633406Y-185143048D01*
X104399057Y-185219193D01*
X104399056Y-185219193D01*
X104177975Y-185331839D01*
X104109306Y-185344735D01*
X104044566Y-185318458D01*
X104004309Y-185261352D01*
X104001317Y-185191546D01*
X104007118Y-185173908D01*
X104017816Y-185148082D01*
X104050500Y-184983767D01*
X104050500Y-184816233D01*
X104017816Y-184651918D01*
X103953703Y-184497137D01*
X103874395Y-184378444D01*
X103860626Y-184357837D01*
X103742162Y-184239373D01*
X103602860Y-184146295D01*
X103448082Y-184082184D01*
X103448074Y-184082182D01*
X103283771Y-184049500D01*
X103283767Y-184049500D01*
X103116233Y-184049500D01*
X103116228Y-184049500D01*
X102951925Y-184082182D01*
X102951917Y-184082184D01*
X102797139Y-184146295D01*
X102657837Y-184239373D01*
X102539373Y-184357837D01*
X102446295Y-184497139D01*
X102382184Y-184651917D01*
X102382182Y-184651925D01*
X102349500Y-184816228D01*
X102349500Y-184983771D01*
X102382182Y-185148074D01*
X102382184Y-185148082D01*
X102446295Y-185302860D01*
X102446296Y-185302862D01*
X102446297Y-185302863D01*
X102516067Y-185407281D01*
X102528602Y-185426040D01*
X102549480Y-185492717D01*
X102549500Y-185494931D01*
X102549500Y-200184069D01*
X102564174Y-200257838D01*
X102574499Y-200309744D01*
X102623535Y-200428127D01*
X102655459Y-200475905D01*
X102694726Y-200534673D01*
X102694727Y-200534674D01*
X103427061Y-201267007D01*
X103460546Y-201328330D01*
X103461853Y-201374086D01*
X103434500Y-201546786D01*
X103434500Y-201793207D01*
X103473048Y-202036590D01*
X103473048Y-202036593D01*
X103549192Y-202270940D01*
X103661064Y-202490501D01*
X103805903Y-202689855D01*
X103980145Y-202864097D01*
X104179499Y-203008936D01*
X104399057Y-203120806D01*
X104399059Y-203120807D01*
X104633407Y-203196951D01*
X104633408Y-203196951D01*
X104633411Y-203196952D01*
X104876792Y-203235500D01*
X104876793Y-203235500D01*
X105123207Y-203235500D01*
X105123208Y-203235500D01*
X105366589Y-203196952D01*
X105366592Y-203196951D01*
X105366593Y-203196951D01*
X105600940Y-203120807D01*
X105600940Y-203120806D01*
X105600943Y-203120806D01*
X105820501Y-203008936D01*
X106019855Y-202864097D01*
X106194097Y-202689855D01*
X106338936Y-202490501D01*
X106450806Y-202270943D01*
X106471520Y-202207192D01*
X106506569Y-202099323D01*
X106546006Y-202041648D01*
X106610365Y-202014449D01*
X106679211Y-202026363D01*
X106730687Y-202073607D01*
X106748500Y-202137641D01*
X106748500Y-207263071D01*
X106765821Y-207350145D01*
X106765821Y-207350146D01*
X106773497Y-207388736D01*
X106773499Y-207388744D01*
X106822534Y-207507125D01*
X106893726Y-207613673D01*
X106893727Y-207613674D01*
X108419345Y-209139291D01*
X108452830Y-209200614D01*
X108453281Y-209202781D01*
X108482182Y-209348074D01*
X108482184Y-209348082D01*
X108546295Y-209502860D01*
X108639373Y-209642162D01*
X108757837Y-209760626D01*
X108843430Y-209817817D01*
X108897137Y-209853703D01*
X109051918Y-209917816D01*
X109216228Y-209950499D01*
X109216232Y-209950500D01*
X109216233Y-209950500D01*
X109383768Y-209950500D01*
X109383769Y-209950499D01*
X109548082Y-209917816D01*
X109702863Y-209853703D01*
X109842162Y-209760626D01*
X109893853Y-209708935D01*
X109962319Y-209640470D01*
X110023642Y-209606985D01*
X110093334Y-209611969D01*
X110137681Y-209640470D01*
X110157837Y-209660626D01*
X110230137Y-209708935D01*
X110297137Y-209753703D01*
X110451918Y-209817816D01*
X110526051Y-209832561D01*
X110622208Y-209851689D01*
X110621812Y-209853675D01*
X110677994Y-209876341D01*
X110718371Y-209933362D01*
X110721509Y-210003162D01*
X110688764Y-210061288D01*
X105601778Y-215148275D01*
X105540455Y-215181760D01*
X105475780Y-215178525D01*
X105366591Y-215143048D01*
X105366592Y-215143048D01*
X105184053Y-215114137D01*
X105123208Y-215104500D01*
X104876792Y-215104500D01*
X104795665Y-215117349D01*
X104633409Y-215143048D01*
X104633406Y-215143048D01*
X104399059Y-215219192D01*
X104179498Y-215331064D01*
X103980142Y-215475905D01*
X103805905Y-215650142D01*
X103661064Y-215849498D01*
X103549192Y-216069059D01*
X103473048Y-216303406D01*
X103473048Y-216303409D01*
X103434500Y-216546792D01*
X103434500Y-216793207D01*
X103473048Y-217036590D01*
X103473048Y-217036593D01*
X103549192Y-217270940D01*
X103661064Y-217490501D01*
X103706192Y-217552614D01*
X103729672Y-217618421D01*
X103713847Y-217686475D01*
X103663741Y-217735170D01*
X103605874Y-217749500D01*
X101124500Y-217749500D01*
X101057461Y-217729815D01*
X101011706Y-217677011D01*
X101000500Y-217625500D01*
X101000500Y-211713225D01*
X103495307Y-211713225D01*
X103509507Y-211959474D01*
X103509507Y-211959479D01*
X103563731Y-212200092D01*
X103656533Y-212428636D01*
X103785412Y-212638947D01*
X103860393Y-212725507D01*
X103946908Y-212825382D01*
X104136687Y-212982939D01*
X104136690Y-212982941D01*
X104136696Y-212982945D01*
X104349650Y-213107385D01*
X104580072Y-213195375D01*
X104580075Y-213195375D01*
X104580079Y-213195377D01*
X104821785Y-213244553D01*
X105068278Y-213253592D01*
X105312936Y-213222250D01*
X105549191Y-213151370D01*
X105770697Y-213042856D01*
X105971505Y-212899621D01*
X106146223Y-212725512D01*
X106290158Y-212525205D01*
X106399445Y-212304079D01*
X106471149Y-212068074D01*
X106503344Y-211823526D01*
X106505141Y-211750000D01*
X106484930Y-211504171D01*
X106424841Y-211264945D01*
X106326486Y-211038744D01*
X106192508Y-210831645D01*
X106026504Y-210649210D01*
X105832932Y-210496336D01*
X105616991Y-210377130D01*
X105616982Y-210377126D01*
X105384491Y-210294796D01*
X105384471Y-210294791D01*
X105141644Y-210251538D01*
X105141652Y-210251538D01*
X104900496Y-210248592D01*
X104895007Y-210248525D01*
X104895006Y-210248525D01*
X104895005Y-210248525D01*
X104895004Y-210248525D01*
X104651190Y-210285834D01*
X104651180Y-210285837D01*
X104416732Y-210362466D01*
X104197951Y-210476356D01*
X104197948Y-210476358D01*
X104000698Y-210624456D01*
X103830289Y-210802779D01*
X103830279Y-210802792D01*
X103691287Y-211006547D01*
X103691285Y-211006552D01*
X103587439Y-211230268D01*
X103587436Y-211230276D01*
X103521520Y-211467960D01*
X103521519Y-211467967D01*
X103495307Y-211713225D01*
X101000500Y-211713225D01*
X101000500Y-208246792D01*
X103434500Y-208246792D01*
X103434500Y-208493208D01*
X103446150Y-208566765D01*
X103473048Y-208736590D01*
X103473048Y-208736593D01*
X103549192Y-208970940D01*
X103626441Y-209122550D01*
X103661064Y-209190501D01*
X103805903Y-209389855D01*
X103980145Y-209564097D01*
X104179499Y-209708936D01*
X104280941Y-209760623D01*
X104399059Y-209820807D01*
X104633407Y-209896951D01*
X104633408Y-209896951D01*
X104633411Y-209896952D01*
X104876792Y-209935500D01*
X104876793Y-209935500D01*
X105123207Y-209935500D01*
X105123208Y-209935500D01*
X105366589Y-209896952D01*
X105366592Y-209896951D01*
X105366593Y-209896951D01*
X105600940Y-209820807D01*
X105600940Y-209820806D01*
X105600943Y-209820806D01*
X105820501Y-209708936D01*
X106019855Y-209564097D01*
X106194097Y-209389855D01*
X106338936Y-209190501D01*
X106450806Y-208970943D01*
X106526952Y-208736589D01*
X106565500Y-208493208D01*
X106565500Y-208246792D01*
X106526952Y-208003411D01*
X106526951Y-208003407D01*
X106526951Y-208003406D01*
X106450807Y-207769059D01*
X106449500Y-207766493D01*
X106338936Y-207549499D01*
X106194097Y-207350145D01*
X106019855Y-207175903D01*
X105820501Y-207031064D01*
X105601513Y-206919484D01*
X105550718Y-206871511D01*
X105533923Y-206803690D01*
X105556460Y-206737555D01*
X105611175Y-206694103D01*
X105657809Y-206685000D01*
X106012828Y-206685000D01*
X106012844Y-206684999D01*
X106072372Y-206678598D01*
X106072379Y-206678596D01*
X106207086Y-206628354D01*
X106207093Y-206628350D01*
X106322187Y-206542190D01*
X106322190Y-206542187D01*
X106408350Y-206427093D01*
X106408354Y-206427086D01*
X106458596Y-206292379D01*
X106458598Y-206292372D01*
X106464999Y-206232844D01*
X106465000Y-206232827D01*
X106465000Y-205520000D01*
X105556706Y-205520000D01*
X105586558Y-205447931D01*
X105610000Y-205330080D01*
X105610000Y-205209920D01*
X105586558Y-205092069D01*
X105556706Y-205020000D01*
X106465000Y-205020000D01*
X106465000Y-204307172D01*
X106464999Y-204307155D01*
X106458598Y-204247627D01*
X106458596Y-204247620D01*
X106408354Y-204112913D01*
X106408350Y-204112906D01*
X106322190Y-203997812D01*
X106322187Y-203997809D01*
X106207093Y-203911649D01*
X106207086Y-203911645D01*
X106072379Y-203861403D01*
X106072372Y-203861401D01*
X106012844Y-203855000D01*
X105250000Y-203855000D01*
X105250000Y-204713293D01*
X105177931Y-204683442D01*
X105060080Y-204660000D01*
X104939920Y-204660000D01*
X104822069Y-204683442D01*
X104750000Y-204713293D01*
X104750000Y-203855000D01*
X103987155Y-203855000D01*
X103927627Y-203861401D01*
X103927620Y-203861403D01*
X103792913Y-203911645D01*
X103792906Y-203911649D01*
X103677812Y-203997809D01*
X103677809Y-203997812D01*
X103591649Y-204112906D01*
X103591645Y-204112913D01*
X103541403Y-204247620D01*
X103541401Y-204247627D01*
X103535000Y-204307155D01*
X103535000Y-205020000D01*
X104443294Y-205020000D01*
X104413442Y-205092069D01*
X104390000Y-205209920D01*
X104390000Y-205330080D01*
X104413442Y-205447931D01*
X104443294Y-205520000D01*
X103535000Y-205520000D01*
X103535000Y-206232844D01*
X103541401Y-206292372D01*
X103541403Y-206292379D01*
X103591645Y-206427086D01*
X103591649Y-206427093D01*
X103677809Y-206542187D01*
X103677812Y-206542190D01*
X103792906Y-206628350D01*
X103792913Y-206628354D01*
X103927620Y-206678596D01*
X103927627Y-206678598D01*
X103987155Y-206684999D01*
X103987172Y-206685000D01*
X104342191Y-206685000D01*
X104409230Y-206704685D01*
X104454985Y-206757489D01*
X104464929Y-206826647D01*
X104435904Y-206890203D01*
X104398486Y-206919485D01*
X104179498Y-207031064D01*
X103980142Y-207175905D01*
X103805905Y-207350142D01*
X103661064Y-207549498D01*
X103549192Y-207769059D01*
X103473048Y-208003406D01*
X103473048Y-208003409D01*
X103473048Y-208003411D01*
X103434500Y-208246792D01*
X101000500Y-208246792D01*
X101000500Y-173559511D01*
X101020185Y-173492472D01*
X101072989Y-173446717D01*
X101142147Y-173436773D01*
X101205703Y-173465798D01*
X101234985Y-173503217D01*
X101250540Y-173533747D01*
X101260887Y-173547988D01*
X101369476Y-173697447D01*
X101512553Y-173840524D01*
X101676251Y-173959458D01*
X101856539Y-174051320D01*
X102002665Y-174098799D01*
X102048977Y-174113847D01*
X102248824Y-174145500D01*
X102248829Y-174145500D01*
X102451176Y-174145500D01*
X102651022Y-174113847D01*
X102843461Y-174051320D01*
X103023749Y-173959458D01*
X103187447Y-173840524D01*
X103330524Y-173697447D01*
X103449458Y-173533749D01*
X103541320Y-173353461D01*
X103603847Y-173161022D01*
X103635500Y-172961176D01*
X103635500Y-172038823D01*
X103603847Y-171838977D01*
X103589075Y-171793515D01*
X103541320Y-171646539D01*
X103541317Y-171646533D01*
X103521591Y-171607817D01*
X103449459Y-171466252D01*
X103430740Y-171440488D01*
X103330524Y-171302553D01*
X103187447Y-171159476D01*
X103023749Y-171040542D01*
X102843461Y-170948680D01*
X102793553Y-170932464D01*
X102651022Y-170886152D01*
X102451176Y-170854500D01*
X102451171Y-170854500D01*
X102248829Y-170854500D01*
X102248824Y-170854500D01*
X102048977Y-170886152D01*
X101856536Y-170948681D01*
X101676250Y-171040542D01*
X101648386Y-171060787D01*
X101512553Y-171159476D01*
X101512551Y-171159478D01*
X101512550Y-171159478D01*
X101369478Y-171302550D01*
X101369478Y-171302551D01*
X101369476Y-171302553D01*
X101310009Y-171384402D01*
X101250540Y-171466253D01*
X101234984Y-171496784D01*
X101187010Y-171547579D01*
X101119189Y-171564374D01*
X101053054Y-171541836D01*
X101009603Y-171487121D01*
X101000500Y-171440488D01*
X101000500Y-166461229D01*
X101020185Y-166394190D01*
X101072989Y-166348435D01*
X101142147Y-166338491D01*
X101205703Y-166367516D01*
G37*
%TD.AperFunction*%
%TA.AperFunction,Conductor*%
G36*
X116753005Y-186418931D02*
G01*
X116775147Y-186436515D01*
X116913181Y-186574549D01*
X116946666Y-186635872D01*
X116949500Y-186662230D01*
X116949500Y-193624349D01*
X116929815Y-193691388D01*
X116913181Y-193712030D01*
X116867376Y-193757834D01*
X116867373Y-193757837D01*
X116774295Y-193897139D01*
X116710184Y-194051917D01*
X116710182Y-194051925D01*
X116677500Y-194216228D01*
X116677500Y-194383771D01*
X116710182Y-194548074D01*
X116710184Y-194548082D01*
X116774295Y-194702860D01*
X116867373Y-194842162D01*
X116985837Y-194960626D01*
X117078494Y-195022537D01*
X117125137Y-195053703D01*
X117125138Y-195053703D01*
X117125139Y-195053704D01*
X117160201Y-195068227D01*
X117279918Y-195117816D01*
X117354051Y-195132561D01*
X117450208Y-195151689D01*
X117449916Y-195153155D01*
X117507839Y-195176540D01*
X117548202Y-195233572D01*
X117551323Y-195303371D01*
X117518585Y-195361468D01*
X116994727Y-195885325D01*
X116994726Y-195885326D01*
X116923534Y-195991874D01*
X116874499Y-196110255D01*
X116874497Y-196110261D01*
X116849500Y-196235928D01*
X116849500Y-213849191D01*
X116829815Y-213916230D01*
X116813181Y-213936872D01*
X115601777Y-215148275D01*
X115540454Y-215181760D01*
X115475778Y-215178525D01*
X115366592Y-215143048D01*
X115184053Y-215114137D01*
X115123208Y-215104500D01*
X114876792Y-215104500D01*
X114795665Y-215117349D01*
X114633409Y-215143048D01*
X114633406Y-215143048D01*
X114399059Y-215219192D01*
X114179498Y-215331064D01*
X113980142Y-215475905D01*
X113805905Y-215650142D01*
X113661064Y-215849498D01*
X113549192Y-216069059D01*
X113473048Y-216303406D01*
X113473048Y-216303409D01*
X113434500Y-216546792D01*
X113434500Y-216793207D01*
X113473048Y-217036590D01*
X113473048Y-217036593D01*
X113549192Y-217270940D01*
X113661064Y-217490501D01*
X113706192Y-217552614D01*
X113729672Y-217618421D01*
X113713847Y-217686475D01*
X113663741Y-217735170D01*
X113605874Y-217749500D01*
X106394126Y-217749500D01*
X106327087Y-217729815D01*
X106281332Y-217677011D01*
X106271388Y-217607853D01*
X106293808Y-217552614D01*
X106338936Y-217490501D01*
X106450806Y-217270943D01*
X106526952Y-217036589D01*
X106565500Y-216793208D01*
X106565500Y-216546792D01*
X106526952Y-216303411D01*
X106491472Y-216194218D01*
X106489478Y-216124378D01*
X106521721Y-216068222D01*
X109812437Y-212777506D01*
X110876720Y-211713225D01*
X113495307Y-211713225D01*
X113509507Y-211959474D01*
X113509507Y-211959479D01*
X113563731Y-212200092D01*
X113656533Y-212428636D01*
X113785412Y-212638947D01*
X113860393Y-212725507D01*
X113946908Y-212825382D01*
X114136687Y-212982939D01*
X114136690Y-212982941D01*
X114136696Y-212982945D01*
X114349650Y-213107385D01*
X114580072Y-213195375D01*
X114580075Y-213195375D01*
X114580079Y-213195377D01*
X114821785Y-213244553D01*
X115068278Y-213253592D01*
X115312936Y-213222250D01*
X115549191Y-213151370D01*
X115770697Y-213042856D01*
X115971505Y-212899621D01*
X116146223Y-212725512D01*
X116290158Y-212525205D01*
X116399445Y-212304079D01*
X116471149Y-212068074D01*
X116503344Y-211823526D01*
X116505141Y-211750000D01*
X116484930Y-211504171D01*
X116424841Y-211264945D01*
X116326486Y-211038744D01*
X116192508Y-210831645D01*
X116026504Y-210649210D01*
X115832932Y-210496336D01*
X115616991Y-210377130D01*
X115616982Y-210377126D01*
X115384491Y-210294796D01*
X115384471Y-210294791D01*
X115141644Y-210251538D01*
X115141652Y-210251538D01*
X114900496Y-210248592D01*
X114895007Y-210248525D01*
X114895006Y-210248525D01*
X114895005Y-210248525D01*
X114895004Y-210248525D01*
X114651190Y-210285834D01*
X114651180Y-210285837D01*
X114416732Y-210362466D01*
X114197951Y-210476356D01*
X114197948Y-210476358D01*
X114000698Y-210624456D01*
X113830289Y-210802779D01*
X113830279Y-210802792D01*
X113691287Y-211006547D01*
X113691285Y-211006552D01*
X113587439Y-211230268D01*
X113587436Y-211230276D01*
X113521520Y-211467960D01*
X113521519Y-211467967D01*
X113495307Y-211713225D01*
X110876720Y-211713225D01*
X110962342Y-211627603D01*
X113405273Y-209184672D01*
X113405273Y-209184671D01*
X113405276Y-209184669D01*
X113431173Y-209145910D01*
X113484784Y-209101105D01*
X113554109Y-209092396D01*
X113617137Y-209122550D01*
X113644760Y-209158504D01*
X113661062Y-209190499D01*
X113688530Y-209228305D01*
X113805903Y-209389855D01*
X113980145Y-209564097D01*
X114179499Y-209708936D01*
X114280941Y-209760623D01*
X114399059Y-209820807D01*
X114633407Y-209896951D01*
X114633408Y-209896951D01*
X114633411Y-209896952D01*
X114876792Y-209935500D01*
X114876793Y-209935500D01*
X115123207Y-209935500D01*
X115123208Y-209935500D01*
X115366589Y-209896952D01*
X115366592Y-209896951D01*
X115366593Y-209896951D01*
X115600940Y-209820807D01*
X115600940Y-209820806D01*
X115600943Y-209820806D01*
X115820501Y-209708936D01*
X116019855Y-209564097D01*
X116194097Y-209389855D01*
X116338936Y-209190501D01*
X116450806Y-208970943D01*
X116526952Y-208736589D01*
X116565500Y-208493208D01*
X116565500Y-208246792D01*
X116526952Y-208003411D01*
X116526951Y-208003407D01*
X116526951Y-208003406D01*
X116450807Y-207769059D01*
X116449500Y-207766493D01*
X116338936Y-207549499D01*
X116194097Y-207350145D01*
X116019855Y-207175903D01*
X115820501Y-207031064D01*
X115601513Y-206919484D01*
X115550718Y-206871511D01*
X115533923Y-206803690D01*
X115556460Y-206737555D01*
X115611175Y-206694103D01*
X115657809Y-206685000D01*
X116012828Y-206685000D01*
X116012844Y-206684999D01*
X116072372Y-206678598D01*
X116072379Y-206678596D01*
X116207086Y-206628354D01*
X116207093Y-206628350D01*
X116322187Y-206542190D01*
X116322190Y-206542187D01*
X116408350Y-206427093D01*
X116408354Y-206427086D01*
X116458596Y-206292379D01*
X116458598Y-206292372D01*
X116464999Y-206232844D01*
X116465000Y-206232827D01*
X116465000Y-205520000D01*
X115556706Y-205520000D01*
X115586558Y-205447931D01*
X115610000Y-205330080D01*
X115610000Y-205209920D01*
X115586558Y-205092069D01*
X115556706Y-205020000D01*
X116465000Y-205020000D01*
X116465000Y-204307172D01*
X116464999Y-204307155D01*
X116458598Y-204247627D01*
X116458596Y-204247620D01*
X116408354Y-204112913D01*
X116408350Y-204112906D01*
X116322190Y-203997812D01*
X116322187Y-203997809D01*
X116207093Y-203911649D01*
X116207086Y-203911645D01*
X116072379Y-203861403D01*
X116072372Y-203861401D01*
X116012844Y-203855000D01*
X115250000Y-203855000D01*
X115250000Y-204713293D01*
X115177931Y-204683442D01*
X115060080Y-204660000D01*
X114939920Y-204660000D01*
X114822069Y-204683442D01*
X114750000Y-204713293D01*
X114750000Y-203855000D01*
X113987155Y-203855000D01*
X113927627Y-203861401D01*
X113927620Y-203861403D01*
X113792913Y-203911645D01*
X113792910Y-203911647D01*
X113748811Y-203944660D01*
X113683346Y-203969077D01*
X113615073Y-203954225D01*
X113565668Y-203904820D01*
X113550500Y-203845393D01*
X113550500Y-202719955D01*
X113570185Y-202652916D01*
X113622989Y-202607161D01*
X113692147Y-202597217D01*
X113755703Y-202626242D01*
X113774817Y-202647069D01*
X113805903Y-202689855D01*
X113980145Y-202864097D01*
X114179499Y-203008936D01*
X114399057Y-203120806D01*
X114399059Y-203120807D01*
X114633407Y-203196951D01*
X114633408Y-203196951D01*
X114633411Y-203196952D01*
X114876792Y-203235500D01*
X114876793Y-203235500D01*
X115123207Y-203235500D01*
X115123208Y-203235500D01*
X115366589Y-203196952D01*
X115366592Y-203196951D01*
X115366593Y-203196951D01*
X115600940Y-203120807D01*
X115600940Y-203120806D01*
X115600943Y-203120806D01*
X115820501Y-203008936D01*
X116019855Y-202864097D01*
X116194097Y-202689855D01*
X116338936Y-202490501D01*
X116450806Y-202270943D01*
X116514924Y-202073607D01*
X116526951Y-202036593D01*
X116526951Y-202036592D01*
X116526952Y-202036589D01*
X116565500Y-201793208D01*
X116565500Y-201546792D01*
X116526952Y-201303411D01*
X116526951Y-201303407D01*
X116526951Y-201303406D01*
X116450807Y-201069059D01*
X116338935Y-200849498D01*
X116194097Y-200650145D01*
X116019855Y-200475903D01*
X115820501Y-200331064D01*
X115720131Y-200279923D01*
X115600940Y-200219192D01*
X115366592Y-200143048D01*
X115184053Y-200114137D01*
X115123208Y-200104500D01*
X114876792Y-200104500D01*
X114795665Y-200117349D01*
X114633409Y-200143048D01*
X114633406Y-200143048D01*
X114399059Y-200219192D01*
X114179498Y-200331064D01*
X113980142Y-200475905D01*
X113805904Y-200650143D01*
X113774818Y-200692930D01*
X113719487Y-200735596D01*
X113649874Y-200741574D01*
X113588079Y-200708968D01*
X113553722Y-200648129D01*
X113550500Y-200620044D01*
X113550500Y-197695275D01*
X113570185Y-197628236D01*
X113622989Y-197582481D01*
X113692147Y-197572537D01*
X113755703Y-197601562D01*
X113780228Y-197630487D01*
X113785411Y-197638946D01*
X113847071Y-197710127D01*
X113946908Y-197825382D01*
X114136687Y-197982939D01*
X114136690Y-197982941D01*
X114136696Y-197982945D01*
X114349650Y-198107385D01*
X114580072Y-198195375D01*
X114580075Y-198195375D01*
X114580079Y-198195377D01*
X114821785Y-198244553D01*
X115068278Y-198253592D01*
X115312936Y-198222250D01*
X115549191Y-198151370D01*
X115770697Y-198042856D01*
X115971505Y-197899621D01*
X116146223Y-197725512D01*
X116290158Y-197525205D01*
X116399445Y-197304079D01*
X116471149Y-197068074D01*
X116503344Y-196823526D01*
X116505141Y-196750000D01*
X116484930Y-196504171D01*
X116424841Y-196264945D01*
X116424838Y-196264939D01*
X116424837Y-196264934D01*
X116326487Y-196038746D01*
X116326486Y-196038744D01*
X116192508Y-195831645D01*
X116026504Y-195649210D01*
X115949286Y-195588227D01*
X115832935Y-195496338D01*
X115832932Y-195496336D01*
X115616991Y-195377130D01*
X115616982Y-195377126D01*
X115384491Y-195294796D01*
X115384471Y-195294791D01*
X115141644Y-195251538D01*
X115141652Y-195251538D01*
X114900496Y-195248592D01*
X114895007Y-195248525D01*
X114895006Y-195248525D01*
X114895005Y-195248525D01*
X114895004Y-195248525D01*
X114651190Y-195285834D01*
X114651176Y-195285838D01*
X114554139Y-195317554D01*
X114547661Y-195317750D01*
X114541974Y-195320856D01*
X114513168Y-195318795D01*
X114484301Y-195319671D01*
X114478745Y-195316334D01*
X114472282Y-195315872D01*
X114449161Y-195298564D01*
X114424406Y-195283694D01*
X114421536Y-195277883D01*
X114416349Y-195274000D01*
X114406257Y-195246942D01*
X114393469Y-195221047D01*
X114394196Y-195214607D01*
X114391932Y-195208536D01*
X114398070Y-195180317D01*
X114401313Y-195151619D01*
X114405749Y-195145017D01*
X114406784Y-195140263D01*
X114427931Y-195112013D01*
X114597009Y-194942935D01*
X114658330Y-194909452D01*
X114704081Y-194908145D01*
X114876792Y-194935500D01*
X114876793Y-194935500D01*
X115123207Y-194935500D01*
X115123208Y-194935500D01*
X115366589Y-194896952D01*
X115366592Y-194896951D01*
X115366593Y-194896951D01*
X115600940Y-194820807D01*
X115600940Y-194820806D01*
X115600943Y-194820806D01*
X115820501Y-194708936D01*
X116019855Y-194564097D01*
X116194097Y-194389855D01*
X116338936Y-194190501D01*
X116450806Y-193970943D01*
X116526952Y-193736589D01*
X116565500Y-193493208D01*
X116565500Y-193246792D01*
X116526952Y-193003411D01*
X116526951Y-193003407D01*
X116526951Y-193003406D01*
X116450807Y-192769059D01*
X116420489Y-192709556D01*
X116338936Y-192549499D01*
X116194097Y-192350145D01*
X116019855Y-192175903D01*
X115820501Y-192031064D01*
X115601513Y-191919484D01*
X115550718Y-191871511D01*
X115533923Y-191803690D01*
X115556460Y-191737555D01*
X115611175Y-191694103D01*
X115657809Y-191685000D01*
X116012828Y-191685000D01*
X116012844Y-191684999D01*
X116072372Y-191678598D01*
X116072379Y-191678596D01*
X116207086Y-191628354D01*
X116207093Y-191628350D01*
X116322187Y-191542190D01*
X116322190Y-191542187D01*
X116408350Y-191427093D01*
X116408354Y-191427086D01*
X116458596Y-191292379D01*
X116458598Y-191292372D01*
X116464999Y-191232844D01*
X116465000Y-191232827D01*
X116465000Y-190520000D01*
X115556706Y-190520000D01*
X115586558Y-190447931D01*
X115610000Y-190330080D01*
X115610000Y-190209920D01*
X115586558Y-190092069D01*
X115556706Y-190020000D01*
X116465000Y-190020000D01*
X116465000Y-189307172D01*
X116464999Y-189307155D01*
X116458598Y-189247627D01*
X116458596Y-189247620D01*
X116408354Y-189112913D01*
X116408350Y-189112906D01*
X116322190Y-188997812D01*
X116322187Y-188997809D01*
X116207093Y-188911649D01*
X116207086Y-188911645D01*
X116072379Y-188861403D01*
X116072372Y-188861401D01*
X116012844Y-188855000D01*
X115250000Y-188855000D01*
X115250000Y-189713293D01*
X115177931Y-189683442D01*
X115060080Y-189660000D01*
X114939920Y-189660000D01*
X114822069Y-189683442D01*
X114750000Y-189713293D01*
X114750000Y-188855000D01*
X114358500Y-188855000D01*
X114291461Y-188835315D01*
X114245706Y-188782511D01*
X114234500Y-188731000D01*
X114234500Y-188238010D01*
X114254185Y-188170971D01*
X114306989Y-188125216D01*
X114376147Y-188115272D01*
X114396818Y-188120079D01*
X114633407Y-188196951D01*
X114633408Y-188196951D01*
X114633411Y-188196952D01*
X114876792Y-188235500D01*
X114876793Y-188235500D01*
X115123207Y-188235500D01*
X115123208Y-188235500D01*
X115366589Y-188196952D01*
X115366592Y-188196951D01*
X115366593Y-188196951D01*
X115600940Y-188120807D01*
X115600940Y-188120806D01*
X115600943Y-188120806D01*
X115820501Y-188008936D01*
X116019855Y-187864097D01*
X116194097Y-187689855D01*
X116338936Y-187490501D01*
X116450806Y-187270943D01*
X116526952Y-187036589D01*
X116565500Y-186793208D01*
X116565500Y-186546792D01*
X116564993Y-186543594D01*
X116565151Y-186542370D01*
X116565118Y-186541941D01*
X116565208Y-186541933D01*
X116573946Y-186474305D01*
X116618940Y-186420851D01*
X116685690Y-186400209D01*
X116753005Y-186418931D01*
G37*
%TD.AperFunction*%
%TA.AperFunction,Conductor*%
G36*
X108740834Y-197681626D02*
G01*
X108796767Y-197723498D01*
X108821184Y-197788962D01*
X108821500Y-197797808D01*
X108821500Y-202207192D01*
X108801815Y-202274231D01*
X108785181Y-202294873D01*
X108261181Y-202818873D01*
X108199858Y-202852358D01*
X108130166Y-202847374D01*
X108074233Y-202805502D01*
X108049816Y-202740038D01*
X108049500Y-202731192D01*
X108049500Y-201334928D01*
X108024502Y-201209261D01*
X108024501Y-201209260D01*
X108024501Y-201209256D01*
X107975465Y-201090873D01*
X107944479Y-201044499D01*
X107904277Y-200984331D01*
X107380654Y-200460708D01*
X107347169Y-200399385D01*
X107346718Y-200397218D01*
X107317816Y-200251918D01*
X107253703Y-200097137D01*
X107222537Y-200050494D01*
X107160626Y-199957837D01*
X107042162Y-199839373D01*
X106956088Y-199781861D01*
X106911283Y-199728249D01*
X106902576Y-199658924D01*
X106932730Y-199595897D01*
X106977527Y-199564198D01*
X107002858Y-199553705D01*
X107002857Y-199553705D01*
X107002863Y-199553703D01*
X107142162Y-199460626D01*
X107260626Y-199342162D01*
X107353703Y-199202863D01*
X107417816Y-199048082D01*
X107446718Y-198902781D01*
X107479102Y-198840870D01*
X107480596Y-198839349D01*
X108609819Y-197710127D01*
X108671142Y-197676642D01*
X108740834Y-197681626D01*
G37*
%TD.AperFunction*%
%TA.AperFunction,Conductor*%
G36*
X106596945Y-187296133D02*
G01*
X106640397Y-187350848D01*
X106649500Y-187397482D01*
X106649500Y-192642517D01*
X106629815Y-192709556D01*
X106577011Y-192755311D01*
X106507853Y-192765255D01*
X106444297Y-192736230D01*
X106415015Y-192698812D01*
X106338935Y-192549498D01*
X106194097Y-192350145D01*
X106019855Y-192175903D01*
X105820501Y-192031064D01*
X105720131Y-191979923D01*
X105600940Y-191919192D01*
X105366592Y-191843048D01*
X105184053Y-191814137D01*
X105123208Y-191804500D01*
X104876792Y-191804500D01*
X104795665Y-191817349D01*
X104633409Y-191843048D01*
X104633406Y-191843048D01*
X104399059Y-191919192D01*
X104179495Y-192031066D01*
X104047385Y-192127050D01*
X103981579Y-192150530D01*
X103913525Y-192134705D01*
X103864830Y-192084599D01*
X103850500Y-192026732D01*
X103850500Y-188013267D01*
X103870185Y-187946228D01*
X103922989Y-187900473D01*
X103992147Y-187890529D01*
X104047381Y-187912947D01*
X104179499Y-188008936D01*
X104317383Y-188079191D01*
X104399059Y-188120807D01*
X104633407Y-188196951D01*
X104633408Y-188196951D01*
X104633411Y-188196952D01*
X104876792Y-188235500D01*
X104876793Y-188235500D01*
X105123207Y-188235500D01*
X105123208Y-188235500D01*
X105366589Y-188196952D01*
X105366592Y-188196951D01*
X105366593Y-188196951D01*
X105600940Y-188120807D01*
X105600940Y-188120806D01*
X105600943Y-188120806D01*
X105820501Y-188008936D01*
X106019855Y-187864097D01*
X106194097Y-187689855D01*
X106338936Y-187490501D01*
X106415015Y-187341186D01*
X106462989Y-187290391D01*
X106530810Y-187273596D01*
X106596945Y-187296133D01*
G37*
%TD.AperFunction*%
%TA.AperFunction,Conductor*%
G36*
X115826446Y-163220641D02*
G01*
X115865484Y-163265693D01*
X115920542Y-163373749D01*
X116039476Y-163537447D01*
X116182553Y-163680524D01*
X116346251Y-163799458D01*
X116526539Y-163891320D01*
X116631735Y-163925500D01*
X116718977Y-163953847D01*
X116918824Y-163985500D01*
X116918829Y-163985500D01*
X117121176Y-163985500D01*
X117306102Y-163956210D01*
X117375395Y-163965164D01*
X117428847Y-164010160D01*
X117449487Y-164076912D01*
X117449500Y-164078683D01*
X117449500Y-169452114D01*
X117429815Y-169519153D01*
X117413181Y-169539795D01*
X116018725Y-170934250D01*
X116018724Y-170934251D01*
X116018723Y-170934253D01*
X115966371Y-171012606D01*
X115963948Y-171016232D01*
X115963947Y-171016232D01*
X115947536Y-171040792D01*
X115947534Y-171040796D01*
X115898499Y-171159177D01*
X115898497Y-171159183D01*
X115873500Y-171284850D01*
X115873500Y-171284853D01*
X115873500Y-173715147D01*
X115873500Y-173715149D01*
X115873499Y-173715149D01*
X115885838Y-173777175D01*
X115894672Y-173821584D01*
X115898499Y-173840822D01*
X115947535Y-173959205D01*
X116018723Y-174065747D01*
X116018726Y-174065751D01*
X116018727Y-174065752D01*
X117541181Y-175588205D01*
X117574666Y-175649528D01*
X117577500Y-175675886D01*
X117577500Y-184816770D01*
X117557815Y-184883809D01*
X117505011Y-184929564D01*
X117435853Y-184939508D01*
X117372297Y-184910483D01*
X117365819Y-184904451D01*
X117138459Y-184677091D01*
X117111580Y-184636864D01*
X117053703Y-184497137D01*
X116974395Y-184378444D01*
X116960626Y-184357837D01*
X116842162Y-184239373D01*
X116702860Y-184146295D01*
X116548082Y-184082184D01*
X116548074Y-184082182D01*
X116383771Y-184049500D01*
X116383767Y-184049500D01*
X116216233Y-184049500D01*
X116216228Y-184049500D01*
X116051925Y-184082182D01*
X116051917Y-184082184D01*
X115897139Y-184146295D01*
X115757837Y-184239373D01*
X115639373Y-184357837D01*
X115546295Y-184497139D01*
X115482184Y-184651917D01*
X115482182Y-184651925D01*
X115449500Y-184816228D01*
X115449500Y-184983771D01*
X115450202Y-184987300D01*
X115450033Y-184989183D01*
X115450097Y-184989830D01*
X115449974Y-184989842D01*
X115443970Y-185056891D01*
X115401103Y-185112066D01*
X115335212Y-185135306D01*
X115309185Y-185133956D01*
X115196649Y-185116132D01*
X115123208Y-185104500D01*
X114876792Y-185104500D01*
X114803351Y-185116132D01*
X114633409Y-185143048D01*
X114633406Y-185143048D01*
X114396818Y-185219921D01*
X114326977Y-185221916D01*
X114267144Y-185185836D01*
X114236316Y-185123135D01*
X114234500Y-185101990D01*
X114234500Y-184828564D01*
X114209502Y-184702897D01*
X114209501Y-184702896D01*
X114209501Y-184702892D01*
X114160465Y-184584509D01*
X114133736Y-184544506D01*
X114102088Y-184497141D01*
X114089278Y-184477968D01*
X114089272Y-184477961D01*
X111986819Y-182375508D01*
X111953334Y-182314185D01*
X111950500Y-182287827D01*
X111950500Y-181713225D01*
X113495307Y-181713225D01*
X113509507Y-181959474D01*
X113509507Y-181959479D01*
X113563731Y-182200092D01*
X113563734Y-182200099D01*
X113610689Y-182315737D01*
X113656533Y-182428636D01*
X113785412Y-182638947D01*
X113860393Y-182725507D01*
X113946908Y-182825382D01*
X114136687Y-182982939D01*
X114136690Y-182982941D01*
X114136696Y-182982945D01*
X114349650Y-183107385D01*
X114580072Y-183195375D01*
X114580075Y-183195375D01*
X114580079Y-183195377D01*
X114821785Y-183244553D01*
X115068278Y-183253592D01*
X115312936Y-183222250D01*
X115549191Y-183151370D01*
X115770697Y-183042856D01*
X115971505Y-182899621D01*
X116146223Y-182725512D01*
X116290158Y-182525205D01*
X116399445Y-182304079D01*
X116471149Y-182068074D01*
X116503344Y-181823526D01*
X116505141Y-181750000D01*
X116484930Y-181504171D01*
X116424841Y-181264945D01*
X116326486Y-181038744D01*
X116192508Y-180831645D01*
X116026504Y-180649210D01*
X115832932Y-180496336D01*
X115616991Y-180377130D01*
X115616982Y-180377126D01*
X115384491Y-180294796D01*
X115384471Y-180294791D01*
X115141644Y-180251538D01*
X115141652Y-180251538D01*
X114900496Y-180248592D01*
X114895007Y-180248525D01*
X114895006Y-180248525D01*
X114895005Y-180248525D01*
X114895004Y-180248525D01*
X114651190Y-180285834D01*
X114651180Y-180285837D01*
X114416732Y-180362466D01*
X114197951Y-180476356D01*
X114197948Y-180476358D01*
X114000698Y-180624456D01*
X113830289Y-180802779D01*
X113830279Y-180802792D01*
X113691287Y-181006547D01*
X113691285Y-181006552D01*
X113587439Y-181230268D01*
X113587436Y-181230276D01*
X113521520Y-181467960D01*
X113521519Y-181467967D01*
X113495307Y-181713225D01*
X111950500Y-181713225D01*
X111950500Y-180952644D01*
X111970185Y-180885605D01*
X112022989Y-180839850D01*
X112092147Y-180829906D01*
X112153167Y-180856793D01*
X112157836Y-180860625D01*
X112227487Y-180907164D01*
X112297137Y-180953703D01*
X112451918Y-181017816D01*
X112616228Y-181050499D01*
X112616232Y-181050500D01*
X112616233Y-181050500D01*
X112783768Y-181050500D01*
X112783769Y-181050499D01*
X112948082Y-181017816D01*
X113102863Y-180953703D01*
X113242162Y-180860626D01*
X113360626Y-180742162D01*
X113453703Y-180602863D01*
X113517816Y-180448082D01*
X113550500Y-180283767D01*
X113550500Y-180116233D01*
X113517816Y-179951918D01*
X113453703Y-179797137D01*
X113394768Y-179708935D01*
X113360626Y-179657837D01*
X113242162Y-179539373D01*
X113102860Y-179446295D01*
X112948082Y-179382184D01*
X112948074Y-179382182D01*
X112802781Y-179353281D01*
X112786024Y-179344516D01*
X112767545Y-179340496D01*
X112742506Y-179321751D01*
X112740870Y-179320896D01*
X112739291Y-179319345D01*
X112686819Y-179266873D01*
X112653334Y-179205550D01*
X112650500Y-179179192D01*
X112650500Y-178246792D01*
X113434500Y-178246792D01*
X113434500Y-178493207D01*
X113473048Y-178736590D01*
X113473048Y-178736593D01*
X113549192Y-178970940D01*
X113655302Y-179179192D01*
X113661064Y-179190501D01*
X113805903Y-179389855D01*
X113980145Y-179564097D01*
X114179499Y-179708936D01*
X114352604Y-179797137D01*
X114399059Y-179820807D01*
X114633407Y-179896951D01*
X114633408Y-179896951D01*
X114633411Y-179896952D01*
X114876792Y-179935500D01*
X114876793Y-179935500D01*
X115123207Y-179935500D01*
X115123208Y-179935500D01*
X115366589Y-179896952D01*
X115366592Y-179896951D01*
X115366593Y-179896951D01*
X115600940Y-179820807D01*
X115600940Y-179820806D01*
X115600943Y-179820806D01*
X115820501Y-179708936D01*
X116019855Y-179564097D01*
X116194097Y-179389855D01*
X116338936Y-179190501D01*
X116450806Y-178970943D01*
X116526952Y-178736589D01*
X116565500Y-178493208D01*
X116565500Y-178246792D01*
X116526952Y-178003411D01*
X116526951Y-178003407D01*
X116526951Y-178003406D01*
X116450807Y-177769059D01*
X116420489Y-177709556D01*
X116338936Y-177549499D01*
X116194097Y-177350145D01*
X116019855Y-177175903D01*
X115820501Y-177031064D01*
X115600940Y-176919192D01*
X115366592Y-176843048D01*
X115184053Y-176814137D01*
X115123208Y-176804500D01*
X114876792Y-176804500D01*
X114795665Y-176817349D01*
X114633409Y-176843048D01*
X114633406Y-176843048D01*
X114399059Y-176919192D01*
X114179498Y-177031064D01*
X113980142Y-177175905D01*
X113805905Y-177350142D01*
X113661064Y-177549498D01*
X113549192Y-177769059D01*
X113473048Y-178003406D01*
X113473048Y-178003409D01*
X113434500Y-178246792D01*
X112650500Y-178246792D01*
X112650500Y-173777175D01*
X112670185Y-173710136D01*
X112722989Y-173664381D01*
X112792147Y-173654437D01*
X112855703Y-173683462D01*
X112868792Y-173696646D01*
X112869476Y-173697447D01*
X113012553Y-173840524D01*
X113176251Y-173959458D01*
X113356539Y-174051320D01*
X113502665Y-174098799D01*
X113548977Y-174113847D01*
X113748824Y-174145500D01*
X113748829Y-174145500D01*
X113951176Y-174145500D01*
X114151022Y-174113847D01*
X114343461Y-174051320D01*
X114523749Y-173959458D01*
X114687447Y-173840524D01*
X114830524Y-173697447D01*
X114949458Y-173533749D01*
X115041320Y-173353461D01*
X115103847Y-173161022D01*
X115135500Y-172961176D01*
X115135500Y-172038823D01*
X115103847Y-171838977D01*
X115088799Y-171792665D01*
X115041320Y-171646539D01*
X114949458Y-171466251D01*
X114830524Y-171302553D01*
X114687447Y-171159476D01*
X114551614Y-171060787D01*
X114508949Y-171005456D01*
X114500500Y-170960469D01*
X114500500Y-169785928D01*
X114475502Y-169660261D01*
X114475501Y-169660260D01*
X114475501Y-169660256D01*
X114426465Y-169541873D01*
X114426464Y-169541872D01*
X114426461Y-169541866D01*
X114355277Y-169435332D01*
X114355276Y-169435331D01*
X114264669Y-169344724D01*
X113786819Y-168866873D01*
X113753334Y-168805550D01*
X113750500Y-168779192D01*
X113750500Y-165160756D01*
X113770185Y-165093717D01*
X113822989Y-165047962D01*
X113892147Y-165038018D01*
X113943391Y-165057654D01*
X113947836Y-165060624D01*
X113947838Y-165060626D01*
X114087137Y-165153703D01*
X114087138Y-165153703D01*
X114087139Y-165153704D01*
X114097479Y-165157987D01*
X114241918Y-165217816D01*
X114406228Y-165250499D01*
X114406232Y-165250500D01*
X114406233Y-165250500D01*
X114573768Y-165250500D01*
X114573769Y-165250499D01*
X114738082Y-165217816D01*
X114892863Y-165153703D01*
X115032162Y-165060626D01*
X115150626Y-164942162D01*
X115243703Y-164802863D01*
X115307816Y-164648082D01*
X115340500Y-164483767D01*
X115340500Y-164316233D01*
X115307816Y-164151918D01*
X115243703Y-163997137D01*
X115194890Y-163924084D01*
X115174014Y-163857408D01*
X115192499Y-163790028D01*
X115225109Y-163754877D01*
X115229501Y-163751686D01*
X115327447Y-163680524D01*
X115470524Y-163537447D01*
X115589458Y-163373749D01*
X115644515Y-163265693D01*
X115692490Y-163214898D01*
X115760311Y-163198103D01*
X115826446Y-163220641D01*
G37*
%TD.AperFunction*%
%TA.AperFunction,Conductor*%
G36*
X112894377Y-145769771D02*
G01*
X112918788Y-145788734D01*
X113669345Y-146539291D01*
X113702830Y-146600614D01*
X113703281Y-146602781D01*
X113732182Y-146748074D01*
X113732184Y-146748082D01*
X113796295Y-146902860D01*
X113889373Y-147042162D01*
X114007837Y-147160626D01*
X114100494Y-147222537D01*
X114147137Y-147253703D01*
X114301918Y-147317816D01*
X114466228Y-147350499D01*
X114466232Y-147350500D01*
X114466233Y-147350500D01*
X114633768Y-147350500D01*
X114633769Y-147350499D01*
X114798082Y-147317816D01*
X114952863Y-147253703D01*
X115092162Y-147160626D01*
X115210626Y-147042162D01*
X115303703Y-146902863D01*
X115341225Y-146812276D01*
X115385066Y-146757874D01*
X115451360Y-146735809D01*
X115519059Y-146753088D01*
X115543467Y-146772049D01*
X116013181Y-147241763D01*
X116046666Y-147303086D01*
X116049500Y-147329444D01*
X116049500Y-149817500D01*
X116029815Y-149884539D01*
X115977011Y-149930294D01*
X115925500Y-149941500D01*
X112894129Y-149941500D01*
X112894123Y-149941501D01*
X112834516Y-149947908D01*
X112699671Y-149998202D01*
X112699664Y-149998206D01*
X112584455Y-150084452D01*
X112584452Y-150084455D01*
X112498206Y-150199664D01*
X112498202Y-150199671D01*
X112447908Y-150334517D01*
X112441501Y-150394116D01*
X112441500Y-150394135D01*
X112441500Y-153605870D01*
X112441501Y-153605876D01*
X112447908Y-153665483D01*
X112498202Y-153800328D01*
X112498206Y-153800335D01*
X112584452Y-153915544D01*
X112584455Y-153915547D01*
X112699664Y-154001793D01*
X112699671Y-154001797D01*
X112834517Y-154052091D01*
X112834516Y-154052091D01*
X112841444Y-154052835D01*
X112894127Y-154058500D01*
X115925500Y-154058499D01*
X115992539Y-154078184D01*
X116038294Y-154130988D01*
X116049500Y-154182499D01*
X116049500Y-156705068D01*
X116029815Y-156772107D01*
X116028602Y-156773959D01*
X115946295Y-156897139D01*
X115882184Y-157051917D01*
X115882182Y-157051925D01*
X115849500Y-157216228D01*
X115849500Y-157383771D01*
X115882182Y-157548074D01*
X115882184Y-157548082D01*
X115946295Y-157702860D01*
X116039373Y-157842162D01*
X116157837Y-157960626D01*
X116250494Y-158022537D01*
X116297137Y-158053703D01*
X116451918Y-158117816D01*
X116616228Y-158150499D01*
X116616232Y-158150500D01*
X116616233Y-158150500D01*
X116625500Y-158150500D01*
X116692539Y-158170185D01*
X116738294Y-158222989D01*
X116749500Y-158274500D01*
X116749500Y-160626144D01*
X116729815Y-160693183D01*
X116677011Y-160738938D01*
X116663819Y-160744075D01*
X116526534Y-160788681D01*
X116346250Y-160880542D01*
X116283155Y-160926384D01*
X116182553Y-160999476D01*
X116182551Y-160999478D01*
X116182550Y-160999478D01*
X116039478Y-161142550D01*
X116039478Y-161142551D01*
X116039476Y-161142553D01*
X116003744Y-161191733D01*
X115920540Y-161306252D01*
X115865484Y-161414306D01*
X115817510Y-161465101D01*
X115749689Y-161481896D01*
X115683554Y-161459358D01*
X115644516Y-161414306D01*
X115589459Y-161306252D01*
X115546509Y-161247137D01*
X115470524Y-161142553D01*
X115327447Y-160999476D01*
X115163749Y-160880542D01*
X114983461Y-160788680D01*
X114931279Y-160771725D01*
X114791022Y-160726152D01*
X114591176Y-160694500D01*
X114591171Y-160694500D01*
X114388829Y-160694500D01*
X114388824Y-160694500D01*
X114188977Y-160726152D01*
X113996536Y-160788681D01*
X113816251Y-160880541D01*
X113714040Y-160954802D01*
X113648233Y-160978281D01*
X113580179Y-160962455D01*
X113553474Y-160942164D01*
X113017465Y-160406155D01*
X112983980Y-160344832D01*
X112988964Y-160275140D01*
X113030836Y-160219207D01*
X113048844Y-160207993D01*
X113194714Y-160133670D01*
X113363505Y-160011035D01*
X113511035Y-159863505D01*
X113633670Y-159694714D01*
X113728389Y-159508816D01*
X113792862Y-159310389D01*
X113825500Y-159104324D01*
X113825500Y-158895675D01*
X113792862Y-158689610D01*
X113728387Y-158491179D01*
X113662470Y-158361809D01*
X113633670Y-158305286D01*
X113511035Y-158136495D01*
X113363505Y-157988965D01*
X113194714Y-157866330D01*
X113008820Y-157771612D01*
X112810389Y-157707137D01*
X112604324Y-157674500D01*
X112604319Y-157674500D01*
X112395681Y-157674500D01*
X112395676Y-157674500D01*
X112189610Y-157707137D01*
X111991179Y-157771612D01*
X111805285Y-157866330D01*
X111636493Y-157988966D01*
X111488966Y-158136493D01*
X111366330Y-158305286D01*
X111360484Y-158316759D01*
X111312508Y-158367554D01*
X111244687Y-158384348D01*
X111178553Y-158361809D01*
X111139516Y-158316759D01*
X111138303Y-158314380D01*
X111133670Y-158305286D01*
X111011035Y-158136495D01*
X110863505Y-157988965D01*
X110694714Y-157866330D01*
X110508820Y-157771612D01*
X110310389Y-157707137D01*
X110104324Y-157674500D01*
X110104319Y-157674500D01*
X109895681Y-157674500D01*
X109895676Y-157674500D01*
X109689610Y-157707137D01*
X109491179Y-157771612D01*
X109305285Y-157866330D01*
X109136493Y-157988966D01*
X108988966Y-158136493D01*
X108866330Y-158305285D01*
X108771612Y-158491179D01*
X108707137Y-158689610D01*
X108674500Y-158895675D01*
X108674500Y-159104324D01*
X108707137Y-159310389D01*
X108771613Y-159508823D01*
X108822376Y-159608450D01*
X108835272Y-159677119D01*
X108808995Y-159741859D01*
X108756993Y-159778517D01*
X108757546Y-159779851D01*
X108597139Y-159846293D01*
X108457837Y-159939371D01*
X108457834Y-159939374D01*
X108335066Y-160062143D01*
X108333416Y-160060493D01*
X108284240Y-160093996D01*
X108246123Y-160100000D01*
X107012730Y-160100000D01*
X106945691Y-160080315D01*
X106925049Y-160063681D01*
X104377819Y-157516451D01*
X104344334Y-157455128D01*
X104341500Y-157428770D01*
X104341500Y-154883500D01*
X104361185Y-154816461D01*
X104413989Y-154770706D01*
X104465500Y-154759500D01*
X107582920Y-154759500D01*
X107680462Y-154740096D01*
X107727913Y-154730658D01*
X107864495Y-154674084D01*
X107987416Y-154591951D01*
X108091951Y-154487416D01*
X108174084Y-154364495D01*
X108230658Y-154227913D01*
X108259500Y-154082918D01*
X108259500Y-149917082D01*
X108259500Y-149917079D01*
X108230659Y-149772092D01*
X108230658Y-149772091D01*
X108230658Y-149772087D01*
X108230656Y-149772082D01*
X108174087Y-149635511D01*
X108174080Y-149635498D01*
X108091951Y-149512584D01*
X108091948Y-149512580D01*
X107987419Y-149408051D01*
X107987415Y-149408048D01*
X107864501Y-149325919D01*
X107864488Y-149325912D01*
X107727917Y-149269343D01*
X107727907Y-149269340D01*
X107582920Y-149240500D01*
X107582918Y-149240500D01*
X104465500Y-149240500D01*
X104398461Y-149220815D01*
X104352706Y-149168011D01*
X104341500Y-149116500D01*
X104341500Y-148116236D01*
X104361185Y-148049197D01*
X104413989Y-148003442D01*
X104483147Y-147993498D01*
X104512948Y-148001674D01*
X104551918Y-148017816D01*
X104709682Y-148049197D01*
X104716228Y-148050499D01*
X104716232Y-148050500D01*
X104716233Y-148050500D01*
X104883768Y-148050500D01*
X104883769Y-148050499D01*
X105048082Y-148017816D01*
X105202863Y-147953703D01*
X105326041Y-147871398D01*
X105392719Y-147850520D01*
X105394932Y-147850500D01*
X110264071Y-147850500D01*
X110348615Y-147833682D01*
X110389744Y-147825501D01*
X110508127Y-147776465D01*
X110614669Y-147705277D01*
X111994317Y-146325627D01*
X112055638Y-146292144D01*
X112057690Y-146291715D01*
X112203107Y-146262791D01*
X112357888Y-146198678D01*
X112497187Y-146105601D01*
X112615651Y-145987137D01*
X112708728Y-145847838D01*
X112716546Y-145828963D01*
X112760384Y-145774561D01*
X112826677Y-145752494D01*
X112894377Y-145769771D01*
G37*
%TD.AperFunction*%
%TA.AperFunction,Conductor*%
G36*
X111664043Y-135141258D02*
G01*
X111708391Y-135169759D01*
X112989181Y-136450549D01*
X113022666Y-136511872D01*
X113025500Y-136538230D01*
X113025500Y-138606360D01*
X113005815Y-138673399D01*
X112953011Y-138719154D01*
X112883853Y-138729098D01*
X112863182Y-138724291D01*
X112810391Y-138707138D01*
X112604324Y-138674500D01*
X112604319Y-138674500D01*
X112395681Y-138674500D01*
X112395676Y-138674500D01*
X112189610Y-138707137D01*
X111991179Y-138771612D01*
X111805285Y-138866330D01*
X111636493Y-138988966D01*
X111488966Y-139136493D01*
X111366330Y-139305286D01*
X111360484Y-139316759D01*
X111312508Y-139367554D01*
X111244687Y-139384348D01*
X111178553Y-139361809D01*
X111139516Y-139316759D01*
X111138303Y-139314380D01*
X111133670Y-139305286D01*
X111011035Y-139136495D01*
X110863505Y-138988965D01*
X110694714Y-138866330D01*
X110508820Y-138771612D01*
X110310389Y-138707137D01*
X110104324Y-138674500D01*
X110104319Y-138674500D01*
X109895681Y-138674500D01*
X109895676Y-138674500D01*
X109689610Y-138707137D01*
X109491179Y-138771612D01*
X109305285Y-138866330D01*
X109136493Y-138988966D01*
X108988966Y-139136493D01*
X108866330Y-139305285D01*
X108771612Y-139491179D01*
X108707137Y-139689610D01*
X108674500Y-139895675D01*
X108674500Y-140104324D01*
X108707137Y-140310389D01*
X108771612Y-140508820D01*
X108844964Y-140652781D01*
X108866330Y-140694714D01*
X108988965Y-140863505D01*
X109136495Y-141011035D01*
X109298387Y-141128657D01*
X109341051Y-141183986D01*
X109349500Y-141228974D01*
X109349500Y-142014070D01*
X109364553Y-142089742D01*
X109364553Y-142089744D01*
X109374497Y-142139736D01*
X109374499Y-142139744D01*
X109391840Y-142181610D01*
X109423535Y-142258127D01*
X109494723Y-142364669D01*
X109494726Y-142364673D01*
X109494727Y-142364674D01*
X111611265Y-144481211D01*
X111644750Y-144542534D01*
X111639766Y-144612226D01*
X111597894Y-144668159D01*
X111571039Y-144683452D01*
X111552165Y-144691270D01*
X111552164Y-144691270D01*
X111412862Y-144784348D01*
X111294398Y-144902812D01*
X111201320Y-145042114D01*
X111137209Y-145196892D01*
X111137207Y-145196898D01*
X111108306Y-145342194D01*
X111075921Y-145404105D01*
X111074370Y-145405683D01*
X109966873Y-146513181D01*
X109905550Y-146546666D01*
X109879192Y-146549500D01*
X105394932Y-146549500D01*
X105327893Y-146529815D01*
X105326041Y-146528602D01*
X105202860Y-146446295D01*
X105048082Y-146382184D01*
X105048074Y-146382182D01*
X104883771Y-146349500D01*
X104883767Y-146349500D01*
X104716233Y-146349500D01*
X104716228Y-146349500D01*
X104551925Y-146382182D01*
X104551917Y-146382184D01*
X104512953Y-146398324D01*
X104443483Y-146405793D01*
X104381004Y-146374518D01*
X104345352Y-146314429D01*
X104341500Y-146283763D01*
X104341500Y-145971230D01*
X104361185Y-145904191D01*
X104377819Y-145883549D01*
X105064476Y-145196892D01*
X105882952Y-144378416D01*
X105932186Y-144304729D01*
X105965084Y-144255495D01*
X106021658Y-144118913D01*
X106050500Y-143973918D01*
X106050500Y-139162229D01*
X106070185Y-139095190D01*
X106086819Y-139074548D01*
X106555007Y-138606360D01*
X107522908Y-137638458D01*
X107563130Y-137611582D01*
X107702863Y-137553703D01*
X107842162Y-137460626D01*
X107960626Y-137342162D01*
X108053703Y-137202863D01*
X108117816Y-137048082D01*
X108150500Y-136883767D01*
X108150500Y-136716233D01*
X108117816Y-136551918D01*
X108053703Y-136397137D01*
X108019271Y-136345606D01*
X107960626Y-136257837D01*
X107837855Y-136135066D01*
X107839131Y-136133789D01*
X107804582Y-136083061D01*
X107802717Y-136013216D01*
X107834901Y-135957283D01*
X108205367Y-135586819D01*
X108266690Y-135553334D01*
X108293048Y-135550500D01*
X110773920Y-135550500D01*
X110871462Y-135531096D01*
X110918913Y-135521658D01*
X111055495Y-135465084D01*
X111096470Y-135437705D01*
X111141171Y-135419190D01*
X111148082Y-135417816D01*
X111302863Y-135353703D01*
X111442162Y-135260626D01*
X111533030Y-135169757D01*
X111594351Y-135136274D01*
X111664043Y-135141258D01*
G37*
%TD.AperFunction*%
%TA.AperFunction,Conductor*%
G36*
X111197106Y-113803554D02*
G01*
X111199908Y-113804143D01*
X111213993Y-113818025D01*
X111231108Y-113827932D01*
X111247395Y-113850947D01*
X111249670Y-113853189D01*
X111251549Y-113856704D01*
X111257290Y-113867870D01*
X111257320Y-113868030D01*
X111257322Y-113868033D01*
X111257321Y-113868033D01*
X111257392Y-113868402D01*
X111257485Y-113868355D01*
X111308573Y-113968620D01*
X111360439Y-114040006D01*
X111360439Y-114040007D01*
X112050504Y-113349941D01*
X112066619Y-113410081D01*
X112133498Y-113525920D01*
X112228080Y-113620502D01*
X112343919Y-113687381D01*
X112404057Y-113703494D01*
X111713991Y-114393559D01*
X111714671Y-114402196D01*
X111743060Y-114439012D01*
X111749039Y-114508625D01*
X111716433Y-114570420D01*
X111714152Y-114572395D01*
X111713991Y-114574439D01*
X112404057Y-115264504D01*
X112343919Y-115280619D01*
X112228080Y-115347498D01*
X112133498Y-115442080D01*
X112066619Y-115557919D01*
X112050504Y-115618058D01*
X111342878Y-114910432D01*
X111340067Y-114909841D01*
X111326000Y-114895970D01*
X111308902Y-114886077D01*
X111292576Y-114863013D01*
X111290316Y-114860784D01*
X111288457Y-114857308D01*
X111282714Y-114846142D01*
X111282682Y-114845977D01*
X111282679Y-114845971D01*
X111282681Y-114845969D01*
X111282608Y-114845591D01*
X111282512Y-114845641D01*
X111231428Y-114745381D01*
X111179559Y-114673992D01*
X111179559Y-114673991D01*
X110489494Y-115364056D01*
X110473381Y-115303919D01*
X110406502Y-115188080D01*
X110311920Y-115093498D01*
X110196081Y-115026619D01*
X110135940Y-115010504D01*
X110815906Y-114330540D01*
X110795210Y-114270272D01*
X110793740Y-114237768D01*
X110790958Y-114205374D01*
X110792171Y-114203074D01*
X110792054Y-114200474D01*
X110808390Y-114172334D01*
X110823564Y-114143579D01*
X110825846Y-114141601D01*
X110826006Y-114139559D01*
X110135942Y-113449495D01*
X110196081Y-113433381D01*
X110311920Y-113366502D01*
X110406502Y-113271920D01*
X110473381Y-113156081D01*
X110489494Y-113095942D01*
X111197106Y-113803554D01*
G37*
%TD.AperFunction*%
%TA.AperFunction,Conductor*%
G36*
X106986619Y-113410081D02*
G01*
X107053498Y-113525920D01*
X107148080Y-113620502D01*
X107263919Y-113687381D01*
X107324057Y-113703494D01*
X106633991Y-114393559D01*
X106634671Y-114402196D01*
X106663060Y-114439012D01*
X106669039Y-114508625D01*
X106636433Y-114570420D01*
X106634152Y-114572395D01*
X106633991Y-114574439D01*
X107324057Y-115264504D01*
X107263919Y-115280619D01*
X107148080Y-115347498D01*
X107053498Y-115442080D01*
X106986619Y-115557919D01*
X106970504Y-115618057D01*
X106262686Y-114910239D01*
X106260615Y-114909804D01*
X106210861Y-114860750D01*
X106208784Y-114856848D01*
X106203327Y-114846139D01*
X106151855Y-114745118D01*
X106151853Y-114745115D01*
X106151852Y-114745113D01*
X106018605Y-114561713D01*
X106018601Y-114561708D01*
X105895711Y-114438818D01*
X105858293Y-114401400D01*
X105758094Y-114328601D01*
X105755827Y-114326786D01*
X105737416Y-114300439D01*
X105717791Y-114274989D01*
X105717533Y-114271985D01*
X105715806Y-114269514D01*
X105714562Y-114237394D01*
X105711812Y-114205376D01*
X105713218Y-114202709D01*
X105713102Y-114199696D01*
X105729420Y-114172002D01*
X105744417Y-114143580D01*
X105747996Y-114140478D01*
X105748573Y-114139500D01*
X105749894Y-114138833D01*
X105760456Y-114129682D01*
X105858293Y-114058600D01*
X106013280Y-113903612D01*
X106074600Y-113870130D01*
X106144291Y-113875114D01*
X106200225Y-113916985D01*
X106211442Y-113935000D01*
X106228571Y-113968617D01*
X106280439Y-114040006D01*
X106280439Y-114040007D01*
X106970504Y-113349941D01*
X106986619Y-113410081D01*
G37*
%TD.AperFunction*%
%TA.AperFunction,Conductor*%
G36*
X109526619Y-113156081D02*
G01*
X109593498Y-113271920D01*
X109688080Y-113366502D01*
X109803919Y-113433381D01*
X109864057Y-113449494D01*
X109186064Y-114127486D01*
X109206206Y-114194123D01*
X109206759Y-114263990D01*
X109174402Y-114315227D01*
X109173991Y-114320439D01*
X109864057Y-115010504D01*
X109803919Y-115026619D01*
X109688080Y-115093498D01*
X109593498Y-115188080D01*
X109526619Y-115303919D01*
X109510504Y-115364057D01*
X108820439Y-114673991D01*
X108820438Y-114673992D01*
X108768574Y-114745376D01*
X108768572Y-114745380D01*
X108718217Y-114844207D01*
X108717285Y-114846139D01*
X108711542Y-114857306D01*
X108707298Y-114861765D01*
X108707581Y-114861969D01*
X108707405Y-114862213D01*
X108707089Y-114861985D01*
X108687533Y-114882535D01*
X108663769Y-114907692D01*
X108663539Y-114907748D01*
X108663376Y-114907921D01*
X108658424Y-114909127D01*
X107949494Y-115618057D01*
X107933381Y-115557919D01*
X107866502Y-115442080D01*
X107771920Y-115347498D01*
X107656081Y-115280619D01*
X107595940Y-115264504D01*
X108286007Y-114574439D01*
X108285327Y-114565804D01*
X108256937Y-114528987D01*
X108250958Y-114459374D01*
X108283564Y-114397579D01*
X108285846Y-114395601D01*
X108286006Y-114393559D01*
X107595942Y-113703495D01*
X107656081Y-113687381D01*
X107771920Y-113620502D01*
X107866502Y-113525920D01*
X107933381Y-113410081D01*
X107949494Y-113349942D01*
X108639559Y-114040007D01*
X108639560Y-114040006D01*
X108650918Y-114024374D01*
X108744546Y-113864363D01*
X108748238Y-113857117D01*
X108751635Y-113853519D01*
X108752755Y-113851563D01*
X108752932Y-113851320D01*
X108753394Y-113851656D01*
X108796208Y-113806317D01*
X108801421Y-113805025D01*
X109510504Y-113095941D01*
X109526619Y-113156081D01*
G37*
%TD.AperFunction*%
%TA.AperFunction,Conductor*%
G36*
X113719559Y-114040007D02*
G01*
X113719559Y-114040006D01*
X113771428Y-113968618D01*
X113771431Y-113968613D01*
X113788556Y-113935003D01*
X113836529Y-113884206D01*
X113904350Y-113867410D01*
X113970485Y-113889946D01*
X113986722Y-113903615D01*
X114141708Y-114058601D01*
X114141713Y-114058605D01*
X114239542Y-114129682D01*
X114282208Y-114185012D01*
X114288187Y-114254625D01*
X114255582Y-114316420D01*
X114239542Y-114330318D01*
X114141713Y-114401394D01*
X114141708Y-114401398D01*
X113981398Y-114561708D01*
X113981394Y-114561713D01*
X113848144Y-114745118D01*
X113848143Y-114745119D01*
X113791214Y-114856848D01*
X113743240Y-114907644D01*
X113738811Y-114908740D01*
X113029494Y-115618057D01*
X113013381Y-115557919D01*
X112946502Y-115442080D01*
X112851920Y-115347498D01*
X112736081Y-115280619D01*
X112675940Y-115264504D01*
X113366007Y-114574439D01*
X113365327Y-114565804D01*
X113336937Y-114528987D01*
X113330958Y-114459374D01*
X113363564Y-114397579D01*
X113365846Y-114395601D01*
X113366006Y-114393559D01*
X112675942Y-113703495D01*
X112736081Y-113687381D01*
X112851920Y-113620502D01*
X112946502Y-113525920D01*
X113013381Y-113410081D01*
X113029494Y-113349942D01*
X113719559Y-114040007D01*
G37*
%TD.AperFunction*%
%TA.AperFunction,Conductor*%
G36*
X118942539Y-110770185D02*
G01*
X118988294Y-110822989D01*
X118999500Y-110874500D01*
X118999500Y-131638770D01*
X118979815Y-131705809D01*
X118927011Y-131751564D01*
X118857853Y-131761508D01*
X118794297Y-131732483D01*
X118787819Y-131726451D01*
X118557954Y-131496586D01*
X118524469Y-131435263D01*
X118524028Y-131433149D01*
X118517816Y-131401916D01*
X118453703Y-131247135D01*
X118413572Y-131187075D01*
X118360626Y-131107835D01*
X118242162Y-130989371D01*
X118102860Y-130896293D01*
X117948082Y-130832182D01*
X117948074Y-130832180D01*
X117783771Y-130799498D01*
X117783767Y-130799498D01*
X117616233Y-130799498D01*
X117616228Y-130799498D01*
X117451925Y-130832180D01*
X117451917Y-130832182D01*
X117297139Y-130896293D01*
X117157837Y-130989371D01*
X117039373Y-131107835D01*
X116946295Y-131247137D01*
X116882184Y-131401915D01*
X116882182Y-131401923D01*
X116849500Y-131566226D01*
X116849500Y-131733769D01*
X116882182Y-131898072D01*
X116882184Y-131898080D01*
X116946295Y-132052858D01*
X117039373Y-132192160D01*
X117157837Y-132310624D01*
X117250494Y-132372535D01*
X117297137Y-132403701D01*
X117297138Y-132403701D01*
X117297139Y-132403702D01*
X117297141Y-132403703D01*
X117351504Y-132426221D01*
X117391733Y-132453101D01*
X118113181Y-133174548D01*
X118146666Y-133235871D01*
X118149500Y-133262229D01*
X118149500Y-135652689D01*
X118129815Y-135719728D01*
X118113181Y-135740370D01*
X117400000Y-136453551D01*
X117400000Y-136447339D01*
X117372741Y-136345606D01*
X117320080Y-136254394D01*
X117245606Y-136179920D01*
X117154394Y-136127259D01*
X117052661Y-136100000D01*
X117046446Y-136100000D01*
X117725922Y-135420524D01*
X117725921Y-135420523D01*
X117681359Y-135388147D01*
X117681350Y-135388141D01*
X117499031Y-135295244D01*
X117304417Y-135232009D01*
X117102317Y-135200000D01*
X116897683Y-135200000D01*
X116695582Y-135232009D01*
X116500968Y-135295244D01*
X116318644Y-135388143D01*
X116274077Y-135420523D01*
X116274077Y-135420524D01*
X116953554Y-136100000D01*
X116947339Y-136100000D01*
X116845606Y-136127259D01*
X116754394Y-136179920D01*
X116679920Y-136254394D01*
X116627259Y-136345606D01*
X116600000Y-136447339D01*
X116600000Y-136453553D01*
X115920524Y-135774077D01*
X115920523Y-135774077D01*
X115888143Y-135818644D01*
X115795244Y-136000968D01*
X115732009Y-136195582D01*
X115700000Y-136397682D01*
X115700000Y-136602317D01*
X115732009Y-136804417D01*
X115795244Y-136999031D01*
X115888141Y-137181350D01*
X115888147Y-137181359D01*
X115920523Y-137225921D01*
X115920524Y-137225922D01*
X116600000Y-136546446D01*
X116600000Y-136552661D01*
X116627259Y-136654394D01*
X116679920Y-136745606D01*
X116754394Y-136820080D01*
X116845606Y-136872741D01*
X116947339Y-136900000D01*
X116953553Y-136900000D01*
X116274076Y-137579474D01*
X116318650Y-137611859D01*
X116500968Y-137704755D01*
X116695582Y-137767990D01*
X116897683Y-137800000D01*
X117102317Y-137800000D01*
X117304417Y-137767990D01*
X117499031Y-137704755D01*
X117681349Y-137611859D01*
X117725921Y-137579474D01*
X117046447Y-136900000D01*
X117052661Y-136900000D01*
X117154394Y-136872741D01*
X117245606Y-136820080D01*
X117320080Y-136745606D01*
X117372741Y-136654394D01*
X117400000Y-136552661D01*
X117400000Y-136546447D01*
X118113181Y-137259628D01*
X118146666Y-137320951D01*
X118149500Y-137347309D01*
X118149500Y-140510953D01*
X118129815Y-140577992D01*
X118077011Y-140623747D01*
X118007853Y-140633691D01*
X117944297Y-140604666D01*
X117937819Y-140598634D01*
X117847213Y-140508028D01*
X117681613Y-140387715D01*
X117681612Y-140387714D01*
X117681610Y-140387713D01*
X117624653Y-140358691D01*
X117499223Y-140294781D01*
X117304534Y-140231522D01*
X117129995Y-140203878D01*
X117102352Y-140199500D01*
X116897648Y-140199500D01*
X116873329Y-140203351D01*
X116695465Y-140231522D01*
X116500776Y-140294781D01*
X116318386Y-140387715D01*
X116152786Y-140508028D01*
X116008028Y-140652786D01*
X115887715Y-140818386D01*
X115794781Y-141000776D01*
X115731522Y-141195465D01*
X115699500Y-141397648D01*
X115699500Y-141602351D01*
X115731522Y-141804534D01*
X115794781Y-141999223D01*
X115887715Y-142181613D01*
X116008028Y-142347213D01*
X116152786Y-142491971D01*
X116298383Y-142597751D01*
X116318390Y-142612287D01*
X116500781Y-142705220D01*
X116654804Y-142755265D01*
X116663818Y-142758194D01*
X116721494Y-142797632D01*
X116748692Y-142861990D01*
X116749500Y-142876125D01*
X116749500Y-145838828D01*
X116729815Y-145905867D01*
X116677011Y-145951622D01*
X116607853Y-145961566D01*
X116544297Y-145932541D01*
X116537819Y-145926509D01*
X114127068Y-143515758D01*
X114093583Y-143454435D01*
X114098567Y-143384743D01*
X114140439Y-143328810D01*
X114145858Y-143324975D01*
X114185075Y-143298770D01*
X114242162Y-143260626D01*
X114360626Y-143142162D01*
X114453703Y-143002863D01*
X114517816Y-142848082D01*
X114550500Y-142683767D01*
X114550500Y-142516233D01*
X114528883Y-142407555D01*
X114526500Y-142383364D01*
X114526500Y-136102079D01*
X114497659Y-135957092D01*
X114497658Y-135957091D01*
X114497658Y-135957087D01*
X114441084Y-135820505D01*
X114408186Y-135771270D01*
X114399691Y-135758556D01*
X114358956Y-135697589D01*
X114358952Y-135697584D01*
X113931548Y-135270180D01*
X113898063Y-135208857D01*
X113903047Y-135139165D01*
X113944919Y-135083232D01*
X114010383Y-135058815D01*
X114019229Y-135058499D01*
X116105871Y-135058499D01*
X116105872Y-135058499D01*
X116165483Y-135052091D01*
X116300331Y-135001796D01*
X116415546Y-134915546D01*
X116501796Y-134800331D01*
X116552091Y-134665483D01*
X116558500Y-134605873D01*
X116558499Y-131394128D01*
X116552091Y-131334517D01*
X116549214Y-131326804D01*
X116501797Y-131199671D01*
X116501793Y-131199664D01*
X116415547Y-131084455D01*
X116415544Y-131084452D01*
X116300335Y-130998206D01*
X116300328Y-130998202D01*
X116165482Y-130947908D01*
X116165483Y-130947908D01*
X116105883Y-130941501D01*
X116105881Y-130941500D01*
X116105873Y-130941500D01*
X116105864Y-130941500D01*
X112894129Y-130941500D01*
X112894123Y-130941501D01*
X112834516Y-130947908D01*
X112699671Y-130998202D01*
X112699664Y-130998206D01*
X112584455Y-131084452D01*
X112584452Y-131084455D01*
X112498206Y-131199664D01*
X112498202Y-131199671D01*
X112447908Y-131334517D01*
X112441501Y-131394116D01*
X112441501Y-131394123D01*
X112441500Y-131394135D01*
X112441500Y-133480770D01*
X112421815Y-133547809D01*
X112369011Y-133593564D01*
X112299853Y-133603508D01*
X112236297Y-133574483D01*
X112229819Y-133568451D01*
X105938459Y-127277091D01*
X105911580Y-127236864D01*
X105853703Y-127097137D01*
X105822537Y-127050494D01*
X105760626Y-126957837D01*
X105642162Y-126839373D01*
X105502860Y-126746295D01*
X105348082Y-126682184D01*
X105348074Y-126682182D01*
X105183771Y-126649500D01*
X105183767Y-126649500D01*
X105016233Y-126649500D01*
X105016228Y-126649500D01*
X104851925Y-126682182D01*
X104851917Y-126682184D01*
X104697139Y-126746295D01*
X104557837Y-126839373D01*
X104439373Y-126957837D01*
X104346295Y-127097139D01*
X104282184Y-127251917D01*
X104282182Y-127251925D01*
X104249500Y-127416228D01*
X104249500Y-127583771D01*
X104282182Y-127748074D01*
X104282184Y-127748082D01*
X104346295Y-127902860D01*
X104439373Y-128042162D01*
X104557837Y-128160626D01*
X104650494Y-128222537D01*
X104697137Y-128253703D01*
X104697138Y-128253703D01*
X104697139Y-128253704D01*
X104697141Y-128253705D01*
X104751353Y-128276160D01*
X104836864Y-128311580D01*
X104877091Y-128338459D01*
X107277101Y-130738469D01*
X107310586Y-130799792D01*
X107305602Y-130869484D01*
X107263730Y-130925417D01*
X107198266Y-130949834D01*
X107173294Y-130947826D01*
X107173196Y-130948738D01*
X107105883Y-130941501D01*
X107105881Y-130941500D01*
X107105873Y-130941500D01*
X107105864Y-130941500D01*
X103894129Y-130941500D01*
X103894123Y-130941501D01*
X103834516Y-130947908D01*
X103699671Y-130998202D01*
X103699664Y-130998206D01*
X103584455Y-131084452D01*
X103584452Y-131084455D01*
X103498206Y-131199664D01*
X103498202Y-131199671D01*
X103447908Y-131334517D01*
X103441501Y-131394116D01*
X103441501Y-131394123D01*
X103441500Y-131394135D01*
X103441500Y-134605870D01*
X103441501Y-134605876D01*
X103447908Y-134665483D01*
X103498202Y-134800328D01*
X103498206Y-134800335D01*
X103584452Y-134915544D01*
X103584455Y-134915547D01*
X103699664Y-135001793D01*
X103699671Y-135001797D01*
X103834517Y-135052091D01*
X103834516Y-135052091D01*
X103841444Y-135052835D01*
X103894127Y-135058500D01*
X106311587Y-135058499D01*
X106378626Y-135078184D01*
X106424381Y-135130987D01*
X106434325Y-135200146D01*
X106405300Y-135263702D01*
X106399268Y-135270180D01*
X104226329Y-137443120D01*
X104165006Y-137476605D01*
X104095314Y-137471621D01*
X104039381Y-137429749D01*
X104014964Y-137364285D01*
X104029816Y-137296012D01*
X104038330Y-137282553D01*
X104111859Y-137181349D01*
X104204755Y-136999031D01*
X104267990Y-136804417D01*
X104300000Y-136602317D01*
X104300000Y-136397682D01*
X104267990Y-136195582D01*
X104204755Y-136000968D01*
X104111859Y-135818650D01*
X104079474Y-135774077D01*
X104079474Y-135774076D01*
X103400000Y-136453553D01*
X103400000Y-136447339D01*
X103372741Y-136345606D01*
X103320080Y-136254394D01*
X103245606Y-136179920D01*
X103154394Y-136127259D01*
X103052661Y-136100000D01*
X103046446Y-136100000D01*
X103725922Y-135420524D01*
X103725921Y-135420523D01*
X103681359Y-135388147D01*
X103681350Y-135388141D01*
X103499031Y-135295244D01*
X103304417Y-135232009D01*
X103102317Y-135200000D01*
X102897683Y-135200000D01*
X102695582Y-135232009D01*
X102500968Y-135295244D01*
X102318644Y-135388143D01*
X102274077Y-135420523D01*
X102274077Y-135420524D01*
X102953554Y-136100000D01*
X102947339Y-136100000D01*
X102845606Y-136127259D01*
X102754394Y-136179920D01*
X102679920Y-136254394D01*
X102627259Y-136345606D01*
X102600000Y-136447339D01*
X102600000Y-136453553D01*
X101917150Y-135770703D01*
X101907853Y-135772040D01*
X101888101Y-135763019D01*
X101866852Y-135758556D01*
X101856947Y-135748792D01*
X101844297Y-135743015D01*
X101832557Y-135724748D01*
X101817095Y-135709505D01*
X101813268Y-135694733D01*
X101806523Y-135684237D01*
X101801500Y-135649302D01*
X101801500Y-131787484D01*
X101821185Y-131720445D01*
X101856611Y-131684381D01*
X101892163Y-131660626D01*
X102010627Y-131542162D01*
X102103704Y-131402863D01*
X102167817Y-131248082D01*
X102200501Y-131083767D01*
X102200501Y-130916233D01*
X102167817Y-130751918D01*
X102103704Y-130597137D01*
X102072538Y-130550494D01*
X102010627Y-130457837D01*
X101892163Y-130339373D01*
X101752861Y-130246295D01*
X101598083Y-130182184D01*
X101598075Y-130182182D01*
X101433772Y-130149500D01*
X101433768Y-130149500D01*
X101266234Y-130149500D01*
X101266229Y-130149500D01*
X101148691Y-130172880D01*
X101079099Y-130166653D01*
X101023922Y-130123790D01*
X101000678Y-130057900D01*
X101000500Y-130051263D01*
X101000500Y-112846646D01*
X103479700Y-112846646D01*
X103479700Y-113073353D01*
X103515165Y-113297272D01*
X103585219Y-113512880D01*
X103585220Y-113512883D01*
X103640056Y-113620502D01*
X103674132Y-113687381D01*
X103688147Y-113714885D01*
X103821394Y-113898286D01*
X103821398Y-113898291D01*
X103981708Y-114058601D01*
X103981713Y-114058605D01*
X104079542Y-114129682D01*
X104122208Y-114185012D01*
X104128187Y-114254625D01*
X104095582Y-114316420D01*
X104079542Y-114330318D01*
X103981713Y-114401394D01*
X103981708Y-114401398D01*
X103821398Y-114561708D01*
X103821394Y-114561713D01*
X103688147Y-114745114D01*
X103585220Y-114947116D01*
X103585219Y-114947119D01*
X103515165Y-115162727D01*
X103479700Y-115386646D01*
X103479700Y-115613353D01*
X103515165Y-115837272D01*
X103585219Y-116052880D01*
X103585220Y-116052883D01*
X103640056Y-116160502D01*
X103674132Y-116227381D01*
X103688147Y-116254885D01*
X103821394Y-116438286D01*
X103821398Y-116438291D01*
X103981708Y-116598601D01*
X103981713Y-116598605D01*
X104093138Y-116679559D01*
X104165118Y-116731855D01*
X104297166Y-116799137D01*
X104367116Y-116834779D01*
X104367119Y-116834780D01*
X104474923Y-116869807D01*
X104582729Y-116904835D01*
X104806646Y-116940300D01*
X104806647Y-116940300D01*
X105033353Y-116940300D01*
X105033354Y-116940300D01*
X105257271Y-116904835D01*
X105472883Y-116834779D01*
X105674882Y-116731855D01*
X105858293Y-116598600D01*
X106013280Y-116443612D01*
X106074600Y-116410130D01*
X106144291Y-116415114D01*
X106200225Y-116456985D01*
X106211442Y-116475000D01*
X106228571Y-116508617D01*
X106280439Y-116580006D01*
X106280439Y-116580007D01*
X106970504Y-115889941D01*
X106986619Y-115950081D01*
X107053498Y-116065920D01*
X107148080Y-116160502D01*
X107263919Y-116227381D01*
X107324057Y-116243494D01*
X106633991Y-116933559D01*
X106705379Y-116985426D01*
X106907311Y-117088316D01*
X107122842Y-117158346D01*
X107346686Y-117193800D01*
X107573314Y-117193800D01*
X107797155Y-117158346D01*
X107797158Y-117158346D01*
X108012688Y-117088316D01*
X108214620Y-116985426D01*
X108286006Y-116933559D01*
X107595942Y-116243495D01*
X107656081Y-116227381D01*
X107771920Y-116160502D01*
X107866502Y-116065920D01*
X107933381Y-115950081D01*
X107949494Y-115889942D01*
X108639559Y-116580007D01*
X108639560Y-116580006D01*
X108650918Y-116564374D01*
X108744546Y-116404363D01*
X108748238Y-116397117D01*
X108751635Y-116393519D01*
X108752755Y-116391563D01*
X108752932Y-116391320D01*
X108753394Y-116391656D01*
X108796208Y-116346317D01*
X108801421Y-116345025D01*
X109510504Y-115635941D01*
X109526619Y-115696081D01*
X109593498Y-115811920D01*
X109688080Y-115906502D01*
X109803919Y-115973381D01*
X109864057Y-115989494D01*
X109173991Y-116679559D01*
X109245379Y-116731426D01*
X109447311Y-116834316D01*
X109662842Y-116904346D01*
X109886686Y-116939800D01*
X110113314Y-116939800D01*
X110337155Y-116904346D01*
X110337158Y-116904346D01*
X110552688Y-116834316D01*
X110667504Y-116775815D01*
X110754620Y-116731426D01*
X110826006Y-116679559D01*
X110135942Y-115989495D01*
X110196081Y-115973381D01*
X110311920Y-115906502D01*
X110406502Y-115811920D01*
X110473381Y-115696081D01*
X110489494Y-115635942D01*
X111197106Y-116343554D01*
X111199908Y-116344143D01*
X111213993Y-116358025D01*
X111231108Y-116367932D01*
X111247395Y-116390947D01*
X111249670Y-116393189D01*
X111251549Y-116396704D01*
X111257290Y-116407870D01*
X111257320Y-116408030D01*
X111257322Y-116408033D01*
X111257321Y-116408033D01*
X111257392Y-116408402D01*
X111257485Y-116408355D01*
X111308573Y-116508620D01*
X111360439Y-116580006D01*
X111360439Y-116580007D01*
X112050504Y-115889941D01*
X112066619Y-115950081D01*
X112133498Y-116065920D01*
X112228080Y-116160502D01*
X112343919Y-116227381D01*
X112404057Y-116243494D01*
X111713991Y-116933559D01*
X111785379Y-116985426D01*
X111987311Y-117088316D01*
X112202842Y-117158346D01*
X112426686Y-117193800D01*
X112653314Y-117193800D01*
X112877155Y-117158346D01*
X112877158Y-117158346D01*
X113092688Y-117088316D01*
X113294620Y-116985426D01*
X113366006Y-116933559D01*
X112675942Y-116243495D01*
X112736081Y-116227381D01*
X112851920Y-116160502D01*
X112946502Y-116065920D01*
X113013381Y-115950081D01*
X113029494Y-115889942D01*
X113719559Y-116580007D01*
X113719559Y-116580006D01*
X113771428Y-116508618D01*
X113771431Y-116508613D01*
X113788556Y-116475003D01*
X113836529Y-116424206D01*
X113904350Y-116407410D01*
X113970485Y-116429946D01*
X113986722Y-116443615D01*
X114141708Y-116598601D01*
X114141713Y-116598605D01*
X114253138Y-116679559D01*
X114325118Y-116731855D01*
X114457166Y-116799137D01*
X114527116Y-116834779D01*
X114527119Y-116834780D01*
X114634923Y-116869807D01*
X114742729Y-116904835D01*
X114966646Y-116940300D01*
X114966647Y-116940300D01*
X115193353Y-116940300D01*
X115193354Y-116940300D01*
X115417271Y-116904835D01*
X115632883Y-116834779D01*
X115834882Y-116731855D01*
X116018293Y-116598600D01*
X116178600Y-116438293D01*
X116311855Y-116254882D01*
X116414779Y-116052883D01*
X116484835Y-115837271D01*
X116520300Y-115613354D01*
X116520300Y-115386646D01*
X116484835Y-115162729D01*
X116414779Y-114947117D01*
X116414779Y-114947116D01*
X116363049Y-114845591D01*
X116311855Y-114745118D01*
X116260179Y-114673991D01*
X116178605Y-114561713D01*
X116178601Y-114561708D01*
X116018293Y-114401400D01*
X116007501Y-114393559D01*
X115920456Y-114330317D01*
X115877791Y-114274989D01*
X115871812Y-114205376D01*
X115904417Y-114143580D01*
X115920456Y-114129682D01*
X116018293Y-114058600D01*
X116178600Y-113898293D01*
X116311855Y-113714882D01*
X116414779Y-113512883D01*
X116484835Y-113297271D01*
X116520300Y-113073354D01*
X116520300Y-112846646D01*
X116484835Y-112622729D01*
X116414779Y-112407117D01*
X116414779Y-112407116D01*
X116363049Y-112305591D01*
X116311855Y-112205118D01*
X116260179Y-112133991D01*
X116178605Y-112021713D01*
X116178601Y-112021708D01*
X116018291Y-111861398D01*
X116018286Y-111861394D01*
X115834885Y-111728147D01*
X115834884Y-111728146D01*
X115834882Y-111728145D01*
X115770166Y-111695170D01*
X115632883Y-111625220D01*
X115632880Y-111625219D01*
X115417272Y-111555165D01*
X115305312Y-111537432D01*
X115193354Y-111519700D01*
X114966646Y-111519700D01*
X114892007Y-111531521D01*
X114742727Y-111555165D01*
X114527119Y-111625219D01*
X114527116Y-111625220D01*
X114325114Y-111728147D01*
X114141713Y-111861394D01*
X114141708Y-111861398D01*
X113981398Y-112021708D01*
X113981394Y-112021713D01*
X113848144Y-112205118D01*
X113848143Y-112205119D01*
X113791214Y-112316848D01*
X113743240Y-112367644D01*
X113738811Y-112368740D01*
X113029494Y-113078057D01*
X113013381Y-113017919D01*
X112946502Y-112902080D01*
X112851920Y-112807498D01*
X112736081Y-112740619D01*
X112675940Y-112724504D01*
X113366007Y-112034439D01*
X113294620Y-111982573D01*
X113092688Y-111879683D01*
X112877157Y-111809653D01*
X112653314Y-111774200D01*
X112426686Y-111774200D01*
X112202844Y-111809653D01*
X112202841Y-111809653D01*
X111987311Y-111879683D01*
X111785376Y-111982575D01*
X111713992Y-112034438D01*
X111713991Y-112034439D01*
X112404057Y-112724504D01*
X112343919Y-112740619D01*
X112228080Y-112807498D01*
X112133498Y-112902080D01*
X112066619Y-113017919D01*
X112050504Y-113078058D01*
X111342878Y-112370432D01*
X111340067Y-112369841D01*
X111326000Y-112355970D01*
X111308902Y-112346077D01*
X111292576Y-112323013D01*
X111290316Y-112320784D01*
X111288457Y-112317308D01*
X111282714Y-112306142D01*
X111282682Y-112305977D01*
X111282679Y-112305971D01*
X111282681Y-112305969D01*
X111282608Y-112305591D01*
X111282512Y-112305641D01*
X111231428Y-112205381D01*
X111194522Y-112154585D01*
X111194521Y-112154582D01*
X111179561Y-112133992D01*
X111179559Y-112133991D01*
X110489494Y-112824056D01*
X110473381Y-112763919D01*
X110406502Y-112648080D01*
X110311920Y-112553498D01*
X110196081Y-112486619D01*
X110135940Y-112470504D01*
X110826007Y-111780439D01*
X110754620Y-111728573D01*
X110552688Y-111625683D01*
X110337157Y-111555653D01*
X110113314Y-111520200D01*
X109886686Y-111520200D01*
X109662844Y-111555653D01*
X109662841Y-111555653D01*
X109447311Y-111625683D01*
X109245376Y-111728575D01*
X109173992Y-111780438D01*
X109173991Y-111780439D01*
X109864057Y-112470504D01*
X109803919Y-112486619D01*
X109688080Y-112553498D01*
X109593498Y-112648080D01*
X109526619Y-112763919D01*
X109510504Y-112824057D01*
X108820439Y-112133991D01*
X108820438Y-112133992D01*
X108768574Y-112205376D01*
X108768572Y-112205380D01*
X108718217Y-112304207D01*
X108717285Y-112306139D01*
X108711542Y-112317306D01*
X108707298Y-112321765D01*
X108707581Y-112321969D01*
X108707405Y-112322213D01*
X108707089Y-112321985D01*
X108687533Y-112342535D01*
X108663769Y-112367692D01*
X108663539Y-112367748D01*
X108663376Y-112367921D01*
X108658424Y-112369127D01*
X107949494Y-113078057D01*
X107933381Y-113017919D01*
X107866502Y-112902080D01*
X107771920Y-112807498D01*
X107656081Y-112740619D01*
X107595940Y-112724504D01*
X108286007Y-112034439D01*
X108214620Y-111982573D01*
X108127502Y-111938184D01*
X108012688Y-111879683D01*
X107797157Y-111809653D01*
X107573314Y-111774200D01*
X107346686Y-111774200D01*
X107122844Y-111809653D01*
X107122841Y-111809653D01*
X106907311Y-111879683D01*
X106705376Y-111982575D01*
X106633992Y-112034438D01*
X106633991Y-112034439D01*
X107324057Y-112724504D01*
X107263919Y-112740619D01*
X107148080Y-112807498D01*
X107053498Y-112902080D01*
X106986619Y-113017919D01*
X106970504Y-113078057D01*
X106262686Y-112370239D01*
X106260615Y-112369804D01*
X106248256Y-112357848D01*
X106233906Y-112350492D01*
X106216358Y-112326992D01*
X106212025Y-112322800D01*
X106210323Y-112319868D01*
X106151855Y-112205118D01*
X106111408Y-112149447D01*
X106111404Y-112149440D01*
X106018605Y-112021713D01*
X106018601Y-112021708D01*
X105858291Y-111861398D01*
X105858286Y-111861394D01*
X105674885Y-111728147D01*
X105674884Y-111728146D01*
X105674882Y-111728145D01*
X105610166Y-111695170D01*
X105472883Y-111625220D01*
X105472880Y-111625219D01*
X105257272Y-111555165D01*
X105145312Y-111537432D01*
X105033354Y-111519700D01*
X104806646Y-111519700D01*
X104732007Y-111531521D01*
X104582727Y-111555165D01*
X104367119Y-111625219D01*
X104367116Y-111625220D01*
X104165114Y-111728147D01*
X103981713Y-111861394D01*
X103981708Y-111861398D01*
X103821398Y-112021708D01*
X103821394Y-112021713D01*
X103688147Y-112205114D01*
X103585220Y-112407116D01*
X103585219Y-112407119D01*
X103515165Y-112622727D01*
X103479700Y-112846646D01*
X101000500Y-112846646D01*
X101000500Y-110874500D01*
X101020185Y-110807461D01*
X101072989Y-110761706D01*
X101124500Y-110750500D01*
X118875500Y-110750500D01*
X118942539Y-110770185D01*
G37*
%TD.AperFunction*%
%TA.AperFunction,Conductor*%
G36*
X102600000Y-136552661D02*
G01*
X102627259Y-136654394D01*
X102679920Y-136745606D01*
X102754394Y-136820080D01*
X102845606Y-136872741D01*
X102947339Y-136900000D01*
X102953553Y-136900000D01*
X102274076Y-137579474D01*
X102318650Y-137611859D01*
X102500968Y-137704755D01*
X102695582Y-137767990D01*
X102897683Y-137800000D01*
X103102317Y-137800000D01*
X103304417Y-137767990D01*
X103499031Y-137704755D01*
X103681349Y-137611859D01*
X103782553Y-137538330D01*
X103848359Y-137514850D01*
X103916413Y-137530675D01*
X103965108Y-137580781D01*
X103978984Y-137649259D01*
X103953635Y-137714368D01*
X103943120Y-137726329D01*
X102013181Y-139656268D01*
X101951858Y-139689753D01*
X101882166Y-139684769D01*
X101826233Y-139642897D01*
X101801816Y-139577433D01*
X101801500Y-139568587D01*
X101801500Y-137350697D01*
X101821185Y-137283658D01*
X101873989Y-137237903D01*
X101915962Y-137230484D01*
X102600000Y-136546446D01*
X102600000Y-136552661D01*
G37*
%TD.AperFunction*%
%TA.AperFunction,Conductor*%
G36*
X107731299Y-131200691D02*
G01*
X107761530Y-131222898D01*
X110330240Y-133791608D01*
X110334576Y-133799550D01*
X110341825Y-133804976D01*
X110351062Y-133829741D01*
X110363725Y-133852931D01*
X110363079Y-133861958D01*
X110366243Y-133870440D01*
X110360626Y-133896261D01*
X110358741Y-133922623D01*
X110352922Y-133931676D01*
X110351392Y-133938714D01*
X110330242Y-133966968D01*
X110284033Y-134013179D01*
X110222711Y-134046666D01*
X110196350Y-134049500D01*
X107856897Y-134049500D01*
X107706690Y-134079378D01*
X107637099Y-134073151D01*
X107581921Y-134030288D01*
X107558677Y-133964398D01*
X107558499Y-133957761D01*
X107558499Y-131394129D01*
X107558498Y-131394123D01*
X107558497Y-131394116D01*
X107552091Y-131334517D01*
X107552091Y-131334516D01*
X107551262Y-131326804D01*
X107553851Y-131326525D01*
X107556903Y-131269352D01*
X107597757Y-131212671D01*
X107662769Y-131187075D01*
X107731299Y-131200691D01*
G37*
%TD.AperFunction*%
%TD*%
M02*
