%TF.GenerationSoftware,KiCad,Pcbnew,7.0.8*%
%TF.CreationDate,2024-02-25T18:23:33-05:00*%
%TF.ProjectId,lichen-freddie-board,6c696368-656e-42d6-9672-65646469652d,1.0*%
%TF.SameCoordinates,Original*%
%TF.FileFunction,Legend,Bot*%
%TF.FilePolarity,Positive*%
%FSLAX46Y46*%
G04 Gerber Fmt 4.6, Leading zero omitted, Abs format (unit mm)*
G04 Created by KiCad (PCBNEW 7.0.8) date 2024-02-25 18:23:33*
%MOMM*%
%LPD*%
G01*
G04 APERTURE LIST*
%ADD10C,0.150000*%
%ADD11C,0.200000*%
%ADD12C,0.101600*%
%ADD13C,0.120000*%
%ADD14C,0.203200*%
%ADD15R,1.750000X1.750000*%
%ADD16C,1.750000*%
%ADD17C,2.700000*%
%ADD18C,1.371600*%
%ADD19C,2.032000*%
%ADD20C,1.930400*%
%ADD21R,1.700000X1.700000*%
%ADD22C,1.700000*%
%ADD23C,2.082800*%
G04 APERTURE END LIST*
D10*
G36*
X238157055Y-202408660D02*
G01*
X238842400Y-202408660D01*
X238857541Y-202408593D01*
X238872190Y-202408393D01*
X238886347Y-202408059D01*
X238900011Y-202407591D01*
X238913183Y-202406990D01*
X238925862Y-202406255D01*
X238938050Y-202405387D01*
X238949745Y-202404385D01*
X238960948Y-202403250D01*
X238971658Y-202401981D01*
X238981876Y-202400579D01*
X238991602Y-202399043D01*
X239005268Y-202396488D01*
X239017826Y-202393633D01*
X239025582Y-202391563D01*
X239038264Y-202388192D01*
X239050572Y-202384401D01*
X239062507Y-202380190D01*
X239074068Y-202375557D01*
X239085256Y-202370504D01*
X239096070Y-202365030D01*
X239106511Y-202359135D01*
X239116578Y-202352820D01*
X239126272Y-202346083D01*
X239135592Y-202338926D01*
X239141598Y-202333921D01*
X239152984Y-202323797D01*
X239163637Y-202313268D01*
X239173554Y-202302334D01*
X239182737Y-202290996D01*
X239191186Y-202279253D01*
X239198899Y-202267106D01*
X239205878Y-202254554D01*
X239212123Y-202241598D01*
X239217632Y-202228237D01*
X239222408Y-202214471D01*
X239226448Y-202200301D01*
X239229754Y-202185727D01*
X239232325Y-202170748D01*
X239234162Y-202155365D01*
X239235264Y-202139577D01*
X239235631Y-202123384D01*
X239235418Y-202111010D01*
X239234780Y-202098738D01*
X239233716Y-202086570D01*
X239232227Y-202074505D01*
X239230312Y-202062543D01*
X239227972Y-202050684D01*
X239225206Y-202038928D01*
X239222015Y-202027274D01*
X239218398Y-202015724D01*
X239214355Y-202004277D01*
X239209887Y-201992934D01*
X239204994Y-201981693D01*
X239199675Y-201970555D01*
X239193930Y-201959520D01*
X239187760Y-201948588D01*
X239181165Y-201937759D01*
X239040481Y-202015673D01*
X239047421Y-202026506D01*
X239053679Y-202037205D01*
X239059254Y-202047772D01*
X239064146Y-202058206D01*
X239068355Y-202068506D01*
X239071882Y-202078673D01*
X239074727Y-202088707D01*
X239076888Y-202098609D01*
X239078368Y-202108377D01*
X239079278Y-202121194D01*
X239079316Y-202124361D01*
X239078841Y-202137303D01*
X239077418Y-202149477D01*
X239075046Y-202160882D01*
X239071725Y-202171519D01*
X239067455Y-202181387D01*
X239062237Y-202190487D01*
X239056069Y-202198818D01*
X239048953Y-202206381D01*
X239040888Y-202213175D01*
X239031874Y-202219201D01*
X239025338Y-202222791D01*
X239014557Y-202227898D01*
X239002363Y-202232502D01*
X238988757Y-202236605D01*
X238978901Y-202239060D01*
X238968418Y-202241293D01*
X238957307Y-202243302D01*
X238945568Y-202245088D01*
X238933201Y-202246651D01*
X238920206Y-202247991D01*
X238906584Y-202249107D01*
X238892334Y-202250000D01*
X238877456Y-202250670D01*
X238861951Y-202251116D01*
X238845817Y-202251339D01*
X238837515Y-202251367D01*
X238157055Y-202251367D01*
X238157055Y-202408660D01*
G37*
G36*
X238157055Y-202825826D02*
G01*
X239063684Y-202825826D01*
X239063684Y-203137480D01*
X239220000Y-203137480D01*
X239220000Y-202668534D01*
X238157055Y-202668534D01*
X238157055Y-202825826D01*
G37*
G36*
X238206147Y-204031409D02*
G01*
X238397878Y-204031409D01*
X238390755Y-204022683D01*
X238383859Y-204013938D01*
X238377189Y-204005174D01*
X238370744Y-203996391D01*
X238364526Y-203987589D01*
X238358534Y-203978767D01*
X238352768Y-203969927D01*
X238347228Y-203961067D01*
X238341915Y-203952189D01*
X238336827Y-203943291D01*
X238331965Y-203934374D01*
X238327330Y-203925438D01*
X238322921Y-203916483D01*
X238318738Y-203907509D01*
X238314781Y-203898516D01*
X238307545Y-203880473D01*
X238301214Y-203862353D01*
X238295787Y-203844157D01*
X238291265Y-203825884D01*
X238287647Y-203807536D01*
X238284933Y-203789111D01*
X238283124Y-203770609D01*
X238282220Y-203752032D01*
X238282107Y-203742714D01*
X238282221Y-203732491D01*
X238282564Y-203722369D01*
X238283135Y-203712349D01*
X238283935Y-203702429D01*
X238284963Y-203692611D01*
X238286220Y-203682894D01*
X238289419Y-203663763D01*
X238293532Y-203645036D01*
X238298559Y-203626714D01*
X238304500Y-203608796D01*
X238311355Y-203591284D01*
X238319124Y-203574175D01*
X238327807Y-203557471D01*
X238337404Y-203541172D01*
X238347915Y-203525277D01*
X238359340Y-203509787D01*
X238371679Y-203494701D01*
X238378191Y-203487310D01*
X238384932Y-203480019D01*
X238391902Y-203472831D01*
X238399099Y-203465743D01*
X238406446Y-203458770D01*
X238413894Y-203452019D01*
X238421443Y-203445490D01*
X238429092Y-203439181D01*
X238436841Y-203433094D01*
X238444692Y-203427229D01*
X238460694Y-203416161D01*
X238477100Y-203405980D01*
X238493907Y-203396683D01*
X238511118Y-203388272D01*
X238528731Y-203380746D01*
X238546747Y-203374106D01*
X238565165Y-203368351D01*
X238583986Y-203363481D01*
X238593548Y-203361378D01*
X238603210Y-203359497D01*
X238612973Y-203357837D01*
X238622836Y-203356398D01*
X238632800Y-203355181D01*
X238642865Y-203354185D01*
X238653031Y-203353410D01*
X238663297Y-203352857D01*
X238673663Y-203352525D01*
X238684131Y-203352414D01*
X238694476Y-203352525D01*
X238704720Y-203352857D01*
X238714862Y-203353410D01*
X238724904Y-203354185D01*
X238734844Y-203355181D01*
X238744684Y-203356398D01*
X238754422Y-203357837D01*
X238764059Y-203359497D01*
X238783030Y-203363481D01*
X238801596Y-203368351D01*
X238819758Y-203374106D01*
X238837515Y-203380746D01*
X238854868Y-203388272D01*
X238871816Y-203396683D01*
X238888360Y-203405980D01*
X238904499Y-203416161D01*
X238920233Y-203427229D01*
X238935563Y-203439181D01*
X238943077Y-203445490D01*
X238950489Y-203452019D01*
X238957800Y-203458770D01*
X238965010Y-203465743D01*
X238972042Y-203472876D01*
X238978852Y-203480108D01*
X238985438Y-203487440D01*
X238991800Y-203494872D01*
X239003856Y-203510036D01*
X239015019Y-203525597D01*
X239025288Y-203541558D01*
X239034665Y-203557918D01*
X239043149Y-203574676D01*
X239050739Y-203591833D01*
X239057437Y-203609389D01*
X239063241Y-203627344D01*
X239068153Y-203645697D01*
X239072172Y-203664450D01*
X239075297Y-203683601D01*
X239076525Y-203693326D01*
X239077530Y-203703151D01*
X239078311Y-203713075D01*
X239078869Y-203723099D01*
X239079204Y-203733223D01*
X239079316Y-203743447D01*
X239079208Y-203753943D01*
X239078884Y-203764242D01*
X239078345Y-203774344D01*
X239077591Y-203784251D01*
X239076054Y-203798741D01*
X239074033Y-203812790D01*
X239071526Y-203826396D01*
X239068535Y-203839560D01*
X239065058Y-203852282D01*
X239061096Y-203864562D01*
X239056649Y-203876399D01*
X239051716Y-203887794D01*
X239047209Y-203898164D01*
X239042237Y-203908665D01*
X239036800Y-203919297D01*
X239032116Y-203927897D01*
X239027134Y-203936581D01*
X239021854Y-203945349D01*
X239016276Y-203954200D01*
X239014836Y-203956427D01*
X239008882Y-203965399D01*
X239002623Y-203974485D01*
X238996059Y-203983686D01*
X238989190Y-203993002D01*
X238982015Y-204002432D01*
X238974535Y-204011977D01*
X238966750Y-204021636D01*
X238958660Y-204031409D01*
X239154542Y-204031409D01*
X239159531Y-204022817D01*
X239164362Y-204014198D01*
X239169034Y-204005552D01*
X239173548Y-203996879D01*
X239182100Y-203979454D01*
X239190019Y-203961922D01*
X239197304Y-203944283D01*
X239203956Y-203926537D01*
X239209974Y-203908685D01*
X239215359Y-203890725D01*
X239220110Y-203872659D01*
X239224228Y-203854486D01*
X239227712Y-203836206D01*
X239230563Y-203817819D01*
X239232780Y-203799325D01*
X239234364Y-203780724D01*
X239235314Y-203762017D01*
X239235631Y-203743203D01*
X239235475Y-203729056D01*
X239235006Y-203715039D01*
X239234225Y-203701153D01*
X239233131Y-203687397D01*
X239231725Y-203673771D01*
X239230007Y-203660275D01*
X239227976Y-203646910D01*
X239225632Y-203633675D01*
X239222976Y-203620570D01*
X239220008Y-203607595D01*
X239216727Y-203594751D01*
X239213134Y-203582037D01*
X239209228Y-203569453D01*
X239205010Y-203556999D01*
X239200479Y-203544675D01*
X239195636Y-203532482D01*
X239190481Y-203520419D01*
X239185013Y-203508486D01*
X239179232Y-203496684D01*
X239173139Y-203485011D01*
X239166734Y-203473469D01*
X239160016Y-203462057D01*
X239152986Y-203450775D01*
X239145643Y-203439624D01*
X239137988Y-203428603D01*
X239130020Y-203417712D01*
X239121740Y-203406951D01*
X239113147Y-203396320D01*
X239104242Y-203385820D01*
X239095024Y-203375450D01*
X239085494Y-203365210D01*
X239075652Y-203355101D01*
X239065497Y-203345258D01*
X239055211Y-203335728D01*
X239044795Y-203326511D01*
X239034249Y-203317606D01*
X239023573Y-203309013D01*
X239012766Y-203300733D01*
X239001829Y-203292765D01*
X238990762Y-203285110D01*
X238979565Y-203277767D01*
X238968238Y-203270737D01*
X238956780Y-203264019D01*
X238945192Y-203257613D01*
X238933474Y-203251520D01*
X238921625Y-203245740D01*
X238909647Y-203240272D01*
X238897538Y-203235116D01*
X238885299Y-203230273D01*
X238872929Y-203225743D01*
X238860430Y-203221524D01*
X238847800Y-203217619D01*
X238835040Y-203214025D01*
X238822150Y-203210745D01*
X238809129Y-203207776D01*
X238795979Y-203205120D01*
X238782698Y-203202777D01*
X238769287Y-203200746D01*
X238755745Y-203199027D01*
X238742073Y-203197621D01*
X238728272Y-203196528D01*
X238714340Y-203195747D01*
X238700277Y-203195278D01*
X238686085Y-203195122D01*
X238673351Y-203195252D01*
X238660705Y-203195644D01*
X238648147Y-203196298D01*
X238635675Y-203197213D01*
X238623291Y-203198389D01*
X238610994Y-203199827D01*
X238598785Y-203201526D01*
X238586663Y-203203487D01*
X238574628Y-203205709D01*
X238562680Y-203208192D01*
X238550820Y-203210937D01*
X238539047Y-203213944D01*
X238527361Y-203217211D01*
X238515762Y-203220740D01*
X238504251Y-203224531D01*
X238492827Y-203228583D01*
X238481491Y-203232896D01*
X238470242Y-203237471D01*
X238459080Y-203242307D01*
X238448005Y-203247405D01*
X238437018Y-203252764D01*
X238426118Y-203258384D01*
X238415305Y-203264266D01*
X238404579Y-203270409D01*
X238393941Y-203276814D01*
X238383390Y-203283480D01*
X238372927Y-203290408D01*
X238362551Y-203297597D01*
X238352262Y-203305047D01*
X238342060Y-203312759D01*
X238331946Y-203320732D01*
X238321919Y-203328967D01*
X238309852Y-203339365D01*
X238298169Y-203349953D01*
X238286869Y-203360729D01*
X238275951Y-203371694D01*
X238265417Y-203382848D01*
X238255266Y-203394191D01*
X238245498Y-203405723D01*
X238236113Y-203417444D01*
X238227111Y-203429353D01*
X238218492Y-203441452D01*
X238210256Y-203453739D01*
X238202404Y-203466216D01*
X238194934Y-203478881D01*
X238187847Y-203491735D01*
X238181144Y-203504779D01*
X238174823Y-203518011D01*
X238168886Y-203531432D01*
X238163331Y-203545041D01*
X238158160Y-203558840D01*
X238153372Y-203572828D01*
X238148967Y-203587004D01*
X238144945Y-203601370D01*
X238141305Y-203615924D01*
X238138049Y-203630668D01*
X238135177Y-203645600D01*
X238132687Y-203660721D01*
X238130580Y-203676031D01*
X238128856Y-203691530D01*
X238127515Y-203707218D01*
X238126558Y-203723095D01*
X238125983Y-203739160D01*
X238125792Y-203755415D01*
X238126105Y-203773237D01*
X238127047Y-203790983D01*
X238128617Y-203808652D01*
X238130814Y-203826245D01*
X238133639Y-203843762D01*
X238137092Y-203861202D01*
X238141172Y-203878567D01*
X238145881Y-203895854D01*
X238151217Y-203913066D01*
X238157181Y-203930201D01*
X238163772Y-203947260D01*
X238170992Y-203964242D01*
X238178839Y-203981149D01*
X238187314Y-203997978D01*
X238196417Y-204014732D01*
X238206147Y-204031409D01*
G37*
G36*
X238157055Y-204536503D02*
G01*
X238842400Y-204536503D01*
X238857541Y-204536437D01*
X238872190Y-204536236D01*
X238886347Y-204535902D01*
X238900011Y-204535435D01*
X238913183Y-204534834D01*
X238925862Y-204534099D01*
X238938050Y-204533231D01*
X238949745Y-204532229D01*
X238960948Y-204531094D01*
X238971658Y-204529825D01*
X238981876Y-204528422D01*
X238991602Y-204526886D01*
X239005268Y-204524332D01*
X239017826Y-204521477D01*
X239025582Y-204519406D01*
X239038264Y-204516036D01*
X239050572Y-204512245D01*
X239062507Y-204508033D01*
X239074068Y-204503401D01*
X239085256Y-204498348D01*
X239096070Y-204492874D01*
X239106511Y-204486979D01*
X239116578Y-204480663D01*
X239126272Y-204473927D01*
X239135592Y-204466770D01*
X239141598Y-204461765D01*
X239152984Y-204451640D01*
X239163637Y-204441111D01*
X239173554Y-204430178D01*
X239182737Y-204418839D01*
X239191186Y-204407097D01*
X239198899Y-204394949D01*
X239205878Y-204382398D01*
X239212123Y-204369441D01*
X239217632Y-204356080D01*
X239222408Y-204342315D01*
X239226448Y-204328145D01*
X239229754Y-204313571D01*
X239232325Y-204298592D01*
X239234162Y-204283208D01*
X239235264Y-204267420D01*
X239235631Y-204251228D01*
X239235418Y-204238853D01*
X239234780Y-204226582D01*
X239233716Y-204214414D01*
X239232227Y-204202349D01*
X239230312Y-204190386D01*
X239227972Y-204178527D01*
X239225206Y-204166771D01*
X239222015Y-204155118D01*
X239218398Y-204143568D01*
X239214355Y-204132121D01*
X239209887Y-204120777D01*
X239204994Y-204109536D01*
X239199675Y-204098398D01*
X239193930Y-204087364D01*
X239187760Y-204076432D01*
X239181165Y-204065603D01*
X239040481Y-204143517D01*
X239047421Y-204154349D01*
X239053679Y-204165049D01*
X239059254Y-204175616D01*
X239064146Y-204186049D01*
X239068355Y-204196350D01*
X239071882Y-204206517D01*
X239074727Y-204216551D01*
X239076888Y-204226452D01*
X239078368Y-204236220D01*
X239079278Y-204249037D01*
X239079316Y-204252205D01*
X239078841Y-204265147D01*
X239077418Y-204277321D01*
X239075046Y-204288726D01*
X239071725Y-204299363D01*
X239067455Y-204309231D01*
X239062237Y-204318331D01*
X239056069Y-204326662D01*
X239048953Y-204334224D01*
X239040888Y-204341019D01*
X239031874Y-204347044D01*
X239025338Y-204350635D01*
X239014557Y-204355741D01*
X239002363Y-204360346D01*
X238988757Y-204364448D01*
X238978901Y-204366904D01*
X238968418Y-204369137D01*
X238957307Y-204371146D01*
X238945568Y-204372932D01*
X238933201Y-204374495D01*
X238920206Y-204375834D01*
X238906584Y-204376951D01*
X238892334Y-204377844D01*
X238877456Y-204378513D01*
X238861951Y-204378960D01*
X238845817Y-204379183D01*
X238837515Y-204379211D01*
X238157055Y-204379211D01*
X238157055Y-204536503D01*
G37*
G36*
X238157055Y-204953670D02*
G01*
X239063684Y-204953670D01*
X239063684Y-205265324D01*
X239220000Y-205265324D01*
X239220000Y-204796378D01*
X238157055Y-204796378D01*
X238157055Y-204953670D01*
G37*
G36*
X238206147Y-206159253D02*
G01*
X238397878Y-206159253D01*
X238390755Y-206150527D01*
X238383859Y-206141782D01*
X238377189Y-206133018D01*
X238370744Y-206124234D01*
X238364526Y-206115432D01*
X238358534Y-206106611D01*
X238352768Y-206097770D01*
X238347228Y-206088911D01*
X238341915Y-206080032D01*
X238336827Y-206071135D01*
X238331965Y-206062218D01*
X238327330Y-206053282D01*
X238322921Y-206044327D01*
X238318738Y-206035353D01*
X238314781Y-206026360D01*
X238307545Y-206008316D01*
X238301214Y-205990197D01*
X238295787Y-205972001D01*
X238291265Y-205953728D01*
X238287647Y-205935379D01*
X238284933Y-205916954D01*
X238283124Y-205898453D01*
X238282220Y-205879875D01*
X238282107Y-205870558D01*
X238282221Y-205860335D01*
X238282564Y-205850213D01*
X238283135Y-205840192D01*
X238283935Y-205830273D01*
X238284963Y-205820455D01*
X238286220Y-205810737D01*
X238289419Y-205791606D01*
X238293532Y-205772880D01*
X238298559Y-205754558D01*
X238304500Y-205736640D01*
X238311355Y-205719127D01*
X238319124Y-205702019D01*
X238327807Y-205685315D01*
X238337404Y-205669015D01*
X238347915Y-205653121D01*
X238359340Y-205637630D01*
X238371679Y-205622544D01*
X238378191Y-205615153D01*
X238384932Y-205607863D01*
X238391902Y-205600674D01*
X238399099Y-205593586D01*
X238406446Y-205586614D01*
X238413894Y-205579863D01*
X238421443Y-205573333D01*
X238429092Y-205567025D01*
X238436841Y-205560938D01*
X238444692Y-205555072D01*
X238460694Y-205544005D01*
X238477100Y-205533823D01*
X238493907Y-205524527D01*
X238511118Y-205516116D01*
X238528731Y-205508590D01*
X238546747Y-205501950D01*
X238565165Y-205496195D01*
X238583986Y-205491325D01*
X238593548Y-205489222D01*
X238603210Y-205487341D01*
X238612973Y-205485681D01*
X238622836Y-205484242D01*
X238632800Y-205483025D01*
X238642865Y-205482028D01*
X238653031Y-205481254D01*
X238663297Y-205480700D01*
X238673663Y-205480368D01*
X238684131Y-205480258D01*
X238694476Y-205480368D01*
X238704720Y-205480700D01*
X238714862Y-205481254D01*
X238724904Y-205482028D01*
X238734844Y-205483025D01*
X238744684Y-205484242D01*
X238754422Y-205485681D01*
X238764059Y-205487341D01*
X238783030Y-205491325D01*
X238801596Y-205496195D01*
X238819758Y-205501950D01*
X238837515Y-205508590D01*
X238854868Y-205516116D01*
X238871816Y-205524527D01*
X238888360Y-205533823D01*
X238904499Y-205544005D01*
X238920233Y-205555072D01*
X238935563Y-205567025D01*
X238943077Y-205573333D01*
X238950489Y-205579863D01*
X238957800Y-205586614D01*
X238965010Y-205593586D01*
X238972042Y-205600719D01*
X238978852Y-205607952D01*
X238985438Y-205615284D01*
X238991800Y-205622716D01*
X239003856Y-205637879D01*
X239015019Y-205653441D01*
X239025288Y-205669402D01*
X239034665Y-205685761D01*
X239043149Y-205702520D01*
X239050739Y-205719677D01*
X239057437Y-205737233D01*
X239063241Y-205755187D01*
X239068153Y-205773541D01*
X239072172Y-205792293D01*
X239075297Y-205811444D01*
X239076525Y-205821169D01*
X239077530Y-205830994D01*
X239078311Y-205840919D01*
X239078869Y-205850943D01*
X239079204Y-205861067D01*
X239079316Y-205871290D01*
X239079208Y-205881786D01*
X239078884Y-205892085D01*
X239078345Y-205902188D01*
X239077591Y-205912094D01*
X239076054Y-205926585D01*
X239074033Y-205940634D01*
X239071526Y-205954240D01*
X239068535Y-205967404D01*
X239065058Y-205980126D01*
X239061096Y-205992405D01*
X239056649Y-206004243D01*
X239051716Y-206015638D01*
X239047209Y-206026008D01*
X239042237Y-206036508D01*
X239036800Y-206047140D01*
X239032116Y-206055740D01*
X239027134Y-206064424D01*
X239021854Y-206073192D01*
X239016276Y-206082044D01*
X239014836Y-206084270D01*
X239008882Y-206093242D01*
X239002623Y-206102329D01*
X238996059Y-206111530D01*
X238989190Y-206120846D01*
X238982015Y-206130276D01*
X238974535Y-206139820D01*
X238966750Y-206149479D01*
X238958660Y-206159253D01*
X239154542Y-206159253D01*
X239159531Y-206150660D01*
X239164362Y-206142041D01*
X239169034Y-206133396D01*
X239173548Y-206124723D01*
X239182100Y-206107298D01*
X239190019Y-206089766D01*
X239197304Y-206072127D01*
X239203956Y-206054381D01*
X239209974Y-206036528D01*
X239215359Y-206018569D01*
X239220110Y-206000503D01*
X239224228Y-205982329D01*
X239227712Y-205964049D01*
X239230563Y-205945662D01*
X239232780Y-205927169D01*
X239234364Y-205908568D01*
X239235314Y-205889861D01*
X239235631Y-205871046D01*
X239235475Y-205856899D01*
X239235006Y-205842883D01*
X239234225Y-205828997D01*
X239233131Y-205815241D01*
X239231725Y-205801615D01*
X239230007Y-205788119D01*
X239227976Y-205774754D01*
X239225632Y-205761519D01*
X239222976Y-205748414D01*
X239220008Y-205735439D01*
X239216727Y-205722595D01*
X239213134Y-205709880D01*
X239209228Y-205697296D01*
X239205010Y-205684843D01*
X239200479Y-205672519D01*
X239195636Y-205660326D01*
X239190481Y-205648263D01*
X239185013Y-205636330D01*
X239179232Y-205624527D01*
X239173139Y-205612855D01*
X239166734Y-205601313D01*
X239160016Y-205589901D01*
X239152986Y-205578619D01*
X239145643Y-205567468D01*
X239137988Y-205556446D01*
X239130020Y-205545555D01*
X239121740Y-205534795D01*
X239113147Y-205524164D01*
X239104242Y-205513664D01*
X239095024Y-205503294D01*
X239085494Y-205493054D01*
X239075652Y-205482944D01*
X239065497Y-205473102D01*
X239055211Y-205463572D01*
X239044795Y-205454354D01*
X239034249Y-205445449D01*
X239023573Y-205436857D01*
X239012766Y-205428576D01*
X239001829Y-205420609D01*
X238990762Y-205412954D01*
X238979565Y-205405611D01*
X238968238Y-205398580D01*
X238956780Y-205391863D01*
X238945192Y-205385457D01*
X238933474Y-205379364D01*
X238921625Y-205373584D01*
X238909647Y-205368116D01*
X238897538Y-205362960D01*
X238885299Y-205358117D01*
X238872929Y-205353586D01*
X238860430Y-205349368D01*
X238847800Y-205345462D01*
X238835040Y-205341869D01*
X238822150Y-205338588D01*
X238809129Y-205335620D01*
X238795979Y-205332964D01*
X238782698Y-205330621D01*
X238769287Y-205328590D01*
X238755745Y-205326871D01*
X238742073Y-205325465D01*
X238728272Y-205324371D01*
X238714340Y-205323590D01*
X238700277Y-205323122D01*
X238686085Y-205322965D01*
X238673351Y-205323096D01*
X238660705Y-205323488D01*
X238648147Y-205324142D01*
X238635675Y-205325057D01*
X238623291Y-205326233D01*
X238610994Y-205327671D01*
X238598785Y-205329370D01*
X238586663Y-205331331D01*
X238574628Y-205333553D01*
X238562680Y-205336036D01*
X238550820Y-205338781D01*
X238539047Y-205341787D01*
X238527361Y-205345055D01*
X238515762Y-205348584D01*
X238504251Y-205352375D01*
X238492827Y-205356427D01*
X238481491Y-205360740D01*
X238470242Y-205365315D01*
X238459080Y-205370151D01*
X238448005Y-205375249D01*
X238437018Y-205380608D01*
X238426118Y-205386228D01*
X238415305Y-205392110D01*
X238404579Y-205398253D01*
X238393941Y-205404658D01*
X238383390Y-205411324D01*
X238372927Y-205418252D01*
X238362551Y-205425440D01*
X238352262Y-205432891D01*
X238342060Y-205440603D01*
X238331946Y-205448576D01*
X238321919Y-205456810D01*
X238309852Y-205467209D01*
X238298169Y-205477796D01*
X238286869Y-205488572D01*
X238275951Y-205499538D01*
X238265417Y-205510692D01*
X238255266Y-205522035D01*
X238245498Y-205533567D01*
X238236113Y-205545287D01*
X238227111Y-205557197D01*
X238218492Y-205569296D01*
X238210256Y-205581583D01*
X238202404Y-205594060D01*
X238194934Y-205606725D01*
X238187847Y-205619579D01*
X238181144Y-205632622D01*
X238174823Y-205645854D01*
X238168886Y-205659275D01*
X238163331Y-205672885D01*
X238158160Y-205686684D01*
X238153372Y-205700672D01*
X238148967Y-205714848D01*
X238144945Y-205729214D01*
X238141305Y-205743768D01*
X238138049Y-205758511D01*
X238135177Y-205773444D01*
X238132687Y-205788565D01*
X238130580Y-205803875D01*
X238128856Y-205819374D01*
X238127515Y-205835061D01*
X238126558Y-205850938D01*
X238125983Y-205867004D01*
X238125792Y-205883258D01*
X238126105Y-205901080D01*
X238127047Y-205918826D01*
X238128617Y-205936496D01*
X238130814Y-205954089D01*
X238133639Y-205971606D01*
X238137092Y-205989046D01*
X238141172Y-206006410D01*
X238145881Y-206023698D01*
X238151217Y-206040910D01*
X238157181Y-206058045D01*
X238163772Y-206075104D01*
X238170992Y-206092086D01*
X238178839Y-206108992D01*
X238187314Y-206125822D01*
X238196417Y-206142576D01*
X238206147Y-206159253D01*
G37*
G36*
X238157055Y-206664347D02*
G01*
X238842400Y-206664347D01*
X238857541Y-206664280D01*
X238872190Y-206664080D01*
X238886347Y-206663746D01*
X238900011Y-206663278D01*
X238913183Y-206662677D01*
X238925862Y-206661943D01*
X238938050Y-206661075D01*
X238949745Y-206660073D01*
X238960948Y-206658937D01*
X238971658Y-206657669D01*
X238981876Y-206656266D01*
X238991602Y-206654730D01*
X239005268Y-206652175D01*
X239017826Y-206649320D01*
X239025582Y-206647250D01*
X239038264Y-206643880D01*
X239050572Y-206640089D01*
X239062507Y-206635877D01*
X239074068Y-206631244D01*
X239085256Y-206626191D01*
X239096070Y-206620717D01*
X239106511Y-206614822D01*
X239116578Y-206608507D01*
X239126272Y-206601771D01*
X239135592Y-206594614D01*
X239141598Y-206589609D01*
X239152984Y-206579484D01*
X239163637Y-206568955D01*
X239173554Y-206558021D01*
X239182737Y-206546683D01*
X239191186Y-206534940D01*
X239198899Y-206522793D01*
X239205878Y-206510241D01*
X239212123Y-206497285D01*
X239217632Y-206483924D01*
X239222408Y-206470159D01*
X239226448Y-206455989D01*
X239229754Y-206441414D01*
X239232325Y-206426435D01*
X239234162Y-206411052D01*
X239235264Y-206395264D01*
X239235631Y-206379071D01*
X239235418Y-206366697D01*
X239234780Y-206354426D01*
X239233716Y-206342257D01*
X239232227Y-206330192D01*
X239230312Y-206318230D01*
X239227972Y-206306371D01*
X239225206Y-206294615D01*
X239222015Y-206282962D01*
X239218398Y-206271412D01*
X239214355Y-206259965D01*
X239209887Y-206248621D01*
X239204994Y-206237380D01*
X239199675Y-206226242D01*
X239193930Y-206215207D01*
X239187760Y-206204276D01*
X239181165Y-206193447D01*
X239040481Y-206271360D01*
X239047421Y-206282193D01*
X239053679Y-206292893D01*
X239059254Y-206303459D01*
X239064146Y-206313893D01*
X239068355Y-206324193D01*
X239071882Y-206334361D01*
X239074727Y-206344395D01*
X239076888Y-206354296D01*
X239078368Y-206364064D01*
X239079278Y-206376881D01*
X239079316Y-206380048D01*
X239078841Y-206392991D01*
X239077418Y-206405164D01*
X239075046Y-206416570D01*
X239071725Y-206427206D01*
X239067455Y-206437075D01*
X239062237Y-206446174D01*
X239056069Y-206454505D01*
X239048953Y-206462068D01*
X239040888Y-206468862D01*
X239031874Y-206474888D01*
X239025338Y-206478478D01*
X239014557Y-206483585D01*
X239002363Y-206488190D01*
X238988757Y-206492292D01*
X238978901Y-206494748D01*
X238968418Y-206496980D01*
X238957307Y-206498990D01*
X238945568Y-206500776D01*
X238933201Y-206502338D01*
X238920206Y-206503678D01*
X238906584Y-206504794D01*
X238892334Y-206505687D01*
X238877456Y-206506357D01*
X238861951Y-206506803D01*
X238845817Y-206507027D01*
X238837515Y-206507055D01*
X238157055Y-206507055D01*
X238157055Y-206664347D01*
G37*
G36*
X238157055Y-207081514D02*
G01*
X239063684Y-207081514D01*
X239063684Y-207393168D01*
X239220000Y-207393168D01*
X239220000Y-206924221D01*
X238157055Y-206924221D01*
X238157055Y-207081514D01*
G37*
G36*
X238206147Y-208287096D02*
G01*
X238397878Y-208287096D01*
X238390755Y-208278371D01*
X238383859Y-208269626D01*
X238377189Y-208260861D01*
X238370744Y-208252078D01*
X238364526Y-208243276D01*
X238358534Y-208234455D01*
X238352768Y-208225614D01*
X238347228Y-208216755D01*
X238341915Y-208207876D01*
X238336827Y-208198978D01*
X238331965Y-208190061D01*
X238327330Y-208181126D01*
X238322921Y-208172171D01*
X238318738Y-208163197D01*
X238314781Y-208154204D01*
X238307545Y-208136160D01*
X238301214Y-208118040D01*
X238295787Y-208099844D01*
X238291265Y-208081572D01*
X238287647Y-208063223D01*
X238284933Y-208044798D01*
X238283124Y-208026297D01*
X238282220Y-208007719D01*
X238282107Y-207998401D01*
X238282221Y-207988179D01*
X238282564Y-207978057D01*
X238283135Y-207968036D01*
X238283935Y-207958117D01*
X238284963Y-207948298D01*
X238286220Y-207938581D01*
X238289419Y-207919450D01*
X238293532Y-207900723D01*
X238298559Y-207882401D01*
X238304500Y-207864484D01*
X238311355Y-207846971D01*
X238319124Y-207829862D01*
X238327807Y-207813159D01*
X238337404Y-207796859D01*
X238347915Y-207780964D01*
X238359340Y-207765474D01*
X238371679Y-207750388D01*
X238378191Y-207742997D01*
X238384932Y-207735707D01*
X238391902Y-207728518D01*
X238399099Y-207721430D01*
X238406446Y-207714458D01*
X238413894Y-207707707D01*
X238421443Y-207701177D01*
X238429092Y-207694869D01*
X238436841Y-207688782D01*
X238444692Y-207682916D01*
X238460694Y-207671849D01*
X238477100Y-207661667D01*
X238493907Y-207652370D01*
X238511118Y-207643959D01*
X238528731Y-207636434D01*
X238546747Y-207629793D01*
X238565165Y-207624038D01*
X238583986Y-207619169D01*
X238593548Y-207617066D01*
X238603210Y-207615184D01*
X238612973Y-207613524D01*
X238622836Y-207612086D01*
X238632800Y-207610868D01*
X238642865Y-207609872D01*
X238653031Y-207609097D01*
X238663297Y-207608544D01*
X238673663Y-207608212D01*
X238684131Y-207608101D01*
X238694476Y-207608212D01*
X238704720Y-207608544D01*
X238714862Y-207609097D01*
X238724904Y-207609872D01*
X238734844Y-207610868D01*
X238744684Y-207612086D01*
X238754422Y-207613524D01*
X238764059Y-207615184D01*
X238783030Y-207619169D01*
X238801596Y-207624038D01*
X238819758Y-207629793D01*
X238837515Y-207636434D01*
X238854868Y-207643959D01*
X238871816Y-207652370D01*
X238888360Y-207661667D01*
X238904499Y-207671849D01*
X238920233Y-207682916D01*
X238935563Y-207694869D01*
X238943077Y-207701177D01*
X238950489Y-207707707D01*
X238957800Y-207714458D01*
X238965010Y-207721430D01*
X238972042Y-207728563D01*
X238978852Y-207735796D01*
X238985438Y-207743128D01*
X238991800Y-207750560D01*
X239003856Y-207765723D01*
X239015019Y-207781285D01*
X239025288Y-207797246D01*
X239034665Y-207813605D01*
X239043149Y-207830363D01*
X239050739Y-207847520D01*
X239057437Y-207865076D01*
X239063241Y-207883031D01*
X239068153Y-207901385D01*
X239072172Y-207920137D01*
X239075297Y-207939288D01*
X239076525Y-207949013D01*
X239077530Y-207958838D01*
X239078311Y-207968762D01*
X239078869Y-207978787D01*
X239079204Y-207988911D01*
X239079316Y-207999134D01*
X239079208Y-208009630D01*
X239078884Y-208019929D01*
X239078345Y-208030032D01*
X239077591Y-208039938D01*
X239076054Y-208054429D01*
X239074033Y-208068477D01*
X239071526Y-208082083D01*
X239068535Y-208095248D01*
X239065058Y-208107969D01*
X239061096Y-208120249D01*
X239056649Y-208132086D01*
X239051716Y-208143482D01*
X239047209Y-208153851D01*
X239042237Y-208164352D01*
X239036800Y-208174984D01*
X239032116Y-208183584D01*
X239027134Y-208192268D01*
X239021854Y-208201036D01*
X239016276Y-208209888D01*
X239014836Y-208212114D01*
X239008882Y-208221086D01*
X239002623Y-208230173D01*
X238996059Y-208239374D01*
X238989190Y-208248689D01*
X238982015Y-208258119D01*
X238974535Y-208267664D01*
X238966750Y-208277323D01*
X238958660Y-208287096D01*
X239154542Y-208287096D01*
X239159531Y-208278504D01*
X239164362Y-208269885D01*
X239169034Y-208261239D01*
X239173548Y-208252567D01*
X239182100Y-208235141D01*
X239190019Y-208217609D01*
X239197304Y-208199970D01*
X239203956Y-208182225D01*
X239209974Y-208164372D01*
X239215359Y-208146413D01*
X239220110Y-208128346D01*
X239224228Y-208110173D01*
X239227712Y-208091893D01*
X239230563Y-208073506D01*
X239232780Y-208055012D01*
X239234364Y-208036412D01*
X239235314Y-208017704D01*
X239235631Y-207998890D01*
X239235475Y-207984743D01*
X239235006Y-207970727D01*
X239234225Y-207956840D01*
X239233131Y-207943084D01*
X239231725Y-207929458D01*
X239230007Y-207915963D01*
X239227976Y-207902597D01*
X239225632Y-207889362D01*
X239222976Y-207876257D01*
X239220008Y-207863283D01*
X239216727Y-207850438D01*
X239213134Y-207837724D01*
X239209228Y-207825140D01*
X239205010Y-207812686D01*
X239200479Y-207800363D01*
X239195636Y-207788169D01*
X239190481Y-207776106D01*
X239185013Y-207764174D01*
X239179232Y-207752371D01*
X239173139Y-207740699D01*
X239166734Y-207729156D01*
X239160016Y-207717744D01*
X239152986Y-207706463D01*
X239145643Y-207695311D01*
X239137988Y-207684290D01*
X239130020Y-207673399D01*
X239121740Y-207662638D01*
X239113147Y-207652008D01*
X239104242Y-207641508D01*
X239095024Y-207631137D01*
X239085494Y-207620898D01*
X239075652Y-207610788D01*
X239065497Y-207600946D01*
X239055211Y-207591416D01*
X239044795Y-207582198D01*
X239034249Y-207573293D01*
X239023573Y-207564700D01*
X239012766Y-207556420D01*
X239001829Y-207548452D01*
X238990762Y-207540797D01*
X238979565Y-207533454D01*
X238968238Y-207526424D01*
X238956780Y-207519706D01*
X238945192Y-207513301D01*
X238933474Y-207507208D01*
X238921625Y-207501427D01*
X238909647Y-207495959D01*
X238897538Y-207490804D01*
X238885299Y-207485961D01*
X238872929Y-207481430D01*
X238860430Y-207477212D01*
X238847800Y-207473306D01*
X238835040Y-207469713D01*
X238822150Y-207466432D01*
X238809129Y-207463464D01*
X238795979Y-207460808D01*
X238782698Y-207458464D01*
X238769287Y-207456433D01*
X238755745Y-207454715D01*
X238742073Y-207453309D01*
X238728272Y-207452215D01*
X238714340Y-207451434D01*
X238700277Y-207450965D01*
X238686085Y-207450809D01*
X238673351Y-207450940D01*
X238660705Y-207451332D01*
X238648147Y-207451985D01*
X238635675Y-207452900D01*
X238623291Y-207454077D01*
X238610994Y-207455514D01*
X238598785Y-207457214D01*
X238586663Y-207459174D01*
X238574628Y-207461396D01*
X238562680Y-207463880D01*
X238550820Y-207466625D01*
X238539047Y-207469631D01*
X238527361Y-207472899D01*
X238515762Y-207476428D01*
X238504251Y-207480218D01*
X238492827Y-207484270D01*
X238481491Y-207488584D01*
X238470242Y-207493158D01*
X238459080Y-207497995D01*
X238448005Y-207503092D01*
X238437018Y-207508451D01*
X238426118Y-207514072D01*
X238415305Y-207519954D01*
X238404579Y-207526097D01*
X238393941Y-207532502D01*
X238383390Y-207539168D01*
X238372927Y-207546095D01*
X238362551Y-207553284D01*
X238352262Y-207560734D01*
X238342060Y-207568446D01*
X238331946Y-207576419D01*
X238321919Y-207584654D01*
X238309852Y-207595053D01*
X238298169Y-207605640D01*
X238286869Y-207616416D01*
X238275951Y-207627381D01*
X238265417Y-207638535D01*
X238255266Y-207649878D01*
X238245498Y-207661410D01*
X238236113Y-207673131D01*
X238227111Y-207685041D01*
X238218492Y-207697139D01*
X238210256Y-207709427D01*
X238202404Y-207721903D01*
X238194934Y-207734569D01*
X238187847Y-207747423D01*
X238181144Y-207760466D01*
X238174823Y-207773698D01*
X238168886Y-207787119D01*
X238163331Y-207800729D01*
X238158160Y-207814528D01*
X238153372Y-207828515D01*
X238148967Y-207842692D01*
X238144945Y-207857057D01*
X238141305Y-207871612D01*
X238138049Y-207886355D01*
X238135177Y-207901287D01*
X238132687Y-207916408D01*
X238130580Y-207931718D01*
X238128856Y-207947217D01*
X238127515Y-207962905D01*
X238126558Y-207978782D01*
X238125983Y-207994848D01*
X238125792Y-208011102D01*
X238126105Y-208028924D01*
X238127047Y-208046670D01*
X238128617Y-208064339D01*
X238130814Y-208081933D01*
X238133639Y-208099449D01*
X238137092Y-208116890D01*
X238141172Y-208134254D01*
X238145881Y-208151542D01*
X238151217Y-208168753D01*
X238157181Y-208185888D01*
X238163772Y-208202947D01*
X238170992Y-208219930D01*
X238178839Y-208236836D01*
X238187314Y-208253666D01*
X238196417Y-208270419D01*
X238206147Y-208287096D01*
G37*
G36*
X238157055Y-208792191D02*
G01*
X238842400Y-208792191D01*
X238857541Y-208792124D01*
X238872190Y-208791924D01*
X238886347Y-208791590D01*
X238900011Y-208791122D01*
X238913183Y-208790521D01*
X238925862Y-208789786D01*
X238938050Y-208788918D01*
X238949745Y-208787916D01*
X238960948Y-208786781D01*
X238971658Y-208785512D01*
X238981876Y-208784110D01*
X238991602Y-208782574D01*
X239005268Y-208780019D01*
X239017826Y-208777164D01*
X239025582Y-208775094D01*
X239038264Y-208771723D01*
X239050572Y-208767932D01*
X239062507Y-208763721D01*
X239074068Y-208759088D01*
X239085256Y-208754035D01*
X239096070Y-208748561D01*
X239106511Y-208742666D01*
X239116578Y-208736351D01*
X239126272Y-208729614D01*
X239135592Y-208722457D01*
X239141598Y-208717452D01*
X239152984Y-208707328D01*
X239163637Y-208696799D01*
X239173554Y-208685865D01*
X239182737Y-208674527D01*
X239191186Y-208662784D01*
X239198899Y-208650637D01*
X239205878Y-208638085D01*
X239212123Y-208625129D01*
X239217632Y-208611768D01*
X239222408Y-208598002D01*
X239226448Y-208583832D01*
X239229754Y-208569258D01*
X239232325Y-208554279D01*
X239234162Y-208538896D01*
X239235264Y-208523108D01*
X239235631Y-208506915D01*
X239235418Y-208494541D01*
X239234780Y-208482269D01*
X239233716Y-208470101D01*
X239232227Y-208458036D01*
X239230312Y-208446074D01*
X239227972Y-208434215D01*
X239225206Y-208422459D01*
X239222015Y-208410806D01*
X239218398Y-208399255D01*
X239214355Y-208387809D01*
X239209887Y-208376465D01*
X239204994Y-208365224D01*
X239199675Y-208354086D01*
X239193930Y-208343051D01*
X239187760Y-208332119D01*
X239181165Y-208321290D01*
X239040481Y-208399204D01*
X239047421Y-208410037D01*
X239053679Y-208420736D01*
X239059254Y-208431303D01*
X239064146Y-208441737D01*
X239068355Y-208452037D01*
X239071882Y-208462204D01*
X239074727Y-208472239D01*
X239076888Y-208482140D01*
X239078368Y-208491908D01*
X239079278Y-208504725D01*
X239079316Y-208507892D01*
X239078841Y-208520834D01*
X239077418Y-208533008D01*
X239075046Y-208544413D01*
X239071725Y-208555050D01*
X239067455Y-208564918D01*
X239062237Y-208574018D01*
X239056069Y-208582349D01*
X239048953Y-208589912D01*
X239040888Y-208596706D01*
X239031874Y-208602732D01*
X239025338Y-208606322D01*
X239014557Y-208611429D01*
X239002363Y-208616033D01*
X238988757Y-208620136D01*
X238978901Y-208622591D01*
X238968418Y-208624824D01*
X238957307Y-208626833D01*
X238945568Y-208628619D01*
X238933201Y-208630182D01*
X238920206Y-208631522D01*
X238906584Y-208632638D01*
X238892334Y-208633531D01*
X238877456Y-208634201D01*
X238861951Y-208634647D01*
X238845817Y-208634870D01*
X238837515Y-208634898D01*
X238157055Y-208634898D01*
X238157055Y-208792191D01*
G37*
G36*
X238157055Y-209209357D02*
G01*
X239063684Y-209209357D01*
X239063684Y-209521011D01*
X239220000Y-209521011D01*
X239220000Y-209052065D01*
X238157055Y-209052065D01*
X238157055Y-209209357D01*
G37*
G36*
X238206147Y-210414940D02*
G01*
X238397878Y-210414940D01*
X238390755Y-210406214D01*
X238383859Y-210397469D01*
X238377189Y-210388705D01*
X238370744Y-210379922D01*
X238364526Y-210371120D01*
X238358534Y-210362298D01*
X238352768Y-210353458D01*
X238347228Y-210344598D01*
X238341915Y-210335720D01*
X238336827Y-210326822D01*
X238331965Y-210317905D01*
X238327330Y-210308969D01*
X238322921Y-210300014D01*
X238318738Y-210291040D01*
X238314781Y-210282047D01*
X238307545Y-210264004D01*
X238301214Y-210245884D01*
X238295787Y-210227688D01*
X238291265Y-210209416D01*
X238287647Y-210191067D01*
X238284933Y-210172642D01*
X238283124Y-210154140D01*
X238282220Y-210135563D01*
X238282107Y-210126245D01*
X238282221Y-210116022D01*
X238282564Y-210105900D01*
X238283135Y-210095880D01*
X238283935Y-210085960D01*
X238284963Y-210076142D01*
X238286220Y-210066425D01*
X238289419Y-210047294D01*
X238293532Y-210028567D01*
X238298559Y-210010245D01*
X238304500Y-209992328D01*
X238311355Y-209974815D01*
X238319124Y-209957706D01*
X238327807Y-209941002D01*
X238337404Y-209924703D01*
X238347915Y-209908808D01*
X238359340Y-209893318D01*
X238371679Y-209878232D01*
X238378191Y-209870841D01*
X238384932Y-209863551D01*
X238391902Y-209856362D01*
X238399099Y-209849274D01*
X238406446Y-209842301D01*
X238413894Y-209835550D01*
X238421443Y-209829021D01*
X238429092Y-209822712D01*
X238436841Y-209816625D01*
X238444692Y-209810760D01*
X238460694Y-209799692D01*
X238477100Y-209789511D01*
X238493907Y-209780214D01*
X238511118Y-209771803D01*
X238528731Y-209764277D01*
X238546747Y-209757637D01*
X238565165Y-209751882D01*
X238583986Y-209747012D01*
X238593548Y-209744910D01*
X238603210Y-209743028D01*
X238612973Y-209741368D01*
X238622836Y-209739929D01*
X238632800Y-209738712D01*
X238642865Y-209737716D01*
X238653031Y-209736941D01*
X238663297Y-209736388D01*
X238673663Y-209736056D01*
X238684131Y-209735945D01*
X238694476Y-209736056D01*
X238704720Y-209736388D01*
X238714862Y-209736941D01*
X238724904Y-209737716D01*
X238734844Y-209738712D01*
X238744684Y-209739929D01*
X238754422Y-209741368D01*
X238764059Y-209743028D01*
X238783030Y-209747012D01*
X238801596Y-209751882D01*
X238819758Y-209757637D01*
X238837515Y-209764277D01*
X238854868Y-209771803D01*
X238871816Y-209780214D01*
X238888360Y-209789511D01*
X238904499Y-209799692D01*
X238920233Y-209810760D01*
X238935563Y-209822712D01*
X238943077Y-209829021D01*
X238950489Y-209835550D01*
X238957800Y-209842301D01*
X238965010Y-209849274D01*
X238972042Y-209856407D01*
X238978852Y-209863639D01*
X238985438Y-209870972D01*
X238991800Y-209878404D01*
X239003856Y-209893567D01*
X239015019Y-209909129D01*
X239025288Y-209925089D01*
X239034665Y-209941449D01*
X239043149Y-209958207D01*
X239050739Y-209975364D01*
X239057437Y-209992920D01*
X239063241Y-210010875D01*
X239068153Y-210029228D01*
X239072172Y-210047981D01*
X239075297Y-210067132D01*
X239076525Y-210076857D01*
X239077530Y-210086682D01*
X239078311Y-210096606D01*
X239078869Y-210106630D01*
X239079204Y-210116754D01*
X239079316Y-210126978D01*
X239079208Y-210137474D01*
X239078884Y-210147773D01*
X239078345Y-210157876D01*
X239077591Y-210167782D01*
X239076054Y-210182272D01*
X239074033Y-210196321D01*
X239071526Y-210209927D01*
X239068535Y-210223091D01*
X239065058Y-210235813D01*
X239061096Y-210248093D01*
X239056649Y-210259930D01*
X239051716Y-210271325D01*
X239047209Y-210281695D01*
X239042237Y-210292196D01*
X239036800Y-210302828D01*
X239032116Y-210311428D01*
X239027134Y-210320112D01*
X239021854Y-210328880D01*
X239016276Y-210337732D01*
X239014836Y-210339958D01*
X239008882Y-210348930D01*
X239002623Y-210358016D01*
X238996059Y-210367217D01*
X238989190Y-210376533D01*
X238982015Y-210385963D01*
X238974535Y-210395508D01*
X238966750Y-210405167D01*
X238958660Y-210414940D01*
X239154542Y-210414940D01*
X239159531Y-210406348D01*
X239164362Y-210397729D01*
X239169034Y-210389083D01*
X239173548Y-210380410D01*
X239182100Y-210362985D01*
X239190019Y-210345453D01*
X239197304Y-210327814D01*
X239203956Y-210310068D01*
X239209974Y-210292216D01*
X239215359Y-210274256D01*
X239220110Y-210256190D01*
X239224228Y-210238017D01*
X239227712Y-210219737D01*
X239230563Y-210201350D01*
X239232780Y-210182856D01*
X239234364Y-210164255D01*
X239235314Y-210145548D01*
X239235631Y-210126734D01*
X239235475Y-210112587D01*
X239235006Y-210098570D01*
X239234225Y-210084684D01*
X239233131Y-210070928D01*
X239231725Y-210057302D01*
X239230007Y-210043806D01*
X239227976Y-210030441D01*
X239225632Y-210017206D01*
X239222976Y-210004101D01*
X239220008Y-209991126D01*
X239216727Y-209978282D01*
X239213134Y-209965568D01*
X239209228Y-209952984D01*
X239205010Y-209940530D01*
X239200479Y-209928206D01*
X239195636Y-209916013D01*
X239190481Y-209903950D01*
X239185013Y-209892017D01*
X239179232Y-209880215D01*
X239173139Y-209868542D01*
X239166734Y-209857000D01*
X239160016Y-209845588D01*
X239152986Y-209834306D01*
X239145643Y-209823155D01*
X239137988Y-209812134D01*
X239130020Y-209801243D01*
X239121740Y-209790482D01*
X239113147Y-209779852D01*
X239104242Y-209769351D01*
X239095024Y-209758981D01*
X239085494Y-209748741D01*
X239075652Y-209738632D01*
X239065497Y-209728789D01*
X239055211Y-209719259D01*
X239044795Y-209710042D01*
X239034249Y-209701137D01*
X239023573Y-209692544D01*
X239012766Y-209684264D01*
X239001829Y-209676296D01*
X238990762Y-209668641D01*
X238979565Y-209661298D01*
X238968238Y-209654268D01*
X238956780Y-209647550D01*
X238945192Y-209641144D01*
X238933474Y-209635052D01*
X238921625Y-209629271D01*
X238909647Y-209623803D01*
X238897538Y-209618647D01*
X238885299Y-209613804D01*
X238872929Y-209609274D01*
X238860430Y-209605055D01*
X238847800Y-209601150D01*
X238835040Y-209597556D01*
X238822150Y-209594276D01*
X238809129Y-209591307D01*
X238795979Y-209588651D01*
X238782698Y-209586308D01*
X238769287Y-209584277D01*
X238755745Y-209582558D01*
X238742073Y-209581152D01*
X238728272Y-209580059D01*
X238714340Y-209579278D01*
X238700277Y-209578809D01*
X238686085Y-209578653D01*
X238673351Y-209578783D01*
X238660705Y-209579176D01*
X238648147Y-209579829D01*
X238635675Y-209580744D01*
X238623291Y-209581920D01*
X238610994Y-209583358D01*
X238598785Y-209585057D01*
X238586663Y-209587018D01*
X238574628Y-209589240D01*
X238562680Y-209591723D01*
X238550820Y-209594468D01*
X238539047Y-209597475D01*
X238527361Y-209600742D01*
X238515762Y-209604271D01*
X238504251Y-209608062D01*
X238492827Y-209612114D01*
X238481491Y-209616427D01*
X238470242Y-209621002D01*
X238459080Y-209625838D01*
X238448005Y-209630936D01*
X238437018Y-209636295D01*
X238426118Y-209641915D01*
X238415305Y-209647797D01*
X238404579Y-209653941D01*
X238393941Y-209660345D01*
X238383390Y-209667011D01*
X238372927Y-209673939D01*
X238362551Y-209681128D01*
X238352262Y-209688578D01*
X238342060Y-209696290D01*
X238331946Y-209704263D01*
X238321919Y-209712498D01*
X238309852Y-209722896D01*
X238298169Y-209733484D01*
X238286869Y-209744260D01*
X238275951Y-209755225D01*
X238265417Y-209766379D01*
X238255266Y-209777722D01*
X238245498Y-209789254D01*
X238236113Y-209800975D01*
X238227111Y-209812884D01*
X238218492Y-209824983D01*
X238210256Y-209837271D01*
X238202404Y-209849747D01*
X238194934Y-209862412D01*
X238187847Y-209875267D01*
X238181144Y-209888310D01*
X238174823Y-209901542D01*
X238168886Y-209914963D01*
X238163331Y-209928573D01*
X238158160Y-209942371D01*
X238153372Y-209956359D01*
X238148967Y-209970536D01*
X238144945Y-209984901D01*
X238141305Y-209999455D01*
X238138049Y-210014199D01*
X238135177Y-210029131D01*
X238132687Y-210044252D01*
X238130580Y-210059562D01*
X238128856Y-210075061D01*
X238127515Y-210090749D01*
X238126558Y-210106626D01*
X238125983Y-210122691D01*
X238125792Y-210138946D01*
X238126105Y-210156768D01*
X238127047Y-210174514D01*
X238128617Y-210192183D01*
X238130814Y-210209776D01*
X238133639Y-210227293D01*
X238137092Y-210244733D01*
X238141172Y-210262098D01*
X238145881Y-210279385D01*
X238151217Y-210296597D01*
X238157181Y-210313732D01*
X238163772Y-210330791D01*
X238170992Y-210347773D01*
X238178839Y-210364680D01*
X238187314Y-210381509D01*
X238196417Y-210398263D01*
X238206147Y-210414940D01*
G37*
D11*
G36*
X102600212Y-149995300D02*
G01*
X102600212Y-150602365D01*
X101990582Y-150602365D01*
X101990582Y-151003534D01*
X103585000Y-151003534D01*
X103585000Y-150602365D01*
X102934337Y-150602365D01*
X102934337Y-149995300D01*
X103585000Y-149995300D01*
X103585000Y-149594131D01*
X101990582Y-149594131D01*
X101990582Y-149995300D01*
X102600212Y-149995300D01*
G37*
G36*
X103067228Y-151272251D02*
G01*
X103083418Y-151272766D01*
X103099411Y-151273625D01*
X103115206Y-151274827D01*
X103130804Y-151276372D01*
X103146204Y-151278261D01*
X103161407Y-151280494D01*
X103176412Y-151283070D01*
X103191219Y-151285989D01*
X103205830Y-151289252D01*
X103220242Y-151292859D01*
X103234458Y-151296809D01*
X103248475Y-151301102D01*
X103269132Y-151308186D01*
X103289344Y-151316043D01*
X103302508Y-151321683D01*
X103321821Y-151330685D01*
X103340612Y-151340337D01*
X103358881Y-151350640D01*
X103376628Y-151361594D01*
X103393854Y-151373197D01*
X103410559Y-151385452D01*
X103426741Y-151398356D01*
X103442402Y-151411911D01*
X103457542Y-151426117D01*
X103472159Y-151440973D01*
X103481593Y-151451220D01*
X103495229Y-151467062D01*
X103508246Y-151483471D01*
X103520645Y-151500447D01*
X103532426Y-151517990D01*
X103543589Y-151536099D01*
X103554133Y-151554775D01*
X103564059Y-151574018D01*
X103573367Y-151593827D01*
X103579229Y-151607348D01*
X103584816Y-151621121D01*
X103590129Y-151635146D01*
X103595186Y-151649430D01*
X103599917Y-151663888D01*
X103604322Y-151678522D01*
X103608401Y-151693329D01*
X103612153Y-151708312D01*
X103615579Y-151723468D01*
X103618679Y-151738800D01*
X103621453Y-151754306D01*
X103623900Y-151769987D01*
X103626021Y-151785842D01*
X103627815Y-151801872D01*
X103629284Y-151818076D01*
X103630426Y-151834455D01*
X103631242Y-151851009D01*
X103631731Y-151867737D01*
X103631894Y-151884640D01*
X103631525Y-151912157D01*
X103630419Y-151939021D01*
X103628574Y-151965231D01*
X103625992Y-151990788D01*
X103622672Y-152015692D01*
X103618615Y-152039943D01*
X103613820Y-152063540D01*
X103608287Y-152086484D01*
X103602016Y-152108775D01*
X103595007Y-152130412D01*
X103587261Y-152151396D01*
X103578777Y-152171727D01*
X103569555Y-152191404D01*
X103559596Y-152210428D01*
X103548899Y-152228799D01*
X103537464Y-152246516D01*
X103525291Y-152263581D01*
X103512381Y-152279992D01*
X103498733Y-152295749D01*
X103484347Y-152310853D01*
X103469223Y-152325304D01*
X103453362Y-152339102D01*
X103436763Y-152352247D01*
X103419426Y-152364738D01*
X103401351Y-152376575D01*
X103382539Y-152387760D01*
X103362989Y-152398291D01*
X103342701Y-152408169D01*
X103321676Y-152417394D01*
X103299912Y-152425965D01*
X103277411Y-152433883D01*
X103254173Y-152441147D01*
X103254173Y-152069654D01*
X103260101Y-152065610D01*
X103276755Y-152052756D01*
X103291717Y-152038819D01*
X103304984Y-152023801D01*
X103316558Y-152007701D01*
X103326438Y-151990519D01*
X103334624Y-151972256D01*
X103341117Y-151952910D01*
X103345916Y-151932482D01*
X103349021Y-151910973D01*
X103350150Y-151896032D01*
X103350526Y-151880610D01*
X103349610Y-151852350D01*
X103346863Y-151825913D01*
X103342283Y-151801299D01*
X103335872Y-151778509D01*
X103327629Y-151757542D01*
X103317554Y-151738398D01*
X103305647Y-151721077D01*
X103291908Y-151705580D01*
X103276338Y-151691905D01*
X103258935Y-151680054D01*
X103239701Y-151670027D01*
X103218635Y-151661822D01*
X103195737Y-151655441D01*
X103171008Y-151650883D01*
X103144446Y-151648148D01*
X103116053Y-151647236D01*
X103116053Y-152456168D01*
X103075020Y-152456168D01*
X103057182Y-152456012D01*
X103039569Y-152455544D01*
X103022182Y-152454764D01*
X103005022Y-152453673D01*
X102988088Y-152452269D01*
X102971379Y-152450553D01*
X102954897Y-152448525D01*
X102938641Y-152446185D01*
X102922611Y-152443533D01*
X102906808Y-152440569D01*
X102891230Y-152437293D01*
X102875879Y-152433706D01*
X102860753Y-152429806D01*
X102845854Y-152425594D01*
X102831181Y-152421070D01*
X102816734Y-152416235D01*
X102802494Y-152411103D01*
X102788535Y-152405690D01*
X102774856Y-152399997D01*
X102761458Y-152394024D01*
X102741887Y-152384538D01*
X102722947Y-152374420D01*
X102704638Y-152363672D01*
X102686961Y-152352293D01*
X102669914Y-152340282D01*
X102653498Y-152327640D01*
X102637714Y-152314368D01*
X102622561Y-152300464D01*
X102612770Y-152290898D01*
X102598638Y-152276056D01*
X102585169Y-152260621D01*
X102572363Y-152244594D01*
X102560220Y-152227975D01*
X102548741Y-152210763D01*
X102537925Y-152192959D01*
X102527772Y-152174562D01*
X102518283Y-152155572D01*
X102509457Y-152135990D01*
X102501294Y-152115816D01*
X102496236Y-152102063D01*
X102491505Y-152088098D01*
X102487100Y-152073922D01*
X102483022Y-152059533D01*
X102479269Y-152044933D01*
X102475843Y-152030121D01*
X102472743Y-152015097D01*
X102469970Y-151999862D01*
X102467523Y-151984414D01*
X102465402Y-151968755D01*
X102463607Y-151952884D01*
X102462139Y-151936801D01*
X102460997Y-151920507D01*
X102460181Y-151904000D01*
X102459692Y-151887282D01*
X102459567Y-151874382D01*
X102717449Y-151874382D01*
X102717903Y-151890093D01*
X102719265Y-151905354D01*
X102721535Y-151920164D01*
X102724713Y-151934523D01*
X102730363Y-151952967D01*
X102737628Y-151970610D01*
X102746506Y-151987451D01*
X102756999Y-152003491D01*
X102769106Y-152018729D01*
X102775648Y-152025992D01*
X102789512Y-152039582D01*
X102804419Y-152051924D01*
X102820367Y-152063018D01*
X102833012Y-152070520D01*
X102846243Y-152077319D01*
X102860060Y-152083417D01*
X102874463Y-152088812D01*
X102889452Y-152093506D01*
X102905027Y-152097498D01*
X102905027Y-151657861D01*
X102899480Y-151658817D01*
X102883309Y-151662177D01*
X102867846Y-151666271D01*
X102853092Y-151671098D01*
X102839047Y-151676660D01*
X102825710Y-151682957D01*
X102809029Y-151692494D01*
X102793607Y-151703336D01*
X102779445Y-151715483D01*
X102766542Y-151728935D01*
X102755036Y-151743550D01*
X102745064Y-151759183D01*
X102736626Y-151775836D01*
X102729722Y-151793507D01*
X102724353Y-151812197D01*
X102721332Y-151826884D01*
X102719175Y-151842143D01*
X102717880Y-151857976D01*
X102717449Y-151874382D01*
X102459567Y-151874382D01*
X102459528Y-151870352D01*
X102459690Y-151853151D01*
X102460175Y-151836171D01*
X102460984Y-151819412D01*
X102462116Y-151802872D01*
X102463571Y-151786553D01*
X102465350Y-151770455D01*
X102467453Y-151754577D01*
X102469878Y-151738919D01*
X102472627Y-151723481D01*
X102475700Y-151708264D01*
X102479096Y-151693268D01*
X102482815Y-151678492D01*
X102486858Y-151663936D01*
X102491225Y-151649600D01*
X102495914Y-151635485D01*
X102500928Y-151621591D01*
X102506241Y-151607933D01*
X102514732Y-151587925D01*
X102523848Y-151568491D01*
X102533589Y-151549629D01*
X102543954Y-151531340D01*
X102554944Y-151513625D01*
X102566558Y-151496483D01*
X102578798Y-151479914D01*
X102591661Y-151463918D01*
X102605150Y-151448495D01*
X102619263Y-151433646D01*
X102628963Y-151424076D01*
X102643996Y-151410242D01*
X102659609Y-151397032D01*
X102675801Y-151384447D01*
X102692573Y-151372487D01*
X102709925Y-151361152D01*
X102727856Y-151350441D01*
X102746367Y-151340355D01*
X102765457Y-151330893D01*
X102785127Y-151322057D01*
X102805376Y-151313845D01*
X102819129Y-151308787D01*
X102833094Y-151304056D01*
X102847271Y-151299651D01*
X102861659Y-151295572D01*
X102876259Y-151291820D01*
X102891071Y-151288394D01*
X102906095Y-151285294D01*
X102921331Y-151282520D01*
X102936778Y-151280073D01*
X102952437Y-151277952D01*
X102968308Y-151276158D01*
X102984391Y-151274689D01*
X103000686Y-151273547D01*
X103017192Y-151272732D01*
X103033910Y-151272242D01*
X103050840Y-151272079D01*
X103067228Y-151272251D01*
G37*
G36*
X103035572Y-152630597D02*
G01*
X103051082Y-152630915D01*
X103066441Y-152631551D01*
X103081648Y-152632504D01*
X103096703Y-152633775D01*
X103111606Y-152635363D01*
X103126358Y-152637269D01*
X103140958Y-152639493D01*
X103155407Y-152642035D01*
X103176795Y-152646443D01*
X103197842Y-152651566D01*
X103218548Y-152657404D01*
X103238912Y-152663957D01*
X103258935Y-152671224D01*
X103272064Y-152676433D01*
X103291361Y-152684720D01*
X103310181Y-152693572D01*
X103328524Y-152702992D01*
X103346390Y-152712978D01*
X103363781Y-152723531D01*
X103380694Y-152734651D01*
X103397131Y-152746337D01*
X103413092Y-152758591D01*
X103428576Y-152771411D01*
X103443583Y-152784797D01*
X103453246Y-152794052D01*
X103467225Y-152808294D01*
X103480586Y-152822968D01*
X103493328Y-152838073D01*
X103505453Y-152853609D01*
X103516959Y-152869577D01*
X103527847Y-152885977D01*
X103538116Y-152902808D01*
X103547768Y-152920070D01*
X103556801Y-152937764D01*
X103565216Y-152955889D01*
X103570451Y-152968191D01*
X103577670Y-152986923D01*
X103584129Y-153005990D01*
X103589829Y-153025391D01*
X103594768Y-153045128D01*
X103598948Y-153065199D01*
X103602367Y-153085605D01*
X103605027Y-153106346D01*
X103606927Y-153127422D01*
X103608067Y-153148833D01*
X103608447Y-153170579D01*
X103607807Y-153196073D01*
X103605888Y-153220897D01*
X103602689Y-153245051D01*
X103598212Y-153268535D01*
X103592454Y-153291350D01*
X103585417Y-153313495D01*
X103577101Y-153334970D01*
X103567506Y-153355776D01*
X103556631Y-153375912D01*
X103544476Y-153395378D01*
X103531042Y-153414174D01*
X103516329Y-153432300D01*
X103500336Y-153449757D01*
X103483064Y-153466544D01*
X103464513Y-153482661D01*
X103444682Y-153498108D01*
X103561552Y-153498108D01*
X103561552Y-153873265D01*
X102482976Y-153873265D01*
X102482976Y-153498108D01*
X102593984Y-153498108D01*
X102576993Y-153481400D01*
X102561097Y-153464157D01*
X102546298Y-153446378D01*
X102532595Y-153428064D01*
X102519989Y-153409215D01*
X102508478Y-153389831D01*
X102498064Y-153369911D01*
X102488746Y-153349456D01*
X102480524Y-153328466D01*
X102473399Y-153306941D01*
X102467370Y-153284880D01*
X102464411Y-153271329D01*
X102787791Y-153271329D01*
X102787865Y-153277488D01*
X102788702Y-153292687D01*
X102790470Y-153307599D01*
X102793168Y-153322225D01*
X102796795Y-153336565D01*
X102801353Y-153350618D01*
X102806842Y-153364385D01*
X102810474Y-153372522D01*
X102817100Y-153385612D01*
X102825996Y-153400540D01*
X102835922Y-153414617D01*
X102846879Y-153427845D01*
X102858866Y-153440223D01*
X102869570Y-153449879D01*
X102883171Y-153460664D01*
X102897597Y-153470573D01*
X102910248Y-153478162D01*
X102923472Y-153485142D01*
X102937267Y-153491514D01*
X102942876Y-153493865D01*
X102957085Y-153499080D01*
X102971563Y-153503346D01*
X102986308Y-153506665D01*
X103001323Y-153509035D01*
X103016605Y-153510457D01*
X103032156Y-153510931D01*
X103038405Y-153510855D01*
X103053817Y-153510002D01*
X103068924Y-153508201D01*
X103083727Y-153505451D01*
X103098226Y-153501753D01*
X103112421Y-153497108D01*
X103126311Y-153491514D01*
X103134461Y-153487764D01*
X103147629Y-153481027D01*
X103162746Y-153472139D01*
X103177116Y-153462376D01*
X103190739Y-153451738D01*
X103203614Y-153440223D01*
X103209737Y-153434140D01*
X103221208Y-153421338D01*
X103231650Y-153407685D01*
X103241061Y-153393182D01*
X103249441Y-153377829D01*
X103255638Y-153364385D01*
X103257901Y-153358913D01*
X103262918Y-153345031D01*
X103267024Y-153330863D01*
X103270217Y-153316409D01*
X103272498Y-153301668D01*
X103273866Y-153286642D01*
X103274323Y-153271329D01*
X103274250Y-153264989D01*
X103273429Y-153249365D01*
X103271695Y-153234063D01*
X103269049Y-153219083D01*
X103265491Y-153204424D01*
X103261021Y-153190088D01*
X103255638Y-153176074D01*
X103252006Y-153167937D01*
X103245380Y-153154848D01*
X103236484Y-153139920D01*
X103226558Y-153125842D01*
X103215601Y-153112614D01*
X103203614Y-153100237D01*
X103192910Y-153090704D01*
X103179308Y-153080091D01*
X103164883Y-153070379D01*
X103152232Y-153062975D01*
X103139008Y-153056197D01*
X103125212Y-153050045D01*
X103119552Y-153047827D01*
X103105164Y-153042907D01*
X103090436Y-153038882D01*
X103075369Y-153035752D01*
X103059961Y-153033516D01*
X103044213Y-153032174D01*
X103028126Y-153031727D01*
X103012523Y-153032174D01*
X102997314Y-153033516D01*
X102982498Y-153035752D01*
X102968076Y-153038882D01*
X102951289Y-153043820D01*
X102935069Y-153050045D01*
X102929748Y-153052431D01*
X102914232Y-153060189D01*
X102899386Y-153068848D01*
X102885209Y-153078409D01*
X102871703Y-153088872D01*
X102858866Y-153100237D01*
X102852743Y-153106319D01*
X102841271Y-153119122D01*
X102830830Y-153132775D01*
X102821419Y-153147278D01*
X102813038Y-153162631D01*
X102806842Y-153176074D01*
X102804535Y-153181641D01*
X102799419Y-153195784D01*
X102795233Y-153210249D01*
X102791977Y-153225036D01*
X102789651Y-153240145D01*
X102788256Y-153255576D01*
X102787791Y-153271329D01*
X102464411Y-153271329D01*
X102462436Y-153262284D01*
X102458600Y-153239153D01*
X102455859Y-153215487D01*
X102454215Y-153191285D01*
X102453667Y-153166549D01*
X102453844Y-153151747D01*
X102454776Y-153129850D01*
X102456506Y-153108320D01*
X102459035Y-153087157D01*
X102462362Y-153066361D01*
X102466488Y-153045932D01*
X102471412Y-153025871D01*
X102477135Y-153006176D01*
X102483657Y-152986848D01*
X102490977Y-152967888D01*
X102499096Y-152949295D01*
X102504905Y-152937173D01*
X102514106Y-152919388D01*
X102523894Y-152902079D01*
X102534268Y-152885247D01*
X102545228Y-152868892D01*
X102556773Y-152853013D01*
X102568905Y-152837611D01*
X102581623Y-152822685D01*
X102594927Y-152808236D01*
X102608817Y-152794263D01*
X102623293Y-152780767D01*
X102633197Y-152772049D01*
X102648438Y-152759422D01*
X102664143Y-152747336D01*
X102680312Y-152735792D01*
X102696944Y-152724788D01*
X102714040Y-152714325D01*
X102731600Y-152704403D01*
X102749623Y-152695022D01*
X102768110Y-152686182D01*
X102787061Y-152677883D01*
X102806475Y-152670125D01*
X102819619Y-152665334D01*
X102839505Y-152658726D01*
X102859598Y-152652814D01*
X102879897Y-152647598D01*
X102900402Y-152643077D01*
X102921113Y-152639252D01*
X102942030Y-152636122D01*
X102963153Y-152633688D01*
X102984483Y-152631949D01*
X103006018Y-152630906D01*
X103027759Y-152630558D01*
X103035572Y-152630597D01*
G37*
G36*
X103043079Y-154102036D02*
G01*
X103058265Y-154102512D01*
X103073316Y-154103306D01*
X103088232Y-154104418D01*
X103103014Y-154105848D01*
X103117662Y-154107595D01*
X103132175Y-154109660D01*
X103153692Y-154113354D01*
X103174906Y-154117762D01*
X103195818Y-154122885D01*
X103216427Y-154128723D01*
X103236733Y-154135276D01*
X103256737Y-154142543D01*
X103269866Y-154147752D01*
X103289162Y-154156038D01*
X103307982Y-154164891D01*
X103326326Y-154174311D01*
X103344192Y-154184297D01*
X103361582Y-154194850D01*
X103378496Y-154205970D01*
X103394933Y-154217656D01*
X103410893Y-154229910D01*
X103426377Y-154242729D01*
X103441385Y-154256116D01*
X103451052Y-154265371D01*
X103465053Y-154279613D01*
X103478456Y-154294287D01*
X103491260Y-154309392D01*
X103503465Y-154324928D01*
X103515071Y-154340896D01*
X103526078Y-154357296D01*
X103536486Y-154374126D01*
X103546295Y-154391389D01*
X103555505Y-154409083D01*
X103564117Y-154427208D01*
X103569485Y-154439510D01*
X103576888Y-154458242D01*
X103583511Y-154477308D01*
X103589355Y-154496710D01*
X103594420Y-154516446D01*
X103598706Y-154536518D01*
X103602213Y-154556924D01*
X103604940Y-154577665D01*
X103606888Y-154598741D01*
X103608057Y-154620152D01*
X103608447Y-154641898D01*
X103607861Y-154667391D01*
X103606106Y-154692215D01*
X103603179Y-154716370D01*
X103599082Y-154739854D01*
X103593814Y-154762669D01*
X103587375Y-154784814D01*
X103579766Y-154806289D01*
X103570986Y-154827095D01*
X103561036Y-154847230D01*
X103549914Y-154866696D01*
X103537623Y-154885493D01*
X103524160Y-154903619D01*
X103509527Y-154921076D01*
X103493723Y-154937863D01*
X103476749Y-154953980D01*
X103458604Y-154969427D01*
X103585000Y-154969427D01*
X103585000Y-155344584D01*
X101826451Y-155344584D01*
X101826451Y-154969427D01*
X102597281Y-154969427D01*
X102579891Y-154952719D01*
X102563622Y-154935476D01*
X102548475Y-154917697D01*
X102534450Y-154899383D01*
X102521547Y-154880534D01*
X102509766Y-154861149D01*
X102499107Y-154841230D01*
X102489570Y-154820775D01*
X102481155Y-154799785D01*
X102473862Y-154778260D01*
X102467692Y-154756199D01*
X102464664Y-154742648D01*
X102787791Y-154742648D01*
X102787865Y-154748807D01*
X102788702Y-154764006D01*
X102790470Y-154778918D01*
X102793168Y-154793544D01*
X102796795Y-154807884D01*
X102801353Y-154821937D01*
X102806842Y-154835704D01*
X102810474Y-154843841D01*
X102817100Y-154856931D01*
X102825996Y-154871858D01*
X102835922Y-154885936D01*
X102846879Y-154899164D01*
X102858866Y-154911542D01*
X102869570Y-154921198D01*
X102883171Y-154931983D01*
X102897597Y-154941892D01*
X102910248Y-154949480D01*
X102923472Y-154956461D01*
X102937267Y-154962833D01*
X102942876Y-154965184D01*
X102957085Y-154970399D01*
X102971563Y-154974665D01*
X102986308Y-154977984D01*
X103001323Y-154980354D01*
X103016605Y-154981776D01*
X103032156Y-154982250D01*
X103038405Y-154982174D01*
X103053817Y-154981321D01*
X103068924Y-154979519D01*
X103083727Y-154976770D01*
X103098226Y-154973072D01*
X103112421Y-154968427D01*
X103126311Y-154962833D01*
X103134461Y-154959082D01*
X103147629Y-154952346D01*
X103162746Y-154943458D01*
X103177116Y-154933695D01*
X103190739Y-154923056D01*
X103203614Y-154911542D01*
X103209737Y-154905459D01*
X103221208Y-154892656D01*
X103231650Y-154879004D01*
X103241061Y-154864501D01*
X103249441Y-154849148D01*
X103255638Y-154835704D01*
X103257901Y-154830232D01*
X103262918Y-154816350D01*
X103267024Y-154802182D01*
X103270217Y-154787728D01*
X103272498Y-154772987D01*
X103273866Y-154757961D01*
X103274323Y-154742648D01*
X103274250Y-154736308D01*
X103273429Y-154720684D01*
X103271695Y-154705382D01*
X103269049Y-154690402D01*
X103265491Y-154675743D01*
X103261021Y-154661407D01*
X103255638Y-154647393D01*
X103252006Y-154639256D01*
X103245380Y-154626167D01*
X103236484Y-154611239D01*
X103226558Y-154597161D01*
X103215601Y-154583933D01*
X103203614Y-154571556D01*
X103192910Y-154562023D01*
X103179308Y-154551410D01*
X103164883Y-154541698D01*
X103152232Y-154534294D01*
X103139008Y-154527516D01*
X103125212Y-154521364D01*
X103119552Y-154519146D01*
X103105164Y-154514226D01*
X103090436Y-154510201D01*
X103075369Y-154507071D01*
X103059961Y-154504834D01*
X103044213Y-154503493D01*
X103028126Y-154503046D01*
X103012523Y-154503520D01*
X102997314Y-154504942D01*
X102982498Y-154507312D01*
X102968076Y-154510630D01*
X102951289Y-154515864D01*
X102935069Y-154522463D01*
X102929748Y-154524939D01*
X102914232Y-154532950D01*
X102899386Y-154541837D01*
X102885209Y-154551600D01*
X102871703Y-154562239D01*
X102858866Y-154573754D01*
X102852743Y-154579833D01*
X102841271Y-154592610D01*
X102830830Y-154606211D01*
X102821419Y-154620637D01*
X102813038Y-154635887D01*
X102806842Y-154649225D01*
X102804535Y-154654742D01*
X102799419Y-154668722D01*
X102795233Y-154682970D01*
X102791977Y-154697487D01*
X102789651Y-154712272D01*
X102788256Y-154727326D01*
X102787791Y-154742648D01*
X102464664Y-154742648D01*
X102462643Y-154733603D01*
X102458716Y-154710472D01*
X102455911Y-154686806D01*
X102454228Y-154662604D01*
X102453667Y-154637868D01*
X102453844Y-154623063D01*
X102454776Y-154601151D01*
X102456506Y-154579593D01*
X102459035Y-154558389D01*
X102462362Y-154537540D01*
X102466488Y-154517044D01*
X102471412Y-154496903D01*
X102477135Y-154477116D01*
X102483657Y-154457684D01*
X102490977Y-154438605D01*
X102499096Y-154419881D01*
X102504905Y-154407625D01*
X102514106Y-154389649D01*
X102523894Y-154372162D01*
X102534268Y-154355165D01*
X102545228Y-154338657D01*
X102556773Y-154322638D01*
X102568905Y-154307109D01*
X102581623Y-154292070D01*
X102594927Y-154277520D01*
X102608817Y-154263459D01*
X102623293Y-154249888D01*
X102633197Y-154241174D01*
X102648438Y-154228570D01*
X102664143Y-154216526D01*
X102680312Y-154205042D01*
X102696944Y-154194119D01*
X102714040Y-154183756D01*
X102731600Y-154173953D01*
X102749623Y-154164711D01*
X102768110Y-154156028D01*
X102787061Y-154147907D01*
X102806475Y-154140345D01*
X102819619Y-154135687D01*
X102839505Y-154129263D01*
X102859598Y-154123515D01*
X102879897Y-154118444D01*
X102900402Y-154114048D01*
X102921113Y-154110329D01*
X102942030Y-154107286D01*
X102963153Y-154104920D01*
X102984483Y-154103229D01*
X103006018Y-154102215D01*
X103027759Y-154101877D01*
X103043079Y-154102036D01*
G37*
G36*
X103067228Y-155573367D02*
G01*
X103083418Y-155573883D01*
X103099411Y-155574741D01*
X103115206Y-155575943D01*
X103130804Y-155577489D01*
X103146204Y-155579378D01*
X103161407Y-155581611D01*
X103176412Y-155584187D01*
X103191219Y-155587106D01*
X103205830Y-155590369D01*
X103220242Y-155593975D01*
X103234458Y-155597925D01*
X103248475Y-155602219D01*
X103269132Y-155609303D01*
X103289344Y-155617159D01*
X103302508Y-155622799D01*
X103321821Y-155631801D01*
X103340612Y-155641454D01*
X103358881Y-155651757D01*
X103376628Y-155662710D01*
X103393854Y-155674314D01*
X103410559Y-155686568D01*
X103426741Y-155699473D01*
X103442402Y-155713028D01*
X103457542Y-155727234D01*
X103472159Y-155742090D01*
X103481593Y-155752336D01*
X103495229Y-155768179D01*
X103508246Y-155784588D01*
X103520645Y-155801564D01*
X103532426Y-155819106D01*
X103543589Y-155837215D01*
X103554133Y-155855891D01*
X103564059Y-155875134D01*
X103573367Y-155894944D01*
X103579229Y-155908465D01*
X103584816Y-155922238D01*
X103590129Y-155936263D01*
X103595186Y-155950546D01*
X103599917Y-155965005D01*
X103604322Y-155979638D01*
X103608401Y-155994446D01*
X103612153Y-156009428D01*
X103615579Y-156024585D01*
X103618679Y-156039916D01*
X103621453Y-156055423D01*
X103623900Y-156071103D01*
X103626021Y-156086959D01*
X103627815Y-156102988D01*
X103629284Y-156119193D01*
X103630426Y-156135572D01*
X103631242Y-156152126D01*
X103631731Y-156168854D01*
X103631894Y-156185757D01*
X103631525Y-156213274D01*
X103630419Y-156240137D01*
X103628574Y-156266348D01*
X103625992Y-156291905D01*
X103622672Y-156316809D01*
X103618615Y-156341059D01*
X103613820Y-156364657D01*
X103608287Y-156387600D01*
X103602016Y-156409891D01*
X103595007Y-156431528D01*
X103587261Y-156452512D01*
X103578777Y-156472843D01*
X103569555Y-156492521D01*
X103559596Y-156511545D01*
X103548899Y-156529915D01*
X103537464Y-156547633D01*
X103525291Y-156564697D01*
X103512381Y-156581108D01*
X103498733Y-156596866D01*
X103484347Y-156611970D01*
X103469223Y-156626421D01*
X103453362Y-156640219D01*
X103436763Y-156653363D01*
X103419426Y-156665854D01*
X103401351Y-156677692D01*
X103382539Y-156688876D01*
X103362989Y-156699408D01*
X103342701Y-156709285D01*
X103321676Y-156718510D01*
X103299912Y-156727081D01*
X103277411Y-156734999D01*
X103254173Y-156742264D01*
X103254173Y-156370771D01*
X103260101Y-156366726D01*
X103276755Y-156353872D01*
X103291717Y-156339936D01*
X103304984Y-156324918D01*
X103316558Y-156308818D01*
X103326438Y-156291636D01*
X103334624Y-156273372D01*
X103341117Y-156254026D01*
X103345916Y-156233599D01*
X103349021Y-156212089D01*
X103350150Y-156197148D01*
X103350526Y-156181727D01*
X103349610Y-156153467D01*
X103346863Y-156127030D01*
X103342283Y-156102416D01*
X103335872Y-156079626D01*
X103327629Y-156058658D01*
X103317554Y-156039514D01*
X103305647Y-156022194D01*
X103291908Y-156006696D01*
X103276338Y-155993022D01*
X103258935Y-155981171D01*
X103239701Y-155971143D01*
X103218635Y-155962938D01*
X103195737Y-155956557D01*
X103171008Y-155951999D01*
X103144446Y-155949264D01*
X103116053Y-155948353D01*
X103116053Y-156757285D01*
X103075020Y-156757285D01*
X103057182Y-156757129D01*
X103039569Y-156756661D01*
X103022182Y-156755881D01*
X103005022Y-156754789D01*
X102988088Y-156753385D01*
X102971379Y-156751669D01*
X102954897Y-156749641D01*
X102938641Y-156747301D01*
X102922611Y-156744650D01*
X102906808Y-156741686D01*
X102891230Y-156738410D01*
X102875879Y-156734822D01*
X102860753Y-156730922D01*
X102845854Y-156726711D01*
X102831181Y-156722187D01*
X102816734Y-156717351D01*
X102802494Y-156712219D01*
X102788535Y-156706807D01*
X102774856Y-156701114D01*
X102761458Y-156695140D01*
X102741887Y-156685654D01*
X102722947Y-156675537D01*
X102704638Y-156664789D01*
X102686961Y-156653409D01*
X102669914Y-156641399D01*
X102653498Y-156628757D01*
X102637714Y-156615484D01*
X102622561Y-156601580D01*
X102612770Y-156592015D01*
X102598638Y-156577173D01*
X102585169Y-156561738D01*
X102572363Y-156545711D01*
X102560220Y-156529091D01*
X102548741Y-156511880D01*
X102537925Y-156494075D01*
X102527772Y-156475678D01*
X102518283Y-156456689D01*
X102509457Y-156437107D01*
X102501294Y-156416933D01*
X102496236Y-156403180D01*
X102491505Y-156389215D01*
X102487100Y-156375038D01*
X102483022Y-156360650D01*
X102479269Y-156346050D01*
X102475843Y-156331238D01*
X102472743Y-156316214D01*
X102469970Y-156300978D01*
X102467523Y-156285531D01*
X102465402Y-156269872D01*
X102463607Y-156254001D01*
X102462139Y-156237918D01*
X102460997Y-156221623D01*
X102460181Y-156205117D01*
X102459692Y-156188398D01*
X102459567Y-156175498D01*
X102717449Y-156175498D01*
X102717903Y-156191210D01*
X102719265Y-156206471D01*
X102721535Y-156221280D01*
X102724713Y-156235639D01*
X102730363Y-156254084D01*
X102737628Y-156271726D01*
X102746506Y-156288568D01*
X102756999Y-156304608D01*
X102769106Y-156319846D01*
X102775648Y-156327109D01*
X102789512Y-156340699D01*
X102804419Y-156353041D01*
X102820367Y-156364135D01*
X102833012Y-156371636D01*
X102846243Y-156378436D01*
X102860060Y-156384533D01*
X102874463Y-156389929D01*
X102889452Y-156394623D01*
X102905027Y-156398614D01*
X102905027Y-155958977D01*
X102899480Y-155959934D01*
X102883309Y-155963293D01*
X102867846Y-155967387D01*
X102853092Y-155972215D01*
X102839047Y-155977777D01*
X102825710Y-155984073D01*
X102809029Y-155993610D01*
X102793607Y-156004452D01*
X102779445Y-156016599D01*
X102766542Y-156030052D01*
X102755036Y-156044666D01*
X102745064Y-156060300D01*
X102736626Y-156076952D01*
X102729722Y-156094624D01*
X102724353Y-156113314D01*
X102721332Y-156128000D01*
X102719175Y-156143260D01*
X102717880Y-156159093D01*
X102717449Y-156175498D01*
X102459567Y-156175498D01*
X102459528Y-156171468D01*
X102459690Y-156154268D01*
X102460175Y-156137288D01*
X102460984Y-156120528D01*
X102462116Y-156103989D01*
X102463571Y-156087670D01*
X102465350Y-156071571D01*
X102467453Y-156055693D01*
X102469878Y-156040035D01*
X102472627Y-156024598D01*
X102475700Y-156009381D01*
X102479096Y-155994384D01*
X102482815Y-155979608D01*
X102486858Y-155965052D01*
X102491225Y-155950717D01*
X102495914Y-155936602D01*
X102500928Y-155922707D01*
X102506241Y-155909050D01*
X102514732Y-155889042D01*
X102523848Y-155869607D01*
X102533589Y-155850746D01*
X102543954Y-155832457D01*
X102554944Y-155814742D01*
X102566558Y-155797599D01*
X102578798Y-155781030D01*
X102591661Y-155765035D01*
X102605150Y-155749612D01*
X102619263Y-155734762D01*
X102628963Y-155725192D01*
X102643996Y-155711358D01*
X102659609Y-155698149D01*
X102675801Y-155685564D01*
X102692573Y-155673604D01*
X102709925Y-155662268D01*
X102727856Y-155651557D01*
X102746367Y-155641471D01*
X102765457Y-155632010D01*
X102785127Y-155623173D01*
X102805376Y-155614961D01*
X102819129Y-155609904D01*
X102833094Y-155605172D01*
X102847271Y-155600767D01*
X102861659Y-155596689D01*
X102876259Y-155592936D01*
X102891071Y-155589510D01*
X102906095Y-155586410D01*
X102921331Y-155583637D01*
X102936778Y-155581190D01*
X102952437Y-155579069D01*
X102968308Y-155577274D01*
X102984391Y-155575806D01*
X103000686Y-155574664D01*
X103017192Y-155573848D01*
X103033910Y-155573359D01*
X103050840Y-155573196D01*
X103067228Y-155573367D01*
G37*
G36*
X102506423Y-156978569D02*
G01*
X102506423Y-157353726D01*
X102681912Y-157353726D01*
X102663770Y-157365511D01*
X102646440Y-157377786D01*
X102629921Y-157390550D01*
X102614214Y-157403803D01*
X102599319Y-157417546D01*
X102585234Y-157431779D01*
X102571962Y-157446501D01*
X102559500Y-157461712D01*
X102547850Y-157477413D01*
X102537012Y-157493603D01*
X102530237Y-157504668D01*
X102520743Y-157521690D01*
X102512183Y-157539234D01*
X102504557Y-157557299D01*
X102497865Y-157575886D01*
X102492107Y-157594994D01*
X102487282Y-157614625D01*
X102483391Y-157634776D01*
X102480434Y-157655450D01*
X102478411Y-157676645D01*
X102477321Y-157698362D01*
X102477114Y-157713129D01*
X102477114Y-157727855D01*
X102477114Y-157742762D01*
X102477114Y-157746102D01*
X102478021Y-157761595D01*
X102480205Y-157776121D01*
X102482609Y-157787501D01*
X102849340Y-157787501D01*
X102842531Y-157773032D01*
X102836391Y-157758337D01*
X102830922Y-157743416D01*
X102826122Y-157728270D01*
X102821992Y-157712899D01*
X102818531Y-157697303D01*
X102815740Y-157681481D01*
X102813620Y-157665433D01*
X102812168Y-157649160D01*
X102811387Y-157632662D01*
X102811238Y-157621538D01*
X102811547Y-157605083D01*
X102812475Y-157589149D01*
X102814020Y-157573736D01*
X102816184Y-157558844D01*
X102820589Y-157537483D01*
X102826385Y-157517293D01*
X102833572Y-157498276D01*
X102842150Y-157480431D01*
X102852119Y-157463758D01*
X102863479Y-157448257D01*
X102876231Y-157433928D01*
X102890373Y-157420771D01*
X102905848Y-157408789D01*
X102922599Y-157397986D01*
X102940624Y-157388361D01*
X102959925Y-157379915D01*
X102980501Y-157372648D01*
X102994926Y-157368457D01*
X103009919Y-157364791D01*
X103025478Y-157361648D01*
X103041603Y-157359029D01*
X103058296Y-157356934D01*
X103075555Y-157355363D01*
X103093381Y-157354315D01*
X103111773Y-157353791D01*
X103121182Y-157353726D01*
X103585000Y-157353726D01*
X103585000Y-156978569D01*
X102506423Y-156978569D01*
G37*
G36*
X102772770Y-158654319D02*
G01*
X102766071Y-158641008D01*
X102759804Y-158627729D01*
X102751214Y-158607869D01*
X102743597Y-158588080D01*
X102736952Y-158568362D01*
X102731279Y-158548715D01*
X102726579Y-158529138D01*
X102722851Y-158509632D01*
X102720096Y-158490198D01*
X102718313Y-158470834D01*
X102717503Y-158451540D01*
X102717449Y-158445125D01*
X102717977Y-158428805D01*
X102719560Y-158413505D01*
X102722853Y-158396490D01*
X102727666Y-158380944D01*
X102733998Y-158366866D01*
X102739064Y-158358297D01*
X102749222Y-158345449D01*
X102760783Y-158335757D01*
X102775712Y-158328544D01*
X102790278Y-158325614D01*
X102796950Y-158325324D01*
X102812538Y-158326306D01*
X102826917Y-158329832D01*
X102828457Y-158330453D01*
X102840603Y-158339625D01*
X102849473Y-158351662D01*
X102850806Y-158353900D01*
X102857893Y-158368486D01*
X102863371Y-158383381D01*
X102867996Y-158398860D01*
X102870223Y-158407390D01*
X102874120Y-158423846D01*
X102877795Y-158439654D01*
X102881094Y-158454028D01*
X102884607Y-158469493D01*
X102888335Y-158486049D01*
X102891472Y-158500080D01*
X102895699Y-158519730D01*
X102900322Y-158538748D01*
X102905339Y-158557134D01*
X102910752Y-158574887D01*
X102916559Y-158592007D01*
X102922762Y-158608495D01*
X102929359Y-158624350D01*
X102936352Y-158639573D01*
X102943739Y-158654163D01*
X102951521Y-158668121D01*
X102959699Y-158681446D01*
X102968271Y-158694138D01*
X102977238Y-158706198D01*
X102986601Y-158717626D01*
X103001385Y-158733581D01*
X103006510Y-158738583D01*
X103022372Y-158752725D01*
X103039045Y-158765476D01*
X103056530Y-158776836D01*
X103074826Y-158786806D01*
X103093933Y-158795384D01*
X103113852Y-158802571D01*
X103134583Y-158808367D01*
X103156124Y-158812772D01*
X103170936Y-158814935D01*
X103186109Y-158816481D01*
X103201642Y-158817408D01*
X103217536Y-158817718D01*
X103235501Y-158817383D01*
X103253124Y-158816378D01*
X103270405Y-158814704D01*
X103287346Y-158812359D01*
X103303945Y-158809346D01*
X103320203Y-158805662D01*
X103336119Y-158801308D01*
X103351694Y-158796285D01*
X103366928Y-158790592D01*
X103381820Y-158784230D01*
X103391559Y-158779616D01*
X103405838Y-158772211D01*
X103419685Y-158764284D01*
X103433100Y-158755836D01*
X103446084Y-158746866D01*
X103458637Y-158737375D01*
X103470758Y-158727362D01*
X103482448Y-158716827D01*
X103493706Y-158705770D01*
X103504533Y-158694192D01*
X103514928Y-158682093D01*
X103521618Y-158673736D01*
X103531236Y-158660787D01*
X103540440Y-158647354D01*
X103549233Y-158633438D01*
X103557614Y-158619039D01*
X103565582Y-158604158D01*
X103573138Y-158588793D01*
X103580283Y-158572945D01*
X103587015Y-158556614D01*
X103593334Y-158539801D01*
X103599242Y-158522504D01*
X103602951Y-158510704D01*
X103608124Y-158492742D01*
X103612787Y-158474439D01*
X103616942Y-158455794D01*
X103620588Y-158436807D01*
X103623726Y-158417480D01*
X103626354Y-158397811D01*
X103628474Y-158377801D01*
X103630085Y-158357450D01*
X103631188Y-158336757D01*
X103631781Y-158315723D01*
X103631894Y-158301510D01*
X103631413Y-158274057D01*
X103629971Y-158246653D01*
X103627566Y-158219297D01*
X103624200Y-158191990D01*
X103619873Y-158164732D01*
X103614583Y-158137522D01*
X103608332Y-158110361D01*
X103601120Y-158083249D01*
X103592945Y-158056185D01*
X103583809Y-158029170D01*
X103573711Y-158002204D01*
X103562651Y-157975286D01*
X103556761Y-157961845D01*
X103550630Y-157948417D01*
X103544259Y-157935000D01*
X103537647Y-157921596D01*
X103530795Y-157908204D01*
X103523702Y-157894825D01*
X103516369Y-157881457D01*
X103508796Y-157868101D01*
X103237320Y-158006587D01*
X103251028Y-158027128D01*
X103263853Y-158047534D01*
X103275792Y-158067806D01*
X103286848Y-158087943D01*
X103297019Y-158107945D01*
X103306305Y-158127814D01*
X103314707Y-158147547D01*
X103322225Y-158167146D01*
X103328858Y-158186611D01*
X103334607Y-158205941D01*
X103339471Y-158225136D01*
X103343451Y-158244197D01*
X103346546Y-158263124D01*
X103348758Y-158281916D01*
X103350084Y-158300573D01*
X103350526Y-158319096D01*
X103349954Y-158335557D01*
X103348237Y-158351052D01*
X103345374Y-158365582D01*
X103340428Y-158381742D01*
X103333834Y-158396511D01*
X103327079Y-158407756D01*
X103317711Y-158419584D01*
X103305675Y-158430291D01*
X103292446Y-158437666D01*
X103278026Y-158441711D01*
X103266995Y-158442561D01*
X103251917Y-158441788D01*
X103237191Y-158438933D01*
X103231824Y-158437065D01*
X103218452Y-158428913D01*
X103208396Y-158417839D01*
X103206179Y-158414717D01*
X103198170Y-158400931D01*
X103192068Y-158386753D01*
X103186985Y-158371961D01*
X103184563Y-158363792D01*
X103180343Y-158348082D01*
X103176643Y-158333081D01*
X103172864Y-158316663D01*
X103169657Y-158301900D01*
X103166396Y-158286152D01*
X103164413Y-158276231D01*
X103159653Y-158253987D01*
X103154625Y-158232594D01*
X103149327Y-158212050D01*
X103143760Y-158192357D01*
X103137923Y-158173513D01*
X103131818Y-158155520D01*
X103125444Y-158138377D01*
X103118801Y-158122083D01*
X103111889Y-158106640D01*
X103104707Y-158092047D01*
X103097257Y-158078304D01*
X103089538Y-158065411D01*
X103077454Y-158047666D01*
X103064765Y-158031833D01*
X103055969Y-158022341D01*
X103042088Y-158009443D01*
X103027234Y-157997813D01*
X103011408Y-157987452D01*
X102994609Y-157978360D01*
X102976838Y-157970536D01*
X102958094Y-157963981D01*
X102938378Y-157958695D01*
X102917690Y-157954678D01*
X102896029Y-157951929D01*
X102881048Y-157950801D01*
X102865635Y-157950237D01*
X102857766Y-157950167D01*
X102840620Y-157950463D01*
X102823802Y-157951352D01*
X102807312Y-157952833D01*
X102791151Y-157954907D01*
X102775318Y-157957573D01*
X102759814Y-157960832D01*
X102744638Y-157964683D01*
X102729791Y-157969126D01*
X102715272Y-157974162D01*
X102701081Y-157979791D01*
X102691803Y-157983872D01*
X102678127Y-157990519D01*
X102664850Y-157997680D01*
X102651972Y-158005356D01*
X102639493Y-158013548D01*
X102627414Y-158022255D01*
X102615734Y-158031477D01*
X102604453Y-158041214D01*
X102593572Y-158051467D01*
X102583090Y-158062234D01*
X102573007Y-158073517D01*
X102566507Y-158081325D01*
X102557096Y-158093507D01*
X102548097Y-158106145D01*
X102539510Y-158119241D01*
X102531336Y-158132794D01*
X102523574Y-158146804D01*
X102516223Y-158161272D01*
X102509285Y-158176196D01*
X102502759Y-158191578D01*
X102496646Y-158207417D01*
X102490944Y-158223714D01*
X102487372Y-158234832D01*
X102482396Y-158251908D01*
X102477910Y-158269338D01*
X102473913Y-158287122D01*
X102470405Y-158305260D01*
X102467387Y-158323752D01*
X102464858Y-158342599D01*
X102462819Y-158361800D01*
X102461269Y-158381355D01*
X102460208Y-158401264D01*
X102459637Y-158421528D01*
X102459528Y-158435233D01*
X102459795Y-158457679D01*
X102460593Y-158480044D01*
X102461924Y-158502329D01*
X102463787Y-158524535D01*
X102466183Y-158546660D01*
X102469111Y-158568704D01*
X102472572Y-158590669D01*
X102476564Y-158612554D01*
X102481090Y-158634358D01*
X102486147Y-158656082D01*
X102491737Y-158677726D01*
X102497859Y-158699290D01*
X102504514Y-158720774D01*
X102511701Y-158742178D01*
X102519420Y-158763501D01*
X102527672Y-158784745D01*
X102772770Y-158654319D01*
G37*
G36*
X103052851Y-159685456D02*
G01*
X103069325Y-159686018D01*
X103085606Y-159686955D01*
X103101696Y-159688268D01*
X103117595Y-159689955D01*
X103133301Y-159692017D01*
X103148816Y-159694454D01*
X103164139Y-159697267D01*
X103179270Y-159700454D01*
X103194209Y-159704016D01*
X103208957Y-159707953D01*
X103223512Y-159712265D01*
X103237877Y-159716952D01*
X103252049Y-159722013D01*
X103266029Y-159727450D01*
X103279818Y-159733262D01*
X103286612Y-159736320D01*
X103300025Y-159742651D01*
X103313202Y-159749269D01*
X103332529Y-159759732D01*
X103351327Y-159770839D01*
X103369597Y-159782589D01*
X103387340Y-159794984D01*
X103404554Y-159808023D01*
X103421240Y-159821706D01*
X103437398Y-159836033D01*
X103453028Y-159851004D01*
X103468129Y-159866618D01*
X103477834Y-159877369D01*
X103491859Y-159893967D01*
X103505247Y-159911132D01*
X103517997Y-159928863D01*
X103530109Y-159947161D01*
X103537830Y-159959675D01*
X103545268Y-159972441D01*
X103552422Y-159985458D01*
X103559292Y-159998727D01*
X103565880Y-160012248D01*
X103572184Y-160026021D01*
X103578205Y-160040046D01*
X103583942Y-160054323D01*
X103589396Y-160068852D01*
X103594542Y-160083633D01*
X103599356Y-160098579D01*
X103603839Y-160113687D01*
X103607989Y-160128958D01*
X103611807Y-160144393D01*
X103615293Y-160159990D01*
X103618447Y-160175751D01*
X103621270Y-160191675D01*
X103623760Y-160207762D01*
X103625918Y-160224013D01*
X103627744Y-160240426D01*
X103629238Y-160257003D01*
X103630400Y-160273742D01*
X103631230Y-160290645D01*
X103631728Y-160307711D01*
X103631894Y-160324940D01*
X103631728Y-160342447D01*
X103631230Y-160359796D01*
X103630400Y-160376988D01*
X103629238Y-160394023D01*
X103627744Y-160410900D01*
X103625918Y-160427619D01*
X103623760Y-160444182D01*
X103621270Y-160460587D01*
X103618447Y-160476834D01*
X103615293Y-160492924D01*
X103611807Y-160508856D01*
X103607989Y-160524632D01*
X103603839Y-160540249D01*
X103599356Y-160555710D01*
X103594542Y-160571012D01*
X103589396Y-160586158D01*
X103586705Y-160593657D01*
X103581118Y-160608452D01*
X103575257Y-160622975D01*
X103569120Y-160637226D01*
X103562709Y-160651205D01*
X103556022Y-160664912D01*
X103549061Y-160678348D01*
X103541826Y-160691511D01*
X103534315Y-160704402D01*
X103526530Y-160717022D01*
X103518470Y-160729369D01*
X103510135Y-160741445D01*
X103497118Y-160759049D01*
X103483482Y-160776041D01*
X103469228Y-160792421D01*
X103454339Y-160808242D01*
X103438935Y-160823419D01*
X103423015Y-160837952D01*
X103406580Y-160851841D01*
X103389630Y-160865086D01*
X103372165Y-160877687D01*
X103354184Y-160889643D01*
X103335689Y-160900956D01*
X103316678Y-160911625D01*
X103297152Y-160921650D01*
X103283848Y-160927976D01*
X103270343Y-160933965D01*
X103256663Y-160939568D01*
X103242808Y-160944784D01*
X103228779Y-160949614D01*
X103214575Y-160954058D01*
X103200197Y-160958115D01*
X103185644Y-160961786D01*
X103170916Y-160965070D01*
X103156014Y-160967968D01*
X103140937Y-160970480D01*
X103125686Y-160972605D01*
X103110260Y-160974344D01*
X103094660Y-160975696D01*
X103078884Y-160976662D01*
X103062935Y-160977242D01*
X103046810Y-160977435D01*
X103030642Y-160977246D01*
X103014650Y-160976679D01*
X102998837Y-160975735D01*
X102983200Y-160974412D01*
X102967742Y-160972712D01*
X102952460Y-160970634D01*
X102937356Y-160968179D01*
X102922430Y-160965345D01*
X102907681Y-160962134D01*
X102893109Y-160958544D01*
X102878715Y-160954577D01*
X102864498Y-160950232D01*
X102850459Y-160945510D01*
X102836597Y-160940409D01*
X102822913Y-160934931D01*
X102809406Y-160929075D01*
X102796104Y-160922878D01*
X102776586Y-160913014D01*
X102757589Y-160902468D01*
X102739113Y-160891238D01*
X102721160Y-160879327D01*
X102703728Y-160866732D01*
X102686817Y-160853455D01*
X102670429Y-160839495D01*
X102654562Y-160824853D01*
X102639216Y-160809528D01*
X102624392Y-160793520D01*
X102614774Y-160782543D01*
X102600856Y-160765617D01*
X102587550Y-160748137D01*
X102579019Y-160736175D01*
X102570760Y-160723968D01*
X102562773Y-160711515D01*
X102555058Y-160698815D01*
X102547615Y-160685869D01*
X102540443Y-160672677D01*
X102533544Y-160659239D01*
X102526917Y-160645555D01*
X102520561Y-160631624D01*
X102514477Y-160617448D01*
X102508666Y-160603025D01*
X102503126Y-160588356D01*
X102497846Y-160573484D01*
X102492908Y-160558452D01*
X102488310Y-160543259D01*
X102484052Y-160527906D01*
X102480135Y-160512393D01*
X102476559Y-160496719D01*
X102473323Y-160480885D01*
X102470428Y-160464891D01*
X102467873Y-160448737D01*
X102465659Y-160432422D01*
X102463786Y-160415947D01*
X102462253Y-160399312D01*
X102461061Y-160382517D01*
X102460210Y-160365561D01*
X102459699Y-160348445D01*
X102459528Y-160331168D01*
X102793653Y-160331168D01*
X102793729Y-160337465D01*
X102794582Y-160353007D01*
X102796383Y-160368263D01*
X102799133Y-160383232D01*
X102802830Y-160397915D01*
X102807476Y-160412312D01*
X102813070Y-160426423D01*
X102819399Y-160440192D01*
X102826479Y-160453335D01*
X102834311Y-160465852D01*
X102844701Y-160480046D01*
X102856173Y-160493338D01*
X102866559Y-160503726D01*
X102870910Y-160507752D01*
X102882187Y-160517378D01*
X102894036Y-160526378D01*
X102906459Y-160534751D01*
X102919453Y-160542499D01*
X102933020Y-160549621D01*
X102947159Y-160556116D01*
X102952950Y-160558556D01*
X102967601Y-160563967D01*
X102982502Y-160568395D01*
X102997654Y-160571839D01*
X103013056Y-160574298D01*
X103028709Y-160575774D01*
X103044612Y-160576266D01*
X103051271Y-160576187D01*
X103067681Y-160575302D01*
X103083750Y-160573432D01*
X103099480Y-160570579D01*
X103114870Y-160566742D01*
X103129920Y-160561921D01*
X103144630Y-160556116D01*
X103150354Y-160553593D01*
X103164264Y-160546847D01*
X103177602Y-160539475D01*
X103190368Y-160531477D01*
X103202561Y-160522853D01*
X103214182Y-160513602D01*
X103225230Y-160503726D01*
X103227367Y-160501698D01*
X103237603Y-160491185D01*
X103248895Y-160477743D01*
X103257478Y-160465852D01*
X103265309Y-160453335D01*
X103272390Y-160440192D01*
X103278719Y-160426423D01*
X103281026Y-160420813D01*
X103286142Y-160406588D01*
X103290328Y-160392076D01*
X103293584Y-160377279D01*
X103295909Y-160362195D01*
X103297305Y-160346825D01*
X103297770Y-160331168D01*
X103297695Y-160324914D01*
X103296858Y-160309455D01*
X103295091Y-160294246D01*
X103292393Y-160279287D01*
X103288765Y-160264579D01*
X103284207Y-160250121D01*
X103278719Y-160235914D01*
X103276277Y-160230329D01*
X103269648Y-160216795D01*
X103262267Y-160203868D01*
X103254135Y-160191550D01*
X103245251Y-160179840D01*
X103235616Y-160168738D01*
X103225230Y-160158244D01*
X103220879Y-160154263D01*
X103209602Y-160144735D01*
X103197752Y-160135816D01*
X103185330Y-160127505D01*
X103172336Y-160119802D01*
X103158769Y-160112707D01*
X103144630Y-160106221D01*
X103138778Y-160103825D01*
X103123835Y-160098512D01*
X103108445Y-160094165D01*
X103092608Y-160090784D01*
X103076324Y-160088369D01*
X103059593Y-160086920D01*
X103042414Y-160086437D01*
X103036027Y-160086514D01*
X103020272Y-160087384D01*
X103004822Y-160089219D01*
X102989675Y-160092021D01*
X102974833Y-160095788D01*
X102960294Y-160100521D01*
X102946060Y-160106221D01*
X102940469Y-160108742D01*
X102926854Y-160115472D01*
X102913757Y-160122810D01*
X102901180Y-160130756D01*
X102889121Y-160139311D01*
X102877581Y-160148474D01*
X102866559Y-160158244D01*
X102862314Y-160162369D01*
X102852229Y-160173106D01*
X102842894Y-160184451D01*
X102834311Y-160196404D01*
X102826479Y-160208966D01*
X102819399Y-160222136D01*
X102813070Y-160235914D01*
X102810719Y-160241567D01*
X102805504Y-160255874D01*
X102801238Y-160270432D01*
X102797919Y-160285240D01*
X102795549Y-160300299D01*
X102794127Y-160315609D01*
X102793653Y-160331168D01*
X102459528Y-160331168D01*
X102459703Y-160313669D01*
X102460227Y-160296341D01*
X102461100Y-160279185D01*
X102462322Y-160262200D01*
X102463893Y-160245388D01*
X102465814Y-160228747D01*
X102468084Y-160212277D01*
X102470703Y-160195980D01*
X102473671Y-160179854D01*
X102476988Y-160163900D01*
X102480655Y-160148118D01*
X102484670Y-160132507D01*
X102489035Y-160117069D01*
X102493749Y-160101801D01*
X102498812Y-160086706D01*
X102504225Y-160071782D01*
X102507028Y-160064418D01*
X102512833Y-160049878D01*
X102518901Y-160035590D01*
X102525232Y-160021553D01*
X102531827Y-160007769D01*
X102538685Y-159994236D01*
X102545806Y-159980956D01*
X102553190Y-159967927D01*
X102560838Y-159955150D01*
X102568749Y-159942625D01*
X102576924Y-159930352D01*
X102585362Y-159918330D01*
X102598512Y-159900771D01*
X102612255Y-159883777D01*
X102626591Y-159867351D01*
X102636407Y-159856781D01*
X102651533Y-159841473D01*
X102667143Y-159826822D01*
X102683235Y-159812828D01*
X102699810Y-159799491D01*
X102716869Y-159786810D01*
X102734410Y-159774787D01*
X102752435Y-159763420D01*
X102770942Y-159752711D01*
X102789933Y-159742658D01*
X102809406Y-159733262D01*
X102815994Y-159730309D01*
X102835951Y-159722013D01*
X102856197Y-159714561D01*
X102876733Y-159707953D01*
X102897559Y-159702188D01*
X102918674Y-159697267D01*
X102940080Y-159693189D01*
X102961775Y-159689955D01*
X102976400Y-159688268D01*
X102991153Y-159686955D01*
X103006035Y-159686018D01*
X103021046Y-159685456D01*
X103036186Y-159685268D01*
X103052851Y-159685456D01*
G37*
G36*
X102506423Y-161202016D02*
G01*
X102506423Y-161577173D01*
X102643077Y-161577173D01*
X102631459Y-161586799D01*
X102620328Y-161596442D01*
X102604544Y-161610938D01*
X102589854Y-161625473D01*
X102576259Y-161640047D01*
X102563759Y-161654659D01*
X102552354Y-161669310D01*
X102542043Y-161684000D01*
X102532828Y-161698728D01*
X102524707Y-161713495D01*
X102517681Y-161728301D01*
X102515582Y-161733244D01*
X102509755Y-161748386D01*
X102504501Y-161763998D01*
X102499820Y-161780079D01*
X102495713Y-161796631D01*
X102492178Y-161813653D01*
X102489217Y-161831145D01*
X102486829Y-161849107D01*
X102485014Y-161867540D01*
X102483772Y-161886442D01*
X102483103Y-161905815D01*
X102482976Y-161918991D01*
X102483301Y-161939797D01*
X102484277Y-161960035D01*
X102485903Y-161979707D01*
X102488179Y-161998813D01*
X102491106Y-162017351D01*
X102494684Y-162035323D01*
X102498912Y-162052728D01*
X102503790Y-162069567D01*
X102509319Y-162085839D01*
X102515498Y-162101544D01*
X102519979Y-162111699D01*
X102527118Y-162126599D01*
X102534799Y-162141074D01*
X102543021Y-162155124D01*
X102551784Y-162168749D01*
X102561087Y-162181948D01*
X102570932Y-162194723D01*
X102581317Y-162207073D01*
X102592244Y-162218998D01*
X102603711Y-162230497D01*
X102615720Y-162241572D01*
X102624026Y-162248719D01*
X102637873Y-162259710D01*
X102652122Y-162269785D01*
X102666770Y-162278944D01*
X102681820Y-162287187D01*
X102697270Y-162294515D01*
X102713121Y-162300926D01*
X102729373Y-162306421D01*
X102746025Y-162311001D01*
X102763084Y-162314865D01*
X102780738Y-162318214D01*
X102798988Y-162321047D01*
X102817833Y-162323366D01*
X102837273Y-162325169D01*
X102852244Y-162326183D01*
X102867549Y-162326908D01*
X102883190Y-162327342D01*
X102899166Y-162327487D01*
X103585000Y-162327487D01*
X103585000Y-161952330D01*
X103040582Y-161952330D01*
X103025874Y-161952227D01*
X103007095Y-161951769D01*
X102989267Y-161950945D01*
X102972388Y-161949754D01*
X102956460Y-161948197D01*
X102941482Y-161946274D01*
X102924096Y-161943354D01*
X102911256Y-161940607D01*
X102896283Y-161936619D01*
X102882276Y-161931755D01*
X102866742Y-161924761D01*
X102852600Y-161916505D01*
X102839849Y-161906987D01*
X102832121Y-161899940D01*
X102821905Y-161888583D01*
X102813057Y-161876629D01*
X102804619Y-161862238D01*
X102797967Y-161847068D01*
X102796584Y-161843154D01*
X102791935Y-161827286D01*
X102788958Y-161812913D01*
X102786997Y-161798084D01*
X102786052Y-161782799D01*
X102785959Y-161776109D01*
X102786468Y-161758439D01*
X102787994Y-161741561D01*
X102790538Y-161725475D01*
X102794099Y-161710181D01*
X102798678Y-161695679D01*
X102804274Y-161681969D01*
X102813319Y-161664922D01*
X102824173Y-161649283D01*
X102836835Y-161635052D01*
X102843845Y-161628464D01*
X102859089Y-161616443D01*
X102871536Y-161608479D01*
X102884853Y-161601416D01*
X102899039Y-161595255D01*
X102914095Y-161589996D01*
X102930020Y-161585638D01*
X102946814Y-161582182D01*
X102964478Y-161579628D01*
X102983011Y-161577975D01*
X103002414Y-161577223D01*
X103009075Y-161577173D01*
X103585000Y-161577173D01*
X103585000Y-161202016D01*
X102506423Y-161202016D01*
G37*
G36*
X102834685Y-163707948D02*
G01*
X103585000Y-163707948D01*
X103585000Y-163332791D01*
X102834685Y-163332791D01*
X102834685Y-163215554D01*
X102506423Y-163215554D01*
X102506423Y-163332791D01*
X102178161Y-163332791D01*
X102178161Y-163707948D01*
X102506423Y-163707948D01*
X102506423Y-163942421D01*
X102834685Y-163942421D01*
X102834685Y-163707948D01*
G37*
G36*
X101826451Y-164140258D02*
G01*
X101826451Y-164515415D01*
X102643810Y-164515415D01*
X102632148Y-164525040D01*
X102620975Y-164534683D01*
X102605134Y-164549180D01*
X102590393Y-164563715D01*
X102576755Y-164578288D01*
X102564217Y-164592901D01*
X102552781Y-164607552D01*
X102542446Y-164622241D01*
X102533212Y-164636970D01*
X102525079Y-164651737D01*
X102518048Y-164666542D01*
X102515949Y-164671486D01*
X102510056Y-164686627D01*
X102504743Y-164702239D01*
X102500010Y-164718321D01*
X102495856Y-164734873D01*
X102492282Y-164751895D01*
X102489287Y-164769387D01*
X102486872Y-164787349D01*
X102485037Y-164805781D01*
X102483781Y-164824684D01*
X102483105Y-164844056D01*
X102482976Y-164857233D01*
X102483415Y-164882124D01*
X102484733Y-164906240D01*
X102486930Y-164929580D01*
X102490005Y-164952144D01*
X102493960Y-164973932D01*
X102498792Y-164994945D01*
X102504504Y-165015183D01*
X102511094Y-165034644D01*
X102518563Y-165053330D01*
X102526911Y-165071241D01*
X102536137Y-165088376D01*
X102546242Y-165104735D01*
X102557226Y-165120318D01*
X102569089Y-165135126D01*
X102581830Y-165149158D01*
X102595450Y-165162414D01*
X102609817Y-165174925D01*
X102624799Y-165186628D01*
X102640396Y-165197525D01*
X102656610Y-165207614D01*
X102673438Y-165216896D01*
X102690882Y-165225371D01*
X102708941Y-165233039D01*
X102727616Y-165239900D01*
X102746905Y-165245954D01*
X102766811Y-165251200D01*
X102787331Y-165255639D01*
X102808468Y-165259272D01*
X102830219Y-165262097D01*
X102852586Y-165264114D01*
X102875568Y-165265325D01*
X102899166Y-165265729D01*
X103585000Y-165265729D01*
X103585000Y-164890572D01*
X103041681Y-164890572D01*
X103026640Y-164890459D01*
X103007446Y-164889958D01*
X102989236Y-164889057D01*
X102972011Y-164887754D01*
X102955771Y-164886051D01*
X102940515Y-164883947D01*
X102922830Y-164880754D01*
X102909790Y-164877749D01*
X102894563Y-164873445D01*
X102880481Y-164868318D01*
X102865094Y-164861079D01*
X102851355Y-164852656D01*
X102839265Y-164843047D01*
X102832121Y-164835983D01*
X102821731Y-164823103D01*
X102812727Y-164809559D01*
X102805107Y-164795351D01*
X102798873Y-164780479D01*
X102794025Y-164764943D01*
X102790561Y-164748743D01*
X102788484Y-164731879D01*
X102787791Y-164714351D01*
X102788300Y-164696680D01*
X102789826Y-164679802D01*
X102792370Y-164663716D01*
X102795931Y-164648422D01*
X102800510Y-164633920D01*
X102806106Y-164620211D01*
X102815151Y-164603163D01*
X102826004Y-164587524D01*
X102838667Y-164573293D01*
X102845676Y-164566706D01*
X102860835Y-164554684D01*
X102873225Y-164546720D01*
X102886492Y-164539658D01*
X102900634Y-164533497D01*
X102915652Y-164528237D01*
X102931546Y-164523880D01*
X102948316Y-164520424D01*
X102965961Y-164517869D01*
X102984483Y-164516216D01*
X103003880Y-164515465D01*
X103010540Y-164515415D01*
X103585000Y-164515415D01*
X103585000Y-164140258D01*
X101826451Y-164140258D01*
G37*
G36*
X102506423Y-165885617D02*
G01*
X103585000Y-165885617D01*
X103585000Y-165510460D01*
X102506423Y-165510460D01*
X102506423Y-165885617D01*
G37*
G36*
X102084371Y-165487013D02*
G01*
X102068216Y-165487592D01*
X102052446Y-165489331D01*
X102037063Y-165492229D01*
X102022067Y-165496286D01*
X102007456Y-165501503D01*
X102002672Y-165503499D01*
X101988582Y-165510119D01*
X101975161Y-165517616D01*
X101962409Y-165525988D01*
X101950328Y-165535235D01*
X101938916Y-165545359D01*
X101935261Y-165548928D01*
X101924846Y-165560104D01*
X101915306Y-165571923D01*
X101906642Y-165584387D01*
X101898854Y-165597494D01*
X101891941Y-165611246D01*
X101889832Y-165615973D01*
X101884229Y-165630579D01*
X101879786Y-165645545D01*
X101876501Y-165660873D01*
X101874376Y-165676560D01*
X101873410Y-165692609D01*
X101873346Y-165698039D01*
X101873925Y-165714194D01*
X101875664Y-165729964D01*
X101878562Y-165745347D01*
X101882619Y-165760343D01*
X101887836Y-165774954D01*
X101889832Y-165779738D01*
X101896452Y-165793816D01*
X101903948Y-165807198D01*
X101912320Y-165819885D01*
X101921568Y-165831876D01*
X101931692Y-165843172D01*
X101935261Y-165846782D01*
X101946450Y-165857198D01*
X101958308Y-165866738D01*
X101970836Y-165875402D01*
X101984033Y-165883190D01*
X101997901Y-165890102D01*
X102002672Y-165892212D01*
X102017154Y-165897939D01*
X102032021Y-165902481D01*
X102047276Y-165905839D01*
X102062916Y-165908011D01*
X102078943Y-165908999D01*
X102084371Y-165909064D01*
X102100416Y-165908472D01*
X102116125Y-165906694D01*
X102131499Y-165903732D01*
X102146539Y-165899585D01*
X102161244Y-165894252D01*
X102166071Y-165892212D01*
X102180161Y-165885591D01*
X102193582Y-165878095D01*
X102206334Y-165869723D01*
X102218415Y-165860475D01*
X102229827Y-165850352D01*
X102233482Y-165846782D01*
X102243786Y-165835719D01*
X102253265Y-165823959D01*
X102261921Y-165811504D01*
X102269752Y-165798354D01*
X102276758Y-165784508D01*
X102278911Y-165779738D01*
X102284514Y-165765256D01*
X102288957Y-165750389D01*
X102292242Y-165735134D01*
X102294367Y-165719494D01*
X102295333Y-165703467D01*
X102295397Y-165698039D01*
X102294818Y-165681870D01*
X102293079Y-165666062D01*
X102290181Y-165650614D01*
X102286124Y-165635528D01*
X102280907Y-165620802D01*
X102278911Y-165615973D01*
X102272179Y-165602007D01*
X102264623Y-165588685D01*
X102256242Y-165576006D01*
X102247037Y-165563972D01*
X102237008Y-165552582D01*
X102233482Y-165548928D01*
X102222293Y-165538513D01*
X102210435Y-165528973D01*
X102197907Y-165520309D01*
X102184709Y-165512521D01*
X102170842Y-165505609D01*
X102166071Y-165503499D01*
X102151478Y-165497896D01*
X102136550Y-165493453D01*
X102121287Y-165490168D01*
X102105689Y-165488043D01*
X102089757Y-165487077D01*
X102084371Y-165487013D01*
G37*
G36*
X102772770Y-166878464D02*
G01*
X102766071Y-166865154D01*
X102759804Y-166851874D01*
X102751214Y-166832014D01*
X102743597Y-166812225D01*
X102736952Y-166792507D01*
X102731279Y-166772860D01*
X102726579Y-166753283D01*
X102722851Y-166733778D01*
X102720096Y-166714343D01*
X102718313Y-166694979D01*
X102717503Y-166675686D01*
X102717449Y-166669270D01*
X102717977Y-166652950D01*
X102719560Y-166637650D01*
X102722853Y-166620635D01*
X102727666Y-166605089D01*
X102733998Y-166591011D01*
X102739064Y-166582442D01*
X102749222Y-166569594D01*
X102760783Y-166559902D01*
X102775712Y-166552689D01*
X102790278Y-166549759D01*
X102796950Y-166549469D01*
X102812538Y-166550451D01*
X102826917Y-166553977D01*
X102828457Y-166554598D01*
X102840603Y-166563770D01*
X102849473Y-166575807D01*
X102850806Y-166578046D01*
X102857893Y-166592631D01*
X102863371Y-166607526D01*
X102867996Y-166623005D01*
X102870223Y-166631535D01*
X102874120Y-166647991D01*
X102877795Y-166663799D01*
X102881094Y-166678173D01*
X102884607Y-166693638D01*
X102888335Y-166710194D01*
X102891472Y-166724225D01*
X102895699Y-166743875D01*
X102900322Y-166762894D01*
X102905339Y-166781279D01*
X102910752Y-166799032D01*
X102916559Y-166816152D01*
X102922762Y-166832640D01*
X102929359Y-166848495D01*
X102936352Y-166863718D01*
X102943739Y-166878308D01*
X102951521Y-166892266D01*
X102959699Y-166905591D01*
X102968271Y-166918283D01*
X102977238Y-166930343D01*
X102986601Y-166941771D01*
X103001385Y-166957726D01*
X103006510Y-166962728D01*
X103022372Y-166976870D01*
X103039045Y-166989621D01*
X103056530Y-167000982D01*
X103074826Y-167010951D01*
X103093933Y-167019529D01*
X103113852Y-167026716D01*
X103134583Y-167032512D01*
X103156124Y-167036917D01*
X103170936Y-167039081D01*
X103186109Y-167040626D01*
X103201642Y-167041554D01*
X103217536Y-167041863D01*
X103235501Y-167041528D01*
X103253124Y-167040523D01*
X103270405Y-167038849D01*
X103287346Y-167036505D01*
X103303945Y-167033491D01*
X103320203Y-167029807D01*
X103336119Y-167025454D01*
X103351694Y-167020430D01*
X103366928Y-167014737D01*
X103381820Y-167008375D01*
X103391559Y-167003761D01*
X103405838Y-166996356D01*
X103419685Y-166988429D01*
X103433100Y-166979981D01*
X103446084Y-166971011D01*
X103458637Y-166961520D01*
X103470758Y-166951507D01*
X103482448Y-166940972D01*
X103493706Y-166929916D01*
X103504533Y-166918338D01*
X103514928Y-166906238D01*
X103521618Y-166897882D01*
X103531236Y-166884932D01*
X103540440Y-166871499D01*
X103549233Y-166857583D01*
X103557614Y-166843185D01*
X103565582Y-166828303D01*
X103573138Y-166812938D01*
X103580283Y-166797090D01*
X103587015Y-166780759D01*
X103593334Y-166763946D01*
X103599242Y-166746649D01*
X103602951Y-166734849D01*
X103608124Y-166716887D01*
X103612787Y-166698584D01*
X103616942Y-166679939D01*
X103620588Y-166660953D01*
X103623726Y-166641625D01*
X103626354Y-166621956D01*
X103628474Y-166601946D01*
X103630085Y-166581595D01*
X103631188Y-166560902D01*
X103631781Y-166539868D01*
X103631894Y-166525655D01*
X103631413Y-166498202D01*
X103629971Y-166470798D01*
X103627566Y-166443442D01*
X103624200Y-166416135D01*
X103619873Y-166388877D01*
X103614583Y-166361667D01*
X103608332Y-166334506D01*
X103601120Y-166307394D01*
X103592945Y-166280330D01*
X103583809Y-166253315D01*
X103573711Y-166226349D01*
X103562651Y-166199431D01*
X103556761Y-166185990D01*
X103550630Y-166172562D01*
X103544259Y-166159146D01*
X103537647Y-166145741D01*
X103530795Y-166132349D01*
X103523702Y-166118970D01*
X103516369Y-166105602D01*
X103508796Y-166092247D01*
X103237320Y-166230732D01*
X103251028Y-166251273D01*
X103263853Y-166271679D01*
X103275792Y-166291951D01*
X103286848Y-166312088D01*
X103297019Y-166332091D01*
X103306305Y-166351959D01*
X103314707Y-166371692D01*
X103322225Y-166391291D01*
X103328858Y-166410756D01*
X103334607Y-166430086D01*
X103339471Y-166449281D01*
X103343451Y-166468342D01*
X103346546Y-166487269D01*
X103348758Y-166506061D01*
X103350084Y-166524718D01*
X103350526Y-166543241D01*
X103349954Y-166559702D01*
X103348237Y-166575198D01*
X103345374Y-166589727D01*
X103340428Y-166605887D01*
X103333834Y-166620656D01*
X103327079Y-166631901D01*
X103317711Y-166643729D01*
X103305675Y-166654436D01*
X103292446Y-166661811D01*
X103278026Y-166665856D01*
X103266995Y-166666706D01*
X103251917Y-166665933D01*
X103237191Y-166663078D01*
X103231824Y-166661210D01*
X103218452Y-166653059D01*
X103208396Y-166641984D01*
X103206179Y-166638862D01*
X103198170Y-166625076D01*
X103192068Y-166610898D01*
X103186985Y-166596106D01*
X103184563Y-166587937D01*
X103180343Y-166572227D01*
X103176643Y-166557226D01*
X103172864Y-166540808D01*
X103169657Y-166526045D01*
X103166396Y-166510297D01*
X103164413Y-166500376D01*
X103159653Y-166478133D01*
X103154625Y-166456739D01*
X103149327Y-166436195D01*
X103143760Y-166416502D01*
X103137923Y-166397658D01*
X103131818Y-166379665D01*
X103125444Y-166362522D01*
X103118801Y-166346229D01*
X103111889Y-166330785D01*
X103104707Y-166316192D01*
X103097257Y-166302449D01*
X103089538Y-166289557D01*
X103077454Y-166271811D01*
X103064765Y-166255978D01*
X103055969Y-166246486D01*
X103042088Y-166233588D01*
X103027234Y-166221958D01*
X103011408Y-166211597D01*
X102994609Y-166202505D01*
X102976838Y-166194681D01*
X102958094Y-166188127D01*
X102938378Y-166182840D01*
X102917690Y-166178823D01*
X102896029Y-166176074D01*
X102881048Y-166174946D01*
X102865635Y-166174383D01*
X102857766Y-166174312D01*
X102840620Y-166174608D01*
X102823802Y-166175497D01*
X102807312Y-166176978D01*
X102791151Y-166179052D01*
X102775318Y-166181718D01*
X102759814Y-166184977D01*
X102744638Y-166188828D01*
X102729791Y-166193271D01*
X102715272Y-166198308D01*
X102701081Y-166203936D01*
X102691803Y-166208018D01*
X102678127Y-166214664D01*
X102664850Y-166221825D01*
X102651972Y-166229501D01*
X102639493Y-166237693D01*
X102627414Y-166246400D01*
X102615734Y-166255622D01*
X102604453Y-166265359D01*
X102593572Y-166275612D01*
X102583090Y-166286380D01*
X102573007Y-166297662D01*
X102566507Y-166305471D01*
X102557096Y-166317652D01*
X102548097Y-166330290D01*
X102539510Y-166343386D01*
X102531336Y-166356939D01*
X102523574Y-166370949D01*
X102516223Y-166385417D01*
X102509285Y-166400341D01*
X102502759Y-166415723D01*
X102496646Y-166431562D01*
X102490944Y-166447859D01*
X102487372Y-166458977D01*
X102482396Y-166476053D01*
X102477910Y-166493483D01*
X102473913Y-166511267D01*
X102470405Y-166529405D01*
X102467387Y-166547897D01*
X102464858Y-166566744D01*
X102462819Y-166585945D01*
X102461269Y-166605500D01*
X102460208Y-166625409D01*
X102459637Y-166645673D01*
X102459528Y-166659378D01*
X102459795Y-166681824D01*
X102460593Y-166704189D01*
X102461924Y-166726475D01*
X102463787Y-166748680D01*
X102466183Y-166770805D01*
X102469111Y-166792850D01*
X102472572Y-166814814D01*
X102476564Y-166836699D01*
X102481090Y-166858503D01*
X102486147Y-166880227D01*
X102491737Y-166901872D01*
X102497859Y-166923435D01*
X102504514Y-166944919D01*
X102511701Y-166966323D01*
X102519420Y-166987647D01*
X102527672Y-167008890D01*
X102772770Y-166878464D01*
G37*
G36*
X102772770Y-168660460D02*
G01*
X102766071Y-168647149D01*
X102759804Y-168633870D01*
X102751214Y-168614010D01*
X102743597Y-168594221D01*
X102736952Y-168574503D01*
X102731279Y-168554856D01*
X102726579Y-168535279D01*
X102722851Y-168515773D01*
X102720096Y-168496339D01*
X102718313Y-168476975D01*
X102717503Y-168457681D01*
X102717449Y-168451266D01*
X102717977Y-168434946D01*
X102719560Y-168419646D01*
X102722853Y-168402631D01*
X102727666Y-168387085D01*
X102733998Y-168373007D01*
X102739064Y-168364438D01*
X102749222Y-168351590D01*
X102760783Y-168341898D01*
X102775712Y-168334685D01*
X102790278Y-168331755D01*
X102796950Y-168331465D01*
X102812538Y-168332447D01*
X102826917Y-168335973D01*
X102828457Y-168336594D01*
X102840603Y-168345766D01*
X102849473Y-168357803D01*
X102850806Y-168360041D01*
X102857893Y-168374627D01*
X102863371Y-168389522D01*
X102867996Y-168405001D01*
X102870223Y-168413531D01*
X102874120Y-168429987D01*
X102877795Y-168445795D01*
X102881094Y-168460169D01*
X102884607Y-168475634D01*
X102888335Y-168492190D01*
X102891472Y-168506221D01*
X102895699Y-168525871D01*
X102900322Y-168544889D01*
X102905339Y-168563275D01*
X102910752Y-168581028D01*
X102916559Y-168598148D01*
X102922762Y-168614636D01*
X102929359Y-168630491D01*
X102936352Y-168645714D01*
X102943739Y-168660304D01*
X102951521Y-168674262D01*
X102959699Y-168687587D01*
X102968271Y-168700279D01*
X102977238Y-168712339D01*
X102986601Y-168723767D01*
X103001385Y-168739722D01*
X103006510Y-168744724D01*
X103022372Y-168758866D01*
X103039045Y-168771617D01*
X103056530Y-168782977D01*
X103074826Y-168792947D01*
X103093933Y-168801525D01*
X103113852Y-168808712D01*
X103134583Y-168814508D01*
X103156124Y-168818913D01*
X103170936Y-168821076D01*
X103186109Y-168822622D01*
X103201642Y-168823549D01*
X103217536Y-168823859D01*
X103235501Y-168823524D01*
X103253124Y-168822519D01*
X103270405Y-168820845D01*
X103287346Y-168818500D01*
X103303945Y-168815487D01*
X103320203Y-168811803D01*
X103336119Y-168807449D01*
X103351694Y-168802426D01*
X103366928Y-168796733D01*
X103381820Y-168790371D01*
X103391559Y-168785757D01*
X103405838Y-168778352D01*
X103419685Y-168770425D01*
X103433100Y-168761977D01*
X103446084Y-168753007D01*
X103458637Y-168743516D01*
X103470758Y-168733503D01*
X103482448Y-168722968D01*
X103493706Y-168711911D01*
X103504533Y-168700333D01*
X103514928Y-168688234D01*
X103521618Y-168679877D01*
X103531236Y-168666928D01*
X103540440Y-168653495D01*
X103549233Y-168639579D01*
X103557614Y-168625180D01*
X103565582Y-168610299D01*
X103573138Y-168594934D01*
X103580283Y-168579086D01*
X103587015Y-168562755D01*
X103593334Y-168545942D01*
X103599242Y-168528645D01*
X103602951Y-168516845D01*
X103608124Y-168498883D01*
X103612787Y-168480580D01*
X103616942Y-168461935D01*
X103620588Y-168442948D01*
X103623726Y-168423621D01*
X103626354Y-168403952D01*
X103628474Y-168383942D01*
X103630085Y-168363591D01*
X103631188Y-168342898D01*
X103631781Y-168321864D01*
X103631894Y-168307651D01*
X103631413Y-168280198D01*
X103629971Y-168252794D01*
X103627566Y-168225438D01*
X103624200Y-168198131D01*
X103619873Y-168170873D01*
X103614583Y-168143663D01*
X103608332Y-168116502D01*
X103601120Y-168089390D01*
X103592945Y-168062326D01*
X103583809Y-168035311D01*
X103573711Y-168008345D01*
X103562651Y-167981427D01*
X103556761Y-167967986D01*
X103550630Y-167954558D01*
X103544259Y-167941141D01*
X103537647Y-167927737D01*
X103530795Y-167914345D01*
X103523702Y-167900965D01*
X103516369Y-167887598D01*
X103508796Y-167874242D01*
X103237320Y-168012728D01*
X103251028Y-168033269D01*
X103263853Y-168053675D01*
X103275792Y-168073947D01*
X103286848Y-168094084D01*
X103297019Y-168114086D01*
X103306305Y-168133955D01*
X103314707Y-168153688D01*
X103322225Y-168173287D01*
X103328858Y-168192752D01*
X103334607Y-168212082D01*
X103339471Y-168231277D01*
X103343451Y-168250338D01*
X103346546Y-168269265D01*
X103348758Y-168288057D01*
X103350084Y-168306714D01*
X103350526Y-168325237D01*
X103349954Y-168341698D01*
X103348237Y-168357193D01*
X103345374Y-168371723D01*
X103340428Y-168387883D01*
X103333834Y-168402652D01*
X103327079Y-168413897D01*
X103317711Y-168425725D01*
X103305675Y-168436432D01*
X103292446Y-168443807D01*
X103278026Y-168447852D01*
X103266995Y-168448702D01*
X103251917Y-168447929D01*
X103237191Y-168445074D01*
X103231824Y-168443206D01*
X103218452Y-168435054D01*
X103208396Y-168423980D01*
X103206179Y-168420858D01*
X103198170Y-168407072D01*
X103192068Y-168392894D01*
X103186985Y-168378102D01*
X103184563Y-168369933D01*
X103180343Y-168354223D01*
X103176643Y-168339222D01*
X103172864Y-168322804D01*
X103169657Y-168308041D01*
X103166396Y-168292293D01*
X103164413Y-168282372D01*
X103159653Y-168260128D01*
X103154625Y-168238735D01*
X103149327Y-168218191D01*
X103143760Y-168198498D01*
X103137923Y-168179654D01*
X103131818Y-168161661D01*
X103125444Y-168144518D01*
X103118801Y-168128224D01*
X103111889Y-168112781D01*
X103104707Y-168098188D01*
X103097257Y-168084445D01*
X103089538Y-168071552D01*
X103077454Y-168053807D01*
X103064765Y-168037974D01*
X103055969Y-168028482D01*
X103042088Y-168015583D01*
X103027234Y-168003954D01*
X103011408Y-167993593D01*
X102994609Y-167984501D01*
X102976838Y-167976677D01*
X102958094Y-167970122D01*
X102938378Y-167964836D01*
X102917690Y-167960819D01*
X102896029Y-167958070D01*
X102881048Y-167956942D01*
X102865635Y-167956378D01*
X102857766Y-167956308D01*
X102840620Y-167956604D01*
X102823802Y-167957493D01*
X102807312Y-167958974D01*
X102791151Y-167961048D01*
X102775318Y-167963714D01*
X102759814Y-167966973D01*
X102744638Y-167970824D01*
X102729791Y-167975267D01*
X102715272Y-167980303D01*
X102701081Y-167985932D01*
X102691803Y-167990013D01*
X102678127Y-167996660D01*
X102664850Y-168003821D01*
X102651972Y-168011497D01*
X102639493Y-168019689D01*
X102627414Y-168028396D01*
X102615734Y-168037618D01*
X102604453Y-168047355D01*
X102593572Y-168057608D01*
X102583090Y-168068375D01*
X102573007Y-168079658D01*
X102566507Y-168087466D01*
X102557096Y-168099648D01*
X102548097Y-168112286D01*
X102539510Y-168125382D01*
X102531336Y-168138935D01*
X102523574Y-168152945D01*
X102516223Y-168167412D01*
X102509285Y-168182337D01*
X102502759Y-168197719D01*
X102496646Y-168213558D01*
X102490944Y-168229855D01*
X102487372Y-168240973D01*
X102482396Y-168258049D01*
X102477910Y-168275478D01*
X102473913Y-168293263D01*
X102470405Y-168311401D01*
X102467387Y-168329893D01*
X102464858Y-168348740D01*
X102462819Y-168367941D01*
X102461269Y-168387496D01*
X102460208Y-168407405D01*
X102459637Y-168427668D01*
X102459528Y-168441374D01*
X102459795Y-168463820D01*
X102460593Y-168486185D01*
X102461924Y-168508470D01*
X102463787Y-168530676D01*
X102466183Y-168552800D01*
X102469111Y-168574845D01*
X102472572Y-168596810D01*
X102476564Y-168618695D01*
X102481090Y-168640499D01*
X102486147Y-168662223D01*
X102491737Y-168683867D01*
X102497859Y-168705431D01*
X102504514Y-168726915D01*
X102511701Y-168748319D01*
X102519420Y-168769642D01*
X102527672Y-168790886D01*
X102772770Y-168660460D01*
G37*
G36*
X102506423Y-169376336D02*
G01*
X103585000Y-169376336D01*
X103585000Y-169001179D01*
X102506423Y-169001179D01*
X102506423Y-169376336D01*
G37*
G36*
X102084371Y-168977732D02*
G01*
X102068216Y-168978311D01*
X102052446Y-168980050D01*
X102037063Y-168982948D01*
X102022067Y-168987005D01*
X102007456Y-168992222D01*
X102002672Y-168994218D01*
X101988582Y-169000838D01*
X101975161Y-169008334D01*
X101962409Y-169016706D01*
X101950328Y-169025954D01*
X101938916Y-169036078D01*
X101935261Y-169039647D01*
X101924846Y-169050823D01*
X101915306Y-169062642D01*
X101906642Y-169075106D01*
X101898854Y-169088213D01*
X101891941Y-169101965D01*
X101889832Y-169106692D01*
X101884229Y-169121298D01*
X101879786Y-169136264D01*
X101876501Y-169151591D01*
X101874376Y-169167279D01*
X101873410Y-169183328D01*
X101873346Y-169188757D01*
X101873925Y-169204913D01*
X101875664Y-169220683D01*
X101878562Y-169236066D01*
X101882619Y-169251062D01*
X101887836Y-169265672D01*
X101889832Y-169270457D01*
X101896452Y-169284534D01*
X101903948Y-169297917D01*
X101912320Y-169310604D01*
X101921568Y-169322595D01*
X101931692Y-169333891D01*
X101935261Y-169337501D01*
X101946450Y-169347917D01*
X101958308Y-169357457D01*
X101970836Y-169366121D01*
X101984033Y-169373909D01*
X101997901Y-169380821D01*
X102002672Y-169382930D01*
X102017154Y-169388658D01*
X102032021Y-169393200D01*
X102047276Y-169396557D01*
X102062916Y-169398730D01*
X102078943Y-169399717D01*
X102084371Y-169399783D01*
X102100416Y-169399191D01*
X102116125Y-169397413D01*
X102131499Y-169394451D01*
X102146539Y-169390303D01*
X102161244Y-169384971D01*
X102166071Y-169382930D01*
X102180161Y-169376310D01*
X102193582Y-169368814D01*
X102206334Y-169360442D01*
X102218415Y-169351194D01*
X102229827Y-169341070D01*
X102233482Y-169337501D01*
X102243786Y-169326437D01*
X102253265Y-169314678D01*
X102261921Y-169302223D01*
X102269752Y-169289072D01*
X102276758Y-169275226D01*
X102278911Y-169270457D01*
X102284514Y-169255975D01*
X102288957Y-169241107D01*
X102292242Y-169225853D01*
X102294367Y-169210213D01*
X102295333Y-169194186D01*
X102295397Y-169188757D01*
X102294818Y-169172589D01*
X102293079Y-169156781D01*
X102290181Y-169141333D01*
X102286124Y-169126246D01*
X102280907Y-169111520D01*
X102278911Y-169106692D01*
X102272179Y-169092726D01*
X102264623Y-169079403D01*
X102256242Y-169066725D01*
X102247037Y-169054691D01*
X102237008Y-169043301D01*
X102233482Y-169039647D01*
X102222293Y-169029231D01*
X102210435Y-169019692D01*
X102197907Y-169011028D01*
X102184709Y-169003240D01*
X102170842Y-168996327D01*
X102166071Y-168994218D01*
X102151478Y-168988615D01*
X102136550Y-168984172D01*
X102121287Y-168980887D01*
X102105689Y-168978762D01*
X102089757Y-168977796D01*
X102084371Y-168977732D01*
G37*
G36*
X103043079Y-169618295D02*
G01*
X103058265Y-169618772D01*
X103073316Y-169619566D01*
X103088232Y-169620678D01*
X103103014Y-169622108D01*
X103117662Y-169623855D01*
X103132175Y-169625920D01*
X103153692Y-169629613D01*
X103174906Y-169634022D01*
X103195818Y-169639145D01*
X103216427Y-169644982D01*
X103236733Y-169651535D01*
X103256737Y-169658803D01*
X103269866Y-169664012D01*
X103289162Y-169672298D01*
X103307982Y-169681151D01*
X103326326Y-169690570D01*
X103344192Y-169700557D01*
X103361582Y-169711110D01*
X103378496Y-169722230D01*
X103394933Y-169733916D01*
X103410893Y-169746169D01*
X103426377Y-169758989D01*
X103441385Y-169772376D01*
X103451052Y-169781631D01*
X103465053Y-169795873D01*
X103478456Y-169810546D01*
X103491260Y-169825651D01*
X103503465Y-169841188D01*
X103515071Y-169857156D01*
X103526078Y-169873555D01*
X103536486Y-169890386D01*
X103546295Y-169907648D01*
X103555505Y-169925342D01*
X103564117Y-169943468D01*
X103569485Y-169955770D01*
X103576888Y-169974501D01*
X103583511Y-169993568D01*
X103589355Y-170012970D01*
X103594420Y-170032706D01*
X103598706Y-170052777D01*
X103602213Y-170073184D01*
X103604940Y-170093925D01*
X103606888Y-170115001D01*
X103608057Y-170136411D01*
X103608447Y-170158157D01*
X103607861Y-170183651D01*
X103606106Y-170208475D01*
X103603179Y-170232629D01*
X103599082Y-170256114D01*
X103593814Y-170278929D01*
X103587375Y-170301074D01*
X103579766Y-170322549D01*
X103570986Y-170343354D01*
X103561036Y-170363490D01*
X103549914Y-170382956D01*
X103537623Y-170401752D01*
X103524160Y-170419879D01*
X103509527Y-170437335D01*
X103493723Y-170454122D01*
X103476749Y-170470239D01*
X103458604Y-170485687D01*
X103585000Y-170485687D01*
X103585000Y-170860844D01*
X101826451Y-170860844D01*
X101826451Y-170485687D01*
X102597281Y-170485687D01*
X102579891Y-170468979D01*
X102563622Y-170451735D01*
X102548475Y-170433957D01*
X102534450Y-170415643D01*
X102521547Y-170396793D01*
X102509766Y-170377409D01*
X102499107Y-170357489D01*
X102489570Y-170337035D01*
X102481155Y-170316044D01*
X102473862Y-170294519D01*
X102467692Y-170272459D01*
X102464664Y-170258907D01*
X102787791Y-170258907D01*
X102787865Y-170265067D01*
X102788702Y-170280265D01*
X102790470Y-170295177D01*
X102793168Y-170309803D01*
X102796795Y-170324143D01*
X102801353Y-170338197D01*
X102806842Y-170351964D01*
X102810474Y-170360101D01*
X102817100Y-170373190D01*
X102825996Y-170388118D01*
X102835922Y-170402196D01*
X102846879Y-170415424D01*
X102858866Y-170427801D01*
X102869570Y-170437458D01*
X102883171Y-170448243D01*
X102897597Y-170458152D01*
X102910248Y-170465740D01*
X102923472Y-170472720D01*
X102937267Y-170479092D01*
X102942876Y-170481444D01*
X102957085Y-170486658D01*
X102971563Y-170490925D01*
X102986308Y-170494243D01*
X103001323Y-170496613D01*
X103016605Y-170498036D01*
X103032156Y-170498510D01*
X103038405Y-170498434D01*
X103053817Y-170497580D01*
X103068924Y-170495779D01*
X103083727Y-170493030D01*
X103098226Y-170489332D01*
X103112421Y-170484686D01*
X103126311Y-170479092D01*
X103134461Y-170475342D01*
X103147629Y-170468605D01*
X103162746Y-170459718D01*
X103177116Y-170449955D01*
X103190739Y-170439316D01*
X103203614Y-170427801D01*
X103209737Y-170421719D01*
X103221208Y-170408916D01*
X103231650Y-170395263D01*
X103241061Y-170380760D01*
X103249441Y-170365407D01*
X103255638Y-170351964D01*
X103257901Y-170346491D01*
X103262918Y-170332610D01*
X103267024Y-170318442D01*
X103270217Y-170303987D01*
X103272498Y-170289247D01*
X103273866Y-170274220D01*
X103274323Y-170258907D01*
X103274250Y-170252568D01*
X103273429Y-170236943D01*
X103271695Y-170221641D01*
X103269049Y-170206661D01*
X103265491Y-170192003D01*
X103261021Y-170177667D01*
X103255638Y-170163653D01*
X103252006Y-170155516D01*
X103245380Y-170142426D01*
X103236484Y-170127499D01*
X103226558Y-170113421D01*
X103215601Y-170100193D01*
X103203614Y-170087815D01*
X103192910Y-170078282D01*
X103179308Y-170067669D01*
X103164883Y-170057958D01*
X103152232Y-170050553D01*
X103139008Y-170043775D01*
X103125212Y-170037623D01*
X103119552Y-170035405D01*
X103105164Y-170030486D01*
X103090436Y-170026461D01*
X103075369Y-170023330D01*
X103059961Y-170021094D01*
X103044213Y-170019752D01*
X103028126Y-170019305D01*
X103012523Y-170019779D01*
X102997314Y-170021201D01*
X102982498Y-170023572D01*
X102968076Y-170026890D01*
X102951289Y-170032124D01*
X102935069Y-170038722D01*
X102929748Y-170041198D01*
X102914232Y-170049210D01*
X102899386Y-170058097D01*
X102885209Y-170067860D01*
X102871703Y-170078499D01*
X102858866Y-170090013D01*
X102852743Y-170096093D01*
X102841271Y-170108870D01*
X102830830Y-170122471D01*
X102821419Y-170136897D01*
X102813038Y-170152147D01*
X102806842Y-170165484D01*
X102804535Y-170171001D01*
X102799419Y-170184982D01*
X102795233Y-170199230D01*
X102791977Y-170213747D01*
X102789651Y-170228532D01*
X102788256Y-170243586D01*
X102787791Y-170258907D01*
X102464664Y-170258907D01*
X102462643Y-170249863D01*
X102458716Y-170226732D01*
X102455911Y-170203065D01*
X102454228Y-170178864D01*
X102453667Y-170154127D01*
X102453844Y-170139322D01*
X102454776Y-170117410D01*
X102456506Y-170095852D01*
X102459035Y-170074649D01*
X102462362Y-170053799D01*
X102466488Y-170033304D01*
X102471412Y-170013163D01*
X102477135Y-169993376D01*
X102483657Y-169973943D01*
X102490977Y-169954865D01*
X102499096Y-169936140D01*
X102504905Y-169923884D01*
X102514106Y-169905908D01*
X102523894Y-169888422D01*
X102534268Y-169871424D01*
X102545228Y-169854916D01*
X102556773Y-169838898D01*
X102568905Y-169823369D01*
X102581623Y-169808329D01*
X102594927Y-169793779D01*
X102608817Y-169779719D01*
X102623293Y-169766147D01*
X102633197Y-169757433D01*
X102648438Y-169744829D01*
X102664143Y-169732785D01*
X102680312Y-169721302D01*
X102696944Y-169710378D01*
X102714040Y-169700015D01*
X102731600Y-169690213D01*
X102749623Y-169680970D01*
X102768110Y-169672288D01*
X102787061Y-169664166D01*
X102806475Y-169656605D01*
X102819619Y-169651946D01*
X102839505Y-169645522D01*
X102859598Y-169639775D01*
X102879897Y-169634703D01*
X102900402Y-169630308D01*
X102921113Y-169626589D01*
X102942030Y-169623546D01*
X102963153Y-169621179D01*
X102984483Y-169619489D01*
X103006018Y-169618474D01*
X103027759Y-169618136D01*
X103043079Y-169618295D01*
G37*
G36*
X103067228Y-171089627D02*
G01*
X103083418Y-171090142D01*
X103099411Y-171091001D01*
X103115206Y-171092203D01*
X103130804Y-171093749D01*
X103146204Y-171095638D01*
X103161407Y-171097870D01*
X103176412Y-171100446D01*
X103191219Y-171103366D01*
X103205830Y-171106629D01*
X103220242Y-171110235D01*
X103234458Y-171114185D01*
X103248475Y-171118478D01*
X103269132Y-171125562D01*
X103289344Y-171133419D01*
X103302508Y-171139059D01*
X103321821Y-171148061D01*
X103340612Y-171157713D01*
X103358881Y-171168016D01*
X103376628Y-171178970D01*
X103393854Y-171190574D01*
X103410559Y-171202828D01*
X103426741Y-171215732D01*
X103442402Y-171229288D01*
X103457542Y-171243493D01*
X103472159Y-171258349D01*
X103481593Y-171268596D01*
X103495229Y-171284438D01*
X103508246Y-171300847D01*
X103520645Y-171317823D01*
X103532426Y-171335366D01*
X103543589Y-171353475D01*
X103554133Y-171372151D01*
X103564059Y-171391394D01*
X103573367Y-171411203D01*
X103579229Y-171424724D01*
X103584816Y-171438497D01*
X103590129Y-171452522D01*
X103595186Y-171466806D01*
X103599917Y-171481265D01*
X103604322Y-171495898D01*
X103608401Y-171510705D01*
X103612153Y-171525688D01*
X103615579Y-171540845D01*
X103618679Y-171556176D01*
X103621453Y-171571682D01*
X103623900Y-171587363D01*
X103626021Y-171603218D01*
X103627815Y-171619248D01*
X103629284Y-171635452D01*
X103630426Y-171651831D01*
X103631242Y-171668385D01*
X103631731Y-171685113D01*
X103631894Y-171702016D01*
X103631525Y-171729533D01*
X103630419Y-171756397D01*
X103628574Y-171782607D01*
X103625992Y-171808165D01*
X103622672Y-171833068D01*
X103618615Y-171857319D01*
X103613820Y-171880916D01*
X103608287Y-171903860D01*
X103602016Y-171926151D01*
X103595007Y-171947788D01*
X103587261Y-171968772D01*
X103578777Y-171989103D01*
X103569555Y-172008780D01*
X103559596Y-172027804D01*
X103548899Y-172046175D01*
X103537464Y-172063893D01*
X103525291Y-172080957D01*
X103512381Y-172097368D01*
X103498733Y-172113125D01*
X103484347Y-172128230D01*
X103469223Y-172142681D01*
X103453362Y-172156478D01*
X103436763Y-172169623D01*
X103419426Y-172182114D01*
X103401351Y-172193952D01*
X103382539Y-172205136D01*
X103362989Y-172215667D01*
X103342701Y-172225545D01*
X103321676Y-172234770D01*
X103299912Y-172243341D01*
X103277411Y-172251259D01*
X103254173Y-172258524D01*
X103254173Y-171887030D01*
X103260101Y-171882986D01*
X103276755Y-171870132D01*
X103291717Y-171856195D01*
X103304984Y-171841177D01*
X103316558Y-171825077D01*
X103326438Y-171807896D01*
X103334624Y-171789632D01*
X103341117Y-171770286D01*
X103345916Y-171749858D01*
X103349021Y-171728349D01*
X103350150Y-171713408D01*
X103350526Y-171697986D01*
X103349610Y-171669726D01*
X103346863Y-171643289D01*
X103342283Y-171618676D01*
X103335872Y-171595885D01*
X103327629Y-171574918D01*
X103317554Y-171555774D01*
X103305647Y-171538453D01*
X103291908Y-171522956D01*
X103276338Y-171509281D01*
X103258935Y-171497430D01*
X103239701Y-171487403D01*
X103218635Y-171479198D01*
X103195737Y-171472817D01*
X103171008Y-171468259D01*
X103144446Y-171465524D01*
X103116053Y-171464612D01*
X103116053Y-172273545D01*
X103075020Y-172273545D01*
X103057182Y-172273389D01*
X103039569Y-172272921D01*
X103022182Y-172272141D01*
X103005022Y-172271049D01*
X102988088Y-172269645D01*
X102971379Y-172267929D01*
X102954897Y-172265901D01*
X102938641Y-172263561D01*
X102922611Y-172260909D01*
X102906808Y-172257945D01*
X102891230Y-172254670D01*
X102875879Y-172251082D01*
X102860753Y-172247182D01*
X102845854Y-172242970D01*
X102831181Y-172238447D01*
X102816734Y-172233611D01*
X102802494Y-172228479D01*
X102788535Y-172223066D01*
X102774856Y-172217373D01*
X102761458Y-172211400D01*
X102741887Y-172201914D01*
X102722947Y-172191797D01*
X102704638Y-172181048D01*
X102686961Y-172169669D01*
X102669914Y-172157658D01*
X102653498Y-172145016D01*
X102637714Y-172131744D01*
X102622561Y-172117840D01*
X102612770Y-172108274D01*
X102598638Y-172093432D01*
X102585169Y-172077998D01*
X102572363Y-172061971D01*
X102560220Y-172045351D01*
X102548741Y-172028139D01*
X102537925Y-172010335D01*
X102527772Y-171991938D01*
X102518283Y-171972948D01*
X102509457Y-171953366D01*
X102501294Y-171933192D01*
X102496236Y-171919439D01*
X102491505Y-171905474D01*
X102487100Y-171891298D01*
X102483022Y-171876909D01*
X102479269Y-171862309D01*
X102475843Y-171847497D01*
X102472743Y-171832473D01*
X102469970Y-171817238D01*
X102467523Y-171801790D01*
X102465402Y-171786131D01*
X102463607Y-171770260D01*
X102462139Y-171754177D01*
X102460997Y-171737883D01*
X102460181Y-171721376D01*
X102459692Y-171704658D01*
X102459567Y-171691758D01*
X102717449Y-171691758D01*
X102717903Y-171707469D01*
X102719265Y-171722730D01*
X102721535Y-171737540D01*
X102724713Y-171751899D01*
X102730363Y-171770343D01*
X102737628Y-171787986D01*
X102746506Y-171804827D01*
X102756999Y-171820867D01*
X102769106Y-171836106D01*
X102775648Y-171843368D01*
X102789512Y-171856958D01*
X102804419Y-171869300D01*
X102820367Y-171880394D01*
X102833012Y-171887896D01*
X102846243Y-171894695D01*
X102860060Y-171900793D01*
X102874463Y-171906188D01*
X102889452Y-171910882D01*
X102905027Y-171914874D01*
X102905027Y-171475237D01*
X102899480Y-171476193D01*
X102883309Y-171479553D01*
X102867846Y-171483647D01*
X102853092Y-171488475D01*
X102839047Y-171494037D01*
X102825710Y-171500333D01*
X102809029Y-171509870D01*
X102793607Y-171520712D01*
X102779445Y-171532859D01*
X102766542Y-171546311D01*
X102755036Y-171560926D01*
X102745064Y-171576559D01*
X102736626Y-171593212D01*
X102729722Y-171610883D01*
X102724353Y-171629573D01*
X102721332Y-171644260D01*
X102719175Y-171659519D01*
X102717880Y-171675352D01*
X102717449Y-171691758D01*
X102459567Y-171691758D01*
X102459528Y-171687728D01*
X102459690Y-171670528D01*
X102460175Y-171653547D01*
X102460984Y-171636788D01*
X102462116Y-171620248D01*
X102463571Y-171603929D01*
X102465350Y-171587831D01*
X102467453Y-171571953D01*
X102469878Y-171556295D01*
X102472627Y-171540857D01*
X102475700Y-171525640D01*
X102479096Y-171510644D01*
X102482815Y-171495868D01*
X102486858Y-171481312D01*
X102491225Y-171466976D01*
X102495914Y-171452861D01*
X102500928Y-171438967D01*
X102506241Y-171425310D01*
X102514732Y-171405302D01*
X102523848Y-171385867D01*
X102533589Y-171367005D01*
X102543954Y-171348717D01*
X102554944Y-171331001D01*
X102566558Y-171313859D01*
X102578798Y-171297290D01*
X102591661Y-171281294D01*
X102605150Y-171265871D01*
X102619263Y-171251022D01*
X102628963Y-171241452D01*
X102643996Y-171227618D01*
X102659609Y-171214408D01*
X102675801Y-171201823D01*
X102692573Y-171189863D01*
X102709925Y-171178528D01*
X102727856Y-171167817D01*
X102746367Y-171157731D01*
X102765457Y-171148270D01*
X102785127Y-171139433D01*
X102805376Y-171131221D01*
X102819129Y-171126163D01*
X102833094Y-171121432D01*
X102847271Y-171117027D01*
X102861659Y-171112948D01*
X102876259Y-171109196D01*
X102891071Y-171105770D01*
X102906095Y-171102670D01*
X102921331Y-171099897D01*
X102936778Y-171097449D01*
X102952437Y-171095328D01*
X102968308Y-171093534D01*
X102984391Y-171092066D01*
X103000686Y-171090924D01*
X103017192Y-171090108D01*
X103033910Y-171089618D01*
X103050840Y-171089455D01*
X103067228Y-171089627D01*
G37*
G36*
X103386064Y-172471381D02*
G01*
X103370293Y-172471837D01*
X103354808Y-172473206D01*
X103339610Y-172475487D01*
X103324698Y-172478680D01*
X103310072Y-172482785D01*
X103295732Y-172487803D01*
X103290076Y-172490066D01*
X103276271Y-172496377D01*
X103263021Y-172503404D01*
X103250325Y-172511146D01*
X103238184Y-172519604D01*
X103226598Y-172528777D01*
X103215565Y-172538666D01*
X103211308Y-172542822D01*
X103201036Y-172553632D01*
X103191516Y-172564997D01*
X103182747Y-172576917D01*
X103174729Y-172589391D01*
X103167462Y-172602419D01*
X103160947Y-172616002D01*
X103158551Y-172621591D01*
X103153063Y-172635912D01*
X103148505Y-172650485D01*
X103144877Y-172665307D01*
X103142180Y-172680381D01*
X103140412Y-172695704D01*
X103139575Y-172711278D01*
X103139501Y-172717578D01*
X103139966Y-172733243D01*
X103141361Y-172748640D01*
X103143687Y-172763769D01*
X103146942Y-172778629D01*
X103151128Y-172793221D01*
X103156245Y-172807545D01*
X103158551Y-172813199D01*
X103164766Y-172827004D01*
X103171732Y-172840254D01*
X103179449Y-172852950D01*
X103187918Y-172865091D01*
X103197138Y-172876678D01*
X103207109Y-172887710D01*
X103211308Y-172891967D01*
X103222118Y-172902239D01*
X103233483Y-172911760D01*
X103245402Y-172920529D01*
X103257876Y-172928547D01*
X103270905Y-172935813D01*
X103284488Y-172942328D01*
X103290076Y-172944724D01*
X103304301Y-172950212D01*
X103318813Y-172954770D01*
X103333611Y-172958398D01*
X103348695Y-172961096D01*
X103364065Y-172962863D01*
X103379721Y-172963700D01*
X103386064Y-172963775D01*
X103401632Y-172963310D01*
X103416969Y-172961914D01*
X103432072Y-172959589D01*
X103446943Y-172956333D01*
X103461582Y-172952147D01*
X103475988Y-172947031D01*
X103481685Y-172944724D01*
X103495490Y-172938509D01*
X103508740Y-172931543D01*
X103521436Y-172923826D01*
X103533577Y-172915357D01*
X103545163Y-172906138D01*
X103556196Y-172896166D01*
X103560453Y-172891967D01*
X103570619Y-172881157D01*
X103580052Y-172869792D01*
X103588752Y-172857873D01*
X103596717Y-172845399D01*
X103603950Y-172832371D01*
X103610449Y-172818788D01*
X103612843Y-172813199D01*
X103618331Y-172798983D01*
X103622890Y-172784498D01*
X103626517Y-172769745D01*
X103629215Y-172754724D01*
X103630983Y-172739434D01*
X103631820Y-172723876D01*
X103631894Y-172717578D01*
X103631429Y-172701904D01*
X103630034Y-172686480D01*
X103627708Y-172671307D01*
X103624452Y-172656384D01*
X103620266Y-172641711D01*
X103615150Y-172627289D01*
X103612843Y-172621591D01*
X103606638Y-172607786D01*
X103599698Y-172594535D01*
X103592026Y-172581840D01*
X103583620Y-172569699D01*
X103574480Y-172558112D01*
X103564608Y-172547080D01*
X103560453Y-172542822D01*
X103549643Y-172532647D01*
X103538278Y-172523187D01*
X103526359Y-172514443D01*
X103513885Y-172506415D01*
X103500856Y-172499102D01*
X103487273Y-172492504D01*
X103481685Y-172490066D01*
X103467372Y-172484683D01*
X103452826Y-172480213D01*
X103438048Y-172476655D01*
X103423038Y-172474009D01*
X103407795Y-172472275D01*
X103392319Y-172471454D01*
X103386064Y-172471381D01*
G37*
D10*
X237879104Y-120195714D02*
X237879104Y-120671904D01*
X238164819Y-120100476D02*
X237164819Y-120433809D01*
X237164819Y-120433809D02*
X238164819Y-120767142D01*
X238164819Y-121624285D02*
X238164819Y-121052857D01*
X238164819Y-121338571D02*
X237164819Y-121338571D01*
X237164819Y-121338571D02*
X237307676Y-121243333D01*
X237307676Y-121243333D02*
X237402914Y-121148095D01*
X237402914Y-121148095D02*
X237450533Y-121052857D01*
X124144819Y-112869971D02*
X123668628Y-112536638D01*
X124144819Y-112298543D02*
X123144819Y-112298543D01*
X123144819Y-112298543D02*
X123144819Y-112679495D01*
X123144819Y-112679495D02*
X123192438Y-112774733D01*
X123192438Y-112774733D02*
X123240057Y-112822352D01*
X123240057Y-112822352D02*
X123335295Y-112869971D01*
X123335295Y-112869971D02*
X123478152Y-112869971D01*
X123478152Y-112869971D02*
X123573390Y-112822352D01*
X123573390Y-112822352D02*
X123621009Y-112774733D01*
X123621009Y-112774733D02*
X123668628Y-112679495D01*
X123668628Y-112679495D02*
X123668628Y-112298543D01*
X123621009Y-113298543D02*
X123621009Y-113631876D01*
X124144819Y-113774733D02*
X124144819Y-113298543D01*
X124144819Y-113298543D02*
X123144819Y-113298543D01*
X123144819Y-113298543D02*
X123144819Y-113774733D01*
X124144819Y-114203305D02*
X123144819Y-114203305D01*
X123144819Y-114203305D02*
X123144819Y-114441400D01*
X123144819Y-114441400D02*
X123192438Y-114584257D01*
X123192438Y-114584257D02*
X123287676Y-114679495D01*
X123287676Y-114679495D02*
X123382914Y-114727114D01*
X123382914Y-114727114D02*
X123573390Y-114774733D01*
X123573390Y-114774733D02*
X123716247Y-114774733D01*
X123716247Y-114774733D02*
X123906723Y-114727114D01*
X123906723Y-114727114D02*
X124001961Y-114679495D01*
X124001961Y-114679495D02*
X124097200Y-114584257D01*
X124097200Y-114584257D02*
X124144819Y-114441400D01*
X124144819Y-114441400D02*
X124144819Y-114203305D01*
X124097200Y-115917591D02*
X124144819Y-116060448D01*
X124144819Y-116060448D02*
X124144819Y-116298543D01*
X124144819Y-116298543D02*
X124097200Y-116393781D01*
X124097200Y-116393781D02*
X124049580Y-116441400D01*
X124049580Y-116441400D02*
X123954342Y-116489019D01*
X123954342Y-116489019D02*
X123859104Y-116489019D01*
X123859104Y-116489019D02*
X123763866Y-116441400D01*
X123763866Y-116441400D02*
X123716247Y-116393781D01*
X123716247Y-116393781D02*
X123668628Y-116298543D01*
X123668628Y-116298543D02*
X123621009Y-116108067D01*
X123621009Y-116108067D02*
X123573390Y-116012829D01*
X123573390Y-116012829D02*
X123525771Y-115965210D01*
X123525771Y-115965210D02*
X123430533Y-115917591D01*
X123430533Y-115917591D02*
X123335295Y-115917591D01*
X123335295Y-115917591D02*
X123240057Y-115965210D01*
X123240057Y-115965210D02*
X123192438Y-116012829D01*
X123192438Y-116012829D02*
X123144819Y-116108067D01*
X123144819Y-116108067D02*
X123144819Y-116346162D01*
X123144819Y-116346162D02*
X123192438Y-116489019D01*
X123144819Y-116774734D02*
X123144819Y-117346162D01*
X124144819Y-117060448D02*
X123144819Y-117060448D01*
X124144819Y-118250924D02*
X123668628Y-117917591D01*
X124144819Y-117679496D02*
X123144819Y-117679496D01*
X123144819Y-117679496D02*
X123144819Y-118060448D01*
X123144819Y-118060448D02*
X123192438Y-118155686D01*
X123192438Y-118155686D02*
X123240057Y-118203305D01*
X123240057Y-118203305D02*
X123335295Y-118250924D01*
X123335295Y-118250924D02*
X123478152Y-118250924D01*
X123478152Y-118250924D02*
X123573390Y-118203305D01*
X123573390Y-118203305D02*
X123621009Y-118155686D01*
X123621009Y-118155686D02*
X123668628Y-118060448D01*
X123668628Y-118060448D02*
X123668628Y-117679496D01*
X124144819Y-118679496D02*
X123144819Y-118679496D01*
X124144819Y-119155686D02*
X123144819Y-119155686D01*
X123144819Y-119155686D02*
X123144819Y-119536638D01*
X123144819Y-119536638D02*
X123192438Y-119631876D01*
X123192438Y-119631876D02*
X123240057Y-119679495D01*
X123240057Y-119679495D02*
X123335295Y-119727114D01*
X123335295Y-119727114D02*
X123478152Y-119727114D01*
X123478152Y-119727114D02*
X123573390Y-119679495D01*
X123573390Y-119679495D02*
X123621009Y-119631876D01*
X123621009Y-119631876D02*
X123668628Y-119536638D01*
X123668628Y-119536638D02*
X123668628Y-119155686D01*
X123621009Y-120155686D02*
X123621009Y-120489019D01*
X124144819Y-120631876D02*
X124144819Y-120155686D01*
X124144819Y-120155686D02*
X123144819Y-120155686D01*
X123144819Y-120155686D02*
X123144819Y-120631876D01*
D12*
%TO.C,S4*%
X160956800Y-210316400D02*
G75*
G03*
X160956800Y-210316400I-1758000J0D01*
G01*
X160956800Y-214837600D02*
G75*
G03*
X160956800Y-214837600I-1758000J0D01*
G01*
X167459200Y-210316400D02*
G75*
G03*
X167459200Y-210316400I-1758000J0D01*
G01*
X167459200Y-214837600D02*
G75*
G03*
X167459200Y-214837600I-1758000J0D01*
G01*
%TO.C,S7*%
X211956800Y-210316400D02*
G75*
G03*
X211956800Y-210316400I-1758000J0D01*
G01*
X211956800Y-214837600D02*
G75*
G03*
X211956800Y-214837600I-1758000J0D01*
G01*
X218459200Y-210316400D02*
G75*
G03*
X218459200Y-210316400I-1758000J0D01*
G01*
X218459200Y-214837600D02*
G75*
G03*
X218459200Y-214837600I-1758000J0D01*
G01*
%TO.C,S1*%
X109956800Y-210316400D02*
G75*
G03*
X109956800Y-210316400I-1758000J0D01*
G01*
X109956800Y-214837600D02*
G75*
G03*
X109956800Y-214837600I-1758000J0D01*
G01*
X116459200Y-210316400D02*
G75*
G03*
X116459200Y-210316400I-1758000J0D01*
G01*
X116459200Y-214837600D02*
G75*
G03*
X116459200Y-214837600I-1758000J0D01*
G01*
%TO.C,S5*%
X177956800Y-210316400D02*
G75*
G03*
X177956800Y-210316400I-1758000J0D01*
G01*
X177956800Y-214837600D02*
G75*
G03*
X177956800Y-214837600I-1758000J0D01*
G01*
X184459200Y-210316400D02*
G75*
G03*
X184459200Y-210316400I-1758000J0D01*
G01*
X184459200Y-214837600D02*
G75*
G03*
X184459200Y-214837600I-1758000J0D01*
G01*
%TO.C,S6*%
X194956800Y-210316400D02*
G75*
G03*
X194956800Y-210316400I-1758000J0D01*
G01*
X194956800Y-214837600D02*
G75*
G03*
X194956800Y-214837600I-1758000J0D01*
G01*
X201459200Y-210316400D02*
G75*
G03*
X201459200Y-210316400I-1758000J0D01*
G01*
X201459200Y-214837600D02*
G75*
G03*
X201459200Y-214837600I-1758000J0D01*
G01*
%TO.C,S3*%
X143956800Y-210316400D02*
G75*
G03*
X143956800Y-210316400I-1758000J0D01*
G01*
X143956800Y-214837600D02*
G75*
G03*
X143956800Y-214837600I-1758000J0D01*
G01*
X150459200Y-210316400D02*
G75*
G03*
X150459200Y-210316400I-1758000J0D01*
G01*
X150459200Y-214837600D02*
G75*
G03*
X150459200Y-214837600I-1758000J0D01*
G01*
%TO.C,S8*%
X228956800Y-210316400D02*
G75*
G03*
X228956800Y-210316400I-1758000J0D01*
G01*
X228956800Y-214837600D02*
G75*
G03*
X228956800Y-214837600I-1758000J0D01*
G01*
X235459200Y-210316400D02*
G75*
G03*
X235459200Y-210316400I-1758000J0D01*
G01*
X235459200Y-214837600D02*
G75*
G03*
X235459200Y-214837600I-1758000J0D01*
G01*
%TO.C,S2*%
X126956800Y-210316400D02*
G75*
G03*
X126956800Y-210316400I-1758000J0D01*
G01*
X126956800Y-214837600D02*
G75*
G03*
X126956800Y-214837600I-1758000J0D01*
G01*
X133459200Y-210316400D02*
G75*
G03*
X133459200Y-210316400I-1758000J0D01*
G01*
X133459200Y-214837600D02*
G75*
G03*
X133459200Y-214837600I-1758000J0D01*
G01*
D13*
%TO.C,A1*%
X238740000Y-130090000D02*
X236340000Y-130090000D01*
X187440000Y-129790000D02*
X238440000Y-129790000D01*
X238440000Y-129790000D02*
X238440000Y-111990000D01*
X238740000Y-127790000D02*
X238740000Y-130090000D01*
X238440000Y-127310000D02*
X187440000Y-127310000D01*
X238440000Y-124890000D02*
X239640000Y-124890000D01*
X239640000Y-124890000D02*
X239640000Y-116890000D01*
X239640000Y-116890000D02*
X238440000Y-116890000D01*
X238440000Y-114510000D02*
X187440000Y-114510000D01*
X187440000Y-111990000D02*
X187440000Y-129790000D01*
X238440000Y-111990000D02*
X187440000Y-111990000D01*
D14*
%TO.C,J2*%
X122789040Y-120929740D02*
X122789040Y-112032120D01*
X122789040Y-111933060D02*
X102590960Y-111933060D01*
X114889640Y-120929740D02*
X122789040Y-120929740D01*
X114889640Y-120929740D02*
X114889640Y-119431140D01*
X114889640Y-119431140D02*
X110490360Y-119431140D01*
X110490360Y-120929740D02*
X114889640Y-120929740D01*
X110490360Y-119431140D02*
X110490360Y-120929740D01*
X102590960Y-120929740D02*
X110490360Y-120929740D01*
X102590960Y-111933060D02*
X102590960Y-120929740D01*
D13*
X118850000Y-110821400D02*
X116750000Y-110821400D01*
X116750000Y-110821400D02*
X116750000Y-121951351D01*
X116750000Y-121951351D02*
X118850000Y-121951351D01*
X118850000Y-121951351D02*
X118850000Y-110821400D01*
G36*
X118850000Y-110821400D02*
G01*
X116750000Y-110821400D01*
X116750000Y-121951351D01*
X118850000Y-121951351D01*
X118850000Y-110821400D01*
G37*
X114889640Y-119431140D02*
X110490360Y-119431140D01*
X110490360Y-119431140D02*
X110490360Y-120929740D01*
X110490360Y-120929740D02*
X114889640Y-120929740D01*
X114889640Y-120929740D02*
X114889640Y-119431140D01*
G36*
X114889640Y-119431140D02*
G01*
X110490360Y-119431140D01*
X110490360Y-120929740D01*
X114889640Y-120929740D01*
X114889640Y-119431140D01*
G37*
%TD*%
%LPC*%
D15*
%TO.C,RV5*%
X177700000Y-206258000D03*
D16*
X181200000Y-206258000D03*
X177700000Y-132758000D03*
D17*
X183650000Y-202108000D03*
X175250000Y-200908000D03*
X175250000Y-138108000D03*
X183650000Y-136908000D03*
%TD*%
D15*
%TO.C,RV6*%
X194700000Y-206258000D03*
D16*
X198200000Y-206258000D03*
X194700000Y-132758000D03*
D17*
X200650000Y-202108000D03*
X192250000Y-200908000D03*
X192250000Y-138108000D03*
X200650000Y-136908000D03*
%TD*%
D18*
%TO.C,LED2*%
X127180000Y-124234000D03*
X129720000Y-124234000D03*
%TD*%
D19*
%TO.C,S4*%
X159198800Y-210316400D03*
X165701200Y-210316400D03*
X159198800Y-214837600D03*
X165701200Y-214837600D03*
%TD*%
%TO.C,S7*%
X210198800Y-210316400D03*
X216701200Y-210316400D03*
X210198800Y-214837600D03*
X216701200Y-214837600D03*
%TD*%
D15*
%TO.C,RV2*%
X126700000Y-206258000D03*
D16*
X130200000Y-206258000D03*
X126700000Y-132758000D03*
D17*
X132650000Y-202108000D03*
X124250000Y-200908000D03*
X124250000Y-138108000D03*
X132650000Y-136908000D03*
%TD*%
D15*
%TO.C,RV3*%
X143700000Y-206258000D03*
D16*
X147200000Y-206258000D03*
X143700000Y-132758000D03*
D17*
X149650000Y-202108000D03*
X141250000Y-200908000D03*
X141250000Y-138108000D03*
X149650000Y-136908000D03*
%TD*%
D19*
%TO.C,S1*%
X108198800Y-210316400D03*
X114701200Y-210316400D03*
X108198800Y-214837600D03*
X114701200Y-214837600D03*
%TD*%
%TO.C,S5*%
X176198800Y-210316400D03*
X182701200Y-210316400D03*
X176198800Y-214837600D03*
X182701200Y-214837600D03*
%TD*%
D15*
%TO.C,RV8*%
X228700000Y-206258000D03*
D16*
X232200000Y-206258000D03*
X228700000Y-132758000D03*
D17*
X234650000Y-202108000D03*
X226250000Y-200908000D03*
X226250000Y-138108000D03*
X234650000Y-136908000D03*
%TD*%
D18*
%TO.C,LED8*%
X229180000Y-124234000D03*
X231720000Y-124234000D03*
%TD*%
%TO.C,LED6*%
X195180000Y-124234000D03*
X197720000Y-124234000D03*
%TD*%
D19*
%TO.C,S6*%
X193198800Y-210316400D03*
X199701200Y-210316400D03*
X193198800Y-214837600D03*
X199701200Y-214837600D03*
%TD*%
%TO.C,S3*%
X142198800Y-210316400D03*
X148701200Y-210316400D03*
X142198800Y-214837600D03*
X148701200Y-214837600D03*
%TD*%
D15*
%TO.C,RV1*%
X109700000Y-206258000D03*
D16*
X113200000Y-206258000D03*
X109700000Y-132758000D03*
D17*
X115650000Y-202108000D03*
X107250000Y-200908000D03*
X107250000Y-138108000D03*
X115650000Y-136908000D03*
%TD*%
D18*
%TO.C,LED1*%
X110180000Y-124234000D03*
X112720000Y-124234000D03*
%TD*%
%TO.C,LED4*%
X161180000Y-124234000D03*
X163720000Y-124234000D03*
%TD*%
%TO.C,LED7*%
X212180000Y-124234000D03*
X214720000Y-124234000D03*
%TD*%
D20*
%TO.C,J1*%
X165743000Y-116108000D03*
X176715800Y-116108000D03*
X174302800Y-116108000D03*
%TD*%
D15*
%TO.C,RV4*%
X160700000Y-206258000D03*
D16*
X164200000Y-206258000D03*
X160700000Y-132758000D03*
D17*
X166650000Y-202108000D03*
X158250000Y-200908000D03*
X158250000Y-138108000D03*
X166650000Y-136908000D03*
%TD*%
D18*
%TO.C,LED3*%
X144180000Y-124234000D03*
X146720000Y-124234000D03*
%TD*%
D15*
%TO.C,RV7*%
X211700000Y-206258000D03*
D16*
X215200000Y-206258000D03*
X211700000Y-132758000D03*
D17*
X217650000Y-202108000D03*
X209250000Y-200908000D03*
X209250000Y-138108000D03*
X217650000Y-136908000D03*
%TD*%
D19*
%TO.C,S8*%
X227198800Y-210316400D03*
X233701200Y-210316400D03*
X227198800Y-214837600D03*
X233701200Y-214837600D03*
%TD*%
D18*
%TO.C,LED5*%
X178180000Y-124234000D03*
X180720000Y-124234000D03*
%TD*%
D19*
%TO.C,S2*%
X125198800Y-210316400D03*
X131701200Y-210316400D03*
X125198800Y-214837600D03*
X131701200Y-214837600D03*
%TD*%
D21*
%TO.C,A1*%
X237040000Y-128510000D03*
D22*
X234500000Y-128510000D03*
X231960000Y-128510000D03*
X229420000Y-128510000D03*
X226880000Y-128510000D03*
X224340000Y-128510000D03*
X221800000Y-128510000D03*
X219260000Y-128510000D03*
X216720000Y-128510000D03*
X214180000Y-128510000D03*
X211640000Y-128510000D03*
X209100000Y-128510000D03*
X206560000Y-128510000D03*
X204020000Y-128510000D03*
X201480000Y-128510000D03*
X198940000Y-128510000D03*
X196400000Y-128510000D03*
X193860000Y-128510000D03*
X191320000Y-128510000D03*
X188780000Y-128510000D03*
X188780000Y-113270000D03*
X191320000Y-113270000D03*
X193860000Y-113270000D03*
X196400000Y-113270000D03*
X198940000Y-113270000D03*
X201480000Y-113270000D03*
X204020000Y-113270000D03*
X206560000Y-113270000D03*
X209100000Y-113270000D03*
X211640000Y-113270000D03*
X214180000Y-113270000D03*
X216720000Y-113270000D03*
X219260000Y-113270000D03*
X221800000Y-113270000D03*
X224340000Y-113270000D03*
X226880000Y-113270000D03*
X229420000Y-113270000D03*
X231960000Y-113270000D03*
X234500000Y-113270000D03*
X237040000Y-113270000D03*
%TD*%
D23*
%TO.C,J2*%
X117770000Y-117930000D03*
X117770000Y-115136000D03*
X115230000Y-117726800D03*
X115230000Y-114932800D03*
X112690000Y-117930000D03*
X112690000Y-115136000D03*
X110150000Y-117726800D03*
X110150000Y-114932800D03*
X107610000Y-117930000D03*
X107610000Y-115136000D03*
%TD*%
%LPD*%
M02*
