%TF.GenerationSoftware,KiCad,Pcbnew,9.0.8*%
%TF.CreationDate,2026-04-07T13:44:09-04:00*%
%TF.ProjectId,lichen-stereo-klein-filter-board,6c696368-656e-42d7-9374-6572656f2d6b,rev?*%
%TF.SameCoordinates,Original*%
%TF.FileFunction,Copper,L4,Bot*%
%TF.FilePolarity,Positive*%
%FSLAX46Y46*%
G04 Gerber Fmt 4.6, Leading zero omitted, Abs format (unit mm)*
G04 Created by KiCad (PCBNEW 9.0.8) date 2026-04-07 13:44:09*
%MOMM*%
%LPD*%
G01*
G04 APERTURE LIST*
%TA.AperFunction,ComponentPad*%
%ADD10C,1.440000*%
%TD*%
%TA.AperFunction,ComponentPad*%
%ADD11C,1.879600*%
%TD*%
%TA.AperFunction,ViaPad*%
%ADD12C,0.600000*%
%TD*%
%TA.AperFunction,ViaPad*%
%ADD13C,0.700000*%
%TD*%
%TA.AperFunction,ViaPad*%
%ADD14C,0.800000*%
%TD*%
%TA.AperFunction,Conductor*%
%ADD15C,0.300000*%
%TD*%
%TA.AperFunction,Conductor*%
%ADD16C,1.000000*%
%TD*%
%TA.AperFunction,Conductor*%
%ADD17C,0.200000*%
%TD*%
%TA.AperFunction,Conductor*%
%ADD18C,0.500000*%
%TD*%
G04 APERTURE END LIST*
D10*
%TO.P,RV8,1,1*%
%TO.N,Net-(D4A-K)*%
X120060000Y-136530000D03*
%TO.P,RV8,2,2*%
%TO.N,Net-(R33-Pad2)*%
X122600000Y-139070000D03*
%TO.P,RV8,3,3*%
X125140000Y-136530000D03*
%TD*%
%TO.P,RV5,1,1*%
%TO.N,Net-(D1B-K)*%
X110290000Y-185920000D03*
%TO.P,RV5,2,2*%
%TO.N,Net-(R16-Pad2)*%
X107750000Y-183380000D03*
%TO.P,RV5,3,3*%
X105210000Y-185920000D03*
%TD*%
D11*
%TO.P,PWR1,1,-12V*%
%TO.N,/-12V_In*%
X109920000Y-211906000D03*
%TO.P,PWR1,2,-12V*%
X109920000Y-214446000D03*
%TO.P,PWR1,3,GND*%
%TO.N,GND*%
X112460000Y-212160000D03*
%TO.P,PWR1,4,GND*%
X112460000Y-214700000D03*
%TO.P,PWR1,5,GND*%
X115000000Y-211906000D03*
%TO.P,PWR1,6,GND*%
X115000000Y-214446000D03*
%TO.P,PWR1,7,GND*%
X117540000Y-212160000D03*
%TO.P,PWR1,8,GND*%
X117540000Y-214700000D03*
%TO.P,PWR1,9,+12V*%
%TO.N,/+12V_In*%
X120080000Y-211906000D03*
%TO.P,PWR1,10,+12V*%
X120080000Y-214446000D03*
%TD*%
D12*
%TO.N,/L_RESONANCE*%
X108996933Y-162674119D03*
X115600000Y-180150000D03*
D13*
X115500000Y-163900000D03*
D12*
X108950000Y-166150000D03*
D13*
X115550000Y-157400000D03*
D12*
X111950000Y-166200000D03*
%TO.N,Net-(D2A-K)*%
X121750000Y-159300000D03*
X120700000Y-161500000D03*
D13*
%TO.N,GND*%
X102000000Y-157900000D03*
X105975000Y-113925000D03*
X128200000Y-111575000D03*
X105030000Y-178690000D03*
X102490000Y-199010000D03*
D14*
X118300000Y-134700000D03*
D13*
X115300000Y-155350000D03*
D14*
X115200000Y-150525000D03*
D13*
X124725000Y-150350000D03*
X122810000Y-206630000D03*
X126425000Y-187525000D03*
X116550000Y-140750000D03*
X110025000Y-131400000D03*
X107570000Y-216790000D03*
D14*
X126250000Y-169000000D03*
D13*
X127850000Y-122850000D03*
X117900000Y-193600000D03*
X102000000Y-152650000D03*
X112000000Y-128625000D03*
D14*
X113700000Y-116325000D03*
X108750000Y-127150000D03*
D13*
X119725000Y-155300000D03*
X122810000Y-176150000D03*
D14*
X126450000Y-138200000D03*
D13*
X102490000Y-112650000D03*
X112575000Y-131375000D03*
X112650000Y-206630000D03*
X120270000Y-186310000D03*
D14*
X108600000Y-171300000D03*
X113750000Y-155250000D03*
X127150000Y-183400000D03*
X117700000Y-130100000D03*
X103200000Y-168900000D03*
D13*
X121975000Y-188900000D03*
D14*
X109550000Y-192600000D03*
D13*
X117100000Y-159100000D03*
D14*
X112025000Y-137600000D03*
D13*
X112650000Y-193930000D03*
D14*
X118200000Y-161700000D03*
D13*
X127875000Y-212725000D03*
X114275000Y-148350000D03*
X115475000Y-202950000D03*
X122810000Y-214250000D03*
D14*
X120700000Y-192500000D03*
D13*
X127890000Y-216790000D03*
D14*
X107900000Y-121970000D03*
X116850000Y-146800000D03*
X125150000Y-138900000D03*
D13*
X102490000Y-214250000D03*
X117730000Y-209170000D03*
X102075000Y-178150000D03*
X102025000Y-174225000D03*
X117025000Y-151675000D03*
D14*
X126461555Y-144475000D03*
D13*
X127890000Y-209170000D03*
D14*
X109400000Y-196100000D03*
D13*
X125350000Y-112650000D03*
X102450000Y-210350000D03*
D14*
X105300000Y-158250000D03*
D13*
X125825000Y-184650000D03*
X124950000Y-157875000D03*
D14*
X102135000Y-170835000D03*
D13*
X121150000Y-148825000D03*
X127890000Y-193930000D03*
X126600000Y-159500000D03*
X115133475Y-170580000D03*
D14*
X108850000Y-154000000D03*
D13*
X119725000Y-149850000D03*
D14*
X118200000Y-164350000D03*
D13*
X102490000Y-206630000D03*
X115190000Y-216790000D03*
D14*
X120250000Y-132150000D03*
X121750000Y-168750000D03*
D13*
X117575000Y-197150000D03*
D14*
X126400000Y-140050000D03*
X110900000Y-137500000D03*
D13*
X102352000Y-140340018D03*
X120925000Y-111750000D03*
D14*
X120637500Y-199100000D03*
X122500000Y-133550000D03*
X111950000Y-157300000D03*
D13*
X127900000Y-119775000D03*
X112050000Y-149725000D03*
D14*
X103425000Y-119775000D03*
X114350000Y-121520000D03*
D13*
X102490000Y-191390000D03*
X115190000Y-188850000D03*
X115190000Y-199010000D03*
X126900000Y-133675000D03*
D14*
X109546000Y-199446000D03*
D13*
X110110000Y-112650000D03*
D14*
X115950000Y-182440000D03*
X120700000Y-195850000D03*
D13*
X102490000Y-183770000D03*
X107570000Y-209170000D03*
D14*
X127100000Y-180300000D03*
D13*
X101825000Y-160225000D03*
D14*
X116900000Y-145300000D03*
X108300000Y-188850000D03*
X112702801Y-168192955D03*
D12*
%TO.N,Net-(D2C-K)*%
X125100000Y-162160000D03*
X125709620Y-173450000D03*
X124900000Y-171250000D03*
X125450000Y-180500000D03*
%TO.N,Net-(D6C-K)*%
X120550000Y-151400000D03*
X113800000Y-130850000D03*
%TO.N,Net-(D6C-A)*%
X121450000Y-141000000D03*
X126550000Y-152200000D03*
X111350000Y-133500000D03*
X125200000Y-152200000D03*
%TO.N,Net-(D3A-K)*%
X124350000Y-181150000D03*
X121450000Y-182650000D03*
D13*
%TO.N,LADDER_OUT_L*%
X127050000Y-165000000D03*
D12*
X128050000Y-132450000D03*
X128100000Y-152023108D03*
X125000000Y-172550000D03*
D13*
%TO.N,Net-(D4C-K)*%
X119750000Y-142150000D03*
D12*
X102840380Y-133059620D03*
%TO.N,/R_RESONANCE*%
X105450000Y-125300000D03*
X116750000Y-143250000D03*
D13*
X119250000Y-140300000D03*
X104775000Y-132650000D03*
D12*
X116750000Y-153500000D03*
D13*
X105450000Y-126650000D03*
D12*
%TO.N,Net-(D5A-K)*%
X118825000Y-145325000D03*
X124850000Y-144400000D03*
D13*
%TO.N,Net-(D5B-K)*%
X115219976Y-146430026D03*
X108425000Y-145850000D03*
D12*
X122025000Y-146675000D03*
X124800000Y-145350000D03*
%TO.N,AUDIO_IN_SCALED_R*%
X107800000Y-119400000D03*
D13*
X123100000Y-119960000D03*
D12*
%TO.N,CUTOFF_CV_IN*%
X113050000Y-132750000D03*
D13*
X106750000Y-142800000D03*
D12*
%TO.N,Net-(D6A-K)*%
X124701470Y-152850000D03*
X124700000Y-154450000D03*
D14*
%TO.N,+12V*%
X116350000Y-170300000D03*
X103200000Y-172500000D03*
X104450000Y-121700000D03*
X125075000Y-190750000D03*
X105000000Y-144400000D03*
X122700000Y-130150000D03*
X105500000Y-148050000D03*
X105550000Y-138450000D03*
X114430331Y-152469669D03*
%TO.N,-12V*%
X109250000Y-133500000D03*
D13*
X113650000Y-157350000D03*
X109250000Y-143700000D03*
D14*
X110950000Y-139400000D03*
X112350000Y-170850000D03*
X106350000Y-156450000D03*
D13*
X115500000Y-116475000D03*
X109250000Y-150000000D03*
X108820000Y-170020000D03*
X122300000Y-118525000D03*
D14*
X116900000Y-126300000D03*
X111873000Y-180623000D03*
X113000000Y-126300000D03*
D12*
%TO.N,SKEW_CV_MIXED*%
X102100000Y-143100000D03*
X118150000Y-117450000D03*
%TO.N,Net-(D1A-A)*%
X107250000Y-165950000D03*
X107350000Y-162950000D03*
%TO.N,Net-(D1B-K)*%
X111970000Y-167480000D03*
D13*
%TO.N,/L_LADDER_TOP*%
X114850000Y-160650000D03*
D12*
X113370000Y-174270000D03*
%TO.N,/L_LADDER_BOTTOM*%
X120415380Y-174265380D03*
X121300000Y-179800000D03*
%TO.N,Net-(D4A-K)*%
X111200000Y-125950000D03*
X120060000Y-135170000D03*
D13*
X106200000Y-131550000D03*
D14*
X109432795Y-123469547D03*
D12*
%TO.N,/R_LADDER_BOTTOM*%
X114350000Y-146550000D03*
X101400000Y-133400000D03*
%TO.N,CUTOFF_CV_OFFSET*%
X127800000Y-117420000D03*
X126750000Y-156150000D03*
X123050000Y-117450000D03*
X118550000Y-121269240D03*
%TO.N,LADDER_OUT_R*%
X114400000Y-139080000D03*
D13*
X105800000Y-142300000D03*
D14*
%TO.N,RESONANCE_ATTEN_R*%
X109740000Y-121970000D03*
X116250000Y-120812698D03*
D13*
%TO.N,AUDIO_IN_SCALED_L*%
X115179595Y-142379595D03*
D12*
X103950000Y-171300000D03*
X115140380Y-138209620D03*
D13*
X110050000Y-148850000D03*
%TO.N,RESONANCE_ATTEN_L*%
X109150000Y-157925000D03*
X127150000Y-131400000D03*
D12*
X109000000Y-168750000D03*
X127100000Y-114850000D03*
%TO.N,AUDIO_OUT_DC_COUPLED_R*%
X117900000Y-128750000D03*
X117900000Y-125209620D03*
%TO.N,Net-(U3A--)*%
X117150000Y-167450000D03*
X114450000Y-177625000D03*
%TO.N,Net-(U4A--)*%
X107150000Y-126600000D03*
X104300000Y-118900000D03*
D14*
%TO.N,Net-(U4D--)*%
X108700000Y-124150000D03*
D12*
X110450000Y-126600000D03*
%TO.N,Net-(U5D--)*%
X107550000Y-147200000D03*
X107750000Y-135950000D03*
X103150000Y-147950000D03*
D13*
X107600000Y-143650000D03*
%TD*%
D15*
%TO.N,/L_RESONANCE*%
X112300000Y-166200000D02*
X113475000Y-167375000D01*
X108950000Y-166150000D02*
X108950000Y-162721052D01*
X111950000Y-166200000D02*
X112300000Y-166200000D01*
X112710000Y-178560000D02*
X114300000Y-180150000D01*
X115550000Y-163850000D02*
X115550000Y-157400000D01*
X112710000Y-172186130D02*
X112710000Y-178560000D01*
X108950000Y-162721052D02*
X108996933Y-162674119D01*
X114300000Y-180150000D02*
X115600000Y-180150000D01*
X113475000Y-167375000D02*
X113475000Y-171421130D01*
X115500000Y-163900000D02*
X115550000Y-163850000D01*
X113475000Y-171421130D02*
X112710000Y-172186130D01*
%TO.N,Net-(D2A-K)*%
X120200000Y-159900000D02*
X120800000Y-159300000D01*
X120700000Y-161500000D02*
X120560000Y-161500000D01*
X120800000Y-159300000D02*
X121750000Y-159300000D01*
X120560000Y-161500000D02*
X120200000Y-161140000D01*
X120200000Y-161140000D02*
X120200000Y-159900000D01*
D16*
%TO.N,GND*%
X112460000Y-212160000D02*
X117540000Y-212160000D01*
X115000000Y-211906000D02*
X115000000Y-214446000D01*
X112460000Y-212160000D02*
X112460000Y-214700000D01*
X117540000Y-214700000D02*
X112460000Y-214700000D01*
X117540000Y-212160000D02*
X117540000Y-214700000D01*
D15*
%TO.N,Net-(D2C-K)*%
X125709620Y-180240380D02*
X125450000Y-180500000D01*
X125500000Y-162560000D02*
X125500000Y-170650000D01*
X125500000Y-170650000D02*
X124900000Y-171250000D01*
X125709620Y-173450000D02*
X125709620Y-180240380D01*
X125100000Y-162160000D02*
X125500000Y-162560000D01*
%TO.N,Net-(D6C-K)*%
X121550000Y-140350000D02*
X123950000Y-140350000D01*
X117300000Y-136100000D02*
X121550000Y-140350000D01*
X125500000Y-146450000D02*
X120550000Y-151400000D01*
X113800000Y-130850000D02*
X113800000Y-131750000D01*
X123950000Y-140350000D02*
X125500000Y-141900000D01*
X113800000Y-131750000D02*
X117300000Y-135250000D01*
X125500000Y-141900000D02*
X125500000Y-146450000D01*
X117300000Y-135250000D02*
X117300000Y-136100000D01*
%TO.N,Net-(D6C-A)*%
X126550000Y-152200000D02*
X125200000Y-152200000D01*
X111350000Y-133500000D02*
X111450000Y-133500000D01*
X118950000Y-141000000D02*
X121450000Y-141000000D01*
X111450000Y-133500000D02*
X118950000Y-141000000D01*
%TO.N,Net-(D3A-K)*%
X121450000Y-182650000D02*
X121650000Y-182850000D01*
X121650000Y-182850000D02*
X123350000Y-182850000D01*
X124350000Y-181850000D02*
X124350000Y-181150000D01*
X123350000Y-182850000D02*
X124350000Y-181850000D01*
%TO.N,LADDER_OUT_L*%
X128061555Y-132461555D02*
X128050000Y-132450000D01*
X128100000Y-152023108D02*
X128061555Y-151984663D01*
X127050000Y-171400000D02*
X125900000Y-172550000D01*
X128061555Y-151984663D02*
X128061555Y-132461555D01*
X127050000Y-165000000D02*
X127050000Y-171400000D01*
X125900000Y-172550000D02*
X125000000Y-172550000D01*
%TO.N,Net-(D4C-K)*%
X113930761Y-145150000D02*
X116951166Y-142129595D01*
X116951166Y-142129595D02*
X119729595Y-142129595D01*
X103575000Y-144175000D02*
X104550000Y-145150000D01*
X103575000Y-137220290D02*
X103575000Y-144175000D01*
X103448000Y-133667240D02*
X103448000Y-137093291D01*
X103448000Y-137093291D02*
X103575000Y-137220290D01*
X104550000Y-145150000D02*
X113930761Y-145150000D01*
X102840380Y-133059620D02*
X103448000Y-133667240D01*
X119729595Y-142129595D02*
X119750000Y-142150000D01*
%TO.N,/R_RESONANCE*%
X119250000Y-140300000D02*
X116526935Y-137576935D01*
X116526935Y-135307696D02*
X113719239Y-132500000D01*
X105450000Y-130550000D02*
X105450000Y-126650000D01*
X104800000Y-131200000D02*
X105450000Y-130550000D01*
X104800000Y-132625000D02*
X104800000Y-131200000D01*
X116750000Y-153500000D02*
X115950000Y-152700000D01*
X113719239Y-132500000D02*
X113700000Y-132500000D01*
X105450000Y-125300000D02*
X105450000Y-126650000D01*
X107996130Y-132650000D02*
X104775000Y-132650000D01*
X115950000Y-144050000D02*
X116750000Y-143250000D01*
X115950000Y-152700000D02*
X115950000Y-144050000D01*
X116526935Y-137576935D02*
X116526935Y-135307696D01*
X113700000Y-132500000D02*
X113700000Y-132480761D01*
X113700000Y-132480761D02*
X113319239Y-132100000D01*
X104775000Y-132650000D02*
X104800000Y-132625000D01*
X108546130Y-132100000D02*
X107996130Y-132650000D01*
X113319239Y-132100000D02*
X108546130Y-132100000D01*
%TO.N,Net-(D5A-K)*%
X124450000Y-144000000D02*
X124850000Y-144400000D01*
X119450000Y-144000000D02*
X124450000Y-144000000D01*
X118825000Y-145325000D02*
X118825000Y-144625000D01*
X118825000Y-144625000D02*
X119450000Y-144000000D01*
%TO.N,Net-(D5B-K)*%
X124950000Y-145500000D02*
X124800000Y-145350000D01*
X124250000Y-147050000D02*
X124950000Y-146350000D01*
X108425000Y-145850000D02*
X114639950Y-145850000D01*
X122025000Y-146675000D02*
X122400000Y-147050000D01*
X124950000Y-146350000D02*
X124950000Y-145500000D01*
X122400000Y-147050000D02*
X124250000Y-147050000D01*
X114639950Y-145850000D02*
X115219976Y-146430026D01*
%TO.N,AUDIO_IN_SCALED_R*%
X123100000Y-119960000D02*
X123050000Y-119960000D01*
X122490000Y-119400000D02*
X107800000Y-119400000D01*
X123050000Y-119960000D02*
X122490000Y-119400000D01*
%TO.N,CUTOFF_CV_IN*%
X106750000Y-142800000D02*
X106750000Y-134750000D01*
X108750000Y-132750000D02*
X113050000Y-132750000D01*
X106750000Y-134750000D02*
X108750000Y-132750000D01*
D17*
%TO.N,Net-(D6A-K)*%
X124700000Y-154450000D02*
X124700000Y-152851470D01*
X124700000Y-152851470D02*
X124701470Y-152850000D01*
D18*
%TO.N,+12V*%
X105000000Y-139000000D02*
X105000000Y-144400000D01*
X103975000Y-136875000D02*
X105550000Y-138450000D01*
X127311555Y-135661555D02*
X122700000Y-131050000D01*
X105600000Y-147950000D02*
X112050000Y-147950000D01*
X127311555Y-154138445D02*
X127311555Y-135661555D01*
X125950000Y-156950000D02*
X125950000Y-155500000D01*
X126400000Y-190750000D02*
X128000000Y-189150000D01*
X114150000Y-150050000D02*
X114150000Y-152200000D01*
X125075000Y-190750000D02*
X125075000Y-187725000D01*
X125075000Y-187725000D02*
X119550000Y-182200000D01*
X118200000Y-190750000D02*
X118250000Y-190700000D01*
X105550000Y-138450000D02*
X105000000Y-139000000D01*
X125950000Y-155500000D02*
X127311555Y-154138445D01*
X119550000Y-157589338D02*
X114430331Y-152469669D01*
X103975000Y-122175000D02*
X103975000Y-136875000D01*
X112050000Y-147950000D02*
X114150000Y-150050000D01*
X119550000Y-182200000D02*
X119550000Y-157589338D01*
X116350000Y-171450000D02*
X116350000Y-170300000D01*
X103200000Y-181100000D02*
X103200000Y-172500000D01*
X104450000Y-121700000D02*
X103975000Y-122175000D01*
X125075000Y-190750000D02*
X126400000Y-190750000D01*
X112850000Y-190750000D02*
X103200000Y-181100000D01*
X105500000Y-148050000D02*
X105600000Y-147950000D01*
X118250000Y-173350000D02*
X116350000Y-171450000D01*
X118250000Y-190700000D02*
X118250000Y-173350000D01*
X118200000Y-190750000D02*
X125075000Y-190750000D01*
X122700000Y-131050000D02*
X122700000Y-130150000D01*
X114150000Y-152200000D02*
X114419669Y-152469669D01*
X118200000Y-190750000D02*
X112850000Y-190750000D01*
X128000000Y-189150000D02*
X128000000Y-159000000D01*
X128000000Y-159000000D02*
X125950000Y-156950000D01*
X114419669Y-152469669D02*
X114430331Y-152469669D01*
%TO.N,-12V*%
X112350000Y-170850000D02*
X112350000Y-171643000D01*
X122300000Y-118525000D02*
X122300000Y-118200000D01*
X107770000Y-170020000D02*
X108820000Y-170020000D01*
X112750000Y-156450000D02*
X113650000Y-157350000D01*
X106350000Y-156450000D02*
X112750000Y-156450000D01*
X122300000Y-118200000D02*
X120575000Y-116475000D01*
X110950000Y-139400000D02*
X110950000Y-143100000D01*
X111873000Y-172120000D02*
X111873000Y-180623000D01*
X109250000Y-133500000D02*
X109250000Y-143700000D01*
X112350000Y-171643000D02*
X111873000Y-172120000D01*
X106350000Y-168600000D02*
X107770000Y-170020000D01*
X120575000Y-116475000D02*
X115500000Y-116475000D01*
X116900000Y-126300000D02*
X113000000Y-126300000D01*
X110350000Y-143700000D02*
X109250000Y-143700000D01*
X106350000Y-156450000D02*
X106350000Y-168600000D01*
X109250000Y-150000000D02*
X109250000Y-151550000D01*
X106350000Y-154450000D02*
X106350000Y-156450000D01*
X110950000Y-143100000D02*
X110350000Y-143700000D01*
X109250000Y-151550000D02*
X106350000Y-154450000D01*
D15*
%TO.N,SKEW_CV_MIXED*%
X101652000Y-142652000D02*
X101652000Y-134067239D01*
X102100000Y-143100000D02*
X101652000Y-142652000D01*
X102050000Y-133669239D02*
X102050000Y-118050000D01*
X102050000Y-118050000D02*
X102650000Y-117450000D01*
X101652000Y-134067239D02*
X102050000Y-133669239D01*
X102650000Y-117450000D02*
X118150000Y-117450000D01*
%TO.N,Net-(D1A-A)*%
X107250000Y-163050000D02*
X107350000Y-162950000D01*
X107250000Y-165950000D02*
X107250000Y-163050000D01*
%TO.N,Net-(D1B-K)*%
X111220000Y-167480000D02*
X111970000Y-167480000D01*
X110290000Y-185920000D02*
X110290000Y-168410000D01*
X110290000Y-168410000D02*
X111220000Y-167480000D01*
%TO.N,/L_LADDER_TOP*%
X113350000Y-172150000D02*
X114000000Y-171500000D01*
X113350000Y-174250000D02*
X113350000Y-172150000D01*
X114000000Y-161350000D02*
X114700000Y-160650000D01*
X114000000Y-171500000D02*
X114000000Y-161350000D01*
X113370000Y-174270000D02*
X113350000Y-174250000D01*
X114700000Y-160650000D02*
X114850000Y-160650000D01*
%TO.N,/L_LADDER_BOTTOM*%
X120415380Y-174265380D02*
X121300000Y-175150000D01*
X121300000Y-175150000D02*
X121300000Y-179800000D01*
%TO.N,Net-(D4A-K)*%
X111200000Y-125500000D02*
X111200000Y-125950000D01*
X106200000Y-131550000D02*
X106850000Y-131550000D01*
X106850000Y-131550000D02*
X111200000Y-127200000D01*
X109400000Y-123700000D02*
X111200000Y-125500000D01*
X111570000Y-125950000D02*
X111200000Y-125950000D01*
X120060000Y-135170000D02*
X120060000Y-134440000D01*
X120060000Y-134440000D02*
X111570000Y-125950000D01*
X109400000Y-123502342D02*
X109400000Y-123700000D01*
X109432795Y-123469547D02*
X109400000Y-123502342D01*
X111200000Y-127200000D02*
X111200000Y-125950000D01*
%TO.N,/R_LADDER_BOTTOM*%
X104050000Y-146550000D02*
X101200000Y-143700000D01*
X101200000Y-143700000D02*
X101200000Y-133600000D01*
X114350000Y-146550000D02*
X104050000Y-146550000D01*
X101200000Y-133600000D02*
X101400000Y-133400000D01*
%TO.N,CUTOFF_CV_OFFSET*%
X128750000Y-118370000D02*
X127800000Y-117420000D01*
X128750000Y-154150000D02*
X128750000Y-118370000D01*
X126750000Y-156150000D02*
X128750000Y-154150000D01*
X123800000Y-120249950D02*
X123800000Y-118200000D01*
X118550000Y-121269240D02*
X122780710Y-121269240D01*
X123800000Y-118200000D02*
X123050000Y-117450000D01*
X122780710Y-121269240D02*
X123800000Y-120249950D01*
%TO.N,LADDER_OUT_R*%
X107500000Y-144600000D02*
X111969240Y-144600000D01*
X105800000Y-142900000D02*
X107500000Y-144600000D01*
X114670000Y-139080000D02*
X114400000Y-139080000D01*
X105800000Y-142300000D02*
X105800000Y-142900000D01*
X114700000Y-141869240D02*
X114700000Y-139110000D01*
X111969240Y-144600000D02*
X114700000Y-141869240D01*
X114700000Y-139110000D02*
X114670000Y-139080000D01*
%TO.N,RESONANCE_ATTEN_R*%
X114712698Y-122350000D02*
X110120000Y-122350000D01*
X110120000Y-122350000D02*
X109740000Y-121970000D01*
X116250000Y-120812698D02*
X114712698Y-122350000D01*
%TO.N,AUDIO_IN_SCALED_L*%
X115140380Y-138209620D02*
X115140380Y-142340380D01*
X115140380Y-142340380D02*
X115179595Y-142379595D01*
X103950000Y-153650000D02*
X103950000Y-171300000D01*
X108750000Y-148850000D02*
X103950000Y-153650000D01*
X110050000Y-148850000D02*
X108750000Y-148850000D01*
%TO.N,RESONANCE_ATTEN_L*%
X127150000Y-114850000D02*
X127150000Y-131400000D01*
X108800000Y-168750000D02*
X109000000Y-168750000D01*
X109125000Y-157925000D02*
X108300000Y-158750000D01*
X127100000Y-114850000D02*
X127150000Y-114850000D01*
X108300000Y-158750000D02*
X108300000Y-168250000D01*
X108300000Y-168250000D02*
X108800000Y-168750000D01*
X109150000Y-157925000D02*
X109125000Y-157925000D01*
%TO.N,AUDIO_OUT_DC_COUPLED_R*%
X117900000Y-125209620D02*
X117900000Y-128750000D01*
%TO.N,Net-(U3A--)*%
X114450000Y-177625000D02*
X114425000Y-177600000D01*
X114427000Y-169098000D02*
X116075000Y-167450000D01*
X114425000Y-171678869D02*
X114427000Y-171676869D01*
X116075000Y-167450000D02*
X117150000Y-167450000D01*
X114427000Y-171676869D02*
X114427000Y-169098000D01*
X114425000Y-177600000D02*
X114425000Y-171678869D01*
%TO.N,Net-(U4A--)*%
X104300000Y-119250000D02*
X107150000Y-122100000D01*
X104300000Y-118900000D02*
X104300000Y-119250000D01*
X107150000Y-122100000D02*
X107150000Y-126600000D01*
%TO.N,Net-(U4D--)*%
X110450000Y-125900000D02*
X108650000Y-124100000D01*
X110450000Y-126600000D02*
X110450000Y-125900000D01*
%TO.N,Net-(U5D--)*%
X107400000Y-147300000D02*
X103450000Y-147300000D01*
X107550000Y-147200000D02*
X107500000Y-147200000D01*
X103150000Y-147600000D02*
X103150000Y-147950000D01*
X107600000Y-143650000D02*
X107600000Y-136100000D01*
X107600000Y-136100000D02*
X107750000Y-135950000D01*
X103450000Y-147300000D02*
X103150000Y-147600000D01*
X107500000Y-147200000D02*
X107400000Y-147300000D01*
D16*
%TO.N,/+12V_In*%
X120080000Y-211906000D02*
X120080000Y-214446000D01*
%TO.N,/-12V_In*%
X109920000Y-211906000D02*
X109920000Y-214446000D01*
%TD*%
M02*
