%TF.GenerationSoftware,KiCad,Pcbnew,9.0.8*%
%TF.CreationDate,2026-04-07T13:44:09-04:00*%
%TF.ProjectId,lichen-stereo-klein-filter-board,6c696368-656e-42d7-9374-6572656f2d6b,rev?*%
%TF.SameCoordinates,Original*%
%TF.FileFunction,Copper,L3,Inr*%
%TF.FilePolarity,Positive*%
%FSLAX46Y46*%
G04 Gerber Fmt 4.6, Leading zero omitted, Abs format (unit mm)*
G04 Created by KiCad (PCBNEW 9.0.8) date 2026-04-07 13:44:09*
%MOMM*%
%LPD*%
G01*
G04 APERTURE LIST*
%TA.AperFunction,ComponentPad*%
%ADD10C,1.440000*%
%TD*%
%TA.AperFunction,ComponentPad*%
%ADD11C,1.879600*%
%TD*%
%TA.AperFunction,ViaPad*%
%ADD12C,0.600000*%
%TD*%
%TA.AperFunction,ViaPad*%
%ADD13C,0.700000*%
%TD*%
%TA.AperFunction,ViaPad*%
%ADD14C,0.800000*%
%TD*%
G04 APERTURE END LIST*
D10*
%TO.N,Net-(D4A-K)*%
%TO.C,RV8*%
X120060000Y-136530000D03*
%TO.N,Net-(R33-Pad2)*%
X122600000Y-139070000D03*
X125140000Y-136530000D03*
%TD*%
%TO.N,Net-(D1B-K)*%
%TO.C,RV5*%
X110290000Y-185920000D03*
%TO.N,Net-(R16-Pad2)*%
X107750000Y-183380000D03*
X105210000Y-185920000D03*
%TD*%
D11*
%TO.N,/-12V_In*%
%TO.C,PWR1*%
X109920000Y-211906000D03*
X109920000Y-214446000D03*
%TO.N,GND*%
X112460000Y-212160000D03*
X112460000Y-214700000D03*
X115000000Y-211906000D03*
X115000000Y-214446000D03*
X117540000Y-212160000D03*
X117540000Y-214700000D03*
%TO.N,/+12V_In*%
X120080000Y-211906000D03*
X120080000Y-214446000D03*
%TD*%
D12*
%TO.N,/L_RESONANCE*%
X108996933Y-162674119D03*
X115600000Y-180150000D03*
D13*
X115500000Y-163900000D03*
D12*
X108950000Y-166150000D03*
D13*
X115550000Y-157400000D03*
D12*
X111950000Y-166200000D03*
%TO.N,Net-(D2A-K)*%
X121750000Y-159300000D03*
X120700000Y-161500000D03*
D13*
%TO.N,GND*%
X102000000Y-157900000D03*
X105975000Y-113925000D03*
X128200000Y-111575000D03*
X105030000Y-178690000D03*
X102490000Y-199010000D03*
D14*
X118300000Y-134700000D03*
D13*
X115300000Y-155350000D03*
D14*
X115200000Y-150525000D03*
D13*
X124725000Y-150350000D03*
X122810000Y-206630000D03*
X126425000Y-187525000D03*
X116550000Y-140750000D03*
X110025000Y-131400000D03*
X107570000Y-216790000D03*
D14*
X126250000Y-169000000D03*
D13*
X127850000Y-122850000D03*
X117900000Y-193600000D03*
X102000000Y-152650000D03*
X112000000Y-128625000D03*
D14*
X113700000Y-116325000D03*
X108750000Y-127150000D03*
D13*
X119725000Y-155300000D03*
X122810000Y-176150000D03*
D14*
X126450000Y-138200000D03*
D13*
X102490000Y-112650000D03*
X112575000Y-131375000D03*
X112650000Y-206630000D03*
X120270000Y-186310000D03*
D14*
X108600000Y-171300000D03*
X113750000Y-155250000D03*
X127150000Y-183400000D03*
X117700000Y-130100000D03*
X103200000Y-168900000D03*
D13*
X121975000Y-188900000D03*
D14*
X109550000Y-192600000D03*
D13*
X117100000Y-159100000D03*
D14*
X112025000Y-137600000D03*
D13*
X112650000Y-193930000D03*
D14*
X118200000Y-161700000D03*
D13*
X127875000Y-212725000D03*
X114275000Y-148350000D03*
X115475000Y-202950000D03*
X122810000Y-214250000D03*
D14*
X120700000Y-192500000D03*
D13*
X127890000Y-216790000D03*
D14*
X107900000Y-121970000D03*
X116850000Y-146800000D03*
X125150000Y-138900000D03*
D13*
X102490000Y-214250000D03*
X117730000Y-209170000D03*
X102075000Y-178150000D03*
X102025000Y-174225000D03*
X117025000Y-151675000D03*
D14*
X126461555Y-144475000D03*
D13*
X127890000Y-209170000D03*
D14*
X109400000Y-196100000D03*
D13*
X125350000Y-112650000D03*
X102450000Y-210350000D03*
D14*
X105300000Y-158250000D03*
D13*
X125825000Y-184650000D03*
X124950000Y-157875000D03*
D14*
X102135000Y-170835000D03*
D13*
X121150000Y-148825000D03*
X127890000Y-193930000D03*
X126600000Y-159500000D03*
X115133475Y-170580000D03*
D14*
X108850000Y-154000000D03*
D13*
X119725000Y-149850000D03*
D14*
X118200000Y-164350000D03*
D13*
X102490000Y-206630000D03*
X115190000Y-216790000D03*
D14*
X120250000Y-132150000D03*
X121750000Y-168750000D03*
D13*
X117575000Y-197150000D03*
D14*
X126400000Y-140050000D03*
X110900000Y-137500000D03*
D13*
X102352000Y-140340018D03*
X120925000Y-111750000D03*
D14*
X120637500Y-199100000D03*
X122500000Y-133550000D03*
X111950000Y-157300000D03*
D13*
X127900000Y-119775000D03*
X112050000Y-149725000D03*
D14*
X103425000Y-119775000D03*
X114350000Y-121520000D03*
D13*
X102490000Y-191390000D03*
X115190000Y-188850000D03*
X115190000Y-199010000D03*
X126900000Y-133675000D03*
D14*
X109546000Y-199446000D03*
D13*
X110110000Y-112650000D03*
D14*
X115950000Y-182440000D03*
X120700000Y-195850000D03*
D13*
X102490000Y-183770000D03*
X107570000Y-209170000D03*
D14*
X127100000Y-180300000D03*
D13*
X101825000Y-160225000D03*
D14*
X116900000Y-145300000D03*
X108300000Y-188850000D03*
X112702801Y-168192955D03*
D12*
%TO.N,Net-(D2C-K)*%
X125100000Y-162160000D03*
X125709620Y-173450000D03*
X124900000Y-171250000D03*
X125450000Y-180500000D03*
%TO.N,Net-(D6C-K)*%
X120550000Y-151400000D03*
X113800000Y-130850000D03*
%TO.N,Net-(D6C-A)*%
X121450000Y-141000000D03*
X126550000Y-152200000D03*
X111350000Y-133500000D03*
X125200000Y-152200000D03*
%TO.N,Net-(D3A-K)*%
X124350000Y-181150000D03*
X121450000Y-182650000D03*
D13*
%TO.N,LADDER_OUT_L*%
X127050000Y-165000000D03*
D12*
X128050000Y-132450000D03*
X128100000Y-152023108D03*
X125000000Y-172550000D03*
D13*
%TO.N,Net-(D4C-K)*%
X119750000Y-142150000D03*
D12*
X102840380Y-133059620D03*
%TO.N,/R_RESONANCE*%
X105450000Y-125300000D03*
X116750000Y-143250000D03*
D13*
X119250000Y-140300000D03*
X104775000Y-132650000D03*
D12*
X116750000Y-153500000D03*
D13*
X105450000Y-126650000D03*
D12*
%TO.N,Net-(D5A-K)*%
X118825000Y-145325000D03*
X124850000Y-144400000D03*
D13*
%TO.N,Net-(D5B-K)*%
X115219976Y-146430026D03*
X108425000Y-145850000D03*
D12*
X122025000Y-146675000D03*
X124800000Y-145350000D03*
%TO.N,AUDIO_IN_SCALED_R*%
X107800000Y-119400000D03*
D13*
X123100000Y-119960000D03*
D12*
%TO.N,CUTOFF_CV_IN*%
X113050000Y-132750000D03*
D13*
X106750000Y-142800000D03*
D12*
%TO.N,Net-(D6A-K)*%
X124701470Y-152850000D03*
X124700000Y-154450000D03*
D14*
%TO.N,+12V*%
X116350000Y-170300000D03*
X103200000Y-172500000D03*
X104450000Y-121700000D03*
X125075000Y-190750000D03*
X105000000Y-144400000D03*
X122700000Y-130150000D03*
X105500000Y-148050000D03*
X105550000Y-138450000D03*
X114430331Y-152469669D03*
%TO.N,-12V*%
X109250000Y-133500000D03*
D13*
X113650000Y-157350000D03*
X109250000Y-143700000D03*
D14*
X110950000Y-139400000D03*
X112350000Y-170850000D03*
X106350000Y-156450000D03*
D13*
X115500000Y-116475000D03*
X109250000Y-150000000D03*
X108820000Y-170020000D03*
X122300000Y-118525000D03*
D14*
X116900000Y-126300000D03*
X111873000Y-180623000D03*
X113000000Y-126300000D03*
D12*
%TO.N,SKEW_CV_MIXED*%
X102100000Y-143100000D03*
X118150000Y-117450000D03*
%TO.N,Net-(D1A-A)*%
X107250000Y-165950000D03*
X107350000Y-162950000D03*
%TO.N,Net-(D1B-K)*%
X111970000Y-167480000D03*
D13*
%TO.N,/L_LADDER_TOP*%
X114850000Y-160650000D03*
D12*
X113370000Y-174270000D03*
%TO.N,/L_LADDER_BOTTOM*%
X120415380Y-174265380D03*
X121300000Y-179800000D03*
%TO.N,Net-(D4A-K)*%
X111200000Y-125950000D03*
X120060000Y-135170000D03*
D13*
X106200000Y-131550000D03*
D14*
X109432795Y-123469547D03*
D12*
%TO.N,/R_LADDER_BOTTOM*%
X114350000Y-146550000D03*
X101400000Y-133400000D03*
%TO.N,CUTOFF_CV_OFFSET*%
X127800000Y-117420000D03*
X126750000Y-156150000D03*
X123050000Y-117450000D03*
X118550000Y-121269240D03*
%TO.N,LADDER_OUT_R*%
X114400000Y-139080000D03*
D13*
X105800000Y-142300000D03*
D14*
%TO.N,RESONANCE_ATTEN_R*%
X109740000Y-121970000D03*
X116250000Y-120812698D03*
D13*
%TO.N,AUDIO_IN_SCALED_L*%
X115179595Y-142379595D03*
D12*
X103950000Y-171300000D03*
X115140380Y-138209620D03*
D13*
X110050000Y-148850000D03*
%TO.N,RESONANCE_ATTEN_L*%
X109150000Y-157925000D03*
X127150000Y-131400000D03*
D12*
X109000000Y-168750000D03*
X127100000Y-114850000D03*
%TO.N,AUDIO_OUT_DC_COUPLED_R*%
X117900000Y-128750000D03*
X117900000Y-125209620D03*
%TO.N,Net-(U3A--)*%
X117150000Y-167450000D03*
X114450000Y-177625000D03*
%TO.N,Net-(U4A--)*%
X107150000Y-126600000D03*
X104300000Y-118900000D03*
D14*
%TO.N,Net-(U4D--)*%
X108700000Y-124150000D03*
D12*
X110450000Y-126600000D03*
%TO.N,Net-(U5D--)*%
X107550000Y-147200000D03*
X107750000Y-135950000D03*
X103150000Y-147950000D03*
D13*
X107600000Y-143650000D03*
%TD*%
%TA.AperFunction,Conductor*%
%TO.N,GND*%
G36*
X116197106Y-212749554D02*
G01*
X116199908Y-212750143D01*
X116213993Y-212764025D01*
X116231108Y-212773932D01*
X116247395Y-212796947D01*
X116249670Y-212799189D01*
X116251549Y-212802704D01*
X116257290Y-212813870D01*
X116257320Y-212814030D01*
X116257322Y-212814033D01*
X116257321Y-212814033D01*
X116257392Y-212814402D01*
X116257485Y-212814355D01*
X116308573Y-212914620D01*
X116360439Y-212986006D01*
X116360439Y-212986007D01*
X117050504Y-212295941D01*
X117066619Y-212356081D01*
X117133498Y-212471920D01*
X117228080Y-212566502D01*
X117343919Y-212633381D01*
X117404057Y-212649494D01*
X116713991Y-213339559D01*
X116714671Y-213348196D01*
X116743060Y-213385012D01*
X116749039Y-213454625D01*
X116716433Y-213516420D01*
X116714152Y-213518395D01*
X116713991Y-213520439D01*
X117404057Y-214210504D01*
X117343919Y-214226619D01*
X117228080Y-214293498D01*
X117133498Y-214388080D01*
X117066619Y-214503919D01*
X117050504Y-214564058D01*
X116342878Y-213856432D01*
X116340067Y-213855841D01*
X116326000Y-213841970D01*
X116308902Y-213832077D01*
X116292576Y-213809013D01*
X116290316Y-213806784D01*
X116288457Y-213803308D01*
X116282714Y-213792142D01*
X116282682Y-213791977D01*
X116282679Y-213791971D01*
X116282681Y-213791969D01*
X116282608Y-213791591D01*
X116282512Y-213791641D01*
X116231428Y-213691381D01*
X116179559Y-213619992D01*
X116179559Y-213619991D01*
X115489494Y-214310056D01*
X115473381Y-214249919D01*
X115406502Y-214134080D01*
X115311920Y-214039498D01*
X115196081Y-213972619D01*
X115135940Y-213956504D01*
X115815906Y-213276540D01*
X115795210Y-213216272D01*
X115793740Y-213183768D01*
X115790958Y-213151374D01*
X115792171Y-213149074D01*
X115792054Y-213146474D01*
X115808390Y-213118334D01*
X115823564Y-213089579D01*
X115825846Y-213087601D01*
X115826006Y-213085559D01*
X115135942Y-212395495D01*
X115196081Y-212379381D01*
X115311920Y-212312502D01*
X115406502Y-212217920D01*
X115473381Y-212102081D01*
X115489495Y-212041942D01*
X116197106Y-212749554D01*
G37*
%TD.AperFunction*%
%TA.AperFunction,Conductor*%
G36*
X111986619Y-212356081D02*
G01*
X112053498Y-212471920D01*
X112148080Y-212566502D01*
X112263919Y-212633381D01*
X112324057Y-212649494D01*
X111633991Y-213339559D01*
X111634671Y-213348196D01*
X111663060Y-213385012D01*
X111669039Y-213454625D01*
X111636433Y-213516420D01*
X111634152Y-213518395D01*
X111633991Y-213520439D01*
X112324057Y-214210504D01*
X112263919Y-214226619D01*
X112148080Y-214293498D01*
X112053498Y-214388080D01*
X111986619Y-214503919D01*
X111970504Y-214564057D01*
X111262686Y-213856239D01*
X111260615Y-213855804D01*
X111210861Y-213806750D01*
X111208784Y-213802848D01*
X111203327Y-213792139D01*
X111151855Y-213691118D01*
X111151853Y-213691115D01*
X111151852Y-213691113D01*
X111018605Y-213507713D01*
X111018601Y-213507708D01*
X110895711Y-213384818D01*
X110858293Y-213347400D01*
X110758094Y-213274601D01*
X110755827Y-213272786D01*
X110737416Y-213246439D01*
X110717791Y-213220989D01*
X110717533Y-213217985D01*
X110715806Y-213215514D01*
X110714562Y-213183394D01*
X110711812Y-213151376D01*
X110713218Y-213148709D01*
X110713102Y-213145696D01*
X110729420Y-213118002D01*
X110744417Y-213089580D01*
X110747996Y-213086478D01*
X110748573Y-213085500D01*
X110749894Y-213084833D01*
X110760456Y-213075682D01*
X110858293Y-213004600D01*
X111013280Y-212849612D01*
X111074600Y-212816130D01*
X111144291Y-212821114D01*
X111200225Y-212862985D01*
X111211442Y-212881000D01*
X111228571Y-212914617D01*
X111280439Y-212986006D01*
X111280439Y-212986007D01*
X111970504Y-212295941D01*
X111986619Y-212356081D01*
G37*
%TD.AperFunction*%
%TA.AperFunction,Conductor*%
G36*
X114526619Y-212102081D02*
G01*
X114593498Y-212217920D01*
X114688080Y-212312502D01*
X114803919Y-212379381D01*
X114864057Y-212395494D01*
X114186064Y-213073486D01*
X114206206Y-213140123D01*
X114206759Y-213209990D01*
X114174402Y-213261227D01*
X114173991Y-213266439D01*
X114864057Y-213956504D01*
X114803919Y-213972619D01*
X114688080Y-214039498D01*
X114593498Y-214134080D01*
X114526619Y-214249919D01*
X114510504Y-214310057D01*
X113820439Y-213619991D01*
X113820438Y-213619992D01*
X113768574Y-213691376D01*
X113768572Y-213691380D01*
X113718217Y-213790207D01*
X113717285Y-213792139D01*
X113711542Y-213803306D01*
X113707298Y-213807765D01*
X113707581Y-213807969D01*
X113707405Y-213808213D01*
X113707089Y-213807985D01*
X113687533Y-213828535D01*
X113663769Y-213853692D01*
X113663539Y-213853748D01*
X113663376Y-213853921D01*
X113658424Y-213855127D01*
X112949494Y-214564057D01*
X112933381Y-214503919D01*
X112866502Y-214388080D01*
X112771920Y-214293498D01*
X112656081Y-214226619D01*
X112595940Y-214210504D01*
X113286007Y-213520439D01*
X113285327Y-213511804D01*
X113256937Y-213474987D01*
X113250958Y-213405374D01*
X113283564Y-213343579D01*
X113285846Y-213341601D01*
X113286006Y-213339559D01*
X112595942Y-212649495D01*
X112656081Y-212633381D01*
X112771920Y-212566502D01*
X112866502Y-212471920D01*
X112933381Y-212356081D01*
X112949495Y-212295942D01*
X113639559Y-212986006D01*
X113639560Y-212986006D01*
X113650918Y-212970374D01*
X113744546Y-212810363D01*
X113748238Y-212803117D01*
X113751635Y-212799519D01*
X113752755Y-212797563D01*
X113752932Y-212797320D01*
X113753394Y-212797656D01*
X113796208Y-212752317D01*
X113801421Y-212751025D01*
X114510504Y-212041941D01*
X114526619Y-212102081D01*
G37*
%TD.AperFunction*%
%TA.AperFunction,Conductor*%
G36*
X118719559Y-212986007D02*
G01*
X118719559Y-212986006D01*
X118771428Y-212914618D01*
X118771431Y-212914613D01*
X118788556Y-212881003D01*
X118836529Y-212830206D01*
X118904350Y-212813410D01*
X118970485Y-212835946D01*
X118986722Y-212849615D01*
X119141708Y-213004601D01*
X119141713Y-213004605D01*
X119239542Y-213075682D01*
X119282208Y-213131012D01*
X119288187Y-213200625D01*
X119255582Y-213262420D01*
X119239542Y-213276318D01*
X119141713Y-213347394D01*
X119141708Y-213347398D01*
X118981398Y-213507708D01*
X118981394Y-213507713D01*
X118848144Y-213691118D01*
X118848143Y-213691119D01*
X118791214Y-213802848D01*
X118743240Y-213853644D01*
X118738811Y-213854740D01*
X118029494Y-214564057D01*
X118013381Y-214503919D01*
X117946502Y-214388080D01*
X117851920Y-214293498D01*
X117736081Y-214226619D01*
X117675940Y-214210504D01*
X118366007Y-213520439D01*
X118365327Y-213511804D01*
X118336937Y-213474987D01*
X118330958Y-213405374D01*
X118363564Y-213343579D01*
X118365846Y-213341601D01*
X118366006Y-213339559D01*
X117675942Y-212649495D01*
X117736081Y-212633381D01*
X117851920Y-212566502D01*
X117946502Y-212471920D01*
X118013381Y-212356081D01*
X118029494Y-212295942D01*
X118719559Y-212986007D01*
G37*
%TD.AperFunction*%
%TA.AperFunction,Conductor*%
G36*
X128942539Y-110770185D02*
G01*
X128988294Y-110822989D01*
X128999500Y-110874500D01*
X128999500Y-132027097D01*
X128979815Y-132094136D01*
X128927011Y-132139891D01*
X128857853Y-132149835D01*
X128794297Y-132120810D01*
X128760940Y-132074552D01*
X128759396Y-132070826D01*
X128759390Y-132070814D01*
X128671789Y-131939711D01*
X128671786Y-131939707D01*
X128560292Y-131828213D01*
X128560288Y-131828210D01*
X128429185Y-131740609D01*
X128429172Y-131740602D01*
X128283501Y-131680264D01*
X128283489Y-131680261D01*
X128128845Y-131649500D01*
X128128842Y-131649500D01*
X128118628Y-131649500D01*
X128051589Y-131629815D01*
X128005834Y-131577011D01*
X127995890Y-131507853D01*
X127997011Y-131501308D01*
X127997368Y-131499512D01*
X128000500Y-131483767D01*
X128000500Y-131316233D01*
X127967816Y-131151918D01*
X127911473Y-131015896D01*
X127903704Y-130997139D01*
X127810626Y-130857837D01*
X127692162Y-130739373D01*
X127552860Y-130646295D01*
X127398082Y-130582184D01*
X127398074Y-130582182D01*
X127233771Y-130549500D01*
X127233767Y-130549500D01*
X127066233Y-130549500D01*
X127066228Y-130549500D01*
X126901925Y-130582182D01*
X126901917Y-130582184D01*
X126747139Y-130646295D01*
X126607837Y-130739373D01*
X126489373Y-130857837D01*
X126396295Y-130997139D01*
X126332184Y-131151917D01*
X126332182Y-131151925D01*
X126299500Y-131316228D01*
X126299500Y-131483771D01*
X126332182Y-131648074D01*
X126332184Y-131648082D01*
X126396295Y-131802860D01*
X126489373Y-131942162D01*
X126607837Y-132060626D01*
X126657989Y-132094136D01*
X126747137Y-132153703D01*
X126901918Y-132217816D01*
X127011993Y-132239711D01*
X127066228Y-132250499D01*
X127066232Y-132250500D01*
X127125500Y-132250500D01*
X127192539Y-132270185D01*
X127238294Y-132322989D01*
X127249500Y-132374500D01*
X127249500Y-132528846D01*
X127280261Y-132683489D01*
X127280264Y-132683501D01*
X127340602Y-132829172D01*
X127340609Y-132829185D01*
X127428210Y-132960288D01*
X127428213Y-132960292D01*
X127539707Y-133071786D01*
X127539711Y-133071789D01*
X127670814Y-133159390D01*
X127670827Y-133159397D01*
X127816498Y-133219735D01*
X127816503Y-133219737D01*
X127971153Y-133250499D01*
X127971156Y-133250500D01*
X127971158Y-133250500D01*
X128128844Y-133250500D01*
X128128845Y-133250499D01*
X128283497Y-133219737D01*
X128429179Y-133159394D01*
X128560289Y-133071789D01*
X128671789Y-132960289D01*
X128759394Y-132829179D01*
X128760938Y-132825450D01*
X128804778Y-132771047D01*
X128871072Y-132748981D01*
X128938771Y-132766259D01*
X128986383Y-132817395D01*
X128999500Y-132872902D01*
X128999500Y-151519668D01*
X128979815Y-151586707D01*
X128927011Y-151632462D01*
X128857853Y-151642406D01*
X128794297Y-151613381D01*
X128772398Y-151588559D01*
X128721789Y-151512819D01*
X128721786Y-151512815D01*
X128610292Y-151401321D01*
X128610288Y-151401318D01*
X128479185Y-151313717D01*
X128479172Y-151313710D01*
X128333501Y-151253372D01*
X128333489Y-151253369D01*
X128178845Y-151222608D01*
X128178842Y-151222608D01*
X128021158Y-151222608D01*
X128021155Y-151222608D01*
X127866510Y-151253369D01*
X127866498Y-151253372D01*
X127720827Y-151313710D01*
X127720814Y-151313717D01*
X127589711Y-151401318D01*
X127589707Y-151401321D01*
X127478213Y-151512815D01*
X127478210Y-151512819D01*
X127390609Y-151643922D01*
X127390604Y-151643931D01*
X127383775Y-151660419D01*
X127339932Y-151714821D01*
X127273638Y-151736884D01*
X127205939Y-151719603D01*
X127176120Y-151693994D01*
X127176097Y-151694018D01*
X127175792Y-151693713D01*
X127173356Y-151691621D01*
X127171782Y-151689703D01*
X127060292Y-151578213D01*
X127060288Y-151578210D01*
X126929185Y-151490609D01*
X126929172Y-151490602D01*
X126783501Y-151430264D01*
X126783489Y-151430261D01*
X126628845Y-151399500D01*
X126628842Y-151399500D01*
X126471158Y-151399500D01*
X126471155Y-151399500D01*
X126316510Y-151430261D01*
X126316498Y-151430264D01*
X126170827Y-151490602D01*
X126170814Y-151490609D01*
X126039711Y-151578210D01*
X126039707Y-151578213D01*
X125962681Y-151655240D01*
X125901358Y-151688725D01*
X125831666Y-151683741D01*
X125787319Y-151655240D01*
X125710292Y-151578213D01*
X125710288Y-151578210D01*
X125579185Y-151490609D01*
X125579172Y-151490602D01*
X125433501Y-151430264D01*
X125433489Y-151430261D01*
X125278845Y-151399500D01*
X125278842Y-151399500D01*
X125121158Y-151399500D01*
X125121155Y-151399500D01*
X124966510Y-151430261D01*
X124966498Y-151430264D01*
X124820827Y-151490602D01*
X124820814Y-151490609D01*
X124689711Y-151578210D01*
X124689707Y-151578213D01*
X124578213Y-151689707D01*
X124578210Y-151689711D01*
X124490609Y-151820814D01*
X124490602Y-151820827D01*
X124430263Y-151966500D01*
X124430261Y-151966506D01*
X124415146Y-152042495D01*
X124382760Y-152104405D01*
X124340987Y-152132861D01*
X124322289Y-152140606D01*
X124322288Y-152140607D01*
X124191185Y-152228207D01*
X124191177Y-152228213D01*
X124079683Y-152339707D01*
X124079680Y-152339711D01*
X123992079Y-152470814D01*
X123992072Y-152470827D01*
X123931734Y-152616498D01*
X123931731Y-152616510D01*
X123900970Y-152771153D01*
X123900970Y-152928846D01*
X123931731Y-153083489D01*
X123931734Y-153083501D01*
X123992072Y-153229172D01*
X123992079Y-153229185D01*
X124079680Y-153360288D01*
X124079683Y-153360292D01*
X124191180Y-153471789D01*
X124302853Y-153546406D01*
X124347658Y-153600018D01*
X124356365Y-153669343D01*
X124326211Y-153732370D01*
X124302854Y-153752610D01*
X124189707Y-153828213D01*
X124078213Y-153939707D01*
X124078210Y-153939711D01*
X123990609Y-154070814D01*
X123990602Y-154070827D01*
X123930264Y-154216498D01*
X123930261Y-154216510D01*
X123899500Y-154371153D01*
X123899500Y-154528846D01*
X123930261Y-154683489D01*
X123930264Y-154683501D01*
X123990602Y-154829172D01*
X123990609Y-154829185D01*
X124078210Y-154960288D01*
X124078213Y-154960292D01*
X124189707Y-155071786D01*
X124189711Y-155071789D01*
X124320814Y-155159390D01*
X124320827Y-155159397D01*
X124466498Y-155219735D01*
X124466503Y-155219737D01*
X124621153Y-155250499D01*
X124621156Y-155250500D01*
X124621158Y-155250500D01*
X124778844Y-155250500D01*
X124778845Y-155250499D01*
X124933497Y-155219737D01*
X125079179Y-155159394D01*
X125210289Y-155071789D01*
X125321789Y-154960289D01*
X125409394Y-154829179D01*
X125469737Y-154683497D01*
X125500500Y-154528842D01*
X125500500Y-154371158D01*
X125500500Y-154371155D01*
X125500499Y-154371153D01*
X125480326Y-154269737D01*
X125469737Y-154216503D01*
X125466791Y-154209390D01*
X125409397Y-154070827D01*
X125409390Y-154070814D01*
X125321789Y-153939711D01*
X125321786Y-153939707D01*
X125210292Y-153828213D01*
X125210288Y-153828210D01*
X125098616Y-153753593D01*
X125053811Y-153699981D01*
X125045104Y-153630656D01*
X125075258Y-153567628D01*
X125098616Y-153547389D01*
X125122534Y-153531406D01*
X125211759Y-153471789D01*
X125323259Y-153360289D01*
X125410864Y-153229179D01*
X125471207Y-153083497D01*
X125486323Y-153007502D01*
X125518706Y-152945596D01*
X125560486Y-152917136D01*
X125579179Y-152909394D01*
X125710289Y-152821789D01*
X125741476Y-152790602D01*
X125787319Y-152744760D01*
X125848642Y-152711275D01*
X125918334Y-152716259D01*
X125962681Y-152744760D01*
X126039707Y-152821786D01*
X126039711Y-152821789D01*
X126170814Y-152909390D01*
X126170827Y-152909397D01*
X126316498Y-152969735D01*
X126316503Y-152969737D01*
X126471153Y-153000499D01*
X126471156Y-153000500D01*
X126471158Y-153000500D01*
X126628844Y-153000500D01*
X126628845Y-153000499D01*
X126783497Y-152969737D01*
X126896166Y-152923067D01*
X126929172Y-152909397D01*
X126929172Y-152909396D01*
X126929179Y-152909394D01*
X127060289Y-152821789D01*
X127171789Y-152710289D01*
X127259394Y-152579179D01*
X127266222Y-152562695D01*
X127310061Y-152508290D01*
X127376355Y-152486223D01*
X127444054Y-152503500D01*
X127473879Y-152529113D01*
X127473903Y-152529090D01*
X127474206Y-152529393D01*
X127476642Y-152531485D01*
X127478215Y-152533402D01*
X127589707Y-152644894D01*
X127589711Y-152644897D01*
X127720814Y-152732498D01*
X127720827Y-152732505D01*
X127861105Y-152790609D01*
X127866503Y-152792845D01*
X128011998Y-152821786D01*
X128021153Y-152823607D01*
X128021156Y-152823608D01*
X128021158Y-152823608D01*
X128178844Y-152823608D01*
X128178845Y-152823607D01*
X128333497Y-152792845D01*
X128479179Y-152732502D01*
X128610289Y-152644897D01*
X128721789Y-152533397D01*
X128772398Y-152457656D01*
X128826010Y-152412851D01*
X128895335Y-152404144D01*
X128958363Y-152434298D01*
X128995082Y-152493742D01*
X128999500Y-152526547D01*
X128999500Y-217625500D01*
X128979815Y-217692539D01*
X128927011Y-217738294D01*
X128875500Y-217749500D01*
X101124500Y-217749500D01*
X101057461Y-217729815D01*
X101011706Y-217677011D01*
X101000500Y-217625500D01*
X101000500Y-211792646D01*
X108479700Y-211792646D01*
X108479700Y-212019353D01*
X108515165Y-212243272D01*
X108585219Y-212458880D01*
X108585220Y-212458883D01*
X108640056Y-212566502D01*
X108674132Y-212633381D01*
X108688147Y-212660885D01*
X108821394Y-212844286D01*
X108821398Y-212844291D01*
X108981708Y-213004601D01*
X108981713Y-213004605D01*
X109079542Y-213075682D01*
X109122208Y-213131012D01*
X109128187Y-213200625D01*
X109095582Y-213262420D01*
X109079542Y-213276318D01*
X108981713Y-213347394D01*
X108981708Y-213347398D01*
X108821398Y-213507708D01*
X108821394Y-213507713D01*
X108688147Y-213691114D01*
X108585220Y-213893116D01*
X108585219Y-213893119D01*
X108515165Y-214108727D01*
X108479700Y-214332646D01*
X108479700Y-214559353D01*
X108515165Y-214783272D01*
X108585219Y-214998880D01*
X108585220Y-214998883D01*
X108640056Y-215106502D01*
X108674132Y-215173381D01*
X108688147Y-215200885D01*
X108821394Y-215384286D01*
X108821398Y-215384291D01*
X108981708Y-215544601D01*
X108981713Y-215544605D01*
X109093138Y-215625559D01*
X109165118Y-215677855D01*
X109297166Y-215745137D01*
X109367116Y-215780779D01*
X109367119Y-215780780D01*
X109474923Y-215815807D01*
X109582729Y-215850835D01*
X109806646Y-215886300D01*
X109806647Y-215886300D01*
X110033353Y-215886300D01*
X110033354Y-215886300D01*
X110257271Y-215850835D01*
X110472883Y-215780779D01*
X110674882Y-215677855D01*
X110858293Y-215544600D01*
X111013280Y-215389612D01*
X111074600Y-215356130D01*
X111144291Y-215361114D01*
X111200225Y-215402985D01*
X111211442Y-215421000D01*
X111228571Y-215454617D01*
X111280439Y-215526006D01*
X111280439Y-215526007D01*
X111970504Y-214835941D01*
X111986619Y-214896081D01*
X112053498Y-215011920D01*
X112148080Y-215106502D01*
X112263919Y-215173381D01*
X112324057Y-215189494D01*
X111633991Y-215879559D01*
X111705379Y-215931426D01*
X111907311Y-216034316D01*
X112122842Y-216104346D01*
X112346686Y-216139800D01*
X112573314Y-216139800D01*
X112797155Y-216104346D01*
X112797158Y-216104346D01*
X113012688Y-216034316D01*
X113214620Y-215931426D01*
X113286006Y-215879559D01*
X112595942Y-215189495D01*
X112656081Y-215173381D01*
X112771920Y-215106502D01*
X112866502Y-215011920D01*
X112933381Y-214896081D01*
X112949495Y-214835942D01*
X113639559Y-215526006D01*
X113639560Y-215526006D01*
X113650918Y-215510374D01*
X113744546Y-215350363D01*
X113748238Y-215343117D01*
X113751635Y-215339519D01*
X113752755Y-215337563D01*
X113752932Y-215337320D01*
X113753394Y-215337656D01*
X113796208Y-215292317D01*
X113801421Y-215291025D01*
X114510504Y-214581941D01*
X114526619Y-214642081D01*
X114593498Y-214757920D01*
X114688080Y-214852502D01*
X114803919Y-214919381D01*
X114864057Y-214935494D01*
X114173991Y-215625559D01*
X114245379Y-215677426D01*
X114447311Y-215780316D01*
X114662842Y-215850346D01*
X114886686Y-215885800D01*
X115113314Y-215885800D01*
X115337155Y-215850346D01*
X115337158Y-215850346D01*
X115552688Y-215780316D01*
X115667504Y-215721815D01*
X115754620Y-215677426D01*
X115826006Y-215625559D01*
X115135942Y-214935495D01*
X115196081Y-214919381D01*
X115311920Y-214852502D01*
X115406502Y-214757920D01*
X115473381Y-214642081D01*
X115489495Y-214581942D01*
X116197106Y-215289554D01*
X116199908Y-215290143D01*
X116213993Y-215304025D01*
X116231108Y-215313932D01*
X116247395Y-215336947D01*
X116249670Y-215339189D01*
X116251549Y-215342704D01*
X116257290Y-215353870D01*
X116257320Y-215354030D01*
X116257322Y-215354033D01*
X116257321Y-215354033D01*
X116257392Y-215354402D01*
X116257485Y-215354355D01*
X116308573Y-215454620D01*
X116360439Y-215526006D01*
X116360439Y-215526007D01*
X117050504Y-214835941D01*
X117066619Y-214896081D01*
X117133498Y-215011920D01*
X117228080Y-215106502D01*
X117343919Y-215173381D01*
X117404057Y-215189494D01*
X116713991Y-215879559D01*
X116785379Y-215931426D01*
X116987311Y-216034316D01*
X117202842Y-216104346D01*
X117426686Y-216139800D01*
X117653314Y-216139800D01*
X117877155Y-216104346D01*
X117877158Y-216104346D01*
X118092688Y-216034316D01*
X118294620Y-215931426D01*
X118366006Y-215879559D01*
X117675942Y-215189495D01*
X117736081Y-215173381D01*
X117851920Y-215106502D01*
X117946502Y-215011920D01*
X118013381Y-214896081D01*
X118029494Y-214835942D01*
X118719559Y-215526007D01*
X118719559Y-215526006D01*
X118771428Y-215454618D01*
X118771431Y-215454613D01*
X118788556Y-215421003D01*
X118836529Y-215370206D01*
X118904350Y-215353410D01*
X118970485Y-215375946D01*
X118986722Y-215389615D01*
X119141708Y-215544601D01*
X119141713Y-215544605D01*
X119253138Y-215625559D01*
X119325118Y-215677855D01*
X119457166Y-215745137D01*
X119527116Y-215780779D01*
X119527119Y-215780780D01*
X119634923Y-215815807D01*
X119742729Y-215850835D01*
X119966646Y-215886300D01*
X119966647Y-215886300D01*
X120193353Y-215886300D01*
X120193354Y-215886300D01*
X120417271Y-215850835D01*
X120632883Y-215780779D01*
X120834882Y-215677855D01*
X121018293Y-215544600D01*
X121178600Y-215384293D01*
X121311855Y-215200882D01*
X121414779Y-214998883D01*
X121484835Y-214783271D01*
X121520300Y-214559354D01*
X121520300Y-214332646D01*
X121484835Y-214108729D01*
X121414779Y-213893117D01*
X121414779Y-213893116D01*
X121363049Y-213791591D01*
X121311855Y-213691118D01*
X121260179Y-213619991D01*
X121178605Y-213507713D01*
X121178601Y-213507708D01*
X121018293Y-213347400D01*
X121007501Y-213339559D01*
X120920456Y-213276317D01*
X120877791Y-213220989D01*
X120871812Y-213151376D01*
X120904417Y-213089580D01*
X120920456Y-213075682D01*
X121018293Y-213004600D01*
X121178600Y-212844293D01*
X121311855Y-212660882D01*
X121414779Y-212458883D01*
X121484835Y-212243271D01*
X121520300Y-212019354D01*
X121520300Y-211792646D01*
X121484835Y-211568729D01*
X121414779Y-211353117D01*
X121414779Y-211353116D01*
X121363049Y-211251591D01*
X121311855Y-211151118D01*
X121260179Y-211079991D01*
X121178605Y-210967713D01*
X121178601Y-210967708D01*
X121018291Y-210807398D01*
X121018286Y-210807394D01*
X120834885Y-210674147D01*
X120834884Y-210674146D01*
X120834882Y-210674145D01*
X120770166Y-210641170D01*
X120632883Y-210571220D01*
X120632880Y-210571219D01*
X120417272Y-210501165D01*
X120305312Y-210483432D01*
X120193354Y-210465700D01*
X119966646Y-210465700D01*
X119892007Y-210477521D01*
X119742727Y-210501165D01*
X119527119Y-210571219D01*
X119527116Y-210571220D01*
X119325114Y-210674147D01*
X119141713Y-210807394D01*
X119141708Y-210807398D01*
X118981398Y-210967708D01*
X118981394Y-210967713D01*
X118848144Y-211151118D01*
X118848143Y-211151119D01*
X118791214Y-211262848D01*
X118743240Y-211313644D01*
X118738811Y-211314740D01*
X118029494Y-212024057D01*
X118013381Y-211963919D01*
X117946502Y-211848080D01*
X117851920Y-211753498D01*
X117736081Y-211686619D01*
X117675940Y-211670504D01*
X118366007Y-210980439D01*
X118294620Y-210928573D01*
X118092688Y-210825683D01*
X117877157Y-210755653D01*
X117653314Y-210720200D01*
X117426686Y-210720200D01*
X117202844Y-210755653D01*
X117202841Y-210755653D01*
X116987311Y-210825683D01*
X116785376Y-210928575D01*
X116713992Y-210980438D01*
X116713991Y-210980439D01*
X117404057Y-211670504D01*
X117343919Y-211686619D01*
X117228080Y-211753498D01*
X117133498Y-211848080D01*
X117066619Y-211963919D01*
X117050504Y-212024058D01*
X116342878Y-211316432D01*
X116340067Y-211315841D01*
X116326000Y-211301970D01*
X116308902Y-211292077D01*
X116292576Y-211269013D01*
X116290316Y-211266784D01*
X116288457Y-211263308D01*
X116282714Y-211252142D01*
X116282682Y-211251977D01*
X116282679Y-211251971D01*
X116282681Y-211251969D01*
X116282608Y-211251591D01*
X116282512Y-211251641D01*
X116231428Y-211151381D01*
X116194522Y-211100585D01*
X116194521Y-211100582D01*
X116179561Y-211079992D01*
X116179559Y-211079991D01*
X115489494Y-211770056D01*
X115473381Y-211709919D01*
X115406502Y-211594080D01*
X115311920Y-211499498D01*
X115196081Y-211432619D01*
X115135940Y-211416504D01*
X115826007Y-210726439D01*
X115754620Y-210674573D01*
X115552688Y-210571683D01*
X115337157Y-210501653D01*
X115113314Y-210466200D01*
X114886686Y-210466200D01*
X114662844Y-210501653D01*
X114662841Y-210501653D01*
X114447311Y-210571683D01*
X114245376Y-210674575D01*
X114173992Y-210726438D01*
X114173991Y-210726439D01*
X114864057Y-211416504D01*
X114803919Y-211432619D01*
X114688080Y-211499498D01*
X114593498Y-211594080D01*
X114526619Y-211709919D01*
X114510504Y-211770057D01*
X113820439Y-211079991D01*
X113820438Y-211079992D01*
X113768574Y-211151376D01*
X113768572Y-211151380D01*
X113718217Y-211250207D01*
X113717285Y-211252139D01*
X113711542Y-211263306D01*
X113707298Y-211267765D01*
X113707581Y-211267969D01*
X113707405Y-211268213D01*
X113707089Y-211267985D01*
X113687533Y-211288535D01*
X113663769Y-211313692D01*
X113663539Y-211313748D01*
X113663376Y-211313921D01*
X113658424Y-211315127D01*
X112949494Y-212024057D01*
X112933381Y-211963919D01*
X112866502Y-211848080D01*
X112771920Y-211753498D01*
X112656081Y-211686619D01*
X112595940Y-211670504D01*
X113286007Y-210980439D01*
X113214620Y-210928573D01*
X113127502Y-210884184D01*
X113012688Y-210825683D01*
X112797157Y-210755653D01*
X112573314Y-210720200D01*
X112346686Y-210720200D01*
X112122844Y-210755653D01*
X112122841Y-210755653D01*
X111907311Y-210825683D01*
X111705376Y-210928575D01*
X111633992Y-210980438D01*
X111633991Y-210980439D01*
X112324057Y-211670504D01*
X112263919Y-211686619D01*
X112148080Y-211753498D01*
X112053498Y-211848080D01*
X111986619Y-211963919D01*
X111970504Y-212024057D01*
X111262686Y-211316239D01*
X111260615Y-211315804D01*
X111248256Y-211303848D01*
X111233906Y-211296492D01*
X111216358Y-211272992D01*
X111212025Y-211268800D01*
X111210323Y-211265868D01*
X111151855Y-211151118D01*
X111111408Y-211095447D01*
X111111404Y-211095440D01*
X111018605Y-210967713D01*
X111018601Y-210967708D01*
X110858291Y-210807398D01*
X110858286Y-210807394D01*
X110674885Y-210674147D01*
X110674884Y-210674146D01*
X110674882Y-210674145D01*
X110610166Y-210641170D01*
X110472883Y-210571220D01*
X110472880Y-210571219D01*
X110257272Y-210501165D01*
X110145312Y-210483432D01*
X110033354Y-210465700D01*
X109806646Y-210465700D01*
X109732007Y-210477521D01*
X109582727Y-210501165D01*
X109367119Y-210571219D01*
X109367116Y-210571220D01*
X109165114Y-210674147D01*
X108981713Y-210807394D01*
X108981708Y-210807398D01*
X108821398Y-210967708D01*
X108821394Y-210967713D01*
X108688147Y-211151114D01*
X108585220Y-211353116D01*
X108585219Y-211353119D01*
X108515165Y-211568727D01*
X108479700Y-211792646D01*
X101000500Y-211792646D01*
X101000500Y-190661304D01*
X124174500Y-190661304D01*
X124174500Y-190838695D01*
X124209103Y-191012658D01*
X124209106Y-191012667D01*
X124276983Y-191176540D01*
X124276990Y-191176553D01*
X124375535Y-191324034D01*
X124375538Y-191324038D01*
X124500961Y-191449461D01*
X124500965Y-191449464D01*
X124648446Y-191548009D01*
X124648459Y-191548016D01*
X124771363Y-191598923D01*
X124812334Y-191615894D01*
X124812336Y-191615894D01*
X124812341Y-191615896D01*
X124986304Y-191650499D01*
X124986307Y-191650500D01*
X124986309Y-191650500D01*
X125163693Y-191650500D01*
X125163694Y-191650499D01*
X125221682Y-191638964D01*
X125337658Y-191615896D01*
X125337661Y-191615894D01*
X125337666Y-191615894D01*
X125501547Y-191548013D01*
X125649035Y-191449464D01*
X125774464Y-191324035D01*
X125873013Y-191176547D01*
X125940894Y-191012666D01*
X125975500Y-190838691D01*
X125975500Y-190661309D01*
X125975500Y-190661306D01*
X125975499Y-190661304D01*
X125940896Y-190487341D01*
X125940893Y-190487332D01*
X125873016Y-190323459D01*
X125873009Y-190323446D01*
X125774464Y-190175965D01*
X125774461Y-190175961D01*
X125649038Y-190050538D01*
X125649034Y-190050535D01*
X125501553Y-189951990D01*
X125501540Y-189951983D01*
X125337667Y-189884106D01*
X125337658Y-189884103D01*
X125163694Y-189849500D01*
X125163691Y-189849500D01*
X124986309Y-189849500D01*
X124986306Y-189849500D01*
X124812341Y-189884103D01*
X124812332Y-189884106D01*
X124648459Y-189951983D01*
X124648446Y-189951990D01*
X124500965Y-190050535D01*
X124500961Y-190050538D01*
X124375538Y-190175961D01*
X124375535Y-190175965D01*
X124276990Y-190323446D01*
X124276983Y-190323459D01*
X124209106Y-190487332D01*
X124209103Y-190487341D01*
X124174500Y-190661304D01*
X101000500Y-190661304D01*
X101000500Y-185823945D01*
X103989500Y-185823945D01*
X103989500Y-186016054D01*
X104019553Y-186205802D01*
X104078916Y-186388506D01*
X104078918Y-186388509D01*
X104166135Y-186559681D01*
X104279055Y-186715102D01*
X104414898Y-186850945D01*
X104570319Y-186963865D01*
X104706302Y-187033152D01*
X104741493Y-187051083D01*
X104832845Y-187080764D01*
X104924199Y-187110447D01*
X105113945Y-187140500D01*
X105113946Y-187140500D01*
X105306054Y-187140500D01*
X105306055Y-187140500D01*
X105495801Y-187110447D01*
X105678509Y-187051082D01*
X105849681Y-186963865D01*
X106005102Y-186850945D01*
X106140945Y-186715102D01*
X106253865Y-186559681D01*
X106341082Y-186388509D01*
X106400447Y-186205801D01*
X106430500Y-186016055D01*
X106430500Y-185823945D01*
X109069500Y-185823945D01*
X109069500Y-186016054D01*
X109099553Y-186205802D01*
X109158916Y-186388506D01*
X109158918Y-186388509D01*
X109246135Y-186559681D01*
X109359055Y-186715102D01*
X109494898Y-186850945D01*
X109650319Y-186963865D01*
X109786302Y-187033152D01*
X109821493Y-187051083D01*
X109912845Y-187080764D01*
X110004199Y-187110447D01*
X110193945Y-187140500D01*
X110193946Y-187140500D01*
X110386054Y-187140500D01*
X110386055Y-187140500D01*
X110575801Y-187110447D01*
X110758509Y-187051082D01*
X110929681Y-186963865D01*
X111085102Y-186850945D01*
X111220945Y-186715102D01*
X111333865Y-186559681D01*
X111421082Y-186388509D01*
X111480447Y-186205801D01*
X111510500Y-186016055D01*
X111510500Y-185893399D01*
X113645500Y-185893399D01*
X113645500Y-186106600D01*
X113678853Y-186317180D01*
X113678853Y-186317183D01*
X113744734Y-186519944D01*
X113744736Y-186519947D01*
X113841528Y-186709913D01*
X113966846Y-186882397D01*
X114117603Y-187033154D01*
X114290087Y-187158472D01*
X114480053Y-187255264D01*
X114480055Y-187255265D01*
X114669182Y-187316715D01*
X114682821Y-187321147D01*
X114893399Y-187354500D01*
X114893400Y-187354500D01*
X115106600Y-187354500D01*
X115106601Y-187354500D01*
X115317179Y-187321147D01*
X115317182Y-187321146D01*
X115317183Y-187321146D01*
X115519944Y-187255265D01*
X115519944Y-187255264D01*
X115519947Y-187255264D01*
X115709913Y-187158472D01*
X115882397Y-187033154D01*
X116033154Y-186882397D01*
X116158472Y-186709913D01*
X116255264Y-186519947D01*
X116321147Y-186317179D01*
X116354500Y-186106601D01*
X116354500Y-185893399D01*
X116321147Y-185682821D01*
X116321146Y-185682817D01*
X116321146Y-185682816D01*
X116255265Y-185480055D01*
X116255263Y-185480052D01*
X116158471Y-185290086D01*
X116038454Y-185124898D01*
X116033154Y-185117603D01*
X115882397Y-184966846D01*
X115709913Y-184841528D01*
X115519947Y-184744736D01*
X115519944Y-184744734D01*
X115317181Y-184678853D01*
X115176793Y-184656617D01*
X115106601Y-184645500D01*
X114893399Y-184645500D01*
X114823206Y-184656617D01*
X114682819Y-184678853D01*
X114682816Y-184678853D01*
X114480055Y-184744734D01*
X114480052Y-184744736D01*
X114290086Y-184841528D01*
X114117601Y-184966847D01*
X113966847Y-185117601D01*
X113841528Y-185290086D01*
X113744736Y-185480052D01*
X113744734Y-185480055D01*
X113678853Y-185682816D01*
X113678853Y-185682819D01*
X113645500Y-185893399D01*
X111510500Y-185893399D01*
X111510500Y-185823945D01*
X111480447Y-185634199D01*
X111430363Y-185480055D01*
X111421083Y-185451493D01*
X111338842Y-185290087D01*
X111333865Y-185280319D01*
X111220945Y-185124898D01*
X111085102Y-184989055D01*
X110929681Y-184876135D01*
X110758506Y-184788916D01*
X110575802Y-184729553D01*
X110480928Y-184714526D01*
X110386055Y-184699500D01*
X110193945Y-184699500D01*
X110130696Y-184709517D01*
X110004197Y-184729553D01*
X109821493Y-184788916D01*
X109650318Y-184876135D01*
X109561645Y-184940560D01*
X109494898Y-184989055D01*
X109494896Y-184989057D01*
X109494895Y-184989057D01*
X109359057Y-185124895D01*
X109359057Y-185124896D01*
X109359055Y-185124898D01*
X109310560Y-185191645D01*
X109246135Y-185280318D01*
X109158916Y-185451493D01*
X109099553Y-185634197D01*
X109069500Y-185823945D01*
X106430500Y-185823945D01*
X106400447Y-185634199D01*
X106350363Y-185480055D01*
X106341083Y-185451493D01*
X106258842Y-185290087D01*
X106253865Y-185280319D01*
X106140945Y-185124898D01*
X106005102Y-184989055D01*
X105849681Y-184876135D01*
X105678506Y-184788916D01*
X105495802Y-184729553D01*
X105400928Y-184714526D01*
X105306055Y-184699500D01*
X105113945Y-184699500D01*
X105050696Y-184709517D01*
X104924197Y-184729553D01*
X104741493Y-184788916D01*
X104570318Y-184876135D01*
X104481645Y-184940560D01*
X104414898Y-184989055D01*
X104414896Y-184989057D01*
X104414895Y-184989057D01*
X104279057Y-185124895D01*
X104279057Y-185124896D01*
X104279055Y-185124898D01*
X104230560Y-185191645D01*
X104166135Y-185280318D01*
X104078916Y-185451493D01*
X104019553Y-185634197D01*
X103989500Y-185823945D01*
X101000500Y-185823945D01*
X101000500Y-183283945D01*
X106529500Y-183283945D01*
X106529500Y-183476054D01*
X106559553Y-183665802D01*
X106618916Y-183848506D01*
X106618918Y-183848509D01*
X106706135Y-184019681D01*
X106819055Y-184175102D01*
X106954898Y-184310945D01*
X107110319Y-184423865D01*
X107281491Y-184511082D01*
X107281493Y-184511083D01*
X107372845Y-184540764D01*
X107464199Y-184570447D01*
X107653945Y-184600500D01*
X107653946Y-184600500D01*
X107846054Y-184600500D01*
X107846055Y-184600500D01*
X108035801Y-184570447D01*
X108218509Y-184511082D01*
X108389681Y-184423865D01*
X108545102Y-184310945D01*
X108680945Y-184175102D01*
X108793865Y-184019681D01*
X108881082Y-183848509D01*
X108940447Y-183665801D01*
X108970500Y-183476055D01*
X108970500Y-183283945D01*
X108940447Y-183094199D01*
X108881082Y-182911491D01*
X108793865Y-182740319D01*
X108782991Y-182725353D01*
X108719493Y-182637954D01*
X108719491Y-182637952D01*
X108719406Y-182637836D01*
X108680945Y-182584898D01*
X108667200Y-182571153D01*
X120649500Y-182571153D01*
X120649500Y-182728846D01*
X120680261Y-182883489D01*
X120680264Y-182883501D01*
X120740602Y-183029172D01*
X120740609Y-183029185D01*
X120828210Y-183160288D01*
X120828213Y-183160292D01*
X120939707Y-183271786D01*
X120939711Y-183271789D01*
X121070814Y-183359390D01*
X121070827Y-183359397D01*
X121216498Y-183419735D01*
X121216503Y-183419737D01*
X121371153Y-183450499D01*
X121371156Y-183450500D01*
X121371158Y-183450500D01*
X121528844Y-183450500D01*
X121528845Y-183450499D01*
X121683497Y-183419737D01*
X121829179Y-183359394D01*
X121960289Y-183271789D01*
X122071789Y-183160289D01*
X122159394Y-183029179D01*
X122219737Y-182883497D01*
X122250500Y-182728842D01*
X122250500Y-182571158D01*
X122250500Y-182571155D01*
X122250499Y-182571153D01*
X122219738Y-182416510D01*
X122219737Y-182416503D01*
X122186448Y-182336135D01*
X122159397Y-182270827D01*
X122159390Y-182270814D01*
X122071789Y-182139711D01*
X122071786Y-182139707D01*
X121960292Y-182028213D01*
X121960288Y-182028210D01*
X121829185Y-181940609D01*
X121829172Y-181940602D01*
X121683501Y-181880264D01*
X121683489Y-181880261D01*
X121528845Y-181849500D01*
X121528842Y-181849500D01*
X121371158Y-181849500D01*
X121371155Y-181849500D01*
X121216510Y-181880261D01*
X121216498Y-181880264D01*
X121070827Y-181940602D01*
X121070814Y-181940609D01*
X120939711Y-182028210D01*
X120939707Y-182028213D01*
X120828213Y-182139707D01*
X120828210Y-182139711D01*
X120740609Y-182270814D01*
X120740602Y-182270827D01*
X120680264Y-182416498D01*
X120680261Y-182416510D01*
X120649500Y-182571153D01*
X108667200Y-182571153D01*
X108545102Y-182449055D01*
X108389681Y-182336135D01*
X108261496Y-182270821D01*
X108218506Y-182248916D01*
X108035802Y-182189553D01*
X107940928Y-182174526D01*
X107846055Y-182159500D01*
X107653945Y-182159500D01*
X107590696Y-182169517D01*
X107464197Y-182189553D01*
X107281493Y-182248916D01*
X107110318Y-182336135D01*
X107021645Y-182400560D01*
X106954898Y-182449055D01*
X106954896Y-182449057D01*
X106954895Y-182449057D01*
X106819057Y-182584895D01*
X106819057Y-182584896D01*
X106819055Y-182584898D01*
X106780509Y-182637952D01*
X106706135Y-182740318D01*
X106618916Y-182911493D01*
X106559553Y-183094197D01*
X106529500Y-183283945D01*
X101000500Y-183283945D01*
X101000500Y-180534304D01*
X110972500Y-180534304D01*
X110972500Y-180711695D01*
X111007103Y-180885658D01*
X111007106Y-180885667D01*
X111074983Y-181049540D01*
X111074990Y-181049553D01*
X111173535Y-181197034D01*
X111173538Y-181197038D01*
X111298961Y-181322461D01*
X111298965Y-181322464D01*
X111446446Y-181421009D01*
X111446459Y-181421016D01*
X111569363Y-181471923D01*
X111610334Y-181488894D01*
X111610336Y-181488894D01*
X111610341Y-181488896D01*
X111784304Y-181523499D01*
X111784307Y-181523500D01*
X111784309Y-181523500D01*
X111961693Y-181523500D01*
X111961694Y-181523499D01*
X112019682Y-181511964D01*
X112135658Y-181488896D01*
X112135661Y-181488894D01*
X112135666Y-181488894D01*
X112299547Y-181421013D01*
X112447035Y-181322464D01*
X112572464Y-181197035D01*
X112656576Y-181071153D01*
X123549500Y-181071153D01*
X123549500Y-181228846D01*
X123580261Y-181383489D01*
X123580264Y-181383501D01*
X123640602Y-181529172D01*
X123640609Y-181529185D01*
X123728210Y-181660288D01*
X123728213Y-181660292D01*
X123839707Y-181771786D01*
X123839711Y-181771789D01*
X123970814Y-181859390D01*
X123970827Y-181859397D01*
X124116498Y-181919735D01*
X124116503Y-181919737D01*
X124271153Y-181950499D01*
X124271156Y-181950500D01*
X124271158Y-181950500D01*
X124428844Y-181950500D01*
X124428845Y-181950499D01*
X124583497Y-181919737D01*
X124729179Y-181859394D01*
X124860289Y-181771789D01*
X124971789Y-181660289D01*
X125059394Y-181529179D01*
X125119737Y-181383497D01*
X125120994Y-181377175D01*
X125153373Y-181315265D01*
X125214086Y-181280686D01*
X125266803Y-181279743D01*
X125371153Y-181300499D01*
X125371156Y-181300500D01*
X125371158Y-181300500D01*
X125528844Y-181300500D01*
X125528845Y-181300499D01*
X125683497Y-181269737D01*
X125829179Y-181209394D01*
X125960289Y-181121789D01*
X126071789Y-181010289D01*
X126159394Y-180879179D01*
X126219737Y-180733497D01*
X126250500Y-180578842D01*
X126250500Y-180421158D01*
X126250500Y-180421155D01*
X126250499Y-180421153D01*
X126248009Y-180408634D01*
X126219737Y-180266503D01*
X126204138Y-180228844D01*
X126159397Y-180120827D01*
X126159390Y-180120814D01*
X126071789Y-179989711D01*
X126071786Y-179989707D01*
X125960292Y-179878213D01*
X125960288Y-179878210D01*
X125829185Y-179790609D01*
X125829172Y-179790602D01*
X125683501Y-179730264D01*
X125683489Y-179730261D01*
X125528845Y-179699500D01*
X125528842Y-179699500D01*
X125371158Y-179699500D01*
X125371155Y-179699500D01*
X125216510Y-179730261D01*
X125216498Y-179730264D01*
X125070827Y-179790602D01*
X125070814Y-179790609D01*
X124939711Y-179878210D01*
X124939707Y-179878213D01*
X124828213Y-179989707D01*
X124828210Y-179989711D01*
X124740609Y-180120814D01*
X124740602Y-180120827D01*
X124680264Y-180266498D01*
X124680262Y-180266505D01*
X124679002Y-180272840D01*
X124646612Y-180334748D01*
X124585893Y-180369318D01*
X124533195Y-180370256D01*
X124428846Y-180349500D01*
X124428842Y-180349500D01*
X124271158Y-180349500D01*
X124271155Y-180349500D01*
X124116510Y-180380261D01*
X124116498Y-180380264D01*
X123970827Y-180440602D01*
X123970814Y-180440609D01*
X123839711Y-180528210D01*
X123839707Y-180528213D01*
X123728213Y-180639707D01*
X123728210Y-180639711D01*
X123640609Y-180770814D01*
X123640602Y-180770827D01*
X123580264Y-180916498D01*
X123580261Y-180916510D01*
X123549500Y-181071153D01*
X112656576Y-181071153D01*
X112671013Y-181049547D01*
X112738894Y-180885666D01*
X112740184Y-180879185D01*
X112773499Y-180711695D01*
X112773500Y-180711693D01*
X112773500Y-180534306D01*
X112773499Y-180534304D01*
X112738896Y-180360341D01*
X112738893Y-180360332D01*
X112671016Y-180196459D01*
X112671009Y-180196446D01*
X112629255Y-180133957D01*
X112587290Y-180071153D01*
X114799500Y-180071153D01*
X114799500Y-180228846D01*
X114830261Y-180383489D01*
X114830264Y-180383501D01*
X114890602Y-180529172D01*
X114890609Y-180529185D01*
X114978210Y-180660288D01*
X114978213Y-180660292D01*
X115089707Y-180771786D01*
X115089711Y-180771789D01*
X115220814Y-180859390D01*
X115220827Y-180859397D01*
X115358683Y-180916498D01*
X115366503Y-180919737D01*
X115521153Y-180950499D01*
X115521156Y-180950500D01*
X115521158Y-180950500D01*
X115678844Y-180950500D01*
X115678845Y-180950499D01*
X115689179Y-180948443D01*
X115714287Y-180943450D01*
X115714292Y-180943449D01*
X115799800Y-180926439D01*
X115833497Y-180919737D01*
X115979179Y-180859394D01*
X116110289Y-180771789D01*
X116221789Y-180660289D01*
X116309394Y-180529179D01*
X116369737Y-180383497D01*
X116400500Y-180228842D01*
X116400500Y-180071158D01*
X116400500Y-180071155D01*
X116400499Y-180071153D01*
X116369737Y-179916503D01*
X116354138Y-179878844D01*
X116309394Y-179770820D01*
X116276207Y-179721153D01*
X120499500Y-179721153D01*
X120499500Y-179878846D01*
X120530261Y-180033489D01*
X120530264Y-180033501D01*
X120590602Y-180179172D01*
X120590609Y-180179185D01*
X120678210Y-180310288D01*
X120678213Y-180310292D01*
X120789707Y-180421786D01*
X120789711Y-180421789D01*
X120920814Y-180509390D01*
X120920827Y-180509397D01*
X121066498Y-180569735D01*
X121066503Y-180569737D01*
X121221153Y-180600499D01*
X121221156Y-180600500D01*
X121221158Y-180600500D01*
X121378844Y-180600500D01*
X121378845Y-180600499D01*
X121533497Y-180569737D01*
X121679179Y-180509394D01*
X121810289Y-180421789D01*
X121921789Y-180310289D01*
X122009394Y-180179179D01*
X122069737Y-180033497D01*
X122100500Y-179878842D01*
X122100500Y-179721158D01*
X122100500Y-179721155D01*
X122100499Y-179721153D01*
X122069738Y-179566510D01*
X122069737Y-179566503D01*
X122053876Y-179528210D01*
X122009397Y-179420827D01*
X122009390Y-179420814D01*
X121921789Y-179289711D01*
X121921786Y-179289707D01*
X121810292Y-179178213D01*
X121810288Y-179178210D01*
X121679185Y-179090609D01*
X121679172Y-179090602D01*
X121533501Y-179030264D01*
X121533489Y-179030261D01*
X121378845Y-178999500D01*
X121378842Y-178999500D01*
X121221158Y-178999500D01*
X121221155Y-178999500D01*
X121066510Y-179030261D01*
X121066498Y-179030264D01*
X120920827Y-179090602D01*
X120920814Y-179090609D01*
X120789711Y-179178210D01*
X120789707Y-179178213D01*
X120678213Y-179289707D01*
X120678210Y-179289711D01*
X120590609Y-179420814D01*
X120590602Y-179420827D01*
X120530264Y-179566498D01*
X120530261Y-179566510D01*
X120499500Y-179721153D01*
X116276207Y-179721153D01*
X116221789Y-179639711D01*
X116221786Y-179639707D01*
X116110292Y-179528213D01*
X116110288Y-179528210D01*
X115979185Y-179440609D01*
X115979172Y-179440602D01*
X115833501Y-179380264D01*
X115833489Y-179380261D01*
X115678845Y-179349500D01*
X115678842Y-179349500D01*
X115521158Y-179349500D01*
X115521155Y-179349500D01*
X115366510Y-179380261D01*
X115366498Y-179380264D01*
X115220827Y-179440602D01*
X115220814Y-179440609D01*
X115089711Y-179528210D01*
X115089707Y-179528213D01*
X114978213Y-179639707D01*
X114978210Y-179639711D01*
X114890609Y-179770814D01*
X114890602Y-179770827D01*
X114830264Y-179916498D01*
X114830261Y-179916510D01*
X114799500Y-180071153D01*
X112587290Y-180071153D01*
X112572464Y-180048965D01*
X112572461Y-180048961D01*
X112447038Y-179923538D01*
X112447034Y-179923535D01*
X112299553Y-179824990D01*
X112299540Y-179824983D01*
X112135667Y-179757106D01*
X112135658Y-179757103D01*
X111961694Y-179722500D01*
X111961691Y-179722500D01*
X111784309Y-179722500D01*
X111784306Y-179722500D01*
X111610341Y-179757103D01*
X111610332Y-179757106D01*
X111446459Y-179824983D01*
X111446446Y-179824990D01*
X111298965Y-179923535D01*
X111298961Y-179923538D01*
X111173538Y-180048961D01*
X111173535Y-180048965D01*
X111074990Y-180196446D01*
X111074983Y-180196459D01*
X111007106Y-180360332D01*
X111007103Y-180360341D01*
X110972500Y-180534304D01*
X101000500Y-180534304D01*
X101000500Y-177546153D01*
X113649500Y-177546153D01*
X113649500Y-177703846D01*
X113680261Y-177858489D01*
X113680264Y-177858501D01*
X113740602Y-178004172D01*
X113740609Y-178004185D01*
X113828210Y-178135288D01*
X113828213Y-178135292D01*
X113939707Y-178246786D01*
X113939711Y-178246789D01*
X114070814Y-178334390D01*
X114070827Y-178334397D01*
X114216498Y-178394735D01*
X114216503Y-178394737D01*
X114371153Y-178425499D01*
X114371156Y-178425500D01*
X114371158Y-178425500D01*
X114528844Y-178425500D01*
X114528845Y-178425499D01*
X114683497Y-178394737D01*
X114829179Y-178334394D01*
X114960289Y-178246789D01*
X115071789Y-178135289D01*
X115159394Y-178004179D01*
X115219737Y-177858497D01*
X115250500Y-177703842D01*
X115250500Y-177546158D01*
X115250500Y-177546155D01*
X115250499Y-177546153D01*
X115219738Y-177391510D01*
X115219737Y-177391503D01*
X115219735Y-177391498D01*
X115159397Y-177245827D01*
X115159390Y-177245814D01*
X115071789Y-177114711D01*
X115071786Y-177114707D01*
X114960292Y-177003213D01*
X114960288Y-177003210D01*
X114829185Y-176915609D01*
X114829172Y-176915602D01*
X114683501Y-176855264D01*
X114683489Y-176855261D01*
X114528845Y-176824500D01*
X114528842Y-176824500D01*
X114371158Y-176824500D01*
X114371155Y-176824500D01*
X114216510Y-176855261D01*
X114216498Y-176855264D01*
X114070827Y-176915602D01*
X114070814Y-176915609D01*
X113939711Y-177003210D01*
X113939707Y-177003213D01*
X113828213Y-177114707D01*
X113828210Y-177114711D01*
X113740609Y-177245814D01*
X113740602Y-177245827D01*
X113680264Y-177391498D01*
X113680261Y-177391510D01*
X113649500Y-177546153D01*
X101000500Y-177546153D01*
X101000500Y-174191153D01*
X112569500Y-174191153D01*
X112569500Y-174348846D01*
X112600261Y-174503489D01*
X112600264Y-174503501D01*
X112660602Y-174649172D01*
X112660609Y-174649185D01*
X112748210Y-174780288D01*
X112748213Y-174780292D01*
X112859707Y-174891786D01*
X112859711Y-174891789D01*
X112990814Y-174979390D01*
X112990827Y-174979397D01*
X113136498Y-175039735D01*
X113136503Y-175039737D01*
X113267927Y-175065879D01*
X113291153Y-175070499D01*
X113291156Y-175070500D01*
X113291158Y-175070500D01*
X113448844Y-175070500D01*
X113448845Y-175070499D01*
X113603497Y-175039737D01*
X113749179Y-174979394D01*
X113880289Y-174891789D01*
X113991789Y-174780289D01*
X114079394Y-174649179D01*
X114139737Y-174503497D01*
X114170500Y-174348842D01*
X114170500Y-174191158D01*
X114170500Y-174191154D01*
X114169581Y-174186533D01*
X119614880Y-174186533D01*
X119614880Y-174344226D01*
X119645641Y-174498869D01*
X119645644Y-174498881D01*
X119705982Y-174644552D01*
X119705989Y-174644565D01*
X119793590Y-174775668D01*
X119793593Y-174775672D01*
X119905087Y-174887166D01*
X119905091Y-174887169D01*
X120036194Y-174974770D01*
X120036207Y-174974777D01*
X120181878Y-175035115D01*
X120181883Y-175035117D01*
X120336533Y-175065879D01*
X120336536Y-175065880D01*
X120336538Y-175065880D01*
X120494224Y-175065880D01*
X120494225Y-175065879D01*
X120648877Y-175035117D01*
X120794559Y-174974774D01*
X120925669Y-174887169D01*
X121037169Y-174775669D01*
X121124774Y-174644559D01*
X121185117Y-174498877D01*
X121215880Y-174344222D01*
X121215880Y-174186538D01*
X121215880Y-174186535D01*
X121215879Y-174186533D01*
X121185118Y-174031890D01*
X121185117Y-174031883D01*
X121185115Y-174031878D01*
X121124777Y-173886207D01*
X121124770Y-173886194D01*
X121037169Y-173755091D01*
X121037166Y-173755087D01*
X120925672Y-173643593D01*
X120925668Y-173643590D01*
X120794565Y-173555989D01*
X120794552Y-173555982D01*
X120648881Y-173495644D01*
X120648869Y-173495641D01*
X120494225Y-173464880D01*
X120494222Y-173464880D01*
X120336538Y-173464880D01*
X120336535Y-173464880D01*
X120181890Y-173495641D01*
X120181878Y-173495644D01*
X120036207Y-173555982D01*
X120036194Y-173555989D01*
X119905091Y-173643590D01*
X119905087Y-173643593D01*
X119793593Y-173755087D01*
X119793590Y-173755091D01*
X119705989Y-173886194D01*
X119705982Y-173886207D01*
X119645644Y-174031878D01*
X119645641Y-174031890D01*
X119614880Y-174186533D01*
X114169581Y-174186533D01*
X114139738Y-174036510D01*
X114139737Y-174036503D01*
X114108170Y-173960292D01*
X114079397Y-173890827D01*
X114079390Y-173890814D01*
X113991789Y-173759711D01*
X113991786Y-173759707D01*
X113880292Y-173648213D01*
X113880288Y-173648210D01*
X113749185Y-173560609D01*
X113749172Y-173560602D01*
X113603501Y-173500264D01*
X113603489Y-173500261D01*
X113448845Y-173469500D01*
X113448842Y-173469500D01*
X113291158Y-173469500D01*
X113291155Y-173469500D01*
X113136510Y-173500261D01*
X113136498Y-173500264D01*
X112990827Y-173560602D01*
X112990814Y-173560609D01*
X112859711Y-173648210D01*
X112859707Y-173648213D01*
X112748213Y-173759707D01*
X112748210Y-173759711D01*
X112660609Y-173890814D01*
X112660602Y-173890827D01*
X112600264Y-174036498D01*
X112600261Y-174036510D01*
X112569500Y-174191153D01*
X101000500Y-174191153D01*
X101000500Y-172411304D01*
X102299500Y-172411304D01*
X102299500Y-172588695D01*
X102334103Y-172762658D01*
X102334106Y-172762667D01*
X102401983Y-172926540D01*
X102401990Y-172926553D01*
X102500535Y-173074034D01*
X102500538Y-173074038D01*
X102625961Y-173199461D01*
X102625965Y-173199464D01*
X102773446Y-173298009D01*
X102773459Y-173298016D01*
X102896363Y-173348923D01*
X102937334Y-173365894D01*
X102937336Y-173365894D01*
X102937341Y-173365896D01*
X103111304Y-173400499D01*
X103111307Y-173400500D01*
X103111309Y-173400500D01*
X103288693Y-173400500D01*
X103288694Y-173400499D01*
X103346682Y-173388964D01*
X103462658Y-173365896D01*
X103462661Y-173365894D01*
X103462666Y-173365894D01*
X103626547Y-173298013D01*
X103774035Y-173199464D01*
X103899464Y-173074035D01*
X103998013Y-172926547D01*
X104065894Y-172762666D01*
X104070282Y-172740609D01*
X104100499Y-172588695D01*
X104100500Y-172588693D01*
X104100500Y-172411306D01*
X104100499Y-172411304D01*
X104065894Y-172237336D01*
X104065894Y-172237334D01*
X104065891Y-172237328D01*
X104064356Y-172232264D01*
X104063728Y-172162397D01*
X104100973Y-172103282D01*
X104158822Y-172074645D01*
X104183497Y-172069737D01*
X104329179Y-172009394D01*
X104460289Y-171921789D01*
X104571789Y-171810289D01*
X104659394Y-171679179D01*
X104719737Y-171533497D01*
X104750500Y-171378842D01*
X104750500Y-171221158D01*
X104750500Y-171221155D01*
X104750499Y-171221153D01*
X104740553Y-171171153D01*
X104719737Y-171066503D01*
X104717857Y-171061964D01*
X104659397Y-170920827D01*
X104659390Y-170920814D01*
X104571789Y-170789711D01*
X104571786Y-170789707D01*
X104460292Y-170678213D01*
X104460288Y-170678210D01*
X104329185Y-170590609D01*
X104329172Y-170590602D01*
X104183501Y-170530264D01*
X104183489Y-170530261D01*
X104028845Y-170499500D01*
X104028842Y-170499500D01*
X103871158Y-170499500D01*
X103871155Y-170499500D01*
X103716510Y-170530261D01*
X103716498Y-170530264D01*
X103570827Y-170590602D01*
X103570814Y-170590609D01*
X103439711Y-170678210D01*
X103439707Y-170678213D01*
X103328213Y-170789707D01*
X103328210Y-170789711D01*
X103240609Y-170920814D01*
X103240602Y-170920827D01*
X103180264Y-171066498D01*
X103180261Y-171066510D01*
X103149500Y-171221153D01*
X103149500Y-171378846D01*
X103166075Y-171462176D01*
X103159848Y-171531768D01*
X103116984Y-171586945D01*
X103068650Y-171607984D01*
X102937340Y-171634104D01*
X102937332Y-171634106D01*
X102773459Y-171701983D01*
X102773446Y-171701990D01*
X102625965Y-171800535D01*
X102625961Y-171800538D01*
X102500538Y-171925961D01*
X102500535Y-171925965D01*
X102401990Y-172073446D01*
X102401983Y-172073459D01*
X102334106Y-172237332D01*
X102334103Y-172237341D01*
X102299500Y-172411304D01*
X101000500Y-172411304D01*
X101000500Y-169936228D01*
X107969500Y-169936228D01*
X107969500Y-170103771D01*
X108002182Y-170268074D01*
X108002184Y-170268082D01*
X108066295Y-170422860D01*
X108159373Y-170562162D01*
X108277837Y-170680626D01*
X108346553Y-170726540D01*
X108417137Y-170773703D01*
X108571918Y-170837816D01*
X108736228Y-170870499D01*
X108736232Y-170870500D01*
X108736233Y-170870500D01*
X108903768Y-170870500D01*
X108903769Y-170870499D01*
X109068082Y-170837816D01*
X109222863Y-170773703D01*
X109241419Y-170761304D01*
X111449500Y-170761304D01*
X111449500Y-170938695D01*
X111484103Y-171112658D01*
X111484106Y-171112667D01*
X111551983Y-171276540D01*
X111551990Y-171276553D01*
X111650535Y-171424034D01*
X111650538Y-171424038D01*
X111775961Y-171549461D01*
X111775965Y-171549464D01*
X111923446Y-171648009D01*
X111923459Y-171648016D01*
X112046363Y-171698923D01*
X112087334Y-171715894D01*
X112087336Y-171715894D01*
X112087341Y-171715896D01*
X112261304Y-171750499D01*
X112261307Y-171750500D01*
X112261309Y-171750500D01*
X112438693Y-171750500D01*
X112438694Y-171750499D01*
X112496682Y-171738964D01*
X112612658Y-171715896D01*
X112612661Y-171715894D01*
X112612666Y-171715894D01*
X112776547Y-171648013D01*
X112924035Y-171549464D01*
X113049464Y-171424035D01*
X113148013Y-171276547D01*
X113215894Y-171112666D01*
X113218810Y-171098009D01*
X113250499Y-170938695D01*
X113250500Y-170938693D01*
X113250500Y-170761306D01*
X113250499Y-170761304D01*
X113215896Y-170587341D01*
X113215893Y-170587332D01*
X113205467Y-170562162D01*
X113192254Y-170530261D01*
X113148016Y-170423459D01*
X113148009Y-170423446D01*
X113049466Y-170275968D01*
X113049461Y-170275961D01*
X112984804Y-170211304D01*
X115449500Y-170211304D01*
X115449500Y-170388695D01*
X115484103Y-170562658D01*
X115484106Y-170562667D01*
X115551983Y-170726540D01*
X115551990Y-170726553D01*
X115650535Y-170874034D01*
X115650538Y-170874038D01*
X115775961Y-170999461D01*
X115775965Y-170999464D01*
X115923446Y-171098009D01*
X115923459Y-171098016D01*
X116046363Y-171148923D01*
X116087334Y-171165894D01*
X116087336Y-171165894D01*
X116087341Y-171165896D01*
X116261304Y-171200499D01*
X116261307Y-171200500D01*
X116261309Y-171200500D01*
X116438693Y-171200500D01*
X116438694Y-171200499D01*
X116496682Y-171188964D01*
X116586228Y-171171153D01*
X124099500Y-171171153D01*
X124099500Y-171328846D01*
X124130261Y-171483489D01*
X124130264Y-171483501D01*
X124190602Y-171629172D01*
X124190609Y-171629185D01*
X124278210Y-171760288D01*
X124278213Y-171760292D01*
X124380240Y-171862319D01*
X124413725Y-171923642D01*
X124408741Y-171993334D01*
X124381999Y-172034947D01*
X124382072Y-172035007D01*
X124381559Y-172035630D01*
X124380247Y-172037674D01*
X124378215Y-172039706D01*
X124378208Y-172039714D01*
X124290609Y-172170814D01*
X124290602Y-172170827D01*
X124230264Y-172316498D01*
X124230261Y-172316510D01*
X124199500Y-172471153D01*
X124199500Y-172628846D01*
X124230261Y-172783489D01*
X124230264Y-172783501D01*
X124290602Y-172929172D01*
X124290609Y-172929185D01*
X124378210Y-173060288D01*
X124378213Y-173060292D01*
X124489707Y-173171786D01*
X124489711Y-173171789D01*
X124620814Y-173259390D01*
X124620827Y-173259397D01*
X124714056Y-173298013D01*
X124766503Y-173319737D01*
X124809312Y-173328252D01*
X124871221Y-173360636D01*
X124905796Y-173421351D01*
X124909120Y-173449869D01*
X124909120Y-173528846D01*
X124939881Y-173683489D01*
X124939884Y-173683501D01*
X125000222Y-173829172D01*
X125000229Y-173829185D01*
X125087830Y-173960288D01*
X125087833Y-173960292D01*
X125199327Y-174071786D01*
X125199331Y-174071789D01*
X125330434Y-174159390D01*
X125330447Y-174159397D01*
X125476118Y-174219735D01*
X125476123Y-174219737D01*
X125630773Y-174250499D01*
X125630776Y-174250500D01*
X125630778Y-174250500D01*
X125788464Y-174250500D01*
X125788465Y-174250499D01*
X125943117Y-174219737D01*
X126088799Y-174159394D01*
X126219909Y-174071789D01*
X126331409Y-173960289D01*
X126419014Y-173829179D01*
X126479357Y-173683497D01*
X126510120Y-173528842D01*
X126510120Y-173371158D01*
X126510120Y-173371155D01*
X126510119Y-173371153D01*
X126495570Y-173298013D01*
X126479357Y-173216503D01*
X126420347Y-173074038D01*
X126419017Y-173070827D01*
X126419010Y-173070814D01*
X126331409Y-172939711D01*
X126331406Y-172939707D01*
X126219912Y-172828213D01*
X126219908Y-172828210D01*
X126088805Y-172740609D01*
X126088792Y-172740602D01*
X125943121Y-172680264D01*
X125943111Y-172680261D01*
X125900308Y-172671747D01*
X125838397Y-172639362D01*
X125803823Y-172578646D01*
X125800500Y-172550130D01*
X125800500Y-172471155D01*
X125800499Y-172471153D01*
X125788595Y-172411309D01*
X125769737Y-172316503D01*
X125769735Y-172316498D01*
X125709397Y-172170827D01*
X125709390Y-172170814D01*
X125621789Y-172039711D01*
X125621786Y-172039707D01*
X125519759Y-171937680D01*
X125486274Y-171876357D01*
X125491258Y-171806665D01*
X125518002Y-171765054D01*
X125517928Y-171764993D01*
X125518454Y-171764351D01*
X125519764Y-171762313D01*
X125521789Y-171760289D01*
X125609394Y-171629179D01*
X125669737Y-171483497D01*
X125700500Y-171328842D01*
X125700500Y-171171158D01*
X125700500Y-171171155D01*
X125700499Y-171171153D01*
X125688865Y-171112666D01*
X125669737Y-171016503D01*
X125637508Y-170938695D01*
X125609397Y-170870827D01*
X125609390Y-170870814D01*
X125521789Y-170739711D01*
X125521786Y-170739707D01*
X125410292Y-170628213D01*
X125410288Y-170628210D01*
X125279185Y-170540609D01*
X125279172Y-170540602D01*
X125133501Y-170480264D01*
X125133489Y-170480261D01*
X124978845Y-170449500D01*
X124978842Y-170449500D01*
X124821158Y-170449500D01*
X124821155Y-170449500D01*
X124666510Y-170480261D01*
X124666498Y-170480264D01*
X124520827Y-170540602D01*
X124520814Y-170540609D01*
X124389711Y-170628210D01*
X124389707Y-170628213D01*
X124278213Y-170739707D01*
X124278210Y-170739711D01*
X124190609Y-170870814D01*
X124190602Y-170870827D01*
X124130264Y-171016498D01*
X124130261Y-171016510D01*
X124099500Y-171171153D01*
X116586228Y-171171153D01*
X116612658Y-171165896D01*
X116612661Y-171165894D01*
X116612666Y-171165894D01*
X116776547Y-171098013D01*
X116776553Y-171098009D01*
X116830499Y-171061964D01*
X116898524Y-171016510D01*
X116924035Y-170999464D01*
X117049464Y-170874035D01*
X117148013Y-170726547D01*
X117215894Y-170562666D01*
X117215995Y-170562162D01*
X117250499Y-170388695D01*
X117250500Y-170388693D01*
X117250500Y-170211306D01*
X117250499Y-170211304D01*
X117215896Y-170037341D01*
X117215893Y-170037332D01*
X117148016Y-169873459D01*
X117148009Y-169873446D01*
X117049464Y-169725965D01*
X117049461Y-169725961D01*
X116924038Y-169600538D01*
X116924034Y-169600535D01*
X116776553Y-169501990D01*
X116776540Y-169501983D01*
X116612667Y-169434106D01*
X116612658Y-169434103D01*
X116438694Y-169399500D01*
X116438691Y-169399500D01*
X116261309Y-169399500D01*
X116261306Y-169399500D01*
X116087341Y-169434103D01*
X116087332Y-169434106D01*
X115923459Y-169501983D01*
X115923446Y-169501990D01*
X115775965Y-169600535D01*
X115775961Y-169600538D01*
X115650538Y-169725961D01*
X115650535Y-169725965D01*
X115551990Y-169873446D01*
X115551983Y-169873459D01*
X115484106Y-170037332D01*
X115484103Y-170037341D01*
X115449500Y-170211304D01*
X112984804Y-170211304D01*
X112924038Y-170150538D01*
X112924034Y-170150535D01*
X112776553Y-170051990D01*
X112776540Y-170051983D01*
X112612667Y-169984106D01*
X112612658Y-169984103D01*
X112438694Y-169949500D01*
X112438691Y-169949500D01*
X112261309Y-169949500D01*
X112261306Y-169949500D01*
X112087341Y-169984103D01*
X112087332Y-169984106D01*
X111923459Y-170051983D01*
X111923446Y-170051990D01*
X111775965Y-170150535D01*
X111775961Y-170150538D01*
X111650538Y-170275961D01*
X111650535Y-170275965D01*
X111551990Y-170423446D01*
X111551983Y-170423459D01*
X111484106Y-170587332D01*
X111484103Y-170587341D01*
X111449500Y-170761304D01*
X109241419Y-170761304D01*
X109362162Y-170680626D01*
X109364578Y-170678210D01*
X109375253Y-170667536D01*
X109480623Y-170562165D01*
X109480626Y-170562162D01*
X109495032Y-170540602D01*
X109573703Y-170422863D01*
X109637816Y-170268082D01*
X109670500Y-170103767D01*
X109670500Y-169936233D01*
X109637816Y-169771918D01*
X109573703Y-169617137D01*
X109506566Y-169516660D01*
X109485689Y-169449985D01*
X109504173Y-169382604D01*
X109521984Y-169360093D01*
X109621789Y-169260289D01*
X109709394Y-169129179D01*
X109769737Y-168983497D01*
X109800500Y-168828842D01*
X109800500Y-168671158D01*
X109800500Y-168671155D01*
X109800499Y-168671153D01*
X109769738Y-168516510D01*
X109769737Y-168516503D01*
X109769735Y-168516498D01*
X109709397Y-168370827D01*
X109709390Y-168370814D01*
X109621789Y-168239711D01*
X109621786Y-168239707D01*
X109510292Y-168128213D01*
X109510288Y-168128210D01*
X109379185Y-168040609D01*
X109379172Y-168040602D01*
X109233501Y-167980264D01*
X109233489Y-167980261D01*
X109078845Y-167949500D01*
X109078842Y-167949500D01*
X108921158Y-167949500D01*
X108921155Y-167949500D01*
X108766510Y-167980261D01*
X108766498Y-167980264D01*
X108620827Y-168040602D01*
X108620814Y-168040609D01*
X108489711Y-168128210D01*
X108489707Y-168128213D01*
X108378213Y-168239707D01*
X108378210Y-168239711D01*
X108290609Y-168370814D01*
X108290602Y-168370827D01*
X108230264Y-168516498D01*
X108230261Y-168516510D01*
X108199500Y-168671153D01*
X108199500Y-168828846D01*
X108230261Y-168983489D01*
X108230264Y-168983501D01*
X108290602Y-169129172D01*
X108290609Y-169129185D01*
X108324109Y-169179321D01*
X108344987Y-169245999D01*
X108326502Y-169313379D01*
X108289904Y-169351310D01*
X108277840Y-169359371D01*
X108277834Y-169359376D01*
X108159373Y-169477837D01*
X108066295Y-169617139D01*
X108002184Y-169771917D01*
X108002182Y-169771925D01*
X107969500Y-169936228D01*
X101000500Y-169936228D01*
X101000500Y-165871153D01*
X106449500Y-165871153D01*
X106449500Y-166028846D01*
X106480261Y-166183489D01*
X106480264Y-166183501D01*
X106540602Y-166329172D01*
X106540609Y-166329185D01*
X106628210Y-166460288D01*
X106628213Y-166460292D01*
X106739707Y-166571786D01*
X106739711Y-166571789D01*
X106870814Y-166659390D01*
X106870827Y-166659397D01*
X107016498Y-166719735D01*
X107016503Y-166719737D01*
X107130010Y-166742315D01*
X107171153Y-166750499D01*
X107171156Y-166750500D01*
X107171158Y-166750500D01*
X107328844Y-166750500D01*
X107328845Y-166750499D01*
X107483497Y-166719737D01*
X107629179Y-166659394D01*
X107760289Y-166571789D01*
X107871789Y-166460289D01*
X107954953Y-166335825D01*
X108008564Y-166291021D01*
X108077888Y-166282314D01*
X108140916Y-166312468D01*
X108177636Y-166371911D01*
X108179670Y-166380519D01*
X108180261Y-166383490D01*
X108180264Y-166383501D01*
X108240602Y-166529172D01*
X108240609Y-166529185D01*
X108328210Y-166660288D01*
X108328213Y-166660292D01*
X108439707Y-166771786D01*
X108439711Y-166771789D01*
X108570814Y-166859390D01*
X108570827Y-166859397D01*
X108711537Y-166917680D01*
X108716503Y-166919737D01*
X108871153Y-166950499D01*
X108871156Y-166950500D01*
X108871158Y-166950500D01*
X109028844Y-166950500D01*
X109028845Y-166950499D01*
X109183497Y-166919737D01*
X109329179Y-166859394D01*
X109460289Y-166771789D01*
X109571789Y-166660289D01*
X109659394Y-166529179D01*
X109719737Y-166383497D01*
X109750500Y-166228842D01*
X109750500Y-166121153D01*
X111149500Y-166121153D01*
X111149500Y-166278846D01*
X111180261Y-166433489D01*
X111180264Y-166433501D01*
X111240602Y-166579172D01*
X111240609Y-166579185D01*
X111328210Y-166710288D01*
X111328213Y-166710292D01*
X111380240Y-166762319D01*
X111413725Y-166823642D01*
X111408741Y-166893334D01*
X111380240Y-166937681D01*
X111348213Y-166969707D01*
X111348210Y-166969711D01*
X111260609Y-167100814D01*
X111260602Y-167100827D01*
X111200264Y-167246498D01*
X111200261Y-167246510D01*
X111169500Y-167401153D01*
X111169500Y-167558846D01*
X111200261Y-167713489D01*
X111200264Y-167713501D01*
X111260602Y-167859172D01*
X111260609Y-167859185D01*
X111348210Y-167990288D01*
X111348213Y-167990292D01*
X111459707Y-168101786D01*
X111459711Y-168101789D01*
X111590814Y-168189390D01*
X111590827Y-168189397D01*
X111664078Y-168219738D01*
X111736503Y-168249737D01*
X111891153Y-168280499D01*
X111891156Y-168280500D01*
X111891158Y-168280500D01*
X112048844Y-168280500D01*
X112048845Y-168280499D01*
X112203497Y-168249737D01*
X112349179Y-168189394D01*
X112480289Y-168101789D01*
X112591789Y-167990289D01*
X112679394Y-167859179D01*
X112739737Y-167713497D01*
X112770500Y-167558842D01*
X112770500Y-167401158D01*
X112764532Y-167371153D01*
X116349500Y-167371153D01*
X116349500Y-167528846D01*
X116380261Y-167683489D01*
X116380264Y-167683501D01*
X116440602Y-167829172D01*
X116440609Y-167829185D01*
X116528210Y-167960288D01*
X116528213Y-167960292D01*
X116639707Y-168071786D01*
X116639711Y-168071789D01*
X116770814Y-168159390D01*
X116770827Y-168159397D01*
X116916498Y-168219735D01*
X116916503Y-168219737D01*
X117067312Y-168249735D01*
X117071153Y-168250499D01*
X117071156Y-168250500D01*
X117071158Y-168250500D01*
X117228844Y-168250500D01*
X117228845Y-168250499D01*
X117383497Y-168219737D01*
X117529179Y-168159394D01*
X117660289Y-168071789D01*
X117771789Y-167960289D01*
X117859394Y-167829179D01*
X117919737Y-167683497D01*
X117950500Y-167528842D01*
X117950500Y-167371158D01*
X117950500Y-167371155D01*
X117950499Y-167371153D01*
X117919737Y-167216503D01*
X117871823Y-167100827D01*
X117859397Y-167070827D01*
X117859390Y-167070814D01*
X117771789Y-166939711D01*
X117771786Y-166939707D01*
X117660292Y-166828213D01*
X117660288Y-166828210D01*
X117529185Y-166740609D01*
X117529172Y-166740602D01*
X117383501Y-166680264D01*
X117383489Y-166680261D01*
X117228845Y-166649500D01*
X117228842Y-166649500D01*
X117071158Y-166649500D01*
X117071155Y-166649500D01*
X116916510Y-166680261D01*
X116916498Y-166680264D01*
X116770827Y-166740602D01*
X116770814Y-166740609D01*
X116639711Y-166828210D01*
X116639707Y-166828213D01*
X116528213Y-166939707D01*
X116528210Y-166939711D01*
X116440609Y-167070814D01*
X116440602Y-167070827D01*
X116380264Y-167216498D01*
X116380261Y-167216510D01*
X116349500Y-167371153D01*
X112764532Y-167371153D01*
X112739737Y-167246503D01*
X112727309Y-167216498D01*
X112679397Y-167100827D01*
X112679390Y-167100814D01*
X112591789Y-166969711D01*
X112591786Y-166969707D01*
X112539759Y-166917680D01*
X112506274Y-166856357D01*
X112511258Y-166786665D01*
X112539757Y-166742320D01*
X112571789Y-166710289D01*
X112659394Y-166579179D01*
X112719737Y-166433497D01*
X112750500Y-166278842D01*
X112750500Y-166121158D01*
X112750500Y-166121155D01*
X112750499Y-166121153D01*
X112719738Y-165966510D01*
X112719737Y-165966503D01*
X112719735Y-165966498D01*
X112659397Y-165820827D01*
X112659390Y-165820814D01*
X112571789Y-165689711D01*
X112571786Y-165689707D01*
X112460292Y-165578213D01*
X112460288Y-165578210D01*
X112329185Y-165490609D01*
X112329172Y-165490602D01*
X112183501Y-165430264D01*
X112183489Y-165430261D01*
X112028845Y-165399500D01*
X112028842Y-165399500D01*
X111871158Y-165399500D01*
X111871155Y-165399500D01*
X111716510Y-165430261D01*
X111716498Y-165430264D01*
X111570827Y-165490602D01*
X111570814Y-165490609D01*
X111439711Y-165578210D01*
X111439707Y-165578213D01*
X111328213Y-165689707D01*
X111328210Y-165689711D01*
X111240609Y-165820814D01*
X111240602Y-165820827D01*
X111180264Y-165966498D01*
X111180261Y-165966510D01*
X111149500Y-166121153D01*
X109750500Y-166121153D01*
X109750500Y-166071158D01*
X109750500Y-166071155D01*
X109750499Y-166071153D01*
X109719737Y-165916503D01*
X109692398Y-165850500D01*
X109659397Y-165770827D01*
X109659390Y-165770814D01*
X109571789Y-165639711D01*
X109571786Y-165639707D01*
X109460292Y-165528213D01*
X109460288Y-165528210D01*
X109329185Y-165440609D01*
X109329172Y-165440602D01*
X109183501Y-165380264D01*
X109183489Y-165380261D01*
X109028845Y-165349500D01*
X109028842Y-165349500D01*
X108871158Y-165349500D01*
X108871155Y-165349500D01*
X108716510Y-165380261D01*
X108716498Y-165380264D01*
X108570827Y-165440602D01*
X108570814Y-165440609D01*
X108439711Y-165528210D01*
X108439707Y-165528213D01*
X108328213Y-165639707D01*
X108328210Y-165639711D01*
X108245047Y-165764173D01*
X108191434Y-165808978D01*
X108122109Y-165817685D01*
X108059082Y-165787530D01*
X108022363Y-165728087D01*
X108020327Y-165719470D01*
X108019737Y-165716504D01*
X108019735Y-165716498D01*
X107959397Y-165570827D01*
X107959390Y-165570814D01*
X107871789Y-165439711D01*
X107871786Y-165439707D01*
X107760292Y-165328213D01*
X107760288Y-165328210D01*
X107629185Y-165240609D01*
X107629172Y-165240602D01*
X107483501Y-165180264D01*
X107483489Y-165180261D01*
X107328845Y-165149500D01*
X107328842Y-165149500D01*
X107171158Y-165149500D01*
X107171155Y-165149500D01*
X107016510Y-165180261D01*
X107016498Y-165180264D01*
X106870827Y-165240602D01*
X106870814Y-165240609D01*
X106739711Y-165328210D01*
X106739707Y-165328213D01*
X106628213Y-165439707D01*
X106628210Y-165439711D01*
X106540609Y-165570814D01*
X106540602Y-165570827D01*
X106480264Y-165716498D01*
X106480261Y-165716510D01*
X106449500Y-165871153D01*
X101000500Y-165871153D01*
X101000500Y-164916228D01*
X126199500Y-164916228D01*
X126199500Y-165083771D01*
X126232182Y-165248074D01*
X126232184Y-165248082D01*
X126296295Y-165402860D01*
X126389373Y-165542162D01*
X126507837Y-165660626D01*
X126591456Y-165716498D01*
X126647137Y-165753703D01*
X126647138Y-165753703D01*
X126647139Y-165753704D01*
X126682201Y-165768227D01*
X126801918Y-165817816D01*
X126966228Y-165850499D01*
X126966232Y-165850500D01*
X126966233Y-165850500D01*
X127133768Y-165850500D01*
X127133769Y-165850499D01*
X127298082Y-165817816D01*
X127452863Y-165753703D01*
X127592162Y-165660626D01*
X127710626Y-165542162D01*
X127803703Y-165402863D01*
X127867816Y-165248082D01*
X127900500Y-165083767D01*
X127900500Y-164916233D01*
X127867816Y-164751918D01*
X127803703Y-164597137D01*
X127772537Y-164550494D01*
X127710626Y-164457837D01*
X127592162Y-164339373D01*
X127452860Y-164246295D01*
X127298082Y-164182184D01*
X127298074Y-164182182D01*
X127133771Y-164149500D01*
X127133767Y-164149500D01*
X126966233Y-164149500D01*
X126966228Y-164149500D01*
X126801925Y-164182182D01*
X126801917Y-164182184D01*
X126647139Y-164246295D01*
X126507837Y-164339373D01*
X126389373Y-164457837D01*
X126296295Y-164597139D01*
X126232184Y-164751917D01*
X126232182Y-164751925D01*
X126199500Y-164916228D01*
X101000500Y-164916228D01*
X101000500Y-163816228D01*
X114649500Y-163816228D01*
X114649500Y-163983771D01*
X114682182Y-164148074D01*
X114682184Y-164148082D01*
X114746295Y-164302860D01*
X114839373Y-164442162D01*
X114957837Y-164560626D01*
X115012480Y-164597137D01*
X115097137Y-164653703D01*
X115251918Y-164717816D01*
X115416228Y-164750499D01*
X115416232Y-164750500D01*
X115416233Y-164750500D01*
X115583768Y-164750500D01*
X115583769Y-164750499D01*
X115748082Y-164717816D01*
X115902863Y-164653703D01*
X116042162Y-164560626D01*
X116160626Y-164442162D01*
X116253703Y-164302863D01*
X116317816Y-164148082D01*
X116350500Y-163983767D01*
X116350500Y-163816233D01*
X116317816Y-163651918D01*
X116253703Y-163497137D01*
X116177779Y-163383509D01*
X116160626Y-163357837D01*
X116042162Y-163239373D01*
X115902860Y-163146295D01*
X115748082Y-163082184D01*
X115748074Y-163082182D01*
X115583771Y-163049500D01*
X115583767Y-163049500D01*
X115416233Y-163049500D01*
X115416228Y-163049500D01*
X115251925Y-163082182D01*
X115251917Y-163082184D01*
X115097139Y-163146295D01*
X114957837Y-163239373D01*
X114839373Y-163357837D01*
X114746295Y-163497139D01*
X114682184Y-163651917D01*
X114682182Y-163651925D01*
X114649500Y-163816228D01*
X101000500Y-163816228D01*
X101000500Y-162871153D01*
X106549500Y-162871153D01*
X106549500Y-163028846D01*
X106580261Y-163183489D01*
X106580264Y-163183501D01*
X106640602Y-163329172D01*
X106640609Y-163329185D01*
X106728210Y-163460288D01*
X106728213Y-163460292D01*
X106839707Y-163571786D01*
X106839711Y-163571789D01*
X106970814Y-163659390D01*
X106970827Y-163659397D01*
X107058182Y-163695580D01*
X107116503Y-163719737D01*
X107271153Y-163750499D01*
X107271156Y-163750500D01*
X107271158Y-163750500D01*
X107428844Y-163750500D01*
X107428845Y-163750499D01*
X107583497Y-163719737D01*
X107605199Y-163710747D01*
X107641819Y-163695580D01*
X107729172Y-163659397D01*
X107729172Y-163659396D01*
X107729179Y-163659394D01*
X107860289Y-163571789D01*
X107971789Y-163460289D01*
X108059394Y-163329179D01*
X108119737Y-163183497D01*
X108119782Y-163183266D01*
X108119839Y-163183157D01*
X108121506Y-163177665D01*
X108122546Y-163177980D01*
X108152159Y-163121354D01*
X108212870Y-163086772D01*
X108282640Y-163090503D01*
X108339317Y-163131362D01*
X108344503Y-163138553D01*
X108375141Y-163184405D01*
X108375146Y-163184411D01*
X108486640Y-163295905D01*
X108486644Y-163295908D01*
X108617747Y-163383509D01*
X108617760Y-163383516D01*
X108763431Y-163443854D01*
X108763436Y-163443856D01*
X108918086Y-163474618D01*
X108918089Y-163474619D01*
X108918091Y-163474619D01*
X109075777Y-163474619D01*
X109075778Y-163474618D01*
X109230430Y-163443856D01*
X109376112Y-163383513D01*
X109507222Y-163295908D01*
X109618722Y-163184408D01*
X109706327Y-163053298D01*
X109766670Y-162907616D01*
X109797433Y-162752961D01*
X109797433Y-162595277D01*
X109797433Y-162595274D01*
X109797432Y-162595272D01*
X109766670Y-162440622D01*
X109747152Y-162393501D01*
X109706330Y-162294946D01*
X109706323Y-162294933D01*
X109618722Y-162163830D01*
X109618719Y-162163826D01*
X109507225Y-162052332D01*
X109507221Y-162052329D01*
X109376118Y-161964728D01*
X109376105Y-161964721D01*
X109230434Y-161904383D01*
X109230422Y-161904380D01*
X109075778Y-161873619D01*
X109075775Y-161873619D01*
X108918091Y-161873619D01*
X108918088Y-161873619D01*
X108763443Y-161904380D01*
X108763431Y-161904383D01*
X108617760Y-161964721D01*
X108617747Y-161964728D01*
X108486644Y-162052329D01*
X108486640Y-162052332D01*
X108375146Y-162163826D01*
X108375143Y-162163830D01*
X108287542Y-162294933D01*
X108287535Y-162294946D01*
X108227197Y-162440617D01*
X108227194Y-162440628D01*
X108227146Y-162440871D01*
X108227085Y-162440986D01*
X108225427Y-162446454D01*
X108224389Y-162446139D01*
X108194757Y-162502780D01*
X108134040Y-162537351D01*
X108064271Y-162533607D01*
X108007601Y-162492738D01*
X108002428Y-162485565D01*
X107987717Y-162463550D01*
X107971789Y-162439711D01*
X107971788Y-162439710D01*
X107971786Y-162439707D01*
X107860292Y-162328213D01*
X107860288Y-162328210D01*
X107729185Y-162240609D01*
X107729172Y-162240602D01*
X107583501Y-162180264D01*
X107583489Y-162180261D01*
X107428845Y-162149500D01*
X107428842Y-162149500D01*
X107271158Y-162149500D01*
X107271155Y-162149500D01*
X107116510Y-162180261D01*
X107116498Y-162180264D01*
X106970827Y-162240602D01*
X106970814Y-162240609D01*
X106839711Y-162328210D01*
X106839707Y-162328213D01*
X106728213Y-162439707D01*
X106728210Y-162439711D01*
X106640609Y-162570814D01*
X106640602Y-162570827D01*
X106580264Y-162716498D01*
X106580261Y-162716510D01*
X106549500Y-162871153D01*
X101000500Y-162871153D01*
X101000500Y-160566228D01*
X113999500Y-160566228D01*
X113999500Y-160733771D01*
X114032182Y-160898074D01*
X114032184Y-160898082D01*
X114096295Y-161052860D01*
X114189373Y-161192162D01*
X114307837Y-161310626D01*
X114380983Y-161359500D01*
X114447137Y-161403703D01*
X114601918Y-161467816D01*
X114766228Y-161500499D01*
X114766232Y-161500500D01*
X114766233Y-161500500D01*
X114933768Y-161500500D01*
X114933769Y-161500499D01*
X115098082Y-161467816D01*
X115210735Y-161421153D01*
X119899500Y-161421153D01*
X119899500Y-161578846D01*
X119930261Y-161733489D01*
X119930264Y-161733501D01*
X119990602Y-161879172D01*
X119990609Y-161879185D01*
X120078210Y-162010288D01*
X120078213Y-162010292D01*
X120189707Y-162121786D01*
X120189711Y-162121789D01*
X120320814Y-162209390D01*
X120320827Y-162209397D01*
X120396181Y-162240609D01*
X120466503Y-162269737D01*
X120621153Y-162300499D01*
X120621156Y-162300500D01*
X120621158Y-162300500D01*
X120778844Y-162300500D01*
X120778845Y-162300499D01*
X120933497Y-162269737D01*
X121079179Y-162209394D01*
X121210289Y-162121789D01*
X121250925Y-162081153D01*
X124299500Y-162081153D01*
X124299500Y-162238846D01*
X124330261Y-162393489D01*
X124330264Y-162393501D01*
X124390602Y-162539172D01*
X124390609Y-162539185D01*
X124478210Y-162670288D01*
X124478213Y-162670292D01*
X124589707Y-162781786D01*
X124589711Y-162781789D01*
X124720814Y-162869390D01*
X124720827Y-162869397D01*
X124813107Y-162907620D01*
X124866503Y-162929737D01*
X125021153Y-162960499D01*
X125021156Y-162960500D01*
X125021158Y-162960500D01*
X125178844Y-162960500D01*
X125178845Y-162960499D01*
X125333497Y-162929737D01*
X125446166Y-162883067D01*
X125479172Y-162869397D01*
X125479172Y-162869396D01*
X125479179Y-162869394D01*
X125610289Y-162781789D01*
X125721789Y-162670289D01*
X125809394Y-162539179D01*
X125869737Y-162393497D01*
X125900500Y-162238842D01*
X125900500Y-162081158D01*
X125900500Y-162081155D01*
X125900499Y-162081153D01*
X125894766Y-162052330D01*
X125869737Y-161926503D01*
X125860574Y-161904382D01*
X125809397Y-161780827D01*
X125809390Y-161780814D01*
X125721789Y-161649711D01*
X125721786Y-161649707D01*
X125610292Y-161538213D01*
X125610288Y-161538210D01*
X125479185Y-161450609D01*
X125479172Y-161450602D01*
X125333501Y-161390264D01*
X125333489Y-161390261D01*
X125178845Y-161359500D01*
X125178842Y-161359500D01*
X125021158Y-161359500D01*
X125021155Y-161359500D01*
X124866510Y-161390261D01*
X124866498Y-161390264D01*
X124720827Y-161450602D01*
X124720814Y-161450609D01*
X124589711Y-161538210D01*
X124589707Y-161538213D01*
X124478213Y-161649707D01*
X124478210Y-161649711D01*
X124390609Y-161780814D01*
X124390602Y-161780827D01*
X124330264Y-161926498D01*
X124330261Y-161926510D01*
X124299500Y-162081153D01*
X121250925Y-162081153D01*
X121321789Y-162010289D01*
X121409394Y-161879179D01*
X121469737Y-161733497D01*
X121500500Y-161578842D01*
X121500500Y-161421158D01*
X121500500Y-161421155D01*
X121500499Y-161421153D01*
X121494355Y-161390264D01*
X121469737Y-161266503D01*
X121438944Y-161192162D01*
X121409397Y-161120827D01*
X121409390Y-161120814D01*
X121321789Y-160989711D01*
X121321786Y-160989707D01*
X121210292Y-160878213D01*
X121210288Y-160878210D01*
X121079185Y-160790609D01*
X121079172Y-160790602D01*
X120933501Y-160730264D01*
X120933489Y-160730261D01*
X120778845Y-160699500D01*
X120778842Y-160699500D01*
X120621158Y-160699500D01*
X120621155Y-160699500D01*
X120466510Y-160730261D01*
X120466498Y-160730264D01*
X120320827Y-160790602D01*
X120320814Y-160790609D01*
X120189711Y-160878210D01*
X120189707Y-160878213D01*
X120078213Y-160989707D01*
X120078210Y-160989711D01*
X119990609Y-161120814D01*
X119990602Y-161120827D01*
X119930264Y-161266498D01*
X119930261Y-161266510D01*
X119899500Y-161421153D01*
X115210735Y-161421153D01*
X115252863Y-161403703D01*
X115392162Y-161310626D01*
X115510626Y-161192162D01*
X115603703Y-161052863D01*
X115667816Y-160898082D01*
X115700500Y-160733767D01*
X115700500Y-160566233D01*
X115667816Y-160401918D01*
X115603703Y-160247137D01*
X115572537Y-160200494D01*
X115510626Y-160107837D01*
X115392162Y-159989373D01*
X115252860Y-159896295D01*
X115098082Y-159832184D01*
X115098074Y-159832182D01*
X114933771Y-159799500D01*
X114933767Y-159799500D01*
X114766233Y-159799500D01*
X114766228Y-159799500D01*
X114601925Y-159832182D01*
X114601917Y-159832184D01*
X114447139Y-159896295D01*
X114307837Y-159989373D01*
X114189373Y-160107837D01*
X114096295Y-160247139D01*
X114032184Y-160401917D01*
X114032182Y-160401925D01*
X113999500Y-160566228D01*
X101000500Y-160566228D01*
X101000500Y-159221153D01*
X120949500Y-159221153D01*
X120949500Y-159378846D01*
X120980261Y-159533489D01*
X120980264Y-159533501D01*
X121040602Y-159679172D01*
X121040609Y-159679185D01*
X121128210Y-159810288D01*
X121128213Y-159810292D01*
X121239707Y-159921786D01*
X121239711Y-159921789D01*
X121370814Y-160009390D01*
X121370827Y-160009397D01*
X121516498Y-160069735D01*
X121516503Y-160069737D01*
X121671153Y-160100499D01*
X121671156Y-160100500D01*
X121671158Y-160100500D01*
X121828844Y-160100500D01*
X121828845Y-160100499D01*
X121983497Y-160069737D01*
X122129179Y-160009394D01*
X122260289Y-159921789D01*
X122371789Y-159810289D01*
X122459394Y-159679179D01*
X122519737Y-159533497D01*
X122550500Y-159378842D01*
X122550500Y-159221158D01*
X122550500Y-159221155D01*
X122550499Y-159221153D01*
X122519738Y-159066510D01*
X122519737Y-159066503D01*
X122519735Y-159066498D01*
X122459397Y-158920827D01*
X122459390Y-158920814D01*
X122371789Y-158789711D01*
X122371786Y-158789707D01*
X122260292Y-158678213D01*
X122260288Y-158678210D01*
X122129185Y-158590609D01*
X122129172Y-158590602D01*
X121983501Y-158530264D01*
X121983489Y-158530261D01*
X121828845Y-158499500D01*
X121828842Y-158499500D01*
X121671158Y-158499500D01*
X121671155Y-158499500D01*
X121516510Y-158530261D01*
X121516498Y-158530264D01*
X121370827Y-158590602D01*
X121370814Y-158590609D01*
X121239711Y-158678210D01*
X121239707Y-158678213D01*
X121128213Y-158789707D01*
X121128210Y-158789711D01*
X121040609Y-158920814D01*
X121040602Y-158920827D01*
X120980264Y-159066498D01*
X120980261Y-159066510D01*
X120949500Y-159221153D01*
X101000500Y-159221153D01*
X101000500Y-157841228D01*
X108299500Y-157841228D01*
X108299500Y-158008771D01*
X108332182Y-158173074D01*
X108332184Y-158173082D01*
X108396295Y-158327860D01*
X108489373Y-158467162D01*
X108607837Y-158585626D01*
X108700494Y-158647537D01*
X108747137Y-158678703D01*
X108901918Y-158742816D01*
X109066228Y-158775499D01*
X109066232Y-158775500D01*
X109066233Y-158775500D01*
X109233768Y-158775500D01*
X109233769Y-158775499D01*
X109398082Y-158742816D01*
X109552863Y-158678703D01*
X109692162Y-158585626D01*
X109810626Y-158467162D01*
X109903703Y-158327863D01*
X109967816Y-158173082D01*
X110000500Y-158008767D01*
X110000500Y-157841233D01*
X109967816Y-157676918D01*
X109903703Y-157522137D01*
X109871188Y-157473475D01*
X109810626Y-157382837D01*
X109694017Y-157266228D01*
X112799500Y-157266228D01*
X112799500Y-157433771D01*
X112832182Y-157598074D01*
X112832184Y-157598082D01*
X112896295Y-157752860D01*
X112989373Y-157892162D01*
X113107837Y-158010626D01*
X113182668Y-158060626D01*
X113247137Y-158103703D01*
X113401918Y-158167816D01*
X113566228Y-158200499D01*
X113566232Y-158200500D01*
X113566233Y-158200500D01*
X113733768Y-158200500D01*
X113733769Y-158200499D01*
X113898082Y-158167816D01*
X114052863Y-158103703D01*
X114192162Y-158010626D01*
X114310626Y-157892162D01*
X114403703Y-157752863D01*
X114467816Y-157598082D01*
X114473409Y-157569959D01*
X114505794Y-157508050D01*
X114566509Y-157473475D01*
X114636279Y-157477214D01*
X114692951Y-157518080D01*
X114716644Y-157569960D01*
X114732182Y-157648074D01*
X114732184Y-157648082D01*
X114796295Y-157802860D01*
X114889373Y-157942162D01*
X115007837Y-158060626D01*
X115100494Y-158122537D01*
X115147137Y-158153703D01*
X115301918Y-158217816D01*
X115466228Y-158250499D01*
X115466232Y-158250500D01*
X115466233Y-158250500D01*
X115633768Y-158250500D01*
X115633769Y-158250499D01*
X115798082Y-158217816D01*
X115952863Y-158153703D01*
X116092162Y-158060626D01*
X116210626Y-157942162D01*
X116303703Y-157802863D01*
X116367816Y-157648082D01*
X116400500Y-157483767D01*
X116400500Y-157316233D01*
X116367816Y-157151918D01*
X116303703Y-156997137D01*
X116270294Y-156947137D01*
X116210626Y-156857837D01*
X116092162Y-156739373D01*
X115952860Y-156646295D01*
X115798082Y-156582184D01*
X115798074Y-156582182D01*
X115633771Y-156549500D01*
X115633767Y-156549500D01*
X115466233Y-156549500D01*
X115466228Y-156549500D01*
X115301925Y-156582182D01*
X115301917Y-156582184D01*
X115147139Y-156646295D01*
X115007837Y-156739373D01*
X114889373Y-156857837D01*
X114796295Y-156997139D01*
X114732184Y-157151917D01*
X114732183Y-157151921D01*
X114726589Y-157180042D01*
X114694202Y-157241952D01*
X114633486Y-157276525D01*
X114563716Y-157272784D01*
X114507045Y-157231916D01*
X114483355Y-157180041D01*
X114467816Y-157101918D01*
X114403703Y-156947137D01*
X114356536Y-156876547D01*
X114310626Y-156807837D01*
X114192162Y-156689373D01*
X114052860Y-156596295D01*
X113898082Y-156532184D01*
X113898074Y-156532182D01*
X113733771Y-156499500D01*
X113733767Y-156499500D01*
X113566233Y-156499500D01*
X113566228Y-156499500D01*
X113401925Y-156532182D01*
X113401917Y-156532184D01*
X113247139Y-156596295D01*
X113107837Y-156689373D01*
X112989373Y-156807837D01*
X112896295Y-156947139D01*
X112832184Y-157101917D01*
X112832182Y-157101925D01*
X112799500Y-157266228D01*
X109694017Y-157266228D01*
X109692162Y-157264373D01*
X109552860Y-157171295D01*
X109398082Y-157107184D01*
X109398074Y-157107182D01*
X109233771Y-157074500D01*
X109233767Y-157074500D01*
X109066233Y-157074500D01*
X109066228Y-157074500D01*
X108901925Y-157107182D01*
X108901917Y-157107184D01*
X108747139Y-157171295D01*
X108607837Y-157264373D01*
X108489373Y-157382837D01*
X108396295Y-157522139D01*
X108332184Y-157676917D01*
X108332182Y-157676925D01*
X108299500Y-157841228D01*
X101000500Y-157841228D01*
X101000500Y-156361304D01*
X105449500Y-156361304D01*
X105449500Y-156538695D01*
X105484103Y-156712658D01*
X105484106Y-156712667D01*
X105551983Y-156876540D01*
X105551990Y-156876553D01*
X105650535Y-157024034D01*
X105650538Y-157024038D01*
X105775961Y-157149461D01*
X105775965Y-157149464D01*
X105923446Y-157248009D01*
X105923459Y-157248016D01*
X106046363Y-157298923D01*
X106087334Y-157315894D01*
X106087336Y-157315894D01*
X106087341Y-157315896D01*
X106261304Y-157350499D01*
X106261307Y-157350500D01*
X106261309Y-157350500D01*
X106438693Y-157350500D01*
X106438694Y-157350499D01*
X106496682Y-157338964D01*
X106612658Y-157315896D01*
X106612661Y-157315894D01*
X106612666Y-157315894D01*
X106776547Y-157248013D01*
X106924035Y-157149464D01*
X107049464Y-157024035D01*
X107148013Y-156876547D01*
X107215894Y-156712666D01*
X107220528Y-156689373D01*
X107250499Y-156538695D01*
X107250500Y-156538693D01*
X107250500Y-156361306D01*
X107250499Y-156361304D01*
X107215896Y-156187341D01*
X107215894Y-156187338D01*
X107215894Y-156187334D01*
X107167771Y-156071153D01*
X125949500Y-156071153D01*
X125949500Y-156228846D01*
X125980261Y-156383489D01*
X125980264Y-156383501D01*
X126040602Y-156529172D01*
X126040609Y-156529185D01*
X126128210Y-156660288D01*
X126128213Y-156660292D01*
X126239707Y-156771786D01*
X126239711Y-156771789D01*
X126370814Y-156859390D01*
X126370827Y-156859397D01*
X126516498Y-156919735D01*
X126516503Y-156919737D01*
X126654251Y-156947137D01*
X126671153Y-156950499D01*
X126671156Y-156950500D01*
X126671158Y-156950500D01*
X126828844Y-156950500D01*
X126828845Y-156950499D01*
X126983497Y-156919737D01*
X127129179Y-156859394D01*
X127260289Y-156771789D01*
X127371789Y-156660289D01*
X127459394Y-156529179D01*
X127519737Y-156383497D01*
X127550500Y-156228842D01*
X127550500Y-156071158D01*
X127550500Y-156071155D01*
X127550499Y-156071153D01*
X127519738Y-155916510D01*
X127519737Y-155916503D01*
X127502944Y-155875961D01*
X127459397Y-155770827D01*
X127459390Y-155770814D01*
X127371789Y-155639711D01*
X127371786Y-155639707D01*
X127260292Y-155528213D01*
X127260288Y-155528210D01*
X127129185Y-155440609D01*
X127129172Y-155440602D01*
X126983501Y-155380264D01*
X126983489Y-155380261D01*
X126828845Y-155349500D01*
X126828842Y-155349500D01*
X126671158Y-155349500D01*
X126671155Y-155349500D01*
X126516510Y-155380261D01*
X126516498Y-155380264D01*
X126370827Y-155440602D01*
X126370814Y-155440609D01*
X126239711Y-155528210D01*
X126239707Y-155528213D01*
X126128213Y-155639707D01*
X126128210Y-155639711D01*
X126040609Y-155770814D01*
X126040602Y-155770827D01*
X125980264Y-155916498D01*
X125980261Y-155916510D01*
X125949500Y-156071153D01*
X107167771Y-156071153D01*
X107148016Y-156023459D01*
X107148009Y-156023446D01*
X107049464Y-155875965D01*
X107049461Y-155875961D01*
X106924038Y-155750538D01*
X106924034Y-155750535D01*
X106776553Y-155651990D01*
X106776540Y-155651983D01*
X106612667Y-155584106D01*
X106612658Y-155584103D01*
X106438694Y-155549500D01*
X106438691Y-155549500D01*
X106261309Y-155549500D01*
X106261306Y-155549500D01*
X106087341Y-155584103D01*
X106087332Y-155584106D01*
X105923459Y-155651983D01*
X105923446Y-155651990D01*
X105775965Y-155750535D01*
X105775961Y-155750538D01*
X105650538Y-155875961D01*
X105650535Y-155875965D01*
X105551990Y-156023446D01*
X105551983Y-156023459D01*
X105484106Y-156187332D01*
X105484103Y-156187341D01*
X105449500Y-156361304D01*
X101000500Y-156361304D01*
X101000500Y-153421153D01*
X115949500Y-153421153D01*
X115949500Y-153578846D01*
X115980261Y-153733489D01*
X115980264Y-153733501D01*
X116040602Y-153879172D01*
X116040609Y-153879185D01*
X116128210Y-154010288D01*
X116128213Y-154010292D01*
X116239707Y-154121786D01*
X116239711Y-154121789D01*
X116370814Y-154209390D01*
X116370827Y-154209397D01*
X116516498Y-154269735D01*
X116516503Y-154269737D01*
X116671153Y-154300499D01*
X116671156Y-154300500D01*
X116671158Y-154300500D01*
X116828844Y-154300500D01*
X116828845Y-154300499D01*
X116983497Y-154269737D01*
X117129179Y-154209394D01*
X117260289Y-154121789D01*
X117371789Y-154010289D01*
X117459394Y-153879179D01*
X117519737Y-153733497D01*
X117550500Y-153578842D01*
X117550500Y-153421158D01*
X117550500Y-153421155D01*
X117550499Y-153421153D01*
X117519737Y-153266503D01*
X117519735Y-153266498D01*
X117459397Y-153120827D01*
X117459390Y-153120814D01*
X117371789Y-152989711D01*
X117371786Y-152989707D01*
X117260292Y-152878213D01*
X117260288Y-152878210D01*
X117129185Y-152790609D01*
X117129172Y-152790602D01*
X116983501Y-152730264D01*
X116983489Y-152730261D01*
X116828845Y-152699500D01*
X116828842Y-152699500D01*
X116671158Y-152699500D01*
X116671155Y-152699500D01*
X116516510Y-152730261D01*
X116516498Y-152730264D01*
X116370827Y-152790602D01*
X116370814Y-152790609D01*
X116239711Y-152878210D01*
X116239707Y-152878213D01*
X116128213Y-152989707D01*
X116128210Y-152989711D01*
X116040609Y-153120814D01*
X116040602Y-153120827D01*
X115980264Y-153266498D01*
X115980261Y-153266510D01*
X115949500Y-153421153D01*
X101000500Y-153421153D01*
X101000500Y-152380973D01*
X113529831Y-152380973D01*
X113529831Y-152558364D01*
X113564434Y-152732327D01*
X113564437Y-152732336D01*
X113632314Y-152896209D01*
X113632321Y-152896222D01*
X113730866Y-153043703D01*
X113730869Y-153043707D01*
X113856292Y-153169130D01*
X113856296Y-153169133D01*
X114003777Y-153267678D01*
X114003790Y-153267685D01*
X114126694Y-153318592D01*
X114167665Y-153335563D01*
X114167667Y-153335563D01*
X114167672Y-153335565D01*
X114341635Y-153370168D01*
X114341638Y-153370169D01*
X114341640Y-153370169D01*
X114519024Y-153370169D01*
X114519025Y-153370168D01*
X114577013Y-153358633D01*
X114692989Y-153335565D01*
X114692992Y-153335563D01*
X114692997Y-153335563D01*
X114752803Y-153310790D01*
X114777636Y-153300505D01*
X114856871Y-153267685D01*
X114856871Y-153267684D01*
X114856878Y-153267682D01*
X115004366Y-153169133D01*
X115129795Y-153043704D01*
X115228344Y-152896216D01*
X115296225Y-152732335D01*
X115296638Y-152730263D01*
X115319295Y-152616351D01*
X115330831Y-152558360D01*
X115330831Y-152380978D01*
X115330831Y-152380975D01*
X115330830Y-152380973D01*
X115296227Y-152207010D01*
X115296224Y-152207001D01*
X115228347Y-152043128D01*
X115228340Y-152043115D01*
X115129795Y-151895634D01*
X115129792Y-151895630D01*
X115004369Y-151770207D01*
X115004365Y-151770204D01*
X114856884Y-151671659D01*
X114856871Y-151671652D01*
X114692998Y-151603775D01*
X114692989Y-151603772D01*
X114519025Y-151569169D01*
X114519022Y-151569169D01*
X114341640Y-151569169D01*
X114341637Y-151569169D01*
X114167672Y-151603772D01*
X114167663Y-151603775D01*
X114003790Y-151671652D01*
X114003777Y-151671659D01*
X113856296Y-151770204D01*
X113856292Y-151770207D01*
X113730869Y-151895630D01*
X113730866Y-151895634D01*
X113632321Y-152043115D01*
X113632314Y-152043128D01*
X113564437Y-152207001D01*
X113564434Y-152207010D01*
X113529831Y-152380973D01*
X101000500Y-152380973D01*
X101000500Y-151321153D01*
X119749500Y-151321153D01*
X119749500Y-151478846D01*
X119780261Y-151633489D01*
X119780264Y-151633501D01*
X119840602Y-151779172D01*
X119840609Y-151779185D01*
X119928210Y-151910288D01*
X119928213Y-151910292D01*
X120039707Y-152021786D01*
X120039711Y-152021789D01*
X120170814Y-152109390D01*
X120170827Y-152109397D01*
X120246176Y-152140607D01*
X120316503Y-152169737D01*
X120471153Y-152200499D01*
X120471156Y-152200500D01*
X120471158Y-152200500D01*
X120628844Y-152200500D01*
X120628845Y-152200499D01*
X120783497Y-152169737D01*
X120929179Y-152109394D01*
X121060289Y-152021789D01*
X121171789Y-151910289D01*
X121259394Y-151779179D01*
X121319737Y-151633497D01*
X121350500Y-151478842D01*
X121350500Y-151321158D01*
X121350500Y-151321155D01*
X121350499Y-151321153D01*
X121319738Y-151166510D01*
X121319737Y-151166503D01*
X121319735Y-151166498D01*
X121259397Y-151020827D01*
X121259390Y-151020814D01*
X121171789Y-150889711D01*
X121171786Y-150889707D01*
X121060292Y-150778213D01*
X121060288Y-150778210D01*
X120929185Y-150690609D01*
X120929172Y-150690602D01*
X120783501Y-150630264D01*
X120783489Y-150630261D01*
X120628845Y-150599500D01*
X120628842Y-150599500D01*
X120471158Y-150599500D01*
X120471155Y-150599500D01*
X120316510Y-150630261D01*
X120316498Y-150630264D01*
X120170827Y-150690602D01*
X120170814Y-150690609D01*
X120039711Y-150778210D01*
X120039707Y-150778213D01*
X119928213Y-150889707D01*
X119928210Y-150889711D01*
X119840609Y-151020814D01*
X119840602Y-151020827D01*
X119780264Y-151166498D01*
X119780261Y-151166510D01*
X119749500Y-151321153D01*
X101000500Y-151321153D01*
X101000500Y-149916228D01*
X108399500Y-149916228D01*
X108399500Y-150083771D01*
X108432182Y-150248074D01*
X108432184Y-150248082D01*
X108496295Y-150402860D01*
X108589373Y-150542162D01*
X108707837Y-150660626D01*
X108800494Y-150722537D01*
X108847137Y-150753703D01*
X109001918Y-150817816D01*
X109166228Y-150850499D01*
X109166232Y-150850500D01*
X109166233Y-150850500D01*
X109333768Y-150850500D01*
X109333769Y-150850499D01*
X109498082Y-150817816D01*
X109652863Y-150753703D01*
X109792162Y-150660626D01*
X109910626Y-150542162D01*
X110003703Y-150402863D01*
X110067816Y-150248082D01*
X110100500Y-150083767D01*
X110100500Y-149916233D01*
X110084679Y-149836693D01*
X110090906Y-149767102D01*
X110133769Y-149711924D01*
X110182102Y-149690885D01*
X110298082Y-149667816D01*
X110452863Y-149603703D01*
X110592162Y-149510626D01*
X110710626Y-149392162D01*
X110803703Y-149252863D01*
X110867816Y-149098082D01*
X110900500Y-148933767D01*
X110900500Y-148766233D01*
X110867816Y-148601918D01*
X110803703Y-148447137D01*
X110713853Y-148312667D01*
X110710626Y-148307837D01*
X110592162Y-148189373D01*
X110452860Y-148096295D01*
X110298082Y-148032184D01*
X110298074Y-148032182D01*
X110133771Y-147999500D01*
X110133767Y-147999500D01*
X109966233Y-147999500D01*
X109966228Y-147999500D01*
X109801925Y-148032182D01*
X109801917Y-148032184D01*
X109647139Y-148096295D01*
X109507837Y-148189373D01*
X109389373Y-148307837D01*
X109296295Y-148447139D01*
X109232184Y-148601917D01*
X109232182Y-148601925D01*
X109199500Y-148766228D01*
X109199500Y-148766232D01*
X109199500Y-148766233D01*
X109199500Y-148933767D01*
X109207900Y-148975998D01*
X109215321Y-149013307D01*
X109209092Y-149082898D01*
X109166229Y-149138075D01*
X109117895Y-149159114D01*
X109001923Y-149182182D01*
X109001917Y-149182184D01*
X108847139Y-149246295D01*
X108707837Y-149339373D01*
X108589373Y-149457837D01*
X108496295Y-149597139D01*
X108432184Y-149751917D01*
X108432182Y-149751925D01*
X108399500Y-149916228D01*
X101000500Y-149916228D01*
X101000500Y-147871153D01*
X102349500Y-147871153D01*
X102349500Y-148028846D01*
X102380261Y-148183489D01*
X102380264Y-148183501D01*
X102440602Y-148329172D01*
X102440609Y-148329185D01*
X102528210Y-148460288D01*
X102528213Y-148460292D01*
X102639707Y-148571786D01*
X102639711Y-148571789D01*
X102770814Y-148659390D01*
X102770827Y-148659397D01*
X102916498Y-148719735D01*
X102916503Y-148719737D01*
X103065935Y-148749461D01*
X103071153Y-148750499D01*
X103071156Y-148750500D01*
X103071158Y-148750500D01*
X103228844Y-148750500D01*
X103228845Y-148750499D01*
X103383497Y-148719737D01*
X103529179Y-148659394D01*
X103660289Y-148571789D01*
X103771789Y-148460289D01*
X103859394Y-148329179D01*
X103919737Y-148183497D01*
X103950500Y-148028842D01*
X103950500Y-147961304D01*
X104599500Y-147961304D01*
X104599500Y-148138695D01*
X104634103Y-148312658D01*
X104634106Y-148312667D01*
X104701983Y-148476540D01*
X104701990Y-148476553D01*
X104800535Y-148624034D01*
X104800538Y-148624038D01*
X104925961Y-148749461D01*
X104925965Y-148749464D01*
X105073446Y-148848009D01*
X105073459Y-148848016D01*
X105196363Y-148898923D01*
X105237334Y-148915894D01*
X105237336Y-148915894D01*
X105237341Y-148915896D01*
X105411304Y-148950499D01*
X105411307Y-148950500D01*
X105411309Y-148950500D01*
X105588693Y-148950500D01*
X105588694Y-148950499D01*
X105672823Y-148933765D01*
X105762658Y-148915896D01*
X105762661Y-148915894D01*
X105762666Y-148915894D01*
X105926547Y-148848013D01*
X106074035Y-148749464D01*
X106199464Y-148624035D01*
X106298013Y-148476547D01*
X106365894Y-148312666D01*
X106366855Y-148307838D01*
X106400499Y-148138695D01*
X106400500Y-148138693D01*
X106400500Y-147961306D01*
X106400499Y-147961304D01*
X106365896Y-147787341D01*
X106365893Y-147787332D01*
X106298016Y-147623459D01*
X106298009Y-147623446D01*
X106199464Y-147475965D01*
X106199461Y-147475961D01*
X106074038Y-147350538D01*
X106074034Y-147350535D01*
X105926553Y-147251990D01*
X105926549Y-147251988D01*
X105916542Y-147247843D01*
X105872563Y-147229626D01*
X105872562Y-147229625D01*
X105762667Y-147184106D01*
X105762658Y-147184103D01*
X105588694Y-147149500D01*
X105588691Y-147149500D01*
X105411309Y-147149500D01*
X105411306Y-147149500D01*
X105237341Y-147184103D01*
X105237332Y-147184106D01*
X105073459Y-147251983D01*
X105073446Y-147251990D01*
X104925965Y-147350535D01*
X104925961Y-147350538D01*
X104800538Y-147475961D01*
X104800535Y-147475965D01*
X104701990Y-147623446D01*
X104701983Y-147623459D01*
X104634106Y-147787332D01*
X104634103Y-147787341D01*
X104599500Y-147961304D01*
X103950500Y-147961304D01*
X103950500Y-147871158D01*
X103950500Y-147871155D01*
X103950499Y-147871153D01*
X103940679Y-147821786D01*
X103919737Y-147716503D01*
X103917163Y-147710288D01*
X103859397Y-147570827D01*
X103859390Y-147570814D01*
X103771789Y-147439711D01*
X103771786Y-147439707D01*
X103660292Y-147328213D01*
X103660288Y-147328210D01*
X103529185Y-147240609D01*
X103529172Y-147240602D01*
X103383501Y-147180264D01*
X103383489Y-147180261D01*
X103228845Y-147149500D01*
X103228842Y-147149500D01*
X103071158Y-147149500D01*
X103071155Y-147149500D01*
X102916510Y-147180261D01*
X102916498Y-147180264D01*
X102770827Y-147240602D01*
X102770814Y-147240609D01*
X102639711Y-147328210D01*
X102639707Y-147328213D01*
X102528213Y-147439707D01*
X102528210Y-147439711D01*
X102440609Y-147570814D01*
X102440602Y-147570827D01*
X102380264Y-147716498D01*
X102380261Y-147716510D01*
X102349500Y-147871153D01*
X101000500Y-147871153D01*
X101000500Y-147121153D01*
X106749500Y-147121153D01*
X106749500Y-147278846D01*
X106780261Y-147433489D01*
X106780264Y-147433501D01*
X106840602Y-147579172D01*
X106840609Y-147579185D01*
X106928210Y-147710288D01*
X106928213Y-147710292D01*
X107039707Y-147821786D01*
X107039711Y-147821789D01*
X107170814Y-147909390D01*
X107170827Y-147909397D01*
X107296156Y-147961309D01*
X107316503Y-147969737D01*
X107466131Y-147999500D01*
X107471153Y-148000499D01*
X107471156Y-148000500D01*
X107471158Y-148000500D01*
X107628844Y-148000500D01*
X107628845Y-148000499D01*
X107783497Y-147969737D01*
X107929179Y-147909394D01*
X108060289Y-147821789D01*
X108171789Y-147710289D01*
X108259394Y-147579179D01*
X108262854Y-147570827D01*
X108317163Y-147439711D01*
X108319737Y-147433497D01*
X108350500Y-147278842D01*
X108350500Y-147121158D01*
X108350500Y-147121155D01*
X108350499Y-147121153D01*
X108337177Y-147054179D01*
X108319737Y-146966503D01*
X108280572Y-146871951D01*
X108273104Y-146802483D01*
X108304379Y-146740004D01*
X108364468Y-146704352D01*
X108395134Y-146700500D01*
X108508768Y-146700500D01*
X108508769Y-146700499D01*
X108673082Y-146667816D01*
X108827863Y-146603703D01*
X108967162Y-146510626D01*
X109006635Y-146471153D01*
X113549500Y-146471153D01*
X113549500Y-146628846D01*
X113580261Y-146783489D01*
X113580264Y-146783501D01*
X113640602Y-146929172D01*
X113640609Y-146929185D01*
X113728210Y-147060288D01*
X113728213Y-147060292D01*
X113839707Y-147171786D01*
X113839711Y-147171789D01*
X113970814Y-147259390D01*
X113970827Y-147259397D01*
X114061101Y-147296789D01*
X114116503Y-147319737D01*
X114271153Y-147350499D01*
X114271156Y-147350500D01*
X114271158Y-147350500D01*
X114428844Y-147350500D01*
X114428845Y-147350499D01*
X114583497Y-147319737D01*
X114729179Y-147259394D01*
X114777627Y-147227021D01*
X114844299Y-147206144D01*
X114893966Y-147215562D01*
X114971894Y-147247842D01*
X115127743Y-147278842D01*
X115136204Y-147280525D01*
X115136208Y-147280526D01*
X115136209Y-147280526D01*
X115303744Y-147280526D01*
X115303745Y-147280525D01*
X115468058Y-147247842D01*
X115622839Y-147183729D01*
X115762138Y-147090652D01*
X115880602Y-146972188D01*
X115973679Y-146832889D01*
X116037792Y-146678108D01*
X116054093Y-146596158D01*
X116054094Y-146596153D01*
X121224500Y-146596153D01*
X121224500Y-146753846D01*
X121255261Y-146908489D01*
X121255264Y-146908501D01*
X121315602Y-147054172D01*
X121315609Y-147054185D01*
X121403210Y-147185288D01*
X121403213Y-147185292D01*
X121514707Y-147296786D01*
X121514711Y-147296789D01*
X121645814Y-147384390D01*
X121645827Y-147384397D01*
X121779359Y-147439707D01*
X121791503Y-147444737D01*
X121946153Y-147475499D01*
X121946156Y-147475500D01*
X121946158Y-147475500D01*
X122103844Y-147475500D01*
X122103845Y-147475499D01*
X122258497Y-147444737D01*
X122404179Y-147384394D01*
X122535289Y-147296789D01*
X122646789Y-147185289D01*
X122734394Y-147054179D01*
X122794737Y-146908497D01*
X122825500Y-146753842D01*
X122825500Y-146596158D01*
X122825500Y-146596155D01*
X122825499Y-146596153D01*
X122809117Y-146513797D01*
X122794737Y-146441503D01*
X122790081Y-146430263D01*
X122734397Y-146295827D01*
X122734390Y-146295814D01*
X122646789Y-146164711D01*
X122646786Y-146164707D01*
X122535292Y-146053213D01*
X122535288Y-146053210D01*
X122404185Y-145965609D01*
X122404172Y-145965602D01*
X122258501Y-145905264D01*
X122258489Y-145905261D01*
X122103845Y-145874500D01*
X122103842Y-145874500D01*
X121946158Y-145874500D01*
X121946155Y-145874500D01*
X121791510Y-145905261D01*
X121791498Y-145905264D01*
X121645827Y-145965602D01*
X121645814Y-145965609D01*
X121514711Y-146053210D01*
X121514707Y-146053213D01*
X121403213Y-146164707D01*
X121403210Y-146164711D01*
X121315609Y-146295814D01*
X121315602Y-146295827D01*
X121255264Y-146441498D01*
X121255261Y-146441510D01*
X121224500Y-146596153D01*
X116054094Y-146596153D01*
X116060117Y-146565875D01*
X116070475Y-146513797D01*
X116070476Y-146513794D01*
X116070476Y-146346258D01*
X116070475Y-146346254D01*
X116060780Y-146297516D01*
X116037792Y-146181944D01*
X115978875Y-146039707D01*
X115973680Y-146027165D01*
X115880602Y-145887863D01*
X115762138Y-145769399D01*
X115622836Y-145676321D01*
X115468058Y-145612210D01*
X115468050Y-145612208D01*
X115303747Y-145579526D01*
X115303743Y-145579526D01*
X115136209Y-145579526D01*
X115136204Y-145579526D01*
X114971901Y-145612208D01*
X114971893Y-145612210D01*
X114817116Y-145676321D01*
X114685945Y-145763966D01*
X114619267Y-145784843D01*
X114589616Y-145780715D01*
X114589470Y-145781451D01*
X114428844Y-145749500D01*
X114428842Y-145749500D01*
X114271158Y-145749500D01*
X114271155Y-145749500D01*
X114116510Y-145780261D01*
X114116498Y-145780264D01*
X113970827Y-145840602D01*
X113970814Y-145840609D01*
X113839711Y-145928210D01*
X113839707Y-145928213D01*
X113728213Y-146039707D01*
X113728210Y-146039711D01*
X113640609Y-146170814D01*
X113640602Y-146170827D01*
X113580264Y-146316498D01*
X113580261Y-146316510D01*
X113549500Y-146471153D01*
X109006635Y-146471153D01*
X109085626Y-146392162D01*
X109178703Y-146252863D01*
X109242816Y-146098082D01*
X109275500Y-145933767D01*
X109275500Y-145766233D01*
X109242816Y-145601918D01*
X109178703Y-145447137D01*
X109086374Y-145308957D01*
X109085626Y-145307837D01*
X109023942Y-145246153D01*
X118024500Y-145246153D01*
X118024500Y-145403846D01*
X118055261Y-145558489D01*
X118055264Y-145558501D01*
X118115602Y-145704172D01*
X118115609Y-145704185D01*
X118203210Y-145835288D01*
X118203213Y-145835292D01*
X118314707Y-145946786D01*
X118314711Y-145946789D01*
X118445814Y-146034390D01*
X118445827Y-146034397D01*
X118591498Y-146094735D01*
X118591503Y-146094737D01*
X118717176Y-146119735D01*
X118746153Y-146125499D01*
X118746156Y-146125500D01*
X118746158Y-146125500D01*
X118903844Y-146125500D01*
X118903845Y-146125499D01*
X119058497Y-146094737D01*
X119204179Y-146034394D01*
X119335289Y-145946789D01*
X119446789Y-145835289D01*
X119534394Y-145704179D01*
X119594737Y-145558497D01*
X119625500Y-145403842D01*
X119625500Y-145271153D01*
X123999500Y-145271153D01*
X123999500Y-145428846D01*
X124030261Y-145583489D01*
X124030264Y-145583501D01*
X124090602Y-145729172D01*
X124090609Y-145729185D01*
X124178210Y-145860288D01*
X124178213Y-145860292D01*
X124289707Y-145971786D01*
X124289711Y-145971789D01*
X124420814Y-146059390D01*
X124420827Y-146059397D01*
X124566498Y-146119735D01*
X124566503Y-146119737D01*
X124721153Y-146150499D01*
X124721156Y-146150500D01*
X124721158Y-146150500D01*
X124878844Y-146150500D01*
X124878845Y-146150499D01*
X125033497Y-146119737D01*
X125179179Y-146059394D01*
X125310289Y-145971789D01*
X125421789Y-145860289D01*
X125509394Y-145729179D01*
X125569737Y-145583497D01*
X125600500Y-145428842D01*
X125600500Y-145271158D01*
X125600500Y-145271155D01*
X125600499Y-145271153D01*
X125595527Y-145246158D01*
X125569737Y-145116503D01*
X125562678Y-145099461D01*
X125507063Y-144965192D01*
X125508327Y-144964668D01*
X125495498Y-144903078D01*
X125515998Y-144844125D01*
X125518948Y-144839711D01*
X125559394Y-144779179D01*
X125619737Y-144633497D01*
X125650500Y-144478842D01*
X125650500Y-144321158D01*
X125650500Y-144321155D01*
X125650499Y-144321153D01*
X125634787Y-144242165D01*
X125619737Y-144166503D01*
X125602738Y-144125463D01*
X125559397Y-144020827D01*
X125559390Y-144020814D01*
X125471789Y-143889711D01*
X125471786Y-143889707D01*
X125360292Y-143778213D01*
X125360288Y-143778210D01*
X125229185Y-143690609D01*
X125229172Y-143690602D01*
X125083501Y-143630264D01*
X125083489Y-143630261D01*
X124928845Y-143599500D01*
X124928842Y-143599500D01*
X124771158Y-143599500D01*
X124771155Y-143599500D01*
X124616510Y-143630261D01*
X124616498Y-143630264D01*
X124470827Y-143690602D01*
X124470814Y-143690609D01*
X124339711Y-143778210D01*
X124339707Y-143778213D01*
X124228213Y-143889707D01*
X124228210Y-143889711D01*
X124140609Y-144020814D01*
X124140602Y-144020827D01*
X124080264Y-144166498D01*
X124080261Y-144166510D01*
X124049500Y-144321153D01*
X124049500Y-144478846D01*
X124080261Y-144633489D01*
X124080264Y-144633501D01*
X124142937Y-144784808D01*
X124141674Y-144785330D01*
X124154500Y-144846931D01*
X124134002Y-144905873D01*
X124090609Y-144970814D01*
X124090602Y-144970827D01*
X124030264Y-145116498D01*
X124030261Y-145116510D01*
X123999500Y-145271153D01*
X119625500Y-145271153D01*
X119625500Y-145246158D01*
X119625500Y-145246155D01*
X119625499Y-145246153D01*
X119615923Y-145198013D01*
X119594737Y-145091503D01*
X119594735Y-145091498D01*
X119534397Y-144945827D01*
X119534390Y-144945814D01*
X119446789Y-144814711D01*
X119446786Y-144814707D01*
X119335292Y-144703213D01*
X119335288Y-144703210D01*
X119204185Y-144615609D01*
X119204172Y-144615602D01*
X119058501Y-144555264D01*
X119058489Y-144555261D01*
X118903845Y-144524500D01*
X118903842Y-144524500D01*
X118746158Y-144524500D01*
X118746155Y-144524500D01*
X118591510Y-144555261D01*
X118591498Y-144555264D01*
X118445827Y-144615602D01*
X118445814Y-144615609D01*
X118314711Y-144703210D01*
X118314707Y-144703213D01*
X118203213Y-144814707D01*
X118203210Y-144814711D01*
X118115609Y-144945814D01*
X118115602Y-144945827D01*
X118055264Y-145091498D01*
X118055261Y-145091510D01*
X118024500Y-145246153D01*
X109023942Y-145246153D01*
X108967162Y-145189373D01*
X108827860Y-145096295D01*
X108673082Y-145032184D01*
X108673074Y-145032182D01*
X108508771Y-144999500D01*
X108508767Y-144999500D01*
X108341233Y-144999500D01*
X108341228Y-144999500D01*
X108176925Y-145032182D01*
X108176917Y-145032184D01*
X108022139Y-145096295D01*
X107882837Y-145189373D01*
X107764373Y-145307837D01*
X107671295Y-145447139D01*
X107607184Y-145601917D01*
X107607182Y-145601925D01*
X107574500Y-145766228D01*
X107574500Y-145933771D01*
X107607182Y-146098074D01*
X107607184Y-146098082D01*
X107628896Y-146150500D01*
X107661018Y-146228047D01*
X107668487Y-146297516D01*
X107637212Y-146359996D01*
X107577123Y-146395648D01*
X107546457Y-146399500D01*
X107471155Y-146399500D01*
X107316510Y-146430261D01*
X107316498Y-146430264D01*
X107170827Y-146490602D01*
X107170814Y-146490609D01*
X107039711Y-146578210D01*
X107039707Y-146578213D01*
X106928213Y-146689707D01*
X106928210Y-146689711D01*
X106840609Y-146820814D01*
X106840602Y-146820827D01*
X106780264Y-146966498D01*
X106780261Y-146966510D01*
X106749500Y-147121153D01*
X101000500Y-147121153D01*
X101000500Y-144311304D01*
X104099500Y-144311304D01*
X104099500Y-144488695D01*
X104134103Y-144662658D01*
X104134106Y-144662667D01*
X104201983Y-144826540D01*
X104201990Y-144826553D01*
X104300535Y-144974034D01*
X104300538Y-144974038D01*
X104425961Y-145099461D01*
X104425965Y-145099464D01*
X104573446Y-145198009D01*
X104573459Y-145198016D01*
X104696363Y-145248923D01*
X104737334Y-145265894D01*
X104737336Y-145265894D01*
X104737341Y-145265896D01*
X104911304Y-145300499D01*
X104911307Y-145300500D01*
X104911309Y-145300500D01*
X105088693Y-145300500D01*
X105088694Y-145300499D01*
X105146682Y-145288964D01*
X105262658Y-145265896D01*
X105262661Y-145265894D01*
X105262666Y-145265894D01*
X105426547Y-145198013D01*
X105574035Y-145099464D01*
X105699464Y-144974035D01*
X105798013Y-144826547D01*
X105865894Y-144662666D01*
X105871696Y-144633501D01*
X105900499Y-144488695D01*
X105900500Y-144488693D01*
X105900500Y-144311306D01*
X105900499Y-144311304D01*
X105865896Y-144137341D01*
X105865893Y-144137332D01*
X105860976Y-144125462D01*
X105838811Y-144071950D01*
X105798016Y-143973459D01*
X105798009Y-143973446D01*
X105699464Y-143825965D01*
X105699461Y-143825961D01*
X105574038Y-143700538D01*
X105574034Y-143700535D01*
X105426553Y-143601990D01*
X105426540Y-143601983D01*
X105262667Y-143534106D01*
X105262658Y-143534103D01*
X105088694Y-143499500D01*
X105088691Y-143499500D01*
X104911309Y-143499500D01*
X104911306Y-143499500D01*
X104737341Y-143534103D01*
X104737332Y-143534106D01*
X104573459Y-143601983D01*
X104573446Y-143601990D01*
X104425965Y-143700535D01*
X104425961Y-143700538D01*
X104300538Y-143825961D01*
X104300535Y-143825965D01*
X104201990Y-143973446D01*
X104201983Y-143973459D01*
X104134106Y-144137332D01*
X104134103Y-144137341D01*
X104099500Y-144311304D01*
X101000500Y-144311304D01*
X101000500Y-143021153D01*
X101299500Y-143021153D01*
X101299500Y-143178846D01*
X101330261Y-143333489D01*
X101330264Y-143333501D01*
X101390602Y-143479172D01*
X101390609Y-143479185D01*
X101478210Y-143610288D01*
X101478213Y-143610292D01*
X101589707Y-143721786D01*
X101589711Y-143721789D01*
X101720814Y-143809390D01*
X101720827Y-143809397D01*
X101866498Y-143869735D01*
X101866503Y-143869737D01*
X102008962Y-143898074D01*
X102021153Y-143900499D01*
X102021156Y-143900500D01*
X102021158Y-143900500D01*
X102178844Y-143900500D01*
X102178845Y-143900499D01*
X102333497Y-143869737D01*
X102479179Y-143809394D01*
X102610289Y-143721789D01*
X102721789Y-143610289D01*
X102809394Y-143479179D01*
X102869737Y-143333497D01*
X102900500Y-143178842D01*
X102900500Y-143021158D01*
X102900500Y-143021155D01*
X102900499Y-143021153D01*
X102894178Y-142989374D01*
X102869737Y-142866503D01*
X102834925Y-142782458D01*
X102809397Y-142720827D01*
X102809390Y-142720814D01*
X102721789Y-142589711D01*
X102721786Y-142589707D01*
X102610292Y-142478213D01*
X102610288Y-142478210D01*
X102479185Y-142390609D01*
X102479172Y-142390602D01*
X102333501Y-142330264D01*
X102333489Y-142330261D01*
X102178845Y-142299500D01*
X102178842Y-142299500D01*
X102021158Y-142299500D01*
X102021155Y-142299500D01*
X101866510Y-142330261D01*
X101866498Y-142330264D01*
X101720827Y-142390602D01*
X101720814Y-142390609D01*
X101589711Y-142478210D01*
X101589707Y-142478213D01*
X101478213Y-142589707D01*
X101478210Y-142589711D01*
X101390609Y-142720814D01*
X101390602Y-142720827D01*
X101330264Y-142866498D01*
X101330261Y-142866510D01*
X101299500Y-143021153D01*
X101000500Y-143021153D01*
X101000500Y-142216228D01*
X104949500Y-142216228D01*
X104949500Y-142383771D01*
X104982182Y-142548074D01*
X104982184Y-142548082D01*
X105046295Y-142702860D01*
X105139373Y-142842162D01*
X105257837Y-142960626D01*
X105300862Y-142989374D01*
X105397137Y-143053703D01*
X105551918Y-143117816D01*
X105716228Y-143150499D01*
X105716232Y-143150500D01*
X105889859Y-143150500D01*
X105889859Y-143152005D01*
X105951197Y-143163635D01*
X105997812Y-143205131D01*
X106089373Y-143342161D01*
X106089376Y-143342165D01*
X106207837Y-143460626D01*
X106300494Y-143522537D01*
X106347137Y-143553703D01*
X106501918Y-143617816D01*
X106564484Y-143630261D01*
X106654422Y-143648151D01*
X106716333Y-143680535D01*
X106750907Y-143741251D01*
X106751848Y-143745577D01*
X106782182Y-143898074D01*
X106782184Y-143898082D01*
X106846295Y-144052860D01*
X106939373Y-144192162D01*
X107057837Y-144310626D01*
X107132668Y-144360626D01*
X107197137Y-144403703D01*
X107351918Y-144467816D01*
X107456865Y-144488691D01*
X107516228Y-144500499D01*
X107516232Y-144500500D01*
X107516233Y-144500500D01*
X107683768Y-144500500D01*
X107683769Y-144500499D01*
X107848082Y-144467816D01*
X108002863Y-144403703D01*
X108142162Y-144310626D01*
X108260626Y-144192162D01*
X108305194Y-144125461D01*
X108358804Y-144080658D01*
X108428129Y-144071950D01*
X108491157Y-144102104D01*
X108511397Y-144125462D01*
X108589373Y-144242161D01*
X108589376Y-144242165D01*
X108707837Y-144360626D01*
X108800494Y-144422537D01*
X108847137Y-144453703D01*
X109001918Y-144517816D01*
X109166228Y-144550499D01*
X109166232Y-144550500D01*
X109166233Y-144550500D01*
X109333768Y-144550500D01*
X109333769Y-144550499D01*
X109498082Y-144517816D01*
X109652863Y-144453703D01*
X109792162Y-144360626D01*
X109910626Y-144242162D01*
X110003703Y-144102863D01*
X110067816Y-143948082D01*
X110100500Y-143783767D01*
X110100500Y-143616233D01*
X110067816Y-143451918D01*
X110003703Y-143297137D01*
X109955193Y-143224537D01*
X109910626Y-143157837D01*
X109792162Y-143039373D01*
X109652860Y-142946295D01*
X109498082Y-142882184D01*
X109498074Y-142882182D01*
X109333771Y-142849500D01*
X109333767Y-142849500D01*
X109166233Y-142849500D01*
X109166228Y-142849500D01*
X109001925Y-142882182D01*
X109001917Y-142882184D01*
X108847139Y-142946295D01*
X108707837Y-143039373D01*
X108589376Y-143157834D01*
X108544806Y-143224538D01*
X108491193Y-143269342D01*
X108421868Y-143278049D01*
X108358841Y-143247894D01*
X108338602Y-143224537D01*
X108260626Y-143107837D01*
X108142162Y-142989373D01*
X108002860Y-142896295D01*
X107848082Y-142832184D01*
X107848074Y-142832182D01*
X107695577Y-142801848D01*
X107633666Y-142769463D01*
X107599091Y-142708747D01*
X107598151Y-142704422D01*
X107575333Y-142589711D01*
X107567816Y-142551918D01*
X107518227Y-142432201D01*
X107503704Y-142397139D01*
X107477971Y-142358627D01*
X107477970Y-142358625D01*
X107436007Y-142295823D01*
X114329095Y-142295823D01*
X114329095Y-142463366D01*
X114361777Y-142627669D01*
X114361779Y-142627677D01*
X114425890Y-142782455D01*
X114518968Y-142921757D01*
X114637432Y-143040221D01*
X114713873Y-143091297D01*
X114776732Y-143133298D01*
X114931513Y-143197411D01*
X115067886Y-143224537D01*
X115095823Y-143230094D01*
X115095827Y-143230095D01*
X115095828Y-143230095D01*
X115263363Y-143230095D01*
X115263364Y-143230094D01*
X115427677Y-143197411D01*
X115582458Y-143133298D01*
X115721757Y-143040221D01*
X115749514Y-143012463D01*
X115810835Y-142978979D01*
X115880527Y-142983963D01*
X115936461Y-143025833D01*
X115960879Y-143091297D01*
X115958813Y-143124334D01*
X115949500Y-143171157D01*
X115949500Y-143328846D01*
X115980261Y-143483489D01*
X115980264Y-143483501D01*
X116040602Y-143629172D01*
X116040609Y-143629185D01*
X116128210Y-143760288D01*
X116128213Y-143760292D01*
X116239707Y-143871786D01*
X116239711Y-143871789D01*
X116370814Y-143959390D01*
X116370827Y-143959397D01*
X116516498Y-144019735D01*
X116516503Y-144019737D01*
X116671153Y-144050499D01*
X116671156Y-144050500D01*
X116671158Y-144050500D01*
X116828844Y-144050500D01*
X116828845Y-144050499D01*
X116983497Y-144019737D01*
X117129179Y-143959394D01*
X117260289Y-143871789D01*
X117371789Y-143760289D01*
X117459394Y-143629179D01*
X117464759Y-143616228D01*
X117473067Y-143596166D01*
X117519737Y-143483497D01*
X117550500Y-143328842D01*
X117550500Y-143171158D01*
X117550500Y-143171157D01*
X117550500Y-143171155D01*
X117550499Y-143171153D01*
X117539890Y-143117817D01*
X117519737Y-143016503D01*
X117519735Y-143016498D01*
X117459397Y-142870827D01*
X117459390Y-142870814D01*
X117371789Y-142739711D01*
X117371786Y-142739707D01*
X117260292Y-142628213D01*
X117260288Y-142628210D01*
X117129185Y-142540609D01*
X117129172Y-142540602D01*
X116983501Y-142480264D01*
X116983489Y-142480261D01*
X116828845Y-142449500D01*
X116828842Y-142449500D01*
X116671158Y-142449500D01*
X116671155Y-142449500D01*
X116516510Y-142480261D01*
X116516498Y-142480264D01*
X116370827Y-142540602D01*
X116370814Y-142540609D01*
X116239711Y-142628210D01*
X116226158Y-142641763D01*
X116164834Y-142675246D01*
X116095142Y-142670260D01*
X116039210Y-142628387D01*
X116014795Y-142562922D01*
X116016862Y-142529887D01*
X116030095Y-142463362D01*
X116030095Y-142295828D01*
X115997411Y-142131513D01*
X115935556Y-141982184D01*
X115933299Y-141976734D01*
X115840221Y-141837432D01*
X115721757Y-141718968D01*
X115582455Y-141625890D01*
X115427677Y-141561779D01*
X115427669Y-141561777D01*
X115263366Y-141529095D01*
X115263362Y-141529095D01*
X115095828Y-141529095D01*
X115095823Y-141529095D01*
X114931520Y-141561777D01*
X114931512Y-141561779D01*
X114776734Y-141625890D01*
X114637432Y-141718968D01*
X114518968Y-141837432D01*
X114425890Y-141976734D01*
X114361779Y-142131512D01*
X114361777Y-142131520D01*
X114329095Y-142295823D01*
X107436007Y-142295823D01*
X107410629Y-142257842D01*
X107410623Y-142257834D01*
X107292162Y-142139373D01*
X107152860Y-142046295D01*
X106998082Y-141982184D01*
X106998074Y-141982182D01*
X106833771Y-141949500D01*
X106833767Y-141949500D01*
X106666233Y-141949500D01*
X106660142Y-141949500D01*
X106660142Y-141948000D01*
X106598778Y-141936351D01*
X106552188Y-141894868D01*
X106460626Y-141757838D01*
X106460623Y-141757834D01*
X106342162Y-141639373D01*
X106202860Y-141546295D01*
X106048082Y-141482184D01*
X106048074Y-141482182D01*
X105883771Y-141449500D01*
X105883767Y-141449500D01*
X105716233Y-141449500D01*
X105716228Y-141449500D01*
X105551925Y-141482182D01*
X105551917Y-141482184D01*
X105397139Y-141546295D01*
X105257837Y-141639373D01*
X105139373Y-141757837D01*
X105046295Y-141897139D01*
X104982184Y-142051917D01*
X104982182Y-142051925D01*
X104949500Y-142216228D01*
X101000500Y-142216228D01*
X101000500Y-138361304D01*
X104649500Y-138361304D01*
X104649500Y-138538695D01*
X104684103Y-138712658D01*
X104684106Y-138712667D01*
X104751983Y-138876540D01*
X104751990Y-138876553D01*
X104850535Y-139024034D01*
X104850538Y-139024038D01*
X104975961Y-139149461D01*
X104975965Y-139149464D01*
X105123446Y-139248009D01*
X105123459Y-139248016D01*
X105246363Y-139298923D01*
X105287334Y-139315894D01*
X105287336Y-139315894D01*
X105287341Y-139315896D01*
X105461304Y-139350499D01*
X105461307Y-139350500D01*
X105461309Y-139350500D01*
X105638693Y-139350500D01*
X105638694Y-139350499D01*
X105696682Y-139338964D01*
X105812658Y-139315896D01*
X105812661Y-139315894D01*
X105812666Y-139315894D01*
X105823747Y-139311304D01*
X110049500Y-139311304D01*
X110049500Y-139488695D01*
X110084103Y-139662658D01*
X110084106Y-139662667D01*
X110151983Y-139826540D01*
X110151990Y-139826553D01*
X110250535Y-139974034D01*
X110250538Y-139974038D01*
X110375961Y-140099461D01*
X110375965Y-140099464D01*
X110523446Y-140198009D01*
X110523459Y-140198016D01*
X110646363Y-140248923D01*
X110687334Y-140265894D01*
X110687336Y-140265894D01*
X110687341Y-140265896D01*
X110861304Y-140300499D01*
X110861307Y-140300500D01*
X110861309Y-140300500D01*
X111038693Y-140300500D01*
X111038694Y-140300499D01*
X111096682Y-140288964D01*
X111212658Y-140265896D01*
X111212661Y-140265894D01*
X111212666Y-140265894D01*
X111332572Y-140216228D01*
X118399500Y-140216228D01*
X118399500Y-140383771D01*
X118432182Y-140548074D01*
X118432184Y-140548082D01*
X118496295Y-140702860D01*
X118589373Y-140842162D01*
X118707837Y-140960626D01*
X118800494Y-141022537D01*
X118847137Y-141053703D01*
X118847138Y-141053703D01*
X118847139Y-141053704D01*
X118864606Y-141060939D01*
X119001918Y-141117816D01*
X119166228Y-141150499D01*
X119166232Y-141150500D01*
X119317153Y-141150500D01*
X119384192Y-141170185D01*
X119429947Y-141222989D01*
X119439891Y-141292147D01*
X119410866Y-141355703D01*
X119364605Y-141389061D01*
X119347141Y-141396294D01*
X119347139Y-141396295D01*
X119207837Y-141489373D01*
X119089373Y-141607837D01*
X118996295Y-141747139D01*
X118932184Y-141901917D01*
X118932182Y-141901925D01*
X118899500Y-142066228D01*
X118899500Y-142233771D01*
X118932182Y-142398074D01*
X118932184Y-142398082D01*
X118996295Y-142552860D01*
X119089373Y-142692162D01*
X119207837Y-142810626D01*
X119291456Y-142866498D01*
X119347137Y-142903703D01*
X119501918Y-142967816D01*
X119666228Y-143000499D01*
X119666232Y-143000500D01*
X119666233Y-143000500D01*
X119833768Y-143000500D01*
X119833769Y-143000499D01*
X119998082Y-142967816D01*
X120152863Y-142903703D01*
X120292162Y-142810626D01*
X120410626Y-142692162D01*
X120503703Y-142552863D01*
X120567816Y-142398082D01*
X120600500Y-142233767D01*
X120600500Y-142066233D01*
X120567816Y-141901918D01*
X120513064Y-141769737D01*
X120503704Y-141747139D01*
X120410626Y-141607837D01*
X120292162Y-141489373D01*
X120152860Y-141396295D01*
X119998082Y-141332184D01*
X119998074Y-141332182D01*
X119833771Y-141299500D01*
X119833767Y-141299500D01*
X119682847Y-141299500D01*
X119615808Y-141279815D01*
X119570053Y-141227011D01*
X119560109Y-141157853D01*
X119589134Y-141094297D01*
X119635395Y-141060939D01*
X119652858Y-141053705D01*
X119652857Y-141053705D01*
X119652863Y-141053703D01*
X119792162Y-140960626D01*
X119831635Y-140921153D01*
X120649500Y-140921153D01*
X120649500Y-141078846D01*
X120680261Y-141233489D01*
X120680264Y-141233501D01*
X120740602Y-141379172D01*
X120740609Y-141379185D01*
X120828210Y-141510288D01*
X120828213Y-141510292D01*
X120939707Y-141621786D01*
X120939711Y-141621789D01*
X121070814Y-141709390D01*
X121070827Y-141709397D01*
X121187776Y-141757838D01*
X121216503Y-141769737D01*
X121371153Y-141800499D01*
X121371156Y-141800500D01*
X121371158Y-141800500D01*
X121528844Y-141800500D01*
X121528845Y-141800499D01*
X121683497Y-141769737D01*
X121829179Y-141709394D01*
X121960289Y-141621789D01*
X122071789Y-141510289D01*
X122159394Y-141379179D01*
X122219737Y-141233497D01*
X122250500Y-141078842D01*
X122250500Y-140921158D01*
X122250500Y-140921155D01*
X122250499Y-140921153D01*
X122234787Y-140842165D01*
X122219737Y-140766503D01*
X122193377Y-140702863D01*
X122159397Y-140620827D01*
X122159390Y-140620814D01*
X122071789Y-140489711D01*
X122071786Y-140489707D01*
X121974898Y-140392819D01*
X121941413Y-140331496D01*
X121946397Y-140261804D01*
X121988269Y-140205871D01*
X122053733Y-140181454D01*
X122118875Y-140194653D01*
X122131491Y-140201082D01*
X122314199Y-140260447D01*
X122503945Y-140290500D01*
X122503946Y-140290500D01*
X122696054Y-140290500D01*
X122696055Y-140290500D01*
X122885801Y-140260447D01*
X123068509Y-140201082D01*
X123239681Y-140113865D01*
X123395102Y-140000945D01*
X123530945Y-139865102D01*
X123643865Y-139709681D01*
X123731082Y-139538509D01*
X123790447Y-139355801D01*
X123820500Y-139166055D01*
X123820500Y-138973945D01*
X123790447Y-138784199D01*
X123731244Y-138601990D01*
X123731083Y-138601493D01*
X123714887Y-138569707D01*
X123643865Y-138430319D01*
X123530945Y-138274898D01*
X123395102Y-138139055D01*
X123239681Y-138026135D01*
X123234404Y-138023446D01*
X123068506Y-137938916D01*
X122885802Y-137879553D01*
X122790928Y-137864526D01*
X122696055Y-137849500D01*
X122503945Y-137849500D01*
X122440696Y-137859517D01*
X122314197Y-137879553D01*
X122131493Y-137938916D01*
X121960318Y-138026135D01*
X121871645Y-138090560D01*
X121804898Y-138139055D01*
X121804896Y-138139057D01*
X121804895Y-138139057D01*
X121669057Y-138274895D01*
X121669057Y-138274896D01*
X121669055Y-138274898D01*
X121653994Y-138295628D01*
X121556135Y-138430318D01*
X121468916Y-138601493D01*
X121409553Y-138784197D01*
X121379500Y-138973945D01*
X121379500Y-139166054D01*
X121409553Y-139355802D01*
X121468916Y-139538506D01*
X121532180Y-139662667D01*
X121556135Y-139709681D01*
X121669055Y-139865102D01*
X121804898Y-140000945D01*
X121804901Y-140000947D01*
X121852536Y-140035556D01*
X121895202Y-140090886D01*
X121901181Y-140160499D01*
X121868575Y-140222294D01*
X121807737Y-140256651D01*
X121737981Y-140252663D01*
X121732200Y-140250436D01*
X121712172Y-140242140D01*
X121683497Y-140230263D01*
X121683493Y-140230262D01*
X121683489Y-140230261D01*
X121528845Y-140199500D01*
X121528842Y-140199500D01*
X121371158Y-140199500D01*
X121371155Y-140199500D01*
X121216510Y-140230261D01*
X121216498Y-140230264D01*
X121070827Y-140290602D01*
X121070814Y-140290609D01*
X120939711Y-140378210D01*
X120939707Y-140378213D01*
X120828213Y-140489707D01*
X120828210Y-140489711D01*
X120740609Y-140620814D01*
X120740602Y-140620827D01*
X120680264Y-140766498D01*
X120680261Y-140766510D01*
X120649500Y-140921153D01*
X119831635Y-140921153D01*
X119910626Y-140842162D01*
X120003703Y-140702863D01*
X120067816Y-140548082D01*
X120100500Y-140383767D01*
X120100500Y-140216233D01*
X120067816Y-140051918D01*
X120003703Y-139897137D01*
X119956536Y-139826547D01*
X119910626Y-139757837D01*
X119792162Y-139639373D01*
X119652860Y-139546295D01*
X119498082Y-139482184D01*
X119498074Y-139482182D01*
X119333771Y-139449500D01*
X119333767Y-139449500D01*
X119166233Y-139449500D01*
X119166228Y-139449500D01*
X119001925Y-139482182D01*
X119001917Y-139482184D01*
X118847139Y-139546295D01*
X118707837Y-139639373D01*
X118589373Y-139757837D01*
X118496295Y-139897139D01*
X118432184Y-140051917D01*
X118432182Y-140051925D01*
X118399500Y-140216228D01*
X111332572Y-140216228D01*
X111376547Y-140198013D01*
X111524035Y-140099464D01*
X111649464Y-139974035D01*
X111748013Y-139826547D01*
X111815894Y-139662666D01*
X111820528Y-139639373D01*
X111839042Y-139546295D01*
X111850500Y-139488691D01*
X111850500Y-139311309D01*
X111850500Y-139311306D01*
X111850499Y-139311304D01*
X111815896Y-139137341D01*
X111815894Y-139137338D01*
X111815894Y-139137334D01*
X111759487Y-139001153D01*
X113599500Y-139001153D01*
X113599500Y-139158846D01*
X113630261Y-139313489D01*
X113630264Y-139313501D01*
X113690602Y-139459172D01*
X113690609Y-139459185D01*
X113778210Y-139590288D01*
X113778213Y-139590292D01*
X113889707Y-139701786D01*
X113889711Y-139701789D01*
X114020814Y-139789390D01*
X114020827Y-139789397D01*
X114110531Y-139826553D01*
X114166503Y-139849737D01*
X114321153Y-139880499D01*
X114321156Y-139880500D01*
X114321158Y-139880500D01*
X114478844Y-139880500D01*
X114478845Y-139880499D01*
X114633497Y-139849737D01*
X114779179Y-139789394D01*
X114910289Y-139701789D01*
X115021789Y-139590289D01*
X115109394Y-139459179D01*
X115169737Y-139313497D01*
X115200500Y-139158842D01*
X115200500Y-139115608D01*
X115220185Y-139048569D01*
X115272989Y-139002814D01*
X115300309Y-138993991D01*
X115325933Y-138988893D01*
X115373877Y-138979357D01*
X115519559Y-138919014D01*
X115650669Y-138831409D01*
X115762169Y-138719909D01*
X115849774Y-138588799D01*
X115910117Y-138443117D01*
X115940880Y-138288462D01*
X115940880Y-138130778D01*
X115940880Y-138130775D01*
X115940879Y-138130773D01*
X115919533Y-138023459D01*
X115910117Y-137976123D01*
X115894706Y-137938918D01*
X115849777Y-137830447D01*
X115849770Y-137830434D01*
X115762169Y-137699331D01*
X115762166Y-137699327D01*
X115650672Y-137587833D01*
X115650668Y-137587830D01*
X115519565Y-137500229D01*
X115519552Y-137500222D01*
X115373881Y-137439884D01*
X115373869Y-137439881D01*
X115219225Y-137409120D01*
X115219222Y-137409120D01*
X115061538Y-137409120D01*
X115061535Y-137409120D01*
X114906890Y-137439881D01*
X114906878Y-137439884D01*
X114761207Y-137500222D01*
X114761194Y-137500229D01*
X114630091Y-137587830D01*
X114630087Y-137587833D01*
X114518593Y-137699327D01*
X114518590Y-137699331D01*
X114430989Y-137830434D01*
X114430982Y-137830447D01*
X114370644Y-137976118D01*
X114370641Y-137976130D01*
X114339880Y-138130773D01*
X114339880Y-138174011D01*
X114320195Y-138241050D01*
X114267391Y-138286805D01*
X114240073Y-138295628D01*
X114166507Y-138310262D01*
X114166498Y-138310264D01*
X114020827Y-138370602D01*
X114020814Y-138370609D01*
X113889711Y-138458210D01*
X113889707Y-138458213D01*
X113778213Y-138569707D01*
X113778210Y-138569711D01*
X113690609Y-138700814D01*
X113690602Y-138700827D01*
X113630264Y-138846498D01*
X113630261Y-138846510D01*
X113599500Y-139001153D01*
X111759487Y-139001153D01*
X111750459Y-138979358D01*
X111748016Y-138973459D01*
X111748009Y-138973446D01*
X111649464Y-138825965D01*
X111649461Y-138825961D01*
X111524038Y-138700538D01*
X111524034Y-138700535D01*
X111376553Y-138601990D01*
X111376540Y-138601983D01*
X111212667Y-138534106D01*
X111212658Y-138534103D01*
X111038694Y-138499500D01*
X111038691Y-138499500D01*
X110861309Y-138499500D01*
X110861306Y-138499500D01*
X110687341Y-138534103D01*
X110687332Y-138534106D01*
X110523459Y-138601983D01*
X110523446Y-138601990D01*
X110375965Y-138700535D01*
X110375961Y-138700538D01*
X110250538Y-138825961D01*
X110250535Y-138825965D01*
X110151990Y-138973446D01*
X110151983Y-138973459D01*
X110084106Y-139137332D01*
X110084103Y-139137341D01*
X110049500Y-139311304D01*
X105823747Y-139311304D01*
X105976547Y-139248013D01*
X105976553Y-139248009D01*
X106045239Y-139202115D01*
X106099206Y-139166054D01*
X106124035Y-139149464D01*
X106249464Y-139024035D01*
X106348013Y-138876547D01*
X106415894Y-138712666D01*
X106418307Y-138700538D01*
X106450499Y-138538695D01*
X106450500Y-138538693D01*
X106450500Y-138361306D01*
X106450499Y-138361304D01*
X106415896Y-138187341D01*
X106415893Y-138187332D01*
X106348016Y-138023459D01*
X106348009Y-138023446D01*
X106249464Y-137875965D01*
X106249461Y-137875961D01*
X106124038Y-137750538D01*
X106124034Y-137750535D01*
X105976553Y-137651990D01*
X105976540Y-137651983D01*
X105812667Y-137584106D01*
X105812658Y-137584103D01*
X105638694Y-137549500D01*
X105638691Y-137549500D01*
X105461309Y-137549500D01*
X105461306Y-137549500D01*
X105287341Y-137584103D01*
X105287332Y-137584106D01*
X105123459Y-137651983D01*
X105123446Y-137651990D01*
X104975965Y-137750535D01*
X104975961Y-137750538D01*
X104850538Y-137875961D01*
X104850535Y-137875965D01*
X104751990Y-138023446D01*
X104751983Y-138023459D01*
X104684106Y-138187332D01*
X104684103Y-138187341D01*
X104649500Y-138361304D01*
X101000500Y-138361304D01*
X101000500Y-135871153D01*
X106949500Y-135871153D01*
X106949500Y-136028846D01*
X106980261Y-136183489D01*
X106980264Y-136183501D01*
X107040602Y-136329172D01*
X107040609Y-136329185D01*
X107128210Y-136460288D01*
X107128213Y-136460292D01*
X107239707Y-136571786D01*
X107239711Y-136571789D01*
X107370814Y-136659390D01*
X107370827Y-136659397D01*
X107516498Y-136719735D01*
X107516503Y-136719737D01*
X107671153Y-136750499D01*
X107671156Y-136750500D01*
X107671158Y-136750500D01*
X107828844Y-136750500D01*
X107828845Y-136750499D01*
X107983497Y-136719737D01*
X108129179Y-136659394D01*
X108260289Y-136571789D01*
X108371789Y-136460289D01*
X108389391Y-136433945D01*
X118839500Y-136433945D01*
X118839500Y-136626055D01*
X118844781Y-136659397D01*
X118869553Y-136815802D01*
X118928916Y-136998506D01*
X118928918Y-136998509D01*
X119016135Y-137169681D01*
X119129055Y-137325102D01*
X119264898Y-137460945D01*
X119420319Y-137573865D01*
X119447729Y-137587831D01*
X119591493Y-137661083D01*
X119682845Y-137690764D01*
X119774199Y-137720447D01*
X119963945Y-137750500D01*
X119963946Y-137750500D01*
X120156054Y-137750500D01*
X120156055Y-137750500D01*
X120345801Y-137720447D01*
X120528509Y-137661082D01*
X120699681Y-137573865D01*
X120855102Y-137460945D01*
X120990945Y-137325102D01*
X121103865Y-137169681D01*
X121191082Y-136998509D01*
X121250447Y-136815801D01*
X121280500Y-136626055D01*
X121280500Y-136433945D01*
X123919500Y-136433945D01*
X123919500Y-136626055D01*
X123924781Y-136659397D01*
X123949553Y-136815802D01*
X124008916Y-136998506D01*
X124008918Y-136998509D01*
X124096135Y-137169681D01*
X124209055Y-137325102D01*
X124344898Y-137460945D01*
X124500319Y-137573865D01*
X124527729Y-137587831D01*
X124671493Y-137661083D01*
X124762845Y-137690764D01*
X124854199Y-137720447D01*
X125043945Y-137750500D01*
X125043946Y-137750500D01*
X125236054Y-137750500D01*
X125236055Y-137750500D01*
X125425801Y-137720447D01*
X125608509Y-137661082D01*
X125779681Y-137573865D01*
X125935102Y-137460945D01*
X126070945Y-137325102D01*
X126183865Y-137169681D01*
X126271082Y-136998509D01*
X126330447Y-136815801D01*
X126360500Y-136626055D01*
X126360500Y-136433945D01*
X126330447Y-136244199D01*
X126271082Y-136061491D01*
X126183865Y-135890319D01*
X126070945Y-135734898D01*
X125935102Y-135599055D01*
X125779681Y-135486135D01*
X125752258Y-135472162D01*
X125608506Y-135398916D01*
X125425802Y-135339553D01*
X125330928Y-135324526D01*
X125236055Y-135309500D01*
X125043945Y-135309500D01*
X124980696Y-135319517D01*
X124854197Y-135339553D01*
X124671493Y-135398916D01*
X124500318Y-135486135D01*
X124423736Y-135541776D01*
X124344898Y-135599055D01*
X124344896Y-135599057D01*
X124344895Y-135599057D01*
X124209057Y-135734895D01*
X124209057Y-135734896D01*
X124209055Y-135734898D01*
X124160560Y-135801645D01*
X124096135Y-135890318D01*
X124008916Y-136061493D01*
X123949553Y-136244197D01*
X123936093Y-136329179D01*
X123919500Y-136433945D01*
X121280500Y-136433945D01*
X121250447Y-136244199D01*
X121191082Y-136061491D01*
X121103865Y-135890319D01*
X120990945Y-135734898D01*
X120855102Y-135599055D01*
X120852421Y-135597107D01*
X120851649Y-135596107D01*
X120851397Y-135595891D01*
X120851442Y-135595837D01*
X120809757Y-135541776D01*
X120803779Y-135472162D01*
X120810747Y-135449340D01*
X120829737Y-135403497D01*
X120860500Y-135248842D01*
X120860500Y-135091158D01*
X120860500Y-135091155D01*
X120860499Y-135091153D01*
X120829738Y-134936510D01*
X120829737Y-134936503D01*
X120829735Y-134936498D01*
X120769397Y-134790827D01*
X120769390Y-134790814D01*
X120681789Y-134659711D01*
X120681786Y-134659707D01*
X120570292Y-134548213D01*
X120570288Y-134548210D01*
X120439185Y-134460609D01*
X120439172Y-134460602D01*
X120293501Y-134400264D01*
X120293489Y-134400261D01*
X120138845Y-134369500D01*
X120138842Y-134369500D01*
X119981158Y-134369500D01*
X119981155Y-134369500D01*
X119826510Y-134400261D01*
X119826498Y-134400264D01*
X119680827Y-134460602D01*
X119680814Y-134460609D01*
X119549711Y-134548210D01*
X119549707Y-134548213D01*
X119438213Y-134659707D01*
X119438210Y-134659711D01*
X119350609Y-134790814D01*
X119350602Y-134790827D01*
X119290264Y-134936498D01*
X119290261Y-134936510D01*
X119259500Y-135091153D01*
X119259500Y-135248846D01*
X119290260Y-135403488D01*
X119290261Y-135403489D01*
X119290263Y-135403497D01*
X119309252Y-135449341D01*
X119316720Y-135518809D01*
X119285444Y-135581288D01*
X119267578Y-135597107D01*
X119264903Y-135599050D01*
X119264898Y-135599054D01*
X119129057Y-135734895D01*
X119129057Y-135734896D01*
X119129055Y-135734898D01*
X119080560Y-135801645D01*
X119016135Y-135890318D01*
X118928916Y-136061493D01*
X118869553Y-136244197D01*
X118856093Y-136329179D01*
X118839500Y-136433945D01*
X108389391Y-136433945D01*
X108408012Y-136406076D01*
X108438679Y-136360182D01*
X108459390Y-136329185D01*
X108459390Y-136329184D01*
X108459394Y-136329179D01*
X108519737Y-136183497D01*
X108550500Y-136028842D01*
X108550500Y-135871158D01*
X108550500Y-135871155D01*
X108550499Y-135871153D01*
X108523396Y-135734898D01*
X108519737Y-135716503D01*
X108471089Y-135599055D01*
X108459397Y-135570827D01*
X108459390Y-135570814D01*
X108371789Y-135439711D01*
X108371786Y-135439707D01*
X108260292Y-135328213D01*
X108260288Y-135328210D01*
X108129185Y-135240609D01*
X108129172Y-135240602D01*
X107983501Y-135180264D01*
X107983489Y-135180261D01*
X107828845Y-135149500D01*
X107828842Y-135149500D01*
X107671158Y-135149500D01*
X107671155Y-135149500D01*
X107516510Y-135180261D01*
X107516498Y-135180264D01*
X107370827Y-135240602D01*
X107370814Y-135240609D01*
X107239711Y-135328210D01*
X107239707Y-135328213D01*
X107128213Y-135439707D01*
X107128210Y-135439711D01*
X107040609Y-135570814D01*
X107040602Y-135570827D01*
X106980264Y-135716498D01*
X106980261Y-135716510D01*
X106949500Y-135871153D01*
X101000500Y-135871153D01*
X101000500Y-134286555D01*
X101020185Y-134219516D01*
X101072989Y-134173761D01*
X101142147Y-134163817D01*
X101160411Y-134168840D01*
X101160676Y-134167969D01*
X101166492Y-134169732D01*
X101166503Y-134169737D01*
X101315935Y-134199461D01*
X101321153Y-134200499D01*
X101321156Y-134200500D01*
X101321158Y-134200500D01*
X101478844Y-134200500D01*
X101478845Y-134200499D01*
X101633497Y-134169737D01*
X101779179Y-134109394D01*
X101910289Y-134021789D01*
X102021789Y-133910289D01*
X102109394Y-133779179D01*
X102131653Y-133725440D01*
X102175491Y-133671039D01*
X102241785Y-133648973D01*
X102309485Y-133666251D01*
X102324851Y-133678188D01*
X102325381Y-133677544D01*
X102330091Y-133681409D01*
X102461194Y-133769010D01*
X102461207Y-133769017D01*
X102606878Y-133829355D01*
X102606883Y-133829357D01*
X102761533Y-133860119D01*
X102761536Y-133860120D01*
X102761538Y-133860120D01*
X102919224Y-133860120D01*
X102919225Y-133860119D01*
X103073877Y-133829357D01*
X103219559Y-133769014D01*
X103350669Y-133681409D01*
X103462169Y-133569909D01*
X103549774Y-133438799D01*
X103610117Y-133293117D01*
X103640880Y-133138462D01*
X103640880Y-132980778D01*
X103640880Y-132980775D01*
X103640879Y-132980773D01*
X103629976Y-132925961D01*
X103610117Y-132826123D01*
X103603706Y-132810646D01*
X103549777Y-132680447D01*
X103549770Y-132680434D01*
X103515424Y-132629032D01*
X103473459Y-132566228D01*
X103924500Y-132566228D01*
X103924500Y-132733771D01*
X103957182Y-132898074D01*
X103957184Y-132898082D01*
X104021295Y-133052860D01*
X104114373Y-133192162D01*
X104232837Y-133310626D01*
X104324370Y-133371786D01*
X104372137Y-133403703D01*
X104526918Y-133467816D01*
X104691228Y-133500499D01*
X104691232Y-133500500D01*
X104691233Y-133500500D01*
X104858768Y-133500500D01*
X104858769Y-133500499D01*
X105023082Y-133467816D01*
X105159513Y-133411304D01*
X108349500Y-133411304D01*
X108349500Y-133588695D01*
X108384103Y-133762658D01*
X108384106Y-133762667D01*
X108451983Y-133926540D01*
X108451990Y-133926553D01*
X108550535Y-134074034D01*
X108550538Y-134074038D01*
X108675961Y-134199461D01*
X108675965Y-134199464D01*
X108823446Y-134298009D01*
X108823459Y-134298016D01*
X108946363Y-134348923D01*
X108987334Y-134365894D01*
X108987336Y-134365894D01*
X108987341Y-134365896D01*
X109161304Y-134400499D01*
X109161307Y-134400500D01*
X109161309Y-134400500D01*
X109338693Y-134400500D01*
X109338694Y-134400499D01*
X109396682Y-134388964D01*
X109512658Y-134365896D01*
X109512661Y-134365894D01*
X109512666Y-134365894D01*
X109676547Y-134298013D01*
X109824035Y-134199464D01*
X109949464Y-134074035D01*
X110048013Y-133926547D01*
X110115894Y-133762666D01*
X110121696Y-133733501D01*
X110150499Y-133588695D01*
X110150500Y-133588693D01*
X110150500Y-133421153D01*
X110549500Y-133421153D01*
X110549500Y-133578846D01*
X110580261Y-133733489D01*
X110580264Y-133733501D01*
X110640602Y-133879172D01*
X110640609Y-133879185D01*
X110728210Y-134010288D01*
X110728213Y-134010292D01*
X110839707Y-134121786D01*
X110839711Y-134121789D01*
X110970814Y-134209390D01*
X110970827Y-134209397D01*
X111116498Y-134269735D01*
X111116503Y-134269737D01*
X111258635Y-134298009D01*
X111271153Y-134300499D01*
X111271156Y-134300500D01*
X111271158Y-134300500D01*
X111428844Y-134300500D01*
X111428845Y-134300499D01*
X111583497Y-134269737D01*
X111729179Y-134209394D01*
X111860289Y-134121789D01*
X111971789Y-134010289D01*
X112059394Y-133879179D01*
X112119737Y-133733497D01*
X112150500Y-133578842D01*
X112150500Y-133421158D01*
X112150500Y-133421155D01*
X112150499Y-133421153D01*
X112128514Y-133310629D01*
X112119737Y-133266503D01*
X112117163Y-133260288D01*
X112059397Y-133120827D01*
X112059390Y-133120814D01*
X111971789Y-132989711D01*
X111971786Y-132989707D01*
X111860292Y-132878213D01*
X111860288Y-132878210D01*
X111729185Y-132790609D01*
X111729173Y-132790602D01*
X111702674Y-132779627D01*
X111583501Y-132730264D01*
X111583489Y-132730261D01*
X111428845Y-132699500D01*
X111428842Y-132699500D01*
X111271158Y-132699500D01*
X111271155Y-132699500D01*
X111116510Y-132730261D01*
X111116498Y-132730264D01*
X110970827Y-132790602D01*
X110970814Y-132790609D01*
X110839711Y-132878210D01*
X110839707Y-132878213D01*
X110728213Y-132989707D01*
X110728210Y-132989711D01*
X110640609Y-133120814D01*
X110640602Y-133120827D01*
X110580264Y-133266498D01*
X110580261Y-133266510D01*
X110549500Y-133421153D01*
X110150500Y-133421153D01*
X110150500Y-133411306D01*
X110150499Y-133411304D01*
X110115896Y-133237341D01*
X110115893Y-133237332D01*
X110108605Y-133219738D01*
X110074941Y-133138464D01*
X110048016Y-133073459D01*
X110048009Y-133073446D01*
X109949464Y-132925965D01*
X109949461Y-132925961D01*
X109824038Y-132800538D01*
X109824034Y-132800535D01*
X109676553Y-132701990D01*
X109676540Y-132701983D01*
X109602108Y-132671153D01*
X112249500Y-132671153D01*
X112249500Y-132828846D01*
X112280261Y-132983489D01*
X112280264Y-132983501D01*
X112340602Y-133129172D01*
X112340609Y-133129185D01*
X112428210Y-133260288D01*
X112428213Y-133260292D01*
X112539707Y-133371786D01*
X112539711Y-133371789D01*
X112670814Y-133459390D01*
X112670827Y-133459397D01*
X112770060Y-133500500D01*
X112816503Y-133519737D01*
X112971153Y-133550499D01*
X112971156Y-133550500D01*
X112971158Y-133550500D01*
X113128844Y-133550500D01*
X113128845Y-133550499D01*
X113283497Y-133519737D01*
X113429179Y-133459394D01*
X113560289Y-133371789D01*
X113671789Y-133260289D01*
X113759394Y-133129179D01*
X113762854Y-133120827D01*
X113782479Y-133073446D01*
X113819737Y-132983497D01*
X113850500Y-132828842D01*
X113850500Y-132671158D01*
X113850500Y-132671155D01*
X113850499Y-132671153D01*
X113842191Y-132629385D01*
X113819737Y-132516503D01*
X113787151Y-132437833D01*
X113759397Y-132370827D01*
X113759390Y-132370814D01*
X113671789Y-132239711D01*
X113671786Y-132239707D01*
X113560292Y-132128213D01*
X113560288Y-132128210D01*
X113429185Y-132040609D01*
X113429172Y-132040602D01*
X113283501Y-131980264D01*
X113283489Y-131980261D01*
X113128845Y-131949500D01*
X113128842Y-131949500D01*
X112971158Y-131949500D01*
X112971155Y-131949500D01*
X112816510Y-131980261D01*
X112816498Y-131980264D01*
X112670827Y-132040602D01*
X112670814Y-132040609D01*
X112539711Y-132128210D01*
X112539707Y-132128213D01*
X112428213Y-132239707D01*
X112428210Y-132239711D01*
X112340609Y-132370814D01*
X112340602Y-132370827D01*
X112280264Y-132516498D01*
X112280261Y-132516510D01*
X112249500Y-132671153D01*
X109602108Y-132671153D01*
X109512667Y-132634106D01*
X109512658Y-132634103D01*
X109338694Y-132599500D01*
X109338691Y-132599500D01*
X109161309Y-132599500D01*
X109161306Y-132599500D01*
X108987341Y-132634103D01*
X108987332Y-132634106D01*
X108823459Y-132701983D01*
X108823446Y-132701990D01*
X108675965Y-132800535D01*
X108675961Y-132800538D01*
X108550538Y-132925961D01*
X108550535Y-132925965D01*
X108451990Y-133073446D01*
X108451983Y-133073459D01*
X108384106Y-133237332D01*
X108384103Y-133237341D01*
X108349500Y-133411304D01*
X105159513Y-133411304D01*
X105177863Y-133403703D01*
X105317162Y-133310626D01*
X105435626Y-133192162D01*
X105528703Y-133052863D01*
X105592816Y-132898082D01*
X105625500Y-132733767D01*
X105625500Y-132566233D01*
X105597369Y-132424807D01*
X105603596Y-132355217D01*
X105646459Y-132300039D01*
X105712349Y-132276795D01*
X105780346Y-132292863D01*
X105787871Y-132297512D01*
X105797137Y-132303703D01*
X105951918Y-132367816D01*
X106116228Y-132400499D01*
X106116232Y-132400500D01*
X106116233Y-132400500D01*
X106283768Y-132400500D01*
X106283769Y-132400499D01*
X106448082Y-132367816D01*
X106602863Y-132303703D01*
X106742162Y-132210626D01*
X106860626Y-132092162D01*
X106953703Y-131952863D01*
X107017816Y-131798082D01*
X107050500Y-131633767D01*
X107050500Y-131466233D01*
X107017816Y-131301918D01*
X106955686Y-131151925D01*
X106953704Y-131147139D01*
X106860626Y-131007837D01*
X106742164Y-130889375D01*
X106727758Y-130879750D01*
X106602863Y-130796297D01*
X106602862Y-130796296D01*
X106602860Y-130796295D01*
X106542162Y-130771153D01*
X112999500Y-130771153D01*
X112999500Y-130928846D01*
X113030261Y-131083489D01*
X113030264Y-131083501D01*
X113090602Y-131229172D01*
X113090609Y-131229185D01*
X113178210Y-131360288D01*
X113178213Y-131360292D01*
X113289707Y-131471786D01*
X113289711Y-131471789D01*
X113420814Y-131559390D01*
X113420827Y-131559397D01*
X113566498Y-131619735D01*
X113566503Y-131619737D01*
X113708962Y-131648074D01*
X113721153Y-131650499D01*
X113721156Y-131650500D01*
X113721158Y-131650500D01*
X113878844Y-131650500D01*
X113878845Y-131650499D01*
X114033497Y-131619737D01*
X114179179Y-131559394D01*
X114310289Y-131471789D01*
X114421789Y-131360289D01*
X114509394Y-131229179D01*
X114569737Y-131083497D01*
X114600500Y-130928842D01*
X114600500Y-130771158D01*
X114600500Y-130771155D01*
X114600499Y-130771153D01*
X114594178Y-130739374D01*
X114569737Y-130616503D01*
X114541984Y-130549500D01*
X114509397Y-130470827D01*
X114509390Y-130470814D01*
X114421789Y-130339711D01*
X114421786Y-130339707D01*
X114310292Y-130228213D01*
X114310288Y-130228210D01*
X114205689Y-130158319D01*
X114179184Y-130140609D01*
X114179172Y-130140602D01*
X114033501Y-130080264D01*
X114033489Y-130080261D01*
X113938187Y-130061304D01*
X121799500Y-130061304D01*
X121799500Y-130238695D01*
X121834103Y-130412658D01*
X121834106Y-130412667D01*
X121901983Y-130576540D01*
X121901990Y-130576553D01*
X122000535Y-130724034D01*
X122000538Y-130724038D01*
X122125961Y-130849461D01*
X122125965Y-130849464D01*
X122273446Y-130948009D01*
X122273459Y-130948016D01*
X122392050Y-130997137D01*
X122437334Y-131015894D01*
X122437336Y-131015894D01*
X122437341Y-131015896D01*
X122611304Y-131050499D01*
X122611307Y-131050500D01*
X122611309Y-131050500D01*
X122788693Y-131050500D01*
X122788694Y-131050499D01*
X122846682Y-131038964D01*
X122962658Y-131015896D01*
X122962661Y-131015894D01*
X122962666Y-131015894D01*
X123126547Y-130948013D01*
X123274035Y-130849464D01*
X123399464Y-130724035D01*
X123498013Y-130576547D01*
X123565894Y-130412666D01*
X123600500Y-130238691D01*
X123600500Y-130061309D01*
X123600500Y-130061306D01*
X123600499Y-130061304D01*
X123565896Y-129887341D01*
X123565893Y-129887332D01*
X123498016Y-129723459D01*
X123498009Y-129723446D01*
X123399464Y-129575965D01*
X123399461Y-129575961D01*
X123274038Y-129450538D01*
X123274034Y-129450535D01*
X123126553Y-129351990D01*
X123126540Y-129351983D01*
X122962667Y-129284106D01*
X122962658Y-129284103D01*
X122788694Y-129249500D01*
X122788691Y-129249500D01*
X122611309Y-129249500D01*
X122611306Y-129249500D01*
X122437341Y-129284103D01*
X122437332Y-129284106D01*
X122273459Y-129351983D01*
X122273446Y-129351990D01*
X122125965Y-129450535D01*
X122125961Y-129450538D01*
X122000538Y-129575961D01*
X122000535Y-129575965D01*
X121901990Y-129723446D01*
X121901983Y-129723459D01*
X121834106Y-129887332D01*
X121834103Y-129887341D01*
X121799500Y-130061304D01*
X113938187Y-130061304D01*
X113878845Y-130049500D01*
X113878842Y-130049500D01*
X113721158Y-130049500D01*
X113721155Y-130049500D01*
X113566510Y-130080261D01*
X113566498Y-130080264D01*
X113420827Y-130140602D01*
X113420814Y-130140609D01*
X113289711Y-130228210D01*
X113289707Y-130228213D01*
X113178213Y-130339707D01*
X113178210Y-130339711D01*
X113090609Y-130470814D01*
X113090602Y-130470827D01*
X113030264Y-130616498D01*
X113030261Y-130616510D01*
X112999500Y-130771153D01*
X106542162Y-130771153D01*
X106448082Y-130732184D01*
X106448074Y-130732182D01*
X106283771Y-130699500D01*
X106283767Y-130699500D01*
X106116233Y-130699500D01*
X106116228Y-130699500D01*
X105951925Y-130732182D01*
X105951917Y-130732184D01*
X105797139Y-130796295D01*
X105657837Y-130889373D01*
X105539373Y-131007837D01*
X105446295Y-131147139D01*
X105382184Y-131301917D01*
X105382182Y-131301925D01*
X105349500Y-131466228D01*
X105349500Y-131633771D01*
X105377630Y-131775191D01*
X105371403Y-131844783D01*
X105328539Y-131899960D01*
X105262650Y-131923204D01*
X105194653Y-131907136D01*
X105187122Y-131902484D01*
X105177860Y-131896295D01*
X105023082Y-131832184D01*
X105023074Y-131832182D01*
X104858771Y-131799500D01*
X104858767Y-131799500D01*
X104691233Y-131799500D01*
X104691228Y-131799500D01*
X104526925Y-131832182D01*
X104526917Y-131832184D01*
X104372139Y-131896295D01*
X104232837Y-131989373D01*
X104114373Y-132107837D01*
X104021295Y-132247139D01*
X103957184Y-132401917D01*
X103957182Y-132401925D01*
X103924500Y-132566228D01*
X103473459Y-132566228D01*
X103462169Y-132549331D01*
X103462166Y-132549327D01*
X103350672Y-132437833D01*
X103350668Y-132437830D01*
X103219565Y-132350229D01*
X103219552Y-132350222D01*
X103073881Y-132289884D01*
X103073869Y-132289881D01*
X102919225Y-132259120D01*
X102919222Y-132259120D01*
X102761538Y-132259120D01*
X102761535Y-132259120D01*
X102606890Y-132289881D01*
X102606878Y-132289884D01*
X102461207Y-132350222D01*
X102461194Y-132350229D01*
X102330091Y-132437830D01*
X102330087Y-132437833D01*
X102218593Y-132549327D01*
X102218590Y-132549331D01*
X102130989Y-132680434D01*
X102130984Y-132680444D01*
X102108727Y-132734178D01*
X102064886Y-132788581D01*
X101998591Y-132810646D01*
X101930892Y-132793367D01*
X101915528Y-132781431D01*
X101914999Y-132782076D01*
X101910288Y-132778210D01*
X101779185Y-132690609D01*
X101779172Y-132690602D01*
X101633501Y-132630264D01*
X101633489Y-132630261D01*
X101478845Y-132599500D01*
X101478842Y-132599500D01*
X101321158Y-132599500D01*
X101321155Y-132599500D01*
X101166510Y-132630261D01*
X101160676Y-132632031D01*
X101159873Y-132629385D01*
X101102056Y-132635396D01*
X101039687Y-132603902D01*
X101004245Y-132543689D01*
X101000500Y-132513444D01*
X101000500Y-128671153D01*
X117099500Y-128671153D01*
X117099500Y-128828846D01*
X117130261Y-128983489D01*
X117130264Y-128983501D01*
X117190602Y-129129172D01*
X117190609Y-129129185D01*
X117278210Y-129260288D01*
X117278213Y-129260292D01*
X117389707Y-129371786D01*
X117389711Y-129371789D01*
X117520814Y-129459390D01*
X117520827Y-129459397D01*
X117666498Y-129519735D01*
X117666503Y-129519737D01*
X117821153Y-129550499D01*
X117821156Y-129550500D01*
X117821158Y-129550500D01*
X117978844Y-129550500D01*
X117978845Y-129550499D01*
X118133497Y-129519737D01*
X118279179Y-129459394D01*
X118410289Y-129371789D01*
X118521789Y-129260289D01*
X118609394Y-129129179D01*
X118669737Y-128983497D01*
X118700500Y-128828842D01*
X118700500Y-128671158D01*
X118700500Y-128671155D01*
X118700499Y-128671153D01*
X118669738Y-128516510D01*
X118669737Y-128516503D01*
X118669735Y-128516498D01*
X118609397Y-128370827D01*
X118609390Y-128370814D01*
X118521789Y-128239711D01*
X118521786Y-128239707D01*
X118410292Y-128128213D01*
X118410288Y-128128210D01*
X118279185Y-128040609D01*
X118279172Y-128040602D01*
X118133501Y-127980264D01*
X118133489Y-127980261D01*
X117978845Y-127949500D01*
X117978842Y-127949500D01*
X117821158Y-127949500D01*
X117821155Y-127949500D01*
X117666510Y-127980261D01*
X117666498Y-127980264D01*
X117520827Y-128040602D01*
X117520814Y-128040609D01*
X117389711Y-128128210D01*
X117389707Y-128128213D01*
X117278213Y-128239707D01*
X117278210Y-128239711D01*
X117190609Y-128370814D01*
X117190602Y-128370827D01*
X117130264Y-128516498D01*
X117130261Y-128516510D01*
X117099500Y-128671153D01*
X101000500Y-128671153D01*
X101000500Y-126566228D01*
X104599500Y-126566228D01*
X104599500Y-126733771D01*
X104632182Y-126898074D01*
X104632184Y-126898082D01*
X104696295Y-127052860D01*
X104789373Y-127192162D01*
X104907837Y-127310626D01*
X104996303Y-127369737D01*
X105047137Y-127403703D01*
X105201918Y-127467816D01*
X105366228Y-127500499D01*
X105366232Y-127500500D01*
X105366233Y-127500500D01*
X105533768Y-127500500D01*
X105533769Y-127500499D01*
X105698082Y-127467816D01*
X105852863Y-127403703D01*
X105992162Y-127310626D01*
X106110626Y-127192162D01*
X106203703Y-127052863D01*
X106224425Y-127002835D01*
X106268266Y-126948433D01*
X106334560Y-126926368D01*
X106402259Y-126943647D01*
X106442088Y-126981398D01*
X106528210Y-127110288D01*
X106528213Y-127110292D01*
X106639707Y-127221786D01*
X106639711Y-127221789D01*
X106770814Y-127309390D01*
X106770827Y-127309397D01*
X106916498Y-127369735D01*
X106916503Y-127369737D01*
X107071153Y-127400499D01*
X107071156Y-127400500D01*
X107071158Y-127400500D01*
X107228844Y-127400500D01*
X107228845Y-127400499D01*
X107383497Y-127369737D01*
X107529179Y-127309394D01*
X107660289Y-127221789D01*
X107771789Y-127110289D01*
X107859394Y-126979179D01*
X107919737Y-126833497D01*
X107950500Y-126678842D01*
X107950500Y-126521158D01*
X107950500Y-126521155D01*
X107950499Y-126521153D01*
X109649500Y-126521153D01*
X109649500Y-126678846D01*
X109680261Y-126833489D01*
X109680264Y-126833501D01*
X109740602Y-126979172D01*
X109740609Y-126979185D01*
X109828210Y-127110288D01*
X109828213Y-127110292D01*
X109939707Y-127221786D01*
X109939711Y-127221789D01*
X110070814Y-127309390D01*
X110070827Y-127309397D01*
X110216498Y-127369735D01*
X110216503Y-127369737D01*
X110371153Y-127400499D01*
X110371156Y-127400500D01*
X110371158Y-127400500D01*
X110528844Y-127400500D01*
X110528845Y-127400499D01*
X110683497Y-127369737D01*
X110829179Y-127309394D01*
X110960289Y-127221789D01*
X111071789Y-127110289D01*
X111159394Y-126979179D01*
X111219737Y-126833497D01*
X111219739Y-126833489D01*
X111221161Y-126828802D01*
X111259459Y-126770364D01*
X111315625Y-126743183D01*
X111433497Y-126719737D01*
X111579179Y-126659394D01*
X111710289Y-126571789D01*
X111821789Y-126460289D01*
X111880450Y-126372495D01*
X111934061Y-126327691D01*
X112003386Y-126318984D01*
X112066414Y-126349138D01*
X112103134Y-126408581D01*
X112105169Y-126417195D01*
X112134104Y-126562659D01*
X112134106Y-126562667D01*
X112201983Y-126726540D01*
X112201990Y-126726553D01*
X112300535Y-126874034D01*
X112300538Y-126874038D01*
X112425961Y-126999461D01*
X112425965Y-126999464D01*
X112573446Y-127098009D01*
X112573459Y-127098016D01*
X112603097Y-127110292D01*
X112737334Y-127165894D01*
X112737336Y-127165894D01*
X112737341Y-127165896D01*
X112911304Y-127200499D01*
X112911307Y-127200500D01*
X112911309Y-127200500D01*
X113088693Y-127200500D01*
X113088694Y-127200499D01*
X113146682Y-127188964D01*
X113262658Y-127165896D01*
X113262661Y-127165894D01*
X113262666Y-127165894D01*
X113426547Y-127098013D01*
X113574035Y-126999464D01*
X113699464Y-126874035D01*
X113798013Y-126726547D01*
X113865894Y-126562666D01*
X113865894Y-126562661D01*
X113865896Y-126562658D01*
X113894830Y-126417195D01*
X113900500Y-126388691D01*
X113900500Y-126211309D01*
X113900500Y-126211306D01*
X113900499Y-126211304D01*
X115999500Y-126211304D01*
X115999500Y-126388695D01*
X116034103Y-126562658D01*
X116034106Y-126562667D01*
X116101983Y-126726540D01*
X116101990Y-126726553D01*
X116200535Y-126874034D01*
X116200538Y-126874038D01*
X116325961Y-126999461D01*
X116325965Y-126999464D01*
X116473446Y-127098009D01*
X116473459Y-127098016D01*
X116503097Y-127110292D01*
X116637334Y-127165894D01*
X116637336Y-127165894D01*
X116637341Y-127165896D01*
X116811304Y-127200499D01*
X116811307Y-127200500D01*
X116811309Y-127200500D01*
X116988693Y-127200500D01*
X116988694Y-127200499D01*
X117046682Y-127188964D01*
X117162658Y-127165896D01*
X117162661Y-127165894D01*
X117162666Y-127165894D01*
X117326547Y-127098013D01*
X117474035Y-126999464D01*
X117599464Y-126874035D01*
X117698013Y-126726547D01*
X117765894Y-126562666D01*
X117765894Y-126562661D01*
X117765896Y-126562658D01*
X117794830Y-126417195D01*
X117800500Y-126388691D01*
X117800500Y-126211309D01*
X117800500Y-126211306D01*
X117800499Y-126211304D01*
X117789959Y-126158311D01*
X117796186Y-126088719D01*
X117839050Y-126033542D01*
X117904940Y-126010298D01*
X117911576Y-126010120D01*
X117978844Y-126010120D01*
X117978845Y-126010119D01*
X118133497Y-125979357D01*
X118279179Y-125919014D01*
X118410289Y-125831409D01*
X118521789Y-125719909D01*
X118609394Y-125588799D01*
X118669737Y-125443117D01*
X118700500Y-125288462D01*
X118700500Y-125130778D01*
X118700500Y-125130775D01*
X118700499Y-125130773D01*
X118687714Y-125066498D01*
X118669737Y-124976123D01*
X118646833Y-124920827D01*
X118609397Y-124830447D01*
X118609390Y-124830434D01*
X118521789Y-124699331D01*
X118521786Y-124699327D01*
X118410292Y-124587833D01*
X118410288Y-124587830D01*
X118279185Y-124500229D01*
X118279172Y-124500222D01*
X118133501Y-124439884D01*
X118133489Y-124439881D01*
X117978845Y-124409120D01*
X117978842Y-124409120D01*
X117821158Y-124409120D01*
X117821155Y-124409120D01*
X117666510Y-124439881D01*
X117666498Y-124439884D01*
X117520827Y-124500222D01*
X117520814Y-124500229D01*
X117389711Y-124587830D01*
X117389707Y-124587833D01*
X117278213Y-124699327D01*
X117278210Y-124699331D01*
X117190609Y-124830434D01*
X117190602Y-124830447D01*
X117130264Y-124976118D01*
X117130261Y-124976130D01*
X117099500Y-125130773D01*
X117099500Y-125275500D01*
X117079815Y-125342539D01*
X117027011Y-125388294D01*
X116975500Y-125399500D01*
X116811306Y-125399500D01*
X116637341Y-125434103D01*
X116637332Y-125434106D01*
X116473459Y-125501983D01*
X116473446Y-125501990D01*
X116325965Y-125600535D01*
X116325961Y-125600538D01*
X116200538Y-125725961D01*
X116200535Y-125725965D01*
X116101990Y-125873446D01*
X116101983Y-125873459D01*
X116034106Y-126037332D01*
X116034103Y-126037341D01*
X115999500Y-126211304D01*
X113900499Y-126211304D01*
X113865896Y-126037341D01*
X113865893Y-126037332D01*
X113862376Y-126028842D01*
X113827620Y-125944932D01*
X113798016Y-125873459D01*
X113798009Y-125873446D01*
X113699464Y-125725965D01*
X113699461Y-125725961D01*
X113574038Y-125600538D01*
X113574034Y-125600535D01*
X113426553Y-125501990D01*
X113426540Y-125501983D01*
X113262667Y-125434106D01*
X113262658Y-125434103D01*
X113088694Y-125399500D01*
X113088691Y-125399500D01*
X112911309Y-125399500D01*
X112911306Y-125399500D01*
X112737341Y-125434103D01*
X112737332Y-125434106D01*
X112573459Y-125501983D01*
X112573446Y-125501990D01*
X112425965Y-125600535D01*
X112425961Y-125600538D01*
X112300538Y-125725961D01*
X112300533Y-125725967D01*
X112213388Y-125856387D01*
X112159776Y-125901191D01*
X112090451Y-125909898D01*
X112027424Y-125879743D01*
X111990705Y-125820299D01*
X111988676Y-125811718D01*
X111969737Y-125716503D01*
X111969735Y-125716498D01*
X111909397Y-125570827D01*
X111909390Y-125570814D01*
X111821789Y-125439711D01*
X111821786Y-125439707D01*
X111710292Y-125328213D01*
X111710288Y-125328210D01*
X111579185Y-125240609D01*
X111579172Y-125240602D01*
X111433501Y-125180264D01*
X111433489Y-125180261D01*
X111278845Y-125149500D01*
X111278842Y-125149500D01*
X111121158Y-125149500D01*
X111121155Y-125149500D01*
X110966510Y-125180261D01*
X110966498Y-125180264D01*
X110820827Y-125240602D01*
X110820814Y-125240609D01*
X110689711Y-125328210D01*
X110689707Y-125328213D01*
X110578213Y-125439707D01*
X110578210Y-125439711D01*
X110490609Y-125570814D01*
X110490602Y-125570827D01*
X110430261Y-125716505D01*
X110428834Y-125721211D01*
X110390529Y-125779644D01*
X110334370Y-125806817D01*
X110216508Y-125830261D01*
X110216498Y-125830264D01*
X110070827Y-125890602D01*
X110070814Y-125890609D01*
X109939711Y-125978210D01*
X109939707Y-125978213D01*
X109828213Y-126089707D01*
X109828210Y-126089711D01*
X109740609Y-126220814D01*
X109740602Y-126220827D01*
X109680264Y-126366498D01*
X109680261Y-126366510D01*
X109649500Y-126521153D01*
X107950499Y-126521153D01*
X107926783Y-126401925D01*
X107919737Y-126366503D01*
X107872522Y-126252515D01*
X107859397Y-126220827D01*
X107859390Y-126220814D01*
X107771789Y-126089711D01*
X107771786Y-126089707D01*
X107660292Y-125978213D01*
X107660288Y-125978210D01*
X107529185Y-125890609D01*
X107529172Y-125890602D01*
X107383501Y-125830264D01*
X107383489Y-125830261D01*
X107228845Y-125799500D01*
X107228842Y-125799500D01*
X107071158Y-125799500D01*
X107071155Y-125799500D01*
X106916510Y-125830261D01*
X106916498Y-125830264D01*
X106770827Y-125890602D01*
X106770814Y-125890609D01*
X106639711Y-125978210D01*
X106639707Y-125978213D01*
X106528213Y-126089707D01*
X106528210Y-126089711D01*
X106440609Y-126220814D01*
X106440606Y-126220821D01*
X106431265Y-126243372D01*
X106387423Y-126297775D01*
X106321129Y-126319839D01*
X106253430Y-126302559D01*
X106206751Y-126252422D01*
X106206578Y-126252515D01*
X106206227Y-126251860D01*
X106205820Y-126251422D01*
X106204801Y-126249192D01*
X106203704Y-126247139D01*
X106110626Y-126107837D01*
X106030114Y-126027325D01*
X105996629Y-125966002D01*
X106001613Y-125896310D01*
X106030114Y-125851963D01*
X106071789Y-125810289D01*
X106159394Y-125679179D01*
X106219737Y-125533497D01*
X106250500Y-125378842D01*
X106250500Y-125221158D01*
X106250500Y-125221155D01*
X106250499Y-125221153D01*
X106232522Y-125130778D01*
X106219737Y-125066503D01*
X106219735Y-125066498D01*
X106159397Y-124920827D01*
X106159390Y-124920814D01*
X106071789Y-124789711D01*
X106071786Y-124789707D01*
X105960292Y-124678213D01*
X105960288Y-124678210D01*
X105829185Y-124590609D01*
X105829172Y-124590602D01*
X105683501Y-124530264D01*
X105683489Y-124530261D01*
X105528845Y-124499500D01*
X105528842Y-124499500D01*
X105371158Y-124499500D01*
X105371155Y-124499500D01*
X105216510Y-124530261D01*
X105216498Y-124530264D01*
X105070827Y-124590602D01*
X105070814Y-124590609D01*
X104939711Y-124678210D01*
X104939707Y-124678213D01*
X104828213Y-124789707D01*
X104828210Y-124789711D01*
X104740609Y-124920814D01*
X104740602Y-124920827D01*
X104680264Y-125066498D01*
X104680261Y-125066510D01*
X104649500Y-125221153D01*
X104649500Y-125378846D01*
X104680261Y-125533489D01*
X104680264Y-125533501D01*
X104740602Y-125679172D01*
X104740609Y-125679185D01*
X104828210Y-125810288D01*
X104828213Y-125810292D01*
X104869885Y-125851964D01*
X104903370Y-125913287D01*
X104898386Y-125982979D01*
X104869885Y-126027326D01*
X104789376Y-126107834D01*
X104789373Y-126107837D01*
X104696295Y-126247139D01*
X104632184Y-126401917D01*
X104632182Y-126401925D01*
X104599500Y-126566228D01*
X101000500Y-126566228D01*
X101000500Y-124061304D01*
X107799500Y-124061304D01*
X107799500Y-124238695D01*
X107834103Y-124412658D01*
X107834106Y-124412667D01*
X107901983Y-124576540D01*
X107901990Y-124576553D01*
X108000535Y-124724034D01*
X108000538Y-124724038D01*
X108125961Y-124849461D01*
X108125965Y-124849464D01*
X108273446Y-124948009D01*
X108273459Y-124948016D01*
X108341305Y-124976118D01*
X108437334Y-125015894D01*
X108437336Y-125015894D01*
X108437341Y-125015896D01*
X108611304Y-125050499D01*
X108611307Y-125050500D01*
X108611309Y-125050500D01*
X108788693Y-125050500D01*
X108788694Y-125050499D01*
X108846682Y-125038964D01*
X108962658Y-125015896D01*
X108962661Y-125015894D01*
X108962666Y-125015894D01*
X109126547Y-124948013D01*
X109274035Y-124849464D01*
X109399464Y-124724035D01*
X109498013Y-124576547D01*
X109563756Y-124417825D01*
X109607595Y-124363425D01*
X109654122Y-124343663D01*
X109695461Y-124335441D01*
X109859342Y-124267560D01*
X110006830Y-124169011D01*
X110132259Y-124043582D01*
X110230808Y-123896094D01*
X110234437Y-123887334D01*
X110240753Y-123872082D01*
X110298689Y-123732213D01*
X110300431Y-123723459D01*
X110333294Y-123558242D01*
X110333295Y-123558240D01*
X110333295Y-123380853D01*
X110333294Y-123380851D01*
X110298691Y-123206888D01*
X110298688Y-123206879D01*
X110230811Y-123043006D01*
X110230807Y-123042999D01*
X110230803Y-123042993D01*
X110152835Y-122926306D01*
X110131958Y-122859631D01*
X110150442Y-122792251D01*
X110187047Y-122754315D01*
X110314035Y-122669464D01*
X110439464Y-122544035D01*
X110538013Y-122396547D01*
X110605894Y-122232666D01*
X110640500Y-122058691D01*
X110640500Y-121881309D01*
X110640500Y-121881306D01*
X110640499Y-121881304D01*
X110605896Y-121707341D01*
X110605893Y-121707332D01*
X110538016Y-121543459D01*
X110538009Y-121543446D01*
X110439464Y-121395965D01*
X110439461Y-121395961D01*
X110314038Y-121270538D01*
X110314034Y-121270535D01*
X110166553Y-121171990D01*
X110166540Y-121171983D01*
X110002667Y-121104106D01*
X110002658Y-121104103D01*
X109828694Y-121069500D01*
X109828691Y-121069500D01*
X109651309Y-121069500D01*
X109651306Y-121069500D01*
X109477341Y-121104103D01*
X109477332Y-121104106D01*
X109313459Y-121171983D01*
X109313446Y-121171990D01*
X109165965Y-121270535D01*
X109165961Y-121270538D01*
X109040538Y-121395961D01*
X109040535Y-121395965D01*
X108941990Y-121543446D01*
X108941983Y-121543459D01*
X108874106Y-121707332D01*
X108874103Y-121707341D01*
X108839500Y-121881304D01*
X108839500Y-122058695D01*
X108874103Y-122232658D01*
X108874106Y-122232667D01*
X108941983Y-122396540D01*
X108941990Y-122396552D01*
X109019958Y-122513238D01*
X109040836Y-122579915D01*
X109022352Y-122647295D01*
X108985748Y-122685231D01*
X108858756Y-122770085D01*
X108733333Y-122895508D01*
X108733330Y-122895512D01*
X108634785Y-123042993D01*
X108634778Y-123043006D01*
X108569039Y-123201718D01*
X108525198Y-123256122D01*
X108478670Y-123275883D01*
X108437340Y-123284104D01*
X108437332Y-123284106D01*
X108273459Y-123351983D01*
X108273446Y-123351990D01*
X108125965Y-123450535D01*
X108125961Y-123450538D01*
X108000538Y-123575961D01*
X108000535Y-123575965D01*
X107901990Y-123723446D01*
X107901983Y-123723459D01*
X107834106Y-123887332D01*
X107834103Y-123887341D01*
X107799500Y-124061304D01*
X101000500Y-124061304D01*
X101000500Y-121611304D01*
X103549500Y-121611304D01*
X103549500Y-121788695D01*
X103584103Y-121962658D01*
X103584106Y-121962667D01*
X103651983Y-122126540D01*
X103651990Y-122126553D01*
X103750535Y-122274034D01*
X103750538Y-122274038D01*
X103875961Y-122399461D01*
X103875965Y-122399464D01*
X104023446Y-122498009D01*
X104023459Y-122498016D01*
X104134559Y-122544034D01*
X104187334Y-122565894D01*
X104187336Y-122565894D01*
X104187341Y-122565896D01*
X104361304Y-122600499D01*
X104361307Y-122600500D01*
X104361309Y-122600500D01*
X104538693Y-122600500D01*
X104538694Y-122600499D01*
X104596682Y-122588964D01*
X104712658Y-122565896D01*
X104712661Y-122565894D01*
X104712666Y-122565894D01*
X104876547Y-122498013D01*
X105024035Y-122399464D01*
X105149464Y-122274035D01*
X105248013Y-122126547D01*
X105315894Y-121962666D01*
X105350500Y-121788691D01*
X105350500Y-121611309D01*
X105350500Y-121611306D01*
X105350499Y-121611304D01*
X105315896Y-121437341D01*
X105315893Y-121437332D01*
X105248016Y-121273459D01*
X105248009Y-121273446D01*
X105149464Y-121125965D01*
X105149461Y-121125961D01*
X105024038Y-121000538D01*
X105024034Y-121000535D01*
X104876553Y-120901990D01*
X104876541Y-120901983D01*
X104712666Y-120834106D01*
X104712658Y-120834103D01*
X104538694Y-120799500D01*
X104538691Y-120799500D01*
X104361309Y-120799500D01*
X104361306Y-120799500D01*
X104187341Y-120834103D01*
X104187332Y-120834106D01*
X104023459Y-120901983D01*
X104023446Y-120901990D01*
X103875965Y-121000535D01*
X103875961Y-121000538D01*
X103750538Y-121125961D01*
X103750535Y-121125965D01*
X103651990Y-121273446D01*
X103651983Y-121273459D01*
X103584106Y-121437332D01*
X103584103Y-121437341D01*
X103549500Y-121611304D01*
X101000500Y-121611304D01*
X101000500Y-120724002D01*
X115349500Y-120724002D01*
X115349500Y-120901393D01*
X115384103Y-121075356D01*
X115384106Y-121075365D01*
X115451983Y-121239238D01*
X115451990Y-121239251D01*
X115550535Y-121386732D01*
X115550538Y-121386736D01*
X115675961Y-121512159D01*
X115675965Y-121512162D01*
X115823446Y-121610707D01*
X115823459Y-121610714D01*
X115946363Y-121661621D01*
X115987334Y-121678592D01*
X115987336Y-121678592D01*
X115987341Y-121678594D01*
X116161304Y-121713197D01*
X116161307Y-121713198D01*
X116161309Y-121713198D01*
X116338693Y-121713198D01*
X116338694Y-121713197D01*
X116396682Y-121701662D01*
X116512658Y-121678594D01*
X116512661Y-121678592D01*
X116512666Y-121678592D01*
X116652535Y-121620656D01*
X116676540Y-121610714D01*
X116676540Y-121610713D01*
X116676547Y-121610711D01*
X116824035Y-121512162D01*
X116949464Y-121386733D01*
X117048013Y-121239245D01*
X117068248Y-121190393D01*
X117749500Y-121190393D01*
X117749500Y-121348086D01*
X117780261Y-121502729D01*
X117780264Y-121502741D01*
X117840602Y-121648412D01*
X117840609Y-121648425D01*
X117928210Y-121779528D01*
X117928213Y-121779532D01*
X118039707Y-121891026D01*
X118039711Y-121891029D01*
X118170814Y-121978630D01*
X118170827Y-121978637D01*
X118316498Y-122038975D01*
X118316503Y-122038977D01*
X118471153Y-122069739D01*
X118471156Y-122069740D01*
X118471158Y-122069740D01*
X118628844Y-122069740D01*
X118628845Y-122069739D01*
X118783497Y-122038977D01*
X118929179Y-121978634D01*
X119060289Y-121891029D01*
X119171789Y-121779529D01*
X119259394Y-121648419D01*
X119319737Y-121502737D01*
X119350500Y-121348082D01*
X119350500Y-121190398D01*
X119350500Y-121190395D01*
X119350499Y-121190393D01*
X119337683Y-121125965D01*
X119319737Y-121035743D01*
X119305154Y-121000536D01*
X119259397Y-120890067D01*
X119259390Y-120890054D01*
X119171789Y-120758951D01*
X119171786Y-120758947D01*
X119060292Y-120647453D01*
X119060288Y-120647450D01*
X118929185Y-120559849D01*
X118929172Y-120559842D01*
X118783501Y-120499504D01*
X118783489Y-120499501D01*
X118628845Y-120468740D01*
X118628842Y-120468740D01*
X118471158Y-120468740D01*
X118471155Y-120468740D01*
X118316510Y-120499501D01*
X118316498Y-120499504D01*
X118170827Y-120559842D01*
X118170814Y-120559849D01*
X118039711Y-120647450D01*
X118039707Y-120647453D01*
X117928213Y-120758947D01*
X117928210Y-120758951D01*
X117840609Y-120890054D01*
X117840602Y-120890067D01*
X117780264Y-121035738D01*
X117780261Y-121035750D01*
X117749500Y-121190393D01*
X117068248Y-121190393D01*
X117115894Y-121075364D01*
X117117061Y-121069500D01*
X117150499Y-120901393D01*
X117150500Y-120901391D01*
X117150500Y-120724004D01*
X117150499Y-120724002D01*
X117115896Y-120550039D01*
X117115893Y-120550030D01*
X117048016Y-120386157D01*
X117048009Y-120386144D01*
X116949464Y-120238663D01*
X116949461Y-120238659D01*
X116824038Y-120113236D01*
X116824034Y-120113233D01*
X116676553Y-120014688D01*
X116676540Y-120014681D01*
X116512667Y-119946804D01*
X116512658Y-119946801D01*
X116338694Y-119912198D01*
X116338691Y-119912198D01*
X116161309Y-119912198D01*
X116161306Y-119912198D01*
X115987341Y-119946801D01*
X115987332Y-119946804D01*
X115823459Y-120014681D01*
X115823446Y-120014688D01*
X115675965Y-120113233D01*
X115675961Y-120113236D01*
X115550538Y-120238659D01*
X115550535Y-120238663D01*
X115451990Y-120386144D01*
X115451983Y-120386157D01*
X115384106Y-120550030D01*
X115384103Y-120550039D01*
X115349500Y-120724002D01*
X101000500Y-120724002D01*
X101000500Y-118821153D01*
X103499500Y-118821153D01*
X103499500Y-118978846D01*
X103530261Y-119133489D01*
X103530264Y-119133501D01*
X103590602Y-119279172D01*
X103590609Y-119279185D01*
X103678210Y-119410288D01*
X103678213Y-119410292D01*
X103789707Y-119521786D01*
X103789711Y-119521789D01*
X103920814Y-119609390D01*
X103920827Y-119609397D01*
X104066498Y-119669735D01*
X104066503Y-119669737D01*
X104221153Y-119700499D01*
X104221156Y-119700500D01*
X104221158Y-119700500D01*
X104378844Y-119700500D01*
X104378845Y-119700499D01*
X104533497Y-119669737D01*
X104679179Y-119609394D01*
X104810289Y-119521789D01*
X104921789Y-119410289D01*
X104981348Y-119321153D01*
X106999500Y-119321153D01*
X106999500Y-119478846D01*
X107030261Y-119633489D01*
X107030264Y-119633501D01*
X107090602Y-119779172D01*
X107090609Y-119779185D01*
X107178210Y-119910288D01*
X107178213Y-119910292D01*
X107289707Y-120021786D01*
X107289711Y-120021789D01*
X107420814Y-120109390D01*
X107420827Y-120109397D01*
X107566498Y-120169735D01*
X107566503Y-120169737D01*
X107721153Y-120200499D01*
X107721156Y-120200500D01*
X107721158Y-120200500D01*
X107878844Y-120200500D01*
X107878845Y-120200499D01*
X108033497Y-120169737D01*
X108169904Y-120113236D01*
X108179172Y-120109397D01*
X108179172Y-120109396D01*
X108179179Y-120109394D01*
X108310289Y-120021789D01*
X108421789Y-119910289D01*
X108509394Y-119779179D01*
X108569737Y-119633497D01*
X108600500Y-119478842D01*
X108600500Y-119321158D01*
X108600500Y-119321155D01*
X108600499Y-119321153D01*
X108589849Y-119267611D01*
X108569737Y-119166503D01*
X108528589Y-119067162D01*
X108509397Y-119020827D01*
X108509390Y-119020814D01*
X108421789Y-118889711D01*
X108421786Y-118889707D01*
X108310292Y-118778213D01*
X108310288Y-118778210D01*
X108179185Y-118690609D01*
X108179172Y-118690602D01*
X108033501Y-118630264D01*
X108033489Y-118630261D01*
X107878845Y-118599500D01*
X107878842Y-118599500D01*
X107721158Y-118599500D01*
X107721155Y-118599500D01*
X107566510Y-118630261D01*
X107566498Y-118630264D01*
X107420827Y-118690602D01*
X107420814Y-118690609D01*
X107289711Y-118778210D01*
X107289707Y-118778213D01*
X107178213Y-118889707D01*
X107178210Y-118889711D01*
X107090609Y-119020814D01*
X107090602Y-119020827D01*
X107030264Y-119166498D01*
X107030261Y-119166510D01*
X106999500Y-119321153D01*
X104981348Y-119321153D01*
X105009394Y-119279179D01*
X105069737Y-119133497D01*
X105100500Y-118978842D01*
X105100500Y-118821158D01*
X105100500Y-118821155D01*
X105100499Y-118821153D01*
X105074531Y-118690606D01*
X105069737Y-118666503D01*
X105069735Y-118666498D01*
X105009397Y-118520827D01*
X105009388Y-118520811D01*
X104998176Y-118504030D01*
X104956212Y-118441228D01*
X121449500Y-118441228D01*
X121449500Y-118608771D01*
X121482182Y-118773074D01*
X121482184Y-118773082D01*
X121546295Y-118927860D01*
X121639373Y-119067162D01*
X121757837Y-119185626D01*
X121788771Y-119206295D01*
X121897137Y-119278703D01*
X121897138Y-119278703D01*
X121897139Y-119278704D01*
X121932201Y-119293227D01*
X122051918Y-119342816D01*
X122216228Y-119375499D01*
X122216232Y-119375500D01*
X122236503Y-119375500D01*
X122303542Y-119395185D01*
X122349297Y-119447989D01*
X122359241Y-119517147D01*
X122348050Y-119551269D01*
X122348628Y-119551509D01*
X122282184Y-119711917D01*
X122282182Y-119711925D01*
X122249500Y-119876228D01*
X122249500Y-120043771D01*
X122282182Y-120208074D01*
X122282184Y-120208082D01*
X122346295Y-120362860D01*
X122439373Y-120502162D01*
X122557837Y-120620626D01*
X122597984Y-120647451D01*
X122697137Y-120713703D01*
X122697138Y-120713703D01*
X122697139Y-120713704D01*
X122722013Y-120724007D01*
X122851918Y-120777816D01*
X122960932Y-120799500D01*
X123016228Y-120810499D01*
X123016232Y-120810500D01*
X123016233Y-120810500D01*
X123183768Y-120810500D01*
X123183769Y-120810499D01*
X123348082Y-120777816D01*
X123502863Y-120713703D01*
X123642162Y-120620626D01*
X123760626Y-120502162D01*
X123853703Y-120362863D01*
X123917816Y-120208082D01*
X123950500Y-120043767D01*
X123950500Y-119876233D01*
X123917816Y-119711918D01*
X123853703Y-119557137D01*
X123822537Y-119510494D01*
X123760626Y-119417837D01*
X123642162Y-119299373D01*
X123502860Y-119206295D01*
X123348082Y-119142184D01*
X123348074Y-119142182D01*
X123183771Y-119109500D01*
X123183767Y-119109500D01*
X123163497Y-119109500D01*
X123096458Y-119089815D01*
X123050703Y-119037011D01*
X123040759Y-118967853D01*
X123051949Y-118933730D01*
X123051372Y-118933491D01*
X123069508Y-118889707D01*
X123117816Y-118773082D01*
X123150500Y-118608767D01*
X123150500Y-118441233D01*
X123137372Y-118375232D01*
X123143599Y-118305641D01*
X123186462Y-118250463D01*
X123234796Y-118229424D01*
X123283497Y-118219737D01*
X123429179Y-118159394D01*
X123560289Y-118071789D01*
X123671789Y-117960289D01*
X123759394Y-117829179D01*
X123819737Y-117683497D01*
X123850500Y-117528842D01*
X123850500Y-117371158D01*
X123844532Y-117341153D01*
X126999500Y-117341153D01*
X126999500Y-117498846D01*
X127030261Y-117653489D01*
X127030264Y-117653501D01*
X127090602Y-117799172D01*
X127090609Y-117799185D01*
X127178210Y-117930288D01*
X127178213Y-117930292D01*
X127289707Y-118041786D01*
X127289711Y-118041789D01*
X127420814Y-118129390D01*
X127420827Y-118129397D01*
X127566498Y-118189735D01*
X127566503Y-118189737D01*
X127717312Y-118219735D01*
X127721153Y-118220499D01*
X127721156Y-118220500D01*
X127721158Y-118220500D01*
X127878844Y-118220500D01*
X127878845Y-118220499D01*
X128033497Y-118189737D01*
X128179179Y-118129394D01*
X128310289Y-118041789D01*
X128421789Y-117930289D01*
X128509394Y-117799179D01*
X128569737Y-117653497D01*
X128600500Y-117498842D01*
X128600500Y-117341158D01*
X128600500Y-117341155D01*
X128600499Y-117341153D01*
X128578131Y-117228703D01*
X128569737Y-117186503D01*
X128521823Y-117070827D01*
X128509397Y-117040827D01*
X128509390Y-117040814D01*
X128421789Y-116909711D01*
X128421786Y-116909707D01*
X128310292Y-116798213D01*
X128310288Y-116798210D01*
X128179185Y-116710609D01*
X128179172Y-116710602D01*
X128033501Y-116650264D01*
X128033489Y-116650261D01*
X127878845Y-116619500D01*
X127878842Y-116619500D01*
X127721158Y-116619500D01*
X127721155Y-116619500D01*
X127566510Y-116650261D01*
X127566498Y-116650264D01*
X127420827Y-116710602D01*
X127420814Y-116710609D01*
X127289711Y-116798210D01*
X127289707Y-116798213D01*
X127178213Y-116909707D01*
X127178210Y-116909711D01*
X127090609Y-117040814D01*
X127090602Y-117040827D01*
X127030264Y-117186498D01*
X127030261Y-117186510D01*
X126999500Y-117341153D01*
X123844532Y-117341153D01*
X123819737Y-117216503D01*
X123786237Y-117135626D01*
X123759397Y-117070827D01*
X123759390Y-117070814D01*
X123671789Y-116939711D01*
X123671786Y-116939707D01*
X123560292Y-116828213D01*
X123560288Y-116828210D01*
X123429185Y-116740609D01*
X123429172Y-116740602D01*
X123283501Y-116680264D01*
X123283489Y-116680261D01*
X123128845Y-116649500D01*
X123128842Y-116649500D01*
X122971158Y-116649500D01*
X122971155Y-116649500D01*
X122816510Y-116680261D01*
X122816498Y-116680264D01*
X122670827Y-116740602D01*
X122670814Y-116740609D01*
X122539711Y-116828210D01*
X122539707Y-116828213D01*
X122428213Y-116939707D01*
X122428210Y-116939711D01*
X122340609Y-117070814D01*
X122340602Y-117070827D01*
X122280264Y-117216498D01*
X122280261Y-117216510D01*
X122249500Y-117371153D01*
X122249500Y-117528843D01*
X122251913Y-117540976D01*
X122245684Y-117610567D01*
X122202819Y-117665744D01*
X122154487Y-117686781D01*
X122051923Y-117707182D01*
X122051917Y-117707184D01*
X121897139Y-117771295D01*
X121757837Y-117864373D01*
X121639373Y-117982837D01*
X121546295Y-118122139D01*
X121482184Y-118276917D01*
X121482182Y-118276925D01*
X121449500Y-118441228D01*
X104956212Y-118441228D01*
X104921789Y-118389711D01*
X104921786Y-118389707D01*
X104810292Y-118278213D01*
X104810288Y-118278210D01*
X104679185Y-118190609D01*
X104679172Y-118190602D01*
X104533501Y-118130264D01*
X104533489Y-118130261D01*
X104378845Y-118099500D01*
X104378842Y-118099500D01*
X104221158Y-118099500D01*
X104221155Y-118099500D01*
X104066510Y-118130261D01*
X104066498Y-118130264D01*
X103920827Y-118190602D01*
X103920814Y-118190609D01*
X103789711Y-118278210D01*
X103789707Y-118278213D01*
X103678213Y-118389707D01*
X103678210Y-118389711D01*
X103590609Y-118520814D01*
X103590602Y-118520827D01*
X103530264Y-118666498D01*
X103530261Y-118666510D01*
X103499500Y-118821153D01*
X101000500Y-118821153D01*
X101000500Y-117371153D01*
X117349500Y-117371153D01*
X117349500Y-117528846D01*
X117380261Y-117683489D01*
X117380264Y-117683501D01*
X117440602Y-117829172D01*
X117440609Y-117829185D01*
X117528210Y-117960288D01*
X117528213Y-117960292D01*
X117639707Y-118071786D01*
X117639711Y-118071789D01*
X117770814Y-118159390D01*
X117770827Y-118159397D01*
X117846181Y-118190609D01*
X117916503Y-118219737D01*
X118070972Y-118250463D01*
X118071153Y-118250499D01*
X118071156Y-118250500D01*
X118071158Y-118250500D01*
X118228844Y-118250500D01*
X118228845Y-118250499D01*
X118383497Y-118219737D01*
X118529179Y-118159394D01*
X118660289Y-118071789D01*
X118771789Y-117960289D01*
X118859394Y-117829179D01*
X118919737Y-117683497D01*
X118950500Y-117528842D01*
X118950500Y-117371158D01*
X118950500Y-117371155D01*
X118950499Y-117371153D01*
X118934917Y-117292816D01*
X118919737Y-117216503D01*
X118886237Y-117135626D01*
X118859397Y-117070827D01*
X118859390Y-117070814D01*
X118771789Y-116939711D01*
X118771786Y-116939707D01*
X118660292Y-116828213D01*
X118660288Y-116828210D01*
X118529185Y-116740609D01*
X118529172Y-116740602D01*
X118383501Y-116680264D01*
X118383489Y-116680261D01*
X118228845Y-116649500D01*
X118228842Y-116649500D01*
X118071158Y-116649500D01*
X118071155Y-116649500D01*
X117916510Y-116680261D01*
X117916498Y-116680264D01*
X117770827Y-116740602D01*
X117770814Y-116740609D01*
X117639711Y-116828210D01*
X117639707Y-116828213D01*
X117528213Y-116939707D01*
X117528210Y-116939711D01*
X117440609Y-117070814D01*
X117440602Y-117070827D01*
X117380264Y-117216498D01*
X117380261Y-117216510D01*
X117349500Y-117371153D01*
X101000500Y-117371153D01*
X101000500Y-116391228D01*
X114649500Y-116391228D01*
X114649500Y-116558771D01*
X114682182Y-116723074D01*
X114682184Y-116723082D01*
X114746295Y-116877860D01*
X114839373Y-117017162D01*
X114957837Y-117135626D01*
X115033973Y-117186498D01*
X115097137Y-117228703D01*
X115251918Y-117292816D01*
X115416228Y-117325499D01*
X115416232Y-117325500D01*
X115416233Y-117325500D01*
X115583768Y-117325500D01*
X115583769Y-117325499D01*
X115748082Y-117292816D01*
X115902863Y-117228703D01*
X116042162Y-117135626D01*
X116160626Y-117017162D01*
X116253703Y-116877863D01*
X116317816Y-116723082D01*
X116350500Y-116558767D01*
X116350500Y-116391233D01*
X116317816Y-116226918D01*
X116253703Y-116072137D01*
X116222537Y-116025494D01*
X116160626Y-115932837D01*
X116042162Y-115814373D01*
X115902860Y-115721295D01*
X115748082Y-115657184D01*
X115748074Y-115657182D01*
X115583771Y-115624500D01*
X115583767Y-115624500D01*
X115416233Y-115624500D01*
X115416228Y-115624500D01*
X115251925Y-115657182D01*
X115251917Y-115657184D01*
X115097139Y-115721295D01*
X114957837Y-115814373D01*
X114839373Y-115932837D01*
X114746295Y-116072139D01*
X114682184Y-116226917D01*
X114682182Y-116226925D01*
X114649500Y-116391228D01*
X101000500Y-116391228D01*
X101000500Y-113893399D01*
X113645500Y-113893399D01*
X113645500Y-114106601D01*
X113662176Y-114211890D01*
X113678853Y-114317180D01*
X113678853Y-114317183D01*
X113744734Y-114519944D01*
X113744736Y-114519947D01*
X113841528Y-114709913D01*
X113966846Y-114882397D01*
X114117603Y-115033154D01*
X114290087Y-115158472D01*
X114480053Y-115255264D01*
X114480055Y-115255265D01*
X114669182Y-115316715D01*
X114682821Y-115321147D01*
X114893399Y-115354500D01*
X114893400Y-115354500D01*
X115106600Y-115354500D01*
X115106601Y-115354500D01*
X115317179Y-115321147D01*
X115317182Y-115321146D01*
X115317183Y-115321146D01*
X115519944Y-115255265D01*
X115519944Y-115255264D01*
X115519947Y-115255264D01*
X115709913Y-115158472D01*
X115882397Y-115033154D01*
X116033154Y-114882397D01*
X116113978Y-114771153D01*
X126299500Y-114771153D01*
X126299500Y-114928846D01*
X126330261Y-115083489D01*
X126330264Y-115083501D01*
X126390602Y-115229172D01*
X126390609Y-115229185D01*
X126478210Y-115360288D01*
X126478213Y-115360292D01*
X126589707Y-115471786D01*
X126589711Y-115471789D01*
X126720814Y-115559390D01*
X126720827Y-115559397D01*
X126866498Y-115619735D01*
X126866503Y-115619737D01*
X127021153Y-115650499D01*
X127021156Y-115650500D01*
X127021158Y-115650500D01*
X127178844Y-115650500D01*
X127178845Y-115650499D01*
X127333497Y-115619737D01*
X127479179Y-115559394D01*
X127610289Y-115471789D01*
X127721789Y-115360289D01*
X127809394Y-115229179D01*
X127869737Y-115083497D01*
X127900500Y-114928842D01*
X127900500Y-114771158D01*
X127900500Y-114771155D01*
X127900499Y-114771153D01*
X127869737Y-114616503D01*
X127829743Y-114519947D01*
X127809397Y-114470827D01*
X127809390Y-114470814D01*
X127721789Y-114339711D01*
X127721786Y-114339707D01*
X127610292Y-114228213D01*
X127610288Y-114228210D01*
X127479185Y-114140609D01*
X127479172Y-114140602D01*
X127333501Y-114080264D01*
X127333489Y-114080261D01*
X127178845Y-114049500D01*
X127178842Y-114049500D01*
X127021158Y-114049500D01*
X127021155Y-114049500D01*
X126866510Y-114080261D01*
X126866498Y-114080264D01*
X126720827Y-114140602D01*
X126720814Y-114140609D01*
X126589711Y-114228210D01*
X126589707Y-114228213D01*
X126478213Y-114339707D01*
X126478210Y-114339711D01*
X126390609Y-114470814D01*
X126390602Y-114470827D01*
X126330264Y-114616498D01*
X126330261Y-114616510D01*
X126299500Y-114771153D01*
X116113978Y-114771153D01*
X116158472Y-114709913D01*
X116255264Y-114519947D01*
X116313826Y-114339711D01*
X116321146Y-114317183D01*
X116321146Y-114317182D01*
X116321147Y-114317179D01*
X116354500Y-114106601D01*
X116354500Y-113893399D01*
X116321147Y-113682821D01*
X116321146Y-113682817D01*
X116321146Y-113682816D01*
X116255265Y-113480055D01*
X116255263Y-113480052D01*
X116158471Y-113290086D01*
X116033154Y-113117603D01*
X115882397Y-112966846D01*
X115709913Y-112841528D01*
X115519947Y-112744736D01*
X115519944Y-112744734D01*
X115317181Y-112678853D01*
X115176793Y-112656617D01*
X115106601Y-112645500D01*
X114893399Y-112645500D01*
X114823206Y-112656617D01*
X114682819Y-112678853D01*
X114682816Y-112678853D01*
X114480055Y-112744734D01*
X114480052Y-112744736D01*
X114290086Y-112841528D01*
X114117601Y-112966847D01*
X113966847Y-113117601D01*
X113841528Y-113290086D01*
X113744736Y-113480052D01*
X113744734Y-113480055D01*
X113678853Y-113682816D01*
X113678853Y-113682819D01*
X113678853Y-113682821D01*
X113645500Y-113893399D01*
X101000500Y-113893399D01*
X101000500Y-110874500D01*
X101020185Y-110807461D01*
X101072989Y-110761706D01*
X101124500Y-110750500D01*
X128875500Y-110750500D01*
X128942539Y-110770185D01*
G37*
%TD.AperFunction*%
%TD*%
M02*
