M48
; DRILL file {KiCad 9.0.8} date 2026-04-07T13:44:09-0400
; FORMAT={-:-/ absolute / inch / decimal}
; #@! TF.CreationDate,2026-04-07T13:44:09-04:00
; #@! TF.GenerationSoftware,Kicad,Pcbnew,9.0.8
; #@! TF.FileFunction,Plated,1,4,PTH
FMAT,2
INCH
; #@! TA.AperFunction,Plated,PTH,ViaDrill
T1C0.0118
; #@! TA.AperFunction,Plated,PTH,ViaDrill
T2C0.0157
; #@! TA.AperFunction,Plated,PTH,ComponentDrill
T3C0.0315
; #@! TA.AperFunction,Plated,PTH,ComponentDrill
T4C0.0400
%
G90
G05
T1
X3.9921Y-5.252
X4.0089Y-6.3081
X4.0157Y-6.0098
X4.0157Y-6.2165
X4.0167Y-6.8593
X4.0187Y-7.0138
X4.0197Y-5.6339
X4.0296Y-5.5252
X4.0335Y-8.2815
X4.035Y-4.435
X4.035Y-7.235
X4.035Y-7.535
X4.035Y-7.835
X4.035Y-8.135
X4.035Y-8.435
X4.0488Y-5.2386
X4.061Y-5.8248
X4.0925Y-6.7441
X4.1063Y-4.6811
X4.125Y-5.2224
X4.135Y-7.035
X4.1516Y-4.9331
X4.1516Y-4.9862
X4.1654Y-5.6024
X4.1722Y-4.4852
X4.1811Y-5.1791
X4.2028Y-5.622
X4.2185Y-4.9843
X4.2224Y-6.5335
X4.2264Y-6.4154
X4.2343Y-5.7953
X4.235Y-8.235
X4.235Y-8.535
X4.2362Y-5.6555
X4.2421Y-5.3524
X4.2441Y-4.7008
X4.2687Y-5.7421
X4.2843Y-6.6937
X4.2894Y-6.5413
X4.2912Y-6.4045
X4.2913Y-6.6437
X4.2972Y-6.2175
X4.3012Y-5.6575
X4.3012Y-5.9055
X4.3317Y-5.1732
X4.3327Y-5.8602
X4.335Y-4.435
X4.3484Y-4.9843
X4.378Y-4.9587
X4.3839Y-5.2559
X4.4075Y-6.5433
X4.4083Y-6.5937
X4.4094Y-5.064
X4.4114Y-5.8947
X4.4321Y-5.1722
X4.435Y-7.635
X4.435Y-8.135
X4.4508Y-5.2264
X4.4634Y-6.861
X4.4744Y-6.1949
X4.4803Y-5.1516
X4.499Y-5.8406
X4.502Y-5.7697
X4.5039Y-5.4756
X4.5059Y-6.9931
X4.5217Y-6.3248
X4.5328Y-6.7157
X4.5331Y-5.4413
X4.5346Y-5.6055
X4.535Y-7.435
X4.535Y-7.835
X4.535Y-8.535
X4.5362Y-5.765
X4.5394Y-6.1161
X4.5463Y-7.9902
X4.5472Y-4.5856
X4.5472Y-6.4528
X4.5492Y-6.1969
X4.5512Y-7.0925
X4.5886Y-5.5413
X4.5965Y-5.6398
X4.5965Y-6.0433
X4.6073Y-5.9715
X4.6102Y-6.2638
X4.6122Y-6.5925
X4.6289Y-7.7618
X4.635Y-8.235
X4.6417Y-4.9295
X4.6417Y-5.0689
X4.6417Y-7.622
X4.6516Y-4.624
X4.6673Y-4.7744
X4.6781Y-5.7215
X4.6949Y-5.5236
X4.7136Y-5.8996
X4.7136Y-6.1142
X4.7146Y-5.5965
X4.7268Y-5.3217
X4.735Y-7.335
X4.7408Y-6.8608
X4.7461Y-5.9606
X4.752Y-6.3583
X4.7608Y-4.3996
X4.7697Y-5.8593
X4.7756Y-7.0787
X4.7815Y-5.5512
X4.7815Y-7.1909
X4.7933Y-6.2717
X4.8022Y-7.437
X4.8041Y-5.7746
X4.815Y-4.6663
X4.835Y-6.935
X4.835Y-8.135
X4.835Y-8.435
X4.8445Y-4.624
X4.8465Y-4.7228
X4.8957Y-7.1319
X4.9094Y-6.0807
X4.9095Y-6.0177
X4.9104Y-5.9193
X4.9134Y-5.7224
X4.9154Y-5.685
X4.9173Y-6.7421
X4.9193Y-6.2156
X4.9213Y-6.7933
X4.9252Y-6.3843
X4.9291Y-5.9921
X4.935Y-4.435
X4.939Y-7.1063
X4.9492Y-6.8287
X4.9537Y-7.2697
X4.9774Y-7.3829
X4.9823Y-5.9921
X4.9843Y-6.2795
X4.9902Y-6.1476
X4.9961Y-5.2628
X5.002Y-6.4961
X5.0039Y-4.5217
X5.0059Y-5.1732
X5.0315Y-4.6228
X5.0335Y-4.8366
X5.0344Y-8.375
X5.035Y-7.635
X5.035Y-8.235
X5.035Y-8.535
X5.0354Y-4.7156
X5.0413Y-5.2146
X5.0433Y-5.9852
X5.0472Y-4.3927
T2
X4.0211Y-6.7258
X4.063Y-6.6496
X4.063Y-6.7913
X4.0719Y-4.7156
X4.1122Y-4.7913
X4.1339Y-5.685
X4.1457Y-6.2303
X4.1535Y-5.8287
X4.1555Y-5.4508
X4.187Y-6.1594
X4.248Y-4.802
X4.2638Y-7.435
X4.2756Y-6.7441
X4.2795Y-4.8878
X4.2815Y-5.0059
X4.2854Y-6.063
X4.3012Y-5.2559
X4.3071Y-7.7205
X4.3084Y-4.861
X4.3128Y-7.8522
X4.313Y-7.5827
X4.3205Y-4.802
X4.3661Y-5.4134
X4.3681Y-5.4882
X4.4044Y-7.1111
X4.4075Y-6.1929
X4.4104Y-5.4173
X4.4232Y-6.7264
X4.4371Y-6.6218
X4.4488Y-4.9724
X4.4764Y-4.5797
X4.4783Y-6.1122
X4.502Y-4.7843
X4.5051Y-6.0027
X4.5354Y-5.9262
X4.565Y-7.1827
X4.5768Y-4.7564
X4.5807Y-6.7047
X4.6004Y-5.7795
X4.6024Y-4.9724
X4.6024Y-5.7205
X4.6339Y-5.122
X4.6535Y-6.3661
X4.6535Y-6.4705
X4.6575Y-5.3031
X4.7343Y-5.2028
X4.7495Y-7.8386
X4.752Y-7.5787
X4.752Y-7.7106
X4.7933Y-6.6437
X4.8228Y-5.2579
X4.8307Y-5.124
X4.9242Y-7.5098
X4.9272Y-5.4685
X4.9705Y-6.6535
X4.9764Y-5.5138
X4.9783Y-5.4409
X4.9788Y-5.688
X5.0039Y-7.0984
X5.0059Y-7.2205
T3
X4.1421Y-7.3197
X4.2421Y-7.2197
X4.3421Y-7.3197
X4.7268Y-5.3752
X4.8268Y-5.4752
X4.9268Y-5.3752
T4
X4.3276Y-8.3428
X4.3276Y-8.4428
X4.4276Y-8.3528
X4.4276Y-8.4528
X4.5276Y-8.3428
X4.5276Y-8.4428
X4.6276Y-8.3528
X4.6276Y-8.4528
X4.7276Y-8.3428
X4.7276Y-8.4428
M30
