%TF.GenerationSoftware,KiCad,Pcbnew,7.0.8*%
%TF.CreationDate,2024-02-25T17:47:53-05:00*%
%TF.ProjectId,lichen-bifocals-submodule-power-board,6c696368-656e-42d6-9269-666f63616c73,rev?*%
%TF.SameCoordinates,Original*%
%TF.FileFunction,Legend,Top*%
%TF.FilePolarity,Positive*%
%FSLAX46Y46*%
G04 Gerber Fmt 4.6, Leading zero omitted, Abs format (unit mm)*
G04 Created by KiCad (PCBNEW 7.0.8) date 2024-02-25 17:47:53*
%MOMM*%
%LPD*%
G01*
G04 APERTURE LIST*
%ADD10C,0.300000*%
%ADD11C,0.150000*%
%ADD12C,0.203200*%
%ADD13C,0.120000*%
%ADD14C,2.032000*%
%ADD15O,1.700000X1.700000*%
G04 APERTURE END LIST*
D10*
G36*
X117735053Y-120865000D02*
G01*
X117735053Y-119270582D01*
X118136222Y-119270582D01*
X118907418Y-120245478D01*
X118907418Y-119270582D01*
X119308587Y-119270582D01*
X119308587Y-120865000D01*
X118907418Y-120865000D01*
X118136222Y-119890104D01*
X118136222Y-120865000D01*
X117735053Y-120865000D01*
G37*
G36*
X120498238Y-119223941D02*
G01*
X120521883Y-119224701D01*
X120545293Y-119225967D01*
X120568468Y-119227740D01*
X120591409Y-119230020D01*
X120614115Y-119232807D01*
X120636586Y-119236100D01*
X120658823Y-119239899D01*
X120680825Y-119244205D01*
X120702592Y-119249018D01*
X120724124Y-119254338D01*
X120745422Y-119260164D01*
X120766485Y-119266496D01*
X120787314Y-119273336D01*
X120807907Y-119280682D01*
X120828266Y-119288534D01*
X120848376Y-119296790D01*
X120868131Y-119305438D01*
X120887531Y-119314479D01*
X120906577Y-119323911D01*
X120925267Y-119333736D01*
X120943602Y-119343952D01*
X120961583Y-119354561D01*
X120979208Y-119365562D01*
X120996479Y-119376955D01*
X121013395Y-119388740D01*
X121029955Y-119400918D01*
X121046161Y-119413487D01*
X121062012Y-119426449D01*
X121077508Y-119439802D01*
X121092650Y-119453548D01*
X121107436Y-119467686D01*
X121121843Y-119482129D01*
X121135846Y-119496881D01*
X121149446Y-119511942D01*
X121162642Y-119527312D01*
X121175435Y-119542991D01*
X121187824Y-119558980D01*
X121199810Y-119575277D01*
X121211392Y-119591884D01*
X121222570Y-119608799D01*
X121233345Y-119626024D01*
X121243716Y-119643558D01*
X121253684Y-119661401D01*
X121263248Y-119679553D01*
X121272408Y-119698015D01*
X121281165Y-119716785D01*
X121289519Y-119735865D01*
X121297416Y-119755193D01*
X121304803Y-119774711D01*
X121311681Y-119794417D01*
X121318049Y-119814313D01*
X121323908Y-119834397D01*
X121329258Y-119854670D01*
X121334098Y-119875132D01*
X121338428Y-119895783D01*
X121342250Y-119916623D01*
X121345561Y-119937651D01*
X121348363Y-119958869D01*
X121350656Y-119980276D01*
X121352439Y-120001871D01*
X121353713Y-120023655D01*
X121354477Y-120045629D01*
X121354732Y-120067791D01*
X121354477Y-120089997D01*
X121353713Y-120112012D01*
X121352439Y-120133835D01*
X121350656Y-120155466D01*
X121348363Y-120176906D01*
X121345561Y-120198154D01*
X121342250Y-120219209D01*
X121338428Y-120240074D01*
X121334098Y-120260746D01*
X121329258Y-120281227D01*
X121323908Y-120301516D01*
X121318049Y-120321613D01*
X121311681Y-120341518D01*
X121304803Y-120361231D01*
X121297416Y-120380753D01*
X121289519Y-120400083D01*
X121281165Y-120419120D01*
X121272408Y-120437853D01*
X121263248Y-120456283D01*
X121253684Y-120474409D01*
X121243716Y-120492232D01*
X121233345Y-120509752D01*
X121222570Y-120526968D01*
X121211392Y-120543881D01*
X121199810Y-120560491D01*
X121187824Y-120576797D01*
X121175435Y-120592799D01*
X121162642Y-120608499D01*
X121149446Y-120623895D01*
X121135846Y-120638987D01*
X121121843Y-120653776D01*
X121107436Y-120668262D01*
X121092650Y-120682357D01*
X121077508Y-120696066D01*
X121062012Y-120709388D01*
X121046161Y-120722324D01*
X121029955Y-120734873D01*
X121013395Y-120747036D01*
X120996479Y-120758813D01*
X120979208Y-120770203D01*
X120961583Y-120781207D01*
X120943602Y-120791824D01*
X120925267Y-120802055D01*
X120906577Y-120811900D01*
X120887531Y-120821358D01*
X120868131Y-120830430D01*
X120848376Y-120839115D01*
X120828266Y-120847414D01*
X120807907Y-120855222D01*
X120787314Y-120862527D01*
X120766485Y-120869327D01*
X120745422Y-120875624D01*
X120724124Y-120881417D01*
X120702592Y-120886707D01*
X120680825Y-120891492D01*
X120658823Y-120895774D01*
X120636586Y-120899552D01*
X120614115Y-120902827D01*
X120591409Y-120905597D01*
X120568468Y-120907864D01*
X120545293Y-120909627D01*
X120521883Y-120910887D01*
X120498238Y-120911642D01*
X120474358Y-120911894D01*
X120450260Y-120911642D01*
X120426416Y-120910887D01*
X120402827Y-120909627D01*
X120379493Y-120907864D01*
X120356413Y-120905597D01*
X120333589Y-120902827D01*
X120311019Y-120899552D01*
X120288703Y-120895774D01*
X120266643Y-120891492D01*
X120244837Y-120886707D01*
X120223286Y-120881417D01*
X120201989Y-120875624D01*
X120180948Y-120869327D01*
X120160161Y-120862527D01*
X120139629Y-120855222D01*
X120119351Y-120847414D01*
X120099422Y-120839115D01*
X120079841Y-120830430D01*
X120060610Y-120821358D01*
X120041728Y-120811900D01*
X120023195Y-120802055D01*
X120005011Y-120791824D01*
X119987177Y-120781207D01*
X119969692Y-120770203D01*
X119952555Y-120758813D01*
X119935769Y-120747036D01*
X119919331Y-120734873D01*
X119903242Y-120722324D01*
X119887503Y-120709388D01*
X119872113Y-120696066D01*
X119857072Y-120682357D01*
X119842380Y-120668262D01*
X119828106Y-120653776D01*
X119814227Y-120638987D01*
X119800743Y-120623895D01*
X119787654Y-120608499D01*
X119774960Y-120592799D01*
X119762661Y-120576797D01*
X119750757Y-120560491D01*
X119739248Y-120543881D01*
X119728134Y-120526968D01*
X119717415Y-120509752D01*
X119707091Y-120492232D01*
X119697162Y-120474409D01*
X119687628Y-120456283D01*
X119678489Y-120437853D01*
X119669745Y-120419120D01*
X119661396Y-120400083D01*
X119653499Y-120380753D01*
X119646112Y-120361231D01*
X119639234Y-120341518D01*
X119632865Y-120321613D01*
X119627006Y-120301516D01*
X119621657Y-120281227D01*
X119616817Y-120260746D01*
X119612486Y-120240074D01*
X119608665Y-120219209D01*
X119605354Y-120198154D01*
X119602552Y-120176906D01*
X119600259Y-120155466D01*
X119598476Y-120133835D01*
X119597202Y-120112012D01*
X119596438Y-120089997D01*
X119596187Y-120068157D01*
X120018235Y-120068157D01*
X120018557Y-120086092D01*
X120019523Y-120103762D01*
X120021133Y-120121168D01*
X120023387Y-120138310D01*
X120026285Y-120155188D01*
X120029827Y-120171803D01*
X120034013Y-120188153D01*
X120038843Y-120204239D01*
X120044317Y-120220061D01*
X120050435Y-120235619D01*
X120054871Y-120245844D01*
X120061966Y-120260907D01*
X120069512Y-120275597D01*
X120077508Y-120289913D01*
X120085955Y-120303855D01*
X120094853Y-120317424D01*
X120104202Y-120330620D01*
X120114001Y-120343442D01*
X120124251Y-120355891D01*
X120134953Y-120367966D01*
X120146105Y-120379667D01*
X120153790Y-120387260D01*
X120165648Y-120398226D01*
X120177867Y-120408727D01*
X120190446Y-120418765D01*
X120203386Y-120428339D01*
X120216687Y-120437450D01*
X120230348Y-120446096D01*
X120244370Y-120454279D01*
X120258753Y-120461999D01*
X120273496Y-120469255D01*
X120288600Y-120476047D01*
X120298870Y-120480317D01*
X120314544Y-120486210D01*
X120330379Y-120491523D01*
X120346374Y-120496256D01*
X120362531Y-120500410D01*
X120378849Y-120503984D01*
X120395328Y-120506979D01*
X120411968Y-120509394D01*
X120428769Y-120511229D01*
X120445731Y-120512485D01*
X120462854Y-120513161D01*
X120474358Y-120513290D01*
X120491651Y-120513000D01*
X120508769Y-120512131D01*
X120525714Y-120510682D01*
X120542485Y-120508653D01*
X120559082Y-120506045D01*
X120575505Y-120502857D01*
X120591754Y-120499090D01*
X120607829Y-120494743D01*
X120623731Y-120489816D01*
X120639458Y-120484310D01*
X120649847Y-120480317D01*
X120665201Y-120473834D01*
X120680214Y-120466887D01*
X120694885Y-120459477D01*
X120709215Y-120451603D01*
X120723204Y-120443266D01*
X120736851Y-120434464D01*
X120750157Y-120425199D01*
X120763122Y-120415471D01*
X120775746Y-120405278D01*
X120788028Y-120394622D01*
X120796026Y-120387260D01*
X120807675Y-120375808D01*
X120818854Y-120363982D01*
X120829562Y-120351783D01*
X120839801Y-120339210D01*
X120849569Y-120326263D01*
X120858868Y-120312943D01*
X120867696Y-120299249D01*
X120876054Y-120285182D01*
X120883942Y-120270742D01*
X120891360Y-120255927D01*
X120896044Y-120245844D01*
X120902591Y-120230462D01*
X120908494Y-120214816D01*
X120913754Y-120198906D01*
X120918369Y-120182732D01*
X120922340Y-120166294D01*
X120925668Y-120149592D01*
X120928351Y-120132626D01*
X120930390Y-120115395D01*
X120931786Y-120097901D01*
X120932537Y-120080143D01*
X120932680Y-120068157D01*
X120932358Y-120050157D01*
X120931392Y-120032428D01*
X120929782Y-120014969D01*
X120927528Y-119997781D01*
X120924630Y-119980863D01*
X120921088Y-119964216D01*
X120916902Y-119947839D01*
X120912072Y-119931732D01*
X120906598Y-119915896D01*
X120900480Y-119900331D01*
X120896044Y-119890104D01*
X120888939Y-119875044D01*
X120881365Y-119860364D01*
X120873320Y-119846064D01*
X120864805Y-119832144D01*
X120855820Y-119818604D01*
X120846365Y-119805444D01*
X120836440Y-119792664D01*
X120826045Y-119780264D01*
X120815180Y-119768243D01*
X120803844Y-119756603D01*
X120796026Y-119749054D01*
X120783972Y-119738023D01*
X120771576Y-119727463D01*
X120758838Y-119717372D01*
X120745760Y-119707752D01*
X120732340Y-119698602D01*
X120718579Y-119689922D01*
X120704476Y-119681712D01*
X120690032Y-119673972D01*
X120675247Y-119666702D01*
X120660121Y-119659903D01*
X120649847Y-119655631D01*
X120634235Y-119649673D01*
X120618450Y-119644301D01*
X120602490Y-119639515D01*
X120586357Y-119635315D01*
X120570050Y-119631701D01*
X120553569Y-119628673D01*
X120536914Y-119626231D01*
X120520085Y-119624376D01*
X120503083Y-119623106D01*
X120485906Y-119622422D01*
X120474358Y-119622292D01*
X120457128Y-119622585D01*
X120440059Y-119623464D01*
X120423151Y-119624929D01*
X120406403Y-119626980D01*
X120389817Y-119629617D01*
X120373392Y-119632841D01*
X120357128Y-119636650D01*
X120341025Y-119641045D01*
X120325082Y-119646027D01*
X120309301Y-119651594D01*
X120298870Y-119655631D01*
X120283525Y-119662117D01*
X120268542Y-119669073D01*
X120253919Y-119676500D01*
X120239656Y-119684396D01*
X120225754Y-119692763D01*
X120212213Y-119701600D01*
X120199033Y-119710907D01*
X120186213Y-119720684D01*
X120173754Y-119730931D01*
X120161655Y-119741648D01*
X120153790Y-119749054D01*
X120142337Y-119760441D01*
X120131335Y-119772208D01*
X120120785Y-119784355D01*
X120110685Y-119796882D01*
X120101035Y-119809788D01*
X120091837Y-119823075D01*
X120083089Y-119836742D01*
X120074792Y-119850789D01*
X120066946Y-119865215D01*
X120059551Y-119880022D01*
X120054871Y-119890104D01*
X120048324Y-119905489D01*
X120042421Y-119921145D01*
X120037161Y-119937071D01*
X120032546Y-119953268D01*
X120028575Y-119969735D01*
X120025247Y-119986472D01*
X120022564Y-120003480D01*
X120020525Y-120020759D01*
X120019129Y-120038308D01*
X120018378Y-120056127D01*
X120018235Y-120068157D01*
X119596187Y-120068157D01*
X119596183Y-120067791D01*
X119596438Y-120045629D01*
X119597202Y-120023655D01*
X119598476Y-120001871D01*
X119600259Y-119980276D01*
X119602552Y-119958869D01*
X119605354Y-119937651D01*
X119608665Y-119916623D01*
X119612486Y-119895783D01*
X119616817Y-119875132D01*
X119621657Y-119854670D01*
X119627006Y-119834397D01*
X119632865Y-119814313D01*
X119639234Y-119794417D01*
X119646112Y-119774711D01*
X119653499Y-119755193D01*
X119661396Y-119735865D01*
X119669745Y-119716785D01*
X119678489Y-119698015D01*
X119687628Y-119679553D01*
X119697162Y-119661401D01*
X119707091Y-119643558D01*
X119717415Y-119626024D01*
X119728134Y-119608799D01*
X119739248Y-119591884D01*
X119750757Y-119575277D01*
X119762661Y-119558980D01*
X119774960Y-119542991D01*
X119787654Y-119527312D01*
X119800743Y-119511942D01*
X119814227Y-119496881D01*
X119828106Y-119482129D01*
X119842380Y-119467686D01*
X119857072Y-119453548D01*
X119872113Y-119439802D01*
X119887503Y-119426449D01*
X119903242Y-119413487D01*
X119919331Y-119400918D01*
X119935769Y-119388740D01*
X119952555Y-119376955D01*
X119969692Y-119365562D01*
X119987177Y-119354561D01*
X120005011Y-119343952D01*
X120023195Y-119333736D01*
X120041728Y-119323911D01*
X120060610Y-119314479D01*
X120079841Y-119305438D01*
X120099422Y-119296790D01*
X120119351Y-119288534D01*
X120139629Y-119280682D01*
X120160161Y-119273336D01*
X120180948Y-119266496D01*
X120201989Y-119260164D01*
X120223286Y-119254338D01*
X120244837Y-119249018D01*
X120266643Y-119244205D01*
X120288703Y-119239899D01*
X120311019Y-119236100D01*
X120333589Y-119232807D01*
X120356413Y-119230020D01*
X120379493Y-119227740D01*
X120402827Y-119225967D01*
X120426416Y-119224701D01*
X120450260Y-119223941D01*
X120474358Y-119223688D01*
X120498238Y-119223941D01*
G37*
G36*
X122201766Y-119622292D02*
G01*
X122201766Y-120865000D01*
X121800597Y-120865000D01*
X121800597Y-119622292D01*
X121451452Y-119622292D01*
X121451452Y-119270582D01*
X122530028Y-119270582D01*
X122530028Y-119622292D01*
X122201766Y-119622292D01*
G37*
G36*
X116271352Y-121784856D02*
G01*
X116287522Y-121785264D01*
X116303449Y-121785944D01*
X116319135Y-121786896D01*
X116334579Y-121788119D01*
X116349781Y-121789615D01*
X116364741Y-121791382D01*
X116379459Y-121793422D01*
X116393935Y-121795733D01*
X116422163Y-121801171D01*
X116449422Y-121807697D01*
X116475715Y-121815310D01*
X116501040Y-121824012D01*
X116525397Y-121833800D01*
X116548787Y-121844677D01*
X116571210Y-121856641D01*
X116592665Y-121869693D01*
X116613153Y-121883832D01*
X116632673Y-121899059D01*
X116651226Y-121915374D01*
X116660140Y-121923939D01*
X116677176Y-121941740D01*
X116693113Y-121960432D01*
X116707950Y-121980014D01*
X116721689Y-122000486D01*
X116734329Y-122021848D01*
X116745869Y-122044101D01*
X116756310Y-122067243D01*
X116765653Y-122091276D01*
X116773896Y-122116198D01*
X116781040Y-122142011D01*
X116787085Y-122168714D01*
X116792031Y-122196308D01*
X116795878Y-122224791D01*
X116798625Y-122254165D01*
X116799587Y-122269185D01*
X116800274Y-122284428D01*
X116800686Y-122299894D01*
X116800824Y-122315582D01*
X116800685Y-122331248D01*
X116800268Y-122346692D01*
X116799574Y-122361914D01*
X116798603Y-122376914D01*
X116797353Y-122391692D01*
X116794022Y-122420583D01*
X116789579Y-122448587D01*
X116784027Y-122475704D01*
X116777363Y-122501934D01*
X116769590Y-122527276D01*
X116760705Y-122551730D01*
X116750710Y-122575298D01*
X116739605Y-122597978D01*
X116727389Y-122619771D01*
X116714063Y-122640677D01*
X116699626Y-122660695D01*
X116684078Y-122679826D01*
X116667420Y-122698070D01*
X116658674Y-122706859D01*
X116640463Y-122723673D01*
X116621277Y-122739403D01*
X116601114Y-122754047D01*
X116579975Y-122767607D01*
X116557860Y-122780082D01*
X116534769Y-122791472D01*
X116510702Y-122801778D01*
X116485659Y-122810998D01*
X116459640Y-122819134D01*
X116432645Y-122826185D01*
X116404674Y-122832152D01*
X116375727Y-122837033D01*
X116360887Y-122839067D01*
X116345804Y-122840830D01*
X116330476Y-122842321D01*
X116314904Y-122843542D01*
X116299089Y-122844491D01*
X116283029Y-122845169D01*
X116266726Y-122845576D01*
X116250178Y-122845711D01*
X116006180Y-122845711D01*
X116006180Y-123373276D01*
X115605011Y-123373276D01*
X115605011Y-122118845D01*
X116006180Y-122118845D01*
X116006180Y-122511587D01*
X116146131Y-122511587D01*
X116174302Y-122510820D01*
X116200656Y-122508519D01*
X116225192Y-122504683D01*
X116247911Y-122499314D01*
X116268813Y-122492410D01*
X116287897Y-122483972D01*
X116305163Y-122474000D01*
X116320612Y-122462494D01*
X116334243Y-122449454D01*
X116346057Y-122434880D01*
X116356053Y-122418771D01*
X116364232Y-122401128D01*
X116370593Y-122381951D01*
X116375137Y-122361240D01*
X116377863Y-122338995D01*
X116378772Y-122315216D01*
X116377863Y-122291436D01*
X116375137Y-122269191D01*
X116370593Y-122248480D01*
X116364232Y-122229303D01*
X116356053Y-122211661D01*
X116346057Y-122195552D01*
X116334243Y-122180978D01*
X116320612Y-122167937D01*
X116305163Y-122156431D01*
X116287897Y-122146459D01*
X116268813Y-122138021D01*
X116247911Y-122131118D01*
X116225192Y-122125748D01*
X116200656Y-122121913D01*
X116174302Y-122119612D01*
X116146131Y-122118845D01*
X116006180Y-122118845D01*
X115605011Y-122118845D01*
X115605011Y-121784720D01*
X116254941Y-121784720D01*
X116271352Y-121784856D01*
G37*
G36*
X117859682Y-121743941D02*
G01*
X117883327Y-121744701D01*
X117906737Y-121745967D01*
X117929913Y-121747740D01*
X117952853Y-121750020D01*
X117975559Y-121752807D01*
X117998031Y-121756100D01*
X118020267Y-121759899D01*
X118042269Y-121764205D01*
X118064036Y-121769018D01*
X118085569Y-121774338D01*
X118106867Y-121780164D01*
X118127930Y-121786496D01*
X118148758Y-121793336D01*
X118169352Y-121800682D01*
X118189711Y-121808534D01*
X118209821Y-121816790D01*
X118229576Y-121825438D01*
X118248976Y-121834479D01*
X118268021Y-121843911D01*
X118286711Y-121853736D01*
X118305047Y-121863952D01*
X118323027Y-121874561D01*
X118340653Y-121885562D01*
X118357923Y-121896955D01*
X118374839Y-121908740D01*
X118391400Y-121920918D01*
X118407606Y-121933487D01*
X118423457Y-121946449D01*
X118438953Y-121959802D01*
X118454094Y-121973548D01*
X118468880Y-121987686D01*
X118483287Y-122002129D01*
X118497291Y-122016881D01*
X118510890Y-122031942D01*
X118524087Y-122047312D01*
X118536879Y-122062991D01*
X118549269Y-122078980D01*
X118561254Y-122095277D01*
X118572836Y-122111884D01*
X118584014Y-122128799D01*
X118594789Y-122146024D01*
X118605161Y-122163558D01*
X118615128Y-122181401D01*
X118624692Y-122199553D01*
X118633853Y-122218015D01*
X118642610Y-122236785D01*
X118650963Y-122255865D01*
X118658860Y-122275193D01*
X118666247Y-122294711D01*
X118673125Y-122314417D01*
X118679494Y-122334313D01*
X118685353Y-122354397D01*
X118690702Y-122374670D01*
X118695542Y-122395132D01*
X118699873Y-122415783D01*
X118703694Y-122436623D01*
X118707006Y-122457651D01*
X118709808Y-122478869D01*
X118712100Y-122500276D01*
X118713883Y-122521871D01*
X118715157Y-122543655D01*
X118715921Y-122565629D01*
X118716176Y-122587791D01*
X118715921Y-122609997D01*
X118715157Y-122632012D01*
X118713883Y-122653835D01*
X118712100Y-122675466D01*
X118709808Y-122696906D01*
X118707006Y-122718154D01*
X118703694Y-122739209D01*
X118699873Y-122760074D01*
X118695542Y-122780746D01*
X118690702Y-122801227D01*
X118685353Y-122821516D01*
X118679494Y-122841613D01*
X118673125Y-122861518D01*
X118666247Y-122881231D01*
X118658860Y-122900753D01*
X118650963Y-122920083D01*
X118642610Y-122939120D01*
X118633853Y-122957853D01*
X118624692Y-122976283D01*
X118615128Y-122994409D01*
X118605161Y-123012232D01*
X118594789Y-123029752D01*
X118584014Y-123046968D01*
X118572836Y-123063881D01*
X118561254Y-123080491D01*
X118549269Y-123096797D01*
X118536879Y-123112799D01*
X118524087Y-123128499D01*
X118510890Y-123143895D01*
X118497291Y-123158987D01*
X118483287Y-123173776D01*
X118468880Y-123188262D01*
X118454094Y-123202357D01*
X118438953Y-123216066D01*
X118423457Y-123229388D01*
X118407606Y-123242324D01*
X118391400Y-123254873D01*
X118374839Y-123267036D01*
X118357923Y-123278813D01*
X118340653Y-123290203D01*
X118323027Y-123301207D01*
X118305047Y-123311824D01*
X118286711Y-123322055D01*
X118268021Y-123331900D01*
X118248976Y-123341358D01*
X118229576Y-123350430D01*
X118209821Y-123359115D01*
X118189711Y-123367414D01*
X118169352Y-123375222D01*
X118148758Y-123382527D01*
X118127930Y-123389327D01*
X118106867Y-123395624D01*
X118085569Y-123401417D01*
X118064036Y-123406707D01*
X118042269Y-123411492D01*
X118020267Y-123415774D01*
X117998031Y-123419552D01*
X117975559Y-123422827D01*
X117952853Y-123425597D01*
X117929913Y-123427864D01*
X117906737Y-123429627D01*
X117883327Y-123430887D01*
X117859682Y-123431642D01*
X117835803Y-123431894D01*
X117811704Y-123431642D01*
X117787861Y-123430887D01*
X117764272Y-123429627D01*
X117740937Y-123427864D01*
X117717858Y-123425597D01*
X117695033Y-123422827D01*
X117672463Y-123419552D01*
X117650148Y-123415774D01*
X117628087Y-123411492D01*
X117606281Y-123406707D01*
X117584730Y-123401417D01*
X117563434Y-123395624D01*
X117542392Y-123389327D01*
X117521605Y-123382527D01*
X117501073Y-123375222D01*
X117480796Y-123367414D01*
X117460866Y-123359115D01*
X117441286Y-123350430D01*
X117422054Y-123341358D01*
X117403172Y-123331900D01*
X117384639Y-123322055D01*
X117366456Y-123311824D01*
X117348621Y-123301207D01*
X117331136Y-123290203D01*
X117314000Y-123278813D01*
X117297213Y-123267036D01*
X117280775Y-123254873D01*
X117264687Y-123242324D01*
X117248947Y-123229388D01*
X117233557Y-123216066D01*
X117218516Y-123202357D01*
X117203824Y-123188262D01*
X117189550Y-123173776D01*
X117175672Y-123158987D01*
X117162188Y-123143895D01*
X117149099Y-123128499D01*
X117136405Y-123112799D01*
X117124106Y-123096797D01*
X117112202Y-123080491D01*
X117100693Y-123063881D01*
X117089579Y-123046968D01*
X117078860Y-123029752D01*
X117068536Y-123012232D01*
X117058607Y-122994409D01*
X117049073Y-122976283D01*
X117039934Y-122957853D01*
X117031190Y-122939120D01*
X117022840Y-122920083D01*
X117014944Y-122900753D01*
X117007556Y-122881231D01*
X117000678Y-122861518D01*
X116994310Y-122841613D01*
X116988451Y-122821516D01*
X116983101Y-122801227D01*
X116978261Y-122780746D01*
X116973931Y-122760074D01*
X116970110Y-122739209D01*
X116966798Y-122718154D01*
X116963996Y-122696906D01*
X116961703Y-122675466D01*
X116959920Y-122653835D01*
X116958647Y-122632012D01*
X116957882Y-122609997D01*
X116957632Y-122588157D01*
X117379679Y-122588157D01*
X117380001Y-122606092D01*
X117380967Y-122623762D01*
X117382577Y-122641168D01*
X117384831Y-122658310D01*
X117387729Y-122675188D01*
X117391271Y-122691803D01*
X117395457Y-122708153D01*
X117400287Y-122724239D01*
X117405761Y-122740061D01*
X117411879Y-122755619D01*
X117416316Y-122765844D01*
X117423410Y-122780907D01*
X117430956Y-122795597D01*
X117438952Y-122809913D01*
X117447399Y-122823855D01*
X117456297Y-122837424D01*
X117465646Y-122850620D01*
X117475446Y-122863442D01*
X117485696Y-122875891D01*
X117496397Y-122887966D01*
X117507549Y-122899667D01*
X117515234Y-122907260D01*
X117527092Y-122918226D01*
X117539311Y-122928727D01*
X117551890Y-122938765D01*
X117564831Y-122948339D01*
X117578131Y-122957450D01*
X117591793Y-122966096D01*
X117605815Y-122974279D01*
X117620197Y-122981999D01*
X117634941Y-122989255D01*
X117650045Y-122996047D01*
X117660314Y-123000317D01*
X117675988Y-123006210D01*
X117691823Y-123011523D01*
X117707819Y-123016256D01*
X117723976Y-123020410D01*
X117740294Y-123023984D01*
X117756773Y-123026979D01*
X117773412Y-123029394D01*
X117790213Y-123031229D01*
X117807175Y-123032485D01*
X117824298Y-123033161D01*
X117835803Y-123033290D01*
X117853095Y-123033000D01*
X117870214Y-123032131D01*
X117887158Y-123030682D01*
X117903929Y-123028653D01*
X117920526Y-123026045D01*
X117936949Y-123022857D01*
X117953199Y-123019090D01*
X117969274Y-123014743D01*
X117985175Y-123009816D01*
X118000903Y-123004310D01*
X118011291Y-123000317D01*
X118026645Y-122993834D01*
X118041658Y-122986887D01*
X118056329Y-122979477D01*
X118070659Y-122971603D01*
X118084648Y-122963266D01*
X118098296Y-122954464D01*
X118111602Y-122945199D01*
X118124566Y-122935471D01*
X118137190Y-122925278D01*
X118149472Y-122914622D01*
X118157471Y-122907260D01*
X118169119Y-122895808D01*
X118180298Y-122883982D01*
X118191007Y-122871783D01*
X118201245Y-122859210D01*
X118211014Y-122846263D01*
X118220312Y-122832943D01*
X118229140Y-122819249D01*
X118237498Y-122805182D01*
X118245386Y-122790742D01*
X118252804Y-122775927D01*
X118257488Y-122765844D01*
X118264035Y-122750462D01*
X118269939Y-122734816D01*
X118275198Y-122718906D01*
X118279813Y-122702732D01*
X118283785Y-122686294D01*
X118287112Y-122669592D01*
X118289795Y-122652626D01*
X118291835Y-122635395D01*
X118293230Y-122617901D01*
X118293981Y-122600143D01*
X118294124Y-122588157D01*
X118293802Y-122570157D01*
X118292836Y-122552428D01*
X118291226Y-122534969D01*
X118288972Y-122517781D01*
X118286074Y-122500863D01*
X118282532Y-122484216D01*
X118278346Y-122467839D01*
X118273516Y-122451732D01*
X118268042Y-122435896D01*
X118261924Y-122420331D01*
X118257488Y-122410104D01*
X118250384Y-122395044D01*
X118242809Y-122380364D01*
X118234764Y-122366064D01*
X118226250Y-122352144D01*
X118217265Y-122338604D01*
X118207810Y-122325444D01*
X118197885Y-122312664D01*
X118187490Y-122300264D01*
X118176624Y-122288243D01*
X118165289Y-122276603D01*
X118157471Y-122269054D01*
X118145416Y-122258023D01*
X118133020Y-122247463D01*
X118120283Y-122237372D01*
X118107204Y-122227752D01*
X118093784Y-122218602D01*
X118080023Y-122209922D01*
X118065921Y-122201712D01*
X118051477Y-122193972D01*
X118036692Y-122186702D01*
X118021565Y-122179903D01*
X118011291Y-122175631D01*
X117995680Y-122169673D01*
X117979894Y-122164301D01*
X117963935Y-122159515D01*
X117947801Y-122155315D01*
X117931494Y-122151701D01*
X117915013Y-122148673D01*
X117898358Y-122146231D01*
X117881530Y-122144376D01*
X117864527Y-122143106D01*
X117847350Y-122142422D01*
X117835803Y-122142292D01*
X117818573Y-122142585D01*
X117801503Y-122143464D01*
X117784595Y-122144929D01*
X117767848Y-122146980D01*
X117751262Y-122149617D01*
X117734836Y-122152841D01*
X117718572Y-122156650D01*
X117702469Y-122161045D01*
X117686527Y-122166027D01*
X117670746Y-122171594D01*
X117660314Y-122175631D01*
X117644970Y-122182117D01*
X117629986Y-122189073D01*
X117615363Y-122196500D01*
X117601101Y-122204396D01*
X117587199Y-122212763D01*
X117573658Y-122221600D01*
X117560477Y-122230907D01*
X117547657Y-122240684D01*
X117535198Y-122250931D01*
X117523099Y-122261648D01*
X117515234Y-122269054D01*
X117503782Y-122280441D01*
X117492780Y-122292208D01*
X117482229Y-122304355D01*
X117472129Y-122316882D01*
X117462480Y-122329788D01*
X117453281Y-122343075D01*
X117444534Y-122356742D01*
X117436237Y-122370789D01*
X117428391Y-122385215D01*
X117420995Y-122400022D01*
X117416316Y-122410104D01*
X117409768Y-122425489D01*
X117403865Y-122441145D01*
X117398606Y-122457071D01*
X117393990Y-122473268D01*
X117390019Y-122489735D01*
X117386692Y-122506472D01*
X117384008Y-122523480D01*
X117381969Y-122540759D01*
X117380574Y-122558308D01*
X117379822Y-122576127D01*
X117379679Y-122588157D01*
X116957632Y-122588157D01*
X116957628Y-122587791D01*
X116957882Y-122565629D01*
X116958647Y-122543655D01*
X116959920Y-122521871D01*
X116961703Y-122500276D01*
X116963996Y-122478869D01*
X116966798Y-122457651D01*
X116970110Y-122436623D01*
X116973931Y-122415783D01*
X116978261Y-122395132D01*
X116983101Y-122374670D01*
X116988451Y-122354397D01*
X116994310Y-122334313D01*
X117000678Y-122314417D01*
X117007556Y-122294711D01*
X117014944Y-122275193D01*
X117022840Y-122255865D01*
X117031190Y-122236785D01*
X117039934Y-122218015D01*
X117049073Y-122199553D01*
X117058607Y-122181401D01*
X117068536Y-122163558D01*
X117078860Y-122146024D01*
X117089579Y-122128799D01*
X117100693Y-122111884D01*
X117112202Y-122095277D01*
X117124106Y-122078980D01*
X117136405Y-122062991D01*
X117149099Y-122047312D01*
X117162188Y-122031942D01*
X117175672Y-122016881D01*
X117189550Y-122002129D01*
X117203824Y-121987686D01*
X117218516Y-121973548D01*
X117233557Y-121959802D01*
X117248947Y-121946449D01*
X117264687Y-121933487D01*
X117280775Y-121920918D01*
X117297213Y-121908740D01*
X117314000Y-121896955D01*
X117331136Y-121885562D01*
X117348621Y-121874561D01*
X117366456Y-121863952D01*
X117384639Y-121853736D01*
X117403172Y-121843911D01*
X117422054Y-121834479D01*
X117441286Y-121825438D01*
X117460866Y-121816790D01*
X117480796Y-121808534D01*
X117501073Y-121800682D01*
X117521605Y-121793336D01*
X117542392Y-121786496D01*
X117563434Y-121780164D01*
X117584730Y-121774338D01*
X117606281Y-121769018D01*
X117628087Y-121764205D01*
X117650148Y-121759899D01*
X117672463Y-121756100D01*
X117695033Y-121752807D01*
X117717858Y-121750020D01*
X117740937Y-121747740D01*
X117764272Y-121745967D01*
X117787861Y-121744701D01*
X117811704Y-121743941D01*
X117835803Y-121743688D01*
X117859682Y-121743941D01*
G37*
G36*
X119211134Y-121790582D02*
G01*
X119484076Y-122820432D01*
X119820032Y-121790582D01*
X120147928Y-121790582D01*
X120483884Y-122820432D01*
X120756825Y-121790582D01*
X121187303Y-121790582D01*
X120714693Y-123385000D01*
X120294840Y-123385000D01*
X119983796Y-122461029D01*
X119673120Y-123385000D01*
X119253266Y-123385000D01*
X118780656Y-121790582D01*
X119211134Y-121790582D01*
G37*
G36*
X122253789Y-122142292D02*
G01*
X121752237Y-122142292D01*
X121752237Y-122400212D01*
X122230342Y-122400212D01*
X122230342Y-122751922D01*
X121752237Y-122751922D01*
X121752237Y-123033290D01*
X122253789Y-123033290D01*
X122253789Y-123385000D01*
X121351068Y-123385000D01*
X121351068Y-121790582D01*
X122253789Y-121790582D01*
X122253789Y-122142292D01*
G37*
G36*
X123208951Y-121784876D02*
G01*
X123225222Y-121785344D01*
X123241226Y-121786124D01*
X123256964Y-121787216D01*
X123272435Y-121788620D01*
X123287641Y-121790336D01*
X123302580Y-121792364D01*
X123317253Y-121794704D01*
X123338764Y-121798799D01*
X123359676Y-121803595D01*
X123379989Y-121809094D01*
X123399703Y-121815295D01*
X123418817Y-121822197D01*
X123425056Y-121824654D01*
X123443432Y-121832396D01*
X123461189Y-121840647D01*
X123478328Y-121849406D01*
X123494848Y-121858674D01*
X123510751Y-121868451D01*
X123526035Y-121878737D01*
X123540701Y-121889532D01*
X123554749Y-121900835D01*
X123568179Y-121912647D01*
X123580990Y-121924968D01*
X123589187Y-121933464D01*
X123601063Y-121946569D01*
X123612371Y-121960053D01*
X123623113Y-121973917D01*
X123633288Y-121988161D01*
X123642897Y-122002785D01*
X123651939Y-122017790D01*
X123660414Y-122033174D01*
X123668322Y-122048938D01*
X123675664Y-122065082D01*
X123682438Y-122081606D01*
X123686640Y-122092833D01*
X123692467Y-122109847D01*
X123697721Y-122127094D01*
X123702402Y-122144572D01*
X123706510Y-122162282D01*
X123710044Y-122180223D01*
X123713005Y-122198397D01*
X123715394Y-122216803D01*
X123717209Y-122235440D01*
X123718451Y-122254309D01*
X123719119Y-122273410D01*
X123719247Y-122286273D01*
X123718906Y-122309126D01*
X123717884Y-122331433D01*
X123716181Y-122353193D01*
X123713797Y-122374407D01*
X123710731Y-122395073D01*
X123706985Y-122415193D01*
X123702557Y-122434767D01*
X123697448Y-122453793D01*
X123691658Y-122472273D01*
X123685186Y-122490206D01*
X123678033Y-122507593D01*
X123670200Y-122524433D01*
X123661684Y-122540726D01*
X123652488Y-122556472D01*
X123642611Y-122571672D01*
X123632052Y-122586325D01*
X123620872Y-122600415D01*
X123609040Y-122613923D01*
X123596555Y-122626850D01*
X123583417Y-122639196D01*
X123569627Y-122650961D01*
X123555184Y-122662146D01*
X123540089Y-122672749D01*
X123524341Y-122682771D01*
X123507940Y-122692212D01*
X123490887Y-122701072D01*
X123473181Y-122709351D01*
X123454823Y-122717049D01*
X123435812Y-122724166D01*
X123416149Y-122730702D01*
X123395833Y-122736656D01*
X123374864Y-122742030D01*
X123872753Y-123396723D01*
X123360210Y-123396723D01*
X122948050Y-122782330D01*
X122948050Y-123396723D01*
X122546881Y-123396723D01*
X122546881Y-122118845D01*
X122948050Y-122118845D01*
X122948050Y-122513053D01*
X123030115Y-122513053D01*
X123046045Y-122512854D01*
X123061502Y-122512257D01*
X123076488Y-122511262D01*
X123098080Y-122509024D01*
X123118610Y-122505891D01*
X123138077Y-122501863D01*
X123156481Y-122496940D01*
X123173823Y-122491121D01*
X123190102Y-122484407D01*
X123205319Y-122476799D01*
X123219473Y-122468295D01*
X123228318Y-122462128D01*
X123240627Y-122452190D01*
X123251726Y-122441473D01*
X123261613Y-122429976D01*
X123270290Y-122417701D01*
X123277756Y-122404646D01*
X123284012Y-122390811D01*
X123289056Y-122376198D01*
X123292890Y-122360805D01*
X123295513Y-122344633D01*
X123296926Y-122327682D01*
X123297195Y-122315949D01*
X123296590Y-122298478D01*
X123294773Y-122281787D01*
X123291747Y-122265874D01*
X123287509Y-122250741D01*
X123282061Y-122236388D01*
X123275402Y-122222813D01*
X123267532Y-122210018D01*
X123258452Y-122198002D01*
X123248161Y-122186765D01*
X123236659Y-122176308D01*
X123228318Y-122169769D01*
X123214873Y-122160668D01*
X123200365Y-122152463D01*
X123184794Y-122145152D01*
X123168160Y-122138737D01*
X123150464Y-122133217D01*
X123131706Y-122128592D01*
X123111884Y-122124862D01*
X123091001Y-122122027D01*
X123069054Y-122120088D01*
X123053833Y-122119292D01*
X123038139Y-122118894D01*
X123030115Y-122118845D01*
X122948050Y-122118845D01*
X122546881Y-122118845D01*
X122546881Y-121784720D01*
X123192415Y-121784720D01*
X123208951Y-121784876D01*
G37*
G36*
X124080115Y-122845711D02*
G01*
X124080115Y-121790582D01*
X124481284Y-121790582D01*
X124481284Y-122845711D01*
X124080115Y-122845711D01*
G37*
G36*
X124035785Y-123186064D02*
G01*
X124036241Y-123170293D01*
X124037610Y-123154808D01*
X124039891Y-123139610D01*
X124043084Y-123124698D01*
X124047189Y-123110072D01*
X124052207Y-123095732D01*
X124054470Y-123090076D01*
X124060781Y-123076271D01*
X124067808Y-123063021D01*
X124075550Y-123050325D01*
X124084008Y-123038184D01*
X124093181Y-123026598D01*
X124103070Y-123015565D01*
X124107226Y-123011308D01*
X124118037Y-123001036D01*
X124129401Y-122991516D01*
X124141321Y-122982747D01*
X124153795Y-122974729D01*
X124166823Y-122967462D01*
X124180406Y-122960947D01*
X124185995Y-122958551D01*
X124200325Y-122953063D01*
X124214925Y-122948505D01*
X124229792Y-122944877D01*
X124244928Y-122942180D01*
X124260332Y-122940412D01*
X124276004Y-122939575D01*
X124282348Y-122939501D01*
X124297908Y-122939966D01*
X124313217Y-122941361D01*
X124328276Y-122943687D01*
X124343085Y-122946942D01*
X124357643Y-122951128D01*
X124371950Y-122956245D01*
X124377603Y-122958551D01*
X124391514Y-122964766D01*
X124404851Y-122971732D01*
X124417617Y-122979449D01*
X124429810Y-122987918D01*
X124441431Y-122997138D01*
X124452479Y-123007109D01*
X124456738Y-123011308D01*
X124466904Y-123022118D01*
X124476337Y-123033483D01*
X124485036Y-123045402D01*
X124493002Y-123057876D01*
X124500235Y-123070905D01*
X124506734Y-123084488D01*
X124509128Y-123090076D01*
X124514616Y-123104301D01*
X124519174Y-123118813D01*
X124522802Y-123133611D01*
X124525500Y-123148695D01*
X124527267Y-123164065D01*
X124528104Y-123179721D01*
X124528179Y-123186064D01*
X124527714Y-123201632D01*
X124526318Y-123216969D01*
X124523993Y-123232072D01*
X124520737Y-123246943D01*
X124516551Y-123261582D01*
X124511435Y-123275988D01*
X124509128Y-123281685D01*
X124502922Y-123295490D01*
X124495983Y-123308740D01*
X124488311Y-123321436D01*
X124479905Y-123333577D01*
X124470765Y-123345163D01*
X124460892Y-123356196D01*
X124456738Y-123360453D01*
X124445919Y-123370619D01*
X124434527Y-123380052D01*
X124422563Y-123388752D01*
X124410026Y-123396717D01*
X124396917Y-123403950D01*
X124383236Y-123410449D01*
X124377603Y-123412843D01*
X124363396Y-123418331D01*
X124348938Y-123422890D01*
X124334230Y-123426517D01*
X124319271Y-123429215D01*
X124304062Y-123430983D01*
X124288602Y-123431820D01*
X124282348Y-123431894D01*
X124266569Y-123431429D01*
X124251057Y-123430034D01*
X124235814Y-123427708D01*
X124220839Y-123424452D01*
X124206133Y-123420266D01*
X124191695Y-123415150D01*
X124185995Y-123412843D01*
X124172190Y-123406638D01*
X124158940Y-123399698D01*
X124146244Y-123392026D01*
X124134103Y-123383620D01*
X124122516Y-123374480D01*
X124111484Y-123364608D01*
X124107226Y-123360453D01*
X124097051Y-123349643D01*
X124087591Y-123338278D01*
X124078847Y-123326359D01*
X124070819Y-123313885D01*
X124063506Y-123300856D01*
X124056908Y-123287273D01*
X124054470Y-123281685D01*
X124049087Y-123267372D01*
X124044617Y-123252826D01*
X124041059Y-123238048D01*
X124038413Y-123223038D01*
X124036679Y-123207795D01*
X124035858Y-123192319D01*
X124035785Y-123186064D01*
G37*
G36*
X109545300Y-165970212D02*
G01*
X110152365Y-165970212D01*
X110152365Y-165360582D01*
X110553534Y-165360582D01*
X110553534Y-166955000D01*
X110152365Y-166955000D01*
X110152365Y-166304337D01*
X109545300Y-166304337D01*
X109545300Y-166955000D01*
X109144131Y-166955000D01*
X109144131Y-165360582D01*
X109545300Y-165360582D01*
X109545300Y-165970212D01*
G37*
G36*
X111437282Y-165829692D02*
G01*
X111454000Y-165830181D01*
X111470507Y-165830997D01*
X111486801Y-165832139D01*
X111502884Y-165833607D01*
X111518755Y-165835402D01*
X111534414Y-165837523D01*
X111549862Y-165839970D01*
X111565097Y-165842743D01*
X111580121Y-165845843D01*
X111594933Y-165849269D01*
X111609533Y-165853022D01*
X111623922Y-165857100D01*
X111638098Y-165861505D01*
X111652063Y-165866236D01*
X111665816Y-165871294D01*
X111685990Y-165879457D01*
X111705572Y-165888283D01*
X111724562Y-165897772D01*
X111742959Y-165907925D01*
X111760763Y-165918741D01*
X111777975Y-165930220D01*
X111794594Y-165942363D01*
X111810621Y-165955169D01*
X111826056Y-165968638D01*
X111840898Y-165982770D01*
X111850464Y-165992561D01*
X111864368Y-166007714D01*
X111877640Y-166023498D01*
X111890282Y-166039914D01*
X111902293Y-166056961D01*
X111913672Y-166074638D01*
X111924420Y-166092947D01*
X111934538Y-166111887D01*
X111944024Y-166131458D01*
X111949997Y-166144856D01*
X111955690Y-166158535D01*
X111961103Y-166172494D01*
X111966235Y-166186734D01*
X111971070Y-166201181D01*
X111975594Y-166215854D01*
X111979806Y-166230753D01*
X111983706Y-166245879D01*
X111987293Y-166261230D01*
X111990569Y-166276808D01*
X111993533Y-166292611D01*
X111996185Y-166308641D01*
X111998525Y-166324897D01*
X112000553Y-166341379D01*
X112002269Y-166358088D01*
X112003673Y-166375022D01*
X112004764Y-166392182D01*
X112005544Y-166409569D01*
X112006012Y-166427182D01*
X112006168Y-166445020D01*
X112006168Y-166486053D01*
X111197236Y-166486053D01*
X111198148Y-166514446D01*
X111200883Y-166541008D01*
X111205441Y-166565737D01*
X111211822Y-166588635D01*
X111220027Y-166609701D01*
X111230054Y-166628935D01*
X111241905Y-166646338D01*
X111255580Y-166661908D01*
X111271077Y-166675647D01*
X111288398Y-166687554D01*
X111307542Y-166697629D01*
X111328509Y-166705872D01*
X111351299Y-166712283D01*
X111375913Y-166716863D01*
X111402350Y-166719610D01*
X111430610Y-166720526D01*
X111446032Y-166720150D01*
X111460973Y-166719021D01*
X111482482Y-166715916D01*
X111502910Y-166711117D01*
X111522256Y-166704624D01*
X111540519Y-166696438D01*
X111557701Y-166686558D01*
X111573801Y-166674984D01*
X111588819Y-166661717D01*
X111602756Y-166646755D01*
X111615610Y-166630101D01*
X111619654Y-166624173D01*
X111991147Y-166624173D01*
X111983883Y-166647411D01*
X111975965Y-166669912D01*
X111967394Y-166691676D01*
X111958169Y-166712701D01*
X111948291Y-166732989D01*
X111937760Y-166752539D01*
X111926575Y-166771351D01*
X111914738Y-166789426D01*
X111902247Y-166806763D01*
X111889102Y-166823362D01*
X111875304Y-166839223D01*
X111860853Y-166854347D01*
X111845749Y-166868733D01*
X111829992Y-166882381D01*
X111813581Y-166895291D01*
X111796516Y-166907464D01*
X111778799Y-166918899D01*
X111760428Y-166929596D01*
X111741404Y-166939555D01*
X111721727Y-166948777D01*
X111701396Y-166957261D01*
X111680412Y-166965007D01*
X111658775Y-166972016D01*
X111636484Y-166978287D01*
X111613540Y-166983820D01*
X111589943Y-166988615D01*
X111565692Y-166992672D01*
X111540788Y-166995992D01*
X111515231Y-166998574D01*
X111489021Y-167000419D01*
X111462157Y-167001525D01*
X111434640Y-167001894D01*
X111417737Y-167001731D01*
X111401009Y-167001242D01*
X111384455Y-167000426D01*
X111368076Y-166999284D01*
X111351872Y-166997815D01*
X111335842Y-166996021D01*
X111319987Y-166993900D01*
X111304306Y-166991453D01*
X111288800Y-166988679D01*
X111273468Y-166985579D01*
X111258312Y-166982153D01*
X111243329Y-166978401D01*
X111228522Y-166974322D01*
X111213888Y-166969917D01*
X111199430Y-166965186D01*
X111185146Y-166960129D01*
X111171121Y-166954816D01*
X111157348Y-166949229D01*
X111143827Y-166943367D01*
X111124018Y-166934059D01*
X111104775Y-166924133D01*
X111086099Y-166913589D01*
X111067990Y-166902426D01*
X111050447Y-166890645D01*
X111033471Y-166878246D01*
X111017062Y-166865229D01*
X111001220Y-166851593D01*
X110990973Y-166842159D01*
X110976117Y-166827542D01*
X110961911Y-166812402D01*
X110948356Y-166796741D01*
X110935452Y-166780559D01*
X110923197Y-166763854D01*
X110911594Y-166746628D01*
X110900640Y-166728881D01*
X110890337Y-166710612D01*
X110880685Y-166691821D01*
X110871683Y-166672508D01*
X110866043Y-166659344D01*
X110858186Y-166639132D01*
X110851102Y-166618475D01*
X110846809Y-166604458D01*
X110842859Y-166590242D01*
X110839252Y-166575830D01*
X110835989Y-166561219D01*
X110833070Y-166546412D01*
X110830494Y-166531407D01*
X110828261Y-166516204D01*
X110826372Y-166500804D01*
X110824827Y-166485206D01*
X110823625Y-166469411D01*
X110822766Y-166453418D01*
X110822251Y-166437228D01*
X110822079Y-166420840D01*
X110822242Y-166403910D01*
X110822732Y-166387192D01*
X110823547Y-166370686D01*
X110824689Y-166354391D01*
X110826158Y-166338308D01*
X110827952Y-166322437D01*
X110830073Y-166306778D01*
X110832520Y-166291331D01*
X110835294Y-166276095D01*
X110835514Y-166275027D01*
X111207861Y-166275027D01*
X111647498Y-166275027D01*
X111643506Y-166259452D01*
X111638812Y-166244463D01*
X111633417Y-166230060D01*
X111627319Y-166216243D01*
X111620520Y-166203012D01*
X111613018Y-166190367D01*
X111601924Y-166174419D01*
X111589582Y-166159512D01*
X111575992Y-166145648D01*
X111568729Y-166139106D01*
X111553491Y-166126999D01*
X111537451Y-166116506D01*
X111520610Y-166107628D01*
X111502967Y-166100363D01*
X111484523Y-166094713D01*
X111470164Y-166091535D01*
X111455354Y-166089265D01*
X111440093Y-166087903D01*
X111424382Y-166087449D01*
X111407976Y-166087880D01*
X111392143Y-166089175D01*
X111376884Y-166091332D01*
X111362197Y-166094353D01*
X111343507Y-166099722D01*
X111325836Y-166106626D01*
X111309183Y-166115064D01*
X111293550Y-166125036D01*
X111278935Y-166136542D01*
X111265483Y-166149445D01*
X111253336Y-166163607D01*
X111242494Y-166179029D01*
X111232957Y-166195710D01*
X111226660Y-166209047D01*
X111221098Y-166223092D01*
X111216271Y-166237846D01*
X111212177Y-166253309D01*
X111208817Y-166269480D01*
X111207861Y-166275027D01*
X110835514Y-166275027D01*
X110838394Y-166261071D01*
X110841820Y-166246259D01*
X110845572Y-166231659D01*
X110849651Y-166217271D01*
X110854056Y-166203094D01*
X110858787Y-166189129D01*
X110863845Y-166175376D01*
X110872057Y-166155127D01*
X110880893Y-166135457D01*
X110890355Y-166116367D01*
X110900441Y-166097856D01*
X110911152Y-166079925D01*
X110922487Y-166062573D01*
X110934447Y-166045801D01*
X110947032Y-166029609D01*
X110960242Y-166013996D01*
X110974076Y-165998963D01*
X110983646Y-165989263D01*
X110998495Y-165975150D01*
X111013918Y-165961661D01*
X111029914Y-165948798D01*
X111046483Y-165936558D01*
X111063625Y-165924944D01*
X111081340Y-165913954D01*
X111099629Y-165903589D01*
X111118491Y-165893848D01*
X111137925Y-165884732D01*
X111157933Y-165876241D01*
X111171591Y-165870928D01*
X111185485Y-165865914D01*
X111199600Y-165861225D01*
X111213936Y-165856858D01*
X111228492Y-165852815D01*
X111243268Y-165849096D01*
X111258264Y-165845700D01*
X111273481Y-165842627D01*
X111288919Y-165839878D01*
X111304577Y-165837453D01*
X111320455Y-165835350D01*
X111336553Y-165833571D01*
X111352872Y-165832116D01*
X111369412Y-165830984D01*
X111386171Y-165830175D01*
X111403151Y-165829690D01*
X111420352Y-165829528D01*
X111437282Y-165829692D01*
G37*
G36*
X112741285Y-165824215D02*
G01*
X112765487Y-165825859D01*
X112789153Y-165828600D01*
X112812284Y-165832436D01*
X112834880Y-165837370D01*
X112856941Y-165843399D01*
X112878466Y-165850524D01*
X112899456Y-165858746D01*
X112919911Y-165868064D01*
X112939831Y-165878478D01*
X112959215Y-165889989D01*
X112978064Y-165902595D01*
X112996378Y-165916298D01*
X113014157Y-165931097D01*
X113031400Y-165946993D01*
X113048108Y-165963984D01*
X113048108Y-165852976D01*
X113423265Y-165852976D01*
X113423265Y-166931552D01*
X113048108Y-166931552D01*
X113048108Y-166814682D01*
X113032661Y-166834513D01*
X113016544Y-166853064D01*
X112999757Y-166870336D01*
X112982300Y-166886329D01*
X112964174Y-166901042D01*
X112945378Y-166914476D01*
X112925912Y-166926631D01*
X112905776Y-166937506D01*
X112884970Y-166947101D01*
X112863495Y-166955417D01*
X112841350Y-166962454D01*
X112818535Y-166968212D01*
X112795051Y-166972689D01*
X112770897Y-166975888D01*
X112746073Y-166977807D01*
X112720579Y-166978447D01*
X112698833Y-166978067D01*
X112677422Y-166976927D01*
X112656346Y-166975027D01*
X112635605Y-166972367D01*
X112615199Y-166968948D01*
X112595128Y-166964768D01*
X112575391Y-166959829D01*
X112555990Y-166954129D01*
X112536923Y-166947670D01*
X112518191Y-166940451D01*
X112505889Y-166935216D01*
X112487764Y-166926801D01*
X112470070Y-166917768D01*
X112452808Y-166908116D01*
X112435977Y-166897847D01*
X112419577Y-166886959D01*
X112403609Y-166875453D01*
X112388073Y-166863328D01*
X112372968Y-166850586D01*
X112358294Y-166837225D01*
X112344052Y-166823246D01*
X112334797Y-166813583D01*
X112321411Y-166798576D01*
X112308591Y-166783092D01*
X112296337Y-166767131D01*
X112284651Y-166750694D01*
X112273531Y-166733781D01*
X112262978Y-166716390D01*
X112252992Y-166698524D01*
X112243572Y-166680181D01*
X112234720Y-166661361D01*
X112226433Y-166642064D01*
X112221224Y-166628935D01*
X112213957Y-166608912D01*
X112207404Y-166588548D01*
X112201566Y-166567842D01*
X112196443Y-166546795D01*
X112192035Y-166525407D01*
X112189493Y-166510958D01*
X112187269Y-166496358D01*
X112185363Y-166481606D01*
X112183775Y-166466703D01*
X112182504Y-166451648D01*
X112181551Y-166436441D01*
X112180915Y-166421082D01*
X112180597Y-166405572D01*
X112180560Y-166398126D01*
X112581727Y-166398126D01*
X112582174Y-166414213D01*
X112583516Y-166429961D01*
X112585752Y-166445369D01*
X112588882Y-166460436D01*
X112592907Y-166475164D01*
X112597827Y-166489552D01*
X112600045Y-166495212D01*
X112606197Y-166509008D01*
X112612975Y-166522232D01*
X112620379Y-166534883D01*
X112630091Y-166549308D01*
X112640704Y-166562910D01*
X112650237Y-166573614D01*
X112662614Y-166585601D01*
X112675842Y-166596558D01*
X112689920Y-166606484D01*
X112704848Y-166615380D01*
X112717937Y-166622006D01*
X112726074Y-166625638D01*
X112740088Y-166631021D01*
X112754424Y-166635491D01*
X112769083Y-166639049D01*
X112784063Y-166641695D01*
X112799365Y-166643429D01*
X112814989Y-166644250D01*
X112821329Y-166644323D01*
X112836642Y-166643866D01*
X112851668Y-166642498D01*
X112866409Y-166640217D01*
X112880863Y-166637024D01*
X112895031Y-166632918D01*
X112908913Y-166627901D01*
X112914385Y-166625638D01*
X112927829Y-166619441D01*
X112943182Y-166611061D01*
X112957685Y-166601650D01*
X112971338Y-166591208D01*
X112984140Y-166579737D01*
X112990223Y-166573614D01*
X113001738Y-166560739D01*
X113012376Y-166547116D01*
X113022139Y-166532746D01*
X113031027Y-166517629D01*
X113037764Y-166504461D01*
X113041514Y-166496311D01*
X113047108Y-166482421D01*
X113051753Y-166468226D01*
X113055451Y-166453727D01*
X113058201Y-166438924D01*
X113060002Y-166423817D01*
X113060855Y-166408405D01*
X113060931Y-166402156D01*
X113060457Y-166386605D01*
X113059035Y-166371323D01*
X113056665Y-166356308D01*
X113053346Y-166341563D01*
X113049080Y-166327085D01*
X113043865Y-166312876D01*
X113041514Y-166307267D01*
X113035142Y-166293472D01*
X113028162Y-166280248D01*
X113020573Y-166267597D01*
X113010664Y-166253171D01*
X112999879Y-166239570D01*
X112990223Y-166228866D01*
X112977845Y-166216879D01*
X112964617Y-166205922D01*
X112950540Y-166195996D01*
X112935612Y-166187100D01*
X112922522Y-166180474D01*
X112914385Y-166176842D01*
X112900618Y-166171353D01*
X112886565Y-166166795D01*
X112872225Y-166163168D01*
X112857599Y-166160470D01*
X112842687Y-166158702D01*
X112827488Y-166157865D01*
X112821329Y-166157791D01*
X112805576Y-166158256D01*
X112790145Y-166159651D01*
X112775036Y-166161977D01*
X112760249Y-166165233D01*
X112745784Y-166169419D01*
X112731641Y-166174535D01*
X112726074Y-166176842D01*
X112712631Y-166183038D01*
X112697278Y-166191419D01*
X112682775Y-166200830D01*
X112669122Y-166211271D01*
X112656319Y-166222743D01*
X112650237Y-166228866D01*
X112638872Y-166241703D01*
X112628409Y-166255209D01*
X112618848Y-166269386D01*
X112610189Y-166284232D01*
X112602431Y-166299748D01*
X112600045Y-166305069D01*
X112593820Y-166321289D01*
X112588882Y-166338076D01*
X112585752Y-166352498D01*
X112583516Y-166367314D01*
X112582174Y-166382523D01*
X112581727Y-166398126D01*
X112180560Y-166398126D01*
X112180558Y-166397759D01*
X112180906Y-166376018D01*
X112181949Y-166354483D01*
X112183688Y-166333153D01*
X112186122Y-166312030D01*
X112189252Y-166291113D01*
X112193077Y-166270402D01*
X112197598Y-166249897D01*
X112202814Y-166229598D01*
X112208726Y-166209505D01*
X112215334Y-166189619D01*
X112220125Y-166176475D01*
X112227883Y-166157061D01*
X112236182Y-166138110D01*
X112245022Y-166119623D01*
X112254403Y-166101600D01*
X112264325Y-166084040D01*
X112274788Y-166066944D01*
X112285792Y-166050312D01*
X112297336Y-166034143D01*
X112309422Y-166018438D01*
X112322049Y-166003197D01*
X112330767Y-165993293D01*
X112344263Y-165978817D01*
X112358236Y-165964927D01*
X112372685Y-165951623D01*
X112387611Y-165938905D01*
X112403013Y-165926773D01*
X112418892Y-165915228D01*
X112435247Y-165904268D01*
X112452079Y-165893894D01*
X112469388Y-165884106D01*
X112487173Y-165874905D01*
X112499295Y-165869096D01*
X112517888Y-165860977D01*
X112536848Y-165853657D01*
X112556176Y-165847135D01*
X112575871Y-165841412D01*
X112595932Y-165836488D01*
X112616361Y-165832362D01*
X112637157Y-165829035D01*
X112658320Y-165826506D01*
X112679850Y-165824776D01*
X112701747Y-165823844D01*
X112716549Y-165823667D01*
X112741285Y-165824215D01*
G37*
G36*
X114894584Y-166955000D02*
G01*
X114519427Y-166955000D01*
X114519427Y-166828604D01*
X114503980Y-166846749D01*
X114487863Y-166863723D01*
X114471076Y-166879527D01*
X114453619Y-166894160D01*
X114435493Y-166907623D01*
X114416696Y-166919914D01*
X114397230Y-166931036D01*
X114377095Y-166940986D01*
X114356289Y-166949766D01*
X114334814Y-166957375D01*
X114312669Y-166963814D01*
X114289854Y-166969082D01*
X114266370Y-166973179D01*
X114242215Y-166976106D01*
X114217391Y-166977861D01*
X114191898Y-166978447D01*
X114170152Y-166978057D01*
X114148741Y-166976888D01*
X114127665Y-166974940D01*
X114106924Y-166972213D01*
X114086518Y-166968706D01*
X114066446Y-166964420D01*
X114046710Y-166959355D01*
X114027308Y-166953511D01*
X114008242Y-166946888D01*
X113989510Y-166939485D01*
X113977208Y-166934117D01*
X113959083Y-166925505D01*
X113941389Y-166916295D01*
X113924126Y-166906486D01*
X113907296Y-166896078D01*
X113890896Y-166885071D01*
X113874928Y-166873465D01*
X113859392Y-166861260D01*
X113844287Y-166848456D01*
X113829613Y-166835053D01*
X113815371Y-166821052D01*
X113806116Y-166811385D01*
X113792729Y-166796377D01*
X113779910Y-166780893D01*
X113767656Y-166764933D01*
X113755970Y-166748496D01*
X113744850Y-166731582D01*
X113734297Y-166714192D01*
X113724311Y-166696326D01*
X113714891Y-166677982D01*
X113706038Y-166659162D01*
X113697752Y-166639866D01*
X113692543Y-166626737D01*
X113685276Y-166606733D01*
X113678723Y-166586427D01*
X113672885Y-166565818D01*
X113667762Y-166544906D01*
X113663354Y-166523692D01*
X113659660Y-166502175D01*
X113657595Y-166487662D01*
X113655848Y-166473014D01*
X113654418Y-166458232D01*
X113653306Y-166443316D01*
X113652512Y-166428265D01*
X113652036Y-166413079D01*
X113651881Y-166398126D01*
X114053046Y-166398126D01*
X114053493Y-166414213D01*
X114054834Y-166429961D01*
X114057071Y-166445369D01*
X114060201Y-166460436D01*
X114064226Y-166475164D01*
X114069146Y-166489552D01*
X114071364Y-166495212D01*
X114077516Y-166509008D01*
X114084294Y-166522232D01*
X114091698Y-166534883D01*
X114101410Y-166549308D01*
X114112023Y-166562910D01*
X114121556Y-166573614D01*
X114133933Y-166585601D01*
X114147161Y-166596558D01*
X114161239Y-166606484D01*
X114176167Y-166615380D01*
X114189256Y-166622006D01*
X114197393Y-166625638D01*
X114211407Y-166631021D01*
X114225743Y-166635491D01*
X114240402Y-166639049D01*
X114255382Y-166641695D01*
X114270684Y-166643429D01*
X114286308Y-166644250D01*
X114292648Y-166644323D01*
X114307961Y-166643866D01*
X114322987Y-166642498D01*
X114337728Y-166640217D01*
X114352182Y-166637024D01*
X114366350Y-166632918D01*
X114380232Y-166627901D01*
X114385704Y-166625638D01*
X114399148Y-166619441D01*
X114414501Y-166611061D01*
X114429004Y-166601650D01*
X114442656Y-166591208D01*
X114455459Y-166579737D01*
X114461542Y-166573614D01*
X114473056Y-166560739D01*
X114483695Y-166547116D01*
X114493458Y-166532746D01*
X114502346Y-166517629D01*
X114509082Y-166504461D01*
X114512833Y-166496311D01*
X114518427Y-166482421D01*
X114523072Y-166468226D01*
X114526770Y-166453727D01*
X114529519Y-166438924D01*
X114531321Y-166423817D01*
X114532174Y-166408405D01*
X114532250Y-166402156D01*
X114531776Y-166386605D01*
X114530354Y-166371323D01*
X114527984Y-166356308D01*
X114524665Y-166341563D01*
X114520399Y-166327085D01*
X114515184Y-166312876D01*
X114512833Y-166307267D01*
X114506461Y-166293472D01*
X114499480Y-166280248D01*
X114491892Y-166267597D01*
X114481983Y-166253171D01*
X114471198Y-166239570D01*
X114461542Y-166228866D01*
X114449164Y-166216879D01*
X114435936Y-166205922D01*
X114421858Y-166195996D01*
X114406931Y-166187100D01*
X114393841Y-166180474D01*
X114385704Y-166176842D01*
X114371937Y-166171353D01*
X114357884Y-166166795D01*
X114343544Y-166163168D01*
X114328918Y-166160470D01*
X114314006Y-166158702D01*
X114298807Y-166157865D01*
X114292648Y-166157791D01*
X114277326Y-166158256D01*
X114262272Y-166159651D01*
X114247487Y-166161977D01*
X114232970Y-166165233D01*
X114218722Y-166169419D01*
X114204742Y-166174535D01*
X114199225Y-166176842D01*
X114185887Y-166183038D01*
X114170637Y-166191419D01*
X114156211Y-166200830D01*
X114142610Y-166211271D01*
X114129833Y-166222743D01*
X114123754Y-166228866D01*
X114112239Y-166241703D01*
X114101600Y-166255209D01*
X114091837Y-166269386D01*
X114082950Y-166284232D01*
X114074939Y-166299748D01*
X114072463Y-166305069D01*
X114065864Y-166321289D01*
X114060630Y-166338076D01*
X114057312Y-166352498D01*
X114054942Y-166367314D01*
X114053520Y-166382523D01*
X114053046Y-166398126D01*
X113651881Y-166398126D01*
X113651877Y-166397759D01*
X113652215Y-166376018D01*
X113653229Y-166354483D01*
X113654920Y-166333153D01*
X113657286Y-166312030D01*
X113660329Y-166291113D01*
X113664048Y-166270402D01*
X113668444Y-166249897D01*
X113673515Y-166229598D01*
X113679263Y-166209505D01*
X113685687Y-166189619D01*
X113690345Y-166176475D01*
X113697907Y-166157061D01*
X113706028Y-166138110D01*
X113714711Y-166119623D01*
X113723953Y-166101600D01*
X113733756Y-166084040D01*
X113744119Y-166066944D01*
X113755042Y-166050312D01*
X113766526Y-166034143D01*
X113778570Y-166018438D01*
X113791174Y-166003197D01*
X113799888Y-165993293D01*
X113813459Y-165978817D01*
X113827520Y-165964927D01*
X113842070Y-165951623D01*
X113857109Y-165938905D01*
X113872638Y-165926773D01*
X113888657Y-165915228D01*
X113905165Y-165904268D01*
X113922162Y-165893894D01*
X113939649Y-165884106D01*
X113957625Y-165874905D01*
X113969881Y-165869096D01*
X113988605Y-165860977D01*
X114007684Y-165853657D01*
X114027116Y-165847135D01*
X114046903Y-165841412D01*
X114067044Y-165836488D01*
X114087540Y-165832362D01*
X114108389Y-165829035D01*
X114129593Y-165826506D01*
X114151151Y-165824776D01*
X114173063Y-165823844D01*
X114187868Y-165823667D01*
X114212604Y-165824228D01*
X114236806Y-165825911D01*
X114260472Y-165828716D01*
X114283603Y-165832643D01*
X114306199Y-165837692D01*
X114328260Y-165843862D01*
X114349785Y-165851155D01*
X114370775Y-165859570D01*
X114391230Y-165869107D01*
X114411149Y-165879766D01*
X114430534Y-165891547D01*
X114449383Y-165904450D01*
X114467697Y-165918475D01*
X114485476Y-165933622D01*
X114502719Y-165949891D01*
X114519427Y-165967281D01*
X114519427Y-165196451D01*
X114894584Y-165196451D01*
X114894584Y-166955000D01*
G37*
G36*
X115738398Y-165829692D02*
G01*
X115755117Y-165830181D01*
X115771623Y-165830997D01*
X115787918Y-165832139D01*
X115804001Y-165833607D01*
X115819872Y-165835402D01*
X115835531Y-165837523D01*
X115850978Y-165839970D01*
X115866214Y-165842743D01*
X115881238Y-165845843D01*
X115896050Y-165849269D01*
X115910650Y-165853022D01*
X115925038Y-165857100D01*
X115939215Y-165861505D01*
X115953180Y-165866236D01*
X115966933Y-165871294D01*
X115987107Y-165879457D01*
X116006689Y-165888283D01*
X116025678Y-165897772D01*
X116044075Y-165907925D01*
X116061880Y-165918741D01*
X116079091Y-165930220D01*
X116095711Y-165942363D01*
X116111738Y-165955169D01*
X116127173Y-165968638D01*
X116142015Y-165982770D01*
X116151580Y-165992561D01*
X116165484Y-166007714D01*
X116178757Y-166023498D01*
X116191399Y-166039914D01*
X116203409Y-166056961D01*
X116214789Y-166074638D01*
X116225537Y-166092947D01*
X116235654Y-166111887D01*
X116245140Y-166131458D01*
X116251114Y-166144856D01*
X116256807Y-166158535D01*
X116262219Y-166172494D01*
X116267351Y-166186734D01*
X116272187Y-166201181D01*
X116276711Y-166215854D01*
X116280922Y-166230753D01*
X116284822Y-166245879D01*
X116288410Y-166261230D01*
X116291686Y-166276808D01*
X116294650Y-166292611D01*
X116297301Y-166308641D01*
X116299641Y-166324897D01*
X116301669Y-166341379D01*
X116303385Y-166358088D01*
X116304789Y-166375022D01*
X116305881Y-166392182D01*
X116306661Y-166409569D01*
X116307129Y-166427182D01*
X116307285Y-166445020D01*
X116307285Y-166486053D01*
X115498353Y-166486053D01*
X115499264Y-166514446D01*
X115501999Y-166541008D01*
X115506557Y-166565737D01*
X115512938Y-166588635D01*
X115521143Y-166609701D01*
X115531171Y-166628935D01*
X115543022Y-166646338D01*
X115556696Y-166661908D01*
X115572194Y-166675647D01*
X115589514Y-166687554D01*
X115608658Y-166697629D01*
X115629626Y-166705872D01*
X115652416Y-166712283D01*
X115677030Y-166716863D01*
X115703467Y-166719610D01*
X115731727Y-166720526D01*
X115747148Y-166720150D01*
X115762089Y-166719021D01*
X115783599Y-166715916D01*
X115804026Y-166711117D01*
X115823372Y-166704624D01*
X115841636Y-166696438D01*
X115858818Y-166686558D01*
X115874918Y-166674984D01*
X115889936Y-166661717D01*
X115903872Y-166646755D01*
X115916726Y-166630101D01*
X115920771Y-166624173D01*
X116292264Y-166624173D01*
X116284999Y-166647411D01*
X116277081Y-166669912D01*
X116268510Y-166691676D01*
X116259285Y-166712701D01*
X116249408Y-166732989D01*
X116238876Y-166752539D01*
X116227692Y-166771351D01*
X116215854Y-166789426D01*
X116203363Y-166806763D01*
X116190219Y-166823362D01*
X116176421Y-166839223D01*
X116161970Y-166854347D01*
X116146866Y-166868733D01*
X116131108Y-166882381D01*
X116114697Y-166895291D01*
X116097633Y-166907464D01*
X116079915Y-166918899D01*
X116061545Y-166929596D01*
X116042521Y-166939555D01*
X116022843Y-166948777D01*
X116002512Y-166957261D01*
X115981528Y-166965007D01*
X115959891Y-166972016D01*
X115937600Y-166978287D01*
X115914657Y-166983820D01*
X115891059Y-166988615D01*
X115866809Y-166992672D01*
X115841905Y-166995992D01*
X115816348Y-166998574D01*
X115790137Y-167000419D01*
X115763274Y-167001525D01*
X115735757Y-167001894D01*
X115718854Y-167001731D01*
X115702126Y-167001242D01*
X115685572Y-167000426D01*
X115669193Y-166999284D01*
X115652988Y-166997815D01*
X115636959Y-166996021D01*
X115621103Y-166993900D01*
X115605423Y-166991453D01*
X115589916Y-166988679D01*
X115574585Y-166985579D01*
X115559428Y-166982153D01*
X115544446Y-166978401D01*
X115529638Y-166974322D01*
X115515005Y-166969917D01*
X115500546Y-166965186D01*
X115486263Y-166960129D01*
X115472238Y-166954816D01*
X115458465Y-166949229D01*
X115444944Y-166943367D01*
X115425134Y-166934059D01*
X115405891Y-166924133D01*
X115387215Y-166913589D01*
X115369106Y-166902426D01*
X115351564Y-166890645D01*
X115334588Y-166878246D01*
X115318179Y-166865229D01*
X115302336Y-166851593D01*
X115292090Y-166842159D01*
X115277234Y-166827542D01*
X115263028Y-166812402D01*
X115249473Y-166796741D01*
X115236568Y-166780559D01*
X115224314Y-166763854D01*
X115212710Y-166746628D01*
X115201757Y-166728881D01*
X115191454Y-166710612D01*
X115181801Y-166691821D01*
X115172799Y-166672508D01*
X115167159Y-166659344D01*
X115159303Y-166639132D01*
X115152219Y-166618475D01*
X115147925Y-166604458D01*
X115143975Y-166590242D01*
X115140369Y-166575830D01*
X115137106Y-166561219D01*
X115134187Y-166546412D01*
X115131611Y-166531407D01*
X115129378Y-166516204D01*
X115127489Y-166500804D01*
X115125943Y-166485206D01*
X115124741Y-166469411D01*
X115123883Y-166453418D01*
X115123367Y-166437228D01*
X115123196Y-166420840D01*
X115123359Y-166403910D01*
X115123848Y-166387192D01*
X115124664Y-166370686D01*
X115125806Y-166354391D01*
X115127274Y-166338308D01*
X115129069Y-166322437D01*
X115131190Y-166306778D01*
X115133637Y-166291331D01*
X115136410Y-166276095D01*
X115136630Y-166275027D01*
X115508977Y-166275027D01*
X115948614Y-166275027D01*
X115944623Y-166259452D01*
X115939929Y-166244463D01*
X115934533Y-166230060D01*
X115928436Y-166216243D01*
X115921636Y-166203012D01*
X115914135Y-166190367D01*
X115903041Y-166174419D01*
X115890699Y-166159512D01*
X115877109Y-166145648D01*
X115869846Y-166139106D01*
X115854608Y-166126999D01*
X115838568Y-166116506D01*
X115821726Y-166107628D01*
X115804084Y-166100363D01*
X115785639Y-166094713D01*
X115771280Y-166091535D01*
X115756471Y-166089265D01*
X115741210Y-166087903D01*
X115725498Y-166087449D01*
X115709093Y-166087880D01*
X115693260Y-166089175D01*
X115678000Y-166091332D01*
X115663314Y-166094353D01*
X115644624Y-166099722D01*
X115626952Y-166106626D01*
X115610300Y-166115064D01*
X115594666Y-166125036D01*
X115580052Y-166136542D01*
X115566599Y-166149445D01*
X115554452Y-166163607D01*
X115543610Y-166179029D01*
X115534073Y-166195710D01*
X115527777Y-166209047D01*
X115522215Y-166223092D01*
X115517387Y-166237846D01*
X115513293Y-166253309D01*
X115509934Y-166269480D01*
X115508977Y-166275027D01*
X115136630Y-166275027D01*
X115139510Y-166261071D01*
X115142936Y-166246259D01*
X115146689Y-166231659D01*
X115150767Y-166217271D01*
X115155172Y-166203094D01*
X115159904Y-166189129D01*
X115164961Y-166175376D01*
X115173173Y-166155127D01*
X115182010Y-166135457D01*
X115191471Y-166116367D01*
X115201557Y-166097856D01*
X115212268Y-166079925D01*
X115223604Y-166062573D01*
X115235564Y-166045801D01*
X115248149Y-166029609D01*
X115261358Y-166013996D01*
X115275192Y-165998963D01*
X115284762Y-165989263D01*
X115299612Y-165975150D01*
X115315035Y-165961661D01*
X115331030Y-165948798D01*
X115347599Y-165936558D01*
X115364742Y-165924944D01*
X115382457Y-165913954D01*
X115400746Y-165903589D01*
X115419607Y-165893848D01*
X115439042Y-165884732D01*
X115459050Y-165876241D01*
X115472707Y-165870928D01*
X115486602Y-165865914D01*
X115500717Y-165861225D01*
X115515052Y-165856858D01*
X115529608Y-165852815D01*
X115544384Y-165849096D01*
X115559381Y-165845700D01*
X115574598Y-165842627D01*
X115590035Y-165839878D01*
X115605693Y-165837453D01*
X115621571Y-165835350D01*
X115637670Y-165833571D01*
X115653989Y-165832116D01*
X115670528Y-165830984D01*
X115687288Y-165830175D01*
X115704268Y-165829690D01*
X115721468Y-165829528D01*
X115738398Y-165829692D01*
G37*
G36*
X116528569Y-165876423D02*
G01*
X116903726Y-165876423D01*
X116903726Y-166051912D01*
X116915511Y-166033770D01*
X116927786Y-166016440D01*
X116940550Y-165999921D01*
X116953803Y-165984214D01*
X116967546Y-165969319D01*
X116981779Y-165955234D01*
X116996501Y-165941962D01*
X117011712Y-165929500D01*
X117027413Y-165917850D01*
X117043603Y-165907012D01*
X117054668Y-165900237D01*
X117071690Y-165890743D01*
X117089234Y-165882183D01*
X117107299Y-165874557D01*
X117125886Y-165867865D01*
X117144994Y-165862107D01*
X117164625Y-165857282D01*
X117184776Y-165853391D01*
X117205450Y-165850434D01*
X117226645Y-165848411D01*
X117248362Y-165847321D01*
X117263129Y-165847114D01*
X117277855Y-165847114D01*
X117292762Y-165847114D01*
X117296102Y-165847114D01*
X117311595Y-165848021D01*
X117326121Y-165850205D01*
X117337501Y-165852609D01*
X117337501Y-166219340D01*
X117323032Y-166212531D01*
X117308337Y-166206391D01*
X117293416Y-166200922D01*
X117278270Y-166196122D01*
X117262899Y-166191992D01*
X117247303Y-166188531D01*
X117231481Y-166185740D01*
X117215433Y-166183620D01*
X117199160Y-166182168D01*
X117182662Y-166181387D01*
X117171538Y-166181238D01*
X117155083Y-166181547D01*
X117139149Y-166182475D01*
X117123736Y-166184020D01*
X117108844Y-166186184D01*
X117087483Y-166190589D01*
X117067293Y-166196385D01*
X117048276Y-166203572D01*
X117030431Y-166212150D01*
X117013758Y-166222119D01*
X116998257Y-166233479D01*
X116983928Y-166246231D01*
X116970771Y-166260373D01*
X116958789Y-166275848D01*
X116947986Y-166292599D01*
X116938361Y-166310624D01*
X116929915Y-166329925D01*
X116922648Y-166350501D01*
X116918457Y-166364926D01*
X116914791Y-166379919D01*
X116911648Y-166395478D01*
X116909029Y-166411603D01*
X116906934Y-166428296D01*
X116905363Y-166445555D01*
X116904315Y-166463381D01*
X116903791Y-166481773D01*
X116903726Y-166491182D01*
X116903726Y-166955000D01*
X116528569Y-166955000D01*
X116528569Y-165876423D01*
G37*
G36*
X118953029Y-165829928D02*
G01*
X118974596Y-165831126D01*
X118995885Y-165833122D01*
X119016898Y-165835917D01*
X119037634Y-165839510D01*
X119058092Y-165843903D01*
X119078274Y-165849093D01*
X119098179Y-165855082D01*
X119117807Y-165861870D01*
X119137158Y-165869456D01*
X119149905Y-165874958D01*
X119168698Y-165883769D01*
X119187021Y-165893166D01*
X119204874Y-165903149D01*
X119222257Y-165913718D01*
X119239169Y-165924873D01*
X119255611Y-165936614D01*
X119271584Y-165948941D01*
X119287086Y-165961855D01*
X119302118Y-165975354D01*
X119316680Y-165989439D01*
X119326127Y-165999155D01*
X119339912Y-166014097D01*
X119353106Y-166029522D01*
X119365707Y-166045430D01*
X119377715Y-166061821D01*
X119389131Y-166078694D01*
X119399955Y-166096051D01*
X119410186Y-166113891D01*
X119419824Y-166132214D01*
X119428870Y-166151020D01*
X119437324Y-166170309D01*
X119442630Y-166183436D01*
X119450094Y-166203421D01*
X119456824Y-166223669D01*
X119462820Y-166244182D01*
X119468081Y-166264958D01*
X119472609Y-166285999D01*
X119476402Y-166307303D01*
X119479461Y-166328872D01*
X119481786Y-166350705D01*
X119482928Y-166365406D01*
X119483743Y-166380225D01*
X119484233Y-166395162D01*
X119484396Y-166410216D01*
X119484233Y-166425261D01*
X119483743Y-166440172D01*
X119482928Y-166454948D01*
X119481786Y-166469590D01*
X119479461Y-166491300D01*
X119476402Y-166512708D01*
X119472609Y-166533813D01*
X119468081Y-166554615D01*
X119462820Y-166575114D01*
X119456824Y-166595311D01*
X119450094Y-166615206D01*
X119442630Y-166634797D01*
X119434581Y-166654018D01*
X119425959Y-166672802D01*
X119416764Y-166691147D01*
X119406996Y-166709055D01*
X119396654Y-166726524D01*
X119385739Y-166743556D01*
X119374252Y-166760150D01*
X119362190Y-166776305D01*
X119349556Y-166792023D01*
X119336349Y-166807303D01*
X119327226Y-166817247D01*
X119313183Y-166831647D01*
X119298671Y-166845449D01*
X119283688Y-166858652D01*
X119268235Y-166871257D01*
X119252312Y-166883262D01*
X119235919Y-166894668D01*
X119219056Y-166905476D01*
X119201723Y-166915684D01*
X119183920Y-166925294D01*
X119165646Y-166934304D01*
X119153203Y-166939979D01*
X119134229Y-166947901D01*
X119114953Y-166955044D01*
X119095375Y-166961408D01*
X119075493Y-166966992D01*
X119055309Y-166971798D01*
X119034823Y-166975824D01*
X119014033Y-166979070D01*
X118992941Y-166981538D01*
X118971546Y-166983226D01*
X118949849Y-166984135D01*
X118935216Y-166984309D01*
X118909838Y-166983756D01*
X118884995Y-166982099D01*
X118860688Y-166979337D01*
X118836916Y-166975470D01*
X118813679Y-166970498D01*
X118790977Y-166964422D01*
X118768811Y-166957241D01*
X118747179Y-166948954D01*
X118726083Y-166939564D01*
X118705523Y-166929068D01*
X118685497Y-166917467D01*
X118666007Y-166904762D01*
X118647052Y-166890952D01*
X118628632Y-166876037D01*
X118610747Y-166860017D01*
X118593398Y-166842892D01*
X118593398Y-167494288D01*
X118218241Y-167494288D01*
X118218241Y-166408018D01*
X118582773Y-166408018D01*
X118583239Y-166423551D01*
X118584634Y-166438779D01*
X118586959Y-166453704D01*
X118590215Y-166468325D01*
X118594401Y-166482641D01*
X118599517Y-166496653D01*
X118601824Y-166502173D01*
X118608259Y-166515626D01*
X118615427Y-166528506D01*
X118624997Y-166543206D01*
X118635623Y-166557082D01*
X118647305Y-166570134D01*
X118655680Y-166578377D01*
X118666728Y-166588148D01*
X118678349Y-166597311D01*
X118690542Y-166605865D01*
X118703307Y-166613811D01*
X118716645Y-166621149D01*
X118730556Y-166627879D01*
X118736280Y-166630401D01*
X118750840Y-166636100D01*
X118765668Y-166640834D01*
X118780764Y-166644601D01*
X118796129Y-166647402D01*
X118811762Y-166649238D01*
X118827664Y-166650107D01*
X118834099Y-166650184D01*
X118849976Y-166649728D01*
X118865548Y-166648360D01*
X118880816Y-166646079D01*
X118895780Y-166642886D01*
X118910440Y-166638780D01*
X118924796Y-166633762D01*
X118930453Y-166631500D01*
X118944355Y-166625303D01*
X118957666Y-166618391D01*
X118970386Y-166610763D01*
X118982517Y-166602420D01*
X118994057Y-166593361D01*
X119005007Y-166583586D01*
X119009221Y-166579476D01*
X119019318Y-166568798D01*
X119030584Y-166555300D01*
X119039263Y-166543481D01*
X119047299Y-166531143D01*
X119054691Y-166518286D01*
X119061438Y-166504911D01*
X119062711Y-166502173D01*
X119068621Y-166488327D01*
X119073530Y-166474267D01*
X119077437Y-166459991D01*
X119080342Y-166445501D01*
X119082245Y-166430797D01*
X119083147Y-166415877D01*
X119083227Y-166409849D01*
X119082780Y-166394395D01*
X119081438Y-166379174D01*
X119079202Y-166364185D01*
X119076071Y-166349428D01*
X119072046Y-166334904D01*
X119067127Y-166320613D01*
X119064909Y-166314961D01*
X119058791Y-166301174D01*
X119051886Y-166287978D01*
X119044193Y-166275371D01*
X119035714Y-166263355D01*
X119026448Y-166251930D01*
X119016394Y-166241094D01*
X119012152Y-166236926D01*
X119001201Y-166226838D01*
X118989641Y-166217412D01*
X118977473Y-166208649D01*
X118964697Y-166200547D01*
X118951312Y-166193107D01*
X118937320Y-166186329D01*
X118931552Y-166183803D01*
X118916948Y-166177998D01*
X118901985Y-166173177D01*
X118886665Y-166169340D01*
X118870988Y-166166486D01*
X118854952Y-166164617D01*
X118838559Y-166163731D01*
X118831901Y-166163653D01*
X118816016Y-166164118D01*
X118800417Y-166165513D01*
X118785104Y-166167839D01*
X118770077Y-166171094D01*
X118755337Y-166175280D01*
X118740882Y-166180397D01*
X118735181Y-166182704D01*
X118721385Y-166188900D01*
X118708162Y-166195813D01*
X118695511Y-166203440D01*
X118683432Y-166211784D01*
X118669693Y-166222740D01*
X118658874Y-166232658D01*
X118656779Y-166234727D01*
X118646674Y-166245432D01*
X118637194Y-166256709D01*
X118628341Y-166268559D01*
X118620114Y-166280981D01*
X118612513Y-166293975D01*
X118605538Y-166307542D01*
X118602923Y-166313129D01*
X118597118Y-166327231D01*
X118592297Y-166341601D01*
X118588460Y-166356240D01*
X118585607Y-166371147D01*
X118583738Y-166386322D01*
X118582852Y-166401765D01*
X118582773Y-166408018D01*
X118218241Y-166408018D01*
X118218241Y-165876423D01*
X118593398Y-165876423D01*
X118593398Y-165993293D01*
X118609229Y-165973462D01*
X118625764Y-165954911D01*
X118643003Y-165937639D01*
X118660946Y-165921646D01*
X118679594Y-165906933D01*
X118698945Y-165893499D01*
X118719001Y-165881345D01*
X118739760Y-165870470D01*
X118761224Y-165860874D01*
X118783392Y-165852558D01*
X118806264Y-165845521D01*
X118829840Y-165839764D01*
X118854121Y-165835286D01*
X118879105Y-165832087D01*
X118904793Y-165830168D01*
X118931186Y-165829528D01*
X118953029Y-165829928D01*
G37*
G36*
X120041270Y-165876423D02*
G01*
X120041270Y-166955000D01*
X119666113Y-166955000D01*
X119666113Y-165876423D01*
X120041270Y-165876423D01*
G37*
G36*
X119642665Y-165454371D02*
G01*
X119643245Y-165438216D01*
X119644984Y-165422446D01*
X119647882Y-165407063D01*
X119651939Y-165392067D01*
X119657155Y-165377456D01*
X119659152Y-165372672D01*
X119665772Y-165358582D01*
X119673268Y-165345161D01*
X119681640Y-165332409D01*
X119690888Y-165320328D01*
X119701012Y-165308916D01*
X119704581Y-165305261D01*
X119715756Y-165294846D01*
X119727576Y-165285306D01*
X119740039Y-165276642D01*
X119753147Y-165268854D01*
X119766899Y-165261941D01*
X119771625Y-165259832D01*
X119786231Y-165254229D01*
X119801198Y-165249786D01*
X119816525Y-165246501D01*
X119832213Y-165244376D01*
X119848261Y-165243410D01*
X119853691Y-165243346D01*
X119869847Y-165243925D01*
X119885616Y-165245664D01*
X119900999Y-165248562D01*
X119915996Y-165252619D01*
X119930606Y-165257836D01*
X119935390Y-165259832D01*
X119949468Y-165266452D01*
X119962850Y-165273948D01*
X119975537Y-165282320D01*
X119987529Y-165291568D01*
X119998824Y-165301692D01*
X120002435Y-165305261D01*
X120012851Y-165316450D01*
X120022390Y-165328308D01*
X120031054Y-165340836D01*
X120038842Y-165354033D01*
X120045755Y-165367901D01*
X120047864Y-165372672D01*
X120053591Y-165387154D01*
X120058134Y-165402021D01*
X120061491Y-165417276D01*
X120063664Y-165432916D01*
X120064651Y-165448943D01*
X120064717Y-165454371D01*
X120064124Y-165470416D01*
X120062347Y-165486125D01*
X120059385Y-165501499D01*
X120055237Y-165516539D01*
X120049905Y-165531244D01*
X120047864Y-165536071D01*
X120041244Y-165550161D01*
X120033748Y-165563582D01*
X120025376Y-165576334D01*
X120016128Y-165588415D01*
X120006004Y-165599827D01*
X120002435Y-165603482D01*
X119991371Y-165613786D01*
X119979612Y-165623265D01*
X119967157Y-165631921D01*
X119954006Y-165639752D01*
X119940160Y-165646758D01*
X119935390Y-165648911D01*
X119920909Y-165654514D01*
X119906041Y-165658957D01*
X119890787Y-165662242D01*
X119875146Y-165664367D01*
X119859119Y-165665333D01*
X119853691Y-165665397D01*
X119837522Y-165664818D01*
X119821714Y-165663079D01*
X119806267Y-165660181D01*
X119791180Y-165656124D01*
X119776454Y-165650907D01*
X119771625Y-165648911D01*
X119757659Y-165642179D01*
X119744337Y-165634623D01*
X119731659Y-165626242D01*
X119719625Y-165617037D01*
X119708234Y-165607008D01*
X119704581Y-165603482D01*
X119694165Y-165592293D01*
X119684625Y-165580435D01*
X119675961Y-165567907D01*
X119668173Y-165554709D01*
X119661261Y-165540842D01*
X119659152Y-165536071D01*
X119653549Y-165521478D01*
X119649105Y-165506550D01*
X119645821Y-165491287D01*
X119643696Y-165475689D01*
X119642730Y-165459757D01*
X119642665Y-165454371D01*
G37*
G36*
X120329965Y-165876423D02*
G01*
X120705122Y-165876423D01*
X120705122Y-166013077D01*
X120714747Y-166001459D01*
X120724390Y-165990328D01*
X120738887Y-165974544D01*
X120753422Y-165959854D01*
X120767995Y-165946259D01*
X120782608Y-165933759D01*
X120797259Y-165922354D01*
X120811948Y-165912043D01*
X120826677Y-165902828D01*
X120841443Y-165894707D01*
X120856249Y-165887681D01*
X120861193Y-165885582D01*
X120876334Y-165879755D01*
X120891946Y-165874501D01*
X120908028Y-165869820D01*
X120924580Y-165865713D01*
X120941602Y-165862178D01*
X120959094Y-165859217D01*
X120977056Y-165856829D01*
X120995488Y-165855014D01*
X121014391Y-165853772D01*
X121033763Y-165853103D01*
X121046939Y-165852976D01*
X121067745Y-165853301D01*
X121087984Y-165854277D01*
X121107656Y-165855903D01*
X121126761Y-165858179D01*
X121145300Y-165861106D01*
X121163272Y-165864684D01*
X121180677Y-165868912D01*
X121197515Y-165873790D01*
X121213787Y-165879319D01*
X121229492Y-165885498D01*
X121239647Y-165889979D01*
X121254547Y-165897118D01*
X121269022Y-165904799D01*
X121283072Y-165913021D01*
X121296697Y-165921784D01*
X121309897Y-165931087D01*
X121322672Y-165940932D01*
X121335021Y-165951317D01*
X121346946Y-165962244D01*
X121358446Y-165973711D01*
X121369520Y-165985720D01*
X121376667Y-165994026D01*
X121387658Y-166007873D01*
X121397733Y-166022122D01*
X121406892Y-166036770D01*
X121415136Y-166051820D01*
X121422463Y-166067270D01*
X121428874Y-166083121D01*
X121434370Y-166099373D01*
X121438949Y-166116025D01*
X121442813Y-166133084D01*
X121446162Y-166150738D01*
X121448996Y-166168988D01*
X121451314Y-166187833D01*
X121453117Y-166207273D01*
X121454132Y-166222244D01*
X121454856Y-166237549D01*
X121455291Y-166253190D01*
X121455436Y-166269166D01*
X121455436Y-166955000D01*
X121080279Y-166955000D01*
X121080279Y-166410582D01*
X121080176Y-166395874D01*
X121079718Y-166377095D01*
X121078893Y-166359267D01*
X121077703Y-166342388D01*
X121076146Y-166326460D01*
X121074222Y-166311482D01*
X121071303Y-166294096D01*
X121068555Y-166281256D01*
X121064568Y-166266283D01*
X121059704Y-166252276D01*
X121052710Y-166236742D01*
X121044454Y-166222600D01*
X121034935Y-166209849D01*
X121027889Y-166202121D01*
X121016531Y-166191905D01*
X121004577Y-166183057D01*
X120990186Y-166174619D01*
X120975016Y-166167967D01*
X120971102Y-166166584D01*
X120955234Y-166161935D01*
X120940861Y-166158958D01*
X120926032Y-166156997D01*
X120910748Y-166156052D01*
X120904057Y-166155959D01*
X120886387Y-166156468D01*
X120869509Y-166157994D01*
X120853423Y-166160538D01*
X120838129Y-166164099D01*
X120823627Y-166168678D01*
X120809918Y-166174274D01*
X120792870Y-166183319D01*
X120777231Y-166194173D01*
X120763000Y-166206835D01*
X120756413Y-166213845D01*
X120744391Y-166229089D01*
X120736427Y-166241536D01*
X120729365Y-166254853D01*
X120723204Y-166269039D01*
X120717944Y-166284095D01*
X120713587Y-166300020D01*
X120710131Y-166316814D01*
X120707576Y-166334478D01*
X120705923Y-166353011D01*
X120705172Y-166372414D01*
X120705122Y-166379075D01*
X120705122Y-166955000D01*
X120329965Y-166955000D01*
X120329965Y-165876423D01*
G37*
G36*
X122427766Y-166142770D02*
G01*
X122414456Y-166136071D01*
X122401176Y-166129804D01*
X122381317Y-166121214D01*
X122361527Y-166113597D01*
X122341809Y-166106952D01*
X122322162Y-166101279D01*
X122302585Y-166096579D01*
X122283080Y-166092851D01*
X122263645Y-166090096D01*
X122244281Y-166088313D01*
X122224988Y-166087503D01*
X122218572Y-166087449D01*
X122202252Y-166087977D01*
X122186952Y-166089560D01*
X122169938Y-166092853D01*
X122154391Y-166097666D01*
X122140314Y-166103998D01*
X122131744Y-166109064D01*
X122118896Y-166119222D01*
X122109204Y-166130783D01*
X122101991Y-166145712D01*
X122099061Y-166160278D01*
X122098771Y-166166950D01*
X122099753Y-166182538D01*
X122103279Y-166196917D01*
X122103900Y-166198457D01*
X122113072Y-166210603D01*
X122125109Y-166219473D01*
X122127348Y-166220806D01*
X122141933Y-166227893D01*
X122156829Y-166233371D01*
X122172307Y-166237996D01*
X122180837Y-166240223D01*
X122197294Y-166244120D01*
X122213102Y-166247795D01*
X122227475Y-166251094D01*
X122242940Y-166254607D01*
X122259496Y-166258335D01*
X122273527Y-166261472D01*
X122293178Y-166265699D01*
X122312196Y-166270322D01*
X122330581Y-166275339D01*
X122348334Y-166280752D01*
X122365454Y-166286559D01*
X122381942Y-166292762D01*
X122397798Y-166299359D01*
X122413020Y-166306352D01*
X122427610Y-166313739D01*
X122441568Y-166321521D01*
X122454893Y-166329699D01*
X122467586Y-166338271D01*
X122479646Y-166347238D01*
X122491073Y-166356601D01*
X122507028Y-166371385D01*
X122512030Y-166376510D01*
X122526172Y-166392372D01*
X122538924Y-166409045D01*
X122550284Y-166426530D01*
X122560253Y-166444826D01*
X122568831Y-166463933D01*
X122576018Y-166483852D01*
X122581814Y-166504583D01*
X122586219Y-166526124D01*
X122588383Y-166540936D01*
X122589928Y-166556109D01*
X122590856Y-166571642D01*
X122591165Y-166587536D01*
X122590830Y-166605501D01*
X122589825Y-166623124D01*
X122588151Y-166640405D01*
X122585807Y-166657346D01*
X122582793Y-166673945D01*
X122579109Y-166690203D01*
X122574756Y-166706119D01*
X122569733Y-166721694D01*
X122564040Y-166736928D01*
X122557677Y-166751820D01*
X122553063Y-166761559D01*
X122545658Y-166775838D01*
X122537732Y-166789685D01*
X122529283Y-166803100D01*
X122520313Y-166816084D01*
X122510822Y-166828637D01*
X122500809Y-166840758D01*
X122490274Y-166852448D01*
X122479218Y-166863706D01*
X122467640Y-166874533D01*
X122455540Y-166884928D01*
X122447184Y-166891618D01*
X122434234Y-166901236D01*
X122420801Y-166910440D01*
X122406885Y-166919233D01*
X122392487Y-166927614D01*
X122377605Y-166935582D01*
X122362240Y-166943138D01*
X122346392Y-166950283D01*
X122330062Y-166957015D01*
X122313248Y-166963334D01*
X122295951Y-166969242D01*
X122284152Y-166972951D01*
X122266189Y-166978124D01*
X122247886Y-166982787D01*
X122229241Y-166986942D01*
X122210255Y-166990588D01*
X122190927Y-166993726D01*
X122171258Y-166996354D01*
X122151248Y-166998474D01*
X122130897Y-167000085D01*
X122110204Y-167001188D01*
X122089170Y-167001781D01*
X122074958Y-167001894D01*
X122047505Y-167001413D01*
X122020100Y-166999971D01*
X121992745Y-166997566D01*
X121965438Y-166994200D01*
X121938179Y-166989873D01*
X121910970Y-166984583D01*
X121883809Y-166978332D01*
X121856696Y-166971120D01*
X121829632Y-166962945D01*
X121802617Y-166953809D01*
X121775651Y-166943711D01*
X121748733Y-166932651D01*
X121735293Y-166926761D01*
X121721864Y-166920630D01*
X121708448Y-166914259D01*
X121695044Y-166907647D01*
X121681652Y-166900795D01*
X121668272Y-166893702D01*
X121654904Y-166886369D01*
X121641549Y-166878796D01*
X121780034Y-166607320D01*
X121800575Y-166621028D01*
X121820981Y-166633853D01*
X121841253Y-166645792D01*
X121861390Y-166656848D01*
X121881393Y-166667019D01*
X121901261Y-166676305D01*
X121920994Y-166684707D01*
X121940594Y-166692225D01*
X121960058Y-166698858D01*
X121979388Y-166704607D01*
X121998584Y-166709471D01*
X122017645Y-166713451D01*
X122036571Y-166716546D01*
X122055363Y-166718758D01*
X122074020Y-166720084D01*
X122092543Y-166720526D01*
X122109004Y-166719954D01*
X122124500Y-166718237D01*
X122139029Y-166715374D01*
X122155189Y-166710428D01*
X122169958Y-166703834D01*
X122181203Y-166697079D01*
X122193031Y-166687711D01*
X122203738Y-166675675D01*
X122211113Y-166662446D01*
X122215158Y-166648026D01*
X122216008Y-166636995D01*
X122215235Y-166621917D01*
X122212380Y-166607191D01*
X122210512Y-166601824D01*
X122202361Y-166588452D01*
X122191287Y-166578396D01*
X122188164Y-166576179D01*
X122174378Y-166568170D01*
X122160200Y-166562068D01*
X122145408Y-166556985D01*
X122137240Y-166554563D01*
X122121529Y-166550343D01*
X122106528Y-166546643D01*
X122090111Y-166542864D01*
X122075347Y-166539657D01*
X122059599Y-166536396D01*
X122049678Y-166534413D01*
X122027435Y-166529653D01*
X122006041Y-166524625D01*
X121985497Y-166519327D01*
X121965804Y-166513760D01*
X121946961Y-166507923D01*
X121928967Y-166501818D01*
X121911824Y-166495444D01*
X121895531Y-166488801D01*
X121880088Y-166481889D01*
X121865495Y-166474707D01*
X121851752Y-166467257D01*
X121838859Y-166459538D01*
X121821113Y-166447454D01*
X121805281Y-166434765D01*
X121795788Y-166425969D01*
X121782890Y-166412088D01*
X121771260Y-166397234D01*
X121760899Y-166381408D01*
X121751807Y-166364609D01*
X121743984Y-166346838D01*
X121737429Y-166328094D01*
X121732143Y-166308378D01*
X121728125Y-166287690D01*
X121725376Y-166266029D01*
X121724249Y-166251048D01*
X121723685Y-166235635D01*
X121723614Y-166227766D01*
X121723911Y-166210620D01*
X121724799Y-166193802D01*
X121726280Y-166177312D01*
X121728354Y-166161151D01*
X121731020Y-166145318D01*
X121734279Y-166129814D01*
X121738130Y-166114638D01*
X121742574Y-166099791D01*
X121747610Y-166085272D01*
X121753238Y-166071081D01*
X121757320Y-166061803D01*
X121763966Y-166048127D01*
X121771127Y-166034850D01*
X121778804Y-166021972D01*
X121786995Y-166009493D01*
X121795702Y-165997414D01*
X121804924Y-165985734D01*
X121814662Y-165974453D01*
X121824914Y-165963572D01*
X121835682Y-165953090D01*
X121846965Y-165943007D01*
X121854773Y-165936507D01*
X121866954Y-165927096D01*
X121879592Y-165918097D01*
X121892688Y-165909510D01*
X121906241Y-165901336D01*
X121920251Y-165893574D01*
X121934719Y-165886223D01*
X121949644Y-165879285D01*
X121965025Y-165872759D01*
X121980865Y-165866646D01*
X121997161Y-165860944D01*
X122008279Y-165857372D01*
X122025355Y-165852396D01*
X122042785Y-165847910D01*
X122060569Y-165843913D01*
X122078707Y-165840405D01*
X122097200Y-165837387D01*
X122116046Y-165834858D01*
X122135247Y-165832819D01*
X122154802Y-165831269D01*
X122174711Y-165830208D01*
X122194975Y-165829637D01*
X122208681Y-165829528D01*
X122231126Y-165829795D01*
X122253492Y-165830593D01*
X122275777Y-165831924D01*
X122297982Y-165833787D01*
X122320107Y-165836183D01*
X122342152Y-165839111D01*
X122364116Y-165842572D01*
X122386001Y-165846564D01*
X122407805Y-165851090D01*
X122429530Y-165856147D01*
X122451174Y-165861737D01*
X122472738Y-165867859D01*
X122494221Y-165874514D01*
X122515625Y-165881701D01*
X122536949Y-165889420D01*
X122558192Y-165897672D01*
X122427766Y-166142770D01*
G37*
G36*
X124121892Y-165829699D02*
G01*
X124139008Y-165830210D01*
X124155964Y-165831061D01*
X124172759Y-165832253D01*
X124189395Y-165833786D01*
X124205870Y-165835659D01*
X124222184Y-165837873D01*
X124238339Y-165840428D01*
X124254333Y-165843323D01*
X124270167Y-165846559D01*
X124285840Y-165850135D01*
X124301353Y-165854052D01*
X124316706Y-165858310D01*
X124331899Y-165862908D01*
X124346931Y-165867846D01*
X124361803Y-165873126D01*
X124376472Y-165878666D01*
X124390895Y-165884477D01*
X124405072Y-165890561D01*
X124419002Y-165896917D01*
X124432686Y-165903544D01*
X124446124Y-165910443D01*
X124459316Y-165917615D01*
X124472262Y-165925058D01*
X124484962Y-165932773D01*
X124497415Y-165940760D01*
X124509623Y-165949019D01*
X124521584Y-165957550D01*
X124539064Y-165970856D01*
X124555991Y-165984774D01*
X124566967Y-165994392D01*
X124582975Y-166009216D01*
X124598300Y-166024562D01*
X124612943Y-166040429D01*
X124626902Y-166056817D01*
X124640179Y-166073728D01*
X124652774Y-166091160D01*
X124664686Y-166109113D01*
X124675915Y-166127589D01*
X124686462Y-166146586D01*
X124696325Y-166166104D01*
X124702522Y-166179406D01*
X124708378Y-166192913D01*
X124713857Y-166206597D01*
X124718957Y-166220459D01*
X124723680Y-166234498D01*
X124728025Y-166248715D01*
X124731992Y-166263109D01*
X124735581Y-166277681D01*
X124738792Y-166292430D01*
X124741626Y-166307356D01*
X124744082Y-166322460D01*
X124746160Y-166337742D01*
X124747860Y-166353200D01*
X124749182Y-166368837D01*
X124750127Y-166384650D01*
X124750693Y-166400642D01*
X124750882Y-166416810D01*
X124750689Y-166432935D01*
X124750109Y-166448884D01*
X124749143Y-166464660D01*
X124747791Y-166480260D01*
X124746052Y-166495686D01*
X124743927Y-166510937D01*
X124741415Y-166526014D01*
X124738517Y-166540916D01*
X124735233Y-166555644D01*
X124731562Y-166570197D01*
X124727505Y-166584575D01*
X124723061Y-166598779D01*
X124718231Y-166612808D01*
X124713015Y-166626663D01*
X124707412Y-166640343D01*
X124701423Y-166653848D01*
X124695098Y-166667152D01*
X124685073Y-166686678D01*
X124674404Y-166705689D01*
X124663091Y-166724184D01*
X124651134Y-166742165D01*
X124638533Y-166759630D01*
X124625288Y-166776580D01*
X124611399Y-166793015D01*
X124596866Y-166808935D01*
X124581689Y-166824339D01*
X124565868Y-166839228D01*
X124549488Y-166853482D01*
X124532496Y-166867118D01*
X124514893Y-166880135D01*
X124502817Y-166888470D01*
X124490469Y-166896530D01*
X124477850Y-166904315D01*
X124464958Y-166911826D01*
X124451795Y-166919061D01*
X124438360Y-166926022D01*
X124424652Y-166932709D01*
X124410673Y-166939120D01*
X124396422Y-166945257D01*
X124381899Y-166951118D01*
X124367105Y-166956705D01*
X124359605Y-166959396D01*
X124344460Y-166964542D01*
X124329157Y-166969356D01*
X124313697Y-166973839D01*
X124298079Y-166977989D01*
X124282304Y-166981807D01*
X124266371Y-166985293D01*
X124250281Y-166988447D01*
X124234034Y-166991270D01*
X124217629Y-166993760D01*
X124201067Y-166995918D01*
X124184347Y-166997744D01*
X124167470Y-166999238D01*
X124150436Y-167000400D01*
X124133244Y-167001230D01*
X124115894Y-167001728D01*
X124098387Y-167001894D01*
X124081158Y-167001728D01*
X124064092Y-167001230D01*
X124047190Y-167000400D01*
X124030450Y-166999238D01*
X124013873Y-166997744D01*
X123997460Y-166995918D01*
X123981210Y-166993760D01*
X123965122Y-166991270D01*
X123949199Y-166988447D01*
X123933438Y-166985293D01*
X123917840Y-166981807D01*
X123902406Y-166977989D01*
X123887134Y-166973839D01*
X123872026Y-166969356D01*
X123857081Y-166964542D01*
X123842299Y-166959396D01*
X123827770Y-166953942D01*
X123813493Y-166948205D01*
X123799469Y-166942184D01*
X123785696Y-166935880D01*
X123772174Y-166929292D01*
X123758905Y-166922422D01*
X123745888Y-166915268D01*
X123733122Y-166907830D01*
X123720609Y-166900109D01*
X123702311Y-166887997D01*
X123684579Y-166875247D01*
X123667414Y-166861859D01*
X123650816Y-166847834D01*
X123640066Y-166838129D01*
X123624451Y-166823028D01*
X123609480Y-166807398D01*
X123595153Y-166791240D01*
X123581470Y-166774554D01*
X123568432Y-166757340D01*
X123556037Y-166739597D01*
X123544286Y-166721327D01*
X123533179Y-166702529D01*
X123522716Y-166683202D01*
X123516099Y-166670025D01*
X123509767Y-166656612D01*
X123506709Y-166649818D01*
X123500897Y-166636029D01*
X123495461Y-166622049D01*
X123490399Y-166607877D01*
X123485712Y-166593512D01*
X123481400Y-166578957D01*
X123477463Y-166564209D01*
X123473901Y-166549270D01*
X123470714Y-166534139D01*
X123467902Y-166518816D01*
X123465465Y-166503301D01*
X123463402Y-166487595D01*
X123461715Y-166471696D01*
X123460403Y-166455606D01*
X123459465Y-166439325D01*
X123458903Y-166422851D01*
X123458785Y-166412414D01*
X123859884Y-166412414D01*
X123860367Y-166429593D01*
X123861816Y-166446324D01*
X123864231Y-166462608D01*
X123867612Y-166478445D01*
X123871959Y-166493835D01*
X123877272Y-166508778D01*
X123879668Y-166514630D01*
X123886155Y-166528769D01*
X123893249Y-166542336D01*
X123900952Y-166555330D01*
X123909263Y-166567752D01*
X123918183Y-166579602D01*
X123927710Y-166590879D01*
X123931692Y-166595230D01*
X123942185Y-166605616D01*
X123953287Y-166615251D01*
X123964997Y-166624135D01*
X123977316Y-166632267D01*
X123990242Y-166639648D01*
X124003777Y-166646277D01*
X124009361Y-166648719D01*
X124023568Y-166654207D01*
X124038026Y-166658765D01*
X124052734Y-166662393D01*
X124067693Y-166665091D01*
X124082902Y-166666858D01*
X124098362Y-166667695D01*
X124104616Y-166667770D01*
X124120272Y-166667305D01*
X124135642Y-166665909D01*
X124150726Y-166663584D01*
X124165524Y-166660328D01*
X124180035Y-166656142D01*
X124194260Y-166651026D01*
X124199870Y-166648719D01*
X124213639Y-166642390D01*
X124226782Y-166635309D01*
X124239299Y-166627478D01*
X124251190Y-166618895D01*
X124264632Y-166607603D01*
X124275146Y-166597367D01*
X124277173Y-166595230D01*
X124287050Y-166584182D01*
X124296300Y-166572561D01*
X124304924Y-166560368D01*
X124312922Y-166547602D01*
X124320294Y-166534264D01*
X124327040Y-166520354D01*
X124329563Y-166514630D01*
X124335368Y-166499920D01*
X124340189Y-166484870D01*
X124344027Y-166469480D01*
X124346880Y-166453750D01*
X124348749Y-166437681D01*
X124349635Y-166421271D01*
X124349713Y-166414612D01*
X124349221Y-166398709D01*
X124347746Y-166383056D01*
X124345286Y-166367654D01*
X124341842Y-166352502D01*
X124337415Y-166337601D01*
X124332003Y-166322950D01*
X124329563Y-166317159D01*
X124323068Y-166303020D01*
X124315946Y-166289453D01*
X124308199Y-166276459D01*
X124299825Y-166264036D01*
X124290825Y-166252187D01*
X124281199Y-166240910D01*
X124277173Y-166236559D01*
X124266785Y-166226173D01*
X124253493Y-166214701D01*
X124239299Y-166204311D01*
X124226782Y-166196479D01*
X124213639Y-166189399D01*
X124199870Y-166183070D01*
X124185760Y-166177476D01*
X124171363Y-166172830D01*
X124156679Y-166169133D01*
X124141710Y-166166383D01*
X124126454Y-166164582D01*
X124110913Y-166163729D01*
X124104616Y-166163653D01*
X124089056Y-166164127D01*
X124073747Y-166165549D01*
X124058688Y-166167919D01*
X124043879Y-166171238D01*
X124029321Y-166175504D01*
X124015014Y-166180719D01*
X124009361Y-166183070D01*
X123995583Y-166189399D01*
X123982413Y-166196479D01*
X123969852Y-166204311D01*
X123957898Y-166212894D01*
X123946553Y-166222229D01*
X123935816Y-166232314D01*
X123931692Y-166236559D01*
X123921921Y-166247581D01*
X123912758Y-166259121D01*
X123904204Y-166271180D01*
X123896257Y-166283757D01*
X123888919Y-166296854D01*
X123882190Y-166310469D01*
X123879668Y-166316060D01*
X123873969Y-166330294D01*
X123869235Y-166344833D01*
X123865468Y-166359675D01*
X123862666Y-166374822D01*
X123860831Y-166390272D01*
X123859962Y-166406027D01*
X123859884Y-166412414D01*
X123458785Y-166412414D01*
X123458715Y-166406186D01*
X123458903Y-166391046D01*
X123459465Y-166376035D01*
X123460403Y-166361153D01*
X123461715Y-166346400D01*
X123463402Y-166331775D01*
X123466636Y-166310080D01*
X123470714Y-166288674D01*
X123475635Y-166267559D01*
X123481400Y-166246733D01*
X123488009Y-166226197D01*
X123495461Y-166205951D01*
X123503756Y-166185994D01*
X123506709Y-166179406D01*
X123516105Y-166159933D01*
X123526158Y-166140942D01*
X123536868Y-166122435D01*
X123548234Y-166104410D01*
X123560258Y-166086869D01*
X123572938Y-166069810D01*
X123586275Y-166053235D01*
X123600269Y-166037143D01*
X123614920Y-166021533D01*
X123630228Y-166006407D01*
X123640799Y-165996591D01*
X123657225Y-165982255D01*
X123674218Y-165968512D01*
X123691778Y-165955362D01*
X123703799Y-165946924D01*
X123716072Y-165938749D01*
X123728597Y-165930838D01*
X123741374Y-165923190D01*
X123754403Y-165915806D01*
X123767684Y-165908685D01*
X123781216Y-165901827D01*
X123795001Y-165895232D01*
X123809037Y-165888901D01*
X123823325Y-165882833D01*
X123837865Y-165877028D01*
X123845230Y-165874225D01*
X123860153Y-165868812D01*
X123875249Y-165863749D01*
X123890516Y-165859035D01*
X123905955Y-165854670D01*
X123921565Y-165850655D01*
X123937348Y-165846988D01*
X123953302Y-165843671D01*
X123969427Y-165840703D01*
X123985725Y-165838084D01*
X124002194Y-165835814D01*
X124018835Y-165833893D01*
X124035648Y-165832322D01*
X124052632Y-165831100D01*
X124069788Y-165830227D01*
X124087116Y-165829703D01*
X124104616Y-165829528D01*
X124121892Y-165829699D01*
G37*
G36*
X124975464Y-165876423D02*
G01*
X125350621Y-165876423D01*
X125350621Y-166013077D01*
X125360246Y-166001459D01*
X125369889Y-165990328D01*
X125384385Y-165974544D01*
X125398921Y-165959854D01*
X125413494Y-165946259D01*
X125428107Y-165933759D01*
X125442758Y-165922354D01*
X125457447Y-165912043D01*
X125472176Y-165902828D01*
X125486942Y-165894707D01*
X125501748Y-165887681D01*
X125506692Y-165885582D01*
X125521833Y-165879755D01*
X125537445Y-165874501D01*
X125553527Y-165869820D01*
X125570078Y-165865713D01*
X125587100Y-165862178D01*
X125604593Y-165859217D01*
X125622555Y-165856829D01*
X125640987Y-165855014D01*
X125659890Y-165853772D01*
X125679262Y-165853103D01*
X125692438Y-165852976D01*
X125713244Y-165853301D01*
X125733483Y-165854277D01*
X125753155Y-165855903D01*
X125772260Y-165858179D01*
X125790799Y-165861106D01*
X125808771Y-165864684D01*
X125826176Y-165868912D01*
X125843014Y-165873790D01*
X125859286Y-165879319D01*
X125874991Y-165885498D01*
X125885146Y-165889979D01*
X125900046Y-165897118D01*
X125914521Y-165904799D01*
X125928571Y-165913021D01*
X125942196Y-165921784D01*
X125955396Y-165931087D01*
X125968170Y-165940932D01*
X125980520Y-165951317D01*
X125992445Y-165962244D01*
X126003945Y-165973711D01*
X126015019Y-165985720D01*
X126022166Y-165994026D01*
X126033157Y-166007873D01*
X126043232Y-166022122D01*
X126052391Y-166036770D01*
X126060635Y-166051820D01*
X126067962Y-166067270D01*
X126074373Y-166083121D01*
X126079869Y-166099373D01*
X126084448Y-166116025D01*
X126088312Y-166133084D01*
X126091661Y-166150738D01*
X126094495Y-166168988D01*
X126096813Y-166187833D01*
X126098616Y-166207273D01*
X126099631Y-166222244D01*
X126100355Y-166237549D01*
X126100790Y-166253190D01*
X126100935Y-166269166D01*
X126100935Y-166955000D01*
X125725778Y-166955000D01*
X125725778Y-166410582D01*
X125725675Y-166395874D01*
X125725217Y-166377095D01*
X125724392Y-166359267D01*
X125723202Y-166342388D01*
X125721645Y-166326460D01*
X125719721Y-166311482D01*
X125716802Y-166294096D01*
X125714054Y-166281256D01*
X125710066Y-166266283D01*
X125705203Y-166252276D01*
X125698209Y-166236742D01*
X125689953Y-166222600D01*
X125680434Y-166209849D01*
X125673387Y-166202121D01*
X125662030Y-166191905D01*
X125650076Y-166183057D01*
X125635685Y-166174619D01*
X125620515Y-166167967D01*
X125616601Y-166166584D01*
X125600733Y-166161935D01*
X125586360Y-166158958D01*
X125571531Y-166156997D01*
X125556246Y-166156052D01*
X125549556Y-166155959D01*
X125531886Y-166156468D01*
X125515008Y-166157994D01*
X125498922Y-166160538D01*
X125483628Y-166164099D01*
X125469126Y-166168678D01*
X125455416Y-166174274D01*
X125438369Y-166183319D01*
X125422730Y-166194173D01*
X125408499Y-166206835D01*
X125401912Y-166213845D01*
X125389890Y-166229089D01*
X125381926Y-166241536D01*
X125374864Y-166254853D01*
X125368703Y-166269039D01*
X125363443Y-166284095D01*
X125359086Y-166300020D01*
X125355629Y-166316814D01*
X125353075Y-166334478D01*
X125351422Y-166353011D01*
X125350671Y-166372414D01*
X125350621Y-166379075D01*
X125350621Y-166955000D01*
X124975464Y-166955000D01*
X124975464Y-165876423D01*
G37*
G36*
X127481395Y-166204685D02*
G01*
X127481395Y-166955000D01*
X127106238Y-166955000D01*
X127106238Y-166204685D01*
X126989002Y-166204685D01*
X126989002Y-165876423D01*
X127106238Y-165876423D01*
X127106238Y-165548161D01*
X127481395Y-165548161D01*
X127481395Y-165876423D01*
X127715868Y-165876423D01*
X127715868Y-166204685D01*
X127481395Y-166204685D01*
G37*
G36*
X127913705Y-165196451D02*
G01*
X128288862Y-165196451D01*
X128288862Y-166013810D01*
X128298488Y-166002148D01*
X128308130Y-165990975D01*
X128322627Y-165975134D01*
X128337162Y-165960393D01*
X128351736Y-165946755D01*
X128366348Y-165934217D01*
X128380999Y-165922781D01*
X128395689Y-165912446D01*
X128410417Y-165903212D01*
X128425184Y-165895079D01*
X128439989Y-165888048D01*
X128444933Y-165885949D01*
X128460075Y-165880056D01*
X128475686Y-165874743D01*
X128491768Y-165870010D01*
X128508320Y-165865856D01*
X128525342Y-165862282D01*
X128542834Y-165859287D01*
X128560796Y-165856872D01*
X128579229Y-165855037D01*
X128598131Y-165853781D01*
X128617504Y-165853105D01*
X128630680Y-165852976D01*
X128655571Y-165853415D01*
X128679687Y-165854733D01*
X128703027Y-165856930D01*
X128725591Y-165860005D01*
X128747380Y-165863960D01*
X128768393Y-165868792D01*
X128788630Y-165874504D01*
X128808092Y-165881094D01*
X128826778Y-165888563D01*
X128844688Y-165896911D01*
X128861823Y-165906137D01*
X128878182Y-165916242D01*
X128893765Y-165927226D01*
X128908573Y-165939089D01*
X128922605Y-165951830D01*
X128935861Y-165965450D01*
X128948372Y-165979817D01*
X128960076Y-165994799D01*
X128970972Y-166010396D01*
X128981062Y-166026610D01*
X128990344Y-166043438D01*
X128998819Y-166060882D01*
X129006487Y-166078941D01*
X129013347Y-166097616D01*
X129019401Y-166116905D01*
X129024647Y-166136811D01*
X129029087Y-166157331D01*
X129032719Y-166178468D01*
X129035544Y-166200219D01*
X129037562Y-166222586D01*
X129038772Y-166245568D01*
X129039176Y-166269166D01*
X129039176Y-166955000D01*
X128664019Y-166955000D01*
X128664019Y-166411681D01*
X128663906Y-166396640D01*
X128663405Y-166377446D01*
X128662504Y-166359236D01*
X128661202Y-166342011D01*
X128659499Y-166325771D01*
X128657395Y-166310515D01*
X128654202Y-166292830D01*
X128651196Y-166279790D01*
X128646892Y-166264563D01*
X128641765Y-166250481D01*
X128634527Y-166235094D01*
X128626103Y-166221355D01*
X128616495Y-166209265D01*
X128609431Y-166202121D01*
X128596551Y-166191731D01*
X128583007Y-166182727D01*
X128568799Y-166175107D01*
X128553927Y-166168873D01*
X128538390Y-166164025D01*
X128522190Y-166160561D01*
X128505326Y-166158484D01*
X128487798Y-166157791D01*
X128470128Y-166158300D01*
X128453249Y-166159826D01*
X128437163Y-166162370D01*
X128421869Y-166165931D01*
X128407368Y-166170510D01*
X128393658Y-166176106D01*
X128376611Y-166185151D01*
X128360971Y-166196004D01*
X128346740Y-166208667D01*
X128340153Y-166215676D01*
X128328132Y-166230835D01*
X128320168Y-166243225D01*
X128313105Y-166256492D01*
X128306944Y-166270634D01*
X128301685Y-166285652D01*
X128297327Y-166301546D01*
X128293871Y-166318316D01*
X128291316Y-166335961D01*
X128289663Y-166354483D01*
X128288912Y-166373880D01*
X128288862Y-166380540D01*
X128288862Y-166955000D01*
X127913705Y-166955000D01*
X127913705Y-165196451D01*
G37*
G36*
X129659064Y-165876423D02*
G01*
X129659064Y-166955000D01*
X129283907Y-166955000D01*
X129283907Y-165876423D01*
X129659064Y-165876423D01*
G37*
G36*
X129260460Y-165454371D02*
G01*
X129261040Y-165438216D01*
X129262778Y-165422446D01*
X129265676Y-165407063D01*
X129269734Y-165392067D01*
X129274950Y-165377456D01*
X129276946Y-165372672D01*
X129283567Y-165358582D01*
X129291063Y-165345161D01*
X129299435Y-165332409D01*
X129308683Y-165320328D01*
X129318806Y-165308916D01*
X129322376Y-165305261D01*
X129333551Y-165294846D01*
X129345371Y-165285306D01*
X129357834Y-165276642D01*
X129370942Y-165268854D01*
X129384693Y-165261941D01*
X129389420Y-165259832D01*
X129404026Y-165254229D01*
X129418993Y-165249786D01*
X129434320Y-165246501D01*
X129450008Y-165244376D01*
X129466056Y-165243410D01*
X129471486Y-165243346D01*
X129487642Y-165243925D01*
X129503411Y-165245664D01*
X129518794Y-165248562D01*
X129533791Y-165252619D01*
X129548401Y-165257836D01*
X129553185Y-165259832D01*
X129567263Y-165266452D01*
X129580645Y-165273948D01*
X129593332Y-165282320D01*
X129605323Y-165291568D01*
X129616619Y-165301692D01*
X129620230Y-165305261D01*
X129630645Y-165316450D01*
X129640185Y-165328308D01*
X129648849Y-165340836D01*
X129656637Y-165354033D01*
X129663549Y-165367901D01*
X129665659Y-165372672D01*
X129671386Y-165387154D01*
X129675929Y-165402021D01*
X129679286Y-165417276D01*
X129681458Y-165432916D01*
X129682446Y-165448943D01*
X129682512Y-165454371D01*
X129681919Y-165470416D01*
X129680142Y-165486125D01*
X129677179Y-165501499D01*
X129673032Y-165516539D01*
X129667700Y-165531244D01*
X129665659Y-165536071D01*
X129659039Y-165550161D01*
X129651542Y-165563582D01*
X129643170Y-165576334D01*
X129633923Y-165588415D01*
X129623799Y-165599827D01*
X129620230Y-165603482D01*
X129609166Y-165613786D01*
X129597406Y-165623265D01*
X129584951Y-165631921D01*
X129571801Y-165639752D01*
X129557955Y-165646758D01*
X129553185Y-165648911D01*
X129538704Y-165654514D01*
X129523836Y-165658957D01*
X129508582Y-165662242D01*
X129492941Y-165664367D01*
X129476914Y-165665333D01*
X129471486Y-165665397D01*
X129455317Y-165664818D01*
X129439509Y-165663079D01*
X129424062Y-165660181D01*
X129408975Y-165656124D01*
X129394249Y-165650907D01*
X129389420Y-165648911D01*
X129375454Y-165642179D01*
X129362132Y-165634623D01*
X129349454Y-165626242D01*
X129337419Y-165617037D01*
X129326029Y-165607008D01*
X129322376Y-165603482D01*
X129311960Y-165592293D01*
X129302420Y-165580435D01*
X129293756Y-165567907D01*
X129285968Y-165554709D01*
X129279056Y-165540842D01*
X129276946Y-165536071D01*
X129271344Y-165521478D01*
X129266900Y-165506550D01*
X129263616Y-165491287D01*
X129261490Y-165475689D01*
X129260524Y-165459757D01*
X129260460Y-165454371D01*
G37*
G36*
X130651912Y-166142770D02*
G01*
X130638601Y-166136071D01*
X130625322Y-166129804D01*
X130605462Y-166121214D01*
X130585673Y-166113597D01*
X130565954Y-166106952D01*
X130546307Y-166101279D01*
X130526731Y-166096579D01*
X130507225Y-166092851D01*
X130487790Y-166090096D01*
X130468426Y-166088313D01*
X130449133Y-166087503D01*
X130442718Y-166087449D01*
X130426398Y-166087977D01*
X130411097Y-166089560D01*
X130394083Y-166092853D01*
X130378537Y-166097666D01*
X130364459Y-166103998D01*
X130355889Y-166109064D01*
X130343041Y-166119222D01*
X130333349Y-166130783D01*
X130326136Y-166145712D01*
X130323206Y-166160278D01*
X130322916Y-166166950D01*
X130323898Y-166182538D01*
X130327424Y-166196917D01*
X130328046Y-166198457D01*
X130337218Y-166210603D01*
X130349255Y-166219473D01*
X130351493Y-166220806D01*
X130366078Y-166227893D01*
X130380974Y-166233371D01*
X130396453Y-166237996D01*
X130404982Y-166240223D01*
X130421439Y-166244120D01*
X130437247Y-166247795D01*
X130451621Y-166251094D01*
X130467085Y-166254607D01*
X130483642Y-166258335D01*
X130497672Y-166261472D01*
X130517323Y-166265699D01*
X130536341Y-166270322D01*
X130554726Y-166275339D01*
X130572479Y-166280752D01*
X130589600Y-166286559D01*
X130606087Y-166292762D01*
X130621943Y-166299359D01*
X130637165Y-166306352D01*
X130651756Y-166313739D01*
X130665713Y-166321521D01*
X130679038Y-166329699D01*
X130691731Y-166338271D01*
X130703791Y-166347238D01*
X130715218Y-166356601D01*
X130731173Y-166371385D01*
X130736175Y-166376510D01*
X130750318Y-166392372D01*
X130763069Y-166409045D01*
X130774429Y-166426530D01*
X130784398Y-166444826D01*
X130792976Y-166463933D01*
X130800163Y-166483852D01*
X130805959Y-166504583D01*
X130810364Y-166526124D01*
X130812528Y-166540936D01*
X130814074Y-166556109D01*
X130815001Y-166571642D01*
X130815310Y-166587536D01*
X130814975Y-166605501D01*
X130813971Y-166623124D01*
X130812296Y-166640405D01*
X130809952Y-166657346D01*
X130806938Y-166673945D01*
X130803254Y-166690203D01*
X130798901Y-166706119D01*
X130793878Y-166721694D01*
X130788185Y-166736928D01*
X130781822Y-166751820D01*
X130777208Y-166761559D01*
X130769803Y-166775838D01*
X130761877Y-166789685D01*
X130753428Y-166803100D01*
X130744459Y-166816084D01*
X130734967Y-166828637D01*
X130724954Y-166840758D01*
X130714419Y-166852448D01*
X130703363Y-166863706D01*
X130691785Y-166874533D01*
X130679685Y-166884928D01*
X130671329Y-166891618D01*
X130658379Y-166901236D01*
X130644946Y-166910440D01*
X130631031Y-166919233D01*
X130616632Y-166927614D01*
X130601750Y-166935582D01*
X130586385Y-166943138D01*
X130570538Y-166950283D01*
X130554207Y-166957015D01*
X130537393Y-166963334D01*
X130520096Y-166969242D01*
X130508297Y-166972951D01*
X130490335Y-166978124D01*
X130472031Y-166982787D01*
X130453386Y-166986942D01*
X130434400Y-166990588D01*
X130415072Y-166993726D01*
X130395404Y-166996354D01*
X130375393Y-166998474D01*
X130355042Y-167000085D01*
X130334349Y-167001188D01*
X130313315Y-167001781D01*
X130299103Y-167001894D01*
X130271650Y-167001413D01*
X130244245Y-166999971D01*
X130216890Y-166997566D01*
X130189583Y-166994200D01*
X130162324Y-166989873D01*
X130135115Y-166984583D01*
X130107954Y-166978332D01*
X130080841Y-166971120D01*
X130053778Y-166962945D01*
X130026762Y-166953809D01*
X129999796Y-166943711D01*
X129972878Y-166932651D01*
X129959438Y-166926761D01*
X129946009Y-166920630D01*
X129932593Y-166914259D01*
X129919189Y-166907647D01*
X129905797Y-166900795D01*
X129892417Y-166893702D01*
X129879049Y-166886369D01*
X129865694Y-166878796D01*
X130004180Y-166607320D01*
X130024720Y-166621028D01*
X130045126Y-166633853D01*
X130065398Y-166645792D01*
X130085535Y-166656848D01*
X130105538Y-166667019D01*
X130125406Y-166676305D01*
X130145140Y-166684707D01*
X130164739Y-166692225D01*
X130184203Y-166698858D01*
X130203533Y-166704607D01*
X130222729Y-166709471D01*
X130241790Y-166713451D01*
X130260716Y-166716546D01*
X130279508Y-166718758D01*
X130298165Y-166720084D01*
X130316688Y-166720526D01*
X130333150Y-166719954D01*
X130348645Y-166718237D01*
X130363174Y-166715374D01*
X130379334Y-166710428D01*
X130394103Y-166703834D01*
X130405348Y-166697079D01*
X130417177Y-166687711D01*
X130427883Y-166675675D01*
X130435259Y-166662446D01*
X130439303Y-166648026D01*
X130440153Y-166636995D01*
X130439380Y-166621917D01*
X130436525Y-166607191D01*
X130434658Y-166601824D01*
X130426506Y-166588452D01*
X130415432Y-166578396D01*
X130412309Y-166576179D01*
X130398523Y-166568170D01*
X130384345Y-166562068D01*
X130369553Y-166556985D01*
X130361385Y-166554563D01*
X130345674Y-166550343D01*
X130330673Y-166546643D01*
X130314256Y-166542864D01*
X130299492Y-166539657D01*
X130283744Y-166536396D01*
X130273824Y-166534413D01*
X130251580Y-166529653D01*
X130230186Y-166524625D01*
X130209643Y-166519327D01*
X130189949Y-166513760D01*
X130171106Y-166507923D01*
X130153112Y-166501818D01*
X130135969Y-166495444D01*
X130119676Y-166488801D01*
X130104233Y-166481889D01*
X130089640Y-166474707D01*
X130075897Y-166467257D01*
X130063004Y-166459538D01*
X130045258Y-166447454D01*
X130029426Y-166434765D01*
X130019933Y-166425969D01*
X130007035Y-166412088D01*
X129995405Y-166397234D01*
X129985045Y-166381408D01*
X129975952Y-166364609D01*
X129968129Y-166346838D01*
X129961574Y-166328094D01*
X129956288Y-166308378D01*
X129952270Y-166287690D01*
X129949521Y-166266029D01*
X129948394Y-166251048D01*
X129947830Y-166235635D01*
X129947759Y-166227766D01*
X129948056Y-166210620D01*
X129948944Y-166193802D01*
X129950426Y-166177312D01*
X129952499Y-166161151D01*
X129955165Y-166145318D01*
X129958424Y-166129814D01*
X129962275Y-166114638D01*
X129966719Y-166099791D01*
X129971755Y-166085272D01*
X129977383Y-166071081D01*
X129981465Y-166061803D01*
X129988111Y-166048127D01*
X129995272Y-166034850D01*
X130002949Y-166021972D01*
X130011140Y-166009493D01*
X130019847Y-165997414D01*
X130029069Y-165985734D01*
X130038807Y-165974453D01*
X130049059Y-165963572D01*
X130059827Y-165953090D01*
X130071110Y-165943007D01*
X130078918Y-165936507D01*
X130091099Y-165927096D01*
X130103738Y-165918097D01*
X130116833Y-165909510D01*
X130130386Y-165901336D01*
X130144397Y-165893574D01*
X130158864Y-165886223D01*
X130173789Y-165879285D01*
X130189171Y-165872759D01*
X130205010Y-165866646D01*
X130221306Y-165860944D01*
X130232424Y-165857372D01*
X130249500Y-165852396D01*
X130266930Y-165847910D01*
X130284714Y-165843913D01*
X130302852Y-165840405D01*
X130321345Y-165837387D01*
X130340191Y-165834858D01*
X130359392Y-165832819D01*
X130378947Y-165831269D01*
X130398857Y-165830208D01*
X130419120Y-165829637D01*
X130432826Y-165829528D01*
X130455271Y-165829795D01*
X130477637Y-165830593D01*
X130499922Y-165831924D01*
X130522127Y-165833787D01*
X130544252Y-165836183D01*
X130566297Y-165839111D01*
X130588262Y-165842572D01*
X130610146Y-165846564D01*
X130631950Y-165851090D01*
X130653675Y-165856147D01*
X130675319Y-165861737D01*
X130696883Y-165867859D01*
X130718367Y-165874514D01*
X130739770Y-165881701D01*
X130761094Y-165889420D01*
X130782337Y-165897672D01*
X130651912Y-166142770D01*
G37*
G36*
X132433907Y-166142770D02*
G01*
X132420597Y-166136071D01*
X132407317Y-166129804D01*
X132387457Y-166121214D01*
X132367668Y-166113597D01*
X132347950Y-166106952D01*
X132328303Y-166101279D01*
X132308726Y-166096579D01*
X132289221Y-166092851D01*
X132269786Y-166090096D01*
X132250422Y-166088313D01*
X132231129Y-166087503D01*
X132224713Y-166087449D01*
X132208393Y-166087977D01*
X132193093Y-166089560D01*
X132176079Y-166092853D01*
X132160532Y-166097666D01*
X132146455Y-166103998D01*
X132137885Y-166109064D01*
X132125037Y-166119222D01*
X132115345Y-166130783D01*
X132108132Y-166145712D01*
X132105202Y-166160278D01*
X132104912Y-166166950D01*
X132105894Y-166182538D01*
X132109420Y-166196917D01*
X132110041Y-166198457D01*
X132119213Y-166210603D01*
X132131250Y-166219473D01*
X132133489Y-166220806D01*
X132148074Y-166227893D01*
X132162970Y-166233371D01*
X132178448Y-166237996D01*
X132186978Y-166240223D01*
X132203435Y-166244120D01*
X132219243Y-166247795D01*
X132233616Y-166251094D01*
X132249081Y-166254607D01*
X132265637Y-166258335D01*
X132279668Y-166261472D01*
X132299319Y-166265699D01*
X132318337Y-166270322D01*
X132336722Y-166275339D01*
X132354475Y-166280752D01*
X132371595Y-166286559D01*
X132388083Y-166292762D01*
X132403939Y-166299359D01*
X132419161Y-166306352D01*
X132433751Y-166313739D01*
X132447709Y-166321521D01*
X132461034Y-166329699D01*
X132473727Y-166338271D01*
X132485787Y-166347238D01*
X132497214Y-166356601D01*
X132513169Y-166371385D01*
X132518171Y-166376510D01*
X132532313Y-166392372D01*
X132545065Y-166409045D01*
X132556425Y-166426530D01*
X132566394Y-166444826D01*
X132574972Y-166463933D01*
X132582159Y-166483852D01*
X132587955Y-166504583D01*
X132592360Y-166526124D01*
X132594524Y-166540936D01*
X132596069Y-166556109D01*
X132596997Y-166571642D01*
X132597306Y-166587536D01*
X132596971Y-166605501D01*
X132595966Y-166623124D01*
X132594292Y-166640405D01*
X132591948Y-166657346D01*
X132588934Y-166673945D01*
X132585250Y-166690203D01*
X132580897Y-166706119D01*
X132575874Y-166721694D01*
X132570181Y-166736928D01*
X132563818Y-166751820D01*
X132559204Y-166761559D01*
X132551799Y-166775838D01*
X132543872Y-166789685D01*
X132535424Y-166803100D01*
X132526454Y-166816084D01*
X132516963Y-166828637D01*
X132506950Y-166840758D01*
X132496415Y-166852448D01*
X132485359Y-166863706D01*
X132473781Y-166874533D01*
X132461681Y-166884928D01*
X132453325Y-166891618D01*
X132440375Y-166901236D01*
X132426942Y-166910440D01*
X132413026Y-166919233D01*
X132398628Y-166927614D01*
X132383746Y-166935582D01*
X132368381Y-166943138D01*
X132352533Y-166950283D01*
X132336203Y-166957015D01*
X132319389Y-166963334D01*
X132302092Y-166969242D01*
X132290293Y-166972951D01*
X132272330Y-166978124D01*
X132254027Y-166982787D01*
X132235382Y-166986942D01*
X132216396Y-166990588D01*
X132197068Y-166993726D01*
X132177399Y-166996354D01*
X132157389Y-166998474D01*
X132137038Y-167000085D01*
X132116345Y-167001188D01*
X132095311Y-167001781D01*
X132081099Y-167001894D01*
X132053646Y-167001413D01*
X132026241Y-166999971D01*
X131998886Y-166997566D01*
X131971579Y-166994200D01*
X131944320Y-166989873D01*
X131917111Y-166984583D01*
X131889949Y-166978332D01*
X131862837Y-166971120D01*
X131835773Y-166962945D01*
X131808758Y-166953809D01*
X131781792Y-166943711D01*
X131754874Y-166932651D01*
X131741433Y-166926761D01*
X131728005Y-166920630D01*
X131714589Y-166914259D01*
X131701185Y-166907647D01*
X131687793Y-166900795D01*
X131674413Y-166893702D01*
X131661045Y-166886369D01*
X131647690Y-166878796D01*
X131786175Y-166607320D01*
X131806716Y-166621028D01*
X131827122Y-166633853D01*
X131847394Y-166645792D01*
X131867531Y-166656848D01*
X131887534Y-166667019D01*
X131907402Y-166676305D01*
X131927135Y-166684707D01*
X131946734Y-166692225D01*
X131966199Y-166698858D01*
X131985529Y-166704607D01*
X132004725Y-166709471D01*
X132023785Y-166713451D01*
X132042712Y-166716546D01*
X132061504Y-166718758D01*
X132080161Y-166720084D01*
X132098684Y-166720526D01*
X132115145Y-166719954D01*
X132130641Y-166718237D01*
X132145170Y-166715374D01*
X132161330Y-166710428D01*
X132176099Y-166703834D01*
X132187344Y-166697079D01*
X132199172Y-166687711D01*
X132209879Y-166675675D01*
X132217254Y-166662446D01*
X132221299Y-166648026D01*
X132222149Y-166636995D01*
X132221376Y-166621917D01*
X132218521Y-166607191D01*
X132216653Y-166601824D01*
X132208502Y-166588452D01*
X132197427Y-166578396D01*
X132194305Y-166576179D01*
X132180519Y-166568170D01*
X132166341Y-166562068D01*
X132151549Y-166556985D01*
X132143381Y-166554563D01*
X132127670Y-166550343D01*
X132112669Y-166546643D01*
X132096252Y-166542864D01*
X132081488Y-166539657D01*
X132065740Y-166536396D01*
X132055819Y-166534413D01*
X132033576Y-166529653D01*
X132012182Y-166524625D01*
X131991638Y-166519327D01*
X131971945Y-166513760D01*
X131953102Y-166507923D01*
X131935108Y-166501818D01*
X131917965Y-166495444D01*
X131901672Y-166488801D01*
X131886229Y-166481889D01*
X131871636Y-166474707D01*
X131857893Y-166467257D01*
X131845000Y-166459538D01*
X131827254Y-166447454D01*
X131811422Y-166434765D01*
X131801929Y-166425969D01*
X131789031Y-166412088D01*
X131777401Y-166397234D01*
X131767040Y-166381408D01*
X131757948Y-166364609D01*
X131750125Y-166346838D01*
X131743570Y-166328094D01*
X131738284Y-166308378D01*
X131734266Y-166287690D01*
X131731517Y-166266029D01*
X131730390Y-166251048D01*
X131729826Y-166235635D01*
X131729755Y-166227766D01*
X131730051Y-166210620D01*
X131730940Y-166193802D01*
X131732421Y-166177312D01*
X131734495Y-166161151D01*
X131737161Y-166145318D01*
X131740420Y-166129814D01*
X131744271Y-166114638D01*
X131748715Y-166099791D01*
X131753751Y-166085272D01*
X131759379Y-166071081D01*
X131763461Y-166061803D01*
X131770107Y-166048127D01*
X131777268Y-166034850D01*
X131784945Y-166021972D01*
X131793136Y-166009493D01*
X131801843Y-165997414D01*
X131811065Y-165985734D01*
X131820803Y-165974453D01*
X131831055Y-165963572D01*
X131841823Y-165953090D01*
X131853106Y-165943007D01*
X131860914Y-165936507D01*
X131873095Y-165927096D01*
X131885733Y-165918097D01*
X131898829Y-165909510D01*
X131912382Y-165901336D01*
X131926392Y-165893574D01*
X131940860Y-165886223D01*
X131955784Y-165879285D01*
X131971166Y-165872759D01*
X131987006Y-165866646D01*
X132003302Y-165860944D01*
X132014420Y-165857372D01*
X132031496Y-165852396D01*
X132048926Y-165847910D01*
X132066710Y-165843913D01*
X132084848Y-165840405D01*
X132103341Y-165837387D01*
X132122187Y-165834858D01*
X132141388Y-165832819D01*
X132160943Y-165831269D01*
X132180852Y-165830208D01*
X132201116Y-165829637D01*
X132214822Y-165829528D01*
X132237267Y-165829795D01*
X132259632Y-165830593D01*
X132281918Y-165831924D01*
X132304123Y-165833787D01*
X132326248Y-165836183D01*
X132348293Y-165839111D01*
X132370257Y-165842572D01*
X132392142Y-165846564D01*
X132413946Y-165851090D01*
X132435671Y-165856147D01*
X132457315Y-165861737D01*
X132478879Y-165867859D01*
X132500362Y-165874514D01*
X132521766Y-165881701D01*
X132543090Y-165889420D01*
X132564333Y-165897672D01*
X132433907Y-166142770D01*
G37*
G36*
X133149783Y-165876423D02*
G01*
X133149783Y-166955000D01*
X132774626Y-166955000D01*
X132774626Y-165876423D01*
X133149783Y-165876423D01*
G37*
G36*
X132751179Y-165454371D02*
G01*
X132751758Y-165438216D01*
X132753497Y-165422446D01*
X132756395Y-165407063D01*
X132760452Y-165392067D01*
X132765669Y-165377456D01*
X132767665Y-165372672D01*
X132774286Y-165358582D01*
X132781782Y-165345161D01*
X132790154Y-165332409D01*
X132799402Y-165320328D01*
X132809525Y-165308916D01*
X132813094Y-165305261D01*
X132824270Y-165294846D01*
X132836089Y-165285306D01*
X132848553Y-165276642D01*
X132861661Y-165268854D01*
X132875412Y-165261941D01*
X132880139Y-165259832D01*
X132894745Y-165254229D01*
X132909712Y-165249786D01*
X132925039Y-165246501D01*
X132940727Y-165244376D01*
X132956775Y-165243410D01*
X132962205Y-165243346D01*
X132978360Y-165243925D01*
X132994130Y-165245664D01*
X133009513Y-165248562D01*
X133024509Y-165252619D01*
X133039120Y-165257836D01*
X133043904Y-165259832D01*
X133057982Y-165266452D01*
X133071364Y-165273948D01*
X133084051Y-165282320D01*
X133096042Y-165291568D01*
X133107338Y-165301692D01*
X133110949Y-165305261D01*
X133121364Y-165316450D01*
X133130904Y-165328308D01*
X133139568Y-165340836D01*
X133147356Y-165354033D01*
X133154268Y-165367901D01*
X133156378Y-165372672D01*
X133162105Y-165387154D01*
X133166647Y-165402021D01*
X133170005Y-165417276D01*
X133172177Y-165432916D01*
X133173165Y-165448943D01*
X133173230Y-165454371D01*
X133172638Y-165470416D01*
X133170861Y-165486125D01*
X133167898Y-165501499D01*
X133163751Y-165516539D01*
X133158418Y-165531244D01*
X133156378Y-165536071D01*
X133149757Y-165550161D01*
X133142261Y-165563582D01*
X133133889Y-165576334D01*
X133124641Y-165588415D01*
X133114518Y-165599827D01*
X133110949Y-165603482D01*
X133099885Y-165613786D01*
X133088125Y-165623265D01*
X133075670Y-165631921D01*
X133062520Y-165639752D01*
X133048674Y-165646758D01*
X133043904Y-165648911D01*
X133029422Y-165654514D01*
X133014555Y-165658957D01*
X132999300Y-165662242D01*
X132983660Y-165664367D01*
X132967633Y-165665333D01*
X132962205Y-165665397D01*
X132946036Y-165664818D01*
X132930228Y-165663079D01*
X132914781Y-165660181D01*
X132899694Y-165656124D01*
X132884968Y-165650907D01*
X132880139Y-165648911D01*
X132866173Y-165642179D01*
X132852851Y-165634623D01*
X132840172Y-165626242D01*
X132828138Y-165617037D01*
X132816748Y-165607008D01*
X132813094Y-165603482D01*
X132802679Y-165592293D01*
X132793139Y-165580435D01*
X132784475Y-165567907D01*
X132776687Y-165554709D01*
X132769775Y-165540842D01*
X132767665Y-165536071D01*
X132762062Y-165521478D01*
X132757619Y-165506550D01*
X132754334Y-165491287D01*
X132752209Y-165475689D01*
X132751243Y-165459757D01*
X132751179Y-165454371D01*
G37*
G36*
X134634291Y-166955000D02*
G01*
X134259134Y-166955000D01*
X134259134Y-166828604D01*
X134243687Y-166846749D01*
X134227570Y-166863723D01*
X134210783Y-166879527D01*
X134193326Y-166894160D01*
X134175200Y-166907623D01*
X134156403Y-166919914D01*
X134136937Y-166931036D01*
X134116802Y-166940986D01*
X134095996Y-166949766D01*
X134074521Y-166957375D01*
X134052376Y-166963814D01*
X134029561Y-166969082D01*
X134006077Y-166973179D01*
X133981922Y-166976106D01*
X133957098Y-166977861D01*
X133931605Y-166978447D01*
X133909859Y-166978057D01*
X133888448Y-166976888D01*
X133867372Y-166974940D01*
X133846631Y-166972213D01*
X133826225Y-166968706D01*
X133806153Y-166964420D01*
X133786417Y-166959355D01*
X133767015Y-166953511D01*
X133747949Y-166946888D01*
X133729217Y-166939485D01*
X133716915Y-166934117D01*
X133698790Y-166925505D01*
X133681096Y-166916295D01*
X133663833Y-166906486D01*
X133647002Y-166896078D01*
X133630603Y-166885071D01*
X133614635Y-166873465D01*
X133599099Y-166861260D01*
X133583994Y-166848456D01*
X133569320Y-166835053D01*
X133555078Y-166821052D01*
X133545823Y-166811385D01*
X133532436Y-166796377D01*
X133519616Y-166780893D01*
X133507363Y-166764933D01*
X133495677Y-166748496D01*
X133484557Y-166731582D01*
X133474004Y-166714192D01*
X133464018Y-166696326D01*
X133454598Y-166677982D01*
X133445745Y-166659162D01*
X133437459Y-166639866D01*
X133432250Y-166626737D01*
X133424982Y-166606733D01*
X133418430Y-166586427D01*
X133412592Y-166565818D01*
X133407469Y-166544906D01*
X133403061Y-166523692D01*
X133399367Y-166502175D01*
X133397302Y-166487662D01*
X133395555Y-166473014D01*
X133394125Y-166458232D01*
X133393013Y-166443316D01*
X133392219Y-166428265D01*
X133391742Y-166413079D01*
X133391588Y-166398126D01*
X133792752Y-166398126D01*
X133793200Y-166414213D01*
X133794541Y-166429961D01*
X133796777Y-166445369D01*
X133799908Y-166460436D01*
X133803933Y-166475164D01*
X133808852Y-166489552D01*
X133811071Y-166495212D01*
X133817223Y-166509008D01*
X133824001Y-166522232D01*
X133831405Y-166534883D01*
X133841116Y-166549308D01*
X133851730Y-166562910D01*
X133861263Y-166573614D01*
X133873640Y-166585601D01*
X133886868Y-166596558D01*
X133900946Y-166606484D01*
X133915874Y-166615380D01*
X133928963Y-166622006D01*
X133937100Y-166625638D01*
X133951114Y-166631021D01*
X133965450Y-166635491D01*
X133980108Y-166639049D01*
X133995089Y-166641695D01*
X134010391Y-166643429D01*
X134026015Y-166644250D01*
X134032355Y-166644323D01*
X134047668Y-166643866D01*
X134062694Y-166642498D01*
X134077435Y-166640217D01*
X134091889Y-166637024D01*
X134106057Y-166632918D01*
X134119939Y-166627901D01*
X134125411Y-166625638D01*
X134138855Y-166619441D01*
X134154208Y-166611061D01*
X134168711Y-166601650D01*
X134182363Y-166591208D01*
X134195166Y-166579737D01*
X134201249Y-166573614D01*
X134212763Y-166560739D01*
X134223402Y-166547116D01*
X134233165Y-166532746D01*
X134242052Y-166517629D01*
X134248789Y-166504461D01*
X134252540Y-166496311D01*
X134258133Y-166482421D01*
X134262779Y-166468226D01*
X134266477Y-166453727D01*
X134269226Y-166438924D01*
X134271028Y-166423817D01*
X134271881Y-166408405D01*
X134271957Y-166402156D01*
X134271483Y-166386605D01*
X134270061Y-166371323D01*
X134267690Y-166356308D01*
X134264372Y-166341563D01*
X134260106Y-166327085D01*
X134254891Y-166312876D01*
X134252540Y-166307267D01*
X134246168Y-166293472D01*
X134239187Y-166280248D01*
X134231599Y-166267597D01*
X134221690Y-166253171D01*
X134210905Y-166239570D01*
X134201249Y-166228866D01*
X134188871Y-166216879D01*
X134175643Y-166205922D01*
X134161565Y-166195996D01*
X134146637Y-166187100D01*
X134133548Y-166180474D01*
X134125411Y-166176842D01*
X134111644Y-166171353D01*
X134097590Y-166166795D01*
X134083251Y-166163168D01*
X134068625Y-166160470D01*
X134053713Y-166158702D01*
X134038514Y-166157865D01*
X134032355Y-166157791D01*
X134017033Y-166158256D01*
X134001979Y-166159651D01*
X133987194Y-166161977D01*
X133972677Y-166165233D01*
X133958429Y-166169419D01*
X133944449Y-166174535D01*
X133938932Y-166176842D01*
X133925594Y-166183038D01*
X133910344Y-166191419D01*
X133895918Y-166200830D01*
X133882317Y-166211271D01*
X133869540Y-166222743D01*
X133863461Y-166228866D01*
X133851946Y-166241703D01*
X133841307Y-166255209D01*
X133831544Y-166269386D01*
X133822657Y-166284232D01*
X133814646Y-166299748D01*
X133812170Y-166305069D01*
X133805571Y-166321289D01*
X133800337Y-166338076D01*
X133797019Y-166352498D01*
X133794649Y-166367314D01*
X133793227Y-166382523D01*
X133792752Y-166398126D01*
X133391588Y-166398126D01*
X133391584Y-166397759D01*
X133391922Y-166376018D01*
X133392936Y-166354483D01*
X133394626Y-166333153D01*
X133396993Y-166312030D01*
X133400036Y-166291113D01*
X133403755Y-166270402D01*
X133408150Y-166249897D01*
X133413222Y-166229598D01*
X133418970Y-166209505D01*
X133425394Y-166189619D01*
X133430052Y-166176475D01*
X133437613Y-166157061D01*
X133445735Y-166138110D01*
X133454418Y-166119623D01*
X133463660Y-166101600D01*
X133473463Y-166084040D01*
X133483826Y-166066944D01*
X133494749Y-166050312D01*
X133506233Y-166034143D01*
X133518277Y-166018438D01*
X133530881Y-166003197D01*
X133539595Y-165993293D01*
X133553166Y-165978817D01*
X133567227Y-165964927D01*
X133581777Y-165951623D01*
X133596816Y-165938905D01*
X133612345Y-165926773D01*
X133628364Y-165915228D01*
X133644872Y-165904268D01*
X133661869Y-165893894D01*
X133679356Y-165884106D01*
X133697332Y-165874905D01*
X133709588Y-165869096D01*
X133728312Y-165860977D01*
X133747391Y-165853657D01*
X133766823Y-165847135D01*
X133786610Y-165841412D01*
X133806751Y-165836488D01*
X133827247Y-165832362D01*
X133848096Y-165829035D01*
X133869300Y-165826506D01*
X133890858Y-165824776D01*
X133912770Y-165823844D01*
X133927575Y-165823667D01*
X133952311Y-165824228D01*
X133976513Y-165825911D01*
X134000179Y-165828716D01*
X134023310Y-165832643D01*
X134045906Y-165837692D01*
X134067966Y-165843862D01*
X134089492Y-165851155D01*
X134110482Y-165859570D01*
X134130937Y-165869107D01*
X134150856Y-165879766D01*
X134170241Y-165891547D01*
X134189090Y-165904450D01*
X134207404Y-165918475D01*
X134225183Y-165933622D01*
X134242426Y-165949891D01*
X134259134Y-165967281D01*
X134259134Y-165196451D01*
X134634291Y-165196451D01*
X134634291Y-166955000D01*
G37*
G36*
X135478105Y-165829692D02*
G01*
X135494824Y-165830181D01*
X135511330Y-165830997D01*
X135527625Y-165832139D01*
X135543707Y-165833607D01*
X135559579Y-165835402D01*
X135575238Y-165837523D01*
X135590685Y-165839970D01*
X135605921Y-165842743D01*
X135620945Y-165845843D01*
X135635757Y-165849269D01*
X135650357Y-165853022D01*
X135664745Y-165857100D01*
X135678922Y-165861505D01*
X135692886Y-165866236D01*
X135706639Y-165871294D01*
X135726814Y-165879457D01*
X135746396Y-165888283D01*
X135765385Y-165897772D01*
X135783782Y-165907925D01*
X135801586Y-165918741D01*
X135818798Y-165930220D01*
X135835418Y-165942363D01*
X135851445Y-165955169D01*
X135866879Y-165968638D01*
X135881721Y-165982770D01*
X135891287Y-165992561D01*
X135905191Y-166007714D01*
X135918464Y-166023498D01*
X135931106Y-166039914D01*
X135943116Y-166056961D01*
X135954496Y-166074638D01*
X135965244Y-166092947D01*
X135975361Y-166111887D01*
X135984847Y-166131458D01*
X135990821Y-166144856D01*
X135996514Y-166158535D01*
X136001926Y-166172494D01*
X136007058Y-166186734D01*
X136011894Y-166201181D01*
X136016418Y-166215854D01*
X136020629Y-166230753D01*
X136024529Y-166245879D01*
X136028117Y-166261230D01*
X136031393Y-166276808D01*
X136034357Y-166292611D01*
X136037008Y-166308641D01*
X136039348Y-166324897D01*
X136041376Y-166341379D01*
X136043092Y-166358088D01*
X136044496Y-166375022D01*
X136045588Y-166392182D01*
X136046368Y-166409569D01*
X136046836Y-166427182D01*
X136046992Y-166445020D01*
X136046992Y-166486053D01*
X135238060Y-166486053D01*
X135238971Y-166514446D01*
X135241706Y-166541008D01*
X135246264Y-166565737D01*
X135252645Y-166588635D01*
X135260850Y-166609701D01*
X135270878Y-166628935D01*
X135282729Y-166646338D01*
X135296403Y-166661908D01*
X135311901Y-166675647D01*
X135329221Y-166687554D01*
X135348365Y-166697629D01*
X135369332Y-166705872D01*
X135392123Y-166712283D01*
X135416737Y-166716863D01*
X135443173Y-166719610D01*
X135471434Y-166720526D01*
X135486855Y-166720150D01*
X135501796Y-166719021D01*
X135523306Y-166715916D01*
X135543733Y-166711117D01*
X135563079Y-166704624D01*
X135581343Y-166696438D01*
X135598525Y-166686558D01*
X135614625Y-166674984D01*
X135629643Y-166661717D01*
X135643579Y-166646755D01*
X135656433Y-166630101D01*
X135660478Y-166624173D01*
X136031971Y-166624173D01*
X136024706Y-166647411D01*
X136016788Y-166669912D01*
X136008217Y-166691676D01*
X135998992Y-166712701D01*
X135989114Y-166732989D01*
X135978583Y-166752539D01*
X135967399Y-166771351D01*
X135955561Y-166789426D01*
X135943070Y-166806763D01*
X135929926Y-166823362D01*
X135916128Y-166839223D01*
X135901677Y-166854347D01*
X135886573Y-166868733D01*
X135870815Y-166882381D01*
X135854404Y-166895291D01*
X135837340Y-166907464D01*
X135819622Y-166918899D01*
X135801252Y-166929596D01*
X135782227Y-166939555D01*
X135762550Y-166948777D01*
X135742219Y-166957261D01*
X135721235Y-166965007D01*
X135699598Y-166972016D01*
X135677307Y-166978287D01*
X135654363Y-166983820D01*
X135630766Y-166988615D01*
X135606516Y-166992672D01*
X135581612Y-166995992D01*
X135556055Y-166998574D01*
X135529844Y-167000419D01*
X135502981Y-167001525D01*
X135475464Y-167001894D01*
X135458561Y-167001731D01*
X135441832Y-167001242D01*
X135425279Y-167000426D01*
X135408900Y-166999284D01*
X135392695Y-166997815D01*
X135376665Y-166996021D01*
X135360810Y-166993900D01*
X135345129Y-166991453D01*
X135329623Y-166988679D01*
X135314292Y-166985579D01*
X135299135Y-166982153D01*
X135284153Y-166978401D01*
X135269345Y-166974322D01*
X135254712Y-166969917D01*
X135240253Y-166965186D01*
X135225969Y-166960129D01*
X135211945Y-166954816D01*
X135198172Y-166949229D01*
X135184650Y-166943367D01*
X135164841Y-166934059D01*
X135145598Y-166924133D01*
X135126922Y-166913589D01*
X135108813Y-166902426D01*
X135091271Y-166890645D01*
X135074295Y-166878246D01*
X135057886Y-166865229D01*
X135042043Y-166851593D01*
X135031796Y-166842159D01*
X135016940Y-166827542D01*
X135002735Y-166812402D01*
X134989180Y-166796741D01*
X134976275Y-166780559D01*
X134964021Y-166763854D01*
X134952417Y-166746628D01*
X134941464Y-166728881D01*
X134931161Y-166710612D01*
X134921508Y-166691821D01*
X134912506Y-166672508D01*
X134906866Y-166659344D01*
X134899009Y-166639132D01*
X134891925Y-166618475D01*
X134887632Y-166604458D01*
X134883682Y-166590242D01*
X134880076Y-166575830D01*
X134876813Y-166561219D01*
X134873893Y-166546412D01*
X134871317Y-166531407D01*
X134869085Y-166516204D01*
X134867196Y-166500804D01*
X134865650Y-166485206D01*
X134864448Y-166469411D01*
X134863589Y-166453418D01*
X134863074Y-166437228D01*
X134862903Y-166420840D01*
X134863066Y-166403910D01*
X134863555Y-166387192D01*
X134864371Y-166370686D01*
X134865513Y-166354391D01*
X134866981Y-166338308D01*
X134868776Y-166322437D01*
X134870897Y-166306778D01*
X134873344Y-166291331D01*
X134876117Y-166276095D01*
X134876337Y-166275027D01*
X135248684Y-166275027D01*
X135688321Y-166275027D01*
X135684329Y-166259452D01*
X135679636Y-166244463D01*
X135674240Y-166230060D01*
X135668143Y-166216243D01*
X135661343Y-166203012D01*
X135653841Y-166190367D01*
X135642747Y-166174419D01*
X135630406Y-166159512D01*
X135616816Y-166145648D01*
X135609553Y-166139106D01*
X135594314Y-166126999D01*
X135578275Y-166116506D01*
X135561433Y-166107628D01*
X135543790Y-166100363D01*
X135525346Y-166094713D01*
X135510987Y-166091535D01*
X135496177Y-166089265D01*
X135480917Y-166087903D01*
X135465205Y-166087449D01*
X135448799Y-166087880D01*
X135432967Y-166089175D01*
X135417707Y-166091332D01*
X135403021Y-166094353D01*
X135384330Y-166099722D01*
X135366659Y-166106626D01*
X135350007Y-166115064D01*
X135334373Y-166125036D01*
X135319759Y-166136542D01*
X135306306Y-166149445D01*
X135294159Y-166163607D01*
X135283317Y-166179029D01*
X135273780Y-166195710D01*
X135267484Y-166209047D01*
X135261922Y-166223092D01*
X135257094Y-166237846D01*
X135253000Y-166253309D01*
X135249641Y-166269480D01*
X135248684Y-166275027D01*
X134876337Y-166275027D01*
X134879217Y-166261071D01*
X134882643Y-166246259D01*
X134886396Y-166231659D01*
X134890474Y-166217271D01*
X134894879Y-166203094D01*
X134899610Y-166189129D01*
X134904668Y-166175376D01*
X134912880Y-166155127D01*
X134921717Y-166135457D01*
X134931178Y-166116367D01*
X134941264Y-166097856D01*
X134951975Y-166079925D01*
X134963311Y-166062573D01*
X134975271Y-166045801D01*
X134987856Y-166029609D01*
X135001065Y-166013996D01*
X135014899Y-165998963D01*
X135024469Y-165989263D01*
X135039319Y-165975150D01*
X135054741Y-165961661D01*
X135070737Y-165948798D01*
X135087306Y-165936558D01*
X135104449Y-165924944D01*
X135122164Y-165913954D01*
X135140452Y-165903589D01*
X135159314Y-165893848D01*
X135178749Y-165884732D01*
X135198757Y-165876241D01*
X135212414Y-165870928D01*
X135226309Y-165865914D01*
X135240424Y-165861225D01*
X135254759Y-165856858D01*
X135269315Y-165852815D01*
X135284091Y-165849096D01*
X135299088Y-165845700D01*
X135314305Y-165842627D01*
X135329742Y-165839878D01*
X135345400Y-165837453D01*
X135361278Y-165835350D01*
X135377377Y-165833571D01*
X135393696Y-165832116D01*
X135410235Y-165830984D01*
X135426995Y-165830175D01*
X135443975Y-165829690D01*
X135461175Y-165829528D01*
X135478105Y-165829692D01*
G37*
G36*
X136244829Y-166756064D02*
G01*
X136245285Y-166740293D01*
X136246653Y-166724808D01*
X136248934Y-166709610D01*
X136252127Y-166694698D01*
X136256233Y-166680072D01*
X136261251Y-166665732D01*
X136263513Y-166660076D01*
X136269824Y-166646271D01*
X136276851Y-166633021D01*
X136284593Y-166620325D01*
X136293051Y-166608184D01*
X136302225Y-166596598D01*
X136312114Y-166585565D01*
X136316270Y-166581308D01*
X136327080Y-166571036D01*
X136338445Y-166561516D01*
X136350364Y-166552747D01*
X136362838Y-166544729D01*
X136375866Y-166537462D01*
X136389449Y-166530947D01*
X136395038Y-166528551D01*
X136409360Y-166523063D01*
X136423932Y-166518505D01*
X136438755Y-166514877D01*
X136453828Y-166512180D01*
X136469152Y-166510412D01*
X136484726Y-166509575D01*
X136491025Y-166509501D01*
X136506691Y-166509966D01*
X136522088Y-166511361D01*
X136537216Y-166513687D01*
X136552076Y-166516942D01*
X136566668Y-166521128D01*
X136580992Y-166526245D01*
X136586646Y-166528551D01*
X136600451Y-166534766D01*
X136613702Y-166541732D01*
X136626397Y-166549449D01*
X136638538Y-166557918D01*
X136650125Y-166567138D01*
X136661157Y-166577109D01*
X136665415Y-166581308D01*
X136675687Y-166592118D01*
X136685207Y-166603483D01*
X136693976Y-166615402D01*
X136701994Y-166627876D01*
X136709260Y-166640905D01*
X136715775Y-166654488D01*
X136718171Y-166660076D01*
X136723659Y-166674301D01*
X136728218Y-166688813D01*
X136731845Y-166703611D01*
X136734543Y-166718695D01*
X136736310Y-166734065D01*
X136737148Y-166749721D01*
X136737222Y-166756064D01*
X136736757Y-166771632D01*
X136735362Y-166786969D01*
X136733036Y-166802072D01*
X136729780Y-166816943D01*
X136725594Y-166831582D01*
X136720478Y-166845988D01*
X136718171Y-166851685D01*
X136711957Y-166865490D01*
X136704991Y-166878740D01*
X136697273Y-166891436D01*
X136688805Y-166903577D01*
X136679585Y-166915163D01*
X136669614Y-166926196D01*
X136665415Y-166930453D01*
X136654604Y-166940619D01*
X136643240Y-166950052D01*
X136631320Y-166958752D01*
X136618846Y-166966717D01*
X136605818Y-166973950D01*
X136592235Y-166980449D01*
X136586646Y-166982843D01*
X136572430Y-166988331D01*
X136557945Y-166992890D01*
X136543193Y-166996517D01*
X136528171Y-166999215D01*
X136512882Y-167000983D01*
X136497324Y-167001820D01*
X136491025Y-167001894D01*
X136475351Y-167001429D01*
X136459927Y-167000034D01*
X136444754Y-166997708D01*
X136429831Y-166994452D01*
X136415159Y-166990266D01*
X136400737Y-166985150D01*
X136395038Y-166982843D01*
X136381233Y-166976638D01*
X136367983Y-166969698D01*
X136355287Y-166962026D01*
X136343146Y-166953620D01*
X136331559Y-166944480D01*
X136320527Y-166934608D01*
X136316270Y-166930453D01*
X136306094Y-166919643D01*
X136296635Y-166908278D01*
X136287891Y-166896359D01*
X136279862Y-166883885D01*
X136272549Y-166870856D01*
X136265952Y-166857273D01*
X136263513Y-166851685D01*
X136258130Y-166837372D01*
X136253660Y-166822826D01*
X136250102Y-166808048D01*
X136247456Y-166793038D01*
X136245723Y-166777795D01*
X136244902Y-166762319D01*
X136244829Y-166756064D01*
G37*
G36*
X112994131Y-178635000D02*
G01*
X112994131Y-177040582D01*
X113395300Y-177040582D01*
X114166496Y-178015478D01*
X114166496Y-177040582D01*
X114567665Y-177040582D01*
X114567665Y-178635000D01*
X114166496Y-178635000D01*
X113395300Y-177660104D01*
X113395300Y-178635000D01*
X112994131Y-178635000D01*
G37*
G36*
X115757316Y-176993941D02*
G01*
X115780961Y-176994701D01*
X115804371Y-176995967D01*
X115827546Y-176997740D01*
X115850487Y-177000020D01*
X115873193Y-177002807D01*
X115895664Y-177006100D01*
X115917901Y-177009899D01*
X115939903Y-177014205D01*
X115961670Y-177019018D01*
X115983202Y-177024338D01*
X116004500Y-177030164D01*
X116025563Y-177036496D01*
X116046392Y-177043336D01*
X116066985Y-177050682D01*
X116087344Y-177058534D01*
X116107454Y-177066790D01*
X116127209Y-177075438D01*
X116146609Y-177084479D01*
X116165655Y-177093911D01*
X116184345Y-177103736D01*
X116202680Y-177113952D01*
X116220661Y-177124561D01*
X116238286Y-177135562D01*
X116255557Y-177146955D01*
X116272473Y-177158740D01*
X116289033Y-177170918D01*
X116305239Y-177183487D01*
X116321090Y-177196449D01*
X116336586Y-177209802D01*
X116351728Y-177223548D01*
X116366514Y-177237686D01*
X116380921Y-177252129D01*
X116394924Y-177266881D01*
X116408524Y-177281942D01*
X116421720Y-177297312D01*
X116434513Y-177312991D01*
X116446902Y-177328980D01*
X116458888Y-177345277D01*
X116470470Y-177361884D01*
X116481648Y-177378799D01*
X116492423Y-177396024D01*
X116502794Y-177413558D01*
X116512762Y-177431401D01*
X116522326Y-177449553D01*
X116531486Y-177468015D01*
X116540243Y-177486785D01*
X116548597Y-177505865D01*
X116556494Y-177525193D01*
X116563881Y-177544711D01*
X116570759Y-177564417D01*
X116577127Y-177584313D01*
X116582986Y-177604397D01*
X116588336Y-177624670D01*
X116593176Y-177645132D01*
X116597506Y-177665783D01*
X116601328Y-177686623D01*
X116604639Y-177707651D01*
X116607441Y-177728869D01*
X116609734Y-177750276D01*
X116611517Y-177771871D01*
X116612791Y-177793655D01*
X116613555Y-177815629D01*
X116613810Y-177837791D01*
X116613555Y-177859997D01*
X116612791Y-177882012D01*
X116611517Y-177903835D01*
X116609734Y-177925466D01*
X116607441Y-177946906D01*
X116604639Y-177968154D01*
X116601328Y-177989209D01*
X116597506Y-178010074D01*
X116593176Y-178030746D01*
X116588336Y-178051227D01*
X116582986Y-178071516D01*
X116577127Y-178091613D01*
X116570759Y-178111518D01*
X116563881Y-178131231D01*
X116556494Y-178150753D01*
X116548597Y-178170083D01*
X116540243Y-178189120D01*
X116531486Y-178207853D01*
X116522326Y-178226283D01*
X116512762Y-178244409D01*
X116502794Y-178262232D01*
X116492423Y-178279752D01*
X116481648Y-178296968D01*
X116470470Y-178313881D01*
X116458888Y-178330491D01*
X116446902Y-178346797D01*
X116434513Y-178362799D01*
X116421720Y-178378499D01*
X116408524Y-178393895D01*
X116394924Y-178408987D01*
X116380921Y-178423776D01*
X116366514Y-178438262D01*
X116351728Y-178452357D01*
X116336586Y-178466066D01*
X116321090Y-178479388D01*
X116305239Y-178492324D01*
X116289033Y-178504873D01*
X116272473Y-178517036D01*
X116255557Y-178528813D01*
X116238286Y-178540203D01*
X116220661Y-178551207D01*
X116202680Y-178561824D01*
X116184345Y-178572055D01*
X116165655Y-178581900D01*
X116146609Y-178591358D01*
X116127209Y-178600430D01*
X116107454Y-178609115D01*
X116087344Y-178617414D01*
X116066985Y-178625222D01*
X116046392Y-178632527D01*
X116025563Y-178639327D01*
X116004500Y-178645624D01*
X115983202Y-178651417D01*
X115961670Y-178656707D01*
X115939903Y-178661492D01*
X115917901Y-178665774D01*
X115895664Y-178669552D01*
X115873193Y-178672827D01*
X115850487Y-178675597D01*
X115827546Y-178677864D01*
X115804371Y-178679627D01*
X115780961Y-178680887D01*
X115757316Y-178681642D01*
X115733436Y-178681894D01*
X115709338Y-178681642D01*
X115685494Y-178680887D01*
X115661905Y-178679627D01*
X115638571Y-178677864D01*
X115615491Y-178675597D01*
X115592667Y-178672827D01*
X115570097Y-178669552D01*
X115547781Y-178665774D01*
X115525721Y-178661492D01*
X115503915Y-178656707D01*
X115482364Y-178651417D01*
X115461067Y-178645624D01*
X115440026Y-178639327D01*
X115419239Y-178632527D01*
X115398707Y-178625222D01*
X115378429Y-178617414D01*
X115358500Y-178609115D01*
X115338919Y-178600430D01*
X115319688Y-178591358D01*
X115300806Y-178581900D01*
X115282273Y-178572055D01*
X115264089Y-178561824D01*
X115246255Y-178551207D01*
X115228770Y-178540203D01*
X115211633Y-178528813D01*
X115194847Y-178517036D01*
X115178409Y-178504873D01*
X115162320Y-178492324D01*
X115146581Y-178479388D01*
X115131191Y-178466066D01*
X115116150Y-178452357D01*
X115101458Y-178438262D01*
X115087184Y-178423776D01*
X115073305Y-178408987D01*
X115059821Y-178393895D01*
X115046732Y-178378499D01*
X115034038Y-178362799D01*
X115021739Y-178346797D01*
X115009835Y-178330491D01*
X114998326Y-178313881D01*
X114987212Y-178296968D01*
X114976493Y-178279752D01*
X114966169Y-178262232D01*
X114956240Y-178244409D01*
X114946706Y-178226283D01*
X114937567Y-178207853D01*
X114928823Y-178189120D01*
X114920474Y-178170083D01*
X114912577Y-178150753D01*
X114905190Y-178131231D01*
X114898312Y-178111518D01*
X114891943Y-178091613D01*
X114886084Y-178071516D01*
X114880735Y-178051227D01*
X114875895Y-178030746D01*
X114871564Y-178010074D01*
X114867743Y-177989209D01*
X114864432Y-177968154D01*
X114861630Y-177946906D01*
X114859337Y-177925466D01*
X114857554Y-177903835D01*
X114856280Y-177882012D01*
X114855516Y-177859997D01*
X114855265Y-177838157D01*
X115277313Y-177838157D01*
X115277635Y-177856092D01*
X115278601Y-177873762D01*
X115280211Y-177891168D01*
X115282465Y-177908310D01*
X115285363Y-177925188D01*
X115288905Y-177941803D01*
X115293091Y-177958153D01*
X115297921Y-177974239D01*
X115303395Y-177990061D01*
X115309513Y-178005619D01*
X115313949Y-178015844D01*
X115321044Y-178030907D01*
X115328590Y-178045597D01*
X115336586Y-178059913D01*
X115345033Y-178073855D01*
X115353931Y-178087424D01*
X115363280Y-178100620D01*
X115373079Y-178113442D01*
X115383329Y-178125891D01*
X115394031Y-178137966D01*
X115405183Y-178149667D01*
X115412868Y-178157260D01*
X115424726Y-178168226D01*
X115436945Y-178178727D01*
X115449524Y-178188765D01*
X115462464Y-178198339D01*
X115475765Y-178207450D01*
X115489426Y-178216096D01*
X115503448Y-178224279D01*
X115517831Y-178231999D01*
X115532574Y-178239255D01*
X115547678Y-178246047D01*
X115557948Y-178250317D01*
X115573622Y-178256210D01*
X115589457Y-178261523D01*
X115605452Y-178266256D01*
X115621609Y-178270410D01*
X115637927Y-178273984D01*
X115654406Y-178276979D01*
X115671046Y-178279394D01*
X115687847Y-178281229D01*
X115704809Y-178282485D01*
X115721932Y-178283161D01*
X115733436Y-178283290D01*
X115750729Y-178283000D01*
X115767847Y-178282131D01*
X115784792Y-178280682D01*
X115801563Y-178278653D01*
X115818160Y-178276045D01*
X115834583Y-178272857D01*
X115850832Y-178269090D01*
X115866907Y-178264743D01*
X115882809Y-178259816D01*
X115898536Y-178254310D01*
X115908925Y-178250317D01*
X115924279Y-178243834D01*
X115939292Y-178236887D01*
X115953963Y-178229477D01*
X115968293Y-178221603D01*
X115982282Y-178213266D01*
X115995929Y-178204464D01*
X116009235Y-178195199D01*
X116022200Y-178185471D01*
X116034824Y-178175278D01*
X116047106Y-178164622D01*
X116055104Y-178157260D01*
X116066753Y-178145808D01*
X116077932Y-178133982D01*
X116088640Y-178121783D01*
X116098879Y-178109210D01*
X116108647Y-178096263D01*
X116117946Y-178082943D01*
X116126774Y-178069249D01*
X116135132Y-178055182D01*
X116143020Y-178040742D01*
X116150438Y-178025927D01*
X116155122Y-178015844D01*
X116161669Y-178000462D01*
X116167572Y-177984816D01*
X116172832Y-177968906D01*
X116177447Y-177952732D01*
X116181418Y-177936294D01*
X116184746Y-177919592D01*
X116187429Y-177902626D01*
X116189468Y-177885395D01*
X116190864Y-177867901D01*
X116191615Y-177850143D01*
X116191758Y-177838157D01*
X116191436Y-177820157D01*
X116190470Y-177802428D01*
X116188860Y-177784969D01*
X116186606Y-177767781D01*
X116183708Y-177750863D01*
X116180166Y-177734216D01*
X116175980Y-177717839D01*
X116171150Y-177701732D01*
X116165676Y-177685896D01*
X116159558Y-177670331D01*
X116155122Y-177660104D01*
X116148017Y-177645044D01*
X116140443Y-177630364D01*
X116132398Y-177616064D01*
X116123883Y-177602144D01*
X116114898Y-177588604D01*
X116105443Y-177575444D01*
X116095518Y-177562664D01*
X116085123Y-177550264D01*
X116074258Y-177538243D01*
X116062922Y-177526603D01*
X116055104Y-177519054D01*
X116043050Y-177508023D01*
X116030654Y-177497463D01*
X116017916Y-177487372D01*
X116004838Y-177477752D01*
X115991418Y-177468602D01*
X115977657Y-177459922D01*
X115963554Y-177451712D01*
X115949110Y-177443972D01*
X115934325Y-177436702D01*
X115919199Y-177429903D01*
X115908925Y-177425631D01*
X115893313Y-177419673D01*
X115877528Y-177414301D01*
X115861568Y-177409515D01*
X115845435Y-177405315D01*
X115829128Y-177401701D01*
X115812647Y-177398673D01*
X115795992Y-177396231D01*
X115779163Y-177394376D01*
X115762161Y-177393106D01*
X115744984Y-177392422D01*
X115733436Y-177392292D01*
X115716206Y-177392585D01*
X115699137Y-177393464D01*
X115682229Y-177394929D01*
X115665481Y-177396980D01*
X115648895Y-177399617D01*
X115632470Y-177402841D01*
X115616206Y-177406650D01*
X115600103Y-177411045D01*
X115584160Y-177416027D01*
X115568379Y-177421594D01*
X115557948Y-177425631D01*
X115542603Y-177432117D01*
X115527620Y-177439073D01*
X115512997Y-177446500D01*
X115498734Y-177454396D01*
X115484832Y-177462763D01*
X115471291Y-177471600D01*
X115458111Y-177480907D01*
X115445291Y-177490684D01*
X115432832Y-177500931D01*
X115420733Y-177511648D01*
X115412868Y-177519054D01*
X115401415Y-177530441D01*
X115390413Y-177542208D01*
X115379863Y-177554355D01*
X115369763Y-177566882D01*
X115360113Y-177579788D01*
X115350915Y-177593075D01*
X115342167Y-177606742D01*
X115333870Y-177620789D01*
X115326024Y-177635215D01*
X115318629Y-177650022D01*
X115313949Y-177660104D01*
X115307402Y-177675489D01*
X115301499Y-177691145D01*
X115296239Y-177707071D01*
X115291624Y-177723268D01*
X115287653Y-177739735D01*
X115284325Y-177756472D01*
X115281642Y-177773480D01*
X115279603Y-177790759D01*
X115278207Y-177808308D01*
X115277456Y-177826127D01*
X115277313Y-177838157D01*
X114855265Y-177838157D01*
X114855261Y-177837791D01*
X114855516Y-177815629D01*
X114856280Y-177793655D01*
X114857554Y-177771871D01*
X114859337Y-177750276D01*
X114861630Y-177728869D01*
X114864432Y-177707651D01*
X114867743Y-177686623D01*
X114871564Y-177665783D01*
X114875895Y-177645132D01*
X114880735Y-177624670D01*
X114886084Y-177604397D01*
X114891943Y-177584313D01*
X114898312Y-177564417D01*
X114905190Y-177544711D01*
X114912577Y-177525193D01*
X114920474Y-177505865D01*
X114928823Y-177486785D01*
X114937567Y-177468015D01*
X114946706Y-177449553D01*
X114956240Y-177431401D01*
X114966169Y-177413558D01*
X114976493Y-177396024D01*
X114987212Y-177378799D01*
X114998326Y-177361884D01*
X115009835Y-177345277D01*
X115021739Y-177328980D01*
X115034038Y-177312991D01*
X115046732Y-177297312D01*
X115059821Y-177281942D01*
X115073305Y-177266881D01*
X115087184Y-177252129D01*
X115101458Y-177237686D01*
X115116150Y-177223548D01*
X115131191Y-177209802D01*
X115146581Y-177196449D01*
X115162320Y-177183487D01*
X115178409Y-177170918D01*
X115194847Y-177158740D01*
X115211633Y-177146955D01*
X115228770Y-177135562D01*
X115246255Y-177124561D01*
X115264089Y-177113952D01*
X115282273Y-177103736D01*
X115300806Y-177093911D01*
X115319688Y-177084479D01*
X115338919Y-177075438D01*
X115358500Y-177066790D01*
X115378429Y-177058534D01*
X115398707Y-177050682D01*
X115419239Y-177043336D01*
X115440026Y-177036496D01*
X115461067Y-177030164D01*
X115482364Y-177024338D01*
X115503915Y-177019018D01*
X115525721Y-177014205D01*
X115547781Y-177009899D01*
X115570097Y-177006100D01*
X115592667Y-177002807D01*
X115615491Y-177000020D01*
X115638571Y-176997740D01*
X115661905Y-176995967D01*
X115685494Y-176994701D01*
X115709338Y-176993941D01*
X115733436Y-176993688D01*
X115757316Y-176993941D01*
G37*
G36*
X117460844Y-177392292D02*
G01*
X117460844Y-178635000D01*
X117059675Y-178635000D01*
X117059675Y-177392292D01*
X116710530Y-177392292D01*
X116710530Y-177040582D01*
X117789106Y-177040582D01*
X117789106Y-177392292D01*
X117460844Y-177392292D01*
G37*
G36*
X119352307Y-177034856D02*
G01*
X119368477Y-177035264D01*
X119384404Y-177035944D01*
X119400090Y-177036896D01*
X119415534Y-177038119D01*
X119430736Y-177039615D01*
X119445696Y-177041382D01*
X119460414Y-177043422D01*
X119474891Y-177045733D01*
X119503118Y-177051171D01*
X119530378Y-177057697D01*
X119556670Y-177065310D01*
X119581995Y-177074012D01*
X119606352Y-177083800D01*
X119629743Y-177094677D01*
X119652165Y-177106641D01*
X119673620Y-177119693D01*
X119694108Y-177133832D01*
X119713629Y-177149059D01*
X119732181Y-177165374D01*
X119741095Y-177173939D01*
X119758131Y-177191740D01*
X119774068Y-177210432D01*
X119788906Y-177230014D01*
X119802644Y-177250486D01*
X119815284Y-177271848D01*
X119826824Y-177294101D01*
X119837266Y-177317243D01*
X119846608Y-177341276D01*
X119854851Y-177366198D01*
X119861995Y-177392011D01*
X119868040Y-177418714D01*
X119872986Y-177446308D01*
X119876833Y-177474791D01*
X119879581Y-177504165D01*
X119880543Y-177519185D01*
X119881229Y-177534428D01*
X119881642Y-177549894D01*
X119881779Y-177565582D01*
X119881640Y-177581248D01*
X119881224Y-177596692D01*
X119880530Y-177611914D01*
X119879558Y-177626914D01*
X119878309Y-177641692D01*
X119874977Y-177670583D01*
X119870535Y-177698587D01*
X119864982Y-177725704D01*
X119858319Y-177751934D01*
X119850545Y-177777276D01*
X119841661Y-177801730D01*
X119831666Y-177825298D01*
X119820560Y-177847978D01*
X119808344Y-177869771D01*
X119795018Y-177890677D01*
X119780581Y-177910695D01*
X119765033Y-177929826D01*
X119748375Y-177948070D01*
X119739630Y-177956859D01*
X119721419Y-177973673D01*
X119702232Y-177989403D01*
X119682069Y-178004047D01*
X119660930Y-178017607D01*
X119638815Y-178030082D01*
X119615724Y-178041472D01*
X119591657Y-178051778D01*
X119566614Y-178060998D01*
X119540595Y-178069134D01*
X119513600Y-178076185D01*
X119485629Y-178082152D01*
X119456682Y-178087033D01*
X119441842Y-178089067D01*
X119426759Y-178090830D01*
X119411431Y-178092321D01*
X119395860Y-178093542D01*
X119380044Y-178094491D01*
X119363985Y-178095169D01*
X119347681Y-178095576D01*
X119331133Y-178095711D01*
X119087135Y-178095711D01*
X119087135Y-178623276D01*
X118685966Y-178623276D01*
X118685966Y-177368845D01*
X119087135Y-177368845D01*
X119087135Y-177761587D01*
X119227086Y-177761587D01*
X119255257Y-177760820D01*
X119281611Y-177758519D01*
X119306148Y-177754683D01*
X119328867Y-177749314D01*
X119349768Y-177742410D01*
X119368852Y-177733972D01*
X119386118Y-177724000D01*
X119401567Y-177712494D01*
X119415198Y-177699454D01*
X119427012Y-177684880D01*
X119437008Y-177668771D01*
X119445187Y-177651128D01*
X119451549Y-177631951D01*
X119456092Y-177611240D01*
X119458819Y-177588995D01*
X119459727Y-177565216D01*
X119458819Y-177541436D01*
X119456092Y-177519191D01*
X119451549Y-177498480D01*
X119445187Y-177479303D01*
X119437008Y-177461661D01*
X119427012Y-177445552D01*
X119415198Y-177430978D01*
X119401567Y-177417937D01*
X119386118Y-177406431D01*
X119368852Y-177396459D01*
X119349768Y-177388021D01*
X119328867Y-177381118D01*
X119306148Y-177375748D01*
X119281611Y-177371913D01*
X119255257Y-177369612D01*
X119227086Y-177368845D01*
X119087135Y-177368845D01*
X118685966Y-177368845D01*
X118685966Y-177034720D01*
X119335896Y-177034720D01*
X119352307Y-177034856D01*
G37*
G36*
X120940638Y-176993941D02*
G01*
X120964282Y-176994701D01*
X120987692Y-176995967D01*
X121010868Y-176997740D01*
X121033809Y-177000020D01*
X121056515Y-177002807D01*
X121078986Y-177006100D01*
X121101222Y-177009899D01*
X121123224Y-177014205D01*
X121144992Y-177019018D01*
X121166524Y-177024338D01*
X121187822Y-177030164D01*
X121208885Y-177036496D01*
X121229713Y-177043336D01*
X121250307Y-177050682D01*
X121270666Y-177058534D01*
X121290776Y-177066790D01*
X121310531Y-177075438D01*
X121329931Y-177084479D01*
X121348976Y-177093911D01*
X121367667Y-177103736D01*
X121386002Y-177113952D01*
X121403982Y-177124561D01*
X121421608Y-177135562D01*
X121438879Y-177146955D01*
X121455794Y-177158740D01*
X121472355Y-177170918D01*
X121488561Y-177183487D01*
X121504412Y-177196449D01*
X121519908Y-177209802D01*
X121535049Y-177223548D01*
X121549836Y-177237686D01*
X121564242Y-177252129D01*
X121578246Y-177266881D01*
X121591846Y-177281942D01*
X121605042Y-177297312D01*
X121617835Y-177312991D01*
X121630224Y-177328980D01*
X121642209Y-177345277D01*
X121653791Y-177361884D01*
X121664970Y-177378799D01*
X121675745Y-177396024D01*
X121686116Y-177413558D01*
X121696084Y-177431401D01*
X121705648Y-177449553D01*
X121714808Y-177468015D01*
X121723565Y-177486785D01*
X121731919Y-177505865D01*
X121739815Y-177525193D01*
X121747203Y-177544711D01*
X121754081Y-177564417D01*
X121760449Y-177584313D01*
X121766308Y-177604397D01*
X121771658Y-177624670D01*
X121776498Y-177645132D01*
X121780828Y-177665783D01*
X121784649Y-177686623D01*
X121787961Y-177707651D01*
X121790763Y-177728869D01*
X121793056Y-177750276D01*
X121794839Y-177771871D01*
X121796112Y-177793655D01*
X121796877Y-177815629D01*
X121797131Y-177837791D01*
X121796877Y-177859997D01*
X121796112Y-177882012D01*
X121794839Y-177903835D01*
X121793056Y-177925466D01*
X121790763Y-177946906D01*
X121787961Y-177968154D01*
X121784649Y-177989209D01*
X121780828Y-178010074D01*
X121776498Y-178030746D01*
X121771658Y-178051227D01*
X121766308Y-178071516D01*
X121760449Y-178091613D01*
X121754081Y-178111518D01*
X121747203Y-178131231D01*
X121739815Y-178150753D01*
X121731919Y-178170083D01*
X121723565Y-178189120D01*
X121714808Y-178207853D01*
X121705648Y-178226283D01*
X121696084Y-178244409D01*
X121686116Y-178262232D01*
X121675745Y-178279752D01*
X121664970Y-178296968D01*
X121653791Y-178313881D01*
X121642209Y-178330491D01*
X121630224Y-178346797D01*
X121617835Y-178362799D01*
X121605042Y-178378499D01*
X121591846Y-178393895D01*
X121578246Y-178408987D01*
X121564242Y-178423776D01*
X121549836Y-178438262D01*
X121535049Y-178452357D01*
X121519908Y-178466066D01*
X121504412Y-178479388D01*
X121488561Y-178492324D01*
X121472355Y-178504873D01*
X121455794Y-178517036D01*
X121438879Y-178528813D01*
X121421608Y-178540203D01*
X121403982Y-178551207D01*
X121386002Y-178561824D01*
X121367667Y-178572055D01*
X121348976Y-178581900D01*
X121329931Y-178591358D01*
X121310531Y-178600430D01*
X121290776Y-178609115D01*
X121270666Y-178617414D01*
X121250307Y-178625222D01*
X121229713Y-178632527D01*
X121208885Y-178639327D01*
X121187822Y-178645624D01*
X121166524Y-178651417D01*
X121144992Y-178656707D01*
X121123224Y-178661492D01*
X121101222Y-178665774D01*
X121078986Y-178669552D01*
X121056515Y-178672827D01*
X121033809Y-178675597D01*
X121010868Y-178677864D01*
X120987692Y-178679627D01*
X120964282Y-178680887D01*
X120940638Y-178681642D01*
X120916758Y-178681894D01*
X120892660Y-178681642D01*
X120868816Y-178680887D01*
X120845227Y-178679627D01*
X120821893Y-178677864D01*
X120798813Y-178675597D01*
X120775988Y-178672827D01*
X120753418Y-178669552D01*
X120731103Y-178665774D01*
X120709042Y-178661492D01*
X120687237Y-178656707D01*
X120665685Y-178651417D01*
X120644389Y-178645624D01*
X120623347Y-178639327D01*
X120602561Y-178632527D01*
X120582028Y-178625222D01*
X120561751Y-178617414D01*
X120541821Y-178609115D01*
X120522241Y-178600430D01*
X120503010Y-178591358D01*
X120484128Y-178581900D01*
X120465595Y-178572055D01*
X120447411Y-178561824D01*
X120429577Y-178551207D01*
X120412091Y-178540203D01*
X120394955Y-178528813D01*
X120378168Y-178517036D01*
X120361730Y-178504873D01*
X120345642Y-178492324D01*
X120329903Y-178479388D01*
X120314512Y-178466066D01*
X120299471Y-178452357D01*
X120284780Y-178438262D01*
X120270506Y-178423776D01*
X120256627Y-178408987D01*
X120243143Y-178393895D01*
X120230054Y-178378499D01*
X120217360Y-178362799D01*
X120205061Y-178346797D01*
X120193157Y-178330491D01*
X120181648Y-178313881D01*
X120170534Y-178296968D01*
X120159815Y-178279752D01*
X120149491Y-178262232D01*
X120139562Y-178244409D01*
X120130028Y-178226283D01*
X120120889Y-178207853D01*
X120112145Y-178189120D01*
X120103796Y-178170083D01*
X120095899Y-178150753D01*
X120088511Y-178131231D01*
X120081634Y-178111518D01*
X120075265Y-178091613D01*
X120069406Y-178071516D01*
X120064057Y-178051227D01*
X120059217Y-178030746D01*
X120054886Y-178010074D01*
X120051065Y-177989209D01*
X120047753Y-177968154D01*
X120044951Y-177946906D01*
X120042659Y-177925466D01*
X120040876Y-177903835D01*
X120039602Y-177882012D01*
X120038838Y-177859997D01*
X120038587Y-177838157D01*
X120460635Y-177838157D01*
X120460957Y-177856092D01*
X120461923Y-177873762D01*
X120463533Y-177891168D01*
X120465787Y-177908310D01*
X120468685Y-177925188D01*
X120472227Y-177941803D01*
X120476413Y-177958153D01*
X120481243Y-177974239D01*
X120486717Y-177990061D01*
X120492835Y-178005619D01*
X120497271Y-178015844D01*
X120504366Y-178030907D01*
X120511911Y-178045597D01*
X120519908Y-178059913D01*
X120528355Y-178073855D01*
X120537253Y-178087424D01*
X120546601Y-178100620D01*
X120556401Y-178113442D01*
X120566651Y-178125891D01*
X120577352Y-178137966D01*
X120588504Y-178149667D01*
X120596189Y-178157260D01*
X120608047Y-178168226D01*
X120620266Y-178178727D01*
X120632846Y-178188765D01*
X120645786Y-178198339D01*
X120659087Y-178207450D01*
X120672748Y-178216096D01*
X120686770Y-178224279D01*
X120701153Y-178231999D01*
X120715896Y-178239255D01*
X120731000Y-178246047D01*
X120741270Y-178250317D01*
X120756943Y-178256210D01*
X120772778Y-178261523D01*
X120788774Y-178266256D01*
X120804931Y-178270410D01*
X120821249Y-178273984D01*
X120837728Y-178276979D01*
X120854368Y-178279394D01*
X120871169Y-178281229D01*
X120888130Y-178282485D01*
X120905253Y-178283161D01*
X120916758Y-178283290D01*
X120934051Y-178283000D01*
X120951169Y-178282131D01*
X120968114Y-178280682D01*
X120984885Y-178278653D01*
X121001482Y-178276045D01*
X121017905Y-178272857D01*
X121034154Y-178269090D01*
X121050229Y-178264743D01*
X121066131Y-178259816D01*
X121081858Y-178254310D01*
X121092247Y-178250317D01*
X121107601Y-178243834D01*
X121122613Y-178236887D01*
X121137285Y-178229477D01*
X121151615Y-178221603D01*
X121165603Y-178213266D01*
X121179251Y-178204464D01*
X121192557Y-178195199D01*
X121205522Y-178185471D01*
X121218145Y-178175278D01*
X121230427Y-178164622D01*
X121238426Y-178157260D01*
X121250075Y-178145808D01*
X121261254Y-178133982D01*
X121271962Y-178121783D01*
X121282201Y-178109210D01*
X121291969Y-178096263D01*
X121301267Y-178082943D01*
X121310096Y-178069249D01*
X121318454Y-178055182D01*
X121326341Y-178040742D01*
X121333759Y-178025927D01*
X121338443Y-178015844D01*
X121344991Y-178000462D01*
X121350894Y-177984816D01*
X121356153Y-177968906D01*
X121360769Y-177952732D01*
X121364740Y-177936294D01*
X121368067Y-177919592D01*
X121370751Y-177902626D01*
X121372790Y-177885395D01*
X121374185Y-177867901D01*
X121374937Y-177850143D01*
X121375080Y-177838157D01*
X121374758Y-177820157D01*
X121373792Y-177802428D01*
X121372182Y-177784969D01*
X121369928Y-177767781D01*
X121367030Y-177750863D01*
X121363488Y-177734216D01*
X121359302Y-177717839D01*
X121354472Y-177701732D01*
X121348998Y-177685896D01*
X121342880Y-177670331D01*
X121338443Y-177660104D01*
X121331339Y-177645044D01*
X121323764Y-177630364D01*
X121315720Y-177616064D01*
X121307205Y-177602144D01*
X121298220Y-177588604D01*
X121288765Y-177575444D01*
X121278840Y-177562664D01*
X121268445Y-177550264D01*
X121257580Y-177538243D01*
X121246244Y-177526603D01*
X121238426Y-177519054D01*
X121226371Y-177508023D01*
X121213975Y-177497463D01*
X121201238Y-177487372D01*
X121188160Y-177477752D01*
X121174740Y-177468602D01*
X121160978Y-177459922D01*
X121146876Y-177451712D01*
X121132432Y-177443972D01*
X121117647Y-177436702D01*
X121102520Y-177429903D01*
X121092247Y-177425631D01*
X121076635Y-177419673D01*
X121060849Y-177414301D01*
X121044890Y-177409515D01*
X121028757Y-177405315D01*
X121012450Y-177401701D01*
X120995969Y-177398673D01*
X120979314Y-177396231D01*
X120962485Y-177394376D01*
X120945482Y-177393106D01*
X120928306Y-177392422D01*
X120916758Y-177392292D01*
X120899528Y-177392585D01*
X120882459Y-177393464D01*
X120865550Y-177394929D01*
X120848803Y-177396980D01*
X120832217Y-177399617D01*
X120815792Y-177402841D01*
X120799528Y-177406650D01*
X120783424Y-177411045D01*
X120767482Y-177416027D01*
X120751701Y-177421594D01*
X120741270Y-177425631D01*
X120725925Y-177432117D01*
X120710941Y-177439073D01*
X120696318Y-177446500D01*
X120682056Y-177454396D01*
X120668154Y-177462763D01*
X120654613Y-177471600D01*
X120641432Y-177480907D01*
X120628613Y-177490684D01*
X120616153Y-177500931D01*
X120604055Y-177511648D01*
X120596189Y-177519054D01*
X120584737Y-177530441D01*
X120573735Y-177542208D01*
X120563184Y-177554355D01*
X120553084Y-177566882D01*
X120543435Y-177579788D01*
X120534237Y-177593075D01*
X120525489Y-177606742D01*
X120517192Y-177620789D01*
X120509346Y-177635215D01*
X120501951Y-177650022D01*
X120497271Y-177660104D01*
X120490724Y-177675489D01*
X120484820Y-177691145D01*
X120479561Y-177707071D01*
X120474946Y-177723268D01*
X120470974Y-177739735D01*
X120467647Y-177756472D01*
X120464964Y-177773480D01*
X120462924Y-177790759D01*
X120461529Y-177808308D01*
X120460778Y-177826127D01*
X120460635Y-177838157D01*
X120038587Y-177838157D01*
X120038583Y-177837791D01*
X120038838Y-177815629D01*
X120039602Y-177793655D01*
X120040876Y-177771871D01*
X120042659Y-177750276D01*
X120044951Y-177728869D01*
X120047753Y-177707651D01*
X120051065Y-177686623D01*
X120054886Y-177665783D01*
X120059217Y-177645132D01*
X120064057Y-177624670D01*
X120069406Y-177604397D01*
X120075265Y-177584313D01*
X120081634Y-177564417D01*
X120088511Y-177544711D01*
X120095899Y-177525193D01*
X120103796Y-177505865D01*
X120112145Y-177486785D01*
X120120889Y-177468015D01*
X120130028Y-177449553D01*
X120139562Y-177431401D01*
X120149491Y-177413558D01*
X120159815Y-177396024D01*
X120170534Y-177378799D01*
X120181648Y-177361884D01*
X120193157Y-177345277D01*
X120205061Y-177328980D01*
X120217360Y-177312991D01*
X120230054Y-177297312D01*
X120243143Y-177281942D01*
X120256627Y-177266881D01*
X120270506Y-177252129D01*
X120284780Y-177237686D01*
X120299471Y-177223548D01*
X120314512Y-177209802D01*
X120329903Y-177196449D01*
X120345642Y-177183487D01*
X120361730Y-177170918D01*
X120378168Y-177158740D01*
X120394955Y-177146955D01*
X120412091Y-177135562D01*
X120429577Y-177124561D01*
X120447411Y-177113952D01*
X120465595Y-177103736D01*
X120484128Y-177093911D01*
X120503010Y-177084479D01*
X120522241Y-177075438D01*
X120541821Y-177066790D01*
X120561751Y-177058534D01*
X120582028Y-177050682D01*
X120602561Y-177043336D01*
X120623347Y-177036496D01*
X120644389Y-177030164D01*
X120665685Y-177024338D01*
X120687237Y-177019018D01*
X120709042Y-177014205D01*
X120731103Y-177009899D01*
X120753418Y-177006100D01*
X120775988Y-177002807D01*
X120798813Y-177000020D01*
X120821893Y-176997740D01*
X120845227Y-176995967D01*
X120868816Y-176994701D01*
X120892660Y-176993941D01*
X120916758Y-176993688D01*
X120940638Y-176993941D01*
G37*
G36*
X122292090Y-177040582D02*
G01*
X122565031Y-178070432D01*
X122900987Y-177040582D01*
X123228883Y-177040582D01*
X123564839Y-178070432D01*
X123837780Y-177040582D01*
X124268258Y-177040582D01*
X123795648Y-178635000D01*
X123375795Y-178635000D01*
X123064752Y-177711029D01*
X122754075Y-178635000D01*
X122334221Y-178635000D01*
X121861612Y-177040582D01*
X122292090Y-177040582D01*
G37*
G36*
X125334745Y-177392292D02*
G01*
X124833192Y-177392292D01*
X124833192Y-177650212D01*
X125311297Y-177650212D01*
X125311297Y-178001922D01*
X124833192Y-178001922D01*
X124833192Y-178283290D01*
X125334745Y-178283290D01*
X125334745Y-178635000D01*
X124432023Y-178635000D01*
X124432023Y-177040582D01*
X125334745Y-177040582D01*
X125334745Y-177392292D01*
G37*
G36*
X126289907Y-177034876D02*
G01*
X126306177Y-177035344D01*
X126322181Y-177036124D01*
X126337919Y-177037216D01*
X126353391Y-177038620D01*
X126368596Y-177040336D01*
X126383536Y-177042364D01*
X126398209Y-177044704D01*
X126419719Y-177048799D01*
X126440631Y-177053595D01*
X126460944Y-177059094D01*
X126480658Y-177065295D01*
X126499773Y-177072197D01*
X126506011Y-177074654D01*
X126524387Y-177082396D01*
X126542144Y-177090647D01*
X126559283Y-177099406D01*
X126575804Y-177108674D01*
X126591706Y-177118451D01*
X126606991Y-177128737D01*
X126621657Y-177139532D01*
X126635704Y-177150835D01*
X126649134Y-177162647D01*
X126661945Y-177174968D01*
X126670143Y-177183464D01*
X126682018Y-177196569D01*
X126693327Y-177210053D01*
X126704068Y-177223917D01*
X126714244Y-177238161D01*
X126723852Y-177252785D01*
X126732894Y-177267790D01*
X126741369Y-177283174D01*
X126749277Y-177298938D01*
X126756619Y-177315082D01*
X126763394Y-177331606D01*
X126767595Y-177342833D01*
X126773423Y-177359847D01*
X126778677Y-177377094D01*
X126783357Y-177394572D01*
X126787465Y-177412282D01*
X126790999Y-177430223D01*
X126793961Y-177448397D01*
X126796349Y-177466803D01*
X126798164Y-177485440D01*
X126799406Y-177504309D01*
X126800075Y-177523410D01*
X126800202Y-177536273D01*
X126799861Y-177559126D01*
X126798839Y-177581433D01*
X126797136Y-177603193D01*
X126794752Y-177624407D01*
X126791687Y-177645073D01*
X126787940Y-177665193D01*
X126783512Y-177684767D01*
X126778403Y-177703793D01*
X126772613Y-177722273D01*
X126766141Y-177740206D01*
X126758989Y-177757593D01*
X126751155Y-177774433D01*
X126742640Y-177790726D01*
X126733443Y-177806472D01*
X126723566Y-177821672D01*
X126713007Y-177836325D01*
X126701827Y-177850415D01*
X126689995Y-177863923D01*
X126677510Y-177876850D01*
X126664372Y-177889196D01*
X126650582Y-177900961D01*
X126636139Y-177912146D01*
X126621044Y-177922749D01*
X126605296Y-177932771D01*
X126588896Y-177942212D01*
X126571842Y-177951072D01*
X126554137Y-177959351D01*
X126535778Y-177967049D01*
X126516768Y-177974166D01*
X126497104Y-177980702D01*
X126476788Y-177986656D01*
X126455819Y-177992030D01*
X126953709Y-178646723D01*
X126441165Y-178646723D01*
X126029005Y-178032330D01*
X126029005Y-178646723D01*
X125627836Y-178646723D01*
X125627836Y-177368845D01*
X126029005Y-177368845D01*
X126029005Y-177763053D01*
X126111071Y-177763053D01*
X126127000Y-177762854D01*
X126142458Y-177762257D01*
X126157443Y-177761262D01*
X126179035Y-177759024D01*
X126199565Y-177755891D01*
X126219032Y-177751863D01*
X126237436Y-177746940D01*
X126254778Y-177741121D01*
X126271057Y-177734407D01*
X126286274Y-177726799D01*
X126300428Y-177718295D01*
X126309274Y-177712128D01*
X126321583Y-177702190D01*
X126332681Y-177691473D01*
X126342569Y-177679976D01*
X126351245Y-177667701D01*
X126358711Y-177654646D01*
X126364967Y-177640811D01*
X126370012Y-177626198D01*
X126373845Y-177610805D01*
X126376469Y-177594633D01*
X126377881Y-177577682D01*
X126378150Y-177565949D01*
X126377545Y-177548478D01*
X126375729Y-177531787D01*
X126372702Y-177515874D01*
X126368464Y-177500741D01*
X126363016Y-177486388D01*
X126356357Y-177472813D01*
X126348488Y-177460018D01*
X126339407Y-177448002D01*
X126329116Y-177436765D01*
X126317614Y-177426308D01*
X126309274Y-177419769D01*
X126295828Y-177410668D01*
X126281320Y-177402463D01*
X126265749Y-177395152D01*
X126249116Y-177388737D01*
X126231420Y-177383217D01*
X126212661Y-177378592D01*
X126192840Y-177374862D01*
X126171956Y-177372027D01*
X126150009Y-177370088D01*
X126134788Y-177369292D01*
X126119095Y-177368894D01*
X126111071Y-177368845D01*
X126029005Y-177368845D01*
X125627836Y-177368845D01*
X125627836Y-177034720D01*
X126273370Y-177034720D01*
X126289907Y-177034876D01*
G37*
G36*
X127161071Y-178095711D02*
G01*
X127161071Y-177040582D01*
X127562240Y-177040582D01*
X127562240Y-178095711D01*
X127161071Y-178095711D01*
G37*
G36*
X127116741Y-178436064D02*
G01*
X127117197Y-178420293D01*
X127118565Y-178404808D01*
X127120846Y-178389610D01*
X127124039Y-178374698D01*
X127128145Y-178360072D01*
X127133163Y-178345732D01*
X127135425Y-178340076D01*
X127141736Y-178326271D01*
X127148763Y-178313021D01*
X127156505Y-178300325D01*
X127164963Y-178288184D01*
X127174137Y-178276598D01*
X127184026Y-178265565D01*
X127188182Y-178261308D01*
X127198992Y-178251036D01*
X127210357Y-178241516D01*
X127222276Y-178232747D01*
X127234750Y-178224729D01*
X127247778Y-178217462D01*
X127261361Y-178210947D01*
X127266950Y-178208551D01*
X127281281Y-178203063D01*
X127295880Y-178198505D01*
X127310747Y-178194877D01*
X127325883Y-178192180D01*
X127341287Y-178190412D01*
X127356960Y-178189575D01*
X127363304Y-178189501D01*
X127378864Y-178189966D01*
X127394173Y-178191361D01*
X127409232Y-178193687D01*
X127424040Y-178196942D01*
X127438598Y-178201128D01*
X127452906Y-178206245D01*
X127458558Y-178208551D01*
X127472469Y-178214766D01*
X127485807Y-178221732D01*
X127498572Y-178229449D01*
X127510765Y-178237918D01*
X127522386Y-178247138D01*
X127533434Y-178257109D01*
X127537693Y-178261308D01*
X127547859Y-178272118D01*
X127557292Y-178283483D01*
X127565992Y-178295402D01*
X127573957Y-178307876D01*
X127581190Y-178320905D01*
X127587689Y-178334488D01*
X127590083Y-178340076D01*
X127595572Y-178354301D01*
X127600130Y-178368813D01*
X127603758Y-178383611D01*
X127606455Y-178398695D01*
X127608223Y-178414065D01*
X127609060Y-178429721D01*
X127609134Y-178436064D01*
X127608669Y-178451632D01*
X127607274Y-178466969D01*
X127604948Y-178482072D01*
X127601692Y-178496943D01*
X127597506Y-178511582D01*
X127592390Y-178525988D01*
X127590083Y-178531685D01*
X127583878Y-178545490D01*
X127576938Y-178558740D01*
X127569266Y-178571436D01*
X127560860Y-178583577D01*
X127551721Y-178595163D01*
X127541848Y-178606196D01*
X127537693Y-178610453D01*
X127526874Y-178620619D01*
X127515482Y-178630052D01*
X127503518Y-178638752D01*
X127490982Y-178646717D01*
X127477873Y-178653950D01*
X127464191Y-178660449D01*
X127458558Y-178662843D01*
X127444351Y-178668331D01*
X127429893Y-178672890D01*
X127415185Y-178676517D01*
X127400226Y-178679215D01*
X127385017Y-178680983D01*
X127369558Y-178681820D01*
X127363304Y-178681894D01*
X127347524Y-178681429D01*
X127332013Y-178680034D01*
X127316769Y-178677708D01*
X127301795Y-178674452D01*
X127287088Y-178670266D01*
X127272650Y-178665150D01*
X127266950Y-178662843D01*
X127253145Y-178656638D01*
X127239895Y-178649698D01*
X127227199Y-178642026D01*
X127215058Y-178633620D01*
X127203471Y-178624480D01*
X127192439Y-178614608D01*
X127188182Y-178610453D01*
X127178006Y-178599643D01*
X127168547Y-178588278D01*
X127159803Y-178576359D01*
X127151774Y-178563885D01*
X127144461Y-178550856D01*
X127137864Y-178537273D01*
X127135425Y-178531685D01*
X127130042Y-178517372D01*
X127125572Y-178502826D01*
X127122014Y-178488048D01*
X127119368Y-178473038D01*
X127117635Y-178457795D01*
X127116814Y-178442319D01*
X127116741Y-178436064D01*
G37*
D11*
X128506128Y-174692857D02*
X127006128Y-174692857D01*
X127720414Y-174692857D02*
X127720414Y-173835714D01*
X128506128Y-173835714D02*
X127006128Y-173835714D01*
X127148985Y-173192856D02*
X127077557Y-173121428D01*
X127077557Y-173121428D02*
X127006128Y-172978571D01*
X127006128Y-172978571D02*
X127006128Y-172621428D01*
X127006128Y-172621428D02*
X127077557Y-172478571D01*
X127077557Y-172478571D02*
X127148985Y-172407142D01*
X127148985Y-172407142D02*
X127291842Y-172335713D01*
X127291842Y-172335713D02*
X127434700Y-172335713D01*
X127434700Y-172335713D02*
X127648985Y-172407142D01*
X127648985Y-172407142D02*
X128506128Y-173264285D01*
X128506128Y-173264285D02*
X128506128Y-172335713D01*
X114240000Y-169934819D02*
X114240000Y-168934819D01*
X114240000Y-168934819D02*
X114620952Y-168934819D01*
X114620952Y-168934819D02*
X114716190Y-168982438D01*
X114716190Y-168982438D02*
X114763809Y-169030057D01*
X114763809Y-169030057D02*
X114811428Y-169125295D01*
X114811428Y-169125295D02*
X114811428Y-169268152D01*
X114811428Y-169268152D02*
X114763809Y-169363390D01*
X114763809Y-169363390D02*
X114716190Y-169411009D01*
X114716190Y-169411009D02*
X114620952Y-169458628D01*
X114620952Y-169458628D02*
X114240000Y-169458628D01*
X115240000Y-169934819D02*
X115240000Y-168934819D01*
X115716190Y-169934819D02*
X115716190Y-168934819D01*
X115716190Y-168934819D02*
X116287618Y-169934819D01*
X116287618Y-169934819D02*
X116287618Y-168934819D01*
X116525714Y-170030057D02*
X117287618Y-170030057D01*
X117525714Y-169934819D02*
X117525714Y-168934819D01*
X117525714Y-169411009D02*
X118097142Y-169411009D01*
X118097142Y-169934819D02*
X118097142Y-168934819D01*
X118573333Y-169411009D02*
X118906666Y-169411009D01*
X119049523Y-169934819D02*
X118573333Y-169934819D01*
X118573333Y-169934819D02*
X118573333Y-168934819D01*
X118573333Y-168934819D02*
X119049523Y-168934819D01*
X119430476Y-169649104D02*
X119906666Y-169649104D01*
X119335238Y-169934819D02*
X119668571Y-168934819D01*
X119668571Y-168934819D02*
X120001904Y-169934819D01*
X120335238Y-169934819D02*
X120335238Y-168934819D01*
X120335238Y-168934819D02*
X120573333Y-168934819D01*
X120573333Y-168934819D02*
X120716190Y-168982438D01*
X120716190Y-168982438D02*
X120811428Y-169077676D01*
X120811428Y-169077676D02*
X120859047Y-169172914D01*
X120859047Y-169172914D02*
X120906666Y-169363390D01*
X120906666Y-169363390D02*
X120906666Y-169506247D01*
X120906666Y-169506247D02*
X120859047Y-169696723D01*
X120859047Y-169696723D02*
X120811428Y-169791961D01*
X120811428Y-169791961D02*
X120716190Y-169887200D01*
X120716190Y-169887200D02*
X120573333Y-169934819D01*
X120573333Y-169934819D02*
X120335238Y-169934819D01*
X121335238Y-169411009D02*
X121668571Y-169411009D01*
X121811428Y-169934819D02*
X121335238Y-169934819D01*
X121335238Y-169934819D02*
X121335238Y-168934819D01*
X121335238Y-168934819D02*
X121811428Y-168934819D01*
X122811428Y-169934819D02*
X122478095Y-169458628D01*
X122240000Y-169934819D02*
X122240000Y-168934819D01*
X122240000Y-168934819D02*
X122620952Y-168934819D01*
X122620952Y-168934819D02*
X122716190Y-168982438D01*
X122716190Y-168982438D02*
X122763809Y-169030057D01*
X122763809Y-169030057D02*
X122811428Y-169125295D01*
X122811428Y-169125295D02*
X122811428Y-169268152D01*
X122811428Y-169268152D02*
X122763809Y-169363390D01*
X122763809Y-169363390D02*
X122716190Y-169411009D01*
X122716190Y-169411009D02*
X122620952Y-169458628D01*
X122620952Y-169458628D02*
X122240000Y-169458628D01*
X123001905Y-170030057D02*
X123763809Y-170030057D01*
X123954286Y-169030057D02*
X124001905Y-168982438D01*
X124001905Y-168982438D02*
X124097143Y-168934819D01*
X124097143Y-168934819D02*
X124335238Y-168934819D01*
X124335238Y-168934819D02*
X124430476Y-168982438D01*
X124430476Y-168982438D02*
X124478095Y-169030057D01*
X124478095Y-169030057D02*
X124525714Y-169125295D01*
X124525714Y-169125295D02*
X124525714Y-169220533D01*
X124525714Y-169220533D02*
X124478095Y-169363390D01*
X124478095Y-169363390D02*
X123906667Y-169934819D01*
X123906667Y-169934819D02*
X124525714Y-169934819D01*
X124859048Y-169934819D02*
X125382857Y-169268152D01*
X124859048Y-169268152D02*
X125382857Y-169934819D01*
X126240000Y-168934819D02*
X125763810Y-168934819D01*
X125763810Y-168934819D02*
X125716191Y-169411009D01*
X125716191Y-169411009D02*
X125763810Y-169363390D01*
X125763810Y-169363390D02*
X125859048Y-169315771D01*
X125859048Y-169315771D02*
X126097143Y-169315771D01*
X126097143Y-169315771D02*
X126192381Y-169363390D01*
X126192381Y-169363390D02*
X126240000Y-169411009D01*
X126240000Y-169411009D02*
X126287619Y-169506247D01*
X126287619Y-169506247D02*
X126287619Y-169744342D01*
X126287619Y-169744342D02*
X126240000Y-169839580D01*
X126240000Y-169839580D02*
X126192381Y-169887200D01*
X126192381Y-169887200D02*
X126097143Y-169934819D01*
X126097143Y-169934819D02*
X125859048Y-169934819D01*
X125859048Y-169934819D02*
X125763810Y-169887200D01*
X125763810Y-169887200D02*
X125716191Y-169839580D01*
X128456128Y-114632857D02*
X126956128Y-114632857D01*
X127670414Y-114632857D02*
X127670414Y-113775714D01*
X128456128Y-113775714D02*
X126956128Y-113775714D01*
X128456128Y-112275713D02*
X128456128Y-113132856D01*
X128456128Y-112704285D02*
X126956128Y-112704285D01*
X126956128Y-112704285D02*
X127170414Y-112847142D01*
X127170414Y-112847142D02*
X127313271Y-112989999D01*
X127313271Y-112989999D02*
X127384700Y-113132856D01*
X114330000Y-118194819D02*
X114330000Y-117194819D01*
X114330000Y-117194819D02*
X114710952Y-117194819D01*
X114710952Y-117194819D02*
X114806190Y-117242438D01*
X114806190Y-117242438D02*
X114853809Y-117290057D01*
X114853809Y-117290057D02*
X114901428Y-117385295D01*
X114901428Y-117385295D02*
X114901428Y-117528152D01*
X114901428Y-117528152D02*
X114853809Y-117623390D01*
X114853809Y-117623390D02*
X114806190Y-117671009D01*
X114806190Y-117671009D02*
X114710952Y-117718628D01*
X114710952Y-117718628D02*
X114330000Y-117718628D01*
X115330000Y-118194819D02*
X115330000Y-117194819D01*
X115806190Y-118194819D02*
X115806190Y-117194819D01*
X115806190Y-117194819D02*
X116377618Y-118194819D01*
X116377618Y-118194819D02*
X116377618Y-117194819D01*
X116615714Y-118290057D02*
X117377618Y-118290057D01*
X117615714Y-118194819D02*
X117615714Y-117194819D01*
X117615714Y-117671009D02*
X118187142Y-117671009D01*
X118187142Y-118194819D02*
X118187142Y-117194819D01*
X118663333Y-117671009D02*
X118996666Y-117671009D01*
X119139523Y-118194819D02*
X118663333Y-118194819D01*
X118663333Y-118194819D02*
X118663333Y-117194819D01*
X118663333Y-117194819D02*
X119139523Y-117194819D01*
X119520476Y-117909104D02*
X119996666Y-117909104D01*
X119425238Y-118194819D02*
X119758571Y-117194819D01*
X119758571Y-117194819D02*
X120091904Y-118194819D01*
X120425238Y-118194819D02*
X120425238Y-117194819D01*
X120425238Y-117194819D02*
X120663333Y-117194819D01*
X120663333Y-117194819D02*
X120806190Y-117242438D01*
X120806190Y-117242438D02*
X120901428Y-117337676D01*
X120901428Y-117337676D02*
X120949047Y-117432914D01*
X120949047Y-117432914D02*
X120996666Y-117623390D01*
X120996666Y-117623390D02*
X120996666Y-117766247D01*
X120996666Y-117766247D02*
X120949047Y-117956723D01*
X120949047Y-117956723D02*
X120901428Y-118051961D01*
X120901428Y-118051961D02*
X120806190Y-118147200D01*
X120806190Y-118147200D02*
X120663333Y-118194819D01*
X120663333Y-118194819D02*
X120425238Y-118194819D01*
X121425238Y-117671009D02*
X121758571Y-117671009D01*
X121901428Y-118194819D02*
X121425238Y-118194819D01*
X121425238Y-118194819D02*
X121425238Y-117194819D01*
X121425238Y-117194819D02*
X121901428Y-117194819D01*
X122901428Y-118194819D02*
X122568095Y-117718628D01*
X122330000Y-118194819D02*
X122330000Y-117194819D01*
X122330000Y-117194819D02*
X122710952Y-117194819D01*
X122710952Y-117194819D02*
X122806190Y-117242438D01*
X122806190Y-117242438D02*
X122853809Y-117290057D01*
X122853809Y-117290057D02*
X122901428Y-117385295D01*
X122901428Y-117385295D02*
X122901428Y-117528152D01*
X122901428Y-117528152D02*
X122853809Y-117623390D01*
X122853809Y-117623390D02*
X122806190Y-117671009D01*
X122806190Y-117671009D02*
X122710952Y-117718628D01*
X122710952Y-117718628D02*
X122330000Y-117718628D01*
X123091905Y-118290057D02*
X123853809Y-118290057D01*
X124044286Y-117290057D02*
X124091905Y-117242438D01*
X124091905Y-117242438D02*
X124187143Y-117194819D01*
X124187143Y-117194819D02*
X124425238Y-117194819D01*
X124425238Y-117194819D02*
X124520476Y-117242438D01*
X124520476Y-117242438D02*
X124568095Y-117290057D01*
X124568095Y-117290057D02*
X124615714Y-117385295D01*
X124615714Y-117385295D02*
X124615714Y-117480533D01*
X124615714Y-117480533D02*
X124568095Y-117623390D01*
X124568095Y-117623390D02*
X123996667Y-118194819D01*
X123996667Y-118194819D02*
X124615714Y-118194819D01*
X124949048Y-118194819D02*
X125472857Y-117528152D01*
X124949048Y-117528152D02*
X125472857Y-118194819D01*
X126330000Y-117194819D02*
X125853810Y-117194819D01*
X125853810Y-117194819D02*
X125806191Y-117671009D01*
X125806191Y-117671009D02*
X125853810Y-117623390D01*
X125853810Y-117623390D02*
X125949048Y-117575771D01*
X125949048Y-117575771D02*
X126187143Y-117575771D01*
X126187143Y-117575771D02*
X126282381Y-117623390D01*
X126282381Y-117623390D02*
X126330000Y-117671009D01*
X126330000Y-117671009D02*
X126377619Y-117766247D01*
X126377619Y-117766247D02*
X126377619Y-118004342D01*
X126377619Y-118004342D02*
X126330000Y-118099580D01*
X126330000Y-118099580D02*
X126282381Y-118147200D01*
X126282381Y-118147200D02*
X126187143Y-118194819D01*
X126187143Y-118194819D02*
X125949048Y-118194819D01*
X125949048Y-118194819D02*
X125853810Y-118147200D01*
X125853810Y-118147200D02*
X125806191Y-118099580D01*
D12*
%TO.C,MCU1*%
X106925000Y-182893000D02*
G75*
G03*
X106925000Y-182893000I-1778000J0D01*
G01*
X109465000Y-182893000D02*
G75*
G03*
X109465000Y-182893000I-1778000J0D01*
G01*
X134925000Y-182893000D02*
G75*
G03*
X134925000Y-182893000I-1778000J0D01*
G01*
X137465000Y-182893000D02*
G75*
G03*
X137465000Y-182893000I-1778000J0D01*
G01*
X106671000Y-180353000D02*
G75*
G03*
X106671000Y-180353000I-1778000J0D01*
G01*
X109211000Y-180353000D02*
G75*
G03*
X109211000Y-180353000I-1778000J0D01*
G01*
X134671000Y-180353000D02*
G75*
G03*
X134671000Y-180353000I-1778000J0D01*
G01*
X137211000Y-180353000D02*
G75*
G03*
X137211000Y-180353000I-1778000J0D01*
G01*
X106925000Y-177813000D02*
G75*
G03*
X106925000Y-177813000I-1778000J0D01*
G01*
X109465000Y-177813000D02*
G75*
G03*
X109465000Y-177813000I-1778000J0D01*
G01*
X134925000Y-177813000D02*
G75*
G03*
X134925000Y-177813000I-1778000J0D01*
G01*
X137465000Y-177813000D02*
G75*
G03*
X137465000Y-177813000I-1778000J0D01*
G01*
X106671000Y-175273000D02*
G75*
G03*
X106671000Y-175273000I-1778000J0D01*
G01*
X109211000Y-175273000D02*
G75*
G03*
X109211000Y-175273000I-1778000J0D01*
G01*
X134671000Y-175273000D02*
G75*
G03*
X134671000Y-175273000I-1778000J0D01*
G01*
X137211000Y-175273000D02*
G75*
G03*
X137211000Y-175273000I-1778000J0D01*
G01*
X106925000Y-172733000D02*
G75*
G03*
X106925000Y-172733000I-1778000J0D01*
G01*
X109465000Y-172733000D02*
G75*
G03*
X109465000Y-172733000I-1778000J0D01*
G01*
X134925000Y-172733000D02*
G75*
G03*
X134925000Y-172733000I-1778000J0D01*
G01*
X137465000Y-172733000D02*
G75*
G03*
X137465000Y-172733000I-1778000J0D01*
G01*
X103988000Y-124210000D02*
G75*
G03*
X103988000Y-124210000I-1778000J0D01*
G01*
X109068000Y-124210000D02*
G75*
G03*
X109068000Y-124210000I-1778000J0D01*
G01*
X114148000Y-124210000D02*
G75*
G03*
X114148000Y-124210000I-1778000J0D01*
G01*
X129988000Y-124210000D02*
G75*
G03*
X129988000Y-124210000I-1778000J0D01*
G01*
X135068000Y-124210000D02*
G75*
G03*
X135068000Y-124210000I-1778000J0D01*
G01*
X140148000Y-124210000D02*
G75*
G03*
X140148000Y-124210000I-1778000J0D01*
G01*
X106528000Y-123956000D02*
G75*
G03*
X106528000Y-123956000I-1778000J0D01*
G01*
X111608000Y-123956000D02*
G75*
G03*
X111608000Y-123956000I-1778000J0D01*
G01*
X132528000Y-123956000D02*
G75*
G03*
X132528000Y-123956000I-1778000J0D01*
G01*
X137608000Y-123956000D02*
G75*
G03*
X137608000Y-123956000I-1778000J0D01*
G01*
X103988000Y-121670000D02*
G75*
G03*
X103988000Y-121670000I-1778000J0D01*
G01*
X109068000Y-121670000D02*
G75*
G03*
X109068000Y-121670000I-1778000J0D01*
G01*
X114148000Y-121670000D02*
G75*
G03*
X114148000Y-121670000I-1778000J0D01*
G01*
X129988000Y-121670000D02*
G75*
G03*
X129988000Y-121670000I-1778000J0D01*
G01*
X135068000Y-121670000D02*
G75*
G03*
X135068000Y-121670000I-1778000J0D01*
G01*
X140148000Y-121670000D02*
G75*
G03*
X140148000Y-121670000I-1778000J0D01*
G01*
X106528000Y-121416000D02*
G75*
G03*
X106528000Y-121416000I-1778000J0D01*
G01*
X111608000Y-121416000D02*
G75*
G03*
X111608000Y-121416000I-1778000J0D01*
G01*
X132528000Y-121416000D02*
G75*
G03*
X132528000Y-121416000I-1778000J0D01*
G01*
X137608000Y-121416000D02*
G75*
G03*
X137608000Y-121416000I-1778000J0D01*
G01*
D13*
%TO.C,H2*%
X113680000Y-176110000D02*
X113680000Y-170790000D01*
X126620000Y-176110000D02*
X113680000Y-176110000D01*
X113680000Y-170790000D02*
X126620000Y-170790000D01*
X126620000Y-170790000D02*
X126620000Y-176110000D01*
%TO.C,H1*%
X113680000Y-116080000D02*
X113680000Y-110760000D01*
X126620000Y-116080000D02*
X113680000Y-116080000D01*
X113680000Y-110760000D02*
X126620000Y-110760000D01*
X126620000Y-110760000D02*
X126620000Y-116080000D01*
%TD*%
%LPC*%
D14*
%TO.C,MCU1*%
X135687000Y-182893000D03*
X135433000Y-180353000D03*
X135687000Y-177813000D03*
X135433000Y-175273000D03*
X135687000Y-172733000D03*
X133147000Y-172733000D03*
X132893000Y-175273000D03*
X133147000Y-177813000D03*
X132893000Y-180353000D03*
X133147000Y-182893000D03*
X138370000Y-121670000D03*
X135830000Y-121416000D03*
X133290000Y-121670000D03*
X130750000Y-121416000D03*
X128210000Y-121670000D03*
X128210000Y-124210000D03*
X130750000Y-123956000D03*
X133290000Y-124210000D03*
X135830000Y-123956000D03*
X138370000Y-124210000D03*
X112370000Y-121670000D03*
X109830000Y-121416000D03*
X107290000Y-121670000D03*
X104750000Y-121416000D03*
X102210000Y-121670000D03*
X102210000Y-124210000D03*
X104750000Y-123956000D03*
X107290000Y-124210000D03*
X109830000Y-123956000D03*
X112370000Y-124210000D03*
X107687000Y-182893000D03*
X107433000Y-180353000D03*
X107687000Y-177813000D03*
X107433000Y-175273000D03*
X107687000Y-172733000D03*
X105147000Y-172733000D03*
X104893000Y-175273000D03*
X105147000Y-177813000D03*
X104893000Y-180353000D03*
X105147000Y-182893000D03*
%TD*%
%TO.C,PWR1*%
X119007000Y-202870000D03*
X121547000Y-202870000D03*
X118753000Y-205410000D03*
X121293000Y-205410000D03*
X119007000Y-207950000D03*
X121547000Y-207950000D03*
X118753000Y-210490000D03*
X121293000Y-210490000D03*
X118753000Y-200330000D03*
X121293000Y-200330000D03*
%TD*%
D15*
%TO.C,H2*%
X125230000Y-174720000D03*
X125230000Y-172180000D03*
X122690000Y-174720000D03*
X122690000Y-172180000D03*
X120150000Y-174720000D03*
X120150000Y-172180000D03*
X117610000Y-174720000D03*
X117610000Y-172180000D03*
X115070000Y-174720000D03*
X115070000Y-172180000D03*
%TD*%
%TO.C,H1*%
X125230000Y-114690000D03*
X125230000Y-112150000D03*
X122690000Y-114690000D03*
X122690000Y-112150000D03*
X120150000Y-114690000D03*
X120150000Y-112150000D03*
X117610000Y-114690000D03*
X117610000Y-112150000D03*
X115070000Y-114690000D03*
X115070000Y-112150000D03*
%TD*%
%LPD*%
M02*
