M48
; DRILL file {KiCad 7.0.8} date 2024 February 26, Monday 10:38:46
; FORMAT={-:-/ absolute / metric / decimal}
; #@! TF.CreationDate,2024-02-26T10:38:46-05:00
; #@! TF.GenerationSoftware,Kicad,Pcbnew,7.0.8
; #@! TF.FileFunction,MixedPlating,1,2
FMAT,2
METRIC
; #@! TA.AperFunction,NonPlated,NPTH,ComponentDrill
T1C3.200
; #@! TA.AperFunction,NonPlated,NPTH,ComponentDrill
T2C5.000
; #@! TA.AperFunction,NonPlated,NPTH,ComponentDrill
T3C6.400
; #@! TA.AperFunction,NonPlated,NPTH,ComponentDrill
T4C7.200
%
G90
G05
T1
X135.4Y-170.274
T2
X122.125Y-182.321
X148.675Y-182.321
T3
X108.85Y-196.375
X108.85Y-210.43
X122.125Y-196.375
X122.125Y-210.43
X135.4Y-182.321
X135.4Y-196.375
X135.4Y-210.43
X148.675Y-196.375
X148.675Y-210.43
X161.95Y-196.375
X161.95Y-210.43
T4
X111.063Y-142.163
X111.063Y-168.265
X135.4Y-126.102
X135.4Y-156.219
X159.737Y-142.163
X159.737Y-168.265
T1
X107.1Y-103.0G85X107.9Y-103.0
G05
X107.1Y-225.5G85X107.9Y-225.5
G05
X163.78Y-103.0G85X162.98Y-103.0
G05
X163.78Y-225.5G85X162.98Y-225.5
G05
T0
M30
