%TF.GenerationSoftware,KiCad,Pcbnew,9.0.6*%
%TF.CreationDate,2025-12-17T11:34:44-05:00*%
%TF.ProjectId,lichen-breadboard-alpha-pot-dual-adaptor,6c696368-656e-42d6-9272-656164626f61,rev?*%
%TF.SameCoordinates,Original*%
%TF.FileFunction,Copper,L1,Top*%
%TF.FilePolarity,Positive*%
%FSLAX46Y46*%
G04 Gerber Fmt 4.6, Leading zero omitted, Abs format (unit mm)*
G04 Created by KiCad (PCBNEW 9.0.6) date 2025-12-17 11:34:44*
%MOMM*%
%LPD*%
G01*
G04 APERTURE LIST*
%TA.AperFunction,ComponentPad*%
%ADD10O,3.240000X2.720000*%
%TD*%
%TA.AperFunction,ComponentPad*%
%ADD11R,1.800000X1.800000*%
%TD*%
%TA.AperFunction,ComponentPad*%
%ADD12C,1.800000*%
%TD*%
%TA.AperFunction,ComponentPad*%
%ADD13R,1.700000X1.700000*%
%TD*%
%TA.AperFunction,ComponentPad*%
%ADD14C,1.700000*%
%TD*%
%TA.AperFunction,ViaPad*%
%ADD15C,0.700000*%
%TD*%
%TA.AperFunction,Conductor*%
%ADD16C,0.250000*%
%TD*%
%TA.AperFunction,Conductor*%
%ADD17C,0.300000*%
%TD*%
G04 APERTURE END LIST*
D10*
%TO.P,RV2,*%
%TO.N,*%
X105460000Y-115860000D03*
X105460000Y-106360000D03*
D11*
%TO.P,RV2,1,1*%
%TO.N,Net-(J4-Pin_1)*%
X112960000Y-113610000D03*
D12*
%TO.P,RV2,2,2*%
%TO.N,Net-(J4-Pin_2)*%
X112960000Y-111110000D03*
%TO.P,RV2,3,3*%
%TO.N,Net-(J4-Pin_3)*%
X112960000Y-108610000D03*
%TO.P,RV2,4,4*%
%TO.N,Net-(J4-Pin_4)*%
X115460000Y-113610000D03*
%TO.P,RV2,5,5*%
%TO.N,Net-(J4-Pin_5)*%
X115460000Y-111110000D03*
%TO.P,RV2,6,6*%
%TO.N,Net-(J4-Pin_6)*%
X115460000Y-108610000D03*
%TD*%
D13*
%TO.P,J4,1,Pin_1*%
%TO.N,Net-(J4-Pin_1)*%
X102130000Y-119890000D03*
D14*
%TO.P,J4,2,Pin_2*%
%TO.N,Net-(J4-Pin_2)*%
X104670000Y-119890000D03*
%TO.P,J4,3,Pin_3*%
%TO.N,Net-(J4-Pin_3)*%
X107210000Y-119890000D03*
%TO.P,J4,4,Pin_4*%
%TO.N,Net-(J4-Pin_4)*%
X109750000Y-119890000D03*
%TO.P,J4,5,Pin_5*%
%TO.N,Net-(J4-Pin_5)*%
X112290000Y-119890000D03*
%TO.P,J4,6,Pin_6*%
%TO.N,Net-(J4-Pin_6)*%
X114830000Y-119890000D03*
%TD*%
D13*
%TO.P,J1,1,Pin_1*%
%TO.N,unconnected-(J1-Pin_1-Pad1)*%
X102130000Y-102110000D03*
D14*
%TO.P,J1,2,Pin_2*%
%TO.N,unconnected-(J1-Pin_2-Pad2)*%
X104670000Y-102110000D03*
%TO.P,J1,3,Pin_3*%
%TO.N,unconnected-(J1-Pin_3-Pad3)*%
X107210000Y-102110000D03*
%TO.P,J1,4,Pin_4*%
%TO.N,unconnected-(J1-Pin_4-Pad4)*%
X109750000Y-102110000D03*
%TO.P,J1,5,Pin_5*%
%TO.N,unconnected-(J1-Pin_5-Pad5)*%
X112290000Y-102110000D03*
%TO.P,J1,6,Pin_6*%
%TO.N,unconnected-(J1-Pin_6-Pad6)*%
X114830000Y-102110000D03*
%TD*%
D15*
%TO.N,Net-(J4-Pin_2)*%
X109220000Y-112700000D03*
%TO.N,Net-(J4-Pin_1)*%
X107000000Y-113610000D03*
%TO.N,Net-(J4-Pin_6)*%
X108480000Y-114930000D03*
%TO.N,Net-(J4-Pin_4)*%
X112430000Y-116640000D03*
%TD*%
D16*
%TO.N,Net-(J4-Pin_5)*%
X115460000Y-111110000D02*
X114200000Y-112370000D01*
X114200000Y-112370000D02*
X114200000Y-117980000D01*
X114200000Y-117980000D02*
X112290000Y-119890000D01*
D17*
%TO.N,Net-(J4-Pin_6)*%
X108480000Y-114930000D02*
X108480000Y-111320818D01*
X108480000Y-111320818D02*
X112441818Y-107359000D01*
X114469182Y-108350000D02*
X115200000Y-108350000D01*
X112441818Y-107359000D02*
X113478182Y-107359000D01*
X113478182Y-107359000D02*
X114469182Y-108350000D01*
X115200000Y-108350000D02*
X115460000Y-108610000D01*
%TO.N,Net-(J4-Pin_1)*%
X102130000Y-116230000D02*
X102130000Y-119890000D01*
X107000000Y-113610000D02*
X104750000Y-113610000D01*
X104750000Y-113610000D02*
X102130000Y-116230000D01*
%TO.N,Net-(J4-Pin_3)*%
X110550000Y-111020000D02*
X110550000Y-116550000D01*
X112960000Y-108610000D02*
X110550000Y-111020000D01*
X110550000Y-116550000D02*
X107210000Y-119890000D01*
%TO.N,Net-(J4-Pin_4)*%
X112430000Y-116640000D02*
X109750000Y-119320000D01*
%TO.N,Net-(J4-Pin_2)*%
X109220000Y-112700000D02*
X109220000Y-115340000D01*
X109220000Y-115340000D02*
X104670000Y-119890000D01*
%TD*%
M02*
