%TF.GenerationSoftware,KiCad,Pcbnew,9.0.6*%
%TF.CreationDate,2025-12-17T11:15:49-05:00*%
%TF.ProjectId,lichen-crustose-processing-board,6c696368-656e-42d6-9372-7573746f7365,1.0*%
%TF.SameCoordinates,Original*%
%TF.FileFunction,Copper,L2,Bot*%
%TF.FilePolarity,Positive*%
%FSLAX46Y46*%
G04 Gerber Fmt 4.6, Leading zero omitted, Abs format (unit mm)*
G04 Created by KiCad (PCBNEW 9.0.6) date 2025-12-17 11:15:49*
%MOMM*%
%LPD*%
G01*
G04 APERTURE LIST*
%TA.AperFunction,ComponentPad*%
%ADD10C,4.400000*%
%TD*%
%TA.AperFunction,ComponentPad*%
%ADD11R,1.700000X1.700000*%
%TD*%
%TA.AperFunction,ComponentPad*%
%ADD12C,1.700000*%
%TD*%
%TA.AperFunction,WasherPad*%
%ADD13C,2.540000*%
%TD*%
%TA.AperFunction,ComponentPad*%
%ADD14R,1.200000X1.200000*%
%TD*%
%TA.AperFunction,ComponentPad*%
%ADD15C,1.200000*%
%TD*%
%TA.AperFunction,ComponentPad*%
%ADD16R,1.800000X1.800000*%
%TD*%
%TA.AperFunction,ComponentPad*%
%ADD17C,1.800000*%
%TD*%
%TA.AperFunction,ComponentPad*%
%ADD18C,1.879600*%
%TD*%
%TA.AperFunction,ViaPad*%
%ADD19C,0.800000*%
%TD*%
%TA.AperFunction,ViaPad*%
%ADD20C,0.600000*%
%TD*%
%TA.AperFunction,Conductor*%
%ADD21C,0.500000*%
%TD*%
%TA.AperFunction,Conductor*%
%ADD22C,0.300000*%
%TD*%
G04 APERTURE END LIST*
D10*
%TO.P,H2,1,1*%
%TO.N,GND*%
X137750000Y-210000000D03*
%TD*%
D11*
%TO.P,CONN1,1,Pin_1*%
%TO.N,+12V*%
X136650000Y-112500000D03*
D12*
%TO.P,CONN1,2,Pin_2*%
%TO.N,GND*%
X134110000Y-112500000D03*
%TO.P,CONN1,3,Pin_3*%
%TO.N,/RM_R_SOCKET*%
X131570000Y-112500000D03*
%TO.P,CONN1,4,Pin_4*%
%TO.N,/RM_L_SOCKET*%
X129030000Y-112500000D03*
%TO.P,CONN1,5,Pin_5*%
%TO.N,-2.5V*%
X126490000Y-112500000D03*
%TO.P,CONN1,6,Pin_6*%
%TO.N,-12V*%
X123950000Y-112500000D03*
%TO.P,CONN1,7,Pin_7*%
%TO.N,/PROGRAM_L_SOCKET*%
X121410000Y-112500000D03*
%TO.P,CONN1,8,Pin_8*%
%TO.N,/CARRER_L_SOCKET*%
X118870000Y-112500000D03*
%TO.P,CONN1,9,Pin_9*%
%TO.N,/PROGRAM_R_SOCKET*%
X116330000Y-112500000D03*
%TO.P,CONN1,10,Pin_10*%
%TO.N,/CARRIER_R_SOCKET*%
X113790000Y-112500000D03*
%TD*%
D10*
%TO.P,H1,1,1*%
%TO.N,GND*%
X112750000Y-210000000D03*
%TD*%
D13*
%TO.P,TR2,*%
%TO.N,*%
X111350000Y-157356000D03*
X111350000Y-177356000D03*
D14*
%TO.P,TR2,1*%
%TO.N,/PROGRAM_R_SOCKET*%
X105000000Y-170912000D03*
D15*
%TO.P,TR2,2*%
%TO.N,unconnected-(TR2-Pad2)*%
X105000000Y-167356000D03*
%TO.P,TR2,3*%
%TO.N,GND*%
X105000000Y-163800000D03*
%TO.P,TR2,4*%
%TO.N,Net-(LED6-A)*%
X117700000Y-163800000D03*
%TO.P,TR2,5*%
%TO.N,/CARRIER_R_SOCKET*%
X117700000Y-167356000D03*
%TO.P,TR2,6*%
%TO.N,Net-(LED2-K)*%
X117700000Y-170912000D03*
%TD*%
D13*
%TO.P,TR4,*%
%TO.N,*%
X139150000Y-157400000D03*
X139150000Y-177400000D03*
D14*
%TO.P,TR4,1*%
%TO.N,Net-(LED5-K)*%
X132800000Y-170956000D03*
D15*
%TO.P,TR4,2*%
%TO.N,GND*%
X132800000Y-167400000D03*
%TO.P,TR4,3*%
%TO.N,Net-(LED2-A)*%
X132800000Y-163844000D03*
%TO.P,TR4,4*%
%TO.N,GND*%
X145500000Y-163844000D03*
%TO.P,TR4,5*%
%TO.N,unconnected-(TR4-Pad5)*%
X145500000Y-167400000D03*
%TO.P,TR4,6*%
%TO.N,/RM_L_SOCKET*%
X145500000Y-170956000D03*
%TD*%
D16*
%TO.P,LED3,1,K*%
%TO.N,Net-(LED3-K)*%
X122800000Y-144670000D03*
D17*
%TO.P,LED3,2,A*%
%TO.N,Net-(LED1-K)*%
X122800000Y-142130000D03*
%TD*%
D16*
%TO.P,LED4,1,K*%
%TO.N,Net-(LED1-A)*%
X122800000Y-134870000D03*
D17*
%TO.P,LED4,2,A*%
%TO.N,Net-(LED4-A)*%
X122800000Y-132330000D03*
%TD*%
D18*
%TO.P,PWR1,1,-12V*%
%TO.N,/Power/-12V_In*%
X123853000Y-209660000D03*
%TO.P,PWR1,2,-12V*%
X126393000Y-209660000D03*
%TO.P,PWR1,3,GND*%
%TO.N,GND*%
X124107000Y-207120000D03*
%TO.P,PWR1,4,GND*%
X126647000Y-207120000D03*
%TO.P,PWR1,5,GND*%
X123853000Y-204580000D03*
%TO.P,PWR1,6,GND*%
X126393000Y-204580000D03*
%TO.P,PWR1,7,GND*%
X124107000Y-202040000D03*
%TO.P,PWR1,8,GND*%
X126647000Y-202040000D03*
%TO.P,PWR1,9,+12V*%
%TO.N,/Power/+12V_In*%
X123853000Y-199500000D03*
%TO.P,PWR1,10,+12V*%
X126393000Y-199500000D03*
%TD*%
D13*
%TO.P,TR3,*%
%TO.N,*%
X139099500Y-148600000D03*
X139099500Y-128600000D03*
D14*
%TO.P,TR3,1*%
%TO.N,/RM_R_SOCKET*%
X145449500Y-135044000D03*
D15*
%TO.P,TR3,2*%
%TO.N,unconnected-(TR3-Pad2)*%
X145449500Y-138600000D03*
%TO.P,TR3,3*%
%TO.N,GND*%
X145449500Y-142156000D03*
%TO.P,TR3,4*%
%TO.N,Net-(LED1-A)*%
X132749500Y-142156000D03*
%TO.P,TR3,5*%
%TO.N,GND*%
X132749500Y-138600000D03*
%TO.P,TR3,6*%
%TO.N,Net-(LED3-K)*%
X132749500Y-135044000D03*
%TD*%
D13*
%TO.P,TR1,*%
%TO.N,*%
X111350000Y-128800000D03*
X111350000Y-148800000D03*
D14*
%TO.P,TR1,1*%
%TO.N,/PROGRAM_L_SOCKET*%
X105000000Y-142356000D03*
D15*
%TO.P,TR1,2*%
%TO.N,unconnected-(TR1-Pad2)*%
X105000000Y-138800000D03*
%TO.P,TR1,3*%
%TO.N,GND*%
X105000000Y-135244000D03*
%TO.P,TR1,4*%
%TO.N,Net-(LED4-A)*%
X117700000Y-135244000D03*
%TO.P,TR1,5*%
%TO.N,/CARRER_L_SOCKET*%
X117700000Y-138800000D03*
%TO.P,TR1,6*%
%TO.N,Net-(LED1-K)*%
X117700000Y-142356000D03*
%TD*%
D16*
%TO.P,LED1,1,K*%
%TO.N,Net-(LED1-K)*%
X127800000Y-144670000D03*
D17*
%TO.P,LED1,2,A*%
%TO.N,Net-(LED1-A)*%
X127800000Y-142130000D03*
%TD*%
D16*
%TO.P,LED2,1,K*%
%TO.N,Net-(LED2-K)*%
X122500000Y-170930000D03*
D17*
%TO.P,LED2,2,A*%
%TO.N,Net-(LED2-A)*%
X122500000Y-173470000D03*
%TD*%
D16*
%TO.P,LED7,1,K*%
%TO.N,Net-(LED4-A)*%
X127900000Y-134870000D03*
D17*
%TO.P,LED7,2,A*%
%TO.N,Net-(LED3-K)*%
X127900000Y-132330000D03*
%TD*%
D16*
%TO.P,LED8,1,K*%
%TO.N,Net-(LED6-A)*%
X122500000Y-161230000D03*
D17*
%TO.P,LED8,2,A*%
%TO.N,Net-(LED5-K)*%
X122500000Y-163770000D03*
%TD*%
D16*
%TO.P,LED6,1,K*%
%TO.N,Net-(LED2-A)*%
X127500000Y-161230000D03*
D17*
%TO.P,LED6,2,A*%
%TO.N,Net-(LED6-A)*%
X127500000Y-163770000D03*
%TD*%
D16*
%TO.P,LED5,1,K*%
%TO.N,Net-(LED5-K)*%
X127500000Y-170930000D03*
D17*
%TO.P,LED5,2,A*%
%TO.N,Net-(LED2-K)*%
X127500000Y-173470000D03*
%TD*%
D19*
%TO.N,-12V*%
X127850000Y-116400000D03*
X138000000Y-116400000D03*
D20*
%TO.N,GND*%
X130455000Y-199035000D03*
X117755000Y-155855000D03*
X117755000Y-127915000D03*
X102515000Y-201575000D03*
X135535000Y-193955000D03*
X102515000Y-171095000D03*
X145695000Y-148235000D03*
X132995000Y-122835000D03*
X138075000Y-186335000D03*
X112675000Y-160935000D03*
X122835000Y-130455000D03*
X140615000Y-145695000D03*
X127915000Y-216815000D03*
X117755000Y-148235000D03*
X107595000Y-166015000D03*
X102515000Y-216815000D03*
X117755000Y-186335000D03*
X143155000Y-181255000D03*
X145695000Y-186335000D03*
X140615000Y-173635000D03*
X105055000Y-153315000D03*
X112675000Y-193955000D03*
X140615000Y-214275000D03*
X120295000Y-216815000D03*
X102515000Y-178715000D03*
X102515000Y-120295000D03*
X107595000Y-211735000D03*
X125375000Y-145695000D03*
X112675000Y-201575000D03*
X140615000Y-191415000D03*
X127915000Y-120295000D03*
X132995000Y-178715000D03*
X138075000Y-132995000D03*
X145695000Y-155855000D03*
X107595000Y-132995000D03*
X130455000Y-173635000D03*
X107595000Y-140615000D03*
X112675000Y-150775000D03*
X115215000Y-173635000D03*
X107595000Y-188875000D03*
X112675000Y-168555000D03*
X130455000Y-186335000D03*
X122835000Y-176175000D03*
X145695000Y-209195000D03*
X112675000Y-143155000D03*
X143155000Y-117755000D03*
X132995000Y-130455000D03*
X130455000Y-158395000D03*
X117755000Y-140615000D03*
X120295000Y-209195000D03*
X127915000Y-153315000D03*
X120295000Y-191415000D03*
X112675000Y-125375000D03*
X110135000Y-216815000D03*
X117755000Y-120295000D03*
X107595000Y-173635000D03*
X145695000Y-216815000D03*
X132995000Y-211735000D03*
X138075000Y-125375000D03*
X107595000Y-196495000D03*
X115215000Y-206655000D03*
X140615000Y-199035000D03*
X122835000Y-168555000D03*
X125375000Y-188875000D03*
X127915000Y-127915000D03*
X140615000Y-206655000D03*
X145695000Y-140615000D03*
X117755000Y-178715000D03*
X140615000Y-112675000D03*
X102515000Y-186335000D03*
X122835000Y-158395000D03*
X102515000Y-209195000D03*
X102515000Y-112675000D03*
X127915000Y-193955000D03*
X135535000Y-204115000D03*
X130455000Y-206655000D03*
X130455000Y-148235000D03*
X105055000Y-145695000D03*
X138075000Y-140615000D03*
X112675000Y-183795000D03*
X105055000Y-127915000D03*
X138075000Y-150775000D03*
X107595000Y-115215000D03*
X138075000Y-160935000D03*
X102515000Y-193955000D03*
X120295000Y-163475000D03*
X120295000Y-135535000D03*
X125375000Y-181255000D03*
X145695000Y-201575000D03*
X107595000Y-204115000D03*
X122835000Y-196495000D03*
X122835000Y-115215000D03*
X135535000Y-115215000D03*
X120295000Y-201575000D03*
X145695000Y-193955000D03*
X122835000Y-150775000D03*
X122835000Y-122835000D03*
X105055000Y-160935000D03*
X112675000Y-135535000D03*
X115215000Y-214275000D03*
X125375000Y-211735000D03*
X127915000Y-166015000D03*
X138075000Y-168555000D03*
X135535000Y-216815000D03*
X107595000Y-181255000D03*
X130455000Y-140615000D03*
D19*
%TO.N,+12V*%
X137000000Y-183500000D03*
X113350000Y-187450000D03*
%TD*%
D21*
%TO.N,-12V*%
X127850000Y-116400000D02*
X138000000Y-116400000D01*
%TO.N,+12V*%
X113350000Y-187450000D02*
X117300000Y-183500000D01*
X117300000Y-183500000D02*
X137000000Y-183500000D01*
D22*
%TO.N,/PROGRAM_L_SOCKET*%
X106600000Y-140756000D02*
X106600000Y-127310000D01*
X106600000Y-127310000D02*
X121410000Y-112500000D01*
X105000000Y-142356000D02*
X106600000Y-140756000D01*
%TO.N,/PROGRAM_R_SOCKET*%
X102900000Y-168812000D02*
X105000000Y-170912000D01*
X102900000Y-125930000D02*
X102900000Y-168812000D01*
X116330000Y-112500000D02*
X102900000Y-125930000D01*
%TO.N,Net-(LED1-K)*%
X122530000Y-142300000D02*
X117756000Y-142300000D01*
X117756000Y-142300000D02*
X117700000Y-142356000D01*
X122800000Y-142030000D02*
X122530000Y-142300000D01*
%TO.N,Net-(LED1-A)*%
X132749500Y-142156000D02*
X127926000Y-142156000D01*
X127926000Y-142156000D02*
X127800000Y-142030000D01*
X132812000Y-142100000D02*
X132800000Y-142112000D01*
%TO.N,Net-(LED2-K)*%
X122500000Y-170930000D02*
X117718000Y-170930000D01*
X117718000Y-170930000D02*
X117700000Y-170912000D01*
%TO.N,Net-(LED2-A)*%
X122500000Y-173470000D02*
X125000000Y-170970000D01*
X125000000Y-170970000D02*
X125000000Y-163730000D01*
X125000000Y-163730000D02*
X127500000Y-161230000D01*
%TO.N,Net-(LED3-K)*%
X122800000Y-144670000D02*
X123123500Y-144670000D01*
X123123500Y-144670000D02*
X132749500Y-135044000D01*
%TO.N,Net-(LED4-A)*%
X128023500Y-135044000D02*
X127849500Y-134870000D01*
X120614000Y-132330000D02*
X117700000Y-135244000D01*
X122800000Y-132330000D02*
X120614000Y-132330000D01*
%TO.N,Net-(LED5-K)*%
X132800000Y-170956000D02*
X127526000Y-170956000D01*
X127526000Y-170956000D02*
X127500000Y-170930000D01*
%TO.N,Net-(LED6-A)*%
X120270000Y-161230000D02*
X117700000Y-163800000D01*
X122500000Y-161230000D02*
X120270000Y-161230000D01*
%TD*%
%TA.AperFunction,Conductor*%
%TO.N,GND*%
G36*
X126173619Y-207316081D02*
G01*
X126240498Y-207431920D01*
X126335080Y-207526502D01*
X126450919Y-207593381D01*
X126511057Y-207609494D01*
X125803239Y-208317312D01*
X125802804Y-208319384D01*
X125753750Y-208369138D01*
X125749848Y-208371214D01*
X125638119Y-208428143D01*
X125638118Y-208428144D01*
X125454713Y-208561394D01*
X125454708Y-208561398D01*
X125294398Y-208721708D01*
X125294394Y-208721713D01*
X125223318Y-208819542D01*
X125167988Y-208862208D01*
X125098375Y-208868187D01*
X125036580Y-208835582D01*
X125022682Y-208819542D01*
X124951605Y-208721713D01*
X124951601Y-208721708D01*
X124796615Y-208566722D01*
X124763130Y-208505399D01*
X124768114Y-208435707D01*
X124809986Y-208379774D01*
X124828003Y-208368556D01*
X124861613Y-208351431D01*
X124861618Y-208351428D01*
X124933006Y-208299559D01*
X124242942Y-207609495D01*
X124303081Y-207593381D01*
X124418920Y-207526502D01*
X124513502Y-207431920D01*
X124580381Y-207316081D01*
X124596494Y-207255942D01*
X125286559Y-207946007D01*
X125295193Y-207945327D01*
X125332011Y-207916937D01*
X125401624Y-207910958D01*
X125463419Y-207943564D01*
X125465396Y-207945846D01*
X125467439Y-207946007D01*
X126157504Y-207255941D01*
X126173619Y-207316081D01*
G37*
%TD.AperFunction*%
%TA.AperFunction,Conductor*%
G36*
X125919619Y-204776081D02*
G01*
X125986498Y-204891920D01*
X126081080Y-204986502D01*
X126196919Y-205053381D01*
X126257057Y-205069494D01*
X125566991Y-205759559D01*
X125638381Y-205811428D01*
X125737644Y-205862004D01*
X125739142Y-205862714D01*
X125750308Y-205868457D01*
X125755073Y-205872992D01*
X125755312Y-205872665D01*
X125755557Y-205872843D01*
X125755295Y-205873203D01*
X125775397Y-205892334D01*
X125800686Y-205916220D01*
X125800744Y-205916457D01*
X125800921Y-205916625D01*
X125802126Y-205921573D01*
X126511058Y-206630504D01*
X126450919Y-206646619D01*
X126335080Y-206713498D01*
X126240498Y-206808080D01*
X126173619Y-206923919D01*
X126157504Y-206984057D01*
X125467439Y-206293991D01*
X125458801Y-206294671D01*
X125421986Y-206323060D01*
X125352373Y-206329039D01*
X125290578Y-206296433D01*
X125288602Y-206294152D01*
X125286559Y-206293991D01*
X124596494Y-206984056D01*
X124580381Y-206923919D01*
X124513502Y-206808080D01*
X124418920Y-206713498D01*
X124303081Y-206646619D01*
X124242941Y-206630504D01*
X124933007Y-205940439D01*
X124861620Y-205888573D01*
X124762795Y-205838218D01*
X124760870Y-205837290D01*
X124749704Y-205831549D01*
X124745124Y-205827192D01*
X124744908Y-205827492D01*
X124744666Y-205827317D01*
X124744906Y-205826984D01*
X124724550Y-205807617D01*
X124699312Y-205783782D01*
X124699254Y-205783551D01*
X124699084Y-205783389D01*
X124697874Y-205778426D01*
X123988942Y-205069495D01*
X124049081Y-205053381D01*
X124164920Y-204986502D01*
X124259502Y-204891920D01*
X124326381Y-204776081D01*
X124342495Y-204715942D01*
X125032559Y-205406006D01*
X125041193Y-205405327D01*
X125078011Y-205376937D01*
X125147624Y-205370958D01*
X125209419Y-205403564D01*
X125211396Y-205405846D01*
X125213439Y-205406007D01*
X125903504Y-204715941D01*
X125919619Y-204776081D01*
G37*
%TD.AperFunction*%
%TA.AperFunction,Conductor*%
G36*
X126173619Y-202236081D02*
G01*
X126240498Y-202351920D01*
X126335080Y-202446502D01*
X126450919Y-202513381D01*
X126511057Y-202529495D01*
X125803434Y-203237118D01*
X125802843Y-203239930D01*
X125788971Y-203253998D01*
X125779076Y-203271098D01*
X125756012Y-203287423D01*
X125753786Y-203289681D01*
X125750306Y-203291542D01*
X125739139Y-203297285D01*
X125738978Y-203297315D01*
X125738978Y-203297316D01*
X125738977Y-203297315D01*
X125738592Y-203297389D01*
X125738642Y-203297486D01*
X125638380Y-203348572D01*
X125638376Y-203348574D01*
X125566992Y-203400438D01*
X125566991Y-203400439D01*
X126257057Y-204090504D01*
X126196919Y-204106619D01*
X126081080Y-204173498D01*
X125986498Y-204268080D01*
X125919619Y-204383919D01*
X125903504Y-204444057D01*
X125213439Y-203753991D01*
X125204801Y-203754671D01*
X125167986Y-203783060D01*
X125098373Y-203789039D01*
X125036578Y-203756433D01*
X125034602Y-203754152D01*
X125032559Y-203753991D01*
X124342494Y-204444056D01*
X124326381Y-204383919D01*
X124259502Y-204268080D01*
X124164920Y-204173498D01*
X124049081Y-204106619D01*
X123988940Y-204090504D01*
X124696555Y-203382891D01*
X124697144Y-203380089D01*
X124746190Y-203330328D01*
X124750117Y-203328238D01*
X124761041Y-203322673D01*
X124762841Y-203326208D01*
X124763177Y-203326088D01*
X124761356Y-203322513D01*
X124861617Y-203271428D01*
X124861618Y-203271428D01*
X124933006Y-203219559D01*
X124242942Y-202529495D01*
X124303081Y-202513381D01*
X124418920Y-202446502D01*
X124513502Y-202351920D01*
X124580381Y-202236081D01*
X124596494Y-202175942D01*
X125286559Y-202866007D01*
X125295193Y-202865327D01*
X125332011Y-202836937D01*
X125401624Y-202830958D01*
X125463419Y-202863564D01*
X125465396Y-202865846D01*
X125467439Y-202866007D01*
X126157504Y-202175941D01*
X126173619Y-202236081D01*
G37*
%TD.AperFunction*%
%TA.AperFunction,Conductor*%
G36*
X125209420Y-200324417D02*
G01*
X125223315Y-200340453D01*
X125294394Y-200438285D01*
X125294400Y-200438293D01*
X125454708Y-200598601D01*
X125454713Y-200598605D01*
X125638113Y-200731852D01*
X125638115Y-200731853D01*
X125638118Y-200731855D01*
X125749849Y-200788785D01*
X125800644Y-200836758D01*
X125801741Y-200841188D01*
X126511058Y-201550504D01*
X126450919Y-201566619D01*
X126335080Y-201633498D01*
X126240498Y-201728080D01*
X126173619Y-201843919D01*
X126157504Y-201904057D01*
X125467439Y-201213991D01*
X125458801Y-201214671D01*
X125421986Y-201243060D01*
X125352373Y-201249039D01*
X125290578Y-201216433D01*
X125288602Y-201214152D01*
X125286559Y-201213991D01*
X124596494Y-201904056D01*
X124580381Y-201843919D01*
X124513502Y-201728080D01*
X124418920Y-201633498D01*
X124303081Y-201566619D01*
X124242941Y-201550504D01*
X124933007Y-200860439D01*
X124861617Y-200808571D01*
X124828000Y-200791442D01*
X124777205Y-200743468D01*
X124760410Y-200675646D01*
X124782948Y-200609512D01*
X124796604Y-200593288D01*
X124951600Y-200438293D01*
X125022682Y-200340456D01*
X125078011Y-200297791D01*
X125147624Y-200291812D01*
X125209420Y-200324417D01*
G37*
%TD.AperFunction*%
%TA.AperFunction,Conductor*%
G36*
X148672539Y-110770185D02*
G01*
X148718294Y-110822989D01*
X148729500Y-110874500D01*
X148729500Y-217625500D01*
X148709815Y-217692539D01*
X148657011Y-217738294D01*
X148605500Y-217749500D01*
X101894500Y-217749500D01*
X101827461Y-217729815D01*
X101781706Y-217677011D01*
X101770500Y-217625500D01*
X101770500Y-199386646D01*
X122412700Y-199386646D01*
X122412700Y-199613353D01*
X122448165Y-199837272D01*
X122518219Y-200052880D01*
X122518220Y-200052883D01*
X122621147Y-200254885D01*
X122754394Y-200438286D01*
X122754398Y-200438291D01*
X122914708Y-200598601D01*
X122914713Y-200598605D01*
X123098113Y-200731852D01*
X123098115Y-200731853D01*
X123098118Y-200731855D01*
X123209849Y-200788785D01*
X123260644Y-200836758D01*
X123261741Y-200841188D01*
X123971058Y-201550504D01*
X123910919Y-201566619D01*
X123795080Y-201633498D01*
X123700498Y-201728080D01*
X123633619Y-201843919D01*
X123617504Y-201904057D01*
X122927439Y-201213991D01*
X122927438Y-201213992D01*
X122875575Y-201285376D01*
X122772683Y-201487311D01*
X122702653Y-201702841D01*
X122702653Y-201702844D01*
X122667200Y-201926685D01*
X122667200Y-202153314D01*
X122702653Y-202377155D01*
X122702653Y-202377158D01*
X122772683Y-202592688D01*
X122875573Y-202794620D01*
X122927439Y-202866006D01*
X122927439Y-202866007D01*
X123617504Y-202175941D01*
X123633619Y-202236081D01*
X123700498Y-202351920D01*
X123795080Y-202446502D01*
X123910919Y-202513381D01*
X123971057Y-202529495D01*
X123263434Y-203237118D01*
X123262843Y-203239930D01*
X123248971Y-203253998D01*
X123239076Y-203271098D01*
X123216012Y-203287423D01*
X123213786Y-203289681D01*
X123210306Y-203291542D01*
X123199139Y-203297285D01*
X123198978Y-203297315D01*
X123198978Y-203297316D01*
X123198977Y-203297315D01*
X123198592Y-203297389D01*
X123198642Y-203297486D01*
X123098380Y-203348572D01*
X123098376Y-203348574D01*
X123026992Y-203400438D01*
X123026991Y-203400439D01*
X123717057Y-204090504D01*
X123656919Y-204106619D01*
X123541080Y-204173498D01*
X123446498Y-204268080D01*
X123379619Y-204383919D01*
X123363504Y-204444057D01*
X122673439Y-203753991D01*
X122673438Y-203753992D01*
X122621575Y-203825376D01*
X122518683Y-204027311D01*
X122448653Y-204242841D01*
X122448653Y-204242844D01*
X122413200Y-204466685D01*
X122413200Y-204693314D01*
X122448653Y-204917155D01*
X122448653Y-204917158D01*
X122518683Y-205132688D01*
X122621573Y-205334620D01*
X122673439Y-205406006D01*
X122673439Y-205406007D01*
X123363504Y-204715941D01*
X123379619Y-204776081D01*
X123446498Y-204891920D01*
X123541080Y-204986502D01*
X123656919Y-205053381D01*
X123717057Y-205069494D01*
X123026991Y-205759559D01*
X123098381Y-205811428D01*
X123197644Y-205862004D01*
X123199142Y-205862714D01*
X123210308Y-205868457D01*
X123215073Y-205872992D01*
X123215312Y-205872665D01*
X123215557Y-205872843D01*
X123215295Y-205873203D01*
X123235397Y-205892334D01*
X123260686Y-205916220D01*
X123260744Y-205916457D01*
X123260921Y-205916625D01*
X123262126Y-205921573D01*
X123971058Y-206630504D01*
X123910919Y-206646619D01*
X123795080Y-206713498D01*
X123700498Y-206808080D01*
X123633619Y-206923919D01*
X123617504Y-206984057D01*
X122927439Y-206293991D01*
X122927438Y-206293992D01*
X122875575Y-206365376D01*
X122772683Y-206567311D01*
X122702653Y-206782841D01*
X122702653Y-206782844D01*
X122667200Y-207006685D01*
X122667200Y-207233314D01*
X122702653Y-207457155D01*
X122702653Y-207457158D01*
X122772683Y-207672688D01*
X122875573Y-207874620D01*
X122927439Y-207946006D01*
X122927439Y-207946007D01*
X123617504Y-207255941D01*
X123633619Y-207316081D01*
X123700498Y-207431920D01*
X123795080Y-207526502D01*
X123910919Y-207593381D01*
X123971057Y-207609494D01*
X123263239Y-208317312D01*
X123262804Y-208319384D01*
X123213750Y-208369138D01*
X123209848Y-208371214D01*
X123098119Y-208428143D01*
X123098118Y-208428144D01*
X122914713Y-208561394D01*
X122914708Y-208561398D01*
X122754398Y-208721708D01*
X122754394Y-208721713D01*
X122621147Y-208905114D01*
X122518220Y-209107116D01*
X122518219Y-209107119D01*
X122448165Y-209322727D01*
X122412700Y-209546646D01*
X122412700Y-209773353D01*
X122448165Y-209997272D01*
X122518219Y-210212880D01*
X122518220Y-210212883D01*
X122621147Y-210414885D01*
X122754394Y-210598286D01*
X122754398Y-210598291D01*
X122914708Y-210758601D01*
X122914713Y-210758605D01*
X123074684Y-210874829D01*
X123098118Y-210891855D01*
X123230166Y-210959137D01*
X123300116Y-210994779D01*
X123300119Y-210994780D01*
X123407923Y-211029807D01*
X123515729Y-211064835D01*
X123739646Y-211100300D01*
X123739647Y-211100300D01*
X123966353Y-211100300D01*
X123966354Y-211100300D01*
X124190271Y-211064835D01*
X124405883Y-210994779D01*
X124607882Y-210891855D01*
X124791293Y-210758600D01*
X124951600Y-210598293D01*
X125022682Y-210500456D01*
X125078011Y-210457791D01*
X125147624Y-210451812D01*
X125209420Y-210484417D01*
X125223315Y-210500453D01*
X125294395Y-210598286D01*
X125294400Y-210598293D01*
X125454708Y-210758601D01*
X125454713Y-210758605D01*
X125614684Y-210874829D01*
X125638118Y-210891855D01*
X125770166Y-210959137D01*
X125840116Y-210994779D01*
X125840119Y-210994780D01*
X125947923Y-211029807D01*
X126055729Y-211064835D01*
X126279646Y-211100300D01*
X126279647Y-211100300D01*
X126506353Y-211100300D01*
X126506354Y-211100300D01*
X126730271Y-211064835D01*
X126945883Y-210994779D01*
X127147882Y-210891855D01*
X127331293Y-210758600D01*
X127491600Y-210598293D01*
X127624855Y-210414882D01*
X127727779Y-210212883D01*
X127797835Y-209997271D01*
X127833300Y-209773354D01*
X127833300Y-209546646D01*
X127797835Y-209322729D01*
X127727779Y-209107117D01*
X127727779Y-209107116D01*
X127692137Y-209037166D01*
X127624855Y-208905118D01*
X127593679Y-208862208D01*
X127491605Y-208721713D01*
X127491601Y-208721708D01*
X127336615Y-208566722D01*
X127303130Y-208505399D01*
X127308114Y-208435707D01*
X127349986Y-208379774D01*
X127368003Y-208368556D01*
X127401613Y-208351431D01*
X127401618Y-208351428D01*
X127473006Y-208299559D01*
X126782942Y-207609495D01*
X126843081Y-207593381D01*
X126958920Y-207526502D01*
X127053502Y-207431920D01*
X127120381Y-207316081D01*
X127136495Y-207255942D01*
X127826559Y-207946006D01*
X127878426Y-207874620D01*
X127981316Y-207672688D01*
X128051346Y-207457158D01*
X128051346Y-207457155D01*
X128086800Y-207233314D01*
X128086800Y-207006685D01*
X128051346Y-206782844D01*
X128051346Y-206782841D01*
X127981316Y-206567311D01*
X127878426Y-206365379D01*
X127826559Y-206293992D01*
X127826559Y-206293991D01*
X127136494Y-206984056D01*
X127120381Y-206923919D01*
X127053502Y-206808080D01*
X126958920Y-206713498D01*
X126843081Y-206646619D01*
X126782941Y-206630504D01*
X127473007Y-205940439D01*
X127401620Y-205888573D01*
X127302795Y-205838218D01*
X127300870Y-205837290D01*
X127289704Y-205831549D01*
X127285124Y-205827192D01*
X127284908Y-205827492D01*
X127284666Y-205827317D01*
X127284906Y-205826984D01*
X127264550Y-205807617D01*
X127239312Y-205783782D01*
X127239254Y-205783551D01*
X127239084Y-205783389D01*
X127237874Y-205778426D01*
X126528942Y-205069495D01*
X126589081Y-205053381D01*
X126704920Y-204986502D01*
X126799502Y-204891920D01*
X126866381Y-204776081D01*
X126882495Y-204715942D01*
X127572559Y-205406006D01*
X127624426Y-205334620D01*
X127727316Y-205132688D01*
X127797346Y-204917158D01*
X127797346Y-204917155D01*
X127832800Y-204693314D01*
X127832800Y-204466685D01*
X127797346Y-204242844D01*
X127797346Y-204242841D01*
X127727316Y-204027311D01*
X127624426Y-203825379D01*
X127572559Y-203753992D01*
X127572559Y-203753991D01*
X126882494Y-204444056D01*
X126866381Y-204383919D01*
X126799502Y-204268080D01*
X126704920Y-204173498D01*
X126589081Y-204106619D01*
X126528940Y-204090504D01*
X127236555Y-203382891D01*
X127237144Y-203380089D01*
X127251022Y-203366008D01*
X127260928Y-203348893D01*
X127283945Y-203332604D01*
X127286190Y-203330328D01*
X127289700Y-203328451D01*
X127300867Y-203322709D01*
X127301032Y-203322677D01*
X127301041Y-203322673D01*
X127301042Y-203322675D01*
X127301403Y-203322606D01*
X127301356Y-203322513D01*
X127401617Y-203271428D01*
X127401618Y-203271428D01*
X127473006Y-203219559D01*
X126782942Y-202529495D01*
X126843081Y-202513381D01*
X126958920Y-202446502D01*
X127053502Y-202351920D01*
X127120381Y-202236081D01*
X127136495Y-202175942D01*
X127826559Y-202866006D01*
X127878426Y-202794620D01*
X127981316Y-202592688D01*
X128051346Y-202377158D01*
X128051346Y-202377155D01*
X128086800Y-202153314D01*
X128086800Y-201926685D01*
X128051346Y-201702844D01*
X128051346Y-201702841D01*
X127981316Y-201487311D01*
X127878426Y-201285379D01*
X127826559Y-201213992D01*
X127826559Y-201213991D01*
X127136494Y-201904056D01*
X127120381Y-201843919D01*
X127053502Y-201728080D01*
X126958920Y-201633498D01*
X126843081Y-201566619D01*
X126782941Y-201550504D01*
X127473007Y-200860439D01*
X127401617Y-200808571D01*
X127368000Y-200791442D01*
X127317205Y-200743468D01*
X127300410Y-200675646D01*
X127322948Y-200609512D01*
X127336604Y-200593288D01*
X127491600Y-200438293D01*
X127624855Y-200254882D01*
X127727779Y-200052883D01*
X127797835Y-199837271D01*
X127833300Y-199613354D01*
X127833300Y-199386646D01*
X127797835Y-199162729D01*
X127727779Y-198947117D01*
X127727779Y-198947116D01*
X127692137Y-198877166D01*
X127624855Y-198745118D01*
X127593679Y-198702208D01*
X127491605Y-198561713D01*
X127491601Y-198561708D01*
X127331291Y-198401398D01*
X127331286Y-198401394D01*
X127147885Y-198268147D01*
X127147884Y-198268146D01*
X127147882Y-198268145D01*
X127083166Y-198235170D01*
X126945883Y-198165220D01*
X126945880Y-198165219D01*
X126730272Y-198095165D01*
X126618312Y-198077432D01*
X126506354Y-198059700D01*
X126279646Y-198059700D01*
X126205007Y-198071521D01*
X126055727Y-198095165D01*
X125840119Y-198165219D01*
X125840116Y-198165220D01*
X125638114Y-198268147D01*
X125454713Y-198401394D01*
X125454708Y-198401398D01*
X125294398Y-198561708D01*
X125294394Y-198561713D01*
X125223318Y-198659542D01*
X125167988Y-198702208D01*
X125098375Y-198708187D01*
X125036580Y-198675582D01*
X125022682Y-198659542D01*
X124951605Y-198561713D01*
X124951601Y-198561708D01*
X124791291Y-198401398D01*
X124791286Y-198401394D01*
X124607885Y-198268147D01*
X124607884Y-198268146D01*
X124607882Y-198268145D01*
X124543166Y-198235170D01*
X124405883Y-198165220D01*
X124405880Y-198165219D01*
X124190272Y-198095165D01*
X124078312Y-198077432D01*
X123966354Y-198059700D01*
X123739646Y-198059700D01*
X123665007Y-198071521D01*
X123515727Y-198095165D01*
X123300119Y-198165219D01*
X123300116Y-198165220D01*
X123098114Y-198268147D01*
X122914713Y-198401394D01*
X122914708Y-198401398D01*
X122754398Y-198561708D01*
X122754394Y-198561713D01*
X122621147Y-198745114D01*
X122518220Y-198947116D01*
X122518219Y-198947119D01*
X122448165Y-199162727D01*
X122412700Y-199386646D01*
X101770500Y-199386646D01*
X101770500Y-187361304D01*
X112449500Y-187361304D01*
X112449500Y-187538695D01*
X112484103Y-187712658D01*
X112484106Y-187712667D01*
X112551983Y-187876540D01*
X112551990Y-187876553D01*
X112650535Y-188024034D01*
X112650538Y-188024038D01*
X112775961Y-188149461D01*
X112775965Y-188149464D01*
X112923446Y-188248009D01*
X112923459Y-188248016D01*
X113046363Y-188298923D01*
X113087334Y-188315894D01*
X113087336Y-188315894D01*
X113087341Y-188315896D01*
X113261304Y-188350499D01*
X113261307Y-188350500D01*
X113261309Y-188350500D01*
X113438693Y-188350500D01*
X113438694Y-188350499D01*
X113496682Y-188338964D01*
X113612658Y-188315896D01*
X113612661Y-188315894D01*
X113612666Y-188315894D01*
X113776547Y-188248013D01*
X113924035Y-188149464D01*
X114049464Y-188024035D01*
X114148013Y-187876547D01*
X114215894Y-187712666D01*
X114225240Y-187665678D01*
X114257624Y-187603770D01*
X114259120Y-187602246D01*
X117574548Y-184286819D01*
X117635871Y-184253334D01*
X117662229Y-184250500D01*
X136464730Y-184250500D01*
X136531769Y-184270185D01*
X136533622Y-184271399D01*
X136573447Y-184298010D01*
X136573450Y-184298011D01*
X136573453Y-184298013D01*
X136737334Y-184365894D01*
X136737336Y-184365894D01*
X136737341Y-184365896D01*
X136911304Y-184400499D01*
X136911307Y-184400500D01*
X136911309Y-184400500D01*
X137088693Y-184400500D01*
X137088694Y-184400499D01*
X137146682Y-184388964D01*
X137262658Y-184365896D01*
X137262661Y-184365894D01*
X137262666Y-184365894D01*
X137426547Y-184298013D01*
X137574035Y-184199464D01*
X137699464Y-184074035D01*
X137798013Y-183926547D01*
X137865894Y-183762666D01*
X137900500Y-183588691D01*
X137900500Y-183411309D01*
X137900500Y-183411306D01*
X137900499Y-183411304D01*
X137865896Y-183237341D01*
X137865893Y-183237332D01*
X137798016Y-183073459D01*
X137798009Y-183073446D01*
X137699464Y-182925965D01*
X137699461Y-182925961D01*
X137574038Y-182800538D01*
X137574034Y-182800535D01*
X137426553Y-182701990D01*
X137426540Y-182701983D01*
X137262667Y-182634106D01*
X137262658Y-182634103D01*
X137088694Y-182599500D01*
X137088691Y-182599500D01*
X136911309Y-182599500D01*
X136911306Y-182599500D01*
X136737341Y-182634103D01*
X136737332Y-182634106D01*
X136573452Y-182701987D01*
X136573447Y-182701989D01*
X136533622Y-182728601D01*
X136466945Y-182749480D01*
X136464730Y-182749500D01*
X117226076Y-182749500D01*
X117197242Y-182755234D01*
X117197243Y-182755235D01*
X117081093Y-182778339D01*
X117081083Y-182778342D01*
X117001081Y-182811479D01*
X117001082Y-182811480D01*
X117001080Y-182811481D01*
X116944505Y-182834916D01*
X116878192Y-182879225D01*
X116821582Y-182917049D01*
X116821579Y-182917052D01*
X113197807Y-186540823D01*
X113136484Y-186574308D01*
X113134319Y-186574759D01*
X113087337Y-186584104D01*
X113087331Y-186584106D01*
X112923459Y-186651983D01*
X112923446Y-186651990D01*
X112775965Y-186750535D01*
X112775961Y-186750538D01*
X112650538Y-186875961D01*
X112650535Y-186875965D01*
X112551990Y-187023446D01*
X112551983Y-187023459D01*
X112484106Y-187187332D01*
X112484103Y-187187341D01*
X112449500Y-187361304D01*
X101770500Y-187361304D01*
X101770500Y-177239947D01*
X109579500Y-177239947D01*
X109579500Y-177472052D01*
X109606007Y-177673386D01*
X109609794Y-177702149D01*
X109621584Y-177746149D01*
X109669862Y-177926328D01*
X109758677Y-178140745D01*
X109758685Y-178140762D01*
X109874720Y-178341743D01*
X109874721Y-178341745D01*
X110016009Y-178525875D01*
X110016015Y-178525882D01*
X110180117Y-178689984D01*
X110180124Y-178689990D01*
X110364254Y-178831278D01*
X110364256Y-178831279D01*
X110565237Y-178947314D01*
X110565240Y-178947315D01*
X110565248Y-178947320D01*
X110779670Y-179036137D01*
X111003851Y-179096206D01*
X111233955Y-179126500D01*
X111233962Y-179126500D01*
X111466038Y-179126500D01*
X111466045Y-179126500D01*
X111696149Y-179096206D01*
X111920330Y-179036137D01*
X112134752Y-178947320D01*
X112335748Y-178831276D01*
X112519877Y-178689989D01*
X112683989Y-178525877D01*
X112825276Y-178341748D01*
X112941320Y-178140752D01*
X113030137Y-177926330D01*
X113090206Y-177702149D01*
X113120500Y-177472045D01*
X113120500Y-177283947D01*
X137379500Y-177283947D01*
X137379500Y-177516052D01*
X137409794Y-177746148D01*
X137469862Y-177970328D01*
X137558677Y-178184745D01*
X137558685Y-178184762D01*
X137674720Y-178385743D01*
X137674721Y-178385745D01*
X137816009Y-178569875D01*
X137816015Y-178569882D01*
X137980117Y-178733984D01*
X137980124Y-178733990D01*
X138164254Y-178875278D01*
X138164256Y-178875279D01*
X138365237Y-178991314D01*
X138365240Y-178991315D01*
X138365248Y-178991320D01*
X138579670Y-179080137D01*
X138803851Y-179140206D01*
X139033955Y-179170500D01*
X139033962Y-179170500D01*
X139266038Y-179170500D01*
X139266045Y-179170500D01*
X139496149Y-179140206D01*
X139720330Y-179080137D01*
X139934752Y-178991320D01*
X140135748Y-178875276D01*
X140319877Y-178733989D01*
X140483989Y-178569877D01*
X140625276Y-178385748D01*
X140741320Y-178184752D01*
X140830137Y-177970330D01*
X140890206Y-177746149D01*
X140920500Y-177516045D01*
X140920500Y-177283955D01*
X140890206Y-177053851D01*
X140830137Y-176829670D01*
X140741320Y-176615248D01*
X140741314Y-176615237D01*
X140625279Y-176414256D01*
X140625278Y-176414254D01*
X140483990Y-176230124D01*
X140483984Y-176230117D01*
X140319882Y-176066015D01*
X140319875Y-176066009D01*
X140135745Y-175924721D01*
X140135743Y-175924720D01*
X139934762Y-175808685D01*
X139934754Y-175808681D01*
X139934752Y-175808680D01*
X139934745Y-175808677D01*
X139720328Y-175719862D01*
X139556119Y-175675863D01*
X139496149Y-175659794D01*
X139467386Y-175656007D01*
X139266052Y-175629500D01*
X139266045Y-175629500D01*
X139033955Y-175629500D01*
X139033947Y-175629500D01*
X138803851Y-175659794D01*
X138579671Y-175719862D01*
X138365254Y-175808677D01*
X138365237Y-175808685D01*
X138164256Y-175924720D01*
X138164254Y-175924721D01*
X137980124Y-176066009D01*
X137980117Y-176066015D01*
X137816015Y-176230117D01*
X137816009Y-176230124D01*
X137674721Y-176414254D01*
X137674720Y-176414256D01*
X137558685Y-176615237D01*
X137558677Y-176615254D01*
X137469862Y-176829671D01*
X137409794Y-177053851D01*
X137379500Y-177283947D01*
X113120500Y-177283947D01*
X113120500Y-177239955D01*
X113090206Y-177009851D01*
X113030137Y-176785670D01*
X112941320Y-176571248D01*
X112941314Y-176571237D01*
X112825279Y-176370256D01*
X112825278Y-176370254D01*
X112683990Y-176186124D01*
X112683984Y-176186117D01*
X112519882Y-176022015D01*
X112519875Y-176022009D01*
X112335745Y-175880721D01*
X112335743Y-175880720D01*
X112134762Y-175764685D01*
X112134754Y-175764681D01*
X112134752Y-175764680D01*
X112026555Y-175719863D01*
X111920328Y-175675862D01*
X111778203Y-175637780D01*
X111696149Y-175615794D01*
X111667386Y-175612007D01*
X111466052Y-175585500D01*
X111466045Y-175585500D01*
X111233955Y-175585500D01*
X111233947Y-175585500D01*
X111003851Y-175615794D01*
X110779671Y-175675862D01*
X110565254Y-175764677D01*
X110565237Y-175764685D01*
X110364256Y-175880720D01*
X110364254Y-175880721D01*
X110180124Y-176022009D01*
X110180117Y-176022015D01*
X110016015Y-176186117D01*
X110016009Y-176186124D01*
X109874721Y-176370254D01*
X109874720Y-176370256D01*
X109758685Y-176571237D01*
X109758677Y-176571254D01*
X109669862Y-176785671D01*
X109609794Y-177009851D01*
X109579500Y-177239947D01*
X101770500Y-177239947D01*
X101770500Y-168876071D01*
X102249499Y-168876071D01*
X102274497Y-169001738D01*
X102274499Y-169001744D01*
X102323534Y-169120125D01*
X102394726Y-169226673D01*
X102394727Y-169226674D01*
X103863181Y-170695127D01*
X103896666Y-170756450D01*
X103899500Y-170782808D01*
X103899500Y-171559870D01*
X103899501Y-171559876D01*
X103905908Y-171619483D01*
X103956202Y-171754328D01*
X103956206Y-171754335D01*
X104042452Y-171869544D01*
X104042455Y-171869547D01*
X104157664Y-171955793D01*
X104157671Y-171955797D01*
X104292517Y-172006091D01*
X104292516Y-172006091D01*
X104299444Y-172006835D01*
X104352127Y-172012500D01*
X105647872Y-172012499D01*
X105707483Y-172006091D01*
X105842331Y-171955796D01*
X105957546Y-171869546D01*
X106043796Y-171754331D01*
X106094091Y-171619483D01*
X106100500Y-171559873D01*
X106100499Y-170825389D01*
X116599500Y-170825389D01*
X116599500Y-170998610D01*
X116625020Y-171159743D01*
X116626598Y-171169701D01*
X116680127Y-171334445D01*
X116758768Y-171488788D01*
X116860586Y-171628928D01*
X116983072Y-171751414D01*
X117123212Y-171853232D01*
X117277555Y-171931873D01*
X117442299Y-171985402D01*
X117613389Y-172012500D01*
X117613390Y-172012500D01*
X117786610Y-172012500D01*
X117786611Y-172012500D01*
X117957701Y-171985402D01*
X118122445Y-171931873D01*
X118276788Y-171853232D01*
X118416928Y-171751414D01*
X118539414Y-171628928D01*
X118539421Y-171628917D01*
X118542578Y-171625223D01*
X118544081Y-171626507D01*
X118592803Y-171588944D01*
X118637780Y-171580500D01*
X120975501Y-171580500D01*
X121042540Y-171600185D01*
X121088295Y-171652989D01*
X121099501Y-171704500D01*
X121099501Y-171877876D01*
X121105908Y-171937483D01*
X121156202Y-172072328D01*
X121156206Y-172072335D01*
X121242452Y-172187544D01*
X121242455Y-172187547D01*
X121357664Y-172273793D01*
X121357671Y-172273797D01*
X121437580Y-172303601D01*
X121493514Y-172345472D01*
X121517931Y-172410936D01*
X121503080Y-172479209D01*
X121481929Y-172507463D01*
X121431756Y-172557636D01*
X121431752Y-172557641D01*
X121302187Y-172735974D01*
X121202104Y-172932393D01*
X121202103Y-172932396D01*
X121133985Y-173142047D01*
X121099500Y-173359778D01*
X121099500Y-173580221D01*
X121133985Y-173797952D01*
X121202103Y-174007603D01*
X121202104Y-174007606D01*
X121302187Y-174204025D01*
X121431752Y-174382358D01*
X121431756Y-174382363D01*
X121587636Y-174538243D01*
X121587641Y-174538247D01*
X121743192Y-174651260D01*
X121765978Y-174667815D01*
X121894375Y-174733237D01*
X121962393Y-174767895D01*
X121962396Y-174767896D01*
X122067221Y-174801955D01*
X122172049Y-174836015D01*
X122389778Y-174870500D01*
X122389779Y-174870500D01*
X122610221Y-174870500D01*
X122610222Y-174870500D01*
X122827951Y-174836015D01*
X123037606Y-174767895D01*
X123234022Y-174667815D01*
X123412365Y-174538242D01*
X123568242Y-174382365D01*
X123697815Y-174204022D01*
X123797895Y-174007606D01*
X123866015Y-173797951D01*
X123900500Y-173580222D01*
X123900500Y-173359778D01*
X123866015Y-173142049D01*
X123860529Y-173125164D01*
X123858534Y-173055323D01*
X123890777Y-172999167D01*
X125505277Y-171384669D01*
X125576465Y-171278127D01*
X125625501Y-171159744D01*
X125628286Y-171145744D01*
X125650500Y-171034069D01*
X125650500Y-169982135D01*
X126099500Y-169982135D01*
X126099500Y-171877870D01*
X126099501Y-171877876D01*
X126105908Y-171937483D01*
X126156202Y-172072328D01*
X126156206Y-172072335D01*
X126242452Y-172187544D01*
X126242455Y-172187547D01*
X126357664Y-172273793D01*
X126357671Y-172273797D01*
X126437580Y-172303601D01*
X126493514Y-172345472D01*
X126517931Y-172410936D01*
X126503080Y-172479209D01*
X126481929Y-172507463D01*
X126431756Y-172557636D01*
X126431752Y-172557641D01*
X126302187Y-172735974D01*
X126202104Y-172932393D01*
X126202103Y-172932396D01*
X126133985Y-173142047D01*
X126099500Y-173359778D01*
X126099500Y-173580221D01*
X126133985Y-173797952D01*
X126202103Y-174007603D01*
X126202104Y-174007606D01*
X126302187Y-174204025D01*
X126431752Y-174382358D01*
X126431756Y-174382363D01*
X126587636Y-174538243D01*
X126587641Y-174538247D01*
X126743192Y-174651260D01*
X126765978Y-174667815D01*
X126894375Y-174733237D01*
X126962393Y-174767895D01*
X126962396Y-174767896D01*
X127067221Y-174801955D01*
X127172049Y-174836015D01*
X127389778Y-174870500D01*
X127389779Y-174870500D01*
X127610221Y-174870500D01*
X127610222Y-174870500D01*
X127827951Y-174836015D01*
X128037606Y-174767895D01*
X128234022Y-174667815D01*
X128412365Y-174538242D01*
X128568242Y-174382365D01*
X128697815Y-174204022D01*
X128797895Y-174007606D01*
X128866015Y-173797951D01*
X128900500Y-173580222D01*
X128900500Y-173359778D01*
X128866015Y-173142049D01*
X128797895Y-172932394D01*
X128797895Y-172932393D01*
X128763237Y-172864375D01*
X128697815Y-172735978D01*
X128681260Y-172713192D01*
X128568247Y-172557641D01*
X128568243Y-172557636D01*
X128518071Y-172507464D01*
X128484586Y-172446141D01*
X128489570Y-172376449D01*
X128531442Y-172320516D01*
X128562420Y-172303601D01*
X128642326Y-172273798D01*
X128642326Y-172273797D01*
X128642331Y-172273796D01*
X128757546Y-172187546D01*
X128843796Y-172072331D01*
X128894091Y-171937483D01*
X128900500Y-171877873D01*
X128900500Y-171730500D01*
X128920185Y-171663461D01*
X128972989Y-171617706D01*
X129024500Y-171606500D01*
X131598560Y-171606500D01*
X131665599Y-171626185D01*
X131711354Y-171678989D01*
X131714742Y-171687167D01*
X131756202Y-171798328D01*
X131756206Y-171798335D01*
X131842452Y-171913544D01*
X131842455Y-171913547D01*
X131957664Y-171999793D01*
X131957671Y-171999797D01*
X132092517Y-172050091D01*
X132092516Y-172050091D01*
X132099444Y-172050835D01*
X132152127Y-172056500D01*
X133447872Y-172056499D01*
X133507483Y-172050091D01*
X133642331Y-171999796D01*
X133757546Y-171913546D01*
X133843796Y-171798331D01*
X133894091Y-171663483D01*
X133900500Y-171603873D01*
X133900499Y-170869389D01*
X144399500Y-170869389D01*
X144399500Y-171042611D01*
X144426598Y-171213701D01*
X144480127Y-171378445D01*
X144558768Y-171532788D01*
X144660586Y-171672928D01*
X144783072Y-171795414D01*
X144923212Y-171897232D01*
X145077555Y-171975873D01*
X145242299Y-172029402D01*
X145413389Y-172056500D01*
X145413390Y-172056500D01*
X145586610Y-172056500D01*
X145586611Y-172056500D01*
X145757701Y-172029402D01*
X145922445Y-171975873D01*
X146076788Y-171897232D01*
X146216928Y-171795414D01*
X146339414Y-171672928D01*
X146441232Y-171532788D01*
X146519873Y-171378445D01*
X146573402Y-171213701D01*
X146600500Y-171042611D01*
X146600500Y-170869389D01*
X146573402Y-170698299D01*
X146519873Y-170533555D01*
X146441232Y-170379212D01*
X146339414Y-170239072D01*
X146216928Y-170116586D01*
X146076788Y-170014768D01*
X145922445Y-169936127D01*
X145757701Y-169882598D01*
X145757699Y-169882597D01*
X145757698Y-169882597D01*
X145626271Y-169861781D01*
X145586611Y-169855500D01*
X145413389Y-169855500D01*
X145373728Y-169861781D01*
X145242302Y-169882597D01*
X145077552Y-169936128D01*
X144923211Y-170014768D01*
X144847645Y-170069671D01*
X144783072Y-170116586D01*
X144783070Y-170116588D01*
X144783069Y-170116588D01*
X144660588Y-170239069D01*
X144660588Y-170239070D01*
X144660586Y-170239072D01*
X144642382Y-170264128D01*
X144558768Y-170379211D01*
X144480128Y-170533552D01*
X144426597Y-170698302D01*
X144401139Y-170859038D01*
X144399500Y-170869389D01*
X133900499Y-170869389D01*
X133900499Y-170308128D01*
X133894091Y-170248517D01*
X133890568Y-170239072D01*
X133843797Y-170113671D01*
X133843793Y-170113664D01*
X133757547Y-169998455D01*
X133757544Y-169998452D01*
X133642335Y-169912206D01*
X133642328Y-169912202D01*
X133507482Y-169861908D01*
X133507483Y-169861908D01*
X133447883Y-169855501D01*
X133447881Y-169855500D01*
X133447873Y-169855500D01*
X133447864Y-169855500D01*
X132152129Y-169855500D01*
X132152123Y-169855501D01*
X132092516Y-169861908D01*
X131957671Y-169912202D01*
X131957664Y-169912206D01*
X131842455Y-169998452D01*
X131842452Y-169998455D01*
X131756206Y-170113664D01*
X131756202Y-170113671D01*
X131714742Y-170224833D01*
X131672871Y-170280767D01*
X131607407Y-170305184D01*
X131598560Y-170305500D01*
X129024499Y-170305500D01*
X128957460Y-170285815D01*
X128911705Y-170233011D01*
X128900499Y-170181500D01*
X128900499Y-169982129D01*
X128900498Y-169982123D01*
X128900497Y-169982116D01*
X128894091Y-169922517D01*
X128890245Y-169912206D01*
X128843797Y-169787671D01*
X128843793Y-169787664D01*
X128757547Y-169672455D01*
X128757544Y-169672452D01*
X128642335Y-169586206D01*
X128642328Y-169586202D01*
X128507482Y-169535908D01*
X128507483Y-169535908D01*
X128447883Y-169529501D01*
X128447881Y-169529500D01*
X128447873Y-169529500D01*
X128447864Y-169529500D01*
X126552129Y-169529500D01*
X126552123Y-169529501D01*
X126492516Y-169535908D01*
X126357671Y-169586202D01*
X126357664Y-169586206D01*
X126242455Y-169672452D01*
X126242452Y-169672455D01*
X126156206Y-169787664D01*
X126156202Y-169787671D01*
X126105908Y-169922517D01*
X126102475Y-169954452D01*
X126099501Y-169982123D01*
X126099500Y-169982135D01*
X125650500Y-169982135D01*
X125650500Y-167313428D01*
X131700000Y-167313428D01*
X131700000Y-167486571D01*
X131727085Y-167657584D01*
X131780592Y-167822259D01*
X131859196Y-167976525D01*
X131863709Y-167982736D01*
X131863709Y-167982737D01*
X132400000Y-167446446D01*
X132400000Y-167452661D01*
X132427259Y-167554394D01*
X132479920Y-167645606D01*
X132554394Y-167720080D01*
X132645606Y-167772741D01*
X132747339Y-167800000D01*
X132753553Y-167800000D01*
X132217261Y-168336289D01*
X132217262Y-168336290D01*
X132223471Y-168340801D01*
X132377742Y-168419408D01*
X132542415Y-168472914D01*
X132713429Y-168500000D01*
X132886571Y-168500000D01*
X133057584Y-168472914D01*
X133222257Y-168419408D01*
X133376525Y-168340803D01*
X133382736Y-168336289D01*
X133382737Y-168336289D01*
X132846448Y-167800000D01*
X132852661Y-167800000D01*
X132954394Y-167772741D01*
X133045606Y-167720080D01*
X133120080Y-167645606D01*
X133172741Y-167554394D01*
X133200000Y-167452661D01*
X133200000Y-167446447D01*
X133736289Y-167982736D01*
X133740803Y-167976525D01*
X133819408Y-167822257D01*
X133872914Y-167657584D01*
X133900000Y-167486571D01*
X133900000Y-167313428D01*
X133899994Y-167313389D01*
X144399500Y-167313389D01*
X144399500Y-167486611D01*
X144426598Y-167657701D01*
X144480127Y-167822445D01*
X144558768Y-167976788D01*
X144660586Y-168116928D01*
X144783072Y-168239414D01*
X144923212Y-168341232D01*
X145077555Y-168419873D01*
X145242299Y-168473402D01*
X145413389Y-168500500D01*
X145413390Y-168500500D01*
X145586610Y-168500500D01*
X145586611Y-168500500D01*
X145757701Y-168473402D01*
X145922445Y-168419873D01*
X146076788Y-168341232D01*
X146216928Y-168239414D01*
X146339414Y-168116928D01*
X146441232Y-167976788D01*
X146519873Y-167822445D01*
X146573402Y-167657701D01*
X146600500Y-167486611D01*
X146600500Y-167313389D01*
X146573402Y-167142299D01*
X146519873Y-166977555D01*
X146441232Y-166823212D01*
X146339414Y-166683072D01*
X146216928Y-166560586D01*
X146076788Y-166458768D01*
X145922445Y-166380127D01*
X145757701Y-166326598D01*
X145757699Y-166326597D01*
X145757698Y-166326597D01*
X145626271Y-166305781D01*
X145586611Y-166299500D01*
X145413389Y-166299500D01*
X145373728Y-166305781D01*
X145242302Y-166326597D01*
X145077552Y-166380128D01*
X144923211Y-166458768D01*
X144843633Y-166516586D01*
X144783072Y-166560586D01*
X144783070Y-166560588D01*
X144783069Y-166560588D01*
X144660588Y-166683069D01*
X144660588Y-166683070D01*
X144660586Y-166683072D01*
X144616859Y-166743256D01*
X144558768Y-166823211D01*
X144480128Y-166977552D01*
X144426597Y-167142302D01*
X144424682Y-167154394D01*
X144399500Y-167313389D01*
X133899994Y-167313389D01*
X133872914Y-167142415D01*
X133819408Y-166977742D01*
X133740801Y-166823471D01*
X133736290Y-166817262D01*
X133736289Y-166817261D01*
X133200000Y-167353551D01*
X133200000Y-167347339D01*
X133172741Y-167245606D01*
X133120080Y-167154394D01*
X133045606Y-167079920D01*
X132954394Y-167027259D01*
X132852661Y-167000000D01*
X132846447Y-167000000D01*
X133382737Y-166463709D01*
X133376525Y-166459196D01*
X133222259Y-166380592D01*
X133057584Y-166327085D01*
X132886571Y-166300000D01*
X132713429Y-166300000D01*
X132542415Y-166327085D01*
X132377740Y-166380592D01*
X132223480Y-166459193D01*
X132223463Y-166459203D01*
X132217261Y-166463708D01*
X132217261Y-166463709D01*
X132753554Y-167000000D01*
X132747339Y-167000000D01*
X132645606Y-167027259D01*
X132554394Y-167079920D01*
X132479920Y-167154394D01*
X132427259Y-167245606D01*
X132400000Y-167347339D01*
X132400000Y-167353552D01*
X131863709Y-166817261D01*
X131863708Y-166817261D01*
X131859203Y-166823463D01*
X131859193Y-166823480D01*
X131780592Y-166977740D01*
X131727085Y-167142415D01*
X131700000Y-167313428D01*
X125650500Y-167313428D01*
X125650500Y-164050807D01*
X125670185Y-163983768D01*
X125686815Y-163963130D01*
X125887820Y-163762125D01*
X125949142Y-163728641D01*
X126018834Y-163733625D01*
X126074767Y-163775497D01*
X126099184Y-163840961D01*
X126099500Y-163849807D01*
X126099500Y-163880221D01*
X126133985Y-164097952D01*
X126202103Y-164307603D01*
X126202104Y-164307606D01*
X126302187Y-164504025D01*
X126431752Y-164682358D01*
X126431756Y-164682363D01*
X126587636Y-164838243D01*
X126587641Y-164838247D01*
X126672638Y-164900000D01*
X126765978Y-164967815D01*
X126894375Y-165033237D01*
X126962393Y-165067895D01*
X126962396Y-165067896D01*
X127067221Y-165101955D01*
X127172049Y-165136015D01*
X127389778Y-165170500D01*
X127389779Y-165170500D01*
X127610221Y-165170500D01*
X127610222Y-165170500D01*
X127827951Y-165136015D01*
X128037606Y-165067895D01*
X128234022Y-164967815D01*
X128412365Y-164838242D01*
X128568242Y-164682365D01*
X128697815Y-164504022D01*
X128797895Y-164307606D01*
X128866015Y-164097951D01*
X128900500Y-163880222D01*
X128900500Y-163757389D01*
X131699500Y-163757389D01*
X131699500Y-163930610D01*
X131719610Y-164057584D01*
X131726598Y-164101701D01*
X131780127Y-164266445D01*
X131858768Y-164420788D01*
X131960586Y-164560928D01*
X132083072Y-164683414D01*
X132223212Y-164785232D01*
X132377555Y-164863873D01*
X132542299Y-164917402D01*
X132713389Y-164944500D01*
X132713390Y-164944500D01*
X132886610Y-164944500D01*
X132886611Y-164944500D01*
X133057701Y-164917402D01*
X133222445Y-164863873D01*
X133376788Y-164785232D01*
X133516928Y-164683414D01*
X133639414Y-164560928D01*
X133741232Y-164420788D01*
X133819873Y-164266445D01*
X133873402Y-164101701D01*
X133900500Y-163930611D01*
X133900500Y-163757428D01*
X144400000Y-163757428D01*
X144400000Y-163930571D01*
X144427085Y-164101584D01*
X144480592Y-164266259D01*
X144559196Y-164420525D01*
X144563709Y-164426736D01*
X144563709Y-164426737D01*
X145100000Y-163890446D01*
X145100000Y-163896661D01*
X145127259Y-163998394D01*
X145179920Y-164089606D01*
X145254394Y-164164080D01*
X145345606Y-164216741D01*
X145447339Y-164244000D01*
X145453553Y-164244000D01*
X144917261Y-164780289D01*
X144917262Y-164780290D01*
X144923471Y-164784801D01*
X145077742Y-164863408D01*
X145242415Y-164916914D01*
X145413429Y-164944000D01*
X145586571Y-164944000D01*
X145757584Y-164916914D01*
X145922257Y-164863408D01*
X146076525Y-164784803D01*
X146082736Y-164780289D01*
X146082737Y-164780289D01*
X145546448Y-164244000D01*
X145552661Y-164244000D01*
X145654394Y-164216741D01*
X145745606Y-164164080D01*
X145820080Y-164089606D01*
X145872741Y-163998394D01*
X145900000Y-163896661D01*
X145900000Y-163890447D01*
X146436289Y-164426736D01*
X146440803Y-164420525D01*
X146519408Y-164266257D01*
X146572914Y-164101584D01*
X146600000Y-163930571D01*
X146600000Y-163757428D01*
X146572914Y-163586415D01*
X146519408Y-163421742D01*
X146440801Y-163267471D01*
X146436290Y-163261262D01*
X146436289Y-163261261D01*
X145900000Y-163797551D01*
X145900000Y-163791339D01*
X145872741Y-163689606D01*
X145820080Y-163598394D01*
X145745606Y-163523920D01*
X145654394Y-163471259D01*
X145552661Y-163444000D01*
X145546447Y-163444000D01*
X146082737Y-162907709D01*
X146076525Y-162903196D01*
X145922259Y-162824592D01*
X145757584Y-162771085D01*
X145586571Y-162744000D01*
X145413429Y-162744000D01*
X145242415Y-162771085D01*
X145077740Y-162824592D01*
X144923480Y-162903193D01*
X144923463Y-162903203D01*
X144917261Y-162907708D01*
X144917261Y-162907709D01*
X145453554Y-163444000D01*
X145447339Y-163444000D01*
X145345606Y-163471259D01*
X145254394Y-163523920D01*
X145179920Y-163598394D01*
X145127259Y-163689606D01*
X145100000Y-163791339D01*
X145100000Y-163797552D01*
X144563709Y-163261261D01*
X144563708Y-163261261D01*
X144559203Y-163267463D01*
X144559193Y-163267480D01*
X144480592Y-163421740D01*
X144427085Y-163586415D01*
X144400000Y-163757428D01*
X133900500Y-163757428D01*
X133900500Y-163757389D01*
X133873402Y-163586299D01*
X133819873Y-163421555D01*
X133741232Y-163267212D01*
X133639414Y-163127072D01*
X133516928Y-163004586D01*
X133376788Y-162902768D01*
X133222445Y-162824127D01*
X133057701Y-162770598D01*
X133057699Y-162770597D01*
X133057698Y-162770597D01*
X132926271Y-162749781D01*
X132886611Y-162743500D01*
X132713389Y-162743500D01*
X132673728Y-162749781D01*
X132542302Y-162770597D01*
X132377552Y-162824128D01*
X132223211Y-162902768D01*
X132143633Y-162960586D01*
X132083072Y-163004586D01*
X132083070Y-163004588D01*
X132083069Y-163004588D01*
X131960588Y-163127069D01*
X131960588Y-163127070D01*
X131960586Y-163127072D01*
X131916859Y-163187256D01*
X131858768Y-163267211D01*
X131780128Y-163421552D01*
X131726597Y-163586302D01*
X131699500Y-163757389D01*
X128900500Y-163757389D01*
X128900500Y-163659778D01*
X128866015Y-163442049D01*
X128824843Y-163315332D01*
X128797896Y-163232396D01*
X128797895Y-163232393D01*
X128744229Y-163127070D01*
X128697815Y-163035978D01*
X128675008Y-163004586D01*
X128568247Y-162857641D01*
X128568243Y-162857636D01*
X128518071Y-162807464D01*
X128484586Y-162746141D01*
X128489570Y-162676449D01*
X128531442Y-162620516D01*
X128562420Y-162603601D01*
X128642326Y-162573798D01*
X128642326Y-162573797D01*
X128642331Y-162573796D01*
X128757546Y-162487546D01*
X128843796Y-162372331D01*
X128894091Y-162237483D01*
X128900500Y-162177873D01*
X128900499Y-160282128D01*
X128894091Y-160222517D01*
X128843796Y-160087669D01*
X128843795Y-160087668D01*
X128843793Y-160087664D01*
X128757547Y-159972455D01*
X128757544Y-159972452D01*
X128642335Y-159886206D01*
X128642328Y-159886202D01*
X128507482Y-159835908D01*
X128507483Y-159835908D01*
X128447883Y-159829501D01*
X128447881Y-159829500D01*
X128447873Y-159829500D01*
X128447864Y-159829500D01*
X126552129Y-159829500D01*
X126552123Y-159829501D01*
X126492516Y-159835908D01*
X126357671Y-159886202D01*
X126357664Y-159886206D01*
X126242455Y-159972452D01*
X126242452Y-159972455D01*
X126156206Y-160087664D01*
X126156202Y-160087671D01*
X126105908Y-160222517D01*
X126099501Y-160282116D01*
X126099501Y-160282123D01*
X126099500Y-160282135D01*
X126099500Y-161659191D01*
X126079815Y-161726230D01*
X126063181Y-161746872D01*
X124494727Y-163315325D01*
X124494721Y-163315332D01*
X124426490Y-163417447D01*
X124426491Y-163417448D01*
X124423623Y-163421742D01*
X124423535Y-163421873D01*
X124409173Y-163456544D01*
X124374499Y-163540255D01*
X124374497Y-163540261D01*
X124349500Y-163665928D01*
X124349500Y-170649191D01*
X124329815Y-170716230D01*
X124313181Y-170736872D01*
X124112180Y-170937873D01*
X124050857Y-170971358D01*
X123981165Y-170966374D01*
X123925232Y-170924502D01*
X123900815Y-170859038D01*
X123900499Y-170850192D01*
X123900499Y-169982129D01*
X123900498Y-169982123D01*
X123900497Y-169982116D01*
X123894091Y-169922517D01*
X123890245Y-169912206D01*
X123843797Y-169787671D01*
X123843793Y-169787664D01*
X123757547Y-169672455D01*
X123757544Y-169672452D01*
X123642335Y-169586206D01*
X123642328Y-169586202D01*
X123507482Y-169535908D01*
X123507483Y-169535908D01*
X123447883Y-169529501D01*
X123447881Y-169529500D01*
X123447873Y-169529500D01*
X123447864Y-169529500D01*
X121552129Y-169529500D01*
X121552123Y-169529501D01*
X121492516Y-169535908D01*
X121357671Y-169586202D01*
X121357664Y-169586206D01*
X121242455Y-169672452D01*
X121242452Y-169672455D01*
X121156206Y-169787664D01*
X121156202Y-169787671D01*
X121105908Y-169922517D01*
X121102475Y-169954452D01*
X121099501Y-169982123D01*
X121099500Y-169982135D01*
X121099500Y-170155500D01*
X121079815Y-170222539D01*
X121027011Y-170268294D01*
X120975500Y-170279500D01*
X118663936Y-170279500D01*
X118596897Y-170259815D01*
X118563619Y-170228387D01*
X118539414Y-170195072D01*
X118416930Y-170072588D01*
X118416928Y-170072586D01*
X118276788Y-169970768D01*
X118122445Y-169892127D01*
X117957701Y-169838598D01*
X117957699Y-169838597D01*
X117957698Y-169838597D01*
X117826271Y-169817781D01*
X117786611Y-169811500D01*
X117613389Y-169811500D01*
X117573728Y-169817781D01*
X117442302Y-169838597D01*
X117277552Y-169892128D01*
X117123211Y-169970768D01*
X117085104Y-169998455D01*
X116983072Y-170072586D01*
X116983070Y-170072588D01*
X116983069Y-170072588D01*
X116860588Y-170195069D01*
X116860588Y-170195070D01*
X116860586Y-170195072D01*
X116828618Y-170239072D01*
X116758768Y-170335211D01*
X116680128Y-170489552D01*
X116626597Y-170654302D01*
X116599500Y-170825389D01*
X106100499Y-170825389D01*
X106100499Y-170264128D01*
X106094091Y-170204517D01*
X106090568Y-170195072D01*
X106043797Y-170069671D01*
X106043793Y-170069664D01*
X105957547Y-169954455D01*
X105957544Y-169954452D01*
X105842335Y-169868206D01*
X105842328Y-169868202D01*
X105707482Y-169817908D01*
X105707483Y-169817908D01*
X105647883Y-169811501D01*
X105647881Y-169811500D01*
X105647873Y-169811500D01*
X105647865Y-169811500D01*
X104870808Y-169811500D01*
X104803769Y-169791815D01*
X104783127Y-169775181D01*
X103586819Y-168578873D01*
X103553334Y-168517550D01*
X103550500Y-168491192D01*
X103550500Y-167269389D01*
X103899500Y-167269389D01*
X103899500Y-167442611D01*
X103926598Y-167613701D01*
X103980127Y-167778445D01*
X104058768Y-167932788D01*
X104160586Y-168072928D01*
X104283072Y-168195414D01*
X104423212Y-168297232D01*
X104577555Y-168375873D01*
X104742299Y-168429402D01*
X104913389Y-168456500D01*
X104913390Y-168456500D01*
X105086610Y-168456500D01*
X105086611Y-168456500D01*
X105257701Y-168429402D01*
X105422445Y-168375873D01*
X105576788Y-168297232D01*
X105716928Y-168195414D01*
X105839414Y-168072928D01*
X105941232Y-167932788D01*
X106019873Y-167778445D01*
X106073402Y-167613701D01*
X106100500Y-167442611D01*
X106100500Y-167269389D01*
X116599500Y-167269389D01*
X116599500Y-167442611D01*
X116626598Y-167613701D01*
X116680127Y-167778445D01*
X116758768Y-167932788D01*
X116860586Y-168072928D01*
X116983072Y-168195414D01*
X117123212Y-168297232D01*
X117277555Y-168375873D01*
X117442299Y-168429402D01*
X117613389Y-168456500D01*
X117613390Y-168456500D01*
X117786610Y-168456500D01*
X117786611Y-168456500D01*
X117957701Y-168429402D01*
X118122445Y-168375873D01*
X118276788Y-168297232D01*
X118416928Y-168195414D01*
X118539414Y-168072928D01*
X118641232Y-167932788D01*
X118719873Y-167778445D01*
X118773402Y-167613701D01*
X118800500Y-167442611D01*
X118800500Y-167269389D01*
X118773402Y-167098299D01*
X118719873Y-166933555D01*
X118641232Y-166779212D01*
X118539414Y-166639072D01*
X118416928Y-166516586D01*
X118276788Y-166414768D01*
X118122445Y-166336127D01*
X117957701Y-166282598D01*
X117957699Y-166282597D01*
X117957698Y-166282597D01*
X117826271Y-166261781D01*
X117786611Y-166255500D01*
X117613389Y-166255500D01*
X117573728Y-166261781D01*
X117442302Y-166282597D01*
X117277552Y-166336128D01*
X117123211Y-166414768D01*
X117055852Y-166463708D01*
X116983072Y-166516586D01*
X116983070Y-166516588D01*
X116983069Y-166516588D01*
X116860588Y-166639069D01*
X116860588Y-166639070D01*
X116860586Y-166639072D01*
X116828618Y-166683072D01*
X116758768Y-166779211D01*
X116680128Y-166933552D01*
X116626597Y-167098302D01*
X116617713Y-167154394D01*
X116599500Y-167269389D01*
X106100500Y-167269389D01*
X106073402Y-167098299D01*
X106019873Y-166933555D01*
X105941232Y-166779212D01*
X105839414Y-166639072D01*
X105716928Y-166516586D01*
X105576788Y-166414768D01*
X105422445Y-166336127D01*
X105257701Y-166282598D01*
X105257699Y-166282597D01*
X105257698Y-166282597D01*
X105126271Y-166261781D01*
X105086611Y-166255500D01*
X104913389Y-166255500D01*
X104873728Y-166261781D01*
X104742302Y-166282597D01*
X104577552Y-166336128D01*
X104423211Y-166414768D01*
X104355852Y-166463708D01*
X104283072Y-166516586D01*
X104283070Y-166516588D01*
X104283069Y-166516588D01*
X104160588Y-166639069D01*
X104160588Y-166639070D01*
X104160586Y-166639072D01*
X104128618Y-166683072D01*
X104058768Y-166779211D01*
X103980128Y-166933552D01*
X103926597Y-167098302D01*
X103917713Y-167154394D01*
X103899500Y-167269389D01*
X103550500Y-167269389D01*
X103550500Y-163713428D01*
X103900000Y-163713428D01*
X103900000Y-163886571D01*
X103927085Y-164057584D01*
X103980592Y-164222259D01*
X104059196Y-164376525D01*
X104063709Y-164382736D01*
X104063709Y-164382737D01*
X104600000Y-163846446D01*
X104600000Y-163852661D01*
X104627259Y-163954394D01*
X104679920Y-164045606D01*
X104754394Y-164120080D01*
X104845606Y-164172741D01*
X104947339Y-164200000D01*
X104953553Y-164200000D01*
X104417261Y-164736289D01*
X104417262Y-164736290D01*
X104423471Y-164740801D01*
X104577742Y-164819408D01*
X104742415Y-164872914D01*
X104913429Y-164900000D01*
X105086571Y-164900000D01*
X105257584Y-164872914D01*
X105422257Y-164819408D01*
X105576525Y-164740803D01*
X105582736Y-164736289D01*
X105582737Y-164736289D01*
X105046448Y-164200000D01*
X105052661Y-164200000D01*
X105154394Y-164172741D01*
X105245606Y-164120080D01*
X105320080Y-164045606D01*
X105372741Y-163954394D01*
X105400000Y-163852661D01*
X105400000Y-163846448D01*
X105936289Y-164382737D01*
X105936289Y-164382736D01*
X105940803Y-164376525D01*
X106019408Y-164222257D01*
X106072914Y-164057584D01*
X106100000Y-163886571D01*
X106100000Y-163713428D01*
X106099994Y-163713389D01*
X116599500Y-163713389D01*
X116599500Y-163886611D01*
X116626598Y-164057701D01*
X116680127Y-164222445D01*
X116758768Y-164376788D01*
X116860586Y-164516928D01*
X116983072Y-164639414D01*
X117123212Y-164741232D01*
X117277555Y-164819873D01*
X117442299Y-164873402D01*
X117613389Y-164900500D01*
X117613390Y-164900500D01*
X117786610Y-164900500D01*
X117786611Y-164900500D01*
X117957701Y-164873402D01*
X118122445Y-164819873D01*
X118276788Y-164741232D01*
X118416928Y-164639414D01*
X118539414Y-164516928D01*
X118641232Y-164376788D01*
X118719873Y-164222445D01*
X118773402Y-164057701D01*
X118800500Y-163886611D01*
X118800500Y-163713389D01*
X118797538Y-163694691D01*
X118806491Y-163625403D01*
X118832327Y-163587617D01*
X120503127Y-161916819D01*
X120564450Y-161883334D01*
X120590808Y-161880500D01*
X120975501Y-161880500D01*
X121042540Y-161900185D01*
X121088295Y-161952989D01*
X121099501Y-162004500D01*
X121099501Y-162177876D01*
X121105908Y-162237483D01*
X121156202Y-162372328D01*
X121156206Y-162372335D01*
X121242452Y-162487544D01*
X121242455Y-162487547D01*
X121357664Y-162573793D01*
X121357671Y-162573797D01*
X121437580Y-162603601D01*
X121493514Y-162645472D01*
X121517931Y-162710936D01*
X121503080Y-162779209D01*
X121481929Y-162807463D01*
X121431756Y-162857636D01*
X121431752Y-162857641D01*
X121302187Y-163035974D01*
X121202104Y-163232393D01*
X121202103Y-163232396D01*
X121133985Y-163442047D01*
X121099500Y-163659778D01*
X121099500Y-163880221D01*
X121133985Y-164097952D01*
X121202103Y-164307603D01*
X121202104Y-164307606D01*
X121302187Y-164504025D01*
X121431752Y-164682358D01*
X121431756Y-164682363D01*
X121587636Y-164838243D01*
X121587641Y-164838247D01*
X121672638Y-164900000D01*
X121765978Y-164967815D01*
X121894375Y-165033237D01*
X121962393Y-165067895D01*
X121962396Y-165067896D01*
X122067221Y-165101955D01*
X122172049Y-165136015D01*
X122389778Y-165170500D01*
X122389779Y-165170500D01*
X122610221Y-165170500D01*
X122610222Y-165170500D01*
X122827951Y-165136015D01*
X123037606Y-165067895D01*
X123234022Y-164967815D01*
X123412365Y-164838242D01*
X123568242Y-164682365D01*
X123697815Y-164504022D01*
X123797895Y-164307606D01*
X123866015Y-164097951D01*
X123900500Y-163880222D01*
X123900500Y-163659778D01*
X123866015Y-163442049D01*
X123824843Y-163315332D01*
X123797896Y-163232396D01*
X123797895Y-163232393D01*
X123744229Y-163127070D01*
X123697815Y-163035978D01*
X123675008Y-163004586D01*
X123568247Y-162857641D01*
X123568243Y-162857636D01*
X123518071Y-162807464D01*
X123484586Y-162746141D01*
X123489570Y-162676449D01*
X123531442Y-162620516D01*
X123562420Y-162603601D01*
X123642326Y-162573798D01*
X123642326Y-162573797D01*
X123642331Y-162573796D01*
X123757546Y-162487546D01*
X123843796Y-162372331D01*
X123894091Y-162237483D01*
X123900500Y-162177873D01*
X123900499Y-160282128D01*
X123894091Y-160222517D01*
X123843796Y-160087669D01*
X123843795Y-160087668D01*
X123843793Y-160087664D01*
X123757547Y-159972455D01*
X123757544Y-159972452D01*
X123642335Y-159886206D01*
X123642328Y-159886202D01*
X123507482Y-159835908D01*
X123507483Y-159835908D01*
X123447883Y-159829501D01*
X123447881Y-159829500D01*
X123447873Y-159829500D01*
X123447864Y-159829500D01*
X121552129Y-159829500D01*
X121552123Y-159829501D01*
X121492516Y-159835908D01*
X121357671Y-159886202D01*
X121357664Y-159886206D01*
X121242455Y-159972452D01*
X121242452Y-159972455D01*
X121156206Y-160087664D01*
X121156202Y-160087671D01*
X121105908Y-160222517D01*
X121099501Y-160282116D01*
X121099501Y-160282123D01*
X121099500Y-160282135D01*
X121099500Y-160455500D01*
X121079815Y-160522539D01*
X121027011Y-160568294D01*
X120975500Y-160579500D01*
X120205929Y-160579500D01*
X120080261Y-160604497D01*
X120080255Y-160604499D01*
X119961874Y-160653534D01*
X119855326Y-160724726D01*
X117912384Y-162667668D01*
X117851061Y-162701153D01*
X117805306Y-162702460D01*
X117786617Y-162699500D01*
X117786611Y-162699500D01*
X117613389Y-162699500D01*
X117573728Y-162705781D01*
X117442302Y-162726597D01*
X117277552Y-162780128D01*
X117123211Y-162858768D01*
X117055852Y-162907708D01*
X116983072Y-162960586D01*
X116983070Y-162960588D01*
X116983069Y-162960588D01*
X116860588Y-163083069D01*
X116860588Y-163083070D01*
X116860586Y-163083072D01*
X116828618Y-163127072D01*
X116758768Y-163223211D01*
X116680128Y-163377552D01*
X116626597Y-163542302D01*
X116603267Y-163689606D01*
X116599500Y-163713389D01*
X106099994Y-163713389D01*
X106072914Y-163542415D01*
X106019408Y-163377742D01*
X105940801Y-163223471D01*
X105936290Y-163217262D01*
X105936289Y-163217261D01*
X105400000Y-163753551D01*
X105400000Y-163747339D01*
X105372741Y-163645606D01*
X105320080Y-163554394D01*
X105245606Y-163479920D01*
X105154394Y-163427259D01*
X105052661Y-163400000D01*
X105046447Y-163400000D01*
X105582737Y-162863709D01*
X105576525Y-162859196D01*
X105422259Y-162780592D01*
X105257584Y-162727085D01*
X105086571Y-162700000D01*
X104913429Y-162700000D01*
X104742415Y-162727085D01*
X104577740Y-162780592D01*
X104423480Y-162859193D01*
X104423463Y-162859203D01*
X104417261Y-162863708D01*
X104417261Y-162863709D01*
X104953554Y-163400000D01*
X104947339Y-163400000D01*
X104845606Y-163427259D01*
X104754394Y-163479920D01*
X104679920Y-163554394D01*
X104627259Y-163645606D01*
X104600000Y-163747339D01*
X104600000Y-163753552D01*
X104063709Y-163217261D01*
X104063708Y-163217261D01*
X104059203Y-163223463D01*
X104059193Y-163223480D01*
X103980592Y-163377740D01*
X103927085Y-163542415D01*
X103900000Y-163713428D01*
X103550500Y-163713428D01*
X103550500Y-157239947D01*
X109579500Y-157239947D01*
X109579500Y-157472052D01*
X109606007Y-157673386D01*
X109609794Y-157702149D01*
X109621584Y-157746149D01*
X109669862Y-157926328D01*
X109758677Y-158140745D01*
X109758685Y-158140762D01*
X109874720Y-158341743D01*
X109874721Y-158341745D01*
X110016009Y-158525875D01*
X110016015Y-158525882D01*
X110180117Y-158689984D01*
X110180124Y-158689990D01*
X110364254Y-158831278D01*
X110364256Y-158831279D01*
X110565237Y-158947314D01*
X110565240Y-158947315D01*
X110565248Y-158947320D01*
X110779670Y-159036137D01*
X111003851Y-159096206D01*
X111233955Y-159126500D01*
X111233962Y-159126500D01*
X111466038Y-159126500D01*
X111466045Y-159126500D01*
X111696149Y-159096206D01*
X111920330Y-159036137D01*
X112134752Y-158947320D01*
X112335748Y-158831276D01*
X112519877Y-158689989D01*
X112683989Y-158525877D01*
X112825276Y-158341748D01*
X112941320Y-158140752D01*
X113030137Y-157926330D01*
X113090206Y-157702149D01*
X113120500Y-157472045D01*
X113120500Y-157283947D01*
X137379500Y-157283947D01*
X137379500Y-157516052D01*
X137409794Y-157746148D01*
X137469862Y-157970328D01*
X137558677Y-158184745D01*
X137558685Y-158184762D01*
X137674720Y-158385743D01*
X137674721Y-158385745D01*
X137816009Y-158569875D01*
X137816015Y-158569882D01*
X137980117Y-158733984D01*
X137980124Y-158733990D01*
X138164254Y-158875278D01*
X138164256Y-158875279D01*
X138365237Y-158991314D01*
X138365240Y-158991315D01*
X138365248Y-158991320D01*
X138579670Y-159080137D01*
X138803851Y-159140206D01*
X139033955Y-159170500D01*
X139033962Y-159170500D01*
X139266038Y-159170500D01*
X139266045Y-159170500D01*
X139496149Y-159140206D01*
X139720330Y-159080137D01*
X139934752Y-158991320D01*
X140135748Y-158875276D01*
X140319877Y-158733989D01*
X140483989Y-158569877D01*
X140625276Y-158385748D01*
X140741320Y-158184752D01*
X140830137Y-157970330D01*
X140890206Y-157746149D01*
X140920500Y-157516045D01*
X140920500Y-157283955D01*
X140890206Y-157053851D01*
X140830137Y-156829670D01*
X140741320Y-156615248D01*
X140741314Y-156615237D01*
X140625279Y-156414256D01*
X140625278Y-156414254D01*
X140483990Y-156230124D01*
X140483984Y-156230117D01*
X140319882Y-156066015D01*
X140319875Y-156066009D01*
X140135745Y-155924721D01*
X140135743Y-155924720D01*
X139934762Y-155808685D01*
X139934754Y-155808681D01*
X139934752Y-155808680D01*
X139934745Y-155808677D01*
X139720328Y-155719862D01*
X139556119Y-155675863D01*
X139496149Y-155659794D01*
X139467386Y-155656007D01*
X139266052Y-155629500D01*
X139266045Y-155629500D01*
X139033955Y-155629500D01*
X139033947Y-155629500D01*
X138803851Y-155659794D01*
X138579671Y-155719862D01*
X138365254Y-155808677D01*
X138365237Y-155808685D01*
X138164256Y-155924720D01*
X138164254Y-155924721D01*
X137980124Y-156066009D01*
X137980117Y-156066015D01*
X137816015Y-156230117D01*
X137816009Y-156230124D01*
X137674721Y-156414254D01*
X137674720Y-156414256D01*
X137558685Y-156615237D01*
X137558677Y-156615254D01*
X137469862Y-156829671D01*
X137409794Y-157053851D01*
X137379500Y-157283947D01*
X113120500Y-157283947D01*
X113120500Y-157239955D01*
X113090206Y-157009851D01*
X113030137Y-156785670D01*
X112941320Y-156571248D01*
X112941314Y-156571237D01*
X112825279Y-156370256D01*
X112825278Y-156370254D01*
X112683990Y-156186124D01*
X112683984Y-156186117D01*
X112519882Y-156022015D01*
X112519875Y-156022009D01*
X112335745Y-155880721D01*
X112335743Y-155880720D01*
X112134762Y-155764685D01*
X112134754Y-155764681D01*
X112134752Y-155764680D01*
X112026555Y-155719863D01*
X111920328Y-155675862D01*
X111778203Y-155637780D01*
X111696149Y-155615794D01*
X111667386Y-155612007D01*
X111466052Y-155585500D01*
X111466045Y-155585500D01*
X111233955Y-155585500D01*
X111233947Y-155585500D01*
X111003851Y-155615794D01*
X110779671Y-155675862D01*
X110565254Y-155764677D01*
X110565237Y-155764685D01*
X110364256Y-155880720D01*
X110364254Y-155880721D01*
X110180124Y-156022009D01*
X110180117Y-156022015D01*
X110016015Y-156186117D01*
X110016009Y-156186124D01*
X109874721Y-156370254D01*
X109874720Y-156370256D01*
X109758685Y-156571237D01*
X109758677Y-156571254D01*
X109669862Y-156785671D01*
X109609794Y-157009851D01*
X109579500Y-157239947D01*
X103550500Y-157239947D01*
X103550500Y-148683947D01*
X109579500Y-148683947D01*
X109579500Y-148916052D01*
X109609794Y-149146148D01*
X109669862Y-149370328D01*
X109758677Y-149584745D01*
X109758685Y-149584762D01*
X109874720Y-149785743D01*
X109874721Y-149785745D01*
X110016009Y-149969875D01*
X110016015Y-149969882D01*
X110180117Y-150133984D01*
X110180124Y-150133990D01*
X110364254Y-150275278D01*
X110364256Y-150275279D01*
X110565237Y-150391314D01*
X110565240Y-150391315D01*
X110565248Y-150391320D01*
X110779670Y-150480137D01*
X111003851Y-150540206D01*
X111233955Y-150570500D01*
X111233962Y-150570500D01*
X111466038Y-150570500D01*
X111466045Y-150570500D01*
X111696149Y-150540206D01*
X111920330Y-150480137D01*
X112134752Y-150391320D01*
X112268749Y-150313957D01*
X112335743Y-150275279D01*
X112335745Y-150275278D01*
X112445159Y-150191322D01*
X112519877Y-150133989D01*
X112683989Y-149969877D01*
X112825276Y-149785748D01*
X112941320Y-149584752D01*
X113030137Y-149370330D01*
X113090206Y-149146149D01*
X113120500Y-148916045D01*
X113120500Y-148683955D01*
X113094168Y-148483947D01*
X137329000Y-148483947D01*
X137329000Y-148716052D01*
X137359294Y-148946148D01*
X137419362Y-149170328D01*
X137508177Y-149384745D01*
X137508185Y-149384762D01*
X137624220Y-149585743D01*
X137624221Y-149585745D01*
X137765509Y-149769875D01*
X137765515Y-149769882D01*
X137929617Y-149933984D01*
X137929624Y-149933990D01*
X138113754Y-150075278D01*
X138113756Y-150075279D01*
X138314737Y-150191314D01*
X138314740Y-150191315D01*
X138314748Y-150191320D01*
X138529170Y-150280137D01*
X138753351Y-150340206D01*
X138983455Y-150370500D01*
X138983462Y-150370500D01*
X139215538Y-150370500D01*
X139215545Y-150370500D01*
X139445649Y-150340206D01*
X139669830Y-150280137D01*
X139884252Y-150191320D01*
X140085248Y-150075276D01*
X140269377Y-149933989D01*
X140433489Y-149769877D01*
X140574776Y-149585748D01*
X140690820Y-149384752D01*
X140779637Y-149170330D01*
X140839706Y-148946149D01*
X140870000Y-148716045D01*
X140870000Y-148483955D01*
X140839706Y-148253851D01*
X140779637Y-148029670D01*
X140690820Y-147815248D01*
X140690814Y-147815237D01*
X140574779Y-147614256D01*
X140574778Y-147614254D01*
X140433490Y-147430124D01*
X140433484Y-147430117D01*
X140269382Y-147266015D01*
X140269375Y-147266009D01*
X140085245Y-147124721D01*
X140085243Y-147124720D01*
X139884262Y-147008685D01*
X139884254Y-147008681D01*
X139884252Y-147008680D01*
X139669830Y-146919863D01*
X139669831Y-146919863D01*
X139669828Y-146919862D01*
X139527703Y-146881780D01*
X139445649Y-146859794D01*
X139416886Y-146856007D01*
X139215552Y-146829500D01*
X139215545Y-146829500D01*
X138983455Y-146829500D01*
X138983447Y-146829500D01*
X138753351Y-146859794D01*
X138529171Y-146919862D01*
X138314754Y-147008677D01*
X138314737Y-147008685D01*
X138113756Y-147124720D01*
X138113754Y-147124721D01*
X137929624Y-147266009D01*
X137929617Y-147266015D01*
X137765515Y-147430117D01*
X137765509Y-147430124D01*
X137624221Y-147614254D01*
X137624220Y-147614256D01*
X137508185Y-147815237D01*
X137508177Y-147815254D01*
X137419362Y-148029671D01*
X137359294Y-148253851D01*
X137329000Y-148483947D01*
X113094168Y-148483947D01*
X113090206Y-148453851D01*
X113030137Y-148229670D01*
X112941320Y-148015248D01*
X112941314Y-148015237D01*
X112825279Y-147814256D01*
X112825278Y-147814254D01*
X112683990Y-147630124D01*
X112683984Y-147630117D01*
X112519882Y-147466015D01*
X112519875Y-147466009D01*
X112335745Y-147324721D01*
X112335743Y-147324720D01*
X112134762Y-147208685D01*
X112134754Y-147208681D01*
X112134752Y-147208680D01*
X112134745Y-147208677D01*
X111920328Y-147119862D01*
X111778203Y-147081780D01*
X111696149Y-147059794D01*
X111667386Y-147056007D01*
X111466052Y-147029500D01*
X111466045Y-147029500D01*
X111233955Y-147029500D01*
X111233947Y-147029500D01*
X111003851Y-147059794D01*
X110779671Y-147119862D01*
X110565254Y-147208677D01*
X110565237Y-147208685D01*
X110364256Y-147324720D01*
X110364254Y-147324721D01*
X110180124Y-147466009D01*
X110180117Y-147466015D01*
X110016015Y-147630117D01*
X110016009Y-147630124D01*
X109874721Y-147814254D01*
X109874720Y-147814256D01*
X109758685Y-148015237D01*
X109758677Y-148015254D01*
X109669862Y-148229671D01*
X109609794Y-148453851D01*
X109579500Y-148683947D01*
X103550500Y-148683947D01*
X103550500Y-126250806D01*
X103570185Y-126183767D01*
X103586814Y-126163130D01*
X115899289Y-113850654D01*
X115960610Y-113817171D01*
X116008753Y-113817693D01*
X116008945Y-113816484D01*
X116113888Y-113833105D01*
X116223713Y-113850500D01*
X116223714Y-113850500D01*
X116436286Y-113850500D01*
X116436287Y-113850500D01*
X116646243Y-113817246D01*
X116848412Y-113751557D01*
X117037816Y-113655051D01*
X117124138Y-113592335D01*
X117209786Y-113530109D01*
X117209788Y-113530106D01*
X117209792Y-113530104D01*
X117360104Y-113379792D01*
X117360106Y-113379788D01*
X117360109Y-113379786D01*
X117485048Y-113207820D01*
X117485047Y-113207820D01*
X117485051Y-113207816D01*
X117489514Y-113199054D01*
X117537488Y-113148259D01*
X117605308Y-113131463D01*
X117671444Y-113153999D01*
X117710486Y-113199056D01*
X117714951Y-113207820D01*
X117839890Y-113379786D01*
X117990213Y-113530109D01*
X118162179Y-113655048D01*
X118162181Y-113655049D01*
X118162184Y-113655051D01*
X118351588Y-113751557D01*
X118553757Y-113817246D01*
X118763713Y-113850500D01*
X118763714Y-113850500D01*
X118840191Y-113850500D01*
X118907230Y-113870185D01*
X118952985Y-113922989D01*
X118962929Y-113992147D01*
X118933904Y-114055703D01*
X118927872Y-114062181D01*
X106094727Y-126895325D01*
X106094726Y-126895326D01*
X106023534Y-127001874D01*
X105974499Y-127120255D01*
X105974497Y-127120261D01*
X105949500Y-127245928D01*
X105949500Y-134596689D01*
X105929815Y-134663728D01*
X105913181Y-134684370D01*
X105400000Y-135197551D01*
X105400000Y-135191339D01*
X105372741Y-135089606D01*
X105320080Y-134998394D01*
X105245606Y-134923920D01*
X105154394Y-134871259D01*
X105052661Y-134844000D01*
X105046447Y-134844000D01*
X105582737Y-134307709D01*
X105576525Y-134303196D01*
X105422259Y-134224592D01*
X105257584Y-134171085D01*
X105086571Y-134144000D01*
X104913429Y-134144000D01*
X104742415Y-134171085D01*
X104577740Y-134224592D01*
X104423480Y-134303193D01*
X104423463Y-134303203D01*
X104417261Y-134307708D01*
X104417261Y-134307709D01*
X104953554Y-134844000D01*
X104947339Y-134844000D01*
X104845606Y-134871259D01*
X104754394Y-134923920D01*
X104679920Y-134998394D01*
X104627259Y-135089606D01*
X104600000Y-135191339D01*
X104600000Y-135197552D01*
X104063709Y-134661261D01*
X104063708Y-134661261D01*
X104059203Y-134667463D01*
X104059193Y-134667480D01*
X103980592Y-134821740D01*
X103927085Y-134986415D01*
X103900000Y-135157428D01*
X103900000Y-135330571D01*
X103927085Y-135501584D01*
X103980592Y-135666259D01*
X104059196Y-135820525D01*
X104063709Y-135826736D01*
X104063709Y-135826737D01*
X104600000Y-135290446D01*
X104600000Y-135296661D01*
X104627259Y-135398394D01*
X104679920Y-135489606D01*
X104754394Y-135564080D01*
X104845606Y-135616741D01*
X104947339Y-135644000D01*
X104953553Y-135644000D01*
X104417261Y-136180289D01*
X104417262Y-136180290D01*
X104423471Y-136184801D01*
X104577742Y-136263408D01*
X104742415Y-136316914D01*
X104913429Y-136344000D01*
X105086571Y-136344000D01*
X105257584Y-136316914D01*
X105422257Y-136263408D01*
X105576525Y-136184803D01*
X105582736Y-136180289D01*
X105582737Y-136180289D01*
X105046448Y-135644000D01*
X105052661Y-135644000D01*
X105154394Y-135616741D01*
X105245606Y-135564080D01*
X105320080Y-135489606D01*
X105372741Y-135398394D01*
X105400000Y-135296661D01*
X105400000Y-135290448D01*
X105913181Y-135803629D01*
X105946666Y-135864952D01*
X105949500Y-135891310D01*
X105949500Y-137893796D01*
X105929815Y-137960835D01*
X105877011Y-138006590D01*
X105807853Y-138016534D01*
X105744297Y-137987509D01*
X105737819Y-137981477D01*
X105716930Y-137960588D01*
X105716928Y-137960586D01*
X105576788Y-137858768D01*
X105422445Y-137780127D01*
X105257701Y-137726598D01*
X105257699Y-137726597D01*
X105257698Y-137726597D01*
X105126271Y-137705781D01*
X105086611Y-137699500D01*
X104913389Y-137699500D01*
X104873728Y-137705781D01*
X104742302Y-137726597D01*
X104577552Y-137780128D01*
X104423211Y-137858768D01*
X104375000Y-137893796D01*
X104283072Y-137960586D01*
X104283070Y-137960588D01*
X104283069Y-137960588D01*
X104160588Y-138083069D01*
X104160588Y-138083070D01*
X104160586Y-138083072D01*
X104116859Y-138143256D01*
X104058768Y-138223211D01*
X103980128Y-138377552D01*
X103926597Y-138542302D01*
X103899500Y-138713389D01*
X103899500Y-138886610D01*
X103920984Y-139022259D01*
X103926598Y-139057701D01*
X103980127Y-139222445D01*
X104058768Y-139376788D01*
X104160586Y-139516928D01*
X104283072Y-139639414D01*
X104423212Y-139741232D01*
X104577555Y-139819873D01*
X104742299Y-139873402D01*
X104913389Y-139900500D01*
X104913390Y-139900500D01*
X105086610Y-139900500D01*
X105086611Y-139900500D01*
X105257701Y-139873402D01*
X105422445Y-139819873D01*
X105576788Y-139741232D01*
X105716928Y-139639414D01*
X105737819Y-139618523D01*
X105799142Y-139585038D01*
X105868834Y-139590022D01*
X105924767Y-139631894D01*
X105949184Y-139697358D01*
X105949500Y-139706204D01*
X105949500Y-140435191D01*
X105929815Y-140502230D01*
X105913181Y-140522872D01*
X105216871Y-141219181D01*
X105155548Y-141252666D01*
X105129190Y-141255500D01*
X104352129Y-141255500D01*
X104352123Y-141255501D01*
X104292516Y-141261908D01*
X104157671Y-141312202D01*
X104157664Y-141312206D01*
X104042455Y-141398452D01*
X104042452Y-141398455D01*
X103956206Y-141513664D01*
X103956202Y-141513671D01*
X103905908Y-141648517D01*
X103899501Y-141708116D01*
X103899500Y-141708135D01*
X103899500Y-143003870D01*
X103899501Y-143003876D01*
X103905908Y-143063483D01*
X103956202Y-143198328D01*
X103956206Y-143198335D01*
X104042452Y-143313544D01*
X104042455Y-143313547D01*
X104157664Y-143399793D01*
X104157671Y-143399797D01*
X104292517Y-143450091D01*
X104292516Y-143450091D01*
X104299444Y-143450835D01*
X104352127Y-143456500D01*
X105647872Y-143456499D01*
X105707483Y-143450091D01*
X105842331Y-143399796D01*
X105957546Y-143313546D01*
X106043796Y-143198331D01*
X106094091Y-143063483D01*
X106100500Y-143003873D01*
X106100499Y-142269389D01*
X116599500Y-142269389D01*
X116599500Y-142442610D01*
X116620984Y-142578259D01*
X116626598Y-142613701D01*
X116680127Y-142778445D01*
X116758768Y-142932788D01*
X116860586Y-143072928D01*
X116983072Y-143195414D01*
X117123212Y-143297232D01*
X117277555Y-143375873D01*
X117442299Y-143429402D01*
X117613389Y-143456500D01*
X117613390Y-143456500D01*
X117786610Y-143456500D01*
X117786611Y-143456500D01*
X117957701Y-143429402D01*
X118122445Y-143375873D01*
X118276788Y-143297232D01*
X118416928Y-143195414D01*
X118539414Y-143072928D01*
X118589586Y-143003872D01*
X118591226Y-143001615D01*
X118646556Y-142958949D01*
X118691544Y-142950500D01*
X121601833Y-142950500D01*
X121635008Y-142960241D01*
X121668417Y-142969893D01*
X121668661Y-142970123D01*
X121668872Y-142970185D01*
X121695191Y-142992889D01*
X121698868Y-142997095D01*
X121731758Y-143042365D01*
X121784874Y-143095481D01*
X121787605Y-143098605D01*
X121800585Y-143126704D01*
X121815413Y-143153858D01*
X121815106Y-143158137D01*
X121816907Y-143162034D01*
X121812636Y-143192684D01*
X121810429Y-143223550D01*
X121807857Y-143226985D01*
X121807265Y-143231235D01*
X121787101Y-143254711D01*
X121768557Y-143279483D01*
X121763411Y-143282292D01*
X121761741Y-143284238D01*
X121757570Y-143285482D01*
X121737581Y-143296398D01*
X121657669Y-143326203D01*
X121657664Y-143326206D01*
X121542455Y-143412452D01*
X121542452Y-143412455D01*
X121456206Y-143527664D01*
X121456202Y-143527671D01*
X121405908Y-143662517D01*
X121399501Y-143722116D01*
X121399501Y-143722123D01*
X121399500Y-143722135D01*
X121399500Y-145617870D01*
X121399501Y-145617876D01*
X121405908Y-145677483D01*
X121456202Y-145812328D01*
X121456206Y-145812335D01*
X121542452Y-145927544D01*
X121542455Y-145927547D01*
X121657664Y-146013793D01*
X121657671Y-146013797D01*
X121792517Y-146064091D01*
X121792516Y-146064091D01*
X121799444Y-146064835D01*
X121852127Y-146070500D01*
X123747872Y-146070499D01*
X123807483Y-146064091D01*
X123942331Y-146013796D01*
X124057546Y-145927546D01*
X124143796Y-145812331D01*
X124194091Y-145677483D01*
X124200500Y-145617873D01*
X124200499Y-144564306D01*
X124220183Y-144497268D01*
X124236813Y-144476631D01*
X126247131Y-142466313D01*
X126308452Y-142432830D01*
X126378144Y-142437814D01*
X126434077Y-142479686D01*
X126452741Y-142515678D01*
X126502103Y-142667603D01*
X126502104Y-142667606D01*
X126538348Y-142738737D01*
X126598919Y-142857613D01*
X126602187Y-142864025D01*
X126731752Y-143042358D01*
X126731756Y-143042363D01*
X126781928Y-143092535D01*
X126815413Y-143153858D01*
X126810429Y-143223550D01*
X126768557Y-143279483D01*
X126737581Y-143296398D01*
X126657669Y-143326203D01*
X126657664Y-143326206D01*
X126542455Y-143412452D01*
X126542452Y-143412455D01*
X126456206Y-143527664D01*
X126456202Y-143527671D01*
X126405908Y-143662517D01*
X126399501Y-143722116D01*
X126399501Y-143722123D01*
X126399500Y-143722135D01*
X126399500Y-145617870D01*
X126399501Y-145617876D01*
X126405908Y-145677483D01*
X126456202Y-145812328D01*
X126456206Y-145812335D01*
X126542452Y-145927544D01*
X126542455Y-145927547D01*
X126657664Y-146013793D01*
X126657671Y-146013797D01*
X126792517Y-146064091D01*
X126792516Y-146064091D01*
X126799444Y-146064835D01*
X126852127Y-146070500D01*
X128747872Y-146070499D01*
X128807483Y-146064091D01*
X128942331Y-146013796D01*
X129057546Y-145927546D01*
X129143796Y-145812331D01*
X129194091Y-145677483D01*
X129200500Y-145617873D01*
X129200499Y-143722128D01*
X129194091Y-143662517D01*
X129143796Y-143527669D01*
X129143795Y-143527668D01*
X129143793Y-143527664D01*
X129057547Y-143412455D01*
X129057544Y-143412452D01*
X128942335Y-143326206D01*
X128942328Y-143326202D01*
X128862419Y-143296398D01*
X128806485Y-143254527D01*
X128782068Y-143189062D01*
X128796920Y-143120789D01*
X128818069Y-143092537D01*
X128868242Y-143042365D01*
X128896210Y-143003870D01*
X129000679Y-142860081D01*
X129001968Y-142861017D01*
X129048587Y-142818837D01*
X129102508Y-142806500D01*
X131798642Y-142806500D01*
X131865681Y-142826185D01*
X131898959Y-142857613D01*
X131903617Y-142864025D01*
X131910086Y-142872928D01*
X132032572Y-142995414D01*
X132172712Y-143097232D01*
X132327055Y-143175873D01*
X132491799Y-143229402D01*
X132662889Y-143256500D01*
X132662890Y-143256500D01*
X132836110Y-143256500D01*
X132836111Y-143256500D01*
X133007201Y-143229402D01*
X133171945Y-143175873D01*
X133326288Y-143097232D01*
X133466428Y-142995414D01*
X133588914Y-142872928D01*
X133690732Y-142732788D01*
X133769373Y-142578445D01*
X133822902Y-142413701D01*
X133850000Y-142242611D01*
X133850000Y-142069428D01*
X144349500Y-142069428D01*
X144349500Y-142242571D01*
X144376585Y-142413584D01*
X144430092Y-142578259D01*
X144508696Y-142732525D01*
X144513209Y-142738736D01*
X144513209Y-142738737D01*
X145049500Y-142202446D01*
X145049500Y-142208661D01*
X145076759Y-142310394D01*
X145129420Y-142401606D01*
X145203894Y-142476080D01*
X145295106Y-142528741D01*
X145396839Y-142556000D01*
X145403053Y-142556000D01*
X144866761Y-143092289D01*
X144866762Y-143092290D01*
X144872971Y-143096801D01*
X145027242Y-143175408D01*
X145191915Y-143228914D01*
X145362929Y-143256000D01*
X145536071Y-143256000D01*
X145707084Y-143228914D01*
X145871757Y-143175408D01*
X146026025Y-143096803D01*
X146032236Y-143092289D01*
X146032237Y-143092289D01*
X145495948Y-142556000D01*
X145502161Y-142556000D01*
X145603894Y-142528741D01*
X145695106Y-142476080D01*
X145769580Y-142401606D01*
X145822241Y-142310394D01*
X145849500Y-142208661D01*
X145849500Y-142202448D01*
X146385789Y-142738737D01*
X146385789Y-142738736D01*
X146390303Y-142732525D01*
X146468908Y-142578257D01*
X146522414Y-142413584D01*
X146549500Y-142242571D01*
X146549500Y-142069428D01*
X146522414Y-141898415D01*
X146468908Y-141733742D01*
X146390301Y-141579471D01*
X146385790Y-141573262D01*
X146385789Y-141573261D01*
X145849500Y-142109551D01*
X145849500Y-142103339D01*
X145822241Y-142001606D01*
X145769580Y-141910394D01*
X145695106Y-141835920D01*
X145603894Y-141783259D01*
X145502161Y-141756000D01*
X145495947Y-141756000D01*
X146032237Y-141219709D01*
X146026025Y-141215196D01*
X145871759Y-141136592D01*
X145707084Y-141083085D01*
X145536071Y-141056000D01*
X145362929Y-141056000D01*
X145191915Y-141083085D01*
X145027240Y-141136592D01*
X144872980Y-141215193D01*
X144872963Y-141215203D01*
X144866761Y-141219708D01*
X144866761Y-141219709D01*
X145403054Y-141756000D01*
X145396839Y-141756000D01*
X145295106Y-141783259D01*
X145203894Y-141835920D01*
X145129420Y-141910394D01*
X145076759Y-142001606D01*
X145049500Y-142103339D01*
X145049500Y-142109552D01*
X144513209Y-141573261D01*
X144513208Y-141573261D01*
X144508703Y-141579463D01*
X144508693Y-141579480D01*
X144430092Y-141733740D01*
X144376585Y-141898415D01*
X144349500Y-142069428D01*
X133850000Y-142069428D01*
X133850000Y-142069389D01*
X133822902Y-141898299D01*
X133769373Y-141733555D01*
X133690732Y-141579212D01*
X133588914Y-141439072D01*
X133466428Y-141316586D01*
X133326288Y-141214768D01*
X133171945Y-141136127D01*
X133007201Y-141082598D01*
X133007199Y-141082597D01*
X133007198Y-141082597D01*
X132875585Y-141061752D01*
X132836111Y-141055500D01*
X132662889Y-141055500D01*
X132623415Y-141061752D01*
X132491802Y-141082597D01*
X132327052Y-141136128D01*
X132172711Y-141214768D01*
X132107828Y-141261909D01*
X132032572Y-141316586D01*
X132032570Y-141316588D01*
X132032569Y-141316588D01*
X131910085Y-141439072D01*
X131898959Y-141454387D01*
X131843628Y-141497052D01*
X131798642Y-141505500D01*
X129129607Y-141505500D01*
X129062568Y-141485815D01*
X129019123Y-141437795D01*
X128997816Y-141395979D01*
X128997815Y-141395978D01*
X128868247Y-141217641D01*
X128868243Y-141217636D01*
X128712363Y-141061756D01*
X128712358Y-141061752D01*
X128534025Y-140932187D01*
X128534024Y-140932186D01*
X128534022Y-140932185D01*
X128471096Y-140900122D01*
X128337606Y-140832104D01*
X128337603Y-140832103D01*
X128185678Y-140782741D01*
X128128003Y-140743304D01*
X128100804Y-140678945D01*
X128112718Y-140610099D01*
X128136312Y-140577132D01*
X130200016Y-138513428D01*
X131649500Y-138513428D01*
X131649500Y-138686571D01*
X131676585Y-138857584D01*
X131730092Y-139022259D01*
X131808696Y-139176525D01*
X131813209Y-139182736D01*
X131813209Y-139182737D01*
X132349500Y-138646446D01*
X132349500Y-138652661D01*
X132376759Y-138754394D01*
X132429420Y-138845606D01*
X132503894Y-138920080D01*
X132595106Y-138972741D01*
X132696839Y-139000000D01*
X132703053Y-139000000D01*
X132166761Y-139536289D01*
X132166762Y-139536290D01*
X132172971Y-139540801D01*
X132327242Y-139619408D01*
X132491915Y-139672914D01*
X132662929Y-139700000D01*
X132836071Y-139700000D01*
X133007084Y-139672914D01*
X133171757Y-139619408D01*
X133326025Y-139540803D01*
X133332236Y-139536289D01*
X133332237Y-139536289D01*
X132795948Y-139000000D01*
X132802161Y-139000000D01*
X132903894Y-138972741D01*
X132995106Y-138920080D01*
X133069580Y-138845606D01*
X133122241Y-138754394D01*
X133149500Y-138652661D01*
X133149500Y-138646448D01*
X133685789Y-139182737D01*
X133685789Y-139182736D01*
X133690303Y-139176525D01*
X133768908Y-139022257D01*
X133822414Y-138857584D01*
X133849500Y-138686571D01*
X133849500Y-138513428D01*
X133849494Y-138513389D01*
X144349000Y-138513389D01*
X144349000Y-138686611D01*
X144376098Y-138857701D01*
X144429627Y-139022445D01*
X144508268Y-139176788D01*
X144610086Y-139316928D01*
X144732572Y-139439414D01*
X144872712Y-139541232D01*
X145027055Y-139619873D01*
X145191799Y-139673402D01*
X145362889Y-139700500D01*
X145362890Y-139700500D01*
X145536110Y-139700500D01*
X145536111Y-139700500D01*
X145707201Y-139673402D01*
X145871945Y-139619873D01*
X146026288Y-139541232D01*
X146166428Y-139439414D01*
X146288914Y-139316928D01*
X146390732Y-139176788D01*
X146469373Y-139022445D01*
X146522902Y-138857701D01*
X146550000Y-138686611D01*
X146550000Y-138513389D01*
X146522902Y-138342299D01*
X146469373Y-138177555D01*
X146390732Y-138023212D01*
X146288914Y-137883072D01*
X146166428Y-137760586D01*
X146026288Y-137658768D01*
X145871945Y-137580127D01*
X145707201Y-137526598D01*
X145707199Y-137526597D01*
X145707198Y-137526597D01*
X145575771Y-137505781D01*
X145536111Y-137499500D01*
X145362889Y-137499500D01*
X145323228Y-137505781D01*
X145191802Y-137526597D01*
X145027052Y-137580128D01*
X144872711Y-137658768D01*
X144816649Y-137699500D01*
X144732572Y-137760586D01*
X144732570Y-137760588D01*
X144732569Y-137760588D01*
X144610088Y-137883069D01*
X144610088Y-137883070D01*
X144610086Y-137883072D01*
X144602295Y-137893796D01*
X144508268Y-138023211D01*
X144429628Y-138177552D01*
X144376097Y-138342302D01*
X144374182Y-138354394D01*
X144349000Y-138513389D01*
X133849494Y-138513389D01*
X133822414Y-138342415D01*
X133768908Y-138177742D01*
X133690301Y-138023471D01*
X133685790Y-138017262D01*
X133685789Y-138017261D01*
X133149500Y-138553551D01*
X133149500Y-138547339D01*
X133122241Y-138445606D01*
X133069580Y-138354394D01*
X132995106Y-138279920D01*
X132903894Y-138227259D01*
X132802161Y-138200000D01*
X132795947Y-138200000D01*
X133332237Y-137663709D01*
X133326025Y-137659196D01*
X133171759Y-137580592D01*
X133007084Y-137527085D01*
X132836071Y-137500000D01*
X132662929Y-137500000D01*
X132491915Y-137527085D01*
X132327240Y-137580592D01*
X132172980Y-137659193D01*
X132172963Y-137659203D01*
X132166761Y-137663708D01*
X132166761Y-137663709D01*
X132703054Y-138200000D01*
X132696839Y-138200000D01*
X132595106Y-138227259D01*
X132503894Y-138279920D01*
X132429420Y-138354394D01*
X132376759Y-138445606D01*
X132349500Y-138547339D01*
X132349500Y-138553552D01*
X131813209Y-138017261D01*
X131813208Y-138017261D01*
X131808703Y-138023463D01*
X131808693Y-138023480D01*
X131730092Y-138177740D01*
X131676585Y-138342415D01*
X131649500Y-138513428D01*
X130200016Y-138513428D01*
X132537116Y-136176328D01*
X132598437Y-136142845D01*
X132644189Y-136141538D01*
X132662889Y-136144500D01*
X132662894Y-136144500D01*
X132836110Y-136144500D01*
X132836111Y-136144500D01*
X133007201Y-136117402D01*
X133171945Y-136063873D01*
X133326288Y-135985232D01*
X133466428Y-135883414D01*
X133588914Y-135760928D01*
X133690732Y-135620788D01*
X133769373Y-135466445D01*
X133822902Y-135301701D01*
X133850000Y-135130611D01*
X133850000Y-134957389D01*
X133822902Y-134786299D01*
X133769373Y-134621555D01*
X133690732Y-134467212D01*
X133690730Y-134467209D01*
X133690729Y-134467207D01*
X133689630Y-134465693D01*
X133689628Y-134465692D01*
X133639091Y-134396135D01*
X144349000Y-134396135D01*
X144349000Y-135691870D01*
X144349001Y-135691876D01*
X144355408Y-135751483D01*
X144405702Y-135886328D01*
X144405706Y-135886335D01*
X144491952Y-136001544D01*
X144491955Y-136001547D01*
X144607164Y-136087793D01*
X144607171Y-136087797D01*
X144742017Y-136138091D01*
X144742016Y-136138091D01*
X144748944Y-136138835D01*
X144801627Y-136144500D01*
X146097372Y-136144499D01*
X146156983Y-136138091D01*
X146291831Y-136087796D01*
X146407046Y-136001546D01*
X146493296Y-135886331D01*
X146543591Y-135751483D01*
X146550000Y-135691873D01*
X146549999Y-134396128D01*
X146543591Y-134336517D01*
X146540068Y-134327072D01*
X146493297Y-134201671D01*
X146493293Y-134201664D01*
X146407047Y-134086455D01*
X146407044Y-134086452D01*
X146291835Y-134000206D01*
X146291828Y-134000202D01*
X146156982Y-133949908D01*
X146156983Y-133949908D01*
X146097383Y-133943501D01*
X146097381Y-133943500D01*
X146097373Y-133943500D01*
X146097364Y-133943500D01*
X144801629Y-133943500D01*
X144801623Y-133943501D01*
X144742016Y-133949908D01*
X144607171Y-134000202D01*
X144607164Y-134000206D01*
X144491955Y-134086452D01*
X144491952Y-134086455D01*
X144405706Y-134201664D01*
X144405702Y-134201671D01*
X144355408Y-134336517D01*
X144349001Y-134396116D01*
X144349001Y-134396123D01*
X144349000Y-134396135D01*
X133639091Y-134396135D01*
X133639086Y-134396128D01*
X133588914Y-134327072D01*
X133466428Y-134204586D01*
X133326288Y-134102768D01*
X133171945Y-134024127D01*
X133007201Y-133970598D01*
X133007199Y-133970597D01*
X133007198Y-133970597D01*
X132875771Y-133949781D01*
X132836111Y-133943500D01*
X132662889Y-133943500D01*
X132623228Y-133949781D01*
X132491802Y-133970597D01*
X132327052Y-134024128D01*
X132172711Y-134102768D01*
X132116649Y-134143500D01*
X132032572Y-134204586D01*
X132032570Y-134204588D01*
X132032569Y-134204588D01*
X131910088Y-134327069D01*
X131910088Y-134327070D01*
X131910086Y-134327072D01*
X131903225Y-134336516D01*
X131808268Y-134467211D01*
X131729628Y-134621552D01*
X131676097Y-134786302D01*
X131649000Y-134957389D01*
X131649000Y-135130616D01*
X131651960Y-135149306D01*
X131643005Y-135218599D01*
X131617168Y-135256384D01*
X124388899Y-142484653D01*
X124327576Y-142518138D01*
X124257884Y-142513154D01*
X124201951Y-142471282D01*
X124177534Y-142405818D01*
X124178744Y-142377578D01*
X124200500Y-142240222D01*
X124200500Y-142019778D01*
X124166015Y-141802049D01*
X124116130Y-141648517D01*
X124097896Y-141592396D01*
X124097895Y-141592393D01*
X124063237Y-141524375D01*
X123997815Y-141395978D01*
X123940134Y-141316586D01*
X123868247Y-141217641D01*
X123868243Y-141217636D01*
X123712363Y-141061756D01*
X123712358Y-141061752D01*
X123534025Y-140932187D01*
X123534024Y-140932186D01*
X123534022Y-140932185D01*
X123471096Y-140900122D01*
X123337606Y-140832104D01*
X123337603Y-140832103D01*
X123127952Y-140763985D01*
X122973864Y-140739580D01*
X122910222Y-140729500D01*
X122689778Y-140729500D01*
X122626136Y-140739580D01*
X122472047Y-140763985D01*
X122262396Y-140832103D01*
X122262393Y-140832104D01*
X122065974Y-140932187D01*
X121887641Y-141061752D01*
X121887636Y-141061756D01*
X121731756Y-141217636D01*
X121731752Y-141217641D01*
X121602187Y-141395974D01*
X121602185Y-141395978D01*
X121508686Y-141579480D01*
X121507506Y-141581795D01*
X121459531Y-141632591D01*
X121397021Y-141649500D01*
X118601205Y-141649500D01*
X118534166Y-141629815D01*
X118513524Y-141613182D01*
X118473603Y-141573261D01*
X118416928Y-141516586D01*
X118276788Y-141414768D01*
X118122445Y-141336127D01*
X117957701Y-141282598D01*
X117957699Y-141282597D01*
X117957698Y-141282597D01*
X117826271Y-141261781D01*
X117786611Y-141255500D01*
X117613389Y-141255500D01*
X117573728Y-141261781D01*
X117442302Y-141282597D01*
X117277552Y-141336128D01*
X117123211Y-141414768D01*
X117068681Y-141454387D01*
X116983072Y-141516586D01*
X116983070Y-141516588D01*
X116983069Y-141516588D01*
X116860588Y-141639069D01*
X116860588Y-141639070D01*
X116860586Y-141639072D01*
X116853724Y-141648517D01*
X116758768Y-141779211D01*
X116680128Y-141933552D01*
X116626597Y-142098302D01*
X116599500Y-142269389D01*
X106100499Y-142269389D01*
X106100499Y-142226807D01*
X106120184Y-142159769D01*
X106136818Y-142139127D01*
X107105272Y-141170674D01*
X107105273Y-141170673D01*
X107105273Y-141170672D01*
X107105277Y-141170669D01*
X107176465Y-141064127D01*
X107225501Y-140945743D01*
X107248106Y-140832104D01*
X107250500Y-140820071D01*
X107250500Y-138713389D01*
X116599500Y-138713389D01*
X116599500Y-138886610D01*
X116620984Y-139022259D01*
X116626598Y-139057701D01*
X116680127Y-139222445D01*
X116758768Y-139376788D01*
X116860586Y-139516928D01*
X116983072Y-139639414D01*
X117123212Y-139741232D01*
X117277555Y-139819873D01*
X117442299Y-139873402D01*
X117613389Y-139900500D01*
X117613390Y-139900500D01*
X117786610Y-139900500D01*
X117786611Y-139900500D01*
X117957701Y-139873402D01*
X118122445Y-139819873D01*
X118276788Y-139741232D01*
X118416928Y-139639414D01*
X118539414Y-139516928D01*
X118641232Y-139376788D01*
X118719873Y-139222445D01*
X118773402Y-139057701D01*
X118800500Y-138886611D01*
X118800500Y-138713389D01*
X118773402Y-138542299D01*
X118719873Y-138377555D01*
X118641232Y-138223212D01*
X118539414Y-138083072D01*
X118416928Y-137960586D01*
X118276788Y-137858768D01*
X118122445Y-137780127D01*
X117957701Y-137726598D01*
X117957699Y-137726597D01*
X117957698Y-137726597D01*
X117826271Y-137705781D01*
X117786611Y-137699500D01*
X117613389Y-137699500D01*
X117573728Y-137705781D01*
X117442302Y-137726597D01*
X117277552Y-137780128D01*
X117123211Y-137858768D01*
X117075000Y-137893796D01*
X116983072Y-137960586D01*
X116983070Y-137960588D01*
X116983069Y-137960588D01*
X116860588Y-138083069D01*
X116860588Y-138083070D01*
X116860586Y-138083072D01*
X116816859Y-138143256D01*
X116758768Y-138223211D01*
X116680128Y-138377552D01*
X116626597Y-138542302D01*
X116599500Y-138713389D01*
X107250500Y-138713389D01*
X107250500Y-135157389D01*
X116599500Y-135157389D01*
X116599500Y-135330611D01*
X116626598Y-135501701D01*
X116657742Y-135597553D01*
X116680128Y-135666447D01*
X116693082Y-135691870D01*
X116758768Y-135820788D01*
X116860586Y-135960928D01*
X116983072Y-136083414D01*
X117123212Y-136185232D01*
X117277555Y-136263873D01*
X117442299Y-136317402D01*
X117613389Y-136344500D01*
X117613390Y-136344500D01*
X117786610Y-136344500D01*
X117786611Y-136344500D01*
X117957701Y-136317402D01*
X118122445Y-136263873D01*
X118276788Y-136185232D01*
X118416928Y-136083414D01*
X118539414Y-135960928D01*
X118641232Y-135820788D01*
X118719873Y-135666445D01*
X118773402Y-135501701D01*
X118800500Y-135330611D01*
X118800500Y-135157389D01*
X118797538Y-135138691D01*
X118806491Y-135069403D01*
X118832327Y-135031617D01*
X120847127Y-133016819D01*
X120908450Y-132983334D01*
X120934808Y-132980500D01*
X121483641Y-132980500D01*
X121550680Y-133000185D01*
X121594126Y-133048205D01*
X121602187Y-133064026D01*
X121731752Y-133242358D01*
X121731756Y-133242363D01*
X121781928Y-133292535D01*
X121815413Y-133353858D01*
X121810429Y-133423550D01*
X121768557Y-133479483D01*
X121737581Y-133496398D01*
X121657669Y-133526203D01*
X121657664Y-133526206D01*
X121542455Y-133612452D01*
X121542452Y-133612455D01*
X121456206Y-133727664D01*
X121456202Y-133727671D01*
X121405908Y-133862517D01*
X121399501Y-133922116D01*
X121399501Y-133922123D01*
X121399500Y-133922135D01*
X121399500Y-135817870D01*
X121399501Y-135817876D01*
X121405908Y-135877483D01*
X121456202Y-136012328D01*
X121456206Y-136012335D01*
X121542452Y-136127544D01*
X121542455Y-136127547D01*
X121657664Y-136213793D01*
X121657671Y-136213797D01*
X121792517Y-136264091D01*
X121792516Y-136264091D01*
X121799444Y-136264835D01*
X121852127Y-136270500D01*
X123747872Y-136270499D01*
X123807483Y-136264091D01*
X123942331Y-136213796D01*
X124057546Y-136127546D01*
X124143796Y-136012331D01*
X124194091Y-135877483D01*
X124200500Y-135817873D01*
X124200499Y-133922128D01*
X124194091Y-133862517D01*
X124143796Y-133727669D01*
X124143795Y-133727668D01*
X124143793Y-133727664D01*
X124057547Y-133612455D01*
X124057544Y-133612452D01*
X123942335Y-133526206D01*
X123942328Y-133526202D01*
X123862419Y-133496398D01*
X123806485Y-133454527D01*
X123782068Y-133389062D01*
X123796920Y-133320789D01*
X123818069Y-133292537D01*
X123868242Y-133242365D01*
X123997815Y-133064022D01*
X124097895Y-132867606D01*
X124166015Y-132657951D01*
X124200500Y-132440222D01*
X124200500Y-132219778D01*
X126499500Y-132219778D01*
X126499500Y-132440221D01*
X126533985Y-132657952D01*
X126602103Y-132867603D01*
X126602104Y-132867606D01*
X126702187Y-133064025D01*
X126831752Y-133242358D01*
X126831756Y-133242363D01*
X126881928Y-133292535D01*
X126915413Y-133353858D01*
X126910429Y-133423550D01*
X126868557Y-133479483D01*
X126837581Y-133496398D01*
X126757669Y-133526203D01*
X126757664Y-133526206D01*
X126642455Y-133612452D01*
X126642452Y-133612455D01*
X126556206Y-133727664D01*
X126556202Y-133727671D01*
X126505908Y-133862517D01*
X126499501Y-133922116D01*
X126499501Y-133922123D01*
X126499500Y-133922135D01*
X126499500Y-135817870D01*
X126499501Y-135817876D01*
X126505908Y-135877483D01*
X126556202Y-136012328D01*
X126556206Y-136012335D01*
X126642452Y-136127544D01*
X126642455Y-136127547D01*
X126757664Y-136213793D01*
X126757671Y-136213797D01*
X126892517Y-136264091D01*
X126892516Y-136264091D01*
X126899444Y-136264835D01*
X126952127Y-136270500D01*
X128847872Y-136270499D01*
X128907483Y-136264091D01*
X129042331Y-136213796D01*
X129157546Y-136127546D01*
X129243796Y-136012331D01*
X129294091Y-135877483D01*
X129300500Y-135817873D01*
X129300499Y-133922128D01*
X129294091Y-133862517D01*
X129243796Y-133727669D01*
X129243795Y-133727668D01*
X129243793Y-133727664D01*
X129157547Y-133612455D01*
X129157544Y-133612452D01*
X129042335Y-133526206D01*
X129042328Y-133526202D01*
X128962419Y-133496398D01*
X128906485Y-133454527D01*
X128882068Y-133389062D01*
X128896920Y-133320789D01*
X128918069Y-133292537D01*
X128968242Y-133242365D01*
X129097815Y-133064022D01*
X129197895Y-132867606D01*
X129266015Y-132657951D01*
X129300500Y-132440222D01*
X129300500Y-132219778D01*
X129266015Y-132002049D01*
X129208401Y-131824728D01*
X129197896Y-131792396D01*
X129197895Y-131792393D01*
X129131756Y-131662591D01*
X129097815Y-131595978D01*
X129081260Y-131573192D01*
X128968247Y-131417641D01*
X128968243Y-131417636D01*
X128812363Y-131261756D01*
X128812358Y-131261752D01*
X128634025Y-131132187D01*
X128634024Y-131132186D01*
X128634022Y-131132185D01*
X128571096Y-131100122D01*
X128437606Y-131032104D01*
X128437603Y-131032103D01*
X128227952Y-130963985D01*
X128119086Y-130946742D01*
X128010222Y-130929500D01*
X127789778Y-130929500D01*
X127717201Y-130940995D01*
X127572047Y-130963985D01*
X127362396Y-131032103D01*
X127362393Y-131032104D01*
X127165974Y-131132187D01*
X126987641Y-131261752D01*
X126987636Y-131261756D01*
X126831756Y-131417636D01*
X126831752Y-131417641D01*
X126702187Y-131595974D01*
X126602104Y-131792393D01*
X126602103Y-131792396D01*
X126533985Y-132002047D01*
X126499500Y-132219778D01*
X124200500Y-132219778D01*
X124166015Y-132002049D01*
X124108401Y-131824728D01*
X124097896Y-131792396D01*
X124097895Y-131792393D01*
X124031756Y-131662591D01*
X123997815Y-131595978D01*
X123981260Y-131573192D01*
X123868247Y-131417641D01*
X123868243Y-131417636D01*
X123712363Y-131261756D01*
X123712358Y-131261752D01*
X123534025Y-131132187D01*
X123534024Y-131132186D01*
X123534022Y-131132185D01*
X123471096Y-131100122D01*
X123337606Y-131032104D01*
X123337603Y-131032103D01*
X123127952Y-130963985D01*
X123019086Y-130946742D01*
X122910222Y-130929500D01*
X122689778Y-130929500D01*
X122617201Y-130940995D01*
X122472047Y-130963985D01*
X122262396Y-131032103D01*
X122262393Y-131032104D01*
X122065974Y-131132187D01*
X121887641Y-131261752D01*
X121887636Y-131261756D01*
X121731756Y-131417636D01*
X121731752Y-131417641D01*
X121602187Y-131595973D01*
X121594126Y-131611795D01*
X121546152Y-131662591D01*
X121483641Y-131679500D01*
X120549929Y-131679500D01*
X120424261Y-131704497D01*
X120424255Y-131704499D01*
X120305870Y-131753535D01*
X120199331Y-131824722D01*
X120199324Y-131824728D01*
X117912384Y-134111668D01*
X117851061Y-134145153D01*
X117805306Y-134146460D01*
X117786617Y-134143500D01*
X117786611Y-134143500D01*
X117613389Y-134143500D01*
X117573728Y-134149781D01*
X117442302Y-134170597D01*
X117277552Y-134224128D01*
X117123211Y-134302768D01*
X117043256Y-134360859D01*
X116983072Y-134404586D01*
X116983070Y-134404588D01*
X116983069Y-134404588D01*
X116860588Y-134527069D01*
X116860588Y-134527070D01*
X116860586Y-134527072D01*
X116816859Y-134587256D01*
X116758768Y-134667211D01*
X116680128Y-134821552D01*
X116626597Y-134986302D01*
X116612345Y-135076290D01*
X116599500Y-135157389D01*
X107250500Y-135157389D01*
X107250500Y-128683947D01*
X109579500Y-128683947D01*
X109579500Y-128916052D01*
X109609794Y-129146148D01*
X109669862Y-129370328D01*
X109758677Y-129584745D01*
X109758685Y-129584762D01*
X109874720Y-129785743D01*
X109874721Y-129785745D01*
X110016009Y-129969875D01*
X110016015Y-129969882D01*
X110180117Y-130133984D01*
X110180124Y-130133990D01*
X110364254Y-130275278D01*
X110364256Y-130275279D01*
X110565237Y-130391314D01*
X110565240Y-130391315D01*
X110565248Y-130391320D01*
X110779670Y-130480137D01*
X111003851Y-130540206D01*
X111233955Y-130570500D01*
X111233962Y-130570500D01*
X111466038Y-130570500D01*
X111466045Y-130570500D01*
X111696149Y-130540206D01*
X111920330Y-130480137D01*
X112134752Y-130391320D01*
X112268749Y-130313957D01*
X112335743Y-130275279D01*
X112335745Y-130275278D01*
X112445159Y-130191322D01*
X112519877Y-130133989D01*
X112683989Y-129969877D01*
X112825276Y-129785748D01*
X112941320Y-129584752D01*
X113030137Y-129370330D01*
X113090206Y-129146149D01*
X113120500Y-128916045D01*
X113120500Y-128683955D01*
X113094168Y-128483947D01*
X137329000Y-128483947D01*
X137329000Y-128716052D01*
X137359294Y-128946148D01*
X137419362Y-129170328D01*
X137508177Y-129384745D01*
X137508185Y-129384762D01*
X137624220Y-129585743D01*
X137624221Y-129585745D01*
X137765509Y-129769875D01*
X137765515Y-129769882D01*
X137929617Y-129933984D01*
X137929624Y-129933990D01*
X138113754Y-130075278D01*
X138113756Y-130075279D01*
X138314737Y-130191314D01*
X138314740Y-130191315D01*
X138314748Y-130191320D01*
X138529170Y-130280137D01*
X138753351Y-130340206D01*
X138983455Y-130370500D01*
X138983462Y-130370500D01*
X139215538Y-130370500D01*
X139215545Y-130370500D01*
X139445649Y-130340206D01*
X139669830Y-130280137D01*
X139884252Y-130191320D01*
X140085248Y-130075276D01*
X140269377Y-129933989D01*
X140433489Y-129769877D01*
X140574776Y-129585748D01*
X140690820Y-129384752D01*
X140779637Y-129170330D01*
X140839706Y-128946149D01*
X140870000Y-128716045D01*
X140870000Y-128483955D01*
X140839706Y-128253851D01*
X140779637Y-128029670D01*
X140690820Y-127815248D01*
X140690814Y-127815237D01*
X140574779Y-127614256D01*
X140574778Y-127614254D01*
X140433490Y-127430124D01*
X140433484Y-127430117D01*
X140269382Y-127266015D01*
X140269375Y-127266009D01*
X140085245Y-127124721D01*
X140085243Y-127124720D01*
X139884262Y-127008685D01*
X139884254Y-127008681D01*
X139884252Y-127008680D01*
X139669830Y-126919863D01*
X139669831Y-126919863D01*
X139669828Y-126919862D01*
X139527703Y-126881780D01*
X139445649Y-126859794D01*
X139416886Y-126856007D01*
X139215552Y-126829500D01*
X139215545Y-126829500D01*
X138983455Y-126829500D01*
X138983447Y-126829500D01*
X138753351Y-126859794D01*
X138529171Y-126919862D01*
X138314754Y-127008677D01*
X138314737Y-127008685D01*
X138113756Y-127124720D01*
X138113754Y-127124721D01*
X137929624Y-127266009D01*
X137929617Y-127266015D01*
X137765515Y-127430117D01*
X137765509Y-127430124D01*
X137624221Y-127614254D01*
X137624220Y-127614256D01*
X137508185Y-127815237D01*
X137508177Y-127815254D01*
X137419362Y-128029671D01*
X137359294Y-128253851D01*
X137329000Y-128483947D01*
X113094168Y-128483947D01*
X113090206Y-128453851D01*
X113030137Y-128229670D01*
X112941320Y-128015248D01*
X112941314Y-128015237D01*
X112825279Y-127814256D01*
X112825278Y-127814254D01*
X112683990Y-127630124D01*
X112683984Y-127630117D01*
X112519882Y-127466015D01*
X112519875Y-127466009D01*
X112335745Y-127324721D01*
X112335743Y-127324720D01*
X112134762Y-127208685D01*
X112134754Y-127208681D01*
X112134752Y-127208680D01*
X112134745Y-127208677D01*
X111920328Y-127119862D01*
X111778203Y-127081780D01*
X111696149Y-127059794D01*
X111667386Y-127056007D01*
X111466052Y-127029500D01*
X111466045Y-127029500D01*
X111233955Y-127029500D01*
X111233947Y-127029500D01*
X111003851Y-127059794D01*
X110779671Y-127119862D01*
X110565254Y-127208677D01*
X110565237Y-127208685D01*
X110364256Y-127324720D01*
X110364254Y-127324721D01*
X110180124Y-127466009D01*
X110180117Y-127466015D01*
X110016015Y-127630117D01*
X110016009Y-127630124D01*
X109874721Y-127814254D01*
X109874720Y-127814256D01*
X109758685Y-128015237D01*
X109758677Y-128015254D01*
X109669862Y-128229671D01*
X109609794Y-128453851D01*
X109579500Y-128683947D01*
X107250500Y-128683947D01*
X107250500Y-127630807D01*
X107270185Y-127563768D01*
X107286814Y-127543131D01*
X118518640Y-116311304D01*
X126949500Y-116311304D01*
X126949500Y-116488695D01*
X126984103Y-116662658D01*
X126984106Y-116662667D01*
X127051983Y-116826540D01*
X127051990Y-116826553D01*
X127150535Y-116974034D01*
X127150538Y-116974038D01*
X127275961Y-117099461D01*
X127275965Y-117099464D01*
X127423446Y-117198009D01*
X127423459Y-117198016D01*
X127546363Y-117248923D01*
X127587334Y-117265894D01*
X127587336Y-117265894D01*
X127587341Y-117265896D01*
X127761304Y-117300499D01*
X127761307Y-117300500D01*
X127761309Y-117300500D01*
X127938693Y-117300500D01*
X127938694Y-117300499D01*
X127996682Y-117288964D01*
X128112658Y-117265896D01*
X128112661Y-117265894D01*
X128112666Y-117265894D01*
X128276547Y-117198013D01*
X128276550Y-117198010D01*
X128276552Y-117198010D01*
X128316378Y-117171399D01*
X128383055Y-117150520D01*
X128385270Y-117150500D01*
X137464730Y-117150500D01*
X137531769Y-117170185D01*
X137533622Y-117171399D01*
X137573447Y-117198010D01*
X137573450Y-117198011D01*
X137573453Y-117198013D01*
X137737334Y-117265894D01*
X137737336Y-117265894D01*
X137737341Y-117265896D01*
X137911304Y-117300499D01*
X137911307Y-117300500D01*
X137911309Y-117300500D01*
X138088693Y-117300500D01*
X138088694Y-117300499D01*
X138146682Y-117288964D01*
X138262658Y-117265896D01*
X138262661Y-117265894D01*
X138262666Y-117265894D01*
X138426547Y-117198013D01*
X138574035Y-117099464D01*
X138699464Y-116974035D01*
X138798013Y-116826547D01*
X138865894Y-116662666D01*
X138900500Y-116488691D01*
X138900500Y-116311309D01*
X138900500Y-116311306D01*
X138900499Y-116311304D01*
X138865896Y-116137341D01*
X138865893Y-116137332D01*
X138798016Y-115973459D01*
X138798009Y-115973446D01*
X138699464Y-115825965D01*
X138699461Y-115825961D01*
X138574038Y-115700538D01*
X138574034Y-115700535D01*
X138426553Y-115601990D01*
X138426540Y-115601983D01*
X138262667Y-115534106D01*
X138262658Y-115534103D01*
X138088694Y-115499500D01*
X138088691Y-115499500D01*
X137911309Y-115499500D01*
X137911306Y-115499500D01*
X137737341Y-115534103D01*
X137737332Y-115534106D01*
X137573452Y-115601987D01*
X137573447Y-115601989D01*
X137533622Y-115628601D01*
X137466945Y-115649480D01*
X137464730Y-115649500D01*
X128385270Y-115649500D01*
X128318231Y-115629815D01*
X128316378Y-115628601D01*
X128276552Y-115601989D01*
X128276547Y-115601987D01*
X128112667Y-115534106D01*
X128112658Y-115534103D01*
X127938694Y-115499500D01*
X127938691Y-115499500D01*
X127761309Y-115499500D01*
X127761306Y-115499500D01*
X127587341Y-115534103D01*
X127587332Y-115534106D01*
X127423459Y-115601983D01*
X127423446Y-115601990D01*
X127275965Y-115700535D01*
X127275961Y-115700538D01*
X127150538Y-115825961D01*
X127150535Y-115825965D01*
X127051990Y-115973446D01*
X127051983Y-115973459D01*
X126984106Y-116137332D01*
X126984103Y-116137341D01*
X126949500Y-116311304D01*
X118518640Y-116311304D01*
X120979289Y-113850655D01*
X121040610Y-113817172D01*
X121088754Y-113817685D01*
X121088945Y-113816484D01*
X121193888Y-113833105D01*
X121303713Y-113850500D01*
X121303714Y-113850500D01*
X121516286Y-113850500D01*
X121516287Y-113850500D01*
X121726243Y-113817246D01*
X121928412Y-113751557D01*
X122117816Y-113655051D01*
X122204138Y-113592335D01*
X122289786Y-113530109D01*
X122289788Y-113530106D01*
X122289792Y-113530104D01*
X122440104Y-113379792D01*
X122440106Y-113379788D01*
X122440109Y-113379786D01*
X122565048Y-113207820D01*
X122565047Y-113207820D01*
X122565051Y-113207816D01*
X122569514Y-113199054D01*
X122617488Y-113148259D01*
X122685308Y-113131463D01*
X122751444Y-113153999D01*
X122790486Y-113199056D01*
X122794951Y-113207820D01*
X122919890Y-113379786D01*
X123070213Y-113530109D01*
X123242179Y-113655048D01*
X123242181Y-113655049D01*
X123242184Y-113655051D01*
X123431588Y-113751557D01*
X123633757Y-113817246D01*
X123843713Y-113850500D01*
X123843714Y-113850500D01*
X124056286Y-113850500D01*
X124056287Y-113850500D01*
X124266243Y-113817246D01*
X124468412Y-113751557D01*
X124657816Y-113655051D01*
X124744138Y-113592335D01*
X124829786Y-113530109D01*
X124829788Y-113530106D01*
X124829792Y-113530104D01*
X124980104Y-113379792D01*
X124980106Y-113379788D01*
X124980109Y-113379786D01*
X125105048Y-113207820D01*
X125105047Y-113207820D01*
X125105051Y-113207816D01*
X125109514Y-113199054D01*
X125157488Y-113148259D01*
X125225308Y-113131463D01*
X125291444Y-113153999D01*
X125330486Y-113199056D01*
X125334951Y-113207820D01*
X125459890Y-113379786D01*
X125610213Y-113530109D01*
X125782179Y-113655048D01*
X125782181Y-113655049D01*
X125782184Y-113655051D01*
X125971588Y-113751557D01*
X126173757Y-113817246D01*
X126383713Y-113850500D01*
X126383714Y-113850500D01*
X126596286Y-113850500D01*
X126596287Y-113850500D01*
X126806243Y-113817246D01*
X127008412Y-113751557D01*
X127197816Y-113655051D01*
X127284138Y-113592335D01*
X127369786Y-113530109D01*
X127369788Y-113530106D01*
X127369792Y-113530104D01*
X127520104Y-113379792D01*
X127520106Y-113379788D01*
X127520109Y-113379786D01*
X127645048Y-113207820D01*
X127645047Y-113207820D01*
X127645051Y-113207816D01*
X127649514Y-113199054D01*
X127697488Y-113148259D01*
X127765308Y-113131463D01*
X127831444Y-113153999D01*
X127870486Y-113199056D01*
X127874951Y-113207820D01*
X127999890Y-113379786D01*
X128150213Y-113530109D01*
X128322179Y-113655048D01*
X128322181Y-113655049D01*
X128322184Y-113655051D01*
X128511588Y-113751557D01*
X128713757Y-113817246D01*
X128923713Y-113850500D01*
X128923714Y-113850500D01*
X129136286Y-113850500D01*
X129136287Y-113850500D01*
X129346243Y-113817246D01*
X129548412Y-113751557D01*
X129737816Y-113655051D01*
X129824138Y-113592335D01*
X129909786Y-113530109D01*
X129909788Y-113530106D01*
X129909792Y-113530104D01*
X130060104Y-113379792D01*
X130060106Y-113379788D01*
X130060109Y-113379786D01*
X130185048Y-113207820D01*
X130185047Y-113207820D01*
X130185051Y-113207816D01*
X130189514Y-113199054D01*
X130237488Y-113148259D01*
X130305308Y-113131463D01*
X130371444Y-113153999D01*
X130410486Y-113199056D01*
X130414951Y-113207820D01*
X130539890Y-113379786D01*
X130690213Y-113530109D01*
X130862179Y-113655048D01*
X130862181Y-113655049D01*
X130862184Y-113655051D01*
X131051588Y-113751557D01*
X131253757Y-113817246D01*
X131463713Y-113850500D01*
X131463714Y-113850500D01*
X131676286Y-113850500D01*
X131676287Y-113850500D01*
X131886243Y-113817246D01*
X132088412Y-113751557D01*
X132277816Y-113655051D01*
X132364138Y-113592335D01*
X132449786Y-113530109D01*
X132449788Y-113530106D01*
X132449792Y-113530104D01*
X132600104Y-113379792D01*
X132600106Y-113379788D01*
X132600109Y-113379786D01*
X132667515Y-113287007D01*
X132725051Y-113207816D01*
X132729793Y-113198508D01*
X132777763Y-113147711D01*
X132845583Y-113130911D01*
X132911719Y-113153445D01*
X132950763Y-113198500D01*
X132955373Y-113207547D01*
X132994728Y-113261716D01*
X133627037Y-112629408D01*
X133644075Y-112692993D01*
X133709901Y-112807007D01*
X133802993Y-112900099D01*
X133917007Y-112965925D01*
X133980590Y-112982962D01*
X133348282Y-113615269D01*
X133348282Y-113615270D01*
X133402449Y-113654624D01*
X133591782Y-113751095D01*
X133793870Y-113816757D01*
X134003754Y-113850000D01*
X134216246Y-113850000D01*
X134426127Y-113816757D01*
X134426130Y-113816757D01*
X134628217Y-113751095D01*
X134817554Y-113654622D01*
X134871716Y-113615270D01*
X134871717Y-113615270D01*
X134239408Y-112982962D01*
X134302993Y-112965925D01*
X134417007Y-112900099D01*
X134510099Y-112807007D01*
X134575925Y-112692993D01*
X134592962Y-112629408D01*
X135263181Y-113299628D01*
X135296666Y-113360951D01*
X135299500Y-113387300D01*
X135299500Y-113397865D01*
X135299501Y-113397876D01*
X135305908Y-113457483D01*
X135356202Y-113592328D01*
X135356206Y-113592335D01*
X135442452Y-113707544D01*
X135442455Y-113707547D01*
X135557664Y-113793793D01*
X135557671Y-113793797D01*
X135692517Y-113844091D01*
X135692516Y-113844091D01*
X135699444Y-113844835D01*
X135752127Y-113850500D01*
X137547872Y-113850499D01*
X137607483Y-113844091D01*
X137742331Y-113793796D01*
X137857546Y-113707546D01*
X137943796Y-113592331D01*
X137994091Y-113457483D01*
X138000500Y-113397873D01*
X138000499Y-111602128D01*
X137994091Y-111542517D01*
X137943796Y-111407669D01*
X137943795Y-111407668D01*
X137943793Y-111407664D01*
X137857547Y-111292455D01*
X137857544Y-111292452D01*
X137742335Y-111206206D01*
X137742328Y-111206202D01*
X137607482Y-111155908D01*
X137607483Y-111155908D01*
X137547883Y-111149501D01*
X137547881Y-111149500D01*
X137547873Y-111149500D01*
X137547864Y-111149500D01*
X135752129Y-111149500D01*
X135752123Y-111149501D01*
X135692516Y-111155908D01*
X135557671Y-111206202D01*
X135557664Y-111206206D01*
X135442455Y-111292452D01*
X135442452Y-111292455D01*
X135356206Y-111407664D01*
X135356202Y-111407671D01*
X135305908Y-111542517D01*
X135299501Y-111602116D01*
X135299501Y-111602123D01*
X135299500Y-111602135D01*
X135299500Y-111612690D01*
X135279815Y-111679729D01*
X135263181Y-111700371D01*
X134592962Y-112370590D01*
X134575925Y-112307007D01*
X134510099Y-112192993D01*
X134417007Y-112099901D01*
X134302993Y-112034075D01*
X134239409Y-112017037D01*
X134871716Y-111384728D01*
X134817550Y-111345375D01*
X134628217Y-111248904D01*
X134426129Y-111183242D01*
X134216246Y-111150000D01*
X134003754Y-111150000D01*
X133793872Y-111183242D01*
X133793869Y-111183242D01*
X133591782Y-111248904D01*
X133402439Y-111345380D01*
X133348282Y-111384727D01*
X133348282Y-111384728D01*
X133980591Y-112017037D01*
X133917007Y-112034075D01*
X133802993Y-112099901D01*
X133709901Y-112192993D01*
X133644075Y-112307007D01*
X133627037Y-112370591D01*
X132994728Y-111738282D01*
X132994727Y-111738282D01*
X132955380Y-111792440D01*
X132955376Y-111792446D01*
X132950760Y-111801505D01*
X132902781Y-111852297D01*
X132834959Y-111869087D01*
X132768826Y-111846543D01*
X132729794Y-111801493D01*
X132725051Y-111792184D01*
X132725049Y-111792181D01*
X132725048Y-111792179D01*
X132600109Y-111620213D01*
X132449786Y-111469890D01*
X132277820Y-111344951D01*
X132088414Y-111248444D01*
X132088413Y-111248443D01*
X132088412Y-111248443D01*
X131886243Y-111182754D01*
X131886241Y-111182753D01*
X131886240Y-111182753D01*
X131724957Y-111157208D01*
X131676287Y-111149500D01*
X131463713Y-111149500D01*
X131415042Y-111157208D01*
X131253760Y-111182753D01*
X131051585Y-111248444D01*
X130862179Y-111344951D01*
X130690213Y-111469890D01*
X130539890Y-111620213D01*
X130414949Y-111792182D01*
X130410484Y-111800946D01*
X130362509Y-111851742D01*
X130294688Y-111868536D01*
X130228553Y-111845998D01*
X130189516Y-111800946D01*
X130185050Y-111792182D01*
X130060109Y-111620213D01*
X129909786Y-111469890D01*
X129737820Y-111344951D01*
X129548414Y-111248444D01*
X129548413Y-111248443D01*
X129548412Y-111248443D01*
X129346243Y-111182754D01*
X129346241Y-111182753D01*
X129346240Y-111182753D01*
X129184957Y-111157208D01*
X129136287Y-111149500D01*
X128923713Y-111149500D01*
X128875042Y-111157208D01*
X128713760Y-111182753D01*
X128511585Y-111248444D01*
X128322179Y-111344951D01*
X128150213Y-111469890D01*
X127999890Y-111620213D01*
X127874949Y-111792182D01*
X127870484Y-111800946D01*
X127822509Y-111851742D01*
X127754688Y-111868536D01*
X127688553Y-111845998D01*
X127649516Y-111800946D01*
X127645050Y-111792182D01*
X127520109Y-111620213D01*
X127369786Y-111469890D01*
X127197820Y-111344951D01*
X127008414Y-111248444D01*
X127008413Y-111248443D01*
X127008412Y-111248443D01*
X126806243Y-111182754D01*
X126806241Y-111182753D01*
X126806240Y-111182753D01*
X126644957Y-111157208D01*
X126596287Y-111149500D01*
X126383713Y-111149500D01*
X126335042Y-111157208D01*
X126173760Y-111182753D01*
X125971585Y-111248444D01*
X125782179Y-111344951D01*
X125610213Y-111469890D01*
X125459890Y-111620213D01*
X125334949Y-111792182D01*
X125330484Y-111800946D01*
X125282509Y-111851742D01*
X125214688Y-111868536D01*
X125148553Y-111845998D01*
X125109516Y-111800946D01*
X125105050Y-111792182D01*
X124980109Y-111620213D01*
X124829786Y-111469890D01*
X124657820Y-111344951D01*
X124468414Y-111248444D01*
X124468413Y-111248443D01*
X124468412Y-111248443D01*
X124266243Y-111182754D01*
X124266241Y-111182753D01*
X124266240Y-111182753D01*
X124104957Y-111157208D01*
X124056287Y-111149500D01*
X123843713Y-111149500D01*
X123795042Y-111157208D01*
X123633760Y-111182753D01*
X123431585Y-111248444D01*
X123242179Y-111344951D01*
X123070213Y-111469890D01*
X122919890Y-111620213D01*
X122794949Y-111792182D01*
X122790484Y-111800946D01*
X122742509Y-111851742D01*
X122674688Y-111868536D01*
X122608553Y-111845998D01*
X122569516Y-111800946D01*
X122565050Y-111792182D01*
X122440109Y-111620213D01*
X122289786Y-111469890D01*
X122117820Y-111344951D01*
X121928414Y-111248444D01*
X121928413Y-111248443D01*
X121928412Y-111248443D01*
X121726243Y-111182754D01*
X121726241Y-111182753D01*
X121726240Y-111182753D01*
X121564957Y-111157208D01*
X121516287Y-111149500D01*
X121303713Y-111149500D01*
X121255042Y-111157208D01*
X121093760Y-111182753D01*
X120891585Y-111248444D01*
X120702179Y-111344951D01*
X120530213Y-111469890D01*
X120379890Y-111620213D01*
X120254949Y-111792182D01*
X120250484Y-111800946D01*
X120202509Y-111851742D01*
X120134688Y-111868536D01*
X120068553Y-111845998D01*
X120029516Y-111800946D01*
X120025050Y-111792182D01*
X119900109Y-111620213D01*
X119749786Y-111469890D01*
X119577820Y-111344951D01*
X119388414Y-111248444D01*
X119388413Y-111248443D01*
X119388412Y-111248443D01*
X119186243Y-111182754D01*
X119186241Y-111182753D01*
X119186240Y-111182753D01*
X119024957Y-111157208D01*
X118976287Y-111149500D01*
X118763713Y-111149500D01*
X118715042Y-111157208D01*
X118553760Y-111182753D01*
X118351585Y-111248444D01*
X118162179Y-111344951D01*
X117990213Y-111469890D01*
X117839890Y-111620213D01*
X117714949Y-111792182D01*
X117710484Y-111800946D01*
X117662509Y-111851742D01*
X117594688Y-111868536D01*
X117528553Y-111845998D01*
X117489516Y-111800946D01*
X117485050Y-111792182D01*
X117360109Y-111620213D01*
X117209786Y-111469890D01*
X117037820Y-111344951D01*
X116848414Y-111248444D01*
X116848413Y-111248443D01*
X116848412Y-111248443D01*
X116646243Y-111182754D01*
X116646241Y-111182753D01*
X116646240Y-111182753D01*
X116484957Y-111157208D01*
X116436287Y-111149500D01*
X116223713Y-111149500D01*
X116175042Y-111157208D01*
X116013760Y-111182753D01*
X115811585Y-111248444D01*
X115622179Y-111344951D01*
X115450213Y-111469890D01*
X115299890Y-111620213D01*
X115174949Y-111792182D01*
X115170484Y-111800946D01*
X115122509Y-111851742D01*
X115054688Y-111868536D01*
X114988553Y-111845998D01*
X114949516Y-111800946D01*
X114945050Y-111792182D01*
X114820109Y-111620213D01*
X114669786Y-111469890D01*
X114497820Y-111344951D01*
X114308414Y-111248444D01*
X114308413Y-111248443D01*
X114308412Y-111248443D01*
X114106243Y-111182754D01*
X114106241Y-111182753D01*
X114106240Y-111182753D01*
X113944957Y-111157208D01*
X113896287Y-111149500D01*
X113683713Y-111149500D01*
X113635042Y-111157208D01*
X113473760Y-111182753D01*
X113271585Y-111248444D01*
X113082179Y-111344951D01*
X112910213Y-111469890D01*
X112759890Y-111620213D01*
X112634951Y-111792179D01*
X112538444Y-111981585D01*
X112472753Y-112183760D01*
X112439500Y-112393713D01*
X112439500Y-112606286D01*
X112472753Y-112816239D01*
X112538444Y-113018414D01*
X112634951Y-113207820D01*
X112759890Y-113379786D01*
X112910213Y-113530109D01*
X113082179Y-113655048D01*
X113082181Y-113655049D01*
X113082184Y-113655051D01*
X113271588Y-113751557D01*
X113473757Y-113817246D01*
X113683713Y-113850500D01*
X113683714Y-113850500D01*
X113760192Y-113850500D01*
X113827231Y-113870185D01*
X113872986Y-113922989D01*
X113882930Y-113992147D01*
X113853905Y-114055703D01*
X113847873Y-114062181D01*
X102394727Y-125515325D01*
X102394726Y-125515326D01*
X102323534Y-125621874D01*
X102274499Y-125740255D01*
X102274497Y-125740261D01*
X102249500Y-125865928D01*
X102249500Y-125865931D01*
X102249500Y-168876069D01*
X102249500Y-168876071D01*
X102249499Y-168876071D01*
X101770500Y-168876071D01*
X101770500Y-110874500D01*
X101790185Y-110807461D01*
X101842989Y-110761706D01*
X101894500Y-110750500D01*
X148605500Y-110750500D01*
X148672539Y-110770185D01*
G37*
%TD.AperFunction*%
%TD*%
M02*
