G04 #@! TF.GenerationSoftware,KiCad,Pcbnew,7.0.8*
G04 #@! TF.CreationDate,2024-09-22T21:48:36-04:00*
G04 #@! TF.ProjectId,lichen-four-panel,6c696368-656e-42d6-966f-75722d70616e,rev?*
G04 #@! TF.SameCoordinates,Original*
G04 #@! TF.FileFunction,Copper,L1,Top*
G04 #@! TF.FilePolarity,Positive*
%FSLAX46Y46*%
G04 Gerber Fmt 4.6, Leading zero omitted, Abs format (unit mm)*
G04 Created by KiCad (PCBNEW 7.0.8) date 2024-09-22 21:48:36*
%MOMM*%
%LPD*%
G01*
G04 APERTURE LIST*
G04 Aperture macros list*
%AMRoundRect*
0 Rectangle with rounded corners*
0 $1 Rounding radius*
0 $2 $3 $4 $5 $6 $7 $8 $9 X,Y pos of 4 corners*
0 Add a 4 corners polygon primitive as box body*
4,1,4,$2,$3,$4,$5,$6,$7,$8,$9,$2,$3,0*
0 Add four circle primitives for the rounded corners*
1,1,$1+$1,$2,$3*
1,1,$1+$1,$4,$5*
1,1,$1+$1,$6,$7*
1,1,$1+$1,$8,$9*
0 Add four rect primitives between the rounded corners*
20,1,$1+$1,$2,$3,$4,$5,0*
20,1,$1+$1,$4,$5,$6,$7,0*
20,1,$1+$1,$6,$7,$8,$9,0*
20,1,$1+$1,$8,$9,$2,$3,0*%
G04 Aperture macros list end*
G04 #@! TA.AperFunction,WasherPad*
%ADD10RoundRect,1.600000X0.400000X0.000000X-0.400000X0.000000X-0.400000X0.000000X0.400000X0.000000X0*%
G04 #@! TD*
G04 #@! TA.AperFunction,WasherPad*
%ADD11C,7.400000*%
G04 #@! TD*
G04 #@! TA.AperFunction,WasherPad*
%ADD12C,5.100000*%
G04 #@! TD*
G04 #@! TA.AperFunction,WasherPad*
%ADD13RoundRect,1.600000X-0.400000X0.000000X0.400000X0.000000X0.400000X0.000000X-0.400000X0.000000X0*%
G04 #@! TD*
G04 APERTURE END LIST*
D10*
X153220000Y-103000000D03*
D11*
X108527000Y-172938000D03*
D12*
X123043000Y-159339000D03*
D10*
X153220000Y-225500000D03*
D13*
X107500000Y-103000000D03*
D11*
X152073000Y-172938000D03*
X123043000Y-172938000D03*
X137558000Y-172938000D03*
D13*
X107500000Y-225500000D03*
G04 #@! TA.AperFunction,NonConductor*
G36*
X160142539Y-100420185D02*
G01*
X160188294Y-100472989D01*
X160199500Y-100524500D01*
X160199500Y-227975500D01*
X160179815Y-228042539D01*
X160127011Y-228088294D01*
X160075500Y-228099500D01*
X100524500Y-228099500D01*
X100457461Y-228079815D01*
X100411706Y-228027011D01*
X100400500Y-227975500D01*
X100400500Y-225643679D01*
X104999500Y-225643679D01*
X104999985Y-225647210D01*
X105003059Y-225669574D01*
X105003553Y-225674826D01*
X105005630Y-225715304D01*
X105005631Y-225715321D01*
X105023949Y-225821557D01*
X105038629Y-225928359D01*
X105047482Y-225959961D01*
X105048879Y-225966153D01*
X105054453Y-225998480D01*
X105054455Y-225998486D01*
X105087070Y-226101248D01*
X105116156Y-226205058D01*
X105116157Y-226205060D01*
X105129226Y-226235149D01*
X105131454Y-226241094D01*
X105141383Y-226272375D01*
X105141385Y-226272381D01*
X105187685Y-226369736D01*
X105230636Y-226468619D01*
X105230636Y-226468620D01*
X105247691Y-226496667D01*
X105250706Y-226502251D01*
X105264799Y-226531882D01*
X105323927Y-226622030D01*
X105379945Y-226714147D01*
X105392771Y-226729912D01*
X105400653Y-226739601D01*
X105404395Y-226744714D01*
X105422400Y-226772164D01*
X105422402Y-226772167D01*
X105493250Y-226853418D01*
X105561289Y-226937050D01*
X105561291Y-226937052D01*
X105561292Y-226937053D01*
X105585270Y-226959447D01*
X105585278Y-226959454D01*
X105589681Y-226964010D01*
X105611252Y-226988748D01*
X105692497Y-227059590D01*
X105771296Y-227133184D01*
X105771298Y-227133185D01*
X105771302Y-227133189D01*
X105798108Y-227152110D01*
X105803104Y-227156035D01*
X105803109Y-227156039D01*
X105827836Y-227177600D01*
X105917990Y-227236732D01*
X106006064Y-227298901D01*
X106006068Y-227298903D01*
X106035195Y-227313995D01*
X106040675Y-227317200D01*
X106068118Y-227335201D01*
X106165488Y-227381508D01*
X106261203Y-227431104D01*
X106283877Y-227439162D01*
X106292118Y-227442091D01*
X106297986Y-227444522D01*
X106308247Y-227449401D01*
X106327622Y-227458616D01*
X106430384Y-227491231D01*
X106531968Y-227527334D01*
X106531969Y-227527334D01*
X106531971Y-227527335D01*
X106540342Y-227529074D01*
X106564109Y-227534013D01*
X106570221Y-227535613D01*
X106601514Y-227545545D01*
X106707758Y-227563863D01*
X106813314Y-227585798D01*
X106846046Y-227588037D01*
X106852347Y-227588793D01*
X106884692Y-227594370D01*
X106934513Y-227596924D01*
X107004257Y-227600500D01*
X107004264Y-227600500D01*
X107995743Y-227600500D01*
X108115302Y-227594371D01*
X108147643Y-227588795D01*
X108153952Y-227588037D01*
X108163878Y-227587357D01*
X108186686Y-227585798D01*
X108292241Y-227563863D01*
X108398486Y-227545545D01*
X108429765Y-227535617D01*
X108435891Y-227534012D01*
X108468032Y-227527334D01*
X108569615Y-227491231D01*
X108672378Y-227458616D01*
X108702028Y-227444514D01*
X108707865Y-227442096D01*
X108738797Y-227431104D01*
X108834511Y-227381508D01*
X108931882Y-227335201D01*
X108959324Y-227317200D01*
X108964793Y-227314000D01*
X108993936Y-227298901D01*
X109082009Y-227236732D01*
X109172164Y-227177600D01*
X109196898Y-227156031D01*
X109201866Y-227152127D01*
X109228698Y-227133189D01*
X109307502Y-227059590D01*
X109388748Y-226988748D01*
X109410317Y-226964010D01*
X109414718Y-226959456D01*
X109438708Y-226937053D01*
X109506749Y-226853418D01*
X109577600Y-226772164D01*
X109595601Y-226744717D01*
X109599335Y-226739613D01*
X109620055Y-226714147D01*
X109676072Y-226622030D01*
X109735201Y-226531882D01*
X109749297Y-226502241D01*
X109752308Y-226496667D01*
X109762640Y-226479675D01*
X109769361Y-226468626D01*
X109769362Y-226468623D01*
X109812314Y-226369736D01*
X109858611Y-226272388D01*
X109858616Y-226272378D01*
X109868548Y-226241082D01*
X109870765Y-226235165D01*
X109883844Y-226205058D01*
X109912929Y-226101248D01*
X109945545Y-225998486D01*
X109951124Y-225966122D01*
X109952516Y-225959961D01*
X109961371Y-225928358D01*
X109976050Y-225821558D01*
X109994370Y-225715308D01*
X109996445Y-225674825D01*
X109996940Y-225669574D01*
X110000499Y-225643682D01*
X110000500Y-225643681D01*
X110000500Y-225643679D01*
X150719500Y-225643679D01*
X150719985Y-225647210D01*
X150723059Y-225669574D01*
X150723553Y-225674826D01*
X150725630Y-225715304D01*
X150725631Y-225715321D01*
X150743949Y-225821557D01*
X150758629Y-225928359D01*
X150767482Y-225959961D01*
X150768879Y-225966153D01*
X150774453Y-225998480D01*
X150774455Y-225998486D01*
X150807070Y-226101248D01*
X150836156Y-226205058D01*
X150836157Y-226205060D01*
X150849226Y-226235149D01*
X150851454Y-226241094D01*
X150861383Y-226272375D01*
X150861385Y-226272381D01*
X150907685Y-226369736D01*
X150950636Y-226468619D01*
X150950636Y-226468620D01*
X150967691Y-226496667D01*
X150970706Y-226502251D01*
X150984799Y-226531882D01*
X151043927Y-226622030D01*
X151099945Y-226714147D01*
X151112771Y-226729912D01*
X151120653Y-226739601D01*
X151124395Y-226744714D01*
X151142400Y-226772164D01*
X151142402Y-226772167D01*
X151213250Y-226853418D01*
X151281289Y-226937050D01*
X151281291Y-226937052D01*
X151281292Y-226937053D01*
X151305270Y-226959447D01*
X151305278Y-226959454D01*
X151309681Y-226964010D01*
X151331252Y-226988748D01*
X151412497Y-227059590D01*
X151491296Y-227133184D01*
X151491298Y-227133185D01*
X151491302Y-227133189D01*
X151518108Y-227152110D01*
X151523104Y-227156035D01*
X151523109Y-227156039D01*
X151547836Y-227177600D01*
X151637990Y-227236732D01*
X151726064Y-227298901D01*
X151726068Y-227298903D01*
X151755195Y-227313995D01*
X151760675Y-227317200D01*
X151788118Y-227335201D01*
X151885488Y-227381508D01*
X151981203Y-227431104D01*
X152003877Y-227439162D01*
X152012118Y-227442091D01*
X152017986Y-227444522D01*
X152028247Y-227449401D01*
X152047622Y-227458616D01*
X152150384Y-227491231D01*
X152251968Y-227527334D01*
X152251969Y-227527334D01*
X152251971Y-227527335D01*
X152260342Y-227529074D01*
X152284109Y-227534013D01*
X152290221Y-227535613D01*
X152321514Y-227545545D01*
X152427758Y-227563863D01*
X152533314Y-227585798D01*
X152566046Y-227588037D01*
X152572347Y-227588793D01*
X152604692Y-227594370D01*
X152654513Y-227596924D01*
X152724257Y-227600500D01*
X152724264Y-227600500D01*
X153715743Y-227600500D01*
X153835302Y-227594371D01*
X153867643Y-227588795D01*
X153873952Y-227588037D01*
X153883878Y-227587357D01*
X153906686Y-227585798D01*
X154012241Y-227563863D01*
X154118486Y-227545545D01*
X154149765Y-227535617D01*
X154155891Y-227534012D01*
X154188032Y-227527334D01*
X154289615Y-227491231D01*
X154392378Y-227458616D01*
X154422028Y-227444514D01*
X154427865Y-227442096D01*
X154458797Y-227431104D01*
X154554511Y-227381508D01*
X154651882Y-227335201D01*
X154679324Y-227317200D01*
X154684793Y-227314000D01*
X154713936Y-227298901D01*
X154802009Y-227236732D01*
X154892164Y-227177600D01*
X154916898Y-227156031D01*
X154921866Y-227152127D01*
X154948698Y-227133189D01*
X155027502Y-227059590D01*
X155108748Y-226988748D01*
X155130317Y-226964010D01*
X155134718Y-226959456D01*
X155158708Y-226937053D01*
X155226749Y-226853418D01*
X155297600Y-226772164D01*
X155315601Y-226744717D01*
X155319335Y-226739613D01*
X155340055Y-226714147D01*
X155396072Y-226622030D01*
X155455201Y-226531882D01*
X155469297Y-226502241D01*
X155472308Y-226496667D01*
X155482640Y-226479675D01*
X155489361Y-226468626D01*
X155489362Y-226468623D01*
X155532314Y-226369736D01*
X155578611Y-226272388D01*
X155578616Y-226272378D01*
X155588548Y-226241082D01*
X155590765Y-226235165D01*
X155603844Y-226205058D01*
X155632929Y-226101248D01*
X155665545Y-225998486D01*
X155671124Y-225966122D01*
X155672516Y-225959961D01*
X155681371Y-225928358D01*
X155696050Y-225821558D01*
X155714370Y-225715308D01*
X155716445Y-225674825D01*
X155716940Y-225669574D01*
X155720499Y-225643682D01*
X155720500Y-225643681D01*
X155720500Y-225356324D01*
X155716940Y-225330424D01*
X155716445Y-225325173D01*
X155714370Y-225284692D01*
X155696050Y-225178441D01*
X155681371Y-225071642D01*
X155672517Y-225040040D01*
X155671120Y-225033851D01*
X155665545Y-225001514D01*
X155632929Y-224898751D01*
X155603844Y-224794942D01*
X155590765Y-224764832D01*
X155588543Y-224758903D01*
X155578616Y-224727622D01*
X155532314Y-224630263D01*
X155489361Y-224531375D01*
X155472306Y-224503330D01*
X155469293Y-224497749D01*
X155455204Y-224468124D01*
X155455201Y-224468118D01*
X155396072Y-224377969D01*
X155340055Y-224285853D01*
X155319344Y-224260396D01*
X155315595Y-224255272D01*
X155297602Y-224227838D01*
X155226749Y-224146581D01*
X155158712Y-224062952D01*
X155158708Y-224062947D01*
X155134717Y-224040540D01*
X155130317Y-224035989D01*
X155108748Y-224011252D01*
X155027502Y-223940409D01*
X154948701Y-223866813D01*
X154944392Y-223863771D01*
X154921884Y-223847883D01*
X154916900Y-223843969D01*
X154892164Y-223822400D01*
X154802009Y-223763267D01*
X154713936Y-223701099D01*
X154684797Y-223686000D01*
X154679329Y-223682802D01*
X154651882Y-223664799D01*
X154651878Y-223664797D01*
X154651873Y-223664794D01*
X154554511Y-223618491D01*
X154458796Y-223568895D01*
X154458792Y-223568894D01*
X154427874Y-223557905D01*
X154422006Y-223555474D01*
X154392385Y-223541386D01*
X154392380Y-223541385D01*
X154392378Y-223541384D01*
X154289615Y-223508768D01*
X154188044Y-223472670D01*
X154188038Y-223472668D01*
X154188032Y-223472666D01*
X154155903Y-223465988D01*
X154149762Y-223464380D01*
X154118497Y-223454458D01*
X154118489Y-223454456D01*
X154118486Y-223454455D01*
X154118482Y-223454454D01*
X154118481Y-223454454D01*
X154012241Y-223436136D01*
X153906686Y-223414202D01*
X153906681Y-223414201D01*
X153906682Y-223414201D01*
X153873943Y-223411961D01*
X153867647Y-223411205D01*
X153854199Y-223408886D01*
X153835312Y-223405630D01*
X153835297Y-223405628D01*
X153715743Y-223399500D01*
X153715736Y-223399500D01*
X152724264Y-223399500D01*
X152724257Y-223399500D01*
X152604706Y-223405628D01*
X152604678Y-223405631D01*
X152572348Y-223411204D01*
X152566048Y-223411961D01*
X152533319Y-223414201D01*
X152427758Y-223436136D01*
X152321516Y-223454454D01*
X152321502Y-223454458D01*
X152290241Y-223464379D01*
X152284100Y-223465987D01*
X152251980Y-223472662D01*
X152251954Y-223472670D01*
X152150384Y-223508768D01*
X152047618Y-223541385D01*
X152017989Y-223555476D01*
X152012124Y-223557906D01*
X151981200Y-223568897D01*
X151885488Y-223618491D01*
X151788120Y-223664797D01*
X151788112Y-223664802D01*
X151760676Y-223682798D01*
X151755193Y-223686005D01*
X151726064Y-223701098D01*
X151637990Y-223763267D01*
X151547836Y-223822400D01*
X151547827Y-223822406D01*
X151523102Y-223843965D01*
X151518110Y-223847887D01*
X151491311Y-223866803D01*
X151491294Y-223866817D01*
X151412497Y-223940409D01*
X151331258Y-224011246D01*
X151331256Y-224011247D01*
X151309691Y-224035978D01*
X151305280Y-224040542D01*
X151281293Y-224062944D01*
X151281292Y-224062945D01*
X151213250Y-224146581D01*
X151142398Y-224227837D01*
X151142395Y-224227842D01*
X151124403Y-224255273D01*
X151120654Y-224260396D01*
X151099943Y-224285855D01*
X151099941Y-224285858D01*
X151043927Y-224377969D01*
X150984800Y-224468115D01*
X150970706Y-224497747D01*
X150967691Y-224503330D01*
X150950640Y-224531372D01*
X150907685Y-224630263D01*
X150861384Y-224727620D01*
X150861383Y-224727622D01*
X150851454Y-224758904D01*
X150849227Y-224764846D01*
X150836156Y-224794942D01*
X150807070Y-224898751D01*
X150774455Y-225001513D01*
X150768879Y-225033847D01*
X150767482Y-225040040D01*
X150758629Y-225071642D01*
X150758629Y-225071643D01*
X150743949Y-225178442D01*
X150725632Y-225284675D01*
X150725630Y-225284695D01*
X150723555Y-225325151D01*
X150723059Y-225330415D01*
X150719500Y-225356316D01*
X150719500Y-225643679D01*
X110000500Y-225643679D01*
X110000500Y-225356324D01*
X109996940Y-225330424D01*
X109996445Y-225325173D01*
X109994370Y-225284692D01*
X109976050Y-225178441D01*
X109961371Y-225071642D01*
X109952517Y-225040040D01*
X109951120Y-225033851D01*
X109945545Y-225001514D01*
X109912929Y-224898751D01*
X109883844Y-224794942D01*
X109870765Y-224764832D01*
X109868543Y-224758903D01*
X109858616Y-224727622D01*
X109812314Y-224630263D01*
X109769361Y-224531375D01*
X109752306Y-224503330D01*
X109749293Y-224497749D01*
X109735204Y-224468124D01*
X109735201Y-224468118D01*
X109676072Y-224377969D01*
X109620055Y-224285853D01*
X109599344Y-224260396D01*
X109595595Y-224255272D01*
X109577602Y-224227838D01*
X109506749Y-224146581D01*
X109438712Y-224062952D01*
X109438708Y-224062947D01*
X109414717Y-224040540D01*
X109410317Y-224035989D01*
X109388748Y-224011252D01*
X109307502Y-223940409D01*
X109228701Y-223866813D01*
X109224392Y-223863771D01*
X109201884Y-223847883D01*
X109196900Y-223843969D01*
X109172164Y-223822400D01*
X109082009Y-223763267D01*
X108993936Y-223701099D01*
X108964797Y-223686000D01*
X108959329Y-223682802D01*
X108931882Y-223664799D01*
X108931878Y-223664797D01*
X108931873Y-223664794D01*
X108834511Y-223618491D01*
X108738796Y-223568895D01*
X108738792Y-223568894D01*
X108707874Y-223557905D01*
X108702006Y-223555474D01*
X108672385Y-223541386D01*
X108672380Y-223541385D01*
X108672378Y-223541384D01*
X108569615Y-223508768D01*
X108468044Y-223472670D01*
X108468038Y-223472668D01*
X108468032Y-223472666D01*
X108435903Y-223465988D01*
X108429762Y-223464380D01*
X108398497Y-223454458D01*
X108398489Y-223454456D01*
X108398486Y-223454455D01*
X108398482Y-223454454D01*
X108398481Y-223454454D01*
X108292241Y-223436136D01*
X108186686Y-223414202D01*
X108186681Y-223414201D01*
X108186682Y-223414201D01*
X108153943Y-223411961D01*
X108147647Y-223411205D01*
X108134199Y-223408886D01*
X108115312Y-223405630D01*
X108115297Y-223405628D01*
X107995743Y-223399500D01*
X107995736Y-223399500D01*
X107004264Y-223399500D01*
X107004257Y-223399500D01*
X106884706Y-223405628D01*
X106884678Y-223405631D01*
X106852348Y-223411204D01*
X106846048Y-223411961D01*
X106813319Y-223414201D01*
X106707758Y-223436136D01*
X106601516Y-223454454D01*
X106601502Y-223454458D01*
X106570241Y-223464379D01*
X106564100Y-223465987D01*
X106531980Y-223472662D01*
X106531954Y-223472670D01*
X106430384Y-223508768D01*
X106327618Y-223541385D01*
X106297989Y-223555476D01*
X106292124Y-223557906D01*
X106261200Y-223568897D01*
X106165488Y-223618491D01*
X106068120Y-223664797D01*
X106068112Y-223664802D01*
X106040676Y-223682798D01*
X106035193Y-223686005D01*
X106006064Y-223701098D01*
X105917990Y-223763267D01*
X105827836Y-223822400D01*
X105827827Y-223822406D01*
X105803102Y-223843965D01*
X105798110Y-223847887D01*
X105771311Y-223866803D01*
X105771294Y-223866817D01*
X105692497Y-223940409D01*
X105611258Y-224011246D01*
X105611256Y-224011247D01*
X105589691Y-224035978D01*
X105585280Y-224040542D01*
X105561293Y-224062944D01*
X105561292Y-224062945D01*
X105493250Y-224146581D01*
X105422398Y-224227837D01*
X105422395Y-224227842D01*
X105404403Y-224255273D01*
X105400654Y-224260396D01*
X105379943Y-224285855D01*
X105379941Y-224285858D01*
X105323927Y-224377969D01*
X105264800Y-224468115D01*
X105250706Y-224497747D01*
X105247691Y-224503330D01*
X105230640Y-224531372D01*
X105187685Y-224630263D01*
X105141384Y-224727620D01*
X105141383Y-224727622D01*
X105131454Y-224758904D01*
X105129227Y-224764846D01*
X105116156Y-224794942D01*
X105087070Y-224898751D01*
X105054455Y-225001513D01*
X105048879Y-225033847D01*
X105047482Y-225040040D01*
X105038629Y-225071642D01*
X105038629Y-225071643D01*
X105023949Y-225178442D01*
X105005632Y-225284675D01*
X105005630Y-225284695D01*
X105003555Y-225325151D01*
X105003059Y-225330415D01*
X104999500Y-225356316D01*
X104999500Y-225643679D01*
X100400500Y-225643679D01*
X100400500Y-215508534D01*
X107096500Y-215508534D01*
X107135520Y-215742373D01*
X107212493Y-215966587D01*
X107212496Y-215966595D01*
X107325327Y-216175088D01*
X107470940Y-216362172D01*
X107470943Y-216362175D01*
X107645356Y-216522734D01*
X107645355Y-216522734D01*
X107843824Y-216652399D01*
X108060924Y-216747629D01*
X108118378Y-216762178D01*
X108290740Y-216805826D01*
X108467829Y-216820500D01*
X108467831Y-216820500D01*
X108586169Y-216820500D01*
X108586171Y-216820500D01*
X108763260Y-216805826D01*
X108993075Y-216747629D01*
X109210176Y-216652399D01*
X109408643Y-216522735D01*
X109583060Y-216362172D01*
X109728671Y-216175091D01*
X109841504Y-215966595D01*
X109918480Y-215742371D01*
X109957500Y-215508535D01*
X109957500Y-215508534D01*
X121612500Y-215508534D01*
X121651520Y-215742373D01*
X121728493Y-215966587D01*
X121728496Y-215966595D01*
X121841327Y-216175088D01*
X121986940Y-216362172D01*
X121986943Y-216362175D01*
X122161356Y-216522734D01*
X122161355Y-216522734D01*
X122359824Y-216652399D01*
X122576924Y-216747629D01*
X122634378Y-216762178D01*
X122806740Y-216805826D01*
X122983829Y-216820500D01*
X122983831Y-216820500D01*
X123102169Y-216820500D01*
X123102171Y-216820500D01*
X123279260Y-216805826D01*
X123509075Y-216747629D01*
X123726176Y-216652399D01*
X123924643Y-216522735D01*
X124099060Y-216362172D01*
X124244671Y-216175091D01*
X124357504Y-215966595D01*
X124434480Y-215742371D01*
X124473500Y-215508535D01*
X124473500Y-215508534D01*
X136127500Y-215508534D01*
X136166520Y-215742373D01*
X136243493Y-215966587D01*
X136243496Y-215966595D01*
X136356327Y-216175088D01*
X136501940Y-216362172D01*
X136501943Y-216362175D01*
X136676356Y-216522734D01*
X136676355Y-216522734D01*
X136874824Y-216652399D01*
X137091924Y-216747629D01*
X137149378Y-216762178D01*
X137321740Y-216805826D01*
X137498829Y-216820500D01*
X137498831Y-216820500D01*
X137617169Y-216820500D01*
X137617171Y-216820500D01*
X137794260Y-216805826D01*
X138024075Y-216747629D01*
X138241176Y-216652399D01*
X138439643Y-216522735D01*
X138614060Y-216362172D01*
X138759671Y-216175091D01*
X138872504Y-215966595D01*
X138949480Y-215742371D01*
X138988500Y-215508535D01*
X138988500Y-215508534D01*
X150642500Y-215508534D01*
X150681520Y-215742373D01*
X150758493Y-215966587D01*
X150758496Y-215966595D01*
X150871327Y-216175088D01*
X151016940Y-216362172D01*
X151016943Y-216362175D01*
X151191356Y-216522734D01*
X151191355Y-216522734D01*
X151389824Y-216652399D01*
X151606924Y-216747629D01*
X151664378Y-216762178D01*
X151836740Y-216805826D01*
X152013829Y-216820500D01*
X152013831Y-216820500D01*
X152132169Y-216820500D01*
X152132171Y-216820500D01*
X152309260Y-216805826D01*
X152539075Y-216747629D01*
X152756176Y-216652399D01*
X152954643Y-216522735D01*
X153129060Y-216362172D01*
X153274671Y-216175091D01*
X153387504Y-215966595D01*
X153464480Y-215742371D01*
X153503500Y-215508535D01*
X153503500Y-215271465D01*
X153464480Y-215037629D01*
X153387504Y-214813405D01*
X153274671Y-214604909D01*
X153129060Y-214417828D01*
X152954643Y-214257265D01*
X152954644Y-214257265D01*
X152756175Y-214127600D01*
X152539075Y-214032370D01*
X152309256Y-213974173D01*
X152167346Y-213962414D01*
X152132171Y-213959500D01*
X152013829Y-213959500D01*
X151981831Y-213962151D01*
X151836743Y-213974173D01*
X151606924Y-214032370D01*
X151389824Y-214127600D01*
X151191355Y-214257265D01*
X151016943Y-214417824D01*
X151016940Y-214417827D01*
X150871327Y-214604911D01*
X150758496Y-214813404D01*
X150758493Y-214813412D01*
X150681520Y-215037626D01*
X150642500Y-215271465D01*
X150642500Y-215508534D01*
X138988500Y-215508534D01*
X138988500Y-215271465D01*
X138949480Y-215037629D01*
X138872504Y-214813405D01*
X138759671Y-214604909D01*
X138614060Y-214417828D01*
X138439643Y-214257265D01*
X138439644Y-214257265D01*
X138241175Y-214127600D01*
X138024075Y-214032370D01*
X137794256Y-213974173D01*
X137652346Y-213962414D01*
X137617171Y-213959500D01*
X137498829Y-213959500D01*
X137466831Y-213962151D01*
X137321743Y-213974173D01*
X137091924Y-214032370D01*
X136874824Y-214127600D01*
X136676355Y-214257265D01*
X136501943Y-214417824D01*
X136501940Y-214417827D01*
X136356327Y-214604911D01*
X136243496Y-214813404D01*
X136243493Y-214813412D01*
X136166520Y-215037626D01*
X136127500Y-215271465D01*
X136127500Y-215508534D01*
X124473500Y-215508534D01*
X124473500Y-215271465D01*
X124434480Y-215037629D01*
X124357504Y-214813405D01*
X124244671Y-214604909D01*
X124099060Y-214417828D01*
X123924643Y-214257265D01*
X123924644Y-214257265D01*
X123726175Y-214127600D01*
X123509075Y-214032370D01*
X123279256Y-213974173D01*
X123137346Y-213962414D01*
X123102171Y-213959500D01*
X122983829Y-213959500D01*
X122951831Y-213962151D01*
X122806743Y-213974173D01*
X122576924Y-214032370D01*
X122359824Y-214127600D01*
X122161355Y-214257265D01*
X121986943Y-214417824D01*
X121986940Y-214417827D01*
X121841327Y-214604911D01*
X121728496Y-214813404D01*
X121728493Y-214813412D01*
X121651520Y-215037626D01*
X121612500Y-215271465D01*
X121612500Y-215508534D01*
X109957500Y-215508534D01*
X109957500Y-215271465D01*
X109918480Y-215037629D01*
X109841504Y-214813405D01*
X109728671Y-214604909D01*
X109583060Y-214417828D01*
X109408643Y-214257265D01*
X109408644Y-214257265D01*
X109210175Y-214127600D01*
X108993075Y-214032370D01*
X108763256Y-213974173D01*
X108621346Y-213962414D01*
X108586171Y-213959500D01*
X108467829Y-213959500D01*
X108435831Y-213962151D01*
X108290743Y-213974173D01*
X108060924Y-214032370D01*
X107843824Y-214127600D01*
X107645355Y-214257265D01*
X107470943Y-214417824D01*
X107470940Y-214417827D01*
X107325327Y-214604911D01*
X107212496Y-214813404D01*
X107212493Y-214813412D01*
X107135520Y-215037626D01*
X107096500Y-215271465D01*
X107096500Y-215508534D01*
X100400500Y-215508534D01*
X100400500Y-211514558D01*
X106626500Y-211514558D01*
X106626501Y-211514575D01*
X106659017Y-211761561D01*
X106723498Y-212002207D01*
X106818830Y-212232361D01*
X106818837Y-212232376D01*
X106943400Y-212448126D01*
X107095060Y-212645774D01*
X107095066Y-212645781D01*
X107271218Y-212821933D01*
X107271225Y-212821939D01*
X107468873Y-212973599D01*
X107684623Y-213098162D01*
X107684638Y-213098169D01*
X107783825Y-213139253D01*
X107914793Y-213193502D01*
X108155435Y-213257982D01*
X108402435Y-213290500D01*
X108402442Y-213290500D01*
X108651558Y-213290500D01*
X108651565Y-213290500D01*
X108898565Y-213257982D01*
X109139207Y-213193502D01*
X109369373Y-213098164D01*
X109585127Y-212973599D01*
X109782776Y-212821938D01*
X109958938Y-212645776D01*
X110110599Y-212448127D01*
X110235164Y-212232373D01*
X110330502Y-212002207D01*
X110394982Y-211761565D01*
X110427500Y-211514565D01*
X110427500Y-211514558D01*
X121142500Y-211514558D01*
X121142501Y-211514575D01*
X121175017Y-211761561D01*
X121239498Y-212002207D01*
X121334830Y-212232361D01*
X121334837Y-212232376D01*
X121459400Y-212448126D01*
X121611060Y-212645774D01*
X121611066Y-212645781D01*
X121787218Y-212821933D01*
X121787225Y-212821939D01*
X121984873Y-212973599D01*
X122200623Y-213098162D01*
X122200638Y-213098169D01*
X122299825Y-213139253D01*
X122430793Y-213193502D01*
X122671435Y-213257982D01*
X122918435Y-213290500D01*
X122918442Y-213290500D01*
X123167558Y-213290500D01*
X123167565Y-213290500D01*
X123414565Y-213257982D01*
X123655207Y-213193502D01*
X123885373Y-213098164D01*
X124101127Y-212973599D01*
X124298776Y-212821938D01*
X124474938Y-212645776D01*
X124626599Y-212448127D01*
X124751164Y-212232373D01*
X124846502Y-212002207D01*
X124910982Y-211761565D01*
X124943500Y-211514565D01*
X124943500Y-211514558D01*
X135657500Y-211514558D01*
X135657501Y-211514575D01*
X135690017Y-211761561D01*
X135754498Y-212002207D01*
X135849830Y-212232361D01*
X135849837Y-212232376D01*
X135974400Y-212448126D01*
X136126060Y-212645774D01*
X136126066Y-212645781D01*
X136302218Y-212821933D01*
X136302225Y-212821939D01*
X136499873Y-212973599D01*
X136715623Y-213098162D01*
X136715638Y-213098169D01*
X136814825Y-213139253D01*
X136945793Y-213193502D01*
X137186435Y-213257982D01*
X137433435Y-213290500D01*
X137433442Y-213290500D01*
X137682558Y-213290500D01*
X137682565Y-213290500D01*
X137929565Y-213257982D01*
X138170207Y-213193502D01*
X138400373Y-213098164D01*
X138616127Y-212973599D01*
X138813776Y-212821938D01*
X138989938Y-212645776D01*
X139141599Y-212448127D01*
X139266164Y-212232373D01*
X139361502Y-212002207D01*
X139425982Y-211761565D01*
X139458500Y-211514565D01*
X139458500Y-211514558D01*
X150172500Y-211514558D01*
X150172501Y-211514575D01*
X150205017Y-211761561D01*
X150269498Y-212002207D01*
X150364830Y-212232361D01*
X150364837Y-212232376D01*
X150489400Y-212448126D01*
X150641060Y-212645774D01*
X150641066Y-212645781D01*
X150817218Y-212821933D01*
X150817225Y-212821939D01*
X151014873Y-212973599D01*
X151230623Y-213098162D01*
X151230638Y-213098169D01*
X151329825Y-213139253D01*
X151460793Y-213193502D01*
X151701435Y-213257982D01*
X151948435Y-213290500D01*
X151948442Y-213290500D01*
X152197558Y-213290500D01*
X152197565Y-213290500D01*
X152444565Y-213257982D01*
X152685207Y-213193502D01*
X152915373Y-213098164D01*
X153131127Y-212973599D01*
X153328776Y-212821938D01*
X153504938Y-212645776D01*
X153656599Y-212448127D01*
X153781164Y-212232373D01*
X153876502Y-212002207D01*
X153940982Y-211761565D01*
X153973500Y-211514565D01*
X153973500Y-211390000D01*
X153973500Y-211332417D01*
X153973500Y-188358481D01*
X153973500Y-188265435D01*
X153940982Y-188018435D01*
X153876502Y-187777793D01*
X153822253Y-187646825D01*
X153781169Y-187547638D01*
X153781162Y-187547623D01*
X153656599Y-187331873D01*
X153504939Y-187134225D01*
X153504933Y-187134218D01*
X153328781Y-186958066D01*
X153328774Y-186958060D01*
X153131126Y-186806400D01*
X152915376Y-186681837D01*
X152915361Y-186681830D01*
X152685207Y-186586498D01*
X152444561Y-186522017D01*
X152197575Y-186489501D01*
X152197570Y-186489500D01*
X152197565Y-186489500D01*
X152130583Y-186489500D01*
X152073000Y-186489500D01*
X151948435Y-186489500D01*
X151948429Y-186489500D01*
X151948424Y-186489501D01*
X151701438Y-186522017D01*
X151460792Y-186586498D01*
X151230638Y-186681830D01*
X151230623Y-186681837D01*
X151014873Y-186806400D01*
X150817225Y-186958060D01*
X150817218Y-186958066D01*
X150641066Y-187134218D01*
X150641060Y-187134225D01*
X150489400Y-187331873D01*
X150364837Y-187547623D01*
X150364830Y-187547638D01*
X150269498Y-187777792D01*
X150205017Y-188018438D01*
X150172501Y-188265424D01*
X150172500Y-188265441D01*
X150172500Y-211514558D01*
X139458500Y-211514558D01*
X139458500Y-211390000D01*
X139458500Y-211332417D01*
X139458500Y-188358481D01*
X139458500Y-188265435D01*
X139425982Y-188018435D01*
X139361502Y-187777793D01*
X139307253Y-187646825D01*
X139266169Y-187547638D01*
X139266162Y-187547623D01*
X139141599Y-187331873D01*
X138989939Y-187134225D01*
X138989933Y-187134218D01*
X138813781Y-186958066D01*
X138813774Y-186958060D01*
X138616126Y-186806400D01*
X138400376Y-186681837D01*
X138400361Y-186681830D01*
X138170207Y-186586498D01*
X137929561Y-186522017D01*
X137682575Y-186489501D01*
X137682570Y-186489500D01*
X137682565Y-186489500D01*
X137615583Y-186489500D01*
X137558000Y-186489500D01*
X137433435Y-186489500D01*
X137433429Y-186489500D01*
X137433424Y-186489501D01*
X137186438Y-186522017D01*
X136945792Y-186586498D01*
X136715638Y-186681830D01*
X136715623Y-186681837D01*
X136499873Y-186806400D01*
X136302225Y-186958060D01*
X136302218Y-186958066D01*
X136126066Y-187134218D01*
X136126060Y-187134225D01*
X135974400Y-187331873D01*
X135849837Y-187547623D01*
X135849830Y-187547638D01*
X135754498Y-187777792D01*
X135690017Y-188018438D01*
X135657501Y-188265424D01*
X135657500Y-188265441D01*
X135657500Y-211514558D01*
X124943500Y-211514558D01*
X124943500Y-211390000D01*
X124943500Y-211332417D01*
X124943500Y-188358481D01*
X124943500Y-188265435D01*
X124910982Y-188018435D01*
X124846502Y-187777793D01*
X124792253Y-187646825D01*
X124751169Y-187547638D01*
X124751162Y-187547623D01*
X124626599Y-187331873D01*
X124474939Y-187134225D01*
X124474933Y-187134218D01*
X124298781Y-186958066D01*
X124298774Y-186958060D01*
X124101126Y-186806400D01*
X123885376Y-186681837D01*
X123885361Y-186681830D01*
X123655207Y-186586498D01*
X123414561Y-186522017D01*
X123167575Y-186489501D01*
X123167570Y-186489500D01*
X123167565Y-186489500D01*
X123100583Y-186489500D01*
X123043000Y-186489500D01*
X122918435Y-186489500D01*
X122918429Y-186489500D01*
X122918424Y-186489501D01*
X122671438Y-186522017D01*
X122430792Y-186586498D01*
X122200638Y-186681830D01*
X122200623Y-186681837D01*
X121984873Y-186806400D01*
X121787225Y-186958060D01*
X121787218Y-186958066D01*
X121611066Y-187134218D01*
X121611060Y-187134225D01*
X121459400Y-187331873D01*
X121334837Y-187547623D01*
X121334830Y-187547638D01*
X121239498Y-187777792D01*
X121175017Y-188018438D01*
X121142501Y-188265424D01*
X121142500Y-188265441D01*
X121142500Y-211514558D01*
X110427500Y-211514558D01*
X110427500Y-211390000D01*
X110427500Y-211332417D01*
X110427500Y-188358481D01*
X110427500Y-188265435D01*
X110394982Y-188018435D01*
X110330502Y-187777793D01*
X110276253Y-187646825D01*
X110235169Y-187547638D01*
X110235162Y-187547623D01*
X110110599Y-187331873D01*
X109958939Y-187134225D01*
X109958933Y-187134218D01*
X109782781Y-186958066D01*
X109782774Y-186958060D01*
X109585126Y-186806400D01*
X109369376Y-186681837D01*
X109369361Y-186681830D01*
X109139207Y-186586498D01*
X108898561Y-186522017D01*
X108651575Y-186489501D01*
X108651570Y-186489500D01*
X108651565Y-186489500D01*
X108584583Y-186489500D01*
X108527000Y-186489500D01*
X108402435Y-186489500D01*
X108402429Y-186489500D01*
X108402424Y-186489501D01*
X108155438Y-186522017D01*
X107914792Y-186586498D01*
X107684638Y-186681830D01*
X107684623Y-186681837D01*
X107468873Y-186806400D01*
X107271225Y-186958060D01*
X107271218Y-186958066D01*
X107095066Y-187134218D01*
X107095060Y-187134225D01*
X106943400Y-187331873D01*
X106818837Y-187547623D01*
X106818830Y-187547638D01*
X106723498Y-187777792D01*
X106659017Y-188018438D01*
X106626501Y-188265424D01*
X106626500Y-188265441D01*
X106626500Y-211514558D01*
X100400500Y-211514558D01*
X100400500Y-184508534D01*
X107096500Y-184508534D01*
X107135520Y-184742373D01*
X107212493Y-184966587D01*
X107212496Y-184966595D01*
X107325327Y-185175088D01*
X107470940Y-185362172D01*
X107470943Y-185362175D01*
X107645356Y-185522734D01*
X107645355Y-185522734D01*
X107843824Y-185652399D01*
X108060924Y-185747629D01*
X108118378Y-185762178D01*
X108290740Y-185805826D01*
X108467829Y-185820500D01*
X108467831Y-185820500D01*
X108586169Y-185820500D01*
X108586171Y-185820500D01*
X108763260Y-185805826D01*
X108993075Y-185747629D01*
X109210176Y-185652399D01*
X109408643Y-185522735D01*
X109583060Y-185362172D01*
X109728671Y-185175091D01*
X109841504Y-184966595D01*
X109918480Y-184742371D01*
X109957500Y-184508535D01*
X109957500Y-184508534D01*
X121612500Y-184508534D01*
X121651520Y-184742373D01*
X121728493Y-184966587D01*
X121728496Y-184966595D01*
X121841327Y-185175088D01*
X121986940Y-185362172D01*
X121986943Y-185362175D01*
X122161356Y-185522734D01*
X122161355Y-185522734D01*
X122359824Y-185652399D01*
X122576924Y-185747629D01*
X122634378Y-185762178D01*
X122806740Y-185805826D01*
X122983829Y-185820500D01*
X122983831Y-185820500D01*
X123102169Y-185820500D01*
X123102171Y-185820500D01*
X123279260Y-185805826D01*
X123509075Y-185747629D01*
X123726176Y-185652399D01*
X123924643Y-185522735D01*
X124099060Y-185362172D01*
X124244671Y-185175091D01*
X124357504Y-184966595D01*
X124434480Y-184742371D01*
X124473500Y-184508535D01*
X124473500Y-184508534D01*
X136127500Y-184508534D01*
X136166520Y-184742373D01*
X136243493Y-184966587D01*
X136243496Y-184966595D01*
X136356327Y-185175088D01*
X136501940Y-185362172D01*
X136501943Y-185362175D01*
X136676356Y-185522734D01*
X136676355Y-185522734D01*
X136874824Y-185652399D01*
X137091924Y-185747629D01*
X137149378Y-185762178D01*
X137321740Y-185805826D01*
X137498829Y-185820500D01*
X137498831Y-185820500D01*
X137617169Y-185820500D01*
X137617171Y-185820500D01*
X137794260Y-185805826D01*
X138024075Y-185747629D01*
X138241176Y-185652399D01*
X138439643Y-185522735D01*
X138614060Y-185362172D01*
X138759671Y-185175091D01*
X138872504Y-184966595D01*
X138949480Y-184742371D01*
X138988500Y-184508535D01*
X138988500Y-184508534D01*
X150642500Y-184508534D01*
X150681520Y-184742373D01*
X150758493Y-184966587D01*
X150758496Y-184966595D01*
X150871327Y-185175088D01*
X151016940Y-185362172D01*
X151016943Y-185362175D01*
X151191356Y-185522734D01*
X151191355Y-185522734D01*
X151389824Y-185652399D01*
X151606924Y-185747629D01*
X151664378Y-185762178D01*
X151836740Y-185805826D01*
X152013829Y-185820500D01*
X152013831Y-185820500D01*
X152132169Y-185820500D01*
X152132171Y-185820500D01*
X152309260Y-185805826D01*
X152539075Y-185747629D01*
X152756176Y-185652399D01*
X152954643Y-185522735D01*
X153129060Y-185362172D01*
X153274671Y-185175091D01*
X153387504Y-184966595D01*
X153464480Y-184742371D01*
X153503500Y-184508535D01*
X153503500Y-184271465D01*
X153464480Y-184037629D01*
X153387504Y-183813405D01*
X153274671Y-183604909D01*
X153129060Y-183417828D01*
X152954643Y-183257265D01*
X152954644Y-183257265D01*
X152756175Y-183127600D01*
X152539075Y-183032370D01*
X152309256Y-182974173D01*
X152167346Y-182962414D01*
X152132171Y-182959500D01*
X152013829Y-182959500D01*
X151981831Y-182962151D01*
X151836743Y-182974173D01*
X151606924Y-183032370D01*
X151389824Y-183127600D01*
X151191355Y-183257265D01*
X151016943Y-183417824D01*
X151016940Y-183417827D01*
X150871327Y-183604911D01*
X150758496Y-183813404D01*
X150758493Y-183813412D01*
X150681520Y-184037626D01*
X150642500Y-184271465D01*
X150642500Y-184508534D01*
X138988500Y-184508534D01*
X138988500Y-184271465D01*
X138949480Y-184037629D01*
X138872504Y-183813405D01*
X138759671Y-183604909D01*
X138614060Y-183417828D01*
X138439643Y-183257265D01*
X138439644Y-183257265D01*
X138241175Y-183127600D01*
X138024075Y-183032370D01*
X137794256Y-182974173D01*
X137652346Y-182962414D01*
X137617171Y-182959500D01*
X137498829Y-182959500D01*
X137466831Y-182962151D01*
X137321743Y-182974173D01*
X137091924Y-183032370D01*
X136874824Y-183127600D01*
X136676355Y-183257265D01*
X136501943Y-183417824D01*
X136501940Y-183417827D01*
X136356327Y-183604911D01*
X136243496Y-183813404D01*
X136243493Y-183813412D01*
X136166520Y-184037626D01*
X136127500Y-184271465D01*
X136127500Y-184508534D01*
X124473500Y-184508534D01*
X124473500Y-184271465D01*
X124434480Y-184037629D01*
X124357504Y-183813405D01*
X124244671Y-183604909D01*
X124099060Y-183417828D01*
X123924643Y-183257265D01*
X123924644Y-183257265D01*
X123726175Y-183127600D01*
X123509075Y-183032370D01*
X123279256Y-182974173D01*
X123137346Y-182962414D01*
X123102171Y-182959500D01*
X122983829Y-182959500D01*
X122951831Y-182962151D01*
X122806743Y-182974173D01*
X122576924Y-183032370D01*
X122359824Y-183127600D01*
X122161355Y-183257265D01*
X121986943Y-183417824D01*
X121986940Y-183417827D01*
X121841327Y-183604911D01*
X121728496Y-183813404D01*
X121728493Y-183813412D01*
X121651520Y-184037626D01*
X121612500Y-184271465D01*
X121612500Y-184508534D01*
X109957500Y-184508534D01*
X109957500Y-184271465D01*
X109918480Y-184037629D01*
X109841504Y-183813405D01*
X109728671Y-183604909D01*
X109583060Y-183417828D01*
X109408643Y-183257265D01*
X109408644Y-183257265D01*
X109210175Y-183127600D01*
X108993075Y-183032370D01*
X108763256Y-182974173D01*
X108621346Y-182962414D01*
X108586171Y-182959500D01*
X108467829Y-182959500D01*
X108435831Y-182962151D01*
X108290743Y-182974173D01*
X108060924Y-183032370D01*
X107843824Y-183127600D01*
X107645355Y-183257265D01*
X107470943Y-183417824D01*
X107470940Y-183417827D01*
X107325327Y-183604911D01*
X107212496Y-183813404D01*
X107212493Y-183813412D01*
X107135520Y-184037626D01*
X107096500Y-184271465D01*
X107096500Y-184508534D01*
X100400500Y-184508534D01*
X100400500Y-172938000D01*
X104321434Y-172938000D01*
X104341685Y-173350218D01*
X104341685Y-173350223D01*
X104341686Y-173350227D01*
X104402244Y-173758471D01*
X104502527Y-174158821D01*
X104641555Y-174547379D01*
X104641562Y-174547395D01*
X104641564Y-174547400D01*
X104818022Y-174920490D01*
X104818024Y-174920493D01*
X105030198Y-175274484D01*
X105276058Y-175605988D01*
X105553215Y-175911784D01*
X105859011Y-176188941D01*
X105859017Y-176188946D01*
X106190513Y-176434800D01*
X106544510Y-176646978D01*
X106917600Y-176823436D01*
X106917609Y-176823439D01*
X106917620Y-176823444D01*
X107278738Y-176952654D01*
X107306189Y-176962476D01*
X107706535Y-177062757D01*
X108114782Y-177123315D01*
X108527000Y-177143566D01*
X108939218Y-177123315D01*
X109347465Y-177062757D01*
X109747811Y-176962476D01*
X109928380Y-176897866D01*
X110136379Y-176823444D01*
X110136385Y-176823441D01*
X110136400Y-176823436D01*
X110509490Y-176646978D01*
X110863487Y-176434800D01*
X111194983Y-176188946D01*
X111500784Y-175911784D01*
X111777946Y-175605983D01*
X112023800Y-175274487D01*
X112235978Y-174920490D01*
X112412436Y-174547400D01*
X112551476Y-174158811D01*
X112651757Y-173758465D01*
X112712315Y-173350218D01*
X112732566Y-172938000D01*
X118837434Y-172938000D01*
X118857685Y-173350218D01*
X118857685Y-173350223D01*
X118857686Y-173350227D01*
X118918244Y-173758471D01*
X119018527Y-174158821D01*
X119157555Y-174547379D01*
X119157562Y-174547395D01*
X119157564Y-174547400D01*
X119334022Y-174920490D01*
X119334024Y-174920493D01*
X119546198Y-175274484D01*
X119792058Y-175605988D01*
X120069215Y-175911784D01*
X120375011Y-176188941D01*
X120375017Y-176188946D01*
X120706513Y-176434800D01*
X121060510Y-176646978D01*
X121433600Y-176823436D01*
X121433609Y-176823439D01*
X121433620Y-176823444D01*
X121794738Y-176952654D01*
X121822189Y-176962476D01*
X122222535Y-177062757D01*
X122630782Y-177123315D01*
X123043000Y-177143566D01*
X123455218Y-177123315D01*
X123863465Y-177062757D01*
X124263811Y-176962476D01*
X124444380Y-176897866D01*
X124652379Y-176823444D01*
X124652385Y-176823441D01*
X124652400Y-176823436D01*
X125025490Y-176646978D01*
X125379487Y-176434800D01*
X125710983Y-176188946D01*
X126016784Y-175911784D01*
X126293946Y-175605983D01*
X126539800Y-175274487D01*
X126751978Y-174920490D01*
X126928436Y-174547400D01*
X127067476Y-174158811D01*
X127167757Y-173758465D01*
X127228315Y-173350218D01*
X127248566Y-172938000D01*
X133352434Y-172938000D01*
X133372685Y-173350218D01*
X133372685Y-173350223D01*
X133372686Y-173350227D01*
X133433244Y-173758471D01*
X133533527Y-174158821D01*
X133672555Y-174547379D01*
X133672562Y-174547395D01*
X133672564Y-174547400D01*
X133849022Y-174920490D01*
X133849024Y-174920493D01*
X134061198Y-175274484D01*
X134307058Y-175605988D01*
X134584215Y-175911784D01*
X134890011Y-176188941D01*
X134890017Y-176188946D01*
X135221513Y-176434800D01*
X135575510Y-176646978D01*
X135948600Y-176823436D01*
X135948609Y-176823439D01*
X135948620Y-176823444D01*
X136309738Y-176952654D01*
X136337189Y-176962476D01*
X136737535Y-177062757D01*
X137145782Y-177123315D01*
X137558000Y-177143566D01*
X137970218Y-177123315D01*
X138378465Y-177062757D01*
X138778811Y-176962476D01*
X138959380Y-176897866D01*
X139167379Y-176823444D01*
X139167385Y-176823441D01*
X139167400Y-176823436D01*
X139540490Y-176646978D01*
X139894487Y-176434800D01*
X140225983Y-176188946D01*
X140531784Y-175911784D01*
X140808946Y-175605983D01*
X141054800Y-175274487D01*
X141266978Y-174920490D01*
X141443436Y-174547400D01*
X141582476Y-174158811D01*
X141682757Y-173758465D01*
X141743315Y-173350218D01*
X141763566Y-172938000D01*
X147867434Y-172938000D01*
X147887685Y-173350218D01*
X147887685Y-173350223D01*
X147887686Y-173350227D01*
X147948244Y-173758471D01*
X148048527Y-174158821D01*
X148187555Y-174547379D01*
X148187562Y-174547395D01*
X148187564Y-174547400D01*
X148364022Y-174920490D01*
X148364024Y-174920493D01*
X148576198Y-175274484D01*
X148822058Y-175605988D01*
X149099215Y-175911784D01*
X149405011Y-176188941D01*
X149405017Y-176188946D01*
X149736513Y-176434800D01*
X150090510Y-176646978D01*
X150463600Y-176823436D01*
X150463609Y-176823439D01*
X150463620Y-176823444D01*
X150824738Y-176952654D01*
X150852189Y-176962476D01*
X151252535Y-177062757D01*
X151660782Y-177123315D01*
X152073000Y-177143566D01*
X152485218Y-177123315D01*
X152893465Y-177062757D01*
X153293811Y-176962476D01*
X153474380Y-176897866D01*
X153682379Y-176823444D01*
X153682385Y-176823441D01*
X153682400Y-176823436D01*
X154055490Y-176646978D01*
X154409487Y-176434800D01*
X154740983Y-176188946D01*
X155046784Y-175911784D01*
X155323946Y-175605983D01*
X155569800Y-175274487D01*
X155781978Y-174920490D01*
X155958436Y-174547400D01*
X156097476Y-174158811D01*
X156197757Y-173758465D01*
X156258315Y-173350218D01*
X156278566Y-172938000D01*
X156258315Y-172525782D01*
X156197757Y-172117535D01*
X156097476Y-171717189D01*
X156087654Y-171689738D01*
X155958444Y-171328620D01*
X155958437Y-171328604D01*
X155958436Y-171328600D01*
X155781978Y-170955510D01*
X155569800Y-170601513D01*
X155323946Y-170270017D01*
X155323941Y-170270011D01*
X155046784Y-169964215D01*
X154740988Y-169687058D01*
X154409484Y-169441198D01*
X154055493Y-169229024D01*
X154055494Y-169229024D01*
X154055490Y-169229022D01*
X153682400Y-169052564D01*
X153682396Y-169052562D01*
X153682395Y-169052562D01*
X153682379Y-169052555D01*
X153293821Y-168913527D01*
X153293815Y-168913525D01*
X153293811Y-168913524D01*
X153095205Y-168863776D01*
X152893471Y-168813244D01*
X152893466Y-168813243D01*
X152893465Y-168813243D01*
X152792577Y-168798277D01*
X152485227Y-168752686D01*
X152485223Y-168752685D01*
X152485218Y-168752685D01*
X152073000Y-168732434D01*
X151660782Y-168752685D01*
X151660776Y-168752685D01*
X151660772Y-168752686D01*
X151252528Y-168813244D01*
X150950316Y-168888944D01*
X150852189Y-168913524D01*
X150852186Y-168913524D01*
X150852178Y-168913527D01*
X150463620Y-169052555D01*
X150463604Y-169052562D01*
X150090506Y-169229024D01*
X149736515Y-169441198D01*
X149405011Y-169687058D01*
X149099215Y-169964215D01*
X148822058Y-170270011D01*
X148576198Y-170601515D01*
X148364024Y-170955506D01*
X148187562Y-171328604D01*
X148187555Y-171328620D01*
X148048527Y-171717178D01*
X147948244Y-172117528D01*
X147948243Y-172117535D01*
X147887685Y-172525782D01*
X147867434Y-172938000D01*
X141763566Y-172938000D01*
X141743315Y-172525782D01*
X141682757Y-172117535D01*
X141582476Y-171717189D01*
X141572654Y-171689738D01*
X141443444Y-171328620D01*
X141443437Y-171328604D01*
X141443436Y-171328600D01*
X141266978Y-170955510D01*
X141054800Y-170601513D01*
X140808946Y-170270017D01*
X140808941Y-170270011D01*
X140531784Y-169964215D01*
X140225988Y-169687058D01*
X139894484Y-169441198D01*
X139540493Y-169229024D01*
X139540494Y-169229024D01*
X139540490Y-169229022D01*
X139167400Y-169052564D01*
X139167396Y-169052562D01*
X139167395Y-169052562D01*
X139167379Y-169052555D01*
X138778821Y-168913527D01*
X138778815Y-168913525D01*
X138778811Y-168913524D01*
X138580205Y-168863776D01*
X138378471Y-168813244D01*
X138378466Y-168813243D01*
X138378465Y-168813243D01*
X138277577Y-168798277D01*
X137970227Y-168752686D01*
X137970223Y-168752685D01*
X137970218Y-168752685D01*
X137558000Y-168732434D01*
X137145782Y-168752685D01*
X137145776Y-168752685D01*
X137145772Y-168752686D01*
X136737528Y-168813244D01*
X136435316Y-168888944D01*
X136337189Y-168913524D01*
X136337186Y-168913524D01*
X136337178Y-168913527D01*
X135948620Y-169052555D01*
X135948604Y-169052562D01*
X135575506Y-169229024D01*
X135221515Y-169441198D01*
X134890011Y-169687058D01*
X134584215Y-169964215D01*
X134307058Y-170270011D01*
X134061198Y-170601515D01*
X133849024Y-170955506D01*
X133672562Y-171328604D01*
X133672555Y-171328620D01*
X133533527Y-171717178D01*
X133433244Y-172117528D01*
X133433243Y-172117535D01*
X133372685Y-172525782D01*
X133352434Y-172938000D01*
X127248566Y-172938000D01*
X127228315Y-172525782D01*
X127167757Y-172117535D01*
X127067476Y-171717189D01*
X127057654Y-171689738D01*
X126928444Y-171328620D01*
X126928437Y-171328604D01*
X126928436Y-171328600D01*
X126751978Y-170955510D01*
X126539800Y-170601513D01*
X126293946Y-170270017D01*
X126293941Y-170270011D01*
X126016784Y-169964215D01*
X125710988Y-169687058D01*
X125379484Y-169441198D01*
X125025493Y-169229024D01*
X125025494Y-169229024D01*
X125025490Y-169229022D01*
X124652400Y-169052564D01*
X124652396Y-169052562D01*
X124652395Y-169052562D01*
X124652379Y-169052555D01*
X124263821Y-168913527D01*
X124263815Y-168913525D01*
X124263811Y-168913524D01*
X124065205Y-168863776D01*
X123863471Y-168813244D01*
X123863466Y-168813243D01*
X123863465Y-168813243D01*
X123762577Y-168798277D01*
X123455227Y-168752686D01*
X123455223Y-168752685D01*
X123455218Y-168752685D01*
X123043000Y-168732434D01*
X122630782Y-168752685D01*
X122630776Y-168752685D01*
X122630772Y-168752686D01*
X122222528Y-168813244D01*
X121920316Y-168888944D01*
X121822189Y-168913524D01*
X121822186Y-168913524D01*
X121822178Y-168913527D01*
X121433620Y-169052555D01*
X121433604Y-169052562D01*
X121060506Y-169229024D01*
X120706515Y-169441198D01*
X120375011Y-169687058D01*
X120069215Y-169964215D01*
X119792058Y-170270011D01*
X119546198Y-170601515D01*
X119334024Y-170955506D01*
X119157562Y-171328604D01*
X119157555Y-171328620D01*
X119018527Y-171717178D01*
X118918244Y-172117528D01*
X118918243Y-172117535D01*
X118857685Y-172525782D01*
X118837434Y-172938000D01*
X112732566Y-172938000D01*
X112712315Y-172525782D01*
X112651757Y-172117535D01*
X112551476Y-171717189D01*
X112541654Y-171689738D01*
X112412444Y-171328620D01*
X112412437Y-171328604D01*
X112412436Y-171328600D01*
X112235978Y-170955510D01*
X112023800Y-170601513D01*
X111777946Y-170270017D01*
X111777941Y-170270011D01*
X111500784Y-169964215D01*
X111194988Y-169687058D01*
X110863484Y-169441198D01*
X110509493Y-169229024D01*
X110509494Y-169229024D01*
X110509490Y-169229022D01*
X110136400Y-169052564D01*
X110136396Y-169052562D01*
X110136395Y-169052562D01*
X110136379Y-169052555D01*
X109747821Y-168913527D01*
X109747815Y-168913525D01*
X109747811Y-168913524D01*
X109549205Y-168863776D01*
X109347471Y-168813244D01*
X109347466Y-168813243D01*
X109347465Y-168813243D01*
X109246577Y-168798277D01*
X108939227Y-168752686D01*
X108939223Y-168752685D01*
X108939218Y-168752685D01*
X108527000Y-168732434D01*
X108114782Y-168752685D01*
X108114776Y-168752685D01*
X108114772Y-168752686D01*
X107706528Y-168813244D01*
X107404316Y-168888944D01*
X107306189Y-168913524D01*
X107306186Y-168913524D01*
X107306178Y-168913527D01*
X106917620Y-169052555D01*
X106917604Y-169052562D01*
X106544506Y-169229024D01*
X106190515Y-169441198D01*
X105859011Y-169687058D01*
X105553215Y-169964215D01*
X105276058Y-170270011D01*
X105030198Y-170601515D01*
X104818024Y-170955506D01*
X104641562Y-171328604D01*
X104641555Y-171328620D01*
X104502527Y-171717178D01*
X104402244Y-172117528D01*
X104402243Y-172117535D01*
X104341685Y-172525782D01*
X104321434Y-172938000D01*
X100400500Y-172938000D01*
X100400500Y-167890003D01*
X108121508Y-167890003D01*
X108141352Y-168015300D01*
X108141352Y-168015301D01*
X108141354Y-168015304D01*
X108198950Y-168128342D01*
X108198952Y-168128344D01*
X108198954Y-168128347D01*
X108288652Y-168218045D01*
X108288654Y-168218046D01*
X108288658Y-168218050D01*
X108401696Y-168275646D01*
X108401698Y-168275647D01*
X108495476Y-168290500D01*
X108495481Y-168290500D01*
X108558524Y-168290500D01*
X108652301Y-168275647D01*
X108652302Y-168275646D01*
X108652304Y-168275646D01*
X108765342Y-168218050D01*
X108855050Y-168128342D01*
X108912646Y-168015304D01*
X108912646Y-168015302D01*
X108912647Y-168015301D01*
X108912647Y-168015300D01*
X108932492Y-167890003D01*
X122637508Y-167890003D01*
X122657352Y-168015300D01*
X122657352Y-168015301D01*
X122657354Y-168015304D01*
X122714950Y-168128342D01*
X122714952Y-168128344D01*
X122714954Y-168128347D01*
X122804652Y-168218045D01*
X122804654Y-168218046D01*
X122804658Y-168218050D01*
X122917696Y-168275646D01*
X122917698Y-168275647D01*
X123011476Y-168290500D01*
X123011481Y-168290500D01*
X123074524Y-168290500D01*
X123168301Y-168275647D01*
X123168302Y-168275646D01*
X123168304Y-168275646D01*
X123281342Y-168218050D01*
X123371050Y-168128342D01*
X123428646Y-168015304D01*
X123428646Y-168015302D01*
X123428647Y-168015301D01*
X123428647Y-168015300D01*
X123448492Y-167890003D01*
X137152508Y-167890003D01*
X137172352Y-168015300D01*
X137172352Y-168015301D01*
X137172354Y-168015304D01*
X137229950Y-168128342D01*
X137229952Y-168128344D01*
X137229954Y-168128347D01*
X137319652Y-168218045D01*
X137319654Y-168218046D01*
X137319658Y-168218050D01*
X137432696Y-168275646D01*
X137432698Y-168275647D01*
X137526476Y-168290500D01*
X137526481Y-168290500D01*
X137589524Y-168290500D01*
X137683301Y-168275647D01*
X137683302Y-168275646D01*
X137683304Y-168275646D01*
X137796342Y-168218050D01*
X137886050Y-168128342D01*
X137943646Y-168015304D01*
X137943646Y-168015302D01*
X137943647Y-168015301D01*
X137943647Y-168015300D01*
X137963492Y-167890003D01*
X151667508Y-167890003D01*
X151687352Y-168015300D01*
X151687352Y-168015301D01*
X151687354Y-168015304D01*
X151744950Y-168128342D01*
X151744952Y-168128344D01*
X151744954Y-168128347D01*
X151834652Y-168218045D01*
X151834654Y-168218046D01*
X151834658Y-168218050D01*
X151947696Y-168275646D01*
X151947698Y-168275647D01*
X152041476Y-168290500D01*
X152041481Y-168290500D01*
X152104524Y-168290500D01*
X152198301Y-168275647D01*
X152198302Y-168275646D01*
X152198304Y-168275646D01*
X152311342Y-168218050D01*
X152401050Y-168128342D01*
X152458646Y-168015304D01*
X152458646Y-168015302D01*
X152458647Y-168015301D01*
X152458647Y-168015300D01*
X152478492Y-167890003D01*
X152478492Y-167889996D01*
X152458647Y-167764699D01*
X152458647Y-167764698D01*
X152458646Y-167764696D01*
X152401050Y-167651658D01*
X152401046Y-167651654D01*
X152401045Y-167651652D01*
X152311347Y-167561954D01*
X152311344Y-167561952D01*
X152311342Y-167561950D01*
X152198304Y-167504354D01*
X152198302Y-167504353D01*
X152190710Y-167500485D01*
X152139914Y-167452510D01*
X152123119Y-167384689D01*
X152145657Y-167318554D01*
X152190710Y-167279515D01*
X152198302Y-167275646D01*
X152198304Y-167275646D01*
X152311342Y-167218050D01*
X152401050Y-167128342D01*
X152458646Y-167015304D01*
X152458646Y-167015302D01*
X152458647Y-167015301D01*
X152458647Y-167015300D01*
X152478492Y-166890003D01*
X152478492Y-166889996D01*
X152458647Y-166764699D01*
X152458647Y-166764698D01*
X152458646Y-166764696D01*
X152401050Y-166651658D01*
X152401046Y-166651654D01*
X152401045Y-166651652D01*
X152311347Y-166561954D01*
X152311344Y-166561952D01*
X152311342Y-166561950D01*
X152234517Y-166522805D01*
X152198301Y-166504352D01*
X152104524Y-166489500D01*
X152104519Y-166489500D01*
X152041481Y-166489500D01*
X152041476Y-166489500D01*
X151947698Y-166504352D01*
X151872337Y-166542751D01*
X151834658Y-166561950D01*
X151834657Y-166561951D01*
X151834652Y-166561954D01*
X151744954Y-166651652D01*
X151744951Y-166651657D01*
X151687352Y-166764698D01*
X151687352Y-166764699D01*
X151667508Y-166889996D01*
X151667508Y-166890003D01*
X151687352Y-167015300D01*
X151687352Y-167015301D01*
X151687354Y-167015304D01*
X151744950Y-167128342D01*
X151744952Y-167128344D01*
X151744954Y-167128347D01*
X151834652Y-167218045D01*
X151834655Y-167218047D01*
X151834658Y-167218050D01*
X151887845Y-167245150D01*
X151955290Y-167279516D01*
X152006085Y-167327490D01*
X152022880Y-167395311D01*
X152000342Y-167461446D01*
X151955290Y-167500484D01*
X151834659Y-167561949D01*
X151834652Y-167561954D01*
X151744954Y-167651652D01*
X151744951Y-167651657D01*
X151687352Y-167764698D01*
X151687352Y-167764699D01*
X151667508Y-167889996D01*
X151667508Y-167890003D01*
X137963492Y-167890003D01*
X137963492Y-167889996D01*
X137943647Y-167764699D01*
X137943647Y-167764698D01*
X137943646Y-167764696D01*
X137886050Y-167651658D01*
X137886046Y-167651654D01*
X137886045Y-167651652D01*
X137796347Y-167561954D01*
X137796344Y-167561952D01*
X137796342Y-167561950D01*
X137683304Y-167504354D01*
X137683302Y-167504353D01*
X137675710Y-167500485D01*
X137624914Y-167452510D01*
X137608119Y-167384689D01*
X137630657Y-167318554D01*
X137675710Y-167279515D01*
X137683302Y-167275646D01*
X137683304Y-167275646D01*
X137796342Y-167218050D01*
X137886050Y-167128342D01*
X137943646Y-167015304D01*
X137943646Y-167015302D01*
X137943647Y-167015301D01*
X137943647Y-167015300D01*
X137963492Y-166890003D01*
X137963492Y-166889996D01*
X137943647Y-166764699D01*
X137943647Y-166764698D01*
X137943646Y-166764696D01*
X137886050Y-166651658D01*
X137886046Y-166651654D01*
X137886045Y-166651652D01*
X137796347Y-166561954D01*
X137796344Y-166561952D01*
X137796342Y-166561950D01*
X137719517Y-166522805D01*
X137683301Y-166504352D01*
X137589524Y-166489500D01*
X137589519Y-166489500D01*
X137526481Y-166489500D01*
X137526476Y-166489500D01*
X137432698Y-166504352D01*
X137357337Y-166542751D01*
X137319658Y-166561950D01*
X137319657Y-166561951D01*
X137319652Y-166561954D01*
X137229954Y-166651652D01*
X137229951Y-166651657D01*
X137172352Y-166764698D01*
X137172352Y-166764699D01*
X137152508Y-166889996D01*
X137152508Y-166890003D01*
X137172352Y-167015300D01*
X137172352Y-167015301D01*
X137172354Y-167015304D01*
X137229950Y-167128342D01*
X137229952Y-167128344D01*
X137229954Y-167128347D01*
X137319652Y-167218045D01*
X137319655Y-167218047D01*
X137319658Y-167218050D01*
X137372845Y-167245150D01*
X137440290Y-167279516D01*
X137491085Y-167327490D01*
X137507880Y-167395311D01*
X137485342Y-167461446D01*
X137440290Y-167500484D01*
X137319659Y-167561949D01*
X137319652Y-167561954D01*
X137229954Y-167651652D01*
X137229951Y-167651657D01*
X137172352Y-167764698D01*
X137172352Y-167764699D01*
X137152508Y-167889996D01*
X137152508Y-167890003D01*
X123448492Y-167890003D01*
X123448492Y-167889996D01*
X123428647Y-167764699D01*
X123428647Y-167764698D01*
X123428646Y-167764696D01*
X123371050Y-167651658D01*
X123371046Y-167651654D01*
X123371045Y-167651652D01*
X123281347Y-167561954D01*
X123281344Y-167561952D01*
X123281342Y-167561950D01*
X123168304Y-167504354D01*
X123168302Y-167504353D01*
X123160710Y-167500485D01*
X123109914Y-167452510D01*
X123093119Y-167384689D01*
X123115657Y-167318554D01*
X123160710Y-167279515D01*
X123168302Y-167275646D01*
X123168304Y-167275646D01*
X123281342Y-167218050D01*
X123371050Y-167128342D01*
X123428646Y-167015304D01*
X123428646Y-167015302D01*
X123428647Y-167015301D01*
X123428647Y-167015300D01*
X123448492Y-166890003D01*
X123448492Y-166889996D01*
X123428647Y-166764699D01*
X123428647Y-166764698D01*
X123428646Y-166764696D01*
X123371050Y-166651658D01*
X123371046Y-166651654D01*
X123371045Y-166651652D01*
X123281347Y-166561954D01*
X123281344Y-166561952D01*
X123281342Y-166561950D01*
X123204517Y-166522805D01*
X123168301Y-166504352D01*
X123074524Y-166489500D01*
X123074519Y-166489500D01*
X123011481Y-166489500D01*
X123011476Y-166489500D01*
X122917698Y-166504352D01*
X122842337Y-166542751D01*
X122804658Y-166561950D01*
X122804657Y-166561951D01*
X122804652Y-166561954D01*
X122714954Y-166651652D01*
X122714951Y-166651657D01*
X122657352Y-166764698D01*
X122657352Y-166764699D01*
X122637508Y-166889996D01*
X122637508Y-166890003D01*
X122657352Y-167015300D01*
X122657352Y-167015301D01*
X122657354Y-167015304D01*
X122714950Y-167128342D01*
X122714952Y-167128344D01*
X122714954Y-167128347D01*
X122804652Y-167218045D01*
X122804655Y-167218047D01*
X122804658Y-167218050D01*
X122857845Y-167245150D01*
X122925290Y-167279516D01*
X122976085Y-167327490D01*
X122992880Y-167395311D01*
X122970342Y-167461446D01*
X122925290Y-167500484D01*
X122804659Y-167561949D01*
X122804652Y-167561954D01*
X122714954Y-167651652D01*
X122714951Y-167651657D01*
X122657352Y-167764698D01*
X122657352Y-167764699D01*
X122637508Y-167889996D01*
X122637508Y-167890003D01*
X108932492Y-167890003D01*
X108932492Y-167889996D01*
X108912647Y-167764699D01*
X108912647Y-167764698D01*
X108912646Y-167764696D01*
X108855050Y-167651658D01*
X108855046Y-167651654D01*
X108855045Y-167651652D01*
X108765347Y-167561954D01*
X108765344Y-167561952D01*
X108765342Y-167561950D01*
X108652304Y-167504354D01*
X108652302Y-167504353D01*
X108644710Y-167500485D01*
X108593914Y-167452510D01*
X108577119Y-167384689D01*
X108599657Y-167318554D01*
X108644710Y-167279515D01*
X108652302Y-167275646D01*
X108652304Y-167275646D01*
X108765342Y-167218050D01*
X108855050Y-167128342D01*
X108912646Y-167015304D01*
X108912646Y-167015302D01*
X108912647Y-167015301D01*
X108912647Y-167015300D01*
X108932492Y-166890003D01*
X108932492Y-166889996D01*
X108912647Y-166764699D01*
X108912647Y-166764698D01*
X108912646Y-166764696D01*
X108855050Y-166651658D01*
X108855046Y-166651654D01*
X108855045Y-166651652D01*
X108765347Y-166561954D01*
X108765344Y-166561952D01*
X108765342Y-166561950D01*
X108688517Y-166522805D01*
X108652301Y-166504352D01*
X108558524Y-166489500D01*
X108558519Y-166489500D01*
X108495481Y-166489500D01*
X108495476Y-166489500D01*
X108401698Y-166504352D01*
X108326337Y-166542751D01*
X108288658Y-166561950D01*
X108288657Y-166561951D01*
X108288652Y-166561954D01*
X108198954Y-166651652D01*
X108198951Y-166651657D01*
X108141352Y-166764698D01*
X108141352Y-166764699D01*
X108121508Y-166889996D01*
X108121508Y-166890003D01*
X108141352Y-167015300D01*
X108141352Y-167015301D01*
X108141354Y-167015304D01*
X108198950Y-167128342D01*
X108198952Y-167128344D01*
X108198954Y-167128347D01*
X108288652Y-167218045D01*
X108288655Y-167218047D01*
X108288658Y-167218050D01*
X108341845Y-167245150D01*
X108409290Y-167279516D01*
X108460085Y-167327490D01*
X108476880Y-167395311D01*
X108454342Y-167461446D01*
X108409290Y-167500484D01*
X108288659Y-167561949D01*
X108288652Y-167561954D01*
X108198954Y-167651652D01*
X108198951Y-167651657D01*
X108141352Y-167764698D01*
X108141352Y-167764699D01*
X108121508Y-167889996D01*
X108121508Y-167890003D01*
X100400500Y-167890003D01*
X100400500Y-159433112D01*
X104992742Y-159433112D01*
X105022768Y-159808258D01*
X105092500Y-160178077D01*
X105201143Y-160538383D01*
X105347473Y-160885108D01*
X105529824Y-161214307D01*
X105746127Y-161522251D01*
X105746133Y-161522258D01*
X105746138Y-161522265D01*
X105993959Y-161805484D01*
X106124508Y-161926001D01*
X106270482Y-162060758D01*
X106413661Y-162167131D01*
X106572569Y-162285191D01*
X106896802Y-162476243D01*
X107239506Y-162631749D01*
X107596798Y-162749947D01*
X107964629Y-162829498D01*
X108338832Y-162869500D01*
X108621019Y-162869500D01*
X108621021Y-162869500D01*
X108704347Y-162865058D01*
X108902788Y-162854483D01*
X108902792Y-162854482D01*
X108902802Y-162854482D01*
X109274346Y-162794620D01*
X109637422Y-162695606D01*
X109987916Y-162558559D01*
X110321858Y-162385034D01*
X110635463Y-162176996D01*
X110925179Y-161936802D01*
X111187722Y-161667174D01*
X111420118Y-161371167D01*
X111619735Y-161052135D01*
X111784309Y-160713692D01*
X111911976Y-160359674D01*
X112001291Y-159994090D01*
X112051240Y-159621085D01*
X112058752Y-159339000D01*
X119987693Y-159339000D01*
X120006903Y-159681081D01*
X120006905Y-159681093D01*
X120064295Y-160018866D01*
X120064297Y-160018875D01*
X120100061Y-160143012D01*
X120159147Y-160348104D01*
X120237963Y-160538383D01*
X120290263Y-160664646D01*
X120455998Y-160964521D01*
X120654269Y-161243959D01*
X120882570Y-161499426D01*
X120882573Y-161499429D01*
X121138040Y-161727730D01*
X121138046Y-161727734D01*
X121138047Y-161727735D01*
X121417479Y-161926002D01*
X121717352Y-162091736D01*
X122033896Y-162222853D01*
X122363130Y-162317704D01*
X122700914Y-162375096D01*
X123043000Y-162394307D01*
X123385086Y-162375096D01*
X123722870Y-162317704D01*
X124052104Y-162222853D01*
X124368648Y-162091736D01*
X124668521Y-161926002D01*
X124947953Y-161727735D01*
X125203428Y-161499428D01*
X125431735Y-161243953D01*
X125630002Y-160964521D01*
X125795736Y-160664648D01*
X125926853Y-160348104D01*
X126021704Y-160018870D01*
X126079096Y-159681086D01*
X126098307Y-159339001D01*
X135622569Y-159339001D01*
X135642269Y-159614442D01*
X135642270Y-159614449D01*
X135700966Y-159884267D01*
X135700968Y-159884274D01*
X135751171Y-160018875D01*
X135797470Y-160143008D01*
X135797472Y-160143012D01*
X135929808Y-160385367D01*
X135929813Y-160385375D01*
X136095292Y-160606430D01*
X136095308Y-160606448D01*
X136290551Y-160801691D01*
X136290569Y-160801707D01*
X136511624Y-160967186D01*
X136511632Y-160967191D01*
X136753987Y-161099527D01*
X136753991Y-161099529D01*
X136753993Y-161099530D01*
X137012726Y-161196032D01*
X137282559Y-161254731D01*
X137489056Y-161269500D01*
X137626944Y-161269500D01*
X137833441Y-161254731D01*
X138103274Y-161196032D01*
X138362007Y-161099530D01*
X138604373Y-160967188D01*
X138825438Y-160801701D01*
X139020701Y-160606438D01*
X139186188Y-160385373D01*
X139318530Y-160143007D01*
X139415032Y-159884274D01*
X139473731Y-159614441D01*
X139486700Y-159433112D01*
X148538742Y-159433112D01*
X148568768Y-159808258D01*
X148638500Y-160178077D01*
X148747143Y-160538383D01*
X148893473Y-160885108D01*
X149075824Y-161214307D01*
X149292127Y-161522251D01*
X149292133Y-161522258D01*
X149292138Y-161522265D01*
X149539959Y-161805484D01*
X149670508Y-161926001D01*
X149816482Y-162060758D01*
X149959661Y-162167131D01*
X150118569Y-162285191D01*
X150442802Y-162476243D01*
X150785506Y-162631749D01*
X151142798Y-162749947D01*
X151510629Y-162829498D01*
X151884832Y-162869500D01*
X152167019Y-162869500D01*
X152167021Y-162869500D01*
X152250347Y-162865058D01*
X152448788Y-162854483D01*
X152448792Y-162854482D01*
X152448802Y-162854482D01*
X152820346Y-162794620D01*
X153183422Y-162695606D01*
X153533916Y-162558559D01*
X153867858Y-162385034D01*
X154181463Y-162176996D01*
X154471179Y-161936802D01*
X154733722Y-161667174D01*
X154966118Y-161371167D01*
X155165735Y-161052135D01*
X155330309Y-160713692D01*
X155457976Y-160359674D01*
X155547291Y-159994090D01*
X155597240Y-159621085D01*
X155607258Y-159244883D01*
X155577232Y-158869747D01*
X155507501Y-158499929D01*
X155398856Y-158139617D01*
X155345568Y-158013353D01*
X155252526Y-157792891D01*
X155070175Y-157463692D01*
X154853872Y-157155748D01*
X154853867Y-157155742D01*
X154853862Y-157155735D01*
X154606041Y-156872516D01*
X154329519Y-156617243D01*
X154329517Y-156617241D01*
X154027435Y-156392812D01*
X154027431Y-156392809D01*
X153703198Y-156201757D01*
X153360494Y-156046251D01*
X153360491Y-156046250D01*
X153360489Y-156046249D01*
X153003215Y-155928057D01*
X153003210Y-155928055D01*
X153003202Y-155928053D01*
X152635371Y-155848502D01*
X152635369Y-155848501D01*
X152635367Y-155848501D01*
X152261168Y-155808500D01*
X151978979Y-155808500D01*
X151957735Y-155809632D01*
X151697211Y-155823516D01*
X151697185Y-155823519D01*
X151325656Y-155883379D01*
X151325653Y-155883380D01*
X150962577Y-155982394D01*
X150799265Y-156046251D01*
X150612084Y-156119441D01*
X150612082Y-156119441D01*
X150612082Y-156119442D01*
X150278141Y-156292966D01*
X149964542Y-156500999D01*
X149964533Y-156501006D01*
X149674831Y-156741188D01*
X149674817Y-156741201D01*
X149412274Y-157010829D01*
X149179889Y-157306822D01*
X149179884Y-157306829D01*
X148980267Y-157625862D01*
X148980259Y-157625876D01*
X148815688Y-157964313D01*
X148688022Y-158318331D01*
X148598709Y-158683906D01*
X148598708Y-158683914D01*
X148548761Y-159056908D01*
X148548759Y-159056924D01*
X148538742Y-159433112D01*
X139486700Y-159433112D01*
X139493431Y-159339000D01*
X139473731Y-159063559D01*
X139415032Y-158793726D01*
X139318530Y-158534993D01*
X139206538Y-158329896D01*
X139186191Y-158292632D01*
X139186186Y-158292624D01*
X139020707Y-158071569D01*
X139020691Y-158071551D01*
X138825448Y-157876308D01*
X138825430Y-157876292D01*
X138604375Y-157710813D01*
X138604367Y-157710808D01*
X138362012Y-157578472D01*
X138362008Y-157578470D01*
X138263917Y-157541884D01*
X138103274Y-157481968D01*
X138103270Y-157481967D01*
X138103267Y-157481966D01*
X137833449Y-157423270D01*
X137833442Y-157423269D01*
X137626944Y-157408500D01*
X137489056Y-157408500D01*
X137282557Y-157423269D01*
X137282550Y-157423270D01*
X137012732Y-157481966D01*
X137012727Y-157481967D01*
X137012726Y-157481968D01*
X136950172Y-157505299D01*
X136753991Y-157578470D01*
X136753987Y-157578472D01*
X136511632Y-157710808D01*
X136511624Y-157710813D01*
X136290569Y-157876292D01*
X136290551Y-157876308D01*
X136095308Y-158071551D01*
X136095292Y-158071569D01*
X135929813Y-158292624D01*
X135929808Y-158292632D01*
X135797472Y-158534987D01*
X135797470Y-158534991D01*
X135700966Y-158793732D01*
X135642270Y-159063550D01*
X135642269Y-159063557D01*
X135622569Y-159338998D01*
X135622569Y-159339001D01*
X126098307Y-159339001D01*
X126098307Y-159339000D01*
X126079096Y-158996914D01*
X126021704Y-158659130D01*
X125926853Y-158329896D01*
X125795736Y-158013352D01*
X125630002Y-157713479D01*
X125431735Y-157434047D01*
X125431734Y-157434046D01*
X125431730Y-157434040D01*
X125203429Y-157178573D01*
X125203426Y-157178570D01*
X124947959Y-156950269D01*
X124668521Y-156751998D01*
X124424700Y-156617243D01*
X124368648Y-156586264D01*
X124052104Y-156455147D01*
X123967479Y-156430766D01*
X123722875Y-156360297D01*
X123722866Y-156360295D01*
X123385093Y-156302905D01*
X123385081Y-156302903D01*
X123043000Y-156283693D01*
X122700918Y-156302903D01*
X122700906Y-156302905D01*
X122363133Y-156360295D01*
X122363124Y-156360297D01*
X122033899Y-156455146D01*
X122033896Y-156455147D01*
X121941184Y-156493549D01*
X121717353Y-156586263D01*
X121417478Y-156751998D01*
X121138040Y-156950269D01*
X120882573Y-157178570D01*
X120882570Y-157178573D01*
X120654269Y-157434040D01*
X120455998Y-157713478D01*
X120290263Y-158013353D01*
X120237963Y-158139617D01*
X120163938Y-158318331D01*
X120159146Y-158329899D01*
X120064297Y-158659124D01*
X120064295Y-158659133D01*
X120006905Y-158996906D01*
X120006903Y-158996918D01*
X119987693Y-159339000D01*
X112058752Y-159339000D01*
X112061258Y-159244883D01*
X112031232Y-158869747D01*
X111961501Y-158499929D01*
X111852856Y-158139617D01*
X111799568Y-158013353D01*
X111706526Y-157792891D01*
X111524175Y-157463692D01*
X111307872Y-157155748D01*
X111307867Y-157155742D01*
X111307862Y-157155735D01*
X111060041Y-156872516D01*
X110783519Y-156617243D01*
X110783517Y-156617241D01*
X110481435Y-156392812D01*
X110481431Y-156392809D01*
X110157198Y-156201757D01*
X109814494Y-156046251D01*
X109814491Y-156046250D01*
X109814489Y-156046249D01*
X109457215Y-155928057D01*
X109457210Y-155928055D01*
X109457202Y-155928053D01*
X109089371Y-155848502D01*
X109089369Y-155848501D01*
X109089367Y-155848501D01*
X108715168Y-155808500D01*
X108432979Y-155808500D01*
X108411735Y-155809632D01*
X108151211Y-155823516D01*
X108151185Y-155823519D01*
X107779656Y-155883379D01*
X107779653Y-155883380D01*
X107416577Y-155982394D01*
X107253265Y-156046251D01*
X107066084Y-156119441D01*
X107066082Y-156119441D01*
X107066082Y-156119442D01*
X106732141Y-156292966D01*
X106418542Y-156500999D01*
X106418533Y-156501006D01*
X106128831Y-156741188D01*
X106128817Y-156741201D01*
X105866274Y-157010829D01*
X105633889Y-157306822D01*
X105633884Y-157306829D01*
X105434267Y-157625862D01*
X105434259Y-157625876D01*
X105269688Y-157964313D01*
X105142022Y-158318331D01*
X105052709Y-158683906D01*
X105052708Y-158683914D01*
X105002761Y-159056908D01*
X105002759Y-159056924D01*
X104992742Y-159433112D01*
X100400500Y-159433112D01*
X100400500Y-145433117D01*
X104992742Y-145433117D01*
X105002104Y-145550085D01*
X105022768Y-145808258D01*
X105092500Y-146178077D01*
X105201143Y-146538383D01*
X105347473Y-146885108D01*
X105529824Y-147214307D01*
X105746127Y-147522251D01*
X105746133Y-147522258D01*
X105746138Y-147522265D01*
X105993959Y-147805484D01*
X106059308Y-147865811D01*
X106270482Y-148060758D01*
X106331378Y-148106000D01*
X106572569Y-148285191D01*
X106896802Y-148476243D01*
X107239506Y-148631749D01*
X107596798Y-148749947D01*
X107964629Y-148829498D01*
X108338832Y-148869500D01*
X108621019Y-148869500D01*
X108621021Y-148869500D01*
X108704347Y-148865058D01*
X108902788Y-148854483D01*
X108902792Y-148854482D01*
X108902802Y-148854482D01*
X109274346Y-148794620D01*
X109637422Y-148695606D01*
X109987916Y-148558559D01*
X110321858Y-148385034D01*
X110635463Y-148176996D01*
X110925179Y-147936802D01*
X111187722Y-147667174D01*
X111420118Y-147371167D01*
X111619735Y-147052135D01*
X111784309Y-146713692D01*
X111911976Y-146359674D01*
X112001291Y-145994090D01*
X112051240Y-145621085D01*
X112056245Y-145433117D01*
X119508742Y-145433117D01*
X119518104Y-145550085D01*
X119538768Y-145808258D01*
X119608500Y-146178077D01*
X119717143Y-146538383D01*
X119863473Y-146885108D01*
X120045824Y-147214307D01*
X120262127Y-147522251D01*
X120262133Y-147522258D01*
X120262138Y-147522265D01*
X120509959Y-147805484D01*
X120575308Y-147865811D01*
X120786482Y-148060758D01*
X120847378Y-148106000D01*
X121088569Y-148285191D01*
X121412802Y-148476243D01*
X121755506Y-148631749D01*
X122112798Y-148749947D01*
X122480629Y-148829498D01*
X122854832Y-148869500D01*
X123137019Y-148869500D01*
X123137021Y-148869500D01*
X123220347Y-148865058D01*
X123418788Y-148854483D01*
X123418792Y-148854482D01*
X123418802Y-148854482D01*
X123790346Y-148794620D01*
X124153422Y-148695606D01*
X124503916Y-148558559D01*
X124837858Y-148385034D01*
X125151463Y-148176996D01*
X125441179Y-147936802D01*
X125703722Y-147667174D01*
X125936118Y-147371167D01*
X126135735Y-147052135D01*
X126300309Y-146713692D01*
X126427976Y-146359674D01*
X126517291Y-145994090D01*
X126567240Y-145621085D01*
X126574136Y-145362117D01*
X134023742Y-145362117D01*
X134029425Y-145433117D01*
X134053768Y-145737258D01*
X134123500Y-146107077D01*
X134232143Y-146467383D01*
X134378473Y-146814108D01*
X134560824Y-147143307D01*
X134777127Y-147451251D01*
X134777133Y-147451258D01*
X134777138Y-147451265D01*
X135024959Y-147734484D01*
X135301481Y-147989757D01*
X135603569Y-148214191D01*
X135927802Y-148405243D01*
X136270506Y-148560749D01*
X136627798Y-148678947D01*
X136995629Y-148758498D01*
X137369832Y-148798500D01*
X137652019Y-148798500D01*
X137652021Y-148798500D01*
X137735347Y-148794058D01*
X137933788Y-148783483D01*
X137933792Y-148783482D01*
X137933802Y-148783482D01*
X138305346Y-148723620D01*
X138668422Y-148624606D01*
X139018916Y-148487559D01*
X139352858Y-148314034D01*
X139666463Y-148105996D01*
X139956179Y-147865802D01*
X140218722Y-147596174D01*
X140451118Y-147300167D01*
X140650735Y-146981135D01*
X140815309Y-146642692D01*
X140942976Y-146288674D01*
X141032291Y-145923090D01*
X141082240Y-145550085D01*
X141085355Y-145433117D01*
X148538742Y-145433117D01*
X148548104Y-145550085D01*
X148568768Y-145808258D01*
X148638500Y-146178077D01*
X148747143Y-146538383D01*
X148893473Y-146885108D01*
X149075824Y-147214307D01*
X149292127Y-147522251D01*
X149292133Y-147522258D01*
X149292138Y-147522265D01*
X149539959Y-147805484D01*
X149605308Y-147865811D01*
X149816482Y-148060758D01*
X149877378Y-148106000D01*
X150118569Y-148285191D01*
X150442802Y-148476243D01*
X150785506Y-148631749D01*
X151142798Y-148749947D01*
X151510629Y-148829498D01*
X151884832Y-148869500D01*
X152167019Y-148869500D01*
X152167021Y-148869500D01*
X152250347Y-148865058D01*
X152448788Y-148854483D01*
X152448792Y-148854482D01*
X152448802Y-148854482D01*
X152820346Y-148794620D01*
X153183422Y-148695606D01*
X153533916Y-148558559D01*
X153867858Y-148385034D01*
X154181463Y-148176996D01*
X154471179Y-147936802D01*
X154733722Y-147667174D01*
X154966118Y-147371167D01*
X155165735Y-147052135D01*
X155330309Y-146713692D01*
X155457976Y-146359674D01*
X155547291Y-145994090D01*
X155597240Y-145621085D01*
X155607258Y-145244883D01*
X155577232Y-144869747D01*
X155507501Y-144499929D01*
X155398856Y-144139617D01*
X155368891Y-144068616D01*
X155294908Y-143893313D01*
X155252528Y-143792895D01*
X155252526Y-143792891D01*
X155070175Y-143463692D01*
X154853872Y-143155748D01*
X154853867Y-143155742D01*
X154853862Y-143155735D01*
X154606041Y-142872516D01*
X154329519Y-142617243D01*
X154329517Y-142617241D01*
X154027435Y-142392812D01*
X154027431Y-142392809D01*
X153703198Y-142201757D01*
X153360494Y-142046251D01*
X153360491Y-142046250D01*
X153360489Y-142046249D01*
X153003215Y-141928057D01*
X153003210Y-141928055D01*
X153003202Y-141928053D01*
X152635371Y-141848502D01*
X152635369Y-141848501D01*
X152635367Y-141848501D01*
X152261168Y-141808500D01*
X151978979Y-141808500D01*
X151957735Y-141809632D01*
X151697211Y-141823516D01*
X151697185Y-141823519D01*
X151325656Y-141883379D01*
X151325653Y-141883380D01*
X150962577Y-141982394D01*
X150793662Y-142048442D01*
X150612084Y-142119441D01*
X150612082Y-142119441D01*
X150612082Y-142119442D01*
X150278141Y-142292966D01*
X149964542Y-142500999D01*
X149964533Y-142501006D01*
X149674831Y-142741188D01*
X149674817Y-142741201D01*
X149412274Y-143010829D01*
X149179889Y-143306822D01*
X149179884Y-143306829D01*
X148980267Y-143625862D01*
X148980259Y-143625876D01*
X148815688Y-143964313D01*
X148688022Y-144318331D01*
X148598709Y-144683906D01*
X148598708Y-144683914D01*
X148548761Y-145056908D01*
X148548759Y-145056924D01*
X148538742Y-145433112D01*
X148538742Y-145433117D01*
X141085355Y-145433117D01*
X141092258Y-145173883D01*
X141062232Y-144798747D01*
X140992501Y-144428929D01*
X140992499Y-144428922D01*
X140883856Y-144068616D01*
X140767492Y-143792895D01*
X140737528Y-143721895D01*
X140645006Y-143554865D01*
X140555175Y-143392692D01*
X140338872Y-143084748D01*
X140338867Y-143084742D01*
X140338862Y-143084735D01*
X140091041Y-142801516D01*
X139814519Y-142546243D01*
X139814517Y-142546241D01*
X139512435Y-142321812D01*
X139512431Y-142321809D01*
X139188198Y-142130757D01*
X138845494Y-141975251D01*
X138845491Y-141975250D01*
X138845489Y-141975249D01*
X138488215Y-141857057D01*
X138488210Y-141857055D01*
X138488202Y-141857053D01*
X138120371Y-141777502D01*
X138120369Y-141777501D01*
X138120367Y-141777501D01*
X137746168Y-141737500D01*
X137463979Y-141737500D01*
X137442735Y-141738632D01*
X137182211Y-141752516D01*
X137182185Y-141752519D01*
X136810656Y-141812379D01*
X136810653Y-141812380D01*
X136447577Y-141911394D01*
X136284265Y-141975251D01*
X136097084Y-142048441D01*
X136097082Y-142048441D01*
X136097082Y-142048442D01*
X135763141Y-142221966D01*
X135449542Y-142429999D01*
X135449533Y-142430006D01*
X135159831Y-142670188D01*
X135159817Y-142670201D01*
X134897274Y-142939829D01*
X134664889Y-143235822D01*
X134664884Y-143235829D01*
X134465267Y-143554862D01*
X134465259Y-143554876D01*
X134300688Y-143893313D01*
X134173022Y-144247331D01*
X134083709Y-144612906D01*
X134083708Y-144612914D01*
X134033761Y-144985908D01*
X134033759Y-144985924D01*
X134026864Y-145244883D01*
X134023742Y-145362117D01*
X126574136Y-145362117D01*
X126577258Y-145244883D01*
X126547232Y-144869747D01*
X126477501Y-144499929D01*
X126368856Y-144139617D01*
X126338891Y-144068616D01*
X126264908Y-143893313D01*
X126222528Y-143792895D01*
X126222526Y-143792891D01*
X126040175Y-143463692D01*
X125823872Y-143155748D01*
X125823867Y-143155742D01*
X125823862Y-143155735D01*
X125576041Y-142872516D01*
X125299519Y-142617243D01*
X125299517Y-142617241D01*
X124997435Y-142392812D01*
X124997431Y-142392809D01*
X124673198Y-142201757D01*
X124330494Y-142046251D01*
X124330491Y-142046250D01*
X124330489Y-142046249D01*
X123973215Y-141928057D01*
X123973210Y-141928055D01*
X123973202Y-141928053D01*
X123605371Y-141848502D01*
X123605369Y-141848501D01*
X123605367Y-141848501D01*
X123231168Y-141808500D01*
X122948979Y-141808500D01*
X122927735Y-141809632D01*
X122667211Y-141823516D01*
X122667185Y-141823519D01*
X122295656Y-141883379D01*
X122295653Y-141883380D01*
X121932577Y-141982394D01*
X121763662Y-142048442D01*
X121582084Y-142119441D01*
X121582082Y-142119441D01*
X121582082Y-142119442D01*
X121248141Y-142292966D01*
X120934542Y-142500999D01*
X120934533Y-142501006D01*
X120644831Y-142741188D01*
X120644817Y-142741201D01*
X120382274Y-143010829D01*
X120149889Y-143306822D01*
X120149884Y-143306829D01*
X119950267Y-143625862D01*
X119950259Y-143625876D01*
X119785688Y-143964313D01*
X119658022Y-144318331D01*
X119568709Y-144683906D01*
X119568708Y-144683914D01*
X119518761Y-145056908D01*
X119518759Y-145056924D01*
X119508742Y-145433112D01*
X119508742Y-145433117D01*
X112056245Y-145433117D01*
X112061258Y-145244883D01*
X112031232Y-144869747D01*
X111961501Y-144499929D01*
X111852856Y-144139617D01*
X111822891Y-144068616D01*
X111748908Y-143893313D01*
X111706528Y-143792895D01*
X111706526Y-143792891D01*
X111524175Y-143463692D01*
X111307872Y-143155748D01*
X111307867Y-143155742D01*
X111307862Y-143155735D01*
X111060041Y-142872516D01*
X110783519Y-142617243D01*
X110783517Y-142617241D01*
X110481435Y-142392812D01*
X110481431Y-142392809D01*
X110157198Y-142201757D01*
X109814494Y-142046251D01*
X109814491Y-142046250D01*
X109814489Y-142046249D01*
X109457215Y-141928057D01*
X109457210Y-141928055D01*
X109457202Y-141928053D01*
X109089371Y-141848502D01*
X109089369Y-141848501D01*
X109089367Y-141848501D01*
X108715168Y-141808500D01*
X108432979Y-141808500D01*
X108411735Y-141809632D01*
X108151211Y-141823516D01*
X108151185Y-141823519D01*
X107779656Y-141883379D01*
X107779653Y-141883380D01*
X107416577Y-141982394D01*
X107247662Y-142048442D01*
X107066084Y-142119441D01*
X107066082Y-142119441D01*
X107066082Y-142119442D01*
X106732141Y-142292966D01*
X106418542Y-142500999D01*
X106418533Y-142501006D01*
X106128831Y-142741188D01*
X106128817Y-142741201D01*
X105866274Y-143010829D01*
X105633889Y-143306822D01*
X105633884Y-143306829D01*
X105434267Y-143625862D01*
X105434259Y-143625876D01*
X105269688Y-143964313D01*
X105142022Y-144318331D01*
X105052709Y-144683906D01*
X105052708Y-144683914D01*
X105002761Y-145056908D01*
X105002759Y-145056924D01*
X104992742Y-145433112D01*
X104992742Y-145433117D01*
X100400500Y-145433117D01*
X100400500Y-131433112D01*
X104992742Y-131433112D01*
X105022768Y-131808258D01*
X105092500Y-132178077D01*
X105201143Y-132538383D01*
X105347473Y-132885108D01*
X105529824Y-133214307D01*
X105746127Y-133522251D01*
X105746133Y-133522258D01*
X105746138Y-133522265D01*
X105993959Y-133805484D01*
X106270481Y-134060757D01*
X106572569Y-134285191D01*
X106896802Y-134476243D01*
X107239506Y-134631749D01*
X107596798Y-134749947D01*
X107964629Y-134829498D01*
X108338832Y-134869500D01*
X108621019Y-134869500D01*
X108621021Y-134869500D01*
X108704347Y-134865058D01*
X108902788Y-134854483D01*
X108902792Y-134854482D01*
X108902802Y-134854482D01*
X109274346Y-134794620D01*
X109637422Y-134695606D01*
X109987916Y-134558559D01*
X110321858Y-134385034D01*
X110635463Y-134176996D01*
X110925179Y-133936802D01*
X111187722Y-133667174D01*
X111420118Y-133371167D01*
X111619735Y-133052135D01*
X111784309Y-132713692D01*
X111911976Y-132359674D01*
X112001291Y-131994090D01*
X112051240Y-131621085D01*
X112056246Y-131433112D01*
X119508742Y-131433112D01*
X119538768Y-131808258D01*
X119608500Y-132178077D01*
X119717143Y-132538383D01*
X119863473Y-132885108D01*
X120045824Y-133214307D01*
X120262127Y-133522251D01*
X120262133Y-133522258D01*
X120262138Y-133522265D01*
X120509959Y-133805484D01*
X120786481Y-134060757D01*
X121088569Y-134285191D01*
X121412802Y-134476243D01*
X121755506Y-134631749D01*
X122112798Y-134749947D01*
X122480629Y-134829498D01*
X122854832Y-134869500D01*
X123137019Y-134869500D01*
X123137021Y-134869500D01*
X123220347Y-134865058D01*
X123418788Y-134854483D01*
X123418792Y-134854482D01*
X123418802Y-134854482D01*
X123790346Y-134794620D01*
X124153422Y-134695606D01*
X124503916Y-134558559D01*
X124837858Y-134385034D01*
X125151463Y-134176996D01*
X125441179Y-133936802D01*
X125703722Y-133667174D01*
X125936118Y-133371167D01*
X126135735Y-133052135D01*
X126300309Y-132713692D01*
X126427976Y-132359674D01*
X126517291Y-131994090D01*
X126567240Y-131621085D01*
X126572246Y-131433112D01*
X134023742Y-131433112D01*
X134053768Y-131808258D01*
X134123500Y-132178077D01*
X134232143Y-132538383D01*
X134378473Y-132885108D01*
X134560824Y-133214307D01*
X134777127Y-133522251D01*
X134777133Y-133522258D01*
X134777138Y-133522265D01*
X135024959Y-133805484D01*
X135301481Y-134060757D01*
X135603569Y-134285191D01*
X135927802Y-134476243D01*
X136270506Y-134631749D01*
X136627798Y-134749947D01*
X136995629Y-134829498D01*
X137369832Y-134869500D01*
X137652019Y-134869500D01*
X137652021Y-134869500D01*
X137735347Y-134865058D01*
X137933788Y-134854483D01*
X137933792Y-134854482D01*
X137933802Y-134854482D01*
X138305346Y-134794620D01*
X138668422Y-134695606D01*
X139018916Y-134558559D01*
X139352858Y-134385034D01*
X139666463Y-134176996D01*
X139956179Y-133936802D01*
X140218722Y-133667174D01*
X140451118Y-133371167D01*
X140650735Y-133052135D01*
X140815309Y-132713692D01*
X140942976Y-132359674D01*
X141032291Y-131994090D01*
X141082240Y-131621085D01*
X141087246Y-131433112D01*
X148538742Y-131433112D01*
X148568768Y-131808258D01*
X148638500Y-132178077D01*
X148747143Y-132538383D01*
X148893473Y-132885108D01*
X149075824Y-133214307D01*
X149292127Y-133522251D01*
X149292133Y-133522258D01*
X149292138Y-133522265D01*
X149539959Y-133805484D01*
X149816481Y-134060757D01*
X150118569Y-134285191D01*
X150442802Y-134476243D01*
X150785506Y-134631749D01*
X151142798Y-134749947D01*
X151510629Y-134829498D01*
X151884832Y-134869500D01*
X152167019Y-134869500D01*
X152167021Y-134869500D01*
X152250347Y-134865058D01*
X152448788Y-134854483D01*
X152448792Y-134854482D01*
X152448802Y-134854482D01*
X152820346Y-134794620D01*
X153183422Y-134695606D01*
X153533916Y-134558559D01*
X153867858Y-134385034D01*
X154181463Y-134176996D01*
X154471179Y-133936802D01*
X154733722Y-133667174D01*
X154966118Y-133371167D01*
X155165735Y-133052135D01*
X155330309Y-132713692D01*
X155457976Y-132359674D01*
X155547291Y-131994090D01*
X155597240Y-131621085D01*
X155607258Y-131244883D01*
X155577232Y-130869747D01*
X155507501Y-130499929D01*
X155398856Y-130139617D01*
X155252528Y-129792895D01*
X155160006Y-129625865D01*
X155070175Y-129463692D01*
X154853872Y-129155748D01*
X154853867Y-129155742D01*
X154853862Y-129155735D01*
X154606041Y-128872516D01*
X154329519Y-128617243D01*
X154329517Y-128617241D01*
X154027435Y-128392812D01*
X154027431Y-128392809D01*
X153703198Y-128201757D01*
X153360494Y-128046251D01*
X153360491Y-128046250D01*
X153360489Y-128046249D01*
X153003215Y-127928057D01*
X153003210Y-127928055D01*
X153003202Y-127928053D01*
X152635371Y-127848502D01*
X152635369Y-127848501D01*
X152635367Y-127848501D01*
X152261168Y-127808500D01*
X151978979Y-127808500D01*
X151957735Y-127809632D01*
X151697211Y-127823516D01*
X151697185Y-127823519D01*
X151325656Y-127883379D01*
X151325653Y-127883380D01*
X150962577Y-127982394D01*
X150799265Y-128046251D01*
X150612084Y-128119441D01*
X150612082Y-128119441D01*
X150612082Y-128119442D01*
X150278141Y-128292966D01*
X149964542Y-128500999D01*
X149964533Y-128501006D01*
X149674831Y-128741188D01*
X149674817Y-128741201D01*
X149412274Y-129010829D01*
X149179889Y-129306822D01*
X149179884Y-129306829D01*
X148980267Y-129625862D01*
X148980259Y-129625876D01*
X148815688Y-129964313D01*
X148688022Y-130318331D01*
X148598709Y-130683906D01*
X148598708Y-130683914D01*
X148548761Y-131056908D01*
X148548759Y-131056924D01*
X148538742Y-131433112D01*
X141087246Y-131433112D01*
X141092258Y-131244883D01*
X141062232Y-130869747D01*
X140992501Y-130499929D01*
X140883856Y-130139617D01*
X140737528Y-129792895D01*
X140645006Y-129625865D01*
X140555175Y-129463692D01*
X140338872Y-129155748D01*
X140338867Y-129155742D01*
X140338862Y-129155735D01*
X140091041Y-128872516D01*
X139814519Y-128617243D01*
X139814517Y-128617241D01*
X139512435Y-128392812D01*
X139512431Y-128392809D01*
X139188198Y-128201757D01*
X138845494Y-128046251D01*
X138845491Y-128046250D01*
X138845489Y-128046249D01*
X138488215Y-127928057D01*
X138488210Y-127928055D01*
X138488202Y-127928053D01*
X138120371Y-127848502D01*
X138120369Y-127848501D01*
X138120367Y-127848501D01*
X137746168Y-127808500D01*
X137463979Y-127808500D01*
X137442735Y-127809632D01*
X137182211Y-127823516D01*
X137182185Y-127823519D01*
X136810656Y-127883379D01*
X136810653Y-127883380D01*
X136447577Y-127982394D01*
X136284265Y-128046251D01*
X136097084Y-128119441D01*
X136097082Y-128119441D01*
X136097082Y-128119442D01*
X135763141Y-128292966D01*
X135449542Y-128500999D01*
X135449533Y-128501006D01*
X135159831Y-128741188D01*
X135159817Y-128741201D01*
X134897274Y-129010829D01*
X134664889Y-129306822D01*
X134664884Y-129306829D01*
X134465267Y-129625862D01*
X134465259Y-129625876D01*
X134300688Y-129964313D01*
X134173022Y-130318331D01*
X134083709Y-130683906D01*
X134083708Y-130683914D01*
X134033761Y-131056908D01*
X134033759Y-131056924D01*
X134023742Y-131433112D01*
X126572246Y-131433112D01*
X126577258Y-131244883D01*
X126547232Y-130869747D01*
X126477501Y-130499929D01*
X126368856Y-130139617D01*
X126222528Y-129792895D01*
X126130006Y-129625865D01*
X126040175Y-129463692D01*
X125823872Y-129155748D01*
X125823867Y-129155742D01*
X125823862Y-129155735D01*
X125576041Y-128872516D01*
X125299519Y-128617243D01*
X125299517Y-128617241D01*
X124997435Y-128392812D01*
X124997431Y-128392809D01*
X124673198Y-128201757D01*
X124330494Y-128046251D01*
X124330491Y-128046250D01*
X124330489Y-128046249D01*
X123973215Y-127928057D01*
X123973210Y-127928055D01*
X123973202Y-127928053D01*
X123605371Y-127848502D01*
X123605369Y-127848501D01*
X123605367Y-127848501D01*
X123231168Y-127808500D01*
X122948979Y-127808500D01*
X122927735Y-127809632D01*
X122667211Y-127823516D01*
X122667185Y-127823519D01*
X122295656Y-127883379D01*
X122295653Y-127883380D01*
X121932577Y-127982394D01*
X121769265Y-128046251D01*
X121582084Y-128119441D01*
X121582082Y-128119441D01*
X121582082Y-128119442D01*
X121248141Y-128292966D01*
X120934542Y-128500999D01*
X120934533Y-128501006D01*
X120644831Y-128741188D01*
X120644817Y-128741201D01*
X120382274Y-129010829D01*
X120149889Y-129306822D01*
X120149884Y-129306829D01*
X119950267Y-129625862D01*
X119950259Y-129625876D01*
X119785688Y-129964313D01*
X119658022Y-130318331D01*
X119568709Y-130683906D01*
X119568708Y-130683914D01*
X119518761Y-131056908D01*
X119518759Y-131056924D01*
X119508742Y-131433112D01*
X112056246Y-131433112D01*
X112061258Y-131244883D01*
X112031232Y-130869747D01*
X111961501Y-130499929D01*
X111852856Y-130139617D01*
X111706528Y-129792895D01*
X111614006Y-129625865D01*
X111524175Y-129463692D01*
X111307872Y-129155748D01*
X111307867Y-129155742D01*
X111307862Y-129155735D01*
X111060041Y-128872516D01*
X110783519Y-128617243D01*
X110783517Y-128617241D01*
X110481435Y-128392812D01*
X110481431Y-128392809D01*
X110157198Y-128201757D01*
X109814494Y-128046251D01*
X109814491Y-128046250D01*
X109814489Y-128046249D01*
X109457215Y-127928057D01*
X109457210Y-127928055D01*
X109457202Y-127928053D01*
X109089371Y-127848502D01*
X109089369Y-127848501D01*
X109089367Y-127848501D01*
X108715168Y-127808500D01*
X108432979Y-127808500D01*
X108411735Y-127809632D01*
X108151211Y-127823516D01*
X108151185Y-127823519D01*
X107779656Y-127883379D01*
X107779653Y-127883380D01*
X107416577Y-127982394D01*
X107253265Y-128046251D01*
X107066084Y-128119441D01*
X107066082Y-128119441D01*
X107066082Y-128119442D01*
X106732141Y-128292966D01*
X106418542Y-128500999D01*
X106418533Y-128501006D01*
X106128831Y-128741188D01*
X106128817Y-128741201D01*
X105866274Y-129010829D01*
X105633889Y-129306822D01*
X105633884Y-129306829D01*
X105434267Y-129625862D01*
X105434259Y-129625876D01*
X105269688Y-129964313D01*
X105142022Y-130318331D01*
X105052709Y-130683906D01*
X105052708Y-130683914D01*
X105002761Y-131056908D01*
X105002759Y-131056924D01*
X104992742Y-131433112D01*
X100400500Y-131433112D01*
X100400500Y-117433112D01*
X104992742Y-117433112D01*
X105022768Y-117808258D01*
X105092500Y-118178077D01*
X105201143Y-118538383D01*
X105347473Y-118885108D01*
X105529824Y-119214307D01*
X105746127Y-119522251D01*
X105746133Y-119522258D01*
X105746138Y-119522265D01*
X105993959Y-119805484D01*
X106270481Y-120060757D01*
X106572569Y-120285191D01*
X106896802Y-120476243D01*
X107239506Y-120631749D01*
X107596798Y-120749947D01*
X107964629Y-120829498D01*
X108338832Y-120869500D01*
X108621019Y-120869500D01*
X108621021Y-120869500D01*
X108704347Y-120865058D01*
X108902788Y-120854483D01*
X108902792Y-120854482D01*
X108902802Y-120854482D01*
X109274346Y-120794620D01*
X109637422Y-120695606D01*
X109987916Y-120558559D01*
X110321858Y-120385034D01*
X110635463Y-120176996D01*
X110925179Y-119936802D01*
X111187722Y-119667174D01*
X111420118Y-119371167D01*
X111619735Y-119052135D01*
X111784309Y-118713692D01*
X111911976Y-118359674D01*
X112001291Y-117994090D01*
X112051240Y-117621085D01*
X112056246Y-117433112D01*
X119508742Y-117433112D01*
X119538768Y-117808258D01*
X119608500Y-118178077D01*
X119717143Y-118538383D01*
X119863473Y-118885108D01*
X120045824Y-119214307D01*
X120262127Y-119522251D01*
X120262133Y-119522258D01*
X120262138Y-119522265D01*
X120509959Y-119805484D01*
X120786481Y-120060757D01*
X121088569Y-120285191D01*
X121412802Y-120476243D01*
X121755506Y-120631749D01*
X122112798Y-120749947D01*
X122480629Y-120829498D01*
X122854832Y-120869500D01*
X123137019Y-120869500D01*
X123137021Y-120869500D01*
X123220347Y-120865058D01*
X123418788Y-120854483D01*
X123418792Y-120854482D01*
X123418802Y-120854482D01*
X123790346Y-120794620D01*
X124153422Y-120695606D01*
X124503916Y-120558559D01*
X124837858Y-120385034D01*
X125151463Y-120176996D01*
X125441179Y-119936802D01*
X125703722Y-119667174D01*
X125936118Y-119371167D01*
X126135735Y-119052135D01*
X126300309Y-118713692D01*
X126427976Y-118359674D01*
X126517291Y-117994090D01*
X126567240Y-117621085D01*
X126572246Y-117433112D01*
X134023742Y-117433112D01*
X134053768Y-117808258D01*
X134123500Y-118178077D01*
X134232143Y-118538383D01*
X134378473Y-118885108D01*
X134560824Y-119214307D01*
X134777127Y-119522251D01*
X134777133Y-119522258D01*
X134777138Y-119522265D01*
X135024959Y-119805484D01*
X135301481Y-120060757D01*
X135603569Y-120285191D01*
X135927802Y-120476243D01*
X136270506Y-120631749D01*
X136627798Y-120749947D01*
X136995629Y-120829498D01*
X137369832Y-120869500D01*
X137652019Y-120869500D01*
X137652021Y-120869500D01*
X137735347Y-120865058D01*
X137933788Y-120854483D01*
X137933792Y-120854482D01*
X137933802Y-120854482D01*
X138305346Y-120794620D01*
X138668422Y-120695606D01*
X139018916Y-120558559D01*
X139352858Y-120385034D01*
X139666463Y-120176996D01*
X139956179Y-119936802D01*
X140218722Y-119667174D01*
X140451118Y-119371167D01*
X140650735Y-119052135D01*
X140815309Y-118713692D01*
X140942976Y-118359674D01*
X141032291Y-117994090D01*
X141082240Y-117621085D01*
X141087246Y-117433112D01*
X148538742Y-117433112D01*
X148568768Y-117808258D01*
X148638500Y-118178077D01*
X148747143Y-118538383D01*
X148893473Y-118885108D01*
X149075824Y-119214307D01*
X149292127Y-119522251D01*
X149292133Y-119522258D01*
X149292138Y-119522265D01*
X149539959Y-119805484D01*
X149816481Y-120060757D01*
X150118569Y-120285191D01*
X150442802Y-120476243D01*
X150785506Y-120631749D01*
X151142798Y-120749947D01*
X151510629Y-120829498D01*
X151884832Y-120869500D01*
X152167019Y-120869500D01*
X152167021Y-120869500D01*
X152250347Y-120865058D01*
X152448788Y-120854483D01*
X152448792Y-120854482D01*
X152448802Y-120854482D01*
X152820346Y-120794620D01*
X153183422Y-120695606D01*
X153533916Y-120558559D01*
X153867858Y-120385034D01*
X154181463Y-120176996D01*
X154471179Y-119936802D01*
X154733722Y-119667174D01*
X154966118Y-119371167D01*
X155165735Y-119052135D01*
X155330309Y-118713692D01*
X155457976Y-118359674D01*
X155547291Y-117994090D01*
X155597240Y-117621085D01*
X155607258Y-117244883D01*
X155577232Y-116869747D01*
X155507501Y-116499929D01*
X155398856Y-116139617D01*
X155252528Y-115792895D01*
X155160006Y-115625865D01*
X155070175Y-115463692D01*
X154853872Y-115155748D01*
X154853867Y-115155742D01*
X154853862Y-115155735D01*
X154606041Y-114872516D01*
X154329519Y-114617243D01*
X154329517Y-114617241D01*
X154027435Y-114392812D01*
X154027431Y-114392809D01*
X153703198Y-114201757D01*
X153360494Y-114046251D01*
X153360491Y-114046250D01*
X153360489Y-114046249D01*
X153003215Y-113928057D01*
X153003210Y-113928055D01*
X153003202Y-113928053D01*
X152635371Y-113848502D01*
X152635369Y-113848501D01*
X152635367Y-113848501D01*
X152261168Y-113808500D01*
X151978979Y-113808500D01*
X151957735Y-113809632D01*
X151697211Y-113823516D01*
X151697185Y-113823519D01*
X151325656Y-113883379D01*
X151325653Y-113883380D01*
X150962577Y-113982394D01*
X150799265Y-114046251D01*
X150612084Y-114119441D01*
X150612082Y-114119441D01*
X150612082Y-114119442D01*
X150278141Y-114292966D01*
X149964542Y-114500999D01*
X149964533Y-114501006D01*
X149674831Y-114741188D01*
X149674817Y-114741201D01*
X149412274Y-115010829D01*
X149179889Y-115306822D01*
X149179884Y-115306829D01*
X148980267Y-115625862D01*
X148980259Y-115625876D01*
X148815688Y-115964313D01*
X148688022Y-116318331D01*
X148598709Y-116683906D01*
X148598708Y-116683914D01*
X148548761Y-117056908D01*
X148548759Y-117056924D01*
X148538742Y-117433112D01*
X141087246Y-117433112D01*
X141092258Y-117244883D01*
X141062232Y-116869747D01*
X140992501Y-116499929D01*
X140883856Y-116139617D01*
X140737528Y-115792895D01*
X140645006Y-115625865D01*
X140555175Y-115463692D01*
X140338872Y-115155748D01*
X140338867Y-115155742D01*
X140338862Y-115155735D01*
X140091041Y-114872516D01*
X139814519Y-114617243D01*
X139814517Y-114617241D01*
X139512435Y-114392812D01*
X139512431Y-114392809D01*
X139188198Y-114201757D01*
X138845494Y-114046251D01*
X138845491Y-114046250D01*
X138845489Y-114046249D01*
X138488215Y-113928057D01*
X138488210Y-113928055D01*
X138488202Y-113928053D01*
X138120371Y-113848502D01*
X138120369Y-113848501D01*
X138120367Y-113848501D01*
X137746168Y-113808500D01*
X137463979Y-113808500D01*
X137442735Y-113809632D01*
X137182211Y-113823516D01*
X137182185Y-113823519D01*
X136810656Y-113883379D01*
X136810653Y-113883380D01*
X136447577Y-113982394D01*
X136284265Y-114046251D01*
X136097084Y-114119441D01*
X136097082Y-114119441D01*
X136097082Y-114119442D01*
X135763141Y-114292966D01*
X135449542Y-114500999D01*
X135449533Y-114501006D01*
X135159831Y-114741188D01*
X135159817Y-114741201D01*
X134897274Y-115010829D01*
X134664889Y-115306822D01*
X134664884Y-115306829D01*
X134465267Y-115625862D01*
X134465259Y-115625876D01*
X134300688Y-115964313D01*
X134173022Y-116318331D01*
X134083709Y-116683906D01*
X134083708Y-116683914D01*
X134033761Y-117056908D01*
X134033759Y-117056924D01*
X134023742Y-117433112D01*
X126572246Y-117433112D01*
X126577258Y-117244883D01*
X126547232Y-116869747D01*
X126477501Y-116499929D01*
X126368856Y-116139617D01*
X126222528Y-115792895D01*
X126130006Y-115625865D01*
X126040175Y-115463692D01*
X125823872Y-115155748D01*
X125823867Y-115155742D01*
X125823862Y-115155735D01*
X125576041Y-114872516D01*
X125299519Y-114617243D01*
X125299517Y-114617241D01*
X124997435Y-114392812D01*
X124997431Y-114392809D01*
X124673198Y-114201757D01*
X124330494Y-114046251D01*
X124330491Y-114046250D01*
X124330489Y-114046249D01*
X123973215Y-113928057D01*
X123973210Y-113928055D01*
X123973202Y-113928053D01*
X123605371Y-113848502D01*
X123605369Y-113848501D01*
X123605367Y-113848501D01*
X123231168Y-113808500D01*
X122948979Y-113808500D01*
X122927735Y-113809632D01*
X122667211Y-113823516D01*
X122667185Y-113823519D01*
X122295656Y-113883379D01*
X122295653Y-113883380D01*
X121932577Y-113982394D01*
X121769265Y-114046251D01*
X121582084Y-114119441D01*
X121582082Y-114119441D01*
X121582082Y-114119442D01*
X121248141Y-114292966D01*
X120934542Y-114500999D01*
X120934533Y-114501006D01*
X120644831Y-114741188D01*
X120644817Y-114741201D01*
X120382274Y-115010829D01*
X120149889Y-115306822D01*
X120149884Y-115306829D01*
X119950267Y-115625862D01*
X119950259Y-115625876D01*
X119785688Y-115964313D01*
X119658022Y-116318331D01*
X119568709Y-116683906D01*
X119568708Y-116683914D01*
X119518761Y-117056908D01*
X119518759Y-117056924D01*
X119508742Y-117433112D01*
X112056246Y-117433112D01*
X112061258Y-117244883D01*
X112031232Y-116869747D01*
X111961501Y-116499929D01*
X111852856Y-116139617D01*
X111706528Y-115792895D01*
X111614006Y-115625865D01*
X111524175Y-115463692D01*
X111307872Y-115155748D01*
X111307867Y-115155742D01*
X111307862Y-115155735D01*
X111060041Y-114872516D01*
X110783519Y-114617243D01*
X110783517Y-114617241D01*
X110481435Y-114392812D01*
X110481431Y-114392809D01*
X110157198Y-114201757D01*
X109814494Y-114046251D01*
X109814491Y-114046250D01*
X109814489Y-114046249D01*
X109457215Y-113928057D01*
X109457210Y-113928055D01*
X109457202Y-113928053D01*
X109089371Y-113848502D01*
X109089369Y-113848501D01*
X109089367Y-113848501D01*
X108715168Y-113808500D01*
X108432979Y-113808500D01*
X108411735Y-113809632D01*
X108151211Y-113823516D01*
X108151185Y-113823519D01*
X107779656Y-113883379D01*
X107779653Y-113883380D01*
X107416577Y-113982394D01*
X107253265Y-114046251D01*
X107066084Y-114119441D01*
X107066082Y-114119441D01*
X107066082Y-114119442D01*
X106732141Y-114292966D01*
X106418542Y-114500999D01*
X106418533Y-114501006D01*
X106128831Y-114741188D01*
X106128817Y-114741201D01*
X105866274Y-115010829D01*
X105633889Y-115306822D01*
X105633884Y-115306829D01*
X105434267Y-115625862D01*
X105434259Y-115625876D01*
X105269688Y-115964313D01*
X105142022Y-116318331D01*
X105052709Y-116683906D01*
X105052708Y-116683914D01*
X105002761Y-117056908D01*
X105002759Y-117056924D01*
X104992742Y-117433112D01*
X100400500Y-117433112D01*
X100400500Y-103143679D01*
X104999500Y-103143679D01*
X104999985Y-103147210D01*
X105003059Y-103169574D01*
X105003553Y-103174826D01*
X105005630Y-103215304D01*
X105005631Y-103215321D01*
X105023949Y-103321557D01*
X105038629Y-103428359D01*
X105047482Y-103459961D01*
X105048879Y-103466153D01*
X105054453Y-103498480D01*
X105054455Y-103498486D01*
X105087070Y-103601248D01*
X105116156Y-103705058D01*
X105116157Y-103705060D01*
X105129226Y-103735149D01*
X105131454Y-103741094D01*
X105141383Y-103772375D01*
X105141385Y-103772381D01*
X105187685Y-103869736D01*
X105230636Y-103968619D01*
X105230636Y-103968620D01*
X105247691Y-103996667D01*
X105250706Y-104002251D01*
X105264799Y-104031882D01*
X105323927Y-104122030D01*
X105379945Y-104214147D01*
X105392771Y-104229912D01*
X105400653Y-104239601D01*
X105404395Y-104244714D01*
X105422400Y-104272164D01*
X105422402Y-104272167D01*
X105493250Y-104353418D01*
X105561289Y-104437050D01*
X105561291Y-104437052D01*
X105561292Y-104437053D01*
X105585270Y-104459447D01*
X105585278Y-104459454D01*
X105589681Y-104464010D01*
X105611252Y-104488748D01*
X105692497Y-104559590D01*
X105771296Y-104633184D01*
X105771298Y-104633185D01*
X105771302Y-104633189D01*
X105798108Y-104652110D01*
X105803104Y-104656035D01*
X105803109Y-104656039D01*
X105827836Y-104677600D01*
X105917990Y-104736732D01*
X106006064Y-104798901D01*
X106006068Y-104798903D01*
X106035195Y-104813995D01*
X106040675Y-104817200D01*
X106068118Y-104835201D01*
X106165488Y-104881508D01*
X106261203Y-104931104D01*
X106283877Y-104939162D01*
X106292118Y-104942091D01*
X106297986Y-104944522D01*
X106308247Y-104949401D01*
X106327622Y-104958616D01*
X106430384Y-104991231D01*
X106531968Y-105027334D01*
X106531969Y-105027334D01*
X106531971Y-105027335D01*
X106540342Y-105029074D01*
X106564109Y-105034013D01*
X106570221Y-105035613D01*
X106601514Y-105045545D01*
X106707758Y-105063863D01*
X106813314Y-105085798D01*
X106846046Y-105088037D01*
X106852347Y-105088793D01*
X106884692Y-105094370D01*
X106934513Y-105096924D01*
X107004257Y-105100500D01*
X107004264Y-105100500D01*
X107995743Y-105100500D01*
X108115302Y-105094371D01*
X108147643Y-105088795D01*
X108153952Y-105088037D01*
X108163878Y-105087357D01*
X108186686Y-105085798D01*
X108292241Y-105063863D01*
X108398486Y-105045545D01*
X108429765Y-105035617D01*
X108435891Y-105034012D01*
X108468032Y-105027334D01*
X108569615Y-104991231D01*
X108672378Y-104958616D01*
X108702028Y-104944514D01*
X108707865Y-104942096D01*
X108738797Y-104931104D01*
X108834511Y-104881508D01*
X108931882Y-104835201D01*
X108959324Y-104817200D01*
X108964793Y-104814000D01*
X108993936Y-104798901D01*
X109082009Y-104736732D01*
X109172164Y-104677600D01*
X109196898Y-104656031D01*
X109201866Y-104652127D01*
X109228698Y-104633189D01*
X109307502Y-104559590D01*
X109388748Y-104488748D01*
X109410317Y-104464010D01*
X109414718Y-104459456D01*
X109438708Y-104437053D01*
X109506749Y-104353418D01*
X109577600Y-104272164D01*
X109595601Y-104244717D01*
X109599335Y-104239613D01*
X109620055Y-104214147D01*
X109676072Y-104122030D01*
X109735201Y-104031882D01*
X109749297Y-104002241D01*
X109752308Y-103996667D01*
X109762640Y-103979675D01*
X109769361Y-103968626D01*
X109769362Y-103968623D01*
X109812314Y-103869736D01*
X109858611Y-103772388D01*
X109858616Y-103772378D01*
X109868548Y-103741082D01*
X109870765Y-103735165D01*
X109883844Y-103705058D01*
X109912929Y-103601248D01*
X109945545Y-103498486D01*
X109951124Y-103466122D01*
X109952516Y-103459961D01*
X109961371Y-103428358D01*
X109976050Y-103321558D01*
X109994370Y-103215308D01*
X109996445Y-103174825D01*
X109996940Y-103169574D01*
X110000499Y-103143682D01*
X110000500Y-103143681D01*
X110000500Y-103143679D01*
X150719500Y-103143679D01*
X150719985Y-103147210D01*
X150723059Y-103169574D01*
X150723553Y-103174826D01*
X150725630Y-103215304D01*
X150725631Y-103215321D01*
X150743949Y-103321557D01*
X150758629Y-103428359D01*
X150767482Y-103459961D01*
X150768879Y-103466153D01*
X150774453Y-103498480D01*
X150774455Y-103498486D01*
X150807070Y-103601248D01*
X150836156Y-103705058D01*
X150836157Y-103705060D01*
X150849226Y-103735149D01*
X150851454Y-103741094D01*
X150861383Y-103772375D01*
X150861385Y-103772381D01*
X150907685Y-103869736D01*
X150950636Y-103968619D01*
X150950636Y-103968620D01*
X150967691Y-103996667D01*
X150970706Y-104002251D01*
X150984799Y-104031882D01*
X151043927Y-104122030D01*
X151099945Y-104214147D01*
X151112771Y-104229912D01*
X151120653Y-104239601D01*
X151124395Y-104244714D01*
X151142400Y-104272164D01*
X151142402Y-104272167D01*
X151213250Y-104353418D01*
X151281289Y-104437050D01*
X151281291Y-104437052D01*
X151281292Y-104437053D01*
X151305270Y-104459447D01*
X151305278Y-104459454D01*
X151309681Y-104464010D01*
X151331252Y-104488748D01*
X151412497Y-104559590D01*
X151491296Y-104633184D01*
X151491298Y-104633185D01*
X151491302Y-104633189D01*
X151518108Y-104652110D01*
X151523104Y-104656035D01*
X151523109Y-104656039D01*
X151547836Y-104677600D01*
X151637990Y-104736732D01*
X151726064Y-104798901D01*
X151726068Y-104798903D01*
X151755195Y-104813995D01*
X151760675Y-104817200D01*
X151788118Y-104835201D01*
X151885488Y-104881508D01*
X151981203Y-104931104D01*
X152003877Y-104939162D01*
X152012118Y-104942091D01*
X152017986Y-104944522D01*
X152028247Y-104949401D01*
X152047622Y-104958616D01*
X152150384Y-104991231D01*
X152251968Y-105027334D01*
X152251969Y-105027334D01*
X152251971Y-105027335D01*
X152260342Y-105029074D01*
X152284109Y-105034013D01*
X152290221Y-105035613D01*
X152321514Y-105045545D01*
X152427758Y-105063863D01*
X152533314Y-105085798D01*
X152566046Y-105088037D01*
X152572347Y-105088793D01*
X152604692Y-105094370D01*
X152654513Y-105096924D01*
X152724257Y-105100500D01*
X152724264Y-105100500D01*
X153715743Y-105100500D01*
X153835302Y-105094371D01*
X153867643Y-105088795D01*
X153873952Y-105088037D01*
X153883878Y-105087357D01*
X153906686Y-105085798D01*
X154012241Y-105063863D01*
X154118486Y-105045545D01*
X154149765Y-105035617D01*
X154155891Y-105034012D01*
X154188032Y-105027334D01*
X154289615Y-104991231D01*
X154392378Y-104958616D01*
X154422028Y-104944514D01*
X154427865Y-104942096D01*
X154458797Y-104931104D01*
X154554511Y-104881508D01*
X154651882Y-104835201D01*
X154679324Y-104817200D01*
X154684793Y-104814000D01*
X154713936Y-104798901D01*
X154802009Y-104736732D01*
X154892164Y-104677600D01*
X154916898Y-104656031D01*
X154921866Y-104652127D01*
X154948698Y-104633189D01*
X155027502Y-104559590D01*
X155108748Y-104488748D01*
X155130317Y-104464010D01*
X155134718Y-104459456D01*
X155158708Y-104437053D01*
X155226749Y-104353418D01*
X155297600Y-104272164D01*
X155315601Y-104244717D01*
X155319335Y-104239613D01*
X155340055Y-104214147D01*
X155396072Y-104122030D01*
X155455201Y-104031882D01*
X155469297Y-104002241D01*
X155472308Y-103996667D01*
X155482640Y-103979675D01*
X155489361Y-103968626D01*
X155489362Y-103968623D01*
X155532314Y-103869736D01*
X155578611Y-103772388D01*
X155578616Y-103772378D01*
X155588548Y-103741082D01*
X155590765Y-103735165D01*
X155603844Y-103705058D01*
X155632929Y-103601248D01*
X155665545Y-103498486D01*
X155671124Y-103466122D01*
X155672516Y-103459961D01*
X155681371Y-103428358D01*
X155696050Y-103321558D01*
X155714370Y-103215308D01*
X155716445Y-103174825D01*
X155716940Y-103169574D01*
X155720499Y-103143682D01*
X155720500Y-103143681D01*
X155720500Y-102856324D01*
X155716940Y-102830424D01*
X155716445Y-102825173D01*
X155714370Y-102784692D01*
X155696050Y-102678441D01*
X155681371Y-102571642D01*
X155672517Y-102540040D01*
X155671120Y-102533851D01*
X155665545Y-102501514D01*
X155632929Y-102398751D01*
X155603844Y-102294942D01*
X155590765Y-102264832D01*
X155588543Y-102258903D01*
X155578616Y-102227622D01*
X155532314Y-102130263D01*
X155489361Y-102031375D01*
X155472306Y-102003330D01*
X155469293Y-101997749D01*
X155455204Y-101968124D01*
X155455201Y-101968118D01*
X155396072Y-101877969D01*
X155340055Y-101785853D01*
X155319344Y-101760396D01*
X155315595Y-101755272D01*
X155297602Y-101727838D01*
X155226749Y-101646581D01*
X155158712Y-101562952D01*
X155158708Y-101562947D01*
X155134717Y-101540540D01*
X155130317Y-101535989D01*
X155108748Y-101511252D01*
X155027502Y-101440409D01*
X154948701Y-101366813D01*
X154944392Y-101363771D01*
X154921884Y-101347883D01*
X154916900Y-101343969D01*
X154892164Y-101322400D01*
X154802009Y-101263267D01*
X154713936Y-101201099D01*
X154684797Y-101186000D01*
X154679329Y-101182802D01*
X154651882Y-101164799D01*
X154651878Y-101164797D01*
X154651873Y-101164794D01*
X154554511Y-101118491D01*
X154458796Y-101068895D01*
X154458792Y-101068894D01*
X154427874Y-101057905D01*
X154422006Y-101055474D01*
X154392385Y-101041386D01*
X154392380Y-101041385D01*
X154392378Y-101041384D01*
X154289615Y-101008768D01*
X154188044Y-100972670D01*
X154188038Y-100972668D01*
X154188032Y-100972666D01*
X154155903Y-100965988D01*
X154149762Y-100964380D01*
X154118497Y-100954458D01*
X154118489Y-100954456D01*
X154118486Y-100954455D01*
X154118482Y-100954454D01*
X154118481Y-100954454D01*
X154012241Y-100936136D01*
X153906686Y-100914202D01*
X153906681Y-100914201D01*
X153906682Y-100914201D01*
X153873943Y-100911961D01*
X153867647Y-100911205D01*
X153854199Y-100908886D01*
X153835312Y-100905630D01*
X153835297Y-100905628D01*
X153715743Y-100899500D01*
X153715736Y-100899500D01*
X152724264Y-100899500D01*
X152724257Y-100899500D01*
X152604706Y-100905628D01*
X152604678Y-100905631D01*
X152572348Y-100911204D01*
X152566048Y-100911961D01*
X152533319Y-100914201D01*
X152427758Y-100936136D01*
X152321516Y-100954454D01*
X152321502Y-100954458D01*
X152290241Y-100964379D01*
X152284100Y-100965987D01*
X152251980Y-100972662D01*
X152251954Y-100972670D01*
X152150384Y-101008768D01*
X152047618Y-101041385D01*
X152017989Y-101055476D01*
X152012124Y-101057906D01*
X151981200Y-101068897D01*
X151885488Y-101118491D01*
X151788120Y-101164797D01*
X151788112Y-101164802D01*
X151760676Y-101182798D01*
X151755193Y-101186005D01*
X151726064Y-101201098D01*
X151637990Y-101263267D01*
X151547836Y-101322400D01*
X151547827Y-101322406D01*
X151523102Y-101343965D01*
X151518110Y-101347887D01*
X151491311Y-101366803D01*
X151491294Y-101366817D01*
X151412497Y-101440409D01*
X151331258Y-101511246D01*
X151331256Y-101511247D01*
X151309691Y-101535978D01*
X151305280Y-101540542D01*
X151281293Y-101562944D01*
X151281292Y-101562945D01*
X151213250Y-101646581D01*
X151142398Y-101727837D01*
X151142395Y-101727842D01*
X151124403Y-101755273D01*
X151120654Y-101760396D01*
X151099943Y-101785855D01*
X151099941Y-101785858D01*
X151043927Y-101877969D01*
X150984800Y-101968115D01*
X150970706Y-101997747D01*
X150967691Y-102003330D01*
X150950640Y-102031372D01*
X150907685Y-102130263D01*
X150861384Y-102227620D01*
X150861383Y-102227622D01*
X150851454Y-102258904D01*
X150849227Y-102264846D01*
X150836156Y-102294942D01*
X150807070Y-102398751D01*
X150774455Y-102501513D01*
X150768879Y-102533847D01*
X150767482Y-102540040D01*
X150758629Y-102571642D01*
X150758629Y-102571643D01*
X150743949Y-102678442D01*
X150725632Y-102784675D01*
X150725630Y-102784695D01*
X150723555Y-102825151D01*
X150723059Y-102830415D01*
X150719500Y-102856316D01*
X150719500Y-103143679D01*
X110000500Y-103143679D01*
X110000500Y-102856324D01*
X109996940Y-102830424D01*
X109996445Y-102825173D01*
X109994370Y-102784692D01*
X109976050Y-102678441D01*
X109961371Y-102571642D01*
X109952517Y-102540040D01*
X109951120Y-102533851D01*
X109945545Y-102501514D01*
X109912929Y-102398751D01*
X109883844Y-102294942D01*
X109870765Y-102264832D01*
X109868543Y-102258903D01*
X109858616Y-102227622D01*
X109812314Y-102130263D01*
X109769361Y-102031375D01*
X109752306Y-102003330D01*
X109749293Y-101997749D01*
X109735204Y-101968124D01*
X109735201Y-101968118D01*
X109676072Y-101877969D01*
X109620055Y-101785853D01*
X109599344Y-101760396D01*
X109595595Y-101755272D01*
X109577602Y-101727838D01*
X109506749Y-101646581D01*
X109438712Y-101562952D01*
X109438708Y-101562947D01*
X109414717Y-101540540D01*
X109410317Y-101535989D01*
X109388748Y-101511252D01*
X109307502Y-101440409D01*
X109228701Y-101366813D01*
X109224392Y-101363771D01*
X109201884Y-101347883D01*
X109196900Y-101343969D01*
X109172164Y-101322400D01*
X109082009Y-101263267D01*
X108993936Y-101201099D01*
X108964797Y-101186000D01*
X108959329Y-101182802D01*
X108931882Y-101164799D01*
X108931878Y-101164797D01*
X108931873Y-101164794D01*
X108834511Y-101118491D01*
X108738796Y-101068895D01*
X108738792Y-101068894D01*
X108707874Y-101057905D01*
X108702006Y-101055474D01*
X108672385Y-101041386D01*
X108672380Y-101041385D01*
X108672378Y-101041384D01*
X108569615Y-101008768D01*
X108468044Y-100972670D01*
X108468038Y-100972668D01*
X108468032Y-100972666D01*
X108435903Y-100965988D01*
X108429762Y-100964380D01*
X108398497Y-100954458D01*
X108398489Y-100954456D01*
X108398486Y-100954455D01*
X108398482Y-100954454D01*
X108398481Y-100954454D01*
X108292241Y-100936136D01*
X108186686Y-100914202D01*
X108186681Y-100914201D01*
X108186682Y-100914201D01*
X108153943Y-100911961D01*
X108147647Y-100911205D01*
X108134199Y-100908886D01*
X108115312Y-100905630D01*
X108115297Y-100905628D01*
X107995743Y-100899500D01*
X107995736Y-100899500D01*
X107004264Y-100899500D01*
X107004257Y-100899500D01*
X106884706Y-100905628D01*
X106884678Y-100905631D01*
X106852348Y-100911204D01*
X106846048Y-100911961D01*
X106813319Y-100914201D01*
X106707758Y-100936136D01*
X106601516Y-100954454D01*
X106601502Y-100954458D01*
X106570241Y-100964379D01*
X106564100Y-100965987D01*
X106531980Y-100972662D01*
X106531954Y-100972670D01*
X106430384Y-101008768D01*
X106327618Y-101041385D01*
X106297989Y-101055476D01*
X106292124Y-101057906D01*
X106261200Y-101068897D01*
X106165488Y-101118491D01*
X106068120Y-101164797D01*
X106068112Y-101164802D01*
X106040676Y-101182798D01*
X106035193Y-101186005D01*
X106006064Y-101201098D01*
X105917990Y-101263267D01*
X105827836Y-101322400D01*
X105827827Y-101322406D01*
X105803102Y-101343965D01*
X105798110Y-101347887D01*
X105771311Y-101366803D01*
X105771294Y-101366817D01*
X105692497Y-101440409D01*
X105611258Y-101511246D01*
X105611256Y-101511247D01*
X105589691Y-101535978D01*
X105585280Y-101540542D01*
X105561293Y-101562944D01*
X105561292Y-101562945D01*
X105493250Y-101646581D01*
X105422398Y-101727837D01*
X105422395Y-101727842D01*
X105404403Y-101755273D01*
X105400654Y-101760396D01*
X105379943Y-101785855D01*
X105379941Y-101785858D01*
X105323927Y-101877969D01*
X105264800Y-101968115D01*
X105250706Y-101997747D01*
X105247691Y-102003330D01*
X105230640Y-102031372D01*
X105187685Y-102130263D01*
X105141384Y-102227620D01*
X105141383Y-102227622D01*
X105131454Y-102258904D01*
X105129227Y-102264846D01*
X105116156Y-102294942D01*
X105087070Y-102398751D01*
X105054455Y-102501513D01*
X105048879Y-102533847D01*
X105047482Y-102540040D01*
X105038629Y-102571642D01*
X105038629Y-102571643D01*
X105023949Y-102678442D01*
X105005632Y-102784675D01*
X105005630Y-102784695D01*
X105003555Y-102825151D01*
X105003059Y-102830415D01*
X104999500Y-102856316D01*
X104999500Y-103143679D01*
X100400500Y-103143679D01*
X100400500Y-100524500D01*
X100420185Y-100457461D01*
X100472989Y-100411706D01*
X100524500Y-100400500D01*
X160075500Y-100400500D01*
X160142539Y-100420185D01*
G37*
G04 #@! TD.AperFunction*
M02*
