<?xml version="1.0" encoding="UTF-8"?>
<svg id="Text" xmlns="http://www.w3.org/2000/svg" width="71.1893mm" height="129.0749mm" viewBox="0 0 201.7965 365.8817">
  <defs>
    <style>
      .cls-1 {
        fill: #231f20;
        stroke-width: 0px;
      }
    </style>
  </defs>
  <g>
    <path class="cls-1" d="m12.0175,15.2613l-1.6963,1.0054c-.3174-.5508-.6196-.9097-.9067-1.0776-.2993-.1914-.6855-.2871-1.1582-.2871-.5806,0-1.062.1646-1.4448.4937-.3833.3232-.5747.7305-.5747,1.2212,0,.6763.5024,1.2207,1.5078,1.6333l1.3828.5659c1.125.4546,1.9478,1.0098,2.4683,1.665s.7812,1.4585.7812,2.4102c0,1.2744-.4253,2.3281-1.2749,3.1597-.856.8379-1.918,1.2568-3.1865,1.2568-1.2031,0-2.1963-.356-2.9805-1.0684-.772-.7119-1.2534-1.7144-1.4453-3.0073l2.1187-.4668c.0957.814.2632,1.377.5029,1.688.4307.5981,1.0591.8975,1.8848.8975.6523,0,1.1938-.2183,1.625-.6553.4307-.4365.646-.9902.646-1.6606,0-.2695-.0371-.5161-.1118-.7407-.0752-.2241-.1919-.4307-.3501-.6191-.1587-.1885-.3638-.3652-.6152-.5298s-.5503-.3213-.8975-.4712l-1.3374-.5566c-1.8975-.8018-2.8457-1.9746-2.8457-3.5186,0-1.0415.3979-1.9121,1.1938-2.6123.7959-.7061,1.7861-1.0591,2.9712-1.0591,1.5977,0,2.8457.7778,3.7432,2.334Z"/>
    <path class="cls-1" d="m15.6078,18.3131l2.2891,4.9912,2.4688-5.79,2.4863,5.79,2.2627-4.9912h2.2617l-4.5781,9.3984-2.4326-5.6284-2.4595,5.6284-4.5693-9.3984h2.271Z"/>
  </g>
  <g>
    <g>
      <path class="cls-1" d="m4.5209,339.8185v6.3428h2.1733v1.0479h-3.2886v-7.3906h1.1152Z"/>
      <path class="cls-1" d="m6.8935,340.6085c0-.1885.0684-.3506.2056-.4883.1372-.1367.3018-.2061.4932-.2061.1943,0,.3604.0693.4976.2061.1372.1338.2061.2988.2061.4932s-.0688.3604-.2061.498c-.1338.1367-.2983.2061-.4927.2061-.1948,0-.3608-.0693-.498-.2061-.1372-.1377-.2056-.3047-.2056-.5029Zm1.2397,1.9385v4.6621h-1.0771v-4.6621h1.0771Z"/>
      <path class="cls-1" d="m12.6347,342.7482v1.4307c-.2456-.2998-.4658-.5049-.6602-.6172-.1919-.1143-.4165-.1719-.6753-.1719-.4053,0-.7417.1416-1.0098.4258s-.4019.6396-.4019,1.0674c0,.4375.1289.7959.3877,1.0771.2612.2803.5947.4209,1,.4209.2588,0,.4868-.0557.6846-.167.1914-.1094.4165-.3193.6748-.6318v1.4209c-.437.2266-.874.3398-1.3115.3398-.7212,0-1.3242-.2324-1.8091-.6982-.4849-.4697-.7275-1.0518-.7275-1.7471,0-.6963.2456-1.2832.7373-1.7617.4912-.4785,1.0942-.7178,1.8091-.7178.4595,0,.8936.1104,1.3018.3301Z"/>
      <path class="cls-1" d="m13.4423,339.1251h1.0771v3.8096c.3828-.3447.8057-.5166,1.2681-.5166.5269,0,.9478.1709,1.2637.5117.2681.2969.4023.7705.4023,1.4219v2.8574h-1.0771v-2.7568c0-.373-.0664-.6436-.1987-.8115-.1323-.167-.3452-.251-.6392-.251-.3765,0-.6411.1162-.7944.3496-.1499.2354-.2246.6406-.2246,1.2148v2.2549h-1.0771v-8.084Z"/>
      <path class="cls-1" d="m22.5727,345.132h-3.3408c.0283.3828.1528.6875.373.9141.2202.2236.5029.335.8472.335.2681,0,.4897-.0635.6655-.1914.1724-.1279.3687-.3633.5889-.708l.9092.5068c-.1406.2393-.2886.4443-.4453.6152-.1562.1709-.3237.3115-.5024.4209-.1787.1104-.3716.1914-.5791.2422s-.4326.0762-.6748.0762c-.6958,0-1.2539-.2227-1.6753-.6699-.4214-.4502-.6318-1.0469-.6318-1.79,0-.7373.2041-1.334.6128-1.79.4116-.4502.957-.6748,1.6367-.6748.686,0,1.2285.2188,1.6274.6553.3955.4346.5938,1.0361.5938,1.8047l-.0049.2539Zm-1.106-.8809c-.1499-.5742-.5117-.8613-1.0864-.8613-.1309,0-.2534.0195-.3687.0596-.1147.04-.2192.0977-.3135.1719-.0938.0752-.1743.166-.2417.2705-.0669.1055-.1177.2256-.1528.3594h2.1631Z"/>
      <path class="cls-1" d="m23.2602,342.547h1.0815v.4307c.3765-.373.8022-.5596,1.2729-.5596.543,0,.9668.1709,1.2695.5117.2617.291.3926.7646.3926,1.4219v2.8574h-1.082v-2.6035c0-.46-.0645-.7773-.1914-.9531-.125-.1787-.3516-.2676-.6797-.2676-.3574,0-.6113.1182-.7617.3545-.1465.2324-.2202.6396-.2202,1.2197v2.25h-1.0815v-4.6621Z"/>
    </g>
    <g>
      <path class="cls-1" d="m4.4379,348.9093v.4004c-.0688-.084-.1304-.1416-.1851-.1729-.0532-.0322-.1162-.0479-.189-.0479-.1133,0-.2075.04-.2827.1191-.0747.0791-.1123.1787-.1123.2988,0,.1221.0361.2227.1084.3018.0732.0781.1665.1182.2803.1182.0723,0,.1362-.0156.1914-.0469.0537-.0312.1167-.0898.189-.1777v.3984c-.1221.0635-.2446.0947-.3672.0947-.2017,0-.3706-.0645-.5063-.1953s-.2041-.2939-.2041-.4893c0-.1943.0688-.3594.2065-.4932s.3066-.2012.5068-.2012c.1284,0,.25.0312.3643.0928Z"/>
      <path class="cls-1" d="m4.7069,349.4962c0-.1885.0679-.3486.2026-.4814.1348-.1318.2993-.1982.4932-.1982.1948,0,.3599.0664.4961.2002.1338.1328.2007.2969.2007.4902,0,.1953-.0674.3594-.2021.4922-.1357.1309-.3027.1963-.5.1963-.1958,0-.3599-.0664-.4917-.2002-.1323-.1328-.1987-.2988-.1987-.499Zm.3086.0059c0,.1299.0347.2334.1045.3096.0713.0762.1655.1152.2827.1152.1182,0,.2124-.0381.2827-.1143.0708-.0762.106-.1777.106-.3047,0-.126-.0352-.2275-.106-.3037-.0713-.0771-.1655-.1152-.2827-.1152-.1152,0-.2085.0381-.2803.1152-.0713.0771-.1069.1758-.1069.2979Z"/>
      <path class="cls-1" d="m6.4569,348.8527h.3013v.1211c.0581-.0605.1079-.1016.1489-.123.0439-.0225.0986-.0342.165-.0342.147,0,.2637.0645.3496.1934.0947-.1289.2227-.1934.3848-.1934.2939,0,.4409.1787.4409.5352v.8066h-.3032v-.7246c0-.126-.0151-.2139-.0454-.2656-.0312-.0527-.0825-.0791-.1543-.0791-.083,0-.1436.0312-.1812.0938-.0381.0625-.0571.1631-.0571.3018v.6738h-.3027v-.7207c0-.2324-.0674-.3486-.2012-.3486-.085,0-.147.0312-.1855.0947-.0391.0635-.0586.1641-.0586.3008v.6738h-.3013v-1.3057Z"/>
      <path class="cls-1" d="m8.6664,348.8527h.3013v.1211c.0581-.0605.1079-.1016.1489-.123.0439-.0225.0986-.0342.165-.0342.147,0,.2637.0645.3496.1934.0947-.1289.2227-.1934.3848-.1934.2939,0,.4409.1787.4409.5352v.8066h-.3032v-.7246c0-.126-.0151-.2139-.0454-.2656-.0312-.0527-.0825-.0791-.1543-.0791-.083,0-.1436.0312-.1812.0938-.0381.0625-.0571.1631-.0571.3018v.6738h-.3027v-.7207c0-.2324-.0674-.3486-.2012-.3486-.085,0-.147.0312-.1855.0947-.0391.0635-.0586.1641-.0586.3008v.6738h-.3013v-1.3057Z"/>
      <path class="cls-1" d="m11.1772,348.8527v.749c0,.2168.0854.3252.2563.3252.1704,0,.2559-.1084.2559-.3252v-.749h.3013v.7559c0,.1045-.0127.1953-.0386.2715-.0249.0674-.0684.1289-.1299.1836-.1021.0879-.2314.1318-.3887.1318-.1567,0-.2856-.0439-.3877-.1318-.0625-.0547-.1064-.1162-.1323-.1836-.0254-.0615-.0376-.1514-.0376-.2715v-.7559h.3013Z"/>
      <path class="cls-1" d="m12.4101,348.8527h.3027v.1211c.1055-.1045.2241-.1572.3564-.1572.1519,0,.2705.0479.3555.1436.0732.0811.1099.2139.1099.3984v.7998h-.3032v-.7295c0-.1279-.0176-.2168-.0537-.2666-.0347-.0498-.0981-.0752-.1899-.0752-.1001,0-.1714.0332-.2134.0996-.041.0654-.0615.1787-.0615.3418v.6299h-.3027v-1.3057Z"/>
      <path class="cls-1" d="m13.9076,348.3107c0-.0527.0195-.0986.0576-.1367.0386-.0391.0845-.0576.1382-.0576.0547,0,.1011.0186.1396.0576.0381.0371.0576.083.0576.1377s-.0195.1006-.0576.1396c-.0376.0381-.084.0576-.1382.0576-.0547,0-.1011-.0195-.1396-.0576-.0381-.0391-.0576-.0859-.0576-.1406Zm.3472.542v1.3057h-.3013v-1.3057h.3013Z"/>
      <path class="cls-1" d="m14.9867,349.1349v1.0234h-.3018v-1.0234h-.1289v-.2822h.1289v-.4785h.3018v.4785h.2344v.2822h-.2344Z"/>
      <path class="cls-1" d="m15.8754,349.9161l-.5869-1.0635h.3501l.3989.751.373-.751h.3403l-1.04,2.0156h-.3447l.5093-.9521Z"/>
      <path class="cls-1" d="m18.6381,349.0753l-.249.1328c-.0396-.0801-.0884-.1211-.146-.1211-.0278,0-.0518.0098-.0713.0283-.0195.0176-.0293.041-.0293.0703,0,.0498.0581.0996.1743.1484.1597.0684.2676.1318.3228.1904.0552.0576.083.1357.083.2344,0,.126-.0464.2314-.1392.3164-.0903.0801-.1992.1201-.3271.1201-.2188,0-.374-.1064-.4648-.3203l.2573-.1191c.0356.0625.063.1025.0815.1191.0366.0342.0806.0518.1313.0518.1021,0,.1528-.0469.1528-.1396,0-.0537-.0396-.1035-.1182-.1504l-.0908-.0439c-.0308-.0146-.0615-.0293-.0928-.0439-.0874-.043-.1489-.0859-.1846-.1289-.0459-.0547-.0684-.125-.0684-.2109,0-.1133.0386-.207.1162-.2812.0796-.0742.1763-.1113.2896-.1113.167,0,.2915.0869.3726.2588Z"/>
      <path class="cls-1" d="m19.4433,349.9161l-.5869-1.0635h.3501l.3989.751.373-.751h.3403l-1.04,2.0156h-.3447l.5093-.9521Z"/>
      <path class="cls-1" d="m21.3202,349.0753l-.249.1328c-.0396-.0801-.0884-.1211-.146-.1211-.0278,0-.0518.0098-.0713.0283-.0195.0176-.0293.041-.0293.0703,0,.0498.0581.0996.1743.1484.1597.0684.2676.1318.3228.1904.0552.0576.083.1357.083.2344,0,.126-.0464.2314-.1392.3164-.0903.0801-.1992.1201-.3271.1201-.2188,0-.374-.1064-.4648-.3203l.2573-.1191c.0356.0625.063.1025.0815.1191.0366.0342.0806.0518.1313.0518.1021,0,.1528-.0469.1528-.1396,0-.0537-.0396-.1035-.1182-.1504l-.0908-.0439c-.0308-.0146-.0615-.0293-.0928-.0439-.0874-.043-.1489-.0859-.1846-.1289-.0459-.0547-.0684-.125-.0684-.2109,0-.1133.0386-.207.1162-.2812.0796-.0742.1763-.1113.2896-.1113.167,0,.2915.0869.3726.2588Z"/>
      <path class="cls-1" d="m22.0253,349.1349v1.0234h-.3018v-1.0234h-.1289v-.2822h.1289v-.4785h.3018v.4785h.2344v.2822h-.2344Z"/>
      <path class="cls-1" d="m23.7157,349.5763h-.9351c.0078.1074.0425.1934.1045.2568.0615.0625.1406.0938.2368.0938.0752,0,.1372-.0186.1865-.0537.0483-.0361.103-.1025.165-.1982l.2544.1416c-.0396.0674-.0811.124-.1245.1719-.0439.0479-.0908.0879-.1406.1182-.0503.0312-.1045.0537-.1626.0674-.0581.0146-.1211.0215-.189.0215-.1943,0-.3511-.0625-.4688-.1875-.1182-.126-.1772-.293-.1772-.501,0-.2061.0576-.373.1719-.501.1152-.126.2681-.1895.4585-.1895.1919,0,.3438.0615.4556.1836.1108.1221.166.29.166.5059l-.0015.0703Zm-.3096-.2461c-.042-.1611-.1431-.2412-.3042-.2412-.0366,0-.0708.0059-.103.0166s-.0615.0273-.0879.0479c-.0264.0215-.0488.0469-.0674.0762-.019.0293-.0332.0625-.043.1006h.6055Z"/>
      <path class="cls-1" d="m24.0839,348.8527h.3013v.1211c.0581-.0605.1079-.1016.1489-.123.0439-.0225.0986-.0342.1655-.0342.1465,0,.2637.0645.3496.1934.0947-.1289.2227-.1934.3848-.1934.2939,0,.4404.1787.4404.5352v.8066h-.3027v-.7246c0-.126-.0156-.2139-.0449-.2656-.0312-.0527-.083-.0791-.1543-.0791-.084,0-.1445.0312-.1816.0938-.0381.0625-.0566.1631-.0566.3018v.6738h-.3037v-.7207c0-.2324-.0674-.3486-.2012-.3486-.085,0-.147.0312-.1855.0947-.0391.0635-.0586.1641-.0586.3008v.6738h-.3013v-1.3057Z"/>
      <path class="cls-1" d="m27.0531,349.0753l-.25.1328c-.0391-.0801-.0879-.1211-.1455-.1211-.0283,0-.0518.0098-.0713.0283-.0195.0176-.0293.041-.0293.0703,0,.0498.0576.0996.1738.1484.1602.0684.2676.1318.3232.1904.0557.0576.083.1357.083.2344,0,.126-.0459.2314-.1396.3164-.0898.0801-.1992.1201-.3262.1201-.2197,0-.374-.1064-.4658-.3203l.2578-.1191c.0352.0625.0625.1025.082.1191.0361.0342.0801.0518.1309.0518.1016,0,.1523-.0469.1523-.1396,0-.0537-.0391-.1035-.1172-.1504-.0303-.0146-.0615-.0293-.0918-.0439s-.0605-.0293-.0918-.0439c-.0879-.043-.1494-.0859-.1855-.1289-.0449-.0547-.0684-.125-.0684-.2109,0-.1133.0391-.207.1172-.2812.0791-.0742.1758-.1113.2891-.1113.167,0,.291.0869.373.2588Z"/>
    </g>
  </g>
</svg>