M48
; DRILL file {KiCad 7.0.8} date 2024 September 22, Sunday 21:59:17
; FORMAT={-:-/ absolute / metric / decimal}
; #@! TF.CreationDate,2024-09-22T21:59:17-04:00
; #@! TF.GenerationSoftware,Kicad,Pcbnew,7.0.8
; #@! TF.FileFunction,Plated,1,2,PTH
FMAT,2
METRIC
; #@! TA.AperFunction,Plated,PTH,ViaDrill
T1C0.400
; #@! TA.AperFunction,Plated,PTH,ComponentDrill
T2C1.000
; #@! TA.AperFunction,Plated,PTH,ComponentDrill
T3C1.016
%
G90
G05
T1
X106.55Y-163.93
X106.57Y-159.49
X108.23Y-161.55
X109.81Y-166.44
X117.02Y-177.48
X120.14Y-124.51
X130.44Y-166.47
X135.2Y-187.24
X138.82Y-169.28
T2
X115.07Y-112.15
X115.07Y-114.69
X115.07Y-172.18
X115.07Y-174.72
X117.61Y-112.15
X117.61Y-114.69
X117.61Y-172.18
X117.61Y-174.72
X120.15Y-112.15
X120.15Y-114.69
X120.15Y-172.18
X120.15Y-174.72
X122.69Y-112.15
X122.69Y-114.69
X122.69Y-172.18
X122.69Y-174.72
X125.23Y-112.15
X125.23Y-114.69
X125.23Y-172.18
X125.23Y-174.72
T3
X102.21Y-121.67
X102.21Y-124.21
X104.75Y-121.416
X104.75Y-123.956
X104.893Y-175.273
X104.893Y-180.353
X105.147Y-172.733
X105.147Y-177.813
X105.147Y-182.893
X107.29Y-121.67
X107.29Y-124.21
X107.433Y-175.273
X107.433Y-180.353
X107.687Y-172.733
X107.687Y-177.813
X107.687Y-182.893
X109.83Y-121.416
X109.83Y-123.956
X112.37Y-121.67
X112.37Y-124.21
X118.753Y-200.33
X118.753Y-205.41
X118.753Y-210.49
X119.007Y-202.87
X119.007Y-207.95
X121.293Y-200.33
X121.293Y-205.41
X121.293Y-210.49
X121.547Y-202.87
X121.547Y-207.95
X128.21Y-121.67
X128.21Y-124.21
X130.75Y-121.416
X130.75Y-123.956
X132.893Y-175.273
X132.893Y-180.353
X133.147Y-172.733
X133.147Y-177.813
X133.147Y-182.893
X133.29Y-121.67
X133.29Y-124.21
X135.433Y-175.273
X135.433Y-180.353
X135.687Y-172.733
X135.687Y-177.813
X135.687Y-182.893
X135.83Y-121.416
X135.83Y-123.956
X138.37Y-121.67
X138.37Y-124.21
T0
M30
