G04 #@! TF.GenerationSoftware,KiCad,Pcbnew,7.0.8*
G04 #@! TF.CreationDate,2024-09-22T21:59:12-04:00*
G04 #@! TF.ProjectId,lichen-bifocals-submodule-power-board,6c696368-656e-42d6-9269-666f63616c73,rev?*
G04 #@! TF.SameCoordinates,Original*
G04 #@! TF.FileFunction,Soldermask,Bot*
G04 #@! TF.FilePolarity,Negative*
%FSLAX46Y46*%
G04 Gerber Fmt 4.6, Leading zero omitted, Abs format (unit mm)*
G04 Created by KiCad (PCBNEW 7.0.8) date 2024-09-22 21:59:12*
%MOMM*%
%LPD*%
G01*
G04 APERTURE LIST*
%ADD10C,2.200000*%
%ADD11C,2.032000*%
%ADD12O,1.700000X1.700000*%
G04 APERTURE END LIST*
D10*
X113223000Y-203077000D03*
D11*
X135687000Y-182893000D03*
X135433000Y-180353000D03*
X135687000Y-177813000D03*
X135433000Y-175273000D03*
X135687000Y-172733000D03*
X133147000Y-172733000D03*
X132893000Y-175273000D03*
X133147000Y-177813000D03*
X132893000Y-180353000D03*
X133147000Y-182893000D03*
X138370000Y-121670000D03*
X135830000Y-121416000D03*
X133290000Y-121670000D03*
X130750000Y-121416000D03*
X128210000Y-121670000D03*
X128210000Y-124210000D03*
X130750000Y-123956000D03*
X133290000Y-124210000D03*
X135830000Y-123956000D03*
X138370000Y-124210000D03*
X112370000Y-121670000D03*
X109830000Y-121416000D03*
X107290000Y-121670000D03*
X104750000Y-121416000D03*
X102210000Y-121670000D03*
X102210000Y-124210000D03*
X104750000Y-123956000D03*
X107290000Y-124210000D03*
X109830000Y-123956000D03*
X112370000Y-124210000D03*
X107687000Y-182893000D03*
X107433000Y-180353000D03*
X107687000Y-177813000D03*
X107433000Y-175273000D03*
X107687000Y-172733000D03*
X105147000Y-172733000D03*
X104893000Y-175273000D03*
X105147000Y-177813000D03*
X104893000Y-180353000D03*
X105147000Y-182893000D03*
D10*
X127077000Y-203077000D03*
D11*
X119007000Y-202870000D03*
X121547000Y-202870000D03*
X118753000Y-205410000D03*
X121293000Y-205410000D03*
X119007000Y-207950000D03*
X121547000Y-207950000D03*
X118753000Y-210490000D03*
X121293000Y-210490000D03*
X118753000Y-200330000D03*
X121293000Y-200330000D03*
D12*
X125230000Y-174720000D03*
X125230000Y-172180000D03*
X122690000Y-174720000D03*
X122690000Y-172180000D03*
X120150000Y-174720000D03*
X120150000Y-172180000D03*
X117610000Y-174720000D03*
X117610000Y-172180000D03*
X115070000Y-174720000D03*
X115070000Y-172180000D03*
X125230000Y-114690000D03*
X125230000Y-112150000D03*
X122690000Y-114690000D03*
X122690000Y-112150000D03*
X120150000Y-114690000D03*
X120150000Y-112150000D03*
X117610000Y-114690000D03*
X117610000Y-112150000D03*
X115070000Y-114690000D03*
X115070000Y-112150000D03*
M02*
