%TF.GenerationSoftware,KiCad,Pcbnew,7.0.8*%
%TF.CreationDate,2024-09-22T21:59:18-04:00*%
%TF.ProjectId,lichen-bifocals-submodule-power-board,6c696368-656e-42d6-9269-666f63616c73,rev?*%
%TF.SameCoordinates,Original*%
%TF.FileFunction,Drillmap*%
%TF.FilePolarity,Positive*%
%FSLAX45Y45*%
G04 Gerber Fmt 4.5, Leading zero omitted, Abs format (unit mm)*
G04 Created by KiCad (PCBNEW 7.0.8) date 2024-09-22 21:59:18*
%MOMM*%
%LPD*%
G01*
G04 APERTURE LIST*
%ADD10C,0.100000*%
%ADD11C,0.200000*%
%ADD12C,0.220000*%
G04 APERTURE END LIST*
D10*
X10000000Y-11025000D02*
X14030000Y-11025000D01*
X14030000Y-21825000D01*
X10000000Y-21825000D01*
X10000000Y-11025000D01*
D11*
D12*
X11212300Y-20197700D02*
X11432300Y-20417700D01*
X11432300Y-20197700D02*
X11212300Y-20417700D01*
X12597700Y-20197700D02*
X12817700Y-20417700D01*
X12817700Y-20197700D02*
X12597700Y-20417700D01*
D11*
X10255777Y-22141484D02*
X10255777Y-21941484D01*
X10255777Y-21941484D02*
X10303396Y-21941484D01*
X10303396Y-21941484D02*
X10331967Y-21951008D01*
X10331967Y-21951008D02*
X10351015Y-21970055D01*
X10351015Y-21970055D02*
X10360539Y-21989103D01*
X10360539Y-21989103D02*
X10370063Y-22027198D01*
X10370063Y-22027198D02*
X10370063Y-22055770D01*
X10370063Y-22055770D02*
X10360539Y-22093865D01*
X10360539Y-22093865D02*
X10351015Y-22112912D01*
X10351015Y-22112912D02*
X10331967Y-22131960D01*
X10331967Y-22131960D02*
X10303396Y-22141484D01*
X10303396Y-22141484D02*
X10255777Y-22141484D01*
X10455777Y-22141484D02*
X10455777Y-22008150D01*
X10455777Y-22046246D02*
X10465301Y-22027198D01*
X10465301Y-22027198D02*
X10474824Y-22017674D01*
X10474824Y-22017674D02*
X10493872Y-22008150D01*
X10493872Y-22008150D02*
X10512920Y-22008150D01*
X10579586Y-22141484D02*
X10579586Y-22008150D01*
X10579586Y-21941484D02*
X10570063Y-21951008D01*
X10570063Y-21951008D02*
X10579586Y-21960531D01*
X10579586Y-21960531D02*
X10589110Y-21951008D01*
X10589110Y-21951008D02*
X10579586Y-21941484D01*
X10579586Y-21941484D02*
X10579586Y-21960531D01*
X10703396Y-22141484D02*
X10684348Y-22131960D01*
X10684348Y-22131960D02*
X10674824Y-22112912D01*
X10674824Y-22112912D02*
X10674824Y-21941484D01*
X10808158Y-22141484D02*
X10789110Y-22131960D01*
X10789110Y-22131960D02*
X10779586Y-22112912D01*
X10779586Y-22112912D02*
X10779586Y-21941484D01*
X11036729Y-22141484D02*
X11036729Y-21941484D01*
X11036729Y-21941484D02*
X11103396Y-22084341D01*
X11103396Y-22084341D02*
X11170063Y-21941484D01*
X11170063Y-21941484D02*
X11170063Y-22141484D01*
X11351015Y-22141484D02*
X11351015Y-22036722D01*
X11351015Y-22036722D02*
X11341491Y-22017674D01*
X11341491Y-22017674D02*
X11322443Y-22008150D01*
X11322443Y-22008150D02*
X11284348Y-22008150D01*
X11284348Y-22008150D02*
X11265301Y-22017674D01*
X11351015Y-22131960D02*
X11331967Y-22141484D01*
X11331967Y-22141484D02*
X11284348Y-22141484D01*
X11284348Y-22141484D02*
X11265301Y-22131960D01*
X11265301Y-22131960D02*
X11255777Y-22112912D01*
X11255777Y-22112912D02*
X11255777Y-22093865D01*
X11255777Y-22093865D02*
X11265301Y-22074817D01*
X11265301Y-22074817D02*
X11284348Y-22065293D01*
X11284348Y-22065293D02*
X11331967Y-22065293D01*
X11331967Y-22065293D02*
X11351015Y-22055770D01*
X11446253Y-22008150D02*
X11446253Y-22208150D01*
X11446253Y-22017674D02*
X11465301Y-22008150D01*
X11465301Y-22008150D02*
X11503396Y-22008150D01*
X11503396Y-22008150D02*
X11522443Y-22017674D01*
X11522443Y-22017674D02*
X11531967Y-22027198D01*
X11531967Y-22027198D02*
X11541491Y-22046246D01*
X11541491Y-22046246D02*
X11541491Y-22103389D01*
X11541491Y-22103389D02*
X11531967Y-22122436D01*
X11531967Y-22122436D02*
X11522443Y-22131960D01*
X11522443Y-22131960D02*
X11503396Y-22141484D01*
X11503396Y-22141484D02*
X11465301Y-22141484D01*
X11465301Y-22141484D02*
X11446253Y-22131960D01*
X11627205Y-22122436D02*
X11636729Y-22131960D01*
X11636729Y-22131960D02*
X11627205Y-22141484D01*
X11627205Y-22141484D02*
X11617682Y-22131960D01*
X11617682Y-22131960D02*
X11627205Y-22122436D01*
X11627205Y-22122436D02*
X11627205Y-22141484D01*
X11627205Y-22017674D02*
X11636729Y-22027198D01*
X11636729Y-22027198D02*
X11627205Y-22036722D01*
X11627205Y-22036722D02*
X11617682Y-22027198D01*
X11617682Y-22027198D02*
X11627205Y-22017674D01*
X11627205Y-22017674D02*
X11627205Y-22036722D01*
X9795000Y-22370000D02*
X9995000Y-22570000D01*
X9995000Y-22370000D02*
X9795000Y-22570000D01*
X10246253Y-22380531D02*
X10255777Y-22371008D01*
X10255777Y-22371008D02*
X10274824Y-22361484D01*
X10274824Y-22361484D02*
X10322444Y-22361484D01*
X10322444Y-22361484D02*
X10341491Y-22371008D01*
X10341491Y-22371008D02*
X10351015Y-22380531D01*
X10351015Y-22380531D02*
X10360539Y-22399579D01*
X10360539Y-22399579D02*
X10360539Y-22418627D01*
X10360539Y-22418627D02*
X10351015Y-22447198D01*
X10351015Y-22447198D02*
X10236729Y-22561484D01*
X10236729Y-22561484D02*
X10360539Y-22561484D01*
X10446253Y-22542436D02*
X10455777Y-22551960D01*
X10455777Y-22551960D02*
X10446253Y-22561484D01*
X10446253Y-22561484D02*
X10436729Y-22551960D01*
X10436729Y-22551960D02*
X10446253Y-22542436D01*
X10446253Y-22542436D02*
X10446253Y-22561484D01*
X10531967Y-22380531D02*
X10541491Y-22371008D01*
X10541491Y-22371008D02*
X10560539Y-22361484D01*
X10560539Y-22361484D02*
X10608158Y-22361484D01*
X10608158Y-22361484D02*
X10627205Y-22371008D01*
X10627205Y-22371008D02*
X10636729Y-22380531D01*
X10636729Y-22380531D02*
X10646253Y-22399579D01*
X10646253Y-22399579D02*
X10646253Y-22418627D01*
X10646253Y-22418627D02*
X10636729Y-22447198D01*
X10636729Y-22447198D02*
X10522444Y-22561484D01*
X10522444Y-22561484D02*
X10646253Y-22561484D01*
X10770063Y-22361484D02*
X10789110Y-22361484D01*
X10789110Y-22361484D02*
X10808158Y-22371008D01*
X10808158Y-22371008D02*
X10817682Y-22380531D01*
X10817682Y-22380531D02*
X10827205Y-22399579D01*
X10827205Y-22399579D02*
X10836729Y-22437674D01*
X10836729Y-22437674D02*
X10836729Y-22485293D01*
X10836729Y-22485293D02*
X10827205Y-22523388D01*
X10827205Y-22523388D02*
X10817682Y-22542436D01*
X10817682Y-22542436D02*
X10808158Y-22551960D01*
X10808158Y-22551960D02*
X10789110Y-22561484D01*
X10789110Y-22561484D02*
X10770063Y-22561484D01*
X10770063Y-22561484D02*
X10751015Y-22551960D01*
X10751015Y-22551960D02*
X10741491Y-22542436D01*
X10741491Y-22542436D02*
X10731967Y-22523388D01*
X10731967Y-22523388D02*
X10722444Y-22485293D01*
X10722444Y-22485293D02*
X10722444Y-22437674D01*
X10722444Y-22437674D02*
X10731967Y-22399579D01*
X10731967Y-22399579D02*
X10741491Y-22380531D01*
X10741491Y-22380531D02*
X10751015Y-22371008D01*
X10751015Y-22371008D02*
X10770063Y-22361484D01*
X10960539Y-22361484D02*
X10979586Y-22361484D01*
X10979586Y-22361484D02*
X10998634Y-22371008D01*
X10998634Y-22371008D02*
X11008158Y-22380531D01*
X11008158Y-22380531D02*
X11017682Y-22399579D01*
X11017682Y-22399579D02*
X11027205Y-22437674D01*
X11027205Y-22437674D02*
X11027205Y-22485293D01*
X11027205Y-22485293D02*
X11017682Y-22523388D01*
X11017682Y-22523388D02*
X11008158Y-22542436D01*
X11008158Y-22542436D02*
X10998634Y-22551960D01*
X10998634Y-22551960D02*
X10979586Y-22561484D01*
X10979586Y-22561484D02*
X10960539Y-22561484D01*
X10960539Y-22561484D02*
X10941491Y-22551960D01*
X10941491Y-22551960D02*
X10931967Y-22542436D01*
X10931967Y-22542436D02*
X10922444Y-22523388D01*
X10922444Y-22523388D02*
X10912920Y-22485293D01*
X10912920Y-22485293D02*
X10912920Y-22437674D01*
X10912920Y-22437674D02*
X10922444Y-22399579D01*
X10922444Y-22399579D02*
X10931967Y-22380531D01*
X10931967Y-22380531D02*
X10941491Y-22371008D01*
X10941491Y-22371008D02*
X10960539Y-22361484D01*
X11112920Y-22561484D02*
X11112920Y-22428150D01*
X11112920Y-22447198D02*
X11122444Y-22437674D01*
X11122444Y-22437674D02*
X11141491Y-22428150D01*
X11141491Y-22428150D02*
X11170063Y-22428150D01*
X11170063Y-22428150D02*
X11189110Y-22437674D01*
X11189110Y-22437674D02*
X11198634Y-22456722D01*
X11198634Y-22456722D02*
X11198634Y-22561484D01*
X11198634Y-22456722D02*
X11208158Y-22437674D01*
X11208158Y-22437674D02*
X11227205Y-22428150D01*
X11227205Y-22428150D02*
X11255777Y-22428150D01*
X11255777Y-22428150D02*
X11274824Y-22437674D01*
X11274824Y-22437674D02*
X11284348Y-22456722D01*
X11284348Y-22456722D02*
X11284348Y-22561484D01*
X11379586Y-22561484D02*
X11379586Y-22428150D01*
X11379586Y-22447198D02*
X11389110Y-22437674D01*
X11389110Y-22437674D02*
X11408158Y-22428150D01*
X11408158Y-22428150D02*
X11436729Y-22428150D01*
X11436729Y-22428150D02*
X11455777Y-22437674D01*
X11455777Y-22437674D02*
X11465301Y-22456722D01*
X11465301Y-22456722D02*
X11465301Y-22561484D01*
X11465301Y-22456722D02*
X11474824Y-22437674D01*
X11474824Y-22437674D02*
X11493872Y-22428150D01*
X11493872Y-22428150D02*
X11522443Y-22428150D01*
X11522443Y-22428150D02*
X11541491Y-22437674D01*
X11541491Y-22437674D02*
X11551015Y-22456722D01*
X11551015Y-22456722D02*
X11551015Y-22561484D01*
X11941491Y-22351960D02*
X11770063Y-22609103D01*
X12198634Y-22361484D02*
X12217682Y-22361484D01*
X12217682Y-22361484D02*
X12236729Y-22371008D01*
X12236729Y-22371008D02*
X12246253Y-22380531D01*
X12246253Y-22380531D02*
X12255777Y-22399579D01*
X12255777Y-22399579D02*
X12265301Y-22437674D01*
X12265301Y-22437674D02*
X12265301Y-22485293D01*
X12265301Y-22485293D02*
X12255777Y-22523388D01*
X12255777Y-22523388D02*
X12246253Y-22542436D01*
X12246253Y-22542436D02*
X12236729Y-22551960D01*
X12236729Y-22551960D02*
X12217682Y-22561484D01*
X12217682Y-22561484D02*
X12198634Y-22561484D01*
X12198634Y-22561484D02*
X12179586Y-22551960D01*
X12179586Y-22551960D02*
X12170063Y-22542436D01*
X12170063Y-22542436D02*
X12160539Y-22523388D01*
X12160539Y-22523388D02*
X12151015Y-22485293D01*
X12151015Y-22485293D02*
X12151015Y-22437674D01*
X12151015Y-22437674D02*
X12160539Y-22399579D01*
X12160539Y-22399579D02*
X12170063Y-22380531D01*
X12170063Y-22380531D02*
X12179586Y-22371008D01*
X12179586Y-22371008D02*
X12198634Y-22361484D01*
X12351015Y-22542436D02*
X12360539Y-22551960D01*
X12360539Y-22551960D02*
X12351015Y-22561484D01*
X12351015Y-22561484D02*
X12341491Y-22551960D01*
X12341491Y-22551960D02*
X12351015Y-22542436D01*
X12351015Y-22542436D02*
X12351015Y-22561484D01*
X12484348Y-22361484D02*
X12503396Y-22361484D01*
X12503396Y-22361484D02*
X12522444Y-22371008D01*
X12522444Y-22371008D02*
X12531967Y-22380531D01*
X12531967Y-22380531D02*
X12541491Y-22399579D01*
X12541491Y-22399579D02*
X12551015Y-22437674D01*
X12551015Y-22437674D02*
X12551015Y-22485293D01*
X12551015Y-22485293D02*
X12541491Y-22523388D01*
X12541491Y-22523388D02*
X12531967Y-22542436D01*
X12531967Y-22542436D02*
X12522444Y-22551960D01*
X12522444Y-22551960D02*
X12503396Y-22561484D01*
X12503396Y-22561484D02*
X12484348Y-22561484D01*
X12484348Y-22561484D02*
X12465301Y-22551960D01*
X12465301Y-22551960D02*
X12455777Y-22542436D01*
X12455777Y-22542436D02*
X12446253Y-22523388D01*
X12446253Y-22523388D02*
X12436729Y-22485293D01*
X12436729Y-22485293D02*
X12436729Y-22437674D01*
X12436729Y-22437674D02*
X12446253Y-22399579D01*
X12446253Y-22399579D02*
X12455777Y-22380531D01*
X12455777Y-22380531D02*
X12465301Y-22371008D01*
X12465301Y-22371008D02*
X12484348Y-22361484D01*
X12665301Y-22447198D02*
X12646253Y-22437674D01*
X12646253Y-22437674D02*
X12636729Y-22428150D01*
X12636729Y-22428150D02*
X12627206Y-22409103D01*
X12627206Y-22409103D02*
X12627206Y-22399579D01*
X12627206Y-22399579D02*
X12636729Y-22380531D01*
X12636729Y-22380531D02*
X12646253Y-22371008D01*
X12646253Y-22371008D02*
X12665301Y-22361484D01*
X12665301Y-22361484D02*
X12703396Y-22361484D01*
X12703396Y-22361484D02*
X12722444Y-22371008D01*
X12722444Y-22371008D02*
X12731967Y-22380531D01*
X12731967Y-22380531D02*
X12741491Y-22399579D01*
X12741491Y-22399579D02*
X12741491Y-22409103D01*
X12741491Y-22409103D02*
X12731967Y-22428150D01*
X12731967Y-22428150D02*
X12722444Y-22437674D01*
X12722444Y-22437674D02*
X12703396Y-22447198D01*
X12703396Y-22447198D02*
X12665301Y-22447198D01*
X12665301Y-22447198D02*
X12646253Y-22456722D01*
X12646253Y-22456722D02*
X12636729Y-22466246D01*
X12636729Y-22466246D02*
X12627206Y-22485293D01*
X12627206Y-22485293D02*
X12627206Y-22523388D01*
X12627206Y-22523388D02*
X12636729Y-22542436D01*
X12636729Y-22542436D02*
X12646253Y-22551960D01*
X12646253Y-22551960D02*
X12665301Y-22561484D01*
X12665301Y-22561484D02*
X12703396Y-22561484D01*
X12703396Y-22561484D02*
X12722444Y-22551960D01*
X12722444Y-22551960D02*
X12731967Y-22542436D01*
X12731967Y-22542436D02*
X12741491Y-22523388D01*
X12741491Y-22523388D02*
X12741491Y-22485293D01*
X12741491Y-22485293D02*
X12731967Y-22466246D01*
X12731967Y-22466246D02*
X12722444Y-22456722D01*
X12722444Y-22456722D02*
X12703396Y-22447198D01*
X12912920Y-22361484D02*
X12874825Y-22361484D01*
X12874825Y-22361484D02*
X12855777Y-22371008D01*
X12855777Y-22371008D02*
X12846253Y-22380531D01*
X12846253Y-22380531D02*
X12827206Y-22409103D01*
X12827206Y-22409103D02*
X12817682Y-22447198D01*
X12817682Y-22447198D02*
X12817682Y-22523388D01*
X12817682Y-22523388D02*
X12827206Y-22542436D01*
X12827206Y-22542436D02*
X12836729Y-22551960D01*
X12836729Y-22551960D02*
X12855777Y-22561484D01*
X12855777Y-22561484D02*
X12893872Y-22561484D01*
X12893872Y-22561484D02*
X12912920Y-22551960D01*
X12912920Y-22551960D02*
X12922444Y-22542436D01*
X12922444Y-22542436D02*
X12931967Y-22523388D01*
X12931967Y-22523388D02*
X12931967Y-22475769D01*
X12931967Y-22475769D02*
X12922444Y-22456722D01*
X12922444Y-22456722D02*
X12912920Y-22447198D01*
X12912920Y-22447198D02*
X12893872Y-22437674D01*
X12893872Y-22437674D02*
X12855777Y-22437674D01*
X12855777Y-22437674D02*
X12836729Y-22447198D01*
X12836729Y-22447198D02*
X12827206Y-22456722D01*
X12827206Y-22456722D02*
X12817682Y-22475769D01*
X13103396Y-22361484D02*
X13065301Y-22361484D01*
X13065301Y-22361484D02*
X13046253Y-22371008D01*
X13046253Y-22371008D02*
X13036729Y-22380531D01*
X13036729Y-22380531D02*
X13017682Y-22409103D01*
X13017682Y-22409103D02*
X13008158Y-22447198D01*
X13008158Y-22447198D02*
X13008158Y-22523388D01*
X13008158Y-22523388D02*
X13017682Y-22542436D01*
X13017682Y-22542436D02*
X13027206Y-22551960D01*
X13027206Y-22551960D02*
X13046253Y-22561484D01*
X13046253Y-22561484D02*
X13084348Y-22561484D01*
X13084348Y-22561484D02*
X13103396Y-22551960D01*
X13103396Y-22551960D02*
X13112920Y-22542436D01*
X13112920Y-22542436D02*
X13122444Y-22523388D01*
X13122444Y-22523388D02*
X13122444Y-22475769D01*
X13122444Y-22475769D02*
X13112920Y-22456722D01*
X13112920Y-22456722D02*
X13103396Y-22447198D01*
X13103396Y-22447198D02*
X13084348Y-22437674D01*
X13084348Y-22437674D02*
X13046253Y-22437674D01*
X13046253Y-22437674D02*
X13027206Y-22447198D01*
X13027206Y-22447198D02*
X13017682Y-22456722D01*
X13017682Y-22456722D02*
X13008158Y-22475769D01*
X13198634Y-22361484D02*
X13198634Y-22399579D01*
X13274825Y-22361484D02*
X13274825Y-22399579D01*
X13570063Y-22637674D02*
X13560539Y-22628150D01*
X13560539Y-22628150D02*
X13541491Y-22599579D01*
X13541491Y-22599579D02*
X13531968Y-22580531D01*
X13531968Y-22580531D02*
X13522444Y-22551960D01*
X13522444Y-22551960D02*
X13512920Y-22504341D01*
X13512920Y-22504341D02*
X13512920Y-22466246D01*
X13512920Y-22466246D02*
X13522444Y-22418627D01*
X13522444Y-22418627D02*
X13531968Y-22390055D01*
X13531968Y-22390055D02*
X13541491Y-22371008D01*
X13541491Y-22371008D02*
X13560539Y-22342436D01*
X13560539Y-22342436D02*
X13570063Y-22332912D01*
X13636729Y-22380531D02*
X13646253Y-22371008D01*
X13646253Y-22371008D02*
X13665301Y-22361484D01*
X13665301Y-22361484D02*
X13712920Y-22361484D01*
X13712920Y-22361484D02*
X13731968Y-22371008D01*
X13731968Y-22371008D02*
X13741491Y-22380531D01*
X13741491Y-22380531D02*
X13751015Y-22399579D01*
X13751015Y-22399579D02*
X13751015Y-22418627D01*
X13751015Y-22418627D02*
X13741491Y-22447198D01*
X13741491Y-22447198D02*
X13627206Y-22561484D01*
X13627206Y-22561484D02*
X13751015Y-22561484D01*
X13989110Y-22561484D02*
X13989110Y-22361484D01*
X14074825Y-22561484D02*
X14074825Y-22456722D01*
X14074825Y-22456722D02*
X14065301Y-22437674D01*
X14065301Y-22437674D02*
X14046253Y-22428150D01*
X14046253Y-22428150D02*
X14017682Y-22428150D01*
X14017682Y-22428150D02*
X13998634Y-22437674D01*
X13998634Y-22437674D02*
X13989110Y-22447198D01*
X14198634Y-22561484D02*
X14179587Y-22551960D01*
X14179587Y-22551960D02*
X14170063Y-22542436D01*
X14170063Y-22542436D02*
X14160539Y-22523388D01*
X14160539Y-22523388D02*
X14160539Y-22466246D01*
X14160539Y-22466246D02*
X14170063Y-22447198D01*
X14170063Y-22447198D02*
X14179587Y-22437674D01*
X14179587Y-22437674D02*
X14198634Y-22428150D01*
X14198634Y-22428150D02*
X14227206Y-22428150D01*
X14227206Y-22428150D02*
X14246253Y-22437674D01*
X14246253Y-22437674D02*
X14255777Y-22447198D01*
X14255777Y-22447198D02*
X14265301Y-22466246D01*
X14265301Y-22466246D02*
X14265301Y-22523388D01*
X14265301Y-22523388D02*
X14255777Y-22542436D01*
X14255777Y-22542436D02*
X14246253Y-22551960D01*
X14246253Y-22551960D02*
X14227206Y-22561484D01*
X14227206Y-22561484D02*
X14198634Y-22561484D01*
X14379587Y-22561484D02*
X14360539Y-22551960D01*
X14360539Y-22551960D02*
X14351015Y-22532912D01*
X14351015Y-22532912D02*
X14351015Y-22361484D01*
X14531968Y-22551960D02*
X14512920Y-22561484D01*
X14512920Y-22561484D02*
X14474825Y-22561484D01*
X14474825Y-22561484D02*
X14455777Y-22551960D01*
X14455777Y-22551960D02*
X14446253Y-22532912D01*
X14446253Y-22532912D02*
X14446253Y-22456722D01*
X14446253Y-22456722D02*
X14455777Y-22437674D01*
X14455777Y-22437674D02*
X14474825Y-22428150D01*
X14474825Y-22428150D02*
X14512920Y-22428150D01*
X14512920Y-22428150D02*
X14531968Y-22437674D01*
X14531968Y-22437674D02*
X14541491Y-22456722D01*
X14541491Y-22456722D02*
X14541491Y-22475769D01*
X14541491Y-22475769D02*
X14446253Y-22494817D01*
X14617682Y-22551960D02*
X14636730Y-22561484D01*
X14636730Y-22561484D02*
X14674825Y-22561484D01*
X14674825Y-22561484D02*
X14693872Y-22551960D01*
X14693872Y-22551960D02*
X14703396Y-22532912D01*
X14703396Y-22532912D02*
X14703396Y-22523388D01*
X14703396Y-22523388D02*
X14693872Y-22504341D01*
X14693872Y-22504341D02*
X14674825Y-22494817D01*
X14674825Y-22494817D02*
X14646253Y-22494817D01*
X14646253Y-22494817D02*
X14627206Y-22485293D01*
X14627206Y-22485293D02*
X14617682Y-22466246D01*
X14617682Y-22466246D02*
X14617682Y-22456722D01*
X14617682Y-22456722D02*
X14627206Y-22437674D01*
X14627206Y-22437674D02*
X14646253Y-22428150D01*
X14646253Y-22428150D02*
X14674825Y-22428150D01*
X14674825Y-22428150D02*
X14693872Y-22437674D01*
X14770063Y-22637674D02*
X14779587Y-22628150D01*
X14779587Y-22628150D02*
X14798634Y-22599579D01*
X14798634Y-22599579D02*
X14808158Y-22580531D01*
X14808158Y-22580531D02*
X14817682Y-22551960D01*
X14817682Y-22551960D02*
X14827206Y-22504341D01*
X14827206Y-22504341D02*
X14827206Y-22466246D01*
X14827206Y-22466246D02*
X14817682Y-22418627D01*
X14817682Y-22418627D02*
X14808158Y-22390055D01*
X14808158Y-22390055D02*
X14798634Y-22371008D01*
X14798634Y-22371008D02*
X14779587Y-22342436D01*
X14779587Y-22342436D02*
X14770063Y-22332912D01*
X15131968Y-22637674D02*
X15122444Y-22628150D01*
X15122444Y-22628150D02*
X15103396Y-22599579D01*
X15103396Y-22599579D02*
X15093872Y-22580531D01*
X15093872Y-22580531D02*
X15084349Y-22551960D01*
X15084349Y-22551960D02*
X15074825Y-22504341D01*
X15074825Y-22504341D02*
X15074825Y-22466246D01*
X15074825Y-22466246D02*
X15084349Y-22418627D01*
X15084349Y-22418627D02*
X15093872Y-22390055D01*
X15093872Y-22390055D02*
X15103396Y-22371008D01*
X15103396Y-22371008D02*
X15122444Y-22342436D01*
X15122444Y-22342436D02*
X15131968Y-22332912D01*
X15208158Y-22428150D02*
X15208158Y-22561484D01*
X15208158Y-22447198D02*
X15217682Y-22437674D01*
X15217682Y-22437674D02*
X15236730Y-22428150D01*
X15236730Y-22428150D02*
X15265301Y-22428150D01*
X15265301Y-22428150D02*
X15284349Y-22437674D01*
X15284349Y-22437674D02*
X15293872Y-22456722D01*
X15293872Y-22456722D02*
X15293872Y-22561484D01*
X15417682Y-22561484D02*
X15398634Y-22551960D01*
X15398634Y-22551960D02*
X15389111Y-22542436D01*
X15389111Y-22542436D02*
X15379587Y-22523388D01*
X15379587Y-22523388D02*
X15379587Y-22466246D01*
X15379587Y-22466246D02*
X15389111Y-22447198D01*
X15389111Y-22447198D02*
X15398634Y-22437674D01*
X15398634Y-22437674D02*
X15417682Y-22428150D01*
X15417682Y-22428150D02*
X15446253Y-22428150D01*
X15446253Y-22428150D02*
X15465301Y-22437674D01*
X15465301Y-22437674D02*
X15474825Y-22447198D01*
X15474825Y-22447198D02*
X15484349Y-22466246D01*
X15484349Y-22466246D02*
X15484349Y-22523388D01*
X15484349Y-22523388D02*
X15474825Y-22542436D01*
X15474825Y-22542436D02*
X15465301Y-22551960D01*
X15465301Y-22551960D02*
X15446253Y-22561484D01*
X15446253Y-22561484D02*
X15417682Y-22561484D01*
X15541492Y-22428150D02*
X15617682Y-22428150D01*
X15570063Y-22361484D02*
X15570063Y-22532912D01*
X15570063Y-22532912D02*
X15579587Y-22551960D01*
X15579587Y-22551960D02*
X15598634Y-22561484D01*
X15598634Y-22561484D02*
X15617682Y-22561484D01*
X15836730Y-22428150D02*
X15836730Y-22628150D01*
X15836730Y-22437674D02*
X15855777Y-22428150D01*
X15855777Y-22428150D02*
X15893873Y-22428150D01*
X15893873Y-22428150D02*
X15912920Y-22437674D01*
X15912920Y-22437674D02*
X15922444Y-22447198D01*
X15922444Y-22447198D02*
X15931968Y-22466246D01*
X15931968Y-22466246D02*
X15931968Y-22523388D01*
X15931968Y-22523388D02*
X15922444Y-22542436D01*
X15922444Y-22542436D02*
X15912920Y-22551960D01*
X15912920Y-22551960D02*
X15893873Y-22561484D01*
X15893873Y-22561484D02*
X15855777Y-22561484D01*
X15855777Y-22561484D02*
X15836730Y-22551960D01*
X16046253Y-22561484D02*
X16027206Y-22551960D01*
X16027206Y-22551960D02*
X16017682Y-22532912D01*
X16017682Y-22532912D02*
X16017682Y-22361484D01*
X16208158Y-22561484D02*
X16208158Y-22456722D01*
X16208158Y-22456722D02*
X16198634Y-22437674D01*
X16198634Y-22437674D02*
X16179587Y-22428150D01*
X16179587Y-22428150D02*
X16141492Y-22428150D01*
X16141492Y-22428150D02*
X16122444Y-22437674D01*
X16208158Y-22551960D02*
X16189111Y-22561484D01*
X16189111Y-22561484D02*
X16141492Y-22561484D01*
X16141492Y-22561484D02*
X16122444Y-22551960D01*
X16122444Y-22551960D02*
X16112920Y-22532912D01*
X16112920Y-22532912D02*
X16112920Y-22513865D01*
X16112920Y-22513865D02*
X16122444Y-22494817D01*
X16122444Y-22494817D02*
X16141492Y-22485293D01*
X16141492Y-22485293D02*
X16189111Y-22485293D01*
X16189111Y-22485293D02*
X16208158Y-22475769D01*
X16274825Y-22428150D02*
X16351015Y-22428150D01*
X16303396Y-22361484D02*
X16303396Y-22532912D01*
X16303396Y-22532912D02*
X16312920Y-22551960D01*
X16312920Y-22551960D02*
X16331968Y-22561484D01*
X16331968Y-22561484D02*
X16351015Y-22561484D01*
X16493873Y-22551960D02*
X16474825Y-22561484D01*
X16474825Y-22561484D02*
X16436730Y-22561484D01*
X16436730Y-22561484D02*
X16417682Y-22551960D01*
X16417682Y-22551960D02*
X16408158Y-22532912D01*
X16408158Y-22532912D02*
X16408158Y-22456722D01*
X16408158Y-22456722D02*
X16417682Y-22437674D01*
X16417682Y-22437674D02*
X16436730Y-22428150D01*
X16436730Y-22428150D02*
X16474825Y-22428150D01*
X16474825Y-22428150D02*
X16493873Y-22437674D01*
X16493873Y-22437674D02*
X16503396Y-22456722D01*
X16503396Y-22456722D02*
X16503396Y-22475769D01*
X16503396Y-22475769D02*
X16408158Y-22494817D01*
X16674825Y-22561484D02*
X16674825Y-22361484D01*
X16674825Y-22551960D02*
X16655777Y-22561484D01*
X16655777Y-22561484D02*
X16617682Y-22561484D01*
X16617682Y-22561484D02*
X16598634Y-22551960D01*
X16598634Y-22551960D02*
X16589111Y-22542436D01*
X16589111Y-22542436D02*
X16579587Y-22523388D01*
X16579587Y-22523388D02*
X16579587Y-22466246D01*
X16579587Y-22466246D02*
X16589111Y-22447198D01*
X16589111Y-22447198D02*
X16598634Y-22437674D01*
X16598634Y-22437674D02*
X16617682Y-22428150D01*
X16617682Y-22428150D02*
X16655777Y-22428150D01*
X16655777Y-22428150D02*
X16674825Y-22437674D01*
X16751015Y-22637674D02*
X16760539Y-22628150D01*
X16760539Y-22628150D02*
X16779587Y-22599579D01*
X16779587Y-22599579D02*
X16789111Y-22580531D01*
X16789111Y-22580531D02*
X16798635Y-22551960D01*
X16798635Y-22551960D02*
X16808158Y-22504341D01*
X16808158Y-22504341D02*
X16808158Y-22466246D01*
X16808158Y-22466246D02*
X16798635Y-22418627D01*
X16798635Y-22418627D02*
X16789111Y-22390055D01*
X16789111Y-22390055D02*
X16779587Y-22371008D01*
X16779587Y-22371008D02*
X16760539Y-22342436D01*
X16760539Y-22342436D02*
X16751015Y-22332912D01*
M02*
