G04 #@! TF.GenerationSoftware,KiCad,Pcbnew,7.0.8*
G04 #@! TF.CreationDate,2024-09-22T21:59:11-04:00*
G04 #@! TF.ProjectId,lichen-bifocals-submodule-power-board,6c696368-656e-42d6-9269-666f63616c73,rev?*
G04 #@! TF.SameCoordinates,Original*
G04 #@! TF.FileFunction,Copper,L2,Bot*
G04 #@! TF.FilePolarity,Positive*
%FSLAX46Y46*%
G04 Gerber Fmt 4.6, Leading zero omitted, Abs format (unit mm)*
G04 Created by KiCad (PCBNEW 7.0.8) date 2024-09-22 21:59:11*
%MOMM*%
%LPD*%
G01*
G04 APERTURE LIST*
G04 #@! TA.AperFunction,ComponentPad*
%ADD10C,1.879600*%
G04 #@! TD*
G04 #@! TA.AperFunction,ComponentPad*
%ADD11O,1.700000X1.700000*%
G04 #@! TD*
G04 #@! TA.AperFunction,ViaPad*
%ADD12C,0.800000*%
G04 #@! TD*
G04 #@! TA.AperFunction,Conductor*
%ADD13C,0.250000*%
G04 #@! TD*
G04 #@! TA.AperFunction,Conductor*
%ADD14C,0.500000*%
G04 #@! TD*
G04 APERTURE END LIST*
D10*
X135687000Y-182893000D03*
X135433000Y-180353000D03*
X135687000Y-177813000D03*
X135433000Y-175273000D03*
X135687000Y-172733000D03*
X133147000Y-172733000D03*
X132893000Y-175273000D03*
X133147000Y-177813000D03*
X132893000Y-180353000D03*
X133147000Y-182893000D03*
X138370000Y-121670000D03*
X135830000Y-121416000D03*
X133290000Y-121670000D03*
X130750000Y-121416000D03*
X128210000Y-121670000D03*
X128210000Y-124210000D03*
X130750000Y-123956000D03*
X133290000Y-124210000D03*
X135830000Y-123956000D03*
X138370000Y-124210000D03*
X112370000Y-121670000D03*
X109830000Y-121416000D03*
X107290000Y-121670000D03*
X104750000Y-121416000D03*
X102210000Y-121670000D03*
X102210000Y-124210000D03*
X104750000Y-123956000D03*
X107290000Y-124210000D03*
X109830000Y-123956000D03*
X112370000Y-124210000D03*
X107687000Y-182893000D03*
X107433000Y-180353000D03*
X107687000Y-177813000D03*
X107433000Y-175273000D03*
X107687000Y-172733000D03*
X105147000Y-172733000D03*
X104893000Y-175273000D03*
X105147000Y-177813000D03*
X104893000Y-180353000D03*
X105147000Y-182893000D03*
X119007000Y-202870000D03*
X121547000Y-202870000D03*
X118753000Y-205410000D03*
X121293000Y-205410000D03*
X119007000Y-207950000D03*
X121547000Y-207950000D03*
X118753000Y-210490000D03*
X121293000Y-210490000D03*
X118753000Y-200330000D03*
X121293000Y-200330000D03*
D11*
X125230000Y-174720000D03*
X125230000Y-172180000D03*
X122690000Y-174720000D03*
X122690000Y-172180000D03*
X120150000Y-174720000D03*
X120150000Y-172180000D03*
X117610000Y-174720000D03*
X117610000Y-172180000D03*
X115070000Y-174720000D03*
X115070000Y-172180000D03*
X125230000Y-114690000D03*
X125230000Y-112150000D03*
X122690000Y-114690000D03*
X122690000Y-112150000D03*
X120150000Y-114690000D03*
X120150000Y-112150000D03*
X117610000Y-114690000D03*
X117610000Y-112150000D03*
X115070000Y-114690000D03*
X115070000Y-112150000D03*
D12*
X138820000Y-169280000D03*
X120140000Y-124510000D03*
X130440000Y-166470000D03*
X135200000Y-187240000D03*
X117020000Y-177480000D03*
X109810000Y-166440000D03*
X108230000Y-161550000D03*
X106550000Y-163930000D03*
X106570000Y-159490000D03*
D13*
X120140000Y-124510000D02*
X120150000Y-124500000D01*
D14*
X138820000Y-171886000D02*
X138820000Y-169280000D01*
X120150000Y-124500000D02*
X120150000Y-114690000D01*
X135433000Y-175273000D02*
X138820000Y-171886000D01*
D13*
X127670000Y-110970000D02*
X118790000Y-110970000D01*
X118790000Y-110970000D02*
X117610000Y-112150000D01*
X138370000Y-121670000D02*
X127670000Y-110970000D01*
X117610000Y-118970000D02*
X117610000Y-114690000D01*
X112370000Y-124210000D02*
X117610000Y-118970000D01*
D14*
X122690000Y-114690000D02*
X122690000Y-162276000D01*
X122690000Y-162276000D02*
X133147000Y-172733000D01*
D13*
X130750000Y-117670000D02*
X125230000Y-112150000D01*
X130750000Y-121416000D02*
X130750000Y-117670000D01*
D14*
X138120000Y-137260000D02*
X125230000Y-124370000D01*
X130440000Y-166490000D02*
X130510000Y-166420000D01*
X125230000Y-124370000D02*
X125230000Y-114690000D01*
X138120000Y-137260000D02*
X138120000Y-158810000D01*
X138120000Y-158810000D02*
X130460000Y-166470000D01*
X130440000Y-166470000D02*
X130440000Y-166490000D01*
X130460000Y-166470000D02*
X130440000Y-166470000D01*
D13*
X116245000Y-176705000D02*
X116245000Y-173991396D01*
X117020000Y-177480000D02*
X116245000Y-176705000D01*
X115070000Y-172816396D02*
X115070000Y-172180000D01*
X137543000Y-177813000D02*
X138300000Y-178570000D01*
X116245000Y-173991396D02*
X115070000Y-172816396D01*
X138300000Y-184240000D02*
X135300000Y-187240000D01*
X135200000Y-187240000D02*
X135200000Y-187340000D01*
X135200000Y-187340000D02*
X135255000Y-187285000D01*
X138300000Y-178570000D02*
X138300000Y-184240000D01*
X135300000Y-187240000D02*
X135200000Y-187240000D01*
X135687000Y-177813000D02*
X137543000Y-177813000D01*
X104900000Y-126900000D02*
X104900000Y-164550000D01*
X104900000Y-164550000D02*
X115070000Y-174720000D01*
X102210000Y-124210000D02*
X104900000Y-126900000D01*
X134160000Y-179080000D02*
X132300000Y-179080000D01*
X135433000Y-180353000D02*
X134160000Y-179080000D01*
X127660000Y-169810000D02*
X119980000Y-169810000D01*
X127660000Y-174440000D02*
X127660000Y-169810000D01*
X119980000Y-169810000D02*
X117610000Y-172180000D01*
X132300000Y-179080000D02*
X127660000Y-174440000D01*
X116435000Y-173545000D02*
X117610000Y-174720000D01*
X116435000Y-171694946D02*
X116435000Y-173545000D01*
X109830000Y-121416000D02*
X111094800Y-122680800D01*
X111094800Y-122680800D02*
X111094800Y-166354746D01*
X111094800Y-166354746D02*
X116435000Y-171694946D01*
X109830000Y-123956000D02*
X109810000Y-166440000D01*
X109810000Y-166440000D02*
X109830000Y-166420000D01*
X107290000Y-124210000D02*
X108230000Y-125150000D01*
X108230000Y-125150000D02*
X108230000Y-161550000D01*
X108230000Y-161550000D02*
X108230000Y-161670000D01*
X106550000Y-163930000D02*
X105845000Y-163225000D01*
X105845000Y-163225000D02*
X105845000Y-127015000D01*
X103485200Y-124655200D02*
X103485200Y-122680800D01*
X103485200Y-122680800D02*
X104750000Y-121416000D01*
X105845000Y-127015000D02*
X103485200Y-124655200D01*
X104750000Y-123956000D02*
X106570000Y-125776000D01*
X106570000Y-125776000D02*
X106570000Y-159490000D01*
X106570000Y-159490000D02*
X106570000Y-159570000D01*
D14*
X121740000Y-210490000D02*
X121293000Y-210490000D01*
X118753000Y-210490000D02*
X121293000Y-210490000D01*
X124600000Y-193980000D02*
X124600000Y-207630000D01*
X135687000Y-182893000D02*
X124600000Y-193980000D01*
X124600000Y-207630000D02*
X121740000Y-210490000D01*
M02*
