%TF.GenerationSoftware,KiCad,Pcbnew,7.0.8*%
%TF.CreationDate,2024-02-25T17:48:00-05:00*%
%TF.ProjectId,lichen-bifocals-submodule-power-board,6c696368-656e-42d6-9269-666f63616c73,rev?*%
%TF.SameCoordinates,Original*%
%TF.FileFunction,Drillmap*%
%TF.FilePolarity,Positive*%
%FSLAX45Y45*%
G04 Gerber Fmt 4.5, Leading zero omitted, Abs format (unit mm)*
G04 Created by KiCad (PCBNEW 7.0.8) date 2024-02-25 17:48:00*
%MOMM*%
%LPD*%
G01*
G04 APERTURE LIST*
%ADD10C,0.100000*%
%ADD11C,0.200000*%
%ADD12C,0.040000*%
%ADD13C,0.101600*%
G04 APERTURE END LIST*
D10*
X10000000Y-11025000D02*
X14030000Y-11025000D01*
X14030000Y-21825000D01*
X10000000Y-21825000D01*
X10000000Y-11025000D01*
D11*
D12*
X10635000Y-16373000D02*
X10675000Y-16413000D01*
X10675000Y-16373000D02*
X10635000Y-16413000D01*
X10637000Y-15929000D02*
X10677000Y-15969000D01*
X10677000Y-15929000D02*
X10637000Y-15969000D01*
X10803000Y-16135000D02*
X10843000Y-16175000D01*
X10843000Y-16135000D02*
X10803000Y-16175000D01*
X10961000Y-16624000D02*
X11001000Y-16664000D01*
X11001000Y-16624000D02*
X10961000Y-16664000D01*
X11682000Y-17728000D02*
X11722000Y-17768000D01*
X11722000Y-17728000D02*
X11682000Y-17768000D01*
X11994000Y-12431000D02*
X12034000Y-12471000D01*
X12034000Y-12431000D02*
X11994000Y-12471000D01*
X13024000Y-16627000D02*
X13064000Y-16667000D01*
X13064000Y-16627000D02*
X13024000Y-16667000D01*
X13500000Y-18704000D02*
X13540000Y-18744000D01*
X13540000Y-18704000D02*
X13500000Y-18744000D01*
X13862000Y-16908000D02*
X13902000Y-16948000D01*
X13902000Y-16908000D02*
X13862000Y-16948000D01*
D10*
X11557000Y-11215000D02*
G75*
G03*
X11557000Y-11215000I-50000J0D01*
G01*
X11557000Y-11469000D02*
G75*
G03*
X11557000Y-11469000I-50000J0D01*
G01*
X11557000Y-17218000D02*
G75*
G03*
X11557000Y-17218000I-50000J0D01*
G01*
X11557000Y-17472000D02*
G75*
G03*
X11557000Y-17472000I-50000J0D01*
G01*
X11811000Y-11215000D02*
G75*
G03*
X11811000Y-11215000I-50000J0D01*
G01*
X11811000Y-11469000D02*
G75*
G03*
X11811000Y-11469000I-50000J0D01*
G01*
X11811000Y-17218000D02*
G75*
G03*
X11811000Y-17218000I-50000J0D01*
G01*
X11811000Y-17472000D02*
G75*
G03*
X11811000Y-17472000I-50000J0D01*
G01*
X12065000Y-11215000D02*
G75*
G03*
X12065000Y-11215000I-50000J0D01*
G01*
X12065000Y-11469000D02*
G75*
G03*
X12065000Y-11469000I-50000J0D01*
G01*
X12065000Y-17218000D02*
G75*
G03*
X12065000Y-17218000I-50000J0D01*
G01*
X12065000Y-17472000D02*
G75*
G03*
X12065000Y-17472000I-50000J0D01*
G01*
X12319000Y-11215000D02*
G75*
G03*
X12319000Y-11215000I-50000J0D01*
G01*
X12319000Y-11469000D02*
G75*
G03*
X12319000Y-11469000I-50000J0D01*
G01*
X12319000Y-17218000D02*
G75*
G03*
X12319000Y-17218000I-50000J0D01*
G01*
X12319000Y-17472000D02*
G75*
G03*
X12319000Y-17472000I-50000J0D01*
G01*
X12573000Y-11215000D02*
G75*
G03*
X12573000Y-11215000I-50000J0D01*
G01*
X12573000Y-11469000D02*
G75*
G03*
X12573000Y-11469000I-50000J0D01*
G01*
X12573000Y-17218000D02*
G75*
G03*
X12573000Y-17218000I-50000J0D01*
G01*
X12573000Y-17472000D02*
G75*
G03*
X12573000Y-17472000I-50000J0D01*
G01*
D13*
X10221000Y-12116200D02*
X10221000Y-12217800D01*
X10170200Y-12167000D02*
X10271800Y-12167000D01*
X10221000Y-12370200D02*
X10221000Y-12471800D01*
X10170200Y-12421000D02*
X10271800Y-12421000D01*
X10475000Y-12090800D02*
X10475000Y-12192400D01*
X10424200Y-12141600D02*
X10525800Y-12141600D01*
X10475000Y-12344800D02*
X10475000Y-12446400D01*
X10424200Y-12395600D02*
X10525800Y-12395600D01*
X10489300Y-17476500D02*
X10489300Y-17578100D01*
X10438500Y-17527300D02*
X10540100Y-17527300D01*
X10489300Y-17984500D02*
X10489300Y-18086100D01*
X10438500Y-18035300D02*
X10540100Y-18035300D01*
X10514700Y-17222500D02*
X10514700Y-17324100D01*
X10463900Y-17273300D02*
X10565500Y-17273300D01*
X10514700Y-17730500D02*
X10514700Y-17832100D01*
X10463900Y-17781300D02*
X10565500Y-17781300D01*
X10514700Y-18238500D02*
X10514700Y-18340100D01*
X10463900Y-18289300D02*
X10565500Y-18289300D01*
X10729000Y-12116200D02*
X10729000Y-12217800D01*
X10678200Y-12167000D02*
X10779800Y-12167000D01*
X10729000Y-12370200D02*
X10729000Y-12471800D01*
X10678200Y-12421000D02*
X10779800Y-12421000D01*
X10743300Y-17476500D02*
X10743300Y-17578100D01*
X10692500Y-17527300D02*
X10794100Y-17527300D01*
X10743300Y-17984500D02*
X10743300Y-18086100D01*
X10692500Y-18035300D02*
X10794100Y-18035300D01*
X10768700Y-17222500D02*
X10768700Y-17324100D01*
X10717900Y-17273300D02*
X10819500Y-17273300D01*
X10768700Y-17730500D02*
X10768700Y-17832100D01*
X10717900Y-17781300D02*
X10819500Y-17781300D01*
X10768700Y-18238500D02*
X10768700Y-18340100D01*
X10717900Y-18289300D02*
X10819500Y-18289300D01*
X10983000Y-12090800D02*
X10983000Y-12192400D01*
X10932200Y-12141600D02*
X11033800Y-12141600D01*
X10983000Y-12344800D02*
X10983000Y-12446400D01*
X10932200Y-12395600D02*
X11033800Y-12395600D01*
X11237000Y-12116200D02*
X11237000Y-12217800D01*
X11186200Y-12167000D02*
X11287800Y-12167000D01*
X11237000Y-12370200D02*
X11237000Y-12471800D01*
X11186200Y-12421000D02*
X11287800Y-12421000D01*
X11875300Y-19982200D02*
X11875300Y-20083800D01*
X11824500Y-20033000D02*
X11926100Y-20033000D01*
X11875300Y-20490200D02*
X11875300Y-20591800D01*
X11824500Y-20541000D02*
X11926100Y-20541000D01*
X11875300Y-20998200D02*
X11875300Y-21099800D01*
X11824500Y-21049000D02*
X11926100Y-21049000D01*
X11900700Y-20236200D02*
X11900700Y-20337800D01*
X11849900Y-20287000D02*
X11951500Y-20287000D01*
X11900700Y-20744200D02*
X11900700Y-20845800D01*
X11849900Y-20795000D02*
X11951500Y-20795000D01*
X12129300Y-19982200D02*
X12129300Y-20083800D01*
X12078500Y-20033000D02*
X12180100Y-20033000D01*
X12129300Y-20490200D02*
X12129300Y-20591800D01*
X12078500Y-20541000D02*
X12180100Y-20541000D01*
X12129300Y-20998200D02*
X12129300Y-21099800D01*
X12078500Y-21049000D02*
X12180100Y-21049000D01*
X12154700Y-20236200D02*
X12154700Y-20337800D01*
X12103900Y-20287000D02*
X12205500Y-20287000D01*
X12154700Y-20744200D02*
X12154700Y-20845800D01*
X12103900Y-20795000D02*
X12205500Y-20795000D01*
X12821000Y-12116200D02*
X12821000Y-12217800D01*
X12770200Y-12167000D02*
X12871800Y-12167000D01*
X12821000Y-12370200D02*
X12821000Y-12471800D01*
X12770200Y-12421000D02*
X12871800Y-12421000D01*
X13075000Y-12090800D02*
X13075000Y-12192400D01*
X13024200Y-12141600D02*
X13125800Y-12141600D01*
X13075000Y-12344800D02*
X13075000Y-12446400D01*
X13024200Y-12395600D02*
X13125800Y-12395600D01*
X13289300Y-17476500D02*
X13289300Y-17578100D01*
X13238500Y-17527300D02*
X13340100Y-17527300D01*
X13289300Y-17984500D02*
X13289300Y-18086100D01*
X13238500Y-18035300D02*
X13340100Y-18035300D01*
X13314700Y-17222500D02*
X13314700Y-17324100D01*
X13263900Y-17273300D02*
X13365500Y-17273300D01*
X13314700Y-17730500D02*
X13314700Y-17832100D01*
X13263900Y-17781300D02*
X13365500Y-17781300D01*
X13314700Y-18238500D02*
X13314700Y-18340100D01*
X13263900Y-18289300D02*
X13365500Y-18289300D01*
X13329000Y-12116200D02*
X13329000Y-12217800D01*
X13278200Y-12167000D02*
X13379800Y-12167000D01*
X13329000Y-12370200D02*
X13329000Y-12471800D01*
X13278200Y-12421000D02*
X13379800Y-12421000D01*
X13543300Y-17476500D02*
X13543300Y-17578100D01*
X13492500Y-17527300D02*
X13594100Y-17527300D01*
X13543300Y-17984500D02*
X13543300Y-18086100D01*
X13492500Y-18035300D02*
X13594100Y-18035300D01*
X13568700Y-17222500D02*
X13568700Y-17324100D01*
X13517900Y-17273300D02*
X13619500Y-17273300D01*
X13568700Y-17730500D02*
X13568700Y-17832100D01*
X13517900Y-17781300D02*
X13619500Y-17781300D01*
X13568700Y-18238500D02*
X13568700Y-18340100D01*
X13517900Y-18289300D02*
X13619500Y-18289300D01*
X13583000Y-12090800D02*
X13583000Y-12192400D01*
X13532200Y-12141600D02*
X13633800Y-12141600D01*
X13583000Y-12344800D02*
X13583000Y-12446400D01*
X13532200Y-12395600D02*
X13633800Y-12395600D01*
X13837000Y-12116200D02*
X13837000Y-12217800D01*
X13786200Y-12167000D02*
X13887800Y-12167000D01*
X13837000Y-12370200D02*
X13837000Y-12471800D01*
X13786200Y-12421000D02*
X13887800Y-12421000D01*
D11*
X10255777Y-22141484D02*
X10255777Y-21941484D01*
X10255777Y-21941484D02*
X10303396Y-21941484D01*
X10303396Y-21941484D02*
X10331967Y-21951008D01*
X10331967Y-21951008D02*
X10351015Y-21970055D01*
X10351015Y-21970055D02*
X10360539Y-21989103D01*
X10360539Y-21989103D02*
X10370063Y-22027198D01*
X10370063Y-22027198D02*
X10370063Y-22055770D01*
X10370063Y-22055770D02*
X10360539Y-22093865D01*
X10360539Y-22093865D02*
X10351015Y-22112912D01*
X10351015Y-22112912D02*
X10331967Y-22131960D01*
X10331967Y-22131960D02*
X10303396Y-22141484D01*
X10303396Y-22141484D02*
X10255777Y-22141484D01*
X10455777Y-22141484D02*
X10455777Y-22008150D01*
X10455777Y-22046246D02*
X10465301Y-22027198D01*
X10465301Y-22027198D02*
X10474824Y-22017674D01*
X10474824Y-22017674D02*
X10493872Y-22008150D01*
X10493872Y-22008150D02*
X10512920Y-22008150D01*
X10579586Y-22141484D02*
X10579586Y-22008150D01*
X10579586Y-21941484D02*
X10570063Y-21951008D01*
X10570063Y-21951008D02*
X10579586Y-21960531D01*
X10579586Y-21960531D02*
X10589110Y-21951008D01*
X10589110Y-21951008D02*
X10579586Y-21941484D01*
X10579586Y-21941484D02*
X10579586Y-21960531D01*
X10703396Y-22141484D02*
X10684348Y-22131960D01*
X10684348Y-22131960D02*
X10674824Y-22112912D01*
X10674824Y-22112912D02*
X10674824Y-21941484D01*
X10808158Y-22141484D02*
X10789110Y-22131960D01*
X10789110Y-22131960D02*
X10779586Y-22112912D01*
X10779586Y-22112912D02*
X10779586Y-21941484D01*
X11036729Y-22141484D02*
X11036729Y-21941484D01*
X11036729Y-21941484D02*
X11103396Y-22084341D01*
X11103396Y-22084341D02*
X11170063Y-21941484D01*
X11170063Y-21941484D02*
X11170063Y-22141484D01*
X11351015Y-22141484D02*
X11351015Y-22036722D01*
X11351015Y-22036722D02*
X11341491Y-22017674D01*
X11341491Y-22017674D02*
X11322443Y-22008150D01*
X11322443Y-22008150D02*
X11284348Y-22008150D01*
X11284348Y-22008150D02*
X11265301Y-22017674D01*
X11351015Y-22131960D02*
X11331967Y-22141484D01*
X11331967Y-22141484D02*
X11284348Y-22141484D01*
X11284348Y-22141484D02*
X11265301Y-22131960D01*
X11265301Y-22131960D02*
X11255777Y-22112912D01*
X11255777Y-22112912D02*
X11255777Y-22093865D01*
X11255777Y-22093865D02*
X11265301Y-22074817D01*
X11265301Y-22074817D02*
X11284348Y-22065293D01*
X11284348Y-22065293D02*
X11331967Y-22065293D01*
X11331967Y-22065293D02*
X11351015Y-22055770D01*
X11446253Y-22008150D02*
X11446253Y-22208150D01*
X11446253Y-22017674D02*
X11465301Y-22008150D01*
X11465301Y-22008150D02*
X11503396Y-22008150D01*
X11503396Y-22008150D02*
X11522443Y-22017674D01*
X11522443Y-22017674D02*
X11531967Y-22027198D01*
X11531967Y-22027198D02*
X11541491Y-22046246D01*
X11541491Y-22046246D02*
X11541491Y-22103389D01*
X11541491Y-22103389D02*
X11531967Y-22122436D01*
X11531967Y-22122436D02*
X11522443Y-22131960D01*
X11522443Y-22131960D02*
X11503396Y-22141484D01*
X11503396Y-22141484D02*
X11465301Y-22141484D01*
X11465301Y-22141484D02*
X11446253Y-22131960D01*
X11627205Y-22122436D02*
X11636729Y-22131960D01*
X11636729Y-22131960D02*
X11627205Y-22141484D01*
X11627205Y-22141484D02*
X11617682Y-22131960D01*
X11617682Y-22131960D02*
X11627205Y-22122436D01*
X11627205Y-22122436D02*
X11627205Y-22141484D01*
X11627205Y-22017674D02*
X11636729Y-22027198D01*
X11636729Y-22027198D02*
X11627205Y-22036722D01*
X11627205Y-22036722D02*
X11617682Y-22027198D01*
X11617682Y-22027198D02*
X11627205Y-22017674D01*
X11627205Y-22017674D02*
X11627205Y-22036722D01*
D12*
X9955000Y-22450000D02*
X9995000Y-22490000D01*
X9995000Y-22450000D02*
X9955000Y-22490000D01*
D11*
X10293872Y-22361484D02*
X10312920Y-22361484D01*
X10312920Y-22361484D02*
X10331967Y-22371008D01*
X10331967Y-22371008D02*
X10341491Y-22380531D01*
X10341491Y-22380531D02*
X10351015Y-22399579D01*
X10351015Y-22399579D02*
X10360539Y-22437674D01*
X10360539Y-22437674D02*
X10360539Y-22485293D01*
X10360539Y-22485293D02*
X10351015Y-22523388D01*
X10351015Y-22523388D02*
X10341491Y-22542436D01*
X10341491Y-22542436D02*
X10331967Y-22551960D01*
X10331967Y-22551960D02*
X10312920Y-22561484D01*
X10312920Y-22561484D02*
X10293872Y-22561484D01*
X10293872Y-22561484D02*
X10274824Y-22551960D01*
X10274824Y-22551960D02*
X10265301Y-22542436D01*
X10265301Y-22542436D02*
X10255777Y-22523388D01*
X10255777Y-22523388D02*
X10246253Y-22485293D01*
X10246253Y-22485293D02*
X10246253Y-22437674D01*
X10246253Y-22437674D02*
X10255777Y-22399579D01*
X10255777Y-22399579D02*
X10265301Y-22380531D01*
X10265301Y-22380531D02*
X10274824Y-22371008D01*
X10274824Y-22371008D02*
X10293872Y-22361484D01*
X10446253Y-22542436D02*
X10455777Y-22551960D01*
X10455777Y-22551960D02*
X10446253Y-22561484D01*
X10446253Y-22561484D02*
X10436729Y-22551960D01*
X10436729Y-22551960D02*
X10446253Y-22542436D01*
X10446253Y-22542436D02*
X10446253Y-22561484D01*
X10627205Y-22428150D02*
X10627205Y-22561484D01*
X10579586Y-22351960D02*
X10531967Y-22494817D01*
X10531967Y-22494817D02*
X10655777Y-22494817D01*
X10770063Y-22361484D02*
X10789110Y-22361484D01*
X10789110Y-22361484D02*
X10808158Y-22371008D01*
X10808158Y-22371008D02*
X10817682Y-22380531D01*
X10817682Y-22380531D02*
X10827205Y-22399579D01*
X10827205Y-22399579D02*
X10836729Y-22437674D01*
X10836729Y-22437674D02*
X10836729Y-22485293D01*
X10836729Y-22485293D02*
X10827205Y-22523388D01*
X10827205Y-22523388D02*
X10817682Y-22542436D01*
X10817682Y-22542436D02*
X10808158Y-22551960D01*
X10808158Y-22551960D02*
X10789110Y-22561484D01*
X10789110Y-22561484D02*
X10770063Y-22561484D01*
X10770063Y-22561484D02*
X10751015Y-22551960D01*
X10751015Y-22551960D02*
X10741491Y-22542436D01*
X10741491Y-22542436D02*
X10731967Y-22523388D01*
X10731967Y-22523388D02*
X10722444Y-22485293D01*
X10722444Y-22485293D02*
X10722444Y-22437674D01*
X10722444Y-22437674D02*
X10731967Y-22399579D01*
X10731967Y-22399579D02*
X10741491Y-22380531D01*
X10741491Y-22380531D02*
X10751015Y-22371008D01*
X10751015Y-22371008D02*
X10770063Y-22361484D01*
X10960539Y-22361484D02*
X10979586Y-22361484D01*
X10979586Y-22361484D02*
X10998634Y-22371008D01*
X10998634Y-22371008D02*
X11008158Y-22380531D01*
X11008158Y-22380531D02*
X11017682Y-22399579D01*
X11017682Y-22399579D02*
X11027205Y-22437674D01*
X11027205Y-22437674D02*
X11027205Y-22485293D01*
X11027205Y-22485293D02*
X11017682Y-22523388D01*
X11017682Y-22523388D02*
X11008158Y-22542436D01*
X11008158Y-22542436D02*
X10998634Y-22551960D01*
X10998634Y-22551960D02*
X10979586Y-22561484D01*
X10979586Y-22561484D02*
X10960539Y-22561484D01*
X10960539Y-22561484D02*
X10941491Y-22551960D01*
X10941491Y-22551960D02*
X10931967Y-22542436D01*
X10931967Y-22542436D02*
X10922444Y-22523388D01*
X10922444Y-22523388D02*
X10912920Y-22485293D01*
X10912920Y-22485293D02*
X10912920Y-22437674D01*
X10912920Y-22437674D02*
X10922444Y-22399579D01*
X10922444Y-22399579D02*
X10931967Y-22380531D01*
X10931967Y-22380531D02*
X10941491Y-22371008D01*
X10941491Y-22371008D02*
X10960539Y-22361484D01*
X11112920Y-22561484D02*
X11112920Y-22428150D01*
X11112920Y-22447198D02*
X11122444Y-22437674D01*
X11122444Y-22437674D02*
X11141491Y-22428150D01*
X11141491Y-22428150D02*
X11170063Y-22428150D01*
X11170063Y-22428150D02*
X11189110Y-22437674D01*
X11189110Y-22437674D02*
X11198634Y-22456722D01*
X11198634Y-22456722D02*
X11198634Y-22561484D01*
X11198634Y-22456722D02*
X11208158Y-22437674D01*
X11208158Y-22437674D02*
X11227205Y-22428150D01*
X11227205Y-22428150D02*
X11255777Y-22428150D01*
X11255777Y-22428150D02*
X11274824Y-22437674D01*
X11274824Y-22437674D02*
X11284348Y-22456722D01*
X11284348Y-22456722D02*
X11284348Y-22561484D01*
X11379586Y-22561484D02*
X11379586Y-22428150D01*
X11379586Y-22447198D02*
X11389110Y-22437674D01*
X11389110Y-22437674D02*
X11408158Y-22428150D01*
X11408158Y-22428150D02*
X11436729Y-22428150D01*
X11436729Y-22428150D02*
X11455777Y-22437674D01*
X11455777Y-22437674D02*
X11465301Y-22456722D01*
X11465301Y-22456722D02*
X11465301Y-22561484D01*
X11465301Y-22456722D02*
X11474824Y-22437674D01*
X11474824Y-22437674D02*
X11493872Y-22428150D01*
X11493872Y-22428150D02*
X11522443Y-22428150D01*
X11522443Y-22428150D02*
X11541491Y-22437674D01*
X11541491Y-22437674D02*
X11551015Y-22456722D01*
X11551015Y-22456722D02*
X11551015Y-22561484D01*
X11941491Y-22351960D02*
X11770063Y-22609103D01*
X12198634Y-22361484D02*
X12217682Y-22361484D01*
X12217682Y-22361484D02*
X12236729Y-22371008D01*
X12236729Y-22371008D02*
X12246253Y-22380531D01*
X12246253Y-22380531D02*
X12255777Y-22399579D01*
X12255777Y-22399579D02*
X12265301Y-22437674D01*
X12265301Y-22437674D02*
X12265301Y-22485293D01*
X12265301Y-22485293D02*
X12255777Y-22523388D01*
X12255777Y-22523388D02*
X12246253Y-22542436D01*
X12246253Y-22542436D02*
X12236729Y-22551960D01*
X12236729Y-22551960D02*
X12217682Y-22561484D01*
X12217682Y-22561484D02*
X12198634Y-22561484D01*
X12198634Y-22561484D02*
X12179586Y-22551960D01*
X12179586Y-22551960D02*
X12170063Y-22542436D01*
X12170063Y-22542436D02*
X12160539Y-22523388D01*
X12160539Y-22523388D02*
X12151015Y-22485293D01*
X12151015Y-22485293D02*
X12151015Y-22437674D01*
X12151015Y-22437674D02*
X12160539Y-22399579D01*
X12160539Y-22399579D02*
X12170063Y-22380531D01*
X12170063Y-22380531D02*
X12179586Y-22371008D01*
X12179586Y-22371008D02*
X12198634Y-22361484D01*
X12351015Y-22542436D02*
X12360539Y-22551960D01*
X12360539Y-22551960D02*
X12351015Y-22561484D01*
X12351015Y-22561484D02*
X12341491Y-22551960D01*
X12341491Y-22551960D02*
X12351015Y-22542436D01*
X12351015Y-22542436D02*
X12351015Y-22561484D01*
X12484348Y-22361484D02*
X12503396Y-22361484D01*
X12503396Y-22361484D02*
X12522444Y-22371008D01*
X12522444Y-22371008D02*
X12531967Y-22380531D01*
X12531967Y-22380531D02*
X12541491Y-22399579D01*
X12541491Y-22399579D02*
X12551015Y-22437674D01*
X12551015Y-22437674D02*
X12551015Y-22485293D01*
X12551015Y-22485293D02*
X12541491Y-22523388D01*
X12541491Y-22523388D02*
X12531967Y-22542436D01*
X12531967Y-22542436D02*
X12522444Y-22551960D01*
X12522444Y-22551960D02*
X12503396Y-22561484D01*
X12503396Y-22561484D02*
X12484348Y-22561484D01*
X12484348Y-22561484D02*
X12465301Y-22551960D01*
X12465301Y-22551960D02*
X12455777Y-22542436D01*
X12455777Y-22542436D02*
X12446253Y-22523388D01*
X12446253Y-22523388D02*
X12436729Y-22485293D01*
X12436729Y-22485293D02*
X12436729Y-22437674D01*
X12436729Y-22437674D02*
X12446253Y-22399579D01*
X12446253Y-22399579D02*
X12455777Y-22380531D01*
X12455777Y-22380531D02*
X12465301Y-22371008D01*
X12465301Y-22371008D02*
X12484348Y-22361484D01*
X12741491Y-22561484D02*
X12627206Y-22561484D01*
X12684348Y-22561484D02*
X12684348Y-22361484D01*
X12684348Y-22361484D02*
X12665301Y-22390055D01*
X12665301Y-22390055D02*
X12646253Y-22409103D01*
X12646253Y-22409103D02*
X12627206Y-22418627D01*
X12922444Y-22361484D02*
X12827206Y-22361484D01*
X12827206Y-22361484D02*
X12817682Y-22456722D01*
X12817682Y-22456722D02*
X12827206Y-22447198D01*
X12827206Y-22447198D02*
X12846253Y-22437674D01*
X12846253Y-22437674D02*
X12893872Y-22437674D01*
X12893872Y-22437674D02*
X12912920Y-22447198D01*
X12912920Y-22447198D02*
X12922444Y-22456722D01*
X12922444Y-22456722D02*
X12931967Y-22475769D01*
X12931967Y-22475769D02*
X12931967Y-22523388D01*
X12931967Y-22523388D02*
X12922444Y-22542436D01*
X12922444Y-22542436D02*
X12912920Y-22551960D01*
X12912920Y-22551960D02*
X12893872Y-22561484D01*
X12893872Y-22561484D02*
X12846253Y-22561484D01*
X12846253Y-22561484D02*
X12827206Y-22551960D01*
X12827206Y-22551960D02*
X12817682Y-22542436D01*
X12998634Y-22361484D02*
X13131967Y-22361484D01*
X13131967Y-22361484D02*
X13046253Y-22561484D01*
X13198634Y-22361484D02*
X13198634Y-22399579D01*
X13274825Y-22361484D02*
X13274825Y-22399579D01*
X13570063Y-22637674D02*
X13560539Y-22628150D01*
X13560539Y-22628150D02*
X13541491Y-22599579D01*
X13541491Y-22599579D02*
X13531968Y-22580531D01*
X13531968Y-22580531D02*
X13522444Y-22551960D01*
X13522444Y-22551960D02*
X13512920Y-22504341D01*
X13512920Y-22504341D02*
X13512920Y-22466246D01*
X13512920Y-22466246D02*
X13522444Y-22418627D01*
X13522444Y-22418627D02*
X13531968Y-22390055D01*
X13531968Y-22390055D02*
X13541491Y-22371008D01*
X13541491Y-22371008D02*
X13560539Y-22342436D01*
X13560539Y-22342436D02*
X13570063Y-22332912D01*
X13655777Y-22561484D02*
X13693872Y-22561484D01*
X13693872Y-22561484D02*
X13712920Y-22551960D01*
X13712920Y-22551960D02*
X13722444Y-22542436D01*
X13722444Y-22542436D02*
X13741491Y-22513865D01*
X13741491Y-22513865D02*
X13751015Y-22475769D01*
X13751015Y-22475769D02*
X13751015Y-22399579D01*
X13751015Y-22399579D02*
X13741491Y-22380531D01*
X13741491Y-22380531D02*
X13731968Y-22371008D01*
X13731968Y-22371008D02*
X13712920Y-22361484D01*
X13712920Y-22361484D02*
X13674825Y-22361484D01*
X13674825Y-22361484D02*
X13655777Y-22371008D01*
X13655777Y-22371008D02*
X13646253Y-22380531D01*
X13646253Y-22380531D02*
X13636729Y-22399579D01*
X13636729Y-22399579D02*
X13636729Y-22447198D01*
X13636729Y-22447198D02*
X13646253Y-22466246D01*
X13646253Y-22466246D02*
X13655777Y-22475769D01*
X13655777Y-22475769D02*
X13674825Y-22485293D01*
X13674825Y-22485293D02*
X13712920Y-22485293D01*
X13712920Y-22485293D02*
X13731968Y-22475769D01*
X13731968Y-22475769D02*
X13741491Y-22466246D01*
X13741491Y-22466246D02*
X13751015Y-22447198D01*
X13989110Y-22561484D02*
X13989110Y-22361484D01*
X14074825Y-22561484D02*
X14074825Y-22456722D01*
X14074825Y-22456722D02*
X14065301Y-22437674D01*
X14065301Y-22437674D02*
X14046253Y-22428150D01*
X14046253Y-22428150D02*
X14017682Y-22428150D01*
X14017682Y-22428150D02*
X13998634Y-22437674D01*
X13998634Y-22437674D02*
X13989110Y-22447198D01*
X14198634Y-22561484D02*
X14179587Y-22551960D01*
X14179587Y-22551960D02*
X14170063Y-22542436D01*
X14170063Y-22542436D02*
X14160539Y-22523388D01*
X14160539Y-22523388D02*
X14160539Y-22466246D01*
X14160539Y-22466246D02*
X14170063Y-22447198D01*
X14170063Y-22447198D02*
X14179587Y-22437674D01*
X14179587Y-22437674D02*
X14198634Y-22428150D01*
X14198634Y-22428150D02*
X14227206Y-22428150D01*
X14227206Y-22428150D02*
X14246253Y-22437674D01*
X14246253Y-22437674D02*
X14255777Y-22447198D01*
X14255777Y-22447198D02*
X14265301Y-22466246D01*
X14265301Y-22466246D02*
X14265301Y-22523388D01*
X14265301Y-22523388D02*
X14255777Y-22542436D01*
X14255777Y-22542436D02*
X14246253Y-22551960D01*
X14246253Y-22551960D02*
X14227206Y-22561484D01*
X14227206Y-22561484D02*
X14198634Y-22561484D01*
X14379587Y-22561484D02*
X14360539Y-22551960D01*
X14360539Y-22551960D02*
X14351015Y-22532912D01*
X14351015Y-22532912D02*
X14351015Y-22361484D01*
X14531968Y-22551960D02*
X14512920Y-22561484D01*
X14512920Y-22561484D02*
X14474825Y-22561484D01*
X14474825Y-22561484D02*
X14455777Y-22551960D01*
X14455777Y-22551960D02*
X14446253Y-22532912D01*
X14446253Y-22532912D02*
X14446253Y-22456722D01*
X14446253Y-22456722D02*
X14455777Y-22437674D01*
X14455777Y-22437674D02*
X14474825Y-22428150D01*
X14474825Y-22428150D02*
X14512920Y-22428150D01*
X14512920Y-22428150D02*
X14531968Y-22437674D01*
X14531968Y-22437674D02*
X14541491Y-22456722D01*
X14541491Y-22456722D02*
X14541491Y-22475769D01*
X14541491Y-22475769D02*
X14446253Y-22494817D01*
X14617682Y-22551960D02*
X14636730Y-22561484D01*
X14636730Y-22561484D02*
X14674825Y-22561484D01*
X14674825Y-22561484D02*
X14693872Y-22551960D01*
X14693872Y-22551960D02*
X14703396Y-22532912D01*
X14703396Y-22532912D02*
X14703396Y-22523388D01*
X14703396Y-22523388D02*
X14693872Y-22504341D01*
X14693872Y-22504341D02*
X14674825Y-22494817D01*
X14674825Y-22494817D02*
X14646253Y-22494817D01*
X14646253Y-22494817D02*
X14627206Y-22485293D01*
X14627206Y-22485293D02*
X14617682Y-22466246D01*
X14617682Y-22466246D02*
X14617682Y-22456722D01*
X14617682Y-22456722D02*
X14627206Y-22437674D01*
X14627206Y-22437674D02*
X14646253Y-22428150D01*
X14646253Y-22428150D02*
X14674825Y-22428150D01*
X14674825Y-22428150D02*
X14693872Y-22437674D01*
X14770063Y-22637674D02*
X14779587Y-22628150D01*
X14779587Y-22628150D02*
X14798634Y-22599579D01*
X14798634Y-22599579D02*
X14808158Y-22580531D01*
X14808158Y-22580531D02*
X14817682Y-22551960D01*
X14817682Y-22551960D02*
X14827206Y-22504341D01*
X14827206Y-22504341D02*
X14827206Y-22466246D01*
X14827206Y-22466246D02*
X14817682Y-22418627D01*
X14817682Y-22418627D02*
X14808158Y-22390055D01*
X14808158Y-22390055D02*
X14798634Y-22371008D01*
X14798634Y-22371008D02*
X14779587Y-22342436D01*
X14779587Y-22342436D02*
X14770063Y-22332912D01*
D10*
X9995000Y-22734000D02*
G75*
G03*
X9995000Y-22734000I-50000J0D01*
G01*
D11*
X10360539Y-22825484D02*
X10246253Y-22825484D01*
X10303396Y-22825484D02*
X10303396Y-22625484D01*
X10303396Y-22625484D02*
X10284348Y-22654055D01*
X10284348Y-22654055D02*
X10265301Y-22673103D01*
X10265301Y-22673103D02*
X10246253Y-22682627D01*
X10446253Y-22806436D02*
X10455777Y-22815960D01*
X10455777Y-22815960D02*
X10446253Y-22825484D01*
X10446253Y-22825484D02*
X10436729Y-22815960D01*
X10436729Y-22815960D02*
X10446253Y-22806436D01*
X10446253Y-22806436D02*
X10446253Y-22825484D01*
X10579586Y-22625484D02*
X10598634Y-22625484D01*
X10598634Y-22625484D02*
X10617682Y-22635008D01*
X10617682Y-22635008D02*
X10627205Y-22644531D01*
X10627205Y-22644531D02*
X10636729Y-22663579D01*
X10636729Y-22663579D02*
X10646253Y-22701674D01*
X10646253Y-22701674D02*
X10646253Y-22749293D01*
X10646253Y-22749293D02*
X10636729Y-22787388D01*
X10636729Y-22787388D02*
X10627205Y-22806436D01*
X10627205Y-22806436D02*
X10617682Y-22815960D01*
X10617682Y-22815960D02*
X10598634Y-22825484D01*
X10598634Y-22825484D02*
X10579586Y-22825484D01*
X10579586Y-22825484D02*
X10560539Y-22815960D01*
X10560539Y-22815960D02*
X10551015Y-22806436D01*
X10551015Y-22806436D02*
X10541491Y-22787388D01*
X10541491Y-22787388D02*
X10531967Y-22749293D01*
X10531967Y-22749293D02*
X10531967Y-22701674D01*
X10531967Y-22701674D02*
X10541491Y-22663579D01*
X10541491Y-22663579D02*
X10551015Y-22644531D01*
X10551015Y-22644531D02*
X10560539Y-22635008D01*
X10560539Y-22635008D02*
X10579586Y-22625484D01*
X10770063Y-22625484D02*
X10789110Y-22625484D01*
X10789110Y-22625484D02*
X10808158Y-22635008D01*
X10808158Y-22635008D02*
X10817682Y-22644531D01*
X10817682Y-22644531D02*
X10827205Y-22663579D01*
X10827205Y-22663579D02*
X10836729Y-22701674D01*
X10836729Y-22701674D02*
X10836729Y-22749293D01*
X10836729Y-22749293D02*
X10827205Y-22787388D01*
X10827205Y-22787388D02*
X10817682Y-22806436D01*
X10817682Y-22806436D02*
X10808158Y-22815960D01*
X10808158Y-22815960D02*
X10789110Y-22825484D01*
X10789110Y-22825484D02*
X10770063Y-22825484D01*
X10770063Y-22825484D02*
X10751015Y-22815960D01*
X10751015Y-22815960D02*
X10741491Y-22806436D01*
X10741491Y-22806436D02*
X10731967Y-22787388D01*
X10731967Y-22787388D02*
X10722444Y-22749293D01*
X10722444Y-22749293D02*
X10722444Y-22701674D01*
X10722444Y-22701674D02*
X10731967Y-22663579D01*
X10731967Y-22663579D02*
X10741491Y-22644531D01*
X10741491Y-22644531D02*
X10751015Y-22635008D01*
X10751015Y-22635008D02*
X10770063Y-22625484D01*
X10960539Y-22625484D02*
X10979586Y-22625484D01*
X10979586Y-22625484D02*
X10998634Y-22635008D01*
X10998634Y-22635008D02*
X11008158Y-22644531D01*
X11008158Y-22644531D02*
X11017682Y-22663579D01*
X11017682Y-22663579D02*
X11027205Y-22701674D01*
X11027205Y-22701674D02*
X11027205Y-22749293D01*
X11027205Y-22749293D02*
X11017682Y-22787388D01*
X11017682Y-22787388D02*
X11008158Y-22806436D01*
X11008158Y-22806436D02*
X10998634Y-22815960D01*
X10998634Y-22815960D02*
X10979586Y-22825484D01*
X10979586Y-22825484D02*
X10960539Y-22825484D01*
X10960539Y-22825484D02*
X10941491Y-22815960D01*
X10941491Y-22815960D02*
X10931967Y-22806436D01*
X10931967Y-22806436D02*
X10922444Y-22787388D01*
X10922444Y-22787388D02*
X10912920Y-22749293D01*
X10912920Y-22749293D02*
X10912920Y-22701674D01*
X10912920Y-22701674D02*
X10922444Y-22663579D01*
X10922444Y-22663579D02*
X10931967Y-22644531D01*
X10931967Y-22644531D02*
X10941491Y-22635008D01*
X10941491Y-22635008D02*
X10960539Y-22625484D01*
X11112920Y-22825484D02*
X11112920Y-22692150D01*
X11112920Y-22711198D02*
X11122444Y-22701674D01*
X11122444Y-22701674D02*
X11141491Y-22692150D01*
X11141491Y-22692150D02*
X11170063Y-22692150D01*
X11170063Y-22692150D02*
X11189110Y-22701674D01*
X11189110Y-22701674D02*
X11198634Y-22720722D01*
X11198634Y-22720722D02*
X11198634Y-22825484D01*
X11198634Y-22720722D02*
X11208158Y-22701674D01*
X11208158Y-22701674D02*
X11227205Y-22692150D01*
X11227205Y-22692150D02*
X11255777Y-22692150D01*
X11255777Y-22692150D02*
X11274824Y-22701674D01*
X11274824Y-22701674D02*
X11284348Y-22720722D01*
X11284348Y-22720722D02*
X11284348Y-22825484D01*
X11379586Y-22825484D02*
X11379586Y-22692150D01*
X11379586Y-22711198D02*
X11389110Y-22701674D01*
X11389110Y-22701674D02*
X11408158Y-22692150D01*
X11408158Y-22692150D02*
X11436729Y-22692150D01*
X11436729Y-22692150D02*
X11455777Y-22701674D01*
X11455777Y-22701674D02*
X11465301Y-22720722D01*
X11465301Y-22720722D02*
X11465301Y-22825484D01*
X11465301Y-22720722D02*
X11474824Y-22701674D01*
X11474824Y-22701674D02*
X11493872Y-22692150D01*
X11493872Y-22692150D02*
X11522443Y-22692150D01*
X11522443Y-22692150D02*
X11541491Y-22701674D01*
X11541491Y-22701674D02*
X11551015Y-22720722D01*
X11551015Y-22720722D02*
X11551015Y-22825484D01*
X11941491Y-22615960D02*
X11770063Y-22873103D01*
X12198634Y-22625484D02*
X12217682Y-22625484D01*
X12217682Y-22625484D02*
X12236729Y-22635008D01*
X12236729Y-22635008D02*
X12246253Y-22644531D01*
X12246253Y-22644531D02*
X12255777Y-22663579D01*
X12255777Y-22663579D02*
X12265301Y-22701674D01*
X12265301Y-22701674D02*
X12265301Y-22749293D01*
X12265301Y-22749293D02*
X12255777Y-22787388D01*
X12255777Y-22787388D02*
X12246253Y-22806436D01*
X12246253Y-22806436D02*
X12236729Y-22815960D01*
X12236729Y-22815960D02*
X12217682Y-22825484D01*
X12217682Y-22825484D02*
X12198634Y-22825484D01*
X12198634Y-22825484D02*
X12179586Y-22815960D01*
X12179586Y-22815960D02*
X12170063Y-22806436D01*
X12170063Y-22806436D02*
X12160539Y-22787388D01*
X12160539Y-22787388D02*
X12151015Y-22749293D01*
X12151015Y-22749293D02*
X12151015Y-22701674D01*
X12151015Y-22701674D02*
X12160539Y-22663579D01*
X12160539Y-22663579D02*
X12170063Y-22644531D01*
X12170063Y-22644531D02*
X12179586Y-22635008D01*
X12179586Y-22635008D02*
X12198634Y-22625484D01*
X12351015Y-22806436D02*
X12360539Y-22815960D01*
X12360539Y-22815960D02*
X12351015Y-22825484D01*
X12351015Y-22825484D02*
X12341491Y-22815960D01*
X12341491Y-22815960D02*
X12351015Y-22806436D01*
X12351015Y-22806436D02*
X12351015Y-22825484D01*
X12484348Y-22625484D02*
X12503396Y-22625484D01*
X12503396Y-22625484D02*
X12522444Y-22635008D01*
X12522444Y-22635008D02*
X12531967Y-22644531D01*
X12531967Y-22644531D02*
X12541491Y-22663579D01*
X12541491Y-22663579D02*
X12551015Y-22701674D01*
X12551015Y-22701674D02*
X12551015Y-22749293D01*
X12551015Y-22749293D02*
X12541491Y-22787388D01*
X12541491Y-22787388D02*
X12531967Y-22806436D01*
X12531967Y-22806436D02*
X12522444Y-22815960D01*
X12522444Y-22815960D02*
X12503396Y-22825484D01*
X12503396Y-22825484D02*
X12484348Y-22825484D01*
X12484348Y-22825484D02*
X12465301Y-22815960D01*
X12465301Y-22815960D02*
X12455777Y-22806436D01*
X12455777Y-22806436D02*
X12446253Y-22787388D01*
X12446253Y-22787388D02*
X12436729Y-22749293D01*
X12436729Y-22749293D02*
X12436729Y-22701674D01*
X12436729Y-22701674D02*
X12446253Y-22663579D01*
X12446253Y-22663579D02*
X12455777Y-22644531D01*
X12455777Y-22644531D02*
X12465301Y-22635008D01*
X12465301Y-22635008D02*
X12484348Y-22625484D01*
X12617682Y-22625484D02*
X12741491Y-22625484D01*
X12741491Y-22625484D02*
X12674825Y-22701674D01*
X12674825Y-22701674D02*
X12703396Y-22701674D01*
X12703396Y-22701674D02*
X12722444Y-22711198D01*
X12722444Y-22711198D02*
X12731967Y-22720722D01*
X12731967Y-22720722D02*
X12741491Y-22739769D01*
X12741491Y-22739769D02*
X12741491Y-22787388D01*
X12741491Y-22787388D02*
X12731967Y-22806436D01*
X12731967Y-22806436D02*
X12722444Y-22815960D01*
X12722444Y-22815960D02*
X12703396Y-22825484D01*
X12703396Y-22825484D02*
X12646253Y-22825484D01*
X12646253Y-22825484D02*
X12627206Y-22815960D01*
X12627206Y-22815960D02*
X12617682Y-22806436D01*
X12836729Y-22825484D02*
X12874825Y-22825484D01*
X12874825Y-22825484D02*
X12893872Y-22815960D01*
X12893872Y-22815960D02*
X12903396Y-22806436D01*
X12903396Y-22806436D02*
X12922444Y-22777865D01*
X12922444Y-22777865D02*
X12931967Y-22739769D01*
X12931967Y-22739769D02*
X12931967Y-22663579D01*
X12931967Y-22663579D02*
X12922444Y-22644531D01*
X12922444Y-22644531D02*
X12912920Y-22635008D01*
X12912920Y-22635008D02*
X12893872Y-22625484D01*
X12893872Y-22625484D02*
X12855777Y-22625484D01*
X12855777Y-22625484D02*
X12836729Y-22635008D01*
X12836729Y-22635008D02*
X12827206Y-22644531D01*
X12827206Y-22644531D02*
X12817682Y-22663579D01*
X12817682Y-22663579D02*
X12817682Y-22711198D01*
X12817682Y-22711198D02*
X12827206Y-22730246D01*
X12827206Y-22730246D02*
X12836729Y-22739769D01*
X12836729Y-22739769D02*
X12855777Y-22749293D01*
X12855777Y-22749293D02*
X12893872Y-22749293D01*
X12893872Y-22749293D02*
X12912920Y-22739769D01*
X12912920Y-22739769D02*
X12922444Y-22730246D01*
X12922444Y-22730246D02*
X12931967Y-22711198D01*
X13103396Y-22692150D02*
X13103396Y-22825484D01*
X13055777Y-22615960D02*
X13008158Y-22758817D01*
X13008158Y-22758817D02*
X13131967Y-22758817D01*
X13198634Y-22625484D02*
X13198634Y-22663579D01*
X13274825Y-22625484D02*
X13274825Y-22663579D01*
X13570063Y-22901674D02*
X13560539Y-22892150D01*
X13560539Y-22892150D02*
X13541491Y-22863579D01*
X13541491Y-22863579D02*
X13531968Y-22844531D01*
X13531968Y-22844531D02*
X13522444Y-22815960D01*
X13522444Y-22815960D02*
X13512920Y-22768341D01*
X13512920Y-22768341D02*
X13512920Y-22730246D01*
X13512920Y-22730246D02*
X13522444Y-22682627D01*
X13522444Y-22682627D02*
X13531968Y-22654055D01*
X13531968Y-22654055D02*
X13541491Y-22635008D01*
X13541491Y-22635008D02*
X13560539Y-22606436D01*
X13560539Y-22606436D02*
X13570063Y-22596912D01*
X13636729Y-22644531D02*
X13646253Y-22635008D01*
X13646253Y-22635008D02*
X13665301Y-22625484D01*
X13665301Y-22625484D02*
X13712920Y-22625484D01*
X13712920Y-22625484D02*
X13731968Y-22635008D01*
X13731968Y-22635008D02*
X13741491Y-22644531D01*
X13741491Y-22644531D02*
X13751015Y-22663579D01*
X13751015Y-22663579D02*
X13751015Y-22682627D01*
X13751015Y-22682627D02*
X13741491Y-22711198D01*
X13741491Y-22711198D02*
X13627206Y-22825484D01*
X13627206Y-22825484D02*
X13751015Y-22825484D01*
X13874825Y-22625484D02*
X13893872Y-22625484D01*
X13893872Y-22625484D02*
X13912920Y-22635008D01*
X13912920Y-22635008D02*
X13922444Y-22644531D01*
X13922444Y-22644531D02*
X13931968Y-22663579D01*
X13931968Y-22663579D02*
X13941491Y-22701674D01*
X13941491Y-22701674D02*
X13941491Y-22749293D01*
X13941491Y-22749293D02*
X13931968Y-22787388D01*
X13931968Y-22787388D02*
X13922444Y-22806436D01*
X13922444Y-22806436D02*
X13912920Y-22815960D01*
X13912920Y-22815960D02*
X13893872Y-22825484D01*
X13893872Y-22825484D02*
X13874825Y-22825484D01*
X13874825Y-22825484D02*
X13855777Y-22815960D01*
X13855777Y-22815960D02*
X13846253Y-22806436D01*
X13846253Y-22806436D02*
X13836729Y-22787388D01*
X13836729Y-22787388D02*
X13827206Y-22749293D01*
X13827206Y-22749293D02*
X13827206Y-22701674D01*
X13827206Y-22701674D02*
X13836729Y-22663579D01*
X13836729Y-22663579D02*
X13846253Y-22644531D01*
X13846253Y-22644531D02*
X13855777Y-22635008D01*
X13855777Y-22635008D02*
X13874825Y-22625484D01*
X14179587Y-22825484D02*
X14179587Y-22625484D01*
X14265301Y-22825484D02*
X14265301Y-22720722D01*
X14265301Y-22720722D02*
X14255777Y-22701674D01*
X14255777Y-22701674D02*
X14236730Y-22692150D01*
X14236730Y-22692150D02*
X14208158Y-22692150D01*
X14208158Y-22692150D02*
X14189110Y-22701674D01*
X14189110Y-22701674D02*
X14179587Y-22711198D01*
X14389110Y-22825484D02*
X14370063Y-22815960D01*
X14370063Y-22815960D02*
X14360539Y-22806436D01*
X14360539Y-22806436D02*
X14351015Y-22787388D01*
X14351015Y-22787388D02*
X14351015Y-22730246D01*
X14351015Y-22730246D02*
X14360539Y-22711198D01*
X14360539Y-22711198D02*
X14370063Y-22701674D01*
X14370063Y-22701674D02*
X14389110Y-22692150D01*
X14389110Y-22692150D02*
X14417682Y-22692150D01*
X14417682Y-22692150D02*
X14436730Y-22701674D01*
X14436730Y-22701674D02*
X14446253Y-22711198D01*
X14446253Y-22711198D02*
X14455777Y-22730246D01*
X14455777Y-22730246D02*
X14455777Y-22787388D01*
X14455777Y-22787388D02*
X14446253Y-22806436D01*
X14446253Y-22806436D02*
X14436730Y-22815960D01*
X14436730Y-22815960D02*
X14417682Y-22825484D01*
X14417682Y-22825484D02*
X14389110Y-22825484D01*
X14570063Y-22825484D02*
X14551015Y-22815960D01*
X14551015Y-22815960D02*
X14541491Y-22796912D01*
X14541491Y-22796912D02*
X14541491Y-22625484D01*
X14722444Y-22815960D02*
X14703396Y-22825484D01*
X14703396Y-22825484D02*
X14665301Y-22825484D01*
X14665301Y-22825484D02*
X14646253Y-22815960D01*
X14646253Y-22815960D02*
X14636730Y-22796912D01*
X14636730Y-22796912D02*
X14636730Y-22720722D01*
X14636730Y-22720722D02*
X14646253Y-22701674D01*
X14646253Y-22701674D02*
X14665301Y-22692150D01*
X14665301Y-22692150D02*
X14703396Y-22692150D01*
X14703396Y-22692150D02*
X14722444Y-22701674D01*
X14722444Y-22701674D02*
X14731968Y-22720722D01*
X14731968Y-22720722D02*
X14731968Y-22739769D01*
X14731968Y-22739769D02*
X14636730Y-22758817D01*
X14808158Y-22815960D02*
X14827206Y-22825484D01*
X14827206Y-22825484D02*
X14865301Y-22825484D01*
X14865301Y-22825484D02*
X14884349Y-22815960D01*
X14884349Y-22815960D02*
X14893872Y-22796912D01*
X14893872Y-22796912D02*
X14893872Y-22787388D01*
X14893872Y-22787388D02*
X14884349Y-22768341D01*
X14884349Y-22768341D02*
X14865301Y-22758817D01*
X14865301Y-22758817D02*
X14836730Y-22758817D01*
X14836730Y-22758817D02*
X14817682Y-22749293D01*
X14817682Y-22749293D02*
X14808158Y-22730246D01*
X14808158Y-22730246D02*
X14808158Y-22720722D01*
X14808158Y-22720722D02*
X14817682Y-22701674D01*
X14817682Y-22701674D02*
X14836730Y-22692150D01*
X14836730Y-22692150D02*
X14865301Y-22692150D01*
X14865301Y-22692150D02*
X14884349Y-22701674D01*
X14960539Y-22901674D02*
X14970063Y-22892150D01*
X14970063Y-22892150D02*
X14989111Y-22863579D01*
X14989111Y-22863579D02*
X14998634Y-22844531D01*
X14998634Y-22844531D02*
X15008158Y-22815960D01*
X15008158Y-22815960D02*
X15017682Y-22768341D01*
X15017682Y-22768341D02*
X15017682Y-22730246D01*
X15017682Y-22730246D02*
X15008158Y-22682627D01*
X15008158Y-22682627D02*
X14998634Y-22654055D01*
X14998634Y-22654055D02*
X14989111Y-22635008D01*
X14989111Y-22635008D02*
X14970063Y-22606436D01*
X14970063Y-22606436D02*
X14960539Y-22596912D01*
D13*
X9944200Y-22947200D02*
X9944200Y-23048800D01*
X9893400Y-22998000D02*
X9995000Y-22998000D01*
D11*
X10360539Y-23089484D02*
X10246253Y-23089484D01*
X10303396Y-23089484D02*
X10303396Y-22889484D01*
X10303396Y-22889484D02*
X10284348Y-22918055D01*
X10284348Y-22918055D02*
X10265301Y-22937103D01*
X10265301Y-22937103D02*
X10246253Y-22946627D01*
X10446253Y-23070436D02*
X10455777Y-23079960D01*
X10455777Y-23079960D02*
X10446253Y-23089484D01*
X10446253Y-23089484D02*
X10436729Y-23079960D01*
X10436729Y-23079960D02*
X10446253Y-23070436D01*
X10446253Y-23070436D02*
X10446253Y-23089484D01*
X10579586Y-22889484D02*
X10598634Y-22889484D01*
X10598634Y-22889484D02*
X10617682Y-22899008D01*
X10617682Y-22899008D02*
X10627205Y-22908531D01*
X10627205Y-22908531D02*
X10636729Y-22927579D01*
X10636729Y-22927579D02*
X10646253Y-22965674D01*
X10646253Y-22965674D02*
X10646253Y-23013293D01*
X10646253Y-23013293D02*
X10636729Y-23051388D01*
X10636729Y-23051388D02*
X10627205Y-23070436D01*
X10627205Y-23070436D02*
X10617682Y-23079960D01*
X10617682Y-23079960D02*
X10598634Y-23089484D01*
X10598634Y-23089484D02*
X10579586Y-23089484D01*
X10579586Y-23089484D02*
X10560539Y-23079960D01*
X10560539Y-23079960D02*
X10551015Y-23070436D01*
X10551015Y-23070436D02*
X10541491Y-23051388D01*
X10541491Y-23051388D02*
X10531967Y-23013293D01*
X10531967Y-23013293D02*
X10531967Y-22965674D01*
X10531967Y-22965674D02*
X10541491Y-22927579D01*
X10541491Y-22927579D02*
X10551015Y-22908531D01*
X10551015Y-22908531D02*
X10560539Y-22899008D01*
X10560539Y-22899008D02*
X10579586Y-22889484D01*
X10836729Y-23089484D02*
X10722444Y-23089484D01*
X10779586Y-23089484D02*
X10779586Y-22889484D01*
X10779586Y-22889484D02*
X10760539Y-22918055D01*
X10760539Y-22918055D02*
X10741491Y-22937103D01*
X10741491Y-22937103D02*
X10722444Y-22946627D01*
X11008158Y-22889484D02*
X10970063Y-22889484D01*
X10970063Y-22889484D02*
X10951015Y-22899008D01*
X10951015Y-22899008D02*
X10941491Y-22908531D01*
X10941491Y-22908531D02*
X10922444Y-22937103D01*
X10922444Y-22937103D02*
X10912920Y-22975198D01*
X10912920Y-22975198D02*
X10912920Y-23051388D01*
X10912920Y-23051388D02*
X10922444Y-23070436D01*
X10922444Y-23070436D02*
X10931967Y-23079960D01*
X10931967Y-23079960D02*
X10951015Y-23089484D01*
X10951015Y-23089484D02*
X10989110Y-23089484D01*
X10989110Y-23089484D02*
X11008158Y-23079960D01*
X11008158Y-23079960D02*
X11017682Y-23070436D01*
X11017682Y-23070436D02*
X11027205Y-23051388D01*
X11027205Y-23051388D02*
X11027205Y-23003769D01*
X11027205Y-23003769D02*
X11017682Y-22984722D01*
X11017682Y-22984722D02*
X11008158Y-22975198D01*
X11008158Y-22975198D02*
X10989110Y-22965674D01*
X10989110Y-22965674D02*
X10951015Y-22965674D01*
X10951015Y-22965674D02*
X10931967Y-22975198D01*
X10931967Y-22975198D02*
X10922444Y-22984722D01*
X10922444Y-22984722D02*
X10912920Y-23003769D01*
X11112920Y-23089484D02*
X11112920Y-22956150D01*
X11112920Y-22975198D02*
X11122444Y-22965674D01*
X11122444Y-22965674D02*
X11141491Y-22956150D01*
X11141491Y-22956150D02*
X11170063Y-22956150D01*
X11170063Y-22956150D02*
X11189110Y-22965674D01*
X11189110Y-22965674D02*
X11198634Y-22984722D01*
X11198634Y-22984722D02*
X11198634Y-23089484D01*
X11198634Y-22984722D02*
X11208158Y-22965674D01*
X11208158Y-22965674D02*
X11227205Y-22956150D01*
X11227205Y-22956150D02*
X11255777Y-22956150D01*
X11255777Y-22956150D02*
X11274824Y-22965674D01*
X11274824Y-22965674D02*
X11284348Y-22984722D01*
X11284348Y-22984722D02*
X11284348Y-23089484D01*
X11379586Y-23089484D02*
X11379586Y-22956150D01*
X11379586Y-22975198D02*
X11389110Y-22965674D01*
X11389110Y-22965674D02*
X11408158Y-22956150D01*
X11408158Y-22956150D02*
X11436729Y-22956150D01*
X11436729Y-22956150D02*
X11455777Y-22965674D01*
X11455777Y-22965674D02*
X11465301Y-22984722D01*
X11465301Y-22984722D02*
X11465301Y-23089484D01*
X11465301Y-22984722D02*
X11474824Y-22965674D01*
X11474824Y-22965674D02*
X11493872Y-22956150D01*
X11493872Y-22956150D02*
X11522443Y-22956150D01*
X11522443Y-22956150D02*
X11541491Y-22965674D01*
X11541491Y-22965674D02*
X11551015Y-22984722D01*
X11551015Y-22984722D02*
X11551015Y-23089484D01*
X11941491Y-22879960D02*
X11770063Y-23137103D01*
X12198634Y-22889484D02*
X12217682Y-22889484D01*
X12217682Y-22889484D02*
X12236729Y-22899008D01*
X12236729Y-22899008D02*
X12246253Y-22908531D01*
X12246253Y-22908531D02*
X12255777Y-22927579D01*
X12255777Y-22927579D02*
X12265301Y-22965674D01*
X12265301Y-22965674D02*
X12265301Y-23013293D01*
X12265301Y-23013293D02*
X12255777Y-23051388D01*
X12255777Y-23051388D02*
X12246253Y-23070436D01*
X12246253Y-23070436D02*
X12236729Y-23079960D01*
X12236729Y-23079960D02*
X12217682Y-23089484D01*
X12217682Y-23089484D02*
X12198634Y-23089484D01*
X12198634Y-23089484D02*
X12179586Y-23079960D01*
X12179586Y-23079960D02*
X12170063Y-23070436D01*
X12170063Y-23070436D02*
X12160539Y-23051388D01*
X12160539Y-23051388D02*
X12151015Y-23013293D01*
X12151015Y-23013293D02*
X12151015Y-22965674D01*
X12151015Y-22965674D02*
X12160539Y-22927579D01*
X12160539Y-22927579D02*
X12170063Y-22908531D01*
X12170063Y-22908531D02*
X12179586Y-22899008D01*
X12179586Y-22899008D02*
X12198634Y-22889484D01*
X12351015Y-23070436D02*
X12360539Y-23079960D01*
X12360539Y-23079960D02*
X12351015Y-23089484D01*
X12351015Y-23089484D02*
X12341491Y-23079960D01*
X12341491Y-23079960D02*
X12351015Y-23070436D01*
X12351015Y-23070436D02*
X12351015Y-23089484D01*
X12484348Y-22889484D02*
X12503396Y-22889484D01*
X12503396Y-22889484D02*
X12522444Y-22899008D01*
X12522444Y-22899008D02*
X12531967Y-22908531D01*
X12531967Y-22908531D02*
X12541491Y-22927579D01*
X12541491Y-22927579D02*
X12551015Y-22965674D01*
X12551015Y-22965674D02*
X12551015Y-23013293D01*
X12551015Y-23013293D02*
X12541491Y-23051388D01*
X12541491Y-23051388D02*
X12531967Y-23070436D01*
X12531967Y-23070436D02*
X12522444Y-23079960D01*
X12522444Y-23079960D02*
X12503396Y-23089484D01*
X12503396Y-23089484D02*
X12484348Y-23089484D01*
X12484348Y-23089484D02*
X12465301Y-23079960D01*
X12465301Y-23079960D02*
X12455777Y-23070436D01*
X12455777Y-23070436D02*
X12446253Y-23051388D01*
X12446253Y-23051388D02*
X12436729Y-23013293D01*
X12436729Y-23013293D02*
X12436729Y-22965674D01*
X12436729Y-22965674D02*
X12446253Y-22927579D01*
X12446253Y-22927579D02*
X12455777Y-22908531D01*
X12455777Y-22908531D02*
X12465301Y-22899008D01*
X12465301Y-22899008D02*
X12484348Y-22889484D01*
X12722444Y-22956150D02*
X12722444Y-23089484D01*
X12674825Y-22879960D02*
X12627206Y-23022817D01*
X12627206Y-23022817D02*
X12751015Y-23022817D01*
X12865301Y-22889484D02*
X12884348Y-22889484D01*
X12884348Y-22889484D02*
X12903396Y-22899008D01*
X12903396Y-22899008D02*
X12912920Y-22908531D01*
X12912920Y-22908531D02*
X12922444Y-22927579D01*
X12922444Y-22927579D02*
X12931967Y-22965674D01*
X12931967Y-22965674D02*
X12931967Y-23013293D01*
X12931967Y-23013293D02*
X12922444Y-23051388D01*
X12922444Y-23051388D02*
X12912920Y-23070436D01*
X12912920Y-23070436D02*
X12903396Y-23079960D01*
X12903396Y-23079960D02*
X12884348Y-23089484D01*
X12884348Y-23089484D02*
X12865301Y-23089484D01*
X12865301Y-23089484D02*
X12846253Y-23079960D01*
X12846253Y-23079960D02*
X12836729Y-23070436D01*
X12836729Y-23070436D02*
X12827206Y-23051388D01*
X12827206Y-23051388D02*
X12817682Y-23013293D01*
X12817682Y-23013293D02*
X12817682Y-22965674D01*
X12817682Y-22965674D02*
X12827206Y-22927579D01*
X12827206Y-22927579D02*
X12836729Y-22908531D01*
X12836729Y-22908531D02*
X12846253Y-22899008D01*
X12846253Y-22899008D02*
X12865301Y-22889484D01*
X13055777Y-22889484D02*
X13074825Y-22889484D01*
X13074825Y-22889484D02*
X13093872Y-22899008D01*
X13093872Y-22899008D02*
X13103396Y-22908531D01*
X13103396Y-22908531D02*
X13112920Y-22927579D01*
X13112920Y-22927579D02*
X13122444Y-22965674D01*
X13122444Y-22965674D02*
X13122444Y-23013293D01*
X13122444Y-23013293D02*
X13112920Y-23051388D01*
X13112920Y-23051388D02*
X13103396Y-23070436D01*
X13103396Y-23070436D02*
X13093872Y-23079960D01*
X13093872Y-23079960D02*
X13074825Y-23089484D01*
X13074825Y-23089484D02*
X13055777Y-23089484D01*
X13055777Y-23089484D02*
X13036729Y-23079960D01*
X13036729Y-23079960D02*
X13027206Y-23070436D01*
X13027206Y-23070436D02*
X13017682Y-23051388D01*
X13017682Y-23051388D02*
X13008158Y-23013293D01*
X13008158Y-23013293D02*
X13008158Y-22965674D01*
X13008158Y-22965674D02*
X13017682Y-22927579D01*
X13017682Y-22927579D02*
X13027206Y-22908531D01*
X13027206Y-22908531D02*
X13036729Y-22899008D01*
X13036729Y-22899008D02*
X13055777Y-22889484D01*
X13198634Y-22889484D02*
X13198634Y-22927579D01*
X13274825Y-22889484D02*
X13274825Y-22927579D01*
X13570063Y-23165674D02*
X13560539Y-23156150D01*
X13560539Y-23156150D02*
X13541491Y-23127579D01*
X13541491Y-23127579D02*
X13531968Y-23108531D01*
X13531968Y-23108531D02*
X13522444Y-23079960D01*
X13522444Y-23079960D02*
X13512920Y-23032341D01*
X13512920Y-23032341D02*
X13512920Y-22994246D01*
X13512920Y-22994246D02*
X13522444Y-22946627D01*
X13522444Y-22946627D02*
X13531968Y-22918055D01*
X13531968Y-22918055D02*
X13541491Y-22899008D01*
X13541491Y-22899008D02*
X13560539Y-22870436D01*
X13560539Y-22870436D02*
X13570063Y-22860912D01*
X13741491Y-22889484D02*
X13646253Y-22889484D01*
X13646253Y-22889484D02*
X13636729Y-22984722D01*
X13636729Y-22984722D02*
X13646253Y-22975198D01*
X13646253Y-22975198D02*
X13665301Y-22965674D01*
X13665301Y-22965674D02*
X13712920Y-22965674D01*
X13712920Y-22965674D02*
X13731968Y-22975198D01*
X13731968Y-22975198D02*
X13741491Y-22984722D01*
X13741491Y-22984722D02*
X13751015Y-23003769D01*
X13751015Y-23003769D02*
X13751015Y-23051388D01*
X13751015Y-23051388D02*
X13741491Y-23070436D01*
X13741491Y-23070436D02*
X13731968Y-23079960D01*
X13731968Y-23079960D02*
X13712920Y-23089484D01*
X13712920Y-23089484D02*
X13665301Y-23089484D01*
X13665301Y-23089484D02*
X13646253Y-23079960D01*
X13646253Y-23079960D02*
X13636729Y-23070436D01*
X13874825Y-22889484D02*
X13893872Y-22889484D01*
X13893872Y-22889484D02*
X13912920Y-22899008D01*
X13912920Y-22899008D02*
X13922444Y-22908531D01*
X13922444Y-22908531D02*
X13931968Y-22927579D01*
X13931968Y-22927579D02*
X13941491Y-22965674D01*
X13941491Y-22965674D02*
X13941491Y-23013293D01*
X13941491Y-23013293D02*
X13931968Y-23051388D01*
X13931968Y-23051388D02*
X13922444Y-23070436D01*
X13922444Y-23070436D02*
X13912920Y-23079960D01*
X13912920Y-23079960D02*
X13893872Y-23089484D01*
X13893872Y-23089484D02*
X13874825Y-23089484D01*
X13874825Y-23089484D02*
X13855777Y-23079960D01*
X13855777Y-23079960D02*
X13846253Y-23070436D01*
X13846253Y-23070436D02*
X13836729Y-23051388D01*
X13836729Y-23051388D02*
X13827206Y-23013293D01*
X13827206Y-23013293D02*
X13827206Y-22965674D01*
X13827206Y-22965674D02*
X13836729Y-22927579D01*
X13836729Y-22927579D02*
X13846253Y-22908531D01*
X13846253Y-22908531D02*
X13855777Y-22899008D01*
X13855777Y-22899008D02*
X13874825Y-22889484D01*
X14179587Y-23089484D02*
X14179587Y-22889484D01*
X14265301Y-23089484D02*
X14265301Y-22984722D01*
X14265301Y-22984722D02*
X14255777Y-22965674D01*
X14255777Y-22965674D02*
X14236730Y-22956150D01*
X14236730Y-22956150D02*
X14208158Y-22956150D01*
X14208158Y-22956150D02*
X14189110Y-22965674D01*
X14189110Y-22965674D02*
X14179587Y-22975198D01*
X14389110Y-23089484D02*
X14370063Y-23079960D01*
X14370063Y-23079960D02*
X14360539Y-23070436D01*
X14360539Y-23070436D02*
X14351015Y-23051388D01*
X14351015Y-23051388D02*
X14351015Y-22994246D01*
X14351015Y-22994246D02*
X14360539Y-22975198D01*
X14360539Y-22975198D02*
X14370063Y-22965674D01*
X14370063Y-22965674D02*
X14389110Y-22956150D01*
X14389110Y-22956150D02*
X14417682Y-22956150D01*
X14417682Y-22956150D02*
X14436730Y-22965674D01*
X14436730Y-22965674D02*
X14446253Y-22975198D01*
X14446253Y-22975198D02*
X14455777Y-22994246D01*
X14455777Y-22994246D02*
X14455777Y-23051388D01*
X14455777Y-23051388D02*
X14446253Y-23070436D01*
X14446253Y-23070436D02*
X14436730Y-23079960D01*
X14436730Y-23079960D02*
X14417682Y-23089484D01*
X14417682Y-23089484D02*
X14389110Y-23089484D01*
X14570063Y-23089484D02*
X14551015Y-23079960D01*
X14551015Y-23079960D02*
X14541491Y-23060912D01*
X14541491Y-23060912D02*
X14541491Y-22889484D01*
X14722444Y-23079960D02*
X14703396Y-23089484D01*
X14703396Y-23089484D02*
X14665301Y-23089484D01*
X14665301Y-23089484D02*
X14646253Y-23079960D01*
X14646253Y-23079960D02*
X14636730Y-23060912D01*
X14636730Y-23060912D02*
X14636730Y-22984722D01*
X14636730Y-22984722D02*
X14646253Y-22965674D01*
X14646253Y-22965674D02*
X14665301Y-22956150D01*
X14665301Y-22956150D02*
X14703396Y-22956150D01*
X14703396Y-22956150D02*
X14722444Y-22965674D01*
X14722444Y-22965674D02*
X14731968Y-22984722D01*
X14731968Y-22984722D02*
X14731968Y-23003769D01*
X14731968Y-23003769D02*
X14636730Y-23022817D01*
X14808158Y-23079960D02*
X14827206Y-23089484D01*
X14827206Y-23089484D02*
X14865301Y-23089484D01*
X14865301Y-23089484D02*
X14884349Y-23079960D01*
X14884349Y-23079960D02*
X14893872Y-23060912D01*
X14893872Y-23060912D02*
X14893872Y-23051388D01*
X14893872Y-23051388D02*
X14884349Y-23032341D01*
X14884349Y-23032341D02*
X14865301Y-23022817D01*
X14865301Y-23022817D02*
X14836730Y-23022817D01*
X14836730Y-23022817D02*
X14817682Y-23013293D01*
X14817682Y-23013293D02*
X14808158Y-22994246D01*
X14808158Y-22994246D02*
X14808158Y-22984722D01*
X14808158Y-22984722D02*
X14817682Y-22965674D01*
X14817682Y-22965674D02*
X14836730Y-22956150D01*
X14836730Y-22956150D02*
X14865301Y-22956150D01*
X14865301Y-22956150D02*
X14884349Y-22965674D01*
X14960539Y-23165674D02*
X14970063Y-23156150D01*
X14970063Y-23156150D02*
X14989111Y-23127579D01*
X14989111Y-23127579D02*
X14998634Y-23108531D01*
X14998634Y-23108531D02*
X15008158Y-23079960D01*
X15008158Y-23079960D02*
X15017682Y-23032341D01*
X15017682Y-23032341D02*
X15017682Y-22994246D01*
X15017682Y-22994246D02*
X15008158Y-22946627D01*
X15008158Y-22946627D02*
X14998634Y-22918055D01*
X14998634Y-22918055D02*
X14989111Y-22899008D01*
X14989111Y-22899008D02*
X14970063Y-22870436D01*
X14970063Y-22870436D02*
X14960539Y-22860912D01*
M02*
