M48
; DRILL file {KiCad 7.0.8} date 2024 February 25, Sunday 18:09:14
; FORMAT={-:-/ absolute / metric / decimal}
; #@! TF.CreationDate,2024-02-25T18:09:14-05:00
; #@! TF.GenerationSoftware,Kicad,Pcbnew,7.0.8
; #@! TF.FileFunction,MixedPlating,1,2
FMAT,2
METRIC
; #@! TA.AperFunction,Plated,PTH,ComponentDrill
T1C0.889
; #@! TA.AperFunction,Plated,PTH,ComponentDrill
T2C1.100
%
G90
G05
T1
X102.36Y-195.0
X102.36Y-205.25
X102.36Y-215.5
X104.9Y-195.0
X104.9Y-205.25
X104.9Y-215.5
X107.44Y-195.0
X107.44Y-205.25
X107.44Y-215.5
T2
X104.9Y-112.0
X104.9Y-120.5
X104.9Y-123.5
X104.9Y-126.5
X104.9Y-135.0
X104.9Y-138.0
X104.9Y-146.5
X104.9Y-149.5
X104.9Y-152.5
X104.9Y-161.0
X104.9Y-164.0
X104.9Y-172.5
X104.9Y-175.5
X104.9Y-178.5
X104.9Y-187.0
T0
M30
