%TF.GenerationSoftware,KiCad,Pcbnew,7.0.8*%
%TF.CreationDate,2024-02-25T18:23:36-05:00*%
%TF.ProjectId,lichen-freddie-board,6c696368-656e-42d6-9672-65646469652d,1.0*%
%TF.SameCoordinates,Original*%
%TF.FileFunction,Drillmap*%
%TF.FilePolarity,Positive*%
%FSLAX45Y45*%
G04 Gerber Fmt 4.5, Leading zero omitted, Abs format (unit mm)*
G04 Created by KiCad (PCBNEW 7.0.8) date 2024-02-25 18:23:36*
%MOMM*%
%LPD*%
G01*
G04 APERTURE LIST*
%ADD10C,0.100000*%
%ADD11C,0.200000*%
%ADD12C,0.040000*%
%ADD13C,0.081280*%
%ADD14C,0.088900*%
%ADD15C,0.101600*%
%ADD16C,0.110000*%
%ADD17C,0.114300*%
%ADD18C,0.120000*%
%ADD19C,0.170000*%
G04 APERTURE END LIST*
D10*
X10125000Y-11025000D02*
X24065000Y-11025000D01*
X24065000Y-21825000D01*
X10125000Y-21825000D01*
X10125000Y-11025000D01*
D11*
D12*
X17754000Y-13631000D02*
X17794000Y-13671000D01*
X17794000Y-13631000D02*
X17754000Y-13671000D01*
X18471000Y-11305000D02*
X18511000Y-11345000D01*
X18511000Y-11305000D02*
X18471000Y-11345000D01*
X18496000Y-11511000D02*
X18536000Y-11551000D01*
X18536000Y-11511000D02*
X18496000Y-11551000D01*
X18688000Y-11708000D02*
X18728000Y-11748000D01*
X18728000Y-11708000D02*
X18688000Y-11748000D01*
X19452000Y-13644000D02*
X19492000Y-13684000D01*
X19492000Y-13644000D02*
X19452000Y-13684000D01*
X21433000Y-13611000D02*
X21473000Y-13651000D01*
X21473000Y-13611000D02*
X21433000Y-13651000D01*
X21673000Y-13943000D02*
X21713000Y-13983000D01*
X21713000Y-13943000D02*
X21673000Y-13983000D01*
X21970050Y-13820000D02*
X22010050Y-13860000D01*
X22010050Y-13820000D02*
X21970050Y-13860000D01*
X22067000Y-12117000D02*
X22107000Y-12157000D01*
X22107000Y-12117000D02*
X22067000Y-12157000D01*
X22353000Y-13400000D02*
X22393000Y-13440000D01*
X22393000Y-13400000D02*
X22353000Y-13440000D01*
X22460000Y-13458000D02*
X22500000Y-13498000D01*
X22500000Y-13458000D02*
X22460000Y-13498000D01*
X22896000Y-13942000D02*
X22936000Y-13982000D01*
X22936000Y-13942000D02*
X22896000Y-13982000D01*
X23152000Y-13663000D02*
X23192000Y-13703000D01*
X23192000Y-13663000D02*
X23152000Y-13703000D01*
D13*
X11058640Y-12423400D02*
G75*
G03*
X11058640Y-12423400I-40640J0D01*
G01*
X11312640Y-12423400D02*
G75*
G03*
X11312640Y-12423400I-40640J0D01*
G01*
X12758640Y-12423400D02*
G75*
G03*
X12758640Y-12423400I-40640J0D01*
G01*
X13012640Y-12423400D02*
G75*
G03*
X13012640Y-12423400I-40640J0D01*
G01*
X14458640Y-12423400D02*
G75*
G03*
X14458640Y-12423400I-40640J0D01*
G01*
X14712640Y-12423400D02*
G75*
G03*
X14712640Y-12423400I-40640J0D01*
G01*
X16158640Y-12423400D02*
G75*
G03*
X16158640Y-12423400I-40640J0D01*
G01*
X16412640Y-12423400D02*
G75*
G03*
X16412640Y-12423400I-40640J0D01*
G01*
X17858640Y-12423400D02*
G75*
G03*
X17858640Y-12423400I-40640J0D01*
G01*
X18112640Y-12423400D02*
G75*
G03*
X18112640Y-12423400I-40640J0D01*
G01*
X19558640Y-12423400D02*
G75*
G03*
X19558640Y-12423400I-40640J0D01*
G01*
X19812640Y-12423400D02*
G75*
G03*
X19812640Y-12423400I-40640J0D01*
G01*
X21258640Y-12423400D02*
G75*
G03*
X21258640Y-12423400I-40640J0D01*
G01*
X21512640Y-12423400D02*
G75*
G03*
X21512640Y-12423400I-40640J0D01*
G01*
X22958640Y-12423400D02*
G75*
G03*
X22958640Y-12423400I-40640J0D01*
G01*
X23212640Y-12423400D02*
G75*
G03*
X23212640Y-12423400I-40640J0D01*
G01*
D14*
X17671580Y-11566350D02*
X17671580Y-11655250D01*
X17627130Y-11610800D02*
X17716030Y-11610800D01*
D15*
X10796921Y-11549521D02*
X10796921Y-11477679D01*
X10725079Y-11477679D01*
X10725079Y-11549521D01*
X10796921Y-11549521D01*
X10796921Y-11828921D02*
X10796921Y-11757079D01*
X10725079Y-11757079D01*
X10725079Y-11828921D01*
X10796921Y-11828921D01*
X10855801Y-21067561D02*
X10855801Y-20995719D01*
X10783959Y-20995719D01*
X10783959Y-21067561D01*
X10855801Y-21067561D01*
X10855801Y-21519681D02*
X10855801Y-21447839D01*
X10783959Y-21447839D01*
X10783959Y-21519681D01*
X10855801Y-21519681D01*
X11050921Y-11529201D02*
X11050921Y-11457359D01*
X10979079Y-11457359D01*
X10979079Y-11529201D01*
X11050921Y-11529201D01*
X11050921Y-11808601D02*
X11050921Y-11736759D01*
X10979079Y-11736759D01*
X10979079Y-11808601D01*
X11050921Y-11808601D01*
X11304921Y-11549521D02*
X11304921Y-11477679D01*
X11233079Y-11477679D01*
X11233079Y-11549521D01*
X11304921Y-11549521D01*
X11304921Y-11828921D02*
X11304921Y-11757079D01*
X11233079Y-11757079D01*
X11233079Y-11828921D01*
X11304921Y-11828921D01*
X11506041Y-21067561D02*
X11506041Y-20995719D01*
X11434199Y-20995719D01*
X11434199Y-21067561D01*
X11506041Y-21067561D01*
X11506041Y-21519681D02*
X11506041Y-21447839D01*
X11434199Y-21447839D01*
X11434199Y-21519681D01*
X11506041Y-21519681D01*
X11558921Y-11529201D02*
X11558921Y-11457359D01*
X11487079Y-11457359D01*
X11487079Y-11529201D01*
X11558921Y-11529201D01*
X11558921Y-11808601D02*
X11558921Y-11736759D01*
X11487079Y-11736759D01*
X11487079Y-11808601D01*
X11558921Y-11808601D01*
X11812921Y-11549521D02*
X11812921Y-11477679D01*
X11741079Y-11477679D01*
X11741079Y-11549521D01*
X11812921Y-11549521D01*
X11812921Y-11828921D02*
X11812921Y-11757079D01*
X11741079Y-11757079D01*
X11741079Y-11828921D01*
X11812921Y-11828921D01*
X12555801Y-21067561D02*
X12555801Y-20995719D01*
X12483959Y-20995719D01*
X12483959Y-21067561D01*
X12555801Y-21067561D01*
X12555801Y-21519681D02*
X12555801Y-21447839D01*
X12483959Y-21447839D01*
X12483959Y-21519681D01*
X12555801Y-21519681D01*
X13206041Y-21067561D02*
X13206041Y-20995719D01*
X13134199Y-20995719D01*
X13134199Y-21067561D01*
X13206041Y-21067561D01*
X13206041Y-21519681D02*
X13206041Y-21447839D01*
X13134199Y-21447839D01*
X13134199Y-21519681D01*
X13206041Y-21519681D01*
X14255801Y-21067561D02*
X14255801Y-20995719D01*
X14183959Y-20995719D01*
X14183959Y-21067561D01*
X14255801Y-21067561D01*
X14255801Y-21519681D02*
X14255801Y-21447839D01*
X14183959Y-21447839D01*
X14183959Y-21519681D01*
X14255801Y-21519681D01*
X14906041Y-21067561D02*
X14906041Y-20995719D01*
X14834199Y-20995719D01*
X14834199Y-21067561D01*
X14906041Y-21067561D01*
X14906041Y-21519681D02*
X14906041Y-21447839D01*
X14834199Y-21447839D01*
X14834199Y-21519681D01*
X14906041Y-21519681D01*
X15955801Y-21067561D02*
X15955801Y-20995719D01*
X15883959Y-20995719D01*
X15883959Y-21067561D01*
X15955801Y-21067561D01*
X15955801Y-21519681D02*
X15955801Y-21447839D01*
X15883959Y-21447839D01*
X15883959Y-21519681D01*
X15955801Y-21519681D01*
X16606041Y-21067561D02*
X16606041Y-20995719D01*
X16534199Y-20995719D01*
X16534199Y-21067561D01*
X16606041Y-21067561D01*
X16606041Y-21519681D02*
X16606041Y-21447839D01*
X16534199Y-21447839D01*
X16534199Y-21519681D01*
X16606041Y-21519681D01*
X17655801Y-21067561D02*
X17655801Y-20995719D01*
X17583959Y-20995719D01*
X17583959Y-21067561D01*
X17655801Y-21067561D01*
X17655801Y-21519681D02*
X17655801Y-21447839D01*
X17583959Y-21447839D01*
X17583959Y-21519681D01*
X17655801Y-21519681D01*
X18306041Y-21067561D02*
X18306041Y-20995719D01*
X18234199Y-20995719D01*
X18234199Y-21067561D01*
X18306041Y-21067561D01*
X18306041Y-21519681D02*
X18306041Y-21447839D01*
X18234199Y-21447839D01*
X18234199Y-21519681D01*
X18306041Y-21519681D01*
X19355801Y-21067561D02*
X19355801Y-20995719D01*
X19283959Y-20995719D01*
X19283959Y-21067561D01*
X19355801Y-21067561D01*
X19355801Y-21519681D02*
X19355801Y-21447839D01*
X19283959Y-21447839D01*
X19283959Y-21519681D01*
X19355801Y-21519681D01*
X20006041Y-21067561D02*
X20006041Y-20995719D01*
X19934199Y-20995719D01*
X19934199Y-21067561D01*
X20006041Y-21067561D01*
X20006041Y-21519681D02*
X20006041Y-21447839D01*
X19934199Y-21447839D01*
X19934199Y-21519681D01*
X20006041Y-21519681D01*
X21055801Y-21067561D02*
X21055801Y-20995719D01*
X20983959Y-20995719D01*
X20983959Y-21067561D01*
X21055801Y-21067561D01*
X21055801Y-21519681D02*
X21055801Y-21447839D01*
X20983959Y-21447839D01*
X20983959Y-21519681D01*
X21055801Y-21519681D01*
X21706041Y-21067561D02*
X21706041Y-20995719D01*
X21634199Y-20995719D01*
X21634199Y-21067561D01*
X21706041Y-21067561D01*
X21706041Y-21519681D02*
X21706041Y-21447839D01*
X21634199Y-21447839D01*
X21634199Y-21519681D01*
X21706041Y-21519681D01*
X22755801Y-21067561D02*
X22755801Y-20995719D01*
X22683959Y-20995719D01*
X22683959Y-21067561D01*
X22755801Y-21067561D01*
X22755801Y-21519681D02*
X22755801Y-21447839D01*
X22683959Y-21447839D01*
X22683959Y-21519681D01*
X22755801Y-21519681D01*
X23406041Y-21067561D02*
X23406041Y-20995719D01*
X23334199Y-20995719D01*
X23334199Y-21067561D01*
X23406041Y-21067561D01*
X23406041Y-21519681D02*
X23406041Y-21447839D01*
X23334199Y-21447839D01*
X23334199Y-21519681D01*
X23406041Y-21519681D01*
D16*
X18878000Y-11382000D02*
X18933000Y-11327000D01*
X18878000Y-11272000D01*
X18823000Y-11327000D01*
X18878000Y-11382000D01*
X18878000Y-12906000D02*
X18933000Y-12851000D01*
X18878000Y-12796000D01*
X18823000Y-12851000D01*
X18878000Y-12906000D01*
X19132000Y-11382000D02*
X19187000Y-11327000D01*
X19132000Y-11272000D01*
X19077000Y-11327000D01*
X19132000Y-11382000D01*
X19132000Y-12906000D02*
X19187000Y-12851000D01*
X19132000Y-12796000D01*
X19077000Y-12851000D01*
X19132000Y-12906000D01*
X19386000Y-11382000D02*
X19441000Y-11327000D01*
X19386000Y-11272000D01*
X19331000Y-11327000D01*
X19386000Y-11382000D01*
X19386000Y-12906000D02*
X19441000Y-12851000D01*
X19386000Y-12796000D01*
X19331000Y-12851000D01*
X19386000Y-12906000D01*
X19640000Y-11382000D02*
X19695000Y-11327000D01*
X19640000Y-11272000D01*
X19585000Y-11327000D01*
X19640000Y-11382000D01*
X19640000Y-12906000D02*
X19695000Y-12851000D01*
X19640000Y-12796000D01*
X19585000Y-12851000D01*
X19640000Y-12906000D01*
X19894000Y-11382000D02*
X19949000Y-11327000D01*
X19894000Y-11272000D01*
X19839000Y-11327000D01*
X19894000Y-11382000D01*
X19894000Y-12906000D02*
X19949000Y-12851000D01*
X19894000Y-12796000D01*
X19839000Y-12851000D01*
X19894000Y-12906000D01*
X20148000Y-11382000D02*
X20203000Y-11327000D01*
X20148000Y-11272000D01*
X20093000Y-11327000D01*
X20148000Y-11382000D01*
X20148000Y-12906000D02*
X20203000Y-12851000D01*
X20148000Y-12796000D01*
X20093000Y-12851000D01*
X20148000Y-12906000D01*
X20402000Y-11382000D02*
X20457000Y-11327000D01*
X20402000Y-11272000D01*
X20347000Y-11327000D01*
X20402000Y-11382000D01*
X20402000Y-12906000D02*
X20457000Y-12851000D01*
X20402000Y-12796000D01*
X20347000Y-12851000D01*
X20402000Y-12906000D01*
X20656000Y-11382000D02*
X20711000Y-11327000D01*
X20656000Y-11272000D01*
X20601000Y-11327000D01*
X20656000Y-11382000D01*
X20656000Y-12906000D02*
X20711000Y-12851000D01*
X20656000Y-12796000D01*
X20601000Y-12851000D01*
X20656000Y-12906000D01*
X20910000Y-11382000D02*
X20965000Y-11327000D01*
X20910000Y-11272000D01*
X20855000Y-11327000D01*
X20910000Y-11382000D01*
X20910000Y-12906000D02*
X20965000Y-12851000D01*
X20910000Y-12796000D01*
X20855000Y-12851000D01*
X20910000Y-12906000D01*
X21164000Y-11382000D02*
X21219000Y-11327000D01*
X21164000Y-11272000D01*
X21109000Y-11327000D01*
X21164000Y-11382000D01*
X21164000Y-12906000D02*
X21219000Y-12851000D01*
X21164000Y-12796000D01*
X21109000Y-12851000D01*
X21164000Y-12906000D01*
X21418000Y-11382000D02*
X21473000Y-11327000D01*
X21418000Y-11272000D01*
X21363000Y-11327000D01*
X21418000Y-11382000D01*
X21418000Y-12906000D02*
X21473000Y-12851000D01*
X21418000Y-12796000D01*
X21363000Y-12851000D01*
X21418000Y-12906000D01*
X21672000Y-11382000D02*
X21727000Y-11327000D01*
X21672000Y-11272000D01*
X21617000Y-11327000D01*
X21672000Y-11382000D01*
X21672000Y-12906000D02*
X21727000Y-12851000D01*
X21672000Y-12796000D01*
X21617000Y-12851000D01*
X21672000Y-12906000D01*
X21926000Y-11382000D02*
X21981000Y-11327000D01*
X21926000Y-11272000D01*
X21871000Y-11327000D01*
X21926000Y-11382000D01*
X21926000Y-12906000D02*
X21981000Y-12851000D01*
X21926000Y-12796000D01*
X21871000Y-12851000D01*
X21926000Y-12906000D01*
X22180000Y-11382000D02*
X22235000Y-11327000D01*
X22180000Y-11272000D01*
X22125000Y-11327000D01*
X22180000Y-11382000D01*
X22180000Y-12906000D02*
X22235000Y-12851000D01*
X22180000Y-12796000D01*
X22125000Y-12851000D01*
X22180000Y-12906000D01*
X22434000Y-11382000D02*
X22489000Y-11327000D01*
X22434000Y-11272000D01*
X22379000Y-11327000D01*
X22434000Y-11382000D01*
X22434000Y-12906000D02*
X22489000Y-12851000D01*
X22434000Y-12796000D01*
X22379000Y-12851000D01*
X22434000Y-12906000D01*
X22688000Y-11382000D02*
X22743000Y-11327000D01*
X22688000Y-11272000D01*
X22633000Y-11327000D01*
X22688000Y-11382000D01*
X22688000Y-12906000D02*
X22743000Y-12851000D01*
X22688000Y-12796000D01*
X22633000Y-12851000D01*
X22688000Y-12906000D01*
X22942000Y-11382000D02*
X22997000Y-11327000D01*
X22942000Y-11272000D01*
X22887000Y-11327000D01*
X22942000Y-11382000D01*
X22942000Y-12906000D02*
X22997000Y-12851000D01*
X22942000Y-12796000D01*
X22887000Y-12851000D01*
X22942000Y-12906000D01*
X23196000Y-11382000D02*
X23251000Y-11327000D01*
X23196000Y-11272000D01*
X23141000Y-11327000D01*
X23196000Y-11382000D01*
X23196000Y-12906000D02*
X23251000Y-12851000D01*
X23196000Y-12796000D01*
X23141000Y-12851000D01*
X23196000Y-12906000D01*
X23450000Y-11382000D02*
X23505000Y-11327000D01*
X23450000Y-11272000D01*
X23395000Y-11327000D01*
X23450000Y-11382000D01*
X23450000Y-12906000D02*
X23505000Y-12851000D01*
X23450000Y-12796000D01*
X23395000Y-12851000D01*
X23450000Y-12906000D01*
X23704000Y-11382000D02*
X23759000Y-11327000D01*
X23704000Y-11272000D01*
X23649000Y-11327000D01*
X23704000Y-11382000D01*
X23704000Y-12906000D02*
X23759000Y-12851000D01*
X23704000Y-12796000D01*
X23649000Y-12851000D01*
X23704000Y-12906000D01*
D17*
X16517150Y-11553650D02*
X16631450Y-11667950D01*
X16631450Y-11553650D02*
X16517150Y-11667950D01*
X16631450Y-11610800D02*
G75*
G03*
X16631450Y-11610800I-57150J0D01*
G01*
X17373130Y-11553650D02*
X17487430Y-11667950D01*
X17487430Y-11553650D02*
X17373130Y-11667950D01*
X17487430Y-11610800D02*
G75*
G03*
X17487430Y-11610800I-57150J0D01*
G01*
D18*
X10910000Y-13215800D02*
X11030000Y-13335800D01*
X11030000Y-13215800D02*
X10910000Y-13335800D01*
X10970000Y-13215800D02*
X10970000Y-13335800D01*
X10910000Y-13275800D02*
X11030000Y-13275800D01*
X10910000Y-20565800D02*
X11030000Y-20685800D01*
X11030000Y-20565800D02*
X10910000Y-20685800D01*
X10970000Y-20565800D02*
X10970000Y-20685800D01*
X10910000Y-20625800D02*
X11030000Y-20625800D01*
X11260000Y-20565800D02*
X11380000Y-20685800D01*
X11380000Y-20565800D02*
X11260000Y-20685800D01*
X11320000Y-20565800D02*
X11320000Y-20685800D01*
X11260000Y-20625800D02*
X11380000Y-20625800D01*
X12610000Y-13215800D02*
X12730000Y-13335800D01*
X12730000Y-13215800D02*
X12610000Y-13335800D01*
X12670000Y-13215800D02*
X12670000Y-13335800D01*
X12610000Y-13275800D02*
X12730000Y-13275800D01*
X12610000Y-20565800D02*
X12730000Y-20685800D01*
X12730000Y-20565800D02*
X12610000Y-20685800D01*
X12670000Y-20565800D02*
X12670000Y-20685800D01*
X12610000Y-20625800D02*
X12730000Y-20625800D01*
X12960000Y-20565800D02*
X13080000Y-20685800D01*
X13080000Y-20565800D02*
X12960000Y-20685800D01*
X13020000Y-20565800D02*
X13020000Y-20685800D01*
X12960000Y-20625800D02*
X13080000Y-20625800D01*
X14310000Y-13215800D02*
X14430000Y-13335800D01*
X14430000Y-13215800D02*
X14310000Y-13335800D01*
X14370000Y-13215800D02*
X14370000Y-13335800D01*
X14310000Y-13275800D02*
X14430000Y-13275800D01*
X14310000Y-20565800D02*
X14430000Y-20685800D01*
X14430000Y-20565800D02*
X14310000Y-20685800D01*
X14370000Y-20565800D02*
X14370000Y-20685800D01*
X14310000Y-20625800D02*
X14430000Y-20625800D01*
X14660000Y-20565800D02*
X14780000Y-20685800D01*
X14780000Y-20565800D02*
X14660000Y-20685800D01*
X14720000Y-20565800D02*
X14720000Y-20685800D01*
X14660000Y-20625800D02*
X14780000Y-20625800D01*
X16010000Y-13215800D02*
X16130000Y-13335800D01*
X16130000Y-13215800D02*
X16010000Y-13335800D01*
X16070000Y-13215800D02*
X16070000Y-13335800D01*
X16010000Y-13275800D02*
X16130000Y-13275800D01*
X16010000Y-20565800D02*
X16130000Y-20685800D01*
X16130000Y-20565800D02*
X16010000Y-20685800D01*
X16070000Y-20565800D02*
X16070000Y-20685800D01*
X16010000Y-20625800D02*
X16130000Y-20625800D01*
X16360000Y-20565800D02*
X16480000Y-20685800D01*
X16480000Y-20565800D02*
X16360000Y-20685800D01*
X16420000Y-20565800D02*
X16420000Y-20685800D01*
X16360000Y-20625800D02*
X16480000Y-20625800D01*
X17710000Y-13215800D02*
X17830000Y-13335800D01*
X17830000Y-13215800D02*
X17710000Y-13335800D01*
X17770000Y-13215800D02*
X17770000Y-13335800D01*
X17710000Y-13275800D02*
X17830000Y-13275800D01*
X17710000Y-20565800D02*
X17830000Y-20685800D01*
X17830000Y-20565800D02*
X17710000Y-20685800D01*
X17770000Y-20565800D02*
X17770000Y-20685800D01*
X17710000Y-20625800D02*
X17830000Y-20625800D01*
X18060000Y-20565800D02*
X18180000Y-20685800D01*
X18180000Y-20565800D02*
X18060000Y-20685800D01*
X18120000Y-20565800D02*
X18120000Y-20685800D01*
X18060000Y-20625800D02*
X18180000Y-20625800D01*
X19410000Y-13215800D02*
X19530000Y-13335800D01*
X19530000Y-13215800D02*
X19410000Y-13335800D01*
X19470000Y-13215800D02*
X19470000Y-13335800D01*
X19410000Y-13275800D02*
X19530000Y-13275800D01*
X19410000Y-20565800D02*
X19530000Y-20685800D01*
X19530000Y-20565800D02*
X19410000Y-20685800D01*
X19470000Y-20565800D02*
X19470000Y-20685800D01*
X19410000Y-20625800D02*
X19530000Y-20625800D01*
X19760000Y-20565800D02*
X19880000Y-20685800D01*
X19880000Y-20565800D02*
X19760000Y-20685800D01*
X19820000Y-20565800D02*
X19820000Y-20685800D01*
X19760000Y-20625800D02*
X19880000Y-20625800D01*
X21110000Y-13215800D02*
X21230000Y-13335800D01*
X21230000Y-13215800D02*
X21110000Y-13335800D01*
X21170000Y-13215800D02*
X21170000Y-13335800D01*
X21110000Y-13275800D02*
X21230000Y-13275800D01*
X21110000Y-20565800D02*
X21230000Y-20685800D01*
X21230000Y-20565800D02*
X21110000Y-20685800D01*
X21170000Y-20565800D02*
X21170000Y-20685800D01*
X21110000Y-20625800D02*
X21230000Y-20625800D01*
X21460000Y-20565800D02*
X21580000Y-20685800D01*
X21580000Y-20565800D02*
X21460000Y-20685800D01*
X21520000Y-20565800D02*
X21520000Y-20685800D01*
X21460000Y-20625800D02*
X21580000Y-20625800D01*
X22810000Y-13215800D02*
X22930000Y-13335800D01*
X22930000Y-13215800D02*
X22810000Y-13335800D01*
X22870000Y-13215800D02*
X22870000Y-13335800D01*
X22810000Y-13275800D02*
X22930000Y-13275800D01*
X22810000Y-20565800D02*
X22930000Y-20685800D01*
X22930000Y-20565800D02*
X22810000Y-20685800D01*
X22870000Y-20565800D02*
X22870000Y-20685800D01*
X22810000Y-20625800D02*
X22930000Y-20625800D01*
X23160000Y-20565800D02*
X23280000Y-20685800D01*
X23280000Y-20565800D02*
X23160000Y-20685800D01*
X23220000Y-20565800D02*
X23220000Y-20685800D01*
X23160000Y-20625800D02*
X23280000Y-20625800D01*
D19*
X10640000Y-13725800D02*
X10810000Y-13895800D01*
X10810000Y-13725800D02*
X10640000Y-13895800D01*
X10785105Y-13870905D02*
X10785105Y-13750695D01*
X10664895Y-13750695D01*
X10664895Y-13870905D01*
X10785105Y-13870905D01*
X10640000Y-20005800D02*
X10810000Y-20175800D01*
X10810000Y-20005800D02*
X10640000Y-20175800D01*
X10785105Y-20150905D02*
X10785105Y-20030695D01*
X10664895Y-20030695D01*
X10664895Y-20150905D01*
X10785105Y-20150905D01*
X11480000Y-13605800D02*
X11650000Y-13775800D01*
X11650000Y-13605800D02*
X11480000Y-13775800D01*
X11625105Y-13750905D02*
X11625105Y-13630695D01*
X11504895Y-13630695D01*
X11504895Y-13750905D01*
X11625105Y-13750905D01*
X11480000Y-20125800D02*
X11650000Y-20295800D01*
X11650000Y-20125800D02*
X11480000Y-20295800D01*
X11625105Y-20270905D02*
X11625105Y-20150695D01*
X11504895Y-20150695D01*
X11504895Y-20270905D01*
X11625105Y-20270905D01*
X12340000Y-13725800D02*
X12510000Y-13895800D01*
X12510000Y-13725800D02*
X12340000Y-13895800D01*
X12485105Y-13870905D02*
X12485105Y-13750695D01*
X12364895Y-13750695D01*
X12364895Y-13870905D01*
X12485105Y-13870905D01*
X12340000Y-20005800D02*
X12510000Y-20175800D01*
X12510000Y-20005800D02*
X12340000Y-20175800D01*
X12485105Y-20150905D02*
X12485105Y-20030695D01*
X12364895Y-20030695D01*
X12364895Y-20150905D01*
X12485105Y-20150905D01*
X13180000Y-13605800D02*
X13350000Y-13775800D01*
X13350000Y-13605800D02*
X13180000Y-13775800D01*
X13325105Y-13750905D02*
X13325105Y-13630695D01*
X13204895Y-13630695D01*
X13204895Y-13750905D01*
X13325105Y-13750905D01*
X13180000Y-20125800D02*
X13350000Y-20295800D01*
X13350000Y-20125800D02*
X13180000Y-20295800D01*
X13325105Y-20270905D02*
X13325105Y-20150695D01*
X13204895Y-20150695D01*
X13204895Y-20270905D01*
X13325105Y-20270905D01*
X14040000Y-13725800D02*
X14210000Y-13895800D01*
X14210000Y-13725800D02*
X14040000Y-13895800D01*
X14185105Y-13870905D02*
X14185105Y-13750695D01*
X14064895Y-13750695D01*
X14064895Y-13870905D01*
X14185105Y-13870905D01*
X14040000Y-20005800D02*
X14210000Y-20175800D01*
X14210000Y-20005800D02*
X14040000Y-20175800D01*
X14185105Y-20150905D02*
X14185105Y-20030695D01*
X14064895Y-20030695D01*
X14064895Y-20150905D01*
X14185105Y-20150905D01*
X14880000Y-13605800D02*
X15050000Y-13775800D01*
X15050000Y-13605800D02*
X14880000Y-13775800D01*
X15025105Y-13750905D02*
X15025105Y-13630695D01*
X14904895Y-13630695D01*
X14904895Y-13750905D01*
X15025105Y-13750905D01*
X14880000Y-20125800D02*
X15050000Y-20295800D01*
X15050000Y-20125800D02*
X14880000Y-20295800D01*
X15025105Y-20270905D02*
X15025105Y-20150695D01*
X14904895Y-20150695D01*
X14904895Y-20270905D01*
X15025105Y-20270905D01*
X15740000Y-13725800D02*
X15910000Y-13895800D01*
X15910000Y-13725800D02*
X15740000Y-13895800D01*
X15885105Y-13870905D02*
X15885105Y-13750695D01*
X15764895Y-13750695D01*
X15764895Y-13870905D01*
X15885105Y-13870905D01*
X15740000Y-20005800D02*
X15910000Y-20175800D01*
X15910000Y-20005800D02*
X15740000Y-20175800D01*
X15885105Y-20150905D02*
X15885105Y-20030695D01*
X15764895Y-20030695D01*
X15764895Y-20150905D01*
X15885105Y-20150905D01*
X16580000Y-13605800D02*
X16750000Y-13775800D01*
X16750000Y-13605800D02*
X16580000Y-13775800D01*
X16725105Y-13750905D02*
X16725105Y-13630695D01*
X16604895Y-13630695D01*
X16604895Y-13750905D01*
X16725105Y-13750905D01*
X16580000Y-20125800D02*
X16750000Y-20295800D01*
X16750000Y-20125800D02*
X16580000Y-20295800D01*
X16725105Y-20270905D02*
X16725105Y-20150695D01*
X16604895Y-20150695D01*
X16604895Y-20270905D01*
X16725105Y-20270905D01*
X17440000Y-13725800D02*
X17610000Y-13895800D01*
X17610000Y-13725800D02*
X17440000Y-13895800D01*
X17585105Y-13870905D02*
X17585105Y-13750695D01*
X17464895Y-13750695D01*
X17464895Y-13870905D01*
X17585105Y-13870905D01*
X17440000Y-20005800D02*
X17610000Y-20175800D01*
X17610000Y-20005800D02*
X17440000Y-20175800D01*
X17585105Y-20150905D02*
X17585105Y-20030695D01*
X17464895Y-20030695D01*
X17464895Y-20150905D01*
X17585105Y-20150905D01*
X18280000Y-13605800D02*
X18450000Y-13775800D01*
X18450000Y-13605800D02*
X18280000Y-13775800D01*
X18425105Y-13750905D02*
X18425105Y-13630695D01*
X18304895Y-13630695D01*
X18304895Y-13750905D01*
X18425105Y-13750905D01*
X18280000Y-20125800D02*
X18450000Y-20295800D01*
X18450000Y-20125800D02*
X18280000Y-20295800D01*
X18425105Y-20270905D02*
X18425105Y-20150695D01*
X18304895Y-20150695D01*
X18304895Y-20270905D01*
X18425105Y-20270905D01*
X19140000Y-13725800D02*
X19310000Y-13895800D01*
X19310000Y-13725800D02*
X19140000Y-13895800D01*
X19285105Y-13870905D02*
X19285105Y-13750695D01*
X19164895Y-13750695D01*
X19164895Y-13870905D01*
X19285105Y-13870905D01*
X19140000Y-20005800D02*
X19310000Y-20175800D01*
X19310000Y-20005800D02*
X19140000Y-20175800D01*
X19285105Y-20150905D02*
X19285105Y-20030695D01*
X19164895Y-20030695D01*
X19164895Y-20150905D01*
X19285105Y-20150905D01*
X19980000Y-13605800D02*
X20150000Y-13775800D01*
X20150000Y-13605800D02*
X19980000Y-13775800D01*
X20125105Y-13750905D02*
X20125105Y-13630695D01*
X20004895Y-13630695D01*
X20004895Y-13750905D01*
X20125105Y-13750905D01*
X19980000Y-20125800D02*
X20150000Y-20295800D01*
X20150000Y-20125800D02*
X19980000Y-20295800D01*
X20125105Y-20270905D02*
X20125105Y-20150695D01*
X20004895Y-20150695D01*
X20004895Y-20270905D01*
X20125105Y-20270905D01*
X20840000Y-13725800D02*
X21010000Y-13895800D01*
X21010000Y-13725800D02*
X20840000Y-13895800D01*
X20985105Y-13870905D02*
X20985105Y-13750695D01*
X20864895Y-13750695D01*
X20864895Y-13870905D01*
X20985105Y-13870905D01*
X20840000Y-20005800D02*
X21010000Y-20175800D01*
X21010000Y-20005800D02*
X20840000Y-20175800D01*
X20985105Y-20150905D02*
X20985105Y-20030695D01*
X20864895Y-20030695D01*
X20864895Y-20150905D01*
X20985105Y-20150905D01*
X21680000Y-13605800D02*
X21850000Y-13775800D01*
X21850000Y-13605800D02*
X21680000Y-13775800D01*
X21825105Y-13750905D02*
X21825105Y-13630695D01*
X21704895Y-13630695D01*
X21704895Y-13750905D01*
X21825105Y-13750905D01*
X21680000Y-20125800D02*
X21850000Y-20295800D01*
X21850000Y-20125800D02*
X21680000Y-20295800D01*
X21825105Y-20270905D02*
X21825105Y-20150695D01*
X21704895Y-20150695D01*
X21704895Y-20270905D01*
X21825105Y-20270905D01*
X22540000Y-13725800D02*
X22710000Y-13895800D01*
X22710000Y-13725800D02*
X22540000Y-13895800D01*
X22685105Y-13870905D02*
X22685105Y-13750695D01*
X22564895Y-13750695D01*
X22564895Y-13870905D01*
X22685105Y-13870905D01*
X22540000Y-20005800D02*
X22710000Y-20175800D01*
X22710000Y-20005800D02*
X22540000Y-20175800D01*
X22685105Y-20150905D02*
X22685105Y-20030695D01*
X22564895Y-20030695D01*
X22564895Y-20150905D01*
X22685105Y-20150905D01*
X23380000Y-13605800D02*
X23550000Y-13775800D01*
X23550000Y-13605800D02*
X23380000Y-13775800D01*
X23525105Y-13750905D02*
X23525105Y-13630695D01*
X23404895Y-13630695D01*
X23404895Y-13750905D01*
X23525105Y-13750905D01*
X23380000Y-20125800D02*
X23550000Y-20295800D01*
X23550000Y-20125800D02*
X23380000Y-20295800D01*
X23525105Y-20270905D02*
X23525105Y-20150695D01*
X23404895Y-20150695D01*
X23404895Y-20270905D01*
X23525105Y-20270905D01*
D11*
X10380777Y-22141484D02*
X10380777Y-21941484D01*
X10380777Y-21941484D02*
X10428396Y-21941484D01*
X10428396Y-21941484D02*
X10456967Y-21951008D01*
X10456967Y-21951008D02*
X10476015Y-21970055D01*
X10476015Y-21970055D02*
X10485539Y-21989103D01*
X10485539Y-21989103D02*
X10495063Y-22027198D01*
X10495063Y-22027198D02*
X10495063Y-22055770D01*
X10495063Y-22055770D02*
X10485539Y-22093865D01*
X10485539Y-22093865D02*
X10476015Y-22112912D01*
X10476015Y-22112912D02*
X10456967Y-22131960D01*
X10456967Y-22131960D02*
X10428396Y-22141484D01*
X10428396Y-22141484D02*
X10380777Y-22141484D01*
X10580777Y-22141484D02*
X10580777Y-22008150D01*
X10580777Y-22046246D02*
X10590301Y-22027198D01*
X10590301Y-22027198D02*
X10599824Y-22017674D01*
X10599824Y-22017674D02*
X10618872Y-22008150D01*
X10618872Y-22008150D02*
X10637920Y-22008150D01*
X10704586Y-22141484D02*
X10704586Y-22008150D01*
X10704586Y-21941484D02*
X10695063Y-21951008D01*
X10695063Y-21951008D02*
X10704586Y-21960531D01*
X10704586Y-21960531D02*
X10714110Y-21951008D01*
X10714110Y-21951008D02*
X10704586Y-21941484D01*
X10704586Y-21941484D02*
X10704586Y-21960531D01*
X10828396Y-22141484D02*
X10809348Y-22131960D01*
X10809348Y-22131960D02*
X10799824Y-22112912D01*
X10799824Y-22112912D02*
X10799824Y-21941484D01*
X10933158Y-22141484D02*
X10914110Y-22131960D01*
X10914110Y-22131960D02*
X10904586Y-22112912D01*
X10904586Y-22112912D02*
X10904586Y-21941484D01*
X11161729Y-22141484D02*
X11161729Y-21941484D01*
X11161729Y-21941484D02*
X11228396Y-22084341D01*
X11228396Y-22084341D02*
X11295062Y-21941484D01*
X11295062Y-21941484D02*
X11295062Y-22141484D01*
X11476015Y-22141484D02*
X11476015Y-22036722D01*
X11476015Y-22036722D02*
X11466491Y-22017674D01*
X11466491Y-22017674D02*
X11447443Y-22008150D01*
X11447443Y-22008150D02*
X11409348Y-22008150D01*
X11409348Y-22008150D02*
X11390301Y-22017674D01*
X11476015Y-22131960D02*
X11456967Y-22141484D01*
X11456967Y-22141484D02*
X11409348Y-22141484D01*
X11409348Y-22141484D02*
X11390301Y-22131960D01*
X11390301Y-22131960D02*
X11380777Y-22112912D01*
X11380777Y-22112912D02*
X11380777Y-22093865D01*
X11380777Y-22093865D02*
X11390301Y-22074817D01*
X11390301Y-22074817D02*
X11409348Y-22065293D01*
X11409348Y-22065293D02*
X11456967Y-22065293D01*
X11456967Y-22065293D02*
X11476015Y-22055770D01*
X11571253Y-22008150D02*
X11571253Y-22208150D01*
X11571253Y-22017674D02*
X11590301Y-22008150D01*
X11590301Y-22008150D02*
X11628396Y-22008150D01*
X11628396Y-22008150D02*
X11647443Y-22017674D01*
X11647443Y-22017674D02*
X11656967Y-22027198D01*
X11656967Y-22027198D02*
X11666491Y-22046246D01*
X11666491Y-22046246D02*
X11666491Y-22103389D01*
X11666491Y-22103389D02*
X11656967Y-22122436D01*
X11656967Y-22122436D02*
X11647443Y-22131960D01*
X11647443Y-22131960D02*
X11628396Y-22141484D01*
X11628396Y-22141484D02*
X11590301Y-22141484D01*
X11590301Y-22141484D02*
X11571253Y-22131960D01*
X11752205Y-22122436D02*
X11761729Y-22131960D01*
X11761729Y-22131960D02*
X11752205Y-22141484D01*
X11752205Y-22141484D02*
X11742682Y-22131960D01*
X11742682Y-22131960D02*
X11752205Y-22122436D01*
X11752205Y-22122436D02*
X11752205Y-22141484D01*
X11752205Y-22017674D02*
X11761729Y-22027198D01*
X11761729Y-22027198D02*
X11752205Y-22036722D01*
X11752205Y-22036722D02*
X11742682Y-22027198D01*
X11742682Y-22027198D02*
X11752205Y-22017674D01*
X11752205Y-22017674D02*
X11752205Y-22036722D01*
D12*
X10080000Y-22450000D02*
X10120000Y-22490000D01*
X10120000Y-22450000D02*
X10080000Y-22490000D01*
D11*
X10418872Y-22361484D02*
X10437920Y-22361484D01*
X10437920Y-22361484D02*
X10456967Y-22371008D01*
X10456967Y-22371008D02*
X10466491Y-22380531D01*
X10466491Y-22380531D02*
X10476015Y-22399579D01*
X10476015Y-22399579D02*
X10485539Y-22437674D01*
X10485539Y-22437674D02*
X10485539Y-22485293D01*
X10485539Y-22485293D02*
X10476015Y-22523388D01*
X10476015Y-22523388D02*
X10466491Y-22542436D01*
X10466491Y-22542436D02*
X10456967Y-22551960D01*
X10456967Y-22551960D02*
X10437920Y-22561484D01*
X10437920Y-22561484D02*
X10418872Y-22561484D01*
X10418872Y-22561484D02*
X10399824Y-22551960D01*
X10399824Y-22551960D02*
X10390301Y-22542436D01*
X10390301Y-22542436D02*
X10380777Y-22523388D01*
X10380777Y-22523388D02*
X10371253Y-22485293D01*
X10371253Y-22485293D02*
X10371253Y-22437674D01*
X10371253Y-22437674D02*
X10380777Y-22399579D01*
X10380777Y-22399579D02*
X10390301Y-22380531D01*
X10390301Y-22380531D02*
X10399824Y-22371008D01*
X10399824Y-22371008D02*
X10418872Y-22361484D01*
X10571253Y-22542436D02*
X10580777Y-22551960D01*
X10580777Y-22551960D02*
X10571253Y-22561484D01*
X10571253Y-22561484D02*
X10561729Y-22551960D01*
X10561729Y-22551960D02*
X10571253Y-22542436D01*
X10571253Y-22542436D02*
X10571253Y-22561484D01*
X10752205Y-22428150D02*
X10752205Y-22561484D01*
X10704586Y-22351960D02*
X10656967Y-22494817D01*
X10656967Y-22494817D02*
X10780777Y-22494817D01*
X10895063Y-22361484D02*
X10914110Y-22361484D01*
X10914110Y-22361484D02*
X10933158Y-22371008D01*
X10933158Y-22371008D02*
X10942682Y-22380531D01*
X10942682Y-22380531D02*
X10952205Y-22399579D01*
X10952205Y-22399579D02*
X10961729Y-22437674D01*
X10961729Y-22437674D02*
X10961729Y-22485293D01*
X10961729Y-22485293D02*
X10952205Y-22523388D01*
X10952205Y-22523388D02*
X10942682Y-22542436D01*
X10942682Y-22542436D02*
X10933158Y-22551960D01*
X10933158Y-22551960D02*
X10914110Y-22561484D01*
X10914110Y-22561484D02*
X10895063Y-22561484D01*
X10895063Y-22561484D02*
X10876015Y-22551960D01*
X10876015Y-22551960D02*
X10866491Y-22542436D01*
X10866491Y-22542436D02*
X10856967Y-22523388D01*
X10856967Y-22523388D02*
X10847444Y-22485293D01*
X10847444Y-22485293D02*
X10847444Y-22437674D01*
X10847444Y-22437674D02*
X10856967Y-22399579D01*
X10856967Y-22399579D02*
X10866491Y-22380531D01*
X10866491Y-22380531D02*
X10876015Y-22371008D01*
X10876015Y-22371008D02*
X10895063Y-22361484D01*
X11085539Y-22361484D02*
X11104586Y-22361484D01*
X11104586Y-22361484D02*
X11123634Y-22371008D01*
X11123634Y-22371008D02*
X11133158Y-22380531D01*
X11133158Y-22380531D02*
X11142682Y-22399579D01*
X11142682Y-22399579D02*
X11152205Y-22437674D01*
X11152205Y-22437674D02*
X11152205Y-22485293D01*
X11152205Y-22485293D02*
X11142682Y-22523388D01*
X11142682Y-22523388D02*
X11133158Y-22542436D01*
X11133158Y-22542436D02*
X11123634Y-22551960D01*
X11123634Y-22551960D02*
X11104586Y-22561484D01*
X11104586Y-22561484D02*
X11085539Y-22561484D01*
X11085539Y-22561484D02*
X11066491Y-22551960D01*
X11066491Y-22551960D02*
X11056967Y-22542436D01*
X11056967Y-22542436D02*
X11047444Y-22523388D01*
X11047444Y-22523388D02*
X11037920Y-22485293D01*
X11037920Y-22485293D02*
X11037920Y-22437674D01*
X11037920Y-22437674D02*
X11047444Y-22399579D01*
X11047444Y-22399579D02*
X11056967Y-22380531D01*
X11056967Y-22380531D02*
X11066491Y-22371008D01*
X11066491Y-22371008D02*
X11085539Y-22361484D01*
X11237920Y-22561484D02*
X11237920Y-22428150D01*
X11237920Y-22447198D02*
X11247443Y-22437674D01*
X11247443Y-22437674D02*
X11266491Y-22428150D01*
X11266491Y-22428150D02*
X11295063Y-22428150D01*
X11295063Y-22428150D02*
X11314110Y-22437674D01*
X11314110Y-22437674D02*
X11323634Y-22456722D01*
X11323634Y-22456722D02*
X11323634Y-22561484D01*
X11323634Y-22456722D02*
X11333158Y-22437674D01*
X11333158Y-22437674D02*
X11352205Y-22428150D01*
X11352205Y-22428150D02*
X11380777Y-22428150D01*
X11380777Y-22428150D02*
X11399824Y-22437674D01*
X11399824Y-22437674D02*
X11409348Y-22456722D01*
X11409348Y-22456722D02*
X11409348Y-22561484D01*
X11504586Y-22561484D02*
X11504586Y-22428150D01*
X11504586Y-22447198D02*
X11514110Y-22437674D01*
X11514110Y-22437674D02*
X11533158Y-22428150D01*
X11533158Y-22428150D02*
X11561729Y-22428150D01*
X11561729Y-22428150D02*
X11580777Y-22437674D01*
X11580777Y-22437674D02*
X11590301Y-22456722D01*
X11590301Y-22456722D02*
X11590301Y-22561484D01*
X11590301Y-22456722D02*
X11599824Y-22437674D01*
X11599824Y-22437674D02*
X11618872Y-22428150D01*
X11618872Y-22428150D02*
X11647443Y-22428150D01*
X11647443Y-22428150D02*
X11666491Y-22437674D01*
X11666491Y-22437674D02*
X11676015Y-22456722D01*
X11676015Y-22456722D02*
X11676015Y-22561484D01*
X12066491Y-22351960D02*
X11895063Y-22609103D01*
X12323634Y-22361484D02*
X12342682Y-22361484D01*
X12342682Y-22361484D02*
X12361729Y-22371008D01*
X12361729Y-22371008D02*
X12371253Y-22380531D01*
X12371253Y-22380531D02*
X12380777Y-22399579D01*
X12380777Y-22399579D02*
X12390301Y-22437674D01*
X12390301Y-22437674D02*
X12390301Y-22485293D01*
X12390301Y-22485293D02*
X12380777Y-22523388D01*
X12380777Y-22523388D02*
X12371253Y-22542436D01*
X12371253Y-22542436D02*
X12361729Y-22551960D01*
X12361729Y-22551960D02*
X12342682Y-22561484D01*
X12342682Y-22561484D02*
X12323634Y-22561484D01*
X12323634Y-22561484D02*
X12304586Y-22551960D01*
X12304586Y-22551960D02*
X12295063Y-22542436D01*
X12295063Y-22542436D02*
X12285539Y-22523388D01*
X12285539Y-22523388D02*
X12276015Y-22485293D01*
X12276015Y-22485293D02*
X12276015Y-22437674D01*
X12276015Y-22437674D02*
X12285539Y-22399579D01*
X12285539Y-22399579D02*
X12295063Y-22380531D01*
X12295063Y-22380531D02*
X12304586Y-22371008D01*
X12304586Y-22371008D02*
X12323634Y-22361484D01*
X12476015Y-22542436D02*
X12485539Y-22551960D01*
X12485539Y-22551960D02*
X12476015Y-22561484D01*
X12476015Y-22561484D02*
X12466491Y-22551960D01*
X12466491Y-22551960D02*
X12476015Y-22542436D01*
X12476015Y-22542436D02*
X12476015Y-22561484D01*
X12609348Y-22361484D02*
X12628396Y-22361484D01*
X12628396Y-22361484D02*
X12647444Y-22371008D01*
X12647444Y-22371008D02*
X12656967Y-22380531D01*
X12656967Y-22380531D02*
X12666491Y-22399579D01*
X12666491Y-22399579D02*
X12676015Y-22437674D01*
X12676015Y-22437674D02*
X12676015Y-22485293D01*
X12676015Y-22485293D02*
X12666491Y-22523388D01*
X12666491Y-22523388D02*
X12656967Y-22542436D01*
X12656967Y-22542436D02*
X12647444Y-22551960D01*
X12647444Y-22551960D02*
X12628396Y-22561484D01*
X12628396Y-22561484D02*
X12609348Y-22561484D01*
X12609348Y-22561484D02*
X12590301Y-22551960D01*
X12590301Y-22551960D02*
X12580777Y-22542436D01*
X12580777Y-22542436D02*
X12571253Y-22523388D01*
X12571253Y-22523388D02*
X12561729Y-22485293D01*
X12561729Y-22485293D02*
X12561729Y-22437674D01*
X12561729Y-22437674D02*
X12571253Y-22399579D01*
X12571253Y-22399579D02*
X12580777Y-22380531D01*
X12580777Y-22380531D02*
X12590301Y-22371008D01*
X12590301Y-22371008D02*
X12609348Y-22361484D01*
X12866491Y-22561484D02*
X12752206Y-22561484D01*
X12809348Y-22561484D02*
X12809348Y-22361484D01*
X12809348Y-22361484D02*
X12790301Y-22390055D01*
X12790301Y-22390055D02*
X12771253Y-22409103D01*
X12771253Y-22409103D02*
X12752206Y-22418627D01*
X13047444Y-22361484D02*
X12952206Y-22361484D01*
X12952206Y-22361484D02*
X12942682Y-22456722D01*
X12942682Y-22456722D02*
X12952206Y-22447198D01*
X12952206Y-22447198D02*
X12971253Y-22437674D01*
X12971253Y-22437674D02*
X13018872Y-22437674D01*
X13018872Y-22437674D02*
X13037920Y-22447198D01*
X13037920Y-22447198D02*
X13047444Y-22456722D01*
X13047444Y-22456722D02*
X13056967Y-22475769D01*
X13056967Y-22475769D02*
X13056967Y-22523388D01*
X13056967Y-22523388D02*
X13047444Y-22542436D01*
X13047444Y-22542436D02*
X13037920Y-22551960D01*
X13037920Y-22551960D02*
X13018872Y-22561484D01*
X13018872Y-22561484D02*
X12971253Y-22561484D01*
X12971253Y-22561484D02*
X12952206Y-22551960D01*
X12952206Y-22551960D02*
X12942682Y-22542436D01*
X13123634Y-22361484D02*
X13256967Y-22361484D01*
X13256967Y-22361484D02*
X13171253Y-22561484D01*
X13323634Y-22361484D02*
X13323634Y-22399579D01*
X13399825Y-22361484D02*
X13399825Y-22399579D01*
X13695063Y-22637674D02*
X13685539Y-22628150D01*
X13685539Y-22628150D02*
X13666491Y-22599579D01*
X13666491Y-22599579D02*
X13656968Y-22580531D01*
X13656968Y-22580531D02*
X13647444Y-22551960D01*
X13647444Y-22551960D02*
X13637920Y-22504341D01*
X13637920Y-22504341D02*
X13637920Y-22466246D01*
X13637920Y-22466246D02*
X13647444Y-22418627D01*
X13647444Y-22418627D02*
X13656968Y-22390055D01*
X13656968Y-22390055D02*
X13666491Y-22371008D01*
X13666491Y-22371008D02*
X13685539Y-22342436D01*
X13685539Y-22342436D02*
X13695063Y-22332912D01*
X13876015Y-22561484D02*
X13761729Y-22561484D01*
X13818872Y-22561484D02*
X13818872Y-22361484D01*
X13818872Y-22361484D02*
X13799825Y-22390055D01*
X13799825Y-22390055D02*
X13780777Y-22409103D01*
X13780777Y-22409103D02*
X13761729Y-22418627D01*
X13942682Y-22361484D02*
X14066491Y-22361484D01*
X14066491Y-22361484D02*
X13999825Y-22437674D01*
X13999825Y-22437674D02*
X14028396Y-22437674D01*
X14028396Y-22437674D02*
X14047444Y-22447198D01*
X14047444Y-22447198D02*
X14056968Y-22456722D01*
X14056968Y-22456722D02*
X14066491Y-22475769D01*
X14066491Y-22475769D02*
X14066491Y-22523388D01*
X14066491Y-22523388D02*
X14056968Y-22542436D01*
X14056968Y-22542436D02*
X14047444Y-22551960D01*
X14047444Y-22551960D02*
X14028396Y-22561484D01*
X14028396Y-22561484D02*
X13971253Y-22561484D01*
X13971253Y-22561484D02*
X13952206Y-22551960D01*
X13952206Y-22551960D02*
X13942682Y-22542436D01*
X14304587Y-22561484D02*
X14304587Y-22361484D01*
X14390301Y-22561484D02*
X14390301Y-22456722D01*
X14390301Y-22456722D02*
X14380777Y-22437674D01*
X14380777Y-22437674D02*
X14361730Y-22428150D01*
X14361730Y-22428150D02*
X14333158Y-22428150D01*
X14333158Y-22428150D02*
X14314110Y-22437674D01*
X14314110Y-22437674D02*
X14304587Y-22447198D01*
X14514110Y-22561484D02*
X14495063Y-22551960D01*
X14495063Y-22551960D02*
X14485539Y-22542436D01*
X14485539Y-22542436D02*
X14476015Y-22523388D01*
X14476015Y-22523388D02*
X14476015Y-22466246D01*
X14476015Y-22466246D02*
X14485539Y-22447198D01*
X14485539Y-22447198D02*
X14495063Y-22437674D01*
X14495063Y-22437674D02*
X14514110Y-22428150D01*
X14514110Y-22428150D02*
X14542682Y-22428150D01*
X14542682Y-22428150D02*
X14561730Y-22437674D01*
X14561730Y-22437674D02*
X14571253Y-22447198D01*
X14571253Y-22447198D02*
X14580777Y-22466246D01*
X14580777Y-22466246D02*
X14580777Y-22523388D01*
X14580777Y-22523388D02*
X14571253Y-22542436D01*
X14571253Y-22542436D02*
X14561730Y-22551960D01*
X14561730Y-22551960D02*
X14542682Y-22561484D01*
X14542682Y-22561484D02*
X14514110Y-22561484D01*
X14695063Y-22561484D02*
X14676015Y-22551960D01*
X14676015Y-22551960D02*
X14666491Y-22532912D01*
X14666491Y-22532912D02*
X14666491Y-22361484D01*
X14847444Y-22551960D02*
X14828396Y-22561484D01*
X14828396Y-22561484D02*
X14790301Y-22561484D01*
X14790301Y-22561484D02*
X14771253Y-22551960D01*
X14771253Y-22551960D02*
X14761730Y-22532912D01*
X14761730Y-22532912D02*
X14761730Y-22456722D01*
X14761730Y-22456722D02*
X14771253Y-22437674D01*
X14771253Y-22437674D02*
X14790301Y-22428150D01*
X14790301Y-22428150D02*
X14828396Y-22428150D01*
X14828396Y-22428150D02*
X14847444Y-22437674D01*
X14847444Y-22437674D02*
X14856968Y-22456722D01*
X14856968Y-22456722D02*
X14856968Y-22475769D01*
X14856968Y-22475769D02*
X14761730Y-22494817D01*
X14933158Y-22551960D02*
X14952206Y-22561484D01*
X14952206Y-22561484D02*
X14990301Y-22561484D01*
X14990301Y-22561484D02*
X15009349Y-22551960D01*
X15009349Y-22551960D02*
X15018872Y-22532912D01*
X15018872Y-22532912D02*
X15018872Y-22523388D01*
X15018872Y-22523388D02*
X15009349Y-22504341D01*
X15009349Y-22504341D02*
X14990301Y-22494817D01*
X14990301Y-22494817D02*
X14961730Y-22494817D01*
X14961730Y-22494817D02*
X14942682Y-22485293D01*
X14942682Y-22485293D02*
X14933158Y-22466246D01*
X14933158Y-22466246D02*
X14933158Y-22456722D01*
X14933158Y-22456722D02*
X14942682Y-22437674D01*
X14942682Y-22437674D02*
X14961730Y-22428150D01*
X14961730Y-22428150D02*
X14990301Y-22428150D01*
X14990301Y-22428150D02*
X15009349Y-22437674D01*
X15085539Y-22637674D02*
X15095063Y-22628150D01*
X15095063Y-22628150D02*
X15114111Y-22599579D01*
X15114111Y-22599579D02*
X15123634Y-22580531D01*
X15123634Y-22580531D02*
X15133158Y-22551960D01*
X15133158Y-22551960D02*
X15142682Y-22504341D01*
X15142682Y-22504341D02*
X15142682Y-22466246D01*
X15142682Y-22466246D02*
X15133158Y-22418627D01*
X15133158Y-22418627D02*
X15123634Y-22390055D01*
X15123634Y-22390055D02*
X15114111Y-22371008D01*
X15114111Y-22371008D02*
X15095063Y-22342436D01*
X15095063Y-22342436D02*
X15085539Y-22332912D01*
D13*
X10120000Y-22734000D02*
G75*
G03*
X10120000Y-22734000I-40640J0D01*
G01*
D11*
X10418872Y-22625484D02*
X10437920Y-22625484D01*
X10437920Y-22625484D02*
X10456967Y-22635008D01*
X10456967Y-22635008D02*
X10466491Y-22644531D01*
X10466491Y-22644531D02*
X10476015Y-22663579D01*
X10476015Y-22663579D02*
X10485539Y-22701674D01*
X10485539Y-22701674D02*
X10485539Y-22749293D01*
X10485539Y-22749293D02*
X10476015Y-22787388D01*
X10476015Y-22787388D02*
X10466491Y-22806436D01*
X10466491Y-22806436D02*
X10456967Y-22815960D01*
X10456967Y-22815960D02*
X10437920Y-22825484D01*
X10437920Y-22825484D02*
X10418872Y-22825484D01*
X10418872Y-22825484D02*
X10399824Y-22815960D01*
X10399824Y-22815960D02*
X10390301Y-22806436D01*
X10390301Y-22806436D02*
X10380777Y-22787388D01*
X10380777Y-22787388D02*
X10371253Y-22749293D01*
X10371253Y-22749293D02*
X10371253Y-22701674D01*
X10371253Y-22701674D02*
X10380777Y-22663579D01*
X10380777Y-22663579D02*
X10390301Y-22644531D01*
X10390301Y-22644531D02*
X10399824Y-22635008D01*
X10399824Y-22635008D02*
X10418872Y-22625484D01*
X10571253Y-22806436D02*
X10580777Y-22815960D01*
X10580777Y-22815960D02*
X10571253Y-22825484D01*
X10571253Y-22825484D02*
X10561729Y-22815960D01*
X10561729Y-22815960D02*
X10571253Y-22806436D01*
X10571253Y-22806436D02*
X10571253Y-22825484D01*
X10695063Y-22711198D02*
X10676015Y-22701674D01*
X10676015Y-22701674D02*
X10666491Y-22692150D01*
X10666491Y-22692150D02*
X10656967Y-22673103D01*
X10656967Y-22673103D02*
X10656967Y-22663579D01*
X10656967Y-22663579D02*
X10666491Y-22644531D01*
X10666491Y-22644531D02*
X10676015Y-22635008D01*
X10676015Y-22635008D02*
X10695063Y-22625484D01*
X10695063Y-22625484D02*
X10733158Y-22625484D01*
X10733158Y-22625484D02*
X10752205Y-22635008D01*
X10752205Y-22635008D02*
X10761729Y-22644531D01*
X10761729Y-22644531D02*
X10771253Y-22663579D01*
X10771253Y-22663579D02*
X10771253Y-22673103D01*
X10771253Y-22673103D02*
X10761729Y-22692150D01*
X10761729Y-22692150D02*
X10752205Y-22701674D01*
X10752205Y-22701674D02*
X10733158Y-22711198D01*
X10733158Y-22711198D02*
X10695063Y-22711198D01*
X10695063Y-22711198D02*
X10676015Y-22720722D01*
X10676015Y-22720722D02*
X10666491Y-22730246D01*
X10666491Y-22730246D02*
X10656967Y-22749293D01*
X10656967Y-22749293D02*
X10656967Y-22787388D01*
X10656967Y-22787388D02*
X10666491Y-22806436D01*
X10666491Y-22806436D02*
X10676015Y-22815960D01*
X10676015Y-22815960D02*
X10695063Y-22825484D01*
X10695063Y-22825484D02*
X10733158Y-22825484D01*
X10733158Y-22825484D02*
X10752205Y-22815960D01*
X10752205Y-22815960D02*
X10761729Y-22806436D01*
X10761729Y-22806436D02*
X10771253Y-22787388D01*
X10771253Y-22787388D02*
X10771253Y-22749293D01*
X10771253Y-22749293D02*
X10761729Y-22730246D01*
X10761729Y-22730246D02*
X10752205Y-22720722D01*
X10752205Y-22720722D02*
X10733158Y-22711198D01*
X10961729Y-22825484D02*
X10847444Y-22825484D01*
X10904586Y-22825484D02*
X10904586Y-22625484D01*
X10904586Y-22625484D02*
X10885539Y-22654055D01*
X10885539Y-22654055D02*
X10866491Y-22673103D01*
X10866491Y-22673103D02*
X10847444Y-22682627D01*
X11028396Y-22625484D02*
X11152205Y-22625484D01*
X11152205Y-22625484D02*
X11085539Y-22701674D01*
X11085539Y-22701674D02*
X11114110Y-22701674D01*
X11114110Y-22701674D02*
X11133158Y-22711198D01*
X11133158Y-22711198D02*
X11142682Y-22720722D01*
X11142682Y-22720722D02*
X11152205Y-22739769D01*
X11152205Y-22739769D02*
X11152205Y-22787388D01*
X11152205Y-22787388D02*
X11142682Y-22806436D01*
X11142682Y-22806436D02*
X11133158Y-22815960D01*
X11133158Y-22815960D02*
X11114110Y-22825484D01*
X11114110Y-22825484D02*
X11056967Y-22825484D01*
X11056967Y-22825484D02*
X11037920Y-22815960D01*
X11037920Y-22815960D02*
X11028396Y-22806436D01*
X11237920Y-22825484D02*
X11237920Y-22692150D01*
X11237920Y-22711198D02*
X11247443Y-22701674D01*
X11247443Y-22701674D02*
X11266491Y-22692150D01*
X11266491Y-22692150D02*
X11295063Y-22692150D01*
X11295063Y-22692150D02*
X11314110Y-22701674D01*
X11314110Y-22701674D02*
X11323634Y-22720722D01*
X11323634Y-22720722D02*
X11323634Y-22825484D01*
X11323634Y-22720722D02*
X11333158Y-22701674D01*
X11333158Y-22701674D02*
X11352205Y-22692150D01*
X11352205Y-22692150D02*
X11380777Y-22692150D01*
X11380777Y-22692150D02*
X11399824Y-22701674D01*
X11399824Y-22701674D02*
X11409348Y-22720722D01*
X11409348Y-22720722D02*
X11409348Y-22825484D01*
X11504586Y-22825484D02*
X11504586Y-22692150D01*
X11504586Y-22711198D02*
X11514110Y-22701674D01*
X11514110Y-22701674D02*
X11533158Y-22692150D01*
X11533158Y-22692150D02*
X11561729Y-22692150D01*
X11561729Y-22692150D02*
X11580777Y-22701674D01*
X11580777Y-22701674D02*
X11590301Y-22720722D01*
X11590301Y-22720722D02*
X11590301Y-22825484D01*
X11590301Y-22720722D02*
X11599824Y-22701674D01*
X11599824Y-22701674D02*
X11618872Y-22692150D01*
X11618872Y-22692150D02*
X11647443Y-22692150D01*
X11647443Y-22692150D02*
X11666491Y-22701674D01*
X11666491Y-22701674D02*
X11676015Y-22720722D01*
X11676015Y-22720722D02*
X11676015Y-22825484D01*
X12066491Y-22615960D02*
X11895063Y-22873103D01*
X12323634Y-22625484D02*
X12342682Y-22625484D01*
X12342682Y-22625484D02*
X12361729Y-22635008D01*
X12361729Y-22635008D02*
X12371253Y-22644531D01*
X12371253Y-22644531D02*
X12380777Y-22663579D01*
X12380777Y-22663579D02*
X12390301Y-22701674D01*
X12390301Y-22701674D02*
X12390301Y-22749293D01*
X12390301Y-22749293D02*
X12380777Y-22787388D01*
X12380777Y-22787388D02*
X12371253Y-22806436D01*
X12371253Y-22806436D02*
X12361729Y-22815960D01*
X12361729Y-22815960D02*
X12342682Y-22825484D01*
X12342682Y-22825484D02*
X12323634Y-22825484D01*
X12323634Y-22825484D02*
X12304586Y-22815960D01*
X12304586Y-22815960D02*
X12295063Y-22806436D01*
X12295063Y-22806436D02*
X12285539Y-22787388D01*
X12285539Y-22787388D02*
X12276015Y-22749293D01*
X12276015Y-22749293D02*
X12276015Y-22701674D01*
X12276015Y-22701674D02*
X12285539Y-22663579D01*
X12285539Y-22663579D02*
X12295063Y-22644531D01*
X12295063Y-22644531D02*
X12304586Y-22635008D01*
X12304586Y-22635008D02*
X12323634Y-22625484D01*
X12476015Y-22806436D02*
X12485539Y-22815960D01*
X12485539Y-22815960D02*
X12476015Y-22825484D01*
X12476015Y-22825484D02*
X12466491Y-22815960D01*
X12466491Y-22815960D02*
X12476015Y-22806436D01*
X12476015Y-22806436D02*
X12476015Y-22825484D01*
X12609348Y-22625484D02*
X12628396Y-22625484D01*
X12628396Y-22625484D02*
X12647444Y-22635008D01*
X12647444Y-22635008D02*
X12656967Y-22644531D01*
X12656967Y-22644531D02*
X12666491Y-22663579D01*
X12666491Y-22663579D02*
X12676015Y-22701674D01*
X12676015Y-22701674D02*
X12676015Y-22749293D01*
X12676015Y-22749293D02*
X12666491Y-22787388D01*
X12666491Y-22787388D02*
X12656967Y-22806436D01*
X12656967Y-22806436D02*
X12647444Y-22815960D01*
X12647444Y-22815960D02*
X12628396Y-22825484D01*
X12628396Y-22825484D02*
X12609348Y-22825484D01*
X12609348Y-22825484D02*
X12590301Y-22815960D01*
X12590301Y-22815960D02*
X12580777Y-22806436D01*
X12580777Y-22806436D02*
X12571253Y-22787388D01*
X12571253Y-22787388D02*
X12561729Y-22749293D01*
X12561729Y-22749293D02*
X12561729Y-22701674D01*
X12561729Y-22701674D02*
X12571253Y-22663579D01*
X12571253Y-22663579D02*
X12580777Y-22644531D01*
X12580777Y-22644531D02*
X12590301Y-22635008D01*
X12590301Y-22635008D02*
X12609348Y-22625484D01*
X12742682Y-22625484D02*
X12866491Y-22625484D01*
X12866491Y-22625484D02*
X12799825Y-22701674D01*
X12799825Y-22701674D02*
X12828396Y-22701674D01*
X12828396Y-22701674D02*
X12847444Y-22711198D01*
X12847444Y-22711198D02*
X12856967Y-22720722D01*
X12856967Y-22720722D02*
X12866491Y-22739769D01*
X12866491Y-22739769D02*
X12866491Y-22787388D01*
X12866491Y-22787388D02*
X12856967Y-22806436D01*
X12856967Y-22806436D02*
X12847444Y-22815960D01*
X12847444Y-22815960D02*
X12828396Y-22825484D01*
X12828396Y-22825484D02*
X12771253Y-22825484D01*
X12771253Y-22825484D02*
X12752206Y-22815960D01*
X12752206Y-22815960D02*
X12742682Y-22806436D01*
X12942682Y-22644531D02*
X12952206Y-22635008D01*
X12952206Y-22635008D02*
X12971253Y-22625484D01*
X12971253Y-22625484D02*
X13018872Y-22625484D01*
X13018872Y-22625484D02*
X13037920Y-22635008D01*
X13037920Y-22635008D02*
X13047444Y-22644531D01*
X13047444Y-22644531D02*
X13056967Y-22663579D01*
X13056967Y-22663579D02*
X13056967Y-22682627D01*
X13056967Y-22682627D02*
X13047444Y-22711198D01*
X13047444Y-22711198D02*
X12933158Y-22825484D01*
X12933158Y-22825484D02*
X13056967Y-22825484D01*
X13180777Y-22625484D02*
X13199825Y-22625484D01*
X13199825Y-22625484D02*
X13218872Y-22635008D01*
X13218872Y-22635008D02*
X13228396Y-22644531D01*
X13228396Y-22644531D02*
X13237920Y-22663579D01*
X13237920Y-22663579D02*
X13247444Y-22701674D01*
X13247444Y-22701674D02*
X13247444Y-22749293D01*
X13247444Y-22749293D02*
X13237920Y-22787388D01*
X13237920Y-22787388D02*
X13228396Y-22806436D01*
X13228396Y-22806436D02*
X13218872Y-22815960D01*
X13218872Y-22815960D02*
X13199825Y-22825484D01*
X13199825Y-22825484D02*
X13180777Y-22825484D01*
X13180777Y-22825484D02*
X13161729Y-22815960D01*
X13161729Y-22815960D02*
X13152206Y-22806436D01*
X13152206Y-22806436D02*
X13142682Y-22787388D01*
X13142682Y-22787388D02*
X13133158Y-22749293D01*
X13133158Y-22749293D02*
X13133158Y-22701674D01*
X13133158Y-22701674D02*
X13142682Y-22663579D01*
X13142682Y-22663579D02*
X13152206Y-22644531D01*
X13152206Y-22644531D02*
X13161729Y-22635008D01*
X13161729Y-22635008D02*
X13180777Y-22625484D01*
X13323634Y-22625484D02*
X13323634Y-22663579D01*
X13399825Y-22625484D02*
X13399825Y-22663579D01*
X13695063Y-22901674D02*
X13685539Y-22892150D01*
X13685539Y-22892150D02*
X13666491Y-22863579D01*
X13666491Y-22863579D02*
X13656968Y-22844531D01*
X13656968Y-22844531D02*
X13647444Y-22815960D01*
X13647444Y-22815960D02*
X13637920Y-22768341D01*
X13637920Y-22768341D02*
X13637920Y-22730246D01*
X13637920Y-22730246D02*
X13647444Y-22682627D01*
X13647444Y-22682627D02*
X13656968Y-22654055D01*
X13656968Y-22654055D02*
X13666491Y-22635008D01*
X13666491Y-22635008D02*
X13685539Y-22606436D01*
X13685539Y-22606436D02*
X13695063Y-22596912D01*
X13876015Y-22825484D02*
X13761729Y-22825484D01*
X13818872Y-22825484D02*
X13818872Y-22625484D01*
X13818872Y-22625484D02*
X13799825Y-22654055D01*
X13799825Y-22654055D02*
X13780777Y-22673103D01*
X13780777Y-22673103D02*
X13761729Y-22682627D01*
X14047444Y-22625484D02*
X14009348Y-22625484D01*
X14009348Y-22625484D02*
X13990301Y-22635008D01*
X13990301Y-22635008D02*
X13980777Y-22644531D01*
X13980777Y-22644531D02*
X13961729Y-22673103D01*
X13961729Y-22673103D02*
X13952206Y-22711198D01*
X13952206Y-22711198D02*
X13952206Y-22787388D01*
X13952206Y-22787388D02*
X13961729Y-22806436D01*
X13961729Y-22806436D02*
X13971253Y-22815960D01*
X13971253Y-22815960D02*
X13990301Y-22825484D01*
X13990301Y-22825484D02*
X14028396Y-22825484D01*
X14028396Y-22825484D02*
X14047444Y-22815960D01*
X14047444Y-22815960D02*
X14056968Y-22806436D01*
X14056968Y-22806436D02*
X14066491Y-22787388D01*
X14066491Y-22787388D02*
X14066491Y-22739769D01*
X14066491Y-22739769D02*
X14056968Y-22720722D01*
X14056968Y-22720722D02*
X14047444Y-22711198D01*
X14047444Y-22711198D02*
X14028396Y-22701674D01*
X14028396Y-22701674D02*
X13990301Y-22701674D01*
X13990301Y-22701674D02*
X13971253Y-22711198D01*
X13971253Y-22711198D02*
X13961729Y-22720722D01*
X13961729Y-22720722D02*
X13952206Y-22739769D01*
X14304587Y-22825484D02*
X14304587Y-22625484D01*
X14390301Y-22825484D02*
X14390301Y-22720722D01*
X14390301Y-22720722D02*
X14380777Y-22701674D01*
X14380777Y-22701674D02*
X14361730Y-22692150D01*
X14361730Y-22692150D02*
X14333158Y-22692150D01*
X14333158Y-22692150D02*
X14314110Y-22701674D01*
X14314110Y-22701674D02*
X14304587Y-22711198D01*
X14514110Y-22825484D02*
X14495063Y-22815960D01*
X14495063Y-22815960D02*
X14485539Y-22806436D01*
X14485539Y-22806436D02*
X14476015Y-22787388D01*
X14476015Y-22787388D02*
X14476015Y-22730246D01*
X14476015Y-22730246D02*
X14485539Y-22711198D01*
X14485539Y-22711198D02*
X14495063Y-22701674D01*
X14495063Y-22701674D02*
X14514110Y-22692150D01*
X14514110Y-22692150D02*
X14542682Y-22692150D01*
X14542682Y-22692150D02*
X14561730Y-22701674D01*
X14561730Y-22701674D02*
X14571253Y-22711198D01*
X14571253Y-22711198D02*
X14580777Y-22730246D01*
X14580777Y-22730246D02*
X14580777Y-22787388D01*
X14580777Y-22787388D02*
X14571253Y-22806436D01*
X14571253Y-22806436D02*
X14561730Y-22815960D01*
X14561730Y-22815960D02*
X14542682Y-22825484D01*
X14542682Y-22825484D02*
X14514110Y-22825484D01*
X14695063Y-22825484D02*
X14676015Y-22815960D01*
X14676015Y-22815960D02*
X14666491Y-22796912D01*
X14666491Y-22796912D02*
X14666491Y-22625484D01*
X14847444Y-22815960D02*
X14828396Y-22825484D01*
X14828396Y-22825484D02*
X14790301Y-22825484D01*
X14790301Y-22825484D02*
X14771253Y-22815960D01*
X14771253Y-22815960D02*
X14761730Y-22796912D01*
X14761730Y-22796912D02*
X14761730Y-22720722D01*
X14761730Y-22720722D02*
X14771253Y-22701674D01*
X14771253Y-22701674D02*
X14790301Y-22692150D01*
X14790301Y-22692150D02*
X14828396Y-22692150D01*
X14828396Y-22692150D02*
X14847444Y-22701674D01*
X14847444Y-22701674D02*
X14856968Y-22720722D01*
X14856968Y-22720722D02*
X14856968Y-22739769D01*
X14856968Y-22739769D02*
X14761730Y-22758817D01*
X14933158Y-22815960D02*
X14952206Y-22825484D01*
X14952206Y-22825484D02*
X14990301Y-22825484D01*
X14990301Y-22825484D02*
X15009349Y-22815960D01*
X15009349Y-22815960D02*
X15018872Y-22796912D01*
X15018872Y-22796912D02*
X15018872Y-22787388D01*
X15018872Y-22787388D02*
X15009349Y-22768341D01*
X15009349Y-22768341D02*
X14990301Y-22758817D01*
X14990301Y-22758817D02*
X14961730Y-22758817D01*
X14961730Y-22758817D02*
X14942682Y-22749293D01*
X14942682Y-22749293D02*
X14933158Y-22730246D01*
X14933158Y-22730246D02*
X14933158Y-22720722D01*
X14933158Y-22720722D02*
X14942682Y-22701674D01*
X14942682Y-22701674D02*
X14961730Y-22692150D01*
X14961730Y-22692150D02*
X14990301Y-22692150D01*
X14990301Y-22692150D02*
X15009349Y-22701674D01*
X15085539Y-22901674D02*
X15095063Y-22892150D01*
X15095063Y-22892150D02*
X15114111Y-22863579D01*
X15114111Y-22863579D02*
X15123634Y-22844531D01*
X15123634Y-22844531D02*
X15133158Y-22815960D01*
X15133158Y-22815960D02*
X15142682Y-22768341D01*
X15142682Y-22768341D02*
X15142682Y-22730246D01*
X15142682Y-22730246D02*
X15133158Y-22682627D01*
X15133158Y-22682627D02*
X15123634Y-22654055D01*
X15123634Y-22654055D02*
X15114111Y-22635008D01*
X15114111Y-22635008D02*
X15095063Y-22606436D01*
X15095063Y-22606436D02*
X15085539Y-22596912D01*
D14*
X10075550Y-22953550D02*
X10075550Y-23042450D01*
X10031100Y-22998000D02*
X10120000Y-22998000D01*
D11*
X10418872Y-22889484D02*
X10437920Y-22889484D01*
X10437920Y-22889484D02*
X10456967Y-22899008D01*
X10456967Y-22899008D02*
X10466491Y-22908531D01*
X10466491Y-22908531D02*
X10476015Y-22927579D01*
X10476015Y-22927579D02*
X10485539Y-22965674D01*
X10485539Y-22965674D02*
X10485539Y-23013293D01*
X10485539Y-23013293D02*
X10476015Y-23051388D01*
X10476015Y-23051388D02*
X10466491Y-23070436D01*
X10466491Y-23070436D02*
X10456967Y-23079960D01*
X10456967Y-23079960D02*
X10437920Y-23089484D01*
X10437920Y-23089484D02*
X10418872Y-23089484D01*
X10418872Y-23089484D02*
X10399824Y-23079960D01*
X10399824Y-23079960D02*
X10390301Y-23070436D01*
X10390301Y-23070436D02*
X10380777Y-23051388D01*
X10380777Y-23051388D02*
X10371253Y-23013293D01*
X10371253Y-23013293D02*
X10371253Y-22965674D01*
X10371253Y-22965674D02*
X10380777Y-22927579D01*
X10380777Y-22927579D02*
X10390301Y-22908531D01*
X10390301Y-22908531D02*
X10399824Y-22899008D01*
X10399824Y-22899008D02*
X10418872Y-22889484D01*
X10571253Y-23070436D02*
X10580777Y-23079960D01*
X10580777Y-23079960D02*
X10571253Y-23089484D01*
X10571253Y-23089484D02*
X10561729Y-23079960D01*
X10561729Y-23079960D02*
X10571253Y-23070436D01*
X10571253Y-23070436D02*
X10571253Y-23089484D01*
X10695063Y-22975198D02*
X10676015Y-22965674D01*
X10676015Y-22965674D02*
X10666491Y-22956150D01*
X10666491Y-22956150D02*
X10656967Y-22937103D01*
X10656967Y-22937103D02*
X10656967Y-22927579D01*
X10656967Y-22927579D02*
X10666491Y-22908531D01*
X10666491Y-22908531D02*
X10676015Y-22899008D01*
X10676015Y-22899008D02*
X10695063Y-22889484D01*
X10695063Y-22889484D02*
X10733158Y-22889484D01*
X10733158Y-22889484D02*
X10752205Y-22899008D01*
X10752205Y-22899008D02*
X10761729Y-22908531D01*
X10761729Y-22908531D02*
X10771253Y-22927579D01*
X10771253Y-22927579D02*
X10771253Y-22937103D01*
X10771253Y-22937103D02*
X10761729Y-22956150D01*
X10761729Y-22956150D02*
X10752205Y-22965674D01*
X10752205Y-22965674D02*
X10733158Y-22975198D01*
X10733158Y-22975198D02*
X10695063Y-22975198D01*
X10695063Y-22975198D02*
X10676015Y-22984722D01*
X10676015Y-22984722D02*
X10666491Y-22994246D01*
X10666491Y-22994246D02*
X10656967Y-23013293D01*
X10656967Y-23013293D02*
X10656967Y-23051388D01*
X10656967Y-23051388D02*
X10666491Y-23070436D01*
X10666491Y-23070436D02*
X10676015Y-23079960D01*
X10676015Y-23079960D02*
X10695063Y-23089484D01*
X10695063Y-23089484D02*
X10733158Y-23089484D01*
X10733158Y-23089484D02*
X10752205Y-23079960D01*
X10752205Y-23079960D02*
X10761729Y-23070436D01*
X10761729Y-23070436D02*
X10771253Y-23051388D01*
X10771253Y-23051388D02*
X10771253Y-23013293D01*
X10771253Y-23013293D02*
X10761729Y-22994246D01*
X10761729Y-22994246D02*
X10752205Y-22984722D01*
X10752205Y-22984722D02*
X10733158Y-22975198D01*
X10885539Y-22975198D02*
X10866491Y-22965674D01*
X10866491Y-22965674D02*
X10856967Y-22956150D01*
X10856967Y-22956150D02*
X10847444Y-22937103D01*
X10847444Y-22937103D02*
X10847444Y-22927579D01*
X10847444Y-22927579D02*
X10856967Y-22908531D01*
X10856967Y-22908531D02*
X10866491Y-22899008D01*
X10866491Y-22899008D02*
X10885539Y-22889484D01*
X10885539Y-22889484D02*
X10923634Y-22889484D01*
X10923634Y-22889484D02*
X10942682Y-22899008D01*
X10942682Y-22899008D02*
X10952205Y-22908531D01*
X10952205Y-22908531D02*
X10961729Y-22927579D01*
X10961729Y-22927579D02*
X10961729Y-22937103D01*
X10961729Y-22937103D02*
X10952205Y-22956150D01*
X10952205Y-22956150D02*
X10942682Y-22965674D01*
X10942682Y-22965674D02*
X10923634Y-22975198D01*
X10923634Y-22975198D02*
X10885539Y-22975198D01*
X10885539Y-22975198D02*
X10866491Y-22984722D01*
X10866491Y-22984722D02*
X10856967Y-22994246D01*
X10856967Y-22994246D02*
X10847444Y-23013293D01*
X10847444Y-23013293D02*
X10847444Y-23051388D01*
X10847444Y-23051388D02*
X10856967Y-23070436D01*
X10856967Y-23070436D02*
X10866491Y-23079960D01*
X10866491Y-23079960D02*
X10885539Y-23089484D01*
X10885539Y-23089484D02*
X10923634Y-23089484D01*
X10923634Y-23089484D02*
X10942682Y-23079960D01*
X10942682Y-23079960D02*
X10952205Y-23070436D01*
X10952205Y-23070436D02*
X10961729Y-23051388D01*
X10961729Y-23051388D02*
X10961729Y-23013293D01*
X10961729Y-23013293D02*
X10952205Y-22994246D01*
X10952205Y-22994246D02*
X10942682Y-22984722D01*
X10942682Y-22984722D02*
X10923634Y-22975198D01*
X11056967Y-23089484D02*
X11095063Y-23089484D01*
X11095063Y-23089484D02*
X11114110Y-23079960D01*
X11114110Y-23079960D02*
X11123634Y-23070436D01*
X11123634Y-23070436D02*
X11142682Y-23041865D01*
X11142682Y-23041865D02*
X11152205Y-23003769D01*
X11152205Y-23003769D02*
X11152205Y-22927579D01*
X11152205Y-22927579D02*
X11142682Y-22908531D01*
X11142682Y-22908531D02*
X11133158Y-22899008D01*
X11133158Y-22899008D02*
X11114110Y-22889484D01*
X11114110Y-22889484D02*
X11076015Y-22889484D01*
X11076015Y-22889484D02*
X11056967Y-22899008D01*
X11056967Y-22899008D02*
X11047444Y-22908531D01*
X11047444Y-22908531D02*
X11037920Y-22927579D01*
X11037920Y-22927579D02*
X11037920Y-22975198D01*
X11037920Y-22975198D02*
X11047444Y-22994246D01*
X11047444Y-22994246D02*
X11056967Y-23003769D01*
X11056967Y-23003769D02*
X11076015Y-23013293D01*
X11076015Y-23013293D02*
X11114110Y-23013293D01*
X11114110Y-23013293D02*
X11133158Y-23003769D01*
X11133158Y-23003769D02*
X11142682Y-22994246D01*
X11142682Y-22994246D02*
X11152205Y-22975198D01*
X11237920Y-23089484D02*
X11237920Y-22956150D01*
X11237920Y-22975198D02*
X11247443Y-22965674D01*
X11247443Y-22965674D02*
X11266491Y-22956150D01*
X11266491Y-22956150D02*
X11295063Y-22956150D01*
X11295063Y-22956150D02*
X11314110Y-22965674D01*
X11314110Y-22965674D02*
X11323634Y-22984722D01*
X11323634Y-22984722D02*
X11323634Y-23089484D01*
X11323634Y-22984722D02*
X11333158Y-22965674D01*
X11333158Y-22965674D02*
X11352205Y-22956150D01*
X11352205Y-22956150D02*
X11380777Y-22956150D01*
X11380777Y-22956150D02*
X11399824Y-22965674D01*
X11399824Y-22965674D02*
X11409348Y-22984722D01*
X11409348Y-22984722D02*
X11409348Y-23089484D01*
X11504586Y-23089484D02*
X11504586Y-22956150D01*
X11504586Y-22975198D02*
X11514110Y-22965674D01*
X11514110Y-22965674D02*
X11533158Y-22956150D01*
X11533158Y-22956150D02*
X11561729Y-22956150D01*
X11561729Y-22956150D02*
X11580777Y-22965674D01*
X11580777Y-22965674D02*
X11590301Y-22984722D01*
X11590301Y-22984722D02*
X11590301Y-23089484D01*
X11590301Y-22984722D02*
X11599824Y-22965674D01*
X11599824Y-22965674D02*
X11618872Y-22956150D01*
X11618872Y-22956150D02*
X11647443Y-22956150D01*
X11647443Y-22956150D02*
X11666491Y-22965674D01*
X11666491Y-22965674D02*
X11676015Y-22984722D01*
X11676015Y-22984722D02*
X11676015Y-23089484D01*
X12066491Y-22879960D02*
X11895063Y-23137103D01*
X12323634Y-22889484D02*
X12342682Y-22889484D01*
X12342682Y-22889484D02*
X12361729Y-22899008D01*
X12361729Y-22899008D02*
X12371253Y-22908531D01*
X12371253Y-22908531D02*
X12380777Y-22927579D01*
X12380777Y-22927579D02*
X12390301Y-22965674D01*
X12390301Y-22965674D02*
X12390301Y-23013293D01*
X12390301Y-23013293D02*
X12380777Y-23051388D01*
X12380777Y-23051388D02*
X12371253Y-23070436D01*
X12371253Y-23070436D02*
X12361729Y-23079960D01*
X12361729Y-23079960D02*
X12342682Y-23089484D01*
X12342682Y-23089484D02*
X12323634Y-23089484D01*
X12323634Y-23089484D02*
X12304586Y-23079960D01*
X12304586Y-23079960D02*
X12295063Y-23070436D01*
X12295063Y-23070436D02*
X12285539Y-23051388D01*
X12285539Y-23051388D02*
X12276015Y-23013293D01*
X12276015Y-23013293D02*
X12276015Y-22965674D01*
X12276015Y-22965674D02*
X12285539Y-22927579D01*
X12285539Y-22927579D02*
X12295063Y-22908531D01*
X12295063Y-22908531D02*
X12304586Y-22899008D01*
X12304586Y-22899008D02*
X12323634Y-22889484D01*
X12476015Y-23070436D02*
X12485539Y-23079960D01*
X12485539Y-23079960D02*
X12476015Y-23089484D01*
X12476015Y-23089484D02*
X12466491Y-23079960D01*
X12466491Y-23079960D02*
X12476015Y-23070436D01*
X12476015Y-23070436D02*
X12476015Y-23089484D01*
X12609348Y-22889484D02*
X12628396Y-22889484D01*
X12628396Y-22889484D02*
X12647444Y-22899008D01*
X12647444Y-22899008D02*
X12656967Y-22908531D01*
X12656967Y-22908531D02*
X12666491Y-22927579D01*
X12666491Y-22927579D02*
X12676015Y-22965674D01*
X12676015Y-22965674D02*
X12676015Y-23013293D01*
X12676015Y-23013293D02*
X12666491Y-23051388D01*
X12666491Y-23051388D02*
X12656967Y-23070436D01*
X12656967Y-23070436D02*
X12647444Y-23079960D01*
X12647444Y-23079960D02*
X12628396Y-23089484D01*
X12628396Y-23089484D02*
X12609348Y-23089484D01*
X12609348Y-23089484D02*
X12590301Y-23079960D01*
X12590301Y-23079960D02*
X12580777Y-23070436D01*
X12580777Y-23070436D02*
X12571253Y-23051388D01*
X12571253Y-23051388D02*
X12561729Y-23013293D01*
X12561729Y-23013293D02*
X12561729Y-22965674D01*
X12561729Y-22965674D02*
X12571253Y-22927579D01*
X12571253Y-22927579D02*
X12580777Y-22908531D01*
X12580777Y-22908531D02*
X12590301Y-22899008D01*
X12590301Y-22899008D02*
X12609348Y-22889484D01*
X12742682Y-22889484D02*
X12866491Y-22889484D01*
X12866491Y-22889484D02*
X12799825Y-22965674D01*
X12799825Y-22965674D02*
X12828396Y-22965674D01*
X12828396Y-22965674D02*
X12847444Y-22975198D01*
X12847444Y-22975198D02*
X12856967Y-22984722D01*
X12856967Y-22984722D02*
X12866491Y-23003769D01*
X12866491Y-23003769D02*
X12866491Y-23051388D01*
X12866491Y-23051388D02*
X12856967Y-23070436D01*
X12856967Y-23070436D02*
X12847444Y-23079960D01*
X12847444Y-23079960D02*
X12828396Y-23089484D01*
X12828396Y-23089484D02*
X12771253Y-23089484D01*
X12771253Y-23089484D02*
X12752206Y-23079960D01*
X12752206Y-23079960D02*
X12742682Y-23070436D01*
X13047444Y-22889484D02*
X12952206Y-22889484D01*
X12952206Y-22889484D02*
X12942682Y-22984722D01*
X12942682Y-22984722D02*
X12952206Y-22975198D01*
X12952206Y-22975198D02*
X12971253Y-22965674D01*
X12971253Y-22965674D02*
X13018872Y-22965674D01*
X13018872Y-22965674D02*
X13037920Y-22975198D01*
X13037920Y-22975198D02*
X13047444Y-22984722D01*
X13047444Y-22984722D02*
X13056967Y-23003769D01*
X13056967Y-23003769D02*
X13056967Y-23051388D01*
X13056967Y-23051388D02*
X13047444Y-23070436D01*
X13047444Y-23070436D02*
X13037920Y-23079960D01*
X13037920Y-23079960D02*
X13018872Y-23089484D01*
X13018872Y-23089484D02*
X12971253Y-23089484D01*
X12971253Y-23089484D02*
X12952206Y-23079960D01*
X12952206Y-23079960D02*
X12942682Y-23070436D01*
X13180777Y-22889484D02*
X13199825Y-22889484D01*
X13199825Y-22889484D02*
X13218872Y-22899008D01*
X13218872Y-22899008D02*
X13228396Y-22908531D01*
X13228396Y-22908531D02*
X13237920Y-22927579D01*
X13237920Y-22927579D02*
X13247444Y-22965674D01*
X13247444Y-22965674D02*
X13247444Y-23013293D01*
X13247444Y-23013293D02*
X13237920Y-23051388D01*
X13237920Y-23051388D02*
X13228396Y-23070436D01*
X13228396Y-23070436D02*
X13218872Y-23079960D01*
X13218872Y-23079960D02*
X13199825Y-23089484D01*
X13199825Y-23089484D02*
X13180777Y-23089484D01*
X13180777Y-23089484D02*
X13161729Y-23079960D01*
X13161729Y-23079960D02*
X13152206Y-23070436D01*
X13152206Y-23070436D02*
X13142682Y-23051388D01*
X13142682Y-23051388D02*
X13133158Y-23013293D01*
X13133158Y-23013293D02*
X13133158Y-22965674D01*
X13133158Y-22965674D02*
X13142682Y-22927579D01*
X13142682Y-22927579D02*
X13152206Y-22908531D01*
X13152206Y-22908531D02*
X13161729Y-22899008D01*
X13161729Y-22899008D02*
X13180777Y-22889484D01*
X13323634Y-22889484D02*
X13323634Y-22927579D01*
X13399825Y-22889484D02*
X13399825Y-22927579D01*
X13695063Y-23165674D02*
X13685539Y-23156150D01*
X13685539Y-23156150D02*
X13666491Y-23127579D01*
X13666491Y-23127579D02*
X13656968Y-23108531D01*
X13656968Y-23108531D02*
X13647444Y-23079960D01*
X13647444Y-23079960D02*
X13637920Y-23032341D01*
X13637920Y-23032341D02*
X13637920Y-22994246D01*
X13637920Y-22994246D02*
X13647444Y-22946627D01*
X13647444Y-22946627D02*
X13656968Y-22918055D01*
X13656968Y-22918055D02*
X13666491Y-22899008D01*
X13666491Y-22899008D02*
X13685539Y-22870436D01*
X13685539Y-22870436D02*
X13695063Y-22860912D01*
X13876015Y-23089484D02*
X13761729Y-23089484D01*
X13818872Y-23089484D02*
X13818872Y-22889484D01*
X13818872Y-22889484D02*
X13799825Y-22918055D01*
X13799825Y-22918055D02*
X13780777Y-22937103D01*
X13780777Y-22937103D02*
X13761729Y-22946627D01*
X14114110Y-23089484D02*
X14114110Y-22889484D01*
X14199825Y-23089484D02*
X14199825Y-22984722D01*
X14199825Y-22984722D02*
X14190301Y-22965674D01*
X14190301Y-22965674D02*
X14171253Y-22956150D01*
X14171253Y-22956150D02*
X14142682Y-22956150D01*
X14142682Y-22956150D02*
X14123634Y-22965674D01*
X14123634Y-22965674D02*
X14114110Y-22975198D01*
X14323634Y-23089484D02*
X14304587Y-23079960D01*
X14304587Y-23079960D02*
X14295063Y-23070436D01*
X14295063Y-23070436D02*
X14285539Y-23051388D01*
X14285539Y-23051388D02*
X14285539Y-22994246D01*
X14285539Y-22994246D02*
X14295063Y-22975198D01*
X14295063Y-22975198D02*
X14304587Y-22965674D01*
X14304587Y-22965674D02*
X14323634Y-22956150D01*
X14323634Y-22956150D02*
X14352206Y-22956150D01*
X14352206Y-22956150D02*
X14371253Y-22965674D01*
X14371253Y-22965674D02*
X14380777Y-22975198D01*
X14380777Y-22975198D02*
X14390301Y-22994246D01*
X14390301Y-22994246D02*
X14390301Y-23051388D01*
X14390301Y-23051388D02*
X14380777Y-23070436D01*
X14380777Y-23070436D02*
X14371253Y-23079960D01*
X14371253Y-23079960D02*
X14352206Y-23089484D01*
X14352206Y-23089484D02*
X14323634Y-23089484D01*
X14504587Y-23089484D02*
X14485539Y-23079960D01*
X14485539Y-23079960D02*
X14476015Y-23060912D01*
X14476015Y-23060912D02*
X14476015Y-22889484D01*
X14656968Y-23079960D02*
X14637920Y-23089484D01*
X14637920Y-23089484D02*
X14599825Y-23089484D01*
X14599825Y-23089484D02*
X14580777Y-23079960D01*
X14580777Y-23079960D02*
X14571253Y-23060912D01*
X14571253Y-23060912D02*
X14571253Y-22984722D01*
X14571253Y-22984722D02*
X14580777Y-22965674D01*
X14580777Y-22965674D02*
X14599825Y-22956150D01*
X14599825Y-22956150D02*
X14637920Y-22956150D01*
X14637920Y-22956150D02*
X14656968Y-22965674D01*
X14656968Y-22965674D02*
X14666491Y-22984722D01*
X14666491Y-22984722D02*
X14666491Y-23003769D01*
X14666491Y-23003769D02*
X14571253Y-23022817D01*
X14733158Y-23165674D02*
X14742682Y-23156150D01*
X14742682Y-23156150D02*
X14761730Y-23127579D01*
X14761730Y-23127579D02*
X14771253Y-23108531D01*
X14771253Y-23108531D02*
X14780777Y-23079960D01*
X14780777Y-23079960D02*
X14790301Y-23032341D01*
X14790301Y-23032341D02*
X14790301Y-22994246D01*
X14790301Y-22994246D02*
X14780777Y-22946627D01*
X14780777Y-22946627D02*
X14771253Y-22918055D01*
X14771253Y-22918055D02*
X14761730Y-22899008D01*
X14761730Y-22899008D02*
X14742682Y-22870436D01*
X14742682Y-22870436D02*
X14733158Y-22860912D01*
D15*
X10105121Y-23297921D02*
X10105121Y-23226079D01*
X10033279Y-23226079D01*
X10033279Y-23297921D01*
X10105121Y-23297921D01*
D11*
X10485539Y-23353484D02*
X10371253Y-23353484D01*
X10428396Y-23353484D02*
X10428396Y-23153484D01*
X10428396Y-23153484D02*
X10409348Y-23182055D01*
X10409348Y-23182055D02*
X10390301Y-23201103D01*
X10390301Y-23201103D02*
X10371253Y-23210627D01*
X10571253Y-23334436D02*
X10580777Y-23343960D01*
X10580777Y-23343960D02*
X10571253Y-23353484D01*
X10571253Y-23353484D02*
X10561729Y-23343960D01*
X10561729Y-23343960D02*
X10571253Y-23334436D01*
X10571253Y-23334436D02*
X10571253Y-23353484D01*
X10704586Y-23153484D02*
X10723634Y-23153484D01*
X10723634Y-23153484D02*
X10742682Y-23163008D01*
X10742682Y-23163008D02*
X10752205Y-23172531D01*
X10752205Y-23172531D02*
X10761729Y-23191579D01*
X10761729Y-23191579D02*
X10771253Y-23229674D01*
X10771253Y-23229674D02*
X10771253Y-23277293D01*
X10771253Y-23277293D02*
X10761729Y-23315388D01*
X10761729Y-23315388D02*
X10752205Y-23334436D01*
X10752205Y-23334436D02*
X10742682Y-23343960D01*
X10742682Y-23343960D02*
X10723634Y-23353484D01*
X10723634Y-23353484D02*
X10704586Y-23353484D01*
X10704586Y-23353484D02*
X10685539Y-23343960D01*
X10685539Y-23343960D02*
X10676015Y-23334436D01*
X10676015Y-23334436D02*
X10666491Y-23315388D01*
X10666491Y-23315388D02*
X10656967Y-23277293D01*
X10656967Y-23277293D02*
X10656967Y-23229674D01*
X10656967Y-23229674D02*
X10666491Y-23191579D01*
X10666491Y-23191579D02*
X10676015Y-23172531D01*
X10676015Y-23172531D02*
X10685539Y-23163008D01*
X10685539Y-23163008D02*
X10704586Y-23153484D01*
X10961729Y-23353484D02*
X10847444Y-23353484D01*
X10904586Y-23353484D02*
X10904586Y-23153484D01*
X10904586Y-23153484D02*
X10885539Y-23182055D01*
X10885539Y-23182055D02*
X10866491Y-23201103D01*
X10866491Y-23201103D02*
X10847444Y-23210627D01*
X11133158Y-23153484D02*
X11095063Y-23153484D01*
X11095063Y-23153484D02*
X11076015Y-23163008D01*
X11076015Y-23163008D02*
X11066491Y-23172531D01*
X11066491Y-23172531D02*
X11047444Y-23201103D01*
X11047444Y-23201103D02*
X11037920Y-23239198D01*
X11037920Y-23239198D02*
X11037920Y-23315388D01*
X11037920Y-23315388D02*
X11047444Y-23334436D01*
X11047444Y-23334436D02*
X11056967Y-23343960D01*
X11056967Y-23343960D02*
X11076015Y-23353484D01*
X11076015Y-23353484D02*
X11114110Y-23353484D01*
X11114110Y-23353484D02*
X11133158Y-23343960D01*
X11133158Y-23343960D02*
X11142682Y-23334436D01*
X11142682Y-23334436D02*
X11152205Y-23315388D01*
X11152205Y-23315388D02*
X11152205Y-23267769D01*
X11152205Y-23267769D02*
X11142682Y-23248722D01*
X11142682Y-23248722D02*
X11133158Y-23239198D01*
X11133158Y-23239198D02*
X11114110Y-23229674D01*
X11114110Y-23229674D02*
X11076015Y-23229674D01*
X11076015Y-23229674D02*
X11056967Y-23239198D01*
X11056967Y-23239198D02*
X11047444Y-23248722D01*
X11047444Y-23248722D02*
X11037920Y-23267769D01*
X11237920Y-23353484D02*
X11237920Y-23220150D01*
X11237920Y-23239198D02*
X11247443Y-23229674D01*
X11247443Y-23229674D02*
X11266491Y-23220150D01*
X11266491Y-23220150D02*
X11295063Y-23220150D01*
X11295063Y-23220150D02*
X11314110Y-23229674D01*
X11314110Y-23229674D02*
X11323634Y-23248722D01*
X11323634Y-23248722D02*
X11323634Y-23353484D01*
X11323634Y-23248722D02*
X11333158Y-23229674D01*
X11333158Y-23229674D02*
X11352205Y-23220150D01*
X11352205Y-23220150D02*
X11380777Y-23220150D01*
X11380777Y-23220150D02*
X11399824Y-23229674D01*
X11399824Y-23229674D02*
X11409348Y-23248722D01*
X11409348Y-23248722D02*
X11409348Y-23353484D01*
X11504586Y-23353484D02*
X11504586Y-23220150D01*
X11504586Y-23239198D02*
X11514110Y-23229674D01*
X11514110Y-23229674D02*
X11533158Y-23220150D01*
X11533158Y-23220150D02*
X11561729Y-23220150D01*
X11561729Y-23220150D02*
X11580777Y-23229674D01*
X11580777Y-23229674D02*
X11590301Y-23248722D01*
X11590301Y-23248722D02*
X11590301Y-23353484D01*
X11590301Y-23248722D02*
X11599824Y-23229674D01*
X11599824Y-23229674D02*
X11618872Y-23220150D01*
X11618872Y-23220150D02*
X11647443Y-23220150D01*
X11647443Y-23220150D02*
X11666491Y-23229674D01*
X11666491Y-23229674D02*
X11676015Y-23248722D01*
X11676015Y-23248722D02*
X11676015Y-23353484D01*
X12066491Y-23143960D02*
X11895063Y-23401103D01*
X12323634Y-23153484D02*
X12342682Y-23153484D01*
X12342682Y-23153484D02*
X12361729Y-23163008D01*
X12361729Y-23163008D02*
X12371253Y-23172531D01*
X12371253Y-23172531D02*
X12380777Y-23191579D01*
X12380777Y-23191579D02*
X12390301Y-23229674D01*
X12390301Y-23229674D02*
X12390301Y-23277293D01*
X12390301Y-23277293D02*
X12380777Y-23315388D01*
X12380777Y-23315388D02*
X12371253Y-23334436D01*
X12371253Y-23334436D02*
X12361729Y-23343960D01*
X12361729Y-23343960D02*
X12342682Y-23353484D01*
X12342682Y-23353484D02*
X12323634Y-23353484D01*
X12323634Y-23353484D02*
X12304586Y-23343960D01*
X12304586Y-23343960D02*
X12295063Y-23334436D01*
X12295063Y-23334436D02*
X12285539Y-23315388D01*
X12285539Y-23315388D02*
X12276015Y-23277293D01*
X12276015Y-23277293D02*
X12276015Y-23229674D01*
X12276015Y-23229674D02*
X12285539Y-23191579D01*
X12285539Y-23191579D02*
X12295063Y-23172531D01*
X12295063Y-23172531D02*
X12304586Y-23163008D01*
X12304586Y-23163008D02*
X12323634Y-23153484D01*
X12476015Y-23334436D02*
X12485539Y-23343960D01*
X12485539Y-23343960D02*
X12476015Y-23353484D01*
X12476015Y-23353484D02*
X12466491Y-23343960D01*
X12466491Y-23343960D02*
X12476015Y-23334436D01*
X12476015Y-23334436D02*
X12476015Y-23353484D01*
X12609348Y-23153484D02*
X12628396Y-23153484D01*
X12628396Y-23153484D02*
X12647444Y-23163008D01*
X12647444Y-23163008D02*
X12656967Y-23172531D01*
X12656967Y-23172531D02*
X12666491Y-23191579D01*
X12666491Y-23191579D02*
X12676015Y-23229674D01*
X12676015Y-23229674D02*
X12676015Y-23277293D01*
X12676015Y-23277293D02*
X12666491Y-23315388D01*
X12666491Y-23315388D02*
X12656967Y-23334436D01*
X12656967Y-23334436D02*
X12647444Y-23343960D01*
X12647444Y-23343960D02*
X12628396Y-23353484D01*
X12628396Y-23353484D02*
X12609348Y-23353484D01*
X12609348Y-23353484D02*
X12590301Y-23343960D01*
X12590301Y-23343960D02*
X12580777Y-23334436D01*
X12580777Y-23334436D02*
X12571253Y-23315388D01*
X12571253Y-23315388D02*
X12561729Y-23277293D01*
X12561729Y-23277293D02*
X12561729Y-23229674D01*
X12561729Y-23229674D02*
X12571253Y-23191579D01*
X12571253Y-23191579D02*
X12580777Y-23172531D01*
X12580777Y-23172531D02*
X12590301Y-23163008D01*
X12590301Y-23163008D02*
X12609348Y-23153484D01*
X12847444Y-23220150D02*
X12847444Y-23353484D01*
X12799825Y-23143960D02*
X12752206Y-23286817D01*
X12752206Y-23286817D02*
X12876015Y-23286817D01*
X12990301Y-23153484D02*
X13009348Y-23153484D01*
X13009348Y-23153484D02*
X13028396Y-23163008D01*
X13028396Y-23163008D02*
X13037920Y-23172531D01*
X13037920Y-23172531D02*
X13047444Y-23191579D01*
X13047444Y-23191579D02*
X13056967Y-23229674D01*
X13056967Y-23229674D02*
X13056967Y-23277293D01*
X13056967Y-23277293D02*
X13047444Y-23315388D01*
X13047444Y-23315388D02*
X13037920Y-23334436D01*
X13037920Y-23334436D02*
X13028396Y-23343960D01*
X13028396Y-23343960D02*
X13009348Y-23353484D01*
X13009348Y-23353484D02*
X12990301Y-23353484D01*
X12990301Y-23353484D02*
X12971253Y-23343960D01*
X12971253Y-23343960D02*
X12961729Y-23334436D01*
X12961729Y-23334436D02*
X12952206Y-23315388D01*
X12952206Y-23315388D02*
X12942682Y-23277293D01*
X12942682Y-23277293D02*
X12942682Y-23229674D01*
X12942682Y-23229674D02*
X12952206Y-23191579D01*
X12952206Y-23191579D02*
X12961729Y-23172531D01*
X12961729Y-23172531D02*
X12971253Y-23163008D01*
X12971253Y-23163008D02*
X12990301Y-23153484D01*
X13180777Y-23153484D02*
X13199825Y-23153484D01*
X13199825Y-23153484D02*
X13218872Y-23163008D01*
X13218872Y-23163008D02*
X13228396Y-23172531D01*
X13228396Y-23172531D02*
X13237920Y-23191579D01*
X13237920Y-23191579D02*
X13247444Y-23229674D01*
X13247444Y-23229674D02*
X13247444Y-23277293D01*
X13247444Y-23277293D02*
X13237920Y-23315388D01*
X13237920Y-23315388D02*
X13228396Y-23334436D01*
X13228396Y-23334436D02*
X13218872Y-23343960D01*
X13218872Y-23343960D02*
X13199825Y-23353484D01*
X13199825Y-23353484D02*
X13180777Y-23353484D01*
X13180777Y-23353484D02*
X13161729Y-23343960D01*
X13161729Y-23343960D02*
X13152206Y-23334436D01*
X13152206Y-23334436D02*
X13142682Y-23315388D01*
X13142682Y-23315388D02*
X13133158Y-23277293D01*
X13133158Y-23277293D02*
X13133158Y-23229674D01*
X13133158Y-23229674D02*
X13142682Y-23191579D01*
X13142682Y-23191579D02*
X13152206Y-23172531D01*
X13152206Y-23172531D02*
X13161729Y-23163008D01*
X13161729Y-23163008D02*
X13180777Y-23153484D01*
X13323634Y-23153484D02*
X13323634Y-23191579D01*
X13399825Y-23153484D02*
X13399825Y-23191579D01*
X13695063Y-23429674D02*
X13685539Y-23420150D01*
X13685539Y-23420150D02*
X13666491Y-23391579D01*
X13666491Y-23391579D02*
X13656968Y-23372531D01*
X13656968Y-23372531D02*
X13647444Y-23343960D01*
X13647444Y-23343960D02*
X13637920Y-23296341D01*
X13637920Y-23296341D02*
X13637920Y-23258246D01*
X13637920Y-23258246D02*
X13647444Y-23210627D01*
X13647444Y-23210627D02*
X13656968Y-23182055D01*
X13656968Y-23182055D02*
X13666491Y-23163008D01*
X13666491Y-23163008D02*
X13685539Y-23134436D01*
X13685539Y-23134436D02*
X13695063Y-23124912D01*
X13856968Y-23220150D02*
X13856968Y-23353484D01*
X13809348Y-23143960D02*
X13761729Y-23286817D01*
X13761729Y-23286817D02*
X13885539Y-23286817D01*
X13952206Y-23172531D02*
X13961729Y-23163008D01*
X13961729Y-23163008D02*
X13980777Y-23153484D01*
X13980777Y-23153484D02*
X14028396Y-23153484D01*
X14028396Y-23153484D02*
X14047444Y-23163008D01*
X14047444Y-23163008D02*
X14056968Y-23172531D01*
X14056968Y-23172531D02*
X14066491Y-23191579D01*
X14066491Y-23191579D02*
X14066491Y-23210627D01*
X14066491Y-23210627D02*
X14056968Y-23239198D01*
X14056968Y-23239198D02*
X13942682Y-23353484D01*
X13942682Y-23353484D02*
X14066491Y-23353484D01*
X14304587Y-23353484D02*
X14304587Y-23153484D01*
X14390301Y-23353484D02*
X14390301Y-23248722D01*
X14390301Y-23248722D02*
X14380777Y-23229674D01*
X14380777Y-23229674D02*
X14361730Y-23220150D01*
X14361730Y-23220150D02*
X14333158Y-23220150D01*
X14333158Y-23220150D02*
X14314110Y-23229674D01*
X14314110Y-23229674D02*
X14304587Y-23239198D01*
X14514110Y-23353484D02*
X14495063Y-23343960D01*
X14495063Y-23343960D02*
X14485539Y-23334436D01*
X14485539Y-23334436D02*
X14476015Y-23315388D01*
X14476015Y-23315388D02*
X14476015Y-23258246D01*
X14476015Y-23258246D02*
X14485539Y-23239198D01*
X14485539Y-23239198D02*
X14495063Y-23229674D01*
X14495063Y-23229674D02*
X14514110Y-23220150D01*
X14514110Y-23220150D02*
X14542682Y-23220150D01*
X14542682Y-23220150D02*
X14561730Y-23229674D01*
X14561730Y-23229674D02*
X14571253Y-23239198D01*
X14571253Y-23239198D02*
X14580777Y-23258246D01*
X14580777Y-23258246D02*
X14580777Y-23315388D01*
X14580777Y-23315388D02*
X14571253Y-23334436D01*
X14571253Y-23334436D02*
X14561730Y-23343960D01*
X14561730Y-23343960D02*
X14542682Y-23353484D01*
X14542682Y-23353484D02*
X14514110Y-23353484D01*
X14695063Y-23353484D02*
X14676015Y-23343960D01*
X14676015Y-23343960D02*
X14666491Y-23324912D01*
X14666491Y-23324912D02*
X14666491Y-23153484D01*
X14847444Y-23343960D02*
X14828396Y-23353484D01*
X14828396Y-23353484D02*
X14790301Y-23353484D01*
X14790301Y-23353484D02*
X14771253Y-23343960D01*
X14771253Y-23343960D02*
X14761730Y-23324912D01*
X14761730Y-23324912D02*
X14761730Y-23248722D01*
X14761730Y-23248722D02*
X14771253Y-23229674D01*
X14771253Y-23229674D02*
X14790301Y-23220150D01*
X14790301Y-23220150D02*
X14828396Y-23220150D01*
X14828396Y-23220150D02*
X14847444Y-23229674D01*
X14847444Y-23229674D02*
X14856968Y-23248722D01*
X14856968Y-23248722D02*
X14856968Y-23267769D01*
X14856968Y-23267769D02*
X14761730Y-23286817D01*
X14933158Y-23343960D02*
X14952206Y-23353484D01*
X14952206Y-23353484D02*
X14990301Y-23353484D01*
X14990301Y-23353484D02*
X15009349Y-23343960D01*
X15009349Y-23343960D02*
X15018872Y-23324912D01*
X15018872Y-23324912D02*
X15018872Y-23315388D01*
X15018872Y-23315388D02*
X15009349Y-23296341D01*
X15009349Y-23296341D02*
X14990301Y-23286817D01*
X14990301Y-23286817D02*
X14961730Y-23286817D01*
X14961730Y-23286817D02*
X14942682Y-23277293D01*
X14942682Y-23277293D02*
X14933158Y-23258246D01*
X14933158Y-23258246D02*
X14933158Y-23248722D01*
X14933158Y-23248722D02*
X14942682Y-23229674D01*
X14942682Y-23229674D02*
X14961730Y-23220150D01*
X14961730Y-23220150D02*
X14990301Y-23220150D01*
X14990301Y-23220150D02*
X15009349Y-23229674D01*
X15085539Y-23429674D02*
X15095063Y-23420150D01*
X15095063Y-23420150D02*
X15114111Y-23391579D01*
X15114111Y-23391579D02*
X15123634Y-23372531D01*
X15123634Y-23372531D02*
X15133158Y-23343960D01*
X15133158Y-23343960D02*
X15142682Y-23296341D01*
X15142682Y-23296341D02*
X15142682Y-23258246D01*
X15142682Y-23258246D02*
X15133158Y-23210627D01*
X15133158Y-23210627D02*
X15123634Y-23182055D01*
X15123634Y-23182055D02*
X15114111Y-23163008D01*
X15114111Y-23163008D02*
X15095063Y-23134436D01*
X15095063Y-23134436D02*
X15085539Y-23124912D01*
D16*
X10065000Y-23581000D02*
X10120000Y-23526000D01*
X10065000Y-23471000D01*
X10010000Y-23526000D01*
X10065000Y-23581000D01*
D11*
X10485539Y-23617484D02*
X10371253Y-23617484D01*
X10428396Y-23617484D02*
X10428396Y-23417484D01*
X10428396Y-23417484D02*
X10409348Y-23446055D01*
X10409348Y-23446055D02*
X10390301Y-23465103D01*
X10390301Y-23465103D02*
X10371253Y-23474627D01*
X10571253Y-23598436D02*
X10580777Y-23607960D01*
X10580777Y-23607960D02*
X10571253Y-23617484D01*
X10571253Y-23617484D02*
X10561729Y-23607960D01*
X10561729Y-23607960D02*
X10571253Y-23598436D01*
X10571253Y-23598436D02*
X10571253Y-23617484D01*
X10771253Y-23617484D02*
X10656967Y-23617484D01*
X10714110Y-23617484D02*
X10714110Y-23417484D01*
X10714110Y-23417484D02*
X10695063Y-23446055D01*
X10695063Y-23446055D02*
X10676015Y-23465103D01*
X10676015Y-23465103D02*
X10656967Y-23474627D01*
X10895063Y-23417484D02*
X10914110Y-23417484D01*
X10914110Y-23417484D02*
X10933158Y-23427008D01*
X10933158Y-23427008D02*
X10942682Y-23436531D01*
X10942682Y-23436531D02*
X10952205Y-23455579D01*
X10952205Y-23455579D02*
X10961729Y-23493674D01*
X10961729Y-23493674D02*
X10961729Y-23541293D01*
X10961729Y-23541293D02*
X10952205Y-23579388D01*
X10952205Y-23579388D02*
X10942682Y-23598436D01*
X10942682Y-23598436D02*
X10933158Y-23607960D01*
X10933158Y-23607960D02*
X10914110Y-23617484D01*
X10914110Y-23617484D02*
X10895063Y-23617484D01*
X10895063Y-23617484D02*
X10876015Y-23607960D01*
X10876015Y-23607960D02*
X10866491Y-23598436D01*
X10866491Y-23598436D02*
X10856967Y-23579388D01*
X10856967Y-23579388D02*
X10847444Y-23541293D01*
X10847444Y-23541293D02*
X10847444Y-23493674D01*
X10847444Y-23493674D02*
X10856967Y-23455579D01*
X10856967Y-23455579D02*
X10866491Y-23436531D01*
X10866491Y-23436531D02*
X10876015Y-23427008D01*
X10876015Y-23427008D02*
X10895063Y-23417484D01*
X11085539Y-23417484D02*
X11104586Y-23417484D01*
X11104586Y-23417484D02*
X11123634Y-23427008D01*
X11123634Y-23427008D02*
X11133158Y-23436531D01*
X11133158Y-23436531D02*
X11142682Y-23455579D01*
X11142682Y-23455579D02*
X11152205Y-23493674D01*
X11152205Y-23493674D02*
X11152205Y-23541293D01*
X11152205Y-23541293D02*
X11142682Y-23579388D01*
X11142682Y-23579388D02*
X11133158Y-23598436D01*
X11133158Y-23598436D02*
X11123634Y-23607960D01*
X11123634Y-23607960D02*
X11104586Y-23617484D01*
X11104586Y-23617484D02*
X11085539Y-23617484D01*
X11085539Y-23617484D02*
X11066491Y-23607960D01*
X11066491Y-23607960D02*
X11056967Y-23598436D01*
X11056967Y-23598436D02*
X11047444Y-23579388D01*
X11047444Y-23579388D02*
X11037920Y-23541293D01*
X11037920Y-23541293D02*
X11037920Y-23493674D01*
X11037920Y-23493674D02*
X11047444Y-23455579D01*
X11047444Y-23455579D02*
X11056967Y-23436531D01*
X11056967Y-23436531D02*
X11066491Y-23427008D01*
X11066491Y-23427008D02*
X11085539Y-23417484D01*
X11237920Y-23617484D02*
X11237920Y-23484150D01*
X11237920Y-23503198D02*
X11247443Y-23493674D01*
X11247443Y-23493674D02*
X11266491Y-23484150D01*
X11266491Y-23484150D02*
X11295063Y-23484150D01*
X11295063Y-23484150D02*
X11314110Y-23493674D01*
X11314110Y-23493674D02*
X11323634Y-23512722D01*
X11323634Y-23512722D02*
X11323634Y-23617484D01*
X11323634Y-23512722D02*
X11333158Y-23493674D01*
X11333158Y-23493674D02*
X11352205Y-23484150D01*
X11352205Y-23484150D02*
X11380777Y-23484150D01*
X11380777Y-23484150D02*
X11399824Y-23493674D01*
X11399824Y-23493674D02*
X11409348Y-23512722D01*
X11409348Y-23512722D02*
X11409348Y-23617484D01*
X11504586Y-23617484D02*
X11504586Y-23484150D01*
X11504586Y-23503198D02*
X11514110Y-23493674D01*
X11514110Y-23493674D02*
X11533158Y-23484150D01*
X11533158Y-23484150D02*
X11561729Y-23484150D01*
X11561729Y-23484150D02*
X11580777Y-23493674D01*
X11580777Y-23493674D02*
X11590301Y-23512722D01*
X11590301Y-23512722D02*
X11590301Y-23617484D01*
X11590301Y-23512722D02*
X11599824Y-23493674D01*
X11599824Y-23493674D02*
X11618872Y-23484150D01*
X11618872Y-23484150D02*
X11647443Y-23484150D01*
X11647443Y-23484150D02*
X11666491Y-23493674D01*
X11666491Y-23493674D02*
X11676015Y-23512722D01*
X11676015Y-23512722D02*
X11676015Y-23617484D01*
X12066491Y-23407960D02*
X11895063Y-23665103D01*
X12323634Y-23417484D02*
X12342682Y-23417484D01*
X12342682Y-23417484D02*
X12361729Y-23427008D01*
X12361729Y-23427008D02*
X12371253Y-23436531D01*
X12371253Y-23436531D02*
X12380777Y-23455579D01*
X12380777Y-23455579D02*
X12390301Y-23493674D01*
X12390301Y-23493674D02*
X12390301Y-23541293D01*
X12390301Y-23541293D02*
X12380777Y-23579388D01*
X12380777Y-23579388D02*
X12371253Y-23598436D01*
X12371253Y-23598436D02*
X12361729Y-23607960D01*
X12361729Y-23607960D02*
X12342682Y-23617484D01*
X12342682Y-23617484D02*
X12323634Y-23617484D01*
X12323634Y-23617484D02*
X12304586Y-23607960D01*
X12304586Y-23607960D02*
X12295063Y-23598436D01*
X12295063Y-23598436D02*
X12285539Y-23579388D01*
X12285539Y-23579388D02*
X12276015Y-23541293D01*
X12276015Y-23541293D02*
X12276015Y-23493674D01*
X12276015Y-23493674D02*
X12285539Y-23455579D01*
X12285539Y-23455579D02*
X12295063Y-23436531D01*
X12295063Y-23436531D02*
X12304586Y-23427008D01*
X12304586Y-23427008D02*
X12323634Y-23417484D01*
X12476015Y-23598436D02*
X12485539Y-23607960D01*
X12485539Y-23607960D02*
X12476015Y-23617484D01*
X12476015Y-23617484D02*
X12466491Y-23607960D01*
X12466491Y-23607960D02*
X12476015Y-23598436D01*
X12476015Y-23598436D02*
X12476015Y-23617484D01*
X12609348Y-23417484D02*
X12628396Y-23417484D01*
X12628396Y-23417484D02*
X12647444Y-23427008D01*
X12647444Y-23427008D02*
X12656967Y-23436531D01*
X12656967Y-23436531D02*
X12666491Y-23455579D01*
X12666491Y-23455579D02*
X12676015Y-23493674D01*
X12676015Y-23493674D02*
X12676015Y-23541293D01*
X12676015Y-23541293D02*
X12666491Y-23579388D01*
X12666491Y-23579388D02*
X12656967Y-23598436D01*
X12656967Y-23598436D02*
X12647444Y-23607960D01*
X12647444Y-23607960D02*
X12628396Y-23617484D01*
X12628396Y-23617484D02*
X12609348Y-23617484D01*
X12609348Y-23617484D02*
X12590301Y-23607960D01*
X12590301Y-23607960D02*
X12580777Y-23598436D01*
X12580777Y-23598436D02*
X12571253Y-23579388D01*
X12571253Y-23579388D02*
X12561729Y-23541293D01*
X12561729Y-23541293D02*
X12561729Y-23493674D01*
X12561729Y-23493674D02*
X12571253Y-23455579D01*
X12571253Y-23455579D02*
X12580777Y-23436531D01*
X12580777Y-23436531D02*
X12590301Y-23427008D01*
X12590301Y-23427008D02*
X12609348Y-23417484D01*
X12847444Y-23484150D02*
X12847444Y-23617484D01*
X12799825Y-23407960D02*
X12752206Y-23550817D01*
X12752206Y-23550817D02*
X12876015Y-23550817D01*
X12933158Y-23417484D02*
X13056967Y-23417484D01*
X13056967Y-23417484D02*
X12990301Y-23493674D01*
X12990301Y-23493674D02*
X13018872Y-23493674D01*
X13018872Y-23493674D02*
X13037920Y-23503198D01*
X13037920Y-23503198D02*
X13047444Y-23512722D01*
X13047444Y-23512722D02*
X13056967Y-23531769D01*
X13056967Y-23531769D02*
X13056967Y-23579388D01*
X13056967Y-23579388D02*
X13047444Y-23598436D01*
X13047444Y-23598436D02*
X13037920Y-23607960D01*
X13037920Y-23607960D02*
X13018872Y-23617484D01*
X13018872Y-23617484D02*
X12961729Y-23617484D01*
X12961729Y-23617484D02*
X12942682Y-23607960D01*
X12942682Y-23607960D02*
X12933158Y-23598436D01*
X13123634Y-23417484D02*
X13247444Y-23417484D01*
X13247444Y-23417484D02*
X13180777Y-23493674D01*
X13180777Y-23493674D02*
X13209348Y-23493674D01*
X13209348Y-23493674D02*
X13228396Y-23503198D01*
X13228396Y-23503198D02*
X13237920Y-23512722D01*
X13237920Y-23512722D02*
X13247444Y-23531769D01*
X13247444Y-23531769D02*
X13247444Y-23579388D01*
X13247444Y-23579388D02*
X13237920Y-23598436D01*
X13237920Y-23598436D02*
X13228396Y-23607960D01*
X13228396Y-23607960D02*
X13209348Y-23617484D01*
X13209348Y-23617484D02*
X13152206Y-23617484D01*
X13152206Y-23617484D02*
X13133158Y-23607960D01*
X13133158Y-23607960D02*
X13123634Y-23598436D01*
X13323634Y-23417484D02*
X13323634Y-23455579D01*
X13399825Y-23417484D02*
X13399825Y-23455579D01*
X13695063Y-23693674D02*
X13685539Y-23684150D01*
X13685539Y-23684150D02*
X13666491Y-23655579D01*
X13666491Y-23655579D02*
X13656968Y-23636531D01*
X13656968Y-23636531D02*
X13647444Y-23607960D01*
X13647444Y-23607960D02*
X13637920Y-23560341D01*
X13637920Y-23560341D02*
X13637920Y-23522246D01*
X13637920Y-23522246D02*
X13647444Y-23474627D01*
X13647444Y-23474627D02*
X13656968Y-23446055D01*
X13656968Y-23446055D02*
X13666491Y-23427008D01*
X13666491Y-23427008D02*
X13685539Y-23398436D01*
X13685539Y-23398436D02*
X13695063Y-23388912D01*
X13856968Y-23484150D02*
X13856968Y-23617484D01*
X13809348Y-23407960D02*
X13761729Y-23550817D01*
X13761729Y-23550817D02*
X13885539Y-23550817D01*
X13999825Y-23417484D02*
X14018872Y-23417484D01*
X14018872Y-23417484D02*
X14037920Y-23427008D01*
X14037920Y-23427008D02*
X14047444Y-23436531D01*
X14047444Y-23436531D02*
X14056968Y-23455579D01*
X14056968Y-23455579D02*
X14066491Y-23493674D01*
X14066491Y-23493674D02*
X14066491Y-23541293D01*
X14066491Y-23541293D02*
X14056968Y-23579388D01*
X14056968Y-23579388D02*
X14047444Y-23598436D01*
X14047444Y-23598436D02*
X14037920Y-23607960D01*
X14037920Y-23607960D02*
X14018872Y-23617484D01*
X14018872Y-23617484D02*
X13999825Y-23617484D01*
X13999825Y-23617484D02*
X13980777Y-23607960D01*
X13980777Y-23607960D02*
X13971253Y-23598436D01*
X13971253Y-23598436D02*
X13961729Y-23579388D01*
X13961729Y-23579388D02*
X13952206Y-23541293D01*
X13952206Y-23541293D02*
X13952206Y-23493674D01*
X13952206Y-23493674D02*
X13961729Y-23455579D01*
X13961729Y-23455579D02*
X13971253Y-23436531D01*
X13971253Y-23436531D02*
X13980777Y-23427008D01*
X13980777Y-23427008D02*
X13999825Y-23417484D01*
X14304587Y-23617484D02*
X14304587Y-23417484D01*
X14390301Y-23617484D02*
X14390301Y-23512722D01*
X14390301Y-23512722D02*
X14380777Y-23493674D01*
X14380777Y-23493674D02*
X14361730Y-23484150D01*
X14361730Y-23484150D02*
X14333158Y-23484150D01*
X14333158Y-23484150D02*
X14314110Y-23493674D01*
X14314110Y-23493674D02*
X14304587Y-23503198D01*
X14514110Y-23617484D02*
X14495063Y-23607960D01*
X14495063Y-23607960D02*
X14485539Y-23598436D01*
X14485539Y-23598436D02*
X14476015Y-23579388D01*
X14476015Y-23579388D02*
X14476015Y-23522246D01*
X14476015Y-23522246D02*
X14485539Y-23503198D01*
X14485539Y-23503198D02*
X14495063Y-23493674D01*
X14495063Y-23493674D02*
X14514110Y-23484150D01*
X14514110Y-23484150D02*
X14542682Y-23484150D01*
X14542682Y-23484150D02*
X14561730Y-23493674D01*
X14561730Y-23493674D02*
X14571253Y-23503198D01*
X14571253Y-23503198D02*
X14580777Y-23522246D01*
X14580777Y-23522246D02*
X14580777Y-23579388D01*
X14580777Y-23579388D02*
X14571253Y-23598436D01*
X14571253Y-23598436D02*
X14561730Y-23607960D01*
X14561730Y-23607960D02*
X14542682Y-23617484D01*
X14542682Y-23617484D02*
X14514110Y-23617484D01*
X14695063Y-23617484D02*
X14676015Y-23607960D01*
X14676015Y-23607960D02*
X14666491Y-23588912D01*
X14666491Y-23588912D02*
X14666491Y-23417484D01*
X14847444Y-23607960D02*
X14828396Y-23617484D01*
X14828396Y-23617484D02*
X14790301Y-23617484D01*
X14790301Y-23617484D02*
X14771253Y-23607960D01*
X14771253Y-23607960D02*
X14761730Y-23588912D01*
X14761730Y-23588912D02*
X14761730Y-23512722D01*
X14761730Y-23512722D02*
X14771253Y-23493674D01*
X14771253Y-23493674D02*
X14790301Y-23484150D01*
X14790301Y-23484150D02*
X14828396Y-23484150D01*
X14828396Y-23484150D02*
X14847444Y-23493674D01*
X14847444Y-23493674D02*
X14856968Y-23512722D01*
X14856968Y-23512722D02*
X14856968Y-23531769D01*
X14856968Y-23531769D02*
X14761730Y-23550817D01*
X14933158Y-23607960D02*
X14952206Y-23617484D01*
X14952206Y-23617484D02*
X14990301Y-23617484D01*
X14990301Y-23617484D02*
X15009349Y-23607960D01*
X15009349Y-23607960D02*
X15018872Y-23588912D01*
X15018872Y-23588912D02*
X15018872Y-23579388D01*
X15018872Y-23579388D02*
X15009349Y-23560341D01*
X15009349Y-23560341D02*
X14990301Y-23550817D01*
X14990301Y-23550817D02*
X14961730Y-23550817D01*
X14961730Y-23550817D02*
X14942682Y-23541293D01*
X14942682Y-23541293D02*
X14933158Y-23522246D01*
X14933158Y-23522246D02*
X14933158Y-23512722D01*
X14933158Y-23512722D02*
X14942682Y-23493674D01*
X14942682Y-23493674D02*
X14961730Y-23484150D01*
X14961730Y-23484150D02*
X14990301Y-23484150D01*
X14990301Y-23484150D02*
X15009349Y-23493674D01*
X15085539Y-23693674D02*
X15095063Y-23684150D01*
X15095063Y-23684150D02*
X15114111Y-23655579D01*
X15114111Y-23655579D02*
X15123634Y-23636531D01*
X15123634Y-23636531D02*
X15133158Y-23607960D01*
X15133158Y-23607960D02*
X15142682Y-23560341D01*
X15142682Y-23560341D02*
X15142682Y-23522246D01*
X15142682Y-23522246D02*
X15133158Y-23474627D01*
X15133158Y-23474627D02*
X15123634Y-23446055D01*
X15123634Y-23446055D02*
X15114111Y-23427008D01*
X15114111Y-23427008D02*
X15095063Y-23398436D01*
X15095063Y-23398436D02*
X15085539Y-23388912D01*
D17*
X10005700Y-23732850D02*
X10120000Y-23847150D01*
X10120000Y-23732850D02*
X10005700Y-23847150D01*
X10120000Y-23790000D02*
G75*
G03*
X10120000Y-23790000I-57150J0D01*
G01*
D11*
X10485539Y-23881484D02*
X10371253Y-23881484D01*
X10428396Y-23881484D02*
X10428396Y-23681484D01*
X10428396Y-23681484D02*
X10409348Y-23710055D01*
X10409348Y-23710055D02*
X10390301Y-23729103D01*
X10390301Y-23729103D02*
X10371253Y-23738627D01*
X10571253Y-23862436D02*
X10580777Y-23871960D01*
X10580777Y-23871960D02*
X10571253Y-23881484D01*
X10571253Y-23881484D02*
X10561729Y-23871960D01*
X10561729Y-23871960D02*
X10571253Y-23862436D01*
X10571253Y-23862436D02*
X10571253Y-23881484D01*
X10771253Y-23881484D02*
X10656967Y-23881484D01*
X10714110Y-23881484D02*
X10714110Y-23681484D01*
X10714110Y-23681484D02*
X10695063Y-23710055D01*
X10695063Y-23710055D02*
X10676015Y-23729103D01*
X10676015Y-23729103D02*
X10656967Y-23738627D01*
X10942682Y-23748150D02*
X10942682Y-23881484D01*
X10895063Y-23671960D02*
X10847444Y-23814817D01*
X10847444Y-23814817D02*
X10971253Y-23814817D01*
X11028396Y-23681484D02*
X11152205Y-23681484D01*
X11152205Y-23681484D02*
X11085539Y-23757674D01*
X11085539Y-23757674D02*
X11114110Y-23757674D01*
X11114110Y-23757674D02*
X11133158Y-23767198D01*
X11133158Y-23767198D02*
X11142682Y-23776722D01*
X11142682Y-23776722D02*
X11152205Y-23795769D01*
X11152205Y-23795769D02*
X11152205Y-23843388D01*
X11152205Y-23843388D02*
X11142682Y-23862436D01*
X11142682Y-23862436D02*
X11133158Y-23871960D01*
X11133158Y-23871960D02*
X11114110Y-23881484D01*
X11114110Y-23881484D02*
X11056967Y-23881484D01*
X11056967Y-23881484D02*
X11037920Y-23871960D01*
X11037920Y-23871960D02*
X11028396Y-23862436D01*
X11237920Y-23881484D02*
X11237920Y-23748150D01*
X11237920Y-23767198D02*
X11247443Y-23757674D01*
X11247443Y-23757674D02*
X11266491Y-23748150D01*
X11266491Y-23748150D02*
X11295063Y-23748150D01*
X11295063Y-23748150D02*
X11314110Y-23757674D01*
X11314110Y-23757674D02*
X11323634Y-23776722D01*
X11323634Y-23776722D02*
X11323634Y-23881484D01*
X11323634Y-23776722D02*
X11333158Y-23757674D01*
X11333158Y-23757674D02*
X11352205Y-23748150D01*
X11352205Y-23748150D02*
X11380777Y-23748150D01*
X11380777Y-23748150D02*
X11399824Y-23757674D01*
X11399824Y-23757674D02*
X11409348Y-23776722D01*
X11409348Y-23776722D02*
X11409348Y-23881484D01*
X11504586Y-23881484D02*
X11504586Y-23748150D01*
X11504586Y-23767198D02*
X11514110Y-23757674D01*
X11514110Y-23757674D02*
X11533158Y-23748150D01*
X11533158Y-23748150D02*
X11561729Y-23748150D01*
X11561729Y-23748150D02*
X11580777Y-23757674D01*
X11580777Y-23757674D02*
X11590301Y-23776722D01*
X11590301Y-23776722D02*
X11590301Y-23881484D01*
X11590301Y-23776722D02*
X11599824Y-23757674D01*
X11599824Y-23757674D02*
X11618872Y-23748150D01*
X11618872Y-23748150D02*
X11647443Y-23748150D01*
X11647443Y-23748150D02*
X11666491Y-23757674D01*
X11666491Y-23757674D02*
X11676015Y-23776722D01*
X11676015Y-23776722D02*
X11676015Y-23881484D01*
X12066491Y-23671960D02*
X11895063Y-23929103D01*
X12323634Y-23681484D02*
X12342682Y-23681484D01*
X12342682Y-23681484D02*
X12361729Y-23691008D01*
X12361729Y-23691008D02*
X12371253Y-23700531D01*
X12371253Y-23700531D02*
X12380777Y-23719579D01*
X12380777Y-23719579D02*
X12390301Y-23757674D01*
X12390301Y-23757674D02*
X12390301Y-23805293D01*
X12390301Y-23805293D02*
X12380777Y-23843388D01*
X12380777Y-23843388D02*
X12371253Y-23862436D01*
X12371253Y-23862436D02*
X12361729Y-23871960D01*
X12361729Y-23871960D02*
X12342682Y-23881484D01*
X12342682Y-23881484D02*
X12323634Y-23881484D01*
X12323634Y-23881484D02*
X12304586Y-23871960D01*
X12304586Y-23871960D02*
X12295063Y-23862436D01*
X12295063Y-23862436D02*
X12285539Y-23843388D01*
X12285539Y-23843388D02*
X12276015Y-23805293D01*
X12276015Y-23805293D02*
X12276015Y-23757674D01*
X12276015Y-23757674D02*
X12285539Y-23719579D01*
X12285539Y-23719579D02*
X12295063Y-23700531D01*
X12295063Y-23700531D02*
X12304586Y-23691008D01*
X12304586Y-23691008D02*
X12323634Y-23681484D01*
X12476015Y-23862436D02*
X12485539Y-23871960D01*
X12485539Y-23871960D02*
X12476015Y-23881484D01*
X12476015Y-23881484D02*
X12466491Y-23871960D01*
X12466491Y-23871960D02*
X12476015Y-23862436D01*
X12476015Y-23862436D02*
X12476015Y-23881484D01*
X12609348Y-23681484D02*
X12628396Y-23681484D01*
X12628396Y-23681484D02*
X12647444Y-23691008D01*
X12647444Y-23691008D02*
X12656967Y-23700531D01*
X12656967Y-23700531D02*
X12666491Y-23719579D01*
X12666491Y-23719579D02*
X12676015Y-23757674D01*
X12676015Y-23757674D02*
X12676015Y-23805293D01*
X12676015Y-23805293D02*
X12666491Y-23843388D01*
X12666491Y-23843388D02*
X12656967Y-23862436D01*
X12656967Y-23862436D02*
X12647444Y-23871960D01*
X12647444Y-23871960D02*
X12628396Y-23881484D01*
X12628396Y-23881484D02*
X12609348Y-23881484D01*
X12609348Y-23881484D02*
X12590301Y-23871960D01*
X12590301Y-23871960D02*
X12580777Y-23862436D01*
X12580777Y-23862436D02*
X12571253Y-23843388D01*
X12571253Y-23843388D02*
X12561729Y-23805293D01*
X12561729Y-23805293D02*
X12561729Y-23757674D01*
X12561729Y-23757674D02*
X12571253Y-23719579D01*
X12571253Y-23719579D02*
X12580777Y-23700531D01*
X12580777Y-23700531D02*
X12590301Y-23691008D01*
X12590301Y-23691008D02*
X12609348Y-23681484D01*
X12847444Y-23748150D02*
X12847444Y-23881484D01*
X12799825Y-23671960D02*
X12752206Y-23814817D01*
X12752206Y-23814817D02*
X12876015Y-23814817D01*
X13047444Y-23681484D02*
X12952206Y-23681484D01*
X12952206Y-23681484D02*
X12942682Y-23776722D01*
X12942682Y-23776722D02*
X12952206Y-23767198D01*
X12952206Y-23767198D02*
X12971253Y-23757674D01*
X12971253Y-23757674D02*
X13018872Y-23757674D01*
X13018872Y-23757674D02*
X13037920Y-23767198D01*
X13037920Y-23767198D02*
X13047444Y-23776722D01*
X13047444Y-23776722D02*
X13056967Y-23795769D01*
X13056967Y-23795769D02*
X13056967Y-23843388D01*
X13056967Y-23843388D02*
X13047444Y-23862436D01*
X13047444Y-23862436D02*
X13037920Y-23871960D01*
X13037920Y-23871960D02*
X13018872Y-23881484D01*
X13018872Y-23881484D02*
X12971253Y-23881484D01*
X12971253Y-23881484D02*
X12952206Y-23871960D01*
X12952206Y-23871960D02*
X12942682Y-23862436D01*
X13180777Y-23681484D02*
X13199825Y-23681484D01*
X13199825Y-23681484D02*
X13218872Y-23691008D01*
X13218872Y-23691008D02*
X13228396Y-23700531D01*
X13228396Y-23700531D02*
X13237920Y-23719579D01*
X13237920Y-23719579D02*
X13247444Y-23757674D01*
X13247444Y-23757674D02*
X13247444Y-23805293D01*
X13247444Y-23805293D02*
X13237920Y-23843388D01*
X13237920Y-23843388D02*
X13228396Y-23862436D01*
X13228396Y-23862436D02*
X13218872Y-23871960D01*
X13218872Y-23871960D02*
X13199825Y-23881484D01*
X13199825Y-23881484D02*
X13180777Y-23881484D01*
X13180777Y-23881484D02*
X13161729Y-23871960D01*
X13161729Y-23871960D02*
X13152206Y-23862436D01*
X13152206Y-23862436D02*
X13142682Y-23843388D01*
X13142682Y-23843388D02*
X13133158Y-23805293D01*
X13133158Y-23805293D02*
X13133158Y-23757674D01*
X13133158Y-23757674D02*
X13142682Y-23719579D01*
X13142682Y-23719579D02*
X13152206Y-23700531D01*
X13152206Y-23700531D02*
X13161729Y-23691008D01*
X13161729Y-23691008D02*
X13180777Y-23681484D01*
X13323634Y-23681484D02*
X13323634Y-23719579D01*
X13399825Y-23681484D02*
X13399825Y-23719579D01*
X13695063Y-23957674D02*
X13685539Y-23948150D01*
X13685539Y-23948150D02*
X13666491Y-23919579D01*
X13666491Y-23919579D02*
X13656968Y-23900531D01*
X13656968Y-23900531D02*
X13647444Y-23871960D01*
X13647444Y-23871960D02*
X13637920Y-23824341D01*
X13637920Y-23824341D02*
X13637920Y-23786246D01*
X13637920Y-23786246D02*
X13647444Y-23738627D01*
X13647444Y-23738627D02*
X13656968Y-23710055D01*
X13656968Y-23710055D02*
X13666491Y-23691008D01*
X13666491Y-23691008D02*
X13685539Y-23662436D01*
X13685539Y-23662436D02*
X13695063Y-23652912D01*
X13761729Y-23700531D02*
X13771253Y-23691008D01*
X13771253Y-23691008D02*
X13790301Y-23681484D01*
X13790301Y-23681484D02*
X13837920Y-23681484D01*
X13837920Y-23681484D02*
X13856968Y-23691008D01*
X13856968Y-23691008D02*
X13866491Y-23700531D01*
X13866491Y-23700531D02*
X13876015Y-23719579D01*
X13876015Y-23719579D02*
X13876015Y-23738627D01*
X13876015Y-23738627D02*
X13866491Y-23767198D01*
X13866491Y-23767198D02*
X13752206Y-23881484D01*
X13752206Y-23881484D02*
X13876015Y-23881484D01*
X14114110Y-23881484D02*
X14114110Y-23681484D01*
X14199825Y-23881484D02*
X14199825Y-23776722D01*
X14199825Y-23776722D02*
X14190301Y-23757674D01*
X14190301Y-23757674D02*
X14171253Y-23748150D01*
X14171253Y-23748150D02*
X14142682Y-23748150D01*
X14142682Y-23748150D02*
X14123634Y-23757674D01*
X14123634Y-23757674D02*
X14114110Y-23767198D01*
X14323634Y-23881484D02*
X14304587Y-23871960D01*
X14304587Y-23871960D02*
X14295063Y-23862436D01*
X14295063Y-23862436D02*
X14285539Y-23843388D01*
X14285539Y-23843388D02*
X14285539Y-23786246D01*
X14285539Y-23786246D02*
X14295063Y-23767198D01*
X14295063Y-23767198D02*
X14304587Y-23757674D01*
X14304587Y-23757674D02*
X14323634Y-23748150D01*
X14323634Y-23748150D02*
X14352206Y-23748150D01*
X14352206Y-23748150D02*
X14371253Y-23757674D01*
X14371253Y-23757674D02*
X14380777Y-23767198D01*
X14380777Y-23767198D02*
X14390301Y-23786246D01*
X14390301Y-23786246D02*
X14390301Y-23843388D01*
X14390301Y-23843388D02*
X14380777Y-23862436D01*
X14380777Y-23862436D02*
X14371253Y-23871960D01*
X14371253Y-23871960D02*
X14352206Y-23881484D01*
X14352206Y-23881484D02*
X14323634Y-23881484D01*
X14504587Y-23881484D02*
X14485539Y-23871960D01*
X14485539Y-23871960D02*
X14476015Y-23852912D01*
X14476015Y-23852912D02*
X14476015Y-23681484D01*
X14656968Y-23871960D02*
X14637920Y-23881484D01*
X14637920Y-23881484D02*
X14599825Y-23881484D01*
X14599825Y-23881484D02*
X14580777Y-23871960D01*
X14580777Y-23871960D02*
X14571253Y-23852912D01*
X14571253Y-23852912D02*
X14571253Y-23776722D01*
X14571253Y-23776722D02*
X14580777Y-23757674D01*
X14580777Y-23757674D02*
X14599825Y-23748150D01*
X14599825Y-23748150D02*
X14637920Y-23748150D01*
X14637920Y-23748150D02*
X14656968Y-23757674D01*
X14656968Y-23757674D02*
X14666491Y-23776722D01*
X14666491Y-23776722D02*
X14666491Y-23795769D01*
X14666491Y-23795769D02*
X14571253Y-23814817D01*
X14742682Y-23871960D02*
X14761730Y-23881484D01*
X14761730Y-23881484D02*
X14799825Y-23881484D01*
X14799825Y-23881484D02*
X14818872Y-23871960D01*
X14818872Y-23871960D02*
X14828396Y-23852912D01*
X14828396Y-23852912D02*
X14828396Y-23843388D01*
X14828396Y-23843388D02*
X14818872Y-23824341D01*
X14818872Y-23824341D02*
X14799825Y-23814817D01*
X14799825Y-23814817D02*
X14771253Y-23814817D01*
X14771253Y-23814817D02*
X14752206Y-23805293D01*
X14752206Y-23805293D02*
X14742682Y-23786246D01*
X14742682Y-23786246D02*
X14742682Y-23776722D01*
X14742682Y-23776722D02*
X14752206Y-23757674D01*
X14752206Y-23757674D02*
X14771253Y-23748150D01*
X14771253Y-23748150D02*
X14799825Y-23748150D01*
X14799825Y-23748150D02*
X14818872Y-23757674D01*
X14895063Y-23957674D02*
X14904587Y-23948150D01*
X14904587Y-23948150D02*
X14923634Y-23919579D01*
X14923634Y-23919579D02*
X14933158Y-23900531D01*
X14933158Y-23900531D02*
X14942682Y-23871960D01*
X14942682Y-23871960D02*
X14952206Y-23824341D01*
X14952206Y-23824341D02*
X14952206Y-23786246D01*
X14952206Y-23786246D02*
X14942682Y-23738627D01*
X14942682Y-23738627D02*
X14933158Y-23710055D01*
X14933158Y-23710055D02*
X14923634Y-23691008D01*
X14923634Y-23691008D02*
X14904587Y-23662436D01*
X14904587Y-23662436D02*
X14895063Y-23652912D01*
D18*
X10000000Y-23994000D02*
X10120000Y-24114000D01*
X10120000Y-23994000D02*
X10000000Y-24114000D01*
X10060000Y-23994000D02*
X10060000Y-24114000D01*
X10000000Y-24054000D02*
X10120000Y-24054000D01*
D11*
X10485539Y-24145484D02*
X10371253Y-24145484D01*
X10428396Y-24145484D02*
X10428396Y-23945484D01*
X10428396Y-23945484D02*
X10409348Y-23974055D01*
X10409348Y-23974055D02*
X10390301Y-23993103D01*
X10390301Y-23993103D02*
X10371253Y-24002627D01*
X10571253Y-24126436D02*
X10580777Y-24135960D01*
X10580777Y-24135960D02*
X10571253Y-24145484D01*
X10571253Y-24145484D02*
X10561729Y-24135960D01*
X10561729Y-24135960D02*
X10571253Y-24126436D01*
X10571253Y-24126436D02*
X10571253Y-24145484D01*
X10656967Y-23964531D02*
X10666491Y-23955008D01*
X10666491Y-23955008D02*
X10685539Y-23945484D01*
X10685539Y-23945484D02*
X10733158Y-23945484D01*
X10733158Y-23945484D02*
X10752205Y-23955008D01*
X10752205Y-23955008D02*
X10761729Y-23964531D01*
X10761729Y-23964531D02*
X10771253Y-23983579D01*
X10771253Y-23983579D02*
X10771253Y-24002627D01*
X10771253Y-24002627D02*
X10761729Y-24031198D01*
X10761729Y-24031198D02*
X10647444Y-24145484D01*
X10647444Y-24145484D02*
X10771253Y-24145484D01*
X10895063Y-23945484D02*
X10914110Y-23945484D01*
X10914110Y-23945484D02*
X10933158Y-23955008D01*
X10933158Y-23955008D02*
X10942682Y-23964531D01*
X10942682Y-23964531D02*
X10952205Y-23983579D01*
X10952205Y-23983579D02*
X10961729Y-24021674D01*
X10961729Y-24021674D02*
X10961729Y-24069293D01*
X10961729Y-24069293D02*
X10952205Y-24107388D01*
X10952205Y-24107388D02*
X10942682Y-24126436D01*
X10942682Y-24126436D02*
X10933158Y-24135960D01*
X10933158Y-24135960D02*
X10914110Y-24145484D01*
X10914110Y-24145484D02*
X10895063Y-24145484D01*
X10895063Y-24145484D02*
X10876015Y-24135960D01*
X10876015Y-24135960D02*
X10866491Y-24126436D01*
X10866491Y-24126436D02*
X10856967Y-24107388D01*
X10856967Y-24107388D02*
X10847444Y-24069293D01*
X10847444Y-24069293D02*
X10847444Y-24021674D01*
X10847444Y-24021674D02*
X10856967Y-23983579D01*
X10856967Y-23983579D02*
X10866491Y-23964531D01*
X10866491Y-23964531D02*
X10876015Y-23955008D01*
X10876015Y-23955008D02*
X10895063Y-23945484D01*
X11085539Y-23945484D02*
X11104586Y-23945484D01*
X11104586Y-23945484D02*
X11123634Y-23955008D01*
X11123634Y-23955008D02*
X11133158Y-23964531D01*
X11133158Y-23964531D02*
X11142682Y-23983579D01*
X11142682Y-23983579D02*
X11152205Y-24021674D01*
X11152205Y-24021674D02*
X11152205Y-24069293D01*
X11152205Y-24069293D02*
X11142682Y-24107388D01*
X11142682Y-24107388D02*
X11133158Y-24126436D01*
X11133158Y-24126436D02*
X11123634Y-24135960D01*
X11123634Y-24135960D02*
X11104586Y-24145484D01*
X11104586Y-24145484D02*
X11085539Y-24145484D01*
X11085539Y-24145484D02*
X11066491Y-24135960D01*
X11066491Y-24135960D02*
X11056967Y-24126436D01*
X11056967Y-24126436D02*
X11047444Y-24107388D01*
X11047444Y-24107388D02*
X11037920Y-24069293D01*
X11037920Y-24069293D02*
X11037920Y-24021674D01*
X11037920Y-24021674D02*
X11047444Y-23983579D01*
X11047444Y-23983579D02*
X11056967Y-23964531D01*
X11056967Y-23964531D02*
X11066491Y-23955008D01*
X11066491Y-23955008D02*
X11085539Y-23945484D01*
X11237920Y-24145484D02*
X11237920Y-24012150D01*
X11237920Y-24031198D02*
X11247443Y-24021674D01*
X11247443Y-24021674D02*
X11266491Y-24012150D01*
X11266491Y-24012150D02*
X11295063Y-24012150D01*
X11295063Y-24012150D02*
X11314110Y-24021674D01*
X11314110Y-24021674D02*
X11323634Y-24040722D01*
X11323634Y-24040722D02*
X11323634Y-24145484D01*
X11323634Y-24040722D02*
X11333158Y-24021674D01*
X11333158Y-24021674D02*
X11352205Y-24012150D01*
X11352205Y-24012150D02*
X11380777Y-24012150D01*
X11380777Y-24012150D02*
X11399824Y-24021674D01*
X11399824Y-24021674D02*
X11409348Y-24040722D01*
X11409348Y-24040722D02*
X11409348Y-24145484D01*
X11504586Y-24145484D02*
X11504586Y-24012150D01*
X11504586Y-24031198D02*
X11514110Y-24021674D01*
X11514110Y-24021674D02*
X11533158Y-24012150D01*
X11533158Y-24012150D02*
X11561729Y-24012150D01*
X11561729Y-24012150D02*
X11580777Y-24021674D01*
X11580777Y-24021674D02*
X11590301Y-24040722D01*
X11590301Y-24040722D02*
X11590301Y-24145484D01*
X11590301Y-24040722D02*
X11599824Y-24021674D01*
X11599824Y-24021674D02*
X11618872Y-24012150D01*
X11618872Y-24012150D02*
X11647443Y-24012150D01*
X11647443Y-24012150D02*
X11666491Y-24021674D01*
X11666491Y-24021674D02*
X11676015Y-24040722D01*
X11676015Y-24040722D02*
X11676015Y-24145484D01*
X12066491Y-23935960D02*
X11895063Y-24193103D01*
X12323634Y-23945484D02*
X12342682Y-23945484D01*
X12342682Y-23945484D02*
X12361729Y-23955008D01*
X12361729Y-23955008D02*
X12371253Y-23964531D01*
X12371253Y-23964531D02*
X12380777Y-23983579D01*
X12380777Y-23983579D02*
X12390301Y-24021674D01*
X12390301Y-24021674D02*
X12390301Y-24069293D01*
X12390301Y-24069293D02*
X12380777Y-24107388D01*
X12380777Y-24107388D02*
X12371253Y-24126436D01*
X12371253Y-24126436D02*
X12361729Y-24135960D01*
X12361729Y-24135960D02*
X12342682Y-24145484D01*
X12342682Y-24145484D02*
X12323634Y-24145484D01*
X12323634Y-24145484D02*
X12304586Y-24135960D01*
X12304586Y-24135960D02*
X12295063Y-24126436D01*
X12295063Y-24126436D02*
X12285539Y-24107388D01*
X12285539Y-24107388D02*
X12276015Y-24069293D01*
X12276015Y-24069293D02*
X12276015Y-24021674D01*
X12276015Y-24021674D02*
X12285539Y-23983579D01*
X12285539Y-23983579D02*
X12295063Y-23964531D01*
X12295063Y-23964531D02*
X12304586Y-23955008D01*
X12304586Y-23955008D02*
X12323634Y-23945484D01*
X12476015Y-24126436D02*
X12485539Y-24135960D01*
X12485539Y-24135960D02*
X12476015Y-24145484D01*
X12476015Y-24145484D02*
X12466491Y-24135960D01*
X12466491Y-24135960D02*
X12476015Y-24126436D01*
X12476015Y-24126436D02*
X12476015Y-24145484D01*
X12609348Y-23945484D02*
X12628396Y-23945484D01*
X12628396Y-23945484D02*
X12647444Y-23955008D01*
X12647444Y-23955008D02*
X12656967Y-23964531D01*
X12656967Y-23964531D02*
X12666491Y-23983579D01*
X12666491Y-23983579D02*
X12676015Y-24021674D01*
X12676015Y-24021674D02*
X12676015Y-24069293D01*
X12676015Y-24069293D02*
X12666491Y-24107388D01*
X12666491Y-24107388D02*
X12656967Y-24126436D01*
X12656967Y-24126436D02*
X12647444Y-24135960D01*
X12647444Y-24135960D02*
X12628396Y-24145484D01*
X12628396Y-24145484D02*
X12609348Y-24145484D01*
X12609348Y-24145484D02*
X12590301Y-24135960D01*
X12590301Y-24135960D02*
X12580777Y-24126436D01*
X12580777Y-24126436D02*
X12571253Y-24107388D01*
X12571253Y-24107388D02*
X12561729Y-24069293D01*
X12561729Y-24069293D02*
X12561729Y-24021674D01*
X12561729Y-24021674D02*
X12571253Y-23983579D01*
X12571253Y-23983579D02*
X12580777Y-23964531D01*
X12580777Y-23964531D02*
X12590301Y-23955008D01*
X12590301Y-23955008D02*
X12609348Y-23945484D01*
X12847444Y-24012150D02*
X12847444Y-24145484D01*
X12799825Y-23935960D02*
X12752206Y-24078817D01*
X12752206Y-24078817D02*
X12876015Y-24078817D01*
X12933158Y-23945484D02*
X13066491Y-23945484D01*
X13066491Y-23945484D02*
X12980777Y-24145484D01*
X13133158Y-23964531D02*
X13142682Y-23955008D01*
X13142682Y-23955008D02*
X13161729Y-23945484D01*
X13161729Y-23945484D02*
X13209348Y-23945484D01*
X13209348Y-23945484D02*
X13228396Y-23955008D01*
X13228396Y-23955008D02*
X13237920Y-23964531D01*
X13237920Y-23964531D02*
X13247444Y-23983579D01*
X13247444Y-23983579D02*
X13247444Y-24002627D01*
X13247444Y-24002627D02*
X13237920Y-24031198D01*
X13237920Y-24031198D02*
X13123634Y-24145484D01*
X13123634Y-24145484D02*
X13247444Y-24145484D01*
X13323634Y-23945484D02*
X13323634Y-23983579D01*
X13399825Y-23945484D02*
X13399825Y-23983579D01*
X13695063Y-24221674D02*
X13685539Y-24212150D01*
X13685539Y-24212150D02*
X13666491Y-24183579D01*
X13666491Y-24183579D02*
X13656968Y-24164531D01*
X13656968Y-24164531D02*
X13647444Y-24135960D01*
X13647444Y-24135960D02*
X13637920Y-24088341D01*
X13637920Y-24088341D02*
X13637920Y-24050246D01*
X13637920Y-24050246D02*
X13647444Y-24002627D01*
X13647444Y-24002627D02*
X13656968Y-23974055D01*
X13656968Y-23974055D02*
X13666491Y-23955008D01*
X13666491Y-23955008D02*
X13685539Y-23926436D01*
X13685539Y-23926436D02*
X13695063Y-23916912D01*
X13761729Y-23964531D02*
X13771253Y-23955008D01*
X13771253Y-23955008D02*
X13790301Y-23945484D01*
X13790301Y-23945484D02*
X13837920Y-23945484D01*
X13837920Y-23945484D02*
X13856968Y-23955008D01*
X13856968Y-23955008D02*
X13866491Y-23964531D01*
X13866491Y-23964531D02*
X13876015Y-23983579D01*
X13876015Y-23983579D02*
X13876015Y-24002627D01*
X13876015Y-24002627D02*
X13866491Y-24031198D01*
X13866491Y-24031198D02*
X13752206Y-24145484D01*
X13752206Y-24145484D02*
X13876015Y-24145484D01*
X14047444Y-24012150D02*
X14047444Y-24145484D01*
X13999825Y-23935960D02*
X13952206Y-24078817D01*
X13952206Y-24078817D02*
X14076015Y-24078817D01*
X14304587Y-24145484D02*
X14304587Y-23945484D01*
X14390301Y-24145484D02*
X14390301Y-24040722D01*
X14390301Y-24040722D02*
X14380777Y-24021674D01*
X14380777Y-24021674D02*
X14361730Y-24012150D01*
X14361730Y-24012150D02*
X14333158Y-24012150D01*
X14333158Y-24012150D02*
X14314110Y-24021674D01*
X14314110Y-24021674D02*
X14304587Y-24031198D01*
X14514110Y-24145484D02*
X14495063Y-24135960D01*
X14495063Y-24135960D02*
X14485539Y-24126436D01*
X14485539Y-24126436D02*
X14476015Y-24107388D01*
X14476015Y-24107388D02*
X14476015Y-24050246D01*
X14476015Y-24050246D02*
X14485539Y-24031198D01*
X14485539Y-24031198D02*
X14495063Y-24021674D01*
X14495063Y-24021674D02*
X14514110Y-24012150D01*
X14514110Y-24012150D02*
X14542682Y-24012150D01*
X14542682Y-24012150D02*
X14561730Y-24021674D01*
X14561730Y-24021674D02*
X14571253Y-24031198D01*
X14571253Y-24031198D02*
X14580777Y-24050246D01*
X14580777Y-24050246D02*
X14580777Y-24107388D01*
X14580777Y-24107388D02*
X14571253Y-24126436D01*
X14571253Y-24126436D02*
X14561730Y-24135960D01*
X14561730Y-24135960D02*
X14542682Y-24145484D01*
X14542682Y-24145484D02*
X14514110Y-24145484D01*
X14695063Y-24145484D02*
X14676015Y-24135960D01*
X14676015Y-24135960D02*
X14666491Y-24116912D01*
X14666491Y-24116912D02*
X14666491Y-23945484D01*
X14847444Y-24135960D02*
X14828396Y-24145484D01*
X14828396Y-24145484D02*
X14790301Y-24145484D01*
X14790301Y-24145484D02*
X14771253Y-24135960D01*
X14771253Y-24135960D02*
X14761730Y-24116912D01*
X14761730Y-24116912D02*
X14761730Y-24040722D01*
X14761730Y-24040722D02*
X14771253Y-24021674D01*
X14771253Y-24021674D02*
X14790301Y-24012150D01*
X14790301Y-24012150D02*
X14828396Y-24012150D01*
X14828396Y-24012150D02*
X14847444Y-24021674D01*
X14847444Y-24021674D02*
X14856968Y-24040722D01*
X14856968Y-24040722D02*
X14856968Y-24059769D01*
X14856968Y-24059769D02*
X14761730Y-24078817D01*
X14933158Y-24135960D02*
X14952206Y-24145484D01*
X14952206Y-24145484D02*
X14990301Y-24145484D01*
X14990301Y-24145484D02*
X15009349Y-24135960D01*
X15009349Y-24135960D02*
X15018872Y-24116912D01*
X15018872Y-24116912D02*
X15018872Y-24107388D01*
X15018872Y-24107388D02*
X15009349Y-24088341D01*
X15009349Y-24088341D02*
X14990301Y-24078817D01*
X14990301Y-24078817D02*
X14961730Y-24078817D01*
X14961730Y-24078817D02*
X14942682Y-24069293D01*
X14942682Y-24069293D02*
X14933158Y-24050246D01*
X14933158Y-24050246D02*
X14933158Y-24040722D01*
X14933158Y-24040722D02*
X14942682Y-24021674D01*
X14942682Y-24021674D02*
X14961730Y-24012150D01*
X14961730Y-24012150D02*
X14990301Y-24012150D01*
X14990301Y-24012150D02*
X15009349Y-24021674D01*
X15085539Y-24221674D02*
X15095063Y-24212150D01*
X15095063Y-24212150D02*
X15114111Y-24183579D01*
X15114111Y-24183579D02*
X15123634Y-24164531D01*
X15123634Y-24164531D02*
X15133158Y-24135960D01*
X15133158Y-24135960D02*
X15142682Y-24088341D01*
X15142682Y-24088341D02*
X15142682Y-24050246D01*
X15142682Y-24050246D02*
X15133158Y-24002627D01*
X15133158Y-24002627D02*
X15123634Y-23974055D01*
X15123634Y-23974055D02*
X15114111Y-23955008D01*
X15114111Y-23955008D02*
X15095063Y-23926436D01*
X15095063Y-23926436D02*
X15085539Y-23916912D01*
D19*
X9950000Y-24233000D02*
X10120000Y-24403000D01*
X10120000Y-24233000D02*
X9950000Y-24403000D01*
X10095105Y-24378105D02*
X10095105Y-24257895D01*
X9974895Y-24257895D01*
X9974895Y-24378105D01*
X10095105Y-24378105D01*
D11*
X10485539Y-24409484D02*
X10371253Y-24409484D01*
X10428396Y-24409484D02*
X10428396Y-24209484D01*
X10428396Y-24209484D02*
X10409348Y-24238055D01*
X10409348Y-24238055D02*
X10390301Y-24257103D01*
X10390301Y-24257103D02*
X10371253Y-24266627D01*
X10571253Y-24390436D02*
X10580777Y-24399960D01*
X10580777Y-24399960D02*
X10571253Y-24409484D01*
X10571253Y-24409484D02*
X10561729Y-24399960D01*
X10561729Y-24399960D02*
X10571253Y-24390436D01*
X10571253Y-24390436D02*
X10571253Y-24409484D01*
X10647444Y-24209484D02*
X10780777Y-24209484D01*
X10780777Y-24209484D02*
X10695063Y-24409484D01*
X10895063Y-24209484D02*
X10914110Y-24209484D01*
X10914110Y-24209484D02*
X10933158Y-24219008D01*
X10933158Y-24219008D02*
X10942682Y-24228531D01*
X10942682Y-24228531D02*
X10952205Y-24247579D01*
X10952205Y-24247579D02*
X10961729Y-24285674D01*
X10961729Y-24285674D02*
X10961729Y-24333293D01*
X10961729Y-24333293D02*
X10952205Y-24371388D01*
X10952205Y-24371388D02*
X10942682Y-24390436D01*
X10942682Y-24390436D02*
X10933158Y-24399960D01*
X10933158Y-24399960D02*
X10914110Y-24409484D01*
X10914110Y-24409484D02*
X10895063Y-24409484D01*
X10895063Y-24409484D02*
X10876015Y-24399960D01*
X10876015Y-24399960D02*
X10866491Y-24390436D01*
X10866491Y-24390436D02*
X10856967Y-24371388D01*
X10856967Y-24371388D02*
X10847444Y-24333293D01*
X10847444Y-24333293D02*
X10847444Y-24285674D01*
X10847444Y-24285674D02*
X10856967Y-24247579D01*
X10856967Y-24247579D02*
X10866491Y-24228531D01*
X10866491Y-24228531D02*
X10876015Y-24219008D01*
X10876015Y-24219008D02*
X10895063Y-24209484D01*
X11085539Y-24209484D02*
X11104586Y-24209484D01*
X11104586Y-24209484D02*
X11123634Y-24219008D01*
X11123634Y-24219008D02*
X11133158Y-24228531D01*
X11133158Y-24228531D02*
X11142682Y-24247579D01*
X11142682Y-24247579D02*
X11152205Y-24285674D01*
X11152205Y-24285674D02*
X11152205Y-24333293D01*
X11152205Y-24333293D02*
X11142682Y-24371388D01*
X11142682Y-24371388D02*
X11133158Y-24390436D01*
X11133158Y-24390436D02*
X11123634Y-24399960D01*
X11123634Y-24399960D02*
X11104586Y-24409484D01*
X11104586Y-24409484D02*
X11085539Y-24409484D01*
X11085539Y-24409484D02*
X11066491Y-24399960D01*
X11066491Y-24399960D02*
X11056967Y-24390436D01*
X11056967Y-24390436D02*
X11047444Y-24371388D01*
X11047444Y-24371388D02*
X11037920Y-24333293D01*
X11037920Y-24333293D02*
X11037920Y-24285674D01*
X11037920Y-24285674D02*
X11047444Y-24247579D01*
X11047444Y-24247579D02*
X11056967Y-24228531D01*
X11056967Y-24228531D02*
X11066491Y-24219008D01*
X11066491Y-24219008D02*
X11085539Y-24209484D01*
X11237920Y-24409484D02*
X11237920Y-24276150D01*
X11237920Y-24295198D02*
X11247443Y-24285674D01*
X11247443Y-24285674D02*
X11266491Y-24276150D01*
X11266491Y-24276150D02*
X11295063Y-24276150D01*
X11295063Y-24276150D02*
X11314110Y-24285674D01*
X11314110Y-24285674D02*
X11323634Y-24304722D01*
X11323634Y-24304722D02*
X11323634Y-24409484D01*
X11323634Y-24304722D02*
X11333158Y-24285674D01*
X11333158Y-24285674D02*
X11352205Y-24276150D01*
X11352205Y-24276150D02*
X11380777Y-24276150D01*
X11380777Y-24276150D02*
X11399824Y-24285674D01*
X11399824Y-24285674D02*
X11409348Y-24304722D01*
X11409348Y-24304722D02*
X11409348Y-24409484D01*
X11504586Y-24409484D02*
X11504586Y-24276150D01*
X11504586Y-24295198D02*
X11514110Y-24285674D01*
X11514110Y-24285674D02*
X11533158Y-24276150D01*
X11533158Y-24276150D02*
X11561729Y-24276150D01*
X11561729Y-24276150D02*
X11580777Y-24285674D01*
X11580777Y-24285674D02*
X11590301Y-24304722D01*
X11590301Y-24304722D02*
X11590301Y-24409484D01*
X11590301Y-24304722D02*
X11599824Y-24285674D01*
X11599824Y-24285674D02*
X11618872Y-24276150D01*
X11618872Y-24276150D02*
X11647443Y-24276150D01*
X11647443Y-24276150D02*
X11666491Y-24285674D01*
X11666491Y-24285674D02*
X11676015Y-24304722D01*
X11676015Y-24304722D02*
X11676015Y-24409484D01*
X12066491Y-24199960D02*
X11895063Y-24457103D01*
X12323634Y-24209484D02*
X12342682Y-24209484D01*
X12342682Y-24209484D02*
X12361729Y-24219008D01*
X12361729Y-24219008D02*
X12371253Y-24228531D01*
X12371253Y-24228531D02*
X12380777Y-24247579D01*
X12380777Y-24247579D02*
X12390301Y-24285674D01*
X12390301Y-24285674D02*
X12390301Y-24333293D01*
X12390301Y-24333293D02*
X12380777Y-24371388D01*
X12380777Y-24371388D02*
X12371253Y-24390436D01*
X12371253Y-24390436D02*
X12361729Y-24399960D01*
X12361729Y-24399960D02*
X12342682Y-24409484D01*
X12342682Y-24409484D02*
X12323634Y-24409484D01*
X12323634Y-24409484D02*
X12304586Y-24399960D01*
X12304586Y-24399960D02*
X12295063Y-24390436D01*
X12295063Y-24390436D02*
X12285539Y-24371388D01*
X12285539Y-24371388D02*
X12276015Y-24333293D01*
X12276015Y-24333293D02*
X12276015Y-24285674D01*
X12276015Y-24285674D02*
X12285539Y-24247579D01*
X12285539Y-24247579D02*
X12295063Y-24228531D01*
X12295063Y-24228531D02*
X12304586Y-24219008D01*
X12304586Y-24219008D02*
X12323634Y-24209484D01*
X12476015Y-24390436D02*
X12485539Y-24399960D01*
X12485539Y-24399960D02*
X12476015Y-24409484D01*
X12476015Y-24409484D02*
X12466491Y-24399960D01*
X12466491Y-24399960D02*
X12476015Y-24390436D01*
X12476015Y-24390436D02*
X12476015Y-24409484D01*
X12609348Y-24209484D02*
X12628396Y-24209484D01*
X12628396Y-24209484D02*
X12647444Y-24219008D01*
X12647444Y-24219008D02*
X12656967Y-24228531D01*
X12656967Y-24228531D02*
X12666491Y-24247579D01*
X12666491Y-24247579D02*
X12676015Y-24285674D01*
X12676015Y-24285674D02*
X12676015Y-24333293D01*
X12676015Y-24333293D02*
X12666491Y-24371388D01*
X12666491Y-24371388D02*
X12656967Y-24390436D01*
X12656967Y-24390436D02*
X12647444Y-24399960D01*
X12647444Y-24399960D02*
X12628396Y-24409484D01*
X12628396Y-24409484D02*
X12609348Y-24409484D01*
X12609348Y-24409484D02*
X12590301Y-24399960D01*
X12590301Y-24399960D02*
X12580777Y-24390436D01*
X12580777Y-24390436D02*
X12571253Y-24371388D01*
X12571253Y-24371388D02*
X12561729Y-24333293D01*
X12561729Y-24333293D02*
X12561729Y-24285674D01*
X12561729Y-24285674D02*
X12571253Y-24247579D01*
X12571253Y-24247579D02*
X12580777Y-24228531D01*
X12580777Y-24228531D02*
X12590301Y-24219008D01*
X12590301Y-24219008D02*
X12609348Y-24209484D01*
X12847444Y-24209484D02*
X12809348Y-24209484D01*
X12809348Y-24209484D02*
X12790301Y-24219008D01*
X12790301Y-24219008D02*
X12780777Y-24228531D01*
X12780777Y-24228531D02*
X12761729Y-24257103D01*
X12761729Y-24257103D02*
X12752206Y-24295198D01*
X12752206Y-24295198D02*
X12752206Y-24371388D01*
X12752206Y-24371388D02*
X12761729Y-24390436D01*
X12761729Y-24390436D02*
X12771253Y-24399960D01*
X12771253Y-24399960D02*
X12790301Y-24409484D01*
X12790301Y-24409484D02*
X12828396Y-24409484D01*
X12828396Y-24409484D02*
X12847444Y-24399960D01*
X12847444Y-24399960D02*
X12856967Y-24390436D01*
X12856967Y-24390436D02*
X12866491Y-24371388D01*
X12866491Y-24371388D02*
X12866491Y-24323769D01*
X12866491Y-24323769D02*
X12856967Y-24304722D01*
X12856967Y-24304722D02*
X12847444Y-24295198D01*
X12847444Y-24295198D02*
X12828396Y-24285674D01*
X12828396Y-24285674D02*
X12790301Y-24285674D01*
X12790301Y-24285674D02*
X12771253Y-24295198D01*
X12771253Y-24295198D02*
X12761729Y-24304722D01*
X12761729Y-24304722D02*
X12752206Y-24323769D01*
X13037920Y-24209484D02*
X12999825Y-24209484D01*
X12999825Y-24209484D02*
X12980777Y-24219008D01*
X12980777Y-24219008D02*
X12971253Y-24228531D01*
X12971253Y-24228531D02*
X12952206Y-24257103D01*
X12952206Y-24257103D02*
X12942682Y-24295198D01*
X12942682Y-24295198D02*
X12942682Y-24371388D01*
X12942682Y-24371388D02*
X12952206Y-24390436D01*
X12952206Y-24390436D02*
X12961729Y-24399960D01*
X12961729Y-24399960D02*
X12980777Y-24409484D01*
X12980777Y-24409484D02*
X13018872Y-24409484D01*
X13018872Y-24409484D02*
X13037920Y-24399960D01*
X13037920Y-24399960D02*
X13047444Y-24390436D01*
X13047444Y-24390436D02*
X13056967Y-24371388D01*
X13056967Y-24371388D02*
X13056967Y-24323769D01*
X13056967Y-24323769D02*
X13047444Y-24304722D01*
X13047444Y-24304722D02*
X13037920Y-24295198D01*
X13037920Y-24295198D02*
X13018872Y-24285674D01*
X13018872Y-24285674D02*
X12980777Y-24285674D01*
X12980777Y-24285674D02*
X12961729Y-24295198D01*
X12961729Y-24295198D02*
X12952206Y-24304722D01*
X12952206Y-24304722D02*
X12942682Y-24323769D01*
X13152206Y-24409484D02*
X13190301Y-24409484D01*
X13190301Y-24409484D02*
X13209348Y-24399960D01*
X13209348Y-24399960D02*
X13218872Y-24390436D01*
X13218872Y-24390436D02*
X13237920Y-24361865D01*
X13237920Y-24361865D02*
X13247444Y-24323769D01*
X13247444Y-24323769D02*
X13247444Y-24247579D01*
X13247444Y-24247579D02*
X13237920Y-24228531D01*
X13237920Y-24228531D02*
X13228396Y-24219008D01*
X13228396Y-24219008D02*
X13209348Y-24209484D01*
X13209348Y-24209484D02*
X13171253Y-24209484D01*
X13171253Y-24209484D02*
X13152206Y-24219008D01*
X13152206Y-24219008D02*
X13142682Y-24228531D01*
X13142682Y-24228531D02*
X13133158Y-24247579D01*
X13133158Y-24247579D02*
X13133158Y-24295198D01*
X13133158Y-24295198D02*
X13142682Y-24314246D01*
X13142682Y-24314246D02*
X13152206Y-24323769D01*
X13152206Y-24323769D02*
X13171253Y-24333293D01*
X13171253Y-24333293D02*
X13209348Y-24333293D01*
X13209348Y-24333293D02*
X13228396Y-24323769D01*
X13228396Y-24323769D02*
X13237920Y-24314246D01*
X13237920Y-24314246D02*
X13247444Y-24295198D01*
X13323634Y-24209484D02*
X13323634Y-24247579D01*
X13399825Y-24209484D02*
X13399825Y-24247579D01*
X13695063Y-24485674D02*
X13685539Y-24476150D01*
X13685539Y-24476150D02*
X13666491Y-24447579D01*
X13666491Y-24447579D02*
X13656968Y-24428531D01*
X13656968Y-24428531D02*
X13647444Y-24399960D01*
X13647444Y-24399960D02*
X13637920Y-24352341D01*
X13637920Y-24352341D02*
X13637920Y-24314246D01*
X13637920Y-24314246D02*
X13647444Y-24266627D01*
X13647444Y-24266627D02*
X13656968Y-24238055D01*
X13656968Y-24238055D02*
X13666491Y-24219008D01*
X13666491Y-24219008D02*
X13685539Y-24190436D01*
X13685539Y-24190436D02*
X13695063Y-24180912D01*
X13752206Y-24209484D02*
X13876015Y-24209484D01*
X13876015Y-24209484D02*
X13809348Y-24285674D01*
X13809348Y-24285674D02*
X13837920Y-24285674D01*
X13837920Y-24285674D02*
X13856968Y-24295198D01*
X13856968Y-24295198D02*
X13866491Y-24304722D01*
X13866491Y-24304722D02*
X13876015Y-24323769D01*
X13876015Y-24323769D02*
X13876015Y-24371388D01*
X13876015Y-24371388D02*
X13866491Y-24390436D01*
X13866491Y-24390436D02*
X13856968Y-24399960D01*
X13856968Y-24399960D02*
X13837920Y-24409484D01*
X13837920Y-24409484D02*
X13780777Y-24409484D01*
X13780777Y-24409484D02*
X13761729Y-24399960D01*
X13761729Y-24399960D02*
X13752206Y-24390436D01*
X13952206Y-24228531D02*
X13961729Y-24219008D01*
X13961729Y-24219008D02*
X13980777Y-24209484D01*
X13980777Y-24209484D02*
X14028396Y-24209484D01*
X14028396Y-24209484D02*
X14047444Y-24219008D01*
X14047444Y-24219008D02*
X14056968Y-24228531D01*
X14056968Y-24228531D02*
X14066491Y-24247579D01*
X14066491Y-24247579D02*
X14066491Y-24266627D01*
X14066491Y-24266627D02*
X14056968Y-24295198D01*
X14056968Y-24295198D02*
X13942682Y-24409484D01*
X13942682Y-24409484D02*
X14066491Y-24409484D01*
X14304587Y-24409484D02*
X14304587Y-24209484D01*
X14390301Y-24409484D02*
X14390301Y-24304722D01*
X14390301Y-24304722D02*
X14380777Y-24285674D01*
X14380777Y-24285674D02*
X14361730Y-24276150D01*
X14361730Y-24276150D02*
X14333158Y-24276150D01*
X14333158Y-24276150D02*
X14314110Y-24285674D01*
X14314110Y-24285674D02*
X14304587Y-24295198D01*
X14514110Y-24409484D02*
X14495063Y-24399960D01*
X14495063Y-24399960D02*
X14485539Y-24390436D01*
X14485539Y-24390436D02*
X14476015Y-24371388D01*
X14476015Y-24371388D02*
X14476015Y-24314246D01*
X14476015Y-24314246D02*
X14485539Y-24295198D01*
X14485539Y-24295198D02*
X14495063Y-24285674D01*
X14495063Y-24285674D02*
X14514110Y-24276150D01*
X14514110Y-24276150D02*
X14542682Y-24276150D01*
X14542682Y-24276150D02*
X14561730Y-24285674D01*
X14561730Y-24285674D02*
X14571253Y-24295198D01*
X14571253Y-24295198D02*
X14580777Y-24314246D01*
X14580777Y-24314246D02*
X14580777Y-24371388D01*
X14580777Y-24371388D02*
X14571253Y-24390436D01*
X14571253Y-24390436D02*
X14561730Y-24399960D01*
X14561730Y-24399960D02*
X14542682Y-24409484D01*
X14542682Y-24409484D02*
X14514110Y-24409484D01*
X14695063Y-24409484D02*
X14676015Y-24399960D01*
X14676015Y-24399960D02*
X14666491Y-24380912D01*
X14666491Y-24380912D02*
X14666491Y-24209484D01*
X14847444Y-24399960D02*
X14828396Y-24409484D01*
X14828396Y-24409484D02*
X14790301Y-24409484D01*
X14790301Y-24409484D02*
X14771253Y-24399960D01*
X14771253Y-24399960D02*
X14761730Y-24380912D01*
X14761730Y-24380912D02*
X14761730Y-24304722D01*
X14761730Y-24304722D02*
X14771253Y-24285674D01*
X14771253Y-24285674D02*
X14790301Y-24276150D01*
X14790301Y-24276150D02*
X14828396Y-24276150D01*
X14828396Y-24276150D02*
X14847444Y-24285674D01*
X14847444Y-24285674D02*
X14856968Y-24304722D01*
X14856968Y-24304722D02*
X14856968Y-24323769D01*
X14856968Y-24323769D02*
X14761730Y-24342817D01*
X14933158Y-24399960D02*
X14952206Y-24409484D01*
X14952206Y-24409484D02*
X14990301Y-24409484D01*
X14990301Y-24409484D02*
X15009349Y-24399960D01*
X15009349Y-24399960D02*
X15018872Y-24380912D01*
X15018872Y-24380912D02*
X15018872Y-24371388D01*
X15018872Y-24371388D02*
X15009349Y-24352341D01*
X15009349Y-24352341D02*
X14990301Y-24342817D01*
X14990301Y-24342817D02*
X14961730Y-24342817D01*
X14961730Y-24342817D02*
X14942682Y-24333293D01*
X14942682Y-24333293D02*
X14933158Y-24314246D01*
X14933158Y-24314246D02*
X14933158Y-24304722D01*
X14933158Y-24304722D02*
X14942682Y-24285674D01*
X14942682Y-24285674D02*
X14961730Y-24276150D01*
X14961730Y-24276150D02*
X14990301Y-24276150D01*
X14990301Y-24276150D02*
X15009349Y-24285674D01*
X15085539Y-24485674D02*
X15095063Y-24476150D01*
X15095063Y-24476150D02*
X15114111Y-24447579D01*
X15114111Y-24447579D02*
X15123634Y-24428531D01*
X15123634Y-24428531D02*
X15133158Y-24399960D01*
X15133158Y-24399960D02*
X15142682Y-24352341D01*
X15142682Y-24352341D02*
X15142682Y-24314246D01*
X15142682Y-24314246D02*
X15133158Y-24266627D01*
X15133158Y-24266627D02*
X15123634Y-24238055D01*
X15123634Y-24238055D02*
X15114111Y-24219008D01*
X15114111Y-24219008D02*
X15095063Y-24190436D01*
X15095063Y-24190436D02*
X15085539Y-24180912D01*
M02*
