%TF.GenerationSoftware,KiCad,Pcbnew,7.0.8*%
%TF.CreationDate,2024-02-26T10:42:40-05:00*%
%TF.ProjectId,lichen-freddie-panel,6c696368-656e-42d6-9672-65646469652d,1.0*%
%TF.SameCoordinates,Original*%
%TF.FileFunction,Copper,L1,Top*%
%TF.FilePolarity,Positive*%
%FSLAX46Y46*%
G04 Gerber Fmt 4.6, Leading zero omitted, Abs format (unit mm)*
G04 Created by KiCad (PCBNEW 7.0.8) date 2024-02-26 10:42:40*
%MOMM*%
%LPD*%
G01*
G04 APERTURE LIST*
G04 Aperture macros list*
%AMRoundRect*
0 Rectangle with rounded corners*
0 $1 Rounding radius*
0 $2 $3 $4 $5 $6 $7 $8 $9 X,Y pos of 4 corners*
0 Add a 4 corners polygon primitive as box body*
4,1,4,$2,$3,$4,$5,$6,$7,$8,$9,$2,$3,0*
0 Add four circle primitives for the rounded corners*
1,1,$1+$1,$2,$3*
1,1,$1+$1,$4,$5*
1,1,$1+$1,$6,$7*
1,1,$1+$1,$8,$9*
0 Add four rect primitives between the rounded corners*
20,1,$1+$1,$2,$3,$4,$5,0*
20,1,$1+$1,$4,$5,$6,$7,0*
20,1,$1+$1,$6,$7,$8,$9,0*
20,1,$1+$1,$8,$9,$2,$3,0*%
G04 Aperture macros list end*
%TA.AperFunction,WasherPad*%
%ADD10C,5.100000*%
%TD*%
%TA.AperFunction,WasherPad*%
%ADD11RoundRect,1.600000X0.400000X0.000000X-0.400000X0.000000X-0.400000X0.000000X0.400000X0.000000X0*%
%TD*%
%TA.AperFunction,WasherPad*%
%ADD12RoundRect,1.600000X-0.400000X0.000000X0.400000X0.000000X0.400000X0.000000X-0.400000X0.000000X0*%
%TD*%
G04 APERTURE END LIST*
D10*
%TO.P,BUTTON_5,*%
%TO.N,*%
X179450000Y-212577000D03*
%TD*%
D11*
%TO.P, ,*%
%TO.N,*%
X232080000Y-103000000D03*
%TD*%
D10*
%TO.P,BUTTON_2,*%
%TO.N,*%
X128450000Y-212577000D03*
%TD*%
%TO.P,BUTTON_1,*%
%TO.N,*%
X111450000Y-212577000D03*
%TD*%
D12*
%TO.P, ,*%
%TO.N,*%
X107500000Y-103000000D03*
%TD*%
D11*
%TO.P, ,*%
%TO.N,*%
X232080000Y-225500000D03*
%TD*%
D12*
%TO.P, ,*%
%TO.N,*%
X107500000Y-225500000D03*
%TD*%
D10*
%TO.P,BUTTON_7,*%
%TO.N,*%
X213450000Y-212577000D03*
%TD*%
%TO.P,BUTTON_8,*%
%TO.N,*%
X230450000Y-212577000D03*
%TD*%
%TO.P,BUTTON_3,*%
%TO.N,*%
X145450000Y-212577000D03*
%TD*%
%TO.P,BUTTON_6,*%
%TO.N,*%
X196450000Y-212577000D03*
%TD*%
%TO.P,BUTTON_4,*%
%TO.N,*%
X162450000Y-212577000D03*
%TD*%
%TA.AperFunction,NonConductor*%
G36*
X241442539Y-100420185D02*
G01*
X241488294Y-100472989D01*
X241499500Y-100524500D01*
X241499500Y-227975500D01*
X241479815Y-228042539D01*
X241427011Y-228088294D01*
X241375500Y-228099500D01*
X100524500Y-228099500D01*
X100457461Y-228079815D01*
X100411706Y-228027011D01*
X100400500Y-227975500D01*
X100400500Y-225643679D01*
X104999500Y-225643679D01*
X104999985Y-225647210D01*
X105003059Y-225669574D01*
X105003553Y-225674826D01*
X105005630Y-225715304D01*
X105005631Y-225715321D01*
X105023949Y-225821557D01*
X105038629Y-225928359D01*
X105047482Y-225959961D01*
X105048879Y-225966153D01*
X105054453Y-225998480D01*
X105054455Y-225998486D01*
X105087070Y-226101248D01*
X105116156Y-226205058D01*
X105116157Y-226205060D01*
X105129226Y-226235149D01*
X105131454Y-226241094D01*
X105141383Y-226272375D01*
X105141385Y-226272381D01*
X105187685Y-226369736D01*
X105230636Y-226468619D01*
X105230636Y-226468620D01*
X105247691Y-226496667D01*
X105250706Y-226502251D01*
X105264799Y-226531882D01*
X105323927Y-226622030D01*
X105379945Y-226714147D01*
X105392771Y-226729912D01*
X105400653Y-226739601D01*
X105404395Y-226744714D01*
X105422400Y-226772164D01*
X105422402Y-226772167D01*
X105493250Y-226853418D01*
X105561289Y-226937050D01*
X105561291Y-226937052D01*
X105561292Y-226937053D01*
X105585270Y-226959447D01*
X105585278Y-226959454D01*
X105589681Y-226964010D01*
X105611252Y-226988748D01*
X105692497Y-227059590D01*
X105771296Y-227133184D01*
X105771298Y-227133185D01*
X105771302Y-227133189D01*
X105798108Y-227152110D01*
X105803104Y-227156035D01*
X105803109Y-227156039D01*
X105827836Y-227177600D01*
X105917990Y-227236732D01*
X106006064Y-227298901D01*
X106006068Y-227298903D01*
X106035195Y-227313995D01*
X106040675Y-227317200D01*
X106068118Y-227335201D01*
X106165488Y-227381508D01*
X106261203Y-227431104D01*
X106283877Y-227439162D01*
X106292118Y-227442091D01*
X106297986Y-227444522D01*
X106308247Y-227449401D01*
X106327622Y-227458616D01*
X106430384Y-227491231D01*
X106531968Y-227527334D01*
X106531969Y-227527334D01*
X106531971Y-227527335D01*
X106540342Y-227529074D01*
X106564109Y-227534013D01*
X106570221Y-227535613D01*
X106601514Y-227545545D01*
X106707758Y-227563863D01*
X106813314Y-227585798D01*
X106846046Y-227588037D01*
X106852347Y-227588793D01*
X106884692Y-227594370D01*
X106934513Y-227596924D01*
X107004257Y-227600500D01*
X107004264Y-227600500D01*
X107995743Y-227600500D01*
X108115302Y-227594371D01*
X108147643Y-227588795D01*
X108153952Y-227588037D01*
X108163878Y-227587357D01*
X108186686Y-227585798D01*
X108292241Y-227563863D01*
X108398486Y-227545545D01*
X108429765Y-227535617D01*
X108435891Y-227534012D01*
X108468032Y-227527334D01*
X108569615Y-227491231D01*
X108672378Y-227458616D01*
X108702028Y-227444514D01*
X108707865Y-227442096D01*
X108738797Y-227431104D01*
X108834511Y-227381508D01*
X108931882Y-227335201D01*
X108959324Y-227317200D01*
X108964793Y-227314000D01*
X108993936Y-227298901D01*
X109082009Y-227236732D01*
X109172164Y-227177600D01*
X109196898Y-227156031D01*
X109201866Y-227152127D01*
X109228698Y-227133189D01*
X109307502Y-227059590D01*
X109388748Y-226988748D01*
X109410317Y-226964010D01*
X109414718Y-226959456D01*
X109438708Y-226937053D01*
X109506749Y-226853418D01*
X109577600Y-226772164D01*
X109595601Y-226744717D01*
X109599335Y-226739613D01*
X109620055Y-226714147D01*
X109676072Y-226622030D01*
X109735201Y-226531882D01*
X109749297Y-226502241D01*
X109752308Y-226496667D01*
X109762640Y-226479675D01*
X109769361Y-226468626D01*
X109769362Y-226468623D01*
X109812314Y-226369736D01*
X109858611Y-226272388D01*
X109858616Y-226272378D01*
X109868548Y-226241082D01*
X109870765Y-226235165D01*
X109883844Y-226205058D01*
X109912929Y-226101248D01*
X109945545Y-225998486D01*
X109951124Y-225966122D01*
X109952516Y-225959961D01*
X109961371Y-225928358D01*
X109976050Y-225821558D01*
X109994370Y-225715308D01*
X109996445Y-225674825D01*
X109996940Y-225669574D01*
X110000499Y-225643682D01*
X110000500Y-225643681D01*
X110000500Y-225643679D01*
X229579500Y-225643679D01*
X229579985Y-225647210D01*
X229583059Y-225669574D01*
X229583553Y-225674826D01*
X229585630Y-225715304D01*
X229585631Y-225715321D01*
X229603949Y-225821557D01*
X229618629Y-225928359D01*
X229627482Y-225959961D01*
X229628879Y-225966153D01*
X229634453Y-225998480D01*
X229634455Y-225998486D01*
X229667070Y-226101248D01*
X229696156Y-226205058D01*
X229696157Y-226205060D01*
X229709226Y-226235149D01*
X229711454Y-226241094D01*
X229721383Y-226272375D01*
X229721385Y-226272381D01*
X229767685Y-226369736D01*
X229810636Y-226468619D01*
X229810636Y-226468620D01*
X229827691Y-226496667D01*
X229830706Y-226502251D01*
X229844799Y-226531882D01*
X229903927Y-226622030D01*
X229959945Y-226714147D01*
X229972771Y-226729912D01*
X229980653Y-226739601D01*
X229984395Y-226744714D01*
X230002400Y-226772164D01*
X230002402Y-226772167D01*
X230073250Y-226853418D01*
X230141289Y-226937050D01*
X230141291Y-226937052D01*
X230141292Y-226937053D01*
X230165270Y-226959447D01*
X230165278Y-226959454D01*
X230169681Y-226964010D01*
X230191252Y-226988748D01*
X230272497Y-227059590D01*
X230351296Y-227133184D01*
X230351298Y-227133185D01*
X230351302Y-227133189D01*
X230378108Y-227152110D01*
X230383104Y-227156035D01*
X230383109Y-227156039D01*
X230407836Y-227177600D01*
X230497990Y-227236732D01*
X230586064Y-227298901D01*
X230586068Y-227298903D01*
X230615195Y-227313995D01*
X230620675Y-227317200D01*
X230648118Y-227335201D01*
X230745488Y-227381508D01*
X230841203Y-227431104D01*
X230863877Y-227439162D01*
X230872118Y-227442091D01*
X230877986Y-227444522D01*
X230888247Y-227449401D01*
X230907622Y-227458616D01*
X231010384Y-227491231D01*
X231111968Y-227527334D01*
X231111969Y-227527334D01*
X231111971Y-227527335D01*
X231120342Y-227529074D01*
X231144109Y-227534013D01*
X231150221Y-227535613D01*
X231181514Y-227545545D01*
X231287758Y-227563863D01*
X231393314Y-227585798D01*
X231426046Y-227588037D01*
X231432347Y-227588793D01*
X231464692Y-227594370D01*
X231514513Y-227596924D01*
X231584257Y-227600500D01*
X231584264Y-227600500D01*
X232575743Y-227600500D01*
X232695302Y-227594371D01*
X232727643Y-227588795D01*
X232733952Y-227588037D01*
X232743878Y-227587357D01*
X232766686Y-227585798D01*
X232872241Y-227563863D01*
X232978486Y-227545545D01*
X233009765Y-227535617D01*
X233015891Y-227534012D01*
X233048032Y-227527334D01*
X233149615Y-227491231D01*
X233252378Y-227458616D01*
X233282028Y-227444514D01*
X233287865Y-227442096D01*
X233318797Y-227431104D01*
X233414511Y-227381508D01*
X233511882Y-227335201D01*
X233539324Y-227317200D01*
X233544793Y-227314000D01*
X233573936Y-227298901D01*
X233662009Y-227236732D01*
X233752164Y-227177600D01*
X233776898Y-227156031D01*
X233781866Y-227152127D01*
X233808698Y-227133189D01*
X233887502Y-227059590D01*
X233968748Y-226988748D01*
X233990317Y-226964010D01*
X233994718Y-226959456D01*
X234018708Y-226937053D01*
X234086749Y-226853418D01*
X234157600Y-226772164D01*
X234175601Y-226744717D01*
X234179335Y-226739613D01*
X234200055Y-226714147D01*
X234256072Y-226622030D01*
X234315201Y-226531882D01*
X234329297Y-226502241D01*
X234332308Y-226496667D01*
X234342640Y-226479675D01*
X234349361Y-226468626D01*
X234349362Y-226468623D01*
X234392314Y-226369736D01*
X234438611Y-226272388D01*
X234438616Y-226272378D01*
X234448548Y-226241082D01*
X234450765Y-226235165D01*
X234463844Y-226205058D01*
X234492929Y-226101248D01*
X234525545Y-225998486D01*
X234531124Y-225966122D01*
X234532516Y-225959961D01*
X234541371Y-225928358D01*
X234556050Y-225821558D01*
X234574370Y-225715308D01*
X234576445Y-225674825D01*
X234576940Y-225669574D01*
X234580499Y-225643682D01*
X234580500Y-225643681D01*
X234580500Y-225356324D01*
X234576940Y-225330424D01*
X234576445Y-225325173D01*
X234574370Y-225284692D01*
X234556050Y-225178441D01*
X234541371Y-225071642D01*
X234532517Y-225040040D01*
X234531120Y-225033851D01*
X234525545Y-225001514D01*
X234492929Y-224898751D01*
X234463844Y-224794942D01*
X234450765Y-224764832D01*
X234448543Y-224758903D01*
X234438616Y-224727622D01*
X234392314Y-224630263D01*
X234349361Y-224531375D01*
X234332306Y-224503330D01*
X234329293Y-224497749D01*
X234315204Y-224468124D01*
X234315201Y-224468118D01*
X234256072Y-224377969D01*
X234200055Y-224285853D01*
X234179344Y-224260396D01*
X234175595Y-224255272D01*
X234157602Y-224227838D01*
X234086749Y-224146581D01*
X234018712Y-224062952D01*
X234018708Y-224062947D01*
X233994717Y-224040540D01*
X233990317Y-224035989D01*
X233968748Y-224011252D01*
X233887502Y-223940409D01*
X233808701Y-223866813D01*
X233804392Y-223863771D01*
X233781884Y-223847883D01*
X233776900Y-223843969D01*
X233752164Y-223822400D01*
X233662009Y-223763267D01*
X233573936Y-223701099D01*
X233544797Y-223686000D01*
X233539329Y-223682802D01*
X233511882Y-223664799D01*
X233511878Y-223664797D01*
X233511873Y-223664794D01*
X233414511Y-223618491D01*
X233318796Y-223568895D01*
X233318792Y-223568894D01*
X233287874Y-223557905D01*
X233282006Y-223555474D01*
X233252385Y-223541386D01*
X233252380Y-223541385D01*
X233252378Y-223541384D01*
X233149615Y-223508768D01*
X233048044Y-223472670D01*
X233048038Y-223472668D01*
X233048032Y-223472666D01*
X233015903Y-223465988D01*
X233009762Y-223464380D01*
X232978497Y-223454458D01*
X232978489Y-223454456D01*
X232978486Y-223454455D01*
X232978482Y-223454454D01*
X232978481Y-223454454D01*
X232872241Y-223436136D01*
X232766686Y-223414202D01*
X232766681Y-223414201D01*
X232766682Y-223414201D01*
X232733943Y-223411961D01*
X232727647Y-223411205D01*
X232714199Y-223408886D01*
X232695312Y-223405630D01*
X232695297Y-223405628D01*
X232575743Y-223399500D01*
X232575736Y-223399500D01*
X231584264Y-223399500D01*
X231584257Y-223399500D01*
X231464706Y-223405628D01*
X231464678Y-223405631D01*
X231432348Y-223411204D01*
X231426048Y-223411961D01*
X231393319Y-223414201D01*
X231287758Y-223436136D01*
X231181516Y-223454454D01*
X231181502Y-223454458D01*
X231150241Y-223464379D01*
X231144100Y-223465987D01*
X231111980Y-223472662D01*
X231111954Y-223472670D01*
X231010384Y-223508768D01*
X230907618Y-223541385D01*
X230877989Y-223555476D01*
X230872124Y-223557906D01*
X230841200Y-223568897D01*
X230745488Y-223618491D01*
X230648120Y-223664797D01*
X230648112Y-223664802D01*
X230620676Y-223682798D01*
X230615193Y-223686005D01*
X230586064Y-223701098D01*
X230497990Y-223763267D01*
X230407836Y-223822400D01*
X230407827Y-223822406D01*
X230383102Y-223843965D01*
X230378110Y-223847887D01*
X230351311Y-223866803D01*
X230351294Y-223866817D01*
X230272497Y-223940409D01*
X230191258Y-224011246D01*
X230191256Y-224011247D01*
X230169691Y-224035978D01*
X230165280Y-224040542D01*
X230141293Y-224062944D01*
X230141292Y-224062945D01*
X230073250Y-224146581D01*
X230002398Y-224227837D01*
X230002395Y-224227842D01*
X229984403Y-224255273D01*
X229980654Y-224260396D01*
X229959943Y-224285855D01*
X229959941Y-224285858D01*
X229903927Y-224377969D01*
X229844800Y-224468115D01*
X229830706Y-224497747D01*
X229827691Y-224503330D01*
X229810640Y-224531372D01*
X229767685Y-224630263D01*
X229721384Y-224727620D01*
X229721383Y-224727622D01*
X229711454Y-224758904D01*
X229709227Y-224764846D01*
X229696156Y-224794942D01*
X229667070Y-224898751D01*
X229634455Y-225001513D01*
X229628879Y-225033847D01*
X229627482Y-225040040D01*
X229618629Y-225071642D01*
X229618629Y-225071643D01*
X229603949Y-225178442D01*
X229585632Y-225284675D01*
X229585630Y-225284695D01*
X229583555Y-225325151D01*
X229583059Y-225330415D01*
X229579500Y-225356316D01*
X229579500Y-225643679D01*
X110000500Y-225643679D01*
X110000500Y-225356324D01*
X109996940Y-225330424D01*
X109996445Y-225325173D01*
X109994370Y-225284692D01*
X109976050Y-225178441D01*
X109961371Y-225071642D01*
X109952517Y-225040040D01*
X109951120Y-225033851D01*
X109945545Y-225001514D01*
X109912929Y-224898751D01*
X109883844Y-224794942D01*
X109870765Y-224764832D01*
X109868543Y-224758903D01*
X109858616Y-224727622D01*
X109812314Y-224630263D01*
X109769361Y-224531375D01*
X109752306Y-224503330D01*
X109749293Y-224497749D01*
X109735204Y-224468124D01*
X109735201Y-224468118D01*
X109676072Y-224377969D01*
X109620055Y-224285853D01*
X109599344Y-224260396D01*
X109595595Y-224255272D01*
X109577602Y-224227838D01*
X109506749Y-224146581D01*
X109438712Y-224062952D01*
X109438708Y-224062947D01*
X109414717Y-224040540D01*
X109410317Y-224035989D01*
X109388748Y-224011252D01*
X109307502Y-223940409D01*
X109228701Y-223866813D01*
X109224392Y-223863771D01*
X109201884Y-223847883D01*
X109196900Y-223843969D01*
X109172164Y-223822400D01*
X109082009Y-223763267D01*
X108993936Y-223701099D01*
X108964797Y-223686000D01*
X108959329Y-223682802D01*
X108931882Y-223664799D01*
X108931878Y-223664797D01*
X108931873Y-223664794D01*
X108834511Y-223618491D01*
X108738796Y-223568895D01*
X108738792Y-223568894D01*
X108707874Y-223557905D01*
X108702006Y-223555474D01*
X108672385Y-223541386D01*
X108672380Y-223541385D01*
X108672378Y-223541384D01*
X108569615Y-223508768D01*
X108468044Y-223472670D01*
X108468038Y-223472668D01*
X108468032Y-223472666D01*
X108435903Y-223465988D01*
X108429762Y-223464380D01*
X108398497Y-223454458D01*
X108398489Y-223454456D01*
X108398486Y-223454455D01*
X108398482Y-223454454D01*
X108398481Y-223454454D01*
X108292241Y-223436136D01*
X108186686Y-223414202D01*
X108186681Y-223414201D01*
X108186682Y-223414201D01*
X108153943Y-223411961D01*
X108147647Y-223411205D01*
X108134199Y-223408886D01*
X108115312Y-223405630D01*
X108115297Y-223405628D01*
X107995743Y-223399500D01*
X107995736Y-223399500D01*
X107004264Y-223399500D01*
X107004257Y-223399500D01*
X106884706Y-223405628D01*
X106884678Y-223405631D01*
X106852348Y-223411204D01*
X106846048Y-223411961D01*
X106813319Y-223414201D01*
X106707758Y-223436136D01*
X106601516Y-223454454D01*
X106601502Y-223454458D01*
X106570241Y-223464379D01*
X106564100Y-223465987D01*
X106531980Y-223472662D01*
X106531954Y-223472670D01*
X106430384Y-223508768D01*
X106327618Y-223541385D01*
X106297989Y-223555476D01*
X106292124Y-223557906D01*
X106261200Y-223568897D01*
X106165488Y-223618491D01*
X106068120Y-223664797D01*
X106068112Y-223664802D01*
X106040676Y-223682798D01*
X106035193Y-223686005D01*
X106006064Y-223701098D01*
X105917990Y-223763267D01*
X105827836Y-223822400D01*
X105827827Y-223822406D01*
X105803102Y-223843965D01*
X105798110Y-223847887D01*
X105771311Y-223866803D01*
X105771294Y-223866817D01*
X105692497Y-223940409D01*
X105611258Y-224011246D01*
X105611256Y-224011247D01*
X105589691Y-224035978D01*
X105585280Y-224040542D01*
X105561293Y-224062944D01*
X105561292Y-224062945D01*
X105493250Y-224146581D01*
X105422398Y-224227837D01*
X105422395Y-224227842D01*
X105404403Y-224255273D01*
X105400654Y-224260396D01*
X105379943Y-224285855D01*
X105379941Y-224285858D01*
X105323927Y-224377969D01*
X105264800Y-224468115D01*
X105250706Y-224497747D01*
X105247691Y-224503330D01*
X105230640Y-224531372D01*
X105187685Y-224630263D01*
X105141384Y-224727620D01*
X105141383Y-224727622D01*
X105131454Y-224758904D01*
X105129227Y-224764846D01*
X105116156Y-224794942D01*
X105087070Y-224898751D01*
X105054455Y-225001513D01*
X105048879Y-225033847D01*
X105047482Y-225040040D01*
X105038629Y-225071642D01*
X105038629Y-225071643D01*
X105023949Y-225178442D01*
X105005632Y-225284675D01*
X105005630Y-225284695D01*
X105003555Y-225325151D01*
X105003059Y-225330415D01*
X104999500Y-225356316D01*
X104999500Y-225643679D01*
X100400500Y-225643679D01*
X100400500Y-212577000D01*
X108394693Y-212577000D01*
X108413903Y-212919081D01*
X108413904Y-212919086D01*
X108471296Y-213256870D01*
X108566147Y-213586104D01*
X108670108Y-213837087D01*
X108697263Y-213902646D01*
X108862998Y-214202521D01*
X109061269Y-214481959D01*
X109289570Y-214737426D01*
X109289573Y-214737429D01*
X109545040Y-214965730D01*
X109545046Y-214965734D01*
X109545047Y-214965735D01*
X109824479Y-215164002D01*
X110124352Y-215329736D01*
X110440896Y-215460853D01*
X110770130Y-215555704D01*
X111107914Y-215613096D01*
X111450000Y-215632307D01*
X111792086Y-215613096D01*
X112129870Y-215555704D01*
X112459104Y-215460853D01*
X112775648Y-215329736D01*
X113075521Y-215164002D01*
X113354953Y-214965735D01*
X113610428Y-214737428D01*
X113838735Y-214481953D01*
X114037002Y-214202521D01*
X114202736Y-213902648D01*
X114333853Y-213586104D01*
X114428704Y-213256870D01*
X114486096Y-212919086D01*
X114505307Y-212577000D01*
X125394693Y-212577000D01*
X125413903Y-212919081D01*
X125413904Y-212919086D01*
X125471296Y-213256870D01*
X125566147Y-213586104D01*
X125670108Y-213837087D01*
X125697263Y-213902646D01*
X125862998Y-214202521D01*
X126061269Y-214481959D01*
X126289570Y-214737426D01*
X126289573Y-214737429D01*
X126545040Y-214965730D01*
X126545046Y-214965734D01*
X126545047Y-214965735D01*
X126824479Y-215164002D01*
X127124352Y-215329736D01*
X127440896Y-215460853D01*
X127770130Y-215555704D01*
X128107914Y-215613096D01*
X128450000Y-215632307D01*
X128792086Y-215613096D01*
X129129870Y-215555704D01*
X129459104Y-215460853D01*
X129775648Y-215329736D01*
X130075521Y-215164002D01*
X130354953Y-214965735D01*
X130610428Y-214737428D01*
X130838735Y-214481953D01*
X131037002Y-214202521D01*
X131202736Y-213902648D01*
X131333853Y-213586104D01*
X131428704Y-213256870D01*
X131486096Y-212919086D01*
X131505307Y-212577000D01*
X142394693Y-212577000D01*
X142413903Y-212919081D01*
X142413904Y-212919086D01*
X142471296Y-213256870D01*
X142566147Y-213586104D01*
X142670108Y-213837087D01*
X142697263Y-213902646D01*
X142862998Y-214202521D01*
X143061269Y-214481959D01*
X143289570Y-214737426D01*
X143289573Y-214737429D01*
X143545040Y-214965730D01*
X143545046Y-214965734D01*
X143545047Y-214965735D01*
X143824479Y-215164002D01*
X144124352Y-215329736D01*
X144440896Y-215460853D01*
X144770130Y-215555704D01*
X145107914Y-215613096D01*
X145450000Y-215632307D01*
X145792086Y-215613096D01*
X146129870Y-215555704D01*
X146459104Y-215460853D01*
X146775648Y-215329736D01*
X147075521Y-215164002D01*
X147354953Y-214965735D01*
X147610428Y-214737428D01*
X147838735Y-214481953D01*
X148037002Y-214202521D01*
X148202736Y-213902648D01*
X148333853Y-213586104D01*
X148428704Y-213256870D01*
X148486096Y-212919086D01*
X148505307Y-212577000D01*
X159394693Y-212577000D01*
X159413903Y-212919081D01*
X159413904Y-212919086D01*
X159471296Y-213256870D01*
X159566147Y-213586104D01*
X159670108Y-213837087D01*
X159697263Y-213902646D01*
X159862998Y-214202521D01*
X160061269Y-214481959D01*
X160289570Y-214737426D01*
X160289573Y-214737429D01*
X160545040Y-214965730D01*
X160545046Y-214965734D01*
X160545047Y-214965735D01*
X160824479Y-215164002D01*
X161124352Y-215329736D01*
X161440896Y-215460853D01*
X161770130Y-215555704D01*
X162107914Y-215613096D01*
X162450000Y-215632307D01*
X162792086Y-215613096D01*
X163129870Y-215555704D01*
X163459104Y-215460853D01*
X163775648Y-215329736D01*
X164075521Y-215164002D01*
X164354953Y-214965735D01*
X164610428Y-214737428D01*
X164838735Y-214481953D01*
X165037002Y-214202521D01*
X165202736Y-213902648D01*
X165333853Y-213586104D01*
X165428704Y-213256870D01*
X165486096Y-212919086D01*
X165505307Y-212577000D01*
X176394693Y-212577000D01*
X176413903Y-212919081D01*
X176413904Y-212919086D01*
X176471296Y-213256870D01*
X176566147Y-213586104D01*
X176670108Y-213837087D01*
X176697263Y-213902646D01*
X176862998Y-214202521D01*
X177061269Y-214481959D01*
X177289570Y-214737426D01*
X177289573Y-214737429D01*
X177545040Y-214965730D01*
X177545046Y-214965734D01*
X177545047Y-214965735D01*
X177824479Y-215164002D01*
X178124352Y-215329736D01*
X178440896Y-215460853D01*
X178770130Y-215555704D01*
X179107914Y-215613096D01*
X179450000Y-215632307D01*
X179792086Y-215613096D01*
X180129870Y-215555704D01*
X180459104Y-215460853D01*
X180775648Y-215329736D01*
X181075521Y-215164002D01*
X181354953Y-214965735D01*
X181610428Y-214737428D01*
X181838735Y-214481953D01*
X182037002Y-214202521D01*
X182202736Y-213902648D01*
X182333853Y-213586104D01*
X182428704Y-213256870D01*
X182486096Y-212919086D01*
X182505307Y-212577000D01*
X193394693Y-212577000D01*
X193413903Y-212919081D01*
X193413904Y-212919086D01*
X193471296Y-213256870D01*
X193566147Y-213586104D01*
X193670108Y-213837087D01*
X193697263Y-213902646D01*
X193862998Y-214202521D01*
X194061269Y-214481959D01*
X194289570Y-214737426D01*
X194289573Y-214737429D01*
X194545040Y-214965730D01*
X194545046Y-214965734D01*
X194545047Y-214965735D01*
X194824479Y-215164002D01*
X195124352Y-215329736D01*
X195440896Y-215460853D01*
X195770130Y-215555704D01*
X196107914Y-215613096D01*
X196450000Y-215632307D01*
X196792086Y-215613096D01*
X197129870Y-215555704D01*
X197459104Y-215460853D01*
X197775648Y-215329736D01*
X198075521Y-215164002D01*
X198354953Y-214965735D01*
X198610428Y-214737428D01*
X198838735Y-214481953D01*
X199037002Y-214202521D01*
X199202736Y-213902648D01*
X199333853Y-213586104D01*
X199428704Y-213256870D01*
X199486096Y-212919086D01*
X199505307Y-212577000D01*
X210394693Y-212577000D01*
X210413903Y-212919081D01*
X210413904Y-212919086D01*
X210471296Y-213256870D01*
X210566147Y-213586104D01*
X210670108Y-213837087D01*
X210697263Y-213902646D01*
X210862998Y-214202521D01*
X211061269Y-214481959D01*
X211289570Y-214737426D01*
X211289573Y-214737429D01*
X211545040Y-214965730D01*
X211545046Y-214965734D01*
X211545047Y-214965735D01*
X211824479Y-215164002D01*
X212124352Y-215329736D01*
X212440896Y-215460853D01*
X212770130Y-215555704D01*
X213107914Y-215613096D01*
X213450000Y-215632307D01*
X213792086Y-215613096D01*
X214129870Y-215555704D01*
X214459104Y-215460853D01*
X214775648Y-215329736D01*
X215075521Y-215164002D01*
X215354953Y-214965735D01*
X215610428Y-214737428D01*
X215838735Y-214481953D01*
X216037002Y-214202521D01*
X216202736Y-213902648D01*
X216333853Y-213586104D01*
X216428704Y-213256870D01*
X216486096Y-212919086D01*
X216505307Y-212577000D01*
X227394693Y-212577000D01*
X227413903Y-212919081D01*
X227413904Y-212919086D01*
X227471296Y-213256870D01*
X227566147Y-213586104D01*
X227670108Y-213837087D01*
X227697263Y-213902646D01*
X227862998Y-214202521D01*
X228061269Y-214481959D01*
X228289570Y-214737426D01*
X228289573Y-214737429D01*
X228545040Y-214965730D01*
X228545046Y-214965734D01*
X228545047Y-214965735D01*
X228824479Y-215164002D01*
X229124352Y-215329736D01*
X229440896Y-215460853D01*
X229770130Y-215555704D01*
X230107914Y-215613096D01*
X230450000Y-215632307D01*
X230792086Y-215613096D01*
X231129870Y-215555704D01*
X231459104Y-215460853D01*
X231775648Y-215329736D01*
X232075521Y-215164002D01*
X232354953Y-214965735D01*
X232610428Y-214737428D01*
X232838735Y-214481953D01*
X233037002Y-214202521D01*
X233202736Y-213902648D01*
X233333853Y-213586104D01*
X233428704Y-213256870D01*
X233486096Y-212919086D01*
X233505307Y-212577000D01*
X233486096Y-212234914D01*
X233428704Y-211897130D01*
X233333853Y-211567896D01*
X233202736Y-211251352D01*
X233037002Y-210951479D01*
X232838735Y-210672047D01*
X232838734Y-210672046D01*
X232838730Y-210672040D01*
X232610429Y-210416573D01*
X232610426Y-210416570D01*
X232354959Y-210188269D01*
X232075521Y-209989998D01*
X231775646Y-209824263D01*
X231710087Y-209797108D01*
X231459104Y-209693147D01*
X231374479Y-209668766D01*
X231129875Y-209598297D01*
X231129866Y-209598295D01*
X230792093Y-209540905D01*
X230792081Y-209540903D01*
X230450000Y-209521693D01*
X230107918Y-209540903D01*
X230107906Y-209540905D01*
X229770133Y-209598295D01*
X229770124Y-209598297D01*
X229440899Y-209693146D01*
X229440896Y-209693147D01*
X229348184Y-209731549D01*
X229124353Y-209824263D01*
X228824478Y-209989998D01*
X228545040Y-210188269D01*
X228289573Y-210416570D01*
X228289570Y-210416573D01*
X228061269Y-210672040D01*
X227862998Y-210951478D01*
X227697263Y-211251353D01*
X227566146Y-211567899D01*
X227471297Y-211897124D01*
X227471295Y-211897133D01*
X227413905Y-212234906D01*
X227413903Y-212234918D01*
X227394693Y-212577000D01*
X216505307Y-212577000D01*
X216486096Y-212234914D01*
X216428704Y-211897130D01*
X216333853Y-211567896D01*
X216202736Y-211251352D01*
X216037002Y-210951479D01*
X215838735Y-210672047D01*
X215838734Y-210672046D01*
X215838730Y-210672040D01*
X215610429Y-210416573D01*
X215610426Y-210416570D01*
X215354959Y-210188269D01*
X215075521Y-209989998D01*
X214775646Y-209824263D01*
X214710087Y-209797108D01*
X214459104Y-209693147D01*
X214374479Y-209668766D01*
X214129875Y-209598297D01*
X214129866Y-209598295D01*
X213792093Y-209540905D01*
X213792081Y-209540903D01*
X213450000Y-209521693D01*
X213107918Y-209540903D01*
X213107906Y-209540905D01*
X212770133Y-209598295D01*
X212770124Y-209598297D01*
X212440899Y-209693146D01*
X212440896Y-209693147D01*
X212348184Y-209731549D01*
X212124353Y-209824263D01*
X211824478Y-209989998D01*
X211545040Y-210188269D01*
X211289573Y-210416570D01*
X211289570Y-210416573D01*
X211061269Y-210672040D01*
X210862998Y-210951478D01*
X210697263Y-211251353D01*
X210566146Y-211567899D01*
X210471297Y-211897124D01*
X210471295Y-211897133D01*
X210413905Y-212234906D01*
X210413903Y-212234918D01*
X210394693Y-212577000D01*
X199505307Y-212577000D01*
X199486096Y-212234914D01*
X199428704Y-211897130D01*
X199333853Y-211567896D01*
X199202736Y-211251352D01*
X199037002Y-210951479D01*
X198838735Y-210672047D01*
X198838734Y-210672046D01*
X198838730Y-210672040D01*
X198610429Y-210416573D01*
X198610426Y-210416570D01*
X198354959Y-210188269D01*
X198075521Y-209989998D01*
X197775646Y-209824263D01*
X197710087Y-209797108D01*
X197459104Y-209693147D01*
X197374479Y-209668766D01*
X197129875Y-209598297D01*
X197129866Y-209598295D01*
X196792093Y-209540905D01*
X196792081Y-209540903D01*
X196450000Y-209521693D01*
X196107918Y-209540903D01*
X196107906Y-209540905D01*
X195770133Y-209598295D01*
X195770124Y-209598297D01*
X195440899Y-209693146D01*
X195440896Y-209693147D01*
X195348184Y-209731549D01*
X195124353Y-209824263D01*
X194824478Y-209989998D01*
X194545040Y-210188269D01*
X194289573Y-210416570D01*
X194289570Y-210416573D01*
X194061269Y-210672040D01*
X193862998Y-210951478D01*
X193697263Y-211251353D01*
X193566146Y-211567899D01*
X193471297Y-211897124D01*
X193471295Y-211897133D01*
X193413905Y-212234906D01*
X193413903Y-212234918D01*
X193394693Y-212577000D01*
X182505307Y-212577000D01*
X182486096Y-212234914D01*
X182428704Y-211897130D01*
X182333853Y-211567896D01*
X182202736Y-211251352D01*
X182037002Y-210951479D01*
X181838735Y-210672047D01*
X181838734Y-210672046D01*
X181838730Y-210672040D01*
X181610429Y-210416573D01*
X181610426Y-210416570D01*
X181354959Y-210188269D01*
X181075521Y-209989998D01*
X180775646Y-209824263D01*
X180710087Y-209797108D01*
X180459104Y-209693147D01*
X180374479Y-209668766D01*
X180129875Y-209598297D01*
X180129866Y-209598295D01*
X179792093Y-209540905D01*
X179792081Y-209540903D01*
X179450000Y-209521693D01*
X179107918Y-209540903D01*
X179107906Y-209540905D01*
X178770133Y-209598295D01*
X178770124Y-209598297D01*
X178440899Y-209693146D01*
X178440896Y-209693147D01*
X178348184Y-209731549D01*
X178124353Y-209824263D01*
X177824478Y-209989998D01*
X177545040Y-210188269D01*
X177289573Y-210416570D01*
X177289570Y-210416573D01*
X177061269Y-210672040D01*
X176862998Y-210951478D01*
X176697263Y-211251353D01*
X176566146Y-211567899D01*
X176471297Y-211897124D01*
X176471295Y-211897133D01*
X176413905Y-212234906D01*
X176413903Y-212234918D01*
X176394693Y-212577000D01*
X165505307Y-212577000D01*
X165486096Y-212234914D01*
X165428704Y-211897130D01*
X165333853Y-211567896D01*
X165202736Y-211251352D01*
X165037002Y-210951479D01*
X164838735Y-210672047D01*
X164838734Y-210672046D01*
X164838730Y-210672040D01*
X164610429Y-210416573D01*
X164610426Y-210416570D01*
X164354959Y-210188269D01*
X164075521Y-209989998D01*
X163775646Y-209824263D01*
X163710087Y-209797108D01*
X163459104Y-209693147D01*
X163374479Y-209668766D01*
X163129875Y-209598297D01*
X163129866Y-209598295D01*
X162792093Y-209540905D01*
X162792081Y-209540903D01*
X162450000Y-209521693D01*
X162107918Y-209540903D01*
X162107906Y-209540905D01*
X161770133Y-209598295D01*
X161770124Y-209598297D01*
X161440899Y-209693146D01*
X161440896Y-209693147D01*
X161348184Y-209731549D01*
X161124353Y-209824263D01*
X160824478Y-209989998D01*
X160545040Y-210188269D01*
X160289573Y-210416570D01*
X160289570Y-210416573D01*
X160061269Y-210672040D01*
X159862998Y-210951478D01*
X159697263Y-211251353D01*
X159566146Y-211567899D01*
X159471297Y-211897124D01*
X159471295Y-211897133D01*
X159413905Y-212234906D01*
X159413903Y-212234918D01*
X159394693Y-212577000D01*
X148505307Y-212577000D01*
X148486096Y-212234914D01*
X148428704Y-211897130D01*
X148333853Y-211567896D01*
X148202736Y-211251352D01*
X148037002Y-210951479D01*
X147838735Y-210672047D01*
X147838734Y-210672046D01*
X147838730Y-210672040D01*
X147610429Y-210416573D01*
X147610426Y-210416570D01*
X147354959Y-210188269D01*
X147075521Y-209989998D01*
X146775646Y-209824263D01*
X146710087Y-209797108D01*
X146459104Y-209693147D01*
X146374479Y-209668766D01*
X146129875Y-209598297D01*
X146129866Y-209598295D01*
X145792093Y-209540905D01*
X145792081Y-209540903D01*
X145450000Y-209521693D01*
X145107918Y-209540903D01*
X145107906Y-209540905D01*
X144770133Y-209598295D01*
X144770124Y-209598297D01*
X144440899Y-209693146D01*
X144440896Y-209693147D01*
X144348184Y-209731549D01*
X144124353Y-209824263D01*
X143824478Y-209989998D01*
X143545040Y-210188269D01*
X143289573Y-210416570D01*
X143289570Y-210416573D01*
X143061269Y-210672040D01*
X142862998Y-210951478D01*
X142697263Y-211251353D01*
X142566146Y-211567899D01*
X142471297Y-211897124D01*
X142471295Y-211897133D01*
X142413905Y-212234906D01*
X142413903Y-212234918D01*
X142394693Y-212577000D01*
X131505307Y-212577000D01*
X131486096Y-212234914D01*
X131428704Y-211897130D01*
X131333853Y-211567896D01*
X131202736Y-211251352D01*
X131037002Y-210951479D01*
X130838735Y-210672047D01*
X130838734Y-210672046D01*
X130838730Y-210672040D01*
X130610429Y-210416573D01*
X130610426Y-210416570D01*
X130354959Y-210188269D01*
X130075521Y-209989998D01*
X129775646Y-209824263D01*
X129710087Y-209797108D01*
X129459104Y-209693147D01*
X129374479Y-209668766D01*
X129129875Y-209598297D01*
X129129866Y-209598295D01*
X128792093Y-209540905D01*
X128792081Y-209540903D01*
X128450000Y-209521693D01*
X128107918Y-209540903D01*
X128107906Y-209540905D01*
X127770133Y-209598295D01*
X127770124Y-209598297D01*
X127440899Y-209693146D01*
X127440896Y-209693147D01*
X127348184Y-209731549D01*
X127124353Y-209824263D01*
X126824478Y-209989998D01*
X126545040Y-210188269D01*
X126289573Y-210416570D01*
X126289570Y-210416573D01*
X126061269Y-210672040D01*
X125862998Y-210951478D01*
X125697263Y-211251353D01*
X125566146Y-211567899D01*
X125471297Y-211897124D01*
X125471295Y-211897133D01*
X125413905Y-212234906D01*
X125413903Y-212234918D01*
X125394693Y-212577000D01*
X114505307Y-212577000D01*
X114486096Y-212234914D01*
X114428704Y-211897130D01*
X114333853Y-211567896D01*
X114202736Y-211251352D01*
X114037002Y-210951479D01*
X113838735Y-210672047D01*
X113838734Y-210672046D01*
X113838730Y-210672040D01*
X113610429Y-210416573D01*
X113610426Y-210416570D01*
X113354959Y-210188269D01*
X113075521Y-209989998D01*
X112775646Y-209824263D01*
X112710087Y-209797108D01*
X112459104Y-209693147D01*
X112374479Y-209668766D01*
X112129875Y-209598297D01*
X112129866Y-209598295D01*
X111792093Y-209540905D01*
X111792081Y-209540903D01*
X111450000Y-209521693D01*
X111107918Y-209540903D01*
X111107906Y-209540905D01*
X110770133Y-209598295D01*
X110770124Y-209598297D01*
X110440899Y-209693146D01*
X110440896Y-209693147D01*
X110348184Y-209731549D01*
X110124353Y-209824263D01*
X109824478Y-209989998D01*
X109545040Y-210188269D01*
X109289573Y-210416570D01*
X109289570Y-210416573D01*
X109061269Y-210672040D01*
X108862998Y-210951478D01*
X108697263Y-211251353D01*
X108566146Y-211567899D01*
X108471297Y-211897124D01*
X108471295Y-211897133D01*
X108413905Y-212234906D01*
X108413903Y-212234918D01*
X108394693Y-212577000D01*
X100400500Y-212577000D01*
X100400500Y-205126534D01*
X110019500Y-205126534D01*
X110058520Y-205360373D01*
X110135493Y-205584587D01*
X110135496Y-205584595D01*
X110248327Y-205793088D01*
X110393940Y-205980172D01*
X110393943Y-205980175D01*
X110568356Y-206140734D01*
X110568355Y-206140734D01*
X110766824Y-206270399D01*
X110983924Y-206365629D01*
X111041378Y-206380178D01*
X111213740Y-206423826D01*
X111390829Y-206438500D01*
X111390831Y-206438500D01*
X111509169Y-206438500D01*
X111509171Y-206438500D01*
X111686260Y-206423826D01*
X111916075Y-206365629D01*
X112133176Y-206270399D01*
X112331643Y-206140735D01*
X112506060Y-205980172D01*
X112651671Y-205793091D01*
X112764504Y-205584595D01*
X112841480Y-205360371D01*
X112880500Y-205126535D01*
X112880500Y-205126534D01*
X127019500Y-205126534D01*
X127058520Y-205360373D01*
X127135493Y-205584587D01*
X127135496Y-205584595D01*
X127248327Y-205793088D01*
X127393940Y-205980172D01*
X127393943Y-205980175D01*
X127568356Y-206140734D01*
X127568355Y-206140734D01*
X127766824Y-206270399D01*
X127983924Y-206365629D01*
X128041378Y-206380178D01*
X128213740Y-206423826D01*
X128390829Y-206438500D01*
X128390831Y-206438500D01*
X128509169Y-206438500D01*
X128509171Y-206438500D01*
X128686260Y-206423826D01*
X128916075Y-206365629D01*
X129133176Y-206270399D01*
X129331643Y-206140735D01*
X129506060Y-205980172D01*
X129651671Y-205793091D01*
X129764504Y-205584595D01*
X129841480Y-205360371D01*
X129880500Y-205126535D01*
X129880500Y-205126534D01*
X144019500Y-205126534D01*
X144058520Y-205360373D01*
X144135493Y-205584587D01*
X144135496Y-205584595D01*
X144248327Y-205793088D01*
X144393940Y-205980172D01*
X144393943Y-205980175D01*
X144568356Y-206140734D01*
X144568355Y-206140734D01*
X144766824Y-206270399D01*
X144983924Y-206365629D01*
X145041378Y-206380178D01*
X145213740Y-206423826D01*
X145390829Y-206438500D01*
X145390831Y-206438500D01*
X145509169Y-206438500D01*
X145509171Y-206438500D01*
X145686260Y-206423826D01*
X145916075Y-206365629D01*
X146133176Y-206270399D01*
X146331643Y-206140735D01*
X146506060Y-205980172D01*
X146651671Y-205793091D01*
X146764504Y-205584595D01*
X146841480Y-205360371D01*
X146880500Y-205126535D01*
X146880500Y-205126534D01*
X161019500Y-205126534D01*
X161058520Y-205360373D01*
X161135493Y-205584587D01*
X161135496Y-205584595D01*
X161248327Y-205793088D01*
X161393940Y-205980172D01*
X161393943Y-205980175D01*
X161568356Y-206140734D01*
X161568355Y-206140734D01*
X161766824Y-206270399D01*
X161983924Y-206365629D01*
X162041378Y-206380178D01*
X162213740Y-206423826D01*
X162390829Y-206438500D01*
X162390831Y-206438500D01*
X162509169Y-206438500D01*
X162509171Y-206438500D01*
X162686260Y-206423826D01*
X162916075Y-206365629D01*
X163133176Y-206270399D01*
X163331643Y-206140735D01*
X163506060Y-205980172D01*
X163651671Y-205793091D01*
X163764504Y-205584595D01*
X163841480Y-205360371D01*
X163880500Y-205126535D01*
X163880500Y-205126534D01*
X178019500Y-205126534D01*
X178058520Y-205360373D01*
X178135493Y-205584587D01*
X178135496Y-205584595D01*
X178248327Y-205793088D01*
X178393940Y-205980172D01*
X178393943Y-205980175D01*
X178568356Y-206140734D01*
X178568355Y-206140734D01*
X178766824Y-206270399D01*
X178983924Y-206365629D01*
X179041378Y-206380178D01*
X179213740Y-206423826D01*
X179390829Y-206438500D01*
X179390831Y-206438500D01*
X179509169Y-206438500D01*
X179509171Y-206438500D01*
X179686260Y-206423826D01*
X179916075Y-206365629D01*
X180133176Y-206270399D01*
X180331643Y-206140735D01*
X180506060Y-205980172D01*
X180651671Y-205793091D01*
X180764504Y-205584595D01*
X180841480Y-205360371D01*
X180880500Y-205126535D01*
X180880500Y-205126534D01*
X195019500Y-205126534D01*
X195058520Y-205360373D01*
X195135493Y-205584587D01*
X195135496Y-205584595D01*
X195248327Y-205793088D01*
X195393940Y-205980172D01*
X195393943Y-205980175D01*
X195568356Y-206140734D01*
X195568355Y-206140734D01*
X195766824Y-206270399D01*
X195983924Y-206365629D01*
X196041378Y-206380178D01*
X196213740Y-206423826D01*
X196390829Y-206438500D01*
X196390831Y-206438500D01*
X196509169Y-206438500D01*
X196509171Y-206438500D01*
X196686260Y-206423826D01*
X196916075Y-206365629D01*
X197133176Y-206270399D01*
X197331643Y-206140735D01*
X197506060Y-205980172D01*
X197651671Y-205793091D01*
X197764504Y-205584595D01*
X197841480Y-205360371D01*
X197880500Y-205126535D01*
X197880500Y-205126534D01*
X212019500Y-205126534D01*
X212058520Y-205360373D01*
X212135493Y-205584587D01*
X212135496Y-205584595D01*
X212248327Y-205793088D01*
X212393940Y-205980172D01*
X212393943Y-205980175D01*
X212568356Y-206140734D01*
X212568355Y-206140734D01*
X212766824Y-206270399D01*
X212983924Y-206365629D01*
X213041378Y-206380178D01*
X213213740Y-206423826D01*
X213390829Y-206438500D01*
X213390831Y-206438500D01*
X213509169Y-206438500D01*
X213509171Y-206438500D01*
X213686260Y-206423826D01*
X213916075Y-206365629D01*
X214133176Y-206270399D01*
X214331643Y-206140735D01*
X214506060Y-205980172D01*
X214651671Y-205793091D01*
X214764504Y-205584595D01*
X214841480Y-205360371D01*
X214880500Y-205126535D01*
X214880500Y-205126534D01*
X229019500Y-205126534D01*
X229058520Y-205360373D01*
X229135493Y-205584587D01*
X229135496Y-205584595D01*
X229248327Y-205793088D01*
X229393940Y-205980172D01*
X229393943Y-205980175D01*
X229568356Y-206140734D01*
X229568355Y-206140734D01*
X229766824Y-206270399D01*
X229983924Y-206365629D01*
X230041378Y-206380178D01*
X230213740Y-206423826D01*
X230390829Y-206438500D01*
X230390831Y-206438500D01*
X230509169Y-206438500D01*
X230509171Y-206438500D01*
X230686260Y-206423826D01*
X230916075Y-206365629D01*
X231133176Y-206270399D01*
X231331643Y-206140735D01*
X231506060Y-205980172D01*
X231651671Y-205793091D01*
X231764504Y-205584595D01*
X231841480Y-205360371D01*
X231880500Y-205126535D01*
X231880500Y-204889465D01*
X231841480Y-204655629D01*
X231764504Y-204431405D01*
X231651671Y-204222909D01*
X231506060Y-204035828D01*
X231331643Y-203875265D01*
X231331644Y-203875265D01*
X231133175Y-203745600D01*
X230916075Y-203650370D01*
X230686256Y-203592173D01*
X230544346Y-203580414D01*
X230509171Y-203577500D01*
X230390829Y-203577500D01*
X230358831Y-203580151D01*
X230213743Y-203592173D01*
X229983924Y-203650370D01*
X229766824Y-203745600D01*
X229568355Y-203875265D01*
X229393943Y-204035824D01*
X229393940Y-204035827D01*
X229248327Y-204222911D01*
X229135496Y-204431404D01*
X229135493Y-204431412D01*
X229058520Y-204655626D01*
X229019500Y-204889465D01*
X229019500Y-205126534D01*
X214880500Y-205126534D01*
X214880500Y-204889465D01*
X214841480Y-204655629D01*
X214764504Y-204431405D01*
X214651671Y-204222909D01*
X214506060Y-204035828D01*
X214331643Y-203875265D01*
X214331644Y-203875265D01*
X214133175Y-203745600D01*
X213916075Y-203650370D01*
X213686256Y-203592173D01*
X213544346Y-203580414D01*
X213509171Y-203577500D01*
X213390829Y-203577500D01*
X213358831Y-203580151D01*
X213213743Y-203592173D01*
X212983924Y-203650370D01*
X212766824Y-203745600D01*
X212568355Y-203875265D01*
X212393943Y-204035824D01*
X212393940Y-204035827D01*
X212248327Y-204222911D01*
X212135496Y-204431404D01*
X212135493Y-204431412D01*
X212058520Y-204655626D01*
X212019500Y-204889465D01*
X212019500Y-205126534D01*
X197880500Y-205126534D01*
X197880500Y-204889465D01*
X197841480Y-204655629D01*
X197764504Y-204431405D01*
X197651671Y-204222909D01*
X197506060Y-204035828D01*
X197331643Y-203875265D01*
X197331644Y-203875265D01*
X197133175Y-203745600D01*
X196916075Y-203650370D01*
X196686256Y-203592173D01*
X196544346Y-203580414D01*
X196509171Y-203577500D01*
X196390829Y-203577500D01*
X196358831Y-203580151D01*
X196213743Y-203592173D01*
X195983924Y-203650370D01*
X195766824Y-203745600D01*
X195568355Y-203875265D01*
X195393943Y-204035824D01*
X195393940Y-204035827D01*
X195248327Y-204222911D01*
X195135496Y-204431404D01*
X195135493Y-204431412D01*
X195058520Y-204655626D01*
X195019500Y-204889465D01*
X195019500Y-205126534D01*
X180880500Y-205126534D01*
X180880500Y-204889465D01*
X180841480Y-204655629D01*
X180764504Y-204431405D01*
X180651671Y-204222909D01*
X180506060Y-204035828D01*
X180331643Y-203875265D01*
X180331644Y-203875265D01*
X180133175Y-203745600D01*
X179916075Y-203650370D01*
X179686256Y-203592173D01*
X179544346Y-203580414D01*
X179509171Y-203577500D01*
X179390829Y-203577500D01*
X179358831Y-203580151D01*
X179213743Y-203592173D01*
X178983924Y-203650370D01*
X178766824Y-203745600D01*
X178568355Y-203875265D01*
X178393943Y-204035824D01*
X178393940Y-204035827D01*
X178248327Y-204222911D01*
X178135496Y-204431404D01*
X178135493Y-204431412D01*
X178058520Y-204655626D01*
X178019500Y-204889465D01*
X178019500Y-205126534D01*
X163880500Y-205126534D01*
X163880500Y-204889465D01*
X163841480Y-204655629D01*
X163764504Y-204431405D01*
X163651671Y-204222909D01*
X163506060Y-204035828D01*
X163331643Y-203875265D01*
X163331644Y-203875265D01*
X163133175Y-203745600D01*
X162916075Y-203650370D01*
X162686256Y-203592173D01*
X162544346Y-203580414D01*
X162509171Y-203577500D01*
X162390829Y-203577500D01*
X162358831Y-203580151D01*
X162213743Y-203592173D01*
X161983924Y-203650370D01*
X161766824Y-203745600D01*
X161568355Y-203875265D01*
X161393943Y-204035824D01*
X161393940Y-204035827D01*
X161248327Y-204222911D01*
X161135496Y-204431404D01*
X161135493Y-204431412D01*
X161058520Y-204655626D01*
X161019500Y-204889465D01*
X161019500Y-205126534D01*
X146880500Y-205126534D01*
X146880500Y-204889465D01*
X146841480Y-204655629D01*
X146764504Y-204431405D01*
X146651671Y-204222909D01*
X146506060Y-204035828D01*
X146331643Y-203875265D01*
X146331644Y-203875265D01*
X146133175Y-203745600D01*
X145916075Y-203650370D01*
X145686256Y-203592173D01*
X145544346Y-203580414D01*
X145509171Y-203577500D01*
X145390829Y-203577500D01*
X145358831Y-203580151D01*
X145213743Y-203592173D01*
X144983924Y-203650370D01*
X144766824Y-203745600D01*
X144568355Y-203875265D01*
X144393943Y-204035824D01*
X144393940Y-204035827D01*
X144248327Y-204222911D01*
X144135496Y-204431404D01*
X144135493Y-204431412D01*
X144058520Y-204655626D01*
X144019500Y-204889465D01*
X144019500Y-205126534D01*
X129880500Y-205126534D01*
X129880500Y-204889465D01*
X129841480Y-204655629D01*
X129764504Y-204431405D01*
X129651671Y-204222909D01*
X129506060Y-204035828D01*
X129331643Y-203875265D01*
X129331644Y-203875265D01*
X129133175Y-203745600D01*
X128916075Y-203650370D01*
X128686256Y-203592173D01*
X128544346Y-203580414D01*
X128509171Y-203577500D01*
X128390829Y-203577500D01*
X128358831Y-203580151D01*
X128213743Y-203592173D01*
X127983924Y-203650370D01*
X127766824Y-203745600D01*
X127568355Y-203875265D01*
X127393943Y-204035824D01*
X127393940Y-204035827D01*
X127248327Y-204222911D01*
X127135496Y-204431404D01*
X127135493Y-204431412D01*
X127058520Y-204655626D01*
X127019500Y-204889465D01*
X127019500Y-205126534D01*
X112880500Y-205126534D01*
X112880500Y-204889465D01*
X112841480Y-204655629D01*
X112764504Y-204431405D01*
X112651671Y-204222909D01*
X112506060Y-204035828D01*
X112331643Y-203875265D01*
X112331644Y-203875265D01*
X112133175Y-203745600D01*
X111916075Y-203650370D01*
X111686256Y-203592173D01*
X111544346Y-203580414D01*
X111509171Y-203577500D01*
X111390829Y-203577500D01*
X111358831Y-203580151D01*
X111213743Y-203592173D01*
X110983924Y-203650370D01*
X110766824Y-203745600D01*
X110568355Y-203875265D01*
X110393943Y-204035824D01*
X110393940Y-204035827D01*
X110248327Y-204222911D01*
X110135496Y-204431404D01*
X110135493Y-204431412D01*
X110058520Y-204655626D01*
X110019500Y-204889465D01*
X110019500Y-205126534D01*
X100400500Y-205126534D01*
X100400500Y-201132558D01*
X109549500Y-201132558D01*
X109549501Y-201132575D01*
X109582017Y-201379561D01*
X109646498Y-201620207D01*
X109741830Y-201850361D01*
X109741837Y-201850376D01*
X109866400Y-202066126D01*
X110018060Y-202263774D01*
X110018066Y-202263781D01*
X110194218Y-202439933D01*
X110194225Y-202439939D01*
X110391873Y-202591599D01*
X110607623Y-202716162D01*
X110607638Y-202716169D01*
X110706825Y-202757253D01*
X110837793Y-202811502D01*
X111078435Y-202875982D01*
X111325435Y-202908500D01*
X111325442Y-202908500D01*
X111574558Y-202908500D01*
X111574565Y-202908500D01*
X111821565Y-202875982D01*
X112062207Y-202811502D01*
X112292373Y-202716164D01*
X112508127Y-202591599D01*
X112705776Y-202439938D01*
X112881938Y-202263776D01*
X113033599Y-202066127D01*
X113158164Y-201850373D01*
X113253502Y-201620207D01*
X113317982Y-201379565D01*
X113350500Y-201132565D01*
X113350500Y-201132558D01*
X126549500Y-201132558D01*
X126549501Y-201132575D01*
X126582017Y-201379561D01*
X126646498Y-201620207D01*
X126741830Y-201850361D01*
X126741837Y-201850376D01*
X126866400Y-202066126D01*
X127018060Y-202263774D01*
X127018066Y-202263781D01*
X127194218Y-202439933D01*
X127194225Y-202439939D01*
X127391873Y-202591599D01*
X127607623Y-202716162D01*
X127607638Y-202716169D01*
X127706825Y-202757253D01*
X127837793Y-202811502D01*
X128078435Y-202875982D01*
X128325435Y-202908500D01*
X128325442Y-202908500D01*
X128574558Y-202908500D01*
X128574565Y-202908500D01*
X128821565Y-202875982D01*
X129062207Y-202811502D01*
X129292373Y-202716164D01*
X129508127Y-202591599D01*
X129705776Y-202439938D01*
X129881938Y-202263776D01*
X130033599Y-202066127D01*
X130158164Y-201850373D01*
X130253502Y-201620207D01*
X130317982Y-201379565D01*
X130350500Y-201132565D01*
X130350500Y-201132558D01*
X143549500Y-201132558D01*
X143549501Y-201132575D01*
X143582017Y-201379561D01*
X143646498Y-201620207D01*
X143741830Y-201850361D01*
X143741837Y-201850376D01*
X143866400Y-202066126D01*
X144018060Y-202263774D01*
X144018066Y-202263781D01*
X144194218Y-202439933D01*
X144194225Y-202439939D01*
X144391873Y-202591599D01*
X144607623Y-202716162D01*
X144607638Y-202716169D01*
X144706825Y-202757253D01*
X144837793Y-202811502D01*
X145078435Y-202875982D01*
X145325435Y-202908500D01*
X145325442Y-202908500D01*
X145574558Y-202908500D01*
X145574565Y-202908500D01*
X145821565Y-202875982D01*
X146062207Y-202811502D01*
X146292373Y-202716164D01*
X146508127Y-202591599D01*
X146705776Y-202439938D01*
X146881938Y-202263776D01*
X147033599Y-202066127D01*
X147158164Y-201850373D01*
X147253502Y-201620207D01*
X147317982Y-201379565D01*
X147350500Y-201132565D01*
X147350500Y-201132558D01*
X160549500Y-201132558D01*
X160549501Y-201132575D01*
X160582017Y-201379561D01*
X160646498Y-201620207D01*
X160741830Y-201850361D01*
X160741837Y-201850376D01*
X160866400Y-202066126D01*
X161018060Y-202263774D01*
X161018066Y-202263781D01*
X161194218Y-202439933D01*
X161194225Y-202439939D01*
X161391873Y-202591599D01*
X161607623Y-202716162D01*
X161607638Y-202716169D01*
X161706825Y-202757253D01*
X161837793Y-202811502D01*
X162078435Y-202875982D01*
X162325435Y-202908500D01*
X162325442Y-202908500D01*
X162574558Y-202908500D01*
X162574565Y-202908500D01*
X162821565Y-202875982D01*
X163062207Y-202811502D01*
X163292373Y-202716164D01*
X163508127Y-202591599D01*
X163705776Y-202439938D01*
X163881938Y-202263776D01*
X164033599Y-202066127D01*
X164158164Y-201850373D01*
X164253502Y-201620207D01*
X164317982Y-201379565D01*
X164350500Y-201132565D01*
X164350500Y-201132558D01*
X177549500Y-201132558D01*
X177549501Y-201132575D01*
X177582017Y-201379561D01*
X177646498Y-201620207D01*
X177741830Y-201850361D01*
X177741837Y-201850376D01*
X177866400Y-202066126D01*
X178018060Y-202263774D01*
X178018066Y-202263781D01*
X178194218Y-202439933D01*
X178194225Y-202439939D01*
X178391873Y-202591599D01*
X178607623Y-202716162D01*
X178607638Y-202716169D01*
X178706825Y-202757253D01*
X178837793Y-202811502D01*
X179078435Y-202875982D01*
X179325435Y-202908500D01*
X179325442Y-202908500D01*
X179574558Y-202908500D01*
X179574565Y-202908500D01*
X179821565Y-202875982D01*
X180062207Y-202811502D01*
X180292373Y-202716164D01*
X180508127Y-202591599D01*
X180705776Y-202439938D01*
X180881938Y-202263776D01*
X181033599Y-202066127D01*
X181158164Y-201850373D01*
X181253502Y-201620207D01*
X181317982Y-201379565D01*
X181350500Y-201132565D01*
X181350500Y-201132558D01*
X194549500Y-201132558D01*
X194549501Y-201132575D01*
X194582017Y-201379561D01*
X194646498Y-201620207D01*
X194741830Y-201850361D01*
X194741837Y-201850376D01*
X194866400Y-202066126D01*
X195018060Y-202263774D01*
X195018066Y-202263781D01*
X195194218Y-202439933D01*
X195194225Y-202439939D01*
X195391873Y-202591599D01*
X195607623Y-202716162D01*
X195607638Y-202716169D01*
X195706825Y-202757253D01*
X195837793Y-202811502D01*
X196078435Y-202875982D01*
X196325435Y-202908500D01*
X196325442Y-202908500D01*
X196574558Y-202908500D01*
X196574565Y-202908500D01*
X196821565Y-202875982D01*
X197062207Y-202811502D01*
X197292373Y-202716164D01*
X197508127Y-202591599D01*
X197705776Y-202439938D01*
X197881938Y-202263776D01*
X198033599Y-202066127D01*
X198158164Y-201850373D01*
X198253502Y-201620207D01*
X198317982Y-201379565D01*
X198350500Y-201132565D01*
X198350500Y-201132558D01*
X211549500Y-201132558D01*
X211549501Y-201132575D01*
X211582017Y-201379561D01*
X211646498Y-201620207D01*
X211741830Y-201850361D01*
X211741837Y-201850376D01*
X211866400Y-202066126D01*
X212018060Y-202263774D01*
X212018066Y-202263781D01*
X212194218Y-202439933D01*
X212194225Y-202439939D01*
X212391873Y-202591599D01*
X212607623Y-202716162D01*
X212607638Y-202716169D01*
X212706825Y-202757253D01*
X212837793Y-202811502D01*
X213078435Y-202875982D01*
X213325435Y-202908500D01*
X213325442Y-202908500D01*
X213574558Y-202908500D01*
X213574565Y-202908500D01*
X213821565Y-202875982D01*
X214062207Y-202811502D01*
X214292373Y-202716164D01*
X214508127Y-202591599D01*
X214705776Y-202439938D01*
X214881938Y-202263776D01*
X215033599Y-202066127D01*
X215158164Y-201850373D01*
X215253502Y-201620207D01*
X215317982Y-201379565D01*
X215350500Y-201132565D01*
X215350500Y-201132558D01*
X228549500Y-201132558D01*
X228549501Y-201132575D01*
X228582017Y-201379561D01*
X228646498Y-201620207D01*
X228741830Y-201850361D01*
X228741837Y-201850376D01*
X228866400Y-202066126D01*
X229018060Y-202263774D01*
X229018066Y-202263781D01*
X229194218Y-202439933D01*
X229194225Y-202439939D01*
X229391873Y-202591599D01*
X229607623Y-202716162D01*
X229607638Y-202716169D01*
X229706825Y-202757253D01*
X229837793Y-202811502D01*
X230078435Y-202875982D01*
X230325435Y-202908500D01*
X230325442Y-202908500D01*
X230574558Y-202908500D01*
X230574565Y-202908500D01*
X230821565Y-202875982D01*
X231062207Y-202811502D01*
X231292373Y-202716164D01*
X231508127Y-202591599D01*
X231705776Y-202439938D01*
X231881938Y-202263776D01*
X232033599Y-202066127D01*
X232158164Y-201850373D01*
X232253502Y-201620207D01*
X232317982Y-201379565D01*
X232350500Y-201132565D01*
X232350500Y-201008000D01*
X232350500Y-200950417D01*
X232350500Y-137976481D01*
X232350500Y-137883435D01*
X232317982Y-137636435D01*
X232253502Y-137395793D01*
X232164097Y-137179950D01*
X232158169Y-137165638D01*
X232158162Y-137165623D01*
X232033599Y-136949873D01*
X231881939Y-136752225D01*
X231881933Y-136752218D01*
X231705781Y-136576066D01*
X231705774Y-136576060D01*
X231508126Y-136424400D01*
X231292376Y-136299837D01*
X231292361Y-136299830D01*
X231062207Y-136204498D01*
X230821561Y-136140017D01*
X230574575Y-136107501D01*
X230574570Y-136107500D01*
X230574565Y-136107500D01*
X230507583Y-136107500D01*
X230450000Y-136107500D01*
X230325435Y-136107500D01*
X230325429Y-136107500D01*
X230325424Y-136107501D01*
X230078438Y-136140017D01*
X229837792Y-136204498D01*
X229607638Y-136299830D01*
X229607623Y-136299837D01*
X229391873Y-136424400D01*
X229194225Y-136576060D01*
X229194218Y-136576066D01*
X229018066Y-136752218D01*
X229018060Y-136752225D01*
X228866400Y-136949873D01*
X228741837Y-137165623D01*
X228741830Y-137165638D01*
X228646498Y-137395792D01*
X228582017Y-137636438D01*
X228549501Y-137883424D01*
X228549500Y-137883441D01*
X228549500Y-201132558D01*
X215350500Y-201132558D01*
X215350500Y-201008000D01*
X215350500Y-200950417D01*
X215350500Y-137976481D01*
X215350500Y-137883435D01*
X215317982Y-137636435D01*
X215253502Y-137395793D01*
X215164097Y-137179950D01*
X215158169Y-137165638D01*
X215158162Y-137165623D01*
X215033599Y-136949873D01*
X214881939Y-136752225D01*
X214881933Y-136752218D01*
X214705781Y-136576066D01*
X214705774Y-136576060D01*
X214508126Y-136424400D01*
X214292376Y-136299837D01*
X214292361Y-136299830D01*
X214062207Y-136204498D01*
X213821561Y-136140017D01*
X213574575Y-136107501D01*
X213574570Y-136107500D01*
X213574565Y-136107500D01*
X213507583Y-136107500D01*
X213450000Y-136107500D01*
X213325435Y-136107500D01*
X213325429Y-136107500D01*
X213325424Y-136107501D01*
X213078438Y-136140017D01*
X212837792Y-136204498D01*
X212607638Y-136299830D01*
X212607623Y-136299837D01*
X212391873Y-136424400D01*
X212194225Y-136576060D01*
X212194218Y-136576066D01*
X212018066Y-136752218D01*
X212018060Y-136752225D01*
X211866400Y-136949873D01*
X211741837Y-137165623D01*
X211741830Y-137165638D01*
X211646498Y-137395792D01*
X211582017Y-137636438D01*
X211549501Y-137883424D01*
X211549500Y-137883441D01*
X211549500Y-201132558D01*
X198350500Y-201132558D01*
X198350500Y-201008000D01*
X198350500Y-200950417D01*
X198350500Y-137976481D01*
X198350500Y-137883435D01*
X198317982Y-137636435D01*
X198253502Y-137395793D01*
X198164097Y-137179950D01*
X198158169Y-137165638D01*
X198158162Y-137165623D01*
X198033599Y-136949873D01*
X197881939Y-136752225D01*
X197881933Y-136752218D01*
X197705781Y-136576066D01*
X197705774Y-136576060D01*
X197508126Y-136424400D01*
X197292376Y-136299837D01*
X197292361Y-136299830D01*
X197062207Y-136204498D01*
X196821561Y-136140017D01*
X196574575Y-136107501D01*
X196574570Y-136107500D01*
X196574565Y-136107500D01*
X196507583Y-136107500D01*
X196450000Y-136107500D01*
X196325435Y-136107500D01*
X196325429Y-136107500D01*
X196325424Y-136107501D01*
X196078438Y-136140017D01*
X195837792Y-136204498D01*
X195607638Y-136299830D01*
X195607623Y-136299837D01*
X195391873Y-136424400D01*
X195194225Y-136576060D01*
X195194218Y-136576066D01*
X195018066Y-136752218D01*
X195018060Y-136752225D01*
X194866400Y-136949873D01*
X194741837Y-137165623D01*
X194741830Y-137165638D01*
X194646498Y-137395792D01*
X194582017Y-137636438D01*
X194549501Y-137883424D01*
X194549500Y-137883441D01*
X194549500Y-201132558D01*
X181350500Y-201132558D01*
X181350500Y-201008000D01*
X181350500Y-200950417D01*
X181350500Y-137976481D01*
X181350500Y-137883435D01*
X181317982Y-137636435D01*
X181253502Y-137395793D01*
X181164097Y-137179950D01*
X181158169Y-137165638D01*
X181158162Y-137165623D01*
X181033599Y-136949873D01*
X180881939Y-136752225D01*
X180881933Y-136752218D01*
X180705781Y-136576066D01*
X180705774Y-136576060D01*
X180508126Y-136424400D01*
X180292376Y-136299837D01*
X180292361Y-136299830D01*
X180062207Y-136204498D01*
X179821561Y-136140017D01*
X179574575Y-136107501D01*
X179574570Y-136107500D01*
X179574565Y-136107500D01*
X179507583Y-136107500D01*
X179450000Y-136107500D01*
X179325435Y-136107500D01*
X179325429Y-136107500D01*
X179325424Y-136107501D01*
X179078438Y-136140017D01*
X178837792Y-136204498D01*
X178607638Y-136299830D01*
X178607623Y-136299837D01*
X178391873Y-136424400D01*
X178194225Y-136576060D01*
X178194218Y-136576066D01*
X178018066Y-136752218D01*
X178018060Y-136752225D01*
X177866400Y-136949873D01*
X177741837Y-137165623D01*
X177741830Y-137165638D01*
X177646498Y-137395792D01*
X177582017Y-137636438D01*
X177549501Y-137883424D01*
X177549500Y-137883441D01*
X177549500Y-201132558D01*
X164350500Y-201132558D01*
X164350500Y-201008000D01*
X164350500Y-200950417D01*
X164350500Y-137976481D01*
X164350500Y-137883435D01*
X164317982Y-137636435D01*
X164253502Y-137395793D01*
X164164097Y-137179950D01*
X164158169Y-137165638D01*
X164158162Y-137165623D01*
X164033599Y-136949873D01*
X163881939Y-136752225D01*
X163881933Y-136752218D01*
X163705781Y-136576066D01*
X163705774Y-136576060D01*
X163508126Y-136424400D01*
X163292376Y-136299837D01*
X163292361Y-136299830D01*
X163062207Y-136204498D01*
X162821561Y-136140017D01*
X162574575Y-136107501D01*
X162574570Y-136107500D01*
X162574565Y-136107500D01*
X162507583Y-136107500D01*
X162450000Y-136107500D01*
X162325435Y-136107500D01*
X162325429Y-136107500D01*
X162325424Y-136107501D01*
X162078438Y-136140017D01*
X161837792Y-136204498D01*
X161607638Y-136299830D01*
X161607623Y-136299837D01*
X161391873Y-136424400D01*
X161194225Y-136576060D01*
X161194218Y-136576066D01*
X161018066Y-136752218D01*
X161018060Y-136752225D01*
X160866400Y-136949873D01*
X160741837Y-137165623D01*
X160741830Y-137165638D01*
X160646498Y-137395792D01*
X160582017Y-137636438D01*
X160549501Y-137883424D01*
X160549500Y-137883441D01*
X160549500Y-201132558D01*
X147350500Y-201132558D01*
X147350500Y-201008000D01*
X147350500Y-200950417D01*
X147350500Y-137976481D01*
X147350500Y-137883435D01*
X147317982Y-137636435D01*
X147253502Y-137395793D01*
X147164097Y-137179950D01*
X147158169Y-137165638D01*
X147158162Y-137165623D01*
X147033599Y-136949873D01*
X146881939Y-136752225D01*
X146881933Y-136752218D01*
X146705781Y-136576066D01*
X146705774Y-136576060D01*
X146508126Y-136424400D01*
X146292376Y-136299837D01*
X146292361Y-136299830D01*
X146062207Y-136204498D01*
X145821561Y-136140017D01*
X145574575Y-136107501D01*
X145574570Y-136107500D01*
X145574565Y-136107500D01*
X145507583Y-136107500D01*
X145450000Y-136107500D01*
X145325435Y-136107500D01*
X145325429Y-136107500D01*
X145325424Y-136107501D01*
X145078438Y-136140017D01*
X144837792Y-136204498D01*
X144607638Y-136299830D01*
X144607623Y-136299837D01*
X144391873Y-136424400D01*
X144194225Y-136576060D01*
X144194218Y-136576066D01*
X144018066Y-136752218D01*
X144018060Y-136752225D01*
X143866400Y-136949873D01*
X143741837Y-137165623D01*
X143741830Y-137165638D01*
X143646498Y-137395792D01*
X143582017Y-137636438D01*
X143549501Y-137883424D01*
X143549500Y-137883441D01*
X143549500Y-201132558D01*
X130350500Y-201132558D01*
X130350500Y-201008000D01*
X130350500Y-200950417D01*
X130350500Y-137976481D01*
X130350500Y-137883435D01*
X130317982Y-137636435D01*
X130253502Y-137395793D01*
X130164097Y-137179950D01*
X130158169Y-137165638D01*
X130158162Y-137165623D01*
X130033599Y-136949873D01*
X129881939Y-136752225D01*
X129881933Y-136752218D01*
X129705781Y-136576066D01*
X129705774Y-136576060D01*
X129508126Y-136424400D01*
X129292376Y-136299837D01*
X129292361Y-136299830D01*
X129062207Y-136204498D01*
X128821561Y-136140017D01*
X128574575Y-136107501D01*
X128574570Y-136107500D01*
X128574565Y-136107500D01*
X128507583Y-136107500D01*
X128450000Y-136107500D01*
X128325435Y-136107500D01*
X128325429Y-136107500D01*
X128325424Y-136107501D01*
X128078438Y-136140017D01*
X127837792Y-136204498D01*
X127607638Y-136299830D01*
X127607623Y-136299837D01*
X127391873Y-136424400D01*
X127194225Y-136576060D01*
X127194218Y-136576066D01*
X127018066Y-136752218D01*
X127018060Y-136752225D01*
X126866400Y-136949873D01*
X126741837Y-137165623D01*
X126741830Y-137165638D01*
X126646498Y-137395792D01*
X126582017Y-137636438D01*
X126549501Y-137883424D01*
X126549500Y-137883441D01*
X126549500Y-201132558D01*
X113350500Y-201132558D01*
X113350500Y-201008000D01*
X113350500Y-200950417D01*
X113350500Y-137976481D01*
X113350500Y-137883435D01*
X113317982Y-137636435D01*
X113253502Y-137395793D01*
X113164097Y-137179950D01*
X113158169Y-137165638D01*
X113158162Y-137165623D01*
X113033599Y-136949873D01*
X112881939Y-136752225D01*
X112881933Y-136752218D01*
X112705781Y-136576066D01*
X112705774Y-136576060D01*
X112508126Y-136424400D01*
X112292376Y-136299837D01*
X112292361Y-136299830D01*
X112062207Y-136204498D01*
X111821561Y-136140017D01*
X111574575Y-136107501D01*
X111574570Y-136107500D01*
X111574565Y-136107500D01*
X111507583Y-136107500D01*
X111450000Y-136107500D01*
X111325435Y-136107500D01*
X111325429Y-136107500D01*
X111325424Y-136107501D01*
X111078438Y-136140017D01*
X110837792Y-136204498D01*
X110607638Y-136299830D01*
X110607623Y-136299837D01*
X110391873Y-136424400D01*
X110194225Y-136576060D01*
X110194218Y-136576066D01*
X110018066Y-136752218D01*
X110018060Y-136752225D01*
X109866400Y-136949873D01*
X109741837Y-137165623D01*
X109741830Y-137165638D01*
X109646498Y-137395792D01*
X109582017Y-137636438D01*
X109549501Y-137883424D01*
X109549500Y-137883441D01*
X109549500Y-201132558D01*
X100400500Y-201132558D01*
X100400500Y-134126534D01*
X110019500Y-134126534D01*
X110058520Y-134360373D01*
X110135493Y-134584587D01*
X110135496Y-134584595D01*
X110248327Y-134793088D01*
X110393940Y-134980172D01*
X110393943Y-134980175D01*
X110568356Y-135140734D01*
X110568355Y-135140734D01*
X110766824Y-135270399D01*
X110983924Y-135365629D01*
X111041378Y-135380178D01*
X111213740Y-135423826D01*
X111390829Y-135438500D01*
X111390831Y-135438500D01*
X111509169Y-135438500D01*
X111509171Y-135438500D01*
X111686260Y-135423826D01*
X111916075Y-135365629D01*
X112133176Y-135270399D01*
X112331643Y-135140735D01*
X112506060Y-134980172D01*
X112651671Y-134793091D01*
X112764504Y-134584595D01*
X112841480Y-134360371D01*
X112880500Y-134126535D01*
X112880500Y-134126534D01*
X127019500Y-134126534D01*
X127058520Y-134360373D01*
X127135493Y-134584587D01*
X127135496Y-134584595D01*
X127248327Y-134793088D01*
X127393940Y-134980172D01*
X127393943Y-134980175D01*
X127568356Y-135140734D01*
X127568355Y-135140734D01*
X127766824Y-135270399D01*
X127983924Y-135365629D01*
X128041378Y-135380178D01*
X128213740Y-135423826D01*
X128390829Y-135438500D01*
X128390831Y-135438500D01*
X128509169Y-135438500D01*
X128509171Y-135438500D01*
X128686260Y-135423826D01*
X128916075Y-135365629D01*
X129133176Y-135270399D01*
X129331643Y-135140735D01*
X129506060Y-134980172D01*
X129651671Y-134793091D01*
X129764504Y-134584595D01*
X129841480Y-134360371D01*
X129880500Y-134126535D01*
X129880500Y-134126534D01*
X144019500Y-134126534D01*
X144058520Y-134360373D01*
X144135493Y-134584587D01*
X144135496Y-134584595D01*
X144248327Y-134793088D01*
X144393940Y-134980172D01*
X144393943Y-134980175D01*
X144568356Y-135140734D01*
X144568355Y-135140734D01*
X144766824Y-135270399D01*
X144983924Y-135365629D01*
X145041378Y-135380178D01*
X145213740Y-135423826D01*
X145390829Y-135438500D01*
X145390831Y-135438500D01*
X145509169Y-135438500D01*
X145509171Y-135438500D01*
X145686260Y-135423826D01*
X145916075Y-135365629D01*
X146133176Y-135270399D01*
X146331643Y-135140735D01*
X146506060Y-134980172D01*
X146651671Y-134793091D01*
X146764504Y-134584595D01*
X146841480Y-134360371D01*
X146880500Y-134126535D01*
X146880500Y-134126534D01*
X161019500Y-134126534D01*
X161058520Y-134360373D01*
X161135493Y-134584587D01*
X161135496Y-134584595D01*
X161248327Y-134793088D01*
X161393940Y-134980172D01*
X161393943Y-134980175D01*
X161568356Y-135140734D01*
X161568355Y-135140734D01*
X161766824Y-135270399D01*
X161983924Y-135365629D01*
X162041378Y-135380178D01*
X162213740Y-135423826D01*
X162390829Y-135438500D01*
X162390831Y-135438500D01*
X162509169Y-135438500D01*
X162509171Y-135438500D01*
X162686260Y-135423826D01*
X162916075Y-135365629D01*
X163133176Y-135270399D01*
X163331643Y-135140735D01*
X163506060Y-134980172D01*
X163651671Y-134793091D01*
X163764504Y-134584595D01*
X163841480Y-134360371D01*
X163880500Y-134126535D01*
X163880500Y-134126534D01*
X178019500Y-134126534D01*
X178058520Y-134360373D01*
X178135493Y-134584587D01*
X178135496Y-134584595D01*
X178248327Y-134793088D01*
X178393940Y-134980172D01*
X178393943Y-134980175D01*
X178568356Y-135140734D01*
X178568355Y-135140734D01*
X178766824Y-135270399D01*
X178983924Y-135365629D01*
X179041378Y-135380178D01*
X179213740Y-135423826D01*
X179390829Y-135438500D01*
X179390831Y-135438500D01*
X179509169Y-135438500D01*
X179509171Y-135438500D01*
X179686260Y-135423826D01*
X179916075Y-135365629D01*
X180133176Y-135270399D01*
X180331643Y-135140735D01*
X180506060Y-134980172D01*
X180651671Y-134793091D01*
X180764504Y-134584595D01*
X180841480Y-134360371D01*
X180880500Y-134126535D01*
X180880500Y-134126534D01*
X195019500Y-134126534D01*
X195058520Y-134360373D01*
X195135493Y-134584587D01*
X195135496Y-134584595D01*
X195248327Y-134793088D01*
X195393940Y-134980172D01*
X195393943Y-134980175D01*
X195568356Y-135140734D01*
X195568355Y-135140734D01*
X195766824Y-135270399D01*
X195983924Y-135365629D01*
X196041378Y-135380178D01*
X196213740Y-135423826D01*
X196390829Y-135438500D01*
X196390831Y-135438500D01*
X196509169Y-135438500D01*
X196509171Y-135438500D01*
X196686260Y-135423826D01*
X196916075Y-135365629D01*
X197133176Y-135270399D01*
X197331643Y-135140735D01*
X197506060Y-134980172D01*
X197651671Y-134793091D01*
X197764504Y-134584595D01*
X197841480Y-134360371D01*
X197880500Y-134126535D01*
X197880500Y-134126534D01*
X212019500Y-134126534D01*
X212058520Y-134360373D01*
X212135493Y-134584587D01*
X212135496Y-134584595D01*
X212248327Y-134793088D01*
X212393940Y-134980172D01*
X212393943Y-134980175D01*
X212568356Y-135140734D01*
X212568355Y-135140734D01*
X212766824Y-135270399D01*
X212983924Y-135365629D01*
X213041378Y-135380178D01*
X213213740Y-135423826D01*
X213390829Y-135438500D01*
X213390831Y-135438500D01*
X213509169Y-135438500D01*
X213509171Y-135438500D01*
X213686260Y-135423826D01*
X213916075Y-135365629D01*
X214133176Y-135270399D01*
X214331643Y-135140735D01*
X214506060Y-134980172D01*
X214651671Y-134793091D01*
X214764504Y-134584595D01*
X214841480Y-134360371D01*
X214880500Y-134126535D01*
X214880500Y-134126534D01*
X229019500Y-134126534D01*
X229058520Y-134360373D01*
X229135493Y-134584587D01*
X229135496Y-134584595D01*
X229248327Y-134793088D01*
X229393940Y-134980172D01*
X229393943Y-134980175D01*
X229568356Y-135140734D01*
X229568355Y-135140734D01*
X229766824Y-135270399D01*
X229983924Y-135365629D01*
X230041378Y-135380178D01*
X230213740Y-135423826D01*
X230390829Y-135438500D01*
X230390831Y-135438500D01*
X230509169Y-135438500D01*
X230509171Y-135438500D01*
X230686260Y-135423826D01*
X230916075Y-135365629D01*
X231133176Y-135270399D01*
X231331643Y-135140735D01*
X231506060Y-134980172D01*
X231651671Y-134793091D01*
X231764504Y-134584595D01*
X231841480Y-134360371D01*
X231880500Y-134126535D01*
X231880500Y-133889465D01*
X231841480Y-133655629D01*
X231764504Y-133431405D01*
X231651671Y-133222909D01*
X231506060Y-133035828D01*
X231331643Y-132875265D01*
X231331644Y-132875265D01*
X231133175Y-132745600D01*
X230916075Y-132650370D01*
X230686256Y-132592173D01*
X230544346Y-132580414D01*
X230509171Y-132577500D01*
X230390829Y-132577500D01*
X230358831Y-132580151D01*
X230213743Y-132592173D01*
X229983924Y-132650370D01*
X229766824Y-132745600D01*
X229568355Y-132875265D01*
X229393943Y-133035824D01*
X229393940Y-133035827D01*
X229248327Y-133222911D01*
X229135496Y-133431404D01*
X229135493Y-133431412D01*
X229058520Y-133655626D01*
X229019500Y-133889465D01*
X229019500Y-134126534D01*
X214880500Y-134126534D01*
X214880500Y-133889465D01*
X214841480Y-133655629D01*
X214764504Y-133431405D01*
X214651671Y-133222909D01*
X214506060Y-133035828D01*
X214331643Y-132875265D01*
X214331644Y-132875265D01*
X214133175Y-132745600D01*
X213916075Y-132650370D01*
X213686256Y-132592173D01*
X213544346Y-132580414D01*
X213509171Y-132577500D01*
X213390829Y-132577500D01*
X213358831Y-132580151D01*
X213213743Y-132592173D01*
X212983924Y-132650370D01*
X212766824Y-132745600D01*
X212568355Y-132875265D01*
X212393943Y-133035824D01*
X212393940Y-133035827D01*
X212248327Y-133222911D01*
X212135496Y-133431404D01*
X212135493Y-133431412D01*
X212058520Y-133655626D01*
X212019500Y-133889465D01*
X212019500Y-134126534D01*
X197880500Y-134126534D01*
X197880500Y-133889465D01*
X197841480Y-133655629D01*
X197764504Y-133431405D01*
X197651671Y-133222909D01*
X197506060Y-133035828D01*
X197331643Y-132875265D01*
X197331644Y-132875265D01*
X197133175Y-132745600D01*
X196916075Y-132650370D01*
X196686256Y-132592173D01*
X196544346Y-132580414D01*
X196509171Y-132577500D01*
X196390829Y-132577500D01*
X196358831Y-132580151D01*
X196213743Y-132592173D01*
X195983924Y-132650370D01*
X195766824Y-132745600D01*
X195568355Y-132875265D01*
X195393943Y-133035824D01*
X195393940Y-133035827D01*
X195248327Y-133222911D01*
X195135496Y-133431404D01*
X195135493Y-133431412D01*
X195058520Y-133655626D01*
X195019500Y-133889465D01*
X195019500Y-134126534D01*
X180880500Y-134126534D01*
X180880500Y-133889465D01*
X180841480Y-133655629D01*
X180764504Y-133431405D01*
X180651671Y-133222909D01*
X180506060Y-133035828D01*
X180331643Y-132875265D01*
X180331644Y-132875265D01*
X180133175Y-132745600D01*
X179916075Y-132650370D01*
X179686256Y-132592173D01*
X179544346Y-132580414D01*
X179509171Y-132577500D01*
X179390829Y-132577500D01*
X179358831Y-132580151D01*
X179213743Y-132592173D01*
X178983924Y-132650370D01*
X178766824Y-132745600D01*
X178568355Y-132875265D01*
X178393943Y-133035824D01*
X178393940Y-133035827D01*
X178248327Y-133222911D01*
X178135496Y-133431404D01*
X178135493Y-133431412D01*
X178058520Y-133655626D01*
X178019500Y-133889465D01*
X178019500Y-134126534D01*
X163880500Y-134126534D01*
X163880500Y-133889465D01*
X163841480Y-133655629D01*
X163764504Y-133431405D01*
X163651671Y-133222909D01*
X163506060Y-133035828D01*
X163331643Y-132875265D01*
X163331644Y-132875265D01*
X163133175Y-132745600D01*
X162916075Y-132650370D01*
X162686256Y-132592173D01*
X162544346Y-132580414D01*
X162509171Y-132577500D01*
X162390829Y-132577500D01*
X162358831Y-132580151D01*
X162213743Y-132592173D01*
X161983924Y-132650370D01*
X161766824Y-132745600D01*
X161568355Y-132875265D01*
X161393943Y-133035824D01*
X161393940Y-133035827D01*
X161248327Y-133222911D01*
X161135496Y-133431404D01*
X161135493Y-133431412D01*
X161058520Y-133655626D01*
X161019500Y-133889465D01*
X161019500Y-134126534D01*
X146880500Y-134126534D01*
X146880500Y-133889465D01*
X146841480Y-133655629D01*
X146764504Y-133431405D01*
X146651671Y-133222909D01*
X146506060Y-133035828D01*
X146331643Y-132875265D01*
X146331644Y-132875265D01*
X146133175Y-132745600D01*
X145916075Y-132650370D01*
X145686256Y-132592173D01*
X145544346Y-132580414D01*
X145509171Y-132577500D01*
X145390829Y-132577500D01*
X145358831Y-132580151D01*
X145213743Y-132592173D01*
X144983924Y-132650370D01*
X144766824Y-132745600D01*
X144568355Y-132875265D01*
X144393943Y-133035824D01*
X144393940Y-133035827D01*
X144248327Y-133222911D01*
X144135496Y-133431404D01*
X144135493Y-133431412D01*
X144058520Y-133655626D01*
X144019500Y-133889465D01*
X144019500Y-134126534D01*
X129880500Y-134126534D01*
X129880500Y-133889465D01*
X129841480Y-133655629D01*
X129764504Y-133431405D01*
X129651671Y-133222909D01*
X129506060Y-133035828D01*
X129331643Y-132875265D01*
X129331644Y-132875265D01*
X129133175Y-132745600D01*
X128916075Y-132650370D01*
X128686256Y-132592173D01*
X128544346Y-132580414D01*
X128509171Y-132577500D01*
X128390829Y-132577500D01*
X128358831Y-132580151D01*
X128213743Y-132592173D01*
X127983924Y-132650370D01*
X127766824Y-132745600D01*
X127568355Y-132875265D01*
X127393943Y-133035824D01*
X127393940Y-133035827D01*
X127248327Y-133222911D01*
X127135496Y-133431404D01*
X127135493Y-133431412D01*
X127058520Y-133655626D01*
X127019500Y-133889465D01*
X127019500Y-134126534D01*
X112880500Y-134126534D01*
X112880500Y-133889465D01*
X112841480Y-133655629D01*
X112764504Y-133431405D01*
X112651671Y-133222909D01*
X112506060Y-133035828D01*
X112331643Y-132875265D01*
X112331644Y-132875265D01*
X112133175Y-132745600D01*
X111916075Y-132650370D01*
X111686256Y-132592173D01*
X111544346Y-132580414D01*
X111509171Y-132577500D01*
X111390829Y-132577500D01*
X111358831Y-132580151D01*
X111213743Y-132592173D01*
X110983924Y-132650370D01*
X110766824Y-132745600D01*
X110568355Y-132875265D01*
X110393943Y-133035824D01*
X110393940Y-133035827D01*
X110248327Y-133222911D01*
X110135496Y-133431404D01*
X110135493Y-133431412D01*
X110058520Y-133655626D01*
X110019500Y-133889465D01*
X110019500Y-134126534D01*
X100400500Y-134126534D01*
X100400500Y-124234001D01*
X109514569Y-124234001D01*
X109534269Y-124509442D01*
X109534270Y-124509449D01*
X109592966Y-124779267D01*
X109592968Y-124779274D01*
X109652884Y-124939917D01*
X109689470Y-125038008D01*
X109689472Y-125038012D01*
X109821808Y-125280367D01*
X109821813Y-125280375D01*
X109987292Y-125501430D01*
X109987308Y-125501448D01*
X110182551Y-125696691D01*
X110182569Y-125696707D01*
X110403624Y-125862186D01*
X110403632Y-125862191D01*
X110645987Y-125994527D01*
X110645991Y-125994529D01*
X110645993Y-125994530D01*
X110904726Y-126091032D01*
X111174559Y-126149731D01*
X111381056Y-126164500D01*
X111518944Y-126164500D01*
X111725441Y-126149731D01*
X111995274Y-126091032D01*
X112254007Y-125994530D01*
X112496373Y-125862188D01*
X112717438Y-125696701D01*
X112912701Y-125501438D01*
X113078188Y-125280373D01*
X113210530Y-125038007D01*
X113307032Y-124779274D01*
X113365731Y-124509441D01*
X113385431Y-124234001D01*
X126514569Y-124234001D01*
X126534269Y-124509442D01*
X126534270Y-124509449D01*
X126592966Y-124779267D01*
X126592968Y-124779274D01*
X126652884Y-124939917D01*
X126689470Y-125038008D01*
X126689472Y-125038012D01*
X126821808Y-125280367D01*
X126821813Y-125280375D01*
X126987292Y-125501430D01*
X126987308Y-125501448D01*
X127182551Y-125696691D01*
X127182569Y-125696707D01*
X127403624Y-125862186D01*
X127403632Y-125862191D01*
X127645987Y-125994527D01*
X127645991Y-125994529D01*
X127645993Y-125994530D01*
X127904726Y-126091032D01*
X128174559Y-126149731D01*
X128381056Y-126164500D01*
X128518944Y-126164500D01*
X128725441Y-126149731D01*
X128995274Y-126091032D01*
X129254007Y-125994530D01*
X129496373Y-125862188D01*
X129717438Y-125696701D01*
X129912701Y-125501438D01*
X130078188Y-125280373D01*
X130210530Y-125038007D01*
X130307032Y-124779274D01*
X130365731Y-124509441D01*
X130385431Y-124234001D01*
X143514569Y-124234001D01*
X143534269Y-124509442D01*
X143534270Y-124509449D01*
X143592966Y-124779267D01*
X143592968Y-124779274D01*
X143652884Y-124939917D01*
X143689470Y-125038008D01*
X143689472Y-125038012D01*
X143821808Y-125280367D01*
X143821813Y-125280375D01*
X143987292Y-125501430D01*
X143987308Y-125501448D01*
X144182551Y-125696691D01*
X144182569Y-125696707D01*
X144403624Y-125862186D01*
X144403632Y-125862191D01*
X144645987Y-125994527D01*
X144645991Y-125994529D01*
X144645993Y-125994530D01*
X144904726Y-126091032D01*
X145174559Y-126149731D01*
X145381056Y-126164500D01*
X145518944Y-126164500D01*
X145725441Y-126149731D01*
X145995274Y-126091032D01*
X146254007Y-125994530D01*
X146496373Y-125862188D01*
X146717438Y-125696701D01*
X146912701Y-125501438D01*
X147078188Y-125280373D01*
X147210530Y-125038007D01*
X147307032Y-124779274D01*
X147365731Y-124509441D01*
X147385431Y-124234001D01*
X160514569Y-124234001D01*
X160534269Y-124509442D01*
X160534270Y-124509449D01*
X160592966Y-124779267D01*
X160592968Y-124779274D01*
X160652884Y-124939917D01*
X160689470Y-125038008D01*
X160689472Y-125038012D01*
X160821808Y-125280367D01*
X160821813Y-125280375D01*
X160987292Y-125501430D01*
X160987308Y-125501448D01*
X161182551Y-125696691D01*
X161182569Y-125696707D01*
X161403624Y-125862186D01*
X161403632Y-125862191D01*
X161645987Y-125994527D01*
X161645991Y-125994529D01*
X161645993Y-125994530D01*
X161904726Y-126091032D01*
X162174559Y-126149731D01*
X162381056Y-126164500D01*
X162518944Y-126164500D01*
X162725441Y-126149731D01*
X162995274Y-126091032D01*
X163254007Y-125994530D01*
X163496373Y-125862188D01*
X163717438Y-125696701D01*
X163912701Y-125501438D01*
X164078188Y-125280373D01*
X164210530Y-125038007D01*
X164307032Y-124779274D01*
X164365731Y-124509441D01*
X164385431Y-124234001D01*
X177514569Y-124234001D01*
X177534269Y-124509442D01*
X177534270Y-124509449D01*
X177592966Y-124779267D01*
X177592968Y-124779274D01*
X177652884Y-124939917D01*
X177689470Y-125038008D01*
X177689472Y-125038012D01*
X177821808Y-125280367D01*
X177821813Y-125280375D01*
X177987292Y-125501430D01*
X177987308Y-125501448D01*
X178182551Y-125696691D01*
X178182569Y-125696707D01*
X178403624Y-125862186D01*
X178403632Y-125862191D01*
X178645987Y-125994527D01*
X178645991Y-125994529D01*
X178645993Y-125994530D01*
X178904726Y-126091032D01*
X179174559Y-126149731D01*
X179381056Y-126164500D01*
X179518944Y-126164500D01*
X179725441Y-126149731D01*
X179995274Y-126091032D01*
X180254007Y-125994530D01*
X180496373Y-125862188D01*
X180717438Y-125696701D01*
X180912701Y-125501438D01*
X181078188Y-125280373D01*
X181210530Y-125038007D01*
X181307032Y-124779274D01*
X181365731Y-124509441D01*
X181385431Y-124234001D01*
X194514569Y-124234001D01*
X194534269Y-124509442D01*
X194534270Y-124509449D01*
X194592966Y-124779267D01*
X194592968Y-124779274D01*
X194652884Y-124939917D01*
X194689470Y-125038008D01*
X194689472Y-125038012D01*
X194821808Y-125280367D01*
X194821813Y-125280375D01*
X194987292Y-125501430D01*
X194987308Y-125501448D01*
X195182551Y-125696691D01*
X195182569Y-125696707D01*
X195403624Y-125862186D01*
X195403632Y-125862191D01*
X195645987Y-125994527D01*
X195645991Y-125994529D01*
X195645993Y-125994530D01*
X195904726Y-126091032D01*
X196174559Y-126149731D01*
X196381056Y-126164500D01*
X196518944Y-126164500D01*
X196725441Y-126149731D01*
X196995274Y-126091032D01*
X197254007Y-125994530D01*
X197496373Y-125862188D01*
X197717438Y-125696701D01*
X197912701Y-125501438D01*
X198078188Y-125280373D01*
X198210530Y-125038007D01*
X198307032Y-124779274D01*
X198365731Y-124509441D01*
X198385431Y-124234001D01*
X211514569Y-124234001D01*
X211534269Y-124509442D01*
X211534270Y-124509449D01*
X211592966Y-124779267D01*
X211592968Y-124779274D01*
X211652884Y-124939917D01*
X211689470Y-125038008D01*
X211689472Y-125038012D01*
X211821808Y-125280367D01*
X211821813Y-125280375D01*
X211987292Y-125501430D01*
X211987308Y-125501448D01*
X212182551Y-125696691D01*
X212182569Y-125696707D01*
X212403624Y-125862186D01*
X212403632Y-125862191D01*
X212645987Y-125994527D01*
X212645991Y-125994529D01*
X212645993Y-125994530D01*
X212904726Y-126091032D01*
X213174559Y-126149731D01*
X213381056Y-126164500D01*
X213518944Y-126164500D01*
X213725441Y-126149731D01*
X213995274Y-126091032D01*
X214254007Y-125994530D01*
X214496373Y-125862188D01*
X214717438Y-125696701D01*
X214912701Y-125501438D01*
X215078188Y-125280373D01*
X215210530Y-125038007D01*
X215307032Y-124779274D01*
X215365731Y-124509441D01*
X215385431Y-124234001D01*
X228514569Y-124234001D01*
X228534269Y-124509442D01*
X228534270Y-124509449D01*
X228592966Y-124779267D01*
X228592968Y-124779274D01*
X228652884Y-124939917D01*
X228689470Y-125038008D01*
X228689472Y-125038012D01*
X228821808Y-125280367D01*
X228821813Y-125280375D01*
X228987292Y-125501430D01*
X228987308Y-125501448D01*
X229182551Y-125696691D01*
X229182569Y-125696707D01*
X229403624Y-125862186D01*
X229403632Y-125862191D01*
X229645987Y-125994527D01*
X229645991Y-125994529D01*
X229645993Y-125994530D01*
X229904726Y-126091032D01*
X230174559Y-126149731D01*
X230381056Y-126164500D01*
X230518944Y-126164500D01*
X230725441Y-126149731D01*
X230995274Y-126091032D01*
X231254007Y-125994530D01*
X231496373Y-125862188D01*
X231717438Y-125696701D01*
X231912701Y-125501438D01*
X232078188Y-125280373D01*
X232210530Y-125038007D01*
X232307032Y-124779274D01*
X232365731Y-124509441D01*
X232385431Y-124234000D01*
X232365731Y-123958559D01*
X232307032Y-123688726D01*
X232210530Y-123429993D01*
X232078188Y-123187627D01*
X232078186Y-123187624D01*
X231912707Y-122966569D01*
X231912691Y-122966551D01*
X231717448Y-122771308D01*
X231717430Y-122771292D01*
X231496375Y-122605813D01*
X231496367Y-122605808D01*
X231254012Y-122473472D01*
X231254008Y-122473470D01*
X231155917Y-122436884D01*
X230995274Y-122376968D01*
X230995270Y-122376967D01*
X230995267Y-122376966D01*
X230725449Y-122318270D01*
X230725442Y-122318269D01*
X230518944Y-122303500D01*
X230381056Y-122303500D01*
X230174557Y-122318269D01*
X230174550Y-122318270D01*
X229904732Y-122376966D01*
X229904727Y-122376967D01*
X229904726Y-122376968D01*
X229842172Y-122400299D01*
X229645991Y-122473470D01*
X229645987Y-122473472D01*
X229403632Y-122605808D01*
X229403624Y-122605813D01*
X229182569Y-122771292D01*
X229182551Y-122771308D01*
X228987308Y-122966551D01*
X228987292Y-122966569D01*
X228821813Y-123187624D01*
X228821808Y-123187632D01*
X228689472Y-123429987D01*
X228689470Y-123429991D01*
X228592966Y-123688732D01*
X228534270Y-123958550D01*
X228534269Y-123958557D01*
X228514569Y-124233998D01*
X228514569Y-124234001D01*
X215385431Y-124234001D01*
X215385431Y-124234000D01*
X215365731Y-123958559D01*
X215307032Y-123688726D01*
X215210530Y-123429993D01*
X215078188Y-123187627D01*
X215078186Y-123187624D01*
X214912707Y-122966569D01*
X214912691Y-122966551D01*
X214717448Y-122771308D01*
X214717430Y-122771292D01*
X214496375Y-122605813D01*
X214496367Y-122605808D01*
X214254012Y-122473472D01*
X214254008Y-122473470D01*
X214155917Y-122436884D01*
X213995274Y-122376968D01*
X213995270Y-122376967D01*
X213995267Y-122376966D01*
X213725449Y-122318270D01*
X213725442Y-122318269D01*
X213518944Y-122303500D01*
X213381056Y-122303500D01*
X213174557Y-122318269D01*
X213174550Y-122318270D01*
X212904732Y-122376966D01*
X212904727Y-122376967D01*
X212904726Y-122376968D01*
X212842172Y-122400299D01*
X212645991Y-122473470D01*
X212645987Y-122473472D01*
X212403632Y-122605808D01*
X212403624Y-122605813D01*
X212182569Y-122771292D01*
X212182551Y-122771308D01*
X211987308Y-122966551D01*
X211987292Y-122966569D01*
X211821813Y-123187624D01*
X211821808Y-123187632D01*
X211689472Y-123429987D01*
X211689470Y-123429991D01*
X211592966Y-123688732D01*
X211534270Y-123958550D01*
X211534269Y-123958557D01*
X211514569Y-124233998D01*
X211514569Y-124234001D01*
X198385431Y-124234001D01*
X198385431Y-124234000D01*
X198365731Y-123958559D01*
X198307032Y-123688726D01*
X198210530Y-123429993D01*
X198078188Y-123187627D01*
X198078186Y-123187624D01*
X197912707Y-122966569D01*
X197912691Y-122966551D01*
X197717448Y-122771308D01*
X197717430Y-122771292D01*
X197496375Y-122605813D01*
X197496367Y-122605808D01*
X197254012Y-122473472D01*
X197254008Y-122473470D01*
X197155917Y-122436884D01*
X196995274Y-122376968D01*
X196995270Y-122376967D01*
X196995267Y-122376966D01*
X196725449Y-122318270D01*
X196725442Y-122318269D01*
X196518944Y-122303500D01*
X196381056Y-122303500D01*
X196174557Y-122318269D01*
X196174550Y-122318270D01*
X195904732Y-122376966D01*
X195904727Y-122376967D01*
X195904726Y-122376968D01*
X195842172Y-122400299D01*
X195645991Y-122473470D01*
X195645987Y-122473472D01*
X195403632Y-122605808D01*
X195403624Y-122605813D01*
X195182569Y-122771292D01*
X195182551Y-122771308D01*
X194987308Y-122966551D01*
X194987292Y-122966569D01*
X194821813Y-123187624D01*
X194821808Y-123187632D01*
X194689472Y-123429987D01*
X194689470Y-123429991D01*
X194592966Y-123688732D01*
X194534270Y-123958550D01*
X194534269Y-123958557D01*
X194514569Y-124233998D01*
X194514569Y-124234001D01*
X181385431Y-124234001D01*
X181385431Y-124234000D01*
X181365731Y-123958559D01*
X181307032Y-123688726D01*
X181210530Y-123429993D01*
X181078188Y-123187627D01*
X181078186Y-123187624D01*
X180912707Y-122966569D01*
X180912691Y-122966551D01*
X180717448Y-122771308D01*
X180717430Y-122771292D01*
X180496375Y-122605813D01*
X180496367Y-122605808D01*
X180254012Y-122473472D01*
X180254008Y-122473470D01*
X180155917Y-122436884D01*
X179995274Y-122376968D01*
X179995270Y-122376967D01*
X179995267Y-122376966D01*
X179725449Y-122318270D01*
X179725442Y-122318269D01*
X179518944Y-122303500D01*
X179381056Y-122303500D01*
X179174557Y-122318269D01*
X179174550Y-122318270D01*
X178904732Y-122376966D01*
X178904727Y-122376967D01*
X178904726Y-122376968D01*
X178842172Y-122400299D01*
X178645991Y-122473470D01*
X178645987Y-122473472D01*
X178403632Y-122605808D01*
X178403624Y-122605813D01*
X178182569Y-122771292D01*
X178182551Y-122771308D01*
X177987308Y-122966551D01*
X177987292Y-122966569D01*
X177821813Y-123187624D01*
X177821808Y-123187632D01*
X177689472Y-123429987D01*
X177689470Y-123429991D01*
X177592966Y-123688732D01*
X177534270Y-123958550D01*
X177534269Y-123958557D01*
X177514569Y-124233998D01*
X177514569Y-124234001D01*
X164385431Y-124234001D01*
X164385431Y-124234000D01*
X164365731Y-123958559D01*
X164307032Y-123688726D01*
X164210530Y-123429993D01*
X164078188Y-123187627D01*
X164078186Y-123187624D01*
X163912707Y-122966569D01*
X163912691Y-122966551D01*
X163717448Y-122771308D01*
X163717430Y-122771292D01*
X163496375Y-122605813D01*
X163496367Y-122605808D01*
X163254012Y-122473472D01*
X163254008Y-122473470D01*
X163155917Y-122436884D01*
X162995274Y-122376968D01*
X162995270Y-122376967D01*
X162995267Y-122376966D01*
X162725449Y-122318270D01*
X162725442Y-122318269D01*
X162518944Y-122303500D01*
X162381056Y-122303500D01*
X162174557Y-122318269D01*
X162174550Y-122318270D01*
X161904732Y-122376966D01*
X161904727Y-122376967D01*
X161904726Y-122376968D01*
X161842172Y-122400299D01*
X161645991Y-122473470D01*
X161645987Y-122473472D01*
X161403632Y-122605808D01*
X161403624Y-122605813D01*
X161182569Y-122771292D01*
X161182551Y-122771308D01*
X160987308Y-122966551D01*
X160987292Y-122966569D01*
X160821813Y-123187624D01*
X160821808Y-123187632D01*
X160689472Y-123429987D01*
X160689470Y-123429991D01*
X160592966Y-123688732D01*
X160534270Y-123958550D01*
X160534269Y-123958557D01*
X160514569Y-124233998D01*
X160514569Y-124234001D01*
X147385431Y-124234001D01*
X147385431Y-124234000D01*
X147365731Y-123958559D01*
X147307032Y-123688726D01*
X147210530Y-123429993D01*
X147078188Y-123187627D01*
X147078186Y-123187624D01*
X146912707Y-122966569D01*
X146912691Y-122966551D01*
X146717448Y-122771308D01*
X146717430Y-122771292D01*
X146496375Y-122605813D01*
X146496367Y-122605808D01*
X146254012Y-122473472D01*
X146254008Y-122473470D01*
X146155917Y-122436884D01*
X145995274Y-122376968D01*
X145995270Y-122376967D01*
X145995267Y-122376966D01*
X145725449Y-122318270D01*
X145725442Y-122318269D01*
X145518944Y-122303500D01*
X145381056Y-122303500D01*
X145174557Y-122318269D01*
X145174550Y-122318270D01*
X144904732Y-122376966D01*
X144904727Y-122376967D01*
X144904726Y-122376968D01*
X144842172Y-122400299D01*
X144645991Y-122473470D01*
X144645987Y-122473472D01*
X144403632Y-122605808D01*
X144403624Y-122605813D01*
X144182569Y-122771292D01*
X144182551Y-122771308D01*
X143987308Y-122966551D01*
X143987292Y-122966569D01*
X143821813Y-123187624D01*
X143821808Y-123187632D01*
X143689472Y-123429987D01*
X143689470Y-123429991D01*
X143592966Y-123688732D01*
X143534270Y-123958550D01*
X143534269Y-123958557D01*
X143514569Y-124233998D01*
X143514569Y-124234001D01*
X130385431Y-124234001D01*
X130385431Y-124234000D01*
X130365731Y-123958559D01*
X130307032Y-123688726D01*
X130210530Y-123429993D01*
X130078188Y-123187627D01*
X130078186Y-123187624D01*
X129912707Y-122966569D01*
X129912691Y-122966551D01*
X129717448Y-122771308D01*
X129717430Y-122771292D01*
X129496375Y-122605813D01*
X129496367Y-122605808D01*
X129254012Y-122473472D01*
X129254008Y-122473470D01*
X129155917Y-122436884D01*
X128995274Y-122376968D01*
X128995270Y-122376967D01*
X128995267Y-122376966D01*
X128725449Y-122318270D01*
X128725442Y-122318269D01*
X128518944Y-122303500D01*
X128381056Y-122303500D01*
X128174557Y-122318269D01*
X128174550Y-122318270D01*
X127904732Y-122376966D01*
X127904727Y-122376967D01*
X127904726Y-122376968D01*
X127842172Y-122400299D01*
X127645991Y-122473470D01*
X127645987Y-122473472D01*
X127403632Y-122605808D01*
X127403624Y-122605813D01*
X127182569Y-122771292D01*
X127182551Y-122771308D01*
X126987308Y-122966551D01*
X126987292Y-122966569D01*
X126821813Y-123187624D01*
X126821808Y-123187632D01*
X126689472Y-123429987D01*
X126689470Y-123429991D01*
X126592966Y-123688732D01*
X126534270Y-123958550D01*
X126534269Y-123958557D01*
X126514569Y-124233998D01*
X126514569Y-124234001D01*
X113385431Y-124234001D01*
X113385431Y-124234000D01*
X113365731Y-123958559D01*
X113307032Y-123688726D01*
X113210530Y-123429993D01*
X113078188Y-123187627D01*
X113078186Y-123187624D01*
X112912707Y-122966569D01*
X112912691Y-122966551D01*
X112717448Y-122771308D01*
X112717430Y-122771292D01*
X112496375Y-122605813D01*
X112496367Y-122605808D01*
X112254012Y-122473472D01*
X112254008Y-122473470D01*
X112155917Y-122436884D01*
X111995274Y-122376968D01*
X111995270Y-122376967D01*
X111995267Y-122376966D01*
X111725449Y-122318270D01*
X111725442Y-122318269D01*
X111518944Y-122303500D01*
X111381056Y-122303500D01*
X111174557Y-122318269D01*
X111174550Y-122318270D01*
X110904732Y-122376966D01*
X110904727Y-122376967D01*
X110904726Y-122376968D01*
X110842172Y-122400299D01*
X110645991Y-122473470D01*
X110645987Y-122473472D01*
X110403632Y-122605808D01*
X110403624Y-122605813D01*
X110182569Y-122771292D01*
X110182551Y-122771308D01*
X109987308Y-122966551D01*
X109987292Y-122966569D01*
X109821813Y-123187624D01*
X109821808Y-123187632D01*
X109689472Y-123429987D01*
X109689470Y-123429991D01*
X109592966Y-123688732D01*
X109534270Y-123958550D01*
X109534269Y-123958557D01*
X109514569Y-124233998D01*
X109514569Y-124234001D01*
X100400500Y-124234001D01*
X100400500Y-116202112D01*
X167415742Y-116202112D01*
X167445768Y-116577258D01*
X167515500Y-116947077D01*
X167624143Y-117307383D01*
X167770473Y-117654108D01*
X167952824Y-117983307D01*
X168169127Y-118291251D01*
X168169133Y-118291258D01*
X168169138Y-118291265D01*
X168416959Y-118574484D01*
X168693481Y-118829757D01*
X168995569Y-119054191D01*
X169319802Y-119245243D01*
X169662506Y-119400749D01*
X170019798Y-119518947D01*
X170387629Y-119598498D01*
X170761832Y-119638500D01*
X171044019Y-119638500D01*
X171044021Y-119638500D01*
X171127347Y-119634058D01*
X171325788Y-119623483D01*
X171325792Y-119623482D01*
X171325802Y-119623482D01*
X171697346Y-119563620D01*
X172060422Y-119464606D01*
X172410916Y-119327559D01*
X172744858Y-119154034D01*
X173058463Y-118945996D01*
X173348179Y-118705802D01*
X173610722Y-118436174D01*
X173843118Y-118140167D01*
X174042735Y-117821135D01*
X174207309Y-117482692D01*
X174334976Y-117128674D01*
X174424291Y-116763090D01*
X174474240Y-116390085D01*
X174484258Y-116013883D01*
X174454232Y-115638747D01*
X174384501Y-115268929D01*
X174275856Y-114908617D01*
X174129528Y-114561895D01*
X174037006Y-114394865D01*
X173947175Y-114232692D01*
X173730872Y-113924748D01*
X173730867Y-113924742D01*
X173730862Y-113924735D01*
X173483041Y-113641516D01*
X173206519Y-113386243D01*
X173206517Y-113386241D01*
X172904435Y-113161812D01*
X172904431Y-113161809D01*
X172580198Y-112970757D01*
X172237494Y-112815251D01*
X172237491Y-112815250D01*
X172237489Y-112815249D01*
X171880215Y-112697057D01*
X171880210Y-112697055D01*
X171880202Y-112697053D01*
X171512371Y-112617502D01*
X171512369Y-112617501D01*
X171512367Y-112617501D01*
X171138168Y-112577500D01*
X170855979Y-112577500D01*
X170834735Y-112578632D01*
X170574211Y-112592516D01*
X170574185Y-112592519D01*
X170202656Y-112652379D01*
X170202653Y-112652380D01*
X169839577Y-112751394D01*
X169676265Y-112815251D01*
X169489084Y-112888441D01*
X169489082Y-112888441D01*
X169489082Y-112888442D01*
X169155141Y-113061966D01*
X168841542Y-113269999D01*
X168841533Y-113270006D01*
X168551831Y-113510188D01*
X168551817Y-113510201D01*
X168289274Y-113779829D01*
X168056889Y-114075822D01*
X168056884Y-114075829D01*
X167857267Y-114394862D01*
X167857259Y-114394876D01*
X167692688Y-114733313D01*
X167565022Y-115087331D01*
X167475709Y-115452906D01*
X167475708Y-115452914D01*
X167425761Y-115825908D01*
X167425759Y-115825924D01*
X167415742Y-116202112D01*
X100400500Y-116202112D01*
X100400500Y-103143679D01*
X104999500Y-103143679D01*
X104999985Y-103147210D01*
X105003059Y-103169574D01*
X105003553Y-103174826D01*
X105005630Y-103215304D01*
X105005631Y-103215321D01*
X105023949Y-103321557D01*
X105038629Y-103428359D01*
X105047482Y-103459961D01*
X105048879Y-103466153D01*
X105054453Y-103498480D01*
X105054455Y-103498486D01*
X105087070Y-103601248D01*
X105116156Y-103705058D01*
X105116157Y-103705060D01*
X105129226Y-103735149D01*
X105131454Y-103741094D01*
X105141383Y-103772375D01*
X105141385Y-103772381D01*
X105187685Y-103869736D01*
X105230636Y-103968619D01*
X105230636Y-103968620D01*
X105247691Y-103996667D01*
X105250706Y-104002251D01*
X105264799Y-104031882D01*
X105323927Y-104122030D01*
X105379945Y-104214147D01*
X105392771Y-104229912D01*
X105400653Y-104239601D01*
X105404395Y-104244714D01*
X105422400Y-104272164D01*
X105422402Y-104272167D01*
X105493250Y-104353418D01*
X105561289Y-104437050D01*
X105561291Y-104437052D01*
X105561292Y-104437053D01*
X105585270Y-104459447D01*
X105585278Y-104459454D01*
X105589681Y-104464010D01*
X105611252Y-104488748D01*
X105692497Y-104559590D01*
X105771296Y-104633184D01*
X105771298Y-104633185D01*
X105771302Y-104633189D01*
X105798108Y-104652110D01*
X105803104Y-104656035D01*
X105803109Y-104656039D01*
X105827836Y-104677600D01*
X105917990Y-104736732D01*
X106006064Y-104798901D01*
X106006068Y-104798903D01*
X106035195Y-104813995D01*
X106040675Y-104817200D01*
X106068118Y-104835201D01*
X106165488Y-104881508D01*
X106261203Y-104931104D01*
X106283877Y-104939162D01*
X106292118Y-104942091D01*
X106297986Y-104944522D01*
X106308247Y-104949401D01*
X106327622Y-104958616D01*
X106430384Y-104991231D01*
X106531968Y-105027334D01*
X106531969Y-105027334D01*
X106531971Y-105027335D01*
X106540342Y-105029074D01*
X106564109Y-105034013D01*
X106570221Y-105035613D01*
X106601514Y-105045545D01*
X106707758Y-105063863D01*
X106813314Y-105085798D01*
X106846046Y-105088037D01*
X106852347Y-105088793D01*
X106884692Y-105094370D01*
X106934513Y-105096924D01*
X107004257Y-105100500D01*
X107004264Y-105100500D01*
X107995743Y-105100500D01*
X108115302Y-105094371D01*
X108147643Y-105088795D01*
X108153952Y-105088037D01*
X108163878Y-105087357D01*
X108186686Y-105085798D01*
X108292241Y-105063863D01*
X108398486Y-105045545D01*
X108429765Y-105035617D01*
X108435891Y-105034012D01*
X108468032Y-105027334D01*
X108569615Y-104991231D01*
X108672378Y-104958616D01*
X108702028Y-104944514D01*
X108707865Y-104942096D01*
X108738797Y-104931104D01*
X108834511Y-104881508D01*
X108931882Y-104835201D01*
X108959324Y-104817200D01*
X108964793Y-104814000D01*
X108993936Y-104798901D01*
X109082009Y-104736732D01*
X109172164Y-104677600D01*
X109196898Y-104656031D01*
X109201866Y-104652127D01*
X109228698Y-104633189D01*
X109307502Y-104559590D01*
X109388748Y-104488748D01*
X109410317Y-104464010D01*
X109414718Y-104459456D01*
X109438708Y-104437053D01*
X109506749Y-104353418D01*
X109577600Y-104272164D01*
X109595601Y-104244717D01*
X109599335Y-104239613D01*
X109620055Y-104214147D01*
X109676072Y-104122030D01*
X109735201Y-104031882D01*
X109749297Y-104002241D01*
X109752308Y-103996667D01*
X109762640Y-103979675D01*
X109769361Y-103968626D01*
X109769362Y-103968623D01*
X109812314Y-103869736D01*
X109858611Y-103772388D01*
X109858616Y-103772378D01*
X109868548Y-103741082D01*
X109870765Y-103735165D01*
X109883844Y-103705058D01*
X109912929Y-103601248D01*
X109945545Y-103498486D01*
X109951124Y-103466122D01*
X109952516Y-103459961D01*
X109961371Y-103428358D01*
X109976050Y-103321558D01*
X109994370Y-103215308D01*
X109996445Y-103174825D01*
X109996940Y-103169574D01*
X110000499Y-103143682D01*
X110000500Y-103143681D01*
X110000500Y-103143679D01*
X229579500Y-103143679D01*
X229579985Y-103147210D01*
X229583059Y-103169574D01*
X229583553Y-103174826D01*
X229585630Y-103215304D01*
X229585631Y-103215321D01*
X229603949Y-103321557D01*
X229618629Y-103428359D01*
X229627482Y-103459961D01*
X229628879Y-103466153D01*
X229634453Y-103498480D01*
X229634455Y-103498486D01*
X229667070Y-103601248D01*
X229696156Y-103705058D01*
X229696157Y-103705060D01*
X229709226Y-103735149D01*
X229711454Y-103741094D01*
X229721383Y-103772375D01*
X229721385Y-103772381D01*
X229767685Y-103869736D01*
X229810636Y-103968619D01*
X229810636Y-103968620D01*
X229827691Y-103996667D01*
X229830706Y-104002251D01*
X229844799Y-104031882D01*
X229903927Y-104122030D01*
X229959945Y-104214147D01*
X229972771Y-104229912D01*
X229980653Y-104239601D01*
X229984395Y-104244714D01*
X230002400Y-104272164D01*
X230002402Y-104272167D01*
X230073250Y-104353418D01*
X230141289Y-104437050D01*
X230141291Y-104437052D01*
X230141292Y-104437053D01*
X230165270Y-104459447D01*
X230165278Y-104459454D01*
X230169681Y-104464010D01*
X230191252Y-104488748D01*
X230272497Y-104559590D01*
X230351296Y-104633184D01*
X230351298Y-104633185D01*
X230351302Y-104633189D01*
X230378108Y-104652110D01*
X230383104Y-104656035D01*
X230383109Y-104656039D01*
X230407836Y-104677600D01*
X230497990Y-104736732D01*
X230586064Y-104798901D01*
X230586068Y-104798903D01*
X230615195Y-104813995D01*
X230620675Y-104817200D01*
X230648118Y-104835201D01*
X230745488Y-104881508D01*
X230841203Y-104931104D01*
X230863877Y-104939162D01*
X230872118Y-104942091D01*
X230877986Y-104944522D01*
X230888247Y-104949401D01*
X230907622Y-104958616D01*
X231010384Y-104991231D01*
X231111968Y-105027334D01*
X231111969Y-105027334D01*
X231111971Y-105027335D01*
X231120342Y-105029074D01*
X231144109Y-105034013D01*
X231150221Y-105035613D01*
X231181514Y-105045545D01*
X231287758Y-105063863D01*
X231393314Y-105085798D01*
X231426046Y-105088037D01*
X231432347Y-105088793D01*
X231464692Y-105094370D01*
X231514513Y-105096924D01*
X231584257Y-105100500D01*
X231584264Y-105100500D01*
X232575743Y-105100500D01*
X232695302Y-105094371D01*
X232727643Y-105088795D01*
X232733952Y-105088037D01*
X232743878Y-105087357D01*
X232766686Y-105085798D01*
X232872241Y-105063863D01*
X232978486Y-105045545D01*
X233009765Y-105035617D01*
X233015891Y-105034012D01*
X233048032Y-105027334D01*
X233149615Y-104991231D01*
X233252378Y-104958616D01*
X233282028Y-104944514D01*
X233287865Y-104942096D01*
X233318797Y-104931104D01*
X233414511Y-104881508D01*
X233511882Y-104835201D01*
X233539324Y-104817200D01*
X233544793Y-104814000D01*
X233573936Y-104798901D01*
X233662009Y-104736732D01*
X233752164Y-104677600D01*
X233776898Y-104656031D01*
X233781866Y-104652127D01*
X233808698Y-104633189D01*
X233887502Y-104559590D01*
X233968748Y-104488748D01*
X233990317Y-104464010D01*
X233994718Y-104459456D01*
X234018708Y-104437053D01*
X234086749Y-104353418D01*
X234157600Y-104272164D01*
X234175601Y-104244717D01*
X234179335Y-104239613D01*
X234200055Y-104214147D01*
X234256072Y-104122030D01*
X234315201Y-104031882D01*
X234329297Y-104002241D01*
X234332308Y-103996667D01*
X234342640Y-103979675D01*
X234349361Y-103968626D01*
X234349362Y-103968623D01*
X234392314Y-103869736D01*
X234438611Y-103772388D01*
X234438616Y-103772378D01*
X234448548Y-103741082D01*
X234450765Y-103735165D01*
X234463844Y-103705058D01*
X234492929Y-103601248D01*
X234525545Y-103498486D01*
X234531124Y-103466122D01*
X234532516Y-103459961D01*
X234541371Y-103428358D01*
X234556050Y-103321558D01*
X234574370Y-103215308D01*
X234576445Y-103174825D01*
X234576940Y-103169574D01*
X234580499Y-103143682D01*
X234580500Y-103143681D01*
X234580500Y-102856324D01*
X234576940Y-102830424D01*
X234576445Y-102825173D01*
X234574370Y-102784692D01*
X234556050Y-102678441D01*
X234541371Y-102571642D01*
X234532517Y-102540040D01*
X234531120Y-102533851D01*
X234525545Y-102501514D01*
X234492929Y-102398751D01*
X234463844Y-102294942D01*
X234450765Y-102264832D01*
X234448543Y-102258903D01*
X234438616Y-102227622D01*
X234392314Y-102130263D01*
X234349361Y-102031375D01*
X234332306Y-102003330D01*
X234329293Y-101997749D01*
X234315204Y-101968124D01*
X234315201Y-101968118D01*
X234256072Y-101877969D01*
X234200055Y-101785853D01*
X234179344Y-101760396D01*
X234175595Y-101755272D01*
X234157602Y-101727838D01*
X234086749Y-101646581D01*
X234018712Y-101562952D01*
X234018708Y-101562947D01*
X233994717Y-101540540D01*
X233990317Y-101535989D01*
X233968748Y-101511252D01*
X233887502Y-101440409D01*
X233808701Y-101366813D01*
X233804392Y-101363771D01*
X233781884Y-101347883D01*
X233776900Y-101343969D01*
X233752164Y-101322400D01*
X233662009Y-101263267D01*
X233573936Y-101201099D01*
X233544797Y-101186000D01*
X233539329Y-101182802D01*
X233511882Y-101164799D01*
X233511878Y-101164797D01*
X233511873Y-101164794D01*
X233414511Y-101118491D01*
X233318796Y-101068895D01*
X233318792Y-101068894D01*
X233287874Y-101057905D01*
X233282006Y-101055474D01*
X233252385Y-101041386D01*
X233252380Y-101041385D01*
X233252378Y-101041384D01*
X233149615Y-101008768D01*
X233048044Y-100972670D01*
X233048038Y-100972668D01*
X233048032Y-100972666D01*
X233015903Y-100965988D01*
X233009762Y-100964380D01*
X232978497Y-100954458D01*
X232978489Y-100954456D01*
X232978486Y-100954455D01*
X232978482Y-100954454D01*
X232978481Y-100954454D01*
X232872241Y-100936136D01*
X232766686Y-100914202D01*
X232766681Y-100914201D01*
X232766682Y-100914201D01*
X232733943Y-100911961D01*
X232727647Y-100911205D01*
X232714199Y-100908886D01*
X232695312Y-100905630D01*
X232695297Y-100905628D01*
X232575743Y-100899500D01*
X232575736Y-100899500D01*
X231584264Y-100899500D01*
X231584257Y-100899500D01*
X231464706Y-100905628D01*
X231464678Y-100905631D01*
X231432348Y-100911204D01*
X231426048Y-100911961D01*
X231393319Y-100914201D01*
X231287758Y-100936136D01*
X231181516Y-100954454D01*
X231181502Y-100954458D01*
X231150241Y-100964379D01*
X231144100Y-100965987D01*
X231111980Y-100972662D01*
X231111954Y-100972670D01*
X231010384Y-101008768D01*
X230907618Y-101041385D01*
X230877989Y-101055476D01*
X230872124Y-101057906D01*
X230841200Y-101068897D01*
X230745488Y-101118491D01*
X230648120Y-101164797D01*
X230648112Y-101164802D01*
X230620676Y-101182798D01*
X230615193Y-101186005D01*
X230586064Y-101201098D01*
X230497990Y-101263267D01*
X230407836Y-101322400D01*
X230407827Y-101322406D01*
X230383102Y-101343965D01*
X230378110Y-101347887D01*
X230351311Y-101366803D01*
X230351294Y-101366817D01*
X230272497Y-101440409D01*
X230191258Y-101511246D01*
X230191256Y-101511247D01*
X230169691Y-101535978D01*
X230165280Y-101540542D01*
X230141293Y-101562944D01*
X230141292Y-101562945D01*
X230073250Y-101646581D01*
X230002398Y-101727837D01*
X230002395Y-101727842D01*
X229984403Y-101755273D01*
X229980654Y-101760396D01*
X229959943Y-101785855D01*
X229959941Y-101785858D01*
X229903927Y-101877969D01*
X229844800Y-101968115D01*
X229830706Y-101997747D01*
X229827691Y-102003330D01*
X229810640Y-102031372D01*
X229767685Y-102130263D01*
X229721384Y-102227620D01*
X229721383Y-102227622D01*
X229711454Y-102258904D01*
X229709227Y-102264846D01*
X229696156Y-102294942D01*
X229667070Y-102398751D01*
X229634455Y-102501513D01*
X229628879Y-102533847D01*
X229627482Y-102540040D01*
X229618629Y-102571642D01*
X229618629Y-102571643D01*
X229603949Y-102678442D01*
X229585632Y-102784675D01*
X229585630Y-102784695D01*
X229583555Y-102825151D01*
X229583059Y-102830415D01*
X229579500Y-102856316D01*
X229579500Y-103143679D01*
X110000500Y-103143679D01*
X110000500Y-102856324D01*
X109996940Y-102830424D01*
X109996445Y-102825173D01*
X109994370Y-102784692D01*
X109976050Y-102678441D01*
X109961371Y-102571642D01*
X109952517Y-102540040D01*
X109951120Y-102533851D01*
X109945545Y-102501514D01*
X109912929Y-102398751D01*
X109883844Y-102294942D01*
X109870765Y-102264832D01*
X109868543Y-102258903D01*
X109858616Y-102227622D01*
X109812314Y-102130263D01*
X109769361Y-102031375D01*
X109752306Y-102003330D01*
X109749293Y-101997749D01*
X109735204Y-101968124D01*
X109735201Y-101968118D01*
X109676072Y-101877969D01*
X109620055Y-101785853D01*
X109599344Y-101760396D01*
X109595595Y-101755272D01*
X109577602Y-101727838D01*
X109506749Y-101646581D01*
X109438712Y-101562952D01*
X109438708Y-101562947D01*
X109414717Y-101540540D01*
X109410317Y-101535989D01*
X109388748Y-101511252D01*
X109307502Y-101440409D01*
X109228701Y-101366813D01*
X109224392Y-101363771D01*
X109201884Y-101347883D01*
X109196900Y-101343969D01*
X109172164Y-101322400D01*
X109082009Y-101263267D01*
X108993936Y-101201099D01*
X108964797Y-101186000D01*
X108959329Y-101182802D01*
X108931882Y-101164799D01*
X108931878Y-101164797D01*
X108931873Y-101164794D01*
X108834511Y-101118491D01*
X108738796Y-101068895D01*
X108738792Y-101068894D01*
X108707874Y-101057905D01*
X108702006Y-101055474D01*
X108672385Y-101041386D01*
X108672380Y-101041385D01*
X108672378Y-101041384D01*
X108569615Y-101008768D01*
X108468044Y-100972670D01*
X108468038Y-100972668D01*
X108468032Y-100972666D01*
X108435903Y-100965988D01*
X108429762Y-100964380D01*
X108398497Y-100954458D01*
X108398489Y-100954456D01*
X108398486Y-100954455D01*
X108398482Y-100954454D01*
X108398481Y-100954454D01*
X108292241Y-100936136D01*
X108186686Y-100914202D01*
X108186681Y-100914201D01*
X108186682Y-100914201D01*
X108153943Y-100911961D01*
X108147647Y-100911205D01*
X108134199Y-100908886D01*
X108115312Y-100905630D01*
X108115297Y-100905628D01*
X107995743Y-100899500D01*
X107995736Y-100899500D01*
X107004264Y-100899500D01*
X107004257Y-100899500D01*
X106884706Y-100905628D01*
X106884678Y-100905631D01*
X106852348Y-100911204D01*
X106846048Y-100911961D01*
X106813319Y-100914201D01*
X106707758Y-100936136D01*
X106601516Y-100954454D01*
X106601502Y-100954458D01*
X106570241Y-100964379D01*
X106564100Y-100965987D01*
X106531980Y-100972662D01*
X106531954Y-100972670D01*
X106430384Y-101008768D01*
X106327618Y-101041385D01*
X106297989Y-101055476D01*
X106292124Y-101057906D01*
X106261200Y-101068897D01*
X106165488Y-101118491D01*
X106068120Y-101164797D01*
X106068112Y-101164802D01*
X106040676Y-101182798D01*
X106035193Y-101186005D01*
X106006064Y-101201098D01*
X105917990Y-101263267D01*
X105827836Y-101322400D01*
X105827827Y-101322406D01*
X105803102Y-101343965D01*
X105798110Y-101347887D01*
X105771311Y-101366803D01*
X105771294Y-101366817D01*
X105692497Y-101440409D01*
X105611258Y-101511246D01*
X105611256Y-101511247D01*
X105589691Y-101535978D01*
X105585280Y-101540542D01*
X105561293Y-101562944D01*
X105561292Y-101562945D01*
X105493250Y-101646581D01*
X105422398Y-101727837D01*
X105422395Y-101727842D01*
X105404403Y-101755273D01*
X105400654Y-101760396D01*
X105379943Y-101785855D01*
X105379941Y-101785858D01*
X105323927Y-101877969D01*
X105264800Y-101968115D01*
X105250706Y-101997747D01*
X105247691Y-102003330D01*
X105230640Y-102031372D01*
X105187685Y-102130263D01*
X105141384Y-102227620D01*
X105141383Y-102227622D01*
X105131454Y-102258904D01*
X105129227Y-102264846D01*
X105116156Y-102294942D01*
X105087070Y-102398751D01*
X105054455Y-102501513D01*
X105048879Y-102533847D01*
X105047482Y-102540040D01*
X105038629Y-102571642D01*
X105038629Y-102571643D01*
X105023949Y-102678442D01*
X105005632Y-102784675D01*
X105005630Y-102784695D01*
X105003555Y-102825151D01*
X105003059Y-102830415D01*
X104999500Y-102856316D01*
X104999500Y-103143679D01*
X100400500Y-103143679D01*
X100400500Y-100524500D01*
X100420185Y-100457461D01*
X100472989Y-100411706D01*
X100524500Y-100400500D01*
X241375500Y-100400500D01*
X241442539Y-100420185D01*
G37*
%TD.AperFunction*%
M02*
