%TF.GenerationSoftware,KiCad,Pcbnew,9.0.8*%
%TF.CreationDate,2026-04-07T13:04:34-04:00*%
%TF.ProjectId,lichen-stereo-latencies-board,6c696368-656e-42d7-9374-6572656f2d6c,rev?*%
%TF.SameCoordinates,Original*%
%TF.FileFunction,Legend,Bot*%
%TF.FilePolarity,Positive*%
%FSLAX46Y46*%
G04 Gerber Fmt 4.6, Leading zero omitted, Abs format (unit mm)*
G04 Created by KiCad (PCBNEW 9.0.8) date 2026-04-07 13:04:34*
%MOMM*%
%LPD*%
G01*
G04 APERTURE LIST*
G04 Aperture macros list*
%AMRoundRect*
0 Rectangle with rounded corners*
0 $1 Rounding radius*
0 $2 $3 $4 $5 $6 $7 $8 $9 X,Y pos of 4 corners*
0 Add a 4 corners polygon primitive as box body*
4,1,4,$2,$3,$4,$5,$6,$7,$8,$9,$2,$3,0*
0 Add four circle primitives for the rounded corners*
1,1,$1+$1,$2,$3*
1,1,$1+$1,$4,$5*
1,1,$1+$1,$6,$7*
1,1,$1+$1,$8,$9*
0 Add four rect primitives between the rounded corners*
20,1,$1+$1,$2,$3,$4,$5,0*
20,1,$1+$1,$4,$5,$6,$7,0*
20,1,$1+$1,$6,$7,$8,$9,0*
20,1,$1+$1,$8,$9,$2,$3,0*%
G04 Aperture macros list end*
%ADD10C,0.150000*%
%ADD11C,0.200000*%
%ADD12C,0.120000*%
%ADD13C,0.325000*%
%ADD14C,0.127000*%
%ADD15C,0.100000*%
%ADD16R,1.700000X1.700000*%
%ADD17C,1.700000*%
%ADD18C,2.200000*%
%ADD19RoundRect,0.249630X0.535370X-0.895370X0.535370X0.895370X-0.535370X0.895370X-0.535370X-0.895370X0*%
%ADD20O,1.570000X2.290000*%
%ADD21C,2.032000*%
%ADD22C,1.600000*%
%ADD23RoundRect,0.249630X-0.535370X0.895370X-0.535370X-0.895370X0.535370X-0.895370X0.535370X0.895370X0*%
G04 APERTURE END LIST*
D10*
X115434819Y-189728095D02*
X116244342Y-189728095D01*
X116244342Y-189728095D02*
X116339580Y-189775714D01*
X116339580Y-189775714D02*
X116387200Y-189823333D01*
X116387200Y-189823333D02*
X116434819Y-189918571D01*
X116434819Y-189918571D02*
X116434819Y-190109047D01*
X116434819Y-190109047D02*
X116387200Y-190204285D01*
X116387200Y-190204285D02*
X116339580Y-190251904D01*
X116339580Y-190251904D02*
X116244342Y-190299523D01*
X116244342Y-190299523D02*
X115434819Y-190299523D01*
X115768152Y-191204285D02*
X116434819Y-191204285D01*
X115387200Y-190966190D02*
X116101485Y-190728095D01*
X116101485Y-190728095D02*
X116101485Y-191347142D01*
D11*
X114058733Y-193330951D02*
X114058733Y-192569047D01*
X113677780Y-192949999D02*
X114439685Y-192949999D01*
X117858733Y-193340951D02*
X117858733Y-192579047D01*
X102386266Y-211988095D02*
X102386266Y-212750000D01*
X102767219Y-213749999D02*
X102767219Y-213178571D01*
X102767219Y-213464285D02*
X101767219Y-213464285D01*
X101767219Y-213464285D02*
X101910076Y-213369047D01*
X101910076Y-213369047D02*
X102005314Y-213273809D01*
X102005314Y-213273809D02*
X102052933Y-213178571D01*
X101862457Y-214130952D02*
X101814838Y-214178571D01*
X101814838Y-214178571D02*
X101767219Y-214273809D01*
X101767219Y-214273809D02*
X101767219Y-214511904D01*
X101767219Y-214511904D02*
X101814838Y-214607142D01*
X101814838Y-214607142D02*
X101862457Y-214654761D01*
X101862457Y-214654761D02*
X101957695Y-214702380D01*
X101957695Y-214702380D02*
X102052933Y-214702380D01*
X102052933Y-214702380D02*
X102195790Y-214654761D01*
X102195790Y-214654761D02*
X102767219Y-214083333D01*
X102767219Y-214083333D02*
X102767219Y-214702380D01*
X101767219Y-214988095D02*
X102767219Y-215321428D01*
X102767219Y-215321428D02*
X101767219Y-215654761D01*
X117756266Y-211988095D02*
X117756266Y-212750000D01*
X118137219Y-212369047D02*
X117375314Y-212369047D01*
X118137219Y-213749999D02*
X118137219Y-213178571D01*
X118137219Y-213464285D02*
X117137219Y-213464285D01*
X117137219Y-213464285D02*
X117280076Y-213369047D01*
X117280076Y-213369047D02*
X117375314Y-213273809D01*
X117375314Y-213273809D02*
X117422933Y-213178571D01*
X117232457Y-214130952D02*
X117184838Y-214178571D01*
X117184838Y-214178571D02*
X117137219Y-214273809D01*
X117137219Y-214273809D02*
X117137219Y-214511904D01*
X117137219Y-214511904D02*
X117184838Y-214607142D01*
X117184838Y-214607142D02*
X117232457Y-214654761D01*
X117232457Y-214654761D02*
X117327695Y-214702380D01*
X117327695Y-214702380D02*
X117422933Y-214702380D01*
X117422933Y-214702380D02*
X117565790Y-214654761D01*
X117565790Y-214654761D02*
X118137219Y-214083333D01*
X118137219Y-214083333D02*
X118137219Y-214702380D01*
X117137219Y-214988095D02*
X118137219Y-215321428D01*
X118137219Y-215321428D02*
X117137219Y-215654761D01*
D10*
X103059580Y-176113333D02*
X103107200Y-176065714D01*
X103107200Y-176065714D02*
X103154819Y-175922857D01*
X103154819Y-175922857D02*
X103154819Y-175827619D01*
X103154819Y-175827619D02*
X103107200Y-175684762D01*
X103107200Y-175684762D02*
X103011961Y-175589524D01*
X103011961Y-175589524D02*
X102916723Y-175541905D01*
X102916723Y-175541905D02*
X102726247Y-175494286D01*
X102726247Y-175494286D02*
X102583390Y-175494286D01*
X102583390Y-175494286D02*
X102392914Y-175541905D01*
X102392914Y-175541905D02*
X102297676Y-175589524D01*
X102297676Y-175589524D02*
X102202438Y-175684762D01*
X102202438Y-175684762D02*
X102154819Y-175827619D01*
X102154819Y-175827619D02*
X102154819Y-175922857D01*
X102154819Y-175922857D02*
X102202438Y-176065714D01*
X102202438Y-176065714D02*
X102250057Y-176113333D01*
X103154819Y-177065714D02*
X103154819Y-176494286D01*
X103154819Y-176780000D02*
X102154819Y-176780000D01*
X102154819Y-176780000D02*
X102297676Y-176684762D01*
X102297676Y-176684762D02*
X102392914Y-176589524D01*
X102392914Y-176589524D02*
X102440533Y-176494286D01*
X103474819Y-189688095D02*
X104284342Y-189688095D01*
X104284342Y-189688095D02*
X104379580Y-189735714D01*
X104379580Y-189735714D02*
X104427200Y-189783333D01*
X104427200Y-189783333D02*
X104474819Y-189878571D01*
X104474819Y-189878571D02*
X104474819Y-190069047D01*
X104474819Y-190069047D02*
X104427200Y-190164285D01*
X104427200Y-190164285D02*
X104379580Y-190211904D01*
X104379580Y-190211904D02*
X104284342Y-190259523D01*
X104284342Y-190259523D02*
X103474819Y-190259523D01*
X103570057Y-190688095D02*
X103522438Y-190735714D01*
X103522438Y-190735714D02*
X103474819Y-190830952D01*
X103474819Y-190830952D02*
X103474819Y-191069047D01*
X103474819Y-191069047D02*
X103522438Y-191164285D01*
X103522438Y-191164285D02*
X103570057Y-191211904D01*
X103570057Y-191211904D02*
X103665295Y-191259523D01*
X103665295Y-191259523D02*
X103760533Y-191259523D01*
X103760533Y-191259523D02*
X103903390Y-191211904D01*
X103903390Y-191211904D02*
X104474819Y-190640476D01*
X104474819Y-190640476D02*
X104474819Y-191259523D01*
D11*
X105898733Y-193300951D02*
X105898733Y-192539047D01*
X102098733Y-193290951D02*
X102098733Y-192529047D01*
X101717780Y-192909999D02*
X102479685Y-192909999D01*
D10*
X107400666Y-121629580D02*
X107448285Y-121677200D01*
X107448285Y-121677200D02*
X107591142Y-121724819D01*
X107591142Y-121724819D02*
X107686380Y-121724819D01*
X107686380Y-121724819D02*
X107829237Y-121677200D01*
X107829237Y-121677200D02*
X107924475Y-121581961D01*
X107924475Y-121581961D02*
X107972094Y-121486723D01*
X107972094Y-121486723D02*
X108019713Y-121296247D01*
X108019713Y-121296247D02*
X108019713Y-121153390D01*
X108019713Y-121153390D02*
X107972094Y-120962914D01*
X107972094Y-120962914D02*
X107924475Y-120867676D01*
X107924475Y-120867676D02*
X107829237Y-120772438D01*
X107829237Y-120772438D02*
X107686380Y-120724819D01*
X107686380Y-120724819D02*
X107591142Y-120724819D01*
X107591142Y-120724819D02*
X107448285Y-120772438D01*
X107448285Y-120772438D02*
X107400666Y-120820057D01*
X107067332Y-120724819D02*
X106448285Y-120724819D01*
X106448285Y-120724819D02*
X106781618Y-121105771D01*
X106781618Y-121105771D02*
X106638761Y-121105771D01*
X106638761Y-121105771D02*
X106543523Y-121153390D01*
X106543523Y-121153390D02*
X106495904Y-121201009D01*
X106495904Y-121201009D02*
X106448285Y-121296247D01*
X106448285Y-121296247D02*
X106448285Y-121534342D01*
X106448285Y-121534342D02*
X106495904Y-121629580D01*
X106495904Y-121629580D02*
X106543523Y-121677200D01*
X106543523Y-121677200D02*
X106638761Y-121724819D01*
X106638761Y-121724819D02*
X106924475Y-121724819D01*
X106924475Y-121724819D02*
X107019713Y-121677200D01*
X107019713Y-121677200D02*
X107067332Y-121629580D01*
X115354819Y-125568095D02*
X116164342Y-125568095D01*
X116164342Y-125568095D02*
X116259580Y-125615714D01*
X116259580Y-125615714D02*
X116307200Y-125663333D01*
X116307200Y-125663333D02*
X116354819Y-125758571D01*
X116354819Y-125758571D02*
X116354819Y-125949047D01*
X116354819Y-125949047D02*
X116307200Y-126044285D01*
X116307200Y-126044285D02*
X116259580Y-126091904D01*
X116259580Y-126091904D02*
X116164342Y-126139523D01*
X116164342Y-126139523D02*
X115354819Y-126139523D01*
X115354819Y-127044285D02*
X115354819Y-126853809D01*
X115354819Y-126853809D02*
X115402438Y-126758571D01*
X115402438Y-126758571D02*
X115450057Y-126710952D01*
X115450057Y-126710952D02*
X115592914Y-126615714D01*
X115592914Y-126615714D02*
X115783390Y-126568095D01*
X115783390Y-126568095D02*
X116164342Y-126568095D01*
X116164342Y-126568095D02*
X116259580Y-126615714D01*
X116259580Y-126615714D02*
X116307200Y-126663333D01*
X116307200Y-126663333D02*
X116354819Y-126758571D01*
X116354819Y-126758571D02*
X116354819Y-126949047D01*
X116354819Y-126949047D02*
X116307200Y-127044285D01*
X116307200Y-127044285D02*
X116259580Y-127091904D01*
X116259580Y-127091904D02*
X116164342Y-127139523D01*
X116164342Y-127139523D02*
X115926247Y-127139523D01*
X115926247Y-127139523D02*
X115831009Y-127091904D01*
X115831009Y-127091904D02*
X115783390Y-127044285D01*
X115783390Y-127044285D02*
X115735771Y-126949047D01*
X115735771Y-126949047D02*
X115735771Y-126758571D01*
X115735771Y-126758571D02*
X115783390Y-126663333D01*
X115783390Y-126663333D02*
X115831009Y-126615714D01*
X115831009Y-126615714D02*
X115926247Y-126568095D01*
D11*
X117778733Y-129180951D02*
X117778733Y-128419047D01*
X113978733Y-129170951D02*
X113978733Y-128409047D01*
X113597780Y-128789999D02*
X114359685Y-128789999D01*
D10*
X107226666Y-144389580D02*
X107274285Y-144437200D01*
X107274285Y-144437200D02*
X107417142Y-144484819D01*
X107417142Y-144484819D02*
X107512380Y-144484819D01*
X107512380Y-144484819D02*
X107655237Y-144437200D01*
X107655237Y-144437200D02*
X107750475Y-144341961D01*
X107750475Y-144341961D02*
X107798094Y-144246723D01*
X107798094Y-144246723D02*
X107845713Y-144056247D01*
X107845713Y-144056247D02*
X107845713Y-143913390D01*
X107845713Y-143913390D02*
X107798094Y-143722914D01*
X107798094Y-143722914D02*
X107750475Y-143627676D01*
X107750475Y-143627676D02*
X107655237Y-143532438D01*
X107655237Y-143532438D02*
X107512380Y-143484819D01*
X107512380Y-143484819D02*
X107417142Y-143484819D01*
X107417142Y-143484819D02*
X107274285Y-143532438D01*
X107274285Y-143532438D02*
X107226666Y-143580057D01*
X106369523Y-143818152D02*
X106369523Y-144484819D01*
X106607618Y-143437200D02*
X106845713Y-144151485D01*
X106845713Y-144151485D02*
X106226666Y-144151485D01*
X110359580Y-190203333D02*
X110407200Y-190155714D01*
X110407200Y-190155714D02*
X110454819Y-190012857D01*
X110454819Y-190012857D02*
X110454819Y-189917619D01*
X110454819Y-189917619D02*
X110407200Y-189774762D01*
X110407200Y-189774762D02*
X110311961Y-189679524D01*
X110311961Y-189679524D02*
X110216723Y-189631905D01*
X110216723Y-189631905D02*
X110026247Y-189584286D01*
X110026247Y-189584286D02*
X109883390Y-189584286D01*
X109883390Y-189584286D02*
X109692914Y-189631905D01*
X109692914Y-189631905D02*
X109597676Y-189679524D01*
X109597676Y-189679524D02*
X109502438Y-189774762D01*
X109502438Y-189774762D02*
X109454819Y-189917619D01*
X109454819Y-189917619D02*
X109454819Y-190012857D01*
X109454819Y-190012857D02*
X109502438Y-190155714D01*
X109502438Y-190155714D02*
X109550057Y-190203333D01*
X109550057Y-190584286D02*
X109502438Y-190631905D01*
X109502438Y-190631905D02*
X109454819Y-190727143D01*
X109454819Y-190727143D02*
X109454819Y-190965238D01*
X109454819Y-190965238D02*
X109502438Y-191060476D01*
X109502438Y-191060476D02*
X109550057Y-191108095D01*
X109550057Y-191108095D02*
X109645295Y-191155714D01*
X109645295Y-191155714D02*
X109740533Y-191155714D01*
X109740533Y-191155714D02*
X109883390Y-191108095D01*
X109883390Y-191108095D02*
X110454819Y-190536667D01*
X110454819Y-190536667D02*
X110454819Y-191155714D01*
X115354819Y-148178095D02*
X116164342Y-148178095D01*
X116164342Y-148178095D02*
X116259580Y-148225714D01*
X116259580Y-148225714D02*
X116307200Y-148273333D01*
X116307200Y-148273333D02*
X116354819Y-148368571D01*
X116354819Y-148368571D02*
X116354819Y-148559047D01*
X116354819Y-148559047D02*
X116307200Y-148654285D01*
X116307200Y-148654285D02*
X116259580Y-148701904D01*
X116259580Y-148701904D02*
X116164342Y-148749523D01*
X116164342Y-148749523D02*
X115354819Y-148749523D01*
X115783390Y-149368571D02*
X115735771Y-149273333D01*
X115735771Y-149273333D02*
X115688152Y-149225714D01*
X115688152Y-149225714D02*
X115592914Y-149178095D01*
X115592914Y-149178095D02*
X115545295Y-149178095D01*
X115545295Y-149178095D02*
X115450057Y-149225714D01*
X115450057Y-149225714D02*
X115402438Y-149273333D01*
X115402438Y-149273333D02*
X115354819Y-149368571D01*
X115354819Y-149368571D02*
X115354819Y-149559047D01*
X115354819Y-149559047D02*
X115402438Y-149654285D01*
X115402438Y-149654285D02*
X115450057Y-149701904D01*
X115450057Y-149701904D02*
X115545295Y-149749523D01*
X115545295Y-149749523D02*
X115592914Y-149749523D01*
X115592914Y-149749523D02*
X115688152Y-149701904D01*
X115688152Y-149701904D02*
X115735771Y-149654285D01*
X115735771Y-149654285D02*
X115783390Y-149559047D01*
X115783390Y-149559047D02*
X115783390Y-149368571D01*
X115783390Y-149368571D02*
X115831009Y-149273333D01*
X115831009Y-149273333D02*
X115878628Y-149225714D01*
X115878628Y-149225714D02*
X115973866Y-149178095D01*
X115973866Y-149178095D02*
X116164342Y-149178095D01*
X116164342Y-149178095D02*
X116259580Y-149225714D01*
X116259580Y-149225714D02*
X116307200Y-149273333D01*
X116307200Y-149273333D02*
X116354819Y-149368571D01*
X116354819Y-149368571D02*
X116354819Y-149559047D01*
X116354819Y-149559047D02*
X116307200Y-149654285D01*
X116307200Y-149654285D02*
X116259580Y-149701904D01*
X116259580Y-149701904D02*
X116164342Y-149749523D01*
X116164342Y-149749523D02*
X115973866Y-149749523D01*
X115973866Y-149749523D02*
X115878628Y-149701904D01*
X115878628Y-149701904D02*
X115831009Y-149654285D01*
X115831009Y-149654285D02*
X115783390Y-149559047D01*
D11*
X114021266Y-146089048D02*
X114021266Y-146850953D01*
X117821266Y-146099048D02*
X117821266Y-146860953D01*
X118202219Y-146480000D02*
X117440314Y-146480000D01*
D12*
%TO.C,U4*%
X112620000Y-187280000D02*
X112620000Y-193700000D01*
X112620000Y-193700000D02*
X119340000Y-193700000D01*
X113000000Y-196690000D02*
X113000000Y-193700000D01*
X114070000Y-194110000D02*
X114070000Y-193700000D01*
X114730000Y-187280000D02*
X114730000Y-186870000D01*
X117280000Y-187280000D02*
X117280000Y-186870000D01*
X117870000Y-194110000D02*
X117870000Y-193700000D01*
X119340000Y-187280000D02*
X112620000Y-187280000D01*
X119340000Y-193700000D02*
X119340000Y-187280000D01*
D13*
X119242500Y-194140000D02*
G75*
G02*
X118917500Y-194140000I-162500J0D01*
G01*
X118917500Y-194140000D02*
G75*
G02*
X119242500Y-194140000I162500J0D01*
G01*
D14*
%TO.C,PWR1*%
X101364000Y-210321000D02*
X101364000Y-217179000D01*
X101364000Y-217179000D02*
X118636000Y-217179000D01*
X118636000Y-210321000D02*
X101364000Y-210321000D01*
X118636000Y-217179000D02*
X118636000Y-210321000D01*
D15*
X106190000Y-209750000D02*
X103650000Y-209750000D01*
X103650000Y-210880000D01*
X106190000Y-210880000D01*
X106190000Y-209750000D01*
G36*
X106190000Y-209750000D02*
G01*
X103650000Y-209750000D01*
X103650000Y-210880000D01*
X106190000Y-210880000D01*
X106190000Y-209750000D01*
G37*
X106190000Y-209780000D02*
X103650000Y-209780000D01*
X103650000Y-217750000D01*
X106190000Y-217750000D01*
X106190000Y-209780000D01*
X106190000Y-216620000D02*
X103650000Y-216620000D01*
X103650000Y-217750000D01*
X106190000Y-217750000D01*
X106190000Y-216620000D01*
G36*
X106190000Y-216620000D02*
G01*
X103650000Y-216620000D01*
X103650000Y-217750000D01*
X106190000Y-217750000D01*
X106190000Y-216620000D01*
G37*
X112250000Y-209750000D02*
X107750000Y-209750000D01*
X107750000Y-210321000D01*
X112250000Y-210321000D01*
X112250000Y-209750000D01*
G36*
X112250000Y-209750000D02*
G01*
X107750000Y-209750000D01*
X107750000Y-210321000D01*
X112250000Y-210321000D01*
X112250000Y-209750000D01*
G37*
D12*
%TO.C,C1*%
X101330000Y-172620000D02*
X101330000Y-180060000D01*
X101330000Y-180060000D02*
X104070000Y-180060000D01*
X104070000Y-172620000D02*
X101330000Y-172620000D01*
X104070000Y-180060000D02*
X104070000Y-172620000D01*
%TO.C,U2*%
X100660000Y-187240000D02*
X100660000Y-193660000D01*
X100660000Y-193660000D02*
X107380000Y-193660000D01*
X101040000Y-196650000D02*
X101040000Y-193660000D01*
X102110000Y-194070000D02*
X102110000Y-193660000D01*
X102770000Y-187240000D02*
X102770000Y-186830000D01*
X105320000Y-187240000D02*
X105320000Y-186830000D01*
X105910000Y-194070000D02*
X105910000Y-193660000D01*
X107380000Y-187240000D02*
X100660000Y-187240000D01*
X107380000Y-193660000D02*
X107380000Y-187240000D01*
D13*
X107282500Y-194100000D02*
G75*
G02*
X106957500Y-194100000I-162500J0D01*
G01*
X106957500Y-194100000D02*
G75*
G02*
X107282500Y-194100000I162500J0D01*
G01*
D12*
%TO.C,C3*%
X103514000Y-119870000D02*
X103514000Y-122610000D01*
X103514000Y-122610000D02*
X110954000Y-122610000D01*
X110954000Y-119870000D02*
X103514000Y-119870000D01*
X110954000Y-122610000D02*
X110954000Y-119870000D01*
%TO.C,U6*%
X112540000Y-123120000D02*
X112540000Y-129540000D01*
X112540000Y-129540000D02*
X119260000Y-129540000D01*
X112920000Y-132530000D02*
X112920000Y-129540000D01*
X113990000Y-129950000D02*
X113990000Y-129540000D01*
X114650000Y-123120000D02*
X114650000Y-122710000D01*
X117200000Y-123120000D02*
X117200000Y-122710000D01*
X117790000Y-129950000D02*
X117790000Y-129540000D01*
X119260000Y-123120000D02*
X112540000Y-123120000D01*
X119260000Y-129540000D02*
X119260000Y-123120000D01*
D13*
X119162500Y-129980000D02*
G75*
G02*
X118837500Y-129980000I-162500J0D01*
G01*
X118837500Y-129980000D02*
G75*
G02*
X119162500Y-129980000I162500J0D01*
G01*
D12*
%TO.C,C4*%
X103340000Y-142580000D02*
X103340000Y-145320000D01*
X103340000Y-145320000D02*
X110780000Y-145320000D01*
X110780000Y-142580000D02*
X103340000Y-142580000D01*
X110780000Y-145320000D02*
X110780000Y-142580000D01*
%TO.C,C2*%
X108630000Y-186650000D02*
X108630000Y-194090000D01*
X108630000Y-194090000D02*
X111370000Y-194090000D01*
X111370000Y-186650000D02*
X108630000Y-186650000D01*
X111370000Y-194090000D02*
X111370000Y-186650000D01*
%TO.C,U8*%
X112540000Y-145730000D02*
X112540000Y-152150000D01*
X112540000Y-152150000D02*
X119260000Y-152150000D01*
X114010000Y-145320000D02*
X114010000Y-145730000D01*
X114600000Y-152150000D02*
X114600000Y-152560000D01*
X117150000Y-152150000D02*
X117150000Y-152560000D01*
X117810000Y-145320000D02*
X117810000Y-145730000D01*
X118880000Y-142740000D02*
X118880000Y-145730000D01*
X119260000Y-145730000D02*
X112540000Y-145730000D01*
X119260000Y-152150000D02*
X119260000Y-145730000D01*
D13*
X112962500Y-145290000D02*
G75*
G02*
X112637500Y-145290000I-162500J0D01*
G01*
X112637500Y-145290000D02*
G75*
G02*
X112962500Y-145290000I162500J0D01*
G01*
%TD*%
%LPC*%
D16*
%TO.C,J1*%
X105000000Y-114550000D03*
D17*
X105000000Y-117090000D03*
X107540000Y-114550000D03*
X107540000Y-117090000D03*
X110080000Y-114550000D03*
X110080000Y-117090000D03*
X112620000Y-114550000D03*
X112620000Y-117090000D03*
X115160000Y-114550000D03*
X115160000Y-117090000D03*
%TD*%
D18*
%TO.C,H1*%
X110000000Y-158750000D03*
%TD*%
D16*
%TO.C,J2*%
X105000000Y-137250000D03*
D17*
X105000000Y-139790000D03*
X107540000Y-137250000D03*
X107540000Y-139790000D03*
X110080000Y-137250000D03*
X110080000Y-139790000D03*
X112620000Y-137250000D03*
X112620000Y-139790000D03*
X115160000Y-137250000D03*
X115160000Y-139790000D03*
%TD*%
D18*
%TO.C,H2*%
X110000000Y-205000000D03*
%TD*%
D19*
%TO.C,U4*%
X114070000Y-195570000D03*
D20*
X117880000Y-195570000D03*
X117240000Y-185410000D03*
X114710000Y-185410000D03*
%TD*%
D21*
%TO.C,PWR1*%
X104920000Y-212353000D03*
X104920000Y-214893000D03*
X107460000Y-212607000D03*
X107460000Y-215147000D03*
X110000000Y-212353000D03*
X110000000Y-214893000D03*
X112540000Y-212607000D03*
X112540000Y-215147000D03*
X115080000Y-212353000D03*
X115080000Y-214893000D03*
%TD*%
D22*
%TO.C,C1*%
X102700000Y-178840000D03*
X102700000Y-173840000D03*
%TD*%
D19*
%TO.C,U2*%
X102110000Y-195530000D03*
D20*
X105920000Y-195530000D03*
X105280000Y-185370000D03*
X102750000Y-185370000D03*
%TD*%
D22*
%TO.C,C3*%
X109734000Y-121240000D03*
X104734000Y-121240000D03*
%TD*%
D19*
%TO.C,U6*%
X113990000Y-131410000D03*
D20*
X117800000Y-131410000D03*
X117160000Y-121250000D03*
X114630000Y-121250000D03*
%TD*%
D22*
%TO.C,C4*%
X109560000Y-143950000D03*
X104560000Y-143950000D03*
%TD*%
%TO.C,C2*%
X110000000Y-187870000D03*
X110000000Y-192870000D03*
%TD*%
D23*
%TO.C,U8*%
X117810000Y-143860000D03*
D20*
X114000000Y-143860000D03*
X114640000Y-154020000D03*
X117170000Y-154020000D03*
%TD*%
%LPD*%
M02*
