G04 #@! TF.GenerationSoftware,KiCad,Pcbnew,7.0.8*
G04 #@! TF.CreationDate,2024-09-22T18:55:50-04:00*
G04 #@! TF.ProjectId,lichen-four-board,6c696368-656e-42d6-966f-75722d626f61,rev?*
G04 #@! TF.SameCoordinates,Original*
G04 #@! TF.FileFunction,Soldermask,Top*
G04 #@! TF.FilePolarity,Negative*
%FSLAX46Y46*%
G04 Gerber Fmt 4.6, Leading zero omitted, Abs format (unit mm)*
G04 Created by KiCad (PCBNEW 7.0.8) date 2024-09-22 18:55:50*
%MOMM*%
%LPD*%
G01*
G04 APERTURE LIST*
%ADD10R,1.750000X1.750000*%
%ADD11C,1.750000*%
%ADD12C,2.700000*%
%ADD13C,1.651000*%
%ADD14R,1.651000X1.651000*%
%ADD15O,2.500000X4.500000*%
%ADD16R,1.800000X1.800000*%
%ADD17C,1.800000*%
%ADD18C,2.000000*%
%ADD19C,2.032000*%
G04 APERTURE END LIST*
D10*
X106777000Y-216390000D03*
D11*
X110277000Y-216390000D03*
X106777000Y-183390000D03*
D12*
X112727000Y-212490000D03*
X104327000Y-211290000D03*
X104327000Y-188490000D03*
X112727000Y-187290000D03*
D13*
X121773000Y-159339000D03*
D14*
X124313000Y-159339000D03*
D10*
X150323000Y-216390000D03*
D11*
X153823000Y-216390000D03*
X150323000Y-183390000D03*
D12*
X156273000Y-212490000D03*
X147873000Y-211290000D03*
X147873000Y-188490000D03*
X156273000Y-187290000D03*
D15*
X118243000Y-172915000D03*
X127843000Y-172915000D03*
D16*
X120543000Y-180415000D03*
D17*
X123043000Y-180415000D03*
X125543000Y-180415000D03*
D18*
X152073000Y-123839000D03*
X152073000Y-112339000D03*
X152073000Y-120839000D03*
X137558000Y-123839000D03*
X137558000Y-112339000D03*
X137558000Y-120839000D03*
X108527000Y-164339000D03*
X108527000Y-155839000D03*
D15*
X132758000Y-172915000D03*
X142358000Y-172915000D03*
D16*
X135058000Y-180415000D03*
D17*
X137558000Y-180415000D03*
X140058000Y-180415000D03*
D18*
X108527000Y-123839000D03*
X108527000Y-112339000D03*
X108527000Y-120839000D03*
X108527000Y-151839000D03*
X108527000Y-140339000D03*
X108527000Y-148839000D03*
X108527000Y-136339000D03*
X108527000Y-127839000D03*
D19*
X134306800Y-157078400D03*
X140809200Y-157078400D03*
X134306800Y-161599600D03*
X140809200Y-161599600D03*
D18*
X137558000Y-136339000D03*
X137558000Y-127839000D03*
D15*
X147465000Y-172915000D03*
X157065000Y-172915000D03*
D16*
X149765000Y-180415000D03*
D17*
X152265000Y-180415000D03*
X154765000Y-180415000D03*
D18*
X152073000Y-136339000D03*
X152073000Y-127839000D03*
D10*
X121293000Y-216390000D03*
D11*
X124793000Y-216390000D03*
X121293000Y-183390000D03*
D12*
X127243000Y-212490000D03*
X118843000Y-211290000D03*
X118843000Y-188490000D03*
X127243000Y-187290000D03*
D10*
X135808000Y-216390000D03*
D11*
X139308000Y-216390000D03*
X135808000Y-183390000D03*
D12*
X141758000Y-212490000D03*
X133358000Y-211290000D03*
X133358000Y-188490000D03*
X141758000Y-187290000D03*
D18*
X152073000Y-151839000D03*
X152073000Y-140339000D03*
X152073000Y-148839000D03*
X123043000Y-123839000D03*
X123043000Y-112339000D03*
X123043000Y-120839000D03*
X123043000Y-151839000D03*
X123043000Y-140339000D03*
X123043000Y-148839000D03*
X123043000Y-136339000D03*
X123043000Y-127839000D03*
D15*
X103727000Y-172915000D03*
X113327000Y-172915000D03*
D16*
X106027000Y-180415000D03*
D17*
X108527000Y-180415000D03*
X111027000Y-180415000D03*
D18*
X152073000Y-164339000D03*
X152073000Y-155839000D03*
X137558000Y-151839000D03*
X137558000Y-140339000D03*
X137558000Y-148839000D03*
M02*
