G04 #@! TF.GenerationSoftware,KiCad,Pcbnew,7.0.8*
G04 #@! TF.CreationDate,2024-09-22T18:55:50-04:00*
G04 #@! TF.ProjectId,lichen-four-board,6c696368-656e-42d6-966f-75722d626f61,rev?*
G04 #@! TF.SameCoordinates,Original*
G04 #@! TF.FileFunction,Copper,L1,Top*
G04 #@! TF.FilePolarity,Positive*
%FSLAX46Y46*%
G04 Gerber Fmt 4.6, Leading zero omitted, Abs format (unit mm)*
G04 Created by KiCad (PCBNEW 7.0.8) date 2024-09-22 18:55:50*
%MOMM*%
%LPD*%
G01*
G04 APERTURE LIST*
G04 #@! TA.AperFunction,ComponentPad*
%ADD10R,1.750000X1.750000*%
G04 #@! TD*
G04 #@! TA.AperFunction,ComponentPad*
%ADD11C,1.750000*%
G04 #@! TD*
G04 #@! TA.AperFunction,ComponentPad*
%ADD12C,2.700000*%
G04 #@! TD*
G04 #@! TA.AperFunction,ComponentPad*
%ADD13C,1.651000*%
G04 #@! TD*
G04 #@! TA.AperFunction,ComponentPad*
%ADD14R,1.651000X1.651000*%
G04 #@! TD*
G04 #@! TA.AperFunction,ComponentPad*
%ADD15O,2.500000X4.500000*%
G04 #@! TD*
G04 #@! TA.AperFunction,ComponentPad*
%ADD16R,1.800000X1.800000*%
G04 #@! TD*
G04 #@! TA.AperFunction,ComponentPad*
%ADD17C,1.800000*%
G04 #@! TD*
G04 #@! TA.AperFunction,ComponentPad*
%ADD18C,2.000000*%
G04 #@! TD*
G04 #@! TA.AperFunction,ComponentPad*
%ADD19C,1.879600*%
G04 #@! TD*
G04 #@! TA.AperFunction,ViaPad*
%ADD20C,0.800000*%
G04 #@! TD*
G04 #@! TA.AperFunction,Conductor*
%ADD21C,0.250000*%
G04 #@! TD*
G04 APERTURE END LIST*
D10*
X106777000Y-216390000D03*
D11*
X110277000Y-216390000D03*
X106777000Y-183390000D03*
D12*
X112727000Y-212490000D03*
X104327000Y-211290000D03*
X104327000Y-188490000D03*
X112727000Y-187290000D03*
D13*
X121773000Y-159339000D03*
D14*
X124313000Y-159339000D03*
D10*
X150323000Y-216390000D03*
D11*
X153823000Y-216390000D03*
X150323000Y-183390000D03*
D12*
X156273000Y-212490000D03*
X147873000Y-211290000D03*
X147873000Y-188490000D03*
X156273000Y-187290000D03*
D15*
X118243000Y-172915000D03*
X127843000Y-172915000D03*
D16*
X120543000Y-180415000D03*
D17*
X123043000Y-180415000D03*
X125543000Y-180415000D03*
D18*
X152073000Y-123839000D03*
X152073000Y-112339000D03*
X152073000Y-120839000D03*
X137558000Y-123839000D03*
X137558000Y-112339000D03*
X137558000Y-120839000D03*
X108527000Y-164339000D03*
X108527000Y-155839000D03*
D15*
X132758000Y-172915000D03*
X142358000Y-172915000D03*
D16*
X135058000Y-180415000D03*
D17*
X137558000Y-180415000D03*
X140058000Y-180415000D03*
D18*
X108527000Y-123839000D03*
X108527000Y-112339000D03*
X108527000Y-120839000D03*
X108527000Y-151839000D03*
X108527000Y-140339000D03*
X108527000Y-148839000D03*
X108527000Y-136339000D03*
X108527000Y-127839000D03*
D19*
X134306800Y-157078400D03*
X140809200Y-157078400D03*
X134306800Y-161599600D03*
X140809200Y-161599600D03*
D18*
X137558000Y-136339000D03*
X137558000Y-127839000D03*
D15*
X147465000Y-172915000D03*
X157065000Y-172915000D03*
D16*
X149765000Y-180415000D03*
D17*
X152265000Y-180415000D03*
X154765000Y-180415000D03*
D18*
X152073000Y-136339000D03*
X152073000Y-127839000D03*
D10*
X121293000Y-216390000D03*
D11*
X124793000Y-216390000D03*
X121293000Y-183390000D03*
D12*
X127243000Y-212490000D03*
X118843000Y-211290000D03*
X118843000Y-188490000D03*
X127243000Y-187290000D03*
D10*
X135808000Y-216390000D03*
D11*
X139308000Y-216390000D03*
X135808000Y-183390000D03*
D12*
X141758000Y-212490000D03*
X133358000Y-211290000D03*
X133358000Y-188490000D03*
X141758000Y-187290000D03*
D18*
X152073000Y-151839000D03*
X152073000Y-140339000D03*
X152073000Y-148839000D03*
X123043000Y-123839000D03*
X123043000Y-112339000D03*
X123043000Y-120839000D03*
X123043000Y-151839000D03*
X123043000Y-140339000D03*
X123043000Y-148839000D03*
X123043000Y-136339000D03*
X123043000Y-127839000D03*
D15*
X103727000Y-172915000D03*
X113327000Y-172915000D03*
D16*
X106027000Y-180415000D03*
D17*
X108527000Y-180415000D03*
X111027000Y-180415000D03*
D18*
X152073000Y-164339000D03*
X152073000Y-155839000D03*
X137558000Y-151839000D03*
X137558000Y-140339000D03*
X137558000Y-148839000D03*
D20*
X134070000Y-145130000D03*
X137560000Y-170340000D03*
X102840000Y-180810000D03*
X104240000Y-193410000D03*
X147480000Y-202430000D03*
X110490000Y-205030000D03*
X146710000Y-205023182D03*
X144590000Y-186500000D03*
X150960000Y-195320000D03*
X145080000Y-151000000D03*
X152520000Y-188200000D03*
X135850000Y-144130000D03*
X142380000Y-144710000D03*
X145160000Y-155250000D03*
X143430000Y-189490000D03*
X131670000Y-137870000D03*
X150350000Y-161030000D03*
X115230000Y-133730000D03*
X142330000Y-130590000D03*
X129320000Y-137740000D03*
X135030000Y-135180000D03*
X132610000Y-144100000D03*
X130310000Y-199400000D03*
X124760000Y-190880000D03*
X125840000Y-204050000D03*
X123590000Y-170590000D03*
X118850000Y-132160000D03*
X112500000Y-132150000D03*
X146260000Y-176760000D03*
X121730000Y-138360000D03*
X141337299Y-189612701D03*
X135830000Y-193260000D03*
X128450000Y-190120000D03*
X128410000Y-139020000D03*
X130180000Y-177310000D03*
X144360000Y-153540000D03*
X144410000Y-134180000D03*
X148820000Y-147900000D03*
X135960000Y-206310000D03*
X132240000Y-200240000D03*
X125460000Y-192710000D03*
X125390000Y-194555500D03*
X146770000Y-162770000D03*
X134390000Y-200100000D03*
X145440000Y-148100000D03*
X119730000Y-208140000D03*
X111090000Y-209030000D03*
X124920000Y-206270000D03*
X131420000Y-206030000D03*
X152210000Y-210270000D03*
X137100000Y-209320000D03*
X122480000Y-201960000D03*
X110460000Y-201960000D03*
X130940000Y-194520000D03*
X127715000Y-192075000D03*
X143250000Y-183780000D03*
X139370000Y-184040000D03*
D21*
X106027000Y-180415000D02*
X103235000Y-180415000D01*
X115915000Y-180415000D02*
X120543000Y-180415000D01*
X104240000Y-193410000D02*
X104240000Y-192090000D01*
X103235000Y-180415000D02*
X102840000Y-180810000D01*
X123043000Y-151839000D02*
X123043000Y-158069000D01*
X134070000Y-148351000D02*
X137558000Y-151839000D01*
X140809200Y-161599600D02*
X134306800Y-161599600D01*
X134070000Y-145130000D02*
X134070000Y-148351000D01*
X123043000Y-158069000D02*
X121773000Y-159339000D01*
X135058000Y-172842000D02*
X137560000Y-170340000D01*
X104240000Y-192090000D02*
X115915000Y-180415000D01*
X135058000Y-180415000D02*
X135058000Y-172842000D01*
X144890000Y-205030000D02*
X147480000Y-202440000D01*
X147480000Y-202440000D02*
X147480000Y-202430000D01*
X110490000Y-205030000D02*
X144890000Y-205030000D01*
X147490000Y-202430000D02*
X147530000Y-202390000D01*
X147480000Y-202430000D02*
X147490000Y-202430000D01*
X152400000Y-192830000D02*
X150420000Y-190850000D01*
X146710000Y-205023182D02*
X147446818Y-205760000D01*
X147446818Y-205760000D02*
X149360000Y-205760000D01*
X114505000Y-120877000D02*
X123043000Y-112339000D01*
X152400000Y-202720000D02*
X152400000Y-192830000D01*
X114505000Y-164928604D02*
X114505000Y-120877000D01*
X150420000Y-190850000D02*
X140426396Y-190850000D01*
X149360000Y-205760000D02*
X152400000Y-202720000D01*
X140426396Y-190850000D02*
X114505000Y-164928604D01*
X144590000Y-186500000D02*
X144590000Y-163370000D01*
X144590000Y-163370000D02*
X143635000Y-162415000D01*
X143685000Y-118466000D02*
X137558000Y-112339000D01*
X143635000Y-134530305D02*
X143685000Y-134480305D01*
X143685000Y-134480305D02*
X143685000Y-118466000D01*
X143635000Y-162415000D02*
X143635000Y-134530305D01*
X150960000Y-192110000D02*
X150960000Y-195320000D01*
X114055000Y-165115000D02*
X140380000Y-191440000D01*
X140380000Y-191440000D02*
X150290000Y-191440000D01*
X114055000Y-141867000D02*
X114055000Y-165115000D01*
X150960000Y-195320000D02*
X150960000Y-195430000D01*
X108527000Y-136339000D02*
X114055000Y-141867000D01*
X150290000Y-191440000D02*
X150960000Y-192110000D01*
X145080000Y-151080000D02*
X146030000Y-152030000D01*
X152520000Y-188200000D02*
X152500000Y-188200000D01*
X135850000Y-144130000D02*
X135870000Y-144150000D01*
X141820000Y-144150000D02*
X142370000Y-144700000D01*
X146030000Y-167126396D02*
X156773604Y-177870000D01*
X152520000Y-185930000D02*
X152520000Y-188200000D01*
X152500000Y-188200000D02*
X152540000Y-188160000D01*
X156773604Y-181676396D02*
X152520000Y-185930000D01*
X156773604Y-177870000D02*
X156773604Y-181676396D01*
X146030000Y-152030000D02*
X146030000Y-167126396D01*
X135870000Y-144150000D02*
X141820000Y-144150000D01*
X145190000Y-155220000D02*
X145160000Y-155250000D01*
X143550000Y-189490000D02*
X143430000Y-189490000D01*
X145160000Y-155250000D02*
X145190000Y-155280000D01*
X145190000Y-155280000D02*
X145190000Y-180780000D01*
X148190000Y-183780000D02*
X148190000Y-184850000D01*
X143430000Y-189490000D02*
X143400000Y-189520000D01*
X145190000Y-180780000D02*
X148190000Y-183780000D01*
X148190000Y-184850000D02*
X143550000Y-189490000D01*
X131070000Y-138470000D02*
X128885305Y-138470000D01*
X125087000Y-138295000D02*
X123043000Y-140339000D01*
X131670000Y-137870000D02*
X131070000Y-138470000D01*
X128885305Y-138470000D02*
X128710305Y-138295000D01*
X128710305Y-138295000D02*
X125087000Y-138295000D01*
X152073000Y-140339000D02*
X150400000Y-142012000D01*
X150400000Y-142012000D02*
X150400000Y-161009661D01*
X115230000Y-133730000D02*
X115230000Y-133750000D01*
X129320000Y-137740000D02*
X129360000Y-137740000D01*
X129946000Y-132964000D02*
X129320000Y-133590000D01*
X129320000Y-133590000D02*
X129320000Y-137740000D01*
X115250000Y-133730000D02*
X115230000Y-133730000D01*
X125270000Y-133690000D02*
X115290000Y-133690000D01*
X115290000Y-133690000D02*
X115250000Y-133730000D01*
X142330000Y-130590000D02*
X139956000Y-132964000D01*
X129320000Y-137740000D02*
X125270000Y-133690000D01*
X139956000Y-132964000D02*
X129946000Y-132964000D01*
X115230000Y-133750000D02*
X115230000Y-133750000D01*
X135030000Y-135180000D02*
X135010000Y-135200000D01*
X135010000Y-135200000D02*
X135010000Y-141700000D01*
X135010000Y-141700000D02*
X132610000Y-144100000D01*
X124760000Y-190880000D02*
X130340000Y-196460000D01*
X130340000Y-196460000D02*
X130310000Y-199400000D01*
X130310000Y-199400000D02*
X130340000Y-199430000D01*
X139852792Y-189640000D02*
X120622500Y-170409708D01*
X120622500Y-170409708D02*
X120622500Y-139467500D01*
X120622500Y-139467500D02*
X121730000Y-138360000D01*
X141310000Y-189640000D02*
X139852792Y-189640000D01*
X141337299Y-189612701D02*
X141310000Y-189640000D01*
X130180000Y-177310000D02*
X130510000Y-176980000D01*
X130510000Y-154870000D02*
X128410000Y-152770000D01*
X133880000Y-193330000D02*
X135830000Y-193260000D01*
X128410000Y-152770000D02*
X128410000Y-139020000D01*
X130510000Y-176980000D02*
X130510000Y-154870000D01*
X130180000Y-177310000D02*
X130280000Y-177310000D01*
X128450000Y-190120000D02*
X131660000Y-193330000D01*
X135830000Y-193260000D02*
X135830000Y-193330000D01*
X131660000Y-193330000D02*
X133880000Y-193330000D01*
X144085000Y-134716701D02*
X144085000Y-153265000D01*
X140809200Y-157078400D02*
X134306800Y-157078400D01*
X144410000Y-134391701D02*
X144085000Y-134716701D01*
X144085000Y-153265000D02*
X144360000Y-153540000D01*
X144410000Y-134180000D02*
X144410000Y-134391701D01*
X158520000Y-188290000D02*
X152850000Y-193960000D01*
X148830000Y-169290000D02*
X158520000Y-178980000D01*
X148820000Y-160340000D02*
X148830000Y-160350000D01*
X152850000Y-193960000D02*
X152850000Y-202906396D01*
X148830000Y-160350000D02*
X148830000Y-169290000D01*
X158520000Y-178980000D02*
X158520000Y-188290000D01*
X148820000Y-147900000D02*
X148820000Y-160340000D01*
X149446396Y-206310000D02*
X135960000Y-206310000D01*
X152850000Y-202906396D02*
X149446396Y-206310000D01*
X132240000Y-200240000D02*
X132190000Y-200260000D01*
X132190000Y-200260000D02*
X132170000Y-200260000D01*
X129410000Y-196660000D02*
X129410000Y-199525305D01*
X130144695Y-200260000D02*
X132150000Y-200260000D01*
X132150000Y-200260000D02*
X132240000Y-200240000D01*
X129410000Y-199525305D02*
X130144695Y-200260000D01*
X125460000Y-192710000D02*
X129410000Y-196660000D01*
X125390000Y-194555500D02*
X125390000Y-198770000D01*
X146790000Y-149610000D02*
X145440000Y-148260000D01*
X125390000Y-198770000D02*
X127710000Y-201090000D01*
X134390000Y-200100000D02*
X134365000Y-200125000D01*
X127710000Y-201090000D02*
X133864695Y-201090000D01*
X146790000Y-162746396D02*
X146790000Y-149610000D01*
X133864695Y-201090000D02*
X134396247Y-200558448D01*
X111980000Y-208140000D02*
X119730000Y-208140000D01*
X111090000Y-209030000D02*
X111980000Y-208140000D01*
X124920000Y-216263000D02*
X124920000Y-206270000D01*
X139308000Y-216390000D02*
X139308000Y-213908000D01*
X139308000Y-213908000D02*
X131430000Y-206030000D01*
X152150000Y-210250000D02*
X151180000Y-209280000D01*
X151180000Y-209280000D02*
X137140000Y-209280000D01*
X110502380Y-201980000D02*
X122410000Y-201980000D01*
X130910000Y-194530000D02*
X130940000Y-194520000D01*
X130940000Y-194520000D02*
X130930000Y-194530000D01*
X127715000Y-192075000D02*
X130170000Y-194530000D01*
X130930000Y-194530000D02*
X130920000Y-194530000D01*
X130170000Y-194530000D02*
X130910000Y-194530000D01*
X139370000Y-184040000D02*
X139380000Y-184050000D01*
X143250000Y-183780000D02*
X142990000Y-184040000D01*
X142990000Y-184040000D02*
X139370000Y-184040000D01*
G04 #@! TA.AperFunction,Conductor*
G36*
X106995829Y-131069685D02*
G01*
X107041584Y-131122489D01*
X107051528Y-131191647D01*
X107051111Y-131194328D01*
X107034728Y-131292631D01*
X107027000Y-131339000D01*
X107127000Y-131939000D01*
X107598171Y-132504406D01*
X107627000Y-132539000D01*
X108527000Y-132839000D01*
X109427000Y-132539000D01*
X109927000Y-131939000D01*
X110027000Y-131339000D01*
X110002897Y-131194383D01*
X110011293Y-131125022D01*
X110055856Y-131071209D01*
X110122439Y-131050031D01*
X110125210Y-131050000D01*
X113755500Y-131050000D01*
X113822539Y-131069685D01*
X113868294Y-131122489D01*
X113879500Y-131174000D01*
X113879500Y-140507547D01*
X113859815Y-140574586D01*
X113807011Y-140620341D01*
X113737853Y-140630285D01*
X113674297Y-140601260D01*
X113667819Y-140595228D01*
X109990660Y-136918069D01*
X109957175Y-136856746D01*
X109958135Y-136799950D01*
X110012108Y-136586821D01*
X110032643Y-136339000D01*
X110023603Y-136229909D01*
X110012109Y-136091187D01*
X110012107Y-136091175D01*
X109951063Y-135850118D01*
X109851173Y-135622393D01*
X109715166Y-135414217D01*
X109693557Y-135390744D01*
X109546744Y-135231262D01*
X109350509Y-135078526D01*
X109350507Y-135078525D01*
X109350506Y-135078524D01*
X109131811Y-134960172D01*
X109131802Y-134960169D01*
X108896616Y-134879429D01*
X108651335Y-134838500D01*
X108402665Y-134838500D01*
X108157383Y-134879429D01*
X107922197Y-134960169D01*
X107922188Y-134960172D01*
X107703493Y-135078524D01*
X107507257Y-135231261D01*
X107338833Y-135414217D01*
X107202826Y-135622393D01*
X107102936Y-135850118D01*
X107041892Y-136091175D01*
X107041890Y-136091187D01*
X107021357Y-136338994D01*
X107021357Y-136339005D01*
X107041890Y-136586812D01*
X107041892Y-136586824D01*
X107102936Y-136827881D01*
X107202826Y-137055606D01*
X107338833Y-137263782D01*
X107371245Y-137298991D01*
X107507256Y-137446738D01*
X107703491Y-137599474D01*
X107703493Y-137599475D01*
X107895490Y-137703379D01*
X107922190Y-137717828D01*
X108157386Y-137798571D01*
X108402665Y-137839500D01*
X108651335Y-137839500D01*
X108896614Y-137798571D01*
X108976287Y-137771218D01*
X109046082Y-137768068D01*
X109104229Y-137800819D01*
X113393181Y-142089771D01*
X113426666Y-142151094D01*
X113429500Y-142177452D01*
X113429500Y-165032255D01*
X113427775Y-165047872D01*
X113428061Y-165047899D01*
X113427326Y-165055665D01*
X113429500Y-165124814D01*
X113429500Y-165154343D01*
X113429501Y-165154360D01*
X113430368Y-165161231D01*
X113430826Y-165167050D01*
X113432290Y-165213624D01*
X113432291Y-165213627D01*
X113437880Y-165232867D01*
X113441824Y-165251911D01*
X113443324Y-165263782D01*
X113444336Y-165271791D01*
X113461490Y-165315119D01*
X113463382Y-165320647D01*
X113476381Y-165365388D01*
X113486580Y-165382634D01*
X113495138Y-165400103D01*
X113502514Y-165418732D01*
X113529898Y-165456423D01*
X113533106Y-165461307D01*
X113556827Y-165501416D01*
X113556833Y-165501424D01*
X113570990Y-165515580D01*
X113583628Y-165530376D01*
X113595405Y-165546586D01*
X113595406Y-165546587D01*
X113631309Y-165576288D01*
X113635620Y-165580210D01*
X115851896Y-167796486D01*
X118032065Y-169976655D01*
X118065550Y-170037978D01*
X118060566Y-170107670D01*
X118018694Y-170163603D01*
X117962867Y-170186951D01*
X117914577Y-170194229D01*
X117852385Y-170203604D01*
X117852383Y-170203604D01*
X117852380Y-170203605D01*
X117852376Y-170203606D01*
X117601673Y-170280938D01*
X117365303Y-170394767D01*
X117365302Y-170394768D01*
X117148520Y-170542567D01*
X116956198Y-170721014D01*
X116792614Y-170926143D01*
X116661432Y-171153356D01*
X116565582Y-171397578D01*
X116565576Y-171397597D01*
X116507197Y-171653374D01*
X116507196Y-171653379D01*
X116492500Y-171849500D01*
X116492500Y-173980500D01*
X116507196Y-174176620D01*
X116507197Y-174176625D01*
X116565576Y-174432402D01*
X116565578Y-174432411D01*
X116565580Y-174432416D01*
X116661432Y-174676643D01*
X116792614Y-174903857D01*
X116876102Y-175008547D01*
X116956198Y-175108985D01*
X117135133Y-175275011D01*
X117148521Y-175287433D01*
X117365296Y-175435228D01*
X117365301Y-175435230D01*
X117365302Y-175435231D01*
X117365303Y-175435232D01*
X117490843Y-175495688D01*
X117601673Y-175549061D01*
X117601674Y-175549061D01*
X117601677Y-175549063D01*
X117852385Y-175626396D01*
X118111818Y-175665500D01*
X118374182Y-175665500D01*
X118633615Y-175626396D01*
X118884323Y-175549063D01*
X119120704Y-175435228D01*
X119337479Y-175287433D01*
X119525967Y-175112542D01*
X119529801Y-175108985D01*
X119529801Y-175108983D01*
X119529805Y-175108981D01*
X119693386Y-174903857D01*
X119824568Y-174676643D01*
X119920420Y-174432416D01*
X119978802Y-174176630D01*
X119993500Y-173980494D01*
X119993500Y-172237452D01*
X120013185Y-172170413D01*
X120065989Y-172124658D01*
X120135147Y-172114714D01*
X120198703Y-172143739D01*
X120205180Y-172149770D01*
X130044861Y-181989452D01*
X139879197Y-191823788D01*
X139889022Y-191836051D01*
X139889243Y-191835869D01*
X139894214Y-191841878D01*
X139911283Y-191857906D01*
X139944635Y-191889226D01*
X139965529Y-191910120D01*
X139971011Y-191914373D01*
X139975443Y-191918157D01*
X140009418Y-191950062D01*
X140026976Y-191959714D01*
X140043233Y-191970393D01*
X140059064Y-191982673D01*
X140078737Y-191991186D01*
X140101833Y-192001182D01*
X140107077Y-192003750D01*
X140147908Y-192026197D01*
X140160523Y-192029435D01*
X140167305Y-192031177D01*
X140185719Y-192037481D01*
X140204104Y-192045438D01*
X140250157Y-192052732D01*
X140255826Y-192053906D01*
X140300981Y-192065500D01*
X140321016Y-192065500D01*
X140340413Y-192067026D01*
X140360196Y-192070160D01*
X140406584Y-192065775D01*
X140412422Y-192065500D01*
X149979548Y-192065500D01*
X150046587Y-192085185D01*
X150067229Y-192101819D01*
X150298181Y-192332771D01*
X150331666Y-192394094D01*
X150334500Y-192420452D01*
X150334500Y-194621312D01*
X150314815Y-194688351D01*
X150302650Y-194704284D01*
X150227466Y-194787784D01*
X150132821Y-194951715D01*
X150132818Y-194951722D01*
X150076970Y-195123606D01*
X150074326Y-195131744D01*
X150054540Y-195320000D01*
X150074326Y-195508256D01*
X150074327Y-195508259D01*
X150132818Y-195688277D01*
X150132821Y-195688284D01*
X150227467Y-195852216D01*
X150325566Y-195961166D01*
X150354129Y-195992888D01*
X150507265Y-196104148D01*
X150507270Y-196104151D01*
X150680192Y-196181142D01*
X150680197Y-196181144D01*
X150865354Y-196220500D01*
X150865355Y-196220500D01*
X151054644Y-196220500D01*
X151054646Y-196220500D01*
X151239803Y-196181144D01*
X151412730Y-196104151D01*
X151565871Y-195992888D01*
X151565879Y-195992878D01*
X151567528Y-195991396D01*
X151568696Y-195990835D01*
X151571129Y-195989068D01*
X151571452Y-195989512D01*
X151630520Y-195961166D01*
X151699855Y-195969791D01*
X151753520Y-196014533D01*
X151774478Y-196081185D01*
X151774500Y-196083546D01*
X151774500Y-202409547D01*
X151754815Y-202476586D01*
X151738181Y-202497228D01*
X149137228Y-205098181D01*
X149075905Y-205131666D01*
X149049547Y-205134500D01*
X147757271Y-205134500D01*
X147690232Y-205114815D01*
X147669590Y-205098181D01*
X147648960Y-205077551D01*
X147615475Y-205016228D01*
X147613323Y-205002850D01*
X147595674Y-204834926D01*
X147537179Y-204654898D01*
X147442533Y-204490966D01*
X147315871Y-204350294D01*
X147315870Y-204350293D01*
X147162734Y-204239033D01*
X147162729Y-204239030D01*
X146989807Y-204162039D01*
X146989800Y-204162037D01*
X146926813Y-204148649D01*
X146865331Y-204115457D01*
X146831554Y-204054294D01*
X146836206Y-203984580D01*
X146864910Y-203939680D01*
X147437772Y-203366819D01*
X147499095Y-203333334D01*
X147525453Y-203330500D01*
X147574644Y-203330500D01*
X147574646Y-203330500D01*
X147759803Y-203291144D01*
X147932730Y-203214151D01*
X148085871Y-203102888D01*
X148212533Y-202962216D01*
X148307179Y-202798284D01*
X148365674Y-202618256D01*
X148385460Y-202430000D01*
X148365674Y-202241744D01*
X148307179Y-202061716D01*
X148212533Y-201897784D01*
X148085871Y-201757112D01*
X148035011Y-201720160D01*
X147932734Y-201645851D01*
X147932729Y-201645848D01*
X147759807Y-201568857D01*
X147759802Y-201568855D01*
X147614001Y-201537865D01*
X147574646Y-201529500D01*
X147385354Y-201529500D01*
X147352897Y-201536398D01*
X147200197Y-201568855D01*
X147200192Y-201568857D01*
X147027270Y-201645848D01*
X147027265Y-201645851D01*
X146874129Y-201757111D01*
X146747466Y-201897785D01*
X146652821Y-202061715D01*
X146652818Y-202061722D01*
X146624702Y-202148256D01*
X146594326Y-202241744D01*
X146585231Y-202328277D01*
X146575504Y-202420824D01*
X146548919Y-202485439D01*
X146539864Y-202495543D01*
X144667228Y-204368181D01*
X144605905Y-204401666D01*
X144579547Y-204404500D01*
X111193748Y-204404500D01*
X111126709Y-204384815D01*
X111101600Y-204363474D01*
X111095873Y-204357114D01*
X111095869Y-204357110D01*
X110942734Y-204245851D01*
X110942729Y-204245848D01*
X110769807Y-204168857D01*
X110769802Y-204168855D01*
X110624001Y-204137865D01*
X110584646Y-204129500D01*
X110395354Y-204129500D01*
X110362897Y-204136398D01*
X110210197Y-204168855D01*
X110210192Y-204168857D01*
X110037270Y-204245848D01*
X110037265Y-204245851D01*
X109884129Y-204357111D01*
X109757466Y-204497785D01*
X109662821Y-204661715D01*
X109662818Y-204661722D01*
X109606541Y-204834926D01*
X109604326Y-204841744D01*
X109584540Y-205030000D01*
X109604326Y-205218256D01*
X109604327Y-205218259D01*
X109662818Y-205398277D01*
X109662821Y-205398284D01*
X109757467Y-205562216D01*
X109849458Y-205664382D01*
X109884129Y-205702888D01*
X110011849Y-205795682D01*
X110054515Y-205851012D01*
X110060494Y-205920625D01*
X110027888Y-205982420D01*
X109967050Y-206016777D01*
X109938964Y-206020000D01*
X101794500Y-206020000D01*
X101727461Y-206000315D01*
X101681706Y-205947511D01*
X101670500Y-205896000D01*
X101670500Y-201960000D01*
X109554540Y-201960000D01*
X109574326Y-202148256D01*
X109574327Y-202148259D01*
X109632818Y-202328277D01*
X109632821Y-202328284D01*
X109727467Y-202492216D01*
X109829469Y-202605500D01*
X109854129Y-202632888D01*
X110007265Y-202744148D01*
X110007270Y-202744151D01*
X110180192Y-202821142D01*
X110180197Y-202821144D01*
X110365354Y-202860500D01*
X110365355Y-202860500D01*
X110554644Y-202860500D01*
X110554646Y-202860500D01*
X110739803Y-202821144D01*
X110912730Y-202744151D01*
X111065871Y-202632888D01*
X111065870Y-202632888D01*
X111070972Y-202629182D01*
X111136778Y-202605702D01*
X111143857Y-202605500D01*
X121796143Y-202605500D01*
X121863182Y-202625185D01*
X121869028Y-202629182D01*
X122027265Y-202744148D01*
X122027270Y-202744151D01*
X122200192Y-202821142D01*
X122200197Y-202821144D01*
X122385354Y-202860500D01*
X122385355Y-202860500D01*
X122574644Y-202860500D01*
X122574646Y-202860500D01*
X122759803Y-202821144D01*
X122932730Y-202744151D01*
X123085871Y-202632888D01*
X123212533Y-202492216D01*
X123307179Y-202328284D01*
X123365674Y-202148256D01*
X123385460Y-201960000D01*
X123365674Y-201771744D01*
X123307179Y-201591716D01*
X123212533Y-201427784D01*
X123085871Y-201287112D01*
X123085863Y-201287106D01*
X122932734Y-201175851D01*
X122932729Y-201175848D01*
X122759807Y-201098857D01*
X122759802Y-201098855D01*
X122614001Y-201067865D01*
X122574646Y-201059500D01*
X122385354Y-201059500D01*
X122352897Y-201066398D01*
X122200197Y-201098855D01*
X122200192Y-201098857D01*
X122027270Y-201175848D01*
X122027265Y-201175851D01*
X121874135Y-201287106D01*
X121874128Y-201287112D01*
X121850393Y-201313473D01*
X121790906Y-201350121D01*
X121758244Y-201354500D01*
X111181756Y-201354500D01*
X111114717Y-201334815D01*
X111089607Y-201313473D01*
X111065871Y-201287112D01*
X111065864Y-201287106D01*
X110912734Y-201175851D01*
X110912729Y-201175848D01*
X110739807Y-201098857D01*
X110739802Y-201098855D01*
X110594001Y-201067865D01*
X110554646Y-201059500D01*
X110365354Y-201059500D01*
X110332897Y-201066398D01*
X110180197Y-201098855D01*
X110180192Y-201098857D01*
X110007270Y-201175848D01*
X110007265Y-201175851D01*
X109854129Y-201287111D01*
X109727466Y-201427785D01*
X109632821Y-201591715D01*
X109632818Y-201591722D01*
X109579080Y-201757112D01*
X109574326Y-201771744D01*
X109554540Y-201960000D01*
X101670500Y-201960000D01*
X101670500Y-188490001D01*
X102471773Y-188490001D01*
X102490657Y-188754027D01*
X102490658Y-188754034D01*
X102546921Y-189012673D01*
X102639426Y-189260690D01*
X102639428Y-189260694D01*
X102766280Y-189493005D01*
X102766285Y-189493013D01*
X102924906Y-189704907D01*
X102924922Y-189704925D01*
X103112074Y-189892077D01*
X103112092Y-189892093D01*
X103323986Y-190050714D01*
X103323994Y-190050719D01*
X103556305Y-190177571D01*
X103556309Y-190177573D01*
X103556311Y-190177574D01*
X103804322Y-190270077D01*
X103804325Y-190270077D01*
X103804326Y-190270078D01*
X103823698Y-190274292D01*
X104062974Y-190326343D01*
X104306660Y-190343772D01*
X104326999Y-190345227D01*
X104327000Y-190345227D01*
X104327001Y-190345227D01*
X104345885Y-190343876D01*
X104591026Y-190326343D01*
X104849678Y-190270077D01*
X104849678Y-190270076D01*
X104853213Y-190269308D01*
X104922904Y-190274292D01*
X104978838Y-190316163D01*
X105003255Y-190381628D01*
X104988403Y-190449901D01*
X104967252Y-190478155D01*
X103856208Y-191589199D01*
X103843951Y-191599020D01*
X103844134Y-191599241D01*
X103838123Y-191604213D01*
X103790772Y-191654636D01*
X103769889Y-191675519D01*
X103769877Y-191675532D01*
X103765621Y-191681017D01*
X103761837Y-191685447D01*
X103729937Y-191719418D01*
X103729936Y-191719420D01*
X103720284Y-191736976D01*
X103709610Y-191753226D01*
X103697329Y-191769061D01*
X103697324Y-191769068D01*
X103678815Y-191811838D01*
X103676245Y-191817084D01*
X103653803Y-191857906D01*
X103648822Y-191877307D01*
X103642521Y-191895710D01*
X103634562Y-191914102D01*
X103634561Y-191914105D01*
X103627271Y-191960127D01*
X103626087Y-191965846D01*
X103614501Y-192010972D01*
X103614500Y-192010982D01*
X103614500Y-192031016D01*
X103612973Y-192050415D01*
X103609840Y-192070194D01*
X103609840Y-192070195D01*
X103614225Y-192116583D01*
X103614500Y-192122421D01*
X103614500Y-192711312D01*
X103594815Y-192778351D01*
X103582650Y-192794284D01*
X103507466Y-192877784D01*
X103412821Y-193041715D01*
X103412818Y-193041722D01*
X103354327Y-193221740D01*
X103354326Y-193221744D01*
X103334540Y-193410000D01*
X103354326Y-193598256D01*
X103354327Y-193598259D01*
X103412818Y-193778277D01*
X103412821Y-193778284D01*
X103507467Y-193942216D01*
X103580462Y-194023285D01*
X103634129Y-194082888D01*
X103787265Y-194194148D01*
X103787270Y-194194151D01*
X103960192Y-194271142D01*
X103960197Y-194271144D01*
X104145354Y-194310500D01*
X104145355Y-194310500D01*
X104334644Y-194310500D01*
X104334646Y-194310500D01*
X104519803Y-194271144D01*
X104692730Y-194194151D01*
X104845871Y-194082888D01*
X104972533Y-193942216D01*
X105067179Y-193778284D01*
X105125674Y-193598256D01*
X105145460Y-193410000D01*
X105125674Y-193221744D01*
X105067179Y-193041716D01*
X104972533Y-192877784D01*
X104920671Y-192820185D01*
X104897350Y-192794284D01*
X104867120Y-192731292D01*
X104865500Y-192711312D01*
X104865500Y-192400452D01*
X104885185Y-192333413D01*
X104901819Y-192312771D01*
X106334590Y-190880000D01*
X123854540Y-190880000D01*
X123874326Y-191068256D01*
X123874327Y-191068259D01*
X123932818Y-191248277D01*
X123932821Y-191248284D01*
X124027467Y-191412216D01*
X124145031Y-191542784D01*
X124154129Y-191552888D01*
X124307265Y-191664148D01*
X124307270Y-191664151D01*
X124480192Y-191741142D01*
X124480197Y-191741144D01*
X124665354Y-191780500D01*
X124724548Y-191780500D01*
X124791587Y-191800185D01*
X124812229Y-191816819D01*
X124855603Y-191860193D01*
X124889088Y-191921516D01*
X124884104Y-191991208D01*
X124857045Y-192030992D01*
X124858478Y-192032282D01*
X124727466Y-192177785D01*
X124632821Y-192341715D01*
X124632818Y-192341722D01*
X124585874Y-192486203D01*
X124574326Y-192521744D01*
X124554540Y-192710000D01*
X124574326Y-192898256D01*
X124574327Y-192898259D01*
X124632818Y-193078277D01*
X124632821Y-193078284D01*
X124727467Y-193242216D01*
X124854129Y-193382888D01*
X125007265Y-193494148D01*
X125007267Y-193494149D01*
X125007270Y-193494151D01*
X125029139Y-193503887D01*
X125082374Y-193549136D01*
X125102696Y-193615985D01*
X125083651Y-193683209D01*
X125031285Y-193729465D01*
X125029139Y-193730445D01*
X124937267Y-193771350D01*
X124937265Y-193771351D01*
X124784129Y-193882611D01*
X124657466Y-194023285D01*
X124562821Y-194187215D01*
X124562818Y-194187222D01*
X124504327Y-194367240D01*
X124504326Y-194367244D01*
X124484540Y-194555500D01*
X124504326Y-194743756D01*
X124504327Y-194743759D01*
X124562818Y-194923777D01*
X124562821Y-194923784D01*
X124657467Y-195087716D01*
X124661630Y-195092339D01*
X124732650Y-195171215D01*
X124762880Y-195234206D01*
X124764500Y-195254187D01*
X124764500Y-198687255D01*
X124762775Y-198702872D01*
X124763061Y-198702899D01*
X124762326Y-198710665D01*
X124764500Y-198779814D01*
X124764500Y-198809343D01*
X124764501Y-198809360D01*
X124765368Y-198816231D01*
X124765826Y-198822050D01*
X124767290Y-198868624D01*
X124767291Y-198868627D01*
X124772880Y-198887867D01*
X124776824Y-198906911D01*
X124779336Y-198926791D01*
X124796490Y-198970119D01*
X124798382Y-198975647D01*
X124811382Y-199020390D01*
X124818083Y-199031722D01*
X124821580Y-199037634D01*
X124830138Y-199055103D01*
X124837514Y-199073732D01*
X124864898Y-199111423D01*
X124868106Y-199116307D01*
X124891827Y-199156416D01*
X124891833Y-199156424D01*
X124905990Y-199170580D01*
X124918628Y-199185376D01*
X124930405Y-199201586D01*
X124930406Y-199201587D01*
X124966309Y-199231288D01*
X124970620Y-199235210D01*
X126708323Y-200972914D01*
X127209197Y-201473788D01*
X127219022Y-201486051D01*
X127219243Y-201485869D01*
X127224214Y-201491878D01*
X127245043Y-201511437D01*
X127274635Y-201539226D01*
X127295529Y-201560120D01*
X127301011Y-201564373D01*
X127305443Y-201568157D01*
X127339418Y-201600062D01*
X127356976Y-201609714D01*
X127373235Y-201620395D01*
X127389064Y-201632673D01*
X127431838Y-201651182D01*
X127437056Y-201653738D01*
X127477908Y-201676197D01*
X127497316Y-201681180D01*
X127515717Y-201687480D01*
X127534104Y-201695437D01*
X127577488Y-201702308D01*
X127580119Y-201702725D01*
X127585839Y-201703909D01*
X127630981Y-201715500D01*
X127651016Y-201715500D01*
X127670414Y-201717026D01*
X127690194Y-201720159D01*
X127690195Y-201720160D01*
X127690195Y-201720159D01*
X127690196Y-201720160D01*
X127736584Y-201715775D01*
X127742422Y-201715500D01*
X133781952Y-201715500D01*
X133797572Y-201717224D01*
X133797599Y-201716939D01*
X133805355Y-201717671D01*
X133805362Y-201717673D01*
X133874509Y-201715500D01*
X133904045Y-201715500D01*
X133910923Y-201714630D01*
X133916736Y-201714172D01*
X133963322Y-201712709D01*
X133982564Y-201707117D01*
X134001607Y-201703174D01*
X134021487Y-201700664D01*
X134064817Y-201683507D01*
X134070341Y-201681617D01*
X134074091Y-201680527D01*
X134115085Y-201668618D01*
X134132324Y-201658422D01*
X134149798Y-201649862D01*
X134168422Y-201642488D01*
X134168422Y-201642487D01*
X134168427Y-201642486D01*
X134206144Y-201615082D01*
X134211000Y-201611892D01*
X134251115Y-201588170D01*
X134265284Y-201573999D01*
X134280074Y-201561368D01*
X134296282Y-201549594D01*
X134325994Y-201513676D01*
X134329907Y-201509376D01*
X134866367Y-200972919D01*
X134938920Y-200879384D01*
X134967331Y-200813728D01*
X134992548Y-200778642D01*
X134991522Y-200777719D01*
X135034011Y-200730528D01*
X135122533Y-200632216D01*
X135217179Y-200468284D01*
X135275674Y-200288256D01*
X135295460Y-200100000D01*
X135275674Y-199911744D01*
X135217179Y-199731716D01*
X135122533Y-199567784D01*
X134995871Y-199427112D01*
X134995870Y-199427111D01*
X134842734Y-199315851D01*
X134842729Y-199315848D01*
X134669807Y-199238857D01*
X134669802Y-199238855D01*
X134524001Y-199207865D01*
X134484646Y-199199500D01*
X134295354Y-199199500D01*
X134262897Y-199206398D01*
X134110197Y-199238855D01*
X134110192Y-199238857D01*
X133937270Y-199315848D01*
X133937265Y-199315851D01*
X133784129Y-199427111D01*
X133657466Y-199567785D01*
X133562821Y-199731715D01*
X133562818Y-199731722D01*
X133517330Y-199871722D01*
X133504326Y-199911744D01*
X133496046Y-199990526D01*
X133484540Y-200100000D01*
X133504326Y-200288256D01*
X133504328Y-200288262D01*
X133508851Y-200302183D01*
X133510846Y-200372024D01*
X133474765Y-200431857D01*
X133412064Y-200462684D01*
X133390920Y-200464500D01*
X133259580Y-200464500D01*
X133192541Y-200444815D01*
X133146786Y-200392011D01*
X133136259Y-200327540D01*
X133145460Y-200240000D01*
X133125674Y-200051744D01*
X133067179Y-199871716D01*
X132972533Y-199707784D01*
X132845871Y-199567112D01*
X132842503Y-199564665D01*
X132692734Y-199455851D01*
X132692729Y-199455848D01*
X132519807Y-199378857D01*
X132519802Y-199378855D01*
X132374001Y-199347865D01*
X132334646Y-199339500D01*
X132145354Y-199339500D01*
X132112897Y-199346398D01*
X131960197Y-199378855D01*
X131960192Y-199378857D01*
X131787270Y-199455848D01*
X131787265Y-199455851D01*
X131634135Y-199567106D01*
X131634128Y-199567112D01*
X131610393Y-199593473D01*
X131550906Y-199630121D01*
X131518244Y-199634500D01*
X131328529Y-199634500D01*
X131261490Y-199614815D01*
X131215735Y-199562011D01*
X131205208Y-199497539D01*
X131208526Y-199465970D01*
X131215460Y-199400000D01*
X131195674Y-199211744D01*
X131137179Y-199031716D01*
X131042533Y-198867784D01*
X130998725Y-198819130D01*
X130974438Y-198792156D01*
X130944208Y-198729164D01*
X130942594Y-198707919D01*
X130942645Y-198702899D01*
X130964661Y-196545249D01*
X130967647Y-196519449D01*
X130967673Y-196519333D01*
X130965600Y-196453364D01*
X130965869Y-196427034D01*
X130965616Y-196424859D01*
X130964666Y-196416660D01*
X130964283Y-196411459D01*
X130964195Y-196408676D01*
X130962710Y-196361373D01*
X130958193Y-196345829D01*
X130954095Y-196325516D01*
X130952232Y-196309447D01*
X130952231Y-196309444D01*
X130934263Y-196262672D01*
X130932600Y-196257735D01*
X130918618Y-196209610D01*
X130910379Y-196195679D01*
X130901358Y-196177025D01*
X130895555Y-196161919D01*
X130866514Y-196121078D01*
X130863674Y-196116706D01*
X130856247Y-196104148D01*
X130838170Y-196073580D01*
X130838165Y-196073574D01*
X130826730Y-196062139D01*
X130813355Y-196046317D01*
X130803975Y-196033126D01*
X130803971Y-196033121D01*
X130765683Y-196000784D01*
X130761858Y-195997268D01*
X130131772Y-195367181D01*
X130098287Y-195305858D01*
X130103271Y-195236166D01*
X130145143Y-195180233D01*
X130210607Y-195155816D01*
X130219453Y-195155500D01*
X130245256Y-195155500D01*
X130312295Y-195175185D01*
X130328740Y-195189159D01*
X130329299Y-195188539D01*
X130334130Y-195192889D01*
X130487265Y-195304148D01*
X130487270Y-195304151D01*
X130660192Y-195381142D01*
X130660197Y-195381144D01*
X130845354Y-195420500D01*
X130845355Y-195420500D01*
X131034644Y-195420500D01*
X131034646Y-195420500D01*
X131219803Y-195381144D01*
X131392730Y-195304151D01*
X131545871Y-195192888D01*
X131672533Y-195052216D01*
X131767179Y-194888284D01*
X131825674Y-194708256D01*
X131845460Y-194520000D01*
X131825674Y-194331744D01*
X131767179Y-194151716D01*
X131761278Y-194141496D01*
X131744809Y-194073597D01*
X131767662Y-194007570D01*
X131822585Y-193964381D01*
X131868668Y-193955500D01*
X133798949Y-193955500D01*
X133815693Y-193957310D01*
X133815701Y-193957232D01*
X133823459Y-193957929D01*
X133823471Y-193957932D01*
X133891220Y-193955500D01*
X133919350Y-193955500D01*
X133927766Y-193954436D01*
X133933281Y-193953989D01*
X135148293Y-193910374D01*
X135215995Y-193927641D01*
X135225626Y-193933976D01*
X135377265Y-194044148D01*
X135377270Y-194044151D01*
X135550192Y-194121142D01*
X135550197Y-194121144D01*
X135735354Y-194160500D01*
X135735355Y-194160500D01*
X135924644Y-194160500D01*
X135924646Y-194160500D01*
X136109803Y-194121144D01*
X136282730Y-194044151D01*
X136435871Y-193932888D01*
X136562533Y-193792216D01*
X136657179Y-193628284D01*
X136715674Y-193448256D01*
X136735460Y-193260000D01*
X136715674Y-193071744D01*
X136657179Y-192891716D01*
X136562533Y-192727784D01*
X136435871Y-192587112D01*
X136435867Y-192587109D01*
X136282734Y-192475851D01*
X136282729Y-192475848D01*
X136109807Y-192398857D01*
X136109802Y-192398855D01*
X135959211Y-192366847D01*
X135924646Y-192359500D01*
X135735354Y-192359500D01*
X135710532Y-192364776D01*
X135550197Y-192398855D01*
X135550192Y-192398857D01*
X135377270Y-192475848D01*
X135377265Y-192475851D01*
X135224131Y-192587109D01*
X135195342Y-192619082D01*
X135135854Y-192655729D01*
X135107642Y-192660027D01*
X133868769Y-192704500D01*
X131970452Y-192704500D01*
X131903413Y-192684815D01*
X131882771Y-192668181D01*
X129388960Y-190174369D01*
X129355475Y-190113046D01*
X129353323Y-190099668D01*
X129335674Y-189931744D01*
X129277179Y-189751716D01*
X129182533Y-189587784D01*
X129055871Y-189447112D01*
X129055870Y-189447111D01*
X128902734Y-189335851D01*
X128902729Y-189335848D01*
X128729807Y-189258857D01*
X128729802Y-189258855D01*
X128584001Y-189227865D01*
X128544646Y-189219500D01*
X128355354Y-189219500D01*
X128322897Y-189226398D01*
X128170197Y-189258855D01*
X128170192Y-189258857D01*
X127997270Y-189335848D01*
X127997265Y-189335851D01*
X127844129Y-189447111D01*
X127717466Y-189587785D01*
X127622821Y-189751715D01*
X127622818Y-189751722D01*
X127577211Y-189892087D01*
X127564326Y-189931744D01*
X127544540Y-190120000D01*
X127564326Y-190308256D01*
X127564327Y-190308259D01*
X127622818Y-190488277D01*
X127622821Y-190488284D01*
X127717467Y-190652216D01*
X127844129Y-190792888D01*
X127997265Y-190904148D01*
X127997270Y-190904151D01*
X128170192Y-190981142D01*
X128170197Y-190981144D01*
X128355354Y-191020500D01*
X128414548Y-191020500D01*
X128481587Y-191040185D01*
X128502229Y-191056819D01*
X130864934Y-193419524D01*
X130898419Y-193480847D01*
X130893435Y-193550539D01*
X130851563Y-193606472D01*
X130803034Y-193628495D01*
X130660197Y-193658855D01*
X130660192Y-193658857D01*
X130487271Y-193735848D01*
X130441568Y-193769052D01*
X130375761Y-193792530D01*
X130307707Y-193776703D01*
X130281004Y-193756413D01*
X128653960Y-192129369D01*
X128620475Y-192068046D01*
X128618323Y-192054668D01*
X128600674Y-191886744D01*
X128542179Y-191706716D01*
X128447533Y-191542784D01*
X128320871Y-191402112D01*
X128320870Y-191402111D01*
X128167734Y-191290851D01*
X128167729Y-191290848D01*
X127994807Y-191213857D01*
X127994802Y-191213855D01*
X127849001Y-191182865D01*
X127809646Y-191174500D01*
X127620354Y-191174500D01*
X127587897Y-191181398D01*
X127435197Y-191213855D01*
X127435192Y-191213857D01*
X127262270Y-191290848D01*
X127262265Y-191290851D01*
X127109129Y-191402111D01*
X126982466Y-191542785D01*
X126887821Y-191706715D01*
X126887819Y-191706719D01*
X126848205Y-191828640D01*
X126808767Y-191886315D01*
X126744409Y-191913513D01*
X126675562Y-191901598D01*
X126642593Y-191878002D01*
X125698960Y-190934369D01*
X125665475Y-190873046D01*
X125663323Y-190859668D01*
X125645674Y-190691744D01*
X125587179Y-190511716D01*
X125492533Y-190347784D01*
X125365871Y-190207112D01*
X125365870Y-190207111D01*
X125212734Y-190095851D01*
X125212729Y-190095848D01*
X125039807Y-190018857D01*
X125039802Y-190018855D01*
X124861632Y-189980985D01*
X124854646Y-189979500D01*
X124665354Y-189979500D01*
X124658382Y-189980982D01*
X124480197Y-190018855D01*
X124480192Y-190018857D01*
X124307270Y-190095848D01*
X124307265Y-190095851D01*
X124154129Y-190207111D01*
X124027466Y-190347785D01*
X123932821Y-190511715D01*
X123932818Y-190511722D01*
X123874327Y-190691740D01*
X123874326Y-190691744D01*
X123854540Y-190880000D01*
X106334590Y-190880000D01*
X107790149Y-189424441D01*
X110843546Y-186371044D01*
X110904866Y-186337561D01*
X110974558Y-186342545D01*
X111030491Y-186384417D01*
X111054908Y-186449881D01*
X111040740Y-186515036D01*
X111041268Y-186515277D01*
X111040160Y-186517701D01*
X111040067Y-186518133D01*
X111039435Y-186519289D01*
X111039426Y-186519309D01*
X110946921Y-186767326D01*
X110890658Y-187025965D01*
X110890657Y-187025972D01*
X110871773Y-187289998D01*
X110871773Y-187290001D01*
X110890657Y-187554027D01*
X110890658Y-187554034D01*
X110946921Y-187812673D01*
X111039426Y-188060690D01*
X111039428Y-188060694D01*
X111166280Y-188293005D01*
X111166285Y-188293013D01*
X111324906Y-188504907D01*
X111324922Y-188504925D01*
X111512074Y-188692077D01*
X111512092Y-188692093D01*
X111723986Y-188850714D01*
X111723994Y-188850719D01*
X111956305Y-188977571D01*
X111956309Y-188977573D01*
X111956311Y-188977574D01*
X112204322Y-189070077D01*
X112204325Y-189070077D01*
X112204326Y-189070078D01*
X112240702Y-189077991D01*
X112462974Y-189126343D01*
X112706660Y-189143772D01*
X112726999Y-189145227D01*
X112727000Y-189145227D01*
X112727001Y-189145227D01*
X112745885Y-189143876D01*
X112991026Y-189126343D01*
X113249678Y-189070077D01*
X113497689Y-188977574D01*
X113730011Y-188850716D01*
X113941915Y-188692087D01*
X114129087Y-188504915D01*
X114140251Y-188490001D01*
X116987773Y-188490001D01*
X117006657Y-188754027D01*
X117006658Y-188754034D01*
X117062921Y-189012673D01*
X117155426Y-189260690D01*
X117155428Y-189260694D01*
X117282280Y-189493005D01*
X117282285Y-189493013D01*
X117440906Y-189704907D01*
X117440922Y-189704925D01*
X117628074Y-189892077D01*
X117628092Y-189892093D01*
X117839986Y-190050714D01*
X117839994Y-190050719D01*
X118072305Y-190177571D01*
X118072309Y-190177573D01*
X118072311Y-190177574D01*
X118320322Y-190270077D01*
X118320325Y-190270077D01*
X118320326Y-190270078D01*
X118339698Y-190274292D01*
X118578974Y-190326343D01*
X118822660Y-190343772D01*
X118842999Y-190345227D01*
X118843000Y-190345227D01*
X118843001Y-190345227D01*
X118861885Y-190343876D01*
X119107026Y-190326343D01*
X119365678Y-190270077D01*
X119613689Y-190177574D01*
X119846011Y-190050716D01*
X120057915Y-189892087D01*
X120245087Y-189704915D01*
X120403716Y-189493011D01*
X120530574Y-189260689D01*
X120623077Y-189012678D01*
X120679343Y-188754026D01*
X120698227Y-188490000D01*
X120679343Y-188225974D01*
X120632740Y-188011744D01*
X120623078Y-187967326D01*
X120572498Y-187831716D01*
X120530574Y-187719311D01*
X120456843Y-187584284D01*
X120403719Y-187486994D01*
X120403714Y-187486986D01*
X120256254Y-187290001D01*
X125387773Y-187290001D01*
X125406657Y-187554027D01*
X125406658Y-187554034D01*
X125462921Y-187812673D01*
X125555426Y-188060690D01*
X125555428Y-188060694D01*
X125682280Y-188293005D01*
X125682285Y-188293013D01*
X125840906Y-188504907D01*
X125840922Y-188504925D01*
X126028074Y-188692077D01*
X126028092Y-188692093D01*
X126239986Y-188850714D01*
X126239994Y-188850719D01*
X126472305Y-188977571D01*
X126472309Y-188977573D01*
X126472311Y-188977574D01*
X126720322Y-189070077D01*
X126720325Y-189070077D01*
X126720326Y-189070078D01*
X126756702Y-189077991D01*
X126978974Y-189126343D01*
X127222660Y-189143772D01*
X127242999Y-189145227D01*
X127243000Y-189145227D01*
X127243001Y-189145227D01*
X127261885Y-189143876D01*
X127507026Y-189126343D01*
X127765678Y-189070077D01*
X128013689Y-188977574D01*
X128246011Y-188850716D01*
X128457915Y-188692087D01*
X128645087Y-188504915D01*
X128656251Y-188490001D01*
X131502773Y-188490001D01*
X131521657Y-188754027D01*
X131521658Y-188754034D01*
X131577921Y-189012673D01*
X131670426Y-189260690D01*
X131670428Y-189260694D01*
X131797280Y-189493005D01*
X131797285Y-189493013D01*
X131955906Y-189704907D01*
X131955922Y-189704925D01*
X132143074Y-189892077D01*
X132143092Y-189892093D01*
X132354986Y-190050714D01*
X132354994Y-190050719D01*
X132587305Y-190177571D01*
X132587309Y-190177573D01*
X132587311Y-190177574D01*
X132835322Y-190270077D01*
X132835325Y-190270077D01*
X132835326Y-190270078D01*
X132854698Y-190274292D01*
X133093974Y-190326343D01*
X133337660Y-190343772D01*
X133357999Y-190345227D01*
X133358000Y-190345227D01*
X133358001Y-190345227D01*
X133376885Y-190343876D01*
X133622026Y-190326343D01*
X133880678Y-190270077D01*
X134128689Y-190177574D01*
X134361011Y-190050716D01*
X134572915Y-189892087D01*
X134760087Y-189704915D01*
X134918716Y-189493011D01*
X135045574Y-189260689D01*
X135138077Y-189012678D01*
X135194343Y-188754026D01*
X135213227Y-188490000D01*
X135194343Y-188225974D01*
X135147740Y-188011744D01*
X135138078Y-187967326D01*
X135087498Y-187831716D01*
X135045574Y-187719311D01*
X134971843Y-187584284D01*
X134918719Y-187486994D01*
X134918714Y-187486986D01*
X134760093Y-187275092D01*
X134760077Y-187275074D01*
X134572925Y-187087922D01*
X134572907Y-187087906D01*
X134361013Y-186929285D01*
X134361005Y-186929280D01*
X134128694Y-186802428D01*
X134128690Y-186802426D01*
X133880673Y-186709921D01*
X133622034Y-186653658D01*
X133622027Y-186653657D01*
X133358001Y-186634773D01*
X133357999Y-186634773D01*
X133093972Y-186653657D01*
X133093965Y-186653658D01*
X132835326Y-186709921D01*
X132587309Y-186802426D01*
X132587305Y-186802428D01*
X132354994Y-186929280D01*
X132354986Y-186929285D01*
X132143092Y-187087906D01*
X132143074Y-187087922D01*
X131955922Y-187275074D01*
X131955906Y-187275092D01*
X131797285Y-187486986D01*
X131797280Y-187486994D01*
X131670428Y-187719305D01*
X131670426Y-187719309D01*
X131577921Y-187967326D01*
X131521658Y-188225965D01*
X131521657Y-188225972D01*
X131502773Y-188489998D01*
X131502773Y-188490001D01*
X128656251Y-188490001D01*
X128803716Y-188293011D01*
X128930574Y-188060689D01*
X129023077Y-187812678D01*
X129079343Y-187554026D01*
X129098227Y-187290000D01*
X129097808Y-187284148D01*
X129095525Y-187252230D01*
X129079343Y-187025974D01*
X129058310Y-186929285D01*
X129023078Y-186767326D01*
X129001667Y-186709921D01*
X128930574Y-186519311D01*
X128928371Y-186515277D01*
X128803719Y-186286994D01*
X128803714Y-186286986D01*
X128645093Y-186075092D01*
X128645077Y-186075074D01*
X128457925Y-185887922D01*
X128457907Y-185887906D01*
X128246013Y-185729285D01*
X128246005Y-185729280D01*
X128013694Y-185602428D01*
X128013690Y-185602426D01*
X127765673Y-185509921D01*
X127507034Y-185453658D01*
X127507027Y-185453657D01*
X127243001Y-185434773D01*
X127242999Y-185434773D01*
X126978972Y-185453657D01*
X126978965Y-185453658D01*
X126720326Y-185509921D01*
X126472309Y-185602426D01*
X126472305Y-185602428D01*
X126239994Y-185729280D01*
X126239986Y-185729285D01*
X126028092Y-185887906D01*
X126028074Y-185887922D01*
X125840922Y-186075074D01*
X125840906Y-186075092D01*
X125682285Y-186286986D01*
X125682280Y-186286994D01*
X125555428Y-186519305D01*
X125555426Y-186519309D01*
X125462921Y-186767326D01*
X125406658Y-187025965D01*
X125406657Y-187025972D01*
X125387773Y-187289998D01*
X125387773Y-187290001D01*
X120256254Y-187290001D01*
X120245093Y-187275092D01*
X120245077Y-187275074D01*
X120057925Y-187087922D01*
X120057907Y-187087906D01*
X119846013Y-186929285D01*
X119846005Y-186929280D01*
X119613694Y-186802428D01*
X119613690Y-186802426D01*
X119365673Y-186709921D01*
X119107034Y-186653658D01*
X119107027Y-186653657D01*
X118843001Y-186634773D01*
X118842999Y-186634773D01*
X118578972Y-186653657D01*
X118578965Y-186653658D01*
X118320326Y-186709921D01*
X118072309Y-186802426D01*
X118072305Y-186802428D01*
X117839994Y-186929280D01*
X117839986Y-186929285D01*
X117628092Y-187087906D01*
X117628074Y-187087922D01*
X117440922Y-187275074D01*
X117440906Y-187275092D01*
X117282285Y-187486986D01*
X117282280Y-187486994D01*
X117155428Y-187719305D01*
X117155426Y-187719309D01*
X117062921Y-187967326D01*
X117006658Y-188225965D01*
X117006657Y-188225972D01*
X116987773Y-188489998D01*
X116987773Y-188490001D01*
X114140251Y-188490001D01*
X114287716Y-188293011D01*
X114414574Y-188060689D01*
X114507077Y-187812678D01*
X114563343Y-187554026D01*
X114582227Y-187290000D01*
X114581808Y-187284148D01*
X114579525Y-187252230D01*
X114563343Y-187025974D01*
X114542310Y-186929285D01*
X114507078Y-186767326D01*
X114485667Y-186709921D01*
X114414574Y-186519311D01*
X114412371Y-186515277D01*
X114287719Y-186286994D01*
X114287714Y-186286986D01*
X114129093Y-186075092D01*
X114129077Y-186075074D01*
X113941925Y-185887922D01*
X113941907Y-185887906D01*
X113730013Y-185729285D01*
X113730005Y-185729280D01*
X113497694Y-185602428D01*
X113497690Y-185602426D01*
X113249673Y-185509921D01*
X112991034Y-185453658D01*
X112991027Y-185453657D01*
X112727001Y-185434773D01*
X112726999Y-185434773D01*
X112462972Y-185453657D01*
X112462965Y-185453658D01*
X112204326Y-185509921D01*
X111956309Y-185602426D01*
X111956289Y-185602435D01*
X111955133Y-185603067D01*
X111954702Y-185603160D01*
X111952277Y-185604268D01*
X111952035Y-185603740D01*
X111886858Y-185617906D01*
X111821398Y-185593477D01*
X111779537Y-185537536D01*
X111774566Y-185467843D01*
X111808044Y-185406546D01*
X116137772Y-181076819D01*
X116199095Y-181043334D01*
X116225453Y-181040500D01*
X119018501Y-181040500D01*
X119085540Y-181060185D01*
X119131295Y-181112989D01*
X119142501Y-181164500D01*
X119142501Y-181362876D01*
X119148908Y-181422483D01*
X119199202Y-181557328D01*
X119199206Y-181557335D01*
X119285452Y-181672544D01*
X119285455Y-181672547D01*
X119400664Y-181758793D01*
X119400671Y-181758797D01*
X119535517Y-181809091D01*
X119535516Y-181809091D01*
X119542444Y-181809835D01*
X119595127Y-181815500D01*
X120901589Y-181815499D01*
X120968627Y-181835184D01*
X121014382Y-181887987D01*
X121024326Y-181957146D01*
X120995301Y-182020702D01*
X120941851Y-182056780D01*
X120738780Y-182126495D01*
X120738769Y-182126500D01*
X120538373Y-182234948D01*
X120512016Y-182255462D01*
X121083780Y-182827226D01*
X120990412Y-182865901D01*
X120865075Y-182962075D01*
X120768901Y-183087411D01*
X120730226Y-183180780D01*
X120159874Y-182610428D01*
X120079578Y-182733333D01*
X120079577Y-182733335D01*
X119988045Y-182942006D01*
X119932105Y-183162906D01*
X119932103Y-183162914D01*
X119913288Y-183389993D01*
X119913288Y-183390006D01*
X119932103Y-183617085D01*
X119932105Y-183617093D01*
X119988045Y-183837993D01*
X120079577Y-184046664D01*
X120079579Y-184046668D01*
X120159874Y-184169570D01*
X120730226Y-183599218D01*
X120768901Y-183692588D01*
X120865075Y-183817925D01*
X120990412Y-183914099D01*
X121083779Y-183952772D01*
X120512015Y-184524536D01*
X120512016Y-184524537D01*
X120538366Y-184545046D01*
X120538372Y-184545050D01*
X120738769Y-184653499D01*
X120738780Y-184653504D01*
X120954298Y-184727492D01*
X121179065Y-184765000D01*
X121406935Y-184765000D01*
X121631701Y-184727492D01*
X121847219Y-184653504D01*
X121847230Y-184653499D01*
X122047633Y-184545047D01*
X122073982Y-184524537D01*
X122073982Y-184524536D01*
X121502220Y-183952772D01*
X121595588Y-183914099D01*
X121720925Y-183817925D01*
X121817099Y-183692589D01*
X121855773Y-183599220D01*
X122426125Y-184169571D01*
X122506420Y-184046669D01*
X122597954Y-183837993D01*
X122653894Y-183617093D01*
X122653896Y-183617085D01*
X122672712Y-183390006D01*
X122672712Y-183389993D01*
X122653896Y-183162914D01*
X122653894Y-183162906D01*
X122597954Y-182942006D01*
X122506420Y-182733330D01*
X122426124Y-182610427D01*
X121855772Y-183180779D01*
X121817099Y-183087412D01*
X121720925Y-182962075D01*
X121595588Y-182865901D01*
X121502219Y-182827226D01*
X122073983Y-182255462D01*
X122073983Y-182255461D01*
X122047632Y-182234952D01*
X122047627Y-182234949D01*
X121847230Y-182126500D01*
X121847219Y-182126495D01*
X121631696Y-182052505D01*
X121631698Y-182052505D01*
X121582300Y-182044262D01*
X121519416Y-182013811D01*
X121482977Y-181954196D01*
X121484553Y-181884344D01*
X121523644Y-181826433D01*
X121559376Y-181805773D01*
X121685331Y-181758796D01*
X121800546Y-181672546D01*
X121886796Y-181557331D01*
X121905092Y-181508274D01*
X121946961Y-181452342D01*
X122012425Y-181427924D01*
X122080699Y-181442775D01*
X122097436Y-181453755D01*
X122274365Y-181591464D01*
X122274371Y-181591468D01*
X122274374Y-181591470D01*
X122424185Y-181672544D01*
X122477652Y-181701479D01*
X122478497Y-181701936D01*
X122575913Y-181735379D01*
X122698015Y-181777297D01*
X122698017Y-181777297D01*
X122698019Y-181777298D01*
X122926951Y-181815500D01*
X122926952Y-181815500D01*
X123159048Y-181815500D01*
X123159049Y-181815500D01*
X123387981Y-181777298D01*
X123607503Y-181701936D01*
X123811626Y-181591470D01*
X123994784Y-181448913D01*
X124151979Y-181278153D01*
X124189489Y-181220738D01*
X124242635Y-181175382D01*
X124311866Y-181165958D01*
X124375202Y-181195459D01*
X124389914Y-181212437D01*
X124391811Y-181212634D01*
X125059922Y-180544523D01*
X125083507Y-180624844D01*
X125161239Y-180745798D01*
X125269900Y-180839952D01*
X125400685Y-180899680D01*
X125410466Y-180901086D01*
X124744199Y-181567351D01*
X124774650Y-181591050D01*
X124978697Y-181701476D01*
X124978706Y-181701479D01*
X125198139Y-181776811D01*
X125426993Y-181815000D01*
X125659007Y-181815000D01*
X125887860Y-181776811D01*
X126107293Y-181701479D01*
X126107302Y-181701476D01*
X126311350Y-181591050D01*
X126341798Y-181567351D01*
X125675533Y-180901086D01*
X125685315Y-180899680D01*
X125816100Y-180839952D01*
X125924761Y-180745798D01*
X126002493Y-180624844D01*
X126026076Y-180544524D01*
X126694186Y-181212634D01*
X126778484Y-181083606D01*
X126871682Y-180871135D01*
X126928638Y-180646218D01*
X126947798Y-180415005D01*
X126947798Y-180414994D01*
X126928638Y-180183781D01*
X126871682Y-179958864D01*
X126778483Y-179746390D01*
X126694186Y-179617364D01*
X126026076Y-180285475D01*
X126002493Y-180205156D01*
X125924761Y-180084202D01*
X125816100Y-179990048D01*
X125685315Y-179930320D01*
X125675534Y-179928913D01*
X126341799Y-179262648D01*
X126341799Y-179262647D01*
X126311349Y-179238949D01*
X126107302Y-179128523D01*
X126107293Y-179128520D01*
X125887860Y-179053188D01*
X125659007Y-179015000D01*
X125426993Y-179015000D01*
X125198139Y-179053188D01*
X124978706Y-179128520D01*
X124978698Y-179128523D01*
X124774644Y-179238952D01*
X124744200Y-179262646D01*
X124744200Y-179262647D01*
X125410466Y-179928913D01*
X125400685Y-179930320D01*
X125269900Y-179990048D01*
X125161239Y-180084202D01*
X125083507Y-180205156D01*
X125059923Y-180285476D01*
X124391811Y-179617364D01*
X124387030Y-179617860D01*
X124343960Y-179654617D01*
X124274729Y-179664041D01*
X124211393Y-179634539D01*
X124189489Y-179609260D01*
X124151983Y-179551852D01*
X124151980Y-179551849D01*
X124151979Y-179551847D01*
X123994784Y-179381087D01*
X123994779Y-179381083D01*
X123994777Y-179381081D01*
X123811634Y-179238535D01*
X123811628Y-179238531D01*
X123607504Y-179128064D01*
X123607495Y-179128061D01*
X123387984Y-179052702D01*
X123197450Y-179020908D01*
X123159049Y-179014500D01*
X122926951Y-179014500D01*
X122888550Y-179020908D01*
X122698015Y-179052702D01*
X122478504Y-179128061D01*
X122478495Y-179128064D01*
X122274372Y-179238531D01*
X122097436Y-179376245D01*
X122032442Y-179401887D01*
X121963902Y-179388320D01*
X121913577Y-179339852D01*
X121905092Y-179321723D01*
X121886798Y-179272673D01*
X121886793Y-179272664D01*
X121800547Y-179157455D01*
X121800544Y-179157452D01*
X121685335Y-179071206D01*
X121685328Y-179071202D01*
X121550482Y-179020908D01*
X121550483Y-179020908D01*
X121490883Y-179014501D01*
X121490881Y-179014500D01*
X121490873Y-179014500D01*
X121490864Y-179014500D01*
X119595129Y-179014500D01*
X119595123Y-179014501D01*
X119535516Y-179020908D01*
X119400671Y-179071202D01*
X119400664Y-179071206D01*
X119285455Y-179157452D01*
X119285452Y-179157455D01*
X119199206Y-179272664D01*
X119199202Y-179272671D01*
X119148908Y-179407517D01*
X119142501Y-179467116D01*
X119142500Y-179467135D01*
X119142500Y-179665500D01*
X119122815Y-179732539D01*
X119070011Y-179778294D01*
X119018500Y-179789500D01*
X115997737Y-179789500D01*
X115982120Y-179787776D01*
X115982093Y-179788062D01*
X115974331Y-179787327D01*
X115905203Y-179789500D01*
X115875650Y-179789500D01*
X115874929Y-179789590D01*
X115868757Y-179790369D01*
X115862945Y-179790826D01*
X115816378Y-179792290D01*
X115816367Y-179792292D01*
X115797134Y-179797879D01*
X115778094Y-179801822D01*
X115758217Y-179804334D01*
X115758210Y-179804335D01*
X115758208Y-179804336D01*
X115758206Y-179804336D01*
X115758205Y-179804337D01*
X115714868Y-179821494D01*
X115709342Y-179823386D01*
X115664611Y-179836382D01*
X115664608Y-179836383D01*
X115647363Y-179846581D01*
X115629901Y-179855135D01*
X115611272Y-179862511D01*
X115611267Y-179862513D01*
X115573564Y-179889906D01*
X115568682Y-179893112D01*
X115528580Y-179916828D01*
X115514408Y-179931000D01*
X115499623Y-179943628D01*
X115483412Y-179955407D01*
X115453709Y-179991310D01*
X115449777Y-179995631D01*
X106315155Y-189130252D01*
X106253832Y-189163737D01*
X106184140Y-189158753D01*
X106128207Y-189116881D01*
X106103790Y-189051417D01*
X106106308Y-189016213D01*
X106143082Y-188847166D01*
X106163343Y-188754026D01*
X106182227Y-188490000D01*
X106163343Y-188225974D01*
X106116740Y-188011744D01*
X106107078Y-187967326D01*
X106056498Y-187831716D01*
X106014574Y-187719311D01*
X105940843Y-187584284D01*
X105887719Y-187486994D01*
X105887714Y-187486986D01*
X105729093Y-187275092D01*
X105729077Y-187275074D01*
X105541925Y-187087922D01*
X105541907Y-187087906D01*
X105330013Y-186929285D01*
X105330005Y-186929280D01*
X105097694Y-186802428D01*
X105097690Y-186802426D01*
X104849673Y-186709921D01*
X104591034Y-186653658D01*
X104591027Y-186653657D01*
X104327001Y-186634773D01*
X104326999Y-186634773D01*
X104062972Y-186653657D01*
X104062965Y-186653658D01*
X103804326Y-186709921D01*
X103556309Y-186802426D01*
X103556305Y-186802428D01*
X103323994Y-186929280D01*
X103323986Y-186929285D01*
X103112092Y-187087906D01*
X103112074Y-187087922D01*
X102924922Y-187275074D01*
X102924906Y-187275092D01*
X102766285Y-187486986D01*
X102766280Y-187486994D01*
X102639428Y-187719305D01*
X102639426Y-187719309D01*
X102546921Y-187967326D01*
X102490658Y-188225965D01*
X102490657Y-188225972D01*
X102471773Y-188489998D01*
X102471773Y-188490001D01*
X101670500Y-188490001D01*
X101670500Y-180810000D01*
X101934540Y-180810000D01*
X101954326Y-180998256D01*
X101954327Y-180998259D01*
X102012818Y-181178277D01*
X102012821Y-181178284D01*
X102107467Y-181342216D01*
X102234129Y-181482888D01*
X102387265Y-181594148D01*
X102387270Y-181594151D01*
X102560192Y-181671142D01*
X102560197Y-181671144D01*
X102745354Y-181710500D01*
X102745355Y-181710500D01*
X102934644Y-181710500D01*
X102934646Y-181710500D01*
X103119803Y-181671144D01*
X103292730Y-181594151D01*
X103445871Y-181482888D01*
X103572533Y-181342216D01*
X103667179Y-181178284D01*
X103684108Y-181126181D01*
X103723545Y-181068507D01*
X103787904Y-181041308D01*
X103802039Y-181040500D01*
X104502501Y-181040500D01*
X104569540Y-181060185D01*
X104615295Y-181112989D01*
X104626501Y-181164500D01*
X104626501Y-181362876D01*
X104632908Y-181422483D01*
X104683202Y-181557328D01*
X104683206Y-181557335D01*
X104769452Y-181672544D01*
X104769455Y-181672547D01*
X104884664Y-181758793D01*
X104884671Y-181758797D01*
X105019517Y-181809091D01*
X105019516Y-181809091D01*
X105026444Y-181809835D01*
X105079127Y-181815500D01*
X106385589Y-181815499D01*
X106452627Y-181835184D01*
X106498382Y-181887987D01*
X106508326Y-181957146D01*
X106479301Y-182020702D01*
X106425851Y-182056780D01*
X106222780Y-182126495D01*
X106222769Y-182126500D01*
X106022373Y-182234948D01*
X105996016Y-182255462D01*
X106567780Y-182827226D01*
X106474412Y-182865901D01*
X106349075Y-182962075D01*
X106252901Y-183087411D01*
X106214226Y-183180780D01*
X105643874Y-182610428D01*
X105563578Y-182733333D01*
X105563577Y-182733335D01*
X105472045Y-182942006D01*
X105416105Y-183162906D01*
X105416103Y-183162914D01*
X105397288Y-183389993D01*
X105397288Y-183390006D01*
X105416103Y-183617085D01*
X105416105Y-183617093D01*
X105472045Y-183837993D01*
X105563577Y-184046664D01*
X105563579Y-184046668D01*
X105643874Y-184169570D01*
X106214226Y-183599218D01*
X106252901Y-183692588D01*
X106349075Y-183817925D01*
X106474412Y-183914099D01*
X106567779Y-183952772D01*
X105996015Y-184524536D01*
X105996016Y-184524537D01*
X106022366Y-184545046D01*
X106022372Y-184545050D01*
X106222769Y-184653499D01*
X106222780Y-184653504D01*
X106438298Y-184727492D01*
X106663065Y-184765000D01*
X106890935Y-184765000D01*
X107115701Y-184727492D01*
X107331219Y-184653504D01*
X107331230Y-184653499D01*
X107531633Y-184545047D01*
X107557982Y-184524537D01*
X107557982Y-184524536D01*
X106986220Y-183952772D01*
X107079588Y-183914099D01*
X107204925Y-183817925D01*
X107301099Y-183692589D01*
X107339773Y-183599219D01*
X107910125Y-184169571D01*
X107990420Y-184046669D01*
X108081954Y-183837993D01*
X108137894Y-183617093D01*
X108137896Y-183617085D01*
X108156712Y-183390006D01*
X108156712Y-183389993D01*
X108137896Y-183162914D01*
X108137894Y-183162906D01*
X108081954Y-182942006D01*
X107990420Y-182733330D01*
X107910124Y-182610427D01*
X107339772Y-183180779D01*
X107301099Y-183087412D01*
X107204925Y-182962075D01*
X107079588Y-182865901D01*
X106986219Y-182827226D01*
X107557983Y-182255462D01*
X107557983Y-182255461D01*
X107531632Y-182234952D01*
X107531627Y-182234949D01*
X107331230Y-182126500D01*
X107331219Y-182126495D01*
X107115696Y-182052505D01*
X107115698Y-182052505D01*
X107066300Y-182044262D01*
X107003416Y-182013811D01*
X106966977Y-181954196D01*
X106968553Y-181884344D01*
X107007644Y-181826433D01*
X107043376Y-181805773D01*
X107169331Y-181758796D01*
X107284546Y-181672546D01*
X107370796Y-181557331D01*
X107389092Y-181508274D01*
X107430961Y-181452342D01*
X107496425Y-181427924D01*
X107564699Y-181442775D01*
X107581436Y-181453755D01*
X107758365Y-181591464D01*
X107758371Y-181591468D01*
X107758374Y-181591470D01*
X107908185Y-181672544D01*
X107961652Y-181701479D01*
X107962497Y-181701936D01*
X108059913Y-181735379D01*
X108182015Y-181777297D01*
X108182017Y-181777297D01*
X108182019Y-181777298D01*
X108410951Y-181815500D01*
X108410952Y-181815500D01*
X108643048Y-181815500D01*
X108643049Y-181815500D01*
X108871981Y-181777298D01*
X109091503Y-181701936D01*
X109295626Y-181591470D01*
X109478784Y-181448913D01*
X109635979Y-181278153D01*
X109673489Y-181220738D01*
X109726635Y-181175382D01*
X109795866Y-181165958D01*
X109859202Y-181195459D01*
X109873914Y-181212437D01*
X109875811Y-181212634D01*
X110543922Y-180544523D01*
X110567507Y-180624844D01*
X110645239Y-180745798D01*
X110753900Y-180839952D01*
X110884685Y-180899680D01*
X110894466Y-180901086D01*
X110228199Y-181567351D01*
X110258650Y-181591050D01*
X110462697Y-181701476D01*
X110462706Y-181701479D01*
X110682139Y-181776811D01*
X110910993Y-181815000D01*
X111143007Y-181815000D01*
X111371860Y-181776811D01*
X111591293Y-181701479D01*
X111591302Y-181701476D01*
X111795350Y-181591050D01*
X111825798Y-181567351D01*
X111159533Y-180901086D01*
X111169315Y-180899680D01*
X111300100Y-180839952D01*
X111408761Y-180745798D01*
X111486493Y-180624844D01*
X111510076Y-180544524D01*
X112178186Y-181212634D01*
X112262484Y-181083606D01*
X112355682Y-180871135D01*
X112412638Y-180646218D01*
X112431798Y-180415005D01*
X112431798Y-180414994D01*
X112412638Y-180183781D01*
X112355682Y-179958864D01*
X112262483Y-179746390D01*
X112178186Y-179617364D01*
X111510076Y-180285475D01*
X111486493Y-180205156D01*
X111408761Y-180084202D01*
X111300100Y-179990048D01*
X111169315Y-179930320D01*
X111159534Y-179928913D01*
X111825799Y-179262648D01*
X111825799Y-179262647D01*
X111795349Y-179238949D01*
X111591302Y-179128523D01*
X111591293Y-179128520D01*
X111371860Y-179053188D01*
X111143007Y-179015000D01*
X110910993Y-179015000D01*
X110682139Y-179053188D01*
X110462706Y-179128520D01*
X110462698Y-179128523D01*
X110258644Y-179238952D01*
X110228200Y-179262646D01*
X110228200Y-179262647D01*
X110894466Y-179928913D01*
X110884685Y-179930320D01*
X110753900Y-179990048D01*
X110645239Y-180084202D01*
X110567507Y-180205156D01*
X110543923Y-180285476D01*
X109875811Y-179617364D01*
X109871030Y-179617860D01*
X109827960Y-179654617D01*
X109758729Y-179664041D01*
X109695393Y-179634539D01*
X109673489Y-179609260D01*
X109635983Y-179551852D01*
X109635980Y-179551849D01*
X109635979Y-179551847D01*
X109478784Y-179381087D01*
X109478779Y-179381083D01*
X109478777Y-179381081D01*
X109295634Y-179238535D01*
X109295628Y-179238531D01*
X109091504Y-179128064D01*
X109091495Y-179128061D01*
X108871984Y-179052702D01*
X108681450Y-179020908D01*
X108643049Y-179014500D01*
X108410951Y-179014500D01*
X108372550Y-179020908D01*
X108182015Y-179052702D01*
X107962504Y-179128061D01*
X107962495Y-179128064D01*
X107758372Y-179238531D01*
X107581436Y-179376245D01*
X107516442Y-179401887D01*
X107447902Y-179388320D01*
X107397577Y-179339852D01*
X107389092Y-179321723D01*
X107370798Y-179272673D01*
X107370793Y-179272664D01*
X107284547Y-179157455D01*
X107284544Y-179157452D01*
X107169335Y-179071206D01*
X107169328Y-179071202D01*
X107034482Y-179020908D01*
X107034483Y-179020908D01*
X106974883Y-179014501D01*
X106974881Y-179014500D01*
X106974873Y-179014500D01*
X106974864Y-179014500D01*
X105079129Y-179014500D01*
X105079123Y-179014501D01*
X105019516Y-179020908D01*
X104884671Y-179071202D01*
X104884664Y-179071206D01*
X104769455Y-179157452D01*
X104769452Y-179157455D01*
X104683206Y-179272664D01*
X104683202Y-179272671D01*
X104632908Y-179407517D01*
X104626501Y-179467116D01*
X104626500Y-179467135D01*
X104626500Y-179665500D01*
X104606815Y-179732539D01*
X104554011Y-179778294D01*
X104502500Y-179789500D01*
X103317737Y-179789500D01*
X103302120Y-179787776D01*
X103302093Y-179788062D01*
X103294331Y-179787327D01*
X103225203Y-179789500D01*
X103195650Y-179789500D01*
X103194929Y-179789590D01*
X103188757Y-179790369D01*
X103182945Y-179790826D01*
X103136372Y-179792290D01*
X103136369Y-179792291D01*
X103117126Y-179797881D01*
X103098083Y-179801825D01*
X103078204Y-179804336D01*
X103078203Y-179804337D01*
X103034878Y-179821490D01*
X103029352Y-179823382D01*
X102984608Y-179836383D01*
X102984604Y-179836385D01*
X102967365Y-179846580D01*
X102949898Y-179855137D01*
X102931270Y-179862512D01*
X102899189Y-179885820D01*
X102833382Y-179909298D01*
X102826306Y-179909500D01*
X102745354Y-179909500D01*
X102712897Y-179916398D01*
X102560197Y-179948855D01*
X102560192Y-179948857D01*
X102387270Y-180025848D01*
X102387265Y-180025851D01*
X102234129Y-180137111D01*
X102107466Y-180277785D01*
X102012821Y-180441715D01*
X102012818Y-180441722D01*
X101954327Y-180621740D01*
X101954326Y-180621744D01*
X101934540Y-180810000D01*
X101670500Y-180810000D01*
X101670500Y-173980500D01*
X101976500Y-173980500D01*
X101991196Y-174176620D01*
X101991197Y-174176625D01*
X102049576Y-174432402D01*
X102049578Y-174432411D01*
X102049580Y-174432416D01*
X102145432Y-174676643D01*
X102276614Y-174903857D01*
X102360102Y-175008547D01*
X102440198Y-175108985D01*
X102619133Y-175275011D01*
X102632521Y-175287433D01*
X102849296Y-175435228D01*
X102849301Y-175435230D01*
X102849302Y-175435231D01*
X102849303Y-175435232D01*
X102974843Y-175495688D01*
X103085673Y-175549061D01*
X103085674Y-175549061D01*
X103085677Y-175549063D01*
X103336385Y-175626396D01*
X103595818Y-175665500D01*
X103858182Y-175665500D01*
X104117615Y-175626396D01*
X104368323Y-175549063D01*
X104604704Y-175435228D01*
X104821479Y-175287433D01*
X105009967Y-175112542D01*
X105013801Y-175108985D01*
X105013801Y-175108983D01*
X105013805Y-175108981D01*
X105177386Y-174903857D01*
X105308568Y-174676643D01*
X105404420Y-174432416D01*
X105462802Y-174176630D01*
X105477500Y-173980500D01*
X111576500Y-173980500D01*
X111591196Y-174176620D01*
X111591197Y-174176625D01*
X111649576Y-174432402D01*
X111649578Y-174432411D01*
X111649580Y-174432416D01*
X111745432Y-174676643D01*
X111876614Y-174903857D01*
X111960102Y-175008547D01*
X112040198Y-175108985D01*
X112219133Y-175275011D01*
X112232521Y-175287433D01*
X112449296Y-175435228D01*
X112449301Y-175435230D01*
X112449302Y-175435231D01*
X112449303Y-175435232D01*
X112574843Y-175495688D01*
X112685673Y-175549061D01*
X112685674Y-175549061D01*
X112685677Y-175549063D01*
X112936385Y-175626396D01*
X113195818Y-175665500D01*
X113458182Y-175665500D01*
X113717615Y-175626396D01*
X113968323Y-175549063D01*
X114204704Y-175435228D01*
X114421479Y-175287433D01*
X114609967Y-175112542D01*
X114613801Y-175108985D01*
X114613801Y-175108983D01*
X114613805Y-175108981D01*
X114777386Y-174903857D01*
X114908568Y-174676643D01*
X115004420Y-174432416D01*
X115062802Y-174176630D01*
X115077500Y-173980494D01*
X115077500Y-171849506D01*
X115062802Y-171653370D01*
X115004420Y-171397584D01*
X114908568Y-171153357D01*
X114777386Y-170926143D01*
X114613805Y-170721019D01*
X114613804Y-170721018D01*
X114613801Y-170721014D01*
X114421479Y-170542567D01*
X114400489Y-170528256D01*
X114204704Y-170394772D01*
X114204700Y-170394770D01*
X114204697Y-170394768D01*
X114204696Y-170394767D01*
X113968325Y-170280938D01*
X113968327Y-170280938D01*
X113717623Y-170203606D01*
X113717619Y-170203605D01*
X113717615Y-170203604D01*
X113592823Y-170184794D01*
X113458187Y-170164500D01*
X113458182Y-170164500D01*
X113195818Y-170164500D01*
X113195812Y-170164500D01*
X113046868Y-170186951D01*
X112936385Y-170203604D01*
X112936382Y-170203605D01*
X112936376Y-170203606D01*
X112685673Y-170280938D01*
X112449303Y-170394767D01*
X112449302Y-170394768D01*
X112232520Y-170542567D01*
X112040198Y-170721014D01*
X111876614Y-170926143D01*
X111745432Y-171153356D01*
X111649582Y-171397578D01*
X111649576Y-171397597D01*
X111591197Y-171653374D01*
X111591196Y-171653379D01*
X111576500Y-171849500D01*
X111576500Y-173980500D01*
X105477500Y-173980500D01*
X105477500Y-173980494D01*
X105477500Y-171849506D01*
X105462802Y-171653370D01*
X105404420Y-171397584D01*
X105308568Y-171153357D01*
X105177386Y-170926143D01*
X105013805Y-170721019D01*
X105013804Y-170721018D01*
X105013801Y-170721014D01*
X104821479Y-170542567D01*
X104800489Y-170528256D01*
X104604704Y-170394772D01*
X104604700Y-170394770D01*
X104604697Y-170394768D01*
X104604696Y-170394767D01*
X104368325Y-170280938D01*
X104368327Y-170280938D01*
X104117623Y-170203606D01*
X104117619Y-170203605D01*
X104117615Y-170203604D01*
X103992823Y-170184794D01*
X103858187Y-170164500D01*
X103858182Y-170164500D01*
X103595818Y-170164500D01*
X103595812Y-170164500D01*
X103446868Y-170186951D01*
X103336385Y-170203604D01*
X103336382Y-170203605D01*
X103336376Y-170203606D01*
X103085673Y-170280938D01*
X102849303Y-170394767D01*
X102849302Y-170394768D01*
X102632520Y-170542567D01*
X102440198Y-170721014D01*
X102276614Y-170926143D01*
X102145432Y-171153356D01*
X102049582Y-171397578D01*
X102049576Y-171397597D01*
X101991197Y-171653374D01*
X101991196Y-171653379D01*
X101976500Y-171849500D01*
X101976500Y-173980500D01*
X101670500Y-173980500D01*
X101670500Y-164339005D01*
X107021357Y-164339005D01*
X107041890Y-164586812D01*
X107041892Y-164586824D01*
X107102936Y-164827881D01*
X107202826Y-165055606D01*
X107338833Y-165263782D01*
X107338836Y-165263785D01*
X107507256Y-165446738D01*
X107703491Y-165599474D01*
X107922190Y-165717828D01*
X108157386Y-165798571D01*
X108402665Y-165839500D01*
X108651335Y-165839500D01*
X108896614Y-165798571D01*
X109131810Y-165717828D01*
X109350509Y-165599474D01*
X109546744Y-165446738D01*
X109715164Y-165263785D01*
X109851173Y-165055607D01*
X109951063Y-164827881D01*
X110012108Y-164586821D01*
X110032643Y-164339000D01*
X110012108Y-164091179D01*
X109951063Y-163850119D01*
X109926666Y-163794500D01*
X109851173Y-163622393D01*
X109715166Y-163414217D01*
X109693557Y-163390744D01*
X109546744Y-163231262D01*
X109350509Y-163078526D01*
X109350507Y-163078525D01*
X109350506Y-163078524D01*
X109131811Y-162960172D01*
X109131802Y-162960169D01*
X108896616Y-162879429D01*
X108651335Y-162838500D01*
X108402665Y-162838500D01*
X108157383Y-162879429D01*
X107922197Y-162960169D01*
X107922188Y-162960172D01*
X107703493Y-163078524D01*
X107507257Y-163231261D01*
X107338833Y-163414217D01*
X107202826Y-163622393D01*
X107102936Y-163850118D01*
X107041892Y-164091175D01*
X107041890Y-164091187D01*
X107021357Y-164338994D01*
X107021357Y-164339005D01*
X101670500Y-164339005D01*
X101670500Y-159339000D01*
X107027000Y-159339000D01*
X107127000Y-159939000D01*
X107612871Y-160522046D01*
X107627000Y-160539000D01*
X108527000Y-160839000D01*
X109427000Y-160539000D01*
X109927000Y-159939000D01*
X110027000Y-159339000D01*
X109927000Y-158739000D01*
X109551418Y-158288301D01*
X109427001Y-158139001D01*
X109426999Y-158138999D01*
X108527000Y-157839000D01*
X107627000Y-158138999D01*
X107626998Y-158139001D01*
X107127000Y-158738999D01*
X107027000Y-159339000D01*
X101670500Y-159339000D01*
X101670500Y-155839005D01*
X107021357Y-155839005D01*
X107041890Y-156086812D01*
X107041892Y-156086824D01*
X107102936Y-156327881D01*
X107202826Y-156555606D01*
X107338833Y-156763782D01*
X107338836Y-156763785D01*
X107507256Y-156946738D01*
X107703491Y-157099474D01*
X107922190Y-157217828D01*
X108157386Y-157298571D01*
X108402665Y-157339500D01*
X108651335Y-157339500D01*
X108896614Y-157298571D01*
X109131810Y-157217828D01*
X109350509Y-157099474D01*
X109546744Y-156946738D01*
X109715164Y-156763785D01*
X109851173Y-156555607D01*
X109951063Y-156327881D01*
X110012108Y-156086821D01*
X110018051Y-156015104D01*
X110032643Y-155839005D01*
X110032643Y-155838994D01*
X110012109Y-155591187D01*
X110012107Y-155591175D01*
X109951063Y-155350118D01*
X109851173Y-155122393D01*
X109715166Y-154914217D01*
X109685247Y-154881716D01*
X109546744Y-154731262D01*
X109350509Y-154578526D01*
X109350507Y-154578525D01*
X109350506Y-154578524D01*
X109131811Y-154460172D01*
X109131802Y-154460169D01*
X108896616Y-154379429D01*
X108651335Y-154338500D01*
X108402665Y-154338500D01*
X108157383Y-154379429D01*
X107922197Y-154460169D01*
X107922188Y-154460172D01*
X107703493Y-154578524D01*
X107507257Y-154731261D01*
X107338833Y-154914217D01*
X107202826Y-155122393D01*
X107102936Y-155350118D01*
X107041892Y-155591175D01*
X107041890Y-155591187D01*
X107021357Y-155838994D01*
X107021357Y-155839005D01*
X101670500Y-155839005D01*
X101670500Y-151839005D01*
X107021357Y-151839005D01*
X107041890Y-152086812D01*
X107041892Y-152086824D01*
X107102936Y-152327881D01*
X107202826Y-152555606D01*
X107338833Y-152763782D01*
X107338836Y-152763785D01*
X107507256Y-152946738D01*
X107703491Y-153099474D01*
X107729956Y-153113796D01*
X107914155Y-153213480D01*
X107922190Y-153217828D01*
X108157386Y-153298571D01*
X108402665Y-153339500D01*
X108651335Y-153339500D01*
X108896614Y-153298571D01*
X109131810Y-153217828D01*
X109350509Y-153099474D01*
X109546744Y-152946738D01*
X109715164Y-152763785D01*
X109851173Y-152555607D01*
X109951063Y-152327881D01*
X110012108Y-152086821D01*
X110019700Y-151995205D01*
X110032643Y-151839005D01*
X110032643Y-151838994D01*
X110012109Y-151591187D01*
X110012107Y-151591175D01*
X109951063Y-151350118D01*
X109851173Y-151122393D01*
X109715166Y-150914217D01*
X109693557Y-150890744D01*
X109546744Y-150731262D01*
X109350509Y-150578526D01*
X109350507Y-150578525D01*
X109350506Y-150578524D01*
X109131811Y-150460172D01*
X109131802Y-150460169D01*
X109120477Y-150456281D01*
X109063462Y-150415896D01*
X109037331Y-150351096D01*
X109050382Y-150282456D01*
X109098471Y-150231768D01*
X109120477Y-150221719D01*
X109124235Y-150220428D01*
X109131810Y-150217828D01*
X109350509Y-150099474D01*
X109546744Y-149946738D01*
X109715164Y-149763785D01*
X109851173Y-149555607D01*
X109951063Y-149327881D01*
X110012108Y-149086821D01*
X110022522Y-148961141D01*
X110032643Y-148839005D01*
X110032643Y-148838994D01*
X110012109Y-148591187D01*
X110012107Y-148591175D01*
X109951063Y-148350118D01*
X109851173Y-148122393D01*
X109715166Y-147914217D01*
X109693557Y-147890744D01*
X109546744Y-147731262D01*
X109350509Y-147578526D01*
X109350507Y-147578525D01*
X109350506Y-147578524D01*
X109131811Y-147460172D01*
X109131802Y-147460169D01*
X108896616Y-147379429D01*
X108651335Y-147338500D01*
X108402665Y-147338500D01*
X108157383Y-147379429D01*
X107922197Y-147460169D01*
X107922188Y-147460172D01*
X107703493Y-147578524D01*
X107507257Y-147731261D01*
X107338833Y-147914217D01*
X107202826Y-148122393D01*
X107102936Y-148350118D01*
X107041892Y-148591175D01*
X107041890Y-148591187D01*
X107021357Y-148838994D01*
X107021357Y-148839005D01*
X107041890Y-149086812D01*
X107041892Y-149086824D01*
X107102936Y-149327881D01*
X107202826Y-149555606D01*
X107338833Y-149763782D01*
X107338836Y-149763785D01*
X107507256Y-149946738D01*
X107703491Y-150099474D01*
X107922190Y-150217828D01*
X107932682Y-150221430D01*
X107933524Y-150221719D01*
X107990539Y-150262106D01*
X108016668Y-150326906D01*
X108003615Y-150395546D01*
X107955526Y-150446233D01*
X107933524Y-150456281D01*
X107922191Y-150460171D01*
X107922188Y-150460172D01*
X107703493Y-150578524D01*
X107507257Y-150731261D01*
X107338833Y-150914217D01*
X107202826Y-151122393D01*
X107102936Y-151350118D01*
X107041892Y-151591175D01*
X107041890Y-151591187D01*
X107021357Y-151838994D01*
X107021357Y-151839005D01*
X101670500Y-151839005D01*
X101670500Y-145339001D01*
X107627000Y-145339001D01*
X107726999Y-145788998D01*
X107727000Y-145789000D01*
X108027000Y-146139000D01*
X108026999Y-146139000D01*
X108527000Y-146239000D01*
X109027000Y-146139000D01*
X109327000Y-145789000D01*
X109427000Y-145339000D01*
X109422390Y-145318256D01*
X109390636Y-145175362D01*
X109327000Y-144889000D01*
X109326999Y-144888999D01*
X109326999Y-144888998D01*
X109027000Y-144588999D01*
X108527001Y-144439000D01*
X108526999Y-144439000D01*
X108026999Y-144588999D01*
X108026999Y-144589000D01*
X107727000Y-144888999D01*
X107627000Y-145338998D01*
X107627000Y-145339001D01*
X101670500Y-145339001D01*
X101670500Y-140339005D01*
X107021357Y-140339005D01*
X107041890Y-140586812D01*
X107041892Y-140586824D01*
X107102936Y-140827881D01*
X107202826Y-141055606D01*
X107338833Y-141263782D01*
X107338836Y-141263785D01*
X107507256Y-141446738D01*
X107703491Y-141599474D01*
X107922190Y-141717828D01*
X108157386Y-141798571D01*
X108402665Y-141839500D01*
X108651335Y-141839500D01*
X108896614Y-141798571D01*
X109131810Y-141717828D01*
X109350509Y-141599474D01*
X109546744Y-141446738D01*
X109715164Y-141263785D01*
X109851173Y-141055607D01*
X109951063Y-140827881D01*
X110012108Y-140586821D01*
X110032643Y-140339000D01*
X110012108Y-140091179D01*
X109951063Y-139850119D01*
X109935637Y-139814952D01*
X109851173Y-139622393D01*
X109715166Y-139414217D01*
X109680683Y-139376759D01*
X109546744Y-139231262D01*
X109350509Y-139078526D01*
X109350507Y-139078525D01*
X109350506Y-139078524D01*
X109131811Y-138960172D01*
X109131802Y-138960169D01*
X108896616Y-138879429D01*
X108651335Y-138838500D01*
X108402665Y-138838500D01*
X108157383Y-138879429D01*
X107922197Y-138960169D01*
X107922188Y-138960172D01*
X107703493Y-139078524D01*
X107507257Y-139231261D01*
X107338833Y-139414217D01*
X107202826Y-139622393D01*
X107102936Y-139850118D01*
X107041892Y-140091175D01*
X107041890Y-140091187D01*
X107021357Y-140338994D01*
X107021357Y-140339005D01*
X101670500Y-140339005D01*
X101670500Y-131174000D01*
X101690185Y-131106961D01*
X101742989Y-131061206D01*
X101794500Y-131050000D01*
X106928790Y-131050000D01*
X106995829Y-131069685D01*
G37*
G04 #@! TD.AperFunction*
G04 #@! TA.AperFunction,Conductor*
G36*
X157604307Y-178949343D02*
G01*
X157610785Y-178955375D01*
X157858181Y-179202771D01*
X157891666Y-179264094D01*
X157894500Y-179290452D01*
X157894500Y-185995844D01*
X157874815Y-186062883D01*
X157822011Y-186108638D01*
X157752853Y-186118582D01*
X157689297Y-186089557D01*
X157676785Y-186077044D01*
X157675085Y-186075082D01*
X157487925Y-185887922D01*
X157487907Y-185887906D01*
X157276013Y-185729285D01*
X157276005Y-185729280D01*
X157043694Y-185602428D01*
X157043690Y-185602426D01*
X156795673Y-185509921D01*
X156537034Y-185453658D01*
X156537027Y-185453657D01*
X156273001Y-185434773D01*
X156272999Y-185434773D01*
X156008972Y-185453657D01*
X156008965Y-185453658D01*
X155750326Y-185509921D01*
X155502309Y-185602426D01*
X155502305Y-185602428D01*
X155269994Y-185729280D01*
X155269986Y-185729285D01*
X155058092Y-185887906D01*
X155058074Y-185887922D01*
X154870922Y-186075074D01*
X154870906Y-186075092D01*
X154712285Y-186286986D01*
X154712280Y-186286994D01*
X154585428Y-186519305D01*
X154585426Y-186519309D01*
X154492921Y-186767326D01*
X154436658Y-187025965D01*
X154436657Y-187025972D01*
X154417773Y-187289998D01*
X154417773Y-187290001D01*
X154436657Y-187554027D01*
X154436658Y-187554034D01*
X154492921Y-187812673D01*
X154585426Y-188060690D01*
X154585428Y-188060694D01*
X154712280Y-188293005D01*
X154712285Y-188293013D01*
X154870906Y-188504907D01*
X154870922Y-188504925D01*
X155058074Y-188692077D01*
X155058092Y-188692093D01*
X155269986Y-188850714D01*
X155269994Y-188850719D01*
X155502305Y-188977571D01*
X155502309Y-188977573D01*
X155502311Y-188977574D01*
X155750322Y-189070077D01*
X155750325Y-189070077D01*
X155750326Y-189070078D01*
X155786702Y-189077991D01*
X156008974Y-189126343D01*
X156252660Y-189143772D01*
X156272999Y-189145227D01*
X156273000Y-189145227D01*
X156273001Y-189145227D01*
X156334985Y-189140793D01*
X156487641Y-189129875D01*
X156555914Y-189144727D01*
X156605319Y-189194132D01*
X156620171Y-189262405D01*
X156595754Y-189327869D01*
X156584168Y-189341240D01*
X153212653Y-192712755D01*
X153151330Y-192746240D01*
X153081638Y-192741256D01*
X153025705Y-192699384D01*
X153009680Y-192670721D01*
X152993512Y-192629887D01*
X152991619Y-192624358D01*
X152978618Y-192579609D01*
X152978616Y-192579606D01*
X152968423Y-192562371D01*
X152959861Y-192544894D01*
X152952487Y-192526270D01*
X152952486Y-192526268D01*
X152925079Y-192488545D01*
X152921888Y-192483686D01*
X152917253Y-192475849D01*
X152898170Y-192443580D01*
X152898168Y-192443578D01*
X152898165Y-192443574D01*
X152884006Y-192429415D01*
X152871368Y-192414619D01*
X152861075Y-192400452D01*
X152859594Y-192398413D01*
X152854373Y-192394094D01*
X152823688Y-192368709D01*
X152819376Y-192364786D01*
X150920803Y-190466212D01*
X150910980Y-190453950D01*
X150910759Y-190454134D01*
X150905786Y-190448123D01*
X150855364Y-190400773D01*
X150844919Y-190390328D01*
X150834475Y-190379883D01*
X150828986Y-190375625D01*
X150824561Y-190371847D01*
X150790582Y-190339938D01*
X150790580Y-190339936D01*
X150790577Y-190339935D01*
X150773029Y-190330288D01*
X150756763Y-190319604D01*
X150752327Y-190316163D01*
X150740936Y-190307327D01*
X150740935Y-190307326D01*
X150740933Y-190307325D01*
X150698168Y-190288818D01*
X150692922Y-190286248D01*
X150652093Y-190263803D01*
X150652092Y-190263802D01*
X150632693Y-190258822D01*
X150614281Y-190252518D01*
X150595898Y-190244562D01*
X150595892Y-190244560D01*
X150549874Y-190237272D01*
X150544152Y-190236087D01*
X150499021Y-190224500D01*
X150499019Y-190224500D01*
X150478984Y-190224500D01*
X150459586Y-190222973D01*
X150451333Y-190221666D01*
X150439805Y-190219840D01*
X150439804Y-190219840D01*
X150393416Y-190224225D01*
X150387578Y-190224500D01*
X149016423Y-190224500D01*
X148949384Y-190204815D01*
X148903629Y-190152011D01*
X148893685Y-190082853D01*
X148922710Y-190019297D01*
X148942113Y-190001233D01*
X149087907Y-189892093D01*
X149087907Y-189892092D01*
X149087915Y-189892087D01*
X149275087Y-189704915D01*
X149433716Y-189493011D01*
X149560574Y-189260689D01*
X149653077Y-189012678D01*
X149709343Y-188754026D01*
X149728227Y-188490000D01*
X149709343Y-188225974D01*
X149662740Y-188011744D01*
X149653078Y-187967326D01*
X149602498Y-187831716D01*
X149560574Y-187719311D01*
X149486843Y-187584284D01*
X149433719Y-187486994D01*
X149433714Y-187486986D01*
X149275093Y-187275092D01*
X149275077Y-187275074D01*
X149087925Y-187087922D01*
X149087907Y-187087906D01*
X148876013Y-186929285D01*
X148876005Y-186929280D01*
X148643694Y-186802428D01*
X148643690Y-186802426D01*
X148395673Y-186709921D01*
X148137034Y-186653658D01*
X148137027Y-186653657D01*
X147873001Y-186634773D01*
X147872999Y-186634773D01*
X147608972Y-186653657D01*
X147608968Y-186653657D01*
X147589603Y-186657870D01*
X147519912Y-186652884D01*
X147463979Y-186611011D01*
X147439564Y-186545546D01*
X147454417Y-186477274D01*
X147475564Y-186449025D01*
X148573788Y-185350801D01*
X148586042Y-185340986D01*
X148585859Y-185340764D01*
X148591866Y-185335792D01*
X148591877Y-185335786D01*
X148622775Y-185302882D01*
X148639227Y-185285364D01*
X148649671Y-185274918D01*
X148660120Y-185264471D01*
X148664379Y-185258978D01*
X148668152Y-185254561D01*
X148700062Y-185220582D01*
X148709715Y-185203020D01*
X148720389Y-185186770D01*
X148732673Y-185170936D01*
X148751180Y-185128167D01*
X148753749Y-185122924D01*
X148776196Y-185082093D01*
X148776197Y-185082092D01*
X148781177Y-185062691D01*
X148787478Y-185044288D01*
X148795438Y-185025896D01*
X148802730Y-184979849D01*
X148803911Y-184974152D01*
X148815500Y-184929019D01*
X148815500Y-184908983D01*
X148817027Y-184889582D01*
X148820160Y-184869804D01*
X148816207Y-184827990D01*
X148815775Y-184823415D01*
X148815500Y-184817577D01*
X148815500Y-183967619D01*
X148835185Y-183900580D01*
X148887989Y-183854825D01*
X148957147Y-183844881D01*
X149020703Y-183873906D01*
X149053056Y-183917809D01*
X149109577Y-184046664D01*
X149109579Y-184046668D01*
X149189874Y-184169570D01*
X149760226Y-183599218D01*
X149798901Y-183692588D01*
X149895075Y-183817925D01*
X150020412Y-183914099D01*
X150113779Y-183952772D01*
X149542015Y-184524536D01*
X149542016Y-184524537D01*
X149568366Y-184545046D01*
X149568372Y-184545050D01*
X149768769Y-184653499D01*
X149768780Y-184653504D01*
X149984298Y-184727492D01*
X150209065Y-184765000D01*
X150436935Y-184765000D01*
X150661701Y-184727492D01*
X150877219Y-184653504D01*
X150877230Y-184653499D01*
X151077633Y-184545047D01*
X151103982Y-184524537D01*
X151103982Y-184524536D01*
X150532220Y-183952772D01*
X150625588Y-183914099D01*
X150750925Y-183817925D01*
X150847099Y-183692589D01*
X150885773Y-183599220D01*
X151456125Y-184169571D01*
X151536420Y-184046669D01*
X151627954Y-183837993D01*
X151683894Y-183617093D01*
X151683896Y-183617085D01*
X151702712Y-183390006D01*
X151702712Y-183389993D01*
X151683896Y-183162914D01*
X151683894Y-183162906D01*
X151627954Y-182942006D01*
X151536420Y-182733330D01*
X151456124Y-182610427D01*
X150885772Y-183180779D01*
X150847099Y-183087412D01*
X150750925Y-182962075D01*
X150625588Y-182865901D01*
X150532219Y-182827226D01*
X151103983Y-182255462D01*
X151103983Y-182255461D01*
X151077632Y-182234952D01*
X151077627Y-182234949D01*
X150877230Y-182126500D01*
X150877219Y-182126495D01*
X150674147Y-182056780D01*
X150617132Y-182016394D01*
X150591001Y-181951595D01*
X150604053Y-181882955D01*
X150652141Y-181832267D01*
X150709623Y-181816787D01*
X150709576Y-181815900D01*
X150709571Y-181815854D01*
X150709573Y-181815853D01*
X150709564Y-181815676D01*
X150712857Y-181815499D01*
X150712872Y-181815499D01*
X150772483Y-181809091D01*
X150907331Y-181758796D01*
X151022546Y-181672546D01*
X151108796Y-181557331D01*
X151127092Y-181508274D01*
X151168961Y-181452342D01*
X151234425Y-181427924D01*
X151302699Y-181442775D01*
X151319436Y-181453755D01*
X151496365Y-181591464D01*
X151496371Y-181591468D01*
X151496374Y-181591470D01*
X151646185Y-181672544D01*
X151699652Y-181701479D01*
X151700497Y-181701936D01*
X151797913Y-181735379D01*
X151920015Y-181777297D01*
X151920017Y-181777297D01*
X151920019Y-181777298D01*
X152148951Y-181815500D01*
X152148952Y-181815500D01*
X152381048Y-181815500D01*
X152381049Y-181815500D01*
X152609981Y-181777298D01*
X152829503Y-181701936D01*
X153033626Y-181591470D01*
X153216784Y-181448913D01*
X153373979Y-181278153D01*
X153411489Y-181220738D01*
X153464635Y-181175382D01*
X153533866Y-181165958D01*
X153597202Y-181195459D01*
X153611914Y-181212437D01*
X153613811Y-181212634D01*
X154281922Y-180544523D01*
X154305507Y-180624844D01*
X154383239Y-180745798D01*
X154491900Y-180839952D01*
X154622685Y-180899680D01*
X154632466Y-180901086D01*
X153966199Y-181567351D01*
X153996650Y-181591050D01*
X154200697Y-181701476D01*
X154200706Y-181701479D01*
X154420139Y-181776811D01*
X154648993Y-181815000D01*
X154881007Y-181815000D01*
X155109860Y-181776811D01*
X155329293Y-181701479D01*
X155329302Y-181701476D01*
X155533350Y-181591050D01*
X155563798Y-181567351D01*
X154897533Y-180901086D01*
X154907315Y-180899680D01*
X155038100Y-180839952D01*
X155146761Y-180745798D01*
X155224493Y-180624844D01*
X155248076Y-180544524D01*
X155916186Y-181212634D01*
X155920295Y-181206346D01*
X155973441Y-181160989D01*
X156042672Y-181151565D01*
X156106008Y-181181067D01*
X156143340Y-181240127D01*
X156148104Y-181274167D01*
X156148104Y-181365942D01*
X156128419Y-181432981D01*
X156111785Y-181453623D01*
X152136208Y-185429199D01*
X152123951Y-185439020D01*
X152124134Y-185439241D01*
X152118123Y-185444213D01*
X152070772Y-185494636D01*
X152049889Y-185515519D01*
X152049877Y-185515532D01*
X152045621Y-185521017D01*
X152041837Y-185525447D01*
X152009937Y-185559418D01*
X152009936Y-185559420D01*
X152000284Y-185576976D01*
X151989610Y-185593226D01*
X151977329Y-185609061D01*
X151977324Y-185609068D01*
X151958815Y-185651838D01*
X151956245Y-185657084D01*
X151933803Y-185697906D01*
X151928822Y-185717307D01*
X151922521Y-185735710D01*
X151914562Y-185754102D01*
X151914561Y-185754105D01*
X151907271Y-185800127D01*
X151906087Y-185805846D01*
X151894501Y-185850972D01*
X151894500Y-185850982D01*
X151894500Y-185871016D01*
X151892973Y-185890415D01*
X151889840Y-185910194D01*
X151889840Y-185910195D01*
X151894225Y-185956583D01*
X151894500Y-185962421D01*
X151894500Y-187501312D01*
X151874815Y-187568351D01*
X151862650Y-187584284D01*
X151787466Y-187667784D01*
X151692821Y-187831715D01*
X151692818Y-187831722D01*
X151648758Y-187967326D01*
X151634326Y-188011744D01*
X151614540Y-188200000D01*
X151634326Y-188388256D01*
X151634327Y-188388259D01*
X151692818Y-188568277D01*
X151692821Y-188568284D01*
X151787467Y-188732216D01*
X151894165Y-188850716D01*
X151914129Y-188872888D01*
X152067265Y-188984148D01*
X152067270Y-188984151D01*
X152240192Y-189061142D01*
X152240197Y-189061144D01*
X152425354Y-189100500D01*
X152425355Y-189100500D01*
X152614644Y-189100500D01*
X152614646Y-189100500D01*
X152799803Y-189061144D01*
X152972730Y-188984151D01*
X153125871Y-188872888D01*
X153252533Y-188732216D01*
X153347179Y-188568284D01*
X153405674Y-188388256D01*
X153425460Y-188200000D01*
X153405674Y-188011744D01*
X153347179Y-187831716D01*
X153252533Y-187667784D01*
X153177350Y-187584284D01*
X153147120Y-187521292D01*
X153145500Y-187501312D01*
X153145500Y-186240452D01*
X153165185Y-186173413D01*
X153181819Y-186152771D01*
X155165020Y-184169570D01*
X157157392Y-182177197D01*
X157169646Y-182167382D01*
X157169463Y-182167160D01*
X157175470Y-182162188D01*
X157175481Y-182162182D01*
X157208993Y-182126495D01*
X157222831Y-182111760D01*
X157233275Y-182101314D01*
X157243724Y-182090867D01*
X157247983Y-182085374D01*
X157251756Y-182080957D01*
X157283666Y-182046978D01*
X157293317Y-182029420D01*
X157304000Y-182013157D01*
X157316277Y-181997332D01*
X157334789Y-181954549D01*
X157337342Y-181949337D01*
X157359801Y-181908488D01*
X157364784Y-181889076D01*
X157371085Y-181870676D01*
X157379041Y-181852292D01*
X157386333Y-181806248D01*
X157387510Y-181800567D01*
X157399104Y-181755415D01*
X157399104Y-181735379D01*
X157400631Y-181715978D01*
X157403764Y-181696200D01*
X157399379Y-181649811D01*
X157399104Y-181643973D01*
X157399104Y-179043056D01*
X157418789Y-178976017D01*
X157471593Y-178930262D01*
X157540751Y-178920318D01*
X157604307Y-178949343D01*
G37*
G04 #@! TD.AperFunction*
G04 #@! TA.AperFunction,Conductor*
G36*
X142996474Y-131308456D02*
G01*
X143045169Y-131358562D01*
X143059500Y-131416429D01*
X143059500Y-134247541D01*
X143050792Y-134293190D01*
X143048800Y-134298218D01*
X143043820Y-134317615D01*
X143037521Y-134336014D01*
X143029562Y-134354407D01*
X143029561Y-134354410D01*
X143022271Y-134400432D01*
X143021087Y-134406151D01*
X143009501Y-134451277D01*
X143009500Y-134451287D01*
X143009500Y-134471321D01*
X143007973Y-134490720D01*
X143004840Y-134510499D01*
X143004840Y-134510500D01*
X143009225Y-134556888D01*
X143009500Y-134562726D01*
X143009500Y-143813609D01*
X142989815Y-143880648D01*
X142937011Y-143926403D01*
X142867853Y-143936347D01*
X142835064Y-143926888D01*
X142659807Y-143848857D01*
X142659802Y-143848855D01*
X142493977Y-143813609D01*
X142474646Y-143809500D01*
X142474645Y-143809500D01*
X142415453Y-143809500D01*
X142348414Y-143789815D01*
X142327772Y-143773181D01*
X142320803Y-143766212D01*
X142310980Y-143753950D01*
X142310759Y-143754134D01*
X142305786Y-143748123D01*
X142288321Y-143731722D01*
X142255364Y-143700773D01*
X142244919Y-143690328D01*
X142234475Y-143679883D01*
X142228986Y-143675625D01*
X142224561Y-143671847D01*
X142190582Y-143639938D01*
X142190580Y-143639936D01*
X142190577Y-143639935D01*
X142173029Y-143630288D01*
X142156763Y-143619604D01*
X142140933Y-143607325D01*
X142098168Y-143588818D01*
X142092922Y-143586248D01*
X142052093Y-143563803D01*
X142052092Y-143563802D01*
X142032693Y-143558822D01*
X142014281Y-143552518D01*
X141995898Y-143544562D01*
X141995892Y-143544560D01*
X141949874Y-143537272D01*
X141944152Y-143536087D01*
X141899021Y-143524500D01*
X141899019Y-143524500D01*
X141878984Y-143524500D01*
X141859586Y-143522973D01*
X141852162Y-143521797D01*
X141839805Y-143519840D01*
X141839804Y-143519840D01*
X141793416Y-143524225D01*
X141787578Y-143524500D01*
X136571756Y-143524500D01*
X136504717Y-143504815D01*
X136479607Y-143483473D01*
X136455871Y-143457112D01*
X136455864Y-143457106D01*
X136302734Y-143345851D01*
X136302729Y-143345848D01*
X136129807Y-143268857D01*
X136129802Y-143268855D01*
X135984001Y-143237865D01*
X135944646Y-143229500D01*
X135755354Y-143229500D01*
X135722897Y-143236398D01*
X135570197Y-143268855D01*
X135570192Y-143268857D01*
X135397270Y-143345848D01*
X135397265Y-143345851D01*
X135244129Y-143457111D01*
X135117466Y-143597785D01*
X135022821Y-143761715D01*
X135022818Y-143761722D01*
X134964327Y-143941740D01*
X134964326Y-143941744D01*
X134944540Y-144130000D01*
X134964326Y-144318256D01*
X134964327Y-144318259D01*
X135017590Y-144482188D01*
X135019585Y-144552030D01*
X134983504Y-144611862D01*
X134920803Y-144642690D01*
X134851389Y-144634725D01*
X134808796Y-144600887D01*
X134806881Y-144602613D01*
X134733006Y-144520567D01*
X134675871Y-144457112D01*
X134650942Y-144439000D01*
X134522734Y-144345851D01*
X134522729Y-144345848D01*
X134349807Y-144268857D01*
X134349802Y-144268855D01*
X134204001Y-144237865D01*
X134164646Y-144229500D01*
X133975354Y-144229500D01*
X133942897Y-144236398D01*
X133790197Y-144268855D01*
X133790192Y-144268857D01*
X133679560Y-144318115D01*
X133610310Y-144327400D01*
X133547033Y-144297772D01*
X133509820Y-144238637D01*
X133505803Y-144191878D01*
X133513321Y-144120344D01*
X133539906Y-144055732D01*
X133548952Y-144045636D01*
X135393786Y-142200802D01*
X135406048Y-142190980D01*
X135405865Y-142190759D01*
X135411867Y-142185792D01*
X135411877Y-142185786D01*
X135459241Y-142135348D01*
X135480120Y-142114470D01*
X135484373Y-142108986D01*
X135488150Y-142104563D01*
X135520062Y-142070582D01*
X135529714Y-142053023D01*
X135540389Y-142036772D01*
X135552674Y-142020936D01*
X135571186Y-141978152D01*
X135573742Y-141972935D01*
X135595708Y-141932982D01*
X135596194Y-141932098D01*
X135596194Y-141932097D01*
X135596197Y-141932092D01*
X135601180Y-141912680D01*
X135607477Y-141894291D01*
X135615438Y-141875895D01*
X135622729Y-141829853D01*
X135623908Y-141824162D01*
X135635500Y-141779019D01*
X135635500Y-141758983D01*
X135637027Y-141739582D01*
X135637937Y-141733838D01*
X135640160Y-141719804D01*
X135635775Y-141673415D01*
X135635500Y-141667577D01*
X135635500Y-140339005D01*
X136052357Y-140339005D01*
X136072890Y-140586812D01*
X136072892Y-140586824D01*
X136133936Y-140827881D01*
X136233826Y-141055606D01*
X136369833Y-141263782D01*
X136369836Y-141263785D01*
X136538256Y-141446738D01*
X136734491Y-141599474D01*
X136953190Y-141717828D01*
X137188386Y-141798571D01*
X137433665Y-141839500D01*
X137682335Y-141839500D01*
X137927614Y-141798571D01*
X138162810Y-141717828D01*
X138381509Y-141599474D01*
X138577744Y-141446738D01*
X138746164Y-141263785D01*
X138882173Y-141055607D01*
X138982063Y-140827881D01*
X139043108Y-140586821D01*
X139063643Y-140339000D01*
X139043108Y-140091179D01*
X138982063Y-139850119D01*
X138966637Y-139814952D01*
X138882173Y-139622393D01*
X138746166Y-139414217D01*
X138711683Y-139376759D01*
X138577744Y-139231262D01*
X138381509Y-139078526D01*
X138381507Y-139078525D01*
X138381506Y-139078524D01*
X138162811Y-138960172D01*
X138162802Y-138960169D01*
X137927616Y-138879429D01*
X137682335Y-138838500D01*
X137433665Y-138838500D01*
X137188383Y-138879429D01*
X136953197Y-138960169D01*
X136953188Y-138960172D01*
X136734493Y-139078524D01*
X136538257Y-139231261D01*
X136369833Y-139414217D01*
X136233826Y-139622393D01*
X136133936Y-139850118D01*
X136072892Y-140091175D01*
X136072890Y-140091187D01*
X136052357Y-140338994D01*
X136052357Y-140339005D01*
X135635500Y-140339005D01*
X135635500Y-136339005D01*
X136052357Y-136339005D01*
X136072890Y-136586812D01*
X136072892Y-136586824D01*
X136133936Y-136827881D01*
X136233826Y-137055606D01*
X136369833Y-137263782D01*
X136402245Y-137298991D01*
X136538256Y-137446738D01*
X136734491Y-137599474D01*
X136734493Y-137599475D01*
X136926490Y-137703379D01*
X136953190Y-137717828D01*
X137188386Y-137798571D01*
X137433665Y-137839500D01*
X137682335Y-137839500D01*
X137927614Y-137798571D01*
X138162810Y-137717828D01*
X138381509Y-137599474D01*
X138577744Y-137446738D01*
X138746164Y-137263785D01*
X138882173Y-137055607D01*
X138982063Y-136827881D01*
X139043108Y-136586821D01*
X139063643Y-136339000D01*
X139054603Y-136229909D01*
X139043109Y-136091187D01*
X139043107Y-136091175D01*
X138982063Y-135850118D01*
X138882173Y-135622393D01*
X138746166Y-135414217D01*
X138724557Y-135390744D01*
X138577744Y-135231262D01*
X138381509Y-135078526D01*
X138381507Y-135078525D01*
X138381506Y-135078524D01*
X138162811Y-134960172D01*
X138162802Y-134960169D01*
X137927616Y-134879429D01*
X137682335Y-134838500D01*
X137433665Y-134838500D01*
X137188383Y-134879429D01*
X136953197Y-134960169D01*
X136953188Y-134960172D01*
X136734493Y-135078524D01*
X136538257Y-135231261D01*
X136369833Y-135414217D01*
X136233826Y-135622393D01*
X136133936Y-135850118D01*
X136072892Y-136091175D01*
X136072890Y-136091187D01*
X136052357Y-136338994D01*
X136052357Y-136339005D01*
X135635500Y-136339005D01*
X135635500Y-135900898D01*
X135655185Y-135833859D01*
X135667345Y-135817931D01*
X135762533Y-135712216D01*
X135857179Y-135548284D01*
X135915674Y-135368256D01*
X135935460Y-135180000D01*
X135915674Y-134991744D01*
X135857179Y-134811716D01*
X135762533Y-134647784D01*
X135635871Y-134507112D01*
X135635870Y-134507111D01*
X135482734Y-134395851D01*
X135482729Y-134395848D01*
X135309807Y-134318857D01*
X135309802Y-134318855D01*
X135164001Y-134287865D01*
X135124646Y-134279500D01*
X134935354Y-134279500D01*
X134902897Y-134286398D01*
X134750197Y-134318855D01*
X134750192Y-134318857D01*
X134577270Y-134395848D01*
X134577265Y-134395851D01*
X134424129Y-134507111D01*
X134297466Y-134647785D01*
X134202821Y-134811715D01*
X134202818Y-134811722D01*
X134144327Y-134991740D01*
X134144326Y-134991744D01*
X134124540Y-135180000D01*
X134144326Y-135368256D01*
X134144327Y-135368259D01*
X134202818Y-135548277D01*
X134202821Y-135548284D01*
X134297466Y-135712215D01*
X134352649Y-135773501D01*
X134382880Y-135836493D01*
X134384500Y-135856474D01*
X134384500Y-141389547D01*
X134364815Y-141456586D01*
X134348181Y-141477228D01*
X132662228Y-143163181D01*
X132600905Y-143196666D01*
X132574547Y-143199500D01*
X132515354Y-143199500D01*
X132482897Y-143206398D01*
X132330197Y-143238855D01*
X132330192Y-143238857D01*
X132157270Y-143315848D01*
X132157265Y-143315851D01*
X132004129Y-143427111D01*
X131877466Y-143567785D01*
X131782821Y-143731715D01*
X131782818Y-143731722D01*
X131724327Y-143911740D01*
X131724326Y-143911744D01*
X131704540Y-144100000D01*
X131724326Y-144288256D01*
X131724327Y-144288259D01*
X131782818Y-144468277D01*
X131782821Y-144468284D01*
X131877467Y-144632216D01*
X131946993Y-144709432D01*
X132004129Y-144772888D01*
X132157265Y-144884148D01*
X132157270Y-144884151D01*
X132330192Y-144961142D01*
X132330197Y-144961144D01*
X132515354Y-145000500D01*
X132515355Y-145000500D01*
X132704644Y-145000500D01*
X132704646Y-145000500D01*
X132889803Y-144961144D01*
X133000442Y-144911883D01*
X133069688Y-144902598D01*
X133132965Y-144932226D01*
X133170179Y-144991360D01*
X133174196Y-145038123D01*
X133164540Y-145130000D01*
X133184326Y-145318256D01*
X133184327Y-145318259D01*
X133242818Y-145498277D01*
X133242821Y-145498284D01*
X133337467Y-145662216D01*
X133364346Y-145692068D01*
X133412650Y-145745715D01*
X133442880Y-145808706D01*
X133444500Y-145828687D01*
X133444500Y-148268255D01*
X133442775Y-148283872D01*
X133443061Y-148283899D01*
X133442326Y-148291665D01*
X133444500Y-148360814D01*
X133444500Y-148390343D01*
X133444501Y-148390360D01*
X133445368Y-148397231D01*
X133445826Y-148403050D01*
X133447290Y-148449624D01*
X133447291Y-148449627D01*
X133452880Y-148468867D01*
X133456824Y-148487911D01*
X133459336Y-148507791D01*
X133476490Y-148551119D01*
X133478382Y-148556647D01*
X133491381Y-148601388D01*
X133501580Y-148618634D01*
X133510138Y-148636103D01*
X133517514Y-148654732D01*
X133544898Y-148692423D01*
X133548106Y-148697307D01*
X133571827Y-148737416D01*
X133571833Y-148737424D01*
X133585990Y-148751580D01*
X133598628Y-148766376D01*
X133610405Y-148782586D01*
X133610406Y-148782587D01*
X133646309Y-148812288D01*
X133650620Y-148816210D01*
X134890452Y-150056042D01*
X136094338Y-151259928D01*
X136127823Y-151321251D01*
X136126863Y-151378049D01*
X136072892Y-151591174D01*
X136072890Y-151591187D01*
X136052357Y-151838994D01*
X136052357Y-151839005D01*
X136072890Y-152086812D01*
X136072892Y-152086824D01*
X136133936Y-152327881D01*
X136233826Y-152555606D01*
X136369833Y-152763782D01*
X136369836Y-152763785D01*
X136538256Y-152946738D01*
X136734491Y-153099474D01*
X136760956Y-153113796D01*
X136945155Y-153213480D01*
X136953190Y-153217828D01*
X137188386Y-153298571D01*
X137433665Y-153339500D01*
X137682335Y-153339500D01*
X137927614Y-153298571D01*
X138162810Y-153217828D01*
X138381509Y-153099474D01*
X138577744Y-152946738D01*
X138746164Y-152763785D01*
X138882173Y-152555607D01*
X138982063Y-152327881D01*
X139043108Y-152086821D01*
X139050700Y-151995205D01*
X139063643Y-151839005D01*
X139063643Y-151838994D01*
X139043109Y-151591187D01*
X139043107Y-151591175D01*
X138982063Y-151350118D01*
X138882173Y-151122393D01*
X138746166Y-150914217D01*
X138724557Y-150890744D01*
X138577744Y-150731262D01*
X138381509Y-150578526D01*
X138381507Y-150578525D01*
X138381506Y-150578524D01*
X138162811Y-150460172D01*
X138162802Y-150460169D01*
X138151477Y-150456281D01*
X138094462Y-150415896D01*
X138068331Y-150351096D01*
X138081382Y-150282456D01*
X138129471Y-150231768D01*
X138151477Y-150221719D01*
X138155235Y-150220428D01*
X138162810Y-150217828D01*
X138381509Y-150099474D01*
X138577744Y-149946738D01*
X138746164Y-149763785D01*
X138882173Y-149555607D01*
X138982063Y-149327881D01*
X139043108Y-149086821D01*
X139053522Y-148961141D01*
X139063643Y-148839005D01*
X139063643Y-148838994D01*
X139043109Y-148591187D01*
X139043107Y-148591175D01*
X138982063Y-148350118D01*
X138882173Y-148122393D01*
X138746166Y-147914217D01*
X138724557Y-147890744D01*
X138577744Y-147731262D01*
X138381509Y-147578526D01*
X138381507Y-147578525D01*
X138381506Y-147578524D01*
X138162811Y-147460172D01*
X138162802Y-147460169D01*
X137927616Y-147379429D01*
X137682335Y-147338500D01*
X137433665Y-147338500D01*
X137188383Y-147379429D01*
X136953197Y-147460169D01*
X136953188Y-147460172D01*
X136734493Y-147578524D01*
X136538257Y-147731261D01*
X136369833Y-147914217D01*
X136233826Y-148122393D01*
X136133936Y-148350118D01*
X136072892Y-148591175D01*
X136072890Y-148591187D01*
X136052357Y-148838994D01*
X136052357Y-148839005D01*
X136072890Y-149086812D01*
X136072892Y-149086824D01*
X136092042Y-149162443D01*
X136089417Y-149232263D01*
X136049461Y-149289581D01*
X135984859Y-149316197D01*
X135916123Y-149303663D01*
X135884155Y-149280564D01*
X134731819Y-148128228D01*
X134698334Y-148066905D01*
X134695500Y-148040547D01*
X134695500Y-145828687D01*
X134715185Y-145761648D01*
X134727350Y-145745715D01*
X134758473Y-145711149D01*
X134802533Y-145662216D01*
X134897179Y-145498284D01*
X134955674Y-145318256D01*
X134975460Y-145130000D01*
X134955674Y-144941744D01*
X134902409Y-144777811D01*
X134900414Y-144707970D01*
X134936494Y-144648137D01*
X134999195Y-144617309D01*
X135068610Y-144625274D01*
X135111207Y-144659107D01*
X135113119Y-144657387D01*
X135244129Y-144802888D01*
X135397265Y-144914148D01*
X135397270Y-144914151D01*
X135570192Y-144991142D01*
X135570197Y-144991144D01*
X135755354Y-145030500D01*
X135755355Y-145030500D01*
X135944644Y-145030500D01*
X135944646Y-145030500D01*
X136129803Y-144991144D01*
X136302730Y-144914151D01*
X136455871Y-144802888D01*
X136455870Y-144802888D01*
X136460972Y-144799182D01*
X136526778Y-144775702D01*
X136533857Y-144775500D01*
X136628642Y-144775500D01*
X136695681Y-144795185D01*
X136741436Y-144847989D01*
X136751380Y-144917147D01*
X136749689Y-144926399D01*
X136658000Y-145338998D01*
X136658000Y-145339001D01*
X136757999Y-145788998D01*
X136758000Y-145789000D01*
X137058000Y-146139000D01*
X137057999Y-146139000D01*
X137558000Y-146239000D01*
X138058000Y-146139000D01*
X138358000Y-145789000D01*
X138458000Y-145339000D01*
X138453390Y-145318256D01*
X138366311Y-144926399D01*
X138370984Y-144856686D01*
X138412605Y-144800566D01*
X138477959Y-144775857D01*
X138487358Y-144775500D01*
X141369774Y-144775500D01*
X141436813Y-144795185D01*
X141482568Y-144847989D01*
X141493093Y-144886532D01*
X141494326Y-144898256D01*
X141494327Y-144898259D01*
X141552818Y-145078277D01*
X141552821Y-145078284D01*
X141647467Y-145242216D01*
X141715934Y-145318256D01*
X141774129Y-145382888D01*
X141927265Y-145494148D01*
X141927270Y-145494151D01*
X142100192Y-145571142D01*
X142100197Y-145571144D01*
X142285354Y-145610500D01*
X142285355Y-145610500D01*
X142474644Y-145610500D01*
X142474646Y-145610500D01*
X142659803Y-145571144D01*
X142832730Y-145494151D01*
X142832734Y-145494147D01*
X142835063Y-145493111D01*
X142904313Y-145483825D01*
X142967590Y-145513453D01*
X143004804Y-145572588D01*
X143009500Y-145606390D01*
X143009500Y-162332255D01*
X143007775Y-162347872D01*
X143008061Y-162347899D01*
X143007326Y-162355665D01*
X143009500Y-162424814D01*
X143009500Y-162454343D01*
X143009501Y-162454360D01*
X143010368Y-162461231D01*
X143010826Y-162467050D01*
X143012290Y-162513624D01*
X143012291Y-162513627D01*
X143017880Y-162532867D01*
X143021824Y-162551911D01*
X143024336Y-162571791D01*
X143041490Y-162615119D01*
X143043382Y-162620647D01*
X143056381Y-162665388D01*
X143066580Y-162682634D01*
X143075138Y-162700103D01*
X143082514Y-162718732D01*
X143109898Y-162756423D01*
X143113106Y-162761307D01*
X143136827Y-162801416D01*
X143136833Y-162801424D01*
X143150990Y-162815580D01*
X143163628Y-162830376D01*
X143175405Y-162846586D01*
X143175406Y-162846587D01*
X143211309Y-162876288D01*
X143215620Y-162880210D01*
X143637624Y-163302214D01*
X143928181Y-163592771D01*
X143961666Y-163654094D01*
X143964500Y-163680452D01*
X143964500Y-170767532D01*
X143944815Y-170834571D01*
X143892011Y-170880326D01*
X143822853Y-170890270D01*
X143759297Y-170861245D01*
X143743553Y-170844845D01*
X143644801Y-170721014D01*
X143452479Y-170542567D01*
X143431489Y-170528256D01*
X143235704Y-170394772D01*
X143235700Y-170394770D01*
X143235697Y-170394768D01*
X143235696Y-170394767D01*
X142999325Y-170280938D01*
X142999327Y-170280938D01*
X142748623Y-170203606D01*
X142748619Y-170203605D01*
X142748615Y-170203604D01*
X142623823Y-170184794D01*
X142489187Y-170164500D01*
X142489182Y-170164500D01*
X142226818Y-170164500D01*
X142226812Y-170164500D01*
X142077868Y-170186951D01*
X141967385Y-170203604D01*
X141967382Y-170203605D01*
X141967376Y-170203606D01*
X141716673Y-170280938D01*
X141480303Y-170394767D01*
X141480302Y-170394768D01*
X141263520Y-170542567D01*
X141071198Y-170721014D01*
X140907614Y-170926143D01*
X140776432Y-171153356D01*
X140680582Y-171397578D01*
X140680576Y-171397597D01*
X140622197Y-171653374D01*
X140622196Y-171653379D01*
X140607500Y-171849500D01*
X140607500Y-173980500D01*
X140622196Y-174176620D01*
X140622197Y-174176625D01*
X140680576Y-174432402D01*
X140680578Y-174432411D01*
X140680580Y-174432416D01*
X140776432Y-174676643D01*
X140907614Y-174903857D01*
X140991102Y-175008547D01*
X141071198Y-175108985D01*
X141250133Y-175275011D01*
X141263521Y-175287433D01*
X141480296Y-175435228D01*
X141480301Y-175435230D01*
X141480302Y-175435231D01*
X141480303Y-175435232D01*
X141605843Y-175495688D01*
X141716673Y-175549061D01*
X141716674Y-175549061D01*
X141716677Y-175549063D01*
X141967385Y-175626396D01*
X142226818Y-175665500D01*
X142489182Y-175665500D01*
X142748615Y-175626396D01*
X142999323Y-175549063D01*
X143235704Y-175435228D01*
X143452479Y-175287433D01*
X143640967Y-175112542D01*
X143644801Y-175108985D01*
X143644801Y-175108983D01*
X143644805Y-175108981D01*
X143743554Y-174985152D01*
X143800741Y-174945014D01*
X143870553Y-174942164D01*
X143930823Y-174977509D01*
X143962416Y-175039828D01*
X143964500Y-175062467D01*
X143964500Y-182942671D01*
X143944815Y-183009710D01*
X143892011Y-183055465D01*
X143822853Y-183065409D01*
X143767616Y-183042990D01*
X143702733Y-182995851D01*
X143702729Y-182995848D01*
X143529807Y-182918857D01*
X143529802Y-182918855D01*
X143384001Y-182887865D01*
X143344646Y-182879500D01*
X143155354Y-182879500D01*
X143122897Y-182886398D01*
X142970197Y-182918855D01*
X142970192Y-182918857D01*
X142797270Y-182995848D01*
X142797265Y-182995851D01*
X142644129Y-183107111D01*
X142517465Y-183247785D01*
X142457009Y-183352500D01*
X142406442Y-183400716D01*
X142349622Y-183414500D01*
X140073748Y-183414500D01*
X140006709Y-183394815D01*
X139981600Y-183373474D01*
X139975873Y-183367114D01*
X139975869Y-183367110D01*
X139822734Y-183255851D01*
X139822729Y-183255848D01*
X139649807Y-183178857D01*
X139649802Y-183178855D01*
X139504001Y-183147865D01*
X139464646Y-183139500D01*
X139275354Y-183139500D01*
X139242897Y-183146398D01*
X139090197Y-183178855D01*
X139090192Y-183178857D01*
X138917270Y-183255848D01*
X138917265Y-183255851D01*
X138764129Y-183367111D01*
X138637466Y-183507785D01*
X138542821Y-183671715D01*
X138542818Y-183671722D01*
X138486556Y-183844881D01*
X138484326Y-183851744D01*
X138464540Y-184040000D01*
X138484326Y-184228256D01*
X138484327Y-184228259D01*
X138542818Y-184408277D01*
X138542821Y-184408284D01*
X138637467Y-184572216D01*
X138734967Y-184680500D01*
X138764129Y-184712888D01*
X138917265Y-184824148D01*
X138917270Y-184824151D01*
X139090192Y-184901142D01*
X139090197Y-184901144D01*
X139275354Y-184940500D01*
X139275355Y-184940500D01*
X139464644Y-184940500D01*
X139464646Y-184940500D01*
X139649803Y-184901144D01*
X139822730Y-184824151D01*
X139975871Y-184712888D01*
X139978788Y-184709647D01*
X139981600Y-184706526D01*
X140041087Y-184669879D01*
X140073748Y-184665500D01*
X142907257Y-184665500D01*
X142922877Y-184667224D01*
X142922904Y-184666939D01*
X142930660Y-184667671D01*
X142930667Y-184667673D01*
X142999814Y-184665500D01*
X143029350Y-184665500D01*
X143036230Y-184664630D01*
X143042037Y-184664172D01*
X143058844Y-184663644D01*
X143088515Y-184666292D01*
X143155354Y-184680500D01*
X143155355Y-184680500D01*
X143344644Y-184680500D01*
X143344646Y-184680500D01*
X143529803Y-184641144D01*
X143702730Y-184564151D01*
X143767617Y-184517007D01*
X143833420Y-184493529D01*
X143901474Y-184509354D01*
X143950169Y-184559459D01*
X143964500Y-184617327D01*
X143964500Y-185801312D01*
X143944815Y-185868351D01*
X143932650Y-185884284D01*
X143857466Y-185967784D01*
X143762821Y-186131715D01*
X143762818Y-186131722D01*
X143704327Y-186311740D01*
X143704326Y-186311744D01*
X143690054Y-186447537D01*
X143685565Y-186490249D01*
X143658980Y-186554863D01*
X143601683Y-186594848D01*
X143531864Y-186597508D01*
X143471690Y-186561998D01*
X143447670Y-186523215D01*
X143447411Y-186523334D01*
X143446477Y-186521290D01*
X143446062Y-186520619D01*
X143445574Y-186519312D01*
X143445571Y-186519305D01*
X143318719Y-186286994D01*
X143318714Y-186286986D01*
X143160093Y-186075092D01*
X143160077Y-186075074D01*
X142972925Y-185887922D01*
X142972907Y-185887906D01*
X142761013Y-185729285D01*
X142761005Y-185729280D01*
X142528694Y-185602428D01*
X142528690Y-185602426D01*
X142280673Y-185509921D01*
X142022034Y-185453658D01*
X142022027Y-185453657D01*
X141758001Y-185434773D01*
X141757999Y-185434773D01*
X141493972Y-185453657D01*
X141493965Y-185453658D01*
X141235326Y-185509921D01*
X140987309Y-185602426D01*
X140987305Y-185602428D01*
X140754994Y-185729280D01*
X140754986Y-185729285D01*
X140543092Y-185887906D01*
X140543074Y-185887922D01*
X140355922Y-186075074D01*
X140355906Y-186075092D01*
X140197285Y-186286986D01*
X140197280Y-186286994D01*
X140070428Y-186519305D01*
X140070426Y-186519309D01*
X139977921Y-186767326D01*
X139921658Y-187025965D01*
X139921657Y-187025972D01*
X139902773Y-187289998D01*
X139902773Y-187290001D01*
X139921657Y-187554027D01*
X139921658Y-187554034D01*
X139977921Y-187812673D01*
X140070426Y-188060690D01*
X140070428Y-188060694D01*
X140197280Y-188293005D01*
X140197285Y-188293013D01*
X140355906Y-188504907D01*
X140355922Y-188504925D01*
X140543074Y-188692077D01*
X140543092Y-188692093D01*
X140675528Y-188791233D01*
X140717400Y-188847166D01*
X140722384Y-188916858D01*
X140688899Y-188978181D01*
X140627576Y-189011666D01*
X140601218Y-189014500D01*
X140163244Y-189014500D01*
X140096205Y-188994815D01*
X140075563Y-188978181D01*
X136041238Y-184943856D01*
X136007753Y-184882533D01*
X136012737Y-184812841D01*
X136054609Y-184756908D01*
X136108509Y-184733866D01*
X136146701Y-184727492D01*
X136362219Y-184653504D01*
X136362230Y-184653499D01*
X136562633Y-184545047D01*
X136588982Y-184524537D01*
X136588982Y-184524536D01*
X136017219Y-183952773D01*
X136110588Y-183914099D01*
X136235925Y-183817925D01*
X136332099Y-183692589D01*
X136370773Y-183599219D01*
X136941125Y-184169571D01*
X137021420Y-184046669D01*
X137112954Y-183837993D01*
X137168894Y-183617093D01*
X137168896Y-183617085D01*
X137187712Y-183390006D01*
X137187712Y-183389993D01*
X137168896Y-183162914D01*
X137168894Y-183162906D01*
X137112954Y-182942006D01*
X137021420Y-182733330D01*
X136941124Y-182610427D01*
X136370772Y-183180779D01*
X136332099Y-183087412D01*
X136235925Y-182962075D01*
X136110588Y-182865901D01*
X136017219Y-182827226D01*
X136588983Y-182255462D01*
X136588983Y-182255461D01*
X136562632Y-182234952D01*
X136562627Y-182234949D01*
X136362230Y-182126500D01*
X136362219Y-182126495D01*
X136146696Y-182052505D01*
X136146698Y-182052505D01*
X136097300Y-182044262D01*
X136034416Y-182013811D01*
X135997977Y-181954196D01*
X135999553Y-181884344D01*
X136038644Y-181826433D01*
X136074376Y-181805773D01*
X136200331Y-181758796D01*
X136315546Y-181672546D01*
X136401796Y-181557331D01*
X136420092Y-181508274D01*
X136461961Y-181452342D01*
X136527425Y-181427924D01*
X136595699Y-181442775D01*
X136612436Y-181453755D01*
X136789365Y-181591464D01*
X136789371Y-181591468D01*
X136789374Y-181591470D01*
X136939185Y-181672544D01*
X136992652Y-181701479D01*
X136993497Y-181701936D01*
X137090913Y-181735379D01*
X137213015Y-181777297D01*
X137213017Y-181777297D01*
X137213019Y-181777298D01*
X137441951Y-181815500D01*
X137441952Y-181815500D01*
X137674048Y-181815500D01*
X137674049Y-181815500D01*
X137902981Y-181777298D01*
X138122503Y-181701936D01*
X138326626Y-181591470D01*
X138509784Y-181448913D01*
X138666979Y-181278153D01*
X138704489Y-181220738D01*
X138757635Y-181175382D01*
X138826866Y-181165958D01*
X138890202Y-181195459D01*
X138904914Y-181212437D01*
X138906811Y-181212634D01*
X139574922Y-180544523D01*
X139598507Y-180624844D01*
X139676239Y-180745798D01*
X139784900Y-180839952D01*
X139915685Y-180899680D01*
X139925466Y-180901086D01*
X139259199Y-181567351D01*
X139289650Y-181591050D01*
X139493697Y-181701476D01*
X139493706Y-181701479D01*
X139713139Y-181776811D01*
X139941993Y-181815000D01*
X140174007Y-181815000D01*
X140402860Y-181776811D01*
X140622293Y-181701479D01*
X140622302Y-181701476D01*
X140826350Y-181591050D01*
X140856798Y-181567351D01*
X140190533Y-180901086D01*
X140200315Y-180899680D01*
X140331100Y-180839952D01*
X140439761Y-180745798D01*
X140517493Y-180624844D01*
X140541076Y-180544524D01*
X141209186Y-181212634D01*
X141293484Y-181083606D01*
X141386682Y-180871135D01*
X141443638Y-180646218D01*
X141462798Y-180415005D01*
X141462798Y-180414994D01*
X141443638Y-180183781D01*
X141386682Y-179958864D01*
X141293483Y-179746390D01*
X141209186Y-179617364D01*
X140541076Y-180285475D01*
X140517493Y-180205156D01*
X140439761Y-180084202D01*
X140331100Y-179990048D01*
X140200315Y-179930320D01*
X140190534Y-179928913D01*
X140856799Y-179262648D01*
X140856799Y-179262647D01*
X140826349Y-179238949D01*
X140622302Y-179128523D01*
X140622293Y-179128520D01*
X140402860Y-179053188D01*
X140174007Y-179015000D01*
X139941993Y-179015000D01*
X139713139Y-179053188D01*
X139493706Y-179128520D01*
X139493698Y-179128523D01*
X139289644Y-179238952D01*
X139259200Y-179262646D01*
X139259200Y-179262647D01*
X139925466Y-179928913D01*
X139915685Y-179930320D01*
X139784900Y-179990048D01*
X139676239Y-180084202D01*
X139598507Y-180205156D01*
X139574923Y-180285476D01*
X138906811Y-179617364D01*
X138902030Y-179617860D01*
X138858960Y-179654617D01*
X138789729Y-179664041D01*
X138726393Y-179634539D01*
X138704489Y-179609260D01*
X138666983Y-179551852D01*
X138666980Y-179551849D01*
X138666979Y-179551847D01*
X138509784Y-179381087D01*
X138509779Y-179381083D01*
X138509777Y-179381081D01*
X138326634Y-179238535D01*
X138326628Y-179238531D01*
X138122504Y-179128064D01*
X138122495Y-179128061D01*
X137902984Y-179052702D01*
X137712450Y-179020908D01*
X137674049Y-179014500D01*
X137441951Y-179014500D01*
X137403550Y-179020908D01*
X137213015Y-179052702D01*
X136993504Y-179128061D01*
X136993495Y-179128064D01*
X136789372Y-179238531D01*
X136612436Y-179376245D01*
X136547442Y-179401887D01*
X136478902Y-179388320D01*
X136428577Y-179339852D01*
X136420092Y-179321723D01*
X136401798Y-179272673D01*
X136401793Y-179272664D01*
X136315547Y-179157455D01*
X136315544Y-179157452D01*
X136200335Y-179071206D01*
X136200328Y-179071202D01*
X136065482Y-179020908D01*
X136065483Y-179020908D01*
X136005883Y-179014501D01*
X136005881Y-179014500D01*
X136005873Y-179014500D01*
X136005865Y-179014500D01*
X135807500Y-179014500D01*
X135740461Y-178994815D01*
X135694706Y-178942011D01*
X135683500Y-178890500D01*
X135683500Y-173152452D01*
X135703185Y-173085413D01*
X135719819Y-173064771D01*
X137507772Y-171276819D01*
X137569095Y-171243334D01*
X137595453Y-171240500D01*
X137654644Y-171240500D01*
X137654646Y-171240500D01*
X137839803Y-171201144D01*
X138012730Y-171124151D01*
X138165871Y-171012888D01*
X138292533Y-170872216D01*
X138387179Y-170708284D01*
X138445674Y-170528256D01*
X138465460Y-170340000D01*
X138445674Y-170151744D01*
X138387179Y-169971716D01*
X138292533Y-169807784D01*
X138165871Y-169667112D01*
X138165870Y-169667111D01*
X138012734Y-169555851D01*
X138012729Y-169555848D01*
X137839807Y-169478857D01*
X137839802Y-169478855D01*
X137694001Y-169447865D01*
X137654646Y-169439500D01*
X137465354Y-169439500D01*
X137432897Y-169446398D01*
X137280197Y-169478855D01*
X137280192Y-169478857D01*
X137107270Y-169555848D01*
X137107265Y-169555851D01*
X136954129Y-169667111D01*
X136827466Y-169807785D01*
X136732821Y-169971715D01*
X136732818Y-169971722D01*
X136674692Y-170150617D01*
X136674326Y-170151744D01*
X136667160Y-170219928D01*
X136656679Y-170319649D01*
X136630094Y-170384263D01*
X136621039Y-170394368D01*
X134720181Y-172295227D01*
X134658858Y-172328712D01*
X134589166Y-172323728D01*
X134533233Y-172281856D01*
X134508816Y-172216392D01*
X134508500Y-172207546D01*
X134508500Y-171849500D01*
X134493803Y-171653379D01*
X134493802Y-171653374D01*
X134493802Y-171653370D01*
X134435420Y-171397584D01*
X134339568Y-171153357D01*
X134208386Y-170926143D01*
X134044805Y-170721019D01*
X134044804Y-170721018D01*
X134044801Y-170721014D01*
X133852479Y-170542567D01*
X133831489Y-170528256D01*
X133635704Y-170394772D01*
X133635700Y-170394770D01*
X133635697Y-170394768D01*
X133635696Y-170394767D01*
X133399325Y-170280938D01*
X133399327Y-170280938D01*
X133148623Y-170203606D01*
X133148619Y-170203605D01*
X133148615Y-170203604D01*
X133023823Y-170184794D01*
X132889187Y-170164500D01*
X132889182Y-170164500D01*
X132626818Y-170164500D01*
X132626812Y-170164500D01*
X132477868Y-170186951D01*
X132367385Y-170203604D01*
X132367382Y-170203605D01*
X132367376Y-170203606D01*
X132116673Y-170280938D01*
X131880303Y-170394767D01*
X131880302Y-170394768D01*
X131663520Y-170542567D01*
X131471198Y-170721014D01*
X131356447Y-170864908D01*
X131299258Y-170905048D01*
X131229447Y-170907898D01*
X131169177Y-170872552D01*
X131137584Y-170810233D01*
X131135500Y-170787595D01*
X131135500Y-161599605D01*
X132861564Y-161599605D01*
X132881273Y-161837469D01*
X132881275Y-161837481D01*
X132939870Y-162068867D01*
X133033869Y-162283162D01*
X133035753Y-162287456D01*
X133166306Y-162487282D01*
X133327968Y-162662895D01*
X133516331Y-162809503D01*
X133726255Y-162923109D01*
X133952016Y-163000612D01*
X134187453Y-163039900D01*
X134187454Y-163039900D01*
X134426146Y-163039900D01*
X134426147Y-163039900D01*
X134661584Y-163000612D01*
X134887345Y-162923109D01*
X135097269Y-162809503D01*
X135285632Y-162662895D01*
X135447294Y-162487282D01*
X135577847Y-162287456D01*
X135577849Y-162287452D01*
X135580652Y-162283162D01*
X135582251Y-162284206D01*
X135625665Y-162240481D01*
X135685481Y-162225100D01*
X139430519Y-162225100D01*
X139497558Y-162244785D01*
X139533986Y-162284051D01*
X139535348Y-162283162D01*
X139538151Y-162287452D01*
X139538153Y-162287456D01*
X139668706Y-162487282D01*
X139830368Y-162662895D01*
X140018731Y-162809503D01*
X140228655Y-162923109D01*
X140454416Y-163000612D01*
X140689853Y-163039900D01*
X140689854Y-163039900D01*
X140928546Y-163039900D01*
X140928547Y-163039900D01*
X141163984Y-163000612D01*
X141389745Y-162923109D01*
X141599669Y-162809503D01*
X141788032Y-162662895D01*
X141949694Y-162487282D01*
X142080247Y-162287456D01*
X142176129Y-162068867D01*
X142234725Y-161837478D01*
X142236658Y-161814148D01*
X142254436Y-161599605D01*
X142254436Y-161599594D01*
X142234726Y-161361730D01*
X142234724Y-161361718D01*
X142176129Y-161130332D01*
X142086377Y-160925719D01*
X142080247Y-160911744D01*
X141949694Y-160711918D01*
X141788032Y-160536305D01*
X141599669Y-160389697D01*
X141435525Y-160300866D01*
X141389746Y-160276091D01*
X141389741Y-160276089D01*
X141163986Y-160198588D01*
X140996383Y-160170620D01*
X140928547Y-160159300D01*
X140689853Y-160159300D01*
X140630993Y-160169122D01*
X140454413Y-160198588D01*
X140228658Y-160276089D01*
X140228653Y-160276091D01*
X140018729Y-160389698D01*
X139830369Y-160536304D01*
X139668706Y-160711917D01*
X139535348Y-160916038D01*
X139533748Y-160914993D01*
X139490335Y-160958719D01*
X139430519Y-160974100D01*
X135685481Y-160974100D01*
X135618442Y-160954415D01*
X135582013Y-160915148D01*
X135580652Y-160916038D01*
X135532113Y-160841744D01*
X135447294Y-160711918D01*
X135285632Y-160536305D01*
X135097269Y-160389697D01*
X134933125Y-160300866D01*
X134887346Y-160276091D01*
X134887341Y-160276089D01*
X134661586Y-160198588D01*
X134493983Y-160170620D01*
X134426147Y-160159300D01*
X134187453Y-160159300D01*
X134128593Y-160169122D01*
X133952013Y-160198588D01*
X133726258Y-160276089D01*
X133726253Y-160276091D01*
X133516329Y-160389698D01*
X133327969Y-160536304D01*
X133166306Y-160711917D01*
X133035751Y-160911747D01*
X132939870Y-161130332D01*
X132881275Y-161361718D01*
X132881273Y-161361730D01*
X132861564Y-161599594D01*
X132861564Y-161599605D01*
X131135500Y-161599605D01*
X131135500Y-157078405D01*
X132861564Y-157078405D01*
X132881273Y-157316269D01*
X132881275Y-157316281D01*
X132939870Y-157547667D01*
X133032371Y-157758546D01*
X133035753Y-157766256D01*
X133166306Y-157966082D01*
X133327968Y-158141695D01*
X133516331Y-158288303D01*
X133726255Y-158401909D01*
X133952016Y-158479412D01*
X134187453Y-158518700D01*
X134187454Y-158518700D01*
X134426146Y-158518700D01*
X134426147Y-158518700D01*
X134661584Y-158479412D01*
X134887345Y-158401909D01*
X135097269Y-158288303D01*
X135285632Y-158141695D01*
X135447294Y-157966082D01*
X135577847Y-157766256D01*
X135577849Y-157766252D01*
X135580652Y-157761962D01*
X135582251Y-157763006D01*
X135625665Y-157719281D01*
X135685481Y-157703900D01*
X139430519Y-157703900D01*
X139497558Y-157723585D01*
X139533986Y-157762851D01*
X139535348Y-157761962D01*
X139538151Y-157766252D01*
X139538153Y-157766256D01*
X139668706Y-157966082D01*
X139830368Y-158141695D01*
X140018731Y-158288303D01*
X140228655Y-158401909D01*
X140454416Y-158479412D01*
X140689853Y-158518700D01*
X140689854Y-158518700D01*
X140928546Y-158518700D01*
X140928547Y-158518700D01*
X141163984Y-158479412D01*
X141389745Y-158401909D01*
X141599669Y-158288303D01*
X141788032Y-158141695D01*
X141949694Y-157966082D01*
X142080247Y-157766256D01*
X142176129Y-157547667D01*
X142234725Y-157316278D01*
X142234726Y-157316269D01*
X142254436Y-157078405D01*
X142254436Y-157078394D01*
X142234726Y-156840530D01*
X142234724Y-156840518D01*
X142176129Y-156609132D01*
X142098964Y-156433215D01*
X142080247Y-156390544D01*
X141949694Y-156190718D01*
X141788032Y-156015105D01*
X141599669Y-155868497D01*
X141440237Y-155782216D01*
X141389746Y-155754891D01*
X141389741Y-155754889D01*
X141163986Y-155677388D01*
X141007026Y-155651196D01*
X140928547Y-155638100D01*
X140689853Y-155638100D01*
X140630993Y-155647922D01*
X140454413Y-155677388D01*
X140228658Y-155754889D01*
X140228653Y-155754891D01*
X140018729Y-155868498D01*
X139830369Y-156015104D01*
X139668706Y-156190717D01*
X139535348Y-156394838D01*
X139533748Y-156393793D01*
X139490335Y-156437519D01*
X139430519Y-156452900D01*
X135685481Y-156452900D01*
X135618442Y-156433215D01*
X135582013Y-156393948D01*
X135580652Y-156394838D01*
X135447293Y-156190717D01*
X135285632Y-156015105D01*
X135097269Y-155868497D01*
X134937837Y-155782216D01*
X134887346Y-155754891D01*
X134887341Y-155754889D01*
X134661586Y-155677388D01*
X134504626Y-155651196D01*
X134426147Y-155638100D01*
X134187453Y-155638100D01*
X134128593Y-155647922D01*
X133952013Y-155677388D01*
X133726258Y-155754889D01*
X133726253Y-155754891D01*
X133516329Y-155868498D01*
X133327969Y-156015104D01*
X133166306Y-156190717D01*
X133035751Y-156390547D01*
X132939870Y-156609132D01*
X132881275Y-156840518D01*
X132881273Y-156840530D01*
X132861564Y-157078394D01*
X132861564Y-157078405D01*
X131135500Y-157078405D01*
X131135500Y-154952737D01*
X131137224Y-154937123D01*
X131136938Y-154937096D01*
X131137672Y-154929333D01*
X131135500Y-154860202D01*
X131135500Y-154830651D01*
X131135500Y-154830650D01*
X131134629Y-154823759D01*
X131134172Y-154817945D01*
X131132709Y-154771374D01*
X131132709Y-154771372D01*
X131127120Y-154752137D01*
X131123174Y-154733084D01*
X131122944Y-154731261D01*
X131120664Y-154713208D01*
X131103501Y-154669859D01*
X131101614Y-154664346D01*
X131088617Y-154619610D01*
X131088616Y-154619608D01*
X131078421Y-154602369D01*
X131069860Y-154584893D01*
X131062486Y-154566269D01*
X131062486Y-154566267D01*
X131052474Y-154552488D01*
X131035083Y-154528550D01*
X131031900Y-154523705D01*
X131008170Y-154483579D01*
X131008165Y-154483573D01*
X130994005Y-154469413D01*
X130981370Y-154454620D01*
X130969593Y-154438412D01*
X130933693Y-154408713D01*
X130929381Y-154404790D01*
X129071819Y-152547228D01*
X129038334Y-152485905D01*
X129035500Y-152459547D01*
X129035500Y-139718687D01*
X129055185Y-139651648D01*
X129067350Y-139635715D01*
X129085891Y-139615122D01*
X129142533Y-139552216D01*
X129237179Y-139388284D01*
X129295674Y-139208256D01*
X129295855Y-139206535D01*
X129296236Y-139205607D01*
X129297024Y-139201903D01*
X129297701Y-139202047D01*
X129322441Y-139141921D01*
X129379739Y-139101938D01*
X129419175Y-139095500D01*
X130987257Y-139095500D01*
X131002877Y-139097224D01*
X131002904Y-139096939D01*
X131010660Y-139097671D01*
X131010667Y-139097673D01*
X131079814Y-139095500D01*
X131109350Y-139095500D01*
X131116228Y-139094630D01*
X131122041Y-139094172D01*
X131168627Y-139092709D01*
X131187869Y-139087117D01*
X131206912Y-139083174D01*
X131226792Y-139080664D01*
X131270122Y-139063507D01*
X131275646Y-139061617D01*
X131286316Y-139058517D01*
X131320390Y-139048618D01*
X131337629Y-139038422D01*
X131355103Y-139029862D01*
X131373727Y-139022488D01*
X131373727Y-139022487D01*
X131373732Y-139022486D01*
X131411449Y-138995082D01*
X131416305Y-138991892D01*
X131456420Y-138968170D01*
X131470589Y-138953999D01*
X131485379Y-138941368D01*
X131501587Y-138929594D01*
X131531295Y-138893681D01*
X131535207Y-138889381D01*
X131571450Y-138853138D01*
X131617773Y-138806818D01*
X131679096Y-138773333D01*
X131705453Y-138770500D01*
X131764644Y-138770500D01*
X131764646Y-138770500D01*
X131949803Y-138731144D01*
X132122730Y-138654151D01*
X132275871Y-138542888D01*
X132402533Y-138402216D01*
X132497179Y-138238284D01*
X132555674Y-138058256D01*
X132575460Y-137870000D01*
X132555674Y-137681744D01*
X132497179Y-137501716D01*
X132402533Y-137337784D01*
X132275871Y-137197112D01*
X132275870Y-137197111D01*
X132122734Y-137085851D01*
X132122729Y-137085848D01*
X131949807Y-137008857D01*
X131949802Y-137008855D01*
X131804001Y-136977865D01*
X131764646Y-136969500D01*
X131575354Y-136969500D01*
X131542897Y-136976398D01*
X131390197Y-137008855D01*
X131390192Y-137008857D01*
X131217270Y-137085848D01*
X131217265Y-137085851D01*
X131064129Y-137197111D01*
X130937466Y-137337785D01*
X130842821Y-137501715D01*
X130842818Y-137501722D01*
X130785581Y-137677880D01*
X130784326Y-137681744D01*
X130778890Y-137733464D01*
X130752306Y-137798076D01*
X130695009Y-137838061D01*
X130655570Y-137844500D01*
X130348093Y-137844500D01*
X130281054Y-137824815D01*
X130235299Y-137772011D01*
X130224773Y-137733465D01*
X130205674Y-137551744D01*
X130147179Y-137371716D01*
X130052533Y-137207784D01*
X130042923Y-137197111D01*
X129977350Y-137124284D01*
X129947120Y-137061292D01*
X129945500Y-137041312D01*
X129945500Y-133900452D01*
X129965185Y-133833413D01*
X129981819Y-133812771D01*
X130168771Y-133625819D01*
X130230094Y-133592334D01*
X130256452Y-133589500D01*
X139873257Y-133589500D01*
X139888877Y-133591224D01*
X139888904Y-133590939D01*
X139896660Y-133591671D01*
X139896667Y-133591673D01*
X139965814Y-133589500D01*
X139995350Y-133589500D01*
X140002228Y-133588630D01*
X140008041Y-133588172D01*
X140054627Y-133586709D01*
X140073869Y-133581117D01*
X140092912Y-133577174D01*
X140112792Y-133574664D01*
X140156122Y-133557507D01*
X140161646Y-133555617D01*
X140165396Y-133554527D01*
X140206390Y-133542618D01*
X140223629Y-133532422D01*
X140241103Y-133523862D01*
X140259727Y-133516488D01*
X140259727Y-133516487D01*
X140259732Y-133516486D01*
X140297449Y-133489082D01*
X140302305Y-133485892D01*
X140342420Y-133462170D01*
X140356589Y-133447999D01*
X140371379Y-133435368D01*
X140387587Y-133423594D01*
X140417299Y-133387676D01*
X140421212Y-133383376D01*
X142277772Y-131526819D01*
X142339095Y-131493334D01*
X142365453Y-131490500D01*
X142424644Y-131490500D01*
X142424646Y-131490500D01*
X142609803Y-131451144D01*
X142782730Y-131374151D01*
X142862617Y-131316109D01*
X142928420Y-131292631D01*
X142996474Y-131308456D01*
G37*
G04 #@! TD.AperFunction*
G04 #@! TA.AperFunction,Conductor*
G36*
X149336313Y-171324917D02*
G01*
X149365681Y-171346669D01*
X156111785Y-178092771D01*
X156145270Y-178154094D01*
X156148104Y-178180452D01*
X156148104Y-179555831D01*
X156128419Y-179622870D01*
X156075615Y-179668625D01*
X156006457Y-179678569D01*
X155942901Y-179649544D01*
X155920296Y-179623653D01*
X155916187Y-179617364D01*
X155916186Y-179617364D01*
X155248076Y-180285475D01*
X155224493Y-180205156D01*
X155146761Y-180084202D01*
X155038100Y-179990048D01*
X154907315Y-179930320D01*
X154897534Y-179928913D01*
X155563799Y-179262648D01*
X155563799Y-179262647D01*
X155533349Y-179238949D01*
X155329302Y-179128523D01*
X155329293Y-179128520D01*
X155109860Y-179053188D01*
X154881007Y-179015000D01*
X154648993Y-179015000D01*
X154420139Y-179053188D01*
X154200706Y-179128520D01*
X154200698Y-179128523D01*
X153996644Y-179238952D01*
X153966200Y-179262646D01*
X153966200Y-179262647D01*
X154632466Y-179928913D01*
X154622685Y-179930320D01*
X154491900Y-179990048D01*
X154383239Y-180084202D01*
X154305507Y-180205156D01*
X154281923Y-180285476D01*
X153613811Y-179617364D01*
X153609030Y-179617860D01*
X153565960Y-179654617D01*
X153496729Y-179664041D01*
X153433393Y-179634539D01*
X153411489Y-179609260D01*
X153373983Y-179551852D01*
X153373980Y-179551849D01*
X153373979Y-179551847D01*
X153216784Y-179381087D01*
X153216779Y-179381083D01*
X153216777Y-179381081D01*
X153033634Y-179238535D01*
X153033628Y-179238531D01*
X152829504Y-179128064D01*
X152829495Y-179128061D01*
X152609984Y-179052702D01*
X152419450Y-179020908D01*
X152381049Y-179014500D01*
X152148951Y-179014500D01*
X152110550Y-179020908D01*
X151920015Y-179052702D01*
X151700504Y-179128061D01*
X151700495Y-179128064D01*
X151496372Y-179238531D01*
X151319436Y-179376245D01*
X151254442Y-179401887D01*
X151185902Y-179388320D01*
X151135577Y-179339852D01*
X151127092Y-179321723D01*
X151108798Y-179272673D01*
X151108793Y-179272664D01*
X151022547Y-179157455D01*
X151022544Y-179157452D01*
X150907335Y-179071206D01*
X150907328Y-179071202D01*
X150772482Y-179020908D01*
X150772483Y-179020908D01*
X150712883Y-179014501D01*
X150712881Y-179014500D01*
X150712873Y-179014500D01*
X150712864Y-179014500D01*
X148817129Y-179014500D01*
X148817123Y-179014501D01*
X148757516Y-179020908D01*
X148622671Y-179071202D01*
X148622664Y-179071206D01*
X148507455Y-179157452D01*
X148507452Y-179157455D01*
X148421206Y-179272664D01*
X148421202Y-179272671D01*
X148370908Y-179407517D01*
X148364501Y-179467116D01*
X148364500Y-179467135D01*
X148364500Y-181362870D01*
X148364501Y-181362876D01*
X148370908Y-181422483D01*
X148421202Y-181557328D01*
X148421206Y-181557335D01*
X148507452Y-181672544D01*
X148507455Y-181672547D01*
X148622664Y-181758793D01*
X148622671Y-181758797D01*
X148757517Y-181809091D01*
X148757516Y-181809091D01*
X148764444Y-181809835D01*
X148817127Y-181815500D01*
X149931589Y-181815499D01*
X149998627Y-181835184D01*
X150044382Y-181887987D01*
X150054326Y-181957146D01*
X150025301Y-182020702D01*
X149971851Y-182056780D01*
X149768780Y-182126495D01*
X149768769Y-182126500D01*
X149568373Y-182234948D01*
X149542016Y-182255462D01*
X150113780Y-182827226D01*
X150020412Y-182865901D01*
X149895075Y-182962075D01*
X149798901Y-183087411D01*
X149760226Y-183180780D01*
X149189874Y-182610428D01*
X149109578Y-182733333D01*
X149109577Y-182733335D01*
X149018045Y-182942006D01*
X148962105Y-183162906D01*
X148962103Y-183162915D01*
X148943894Y-183382674D01*
X148918741Y-183447859D01*
X148862339Y-183489097D01*
X148792596Y-183493295D01*
X148731654Y-183459121D01*
X148720011Y-183445334D01*
X148715086Y-183438555D01*
X148711895Y-183433697D01*
X148692390Y-183400716D01*
X148688172Y-183393583D01*
X148688165Y-183393574D01*
X148674006Y-183379415D01*
X148661368Y-183364619D01*
X148652563Y-183352500D01*
X148649594Y-183348413D01*
X148613688Y-183318709D01*
X148609376Y-183314786D01*
X145851819Y-180557228D01*
X145818334Y-180495905D01*
X145815500Y-180469547D01*
X145815500Y-175008547D01*
X145835185Y-174941508D01*
X145887989Y-174895753D01*
X145957147Y-174885809D01*
X146020703Y-174914834D01*
X146036443Y-174931230D01*
X146098102Y-175008547D01*
X146178198Y-175108985D01*
X146357133Y-175275011D01*
X146370521Y-175287433D01*
X146587296Y-175435228D01*
X146587301Y-175435230D01*
X146587302Y-175435231D01*
X146587303Y-175435232D01*
X146712843Y-175495688D01*
X146823673Y-175549061D01*
X146823674Y-175549061D01*
X146823677Y-175549063D01*
X147074385Y-175626396D01*
X147333818Y-175665500D01*
X147596182Y-175665500D01*
X147855615Y-175626396D01*
X148106323Y-175549063D01*
X148342704Y-175435228D01*
X148559479Y-175287433D01*
X148747967Y-175112542D01*
X148751801Y-175108985D01*
X148751801Y-175108983D01*
X148751805Y-175108981D01*
X148915386Y-174903857D01*
X149046568Y-174676643D01*
X149142420Y-174432416D01*
X149200802Y-174176630D01*
X149215500Y-173980494D01*
X149215500Y-171849506D01*
X149200802Y-171653370D01*
X149157109Y-171461940D01*
X149161382Y-171392204D01*
X149202681Y-171335846D01*
X149267893Y-171310763D01*
X149336313Y-171324917D01*
G37*
G04 #@! TD.AperFunction*
G04 #@! TA.AperFunction,Conductor*
G36*
X127449471Y-138940185D02*
G01*
X127495226Y-138992989D01*
X127505752Y-139031535D01*
X127524326Y-139208256D01*
X127524327Y-139208259D01*
X127582818Y-139388277D01*
X127582821Y-139388284D01*
X127677467Y-139552216D01*
X127682092Y-139557352D01*
X127752650Y-139635715D01*
X127782880Y-139698706D01*
X127784500Y-139718687D01*
X127784500Y-152687255D01*
X127782775Y-152702872D01*
X127783061Y-152702899D01*
X127782326Y-152710665D01*
X127784500Y-152779814D01*
X127784500Y-152809343D01*
X127784501Y-152809360D01*
X127785368Y-152816231D01*
X127785826Y-152822050D01*
X127787290Y-152868624D01*
X127787291Y-152868627D01*
X127792880Y-152887867D01*
X127796824Y-152906911D01*
X127799336Y-152926792D01*
X127816490Y-152970119D01*
X127818382Y-152975647D01*
X127831381Y-153020388D01*
X127841580Y-153037634D01*
X127850138Y-153055103D01*
X127857514Y-153073732D01*
X127884898Y-153111423D01*
X127888106Y-153116307D01*
X127911827Y-153156416D01*
X127911833Y-153156424D01*
X127925990Y-153170580D01*
X127938628Y-153185376D01*
X127947906Y-153198147D01*
X127950406Y-153201587D01*
X127973489Y-153220683D01*
X127986309Y-153231288D01*
X127990620Y-153235210D01*
X128963263Y-154207853D01*
X129848181Y-155092771D01*
X129881666Y-155154094D01*
X129884500Y-155180452D01*
X129884500Y-176375318D01*
X129864815Y-176442357D01*
X129812011Y-176488112D01*
X129810937Y-176488597D01*
X129727267Y-176525850D01*
X129574129Y-176637111D01*
X129447466Y-176777785D01*
X129352821Y-176941715D01*
X129352818Y-176941722D01*
X129298180Y-177109883D01*
X129294326Y-177121744D01*
X129274540Y-177310000D01*
X129294326Y-177498256D01*
X129294327Y-177498259D01*
X129352818Y-177678277D01*
X129352821Y-177678284D01*
X129447467Y-177842216D01*
X129574129Y-177982888D01*
X129727265Y-178094148D01*
X129727270Y-178094151D01*
X129900192Y-178171142D01*
X129900197Y-178171144D01*
X130085354Y-178210500D01*
X130085355Y-178210500D01*
X130274644Y-178210500D01*
X130274646Y-178210500D01*
X130459803Y-178171144D01*
X130632730Y-178094151D01*
X130785871Y-177982888D01*
X130912533Y-177842216D01*
X131007179Y-177678284D01*
X131065674Y-177498256D01*
X131085460Y-177310000D01*
X131082606Y-177282848D01*
X131094157Y-177219681D01*
X131093323Y-177219351D01*
X131094986Y-177215148D01*
X131095175Y-177214119D01*
X131096058Y-177212441D01*
X131096196Y-177212093D01*
X131096197Y-177212092D01*
X131101180Y-177192680D01*
X131107481Y-177174280D01*
X131115437Y-177155896D01*
X131122729Y-177109852D01*
X131123906Y-177104171D01*
X131135500Y-177059019D01*
X131135500Y-177038983D01*
X131137027Y-177019582D01*
X131140160Y-176999804D01*
X131135775Y-176953415D01*
X131135500Y-176947577D01*
X131135500Y-175042404D01*
X131155185Y-174975365D01*
X131207989Y-174929610D01*
X131277147Y-174919666D01*
X131340703Y-174948691D01*
X131356444Y-174965087D01*
X131391102Y-175008547D01*
X131471198Y-175108985D01*
X131650133Y-175275011D01*
X131663521Y-175287433D01*
X131880296Y-175435228D01*
X131880301Y-175435230D01*
X131880302Y-175435231D01*
X131880303Y-175435232D01*
X132005843Y-175495688D01*
X132116673Y-175549061D01*
X132116674Y-175549061D01*
X132116677Y-175549063D01*
X132367385Y-175626396D01*
X132626818Y-175665500D01*
X132889182Y-175665500D01*
X133148615Y-175626396D01*
X133399323Y-175549063D01*
X133635704Y-175435228D01*
X133852479Y-175287433D01*
X134040967Y-175112542D01*
X134044801Y-175108985D01*
X134044801Y-175108983D01*
X134044805Y-175108981D01*
X134208386Y-174903857D01*
X134208386Y-174903855D01*
X134211279Y-174900229D01*
X134212993Y-174901596D01*
X134260060Y-174862993D01*
X134329462Y-174854925D01*
X134392209Y-174885659D01*
X134428379Y-174945438D01*
X134432500Y-174977140D01*
X134432500Y-178890500D01*
X134412815Y-178957539D01*
X134360011Y-179003294D01*
X134308501Y-179014500D01*
X134110130Y-179014500D01*
X134110123Y-179014501D01*
X134050516Y-179020908D01*
X133915671Y-179071202D01*
X133915664Y-179071206D01*
X133800455Y-179157452D01*
X133800452Y-179157455D01*
X133714206Y-179272664D01*
X133714202Y-179272671D01*
X133663908Y-179407517D01*
X133657501Y-179467116D01*
X133657500Y-179467135D01*
X133657500Y-181362870D01*
X133657501Y-181362876D01*
X133663908Y-181422483D01*
X133714202Y-181557328D01*
X133714206Y-181557335D01*
X133800452Y-181672544D01*
X133800455Y-181672547D01*
X133915664Y-181758793D01*
X133915671Y-181758797D01*
X134050517Y-181809091D01*
X134050516Y-181809091D01*
X134057444Y-181809835D01*
X134110127Y-181815500D01*
X135416589Y-181815499D01*
X135483627Y-181835184D01*
X135529382Y-181887987D01*
X135539326Y-181957146D01*
X135510301Y-182020702D01*
X135456851Y-182056780D01*
X135253780Y-182126495D01*
X135253769Y-182126500D01*
X135053373Y-182234948D01*
X135027016Y-182255462D01*
X135598780Y-182827226D01*
X135505412Y-182865901D01*
X135380075Y-182962075D01*
X135283901Y-183087411D01*
X135245226Y-183180780D01*
X134674874Y-182610428D01*
X134594578Y-182733333D01*
X134594577Y-182733335D01*
X134503043Y-182942011D01*
X134503043Y-182942012D01*
X134462928Y-183100420D01*
X134427389Y-183160575D01*
X134364968Y-183191967D01*
X134295485Y-183184629D01*
X134255042Y-183157660D01*
X130653213Y-179555831D01*
X126394862Y-175297479D01*
X126390430Y-175289363D01*
X126388837Y-175288824D01*
X126372394Y-175275011D01*
X125077883Y-173980500D01*
X126092500Y-173980500D01*
X126107196Y-174176620D01*
X126107197Y-174176625D01*
X126165576Y-174432402D01*
X126165578Y-174432411D01*
X126165580Y-174432416D01*
X126261432Y-174676643D01*
X126392614Y-174903857D01*
X126556195Y-175108981D01*
X126556198Y-175108983D01*
X126557022Y-175110017D01*
X126558053Y-175112542D01*
X126566884Y-175118899D01*
X126748521Y-175287433D01*
X126965296Y-175435228D01*
X126965301Y-175435230D01*
X126965302Y-175435231D01*
X126965303Y-175435232D01*
X127090843Y-175495688D01*
X127201673Y-175549061D01*
X127201674Y-175549061D01*
X127201677Y-175549063D01*
X127452385Y-175626396D01*
X127711818Y-175665500D01*
X127974182Y-175665500D01*
X128233615Y-175626396D01*
X128484323Y-175549063D01*
X128720704Y-175435228D01*
X128937479Y-175287433D01*
X129125967Y-175112542D01*
X129129801Y-175108985D01*
X129129801Y-175108983D01*
X129129805Y-175108981D01*
X129293386Y-174903857D01*
X129424568Y-174676643D01*
X129520420Y-174432416D01*
X129578802Y-174176630D01*
X129593500Y-173980494D01*
X129593500Y-171849506D01*
X129578802Y-171653370D01*
X129520420Y-171397584D01*
X129424568Y-171153357D01*
X129293386Y-170926143D01*
X129129805Y-170721019D01*
X129129804Y-170721018D01*
X129129801Y-170721014D01*
X128937479Y-170542567D01*
X128916489Y-170528256D01*
X128720704Y-170394772D01*
X128720700Y-170394770D01*
X128720697Y-170394768D01*
X128720696Y-170394767D01*
X128484325Y-170280938D01*
X128484327Y-170280938D01*
X128233623Y-170203606D01*
X128233619Y-170203605D01*
X128233615Y-170203604D01*
X128108823Y-170184794D01*
X127974187Y-170164500D01*
X127974182Y-170164500D01*
X127711818Y-170164500D01*
X127711812Y-170164500D01*
X127562868Y-170186951D01*
X127452385Y-170203604D01*
X127452382Y-170203605D01*
X127452376Y-170203606D01*
X127201673Y-170280938D01*
X126965303Y-170394767D01*
X126965302Y-170394768D01*
X126748520Y-170542567D01*
X126556198Y-170721014D01*
X126392614Y-170926143D01*
X126261432Y-171153356D01*
X126165582Y-171397578D01*
X126165576Y-171397597D01*
X126107197Y-171653374D01*
X126107196Y-171653379D01*
X126092500Y-171849500D01*
X126092500Y-173980500D01*
X125077883Y-173980500D01*
X121284319Y-170186936D01*
X121250834Y-170125613D01*
X121248000Y-170099255D01*
X121248000Y-160732702D01*
X121267685Y-160665663D01*
X121320489Y-160619908D01*
X121389647Y-160609964D01*
X121404077Y-160612923D01*
X121541863Y-160649843D01*
X121715096Y-160664999D01*
X121772999Y-160670065D01*
X121773000Y-160670065D01*
X121773001Y-160670065D01*
X121811522Y-160666694D01*
X122004137Y-160649843D01*
X122228251Y-160589792D01*
X122438533Y-160491736D01*
X122628592Y-160358655D01*
X122783144Y-160204102D01*
X122844464Y-160170620D01*
X122914155Y-160175604D01*
X122970089Y-160217475D01*
X122988845Y-160265088D01*
X122991624Y-160264432D01*
X122993407Y-160271979D01*
X123043702Y-160406828D01*
X123043706Y-160406835D01*
X123129952Y-160522044D01*
X123129955Y-160522047D01*
X123245164Y-160608293D01*
X123245171Y-160608297D01*
X123380017Y-160658591D01*
X123380016Y-160658591D01*
X123386944Y-160659335D01*
X123439627Y-160665000D01*
X125186372Y-160664999D01*
X125245983Y-160658591D01*
X125380831Y-160608296D01*
X125496046Y-160522046D01*
X125582296Y-160406831D01*
X125632591Y-160271983D01*
X125639000Y-160212373D01*
X125638999Y-158465628D01*
X125632591Y-158406017D01*
X125631059Y-158401910D01*
X125582297Y-158271171D01*
X125582293Y-158271164D01*
X125496047Y-158155955D01*
X125496044Y-158155952D01*
X125380835Y-158069706D01*
X125380828Y-158069702D01*
X125245982Y-158019408D01*
X125245983Y-158019408D01*
X125186383Y-158013001D01*
X125186381Y-158013000D01*
X125186373Y-158013000D01*
X125186365Y-158013000D01*
X123792500Y-158013000D01*
X123725461Y-157993315D01*
X123679706Y-157940511D01*
X123668500Y-157889000D01*
X123668500Y-153280519D01*
X123688185Y-153213480D01*
X123733483Y-153171464D01*
X123735116Y-153170580D01*
X123866509Y-153099474D01*
X124062744Y-152946738D01*
X124231164Y-152763785D01*
X124367173Y-152555607D01*
X124467063Y-152327881D01*
X124528108Y-152086821D01*
X124535700Y-151995205D01*
X124548643Y-151839005D01*
X124548643Y-151838994D01*
X124528109Y-151591187D01*
X124528107Y-151591175D01*
X124467063Y-151350118D01*
X124367173Y-151122393D01*
X124231166Y-150914217D01*
X124209557Y-150890744D01*
X124062744Y-150731262D01*
X123866509Y-150578526D01*
X123866507Y-150578525D01*
X123866506Y-150578524D01*
X123647811Y-150460172D01*
X123647802Y-150460169D01*
X123636477Y-150456281D01*
X123579462Y-150415896D01*
X123553331Y-150351096D01*
X123566382Y-150282456D01*
X123614471Y-150231768D01*
X123636477Y-150221719D01*
X123640235Y-150220428D01*
X123647810Y-150217828D01*
X123866509Y-150099474D01*
X124062744Y-149946738D01*
X124231164Y-149763785D01*
X124367173Y-149555607D01*
X124467063Y-149327881D01*
X124528108Y-149086821D01*
X124538522Y-148961141D01*
X124548643Y-148839005D01*
X124548643Y-148838994D01*
X124528109Y-148591187D01*
X124528107Y-148591175D01*
X124467063Y-148350118D01*
X124367173Y-148122393D01*
X124231166Y-147914217D01*
X124209557Y-147890744D01*
X124062744Y-147731262D01*
X123866509Y-147578526D01*
X123866507Y-147578525D01*
X123866506Y-147578524D01*
X123647811Y-147460172D01*
X123647802Y-147460169D01*
X123412616Y-147379429D01*
X123167335Y-147338500D01*
X122918665Y-147338500D01*
X122673383Y-147379429D01*
X122438197Y-147460169D01*
X122438188Y-147460172D01*
X122219493Y-147578524D01*
X122023257Y-147731261D01*
X121854833Y-147914217D01*
X121718826Y-148122393D01*
X121618936Y-148350118D01*
X121557892Y-148591175D01*
X121557890Y-148591187D01*
X121537357Y-148838994D01*
X121537357Y-148839005D01*
X121557890Y-149086812D01*
X121557892Y-149086824D01*
X121618936Y-149327881D01*
X121718826Y-149555606D01*
X121854833Y-149763782D01*
X121854836Y-149763785D01*
X122023256Y-149946738D01*
X122219491Y-150099474D01*
X122438190Y-150217828D01*
X122448682Y-150221430D01*
X122449524Y-150221719D01*
X122506539Y-150262106D01*
X122532668Y-150326906D01*
X122519615Y-150395546D01*
X122471526Y-150446233D01*
X122449524Y-150456281D01*
X122438191Y-150460171D01*
X122438188Y-150460172D01*
X122219493Y-150578524D01*
X122023257Y-150731261D01*
X121854833Y-150914217D01*
X121718826Y-151122393D01*
X121618936Y-151350118D01*
X121557892Y-151591175D01*
X121557890Y-151591187D01*
X121537357Y-151838994D01*
X121537357Y-151839005D01*
X121557890Y-152086812D01*
X121557892Y-152086824D01*
X121618936Y-152327881D01*
X121718826Y-152555606D01*
X121854833Y-152763782D01*
X121854836Y-152763785D01*
X122023256Y-152946738D01*
X122117884Y-153020390D01*
X122186417Y-153073732D01*
X122219491Y-153099474D01*
X122346088Y-153167984D01*
X122352517Y-153171464D01*
X122402108Y-153220683D01*
X122417500Y-153280519D01*
X122417500Y-157758546D01*
X122397815Y-157825585D01*
X122381181Y-157846227D01*
X122208641Y-158018766D01*
X122147318Y-158052251D01*
X122088867Y-158050860D01*
X122004142Y-158028158D01*
X122004132Y-158028156D01*
X121773001Y-158007935D01*
X121772999Y-158007935D01*
X121541867Y-158028156D01*
X121541857Y-158028158D01*
X121404093Y-158065072D01*
X121334243Y-158063409D01*
X121276381Y-158024246D01*
X121248877Y-157960018D01*
X121248000Y-157945297D01*
X121248000Y-145339001D01*
X122143000Y-145339001D01*
X122242999Y-145788998D01*
X122243000Y-145789000D01*
X122543000Y-146139000D01*
X122542999Y-146139000D01*
X123043000Y-146239000D01*
X123543000Y-146139000D01*
X123843000Y-145789000D01*
X123943000Y-145339000D01*
X123938390Y-145318256D01*
X123906636Y-145175362D01*
X123843000Y-144889000D01*
X123842999Y-144888999D01*
X123842999Y-144888998D01*
X123543000Y-144588999D01*
X123043001Y-144439000D01*
X123042999Y-144439000D01*
X122542999Y-144588999D01*
X122542999Y-144589000D01*
X122243000Y-144888999D01*
X122143000Y-145338998D01*
X122143000Y-145339001D01*
X121248000Y-145339001D01*
X121248000Y-139777952D01*
X121267685Y-139710913D01*
X121284319Y-139690271D01*
X121422376Y-139552214D01*
X121564347Y-139410242D01*
X121625668Y-139376759D01*
X121695359Y-139381743D01*
X121751293Y-139423614D01*
X121775710Y-139489079D01*
X121760858Y-139557352D01*
X121755835Y-139565745D01*
X121718828Y-139622389D01*
X121618936Y-139850118D01*
X121557892Y-140091175D01*
X121557890Y-140091187D01*
X121537357Y-140338994D01*
X121537357Y-140339005D01*
X121557890Y-140586812D01*
X121557892Y-140586824D01*
X121618936Y-140827881D01*
X121718826Y-141055606D01*
X121854833Y-141263782D01*
X121854836Y-141263785D01*
X122023256Y-141446738D01*
X122219491Y-141599474D01*
X122438190Y-141717828D01*
X122673386Y-141798571D01*
X122918665Y-141839500D01*
X123167335Y-141839500D01*
X123412614Y-141798571D01*
X123647810Y-141717828D01*
X123866509Y-141599474D01*
X124062744Y-141446738D01*
X124231164Y-141263785D01*
X124367173Y-141055607D01*
X124467063Y-140827881D01*
X124528108Y-140586821D01*
X124548643Y-140339000D01*
X124528108Y-140091179D01*
X124474136Y-139878049D01*
X124476760Y-139808230D01*
X124506658Y-139759930D01*
X125309771Y-138956819D01*
X125371094Y-138923334D01*
X125397452Y-138920500D01*
X127382432Y-138920500D01*
X127449471Y-138940185D01*
G37*
G04 #@! TD.AperFunction*
G04 #@! TA.AperFunction,Conductor*
G36*
X121511829Y-131069685D02*
G01*
X121557584Y-131122489D01*
X121567528Y-131191647D01*
X121567111Y-131194328D01*
X121550728Y-131292631D01*
X121543000Y-131339000D01*
X121643000Y-131939000D01*
X122114171Y-132504406D01*
X122143000Y-132539000D01*
X122994590Y-132822863D01*
X123042060Y-132855853D01*
X123091409Y-132822863D01*
X123943000Y-132539000D01*
X124443000Y-131939000D01*
X124543000Y-131339000D01*
X124518897Y-131194383D01*
X124527293Y-131125022D01*
X124571856Y-131071209D01*
X124638439Y-131050031D01*
X124641210Y-131050000D01*
X135959790Y-131050000D01*
X136026829Y-131069685D01*
X136072584Y-131122489D01*
X136082528Y-131191647D01*
X136082111Y-131194328D01*
X136065728Y-131292631D01*
X136058000Y-131339000D01*
X136158000Y-131939000D01*
X136321431Y-132135117D01*
X136349227Y-132199220D01*
X136337953Y-132268174D01*
X136291190Y-132320087D01*
X136226172Y-132338500D01*
X130028743Y-132338500D01*
X130013122Y-132336775D01*
X130013095Y-132337061D01*
X130005333Y-132336326D01*
X129936172Y-132338500D01*
X129906649Y-132338500D01*
X129899778Y-132339367D01*
X129893959Y-132339825D01*
X129847374Y-132341289D01*
X129847368Y-132341290D01*
X129828126Y-132346880D01*
X129809087Y-132350823D01*
X129789217Y-132353334D01*
X129789203Y-132353337D01*
X129745883Y-132370488D01*
X129740358Y-132372380D01*
X129695613Y-132385380D01*
X129695610Y-132385381D01*
X129678366Y-132395579D01*
X129660905Y-132404133D01*
X129642274Y-132411510D01*
X129642262Y-132411517D01*
X129604570Y-132438902D01*
X129599687Y-132442109D01*
X129559580Y-132465829D01*
X129545414Y-132479995D01*
X129530624Y-132492627D01*
X129514414Y-132504404D01*
X129514411Y-132504407D01*
X129484710Y-132540309D01*
X129480777Y-132544631D01*
X128936208Y-133089199D01*
X128923951Y-133099020D01*
X128924134Y-133099241D01*
X128918123Y-133104213D01*
X128870772Y-133154636D01*
X128849889Y-133175519D01*
X128849877Y-133175532D01*
X128845621Y-133181017D01*
X128841837Y-133185447D01*
X128809937Y-133219418D01*
X128809936Y-133219420D01*
X128800284Y-133236976D01*
X128789610Y-133253226D01*
X128777329Y-133269061D01*
X128777324Y-133269068D01*
X128758815Y-133311838D01*
X128756245Y-133317084D01*
X128733803Y-133357906D01*
X128728822Y-133377307D01*
X128722521Y-133395710D01*
X128714562Y-133414102D01*
X128714561Y-133414105D01*
X128707271Y-133460127D01*
X128706087Y-133465846D01*
X128694501Y-133510972D01*
X128694500Y-133510982D01*
X128694500Y-133531016D01*
X128692973Y-133550415D01*
X128689840Y-133570194D01*
X128689840Y-133570195D01*
X128694225Y-133616583D01*
X128694500Y-133622421D01*
X128694500Y-135930547D01*
X128674815Y-135997586D01*
X128622011Y-136043341D01*
X128552853Y-136053285D01*
X128489297Y-136024260D01*
X128482819Y-136018228D01*
X125770803Y-133306212D01*
X125760980Y-133293950D01*
X125760759Y-133294134D01*
X125755786Y-133288123D01*
X125747701Y-133280531D01*
X125705364Y-133240773D01*
X125694919Y-133230328D01*
X125684475Y-133219883D01*
X125678986Y-133215625D01*
X125674561Y-133211847D01*
X125640582Y-133179938D01*
X125640580Y-133179936D01*
X125640577Y-133179935D01*
X125623029Y-133170288D01*
X125606763Y-133159604D01*
X125590936Y-133147327D01*
X125590935Y-133147326D01*
X125590933Y-133147325D01*
X125548168Y-133128818D01*
X125542922Y-133126248D01*
X125502093Y-133103803D01*
X125502092Y-133103802D01*
X125482693Y-133098822D01*
X125464281Y-133092518D01*
X125445898Y-133084562D01*
X125445892Y-133084560D01*
X125399874Y-133077272D01*
X125394152Y-133076087D01*
X125349021Y-133064500D01*
X125349019Y-133064500D01*
X125328984Y-133064500D01*
X125309586Y-133062973D01*
X125302162Y-133061797D01*
X125289805Y-133059840D01*
X125289804Y-133059840D01*
X125243416Y-133064225D01*
X125237578Y-133064500D01*
X123130622Y-133064500D01*
X123063583Y-133044815D01*
X123042968Y-133021024D01*
X123018603Y-133047170D01*
X122955378Y-133064500D01*
X115886329Y-133064500D01*
X115819290Y-133044815D01*
X115813462Y-133040831D01*
X115682730Y-132945849D01*
X115682729Y-132945848D01*
X115509807Y-132868857D01*
X115509802Y-132868855D01*
X115364001Y-132837865D01*
X115324646Y-132829500D01*
X115254500Y-132829500D01*
X115187461Y-132809815D01*
X115141706Y-132757011D01*
X115130500Y-132705500D01*
X115130500Y-131174000D01*
X115150185Y-131106961D01*
X115202989Y-131061206D01*
X115254500Y-131050000D01*
X121444790Y-131050000D01*
X121511829Y-131069685D01*
G37*
G04 #@! TD.AperFunction*
M02*
