<?xml version="1.0" encoding="UTF-8" standalone="no"?>
<!DOCTYPE svg PUBLIC "-//W3C//DTD SVG 1.1//EN" "http://www.w3.org/Graphics/SVG/1.1/DTD/svg11.dtd">
<svg width="100%" height="100%" viewBox="0 0 816 1056" version="1.1" xmlns="http://www.w3.org/2000/svg" xmlns:xlink="http://www.w3.org/1999/xlink" xml:space="preserve" xmlns:serif="http://www.serif.com/" style="fill-rule:evenodd;clip-rule:evenodd;stroke-linejoin:round;stroke-miterlimit:2;">
    <g id="Page-1" serif:id="Page 1" transform="matrix(1.333333,0,0,1.333333,0,0)">
        <rect x="0" y="0" width="612" height="792" style="fill:none;"/>
        <g id="Solder-Mask" serif:id="Solder Mask">
            <g transform="matrix(-0.084909,-0.009226,0.019887,-0.183024,337.691151,621.179212)">
                <path d="M0,0C2,3 2,3 2,9C2.99,8.01 3.98,7.02 5,6L9,6L9,8C10.32,8.33 11.64,8.66 13,9L10,9L10,13C8.68,13.66 7.36,14.32 6,15C5.67,15.66 5.34,16.32 5,17C10,19 10,19 15.69,18.94C17.44,18.96 19.19,18.98 21,19C21.33,19.5 21.33,19.5 23,22C22.67,22.5 22.67,22.5 21,25C22.32,25.33 23.64,25.66 25,26C24.01,26.99 23.02,27.98 22,29C22.99,29.33 23.98,29.66 25,30C30,35 30,35 30,37C30.99,37.33 31.98,37.66 33,38C35,41 35,41 35,44C36.32,44.33 37.64,44.66 39,45C38.67,45.33 38.34,45.66 38,46C39.65,46.66 41.3,47.32 43,48L43,50L45,50L45,52C45.99,52.33 46.98,52.66 48,53C46.68,53.33 45.36,53.66 44,54L44,56C45.65,56.33 47.3,56.66 49,57C48.67,57.99 48.34,58.98 48,60C48.99,59.84 48.99,59.84 54,59L54,64C53.01,64.33 52.02,64.66 51,65C50.67,64.34 50.34,63.68 50,63C49.01,63.99 48.02,64.98 47,66C46.67,66.16 46.67,66.16 45,67C46.49,66.84 46.49,66.84 54,66C54.33,65.34 54.66,64.68 55,64C55.66,64.33 56.32,64.66 57,65C56.67,65.99 56.34,66.98 56,68C56.99,68.33 57.98,68.66 59,69C59.33,67.68 59.66,66.36 60,65C60.99,64.84 60.99,64.84 66,64L66,67C66.99,66.84 66.99,66.84 72,66C71.34,66.66 70.68,67.32 70,68C70.99,68.99 71.98,69.98 73,71C72.01,71.33 71.02,71.66 70,72C73,78 73,78 75,81L73,81C75.43,88.75 76.57,91.64 83,97C85,101 85,101 85,104L87,104C87.99,105.65 88.98,107.3 90,109L95,109C95.66,107.35 96.32,105.7 97,104C97.33,103.34 97.66,102.68 98,102C97.01,102.33 96.02,102.66 95,103L95,101C96.32,100.67 97.64,100.34 99,100C100,105 100,105 98,109L104,109C105.32,110.32 106.64,111.64 108,113C109.65,113.33 111.3,113.66 113,114L113,116C112.01,116.16 112.01,116.16 107,117L107,119C108.32,118.67 109.64,118.34 111,118L111,121C110.01,121.33 109.02,121.66 108,122L108,124L110,124C109.33,125.33 108.67,126.67 108,128C108.99,128.33 108.99,128.33 114,130C114.66,130.33 115.32,130.66 116,131C115.67,132.32 115.34,133.64 115,135C107,136 107,136 105,135L105,137C106.32,137.66 107.64,138.32 109,139C108.67,140.32 108.34,141.64 108,143L103,143C102.67,144.65 102.34,146.3 102,148L100,148C100.33,149.98 100.66,151.96 101,154L103,154C103.33,152.68 103.66,151.36 104,150C104.66,150.66 105.32,151.32 106,152C107.65,152.33 109.3,152.66 111,153C111.99,152.01 112.98,151.02 114,150C114.66,150.99 114.66,150.99 118,156C117.67,156.66 117.34,157.32 117,158L115,158L115,161L121,161C121.33,160.34 121.66,159.68 122,159L119,159C119.33,158.01 119.66,157.02 120,156C119.01,154.02 118.02,152.04 117,150L117,147C116.01,146.67 115.02,146.34 114,146C116.31,144.35 118.62,142.7 121,141C121.66,139.68 122.32,138.36 123,137C128,138 128,138 134,140C134.33,138.35 134.66,136.7 135,135C135.33,134.34 135.66,133.68 136,133C135.34,132.34 134.68,131.68 134,131C135.49,130.67 135.49,130.67 143,129C143.33,128.34 143.66,127.68 144,127L146,127L146,125C151,120 151,120 155,118C155.33,116.68 155.66,115.36 156,114L159,114L159,112C160.65,111.67 162.3,111.34 164,111L164,108L166,108C166.66,106.68 167.32,105.36 168,104L171,104L171,101C174.62,99.55 178.3,98.23 182,97L182,95C184.31,93.35 186.62,91.7 189,90C193,97 193,97 194.75,103.94C197.9,115.21 203.21,124.88 209,135C210.32,134.67 211.64,134.34 213,134L213,136L211,136C207.98,145.06 210.07,155.2 213,164C215.63,168.36 218.3,172.69 221,177C222.94,182.56 222.94,182.56 224,187C224.33,188.32 224.66,189.64 225,191C224.5,191.33 224.5,191.33 222,193L222,196C223.32,196.66 224.64,197.32 226,198L226,203C228.64,202.01 231.28,201.02 234,200C238,206.49 241.57,212.72 244,220C242.68,221.65 241.36,223.3 240,225C239.34,225.99 238.68,226.98 238,228C233.27,230.03 228.54,232.05 223.77,233.96C219,236 219,236 212,240L210,240C209.67,240.99 209.34,241.98 209,243C200.2,247 200.2,247 195,247C194.67,247.66 194.34,248.32 194,249C193.67,248.67 193.34,248.34 193,248C187.67,247.96 182.33,247.96 177,248C176.67,245.69 176.34,243.38 176,241C175.01,240.67 174.02,240.34 173,240C173.33,237.69 173.66,235.38 174,233C172.39,232.59 170.78,232.18 169.12,231.75C164,230 164,230 162,226C161.34,223.69 160.68,221.38 160,219C157.69,217.68 155.38,216.36 153,215C152.67,214.34 152.34,213.68 152,213L149,213L149,210C148.01,209.67 147.02,209.34 146,209C145.67,207.68 145.34,206.36 145,205C143.68,204.34 142.36,203.68 141,203C140.67,201.51 140.67,201.51 139,194C138.01,192.35 137.02,190.7 136,189L136,181C134.68,181.33 133.36,181.66 132,182C131.88,180.39 131.75,178.78 131.62,177.12C131,172 131,172 129,170C126.69,170.33 124.38,170.66 122,171C121.34,169.02 120.68,167.04 120,165L118,165C117.34,166.32 116.68,167.64 116,169C113.03,168.34 110.06,167.68 107,167C106.67,167.99 106.34,168.98 106,170C105.17,170.66 105.17,170.66 101,174C100.67,173.34 100.34,172.68 100,172L98,172L98,168C96.68,168.33 95.36,168.66 94,169C93.67,170.32 93.34,171.64 93,173C93.99,172.67 94.98,172.34 96,172L96,176C91,178.25 91,178.25 86,180C86.33,181.65 86.66,183.3 87,185C87.66,185.33 88.32,185.66 89,186L89,181C90.98,180.67 92.96,180.34 95,180L95,186C96.65,186.33 98.3,186.66 100,187L100,192C98.35,191.01 96.7,190.02 95,189C94.67,190.98 94.34,192.96 94,195C96.31,195.66 98.62,196.32 101,197C101.66,194.69 102.32,192.38 103,190C104.65,187.36 106.3,184.72 108,182C110.31,181.67 112.62,181.34 115,181C115.33,182.65 115.66,184.3 116,186C116.99,186.33 117.98,186.66 119,187C118.67,188.98 118.34,190.96 118,193C119.32,192.67 120.64,192.34 122,192C122.33,192.33 122.66,192.66 123,193L123,191C122.34,190.67 121.68,190.34 121,190C123.64,190.33 126.28,190.66 129,191C129.33,192.65 129.66,194.3 130,196C131.32,197.32 132.64,198.64 134,200C134.33,199.34 134.66,198.68 135,198C135.66,199.49 135.66,199.49 139,207C140,209 140,209 142,210C141.34,211.65 140.68,213.3 140,215C142.31,215.66 144.62,216.32 147,217C146.34,218.32 145.68,219.64 145,221C146.65,221.33 148.3,221.66 150,222L150,225C151.98,225.99 153.96,226.98 156,228L156,230C156.66,230.33 157.32,230.66 158,231C158.33,231.99 158.66,232.98 159,234C159.66,234.33 160.32,234.66 161,235C161.66,236.98 162.32,238.96 163,241C161.68,240.67 160.36,240.34 159,240C159.66,241.32 160.32,242.64 161,244C160.5,244.33 160.5,244.33 158,246C159.32,246.66 160.64,247.32 162,248C160.68,249.32 159.36,250.64 158,252L158,256C157.67,256.99 157.34,257.98 157,259C156.01,258.67 155.02,258.34 154,258C153.67,258.99 153.34,259.98 153,261C152.01,260.67 151.02,260.34 150,260C150.33,260.66 150.66,261.32 151,262C151,268 151,268 149,272C147.35,271.67 145.7,271.34 144,271C143.34,271.99 142.68,272.98 142,274C141.01,273.67 140.02,273.34 139,273L139,266L136,266L136,264C131,265 131,265 129,266C126.36,265.67 123.72,265.34 121,265C120.67,264.01 120.34,263.02 120,262C119.34,261.34 118.68,260.68 118,260C118.99,258.35 119.98,256.7 121,255C119.68,255.33 118.36,255.66 117,256C116.67,257.32 116.34,258.64 116,260C115.67,259.34 115.34,258.68 115,258C115.33,257.01 115.66,256.02 116,255C115.17,255.33 115.17,255.33 111,257L111,255C110.34,255.33 109.68,255.66 109,256L109,260C108.01,260.33 107.02,260.66 106,261C106.99,261.33 107.98,261.66 109,262L109,264C107.68,264.33 106.36,264.66 105,265L105,263C103.68,263.33 102.36,263.66 101,264C100.34,265.32 99.68,266.64 99,268C99.99,268.33 100.98,268.66 102,269L102,271C103.65,270.67 105.3,270.34 107,270C107.99,270.66 108.98,271.32 110,272L110,275L106,275C105.67,276.32 105.34,277.64 105,279L107,279L107,281L109,281C109.99,282.32 110.98,283.64 112,285L114,285C114.33,284.34 114.66,283.68 115,283C115.33,283.66 115.66,284.32 116,285C115.01,286.98 114.02,288.96 113,291C109,292 109,292 103,290L103,288C101.35,288.33 99.7,288.66 98,289C97.01,287.68 96.02,286.36 95,285C92.69,284.67 90.38,284.34 88,284L88,282C83,280 83,280 77,279L77,277C66.5,275.75 66.5,275.75 62,278C61.34,277.34 60.68,276.68 60,276C59.34,276.33 58.68,276.66 58,277C57.01,276.67 56.02,276.34 55,276L55,278C53.68,278.33 52.36,278.66 51,279L51,277C50.01,277.33 49.02,277.66 48,278L48,281C47.01,281.66 46.02,282.32 45,283C44.01,282.67 43.02,282.34 42,282C41.67,281.34 41.34,280.68 41,280C40,283 40,283 41,288C39.68,288.66 38.36,289.32 37,290L37,298C37.99,298.33 38.98,298.66 40,299C40.83,298.34 40.83,298.34 45,295C46.65,295.66 48.3,296.32 50,297C49.67,298.32 49.34,299.64 49,301L47,301L47,303L45,303C44.01,302.01 43.02,301.02 42,300C41.34,301.65 40.68,303.3 40,305C40.99,306.32 41.98,307.64 43,309L43,311L48,311L48,307L51,307C51.33,307.99 51.66,308.98 52,310C61,309 61,309 64,308C63,304 63,304 57,300C54,291.8 54,291.8 54,288C56.64,287.67 59.28,287.34 62,287C60,292 60,292 58,296C63,296 63,296 67,295C67.66,295.66 68.32,296.32 69,297C69.66,296.67 70.32,296.34 71,296C72.65,296.66 74.3,297.32 76,298C80.33,299.03 84.66,300.04 89,301C87.68,301.99 86.36,302.98 85,304C85.99,304.33 86.98,304.66 88,305L88,307C89.65,306.67 91.3,306.34 93,306C93.33,304.35 93.66,302.7 94,301C95.32,300.67 96.64,300.34 98,300C99.32,302.64 100.64,305.28 102,308L106,308L106,315C113,313 113,313 118,309C119.32,309.33 120.64,309.66 122,310C122.33,309.34 122.66,308.68 123,308C128,315 128,315 128,317C129.65,317.66 131.3,318.32 133,319C133.33,319.66 133.66,320.32 134,321L127,321L127,323C125.35,323.33 123.7,323.66 122,324C122.33,325.32 122.66,326.64 123,328L121,328L121,332L130,332C130.33,333.65 130.66,335.3 131,337C132.65,337.33 134.3,337.66 136,338L136,341L134,341C133.67,341.99 133.34,342.98 133,344L135,344L135,346C133,345 131,344 129,343C127.68,342.67 126.36,342.34 125,342L127,342C126.34,340.35 125.68,338.7 125,337C124.01,337.33 123.02,337.66 122,338C121.67,339.98 121.34,341.96 121,344L125,344L125,346L127,346C125,352 125,352 118,356L116,356C116.66,357.65 117.32,359.3 118,361C118,365 118,365 114,370C113.34,371.98 112.68,373.96 112,376C113.98,376.66 115.96,377.32 118,378C118.66,376.68 121.32,371.36 122,370L124,370C124.33,367.69 124.66,365.38 125,363C125.99,362.67 126.98,362.34 128,362C128.33,360.68 128.66,359.36 129,358C133,361 133,361 134,366L139,366C139.66,365.34 140.32,364.68 141,364C140.67,362.68 140.34,361.36 140,360C141.65,360.33 143.3,360.66 145,361C145,364 145,364 139,371C139.33,371.99 139.66,372.98 140,374C137,377 137,377 131,379C130.34,379.66 129.68,380.32 129,381C127.35,381.66 125.7,382.32 124,383L124,388C122.68,388.33 121.36,388.66 120,389C119.01,388.34 118.02,387.68 117,387L117,383C115.68,383.33 114.36,383.66 113,384C113.66,385.65 114.32,387.3 115,389C114.67,389.66 114.34,390.32 114,391L105,391L105,395C106.32,395.66 106.32,395.66 113,399C116,403 116,403 116,410C116.66,411.32 117.32,412.64 118,414L118,416C124,417 124,417 131,416C135,410 135,410 135,404L137,404C137.33,403.01 137.66,402.02 138,401C137.34,400.5 137.34,400.5 134,398C134.66,396.68 135.32,395.36 136,394C137.32,394.66 138.64,395.32 140,396C141.65,395.67 143.3,395.34 145,395C145.33,394.01 145.66,393.02 146,392C146.99,391.67 147.98,391.34 149,391C148.67,389.35 148.34,387.7 148,386C148.99,386.33 149.98,386.66 151,387C151.99,386.67 152.98,386.34 154,386L154,388C155.32,388.33 156.64,388.66 158,389C157.34,389.33 156.68,389.66 156,390L156,393C152,395 152,395 149,396L149,403C148.01,402.67 147.02,402.34 146,402C146.33,403.98 146.66,405.96 147,408C146.67,409.65 146.34,411.3 146,413L146,420C144,422 144,422 135,424C133.35,425.65 131.7,427.3 130,429C128.35,428.34 126.7,427.68 125,427C123.68,427.33 122.36,427.66 121,428C127.32,433.06 131.96,434.13 140,433.62C141.65,433.42 143.3,433.21 145,433C144.67,434.98 144.34,436.96 144,439C143.01,439.66 142.02,440.32 141,441L141,444C143,445 143,445 149,445C149.99,444.01 150.98,443.02 152,442L152,446C153.32,445.34 154.64,444.68 156,444L156,442L154,442C154.55,438.65 155.22,435.31 156,432C156.99,431.67 157.98,431.34 159,431C164,434 172.28,440.96 175,443L175,445L180,445C180.99,446.65 181.98,448.3 183,450C184.32,451.32 185.64,452.64 187,454C185.02,455.32 183.04,456.64 181,458C180,462 180,462 181,464C180.67,465.98 180.34,467.96 180,470C181.65,469.81 183.3,469.63 185,469.44C191,469 191,469 199,470C199.33,470.99 199.66,471.98 200,473L207,473C208,478 208,478 206,484C205.34,484.66 204.68,485.32 204,486L201,486C200.34,487.32 199.68,488.64 199,490C198.01,490.99 197.02,491.98 196,493C195,499 195,499 197,505C197,511.84 195.33,515.12 192,521C189,523 189,523 185,523L185,525C185.66,525.33 186.32,525.66 187,526C185.35,527.65 183.7,529.3 182,531C178,529.67 174,528.33 170,527L166,527C163.87,522.73 161.77,518.43 160,514C159.34,513.5 159.34,513.5 156,511C157.98,511.33 159.96,511.66 162,512C161.67,510.68 161.34,509.36 161,508C160.34,507.67 159.68,507.34 159,507L159,503C158.34,503.33 157.68,503.66 157,504L157,506C153,504 153,504 151,498C145,497 145,497 142,498C141.67,499.65 141.34,501.3 141,503C139.68,503.33 138.36,503.66 137,504C136.34,502.68 135.68,501.36 135,500C135.83,499.34 135.83,499.34 140,496C140.33,494.02 140.66,492.04 141,490C139.35,490.66 137.7,491.32 136,492C135.67,491.34 135.34,490.68 135,490C135.33,489.01 135.66,488.02 136,487C137.98,486.01 139.96,485.02 142,484L142,482C143.32,482.33 144.64,482.66 146,483L146,478L144,478C143.67,477.34 143.34,476.68 143,476C134,476 134,476 127,479C124.36,479.99 121.72,480.98 119,482C114.6,484.2 110.27,486.56 106,489C98,488 98,488 94,486L91,486L91,491C91.99,491.99 92.98,492.98 94,494C92.35,494.33 90.7,494.66 89,495C88.34,494.34 87.68,493.68 87,493L87,486C85.02,486.33 83.04,486.66 81,487L81,494C82.32,493.67 83.64,493.34 85,493L85,497C79.01,498.2 73.99,498.2 68,497C67.67,499.97 67.34,502.94 67,506C70,508 70,508 79,509C87.97,506.71 95.71,504.14 104,500L108,500C107.67,500.99 107.34,501.98 107,503L105,503L105,505C102.03,505.99 99.06,506.98 96,508C93.16,512.91 90.48,517.91 88,523C87.01,523.66 86.02,524.32 85,525C84.34,523.35 83.68,521.7 83,520C82.34,519.34 81.68,518.68 81,518C79.68,518.66 78.36,519.32 77,520C77.33,520.5 77.33,520.5 79,523L73,523C72.67,522.67 72.34,522.34 72,522C72.33,524.31 72.66,526.62 73,529L69,529C68.67,530.65 68.34,532.3 68,534C67.01,534.33 66.02,534.66 65,535C65.99,535.33 66.98,535.66 68,536C67,541 67,541 62,545C62.33,545.99 62.66,546.98 63,548C63.04,551.67 63.04,555.33 63,559L65,559C65.33,562.3 65.66,565.6 66,569C64.35,569.66 62.7,570.32 61,571C60.67,570.5 60.67,570.5 59,568C57.39,568.16 55.78,568.33 54.12,568.5C49,569 49,569 45,566C42.69,565.67 40.38,565.34 38,565L38,572C38.66,572.33 39.32,572.66 40,573C37.36,574.32 34.72,575.64 32,577C31.17,577.83 31.17,577.83 27,582C21.97,584.52 15.47,583.87 10,584C3,580 3,580 -3,572C-10.6,562.13 -10.6,562.13 -14,561C-19.87,555.13 -22.7,552.05 -25,544C-25.66,543.34 -26.32,542.68 -27,542C-29.24,531.73 -29.24,531.73 -28,528C-19.67,531.33 -19.67,531.33 -16,535L-13,535C-15.37,528.43 -16.95,525.05 -22,520C-27,515 -27,515 -29,508C-30.62,504.64 -32.28,501.31 -34,498C-35.65,498.33 -37.3,498.66 -39,499C-40.17,506.66 -39.86,509.37 -37,517C-37.67,521.67 -38.33,526.33 -39,531C-39,540.02 -38.71,545.86 -33,553C-33.67,555.67 -34.33,558.33 -35,561C-33.02,562.32 -31.04,563.64 -29,565C-25,570 -25,570 -24,574C-27.67,574.09 -31.33,574.08 -35,574C-37,572 -37,572 -38,565C-39.81,559.63 -39.81,559.63 -42,555C-43.32,554.67 -44.64,554.34 -46,554L-46,577L-51,577C-52.19,581.81 -52.19,581.81 -53,587C-52.5,587.5 -52.5,587.5 -50,590C-50.33,592.97 -50.66,595.94 -51,599C-50.01,599.33 -49.02,599.66 -48,600C-48.33,600.99 -48.66,601.98 -49,603C-54,601 -54,601 -58,596C-59.67,591.67 -61.34,587.34 -63,583C-63.5,582.5 -63.5,582.5 -66,580L-66,575C-66.83,574.5 -66.83,574.5 -71,572C-72.65,570.35 -74.3,568.7 -76,567C-76.99,566.67 -77.98,566.34 -79,566C-79.99,565.01 -80.98,564.02 -82,563L-82,560L-85,560L-85,558C-85.99,557.67 -86.98,557.34 -88,557C-91.62,553.13 -94.62,549.75 -97,545L-99,545C-99.33,543.35 -99.66,541.7 -100,540C-98.02,538.68 -96.04,537.36 -94,536L-94,530C-95.98,529.34 -97.96,528.68 -100,528C-99.01,526.68 -98.02,525.36 -97,524L-90,524C-88.02,523.67 -86.04,523.34 -84,523C-84.33,522.01 -84.66,521.02 -85,520C-83.68,519.34 -82.36,518.68 -81,518C-81.33,516.68 -81.66,515.36 -82,514L-82,511C-80.35,510.67 -78.7,510.34 -77,510L-77,503C-79,504 -79,504 -82,509C-88.34,516.83 -88.34,516.83 -93,518C-101,516 -101,516 -109,513C-110.47,507.14 -107.77,504.23 -105,499C-104.01,496.69 -103.02,494.38 -102,492C-101.34,491.34 -101.34,491.34 -98,488L-95,488C-95.1,486.23 -95.21,484.45 -95.31,482.62C-94.98,475.63 -93.45,471.98 -90,466C-89.67,465.01 -89.34,464.02 -89,463C-85,458 -85,458 -81,454C-76.33,454.25 -71.66,454.58 -67,455C-66.34,454.34 -65.68,453.68 -65,453C-56,453 -56,453 -47,457L-47,459L-45,459L-45,456C-42.69,456.33 -40.38,456.66 -38,457L-35,457C-35.33,457.66 -35.66,458.32 -36,459L-38,459L-38,461C-38.66,461.33 -39.32,461.66 -40,462L-40,465C-38.27,465.56 -36.53,466.11 -34.75,466.69C-29,469 -29,469 -25,474C-23.35,475.32 -21.7,476.64 -20,478C-19.5,479.32 -19.5,479.32 -17,486C-15.68,487.98 -14.36,489.96 -13,492L-13,494C-8,492 -8,492 -5,488C-5.5,486.68 -5.5,486.68 -8,480L-8,477L-10,477C-10.91,475.43 -11.82,473.87 -12.75,472.25C-16,467 -16,467 -22,463C-24.31,462.67 -26.62,462.34 -29,462C-29.66,461.67 -30.32,461.34 -31,461L-31,458C-16.38,456 -16.38,456 -13,456C-12.34,456.66 -11.68,457.32 -11,458C-8.03,457.01 -5.06,456.02 -2,455C2.02,455.91 6.02,456.93 10,458C20.35,458.85 30.62,459.11 41,459L41,454C33.29,452.28 25.87,450.87 18,450C10.84,448.85 6.7,447.35 0,444L-5.56,444C-11,444 -11,444 -18,440L-18,442C-25,441 -25,441 -34,437C-34.33,438.32 -34.66,439.64 -35,441C-36.32,440.34 -37.64,439.68 -39,439C-40.01,434 -41.01,429 -42,424C-43.65,421.36 -45.3,418.72 -47,416L-47,414C-48.32,413.67 -49.64,413.34 -51,413C-56,416 -56,416 -57,418C-57.05,421.35 -57.04,424.71 -57,428.06L-57,438C-58,439 -58,439 -63.88,439.12C-70,439 -70,439 -73,438C-75.33,428.67 -73.2,421.41 -69,413C-68.65,411.25 -68.3,409.49 -67.94,407.69C-67,403 -67,403 -64,400C-60,402 -60,402 -55,407C-54.01,407.66 -53.02,408.32 -52,409C-52.33,407.02 -52.66,405.04 -53,403C-51.35,402.67 -49.7,402.34 -48,402C-48.16,401.5 -48.16,401.5 -49,399C-49.66,398.67 -50.32,398.34 -51,398L-51,394C-51.99,393.67 -52.98,393.34 -54,393L-54,389L-47,389C-47.33,390.65 -47.66,392.3 -48,394C-47.84,394.5 -47.84,394.5 -47,397L-42,397C-42.66,395.02 -43.32,393.04 -44,391C-36.98,392.26 -29.99,393.58 -23,395L-23,393C-21.68,392.01 -20.36,391.02 -19,390L-19,388C-26,384 -26,384 -32,382L-32,380C-38,381 -38,381 -40,383C-40.99,382.67 -41.98,382.34 -43,382C-40,379 -40,379 -37,378C-35.35,375.36 -33.7,372.72 -32,370C-32.99,369.67 -33.98,369.34 -35,369L-35,367C-36.32,367.33 -37.64,367.66 -39,368C-39.66,369.65 -40.32,371.3 -41,373C-41.99,373.5 -41.99,373.5 -47,376C-52,371 -52,371 -53,366C-51.35,365.67 -49.7,365.34 -48,365L-48,359C-43.06,356.19 -43.06,356.19 -38,354C-37.67,353.67 -37.34,353.34 -37,353L-32,353C-31.67,351.02 -31.34,349.04 -31,347C-37,347 -37,347 -43,349C-43.99,346.69 -44.98,344.38 -46,342C-51,340 -51,340 -54,341C-54.99,342.98 -55.98,344.96 -57,347C-57.66,347.33 -58.32,347.66 -59,348C-63.81,338.39 -63.32,331.42 -61,321C-57,322 -57,322 -49,327L-49,329C-44,331 -44,331 -37,332C-36,328 -36,328 -38.19,323.56C-41.33,318.47 -44.2,314.6 -49,311L-49,295C-50.32,293.68 -51.64,292.36 -53,291L-59,291C-60,289 -60,289 -60,282L-58,282C-57.21,274.69 -57.22,269.13 -59,262L-61,262L-61,258C-61.16,257.5 -61.16,257.5 -62,255C-61.67,253.68 -61.34,252.36 -61,251L-59,251C-59.16,249.51 -59.16,249.51 -60,242C-59.34,241.67 -58.68,241.34 -58,241C-57.01,240.34 -56.02,239.68 -55,239L-49,239C-49.66,238.67 -50.32,238.34 -51,238C-50.67,235.69 -50.34,233.38 -50,231L-53,231L-53,229L-51,229L-51,227C-51.99,226.67 -52.98,226.34 -54,226L-54,224C-55.32,223.67 -56.64,223.34 -58,223C-59.67,219.67 -61.33,216.33 -63,213C-62.34,212.01 -61.68,211.02 -61,210C-61.33,209.01 -61.66,208.02 -62,207L-58,207L-58,209L-56,209L-56,207C-50.58,207.46 -45.33,207.93 -40,209C-38.35,208.67 -36.7,208.34 -35,208L-35,210C-27.12,203.25 -27.12,203.25 -26,201C-29,199 -29,199 -35.31,199.06C-42,199 -42,199 -48,196C-52.32,195.57 -56.66,195.22 -61,195L-61,192C-60.01,192.33 -59.02,192.66 -58,193C-57.84,191.68 -57.84,191.68 -57,185L-52,185C-51.67,182.69 -51.34,180.38 -51,178C-49.35,177.67 -47.7,177.34 -46,177C-44,179 -44,179 -44,189C-39,188 -39,188 -36,185C-35,177 -35,177 -36,174C-35.34,173.67 -34.68,173.34 -34,173C-34.33,172.01 -34.66,171.02 -35,170C-35.66,169.67 -35.66,169.67 -39,168C-40.1,162.69 -41.09,157.35 -42,152C-42.66,150.68 -43.32,149.36 -44,148L-44,140C-44.66,138.02 -45.32,136.04 -46,134C-44.35,133.01 -42.7,132.02 -41,131C-33,133 -33,133 -32,134C-30.35,134.33 -28.7,134.66 -27,135C-26.01,136.65 -25.02,138.3 -24,140C-12.54,146.55 -1.34,150.71 12,150C11,146 11,146 7,142C6.67,140.02 6.34,138.04 6,136C1.9,127.97 -0.03,124.55 -8,120C-8.66,119.84 -8.66,119.84 -12,119C-12.33,117.84 -12.33,117.84 -14,112C-19.12,110.56 -19.12,110.56 -24,110C-23.84,111.16 -23.84,111.16 -23,117C-32.75,116.12 -32.75,116.12 -35,115L-35,104C-37,102 -37,102 -44,101C-47,110 -47,110 -45,116C-45.33,116.16 -45.33,116.16 -47,117C-48.65,116.34 -50.3,115.68 -52,115C-52.66,110.93 -53,107.12 -53,103C-53.33,102.84 -53.33,102.84 -55,102L-52,102C-52.33,101.01 -52.66,100.02 -53,99C-52.34,97.68 -51.68,96.36 -51,95C-50.67,95.16 -50.67,95.16 -49,96C-49.66,93.69 -50.32,91.38 -51,89C-50.67,88.5 -50.67,88.5 -49,86L-49,84L-52,84C-52.16,84.66 -52.16,84.66 -53,88L-53,85L-56,85C-57,81 -57,81 -57,80C-57.33,79.84 -57.33,79.84 -59,79C-57.35,77.68 -55.7,76.36 -54,75C-56.31,74.34 -58.62,73.68 -61,73C-61,70 -61,70 -58,66L-54,66L-54,68L-52,68C-51.67,67.34 -51.34,66.68 -51,66L-53,66C-53.99,65.01 -54.98,64.02 -56,63L-58,63C-57.34,61.68 -56.68,60.36 -56,59C-54.68,59.33 -53.36,59.66 -52,60L-52,57C-51.34,56.67 -50.68,56.34 -50,56L-50,53C-49.01,52.84 -49.01,52.84 -44,52C-44.33,53.32 -44.66,54.64 -45,56C-43.02,56.66 -41.04,57.32 -39,58C-38.67,57.01 -38.34,56.02 -38,55C-35.36,54.67 -32.72,54.34 -30,54C-28.02,52.68 -26.04,51.36 -24,50C-21.03,49.34 -18.06,48.68 -15,48L-15,46C-15.66,45.67 -16.32,45.34 -17,45C-15.35,43.68 -13.7,42.36 -12,41C-12.33,40.01 -12.33,40.01 -14,35L-10,35C-9.67,33.68 -9.34,32.36 -9,31L-6,31C-8,26 -8,26 -11,24L-11,21C-11.66,20.67 -12.32,20.34 -13,20C-13.16,19.01 -13.16,19.01 -14,14C-11.69,12.68 -9.38,11.36 -7,10C-6.67,9.34 -6.34,8.68 -6,8L-4,8C-4.16,7.5 -4.16,7.5 -5,5C-3.35,3.35 -1.7,1.7 0,0Z" style="fill:rgb(130,130,130);fill-rule:nonzero;stroke:rgb(130,130,130);stroke-width:2.13px;"/>
            </g>
            <g transform="matrix(0.220013,0.152758,-0.152758,0.220013,300.101198,487.445149)">
                <path d="M0,0C7.31,3.99 14.08,8.33 20.81,13.25C26,17 26,17 27,17C27.66,16.67 28.32,16.34 29,16L29,11C36.22,12.81 38,14 43,20C43.16,20.83 43.16,20.83 44,25L46,25L46,27C47.32,27.33 48.64,27.66 50,28C54,30 54,30 56,35C56.99,35.99 57.98,36.98 59,38L59,40L57,40L57,38C55.35,38.66 53.7,39.32 52,40C55.45,46.9 61.54,51.64 67,57C67,56 67,56 66,54C71,50 71,50 78,50C85,53 85,53 87,54L87,56C89.97,56.33 92.94,56.66 96,57C99.54,58.77 102.23,61.46 104,65C104.66,65.16 104.66,65.16 108,66C109.65,68.31 111.3,70.62 113,73C112.84,73.5 112.84,73.5 112,76C115.02,76 118.01,75.43 121,75C120.5,75.16 120.5,75.16 118,76C118.66,76.16 118.66,76.16 122,77C122.66,76.34 123.32,75.68 124,75L124,77L127,77C126.67,78.98 126.34,80.96 126,83L128,83C128.33,82.34 128.66,81.68 129,81L129,84C130.15,83.84 130.15,83.84 136,83C137.65,83.99 139.3,84.98 141,86L141,92C140.01,92.33 139.02,92.66 138,93C138.33,93.66 138.66,94.32 139,95C136,96 136,96 133,95L133,92C131.68,91.67 130.36,91.34 129,91C128.67,91.66 128.34,92.32 128,93C126.02,93.99 124.04,94.98 122,96C121.01,96.99 120.02,97.98 119,99L119,94C118.67,93.67 118.34,93.34 118,93C113,87 113,87 112,84C107,79 107,79 103,78C103.33,78.66 103.66,79.32 104,80C106.86,85.72 107,89.71 107,96C104.36,95.67 101.72,95.34 99,95L99,99L103,99C103.16,100.16 103.16,100.16 104,106L106,106C106.33,105.34 106.66,104.68 107,104L107,107L109,107L109,105C109.99,104.01 110.98,103.02 112,102C114.64,102.33 117.28,102.66 120,103C121.65,102.01 123.3,101.02 125,100C126.98,100.33 128.96,100.66 131,101L137,101L137,103C146,105 146,105 153,105C153.99,105.99 154.98,106.98 156,108C155.01,109.32 154.02,110.64 153,112L153,115C158.36,118.23 162.84,120.77 169,122C169.66,122.66 170.32,123.32 171,124L175,124L175,122C179.32,119.4 183.09,117.23 188,116C192.95,123.92 195,129.7 195,139L191,139C191.33,141.31 191.66,143.62 192,146C192.35,150.33 192.69,154.67 193,159L198,159C198.33,156.36 198.66,153.72 199,151C203,155 203,155 206,161L211,161C212,156 212,156 210.12,151.31C207.39,143.19 207.32,135.52 207,127C206.67,126.67 206.34,126.34 206,126L206,119L204,119C203.67,117.84 203.67,117.84 202,112L205,112L205,115C206.98,114.01 208.96,113.02 211,112C225.74,109.54 238.97,114.75 251,123C251.99,122.67 252.98,122.34 254,122C254.33,123.65 254.66,125.3 255,127C256.98,128.65 258.96,130.3 261,132C261.33,132.99 261.66,133.98 262,135C278.21,142.64 278.21,142.64 285,144C287,150 287,150 285,155C284.51,155.82 284.51,155.82 282,160L277,160C276.34,161.32 275.68,162.64 275,164L278,164L278,167L276,167C276.66,168.98 277.32,170.96 278,173C272.76,184.58 266.62,194.83 259,205C258.51,205.82 258.51,205.82 256,210C254.35,210.99 252.7,211.98 251,213C249.68,213.99 248.36,214.98 247,216C245.02,216.33 243.04,216.66 241,217L241,220C235,224 235,224 229,223C228.34,224.65 227.68,226.3 227,228C220.03,228 214.7,226.75 208,225C205.69,224.67 203.38,224.34 201,224L201,226C196,227 196,227 189,227C186,222 186,222 184.56,215.69C183,209 183,209 179,201C178.67,198.69 178.34,196.38 178,194C176.68,193.67 175.36,193.34 174,193C173.01,191.35 172.02,189.7 171,188C171.83,187.67 171.83,187.67 176,186L176,184L178,184C177.67,182.68 177.34,181.36 177,180C174.69,180.33 172.38,180.66 170,181C169.67,178.03 169.34,175.06 169,172C168.01,171.34 168.01,171.34 163,168C160,159 160,159 159.31,153.81C158,149 158,149 150,143C148.68,140.36 147.36,137.72 146,135C145.34,134.67 144.68,134.34 144,134L144,131L142,131C141.01,130.01 140.02,129.02 139,128L139,124C132.87,125.02 126.98,126.29 121,128C120.67,128.99 120.34,129.98 120,131C118.68,131.33 117.36,131.66 116,132C110.89,126.89 111.47,124.04 111,117C110.34,115.35 109.68,113.7 109,112C106,111 106,111 103,112C101.93,110.25 100.86,108.49 99.75,106.69C96,101 96,101 92,98L85,98C84.34,98.66 83.68,99.32 83,100C82.5,99.84 82.5,99.84 80,99C80.33,99.99 80.66,100.98 81,102L84,102C84.66,102.33 84.66,102.33 88,104L94,104L94,107C94.66,107.33 95.32,107.66 96,108C91,112 91,112 89,112C88.67,112.66 88.34,113.32 88,114C87.34,113.67 86.68,113.34 86,113C83.98,112.73 81.96,112.46 79.88,112.19C69.95,110.47 63.74,106.02 56,100C48,96 48,96 42.5,95.5C34.54,94.78 28.86,90.92 22,87C20.68,86.34 16.68,84.34 16,84C17,78 17,78 19,73C19.33,70.03 19.66,67.06 20,64C18.68,63.67 17.36,63.34 16,63C14.35,62.34 12.7,61.68 11,61L11,57C10.01,56.67 9.02,56.34 8,56C5,48 5,48 4,40C3.01,39.67 2.02,39.34 1,39L1,37C1.96,36.84 1.96,36.84 6.81,36C8.85,35.34 10.9,34.68 13,34C16,26 16,26 16,23C14.68,22.67 13.36,22.34 12,22C12.66,20.68 13.32,19.36 14,18L16,18L16,16C15.01,15.67 14.02,15.34 13,15L13,12C11.68,11.67 10.36,11.34 9,11L9,9C7.35,9.33 5.7,9.66 4,10C0,4 0,4 0,0Z" style="fill:rgb(130,130,130);fill-rule:nonzero;stroke:rgb(130,130,130);stroke-width:2px;"/>
            </g>
            <g transform="matrix(1.21929,0,0,1.199193,-63.025481,-67.970622)">
                <g transform="matrix(0,0.22721,-0.22721,0,346.935183,338.340804)">
                    <path d="M0,0C2.31,1.65 4.62,3.3 7,5L7,7L9,7C11,10 11.16,19.99 12,25C11.34,25.66 10.68,26.32 10,27C14,31 14,31 22,32L25,32C26.32,34.97 27.64,37.94 29,41C29.99,39.02 30.98,37.04 32,35C37,34 37,34 39,35C40.98,34.67 42.96,34.34 45,34C46.65,35.98 48.3,37.96 50,40C51.65,40.99 53.3,41.98 55,43C55.99,44.65 56.98,46.3 58,48C59.65,49.65 61.3,51.3 63,53C63.16,54.15 63.16,54.15 64,60L66,60C66.33,60.66 66.33,60.66 68,64C69.32,65.32 70.64,66.64 72,68C76,74 76,74 76,79L78,79C78.76,80.61 79.53,82.22 80.31,83.88C83,89 83,89 88,91C83.72,98.49 79.6,102.5 73,108C71.56,111.29 70.22,114.62 69,118C68.01,119.65 67.02,121.3 66,123L66,127C67.98,127.33 69.96,127.66 72,128C76.06,122.88 76.06,122.88 80,117C85.33,111.67 90.67,106.33 96,101C96.99,101.33 97.98,101.66 99,102C100.28,107.77 101.48,113.56 102.56,119.38C104,127 104,127 105,130C104,133 104,133 98,138C94.69,139.38 91.35,140.72 88,142C86,144 86,144 85,150C93.45,150 98.78,146.13 106,142C108.31,142.33 110.62,142.66 113,143L113,145C114.65,144.67 116.3,144.34 118,144C118.33,141.36 118.66,138.72 119,136C120.67,136.47 122.34,136.95 124.06,137.44C130,139 130,139 137,140C136,145 136,145 133.06,150.75C130,157 130,157 128,166C123.89,174.21 123.08,175.77 115,179C106,182 106,182 99,182C95.28,183.9 91.61,185.9 88,188C86.35,188.66 84.7,189.32 83,190C82.34,191.32 81.68,192.64 81,194C86.25,195.05 90.97,195.51 96,193L96,199C96.66,200.32 97.32,201.64 98,203C96.47,211.85 92.78,216.27 86,222C84.51,222.66 84.51,222.66 77,226C74.69,227.65 72.38,229.3 70,231C69.34,231.33 69.34,231.33 66,233C65.67,233.99 65.34,234.98 65,236C75.7,237.78 84.57,235.09 94,230C101.12,224.81 104.5,222.17 108,214C113.97,212.51 119.02,213.84 125,215C125.99,215.99 126.98,216.98 128,218L128,220C129.32,219.67 130.64,219.34 132,219C131.67,217.68 131.34,216.36 131,215C133.31,215.66 135.62,216.32 138,217L138,214L140,214L140,205C141.98,203.35 143.96,201.7 146,200C148.36,194.68 150.71,189.35 153,184C152.34,183.67 151.68,183.34 151,183C151.66,181.68 152.32,180.36 153,179C158.63,178.25 158.63,178.25 164,178C164.33,176.35 164.66,174.7 165,173C163.18,172.34 161.37,171.68 159.5,171C157.68,170.01 155.87,169.02 154,168C154,160 154,160 157,153C158.98,151.68 160.96,150.36 163,149C162,144 162,144 160,139C161.82,138.34 161.82,138.34 171,135L171,132C168.03,130.68 165.06,129.36 162,128C162.33,127.34 162.33,127.34 164,124C164.33,122.02 164.66,120.04 165,118L168,118L168,116C168.66,115.67 169.32,115.34 170,115C169.67,113.02 169.34,111.04 169,109C169.66,108.67 170.32,108.34 171,108C171.72,106.62 172.44,105.24 173.19,103.81C176,99 176,99 183,93C184.32,92.67 185.64,92.34 187,92C187.33,91.01 187.66,90.02 188,89C194.58,83.52 197.75,83.06 206,82C206.99,81.67 207.98,81.34 209,81C210,89 210,89 208,98L208,102C209.32,102.66 210.64,103.32 212,104C211.36,108.13 210.71,112.25 210.06,116.38C209.7,118.67 209.34,120.97 208.97,123.34C208,129 208,129 207,131L205,131C205.58,132.46 206.15,133.93 206.75,135.44C208,141 208,141 204,150C200.39,158.41 200.93,164.92 201,174C197.87,178.69 193.19,179.25 188,181L188,184C190.97,184.66 193.94,185.32 197,186C200,193 200,193 198.19,200.12C196.01,208.97 195.78,216.09 196.15,225.09C196,230 196,230 193,239C191.02,240.32 189.04,241.64 187,243C188,247 188,247 190,251C189.34,251.99 188.68,252.98 188,254L186,254C186.33,255.98 186.66,257.96 187,260C186.67,260.99 186.34,261.98 186,263C186.28,267.34 186.61,271.67 187,276C165.41,276.07 143.82,276.12 122.22,276.16C112.2,276.17 102.17,276.19 92.15,276.23C82.48,276.26 72.81,276.28 63.15,276.28C59.45,276.29 55.76,276.3 52.06,276.32C46.9,276.34 41.74,276.34 36.58,276.34C33.64,276.35 30.69,276.35 27.66,276.36C21,276 21,276 18,273C14,265 14,265 14,263L12,263C-0.53,249.31 -0.53,249.31 -2,239C-7,235 -7,235 -12,232C-13,230 -13,230 -13,224C-13.66,224.33 -13.66,224.33 -17,226L-17,224L-19,224C-24,219 -24,219 -27,215L-27,213C-28.32,212.34 -29.64,211.68 -31,211C-36,203 -36,203 -35,194C-31,193 -31,193 -28,193L-28,184C-27.01,182.35 -26.02,180.7 -25,179C-24.67,177.02 -24.34,175.04 -24,173C-23.17,172.34 -23.17,172.34 -19,169C-18.67,167.68 -18.34,166.36 -18,165C-18.66,164.67 -19.32,164.34 -20,164C-18.4,160.96 -16.73,157.96 -15,155L-13,155C-11,150 -11,150 -10,145C-12.64,145.33 -15.28,145.66 -18,146C-19.32,148.64 -20.64,151.28 -22,154C-23.32,154.33 -24.64,154.66 -26,155L-26,150C-27.65,148.68 -29.3,147.36 -31,146C-31.33,143.69 -31.66,141.38 -32,139C-32.66,138.01 -33.32,137.02 -34,136L-32,136L-32,128C-33.32,127.34 -34.64,126.68 -36,126C-36.16,125.01 -36.16,125.01 -37,120C-36.17,119.67 -36.17,119.67 -32,118C-31.34,116.68 -30.68,115.36 -30,114C-29.5,113.67 -29.5,113.67 -27,112C-27.33,109.03 -27.66,106.06 -28,103C-28.83,103.33 -28.83,103.33 -33,105L-36,105C-34,100 -34,100 -28,96C-27.67,95.01 -27.34,94.02 -27,93C-27.99,92.67 -28.98,92.34 -30,92C-32,87 -32,87 -33,80C-32.34,78.68 -31.68,77.36 -31,76C-30.67,74.02 -30.34,72.04 -30,70C-29.01,69.67 -29.01,69.67 -24,68C-23.67,66.68 -23.34,65.36 -23,64L-25,64C-24.67,61.36 -24.34,58.72 -24,56C-18,52 -18,52 -11,53C-9.35,53.66 -7.7,54.32 -6,55C-5.67,52.69 -5.34,50.38 -5,48C-7.97,47.01 -10.94,46.02 -14,45C-14.66,44.34 -15.32,43.68 -16,43C-14.6,43.16 -13.2,43.33 -11.75,43.5C-5.8,44.02 0.03,44.07 6,44C6.33,42.35 6.66,40.7 7,39C2.71,38.34 -1.58,37.68 -6,37C-5.67,35.35 -5.34,33.7 -5,32C-5.99,31.34 -6.98,30.68 -8,30C-8.33,28.02 -8.66,26.04 -9,24C-7.68,22.68 -6.36,21.36 -5,20C-4.67,17.69 -4.34,15.38 -4,13C-5.98,12.34 -7.96,11.68 -10,11L-10,8L-13,8L-13,6C-12.34,5.67 -11.68,5.34 -11,5C-10.34,3.68 -9.68,2.36 -9,1C-6,-1 -6,-1 0,0Z" style="fill:rgb(130,130,130);fill-rule:nonzero;stroke:rgb(130,130,130);stroke-width:1.9px;"/>
                </g>
                <g transform="matrix(0,0.22721,-0.22721,0,335.34749,421.953957)">
                    <path d="M0,0C1.32,0.66 2.64,1.32 4,2C3.67,3.65 3.34,5.3 3,7C3.66,7.33 4.32,7.66 5,8C5.33,7.67 5.66,7.34 6,7L8,7L8,9C9.32,9.33 10.64,9.66 12,10C11.67,11.65 11.34,13.3 11,15C16,16 16,16 20,15L20,20C18.68,20.33 17.36,20.66 16,21C15.67,22.32 15.34,23.64 15,25L13,25L13,30C13.99,30.66 14.98,31.32 16,32C16.33,31.5 16.33,31.5 18,29C20,30 20,30 22,34L22,32L25,32L25,30L27,30L27,25C28.32,24.34 29.64,23.68 31,23C31.33,22.34 31.66,21.68 32,21L35,21L35,19C36.32,18.67 37.64,18.34 39,18C38.67,18.5 38.67,18.5 37,21L37,24C37.5,24.16 37.5,24.16 40,25C39.67,26.32 39.34,27.64 39,29L43,29C43.66,27.02 44.32,25.04 45,23C45.16,22.84 45.16,22.84 46,22L43,22C43.33,20.68 43.66,19.36 44,18L49,18L49,16C48.01,15.67 47.02,15.34 46,15C45.84,14.34 45.84,14.34 45,11L49,11C49.99,13.31 50.98,15.62 52,18C53.65,18.33 55.3,18.66 57,19C66.33,21.33 66.33,21.33 70,25C72.31,25.66 74.62,26.32 77,27C77.66,27.66 77.66,27.66 81,31C82.32,31.33 83.64,31.66 85,32C84.67,32.16 84.67,32.16 83,33C86,38 86,38 88,39C88.33,39.83 88.33,39.83 90,44C94,49 94,49 99,54C99.33,55.98 99.66,57.96 100,60C101.32,60.33 102.64,60.66 104,61L104,63L106,63C106.99,64.98 107.98,66.96 109,69C110.98,70.65 112.96,72.3 115,74C115.66,75.32 115.66,75.32 119,82C119.99,82.99 120.98,83.98 122,85C121.22,84.91 121.22,84.91 117.25,84.44C112,84 112,84 108,85L108,87C104.37,89.07 100.74,91.13 97,93L97,95C95.68,95.33 94.36,95.66 93,96C88,100 88,100 82,107C71.35,108.18 64.8,107.2 55,103C51.69,97.5 51.69,97.5 49,92C48.34,91.01 47.68,90.02 47,89L41,89C40.67,90.65 40.34,92.3 40,94C41.32,95.65 42.64,97.3 44,99C45.04,102.32 46.04,105.65 47,109C47.66,109.66 48.32,110.32 49,111C49.33,112.98 49.66,114.96 50,117C50.66,117.33 50.66,117.33 54,119C52.52,119.16 52.52,119.16 45,120C39.43,122.01 34.3,124.35 29,127L29,132C28.01,132.33 27.02,132.66 26,133C26.33,134.32 26.66,135.64 27,137C36.75,138.08 45.28,137.11 55,136L61,136C61.33,137.98 61.66,139.96 62,142C66.08,150.17 71.13,156.28 79,161C79.66,161.99 80.32,162.98 81,164C86,166 86,166 93,167C94.41,174.04 91.68,177 88,183C82.2,188.8 77.79,189.88 70,192C70.33,193.32 70.66,194.64 71,196C75,198 75,198 83,198C91.94,194.11 96.21,191.67 100.5,182.88C103,178 103,178 106,176C105.67,173.69 105.34,171.38 105,169C109,165 109,165 117,159L119,159L119,161L123,161C122.34,159.68 121.68,158.36 121,157L121,154C127.38,154.5 133.66,155.09 140,156C143,152 143,152 143,149C140.03,148.34 137.06,147.68 134,147C133.01,146.01 132.02,145.02 131,144C135,140 135,140 140,137C140.99,136.34 141.98,135.68 143,135L147,135L147,139L150,139L150,133C155,132 155,132 163,137C163.99,138.32 164.98,139.64 166,141C166.99,141.33 167.98,141.66 169,142C169.33,142.99 169.66,143.98 170,145C164.46,149.43 159.73,150.92 153,153C152.01,153.33 151.02,153.66 150,154C150.33,155.32 150.66,156.64 151,158C162.75,159.12 162.75,159.12 165,158C164.67,159.65 164.34,161.3 164,163L164,167C164.99,167.33 164.99,167.33 170,169C169,174 169,174 165,178C163.02,178.99 161.04,179.98 159,181C158,185 158,185 158,187L169,187C169.33,185.68 169.66,184.36 170,183C170.66,184.98 171.32,186.96 172,189L175,189L175,191C173.35,191.33 171.7,191.66 170,192L170,196L168,196C168.33,197.32 168.66,198.64 169,200C168.34,201.32 167.68,202.64 167,204C166.01,204.33 166.01,204.33 161,206C160.01,207.32 159.02,208.64 158,210C157.67,209.01 157.34,208.02 157,207C152,209 152,209 146,216C141.31,218.12 141.31,218.12 136,220C134.41,220.85 132.82,221.69 131.19,222.56C123.43,225.62 117.01,225.81 108.69,225.88C105.89,225.93 103.09,225.99 100.2,226.05C93,225 93,225 89.37,220.74C88.59,219.18 87.8,217.61 87,216C83.4,212.92 79.73,209.92 76,207C71.19,202.19 66.92,197.1 62.56,191.88C59,188 59,188 53,184C50.36,182.02 47.72,180.04 45,178C42.75,177.01 40.5,176.02 38.19,175C32,172 32,172 29,166C28.01,165.67 27.02,165.34 26,165C25.01,165.66 24.02,166.32 23,167C16,162 16,162 11,157C9.85,156.17 9.85,156.17 4,152C2.68,150.02 1.36,148.04 0,146C-3.56,142.44 -7.25,138.99 -11,135.62C-17,130 -17,130 -22,123C-22.66,122.67 -23.32,122.34 -24,122C-24,115 -24,115 -18,108C-16.35,106.68 -14.7,105.36 -13,104C-12.67,103.5 -12.67,103.5 -11,101L-9,101C-8.34,99.02 -7.68,97.04 -7,95C-5.68,93.68 -4.36,92.36 -3,91L-1,91C-0.34,89.68 0.32,88.36 1,87C2.98,85.35 4.96,83.7 7,82C7.33,79.36 7.66,76.72 8,74C8.99,72.02 9.98,70.04 11,68C11.33,66.35 11.66,64.7 12,63L14,63L14,57C12.68,56.67 11.36,56.34 10,56C10.99,55.67 11.98,55.34 13,55L13,52C12.01,51.34 11.02,50.68 10,50L10,48L8,48C8.16,48.66 8.16,48.66 9,52C8.01,51.67 7.02,51.34 6,51C5.32,52.69 4.64,54.38 3.94,56.12C-6.47,80.48 -6.47,80.48 -14,85C-16.97,84.67 -19.94,84.34 -23,84C-23.33,86.64 -23.66,89.28 -24,92C-22.35,92.33 -20.7,92.66 -19,93C-17.68,93.99 -16.36,94.98 -15,96C-16.65,96.99 -18.3,97.98 -20,99C-20.99,99.99 -21.98,100.98 -23,102C-23.66,102.33 -23.66,102.33 -27,104C-28.32,105.98 -29.64,107.96 -31,110C-31.83,110.16 -31.83,110.16 -36,111C-35.34,109.68 -34.68,108.36 -34,107C-32.15,95.89 -34.5,88.18 -39,78C-39.52,76.23 -40.03,74.45 -40.56,72.62C-42,68 -42,68 -46,62C-48,56 -48,56 -48,51L-50,51C-50,49 -50,49 -45,44C-44.01,42.35 -43.02,40.7 -42,39L-40,39C-39.67,37.68 -39.34,36.36 -39,35L-37,35C-36.67,34.34 -36.34,33.68 -36,33L-35,33C-34.34,31.02 -33.68,29.04 -33,27C-27,24 -27,24 -25,24C-24.67,23.34 -24.34,22.68 -24,22C-23.34,22.33 -22.68,22.66 -22,23C-21.67,20.36 -21.34,17.72 -21,15L-18,15C-17.67,13.68 -17.34,12.36 -17,11C-15.68,11.33 -14.36,11.66 -13,12C-13.16,11.5 -13.16,11.5 -14,9C-12.02,8.67 -10.04,8.34 -8,8C-7.34,6.02 -6.68,4.04 -6,2C-4.02,1.34 -2.04,0.68 0,0Z" style="fill:rgb(130,130,130);fill-rule:nonzero;stroke:rgb(130,130,130);stroke-width:1.9px;"/>
                </g>
                <g transform="matrix(0,0.22721,-0.22721,0,334.893071,396.733686)">
                    <path d="M0,0L2,0C2.66,0.66 3.32,1.32 4,2C7.33,2.41 10.66,2.74 14,3L14,6C15.65,6.33 17.3,6.66 19,7L19,10C19.99,9.84 19.99,9.84 25,9C25.99,9.33 26.98,9.66 28,10C27.67,11.32 27.34,12.64 27,14C27.99,16.31 28.98,18.62 30,21C31,30 31,30 28,34L28,36C27.01,36.66 26.02,37.32 25,38C25.33,38.66 25.66,39.32 26,40C26.5,40.16 26.5,40.16 29,41C29.78,44.31 30.45,47.65 31,51C29.35,51.99 27.7,52.98 26,54C25.67,55.32 25.34,56.64 25,58C27.97,57.34 30.94,56.68 34,56L37,56C39,61 39,61 41,68C41.41,68.79 41.41,68.79 43.5,72.81C46,78.01 47.07,82.34 48,88C48.33,89.49 48.33,89.49 50,97C50.58,100.74 51.12,104.5 51.62,108.25C51.89,110.15 52.15,112.06 52.41,114.02C53,119 53,119 53,124C54.32,125.98 55.64,127.96 57,130C57.16,130.83 57.16,130.83 58,135C58.33,135.99 58.66,136.98 59,138C59.35,148.29 59.35,148.29 57,153C55.35,153.99 53.7,154.98 52,156L52,164C51.84,165.32 51.84,165.32 51,172C51.33,173.32 51.66,174.64 52,176C49.69,176.33 47.38,176.66 45,177C44.84,177.99 44.84,177.99 44,183C46.64,183.66 49.28,184.32 52,185C52,193 52,193 50,197L50,206C49.01,206.33 48.02,206.66 47,207C46.23,210.98 45.57,214.98 45,219C44.67,220.32 44.34,221.64 44,223C29.51,223.12 15.02,223.21 0.53,223.27C-4.4,223.3 -9.34,223.33 -14.27,223.38C-21.34,223.44 -28.42,223.47 -35.49,223.49C-37.71,223.51 -39.93,223.54 -42.22,223.57C-47.48,223.57 -52.75,223.31 -58,223C-62.46,211.85 -58.19,203.51 -54,193C-51.66,185.98 -49.76,179.17 -48,172C-46.06,164.65 -44.09,157.31 -42,150L-39,150C-39.16,149.34 -39.16,149.34 -40,146C-41.65,145.67 -43.3,145.34 -45,145C-44.34,143.02 -43.68,141.04 -43,139C-42.01,138.67 -42.01,138.67 -37,137C-36.67,134.69 -36.34,132.38 -36,130C-34.17,122.73 -32.2,115.6 -29.81,108.5C-27.73,102.18 -27,96.65 -27,90C-24.14,82.37 -20.78,77.48 -16,71C-15,67 -15,67 -16,60C-16.99,58.35 -17.98,56.7 -19,55C-19.16,53.85 -19.16,53.85 -20,48C-20.99,45.69 -21.98,43.38 -23,41C-25.35,31.7 -25.35,31.7 -23,27C-22.67,24.03 -22.34,21.06 -22,18C-21.34,16.68 -20.68,15.36 -20,14C-19.67,12.68 -19.34,11.36 -19,10C-15.34,8.97 -11.67,7.98 -8,7C-1,2 -1,2 0,0Z" style="fill:rgb(130,130,130);fill-rule:nonzero;stroke:rgb(130,130,130);stroke-width:1.9px;"/>
                </g>
                <g transform="matrix(0,0.22721,-0.22721,0,299.221155,416.046506)">
                    <path d="M0,0C9,3 9,3 16,8C17.77,8.68 19.55,9.36 21.38,10.06C22.9,10.7 24.43,11.34 26,12C26.16,12.66 26.16,12.66 27,16C29.64,17.98 32.28,19.96 35,22C35.66,23.32 36.32,24.64 37,26C38.65,26.33 40.3,26.66 42,27L42,29C42.79,29.22 42.79,29.22 46.81,30.31C52,32 52,32 55,35L61,35L61,38L63,38C63.33,38.99 63.66,39.98 64,41C65.98,40.67 67.96,40.34 70,40C72.31,40.33 74.62,40.66 77,41C77.99,43.97 78.98,46.94 80,50C81.98,51.65 83.96,53.3 86,55L86,57L94,57C94.16,57.83 94.16,57.83 95,62C95.66,62.16 95.66,62.16 99,63C99.33,63.5 99.33,63.5 101,66L-19,66C-18.34,64.35 -17.68,62.7 -17,61L-11,61C-9,59 -9,59 -8,54C-6.85,53.84 -6.85,53.84 -1,53L-1,47C-2.98,46.34 -4.96,45.68 -7,45C-6.5,44.84 -6.5,44.84 -4,44C-3.29,40.34 -2.63,36.67 -2,33C-1.67,32.84 -1.67,32.84 0,32C-1,27 -1,27 -2,25C-2.99,24.67 -3.98,24.34 -5,24C-6.47,15.16 -2.8,8.4 0,0Z" style="fill:rgb(130,130,130);fill-rule:nonzero;stroke:rgb(130,130,130);stroke-width:1.9px;"/>
                </g>
                <g transform="matrix(0,0.22721,-0.22721,0,339.664474,419.454651)">
                    <path d="M0,0C1.32,-0.33 2.64,-0.66 4,-1C11,-2 11,-2 15,-1C15.33,0.32 15.66,1.64 16,3C16.66,2.01 17.32,1.02 18,0C25,1 25,1 32,5L32,8C32.83,8.16 32.83,8.16 37,9C37.66,9.99 38.32,10.98 39,12C39.83,12.33 39.83,12.33 44,14C44.16,14.99 44.16,14.99 45,20C41,21 41,21 36,21C35.34,21.99 34.68,22.98 34,24L29,24C27.35,24.99 25.7,25.98 24,27C24.66,25.35 25.32,23.7 26,22C24.68,20.68 23.36,19.36 22,18C20,16 20,16 19,11C10,9 10,9 2,8C1.67,7.01 1.34,6.02 1,5C0.01,4.84 0.01,4.84 -5,4C-5.66,5.65 -6.32,7.3 -7,9C-8.32,9.33 -9.64,9.66 -11,10L-11,5C-12.32,4.67 -13.64,4.34 -15,4C-14.67,2.02 -14.34,0.04 -14,-2C-4.94,-3.29 -4.94,-3.29 0,0Z" style="fill:rgb(130,130,130);fill-rule:nonzero;stroke:rgb(130,130,130);stroke-width:1.9px;"/>
                </g>
            </g>
            <g transform="matrix(0,0.161828,-0.130455,0,365.370781,622.281054)">
                <path d="M0,0C1.32,0.66 2.64,1.32 4,2C4.66,1.67 5.32,1.34 6,1L6,3C7.98,2.34 9.96,1.68 12,1C12.33,1.66 12.66,2.32 13,3L15,3L15,6C16.32,6.66 17.64,7.32 19,8C19.33,9.32 19.66,10.64 20,12C22.31,12.66 24.62,13.32 27,14C29.31,18.62 31.33,23.1 33,28C32.34,29.98 31.68,31.96 31,34C33,35 33,35 40,35L43,35C43.16,35.66 43.16,35.66 44,39C41.03,38.67 38.06,38.34 35,38L35,40C34.34,40.16 34.34,40.16 31,41C30.67,40.01 30.34,39.02 30,38L30,45L32,45C32.06,46.59 32.12,48.18 32.19,49.81C32.46,51.52 32.72,53.24 33,55C34.65,55.99 36.3,56.98 38,58L38,61C39.32,60.34 40.64,59.68 42,59C41.67,58.34 41.34,57.68 41,57C39.68,56.67 38.36,56.34 37,56L37,53C37.99,52.84 37.99,52.84 43,52C43.33,52.99 43.66,53.98 44,55C45.65,55.33 47.3,55.66 49,56C48.01,59.63 47.02,63.26 46,67C46.66,66.67 46.66,66.67 50,65L50,68C50.99,68.33 51.98,68.66 53,69L53,73C59,73 59,73 65,70C65.33,69.34 65.66,68.68 66,68C71,69 71,69 75,71L75,75C75.66,74.67 76.32,74.34 77,74L77,70C82,68 82,68 91,69L91,71C95,69 95,69 96,67C97.32,66.67 98.64,66.34 100,66C110,76 110,76 110,81C111.65,81.66 113.3,82.32 115,83C117.37,84.53 119.74,86.05 122.19,87.62C129,92 129,92 131,92L131,94L140,94C139.67,94.99 139.34,95.98 139,97L137,97C136.34,97.99 135.68,98.98 135,100L135,96C132,97 132,97 130,100L130,103C130.66,103.33 131.32,103.66 132,104C132.08,107.67 132.08,111.33 132,115L126,115L126,118L124,118C123.67,118.66 123.67,118.66 122,122L122,117L117,117C116.67,117.66 116.67,117.66 115,121C112.69,120.67 110.38,120.34 108,120C107.34,120.66 106.68,121.32 106,122C104.68,122.33 103.36,122.66 102,123L102,127C107.41,128.35 112.62,128.79 118,127C118.33,126.34 118.66,125.68 119,125C119.5,125.16 119.5,125.16 122,126C121.67,127.65 121.34,129.3 121,131C116.05,131.33 111.1,131.66 106,132C105.67,133.32 105.34,134.64 105,136C111,140.5 116.64,139.06 124,139C126.64,139.66 129.28,140.32 132,141C132.66,142.98 133.32,144.96 134,147C133.34,148.32 132.68,149.64 132,151C125.49,151.4 119.19,151.56 112.69,151.5C111.78,151.51 111.78,151.51 107.21,151.55C93.63,151.51 93.63,151.51 88,147C87.34,147.33 87.34,147.33 84,149C80,148 80,148 78,146C77.69,144.18 77.38,142.37 77.06,140.5C76.71,138.68 76.36,136.87 76,135C75.5,134.67 75.5,134.67 73,133C72.84,132.17 72.84,132.17 72,128C71.34,126.35 70.68,124.7 70,123C68.02,122.34 66.04,121.68 64,121C63.34,119.85 63.34,119.85 60,114C57,112 57,112 52,113C50.68,112.01 49.36,111.02 48,110L48,108L42,108C41.34,106.85 41.34,106.85 38,101C36.35,100.01 34.7,99.02 33,98C32.34,95.03 31.68,92.06 31,89C29,83 29,83 22,79C21.67,78.01 21.34,77.02 21,76C19.68,75.34 18.36,74.68 17,74C15.25,68.88 15.25,68.88 14,64L8,64C7.34,63.67 6.68,63.34 6,63C6.66,61.35 7.32,59.7 8,58C7.01,57.67 6.02,57.34 5,57C3,54 3,54 1,48C0.67,47.34 0.34,46.68 0,46C7.11,48.03 9.85,49.94 15,55L15,57C16.98,57.33 18.96,57.66 21,58C22.65,58.99 24.3,59.98 26,61L28,61C29.32,50.42 28.73,47.17 23,38C21.68,37.34 20.36,36.68 19,36C18.01,35.01 17.02,34.02 16,33L12,33C5.11,24.73 5.11,24.73 3.56,14.56C2,5 2,5 -1,1C-0.67,0.67 -0.34,0.34 0,0Z" style="fill:rgb(130,130,130);fill-rule:nonzero;stroke:rgb(130,130,130);stroke-width:3.09px;"/>
            </g>
            <g transform="matrix(0,0.22721,-0.22721,0,360.299723,480.370533)">
                <path d="M0,0C4,1 4,1 9,7C11.97,7.99 14.94,8.98 18,10C18.16,11.32 18.16,11.32 19,18C18.01,18.66 17.02,19.32 16,20C13,24 13,24 12,27C3.43,26.68 0.66,25.79 -7,21C-8.65,21.33 -10.3,21.66 -12,22C-12.33,23.32 -12.66,24.64 -13,26C-18,32 -18,32 -22,34C-28,34 -28,34 -30,33C-30,27 -30,27 -26,23C-20.43,18.71 -14.89,14.56 -8.94,10.81C-5,8 -5,8 -2,2C-1.34,1.34 -0.68,0.68 0,0Z" style="fill:rgb(130,130,130);fill-rule:nonzero;stroke:rgb(130,130,130);stroke-width:2px;"/>
            </g>
            <g transform="matrix(0,0.22721,-0.22721,0,351.438547,472.645405)">
                <path d="M0,0C0.33,1.65 0.66,3.3 1,5L3,5C1.83,12.01 0.34,14.4 -5,19C-10.44,18.5 -10.44,18.5 -15,17C-15.33,18.32 -15.66,19.64 -16,21C-17.32,21.99 -18.64,22.98 -20,24L-20,21L-18,21C-18.33,19.02 -18.66,17.04 -19,15C-19.66,15.33 -20.32,15.66 -21,16C-21.66,15.01 -22.32,14.02 -23,13C-25.64,12.34 -28.28,11.68 -31,11L-31,9C-24,5 -24,5 -22,5L-22,3C-7.09,-2.36 -7.09,-2.36 0,0Z" style="fill:rgb(130,130,130);fill-rule:nonzero;stroke:rgb(130,130,130);stroke-width:2px;"/>
            </g>
        </g>
    </g>
</svg>
