<?xml version="1.0" encoding="UTF-8" standalone="no"?>
<!DOCTYPE svg PUBLIC "-//W3C//DTD SVG 1.1//EN" "http://www.w3.org/Graphics/SVG/1.1/DTD/svg11.dtd">
<svg width="100%" height="100%" viewBox="0 0 816 1056" version="1.1" xmlns="http://www.w3.org/2000/svg" xmlns:xlink="http://www.w3.org/1999/xlink" xml:space="preserve" xmlns:serif="http://www.serif.com/" style="fill-rule:evenodd;clip-rule:evenodd;stroke-linejoin:round;stroke-miterlimit:2;">
    <g id="Page-1" serif:id="Page 1" transform="matrix(1.333333,0,0,1.333333,0,0)">
        <rect x="0" y="0" width="612" height="792" style="fill:none;"/>
        <g id="Silkscreen">
            <g transform="matrix(0.75,0,0,0.75,17.62268,83.5122)">
                <g transform="matrix(21.333333,0,0,21.333333,366.914387,309.849602)">
                    <path d="M0.647,-0.713L0.647,-0.579C0.582,-0.634 0.514,-0.661 0.443,-0.661C0.366,-0.661 0.301,-0.633 0.248,-0.578C0.194,-0.522 0.167,-0.455 0.167,-0.375C0.167,-0.295 0.194,-0.229 0.248,-0.174C0.301,-0.12 0.366,-0.093 0.444,-0.093C0.484,-0.093 0.518,-0.099 0.546,-0.112C0.562,-0.119 0.578,-0.128 0.594,-0.139C0.611,-0.15 0.629,-0.163 0.647,-0.179L0.647,-0.042C0.582,-0.005 0.514,0.014 0.442,0.014C0.335,0.014 0.243,-0.024 0.167,-0.099C0.091,-0.175 0.053,-0.266 0.053,-0.374C0.053,-0.47 0.084,-0.555 0.148,-0.63C0.226,-0.722 0.327,-0.769 0.451,-0.769C0.519,-0.769 0.584,-0.75 0.647,-0.713Z" style="fill:rgb(35,31,32);fill-rule:nonzero;"/>
                </g>
                <g transform="matrix(21.333333,0,0,21.333333,381.862304,309.849602)">
                    <rect x="0.069" y="-0.825" width="0.11" height="0.825" style="fill:rgb(35,31,32);fill-rule:nonzero;"/>
                </g>
                <g transform="matrix(21.333333,0,0,21.333333,387.174804,309.849602)">
                    <path d="M0.42,-0.476L0.53,-0.476L0.53,-0L0.42,-0L0.42,-0.05C0.375,-0.007 0.326,0.014 0.274,0.014C0.208,0.014 0.154,-0.01 0.111,-0.058C0.068,-0.106 0.047,-0.167 0.047,-0.239C0.047,-0.311 0.068,-0.37 0.111,-0.417C0.153,-0.465 0.207,-0.489 0.271,-0.489C0.326,-0.489 0.376,-0.466 0.42,-0.42L0.42,-0.476ZM0.159,-0.239C0.159,-0.194 0.171,-0.157 0.196,-0.128C0.221,-0.099 0.252,-0.084 0.291,-0.084C0.331,-0.084 0.364,-0.098 0.389,-0.126C0.414,-0.155 0.427,-0.192 0.427,-0.237C0.427,-0.281 0.414,-0.318 0.389,-0.347C0.364,-0.375 0.332,-0.39 0.292,-0.39C0.254,-0.39 0.222,-0.375 0.197,-0.347C0.172,-0.318 0.159,-0.282 0.159,-0.239Z" style="fill:rgb(35,31,32);fill-rule:nonzero;"/>
                </g>
                <g transform="matrix(21.333333,0,0,21.333333,399.966471,309.849602)">
                    <path d="M0.42,-0.825L0.53,-0.825L0.53,-0L0.42,-0L0.42,-0.05C0.377,-0.007 0.328,0.014 0.273,0.014C0.208,0.014 0.154,-0.01 0.111,-0.058C0.068,-0.106 0.047,-0.167 0.047,-0.239C0.047,-0.31 0.068,-0.369 0.111,-0.417C0.153,-0.465 0.206,-0.489 0.271,-0.489C0.326,-0.489 0.376,-0.466 0.42,-0.42L0.42,-0.825ZM0.159,-0.239C0.159,-0.194 0.171,-0.157 0.196,-0.128C0.221,-0.099 0.252,-0.084 0.291,-0.084C0.331,-0.084 0.364,-0.098 0.389,-0.126C0.414,-0.155 0.427,-0.192 0.427,-0.237C0.427,-0.281 0.414,-0.318 0.389,-0.347C0.364,-0.375 0.332,-0.39 0.292,-0.39C0.254,-0.39 0.222,-0.375 0.197,-0.347C0.172,-0.318 0.159,-0.282 0.159,-0.239Z" style="fill:rgb(35,31,32);fill-rule:nonzero;"/>
                </g>
                <g transform="matrix(21.333333,0,0,21.333333,412.758137,309.849602)">
                    <path d="M0.047,-0.241C0.047,-0.31 0.071,-0.368 0.121,-0.417C0.17,-0.465 0.23,-0.489 0.3,-0.489C0.371,-0.489 0.431,-0.465 0.481,-0.416C0.53,-0.368 0.554,-0.308 0.554,-0.237C0.554,-0.166 0.53,-0.106 0.48,-0.058C0.431,-0.01 0.37,0.014 0.298,0.014C0.227,0.014 0.167,-0.011 0.119,-0.06C0.071,-0.108 0.047,-0.168 0.047,-0.241ZM0.159,-0.239C0.159,-0.192 0.172,-0.154 0.197,-0.126C0.223,-0.098 0.258,-0.084 0.3,-0.084C0.343,-0.084 0.378,-0.098 0.403,-0.126C0.429,-0.154 0.442,-0.191 0.442,-0.237C0.442,-0.283 0.429,-0.32 0.403,-0.348C0.377,-0.376 0.343,-0.39 0.3,-0.39C0.258,-0.39 0.224,-0.376 0.198,-0.348C0.172,-0.32 0.159,-0.284 0.159,-0.239Z" style="fill:rgb(35,31,32);fill-rule:nonzero;"/>
                </g>
                <g transform="matrix(21.333333,0,0,21.333333,425.581054,309.849602)">
                    <path d="M0.069,-0.476L0.18,-0.476L0.18,-0.432C0.218,-0.47 0.261,-0.489 0.31,-0.489C0.365,-0.489 0.408,-0.471 0.439,-0.437C0.466,-0.407 0.479,-0.359 0.479,-0.292L0.479,-0L0.369,-0L0.369,-0.266C0.369,-0.312 0.362,-0.345 0.349,-0.363C0.336,-0.381 0.313,-0.39 0.28,-0.39C0.243,-0.39 0.217,-0.378 0.202,-0.354C0.187,-0.33 0.18,-0.289 0.18,-0.229L0.18,-0L0.069,-0L0.069,-0.476Z" style="fill:rgb(35,31,32);fill-rule:nonzero;"/>
                </g>
                <g transform="matrix(21.333333,0,0,21.333333,437.278971,309.849602)">
                    <path d="M0.179,-0.476L0.179,-0L0.069,-0L0.069,-0.476L0.179,-0.476ZM0.053,-0.673C0.053,-0.693 0.06,-0.709 0.074,-0.723C0.088,-0.737 0.104,-0.744 0.124,-0.744C0.144,-0.744 0.161,-0.737 0.175,-0.723C0.189,-0.709 0.196,-0.693 0.196,-0.673C0.196,-0.653 0.189,-0.636 0.175,-0.622C0.161,-0.608 0.144,-0.601 0.125,-0.601C0.105,-0.601 0.088,-0.608 0.074,-0.622C0.06,-0.636 0.053,-0.653 0.053,-0.673Z" style="fill:rgb(35,31,32);fill-rule:nonzero;"/>
                </g>
                <g transform="matrix(21.333333,0,0,21.333333,442.591471,309.849602)">
                    <path d="M0.42,-0.476L0.53,-0.476L0.53,-0L0.42,-0L0.42,-0.05C0.375,-0.007 0.326,0.014 0.274,0.014C0.208,0.014 0.154,-0.01 0.111,-0.058C0.068,-0.106 0.047,-0.167 0.047,-0.239C0.047,-0.311 0.068,-0.37 0.111,-0.417C0.153,-0.465 0.207,-0.489 0.271,-0.489C0.326,-0.489 0.376,-0.466 0.42,-0.42L0.42,-0.476ZM0.159,-0.239C0.159,-0.194 0.171,-0.157 0.196,-0.128C0.221,-0.099 0.252,-0.084 0.291,-0.084C0.331,-0.084 0.364,-0.098 0.389,-0.126C0.414,-0.155 0.427,-0.192 0.427,-0.237C0.427,-0.281 0.414,-0.318 0.389,-0.347C0.364,-0.375 0.332,-0.39 0.292,-0.39C0.254,-0.39 0.222,-0.375 0.197,-0.347C0.172,-0.318 0.159,-0.282 0.159,-0.239Z" style="fill:rgb(35,31,32);fill-rule:nonzero;"/>
                </g>
                <g transform="matrix(9.333333,0,0,9.333333,386.104166,320.849602)">
                    <path d="M0.248,-0.495L0.248,-0.408C0.225,-0.425 0.201,-0.433 0.176,-0.433C0.168,-0.433 0.16,-0.432 0.153,-0.429C0.146,-0.426 0.139,-0.422 0.134,-0.417C0.129,-0.412 0.124,-0.406 0.121,-0.399C0.118,-0.392 0.117,-0.384 0.117,-0.376C0.117,-0.352 0.139,-0.324 0.182,-0.291C0.2,-0.277 0.214,-0.264 0.226,-0.252C0.238,-0.241 0.247,-0.23 0.253,-0.219C0.266,-0.199 0.272,-0.173 0.272,-0.142C0.272,-0.096 0.259,-0.06 0.232,-0.033C0.206,-0.006 0.171,0.008 0.127,0.008C0.1,0.008 0.073,-0 0.045,-0.016L0.045,-0.106C0.072,-0.086 0.098,-0.076 0.122,-0.076C0.165,-0.076 0.186,-0.097 0.186,-0.139C0.186,-0.155 0.182,-0.168 0.174,-0.18C0.171,-0.185 0.165,-0.192 0.157,-0.199C0.149,-0.206 0.14,-0.215 0.128,-0.224C0.089,-0.254 0.062,-0.28 0.048,-0.301C0.035,-0.322 0.028,-0.348 0.028,-0.378C0.028,-0.419 0.04,-0.452 0.065,-0.479C0.091,-0.504 0.124,-0.517 0.165,-0.517C0.193,-0.517 0.221,-0.51 0.248,-0.495Z" style="fill:rgb(35,31,32);fill-rule:nonzero;"/>
                </g>
                <g transform="matrix(9.333333,0,0,9.333333,388.893229,320.849602)">
                    <path d="M0.064,-0.647L0.157,-0.647L0.157,-0.505L0.208,-0.505L0.208,-0.431L0.157,-0.431L0.157,-0L0.064,-0L0.064,-0.431L0.013,-0.431L0.013,-0.505L0.064,-0.505L0.064,-0.647Z" style="fill:rgb(35,31,32);fill-rule:nonzero;"/>
                </g>
                <g transform="matrix(9.333333,0,0,9.333333,390.957682,320.849602)">
                    <path d="M0.248,-0.17L0.335,-0.17C0.328,-0.052 0.279,0.008 0.188,0.008C0.161,0.008 0.138,0.003 0.119,-0.007C0.1,-0.017 0.083,-0.033 0.071,-0.054C0.058,-0.075 0.049,-0.102 0.043,-0.135C0.037,-0.167 0.034,-0.206 0.034,-0.251C0.034,-0.34 0.046,-0.406 0.071,-0.449C0.096,-0.492 0.134,-0.514 0.187,-0.514C0.288,-0.514 0.338,-0.424 0.338,-0.246L0.338,-0.234L0.125,-0.234C0.125,-0.126 0.146,-0.072 0.189,-0.072C0.229,-0.072 0.248,-0.105 0.248,-0.17ZM0.243,-0.302C0.239,-0.355 0.233,-0.39 0.225,-0.406C0.217,-0.425 0.203,-0.434 0.184,-0.434C0.165,-0.434 0.151,-0.425 0.143,-0.406C0.135,-0.39 0.129,-0.355 0.125,-0.302L0.243,-0.302Z" style="fill:rgb(35,31,32);fill-rule:nonzero;"/>
                </g>
                <g transform="matrix(9.333333,0,0,9.333333,394.398437,320.849602)">
                    <path d="M0.053,-0.505L0.146,-0.505L0.146,-0.442C0.162,-0.469 0.178,-0.488 0.193,-0.499C0.209,-0.509 0.23,-0.515 0.255,-0.517L0.255,-0.419C0.249,-0.42 0.243,-0.421 0.239,-0.421C0.205,-0.421 0.181,-0.412 0.167,-0.395C0.153,-0.378 0.146,-0.348 0.146,-0.306L0.146,-0L0.053,-0L0.053,-0.505Z" style="fill:rgb(35,31,32);fill-rule:nonzero;"/>
                </g>
                <g transform="matrix(9.333333,0,0,9.333333,396.918619,320.849602)">
                    <path d="M0.248,-0.17L0.335,-0.17C0.328,-0.052 0.279,0.008 0.188,0.008C0.161,0.008 0.138,0.003 0.119,-0.007C0.1,-0.017 0.083,-0.033 0.071,-0.054C0.058,-0.075 0.049,-0.102 0.043,-0.135C0.037,-0.167 0.034,-0.206 0.034,-0.251C0.034,-0.34 0.046,-0.406 0.071,-0.449C0.096,-0.492 0.134,-0.514 0.187,-0.514C0.288,-0.514 0.338,-0.424 0.338,-0.246L0.338,-0.234L0.125,-0.234C0.125,-0.126 0.146,-0.072 0.189,-0.072C0.229,-0.072 0.248,-0.105 0.248,-0.17ZM0.243,-0.302C0.239,-0.355 0.233,-0.39 0.225,-0.406C0.217,-0.425 0.203,-0.434 0.184,-0.434C0.165,-0.434 0.151,-0.425 0.143,-0.406C0.135,-0.39 0.129,-0.355 0.125,-0.302L0.243,-0.302Z" style="fill:rgb(35,31,32);fill-rule:nonzero;"/>
                </g>
                <g transform="matrix(9.333333,0,0,9.333333,400.359374,320.849602)">
                    <path d="M0.351,-0.249C0.351,-0.078 0.298,0.008 0.192,0.008C0.087,0.008 0.034,-0.079 0.034,-0.252C0.034,-0.427 0.086,-0.514 0.192,-0.514C0.219,-0.514 0.243,-0.508 0.263,-0.498C0.283,-0.488 0.299,-0.472 0.312,-0.45C0.326,-0.428 0.335,-0.4 0.342,-0.367C0.348,-0.334 0.351,-0.294 0.351,-0.249ZM0.254,-0.251C0.254,-0.317 0.25,-0.364 0.241,-0.39C0.232,-0.416 0.217,-0.429 0.194,-0.429C0.172,-0.429 0.156,-0.416 0.147,-0.39C0.138,-0.364 0.134,-0.319 0.134,-0.254C0.134,-0.189 0.138,-0.144 0.147,-0.118C0.156,-0.092 0.172,-0.079 0.194,-0.079C0.216,-0.079 0.232,-0.092 0.241,-0.118C0.25,-0.142 0.254,-0.186 0.254,-0.251Z" style="fill:rgb(35,31,32);fill-rule:nonzero;"/>
                </g>
                <g transform="matrix(9.333333,0,0,9.333333,405.887369,320.849602)">
                    <path d="M0.053,-0.83L0.146,-0.83L0.146,-0.28L0.265,-0.505L0.37,-0.505L0.241,-0.28L0.387,-0L0.278,-0L0.146,-0.269L0.146,-0L0.053,-0L0.053,-0.83Z" style="fill:rgb(35,31,32);fill-rule:nonzero;"/>
                </g>
                <g transform="matrix(9.333333,0,0,9.333333,409.53776,320.849602)">
                    <rect x="0.053" y="-0.83" width="0.093" height="0.83" style="fill:rgb(35,31,32);fill-rule:nonzero;"/>
                </g>
                <g transform="matrix(9.333333,0,0,9.333333,411.397135,320.849602)">
                    <path d="M0.248,-0.17L0.335,-0.17C0.328,-0.052 0.279,0.008 0.188,0.008C0.161,0.008 0.138,0.003 0.119,-0.007C0.1,-0.017 0.083,-0.033 0.071,-0.054C0.058,-0.075 0.049,-0.102 0.043,-0.135C0.037,-0.167 0.034,-0.206 0.034,-0.251C0.034,-0.34 0.046,-0.406 0.071,-0.449C0.096,-0.492 0.134,-0.514 0.187,-0.514C0.288,-0.514 0.338,-0.424 0.338,-0.246L0.338,-0.234L0.125,-0.234C0.125,-0.126 0.146,-0.072 0.189,-0.072C0.229,-0.072 0.248,-0.105 0.248,-0.17ZM0.243,-0.302C0.239,-0.355 0.233,-0.39 0.225,-0.406C0.217,-0.425 0.203,-0.434 0.184,-0.434C0.165,-0.434 0.151,-0.425 0.143,-0.406C0.135,-0.39 0.129,-0.355 0.125,-0.302L0.243,-0.302Z" style="fill:rgb(35,31,32);fill-rule:nonzero;"/>
                </g>
                <g transform="matrix(9.333333,0,0,9.333333,414.83789,320.849602)">
                    <path d="M0.053,-0.505L0.146,-0.505L0.146,-0L0.053,-0L0.053,-0.505ZM0.097,-0.72C0.114,-0.72 0.128,-0.714 0.141,-0.702C0.153,-0.689 0.159,-0.674 0.159,-0.657C0.159,-0.64 0.153,-0.625 0.141,-0.612C0.128,-0.6 0.113,-0.594 0.096,-0.594C0.078,-0.594 0.063,-0.6 0.051,-0.612C0.039,-0.624 0.033,-0.639 0.033,-0.658C0.033,-0.675 0.039,-0.689 0.051,-0.702C0.065,-0.714 0.08,-0.72 0.097,-0.72Z" style="fill:rgb(35,31,32);fill-rule:nonzero;"/>
                </g>
                <g transform="matrix(9.333333,0,0,9.333333,416.692708,320.849602)">
                    <path d="M0.053,-0.505L0.146,-0.505L0.146,-0.447C0.173,-0.492 0.207,-0.514 0.25,-0.514C0.291,-0.514 0.32,-0.498 0.337,-0.465C0.347,-0.447 0.352,-0.412 0.352,-0.359L0.352,-0L0.259,-0L0.258,-0.338C0.258,-0.372 0.254,-0.396 0.246,-0.411C0.238,-0.425 0.224,-0.432 0.204,-0.432C0.193,-0.432 0.184,-0.43 0.177,-0.427C0.17,-0.423 0.164,-0.417 0.159,-0.408C0.155,-0.4 0.151,-0.389 0.149,-0.376C0.147,-0.363 0.146,-0.346 0.146,-0.327L0.146,-0L0.053,-0L0.053,-0.505Z" style="fill:rgb(35,31,32);fill-rule:nonzero;"/>
                </g>
                <g transform="matrix(9.333333,0,0,9.333333,422.402994,320.849602)">
                    <path d="M0.369,-0.594L0.275,-0.594L0.275,-0.692C0.275,-0.708 0.27,-0.722 0.258,-0.733C0.246,-0.745 0.233,-0.751 0.216,-0.751C0.2,-0.751 0.186,-0.745 0.174,-0.733C0.163,-0.722 0.157,-0.708 0.157,-0.692L0.157,-0.505L0.228,-0.505L0.228,-0.431L0.157,-0.431L0.157,-0L0.064,-0L0.064,-0.431L0.017,-0.431L0.017,-0.505L0.064,-0.505L0.064,-0.692C0.064,-0.733 0.079,-0.768 0.109,-0.796C0.139,-0.825 0.174,-0.839 0.216,-0.839C0.258,-0.839 0.294,-0.825 0.324,-0.796C0.354,-0.768 0.369,-0.733 0.369,-0.692L0.369,-0.594ZM0.369,-0L0.275,-0L0.275,-0.505L0.369,-0.505L0.369,-0Z" style="fill:rgb(35,31,32);fill-rule:nonzero;"/>
                </g>
                <g transform="matrix(9.333333,0,0,9.333333,426.335937,320.849602)">
                    <rect x="0.053" y="-0.83" width="0.093" height="0.83" style="fill:rgb(35,31,32);fill-rule:nonzero;"/>
                </g>
                <g transform="matrix(9.333333,0,0,9.333333,428.195312,320.849602)">
                    <path d="M0.064,-0.647L0.157,-0.647L0.157,-0.505L0.208,-0.505L0.208,-0.431L0.157,-0.431L0.157,-0L0.064,-0L0.064,-0.431L0.013,-0.431L0.013,-0.505L0.064,-0.505L0.064,-0.647Z" style="fill:rgb(35,31,32);fill-rule:nonzero;"/>
                </g>
                <g transform="matrix(9.333333,0,0,9.333333,430.259765,320.849602)">
                    <path d="M0.248,-0.17L0.335,-0.17C0.328,-0.052 0.279,0.008 0.188,0.008C0.161,0.008 0.138,0.003 0.119,-0.007C0.1,-0.017 0.083,-0.033 0.071,-0.054C0.058,-0.075 0.049,-0.102 0.043,-0.135C0.037,-0.167 0.034,-0.206 0.034,-0.251C0.034,-0.34 0.046,-0.406 0.071,-0.449C0.096,-0.492 0.134,-0.514 0.187,-0.514C0.288,-0.514 0.338,-0.424 0.338,-0.246L0.338,-0.234L0.125,-0.234C0.125,-0.126 0.146,-0.072 0.189,-0.072C0.229,-0.072 0.248,-0.105 0.248,-0.17ZM0.243,-0.302C0.239,-0.355 0.233,-0.39 0.225,-0.406C0.217,-0.425 0.203,-0.434 0.184,-0.434C0.165,-0.434 0.151,-0.425 0.143,-0.406C0.135,-0.39 0.129,-0.355 0.125,-0.302L0.243,-0.302Z" style="fill:rgb(35,31,32);fill-rule:nonzero;"/>
                </g>
                <g transform="matrix(9.333333,0,0,9.333333,433.70052,320.849602)">
                    <path d="M0.053,-0.505L0.146,-0.505L0.146,-0.442C0.162,-0.469 0.178,-0.488 0.193,-0.499C0.209,-0.509 0.23,-0.515 0.255,-0.517L0.255,-0.419C0.249,-0.42 0.243,-0.421 0.239,-0.421C0.205,-0.421 0.181,-0.412 0.167,-0.395C0.153,-0.378 0.146,-0.348 0.146,-0.306L0.146,-0L0.053,-0L0.053,-0.505Z" style="fill:rgb(35,31,32);fill-rule:nonzero;"/>
                </g>
            </g>
            <g transform="matrix(0.669709,0,0,0.669709,66.059383,208.712862)">
                <g transform="matrix(17.918226,0,0,17.918226,363.4526,626.532936)">
                    <path d="M0.204,-0.754L0.204,-0.107L0.426,-0.107L0.426,-0L0.09,-0L0.09,-0.754L0.204,-0.754Z" style="fill:rgb(35,31,32);fill-rule:nonzero;"/>
                </g>
                <g transform="matrix(17.918226,0,0,17.918226,370.500902,626.532936)">
                    <path d="M0.179,-0.476L0.179,-0L0.069,-0L0.069,-0.476L0.179,-0.476ZM0.053,-0.673C0.053,-0.693 0.06,-0.709 0.074,-0.723C0.088,-0.737 0.104,-0.744 0.124,-0.744C0.144,-0.744 0.161,-0.737 0.175,-0.723C0.189,-0.709 0.196,-0.693 0.196,-0.673C0.196,-0.653 0.189,-0.636 0.175,-0.622C0.161,-0.608 0.144,-0.601 0.125,-0.601C0.105,-0.601 0.088,-0.608 0.074,-0.622C0.06,-0.636 0.053,-0.653 0.053,-0.673Z" style="fill:rgb(35,31,32);fill-rule:nonzero;"/>
                </g>
                <g transform="matrix(17.918226,0,0,17.918226,374.067049,626.532936)">
                    <path d="M0.439,-0.455L0.439,-0.309C0.414,-0.34 0.392,-0.361 0.372,-0.372C0.353,-0.384 0.33,-0.39 0.303,-0.39C0.262,-0.39 0.228,-0.375 0.2,-0.346C0.173,-0.317 0.159,-0.281 0.159,-0.237C0.159,-0.193 0.172,-0.156 0.199,-0.127C0.225,-0.099 0.259,-0.084 0.301,-0.084C0.327,-0.084 0.35,-0.09 0.371,-0.102C0.39,-0.113 0.413,-0.134 0.439,-0.166L0.439,-0.021C0.395,0.002 0.35,0.014 0.306,0.014C0.232,0.014 0.171,-0.01 0.121,-0.058C0.072,-0.105 0.047,-0.165 0.047,-0.236C0.047,-0.307 0.072,-0.367 0.122,-0.416C0.172,-0.464 0.234,-0.489 0.307,-0.489C0.354,-0.489 0.398,-0.478 0.439,-0.455Z" style="fill:rgb(35,31,32);fill-rule:nonzero;"/>
                </g>
                <g transform="matrix(17.918226,0,0,17.918226,382.173997,626.532936)">
                    <path d="M0.069,-0.825L0.179,-0.825L0.179,-0.436C0.218,-0.471 0.261,-0.489 0.309,-0.489C0.362,-0.489 0.405,-0.471 0.438,-0.437C0.465,-0.406 0.479,-0.358 0.479,-0.292L0.479,-0L0.369,-0L0.369,-0.281C0.369,-0.319 0.362,-0.347 0.348,-0.364C0.335,-0.381 0.313,-0.39 0.283,-0.39C0.245,-0.39 0.218,-0.378 0.202,-0.354C0.187,-0.33 0.179,-0.289 0.179,-0.23L0.179,-0L0.069,-0L0.069,-0.825Z" style="fill:rgb(35,31,32);fill-rule:nonzero;"/>
                </g>
                <g transform="matrix(17.918226,0,0,17.918226,391.103363,626.532936)">
                    <path d="M0.502,-0.212L0.162,-0.212C0.165,-0.173 0.177,-0.142 0.2,-0.119C0.222,-0.096 0.251,-0.084 0.286,-0.084C0.313,-0.084 0.336,-0.091 0.354,-0.104C0.372,-0.117 0.392,-0.141 0.414,-0.176L0.507,-0.125C0.493,-0.1 0.477,-0.079 0.461,-0.062C0.445,-0.044 0.428,-0.03 0.41,-0.019C0.392,-0.008 0.372,0.001 0.351,0.006C0.33,0.011 0.307,0.014 0.282,0.014C0.211,0.014 0.154,-0.009 0.111,-0.055C0.068,-0.101 0.047,-0.161 0.047,-0.237C0.047,-0.312 0.068,-0.373 0.109,-0.42C0.151,-0.466 0.207,-0.489 0.276,-0.489C0.346,-0.489 0.402,-0.466 0.442,-0.422C0.483,-0.378 0.503,-0.316 0.503,-0.238L0.502,-0.212ZM0.39,-0.302C0.374,-0.36 0.337,-0.39 0.279,-0.39C0.265,-0.39 0.253,-0.388 0.241,-0.384C0.229,-0.379 0.219,-0.374 0.209,-0.366C0.2,-0.358 0.191,-0.349 0.185,-0.338C0.178,-0.328 0.173,-0.315 0.169,-0.302L0.39,-0.302Z" style="fill:rgb(35,31,32);fill-rule:nonzero;"/>
                </g>
                <g transform="matrix(17.918226,0,0,17.918226,400.12022,626.532936)">
                    <path d="M0.069,-0.476L0.18,-0.476L0.18,-0.432C0.218,-0.47 0.261,-0.489 0.31,-0.489C0.365,-0.489 0.408,-0.471 0.439,-0.437C0.466,-0.407 0.479,-0.359 0.479,-0.292L0.479,-0L0.369,-0L0.369,-0.266C0.369,-0.312 0.362,-0.345 0.349,-0.363C0.336,-0.381 0.313,-0.39 0.28,-0.39C0.243,-0.39 0.217,-0.378 0.202,-0.354C0.187,-0.33 0.18,-0.289 0.18,-0.229L0.18,-0L0.069,-0L0.069,-0.476Z" style="fill:rgb(35,31,32);fill-rule:nonzero;"/>
                </g>
                <g transform="matrix(5.226149,0,0,5.226149,365.046333,632.935736)">
                    <path d="M0.439,-0.455L0.439,-0.309C0.414,-0.34 0.392,-0.361 0.372,-0.372C0.353,-0.384 0.33,-0.39 0.303,-0.39C0.262,-0.39 0.228,-0.375 0.2,-0.346C0.173,-0.317 0.159,-0.281 0.159,-0.237C0.159,-0.193 0.172,-0.156 0.199,-0.127C0.225,-0.099 0.259,-0.084 0.301,-0.084C0.327,-0.084 0.35,-0.09 0.371,-0.102C0.39,-0.113 0.413,-0.134 0.439,-0.166L0.439,-0.021C0.395,0.002 0.35,0.014 0.306,0.014C0.232,0.014 0.171,-0.01 0.121,-0.058C0.072,-0.105 0.047,-0.165 0.047,-0.236C0.047,-0.307 0.072,-0.367 0.122,-0.416C0.172,-0.464 0.234,-0.489 0.307,-0.489C0.354,-0.489 0.398,-0.478 0.439,-0.455Z" style="fill:rgb(35,31,32);fill-rule:nonzero;"/>
                </g>
                <g transform="matrix(5.226149,0,0,5.226149,367.53692,632.935736)">
                    <path d="M0.047,-0.241C0.047,-0.31 0.071,-0.368 0.121,-0.417C0.17,-0.465 0.23,-0.489 0.3,-0.489C0.371,-0.489 0.431,-0.465 0.481,-0.416C0.53,-0.368 0.554,-0.308 0.554,-0.237C0.554,-0.166 0.53,-0.106 0.48,-0.058C0.431,-0.01 0.37,0.014 0.298,0.014C0.227,0.014 0.167,-0.011 0.119,-0.06C0.071,-0.108 0.047,-0.168 0.047,-0.241ZM0.159,-0.239C0.159,-0.192 0.172,-0.154 0.197,-0.126C0.223,-0.098 0.258,-0.084 0.3,-0.084C0.343,-0.084 0.378,-0.098 0.403,-0.126C0.429,-0.154 0.442,-0.191 0.442,-0.237C0.442,-0.283 0.429,-0.32 0.403,-0.348C0.377,-0.376 0.343,-0.39 0.3,-0.39C0.258,-0.39 0.224,-0.376 0.198,-0.348C0.172,-0.32 0.159,-0.284 0.159,-0.239Z" style="fill:rgb(35,31,32);fill-rule:nonzero;"/>
                </g>
                <g transform="matrix(5.226149,0,0,5.226149,370.678224,632.935736)">
                    <path d="M0.069,-0.476L0.179,-0.476L0.179,-0.432C0.2,-0.454 0.218,-0.469 0.233,-0.477C0.249,-0.485 0.269,-0.489 0.293,-0.489C0.347,-0.489 0.39,-0.465 0.421,-0.418C0.455,-0.465 0.502,-0.489 0.561,-0.489C0.668,-0.489 0.722,-0.424 0.722,-0.294L0.722,-0L0.611,-0L0.611,-0.264C0.611,-0.31 0.606,-0.342 0.595,-0.361C0.583,-0.38 0.565,-0.39 0.539,-0.39C0.508,-0.39 0.486,-0.378 0.472,-0.355C0.459,-0.333 0.452,-0.296 0.452,-0.246L0.452,-0L0.341,-0L0.341,-0.263C0.341,-0.347 0.317,-0.39 0.268,-0.39C0.237,-0.39 0.215,-0.378 0.2,-0.355C0.186,-0.332 0.179,-0.295 0.179,-0.246L0.179,-0L0.069,-0L0.069,-0.476Z" style="fill:rgb(35,31,32);fill-rule:nonzero;"/>
                </g>
                <g transform="matrix(5.226149,0,0,5.226149,374.812189,632.935736)">
                    <path d="M0.069,-0.476L0.179,-0.476L0.179,-0.432C0.2,-0.454 0.218,-0.469 0.233,-0.477C0.249,-0.485 0.269,-0.489 0.293,-0.489C0.347,-0.489 0.39,-0.465 0.421,-0.418C0.455,-0.465 0.502,-0.489 0.561,-0.489C0.668,-0.489 0.722,-0.424 0.722,-0.294L0.722,-0L0.611,-0L0.611,-0.264C0.611,-0.31 0.606,-0.342 0.595,-0.361C0.583,-0.38 0.565,-0.39 0.539,-0.39C0.508,-0.39 0.486,-0.378 0.472,-0.355C0.459,-0.333 0.452,-0.296 0.452,-0.246L0.452,-0L0.341,-0L0.341,-0.263C0.341,-0.347 0.317,-0.39 0.268,-0.39C0.237,-0.39 0.215,-0.378 0.2,-0.355C0.186,-0.332 0.179,-0.295 0.179,-0.246L0.179,-0L0.069,-0L0.069,-0.476Z" style="fill:rgb(35,31,32);fill-rule:nonzero;"/>
                </g>
                <g transform="matrix(5.226149,0,0,5.226149,378.946155,632.935736)">
                    <path d="M0.179,-0.476L0.179,-0.203C0.179,-0.124 0.21,-0.084 0.272,-0.084C0.335,-0.084 0.366,-0.124 0.366,-0.203L0.366,-0.476L0.476,-0.476L0.476,-0.2C0.476,-0.162 0.471,-0.129 0.461,-0.102C0.452,-0.077 0.437,-0.055 0.414,-0.035C0.377,-0.002 0.33,0.014 0.272,0.014C0.215,0.014 0.168,-0.002 0.131,-0.035C0.109,-0.055 0.092,-0.077 0.083,-0.102C0.074,-0.124 0.069,-0.157 0.069,-0.2L0.069,-0.476L0.179,-0.476Z" style="fill:rgb(35,31,32);fill-rule:nonzero;"/>
                </g>
                <g transform="matrix(5.226149,0,0,5.226149,381.793998,632.935736)">
                    <path d="M0.069,-0.476L0.18,-0.476L0.18,-0.432C0.218,-0.47 0.261,-0.489 0.31,-0.489C0.365,-0.489 0.408,-0.471 0.439,-0.437C0.466,-0.407 0.479,-0.359 0.479,-0.292L0.479,-0L0.369,-0L0.369,-0.266C0.369,-0.312 0.362,-0.345 0.349,-0.363C0.336,-0.381 0.313,-0.39 0.28,-0.39C0.243,-0.39 0.217,-0.378 0.202,-0.354C0.187,-0.33 0.18,-0.289 0.18,-0.229L0.18,-0L0.069,-0L0.069,-0.476Z" style="fill:rgb(35,31,32);fill-rule:nonzero;"/>
                </g>
                <g transform="matrix(5.226149,0,0,5.226149,384.659704,632.935736)">
                    <path d="M0.179,-0.476L0.179,-0L0.069,-0L0.069,-0.476L0.179,-0.476ZM0.053,-0.673C0.053,-0.693 0.06,-0.709 0.074,-0.723C0.088,-0.737 0.104,-0.744 0.124,-0.744C0.144,-0.744 0.161,-0.737 0.175,-0.723C0.189,-0.709 0.196,-0.693 0.196,-0.673C0.196,-0.653 0.189,-0.636 0.175,-0.622C0.161,-0.608 0.144,-0.601 0.125,-0.601C0.105,-0.601 0.088,-0.608 0.074,-0.622C0.06,-0.636 0.053,-0.653 0.053,-0.673Z" style="fill:rgb(35,31,32);fill-rule:nonzero;"/>
                </g>
                <g transform="matrix(5.226149,0,0,5.226149,385.961138,632.935736)">
                    <path d="M0.183,-0.373L0.183,-0L0.073,-0L0.073,-0.373L0.026,-0.373L0.026,-0.476L0.073,-0.476L0.073,-0.65L0.183,-0.65L0.183,-0.476L0.268,-0.476L0.268,-0.373L0.183,-0.373Z" style="fill:rgb(35,31,32);fill-rule:nonzero;"/>
                </g>
                <g transform="matrix(5.226149,0,0,5.226149,387.390163,632.935736)">
                    <path d="M0.219,-0.088L0.005,-0.476L0.133,-0.476L0.278,-0.202L0.414,-0.476L0.538,-0.476L0.159,0.259L0.034,0.259L0.219,-0.088Z" style="fill:rgb(35,31,32);fill-rule:nonzero;"/>
                </g>
                <g transform="matrix(5.226149,0,0,5.226149,392.004383,632.935736)">
                    <path d="M0.346,-0.395L0.255,-0.346C0.241,-0.375 0.223,-0.39 0.202,-0.39C0.192,-0.39 0.183,-0.387 0.176,-0.38C0.169,-0.373 0.165,-0.365 0.165,-0.354C0.165,-0.336 0.186,-0.318 0.229,-0.3C0.287,-0.275 0.326,-0.252 0.346,-0.231C0.366,-0.21 0.376,-0.181 0.376,-0.146C0.376,-0.1 0.36,-0.061 0.326,-0.03C0.293,-0.001 0.253,0.014 0.207,0.014C0.127,0.014 0.07,-0.025 0.037,-0.103L0.131,-0.146C0.144,-0.124 0.154,-0.109 0.161,-0.103C0.174,-0.091 0.19,-0.084 0.208,-0.084C0.246,-0.084 0.264,-0.101 0.264,-0.135C0.264,-0.155 0.25,-0.173 0.221,-0.19C0.21,-0.195 0.199,-0.201 0.188,-0.206C0.177,-0.211 0.166,-0.217 0.154,-0.222C0.122,-0.238 0.1,-0.253 0.087,-0.269C0.07,-0.289 0.062,-0.314 0.062,-0.346C0.062,-0.387 0.076,-0.421 0.104,-0.448C0.133,-0.475 0.169,-0.489 0.21,-0.489C0.271,-0.489 0.316,-0.457 0.346,-0.395Z" style="fill:rgb(35,31,32);fill-rule:nonzero;"/>
                </g>
                <g transform="matrix(5.226149,0,0,5.226149,394.124955,632.935736)">
                    <path d="M0.219,-0.088L0.005,-0.476L0.133,-0.476L0.278,-0.202L0.414,-0.476L0.538,-0.476L0.159,0.259L0.034,0.259L0.219,-0.088Z" style="fill:rgb(35,31,32);fill-rule:nonzero;"/>
                </g>
                <g transform="matrix(5.226149,0,0,5.226149,396.965142,632.935736)">
                    <path d="M0.346,-0.395L0.255,-0.346C0.241,-0.375 0.223,-0.39 0.202,-0.39C0.192,-0.39 0.183,-0.387 0.176,-0.38C0.169,-0.373 0.165,-0.365 0.165,-0.354C0.165,-0.336 0.186,-0.318 0.229,-0.3C0.287,-0.275 0.326,-0.252 0.346,-0.231C0.366,-0.21 0.376,-0.181 0.376,-0.146C0.376,-0.1 0.36,-0.061 0.326,-0.03C0.293,-0.001 0.253,0.014 0.207,0.014C0.127,0.014 0.07,-0.025 0.037,-0.103L0.131,-0.146C0.144,-0.124 0.154,-0.109 0.161,-0.103C0.174,-0.091 0.19,-0.084 0.208,-0.084C0.246,-0.084 0.264,-0.101 0.264,-0.135C0.264,-0.155 0.25,-0.173 0.221,-0.19C0.21,-0.195 0.199,-0.201 0.188,-0.206C0.177,-0.211 0.166,-0.217 0.154,-0.222C0.122,-0.238 0.1,-0.253 0.087,-0.269C0.07,-0.289 0.062,-0.314 0.062,-0.346C0.062,-0.387 0.076,-0.421 0.104,-0.448C0.133,-0.475 0.169,-0.489 0.21,-0.489C0.271,-0.489 0.316,-0.457 0.346,-0.395Z" style="fill:rgb(35,31,32);fill-rule:nonzero;"/>
                </g>
                <g transform="matrix(5.226149,0,0,5.226149,399.085714,632.935736)">
                    <path d="M0.183,-0.373L0.183,-0L0.073,-0L0.073,-0.373L0.026,-0.373L0.026,-0.476L0.073,-0.476L0.073,-0.65L0.183,-0.65L0.183,-0.476L0.268,-0.476L0.268,-0.373L0.183,-0.373Z" style="fill:rgb(35,31,32);fill-rule:nonzero;"/>
                </g>
                <g transform="matrix(5.226149,0,0,5.226149,400.560672,632.935736)">
                    <path d="M0.502,-0.212L0.162,-0.212C0.165,-0.173 0.177,-0.142 0.2,-0.119C0.222,-0.096 0.251,-0.084 0.286,-0.084C0.313,-0.084 0.336,-0.091 0.354,-0.104C0.372,-0.117 0.392,-0.141 0.414,-0.176L0.507,-0.125C0.493,-0.1 0.477,-0.079 0.461,-0.062C0.445,-0.044 0.428,-0.03 0.41,-0.019C0.392,-0.008 0.372,0.001 0.351,0.006C0.33,0.011 0.307,0.014 0.282,0.014C0.211,0.014 0.154,-0.009 0.111,-0.055C0.068,-0.101 0.047,-0.161 0.047,-0.237C0.047,-0.312 0.068,-0.373 0.109,-0.42C0.151,-0.466 0.207,-0.489 0.276,-0.489C0.346,-0.489 0.402,-0.466 0.442,-0.422C0.483,-0.378 0.503,-0.316 0.503,-0.238L0.502,-0.212ZM0.39,-0.302C0.374,-0.36 0.337,-0.39 0.279,-0.39C0.265,-0.39 0.253,-0.388 0.241,-0.384C0.229,-0.379 0.219,-0.374 0.209,-0.366C0.2,-0.358 0.191,-0.349 0.185,-0.338C0.178,-0.328 0.173,-0.315 0.169,-0.302L0.39,-0.302Z" style="fill:rgb(35,31,32);fill-rule:nonzero;"/>
                </g>
                <g transform="matrix(5.226149,0,0,5.226149,403.451896,632.935736)">
                    <path d="M0.069,-0.476L0.179,-0.476L0.179,-0.432C0.2,-0.454 0.218,-0.469 0.233,-0.477C0.249,-0.485 0.269,-0.489 0.293,-0.489C0.347,-0.489 0.39,-0.465 0.421,-0.418C0.455,-0.465 0.502,-0.489 0.561,-0.489C0.668,-0.489 0.722,-0.424 0.722,-0.294L0.722,-0L0.611,-0L0.611,-0.264C0.611,-0.31 0.606,-0.342 0.595,-0.361C0.583,-0.38 0.565,-0.39 0.539,-0.39C0.508,-0.39 0.486,-0.378 0.472,-0.355C0.459,-0.333 0.452,-0.296 0.452,-0.246L0.452,-0L0.341,-0L0.341,-0.263C0.341,-0.347 0.317,-0.39 0.268,-0.39C0.237,-0.39 0.215,-0.378 0.2,-0.355C0.186,-0.332 0.179,-0.295 0.179,-0.246L0.179,-0L0.069,-0L0.069,-0.476Z" style="fill:rgb(35,31,32);fill-rule:nonzero;"/>
                </g>
                <g transform="matrix(5.226149,0,0,5.226149,407.585862,632.935736)">
                    <path d="M0.346,-0.395L0.255,-0.346C0.241,-0.375 0.223,-0.39 0.202,-0.39C0.192,-0.39 0.183,-0.387 0.176,-0.38C0.169,-0.373 0.165,-0.365 0.165,-0.354C0.165,-0.336 0.186,-0.318 0.229,-0.3C0.287,-0.275 0.326,-0.252 0.346,-0.231C0.366,-0.21 0.376,-0.181 0.376,-0.146C0.376,-0.1 0.36,-0.061 0.326,-0.03C0.293,-0.001 0.253,0.014 0.207,0.014C0.127,0.014 0.07,-0.025 0.037,-0.103L0.131,-0.146C0.144,-0.124 0.154,-0.109 0.161,-0.103C0.174,-0.091 0.19,-0.084 0.208,-0.084C0.246,-0.084 0.264,-0.101 0.264,-0.135C0.264,-0.155 0.25,-0.173 0.221,-0.19C0.21,-0.195 0.199,-0.201 0.188,-0.206C0.177,-0.211 0.166,-0.217 0.154,-0.222C0.122,-0.238 0.1,-0.253 0.087,-0.269C0.07,-0.289 0.062,-0.314 0.062,-0.346C0.062,-0.387 0.076,-0.421 0.104,-0.448C0.133,-0.475 0.169,-0.489 0.21,-0.489C0.271,-0.489 0.316,-0.457 0.346,-0.395Z" style="fill:rgb(35,31,32);fill-rule:nonzero;"/>
                </g>
            </g>
            <g transform="matrix(0.75,0,0,0.75,-824.143228,-702.275551)">
                <g transform="matrix(10.666667,0,0,10.666667,1559.312,1601.616)">
                    <path d="M0.175,-0.168L0.017,-0.168C0.017,-0.109 0.034,-0.064 0.067,-0.034C0.099,-0.004 0.154,0.011 0.229,0.011C0.263,0.011 0.294,0.007 0.321,-0.001C0.347,-0.009 0.37,-0.021 0.389,-0.037C0.407,-0.053 0.421,-0.072 0.431,-0.094C0.441,-0.116 0.446,-0.14 0.446,-0.167C0.446,-0.202 0.44,-0.23 0.426,-0.251C0.413,-0.272 0.397,-0.288 0.378,-0.3C0.359,-0.313 0.338,-0.322 0.316,-0.329C0.293,-0.336 0.272,-0.342 0.253,-0.348C0.234,-0.354 0.218,-0.361 0.205,-0.368C0.192,-0.376 0.185,-0.388 0.185,-0.403C0.185,-0.416 0.189,-0.427 0.198,-0.434C0.207,-0.441 0.218,-0.445 0.231,-0.445C0.246,-0.445 0.258,-0.441 0.267,-0.432C0.275,-0.424 0.279,-0.408 0.279,-0.385L0.435,-0.385C0.435,-0.498 0.367,-0.555 0.232,-0.555C0.195,-0.555 0.164,-0.551 0.137,-0.542C0.11,-0.533 0.087,-0.521 0.07,-0.506C0.052,-0.491 0.039,-0.473 0.03,-0.453C0.021,-0.432 0.017,-0.41 0.017,-0.386C0.017,-0.352 0.024,-0.325 0.036,-0.303C0.049,-0.283 0.066,-0.266 0.085,-0.253C0.104,-0.24 0.125,-0.23 0.147,-0.223C0.17,-0.216 0.191,-0.209 0.21,-0.202C0.229,-0.195 0.246,-0.188 0.259,-0.179C0.272,-0.17 0.278,-0.158 0.278,-0.142C0.278,-0.127 0.273,-0.116 0.263,-0.108C0.252,-0.1 0.24,-0.096 0.226,-0.096C0.209,-0.096 0.197,-0.102 0.188,-0.115C0.183,-0.121 0.18,-0.129 0.178,-0.138C0.176,-0.147 0.175,-0.157 0.175,-0.168Z" style="fill-rule:nonzero;"/>
                </g>
                <g transform="matrix(10.666667,0,0,10.666667,1564.250667,1601.616)">
                    <path d="M0.031,-0.714L0.031,-0L0.211,-0L0.211,-0.139L0.241,-0.186L0.332,-0L0.524,-0L0.355,-0.318L0.505,-0.541L0.313,-0.541L0.213,-0.354L0.211,-0.354L0.211,-0.714L0.031,-0.714Z" style="fill-rule:nonzero;"/>
                </g>
                <g transform="matrix(10.666667,0,0,10.666667,1569.584,1601.616)">
                    <path d="M0.299,-0.362L0.299,-0.338L0.2,-0.338L0.2,-0.362C0.2,-0.391 0.204,-0.412 0.21,-0.425C0.217,-0.438 0.23,-0.445 0.249,-0.445C0.268,-0.445 0.282,-0.438 0.288,-0.425C0.295,-0.412 0.299,-0.391 0.299,-0.362ZM0.2,-0.24L0.467,-0.24L0.467,-0.295C0.467,-0.344 0.463,-0.385 0.454,-0.418C0.444,-0.452 0.431,-0.478 0.413,-0.498C0.394,-0.519 0.371,-0.533 0.345,-0.542C0.318,-0.551 0.286,-0.555 0.25,-0.555C0.209,-0.555 0.174,-0.55 0.145,-0.539C0.117,-0.529 0.093,-0.513 0.074,-0.49C0.055,-0.467 0.042,-0.438 0.033,-0.402C0.024,-0.366 0.02,-0.322 0.02,-0.27C0.02,-0.219 0.024,-0.175 0.032,-0.139C0.039,-0.103 0.052,-0.074 0.07,-0.052C0.088,-0.029 0.112,-0.013 0.141,-0.004C0.17,0.006 0.207,0.011 0.25,0.011C0.325,0.011 0.378,-0.006 0.411,-0.04C0.444,-0.073 0.461,-0.123 0.462,-0.19L0.3,-0.19C0.3,-0.153 0.296,-0.129 0.287,-0.116C0.278,-0.102 0.265,-0.096 0.249,-0.096C0.236,-0.096 0.225,-0.101 0.215,-0.111C0.205,-0.12 0.2,-0.14 0.2,-0.169L0.2,-0.24Z" style="fill-rule:nonzero;"/>
                </g>
                <g transform="matrix(10.666667,0,0,10.666667,1574.714667,1601.616)">
                    <path d="M0,-0.541L0.11,-0L0.314,-0L0.369,-0.383L0.371,-0.383L0.426,-0L0.63,-0L0.74,-0.541L0.566,-0.541L0.521,-0.152L0.519,-0.152L0.466,-0.541L0.274,-0.541L0.221,-0.152L0.219,-0.152L0.174,-0.541L0,-0.541Z" style="fill-rule:nonzero;"/>
                </g>
            </g>
            <g transform="matrix(0.75,0,0,0.75,-858.578268,-702.275551)">
                <g transform="matrix(10.666667,0,0,10.666667,1555.914667,1601.616)">
                    <path d="M0.305,-0.329L0.467,-0.329C0.467,-0.363 0.464,-0.394 0.458,-0.421C0.451,-0.449 0.44,-0.473 0.424,-0.492C0.409,-0.512 0.388,-0.527 0.361,-0.538C0.335,-0.549 0.302,-0.555 0.262,-0.555C0.228,-0.555 0.196,-0.552 0.167,-0.545C0.138,-0.538 0.112,-0.525 0.09,-0.504C0.069,-0.483 0.052,-0.454 0.039,-0.415C0.026,-0.376 0.02,-0.325 0.02,-0.261C0.02,-0.202 0.026,-0.155 0.037,-0.12C0.048,-0.084 0.064,-0.056 0.085,-0.036C0.105,-0.017 0.129,-0.004 0.158,0.002C0.187,0.008 0.218,0.011 0.253,0.011C0.33,0.011 0.385,-0.007 0.419,-0.043C0.436,-0.062 0.449,-0.087 0.456,-0.117C0.463,-0.147 0.467,-0.183 0.467,-0.226L0.305,-0.226L0.305,-0.191C0.305,-0.157 0.3,-0.134 0.291,-0.121C0.283,-0.108 0.27,-0.102 0.253,-0.102C0.243,-0.102 0.235,-0.104 0.228,-0.11C0.221,-0.115 0.215,-0.123 0.211,-0.136C0.207,-0.149 0.204,-0.166 0.203,-0.188C0.201,-0.209 0.2,-0.237 0.2,-0.27C0.2,-0.303 0.201,-0.331 0.203,-0.352C0.204,-0.374 0.207,-0.392 0.211,-0.405C0.215,-0.417 0.221,-0.427 0.228,-0.431C0.235,-0.436 0.243,-0.439 0.253,-0.439C0.272,-0.439 0.286,-0.431 0.293,-0.416C0.297,-0.407 0.3,-0.396 0.302,-0.383C0.304,-0.369 0.305,-0.351 0.305,-0.329Z" style="fill-rule:nonzero;"/>
                </g>
                <g transform="matrix(10.666667,0,0,10.666667,1561.045333,1601.616)">
                    <path d="M0.036,-0.541L0.036,-0.133C0.036,-0.104 0.04,-0.081 0.047,-0.061C0.054,-0.043 0.064,-0.028 0.077,-0.017C0.09,-0.006 0.104,0.002 0.121,0.005C0.138,0.009 0.157,0.011 0.177,0.011C0.242,0.011 0.285,-0.015 0.308,-0.066L0.31,-0.066L0.31,-0L0.484,-0L0.484,-0.541L0.304,-0.541L0.304,-0.184C0.304,-0.161 0.301,-0.145 0.294,-0.135C0.287,-0.125 0.276,-0.12 0.26,-0.12C0.244,-0.12 0.233,-0.125 0.226,-0.135C0.219,-0.145 0.216,-0.161 0.216,-0.184L0.216,-0.541L0.036,-0.541Z" style="fill-rule:nonzero;"/>
                </g>
                <g transform="matrix(10.666667,0,0,10.666667,1566.592,1601.616)">
                    <path d="M0.002,-0.541L0.002,-0.42L0.062,-0.42L0.062,-0.132C0.062,-0.102 0.065,-0.078 0.071,-0.06C0.076,-0.041 0.085,-0.027 0.098,-0.018C0.11,-0.009 0.126,-0.003 0.145,-0.001C0.164,0.002 0.188,0.003 0.215,0.003C0.23,0.003 0.246,0.003 0.263,0.002C0.28,0.001 0.296,-0 0.313,-0L0.313,-0.12L0.285,-0.12C0.27,-0.12 0.26,-0.123 0.253,-0.13C0.245,-0.136 0.242,-0.147 0.242,-0.162L0.242,-0.42L0.313,-0.42L0.313,-0.541L0.242,-0.541L0.242,-0.7L0.062,-0.7L0.062,-0.541L0.002,-0.541Z" style="fill-rule:nonzero;"/>
                </g>
                <g transform="matrix(10.666667,0,0,10.666667,1569.952,1601.616)">
                    <path d="M0.2,-0.27C0.2,-0.304 0.201,-0.332 0.202,-0.354C0.203,-0.376 0.206,-0.393 0.21,-0.406C0.214,-0.419 0.219,-0.427 0.226,-0.432C0.232,-0.437 0.24,-0.439 0.25,-0.439C0.26,-0.439 0.268,-0.437 0.275,-0.432C0.282,-0.427 0.287,-0.419 0.29,-0.406C0.294,-0.393 0.297,-0.376 0.298,-0.354C0.299,-0.332 0.3,-0.304 0.3,-0.27C0.3,-0.236 0.299,-0.208 0.298,-0.186C0.297,-0.165 0.294,-0.148 0.29,-0.135C0.287,-0.122 0.282,-0.114 0.275,-0.109C0.268,-0.104 0.26,-0.102 0.25,-0.102C0.24,-0.102 0.232,-0.104 0.226,-0.109C0.219,-0.114 0.214,-0.122 0.21,-0.135C0.206,-0.148 0.203,-0.165 0.202,-0.186C0.201,-0.208 0.2,-0.236 0.2,-0.27ZM0.48,-0.27C0.48,-0.309 0.478,-0.346 0.474,-0.381C0.469,-0.415 0.459,-0.445 0.444,-0.471C0.429,-0.497 0.406,-0.517 0.375,-0.532C0.344,-0.547 0.303,-0.555 0.25,-0.555C0.199,-0.555 0.159,-0.547 0.129,-0.53C0.098,-0.514 0.075,-0.493 0.059,-0.466C0.043,-0.439 0.033,-0.409 0.028,-0.375C0.023,-0.341 0.02,-0.306 0.02,-0.271C0.02,-0.232 0.022,-0.195 0.026,-0.161C0.031,-0.126 0.041,-0.096 0.056,-0.071C0.071,-0.045 0.094,-0.025 0.125,-0.011C0.156,0.004 0.197,0.011 0.25,0.011C0.301,0.011 0.341,0.003 0.371,-0.013C0.402,-0.028 0.425,-0.049 0.441,-0.075C0.457,-0.102 0.468,-0.132 0.473,-0.166C0.478,-0.2 0.48,-0.235 0.48,-0.27Z" style="fill-rule:nonzero;"/>
                </g>
                <g transform="matrix(10.666667,0,0,10.666667,1575.285333,1601.616)">
                    <path d="M0.062,-0.42L0.062,-0L0.242,-0L0.242,-0.42L0.315,-0.42L0.315,-0.541L0.242,-0.541L0.242,-0.574C0.242,-0.587 0.246,-0.597 0.255,-0.603C0.264,-0.609 0.274,-0.612 0.285,-0.612C0.292,-0.612 0.297,-0.612 0.301,-0.612C0.306,-0.611 0.31,-0.61 0.315,-0.609L0.315,-0.722C0.301,-0.724 0.286,-0.725 0.272,-0.727C0.257,-0.728 0.242,-0.728 0.229,-0.728C0.198,-0.728 0.171,-0.725 0.15,-0.72C0.129,-0.715 0.112,-0.706 0.099,-0.695C0.086,-0.683 0.076,-0.668 0.071,-0.649C0.065,-0.63 0.062,-0.607 0.062,-0.58L0.062,-0.541L0,-0.541L0,-0.42L0.062,-0.42Z" style="fill-rule:nonzero;"/>
                </g>
                <g transform="matrix(10.666667,0,0,10.666667,1578.645333,1601.616)">
                    <path d="M0.062,-0.42L0.062,-0L0.242,-0L0.242,-0.42L0.315,-0.42L0.315,-0.541L0.242,-0.541L0.242,-0.574C0.242,-0.587 0.246,-0.597 0.255,-0.603C0.264,-0.609 0.274,-0.612 0.285,-0.612C0.292,-0.612 0.297,-0.612 0.301,-0.612C0.306,-0.611 0.31,-0.61 0.315,-0.609L0.315,-0.722C0.301,-0.724 0.286,-0.725 0.272,-0.727C0.257,-0.728 0.242,-0.728 0.229,-0.728C0.198,-0.728 0.171,-0.725 0.15,-0.72C0.129,-0.715 0.112,-0.706 0.099,-0.695C0.086,-0.683 0.076,-0.668 0.071,-0.649C0.065,-0.63 0.062,-0.607 0.062,-0.58L0.062,-0.541L0,-0.541L0,-0.42L0.062,-0.42Z" style="fill-rule:nonzero;"/>
                </g>
            </g>
            <g transform="matrix(0.75,0,0,0.75,-879.578268,-619.775551)">
                <g transform="matrix(10.666667,0,0,10.666667,1564.810667,1601.616)">
                    <path d="M0.039,-0.714L0.039,-0.58L0.219,-0.58L0.219,-0.714L0.039,-0.714ZM0.039,-0.541L0.039,-0L0.219,-0L0.219,-0.541L0.039,-0.541Z" style="fill-rule:nonzero;"/>
                </g>
                <g transform="matrix(10.666667,0,0,10.666667,1567.562667,1601.616)">
                    <path d="M0.036,-0.541L0.036,-0L0.216,-0L0.216,-0.357C0.216,-0.38 0.219,-0.396 0.226,-0.406C0.233,-0.416 0.244,-0.421 0.26,-0.421C0.276,-0.421 0.287,-0.416 0.294,-0.406C0.301,-0.396 0.304,-0.38 0.304,-0.357L0.304,-0L0.484,-0L0.484,-0.408C0.484,-0.437 0.48,-0.461 0.473,-0.48C0.466,-0.499 0.456,-0.514 0.443,-0.525C0.43,-0.536 0.415,-0.544 0.399,-0.548C0.382,-0.553 0.363,-0.555 0.343,-0.555C0.279,-0.555 0.235,-0.528 0.212,-0.475L0.21,-0.475L0.21,-0.541L0.036,-0.541Z" style="fill-rule:nonzero;"/>
                </g>
            </g>
            <g transform="matrix(0.75,0,0,0.75,-850.328268,-682.775551)">
                <g transform="matrix(10.666667,0,0,10.666667,1563.925333,1601.616)">
                    <path d="M0.305,-0.329L0.467,-0.329C0.467,-0.363 0.464,-0.394 0.458,-0.421C0.451,-0.449 0.44,-0.473 0.424,-0.492C0.409,-0.512 0.388,-0.527 0.361,-0.538C0.335,-0.549 0.302,-0.555 0.262,-0.555C0.228,-0.555 0.196,-0.552 0.167,-0.545C0.138,-0.538 0.112,-0.525 0.09,-0.504C0.069,-0.483 0.052,-0.454 0.039,-0.415C0.026,-0.376 0.02,-0.325 0.02,-0.261C0.02,-0.202 0.026,-0.155 0.037,-0.12C0.048,-0.084 0.064,-0.056 0.085,-0.036C0.105,-0.017 0.129,-0.004 0.158,0.002C0.187,0.008 0.218,0.011 0.253,0.011C0.33,0.011 0.385,-0.007 0.419,-0.043C0.436,-0.062 0.449,-0.087 0.456,-0.117C0.463,-0.147 0.467,-0.183 0.467,-0.226L0.305,-0.226L0.305,-0.191C0.305,-0.157 0.3,-0.134 0.291,-0.121C0.283,-0.108 0.27,-0.102 0.253,-0.102C0.243,-0.102 0.235,-0.104 0.228,-0.11C0.221,-0.115 0.215,-0.123 0.211,-0.136C0.207,-0.149 0.204,-0.166 0.203,-0.188C0.201,-0.209 0.2,-0.237 0.2,-0.27C0.2,-0.303 0.201,-0.331 0.203,-0.352C0.204,-0.374 0.207,-0.392 0.211,-0.405C0.215,-0.417 0.221,-0.427 0.228,-0.431C0.235,-0.436 0.243,-0.439 0.253,-0.439C0.272,-0.439 0.286,-0.431 0.293,-0.416C0.297,-0.407 0.3,-0.396 0.302,-0.383C0.304,-0.369 0.305,-0.351 0.305,-0.329Z" style="fill-rule:nonzero;"/>
                </g>
                <g transform="matrix(10.666667,0,0,10.666667,1569.056,1601.616)">
                    <path d="M-0.003,-0.541L0.125,-0L0.337,-0L0.469,-0.541L0.283,-0.541L0.233,-0.152L0.231,-0.152L0.18,-0.541L-0.003,-0.541Z" style="fill-rule:nonzero;"/>
                </g>
            </g>
            <g transform="matrix(0.75,0,0,0.75,-814.991485,-619.775551)">
                <g transform="matrix(10.666667,0,0,10.666667,1551.84,1601.616)">
                    <path d="M0.2,-0.27C0.2,-0.304 0.201,-0.332 0.202,-0.354C0.203,-0.376 0.206,-0.393 0.21,-0.406C0.214,-0.419 0.219,-0.427 0.226,-0.432C0.232,-0.437 0.24,-0.439 0.25,-0.439C0.26,-0.439 0.268,-0.437 0.275,-0.432C0.282,-0.427 0.287,-0.419 0.29,-0.406C0.294,-0.393 0.297,-0.376 0.298,-0.354C0.299,-0.332 0.3,-0.304 0.3,-0.27C0.3,-0.236 0.299,-0.208 0.298,-0.186C0.297,-0.165 0.294,-0.148 0.29,-0.135C0.287,-0.122 0.282,-0.114 0.275,-0.109C0.268,-0.104 0.26,-0.102 0.25,-0.102C0.24,-0.102 0.232,-0.104 0.226,-0.109C0.219,-0.114 0.214,-0.122 0.21,-0.135C0.206,-0.148 0.203,-0.165 0.202,-0.186C0.201,-0.208 0.2,-0.236 0.2,-0.27ZM0.48,-0.27C0.48,-0.309 0.478,-0.346 0.474,-0.381C0.469,-0.415 0.459,-0.445 0.444,-0.471C0.429,-0.497 0.406,-0.517 0.375,-0.532C0.344,-0.547 0.303,-0.555 0.25,-0.555C0.199,-0.555 0.159,-0.547 0.129,-0.53C0.098,-0.514 0.075,-0.493 0.059,-0.466C0.043,-0.439 0.033,-0.409 0.028,-0.375C0.023,-0.341 0.02,-0.306 0.02,-0.271C0.02,-0.232 0.022,-0.195 0.026,-0.161C0.031,-0.126 0.041,-0.096 0.056,-0.071C0.071,-0.045 0.094,-0.025 0.125,-0.011C0.156,0.004 0.197,0.011 0.25,0.011C0.301,0.011 0.341,0.003 0.371,-0.013C0.402,-0.028 0.425,-0.049 0.441,-0.075C0.457,-0.102 0.468,-0.132 0.473,-0.166C0.478,-0.2 0.48,-0.235 0.48,-0.27Z" style="fill-rule:nonzero;"/>
                </g>
                <g transform="matrix(10.666667,0,0,10.666667,1557.173333,1601.616)">
                    <path d="M0.036,-0.541L0.036,-0.133C0.036,-0.104 0.04,-0.081 0.047,-0.061C0.054,-0.043 0.064,-0.028 0.077,-0.017C0.09,-0.006 0.104,0.002 0.121,0.005C0.138,0.009 0.157,0.011 0.177,0.011C0.242,0.011 0.285,-0.015 0.308,-0.066L0.31,-0.066L0.31,-0L0.484,-0L0.484,-0.541L0.304,-0.541L0.304,-0.184C0.304,-0.161 0.301,-0.145 0.294,-0.135C0.287,-0.125 0.276,-0.12 0.26,-0.12C0.244,-0.12 0.233,-0.125 0.226,-0.135C0.219,-0.145 0.216,-0.161 0.216,-0.184L0.216,-0.541L0.036,-0.541Z" style="fill-rule:nonzero;"/>
                </g>
                <g transform="matrix(10.666667,0,0,10.666667,1562.72,1601.616)">
                    <path d="M0.002,-0.541L0.002,-0.42L0.062,-0.42L0.062,-0.132C0.062,-0.102 0.065,-0.078 0.071,-0.06C0.076,-0.041 0.085,-0.027 0.098,-0.018C0.11,-0.009 0.126,-0.003 0.145,-0.001C0.164,0.002 0.188,0.003 0.215,0.003C0.23,0.003 0.246,0.003 0.263,0.002C0.28,0.001 0.296,-0 0.313,-0L0.313,-0.12L0.285,-0.12C0.27,-0.12 0.26,-0.123 0.253,-0.13C0.245,-0.136 0.242,-0.147 0.242,-0.162L0.242,-0.42L0.313,-0.42L0.313,-0.541L0.242,-0.541L0.242,-0.7L0.062,-0.7L0.062,-0.541L0.002,-0.541Z" style="fill-rule:nonzero;"/>
                </g>
            </g>
            <g transform="matrix(0.75,0,0,0.75,-841.703268,-829.636772)">
                <g transform="matrix(13.333333,0,0,13.333333,1554.153333,1603.52)">
                    <path d="M0.305,-0.329L0.467,-0.329C0.467,-0.363 0.464,-0.394 0.458,-0.421C0.451,-0.449 0.44,-0.473 0.424,-0.492C0.409,-0.512 0.388,-0.527 0.361,-0.538C0.335,-0.549 0.302,-0.555 0.262,-0.555C0.228,-0.555 0.196,-0.552 0.167,-0.545C0.138,-0.538 0.112,-0.525 0.09,-0.504C0.069,-0.483 0.052,-0.454 0.039,-0.415C0.026,-0.376 0.02,-0.325 0.02,-0.261C0.02,-0.202 0.026,-0.155 0.037,-0.12C0.048,-0.084 0.064,-0.056 0.085,-0.036C0.105,-0.017 0.129,-0.004 0.158,0.002C0.187,0.008 0.218,0.011 0.253,0.011C0.33,0.011 0.385,-0.007 0.419,-0.043C0.436,-0.062 0.449,-0.087 0.456,-0.117C0.463,-0.147 0.467,-0.183 0.467,-0.226L0.305,-0.226L0.305,-0.191C0.305,-0.157 0.3,-0.134 0.291,-0.121C0.283,-0.108 0.27,-0.102 0.253,-0.102C0.243,-0.102 0.235,-0.104 0.228,-0.11C0.221,-0.115 0.215,-0.123 0.211,-0.136C0.207,-0.149 0.204,-0.166 0.203,-0.188C0.201,-0.209 0.2,-0.237 0.2,-0.27C0.2,-0.303 0.201,-0.331 0.203,-0.352C0.204,-0.374 0.207,-0.392 0.211,-0.405C0.215,-0.417 0.221,-0.427 0.228,-0.431C0.235,-0.436 0.243,-0.439 0.253,-0.439C0.272,-0.439 0.286,-0.431 0.293,-0.416C0.297,-0.407 0.3,-0.396 0.302,-0.383C0.304,-0.369 0.305,-0.351 0.305,-0.329Z" style="fill-rule:nonzero;"/>
                </g>
                <g transform="matrix(13.333333,0,0,13.333333,1560.566667,1603.52)">
                    <path d="M0.036,-0.541L0.036,-0.133C0.036,-0.104 0.04,-0.081 0.047,-0.061C0.054,-0.043 0.064,-0.028 0.077,-0.017C0.09,-0.006 0.104,0.002 0.121,0.005C0.138,0.009 0.157,0.011 0.177,0.011C0.242,0.011 0.285,-0.015 0.308,-0.066L0.31,-0.066L0.31,-0L0.484,-0L0.484,-0.541L0.304,-0.541L0.304,-0.184C0.304,-0.161 0.301,-0.145 0.294,-0.135C0.287,-0.125 0.276,-0.12 0.26,-0.12C0.244,-0.12 0.233,-0.125 0.226,-0.135C0.219,-0.145 0.216,-0.161 0.216,-0.184L0.216,-0.541L0.036,-0.541Z" style="fill-rule:nonzero;"/>
                </g>
                <g transform="matrix(13.333333,0,0,13.333333,1567.5,1603.52)">
                    <path d="M0.002,-0.541L0.002,-0.42L0.062,-0.42L0.062,-0.132C0.062,-0.102 0.065,-0.078 0.071,-0.06C0.076,-0.041 0.085,-0.027 0.098,-0.018C0.11,-0.009 0.126,-0.003 0.145,-0.001C0.164,0.002 0.188,0.003 0.215,0.003C0.23,0.003 0.246,0.003 0.263,0.002C0.28,0.001 0.296,-0 0.313,-0L0.313,-0.12L0.285,-0.12C0.27,-0.12 0.26,-0.123 0.253,-0.13C0.245,-0.136 0.242,-0.147 0.242,-0.162L0.242,-0.42L0.313,-0.42L0.313,-0.541L0.242,-0.541L0.242,-0.7L0.062,-0.7L0.062,-0.541L0.002,-0.541Z" style="fill-rule:nonzero;"/>
                </g>
                <g transform="matrix(13.333333,0,0,13.333333,1571.7,1603.52)">
                    <path d="M0.2,-0.27C0.2,-0.304 0.201,-0.332 0.202,-0.354C0.203,-0.376 0.206,-0.393 0.21,-0.406C0.214,-0.419 0.219,-0.427 0.226,-0.432C0.232,-0.437 0.24,-0.439 0.25,-0.439C0.26,-0.439 0.268,-0.437 0.275,-0.432C0.282,-0.427 0.287,-0.419 0.29,-0.406C0.294,-0.393 0.297,-0.376 0.298,-0.354C0.299,-0.332 0.3,-0.304 0.3,-0.27C0.3,-0.236 0.299,-0.208 0.298,-0.186C0.297,-0.165 0.294,-0.148 0.29,-0.135C0.287,-0.122 0.282,-0.114 0.275,-0.109C0.268,-0.104 0.26,-0.102 0.25,-0.102C0.24,-0.102 0.232,-0.104 0.226,-0.109C0.219,-0.114 0.214,-0.122 0.21,-0.135C0.206,-0.148 0.203,-0.165 0.202,-0.186C0.201,-0.208 0.2,-0.236 0.2,-0.27ZM0.48,-0.27C0.48,-0.309 0.478,-0.346 0.474,-0.381C0.469,-0.415 0.459,-0.445 0.444,-0.471C0.429,-0.497 0.406,-0.517 0.375,-0.532C0.344,-0.547 0.303,-0.555 0.25,-0.555C0.199,-0.555 0.159,-0.547 0.129,-0.53C0.098,-0.514 0.075,-0.493 0.059,-0.466C0.043,-0.439 0.033,-0.409 0.028,-0.375C0.023,-0.341 0.02,-0.306 0.02,-0.271C0.02,-0.232 0.022,-0.195 0.026,-0.161C0.031,-0.126 0.041,-0.096 0.056,-0.071C0.071,-0.045 0.094,-0.025 0.125,-0.011C0.156,0.004 0.197,0.011 0.25,0.011C0.301,0.011 0.341,0.003 0.371,-0.013C0.402,-0.028 0.425,-0.049 0.441,-0.075C0.457,-0.102 0.468,-0.132 0.473,-0.166C0.478,-0.2 0.48,-0.235 0.48,-0.27Z" style="fill-rule:nonzero;"/>
                </g>
                <g transform="matrix(13.333333,0,0,13.333333,1578.366667,1603.52)">
                    <path d="M0.062,-0.42L0.062,-0L0.242,-0L0.242,-0.42L0.315,-0.42L0.315,-0.541L0.242,-0.541L0.242,-0.574C0.242,-0.587 0.246,-0.597 0.255,-0.603C0.264,-0.609 0.274,-0.612 0.285,-0.612C0.292,-0.612 0.297,-0.612 0.301,-0.612C0.306,-0.611 0.31,-0.61 0.315,-0.609L0.315,-0.722C0.301,-0.724 0.286,-0.725 0.272,-0.727C0.257,-0.728 0.242,-0.728 0.229,-0.728C0.198,-0.728 0.171,-0.725 0.15,-0.72C0.129,-0.715 0.112,-0.706 0.099,-0.695C0.086,-0.683 0.076,-0.668 0.071,-0.649C0.065,-0.63 0.062,-0.607 0.062,-0.58L0.062,-0.541L0,-0.541L0,-0.42L0.062,-0.42Z" style="fill-rule:nonzero;"/>
                </g>
                <g transform="matrix(13.333333,0,0,13.333333,1582.566667,1603.52)">
                    <path d="M0.062,-0.42L0.062,-0L0.242,-0L0.242,-0.42L0.315,-0.42L0.315,-0.541L0.242,-0.541L0.242,-0.574C0.242,-0.587 0.246,-0.597 0.255,-0.603C0.264,-0.609 0.274,-0.612 0.285,-0.612C0.292,-0.612 0.297,-0.612 0.301,-0.612C0.306,-0.611 0.31,-0.61 0.315,-0.609L0.315,-0.722C0.301,-0.724 0.286,-0.725 0.272,-0.727C0.257,-0.728 0.242,-0.728 0.229,-0.728C0.198,-0.728 0.171,-0.725 0.15,-0.72C0.129,-0.715 0.112,-0.706 0.099,-0.695C0.086,-0.683 0.076,-0.668 0.071,-0.649C0.065,-0.63 0.062,-0.607 0.062,-0.58L0.062,-0.541L0,-0.541L0,-0.42L0.062,-0.42Z" style="fill-rule:nonzero;"/>
                </g>
            </g>
            <g transform="matrix(0.75,0,0,0.75,-830.143228,-777.11315)">
                <g transform="matrix(13.333333,0,0,13.333333,1559.32,1603.52)">
                    <path d="M0.031,-0.541L0.031,-0L0.211,-0L0.211,-0.295C0.211,-0.331 0.22,-0.356 0.238,-0.37C0.255,-0.384 0.28,-0.391 0.312,-0.391C0.319,-0.391 0.327,-0.391 0.334,-0.39C0.341,-0.389 0.349,-0.388 0.357,-0.387L0.357,-0.555L0.328,-0.555C0.301,-0.555 0.277,-0.546 0.255,-0.529C0.233,-0.513 0.217,-0.488 0.207,-0.455L0.205,-0.455L0.205,-0.541L0.031,-0.541Z" style="fill-rule:nonzero;"/>
                </g>
                <g transform="matrix(13.333333,0,0,13.333333,1564.013333,1603.52)">
                    <path d="M0.299,-0.362L0.299,-0.338L0.2,-0.338L0.2,-0.362C0.2,-0.391 0.204,-0.412 0.21,-0.425C0.217,-0.438 0.23,-0.445 0.249,-0.445C0.268,-0.445 0.282,-0.438 0.288,-0.425C0.295,-0.412 0.299,-0.391 0.299,-0.362ZM0.2,-0.24L0.467,-0.24L0.467,-0.295C0.467,-0.344 0.463,-0.385 0.454,-0.418C0.444,-0.452 0.431,-0.478 0.413,-0.498C0.394,-0.519 0.371,-0.533 0.345,-0.542C0.318,-0.551 0.286,-0.555 0.25,-0.555C0.209,-0.555 0.174,-0.55 0.145,-0.539C0.117,-0.529 0.093,-0.513 0.074,-0.49C0.055,-0.467 0.042,-0.438 0.033,-0.402C0.024,-0.366 0.02,-0.322 0.02,-0.27C0.02,-0.219 0.024,-0.175 0.032,-0.139C0.039,-0.103 0.052,-0.074 0.07,-0.052C0.088,-0.029 0.112,-0.013 0.141,-0.004C0.17,0.006 0.207,0.011 0.25,0.011C0.325,0.011 0.378,-0.006 0.411,-0.04C0.444,-0.073 0.461,-0.123 0.462,-0.19L0.3,-0.19C0.3,-0.153 0.296,-0.129 0.287,-0.116C0.278,-0.102 0.265,-0.096 0.249,-0.096C0.236,-0.096 0.225,-0.101 0.215,-0.111C0.205,-0.12 0.2,-0.14 0.2,-0.169L0.2,-0.24Z" style="fill-rule:nonzero;"/>
                </g>
                <g transform="matrix(13.333333,0,0,13.333333,1570.426667,1603.52)">
                    <path d="M0.175,-0.168L0.017,-0.168C0.017,-0.109 0.034,-0.064 0.067,-0.034C0.099,-0.004 0.154,0.011 0.229,0.011C0.263,0.011 0.294,0.007 0.321,-0.001C0.347,-0.009 0.37,-0.021 0.389,-0.037C0.407,-0.053 0.421,-0.072 0.431,-0.094C0.441,-0.116 0.446,-0.14 0.446,-0.167C0.446,-0.202 0.44,-0.23 0.426,-0.251C0.413,-0.272 0.397,-0.288 0.378,-0.3C0.359,-0.313 0.338,-0.322 0.316,-0.329C0.293,-0.336 0.272,-0.342 0.253,-0.348C0.234,-0.354 0.218,-0.361 0.205,-0.368C0.192,-0.376 0.185,-0.388 0.185,-0.403C0.185,-0.416 0.189,-0.427 0.198,-0.434C0.207,-0.441 0.218,-0.445 0.231,-0.445C0.246,-0.445 0.258,-0.441 0.267,-0.432C0.275,-0.424 0.279,-0.408 0.279,-0.385L0.435,-0.385C0.435,-0.498 0.367,-0.555 0.232,-0.555C0.195,-0.555 0.164,-0.551 0.137,-0.542C0.11,-0.533 0.087,-0.521 0.07,-0.506C0.052,-0.491 0.039,-0.473 0.03,-0.453C0.021,-0.432 0.017,-0.41 0.017,-0.386C0.017,-0.352 0.024,-0.325 0.036,-0.303C0.049,-0.283 0.066,-0.266 0.085,-0.253C0.104,-0.24 0.125,-0.23 0.147,-0.223C0.17,-0.216 0.191,-0.209 0.21,-0.202C0.229,-0.195 0.246,-0.188 0.259,-0.179C0.272,-0.17 0.278,-0.158 0.278,-0.142C0.278,-0.127 0.273,-0.116 0.263,-0.108C0.252,-0.1 0.24,-0.096 0.226,-0.096C0.209,-0.096 0.197,-0.102 0.188,-0.115C0.183,-0.121 0.18,-0.129 0.178,-0.138C0.176,-0.147 0.175,-0.157 0.175,-0.168Z" style="fill-rule:nonzero;"/>
                </g>
            </g>
            <g transform="matrix(0.75,0,0,0.75,-854.828268,-724.589528)">
                <g transform="matrix(13.333333,0,0,13.333333,1553.4,1603.52)">
                    <path d="M0.175,-0.168L0.017,-0.168C0.017,-0.109 0.034,-0.064 0.067,-0.034C0.099,-0.004 0.154,0.011 0.229,0.011C0.263,0.011 0.294,0.007 0.321,-0.001C0.347,-0.009 0.37,-0.021 0.389,-0.037C0.407,-0.053 0.421,-0.072 0.431,-0.094C0.441,-0.116 0.446,-0.14 0.446,-0.167C0.446,-0.202 0.44,-0.23 0.426,-0.251C0.413,-0.272 0.397,-0.288 0.378,-0.3C0.359,-0.313 0.338,-0.322 0.316,-0.329C0.293,-0.336 0.272,-0.342 0.253,-0.348C0.234,-0.354 0.218,-0.361 0.205,-0.368C0.192,-0.376 0.185,-0.388 0.185,-0.403C0.185,-0.416 0.189,-0.427 0.198,-0.434C0.207,-0.441 0.218,-0.445 0.231,-0.445C0.246,-0.445 0.258,-0.441 0.267,-0.432C0.275,-0.424 0.279,-0.408 0.279,-0.385L0.435,-0.385C0.435,-0.498 0.367,-0.555 0.232,-0.555C0.195,-0.555 0.164,-0.551 0.137,-0.542C0.11,-0.533 0.087,-0.521 0.07,-0.506C0.052,-0.491 0.039,-0.473 0.03,-0.453C0.021,-0.432 0.017,-0.41 0.017,-0.386C0.017,-0.352 0.024,-0.325 0.036,-0.303C0.049,-0.283 0.066,-0.266 0.085,-0.253C0.104,-0.24 0.125,-0.23 0.147,-0.223C0.17,-0.216 0.191,-0.209 0.21,-0.202C0.229,-0.195 0.246,-0.188 0.259,-0.179C0.272,-0.17 0.278,-0.158 0.278,-0.142C0.278,-0.127 0.273,-0.116 0.263,-0.108C0.252,-0.1 0.24,-0.096 0.226,-0.096C0.209,-0.096 0.197,-0.102 0.188,-0.115C0.183,-0.121 0.18,-0.129 0.178,-0.138C0.176,-0.147 0.175,-0.157 0.175,-0.168Z" style="fill-rule:nonzero;"/>
                </g>
                <g transform="matrix(13.333333,0,0,13.333333,1559.573333,1603.52)">
                    <path d="M0.031,-0.714L0.031,-0L0.211,-0L0.211,-0.139L0.241,-0.186L0.332,-0L0.524,-0L0.355,-0.318L0.505,-0.541L0.313,-0.541L0.213,-0.354L0.211,-0.354L0.211,-0.714L0.031,-0.714Z" style="fill-rule:nonzero;"/>
                </g>
                <g transform="matrix(13.333333,0,0,13.333333,1566.24,1603.52)">
                    <path d="M0.299,-0.362L0.299,-0.338L0.2,-0.338L0.2,-0.362C0.2,-0.391 0.204,-0.412 0.21,-0.425C0.217,-0.438 0.23,-0.445 0.249,-0.445C0.268,-0.445 0.282,-0.438 0.288,-0.425C0.295,-0.412 0.299,-0.391 0.299,-0.362ZM0.2,-0.24L0.467,-0.24L0.467,-0.295C0.467,-0.344 0.463,-0.385 0.454,-0.418C0.444,-0.452 0.431,-0.478 0.413,-0.498C0.394,-0.519 0.371,-0.533 0.345,-0.542C0.318,-0.551 0.286,-0.555 0.25,-0.555C0.209,-0.555 0.174,-0.55 0.145,-0.539C0.117,-0.529 0.093,-0.513 0.074,-0.49C0.055,-0.467 0.042,-0.438 0.033,-0.402C0.024,-0.366 0.02,-0.322 0.02,-0.27C0.02,-0.219 0.024,-0.175 0.032,-0.139C0.039,-0.103 0.052,-0.074 0.07,-0.052C0.088,-0.029 0.112,-0.013 0.141,-0.004C0.17,0.006 0.207,0.011 0.25,0.011C0.325,0.011 0.378,-0.006 0.411,-0.04C0.444,-0.073 0.461,-0.123 0.462,-0.19L0.3,-0.19C0.3,-0.153 0.296,-0.129 0.287,-0.116C0.278,-0.102 0.265,-0.096 0.249,-0.096C0.236,-0.096 0.225,-0.101 0.215,-0.111C0.205,-0.12 0.2,-0.14 0.2,-0.169L0.2,-0.24Z" style="fill-rule:nonzero;"/>
                </g>
                <g transform="matrix(13.333333,0,0,13.333333,1572.653333,1603.52)">
                    <path d="M0,-0.541L0.11,-0L0.314,-0L0.369,-0.383L0.371,-0.383L0.426,-0L0.63,-0L0.74,-0.541L0.566,-0.541L0.521,-0.152L0.519,-0.152L0.466,-0.541L0.274,-0.541L0.221,-0.152L0.219,-0.152L0.174,-0.541L0,-0.541Z" style="fill-rule:nonzero;"/>
                </g>
            </g>
        </g>
    </g>
</svg>
