G04 #@! TF.GenerationSoftware,KiCad,Pcbnew,7.0.8*
G04 #@! TF.CreationDate,2024-09-22T21:35:00-04:00*
G04 #@! TF.ProjectId,lichen-freddie-board,6c696368-656e-42d6-9672-65646469652d,1.0*
G04 #@! TF.SameCoordinates,Original*
G04 #@! TF.FileFunction,Soldermask,Top*
G04 #@! TF.FilePolarity,Negative*
%FSLAX46Y46*%
G04 Gerber Fmt 4.6, Leading zero omitted, Abs format (unit mm)*
G04 Created by KiCad (PCBNEW 7.0.8) date 2024-09-22 21:35:00*
%MOMM*%
%LPD*%
G01*
G04 APERTURE LIST*
%ADD10R,1.000000X1.000000*%
%ADD11C,2.200000*%
%ADD12R,1.750000X1.750000*%
%ADD13C,1.750000*%
%ADD14C,2.700000*%
%ADD15C,1.371600*%
%ADD16C,2.032000*%
%ADD17R,1.700000X1.700000*%
%ADD18O,1.700000X1.700000*%
%ADD19C,1.930400*%
%ADD20C,1.700000*%
%ADD21C,2.082800*%
G04 APERTURE END LIST*
D10*
X170290000Y-118960000D03*
X171990000Y-118960000D03*
D11*
X170950000Y-212577000D03*
D12*
X177700000Y-206258000D03*
D13*
X181200000Y-206258000D03*
X177700000Y-132758000D03*
D14*
X183650000Y-202108000D03*
X175250000Y-200908000D03*
X175250000Y-138108000D03*
X183650000Y-136908000D03*
D12*
X194700000Y-206258000D03*
D13*
X198200000Y-206258000D03*
X194700000Y-132758000D03*
D14*
X200650000Y-202108000D03*
X192250000Y-200908000D03*
X192250000Y-138108000D03*
X200650000Y-136908000D03*
D15*
X127180000Y-124234000D03*
X129720000Y-124234000D03*
D16*
X159198800Y-210316400D03*
X165701200Y-210316400D03*
X159198800Y-214837600D03*
X165701200Y-214837600D03*
X210198800Y-210316400D03*
X216701200Y-210316400D03*
X210198800Y-214837600D03*
X216701200Y-214837600D03*
D12*
X126700000Y-206258000D03*
D13*
X130200000Y-206258000D03*
X126700000Y-132758000D03*
D14*
X132650000Y-202108000D03*
X124250000Y-200908000D03*
X124250000Y-138108000D03*
X132650000Y-136908000D03*
D12*
X143700000Y-206258000D03*
D13*
X147200000Y-206258000D03*
X143700000Y-132758000D03*
D14*
X149650000Y-202108000D03*
X141250000Y-200908000D03*
X141250000Y-138108000D03*
X149650000Y-136908000D03*
D16*
X108198800Y-210316400D03*
X114701200Y-210316400D03*
X108198800Y-214837600D03*
X114701200Y-214837600D03*
X176198800Y-210316400D03*
X182701200Y-210316400D03*
X176198800Y-214837600D03*
X182701200Y-214837600D03*
D10*
X212600000Y-118267000D03*
X214300000Y-118267000D03*
D12*
X228700000Y-206258000D03*
D13*
X232200000Y-206258000D03*
X228700000Y-132758000D03*
D14*
X234650000Y-202108000D03*
X226250000Y-200908000D03*
X226250000Y-138108000D03*
X234650000Y-136908000D03*
D10*
X178600000Y-129069000D03*
X180300000Y-129069000D03*
D15*
X229180000Y-124234000D03*
X231720000Y-124234000D03*
X195180000Y-124234000D03*
X197720000Y-124234000D03*
D11*
X221950000Y-212577000D03*
D16*
X193198800Y-210316400D03*
X199701200Y-210316400D03*
X193198800Y-214837600D03*
X199701200Y-214837600D03*
X142198800Y-210316400D03*
X148701200Y-210316400D03*
X142198800Y-214837600D03*
X148701200Y-214837600D03*
D12*
X109700000Y-206258000D03*
D13*
X113200000Y-206258000D03*
X109700000Y-132758000D03*
D14*
X115650000Y-202108000D03*
X107250000Y-200908000D03*
X107250000Y-138108000D03*
X115650000Y-136908000D03*
D15*
X110180000Y-124234000D03*
X112720000Y-124234000D03*
X161180000Y-124234000D03*
X163720000Y-124234000D03*
D10*
X195600000Y-118267000D03*
X197300000Y-118267000D03*
X229600000Y-118267000D03*
X231300000Y-118267000D03*
D17*
X136180000Y-113870000D03*
D18*
X138720000Y-113870000D03*
X136180000Y-116410000D03*
X138720000Y-116410000D03*
X136180000Y-118950000D03*
X138720000Y-118950000D03*
D15*
X212180000Y-124234000D03*
X214720000Y-124234000D03*
D19*
X174243000Y-116108000D03*
X185215800Y-116108000D03*
X182802800Y-116108000D03*
D12*
X160700000Y-206258000D03*
D13*
X164200000Y-206258000D03*
X160700000Y-132758000D03*
D14*
X166650000Y-202108000D03*
X158250000Y-200908000D03*
X158250000Y-138108000D03*
X166650000Y-136908000D03*
D10*
X145530000Y-120290000D03*
X145530000Y-118590000D03*
X150510000Y-118590000D03*
X150510000Y-120290000D03*
X163300000Y-129069000D03*
X161600000Y-129069000D03*
X112300000Y-129069000D03*
X110600000Y-129069000D03*
D15*
X144180000Y-124234000D03*
X146720000Y-124234000D03*
D10*
X170130000Y-113470000D03*
X171830000Y-113470000D03*
D12*
X211700000Y-206258000D03*
D13*
X215200000Y-206258000D03*
X211700000Y-132758000D03*
D14*
X217650000Y-202108000D03*
X209250000Y-200908000D03*
X209250000Y-138108000D03*
X217650000Y-136908000D03*
D16*
X227198800Y-210316400D03*
X233701200Y-210316400D03*
X227198800Y-214837600D03*
X233701200Y-214837600D03*
D19*
X167657000Y-116108000D03*
X156684200Y-116108000D03*
X159097200Y-116108000D03*
D10*
X129300000Y-129069000D03*
X127600000Y-129069000D03*
D15*
X178180000Y-124234000D03*
X180720000Y-124234000D03*
D10*
X146300000Y-129069000D03*
X144600000Y-129069000D03*
D16*
X125198800Y-210316400D03*
X131701200Y-210316400D03*
X125198800Y-214837600D03*
X131701200Y-214837600D03*
D11*
X119950000Y-212577000D03*
D17*
X237040000Y-128510000D03*
D20*
X234500000Y-128510000D03*
X231960000Y-128510000D03*
X229420000Y-128510000D03*
X226880000Y-128510000D03*
X224340000Y-128510000D03*
X221800000Y-128510000D03*
X219260000Y-128510000D03*
X216720000Y-128510000D03*
X214180000Y-128510000D03*
X211640000Y-128510000D03*
X209100000Y-128510000D03*
X206560000Y-128510000D03*
X204020000Y-128510000D03*
X201480000Y-128510000D03*
X198940000Y-128510000D03*
X196400000Y-128510000D03*
X193860000Y-128510000D03*
X191320000Y-128510000D03*
X188780000Y-128510000D03*
X188780000Y-113270000D03*
X191320000Y-113270000D03*
X193860000Y-113270000D03*
X196400000Y-113270000D03*
X198940000Y-113270000D03*
X201480000Y-113270000D03*
X204020000Y-113270000D03*
X206560000Y-113270000D03*
X209100000Y-113270000D03*
X211640000Y-113270000D03*
X214180000Y-113270000D03*
X216720000Y-113270000D03*
X219260000Y-113270000D03*
X221800000Y-113270000D03*
X224340000Y-113270000D03*
X226880000Y-113270000D03*
X229420000Y-113270000D03*
X231960000Y-113270000D03*
X234500000Y-113270000D03*
X237040000Y-113270000D03*
D21*
X117770000Y-117930000D03*
X117770000Y-115136000D03*
X115230000Y-117726800D03*
X115230000Y-114932800D03*
X112690000Y-117930000D03*
X112690000Y-115136000D03*
X110150000Y-117726800D03*
X110150000Y-114932800D03*
X107610000Y-117930000D03*
X107610000Y-115136000D03*
M02*
