<?xml version="1.0" encoding="UTF-8"?>
<svg id="Silkscreen" xmlns="http://www.w3.org/2000/svg" width="142.5818mm" height="128.7798mm" viewBox="0 0 404.1689 365.0452">
  <defs>
    <style>
      .cls-1 {
        fill: #231f20;
        stroke-width: 0px;
      }
    </style>
  </defs>
  <g>
    <path class="cls-1" d="M176.5844,11.9877h-5.5166v3.8042h5.3213v2.2456h-5.3213v7.5366h-2.3896v-15.832h7.9062v2.2456Z"/>
    <path class="cls-1" d="M178.7075,15.5869h2.3076v.8921c.4229-.4443.7988-.7485,1.127-.9126.335-.1709.7314-.2563,1.1895-.2563.6084,0,1.2441.1982,1.9082.5947l-1.0566,2.1123c-.4375-.3145-.8652-.4717-1.2812-.4717-1.2588,0-1.8867.9502-1.8867,2.8506v5.1782h-2.3076v-9.9873Z"/>
    <path class="cls-1" d="M195.5132,21.124h-7.1562c.0605.8203.3281,1.4731.7988,1.9585.4727.4785,1.0771.7178,1.8154.7178.5742,0,1.0488-.1367,1.4248-.4102.3691-.2734.79-.7793,1.2617-1.5176l1.9482,1.0869c-.3008.5127-.6191.9521-.9541,1.3179s-.6934.666-1.0762.9023c-.3828.2354-.7969.4082-1.2402.5176-.4453.1094-.9268.1641-1.4463.1641-1.4902,0-2.6865-.4785-3.5889-1.4355-.9023-.9639-1.3535-2.2422-1.3535-3.835,0-1.5791.4375-2.8574,1.3125-3.835.8818-.9639,2.0508-1.4458,3.5068-1.4458,1.4697,0,2.6318.4683,3.4863,1.4048.8477.9297,1.2715,2.2183,1.2715,3.8657l-.0107.5435ZM193.145,19.2372c-.3213-1.2305-1.0967-1.8457-2.3271-1.8457-.2812,0-.5439.043-.79.1279-.2461.0859-.4697.209-.6719.3691-.2012.1611-.374.354-.5176.5796s-.2529.4819-.3281.769h4.6348Z"/>
    <path class="cls-1" d="M205.3979,8.2553h2.3174v17.3188h-2.3174v-1.0459c-.9092.8887-1.9375,1.333-3.0859,1.333-1.3682,0-2.502-.499-3.4043-1.4971-.8965-1.0186-1.3438-2.29-1.3438-3.8145,0-1.4902.4473-2.7344,1.3438-3.7324.8877-1.0049,2.0059-1.5073,3.3525-1.5073,1.1689,0,2.2148.4785,3.1377,1.4355v-8.4902ZM199.9223,20.5497c0,.957.2568,1.7363.7686,2.3379.5264.6084,1.1895.9126,1.9902.9126.8535,0,1.5439-.2939,2.0703-.8818.5264-.6084.79-1.3809.79-2.3174s-.2637-1.709-.79-2.3174c-.5264-.5947-1.209-.8921-2.0508-.8921-.793,0-1.4551.3008-1.9883.9023-.5273.6084-.79,1.3604-.79,2.2559Z"/>
    <path class="cls-1" d="M217.9897,8.2553h2.3174v17.3188h-2.3174v-1.0459c-.9092.8887-1.9375,1.333-3.0859,1.333-1.3682,0-2.502-.499-3.4043-1.4971-.8965-1.0186-1.3438-2.29-1.3438-3.8145,0-1.4902.4473-2.7344,1.3438-3.7324.8877-1.0049,2.0059-1.5073,3.3525-1.5073,1.1689,0,2.2148.4785,3.1377,1.4355v-8.4902ZM212.5141,20.5497c0,.957.2568,1.7363.7686,2.3379.5264.6084,1.1895.9126,1.9902.9126.8535,0,1.5439-.2939,2.0703-.8818.5264-.6084.79-1.3809.79-2.3174s-.2637-1.709-.79-2.3174c-.5264-.5947-1.209-.8921-2.0508-.8921-.793,0-1.4551.3008-1.9883.9023-.5273.6084-.79,1.3604-.79,2.2559Z"/>
    <path class="cls-1" d="M222.8706,11.434c0-.4033.1465-.752.4414-1.0459.293-.2939.6455-.4409,1.0557-.4409.417,0,.7725.147,1.0664.4409.2939.2871.4404.6392.4404,1.0562s-.1465.7725-.4404,1.0664c-.2871.2939-.6396.4409-1.0557.4409-.418,0-.7734-.147-1.0664-.4409-.2949-.2939-.4414-.6528-.4414-1.0767ZM225.5268,15.5869v9.9873h-2.3076v-9.9873h2.3076Z"/>
    <path class="cls-1" d="M237.5434,21.124h-7.1562c.0605.8203.3281,1.4731.7988,1.9585.4727.4785,1.0771.7178,1.8154.7178.5742,0,1.0488-.1367,1.4248-.4102.3691-.2734.79-.7793,1.2617-1.5176l1.9482,1.0869c-.3008.5127-.6191.9521-.9541,1.3179s-.6934.666-1.0762.9023c-.3828.2354-.7969.4082-1.2402.5176-.4453.1094-.9268.1641-1.4463.1641-1.4902,0-2.6865-.4785-3.5889-1.4355-.9023-.9639-1.3535-2.2422-1.3535-3.835,0-1.5791.4375-2.8574,1.3125-3.835.8818-.9639,2.0508-1.4458,3.5068-1.4458,1.4697,0,2.6318.4683,3.4863,1.4048.8477.9297,1.2715,2.2183,1.2715,3.8657l-.0107.5435ZM235.1753,19.2372c-.3213-1.2305-1.0967-1.8457-2.3271-1.8457-.2812,0-.5439.043-.79.1279-.2461.0859-.4697.209-.6719.3691-.2012.1611-.374.354-.5176.5796s-.2529.4819-.3281.769h4.6348Z"/>
  </g>
  <g>
    <path class="cls-1" d="M170.604,49.3574v-2.6484c0-.5898-.3096-.9497-.8193-.9497-.6494,0-1.1592.52-1.1592,1.1294v2.4688h-.6494v-2.6484c0-.5898-.2803-.9497-.8398-.9497-.6396,0-1.1494.5298-1.1494,1.1396v2.4585h-.6494v-4.0776h.6494v.5498c.2402-.3901.7197-.6699,1.2393-.6699.6699,0,1.0596.29,1.2598.7397.2998-.4497.8789-.7397,1.3984-.7397.9697,0,1.3799.6499,1.3799,1.4692v2.7285h-.6602Z"/>
    <path class="cls-1" d="M172.437,44.2402v-.9595h.6494v.9595h-.6494ZM172.437,49.3574v-4.0776h.6494v4.0776h-.6494Z"/>
    <path class="cls-1" d="M177.3257,49.3574v-.6597c-.2207.3999-.7598.7798-1.4092.7798-1.1299,0-1.8594-.9995-1.8594-2.1592,0-1.2891.8398-2.1587,1.9092-2.1587.6094,0,1.1191.3501,1.3594.7798v-3.8779h.6494v7.2959h-.6494ZM176.0258,45.7695c-.7998,0-1.2988.6494-1.2988,1.5488,0,.8296.4492,1.5591,1.2891,1.5591.7998,0,1.3389-.7192,1.3389-1.5791,0-.7793-.5195-1.5288-1.3291-1.5288Z"/>
    <path class="cls-1" d="M179.2368,44.2402v-.9595h.6494v.9595h-.6494ZM179.2368,49.3574v-4.0776h.6494v4.0776h-.6494Z"/>
  </g>
  <g>
    <path class="cls-1" d="M227.061,49.3867c-.7295,0-1.1895-.2896-1.1895-1.0991v-2.4087h-.5996v-.5996h.5996v-1.9092h.6494v1.9092h.7695v.5996h-.7695v2.3984c0,.3198.1699.5.5596.5h.2197v.5996s-.2197.0098-.2393.0098Z"/>
    <path class="cls-1" d="M230.5005,45.999c-.1904-.1602-.3799-.23-.5898-.23-.5303,0-.9697.5996-.9697,1.2993v2.2886h-.6494v-4.0776h.6494v.5596c.2295-.3999.6094-.6797,1.0791-.6797.3301,0,.5596.0898.8096.3101l-.3291.5298Z"/>
    <path class="cls-1" d="M232.6704,49.4667c-.5391,0-1.0693-.1899-1.4385-.4795l.3496-.5c.3193.25.7393.3896,1.0693.3896.3896,0,.7793-.2295.7793-.5894,0-.4497-.4092-.5996-.8994-.7695-.5693-.21-1.209-.4897-1.209-1.2495,0-.6797.6494-1.1094,1.3291-1.1094.4492,0,.8994.1099,1.3096.4097l-.2998.5c-.3203-.23-.6699-.3301-1.0098-.3301-.3203,0-.6797.1499-.6797.5098,0,.3501.3398.5098.8398.6797.5996.2197,1.2793.5,1.2793,1.3394,0,.6895-.6699,1.1992-1.4199,1.1992Z"/>
  </g>
  <g>
    <g>
      <path class="cls-1" d="M185.604,339.6801v10.3516h3.5469v1.7109h-5.3672v-12.0625h1.8203Z"/>
      <path class="cls-1" d="M189.476,340.9692c0-.3076.1123-.5732.3359-.7969s.4922-.3359.8047-.3359c.3174,0,.5889.1123.8125.3359.2236.2188.3359.4873.3359.8047s-.1123.5889-.3359.8125c-.2188.2236-.4873.3359-.8047.3359s-.5889-.1123-.8125-.3359-.3359-.4971-.3359-.8203ZM191.4995,344.1332v7.6094h-1.7578v-7.6094h1.7578Z"/>
      <path class="cls-1" d="M198.8481,344.4614v2.3359c-.4014-.4893-.7607-.8252-1.0781-1.0078-.3125-.1875-.6797-.2812-1.1016-.2812-.6611,0-1.2109.2314-1.6484.6953s-.6562,1.0439-.6562,1.7422c0,.7139.2109,1.2998.6328,1.7578.4268.458.9717.6875,1.6328.6875.4219,0,.7939-.0908,1.1172-.2734.3125-.1768.6797-.5205,1.1016-1.0312v2.3203c-.7139.3701-1.4268.5547-2.1406.5547-1.1768,0-2.1611-.3799-2.9531-1.1406-.792-.7656-1.1875-1.7158-1.1875-2.8516s.4014-2.0938,1.2031-2.875,1.7861-1.1719,2.9531-1.1719c.75,0,1.458.1797,2.125.5391Z"/>
      <path class="cls-1" d="M200.1645,338.5473h1.7578v6.2188c.625-.5625,1.3154-.8438,2.0703-.8438.8594,0,1.5469.2783,2.0625.8359.4375.4844.6562,1.2578.6562,2.3203v4.6641h-1.7578v-4.5c0-.6094-.1084-1.0508-.3242-1.3242s-.5635-.4102-1.043-.4102c-.6143,0-1.0469.1904-1.2969.5703-.2451.3857-.3672,1.0469-.3672,1.9844v3.6797h-1.7578v-13.1953Z"/>
      <path class="cls-1" d="M215.0678,348.352h-5.4531c.0469.625.25,1.1221.6094,1.4922.3594.3643.8203.5469,1.3828.5469.4375,0,.7998-.1045,1.0859-.3125.2812-.208.6016-.5938.9609-1.1562l1.4844.8281c-.2295.3906-.4717.7256-.7266,1.0039s-.5283.5078-.8203.6875-.6064.3115-.9453.3945-.7061.125-1.1016.125c-1.1357,0-2.0469-.3643-2.7344-1.0938-.6875-.7344-1.0312-1.708-1.0312-2.9219,0-1.2031.333-2.1768,1-2.9219.6719-.7344,1.5625-1.1016,2.6719-1.1016,1.1201,0,2.0049.3564,2.6562,1.0703.6455.708.9688,1.6904.9688,2.9453l-.0078.4141ZM213.2632,346.9145c-.2451-.9375-.8359-1.4062-1.7734-1.4062-.2139,0-.4141.0322-.6016.0977s-.3584.1592-.5117.2812-.2852.2695-.3945.4414-.1924.3672-.25.5859h3.5312Z"/>
      <path class="cls-1" d="M216.1899,344.1332h1.7656v.7031c.6143-.6094,1.3076-.9141,2.0781-.9141.8857,0,1.5752.2783,2.0703.8359.4268.4736.6406,1.2471.6406,2.3203v4.6641h-1.7656v-4.25c0-.75-.1045-1.2686-.3125-1.5547-.2031-.292-.5732-.4375-1.1094-.4375-.583,0-.9971.1924-1.2422.5781-.2393.3799-.3594,1.0439-.3594,1.9922v3.6719h-1.7656v-7.6094Z"/>
    </g>
    <g>
      <path class="cls-1" d="M185.4985,354.5121v.6533c-.1113-.1377-.2119-.2314-.3008-.2822-.0879-.0527-.1904-.0781-.3076-.0781-.1855,0-.3389.0645-.4609.1943-.1221.1289-.1836.292-.1836.4863,0,.2002.0586.3633.1768.4912.1191.1289.2715.1924.4561.1924.1182,0,.2227-.0254.3125-.0762.0879-.0498.1904-.1455.3076-.2881v.6484c-.1992.1035-.3984.1553-.5977.1553-.3291,0-.6045-.1064-.8252-.3193-.2217-.2139-.332-.4795-.332-.7969s.1113-.585.3359-.8037.499-.3271.8252-.3271c.21,0,.4082.0498.5938.1504Z"/>
      <path class="cls-1" d="M185.938,355.4682c0-.3066.1094-.5684.3291-.7832.2197-.2158.4883-.3232.8037-.3232.3174,0,.5869.1084.8086.3252.2178.2168.3271.4834.3271.7988,0,.3193-.1104.5859-.3301.8018-.2207.2139-.4922.3213-.8145.3213-.3184,0-.5859-.1094-.8008-.3281-.2158-.2148-.3232-.4863-.3232-.8125ZM186.4399,355.477c0,.2129.0566.3809.1699.5049.1172.125.2705.1875.4609.1875.1924,0,.3457-.0615.4609-.1855s.1729-.2891.1729-.4951c0-.207-.0576-.3721-.1729-.4961-.1162-.125-.2705-.1875-.4609-.1875-.1875,0-.3398.0625-.4561.1875s-.1748.2871-.1748.4844Z"/>
      <path class="cls-1" d="M188.7885,354.4203h.4912v.1963c.0947-.0986.1748-.166.2422-.2002.0713-.0371.1611-.0547.2686-.0547.2402,0,.4297.1045.5693.3145.1543-.21.3633-.3145.627-.3145.4795,0,.7188.29.7188.8711v1.3145h-.4932v-1.1816c0-.2031-.0254-.3477-.0742-.4316-.0518-.0859-.1348-.1289-.252-.1289-.1348,0-.2334.0508-.2959.1523-.0615.1025-.0928.2656-.0928.4912v1.0986h-.4932v-1.1748c0-.3789-.1094-.5674-.3271-.5674-.1387,0-.2393.0518-.3027.1543-.0635.1035-.0947.2666-.0947.4893v1.0986h-.4912v-2.127Z"/>
      <path class="cls-1" d="M192.3891,354.4203h.4912v.1963c.0947-.0986.1748-.166.2422-.2002.0713-.0371.1611-.0547.2686-.0547.2402,0,.4297.1045.5693.3145.1543-.21.3633-.3145.627-.3145.4795,0,.7188.29.7188.8711v1.3145h-.4932v-1.1816c0-.2031-.0254-.3477-.0742-.4316-.0518-.0859-.1348-.1289-.252-.1289-.1348,0-.2334.0508-.2959.1523-.0615.1025-.0928.2656-.0928.4912v1.0986h-.4932v-1.1748c0-.3789-.1094-.5674-.3271-.5674-.1387,0-.2393.0518-.3027.1543-.0635.1035-.0947.2666-.0947.4893v1.0986h-.4912v-2.127Z"/>
      <path class="cls-1" d="M196.4799,354.4203v1.2207c0,.3525.1387.5283.417.5283.2773,0,.417-.1758.417-.5283v-1.2207h.4912v1.2314c0,.1709-.0215.3174-.0635.4414-.041.1104-.1113.21-.2119.2988-.166.1445-.377.2168-.6328.2168-.2549,0-.4658-.0723-.6309-.2168-.1025-.0889-.1748-.1885-.2168-.2988-.041-.0986-.0605-.2461-.0605-.4414v-1.2314h.4912Z"/>
      <path class="cls-1" d="M198.4887,354.4203h.4932v.1963c.1719-.1699.3652-.2549.5811-.2549.2471,0,.4404.0771.5781.2334.1191.1328.1797.3486.1797.6484v1.3037h-.4941v-1.1875c0-.21-.0293-.3545-.0869-.4346-.0566-.082-.1602-.123-.3105-.123-.1631,0-.2783.0547-.3467.1621-.0674.1064-.1006.292-.1006.5566v1.0264h-.4932v-2.127Z"/>
      <path class="cls-1" d="M200.9282,353.5356c0-.085.0322-.1602.0947-.2227s.1377-.0938.2246-.0938c.0889,0,.1641.0312.2275.0938.0625.0615.0938.1367.0938.2256s-.0312.1641-.0938.2266c-.0615.0625-.1367.0938-.2256.0938s-.1641-.0312-.2266-.0938-.0947-.1387-.0947-.2295ZM201.4946,354.4203v2.127h-.4912v-2.127h.4912Z"/>
      <path class="cls-1" d="M202.686,354.8793v1.668h-.4912v-1.668h-.209v-.459h.209v-.7793h.4912v.7793h.3828v.459h-.3828Z"/>
      <path class="cls-1" d="M204.1352,356.1518l-.9561-1.7314h.5693l.6514,1.2227.6064-1.2227h.5547l-1.6943,3.2842h-.5615l.8301-1.5527Z"/>
      <path class="cls-1" d="M208.6362,354.7827l-.4062.2168c-.0635-.1318-.1436-.1973-.2383-.1973-.0449,0-.083.0156-.1152.0449-.0322.0303-.0479.0684-.0479.1152,0,.0811.0947.1621.2832.2422.2607.1123.4365.2148.5264.3096.0908.0947.1357.2227.1357.3828,0,.2051-.0762.377-.2275.5146-.1465.1318-.3242.1973-.5322.1973-.3564,0-.6094-.1748-.7578-.5225l.4189-.1943c.0586.1025.1025.167.1338.1943.0596.0557.1309.083.2139.083.166,0,.249-.0752.249-.2266,0-.0879-.0645-.1689-.1924-.2451-.0498-.0244-.0986-.0488-.1484-.0723-.0498-.0225-.0996-.0469-.1504-.0713-.1436-.0703-.2432-.1406-.3018-.21-.0742-.0889-.1113-.2031-.1113-.3428,0-.1846.0635-.3379.1904-.459.1289-.1201.2861-.1807.4717-.1807.2715,0,.4736.1406.6064.4209Z"/>
      <path class="cls-1" d="M209.9477,356.1518l-.9561-1.7314h.5693l.6514,1.2227.6064-1.2227h.5547l-1.6943,3.2842h-.5615l.8301-1.5527Z"/>
      <path class="cls-1" d="M213.0063,354.7827l-.4062.2168c-.0635-.1318-.1436-.1973-.2383-.1973-.0449,0-.083.0156-.1152.0449-.0322.0303-.0479.0684-.0479.1152,0,.0811.0947.1621.2832.2422.2607.1123.4365.2148.5264.3096.0908.0947.1357.2227.1357.3828,0,.2051-.0762.377-.2275.5146-.1465.1318-.3242.1973-.5322.1973-.3564,0-.6094-.1748-.7578-.5225l.4189-.1943c.0586.1025.1025.167.1338.1943.0596.0557.1309.083.2139.083.166,0,.249-.0752.249-.2266,0-.0879-.0645-.1689-.1924-.2451-.0498-.0244-.0986-.0488-.1484-.0723-.0498-.0225-.0996-.0469-.1504-.0713-.1436-.0703-.2432-.1406-.3018-.21-.0742-.0889-.1113-.2031-.1113-.3428,0-.1846.0635-.3379.1904-.459.1289-.1201.2861-.1807.4717-.1807.2715,0,.4736.1406.6064.4209Z"/>
      <path class="cls-1" d="M214.1538,354.8793v1.668h-.4912v-1.668h-.209v-.459h.209v-.7793h.4912v.7793h.3828v.459h-.3828Z"/>
      <path class="cls-1" d="M216.9096,355.6h-1.5244c.0137.1738.0703.3135.1709.417.0996.1016.2285.1523.3857.1523.123,0,.2236-.0293.3037-.0869.0791-.0586.168-.166.2686-.3232l.415.2314c-.0645.1094-.1318.2021-.2031.2803s-.1475.1416-.2295.1924c-.0811.0498-.1689.0869-.2637.1104s-.1973.0352-.3086.0352c-.3174,0-.5713-.1025-.7637-.3057-.1924-.2061-.2881-.4775-.2881-.8174,0-.3359.0928-.6084.2793-.8164.1875-.2051.4365-.3076.7471-.3076.3125,0,.5605.0996.7422.2988.1807.1982.2705.4727.2705.8232l-.002.1162ZM216.4048,355.1977c-.0684-.2617-.2334-.3926-.4951-.3926-.0596,0-.1162.0088-.168.0273-.0527.0176-.1006.0439-.1436.0781s-.0791.0752-.1104.123c-.0303.0488-.0537.1025-.0693.1641h.9863Z"/>
      <path class="cls-1" d="M217.5102,354.4203h.4912v.1963c.0947-.0986.1748-.166.2422-.2002.0713-.0371.1611-.0547.2686-.0547.2402,0,.4297.1045.5693.3145.1543-.21.3633-.3145.627-.3145.4795,0,.7188.29.7188.8711v1.3145h-.4932v-1.1816c0-.2031-.0254-.3477-.0742-.4316-.0518-.0859-.1348-.1289-.252-.1289-.1348,0-.2334.0508-.2959.1523-.0615.1025-.0928.2656-.0928.4912v1.0986h-.4932v-1.1748c0-.3789-.1094-.5674-.3271-.5674-.1387,0-.2393.0518-.3027.1543-.0635.1035-.0947.2666-.0947.4893v1.0986h-.4912v-2.127Z"/>
      <path class="cls-1" d="M222.3452,354.7827l-.4062.2168c-.0635-.1318-.1436-.1973-.2383-.1973-.0449,0-.083.0156-.1152.0449-.0322.0303-.0479.0684-.0479.1152,0,.0811.0947.1621.2832.2422.2607.1123.4365.2148.5264.3096.0908.0947.1357.2227.1357.3828,0,.2051-.0762.377-.2275.5146-.1465.1318-.3242.1973-.5322.1973-.3564,0-.6094-.1748-.7578-.5225l.4189-.1943c.0586.1025.1025.167.1338.1943.0596.0557.1309.083.2139.083.166,0,.249-.0752.249-.2266,0-.0879-.0645-.1689-.1924-.2451-.0498-.0244-.0986-.0488-.1484-.0723-.0498-.0225-.0996-.0469-.1504-.0713-.1436-.0703-.2432-.1406-.3018-.21-.0742-.0889-.1113-.2031-.1113-.3428,0-.1846.0635-.3379.1904-.459.1289-.1201.2861-.1807.4717-.1807.2715,0,.4736.1406.6064.4209Z"/>
    </g>
  </g>
</svg>