<?xml version="1.0" encoding="UTF-8"?>
<svg id="Silkscreen" xmlns="http://www.w3.org/2000/svg" width="142.5818mm" height="128.7798mm" viewBox="0 0 404.1689 365.0452">
  <defs>
    <style>
      .cls-1 {
        fill: #231f20;
      }
    </style>
  </defs>
  <g>
    <path class="cls-1" d="M176.5844,11.9877h-5.5166v3.8042h5.3213v2.2456h-5.3213v7.5366h-2.3896v-15.832h7.9062v2.2456Z"/>
    <path class="cls-1" d="M178.7075,15.5869h2.3076v.8921c.4229-.4443.7988-.7485,1.127-.9126.335-.1709.7314-.2563,1.1895-.2563.6084,0,1.2441.1982,1.9082.5947l-1.0566,2.1123c-.4375-.3145-.8652-.4717-1.2812-.4717-1.2588,0-1.8867.9502-1.8867,2.8506v5.1782h-2.3076v-9.9873Z"/>
    <path class="cls-1" d="M195.5132,21.124h-7.1562c.0605.8203.3281,1.4731.7988,1.9585.4727.4785,1.0771.7178,1.8154.7178.5742,0,1.0488-.1367,1.4248-.4102.3691-.2734.79-.7793,1.2617-1.5176l1.9482,1.0869c-.3008.5127-.6191.9521-.9541,1.3179s-.6934.666-1.0762.9023c-.3828.2354-.7969.4082-1.2402.5176-.4453.1094-.9268.1641-1.4463.1641-1.4902,0-2.6865-.4785-3.5889-1.4355-.9023-.9639-1.3535-2.2422-1.3535-3.835,0-1.5791.4375-2.8574,1.3125-3.835.8818-.9639,2.0508-1.4458,3.5068-1.4458,1.4697,0,2.6318.4683,3.4863,1.4048.8477.9297,1.2715,2.2183,1.2715,3.8657l-.0107.5435ZM193.145,19.2372c-.3213-1.2305-1.0967-1.8457-2.3271-1.8457-.2812,0-.5439.043-.79.1279-.2461.0859-.4697.209-.6719.3691-.2012.1611-.374.354-.5176.5796s-.2529.4819-.3281.769h4.6348Z"/>
    <path class="cls-1" d="M205.3979,8.2553h2.3174v17.3188h-2.3174v-1.0459c-.9092.8887-1.9375,1.333-3.0859,1.333-1.3682,0-2.502-.499-3.4043-1.4971-.8965-1.0186-1.3438-2.29-1.3438-3.8145,0-1.4902.4473-2.7344,1.3438-3.7324.8877-1.0049,2.0059-1.5073,3.3525-1.5073,1.1689,0,2.2148.4785,3.1377,1.4355v-8.4902ZM199.9223,20.5497c0,.957.2568,1.7363.7686,2.3379.5264.6084,1.1895.9126,1.9902.9126.8535,0,1.5439-.2939,2.0703-.8818.5264-.6084.79-1.3809.79-2.3174s-.2637-1.709-.79-2.3174c-.5264-.5947-1.209-.8921-2.0508-.8921-.793,0-1.4551.3008-1.9883.9023-.5273.6084-.79,1.3604-.79,2.2559Z"/>
    <path class="cls-1" d="M217.9897,8.2553h2.3174v17.3188h-2.3174v-1.0459c-.9092.8887-1.9375,1.333-3.0859,1.333-1.3682,0-2.502-.499-3.4043-1.4971-.8965-1.0186-1.3438-2.29-1.3438-3.8145,0-1.4902.4473-2.7344,1.3438-3.7324.8877-1.0049,2.0059-1.5073,3.3525-1.5073,1.1689,0,2.2148.4785,3.1377,1.4355v-8.4902ZM212.5141,20.5497c0,.957.2568,1.7363.7686,2.3379.5264.6084,1.1895.9126,1.9902.9126.8535,0,1.5439-.2939,2.0703-.8818.5264-.6084.79-1.3809.79-2.3174s-.2637-1.709-.79-2.3174c-.5264-.5947-1.209-.8921-2.0508-.8921-.793,0-1.4551.3008-1.9883.9023-.5273.6084-.79,1.3604-.79,2.2559Z"/>
    <path class="cls-1" d="M222.8706,11.434c0-.4033.1465-.752.4414-1.0459.293-.2939.6455-.4409,1.0557-.4409.417,0,.7725.147,1.0664.4409.2939.2871.4404.6392.4404,1.0562s-.1465.7725-.4404,1.0664c-.2871.2939-.6396.4409-1.0557.4409-.418,0-.7734-.147-1.0664-.4409-.2949-.2939-.4414-.6528-.4414-1.0767ZM225.5268,15.5869v9.9873h-2.3076v-9.9873h2.3076Z"/>
    <path class="cls-1" d="M237.5434,21.124h-7.1562c.0605.8203.3281,1.4731.7988,1.9585.4727.4785,1.0771.7178,1.8154.7178.5742,0,1.0488-.1367,1.4248-.4102.3691-.2734.79-.7793,1.2617-1.5176l1.9482,1.0869c-.3008.5127-.6191.9521-.9541,1.3179s-.6934.666-1.0762.9023c-.3828.2354-.7969.4082-1.2402.5176-.4453.1094-.9268.1641-1.4463.1641-1.4902,0-2.6865-.4785-3.5889-1.4355-.9023-.9639-1.3535-2.2422-1.3535-3.835,0-1.5791.4375-2.8574,1.3125-3.835.8818-.9639,2.0508-1.4458,3.5068-1.4458,1.4697,0,2.6318.4683,3.4863,1.4048.8477.9297,1.2715,2.2183,1.2715,3.8657l-.0107.5435ZM235.1753,19.2372c-.3213-1.2305-1.0967-1.8457-2.3271-1.8457-.2812,0-.5439.043-.79.1279-.2461.0859-.4697.209-.6719.3691-.2012.1611-.374.354-.5176.5796s-.2529.4819-.3281.769h4.6348Z"/>
  </g>
  <g>
    <path class="cls-1" d="M251.9087,49.3574v-2.6484c0-.5898-.3096-.9497-.8193-.9497-.6494,0-1.1592.52-1.1592,1.1294v2.4688h-.6494v-2.6484c0-.5898-.2803-.9497-.8398-.9497-.6396,0-1.1494.5298-1.1494,1.1396v2.4585h-.6494v-4.0776h.6494v.5498c.2402-.3901.7197-.6699,1.2393-.6699.6699,0,1.0596.29,1.2598.7397.2998-.4497.8789-.7397,1.3984-.7397.9697,0,1.3799.6499,1.3799,1.4692v2.7285h-.6602Z"/>
    <path class="cls-1" d="M253.7417,44.2402v-.9595h.6494v.9595h-.6494ZM253.7417,49.3574v-4.0776h.6494v4.0776h-.6494Z"/>
    <path class="cls-1" d="M258.6303,49.3574v-.6597c-.2207.3999-.7598.7798-1.4092.7798-1.1299,0-1.8594-.9995-1.8594-2.1592,0-1.2891.8398-2.1587,1.9092-2.1587.6094,0,1.1191.3501,1.3594.7798v-3.8779h.6494v7.2959h-.6494ZM257.3305,45.7695c-.7998,0-1.2988.6494-1.2988,1.5488,0,.8296.4492,1.5591,1.2891,1.5591.7998,0,1.3389-.7192,1.3389-1.5791,0-.7793-.5195-1.5288-1.3291-1.5288Z"/>
    <path class="cls-1" d="M260.5415,44.2402v-.9595h.6494v.9595h-.6494ZM260.5415,49.3574v-4.0776h.6494v4.0776h-.6494Z"/>
  </g>
  <g>
    <path class="cls-1" d="M141.2729,49.3569v-.3896c-.3594.2998-.8291.5098-1.3984.5098-.9102,0-1.4893-.5298-1.4893-1.3193,0-.9595.8594-1.4595,2.1689-1.4595h.7295v-.1797c0-.6396-.4102-.7896-1-.7896-.499,0-.8994.0801-1.2393.2598l-.2393-.4995c.3691-.2202.9189-.3301,1.4287-.3301,1.1191,0,1.6895.4297,1.6895,1.2295v2.9683h-.6504ZM141.2729,47.248h-.5488c-1.0898,0-1.6699.2598-1.6699.9097,0,.4897.4502.7295.9395.7295.5098,0,.9199-.1997,1.2793-.48v-1.1592Z"/>
    <path class="cls-1" d="M145.8237,49.3569v-.5898c-.2402.4199-.71.71-1.2793.71-.96,0-1.5-.5801-1.5-1.4893v-2.7085h.6504v2.5986c0,.5596.3398,1.0093.959,1.0093.7295,0,1.1699-.6797,1.1699-1.2495v-2.3584h.6494v4.0776h-.6494Z"/>
    <path class="cls-1" d="M150.7133,49.3569v-.6597c-.2207.3999-.7598.7798-1.4092.7798-1.1299,0-1.8594-.9995-1.8594-2.1592,0-1.2891.8398-2.1587,1.9092-2.1587.6094,0,1.1191.3501,1.3594.7798v-3.8779h.6494v7.2959h-.6494ZM149.4135,45.769c-.7998,0-1.2988.6494-1.2988,1.5488,0,.8296.4492,1.5591,1.2891,1.5591.7998,0,1.3389-.7192,1.3389-1.5791,0-.7793-.5195-1.5288-1.3291-1.5288Z"/>
    <path class="cls-1" d="M152.6245,44.2397v-.9595h.6494v.9595h-.6494ZM152.6245,49.3569v-4.0776h.6494v4.0776h-.6494Z"/>
    <path class="cls-1" d="M156.3637,49.477c-1.1992,0-2.1191-.8799-2.1191-2.1689,0-1.1992.8799-2.1489,2.1084-2.1489,1.2295,0,2.1396.9297,2.1396,2.1289,0,1.2495-.9199,2.189-2.1289,2.189ZM156.353,45.769c-.8496,0-1.4385.6597-1.4385,1.5391,0,.9194.5889,1.5688,1.4385,1.5688.9102,0,1.4697-.6694,1.4697-1.5688,0-.9194-.6094-1.5391-1.4697-1.5391Z"/>
  </g>
  <g>
    <g>
      <path class="cls-1" d="M185.6342,335.7016v10.333h3.541v1.708h-5.3584v-12.041h1.8174Z"/>
      <path class="cls-1" d="M189.4985,336.9877c0-.3066.1123-.5713.3359-.7949s.4912-.3359.8027-.3359c.3174,0,.5879.1123.8115.3359.2236.2178.335.4863.335.8027,0,.3174-.1113.5879-.335.8115-.2188.2236-.4863.335-.8037.335-.3164,0-.5869-.1113-.8105-.335s-.3359-.4961-.3359-.8193ZM191.519,340.1469v7.5957h-1.7549v-7.5957h1.7549Z"/>
      <path class="cls-1" d="M198.8549,340.4741v2.332c-.4004-.4883-.7588-.8242-1.0762-1.0059-.3115-.1875-.6777-.2812-1.0996-.2812-.6602,0-1.209.2314-1.6455.6943s-.6553,1.042-.6553,1.7393c0,.7119.2109,1.2969.6318,1.7549.4268.457.9697.6855,1.6299.6855.4219,0,.793-.0908,1.1152-.2725.3125-.1768.6787-.5195,1.0996-1.0293v2.3164c-.7119.3691-1.4238.5537-2.1367.5537-1.1748,0-2.1572-.3799-2.9473-1.1387-.791-.7646-1.1855-1.7139-1.1855-2.8467,0-1.1338.4004-2.0898,1.2002-2.8701.8008-.7803,1.7842-1.1699,2.9482-1.1699.749,0,1.4561.1797,2.1211.5381Z"/>
      <path class="cls-1" d="M200.1694,334.5707h1.7549v6.208c.624-.5615,1.3125-.8428,2.0664-.8428.8584,0,1.5439.2783,2.0586.835.4375.4834.6553,1.2549.6553,2.3154v4.6562h-1.7549v-4.4922c0-.6084-.1074-1.0488-.3232-1.3223-.2158-.2725-.5625-.4092-1.041-.4092-.6133,0-1.0449.1904-1.2949.5693-.2441.3848-.3662,1.0449-.3662,1.9814v3.6729h-1.7549v-13.1719Z"/>
      <path class="cls-1" d="M215.0473,344.3578h-5.4443c.0469.624.25,1.1201.6084,1.4893.3594.3643.8193.5459,1.3809.5459.4365,0,.7979-.1035,1.084-.3115.2803-.208.6006-.5928.959-1.1543l1.4814.8271c-.2285.3896-.4697.7236-.7246,1.002s-.5283.5068-.8193.6865c-.291.1787-.6055.3105-.9434.3936s-.7051.125-1.0996.125c-1.1338,0-2.043-.3643-2.7295-1.0918-.6865-.7334-1.0293-1.7061-1.0293-2.917,0-1.2012.332-2.1738.998-2.917.6709-.7334,1.5596-1.0996,2.667-1.0996,1.1182,0,2.002.3564,2.6514,1.0684.6445.707.9678,1.6875.9678,2.9404l-.0078.4131ZM213.2456,342.9233c-.2451-.9365-.835-1.4043-1.7705-1.4043-.2129,0-.4131.0332-.6006.0977-.1875.0654-.3574.1582-.5107.2812-.1533.1221-.2842.2686-.3936.4404-.1094.1709-.1924.3662-.25.585h3.5254Z"/>
      <path class="cls-1" d="M216.1665,340.1469h1.7627v.7012c.6133-.6084,1.3047-.9121,2.0742-.9121.8838,0,1.5732.2783,2.0664.835.4268.4727.6396,1.2451.6396,2.3154v4.6562h-1.7627v-4.2422c0-.749-.1035-1.2666-.3115-1.5527-.2031-.291-.5723-.4365-1.1074-.4365-.582,0-.9961.1924-1.2402.5771-.2393.3799-.3584,1.043-.3584,1.9893v3.665h-1.7627v-7.5957Z"/>
    </g>
    <g>
      <path class="cls-1" d="M185.4985,350.5121v.6533c-.1113-.1377-.2119-.2314-.3008-.2822-.0879-.0527-.1904-.0781-.3076-.0781-.1855,0-.3389.0645-.4609.1943-.1221.1289-.1836.292-.1836.4863,0,.2002.0586.3633.1768.4912.1191.1289.2715.1924.4561.1924.1182,0,.2227-.0254.3125-.0762.0879-.0498.1904-.1455.3076-.2881v.6484c-.1992.1035-.3984.1553-.5977.1553-.3291,0-.6045-.1064-.8252-.3193-.2217-.2139-.332-.4795-.332-.7969s.1113-.585.3359-.8037.499-.3271.8252-.3271c.21,0,.4082.0498.5938.1504Z"/>
      <path class="cls-1" d="M185.938,351.4682c0-.3066.1094-.5684.3291-.7832.2197-.2158.4883-.3232.8037-.3232.3174,0,.5869.1084.8086.3252.2178.2168.3271.4834.3271.7988,0,.3193-.1104.5859-.3301.8018-.2207.2139-.4922.3213-.8145.3213-.3184,0-.5859-.1094-.8008-.3281-.2158-.2148-.3232-.4863-.3232-.8125ZM186.4399,351.477c0,.2129.0566.3809.1699.5049.1172.125.2705.1875.4609.1875.1924,0,.3457-.0615.4609-.1855s.1729-.2891.1729-.4951c0-.207-.0576-.3721-.1729-.4961-.1162-.125-.2705-.1875-.4609-.1875-.1875,0-.3398.0625-.4561.1875s-.1748.2871-.1748.4844Z"/>
      <path class="cls-1" d="M188.7885,350.4203h.4912v.1963c.0947-.0986.1748-.166.2422-.2002.0713-.0371.1611-.0547.2686-.0547.2402,0,.4297.1045.5693.3145.1543-.21.3633-.3145.627-.3145.4795,0,.7188.29.7188.8711v1.3145h-.4932v-1.1816c0-.2031-.0254-.3477-.0742-.4316-.0518-.0859-.1348-.1289-.252-.1289-.1348,0-.2334.0508-.2959.1523-.0615.1025-.0928.2656-.0928.4912v1.0986h-.4932v-1.1748c0-.3789-.1094-.5674-.3271-.5674-.1387,0-.2393.0518-.3027.1543-.0635.1035-.0947.2666-.0947.4893v1.0986h-.4912v-2.127Z"/>
      <path class="cls-1" d="M192.3891,350.4203h.4912v.1963c.0947-.0986.1748-.166.2422-.2002.0713-.0371.1611-.0547.2686-.0547.2402,0,.4297.1045.5693.3145.1543-.21.3633-.3145.627-.3145.4795,0,.7188.29.7188.8711v1.3145h-.4932v-1.1816c0-.2031-.0254-.3477-.0742-.4316-.0518-.0859-.1348-.1289-.252-.1289-.1348,0-.2334.0508-.2959.1523-.0615.1025-.0928.2656-.0928.4912v1.0986h-.4932v-1.1748c0-.3789-.1094-.5674-.3271-.5674-.1387,0-.2393.0518-.3027.1543-.0635.1035-.0947.2666-.0947.4893v1.0986h-.4912v-2.127Z"/>
      <path class="cls-1" d="M196.4799,350.4203v1.2207c0,.3525.1387.5283.417.5283.2773,0,.417-.1758.417-.5283v-1.2207h.4912v1.2314c0,.1709-.0215.3174-.0635.4414-.041.1104-.1113.21-.2119.2988-.166.1445-.377.2168-.6328.2168-.2549,0-.4658-.0723-.6309-.2168-.1025-.0889-.1748-.1885-.2168-.2988-.041-.0986-.0605-.2461-.0605-.4414v-1.2314h.4912Z"/>
      <path class="cls-1" d="M198.4887,350.4203h.4932v.1963c.1719-.1699.3652-.2549.5811-.2549.2471,0,.4404.0771.5781.2334.1191.1328.1797.3486.1797.6484v1.3037h-.4941v-1.1875c0-.21-.0293-.3545-.0869-.4346-.0566-.082-.1602-.123-.3105-.123-.1631,0-.2783.0547-.3467.1621-.0674.1064-.1006.292-.1006.5566v1.0264h-.4932v-2.127Z"/>
      <path class="cls-1" d="M200.9282,349.5356c0-.085.0322-.1602.0947-.2227s.1377-.0938.2246-.0938c.0889,0,.1641.0312.2275.0938.0625.0615.0938.1367.0938.2256s-.0312.1641-.0938.2266c-.0615.0625-.1367.0938-.2256.0938s-.1641-.0312-.2266-.0938-.0947-.1387-.0947-.2295ZM201.4946,350.4203v2.127h-.4912v-2.127h.4912Z"/>
      <path class="cls-1" d="M202.686,350.8793v1.668h-.4912v-1.668h-.209v-.459h.209v-.7793h.4912v.7793h.3828v.459h-.3828Z"/>
      <path class="cls-1" d="M204.1352,352.1518l-.9561-1.7314h.5693l.6514,1.2227.6064-1.2227h.5547l-1.6943,3.2842h-.5615l.8301-1.5527Z"/>
      <path class="cls-1" d="M208.6362,350.7827l-.4062.2168c-.0635-.1318-.1436-.1973-.2383-.1973-.0449,0-.083.0156-.1152.0449-.0322.0303-.0479.0684-.0479.1152,0,.0811.0947.1621.2832.2422.2607.1123.4365.2148.5264.3096.0908.0947.1357.2227.1357.3828,0,.2051-.0762.377-.2275.5146-.1465.1318-.3242.1973-.5322.1973-.3564,0-.6094-.1748-.7578-.5225l.4189-.1943c.0586.1025.1025.167.1338.1943.0596.0557.1309.083.2139.083.166,0,.249-.0752.249-.2266,0-.0879-.0645-.1689-.1924-.2451-.0498-.0244-.0986-.0488-.1484-.0723-.0498-.0225-.0996-.0469-.1504-.0713-.1436-.0703-.2432-.1406-.3018-.21-.0742-.0889-.1113-.2031-.1113-.3428,0-.1846.0635-.3379.1904-.459.1289-.1201.2861-.1807.4717-.1807.2715,0,.4736.1406.6064.4209Z"/>
      <path class="cls-1" d="M209.9477,352.1518l-.9561-1.7314h.5693l.6514,1.2227.6064-1.2227h.5547l-1.6943,3.2842h-.5615l.8301-1.5527Z"/>
      <path class="cls-1" d="M213.0063,350.7827l-.4062.2168c-.0635-.1318-.1436-.1973-.2383-.1973-.0449,0-.083.0156-.1152.0449-.0322.0303-.0479.0684-.0479.1152,0,.0811.0947.1621.2832.2422.2607.1123.4365.2148.5264.3096.0908.0947.1357.2227.1357.3828,0,.2051-.0762.377-.2275.5146-.1465.1318-.3242.1973-.5322.1973-.3564,0-.6094-.1748-.7578-.5225l.4189-.1943c.0586.1025.1025.167.1338.1943.0596.0557.1309.083.2139.083.166,0,.249-.0752.249-.2266,0-.0879-.0645-.1689-.1924-.2451-.0498-.0244-.0986-.0488-.1484-.0723-.0498-.0225-.0996-.0469-.1504-.0713-.1436-.0703-.2432-.1406-.3018-.21-.0742-.0889-.1113-.2031-.1113-.3428,0-.1846.0635-.3379.1904-.459.1289-.1201.2861-.1807.4717-.1807.2715,0,.4736.1406.6064.4209Z"/>
      <path class="cls-1" d="M214.1538,350.8793v1.668h-.4912v-1.668h-.209v-.459h.209v-.7793h.4912v.7793h.3828v.459h-.3828Z"/>
      <path class="cls-1" d="M216.9096,351.6h-1.5244c.0137.1738.0703.3135.1709.417.0996.1016.2285.1523.3857.1523.123,0,.2236-.0293.3037-.0869.0791-.0586.168-.166.2686-.3232l.415.2314c-.0645.1094-.1318.2021-.2031.2803s-.1475.1416-.2295.1924c-.0811.0498-.1689.0869-.2637.1104s-.1973.0352-.3086.0352c-.3174,0-.5713-.1025-.7637-.3057-.1924-.2061-.2881-.4775-.2881-.8174,0-.3359.0928-.6084.2793-.8164.1875-.2051.4365-.3076.7471-.3076.3125,0,.5605.0996.7422.2988.1807.1982.2705.4727.2705.8232l-.002.1162ZM216.4048,351.1977c-.0684-.2617-.2334-.3926-.4951-.3926-.0596,0-.1162.0088-.168.0273-.0527.0176-.1006.0439-.1436.0781s-.0791.0752-.1104.123c-.0303.0488-.0537.1025-.0693.1641h.9863Z"/>
      <path class="cls-1" d="M217.5102,350.4203h.4912v.1963c.0947-.0986.1748-.166.2422-.2002.0713-.0371.1611-.0547.2686-.0547.2402,0,.4297.1045.5693.3145.1543-.21.3633-.3145.627-.3145.4795,0,.7188.29.7188.8711v1.3145h-.4932v-1.1816c0-.2031-.0254-.3477-.0742-.4316-.0518-.0859-.1348-.1289-.252-.1289-.1348,0-.2334.0508-.2959.1523-.0615.1025-.0928.2656-.0928.4912v1.0986h-.4932v-1.1748c0-.3789-.1094-.5674-.3271-.5674-.1387,0-.2393.0518-.3027.1543-.0635.1035-.0947.2666-.0947.4893v1.0986h-.4912v-2.127Z"/>
      <path class="cls-1" d="M222.3452,350.7827l-.4062.2168c-.0635-.1318-.1436-.1973-.2383-.1973-.0449,0-.083.0156-.1152.0449-.0322.0303-.0479.0684-.0479.1152,0,.0811.0947.1621.2832.2422.2607.1123.4365.2148.5264.3096.0908.0947.1357.2227.1357.3828,0,.2051-.0762.377-.2275.5146-.1465.1318-.3242.1973-.5322.1973-.3564,0-.6094-.1748-.7578-.5225l.4189-.1943c.0586.1025.1025.167.1338.1943.0596.0557.1309.083.2139.083.166,0,.249-.0752.249-.2266,0-.0879-.0645-.1689-.1924-.2451-.0498-.0244-.0986-.0488-.1484-.0723-.0498-.0225-.0996-.0469-.1504-.0713-.1436-.0703-.2432-.1406-.3018-.21-.0742-.0889-.1113-.2031-.1113-.3428,0-.1846.0635-.3379.1904-.459.1289-.1201.2861-.1807.4717-.1807.2715,0,.4736.1406.6064.4209Z"/>
    </g>
  </g>
</svg>