%TF.GenerationSoftware,KiCad,Pcbnew,9.0.6*%
%TF.CreationDate,2025-12-17T17:18:40-05:00*%
%TF.ProjectId,active-vactrol-vca-panel,61637469-7665-42d7-9661-6374726f6c2d,rev?*%
%TF.SameCoordinates,Original*%
%TF.FileFunction,Legend,Bot*%
%TF.FilePolarity,Positive*%
%FSLAX46Y46*%
G04 Gerber Fmt 4.6, Leading zero omitted, Abs format (unit mm)*
G04 Created by KiCad (PCBNEW 9.0.6) date 2025-12-17 17:18:40*
%MOMM*%
%LPD*%
G01*
G04 APERTURE LIST*
G04 Aperture macros list*
%AMRoundRect*
0 Rectangle with rounded corners*
0 $1 Rounding radius*
0 $2 $3 $4 $5 $6 $7 $8 $9 X,Y pos of 4 corners*
0 Add a 4 corners polygon primitive as box body*
4,1,4,$2,$3,$4,$5,$6,$7,$8,$9,$2,$3,0*
0 Add four circle primitives for the rounded corners*
1,1,$1+$1,$2,$3*
1,1,$1+$1,$4,$5*
1,1,$1+$1,$6,$7*
1,1,$1+$1,$8,$9*
0 Add four rect primitives between the rounded corners*
20,1,$1+$1,$2,$3,$4,$5,0*
20,1,$1+$1,$4,$5,$6,$7,0*
20,1,$1+$1,$6,$7,$8,$9,0*
20,1,$1+$1,$8,$9,$2,$3,0*%
G04 Aperture macros list end*
%ADD10C,0.300000*%
%ADD11C,6.400000*%
%ADD12RoundRect,1.600000X-0.400000X-0.000010X0.400000X-0.000010X0.400000X0.000010X-0.400000X0.000010X0*%
%ADD13C,7.400000*%
G04 APERTURE END LIST*
D10*
G36*
X113861898Y-101571161D02*
G01*
X114599145Y-101912857D01*
X113861898Y-102260048D01*
X113861898Y-102825593D01*
X115300000Y-102077965D01*
X115300000Y-101739200D01*
X113861898Y-101000000D01*
X113861898Y-101571161D01*
G37*
G36*
X113650872Y-103567480D02*
G01*
X113650872Y-103258757D01*
X113181926Y-103258757D01*
X113181926Y-104114584D01*
X115300000Y-104114584D01*
X115300000Y-103567480D01*
X113650872Y-103567480D01*
G37*
G36*
X117252550Y-102739009D02*
G01*
X117147887Y-102635151D01*
X117076029Y-102523537D01*
X117033251Y-102402153D01*
X117018688Y-102267742D01*
X117030164Y-102147792D01*
X117063750Y-102039131D01*
X117117337Y-101940748D01*
X117186360Y-101858269D01*
X117270573Y-101791081D01*
X117371008Y-101739078D01*
X117481249Y-101706663D01*
X117602062Y-101695603D01*
X117725228Y-101706719D01*
X117835924Y-101739078D01*
X117936524Y-101791288D01*
X118022037Y-101859612D01*
X118092290Y-101943155D01*
X118145990Y-102040474D01*
X118179611Y-102147613D01*
X118191053Y-102264933D01*
X118177511Y-102391021D01*
X118136968Y-102510506D01*
X118067692Y-102625923D01*
X117965617Y-102739009D01*
X118616280Y-102739009D01*
X118635819Y-102683199D01*
X118675449Y-102558618D01*
X118701521Y-102448115D01*
X118717329Y-102339173D01*
X118722526Y-102232693D01*
X118713278Y-102088932D01*
X118685733Y-101949938D01*
X118639727Y-101814549D01*
X118576743Y-101686088D01*
X118499210Y-101568938D01*
X118406598Y-101462107D01*
X118301008Y-101367842D01*
X118182546Y-101286350D01*
X118050003Y-101217376D01*
X117909808Y-101166540D01*
X117760146Y-101135605D01*
X117599253Y-101125052D01*
X117438322Y-101135485D01*
X117289623Y-101165976D01*
X117151311Y-101215910D01*
X117020671Y-101284092D01*
X116904086Y-101365120D01*
X116800334Y-101459298D01*
X116709498Y-101566006D01*
X116632900Y-101683587D01*
X116570136Y-101813084D01*
X116524101Y-101949455D01*
X116496495Y-102089869D01*
X116487215Y-102235502D01*
X116493888Y-102360505D01*
X116513838Y-102483042D01*
X116546875Y-102605355D01*
X116596270Y-102739009D01*
X117252550Y-102739009D01*
G37*
G36*
X118044908Y-102990692D02*
G01*
X118151653Y-103012338D01*
X118249916Y-103047609D01*
X118342339Y-103096279D01*
X118424887Y-103155342D01*
X118498433Y-103225174D01*
X118561677Y-103304477D01*
X118615028Y-103394017D01*
X118658534Y-103494940D01*
X118700306Y-103656442D01*
X118714710Y-103836270D01*
X118700338Y-104019000D01*
X118658534Y-104184438D01*
X118614997Y-104288290D01*
X118562054Y-104379652D01*
X118499776Y-104459822D01*
X118387723Y-104562075D01*
X118255533Y-104640195D01*
X118159070Y-104676374D01*
X118055154Y-104698458D01*
X117942414Y-104706018D01*
X117829530Y-104698616D01*
X117725566Y-104677010D01*
X117629173Y-104641660D01*
X117538801Y-104592877D01*
X117457653Y-104532932D01*
X117384930Y-104461287D01*
X117294420Y-104336147D01*
X117224829Y-104187247D01*
X117181928Y-104024519D01*
X117167197Y-103844696D01*
X117610488Y-103844696D01*
X117616851Y-103910094D01*
X117635767Y-103971580D01*
X117666176Y-104027720D01*
X117706109Y-104074895D01*
X117754673Y-104113806D01*
X117811622Y-104144748D01*
X117873649Y-104164590D01*
X117939483Y-104171249D01*
X118007860Y-104164520D01*
X118070275Y-104144748D01*
X118127224Y-104113806D01*
X118175788Y-104074895D01*
X118215721Y-104027720D01*
X118246130Y-103971580D01*
X118265046Y-103910094D01*
X118271409Y-103844696D01*
X118265049Y-103779281D01*
X118246130Y-103717690D01*
X118215735Y-103661630D01*
X118175788Y-103614375D01*
X118127237Y-103575534D01*
X118070275Y-103544521D01*
X118007493Y-103524815D01*
X117936674Y-103518021D01*
X117871050Y-103524713D01*
X117810279Y-103544521D01*
X117754448Y-103575454D01*
X117706109Y-103614375D01*
X117666163Y-103661630D01*
X117635767Y-103717690D01*
X117616848Y-103779281D01*
X117610488Y-103844696D01*
X117167197Y-103844696D01*
X117167187Y-103844574D01*
X117173984Y-103720772D01*
X117193823Y-103606034D01*
X117226172Y-103499214D01*
X117296966Y-103350496D01*
X117387739Y-103226517D01*
X117499378Y-103124478D01*
X117629173Y-103047609D01*
X117723632Y-103012013D01*
X117822954Y-102990530D01*
X117928248Y-102983251D01*
X118044908Y-102990692D01*
G37*
G36*
X119379050Y-105505792D02*
G01*
X118521758Y-105505792D01*
X118602904Y-105600934D01*
X118660112Y-105705635D01*
X118694899Y-105821911D01*
X118706894Y-105952634D01*
X118691909Y-106101793D01*
X118647909Y-106237421D01*
X118577442Y-106360187D01*
X118484877Y-106465055D01*
X118373061Y-106550546D01*
X118243199Y-106615875D01*
X118101254Y-106656463D01*
X117945223Y-106670341D01*
X117788712Y-106656517D01*
X117644438Y-106615875D01*
X117512223Y-106550064D01*
X117399951Y-106463590D01*
X117307012Y-106357454D01*
X117235453Y-106233269D01*
X117202056Y-106143162D01*
X117181857Y-106048098D01*
X117175003Y-105947016D01*
X117188296Y-105814026D01*
X117612686Y-105814026D01*
X117619468Y-105881438D01*
X117639431Y-105943108D01*
X117670905Y-105999196D01*
X117711238Y-106047156D01*
X117760009Y-106086278D01*
X117816873Y-106115177D01*
X117878926Y-106132887D01*
X117945223Y-106138869D01*
X118008554Y-106132248D01*
X118069176Y-106112369D01*
X118125036Y-106081683D01*
X118173468Y-106043004D01*
X118213521Y-105996305D01*
X118243932Y-105941643D01*
X118262813Y-105881639D01*
X118269211Y-105816591D01*
X118262497Y-105751613D01*
X118242466Y-105690317D01*
X118211272Y-105634112D01*
X118172002Y-105586147D01*
X118124626Y-105546769D01*
X118069176Y-105516782D01*
X118008249Y-105498081D01*
X117942414Y-105491748D01*
X117876233Y-105498354D01*
X117814064Y-105518004D01*
X117757000Y-105548808D01*
X117708429Y-105587491D01*
X117668390Y-105634274D01*
X117638087Y-105688852D01*
X117619111Y-105748966D01*
X117612686Y-105814026D01*
X117188296Y-105814026D01*
X117188548Y-105811505D01*
X117227382Y-105695201D01*
X117290849Y-105594142D01*
X117381022Y-105505792D01*
X117221898Y-105505792D01*
X117221898Y-104997766D01*
X119379050Y-104997766D01*
X119379050Y-105505792D01*
G37*
G36*
X118464605Y-107409665D02*
G01*
X117221898Y-106715282D01*
X117221898Y-107303297D01*
X117959633Y-107686880D01*
X117221898Y-108059228D01*
X117221898Y-108641625D01*
X119379050Y-107488066D01*
X119379050Y-106919713D01*
X118464605Y-107409665D01*
G37*
G36*
X117221898Y-108811863D02*
G01*
X117221898Y-109319888D01*
X117458935Y-109319888D01*
X117377515Y-109379246D01*
X117311703Y-109445268D01*
X117259877Y-109518335D01*
X117222042Y-109599232D01*
X117198729Y-109689941D01*
X117190635Y-109792498D01*
X117190635Y-109835851D01*
X117196374Y-109890439D01*
X117684249Y-109890439D01*
X117646644Y-109786071D01*
X117633935Y-109672208D01*
X117646832Y-109559472D01*
X117682311Y-109473532D01*
X117738838Y-109407937D01*
X117813794Y-109361513D01*
X117913441Y-109331136D01*
X118044996Y-109319888D01*
X118660000Y-109319888D01*
X118660000Y-108811863D01*
X117221898Y-108811863D01*
G37*
G36*
X117221898Y-110623168D02*
G01*
X118660000Y-110623168D01*
X118660000Y-110115143D01*
X117221898Y-110115143D01*
X117221898Y-110623168D01*
G37*
G36*
X116670886Y-110083879D02*
G01*
X116613630Y-110089525D01*
X116560488Y-110106228D01*
X116511746Y-110132923D01*
X116469508Y-110167777D01*
X116434584Y-110210028D01*
X116407958Y-110258757D01*
X116391250Y-110311987D01*
X116385610Y-110369155D01*
X116391255Y-110426411D01*
X116407958Y-110479553D01*
X116434589Y-110528260D01*
X116469508Y-110570411D01*
X116511759Y-110605335D01*
X116560488Y-110631960D01*
X116613635Y-110648756D01*
X116670886Y-110654431D01*
X116728154Y-110648759D01*
X116781406Y-110631960D01*
X116830032Y-110605343D01*
X116872264Y-110570411D01*
X116907112Y-110528273D01*
X116933813Y-110479553D01*
X116950516Y-110426411D01*
X116956161Y-110369155D01*
X116950522Y-110311987D01*
X116933813Y-110258757D01*
X116907118Y-110210015D01*
X116872264Y-110167777D01*
X116830045Y-110132916D01*
X116781406Y-110106228D01*
X116728159Y-110089522D01*
X116670886Y-110083879D01*
G37*
G36*
X118116088Y-110927666D02*
G01*
X118254923Y-110966085D01*
X118380096Y-111028967D01*
X118484389Y-111111653D01*
X118569211Y-111213764D01*
X118633621Y-111334403D01*
X118673409Y-111467832D01*
X118687110Y-111617358D01*
X118677219Y-111746074D01*
X118644979Y-111858182D01*
X118587337Y-111963206D01*
X118498799Y-112071039D01*
X118636552Y-112071039D01*
X118740058Y-112060530D01*
X118821820Y-112031399D01*
X118886657Y-111985188D01*
X118935043Y-111922563D01*
X118965508Y-111842297D01*
X118976538Y-111739113D01*
X118966293Y-111647920D01*
X118938518Y-111580681D01*
X118894898Y-111531398D01*
X118833290Y-111497069D01*
X118833290Y-110928227D01*
X118946536Y-110961802D01*
X119050666Y-111017864D01*
X119143154Y-111093873D01*
X119224445Y-111190177D01*
X119289809Y-111302130D01*
X119340826Y-111435397D01*
X119372056Y-111579935D01*
X119382958Y-111743876D01*
X119374282Y-111889158D01*
X119349253Y-112019870D01*
X119308502Y-112142414D01*
X119256441Y-112248237D01*
X119191325Y-112342742D01*
X119117100Y-112420673D01*
X119032955Y-112483251D01*
X118944298Y-112525942D01*
X118867897Y-112547718D01*
X118775404Y-112565020D01*
X118676758Y-112575340D01*
X118558883Y-112579064D01*
X117214570Y-112579064D01*
X117214570Y-112071039D01*
X117367344Y-112071039D01*
X117282178Y-111977810D01*
X117222890Y-111876699D01*
X117187611Y-111767079D01*
X117604870Y-111767079D01*
X117611171Y-111830642D01*
X117630150Y-111892254D01*
X117660506Y-111949115D01*
X117700491Y-111997766D01*
X117748853Y-112038166D01*
X117804539Y-112069574D01*
X117865693Y-112089499D01*
X117933743Y-112096318D01*
X117999566Y-112089600D01*
X118061605Y-112069574D01*
X118118545Y-112038391D01*
X118167117Y-111999232D01*
X118206941Y-111951689D01*
X118237337Y-111895062D01*
X118256250Y-111833076D01*
X118262616Y-111767079D01*
X118256192Y-111698733D01*
X118237337Y-111636287D01*
X118206949Y-111579763D01*
X118167117Y-111532240D01*
X118118494Y-111493378D01*
X118061605Y-111463241D01*
X117999263Y-111444389D01*
X117930935Y-111437962D01*
X117865322Y-111444713D01*
X117804539Y-111464706D01*
X117749089Y-111496154D01*
X117701835Y-111536392D01*
X117662623Y-111584756D01*
X117631615Y-111640561D01*
X117611619Y-111701449D01*
X117604870Y-111767079D01*
X117187611Y-111767079D01*
X117187217Y-111765856D01*
X117175003Y-111642515D01*
X117181913Y-111539242D01*
X117202193Y-111442983D01*
X117235575Y-111352599D01*
X117307616Y-111228396D01*
X117401782Y-111122889D01*
X117515481Y-111037046D01*
X117649567Y-110970237D01*
X117796127Y-110928575D01*
X117957801Y-110914305D01*
X118116088Y-110927666D01*
G37*
G36*
X116330900Y-112919050D02*
G01*
X116330900Y-113427076D01*
X117405080Y-113427076D01*
X117325468Y-113500885D01*
X117269973Y-113570554D01*
X117234354Y-113637002D01*
X117202172Y-113749176D01*
X117190635Y-113886374D01*
X117201317Y-114021823D01*
X117231038Y-114132408D01*
X117277613Y-114222818D01*
X117340722Y-114296580D01*
X117419280Y-114355487D01*
X117511171Y-114398594D01*
X117618952Y-114425715D01*
X117745921Y-114435310D01*
X118660000Y-114435310D01*
X118660000Y-113927285D01*
X117935453Y-113927285D01*
X117831663Y-113922552D01*
X117759354Y-113910432D01*
X117698179Y-113887154D01*
X117655795Y-113854501D01*
X117623313Y-113807006D01*
X117603784Y-113753610D01*
X117597055Y-113692568D01*
X117606402Y-113610222D01*
X117632355Y-113545925D01*
X117673991Y-113495464D01*
X117729191Y-113459064D01*
X117800812Y-113435646D01*
X117893565Y-113427076D01*
X118660000Y-113427076D01*
X118660000Y-112919050D01*
X116330900Y-112919050D01*
G37*
G36*
X117643949Y-115339986D02*
G01*
X118660000Y-115339986D01*
X118660000Y-114831960D01*
X117643949Y-114831960D01*
X117643949Y-114667829D01*
X117221898Y-114667829D01*
X117221898Y-114831960D01*
X116792030Y-114831960D01*
X116792030Y-115339986D01*
X117221898Y-115339986D01*
X117221898Y-115629169D01*
X117643949Y-115629169D01*
X117643949Y-115339986D01*
G37*
G36*
X118660000Y-118374459D02*
G01*
X118660000Y-116675505D01*
X118114239Y-117197330D01*
X117904055Y-117390442D01*
X117747264Y-117520952D01*
X117600784Y-117628369D01*
X117492763Y-117695341D01*
X117392072Y-117744444D01*
X117323991Y-117766538D01*
X117214326Y-117780460D01*
X117121514Y-117765317D01*
X117078837Y-117746291D01*
X117041402Y-117719766D01*
X117009842Y-117686464D01*
X116985104Y-117646615D01*
X116969520Y-117601313D01*
X116963977Y-117545987D01*
X116972618Y-117475760D01*
X116997011Y-117419364D01*
X117037006Y-117373551D01*
X117088719Y-117339583D01*
X117148793Y-117318786D01*
X117219455Y-117311514D01*
X117309337Y-117319818D01*
X117309337Y-116717515D01*
X117187477Y-116724492D01*
X117076108Y-116744746D01*
X116973869Y-116777599D01*
X116876907Y-116823678D01*
X116790538Y-116880024D01*
X116713750Y-116946859D01*
X116646956Y-117023645D01*
X116591119Y-117109542D01*
X116545956Y-117205512D01*
X116513754Y-117306776D01*
X116493993Y-117415962D01*
X116487215Y-117534263D01*
X116501562Y-117705695D01*
X116543269Y-117860083D01*
X116611231Y-118000795D01*
X116700195Y-118118859D01*
X116810220Y-118215815D01*
X116939797Y-118289462D01*
X117033993Y-118323393D01*
X117134043Y-118343997D01*
X117241071Y-118351011D01*
X117355049Y-118342588D01*
X117461516Y-118317795D01*
X117561884Y-118276762D01*
X117655551Y-118221027D01*
X117755648Y-118143298D01*
X117863157Y-118039846D01*
X118191053Y-117689480D01*
X118191053Y-118374459D01*
X118660000Y-118374459D01*
G37*
G36*
X117770753Y-118565824D02*
G01*
X117923065Y-118588059D01*
X118061971Y-118623831D01*
X118195747Y-118674929D01*
X118312965Y-118736661D01*
X118415390Y-118808722D01*
X118506752Y-118893783D01*
X118582157Y-118987839D01*
X118642658Y-119091678D01*
X118686591Y-119203376D01*
X118713364Y-119323715D01*
X118722526Y-119454378D01*
X118713427Y-119583184D01*
X118686712Y-119703082D01*
X118642658Y-119815614D01*
X118582019Y-119920305D01*
X118506596Y-120014330D01*
X118415390Y-120098569D01*
X118313054Y-120169843D01*
X118195839Y-120231135D01*
X118061971Y-120282117D01*
X117923059Y-120317956D01*
X117770749Y-120340233D01*
X117603405Y-120347941D01*
X117436061Y-120340233D01*
X117283750Y-120317956D01*
X117144839Y-120282117D01*
X117011008Y-120231074D01*
X116894310Y-120169775D01*
X116792885Y-120098569D01*
X116702592Y-120014418D01*
X116627676Y-119920395D01*
X116567205Y-119815614D01*
X116523081Y-119703076D01*
X116496327Y-119583179D01*
X116487215Y-119454378D01*
X116971793Y-119454378D01*
X116983339Y-119528638D01*
X117018321Y-119597138D01*
X117072686Y-119655918D01*
X117148014Y-119706559D01*
X117236558Y-119744953D01*
X117348293Y-119775802D01*
X117468236Y-119794347D01*
X117603405Y-119800837D01*
X117741016Y-119794291D01*
X117860104Y-119775802D01*
X117970651Y-119745080D01*
X118060261Y-119706559D01*
X118136741Y-119655835D01*
X118191420Y-119597138D01*
X118226402Y-119528638D01*
X118237948Y-119454378D01*
X118226263Y-119378012D01*
X118191420Y-119310275D01*
X118136919Y-119252372D01*
X118060261Y-119200732D01*
X117970552Y-119161188D01*
X117860104Y-119130146D01*
X117741021Y-119111748D01*
X117603405Y-119105233D01*
X117468231Y-119111692D01*
X117348293Y-119130146D01*
X117236659Y-119161316D01*
X117148014Y-119200732D01*
X117072509Y-119252289D01*
X117018321Y-119310275D01*
X116983478Y-119378012D01*
X116971793Y-119454378D01*
X116487215Y-119454378D01*
X116496390Y-119323721D01*
X116523203Y-119203383D01*
X116567205Y-119091678D01*
X116627538Y-118987750D01*
X116702436Y-118893696D01*
X116792885Y-118808722D01*
X116894400Y-118736728D01*
X117011100Y-118674989D01*
X117144839Y-118623831D01*
X117283745Y-118588059D01*
X117436057Y-118565824D01*
X117603405Y-118558129D01*
X117770753Y-118565824D01*
G37*
G36*
X118660000Y-122180739D02*
G01*
X118660000Y-120481786D01*
X118114239Y-121003611D01*
X117904055Y-121196723D01*
X117747264Y-121327233D01*
X117600784Y-121434650D01*
X117492763Y-121501622D01*
X117392072Y-121550725D01*
X117323991Y-121572819D01*
X117214326Y-121586741D01*
X117121514Y-121571598D01*
X117078837Y-121552571D01*
X117041402Y-121526046D01*
X117009842Y-121492745D01*
X116985104Y-121452896D01*
X116969520Y-121407593D01*
X116963977Y-121352267D01*
X116972618Y-121282041D01*
X116997011Y-121225644D01*
X117037006Y-121179832D01*
X117088719Y-121145863D01*
X117148793Y-121125067D01*
X117219455Y-121117794D01*
X117309337Y-121126099D01*
X117309337Y-120523796D01*
X117187477Y-120530773D01*
X117076108Y-120551026D01*
X116973869Y-120583879D01*
X116876907Y-120629959D01*
X116790538Y-120686305D01*
X116713750Y-120753140D01*
X116646956Y-120829926D01*
X116591119Y-120915822D01*
X116545956Y-121011793D01*
X116513754Y-121113057D01*
X116493993Y-121222242D01*
X116487215Y-121340544D01*
X116501562Y-121511976D01*
X116543269Y-121666364D01*
X116611231Y-121807075D01*
X116700195Y-121925139D01*
X116810220Y-122022095D01*
X116939797Y-122095743D01*
X117033993Y-122129674D01*
X117134043Y-122150278D01*
X117241071Y-122157292D01*
X117355049Y-122148868D01*
X117461516Y-122124076D01*
X117561884Y-122083042D01*
X117655551Y-122027308D01*
X117755648Y-121949578D01*
X117863157Y-121846127D01*
X118191053Y-121495760D01*
X118191053Y-122180739D01*
X118660000Y-122180739D01*
G37*
G36*
X117018688Y-123876029D02*
G01*
X117018688Y-123147208D01*
X117249986Y-123110816D01*
X117240216Y-123203018D01*
X117236064Y-123289480D01*
X117250330Y-123444346D01*
X117292117Y-123585380D01*
X117359171Y-123713328D01*
X117445990Y-123819853D01*
X117552778Y-123906435D01*
X117681196Y-123973360D01*
X117822946Y-124014901D01*
X117980638Y-124029169D01*
X118093067Y-124021871D01*
X118195232Y-124000697D01*
X118288628Y-123966277D01*
X118375778Y-123918448D01*
X118453412Y-123859454D01*
X118522369Y-123788712D01*
X118580504Y-123708693D01*
X118630013Y-123616053D01*
X118670624Y-123509176D01*
X118709055Y-123338729D01*
X118722526Y-123143300D01*
X118710644Y-122956192D01*
X118675753Y-122781210D01*
X118616781Y-122614704D01*
X118532993Y-122458443D01*
X118016175Y-122539654D01*
X118123431Y-122683695D01*
X118198747Y-122825174D01*
X118246458Y-122970597D01*
X118261395Y-123102512D01*
X118250413Y-123211013D01*
X118219776Y-123298083D01*
X118170903Y-123368370D01*
X118105276Y-123423116D01*
X118031453Y-123455393D01*
X117946566Y-123466434D01*
X117871885Y-123458114D01*
X117806218Y-123433903D01*
X117747458Y-123393505D01*
X117694385Y-123334787D01*
X117642801Y-123242497D01*
X117610039Y-123129438D01*
X117598276Y-122990526D01*
X117603397Y-122894808D01*
X117619159Y-122794399D01*
X117645788Y-122694887D01*
X117684616Y-122595708D01*
X116549741Y-122772051D01*
X116549741Y-123876029D01*
X117018688Y-123876029D01*
G37*
G36*
X118120711Y-124543300D02*
G01*
X118120711Y-125019207D01*
X119050788Y-124504099D01*
X119050788Y-124179256D01*
X118120711Y-124543300D01*
G37*
G36*
X116545833Y-126881926D02*
G01*
X118191053Y-126881926D01*
X118191053Y-127542358D01*
X118660000Y-127542358D01*
X118660000Y-126334822D01*
X116545833Y-126334822D01*
X116545833Y-126881926D01*
G37*
G36*
X117221898Y-128284856D02*
G01*
X118660000Y-128284856D01*
X118660000Y-127776831D01*
X117221898Y-127776831D01*
X117221898Y-128284856D01*
G37*
G36*
X116670886Y-127745568D02*
G01*
X116613630Y-127751213D01*
X116560488Y-127767916D01*
X116511746Y-127794612D01*
X116469508Y-127829466D01*
X116434584Y-127871717D01*
X116407958Y-127920446D01*
X116391250Y-127973676D01*
X116385610Y-128030844D01*
X116391255Y-128088100D01*
X116407958Y-128141242D01*
X116434589Y-128189949D01*
X116469508Y-128232100D01*
X116511759Y-128267024D01*
X116560488Y-128293649D01*
X116613635Y-128310445D01*
X116670886Y-128316120D01*
X116728154Y-128310447D01*
X116781406Y-128293649D01*
X116830032Y-128267031D01*
X116872264Y-128232100D01*
X116907112Y-128189962D01*
X116933813Y-128141242D01*
X116950516Y-128088100D01*
X116956161Y-128030844D01*
X116950522Y-127973676D01*
X116933813Y-127920446D01*
X116907118Y-127871704D01*
X116872264Y-127829466D01*
X116830045Y-127794604D01*
X116781406Y-127767916D01*
X116728159Y-127751211D01*
X116670886Y-127745568D01*
G37*
G36*
X117687180Y-129717096D02*
G01*
X117635848Y-129625624D01*
X117606572Y-129536929D01*
X117597055Y-129449284D01*
X117603487Y-129377786D01*
X117622334Y-129312508D01*
X117653015Y-129252835D01*
X117694141Y-129201133D01*
X117744678Y-129158652D01*
X117804050Y-129126395D01*
X117870103Y-129106566D01*
X117946322Y-129099651D01*
X118019983Y-129106500D01*
X118085662Y-129126395D01*
X118145109Y-129158384D01*
X118195450Y-129199790D01*
X118236357Y-129250485D01*
X118267257Y-129311043D01*
X118286227Y-129377586D01*
X118292658Y-129449284D01*
X118281975Y-129541803D01*
X118249754Y-129630402D01*
X118194106Y-129717096D01*
X118625683Y-129717096D01*
X118672040Y-129589811D01*
X118698430Y-129471633D01*
X118706894Y-129360990D01*
X118693436Y-129207231D01*
X118653527Y-129062404D01*
X118588293Y-128928829D01*
X118500387Y-128812909D01*
X118391293Y-128716257D01*
X118261395Y-128640474D01*
X118166653Y-128605124D01*
X118063620Y-128583446D01*
X117950840Y-128575994D01*
X117837762Y-128583102D01*
X117733699Y-128603827D01*
X117637355Y-128637665D01*
X117504607Y-128711005D01*
X117392868Y-128805826D01*
X117302165Y-128921555D01*
X117232644Y-129059595D01*
X117189626Y-129210902D01*
X117175003Y-129374912D01*
X117183939Y-129496444D01*
X117210242Y-129610008D01*
X117253771Y-129717096D01*
X117687180Y-129717096D01*
G37*
G36*
X116330900Y-130072714D02*
G01*
X116330900Y-130580739D01*
X117405080Y-130580739D01*
X117325468Y-130654549D01*
X117269973Y-130724217D01*
X117234354Y-130790666D01*
X117202172Y-130902840D01*
X117190635Y-131040038D01*
X117201317Y-131175487D01*
X117231038Y-131286071D01*
X117277613Y-131376482D01*
X117340722Y-131450244D01*
X117419280Y-131509151D01*
X117511171Y-131552258D01*
X117618952Y-131579378D01*
X117745921Y-131588974D01*
X118660000Y-131588974D01*
X118660000Y-131080949D01*
X117935453Y-131080949D01*
X117831663Y-131076215D01*
X117759354Y-131064096D01*
X117698179Y-131040818D01*
X117655795Y-131008164D01*
X117623313Y-130960670D01*
X117603784Y-130907273D01*
X117597055Y-130846231D01*
X117606402Y-130763885D01*
X117632355Y-130699589D01*
X117673991Y-130649127D01*
X117729191Y-130612728D01*
X117800812Y-130589309D01*
X117893565Y-130580739D01*
X118660000Y-130580739D01*
X118660000Y-130072714D01*
X116330900Y-130072714D01*
G37*
G36*
X118062867Y-131883041D02*
G01*
X118167218Y-131902851D01*
X118262494Y-131934944D01*
X118393547Y-132006325D01*
X118504050Y-132101517D01*
X118592689Y-132218745D01*
X118659877Y-132360415D01*
X118700586Y-132516848D01*
X118714710Y-132693562D01*
X118702956Y-132866032D01*
X118670045Y-133010177D01*
X118618445Y-133130737D01*
X118549093Y-133231540D01*
X118461337Y-133315272D01*
X118352986Y-133383279D01*
X118220484Y-133435450D01*
X118220484Y-132947208D01*
X118279880Y-132899843D01*
X118321164Y-132843947D01*
X118346351Y-132777940D01*
X118355184Y-132698935D01*
X118345139Y-132600957D01*
X118317758Y-132526675D01*
X118274922Y-132470472D01*
X118215354Y-132429068D01*
X118134851Y-132402068D01*
X118026922Y-132392044D01*
X118026922Y-133454989D01*
X117973555Y-133454989D01*
X117791230Y-133441115D01*
X117635034Y-133401744D01*
X117538397Y-133360230D01*
X117454093Y-133308945D01*
X117380778Y-133247871D01*
X117317469Y-133176483D01*
X117264610Y-133094781D01*
X117222020Y-133001552D01*
X117181437Y-132850086D01*
X117168521Y-132690509D01*
X117495450Y-132690509D01*
X117502892Y-132762604D01*
X117524353Y-132825144D01*
X117559685Y-132880163D01*
X117606706Y-132926035D01*
X117662897Y-132960351D01*
X117729923Y-132983478D01*
X117729923Y-132405966D01*
X117659022Y-132425859D01*
X117602185Y-132457047D01*
X117556877Y-132499389D01*
X117523551Y-132551805D01*
X117502805Y-132614617D01*
X117495450Y-132690509D01*
X117168521Y-132690509D01*
X117167187Y-132674023D01*
X117181461Y-132495301D01*
X117222020Y-132342219D01*
X117289094Y-132204923D01*
X117377847Y-132091748D01*
X117449350Y-132028548D01*
X117530874Y-131975401D01*
X117623555Y-131932135D01*
X117721438Y-131901646D01*
X117829127Y-131882744D01*
X117948032Y-131876203D01*
X118062867Y-131883041D01*
G37*
G36*
X117221898Y-133742219D02*
G01*
X117221898Y-134250244D01*
X117404103Y-134250244D01*
X117324903Y-134324026D01*
X117269679Y-134393695D01*
X117234232Y-134460170D01*
X117202141Y-134572337D01*
X117190635Y-134709542D01*
X117203683Y-134853910D01*
X117239727Y-134968562D01*
X117299068Y-135068442D01*
X117378579Y-135151988D01*
X117456015Y-135203992D01*
X117541245Y-135236008D01*
X117634320Y-135252536D01*
X117745921Y-135258478D01*
X118660000Y-135258478D01*
X118660000Y-134750453D01*
X117933866Y-134750453D01*
X117832453Y-134746101D01*
X117761552Y-134734944D01*
X117700956Y-134712935D01*
X117656406Y-134680478D01*
X117627509Y-134644565D01*
X117608778Y-134605006D01*
X117594734Y-134515736D01*
X117604106Y-134433410D01*
X117630135Y-134369113D01*
X117671915Y-134318632D01*
X117727194Y-134282237D01*
X117798934Y-134258816D01*
X117891856Y-134250244D01*
X118660000Y-134250244D01*
X118660000Y-133742219D01*
X117221898Y-133742219D01*
G37*
G36*
X117252550Y-138119050D02*
G01*
X117147887Y-138015193D01*
X117076029Y-137903579D01*
X117033251Y-137782195D01*
X117018688Y-137647784D01*
X117030164Y-137527834D01*
X117063750Y-137419173D01*
X117117337Y-137320790D01*
X117186360Y-137238311D01*
X117270573Y-137171123D01*
X117371008Y-137119120D01*
X117481249Y-137086705D01*
X117602062Y-137075645D01*
X117725228Y-137086761D01*
X117835924Y-137119120D01*
X117936524Y-137171330D01*
X118022037Y-137239654D01*
X118092290Y-137323197D01*
X118145990Y-137420516D01*
X118179611Y-137527655D01*
X118191053Y-137644975D01*
X118177511Y-137771063D01*
X118136968Y-137890548D01*
X118067692Y-138005965D01*
X117965617Y-138119050D01*
X118616280Y-138119050D01*
X118635819Y-138063241D01*
X118675449Y-137938660D01*
X118701521Y-137828157D01*
X118717329Y-137719215D01*
X118722526Y-137612735D01*
X118713278Y-137468974D01*
X118685733Y-137329980D01*
X118639727Y-137194591D01*
X118576743Y-137066130D01*
X118499210Y-136948980D01*
X118406598Y-136842149D01*
X118301008Y-136747884D01*
X118182546Y-136666392D01*
X118050003Y-136597418D01*
X117909808Y-136546582D01*
X117760146Y-136515647D01*
X117599253Y-136505094D01*
X117438322Y-136515527D01*
X117289623Y-136546018D01*
X117151311Y-136595952D01*
X117020671Y-136664134D01*
X116904086Y-136745162D01*
X116800334Y-136839340D01*
X116709498Y-136946048D01*
X116632900Y-137063629D01*
X116570136Y-137193126D01*
X116524101Y-137329497D01*
X116496495Y-137469911D01*
X116487215Y-137615544D01*
X116493888Y-137740547D01*
X116513838Y-137863084D01*
X116546875Y-137985397D01*
X116596270Y-138119050D01*
X117252550Y-138119050D01*
G37*
G36*
X118044908Y-138370734D02*
G01*
X118151653Y-138392380D01*
X118249916Y-138427651D01*
X118342339Y-138476321D01*
X118424887Y-138535384D01*
X118498433Y-138605216D01*
X118561677Y-138684519D01*
X118615028Y-138774059D01*
X118658534Y-138874982D01*
X118700306Y-139036484D01*
X118714710Y-139216311D01*
X118700338Y-139399042D01*
X118658534Y-139564480D01*
X118614997Y-139668332D01*
X118562054Y-139759694D01*
X118499776Y-139839863D01*
X118387723Y-139942117D01*
X118255533Y-140020237D01*
X118159070Y-140056415D01*
X118055154Y-140078500D01*
X117942414Y-140086060D01*
X117829530Y-140078658D01*
X117725566Y-140057052D01*
X117629173Y-140021702D01*
X117538801Y-139972919D01*
X117457653Y-139912974D01*
X117384930Y-139841329D01*
X117294420Y-139716189D01*
X117224829Y-139567288D01*
X117181928Y-139404561D01*
X117167197Y-139224738D01*
X117610488Y-139224738D01*
X117616851Y-139290136D01*
X117635767Y-139351622D01*
X117666176Y-139407762D01*
X117706109Y-139454937D01*
X117754673Y-139493848D01*
X117811622Y-139524790D01*
X117873649Y-139544631D01*
X117939483Y-139551290D01*
X118007860Y-139544562D01*
X118070275Y-139524790D01*
X118127224Y-139493848D01*
X118175788Y-139454937D01*
X118215721Y-139407762D01*
X118246130Y-139351622D01*
X118265046Y-139290136D01*
X118271409Y-139224738D01*
X118265049Y-139159322D01*
X118246130Y-139097732D01*
X118215735Y-139041672D01*
X118175788Y-138994417D01*
X118127237Y-138955576D01*
X118070275Y-138924563D01*
X118007493Y-138904857D01*
X117936674Y-138898063D01*
X117871050Y-138904755D01*
X117810279Y-138924563D01*
X117754448Y-138955496D01*
X117706109Y-138994417D01*
X117666163Y-139041672D01*
X117635767Y-139097732D01*
X117616848Y-139159322D01*
X117610488Y-139224738D01*
X117167197Y-139224738D01*
X117167187Y-139224616D01*
X117173984Y-139100814D01*
X117193823Y-138986076D01*
X117226172Y-138879256D01*
X117296966Y-138730537D01*
X117387739Y-138606559D01*
X117499378Y-138504519D01*
X117629173Y-138427651D01*
X117723632Y-138392055D01*
X117822954Y-138370572D01*
X117928248Y-138363293D01*
X118044908Y-138370734D01*
G37*
G36*
X117221898Y-140377808D02*
G01*
X117221898Y-140885833D01*
X117397508Y-140885833D01*
X117308191Y-140995979D01*
X117246834Y-141109087D01*
X117210604Y-141226740D01*
X117198450Y-141351116D01*
X117209696Y-141475502D01*
X117242011Y-141583859D01*
X117294646Y-141679264D01*
X117368721Y-141763876D01*
X117467117Y-141838747D01*
X117368455Y-141914558D01*
X117294324Y-141999568D01*
X117241781Y-142094774D01*
X117209615Y-142202240D01*
X117198450Y-142324912D01*
X117205930Y-142423609D01*
X117227882Y-142515055D01*
X117265962Y-142598580D01*
X117320327Y-142668684D01*
X117390958Y-142725247D01*
X117484092Y-142770778D01*
X117590900Y-142798371D01*
X117727725Y-142808513D01*
X118660000Y-142808513D01*
X118660000Y-142300488D01*
X117952306Y-142300488D01*
X117848118Y-142296239D01*
X117773276Y-142285223D01*
X117708300Y-142265316D01*
X117664221Y-142240648D01*
X117630785Y-142208302D01*
X117611099Y-142172505D01*
X117597055Y-142089218D01*
X117610198Y-142005061D01*
X117647253Y-141941448D01*
X117710122Y-141893151D01*
X117807314Y-141860053D01*
X117952306Y-141847173D01*
X118660000Y-141847173D01*
X118660000Y-141339148D01*
X117949375Y-141339148D01*
X117844545Y-141335254D01*
X117768269Y-141325104D01*
X117701120Y-141306977D01*
X117654452Y-141284560D01*
X117618615Y-141253622D01*
X117596933Y-141215928D01*
X117585527Y-141171932D01*
X117581423Y-141118108D01*
X117595467Y-141028471D01*
X117615638Y-140989757D01*
X117650300Y-140954344D01*
X117696119Y-140926886D01*
X117762651Y-140904030D01*
X117839687Y-140890930D01*
X117949375Y-140885833D01*
X118660000Y-140885833D01*
X118660000Y-140377808D01*
X117221898Y-140377808D01*
G37*
G36*
X117221898Y-143154361D02*
G01*
X117221898Y-143662386D01*
X117397508Y-143662386D01*
X117308191Y-143772532D01*
X117246834Y-143885639D01*
X117210604Y-144003293D01*
X117198450Y-144127669D01*
X117209696Y-144252054D01*
X117242011Y-144360411D01*
X117294646Y-144455816D01*
X117368721Y-144540429D01*
X117467117Y-144615300D01*
X117368455Y-144691111D01*
X117294324Y-144776121D01*
X117241781Y-144871327D01*
X117209615Y-144978793D01*
X117198450Y-145101465D01*
X117205930Y-145200162D01*
X117227882Y-145291608D01*
X117265962Y-145375133D01*
X117320327Y-145445237D01*
X117390958Y-145501799D01*
X117484092Y-145547330D01*
X117590900Y-145574924D01*
X117727725Y-145585066D01*
X118660000Y-145585066D01*
X118660000Y-145077041D01*
X117952306Y-145077041D01*
X117848118Y-145072792D01*
X117773276Y-145061775D01*
X117708300Y-145041869D01*
X117664221Y-145017201D01*
X117630785Y-144984854D01*
X117611099Y-144949057D01*
X117597055Y-144865771D01*
X117610198Y-144781614D01*
X117647253Y-144718001D01*
X117710122Y-144669704D01*
X117807314Y-144636605D01*
X117952306Y-144623726D01*
X118660000Y-144623726D01*
X118660000Y-144115701D01*
X117949375Y-144115701D01*
X117844545Y-144111807D01*
X117768269Y-144101657D01*
X117701120Y-144083529D01*
X117654452Y-144061113D01*
X117618615Y-144030174D01*
X117596933Y-143992480D01*
X117585527Y-143948484D01*
X117581423Y-143894661D01*
X117595467Y-143805024D01*
X117615638Y-143766309D01*
X117650300Y-143730896D01*
X117696119Y-143703439D01*
X117762651Y-143680582D01*
X117839687Y-143667483D01*
X117949375Y-143662386D01*
X118660000Y-143662386D01*
X118660000Y-143154361D01*
X117221898Y-143154361D01*
G37*
G36*
X117221898Y-146438939D02*
G01*
X118033639Y-146438939D01*
X118135352Y-146450679D01*
X118207159Y-146482008D01*
X118257070Y-146530767D01*
X118288713Y-146599929D01*
X118300474Y-146696859D01*
X118288713Y-146793790D01*
X118257070Y-146862951D01*
X118207159Y-146911711D01*
X118135352Y-146943039D01*
X118033639Y-146954780D01*
X117221898Y-146954780D01*
X117221898Y-147462805D01*
X118130969Y-147462805D01*
X118274340Y-147449521D01*
X118391904Y-147412272D01*
X118488878Y-147352938D01*
X118568775Y-147270586D01*
X118627987Y-147172566D01*
X118673660Y-147048290D01*
X118703720Y-146891993D01*
X118714710Y-146696859D01*
X118703720Y-146501726D01*
X118673660Y-146345428D01*
X118627987Y-146221153D01*
X118568775Y-146123133D01*
X118488878Y-146040780D01*
X118391904Y-145981446D01*
X118274340Y-145944198D01*
X118130969Y-145930914D01*
X117221898Y-145930914D01*
X117221898Y-146438939D01*
G37*
G36*
X117221898Y-147802791D02*
G01*
X117221898Y-148310816D01*
X117404103Y-148310816D01*
X117324903Y-148384599D01*
X117269679Y-148454267D01*
X117234232Y-148520743D01*
X117202141Y-148632910D01*
X117190635Y-148770115D01*
X117203683Y-148914482D01*
X117239727Y-149029134D01*
X117299068Y-149129015D01*
X117378579Y-149212561D01*
X117456015Y-149264564D01*
X117541245Y-149296580D01*
X117634320Y-149313108D01*
X117745921Y-149319050D01*
X118660000Y-149319050D01*
X118660000Y-148811025D01*
X117933866Y-148811025D01*
X117832453Y-148806673D01*
X117761552Y-148795516D01*
X117700956Y-148773507D01*
X117656406Y-148741050D01*
X117627509Y-148705137D01*
X117608778Y-148665579D01*
X117594734Y-148576308D01*
X117604106Y-148493982D01*
X117630135Y-148429685D01*
X117671915Y-148379204D01*
X117727194Y-148342809D01*
X117798934Y-148319388D01*
X117891856Y-148310816D01*
X118660000Y-148310816D01*
X118660000Y-147802791D01*
X117221898Y-147802791D01*
G37*
G36*
X117221898Y-150169016D02*
G01*
X118660000Y-150169016D01*
X118660000Y-149660990D01*
X117221898Y-149660990D01*
X117221898Y-150169016D01*
G37*
G36*
X116670886Y-149629727D02*
G01*
X116613630Y-149635373D01*
X116560488Y-149652076D01*
X116511746Y-149678771D01*
X116469508Y-149713625D01*
X116434584Y-149755876D01*
X116407958Y-149804605D01*
X116391250Y-149857835D01*
X116385610Y-149915003D01*
X116391255Y-149972259D01*
X116407958Y-150025401D01*
X116434589Y-150074108D01*
X116469508Y-150116259D01*
X116511759Y-150151183D01*
X116560488Y-150177808D01*
X116613635Y-150194604D01*
X116670886Y-150200279D01*
X116728154Y-150194606D01*
X116781406Y-150177808D01*
X116830032Y-150151191D01*
X116872264Y-150116259D01*
X116907112Y-150074121D01*
X116933813Y-150025401D01*
X116950516Y-149972259D01*
X116956161Y-149915003D01*
X116950522Y-149857835D01*
X116933813Y-149804605D01*
X116907118Y-149755863D01*
X116872264Y-149713625D01*
X116830045Y-149678763D01*
X116781406Y-149652076D01*
X116728159Y-149635370D01*
X116670886Y-149629727D01*
G37*
G36*
X117643949Y-151077599D02*
G01*
X118660000Y-151077599D01*
X118660000Y-150569574D01*
X117643949Y-150569574D01*
X117643949Y-150405443D01*
X117221898Y-150405443D01*
X117221898Y-150569574D01*
X116792030Y-150569574D01*
X116792030Y-151077599D01*
X117221898Y-151077599D01*
X117221898Y-151366782D01*
X117643949Y-151366782D01*
X117643949Y-151077599D01*
G37*
G36*
X118464605Y-152080704D02*
G01*
X117221898Y-151386322D01*
X117221898Y-151974337D01*
X117959633Y-152357920D01*
X117221898Y-152730268D01*
X117221898Y-153312665D01*
X119379050Y-152159106D01*
X119379050Y-151590753D01*
X118464605Y-152080704D01*
G37*
G36*
X117091472Y-155643230D02*
G01*
X117026803Y-155550674D01*
X116983517Y-155462247D01*
X116956847Y-155371821D01*
X116948346Y-155287124D01*
X116961745Y-155186884D01*
X116998782Y-155111880D01*
X117036447Y-155073776D01*
X117079689Y-155051657D01*
X117130551Y-155044103D01*
X117182425Y-155052820D01*
X117223119Y-155077930D01*
X117256243Y-155116001D01*
X117286133Y-155166957D01*
X117332418Y-155291154D01*
X117374427Y-155428175D01*
X117445962Y-155602904D01*
X117526219Y-155732238D01*
X117614030Y-155824947D01*
X117691869Y-155878446D01*
X117781444Y-155917574D01*
X117884901Y-155942101D01*
X118004940Y-155950732D01*
X118162154Y-155936580D01*
X118299253Y-155895900D01*
X118383182Y-155853635D01*
X118458122Y-155800480D01*
X118524933Y-155735921D01*
X118607017Y-155620892D01*
X118670624Y-155477634D01*
X118708947Y-155318397D01*
X118722526Y-155130809D01*
X118707577Y-154934095D01*
X118663115Y-154745922D01*
X118588676Y-154564075D01*
X118482435Y-154386723D01*
X118038401Y-154621074D01*
X118135686Y-154747670D01*
X118200457Y-154865806D01*
X118240661Y-154987769D01*
X118253579Y-155105041D01*
X118245637Y-155193168D01*
X118224344Y-155258432D01*
X118191908Y-155306297D01*
X118147541Y-155343897D01*
X118101311Y-155365287D01*
X118051713Y-155372365D01*
X118006175Y-155367934D01*
X117969036Y-155355512D01*
X117936350Y-155333871D01*
X117904556Y-155299337D01*
X117877274Y-155256241D01*
X117849846Y-155196877D01*
X117793792Y-155043736D01*
X117719542Y-154834420D01*
X117671879Y-154736971D01*
X117611587Y-154651849D01*
X117536316Y-154580195D01*
X117441960Y-154522644D01*
X117331396Y-154486883D01*
X117182575Y-154473551D01*
X117030597Y-154486953D01*
X116898032Y-154525453D01*
X116778861Y-154588436D01*
X116679312Y-154671510D01*
X116599182Y-154774623D01*
X116537651Y-154901709D01*
X116500293Y-155043249D01*
X116487215Y-155206524D01*
X116497860Y-155364919D01*
X116531057Y-155535031D01*
X116585075Y-155702649D01*
X116659773Y-155863660D01*
X117091472Y-155643230D01*
G37*
G36*
X118464605Y-156764305D02*
G01*
X117221898Y-156069923D01*
X117221898Y-156657937D01*
X117959633Y-157041521D01*
X117221898Y-157413869D01*
X117221898Y-157996266D01*
X119379050Y-156842707D01*
X119379050Y-156274354D01*
X118464605Y-156764305D01*
G37*
G36*
X117591926Y-159056280D02*
G01*
X117550433Y-158960694D01*
X117526622Y-158869366D01*
X117518897Y-158781018D01*
X117526479Y-158715237D01*
X117546985Y-158667201D01*
X117580404Y-158634358D01*
X117622822Y-158623726D01*
X117663489Y-158630687D01*
X117692920Y-158661584D01*
X117718321Y-158731803D01*
X117746409Y-158853925D01*
X117784611Y-158990171D01*
X117835187Y-159092799D01*
X117896496Y-159168510D01*
X117973946Y-159225567D01*
X118064827Y-159260288D01*
X118172979Y-159272435D01*
X118294505Y-159259474D01*
X118400247Y-159221999D01*
X118493189Y-159161751D01*
X118570118Y-159081803D01*
X118630126Y-158985098D01*
X118676730Y-158866015D01*
X118704882Y-158736074D01*
X118714710Y-158588677D01*
X118704812Y-158446066D01*
X118674884Y-158303612D01*
X118624039Y-158160079D01*
X118550701Y-158014340D01*
X118192885Y-158198988D01*
X118277961Y-158346717D01*
X118324811Y-158480534D01*
X118339553Y-158604064D01*
X118331286Y-158669921D01*
X118308534Y-158719347D01*
X118272590Y-158753546D01*
X118229644Y-158764410D01*
X118183115Y-158757327D01*
X118149288Y-158727773D01*
X118121200Y-158661706D01*
X118094333Y-158547889D01*
X118052595Y-158392791D01*
X118004418Y-158286774D01*
X117952062Y-158217672D01*
X117883696Y-158166736D01*
X117798408Y-158134924D01*
X117691332Y-158123517D01*
X117574504Y-158135067D01*
X117472979Y-158168335D01*
X117383255Y-158222994D01*
X117308237Y-158297295D01*
X117249272Y-158388265D01*
X117203946Y-158500383D01*
X117176741Y-158623634D01*
X117167187Y-158765387D01*
X117177462Y-158922259D01*
X117208249Y-159075963D01*
X117260000Y-159227739D01*
X117591926Y-159056280D01*
G37*
G36*
X117643949Y-160126308D02*
G01*
X118660000Y-160126308D01*
X118660000Y-159618283D01*
X117643949Y-159618283D01*
X117643949Y-159454152D01*
X117221898Y-159454152D01*
X117221898Y-159618283D01*
X116792030Y-159618283D01*
X116792030Y-160126308D01*
X117221898Y-160126308D01*
X117221898Y-160415491D01*
X117643949Y-160415491D01*
X117643949Y-160126308D01*
G37*
G36*
X118062867Y-160586460D02*
G01*
X118167218Y-160606270D01*
X118262494Y-160638363D01*
X118393547Y-160709744D01*
X118504050Y-160804937D01*
X118592689Y-160922165D01*
X118659877Y-161063834D01*
X118700586Y-161220267D01*
X118714710Y-161396981D01*
X118702956Y-161569451D01*
X118670045Y-161713596D01*
X118618445Y-161834157D01*
X118549093Y-161934959D01*
X118461337Y-162018692D01*
X118352986Y-162086699D01*
X118220484Y-162138869D01*
X118220484Y-161650628D01*
X118279880Y-161603262D01*
X118321164Y-161547367D01*
X118346351Y-161481359D01*
X118355184Y-161402355D01*
X118345139Y-161304377D01*
X118317758Y-161230094D01*
X118274922Y-161173891D01*
X118215354Y-161132487D01*
X118134851Y-161105487D01*
X118026922Y-161095464D01*
X118026922Y-162158408D01*
X117973555Y-162158408D01*
X117791230Y-162144534D01*
X117635034Y-162105163D01*
X117538397Y-162063649D01*
X117454093Y-162012364D01*
X117380778Y-161951290D01*
X117317469Y-161879902D01*
X117264610Y-161798201D01*
X117222020Y-161704972D01*
X117181437Y-161553506D01*
X117168521Y-161393928D01*
X117495450Y-161393928D01*
X117502892Y-161466024D01*
X117524353Y-161528564D01*
X117559685Y-161583583D01*
X117606706Y-161629454D01*
X117662897Y-161663771D01*
X117729923Y-161686898D01*
X117729923Y-161109385D01*
X117659022Y-161129278D01*
X117602185Y-161160467D01*
X117556877Y-161202808D01*
X117523551Y-161255224D01*
X117502805Y-161318036D01*
X117495450Y-161393928D01*
X117168521Y-161393928D01*
X117167187Y-161377442D01*
X117181461Y-161198720D01*
X117222020Y-161045638D01*
X117289094Y-160908342D01*
X117377847Y-160795167D01*
X117449350Y-160731967D01*
X117530874Y-160678820D01*
X117623555Y-160635554D01*
X117721438Y-160605065D01*
X117829127Y-160586164D01*
X117948032Y-160579623D01*
X118062867Y-160586460D01*
G37*
G36*
X117221898Y-162445638D02*
G01*
X117221898Y-162953663D01*
X117397508Y-162953663D01*
X117308191Y-163063809D01*
X117246834Y-163176917D01*
X117210604Y-163294570D01*
X117198450Y-163418946D01*
X117209696Y-163543331D01*
X117242011Y-163651688D01*
X117294646Y-163747093D01*
X117368721Y-163831706D01*
X117467117Y-163906577D01*
X117368455Y-163982388D01*
X117294324Y-164067398D01*
X117241781Y-164162604D01*
X117209615Y-164270070D01*
X117198450Y-164392742D01*
X117205930Y-164491439D01*
X117227882Y-164582885D01*
X117265962Y-164666410D01*
X117320327Y-164736514D01*
X117390958Y-164793076D01*
X117484092Y-164838607D01*
X117590900Y-164866201D01*
X117727725Y-164876343D01*
X118660000Y-164876343D01*
X118660000Y-164368318D01*
X117952306Y-164368318D01*
X117848118Y-164364069D01*
X117773276Y-164353053D01*
X117708300Y-164333146D01*
X117664221Y-164308478D01*
X117630785Y-164276131D01*
X117611099Y-164240334D01*
X117597055Y-164157048D01*
X117610198Y-164072891D01*
X117647253Y-164009278D01*
X117710122Y-163960981D01*
X117807314Y-163927882D01*
X117952306Y-163915003D01*
X118660000Y-163915003D01*
X118660000Y-163406978D01*
X117949375Y-163406978D01*
X117844545Y-163403084D01*
X117768269Y-163392934D01*
X117701120Y-163374806D01*
X117654452Y-163352390D01*
X117618615Y-163321451D01*
X117596933Y-163283757D01*
X117585527Y-163239761D01*
X117581423Y-163185938D01*
X117595467Y-163096301D01*
X117615638Y-163057586D01*
X117650300Y-163022173D01*
X117696119Y-162994716D01*
X117762651Y-162971859D01*
X117839687Y-162958760D01*
X117949375Y-162953663D01*
X118660000Y-162953663D01*
X118660000Y-162445638D01*
X117221898Y-162445638D01*
G37*
G36*
X117591926Y-166178401D02*
G01*
X117550433Y-166082815D01*
X117526622Y-165991487D01*
X117518897Y-165903140D01*
X117526479Y-165837358D01*
X117546985Y-165789323D01*
X117580404Y-165756479D01*
X117622822Y-165745847D01*
X117663489Y-165752808D01*
X117692920Y-165783705D01*
X117718321Y-165853925D01*
X117746409Y-165976046D01*
X117784611Y-166112293D01*
X117835187Y-166214920D01*
X117896496Y-166290631D01*
X117973946Y-166347688D01*
X118064827Y-166382410D01*
X118172979Y-166394556D01*
X118294505Y-166381596D01*
X118400247Y-166344120D01*
X118493189Y-166283872D01*
X118570118Y-166203925D01*
X118630126Y-166107220D01*
X118676730Y-165988136D01*
X118704882Y-165858196D01*
X118714710Y-165710799D01*
X118704812Y-165568188D01*
X118674884Y-165425734D01*
X118624039Y-165282200D01*
X118550701Y-165136461D01*
X118192885Y-165321109D01*
X118277961Y-165468838D01*
X118324811Y-165602655D01*
X118339553Y-165726186D01*
X118331286Y-165792042D01*
X118308534Y-165841468D01*
X118272590Y-165875668D01*
X118229644Y-165886531D01*
X118183115Y-165879448D01*
X118149288Y-165849895D01*
X118121200Y-165783827D01*
X118094333Y-165670010D01*
X118052595Y-165514912D01*
X118004418Y-165408895D01*
X117952062Y-165339794D01*
X117883696Y-165288858D01*
X117798408Y-165257046D01*
X117691332Y-165245638D01*
X117574504Y-165257188D01*
X117472979Y-165290457D01*
X117383255Y-165345116D01*
X117308237Y-165419417D01*
X117249272Y-165510386D01*
X117203946Y-165622505D01*
X117176741Y-165745756D01*
X117167187Y-165887508D01*
X117177462Y-166044381D01*
X117208249Y-166198085D01*
X117260000Y-166349860D01*
X117591926Y-166178401D01*
G37*
%LPC*%
D11*
%TO.C,H6*%
X115000000Y-181750000D03*
%TD*%
D12*
%TO.C,H2*%
X107500000Y-225500000D03*
%TD*%
D13*
%TO.C,H3*%
X110000000Y-133000000D03*
%TD*%
D12*
%TO.C,H1*%
X107500000Y-103000000D03*
%TD*%
D11*
%TO.C,H8*%
X115000000Y-196750000D03*
%TD*%
%TO.C,H7*%
X105000000Y-196750000D03*
%TD*%
D13*
%TO.C,H4*%
X110000000Y-152000000D03*
%TD*%
D11*
%TO.C,H9*%
X105000000Y-211750000D03*
%TD*%
%TO.C,H10*%
X115000000Y-211750000D03*
%TD*%
%TO.C,H5*%
X105000000Y-181750000D03*
%TD*%
%LPD*%
M02*
