<?xml version="1.0" encoding="utf-8"?>
<!-- Generator: Adobe Illustrator 27.9.0, SVG Export Plug-In . SVG Version: 6.00 Build 0)  -->
<svg version="1.1" id="Layer_1" xmlns="http://www.w3.org/2000/svg" xmlns:xlink="http://www.w3.org/1999/xlink" x="0px" y="0px"
	 viewBox="0 0 367 483" style="enable-background:new 0 0 367 483;" xml:space="preserve">
<g id="qDuZX0.tif">
	<g>
		<path d="M78.8,185.5c-12.7-2.7-25-7.7-34.8,7.9c-3.6,5.8-7.9-7.7-14.8-6.4c-1.7,0.3-5.8-3.2-5.6-4.2c2.2-10.9,6.5-1.1,10.1-1
			c2.6,0.1,5.2-1.2,7.8-1.9c-0.8-2.3-1.3-6.4-2.3-6.5c-5.1-0.5-11-1.3-15.3,0.7c-4.4,2-4.8-1.9-7.3-2.4c-0.2,0-0.1-1.2-0.1-1.9
			c1.2,0.3,2.6,1,3.7,0.8c1-0.2,1.8-1.5,2.7-2.4c-0.7-0.6-1.4-1.2-2.2-1.7c-2.1-1.5-4.3-2.9-6.3-4.5c-0.2-0.1,0.5-1.8,0.6-1.8
			c2.5,0.4,5,0.8,7.4,1.6c1.5,0.5,2.8,1.7,4.2,2.6c-0.4-2-0.5-4.1-1.2-6c-0.6-1.7-1.9-3.1-2.9-4.6c1.1-0.6,3-2,3.3-1.7
			c1.9,1.6,3.6,3.4,5,5.5c1.8,2.6-0.6,10.3,7.2,5.4c1.5-0.9,4-2.9,6.3,1.4c6,11.2,7.9-6.6,13.4-2.4c3.3-5.4,2.5,1.3,4,1.8
			c9.8,2.6,19.3,6.4,29.1,9.4c2.8,0.9,8,1.3,8.6,0.1c3.8-7-2.3-12.4-3.7-18.6c-1.2-5.4-14.1-7.3-4.8-15.5c0.2-0.2,0.1-0.8,0.1-1.3
			c-5,1.1-10.2,1.5-14.8,3.4c-7.3,3.2-14.1,7.4-21.2,11.1c-0.1,0.1-1-0.6-1-0.9c0.1-1.9,0.4-3.9,0.6-5.8c0.4,0.2,1,0.3,1.2,0.6
			c1.1,1.2,2.2,2.6,3.2,3.9c0.7-2.4,1.4-4.7,1.9-7.1c0.8-3.9-7.9-13.2,2.5-10.9c10.1,2.2,21.4-6,30,3.7c2.6,2.9,5.1,6.1,7.6,9
			c0.4,0.5,1.1,0.9,1.7,1.3c0.3-0.4,0.5-0.8,0.8-1.2c2.1-2.6-8.3-8.2,0.3-7.2c6.4,0.7,6.7,10.4,5.7,17.4c-0.4,2.7-0.8,5.4-1.1,8.1
			c1.4-1.2,2.8-2.5,4.1-3.7c0.4,1.9,0.9,3.9,1.3,5.9c0.8,3.3,0.7,7.2,2.6,9.8c0.9,1.2,5.8,1,7.8-0.3c2.1-1.4,2.9-4.9,4.2-7.5
			c-4.9-0.6-9.8-1.3-14.7-1.9c-6.3-0.7,19.3-8.3-1.3-5.9c8.1-2.6-6.4-16.2,4.9-13.6c6,1.4,9.2,14.3,14,21.8c0.8,1.3,3.2,1.6,4.9,2.4
			c5.2,2.5,10.8,4.4,15.3,7.8c3.6,2.7,3.1,3.5,9.8-2.6c2.3,14.3,14.9,7.5,22.5,10.1c2.6,0.9,8.6-3.1,8-9.6
			c-0.9-9.5-5.7-17.6-14.4-18.8c-7.5-1-15.7,3.2-23.4,5.7c-0.4,0.1,1,5.6,1.5,8.7c-1.8,1.5-5.5-3.2-11.2-13.9
			c1.4-2.6,2.9-5.1,4.3-7.7c2.6,5.8,7,5.1,11.6,3.2c1-0.4,1.6-1.9,2.3-2.8c-4.2-1.6-8.5-3.2-12.7-4.8c-0.4,1.5-0.8,3-1.1,4.5
			c-0.9-2.3-1.8-4.5-2.7-6.8l-1.6,14.5c-2.2-13.8-11.4-24.1-17.8-35.8c4.9-2.2,9.8-4.4,14.7-6.6c4.2-1.8,2.5-2.1-0.5-2.8
			c-1.6-0.4-2.8-2.1-4.2-3.2c1.4,0.4,2.8,0.9,4.3,1.2c5.1,1.2,2.4-1.1,2.1-3.4c-0.2-1.3,6.1,4.4,4.5-2.5c-0.2-1.1-0.7-2.1-1-3.1
			c1.2,0.1,2.4,0.3,3.6,0.4c0.8,1.6,2.2,3.2,2.1,4.8c-0.1,3.8-2.3,8.2,3.4,9.6c0.9,0.2,2.3-1.7,3.5-2.7c-5.3-2.1-0.8-11.9-9.1-11.6
			c-1.8-2.9-3.5-5.9-5.3-8.8c8.7-0.2,14.2,5,18.9,11.5c1.5,5.8,2.5,11.9,4.6,17.4c1.5,3.9,1.7,11.8,7,10.3c5.1-1.4,1.2-7.8,0.2-11.9
			c-0.4-1.8-2.2-3.3-3.4-4.9c6.6-2.2-4.8-8.4,2.4-10.5c-5-4.2,4-20.2-11.4-14.7c-8.4,3-9.6-4-13.1-6.7c-9.1-6.9-19.8-7.6-30-10.4
			c-0.4-0.1-0.8-0.5-1.2-0.8c0.2-0.1,0.4-0.3,0.7-0.3c8.2-2.4,8.1-2.3,3.6-13.9c-1-2.7-1-5.8-1.4-8.7l-0.1-0.1
			c1.7-0.7,3.4-1.4,5.1-2.1c1.3-1.2,2.7-2.3,4-3.5c1.7-0.8,3.6-2.5,5.1-2.2c3.2,0.7-0.1,8.4,6.2,6.6c0.7-0.2,1-1.5,1.5-2.4
			c-6.2-1.7-3.3-14.9-13.9-11.1c-0.6,0.2-2.3-1.3-2.3-1.4c7.5-15.4-5.1-10.5-11.7-11.6c-1.9-0.3-3.8-0.4-5.7-0.6
			c0.1-0.8,0.1-2.2,0.3-2.3c2-0.3,4.1-0.3,6.2-0.6c1.4-0.2,2.7-0.9,4.1-1.3c4.1-3.8,8,7.8,9,1.7c0.8-4.7-7.7-4.1-12.8-3.3
			c-9.2-3.5,1.2-5.3,0.7-6.2c-3-4.9,2.7-3.3,3.4-5.2c1.2,0.7,2.7,1.1,3.7,2c9,8.9,18,18,27.1,26.9c0.7,0.7,2.6,0.2,3.9,0.2
			c-0.7-2.6-0.7-6.2-2.4-7.6c-3.3-2.7-4.4-5.6-3.1-9.3c0.4-1.2,2.7-1.7,4.1-2.6c0,1.7-0.1,3.5-0.1,5.2c2.1-0.2,4.7,0.2,6.3-0.8
			c1.1-0.6,1-3.4,1.1-5.2c0.1-2-0.2-4.1-0.3-6.2c1.4,1.3,3.2,2.5,4.1,4.1c6.5,11.4-7.6,22.4-0.7,33.9c1.2,2.1,2.2,4.3,3.3,6.5
			c1-1.5,2.3-2.9,2.9-4.6c1.8-5.5,3.6,1.1,5.4-0.1c6.8,14.3,10.2,7.2,13.9-1.9c0.4-1.1,4.3-0.8,6.5-1.1c-0.1,0.3-0.2,0.6-0.2,0.8
			c-5,4.4-9.3,8.9-3.1,15.7c0.1,0.2-3.6,3.9-5.6,5.9c4.8,4.4-3.1,1.3-2,3.5c-2-3.4-4.1-6.7-6-10.2c-0.8-1.4-1.4-3-2.1-4.5
			c-0.9,0.6-2.6,1.1-2.6,1.7c0,1.5,0.7,3,1.2,4.5c1.6,4.2-2.7,4.8-3.7,3.8c-4.4-4.6-7.2,1.6-10.9,1.1c-7.4-1-15.2-0.4-21.4-6
			c-0.3-0.3-1.4,0.2-2,0.3c0.5,1.3,0.7,3,1.6,3.7c2.2,1.5,4.7,2.6,7.1,3.8c-3.6-0.2-7.3-0.7-10.9-0.5c-0.9,0.1-1.6,2.5-2.4,3.9
			c1.5,0.3,3,0.7,4.6,0.8c1.2,0,2.5-0.5,3.7-0.7c0.9,1.3,1.9,3.6,2.8,3.6c2.4-0.1,6.7,5.9,6.7-0.5c0-4.8-5.9-3.2-9.6-3
			c6.6-0.9,13.4-3.1,19.8-2.3c8.3,1-7.7,7,1.1,9.1c1.6,0.4,1.3,7.8,5.2,1.3c1.6-2.6,5.6-3.7,8.4-5.7c0.5-0.3,0.5-1.3,0.7-1.9
			c1.8,2.1,3.5,4.2,5.2,6.2c-1,0.6-2,1.5-3.1,1.8c-1.7,0.5-3.6,0.7-5.4,1c0.8,2.3,0.8,5.6,2.4,6.8c9.4,7.5,12.6,17.1,11,28.7
			c4.7,0.3,5,9.2,11.5,5.9c0.6-0.3,0.6-1.8,1-2.7c0.8-2,0.5-6.1,4.3-2.2c-5,4.1-4.9,9.8-4.3,15.4c0.1,1.1,1.9,2,3,3
			c0-1.6-0.1-3.2,0-4.8c0.4-4.6,0.8-9.2,1.3-13.7c1.4,6.4,1.5,13.5,4.5,19c3.2,5.8-0.9-6,3.2-2c6.6-11,19.3-19.5,14.2-35.3
			c-0.4-1.1,0.5-2.7,0.8-4c0.8,0.7,2,1.3,2.2,2.1c3.6,12.8,1.3,24-7.8,34.2c-3.3,3.8-4.4,9.5-6.5,14.3c-0.3,0.6,0,1.5,0,2.3
			c-1-0.4-2.9-0.7-3-1.2c-1.8-13.2-17-9-22.6-17.4c-0.3-0.4-2.1,0.3-3.3,0.4c0.4,0.9,0.7,2,1.4,2.7c6.6,7.7,18.8,10.9,19.2,23.7
			c0,1,0.9,1.9,1.5,2.9c-1.4-0.3-2.9-0.3-4-0.9c-7.1-4.1-13.9-9.1-22.7-4.3c6,1.7,12,3.8,18.1,4.9c9.9,1.6,17.3,5.7,19.9,16.1
			c0.6-0.2,1.6-0.4,1.7-0.6c0.2-3.1,0.4-6.2,0.4-9.3c0-1.3-0.4-2.7-0.4-4c0-0.3,0.8-0.6,1.1-0.9c0.3,1.3,0.4,2.7,0.9,4
			c2.9,8,8.1,13.3,17,14c0.2,0,0.6,0.1,0.7,0.2c3.3,6.1-7.1,7.1-5.2,8.5c5.2,4,4.8,4.1-1.2,3.8c-0.8,0-1.6,0.6-2.4,0.9
			c1.4,0.9,3,1.8,4.3,2.9c5.5,4.5,17.8-1.6,17.6,11.4c0,0.8-2.2,1.6-3.4,2.4c0.3-1.1,0.9-2.4,0.7-3.4c-0.2-0.9-1.5-2.4-1.9-2.3
			c-4,1.1-7.9,2.8-11.9,3.6c-2.6,0.5-6,0.9-7.9-0.4c-8.3-5.3-13.2-1.6-17.4,5.4c-4.1,2.2-8.2,4.5-12.2,6.8l0.1-0.1
			c-3,2.2-3.3,7.5-1.2,10c0.5,0.6-1.2,3.5-2.4,4.9c-0.7,0.9-2.3,1-3.6,1.4c2.6,0.8,5.2,1.5,7.9,2.3c0,0.4,0.1,0.7,0.1,1.1
			c-6.7,5.6-14-9.1-20.6,0.6c1.1-2.4,2.2-4.8,3.2-7.2c0.2-0.5,0.1-1.1,0.1-1.6c-0.5,0.4-1.1,0.7-1.5,1.1
			c-5.1,4.9-14.1,5.8-14.9,15.1c-0.1,1.2-1.9,2.3-3,3.4c2.1-0.5,4.2-1.1,6.3-1.5c1.3-0.3,3.2,5.8,3.7,0.4c0.7-8.1,9.7-1.9,11.2-7.5
			c0-0.1,2.5,0.5,2.5,0.5c-0.4,3-0.6,6-1.5,8.8c-0.8,2.2-3.7,4-3.6,5.9c0.1,2.4,6.8,2.4,3.4,7.2c2.9-4.8,5.8-9.7,8.8-14.5
			c1.4-2.2,2.8-4.4,4.2-6.6c0.3,1.2,0.8,2.4,1,3.7c1.4,8.7,3.1,17.1,15.1,15.6c-0.9,1.4-2,2.7-2.7,4.2c-2,4.3-3.8,8.7-5.6,13.1
			c-2.2-2.4-4.1-5.5-6.8-7.1c-2.9-1.8-6.6-2.2-10-3.2c2.5,2.4,5,4.7,7.4,7.2c0.2,0.2-1.2,2.5-1.6,2.4c-1.8-0.4-3.5-1.3-5.3-2
			l0.1,0.1c-0.7-6.4-7.6-5.2-8.8-4c-4.5,4.8-8,10.6-11.3,16.4c-0.7,1.3,1.5,2.5-2.2,4.1c-7.1,3.1-13,9.3-18.8,14.9
			c-0.8,0.8,2.4,5.5,3.7,8.4c5.3-5.2,5.4,1.3,7.5,3.4c0.9,1.7,1.8,3.3,2.8,5c3.1,0.7,6.3,1.4,9.4,2c0,1.9-0.5,5.3,0,5.5
			c7.5,2,9.8-5.8,15-8.3c5.9,2.2,2.8-5.4,6.3-5.9c0.1,0-0.1-1.1-0.1-1.6c-1.8,0.9-4.1,1.4-5.3,2.8c-0.9,1-0.6,3.2-0.8,4.9
			c-5.9-0.6-4.8-11.5-13-8.9c4-5.8,8.1-11.6,12.1-17.4c0.1-0.1,0.8,0,1,0.2c0.4,0.4,1.2,1,1.1,1.3c-1,3.2-2.2,6.3-3.3,9.5
			c3.9-6.5,17.1,3.8,17.2-9.5c1.8,1.5,3.9,2.8,5.3,4.6c0.6,0.8-0.1,2.7-0.2,4.1c-0.2,4-0.3,7.9-0.4,11.8c0,0.7,0,1.5-0.4,1.9
			c-2.6,3.4-15,0.9-6.6,11c-3.4-2.2-9.1,9.5-11.1-1.9c-0.2-1.1-2.1-2-3.3-3c0,1.4-0.4,2.8,0,4.1c1.1,4,2.5,7.8,3.8,11.7
			c-4.2-1.1-8.3-2.3-12.5-3.3c-1.3-0.3-2.7-0.3-4.1-0.4c0.2,0.7,0.3,2.1,0.5,2.1c6.4,0.6,0.2,5.9,2.9,7.8c-2.1,0.3-4.3,0.5-6.4,1.1
			c-2.2,0.6-4.4,1.5-6.5,2.2c0.2,0.2,0.4,0.5,0.5,0.5c6.3-1.6,12.6-2.8,18.8,0.8c-1.3-2.2-2.6-4.5-3.7-6.8c-0.3-0.6,0.2-1.6,0.3-2.4
			c0.9,0.2,2.1,0,2.6,0.5c3.4,3,6.8,6.1,10.1,9.1c3.5,3.2-6.2,7.1,0.6,10.1c0.4,6.5-0.7,11.8-9.1,11.2c-0.4,0-1.2,1.8-1.5,2.8
			c-0.1,0.4,0.5,1,0.8,1.6c3.5-3.8,7.7-5.1,12.7-3.5c-1-4-2.1-8-3.1-12c3.2-3.2,4.5-9.7,11.4-6.7c0.1-0.4,0.4-0.9,0.3-1
			c-3.4-4.4-7.9-3-12.3-2.2c-1-8.8-0.1-16.9,7.9-22.5c2.6-1.3,5.2-2.6,7.8-4c-1.6,2.6,0.1,8.4-6.3,6.8c-0.1,0-0.6,1.4-1,2.1
			c2.9,0.5,5.7,1.1,8.6,1.4c0.5,0,1.5-1.4,1.6-2.2c1.2-6.2,2.3-12.5,3.4-18.7l-0.1,0.1c1.2-0.5,2.4-0.9,3.5-1.4
			c-0.5,0.9-1.4,1.8-1.4,2.7c0,1.4,0.4,2.9,1,4.1c0.1,0.2,1.7-0.2,2.6-0.3c-2.8-7.4,9.4-4,7.9-10.7c0-0.2,2.4-1.5,2.8-1.1
			c2.9,2.2,5.7,4.8,8.4,7.3c0.2,0.2-0.1,1-0.2,1.5c1.4-1.5,2.7-3.2,4.4-4.3c0.7-0.5,2.2,0.3,3.3,0.5c-7.8,4.1-10.2,15.6-21.3,15.1
			c-0.2,0-0.4,0.7-0.7,1.1l0.1-0.1c-4.6,1-6.9,2.9-8.3,8.3c-1.3,4.7-6.9,8.2-10.7,12.2c1.6-0.3,4.2-1.4,4.7-0.8
			c2.2,2.9,3.9,6.2,5.7,9.4c0,0.4,0.1,0.8,0.1,1.2c-6.2,8.6-12.5,17-18.4,25.8c-0.9,1.3-0.3,4.9,0.9,6.1c2,2,5.1,2.9,7.8,4.2
			c0.2-1.4,0-3.3,0.8-4.2c4.5-5.4-0.5,7.2,5.5,3c1.7-1.2,8.5,4.7,12.8,7.5c0.9,0.6,1.3,1.9,1.9,2.8c-0.5,0.2-1.3,0.7-1.5,0.5
			c-8.1-6-9.1-1.4-8.9,5.7c0,0.5-4,1.1-6.2,1.6c-0.2-0.9-0.4-1.8-0.6-2.7c-0.1-0.5-0.4-1.4-0.4-1.4c-2.9,0.8-7.4,0.8-8.3,2.6
			c-2,4.2,1.6,13.6-8.1,9.6c-9.2-3.7,4.9-7.6,1.2-12.3c-0.5-0.7-0.4-1.9-0.5-2.8c1.7-1.2,4.1-2.1,5.1-3.8c3.4-5.4-10.9-3.8-4.5-10.8
			c-0.8,0.4-1.9,0.5-2.4,1.2c-4.5,5.1-0.9,9.2,1.9,13.3c-3.4,1.6-6.8,3.3-10.2,4.9c-13-3.8-1.8-11.3-2.6-17l-0.1-0.1l5.8,6.7
			c0.6-2,0.6-4.9,1.9-5.7c8.5-5.6-8.1-5.8-2.2-10.5c1-0.8,2.3-1,3.5-1.5c-1.2-0.2-2.6-0.9-3.5-0.5c-1.1,0.5-1.8,2-2.8,3
			c-2.4,2.5-4.8,5.1-7.4,7.5c-1,1-2.4,1.5-3.7,2.2c0.6,0.5,1.1,1.1,1.7,1.5c1.1,0.6,3.4,1.3,3.4,1.4c-0.7,2.2-2.3,6.2-2.4,6.1
			c-12-4.5,3.2,4.5-2.6,5.5c-4,0.7-5.7,7.5,2.8,5.9c2.9-0.6,5.5-3.1,8.3-4.8c-0.9,18.2-16.2,16.9-27.8,20.5c3.5-3.3,6.9-6.6,10.4-10
			c-0.2,0.9-0.5,1.8-0.8,2.7c0.8-0.6,1.6-1.3,2.4-1.9c-1-1.2-1.9-3.4-3-3.5c-8.6-0.8-5.2,11.6-13,12.1c-0.2,0-0.3,2.1-0.5,3.2
			c-4-0.2-9.9,1.1-11.7-1c-5.7-6.8,4.7-7.4,5.9-12c0.7-3,6.7-3.7,3.4-8.3c2.5-5.6-8.1,0.8-4.9-5.4c-2.1,0.5-4.2,1-6.4,1.5
			c3.8,1.2,7.6,2.5,11.4,3.8c-5.7,5.1-7.6,13.8-16.4,16c-5.5,1.4,3,5.3-1.8,10.5c-7.6,8.4-16.4-5.6-21.1,4.2
			c-0.8,1.7,6.9,5.5-1.7,5.7c-2.8,0.1-5.6,3.7-8.4,5.8c0.8-3.5,1.6-7.1,2.4-10.6c1.2,0.6,2.3,1.1,3.4,1.7c-0.3-1.9,0-4.3-1.1-5.4
			c-1.2-1.1-3.7-1.2-5.5-1c-1.8,0.2-3.6,1.3-5.3,2c-0.4-1.8-0.8-3.5-1.2-5.2c3.5-0.5,6.9-0.9,10.4-1.6c2.2-0.4,4.4-1.3,6.6-1.9
			c-1.5-0.2-3-0.6-4.5-0.6c-6.2,0.2-12.5,0.6-18.8,0.7c-2.6,0,7.3,7.2-1.8,2.9c-2.1-1-4.4-1.3-6.6-2c3.7-6.7,1.8-20.7,16.8-13
			c0.8,0.4,2.5-1,3.7-1.6c-4.4-1-7.2-3.3-7.3-8.2c5.6-5.8,17.2-1.6,20-12.1c3.2-2.8,6.5-5.4,9.4-8.4c0.5-0.5-0.9-2.9-1.5-4.5
			c0.2-4,0.5-8.1,0.7-12.1c3.4-3.2,6.8-6.4,10.2-9.6c7.3,6.2,7.3,6.2,9,3.6c3.9-6.2-8.1-3.8-5.1-9.5c-1.3,2-2.6,4-3.9,5.9
			c-0.6-8.7-7.6-0.2-10.2-3.8c-0.1-0.1-2.3,0.7-2.4,1.3c-0.8,4.3-2.5,9,2.7,12c-1.2,1.3-3,3.9-3.4,3.6c-2.3-1.1-4.5-2.7-6.2-4.6
			c-0.7-0.8,0-2.9,0.1-4.4c-0.6,1.6-0.7,3.7-1.8,4.7c-8.7,7.7-2.4,7.2,3.7,6.9c-0.1,1.1,0.1,3.2-0.3,3.3c-5.8,1.9-11.4-4.3-18.6,1.7
			c-3.6,3-10,2.9-11.6,9.8c-1.1,4.8,8.4-1.2,4.5,5.1c6.6-8,13.3-2.3,20-0.1c-1.3,2.6-2,4.5-6.4,3.6c-3.4-0.7-7.6,2.4-11.5,3.8
			c0.9,1.2,1.9,2.4,2.8,3.6c-2.3,5.8-8.3,11.2-12.5,9c-5.1-2.8,8.3-5.3,3.4-12c-2.8-3.8-3.4-9.4-5-14.1c-0.1-0.3-0.9-0.3-1.3-0.5
			c-2.4-0.8,8.3-7.1-2.7-5.6c-3.8,0.5-6.8-7.5,2.4-8.9c2.6-0.4,4.9-2.3,7.3-3.5c-2.6-0.9-5.2-2.3-7.8-2.5c-3.5-0.3-4.3-4.4-3.6-4.4
			c18.1-0.8-7.1-6.8,1.1-8.4c0.6,0.2,1.1,0.3,1.6,0.5c3.4-1.7,6.7-3.3,10.1-5c1.7-1.2,3.5-2.4,5.2-3.6c-0.5-6.5-3.9-10-10.5-10.2
			c-0.4,0-1.2-1.5-1-1.7c2.9-3.8,4.4-5.5-0.6-10c-10-9-0.6-17.6-1.8-26.2c1.5,5.7,5.6,1.9,8.6,2.3c4.8,1.1,9.5,2.6,14.3,3.3
			c1.5,0.2,3.3-1.5,4.9-2.3c-0.5-0.2-1.1-0.7-1.6-0.7c-5.9-0.1-11.8-0.1-17.8-0.2c0.6-7.3-8.8-4.6-10.1-10c3.2,1.4,6.2,3.7,9.1-0.8
			c1.9-2.9,4.6-5.3,7-7.9c-2,0.6-4,1.2-5.9,1.9c-0.6-5.2-3.4-8.8-8.7-8c-7.5,1-5.5-4.6-6.7-8.2c5.3,0.5,11,2.5,15.7,1.1
			c7.5-2.2,15.2-5.8,21-10.8c2.1-1.8,0.9-12.1-1.9-14c-9.2-6.2-18.6-0.3-27.6,3c-2.8,1.1-5.3,3-8,4.5c2.2-3.2,4.4-6.5,6.8-9.6
			c1.1-1.4,2.8-2.4,4.2-3.6c-2.2,1.2-4.5,2.4-6.7,3.7c-8.2,4.7-9.7,20.4-24.2,14.6c3.9,5.5-10.3,4.7-3.9,11.1
			c0.4,0.4,1.2,0.6,1.8,0.9c-0.5,0.5-1,1.5-1.5,1.4c-2.5-0.2-5-0.7-7.5-1.1c-0.6-0.1-1.1-0.1-1.7-0.1c2.6,12-9.9,4.5-13.3,9.9
			c-1,1.6-8.3-0.8-12.7-1.2c-2.3-0.2-4.7-0.1-7.1-0.1c2.2-1.7,4.4-3.4,6.7-5.1c4.4-3.2,8.8-6.4,13.1-9.5l-0.2,0.2
			c2.7-1.7,9.2-0.6,5.4-7.2c13,3.4,22.3-6.4,33.6-9.2c-4.7-9.2,7-6.2,6.6-6.6c-3.5-3.2-7.8-5.4-11.8-8.2c-1.8-1.3-3.3-3-5-4.5
			c1.1,0,2.1,0,3.2-0.1c0.3-0.1,0.5-0.7,0.8-1.1c-1.3-0.6-2.6-1.6-3.9-1.6c-1.7,0-3.3,0.8-5,1.3c1.3-2.4,2.6-4.8,4-7.1l-0.1,0.1
			c12.2,14.1,24.1,26.6,43.5,8.9c4.9-4.5,7.8-7.6,6.4-13.9l0.1-0.3c-8.8-10-21.5-3.6-31.7-7.6l0.1,0.1c-1.6-8.2,3-19.1-9.8-22.4
			c0.2-0.5,0.6-1.5,0.7-1.4c4.7,1,9.2,2.5,14,3c2.3,0.2,6,6.6,7.3-0.9c2.5,0.9,5,2.1,7.6,2.5c0.9,0.1,2.2-1.7,3.3-2.7
			C87.5,188.9,83.2,187.2,78.8,185.5L78.8,185.5z M141.5,301.2c4.9,1,2.6-10.1,9.4-5.6c0.8,0.6,0.8,2.4,1.1,3.7
			c0.1-1.7,0.7-3.6,0.2-5c-0.7-1.8-2.2-4.1-3.7-4.5c-13.1-2.9-4.5,7.6-6.9,11.5c-4.8,2.8-9.7,5.6-14.5,8.4c1.4,0.4,2.7,0.8,4.1,1.2
			c3,0.9,6.6-8.3,9,0.6c-14.6,0.1-11.5,18.9-21.7,21.5c-9.2,2.3-6.3,13.6-14.6,14.9c-1.1,0.2-2.3-0.8-3.3-0.6
			c-1.1,0.2-2.2,1.1-3.2,1.8c4.8,0.5,9.5,1.1,14.2,1.6c-2.7-3.5-2.2-5.5,2.4-7.1c6.1-2.3,1.3,5.3,4.9,4.8c-6.6,2.1,5.6,3.8,0.1,5.8
			c2.2,1.1,0.6,6,7.1,3.3c6.4-2.7-1-7.5,3.6-8.1c1.1,1.3,2.2,2.6,3.3,4l2.6-10.1c0.7,1.4,1.5,2.9,2.2,4.3c2.4-2.8,4.8-5.5,7.1-8.3
			c-1.9-0.6-4.1-2.2-5.6-1.7c-2,0.7-3.4,3.1-5,4.7c-0.3-4.1-0.7-8.2-1-12.4c-1.6,3.4-3.1,6.8-4.9,10c-0.3,0.5-2.1,0.2-3.1,0.2
			c-0.6,0-1.5-0.4-1.5-0.7c-1.9-10.6,14.3-11.4,12.2-22.2c1.7,0.3,4.9,0.7,4.9,0.9c-0.2,3-0.5,6.8,3.9,5c1.6-0.6,1.9-5.6,1.8-8.5
			c0-1-2.7-2-4.2-3.1C142,307.9,141.7,304.6,141.5,301.2L141.5,301.2z M154.3,232.4c1.4,0.4,2.8,0.9,4.3,1c0.6,0,1.2-1.1,1.8-1.6
			c-3.2-1-6.4-2.1-9.6-3.1c-0.9-0.3-2.4-0.9-2.5-0.8c-1.8,4.1-3.4,8.2-5,12.3c0,0.1,1.5,1,1.7,0.9
			C148.1,238.2,151.2,235.3,154.3,232.4L154.3,232.4z M133.9,252.2c-1.9,0.3-4,0.4-5.8,1.1c-0.7,0.3-0.8,2-1.2,3.1
			c2.4-1.4,4.8-2.9,7.1-4.4c-0.9,1.9-1.7,3.8-2.6,5.7c3.5-2.5,6.9-5.3,10.6-7.5c1.7-1,4.8-0.3,6-1.5c1.3-1.4,1.1-4.2,1.5-6.3
			c-3.7,1.6-7.6,3.1-11.1,5.1C136.6,248.5,135.4,250.6,133.9,252.2L133.9,252.2z M151,389.2c1-1.9,2.2-3.7,2.8-5.6
			c1.7-5,3.1-10,4.7-15c-4.7,0.1-9.3,0.2-14,0.3c2.4,2.3,5.7,4.3,6.7,7.1c0.8,2.3-0.5,7.6-2,8.1c-11.8,3.9,1,3.7,0.8,5.5
			c-1.7,0.7-3.4,1.4-5.1,2l8.8,5.9C152.9,394.8,152,392,151,389.2L151,389.2z M129,290.9c3.2-0.8,6.5-1.5,9.7-2.5
			c0.1,0-0.5-2.2-0.8-3.4c-2.9,1.7-5.8,3.4-8.6,5.1c0-1.7,0-3.4-0.1-5.1c-0.2,0.2-0.5,0.4-0.5,0.6c-0.4,9-6.2,6-11.1,4.9
			c1.1-2.5,2.3-5.1,3.4-7.6c-1.5-0.5-3-1-4.5-1.5l0.2,9.9c-3.6,4.1-1.5,8.1,1.2,11.3c1.7,2.1,5.8,4.7,7.4,4
			C132.9,303.3,128.4,296.4,129,290.9L129,290.9z M211.7,183.6c-0.4-3.3-11.5-3.6-2.8-9.6c-0.5-0.4-1.1-1.1-1.5-1
			c-4.4,0.7-8.9,1.8-9.1,7.3c-0.1,2.2,1.4,4.4,2.2,6.7c0.5-1,0.8-2.4,1.6-3c1.2-1,2.7-1.4,4.1-2.1l0.5,4.1
			c-9.8,0.8-8.2,12.4-15,15.8c-1.3,0.7-3.4,0.1-4.4,1c-1.1,1-2.1,4.1-1.8,4.3c6.9,4.4,7.3-5.3,12.4-5.9c2.7-0.3,5.5-7,6.9,1.1
			c3.6-2.2,7.1-4.4,10.7-6.6c0.6-0.4,1.1-1.1,1.6-1.6c-0.6,0.1-1.2,0-1.8,0.2c-1.5,0.4-2.9,0.8-4.4,1.2c1-1.5,2.6-3,2.7-4.6
			c0.2-3.8,8.2,2.1,5.2-4.3c-1.8-3.8-4.5-7.1-6.8-10.7C212.1,178.5,211.9,181,211.7,183.6L211.7,183.6z M139.7,120.1
			c-5.7-0.2-6.8,3.2-6.1,6.5c4,17.8,20.6,10.2,31.2,15c0.8,0.4,2.3-0.9,3.5-1.4C161.1,129.6,151,123.2,139.7,120.1L139.7,120.1z
			 M114.7,189.3c-0.9,0.6-2.9,1.8-4.9,3c6.9,4.3,13.5,9.2,20.8,12.5c1.5,0.7,8.8-6.2,8.3-7.3C134.4,187.2,124.4,190.9,114.7,189.3
			L114.7,189.3z M114.6,212.5c-1.7-9.8-7.3-13.1-13.4-12.7c-4.2,0.3-8,4.6-12,7.1c7.1,2.5,14.1,5.3,21.2,7.5
			C113.4,215.4,115.3,214,114.6,212.5L114.6,212.5z M152.6,327.9c0.2,0.4,0.4,0.8,0.6,1.2c1.7-0.9,3.5-1.8,5.2-2.8
			c0.1,0-0.5-1.2-0.8-1.9c-8.8,4.2-7.4-1.7-6.8-6.8c0.1-0.5-0.4-1.1-0.6-1.7c-0.5,0.5-1.2,1-1.6,1.6c-7.1,10.1-3.6,16.9,7,21.1
			c2.6,1,5.9,2.7,8,1.8c2-0.9,2.8-4.5,4.2-7c-2,0.8-4.3,2.6-5.8,2.1c-4.3-1.5-8.3-4-12.4-6.2C150.5,328.9,151.6,328.4,152.6,327.9
			L152.6,327.9z M167.4,269.5c1.4,10.1,1.5,10.9,1.6,11.7c2.1-2.6,4.4-5,6.2-7.8c0.6-1,0.1-2.9-0.1-4.3c0-0.2-2-0.4-2.1-0.2
			c-2.6,5.8-8.2,5.3-13.1,6.8c-3.8,1.2-4.9,4.3-3,8c0.3,0.5,1.1,1,1.6,1c3.8-0.4,5.9-1.4,1.2-4.2c1.3-1,2.5-2.1,3.8-3
			c0.3-0.2,1.4,0.3,1.5,0.6c0.3,0.9,0.2,1.9,0.3,2.9c0.5-1.1,1-2.2,1.6-3.3c0.4-0.7,1.2-1.3,1.8-1.9
			C169,276.8,169.2,277.8,167.4,269.5L167.4,269.5z M124.8,408.8c7-3.8,12.6-7.1,18.4-9.9c0.9-0.5,2.9,1.2,4.4,1.9
			c0.4-1.3,0.8-2.6,1.2-3.9c-3.4,0-6.9-0.7-10,0.3c-3.6,1.2-6.6,4.1-10.1,5.7c-2.1,0.9-4.7,0.7-7.1,1
			C122.5,405.1,123.3,406.3,124.8,408.8L124.8,408.8z M150,405.4c3.8,2.7,7.5,7,9.2,6.3c15.6-6.6-12.1-3.9-2.3-9.8
			c-0.9-0.4-2.2-1.5-2.6-1.2C153.1,401.3,152.4,402.6,150,405.4L150,405.4z M127.1,271.6c-2.6,1.7-6.1,4-9.5,6.2
			c4.5-0.5,9-0.6,13.4-1.5c2-0.4,3.8-2.2,5.7-3.4C133.8,272.5,130.9,272.1,127.1,271.6L127.1,271.6z M29.9,272.2
			c-1.2-0.1-3.2-0.9-4.4-0.2c-3.6,2-7,4.6-10.4,7c1.1,0.8,2.8,2.5,3.2,2.2C22.2,278.5,25.9,275.4,29.9,272.2z M88.9,201.9
			c-1.4-0.4-2.9-1.2-3.8-0.9c-4.3,1.8-8.4,3.9-12.6,5.9c0.9,0.6,2.2,1.9,2.7,1.7C79.7,206.6,84.1,204.3,88.9,201.9L88.9,201.9z
			 M104.7,338.5c0.8-6.2,1.4-10.8,2-15.5c0-0.4-0.6-0.9-1-1.3c-1.6,3.3-3.7,6.5-4.5,10C100.8,333.4,103,335.6,104.7,338.5
			L104.7,338.5z M95,336.9c-1-1.8-2.2-3.9-3.3-6c-1.4,0.9-4,2.4-3.9,2.6c1.7,3.1,3.6,6.1,5.5,9.1C93.8,341,94.2,339.3,95,336.9
			L95,336.9z M62.6,174.7c1.8-1.1,3.8-2.3,5.7-3.4c-0.7-0.9-1.6-2.6-2-2.5c-3.7,0.9-7.2,2.1-10.8,3.2
			C57.5,172.8,59.6,173.6,62.6,174.7L62.6,174.7z M149,265.1h7.3c-2.9-1.9-5.8-3.7-8.7-5.6c-0.9,1.5-1.7,2.9-2.6,4.4
			C146.1,264.2,147.3,264.6,149,265.1L149,265.1z M126.4,422.3c-3.7,9.8-4.8,11.7-4.9,13.7c-0.1,1,2.4,3,2.7,2.9
			c1.8-1,3.7-2.4,4.8-4.1C129.6,433.9,128.6,432,126.4,422.3L126.4,422.3z M107.6,249.9c3.8,1.9,6.4,3.2,9,4.4
			c0.2,0.1,0.9-1.1,1.4-1.8c-2.4-1.5-4.8-3.1-7.2-4.4C110.4,247.8,109.6,248.7,107.6,249.9z M136.3,372.1c-1.8-0.9-3.3-2.2-4.9-2.3
			c-0.7-0.1-2.1,2.2-2.2,3.5c-0.1,1,1.4,2.1,2.1,3.2C132.8,375.1,134.4,373.7,136.3,372.1z M157,40.5c-1.8-1.5-3-3.2-4.5-3.5
			c-1-0.2-2.4,1.6-3.7,2.5c1.4,1,2.7,2.4,4.3,2.9C154.1,42.5,155.4,41.3,157,40.5z M212.3,359.9c-0.5-0.4-1.4-1.1-2.4-1.9
			c-1.4,2.5-2.9,5.1-4.2,7.7c-0.1,0.2,0.6,0.8,0.9,1.3C208.5,364.7,210.4,362.4,212.3,359.9L212.3,359.9z M162.4,253.8
			c-1.3,0.9-2,1.5-2.7,2c2.1,1.7,4.2,3.3,6.4,4.9c0.1,0.1,1.1-1.1,1.7-1.8C166.1,257.3,164.3,255.6,162.4,253.8L162.4,253.8z
			 M174,392.7c1.8-2.8,4.2-5,4.2-7.2c0-2.1-2.4-4.3-3.8-6.5c-0.2,3.8-0.4,7.6-0.5,11.3C173.8,390.9,173.9,391.5,174,392.7L174,392.7
			z M160.5,188.8c2.1,1.2,4,2.3,5.9,3.3c0.2,0.1,0.8-0.6,1.2-1l-4.8-5.7C162.2,186.3,161.6,187.3,160.5,188.8L160.5,188.8z
			 M195.9,259.3c0.6,1,1.7,2.7,2.8,4.3c0.3-0.6,1.1-1.3,0.9-1.6c-1-2.4-2.1-4.6-3.2-6.9C196.3,256,196.2,257,195.9,259.3
			L195.9,259.3z M114.1,273.5c-4.8-0.2-8-1.5-8.2,2.8c0,0.3,0.8,1.1,1,1c2.8-1.1,5.6-2.4,8.4-3.6
			C114.1,273.5,112.9,273.3,114.1,273.5L114.1,273.5z"/>
		<path d="M296.2,163.6c-8.3,5.9-3,15.3-5.8,22.6c6.3,0.2,12.1,3,18.4,3.9c15.2,2.1,29.5-2.4,44.2-1.5c3.3,0.2,6.8-3,10.2-4.6
			c-2.6,11.4-12.7,6.1-19,7.7c-11.5,2.7-23.6,3.6-35.5,3.9c-7.6,0.2-8.9,5.9-12.2,10.2c-5,6.4-4.4-5.1-8.1-2.5
			c-0.7,0.1-1.4,0.2-2.1,0.3c-5.9-3,3.8-4.1,0.8-6.9c-0.7-0.6-1.2-2.5-1.3-2.5c-4.5,1.4-9.6,9.3-12.9,1c-0.9-2.2,8.6-8.4,13-13.2
			c1.7-1.8,2.3-4.5,3.4-6.8c-2.6,2.3-5.2,4.5-7.9,6.8c-2.4,2.1-4.8,4.3-7.2,6.4c-1-2-1.9-4-2.9-6c2.9-0.9,6.8-0.8,8.4-2.7
			c3.9-4.9,6.7-10.6,9.9-16c-3.3-0.6-6.5-1.1-9.8-1.9c-0.2-0.1,0.7-3.5,0.3-3.7c-3-1.4-9.8,0.7-5.9-6.5c0.7-1.3,3.5-1.5,5.4-2.1
			c5.2-1.5,10.5-2.9,15.7-4.3c0.5-0.1,1.1-0.2,1.6-0.3c-0.5,4.7-0.8,9.3-1.4,14c-0.2,1.7-6.7,3.8,0.5,4.8L296.2,163.6L296.2,163.6z"
			/>
		<path d="M200.4,237.1c0-0.4-0.1-0.7-0.1-1.1c4.4-19,21.6-5.6,31.3-12.2c3-2.1,8.8,1.6,12.5-3.1c1.6-2.1,4.6-3.2,7-4.8
			c0.3,0.6,1.1,1.8,0.9,1.9c-2.1,1.9-4,4.6-6.4,5.3c-8.8,2.6-17.7,4.3-26.5,6.7c-1.2,0.3-2.2,2.9-2.5,4.6c-0.2,1,1.2,3.3,1.8,3.3
			c1.4-0.1,2.7-1.3,4.2-1.9c4.3-1.5,8.6-2.9,13-4.3c-2.5,1.8-5.1,3.5-7.5,5.5c-0.5,0.4-0.3,1.8-0.4,2.7c-1-0.3-2-0.7-3-1
			c-0.3,3.1-0.7,6.2-1,9.2c1.9-0.1,3.8-0.1,5.7-0.1c4.4,1.7,5.4,3.9,5.4,9.4c0,3.9-8.6,9.7,0.6,13.5c0.5,0.2-1.1,5.4-1.7,8.2
			c-4.7-1.7-11.2-2-13.8-5.3c-3.4-4.3,2.4-0.2,3.2-1.7c0.2-0.5,0.5-1.3,0.3-1.6c-2.7-3.4-5.4-6.7-8.2-10
			c-3.6-5.8-8.4-11.2-10.4-17.4C203.7,239.9,210.3,233.7,200.4,237.1L200.4,237.1z M210.9,228.8c-2.9,5.4,3.9,12.7-3.9,13.9
			c1,0.8,2,2.5,2.9,2.4c8.7-1,1.3-8.5,4.5-11.8C214.4,233.1,213,231.5,210.9,228.8L210.9,228.8z"/>
		<path d="M115.4,70.3c-6.8,13.3-19.3-1.6-27.6,5.4c-0.5,0.4-2.5-0.9-3.8-1.4c0.5-0.9,0.8-2.1,1.5-2.7c1.2-1,2.6-1.7,3.9-2.4
			c-3.2-0.9-5.2-7.7-9.8-1.8c-0.6,0.7-2.8,0.2-4.2,0c-0.1,0-0.5-1.7-0.1-2.1c4.1-4.5,7.6-10.7,12.8-12.7c4.4-1.7,13.3-0.2,15.6,3
			c3.7,5.3,6.3,11.1,12.5,14.3c0.1,0,0.1,0.3,0.1,0.4C115.9,70.3,115.7,70.3,115.4,70.3c-2-0.8-3.9-1.6-5.9-2.3
			c-1.9-0.7-4-2-5.9-1.8c-1.7,0.2-3.1,2.2-4.6,3.4C104.4,69.9,109.9,70.1,115.4,70.3L115.4,70.3z"/>
		<path d="M250.8,77.8c-1-2.3-0.2-6.7,3.3-10.7c0.4-0.5-0.4-2.1-0.7-3.2c-0.5,0.4-1.1,0.7-1.6,1.2c-1.9,1.5-3.8,3.1-5.7,4.6
			c-0.2-3.4-0.3-6.9-0.5-10.3c1.8,2,3.4,5.8,6.5,2.4c7.6-7.9,4.1,1.4,4.9,3.2c0.8,1.8,0.6,4.1,0.8,6.2c0.9-2.2,1.9-4.3,2.5-6.5
			c1.1-3.7,1.1-8.2,6.2-8.7c1.8-0.2,3.6,1.1,5.5,1.7c-2.2,2.7-4.5,5.4-6.6,8.2c-2.8,3.7-7.5,5.1-5.7,12.9c1.2,5.1-7,12.3-10.9,18.6
			c-5.6-4-8.6,5.2-10.8,3.6c-4.7-3.5,1.6-6.9,2.4-10.6c0.5-2.2,2-4.1,3.1-6.1c0.4,2,0.2,5.3,1.1,5.7c6.6,2.4,5.1-4,6.8-6.9
			C251.7,82.3,251.3,81.3,250.8,77.8L250.8,77.8z"/>
		<path d="M316.9,142.1c-7.9-4.5-24,4.8-25.7-13.2c-0.4-3.8-1-7.7-1.6-11.5c5.9,0.9,11.8,1.8,17.7,2.7c-1.1,4.9,6.6,10.3-0.8,14.9
			c-0.6,0.4-0.4,2-0.5,3.1c2.9-0.3,5.9-0.3,8.7-0.9c3.3-0.7,6.5-1.9,9.8-2.9c0,0,0.4,0.7,0.3,0.8
			C322.2,137.4,319.5,139.7,316.9,142.1L316.9,142.1z M306.9,131.6c-1.7-2.8-2.8-4.7-3.9-6.5c-1.2,3.3-2.5,6.6-3.4,10
			c-0.1,0.5,1.6,1.6,2.5,2.4C303.5,135.6,305,133.9,306.9,131.6L306.9,131.6z"/>
		<path d="M80.3,86.3c2.1,2.7,1.7,1.6,1.1,1.5c-3.1-0.3-6.2-0.6-9.2-0.4c-1.5,0.1-2.9,1.4-4.3,2.2l0.2-5.8c1.4,0.3,3.6,1.2,4.2,0.7
			c10.6-10.5,22.2,7.4,32.9-1.2c1.2-0.9,3.6-0.3,5.5-0.3c-2.4,2.2-4.5,5.3-7.3,6.5c-8,3.4-16.3,6.2-24.5,9.1c-1,0.3-2.4,0.2-3.4-0.2
			c-0.8-0.4-1.3-1.6-1.9-2.4c1.8-0.9,3.7-2.6,5.5-2.5C82.1,93.7,83.1,93,80.3,86.3z"/>
		<path d="M214.6,46.6c-1.1,13.9-5,24.9-18,29.9c-2,0.8-2.9,4.6-4.4,6.9c0,0-1.1-0.4-1.1-0.7c-0.1-2.7-1.2-7.2,0-7.9
			c11.8-7.1,15.9-19,20.7-30.7c0.1-0.3,0.9-0.5,0.9-0.5C213.7,45.2,214.7,46.8,214.6,46.6L214.6,46.6z"/>
		<path d="M169,449.1c1.8-1.6,3.5-3.1,5.3-4.7c-0.6-0.6-1.3-1.8-1.8-1.7c-3.3,0.5-6.6,1.3-9.9,2c-2.1,0.5-4.1,1.4-6.1,1.3
			c-1-0.1-2.9-2.7-2.6-3.2c1.2-2.1,3-3.8,4.6-5.7c0.3,1.5,0.6,3,1.1,4.4c0.2,0.6,1.4,1.5,1.6,1.4c2.1-1.1,5.8-2.6,5.7-3.7
			c-0.8-8.2,7.6-7.5,10.7-11.7c0.2-0.3,1.2-0.1,1.8-0.2c-1.4,8-1.8,16.3-4.6,23.8c-1.8,4.6-4.8,1.6-5.7-2.1L169,449.1L169,449.1z"/>
		<path d="M226,73.5c7.1,0.3,9.4-3.5,7.4-11.3c-0.3-1.1,1.3-2.7,2-4.1c0.5,1,1.4,1.9,1.6,2.9c1.2,8,9.6,16.5-1.2,23.8
			c-1.2,0.8-4.5,0.5-5.2-0.5c-2.6-3.4-4.4-7.3-6.5-11C224.7,73.3,225.4,73.4,226,73.5z"/>
		<path d="M35.4,242.4c-4,0.1-8,0.3-11.9,0.4c2.8-2.1,5.7-4.2,8.2-6.6c0.2-0.2-2-2.6-2.6-4.2c-0.5-1.2-0.8-2.8-0.4-3.9
			c0.2-0.6,2.1-0.6,3.2-0.8c-0.4,0.9-0.8,1.8-1.2,2.7c4.6,1.4,9.2,2.7,13.6,4.5c2.3,0.9,7.6-1.2,6.4,4c-1.4,6.3-6,7.5-11.8,5.1
			c2.3-1,4.5-2.1,6.8-3.1c-0.4-0.4-1-1.2-1.2-1.1C41.5,240.5,36.8,236.8,35.4,242.4L35.4,242.4z"/>
		<path d="M216.3,361.2c0-0.4-0.1-0.8-0.1-1.2c4.8-1.6,11.6,3,14.3-4.8l-0.1,0.1c4-2.3,9.6,3,12.9-2.8c1.3,1,2.6,2,3.8,3
			c-1.1,0.3-2.4,0.4-3.4,1c-5,3.1-8.3,9.3-15.5,8.4c1.2,1.4,2.2,3,3.6,4.1c0.8,0.6,2.1,0.4,3.3,0.6c-5.3-1.2-10.7-2.5-15.9-3.9
			c-0.2,0,0.1-2,0.3-3c0.1-0.4,0.5-0.7,0.7-1.1C218.9,361.3,217.6,361.3,216.3,361.2L216.3,361.2z"/>
		<path d="M49.3,160.9c-7.8-3-18.1,1.5-19.6-10.3c-0.2-1.7-0.2-3.4-0.2-5.1c5.6,11.9,19.2,4.5,27,11.1
			C53.9,158.2,51.2,159.7,49.3,160.9z"/>
		<path d="M169,449.1l0.1-0.3c-6.5,5.6-0.2,21.5-15.8,19.9c-1-0.1-1.9-1-2.8-1.5c0.7-0.1,1.4-0.1,2.1-0.2c2.3-0.1,4.7-0.2,7-0.3
			c-0.2-3.3-0.3-6.6-0.5-9.8c-1.6,0.7-3.3,1.9-4.9,1.9c-1.9,0-3.8-1-5.8-1.6c1.2-0.6,2.4-1.6,3.7-1.7c6.5-0.6,10.7-4.3,14.2-9.5
			c0.7-1,2.9-0.9,4.4-1.3C170.1,446.2,169.6,447.6,169,449.1L169,449.1z"/>
		<path d="M209,423.1c17.6-0.9,6,12.8,9.5,19c-6.3-8.4-7.1,7-12.4,2.9l0.1,0.1c1.8-8.3-3.1-10-9.8-10c-0.3,0-0.6-0.9-0.9-1.3
			c1.2-0.2,2.5-0.2,3.7-0.5c3.3-0.8,9.8,3.8,8.6-5c0.7,2.5,0.9,5.4,2.3,7.3c0.7,1,5.2,0.8,5.5,0.1
			C218.1,429.2,212.2,426.8,209,423.1L209,423.1z"/>
		<path d="M206.1,444.9c4.5,7.6,2.8,10.3-5.9,7.8c0.4,0.9,0.5,1.8,1.1,2.6c0.6,0.8,1.5,1.4,2.3,2.1c-1.5,1.5-4.1,4.3-4.3,4.1
			c-3.8-2.9-7.3-6.2-10.8-9.5c1.8-0.7,3.6-1.5,5.5-2c0.7-0.2,1.5,0,2.3,0c-3.1-14.5,10.3,3.8,10-5.1L206.1,444.9L206.1,444.9z"/>
		<path d="M133.2,456.6c-1.1-1.2-3.3-3-3.1-3.5c2.1-4.3,3.8-10.8,7.2-11.8c4.1-1.3-1.1,2.3-0.1,3.8c0.8,1.1,1.5,2.3,2.3,3.5
			c0.7-0.8,2.2-1.8,2.1-2.4c-1.1-5.2,2.3-7.6,5.8-10.1c-0.3,3.6,0.1,7.4-1,10.7c-0.8,2.3-3.4,4.1-5.6,5.7
			C138.8,454,136.2,455,133.2,456.6L133.2,456.6z"/>
		<path d="M253.9,107.4c-0.1,0.1,2.1-1.3,4.4-2.6c-1.7,0.4-3.4,1.2-5.1,1.1c-2.9-0.2-5.7-1.1-8.6-1.6c0.3-0.5,0.6-1.4,1-1.5
			c3.3-0.9,6.7-1.9,10.1-2.6c2-0.4,4.2-0.3,6.3-0.6c4.1-0.5,10.8-2.7,11.8-1.2c3.6,5.5-3.7,2.7-5.5,4.4c-4.2,3.8-10.7,5.3-16.4,7.4
			c-1,0.4-2.6-0.7-3.9-1.2c-0.2-0.1-0.3-0.6-0.4-1C248.8,108,249.9,107.8,253.9,107.4L253.9,107.4z"/>
		<path d="M242.5,145.6c-9.1-0.9-17-1.6-25-2.4c2.6-2.5,5.5-7.3,7.9-7c6.5,0.7,12.7,3.5,19.1,5.5
			C243.6,143.4,242.8,145.1,242.5,145.6L242.5,145.6z"/>
		<path d="M190.1,275c3.8,13.9-1.7,10.4-10.7,7c-7.7-2.9,4.1-4.7-0.6-5.8c1.2-1,2.3-2.5,3.7-2.9c0.9-0.3,3.2,0.8,3.3,1.5
			c1.2,7.6,3,0.5,4.5,0.2C190.2,275.1,190.1,275,190.1,275L190.1,275z"/>
		<path d="M207.9,385.5c-2-0.8-3.4-1.3-4.8-1.8c2.8-5.3,5.9-10.7,12.6-10.8c1.7,0,3.4,4.8,5.1,7.3C216.4,382,212,383.8,207.9,385.5
			L207.9,385.5z"/>
		<path d="M237.3,421.7c3.2,9.5-4.3,8.4-8.7,9.7c-1.8,0.5-4.2-1.2-6.3-1.9c7.5-0.4,1.4-9.9,7-10.7
			C232.1,418.5,235.2,420.9,237.3,421.7L237.3,421.7z"/>
		<path d="M251.9,334c-10.1,7.4,1.2,4.2-1.3,6.4c-2.2,2.1-5.3,3.2-8,4.8c-2.6-4.8-12,3.5-10.8-4.6C232.3,338,242.6,336.9,251.9,334
			L251.9,334z"/>
		<path d="M257.5,96.1c-0.2-5.2-0.5-7-0.3-7c8.4-2.6,2.1-13,8.8-16.4c2.8-1.4,5.6-3.1,8.3-4.7c-1.9,3.8-1,8.5-7.4,10.5
			C263.3,79.7,261.8,87.5,257.5,96.1L257.5,96.1z"/>
		<path d="M74.8,361.8c-0.6-0.2-1.1-0.3-1.6-0.5l-3.3-5.4c7,1,12.2-11.7,20.3-2.8c-1.7,1.2-3.5,2.4-5.2,3.6
			C79.7,354.9,76.5,356.9,74.8,361.8L74.8,361.8z"/>
		<path d="M242,328.9c4.3-3.5,8.6-7,13.1-10.3c0.3-0.2,2.4,0.9,2.3,1.1c-1.4,5.5-3,11-4.5,16.5c-2.2-1.4-4.4-2.8-6.6-4.2
			c1.7-1.1,3.3-2.2,5-3.3c0.6-0.4,1.9-0.5,2-0.9c0.2-1-0.1-2.2-0.2-3.3c-1.7,0.6-3.3,1.1-5,1.7C246,327.1,244,328,242,328.9
			L242,328.9L242,328.9z"/>
		<path d="M296.1,163.7c6.6-0.4,10.4,2.9,11.8,9.1c0.1,0.7-1.8,1.8-2.7,2.7c-3.2-3.8-12.3-3.2-8.9-11.9L296.1,163.7L296.1,163.7z"/>
		<path d="M213.6,210.6c2.1-0.7,4.2-1.4,6.2-2.1c-3.6,4.3-7.2,8.5-10.7,12.8c-2.6-2.7-9.1,3.9-9.6-3.9l-0.1,0.1
			C204.1,215.3,208.9,212.9,213.6,210.6L213.6,210.6z"/>
		<path d="M321.2,158.6c3.1,3.3,5.4,5.6,7.4,8.1c1.3,1.5,6.6-2,3.9,0.9c-2.6,2.8-9.9,1.3-15.1,1.7
			C318.8,165.5,320.1,161.6,321.2,158.6L321.2,158.6z"/>
		<path d="M63.7,338.4c4.7,2.3,8.4,4.1,12,5.9c-1.1,0.5-2.1,1.3-3.1,1.3c-3.9-0.3-7.8-1-11.6-1.5C61.6,342.6,62.3,341.2,63.7,338.4
			L63.7,338.4z"/>
		<path d="M302.7,239.1c-3.1-2.3-5.2-3.9-7.4-5.6c2.3-1.9,4.5-3.7,6.8-5.6c1.4,2.3,3,4.5,3.9,7C306.3,235.6,304.4,237.1,302.7,239.1
			z"/>
		<path d="M114.3,451.2c1.1-1.9,1.9-5.3,3.1-5.4c2.9-0.3,6.2,0.5,9,1.7c0.9,0.4,0.7,3.2,1,4.9c-3.3-2.4-6.4-3.1-9.4,0.5
			c-0.6,0.7-1.4,1.1-2.1,1.6C115.4,453.5,114.9,452.5,114.3,451.2L114.3,451.2z"/>
		<path d="M119.7,127.7c3.1-0.1,8.4-1.3,8.9-0.2c1.9,4.2,0.7,8.5-5.2,7.7c-1.5-0.2-2.4-4-3.6-6.1
			C119.8,128.6,119.8,128.2,119.7,127.7L119.7,127.7z"/>
		<path d="M72,155.1c-2.7,2.9-4.9,6.9-6.2,6.6c-5.9-1.4,2.5-5.6-0.7-7.2c-5.6-2.7-0.8-4.3,0.5-4C67.8,151.1,69.6,153.3,72,155.1
			L72,155.1z"/>
		<path d="M50.3,225.2l-4.2-0.3l0.1,0.1c-0.2-1.9,2.1-4.4-2.3-5.3c-1.6-0.3-2.8-5.1-3.1-7.9c-0.1-1,3.5-4.5,4.9,0.4
			c0.5,1.9,0.7,3.8,1.3,5.6c0.9,2.5,2.1,4.9,3.2,7.4L50.3,225.2L50.3,225.2z"/>
		<path d="M256.2,137.5c-1.6,2.8-3,5.1-4.4,7.5c-1.2-2.2-3.2-4.4-3.2-6.6c0-1.5,3-3,4.7-4.4C254,134.8,254.7,135.7,256.2,137.5
			L256.2,137.5z"/>
		<path d="M197.4,286.6c-5.3-1-3.4,10.5-8.7,6.2c-6.8-5.6,4.5-3.5,4.7-7.5c0.1-1.6,4.1-3.1,6.3-4.6c-0.8,2-1.6,4-2.4,6L197.4,286.6
			L197.4,286.6z"/>
		<path d="M170.9,316.4c-2.6,2.3-5.2,4.6-7.9,6.9c-0.9-1.7-1.8-3.3-2.8-5c3-1.6,6-3.3,9-4.9l-0.1,0.1
			C169.8,314.4,170.4,315.4,170.9,316.4z"/>
		<path d="M299.5,208.9c2.9-0.6,4.3-1.4,5-1c3.2,1.8,6.2,3.9,9.2,5.9c-2.1,0.6-4.5,2-6.4,1.6C305.4,214.9,303.9,212.6,299.5,208.9
			L299.5,208.9z"/>
		<path d="M187.4,472.2c-6.5-5.6-9.6-8.2-12.5-11.1c-0.2-0.2,0.9-2.8,1.4-2.8c2.4,0.1,4.8,0.7,7.2,1.2
			C177.1,463.7,184,464.7,187.4,472.2L187.4,472.2z"/>
		<path d="M315.2,180.6c-1.9,1.8-3.2,5.9-6.7,2.1c-1-1.1-1.1-3.1-1.6-4.7c3.1-0.4,6.2-0.8,9.3-1.2
			C315.8,178.1,315.5,179.4,315.2,180.6L315.2,180.6L315.2,180.6z"/>
		<path d="M139.1,92.3c-5.6,0-10.3,0-15.1,0c0.9-0.6,2.2-2,2.8-1.8c4.6,1.9,10.2-7.5,14.1,1.3C140,92,139.1,92.3,139.1,92.3
			L139.1,92.3z"/>
		<path d="M68.5,212.3c0.7,1.4,1.5,2.8,2.2,4.1c-3.2,0.7-6.7,2.6-9.4,1.8c-5.9-1.8-1.3-3.2,0.8-4c2.1-0.8,4.3-1.2,6.5-1.8
			L68.5,212.3L68.5,212.3z"/>
		<path d="M18.5,261.5c-6.4,6.5,7,3.4,4,8.2l0.2-0.2c-3.6-1.8-7.4-3.3-10.7-5.5c-0.6-0.4,0.7-3.4,1.1-5.2
			C14.9,259.7,16.7,260.6,18.5,261.5L18.5,261.5z"/>
		<path d="M135.9,149.6c-1.6,3.8-3.4,7.9-5.1,12c-0.4-0.9-1.4-1.8-1.3-2.5c1.3-5.2,2.8-10.3,4.2-15.5
			C134.3,145.3,134.9,147,135.9,149.6L135.9,149.6z"/>
		<path d="M263.2,223.5c1.5-0.8,2.9-1.7,4.4-2.5c0.9,2.7,1.9,5.4,2.4,8.2c0.1,0.5-1.9,1.4-3,2.1c-1.4-2.4-2.8-4.8-4.1-7.1
			C263,224,263.1,223.7,263.2,223.5L263.2,223.5z"/>
		<path d="M224.4,420.1c-1.4-0.4-3.2-0.5-4.1-1.4c-2-1.9-6.3,8.7-6.4-1.2c3.4,5.7,8.4-8.1,11.3,1
			C225.5,419.6,223.8,421.2,224.4,420.1z"/>
		<path d="M271.9,162.4c-3,3.7-6.3,7.7-9.6,11.7c0,0-1-0.7-0.9-0.8c3-4.9,6-9.8,9-14.6C270.7,159.6,271.1,160.4,271.9,162.4
			L271.9,162.4z"/>
		<path d="M130.7,43.9c-1.3,1.2-2.7,2.3-4,3.5c-0.8-0.5-1.6-1-2.4-1.5c2.2-2.9,4.5-5.8,6.7-8.7C130.9,39.4,130.8,41.6,130.7,43.9
			L130.7,43.9z"/>
		<path d="M245.8,412.7c-0.8,5.4-4.5,7-9.1,6.1c-4.5-0.8-2.3-3.6-0.2-4.5C239.3,413.2,242.6,413.2,245.8,412.7L245.8,412.7
			L245.8,412.7z"/>
		<path d="M237.4,292.3c-0.6,0.4-1.1,1.2-1.7,1.2c-1.8,0-3.5-0.3-5.3-0.5c1-3,2-6.1,3-9.1C234.8,286.6,236,289.3,237.4,292.3z"/>
		<path d="M230.5,355.1c-3.6-0.7-7.3-1.4-10.9-2.1c1.1-5.3,5.8-1.7,8.4-3.2c0.8,1.8,1.7,3.6,2.5,5.5L230.5,355.1z"/>
		<path d="M222.8,50.7c-2.3,3.5-4.5,6.7-6.6,9.9c-0.5-0.8-1.7-1.8-1.5-2.2c1.7-3.5,3.7-7,5.6-10.4C221.3,49,222.3,50.1,222.8,50.7
			L222.8,50.7z"/>
		<path d="M224,377.1c10.9,2.6,6.3,5.8,4.1,8.6c-0.4-1.5-0.3-3.8-1.2-4.2c-1.3-0.6-3.2,0.1-4.9,0.3C223,379.8,223.8,377.7,224,377.1
			L224,377.1z"/>
		<path d="M263.2,223.5c-0.1,0.2-0.2,0.5-0.4,0.7c-2.1-0.8-4.3-1.6-6.4-2.4c0.8-1,1.4-2.6,2.3-2.8c2.1-0.5,4.3-0.3,6.5-0.4
			C264.5,220.2,263.9,221.8,263.2,223.5L263.2,223.5z"/>
		<path d="M166.2,302c0.3,0.4,1.7,2.2,3,4c0.1,0.1-0.5,0.6-0.8,1c-3.6-6.9-5.8,1.2-8.8,0.8C160.7,305.3,158,299.9,166.2,302
			L166.2,302z"/>
		<path d="M317.8,231.1c-1.7,0.7-3.4,2.1-5.2,2.1c-1.4,0-2.8-1.6-4.2-2.4c1.5-1.9,2.9-3.9,4.3-5.8
			C314.3,226.9,316,228.9,317.8,231.1z"/>
		<path d="M258.8,199.8c1.2,0.6,0,0-1.1-0.6c3-2.4,6.1-4.8,9.1-7.2c0.1,0.5,0.6,1.2,0.4,1.4C265.3,195.8,267.8,201.8,258.8,199.8
			L258.8,199.8z"/>
		<path d="M328.9,245.1c-3.1,0.8-6,1.8-8.9,2.2c-1.1,0.1-2.3-1.4-3.5-2.2c0.5-0.3,1.4-0.9,1.4-0.8
			C321.4,248,324.9,237.4,328.9,245.1L328.9,245.1z"/>
		<path d="M241.9,328.8c-0.7,1.3-1.1,3.9-2.6,4.6c-1.9,1-4.8-0.6-6.7-1c1.1-1.2,2-3.1,3.8-3.4c1-0.2,2,0,3,0.2
			c0.9,0.2,2,0.6,2.6-0.4C242,328.9,241.9,328.8,241.9,328.8L241.9,328.8z"/>
		<path d="M169.4,313.3c-2-0.4-3.9-0.8-5.9-1.1c0.8-1.3,1.8-3.8,2.4-3.7c2,0.3,3.9,1.5,5.9,2.4c-0.8,0.8-1.7,1.7-2.5,2.5
			L169.4,313.3L169.4,313.3z"/>
		<path d="M104.1,97.4c-4.8,4.3-5.9,6.2-7.2,6.3c-1.6,0.1-3.3-1.1-5-1.8c1.7-2.1,3.1-4.8,5.3-6.1C98.4,95.1,101,96.7,104.1,97.4
			L104.1,97.4z"/>
		<path d="M291.2,93.6c2.8,0.5,3.8,0.7,4.9,0.9c-4.4,1.9-8.7,3.9-13.1,5.7c-0.5,0.2-1.5-0.7-2.2-1.1C284.6,97,288.5,94.9,291.2,93.6
			L291.2,93.6z"/>
		<path d="M258.6,188.5c-0.2-0.2-0.8-1-0.8-1c2.7-2.7,5.4-5.3,8.3-7.8c0.2-0.2,1.5,0.9,2.3,1.4C265.3,183.5,262.1,185.9,258.6,188.5
			L258.6,188.5z"/>
		<path d="M249.1,161.2c1.2-9.8,1.4-11.3,1.6-12.9c1.2,2.9,3,5.7,3.4,8.7c0.2,1.5,0.1,8.5-4.4,2.1
			C248.9,158,250.4,155.2,249.1,161.2L249.1,161.2z"/>
		<path d="M231.1,398.1c-0.7,0.6-1.3,1.5-1.5,1.4c-2.4-1.2-4.8-2.6-7.1-3.9c1.3-1.8,2.7-3.6,4-5.5
			C227.9,392.6,229.4,395.2,231.1,398.1L231.1,398.1z"/>
		<path d="M214.4,316.3c-0.4-4.8-0.8-9.6-1.2-14.4c2,2.5,5,4.9,5.6,7.7c0.4,1.9-2.8,4.5-4.4,6.7L214.4,316.3z"/>
		<path d="M168.6,108.9c-1.4-1.4-2.8-2.8-4.2-4.1c-1.1-2.7-2.3-5.3-3.4-8C166.7,98.8,168.2,103.5,168.6,108.9z"/>
		<path d="M267.8,211.2c-1.9-1-2.6-1.4-3.4-1.8c2-1.8,3.9-3.7,6-5.3c0.2-0.2,1.4,0.9,2.1,1.4C271,207.3,269.5,209.2,267.8,211.2
			L267.8,211.2z"/>
		<path d="M221.4,286.8c-0.9,3.3-1.6,5.9-2.3,8.4c-0.4-1.2-1.2-2.4-1.1-3.6c0.1-3.2,0.6-6.5,1-9.7
			C219.9,283.7,220.7,285.5,221.4,286.8L221.4,286.8z"/>
		<path d="M315.1,180.7c3,3.3,4.1-8.3,7.2-0.9c0.3,0.8-2.5,3-3.9,4.5C317.4,183,316.3,181.8,315.1,180.7L315.1,180.7L315.1,180.7z"
			/>
		<path d="M218.6,224.9c-1.3-1.1-1.9-1.7-2.6-2.3c2.8-2.2,5.6-4.4,8.4-6.5c0,0,0.9,1,0.9,1.1C223.1,219.7,221,222.2,218.6,224.9
			L218.6,224.9z"/>
		<path d="M301.1,226.9c-1.5-1.3-3.2-2.7-4.9-4.2c0.3-0.4,0.8-1.1,1-1c3.5,0.9,6.9,1.9,10.4,2.9
			C305.7,225.2,303.9,225.8,301.1,226.9L301.1,226.9z"/>
		<path d="M196.3,44.2c0-0.3,0.1-0.6,0.2-0.8c0.9,1.1,2.9,2.6,2.7,3.1c-1.2,2.4-2.9,4.5-4.5,6.8C195.2,50.2,195.7,47.2,196.3,44.2
			L196.3,44.2z"/>
		<path d="M192,428.3c3.9-0.2,7.7-0.4,11.6-0.6c-2.5,1.1-5,3-7.6,3.2c-2,0.2-4.3-1.6-6.4-2.5C190.3,428.4,191.2,428.3,192,428.3
			L192,428.3z"/>
		<path d="M46,224.9c-0.9,2.2,1.3,6.8-3.8,5.7c-1.3-0.3-2.1-3.2-3.1-4.9c2.3-0.2,4.7-0.4,7-0.6L46,224.9L46,224.9z"/>
		<path d="M107.1,453.9c4.8,1.7,5.4,2,6.1,2.2c-2.6,1.9-5.1,3.9-7.7,5.7c-0.1,0-1.3-1.1-1.2-1.4
			C105.3,457.8,106.5,455.2,107.1,453.9z"/>
		<path d="M286.3,203.5c0.7-0.1,1.4-0.2,2.1-0.3c0.9,2.1,1.9,4.3,2.8,6.4c-2.7-0.9-5.4-1.8-8-2.7
			C284.2,205.8,285.2,204.7,286.3,203.5L286.3,203.5z"/>
		<path d="M137,461.8c-1.2-0.7-1.9-1-2.5-1.4c2.3-2,4.6-4,7-5.8c0.2-0.2,1.2,0.7,1.8,1.1C141.2,457.7,139.1,459.8,137,461.8
			L137,461.8z"/>
		<path d="M245.7,412.7l8.9,0.3c-1.1,0.7-2.5,2.1-3.1,1.9C249.7,413.9,245.9,417.8,245.7,412.7L245.7,412.7L245.7,412.7z"/>
		<path d="M236.2,111.6c-0.7-1-1.4-1.8-1.4-1.8c1.2-1.2,2.5-2.4,3.9-3.3c0.3-0.2,1.3,0.7,2,1.2C239.3,108.8,237.9,110.1,236.2,111.6
			L236.2,111.6z"/>
		<path d="M214.8,293.6c-1.4,1.2-2.5,2.4-3.8,3c-0.4,0.2-1.5-1-2.3-1.5c0.8-1,1.4-2.5,2.3-2.7C212,292.1,213.3,293,214.8,293.6
			L214.8,293.6z"/>
		<path d="M197.3,286.7c1.1-0.4,2.1-0.9,3.2-1.3c-0.2,1,0,2.2-0.6,2.8c-1.6,2-3.5,3.9-5.3,5.8c0.9-2.5,1.8-5,2.7-7.5L197.3,286.7
			L197.3,286.7z"/>
		<path d="M150.1,468.2c-1.1,1.2-1.7,2.4-2,2.3c-2.7-0.8-5.3-1.8-8-2.7c1-0.8,2.1-2.4,2.9-2.3C145.2,466,147.4,467.1,150.1,468.2
			L150.1,468.2z"/>
		<path d="M276.5,214.9c3-2.1,5-3.5,7.1-4.9c0.2,0.3,0.6,0.8,0.6,0.9c-1.5,1.7-2.9,3.4-4.5,4.9C279.3,216.1,278.2,215.4,276.5,214.9
			z"/>
		<path d="M224.8,330.9c0.5,1.6,1.4,3.3,1.2,4.9c-0.1,0.7-2.6,1-4.1,1.5C222.9,335.1,223.8,333,224.8,330.9
			C224.8,330.8,224.8,330.9,224.8,330.9L224.8,330.9z"/>
		<path d="M119.7,127.7c0,0.4,0.1,0.9,0.1,1.3c-0.3-0.1-0.7-0.2-1-0.2C119.1,128.4,119.4,128.1,119.7,127.7L119.7,127.7z"/>
		<path d="M100.2,220l-0.1,0.3L100.2,220z"/>
		<path d="M121.6,49.6c-0.1,0-0.2,0-0.3,0c0.1,0,0.1-0.1,0.2-0.1C121.5,49.5,121.6,49.6,121.6,49.6z"/>
		<path d="M181.6,395.2c1.6-1.1,3.3-2.1,4.9-3.2c0.2,1.2,0.4,2.3,0.6,3.5c-1.9-0.1-3.8-0.3-5.6-0.4L181.6,395.2L181.6,395.2z"/>
		<path d="M129.7,349.3c-3.7,0.1-6.9-5.9-11.1-1c1.3-2.1,2.4-5.9,3.9-6.1C126.9,341.8,128.9,345.3,129.7,349.3L129.7,349.3z"/>
		<path d="M119.7,387.1c-3.3,4-9.7,6-8,13.1c-1.7,0.3-3.4,0.7-5,1c-1.4-2.1-2.9-4.2-4.3-6.3C107.9,391.8,111.6,384.4,119.7,387.1
			L119.7,387.1z"/>
		<path d="M88.8,355.3c-4.5-5.2-8.8-0.5-12.9,0.8c-1,0.3-1.7,4.8-0.8,6.5c0.6,1.3,4,1.1,6.2,1.6"/>
		<path d="M118.7,272.4c-1.5,1.7-3,3.3-4.5,5"/>
		<path d="M41.4,164.7c1-0.8,2-1.7,3-2.5"/>
		<path d="M173,47.9c-0.3-1.5-0.7-3-1-4.5"/>
		<path d="M178.5,155.7c2.5,0.7,5,1.3,7.5,2"/>
		<path d="M225.9,173.6c-1.7-4.8-3.3-9.6-5-14.5"/>
		<path d="M179.5,265.5c-2.3,7.4-4.8,14.7-12,19"/>
		<path d="M150.6,412.6c-2.3,1.3-4.6,2.7-7,4"/>
		<path d="M67.3,199.6c4.2,3.5,1.2,13.6,11,12"/>
		<path d="M85.3,298.9c-2.9-0.8-6.7,5.8-9-1"/>
		<path d="M226.9,94.3c0.5,6.3,1,12.6,1.5,19"/>
		<path d="M227.9,113.8c-2.7,4.7-5.3,9.3-8,14"/>
		<path d="M135.1,162.2c1.2,4,2.3,8,3.5,12"/>
		<path d="M79.8,249.7c-3.8,2.7-7.7,5.5-11.5,8.2"/>
		<path d="M73.3,369.7c3.3,1.2,6.7,2.3,10,3.5"/>
		<path d="M186,99.3c-1.3,0.2-2.7,0.3-4,0.5"/>
		<path d="M212.9,65.4c-1.5-0.7-3-1.3-4.5-2"/>
		<path d="M201.9,68.4c-2.8,2.7-5.6,5.3-8.5,8"/>
		<path d="M152.6,308.4c-7,3.7-1.8,15.1-11,17.5"/>
		<path d="M149.6,34.9c2.3,0.5,4.6,1,7,1.5"/>
		<path d="M147.1,101.3c1.8,2.7,6.1,4.9,2,9"/>
		<path d="M51.9,233.5c9.8,6.5,19.1,14.8,32.4,11"/>
		<path d="M206.9,334.8c-6.1-8.2-6.8,0.6-9.5,3"/>
		<path d="M71.3,177.6c-0.5-5.2,0.1-11.3-8-11"/>
		<path d="M51.9,165.2h-3.5"/>
		<path d="M134.1,363.8c-3.1-6.5-8.3-3.6-13-3"/>
		<path d="M311.6,130.2c-7.7,3.4-3.1-11.1-11-7.5"/>
		<path d="M289.2,172.1c5.2,6.5-4.1,10.9-2.5,17"/>
		<path d="M212.4,43.4c-1.5,6.7-3,13.3-4.5,20"/>
		<path d="M290.7,160.2c-0.5,12.9-4.2,22.9-20,21.9"/>
		<path d="M35.9,269.4c-2.5,2.7-5,5.3-7.5,8"/>
		<path d="M21.9,280.9c-2.2,0.5-4.3,1-6.5,1.5"/>
		<path d="M200,241c-7.1,10.1,3.7,17.2,4.5,26"/>
		<path d="M134.6,247.5l-6,13.5"/>
		<path d="M123.2,20c2.7,1,5.3,2,8,3"/>
		<path d="M36.4,235.5c-4.3,2.3-8.6,4.7-13,7"/>
		<path d="M200,279.9c-5.4,2-4.2,13.8-14,9.5"/>
		<path d="M121.7,3.5c-1.6,10.2,11.7,9.8,13,18"/>
		<path d="M239.9,177.1c0.9,4.3,0,6.6-5,4.5"/>
		<path d="M191.5,334.3c0.5-2.5,2.3-6.1,1.2-7.3c-2.9-3.3-7-3.8-9.6,0.8c-1.1,2-1.1,4.6-1.6,6.9"/>
		<path d="M148.6,145.2c0.7,3.7,1.3,7.3,2,11"/>
		<path d="M241.8,311.9c-2.2,3-4.3,6-6.5,9"/>
		<path d="M170,240c-1.8,1-3.7,2-5.5,3"/>
		<path d="M296.7,93.3c-4.8,2-9.6,4-14.5,6"/>
		<path d="M195,178.1v2.5"/>
		<path d="M217.9,338.3c-3,0.7-6,1.3-9,2"/>
		<path d="M138.1,329.3c-14.9-7.6-6.7,9-12,11.5"/>
		<path d="M112.7,291.9h3.5"/>
		<path d="M173,421.1c-2.8,2.6-2,9.8-9,7"/>
		<path d="M271.8,159.2c-3.3,5.3-6.6,10.6-10,16"/>
		<path d="M128.1,121.2c7.7,1.9,2.1,10.9,7.5,14"/>
		<path d="M192.5,250v12.5"/>
		<path d="M114.7,279.4h10.5"/>
		<path d="M156.1,241.5c-4-3.8-7.5-1.1-11,1"/>
		<path d="M190.5,48.2c-1.7,3.6-3.3,7.2-5,10.7"/>
		<path d="M104.2,402.7c-1.8-0.7-3.7-1.3-5.5-2"/>
		<path d="M86.5,407.2c2,8-2.6,11.4-9.2,13.5"/>
		<path d="M169.5,313.4c-3,2.8-6,5.6-9,8.5"/>
		<path d="M31.9,227.5c-1,1-2,2-3,3c2,1.2,4,2.3,6,3.5"/>
		<path d="M42.9,236.5c1.8,1,3.7,2,5.5,3l-9,4.5"/>
		<path d="M343.6,191.1c-6.6,0.5-13.3,1-20,1.5"/>
		<path d="M219.4,208.6c-4.2,4.5-8.3,9-12.5,13.5"/>
		<path d="M358.5,191.1c-4.6-0.2-9.3-0.3-14-0.5"/>
		<path d="M22.4,154.7c7.3-0.6,5.8,5.7,7.5,9.5"/>
		<path d="M25.9,167.4c-3.5-2.1-7-4.2-10.5-6.2"/>
		<path d="M85.3,143.2c2-0.2,4-0.3,6-0.5"/>
		<path d="M129.6,349.3c0.6,3.8,1.9,6.9,6.5,7"/>
		<path d="M262.8,63.9c-11,6.8-4.4,25.7-19.9,29.4"/>
		<path d="M254.8,412.6c-4.2,1.2-8.3,2.3-12.5,3.5"/>
		<path d="M131.1,166.2c-0.5,2.3-1,4.7-1.5,7"/>
		<path d="M129.1,126.2c-0.4,5.5-2.7,6.5-7,3"/>
		<path d="M143.1,431.6c-0.7,2-1.3,4-2,6"/>
		<path d="M260.3,103.3c-1.5,4.7-5.3,5.6-9.5,6"/>
		<path d="M186.5,267c6.1-9,11.6,1.5,17.4,0.5"/>
		<path d="M135.1,144.2l-3,10.5"/>
		<path d="M229.9,354.3c-3.7-0.8-7.3-1.7-11-2.5"/>
		<path d="M318.6,136.2c-3.3,0.6-4.6,7.4-9.5,3"/>
		<path d="M182,413.6c2.8,5.6-2.8,4.7-5,6.5"/>
		<path d="M176.5,420.6c-1.1-0.7-2.2-1.3-3.2-2"/>
		<path d="M209.4,238c-7.8,4.7-2.4,7.5,1.5,10.5"/>
		<path d="M121.2,355.8c-1.7,1.2-3.3,2.3-5,3.5"/>
		<path d="M245.3,221.5c-3.1,2.3-5.9,5.7-10,1.5"/>
		<path d="M235.9,59.4l2,13.5c1.3-1.2,2.7-2.3,4-3.5"/>
		<path d="M148.1,112.3c-3.3-0.7-6.6-1.3-10-2"/>
		<path d="M111.7,362.8c0.8,5,1.7,10,2.5,15"/>
		<path d="M218.4,143.7c5.5-0.7,11-1.3,16.5-2"/>
		<path d="M201.9,197.1c-0.5,3.3-1,6.6-1.5,10"/>
		<path d="M167.5,287.9l3.5,7"/>
		<path d="M29.9,145.2c1.3,8.6,9.2,9.9,15.1,13.1c0.5,0.3,3.5-4,5.3-6.2"/>
		<path d="M210.4,241c-0.9-9-3.9-10.3-11.2-4.2c-3.3,2.8-7-0.3-8.8-4.3"/>
		<path d="M65.3,139.2c-2.4,4.1-0.3,11.6-8.5,11.5"/>
		<path d="M123.7,18.5l-12,1.5"/>
		<path d="M202.9,116.3c-2.2,3.8-4.3,7.7-6.5,11.5"/>
		<path d="M162.6,9.5c1.4,3.7,4,7.3,0,11"/>
		<path d="M194,59.4c-2,1-5.5,3.2-5.7,2.8c-1.8-2.3-2.9-5.1-4.2-7.8"/>
		<path d="M14.5,264c4.9,4.6,10.2,8.3,17.5,5.5"/>
		<path d="M135.1,62.9c4.3,1.5,8.6,3,13,4.5"/>
		<path d="M227.9,311.4c6.9,2.6-0.5,7.2,1.5,10.5"/>
		<path d="M246.8,200.1c2.2,0.7,4.3,1.3,6.5,2"/>
		<path d="M109.2,346.8c4.4,0.1,5.9,2.4,5,6.5"/>
		<path d="M268.3,74.3c-2.3,4-4.6,8-7,12"/>
		<path d="M155.6,297.4c-2.4,1.6-2,8-7.5,4.5"/>
		<path d="M195.2,174.6c-0.2,0.8-0.5,1.7-0.8,2.5"/>
		<path d="M160.6,97.8c5.5,1.4,5.8,6.2,7,10.5"/>
		<path d="M189,296.9c-2.2,4-4.3,8-6.5,12"/>
		<path d="M185,316.8c0.8,1.8,1.7,3.7,2.5,5.5"/>
		<path d="M169.5,57.9c1.9,2.5,3.1,6.2,7.5,4"/>
		<path d="M157.1,330.8c-2.7-0.5-5.3-1-8-1.5"/>
		<path d="M137.6,373.2c-4.4-4.3-8.9-10.3-12,1"/>
		<path d="M69.3,279.9c1.3-0.2,2.7-0.3,4-0.5"/>
		<path d="M207.4,392.2v10"/>
		<path d="M250.8,63.9c1.5-0.3,3-0.7,4.5-1c-0.2,2.8-0.3,5.6-0.5,8.5"/>
		<path d="M100.7,380.2c3.5,2,7,4,10.5,6"/>
		<path d="M142.1,392.2l9,4.5"/>
		<path d="M101.2,51.4l-1.5,9"/>
		<path d="M211.4,366.2c-3,1.5-6,3-9,4.5"/>
		<path d="M202.9,118.3c0.8,5.8,1.7,11.6,2.5,17.5"/>
		<path d="M109.2,439.1c0.2,7.7-3,13.8-9,18.5"/>
		<path d="M200.9,287.9c-2.3,2.3-4.6,4.7-7,7"/>
		<path d="M205.9,151.2h-4.5c2.2,2.7,4.3,5.3,6.5,8"/>
		<path d="M125.7,90.3c5.5,0.7,11,1.3,16.5,2"/>
		<path d="M139.1,442.1c-5.3,0-4.5,3.6-4,7"/>
		<path d="M135.6,449.6c-1.8,1.2-3.7,2.3-5.5,3.5"/>
		<path d="M49.9,156.7c2.8,0.5,5.7,1,8.5,1.5"/>
		<path d="M220.4,192.6c-4.8-4.8-6.5,3.6-10.5,2.5"/>
		<path d="M201.4,348.3c2.3,2.3,4.6,4.7,7,7"/>
		<path d="M270.3,197.6c3.2-1.3,6.3-2.7,9.5-4"/>
		<path d="M302.2,193.1c7.1-0.2,14.3-0.3,21.4-0.5"/>
		<path d="M187,230.5c-2.3,2.2-4.6,4.3-7,6.5"/>
		<path d="M42.9,210.1l7.5,18"/>
		<path d="M34.7,154.7c-1.6,3.8,0.1,5.7,3.7,6.5"/>
		<path d="M178.5,100.3c-2.8,0.5-5.6,1-8.5,1.5"/>
		<path d="M219.9,272.9l6,1.5"/>
		<path d="M17.5,274.9c1.8,3.5-10.8,0.9-3,7"/>
		<path d="M77.8,95.8l7.5-3"/>
		<path d="M84.8,84.6c-4.8,0.2-9.6,0.5-14.5,0.8"/>
		<path d="M150.1,70.8h-8.5"/>
		<path d="M213.4,302.4c1.3,2.7,2.7,5.3,4,8"/>
		<path d="M168.5,275.9c-0.7,3.2-1.3,6.3-2,9.5"/>
		<path d="M235.4,225c-5.7,5.6-25.8-4.9-17.9,16"/>
		<path d="M236.4,202.1c-1.8,2-3.7,4-5.5,6"/>
		<path d="M224.9,216.1c-3.3,2.3-6.6,4.7-10,7"/>
		<path d="M191.5,280.9c-5.1,3-17.7-6.8-15.5,9"/>
		<path d="M88.8,325.8c0.2,2.3,0.3,4.7,0.5,7"/>
		<path d="M190,115.3c-0.5,2.7-1,5.3-1.5,8"/>
		<path d="M221.9,424.6c6-18.2-7.6,0.8-8.5-4.5"/>
		<path d="M143.6,77.3c-8.5-1.7-16.9-3.3-25.4-5"/>
		<path d="M110.7,398.2c0.7,2.7,1.3,5.3,2,8"/>
		<path d="M204.9,142.2c-1,2.7-2,5.3-3,8"/>
		<path d="M210.9,380.2c-0.5,5.1-5,2.6-7.5,4"/>
		<path d="M125.7,406.7c0.3,2.3,0.7,4.7,1,7"/>
		<path d="M141.6,455.6c-2.2,1.7-4.3,3.3-6.5,5"/>
		<path d="M188,452.6c5.3,1.5,10.6,3,16,4.5"/>
		<path d="M308.7,136.7c-4.8,7.5-8.2-2.5-12.5-1"/>
		<path d="M333.6,169.1c-0.9-6.5-6,0.6-8-2.5"/>
		<path d="M113.2,144.2c1.8,4.7,3.7,9.3,5.5,14"/>
		<path d="M172,445.1c-7.2,3.1-11,10.2-11,16.5c0.1,12.5-6.8,4.8-10.9,5"/>
		<path d="M233.9,353.8c-1.7,7.9,3.8,6,8,6"/>
		<path d="M49.9,265.5c-1.8,0.2-3.7,0.3-5.5,0.5"/>
		<path d="M243.3,84.3c-1.5,5.3-3,10.6-4.5,16"/>
		<path d="M133.1,266.5c0.2,2.5,0.3,5,0.5,7.5"/>
		<path d="M196,441.6c1.2,2.7,2.3,5.3,3.5,8"/>
		<path d="M184.5,394.7c-5.4-0.2-3.7,2.4-2,5"/>
		<path d="M79.3,306.9c-4.6,2.2-4.7,4.3,0,6.5"/>
		<path d="M179.5,108.8H172"/>
		<path d="M144.1,245c-1.8-1.2-3.7-2.3-5.5-3.5"/>
		<path d="M94.2,71.8v3.5"/>
		<path d="M162.6,183.6c2.3,1.2,4.6,2.3,7,3.5"/>
		<path d="M127.7,428.6c1,2.5,2,5,3,7.5"/>
		<path d="M224.9,405.7c-4.2-5.6-10-5.2-16-4.5"/>
		<path d="M111.2,81.3c-2.7,2.3-5.3,4.7-8,7"/>
		<path d="M218.9,283.9c0.2,3.7,0.3,7.3,0.5,11"/>
		<path d="M80.3,318.3c-2-0.2-4-0.3-6-0.5"/>
		<path d="M141.6,287.4l-6,4.5"/>
		<path d="M164.6,416.1c2,1.3,4,2.7,6,4"/>
		<path d="M106.7,427.6c0.3,2,0.7,4,1,6"/>
		<path d="M267.8,191.1c-3.3,3.2-3.2,11-11,8"/>
		<path d="M209.9,316.8c0.2-5.1-1.4-4-3.5-1c-0.7,1-1.3,2-2,3"/>
		<path d="M196.5,318.6c-1.3,2.6-2.7,5.2-4,7.7"/>
		<path d="M132.6,281.9c-0.8,2.3-1.7,4.7-2.5,7"/>
		<path d="M272.8,69.4c-1,2.2-2,4.3-3,6.5"/>
		<path d="M99.7,349.8c-0.3,2-0.7,4-1,6"/>
		<path d="M84.3,433.6c1.3,1.7,2.7,3.3,4,5"/>
		<path d="M160.1,280.4c8.3,1.3,4.7,7.9,5.5,12.5"/>
		<path d="M175,405.2c-2.5-2.7-5-5.3-7.5-8"/>
		<path d="M214.9,309.4c-0.7,2.2-1.3,4.3-2,6.5"/>
		<path d="M307.2,131.2c-1.2,2.3-2.3,4.7-3.5,7"/>
		<path d="M160.1,436.6c-1,2.2-2,4.3-3,6.5"/>
		<path d="M155.6,223c-0.3,2-0.7,4-1,6"/>
		<path d="M194.5,186.1c5.6,4,9.3-0.6,13.5-3"/>
		<path d="M225.9,134.2c-0.2,2.3-0.3,4.7-0.5,7"/>
		<path d="M191.5,273.9c-0.8,2.3-1.7,4.7-2.5,7"/>
		<path d="M198,274.9c-3.8-2.2-7.6-4.3-11.5-6.5"/>
		<path d="M104.7,63.4c3.8,2.3,7.7,4.7,11.5,7"/>
		<path d="M14.5,170.1c4.6,2.1,9.1,3.3,13-1.5"/>
		<path d="M250.8,147.2c-1.6,4.2,4.2,9-1,13"/>
		<path d="M179.5,77.3l-7.5,1.5"/>
		<path d="M127.7,443.6c-3-1.7-6-3.3-9-5"/>
		<path d="M227.4,395.7h-6.5"/>
		<path d="M176,306.9c-0.9,6.2,3.9,2.5,6,3.5"/>
		<path d="M74.3,356.8c-2,0.3-4,0.7-6,1"/>
		<path d="M90.2,397.7c-2.2,0.8-4.3,1.7-6.5,2.5"/>
		<path d="M121.2,352.3c-2.2,0.7-4.3,1.3-6.5,2"/>
		<path d="M286.2,156.7c-0.5,2.2-1,4.3-1.5,6.5"/>
		<path d="M321.1,158.7c0.1,4.2,5,10.4-4.5,10.5"/>
		<path d="M164.1,294.9l-7.5,1.5"/>
		<path d="M123.2,451.6c5.4-0.9,3.4-3.2,0.4-4.3c-1.3-0.5-3.6,1.4-5.4,2.3"/>
		<path d="M84.3,382.7c-0.8,7.4-8.8,15.8,3,21.5"/>
		<path d="M161.1,376.2c-2-0.3-4-0.7-6-1"/>
		<path d="M209.9,132.2c0.2,8.4,5,1.4,7.5,2.2"/>
		<path d="M89.5,343.3l-9.7-1.5"/>
		<path d="M143.1,141.2l1.5,16.5"/>
		<path d="M243.8,316.8c-2.2,1.2-4.3,2.3-6.5,3.5"/>
		<path d="M116.2,73.8c-11-0.2-21.9-0.3-32.9-0.5"/>
		<path d="M161.1,323.8c0.5,1.7,1,3.3,1.5,5"/>
		<path d="M180.5,343.8c2.2,3.3,4.3,6.6,6.5,10"/>
		<path d="M122.2,10c-2,0.8-4,1.7-6,2.5"/>
		<path d="M196,130.2c2.7,2.2,5.3,4.3,8,6.5"/>
		<path d="M109.2,459.5c0.9-2.6,0.5-3.7-1.9-1.4c-1.3,1.2-2,2.9-3,4.4"/>
		<path d="M119.2,153.7c8.4,10.6-3.6,9.4-7.5,13"/>
		<path d="M207.9,430.6c2,3.1,0.7,5.4-3,4.9c-3.4-0.4-6.6-1.3-10-2"/>
		<path d="M175.5,70.8c1,1.8,2,3.7,3,5.5"/>
		<path d="M229.4,368.2c2.2,0.5,4.3,1,6.5,1.5"/>
		<path d="M198,412.6c1,3.3,2,6.6,3,10"/>
		<path d="M219.9,47.4c-1.7,4.3-3.3,8.7-5,13"/>
		<path d="M22.9,270.4c-1.7,1.3-3.3,2.7-5,4"/>
		<path d="M272.8,205.1c-3,1.7-6,3.3-9,5"/>
		<path d="M97.2,100.8l-6,1.5"/>
		<path d="M266.8,99.3c-7.6,1.7-15.3,3.3-22.9,5"/>
		<path d="M112.7,159.7l-3,6"/>
		<path d="M120.2,347.8c2.1-12.4,7.3,6,10-1"/>
		<path d="M238.4,425.6c0,2.5-0.2,4.7-3.5,2.5"/>
		<path d="M324.6,133.2c-1.7,1.2-3.3,2.3-5,3.5"/>
		<path d="M92.2,136.7c-7.1-6.1-13.2,2.2-19.9,1.5"/>
		<path d="M106.2,450.1c-1.7-1.2-3.3-2.3-5-3.5"/>
		<path d="M215.4,229.5c-4.7-2.5-8.8-3.1-10.5,3.5"/>
		<path d="M206.4,136.7l6,3"/>
		<path d="M227.9,135.2c0.3,2,0.7,4,1,6"/>
		<path d="M295.7,136.2c0.3,2,0.7,4,1,6"/>
		<path d="M133.6,169.6c1,1.8,2,3.7,3,5.5"/>
		<path d="M224.4,325.3v6"/>
		<path d="M294.7,233c3.2,0.8,6.3,1.7,9.5,2.5"/>
		<path d="M46.9,232.5c1.3-1.3,2.7-2.7,4-4c2.2,2.3,4.3,4.7,6.5,7"/>
		<path d="M150.6,159.2c-1.8-0.2-3.7-0.3-5.5-0.5"/>
		<path d="M259.8,86.3c0.7,0.7,1.3,1.3,2,2c-2,0.8-4,1.7-6,2.5"/>
		<path d="M161.1,306.9c3-11.1,6,0.4,9,0"/>
		<path d="M97.7,327.3c1.8,0.3,3.7,0.7,5.5,1"/>
		<path d="M199,226c-5.2,6.3-10.2,5.6-15-0.5"/>
		<path d="M218.9,169.1l-3,5.2"/>
		<path d="M160.1,85.3c0.2,3.2-2.1,7.7,4,8"/>
		<path d="M151.1,81.3c-2.3,0.3-4.6,0.7-7,1"/>
		<path d="M251.3,216.1c-1.4,3.5-3.5,5.5-7.5,4"/>
		<path d="M217.9,423.6c-0.2,4.8-0.3,9.6-0.5,14.5"/>
		<path d="M95.7,429.6c0.2,1.7,0.3,3.3,0.5,5"/>
		<path d="M237.9,335.8c3,10.8-7.5,5-10.5,8.5"/>
		<path d="M147.6,175.1c-0.3,1.8-0.7,3.7-1,5.5"/>
		<path d="M124.7,287.4v5.5"/>
		<path d="M136.1,343.8c-2.4,4.3-0.5,6.8,3.5,8.5"/>
		<path d="M304.2,208.1c1.1,6.2,6.8,4.4,10.5,6"/>
		<path d="M170,91.3c3.1-5.4,2.8-9.6-4-11.5"/>
		<path d="M177,449.6c-3.2-0.3-6.3-0.7-9.5-1"/>
		<path d="M210.9,450.6c-4.5,2.7-10.4-4-14.5,2"/>
		<path d="M30.9,166.6c1.8,0.7,3.7,1.3,5.5,2"/>
		<path d="M215.9,351.3c-2.2,1.4-6.8-2-7,3.5"/>
		<path d="M223.4,364.2h-5.5"/>
		<path d="M81.3,129.2c0.5,1.8,1,3.7,1.5,5.5"/>
		<path d="M192,118.3c-0.2,1.8-0.3,3.7-0.5,5.5"/>
		<path d="M200.4,407.2c-1.8-0.3-3.7-0.7-5.5-1"/>
		<path d="M298.2,196.6c0.5,1.8,1,3.7,1.5,5.5"/>
		<path d="M255.8,73.3c-2.3-5.1-4.6,0.8-7,0"/>
		<path d="M215.9,379.7c1.7-0.3,3.3-0.7,5-1"/>
		<path d="M185,464.5c-5.5,6.5-4.6-4.9-8.5-3"/>
		<path d="M122.2,162.7c2.7,1.7,5.3,3.3,8,5"/>
		<path d="M162.6,400.2c-2.7,1.3-5.3,2.7-8,4"/>
		<path d="M176,397.7c3.5,2.3,0.1,2.9-1,4"/>
		<path d="M106.7,401.2c-0.3-1.8-0.7-3.7-1-5.5c-1.2,0.7-2.3,1.3-3.5,2"/>
		<path d="M203.9,439.6c3.1,1.1,8.1,0.5,5.5,6.5"/>
		<path d="M280.7,191.6c-1.7-0.2-3.3-0.3-5-0.5"/>
		<path d="M113.2,390.2c-3.4,0.3-6.4,1.2-6.5,5.5"/>
		<path d="M114.7,70.8c-1.3,1.2-2.7,2.3-4,3.5"/>
		<path d="M231.9,381.7c-3.6-2.6-6.9-2.4-9.5,1.5"/>
		<path d="M192,399.7c0.2,3.7,0.3,7.3,0.5,11"/>
		<path d="M193.5,195.1c0.2,1.7,0.3,3.3,0.5,5"/>
		<path d="M254.8,197.1c-0.8,2.7-1.7,5.3-2.5,8"/>
		<path d="M210.9,362.8c-0.3,3-0.7,6-1,9"/>
		<path d="M54.3,145.2v8"/>
		<path d="M246.8,58.4c-4.5,5.2,3.1,7,3,11"/>
		<path d="M174.5,51.4c2.2,1.8,4.3,3.7,6.5,5.5"/>
		<path d="M247.8,355.8l-12,1.5"/>
		<path d="M286.7,200.1c2.6,5.6,0.1,6.8-5,6"/>
		<path d="M201.9,426.6c-4,5.4-9.2,1.9-14,2"/>
		<path d="M247.8,338.8c0.7,0.3,1.3,0.7,2,1c-2.2,0.7-4.3,1.3-6.5,2"/>
		<path d="M45.4,176.6c-1.7,0.2-3.3,0.3-5,0.5"/>
		<path d="M248.8,335.8c-1.7,1.8-3.3,3.7-5,5.5"/>
		<path d="M72.3,216.1c-4.7,0.2-9.3,0.3-14,0.5"/>
		<path d="M210.9,437.6c2.8,1.3,5.6,2.7,8.5,4"/>
		<path d="M167,323.8l4.5,10.5"/>
		<path d="M132.1,37.9c-2,0.7-4,1.3-6,2"/>
		<path d="M12,280.9c-3.2,1.3-6.3,2.7-9.5,4"/>
		<path d="M175.5,446.1c-1.8,2.8-3.7,5.6-5.5,8.5"/>
		<path d="M67.3,275.4c2.8,0.2,6.4-1.2,7,3.5"/>
		<path d="M328.6,245h-13"/>
		<path d="M95.2,96.3c5.8,1.7,0.8,5.3,1.5,8"/>
		<path d="M217.9,314.9c-3.9,3.4-5.2,7.1-1.5,11.5"/>
		<path d="M148.1,455.6c4.6,0.2,9.3,0.3,14,0.5"/>
		<path d="M297.2,222.5c2.5,5.6,7.2,0.2,10.5,2"/>
		<path d="M92.8,346.3c-1.8-3.2-3.7-6.3-5.5-9.5"/>
		<path d="M169,440.1c-4.6,1.2-9.3,2.3-14,3.5"/>
		<path d="M174.5,441.1c0.8,1.5,1.7,3,2.5,4.5"/>
		<path d="M102.7,442.1c2.5-2,1.8-3.5-1-3.9c-4.8-0.7-6.5,2.3-7,6.4"/>
		<path d="M232.4,290.9c-0.3,1.5-0.7,3-1,4.5"/>
		<path d="M15,262c-0.8-1-1.7-2-2.5-3"/>
		<path d="M147.6,121.8c-1.5,0.2-3,0.3-4.5,0.5"/>
		<path d="M73.3,96.3c1.5,0,3-0.1,4.5,0.1c0.2,0,0.3,0.9,0.5,1.4c-1.7,0.2-3.3,0.3-5,0.5"/>
		<path d="M268.8,181.6c-3.7,2-7.3,4-11,6"/>
		<path d="M228.4,429.1c-2.2,0.5-4.3,1-6.5,1.5"/>
		<path d="M133.1,120.8c3-0.7,6-1.3,9-2"/>
		<path d="M180,426.6c-1.2,1-2.3,2-3.5,3"/>
		<path d="M148.6,381.2c-0.2,1.5-0.3,3-0.5,4.5"/>
		<path d="M181,382.7l-3,12"/>
		<path d="M165.6,423.1l-4.5,10.5"/>
		<path d="M31.9,265.5c-1.2-0.8-2.3-1.7-3.5-2.5"/>
		<path d="M91.8,412.1c-1.3,0.5-2.7,1-4,1.5"/>
		<path d="M206.4,271.4c-0.2,2.5-0.3,5-0.5,7.5"/>
		<path d="M193.5,391.2c-1.7,4-3.3,8-5,12"/>
		<path d="M212.9,395.7c-0.3,1.3-0.7,2.7-1,4"/>
		<path d="M152.1,399.7c-1.3,1.8-2.7,3.7-4,5.5"/>
		<path d="M249.8,108.8c-1.3-0.2-2.7-0.3-4-0.5"/>
		<path d="M40.9,272.4c2.5,1.2,5,2.3,7.5,3.5"/>
		<path d="M85.3,392.7c-2.7,0.3-5.3,0.7-8,1"/>
		<path d="M199,177.6c-2-0.2-4-0.3-6-0.5"/>
		<path d="M33.9,277.9l-1.5,3"/>
		<path d="M316.6,176.1c-0.8,0.8-1.7,1.7-2.5,2.5"/>
		<path d="M229.4,382.7c-0.8,1.3-1.7,2.7-2.5,4"/>
		<path d="M214.4,136.7c-0.2,4.2-0.3,8.3-0.5,12.5"/>
		<path d="M214.9,372.7c4.6,3.3-1.3,3.9-1.5,6"/>
		<path d="M23.9,283.4c-1,1.3-2,2.7-3,4"/>
		<path d="M126.2,153.2c2,1.2,4,2.3,6,3.5c-1,1.3-2,2.7-3,4"/>
		<path d="M199.5,217.6c1.3,0.7,2.7,1.3,4,2"/>
		<path d="M85.8,431.1c-2.8,1.5-5.7,3-8.5,4.5"/>
		<path d="M191.5,46.4c0.8-1,1.7-2,2.5-3c1,1,2,2,3,3"/>
		<path d="M226.9,74.3c-1.3-0.3-2.7-0.7-4-1"/>
		<path d="M92.2,437.6c1.3,0.7,2.7,1.3,4,2"/>
		<path d="M208.9,258c-1.2,2.8-2.3,5.6-3.5,8.5"/>
		<path d="M114.7,348.3h4"/>
		<path d="M281.7,159.7c-1.3,0.8-2.7,1.7-4,2.5"/>
		<path d="M178,242c0.3,2.3,0.7,4.7,1,7"/>
		<path d="M138.1,160.2c-0.2,1.3-0.3,2.7-0.5,4"/>
		<path d="M265.8,219.1c-10.6,4.9,3.9,5.5,1.5,9"/>
		<path d="M147.6,446.1c-4.5-3.1-4.1,2.1-6,3.5"/>
		<path d="M214.4,332.8c-0.3,1.8-0.7,3.7-1,5.5"/>
		<path d="M161.6,333.3c0.5,1.2,1,2.3,1.5,3.5"/>
		<path d="M250.8,331.8c-1.3,0.2-2.7,0.3-4,0.5"/>
		<path d="M210.9,309.9c-1.3-0.2-2.7-0.3-4-0.5"/>
		<path d="M40.4,225c0.3,1,0.7,2,1,3"/>
		<path d="M170,10.5c-0.8,1.2-1.7,2.3-2.5,3.5"/>
		<path d="M176,457.5v7"/>
		<path d="M245.8,321.8v4"/>
		<path d="M258.8,319.8c-4.1-1.4-3.2,2.2-4,4"/>
		<path d="M119.7,325.3c1.8,1.2,3.7,2.3,5.5,3.5"/>
		<path d="M225.4,331.8c-0.8,2-1.7,4-2.5,6"/>
		<path d="M138.1,305.9c-1,2.3-2,4.7-3,7"/>
		<path d="M260.3,78.8c-2.2,0.8-4.3,1.7-6.5,2.5"/>
		<path d="M144.1,78.3c3.4-2.3,5.1-1.1,5.5,2.7"/>
		<path d="M286.2,202.6c-1.2,0.5-2.3,1-3.5,1.5"/>
		<path d="M210.9,295.9c0.5-3.7,2.1-2.9,4-1"/>
		<path d="M275.8,185.6c-0.7,1.2-1.3,2.3-2,3.5"/>
		<path d="M362.5,182.1c-1.2,2-2.3,4-3.5,6"/>
		<path d="M294.7,185.1c-0.5,1.2-1,2.3-1.5,3.5"/>
		<path d="M212.4,365.7c1.2,0.3,2.3,0.7,3.5,1"/>
		<path d="M227.9,389.7c-4.8,4.6,2.1,6.2,2.5,9.5"/>
		<path d="M70.8,209.1h-3.5"/>
		<path d="M200,390.7h-3.5"/>
		<path d="M138.6,141.7c-0.2,1.2-0.3,2.3-0.5,3.5"/>
		<path d="M176.5,392.2c-2.2,0.3-4.3,0.7-6.5,1"/>
		<path d="M114.2,394.2c-2,0.8-4,1.7-6,2.5"/>
		<path d="M284.7,210.1c-1.2,1-2.3,2-3.5,3"/>
		<path d="M248.8,62.4c-0.7,2-1.3,4-2,6"/>
		<path d="M182.5,407.2l-6,3"/>
		<path d="M235.4,417.6c2.3-0.5,4.6-1,7-1.5"/>
		<path d="M20.9,173.1c0.8,0.7,1.7,1.3,2.5,2"/>
		<path d="M142.6,431.1c-2.2-0.2-4.3-0.3-6.5-0.5"/>
		<path d="M67.8,155.2c-0.7,1.8-1.3,3.7-2,5.5"/>
		<path d="M207.4,435.6l2,4"/>
		<path d="M146.1,437.1c-0.5,2.7-1,5.3-1.5,8"/>
		<path d="M59.8,160.7c-0.7,1-1.3,2-2,3"/>
		<path d="M235.9,252c-1.2,0.2-2.3,0.3-3.5,0.5"/>
		<path d="M135.1,438.6c-4.1-5-6.7,0.9-10,1.5"/>
		<path d="M209.4,443.1c-1,0.7-2,1.3-3,2"/>
		<path d="M234.9,233l-6,1.5"/>
		<path d="M195.5,230l-1.5,3"/>
		<path d="M113.2,454.6c-0.8,1.2-1.7,2.3-2.5,3.5"/>
		<path d="M165.1,462.5c-1,0.7-2,1.3-3,2"/>
		<path d="M63.3,346.8c1.8-7.9,6.9-3.5,11-3"/>
		<path d="M200,44.4c0.7,2.3-7.9,1.3-2,5.5"/>
		<path d="M43.9,226c-0.5,1.7-1,3.3-1.5,5"/>
		<path d="M321.1,177.1c-0.8,2.7-1.7,5.3-2.5,8"/>
		<path d="M131.1,312.4c1.5-0.2,3-0.3,4.5-0.5"/>
		<path d="M312.6,224c0.3,1.7,0.7,3.3,1,5"/>
		<path d="M318.6,231c-2.6-0.3-5.8-2.7-7,2"/>
		<path d="M34.9,280.9c0.8,1.7,1.7,3.3,2.5,5"/>
		<path d="M210.4,174.1c-2.2,2.7-3.1,5,1.5,6"/>
		<path d="M181,456.5c-0.3,1.8-0.7,3.7-1,5.5"/>
		<path d="M253.8,135.2c-0.7,2.7-1.3,5.3-2,8"/>
		<path d="M240.8,106.8c-1.3,0.8-2.7,1.7-4,2.5"/>
		<path d="M210.9,413.1c1.8-0.5,3.7-1,5.5-1.5c-0.2,1-0.3,2-0.5,3"/>
		<path d="M137.6,334.8c-2.6,3.4-3.1,6,2.5,6"/>
		<path d="M58.3,189.1c2,0.5,4,1,6,1.5"/>
		<path d="M108.7,447.6l4.5,3"/>
		<path d="M103.7,61.9l4.5,1.5"/>
		<path d="M146.6,60.9c-1.2,0.5-2.3,1-3.5,1.5"/>
		<path d="M236.9,190.1c-1.7-0.8-3.3-1.7-5-2.5"/>
		<path d="M69.3,151.2c-1.1,9.2-5.2-3.1-7,1"/>
		<path d="M196.5,266.5c-0.8,0.8-1.7,1.7-2.5,2.5"/>
		<path d="M127.7,333.3c-1.5,0.2-3,0.3-4.5,0.5"/>
		<path d="M185,61.4c-2.5,6.2,1.5,5.8,5.5,5.5"/>
		<path d="M182.5,276.9c-0.2,0.8-0.3,1.7-0.5,2.5"/>
		<path d="M296.7,144.2c-1,2.2-2,4.3-3,6.5"/>
		<path d="M202.9,296.9c0.3,1.2,0.7,2.3,1,3.5c0.3-0.5,0.7-1,1-1.5"/>
		<path d="M148.6,469c-1.8-0.7-3.7-1.3-5.5-2"/>
		<path d="M147.6,388.2c-1.7,0.7-3.3,1.3-5,2"/>
		<path d="M234.4,290.9h2.5"/>
		<path d="M243.8,312.9c0.2,1,0.3,2,0.5,3"/>
		<path d="M157.6,398.2c-2-0.2-4-0.3-6-0.5"/>
		<path d="M267.3,100.3c1.7-0.3,3.3-0.7,5-1"/>
		<path d="M194.5,407.2c-0.7,0.3-1.3,0.7-2,1"/>
		<path d="M79.3,339.8l-1,4"/>
		<path d="M232.9,330.8c7.1,3,10.5-3.3,15.5-5.9c1.9-1,4.6-0.5,6.9-0.6c-0.8,2.2-1.7,4.3-2.5,6.5"/>
		<path d="M70.3,211.6c-0.5,0.3-1,0.7-1.5,1"/>
		<path d="M168.3,251c0.1,0.5,0.2,1,0.2,1.5"/>
		<path d="M131.6,363.8c-0.3,0.5-0.7,1-1,1.5"/>
		<path d="M230.9,366.7c-3.6,2.7-5.1-0.3-7-2.5"/>
	</g>
</g>
</svg>
