<?xml version="1.0" encoding="UTF-8"?>
<svg id="Layer_1" data-name="Layer 1" xmlns="http://www.w3.org/2000/svg" viewBox="0 0 367.5 483">
  <defs>
    <style>
      .cls-1 {
        fill: none;
        stroke: #000;
        stroke-linecap: round;
        stroke-linejoin: round;
        stroke-width: 2px;
      }

      .cls-2 {
        stroke-width: 0px;
      }
    </style>
  </defs>
  <g id="qDuZX0.tif">
    <g>
      <path class="cls-2" d="m157.48,210.61c-5.32-7.73-14.3-8.5-21.11-2.89-1.37,1.13-6.22-2.87-9.17-2.45-2.22.32-6.66-7.36-7.17,1.33-.03.48-1.46.88-2.23,1.31-1.35-2.57-2.75-5.11-4-7.73-.17-.35.36-1.47.74-1.56,5.13-1.26,10.35-2.21,15.42-3.66,2.6-.74,4.95-2.34,7.41-3.55-1.87-.04-4.45.69-5.5-.26-5.8-5.24,2.21-3.51,2.67-5.24.6-2.22-6.77-.15-3.74-5.11,4.1-6.72,14.91-7.55,15.39-17.56.06-1.26,1.13-2.46,1.73-3.69.49,1.01,1.65,2.3,1.37,2.98-1.69,3.98-4.45,7.79-.52,11.99,1.97-3.33,3.17-8.44,6.04-9.68,9.69-4.18,19.96-7.03,30.04-10.28,1.15-.37,2.5-.12,3.76-.16-1.46-.94-2.92-2.64-4.38-2.65-3.43-.02-7.72-.38-10.16,1.42-18.41,13.65-7.74-4.76-9.95-8.85,11.04,4.3,9.2-10.41,16.76-11.47.98-.14,1.68-2.2,2.51-3.36-1.41.03-3.66-.5-4.09.16-5.28,8.16-20.34,3.73-21.72,16.87-.05.51-1.65.87-2.53,1.29-.19-.97-.16-2.04-.59-2.89-5.58-11-12.07-21.66-16.42-33.12-1.65-4.36,1.53-10.58,2.66-15.93.1-.49,1.25-.75,1.91-1.12.3,1.18.94,2.38.86,3.53-1.13,16.27,2.78,25.01,15.71,34.71,2.93,2.2,3.56.56,6.18-16,.23,1.75.6,3.49.67,5.25.16,4.07.17,8.14.24,12.21.99-.37,2.7-.55,2.86-1.14,1.62-6.02,1.14-11.67-3.8-16.2.77-.49,1.74-1.55,2.3-1.37,9.69,3.16,8.56,2.83,12.99-10.94,2.62-8.16,9.55-14.9,14.35-22.41,4.43-6.92-13.95,1.18-5.65-8.43,1.02-1.19,2.58-1.91,3.9-2.84-2.37,7.31,9.55,3.84,7.95,10.56-.13.55-.39,1.06-.59,1.59.79-.2,1.85-.15,2.31-.65,2.28-2.45,6.8-6.03,6.22-7.43-5.89-14.23,5.45-4.44,7.96-5.32,2.99-1.05,6.93.64,10.46,1.13-3.72-.22-7.93-1.84-10,3.05-.4.94.02,2.22.07,3.35,3.28-2.17,6.56-4.33,9.84-6.5,2.76,0,5.52-.01,8.28-.02-.52-1.54-.89-4.31-1.58-4.39-2.39-.28-4.89.39-7.36.65-1.46.15-2.92.22-4.39.32,1.22-.62,2.65-1.02,3.61-1.92,1.84-1.71,3.42-3.7,5.1-5.58-2.16.99-4.26,2.68-6.49,2.86-9.99.83-24.36,5.67-29.19.93-12.83-12.59-5.3,9.58-11.42,5.3-1.52-1.06-3.85-.96-5.8-1.4,1-1.17,2.47-2.22,2.81-3.56.21-.8-6.12,1.39-2.1-3.11.37-.41,1.21-.95,1.13-1.14-2.17-5.09-4.42-10.15-6.67-15.2-.24-.44-.49-.87-.73-1.31,3.16-2.7,5.35-1.23,6.45,1.95,5.83,16.83,11.14,4.15,16.59-.23.49-.4.85-1.51,1.18-1.47,3.39.37.74,12.51,5.89,5.12,6.09-8.73,3.68-20.62-.76-31-.61-1.43.63-3.99,1.6-5.69,1.14-2.02,2.91-3.67,4.41-5.49-.52,2.59-1.9,5.4-1.31,7.7.54,2.12,3.04,3.94,5.04,5.38.52.37,2.88-.87,3.56-1.91.82-1.25.74-3.09,1.06-4.67.73.56,2.04,1.06,2.1,1.68.22,2.58.68,5.39-.1,7.74-1.17,3.52-3.29,6.72-5.01,10.06.77.33,2.07,1.12,2.25.92,3.36-3.78,6.04-8.39,9.95-11.41,7.9-6.12,16.45-11.39,24.73-17.01.58,1.69.76,4.54,1.79,4.88,5.6,1.88,5.7,3.4.18,5.39-5.03-.78-13.5-1.36-12.76,3.33.96,6.04,4.88-5.5,8.98-1.7-.04.32-.18.68-.1.97,1.42,4.97,10.1-5.93,8.39,3.75-.19,1.08-8.93.34-13.62,1.02-3.27.47-4.74,1.73-3.39,6.24,2.8,9.35-13.13,5.28-11.7,14.73.15.98-2.11,2.17-2.26,3.39-.09.7,1.8,1.66,2.8,2.5.79-1.24,1.87-2.39,2.31-3.75,1.54-4.72,3.84-5.71,7.47-1.92,1.34,1.03,2.68,2.06,4.01,3.09,10.37,8.53-1.25,15.86-1.29,23.82,0,1.01.14,2.03.21,3.04,2.98-.48,5.97-.95,8.95-1.43-3.73,1.07-7.41,2.84-11.19,3.07-11.97.74-19.43,9.27-28.49,15.2-2.01,1.32-5.79-.27-8.74-.12-2.46.13-4.9.84-7.35,1.29.96,2.25,2.69,4.49,2.7,6.74.01,4.45.55,10.12-1.85,13.05-3.18,3.87-.11,3.11,1.41,4.03-1.05,1.17-2.82,2.24-3.03,3.54-.7,4.5-.85,9.09-1.2,13.64,1.24-.05,3.44.22,3.58-.21,3.15-9.23,6.07-18.55,9.04-27.84,5.51-4,10.98-8.06,16.63-11.84.26-.17,2.18,2.14,3.33,3.3-2.11,1.96-4.23,3.91-6.35,5.86-8.29-.24-3.82,9.52-9.11,11.63,1.18.94,2.6,2.88,3.49,2.66,5.71-1.42,3.58-5.79,3.43-9.62-.06-1.56,1.35-3.18,2.09-4.77,1.21-.13,3.39-.59,3.48-.33.87,2.58,1.42,5.26,2.01,7.93.05.23-.24.54-.37.81,7.52-.08,7.7,13.21,17.27,9.55.16-.06,1.27,1.33,1.12,1.61-3.82,7.18-6.05,17.34-12.07,20.69-8.34,4.65-.09,12.26-5.82,15.74,0-2.79.44-5.66-.1-8.34-3.32-16.58-1.93,6.58-4.1.5-.38-1.51-.76-3.03-1.14-4.54-4.24,1.6-8.48,3.21-12.72,4.81.76.97,1.33,2.44,2.32,2.84,4.59,1.86,9.06,2.54,11.63-3.23,1.4,2.61,2.79,5.23,4.18,7.86-4.82,3.7.79,15.77-11.08,13.81,7.9-13.1-4.67-8.38-9.34-11.73-13.61-9.75-19.7-.17-25.25,9.01-3.87,6.4-3,15.83,5.37,16.05,7.77.2,20.54,5.25,23.43-9.48,2.66,1.97,5.31,3.93,7.97,5.9,1.23-9.08,18.3-4.61,15.04-17.61-.24-.96.35-2.13.56-3.2,1.03.82,2.45,1.42,3.05,2.48,7.41,13.29,6.19-8.13,11.54-2.84,1.11-6.78,1.67-13.9,10.12-16.05.21,5.16.43,10.32.64,15.48-21.35-3.1,4.77,5.21-1.38,5.76-3.74.05-7.85-.9-11.15.33-8.96,3.34-1.15,7.01.92,9.21,1.32,1.4,6.8,1.42,7.68.15,1.8-2.57,1.74-6.43,2.45-9.76.46-1.93.91-3.87,1.36-5.81,1.27.82,2.54,1.64,3.81,2.47-.24-4.84-1.19-9.78-.49-14.47.54-3.6,3.15-6.9,4.84-10.33,1.36.77,2.72,1.55,4.08,2.32-1.02,1.48-2.03,2.95-3.05,4.43.66.43,1.8,1.35,1.91,1.23,3.19-3.22,6.07-6.77,9.42-9.8,9.38-8.49,19.8-1.86,29.63-1.33,12.32.66-6.73,11.74,3.93,13.79-2.1,8.6,5.41-10.91,4.06,1.44-.73,6.67-4.97.19-5.14,3.15-5.36-8.97-15.82-9.29-23.78-13.84-2.02-1.16-5-.65-7.54-.91,1.37,1.31,4.15,3.4,3.91,3.82-3.25,5.87-7.04,11.43-10.43,17.22-2.8,4.79-5.86,10.73-1.45,14.94,1.72,1.64,8.36-2.83,12.77-2.85,8.87-.04,16.22-3.26,23.91-7.22,4.14-2.13,13.73-6.89,11.15,6.24.43.08,1.19.32,1.25.21,4.79-9.31,20.9-3.23,22.82-16.64,0-.05,3.09.34,4.74.52-5.63,6.88-5.39,10.13,4.56,7.37,0,0,.14.15.14.15,1.06-.35,2.12-.7,3.19-1.05,0,.58.25,1.44-.04,1.7-1.78,1.6-3.64,3.11-5.56,4.55-.89.67-1.95,1.09-2.94,1.63,1.15.77,2.22,1.92,3.49,2.22,1.37.32,2.93-.15,4.4-.28-.44.42-.8,1.02-1.32,1.23-2.2.89-4.53,2.52-6.66,2.31-3.64-.36-7.7-3.5-10.58-2.52-3.28,1.12-8.14,7.56-7.72,8.1,5.07,6.49,9.34,1.68,13.77-1.68.65-.49,3.37.26,3.44.71,1.61,10.07-7.45,9.44-12.74,11.63-13.99,5.8-24.25-17.02-39.39-5.68-.72.54-1.61.87-2.42,1.29-4.33,1.58-8.66,3.17-13,4.75.97.88,2.06,2.61,2.88,2.49,2.75-.41,5.39-1.48,8.08-2.29,3.87,7.87,7.41-1.29,11.48-.34,3.26.76,7.04-.7,10.59-1.18-2.55,1.56-6.5,2.59-7.35,4.8-1.74,4.57-1.87,9.76-2.57,14.71-.18,1.25,0,2.56.02,3.84l.13-.11c-10.21,4.11-22.9-2.34-31.77,7.46,0,0-.05.05-.05.05-1.37,12.94,26.89,30.45,35.03,21.7,4.14-4.45,8.26-8.93,12.4-13.38.9-.97,1.83-1.9,2.75-2.85l-.12-.1c1.32,2.38,2.63,4.75,3.95,7.13-1.83-.49-4.56-1.99-5.34-1.29-3.63,3.22-6.16,7.89-10.1,10.48-8.55,5.61-.46,4.31,1.67,7.3,7.35,10.34,15.41,14.63,32.18,13.61-3.8,6.6,2.69,5.45,5.39,7.16l-.23-.18c.27.42.44.98.82,1.22,5.31,3.44,10.73,6.74,15.92,10.35.81.56.68,2.5.98,3.8-3.75-.18-8.95-2.03-11.01-.25-7.49,6.49-14.01-10.47-20.87-.26-.12.18-.67.07-1.01.1.33-.9.75-1.78.97-2.71.48-1.98.85-3.99,1.27-5.98-2.16,0-4.32-.07-6.47.05-1.74.1-3.47.46-5.2.7.89-.72,1.85-1.36,2.65-2.16,6.33-6.34-6.03-4.67-3.98-9.23.23-.51.17-1.16.25-1.74-10.94,4.06-15.09-3.76-20.34-10.87-2.47-3.33-7.24-4.96-10.97-7.36,2.94,3.33,5.91,6.64,8.81,10.01.83.96,1.44,2.12,2.15,3.18-1.1-.17-2.48.03-3.26-.56-7.83-5.94-15.76-10.03-26.45-8.95-3.84.39-6.48.36-7.11,3.73-.81,4.32-.98,12.65-.3,12.77,11.37,1.97,19.29,16.28,33.04,9.53,1.4-.69,3.49.02,5.26.07-1.24,2.47-1.87,5.87-3.87,7.17-2.51,1.62-6.18,1.36-9.27,2.19-3.53.95-3.92,8.34-9.73,4.79,4.26,5.27,7.25,12.95,16.52,8.71-2.04,4.88-10.82,2.38-10.63,9.71-2.14-.04-4.28-.15-6.42-.12-3.78.06-7.56.16-11.33.38-.4.02-.74.95-1.11,1.46,6.52,2.19,12.83,2.18,18.75-1.84,2.54-1.23,6.75,4.27,8.03-2,7.16,14.09,1.66,24.52-9.6,33.31-.5.39-.8,1.02-1.2,1.54,3.03.38,6.07.76,9.1,1.13-2.67,1.3-5.89,2.07-7.84,4.07-1.94,1.99-2.62,5.23-3.84,7.91,1.74,1.16,3.47,2.33,5.2,3.5,3.54,1.5,7.08,2.99,10.62,4.49.37,0,.74-.02,1.11-.02-1.51,2.02-2.86,4.19-4.6,5.99-1.03,1.07-2.66,1.56-4.02,2.3,1.77,0,3.55-.09,5.32.03,1.52.1,3.02.43,4.52.66-1.19,1.26-2.18,2.93-3.63,3.69-2.5,1.31-5.3,2.05-7.97,3.03,2.73,1.12,5.57,2.04,8.16,3.42,1.87.99,4.92,2.76,4.79,3.86-.28,2.35-2.29,4.5-3.6,6.72-1.23-1.28-2.37-2.67-3.73-3.8-.82-.68-1.94-1.07-2.98-1.38-.23-.07-.73.76-1.1,1.18.71.49,1.56.86,2.12,1.49,1.39,1.58,4.07,3.78,3.7,4.85-1.29,3.71-3.92,6.93-5.52,10.57-1.31,2.97-2.71,6.31-2.54,9.4.18,3.26,9.18,5.21,4.71,7.83-3.86,2.26-10.02-3.26-12.37-9.03,2.98-1.06,3.97-1.43,1.22-4.99-4.51-5.84-13.25,2.22-16.2-5.96,4.6-1.44,9.17-3.01,13.83-4.22.91-.24,2.13,1.08,3.29,1.32,1.2.25,2.57.32,3.72-.02,1.27-.38,3.47-1.54,3.38-2.01-2.2-11.52-13.17-9.4-20.61-12.62-1.51-.65-4.42,2.66-6.85,3.01-.81.12-2.13-3.31-3.22-5.12,18.37,1.63-.28-7.91,3.24-10.76-1.15,2.08-1.85,4.76-3.58,6.06-1.78,1.34-5.56,5.03-6.03-1.47,3.86-3.96,3.89-9.29,1.35-12.91-1.3-1.86-6.99-.83-10.67-.66-.54.02-.97,2.52-1.45,3.86-.91-2.02-1.81-4.03-2.71-6.05.96,5.23-10.51,3.5-6.09,9.4,4.18,5.59,5.48-2.89,8.74-3.45,3.64,3.3,7.29,6.6,10.93,9.9-.03,3.94-.05,7.88-.08,11.82-6.94,7.19,7.26,7.06,4.44,12.83,1.17.02,2.35.04,3.52.06,2.75,10.45,14.3,6.37,19.92,12.08,1.36,2.62-13.15,12.09,3.74,8.44,2.5-.54,6.09,3.95,9.18,6.11-3.61,3.21-.07,15.11-8.01,10.68-7-3.91-12.96-3.66-19.72-3.78-1.2-.02-2.4.22-3.59.33,1.78.93,3.47,2.37,5.34,2.67,3.82.61,7.74.59,11.62.83-.79,1.9-1.58,3.8-2.36,5.7-2.55-4.13-5.61-1.66-8.63-.76-.93.28-2.04-.05-3.07-.1l.48,3.92c.82-.29,1.62-.76,2.46-.83.75-.07,2.17.18,2.22.47.61,3.51,1.03,7.05,1.49,10.58-1.15-.49-2.83-.65-3.36-1.52-1.88-3.07-10.12-2.23-5.79-9.4.51-.85-1.53-3.61-2.88-5.01-.51-.53-2.84-.15-3.63.59-8.28,7.73-18.54-3.05-18.37-3.62,4.43-14.43-14.38-13.38-15.19-23.62,3.8-1.25,7.61-2.49,11.41-3.74-.62-.63-1.6-1.92-1.82-1.8-3.22,1.78-6.34,3.74-9.49,5.66-1.87,7.75,6.94,9.04,8.86,14.57.57,1.63,2.29,2.85,3.48,4.26-2.47.79-4.32,4.59-7.79,1.08-.71-.71-4.02,1.15-6.13,1.82-3.69-5.54-7.26-11.19-11.29-16.47-.4-.52-3.85.88-5.51,1.95-.63.41-.32,2.44-.2,3.71.03.34,1.11.98,1.36.84,6.55-3.56,5.95,4.13,9.14,5.78-5.47,3.47-9.85-.67-13.38-3.16-5.72-4.05-17.07-4.53-13.02-16.51,1.83,1.33,3.5,3.09,5.54,3.88,3.15,1.22,6.53,1.84,9.86,2.54.51.11,1.65-.68,1.73-1.17.1-.64-.72-2.06-.88-2.02-12.23,2.94,2.75-13.61-9.23-12.85-3.14.2,1.15-4.34,4.05-5.4-5.15-3.26-11.65-5.26-12.05-13.04,0-.19-3.04-.23-4.67-.34,1.4,1.36,2.87,2.66,4.11,4.15.17.2-.69,1.62-1.35,2.05-1.48.98-4.58,2.22-4.5,2.44,1.2,3.31,2.81,6.48,4.33,9.68,1.93-2.22,3.85-4.44,5.78-6.66,0,0-.1.11-.1.11-1.37,5.48,10.84,13.06-2.57,16.68-3.43-1.54-6.85-3.08-10.29-4.63,1.53-2.68,3.99-5.27,4.28-8.08.21-2.02-2.47-4.34-3.86-6.53.31,3.85.08,5.36-4.85,7.67-5.5,2.57,4.55,3.4,4.55,7.05.18,2.61,0,5.32.65,7.8.5,1.92,2.06,3.55,3.14,5.32-3.15.62-6.29,1.4-9.48,1.64-.37.03-.99-2.94-1.45-4.53-.68-2.39-1.32-4.8-1.98-7.2-1.18,2.86-6.76-3.72-6.27,2.91.02.29-1.01,1-1.47.93-2.09-.29-4.15-.79-6.22-1.21.74-.78,1.51-1.52,2.2-2.35.26-.31.32-.8.47-1.2-5.84,4-.24-9.98-7.14-4.54-1.33,1.05-3.18,1.46-4.82,2.07-.21.08-.63-.44-.96-.68,1.23-1.22,2.52-2.38,3.69-3.66,4.2-4.61,13.2-2.35,14.92-10.47,5.27,7.67,8.12,4.1,10.59-2.19,1.82-4.61-7.65-17.72-12.08-19.61-2.81-1.2-3.92-6.38-5.79-9.78-.07-.29-.11-.6-.13-.9,1.6-3.02,2.9-6.26,4.98-8.89.54-.68,3.5.57,5.36.94-1.23-2.03-2.15-4.35-3.74-6.03-4.87-5.11-10-9.97-15.03-14.93l.06.07c-9.49-.35-12.66-9.89-19.79-13.7-1.01-.54-1.5-2.05-2.22-3.11.63-.3,1.44-1,1.85-.81.77.34,1.27,1.25,1.96,1.83,1.36,1.13,2.77,2.2,4.16,3.29-.69-1.17-1.65-2.28-1.97-3.55-.16-.63.86-1.56,1.35-2.35,2.34,1.71,4.49,3.97,7.11,4.87,1.13.39-2.62-7.36,3.49-4.12,4.16,2.21,7.61,5.76,11.37,8.72.33-1.07,1-2.17.9-3.2-.1-.98-.99-1.88-1.53-2.82l3.74.47-.1-.09c.96,4.02,1.98,8.04,2.88,12.08.66,2.98.21,7.42,1.98,8.59,1.88,1.24,8.39-.5,8.42-1.13.24-5.5-4.6-.4-5.2-1.84-.87-2.09-.1-4.86-.03-7.34,2.06,1.45,4.12,2.89,6.18,4.34,7.87,5.64,9.61,13.48,8.02,22.49-4.33-.87-8.75-2.26-12.26,1.97,5.96.02,9.16,3.79,11.62,8.57-9.1,10.67,1.4,10.34,7.11,12.8.95.41,1.64,1.41,2.45,2.13.31-.52.99-1.19.86-1.53-.46-1.12-1.28-3.07-1.83-3.02-7.94.65-9.11-4.17-8.72-10.39,6.99-3.11-2.78-7.29.68-10.62,4.09-3.34,8.19-6.67,12.28-10.01-1.11,2.9-2.22,5.8-3.29,8.72-.03.09.48.56.73.55,5.77-.22,11.54-.49,17.31-.74-3.62-.94-7.25-1.87-10.85-2.91-.11-.03.38-1.35.18-1.93-1.12-3.25-1.03-5.96,2.8-7.27-1.39-.35-2.89-1.23-4.15-.97-4.21.87-8.35,2.14-12.51,3.25,1.37-4.06,2.81-8.1,4.08-12.19.34-1.1.17-2.35.23-3.53-1.09.16-3.13.27-3.14.5-.61,10.65-6.77,5.72-11.68,4.23,9.57-10.73-7.92-7.16-7.29-13.87.62-6.58-3-13.84,4.06-19.01.43,1.52.38,3.76,1.37,4.4,2.07,1.33,4.63,2.02,7.08,2.58,2.2.5,4.53.39,6.78.74,1.07.16,2.07.76,3.1,1.16.14-1.2.5-2.43.37-3.6-.29-2.65-6.29-3.19-2.75-7.34,2.15,2.95,5.87,5.8,6.06,8.87.27,4.22,9.45.38,5.23,6.8-3.77,3.56-7.53,7.12-11.29,10.68-.24-1.67.08-3.85-.87-4.89-1.27-1.39-3.5-1.89-5.33-2.77.62,2.43.94,5.01,2.03,7.21.32.66,2.79.25,4.28.33,3,2.77,5.61,6.31,9.11,8.11,4.39,2.26,7.5.79,5.9-5.07l9.92-3.17c.74-1.36,1.47-2.72,2.21-4.08,3.87-3.23,7.74-6.46,11.61-9.69-3.12-3.26-5.79-7.26-9.5-9.57-3.89-2.43-5.31-11.67-12.91-5.6,3.2-7.41-2.1-12.35-5.63-17.43-1.72-2.47-5.28-4.18-8.32-4.96-1.28-.32-3.4,2.67-5.14,4.16l.09-.1c-2.43.28-4.86.55-7.3.83,1.89-1.54,3.86-2.98,5.65-4.63,6.23-5.73-2.42-2.94-2.83-4.89-1.22.72.71,6.41-3.58,2.27-16.32,18.52-9.46-8.49-16.4-8.37,7.71.2,13.86-1.33,13.56-11.12-.07-2.23,1.07-4.51,1.65-6.76,1.92,1.07,4.89,1.7,5.54,3.29,1.63,3.99,1.93,8.51,3.34,12.61.63,1.82,2.66,3.17,4.05,4.73-.11-1.32-.71-2.85-.23-3.9,1.01-2.21,8.39-3.76-.05-6.66-1.31-.45-.11-8.23-.08-12.61,3.55,3.99,12.24-.09,13.32,8.42.07.54,5.43.44,8.33.53.48.02.98-.53,1.47-.82-4.09-6.25-7.43-13.18-15.24-15.92-1.16-.41-1.98-1.7-3.06-2.44-.23-.16-.88.3-1.34.48,8.15,17.11-14.52-4.88-9.87,7.79-2.4-.07-5.19,3.75-7.16-.7l.12-.19c2.61-1.04,5.22-2.08,7.82-3.12-1.34-.55-3.07-.75-3.92-1.73-1.1-1.27-2.52-4.04-2.02-4.62,2.28-2.65,2-7.73-1.12-10l.11.1c-4.04-2.33-8.08-4.66-12.12-6.98Zm70.15,90.49c-.42,3.43-.85,6.86-1.27,10.29-10.49.16,3.73,8.84-3.49,10.12.26.53.55,1.52.79,1.51,1.43-.06,3.04-.91,4.22-.48,4.48,1.62,8.89,3.47,13.17,5.57,1.3.63,2.54,2.17,2.99,3.56.77,2.37.94,4.95,1.23,7.45.02.2-.89.69-1.4.74-1.08.11-2.94.4-3.17-.05-11.89-23.52-2.6,6.57-6.66,2.63-1.34-.47-2.84-.7-3.98-1.46-1.25-.83,4.21-3.49-.7-3.57-1.69-.03-3.39,1.38-5.09,2.13,2.34,2.61,4.68,5.21,7.02,7.82.73-1.45,1.46-2.9,2.18-4.35.52,3.14,1.04,6.28,1.57,9.42,1.45-1.07,2.91-2.15,4.36-3.22,3.45,3.14,1.08,5.13-1.41,7.1,2.72.96,5.44,2.56,8.18,2.59,1.14.01,2.32-3.31,3.48-5.12-4.89-2.33,7.6-3,.53-5.54,2.65-.61.47-7.89,5.69-4.37,1.32.89.93,4.16,1.64,6.23.17.49,1.62.83,2.44.75,6.5-.62,15.47,1.93,1.53-6.34-12.93-7.67-17.76-25.78-32.72-33,2.7-9.14,6.3.49,9.48-.38,1.61-.44,3.49.11,5.25.22-.17-.55-.44-1.59-.5-1.58-7.55,1.43-9.9-6.46-15.44-8.58-.16-1.09.04-2.46-.54-3.24-3.05-4.05,2.95-5.64,2.74-5.79-6-4.04-11.97-5.6-12.98,4.14-.12,1.2,7.09,3.16,10.89,4.78Zm-12.56-68.91c2.9,2.93,5.76,5.9,8.75,8.73.29.27,1.35-.27,2.05-.43-1.28-3.97-2.48-7.98-3.98-11.87-.17-.43-2.1-.17-3.22-.23-3.38,1.2-6.77,2.37-10.12,3.66-.21.08-.08,1.07-.11,1.64,2.21-.5,4.42-1,6.63-1.51Zm20.05,20.01c-1-1.18-1.78-2.74-3.04-3.48-3.95-2.31-8.08-4.3-12.14-6.42-.44,1.08-1.5,2.41-1.19,3.17.57,1.4,1.73,2.9,3.05,3.59,3.84,1.99,7.94,3.47,11.8,5.41,1.5.76,2.66,2.21,3.97,3.35-.85-1.91-1.7-3.82-2.53-5.71,1.69,1.54,3.2,4.04,5.1,4.39,3.15.59,3.35-1.58.93-3.03-1.65-.98-3.94-.88-5.95-1.27Zm-15.11,137.08l4.4-3.04c-9.64-5.28-11.83-10.51.06-15.73.25-.11.42-.95.26-1.25-.16-.3-.79-.49-1.22-.48-4.45,0-8.89.06-13.34.11,5.36,5.76,1.66,15.87,9.74,20.32-1.83,2.69-3.67,5.38-5.5,8.07.48.06,1.12.36,1.41.16,2.78-1.99,5.5-4.07,8.23-6.12-1.34-.67-2.69-1.35-4.03-2.02Zm32.07-97.98c.17-3.27.35-6.53.52-9.8-1.47-.05-2.94-.09-4.41-.14,1.09,3.12,2.18,6.24,3.26,9.36-3.28-1.41-7.97,5.22-10.28-1.81-.43-1.3-.95-2.56-1.44-3.83.11,1.68.22,3.37.33,5.05-1.03-1.2-1.91-3.2-3.12-3.44-2.48-.48-5.15-.01-7.74.07,3.46,1.4,6.91,2.81,10.37,4.21-.33,3.73-.82,7.46-.95,11.2-.17,5,9.22,5.15,12.81.02,2.34-3.34,4.24-7.04.64-10.88Zm-89.82-105.3c.16-1.38.32-2.77.48-4.15,1.35.37,3.03.36,3.96,1.2.97.87,1.22,2.55,1.78,3.88.74-2.09,1.98-4.14,2.12-6.27.36-5.26-4.36-8.1-7.54-7.06-2.54.83-3.51,6.45-5.18,9.94-.58-2.41-1.17-4.81-1.75-7.22-2.34,3.93-4.67,7.85-7.01,11.78,1.7.62,3.71.87,5.02,1.96,1.64,1.37,2.69,3.43,4,5.19-1.58-.37-3.16-.78-4.76-1.09-.53-.1-1.11.04-1.67.07.47.43.96.84,1.39,1.3,7.14,7.61,20.72,1.82,26.45,12.63.17.32,2.75-.39,4.01-1.01.44-.22.28-1.65.39-2.53-12.23-.36-10.63-16.87-21.69-18.61Zm73.47-54.92c-.49-6.57.24-11.84-5.28-10.88-12.63,2.18-22.34,9.5-29.85,19.79,1.16.54,2.46,1.73,3.45,1.52,11.3-2.41,24.02-1.6,31.68-10.43Zm1.64,75.86c8.09-5.41,14.98-10.01,21.87-14.61-5.14-6.78-12.16-.83-18.29-2.29-3.07-.73-7.51,4.26-11.33,6.67,2.41,3.19,4.83,6.37,7.75,10.23Zm16.56,6.34c-.49,1.01,2.08,2.17,5.31,1.16,6.96-2.18,13.72-5.01,20.57-7.57-4.04-2.45-7.93-6.59-12.15-6.94-6.03-.5-11.34,2.87-13.73,13.35Zm-41.64,113.75c4.86,1.37,6.04,1.7,7.21,2.03-1.02.96-1.95,2.04-3.07,2.86-4.7,3.46-9.75,3.45-14.97,1.32,1.34,2.55,3.5,7.45,3.88,7.32,7.38-2.62,14.54-5.83,21.75-8.91-.66-1.43-1.31-2.86-1.97-4.29-3.93,4.65-1.4-11.27-6.89-2.18-.37.61-2.18.44-3.33.49-1.46.06-2.92-.02-4.39-.05,1.56,1.25,3.11,2.5,1.76,1.41Zm-11.6-49.85c.75,1.25,1.49,2.47,2.22,3.69.44-1.1.88-2.2,1.32-3.3,1.65,1.09,3.3,2.18,4.94,3.27-3.85,1.88-4.29,3.48.59,3.55,1.37.02,2.77-1.94,4.16-2.99-1.8-1.92-3.28-4.46-5.48-5.61-3.8-1.99-8.08-3.04-12.08-4.68-.81-.33-1.28-1.49-1.91-2.27-.45,1.35-1.7,3.2-1.22,3.97,1.85,2.99,4.26,5.65,6.46,8.42.21-.84.41-1.69,1-4.06Zm23.35,118.02c-1.02.75-3.09,2.26-5.16,3.77.86.58,2.13,1.87,2.51,1.65,8.19-4.85,11.85,3.1,17.4,5.84,2,.99,4.73.82,7.08.6.75-.07,1.34-1.97,2-3.04-9.55,2.66-13.85-8.12-23.83-8.83Zm1.98,5.05c-7.34.25-9.9-.43-11.42.54-3.48,2.23-6.44,5.26-9.61,7.97,1.68,1.1,3.9,3.49,4.93,3.05,2.93-1.25,5.37-3.64,16.1-11.56Zm25.66-122.24c-5.15-7.13-12.91-4.44-19.3-6.19,0,.41-.12,1.16,0,1.19,6.04,1.96,12.1,3.86,18.17,5.71.26.08.7-.44,1.13-.72Zm91.15-7.04c-1.8.95-2.96,1.55-4.13,2.16,4.01,2.78,7.97,5.65,12.13,8.19.41.25,2.05-1.53,3.13-2.37-3.65-2.62-7.3-5.24-11.13-7.98Zm-58.13-70.55c-1.93.76-3.09,1.22-4.26,1.68,4.41,2.22,8.77,4.53,13.27,6.55.58.26,1.84-1.03,2.79-1.6-4.03-2.26-8.06-4.53-11.81-6.63Zm-15.36,133.45c-2.59-5.38-4.2-8.72-5.81-12.06-3,4.11,4.82,9.26-1.25,13.08.55.72,1.43,2.14,1.59,2.06,2.02-.98,3.94-2.18,5.47-3.08Zm35.89-159.17c3.64-1.02,6.06-1.7,8.48-2.39-3.7-1.22-7.39-2.52-11.14-3.54-.37-.1-1.8,2.05-1.72,2.12,1.45,1.43,3.06,2.71,4.38,3.81Zm-31.17,162.42c.73,2.46,1.18,3.98,1.63,5.5,1.92-2.97,3.89-5.91,5.58-9.01.07-.13-2.51-1.71-3.86-2.62-1.22,2.22-2.43,4.45-3.36,6.13Zm-53.23-71.95c1.59-.39,2.5-.61,3.42-.84-.93-1.59-1.85-3.18-2.78-4.77l-8.71,5.61h8.08Zm20.06,163.65c-.57,3.06-1.55,4.98-.96,5.91,1.09,1.74,2.99,3.09,4.81,4.16.32.19,2.95-2.41,2.76-2.74-.89-1.57-2.38-2.81-6.61-7.33Zm12.58-173.85c2.18-1.92,4.27-3.76,6.37-5.61-.78-.42-1.9-1.4-2.28-1.16-2.37,1.46-4.58,3.19-6.85,4.83.77.54,1.54,1.08,2.76,1.94Zm-15.64,113.97c-1.95,1.31-3.34,2.25-4.73,3.19,1.52,1.44,3.04,2.88,4.56,4.33.82-1.19,2.27-2.36,2.3-3.56.03-1.26-1.31-2.56-2.12-3.96Zm-16.88-329.37c-1.67-1.12-3.06-2.72-3.87-2.46-1.64.51-2.96,2.03-4.41,3.13,1.05.74,2.22,2.21,3.11,2.05,1.62-.29,3.07-1.54,5.18-2.72Zm-10.94,216.14c-1.37-.52-2.51-1.34-2.97-1.06-2.05,1.27-3.91,2.85-5.84,4.33.6.6,1.59,1.82,1.74,1.72,2.25-1.44,4.39-3.05,7.07-4.99Zm-50.15,102.05c-1.17.85-2.04,1.49-2.92,2.13l5.23,7.11c.4-.36,1.22-.89,1.15-1.07-1.07-2.72-2.26-5.39-3.46-8.17Zm34.68,21.15c-1.41,2.46-3.72,4.71-3.63,6.85.09,2.16,2.58,4.22,4.01,6.32.13-4.09.28-8.18.37-12.28,0-.27-.45-.54-.75-.89Zm15.1-190.98c-2.08-1.29-3.69-2.47-3.82-2.33-1.66,1.86-3.12,3.91-4.63,5.91.6.16,1.36.64,1.76.43,1.84-.96,3.57-2.11,6.68-4.02Zm-36.25,70.04c-.51-1.65-.71-2.28-.9-2.91-1.07,2.32-2.21,4.62-3.15,6.99-.14.34.65,1.05,1.01,1.59,1.11-2.06,2.21-4.11,3.05-5.67Zm86.24,15.01c-3.18.39-4.57.56-5.95.73,2.95,1.28,5.91,2.57,8.88,3.79.05.02.71-1.04.62-1.13-1.37-1.4-2.82-2.71-3.54-3.38Z"/>
      <path class="cls-2" d="m72.91,163.71c6.25-4.85-5.26-8.6-.85-13.61.84-.96,0-3.39-.07-5.15,1.17.81,2.24,2.13,3.51,2.34,5.23.89,11.13.17,15.65,2.37,11.73,5.7.45,6.93-2.42,9.73-1.2,1.18-2.3,2.52-3.67,3.45-4.13,2.79-2.88,13.05,2.47,16.53,2.82,1.84,6.29,2.68,9.47,3.97-6.81,8.94-7.85-1.94-11.55-3.49-2.23-.93-4.1-2.75-6.14-4.16,2.02,3.23,3.6,6.87,6.16,9.58,4.1,4.33,8.86,8.03,13.34,11.99-5.59,1.85-10.78,1.95-14.76-3.33-1.18,1.52-2.66,2.93-3.34,4.65-.18.46,2.15,1.82,3.2,2.89.74.76,1.26,1.73,1.88,2.6-1.23-.4-2.46-.81-3.68-1.21-.51.1-1.01.21-1.52.31-9.78,7.11-10.22-4.87-15.25-7-5.59-2.36-12.75-.77-19.18-1.43-11.89-1.2-23.8-2.47-35.56-4.53-1.93-.34-7.19-2.99-3.92-7.88,2.47,4.79,6.24,6.64,11.76,6.84,11.54.41,23.07,2.46,34.57,2.22,8.35-.17,19.05-.47,24.12-5.42,3.31-3.23,3.6-16.04-4.35-22.41l.12.13Z"/>
      <path class="cls-2" d="m168.72,236.95s-.12.19-.12.19c-11.46,3.47-6.3,17.5-14.59,22.99-2.83,3.53-5.65,7.06-8.48,10.58,1.36.29,2.77.44,4.05.94.36.14.58,1.81.46,1.86-4.59,1.96-9.23,3.82-13.86,5.69-.75-2.27-1.64-4.52-2.19-6.84-.19-.81.15-2.3.75-2.67,6.04-3.77.57-8.92-.14-11.71-1.73-6.81,1.53-8.44,6.01-10.47,1.61.25,3.22.5,4.83.75-.33-3.11-.67-6.22-1-9.33l-2.97.98c-.28-.98-.26-2.31-.9-2.87-2.22-1.93-4.67-3.58-7.03-5.34,4.09,1.17,8.21,2.25,12.25,3.55,1.81.58,3.47,1.61,5.2,2.43.47-1.19,1.67-2.92,1.27-3.47-1.16-1.58-2.77-3.32-4.54-3.85-8.67-2.61-17.53-4.61-26.14-7.4-1.94-.63-3.17-3.52-4.61-5.46-.13-.18.78-1.44.84-1.41,2.18,1.03,4.71,1.74,6.39,3.34,8.38,7.96,19.87,6.62,29.03,6.38,10.24-.27,13.79,2.48,15.47,11.12Zm-13.15-.59c-.28,1.79-1.29,3.95-.64,5.29.77,1.58,3.96,3.76,4.42,3.42,4.74-3.54-6.34-8.85,1.22-12.46-.99-.48-1.94-1.28-2.96-1.37-6.22-.57-1.21,3.46-2.03,5.13Z"/>
      <path class="cls-2" d="m253.65,70.36c9.77-1.17,7.17-13.64,17.98-17.62,9.64-3.55,12.2,6.06,18.4,2.95,1.03,3.98,2.06,7.96,3.1,11.94-1.31-.07-2.72.13-3.9-.3-.75-.27-1.5-2.23-1.66-2.16-2.85,1.32-5.61,2.84-8.39,4.32,1.17.47,2.55.69,3.47,1.46,1.78,1.49,4.86,3.63-.14,4.68-2.35.49-4.98-.61-7.48-.59-4.24.04-8.49.4-12.73.6-4.08.19-7.97.06-8.69-5.28,1.4.51,2.77,1.39,4.17,1.43,2.19.06,4.5-.14,6.57-.81,1.91-.62,3.58-2.01,5.35-3.06-3.72.11-7.47.01-11.16.41-1.69.18-3.27,1.33-4.9,2.04Z"/>
      <path class="cls-2" d="m115.26,86.1c-6.74-5.23-3.66-17.86-14.49-22.43-1.81-.76-2.38-4.46-3.53-6.81,2.01-.32,4.9-1.61,5.87-.75,2.33,2.08,3.98,5.04,5.47,7.88,1.17,2.23,1.69,4.8,2.5,7.22.29-2.22.78-4.44.82-6.67.14-8.22,2.25-8.42,6.25-1.64,5.69-4.6,6.29-1.91,5.04,3.5-.25,1.1-.39,2.23-.59,3.35-1.45-.59-3.11-.93-4.3-1.86-1.22-.96-1.99-2.5-2.96-3.79.7,2.32,1.68,4.59,2.06,6.96.93,5.79,1.44,11.66,2.51,17.42.19,1.04,2.27,1.72,3.48,2.57.17-1.08.25-2.2.55-3.24.36-1.25.92-2.45,1.4-3.67,1.14,1.32,3.46,2.94,3.21,3.9-1.3,5.02,7.36,8.03,2.41,13.35-.04.04-1.9-1.85-3.07-2.6-4.81-3.06-12.86-2.43-12.63-12.7Z"/>
      <path class="cls-2" d="m68.24,117.06c-.52,10.39,9.47-8.39,8.77,6.68-.29,6.33-.95,11.76-3.44,17.28-6.29-6.58-12.14,3.71-18.41.48-2.71-1.4-5.69-2.3-8.35-3.78-.87-.49-1.13-2.08-1.68-3.16,1.69-.01,3.79-.69,5.02.06,20.84,12.83,4.24-11.35,11.61-11.71-1.18-6.73,4.3-.9,6.47-5.83Zm-6.11,13.95c1.87,2.48,3.69,6.27,4.74,6.06,6.18-1.21-1.13-6.07,1.75-8.68.09-.08-1.67-2.19-2.57-3.35-1.11,1.69-2.22,3.39-3.92,5.97Z"/>
      <path class="cls-2" d="m266.79,90.2c-2.74-1.97-5.47-3.95-8.21-5.92.62-.64,1.27-1.86,1.84-1.82,2.99.2,6.34-.02,8.85,1.28,5.19,2.71,8.88,2.32,13.78-1.42,7.25-5.54,12.57,1.17,18.09,4.92-3.45.09-6.92.06-10.36.33-1.53.12-3.02.85-4.52,1.3,2.19.6-2.01,5.81,3.43,4.53,1.62-.38,3.84,1.76,5.78,2.75-1,.47-2.27.69-2.96,1.44-3.71,4.02-1.92-1.89-3.13-1.7-8.45,1.33-15.39-1.78-22.6-5.67Z"/>
      <path class="cls-2" d="m158.4,58.76c-.48-5.3-8.15-9.27-2.04-15.13,2.06,4.87,3.37,10.26,6.35,14.48,4.86,6.87,10.89,12.91,16.2,19.48.63.78.03,2.78-.39,4.09-.22.69-1.29,1.11-1.98,1.65-.69-1.2-1.12-2.68-2.1-3.56-5.49-4.96-10.52-10.82-16.83-14.37-7.33-4.13,6.47-4.2.78-6.63Z"/>
      <path class="cls-2" d="m200.84,448.78c-1.23,1.52-2.47,3.05-3.7,4.57-2.27-2.64-4.55-5.29-6.82-7.93,7.86-1.24-6.59-10.3,3.74-10.73.29-.01.87-1.09.76-1.22-1.72-2.12-3.54-4.17-5.33-6.23.62.03,1.45-.19,1.83.13,3.58,3,9.61,5.81,10.01,9.24.6,5.16,5.27,3.4,6.39,6.26.54-1.7,1.07-3.41,1.65-5.11.12-.36.42-.66.64-.98,1.69,1.78,3.65,3.4,4.91,5.45.38.61-1.01,3.28-1.95,3.52-1.8.44-3.91,0-5.82-.41-3.57-.78-7.08-1.88-10.66-2.64-.46-.1-1.19,1.1-1.79,1.7,2,1.47,4,2.93,5.99,4.4,0,0,.14-.01.14-.01Z"/>
      <path class="cls-2" d="m145.15,74.28c-2.94,3.57-5.57,7.8-9.28,10.61-1.14.87-5.21-2.12-7.95-3.34,6.08-3.11-6.81-9.66,2.22-12.25.14-.04.23-.22.34-.35,1.98-2.3-2.56-9.47,4.93-7.07,1,.32.21,6.6.03,10.11-.16,3.15-1.48,7.32,3.56,2.15,1.07-1.1,3.71-.67,5.62-.9.08,0,.2.39.52,1.03Z"/>
      <path class="cls-2" d="m330.46,243.34c-3.24.07-6.78.95-9.59-.11-1.6-.6-1.99-4.4-2.92-6.75,5.58-1.82,11.06-4.12,16.76-5.35,8.63-1.86,2.29,11.79,10.59,10.78-1.75.18-3.5.45-5.25.5-2.14.07-4.29-.05-6.44-.08-1.42-5.51-6.05-1.9-9-3.1-.15-.06-.75.96-1.14,1.47,2.33.88,4.66,1.75,7,2.63Z"/>
      <path class="cls-2" d="m152.59,359.74c.02.31.06.61.13.9-3.67,2.72-7.1,5.95-11.12,7.98-2.24,1.13-5.48.29-8.26.34,1.54-1.15,3.02-2.42,4.67-3.39.78-.46,1.89-.34,2.85-.49-1.58-.78-3.84-2.65-4.63-2.16-8.3,5.18-5.04-6.23-9.12-6.25-7.54-.03-6.23-1.51-.89-4.1,2.97,6.22,8.65-.09,12.37,2.68l-.09-.1c2.7,7.68,9.27,3.45,14.09,4.59Z"/>
      <path class="cls-2" d="m333.01,157.57c-6.93.96-11.42,1.88-15.93,2.05-1.6.06-3.26-1.68-4.9-2.6,2.36-2.07,4.71-4.14,7.07-6.21.63,2.34,7.97-.88,4.26,5.13-.13.22.29.78.46,1.18,3.33-2.38,6.72-4.69,9.97-7.18,1.84-1.41,3.44-3.12,5.16-4.69.36,1.18,1.38,2.7.97,3.48-2.23,4.36-4.3,11.52-7.39,12.04-4.04.69,2.16-1.55.91-2.9-.67-.72-1.94-.88-.57-.31Z"/>
      <path class="cls-2" d="m200.84,448.78s-.14.01-.14.01c-.84-1.36-1.68-2.71-2.52-4.07,2.16.49,4.38.84,6.45,1.59.36.13-.24,2.57.22,2.84,3.91,2.21,7.95,4.18,11.97,6.19,1.25.63,2.56,1.15,3.84,1.73-1.43.53-2.86,1.46-4.3,1.49-2.11.05-4.24-.55-6.36-.87,1.39,3.9-3.87,13.64,7.63,8.7.17-.07.58.41.87.63-.9.59-1.99,1.86-2.65,1.66-3.89-1.17-9.43-1.6-11.09-4.32-2.67-4.36-2.75-10.31-3.92-15.59Z"/>
      <path class="cls-2" d="m161.66,429.48c.23,3.7,11.14,3.9,3.33,10.38-1.29,1.07-1.52,3.4-2.24,5.15,0,0,.12-.09.12-.09-5.25.99-7.8-8.01-13.92-3.77,5.94-4.63-6.06-20.12,10.91-18.07-3.42,4.03-11,8.61-5.83,13.4,4.8,4.45,3.28-6.3,7.64-7Z"/>
      <path class="cls-2" d="m162.75,445.01c4.67,3.9,7.43.83,10.08-2.74.19-.25.68-.27,1.04-.4-.19.96-.36,1.93-.56,2.89-.31,1.48-.64,2.96-.96,4.43,1.2.13,2.45.08,3.57.45,1.55.51,3.01,1.33,4.5,2.01-.47.87-1.33,2.52-1.36,2.51-6.52-3.29-5.26,11.61-12.66,5.38-.38-.32,1.2-2.89,1.79-4.45.29-.75.41-1.57.61-2.36-8.7,2.52-10.5-.23-5.94-7.81,0,0-.12.09-.12.09Z"/>
      <path class="cls-2" d="m235.96,456.52c-9.03-4.19-14.97-9.51-15.38-19.15-.02-.4,1.43-1.26,1.51-1.19,1.82,1.74,4.04,3.33,5.12,5.48.89,1.78.38,4.25.65,6.4,0,.07,1.66-.06,2.54-.09-.09-1.75-.32-3.51-.22-5.25.04-.69.89-1.95,1.26-1.91,7.34.76,3.61,8.67,7.36,11.89.08.07-1.84,2.47-2.85,3.82Z"/>
      <path class="cls-2" d="m112,105.92c7.27,1.94,8.48,2.26,9.69,2.59-.63.53-1.41,1.63-1.86,1.51-3.79-1.05-7.54-2.27-11.26-3.53-4.08-1.39-8.12-2.88-12.18-4.32-.55-.2-1.53-.35-1.57-.62-.17-1.29-.09-2.62-.09-3.94,7.08,1.39,14.47,2,21.07,4.62,2.05.81,7.71-3.55,6.39,2.95-.08.4-7.16-.62-10.99-.92-.09,0-.39,1.03-.32,1.06,2.21,1.17,4.45,2.28,1.12.62Z"/>
      <path class="cls-2" d="m128.29,139.56c10.84-1.63,18.1-3.83,23.16,3.45-.77.47-1.89,1.53-2.25,1.32-7.85-4.7-17.35,7.22-24.63-2.46,2.35-1.46,4.69-2.91,3.72-2.31Z"/>
      <path class="cls-2" d="m178.76,275.13c1.46.19,3.24,7.4,4.49-.23.11-.69,3.42-1.71,3.65-1.41,2.88,3.92,5.47,8.06,8.13,12.14-1.33-.13.29,8.17-3.38,1.2-.59-1.12-.36-3.18-1.14-3.59-1.13-.59-2.87-.22-4.29.04-1.9.36-4.04,1.88-5.58,1.38-5.93-1.93-2.3-6.16-1.8-9.63,0,0-.08.09-.08.09Z"/>
      <path class="cls-2" d="m158.96,384.63c-2-.82-6.39-2.61-10.78-4.4,1.7-2.57,3.98-7.54,5.01-7.3,3.94.95,7.48,3.57,11.16,5.56-4.16.77,4.53,7.03-5.39,6.13Z"/>
      <path class="cls-2" d="m135.27,420.98c11.97-8.58,3.56,10.96,11.41,8.72-2.35.67-4.94,2.31-6.98,1.79-3.51-.89-6.67-3.14-9.98-4.81,4.79.72-1.49-8.11,5.55-5.7Z"/>
      <path class="cls-2" d="m123.74,344.09c-.21-.13-2.85-1.8-5.5-3.47,1.33-1.98,3.4-5.84,3.88-5.65,6.95,2.72,13.68,5.99,20.46,9.12h-18.84Z"/>
      <path class="cls-2" d="m95.25,66.5c6.4,5.21,12.58,9.35,12.54,17.92,0,1.53,1.13,3.2,2.1,4.54.63.86,1.92,1.23,2.92,1.82-1.47.11-3.89.84-4.27.25-4.85-7.47-9.43-15.12-13.98-22.78-.21-.35.47-1.22.69-1.75Z"/>
      <path class="cls-2" d="m295.88,361.26c-.37,0-.74.02-1.11.02-2.65-3.6-5.48-6.78-10.62-4.49-1.73-1.17-3.47-2.34-5.2-3.5,2.07-3.95,8.44-3.93,8.52-2.79.41,5.95,16.41-.65,8.42,10.75Z"/>
      <path class="cls-2" d="m127.02,328.85c-1.9-.78-3.75-1.7-5.7-2.31-2.22-.7-6.04-5.4-5.5,1.83.06.84,1.9,1.57,2.95,2.3,1.05.73,2.15,1.38,3.22,2.07-2.1,1.08-4.2,2.15-6.3,3.23-1.19-5.66-4.76-12.38-2.85-16.65,1.63-3.64.79,3.34,2.05,3.14,5.85-.95,9.14,2.29,12.06,6.49,0,0,.07-.1.07-.1Z"/>
      <path class="cls-2" d="m72.79,163.58c3.42,8.74-5.74,8.11-8.89,11.95-.96-.9-2.88-2-2.74-2.68,1.28-6.27,5.21-9.47,11.74-9.15,0,0-.12-.13-.12-.13Z"/>
      <path class="cls-2" d="m169.49,217.49c-.54,7.85-6.97,1.21-9.61,3.91-3.59-4.26-7.18-8.52-10.76-12.78,2.06.72,4.13,1.44,6.19,2.16,4.76,2.27,9.53,4.54,14.3,6.81l-.11-.1Z"/>
      <path class="cls-2" d="m46.11,157.22c.93.38,3.34.82,3.42,1.51.47,4.08.39,8.23.49,12.36-5-1.18-10-2.36-15-3.54,4.69-1.46,10.5-1.47,11.08-10.33Z"/>
      <path class="cls-2" d="m293.68,344.07c2.97-1.68,5.65-4.18,8.55-4.47,1.76-.18,3.87,3.04,5.82,4.73-.7.7-1.48,2.06-2.08,1.99-3.23-.38-6.42-1.12-12.28-2.24Z"/>
      <path class="cls-2" d="m64.77,237.37c-.21-.25-2.08-1.65-1.85-2.33.87-2.51,2.23-4.94,3.93-6.96.27-.32,3.98,1.14,4.76,2.54,3.24,5.76-.37,6.87-6.84,6.75Z"/>
      <path class="cls-2" d="m253.27,453.38c-2.61-.99-5.88-2.23-9.15-3.47-.27,1.06-.54,2.13-.81,3.19-.67-.72-2.04-1.83-1.89-2.11.99-1.8,2.31-3.42,3.52-5.1,2.87,2.36,11.38-3.96,8.32,7.49Z"/>
      <path class="cls-2" d="m296.81,158.21c7.63-11.28,8.98-5.24,11.5-3.96-1.84.45-3.68.9-5.52,1.36,1.3,2.11,5.19,5.65.09,5.89-3.51.16-5.32-4.99-6.06-3.28Z"/>
      <path class="cls-2" d="m249.16,129.02c-2.69,1.99-2.25,9.32-8.26,5.18-.97-.67-.47-6.04.47-6.41,2.28-.91,5.22-.15,7.89-.07-.03.43-.07.87-.1,1.3Z"/>
      <path class="cls-2" d="m318.85,225.31c2.42-5.21,4.95-10.37,7.42-15.56,7.44,7.01-6.03,9.31-3.42,15.23,0,0,.1-.13.1-.13-1.4.12-2.8.24-4.21.36,0,0,.11.09.11.09Z"/>
      <path class="cls-2" d="m171.71,286.73c-.8-2.01-1.61-4.01-2.41-6.02,2.22,1.52,4.49,2.97,6.64,4.59,6.96,5.24,7.52,6.32,4.56,7.7-6.44,3.01-3.61-7.43-8.89-6.39l.1.13Z"/>
      <path class="cls-2" d="m112.74,138.41c1.61-2.11,2.51-3.29,3.41-4.47,1.52,1.44,4.42,3.05,4.27,4.28-.28,2.34-2.31,4.47-3.62,6.69-1.23-1.97-2.46-3.94-4.06-6.5Z"/>
      <path class="cls-2" d="m206.44,322.31c-4.84.12-7.34-2.62-8.53-6.97.61-.65,1.22-1.3,1.84-1.94,0,0-.13-.08-.13-.08,3.01,1.64,6.02,3.28,9.03,4.91-.74,1.36-1.47,2.72-2.21,4.08Z"/>
      <path class="cls-2" d="m67.12,211.91c-2.33,1.38-4.14,3.12-6.18,3.45-1.69.28-3.65-1.1-5.49-1.74,3.08-1.95,6.15-3.9,9.23-5.85.58.98,1.15,1.95,2.44,4.13Z"/>
      <path class="cls-2" d="m196.18,461.32c-4.43,3.09-7.56,5.31-10.78,7.39-.09.06-1.08-1.28-1.65-1.96,6.17-.97,1.25-7.07,3.96-8.75,1.27-.79,4.55,1.68,8.47,3.32Z"/>
      <path class="cls-2" d="m53.89,180.67c-.36-1.29-.72-2.57-1.08-3.86,3.1.39,6.2.79,9.3,1.18-.52,1.58-.61,3.56-1.63,4.68-3.43,3.77-4.78-.29-6.68-2.1l.1.09Z"/>
      <path class="cls-2" d="m300.37,212.45c3.3,1.37,6.6,2.74,9.9,4.11-.84.65-1.77,1.94-2.51,1.84-3.19-.42-6.32-1.26-9.47-1.94.73-1.37,1.47-2.75,2.21-4.12,0,0-.12.11-.12.11Z"/>
      <path class="cls-2" d="m238.44,93.18c-2.9-.4-6.56-.91-10.22-1.43,2.17-1.46,4.18-3.48,6.57-4.1,1-.26,2.93,3.74,4.18,3.59,9.09-1.07,7.18-.38-.52,1.93Z"/>
      <path class="cls-2" d="m232.88,148.51c1.12-2.16,1.85-3.57,2.59-4.98.27.64.96,1.49.75,1.88-3.07,5.84,9.52,9.92,1.79,16.2-1.7-4.34-3.4-8.69-5.13-13.11Z"/>
      <path class="cls-2" d="m105.71,223.45l-3.59,7.8c-1.08-.67-3.14-1.48-3.07-1.98.38-2.68,1.3-5.28,2.03-7.91,1.56.77,3.12,1.53,4.68,2.3,0,0-.04-.21-.04-.21Z"/>
      <path class="cls-2" d="m346.47,269.61c-1.65-4.37,10.13-2.86,4.01-9.18,1.86-.42,3.72-.84,5.58-1.26.22,1.76,1.18,4.67.53,5.09-3.22,2.09-6.86,3.52-10.35,5.18,0,0,.23.18.23.18Z"/>
      <path class="cls-2" d="m146.43,423.49c-1.04-1.81-2.46-3.24-2.47-4.67,0-1.07,2.11-3.23,2.77-3.05,3.58.99,10.09,2.86,9.99,3.89-.73,7.61-9.19-7.14-10.3,3.83Z"/>
      <path class="cls-2" d="m96.93,162.18c.94-2.04,1.26-2.74,1.57-3.43,3.03,4.83,6.06,9.65,9.04,14.51.08.12-.52.66-.81,1-3.32-4.09-6.64-8.18-9.81-12.08Z"/>
      <path class="cls-2" d="m123.27,412.7c3.72,1.32,7.44,2.65,11.16,3.97-.7.74-1.34,2.05-2.12,2.14-4.67.53-8.32-.77-9.08-6.16l.05.04Z"/>
      <path class="cls-2" d="m242.34,46.96c-1.34-1.03-2.68-2.06-4.01-3.09-.31-2.2-.62-4.4-.93-6.6,1.59.61,3.95.78,4.6,1.93,1.39,2.45,1.9,5.41,2.77,8.17-.81-.13-1.62-.27-2.43-.4Z"/>
      <path class="cls-2" d="m138.59,355.26c2.32-3.75,5.05-6.73,9.99-4.62.53.23.59,1.57.87,2.4-3.65.71-7.3,1.42-10.95,2.12,0,0,.09.1.09.1Z"/>
      <path class="cls-2" d="m138.9,293.47c-.6.73-1.06,1.29-1.52,1.84.92-5.96-5.64-.23-5.43-3.23.2-2.78,2.21-5.42,3.43-8.12,1.16,3.13,2.31,6.26,3.52,9.51Z"/>
      <path class="cls-2" d="m155.21,58.56c-1.06.96-1.66,1.5-2.26,2.04-2.37-3.06-4.87-6.03-6.95-9.27-.27-.43,1.59-2.22,2.46-3.39,2.19,3.44,4.38,6.89,6.75,10.61Z"/>
      <path class="cls-2" d="m105.71,223.45s.04.21.04.21c-.52-1.77-1.04-3.54-1.56-5.31,2.31.26,4.68.31,6.91.91.67.18.93,1.9,1.38,2.92l-6.76,1.27Z"/>
      <path class="cls-2" d="m140.71,377.63c3.42,1.21,7.25,1.17,4.76,5.46-.38.66-3.31.1-4.96-.31-1.03-.26-1.87-1.28-2.8-1.97,1.05-1.12,2.11-2.23,3-3.19Z"/>
      <path class="cls-2" d="m203.18,301.79c8.05-1.08,4.8,4.14,6.3,6.29.12.18-.28.72-.43,1.1-2.09-4.37-5.19-5.43-9.41-2.91,1.51-1.91,3.02-3.82,3.54-4.48Z"/>
      <path class="cls-2" d="m56.69,233.33c-1.91-.83-3.74-1.63-5.57-2.43,1.68-2,3.36-4,5.04-6.01,1.49,2.06,2.97,4.13,4.46,6.19-1.35.77-2.7,1.54-3.94,2.25Z"/>
      <path class="cls-2" d="m108.69,200.29c-7.79.61-4.74-5.36-7.07-7.52-.02-.02.44-.55.67-.84,3,2.44,6,4.88,9,7.32-1.38.55-2.75,1.09-2.61,1.03Z"/>
      <path class="cls-2" d="m49.41,247.56c-3.05-1.02-5.94-1.99-8.83-2.96.97-.91,2.16-2.75,2.87-2.58,3.08.76,6.02,2.1,9.01,3.23-1.03.78-2.05,1.55-3.05,2.31Z"/>
      <path class="cls-2" d="m126.95,328.94c2.88.59,5.77,1.13,8.62,1.86.33.08.39,1.22.58,1.87-2.08.39-4.41,1.53-6.14.93-1.38-.47-2.02-3.07-2.99-4.74,0-.01-.06.09-.06.09Z"/>
      <path class="cls-2" d="m199.75,313.39c-.83-.84-1.66-1.68-2.48-2.52,1.94-.86,3.84-2.09,5.86-2.37.63-.09,1.61,2.39,2.43,3.69-1.98.37-3.96.74-5.93,1.12,0,0,.13.08.13.08Z"/>
      <path class="cls-2" d="m267.87,99.49c1.85-1.69,3.04-2.77,4.22-3.85,1.72,2.17,3.45,4.35,5.17,6.52-1.87.55-3.82,1.68-5.59,1.45-1.19-.15-2.13-2.21-3.8-4.13Z"/>
      <path class="cls-2" d="m77.56,93.42c3.02,1.51,6.85,3.43,10.68,5.34-.65.5-1.53,1.56-1.93,1.41-4.48-1.72-8.89-3.63-13.32-5.48,1.08-.3,2.16-.6,4.56-1.27Z"/>
      <path class="cls-2" d="m112.59,187.16c-1.75.84-2.45,1.38-2.64,1.24-3.19-2.38-6.32-4.85-9.46-7.3.79-.5,2.01-1.61,2.31-1.4,3.08,2.16,6.02,4.54,9.79,7.47Z"/>
      <path class="cls-2" d="m154.64,316.43c-1.01-2.59-2.91-5.24-2.76-7.77.13-2.3,2.49-4.46,3.87-6.69-.4,4.79-.8,9.58-1.2,14.37,0,0,.1.09.1.09Z"/>
      <path class="cls-2" d="m119.23,154.55c-.59,1.84-1.46,4.59-2.34,7.35-.73-1.57-2.3-3.3-2.03-4.67.59-3.08,2.09-5.99,3.23-8.97.31,1.69.62,3.39,1.15,6.3Z"/>
      <path class="cls-2" d="m139.05,399.32c-.08-.17-.66-.83-.51-1.17,1.22-2.73,2.58-5.4,3.9-8.09,1.38,1.77,2.75,3.55,4.13,5.32-2.36,1.24-4.73,2.48-7.51,3.93Z"/>
      <path class="cls-2" d="m151.2,286.84c-.35,3.08-.66,5.71-.96,8.35-.84-2.81-2.06-5.58-2.35-8.45-.15-1.51,1.32-3.2,2.06-4.8.45,1.74.89,3.48,1.26,4.9Z"/>
      <path class="cls-2" d="m204.75,104.74c-1.44,1.38-2.88,2.76-4.32,4.13.35-5.41,1.89-10.07,7.62-12.08-1.1,2.65-2.2,5.3-3.3,7.95Z"/>
      <path class="cls-2" d="m53.79,180.58c-1.1,1.23-2.2,2.46-3.3,3.69-1.36-1.53-4.19-3.68-3.85-4.49,3.1-7.4,4.27,4.23,7.24.9,0,0-.1-.09-.1-.09Z"/>
      <path class="cls-2" d="m100.87,211.08c-1.56-1.97-3.01-3.81-4.47-5.65.9-.48,2.3-1.59,2.6-1.34,1.97,1.59,3.7,3.49,5.51,5.28-.88.41-1.77.83-3.64,1.71Z"/>
      <path class="cls-2" d="m150.38,224.94c-2.35-2.71-4.53-5.2-6.64-7.75-.06-.07.86-1.08.88-1.07,2.82,2.13,5.59,4.32,8.37,6.5-.67.6-1.35,1.19-2.61,2.31Z"/>
      <path class="cls-2" d="m68.23,226.88c-2.95-1.02-4.89-1.68-6.82-2.35,1.42-.89,2.76-2.34,4.27-2.54,2.35-.3,4.81.26,7.22.45-1.58,1.5-3.15,3-4.67,4.43Z"/>
      <path class="cls-2" d="m172.63,43.36c.24.44.49.87.73,1.31.38,2.78.76,5.56,1.15,8.33-1.63-2.2-3.42-4.31-4.73-6.69-.19-.35,1.84-1.94,2.85-2.96Z"/>
      <path class="cls-2" d="m322.86,224.98c2.34.21,4.68.41,7.02.62-1.03,1.71-1.79,4.62-3.14,4.91-5.11,1.13-2.92-3.44-3.79-5.67,0,0-.1.14-.1.14Z"/>
      <path class="cls-2" d="m165.62,427.4c5.13.36,9.47.66,13.82.96-2.09.9-4.26,2.66-6.26,2.49-2.65-.23-5.16-1.98-7.73-3.08.23-.49.45-.99.17-.37Z"/>
      <path class="cls-2" d="m259.63,455.5c1.47,1.21,3.44,2.79,5.3,4.49.06.06-.91,1.25-1.39,1.91-2.56-1.91-5.11-3.82-7.67-5.73.87-.15,1.74-.31,3.76-.66Z"/>
      <path class="cls-2" d="m80.61,203.18c.51-.1,1.01-.21,1.52-.31,1.28,1.33,2.57,2.65,3.85,3.98-2.7.95-5.4,1.89-8.1,2.84.91-2.17,1.82-4.34,2.74-6.51Z"/>
      <path class="cls-2" d="m235.22,460.45c-1.23.36-2.13.93-2.48.69-2.42-1.65-4.73-3.47-7.07-5.23.56-.46,1.47-1.42,1.64-1.3,2.51,1.73,4.92,3.59,7.91,5.85Z"/>
      <path class="cls-2" d="m161.1,294.41c-1.13,1.18-2,2.43-2.25,2.31-1.52-.7-2.91-1.71-4.34-2.62.89-.64,1.83-1.86,2.66-1.78,1.19.11,2.3,1.16,3.94,2.09Z"/>
      <path class="cls-2" d="m171.61,286.61c.9,2.48,1.8,4.97,2.71,7.45-1.77-1.91-3.64-3.75-5.25-5.79-.53-.67-.39-1.87-.55-2.82,1.06.42,2.13.85,3.19,1.28,0,0-.1-.12-.1-.12Z"/>
      <path class="cls-2" d="m123.23,412.66c-.08,5.15-3.9,1.84-5.76,2.16-1.71.3-5.81-1.17-.87-3.22,1.77-.73,4.43.68,6.68,1.11,0,0-.05-.05-.05-.05Z"/>
      <path class="cls-2" d="m226.78,468.56h-7.11c2.18-1.05,4.3-2.3,6.58-3.03.58-.19,1.69,1.26,2.55,1.96-.67.35-1.34.71-2.02,1.06Z"/>
      <path class="cls-2" d="m127,107.63c1.85-.72,2.84-1.44,3.24-1.2,1.43.89,2.67,2.1,3.97,3.19-.43.4-1.05,1.22-1.26,1.13-1.69-.76-3.3-1.69-5.95-3.12Z"/>
      <path class="cls-2" d="m85.69,209.69c2.02,1.9,3.83,3.6,5.65,5.31-.75.25-1.94.93-2.19.68-1.57-1.56-2.93-3.33-4.32-5.07-.03-.04.43-.46.86-.92Z"/>
      <path class="cls-2" d="m144.16,330.82c.98,2.13,1.97,4.26,2.95,6.39-1.43-.47-3.94-.76-4.05-1.45-.25-1.51.72-3.22,1.17-4.86-.01-.01-.07-.09-.07-.09Z"/>
      <path class="cls-2" d="m249.16,129.02c.03-.43.07-.87.1-1.3.3.34.59.68.89,1.02-.33.09-.66.19-.99.28Z"/>
      <polygon class="cls-2" points="268.68 219.84 268.73 219.79 268.85 219.96 268.68 219.84"/>
      <path class="cls-2" d="m351.33,161.5s-.14-.15-.14-.15c0,0,.14.15.14.15Z"/>
      <path class="cls-2" d="m187.55,395.11l-5.65.4c.21-1.16.42-2.31.63-3.47,1.64,1.06,3.28,2.12,4.92,3.18,0,0,.1-.11.1-.11Z"/>
      <path class="cls-2" d="m250.37,348.32c-4.16-4.89-7.33,1.14-11.06,1.01.73-4.06,2.73-7.53,7.11-7.09,1.5.15,2.64,3.95,3.95,6.08Z"/>
      <path class="cls-2" d="m257.26,400.24c1.71-7.04-4.72-9.1-8-13.09,4.22,1.08,8.96,1.3,12.52,3.47,4.15,2.53,6.51,6.79.52,10.62-1.68-.33-3.36-.67-5.04-1Z"/>
      <path class="cls-1" d="m280.24,355.26c4.53-5.19,8.8-.54,12.87.8.99.32,1.66,4.81.8,6.54-.63,1.27-4.02,1.15-6.18,1.65"/>
      <path class="cls-1" d="m250.32,272.44c1.5,1.66,2.99,3.33,4.49,4.99"/>
      <path class="cls-1" d="m327.61,164.66c-1-.83-1.99-1.66-2.99-2.49"/>
      <path class="cls-1" d="m195.97,47.9c.33-1.5.66-2.99,1-4.49"/>
      <path class="cls-1" d="m190.48,155.68c-2.49.67-4.99,1.33-7.48,2"/>
      <path class="cls-1" d="m143.11,173.64c1.66-4.82,3.32-9.65,4.99-14.47"/>
      <path class="cls-1" d="m189.48,265.45c2.28,7.4,4.79,14.66,11.97,18.96"/>
      <path class="cls-1" d="m174.03,400.67c-.88-3.93-4.07-8.06,1-11.48"/>
      <path class="cls-1" d="m218.4,412.65c2.33,1.33,4.65,2.66,6.98,3.99"/>
      <path class="cls-1" d="m284.23,209.07c-4.16,1.66-8.31,3.33-12.47,4.99"/>
      <path class="cls-1" d="m283.73,298.88c2.94-.79,6.7,5.79,8.98-1"/>
      <path class="cls-1" d="m233.86,162.16c-1.16,3.99-2.33,7.98-3.49,11.98"/>
      <path class="cls-1" d="m142.11,94.3c-1.81,12.01-2.03,23.68,6.98,33.43"/>
      <path class="cls-1" d="m183,99.29c1.33.17,2.66.33,3.99.5"/>
      <path class="cls-1" d="m156.07,65.36c1.5-.67,2.99-1.33,4.49-2"/>
      <path class="cls-1" d="m167.04,68.36c2.83,2.66,5.65,5.32,8.48,7.98"/>
      <path class="cls-1" d="m295.69,369.73c-3.32,1.16-6.65,2.33-9.97,3.49"/>
      <path class="cls-1" d="m223.89,318.84c-5.06,5.44-.1,5.87,3.49,6.99"/>
      <path class="cls-1" d="m221.9,101.29c-1.79,2.74-6.14,4.92-1.99,8.98"/>
      <path class="cls-1" d="m219.4,34.93c-2.33.5-4.65,1-6.98,1.5"/>
      <path class="cls-1" d="m317.14,233.52c-9.83,6.53-19.07,14.82-32.41,10.98"/>
      <path class="cls-1" d="m320.63,165.16c-1.33.17-2.66.33-3.99.5"/>
      <path class="cls-1" d="m305.17,166.65c-7.78.06-6.92,6-7.48,10.98"/>
      <path class="cls-1" d="m162.06,334.81c6.05-8.16,6.76.58,9.47,2.99"/>
      <path class="cls-1" d="m247.82,360.75c-4.7-.65-9.91-3.51-12.96,2.99"/>
      <path class="cls-1" d="m67.82,122.5c-7.26-1.88-3.08,6.58-6.98,7.73"/>
      <path class="cls-1" d="m325.61,265.45c-1.54-5.24-6.01-4.61-9.97-4.99"/>
      <path class="cls-1" d="m234.36,247.49l5.98,13.47"/>
      <path class="cls-1" d="m78.29,160.17c.46,12.95,4.18,22.93,19.95,21.95"/>
      <path class="cls-1" d="m172.03,246.49c-2.49,6.82-4.99,13.64-7.48,20.46"/>
      <path class="cls-1" d="m156.57,43.41c1.5,6.65,2.99,13.31,4.49,19.96"/>
      <path class="cls-1" d="m56.85,189.11c3.49,1.5,6.98,2.99,10.47,4.49"/>
      <path class="cls-1" d="m89.76,194.1c2.99,1.16,5.98,2.33,8.98,3.49"/>
      <path class="cls-1" d="m79.78,172.14c-5.17,6.54,4.08,10.95,2.49,16.96"/>
      <path class="cls-1" d="m332.59,235.51c4.32,2.33,8.64,4.66,12.96,6.99"/>
      <path class="cls-1" d="m333.09,269.44c2.49,2.66,4.99,5.32,7.48,7.98"/>
      <path class="cls-1" d="m347.05,280.92c2.16.5,4.32,1,6.48,1.5"/>
      <path class="cls-1" d="m245.83,19.96c-2.66,1-5.32,2-7.98,2.99"/>
      <path class="cls-1" d="m291.21,211.81c8.99.64,6.56-8.51,10.47-12.22"/>
      <path class="cls-1" d="m177.52,334.31c-.5-2.49-2.27-6.12-1.25-7.27,2.95-3.32,7.04-3.75,9.63.84,1.12,1.98,1.1,4.6,1.6,6.93"/>
      <path class="cls-1" d="m129.15,177.13c-.88,4.32.04,6.65,4.99,4.49"/>
      <path class="cls-1" d="m169.04,279.92c4.97,2.69,4.57,13.31,13.96,9.48"/>
      <path class="cls-1" d="m247.33,3.49c1.55,10.23-11.72,9.75-12.96,17.96"/>
      <path class="cls-1" d="m220.4,145.2c-.66,3.66-1.33,7.32-1.99,10.98"/>
      <path class="cls-1" d="m174.03,178.13v2.49"/>
      <path class="cls-1" d="m127.15,311.85c2.16,2.99,4.32,5.99,6.48,8.98"/>
      <path class="cls-1" d="m198.96,240c1.83,1,3.66,2,5.49,2.99"/>
      <path class="cls-1" d="m72.3,93.31c4.82,2,9.64,3.99,14.46,5.99"/>
      <path class="cls-1" d="m256.3,291.9h-3.49"/>
      <path class="cls-1" d="m195.97,421.13c2.79,2.59,2,9.78,8.98,6.99"/>
      <path class="cls-1" d="m151.09,338.3c2.99.67,5.98,1.33,8.98,2"/>
      <path class="cls-1" d="m223.89,242.5c-3.49-2.13-6.94-4.75-10.97-1"/>
      <path class="cls-1" d="m176.52,249.98v12.47"/>
      <path class="cls-1" d="m97.24,159.17c3.32,5.32,6.65,10.64,9.97,15.97"/>
      <path class="cls-1" d="m242.84,340.79c-6.23-1.42,3.74-19.05-11.47-11.48"/>
      <path class="cls-1" d="m254.31,279.42h-10.47"/>
      <path class="cls-1" d="m240.84,121.25c-7.68,1.88-2.09,10.87-7.48,13.97"/>
      <path class="cls-1" d="m183.5,58.88c-1.66-3.58-3.32-7.15-4.99-10.73"/>
      <path class="cls-1" d="m24.43,190.61c-4.65.17-9.31.33-13.96.5"/>
      <path class="cls-1" d="m157.07,365.74c-4.02-8-8.22-6.77-13.11-.61-1.01,1.28-3.85,1.11-5.84,1.61"/>
      <path class="cls-1" d="m239.85,126.24c.52,6.75,3.58,5.89,7.48,2.49"/>
      <path class="cls-1" d="m199.46,313.35c1.16,1.66,2.33,3.33,3.49,4.99"/>
      <path class="cls-1" d="m25.43,191.1c6.65.5,13.3,1,19.95,1.5"/>
      <path class="cls-1" d="m264.78,402.67c1.83-.67,3.66-1.33,5.49-2"/>
      <path class="cls-1" d="m282.48,407.16c-2.17,8.09,2.64,11.38,9.22,13.47"/>
      <path class="cls-1" d="m337.08,227.53l2.99,2.99-5.98,3.49"/>
      <path class="cls-1" d="m326.11,236.51c-1.83,1-3.66,2-5.49,2.99l8.98,4.49"/>
      <path class="cls-1" d="m239.35,349.28c-.33,4.03-2.02,6.8-6.48,6.99"/>
      <path class="cls-1" d="m149.59,208.57l10.47,8.98"/>
      <path class="cls-1" d="m346.56,154.68c-7.3-.64-5.8,5.68-7.48,9.48"/>
      <path class="cls-1" d="m343.07,167.4c3.66-2.41,7.31-4.82,10.97-7.24"/>
      <path class="cls-1" d="m150.09,351.77c-3.66.83-7.31,1.66-10.97,2.49"/>
      <path class="cls-1" d="m133.64,417.64c-6.48-1.66-12.96-3.33-19.45-4.99"/>
      <path class="cls-1" d="m225.88,431.61c.66,2,1.33,3.99,1.99,5.99"/>
      <path class="cls-1" d="m237.85,166.16c.5,2.33,1,4.66,1.5,6.99"/>
      <path class="cls-1" d="m106.21,63.87c11.14,6.81,4.19,26.19,20.44,29.44"/>
      <path class="cls-1" d="m283.73,143.2c-1.99-.17-3.99-.33-5.98-.5"/>
      <path class="cls-1" d="m233.86,144.2l2.99,10.48"/>
      <path class="cls-1" d="m182.5,266.95c-6.08-9-11.6,1.5-17.45.5"/>
      <path class="cls-1" d="m108.7,103.29c1.45,4.7,5.3,5.6,9.47,5.99"/>
      <path class="cls-1" d="m159.57,238.01c7.84,4.69,2.35,7.46-1.5,10.48"/>
      <path class="cls-1" d="m59.84,139.21c-4.88,4.46-6.2-2.37-9.47-2.99"/>
      <path class="cls-1" d="m186.99,413.64c-2.8,5.6,2.81,4.72,4.99,6.49"/>
      <path class="cls-1" d="m192.48,420.63c.91-.67,1.83-1.33,2.74-2"/>
      <path class="cls-1" d="m247.82,355.76c1.66,1.16,3.32,2.33,4.99,3.49"/>
      <path class="cls-1" d="m230.87,110.27c-3.32.67-6.65,1.33-9.97,2"/>
      <path class="cls-1" d="m133.14,59.38l-1.5,13.47c-1.5-1.16-2.99-2.33-4.49-3.49"/>
      <path class="cls-1" d="m122.17,200.09c-2.16.67-4.32,1.33-6.48,2"/>
      <path class="cls-1" d="m167.04,197.09c.5,3.33,1,6.65,1.5,9.98"/>
      <path class="cls-1" d="m257.3,362.75c-.83,4.99-1.66,9.98-2.49,14.97"/>
      <path class="cls-1" d="m123.66,221.54c3.04,2.37,5.95,5.68,9.97,1.5"/>
      <path class="cls-1" d="m303.67,139.21c2.41,4.13.29,11.62,8.48,11.48"/>
      <path class="cls-1" d="m166.05,116.26c2.16,3.83,4.32,7.65,6.48,11.48"/>
      <path class="cls-1" d="m202.95,287.4c-4.98.28-4.6,4.14-4.99,7.48"/>
      <path class="cls-1" d="m141.12,311.36c-6.88,2.58.52,7.2-1.5,10.48"/>
      <path class="cls-1" d="m233.86,62.87c-4.32,1.5-8.64,2.99-12.96,4.49"/>
      <path class="cls-1" d="m354.53,263.95c-4.94,4.64-10.19,8.26-17.45,5.49"/>
      <path class="cls-1" d="m339.08,145.2c-1.3,8.59-9.22,9.89-15.14,13.15-.49.27-3.48-4-5.31-6.17"/>
      <path class="cls-1" d="m158.57,241c.86-9.03,3.93-10.26,11.16-4.22,3.3,2.76,7-.34,8.78-4.26"/>
      <path class="cls-1" d="m259.79,346.78c-4.4.06-5.87,2.37-4.99,6.49"/>
      <path class="cls-1" d="m175.02,59.38l5.98,2.99c1.33-2.66,2.66-5.32,3.99-7.98"/>
      <path class="cls-1" d="m206.44,9.48c-1.45,3.66-3.99,7.32,0,10.98"/>
      <path class="cls-1" d="m134.63,141.96c5.32.58,10.64,1.16,15.96,1.75"/>
      <path class="cls-1" d="m208.43,97.8c-5.46,1.4-5.77,6.24-6.98,10.48"/>
      <path class="cls-1" d="m180.01,296.89c2.16,3.99,4.32,7.98,6.48,11.98"/>
      <path class="cls-1" d="m184,316.84c-.83,1.83-1.66,3.66-2.49,5.49"/>
      <path class="cls-1" d="m107.71,86.32c-2.33-3.99-4.65-7.98-6.98-11.98"/>
      <path class="cls-1" d="m164.05,142.21c3.18,6.39,6.4,12.79-2.99,16.96"/>
      <path class="cls-1" d="m219.9,329.32c-2.83.5-5.65,1-8.48,1.5"/>
      <path class="cls-1" d="m213.42,297.38c2.41,1.64,1.97,8.02,7.48,4.49"/>
      <path class="cls-1" d="m245.33,18.46l11.97,1.5"/>
      <path class="cls-1" d="m199.46,57.88c-1.89,2.47-3.12,6.16-7.48,3.99"/>
      <path class="cls-1" d="m299.68,279.92c-1.33-.17-2.66-.33-3.99-.5"/>
      <path class="cls-1" d="m166.55,370.73c-4.49-1.33-8.98-2.66-13.46-3.99"/>
      <path class="cls-1" d="m268.27,380.21l-10.47,5.99"/>
      <path class="cls-1" d="m136.13,330.82c-7.11,3.07-10.48-3.48-15.52-5.86-1.97-.93-4.59-.46-6.92-.62.83,2.16,1.66,4.32,2.49,6.49"/>
      <path class="cls-1" d="m168.04,287.9c2.33,2.33,4.65,4.66,6.98,6.99"/>
      <path class="cls-1" d="m161.56,392.19v9.98"/>
      <path class="cls-1" d="m226.88,392.19l-8.98,4.49"/>
      <path class="cls-1" d="m267.77,51.39l1.5,8.98"/>
      <path class="cls-1" d="m118.18,63.87c-1.5-.33-2.99-.67-4.49-1,.17,2.83.33,5.65.5,8.48"/>
      <path class="cls-1" d="m319.63,156.68l-8.98,1.5"/>
      <path class="cls-1" d="m229.87,442.08c5.33.04,4.46,3.63,3.99,6.99"/>
      <path class="cls-1" d="m233.36,449.57c1.83,1.16,3.66,2.33,5.49,3.49"/>
      <path class="cls-1" d="m243.34,374.23c-3.08-11.31-7.59-5.28-11.97-1"/>
      <path class="cls-1" d="m259.79,439.09c-.23,7.72,2.96,13.78,8.98,18.46"/>
      <path class="cls-1" d="m166.05,118.26c-.83,5.82-1.66,11.64-2.49,17.46"/>
      <path class="cls-1" d="m351.54,274.93c-1.84,3.54,10.84.86,2.99,6.99"/>
      <path class="cls-1" d="m159.07,195.1c-3.94,1.06-5.65-7.24-10.47-2.49"/>
      <path class="cls-1" d="m326.11,210.07c-2.49,5.99-4.99,11.98-7.48,17.96"/>
      <path class="cls-1" d="m334.34,154.68c1.57,3.79-.09,5.71-3.74,6.49"/>
      <path class="cls-1" d="m300.68,257.97c-2.66-2.16-5.32-4.32-7.98-6.49"/>
      <path class="cls-1" d="m243.34,90.31c-5.49.67-10.97,1.33-16.46,2"/>
      <path class="cls-1" d="m167.54,348.28c-2.33,2.33-4.65,4.66-6.98,6.99"/>
      <path class="cls-1" d="m227.38,70.85h-8.48"/>
      <path class="cls-1" d="m190.48,100.29c2.83.5,5.65,1,8.48,1.5"/>
      <path class="cls-1" d="m284.23,84.57c4.82.25,9.64.5,14.46.75"/>
      <path class="cls-1" d="m155.58,302.37c-1.33,2.66-2.66,5.32-3.99,7.98"/>
      <path class="cls-1" d="m149.09,272.93l-5.98,1.5"/>
      <path class="cls-1" d="m144.11,216.05c3.32,2.33,6.65,4.66,9.97,6.99"/>
      <path class="cls-1" d="m147.1,424.62c-6.01-18.19,7.66.8,8.48-4.49"/>
      <path class="cls-1" d="m179.01,115.26c.5,2.66,1,5.32,1.5,7.98"/>
      <path class="cls-1" d="m200.45,275.93c.66,3.16,1.33,6.32,1.99,9.48"/>
      <path class="cls-1" d="m250.82,72.35c-8.48,1.66-16.95,3.33-25.43,4.99"/>
      <path class="cls-1" d="m243.34,406.66c-.33,2.33-.66,4.66-1,6.99"/>
      <path class="cls-1" d="m133.64,225.03c5.71,5.63,25.81-4.94,17.95,15.97"/>
      <path class="cls-1" d="m201.95,323.83c2.23,5-2.48,6.88-4.49,9.98"/>
      <path class="cls-1" d="m181.01,452.56c-5.32,1.5-10.64,2.99-15.96,4.49"/>
      <path class="cls-1" d="m192.97,289.9c2.34-15.22-9.73-6.4-14.96-8.98"/>
      <path class="cls-1" d="m132.64,202.08c1.83,2,3.66,3.99,5.49,5.99"/>
      <path class="cls-1" d="m158.07,380.21c.47,5.13,5.01,2.62,7.48,3.99"/>
      <path class="cls-1" d="m280.24,325.83c-.17,2.33-.33,4.66-.5,6.99"/>
      <path class="cls-1" d="m258.3,398.18c-.66,2.66-1.33,5.32-1.99,7.98"/>
      <path class="cls-1" d="m274.75,71.85v3.49"/>
      <path class="cls-1" d="m160.06,401.17c-5.95-.74-11.76-.98-15.96,4.49"/>
      <path class="cls-1" d="m203.94,278.92c-.17,4.66-.33,9.31-.5,13.97"/>
      <path class="cls-1" d="m319.13,265.45c1.83.17,3.66.33,5.49.5"/>
      <path class="cls-1" d="m235.86,266.45c-.17,2.49-.33,4.99-.5,7.48"/>
      <path class="cls-1" d="m289.71,306.86c4.62,2.16,4.72,4.32,0,6.49"/>
      <path class="cls-1" d="m189.48,108.77h7.48"/>
      <path class="cls-1" d="m171.53,170.15c1,2.33,1.99,4.66,2.99,6.99"/>
      <path class="cls-1" d="m72.8,135.72c-4.3-1.52-7.68,8.53-12.47,1"/>
      <path class="cls-1" d="m257.8,81.33c2.66,2.33,5.32,4.66,7.98,6.99"/>
      <path class="cls-1" d="m230.37,241.5c-1.83,1.16-3.66,2.33-5.49,3.49"/>
      <path class="cls-1" d="m196.96,445.08c7.17,3.15,11.04,10.19,11,16.46-.08,12.53,6.75,4.81,10.94,4.99"/>
      <path class="cls-1" d="m186.49,399.67c1.69-2.61,3.39-5.21-1.99-4.99"/>
      <path class="cls-1" d="m173.03,441.59c-1.11,3.83-2.06,7.8-6.98,8.48"/>
      <path class="cls-1" d="m255.8,144.2c-1.83,4.66-3.66,9.31-5.49,13.97"/>
      <path class="cls-1" d="m135.13,353.77c1.73,7.85-3.82,6-7.98,5.99"/>
      <path class="cls-1" d="m43.38,166.65c-1.96,3.07-7.09-4.02-7.98,2.49"/>
      <path class="cls-1" d="m241.34,428.61l-2.99,7.48"/>
      <path class="cls-1" d="m150.09,283.91c-.17,3.66-.33,7.32-.5,10.98"/>
      <path class="cls-1" d="m206.44,183.62c-2.33,1.16-4.65,2.33-6.98,3.49"/>
      <path class="cls-1" d="m227.88,455.56c1.99,1.66,3.99,3.33,5.98,4.99"/>
      <path class="cls-1" d="m289.21,341.79c-4.32,1.5-8.64,2.99-12.96,4.49"/>
      <path class="cls-1" d="m61.83,131.23c1.16,2.33,2.33,4.66,3.49,6.99"/>
      <path class="cls-1" d="m213.42,223.04c.33,2,.66,3.99,1,5.99"/>
      <path class="cls-1" d="m204.44,416.14c-1.99,1.33-3.99,2.66-5.98,3.99"/>
      <path class="cls-1" d="m174.52,186.11c-5.6,4.03-9.29-.58-13.46-2.99"/>
      <path class="cls-1" d="m262.29,427.61c-.33,2-.66,3.99-1,5.99"/>
      <path class="cls-1" d="m284.72,433.6c-1.33,1.66-2.66,3.33-3.99,4.99"/>
      <path class="cls-1" d="m172.53,434.1c-3.2-3.2-10.67,7.62-11.47-3.49"/>
      <path class="cls-1" d="m143.11,134.22c.17,2.33.33,4.66.5,6.99"/>
      <path class="cls-1" d="m269.27,349.78c.33,2,.66,3.99,1,5.99"/>
      <path class="cls-1" d="m188.49,343.79c-2.16,3.33-4.32,6.65-6.48,9.98"/>
      <path class="cls-1" d="m208.93,436.6c1,2.16,1.99,4.32,2.99,6.49"/>
      <path class="cls-1" d="m154.08,309.36c.66,2.16,1.33,4.32,1.99,6.49"/>
      <path class="cls-1" d="m294.7,317.84c-1.99.17-3.99.33-5.98.5"/>
      <path class="cls-1" d="m227.38,287.4l5.98,4.49"/>
      <path class="cls-1" d="m125.66,84.33c1.5,5.32,2.99,10.64,4.49,15.97"/>
      <path class="cls-1" d="m236.36,281.92c.83,2.33,1.66,4.66,2.49,6.99"/>
      <path class="cls-1" d="m182.5,268.44c-3.82,2.16-7.65,4.32-11.47,6.49"/>
      <path class="cls-1" d="m96.24,69.36c1,2.16,1.99,4.32,2.99,6.49"/>
      <path class="cls-1" d="m177.52,273.93c.83,2.33,1.66,4.66,2.49,6.99"/>
      <path class="cls-1" d="m101.22,191.1c3.26,3.21,3.21,10.97,10.97,7.98"/>
      <path class="cls-1" d="m158.07,312.85c2.16,2,4.32,3.99,6.48,5.99"/>
      <path class="cls-1" d="m172.53,318.59c1.33,2.58,2.66,5.16,3.99,7.73"/>
      <path class="cls-1" d="m249.82,153.68c-8.43,10.63,3.65,9.42,7.48,12.97"/>
      <path class="cls-1" d="m300.68,357.76c-1.99-.33-3.99-.67-5.98-1"/>
      <path class="cls-1" d="m131.64,320.34c-2.16-1.16-4.32-2.33-6.48-3.49"/>
      <path class="cls-1" d="m252.81,73.85c10.97-.17,21.94-.33,32.91-.5"/>
      <path class="cls-1" d="m47.87,158.67c-.15,4.2-4.98,10.4,4.49,10.48"/>
      <path class="cls-1" d="m246.83,9.98c1.99.83,3.99,1.66,5.98,2.49"/>
      <path class="cls-1" d="m213.92,375.22c-1.99.33-3.99.67-5.98,1"/>
      <path class="cls-1" d="m82.77,156.68c.5,2.16,1,4.32,1.5,6.49"/>
      <path class="cls-1" d="m264.28,63.37c-3.82,2.33-7.65,4.66-11.47,6.99"/>
      <path class="cls-1" d="m141.61,395.68h6.48"/>
      <path class="cls-1" d="m192.97,306.86c.92,6.16-3.92,2.45-5.98,3.49"/>
      <path class="cls-1" d="m254.31,354.27c-2.16-.67-4.32-1.33-6.48-2"/>
      <path class="cls-1" d="m212.42,296.39l-7.48-1.5"/>
      <path class="cls-1" d="m264.78,439.59l-7.48-2.99"/>
      <path class="cls-1" d="m159.07,132.23c-.2,8.4-5.02,1.4-7.48,2.25"/>
      <path class="cls-1" d="m201.45,397.18c-2.49,2.66-4.99,5.32-7.48,7.98"/>
      <path class="cls-1" d="m207.93,323.83c-.5,1.66-1,3.33-1.5,4.99"/>
      <path class="cls-1" d="m284.72,382.71c.76,7.4,8.83,15.82-2.99,21.46"/>
      <path class="cls-1" d="m118.18,147.2c1.6,4.23-4.22,9.02,1,12.97"/>
      <path class="cls-1" d="m189.48,77.34l7.48,1.5"/>
      <path class="cls-1" d="m225.88,141.21l-1.5,16.47"/>
      <path class="cls-1" d="m278.74,397.68c2.16.83,4.32,1.66,6.48,2.49"/>
      <path class="cls-1" d="m173.03,130.23c-2.66,2.16-5.32,4.32-7.98,6.49"/>
      <path class="cls-1" d="m149.09,47.4c1.33,3.99,2.66,7.98,3.99,11.98"/>
      <path class="cls-1" d="m248.82,347.78c-2.11-12.5-7.32,6.07-9.97-1"/>
      <path class="cls-1" d="m144.61,325.33v5.99"/>
      <path class="cls-1" d="m258.79,458.05l5.98,4.49"/>
      <path class="cls-1" d="m125.16,104.28c-7.65-1.66-15.29-3.33-22.94-4.99"/>
      <path class="cls-1" d="m96.24,205.08c2.99,1.66,5.98,3.33,8.98,4.99"/>
      <path class="cls-1" d="m277.74,102.29l-5.98-1.5"/>
      <path class="cls-1" d="m192.97,397.68c-3.26,2.74-.08,3.07,1.5,3.99"/>
      <path class="cls-1" d="m171.03,412.65c-1,3.33-1.99,6.65-2.99,9.98"/>
      <path class="cls-1" d="m139.62,368.24c-2.16.5-4.32,1-6.48,1.5"/>
      <path class="cls-1" d="m44.38,133.22c1.66,1.16,3.32,2.33,4.99,3.49"/>
      <path class="cls-1" d="m296.69,138.21c-6.74.74-12.8-7.61-19.95-1.5"/>
      <path class="cls-1" d="m256.3,159.67l2.99,5.99"/>
      <path class="cls-1" d="m130.64,425.62c-.04,2.51.16,4.7,3.49,2.49"/>
      <path class="cls-1" d="m184,464.54c5.37,6.21,4.74-4.57,8.48-2.99"/>
      <path class="cls-1" d="m193.47,70.85c-1,1.83-1.99,3.66-2.99,5.49"/>
      <path class="cls-1" d="m354.53,170.15c-4.62,2.07-9.13,3.26-12.96-1.5"/>
      <path class="cls-1" d="m267.77,446.58c-1.66,1.16-3.32,2.33-4.99,3.49"/>
      <path class="cls-1" d="m141.12,135.22c-.33,2-.66,3.99-1,5.99"/>
      <path class="cls-1" d="m235.36,169.65c-1,1.83-1.99,3.66-2.99,5.49"/>
      <path class="cls-1" d="m73.3,136.22c-.33,2-.66,3.99-1,5.99"/>
      <path class="cls-1" d="m216.41,308.36c2.16,3.49,4.32,6.99,6.48,10.48"/>
      <path class="cls-1" d="m245.83,451.57c-5.16-.94-4.07-3.01-.42-4.28,1.37-.48,3.58,1.45,5.41,2.28"/>
      <path class="cls-1" d="m346.06,270.44c1.99,1.33,3.99,2.66,5.98,3.99"/>
      <path class="cls-1" d="m162.56,136.72l-5.98,2.99"/>
      <path class="cls-1" d="m273.26,429.61c-.17,1.66-.33,3.33-.5,4.99"/>
      <path class="cls-1" d="m338.08,166.65c-1.83.67-3.66,1.33-5.49,2"/>
      <path class="cls-1" d="m165.05,439.59c-3.07,1.11-8.14.53-5.49,6.49"/>
      <path class="cls-1" d="m266.77,397.68c-.37-4.8-3.29-1.1-4.99-1.5"/>
      <path class="cls-1" d="m174.03,406.16c-1.83.33-3.66.67-5.49,1"/>
      <path class="cls-1" d="m271.26,327.32c-1.83.33-3.66.67-5.49,1"/>
      <path class="cls-1" d="m109.2,86.32l-1.99,2c1.99.83,3.99,1.66,5.98,2.49"/>
      <path class="cls-1" d="m201.45,448.57c-3.16.33-6.32.67-9.47,1"/>
      <path class="cls-1" d="m70.81,196.59c-.5,1.83-1,3.66-1.5,5.49"/>
      <path class="cls-1" d="m246.83,162.66c-2.66,1.66-5.32,3.33-7.98,4.99"/>
      <path class="cls-1" d="m208.93,85.32c-.2,3.22,2.1,7.71-3.99,7.98"/>
      <path class="cls-1" d="m120.17,73.35c-2.33.82-4.65-5.12-6.98,0"/>
      <path class="cls-1" d="m224.89,82.33c-2.49-.33-4.99-.67-7.48-1"/>
      <path class="cls-1" d="m153.08,379.71c-1.66-.33-3.32-.67-4.99-1"/>
      <path class="cls-1" d="m158.07,450.57c2.49-.33,4.99-.67,7.48-1-1.16-1-2.33-2-3.49-2.99"/>
      <path class="cls-1" d="m221.4,175.14c.33,1.83.66,3.66,1,5.49"/>
      <path class="cls-1" d="m74.3,233.02c-3.16.83-6.32,1.66-9.47,2.49"/>
      <path class="cls-1" d="m177.02,118.26c.17,1.83.33,3.66.5,5.49"/>
      <path class="cls-1" d="m151.09,423.62c.17,4.82.33,9.65.5,14.47"/>
      <path class="cls-1" d="m322.12,232.52c-1.33-1.33-2.66-2.66-3.99-3.99-2.16,2.33-4.32,4.66-6.48,6.99"/>
      <path class="cls-1" d="m244.33,287.4v5.49"/>
      <path class="cls-1" d="m206.44,400.17c2.66,1.33,5.32,2.66,7.98,3.99"/>
      <path class="cls-1" d="m164.05,233.02c-1.71-6.51-5.72-6.1-10.47-3.49"/>
      <path class="cls-1" d="m287.72,129.23c-.5,1.83-1,3.66-1.5,5.49"/>
      <path class="cls-1" d="m64.82,208.07c-1.07,6.24-6.76,4.39-10.47,5.99"/>
      <path class="cls-1" d="m170.04,226.03c1.99,5.92,7.2,2.98,10.97,3.99"/>
      <path class="cls-1" d="m232.87,343.79c2.44,4.31.47,6.81-3.49,8.48"/>
      <path class="cls-1" d="m131.14,335.8c-2.87,10.69,7.38,5.16,10.47,8.48"/>
      <path class="cls-1" d="m207.93,306.86c-2.99-11.14-5.98.37-8.98,0"/>
      <path class="cls-1" d="m117.68,216.05c1.36,3.46,3.49,5.46,7.48,3.99"/>
      <path class="cls-1" d="m357.53,280.92c2.99,1.33,5.98,2.66,8.98,3.99"/>
      <path class="cls-1" d="m195.47,449.57c1.16,1.66,2.33,3.33,3.49,4.99"/>
      <path class="cls-1" d="m157.57,366.74c.5,1.66,1,3.33,1.5,4.99"/>
      <path class="cls-1" d="m273.75,96.3c-5.84,1.66-.84,5.35-1.5,7.98"/>
      <path class="cls-1" d="m133.14,357.26c-3.99-.5-7.98-1-11.97-1.5"/>
      <path class="cls-1" d="m296.69,216.05c4.65.17,9.31.33,13.96.5"/>
      <path class="cls-1" d="m160.06,354.77c-.16-5.5-4.78-2.08-6.98-3.49"/>
      <path class="cls-1" d="m258.3,74.35c-1.33-1.16-2.66-2.33-3.99-3.49"/>
      <path class="cls-1" d="m82.28,200.09c-2.61,5.56-.07,6.82,4.99,5.99"/>
      <path class="cls-1" d="m158.07,437.59c-2.83,1.33-5.65,2.66-8.48,3.99"/>
      <path class="cls-1" d="m255.8,390.19c3.45.3,6.36,1.25,6.48,5.49"/>
      <path class="cls-1" d="m301.68,275.43c-2.79.23-6.4-1.17-6.98,3.49"/>
      <path class="cls-1" d="m114.19,197.09c.83,2.66,1.66,5.32,2.49,7.98"/>
      <path class="cls-1" d="m175.52,195.1c-.17,1.66-.33,3.33-.5,4.99"/>
      <path class="cls-1" d="m314.64,145.2v7.98"/>
      <path class="cls-1" d="m202.95,79.83c-6.75,1.94-7.16,6.09-3.99,11.48"/>
      <path class="cls-1" d="m122.17,58.38c4.5,5.16-3.15,7-2.99,10.98"/>
      <path class="cls-1" d="m146.6,383.21c-2.62-3.93-5.82-4.13-9.47-1.5"/>
      <path class="cls-1" d="m93.25,191.1c-1.66.17-3.32.33-4.99.5"/>
      <path class="cls-1" d="m235.86,120.75c-2.99-.67-5.98-1.33-8.98-2"/>
      <path class="cls-1" d="m194.47,51.39c-2.16,1.83-4.32,3.66-6.48,5.49"/>
      <path class="cls-1" d="m177.02,399.67c-.17,3.66-.33,7.32-.5,10.98"/>
      <path class="cls-1" d="m121.17,338.8c-.66.33-1.33.67-1.99,1,2.16.67,4.32,1.33,6.48,2"/>
      <path class="cls-1" d="m169.04,241c1.66,1.66,3.32,3.33,4.99,4.99"/>
      <path class="cls-1" d="m328.6,177.13c-1.66-.17-3.32-.33-4.99-.5"/>
      <path class="cls-1" d="m167.04,426.62c3.98,5.39,9.22,1.93,13.96,2"/>
      <path class="cls-1" d="m148.1,316.35c-1.83,2.16-3.66,4.32-5.49,6.49"/>
      <path class="cls-1" d="m150.09,169.15c.83,1.5,1.66,2.99,2.49,4.49"/>
      <path class="cls-1" d="m43.88,243.99c3.16.33,6.32.67,9.47,1"/>
      <path class="cls-1" d="m120.17,335.8c1.66,1.83,3.32,3.66,4.99,5.49"/>
      <path class="cls-1" d="m236.85,37.92c1.33,2,2.66,3.99,3.99,5.99"/>
      <path class="cls-1" d="m187.99,382.71l2.99,11.98"/>
      <path class="cls-1" d="m194.47,441.09c-.83,1.5-1.66,2.99-2.49,4.49"/>
      <path class="cls-1" d="m220.4,381.21c.17,1.5.33,2.99.5,4.49"/>
      <path class="cls-1" d="m71.8,222.54c-2.54,5.64-7.19.21-10.47,2"/>
      <path class="cls-1" d="m356.53,258.96c-.83,1-1.66,2-2.49,2.99"/>
      <path class="cls-1" d="m177.52,46.4c-.83-1-1.66-2-2.49-2.99-1,1-1.99,2-2.99,2.99"/>
      <path class="cls-1" d="m136.63,290.9c.33,1.5.66,2.99,1,4.49"/>
      <path class="cls-1" d="m185.49,403.17l-2.99,7.48"/>
      <path class="cls-1" d="m295.69,96.3c-1.5,0-3-.06-4.48.07-.21.02-.34.93-.5,1.43,1.66.17,3.32.33,4.99.5"/>
      <path class="cls-1" d="m203.45,423.12c1.5,3.49,2.99,6.99,4.49,10.48"/>
      <path class="cls-1" d="m266.27,442.08c-2.96-2.63-1.39-3.67,1.5-3.96,4.68-.47,5.95,2.66,6.48,6.46"/>
      <path class="cls-1" d="m220.9,455.56c-4.65.17-9.31.33-13.96.5"/>
      <path class="cls-1" d="m175.52,391.19c1.66,3.99,3.32,7.98,4.99,11.98"/>
      <path class="cls-1" d="m277.24,412.15c1.33.5,2.66,1,3.99,1.5"/>
      <path class="cls-1" d="m59.34,191.6c-4.31,5.09-9.23,1.69-13.96,1"/>
      <path class="cls-1" d="m199.96,440.09c4.65,1.16,9.31,2.33,13.96,3.49"/>
      <path class="cls-1" d="m156.07,395.68c.33,1.33.66,2.66,1,3.99"/>
      <path class="cls-1" d="m221.4,121.75c1.5.17,2.99.33,4.49.5"/>
      <path class="cls-1" d="m340.57,262.96c-1.16.83-2.33,1.66-3.49,2.49"/>
      <path class="cls-1" d="m188.99,426.62c1.16,1,2.33,2,3.49,2.99"/>
      <path class="cls-1" d="m162.56,271.44c.17,2.49.33,4.99.5,7.48"/>
      <path class="cls-1" d="m100.23,181.62c3.66,2,7.31,3.99,10.97,5.99"/>
      <path class="cls-1" d="m151.09,314.85c3.93,3.38,5.18,7.11,1.5,11.48"/>
      <path class="cls-1" d="m140.62,429.11c2.16.5,4.32,1,6.48,1.5"/>
      <path class="cls-1" d="m139.62,382.71c.83,1.33,1.66,2.66,2.49,3.99"/>
      <path class="cls-1" d="m154.58,332.81c.33,1.83.66,3.66,1,5.49"/>
      <path class="cls-1" d="m328.6,225.03c-.33,1-.66,2-1,2.99"/>
      <path class="cls-1" d="m328.11,272.44c-2.49,1.16-4.99,2.33-7.48,3.49"/>
      <path class="cls-1" d="m123.16,321.83v3.99"/>
      <path class="cls-1" d="m207.43,333.31c-.5,1.16-1,2.33-1.5,3.49"/>
      <path class="cls-1" d="m221.4,446.08c4.51-3.15,4.1,2.14,5.98,3.49"/>
      <path class="cls-1" d="m103.22,219.05c10.71,4.86-3.94,5.5-1.5,8.98"/>
      <path class="cls-1" d="m345.06,283.41c1,1.33,1.99,2.66,2.99,3.99"/>
      <path class="cls-1" d="m154.58,136.72c.17,4.16.33,8.32.5,12.47"/>
      <path class="cls-1" d="m192.97,457.55v6.99"/>
      <path class="cls-1" d="m198.96,10.48c.83,1.16,1.66,2.33,2.49,3.49"/>
      <path class="cls-1" d="m162.06,309.36c-1.33.17-2.66.33-3.99.5"/>
      <path class="cls-1" d="m176.02,177.13c-1.99.17-3.99.33-5.98.5"/>
      <path class="cls-1" d="m190.98,242c-.33,2.33-.66,4.66-1,6.99"/>
      <path class="cls-1" d="m160.56,218.55c.5,1.16,1,2.33,1.5,3.49"/>
      <path class="cls-1" d="m169.54,217.55c-1.33.67-2.66,1.33-3.99,2"/>
      <path class="cls-1" d="m242.84,153.18c-1.99,1.16-3.99,2.33-5.98,3.49,1,1.33,1.99,2.66,2.99,3.99"/>
      <path class="cls-1" d="m52.36,176.14c.83.83,1.66,1.66,2.49,2.49"/>
      <path class="cls-1" d="m154.08,372.73c-4.69,3.29,1.44,3.88,1.5,5.99"/>
      <path class="cls-1" d="m167.04,150.69c-1.33.17-2.66.33-3.99.5"/>
      <path class="cls-1" d="m146.1,73.35c-1.33.33-2.66.67-3.99,1"/>
      <path class="cls-1" d="m110.2,319.84c4.1-1.44,3.16,2.16,3.99,3.99"/>
      <path class="cls-1" d="m335.09,277.92l1.5,2.99"/>
      <path class="cls-1" d="m87.26,159.67c1.33.83,2.66,1.66,3.99,2.49"/>
      <path class="cls-1" d="m230.87,160.17c.17,1.33.33,2.66.5,3.99"/>
      <path class="cls-1" d="m283.23,431.11c2.83,1.5,5.65,2.99,8.48,4.49"/>
      <path class="cls-1" d="m276.75,437.59c-1.33.67-2.66,1.33-3.99,2"/>
      <path class="cls-1" d="m254.31,348.28h-3.99"/>
      <path class="cls-1" d="m123.16,108.28c-1.33.17-2.66.33-3.99.5"/>
      <path class="cls-1" d="m291.71,393.68c-2.66-.33-5.32-.67-7.98-1"/>
      <path class="cls-1" d="m77.79,154.68c-1.16-.08-2.33-.17-3.49-.25"/>
      <path class="cls-1" d="m226.38,431.11c2.16-.17,4.32-.33,6.48-.5"/>
      <path class="cls-1" d="m118.18,331.81c1.33.17,2.66.33,3.99.5"/>
      <path class="cls-1" d="m230.37,141.71c.17,1.16.33,2.33.5,3.49"/>
      <path class="cls-1" d="m82.77,202.58c1.16.5,2.33,1,3.49,1.5"/>
      <path class="cls-1" d="m255.8,454.56c1.33,1.66,2.66,3.33,3.99,4.99"/>
      <path class="cls-1" d="m120.17,62.37c.66,2,1.33,3.99,1.99,5.99"/>
      <path class="cls-1" d="m198.96,393.19c-2.16-.33-4.32-.67-6.48-1"/>
      <path class="cls-1" d="m172.53,390.69h-3.49"/>
      <path class="cls-1" d="m305.67,346.78c-1.78-7.9-6.9-3.5-10.97-2.99"/>
      <path class="cls-1" d="m141.12,389.69q2.03,2.74-2.49,9.48"/>
      <path class="cls-1" d="m230.87,305.87c-.47,2.06,5.66,6.32-1.99,5.99"/>
      <path class="cls-1" d="m249.32,325.33c-1.83,1.16-3.66,2.33-5.49,3.49"/>
      <path class="cls-1" d="m203.94,462.54c1,.67,1.99,1.33,2.99,2"/>
      <path class="cls-1" d="m233.86,438.59c4.14-4.97,6.67.88,9.97,1.5"/>
      <path class="cls-1" d="m222.89,437.1c.5,2.66,1,5.32,1.5,7.98"/>
      <path class="cls-1" d="m298.19,209.07h3.49"/>
      <path class="cls-1" d="m158.07,295.89c-.48-3.73-2.11-2.86-3.99-1"/>
      <path class="cls-1" d="m173.53,230.02l1.5,2.99"/>
      <path class="cls-1" d="m84.27,210.07c1.16,1,2.33,2,3.49,2.99"/>
      <path class="cls-1" d="m348.05,173.14c-.83.67-1.66,1.33-2.49,2"/>
      <path class="cls-1" d="m254.81,394.18c2.16.83,4.32,1.66,6.48,2.49"/>
      <path class="cls-1" d="m291.21,95.8c-2.16-.67-4.32-1.33-6.48-2"/>
      <path class="cls-1" d="m93.25,185.62c.66,1.16,1.33,2.33,1.99,3.49"/>
      <path class="cls-1" d="m74.3,185.12c.5,1.16,1,2.33,1.5,3.49"/>
      <path class="cls-1" d="m6.48,182.12c1.16,2,2.33,3.99,3.49,5.99"/>
      <path class="cls-1" d="m119.18,328.32c-.83.83-1.66,1.66-2.49,2.49"/>
      <path class="cls-1" d="m186.49,407.16l5.98,2.99"/>
      <path class="cls-1" d="m161.56,435.6c-.66,1.33-1.33,2.66-1.99,3.99"/>
      <path class="cls-1" d="m136.63,252.48c-1.16-.17-2.33-.33-3.49-.5"/>
      <path class="cls-1" d="m237.85,312.35c-1.5-.17-2.99-.33-4.49-.5.17.33.33.67.5,1"/>
      <path class="cls-1" d="m219.4,81.08c-.11-4.09,2.7-3.91,5.48-3.7.02,0,0,.62,0,.96"/>
      <path class="cls-1" d="m108.7,78.84c2.16.83,4.32,1.66,6.48,2.49"/>
      <path class="cls-1" d="m159.57,443.08c1,.67,1.99,1.33,2.99,2"/>
      <path class="cls-1" d="m143.61,331.81c.83,2,1.66,3.99,2.49,5.99"/>
      <path class="cls-1" d="m158.07,413.14c-1.83-.5-3.66-1-5.49-1.5.17,1,.33,2,.5,2.99"/>
      <path class="cls-1" d="m334.09,280.92c-.83,1.66-1.66,3.33-2.49,4.99"/>
      <path class="cls-1" d="m56.35,224.04c.33,2.99.66,5.99,1,8.98"/>
      <path class="cls-1" d="m325.11,226.03c.5,1.66,1,3.33,1.5,4.99"/>
      <path class="cls-1" d="m55.35,229.52c-1.66.5-3.32,1-4.99,1.5"/>
      <path class="cls-1" d="m260.29,447.57l-4.49,2.99"/>
      <path class="cls-1" d="m265.28,61.87l-4.49,1.5"/>
      <path class="cls-1" d="m134.13,233.02l5.98,1.5"/>
      <path class="cls-1" d="m310.65,189.11l-5.98,1.5"/>
      <path class="cls-1" d="m187.99,456.55c.33,1.83.66,3.66,1,5.49"/>
      <path class="cls-1" d="m47.87,177.13c.83,2.66,1.66,5.32,2.49,7.98"/>
      <path class="cls-1" d="m158.57,174.14c1.62,2.66,4.21,5.68-1.99,5.49"/>
      <path class="cls-1" d="m227.88,317.84c1.88-2.03,2.58,7.78,4.99.5"/>
      <path class="cls-1" d="m115.19,135.22c.66,2.66,1.33,5.32,1.99,7.98"/>
      <path class="cls-1" d="m169.04,44.41c-.71,2.33,7.85,1.29,1.99,5.49"/>
      <path class="cls-1" d="m231.37,334.81c2.56,3.41,3.1,5.98-2.49,5.99"/>
      <path class="cls-1" d="m307.66,161.17c1.16.83,2.33,1.66,3.49,2.49"/>
      <path class="cls-1" d="m301.18,155.18c.66,1.83,1.33,3.66,1.99,5.49"/>
      <path class="cls-1" d="m137.13,187.61c-1.66.83-3.32,1.66-4.99,2.49"/>
      <path class="cls-1" d="m176.02,418.88c-1.33-.08-2.66-.17-3.99-.25"/>
      <path class="cls-1" d="m299.68,151.19c-.27,7.09,6.94-1.86,7.48,3.49"/>
      <path class="cls-1" d="m172.53,266.45c.83.83,1.66,1.66,2.49,2.49"/>
      <path class="cls-1" d="m72.3,144.2c1,2.16,1.99,4.32,2.99,6.49"/>
      <path class="cls-1" d="m245.83,333.81c-1.5-.17-2.99-.33-4.49-.5"/>
      <path class="cls-1" d="m186.49,276.93c.17.83.33,1.66.5,2.49"/>
      <path class="cls-1" d="m184,61.37c2.53,6.19-1.49,5.82-5.49,5.49"/>
      <path class="cls-1" d="m166.05,296.89c-.33,1.16-.66,2.33-1,3.49-.33-.5-.66-1-1-1.5"/>
      <path class="cls-1" d="m222.39,60.87c1.16.5,2.33,1,3.49,1.5"/>
      <path class="cls-1" d="m96.74,99.29c1.66.33,3.32.67,4.99,1"/>
      <path class="cls-1" d="m132.14,290.9h2.49"/>
      <path class="cls-1" d="m211.42,398.18c1.99-.17,3.99-.33,5.98-.5"/>
      <path class="cls-1" d="m125.16,312.85c-.17,1-.33,2-.5,2.99"/>
      <path class="cls-1" d="m289.71,339.8c.33,1.33.66,2.66,1,3.99"/>
      <path class="cls-1" d="m176.52,408.15c-.66-.33-1.33-.67-1.99-1"/>
      <path class="cls-1" d="m222.39,467.53c1.16-.17,2.33-.33,3.49-.5"/>
      <path class="cls-1" d="m237.35,363.75c.33.5.66,1,1,1.5"/>
      <path class="cls-1" d="m200.2,250.98c.08.5.17,1,.25,1.5"/>
      <path class="cls-1" d="m300.18,212.56c-.5-.33-1-.67-1.5-1"/>
    </g>
  </g>
</svg>