<?xml version="1.0" encoding="UTF-8"?>
<svg id="Layer_1" data-name="Layer 1" xmlns="http://www.w3.org/2000/svg" viewBox="0 0 367.5 483">
  <defs>
    <style>
      .cls-1 {
        fill: none;
        stroke: #000;
        stroke-linecap: round;
        stroke-linejoin: round;
        stroke-width: 2px;
      }

      .cls-2 {
        stroke-width: 0px;
      }
    </style>
  </defs>
  <g id="qDuZX0.tif">
    <g>
      <path class="cls-2" d="m193.73,172.54c-3.84,5.78-7.69,11.57-11.57,17.32-.04.06-.8-.17-.98-.43-.37-.55-.91-1.27-.81-1.81.6-3.09,6.18-4.49,2.99-8.89-3.78,6.57-16.62-3.68-17.05,9.18,0,.27-.39.53-.59.8-1.61-1.65-4.1-3.06-4.62-5.01-.72-2.69-.26-5.84.29-8.68.28-1.48,1.81-2.73,2.78-4.09-.99.68-1.95,1.83-2.97,1.89-.94.05-1.94-1.08-2.91-1.68,1.19-1.63,2.81-3.1,3.5-4.92,1.6-4.26,15.74-.92,6.89-11.37,3.38,2.2,9.07-9.46,11.08,1.87.2,1.15,2.14,2,3.28,2.99.02-1.37.36-2.84,0-4.11-1.13-3.95-2.52-7.83-3.82-11.74,4.17,1.12,8.32,2.3,12.5,3.33,1.31.32,2.72.27,4.08.39-.16-.74-.26-2.12-.48-2.14-6.43-.57-.17-5.88-2.93-7.75,2.13-.34,4.3-.54,6.38-1.07,2.21-.56,4.35-1.45,6.52-2.19-.18-.17-.41-.52-.54-.49-6.34,1.57-12.65,2.77-18.78-.77,1.26,2.25,2.61,4.45,3.72,6.77.28.6-.2,1.56-.32,2.35-.89-.16-2.05-.01-2.64-.52-3.43-2.97-6.72-6.1-10.07-9.17-3.42-3.35,6.31-7.51-.66-10.65-.33-6.18.74-11.09,8.73-10.41.55.05,1.39-1.89,1.86-3.01.14-.34-.54-1.02-.84-1.54-3.47,3.89-7.68,5.12-12.67,3.55,1.02,3.8,2.03,7.61,3.05,11.41-2.91,3.91-4.22,10.31-11.51,7.4,2.66,6.45,7.75,3.49,12.16,3.14,1.34,8.92-.06,16.86-7.98,22.48l-7.83,3.97c1.64-2.64-.07-8.42,6.29-6.75.14.04.65-1.36.99-2.09-2.86-.5-5.72-1.12-8.6-1.38-.5-.05-1.48,1.35-1.64,2.2-1.23,6.23-2.31,12.48-3.44,18.73,0,0,.1-.09.1-.09-1.18.45-2.37.9-3.55,1.36.5-.9,1.41-1.8,1.41-2.7,0-1.4-.5-2.85-1.07-4.15-.09-.21-1.7.26-2.6.41,2.87,7.54-9.5,3.98-7.88,10.73.06.24-1.29,1.1-2.01,1.15-.52.03-1.4-.72-1.58-1.29-.77-2.4-1.34-4.87-1.99-7.32-1.79,1.84-3.52,3.76-5.43,5.47-.5.45-1.57.26-2.38.36.19-.84.24-1.74.6-2.5.57-1.22,2.04-3.28,1.91-3.39-3.28-2.51.93-6.23,14.18-12.62l-.06.08c4.56-.99,6.88-2.94,8.33-8.28,1.28-4.7,6.95-8.2,10.69-12.22-1.61.3-4.2,1.36-4.66.77-2.22-2.88-3.88-6.2-5.73-9.37-.04-.42-.07-.84-.11-1.25,6.19-8.56,12.53-17.02,18.4-25.79.88-1.32.26-4.91-.97-6.11-2.02-1.97-5.12-2.85-7.76-4.19-.23,1.44-.04,3.85-.77,4.17-5.8,2.58-.08-5.04-3.81-4.46-.51.08-1.13,1.26-1.33,1.16-1.82-.86-3.65-1.76-5.3-2.91-3.31-2.3-6.51-4.77-9.75-7.17,2.36,1.24,4.61,2.87,7.11,3.64,6.58,2-1.92-8.34,5.03-6.34.96-6.41,3.65-2.55,6.94-1.8,11.11,2.56,5.16-7.32,7.83-10.78,1.6-2.08,9.49-4.02,9.99,3.69.16,2.52-2.75,5.19-4,7.9-.33.71.25,1.85.41,2.8-1.74,1.23-4.1,2.09-5.11,3.75-3.28,5.38,10.64,3.96,4.52,10.85,8.48-4.56,3.44-9.56.47-14.5,3.38-1.64,6.77-3.29,10.15-4.93,13.1,3.71,1.86,11.31,2.71,16.98l.1.11c-1.93-2.22-3.86-4.45-5.79-6.67-.58,1.96-.54,4.86-1.85,5.73-8.47,5.64,8.12,5.76,2.16,10.47-.96.76-2.33.99-3.51,1.47,1.2.2,2.63.9,3.53.47,1.14-.54,1.8-2.04,2.76-3.03,2.43-2.53,4.84-5.08,7.4-7.47,1.03-.96,2.42-1.52,3.65-2.27-.57-.5-1.06-1.14-1.72-1.49-1.11-.59-3.37-1.32-3.33-1.45.66-2.19,2.31-6.17,2.38-6.15,12,4.56-3.33-4.32,2.58-5.53,4.67-.96,5.03-7.26-2.86-5.77-2.95.55-5.53,3.11-8.28,4.76.87-17.32,15.03-17.01,26.62-20.1-2.98,3.33-5.96,6.65-8.93,9.98-.42-1.16-.83-2.33-1.25-3.49-.19,1.26-.95,3.27-.45,3.66,1.65,1.29,5.21,3.11,5.47,2.77,4.09-5.36,7.77-11.02,11.55-16.61,3.78.4,9.3-.62,11.02,1.47,5.63,6.87-4.74,7.49-5.9,12.06-.75,2.94-6.67,3.73-3.46,8.32-2.54,5.61,8.14-.84,4.91,5.39,2.13-.51,4.25-1.02,6.38-1.53-3.8-1.25-7.61-2.5-11.41-3.75,5.68-5.09,7.76-13.48,16.2-16.53,1.57-.57-1.27-9.85,6.31-10.51-.27-1.27-.53-2.55-.8-3.82,3.3.77,6.6,1.56,9.9,2.29,2.13.47,4.29.84,6.44,1.26-1.85-1.59,5.93-5.16-1.15-5.81-.04,0-.3-2.64.22-2.96,3.85-2.38,7.87-4.49,11.83-6.69-.09.5-.11,1.4-.27,1.43-5.53.83,3,8.48-4.12,8.48-.48,0-1.36.11-1.39.29-.27,1.45-.65,4.17-.5,4.2,2.86.63,5.79,1.23,8.7,1.17,1.32-.02,2.62-1.48,3.93-2.29.46,1.9,1.6,3.99,1.15,5.64-.28,1-2.95,1.6-4.64,1.91-3.98.73-8.01,1.17-12.03,1.73.15.31.31.89.44.88,5.97-.36,11.94-.66,17.89-1.22,2.76-.26,5.45-1.24,8.21-1.5,1.81-.17,3.69.35,5.54.57-4.57,5.05-.92,16.94-12.98,15.71-2.7-.28-4.82-6.32-8.09-.77,4.37,1,7.27,3.32,7.29,8.2-5.59,5.79-17.22,1.59-19.94,12.11-3.2,2.76-6.55,5.37-9.44,8.42-.51.54.93,2.93,1.48,4.46.03,3.94.05,7.87.08,11.81-.58,6.69-6.78,7.16-10.93,9.91-7.27-6.21-7.34-6.25-8.98-3.63-3.88,6.16,8.08,3.78,5.15,9.47,1.3-1.98,2.61-3.96,3.91-5.94.48,1.35.9,3.84,1.44,3.87,3.68.17,9.36,1.21,10.67-.66,2.55-3.63,2.47-8.95-1.34-12.93.36-2.96.93-5.1,4.47-2.28,1.71,1.37,5.08,3.42,5.82,2.83,9.01-7.26,2.53-6.87-3.45-6.58.11-1.15-.05-3.2.36-3.33,5.83-1.72,11.38,4.13,18.55-1.65,3.76-3.04,9.95-2.98,11.59-9.81,1.15-4.79-8.34,1.22-4.53-5.06-6.64,8.03-13.33,2.31-20,.07,1.31-2.62,2.02-4.52,6.38-3.58,3.4.73,7.63-2.42,11.5-3.85-.96-1.19-1.91-2.37-2.87-3.56,2.34-5.77,8.33-11.23,12.43-9.04,5.37,2.86-8.47,5.24-3.28,11.97,2.94,3.81,3.62,9.38,5.2,14.2.36,1.11.71,2.68.21,3.52-1.18,1.98-2.88,3.64-4.38,5.44,1.86-1.37,3.7-2.76,5.6-4.08.56-.39,1.78-.89,1.85-.79,1.38,2.17,3.02,4.3,3.73,6.7.24.82-1.67,2.81-2.99,3.44-3.22,1.53-6.67,2.58-10.03,3.83,3.18,1.01,6.39,1.91,9.51,3.08.85.32,1.72,1.31,2,2.18.26.81-.22,2.71-.41,2.71-17.84.38,8.12,5.52-.74,6.77-.39.3-.78.6-1.17.9l-11.07,5.02c-1.5,1.02-3,2.05-4.51,3.07.35,6.29,3.38,9.91,9.92,10.27.51.03.96,1.16,1.43,1.78-23.34,4.98,3.91,7.4.58,11.37,11.26,7.6.25,16.34,1.24,24.46-1.26-6.28-5.48-.79-8.02-2.02-4.76-1.15-9.47-2.58-14.29-3.3-1.5-.22-3.29,1.47-4.94,2.29.53.23,1.06.66,1.6.67,5.92.11,11.84.15,17.76.21,3.44,3.42,6.88,6.83,10.32,10.25-2.91-.71-5.64-4.83-8.79.12-2.04,3.2-5.01,5.82-7.56,8.7,2.08-.73,4.17-1.47,6.25-2.2-.34,11.67,15.87,5.02,16.85,15.24-5.9-.18-12.2-1.73-17.62-.19-7.41,2.11-15.08,5.46-20.87,10.37-4.52,3.83-1.64,12.37,1.86,14.65,9.23,6,18.68.17,27.69-3.2,2.81-1.05,5.33-2.88,7.98-4.36-2.33,3.22-4.57,6.5-7.03,9.62-1.09,1.38-2.64,2.41-3.98,3.6,2.14-1.14,4.34-2.18,6.4-3.44,8.15-4.99,9.81-20.61,24.47-14.94-.47-.99-1.62-2.38-1.3-2.91,1.69-2.85,12.47-2.34,3.16-9.12.43-.51.89-1.48,1.28-1.45,2.53.17,5.05.56,7.58.89.67.09,1.33.22,2,.34-2.53-12.38,11.92-4.28,13.74-11.41,3.62.99,7.2,2.29,10.89,2.85,2.66.4,5.47-.19,8.22-.33-2.3,1.99-5.6,3.54-6.7,6.06-2.71,6.21-8.83,5.62-13.43,8.01,0,0,.22-.19.22-.19-1.91,2.61-9.4,2.08-4.73,8.41-13.28-4.17-23.95,4.07-33.62,9.85-6.9,4.12-1.61,11.5,5.94,14.12-3.14,6.23,14.07,4.43,5.1,12.95l.11-.09c-12.47-16.77-26.11-24.75-45.07-8.15-4.87,4.26-5.62,8.24-5.1,13.6,0,0,.04.04.04.04,8.85,9.94,21.59,3.3,31.79,7.47l-.13-.11c1.66,8.09-3.16,19.02,9.69,22.22-.14.53-.36,1.52-.4,1.51-4.63-.9-9.22-2.23-13.89-2.68-2.37-.23-6.12-6.92-7.47.98-2.63-.93-5.22-2.17-7.93-2.62-.89-.15-2.12,1.77-3.2,2.75,4.35,1.54,8.7,3.08,13.06,4.62,12.7,3.18,24.71,7.79,34.58-7.62,3.94-6.16,7.84,7.75,14.89,6.21,1.65-.36,6.05,3.2,5.84,4.31-2.05,10.72-6.44,1.55-10.11,1.16-2.64-.28-5.48,1.2-8.23,1.89.8,2.18.95,5.31,2.51,6.38,5.08,3.48,10.41,1.57,15.81-.18,1.82-.59,4.43.99,6.58,1.81.72.28,4.39,1.33.05,1.93-1.01.14-2.71-1.17-3.09-.79-1.02,1-2.24,3.61-2.06,3.73,1.85,1.33,4.04,2.17,5.96,3.42.82.54,1.23,1.71,1.82,2.59-1.14-.23-2.28-.46-3.42-.69,0,0-.17.13-.17.13-9.71-2.6-10.43.35-4.56,7.38-1.25.7-2.51,1.4-3.76,2.1-2.44-11.77-14.25-11.1-21.8-15.86-3.78-2.38-2.88,9.4-9.6,5.54-2.92,5.28-2.64-.92-3.94-1.31-9.9-2.98-19.6-6.65-29.49-9.65-2.73-.83-7.93-1.16-8.57.07-3.63,6.97,2.4,12.38,3.83,18.6,1.23,5.32,13.97,7.41,4.64,15.52-.21.18,0,.84,0,1.27,4.87-1.01,10.07-1.25,14.53-3.2,7.27-3.18,14.06-7.48,21.08-11.26.34-.18,1.39.21,1.39.27-.19,2.08-.46,4.16-.72,6.23-.42-.22-.93-.35-1.23-.68-1.12-1.23-2.17-2.53-3.25-3.81-.63,2.39-1.4,4.76-1.85,7.18-.72,3.95,7.75,13.21-2.53,10.86-10.13-2.32-21.18,5.8-30.28-3.48-1.09-1.12-1.29-10.27-6.72-2.69-.61.86-3.24,1.45-3.88.91-5.64-4.71-6.25-11.05-5.2-17.82.42-2.69.71-5.41,1.07-8.11-1.38,1.26-2.76,2.52-4.13,3.78-.43-1.96-.87-3.91-1.3-5.87-.72-3.33-.69-7.2-2.5-9.77-.89-1.26-5.85-1.09-7.78.21-2.14,1.44-2.91,4.9-4.28,7.48,4.89.66,9.79,1.32,14.69,1.98,5.97.74-19.07,8.23,1.28,5.85-8.05,2.62,6.53,16.18-4.9,13.49-6-1.41-9.21-14.27-14-21.77-.83-1.3-3.22-1.57-4.87-2.38-5.16-2.51-10.8-4.4-15.32-7.78-3.65-2.73-3.05-3.53-9.78,2.54-1.66-13.6-13.47-7.28-20.52-9.95-2.29-.87-8.05,1.77-9.04,4.14-3.16,7.55.6,14.37,5.65,19.87,10.45,11.39,20.63.53,30.85-1.33.24-.04-.56-5.74-.87-8.79q2.45-2.2,10.85,13.78c-1.44,2.57-2.88,5.14-4.33,7.71-2.59-5.86-7.1-4.89-11.63-3.08-.97.39-1.49,1.89-2.22,2.88,4.26,1.57,8.52,3.14,12.77,4.7.34-1.53.68-3.06,1.02-4.58.91,2.28,1.81,4.56,2.71,6.83.52-4.86,1.04-9.73,1.56-14.59,2.36,13.74,11.39,24.16,17.83,35.87-4.89,2.21-9.77,4.45-14.68,6.62-3.81,1.69-2.97,2.15.48,2.86,1.55.32,2.81,2.09,4.2,3.2-1.42-.41-2.83-.85-4.26-1.21-5.12-1.31-2.5,1.1-2.08,3.44.23,1.29-6.14-4.38-4.55,2.49.24,1.05.69,2.05,1.04,3.08-1.21-.13-2.41-.26-3.63-.38-.75-1.59-2.16-3.21-2.09-4.77.15-3.82,2.29-8.19-3.42-9.62-.89-.22-2.31,1.72-3.49,2.66,5.27,2.12.84,11.87,9.12,11.62,1.77,2.93,3.54,5.87,5.31,8.8-8.74.21-14.16-5.04-18.85-11.48-3.22-9.46-6.42-18.93-9.8-28.33-.05-.15-3.3.3-3.41.8-1.24,6.16.44,11.65,4.43,16.47.13,4.31.21,8.63.43,12.94.07,1.37.99,2.86.65,4.05-.69,2.46-1.96,4.77-3,7.14,4.2.6,8.39,1.2,12.59,1.8-1.02-1.01-2.07-1.99-3.02-3.06-.12-.14.41-1.12.48-1.1,1.55.42,3.57.46,4.54,1.48,10.67,11.31,23.7,17.56,39.12,19.02.71.07,1.36.82,2.04,1.25-.75-.17-1.49-.47-2.24-.5-2.66-.1-5.33-.12-8-.16,1.13,3.22,1.73,6.76,3.49,9.58,3.72,5.98,4.95,11.38-1.17,16.46-1.33,1.02-2.68,2.06-4.02,3.1-1.7.79-3.57,2.48-5.07,2.2-3.35-.64.21-8.45-6.23-6.58-.66.19-.99,1.55-1.48,2.36,6.37,1.43,2.91,14.97,13.68,11.15.54-.19,2.39,1.48,2.32,1.63-7.25,14.54,4.69,10.31,11.11,11.4,2.13.36,4.27.58,6.41.87-.09.64-.14,1.84-.27,1.85-2.31.16-4.66,0-6.95.29-1.26.16-2.42,1.01-3.63,1.56-3.94,4.81-7.03-8.08-8.84-1.18-.86,3.29,6.9,4.32,11.63,3.01,9.33,1.51.35,5.09.89,6.48,1.85,4.73-2.83,3.13-3.67,4.88-1.36-.87-2.9-1.54-4.04-2.64-9.06-8.73-18-17.58-27.13-26.24-.62-.59-2.45.09-3.71.18.88,2.58,1.72,5.17,2.64,7.74,1.05,2.93,2.36,5.8,3.03,8.81.1.44-2.73,1.53-4.2,2.32.11-1.61.22-3.23.33-4.84-2.15.15-4.65-.3-6.31.68-1.08.64-1.18,3.35-1.26,5.16-.1,2.04.3,4.11.48,6.17-1.4-1.28-3.22-2.31-4.13-3.87-6.67-11.36,7.4-22.4.63-33.87-1.24-2.11-2.14-4.42-3.2-6.64-1,1.49-2.41,2.84-2.91,4.48-1.65,5.37-3.64-.67-5.35.28-7.03-14.4-10.45-6.43-14.31,2.07-.45.99-4.01.57-6.13.8.24-.43.47-.86.71-1.29,2.23-4.9,4.45-9.79,6.68-14.69-1.28.06-3.56.5-3.7.12-1.95-5.1,3.8-3.53,5.07-5.84.22-.4-1.46-1.84-2.27-2.8,2.14.05,5.44-.73,6.19.31,1.96,2.75,2.56,6.42,4.2,9.45.71,1.31,2.68,1.95,4.07,2.89,10.03-18.01,23.05-9.93,35.85-4.18.35.16,1.71-.89,1.66-1.04-.41-1.16-.78-2.64-1.68-3.25-2.21-1.48-4.69-2.55-7.07-3.79,3.65.23,7.31.72,10.93.48.88-.06,1.61-2.53,2.4-3.89-1.52-.27-3.04-.74-4.57-.77-1.23-.02-2.47.47-3.71.74-.95-1.27-1.96-3.63-2.84-3.59-2.36.12-6.7-5.98-6.7.48,0,4.81,5.91,3.24,9.64,3-6.6.88-13.35,3.07-19.75,2.31-8.35-.99,7.62-6.8-1.01-9.09-1.79-.48-1.86-6.51-5.58-1.33-1.8,2.5-5.48,3.62-8.19,5.53-.47.33-.35,1.49-.51,2.26-1.82-2.06-3.63-4.11-5.45-6.17.96-.72,2.22-2.26,2.84-2.04,8.4,3.04,5.99-5.01,4.72-6.05-10.17-8.36-14.25-18.51-12.86-31.64.14-1.36-7.16-3.5-11-5.28-.44,1.41-.93,2.81-1.32,4.23-.74,2.68-1.75,4.21-4.06,1.12,5.03-4.29,5.08-9.96,4.1-15.76-.17-.99-1.82-1.72-2.79-2.58-.03,1.75.03,3.5-.1,5.24-.35,4.41-.78,8.81-1.18,13.21-1.4-6.39-2.78-12.79-4.24-19.16-.13-.56-.69-1.08-1.17-1.48-.12-.1-.89.22-.99.49-5.18,13.62-22.49,22.71-15.39,40.99.1.26-1.07,1.47-1.47,1.38-.63-.13-1.43-.9-1.6-1.55-3.31-12.47-1.88-23.72,6.94-34.01,3.49-4.07,4.91-9.94,7.19-15.02.28-.63,0-1.51,0-2.28,1.03.4,2.91.69,2.98,1.22,1.8,13.23,17.01,9.04,22.57,17.38.27.41,2.14-.24,3.26-.4-.43-.91-.68-1.97-1.31-2.71-6.57-7.75-18.78-10.9-19.14-23.72-.03-1.09-.77-2.15-1.18-3.23,1.22.37,2.55.54,3.63,1.15,7.19,4.1,14.11,9.52,22.97,4.02-6.09-1.54-12.11-3.41-18.27-4.56-9.6-1.8-17.63-5.2-19.93-15.96-.57.14-1.63.26-1.64.42-.13,3.2-.15,6.4-.15,9.61,0,1.22.2,2.45.1,3.66-.03.39-.7.74-1.08,1.11-.46-.85-1.37-1.74-1.31-2.56.77-10.83-11.28-11.21-14.76-18.36-1.21-2.48-1.28-5.92-.82-8.74,1.93-11.75-11.09-4.31-13.41-10.57-.12-.31-2.24.13-3.43.22,1.05-2.63,2.1-5.26,3.15-7.89,4.93,10.11,12.18-1.05,18.73,2.08,7.38,3.53,16.73,5.72,21.84-5.09,4.06-2.33,8.12-4.65,12.18-6.98l-.11.1c-9.6-4.01,22.51-6.04.51-10.64,2.68-3.39,11.19-7.63-1.28-8.83,0,0-.12-.19-.12-.19,6.71-5.57,13.98,9.13,20.58-.56-1.1,2.42-2.23,4.83-3.28,7.28-.2.46-.06,1.06-.08,1.6.5-.38,1.06-.7,1.49-1.14,4.83-4.91,14.05-5.48,14.56-14.73.04-.68.86-1.36,1.39-1.97.57-.64,1.23-1.21,1.84-1.8-3.36.1-9.59-.11-9.64.33-.89,8.49-9.82,4.12-12.97,8.47-3.97-3.94,1.74-8.41.67-10.26-3.97-6.88,5.2-2.79,3.77-4.74-1.97-2.68-5.74-4.09-4.13-8.46-6.72,1.36-.11,12.76-9.25,12.29.13.94-.04,2.1.45,2.79,3.45,4.89-3.41,4.1-3.7,6.87-.41-1.39-1.01-2.75-1.18-4.17-1.07-8.66-3.33-16.11-14.45-15.15,2.86-5.59,5.26-11.38,7.74-17.14,2.21,2.34,3.99,5.25,6.8,6.94,3.05,1.84,6.7,2.3,10.05,3.35-.86-1.53-1.42-3.32-2.7-4.56-1.3-1.26-3.11-1.78-4.67-2.61.49-.77.95-2.56,1.99-2.41,1.69.24,3.41,1.29,4.98,1.93l-.08-.1c.72,6.36,7.63,5.22,8.8,3.99,4.51-4.78,7.95-10.64,11.29-16.39.74-1.28-1.62-2.49,2.21-4.13,7.12-3.04,13.02-9.26,18.77-14.85.76-.74-2.39-5.5-3.73-8.4-5.28,5.45-5.28-1.54-7.54-3.2-1.02-1.69-2.04-3.37-3.05-5.06-2.7-.66-5.41-1.31-8.11-1.97-2.03-8.75-2.54-8.67-15.91,2.67-5.9-2.2-2.82,5.45-6.37,5.89-.03,0,.07,1.08.11,1.66,1.82-.89,4.06-1.4,5.32-2.79.94-1.03.6-3.22.83-4.89,5.67.93,4.94,10.54,12.35,9.12Zm33.81,12.26c-4.88-.97-2.63,10.16-9.44,5.58-.83-.56-.77-2.43-1.12-3.69-.1,1.68-.75,3.57-.18,4.97.71,1.75,2.2,4.12,3.74,4.46,13.2,2.93,4.53-7.61,6.87-11.46,4.88-2.79,9.76-5.58,14.65-8.37-1.31-.44-2.59-1.06-3.94-1.28-3.16-.51-6.95,7.98-9.56-.69,14.92.38,11.81-18.67,21.95-21.27,9.17-2.36,6.38-13.56,14.59-14.87,1.22-.19,2.61.75,3.84.6.97-.12,1.83-1.13,2.74-1.75-4.74-.55-9.48-1.1-14.23-1.66,2.67,3.54,2.17,5.45-2.36,7.16-6.05,2.28-1.33-5.28-4.9-4.78,6.56-2.07-5.63-3.77-.12-5.82-2.14-1.11-.59-6.22-7.09-3.23-5.97,2.74.58,7.19-3.57,8.08-1.1-1.32-2.19-2.63-3.29-3.95-.73,3.48-1.46,6.96-2.19,10.44-.91-1.54-1.81-3.07-2.72-4.61-2.33,2.66-4.65,5.31-6.98,7.97,1.63.65,3.75,2.26,4.79,1.74,2.03-1.02,3.46-3.25,5.14-4.97.53,4.31,1.05,8.61,1.58,12.92,1.59-3.37,3.08-6.8,4.89-10.04.28-.49,2.07-.23,3.15-.15.55.04,1.48.36,1.54.68,1.88,10.68-14.15,11.48-12.27,22.21-1.66-.5-4.78-1.14-4.75-1.46.3-2.93-.04-6.11-3.46-4.49-1.74.83-2.15,5.35-2.28,8.24-.05,1.05,2.47,2.21,3.81,3.32.39,3.4.78,6.79,1.17,10.19Zm-8.88,72.8c1.6-.73,4.24-1.13,4.6-2.26,1.09-3.35,1.27-6.99,1.81-10.52-3.52,2.95-7.05,5.9-10.57,8.84-1.26-.34-2.52-.89-3.79-.93-.71-.02-1.45.83-2.18,1.28,3.37,1.19,6.75,2.39,10.12,3.58Zm16.47-23.83c1.95-.34,4.01-.42,5.81-1.14.7-.28.82-2.01,1.2-3.08-2.37,1.45-4.75,2.9-7.12,4.35.85-1.91,1.7-3.82,2.55-5.73-3.52,2.54-6.9,5.31-10.61,7.52-1.72,1.02-4.81.26-5.98,1.51-1.28,1.39-1.07,4.16-1.51,6.33,3.71-1.65,7.56-3.06,11.08-5.05,1.82-1.03,3.06-3.09,4.58-4.71Zm-15.6-137.07c1.5-.67,3-1.34,4.5-2.02-2.72-2.04-5.42-4.11-8.18-6.09-.29-.21-.92.05-1.39.09,1.76,2.7,3.53,5.4,5.29,8.1-1.6,1.92-3.79,3.61-4.7,5.81-1.95,4.74-3.24,9.75-4.8,14.64,4.64,0,9.28-.02,13.92-.02-2.25-2.29-5.62-4.25-6.43-6.98-.76-2.53.64-8.14,2.06-8.5,10.67-2.68.94-3.53-.28-5.04Zm32.8,97.86c3.43-4.19,1.33-8.15-1.31-11.28-1.75-2.07-5.79-4.67-7.42-3.94-7.46,3.36-3.05,10.28-3.63,15.76-3.25.78-6.5,1.54-9.7,2.49-.06.02.51,2.18.79,3.35,2.88-1.7,5.76-3.4,8.64-5.1.02,1.7.03,3.4.05,5.1.2-.35.56-.69.59-1.05.79-8.84,6.42-5.23,11-4.31-1.06,2.37-2.13,4.74-3.19,7.11,1.44.62,2.89,1.24,4.33,1.86-.05-3.33-.11-6.66-.16-9.99Zm-95.05,107.86c.48,3.32,11.51,3.56,2.79,9.56.52.36,1.09,1.11,1.54,1.03,4.41-.71,8.88-1.81,9.05-7.35.07-2.2-1.45-4.44-2.25-6.66-.5,1.04-.76,2.37-1.56,3.03-1.17.96-2.73,1.43-4.13,2.1-.15-1.38-.31-2.76-.46-4.14,9.82-.75,8.18-12.36,15.04-15.84,1.3-.66,3.4-.13,4.35-1,1.08-.99,2.06-4.11,1.78-4.29-6.86-4.43-7.32,5.28-12.43,5.85-2.69.3-5.54,7.02-6.92-1.06-3.57,2.21-7.15,4.39-10.69,6.64-.64.4-1.11,1.07-1.66,1.61.61-.05,1.24-.03,1.82-.18,1.47-.36,2.92-.79,4.38-1.2-.95,1.51-2.64,2.99-2.71,4.54-.17,3.84-8.19-2.12-5.24,4.3,1.74,3.8,4.51,7.13,6.81,10.67l.51-7.65Zm78.12,57.03c0-2.09.21-2.84-.03-3.4-3.97-9.24-13.19-8.32-20.55-9.56-16.88-2.85-17.19-2.07-8,6.05,5.3,4.68,11.31,8.62,17.28,12.46,1.71,1.1,4.4,1.01,6.62.93,5.4-.21,4.48-4.44,4.68-6.47Zm19.25-62.78c.8-.48,2.7-1.61,4.6-2.74-6.97-4.41-13.69-9.37-21.12-12.75-1.37-.63-8.61,6.54-8.08,7.61,4.82,9.82,14.78,6.42,24.6,7.88Zm-.19-23.17c1.33,9.26,6.42,13.15,12.6,12.77,4.36-.27,8.48-4.54,12.7-7.03-7.12-2.6-14.17-5.42-21.39-7.7-2.79-.88-4.64.48-3.92,1.96Zm-38-115.43c-.2-.41-.39-.82-.59-1.23-1.76.9-3.55,1.76-5.24,2.77-.1.06.48,1.28.74,1.96,8.52-4.04,7.67,1.31,6.82,6.76-.08.54.35,1.17.55,1.75.55-.52,1.21-.95,1.62-1.56,6.84-10.01,3.89-16.9-6.91-21.09-2.6-1.01-5.9-2.74-7.96-1.9-2.03.84-2.88,4.52-4.25,6.95,2.06-.63,4.45-2.24,6.12-1.69,4.22,1.41,8.12,3.79,12.15,5.78-1.02.5-2.04.99-3.05,1.49Zm-15.85,52.76c.17-.24-.87-2.4-1.27-6.05-1.99,3.93-8.16,6.29-4.6,12.3,6.4-4.06,12.81-8.12,19.21-12.18-4.89-7.43-6.25,2.18-13.34,5.92Zm20.17-126.4c-.68.97-1.94,2.5-1.82,2.62,11.66,11.44,17.44-8.54,27.68-5.25.33.1.81-.28,1.22-.43-10.62-11.06-16.16,12.95-27.08,3.06Zm-1.73-3.78c-3.79-2.72-7.53-7.03-9.18-6.34-15.73,6.6,12.01,3.94,2.23,9.81.9.44,2.14,1.48,2.62,1.21,1.14-.66,1.91-1.95,4.33-4.67Zm22.89,133.71c2.56-1.67,6.02-3.91,9.47-6.16-4.3.46-8.65.61-12.86,1.49-2.21.46-4.15,2.19-6.22,3.34,2.85.39,5.7.79,9.61,1.32Zm100.51.68c3.95-2.61,7.76-5.13,11.57-7.65-.98-.98-2.57-2.96-2.84-2.8-4.25,2.63-8.33,5.54-12.45,8.39,1.04.58,2.08,1.15,3.73,2.06Zm-58.03,70.56c3.93-2.11,8.03-4.31,12.13-6.51-.91-.62-2.13-1.96-2.67-1.73-4.53,1.96-8.93,4.21-13.37,6.38,1.08.52,2.17,1.03,3.91,1.86Zm-15.82-131.72c-1.45-1.64-2.9-3.28-4.35-4.92-.6,4.45-1.23,8.9-1.75,13.36-.07.6.46,1.28.71,1.92,1.69-3.26,3.38-6.52,5.38-10.36Zm5.44-4.8c.98,1.75,2.16,3.84,3.33,5.92,1.37-.9,3.98-2.47,3.91-2.59-1.68-3.12-3.64-6.09-5.55-9.08-.49,1.67-.99,3.35-1.69,5.75Zm32.5,162.14c-1.88,1.1-3.86,2.26-5.83,3.42.67.9,1.55,2.66,1.99,2.56,3.67-.86,7.27-2.07,10.88-3.18-2.06-.82-4.12-1.64-7.04-2.8ZM242.73,54.58c2.09-1.83,3.7-2.97,4.82-4.48.19-.25-2.27-3.13-2.55-2.99-1.87.99-3.48,2.46-5.17,3.78.74.95,1.48,1.89,2.89,3.69Zm-18.62,167.12c-3.2-.6-6.5-1.28-9.83-1.78-.41-.06-.97.84-1.46,1.3,2.85,1.72,5.7,3.45,8.56,5.17.92-1.57,1.83-3.14,2.73-4.69Zm37.13,14.61c-3.44-2-5.8-3.48-8.29-4.68-.3-.14-1.31,1.19-1.99,1.83,2.39,1.51,4.75,3.09,7.22,4.47.34.19,1.23-.62,3.06-1.62Zm-15.48-123.09c-5.41-2.44-7.1-3.88-8.12-3.5-1.76.65-3.1,2.43-4.62,3.73,1.46,1.05,2.81,2.66,4.41,2.97,1.34.25,2.97-1.03,8.33-3.19Zm-24.79,333.52c-1.93-1.3-3.27-2.72-4.85-3.08-1-.23-2.37,1.11-3.57,1.74,1.21,1.29,2.22,3.21,3.69,3.68,1.05.34,2.71-1.27,4.73-2.34Zm-10.99-216.5c-2.68-1.94-4.83-3.54-7.09-4.98-.14-.09-1.12,1.16-1.71,1.78,1.95,1.47,3.83,3.04,5.89,4.31.44.27,1.57-.57,2.91-1.11Zm-50.25-101.87c1.24-2.76,2.47-5.4,3.56-8.08.11-.28-.59-.88-.91-1.34-1.85,2.3-3.72,4.59-5.43,6.99-.06.09,1.55,1.37,2.77,2.43Zm35.13-35.04c-1.77,2.99-4.16,5.31-4.25,7.73-.08,1.9,2.67,3.91,4.17,5.87.14-3.86.29-7.71.41-11.57.01-.48-.15-.97-.33-2.03Zm11.6,207.05c.36-.66,1.52-2.26,1.3-2.47-1.52-1.5-3.29-2.76-5.07-3.98-.19-.13-.91.51-1.39.8,1.66,1.82,3.32,3.64,5.15,5.65Zm-33.31-73.5c-.72-1.23-1.66-2.85-2.61-4.47-.39.61-1.24,1.39-1.09,1.81.81,2.27,1.87,4.45,2.85,6.67.22-1.03.44-2.06.86-4Zm83.15-14.13c3.05-.51,6.52,1.74,6.74-2.88.02-.43-.65-1.31-.74-1.28-2.88,1.1-5.72,2.29-8.57,3.47,1.1.3,2.2.6,2.56.69Z"/>
      <path class="cls-2" d="m82.12,283.12c1.23-.4,2.46-.8,3.69-1.21-.67,1.03-1.61,1.98-1.96,3.11-.6,1.93-.83,3.97-1.22,5.97,1.84-.7,3.85-1.11,5.47-2.15,3.88-2.47,7.19-1.78,10.35,1.18-5.24-.66-5.8,3.88-7.86,6.88-.79,1.14-2.58,1.56-3.5,2.66-2.77,3.33-5.34,6.83-7.93,10.31-.05.06.6.65.93.99,2.78-2.69,5.52-5.42,8.35-8.05,2-1.86,4.14-3.57,6.21-5.35.98,1.97,1.96,3.95,2.94,5.92-2.36.94-4.68,2.56-7.07,2.69-10.37.56-4.49,12.71-11.4,15.56,3.44.71,6.89,1.42,10.34,2.11.45.09.91.12,1.36.17-6.29,6.23,11.53,4.27,3.67,10.76-1.46,1.21-4.06,1.06-6.15,1.47-3.63.73-7.3,1.27-10.88,2.16-1.97.49-3.8,1.51-5.69,2.29.61-4.66.75-9.46,2.03-13.93.6-2.1,6.16-4.01-.88-4.39l-.12.13c8.4-5.84,2.98-15.28,5.86-22.56-6.28-.32-12.12-3.04-18.4-3.9-15.17-2.09-29.5,2.3-44.23,1.48-3.3-.18-6.78,2.97-10.18,4.59,2.63-11.41,12.69-6.12,19.08-7.64,11.5-2.74,23.59-3.61,35.46-3.93,7.62-.2,8.93-5.94,12.18-10.19,4.83-6.29,4.14,4.67,7.62,2.35.65.17,1.29.33,1.94.5Z"/>
      <path class="cls-2" d="m168.6,248.85s.12.19.12.19c-1.24,17.95-15.99,8.36-24.3,11.54-8.29,3.17-18.63.55-25.28,8.86-.2.25-1.43-.32-2.18-.52,1.68-2.09,2.99-5.42,5.09-6.04,9.06-2.67,18.4-4.38,27.52-6.87,1.34-.37,2.36-2.9,2.94-4.63.26-.78-1.06-2.97-1.49-2.92-1.54.16-2.98,1.07-4.5,1.58-4.31,1.44-8.64,2.83-12.96,4.23,2.52-1.81,5.11-3.53,7.5-5.51.53-.44.31-1.78.43-2.71.99.33,1.98.66,2.97.99.33-3.11.67-6.22,1-9.33-1.61.25-3.22.5-4.83.75-4.56-2.02-7.33-3.78-6.16-10.51.51-2.9,8.78-9.43-.74-12.9-.39-.14,1.07-5.36,1.68-8.21,4.74,1.66,11.16,1.99,13.79,5.31,3.38,4.27-2.46.26-3.12,1.73-.27.6-.37,1.88-.13,2,4.2,2.07,1.57,10.14,8.52,9.69,3.39,5.6,7.24,10.98,9.94,16.89,1.13,2.48-6.86,10.17,4.18,6.37Zm-12.88.74c1.62,1.02-4.69,6.42,1.82,4.97,5.53-1.23-3.85-10.06,4.41-11.41-.98-.76-2.02-2.25-2.93-2.18-5.95.5-4.29,4.57-3.31,8.61Z"/>
      <path class="cls-2" d="m253.59,415.66c6.85-13.33,19.31,1.54,27.55-5.37.51-.43,2.5.91,3.81,1.43-.49.91-.78,2.06-1.51,2.69-1.16.99-2.61,1.64-3.94,2.44,3.19.81,5.17,7.75,9.81,1.84.56-.72,2.8-.17,4.25-.03.12.01.45,1.71.1,2.08-4.12,4.46-7.64,10.7-12.77,12.65-4.42,1.68-13.28.24-15.57-3.04-3.71-5.33-6.34-11.12-12.46-14.25-.08-.04-.06-.27-.08-.41.28-.01.56-.03.86-.05,1.97.77,3.9,1.6,5.87,2.32,1.94.71,4.02,2,5.87,1.75,1.67-.23,3.1-2.2,4.64-3.41-5.47-.22-10.95-.44-16.42-.66Z"/>
      <path class="cls-2" d="m116.52,403.88c2.28,6.4,2.16,10.99-1.61,14.93-.44.46.37,2.12.6,3.22.57-.34,1.19-.62,1.7-1.04,1.9-1.54,3.77-3.13,5.66-4.7.2,3.45.39,6.9.59,10.34-1.95-1.85-3.01-5.72-6.93-2.12-6.55,6.02-4-1.2-4.56-3.42-.5-2.01-.52-4.15-.74-6.23-.85,2.17-1.86,4.3-2.5,6.53-1.07,3.7-1.15,8.19-6.3,8.67-1.72.16-3.55-.83-5.33-1.3,2.22-2.9,4.52-5.74,6.65-8.71,2.71-3.78,7.79-5.07,5.57-12.98-1.34-4.76,7.1-12.27,11.15-18.54,5.62,4.54,6.96-3.82,11.11-3.7-.95,3.73-1.68,7.53-2.93,11.16-.72,2.09-2.26,3.89-3.43,5.83-.26-1.91-.42-3.83-.83-5.7-.1-.46-1.51-1.07-1.54-1.02-2.26,3.03-4.43,6.12-6.31,8.77Z"/>
      <path class="cls-2" d="m56.33,346.92c-1.9,1.48-3.67,3.54-5.89,4.37-1.81.68-4.17-.1-6.29-.24,3.76-2.19,7.27-5.45,11.31-6.38,18.44-4.23,21.88,9.01,24.8,22.38.09.41-1.48,1.18-2.28,1.78-4.4-5.99-15.71,2.71-18.4-9.44-.87-3.92,9.59-12.23-3.25-12.47Zm5.62,7.56c1.88,2.9,3.04,4.69,4.2,6.49,1.14-3.19,2.46-6.34,3.29-9.6.18-.71-1.38-1.86-2.14-2.81-1.59,1.76-3.18,3.52-5.35,5.92Z"/>
      <path class="cls-2" d="m291.82,400.54c1.72,3.92,5.7-6.72,9.16-1.53-5,2.24-12.91,7.66-14.51,6.19-7.56-6.95-14.97-3.62-22.68-2.42-1.77.28-3.61.09-5.41.11,2.31-2.14,4.26-5.12,6.99-6.28,8.16-3.48,16.6-6.3,24.99-9.19.57-.2,1.63,1.27,2.55,1.8.75.43,1.64.6,2.47.89-2.01.9-4.25,2.87-5.98,2.5-5.38-1.16-.89,3.81-3.05,4.35,1.14.75,2.28,1.49,5.48,3.58Z"/>
      <path class="cls-2" d="m156.96,442.71c-1.39-1.88-3.88-4.7-3.62-4.98,6.56-7.05.43-20.99,13.46-24.57,3.88-1.07,7.78-3.07,7.84-8.37,0-.77,1.55-1.53,2.38-2.29.86,1.17,2.59,2.48,2.42,3.47-.42,2.48-1.03,6.17-2.72,6.99-11.61,5.63-13.7,17.59-19.06,27.36-.35.64-.42,1.43-.69,2.38Z"/>
      <path class="cls-2" d="m200.58,36.89c-1.96,1.57-3.92,3.15-5.88,4.72.6.6,1.29,1.77,1.79,1.7,3.32-.51,6.62-1.2,9.88-2.03,1.62-.41,3.49-2.11,4.63-1.66,1.65.65,4.08,3.11,3.79,4.11-.58,1.99-2.78,3.52-4.3,5.24-.35-1.45-.57-2.94-1.09-4.32-.23-.62-1.3-1.56-1.55-1.43-2,.96-5.52,2.12-5.54,3.26-.08,4.82-2.43,7.28-6.47,9.01-2.16.92-4.16,2.24-6.22,3.38,1.43-1.87,2.87-3.75,4.3-5.62-3.9-2.97-.84-8.69-1.37-9.43-4.7-6.71,1.62-8,4.4-11,1.18,1.45,2.37,2.91,3.55,4.36,0,0,.07-.26.07-.26Z"/>
      <path class="cls-2" d="m142.62,412.61c-6.5-.42-9.29,4.14-7.07,11.1.32.99-.64,2.48-1.21,3.63-.16.33-1.52.49-1.57.37-.39-.82-.64-1.72-.82-2.61-1.55-8.05-9.41-16.47,1.11-23.79,1.18-.82,4.51-.59,5.25.38,2.59,3.36,4.49,7.27,6.65,10.96-.78,0-1.56,0-2.34-.04Z"/>
      <path class="cls-2" d="m333.63,243.64c3.97-.13,7.95-.27,11.92-.4-2.8,2.14-5.67,4.19-8.24,6.57-.21.19,1.95,2.61,2.61,4.16.51,1.19.76,2.77.39,3.94-.17.56-2.07.57-3.19.83.42-.89.83-1.78,1.25-2.66-4.55-1.46-9.21-2.66-13.62-4.47-2.32-.95-7.57,1.21-6.41-4.01,1.4-6.31,6.04-7.51,11.75-5.06-2.27,1.04-4.54,2.08-6.81,3.12.42.4,1.02,1.23,1.23,1.14,2.97-1.25,7.65,2.4,9.1-3.14Z"/>
      <path class="cls-2" d="m152.69,124.8c.03.42.07.84.11,1.25-4.75,1.64-11.62-3.07-14.29,4.78l.09-.1c-4,2.33-9.65-2.98-12.91,2.79-1.28-1-2.55-1.99-3.83-2.99,1.14-.31,2.42-.38,3.38-.98,5.01-3.1,8.31-9.31,15.5-8.38-1.18-1.39-2.21-2.97-3.61-4.08-.76-.6-2.16-.4-3.27-.57,5.33,1.25,10.66,2.48,15.95,3.89.17.05-.1,1.99-.28,3.04-.07.4-.46.74-.71,1.1,1.29.08,2.58.16,3.87.23Z"/>
      <path class="cls-2" d="m319.98,325.23c7.55,2.96,17.92-1.71,19.38,10.23.19,1.55.27,3.12.4,4.67-5.41-3.63-10.81-7.25-16.22-10.88-4.19,13.69-7.61.64-11.38-.33,2.84-1.34,5.68-2.69,7.81-3.7Z"/>
      <path class="cls-2" d="m200.58,36.89s-.07.26-.07.26c5.48-6.37-.11-21.28,15.33-19.88.94.08,1.79,1.13,2.68,1.73-.91,0-1.82-.05-2.72,0-2.15.11-4.3.26-6.44.39.22,3.29.43,6.58.65,9.86,1.52-.67,3.05-1.88,4.56-1.86,2.05.03,4.09,1,6.14,1.57-1.3.57-2.57,1.51-3.91,1.63-6.38.57-10.34,4.32-13.76,9.32-.72,1.06-3.21.9-4.88,1.31l2.44-4.34Z"/>
      <path class="cls-2" d="m162.53,40.8c-4.06-7.5-2.07-10.06,6.15-7.55-1.02-1.67-3.1-3.58-2.79-4.94.38-1.64,3.86-4.2,4.16-3.97,3.71,2.87,7.08,6.17,10.54,9.36-1.94.72-3.88,1.47-5.84,2.13-.67.23-1.42.24-2.13.36,2.56,14.95-10.33-4.96-10.19,4.53l.09.09Z"/>
      <path class="cls-2" d="m162.43,40.71c-1.22,7.84,2.83,10.53,9.97,10.31.35-.01.73.81,1.1,1.24-1.53.23-3.17.2-4.58.75-2.48.97-8.06-4.31-7.23,3.47-4.54-.32-2.48-11.63-7.8-6.67-4.95,4.61,2.72,9.16,5.79,13.31-17.04.37-5.74-13.12-9.42-19.28,6.38,8.27,7.23-5.86,12.26-3.03,0,0-.1-.1-.1-.1Z"/>
      <path class="cls-2" d="m227.89,37.58c-2.61,2.49.29,14.98-6.59,8.91-3.73-3.3,5.78-13.09,13.56-16.19.95-.38,4.11,2.11,4.04,2.24-2.04,4.34-3.48,10.99-6.84,12.2-4.39,1.58,4.07-7.27-4.18-7.16Z"/>
      <path class="cls-2" d="m114.91,378.68c.33-.19-1.95,1.09-4.23,2.36,1.84-.35,3.7-1.08,5.5-.95,2.75.2,5.45.99,8.17,1.53-.44.62-.76,1.63-1.34,1.8-3.2.95-6.43,1.81-9.71,2.46-2.19.43-4.47.41-6.71.66-3.97.45-10.65,2.5-11.43,1.15-3.15-5.5,3.86-2.81,5.85-4.71,3.86-3.7,10.05-5.05,15.41-7.02,1.2-.44,2.96.53,4.43.95.28.08.42.65.62,1-1.14.14-2.29.28-6.57.8Z"/>
      <path class="cls-2" d="m142.47,349.45c-5.51-5.98-13.17,2.43-17.7-5.48-.34-.59,2.22-4.11,3.23-4.02,7.84.71,15.63,1.98,23.43,3.07-2.69,1.93-5.39,3.87-8.96,6.43Z"/>
      <path class="cls-2" d="m178.86,210.98c-3.79-13.93,1.72-10.37,10.72-7.05,7.73,2.85-4.12,4.71.63,5.81-1.21,1.01-2.28,2.46-3.66,2.87-.92.27-3.19-.79-3.31-1.51-1.21-7.57-3.01-.53-4.47-.23,0,.01.09.11.09.11Z"/>
      <path class="cls-2" d="m161.38,100.31c1.91.98,3.16,1.62,4.4,2.26-2.83,5.29-5.99,10.74-12.73,10.54-1.7-.05-3.27-4.61-4.89-7.1,4.45-1.92,8.91-3.84,13.22-5.71Z"/>
      <path class="cls-2" d="m148.62,56.64c-10.16-.34-3.21,9.64-8.82,10.46-2.74.4-7.85-1.51-8.54-3.53-2.34-6.79,3.5-8.25,8.35-9.11,2.2-.39,4.72,1.07,9,2.18Z"/>
      <path class="cls-2" d="m125.66,150c-2.43,3.48-4.72-1.56-7.43-4.55,2.88-1.52,5.67-4.11,8.65-4.33,5.17-.38,10.44.71,15.67,1.18-4.79,2.18-9.58,4.37-16.89,7.7Z"/>
      <path class="cls-2" d="m94.9,417.7c.43.66-.64-.38-.44-.76,1.59-3.04,3.26-6.08,5.27-8.85.7-.96,2.47-1.11,3.73-1.7,5.09-2.37-.08-12.14,8.57-11.88.24,0,.67,1.44.65,1.45-9.57,4.72-3.41,20.83-17.78,21.74Z"/>
      <path class="cls-2" d="m279.13,132.79c1.5-1.02,3-2.05,4.51-3.07,5.03,1.28,8.5-.87,11.07-5.02.39-.3.78-.6,1.17-.9,1,2.21,1.99,4.42,2.99,6.63-6.86-1.56-11.96,11.51-19.73,2.36Z"/>
      <path class="cls-2" d="m126.98,157.08c-4.34,3.46-8.65,6.97-13.09,10.31-.34.25-2.37-.93-2.32-1.12,1.4-5.54,2.97-11.03,4.52-16.54,2.2,1.4,4.4,2.8,6.61,4.2-1.67,1.11-3.32,2.25-5.01,3.31-.63.39-1.89.51-1.96.91-.19,1.04.13,2.18.24,3.27,1.66-.56,3.34-1.06,4.97-1.69,2.06-.8,4.08-1.7,6.12-2.56l-.07-.09Z"/>
      <path class="cls-2" d="m72.9,322.3c-6.43.16-10.54-2.82-11.74-9.18-.13-.69,1.79-1.76,2.76-2.66,3.23,3.78,12.31,3.23,8.86,11.97,0,0,.12-.13.12-.13Z"/>
      <path class="cls-2" d="m156.01,275.17c-2.29.62-4.59,1.23-6.88,1.85,3.56-4.13,7.12-8.26,10.68-12.38,2.69,2.64,9.06-3.95,9.67,3.87,0,0,.11-.1.11-.1-4.53,2.26-9.06,4.51-13.59,6.77Z"/>
      <path class="cls-2" d="m48.57,325.16c-3-2.11-5.84-3.8-8.3-5.93-1.41-1.23-6.85,3.19-3.86-1.22,1.85-2.72,9.9-1.22,15.17-1.61-1.35,3.91-2.7,7.83-3.02,8.77Z"/>
      <path class="cls-2" d="m293.71,139.92c6.33.83,10.33,1.35,14.33,1.88-.83,1.5-1.99,4.39-2.43,4.29-4.17-1-8.25-2.46-12.25-4.04-.23-.09.39-2.36.35-2.13Z"/>
      <path class="cls-2" d="m75.71,252.29c-4,2.55-6.45,4.12-8.89,5.68-1.36-2.32-2.72-4.63-4.08-6.95,1.73-.8,3.53-2.35,5.18-2.2,2.12.19,4.12,1.74,7.79,3.47Z"/>
      <path class="cls-2" d="m254.54,34.61c-.9,2.04-1.63,5.39-2.55,5.44-3.13.18-6.44-.47-9.42-1.55-.8-.29-.66-3.2-.95-4.91,3.27,2.34,6.43,3.33,9.42-.48.53-.67,1.43-1.05,2.15-1.57.43.99.86,1.99,1.34,3.07Z"/>
      <path class="cls-2" d="m304.45,323.25c0,4.77-.59,7.6.09,7.95,5.3,2.76-.07,3.2-.83,4.58-1.83-1.75-5.4-3.88-5.12-5.17.53-2.42,3.28-4.35,5.86-7.37Z"/>
      <path class="cls-2" d="m318.73,260.79c1.41.11,2.81.23,4.22.34l-.09-.13c.12,1.96-2.03,4.37,2.33,5.27,1.6.33,2.81,5.1,3.09,7.96.09.92-3.56,4.59-4.88-.43-.5-1.88-.69-3.85-1.34-5.67-.91-2.54-2.11-4.97-3.2-7.44,0,0-.12.1-.12.1Z"/>
      <path class="cls-2" d="m249.26,358.27c-3.1.09-8.23,1.31-8.94.05-2.52-4.47.53-7.75,5.06-8.17,1.1-.1,2.61,4.25,3.93,6.55-.02.52-.03,1.05-.05,1.57Z"/>
      <path class="cls-2" d="m110.65,351.96c3.67-6.38,4.98-8.66,6.29-10.94,1.26,2.28,3.24,4.49,3.5,6.88.13,1.22-2.66,3.16-4.48,4.02-1.36.64-3.29.07-5.3.03Z"/>
      <path class="cls-2" d="m171.61,199.4c5.28,1.03,3.42-10.49,8.67-6.16,6.82,5.61-4.54,3.45-4.68,7.46-.06,1.6-4.08,3.07-6.3,4.6.8-2.01,1.6-4.01,2.4-6.02l-.1.13Z"/>
      <path class="cls-2" d="m195.07,23.91c-1.06,1.89-1.67,3.81-2.2,3.79-2.48-.09-4.94-.71-7.4-1.15,8.27-3.07-5.04-7.3.2-8.87,2.27-.68,6.12,3.92,9.41,6.23Z"/>
      <path class="cls-2" d="m67.68,275.36c-2.01,1.52-3.18,2.79-3.51,2.59-3.02-1.74-5.89-3.74-8.81-5.66,2.08-.63,4.33-2.06,6.19-1.66,1.96.43,3.54,2.61,6.14,4.72Z"/>
      <path class="cls-2" d="m350.48,224.55c6.23-6.8-8.23-3.47-4.43-9.08,0,0-.22.19-.22.19,3.8,2.18,7.71,4.21,11.27,6.73.5.35-.75,3.16-1.19,4.83-1.81-.89-3.62-1.79-5.44-2.68Z"/>
      <path class="cls-2" d="m53.79,305.42c1.92-1.7,3.16-5.99,6.62-2.05,1.01,1.15,1.17,3.05,1.71,4.61-3.09.38-6.19.76-9.28,1.13.35-1.26.7-2.52,1.05-3.79l-.1.09Z"/>
      <path class="cls-2" d="m198.05,169.65c2.49-2.27,4.98-4.54,7.47-6.81,1.02,1.69,2.04,3.37,3.05,5.06-2.98,1.59-5.96,3.18-8.94,4.78l.13-.08c-.57-.98-1.14-1.97-1.71-2.95Z"/>
      <path class="cls-2" d="m226.28,392.74c9.11.62,13.84.94,18.57,1.26-2.64.93-5.31,1.78-7.9,2.83-.83.34-1.81,1.86-2.12,1.7-1.86-.99-3.54-2.31-8.55-5.79Z"/>
      <path class="cls-2" d="m300.5,273.66c-.73-1.38-1.46-2.75-2.18-4.13,3.13-.68,6.64-2.6,9.33-1.79,5.91,1.77,1.4,3.15-.77,4.01-2.08.82-4.33,1.21-6.5,1.79,0,0,.13.12.13.12Z"/>
      <path class="cls-2" d="m239.8,331.76c-1.42,1.36-2.77,3.17-4.56,4.19-1.31.75,2.47,5.56-.73,2.07-1.69-1.84,2.34-8.93,3.79-13.65,4.48,1.61-4.12,7.02,1.5,7.39Z"/>
      <path class="cls-2" d="m105.74,262.47l-4.67,2.17c-.64-2.74-1.42-5.45-1.78-8.22-.06-.44,1.76-1.13,2.71-1.7,1.25,2.52,2.49,5.04,3.74,7.56,0,0,0,.2,0,.2Z"/>
      <path class="cls-2" d="m144.69,65.61c1.41.48,2.99.78,4.33,1.52,1.88,1.03,5.81-7.27,5.89,1.31-3.17-5.77-8.5,8.49-11.03-1.19-.28-1.09,1.41-2.7.81-1.64Z"/>
      <path class="cls-2" d="m97.16,323.37c2.95-3.59,6.26-7.62,9.57-11.64.28.35.88.88.8,1.01-2.98,4.86-6.01,9.68-9.04,14.5-.3-.88-.61-1.76-1.33-3.87Z"/>
      <path class="cls-2" d="m123.23,73.33c.76-5.39,4.47-6.98,9.07-6.13,4.53.83,2.31,3.6.21,4.45-2.84,1.15-6.13,1.15-9.23,1.64l-.05.05Z"/>
      <path class="cls-2" d="m238.33,442.13c1.34-1.04,2.69-2.08,4.02-3.1,5.06,2.75-1.23,5.22-.19,7.86l-4.77,1.84c0-1-.1-2.02.04-2.99.19-1.22.58-2.41.89-3.61Z"/>
      <path class="cls-2" d="m133.43,188.24c.86,10.18,4.67.35,4.83,5.03.1,2.86-1.98,5.8-3.09,8.7-1.14-2.75-2.36-5.47-3.35-8.28-.21-.6.4-1.5,1.61-5.45Z"/>
      <path class="cls-2" d="m138.5,130.84c3.65.71,7.3,1.41,10.95,2.12-1.15,5.32-5.77,1.67-8.37,3.25-.83-1.82-1.66-3.65-2.49-5.47,0,0-.09.1-.09.1Z"/>
      <path class="cls-2" d="m153.54,425.26c.26.66,1.03,1.66.78,2.13-1.86,3.6-3.92,7.09-5.92,10.61-.85-1.18-2.68-3.04-2.4-3.44,2.21-3.16,4.81-6.05,7.54-9.31Z"/>
      <path class="cls-2" d="m105.74,262.47s0-.2,0-.2c2.24.53,4.49,1.05,6.73,1.57-.58,1.1-.98,2.96-1.78,3.15-2.22.52-4.61.35-6.93.45.66-1.66,1.32-3.31,1.98-4.97Z"/>
      <path class="cls-2" d="m142.44,108.43c-8.3-2.64-3.54-5.58-1.46-8.34.22,1.54,0,4.06.77,4.4,1.38.61,3.34-.07,5.06-.21-1.52,1.45-3.04,2.89-4.37,4.15Z"/>
      <path class="cls-2" d="m208.81,175.92c.82,6.55-.32,9.74-4.7,8.77-1.81-.4-3.05-3.4-4.55-5.21.35-.17.97-.53,1.01-.48,3.11,4.43,5.96,2.99,8.23-3.07Z"/>
      <path class="cls-2" d="m56.7,252.67c1.24.69,2.58,1.44,3.93,2.19-1.49,2.03-2.98,4.06-4.47,6.09-1.69-1.97-3.38-3.94-5.08-5.91,1.85-.78,3.7-1.56,5.62-2.37Z"/>
      <path class="cls-2" d="m111.6,286.42c-3.34,2.73-6.33,5.19-9.33,7.65-.17-.45-.59-.99-.47-1.35,1.16-3.59.91-8.65,7.13-7.22.87.2,1.7.59,2.66.93Z"/>
      <path class="cls-2" d="m50.57,241.64c-3.82-2.41-6.6,7.33-9.97-.21,2.88-.95,5.71-2.12,8.66-2.71.89-.18,2.11,1.28,3.17,1.99-.73.37-1.47.73-1.86.93Z"/>
      <path class="cls-2" d="m127.04,157.17c.73-1.33,1.11-3.87,2.55-4.63,1.88-.99,4.8.59,6.67.96-1.15,1.21-1.97,3.07-3.76,3.38-.99.17-2.01-.01-2.99-.17-.94-.16-2.02-.63-2.55.36.01.01.08.11.08.11Z"/>
      <path class="cls-2" d="m199.63,172.67c1.97.38,3.95.75,5.92,1.13-.82,1.3-1.81,3.77-2.44,3.68-2.02-.28-3.91-1.51-5.85-2.38.83-.84,1.66-1.67,2.49-2.51,0,0-.12.08-.12.08Z"/>
      <path class="cls-2" d="m259.69,386.31c8.85-3.07,10.45-4.1,12.01-4.05,1.86.06,3.68,1.04,5.52,1.62-1.73,2.15-3.14,4.83-5.35,6.24-1.07.68-3.65-1.02-12.19-3.81Z"/>
      <path class="cls-2" d="m78.21,392.32c-3.12-.38-4.19-.51-5.26-.64,4.48-1.98,8.95-4.01,13.48-5.88.41-.17,1.25.68,1.88,1.06-3.86,2.08-7.72,4.17-10.1,5.46Z"/>
      <path class="cls-2" d="m112.61,298.81c-3.78,2.95-6.72,5.33-9.8,7.5-.3.21-1.53-.89-2.32-1.39,3.14-2.45,6.26-4.93,9.44-7.31.2-.15.9.39,2.68,1.2Z"/>
      <path class="cls-2" d="m154.54,169.65c.4,4.79.8,9.58,1.21,14.36-1.98-2.55-5.02-4.89-5.56-7.71-.36-1.9,2.84-4.47,4.45-6.74,0,0-.1.09-.1.09Z"/>
      <path class="cls-2" d="m119.37,324.81c-.61,5.78-.98,9.37-1.36,12.95-1.11-3.01-2.61-5.96-3.14-9.07-.22-1.3,1.36-3.27,2.63-4.3.59-.48,2.4.57,1.87.42Z"/>
      <path class="cls-2" d="m145.96,90.5c-.95,1.68-2,3.53-3.04,5.38-1.48-2.67-2.99-5.32-4.37-8.04-.1-.2.96-1.3,1.06-1.24,2.31,1.34,4.56,2.77,6.35,3.9Z"/>
      <path class="cls-2" d="m53.89,305.32c-2.97-3.32-4.15,8.28-7.25.89-.34-.81,2.49-2.96,3.85-4.49,1.1,1.23,2.2,2.46,3.3,3.69,0,0,.1-.09.1-.09Z"/>
      <path class="cls-2" d="m101.52,274.65c1.7,1.23,2.33,1.69,2.96,2.15-2.02,1.73-4.01,3.51-6.13,5.11-.17.13-1.27-.99-1.94-1.53,1.63-1.83,3.26-3.66,5.11-5.73Z"/>
      <path class="cls-2" d="m200.43,377.12c1.4,1.37,2.8,2.75,4.2,4.12,1.14,2.65,2.27,5.31,3.41,7.96-5.72-2.02-7.26-6.67-7.61-12.08Z"/>
      <path class="cls-2" d="m151.37,192.97c-.5,4.27-.9,7.71-1.3,11.14-.73-1.87-2.14-3.79-2.03-5.61.15-2.59,1.42-5.12,2.21-7.67.48.92.96,1.83,1.13,2.14Z"/>
      <path class="cls-2" d="m153.92,263.27c-3.53,2.53-6.39,4.59-9.3,6.6-.03.02-.91-1.03-.86-1.09,2.15-2.37,4.28-4.76,6.65-6.9.33-.3,1.83.7,3.51,1.39Z"/>
      <path class="cls-2" d="m173.36,441.33c-.24.43-.47.86-.71,1.29-1.01-1.01-3.06-2.59-2.87-2.93,1.32-2.38,3.1-4.49,4.73-6.7-.38,2.78-.77,5.56-1.15,8.34Z"/>
      <path class="cls-2" d="m68.02,258.98c1.65,1.54,3.26,3.04,4.83,4.59.01.01-.59.89-.78.84-3.57-.86-7.13-1.8-10.69-2.72,1.89-.77,3.78-1.55,6.64-2.72Z"/>
      <path class="cls-2" d="m179.16,57.5c-5.97.4-9.86.66-13.75.93,2.52-1.2,4.96-3.07,7.59-3.37,2.04-.23,4.31,1.52,6.47,2.39-.78.13-1.56.26-.31.05Z"/>
      <path class="cls-2" d="m322.95,261.13c.87-2.23-1.31-6.82,3.8-5.66,1.35.31,2.1,3.21,3.13,4.92-2.34.21-4.68.41-7.02.61,0,0,.09.12.09.12Z"/>
      <path class="cls-2" d="m82.12,283.12c-.65-.17-1.29-.33-1.94-.5-.64-2.12-1.28-4.23-1.92-6.35l7.69,2.84c-1.28,1.33-2.55,2.67-3.83,4Z"/>
      <path class="cls-2" d="m258.56,31.33c-1.6-.96-2.12-1.28-2.65-1.6,2.42-1.87,4.81-3.77,7.31-5.52.14-.1,1.1.98,1.67,1.52-2.02,1.79-4.03,3.57-6.33,5.61Z"/>
      <path class="cls-2" d="m227.23,31.91c-.64-.79-1.09-1.34-1.54-1.89,2.36-1.74,4.69-3.52,7.12-5.16.23-.16,1.1.63,1.67.98-2.33,1.95-4.67,3.91-7.25,6.06Z"/>
      <path class="cls-2" d="m131.15,380.65c-1.41-1.17-2.12-1.75-2.82-2.33,1.54-1.05,3.07-2.14,4.67-3.1.13-.08,1.22,1.01,1.15,1.12-.81,1.33-1.76,2.58-2.99,4.31Z"/>
      <path class="cls-2" d="m171.71,199.27c-1.06.43-2.13.85-3.19,1.28.17-.96.03-2.16.55-2.82,1.61-2.04,3.49-3.87,5.26-5.79-.91,2.49-1.82,4.98-2.72,7.47,0,0,.1-.13.1-.13Z"/>
      <path class="cls-2" d="m161.23,191.09c-1.59,1.19-2.57,2.39-3.75,2.63-.83.17-1.93-.95-2.91-1.5,1.29-1.02,2.52-2.17,3.94-2.97.32-.18,1.33.87,2.72,1.83Z"/>
      <path class="cls-2" d="m123.28,73.29c-2.97-.11-5.95-.23-8.92-.34,1.05-.67,2.51-2.14,3.08-1.85,1.88.95,5.7-2.9,5.8,2.24,0,0,.04-.04.04-.04Z"/>
      <path class="cls-2" d="m220.1,16.4c3.35.66,6.08,1.2,8.82,1.75-.94.82-2.15,2.5-2.78,2.3-2.27-.7-4.35-2.03-6.44-3.22-.04-.02.64-1.3.41-.83Z"/>
      <path class="cls-2" d="m92.7,270.82c-3.04,2.19-5.06,3.66-7.12,5.08-.08.05-.51-.41-.78-.64,1.46-1.68,2.84-3.44,4.43-4.98.33-.32,1.45.2,3.46.54Z"/>
      <path class="cls-2" d="m144.23,155.08c-.47-1.63-1.44-3.34-1.19-4.85.11-.69,2.63-.99,4.05-1.46-.97,2.13-1.94,4.25-2.91,6.39,0,.01.06-.07.06-.07Z"/>
      <path class="cls-2" d="m249.26,358.27c.02-.52.03-1.05.05-1.57.29.36.57.71.86,1.07-.3.17-.61.33-.91.5Z"/>
      <polygon class="cls-2" points="268.71 266.19 268.67 266.14 268.85 266.04 268.71 266.19"/>
      <path class="cls-2" d="m351.21,324.59s.17-.12.17-.13c0,0-.17.13-.17.13Z"/>
      <path class="cls-2" d="m187.45,90.78c-1.64,1.06-3.28,2.12-4.92,3.18-.21-1.16-.42-2.31-.63-3.47,1.88.13,3.77.27,5.65.4,0,0-.1-.11-.1-.11Z"/>
      <path class="cls-2" d="m239.31,136.66c3.73-.13,6.9,5.9,11.06,1.01-1.3,2.13-2.44,5.93-3.94,6.08-4.38.43-6.38-3.03-7.12-7.1Z"/>
      <path class="cls-2" d="m249.26,98.84c3.28-3.99,9.71-6.04,8-13.09,1.68-.33,3.36-.67,5.04-1,1.44,2.1,2.88,4.2,4.31,6.3-5.54,3.15-9.17,10.55-17.36,7.79Z"/>
      <path class="cls-1" d="m190.48,330.32c-2.49-.67-4.99-1.33-7.48-2"/>
      <path class="cls-1" d="m280.24,130.73c4.53,5.31,8.78.46,12.87-.8.96-.29,1.66-4.81.79-6.53-.63-1.27-4.02-1.15-6.18-1.65"/>
      <path class="cls-1" d="m254.31,208.82c-1.33,1.75-2.66,3.49-3.99,5.24"/>
      <path class="cls-1" d="m302.18,286.91c-4.92-3.15-1.31-14.15-11.47-12.47"/>
      <path class="cls-1" d="m195.97,438.09c.33,1.5.66,2.99,1,4.49"/>
      <path class="cls-1" d="m200.95,201.58c-3.49,5.16-6.98,10.31-10.47,15.47"/>
      <path class="cls-1" d="m272.26,272.44l11.97,4.49"/>
      <path class="cls-1" d="m167.04,336.3l-2.99,7.48"/>
      <path class="cls-1" d="m224.89,69.36c-2.16,1.33-4.32,2.66-6.48,3.99"/>
      <path class="cls-1" d="m230.37,312.35c1.16,3.83,2.33,7.65,3.49,11.48"/>
      <path class="cls-1" d="m155.08,336.8v11.48"/>
      <path class="cls-1" d="m149.09,358.76c-1.99,3.16-3.99,6.32-5.98,9.48"/>
      <path class="cls-1" d="m142.61,368.74c-.17,7.65-.33,15.3-.5,22.95"/>
      <path class="cls-1" d="m290.71,184.62c-2.49.83-4.99,1.66-7.48,2.49"/>
      <path class="cls-1" d="m175.52,409.65c-2.83,2.83-5.65,5.65-8.48,8.48"/>
      <path class="cls-1" d="m160.06,422.62c-1.33-.67-2.66-1.33-3.99-2"/>
      <path class="cls-1" d="m295.69,116.26c-3.32-1.16-6.65-2.33-9.97-3.49"/>
      <path class="cls-1" d="m219.4,376.22c-3.35,4.06.97,5.86,2.49,8.48"/>
      <path class="cls-1" d="m226.88,160.17c-3.13,1.06-6.87,1.73-3.99,6.49"/>
      <path class="cls-1" d="m212.92,449.57c2.33.5,4.65,1,6.98,1.5"/>
      <path class="cls-1" d="m284.72,241.5c13.29-3.7,22.55,4.52,32.41,10.98"/>
      <path class="cls-1" d="m171.53,148.69c-3.03,1.3-3.83,11.12-9.47,2.49"/>
      <path class="cls-1" d="m234.86,122.25c3.05,6.51,8.26,3.64,12.96,2.99"/>
      <path class="cls-1" d="m98.73,288.4c-3.16,1.33-6.32,2.66-9.47,3.99"/>
      <path class="cls-1" d="m66.82,292.89c-3.49,1.5-6.98,2.99-10.47,4.49"/>
      <path class="cls-1" d="m279.74,97.3c-.33,1.16-.66,2.33-1,3.49"/>
      <path class="cls-1" d="m297.69,308.86c.54,5.11.21,10.88,7.98,10.48"/>
      <path class="cls-1" d="m317.14,320.84h3.49"/>
      <path class="cls-1" d="m238.35,463.54c2.49,1,4.99,2,7.48,2.99"/>
      <path class="cls-1" d="m225.88,409.15c3.97,4.07,14.77.07,12.96,10.98"/>
      <path class="cls-1" d="m98.23,303.87c-15.95-.79-19.67,9.3-19.95,22.45"/>
      <path class="cls-1" d="m240.35,225.03c-1.99,4.49-3.99,8.98-5.98,13.47"/>
      <path class="cls-1" d="m345.56,243.5c-4.32,2.33-8.64,4.66-12.96,6.99"/>
      <path class="cls-1" d="m133.64,303.87c-4.68-1.2-5.35,1.2-4.49,4.99"/>
      <path class="cls-1" d="m161.06,423.12c-1.16,5.39,0,11.9-6.98,14.47"/>
      <path class="cls-1" d="m187.49,151.19c-2.96,2.55,1.55,9.91-5.98,9.42-1.85-.12-5.19-.85-5.22-1.46-.14-2.46.73-4.97,1.23-7.47"/>
      <path class="cls-1" d="m282.23,150.19c.5,1.83,1,3.66,1.5,5.49"/>
      <path class="cls-1" d="m306.66,230.02l-8.98,10.48"/>
      <path class="cls-1" d="m176.52,223.54c-2.83-1.5-5.65-2.99-8.48-4.49"/>
      <path class="cls-1" d="m165.8,223.54c1.41,4.32,2.83,8.65,4.24,12.97"/>
      <path class="cls-1" d="m353.54,203.58c-2.33.67-4.65,1.33-6.98,2"/>
      <path class="cls-1" d="m340.07,209.07c-2.33,2.49-4.65,4.99-6.98,7.48"/>
      <path class="cls-1" d="m234.36,464.54c4.57,6.75,9.56,12.94,18.45,13.97"/>
      <path class="cls-1" d="m218.9,330.32c.5,3.49,1,6.99,1.5,10.48"/>
      <path class="cls-1" d="m67.82,363.5c-7.28,2.56-2.75-10.89-10.47-7.73"/>
      <path class="cls-1" d="m82.28,296.89c1.59,6.01-7.66,10.43-2.49,16.96"/>
      <path class="cls-1" d="m174.03,305.87c-.83,3.33-1.66,6.65-2.49,9.98"/>
      <path class="cls-1" d="m107.21,310.86c-3.32,5.32-6.65,10.64-9.97,15.97"/>
      <path class="cls-1" d="m256.3,194.1h-3.49"/>
      <path class="cls-1" d="m203.94,243c-1.66,1-3.32,2-4.99,2.99"/>
      <path class="cls-1" d="m207.93,52.39c-4.16,4.32-8.31,8.65-12.47,12.97"/>
      <path class="cls-1" d="m233.36,350.77c5.39,3.1-.2,12.09,7.48,13.97"/>
      <path class="cls-1" d="m183,197.09c-.29-6.13-3.74-3-5.38-1.39-3.18,3.13-5.76,6.88-8.58,10.37"/>
      <path class="cls-1" d="m252.81,415.64c3.99,2.66,7.98,5.32,11.97,7.98"/>
      <path class="cls-1" d="m86.76,386.7c-4.82,2-9.64,3.99-14.46,5.99"/>
      <path class="cls-1" d="m329.6,242l-8.98,4.49,5.98,2.99"/>
      <path class="cls-1" d="m334.59,251.98c1.83,1.16,3.66,2.33,5.49,3.49l-2.99,2.99"/>
      <path class="cls-1" d="m223.89,243.5c-3.49,2.13-6.94,4.75-10.97,1"/>
      <path class="cls-1" d="m242.84,145.2c-5.21,2.55,2.94,19.06-11.97,11.48"/>
      <path class="cls-1" d="m227.88,48.4c-.66,2.16-1.33,4.32-1.99,6.49"/>
      <path class="cls-1" d="m183.5,427.12c-1.66,3.58-3.32,7.15-4.99,10.73"/>
      <path class="cls-1" d="m24.43,295.39c-4.65-.17-9.31-.33-13.96-.5"/>
      <path class="cls-1" d="m291.71,65.36c-7.22,1.9-11.13,6.05-9.47,13.97"/>
      <path class="cls-1" d="m269.76,85.32c-1.16-1.66-2.33-3.33-3.49-4.99"/>
      <path class="cls-1" d="m239.35,313.35c.66,2.83,1.33,5.65,1.99,8.48"/>
      <path class="cls-1" d="m254.31,206.57h-10.47"/>
      <path class="cls-1" d="m229.38,129.73c4.16,1,8.31,2,12.47,2.99"/>
      <path class="cls-1" d="m158.57,238.01c4.48,2.91,8.03,5.92,1,9.98"/>
      <path class="cls-1" d="m169.54,268.44c-10.28-5.08-13.31,5.97-19.95,8.98"/>
      <path class="cls-1" d="m332.59,317.34c9.79-.49,4.13,14.5,13.96,13.97"/>
      <path class="cls-1" d="m159.07,114.26c-2.69,19.7-13.25,6.3-20.94,4.99"/>
      <path class="cls-1" d="m195.47,66.86c-2.66.25-5.4.22-7.92.96-.58.17-.39,2.95-.56,4.53"/>
      <path class="cls-1" d="m278.24,343.29c1.83-.17,3.66-.33,5.49-.5"/>
      <path class="cls-1" d="m118.18,376.72c-4.27.53-8.46,1.19-9.47,6.49"/>
      <path class="cls-1" d="m127.65,414.64c12.83-1.05.35,9.5,5.49,11.98"/>
      <path class="cls-1" d="m133.64,262.96c-8.4-4.73-11.36,2.99-15.96,6.99"/>
      <path class="cls-1" d="m59.84,349.78c-.54-5.05-1.8-5.74-5.48-2.99-1.33.99-2.66,1.99-3.99,2.99"/>
      <path class="cls-1" d="m178.51,253.48c-3.6-8.53-8.66-3.88-13.46-1.5"/>
      <path class="cls-1" d="m197.96,191.1c1.33,2.49,2.66,4.99,3.99,7.48"/>
      <path class="cls-1" d="m115.68,283.91c2.33.67,4.65,1.33,6.98,2"/>
      <path class="cls-1" d="m284.72,195.1c-1.66,2.99-3.32,5.99-4.99,8.98"/>
      <path class="cls-1" d="m230.87,375.72c-3.32-.67-6.65-1.33-9.97-2"/>
      <path class="cls-1" d="m141.12,350.77c.08-4.75-.63-8.66-6.98-6.49"/>
      <path class="cls-1" d="m239.85,325.33c-1.99,5.49-3.99,10.98-5.98,16.47"/>
      <path class="cls-1" d="m254.81,133.22c-.79,2.9,2.57,7.27-2.99,8.48"/>
      <path class="cls-1" d="m114.19,426.62c-.66-4.66-1.33-9.31-1.99-13.97-2.16,3.33-4.32,6.65-6.48,9.98"/>
      <path class="cls-1" d="m205.94,465.79c-3.43,4.08-.89,7.62,1,11.23"/>
      <path class="cls-1" d="m139.62,164.16c2.02,3.28-5.39,7.9,1.5,10.48"/>
      <path class="cls-1" d="m337.08,216.55c7.56-2.74,12.96,1.01,17.95,5.99"/>
      <path class="cls-1" d="m314.64,340.79c-1.5-2.16-2.99-4.32-4.49-6.49-1.83,2.66-3.66,5.32-5.49,7.98"/>
      <path class="cls-1" d="m293.7,348.78c-5.7-1.56-11.1,7.18-16.95.5"/>
      <path class="cls-1" d="m168.54,278.92c-.5,3.33-1,6.65-1.5,9.98"/>
      <path class="cls-1" d="m256.3,126.74c-2.83,1.16-5.65,2.33-8.48,3.49"/>
      <path class="cls-1" d="m181.51,163.66c.83,2,1.66,3.99,2.49,5.99"/>
      <path class="cls-1" d="m186.49,177.63c-2.16,3.83-4.32,7.65-6.48,11.48"/>
      <path class="cls-1" d="m233.86,423.12c-4.32-1.5-8.64-2.99-12.96-4.49"/>
      <path class="cls-1" d="m172.53,358.26c-2.16,3.83-4.32,7.65-6.48,11.48"/>
      <path class="cls-1" d="m257.3,466.04c-4.16.67-8.31,1.33-12.47,2"/>
      <path class="cls-1" d="m254.81,108.28c.83,4.99,1.66,9.98,2.49,14.97"/>
      <path class="cls-1" d="m122.67,160.17l-8.98,1.5"/>
      <path class="cls-1" d="m268.77,28.44c-5.79,4.99-10.05,10.67-8.48,18.96"/>
      <path class="cls-1" d="m211.92,155.18c2.66.5,5.32,1,7.98,1.5"/>
      <path class="cls-1" d="m199.46,428.11c-1.87-2.5-3.12-6.17-7.48-3.99"/>
      <path class="cls-1" d="m185,431.61c-1.33-2.66-2.43-5.5-4.23-7.8-.27-.35-3.75,1.81-5.74,2.81"/>
      <path class="cls-1" d="m201.45,377.72c1.03,4.65,2.12,9.27,7.48,10.98"/>
      <path class="cls-1" d="m175.02,191.1c-2.33,2.33-4.65,4.66-6.98,6.99"/>
      <path class="cls-1" d="m161.06,326.82c2.33,2.49,4.65,4.99,6.98,7.48"/>
      <path class="cls-1" d="m296.19,206.07h3.49"/>
      <path class="cls-1" d="m330.6,324.83c4.13.85,5.32,3.16,3.49,6.99"/>
      <path class="cls-1" d="m233.36,35.93c.74,3.49,2.89,7.61-3.49,7.98"/>
      <path class="cls-1" d="m107.21,400.17c-2.16,3.83-4.32,7.65-6.48,11.48"/>
      <path class="cls-1" d="m226.88,93.81l-8.98-4.49"/>
      <path class="cls-1" d="m231.37,112.77c4.37,4.28,8.89,10.31,11.97-1"/>
      <path class="cls-1" d="m269.27,426.12c-.5,2.83-1,5.65-1.5,8.48"/>
      <path class="cls-1" d="m227.38,415.14h-8.48"/>
      <path class="cls-1" d="m164.05,253.48c-6.06,9.62-17.6.06-24.43,6.99"/>
      <path class="cls-1" d="m163.55,350.27c.83,5.82,1.66,11.64,2.49,17.46"/>
      <path class="cls-1" d="m198.96,384.2c-3.16.67-6.32,1.33-9.47,2"/>
      <path class="cls-1" d="m166.55,115.26c-2.83,1.5-5.65,2.99-8.48,4.49"/>
      <path class="cls-1" d="m161.56,83.83v9.98"/>
      <path class="cls-1" d="m257.8,99.79l10.47,5.99"/>
      <path class="cls-1" d="m165.55,101.79c-2.57,1.37-7.47-1.15-7.48,4.49"/>
      <path class="cls-1" d="m284.23,401.42c4.65-.25,9.31-.5,13.96-.75"/>
      <path class="cls-1" d="m300.68,228.03c-2.66,2.16-5.32,4.32-7.98,6.49"/>
      <path class="cls-1" d="m366.5,201.08c-4.99,3.33-9.97,6.65-14.96,9.98"/>
      <path class="cls-1" d="m243.34,395.68c-5.49-.67-10.97-1.33-16.46-2"/>
      <path class="cls-1" d="m289.71,172.64c1,1.16,2.58,2.24,2.78,3.53.13.82-1.78,1.96-2.78,2.96"/>
      <path class="cls-1" d="m159.07,290.9c-3.89-.86-5.68,7.13-10.47,2.49"/>
      <path class="cls-1" d="m311.65,250.48c5.15,8.29,13.23,14.92,14.46,25.45"/>
      <path class="cls-1" d="m147.35,245.49c-.25,4.61-3.84,5.18-7.23,5.99"/>
      <path class="cls-1" d="m149.59,191.1c.17,3.83.33,7.65.5,11.48"/>
      <path class="cls-1" d="m155.08,67.36c.17-.17.33-.33.5-.5-1.33-.17-2.72-.66-3.97-.42-1.89.37-3.67,1.25-5.5,1.92.33-2.33.66-4.66,1-6.99"/>
      <path class="cls-1" d="m149.09,213.56c-1.8-3.97-4.69-2.49-7.48-1.5"/>
      <path class="cls-1" d="m274.75,410.65v3.99"/>
      <path class="cls-1" d="m279.74,153.18c.17,2.33.33,4.66.5,6.99"/>
      <path class="cls-1" d="m165.05,28.94c5.32,1.5,10.64,2.99,15.96,4.49"/>
      <path class="cls-1" d="m152.09,176.14c1.16,2.49,2.33,4.99,3.49,7.48"/>
      <path class="cls-1" d="m242.34,72.35c.33,2.33.66,4.66,1,6.99"/>
      <path class="cls-1" d="m138.12,277.92c-1.83,2-3.66,3.99-5.49,5.99"/>
      <path class="cls-1" d="m147.1,133.22c-2.66-.5-5.32-1-7.98-1.5"/>
      <path class="cls-1" d="m256.3,79.83c.66,2.66,1.33,5.32,1.99,7.98"/>
      <path class="cls-1" d="m202.45,200.58c-.66,3.16-1.33,6.32-1.99,9.48"/>
      <path class="cls-1" d="m130.15,385.7c-1.5,5.32-2.99,10.64-4.49,15.97"/>
      <path class="cls-1" d="m159.57,145.95c-2.83.58-5.65,1.16-8.48,1.75"/>
      <path class="cls-1" d="m183,142.21c.17,1.33.33,2.66.5,3.99"/>
      <path class="cls-1" d="m197.96,152.68c1.33,3.16,2.66,6.32,3.99,9.48"/>
      <path class="cls-1" d="m180.51,363.25l-1.5,7.48"/>
      <path class="cls-1" d="m144.11,80.33c4.22,5.41,9.95,5.43,15.96,4.49"/>
      <path class="cls-1" d="m188.99,224.54c-2.33.67-4.65,1.33-6.98,2"/>
      <path class="cls-1" d="m199.96,298.88c2.16,1.16,4.32,2.33,6.48,3.49"/>
      <path class="cls-1" d="m186.49,209.07c.29-5.71-2.24-6.97-6.35-3.35-1.62,1.43-1.79,4.51-2.62,6.84"/>
      <path class="cls-1" d="m238.85,197.09c-.83,2.49-1.66,4.99-2.49,7.48"/>
      <path class="cls-1" d="m234.86,212.56c.33,2.33.66,4.66,1,6.99"/>
      <path class="cls-1" d="m154.08,262.96c-3.32,2.33-6.65,4.66-9.97,6.99"/>
      <path class="cls-1" d="m238.35,412.15c4.16.5,8.31,1,12.47,1.5"/>
      <path class="cls-1" d="m280.74,47.4c1.33,1.83,2.66,3.66,3.99,5.49"/>
      <path class="cls-1" d="m224.89,241c1.83,1.16,3.66,2.33,5.49,3.49"/>
      <path class="cls-1" d="m186.49,86.32c1.69,2.61,3.39,5.21-1.99,4.99"/>
      <path class="cls-1" d="m292.7,419.63l-5.98,4.49"/>
      <path class="cls-1" d="m218.9,19.46c-18.73-7.09-7.27,15.89-17.43,17.61-1.67.28-3.02,2.51-4.51,3.84"/>
      <path class="cls-1" d="m192.97,196.09c-.38,4.25,1,9.43-5.49,10.48"/>
      <path class="cls-1" d="m35.4,316.84c.88,6.52,6.02-.57,7.98,2.49"/>
      <path class="cls-1" d="m189.48,377.22h7.48"/>
      <path class="cls-1" d="m65.32,347.78c-1.16,2.49-2.33,4.99-3.49,7.48"/>
      <path class="cls-1" d="m238.35,49.9l2.99,7.48"/>
      <path class="cls-1" d="m162.56,303.37c2.67-5.68,6.97-5.78,11.97-3.49"/>
      <path class="cls-1" d="m304.17,347.78c4.26.96,6.88,3.15,5.98,7.98"/>
      <path class="cls-1" d="m214.42,256.97c-.33,2-.66,3.99-1,5.99"/>
      <path class="cls-1" d="m252.81,473.52c-2.16.83-4.32,1.66-6.48,2.49"/>
      <path class="cls-1" d="m112.19,286.91c-7.76-2.98-7.71,4.78-10.97,7.98"/>
      <path class="cls-1" d="m270.26,130.23c-.33,2-.66,3.99-1,5.99"/>
      <path class="cls-1" d="m294.7,168.15c-1.99-.17-3.99-.33-5.98-.5"/>
      <path class="cls-1" d="m156.07,170.15c-.66,2.16-1.33,4.32-1.99,6.49"/>
      <path class="cls-1" d="m261.29,52.39c.33,2,.66,3.99,1,5.99"/>
      <path class="cls-1" d="m158.57,244.99c1.33,3.03-1,8.98,5.98,7.48"/>
      <path class="cls-1" d="m196.96,407.16c-3.13,1.8-9.53,2.17-3.49,7.98"/>
      <path class="cls-1" d="m84.27,322.83c-.5,2.33-1,4.66-1.5,6.99"/>
      <path class="cls-1" d="m60.34,346.78c4.16,1.16,8.31,2.33,12.47,3.49"/>
      <path class="cls-1" d="m182.5,217.55c-3.82-2.16-7.65-4.32-11.47-6.49"/>
      <path class="cls-1" d="m203.45,193.1c.5,5.16,1,10.31,1.5,15.47"/>
      <path class="cls-1" d="m158.07,35.43c8.03-1.52,16.34,3.47,14.96,8.98"/>
      <path class="cls-1" d="m198.46,65.86c1.99,1.33,3.99,2.66,5.98,3.99"/>
      <path class="cls-1" d="m265.28,399.67c-2.49,1.66-4.99,3.33-7.48,4.99"/>
      <path class="cls-1" d="m233.36,25.95l-5.98,4.49"/>
      <path class="cls-1" d="m99.73,410.65c-1.33,2.16-2.66,4.32-3.99,6.49"/>
      <path class="cls-1" d="m136.13,155.18c-7.08-.99-13.09-.43-12.96,8.98"/>
      <path class="cls-1" d="m254.31,131.73c-2.16.67-4.32,1.33-6.48,2"/>
      <path class="cls-1" d="m126.16,392.69c-15.42-.56-6.52,14.68-12.96,19.96"/>
      <path class="cls-1" d="m143.61,345.29c-.17,2.16-.33,4.32-.5,6.49"/>
      <path class="cls-1" d="m193.97,81.33l7.48,7.48"/>
      <path class="cls-1" d="m289.21,144.2c-4.32-1.5-8.64-2.99-12.96-4.49"/>
      <path class="cls-1" d="m224.39,328.32v11.98"/>
      <path class="cls-1" d="m72.3,343.79c.33,2.16.66,4.32,1,6.49"/>
      <path class="cls-1" d="m139.62,118.26c-2.16-.67-4.32-1.33-6.48-2"/>
      <path class="cls-1" d="m285.22,85.82c-2.16.83-4.32,1.66-6.48,2.49"/>
      <path class="cls-1" d="m165.05,349.28c2.66,2.33,5.32,4.66,7.98,6.99"/>
      <path class="cls-1" d="m358.52,212.56c-4.32.57-10.21-4.47-12.47,3.49"/>
      <path class="cls-1" d="m117.18,325.33c.33,4.49.66,8.98,1,13.47"/>
      <path class="cls-1" d="m248.82,138.21c-2.14,12.23-7.32-6.02-9.97,1"/>
      <path class="cls-1" d="m131.64,165.66c-2.16,1.16-4.32,2.33-6.48,3.49"/>
      <path class="cls-1" d="m223.89,167.15l-7.48,10.48"/>
      <path class="cls-1" d="m264.78,23.45c-1.99,1.5-3.99,2.99-5.98,4.49.33-.5.66-1,1-1.5"/>
      <path class="cls-1" d="m150.09,342.79c-3.16.67-6.32,1.33-9.47,2"/>
      <path class="cls-1" d="m144.61,154.68v6.49"/>
      <path class="cls-1" d="m151.09,76.34c-1.24,4.68,3.2,2.07,4.49,3.49"/>
      <path class="cls-1" d="m186.99,175.64c2.07,1.04,6.9-2.67,5.98,3.49"/>
      <path class="cls-1" d="m233.36,194.1l-5.98,4.49"/>
      <path class="cls-1" d="m354.53,315.85c-4.24-2.06-8.43-2.65-12.47.5,3.99,3.16,7.98,6.32,11.97,9.48"/>
      <path class="cls-1" d="m300.68,128.23c-1.99.33-3.99.67-5.98,1"/>
      <path class="cls-1" d="m133.64,165.66c-2.16,2.83-4.32,5.65-6.48,8.48"/>
      <path class="cls-1" d="m213.92,110.77c-1.99-.33-3.99-.67-5.98-1"/>
      <path class="cls-1" d="m141.61,90.31h6.48"/>
      <path class="cls-1" d="m257.3,319.34c-11.44,8.16-12.23,9.64-6.98,12.97"/>
      <path class="cls-1" d="m212.42,189.61l-7.48,1.5"/>
      <path class="cls-1" d="m172.53,51.89q-13.21.73-11.47,3.49"/>
      <path class="cls-1" d="m265.78,154.18c-2.16.5-4.32,1-6.48,1.5"/>
      <path class="cls-1" d="m105.21,275.93c-2.99,1.66-5.98,3.33-8.98,4.99"/>
      <path class="cls-1" d="m194.47,84.33c-1.5.95-4.84,1.22-1.5,3.99"/>
      <path class="cls-1" d="m198.96,179.13c2.99-.36,5.98,11.15,8.98,0"/>
      <path class="cls-1" d="m192.48,24.45c-3.73,1.57-3.11-9.2-8.48-2.99"/>
      <path class="cls-1" d="m155.58,349.78c1.16,1.33,2.33,2.66,3.49,3.99"/>
      <path class="cls-1" d="m113.19,395.18c-1.99.83-3.99,1.66-5.98,2.49.66.67,1.33,1.33,1.99,2"/>
      <path class="cls-1" d="m266.77,88.32c-1.5.67-2.99,1.33-4.49,2"/>
      <path class="cls-1" d="m135.13,132.23c1.66-7.77-3.79-6.03-7.98-5.99"/>
      <path class="cls-1" d="m134.13,57.88c-3.33-2.2-3.53-.02-3.49,2.49"/>
      <path class="cls-1" d="m325.11,220.54h-5.98"/>
      <path class="cls-1" d="m156.57,346.28l5.98,2.99"/>
      <path class="cls-1" d="m281.73,81.83c11.8,5.64,3.82,14.05,2.99,21.46"/>
      <path class="cls-1" d="m151.59,244.99c.66,3.83,1.33,7.65,1.99,11.48"/>
      <path class="cls-1" d="m154.08,425.62c-1.66,4.32-3.32,8.65-4.99,12.97"/>
      <path class="cls-1" d="m169.04,95.3l5.98,1.5"/>
      <path class="cls-1" d="m232.37,310.86c1,1.83,1.99,3.66,2.99,5.49"/>
      <path class="cls-1" d="m244.33,193.1c.17,2,.33,3.99.5,5.99"/>
      <path class="cls-1" d="m264.28,46.4l-10.47,4.49"/>
      <path class="cls-1" d="m267.77,39.42c-1.66-1.16-3.32-2.33-4.99-3.49"/>
      <path class="cls-1" d="m285.72,412.65c-3.49.83-6.98,1.66-10.47,2.49"/>
      <path class="cls-1" d="m206.44,157.67c.5,1.66,1,3.33,1.5,4.99"/>
      <path class="cls-1" d="m274.25,415.64c-7.15-1.16-14.29-2.33-21.44-3.49"/>
      <path class="cls-1" d="m52.36,316.84c-9.31.14-4.74,6.24-4.49,10.48"/>
      <path class="cls-1" d="m53.35,241c-3.16.33-6.32.67-9.47,1"/>
      <path class="cls-1" d="m199.96,45.9c4.24,0,6.88-7.12,11.76-2.76.52.46-1.79,4.1-2.79,6.26"/>
      <path class="cls-1" d="m259.29,320.34l-2.99,5.99"/>
      <path class="cls-1" d="m296.19,341.79c.33,2,.66,3.99,1,5.99"/>
      <path class="cls-1" d="m176.52,160.17l-4.49,7.48"/>
      <path class="cls-1" d="m69.31,283.91c.5,1.83,1,3.66,1.5,5.49"/>
      <path class="cls-1" d="m159.57,39.92c-2.23,4.37.37,5.52,3.99,5.99"/>
      <path class="cls-1" d="m214.42,81.83c-1.83.33-3.66.67-5.49,1"/>
      <path class="cls-1" d="m265.78,157.67c1.83.33,3.66.67,5.49,1"/>
      <path class="cls-1" d="m148.1,107.28c1.83-.33,3.66-.67,5.49-1"/>
      <path class="cls-1" d="m150.09,44.91c2.83,1,5.65,2,8.48,2.99"/>
      <path class="cls-1" d="m168.54,78.84c1.83.33,3.66.67,5.49,1"/>
      <path class="cls-1" d="m120.17,412.65c-1.83.67-3.66,1.33-5.49,2"/>
      <path class="cls-1" d="m139.12,261.96c-1.83-.33-3.66-.67-5.49-1"/>
      <path class="cls-1" d="m252.81,33.43c-2.99,1.83-5.98,3.66-8.98,5.49-.33-1.16-.99-2.37-.84-3.47.06-.46,1.84-.69,2.84-1.02"/>
      <path class="cls-1" d="m177.52,362.25c-.17,1.83-.33,3.66-.5,5.49"/>
      <path class="cls-1" d="m152.09,48.4c.17,3.49.33,6.99.5,10.48"/>
      <path class="cls-1" d="m218.4,326.82c1.83.17,3.66.33,5.49.5"/>
      <path class="cls-1" d="m272.76,51.39c.17,1.66.33,3.33.5,4.99"/>
      <path class="cls-1" d="m255.8,327.32c-1.5,1.33-2.99,2.66-4.49,3.99"/>
      <path class="cls-1" d="m115.19,386.7c-3.24-8.1-8.49.52-12.47-1.5"/>
      <path class="cls-1" d="m277.74,383.71c-1.83.5-3.66,1-5.49,1.5"/>
      <path class="cls-1" d="m133.14,128.73l-11.97,1.5"/>
      <path class="cls-1" d="m217.91,404.66c2.33-.33,4.65-.67,6.98-1"/>
      <path class="cls-1" d="m204.94,392.69c6.52.39,3.49,5.26,3.99,8.48"/>
      <path class="cls-1" d="m77.79,276.43c1.5,3.16,2.99,6.32,4.49,9.48"/>
      <path class="cls-1" d="m49.37,349.28c-1.66,1.16-3.32,2.33-4.99,3.49"/>
      <path class="cls-1" d="m222.39,305.37c-.33,1.83-.66,3.66-1,5.49"/>
      <path class="cls-1" d="m193.47,64.37c-1.5-.67-2.99-1.33-4.49-2"/>
      <path class="cls-1" d="m64.82,250.48c3.16.83,6.32,1.66,9.47,2.49"/>
      <path class="cls-1" d="m198.96,394.68c-3.36,5.46-2.79,9.55,3.99,11.48"/>
      <path class="cls-1" d="m54.35,271.94c3.62,1.77,9.47-.37,10.47,5.99"/>
      <path class="cls-1" d="m310.65,269.44c-4.65.17-9.31.33-13.96.5"/>
      <path class="cls-1" d="m59.34,294.39c-4.32-5.05-9.24-1.6-13.96-1"/>
      <path class="cls-1" d="m198.96,31.43c-1.99,2.99-3.99,5.99-5.98,8.98"/>
      <path class="cls-1" d="m241.34,354.77c-.5,1.66-1,3.33-1.5,4.99"/>
      <path class="cls-1" d="m117.18,343.29c-.66,2.49-1.33,4.99-1.99,7.48"/>
      <path class="cls-1" d="m187.99,429.11c2.16,1.83,4.32,3.66,6.48,5.49"/>
      <path class="cls-1" d="m328.6,308.86c-1.66.17-3.32.33-4.99.5"/>
      <path class="cls-1" d="m125.16,145.2c-1.66,1.66-3.32,3.33-4.99,4.99"/>
      <path class="cls-1" d="m163.06,207.07c-.17,2.49-.33,4.99-.5,7.48"/>
      <path class="cls-1" d="m152.58,312.35c-.83,1.5-1.66,2.99-2.49,4.49"/>
      <path class="cls-1" d="m294.7,207.57c2.33,1,4.65,2,6.98,2.99"/>
      <path class="cls-1" d="m160.06,131.73c-2.33,1-4.65,2-6.98,2.99"/>
      <path class="cls-1" d="m258.3,411.65c-1.33,1.16-2.66,2.33-3.99,3.49"/>
      <path class="cls-1" d="m220.9,80.83c-1.5,1.83-2.99,3.66-4.49,5.49"/>
      <path class="cls-1" d="m88.26,294.39c1.66.17,3.32.33,4.99.5"/>
      <path class="cls-1" d="m175.02,285.91c.17,1.66.33,3.33.5,4.99"/>
      <path class="cls-1" d="m200.95,37.42c-2.99-.33-5.98-.67-8.98-1"/>
      <path class="cls-1" d="m111.2,298.38c-3.66,2-7.31,3.99-10.97,5.99"/>
      <path class="cls-1" d="m274.25,41.41c-.52,4.11-2.05,7.23-6.98,6.46-3.08-.48-3.34-1.96-1-3.96"/>
      <path class="cls-1" d="m229.38,133.72c3.96,1.67,5.93,4.17,3.49,8.48"/>
      <path class="cls-1" d="m167.04,237.01l4.49,1.5c-.83,2.16-1.66,4.32-2.49,6.49"/>
      <path class="cls-1" d="m328.11,320.84c-1.16,1-2.33,2-3.49,2.99"/>
      <path class="cls-1" d="m72.3,263.95c-2.47-6.05-7.51-.79-10.97-2.49"/>
      <path class="cls-1" d="m116.68,280.92c-.83,2.66-1.66,5.32-2.49,7.98"/>
      <path class="cls-1" d="m207.93,78.34l-1.5,7.48"/>
      <path class="cls-1" d="m122.17,417.64v9.98"/>
      <path class="cls-1" d="m103.22,266.95c10.88-4.19-3.83-5.46-1-8.73"/>
      <path class="cls-1" d="m188.49,142.21c-1.52-4.79-5.11-5.62-9.47-4.99"/>
      <path class="cls-1" d="m235.86,365.24c-2.99.67-5.98,1.33-8.98,2"/>
      <path class="cls-1" d="m142.11,142.21c-3.82.83-7.65,1.66-11.47,2.49"/>
      <path class="cls-1" d="m137.62,190.61c-.33,1.5-.66,2.99-1,4.49"/>
      <path class="cls-1" d="m227.38,36.42c-1.5,4.16-2.99,8.32-4.49,12.47"/>
      <path class="cls-1" d="m176.52,75.34c.17,3.66.33,7.32.5,10.98"/>
      <path class="cls-1" d="m225.88,363.75c-1.5.17-2.99.33-4.49.5"/>
      <path class="cls-1" d="m220.9,100.29c-.17,1.5-.33,2.99-.5,4.49"/>
      <path class="cls-1" d="m163.55,168.15c-1.16,1.5-2.33,2.99-3.49,4.49-.33-1.16-.66-2.33-1-3.49"/>
      <path class="cls-1" d="m162.06,263.95c-1.33,1.33-2.66,2.66-3.99,3.99"/>
      <path class="cls-1" d="m190.98,91.31c-1,4.16-1.99,8.32-2.99,12.47"/>
      <path class="cls-1" d="m125.16,381.71c-4.16.5-8.31,1-12.47,1.5"/>
      <path class="cls-1" d="m262.29,84.82c-.17,1.66-.33,3.33-.5,4.99"/>
      <path class="cls-1" d="m281.23,72.35c-1.33.5-2.66,1-3.99,1.5"/>
      <path class="cls-1" d="m177.52,407.16l-1.5,7.48"/>
      <path class="cls-1" d="m180.51,82.83c-1.66,3.99-3.32,7.98-4.99,11.98"/>
      <path class="cls-1" d="m272.26,381.71c.77,2.61-4.36,6.33,1.5,7.98"/>
      <path class="cls-1" d="m157.07,86.32c-.33,1.33-.66,2.66-1,3.99"/>
      <path class="cls-1" d="m220.9,30.44c-4.65-.17-9.31-.33-13.96-.5"/>
      <path class="cls-1" d="m337.08,220.54c1.16.83,2.33,1.66,3.49,2.49"/>
      <path class="cls-1" d="m115.19,150.19c1.66,1.4,4.29,2.6,1,4.99"/>
      <path class="cls-1" d="m291.21,387.7h4.49"/>
      <path class="cls-1" d="m192.48,56.38c-1.16,1-2.33,2-3.49,2.99"/>
      <path class="cls-1" d="m181.01,57.38c-4.99.17-9.97.33-14.96.54-.01,0-.13.72.03.93.2.27.63.36.97.52"/>
      <path class="cls-1" d="m174.03,85.32c-.33,3.33-.66,6.65-1,9.98"/>
      <path class="cls-1" d="m165.55,178.63c.17,3.49.33,6.99.5,10.48"/>
      <path class="cls-1" d="m122.67,154.18h-4.49"/>
      <path class="cls-1" d="m354.53,224.54c.66.83,1.33,1.66,1.99,2.49"/>
      <path class="cls-1" d="m201.45,472.02c-.83,1.16-1.66,2.33-2.49,3.49"/>
      <path class="cls-1" d="m54.85,307.36c-.83.83-1.66,1.66-2.49,2.49"/>
      <path class="cls-1" d="m172.03,440.09c2.17,3.64,4.03,3.82,5.49-.5"/>
      <path class="cls-1" d="m205.94,149.19c.5,1.16,1,2.33,1.5,3.49"/>
      <path class="cls-1" d="m191.98,40.42c.83,1.5,1.66,2.99,2.49,4.49"/>
      <path class="cls-1" d="m115.19,155.68l-1.5,5.99"/>
      <path class="cls-1" d="m146.1,412.65c-1.33-.33-2.66-.67-3.99-1"/>
      <path class="cls-1" d="m348.05,313.35l-2.49-2.49"/>
      <path class="cls-1" d="m232.87,55.39c-2.16-.17-4.32-.33-6.48-.5"/>
      <path class="cls-1" d="m336.58,205.08l-1.5,2.99"/>
      <path class="cls-1" d="m147.1,55.39c-2.16.5-4.32,1-6.48,1.5"/>
      <path class="cls-1" d="m168.04,63.37c1.74,1.93,2.88,5.41,6.48,2.49"/>
      <path class="cls-1" d="m9.97,297.88c-1.16,2-2.33,3.99-3.49,5.99"/>
      <path class="cls-1" d="m295.69,389.69c-3.57,2.15-5,.03-5.98-2.99"/>
      <path class="cls-1" d="m156.57,74.85c-.83,3.16-1.66,6.32-2.49,9.48"/>
      <path class="cls-1" d="m255.8,138.71c1.33.17,2.66.33,3.99.5"/>
      <path class="cls-1" d="m254.31,137.71h-3.99"/>
      <path class="cls-1" d="m113.69,162.66c.37,2.7-.09,4.56-3.49,3.49"/>
      <path class="cls-1" d="m231.37,321.83c-.17,1.33-.33,2.66-.5,3.99"/>
      <path class="cls-1" d="m154.08,191.1c1.16.5,2.33,1,3.49,1.5.17-.83.33-1.66.5-2.49"/>
      <path class="cls-1" d="m123.16,377.72c-1.33-.17-2.66-.33-3.99-.5"/>
      <path class="cls-1" d="m91.25,323.83c-1.33.83-2.66,1.66-3.99,2.49"/>
      <path class="cls-1" d="m283.73,93.31c2.66-.33,5.32-.67,7.98-1"/>
      <path class="cls-1" d="m162.06,176.63c-1.33-.17-2.66-.33-3.99-.5"/>
      <path class="cls-1" d="m77.79,331.31c-1.16-.08-2.33-.17-3.49-.25"/>
      <path class="cls-1" d="m228.88,174.14c1.33.33,2.66.67,3.99,1-.66,1.16-1.33,2.33-1.99,3.49"/>
      <path class="cls-1" d="m153.08,119.25c1.33.33,2.66.67,3.99,1"/>
      <path class="cls-1" d="m163.06,334.81c1.33.17,2.66.33,3.99.5"/>
      <path class="cls-1" d="m142.11,99.29c-.83,1.33-1.66,2.66-2.49,3.99"/>
      <path class="cls-1" d="m152.58,159.67c3.68,4.37,2.43,8.1-1.5,11.48"/>
      <path class="cls-1" d="m146.6,102.79c-2.62,3.93-5.82,4.13-9.47,1.5"/>
      <path class="cls-1" d="m222.89,338.8l2.99,5.99"/>
      <path class="cls-1" d="m163.55,219.55c-1.16,2.83-2.33,5.65-3.49,8.48"/>
      <path class="cls-1" d="m155.58,107.28c-.28,2.05-6.08,2.72-1.5,5.99"/>
      <path class="cls-1" d="m230.87,340.79c-.17,1.16-.33,2.33-.5,3.49"/>
      <path class="cls-1" d="m153.08,71.35c-.33.83-.66,1.66-1,2.49,1.83-.17,3.66-.33,5.49-.5"/>
      <path class="cls-1" d="m206.94,21.46c-1,.67-1.99,1.33-2.99,2"/>
      <path class="cls-1" d="m86.26,281.92c-1.16.5-2.33,1-3.49,1.5"/>
      <path class="cls-1" d="m192.97,21.46v6.99"/>
      <path class="cls-1" d="m50.36,300.88c-.83,2.66-1.66,5.32-2.49,7.98"/>
      <path class="cls-1" d="m237.35,331.31c1.83.5,3.66,1,5.49,1.5"/>
      <path class="cls-1" d="m136.63,233.52c-1.16.17-2.33.33-3.49.5"/>
      <path class="cls-1" d="m298.69,328.82c1.61,4.96,4.6,5.24,8.48,2.49"/>
      <path class="cls-1" d="m298.19,276.93h3.49"/>
      <path class="cls-1" d="m162.56,40.92c-1,.67-1.99,1.33-2.99,2"/>
      <path class="cls-1" d="m192.48,93.81c2.16-.33,4.32-.67,6.48-1"/>
      <path class="cls-1" d="m189.98,237.51c.33,2.16.66,4.32,1,6.49"/>
      <path class="cls-1" d="m119.18,416.64c.33,2.33.66,4.66,1,6.99"/>
      <path class="cls-1" d="m87.76,272.93c-1.16,1-2.33,2-3.49,2.99"/>
      <path class="cls-1" d="m138.62,86.82c.41,3.27,7.22,4.86,2.49,9.48"/>
      <path class="cls-1" d="m243.84,45.9c-3.32,2.16-6.65,4.32-9.97,6.49"/>
      <path class="cls-1" d="m320.63,210.07c2.49,1.16,4.99,2.33,7.48,3.49"/>
      <path class="cls-1" d="m303.17,325.33c-.66,1.83-1.33,3.66-1.99,5.49"/>
      <path class="cls-1" d="m273.26,46.9c1.16.5,2.33,1,3.49,1.5"/>
      <path class="cls-1" d="m291.71,50.4c-2.83,1.5-5.65,2.99-8.48,4.49"/>
      <path class="cls-1" d="m291.71,183.12c.33,1.66.66,3.33,1,4.99"/>
      <path class="cls-1" d="m219.4,405.16c.05,4.49,3.35,3.42,5.98,3.49l-.5-1"/>
      <path class="cls-1" d="m311.15,322.33c-.66,1-1.33,2-1.99,2.99"/>
      <path class="cls-1" d="m328.11,258.46c.17.83.33,1.66.5,2.49"/>
      <path class="cls-1" d="m57.34,252.98c-.5,1.16-1,2.33-1.5,3.49"/>
      <path class="cls-1" d="m175.02,252.98c-.5,1.08-1,2.16-1.5,3.24"/>
      <path class="cls-1" d="m95.24,296.89c-.66,1.16-1.33,2.33-1.99,3.49"/>
      <path class="cls-1" d="m326.61,254.97c3.21,3.24-.98,3.79-1.99,5.49"/>
      <path class="cls-1" d="m348.55,197.09c-1.16,1.83-2.33,3.66-3.49,5.49"/>
      <path class="cls-1" d="m305.67,139.21c-1.33,2.66-2.66,5.32-3.99,7.98"/>
      <path class="cls-1" d="m75.79,297.38c-.5,1.16-1,2.33-1.5,3.49"/>
      <path class="cls-1" d="m331.6,200.09c.83,1.66,1.66,3.33,2.49,4.99"/>
      <path class="cls-1" d="m132.14,376.72c-1.33.83-2.66,1.66-3.99,2.49"/>
      <path class="cls-1" d="m191.98,74.35c-1.83,1.5-3.66,2.99-5.49,4.49"/>
      <path class="cls-1" d="m244.33,157.67c1.66,1,3.32,2,4.99,2.99"/>
      <path class="cls-1" d="m115.19,404.66c-2.16.83-4.32,1.66-6.48,2.49"/>
      <path class="cls-1" d="m228.88,145.2c5.38.1,5.18,2.52,2.49,5.99"/>
      <path class="cls-1" d="m159.57,46.4c.66,1.33,1.33,2.66,1.99,3.99"/>
      <path class="cls-1" d="m260.79,89.32c-1.99.83-3.99,1.66-5.98,2.49"/>
      <path class="cls-1" d="m255.8,35.43l4.49,2.99"/>
      <path class="cls-1" d="m284.72,96.3h5.98"/>
      <path class="cls-1" d="m233.86,173.14c1.33.17,2.66.33,3.99.5"/>
      <path class="cls-1" d="m171.03,436.1c5.77,4.17-2.39,3.27-1.99,5.49"/>
      <path class="cls-1" d="m241.34,152.68c1.5-.17,2.99-.33,4.49-.5"/>
      <path class="cls-1" d="m156.07,306.86c1.33.17,2.66.33,3.99.5l-1.5,4.49"/>
      <path class="cls-1" d="m188.99,23.95c-.33,1.83-.66,3.66-1,5.49"/>
      <path class="cls-1" d="m137.13,298.38c-2.49.33-4.99.67-7.48,1"/>
      <path class="cls-1" d="m225.88,423.62c-1.16.5-2.33,1-3.49,1.5"/>
      <path class="cls-1" d="m178.51,419.13c4.8-.73,7.82.18,5.49,5.99"/>
      <path class="cls-1" d="m228.38,160.17c.66,1.83,1.33,3.66,1.99,5.49"/>
      <path class="cls-1" d="m75.29,335.31c-1,2.16-1.99,4.32-2.99,6.49"/>
      <path class="cls-1" d="m55.35,256.97c.33,1.66.66,3.33,1,4.99"/>
      <path class="cls-1" d="m284.72,392.19l5.98-1.5"/>
      <path class="cls-1" d="m102.22,386.7h-5.49"/>
      <path class="cls-1" d="m133.14,68.86c-2.16.33-4.32.67-6.48,1"/>
      <path class="cls-1" d="m176.52,77.84l-1.99,1"/>
      <path class="cls-1" d="m213.92,84.33c1.16,1.33,2.33,2.66,3.49,3.99"/>
      <path class="cls-1" d="m153.08,174.14c-1.16,1-2.33,2-3.49,2.99"/>
      <path class="cls-1" d="m290.71,142.21c-.33,1.33-.66,2.66-1,3.99"/>
      <path class="cls-1" d="m175.02,217.05c-.83.83-1.66,1.66-2.49,2.49"/>
      <path class="cls-1" d="m222.39,18.46c1.16.17,2.33.33,3.49.5"/>
      <path class="cls-1" d="m220.9,15.47c.33,1.66.66,3.33,1,4.99"/>
      <path class="cls-1" d="m171.03,23.45c-.5,1.16-1,2.33-1.5,3.49"/>
      <path class="cls-1" d="m132.14,195.1h2.49"/>
      <path class="cls-1" d="m231.37,165.16c.66,1,1.33,2,1.99,2.99"/>
      <path class="cls-1" d="m238.35,120.75c-.33.5-.66,1-1,1.5"/>
      <path class="cls-1" d="m124.66,170.15c.17,1,.33,2,.5,2.99"/>
      <path class="cls-1" d="m300.18,273.43c-.5.33-1,.67-1.5,1"/>
    </g>
  </g>
</svg>