%TF.GenerationSoftware,KiCad,Pcbnew,7.0.8*%
%TF.CreationDate,2024-02-26T10:50:34-05:00*%
%TF.ProjectId,lichen-bifocals-panel,6c696368-656e-42d6-9269-666f63616c73,rev?*%
%TF.SameCoordinates,Original*%
%TF.FileFunction,Drillmap*%
%TF.FilePolarity,Positive*%
%FSLAX45Y45*%
G04 Gerber Fmt 4.5, Leading zero omitted, Abs format (unit mm)*
G04 Created by KiCad (PCBNEW 7.0.8) date 2024-02-26 10:50:34*
%MOMM*%
%LPD*%
G01*
G04 APERTURE LIST*
%ADD10C,0.100000*%
%ADD11C,0.200000*%
%ADD12C,0.320000*%
%ADD13C,0.500000*%
%ADD14C,0.640000*%
%ADD15C,0.720000*%
G04 APERTURE END LIST*
D10*
X10000000Y-10000000D02*
X14030000Y-10000000D01*
X14030000Y-22850000D01*
X10000000Y-22850000D01*
X10000000Y-10000000D01*
D11*
D12*
X10590000Y-10140000D02*
X10910000Y-10460000D01*
X10910000Y-10140000D02*
X10590000Y-10460000D01*
D11*
X10710000Y-10460000D02*
X10790000Y-10460000D01*
X10790000Y-10460000D02*
G75*
G03*
X10790000Y-10140000I0J160000D01*
G01*
X10790000Y-10140000D02*
X10710000Y-10140000D01*
X10710000Y-10140000D02*
G75*
G03*
X10710000Y-10460000I0J-160000D01*
G01*
D12*
X10590000Y-22390000D02*
X10910000Y-22710000D01*
X10910000Y-22390000D02*
X10590000Y-22710000D01*
D11*
X10710000Y-22710000D02*
X10790000Y-22710000D01*
X10790000Y-22710000D02*
G75*
G03*
X10790000Y-22390000I0J160000D01*
G01*
X10790000Y-22390000D02*
X10710000Y-22390000D01*
X10710000Y-22390000D02*
G75*
G03*
X10710000Y-22710000I0J-160000D01*
G01*
D12*
X11855000Y-16468400D02*
X12175000Y-16788400D01*
X12175000Y-16468400D02*
X11855000Y-16788400D01*
X13130000Y-10140000D02*
X13450000Y-10460000D01*
X13450000Y-10140000D02*
X13130000Y-10460000D01*
D11*
X13330000Y-10140000D02*
X13250000Y-10140000D01*
X13250000Y-10140000D02*
G75*
G03*
X13250000Y-10460000I0J-160000D01*
G01*
X13250000Y-10460000D02*
X13330000Y-10460000D01*
X13330000Y-10460000D02*
G75*
G03*
X13330000Y-10140000I0J160000D01*
G01*
D12*
X13130000Y-22390000D02*
X13450000Y-22710000D01*
X13450000Y-22390000D02*
X13130000Y-22710000D01*
D11*
X13330000Y-22390000D02*
X13250000Y-22390000D01*
X13250000Y-22390000D02*
G75*
G03*
X13250000Y-22710000I0J-160000D01*
G01*
X13250000Y-22710000D02*
X13330000Y-22710000D01*
X13330000Y-22710000D02*
G75*
G03*
X13330000Y-22390000I0J160000D01*
G01*
D13*
X11131600Y-14517000D02*
G75*
G03*
X11131600Y-14517000I-250000J0D01*
G01*
D14*
X10629700Y-17952300D02*
X10629700Y-18592300D01*
X10309700Y-18272300D02*
X10949700Y-18272300D01*
X10629700Y-19337700D02*
X10629700Y-19977700D01*
X10309700Y-19657700D02*
X10949700Y-19657700D01*
X10629700Y-20722900D02*
X10629700Y-21362900D01*
X10309700Y-21042900D02*
X10949700Y-21042900D01*
X12015000Y-17952300D02*
X12015000Y-18592300D01*
X11695000Y-18272300D02*
X12335000Y-18272300D01*
X12015000Y-19337700D02*
X12015000Y-19977700D01*
X11695000Y-19657700D02*
X12335000Y-19657700D01*
X12015000Y-20722900D02*
X12015000Y-21362900D01*
X11695000Y-21042900D02*
X12335000Y-21042900D01*
X13400400Y-17952300D02*
X13400400Y-18592300D01*
X13080400Y-18272300D02*
X13720400Y-18272300D01*
X13400400Y-19337700D02*
X13400400Y-19977700D01*
X13080400Y-19657700D02*
X13720400Y-19657700D01*
X13400400Y-20722900D02*
X13400400Y-21362900D01*
X13080400Y-21042900D02*
X13720400Y-21042900D01*
D15*
X11136161Y-16882961D02*
X11136161Y-16373839D01*
X10627039Y-16373839D01*
X10627039Y-16882961D01*
X11136161Y-16882961D01*
X11631761Y-12672161D02*
X11631761Y-12163039D01*
X11122639Y-12163039D01*
X11122639Y-12672161D01*
X11631761Y-12672161D01*
X12269561Y-15474861D02*
X12269561Y-14965739D01*
X11760439Y-14965739D01*
X11760439Y-15474861D01*
X12269561Y-15474861D01*
X13413261Y-14060261D02*
X13413261Y-13551139D01*
X12904139Y-13551139D01*
X12904139Y-14060261D01*
X13413261Y-14060261D01*
X13413261Y-16882961D02*
X13413261Y-16373839D01*
X12904139Y-16373839D01*
X12904139Y-16882961D01*
X13413261Y-16882961D01*
D11*
X10255777Y-23166484D02*
X10255777Y-22966484D01*
X10255777Y-22966484D02*
X10303396Y-22966484D01*
X10303396Y-22966484D02*
X10331967Y-22976008D01*
X10331967Y-22976008D02*
X10351015Y-22995055D01*
X10351015Y-22995055D02*
X10360539Y-23014103D01*
X10360539Y-23014103D02*
X10370063Y-23052198D01*
X10370063Y-23052198D02*
X10370063Y-23080769D01*
X10370063Y-23080769D02*
X10360539Y-23118865D01*
X10360539Y-23118865D02*
X10351015Y-23137912D01*
X10351015Y-23137912D02*
X10331967Y-23156960D01*
X10331967Y-23156960D02*
X10303396Y-23166484D01*
X10303396Y-23166484D02*
X10255777Y-23166484D01*
X10455777Y-23166484D02*
X10455777Y-23033150D01*
X10455777Y-23071246D02*
X10465301Y-23052198D01*
X10465301Y-23052198D02*
X10474824Y-23042674D01*
X10474824Y-23042674D02*
X10493872Y-23033150D01*
X10493872Y-23033150D02*
X10512920Y-23033150D01*
X10579586Y-23166484D02*
X10579586Y-23033150D01*
X10579586Y-22966484D02*
X10570063Y-22976008D01*
X10570063Y-22976008D02*
X10579586Y-22985531D01*
X10579586Y-22985531D02*
X10589110Y-22976008D01*
X10589110Y-22976008D02*
X10579586Y-22966484D01*
X10579586Y-22966484D02*
X10579586Y-22985531D01*
X10703396Y-23166484D02*
X10684348Y-23156960D01*
X10684348Y-23156960D02*
X10674824Y-23137912D01*
X10674824Y-23137912D02*
X10674824Y-22966484D01*
X10808158Y-23166484D02*
X10789110Y-23156960D01*
X10789110Y-23156960D02*
X10779586Y-23137912D01*
X10779586Y-23137912D02*
X10779586Y-22966484D01*
X11036729Y-23166484D02*
X11036729Y-22966484D01*
X11036729Y-22966484D02*
X11103396Y-23109341D01*
X11103396Y-23109341D02*
X11170063Y-22966484D01*
X11170063Y-22966484D02*
X11170063Y-23166484D01*
X11351015Y-23166484D02*
X11351015Y-23061722D01*
X11351015Y-23061722D02*
X11341491Y-23042674D01*
X11341491Y-23042674D02*
X11322443Y-23033150D01*
X11322443Y-23033150D02*
X11284348Y-23033150D01*
X11284348Y-23033150D02*
X11265301Y-23042674D01*
X11351015Y-23156960D02*
X11331967Y-23166484D01*
X11331967Y-23166484D02*
X11284348Y-23166484D01*
X11284348Y-23166484D02*
X11265301Y-23156960D01*
X11265301Y-23156960D02*
X11255777Y-23137912D01*
X11255777Y-23137912D02*
X11255777Y-23118865D01*
X11255777Y-23118865D02*
X11265301Y-23099817D01*
X11265301Y-23099817D02*
X11284348Y-23090293D01*
X11284348Y-23090293D02*
X11331967Y-23090293D01*
X11331967Y-23090293D02*
X11351015Y-23080769D01*
X11446253Y-23033150D02*
X11446253Y-23233150D01*
X11446253Y-23042674D02*
X11465301Y-23033150D01*
X11465301Y-23033150D02*
X11503396Y-23033150D01*
X11503396Y-23033150D02*
X11522443Y-23042674D01*
X11522443Y-23042674D02*
X11531967Y-23052198D01*
X11531967Y-23052198D02*
X11541491Y-23071246D01*
X11541491Y-23071246D02*
X11541491Y-23128388D01*
X11541491Y-23128388D02*
X11531967Y-23147436D01*
X11531967Y-23147436D02*
X11522443Y-23156960D01*
X11522443Y-23156960D02*
X11503396Y-23166484D01*
X11503396Y-23166484D02*
X11465301Y-23166484D01*
X11465301Y-23166484D02*
X11446253Y-23156960D01*
X11627205Y-23147436D02*
X11636729Y-23156960D01*
X11636729Y-23156960D02*
X11627205Y-23166484D01*
X11627205Y-23166484D02*
X11617682Y-23156960D01*
X11617682Y-23156960D02*
X11627205Y-23147436D01*
X11627205Y-23147436D02*
X11627205Y-23166484D01*
X11627205Y-23042674D02*
X11636729Y-23052198D01*
X11636729Y-23052198D02*
X11627205Y-23061722D01*
X11627205Y-23061722D02*
X11617682Y-23052198D01*
X11617682Y-23052198D02*
X11627205Y-23042674D01*
X11627205Y-23042674D02*
X11627205Y-23061722D01*
X9795000Y-23395000D02*
X9995000Y-23595000D01*
X9995000Y-23395000D02*
X9795000Y-23595000D01*
X10236729Y-23386484D02*
X10360539Y-23386484D01*
X10360539Y-23386484D02*
X10293872Y-23462674D01*
X10293872Y-23462674D02*
X10322444Y-23462674D01*
X10322444Y-23462674D02*
X10341491Y-23472198D01*
X10341491Y-23472198D02*
X10351015Y-23481722D01*
X10351015Y-23481722D02*
X10360539Y-23500769D01*
X10360539Y-23500769D02*
X10360539Y-23548388D01*
X10360539Y-23548388D02*
X10351015Y-23567436D01*
X10351015Y-23567436D02*
X10341491Y-23576960D01*
X10341491Y-23576960D02*
X10322444Y-23586484D01*
X10322444Y-23586484D02*
X10265301Y-23586484D01*
X10265301Y-23586484D02*
X10246253Y-23576960D01*
X10246253Y-23576960D02*
X10236729Y-23567436D01*
X10446253Y-23567436D02*
X10455777Y-23576960D01*
X10455777Y-23576960D02*
X10446253Y-23586484D01*
X10446253Y-23586484D02*
X10436729Y-23576960D01*
X10436729Y-23576960D02*
X10446253Y-23567436D01*
X10446253Y-23567436D02*
X10446253Y-23586484D01*
X10531967Y-23405531D02*
X10541491Y-23396008D01*
X10541491Y-23396008D02*
X10560539Y-23386484D01*
X10560539Y-23386484D02*
X10608158Y-23386484D01*
X10608158Y-23386484D02*
X10627205Y-23396008D01*
X10627205Y-23396008D02*
X10636729Y-23405531D01*
X10636729Y-23405531D02*
X10646253Y-23424579D01*
X10646253Y-23424579D02*
X10646253Y-23443627D01*
X10646253Y-23443627D02*
X10636729Y-23472198D01*
X10636729Y-23472198D02*
X10522444Y-23586484D01*
X10522444Y-23586484D02*
X10646253Y-23586484D01*
X10770063Y-23386484D02*
X10789110Y-23386484D01*
X10789110Y-23386484D02*
X10808158Y-23396008D01*
X10808158Y-23396008D02*
X10817682Y-23405531D01*
X10817682Y-23405531D02*
X10827205Y-23424579D01*
X10827205Y-23424579D02*
X10836729Y-23462674D01*
X10836729Y-23462674D02*
X10836729Y-23510293D01*
X10836729Y-23510293D02*
X10827205Y-23548388D01*
X10827205Y-23548388D02*
X10817682Y-23567436D01*
X10817682Y-23567436D02*
X10808158Y-23576960D01*
X10808158Y-23576960D02*
X10789110Y-23586484D01*
X10789110Y-23586484D02*
X10770063Y-23586484D01*
X10770063Y-23586484D02*
X10751015Y-23576960D01*
X10751015Y-23576960D02*
X10741491Y-23567436D01*
X10741491Y-23567436D02*
X10731967Y-23548388D01*
X10731967Y-23548388D02*
X10722444Y-23510293D01*
X10722444Y-23510293D02*
X10722444Y-23462674D01*
X10722444Y-23462674D02*
X10731967Y-23424579D01*
X10731967Y-23424579D02*
X10741491Y-23405531D01*
X10741491Y-23405531D02*
X10751015Y-23396008D01*
X10751015Y-23396008D02*
X10770063Y-23386484D01*
X10960539Y-23386484D02*
X10979586Y-23386484D01*
X10979586Y-23386484D02*
X10998634Y-23396008D01*
X10998634Y-23396008D02*
X11008158Y-23405531D01*
X11008158Y-23405531D02*
X11017682Y-23424579D01*
X11017682Y-23424579D02*
X11027205Y-23462674D01*
X11027205Y-23462674D02*
X11027205Y-23510293D01*
X11027205Y-23510293D02*
X11017682Y-23548388D01*
X11017682Y-23548388D02*
X11008158Y-23567436D01*
X11008158Y-23567436D02*
X10998634Y-23576960D01*
X10998634Y-23576960D02*
X10979586Y-23586484D01*
X10979586Y-23586484D02*
X10960539Y-23586484D01*
X10960539Y-23586484D02*
X10941491Y-23576960D01*
X10941491Y-23576960D02*
X10931967Y-23567436D01*
X10931967Y-23567436D02*
X10922444Y-23548388D01*
X10922444Y-23548388D02*
X10912920Y-23510293D01*
X10912920Y-23510293D02*
X10912920Y-23462674D01*
X10912920Y-23462674D02*
X10922444Y-23424579D01*
X10922444Y-23424579D02*
X10931967Y-23405531D01*
X10931967Y-23405531D02*
X10941491Y-23396008D01*
X10941491Y-23396008D02*
X10960539Y-23386484D01*
X11112920Y-23586484D02*
X11112920Y-23453150D01*
X11112920Y-23472198D02*
X11122444Y-23462674D01*
X11122444Y-23462674D02*
X11141491Y-23453150D01*
X11141491Y-23453150D02*
X11170063Y-23453150D01*
X11170063Y-23453150D02*
X11189110Y-23462674D01*
X11189110Y-23462674D02*
X11198634Y-23481722D01*
X11198634Y-23481722D02*
X11198634Y-23586484D01*
X11198634Y-23481722D02*
X11208158Y-23462674D01*
X11208158Y-23462674D02*
X11227205Y-23453150D01*
X11227205Y-23453150D02*
X11255777Y-23453150D01*
X11255777Y-23453150D02*
X11274824Y-23462674D01*
X11274824Y-23462674D02*
X11284348Y-23481722D01*
X11284348Y-23481722D02*
X11284348Y-23586484D01*
X11379586Y-23586484D02*
X11379586Y-23453150D01*
X11379586Y-23472198D02*
X11389110Y-23462674D01*
X11389110Y-23462674D02*
X11408158Y-23453150D01*
X11408158Y-23453150D02*
X11436729Y-23453150D01*
X11436729Y-23453150D02*
X11455777Y-23462674D01*
X11455777Y-23462674D02*
X11465301Y-23481722D01*
X11465301Y-23481722D02*
X11465301Y-23586484D01*
X11465301Y-23481722D02*
X11474824Y-23462674D01*
X11474824Y-23462674D02*
X11493872Y-23453150D01*
X11493872Y-23453150D02*
X11522443Y-23453150D01*
X11522443Y-23453150D02*
X11541491Y-23462674D01*
X11541491Y-23462674D02*
X11551015Y-23481722D01*
X11551015Y-23481722D02*
X11551015Y-23586484D01*
X11941491Y-23376960D02*
X11770063Y-23634103D01*
X12198634Y-23386484D02*
X12217682Y-23386484D01*
X12217682Y-23386484D02*
X12236729Y-23396008D01*
X12236729Y-23396008D02*
X12246253Y-23405531D01*
X12246253Y-23405531D02*
X12255777Y-23424579D01*
X12255777Y-23424579D02*
X12265301Y-23462674D01*
X12265301Y-23462674D02*
X12265301Y-23510293D01*
X12265301Y-23510293D02*
X12255777Y-23548388D01*
X12255777Y-23548388D02*
X12246253Y-23567436D01*
X12246253Y-23567436D02*
X12236729Y-23576960D01*
X12236729Y-23576960D02*
X12217682Y-23586484D01*
X12217682Y-23586484D02*
X12198634Y-23586484D01*
X12198634Y-23586484D02*
X12179586Y-23576960D01*
X12179586Y-23576960D02*
X12170063Y-23567436D01*
X12170063Y-23567436D02*
X12160539Y-23548388D01*
X12160539Y-23548388D02*
X12151015Y-23510293D01*
X12151015Y-23510293D02*
X12151015Y-23462674D01*
X12151015Y-23462674D02*
X12160539Y-23424579D01*
X12160539Y-23424579D02*
X12170063Y-23405531D01*
X12170063Y-23405531D02*
X12179586Y-23396008D01*
X12179586Y-23396008D02*
X12198634Y-23386484D01*
X12351015Y-23567436D02*
X12360539Y-23576960D01*
X12360539Y-23576960D02*
X12351015Y-23586484D01*
X12351015Y-23586484D02*
X12341491Y-23576960D01*
X12341491Y-23576960D02*
X12351015Y-23567436D01*
X12351015Y-23567436D02*
X12351015Y-23586484D01*
X12551015Y-23586484D02*
X12436729Y-23586484D01*
X12493872Y-23586484D02*
X12493872Y-23386484D01*
X12493872Y-23386484D02*
X12474825Y-23415055D01*
X12474825Y-23415055D02*
X12455777Y-23434103D01*
X12455777Y-23434103D02*
X12436729Y-23443627D01*
X12627206Y-23405531D02*
X12636729Y-23396008D01*
X12636729Y-23396008D02*
X12655777Y-23386484D01*
X12655777Y-23386484D02*
X12703396Y-23386484D01*
X12703396Y-23386484D02*
X12722444Y-23396008D01*
X12722444Y-23396008D02*
X12731967Y-23405531D01*
X12731967Y-23405531D02*
X12741491Y-23424579D01*
X12741491Y-23424579D02*
X12741491Y-23443627D01*
X12741491Y-23443627D02*
X12731967Y-23472198D01*
X12731967Y-23472198D02*
X12617682Y-23586484D01*
X12617682Y-23586484D02*
X12741491Y-23586484D01*
X12912920Y-23386484D02*
X12874825Y-23386484D01*
X12874825Y-23386484D02*
X12855777Y-23396008D01*
X12855777Y-23396008D02*
X12846253Y-23405531D01*
X12846253Y-23405531D02*
X12827206Y-23434103D01*
X12827206Y-23434103D02*
X12817682Y-23472198D01*
X12817682Y-23472198D02*
X12817682Y-23548388D01*
X12817682Y-23548388D02*
X12827206Y-23567436D01*
X12827206Y-23567436D02*
X12836729Y-23576960D01*
X12836729Y-23576960D02*
X12855777Y-23586484D01*
X12855777Y-23586484D02*
X12893872Y-23586484D01*
X12893872Y-23586484D02*
X12912920Y-23576960D01*
X12912920Y-23576960D02*
X12922444Y-23567436D01*
X12922444Y-23567436D02*
X12931967Y-23548388D01*
X12931967Y-23548388D02*
X12931967Y-23500769D01*
X12931967Y-23500769D02*
X12922444Y-23481722D01*
X12922444Y-23481722D02*
X12912920Y-23472198D01*
X12912920Y-23472198D02*
X12893872Y-23462674D01*
X12893872Y-23462674D02*
X12855777Y-23462674D01*
X12855777Y-23462674D02*
X12836729Y-23472198D01*
X12836729Y-23472198D02*
X12827206Y-23481722D01*
X12827206Y-23481722D02*
X12817682Y-23500769D01*
X13055777Y-23386484D02*
X13074825Y-23386484D01*
X13074825Y-23386484D02*
X13093872Y-23396008D01*
X13093872Y-23396008D02*
X13103396Y-23405531D01*
X13103396Y-23405531D02*
X13112920Y-23424579D01*
X13112920Y-23424579D02*
X13122444Y-23462674D01*
X13122444Y-23462674D02*
X13122444Y-23510293D01*
X13122444Y-23510293D02*
X13112920Y-23548388D01*
X13112920Y-23548388D02*
X13103396Y-23567436D01*
X13103396Y-23567436D02*
X13093872Y-23576960D01*
X13093872Y-23576960D02*
X13074825Y-23586484D01*
X13074825Y-23586484D02*
X13055777Y-23586484D01*
X13055777Y-23586484D02*
X13036729Y-23576960D01*
X13036729Y-23576960D02*
X13027206Y-23567436D01*
X13027206Y-23567436D02*
X13017682Y-23548388D01*
X13017682Y-23548388D02*
X13008158Y-23510293D01*
X13008158Y-23510293D02*
X13008158Y-23462674D01*
X13008158Y-23462674D02*
X13017682Y-23424579D01*
X13017682Y-23424579D02*
X13027206Y-23405531D01*
X13027206Y-23405531D02*
X13036729Y-23396008D01*
X13036729Y-23396008D02*
X13055777Y-23386484D01*
X13198634Y-23386484D02*
X13198634Y-23424579D01*
X13274825Y-23386484D02*
X13274825Y-23424579D01*
X13570063Y-23662674D02*
X13560539Y-23653150D01*
X13560539Y-23653150D02*
X13541491Y-23624579D01*
X13541491Y-23624579D02*
X13531968Y-23605531D01*
X13531968Y-23605531D02*
X13522444Y-23576960D01*
X13522444Y-23576960D02*
X13512920Y-23529341D01*
X13512920Y-23529341D02*
X13512920Y-23491246D01*
X13512920Y-23491246D02*
X13522444Y-23443627D01*
X13522444Y-23443627D02*
X13531968Y-23415055D01*
X13531968Y-23415055D02*
X13541491Y-23396008D01*
X13541491Y-23396008D02*
X13560539Y-23367436D01*
X13560539Y-23367436D02*
X13570063Y-23357912D01*
X13751015Y-23586484D02*
X13636729Y-23586484D01*
X13693872Y-23586484D02*
X13693872Y-23386484D01*
X13693872Y-23386484D02*
X13674825Y-23415055D01*
X13674825Y-23415055D02*
X13655777Y-23434103D01*
X13655777Y-23434103D02*
X13636729Y-23443627D01*
X13989110Y-23586484D02*
X13989110Y-23386484D01*
X14074825Y-23586484D02*
X14074825Y-23481722D01*
X14074825Y-23481722D02*
X14065301Y-23462674D01*
X14065301Y-23462674D02*
X14046253Y-23453150D01*
X14046253Y-23453150D02*
X14017682Y-23453150D01*
X14017682Y-23453150D02*
X13998634Y-23462674D01*
X13998634Y-23462674D02*
X13989110Y-23472198D01*
X14198634Y-23586484D02*
X14179587Y-23576960D01*
X14179587Y-23576960D02*
X14170063Y-23567436D01*
X14170063Y-23567436D02*
X14160539Y-23548388D01*
X14160539Y-23548388D02*
X14160539Y-23491246D01*
X14160539Y-23491246D02*
X14170063Y-23472198D01*
X14170063Y-23472198D02*
X14179587Y-23462674D01*
X14179587Y-23462674D02*
X14198634Y-23453150D01*
X14198634Y-23453150D02*
X14227206Y-23453150D01*
X14227206Y-23453150D02*
X14246253Y-23462674D01*
X14246253Y-23462674D02*
X14255777Y-23472198D01*
X14255777Y-23472198D02*
X14265301Y-23491246D01*
X14265301Y-23491246D02*
X14265301Y-23548388D01*
X14265301Y-23548388D02*
X14255777Y-23567436D01*
X14255777Y-23567436D02*
X14246253Y-23576960D01*
X14246253Y-23576960D02*
X14227206Y-23586484D01*
X14227206Y-23586484D02*
X14198634Y-23586484D01*
X14379587Y-23586484D02*
X14360539Y-23576960D01*
X14360539Y-23576960D02*
X14351015Y-23557912D01*
X14351015Y-23557912D02*
X14351015Y-23386484D01*
X14531968Y-23576960D02*
X14512920Y-23586484D01*
X14512920Y-23586484D02*
X14474825Y-23586484D01*
X14474825Y-23586484D02*
X14455777Y-23576960D01*
X14455777Y-23576960D02*
X14446253Y-23557912D01*
X14446253Y-23557912D02*
X14446253Y-23481722D01*
X14446253Y-23481722D02*
X14455777Y-23462674D01*
X14455777Y-23462674D02*
X14474825Y-23453150D01*
X14474825Y-23453150D02*
X14512920Y-23453150D01*
X14512920Y-23453150D02*
X14531968Y-23462674D01*
X14531968Y-23462674D02*
X14541491Y-23481722D01*
X14541491Y-23481722D02*
X14541491Y-23500769D01*
X14541491Y-23500769D02*
X14446253Y-23519817D01*
X14617682Y-23576960D02*
X14636730Y-23586484D01*
X14636730Y-23586484D02*
X14674825Y-23586484D01*
X14674825Y-23586484D02*
X14693872Y-23576960D01*
X14693872Y-23576960D02*
X14703396Y-23557912D01*
X14703396Y-23557912D02*
X14703396Y-23548388D01*
X14703396Y-23548388D02*
X14693872Y-23529341D01*
X14693872Y-23529341D02*
X14674825Y-23519817D01*
X14674825Y-23519817D02*
X14646253Y-23519817D01*
X14646253Y-23519817D02*
X14627206Y-23510293D01*
X14627206Y-23510293D02*
X14617682Y-23491246D01*
X14617682Y-23491246D02*
X14617682Y-23481722D01*
X14617682Y-23481722D02*
X14627206Y-23462674D01*
X14627206Y-23462674D02*
X14646253Y-23453150D01*
X14646253Y-23453150D02*
X14674825Y-23453150D01*
X14674825Y-23453150D02*
X14693872Y-23462674D01*
X14941492Y-23510293D02*
X15093873Y-23510293D01*
X15017682Y-23586484D02*
X15017682Y-23434103D01*
X15427206Y-23453150D02*
X15427206Y-23586484D01*
X15379587Y-23376960D02*
X15331968Y-23519817D01*
X15331968Y-23519817D02*
X15455777Y-23519817D01*
X15674825Y-23576960D02*
X15693873Y-23586484D01*
X15693873Y-23586484D02*
X15731968Y-23586484D01*
X15731968Y-23586484D02*
X15751015Y-23576960D01*
X15751015Y-23576960D02*
X15760539Y-23557912D01*
X15760539Y-23557912D02*
X15760539Y-23548388D01*
X15760539Y-23548388D02*
X15751015Y-23529341D01*
X15751015Y-23529341D02*
X15731968Y-23519817D01*
X15731968Y-23519817D02*
X15703396Y-23519817D01*
X15703396Y-23519817D02*
X15684349Y-23510293D01*
X15684349Y-23510293D02*
X15674825Y-23491246D01*
X15674825Y-23491246D02*
X15674825Y-23481722D01*
X15674825Y-23481722D02*
X15684349Y-23462674D01*
X15684349Y-23462674D02*
X15703396Y-23453150D01*
X15703396Y-23453150D02*
X15731968Y-23453150D01*
X15731968Y-23453150D02*
X15751015Y-23462674D01*
X15874825Y-23586484D02*
X15855777Y-23576960D01*
X15855777Y-23576960D02*
X15846254Y-23557912D01*
X15846254Y-23557912D02*
X15846254Y-23386484D01*
X15979587Y-23586484D02*
X15960539Y-23576960D01*
X15960539Y-23576960D02*
X15951015Y-23567436D01*
X15951015Y-23567436D02*
X15941492Y-23548388D01*
X15941492Y-23548388D02*
X15941492Y-23491246D01*
X15941492Y-23491246D02*
X15951015Y-23472198D01*
X15951015Y-23472198D02*
X15960539Y-23462674D01*
X15960539Y-23462674D02*
X15979587Y-23453150D01*
X15979587Y-23453150D02*
X16008158Y-23453150D01*
X16008158Y-23453150D02*
X16027206Y-23462674D01*
X16027206Y-23462674D02*
X16036730Y-23472198D01*
X16036730Y-23472198D02*
X16046254Y-23491246D01*
X16046254Y-23491246D02*
X16046254Y-23548388D01*
X16046254Y-23548388D02*
X16036730Y-23567436D01*
X16036730Y-23567436D02*
X16027206Y-23576960D01*
X16027206Y-23576960D02*
X16008158Y-23586484D01*
X16008158Y-23586484D02*
X15979587Y-23586484D01*
X16103396Y-23453150D02*
X16179587Y-23453150D01*
X16131968Y-23386484D02*
X16131968Y-23557912D01*
X16131968Y-23557912D02*
X16141492Y-23576960D01*
X16141492Y-23576960D02*
X16160539Y-23586484D01*
X16160539Y-23586484D02*
X16179587Y-23586484D01*
X16236730Y-23576960D02*
X16255777Y-23586484D01*
X16255777Y-23586484D02*
X16293873Y-23586484D01*
X16293873Y-23586484D02*
X16312920Y-23576960D01*
X16312920Y-23576960D02*
X16322444Y-23557912D01*
X16322444Y-23557912D02*
X16322444Y-23548388D01*
X16322444Y-23548388D02*
X16312920Y-23529341D01*
X16312920Y-23529341D02*
X16293873Y-23519817D01*
X16293873Y-23519817D02*
X16265301Y-23519817D01*
X16265301Y-23519817D02*
X16246254Y-23510293D01*
X16246254Y-23510293D02*
X16236730Y-23491246D01*
X16236730Y-23491246D02*
X16236730Y-23481722D01*
X16236730Y-23481722D02*
X16246254Y-23462674D01*
X16246254Y-23462674D02*
X16265301Y-23453150D01*
X16265301Y-23453150D02*
X16293873Y-23453150D01*
X16293873Y-23453150D02*
X16312920Y-23462674D01*
X16389111Y-23662674D02*
X16398635Y-23653150D01*
X16398635Y-23653150D02*
X16417682Y-23624579D01*
X16417682Y-23624579D02*
X16427206Y-23605531D01*
X16427206Y-23605531D02*
X16436730Y-23576960D01*
X16436730Y-23576960D02*
X16446254Y-23529341D01*
X16446254Y-23529341D02*
X16446254Y-23491246D01*
X16446254Y-23491246D02*
X16436730Y-23443627D01*
X16436730Y-23443627D02*
X16427206Y-23415055D01*
X16427206Y-23415055D02*
X16417682Y-23396008D01*
X16417682Y-23396008D02*
X16398635Y-23367436D01*
X16398635Y-23367436D02*
X16389111Y-23357912D01*
X16751016Y-23662674D02*
X16741492Y-23653150D01*
X16741492Y-23653150D02*
X16722444Y-23624579D01*
X16722444Y-23624579D02*
X16712920Y-23605531D01*
X16712920Y-23605531D02*
X16703396Y-23576960D01*
X16703396Y-23576960D02*
X16693873Y-23529341D01*
X16693873Y-23529341D02*
X16693873Y-23491246D01*
X16693873Y-23491246D02*
X16703396Y-23443627D01*
X16703396Y-23443627D02*
X16712920Y-23415055D01*
X16712920Y-23415055D02*
X16722444Y-23396008D01*
X16722444Y-23396008D02*
X16741492Y-23367436D01*
X16741492Y-23367436D02*
X16751016Y-23357912D01*
X16827206Y-23453150D02*
X16827206Y-23586484D01*
X16827206Y-23472198D02*
X16836730Y-23462674D01*
X16836730Y-23462674D02*
X16855777Y-23453150D01*
X16855777Y-23453150D02*
X16884349Y-23453150D01*
X16884349Y-23453150D02*
X16903397Y-23462674D01*
X16903397Y-23462674D02*
X16912920Y-23481722D01*
X16912920Y-23481722D02*
X16912920Y-23586484D01*
X17036730Y-23586484D02*
X17017682Y-23576960D01*
X17017682Y-23576960D02*
X17008158Y-23567436D01*
X17008158Y-23567436D02*
X16998635Y-23548388D01*
X16998635Y-23548388D02*
X16998635Y-23491246D01*
X16998635Y-23491246D02*
X17008158Y-23472198D01*
X17008158Y-23472198D02*
X17017682Y-23462674D01*
X17017682Y-23462674D02*
X17036730Y-23453150D01*
X17036730Y-23453150D02*
X17065301Y-23453150D01*
X17065301Y-23453150D02*
X17084349Y-23462674D01*
X17084349Y-23462674D02*
X17093873Y-23472198D01*
X17093873Y-23472198D02*
X17103397Y-23491246D01*
X17103397Y-23491246D02*
X17103397Y-23548388D01*
X17103397Y-23548388D02*
X17093873Y-23567436D01*
X17093873Y-23567436D02*
X17084349Y-23576960D01*
X17084349Y-23576960D02*
X17065301Y-23586484D01*
X17065301Y-23586484D02*
X17036730Y-23586484D01*
X17160539Y-23453150D02*
X17236730Y-23453150D01*
X17189111Y-23386484D02*
X17189111Y-23557912D01*
X17189111Y-23557912D02*
X17198635Y-23576960D01*
X17198635Y-23576960D02*
X17217682Y-23586484D01*
X17217682Y-23586484D02*
X17236730Y-23586484D01*
X17455778Y-23453150D02*
X17455778Y-23653150D01*
X17455778Y-23462674D02*
X17474825Y-23453150D01*
X17474825Y-23453150D02*
X17512920Y-23453150D01*
X17512920Y-23453150D02*
X17531968Y-23462674D01*
X17531968Y-23462674D02*
X17541492Y-23472198D01*
X17541492Y-23472198D02*
X17551016Y-23491246D01*
X17551016Y-23491246D02*
X17551016Y-23548388D01*
X17551016Y-23548388D02*
X17541492Y-23567436D01*
X17541492Y-23567436D02*
X17531968Y-23576960D01*
X17531968Y-23576960D02*
X17512920Y-23586484D01*
X17512920Y-23586484D02*
X17474825Y-23586484D01*
X17474825Y-23586484D02*
X17455778Y-23576960D01*
X17665301Y-23586484D02*
X17646254Y-23576960D01*
X17646254Y-23576960D02*
X17636730Y-23557912D01*
X17636730Y-23557912D02*
X17636730Y-23386484D01*
X17827206Y-23586484D02*
X17827206Y-23481722D01*
X17827206Y-23481722D02*
X17817682Y-23462674D01*
X17817682Y-23462674D02*
X17798635Y-23453150D01*
X17798635Y-23453150D02*
X17760539Y-23453150D01*
X17760539Y-23453150D02*
X17741492Y-23462674D01*
X17827206Y-23576960D02*
X17808159Y-23586484D01*
X17808159Y-23586484D02*
X17760539Y-23586484D01*
X17760539Y-23586484D02*
X17741492Y-23576960D01*
X17741492Y-23576960D02*
X17731968Y-23557912D01*
X17731968Y-23557912D02*
X17731968Y-23538865D01*
X17731968Y-23538865D02*
X17741492Y-23519817D01*
X17741492Y-23519817D02*
X17760539Y-23510293D01*
X17760539Y-23510293D02*
X17808159Y-23510293D01*
X17808159Y-23510293D02*
X17827206Y-23500769D01*
X17893873Y-23453150D02*
X17970063Y-23453150D01*
X17922444Y-23386484D02*
X17922444Y-23557912D01*
X17922444Y-23557912D02*
X17931968Y-23576960D01*
X17931968Y-23576960D02*
X17951016Y-23586484D01*
X17951016Y-23586484D02*
X17970063Y-23586484D01*
X18112920Y-23576960D02*
X18093873Y-23586484D01*
X18093873Y-23586484D02*
X18055778Y-23586484D01*
X18055778Y-23586484D02*
X18036730Y-23576960D01*
X18036730Y-23576960D02*
X18027206Y-23557912D01*
X18027206Y-23557912D02*
X18027206Y-23481722D01*
X18027206Y-23481722D02*
X18036730Y-23462674D01*
X18036730Y-23462674D02*
X18055778Y-23453150D01*
X18055778Y-23453150D02*
X18093873Y-23453150D01*
X18093873Y-23453150D02*
X18112920Y-23462674D01*
X18112920Y-23462674D02*
X18122444Y-23481722D01*
X18122444Y-23481722D02*
X18122444Y-23500769D01*
X18122444Y-23500769D02*
X18027206Y-23519817D01*
X18293873Y-23586484D02*
X18293873Y-23386484D01*
X18293873Y-23576960D02*
X18274825Y-23586484D01*
X18274825Y-23586484D02*
X18236730Y-23586484D01*
X18236730Y-23586484D02*
X18217682Y-23576960D01*
X18217682Y-23576960D02*
X18208159Y-23567436D01*
X18208159Y-23567436D02*
X18198635Y-23548388D01*
X18198635Y-23548388D02*
X18198635Y-23491246D01*
X18198635Y-23491246D02*
X18208159Y-23472198D01*
X18208159Y-23472198D02*
X18217682Y-23462674D01*
X18217682Y-23462674D02*
X18236730Y-23453150D01*
X18236730Y-23453150D02*
X18274825Y-23453150D01*
X18274825Y-23453150D02*
X18293873Y-23462674D01*
X18370063Y-23662674D02*
X18379587Y-23653150D01*
X18379587Y-23653150D02*
X18398635Y-23624579D01*
X18398635Y-23624579D02*
X18408159Y-23605531D01*
X18408159Y-23605531D02*
X18417682Y-23576960D01*
X18417682Y-23576960D02*
X18427206Y-23529341D01*
X18427206Y-23529341D02*
X18427206Y-23491246D01*
X18427206Y-23491246D02*
X18417682Y-23443627D01*
X18417682Y-23443627D02*
X18408159Y-23415055D01*
X18408159Y-23415055D02*
X18398635Y-23396008D01*
X18398635Y-23396008D02*
X18379587Y-23367436D01*
X18379587Y-23367436D02*
X18370063Y-23357912D01*
X9995000Y-23815000D02*
G75*
G03*
X9995000Y-23815000I-100000J0D01*
G01*
X10351015Y-23706484D02*
X10255777Y-23706484D01*
X10255777Y-23706484D02*
X10246253Y-23801722D01*
X10246253Y-23801722D02*
X10255777Y-23792198D01*
X10255777Y-23792198D02*
X10274824Y-23782674D01*
X10274824Y-23782674D02*
X10322444Y-23782674D01*
X10322444Y-23782674D02*
X10341491Y-23792198D01*
X10341491Y-23792198D02*
X10351015Y-23801722D01*
X10351015Y-23801722D02*
X10360539Y-23820769D01*
X10360539Y-23820769D02*
X10360539Y-23868388D01*
X10360539Y-23868388D02*
X10351015Y-23887436D01*
X10351015Y-23887436D02*
X10341491Y-23896960D01*
X10341491Y-23896960D02*
X10322444Y-23906484D01*
X10322444Y-23906484D02*
X10274824Y-23906484D01*
X10274824Y-23906484D02*
X10255777Y-23896960D01*
X10255777Y-23896960D02*
X10246253Y-23887436D01*
X10446253Y-23887436D02*
X10455777Y-23896960D01*
X10455777Y-23896960D02*
X10446253Y-23906484D01*
X10446253Y-23906484D02*
X10436729Y-23896960D01*
X10436729Y-23896960D02*
X10446253Y-23887436D01*
X10446253Y-23887436D02*
X10446253Y-23906484D01*
X10579586Y-23706484D02*
X10598634Y-23706484D01*
X10598634Y-23706484D02*
X10617682Y-23716008D01*
X10617682Y-23716008D02*
X10627205Y-23725531D01*
X10627205Y-23725531D02*
X10636729Y-23744579D01*
X10636729Y-23744579D02*
X10646253Y-23782674D01*
X10646253Y-23782674D02*
X10646253Y-23830293D01*
X10646253Y-23830293D02*
X10636729Y-23868388D01*
X10636729Y-23868388D02*
X10627205Y-23887436D01*
X10627205Y-23887436D02*
X10617682Y-23896960D01*
X10617682Y-23896960D02*
X10598634Y-23906484D01*
X10598634Y-23906484D02*
X10579586Y-23906484D01*
X10579586Y-23906484D02*
X10560539Y-23896960D01*
X10560539Y-23896960D02*
X10551015Y-23887436D01*
X10551015Y-23887436D02*
X10541491Y-23868388D01*
X10541491Y-23868388D02*
X10531967Y-23830293D01*
X10531967Y-23830293D02*
X10531967Y-23782674D01*
X10531967Y-23782674D02*
X10541491Y-23744579D01*
X10541491Y-23744579D02*
X10551015Y-23725531D01*
X10551015Y-23725531D02*
X10560539Y-23716008D01*
X10560539Y-23716008D02*
X10579586Y-23706484D01*
X10770063Y-23706484D02*
X10789110Y-23706484D01*
X10789110Y-23706484D02*
X10808158Y-23716008D01*
X10808158Y-23716008D02*
X10817682Y-23725531D01*
X10817682Y-23725531D02*
X10827205Y-23744579D01*
X10827205Y-23744579D02*
X10836729Y-23782674D01*
X10836729Y-23782674D02*
X10836729Y-23830293D01*
X10836729Y-23830293D02*
X10827205Y-23868388D01*
X10827205Y-23868388D02*
X10817682Y-23887436D01*
X10817682Y-23887436D02*
X10808158Y-23896960D01*
X10808158Y-23896960D02*
X10789110Y-23906484D01*
X10789110Y-23906484D02*
X10770063Y-23906484D01*
X10770063Y-23906484D02*
X10751015Y-23896960D01*
X10751015Y-23896960D02*
X10741491Y-23887436D01*
X10741491Y-23887436D02*
X10731967Y-23868388D01*
X10731967Y-23868388D02*
X10722444Y-23830293D01*
X10722444Y-23830293D02*
X10722444Y-23782674D01*
X10722444Y-23782674D02*
X10731967Y-23744579D01*
X10731967Y-23744579D02*
X10741491Y-23725531D01*
X10741491Y-23725531D02*
X10751015Y-23716008D01*
X10751015Y-23716008D02*
X10770063Y-23706484D01*
X10960539Y-23706484D02*
X10979586Y-23706484D01*
X10979586Y-23706484D02*
X10998634Y-23716008D01*
X10998634Y-23716008D02*
X11008158Y-23725531D01*
X11008158Y-23725531D02*
X11017682Y-23744579D01*
X11017682Y-23744579D02*
X11027205Y-23782674D01*
X11027205Y-23782674D02*
X11027205Y-23830293D01*
X11027205Y-23830293D02*
X11017682Y-23868388D01*
X11017682Y-23868388D02*
X11008158Y-23887436D01*
X11008158Y-23887436D02*
X10998634Y-23896960D01*
X10998634Y-23896960D02*
X10979586Y-23906484D01*
X10979586Y-23906484D02*
X10960539Y-23906484D01*
X10960539Y-23906484D02*
X10941491Y-23896960D01*
X10941491Y-23896960D02*
X10931967Y-23887436D01*
X10931967Y-23887436D02*
X10922444Y-23868388D01*
X10922444Y-23868388D02*
X10912920Y-23830293D01*
X10912920Y-23830293D02*
X10912920Y-23782674D01*
X10912920Y-23782674D02*
X10922444Y-23744579D01*
X10922444Y-23744579D02*
X10931967Y-23725531D01*
X10931967Y-23725531D02*
X10941491Y-23716008D01*
X10941491Y-23716008D02*
X10960539Y-23706484D01*
X11112920Y-23906484D02*
X11112920Y-23773150D01*
X11112920Y-23792198D02*
X11122444Y-23782674D01*
X11122444Y-23782674D02*
X11141491Y-23773150D01*
X11141491Y-23773150D02*
X11170063Y-23773150D01*
X11170063Y-23773150D02*
X11189110Y-23782674D01*
X11189110Y-23782674D02*
X11198634Y-23801722D01*
X11198634Y-23801722D02*
X11198634Y-23906484D01*
X11198634Y-23801722D02*
X11208158Y-23782674D01*
X11208158Y-23782674D02*
X11227205Y-23773150D01*
X11227205Y-23773150D02*
X11255777Y-23773150D01*
X11255777Y-23773150D02*
X11274824Y-23782674D01*
X11274824Y-23782674D02*
X11284348Y-23801722D01*
X11284348Y-23801722D02*
X11284348Y-23906484D01*
X11379586Y-23906484D02*
X11379586Y-23773150D01*
X11379586Y-23792198D02*
X11389110Y-23782674D01*
X11389110Y-23782674D02*
X11408158Y-23773150D01*
X11408158Y-23773150D02*
X11436729Y-23773150D01*
X11436729Y-23773150D02*
X11455777Y-23782674D01*
X11455777Y-23782674D02*
X11465301Y-23801722D01*
X11465301Y-23801722D02*
X11465301Y-23906484D01*
X11465301Y-23801722D02*
X11474824Y-23782674D01*
X11474824Y-23782674D02*
X11493872Y-23773150D01*
X11493872Y-23773150D02*
X11522443Y-23773150D01*
X11522443Y-23773150D02*
X11541491Y-23782674D01*
X11541491Y-23782674D02*
X11551015Y-23801722D01*
X11551015Y-23801722D02*
X11551015Y-23906484D01*
X11941491Y-23696960D02*
X11770063Y-23954103D01*
X12198634Y-23706484D02*
X12217682Y-23706484D01*
X12217682Y-23706484D02*
X12236729Y-23716008D01*
X12236729Y-23716008D02*
X12246253Y-23725531D01*
X12246253Y-23725531D02*
X12255777Y-23744579D01*
X12255777Y-23744579D02*
X12265301Y-23782674D01*
X12265301Y-23782674D02*
X12265301Y-23830293D01*
X12265301Y-23830293D02*
X12255777Y-23868388D01*
X12255777Y-23868388D02*
X12246253Y-23887436D01*
X12246253Y-23887436D02*
X12236729Y-23896960D01*
X12236729Y-23896960D02*
X12217682Y-23906484D01*
X12217682Y-23906484D02*
X12198634Y-23906484D01*
X12198634Y-23906484D02*
X12179586Y-23896960D01*
X12179586Y-23896960D02*
X12170063Y-23887436D01*
X12170063Y-23887436D02*
X12160539Y-23868388D01*
X12160539Y-23868388D02*
X12151015Y-23830293D01*
X12151015Y-23830293D02*
X12151015Y-23782674D01*
X12151015Y-23782674D02*
X12160539Y-23744579D01*
X12160539Y-23744579D02*
X12170063Y-23725531D01*
X12170063Y-23725531D02*
X12179586Y-23716008D01*
X12179586Y-23716008D02*
X12198634Y-23706484D01*
X12351015Y-23887436D02*
X12360539Y-23896960D01*
X12360539Y-23896960D02*
X12351015Y-23906484D01*
X12351015Y-23906484D02*
X12341491Y-23896960D01*
X12341491Y-23896960D02*
X12351015Y-23887436D01*
X12351015Y-23887436D02*
X12351015Y-23906484D01*
X12551015Y-23906484D02*
X12436729Y-23906484D01*
X12493872Y-23906484D02*
X12493872Y-23706484D01*
X12493872Y-23706484D02*
X12474825Y-23735055D01*
X12474825Y-23735055D02*
X12455777Y-23754103D01*
X12455777Y-23754103D02*
X12436729Y-23763627D01*
X12646253Y-23906484D02*
X12684348Y-23906484D01*
X12684348Y-23906484D02*
X12703396Y-23896960D01*
X12703396Y-23896960D02*
X12712920Y-23887436D01*
X12712920Y-23887436D02*
X12731967Y-23858865D01*
X12731967Y-23858865D02*
X12741491Y-23820769D01*
X12741491Y-23820769D02*
X12741491Y-23744579D01*
X12741491Y-23744579D02*
X12731967Y-23725531D01*
X12731967Y-23725531D02*
X12722444Y-23716008D01*
X12722444Y-23716008D02*
X12703396Y-23706484D01*
X12703396Y-23706484D02*
X12665301Y-23706484D01*
X12665301Y-23706484D02*
X12646253Y-23716008D01*
X12646253Y-23716008D02*
X12636729Y-23725531D01*
X12636729Y-23725531D02*
X12627206Y-23744579D01*
X12627206Y-23744579D02*
X12627206Y-23792198D01*
X12627206Y-23792198D02*
X12636729Y-23811246D01*
X12636729Y-23811246D02*
X12646253Y-23820769D01*
X12646253Y-23820769D02*
X12665301Y-23830293D01*
X12665301Y-23830293D02*
X12703396Y-23830293D01*
X12703396Y-23830293D02*
X12722444Y-23820769D01*
X12722444Y-23820769D02*
X12731967Y-23811246D01*
X12731967Y-23811246D02*
X12741491Y-23792198D01*
X12912920Y-23706484D02*
X12874825Y-23706484D01*
X12874825Y-23706484D02*
X12855777Y-23716008D01*
X12855777Y-23716008D02*
X12846253Y-23725531D01*
X12846253Y-23725531D02*
X12827206Y-23754103D01*
X12827206Y-23754103D02*
X12817682Y-23792198D01*
X12817682Y-23792198D02*
X12817682Y-23868388D01*
X12817682Y-23868388D02*
X12827206Y-23887436D01*
X12827206Y-23887436D02*
X12836729Y-23896960D01*
X12836729Y-23896960D02*
X12855777Y-23906484D01*
X12855777Y-23906484D02*
X12893872Y-23906484D01*
X12893872Y-23906484D02*
X12912920Y-23896960D01*
X12912920Y-23896960D02*
X12922444Y-23887436D01*
X12922444Y-23887436D02*
X12931967Y-23868388D01*
X12931967Y-23868388D02*
X12931967Y-23820769D01*
X12931967Y-23820769D02*
X12922444Y-23801722D01*
X12922444Y-23801722D02*
X12912920Y-23792198D01*
X12912920Y-23792198D02*
X12893872Y-23782674D01*
X12893872Y-23782674D02*
X12855777Y-23782674D01*
X12855777Y-23782674D02*
X12836729Y-23792198D01*
X12836729Y-23792198D02*
X12827206Y-23801722D01*
X12827206Y-23801722D02*
X12817682Y-23820769D01*
X13027206Y-23906484D02*
X13065301Y-23906484D01*
X13065301Y-23906484D02*
X13084348Y-23896960D01*
X13084348Y-23896960D02*
X13093872Y-23887436D01*
X13093872Y-23887436D02*
X13112920Y-23858865D01*
X13112920Y-23858865D02*
X13122444Y-23820769D01*
X13122444Y-23820769D02*
X13122444Y-23744579D01*
X13122444Y-23744579D02*
X13112920Y-23725531D01*
X13112920Y-23725531D02*
X13103396Y-23716008D01*
X13103396Y-23716008D02*
X13084348Y-23706484D01*
X13084348Y-23706484D02*
X13046253Y-23706484D01*
X13046253Y-23706484D02*
X13027206Y-23716008D01*
X13027206Y-23716008D02*
X13017682Y-23725531D01*
X13017682Y-23725531D02*
X13008158Y-23744579D01*
X13008158Y-23744579D02*
X13008158Y-23792198D01*
X13008158Y-23792198D02*
X13017682Y-23811246D01*
X13017682Y-23811246D02*
X13027206Y-23820769D01*
X13027206Y-23820769D02*
X13046253Y-23830293D01*
X13046253Y-23830293D02*
X13084348Y-23830293D01*
X13084348Y-23830293D02*
X13103396Y-23820769D01*
X13103396Y-23820769D02*
X13112920Y-23811246D01*
X13112920Y-23811246D02*
X13122444Y-23792198D01*
X13198634Y-23706484D02*
X13198634Y-23744579D01*
X13274825Y-23706484D02*
X13274825Y-23744579D01*
X13570063Y-23982674D02*
X13560539Y-23973150D01*
X13560539Y-23973150D02*
X13541491Y-23944579D01*
X13541491Y-23944579D02*
X13531968Y-23925531D01*
X13531968Y-23925531D02*
X13522444Y-23896960D01*
X13522444Y-23896960D02*
X13512920Y-23849341D01*
X13512920Y-23849341D02*
X13512920Y-23811246D01*
X13512920Y-23811246D02*
X13522444Y-23763627D01*
X13522444Y-23763627D02*
X13531968Y-23735055D01*
X13531968Y-23735055D02*
X13541491Y-23716008D01*
X13541491Y-23716008D02*
X13560539Y-23687436D01*
X13560539Y-23687436D02*
X13570063Y-23677912D01*
X13751015Y-23906484D02*
X13636729Y-23906484D01*
X13693872Y-23906484D02*
X13693872Y-23706484D01*
X13693872Y-23706484D02*
X13674825Y-23735055D01*
X13674825Y-23735055D02*
X13655777Y-23754103D01*
X13655777Y-23754103D02*
X13636729Y-23763627D01*
X13989110Y-23906484D02*
X13989110Y-23706484D01*
X14074825Y-23906484D02*
X14074825Y-23801722D01*
X14074825Y-23801722D02*
X14065301Y-23782674D01*
X14065301Y-23782674D02*
X14046253Y-23773150D01*
X14046253Y-23773150D02*
X14017682Y-23773150D01*
X14017682Y-23773150D02*
X13998634Y-23782674D01*
X13998634Y-23782674D02*
X13989110Y-23792198D01*
X14198634Y-23906484D02*
X14179587Y-23896960D01*
X14179587Y-23896960D02*
X14170063Y-23887436D01*
X14170063Y-23887436D02*
X14160539Y-23868388D01*
X14160539Y-23868388D02*
X14160539Y-23811246D01*
X14160539Y-23811246D02*
X14170063Y-23792198D01*
X14170063Y-23792198D02*
X14179587Y-23782674D01*
X14179587Y-23782674D02*
X14198634Y-23773150D01*
X14198634Y-23773150D02*
X14227206Y-23773150D01*
X14227206Y-23773150D02*
X14246253Y-23782674D01*
X14246253Y-23782674D02*
X14255777Y-23792198D01*
X14255777Y-23792198D02*
X14265301Y-23811246D01*
X14265301Y-23811246D02*
X14265301Y-23868388D01*
X14265301Y-23868388D02*
X14255777Y-23887436D01*
X14255777Y-23887436D02*
X14246253Y-23896960D01*
X14246253Y-23896960D02*
X14227206Y-23906484D01*
X14227206Y-23906484D02*
X14198634Y-23906484D01*
X14379587Y-23906484D02*
X14360539Y-23896960D01*
X14360539Y-23896960D02*
X14351015Y-23877912D01*
X14351015Y-23877912D02*
X14351015Y-23706484D01*
X14531968Y-23896960D02*
X14512920Y-23906484D01*
X14512920Y-23906484D02*
X14474825Y-23906484D01*
X14474825Y-23906484D02*
X14455777Y-23896960D01*
X14455777Y-23896960D02*
X14446253Y-23877912D01*
X14446253Y-23877912D02*
X14446253Y-23801722D01*
X14446253Y-23801722D02*
X14455777Y-23782674D01*
X14455777Y-23782674D02*
X14474825Y-23773150D01*
X14474825Y-23773150D02*
X14512920Y-23773150D01*
X14512920Y-23773150D02*
X14531968Y-23782674D01*
X14531968Y-23782674D02*
X14541491Y-23801722D01*
X14541491Y-23801722D02*
X14541491Y-23820769D01*
X14541491Y-23820769D02*
X14446253Y-23839817D01*
X14608158Y-23982674D02*
X14617682Y-23973150D01*
X14617682Y-23973150D02*
X14636730Y-23944579D01*
X14636730Y-23944579D02*
X14646253Y-23925531D01*
X14646253Y-23925531D02*
X14655777Y-23896960D01*
X14655777Y-23896960D02*
X14665301Y-23849341D01*
X14665301Y-23849341D02*
X14665301Y-23811246D01*
X14665301Y-23811246D02*
X14655777Y-23763627D01*
X14655777Y-23763627D02*
X14646253Y-23735055D01*
X14646253Y-23735055D02*
X14636730Y-23716008D01*
X14636730Y-23716008D02*
X14617682Y-23687436D01*
X14617682Y-23687436D02*
X14608158Y-23677912D01*
X14970063Y-23982674D02*
X14960539Y-23973150D01*
X14960539Y-23973150D02*
X14941491Y-23944579D01*
X14941491Y-23944579D02*
X14931968Y-23925531D01*
X14931968Y-23925531D02*
X14922444Y-23896960D01*
X14922444Y-23896960D02*
X14912920Y-23849341D01*
X14912920Y-23849341D02*
X14912920Y-23811246D01*
X14912920Y-23811246D02*
X14922444Y-23763627D01*
X14922444Y-23763627D02*
X14931968Y-23735055D01*
X14931968Y-23735055D02*
X14941491Y-23716008D01*
X14941491Y-23716008D02*
X14960539Y-23687436D01*
X14960539Y-23687436D02*
X14970063Y-23677912D01*
X15046253Y-23773150D02*
X15046253Y-23906484D01*
X15046253Y-23792198D02*
X15055777Y-23782674D01*
X15055777Y-23782674D02*
X15074825Y-23773150D01*
X15074825Y-23773150D02*
X15103396Y-23773150D01*
X15103396Y-23773150D02*
X15122444Y-23782674D01*
X15122444Y-23782674D02*
X15131968Y-23801722D01*
X15131968Y-23801722D02*
X15131968Y-23906484D01*
X15255777Y-23906484D02*
X15236730Y-23896960D01*
X15236730Y-23896960D02*
X15227206Y-23887436D01*
X15227206Y-23887436D02*
X15217682Y-23868388D01*
X15217682Y-23868388D02*
X15217682Y-23811246D01*
X15217682Y-23811246D02*
X15227206Y-23792198D01*
X15227206Y-23792198D02*
X15236730Y-23782674D01*
X15236730Y-23782674D02*
X15255777Y-23773150D01*
X15255777Y-23773150D02*
X15284349Y-23773150D01*
X15284349Y-23773150D02*
X15303396Y-23782674D01*
X15303396Y-23782674D02*
X15312920Y-23792198D01*
X15312920Y-23792198D02*
X15322444Y-23811246D01*
X15322444Y-23811246D02*
X15322444Y-23868388D01*
X15322444Y-23868388D02*
X15312920Y-23887436D01*
X15312920Y-23887436D02*
X15303396Y-23896960D01*
X15303396Y-23896960D02*
X15284349Y-23906484D01*
X15284349Y-23906484D02*
X15255777Y-23906484D01*
X15379587Y-23773150D02*
X15455777Y-23773150D01*
X15408158Y-23706484D02*
X15408158Y-23877912D01*
X15408158Y-23877912D02*
X15417682Y-23896960D01*
X15417682Y-23896960D02*
X15436730Y-23906484D01*
X15436730Y-23906484D02*
X15455777Y-23906484D01*
X15674825Y-23773150D02*
X15674825Y-23973150D01*
X15674825Y-23782674D02*
X15693872Y-23773150D01*
X15693872Y-23773150D02*
X15731968Y-23773150D01*
X15731968Y-23773150D02*
X15751015Y-23782674D01*
X15751015Y-23782674D02*
X15760539Y-23792198D01*
X15760539Y-23792198D02*
X15770063Y-23811246D01*
X15770063Y-23811246D02*
X15770063Y-23868388D01*
X15770063Y-23868388D02*
X15760539Y-23887436D01*
X15760539Y-23887436D02*
X15751015Y-23896960D01*
X15751015Y-23896960D02*
X15731968Y-23906484D01*
X15731968Y-23906484D02*
X15693872Y-23906484D01*
X15693872Y-23906484D02*
X15674825Y-23896960D01*
X15884349Y-23906484D02*
X15865301Y-23896960D01*
X15865301Y-23896960D02*
X15855777Y-23877912D01*
X15855777Y-23877912D02*
X15855777Y-23706484D01*
X16046253Y-23906484D02*
X16046253Y-23801722D01*
X16046253Y-23801722D02*
X16036730Y-23782674D01*
X16036730Y-23782674D02*
X16017682Y-23773150D01*
X16017682Y-23773150D02*
X15979587Y-23773150D01*
X15979587Y-23773150D02*
X15960539Y-23782674D01*
X16046253Y-23896960D02*
X16027206Y-23906484D01*
X16027206Y-23906484D02*
X15979587Y-23906484D01*
X15979587Y-23906484D02*
X15960539Y-23896960D01*
X15960539Y-23896960D02*
X15951015Y-23877912D01*
X15951015Y-23877912D02*
X15951015Y-23858865D01*
X15951015Y-23858865D02*
X15960539Y-23839817D01*
X15960539Y-23839817D02*
X15979587Y-23830293D01*
X15979587Y-23830293D02*
X16027206Y-23830293D01*
X16027206Y-23830293D02*
X16046253Y-23820769D01*
X16112920Y-23773150D02*
X16189111Y-23773150D01*
X16141492Y-23706484D02*
X16141492Y-23877912D01*
X16141492Y-23877912D02*
X16151015Y-23896960D01*
X16151015Y-23896960D02*
X16170063Y-23906484D01*
X16170063Y-23906484D02*
X16189111Y-23906484D01*
X16331968Y-23896960D02*
X16312920Y-23906484D01*
X16312920Y-23906484D02*
X16274825Y-23906484D01*
X16274825Y-23906484D02*
X16255777Y-23896960D01*
X16255777Y-23896960D02*
X16246253Y-23877912D01*
X16246253Y-23877912D02*
X16246253Y-23801722D01*
X16246253Y-23801722D02*
X16255777Y-23782674D01*
X16255777Y-23782674D02*
X16274825Y-23773150D01*
X16274825Y-23773150D02*
X16312920Y-23773150D01*
X16312920Y-23773150D02*
X16331968Y-23782674D01*
X16331968Y-23782674D02*
X16341492Y-23801722D01*
X16341492Y-23801722D02*
X16341492Y-23820769D01*
X16341492Y-23820769D02*
X16246253Y-23839817D01*
X16512920Y-23906484D02*
X16512920Y-23706484D01*
X16512920Y-23896960D02*
X16493873Y-23906484D01*
X16493873Y-23906484D02*
X16455777Y-23906484D01*
X16455777Y-23906484D02*
X16436730Y-23896960D01*
X16436730Y-23896960D02*
X16427206Y-23887436D01*
X16427206Y-23887436D02*
X16417682Y-23868388D01*
X16417682Y-23868388D02*
X16417682Y-23811246D01*
X16417682Y-23811246D02*
X16427206Y-23792198D01*
X16427206Y-23792198D02*
X16436730Y-23782674D01*
X16436730Y-23782674D02*
X16455777Y-23773150D01*
X16455777Y-23773150D02*
X16493873Y-23773150D01*
X16493873Y-23773150D02*
X16512920Y-23782674D01*
X16589111Y-23982674D02*
X16598634Y-23973150D01*
X16598634Y-23973150D02*
X16617682Y-23944579D01*
X16617682Y-23944579D02*
X16627206Y-23925531D01*
X16627206Y-23925531D02*
X16636730Y-23896960D01*
X16636730Y-23896960D02*
X16646253Y-23849341D01*
X16646253Y-23849341D02*
X16646253Y-23811246D01*
X16646253Y-23811246D02*
X16636730Y-23763627D01*
X16636730Y-23763627D02*
X16627206Y-23735055D01*
X16627206Y-23735055D02*
X16617682Y-23716008D01*
X16617682Y-23716008D02*
X16598634Y-23687436D01*
X16598634Y-23687436D02*
X16589111Y-23677912D01*
X9895000Y-24035000D02*
X9895000Y-24235000D01*
X9795000Y-24135000D02*
X9995000Y-24135000D01*
X10341491Y-24026484D02*
X10303396Y-24026484D01*
X10303396Y-24026484D02*
X10284348Y-24036008D01*
X10284348Y-24036008D02*
X10274824Y-24045531D01*
X10274824Y-24045531D02*
X10255777Y-24074103D01*
X10255777Y-24074103D02*
X10246253Y-24112198D01*
X10246253Y-24112198D02*
X10246253Y-24188388D01*
X10246253Y-24188388D02*
X10255777Y-24207436D01*
X10255777Y-24207436D02*
X10265301Y-24216960D01*
X10265301Y-24216960D02*
X10284348Y-24226484D01*
X10284348Y-24226484D02*
X10322444Y-24226484D01*
X10322444Y-24226484D02*
X10341491Y-24216960D01*
X10341491Y-24216960D02*
X10351015Y-24207436D01*
X10351015Y-24207436D02*
X10360539Y-24188388D01*
X10360539Y-24188388D02*
X10360539Y-24140769D01*
X10360539Y-24140769D02*
X10351015Y-24121722D01*
X10351015Y-24121722D02*
X10341491Y-24112198D01*
X10341491Y-24112198D02*
X10322444Y-24102674D01*
X10322444Y-24102674D02*
X10284348Y-24102674D01*
X10284348Y-24102674D02*
X10265301Y-24112198D01*
X10265301Y-24112198D02*
X10255777Y-24121722D01*
X10255777Y-24121722D02*
X10246253Y-24140769D01*
X10446253Y-24207436D02*
X10455777Y-24216960D01*
X10455777Y-24216960D02*
X10446253Y-24226484D01*
X10446253Y-24226484D02*
X10436729Y-24216960D01*
X10436729Y-24216960D02*
X10446253Y-24207436D01*
X10446253Y-24207436D02*
X10446253Y-24226484D01*
X10627205Y-24093150D02*
X10627205Y-24226484D01*
X10579586Y-24016960D02*
X10531967Y-24159817D01*
X10531967Y-24159817D02*
X10655777Y-24159817D01*
X10770063Y-24026484D02*
X10789110Y-24026484D01*
X10789110Y-24026484D02*
X10808158Y-24036008D01*
X10808158Y-24036008D02*
X10817682Y-24045531D01*
X10817682Y-24045531D02*
X10827205Y-24064579D01*
X10827205Y-24064579D02*
X10836729Y-24102674D01*
X10836729Y-24102674D02*
X10836729Y-24150293D01*
X10836729Y-24150293D02*
X10827205Y-24188388D01*
X10827205Y-24188388D02*
X10817682Y-24207436D01*
X10817682Y-24207436D02*
X10808158Y-24216960D01*
X10808158Y-24216960D02*
X10789110Y-24226484D01*
X10789110Y-24226484D02*
X10770063Y-24226484D01*
X10770063Y-24226484D02*
X10751015Y-24216960D01*
X10751015Y-24216960D02*
X10741491Y-24207436D01*
X10741491Y-24207436D02*
X10731967Y-24188388D01*
X10731967Y-24188388D02*
X10722444Y-24150293D01*
X10722444Y-24150293D02*
X10722444Y-24102674D01*
X10722444Y-24102674D02*
X10731967Y-24064579D01*
X10731967Y-24064579D02*
X10741491Y-24045531D01*
X10741491Y-24045531D02*
X10751015Y-24036008D01*
X10751015Y-24036008D02*
X10770063Y-24026484D01*
X10960539Y-24026484D02*
X10979586Y-24026484D01*
X10979586Y-24026484D02*
X10998634Y-24036008D01*
X10998634Y-24036008D02*
X11008158Y-24045531D01*
X11008158Y-24045531D02*
X11017682Y-24064579D01*
X11017682Y-24064579D02*
X11027205Y-24102674D01*
X11027205Y-24102674D02*
X11027205Y-24150293D01*
X11027205Y-24150293D02*
X11017682Y-24188388D01*
X11017682Y-24188388D02*
X11008158Y-24207436D01*
X11008158Y-24207436D02*
X10998634Y-24216960D01*
X10998634Y-24216960D02*
X10979586Y-24226484D01*
X10979586Y-24226484D02*
X10960539Y-24226484D01*
X10960539Y-24226484D02*
X10941491Y-24216960D01*
X10941491Y-24216960D02*
X10931967Y-24207436D01*
X10931967Y-24207436D02*
X10922444Y-24188388D01*
X10922444Y-24188388D02*
X10912920Y-24150293D01*
X10912920Y-24150293D02*
X10912920Y-24102674D01*
X10912920Y-24102674D02*
X10922444Y-24064579D01*
X10922444Y-24064579D02*
X10931967Y-24045531D01*
X10931967Y-24045531D02*
X10941491Y-24036008D01*
X10941491Y-24036008D02*
X10960539Y-24026484D01*
X11112920Y-24226484D02*
X11112920Y-24093150D01*
X11112920Y-24112198D02*
X11122444Y-24102674D01*
X11122444Y-24102674D02*
X11141491Y-24093150D01*
X11141491Y-24093150D02*
X11170063Y-24093150D01*
X11170063Y-24093150D02*
X11189110Y-24102674D01*
X11189110Y-24102674D02*
X11198634Y-24121722D01*
X11198634Y-24121722D02*
X11198634Y-24226484D01*
X11198634Y-24121722D02*
X11208158Y-24102674D01*
X11208158Y-24102674D02*
X11227205Y-24093150D01*
X11227205Y-24093150D02*
X11255777Y-24093150D01*
X11255777Y-24093150D02*
X11274824Y-24102674D01*
X11274824Y-24102674D02*
X11284348Y-24121722D01*
X11284348Y-24121722D02*
X11284348Y-24226484D01*
X11379586Y-24226484D02*
X11379586Y-24093150D01*
X11379586Y-24112198D02*
X11389110Y-24102674D01*
X11389110Y-24102674D02*
X11408158Y-24093150D01*
X11408158Y-24093150D02*
X11436729Y-24093150D01*
X11436729Y-24093150D02*
X11455777Y-24102674D01*
X11455777Y-24102674D02*
X11465301Y-24121722D01*
X11465301Y-24121722D02*
X11465301Y-24226484D01*
X11465301Y-24121722D02*
X11474824Y-24102674D01*
X11474824Y-24102674D02*
X11493872Y-24093150D01*
X11493872Y-24093150D02*
X11522443Y-24093150D01*
X11522443Y-24093150D02*
X11541491Y-24102674D01*
X11541491Y-24102674D02*
X11551015Y-24121722D01*
X11551015Y-24121722D02*
X11551015Y-24226484D01*
X11941491Y-24016960D02*
X11770063Y-24274103D01*
X12198634Y-24026484D02*
X12217682Y-24026484D01*
X12217682Y-24026484D02*
X12236729Y-24036008D01*
X12236729Y-24036008D02*
X12246253Y-24045531D01*
X12246253Y-24045531D02*
X12255777Y-24064579D01*
X12255777Y-24064579D02*
X12265301Y-24102674D01*
X12265301Y-24102674D02*
X12265301Y-24150293D01*
X12265301Y-24150293D02*
X12255777Y-24188388D01*
X12255777Y-24188388D02*
X12246253Y-24207436D01*
X12246253Y-24207436D02*
X12236729Y-24216960D01*
X12236729Y-24216960D02*
X12217682Y-24226484D01*
X12217682Y-24226484D02*
X12198634Y-24226484D01*
X12198634Y-24226484D02*
X12179586Y-24216960D01*
X12179586Y-24216960D02*
X12170063Y-24207436D01*
X12170063Y-24207436D02*
X12160539Y-24188388D01*
X12160539Y-24188388D02*
X12151015Y-24150293D01*
X12151015Y-24150293D02*
X12151015Y-24102674D01*
X12151015Y-24102674D02*
X12160539Y-24064579D01*
X12160539Y-24064579D02*
X12170063Y-24045531D01*
X12170063Y-24045531D02*
X12179586Y-24036008D01*
X12179586Y-24036008D02*
X12198634Y-24026484D01*
X12351015Y-24207436D02*
X12360539Y-24216960D01*
X12360539Y-24216960D02*
X12351015Y-24226484D01*
X12351015Y-24226484D02*
X12341491Y-24216960D01*
X12341491Y-24216960D02*
X12351015Y-24207436D01*
X12351015Y-24207436D02*
X12351015Y-24226484D01*
X12436729Y-24045531D02*
X12446253Y-24036008D01*
X12446253Y-24036008D02*
X12465301Y-24026484D01*
X12465301Y-24026484D02*
X12512920Y-24026484D01*
X12512920Y-24026484D02*
X12531967Y-24036008D01*
X12531967Y-24036008D02*
X12541491Y-24045531D01*
X12541491Y-24045531D02*
X12551015Y-24064579D01*
X12551015Y-24064579D02*
X12551015Y-24083627D01*
X12551015Y-24083627D02*
X12541491Y-24112198D01*
X12541491Y-24112198D02*
X12427206Y-24226484D01*
X12427206Y-24226484D02*
X12551015Y-24226484D01*
X12731967Y-24026484D02*
X12636729Y-24026484D01*
X12636729Y-24026484D02*
X12627206Y-24121722D01*
X12627206Y-24121722D02*
X12636729Y-24112198D01*
X12636729Y-24112198D02*
X12655777Y-24102674D01*
X12655777Y-24102674D02*
X12703396Y-24102674D01*
X12703396Y-24102674D02*
X12722444Y-24112198D01*
X12722444Y-24112198D02*
X12731967Y-24121722D01*
X12731967Y-24121722D02*
X12741491Y-24140769D01*
X12741491Y-24140769D02*
X12741491Y-24188388D01*
X12741491Y-24188388D02*
X12731967Y-24207436D01*
X12731967Y-24207436D02*
X12722444Y-24216960D01*
X12722444Y-24216960D02*
X12703396Y-24226484D01*
X12703396Y-24226484D02*
X12655777Y-24226484D01*
X12655777Y-24226484D02*
X12636729Y-24216960D01*
X12636729Y-24216960D02*
X12627206Y-24207436D01*
X12817682Y-24045531D02*
X12827206Y-24036008D01*
X12827206Y-24036008D02*
X12846253Y-24026484D01*
X12846253Y-24026484D02*
X12893872Y-24026484D01*
X12893872Y-24026484D02*
X12912920Y-24036008D01*
X12912920Y-24036008D02*
X12922444Y-24045531D01*
X12922444Y-24045531D02*
X12931967Y-24064579D01*
X12931967Y-24064579D02*
X12931967Y-24083627D01*
X12931967Y-24083627D02*
X12922444Y-24112198D01*
X12922444Y-24112198D02*
X12808158Y-24226484D01*
X12808158Y-24226484D02*
X12931967Y-24226484D01*
X13055777Y-24026484D02*
X13074825Y-24026484D01*
X13074825Y-24026484D02*
X13093872Y-24036008D01*
X13093872Y-24036008D02*
X13103396Y-24045531D01*
X13103396Y-24045531D02*
X13112920Y-24064579D01*
X13112920Y-24064579D02*
X13122444Y-24102674D01*
X13122444Y-24102674D02*
X13122444Y-24150293D01*
X13122444Y-24150293D02*
X13112920Y-24188388D01*
X13112920Y-24188388D02*
X13103396Y-24207436D01*
X13103396Y-24207436D02*
X13093872Y-24216960D01*
X13093872Y-24216960D02*
X13074825Y-24226484D01*
X13074825Y-24226484D02*
X13055777Y-24226484D01*
X13055777Y-24226484D02*
X13036729Y-24216960D01*
X13036729Y-24216960D02*
X13027206Y-24207436D01*
X13027206Y-24207436D02*
X13017682Y-24188388D01*
X13017682Y-24188388D02*
X13008158Y-24150293D01*
X13008158Y-24150293D02*
X13008158Y-24102674D01*
X13008158Y-24102674D02*
X13017682Y-24064579D01*
X13017682Y-24064579D02*
X13027206Y-24045531D01*
X13027206Y-24045531D02*
X13036729Y-24036008D01*
X13036729Y-24036008D02*
X13055777Y-24026484D01*
X13198634Y-24026484D02*
X13198634Y-24064579D01*
X13274825Y-24026484D02*
X13274825Y-24064579D01*
X13570063Y-24302674D02*
X13560539Y-24293150D01*
X13560539Y-24293150D02*
X13541491Y-24264579D01*
X13541491Y-24264579D02*
X13531968Y-24245531D01*
X13531968Y-24245531D02*
X13522444Y-24216960D01*
X13522444Y-24216960D02*
X13512920Y-24169341D01*
X13512920Y-24169341D02*
X13512920Y-24131246D01*
X13512920Y-24131246D02*
X13522444Y-24083627D01*
X13522444Y-24083627D02*
X13531968Y-24055055D01*
X13531968Y-24055055D02*
X13541491Y-24036008D01*
X13541491Y-24036008D02*
X13560539Y-24007436D01*
X13560539Y-24007436D02*
X13570063Y-23997912D01*
X13655777Y-24226484D02*
X13693872Y-24226484D01*
X13693872Y-24226484D02*
X13712920Y-24216960D01*
X13712920Y-24216960D02*
X13722444Y-24207436D01*
X13722444Y-24207436D02*
X13741491Y-24178865D01*
X13741491Y-24178865D02*
X13751015Y-24140769D01*
X13751015Y-24140769D02*
X13751015Y-24064579D01*
X13751015Y-24064579D02*
X13741491Y-24045531D01*
X13741491Y-24045531D02*
X13731968Y-24036008D01*
X13731968Y-24036008D02*
X13712920Y-24026484D01*
X13712920Y-24026484D02*
X13674825Y-24026484D01*
X13674825Y-24026484D02*
X13655777Y-24036008D01*
X13655777Y-24036008D02*
X13646253Y-24045531D01*
X13646253Y-24045531D02*
X13636729Y-24064579D01*
X13636729Y-24064579D02*
X13636729Y-24112198D01*
X13636729Y-24112198D02*
X13646253Y-24131246D01*
X13646253Y-24131246D02*
X13655777Y-24140769D01*
X13655777Y-24140769D02*
X13674825Y-24150293D01*
X13674825Y-24150293D02*
X13712920Y-24150293D01*
X13712920Y-24150293D02*
X13731968Y-24140769D01*
X13731968Y-24140769D02*
X13741491Y-24131246D01*
X13741491Y-24131246D02*
X13751015Y-24112198D01*
X13989110Y-24226484D02*
X13989110Y-24026484D01*
X14074825Y-24226484D02*
X14074825Y-24121722D01*
X14074825Y-24121722D02*
X14065301Y-24102674D01*
X14065301Y-24102674D02*
X14046253Y-24093150D01*
X14046253Y-24093150D02*
X14017682Y-24093150D01*
X14017682Y-24093150D02*
X13998634Y-24102674D01*
X13998634Y-24102674D02*
X13989110Y-24112198D01*
X14198634Y-24226484D02*
X14179587Y-24216960D01*
X14179587Y-24216960D02*
X14170063Y-24207436D01*
X14170063Y-24207436D02*
X14160539Y-24188388D01*
X14160539Y-24188388D02*
X14160539Y-24131246D01*
X14160539Y-24131246D02*
X14170063Y-24112198D01*
X14170063Y-24112198D02*
X14179587Y-24102674D01*
X14179587Y-24102674D02*
X14198634Y-24093150D01*
X14198634Y-24093150D02*
X14227206Y-24093150D01*
X14227206Y-24093150D02*
X14246253Y-24102674D01*
X14246253Y-24102674D02*
X14255777Y-24112198D01*
X14255777Y-24112198D02*
X14265301Y-24131246D01*
X14265301Y-24131246D02*
X14265301Y-24188388D01*
X14265301Y-24188388D02*
X14255777Y-24207436D01*
X14255777Y-24207436D02*
X14246253Y-24216960D01*
X14246253Y-24216960D02*
X14227206Y-24226484D01*
X14227206Y-24226484D02*
X14198634Y-24226484D01*
X14379587Y-24226484D02*
X14360539Y-24216960D01*
X14360539Y-24216960D02*
X14351015Y-24197912D01*
X14351015Y-24197912D02*
X14351015Y-24026484D01*
X14531968Y-24216960D02*
X14512920Y-24226484D01*
X14512920Y-24226484D02*
X14474825Y-24226484D01*
X14474825Y-24226484D02*
X14455777Y-24216960D01*
X14455777Y-24216960D02*
X14446253Y-24197912D01*
X14446253Y-24197912D02*
X14446253Y-24121722D01*
X14446253Y-24121722D02*
X14455777Y-24102674D01*
X14455777Y-24102674D02*
X14474825Y-24093150D01*
X14474825Y-24093150D02*
X14512920Y-24093150D01*
X14512920Y-24093150D02*
X14531968Y-24102674D01*
X14531968Y-24102674D02*
X14541491Y-24121722D01*
X14541491Y-24121722D02*
X14541491Y-24140769D01*
X14541491Y-24140769D02*
X14446253Y-24159817D01*
X14617682Y-24216960D02*
X14636730Y-24226484D01*
X14636730Y-24226484D02*
X14674825Y-24226484D01*
X14674825Y-24226484D02*
X14693872Y-24216960D01*
X14693872Y-24216960D02*
X14703396Y-24197912D01*
X14703396Y-24197912D02*
X14703396Y-24188388D01*
X14703396Y-24188388D02*
X14693872Y-24169341D01*
X14693872Y-24169341D02*
X14674825Y-24159817D01*
X14674825Y-24159817D02*
X14646253Y-24159817D01*
X14646253Y-24159817D02*
X14627206Y-24150293D01*
X14627206Y-24150293D02*
X14617682Y-24131246D01*
X14617682Y-24131246D02*
X14617682Y-24121722D01*
X14617682Y-24121722D02*
X14627206Y-24102674D01*
X14627206Y-24102674D02*
X14646253Y-24093150D01*
X14646253Y-24093150D02*
X14674825Y-24093150D01*
X14674825Y-24093150D02*
X14693872Y-24102674D01*
X14770063Y-24302674D02*
X14779587Y-24293150D01*
X14779587Y-24293150D02*
X14798634Y-24264579D01*
X14798634Y-24264579D02*
X14808158Y-24245531D01*
X14808158Y-24245531D02*
X14817682Y-24216960D01*
X14817682Y-24216960D02*
X14827206Y-24169341D01*
X14827206Y-24169341D02*
X14827206Y-24131246D01*
X14827206Y-24131246D02*
X14817682Y-24083627D01*
X14817682Y-24083627D02*
X14808158Y-24055055D01*
X14808158Y-24055055D02*
X14798634Y-24036008D01*
X14798634Y-24036008D02*
X14779587Y-24007436D01*
X14779587Y-24007436D02*
X14770063Y-23997912D01*
X15131968Y-24302674D02*
X15122444Y-24293150D01*
X15122444Y-24293150D02*
X15103396Y-24264579D01*
X15103396Y-24264579D02*
X15093872Y-24245531D01*
X15093872Y-24245531D02*
X15084349Y-24216960D01*
X15084349Y-24216960D02*
X15074825Y-24169341D01*
X15074825Y-24169341D02*
X15074825Y-24131246D01*
X15074825Y-24131246D02*
X15084349Y-24083627D01*
X15084349Y-24083627D02*
X15093872Y-24055055D01*
X15093872Y-24055055D02*
X15103396Y-24036008D01*
X15103396Y-24036008D02*
X15122444Y-24007436D01*
X15122444Y-24007436D02*
X15131968Y-23997912D01*
X15208158Y-24093150D02*
X15208158Y-24226484D01*
X15208158Y-24112198D02*
X15217682Y-24102674D01*
X15217682Y-24102674D02*
X15236730Y-24093150D01*
X15236730Y-24093150D02*
X15265301Y-24093150D01*
X15265301Y-24093150D02*
X15284349Y-24102674D01*
X15284349Y-24102674D02*
X15293872Y-24121722D01*
X15293872Y-24121722D02*
X15293872Y-24226484D01*
X15417682Y-24226484D02*
X15398634Y-24216960D01*
X15398634Y-24216960D02*
X15389111Y-24207436D01*
X15389111Y-24207436D02*
X15379587Y-24188388D01*
X15379587Y-24188388D02*
X15379587Y-24131246D01*
X15379587Y-24131246D02*
X15389111Y-24112198D01*
X15389111Y-24112198D02*
X15398634Y-24102674D01*
X15398634Y-24102674D02*
X15417682Y-24093150D01*
X15417682Y-24093150D02*
X15446253Y-24093150D01*
X15446253Y-24093150D02*
X15465301Y-24102674D01*
X15465301Y-24102674D02*
X15474825Y-24112198D01*
X15474825Y-24112198D02*
X15484349Y-24131246D01*
X15484349Y-24131246D02*
X15484349Y-24188388D01*
X15484349Y-24188388D02*
X15474825Y-24207436D01*
X15474825Y-24207436D02*
X15465301Y-24216960D01*
X15465301Y-24216960D02*
X15446253Y-24226484D01*
X15446253Y-24226484D02*
X15417682Y-24226484D01*
X15541492Y-24093150D02*
X15617682Y-24093150D01*
X15570063Y-24026484D02*
X15570063Y-24197912D01*
X15570063Y-24197912D02*
X15579587Y-24216960D01*
X15579587Y-24216960D02*
X15598634Y-24226484D01*
X15598634Y-24226484D02*
X15617682Y-24226484D01*
X15836730Y-24093150D02*
X15836730Y-24293150D01*
X15836730Y-24102674D02*
X15855777Y-24093150D01*
X15855777Y-24093150D02*
X15893873Y-24093150D01*
X15893873Y-24093150D02*
X15912920Y-24102674D01*
X15912920Y-24102674D02*
X15922444Y-24112198D01*
X15922444Y-24112198D02*
X15931968Y-24131246D01*
X15931968Y-24131246D02*
X15931968Y-24188388D01*
X15931968Y-24188388D02*
X15922444Y-24207436D01*
X15922444Y-24207436D02*
X15912920Y-24216960D01*
X15912920Y-24216960D02*
X15893873Y-24226484D01*
X15893873Y-24226484D02*
X15855777Y-24226484D01*
X15855777Y-24226484D02*
X15836730Y-24216960D01*
X16046253Y-24226484D02*
X16027206Y-24216960D01*
X16027206Y-24216960D02*
X16017682Y-24197912D01*
X16017682Y-24197912D02*
X16017682Y-24026484D01*
X16208158Y-24226484D02*
X16208158Y-24121722D01*
X16208158Y-24121722D02*
X16198634Y-24102674D01*
X16198634Y-24102674D02*
X16179587Y-24093150D01*
X16179587Y-24093150D02*
X16141492Y-24093150D01*
X16141492Y-24093150D02*
X16122444Y-24102674D01*
X16208158Y-24216960D02*
X16189111Y-24226484D01*
X16189111Y-24226484D02*
X16141492Y-24226484D01*
X16141492Y-24226484D02*
X16122444Y-24216960D01*
X16122444Y-24216960D02*
X16112920Y-24197912D01*
X16112920Y-24197912D02*
X16112920Y-24178865D01*
X16112920Y-24178865D02*
X16122444Y-24159817D01*
X16122444Y-24159817D02*
X16141492Y-24150293D01*
X16141492Y-24150293D02*
X16189111Y-24150293D01*
X16189111Y-24150293D02*
X16208158Y-24140769D01*
X16274825Y-24093150D02*
X16351015Y-24093150D01*
X16303396Y-24026484D02*
X16303396Y-24197912D01*
X16303396Y-24197912D02*
X16312920Y-24216960D01*
X16312920Y-24216960D02*
X16331968Y-24226484D01*
X16331968Y-24226484D02*
X16351015Y-24226484D01*
X16493873Y-24216960D02*
X16474825Y-24226484D01*
X16474825Y-24226484D02*
X16436730Y-24226484D01*
X16436730Y-24226484D02*
X16417682Y-24216960D01*
X16417682Y-24216960D02*
X16408158Y-24197912D01*
X16408158Y-24197912D02*
X16408158Y-24121722D01*
X16408158Y-24121722D02*
X16417682Y-24102674D01*
X16417682Y-24102674D02*
X16436730Y-24093150D01*
X16436730Y-24093150D02*
X16474825Y-24093150D01*
X16474825Y-24093150D02*
X16493873Y-24102674D01*
X16493873Y-24102674D02*
X16503396Y-24121722D01*
X16503396Y-24121722D02*
X16503396Y-24140769D01*
X16503396Y-24140769D02*
X16408158Y-24159817D01*
X16674825Y-24226484D02*
X16674825Y-24026484D01*
X16674825Y-24216960D02*
X16655777Y-24226484D01*
X16655777Y-24226484D02*
X16617682Y-24226484D01*
X16617682Y-24226484D02*
X16598634Y-24216960D01*
X16598634Y-24216960D02*
X16589111Y-24207436D01*
X16589111Y-24207436D02*
X16579587Y-24188388D01*
X16579587Y-24188388D02*
X16579587Y-24131246D01*
X16579587Y-24131246D02*
X16589111Y-24112198D01*
X16589111Y-24112198D02*
X16598634Y-24102674D01*
X16598634Y-24102674D02*
X16617682Y-24093150D01*
X16617682Y-24093150D02*
X16655777Y-24093150D01*
X16655777Y-24093150D02*
X16674825Y-24102674D01*
X16751015Y-24302674D02*
X16760539Y-24293150D01*
X16760539Y-24293150D02*
X16779587Y-24264579D01*
X16779587Y-24264579D02*
X16789111Y-24245531D01*
X16789111Y-24245531D02*
X16798635Y-24216960D01*
X16798635Y-24216960D02*
X16808158Y-24169341D01*
X16808158Y-24169341D02*
X16808158Y-24131246D01*
X16808158Y-24131246D02*
X16798635Y-24083627D01*
X16798635Y-24083627D02*
X16789111Y-24055055D01*
X16789111Y-24055055D02*
X16779587Y-24036008D01*
X16779587Y-24036008D02*
X16760539Y-24007436D01*
X16760539Y-24007436D02*
X16751015Y-23997912D01*
X9965711Y-24525711D02*
X9965711Y-24384289D01*
X9824289Y-24384289D01*
X9824289Y-24525711D01*
X9965711Y-24525711D01*
X10236729Y-24346484D02*
X10370063Y-24346484D01*
X10370063Y-24346484D02*
X10284348Y-24546484D01*
X10446253Y-24527436D02*
X10455777Y-24536960D01*
X10455777Y-24536960D02*
X10446253Y-24546484D01*
X10446253Y-24546484D02*
X10436729Y-24536960D01*
X10436729Y-24536960D02*
X10446253Y-24527436D01*
X10446253Y-24527436D02*
X10446253Y-24546484D01*
X10531967Y-24365531D02*
X10541491Y-24356008D01*
X10541491Y-24356008D02*
X10560539Y-24346484D01*
X10560539Y-24346484D02*
X10608158Y-24346484D01*
X10608158Y-24346484D02*
X10627205Y-24356008D01*
X10627205Y-24356008D02*
X10636729Y-24365531D01*
X10636729Y-24365531D02*
X10646253Y-24384579D01*
X10646253Y-24384579D02*
X10646253Y-24403627D01*
X10646253Y-24403627D02*
X10636729Y-24432198D01*
X10636729Y-24432198D02*
X10522444Y-24546484D01*
X10522444Y-24546484D02*
X10646253Y-24546484D01*
X10770063Y-24346484D02*
X10789110Y-24346484D01*
X10789110Y-24346484D02*
X10808158Y-24356008D01*
X10808158Y-24356008D02*
X10817682Y-24365531D01*
X10817682Y-24365531D02*
X10827205Y-24384579D01*
X10827205Y-24384579D02*
X10836729Y-24422674D01*
X10836729Y-24422674D02*
X10836729Y-24470293D01*
X10836729Y-24470293D02*
X10827205Y-24508388D01*
X10827205Y-24508388D02*
X10817682Y-24527436D01*
X10817682Y-24527436D02*
X10808158Y-24536960D01*
X10808158Y-24536960D02*
X10789110Y-24546484D01*
X10789110Y-24546484D02*
X10770063Y-24546484D01*
X10770063Y-24546484D02*
X10751015Y-24536960D01*
X10751015Y-24536960D02*
X10741491Y-24527436D01*
X10741491Y-24527436D02*
X10731967Y-24508388D01*
X10731967Y-24508388D02*
X10722444Y-24470293D01*
X10722444Y-24470293D02*
X10722444Y-24422674D01*
X10722444Y-24422674D02*
X10731967Y-24384579D01*
X10731967Y-24384579D02*
X10741491Y-24365531D01*
X10741491Y-24365531D02*
X10751015Y-24356008D01*
X10751015Y-24356008D02*
X10770063Y-24346484D01*
X10960539Y-24346484D02*
X10979586Y-24346484D01*
X10979586Y-24346484D02*
X10998634Y-24356008D01*
X10998634Y-24356008D02*
X11008158Y-24365531D01*
X11008158Y-24365531D02*
X11017682Y-24384579D01*
X11017682Y-24384579D02*
X11027205Y-24422674D01*
X11027205Y-24422674D02*
X11027205Y-24470293D01*
X11027205Y-24470293D02*
X11017682Y-24508388D01*
X11017682Y-24508388D02*
X11008158Y-24527436D01*
X11008158Y-24527436D02*
X10998634Y-24536960D01*
X10998634Y-24536960D02*
X10979586Y-24546484D01*
X10979586Y-24546484D02*
X10960539Y-24546484D01*
X10960539Y-24546484D02*
X10941491Y-24536960D01*
X10941491Y-24536960D02*
X10931967Y-24527436D01*
X10931967Y-24527436D02*
X10922444Y-24508388D01*
X10922444Y-24508388D02*
X10912920Y-24470293D01*
X10912920Y-24470293D02*
X10912920Y-24422674D01*
X10912920Y-24422674D02*
X10922444Y-24384579D01*
X10922444Y-24384579D02*
X10931967Y-24365531D01*
X10931967Y-24365531D02*
X10941491Y-24356008D01*
X10941491Y-24356008D02*
X10960539Y-24346484D01*
X11112920Y-24546484D02*
X11112920Y-24413150D01*
X11112920Y-24432198D02*
X11122444Y-24422674D01*
X11122444Y-24422674D02*
X11141491Y-24413150D01*
X11141491Y-24413150D02*
X11170063Y-24413150D01*
X11170063Y-24413150D02*
X11189110Y-24422674D01*
X11189110Y-24422674D02*
X11198634Y-24441722D01*
X11198634Y-24441722D02*
X11198634Y-24546484D01*
X11198634Y-24441722D02*
X11208158Y-24422674D01*
X11208158Y-24422674D02*
X11227205Y-24413150D01*
X11227205Y-24413150D02*
X11255777Y-24413150D01*
X11255777Y-24413150D02*
X11274824Y-24422674D01*
X11274824Y-24422674D02*
X11284348Y-24441722D01*
X11284348Y-24441722D02*
X11284348Y-24546484D01*
X11379586Y-24546484D02*
X11379586Y-24413150D01*
X11379586Y-24432198D02*
X11389110Y-24422674D01*
X11389110Y-24422674D02*
X11408158Y-24413150D01*
X11408158Y-24413150D02*
X11436729Y-24413150D01*
X11436729Y-24413150D02*
X11455777Y-24422674D01*
X11455777Y-24422674D02*
X11465301Y-24441722D01*
X11465301Y-24441722D02*
X11465301Y-24546484D01*
X11465301Y-24441722D02*
X11474824Y-24422674D01*
X11474824Y-24422674D02*
X11493872Y-24413150D01*
X11493872Y-24413150D02*
X11522443Y-24413150D01*
X11522443Y-24413150D02*
X11541491Y-24422674D01*
X11541491Y-24422674D02*
X11551015Y-24441722D01*
X11551015Y-24441722D02*
X11551015Y-24546484D01*
X11941491Y-24336960D02*
X11770063Y-24594103D01*
X12198634Y-24346484D02*
X12217682Y-24346484D01*
X12217682Y-24346484D02*
X12236729Y-24356008D01*
X12236729Y-24356008D02*
X12246253Y-24365531D01*
X12246253Y-24365531D02*
X12255777Y-24384579D01*
X12255777Y-24384579D02*
X12265301Y-24422674D01*
X12265301Y-24422674D02*
X12265301Y-24470293D01*
X12265301Y-24470293D02*
X12255777Y-24508388D01*
X12255777Y-24508388D02*
X12246253Y-24527436D01*
X12246253Y-24527436D02*
X12236729Y-24536960D01*
X12236729Y-24536960D02*
X12217682Y-24546484D01*
X12217682Y-24546484D02*
X12198634Y-24546484D01*
X12198634Y-24546484D02*
X12179586Y-24536960D01*
X12179586Y-24536960D02*
X12170063Y-24527436D01*
X12170063Y-24527436D02*
X12160539Y-24508388D01*
X12160539Y-24508388D02*
X12151015Y-24470293D01*
X12151015Y-24470293D02*
X12151015Y-24422674D01*
X12151015Y-24422674D02*
X12160539Y-24384579D01*
X12160539Y-24384579D02*
X12170063Y-24365531D01*
X12170063Y-24365531D02*
X12179586Y-24356008D01*
X12179586Y-24356008D02*
X12198634Y-24346484D01*
X12351015Y-24527436D02*
X12360539Y-24536960D01*
X12360539Y-24536960D02*
X12351015Y-24546484D01*
X12351015Y-24546484D02*
X12341491Y-24536960D01*
X12341491Y-24536960D02*
X12351015Y-24527436D01*
X12351015Y-24527436D02*
X12351015Y-24546484D01*
X12436729Y-24365531D02*
X12446253Y-24356008D01*
X12446253Y-24356008D02*
X12465301Y-24346484D01*
X12465301Y-24346484D02*
X12512920Y-24346484D01*
X12512920Y-24346484D02*
X12531967Y-24356008D01*
X12531967Y-24356008D02*
X12541491Y-24365531D01*
X12541491Y-24365531D02*
X12551015Y-24384579D01*
X12551015Y-24384579D02*
X12551015Y-24403627D01*
X12551015Y-24403627D02*
X12541491Y-24432198D01*
X12541491Y-24432198D02*
X12427206Y-24546484D01*
X12427206Y-24546484D02*
X12551015Y-24546484D01*
X12665301Y-24432198D02*
X12646253Y-24422674D01*
X12646253Y-24422674D02*
X12636729Y-24413150D01*
X12636729Y-24413150D02*
X12627206Y-24394103D01*
X12627206Y-24394103D02*
X12627206Y-24384579D01*
X12627206Y-24384579D02*
X12636729Y-24365531D01*
X12636729Y-24365531D02*
X12646253Y-24356008D01*
X12646253Y-24356008D02*
X12665301Y-24346484D01*
X12665301Y-24346484D02*
X12703396Y-24346484D01*
X12703396Y-24346484D02*
X12722444Y-24356008D01*
X12722444Y-24356008D02*
X12731967Y-24365531D01*
X12731967Y-24365531D02*
X12741491Y-24384579D01*
X12741491Y-24384579D02*
X12741491Y-24394103D01*
X12741491Y-24394103D02*
X12731967Y-24413150D01*
X12731967Y-24413150D02*
X12722444Y-24422674D01*
X12722444Y-24422674D02*
X12703396Y-24432198D01*
X12703396Y-24432198D02*
X12665301Y-24432198D01*
X12665301Y-24432198D02*
X12646253Y-24441722D01*
X12646253Y-24441722D02*
X12636729Y-24451246D01*
X12636729Y-24451246D02*
X12627206Y-24470293D01*
X12627206Y-24470293D02*
X12627206Y-24508388D01*
X12627206Y-24508388D02*
X12636729Y-24527436D01*
X12636729Y-24527436D02*
X12646253Y-24536960D01*
X12646253Y-24536960D02*
X12665301Y-24546484D01*
X12665301Y-24546484D02*
X12703396Y-24546484D01*
X12703396Y-24546484D02*
X12722444Y-24536960D01*
X12722444Y-24536960D02*
X12731967Y-24527436D01*
X12731967Y-24527436D02*
X12741491Y-24508388D01*
X12741491Y-24508388D02*
X12741491Y-24470293D01*
X12741491Y-24470293D02*
X12731967Y-24451246D01*
X12731967Y-24451246D02*
X12722444Y-24441722D01*
X12722444Y-24441722D02*
X12703396Y-24432198D01*
X12808158Y-24346484D02*
X12931967Y-24346484D01*
X12931967Y-24346484D02*
X12865301Y-24422674D01*
X12865301Y-24422674D02*
X12893872Y-24422674D01*
X12893872Y-24422674D02*
X12912920Y-24432198D01*
X12912920Y-24432198D02*
X12922444Y-24441722D01*
X12922444Y-24441722D02*
X12931967Y-24460769D01*
X12931967Y-24460769D02*
X12931967Y-24508388D01*
X12931967Y-24508388D02*
X12922444Y-24527436D01*
X12922444Y-24527436D02*
X12912920Y-24536960D01*
X12912920Y-24536960D02*
X12893872Y-24546484D01*
X12893872Y-24546484D02*
X12836729Y-24546484D01*
X12836729Y-24546484D02*
X12817682Y-24536960D01*
X12817682Y-24536960D02*
X12808158Y-24527436D01*
X13112920Y-24346484D02*
X13017682Y-24346484D01*
X13017682Y-24346484D02*
X13008158Y-24441722D01*
X13008158Y-24441722D02*
X13017682Y-24432198D01*
X13017682Y-24432198D02*
X13036729Y-24422674D01*
X13036729Y-24422674D02*
X13084348Y-24422674D01*
X13084348Y-24422674D02*
X13103396Y-24432198D01*
X13103396Y-24432198D02*
X13112920Y-24441722D01*
X13112920Y-24441722D02*
X13122444Y-24460769D01*
X13122444Y-24460769D02*
X13122444Y-24508388D01*
X13122444Y-24508388D02*
X13112920Y-24527436D01*
X13112920Y-24527436D02*
X13103396Y-24536960D01*
X13103396Y-24536960D02*
X13084348Y-24546484D01*
X13084348Y-24546484D02*
X13036729Y-24546484D01*
X13036729Y-24546484D02*
X13017682Y-24536960D01*
X13017682Y-24536960D02*
X13008158Y-24527436D01*
X13198634Y-24346484D02*
X13198634Y-24384579D01*
X13274825Y-24346484D02*
X13274825Y-24384579D01*
X13570063Y-24622674D02*
X13560539Y-24613150D01*
X13560539Y-24613150D02*
X13541491Y-24584579D01*
X13541491Y-24584579D02*
X13531968Y-24565531D01*
X13531968Y-24565531D02*
X13522444Y-24536960D01*
X13522444Y-24536960D02*
X13512920Y-24489341D01*
X13512920Y-24489341D02*
X13512920Y-24451246D01*
X13512920Y-24451246D02*
X13522444Y-24403627D01*
X13522444Y-24403627D02*
X13531968Y-24375055D01*
X13531968Y-24375055D02*
X13541491Y-24356008D01*
X13541491Y-24356008D02*
X13560539Y-24327436D01*
X13560539Y-24327436D02*
X13570063Y-24317912D01*
X13741491Y-24346484D02*
X13646253Y-24346484D01*
X13646253Y-24346484D02*
X13636729Y-24441722D01*
X13636729Y-24441722D02*
X13646253Y-24432198D01*
X13646253Y-24432198D02*
X13665301Y-24422674D01*
X13665301Y-24422674D02*
X13712920Y-24422674D01*
X13712920Y-24422674D02*
X13731968Y-24432198D01*
X13731968Y-24432198D02*
X13741491Y-24441722D01*
X13741491Y-24441722D02*
X13751015Y-24460769D01*
X13751015Y-24460769D02*
X13751015Y-24508388D01*
X13751015Y-24508388D02*
X13741491Y-24527436D01*
X13741491Y-24527436D02*
X13731968Y-24536960D01*
X13731968Y-24536960D02*
X13712920Y-24546484D01*
X13712920Y-24546484D02*
X13665301Y-24546484D01*
X13665301Y-24546484D02*
X13646253Y-24536960D01*
X13646253Y-24536960D02*
X13636729Y-24527436D01*
X13989110Y-24546484D02*
X13989110Y-24346484D01*
X14074825Y-24546484D02*
X14074825Y-24441722D01*
X14074825Y-24441722D02*
X14065301Y-24422674D01*
X14065301Y-24422674D02*
X14046253Y-24413150D01*
X14046253Y-24413150D02*
X14017682Y-24413150D01*
X14017682Y-24413150D02*
X13998634Y-24422674D01*
X13998634Y-24422674D02*
X13989110Y-24432198D01*
X14198634Y-24546484D02*
X14179587Y-24536960D01*
X14179587Y-24536960D02*
X14170063Y-24527436D01*
X14170063Y-24527436D02*
X14160539Y-24508388D01*
X14160539Y-24508388D02*
X14160539Y-24451246D01*
X14160539Y-24451246D02*
X14170063Y-24432198D01*
X14170063Y-24432198D02*
X14179587Y-24422674D01*
X14179587Y-24422674D02*
X14198634Y-24413150D01*
X14198634Y-24413150D02*
X14227206Y-24413150D01*
X14227206Y-24413150D02*
X14246253Y-24422674D01*
X14246253Y-24422674D02*
X14255777Y-24432198D01*
X14255777Y-24432198D02*
X14265301Y-24451246D01*
X14265301Y-24451246D02*
X14265301Y-24508388D01*
X14265301Y-24508388D02*
X14255777Y-24527436D01*
X14255777Y-24527436D02*
X14246253Y-24536960D01*
X14246253Y-24536960D02*
X14227206Y-24546484D01*
X14227206Y-24546484D02*
X14198634Y-24546484D01*
X14379587Y-24546484D02*
X14360539Y-24536960D01*
X14360539Y-24536960D02*
X14351015Y-24517912D01*
X14351015Y-24517912D02*
X14351015Y-24346484D01*
X14531968Y-24536960D02*
X14512920Y-24546484D01*
X14512920Y-24546484D02*
X14474825Y-24546484D01*
X14474825Y-24546484D02*
X14455777Y-24536960D01*
X14455777Y-24536960D02*
X14446253Y-24517912D01*
X14446253Y-24517912D02*
X14446253Y-24441722D01*
X14446253Y-24441722D02*
X14455777Y-24422674D01*
X14455777Y-24422674D02*
X14474825Y-24413150D01*
X14474825Y-24413150D02*
X14512920Y-24413150D01*
X14512920Y-24413150D02*
X14531968Y-24422674D01*
X14531968Y-24422674D02*
X14541491Y-24441722D01*
X14541491Y-24441722D02*
X14541491Y-24460769D01*
X14541491Y-24460769D02*
X14446253Y-24479817D01*
X14617682Y-24536960D02*
X14636730Y-24546484D01*
X14636730Y-24546484D02*
X14674825Y-24546484D01*
X14674825Y-24546484D02*
X14693872Y-24536960D01*
X14693872Y-24536960D02*
X14703396Y-24517912D01*
X14703396Y-24517912D02*
X14703396Y-24508388D01*
X14703396Y-24508388D02*
X14693872Y-24489341D01*
X14693872Y-24489341D02*
X14674825Y-24479817D01*
X14674825Y-24479817D02*
X14646253Y-24479817D01*
X14646253Y-24479817D02*
X14627206Y-24470293D01*
X14627206Y-24470293D02*
X14617682Y-24451246D01*
X14617682Y-24451246D02*
X14617682Y-24441722D01*
X14617682Y-24441722D02*
X14627206Y-24422674D01*
X14627206Y-24422674D02*
X14646253Y-24413150D01*
X14646253Y-24413150D02*
X14674825Y-24413150D01*
X14674825Y-24413150D02*
X14693872Y-24422674D01*
X14770063Y-24622674D02*
X14779587Y-24613150D01*
X14779587Y-24613150D02*
X14798634Y-24584579D01*
X14798634Y-24584579D02*
X14808158Y-24565531D01*
X14808158Y-24565531D02*
X14817682Y-24536960D01*
X14817682Y-24536960D02*
X14827206Y-24489341D01*
X14827206Y-24489341D02*
X14827206Y-24451246D01*
X14827206Y-24451246D02*
X14817682Y-24403627D01*
X14817682Y-24403627D02*
X14808158Y-24375055D01*
X14808158Y-24375055D02*
X14798634Y-24356008D01*
X14798634Y-24356008D02*
X14779587Y-24327436D01*
X14779587Y-24327436D02*
X14770063Y-24317912D01*
X15131968Y-24622674D02*
X15122444Y-24613150D01*
X15122444Y-24613150D02*
X15103396Y-24584579D01*
X15103396Y-24584579D02*
X15093872Y-24565531D01*
X15093872Y-24565531D02*
X15084349Y-24536960D01*
X15084349Y-24536960D02*
X15074825Y-24489341D01*
X15074825Y-24489341D02*
X15074825Y-24451246D01*
X15074825Y-24451246D02*
X15084349Y-24403627D01*
X15084349Y-24403627D02*
X15093872Y-24375055D01*
X15093872Y-24375055D02*
X15103396Y-24356008D01*
X15103396Y-24356008D02*
X15122444Y-24327436D01*
X15122444Y-24327436D02*
X15131968Y-24317912D01*
X15208158Y-24413150D02*
X15208158Y-24546484D01*
X15208158Y-24432198D02*
X15217682Y-24422674D01*
X15217682Y-24422674D02*
X15236730Y-24413150D01*
X15236730Y-24413150D02*
X15265301Y-24413150D01*
X15265301Y-24413150D02*
X15284349Y-24422674D01*
X15284349Y-24422674D02*
X15293872Y-24441722D01*
X15293872Y-24441722D02*
X15293872Y-24546484D01*
X15417682Y-24546484D02*
X15398634Y-24536960D01*
X15398634Y-24536960D02*
X15389111Y-24527436D01*
X15389111Y-24527436D02*
X15379587Y-24508388D01*
X15379587Y-24508388D02*
X15379587Y-24451246D01*
X15379587Y-24451246D02*
X15389111Y-24432198D01*
X15389111Y-24432198D02*
X15398634Y-24422674D01*
X15398634Y-24422674D02*
X15417682Y-24413150D01*
X15417682Y-24413150D02*
X15446253Y-24413150D01*
X15446253Y-24413150D02*
X15465301Y-24422674D01*
X15465301Y-24422674D02*
X15474825Y-24432198D01*
X15474825Y-24432198D02*
X15484349Y-24451246D01*
X15484349Y-24451246D02*
X15484349Y-24508388D01*
X15484349Y-24508388D02*
X15474825Y-24527436D01*
X15474825Y-24527436D02*
X15465301Y-24536960D01*
X15465301Y-24536960D02*
X15446253Y-24546484D01*
X15446253Y-24546484D02*
X15417682Y-24546484D01*
X15541492Y-24413150D02*
X15617682Y-24413150D01*
X15570063Y-24346484D02*
X15570063Y-24517912D01*
X15570063Y-24517912D02*
X15579587Y-24536960D01*
X15579587Y-24536960D02*
X15598634Y-24546484D01*
X15598634Y-24546484D02*
X15617682Y-24546484D01*
X15836730Y-24413150D02*
X15836730Y-24613150D01*
X15836730Y-24422674D02*
X15855777Y-24413150D01*
X15855777Y-24413150D02*
X15893873Y-24413150D01*
X15893873Y-24413150D02*
X15912920Y-24422674D01*
X15912920Y-24422674D02*
X15922444Y-24432198D01*
X15922444Y-24432198D02*
X15931968Y-24451246D01*
X15931968Y-24451246D02*
X15931968Y-24508388D01*
X15931968Y-24508388D02*
X15922444Y-24527436D01*
X15922444Y-24527436D02*
X15912920Y-24536960D01*
X15912920Y-24536960D02*
X15893873Y-24546484D01*
X15893873Y-24546484D02*
X15855777Y-24546484D01*
X15855777Y-24546484D02*
X15836730Y-24536960D01*
X16046253Y-24546484D02*
X16027206Y-24536960D01*
X16027206Y-24536960D02*
X16017682Y-24517912D01*
X16017682Y-24517912D02*
X16017682Y-24346484D01*
X16208158Y-24546484D02*
X16208158Y-24441722D01*
X16208158Y-24441722D02*
X16198634Y-24422674D01*
X16198634Y-24422674D02*
X16179587Y-24413150D01*
X16179587Y-24413150D02*
X16141492Y-24413150D01*
X16141492Y-24413150D02*
X16122444Y-24422674D01*
X16208158Y-24536960D02*
X16189111Y-24546484D01*
X16189111Y-24546484D02*
X16141492Y-24546484D01*
X16141492Y-24546484D02*
X16122444Y-24536960D01*
X16122444Y-24536960D02*
X16112920Y-24517912D01*
X16112920Y-24517912D02*
X16112920Y-24498865D01*
X16112920Y-24498865D02*
X16122444Y-24479817D01*
X16122444Y-24479817D02*
X16141492Y-24470293D01*
X16141492Y-24470293D02*
X16189111Y-24470293D01*
X16189111Y-24470293D02*
X16208158Y-24460769D01*
X16274825Y-24413150D02*
X16351015Y-24413150D01*
X16303396Y-24346484D02*
X16303396Y-24517912D01*
X16303396Y-24517912D02*
X16312920Y-24536960D01*
X16312920Y-24536960D02*
X16331968Y-24546484D01*
X16331968Y-24546484D02*
X16351015Y-24546484D01*
X16493873Y-24536960D02*
X16474825Y-24546484D01*
X16474825Y-24546484D02*
X16436730Y-24546484D01*
X16436730Y-24546484D02*
X16417682Y-24536960D01*
X16417682Y-24536960D02*
X16408158Y-24517912D01*
X16408158Y-24517912D02*
X16408158Y-24441722D01*
X16408158Y-24441722D02*
X16417682Y-24422674D01*
X16417682Y-24422674D02*
X16436730Y-24413150D01*
X16436730Y-24413150D02*
X16474825Y-24413150D01*
X16474825Y-24413150D02*
X16493873Y-24422674D01*
X16493873Y-24422674D02*
X16503396Y-24441722D01*
X16503396Y-24441722D02*
X16503396Y-24460769D01*
X16503396Y-24460769D02*
X16408158Y-24479817D01*
X16674825Y-24546484D02*
X16674825Y-24346484D01*
X16674825Y-24536960D02*
X16655777Y-24546484D01*
X16655777Y-24546484D02*
X16617682Y-24546484D01*
X16617682Y-24546484D02*
X16598634Y-24536960D01*
X16598634Y-24536960D02*
X16589111Y-24527436D01*
X16589111Y-24527436D02*
X16579587Y-24508388D01*
X16579587Y-24508388D02*
X16579587Y-24451246D01*
X16579587Y-24451246D02*
X16589111Y-24432198D01*
X16589111Y-24432198D02*
X16598634Y-24422674D01*
X16598634Y-24422674D02*
X16617682Y-24413150D01*
X16617682Y-24413150D02*
X16655777Y-24413150D01*
X16655777Y-24413150D02*
X16674825Y-24422674D01*
X16751015Y-24622674D02*
X16760539Y-24613150D01*
X16760539Y-24613150D02*
X16779587Y-24584579D01*
X16779587Y-24584579D02*
X16789111Y-24565531D01*
X16789111Y-24565531D02*
X16798635Y-24536960D01*
X16798635Y-24536960D02*
X16808158Y-24489341D01*
X16808158Y-24489341D02*
X16808158Y-24451246D01*
X16808158Y-24451246D02*
X16798635Y-24403627D01*
X16798635Y-24403627D02*
X16789111Y-24375055D01*
X16789111Y-24375055D02*
X16779587Y-24356008D01*
X16779587Y-24356008D02*
X16760539Y-24327436D01*
X16760539Y-24327436D02*
X16751015Y-24317912D01*
M02*
