%TF.GenerationSoftware,KiCad,Pcbnew,9.0.6*%
%TF.CreationDate,2025-12-29T19:08:17-05:00*%
%TF.ProjectId,rp2350-dual-usb,72703233-3530-42d6-9475-616c2d757362,rev?*%
%TF.SameCoordinates,Original*%
%TF.FileFunction,Copper,L4,Bot*%
%TF.FilePolarity,Positive*%
%FSLAX46Y46*%
G04 Gerber Fmt 4.6, Leading zero omitted, Abs format (unit mm)*
G04 Created by KiCad (PCBNEW 9.0.6) date 2025-12-29 19:08:17*
%MOMM*%
%LPD*%
G01*
G04 APERTURE LIST*
%TA.AperFunction,HeatsinkPad*%
%ADD10O,2.100000X1.000000*%
%TD*%
%TA.AperFunction,HeatsinkPad*%
%ADD11O,1.600000X1.000000*%
%TD*%
%TA.AperFunction,ComponentPad*%
%ADD12C,0.600000*%
%TD*%
%TA.AperFunction,ViaPad*%
%ADD13C,0.600000*%
%TD*%
%TA.AperFunction,ViaPad*%
%ADD14C,0.800000*%
%TD*%
%TA.AperFunction,ViaPad*%
%ADD15C,0.700000*%
%TD*%
%TA.AperFunction,ViaPad*%
%ADD16C,0.500000*%
%TD*%
%TA.AperFunction,Conductor*%
%ADD17C,0.300000*%
%TD*%
%TA.AperFunction,Conductor*%
%ADD18C,0.157500*%
%TD*%
G04 APERTURE END LIST*
D10*
%TO.P,J2,S1,SHIELD*%
%TO.N,GND*%
X106320000Y-122180000D03*
D11*
X102140000Y-122180000D03*
D10*
X106320000Y-130820000D03*
D11*
X102140000Y-130820000D03*
%TD*%
D10*
%TO.P,J3,S1,SHIELD*%
%TO.N,GND*%
X144680000Y-130820000D03*
D11*
X148860000Y-130820000D03*
D10*
X144680000Y-122180000D03*
D11*
X148860000Y-122180000D03*
%TD*%
D12*
%TO.P,U2,61,GND*%
%TO.N,GND*%
X123175000Y-117375000D03*
X123175000Y-116000000D03*
X123175000Y-114625000D03*
X121800000Y-117375000D03*
X121800000Y-116000000D03*
X121800000Y-114625000D03*
X120425000Y-117375000D03*
X120425000Y-116000000D03*
X120425000Y-114625000D03*
%TD*%
D13*
%TO.N,GND*%
X147600000Y-118900000D03*
X103750000Y-106200000D03*
X134400000Y-121250000D03*
X101700000Y-103400000D03*
D14*
X115200000Y-118800000D03*
D13*
X127300000Y-107050000D03*
X102200000Y-110400000D03*
X114400000Y-130650000D03*
X118550000Y-121700000D03*
X128000000Y-126000000D03*
D14*
X105500000Y-117050000D03*
X131200000Y-129950000D03*
D13*
X142400000Y-101550000D03*
X103200000Y-119450000D03*
D14*
X103650000Y-113100000D03*
D13*
X111350000Y-130300000D03*
D15*
X137650000Y-113700000D03*
D14*
X115200000Y-116700000D03*
X116700000Y-126500000D03*
D13*
X109150000Y-119900000D03*
X103900000Y-129350000D03*
X101300000Y-101750000D03*
X104350000Y-108550000D03*
X135750000Y-105350000D03*
D15*
X135250000Y-113700000D03*
D13*
X106400000Y-109300000D03*
D14*
X147750000Y-109850000D03*
D13*
X112050000Y-117450000D03*
X136700000Y-102200000D03*
X118550000Y-121000000D03*
D14*
X142675000Y-130150000D03*
D13*
X129050000Y-124250000D03*
X139650000Y-113350000D03*
D14*
X125450000Y-129900000D03*
X101250000Y-114200000D03*
D13*
X147450000Y-124450000D03*
D14*
X127865000Y-116215000D03*
D13*
X132950000Y-123300000D03*
X138450000Y-130300000D03*
D14*
X105450000Y-112950000D03*
D13*
X111700000Y-104600000D03*
X134500000Y-130350000D03*
D14*
X128400000Y-119600000D03*
X142540000Y-122390000D03*
X128400000Y-114800000D03*
D13*
X111600000Y-119300000D03*
X108450000Y-109900000D03*
X105200000Y-119750000D03*
X105800000Y-111300000D03*
D14*
X111700000Y-128250000D03*
X111700000Y-125250000D03*
D13*
X113300000Y-116650000D03*
D14*
X125200000Y-121650000D03*
D15*
X136450000Y-112800000D03*
D14*
X108450000Y-122600000D03*
X120900000Y-107150000D03*
D13*
X145650000Y-102300000D03*
X138400000Y-110900000D03*
D15*
X116665000Y-119765000D03*
D13*
X140350000Y-122050000D03*
D14*
X103650000Y-114000000D03*
D13*
X103150000Y-127850000D03*
X101500000Y-107750000D03*
D14*
X133700000Y-126500000D03*
D13*
X147000000Y-127950000D03*
X113350000Y-112250000D03*
X144700000Y-116600000D03*
D14*
X138700000Y-101750000D03*
X125250000Y-105550000D03*
D13*
X128250000Y-110900000D03*
D14*
X114286399Y-102863601D03*
X119000000Y-109550000D03*
D13*
X111250000Y-113050000D03*
D14*
X132600000Y-117150000D03*
X118250000Y-102900000D03*
X115200000Y-117750000D03*
X115200000Y-115650000D03*
D13*
X103700000Y-124850000D03*
D14*
X102300000Y-114200000D03*
D13*
X122050000Y-130250000D03*
X131250000Y-113500000D03*
X146950000Y-105300000D03*
D14*
X121100000Y-103850000D03*
D13*
X145650000Y-113400000D03*
D14*
X129650000Y-108600000D03*
D13*
X140150000Y-104400000D03*
X101950000Y-125200000D03*
X149250000Y-128200000D03*
X144600000Y-119150000D03*
D14*
X121400000Y-109300000D03*
X125550000Y-107150000D03*
D13*
X129950000Y-121150000D03*
D14*
X103650000Y-116850000D03*
D13*
X141300000Y-111450000D03*
D14*
X103650000Y-115900000D03*
X101250000Y-115700000D03*
D13*
X149150000Y-125750000D03*
D14*
X115450000Y-108600000D03*
D13*
X111150000Y-121700000D03*
D14*
X123900000Y-124300000D03*
D13*
X149050000Y-113250000D03*
X139150000Y-117950000D03*
X115550000Y-111950000D03*
X126050000Y-108800000D03*
X135250000Y-109350000D03*
X105700000Y-118500000D03*
X123900000Y-126650000D03*
D14*
X103650000Y-114950000D03*
D13*
X119500000Y-130350000D03*
X132250000Y-120500000D03*
X117300000Y-130600000D03*
D14*
X123950000Y-109000000D03*
X108450000Y-130300000D03*
D13*
X113500000Y-121800000D03*
X106250000Y-104200000D03*
D14*
X101750000Y-114950000D03*
D13*
X144800000Y-104700000D03*
X138400000Y-105550000D03*
X147550000Y-111900000D03*
X113400000Y-120100000D03*
D14*
X102300000Y-115700000D03*
D13*
X139650000Y-121000000D03*
X114000000Y-114700000D03*
X148750000Y-101700000D03*
D16*
%TO.N,+3V3*%
X120008976Y-118575058D03*
X118550000Y-112525000D03*
X124450000Y-114800000D03*
D14*
X138850000Y-124750000D03*
X138700000Y-127750000D03*
X143100000Y-110750000D03*
D16*
X122000000Y-118625000D03*
X119125000Y-118400000D03*
D14*
X126850000Y-115450000D03*
D16*
X123000000Y-113400000D03*
X125225000Y-119275000D03*
D14*
X132500000Y-111350000D03*
X134500000Y-115100000D03*
D16*
X119250000Y-115800000D03*
D14*
X116325000Y-122675000D03*
X126850000Y-114150000D03*
D15*
%TO.N,Net-(J1-Pin_1)*%
X106600000Y-114000000D03*
D13*
X120200000Y-110700000D03*
%TO.N,Net-(J1-Pin_3)*%
X119900000Y-111500000D03*
D15*
X106500000Y-116000000D03*
D16*
%TO.N,/Connectors/USB1_CONN.D+*%
X105800000Y-126250000D03*
X105800000Y-127400000D03*
%TO.N,/Connectors/USB2_CONN.D-*%
X145170000Y-126250000D03*
X145170000Y-127420000D03*
D15*
%TO.N,Net-(J5-PadT)*%
X138250000Y-108250000D03*
D13*
X128300000Y-118400000D03*
D15*
%TO.N,Net-(U5-C2)*%
X131450000Y-101750000D03*
X107150000Y-101750000D03*
D13*
%TO.N,MIDI_IN_UART_RX*%
X127300000Y-117550000D03*
D14*
X130250000Y-111350000D03*
%TD*%
D17*
%TO.N,Net-(J1-Pin_1)*%
X110300000Y-110300000D02*
X106600000Y-114000000D01*
X120200000Y-110700000D02*
X119800000Y-110300000D01*
X119800000Y-110300000D02*
X110300000Y-110300000D01*
%TO.N,Net-(J1-Pin_3)*%
X110900000Y-110900000D02*
X106500000Y-115300000D01*
X119300000Y-110900000D02*
X110900000Y-110900000D01*
X119900000Y-111500000D02*
X119300000Y-110900000D01*
X106500000Y-115300000D02*
X106500000Y-116000000D01*
D18*
%TO.N,/Connectors/USB1_CONN.D+*%
X105800000Y-126250000D02*
X105800000Y-127400000D01*
%TO.N,/Connectors/USB2_CONN.D-*%
X145170000Y-126250000D02*
X145170000Y-127420000D01*
D17*
%TO.N,Net-(J5-PadT)*%
X128300000Y-118200000D02*
X128300000Y-118400000D01*
X138250000Y-108250000D02*
X128300000Y-118200000D01*
%TO.N,Net-(U5-C2)*%
X131450000Y-101750000D02*
X107150000Y-101750000D01*
%TO.N,MIDI_IN_UART_RX*%
X128317000Y-117550000D02*
X127300000Y-117550000D01*
X130250000Y-115617000D02*
X128317000Y-117550000D01*
X130250000Y-111350000D02*
X130250000Y-115617000D01*
%TD*%
%TA.AperFunction,Conductor*%
%TO.N,+3V3*%
G36*
X150442539Y-100520185D02*
G01*
X150488294Y-100572989D01*
X150499500Y-100624500D01*
X150499500Y-104338695D01*
X150479815Y-104405734D01*
X150427011Y-104451489D01*
X150357853Y-104461433D01*
X150294297Y-104432408D01*
X150272398Y-104407586D01*
X150219083Y-104327796D01*
X150219080Y-104327792D01*
X150072207Y-104180919D01*
X150072203Y-104180916D01*
X149899490Y-104065512D01*
X149899488Y-104065511D01*
X149707590Y-103986025D01*
X149707578Y-103986022D01*
X149503862Y-103945500D01*
X149503859Y-103945500D01*
X149296141Y-103945500D01*
X149296138Y-103945500D01*
X149092421Y-103986022D01*
X149092409Y-103986025D01*
X148900511Y-104065511D01*
X148900509Y-104065512D01*
X148727796Y-104180916D01*
X148727792Y-104180919D01*
X148580919Y-104327792D01*
X148580916Y-104327796D01*
X148465512Y-104500509D01*
X148465511Y-104500511D01*
X148386025Y-104692409D01*
X148386022Y-104692421D01*
X148345500Y-104896136D01*
X148345500Y-105103863D01*
X148386022Y-105307578D01*
X148386025Y-105307590D01*
X148465511Y-105499488D01*
X148465512Y-105499490D01*
X148580916Y-105672203D01*
X148580919Y-105672207D01*
X148727792Y-105819080D01*
X148727796Y-105819083D01*
X148900507Y-105934486D01*
X148900508Y-105934486D01*
X148900509Y-105934487D01*
X148900511Y-105934488D01*
X148939168Y-105950500D01*
X149092414Y-106013976D01*
X149276027Y-106050499D01*
X149296136Y-106054499D01*
X149296139Y-106054500D01*
X149296141Y-106054500D01*
X149503861Y-106054500D01*
X149503862Y-106054499D01*
X149707586Y-106013976D01*
X149899493Y-105934486D01*
X150072204Y-105819083D01*
X150219083Y-105672204D01*
X150272398Y-105592412D01*
X150326010Y-105547608D01*
X150395335Y-105538901D01*
X150458363Y-105569055D01*
X150495082Y-105628498D01*
X150499500Y-105661304D01*
X150499500Y-131375500D01*
X150479815Y-131442539D01*
X150427011Y-131488294D01*
X150375500Y-131499500D01*
X149770519Y-131499500D01*
X149703480Y-131479815D01*
X149657725Y-131427011D01*
X149647781Y-131357853D01*
X149676806Y-131294297D01*
X149682838Y-131287819D01*
X149704111Y-131266545D01*
X149704114Y-131266542D01*
X149780775Y-131151811D01*
X149781319Y-131150499D01*
X149802029Y-131100499D01*
X149833580Y-131024328D01*
X149846910Y-130957313D01*
X149860500Y-130888995D01*
X149860500Y-130751004D01*
X149833581Y-130615677D01*
X149833580Y-130615676D01*
X149833580Y-130615672D01*
X149809722Y-130558074D01*
X149780778Y-130488195D01*
X149780771Y-130488182D01*
X149704114Y-130373458D01*
X149704111Y-130373454D01*
X149606545Y-130275888D01*
X149606541Y-130275885D01*
X149491817Y-130199228D01*
X149491804Y-130199221D01*
X149364332Y-130146421D01*
X149364322Y-130146418D01*
X149228995Y-130119500D01*
X149228993Y-130119500D01*
X148491007Y-130119500D01*
X148491005Y-130119500D01*
X148355677Y-130146418D01*
X148355667Y-130146421D01*
X148228195Y-130199221D01*
X148228182Y-130199228D01*
X148113458Y-130275885D01*
X148113454Y-130275888D01*
X148015888Y-130373454D01*
X148015885Y-130373458D01*
X147939228Y-130488182D01*
X147939221Y-130488195D01*
X147886421Y-130615667D01*
X147886418Y-130615677D01*
X147859500Y-130751004D01*
X147859500Y-130751007D01*
X147859500Y-130888993D01*
X147859500Y-130888995D01*
X147859499Y-130888995D01*
X147886418Y-131024322D01*
X147886421Y-131024332D01*
X147939221Y-131151804D01*
X147939228Y-131151817D01*
X148015885Y-131266541D01*
X148015888Y-131266545D01*
X148037162Y-131287819D01*
X148070647Y-131349142D01*
X148065663Y-131418834D01*
X148023791Y-131474767D01*
X147958327Y-131499184D01*
X147949481Y-131499500D01*
X145840519Y-131499500D01*
X145773480Y-131479815D01*
X145727725Y-131427011D01*
X145717781Y-131357853D01*
X145746806Y-131294297D01*
X145752838Y-131287819D01*
X145774111Y-131266545D01*
X145774114Y-131266542D01*
X145850775Y-131151811D01*
X145851319Y-131150499D01*
X145872029Y-131100499D01*
X145903580Y-131024328D01*
X145916910Y-130957313D01*
X145930500Y-130888995D01*
X145930500Y-130751004D01*
X145903581Y-130615677D01*
X145903580Y-130615676D01*
X145903580Y-130615672D01*
X145879722Y-130558074D01*
X145850778Y-130488195D01*
X145850771Y-130488182D01*
X145774114Y-130373458D01*
X145774111Y-130373454D01*
X145676545Y-130275888D01*
X145676541Y-130275885D01*
X145561817Y-130199228D01*
X145561808Y-130199223D01*
X145448003Y-130152084D01*
X145393600Y-130108243D01*
X145371535Y-130041949D01*
X145388814Y-129974250D01*
X145433456Y-129930136D01*
X145454114Y-129918209D01*
X145565821Y-129853715D01*
X145673715Y-129745821D01*
X145750008Y-129613678D01*
X145789500Y-129466293D01*
X145789500Y-129313707D01*
X145750008Y-129166322D01*
X145744517Y-129156812D01*
X145673717Y-129034182D01*
X145673712Y-129034176D01*
X145565823Y-128926287D01*
X145565817Y-128926282D01*
X145433681Y-128849993D01*
X145433682Y-128849993D01*
X145421595Y-128846754D01*
X145286293Y-128810500D01*
X145133707Y-128810500D01*
X144998404Y-128846754D01*
X144986318Y-128849993D01*
X144854182Y-128926282D01*
X144854176Y-128926287D01*
X144746287Y-129034176D01*
X144746282Y-129034182D01*
X144669993Y-129166318D01*
X144669992Y-129166322D01*
X144630500Y-129313707D01*
X144630500Y-129466293D01*
X144661312Y-129581284D01*
X144669993Y-129613681D01*
X144746282Y-129745817D01*
X144746284Y-129745819D01*
X144746285Y-129745821D01*
X144854179Y-129853715D01*
X144905955Y-129883608D01*
X144913758Y-129888113D01*
X144961973Y-129938681D01*
X144975195Y-130007288D01*
X144949227Y-130072152D01*
X144892313Y-130112680D01*
X144851757Y-130119500D01*
X144061005Y-130119500D01*
X143925677Y-130146418D01*
X143925667Y-130146421D01*
X143798195Y-130199221D01*
X143798182Y-130199228D01*
X143683458Y-130275885D01*
X143683454Y-130275888D01*
X143585888Y-130373454D01*
X143585885Y-130373458D01*
X143509228Y-130488182D01*
X143509221Y-130488195D01*
X143456421Y-130615667D01*
X143456418Y-130615677D01*
X143429500Y-130751004D01*
X143429500Y-130751007D01*
X143429500Y-130888993D01*
X143429500Y-130888995D01*
X143429499Y-130888995D01*
X143456418Y-131024322D01*
X143456421Y-131024332D01*
X143509221Y-131151804D01*
X143509228Y-131151817D01*
X143585885Y-131266541D01*
X143585888Y-131266545D01*
X143607162Y-131287819D01*
X143640647Y-131349142D01*
X143635663Y-131418834D01*
X143593791Y-131474767D01*
X143528327Y-131499184D01*
X143519481Y-131499500D01*
X107480519Y-131499500D01*
X107413480Y-131479815D01*
X107367725Y-131427011D01*
X107357781Y-131357853D01*
X107386806Y-131294297D01*
X107392838Y-131287819D01*
X107414111Y-131266545D01*
X107414114Y-131266542D01*
X107490775Y-131151811D01*
X107491319Y-131150499D01*
X107512029Y-131100499D01*
X107543580Y-131024328D01*
X107556910Y-130957313D01*
X107570500Y-130888995D01*
X107570500Y-130751004D01*
X107543581Y-130615677D01*
X107543580Y-130615676D01*
X107543580Y-130615672D01*
X107519722Y-130558074D01*
X107490778Y-130488195D01*
X107490771Y-130488182D01*
X107414114Y-130373458D01*
X107414111Y-130373454D01*
X107316545Y-130275888D01*
X107316541Y-130275885D01*
X107234315Y-130220943D01*
X107849500Y-130220943D01*
X107849500Y-130379057D01*
X107886922Y-130518716D01*
X107890423Y-130531783D01*
X107890426Y-130531790D01*
X107969475Y-130668709D01*
X107969479Y-130668714D01*
X107969480Y-130668716D01*
X108081284Y-130780520D01*
X108081286Y-130780521D01*
X108081290Y-130780524D01*
X108189827Y-130843187D01*
X108218216Y-130859577D01*
X108370943Y-130900500D01*
X108370945Y-130900500D01*
X108529055Y-130900500D01*
X108529057Y-130900500D01*
X108681784Y-130859577D01*
X108818716Y-130780520D01*
X108930520Y-130668716D01*
X109009577Y-130531784D01*
X109050500Y-130379057D01*
X109050500Y-130234108D01*
X110849500Y-130234108D01*
X110849500Y-130365892D01*
X110853027Y-130379055D01*
X110883608Y-130493187D01*
X110912476Y-130543186D01*
X110949500Y-130607314D01*
X111042686Y-130700500D01*
X111156814Y-130766392D01*
X111284108Y-130800500D01*
X111284110Y-130800500D01*
X111415890Y-130800500D01*
X111415892Y-130800500D01*
X111543186Y-130766392D01*
X111657314Y-130700500D01*
X111750500Y-130607314D01*
X111763898Y-130584108D01*
X113899500Y-130584108D01*
X113899500Y-130715891D01*
X113933608Y-130843187D01*
X113943071Y-130859577D01*
X113999500Y-130957314D01*
X114092686Y-131050500D01*
X114206814Y-131116392D01*
X114334108Y-131150500D01*
X114334110Y-131150500D01*
X114465890Y-131150500D01*
X114465892Y-131150500D01*
X114593186Y-131116392D01*
X114707314Y-131050500D01*
X114800500Y-130957314D01*
X114866392Y-130843186D01*
X114900500Y-130715892D01*
X114900500Y-130584108D01*
X114887103Y-130534108D01*
X116799500Y-130534108D01*
X116799500Y-130665891D01*
X116833608Y-130793187D01*
X116847005Y-130816391D01*
X116899500Y-130907314D01*
X116992686Y-131000500D01*
X117106814Y-131066392D01*
X117234108Y-131100500D01*
X117234110Y-131100500D01*
X117365890Y-131100500D01*
X117365892Y-131100500D01*
X117493186Y-131066392D01*
X117607314Y-131000500D01*
X117700500Y-130907314D01*
X117766392Y-130793186D01*
X117800500Y-130665892D01*
X117800500Y-130534108D01*
X117766392Y-130406814D01*
X117700500Y-130292686D01*
X117691922Y-130284108D01*
X118999500Y-130284108D01*
X118999500Y-130415891D01*
X119033608Y-130543187D01*
X119066554Y-130600250D01*
X119099500Y-130657314D01*
X119192686Y-130750500D01*
X119306814Y-130816392D01*
X119434108Y-130850500D01*
X119434110Y-130850500D01*
X119565890Y-130850500D01*
X119565892Y-130850500D01*
X119693186Y-130816392D01*
X119807314Y-130750500D01*
X119900500Y-130657314D01*
X119966392Y-130543186D01*
X120000500Y-130415892D01*
X120000500Y-130284108D01*
X119973705Y-130184108D01*
X121549500Y-130184108D01*
X121549500Y-130315892D01*
X121562897Y-130365890D01*
X121583608Y-130443187D01*
X121609594Y-130488195D01*
X121649500Y-130557314D01*
X121742686Y-130650500D01*
X121841521Y-130707563D01*
X121855944Y-130715890D01*
X121856814Y-130716392D01*
X121984108Y-130750500D01*
X121984110Y-130750500D01*
X122115890Y-130750500D01*
X122115892Y-130750500D01*
X122243186Y-130716392D01*
X122357314Y-130650500D01*
X122450500Y-130557314D01*
X122516392Y-130443186D01*
X122550500Y-130315892D01*
X122550500Y-130184108D01*
X122516392Y-130056814D01*
X122450500Y-129942686D01*
X122357314Y-129849500D01*
X122307852Y-129820943D01*
X124849500Y-129820943D01*
X124849500Y-129979057D01*
X124883733Y-130106814D01*
X124890423Y-130131783D01*
X124890426Y-130131790D01*
X124969475Y-130268709D01*
X124969479Y-130268714D01*
X124969480Y-130268716D01*
X125081284Y-130380520D01*
X125081286Y-130380521D01*
X125081290Y-130380524D01*
X125189827Y-130443187D01*
X125218216Y-130459577D01*
X125370943Y-130500500D01*
X125370945Y-130500500D01*
X125529055Y-130500500D01*
X125529057Y-130500500D01*
X125681784Y-130459577D01*
X125818716Y-130380520D01*
X125930520Y-130268716D01*
X126009577Y-130131784D01*
X126050500Y-129979057D01*
X126050500Y-129870943D01*
X130599500Y-129870943D01*
X130599500Y-130029057D01*
X130633733Y-130156814D01*
X130640423Y-130181783D01*
X130640426Y-130181790D01*
X130719475Y-130318709D01*
X130719479Y-130318714D01*
X130719480Y-130318716D01*
X130831284Y-130430520D01*
X130831286Y-130430521D01*
X130831290Y-130430524D01*
X130939827Y-130493187D01*
X130968216Y-130509577D01*
X131120943Y-130550500D01*
X131120945Y-130550500D01*
X131279055Y-130550500D01*
X131279057Y-130550500D01*
X131431784Y-130509577D01*
X131568716Y-130430520D01*
X131680520Y-130318716D01*
X131700501Y-130284108D01*
X133999500Y-130284108D01*
X133999500Y-130415891D01*
X134033608Y-130543187D01*
X134066554Y-130600250D01*
X134099500Y-130657314D01*
X134192686Y-130750500D01*
X134306814Y-130816392D01*
X134434108Y-130850500D01*
X134434110Y-130850500D01*
X134565890Y-130850500D01*
X134565892Y-130850500D01*
X134693186Y-130816392D01*
X134807314Y-130750500D01*
X134900500Y-130657314D01*
X134966392Y-130543186D01*
X135000500Y-130415892D01*
X135000500Y-130284108D01*
X134987103Y-130234108D01*
X137949500Y-130234108D01*
X137949500Y-130365892D01*
X137953027Y-130379055D01*
X137983608Y-130493187D01*
X138012476Y-130543186D01*
X138049500Y-130607314D01*
X138142686Y-130700500D01*
X138256814Y-130766392D01*
X138384108Y-130800500D01*
X138384110Y-130800500D01*
X138515890Y-130800500D01*
X138515892Y-130800500D01*
X138643186Y-130766392D01*
X138757314Y-130700500D01*
X138850500Y-130607314D01*
X138916392Y-130493186D01*
X138950500Y-130365892D01*
X138950500Y-130234108D01*
X138916392Y-130106814D01*
X138895682Y-130070943D01*
X142074500Y-130070943D01*
X142074500Y-130229057D01*
X142115086Y-130380524D01*
X142115423Y-130381783D01*
X142115426Y-130381790D01*
X142194475Y-130518709D01*
X142194479Y-130518714D01*
X142194480Y-130518716D01*
X142306284Y-130630520D01*
X142306286Y-130630521D01*
X142306290Y-130630524D01*
X142427489Y-130700497D01*
X142443216Y-130709577D01*
X142595943Y-130750500D01*
X142595945Y-130750500D01*
X142754055Y-130750500D01*
X142754057Y-130750500D01*
X142906784Y-130709577D01*
X143043716Y-130630520D01*
X143155520Y-130518716D01*
X143234577Y-130381784D01*
X143275500Y-130229057D01*
X143275500Y-130070943D01*
X143234577Y-129918216D01*
X143223773Y-129899502D01*
X143155524Y-129781290D01*
X143155518Y-129781282D01*
X143043717Y-129669481D01*
X143043709Y-129669475D01*
X142906790Y-129590426D01*
X142906786Y-129590424D01*
X142906784Y-129590423D01*
X142754057Y-129549500D01*
X142595943Y-129549500D01*
X142443216Y-129590423D01*
X142443209Y-129590426D01*
X142306290Y-129669475D01*
X142306282Y-129669481D01*
X142194481Y-129781282D01*
X142194475Y-129781290D01*
X142115426Y-129918209D01*
X142115423Y-129918216D01*
X142074500Y-130070943D01*
X138895682Y-130070943D01*
X138850500Y-129992686D01*
X138757314Y-129899500D01*
X138678014Y-129853716D01*
X138643187Y-129833608D01*
X138578931Y-129816391D01*
X138515892Y-129799500D01*
X138384108Y-129799500D01*
X138256812Y-129833608D01*
X138142686Y-129899500D01*
X138142683Y-129899502D01*
X138049502Y-129992683D01*
X138049500Y-129992686D01*
X137983608Y-130106812D01*
X137953027Y-130220945D01*
X137949500Y-130234108D01*
X134987103Y-130234108D01*
X134966392Y-130156814D01*
X134900500Y-130042686D01*
X134807314Y-129949500D01*
X134746341Y-129914297D01*
X134693187Y-129883608D01*
X134581626Y-129853716D01*
X134565892Y-129849500D01*
X134434108Y-129849500D01*
X134306812Y-129883608D01*
X134192686Y-129949500D01*
X134192683Y-129949502D01*
X134099502Y-130042683D01*
X134099500Y-130042686D01*
X134033608Y-130156812D01*
X133999500Y-130284108D01*
X131700501Y-130284108D01*
X131759577Y-130181784D01*
X131800500Y-130029057D01*
X131800500Y-129870943D01*
X131759577Y-129718216D01*
X131759573Y-129718209D01*
X131680524Y-129581290D01*
X131680518Y-129581282D01*
X131568717Y-129469481D01*
X131568709Y-129469475D01*
X131431790Y-129390426D01*
X131431786Y-129390424D01*
X131431784Y-129390423D01*
X131279057Y-129349500D01*
X131120943Y-129349500D01*
X130968216Y-129390423D01*
X130968209Y-129390426D01*
X130831290Y-129469475D01*
X130831282Y-129469481D01*
X130719481Y-129581282D01*
X130719475Y-129581290D01*
X130640426Y-129718209D01*
X130640423Y-129718216D01*
X130599500Y-129870943D01*
X126050500Y-129870943D01*
X126050500Y-129820943D01*
X126009577Y-129668216D01*
X126003282Y-129657313D01*
X125930524Y-129531290D01*
X125930518Y-129531282D01*
X125818717Y-129419481D01*
X125818709Y-129419475D01*
X125681790Y-129340426D01*
X125681786Y-129340424D01*
X125681784Y-129340423D01*
X125529057Y-129299500D01*
X125370943Y-129299500D01*
X125218216Y-129340423D01*
X125218209Y-129340426D01*
X125081290Y-129419475D01*
X125081282Y-129419481D01*
X124969481Y-129531282D01*
X124969475Y-129531290D01*
X124890426Y-129668209D01*
X124890423Y-129668216D01*
X124849500Y-129820943D01*
X122307852Y-129820943D01*
X122270712Y-129799500D01*
X122243187Y-129783608D01*
X122179539Y-129766554D01*
X122115892Y-129749500D01*
X121984108Y-129749500D01*
X121856812Y-129783608D01*
X121742686Y-129849500D01*
X121742683Y-129849502D01*
X121649502Y-129942683D01*
X121649500Y-129942686D01*
X121583608Y-130056812D01*
X121568639Y-130112680D01*
X121549500Y-130184108D01*
X119973705Y-130184108D01*
X119966392Y-130156814D01*
X119900500Y-130042686D01*
X119807314Y-129949500D01*
X119746341Y-129914297D01*
X119693187Y-129883608D01*
X119581626Y-129853716D01*
X119565892Y-129849500D01*
X119434108Y-129849500D01*
X119306812Y-129883608D01*
X119192686Y-129949500D01*
X119192683Y-129949502D01*
X119099502Y-130042683D01*
X119099500Y-130042686D01*
X119033608Y-130156812D01*
X118999500Y-130284108D01*
X117691922Y-130284108D01*
X117607314Y-130199500D01*
X117533380Y-130156814D01*
X117493187Y-130133608D01*
X117415081Y-130112680D01*
X117365892Y-130099500D01*
X117234108Y-130099500D01*
X117106812Y-130133608D01*
X116992686Y-130199500D01*
X116992683Y-130199502D01*
X116899502Y-130292683D01*
X116899500Y-130292686D01*
X116833608Y-130406812D01*
X116799500Y-130534108D01*
X114887103Y-130534108D01*
X114866392Y-130456814D01*
X114800500Y-130342686D01*
X114707314Y-130249500D01*
X114645795Y-130213982D01*
X114593187Y-130183608D01*
X114493188Y-130156814D01*
X114465892Y-130149500D01*
X114334108Y-130149500D01*
X114206812Y-130183608D01*
X114092686Y-130249500D01*
X114092683Y-130249502D01*
X113999502Y-130342683D01*
X113999500Y-130342686D01*
X113933608Y-130456812D01*
X113899500Y-130584108D01*
X111763898Y-130584108D01*
X111816392Y-130493186D01*
X111850500Y-130365892D01*
X111850500Y-130234108D01*
X111816392Y-130106814D01*
X111750500Y-129992686D01*
X111657314Y-129899500D01*
X111578014Y-129853716D01*
X111543187Y-129833608D01*
X111478931Y-129816391D01*
X111415892Y-129799500D01*
X111284108Y-129799500D01*
X111156812Y-129833608D01*
X111042686Y-129899500D01*
X111042683Y-129899502D01*
X110949502Y-129992683D01*
X110949500Y-129992686D01*
X110883608Y-130106812D01*
X110853027Y-130220945D01*
X110849500Y-130234108D01*
X109050500Y-130234108D01*
X109050500Y-130220943D01*
X109009577Y-130068216D01*
X108998662Y-130049310D01*
X108930524Y-129931290D01*
X108930518Y-129931282D01*
X108818717Y-129819481D01*
X108818709Y-129819475D01*
X108681790Y-129740426D01*
X108681786Y-129740424D01*
X108681784Y-129740423D01*
X108529057Y-129699500D01*
X108370943Y-129699500D01*
X108218216Y-129740423D01*
X108218209Y-129740426D01*
X108081290Y-129819475D01*
X108081282Y-129819481D01*
X107969481Y-129931282D01*
X107969475Y-129931290D01*
X107890426Y-130068209D01*
X107890423Y-130068216D01*
X107849500Y-130220943D01*
X107234315Y-130220943D01*
X107201817Y-130199228D01*
X107201804Y-130199221D01*
X107074332Y-130146421D01*
X107074322Y-130146418D01*
X106938995Y-130119500D01*
X106938993Y-130119500D01*
X106148243Y-130119500D01*
X106081204Y-130099815D01*
X106035449Y-130047011D01*
X106025505Y-129977853D01*
X106054530Y-129914297D01*
X106086242Y-129888113D01*
X106094045Y-129883608D01*
X106145821Y-129853715D01*
X106253715Y-129745821D01*
X106330008Y-129613678D01*
X106369500Y-129466293D01*
X106369500Y-129313707D01*
X106330008Y-129166322D01*
X106324517Y-129156812D01*
X106253717Y-129034182D01*
X106253712Y-129034176D01*
X106145823Y-128926287D01*
X106145817Y-128926282D01*
X106013681Y-128849993D01*
X106013682Y-128849993D01*
X106001595Y-128846754D01*
X105866293Y-128810500D01*
X105713707Y-128810500D01*
X105578404Y-128846754D01*
X105566318Y-128849993D01*
X105434182Y-128926282D01*
X105434176Y-128926287D01*
X105326287Y-129034176D01*
X105326282Y-129034182D01*
X105249993Y-129166318D01*
X105249992Y-129166322D01*
X105210500Y-129313707D01*
X105210500Y-129466293D01*
X105241312Y-129581284D01*
X105249993Y-129613681D01*
X105326282Y-129745817D01*
X105326284Y-129745819D01*
X105326285Y-129745821D01*
X105434179Y-129853715D01*
X105493758Y-129888113D01*
X105566543Y-129930136D01*
X105614759Y-129980703D01*
X105627981Y-130049310D01*
X105602013Y-130114175D01*
X105551996Y-130152084D01*
X105438192Y-130199223D01*
X105438182Y-130199228D01*
X105323458Y-130275885D01*
X105323454Y-130275888D01*
X105225888Y-130373454D01*
X105225885Y-130373458D01*
X105149228Y-130488182D01*
X105149221Y-130488195D01*
X105096421Y-130615667D01*
X105096418Y-130615677D01*
X105069500Y-130751004D01*
X105069500Y-130751007D01*
X105069500Y-130888993D01*
X105069500Y-130888995D01*
X105069499Y-130888995D01*
X105096418Y-131024322D01*
X105096421Y-131024332D01*
X105149221Y-131151804D01*
X105149228Y-131151817D01*
X105225885Y-131266541D01*
X105225888Y-131266545D01*
X105247162Y-131287819D01*
X105280647Y-131349142D01*
X105275663Y-131418834D01*
X105233791Y-131474767D01*
X105168327Y-131499184D01*
X105159481Y-131499500D01*
X103050519Y-131499500D01*
X102983480Y-131479815D01*
X102937725Y-131427011D01*
X102927781Y-131357853D01*
X102956806Y-131294297D01*
X102962838Y-131287819D01*
X102984111Y-131266545D01*
X102984114Y-131266542D01*
X103060775Y-131151811D01*
X103061319Y-131150499D01*
X103082029Y-131100499D01*
X103113580Y-131024328D01*
X103126910Y-130957313D01*
X103140500Y-130888995D01*
X103140500Y-130751004D01*
X103113581Y-130615677D01*
X103113580Y-130615676D01*
X103113580Y-130615672D01*
X103089722Y-130558074D01*
X103060778Y-130488195D01*
X103060771Y-130488182D01*
X102984114Y-130373458D01*
X102984111Y-130373454D01*
X102886545Y-130275888D01*
X102886541Y-130275885D01*
X102771817Y-130199228D01*
X102771804Y-130199221D01*
X102644332Y-130146421D01*
X102644322Y-130146418D01*
X102508995Y-130119500D01*
X102508993Y-130119500D01*
X101771007Y-130119500D01*
X101771005Y-130119500D01*
X101635677Y-130146418D01*
X101635667Y-130146421D01*
X101508195Y-130199221D01*
X101508182Y-130199228D01*
X101393458Y-130275885D01*
X101393454Y-130275888D01*
X101295888Y-130373454D01*
X101295885Y-130373458D01*
X101219228Y-130488182D01*
X101219221Y-130488195D01*
X101166421Y-130615667D01*
X101166418Y-130615677D01*
X101139500Y-130751004D01*
X101139500Y-130751007D01*
X101139500Y-130888993D01*
X101139500Y-130888995D01*
X101139499Y-130888995D01*
X101166418Y-131024322D01*
X101166421Y-131024332D01*
X101219221Y-131151804D01*
X101219228Y-131151817D01*
X101295885Y-131266541D01*
X101295888Y-131266545D01*
X101317162Y-131287819D01*
X101350647Y-131349142D01*
X101345663Y-131418834D01*
X101303791Y-131474767D01*
X101238327Y-131499184D01*
X101229481Y-131499500D01*
X100624500Y-131499500D01*
X100557461Y-131479815D01*
X100511706Y-131427011D01*
X100500500Y-131375500D01*
X100500500Y-129284108D01*
X103399500Y-129284108D01*
X103399500Y-129415892D01*
X103400462Y-129419481D01*
X103433608Y-129543187D01*
X103437253Y-129549500D01*
X103499500Y-129657314D01*
X103592686Y-129750500D01*
X103706814Y-129816392D01*
X103834108Y-129850500D01*
X103834110Y-129850500D01*
X103965890Y-129850500D01*
X103965892Y-129850500D01*
X104093186Y-129816392D01*
X104207314Y-129750500D01*
X104300500Y-129657314D01*
X104366392Y-129543186D01*
X104400500Y-129415892D01*
X104400500Y-129284108D01*
X104366392Y-129156814D01*
X104300500Y-129042686D01*
X104207314Y-128949500D01*
X104150250Y-128916554D01*
X104093187Y-128883608D01*
X104029539Y-128866554D01*
X103965892Y-128849500D01*
X103834108Y-128849500D01*
X103706812Y-128883608D01*
X103592686Y-128949500D01*
X103592683Y-128949502D01*
X103499502Y-129042683D01*
X103499500Y-129042686D01*
X103433608Y-129156812D01*
X103431061Y-129166318D01*
X103399500Y-129284108D01*
X100500500Y-129284108D01*
X100500500Y-127784108D01*
X102649500Y-127784108D01*
X102649500Y-127915891D01*
X102683608Y-128043187D01*
X102712880Y-128093886D01*
X102749500Y-128157314D01*
X102842686Y-128250500D01*
X102956814Y-128316392D01*
X103084108Y-128350500D01*
X103084110Y-128350500D01*
X103215890Y-128350500D01*
X103215892Y-128350500D01*
X103343186Y-128316392D01*
X103457314Y-128250500D01*
X103536871Y-128170943D01*
X111099500Y-128170943D01*
X111099500Y-128329057D01*
X111132041Y-128450500D01*
X111140423Y-128481783D01*
X111140426Y-128481790D01*
X111219475Y-128618709D01*
X111219479Y-128618714D01*
X111219480Y-128618716D01*
X111331284Y-128730520D01*
X111331286Y-128730521D01*
X111331290Y-128730524D01*
X111468209Y-128809573D01*
X111468216Y-128809577D01*
X111620943Y-128850500D01*
X111620945Y-128850500D01*
X111779055Y-128850500D01*
X111779057Y-128850500D01*
X111931784Y-128809577D01*
X112068716Y-128730520D01*
X112180520Y-128618716D01*
X112259577Y-128481784D01*
X112300500Y-128329057D01*
X112300500Y-128170943D01*
X112259577Y-128018216D01*
X112200501Y-127915892D01*
X112182151Y-127884108D01*
X146499500Y-127884108D01*
X146499500Y-128015891D01*
X146533608Y-128143187D01*
X146566554Y-128200250D01*
X146599500Y-128257314D01*
X146692686Y-128350500D01*
X146806814Y-128416392D01*
X146934108Y-128450500D01*
X146934110Y-128450500D01*
X147065890Y-128450500D01*
X147065892Y-128450500D01*
X147193186Y-128416392D01*
X147307314Y-128350500D01*
X147400500Y-128257314D01*
X147466392Y-128143186D01*
X147468824Y-128134108D01*
X148749500Y-128134108D01*
X148749500Y-128265891D01*
X148783608Y-128393187D01*
X148797005Y-128416391D01*
X148849500Y-128507314D01*
X148942686Y-128600500D01*
X149056814Y-128666392D01*
X149184108Y-128700500D01*
X149184110Y-128700500D01*
X149315890Y-128700500D01*
X149315892Y-128700500D01*
X149443186Y-128666392D01*
X149557314Y-128600500D01*
X149650500Y-128507314D01*
X149716392Y-128393186D01*
X149750500Y-128265892D01*
X149750500Y-128134108D01*
X149716392Y-128006814D01*
X149650500Y-127892686D01*
X149557314Y-127799500D01*
X149489745Y-127760489D01*
X149443187Y-127733608D01*
X149379539Y-127716554D01*
X149315892Y-127699500D01*
X149184108Y-127699500D01*
X149056812Y-127733608D01*
X148942686Y-127799500D01*
X148942683Y-127799502D01*
X148849502Y-127892683D01*
X148849500Y-127892686D01*
X148783608Y-128006812D01*
X148749500Y-128134108D01*
X147468824Y-128134108D01*
X147500500Y-128015892D01*
X147500500Y-127884108D01*
X147466392Y-127756814D01*
X147400500Y-127642686D01*
X147307314Y-127549500D01*
X147250250Y-127516554D01*
X147193187Y-127483608D01*
X147102500Y-127459309D01*
X147065892Y-127449500D01*
X146934108Y-127449500D01*
X146806812Y-127483608D01*
X146692686Y-127549500D01*
X146692683Y-127549502D01*
X146599502Y-127642683D01*
X146599500Y-127642686D01*
X146533608Y-127756812D01*
X146499500Y-127884108D01*
X112182151Y-127884108D01*
X112180524Y-127881290D01*
X112180518Y-127881282D01*
X112068717Y-127769481D01*
X112068709Y-127769475D01*
X111931790Y-127690426D01*
X111931786Y-127690424D01*
X111931784Y-127690423D01*
X111779057Y-127649500D01*
X111620943Y-127649500D01*
X111468216Y-127690423D01*
X111468209Y-127690426D01*
X111331290Y-127769475D01*
X111331282Y-127769481D01*
X111219481Y-127881282D01*
X111219475Y-127881290D01*
X111140426Y-128018209D01*
X111140423Y-128018216D01*
X111099500Y-128170943D01*
X103536871Y-128170943D01*
X103550500Y-128157314D01*
X103565633Y-128131102D01*
X103583121Y-128100815D01*
X103616390Y-128043189D01*
X103616392Y-128043186D01*
X103650500Y-127915892D01*
X103650500Y-127784108D01*
X103616392Y-127656814D01*
X103550500Y-127542686D01*
X103457314Y-127449500D01*
X103400250Y-127416554D01*
X103343187Y-127383608D01*
X103257665Y-127360693D01*
X103215892Y-127349500D01*
X103084108Y-127349500D01*
X102956812Y-127383608D01*
X102842686Y-127449500D01*
X102842683Y-127449502D01*
X102749502Y-127542683D01*
X102749500Y-127542686D01*
X102683608Y-127656812D01*
X102649500Y-127784108D01*
X100500500Y-127784108D01*
X100500500Y-126190691D01*
X105349500Y-126190691D01*
X105349500Y-126309309D01*
X105380201Y-126423886D01*
X105439511Y-126526613D01*
X105439513Y-126526615D01*
X105484431Y-126571533D01*
X105517916Y-126632856D01*
X105520750Y-126659214D01*
X105520750Y-126990786D01*
X105501065Y-127057825D01*
X105484431Y-127078467D01*
X105439513Y-127123384D01*
X105439511Y-127123387D01*
X105380201Y-127226114D01*
X105349500Y-127340691D01*
X105349500Y-127459309D01*
X105380201Y-127573886D01*
X105439511Y-127676613D01*
X105523387Y-127760489D01*
X105626114Y-127819799D01*
X105740691Y-127850500D01*
X105740694Y-127850500D01*
X105859306Y-127850500D01*
X105859309Y-127850500D01*
X105973886Y-127819799D01*
X106076613Y-127760489D01*
X106160489Y-127676613D01*
X106219799Y-127573886D01*
X106250500Y-127459309D01*
X106250500Y-127340691D01*
X106219799Y-127226114D01*
X106160489Y-127123387D01*
X106115569Y-127078467D01*
X106082084Y-127017144D01*
X106079250Y-126990786D01*
X106079250Y-126659214D01*
X106098935Y-126592175D01*
X106115569Y-126571533D01*
X106160489Y-126526613D01*
X106219799Y-126423886D01*
X106220588Y-126420943D01*
X116099500Y-126420943D01*
X116099500Y-126579057D01*
X116136165Y-126715891D01*
X116140423Y-126731783D01*
X116140426Y-126731790D01*
X116219475Y-126868709D01*
X116219479Y-126868714D01*
X116219480Y-126868716D01*
X116331284Y-126980520D01*
X116331286Y-126980521D01*
X116331290Y-126980524D01*
X116438028Y-127042148D01*
X116468216Y-127059577D01*
X116620943Y-127100500D01*
X116620945Y-127100500D01*
X116779055Y-127100500D01*
X116779057Y-127100500D01*
X116931784Y-127059577D01*
X117068716Y-126980520D01*
X117180520Y-126868716D01*
X117259577Y-126731784D01*
X117299147Y-126584108D01*
X123399500Y-126584108D01*
X123399500Y-126715891D01*
X123433608Y-126843187D01*
X123448348Y-126868717D01*
X123499500Y-126957314D01*
X123592686Y-127050500D01*
X123706814Y-127116392D01*
X123834108Y-127150500D01*
X123834110Y-127150500D01*
X123965890Y-127150500D01*
X123965892Y-127150500D01*
X124093186Y-127116392D01*
X124207314Y-127050500D01*
X124300500Y-126957314D01*
X124366392Y-126843186D01*
X124400500Y-126715892D01*
X124400500Y-126584108D01*
X124366392Y-126456814D01*
X124300500Y-126342686D01*
X124207314Y-126249500D01*
X124149968Y-126216391D01*
X124093187Y-126183608D01*
X124029539Y-126166554D01*
X123965892Y-126149500D01*
X123834108Y-126149500D01*
X123706812Y-126183608D01*
X123592686Y-126249500D01*
X123592683Y-126249502D01*
X123499502Y-126342683D01*
X123499500Y-126342686D01*
X123433608Y-126456812D01*
X123399500Y-126584108D01*
X117299147Y-126584108D01*
X117300500Y-126579057D01*
X117300500Y-126420943D01*
X117259577Y-126268216D01*
X117248773Y-126249502D01*
X117180524Y-126131290D01*
X117180518Y-126131282D01*
X117068716Y-126019480D01*
X117068711Y-126019476D01*
X116931790Y-125940426D01*
X116931786Y-125940424D01*
X116931784Y-125940423D01*
X116908216Y-125934108D01*
X127499500Y-125934108D01*
X127499500Y-126065892D01*
X127502239Y-126076114D01*
X127533608Y-126193187D01*
X127547005Y-126216391D01*
X127599500Y-126307314D01*
X127692686Y-126400500D01*
X127806814Y-126466392D01*
X127934108Y-126500500D01*
X127934110Y-126500500D01*
X128065890Y-126500500D01*
X128065892Y-126500500D01*
X128193186Y-126466392D01*
X128271906Y-126420943D01*
X133099500Y-126420943D01*
X133099500Y-126579057D01*
X133136165Y-126715891D01*
X133140423Y-126731783D01*
X133140426Y-126731790D01*
X133219475Y-126868709D01*
X133219479Y-126868714D01*
X133219480Y-126868716D01*
X133331284Y-126980520D01*
X133331286Y-126980521D01*
X133331290Y-126980524D01*
X133438028Y-127042148D01*
X133468216Y-127059577D01*
X133620943Y-127100500D01*
X133620945Y-127100500D01*
X133779055Y-127100500D01*
X133779057Y-127100500D01*
X133931784Y-127059577D01*
X134068716Y-126980520D01*
X134180520Y-126868716D01*
X134259577Y-126731784D01*
X134300500Y-126579057D01*
X134300500Y-126420943D01*
X134259577Y-126268216D01*
X134229656Y-126216391D01*
X134214818Y-126190691D01*
X144719500Y-126190691D01*
X144719500Y-126309309D01*
X144750201Y-126423886D01*
X144809511Y-126526613D01*
X144809513Y-126526615D01*
X144854431Y-126571533D01*
X144887916Y-126632856D01*
X144890750Y-126659214D01*
X144890750Y-127010786D01*
X144871065Y-127077825D01*
X144854431Y-127098467D01*
X144809513Y-127143384D01*
X144809511Y-127143387D01*
X144750201Y-127246114D01*
X144719500Y-127360691D01*
X144719500Y-127479309D01*
X144750201Y-127593886D01*
X144809511Y-127696613D01*
X144893387Y-127780489D01*
X144996114Y-127839799D01*
X145110691Y-127870500D01*
X145110694Y-127870500D01*
X145229306Y-127870500D01*
X145229309Y-127870500D01*
X145343886Y-127839799D01*
X145446613Y-127780489D01*
X145530489Y-127696613D01*
X145589799Y-127593886D01*
X145620500Y-127479309D01*
X145620500Y-127360691D01*
X145589799Y-127246114D01*
X145530489Y-127143387D01*
X145485569Y-127098467D01*
X145452084Y-127037144D01*
X145449250Y-127010786D01*
X145449250Y-126659214D01*
X145468935Y-126592175D01*
X145485569Y-126571533D01*
X145530489Y-126526613D01*
X145589799Y-126423886D01*
X145620500Y-126309309D01*
X145620500Y-126190691D01*
X145589799Y-126076114D01*
X145530489Y-125973387D01*
X145446613Y-125889511D01*
X145343886Y-125830201D01*
X145229309Y-125799500D01*
X145110691Y-125799500D01*
X144996114Y-125830201D01*
X144996112Y-125830201D01*
X144996112Y-125830202D01*
X144893387Y-125889511D01*
X144893384Y-125889513D01*
X144809513Y-125973384D01*
X144809511Y-125973387D01*
X144750201Y-126076114D01*
X144719500Y-126190691D01*
X134214818Y-126190691D01*
X134180522Y-126131287D01*
X134180518Y-126131282D01*
X134068717Y-126019481D01*
X134068709Y-126019475D01*
X133931790Y-125940426D01*
X133931786Y-125940424D01*
X133931784Y-125940423D01*
X133779057Y-125899500D01*
X133620943Y-125899500D01*
X133468216Y-125940423D01*
X133468209Y-125940426D01*
X133331290Y-126019475D01*
X133331282Y-126019481D01*
X133219481Y-126131282D01*
X133219475Y-126131290D01*
X133140426Y-126268209D01*
X133140423Y-126268216D01*
X133099500Y-126420943D01*
X128271906Y-126420943D01*
X128307314Y-126400500D01*
X128400500Y-126307314D01*
X128466392Y-126193186D01*
X128500500Y-126065892D01*
X128500500Y-125934108D01*
X128466392Y-125806814D01*
X128400500Y-125692686D01*
X128391922Y-125684108D01*
X148649500Y-125684108D01*
X148649500Y-125815892D01*
X148658773Y-125850499D01*
X148683608Y-125943187D01*
X148716554Y-126000250D01*
X148749500Y-126057314D01*
X148842686Y-126150500D01*
X148956814Y-126216392D01*
X149084108Y-126250500D01*
X149084110Y-126250500D01*
X149215890Y-126250500D01*
X149215892Y-126250500D01*
X149343186Y-126216392D01*
X149457314Y-126150500D01*
X149550500Y-126057314D01*
X149616392Y-125943186D01*
X149650500Y-125815892D01*
X149650500Y-125684108D01*
X149616392Y-125556814D01*
X149550500Y-125442686D01*
X149457314Y-125349500D01*
X149399968Y-125316391D01*
X149343187Y-125283608D01*
X149277061Y-125265890D01*
X149215892Y-125249500D01*
X149084108Y-125249500D01*
X148956812Y-125283608D01*
X148842686Y-125349500D01*
X148842683Y-125349502D01*
X148749502Y-125442683D01*
X148749500Y-125442686D01*
X148683608Y-125556812D01*
X148667021Y-125618717D01*
X148649500Y-125684108D01*
X128391922Y-125684108D01*
X128307314Y-125599500D01*
X128233380Y-125556814D01*
X128193187Y-125533608D01*
X128129539Y-125516554D01*
X128065892Y-125499500D01*
X127934108Y-125499500D01*
X127806812Y-125533608D01*
X127692686Y-125599500D01*
X127692683Y-125599502D01*
X127599502Y-125692683D01*
X127599500Y-125692686D01*
X127533608Y-125806812D01*
X127511449Y-125889513D01*
X127499500Y-125934108D01*
X116908216Y-125934108D01*
X116779057Y-125899500D01*
X116620943Y-125899500D01*
X116468216Y-125940423D01*
X116468209Y-125940426D01*
X116331290Y-126019475D01*
X116331282Y-126019481D01*
X116219481Y-126131282D01*
X116219475Y-126131290D01*
X116140426Y-126268209D01*
X116140423Y-126268216D01*
X116099500Y-126420943D01*
X106220588Y-126420943D01*
X106250500Y-126309309D01*
X106250500Y-126190691D01*
X106219799Y-126076114D01*
X106160489Y-125973387D01*
X106076613Y-125889511D01*
X105973886Y-125830201D01*
X105859309Y-125799500D01*
X105740691Y-125799500D01*
X105626114Y-125830201D01*
X105626112Y-125830201D01*
X105626112Y-125830202D01*
X105523387Y-125889511D01*
X105523384Y-125889513D01*
X105439513Y-125973384D01*
X105439511Y-125973387D01*
X105380201Y-126076114D01*
X105349500Y-126190691D01*
X100500500Y-126190691D01*
X100500500Y-125134108D01*
X101449500Y-125134108D01*
X101449500Y-125265891D01*
X101483608Y-125393187D01*
X101512185Y-125442683D01*
X101549500Y-125507314D01*
X101642686Y-125600500D01*
X101756814Y-125666392D01*
X101884108Y-125700500D01*
X101884110Y-125700500D01*
X102015890Y-125700500D01*
X102015892Y-125700500D01*
X102143186Y-125666392D01*
X102257314Y-125600500D01*
X102350500Y-125507314D01*
X102416392Y-125393186D01*
X102450500Y-125265892D01*
X102450500Y-125134108D01*
X102416392Y-125006814D01*
X102350500Y-124892686D01*
X102257314Y-124799500D01*
X102230654Y-124784108D01*
X103199500Y-124784108D01*
X103199500Y-124915891D01*
X103233608Y-125043187D01*
X103266554Y-125100250D01*
X103299500Y-125157314D01*
X103392686Y-125250500D01*
X103506814Y-125316392D01*
X103634108Y-125350500D01*
X103634110Y-125350500D01*
X103765890Y-125350500D01*
X103765892Y-125350500D01*
X103893186Y-125316392D01*
X104007314Y-125250500D01*
X104086871Y-125170943D01*
X111099500Y-125170943D01*
X111099500Y-125329057D01*
X111116684Y-125393186D01*
X111140423Y-125481783D01*
X111140426Y-125481790D01*
X111219475Y-125618709D01*
X111219479Y-125618714D01*
X111219480Y-125618716D01*
X111331284Y-125730520D01*
X111331286Y-125730521D01*
X111331290Y-125730524D01*
X111450762Y-125799500D01*
X111468216Y-125809577D01*
X111620943Y-125850500D01*
X111620945Y-125850500D01*
X111779055Y-125850500D01*
X111779057Y-125850500D01*
X111931784Y-125809577D01*
X112068716Y-125730520D01*
X112180520Y-125618716D01*
X112259577Y-125481784D01*
X112300500Y-125329057D01*
X112300500Y-125170943D01*
X112259577Y-125018216D01*
X112220481Y-124950499D01*
X112180524Y-124881290D01*
X112180518Y-124881282D01*
X112068717Y-124769481D01*
X112068709Y-124769475D01*
X111931790Y-124690426D01*
X111931786Y-124690424D01*
X111931784Y-124690423D01*
X111779057Y-124649500D01*
X111620943Y-124649500D01*
X111468216Y-124690423D01*
X111468209Y-124690426D01*
X111331290Y-124769475D01*
X111331282Y-124769481D01*
X111219481Y-124881282D01*
X111219475Y-124881290D01*
X111140426Y-125018209D01*
X111140423Y-125018216D01*
X111099500Y-125170943D01*
X104086871Y-125170943D01*
X104100500Y-125157314D01*
X104115633Y-125131102D01*
X104133121Y-125100815D01*
X104166390Y-125043189D01*
X104166392Y-125043186D01*
X104200500Y-124915892D01*
X104200500Y-124784108D01*
X104166392Y-124656814D01*
X104100500Y-124542686D01*
X104007314Y-124449500D01*
X103950250Y-124416554D01*
X103893187Y-124383608D01*
X103829539Y-124366554D01*
X103765892Y-124349500D01*
X103634108Y-124349500D01*
X103506812Y-124383608D01*
X103392686Y-124449500D01*
X103392683Y-124449502D01*
X103299502Y-124542683D01*
X103299500Y-124542686D01*
X103233608Y-124656812D01*
X103199500Y-124784108D01*
X102230654Y-124784108D01*
X102200250Y-124766554D01*
X102143187Y-124733608D01*
X102078931Y-124716391D01*
X102015892Y-124699500D01*
X101884108Y-124699500D01*
X101756812Y-124733608D01*
X101642686Y-124799500D01*
X101642683Y-124799502D01*
X101549502Y-124892683D01*
X101549500Y-124892686D01*
X101483608Y-125006812D01*
X101449500Y-125134108D01*
X100500500Y-125134108D01*
X100500500Y-124220943D01*
X123299500Y-124220943D01*
X123299500Y-124379057D01*
X123336165Y-124515891D01*
X123340423Y-124531783D01*
X123340426Y-124531790D01*
X123419475Y-124668709D01*
X123419479Y-124668714D01*
X123419480Y-124668716D01*
X123531284Y-124780520D01*
X123531286Y-124780521D01*
X123531290Y-124780524D01*
X123652489Y-124850497D01*
X123668216Y-124859577D01*
X123820943Y-124900500D01*
X123820945Y-124900500D01*
X123979055Y-124900500D01*
X123979057Y-124900500D01*
X124131784Y-124859577D01*
X124268716Y-124780520D01*
X124380520Y-124668716D01*
X124459577Y-124531784D01*
X124500500Y-124379057D01*
X124500500Y-124220943D01*
X124490630Y-124184108D01*
X128549500Y-124184108D01*
X128549500Y-124315892D01*
X128558505Y-124349500D01*
X128583608Y-124443187D01*
X128616554Y-124500250D01*
X128649500Y-124557314D01*
X128742686Y-124650500D01*
X128856814Y-124716392D01*
X128984108Y-124750500D01*
X128984110Y-124750500D01*
X129115890Y-124750500D01*
X129115892Y-124750500D01*
X129243186Y-124716392D01*
X129357314Y-124650500D01*
X129450500Y-124557314D01*
X129516392Y-124443186D01*
X129532222Y-124384108D01*
X146949500Y-124384108D01*
X146949500Y-124515892D01*
X146966554Y-124579539D01*
X146983608Y-124643187D01*
X146998348Y-124668717D01*
X147049500Y-124757314D01*
X147142686Y-124850500D01*
X147241521Y-124907563D01*
X147255944Y-124915890D01*
X147256814Y-124916392D01*
X147384108Y-124950500D01*
X147384110Y-124950500D01*
X147515890Y-124950500D01*
X147515892Y-124950500D01*
X147643186Y-124916392D01*
X147757314Y-124850500D01*
X147850500Y-124757314D01*
X147916392Y-124643186D01*
X147950500Y-124515892D01*
X147950500Y-124384108D01*
X147916392Y-124256814D01*
X147850500Y-124142686D01*
X147757314Y-124049500D01*
X147700250Y-124016554D01*
X147643187Y-123983608D01*
X147576788Y-123965817D01*
X147515892Y-123949500D01*
X147384108Y-123949500D01*
X147256812Y-123983608D01*
X147142686Y-124049500D01*
X147142683Y-124049502D01*
X147049502Y-124142683D01*
X147049500Y-124142686D01*
X146983608Y-124256812D01*
X146967778Y-124315892D01*
X146949500Y-124384108D01*
X129532222Y-124384108D01*
X129550500Y-124315892D01*
X129550500Y-124184108D01*
X129516392Y-124056814D01*
X129450500Y-123942686D01*
X129357314Y-123849500D01*
X129272442Y-123800499D01*
X129243187Y-123783608D01*
X129178931Y-123766391D01*
X129115892Y-123749500D01*
X128984108Y-123749500D01*
X128856812Y-123783608D01*
X128742686Y-123849500D01*
X128742683Y-123849502D01*
X128649502Y-123942683D01*
X128649500Y-123942686D01*
X128583608Y-124056812D01*
X128558637Y-124150008D01*
X128549500Y-124184108D01*
X124490630Y-124184108D01*
X124459577Y-124068216D01*
X124448773Y-124049502D01*
X124380524Y-123931290D01*
X124380518Y-123931282D01*
X124268717Y-123819481D01*
X124268709Y-123819475D01*
X124131790Y-123740426D01*
X124131786Y-123740424D01*
X124131784Y-123740423D01*
X123979057Y-123699500D01*
X123820943Y-123699500D01*
X123668216Y-123740423D01*
X123668209Y-123740426D01*
X123531290Y-123819475D01*
X123531282Y-123819481D01*
X123419481Y-123931282D01*
X123419475Y-123931290D01*
X123340426Y-124068209D01*
X123340423Y-124068216D01*
X123299500Y-124220943D01*
X100500500Y-124220943D01*
X100500500Y-122248995D01*
X101139499Y-122248995D01*
X101166418Y-122384322D01*
X101166421Y-122384332D01*
X101219221Y-122511804D01*
X101219228Y-122511817D01*
X101295885Y-122626541D01*
X101295888Y-122626545D01*
X101393454Y-122724111D01*
X101393458Y-122724114D01*
X101508182Y-122800771D01*
X101508195Y-122800778D01*
X101587455Y-122833608D01*
X101635672Y-122853580D01*
X101635676Y-122853580D01*
X101635677Y-122853581D01*
X101771004Y-122880500D01*
X101771007Y-122880500D01*
X102508995Y-122880500D01*
X102600041Y-122862389D01*
X102644328Y-122853580D01*
X102771811Y-122800775D01*
X102886542Y-122724114D01*
X102984114Y-122626542D01*
X103060775Y-122511811D01*
X103113580Y-122384328D01*
X103137039Y-122266392D01*
X103140500Y-122248995D01*
X105069499Y-122248995D01*
X105096418Y-122384322D01*
X105096421Y-122384332D01*
X105149221Y-122511804D01*
X105149228Y-122511817D01*
X105225885Y-122626541D01*
X105225888Y-122626545D01*
X105323454Y-122724111D01*
X105323458Y-122724114D01*
X105438182Y-122800771D01*
X105438195Y-122800778D01*
X105551995Y-122847915D01*
X105606399Y-122891756D01*
X105628464Y-122958050D01*
X105611185Y-123025749D01*
X105566544Y-123069863D01*
X105434179Y-123146285D01*
X105434176Y-123146287D01*
X105326287Y-123254176D01*
X105326282Y-123254182D01*
X105249993Y-123386318D01*
X105249992Y-123386322D01*
X105210500Y-123533707D01*
X105210500Y-123686293D01*
X105246188Y-123819480D01*
X105249993Y-123833681D01*
X105326282Y-123965817D01*
X105326284Y-123965819D01*
X105326285Y-123965821D01*
X105434179Y-124073715D01*
X105434180Y-124073716D01*
X105434182Y-124073717D01*
X105566318Y-124150006D01*
X105566319Y-124150006D01*
X105566322Y-124150008D01*
X105713707Y-124189500D01*
X105713710Y-124189500D01*
X105866290Y-124189500D01*
X105866293Y-124189500D01*
X106013678Y-124150008D01*
X106145821Y-124073715D01*
X106253715Y-123965821D01*
X106330008Y-123833678D01*
X106369500Y-123686293D01*
X106369500Y-123533707D01*
X106330008Y-123386322D01*
X106253715Y-123254179D01*
X106233644Y-123234108D01*
X132449500Y-123234108D01*
X132449500Y-123365891D01*
X132483608Y-123493187D01*
X132507003Y-123533707D01*
X132549500Y-123607314D01*
X132642686Y-123700500D01*
X132756814Y-123766392D01*
X132884108Y-123800500D01*
X132884110Y-123800500D01*
X133015890Y-123800500D01*
X133015892Y-123800500D01*
X133143186Y-123766392D01*
X133257314Y-123700500D01*
X133350500Y-123607314D01*
X133416392Y-123493186D01*
X133450500Y-123365892D01*
X133450500Y-123234108D01*
X133416392Y-123106814D01*
X133350500Y-122992686D01*
X133257314Y-122899500D01*
X133200250Y-122866554D01*
X133143187Y-122833608D01*
X133079539Y-122816554D01*
X133015892Y-122799500D01*
X132884108Y-122799500D01*
X132756812Y-122833608D01*
X132642686Y-122899500D01*
X132642683Y-122899502D01*
X132549502Y-122992683D01*
X132549500Y-122992686D01*
X132483608Y-123106812D01*
X132449500Y-123234108D01*
X106233644Y-123234108D01*
X106145821Y-123146285D01*
X106086241Y-123111886D01*
X106038027Y-123061319D01*
X106024805Y-122992712D01*
X106050773Y-122927848D01*
X106107687Y-122887320D01*
X106148243Y-122880500D01*
X106938995Y-122880500D01*
X107030041Y-122862389D01*
X107074328Y-122853580D01*
X107201811Y-122800775D01*
X107316542Y-122724114D01*
X107414114Y-122626542D01*
X107484673Y-122520943D01*
X107849500Y-122520943D01*
X107849500Y-122679056D01*
X107890423Y-122831783D01*
X107890426Y-122831790D01*
X107969475Y-122968709D01*
X107969479Y-122968714D01*
X107969480Y-122968716D01*
X108081284Y-123080520D01*
X108081286Y-123080521D01*
X108081290Y-123080524D01*
X108195193Y-123146285D01*
X108218216Y-123159577D01*
X108370943Y-123200500D01*
X108370945Y-123200500D01*
X108529055Y-123200500D01*
X108529057Y-123200500D01*
X108681784Y-123159577D01*
X108818716Y-123080520D01*
X108930520Y-122968716D01*
X109009577Y-122831784D01*
X109050500Y-122679057D01*
X109050500Y-122520943D01*
X109009577Y-122368216D01*
X108970481Y-122300499D01*
X108930524Y-122231290D01*
X108930518Y-122231282D01*
X108818717Y-122119481D01*
X108818709Y-122119475D01*
X108681790Y-122040426D01*
X108681786Y-122040424D01*
X108681784Y-122040423D01*
X108529057Y-121999500D01*
X108370943Y-121999500D01*
X108218216Y-122040423D01*
X108218209Y-122040426D01*
X108081290Y-122119475D01*
X108081282Y-122119481D01*
X107969481Y-122231282D01*
X107969475Y-122231290D01*
X107890426Y-122368209D01*
X107890423Y-122368216D01*
X107849500Y-122520943D01*
X107484673Y-122520943D01*
X107490775Y-122511811D01*
X107543580Y-122384328D01*
X107567039Y-122266392D01*
X107570500Y-122248995D01*
X107570500Y-122111004D01*
X107543581Y-121975677D01*
X107543580Y-121975676D01*
X107543580Y-121975672D01*
X107543578Y-121975667D01*
X107490778Y-121848195D01*
X107490771Y-121848182D01*
X107414114Y-121733458D01*
X107414111Y-121733454D01*
X107316545Y-121635888D01*
X107316541Y-121635885D01*
X107313882Y-121634108D01*
X110649500Y-121634108D01*
X110649500Y-121765891D01*
X110683608Y-121893187D01*
X110716554Y-121950250D01*
X110749500Y-122007314D01*
X110842686Y-122100500D01*
X110956814Y-122166392D01*
X111084108Y-122200500D01*
X111084110Y-122200500D01*
X111215890Y-122200500D01*
X111215892Y-122200500D01*
X111343186Y-122166392D01*
X111457314Y-122100500D01*
X111550500Y-122007314D01*
X111616392Y-121893186D01*
X111650500Y-121765892D01*
X111650500Y-121734108D01*
X112999500Y-121734108D01*
X112999500Y-121865891D01*
X113033608Y-121993187D01*
X113048348Y-122018717D01*
X113099500Y-122107314D01*
X113192686Y-122200500D01*
X113306814Y-122266392D01*
X113434108Y-122300500D01*
X113434110Y-122300500D01*
X113565890Y-122300500D01*
X113565892Y-122300500D01*
X113693186Y-122266392D01*
X113807314Y-122200500D01*
X113900500Y-122107314D01*
X113966392Y-121993186D01*
X114000500Y-121865892D01*
X114000500Y-121734108D01*
X113966392Y-121606814D01*
X113900500Y-121492686D01*
X113807314Y-121399500D01*
X113711359Y-121344100D01*
X113693187Y-121333608D01*
X113623971Y-121315062D01*
X113565892Y-121299500D01*
X113434108Y-121299500D01*
X113306812Y-121333608D01*
X113192686Y-121399500D01*
X113192683Y-121399502D01*
X113099502Y-121492683D01*
X113099500Y-121492686D01*
X113033608Y-121606812D01*
X112999500Y-121734108D01*
X111650500Y-121734108D01*
X111650500Y-121634108D01*
X111616392Y-121506814D01*
X111616163Y-121506418D01*
X111593054Y-121466392D01*
X111550500Y-121392686D01*
X111457314Y-121299500D01*
X111400250Y-121266554D01*
X111343187Y-121233608D01*
X111277061Y-121215890D01*
X111215892Y-121199500D01*
X111084108Y-121199500D01*
X110956812Y-121233608D01*
X110842686Y-121299500D01*
X110842683Y-121299502D01*
X110749502Y-121392683D01*
X110749500Y-121392686D01*
X110683608Y-121506812D01*
X110649500Y-121634108D01*
X107313882Y-121634108D01*
X107201817Y-121559228D01*
X107201804Y-121559221D01*
X107074332Y-121506421D01*
X107074322Y-121506418D01*
X106938995Y-121479500D01*
X106938993Y-121479500D01*
X105701007Y-121479500D01*
X105701005Y-121479500D01*
X105565677Y-121506418D01*
X105565667Y-121506421D01*
X105438195Y-121559221D01*
X105438182Y-121559228D01*
X105323458Y-121635885D01*
X105323454Y-121635888D01*
X105225888Y-121733454D01*
X105225885Y-121733458D01*
X105149228Y-121848182D01*
X105149221Y-121848195D01*
X105096421Y-121975667D01*
X105096418Y-121975677D01*
X105069500Y-122111004D01*
X105069500Y-122111007D01*
X105069500Y-122248993D01*
X105069500Y-122248995D01*
X105069499Y-122248995D01*
X103140500Y-122248995D01*
X103140500Y-122111004D01*
X103113581Y-121975677D01*
X103113580Y-121975676D01*
X103113580Y-121975672D01*
X103113578Y-121975667D01*
X103060778Y-121848195D01*
X103060771Y-121848182D01*
X102984114Y-121733458D01*
X102984111Y-121733454D01*
X102886545Y-121635888D01*
X102886541Y-121635885D01*
X102771817Y-121559228D01*
X102771804Y-121559221D01*
X102644332Y-121506421D01*
X102644322Y-121506418D01*
X102508995Y-121479500D01*
X102508993Y-121479500D01*
X101771007Y-121479500D01*
X101771005Y-121479500D01*
X101635677Y-121506418D01*
X101635667Y-121506421D01*
X101508195Y-121559221D01*
X101508182Y-121559228D01*
X101393458Y-121635885D01*
X101393454Y-121635888D01*
X101295888Y-121733454D01*
X101295885Y-121733458D01*
X101219228Y-121848182D01*
X101219221Y-121848195D01*
X101166421Y-121975667D01*
X101166418Y-121975677D01*
X101139500Y-122111004D01*
X101139500Y-122111007D01*
X101139500Y-122248993D01*
X101139500Y-122248995D01*
X101139499Y-122248995D01*
X100500500Y-122248995D01*
X100500500Y-120934108D01*
X118049500Y-120934108D01*
X118049500Y-121065892D01*
X118081176Y-121184110D01*
X118083609Y-121193188D01*
X118083609Y-121193189D01*
X118138348Y-121288000D01*
X118154821Y-121355900D01*
X118138348Y-121412000D01*
X118083609Y-121506810D01*
X118083609Y-121506811D01*
X118083609Y-121506812D01*
X118083608Y-121506814D01*
X118070077Y-121557313D01*
X118049500Y-121634108D01*
X118049500Y-121765891D01*
X118083608Y-121893187D01*
X118116554Y-121950250D01*
X118149500Y-122007314D01*
X118242686Y-122100500D01*
X118356814Y-122166392D01*
X118484108Y-122200500D01*
X118484110Y-122200500D01*
X118615890Y-122200500D01*
X118615892Y-122200500D01*
X118743186Y-122166392D01*
X118857314Y-122100500D01*
X118950500Y-122007314D01*
X119016392Y-121893186D01*
X119050500Y-121765892D01*
X119050500Y-121634108D01*
X119033575Y-121570943D01*
X124599500Y-121570943D01*
X124599500Y-121729057D01*
X124636165Y-121865891D01*
X124640423Y-121881783D01*
X124640426Y-121881790D01*
X124719475Y-122018709D01*
X124719479Y-122018714D01*
X124719480Y-122018716D01*
X124831284Y-122130520D01*
X124831286Y-122130521D01*
X124831290Y-122130524D01*
X124952489Y-122200497D01*
X124968216Y-122209577D01*
X125120943Y-122250500D01*
X125120945Y-122250500D01*
X125279055Y-122250500D01*
X125279057Y-122250500D01*
X125431784Y-122209577D01*
X125568716Y-122130520D01*
X125680520Y-122018716D01*
X125700501Y-121984108D01*
X139849500Y-121984108D01*
X139849500Y-122115892D01*
X139850462Y-122119481D01*
X139883608Y-122243187D01*
X139897005Y-122266391D01*
X139949500Y-122357314D01*
X140042686Y-122450500D01*
X140156814Y-122516392D01*
X140284108Y-122550500D01*
X140284110Y-122550500D01*
X140415890Y-122550500D01*
X140415892Y-122550500D01*
X140543186Y-122516392D01*
X140657314Y-122450500D01*
X140750500Y-122357314D01*
X140777272Y-122310943D01*
X141939500Y-122310943D01*
X141939500Y-122469057D01*
X141961323Y-122550499D01*
X141980423Y-122621783D01*
X141980426Y-122621790D01*
X142059475Y-122758709D01*
X142059479Y-122758714D01*
X142059480Y-122758716D01*
X142171284Y-122870520D01*
X142171286Y-122870521D01*
X142171290Y-122870524D01*
X142270580Y-122927848D01*
X142308216Y-122949577D01*
X142460943Y-122990500D01*
X142460945Y-122990500D01*
X142619055Y-122990500D01*
X142619057Y-122990500D01*
X142771784Y-122949577D01*
X142908716Y-122870520D01*
X143020520Y-122758716D01*
X143099577Y-122621784D01*
X143140500Y-122469057D01*
X143140500Y-122310943D01*
X143123901Y-122248995D01*
X143429499Y-122248995D01*
X143456418Y-122384322D01*
X143456421Y-122384332D01*
X143509221Y-122511804D01*
X143509228Y-122511817D01*
X143585885Y-122626541D01*
X143585888Y-122626545D01*
X143683454Y-122724111D01*
X143683458Y-122724114D01*
X143798182Y-122800771D01*
X143798195Y-122800778D01*
X143877455Y-122833608D01*
X143925672Y-122853580D01*
X143925676Y-122853580D01*
X143925677Y-122853581D01*
X144061004Y-122880500D01*
X144851757Y-122880500D01*
X144918796Y-122900185D01*
X144964551Y-122952989D01*
X144974495Y-123022147D01*
X144945470Y-123085703D01*
X144913758Y-123111887D01*
X144854179Y-123146285D01*
X144854176Y-123146287D01*
X144746287Y-123254176D01*
X144746282Y-123254182D01*
X144669993Y-123386318D01*
X144669992Y-123386322D01*
X144630500Y-123533707D01*
X144630500Y-123686293D01*
X144666188Y-123819480D01*
X144669993Y-123833681D01*
X144746282Y-123965817D01*
X144746284Y-123965819D01*
X144746285Y-123965821D01*
X144854179Y-124073715D01*
X144854180Y-124073716D01*
X144854182Y-124073717D01*
X144986318Y-124150006D01*
X144986319Y-124150006D01*
X144986322Y-124150008D01*
X145133707Y-124189500D01*
X145133710Y-124189500D01*
X145286290Y-124189500D01*
X145286293Y-124189500D01*
X145433678Y-124150008D01*
X145565821Y-124073715D01*
X145673715Y-123965821D01*
X145750008Y-123833678D01*
X145789500Y-123686293D01*
X145789500Y-123533707D01*
X145750008Y-123386322D01*
X145673715Y-123254179D01*
X145565821Y-123146285D01*
X145451920Y-123080524D01*
X145433455Y-123069863D01*
X145385240Y-123019295D01*
X145372018Y-122950688D01*
X145397986Y-122885824D01*
X145448003Y-122847915D01*
X145561811Y-122800775D01*
X145676542Y-122724114D01*
X145774114Y-122626542D01*
X145850775Y-122511811D01*
X145903580Y-122384328D01*
X145927039Y-122266392D01*
X145930500Y-122248995D01*
X147859499Y-122248995D01*
X147886418Y-122384322D01*
X147886421Y-122384332D01*
X147939221Y-122511804D01*
X147939228Y-122511817D01*
X148015885Y-122626541D01*
X148015888Y-122626545D01*
X148113454Y-122724111D01*
X148113458Y-122724114D01*
X148228182Y-122800771D01*
X148228195Y-122800778D01*
X148307455Y-122833608D01*
X148355672Y-122853580D01*
X148355676Y-122853580D01*
X148355677Y-122853581D01*
X148491004Y-122880500D01*
X148491007Y-122880500D01*
X149228995Y-122880500D01*
X149320041Y-122862389D01*
X149364328Y-122853580D01*
X149491811Y-122800775D01*
X149606542Y-122724114D01*
X149704114Y-122626542D01*
X149780775Y-122511811D01*
X149833580Y-122384328D01*
X149857039Y-122266392D01*
X149860500Y-122248995D01*
X149860500Y-122111004D01*
X149833581Y-121975677D01*
X149833580Y-121975676D01*
X149833580Y-121975672D01*
X149833578Y-121975667D01*
X149780778Y-121848195D01*
X149780771Y-121848182D01*
X149704114Y-121733458D01*
X149704111Y-121733454D01*
X149606545Y-121635888D01*
X149606541Y-121635885D01*
X149491817Y-121559228D01*
X149491804Y-121559221D01*
X149364332Y-121506421D01*
X149364322Y-121506418D01*
X149228995Y-121479500D01*
X149228993Y-121479500D01*
X148491007Y-121479500D01*
X148491005Y-121479500D01*
X148355677Y-121506418D01*
X148355667Y-121506421D01*
X148228195Y-121559221D01*
X148228182Y-121559228D01*
X148113458Y-121635885D01*
X148113454Y-121635888D01*
X148015888Y-121733454D01*
X148015885Y-121733458D01*
X147939228Y-121848182D01*
X147939221Y-121848195D01*
X147886421Y-121975667D01*
X147886418Y-121975677D01*
X147859500Y-122111004D01*
X147859500Y-122111007D01*
X147859500Y-122248993D01*
X147859500Y-122248995D01*
X147859499Y-122248995D01*
X145930500Y-122248995D01*
X145930500Y-122111004D01*
X145903581Y-121975677D01*
X145903580Y-121975676D01*
X145903580Y-121975672D01*
X145903578Y-121975667D01*
X145850778Y-121848195D01*
X145850771Y-121848182D01*
X145774114Y-121733458D01*
X145774111Y-121733454D01*
X145676545Y-121635888D01*
X145676541Y-121635885D01*
X145561817Y-121559228D01*
X145561804Y-121559221D01*
X145434332Y-121506421D01*
X145434322Y-121506418D01*
X145298995Y-121479500D01*
X145298993Y-121479500D01*
X144061007Y-121479500D01*
X144061005Y-121479500D01*
X143925677Y-121506418D01*
X143925667Y-121506421D01*
X143798195Y-121559221D01*
X143798182Y-121559228D01*
X143683458Y-121635885D01*
X143683454Y-121635888D01*
X143585888Y-121733454D01*
X143585885Y-121733458D01*
X143509228Y-121848182D01*
X143509221Y-121848195D01*
X143456421Y-121975667D01*
X143456418Y-121975677D01*
X143429500Y-122111004D01*
X143429500Y-122111007D01*
X143429500Y-122248993D01*
X143429500Y-122248995D01*
X143429499Y-122248995D01*
X143123901Y-122248995D01*
X143099577Y-122158216D01*
X143099573Y-122158209D01*
X143020524Y-122021290D01*
X143020518Y-122021282D01*
X142908717Y-121909481D01*
X142908709Y-121909475D01*
X142771790Y-121830426D01*
X142771786Y-121830424D01*
X142771784Y-121830423D01*
X142619057Y-121789500D01*
X142460943Y-121789500D01*
X142308216Y-121830423D01*
X142308209Y-121830426D01*
X142171290Y-121909475D01*
X142171282Y-121909481D01*
X142059481Y-122021282D01*
X142059475Y-122021290D01*
X141980426Y-122158209D01*
X141980425Y-122158212D01*
X141980423Y-122158216D01*
X141939500Y-122310943D01*
X140777272Y-122310943D01*
X140816392Y-122243186D01*
X140850500Y-122115892D01*
X140850500Y-121984108D01*
X140816392Y-121856814D01*
X140750500Y-121742686D01*
X140657314Y-121649500D01*
X140583380Y-121606814D01*
X140543187Y-121583608D01*
X140479539Y-121566554D01*
X140415892Y-121549500D01*
X140284108Y-121549500D01*
X140156812Y-121583608D01*
X140042686Y-121649500D01*
X140042683Y-121649502D01*
X139949502Y-121742683D01*
X139949500Y-121742686D01*
X139883608Y-121856812D01*
X139869496Y-121909480D01*
X139849500Y-121984108D01*
X125700501Y-121984108D01*
X125759577Y-121881784D01*
X125800500Y-121729057D01*
X125800500Y-121570943D01*
X125759577Y-121418216D01*
X125748773Y-121399502D01*
X125680524Y-121281290D01*
X125680518Y-121281282D01*
X125568716Y-121169480D01*
X125568711Y-121169476D01*
X125431790Y-121090426D01*
X125431786Y-121090424D01*
X125431784Y-121090423D01*
X125408216Y-121084108D01*
X129449500Y-121084108D01*
X129449500Y-121215891D01*
X129483608Y-121343187D01*
X129487542Y-121350000D01*
X129549500Y-121457314D01*
X129642686Y-121550500D01*
X129756814Y-121616392D01*
X129884108Y-121650500D01*
X129884110Y-121650500D01*
X130015890Y-121650500D01*
X130015892Y-121650500D01*
X130143186Y-121616392D01*
X130257314Y-121550500D01*
X130350500Y-121457314D01*
X130416392Y-121343186D01*
X130450500Y-121215892D01*
X130450500Y-121184108D01*
X133899500Y-121184108D01*
X133899500Y-121315892D01*
X133904247Y-121333608D01*
X133933608Y-121443187D01*
X133941766Y-121457316D01*
X133999500Y-121557314D01*
X134092686Y-121650500D01*
X134206814Y-121716392D01*
X134334108Y-121750500D01*
X134334110Y-121750500D01*
X134465890Y-121750500D01*
X134465892Y-121750500D01*
X134593186Y-121716392D01*
X134707314Y-121650500D01*
X134800500Y-121557314D01*
X134866392Y-121443186D01*
X134900500Y-121315892D01*
X134900500Y-121184108D01*
X134866392Y-121056814D01*
X134800500Y-120942686D01*
X134791922Y-120934108D01*
X139149500Y-120934108D01*
X139149500Y-121065892D01*
X139156073Y-121090423D01*
X139183608Y-121193187D01*
X139196717Y-121215892D01*
X139249500Y-121307314D01*
X139342686Y-121400500D01*
X139456814Y-121466392D01*
X139584108Y-121500500D01*
X139584110Y-121500500D01*
X139715890Y-121500500D01*
X139715892Y-121500500D01*
X139843186Y-121466392D01*
X139957314Y-121400500D01*
X140050500Y-121307314D01*
X140116392Y-121193186D01*
X140150500Y-121065892D01*
X140150500Y-120934108D01*
X140116392Y-120806814D01*
X140050500Y-120692686D01*
X139957314Y-120599500D01*
X139899100Y-120565890D01*
X139843187Y-120533608D01*
X139779539Y-120516554D01*
X139715892Y-120499500D01*
X139584108Y-120499500D01*
X139456812Y-120533608D01*
X139342686Y-120599500D01*
X139342683Y-120599502D01*
X139249502Y-120692683D01*
X139249500Y-120692686D01*
X139183608Y-120806812D01*
X139183473Y-120807316D01*
X139149500Y-120934108D01*
X134791922Y-120934108D01*
X134707314Y-120849500D01*
X134650250Y-120816554D01*
X134593187Y-120783608D01*
X134529539Y-120766554D01*
X134465892Y-120749500D01*
X134334108Y-120749500D01*
X134206812Y-120783608D01*
X134092686Y-120849500D01*
X134092683Y-120849502D01*
X133999502Y-120942683D01*
X133999500Y-120942686D01*
X133933608Y-121056812D01*
X133903419Y-121169481D01*
X133899500Y-121184108D01*
X130450500Y-121184108D01*
X130450500Y-121084108D01*
X130416392Y-120956814D01*
X130350500Y-120842686D01*
X130257314Y-120749500D01*
X130200250Y-120716554D01*
X130143187Y-120683608D01*
X130079539Y-120666554D01*
X130015892Y-120649500D01*
X129884108Y-120649500D01*
X129756812Y-120683608D01*
X129642686Y-120749500D01*
X129642683Y-120749502D01*
X129549502Y-120842683D01*
X129549500Y-120842686D01*
X129483608Y-120956812D01*
X129449500Y-121084108D01*
X125408216Y-121084108D01*
X125279057Y-121049500D01*
X125120943Y-121049500D01*
X124968216Y-121090423D01*
X124968209Y-121090426D01*
X124831290Y-121169475D01*
X124831282Y-121169481D01*
X124719481Y-121281282D01*
X124719475Y-121281290D01*
X124640426Y-121418209D01*
X124640423Y-121418216D01*
X124599500Y-121570943D01*
X119033575Y-121570943D01*
X119016392Y-121506814D01*
X118957907Y-121405515D01*
X118954972Y-121398631D01*
X118951721Y-121371072D01*
X118945178Y-121344100D01*
X118947576Y-121335930D01*
X118946788Y-121329243D01*
X118953704Y-121315062D01*
X118961650Y-121288000D01*
X119016392Y-121193186D01*
X119050500Y-121065892D01*
X119050500Y-120934108D01*
X119016392Y-120806814D01*
X118950500Y-120692686D01*
X118857314Y-120599500D01*
X118743186Y-120533608D01*
X118615892Y-120499500D01*
X118484108Y-120499500D01*
X118356812Y-120533608D01*
X118242686Y-120599500D01*
X118242683Y-120599502D01*
X118149502Y-120692683D01*
X118149500Y-120692686D01*
X118083608Y-120806812D01*
X118083473Y-120807316D01*
X118049500Y-120934108D01*
X100500500Y-120934108D01*
X100500500Y-119384108D01*
X102699500Y-119384108D01*
X102699500Y-119515892D01*
X102700854Y-119520945D01*
X102733608Y-119643187D01*
X102762094Y-119692525D01*
X102799500Y-119757314D01*
X102892686Y-119850500D01*
X103006814Y-119916392D01*
X103134108Y-119950500D01*
X103134110Y-119950500D01*
X103265890Y-119950500D01*
X103265892Y-119950500D01*
X103393186Y-119916392D01*
X103507314Y-119850500D01*
X103600500Y-119757314D01*
X103642766Y-119684108D01*
X104699500Y-119684108D01*
X104699500Y-119815892D01*
X104705282Y-119837472D01*
X104733608Y-119943187D01*
X104753412Y-119977488D01*
X104799500Y-120057314D01*
X104892686Y-120150500D01*
X105006814Y-120216392D01*
X105134108Y-120250500D01*
X105134110Y-120250500D01*
X105265890Y-120250500D01*
X105265892Y-120250500D01*
X105393186Y-120216392D01*
X105507314Y-120150500D01*
X105600500Y-120057314D01*
X105666392Y-119943186D01*
X105695619Y-119834108D01*
X108649500Y-119834108D01*
X108649500Y-119965892D01*
X108658505Y-119999500D01*
X108683608Y-120093187D01*
X108716554Y-120150250D01*
X108749500Y-120207314D01*
X108842686Y-120300500D01*
X108956814Y-120366392D01*
X109084108Y-120400500D01*
X109084110Y-120400500D01*
X109215890Y-120400500D01*
X109215892Y-120400500D01*
X109343186Y-120366392D01*
X109457314Y-120300500D01*
X109550500Y-120207314D01*
X109616392Y-120093186D01*
X109632222Y-120034108D01*
X112899500Y-120034108D01*
X112899500Y-120165892D01*
X112913031Y-120216391D01*
X112933608Y-120293187D01*
X112941475Y-120306812D01*
X112999500Y-120407314D01*
X113092686Y-120500500D01*
X113191521Y-120557563D01*
X113205944Y-120565890D01*
X113206814Y-120566392D01*
X113334108Y-120600500D01*
X113334110Y-120600500D01*
X113465890Y-120600500D01*
X113465892Y-120600500D01*
X113593186Y-120566392D01*
X113707314Y-120500500D01*
X113773706Y-120434108D01*
X131749500Y-120434108D01*
X131749500Y-120565891D01*
X131783608Y-120693187D01*
X131816121Y-120749500D01*
X131849500Y-120807314D01*
X131942686Y-120900500D01*
X132056814Y-120966392D01*
X132184108Y-121000500D01*
X132184110Y-121000500D01*
X132315890Y-121000500D01*
X132315892Y-121000500D01*
X132443186Y-120966392D01*
X132557314Y-120900500D01*
X132650500Y-120807314D01*
X132716392Y-120693186D01*
X132750500Y-120565892D01*
X132750500Y-120434108D01*
X132716392Y-120306814D01*
X132650500Y-120192686D01*
X132557314Y-120099500D01*
X132500250Y-120066554D01*
X132443187Y-120033608D01*
X132379539Y-120016554D01*
X132315892Y-119999500D01*
X132184108Y-119999500D01*
X132056812Y-120033608D01*
X131942686Y-120099500D01*
X131942683Y-120099502D01*
X131849502Y-120192683D01*
X131849500Y-120192686D01*
X131783608Y-120306812D01*
X131749500Y-120434108D01*
X113773706Y-120434108D01*
X113800500Y-120407314D01*
X113866392Y-120293186D01*
X113900500Y-120165892D01*
X113900500Y-120034108D01*
X113866392Y-119906814D01*
X113800500Y-119792686D01*
X113707314Y-119699500D01*
X113695233Y-119692525D01*
X116114500Y-119692525D01*
X116114500Y-119837475D01*
X116149667Y-119968717D01*
X116152017Y-119977488D01*
X116224488Y-120103011D01*
X116224490Y-120103013D01*
X116224491Y-120103015D01*
X116326985Y-120205509D01*
X116326986Y-120205510D01*
X116326988Y-120205511D01*
X116452511Y-120277982D01*
X116452512Y-120277982D01*
X116452515Y-120277984D01*
X116592525Y-120315500D01*
X116592528Y-120315500D01*
X116737472Y-120315500D01*
X116737475Y-120315500D01*
X116877485Y-120277984D01*
X117003015Y-120205509D01*
X117105509Y-120103015D01*
X117177984Y-119977485D01*
X117215500Y-119837475D01*
X117215500Y-119692525D01*
X117177984Y-119552515D01*
X117156838Y-119515890D01*
X117105511Y-119426988D01*
X117105506Y-119426982D01*
X117003017Y-119324493D01*
X117003011Y-119324488D01*
X116877488Y-119252017D01*
X116877489Y-119252017D01*
X116866006Y-119248940D01*
X116737475Y-119214500D01*
X116592525Y-119214500D01*
X116463993Y-119248940D01*
X116452511Y-119252017D01*
X116326988Y-119324488D01*
X116326982Y-119324493D01*
X116224493Y-119426982D01*
X116224488Y-119426988D01*
X116152017Y-119552511D01*
X116152016Y-119552515D01*
X116114500Y-119692525D01*
X113695233Y-119692525D01*
X113622442Y-119650499D01*
X113593187Y-119633608D01*
X113528931Y-119616391D01*
X113465892Y-119599500D01*
X113334108Y-119599500D01*
X113206812Y-119633608D01*
X113092686Y-119699500D01*
X113092683Y-119699502D01*
X112999502Y-119792683D01*
X112999500Y-119792686D01*
X112933608Y-119906812D01*
X112917021Y-119968717D01*
X112899500Y-120034108D01*
X109632222Y-120034108D01*
X109650500Y-119965892D01*
X109650500Y-119834108D01*
X109616392Y-119706814D01*
X109550500Y-119592686D01*
X109457314Y-119499500D01*
X109400250Y-119466554D01*
X109343187Y-119433608D01*
X109279539Y-119416554D01*
X109215892Y-119399500D01*
X109084108Y-119399500D01*
X108956812Y-119433608D01*
X108842686Y-119499500D01*
X108842683Y-119499502D01*
X108749502Y-119592683D01*
X108749500Y-119592686D01*
X108683608Y-119706812D01*
X108667644Y-119766392D01*
X108649500Y-119834108D01*
X105695619Y-119834108D01*
X105700500Y-119815892D01*
X105700500Y-119684108D01*
X105666392Y-119556814D01*
X105600500Y-119442686D01*
X105507314Y-119349500D01*
X105479371Y-119333367D01*
X105479370Y-119333366D01*
X105393188Y-119283609D01*
X105393187Y-119283608D01*
X105393186Y-119283608D01*
X105265892Y-119249500D01*
X105134108Y-119249500D01*
X105006812Y-119283608D01*
X104892686Y-119349500D01*
X104892683Y-119349502D01*
X104799502Y-119442683D01*
X104799500Y-119442686D01*
X104733608Y-119556812D01*
X104708505Y-119650499D01*
X104699500Y-119684108D01*
X103642766Y-119684108D01*
X103666392Y-119643186D01*
X103700500Y-119515892D01*
X103700500Y-119384108D01*
X103666392Y-119256814D01*
X103663622Y-119252017D01*
X103653283Y-119234108D01*
X111099500Y-119234108D01*
X111099500Y-119365892D01*
X111108505Y-119399500D01*
X111133608Y-119493187D01*
X111166554Y-119550250D01*
X111199500Y-119607314D01*
X111292686Y-119700500D01*
X111406814Y-119766392D01*
X111534108Y-119800500D01*
X111534110Y-119800500D01*
X111665890Y-119800500D01*
X111665892Y-119800500D01*
X111793186Y-119766392D01*
X111907314Y-119700500D01*
X112000500Y-119607314D01*
X112066392Y-119493186D01*
X112100500Y-119365892D01*
X112100500Y-119234108D01*
X112066392Y-119106814D01*
X112000500Y-118992686D01*
X111907314Y-118899500D01*
X111808910Y-118842686D01*
X111793187Y-118833608D01*
X111723392Y-118814907D01*
X111665892Y-118799500D01*
X111534108Y-118799500D01*
X111406812Y-118833608D01*
X111292686Y-118899500D01*
X111292683Y-118899502D01*
X111199502Y-118992683D01*
X111199500Y-118992686D01*
X111133608Y-119106812D01*
X111117021Y-119168717D01*
X111099500Y-119234108D01*
X103653283Y-119234108D01*
X103651651Y-119231282D01*
X103600500Y-119142686D01*
X103507314Y-119049500D01*
X103408910Y-118992686D01*
X103393187Y-118983608D01*
X103293188Y-118956814D01*
X103265892Y-118949500D01*
X103134108Y-118949500D01*
X103006812Y-118983608D01*
X102892686Y-119049500D01*
X102892683Y-119049502D01*
X102799502Y-119142683D01*
X102799500Y-119142686D01*
X102733608Y-119256812D01*
X102706074Y-119359573D01*
X102699500Y-119384108D01*
X100500500Y-119384108D01*
X100500500Y-118434108D01*
X105199500Y-118434108D01*
X105199500Y-118565892D01*
X105206813Y-118593186D01*
X105233608Y-118693187D01*
X105266121Y-118749500D01*
X105299500Y-118807314D01*
X105392686Y-118900500D01*
X105490221Y-118956812D01*
X105505944Y-118965890D01*
X105506814Y-118966392D01*
X105634108Y-119000500D01*
X105634110Y-119000500D01*
X105765890Y-119000500D01*
X105765892Y-119000500D01*
X105893186Y-118966392D01*
X106007314Y-118900500D01*
X106100500Y-118807314D01*
X106166392Y-118693186D01*
X106200500Y-118565892D01*
X106200500Y-118434108D01*
X106166392Y-118306814D01*
X106100500Y-118192686D01*
X106007314Y-118099500D01*
X105922442Y-118050499D01*
X105893187Y-118033608D01*
X105827061Y-118015890D01*
X105765892Y-117999500D01*
X105634108Y-117999500D01*
X105506812Y-118033608D01*
X105392686Y-118099500D01*
X105392683Y-118099502D01*
X105299502Y-118192683D01*
X105299500Y-118192686D01*
X105233608Y-118306812D01*
X105208773Y-118399500D01*
X105199500Y-118434108D01*
X100500500Y-118434108D01*
X100500500Y-116065602D01*
X100520185Y-115998563D01*
X100572989Y-115952808D01*
X100642147Y-115942864D01*
X100705703Y-115971889D01*
X100731885Y-116003600D01*
X100754835Y-116043351D01*
X100767849Y-116065892D01*
X100769480Y-116068716D01*
X100881284Y-116180520D01*
X100881286Y-116180521D01*
X100881290Y-116180524D01*
X100946780Y-116218334D01*
X101018216Y-116259577D01*
X101170943Y-116300500D01*
X101170945Y-116300500D01*
X101329055Y-116300500D01*
X101329057Y-116300500D01*
X101481784Y-116259577D01*
X101618716Y-116180520D01*
X101687319Y-116111917D01*
X101748642Y-116078432D01*
X101818334Y-116083416D01*
X101862681Y-116111917D01*
X101931284Y-116180520D01*
X101931286Y-116180521D01*
X101931290Y-116180524D01*
X101996780Y-116218334D01*
X102068216Y-116259577D01*
X102220943Y-116300500D01*
X102220945Y-116300500D01*
X102379055Y-116300500D01*
X102379057Y-116300500D01*
X102531784Y-116259577D01*
X102668716Y-116180520D01*
X102780520Y-116068716D01*
X102830964Y-115981342D01*
X102881530Y-115933128D01*
X102950137Y-115919904D01*
X103015002Y-115945872D01*
X103055531Y-116002785D01*
X103058126Y-116011249D01*
X103090423Y-116131785D01*
X103090426Y-116131790D01*
X103169475Y-116268709D01*
X103169481Y-116268717D01*
X103188083Y-116287319D01*
X103221568Y-116348642D01*
X103216584Y-116418334D01*
X103188083Y-116462681D01*
X103169481Y-116481282D01*
X103169475Y-116481290D01*
X103090426Y-116618209D01*
X103090423Y-116618216D01*
X103049500Y-116770943D01*
X103049500Y-116929057D01*
X103086922Y-117068716D01*
X103090423Y-117081783D01*
X103090426Y-117081790D01*
X103169475Y-117218709D01*
X103169479Y-117218714D01*
X103169480Y-117218716D01*
X103281284Y-117330520D01*
X103281286Y-117330521D01*
X103281290Y-117330524D01*
X103374102Y-117384108D01*
X103418216Y-117409577D01*
X103570943Y-117450500D01*
X103570945Y-117450500D01*
X103729055Y-117450500D01*
X103729057Y-117450500D01*
X103881784Y-117409577D01*
X104018716Y-117330520D01*
X104130520Y-117218716D01*
X104209577Y-117081784D01*
X104239277Y-116970943D01*
X104899500Y-116970943D01*
X104899500Y-117129057D01*
X104940418Y-117281763D01*
X104940423Y-117281783D01*
X104940426Y-117281790D01*
X105019475Y-117418709D01*
X105019479Y-117418714D01*
X105019480Y-117418716D01*
X105131284Y-117530520D01*
X105131286Y-117530521D01*
X105131290Y-117530524D01*
X105268209Y-117609573D01*
X105268216Y-117609577D01*
X105420943Y-117650500D01*
X105420945Y-117650500D01*
X105579055Y-117650500D01*
X105579057Y-117650500D01*
X105731784Y-117609577D01*
X105868716Y-117530520D01*
X105980520Y-117418716D01*
X106000501Y-117384108D01*
X111549500Y-117384108D01*
X111549500Y-117515891D01*
X111583608Y-117643187D01*
X111606200Y-117682316D01*
X111649500Y-117757314D01*
X111742686Y-117850500D01*
X111856814Y-117916392D01*
X111984108Y-117950500D01*
X111984110Y-117950500D01*
X112115890Y-117950500D01*
X112115892Y-117950500D01*
X112243186Y-117916392D01*
X112357314Y-117850500D01*
X112450500Y-117757314D01*
X112516392Y-117643186D01*
X112550500Y-117515892D01*
X112550500Y-117384108D01*
X112516392Y-117256814D01*
X112450500Y-117142686D01*
X112357314Y-117049500D01*
X112272439Y-117000497D01*
X112243187Y-116983608D01*
X112179539Y-116966554D01*
X112115892Y-116949500D01*
X111984108Y-116949500D01*
X111856812Y-116983608D01*
X111742686Y-117049500D01*
X111742683Y-117049502D01*
X111649502Y-117142683D01*
X111649500Y-117142686D01*
X111583608Y-117256812D01*
X111549500Y-117384108D01*
X106000501Y-117384108D01*
X106059577Y-117281784D01*
X106100500Y-117129057D01*
X106100500Y-116970943D01*
X106059577Y-116818216D01*
X106038258Y-116781290D01*
X105980524Y-116681290D01*
X105980518Y-116681282D01*
X105868717Y-116569481D01*
X105868709Y-116569475D01*
X105731790Y-116490426D01*
X105731786Y-116490424D01*
X105731784Y-116490423D01*
X105579057Y-116449500D01*
X105420943Y-116449500D01*
X105268216Y-116490423D01*
X105268209Y-116490426D01*
X105131290Y-116569475D01*
X105131282Y-116569481D01*
X105019481Y-116681282D01*
X105019475Y-116681290D01*
X104940426Y-116818209D01*
X104940423Y-116818216D01*
X104899500Y-116970943D01*
X104239277Y-116970943D01*
X104250500Y-116929057D01*
X104250500Y-116770943D01*
X104209577Y-116618216D01*
X104152841Y-116519945D01*
X104130524Y-116481290D01*
X104130518Y-116481282D01*
X104111917Y-116462681D01*
X104078432Y-116401358D01*
X104083416Y-116331666D01*
X104111917Y-116287319D01*
X104130520Y-116268716D01*
X104209577Y-116131784D01*
X104250500Y-115979057D01*
X104250500Y-115927525D01*
X105949500Y-115927525D01*
X105949500Y-116072475D01*
X105987016Y-116212485D01*
X105987017Y-116212488D01*
X106059488Y-116338011D01*
X106059490Y-116338013D01*
X106059491Y-116338015D01*
X106161985Y-116440509D01*
X106161986Y-116440510D01*
X106161988Y-116440511D01*
X106287511Y-116512982D01*
X106287512Y-116512982D01*
X106287515Y-116512984D01*
X106427525Y-116550500D01*
X106427528Y-116550500D01*
X106572472Y-116550500D01*
X106572475Y-116550500D01*
X106712485Y-116512984D01*
X106838015Y-116440509D01*
X106940509Y-116338015D01*
X107012984Y-116212485D01*
X107050500Y-116072475D01*
X107050500Y-115927525D01*
X107041356Y-115893399D01*
X108145500Y-115893399D01*
X108145500Y-116106601D01*
X108150148Y-116135945D01*
X108178853Y-116317180D01*
X108178853Y-116317183D01*
X108244734Y-116519944D01*
X108244735Y-116519945D01*
X108244736Y-116519947D01*
X108341528Y-116709913D01*
X108466846Y-116882397D01*
X108617603Y-117033154D01*
X108790087Y-117158472D01*
X108980053Y-117255264D01*
X108980055Y-117255265D01*
X109145775Y-117309110D01*
X109182821Y-117321147D01*
X109393399Y-117354500D01*
X109393400Y-117354500D01*
X109606600Y-117354500D01*
X109606601Y-117354500D01*
X109817179Y-117321147D01*
X109817182Y-117321146D01*
X109817183Y-117321146D01*
X109979721Y-117268334D01*
X110019947Y-117255264D01*
X110209913Y-117158472D01*
X110382397Y-117033154D01*
X110533154Y-116882397D01*
X110658472Y-116709913D01*
X110722573Y-116584108D01*
X112799500Y-116584108D01*
X112799500Y-116715891D01*
X112833608Y-116843187D01*
X112856247Y-116882398D01*
X112899500Y-116957314D01*
X112992686Y-117050500D01*
X113106814Y-117116392D01*
X113234108Y-117150500D01*
X113234110Y-117150500D01*
X113365890Y-117150500D01*
X113365892Y-117150500D01*
X113493186Y-117116392D01*
X113607314Y-117050500D01*
X113700500Y-116957314D01*
X113766392Y-116843186D01*
X113800500Y-116715892D01*
X113800500Y-116584108D01*
X113766392Y-116456814D01*
X113700500Y-116342686D01*
X113607314Y-116249500D01*
X113550250Y-116216554D01*
X113493187Y-116183608D01*
X113429539Y-116166554D01*
X113365892Y-116149500D01*
X113234108Y-116149500D01*
X113106812Y-116183608D01*
X112992686Y-116249500D01*
X112992683Y-116249502D01*
X112899502Y-116342683D01*
X112899500Y-116342686D01*
X112833608Y-116456812D01*
X112799500Y-116584108D01*
X110722573Y-116584108D01*
X110755264Y-116519947D01*
X110793796Y-116401358D01*
X110821146Y-116317183D01*
X110821146Y-116317182D01*
X110821147Y-116317179D01*
X110854500Y-116106601D01*
X110854500Y-115893399D01*
X110821147Y-115682821D01*
X110821146Y-115682817D01*
X110821146Y-115682816D01*
X110794606Y-115601134D01*
X110784796Y-115570943D01*
X114599500Y-115570943D01*
X114599500Y-115729057D01*
X114630913Y-115846290D01*
X114640423Y-115881783D01*
X114640426Y-115881790D01*
X114719475Y-116018709D01*
X114719481Y-116018717D01*
X114788083Y-116087319D01*
X114821568Y-116148642D01*
X114816584Y-116218334D01*
X114788083Y-116262681D01*
X114719481Y-116331282D01*
X114719475Y-116331290D01*
X114640426Y-116468209D01*
X114640423Y-116468216D01*
X114599500Y-116620943D01*
X114599500Y-116779057D01*
X114640139Y-116930722D01*
X114640423Y-116931783D01*
X114640426Y-116931790D01*
X114719475Y-117068709D01*
X114719481Y-117068717D01*
X114788083Y-117137319D01*
X114821568Y-117198642D01*
X114816584Y-117268334D01*
X114788083Y-117312681D01*
X114719481Y-117381282D01*
X114719475Y-117381290D01*
X114640426Y-117518209D01*
X114640423Y-117518216D01*
X114599500Y-117670943D01*
X114599500Y-117829057D01*
X114638067Y-117972989D01*
X114640423Y-117981783D01*
X114640426Y-117981790D01*
X114719475Y-118118709D01*
X114719481Y-118118717D01*
X114788083Y-118187319D01*
X114821568Y-118248642D01*
X114816584Y-118318334D01*
X114788083Y-118362681D01*
X114719481Y-118431282D01*
X114719475Y-118431290D01*
X114640426Y-118568209D01*
X114640423Y-118568216D01*
X114599500Y-118720943D01*
X114599500Y-118879057D01*
X114632041Y-119000500D01*
X114640423Y-119031783D01*
X114640426Y-119031790D01*
X114719475Y-119168709D01*
X114719479Y-119168714D01*
X114719480Y-119168716D01*
X114831284Y-119280520D01*
X114831286Y-119280521D01*
X114831290Y-119280524D01*
X114939827Y-119343187D01*
X114968216Y-119359577D01*
X115120943Y-119400500D01*
X115120945Y-119400500D01*
X115279055Y-119400500D01*
X115279057Y-119400500D01*
X115431784Y-119359577D01*
X115568716Y-119280520D01*
X115680520Y-119168716D01*
X115759577Y-119031784D01*
X115800500Y-118879057D01*
X115800500Y-118720943D01*
X115759577Y-118568216D01*
X115758234Y-118565890D01*
X115680524Y-118431290D01*
X115680518Y-118431282D01*
X115611917Y-118362681D01*
X115578432Y-118301358D01*
X115583416Y-118231666D01*
X115611917Y-118187319D01*
X115625320Y-118173916D01*
X115680520Y-118118716D01*
X115759577Y-117981784D01*
X115800500Y-117829057D01*
X115800500Y-117670943D01*
X115759577Y-117518216D01*
X115714935Y-117440893D01*
X115680996Y-117382108D01*
X115680995Y-117382107D01*
X115680520Y-117381284D01*
X115611698Y-117312462D01*
X115609877Y-117309108D01*
X119924500Y-117309108D01*
X119924500Y-117440892D01*
X119935946Y-117483608D01*
X119958608Y-117568187D01*
X119986151Y-117615892D01*
X120024500Y-117682314D01*
X120117686Y-117775500D01*
X120231814Y-117841392D01*
X120359108Y-117875500D01*
X120359110Y-117875500D01*
X120490890Y-117875500D01*
X120490892Y-117875500D01*
X120618186Y-117841392D01*
X120732314Y-117775500D01*
X120825500Y-117682314D01*
X120891392Y-117568186D01*
X120925500Y-117440892D01*
X120925500Y-117309108D01*
X121299500Y-117309108D01*
X121299500Y-117440892D01*
X121310946Y-117483608D01*
X121333608Y-117568187D01*
X121361151Y-117615892D01*
X121399500Y-117682314D01*
X121492686Y-117775500D01*
X121606814Y-117841392D01*
X121734108Y-117875500D01*
X121734110Y-117875500D01*
X121865890Y-117875500D01*
X121865892Y-117875500D01*
X121993186Y-117841392D01*
X122107314Y-117775500D01*
X122200500Y-117682314D01*
X122266392Y-117568186D01*
X122300500Y-117440892D01*
X122300500Y-117309108D01*
X122674500Y-117309108D01*
X122674500Y-117440892D01*
X122685946Y-117483608D01*
X122708608Y-117568187D01*
X122736151Y-117615892D01*
X122774500Y-117682314D01*
X122867686Y-117775500D01*
X122981814Y-117841392D01*
X123109108Y-117875500D01*
X123109110Y-117875500D01*
X123240890Y-117875500D01*
X123240892Y-117875500D01*
X123368186Y-117841392D01*
X123482314Y-117775500D01*
X123575500Y-117682314D01*
X123641392Y-117568186D01*
X123663920Y-117484108D01*
X126799500Y-117484108D01*
X126799500Y-117615892D01*
X126806813Y-117643186D01*
X126833608Y-117743187D01*
X126866554Y-117800250D01*
X126899500Y-117857314D01*
X126992686Y-117950500D01*
X127091521Y-118007563D01*
X127105944Y-118015890D01*
X127106814Y-118016392D01*
X127234108Y-118050500D01*
X127234110Y-118050500D01*
X127365890Y-118050500D01*
X127365892Y-118050500D01*
X127493186Y-118016392D01*
X127607314Y-117950500D01*
X127620995Y-117936819D01*
X127647922Y-117922115D01*
X127673741Y-117905523D01*
X127679941Y-117904631D01*
X127682318Y-117903334D01*
X127708676Y-117900500D01*
X127795685Y-117900500D01*
X127862724Y-117920185D01*
X127908479Y-117972989D01*
X127918423Y-118042147D01*
X127903072Y-118086501D01*
X127899502Y-118092683D01*
X127899500Y-118092686D01*
X127884476Y-118118709D01*
X127833608Y-118206812D01*
X127799500Y-118334108D01*
X127799500Y-118465891D01*
X127833608Y-118593187D01*
X127866121Y-118649500D01*
X127899500Y-118707314D01*
X127992686Y-118800500D01*
X128082808Y-118852532D01*
X128102229Y-118863745D01*
X128150445Y-118914312D01*
X128163667Y-118982919D01*
X128137699Y-119047784D01*
X128102230Y-119078519D01*
X128031284Y-119119479D01*
X127919481Y-119231282D01*
X127919475Y-119231290D01*
X127840426Y-119368209D01*
X127840423Y-119368216D01*
X127799500Y-119520943D01*
X127799500Y-119679057D01*
X127836165Y-119815891D01*
X127840423Y-119831783D01*
X127840426Y-119831790D01*
X127919475Y-119968709D01*
X127919479Y-119968714D01*
X127919480Y-119968716D01*
X128031284Y-120080520D01*
X128031286Y-120080521D01*
X128031290Y-120080524D01*
X128070250Y-120103017D01*
X128168216Y-120159577D01*
X128320943Y-120200500D01*
X128320945Y-120200500D01*
X128479055Y-120200500D01*
X128479057Y-120200500D01*
X128631784Y-120159577D01*
X128768716Y-120080520D01*
X128880520Y-119968716D01*
X128959577Y-119831784D01*
X129000500Y-119679057D01*
X129000500Y-119520943D01*
X128959577Y-119368216D01*
X128948773Y-119349502D01*
X128880524Y-119231290D01*
X128880518Y-119231282D01*
X128768717Y-119119481D01*
X128768709Y-119119475D01*
X128707451Y-119084108D01*
X144099500Y-119084108D01*
X144099500Y-119215892D01*
X144108505Y-119249500D01*
X144133608Y-119343187D01*
X144166121Y-119399500D01*
X144199500Y-119457314D01*
X144292686Y-119550500D01*
X144406814Y-119616392D01*
X144534108Y-119650500D01*
X144534110Y-119650500D01*
X144665890Y-119650500D01*
X144665892Y-119650500D01*
X144793186Y-119616392D01*
X144907314Y-119550500D01*
X145000500Y-119457314D01*
X145066392Y-119343186D01*
X145100500Y-119215892D01*
X145100500Y-119084108D01*
X145066392Y-118956814D01*
X145000500Y-118842686D01*
X144991922Y-118834108D01*
X147099500Y-118834108D01*
X147099500Y-118965892D01*
X147108505Y-118999500D01*
X147133608Y-119093187D01*
X147141475Y-119106812D01*
X147199500Y-119207314D01*
X147292686Y-119300500D01*
X147377560Y-119349502D01*
X147405944Y-119365890D01*
X147406814Y-119366392D01*
X147534108Y-119400500D01*
X147534110Y-119400500D01*
X147665890Y-119400500D01*
X147665892Y-119400500D01*
X147793186Y-119366392D01*
X147907314Y-119300500D01*
X148000500Y-119207314D01*
X148066392Y-119093186D01*
X148100500Y-118965892D01*
X148100500Y-118834108D01*
X148066392Y-118706814D01*
X148000500Y-118592686D01*
X147907314Y-118499500D01*
X147822442Y-118450499D01*
X147793187Y-118433608D01*
X147728931Y-118416391D01*
X147665892Y-118399500D01*
X147534108Y-118399500D01*
X147406812Y-118433608D01*
X147292686Y-118499500D01*
X147292683Y-118499502D01*
X147199502Y-118592683D01*
X147199500Y-118592686D01*
X147133608Y-118706812D01*
X147122170Y-118749500D01*
X147099500Y-118834108D01*
X144991922Y-118834108D01*
X144907314Y-118749500D01*
X144850250Y-118716554D01*
X144793187Y-118683608D01*
X144729539Y-118666554D01*
X144665892Y-118649500D01*
X144534108Y-118649500D01*
X144406812Y-118683608D01*
X144292686Y-118749500D01*
X144292683Y-118749502D01*
X144199502Y-118842683D01*
X144199500Y-118842686D01*
X144133608Y-118956812D01*
X144100998Y-119078519D01*
X144099500Y-119084108D01*
X128707451Y-119084108D01*
X128631790Y-119040426D01*
X128631787Y-119040424D01*
X128631784Y-119040423D01*
X128620397Y-119037371D01*
X128560739Y-119001008D01*
X128530210Y-118938161D01*
X128538505Y-118868785D01*
X128582990Y-118814907D01*
X128590485Y-118810216D01*
X128607314Y-118800500D01*
X128700500Y-118707314D01*
X128766392Y-118593186D01*
X128800500Y-118465892D01*
X128800500Y-118334108D01*
X128789670Y-118293690D01*
X128791333Y-118223840D01*
X128821762Y-118173918D01*
X129111572Y-117884108D01*
X138649500Y-117884108D01*
X138649500Y-118015891D01*
X138683608Y-118143187D01*
X138701350Y-118173916D01*
X138749500Y-118257314D01*
X138842686Y-118350500D01*
X138956814Y-118416392D01*
X139084108Y-118450500D01*
X139084110Y-118450500D01*
X139215890Y-118450500D01*
X139215892Y-118450500D01*
X139343186Y-118416392D01*
X139457314Y-118350500D01*
X139550500Y-118257314D01*
X139616392Y-118143186D01*
X139650500Y-118015892D01*
X139650500Y-117884108D01*
X139616392Y-117756814D01*
X139550500Y-117642686D01*
X139457314Y-117549500D01*
X139399100Y-117515890D01*
X139343187Y-117483608D01*
X139279539Y-117466554D01*
X139215892Y-117449500D01*
X139084108Y-117449500D01*
X138956812Y-117483608D01*
X138842686Y-117549500D01*
X138842683Y-117549502D01*
X138749502Y-117642683D01*
X138749500Y-117642686D01*
X138683608Y-117756812D01*
X138649500Y-117884108D01*
X129111572Y-117884108D01*
X129924737Y-117070943D01*
X131999500Y-117070943D01*
X131999500Y-117229057D01*
X132040289Y-117381282D01*
X132040423Y-117381783D01*
X132040426Y-117381790D01*
X132119475Y-117518709D01*
X132119479Y-117518714D01*
X132119480Y-117518716D01*
X132231284Y-117630520D01*
X132231286Y-117630521D01*
X132231290Y-117630524D01*
X132320998Y-117682316D01*
X132368216Y-117709577D01*
X132520943Y-117750500D01*
X132520945Y-117750500D01*
X132679055Y-117750500D01*
X132679057Y-117750500D01*
X132831784Y-117709577D01*
X132968716Y-117630520D01*
X133080520Y-117518716D01*
X133159577Y-117381784D01*
X133200500Y-117229057D01*
X133200500Y-117070943D01*
X133159577Y-116918216D01*
X133134338Y-116874500D01*
X133080524Y-116781290D01*
X133080518Y-116781282D01*
X132968717Y-116669481D01*
X132968709Y-116669475D01*
X132906169Y-116633368D01*
X132831790Y-116590426D01*
X132831786Y-116590424D01*
X132831784Y-116590423D01*
X132679057Y-116549500D01*
X132520943Y-116549500D01*
X132368216Y-116590423D01*
X132368209Y-116590426D01*
X132231290Y-116669475D01*
X132231282Y-116669481D01*
X132119481Y-116781282D01*
X132119475Y-116781290D01*
X132040426Y-116918209D01*
X132040423Y-116918216D01*
X131999500Y-117070943D01*
X129924737Y-117070943D01*
X130461572Y-116534108D01*
X144199500Y-116534108D01*
X144199500Y-116665892D01*
X144200462Y-116669481D01*
X144233608Y-116793187D01*
X144246490Y-116815499D01*
X144299500Y-116907314D01*
X144392686Y-117000500D01*
X144506814Y-117066392D01*
X144634108Y-117100500D01*
X144634110Y-117100500D01*
X144765890Y-117100500D01*
X144765892Y-117100500D01*
X144893186Y-117066392D01*
X145007314Y-117000500D01*
X145100500Y-116907314D01*
X145166392Y-116793186D01*
X145200500Y-116665892D01*
X145200500Y-116534108D01*
X145166392Y-116406814D01*
X145100500Y-116292686D01*
X145007314Y-116199500D01*
X144919226Y-116148642D01*
X144893187Y-116133608D01*
X144812233Y-116111917D01*
X144765892Y-116099500D01*
X144634108Y-116099500D01*
X144506812Y-116133608D01*
X144392686Y-116199500D01*
X144392683Y-116199502D01*
X144299502Y-116292683D01*
X144299500Y-116292686D01*
X144233608Y-116406812D01*
X144213654Y-116481284D01*
X144199500Y-116534108D01*
X130461572Y-116534108D01*
X131102281Y-115893399D01*
X146645500Y-115893399D01*
X146645500Y-116106601D01*
X146650148Y-116135945D01*
X146678853Y-116317180D01*
X146678853Y-116317183D01*
X146744734Y-116519944D01*
X146744735Y-116519945D01*
X146744736Y-116519947D01*
X146841528Y-116709913D01*
X146966846Y-116882397D01*
X147117603Y-117033154D01*
X147290087Y-117158472D01*
X147480053Y-117255264D01*
X147480055Y-117255265D01*
X147645775Y-117309110D01*
X147682821Y-117321147D01*
X147893399Y-117354500D01*
X147893400Y-117354500D01*
X148106600Y-117354500D01*
X148106601Y-117354500D01*
X148317179Y-117321147D01*
X148317182Y-117321146D01*
X148317183Y-117321146D01*
X148519944Y-117255265D01*
X148519944Y-117255264D01*
X148519947Y-117255264D01*
X148709913Y-117158472D01*
X148882397Y-117033154D01*
X149033154Y-116882397D01*
X149158472Y-116709913D01*
X149255264Y-116519947D01*
X149293796Y-116401358D01*
X149321146Y-116317183D01*
X149321146Y-116317182D01*
X149321147Y-116317179D01*
X149354500Y-116106601D01*
X149354500Y-115893399D01*
X149321147Y-115682821D01*
X149321146Y-115682817D01*
X149321146Y-115682816D01*
X149255265Y-115480055D01*
X149255263Y-115480052D01*
X149249293Y-115468334D01*
X149158472Y-115290087D01*
X149033154Y-115117603D01*
X148882397Y-114966846D01*
X148709913Y-114841528D01*
X148519947Y-114744736D01*
X148519944Y-114744734D01*
X148317181Y-114678853D01*
X148176793Y-114656617D01*
X148106601Y-114645500D01*
X147893399Y-114645500D01*
X147823206Y-114656617D01*
X147682819Y-114678853D01*
X147682816Y-114678853D01*
X147480055Y-114744734D01*
X147480052Y-114744736D01*
X147290086Y-114841528D01*
X147117601Y-114966847D01*
X146966847Y-115117601D01*
X146841528Y-115290086D01*
X146744736Y-115480052D01*
X146744734Y-115480055D01*
X146678853Y-115682816D01*
X146678853Y-115682819D01*
X146663610Y-115779057D01*
X146645500Y-115893399D01*
X131102281Y-115893399D01*
X133368156Y-113627525D01*
X134699500Y-113627525D01*
X134699500Y-113772475D01*
X134733805Y-113900500D01*
X134737017Y-113912488D01*
X134809488Y-114038011D01*
X134809490Y-114038013D01*
X134809491Y-114038015D01*
X134911985Y-114140509D01*
X134911986Y-114140510D01*
X134911988Y-114140511D01*
X135037511Y-114212982D01*
X135037512Y-114212982D01*
X135037515Y-114212984D01*
X135177525Y-114250500D01*
X135177528Y-114250500D01*
X135322472Y-114250500D01*
X135322475Y-114250500D01*
X135462485Y-114212984D01*
X135588015Y-114140509D01*
X135690509Y-114038015D01*
X135762984Y-113912485D01*
X135800500Y-113772475D01*
X135800500Y-113627525D01*
X137099500Y-113627525D01*
X137099500Y-113772475D01*
X137133805Y-113900500D01*
X137137017Y-113912488D01*
X137209488Y-114038011D01*
X137209490Y-114038013D01*
X137209491Y-114038015D01*
X137311985Y-114140509D01*
X137311986Y-114140510D01*
X137311988Y-114140511D01*
X137437511Y-114212982D01*
X137437512Y-114212982D01*
X137437515Y-114212984D01*
X137577525Y-114250500D01*
X137577528Y-114250500D01*
X137722472Y-114250500D01*
X137722475Y-114250500D01*
X137862485Y-114212984D01*
X137988015Y-114140509D01*
X138090509Y-114038015D01*
X138162984Y-113912485D01*
X138200500Y-113772475D01*
X138200500Y-113627525D01*
X138162984Y-113487515D01*
X138162696Y-113487017D01*
X138090511Y-113361988D01*
X138090506Y-113361982D01*
X138012632Y-113284108D01*
X139149500Y-113284108D01*
X139149500Y-113415892D01*
X139156813Y-113443186D01*
X139183608Y-113543187D01*
X139196717Y-113565892D01*
X139249500Y-113657314D01*
X139342686Y-113750500D01*
X139456814Y-113816392D01*
X139584108Y-113850500D01*
X139584110Y-113850500D01*
X139715890Y-113850500D01*
X139715892Y-113850500D01*
X139843186Y-113816392D01*
X139957314Y-113750500D01*
X140050500Y-113657314D01*
X140116392Y-113543186D01*
X140150500Y-113415892D01*
X140150500Y-113334108D01*
X145149500Y-113334108D01*
X145149500Y-113465892D01*
X145161204Y-113509573D01*
X145183608Y-113593187D01*
X145210880Y-113640423D01*
X145249500Y-113707314D01*
X145342686Y-113800500D01*
X145456814Y-113866392D01*
X145584108Y-113900500D01*
X145584110Y-113900500D01*
X145715890Y-113900500D01*
X145715892Y-113900500D01*
X145843186Y-113866392D01*
X145957314Y-113800500D01*
X146050500Y-113707314D01*
X146116392Y-113593186D01*
X146150500Y-113465892D01*
X146150500Y-113334108D01*
X146116392Y-113206814D01*
X146103283Y-113184108D01*
X148549500Y-113184108D01*
X148549500Y-113315892D01*
X148561851Y-113361988D01*
X148583608Y-113443187D01*
X148616554Y-113500250D01*
X148649500Y-113557314D01*
X148742686Y-113650500D01*
X148816622Y-113693187D01*
X148856254Y-113716069D01*
X148856814Y-113716392D01*
X148984108Y-113750500D01*
X148984110Y-113750500D01*
X149115890Y-113750500D01*
X149115892Y-113750500D01*
X149243186Y-113716392D01*
X149357314Y-113650500D01*
X149450500Y-113557314D01*
X149516392Y-113443186D01*
X149550500Y-113315892D01*
X149550500Y-113184108D01*
X149516392Y-113056814D01*
X149450500Y-112942686D01*
X149357314Y-112849500D01*
X149300250Y-112816554D01*
X149243187Y-112783608D01*
X149179539Y-112766554D01*
X149115892Y-112749500D01*
X148984108Y-112749500D01*
X148856812Y-112783608D01*
X148742686Y-112849500D01*
X148742683Y-112849502D01*
X148649502Y-112942683D01*
X148649500Y-112942686D01*
X148583608Y-113056812D01*
X148561850Y-113138015D01*
X148549500Y-113184108D01*
X146103283Y-113184108D01*
X146050500Y-113092686D01*
X145957314Y-112999500D01*
X145900250Y-112966554D01*
X145843187Y-112933608D01*
X145779539Y-112916554D01*
X145715892Y-112899500D01*
X145584108Y-112899500D01*
X145456812Y-112933608D01*
X145342686Y-112999500D01*
X145342683Y-112999502D01*
X145249502Y-113092683D01*
X145249500Y-113092686D01*
X145183608Y-113206812D01*
X145169494Y-113259488D01*
X145149500Y-113334108D01*
X140150500Y-113334108D01*
X140150500Y-113284108D01*
X140116392Y-113156814D01*
X140050500Y-113042686D01*
X139957314Y-112949500D01*
X139870712Y-112899500D01*
X139843187Y-112883608D01*
X139743188Y-112856814D01*
X139715892Y-112849500D01*
X139584108Y-112849500D01*
X139456812Y-112883608D01*
X139342686Y-112949500D01*
X139342683Y-112949502D01*
X139249502Y-113042683D01*
X139249500Y-113042686D01*
X139183608Y-113156812D01*
X139152903Y-113271408D01*
X139149500Y-113284108D01*
X138012632Y-113284108D01*
X137988017Y-113259493D01*
X137988011Y-113259488D01*
X137862488Y-113187017D01*
X137862489Y-113187017D01*
X137851006Y-113183940D01*
X137722475Y-113149500D01*
X137577525Y-113149500D01*
X137448993Y-113183940D01*
X137437511Y-113187017D01*
X137311988Y-113259488D01*
X137311982Y-113259493D01*
X137209493Y-113361982D01*
X137209488Y-113361988D01*
X137137017Y-113487511D01*
X137137016Y-113487515D01*
X137099500Y-113627525D01*
X135800500Y-113627525D01*
X135762984Y-113487515D01*
X135762696Y-113487017D01*
X135690511Y-113361988D01*
X135690506Y-113361982D01*
X135588017Y-113259493D01*
X135588011Y-113259488D01*
X135462488Y-113187017D01*
X135462489Y-113187017D01*
X135451006Y-113183940D01*
X135322475Y-113149500D01*
X135177525Y-113149500D01*
X135048993Y-113183940D01*
X135037511Y-113187017D01*
X134911988Y-113259488D01*
X134911982Y-113259493D01*
X134809493Y-113361982D01*
X134809488Y-113361988D01*
X134737017Y-113487511D01*
X134737016Y-113487515D01*
X134699500Y-113627525D01*
X133368156Y-113627525D01*
X134268156Y-112727525D01*
X135899500Y-112727525D01*
X135899500Y-112872475D01*
X135929413Y-112984110D01*
X135937017Y-113012488D01*
X136009488Y-113138011D01*
X136009490Y-113138013D01*
X136009491Y-113138015D01*
X136111985Y-113240509D01*
X136111986Y-113240510D01*
X136111988Y-113240511D01*
X136237511Y-113312982D01*
X136237512Y-113312982D01*
X136237515Y-113312984D01*
X136377525Y-113350500D01*
X136377528Y-113350500D01*
X136522472Y-113350500D01*
X136522475Y-113350500D01*
X136662485Y-113312984D01*
X136788015Y-113240509D01*
X136890509Y-113138015D01*
X136962984Y-113012485D01*
X137000500Y-112872475D01*
X137000500Y-112727525D01*
X136962984Y-112587515D01*
X136960728Y-112583608D01*
X136890511Y-112461988D01*
X136890506Y-112461982D01*
X136788017Y-112359493D01*
X136788011Y-112359488D01*
X136662488Y-112287017D01*
X136662489Y-112287017D01*
X136651006Y-112283940D01*
X136522475Y-112249500D01*
X136377525Y-112249500D01*
X136248993Y-112283940D01*
X136237511Y-112287017D01*
X136111988Y-112359488D01*
X136111982Y-112359493D01*
X136009493Y-112461982D01*
X136009488Y-112461988D01*
X135937017Y-112587511D01*
X135937016Y-112587515D01*
X135899500Y-112727525D01*
X134268156Y-112727525D01*
X136161573Y-110834108D01*
X137899500Y-110834108D01*
X137899500Y-110965892D01*
X137916554Y-111029539D01*
X137933608Y-111093187D01*
X137941475Y-111106812D01*
X137999500Y-111207314D01*
X138092686Y-111300500D01*
X138191521Y-111357563D01*
X138205944Y-111365890D01*
X138206814Y-111366392D01*
X138334108Y-111400500D01*
X138334110Y-111400500D01*
X138465890Y-111400500D01*
X138465892Y-111400500D01*
X138527068Y-111384108D01*
X140799500Y-111384108D01*
X140799500Y-111515891D01*
X140833608Y-111643187D01*
X140862476Y-111693186D01*
X140899500Y-111757314D01*
X140992686Y-111850500D01*
X141106814Y-111916392D01*
X141234108Y-111950500D01*
X141234110Y-111950500D01*
X141365890Y-111950500D01*
X141365892Y-111950500D01*
X141493186Y-111916392D01*
X141607314Y-111850500D01*
X141623706Y-111834108D01*
X147049500Y-111834108D01*
X147049500Y-111965891D01*
X147083608Y-112093187D01*
X147112476Y-112143186D01*
X147149500Y-112207314D01*
X147242686Y-112300500D01*
X147356814Y-112366392D01*
X147484108Y-112400500D01*
X147484110Y-112400500D01*
X147615890Y-112400500D01*
X147615892Y-112400500D01*
X147743186Y-112366392D01*
X147857314Y-112300500D01*
X147950500Y-112207314D01*
X148016392Y-112093186D01*
X148050500Y-111965892D01*
X148050500Y-111834108D01*
X148016392Y-111706814D01*
X147950500Y-111592686D01*
X147857314Y-111499500D01*
X147770712Y-111449500D01*
X147743187Y-111433608D01*
X147679539Y-111416554D01*
X147615892Y-111399500D01*
X147484108Y-111399500D01*
X147356812Y-111433608D01*
X147242686Y-111499500D01*
X147242683Y-111499502D01*
X147149502Y-111592683D01*
X147149500Y-111592686D01*
X147083608Y-111706812D01*
X147049500Y-111834108D01*
X141623706Y-111834108D01*
X141700500Y-111757314D01*
X141766392Y-111643186D01*
X141800500Y-111515892D01*
X141800500Y-111384108D01*
X141766392Y-111256814D01*
X141700500Y-111142686D01*
X141607314Y-111049500D01*
X141550250Y-111016554D01*
X141493187Y-110983608D01*
X141427061Y-110965890D01*
X141365892Y-110949500D01*
X141234108Y-110949500D01*
X141106812Y-110983608D01*
X140992686Y-111049500D01*
X140992683Y-111049502D01*
X140899502Y-111142683D01*
X140899500Y-111142686D01*
X140833608Y-111256812D01*
X140799500Y-111384108D01*
X138527068Y-111384108D01*
X138593186Y-111366392D01*
X138707314Y-111300500D01*
X138800500Y-111207314D01*
X138866392Y-111093186D01*
X138900500Y-110965892D01*
X138900500Y-110834108D01*
X138866392Y-110706814D01*
X138800500Y-110592686D01*
X138707314Y-110499500D01*
X138622442Y-110450499D01*
X138593187Y-110433608D01*
X138503500Y-110409577D01*
X138465892Y-110399500D01*
X138334108Y-110399500D01*
X138206812Y-110433608D01*
X138092686Y-110499500D01*
X138092683Y-110499502D01*
X137999502Y-110592683D01*
X137999500Y-110592686D01*
X137933608Y-110706812D01*
X137933473Y-110707316D01*
X137899500Y-110834108D01*
X136161573Y-110834108D01*
X137224739Y-109770943D01*
X147149500Y-109770943D01*
X147149500Y-109929057D01*
X147173743Y-110019531D01*
X147190423Y-110081783D01*
X147190426Y-110081790D01*
X147269475Y-110218709D01*
X147269479Y-110218714D01*
X147269480Y-110218716D01*
X147381284Y-110330520D01*
X147381286Y-110330521D01*
X147381290Y-110330524D01*
X147500762Y-110399500D01*
X147518216Y-110409577D01*
X147670943Y-110450500D01*
X147670945Y-110450500D01*
X147829055Y-110450500D01*
X147829057Y-110450500D01*
X147981784Y-110409577D01*
X148118716Y-110330520D01*
X148230520Y-110218716D01*
X148309577Y-110081784D01*
X148350500Y-109929057D01*
X148350500Y-109770943D01*
X148309577Y-109618216D01*
X148299348Y-109600499D01*
X148230524Y-109481290D01*
X148230518Y-109481282D01*
X148118717Y-109369481D01*
X148118709Y-109369475D01*
X147981790Y-109290426D01*
X147981786Y-109290424D01*
X147981784Y-109290423D01*
X147829057Y-109249500D01*
X147670943Y-109249500D01*
X147518216Y-109290423D01*
X147518209Y-109290426D01*
X147381290Y-109369475D01*
X147381282Y-109369481D01*
X147269481Y-109481282D01*
X147269475Y-109481290D01*
X147190426Y-109618209D01*
X147190423Y-109618216D01*
X147149500Y-109770943D01*
X137224739Y-109770943D01*
X138158863Y-108836819D01*
X138220186Y-108803334D01*
X138246544Y-108800500D01*
X138322472Y-108800500D01*
X138322475Y-108800500D01*
X138462485Y-108762984D01*
X138588015Y-108690509D01*
X138690509Y-108588015D01*
X138762984Y-108462485D01*
X138800500Y-108322475D01*
X138800500Y-108177525D01*
X138762984Y-108037515D01*
X138690509Y-107911985D01*
X138588015Y-107809491D01*
X138588013Y-107809490D01*
X138588011Y-107809488D01*
X138462488Y-107737017D01*
X138462489Y-107737017D01*
X138451006Y-107733940D01*
X138322475Y-107699500D01*
X138177525Y-107699500D01*
X138048993Y-107733940D01*
X138037511Y-107737017D01*
X137911988Y-107809488D01*
X137911982Y-107809493D01*
X137809493Y-107911982D01*
X137809488Y-107911988D01*
X137737017Y-108037511D01*
X137737016Y-108037515D01*
X137699500Y-108177525D01*
X137699500Y-108177527D01*
X137699500Y-108253456D01*
X137679815Y-108320495D01*
X137663181Y-108341137D01*
X130812181Y-115192137D01*
X130750858Y-115225622D01*
X130681166Y-115220638D01*
X130625233Y-115178766D01*
X130600816Y-115113302D01*
X130600500Y-115104456D01*
X130600500Y-113838807D01*
X130620185Y-113771768D01*
X130672989Y-113726013D01*
X130742147Y-113716069D01*
X130805703Y-113745094D01*
X130831886Y-113776805D01*
X130849500Y-113807314D01*
X130942686Y-113900500D01*
X131056814Y-113966392D01*
X131184108Y-114000500D01*
X131184110Y-114000500D01*
X131315890Y-114000500D01*
X131315892Y-114000500D01*
X131443186Y-113966392D01*
X131557314Y-113900500D01*
X131650500Y-113807314D01*
X131716392Y-113693186D01*
X131750500Y-113565892D01*
X131750500Y-113434108D01*
X131716392Y-113306814D01*
X131650500Y-113192686D01*
X131557314Y-113099500D01*
X131483380Y-113056814D01*
X131443187Y-113033608D01*
X131364353Y-113012485D01*
X131315892Y-112999500D01*
X131184108Y-112999500D01*
X131056812Y-113033608D01*
X130942686Y-113099500D01*
X130942683Y-113099502D01*
X130849502Y-113192683D01*
X130849500Y-113192686D01*
X130840618Y-113208071D01*
X130831887Y-113223193D01*
X130781319Y-113271408D01*
X130712712Y-113284630D01*
X130647848Y-113258662D01*
X130607320Y-113201748D01*
X130600500Y-113161192D01*
X130600500Y-111900098D01*
X130620185Y-111833059D01*
X130636819Y-111812417D01*
X130682845Y-111766391D01*
X130730520Y-111718716D01*
X130809577Y-111581784D01*
X130850500Y-111429057D01*
X130850500Y-111270943D01*
X130809577Y-111118216D01*
X130795126Y-111093186D01*
X130730524Y-110981290D01*
X130730518Y-110981282D01*
X130618717Y-110869481D01*
X130618709Y-110869475D01*
X130481790Y-110790426D01*
X130481786Y-110790424D01*
X130481784Y-110790423D01*
X130329057Y-110749500D01*
X130170943Y-110749500D01*
X130018216Y-110790423D01*
X130018209Y-110790426D01*
X129881290Y-110869475D01*
X129881282Y-110869481D01*
X129769481Y-110981282D01*
X129769475Y-110981290D01*
X129690426Y-111118209D01*
X129690423Y-111118216D01*
X129649500Y-111270943D01*
X129649500Y-111429057D01*
X129686165Y-111565891D01*
X129690423Y-111581783D01*
X129690426Y-111581790D01*
X129769475Y-111718709D01*
X129769481Y-111718717D01*
X129863181Y-111812417D01*
X129896666Y-111873740D01*
X129899500Y-111900098D01*
X129899500Y-115420456D01*
X129879815Y-115487495D01*
X129863181Y-115508137D01*
X128208137Y-117163181D01*
X128146814Y-117196666D01*
X128120456Y-117199500D01*
X127708676Y-117199500D01*
X127641637Y-117179815D01*
X127620995Y-117163181D01*
X127607316Y-117149502D01*
X127607314Y-117149500D01*
X127522442Y-117100499D01*
X127493187Y-117083608D01*
X127428931Y-117066391D01*
X127365892Y-117049500D01*
X127234108Y-117049500D01*
X127106812Y-117083608D01*
X126992686Y-117149500D01*
X126992683Y-117149502D01*
X126899502Y-117242683D01*
X126899500Y-117242686D01*
X126833608Y-117356812D01*
X126811079Y-117440893D01*
X126799500Y-117484108D01*
X123663920Y-117484108D01*
X123675500Y-117440892D01*
X123675500Y-117309108D01*
X123641392Y-117181814D01*
X123575500Y-117067686D01*
X123482314Y-116974500D01*
X123425250Y-116941554D01*
X123368187Y-116908608D01*
X123304539Y-116891554D01*
X123240892Y-116874500D01*
X123109108Y-116874500D01*
X122981812Y-116908608D01*
X122867686Y-116974500D01*
X122867683Y-116974502D01*
X122774502Y-117067683D01*
X122774500Y-117067686D01*
X122708608Y-117181812D01*
X122688512Y-117256814D01*
X122674500Y-117309108D01*
X122300500Y-117309108D01*
X122266392Y-117181814D01*
X122200500Y-117067686D01*
X122107314Y-116974500D01*
X122050250Y-116941554D01*
X121993187Y-116908608D01*
X121929539Y-116891554D01*
X121865892Y-116874500D01*
X121734108Y-116874500D01*
X121606812Y-116908608D01*
X121492686Y-116974500D01*
X121492683Y-116974502D01*
X121399502Y-117067683D01*
X121399500Y-117067686D01*
X121333608Y-117181812D01*
X121313512Y-117256814D01*
X121299500Y-117309108D01*
X120925500Y-117309108D01*
X120891392Y-117181814D01*
X120825500Y-117067686D01*
X120732314Y-116974500D01*
X120675250Y-116941554D01*
X120618187Y-116908608D01*
X120554539Y-116891554D01*
X120490892Y-116874500D01*
X120359108Y-116874500D01*
X120231812Y-116908608D01*
X120117686Y-116974500D01*
X120117683Y-116974502D01*
X120024502Y-117067683D01*
X120024500Y-117067686D01*
X119958608Y-117181812D01*
X119938512Y-117256814D01*
X119924500Y-117309108D01*
X115609877Y-117309108D01*
X115595034Y-117281763D01*
X115578432Y-117251358D01*
X115578443Y-117251197D01*
X115578366Y-117251055D01*
X115580936Y-117216332D01*
X115583416Y-117181666D01*
X115583514Y-117181512D01*
X115583525Y-117181376D01*
X115584055Y-117180671D01*
X115611917Y-117137319D01*
X115632845Y-117116391D01*
X115680520Y-117068716D01*
X115759577Y-116931784D01*
X115800500Y-116779057D01*
X115800500Y-116620943D01*
X115759577Y-116468216D01*
X115752993Y-116456812D01*
X115680524Y-116331290D01*
X115680518Y-116331282D01*
X115611917Y-116262681D01*
X115578432Y-116201358D01*
X115583416Y-116131666D01*
X115611917Y-116087319D01*
X115633634Y-116065602D01*
X115680520Y-116018716D01*
X115729368Y-115934108D01*
X119924500Y-115934108D01*
X119924500Y-116065892D01*
X119930241Y-116087319D01*
X119958608Y-116193187D01*
X119963326Y-116201358D01*
X120024500Y-116307314D01*
X120117686Y-116400500D01*
X120231814Y-116466392D01*
X120359108Y-116500500D01*
X120359110Y-116500500D01*
X120490890Y-116500500D01*
X120490892Y-116500500D01*
X120618186Y-116466392D01*
X120732314Y-116400500D01*
X120825500Y-116307314D01*
X120891392Y-116193186D01*
X120925500Y-116065892D01*
X120925500Y-115934108D01*
X121299500Y-115934108D01*
X121299500Y-116065892D01*
X121305241Y-116087319D01*
X121333608Y-116193187D01*
X121338326Y-116201358D01*
X121399500Y-116307314D01*
X121492686Y-116400500D01*
X121606814Y-116466392D01*
X121734108Y-116500500D01*
X121734110Y-116500500D01*
X121865890Y-116500500D01*
X121865892Y-116500500D01*
X121993186Y-116466392D01*
X122107314Y-116400500D01*
X122200500Y-116307314D01*
X122266392Y-116193186D01*
X122300500Y-116065892D01*
X122300500Y-115934108D01*
X122674500Y-115934108D01*
X122674500Y-116065892D01*
X122680241Y-116087319D01*
X122708608Y-116193187D01*
X122713326Y-116201358D01*
X122774500Y-116307314D01*
X122867686Y-116400500D01*
X122981814Y-116466392D01*
X123109108Y-116500500D01*
X123109110Y-116500500D01*
X123240890Y-116500500D01*
X123240892Y-116500500D01*
X123368186Y-116466392D01*
X123482314Y-116400500D01*
X123575500Y-116307314D01*
X123641392Y-116193186D01*
X123656730Y-116135943D01*
X127264500Y-116135943D01*
X127264500Y-116294057D01*
X127293022Y-116400500D01*
X127305423Y-116446783D01*
X127305426Y-116446790D01*
X127384475Y-116583709D01*
X127384479Y-116583714D01*
X127384480Y-116583716D01*
X127496284Y-116695520D01*
X127496286Y-116695521D01*
X127496290Y-116695524D01*
X127626922Y-116770943D01*
X127633216Y-116774577D01*
X127785943Y-116815500D01*
X127785945Y-116815500D01*
X127944055Y-116815500D01*
X127944057Y-116815500D01*
X128096784Y-116774577D01*
X128233716Y-116695520D01*
X128345520Y-116583716D01*
X128424577Y-116446784D01*
X128465500Y-116294057D01*
X128465500Y-116135943D01*
X128424577Y-115983216D01*
X128388440Y-115920624D01*
X128345524Y-115846290D01*
X128345518Y-115846282D01*
X128233717Y-115734481D01*
X128233709Y-115734475D01*
X128096790Y-115655426D01*
X128096786Y-115655424D01*
X128096784Y-115655423D01*
X127944057Y-115614500D01*
X127785943Y-115614500D01*
X127633216Y-115655423D01*
X127633209Y-115655426D01*
X127496290Y-115734475D01*
X127496282Y-115734481D01*
X127384481Y-115846282D01*
X127384475Y-115846290D01*
X127305426Y-115983209D01*
X127305423Y-115983216D01*
X127264500Y-116135943D01*
X123656730Y-116135943D01*
X123675500Y-116065892D01*
X123675500Y-115934108D01*
X123641392Y-115806814D01*
X123575500Y-115692686D01*
X123482314Y-115599500D01*
X123406189Y-115555549D01*
X123368187Y-115533608D01*
X123304539Y-115516554D01*
X123240892Y-115499500D01*
X123109108Y-115499500D01*
X122981812Y-115533608D01*
X122867686Y-115599500D01*
X122867683Y-115599502D01*
X122774502Y-115692683D01*
X122774500Y-115692686D01*
X122708608Y-115806812D01*
X122688519Y-115881788D01*
X122674500Y-115934108D01*
X122300500Y-115934108D01*
X122266392Y-115806814D01*
X122200500Y-115692686D01*
X122107314Y-115599500D01*
X122031189Y-115555549D01*
X121993187Y-115533608D01*
X121929539Y-115516554D01*
X121865892Y-115499500D01*
X121734108Y-115499500D01*
X121606812Y-115533608D01*
X121492686Y-115599500D01*
X121492683Y-115599502D01*
X121399502Y-115692683D01*
X121399500Y-115692686D01*
X121333608Y-115806812D01*
X121313519Y-115881788D01*
X121299500Y-115934108D01*
X120925500Y-115934108D01*
X120891392Y-115806814D01*
X120825500Y-115692686D01*
X120732314Y-115599500D01*
X120656189Y-115555549D01*
X120618187Y-115533608D01*
X120554539Y-115516554D01*
X120490892Y-115499500D01*
X120359108Y-115499500D01*
X120231812Y-115533608D01*
X120117686Y-115599500D01*
X120117683Y-115599502D01*
X120024502Y-115692683D01*
X120024500Y-115692686D01*
X119958608Y-115806812D01*
X119938519Y-115881788D01*
X119924500Y-115934108D01*
X115729368Y-115934108D01*
X115737153Y-115920624D01*
X115759575Y-115881788D01*
X115759576Y-115881786D01*
X115759577Y-115881783D01*
X115800500Y-115729057D01*
X115800500Y-115570943D01*
X115759577Y-115418216D01*
X115725722Y-115359577D01*
X115680524Y-115281290D01*
X115680518Y-115281282D01*
X115568717Y-115169481D01*
X115568709Y-115169475D01*
X115431790Y-115090426D01*
X115431786Y-115090424D01*
X115431784Y-115090423D01*
X115279057Y-115049500D01*
X115120943Y-115049500D01*
X114968216Y-115090423D01*
X114968209Y-115090426D01*
X114831290Y-115169475D01*
X114831282Y-115169481D01*
X114719481Y-115281282D01*
X114719475Y-115281290D01*
X114640426Y-115418209D01*
X114640423Y-115418216D01*
X114599500Y-115570943D01*
X110784796Y-115570943D01*
X110755265Y-115480055D01*
X110755263Y-115480052D01*
X110749293Y-115468334D01*
X110658472Y-115290087D01*
X110533154Y-115117603D01*
X110382397Y-114966846D01*
X110209913Y-114841528D01*
X110019947Y-114744736D01*
X110019944Y-114744734D01*
X110017412Y-114743912D01*
X109817181Y-114678853D01*
X109676793Y-114656617D01*
X109606601Y-114645500D01*
X109393399Y-114645500D01*
X109323206Y-114656617D01*
X109182819Y-114678853D01*
X109182816Y-114678853D01*
X108980055Y-114744734D01*
X108980052Y-114744736D01*
X108790086Y-114841528D01*
X108617601Y-114966847D01*
X108466847Y-115117601D01*
X108341528Y-115290086D01*
X108244736Y-115480052D01*
X108244734Y-115480055D01*
X108178853Y-115682816D01*
X108178853Y-115682819D01*
X108163610Y-115779057D01*
X108145500Y-115893399D01*
X107041356Y-115893399D01*
X107012984Y-115787515D01*
X106982361Y-115734475D01*
X106940511Y-115661988D01*
X106940506Y-115661982D01*
X106886819Y-115608295D01*
X106872115Y-115581367D01*
X106855523Y-115555549D01*
X106854631Y-115549348D01*
X106853334Y-115546972D01*
X106850500Y-115520614D01*
X106850500Y-115496544D01*
X106870185Y-115429505D01*
X106886819Y-115408863D01*
X107661574Y-114634108D01*
X113499500Y-114634108D01*
X113499500Y-114765891D01*
X113533608Y-114893187D01*
X113556200Y-114932316D01*
X113599500Y-115007314D01*
X113692686Y-115100500D01*
X113806814Y-115166392D01*
X113934108Y-115200500D01*
X113934110Y-115200500D01*
X114065890Y-115200500D01*
X114065892Y-115200500D01*
X114193186Y-115166392D01*
X114307314Y-115100500D01*
X114400500Y-115007314D01*
X114466392Y-114893186D01*
X114500500Y-114765892D01*
X114500500Y-114634108D01*
X114480404Y-114559108D01*
X119924500Y-114559108D01*
X119924500Y-114690892D01*
X119932552Y-114720943D01*
X119958608Y-114818187D01*
X119991554Y-114875250D01*
X120024500Y-114932314D01*
X120117686Y-115025500D01*
X120207120Y-115077135D01*
X120230135Y-115090423D01*
X120231814Y-115091392D01*
X120359108Y-115125500D01*
X120359110Y-115125500D01*
X120490890Y-115125500D01*
X120490892Y-115125500D01*
X120618186Y-115091392D01*
X120732314Y-115025500D01*
X120825500Y-114932314D01*
X120891392Y-114818186D01*
X120925500Y-114690892D01*
X120925500Y-114559108D01*
X121299500Y-114559108D01*
X121299500Y-114690892D01*
X121307552Y-114720943D01*
X121333608Y-114818187D01*
X121366554Y-114875250D01*
X121399500Y-114932314D01*
X121492686Y-115025500D01*
X121582120Y-115077135D01*
X121605135Y-115090423D01*
X121606814Y-115091392D01*
X121734108Y-115125500D01*
X121734110Y-115125500D01*
X121865890Y-115125500D01*
X121865892Y-115125500D01*
X121993186Y-115091392D01*
X122107314Y-115025500D01*
X122200500Y-114932314D01*
X122266392Y-114818186D01*
X122300500Y-114690892D01*
X122300500Y-114559108D01*
X122674500Y-114559108D01*
X122674500Y-114690892D01*
X122682552Y-114720943D01*
X122708608Y-114818187D01*
X122741554Y-114875250D01*
X122774500Y-114932314D01*
X122867686Y-115025500D01*
X122957120Y-115077135D01*
X122980135Y-115090423D01*
X122981814Y-115091392D01*
X123109108Y-115125500D01*
X123109110Y-115125500D01*
X123240890Y-115125500D01*
X123240892Y-115125500D01*
X123368186Y-115091392D01*
X123482314Y-115025500D01*
X123575500Y-114932314D01*
X123641392Y-114818186D01*
X123667448Y-114720943D01*
X127799500Y-114720943D01*
X127799500Y-114879057D01*
X127839693Y-115029057D01*
X127840423Y-115031783D01*
X127840426Y-115031790D01*
X127919475Y-115168709D01*
X127919479Y-115168714D01*
X127919480Y-115168716D01*
X128031284Y-115280520D01*
X128031286Y-115280521D01*
X128031290Y-115280524D01*
X128168209Y-115359573D01*
X128168216Y-115359577D01*
X128320943Y-115400500D01*
X128320945Y-115400500D01*
X128479055Y-115400500D01*
X128479057Y-115400500D01*
X128631784Y-115359577D01*
X128768716Y-115280520D01*
X128880520Y-115168716D01*
X128959577Y-115031784D01*
X129000500Y-114879057D01*
X129000500Y-114720943D01*
X128959577Y-114568216D01*
X128944865Y-114542733D01*
X128880524Y-114431290D01*
X128880518Y-114431282D01*
X128768717Y-114319481D01*
X128768709Y-114319475D01*
X128631790Y-114240426D01*
X128631786Y-114240424D01*
X128631784Y-114240423D01*
X128479057Y-114199500D01*
X128320943Y-114199500D01*
X128168216Y-114240423D01*
X128168209Y-114240426D01*
X128031290Y-114319475D01*
X128031282Y-114319481D01*
X127919481Y-114431282D01*
X127919475Y-114431290D01*
X127840426Y-114568209D01*
X127840423Y-114568216D01*
X127799500Y-114720943D01*
X123667448Y-114720943D01*
X123675500Y-114690892D01*
X123675500Y-114559108D01*
X123641392Y-114431814D01*
X123641089Y-114431290D01*
X123632563Y-114416521D01*
X123575500Y-114317686D01*
X123482314Y-114224500D01*
X123425250Y-114191554D01*
X123368187Y-114158608D01*
X123300628Y-114140506D01*
X123240892Y-114124500D01*
X123109108Y-114124500D01*
X122981812Y-114158608D01*
X122867686Y-114224500D01*
X122867683Y-114224502D01*
X122774502Y-114317683D01*
X122774500Y-114317686D01*
X122708608Y-114431812D01*
X122679691Y-114539733D01*
X122674500Y-114559108D01*
X122300500Y-114559108D01*
X122266392Y-114431814D01*
X122266089Y-114431290D01*
X122257563Y-114416521D01*
X122200500Y-114317686D01*
X122107314Y-114224500D01*
X122050250Y-114191554D01*
X121993187Y-114158608D01*
X121925628Y-114140506D01*
X121865892Y-114124500D01*
X121734108Y-114124500D01*
X121606812Y-114158608D01*
X121492686Y-114224500D01*
X121492683Y-114224502D01*
X121399502Y-114317683D01*
X121399500Y-114317686D01*
X121333608Y-114431812D01*
X121304691Y-114539733D01*
X121299500Y-114559108D01*
X120925500Y-114559108D01*
X120891392Y-114431814D01*
X120891089Y-114431290D01*
X120882563Y-114416521D01*
X120825500Y-114317686D01*
X120732314Y-114224500D01*
X120675250Y-114191554D01*
X120618187Y-114158608D01*
X120550628Y-114140506D01*
X120490892Y-114124500D01*
X120359108Y-114124500D01*
X120231812Y-114158608D01*
X120117686Y-114224500D01*
X120117683Y-114224502D01*
X120024502Y-114317683D01*
X120024500Y-114317686D01*
X119958608Y-114431812D01*
X119929691Y-114539733D01*
X119924500Y-114559108D01*
X114480404Y-114559108D01*
X114466392Y-114506814D01*
X114400500Y-114392686D01*
X114307314Y-114299500D01*
X114222444Y-114250500D01*
X114193187Y-114233608D01*
X114114353Y-114212485D01*
X114065892Y-114199500D01*
X113934108Y-114199500D01*
X113806812Y-114233608D01*
X113692686Y-114299500D01*
X113692683Y-114299502D01*
X113599502Y-114392683D01*
X113599500Y-114392686D01*
X113533608Y-114506812D01*
X113499500Y-114634108D01*
X107661574Y-114634108D01*
X109311574Y-112984108D01*
X110749500Y-112984108D01*
X110749500Y-113115891D01*
X110783608Y-113243187D01*
X110807536Y-113284630D01*
X110849500Y-113357314D01*
X110942686Y-113450500D01*
X111056814Y-113516392D01*
X111184108Y-113550500D01*
X111184110Y-113550500D01*
X111315890Y-113550500D01*
X111315892Y-113550500D01*
X111443186Y-113516392D01*
X111557314Y-113450500D01*
X111650500Y-113357314D01*
X111716392Y-113243186D01*
X111750500Y-113115892D01*
X111750500Y-112984108D01*
X111716392Y-112856814D01*
X111650500Y-112742686D01*
X111557314Y-112649500D01*
X111500250Y-112616554D01*
X111443187Y-112583608D01*
X111379539Y-112566554D01*
X111315892Y-112549500D01*
X111184108Y-112549500D01*
X111056812Y-112583608D01*
X110942686Y-112649500D01*
X110942683Y-112649502D01*
X110849502Y-112742683D01*
X110849500Y-112742686D01*
X110783608Y-112856812D01*
X110749500Y-112984108D01*
X109311574Y-112984108D01*
X110111574Y-112184108D01*
X112849500Y-112184108D01*
X112849500Y-112315891D01*
X112883608Y-112443187D01*
X112894463Y-112461988D01*
X112949500Y-112557314D01*
X113042686Y-112650500D01*
X113156814Y-112716392D01*
X113284108Y-112750500D01*
X113284110Y-112750500D01*
X113415890Y-112750500D01*
X113415892Y-112750500D01*
X113543186Y-112716392D01*
X113657314Y-112650500D01*
X113750500Y-112557314D01*
X113816392Y-112443186D01*
X113850500Y-112315892D01*
X113850500Y-112184108D01*
X113816392Y-112056814D01*
X113750500Y-111942686D01*
X113657314Y-111849500D01*
X113593085Y-111812417D01*
X113543187Y-111783608D01*
X113478931Y-111766391D01*
X113415892Y-111749500D01*
X113284108Y-111749500D01*
X113156812Y-111783608D01*
X113042686Y-111849500D01*
X113042683Y-111849502D01*
X112949502Y-111942683D01*
X112949500Y-111942686D01*
X112883608Y-112056812D01*
X112849500Y-112184108D01*
X110111574Y-112184108D01*
X111008863Y-111286819D01*
X111070186Y-111253334D01*
X111096544Y-111250500D01*
X115297794Y-111250500D01*
X115364833Y-111270185D01*
X115410588Y-111322989D01*
X115420532Y-111392147D01*
X115391507Y-111455703D01*
X115359794Y-111481887D01*
X115242689Y-111549497D01*
X115242683Y-111549502D01*
X115149502Y-111642683D01*
X115149500Y-111642686D01*
X115083608Y-111756812D01*
X115049500Y-111884108D01*
X115049500Y-112015891D01*
X115083608Y-112143187D01*
X115116554Y-112200250D01*
X115149500Y-112257314D01*
X115242686Y-112350500D01*
X115356814Y-112416392D01*
X115484108Y-112450500D01*
X115484110Y-112450500D01*
X115615890Y-112450500D01*
X115615892Y-112450500D01*
X115743186Y-112416392D01*
X115857314Y-112350500D01*
X115950500Y-112257314D01*
X116016392Y-112143186D01*
X116050500Y-112015892D01*
X116050500Y-111884108D01*
X116016392Y-111756814D01*
X115950500Y-111642686D01*
X115857314Y-111549500D01*
X115857312Y-111549499D01*
X115857310Y-111549497D01*
X115740206Y-111481887D01*
X115691990Y-111431320D01*
X115678768Y-111362713D01*
X115704736Y-111297848D01*
X115761650Y-111257320D01*
X115802206Y-111250500D01*
X119103456Y-111250500D01*
X119132896Y-111259144D01*
X119162883Y-111265668D01*
X119167898Y-111269422D01*
X119170495Y-111270185D01*
X119191137Y-111286819D01*
X119363181Y-111458863D01*
X119396666Y-111520186D01*
X119399500Y-111546544D01*
X119399500Y-111565892D01*
X119416554Y-111629539D01*
X119433608Y-111693187D01*
X119448348Y-111718717D01*
X119499500Y-111807314D01*
X119592686Y-111900500D01*
X119691521Y-111957563D01*
X119705944Y-111965890D01*
X119706814Y-111966392D01*
X119834108Y-112000500D01*
X119834110Y-112000500D01*
X119965890Y-112000500D01*
X119965892Y-112000500D01*
X120093186Y-111966392D01*
X120207314Y-111900500D01*
X120300500Y-111807314D01*
X120366392Y-111693186D01*
X120400500Y-111565892D01*
X120400500Y-111434108D01*
X120366392Y-111306814D01*
X120366389Y-111306810D01*
X120366238Y-111306443D01*
X120366201Y-111306104D01*
X120364288Y-111298963D01*
X120365401Y-111298664D01*
X120358769Y-111236973D01*
X120390044Y-111174494D01*
X120418792Y-111151608D01*
X120507314Y-111100500D01*
X120600500Y-111007314D01*
X120666392Y-110893186D01*
X120682222Y-110834108D01*
X127749500Y-110834108D01*
X127749500Y-110965892D01*
X127766554Y-111029539D01*
X127783608Y-111093187D01*
X127791475Y-111106812D01*
X127849500Y-111207314D01*
X127942686Y-111300500D01*
X128041521Y-111357563D01*
X128055944Y-111365890D01*
X128056814Y-111366392D01*
X128184108Y-111400500D01*
X128184110Y-111400500D01*
X128315890Y-111400500D01*
X128315892Y-111400500D01*
X128443186Y-111366392D01*
X128557314Y-111300500D01*
X128650500Y-111207314D01*
X128716392Y-111093186D01*
X128750500Y-110965892D01*
X128750500Y-110834108D01*
X128716392Y-110706814D01*
X128650500Y-110592686D01*
X128557314Y-110499500D01*
X128472442Y-110450499D01*
X128443187Y-110433608D01*
X128353500Y-110409577D01*
X128315892Y-110399500D01*
X128184108Y-110399500D01*
X128056812Y-110433608D01*
X127942686Y-110499500D01*
X127942683Y-110499502D01*
X127849502Y-110592683D01*
X127849500Y-110592686D01*
X127783608Y-110706812D01*
X127783473Y-110707316D01*
X127749500Y-110834108D01*
X120682222Y-110834108D01*
X120700500Y-110765892D01*
X120700500Y-110634108D01*
X120666392Y-110506814D01*
X120600500Y-110392686D01*
X120507314Y-110299500D01*
X120450250Y-110266554D01*
X120393187Y-110233608D01*
X120329539Y-110216554D01*
X120265892Y-110199500D01*
X120265891Y-110199500D01*
X120246544Y-110199500D01*
X120179505Y-110179815D01*
X120158863Y-110163181D01*
X120015213Y-110019531D01*
X120015208Y-110019527D01*
X119935290Y-109973387D01*
X119935289Y-109973386D01*
X119935288Y-109973386D01*
X119846144Y-109949500D01*
X119846143Y-109949500D01*
X119675686Y-109949500D01*
X119608647Y-109929815D01*
X119562892Y-109877011D01*
X119552948Y-109807853D01*
X119557912Y-109789752D01*
X119557473Y-109789635D01*
X119559577Y-109781784D01*
X119600500Y-109629057D01*
X119600500Y-109470943D01*
X119559577Y-109318216D01*
X119503417Y-109220943D01*
X120799500Y-109220943D01*
X120799500Y-109379057D01*
X120826687Y-109480518D01*
X120840423Y-109531783D01*
X120840426Y-109531790D01*
X120919475Y-109668709D01*
X120919479Y-109668714D01*
X120919480Y-109668716D01*
X121031284Y-109780520D01*
X121031286Y-109780521D01*
X121031290Y-109780524D01*
X121124102Y-109834108D01*
X121168216Y-109859577D01*
X121320943Y-109900500D01*
X121320945Y-109900500D01*
X121479055Y-109900500D01*
X121479057Y-109900500D01*
X121631784Y-109859577D01*
X121768716Y-109780520D01*
X121880520Y-109668716D01*
X121959577Y-109531784D01*
X122000500Y-109379057D01*
X122000500Y-109220943D01*
X121959577Y-109068216D01*
X121880520Y-108931284D01*
X121870179Y-108920943D01*
X123349500Y-108920943D01*
X123349500Y-109079057D01*
X123382041Y-109200500D01*
X123390423Y-109231783D01*
X123390426Y-109231790D01*
X123469475Y-109368709D01*
X123469479Y-109368714D01*
X123469480Y-109368716D01*
X123581284Y-109480520D01*
X123581286Y-109480521D01*
X123581290Y-109480524D01*
X123689827Y-109543187D01*
X123718216Y-109559577D01*
X123870943Y-109600500D01*
X123870945Y-109600500D01*
X124029055Y-109600500D01*
X124029057Y-109600500D01*
X124181784Y-109559577D01*
X124318716Y-109480520D01*
X124430520Y-109368716D01*
X124509577Y-109231784D01*
X124550500Y-109079057D01*
X124550500Y-108920943D01*
X124509577Y-108768216D01*
X124489885Y-108734108D01*
X125549500Y-108734108D01*
X125549500Y-108865891D01*
X125583608Y-108993187D01*
X125597005Y-109016391D01*
X125649500Y-109107314D01*
X125742686Y-109200500D01*
X125856814Y-109266392D01*
X125984108Y-109300500D01*
X125984110Y-109300500D01*
X126115890Y-109300500D01*
X126115892Y-109300500D01*
X126177068Y-109284108D01*
X134749500Y-109284108D01*
X134749500Y-109415891D01*
X134783608Y-109543187D01*
X134793071Y-109559577D01*
X134849500Y-109657314D01*
X134942686Y-109750500D01*
X135056814Y-109816392D01*
X135184108Y-109850500D01*
X135184110Y-109850500D01*
X135315890Y-109850500D01*
X135315892Y-109850500D01*
X135443186Y-109816392D01*
X135557314Y-109750500D01*
X135650500Y-109657314D01*
X135716392Y-109543186D01*
X135750500Y-109415892D01*
X135750500Y-109284108D01*
X135716392Y-109156814D01*
X135650500Y-109042686D01*
X135557314Y-108949500D01*
X135500250Y-108916554D01*
X135443187Y-108883608D01*
X135377061Y-108865890D01*
X135315892Y-108849500D01*
X135184108Y-108849500D01*
X135056812Y-108883608D01*
X134942686Y-108949500D01*
X134942683Y-108949502D01*
X134849502Y-109042683D01*
X134849500Y-109042686D01*
X134783608Y-109156812D01*
X134749500Y-109284108D01*
X126177068Y-109284108D01*
X126243186Y-109266392D01*
X126357314Y-109200500D01*
X126450500Y-109107314D01*
X126516392Y-108993186D01*
X126550500Y-108865892D01*
X126550500Y-108734108D01*
X126516392Y-108606814D01*
X126505540Y-108588017D01*
X126497919Y-108574817D01*
X126497918Y-108574816D01*
X126466814Y-108520943D01*
X129049500Y-108520943D01*
X129049500Y-108679057D01*
X129087127Y-108819481D01*
X129090423Y-108831783D01*
X129090426Y-108831790D01*
X129169475Y-108968709D01*
X129169479Y-108968714D01*
X129169480Y-108968716D01*
X129281284Y-109080520D01*
X129281286Y-109080521D01*
X129281290Y-109080524D01*
X129327696Y-109107316D01*
X129418216Y-109159577D01*
X129570943Y-109200500D01*
X129570945Y-109200500D01*
X129729055Y-109200500D01*
X129729057Y-109200500D01*
X129881784Y-109159577D01*
X129881788Y-109159574D01*
X129881790Y-109159574D01*
X130018709Y-109080524D01*
X130018708Y-109080524D01*
X130018716Y-109080520D01*
X130130520Y-108968716D01*
X130209577Y-108831784D01*
X130250500Y-108679057D01*
X130250500Y-108520943D01*
X130209577Y-108368216D01*
X130182026Y-108320495D01*
X130130524Y-108231290D01*
X130130518Y-108231282D01*
X130018717Y-108119481D01*
X130018709Y-108119475D01*
X129881790Y-108040426D01*
X129881786Y-108040424D01*
X129881784Y-108040423D01*
X129729057Y-107999500D01*
X129570943Y-107999500D01*
X129418216Y-108040423D01*
X129418209Y-108040426D01*
X129281290Y-108119475D01*
X129281282Y-108119481D01*
X129169481Y-108231282D01*
X129169475Y-108231290D01*
X129090426Y-108368209D01*
X129090423Y-108368216D01*
X129049500Y-108520943D01*
X126466814Y-108520943D01*
X126465970Y-108519481D01*
X126450500Y-108492686D01*
X126357314Y-108399500D01*
X126283380Y-108356814D01*
X126243187Y-108333608D01*
X126135739Y-108304818D01*
X126115892Y-108299500D01*
X125984108Y-108299500D01*
X125856812Y-108333608D01*
X125742686Y-108399500D01*
X125742683Y-108399502D01*
X125649502Y-108492683D01*
X125649500Y-108492686D01*
X125583608Y-108606812D01*
X125549500Y-108734108D01*
X124489885Y-108734108D01*
X124469904Y-108699500D01*
X124430524Y-108631290D01*
X124430518Y-108631282D01*
X124318717Y-108519481D01*
X124318709Y-108519475D01*
X124181790Y-108440426D01*
X124181786Y-108440424D01*
X124181784Y-108440423D01*
X124029057Y-108399500D01*
X123870943Y-108399500D01*
X123718216Y-108440423D01*
X123718209Y-108440426D01*
X123581290Y-108519475D01*
X123581282Y-108519481D01*
X123469481Y-108631282D01*
X123469475Y-108631290D01*
X123390426Y-108768209D01*
X123390423Y-108768216D01*
X123349500Y-108920943D01*
X121870179Y-108920943D01*
X121768716Y-108819480D01*
X121768714Y-108819479D01*
X121768709Y-108819475D01*
X121631790Y-108740426D01*
X121631786Y-108740424D01*
X121631784Y-108740423D01*
X121479057Y-108699500D01*
X121320943Y-108699500D01*
X121168216Y-108740423D01*
X121168209Y-108740426D01*
X121031290Y-108819475D01*
X121031282Y-108819481D01*
X120919481Y-108931282D01*
X120919475Y-108931290D01*
X120840426Y-109068209D01*
X120840423Y-109068216D01*
X120799500Y-109220943D01*
X119503417Y-109220943D01*
X119480520Y-109181284D01*
X119368716Y-109069480D01*
X119368714Y-109069479D01*
X119368709Y-109069475D01*
X119231790Y-108990426D01*
X119231786Y-108990424D01*
X119231784Y-108990423D01*
X119079057Y-108949500D01*
X118920943Y-108949500D01*
X118768216Y-108990423D01*
X118768209Y-108990426D01*
X118631290Y-109069475D01*
X118631282Y-109069481D01*
X118519481Y-109181282D01*
X118519475Y-109181290D01*
X118440426Y-109318209D01*
X118440423Y-109318216D01*
X118399500Y-109470943D01*
X118399500Y-109629057D01*
X118440085Y-109780524D01*
X118442527Y-109789635D01*
X118440190Y-109790260D01*
X118446342Y-109847528D01*
X118415061Y-109910004D01*
X118354969Y-109945651D01*
X118324314Y-109949500D01*
X110253856Y-109949500D01*
X110164712Y-109973386D01*
X110164709Y-109973387D01*
X110084791Y-110019527D01*
X110084786Y-110019531D01*
X106691137Y-113413181D01*
X106629814Y-113446666D01*
X106603456Y-113449500D01*
X106527525Y-113449500D01*
X106398993Y-113483940D01*
X106387511Y-113487017D01*
X106261988Y-113559488D01*
X106261982Y-113559493D01*
X106159493Y-113661982D01*
X106159488Y-113661988D01*
X106087017Y-113787511D01*
X106087016Y-113787515D01*
X106049500Y-113927525D01*
X106049500Y-114072475D01*
X106072580Y-114158608D01*
X106087017Y-114212488D01*
X106159488Y-114338011D01*
X106159490Y-114338013D01*
X106159491Y-114338015D01*
X106261985Y-114440509D01*
X106261986Y-114440510D01*
X106261988Y-114440511D01*
X106387511Y-114512982D01*
X106387512Y-114512982D01*
X106387515Y-114512984D01*
X106498542Y-114542734D01*
X106558201Y-114579098D01*
X106588730Y-114641945D01*
X106580435Y-114711321D01*
X106554128Y-114750189D01*
X106219532Y-115084785D01*
X106219528Y-115084791D01*
X106173982Y-115163677D01*
X106173983Y-115163678D01*
X106173386Y-115164712D01*
X106149500Y-115253856D01*
X106149500Y-115520614D01*
X106129815Y-115587653D01*
X106113181Y-115608295D01*
X106059493Y-115661982D01*
X106059488Y-115661988D01*
X105987017Y-115787511D01*
X105987016Y-115787515D01*
X105949500Y-115927525D01*
X104250500Y-115927525D01*
X104250500Y-115820943D01*
X104209577Y-115668216D01*
X104196531Y-115645620D01*
X104130524Y-115531290D01*
X104130518Y-115531282D01*
X104111917Y-115512681D01*
X104078432Y-115451358D01*
X104083416Y-115381666D01*
X104111917Y-115337319D01*
X104117954Y-115331282D01*
X104130520Y-115318716D01*
X104209577Y-115181784D01*
X104250500Y-115029057D01*
X104250500Y-114870943D01*
X104209577Y-114718216D01*
X104193801Y-114690891D01*
X104130524Y-114581290D01*
X104130518Y-114581282D01*
X104111917Y-114562681D01*
X104078432Y-114501358D01*
X104083416Y-114431666D01*
X104111917Y-114387319D01*
X104130520Y-114368716D01*
X104209577Y-114231784D01*
X104250500Y-114079057D01*
X104250500Y-113920943D01*
X104209577Y-113768216D01*
X104196228Y-113745094D01*
X104130526Y-113631292D01*
X104126075Y-113625493D01*
X104100877Y-113560326D01*
X104114910Y-113491880D01*
X104126075Y-113474507D01*
X104130516Y-113468719D01*
X104130520Y-113468716D01*
X104130525Y-113468708D01*
X104130526Y-113468707D01*
X104192139Y-113361988D01*
X104209577Y-113331784D01*
X104250500Y-113179057D01*
X104250500Y-113020943D01*
X104210308Y-112870943D01*
X104849500Y-112870943D01*
X104849500Y-113029057D01*
X104889693Y-113179057D01*
X104890423Y-113181783D01*
X104890426Y-113181790D01*
X104969475Y-113318709D01*
X104969479Y-113318714D01*
X104969480Y-113318716D01*
X105081284Y-113430520D01*
X105081286Y-113430521D01*
X105081290Y-113430524D01*
X105218209Y-113509573D01*
X105218216Y-113509577D01*
X105370943Y-113550500D01*
X105370945Y-113550500D01*
X105529055Y-113550500D01*
X105529057Y-113550500D01*
X105681784Y-113509577D01*
X105818716Y-113430520D01*
X105930520Y-113318716D01*
X106009577Y-113181784D01*
X106050500Y-113029057D01*
X106050500Y-112870943D01*
X106009577Y-112718216D01*
X105970480Y-112650497D01*
X105930524Y-112581290D01*
X105930518Y-112581282D01*
X105818717Y-112469481D01*
X105818709Y-112469475D01*
X105681790Y-112390426D01*
X105681786Y-112390424D01*
X105681784Y-112390423D01*
X105529057Y-112349500D01*
X105370943Y-112349500D01*
X105218216Y-112390423D01*
X105218209Y-112390426D01*
X105081290Y-112469475D01*
X105081282Y-112469481D01*
X104969481Y-112581282D01*
X104969475Y-112581290D01*
X104890426Y-112718209D01*
X104890423Y-112718216D01*
X104849500Y-112870943D01*
X104210308Y-112870943D01*
X104209577Y-112868216D01*
X104198773Y-112849502D01*
X104130524Y-112731290D01*
X104130518Y-112731282D01*
X104018717Y-112619481D01*
X104018709Y-112619475D01*
X103881790Y-112540426D01*
X103881786Y-112540424D01*
X103881784Y-112540423D01*
X103729057Y-112499500D01*
X103570943Y-112499500D01*
X103418216Y-112540423D01*
X103418209Y-112540426D01*
X103281290Y-112619475D01*
X103281282Y-112619481D01*
X103169481Y-112731282D01*
X103169475Y-112731290D01*
X103090426Y-112868209D01*
X103090423Y-112868216D01*
X103049500Y-113020943D01*
X103049500Y-113179057D01*
X103086922Y-113318716D01*
X103090423Y-113331783D01*
X103090426Y-113331790D01*
X103169475Y-113468708D01*
X103169480Y-113468716D01*
X103169484Y-113468720D01*
X103173928Y-113474512D01*
X103199123Y-113539681D01*
X103185086Y-113608126D01*
X103173928Y-113625488D01*
X103169475Y-113631291D01*
X103090426Y-113768209D01*
X103090423Y-113768214D01*
X103058126Y-113888750D01*
X103021760Y-113948410D01*
X102958913Y-113978939D01*
X102889538Y-113970644D01*
X102835660Y-113926158D01*
X102830964Y-113918655D01*
X102780524Y-113831290D01*
X102780518Y-113831282D01*
X102668717Y-113719481D01*
X102668709Y-113719475D01*
X102531790Y-113640426D01*
X102531786Y-113640424D01*
X102531784Y-113640423D01*
X102379057Y-113599500D01*
X102220943Y-113599500D01*
X102068216Y-113640423D01*
X102068209Y-113640426D01*
X101931290Y-113719475D01*
X101931282Y-113719481D01*
X101862681Y-113788083D01*
X101801358Y-113821568D01*
X101731666Y-113816584D01*
X101687319Y-113788083D01*
X101618717Y-113719481D01*
X101618709Y-113719475D01*
X101481790Y-113640426D01*
X101481786Y-113640424D01*
X101481784Y-113640423D01*
X101329057Y-113599500D01*
X101170943Y-113599500D01*
X101018216Y-113640423D01*
X101018209Y-113640426D01*
X100881290Y-113719475D01*
X100881282Y-113719481D01*
X100769481Y-113831282D01*
X100769477Y-113831287D01*
X100731887Y-113896397D01*
X100681321Y-113944612D01*
X100612714Y-113957836D01*
X100547849Y-113931868D01*
X100507320Y-113874954D01*
X100500500Y-113834397D01*
X100500500Y-111234108D01*
X105299500Y-111234108D01*
X105299500Y-111365892D01*
X105306535Y-111392147D01*
X105333608Y-111493187D01*
X105346717Y-111515892D01*
X105399500Y-111607314D01*
X105492686Y-111700500D01*
X105606814Y-111766392D01*
X105734108Y-111800500D01*
X105734110Y-111800500D01*
X105865890Y-111800500D01*
X105865892Y-111800500D01*
X105993186Y-111766392D01*
X106107314Y-111700500D01*
X106200500Y-111607314D01*
X106266392Y-111493186D01*
X106300500Y-111365892D01*
X106300500Y-111234108D01*
X106266392Y-111106814D01*
X106200500Y-110992686D01*
X106107314Y-110899500D01*
X106049968Y-110866391D01*
X105993187Y-110833608D01*
X105929539Y-110816554D01*
X105865892Y-110799500D01*
X105734108Y-110799500D01*
X105606812Y-110833608D01*
X105492686Y-110899500D01*
X105492683Y-110899502D01*
X105399502Y-110992683D01*
X105399500Y-110992686D01*
X105333608Y-111106812D01*
X105323997Y-111142683D01*
X105299500Y-111234108D01*
X100500500Y-111234108D01*
X100500500Y-110334108D01*
X101699500Y-110334108D01*
X101699500Y-110465891D01*
X101733608Y-110593187D01*
X101766554Y-110650250D01*
X101799500Y-110707314D01*
X101892686Y-110800500D01*
X102006814Y-110866392D01*
X102134108Y-110900500D01*
X102134110Y-110900500D01*
X102265890Y-110900500D01*
X102265892Y-110900500D01*
X102393186Y-110866392D01*
X102507314Y-110800500D01*
X102600500Y-110707314D01*
X102666392Y-110593186D01*
X102700500Y-110465892D01*
X102700500Y-110334108D01*
X102666392Y-110206814D01*
X102600500Y-110092686D01*
X102507314Y-109999500D01*
X102420712Y-109949500D01*
X102393187Y-109933608D01*
X102329539Y-109916554D01*
X102265892Y-109899500D01*
X102134108Y-109899500D01*
X102006812Y-109933608D01*
X101892686Y-109999500D01*
X101892683Y-109999502D01*
X101799502Y-110092683D01*
X101799500Y-110092686D01*
X101733608Y-110206812D01*
X101699500Y-110334108D01*
X100500500Y-110334108D01*
X100500500Y-109834108D01*
X107949500Y-109834108D01*
X107949500Y-109965891D01*
X107983608Y-110093187D01*
X108016554Y-110150250D01*
X108049500Y-110207314D01*
X108142686Y-110300500D01*
X108256814Y-110366392D01*
X108384108Y-110400500D01*
X108384110Y-110400500D01*
X108515890Y-110400500D01*
X108515892Y-110400500D01*
X108643186Y-110366392D01*
X108757314Y-110300500D01*
X108850500Y-110207314D01*
X108916392Y-110093186D01*
X108950500Y-109965892D01*
X108950500Y-109834108D01*
X108916392Y-109706814D01*
X108850500Y-109592686D01*
X108757314Y-109499500D01*
X108700250Y-109466554D01*
X108643187Y-109433608D01*
X108577061Y-109415890D01*
X108515892Y-109399500D01*
X108384108Y-109399500D01*
X108256812Y-109433608D01*
X108142686Y-109499500D01*
X108142683Y-109499502D01*
X108049502Y-109592683D01*
X108049500Y-109592686D01*
X107983608Y-109706812D01*
X107949500Y-109834108D01*
X100500500Y-109834108D01*
X100500500Y-109234108D01*
X105899500Y-109234108D01*
X105899500Y-109365892D01*
X105900462Y-109369481D01*
X105933608Y-109493187D01*
X105955896Y-109531790D01*
X105999500Y-109607314D01*
X106092686Y-109700500D01*
X106191521Y-109757563D01*
X106206810Y-109766390D01*
X106206814Y-109766392D01*
X106334108Y-109800500D01*
X106334110Y-109800500D01*
X106465890Y-109800500D01*
X106465892Y-109800500D01*
X106593186Y-109766392D01*
X106707314Y-109700500D01*
X106800500Y-109607314D01*
X106866392Y-109493186D01*
X106900500Y-109365892D01*
X106900500Y-109234108D01*
X106866392Y-109106814D01*
X106800500Y-108992686D01*
X106707314Y-108899500D01*
X106649100Y-108865890D01*
X106593187Y-108833608D01*
X106529539Y-108816554D01*
X106465892Y-108799500D01*
X106334108Y-108799500D01*
X106206812Y-108833608D01*
X106092686Y-108899500D01*
X106092683Y-108899502D01*
X105999502Y-108992683D01*
X105999500Y-108992686D01*
X105933608Y-109106812D01*
X105903027Y-109220945D01*
X105899500Y-109234108D01*
X100500500Y-109234108D01*
X100500500Y-108484108D01*
X103849500Y-108484108D01*
X103849500Y-108615891D01*
X103883608Y-108743187D01*
X103895037Y-108762982D01*
X103949500Y-108857314D01*
X104042686Y-108950500D01*
X104156814Y-109016392D01*
X104284108Y-109050500D01*
X104284110Y-109050500D01*
X104415890Y-109050500D01*
X104415892Y-109050500D01*
X104543186Y-109016392D01*
X104657314Y-108950500D01*
X104750500Y-108857314D01*
X104816392Y-108743186D01*
X104850500Y-108615892D01*
X104850500Y-108520943D01*
X114849500Y-108520943D01*
X114849500Y-108679057D01*
X114887127Y-108819481D01*
X114890423Y-108831783D01*
X114890426Y-108831790D01*
X114969475Y-108968709D01*
X114969479Y-108968714D01*
X114969480Y-108968716D01*
X115081284Y-109080520D01*
X115081286Y-109080521D01*
X115081290Y-109080524D01*
X115127696Y-109107316D01*
X115218216Y-109159577D01*
X115370943Y-109200500D01*
X115370945Y-109200500D01*
X115529055Y-109200500D01*
X115529057Y-109200500D01*
X115681784Y-109159577D01*
X115818716Y-109080520D01*
X115930520Y-108968716D01*
X116009577Y-108831784D01*
X116050500Y-108679057D01*
X116050500Y-108520943D01*
X116009577Y-108368216D01*
X115982026Y-108320495D01*
X115930524Y-108231290D01*
X115930518Y-108231282D01*
X115818717Y-108119481D01*
X115818709Y-108119475D01*
X115681790Y-108040426D01*
X115681786Y-108040424D01*
X115681784Y-108040423D01*
X115529057Y-107999500D01*
X115370943Y-107999500D01*
X115218216Y-108040423D01*
X115218209Y-108040426D01*
X115081290Y-108119475D01*
X115081282Y-108119481D01*
X114969481Y-108231282D01*
X114969475Y-108231290D01*
X114890426Y-108368209D01*
X114890423Y-108368216D01*
X114849500Y-108520943D01*
X104850500Y-108520943D01*
X104850500Y-108484108D01*
X104816392Y-108356814D01*
X104750500Y-108242686D01*
X104657314Y-108149500D01*
X104600250Y-108116554D01*
X104543187Y-108083608D01*
X104479539Y-108066554D01*
X104415892Y-108049500D01*
X104284108Y-108049500D01*
X104156812Y-108083608D01*
X104042686Y-108149500D01*
X104042683Y-108149502D01*
X103949502Y-108242683D01*
X103949500Y-108242686D01*
X103883608Y-108356812D01*
X103849500Y-108484108D01*
X100500500Y-108484108D01*
X100500500Y-107684108D01*
X100999500Y-107684108D01*
X100999500Y-107815891D01*
X101033608Y-107943187D01*
X101066121Y-107999500D01*
X101099500Y-108057314D01*
X101192686Y-108150500D01*
X101306814Y-108216392D01*
X101434108Y-108250500D01*
X101434110Y-108250500D01*
X101565890Y-108250500D01*
X101565892Y-108250500D01*
X101693186Y-108216392D01*
X101807314Y-108150500D01*
X101900500Y-108057314D01*
X101966392Y-107943186D01*
X102000500Y-107815892D01*
X102000500Y-107684108D01*
X101966392Y-107556814D01*
X101900500Y-107442686D01*
X101807314Y-107349500D01*
X101750250Y-107316554D01*
X101693187Y-107283608D01*
X101629539Y-107266554D01*
X101565892Y-107249500D01*
X101434108Y-107249500D01*
X101306812Y-107283608D01*
X101192686Y-107349500D01*
X101192683Y-107349502D01*
X101099502Y-107442683D01*
X101099500Y-107442686D01*
X101033608Y-107556812D01*
X100999500Y-107684108D01*
X100500500Y-107684108D01*
X100500500Y-107070943D01*
X120299500Y-107070943D01*
X120299500Y-107229057D01*
X120333867Y-107357314D01*
X120340423Y-107381783D01*
X120340426Y-107381790D01*
X120419475Y-107518709D01*
X120419479Y-107518714D01*
X120419480Y-107518716D01*
X120531284Y-107630520D01*
X120531286Y-107630521D01*
X120531290Y-107630524D01*
X120624102Y-107684108D01*
X120668216Y-107709577D01*
X120820943Y-107750500D01*
X120820945Y-107750500D01*
X120979055Y-107750500D01*
X120979057Y-107750500D01*
X121131784Y-107709577D01*
X121268716Y-107630520D01*
X121380520Y-107518716D01*
X121459577Y-107381784D01*
X121500500Y-107229057D01*
X121500500Y-107070943D01*
X124949500Y-107070943D01*
X124949500Y-107229057D01*
X124983867Y-107357314D01*
X124990423Y-107381783D01*
X124990426Y-107381790D01*
X125069475Y-107518709D01*
X125069479Y-107518714D01*
X125069480Y-107518716D01*
X125181284Y-107630520D01*
X125181286Y-107630521D01*
X125181290Y-107630524D01*
X125274102Y-107684108D01*
X125318216Y-107709577D01*
X125470943Y-107750500D01*
X125470945Y-107750500D01*
X125629055Y-107750500D01*
X125629057Y-107750500D01*
X125781784Y-107709577D01*
X125918716Y-107630520D01*
X126030520Y-107518716D01*
X126109577Y-107381784D01*
X126150500Y-107229057D01*
X126150500Y-107070943D01*
X126127233Y-106984108D01*
X126799500Y-106984108D01*
X126799500Y-107115891D01*
X126833608Y-107243187D01*
X126837253Y-107249500D01*
X126899500Y-107357314D01*
X126992686Y-107450500D01*
X127106814Y-107516392D01*
X127234108Y-107550500D01*
X127234110Y-107550500D01*
X127365890Y-107550500D01*
X127365892Y-107550500D01*
X127493186Y-107516392D01*
X127607314Y-107450500D01*
X127700500Y-107357314D01*
X127766392Y-107243186D01*
X127800500Y-107115892D01*
X127800500Y-106984108D01*
X127766392Y-106856814D01*
X127700500Y-106742686D01*
X127607314Y-106649500D01*
X127522439Y-106600497D01*
X127493187Y-106583608D01*
X127429539Y-106566554D01*
X127365892Y-106549500D01*
X127234108Y-106549500D01*
X127106812Y-106583608D01*
X126992686Y-106649500D01*
X126992683Y-106649502D01*
X126899502Y-106742683D01*
X126899500Y-106742686D01*
X126833608Y-106856812D01*
X126799500Y-106984108D01*
X126127233Y-106984108D01*
X126109577Y-106918216D01*
X126074126Y-106856812D01*
X126030524Y-106781290D01*
X126030518Y-106781282D01*
X125918717Y-106669481D01*
X125918709Y-106669475D01*
X125781790Y-106590426D01*
X125781786Y-106590424D01*
X125781784Y-106590423D01*
X125629057Y-106549500D01*
X125470943Y-106549500D01*
X125318216Y-106590423D01*
X125318209Y-106590426D01*
X125181290Y-106669475D01*
X125181282Y-106669481D01*
X125069481Y-106781282D01*
X125069475Y-106781290D01*
X124990426Y-106918209D01*
X124990424Y-106918214D01*
X124990423Y-106918216D01*
X124949500Y-107070943D01*
X121500500Y-107070943D01*
X121459577Y-106918216D01*
X121424126Y-106856812D01*
X121380524Y-106781290D01*
X121380518Y-106781282D01*
X121268717Y-106669481D01*
X121268709Y-106669475D01*
X121131790Y-106590426D01*
X121131786Y-106590424D01*
X121131784Y-106590423D01*
X120979057Y-106549500D01*
X120820943Y-106549500D01*
X120668216Y-106590423D01*
X120668209Y-106590426D01*
X120531290Y-106669475D01*
X120531282Y-106669481D01*
X120419481Y-106781282D01*
X120419475Y-106781290D01*
X120340426Y-106918209D01*
X120340424Y-106918214D01*
X120340423Y-106918216D01*
X120299500Y-107070943D01*
X100500500Y-107070943D01*
X100500500Y-106134108D01*
X103249500Y-106134108D01*
X103249500Y-106265891D01*
X103283608Y-106393187D01*
X103316554Y-106450250D01*
X103349500Y-106507314D01*
X103442686Y-106600500D01*
X103556814Y-106666392D01*
X103684108Y-106700500D01*
X103684110Y-106700500D01*
X103815890Y-106700500D01*
X103815892Y-106700500D01*
X103943186Y-106666392D01*
X104057314Y-106600500D01*
X104150500Y-106507314D01*
X104216392Y-106393186D01*
X104250500Y-106265892D01*
X104250500Y-106134108D01*
X104216392Y-106006814D01*
X104150500Y-105892686D01*
X104057314Y-105799500D01*
X103972439Y-105750497D01*
X103943187Y-105733608D01*
X103879539Y-105716554D01*
X103815892Y-105699500D01*
X103684108Y-105699500D01*
X103556812Y-105733608D01*
X103442686Y-105799500D01*
X103442683Y-105799502D01*
X103349502Y-105892683D01*
X103349500Y-105892686D01*
X103283608Y-106006812D01*
X103249500Y-106134108D01*
X100500500Y-106134108D01*
X100500500Y-105661304D01*
X100520185Y-105594265D01*
X100572989Y-105548510D01*
X100642147Y-105538566D01*
X100705703Y-105567591D01*
X100727601Y-105592412D01*
X100743290Y-105615892D01*
X100780916Y-105672203D01*
X100780919Y-105672207D01*
X100927792Y-105819080D01*
X100927796Y-105819083D01*
X101100507Y-105934486D01*
X101100508Y-105934486D01*
X101100509Y-105934487D01*
X101100511Y-105934488D01*
X101139168Y-105950500D01*
X101292414Y-106013976D01*
X101476027Y-106050499D01*
X101496136Y-106054499D01*
X101496139Y-106054500D01*
X101496141Y-106054500D01*
X101703861Y-106054500D01*
X101703862Y-106054499D01*
X101907586Y-106013976D01*
X102099493Y-105934486D01*
X102272204Y-105819083D01*
X102419083Y-105672204D01*
X102534486Y-105499493D01*
X102613976Y-105307586D01*
X102654500Y-105103859D01*
X102654500Y-104896141D01*
X102654500Y-104896138D01*
X102654499Y-104896136D01*
X107545500Y-104896136D01*
X107545500Y-105103863D01*
X107586022Y-105307578D01*
X107586025Y-105307590D01*
X107665511Y-105499488D01*
X107665512Y-105499490D01*
X107780916Y-105672203D01*
X107780919Y-105672207D01*
X107927792Y-105819080D01*
X107927796Y-105819083D01*
X108100507Y-105934486D01*
X108100508Y-105934486D01*
X108100509Y-105934487D01*
X108100511Y-105934488D01*
X108139168Y-105950500D01*
X108292414Y-106013976D01*
X108476027Y-106050499D01*
X108496136Y-106054499D01*
X108496139Y-106054500D01*
X108496141Y-106054500D01*
X108703861Y-106054500D01*
X108703862Y-106054499D01*
X108907586Y-106013976D01*
X109099493Y-105934486D01*
X109272204Y-105819083D01*
X109419083Y-105672204D01*
X109534486Y-105499493D01*
X109546312Y-105470943D01*
X124649500Y-105470943D01*
X124649500Y-105629057D01*
X124686299Y-105766391D01*
X124690423Y-105781783D01*
X124690426Y-105781790D01*
X124769475Y-105918709D01*
X124769479Y-105918714D01*
X124769480Y-105918716D01*
X124881284Y-106030520D01*
X124881286Y-106030521D01*
X124881290Y-106030524D01*
X125018209Y-106109573D01*
X125018216Y-106109577D01*
X125170943Y-106150500D01*
X125170945Y-106150500D01*
X125329055Y-106150500D01*
X125329057Y-106150500D01*
X125481784Y-106109577D01*
X125618716Y-106030520D01*
X125730520Y-105918716D01*
X125809577Y-105781784D01*
X125850500Y-105629057D01*
X125850500Y-105470943D01*
X125809577Y-105318216D01*
X125789885Y-105284108D01*
X135249500Y-105284108D01*
X135249500Y-105415892D01*
X135264251Y-105470943D01*
X135283608Y-105543187D01*
X135316554Y-105600250D01*
X135349500Y-105657314D01*
X135442686Y-105750500D01*
X135556814Y-105816392D01*
X135684108Y-105850500D01*
X135684110Y-105850500D01*
X135815890Y-105850500D01*
X135815892Y-105850500D01*
X135943186Y-105816392D01*
X136057314Y-105750500D01*
X136150500Y-105657314D01*
X136216392Y-105543186D01*
X136232222Y-105484108D01*
X137899500Y-105484108D01*
X137899500Y-105615892D01*
X137911668Y-105661304D01*
X137933608Y-105743187D01*
X137955896Y-105781790D01*
X137999500Y-105857314D01*
X138092686Y-105950500D01*
X138190221Y-106006812D01*
X138198200Y-106011419D01*
X138206814Y-106016392D01*
X138334108Y-106050500D01*
X138334110Y-106050500D01*
X138465890Y-106050500D01*
X138465892Y-106050500D01*
X138593186Y-106016392D01*
X138707314Y-105950500D01*
X138800500Y-105857314D01*
X138866392Y-105743186D01*
X138900500Y-105615892D01*
X138900500Y-105484108D01*
X138866392Y-105356814D01*
X138800500Y-105242686D01*
X138707314Y-105149500D01*
X138633380Y-105106814D01*
X138593187Y-105083608D01*
X138528931Y-105066391D01*
X138465892Y-105049500D01*
X138334108Y-105049500D01*
X138206812Y-105083608D01*
X138092686Y-105149500D01*
X138092683Y-105149502D01*
X137999502Y-105242683D01*
X137999500Y-105242686D01*
X137933608Y-105356812D01*
X137903027Y-105470945D01*
X137899500Y-105484108D01*
X136232222Y-105484108D01*
X136250500Y-105415892D01*
X136250500Y-105284108D01*
X136216392Y-105156814D01*
X136150500Y-105042686D01*
X136057314Y-104949500D01*
X136000250Y-104916554D01*
X135943187Y-104883608D01*
X135878931Y-104866391D01*
X135815892Y-104849500D01*
X135684108Y-104849500D01*
X135556812Y-104883608D01*
X135442686Y-104949500D01*
X135442683Y-104949502D01*
X135349502Y-105042683D01*
X135349500Y-105042686D01*
X135283608Y-105156812D01*
X135271902Y-105200500D01*
X135249500Y-105284108D01*
X125789885Y-105284108D01*
X125765970Y-105242686D01*
X125730524Y-105181290D01*
X125730518Y-105181282D01*
X125618717Y-105069481D01*
X125618709Y-105069475D01*
X125481790Y-104990426D01*
X125481786Y-104990424D01*
X125481784Y-104990423D01*
X125329057Y-104949500D01*
X125170943Y-104949500D01*
X125018216Y-104990423D01*
X125018209Y-104990426D01*
X124881290Y-105069475D01*
X124881282Y-105069481D01*
X124769481Y-105181282D01*
X124769475Y-105181290D01*
X124690426Y-105318209D01*
X124690423Y-105318216D01*
X124649500Y-105470943D01*
X109546312Y-105470943D01*
X109557519Y-105443887D01*
X109569334Y-105415363D01*
X109569334Y-105415361D01*
X109589826Y-105365890D01*
X109613976Y-105307586D01*
X109654500Y-105103859D01*
X109654500Y-104896141D01*
X109654500Y-104896138D01*
X109654499Y-104896136D01*
X109652007Y-104883608D01*
X109613976Y-104692414D01*
X109606114Y-104673434D01*
X109564693Y-104573433D01*
X109548404Y-104534108D01*
X111199500Y-104534108D01*
X111199500Y-104665892D01*
X111216554Y-104729539D01*
X111233608Y-104793187D01*
X111256946Y-104833608D01*
X111299500Y-104907314D01*
X111392686Y-105000500D01*
X111506814Y-105066392D01*
X111634108Y-105100500D01*
X111634110Y-105100500D01*
X111765890Y-105100500D01*
X111765892Y-105100500D01*
X111893186Y-105066392D01*
X112007314Y-105000500D01*
X112100500Y-104907314D01*
X112166392Y-104793186D01*
X112200500Y-104665892D01*
X112200500Y-104534108D01*
X112166392Y-104406814D01*
X112165768Y-104405734D01*
X112124416Y-104334110D01*
X112100500Y-104292686D01*
X112007314Y-104199500D01*
X111950250Y-104166554D01*
X111893187Y-104133608D01*
X111829539Y-104116554D01*
X111765892Y-104099500D01*
X111634108Y-104099500D01*
X111506812Y-104133608D01*
X111392686Y-104199500D01*
X111392683Y-104199502D01*
X111299502Y-104292683D01*
X111299500Y-104292686D01*
X111233608Y-104406812D01*
X111217778Y-104465892D01*
X111199500Y-104534108D01*
X109548404Y-104534108D01*
X109534488Y-104500511D01*
X109534487Y-104500509D01*
X109511356Y-104465892D01*
X109419083Y-104327796D01*
X109419080Y-104327792D01*
X109272207Y-104180919D01*
X109272203Y-104180916D01*
X109099490Y-104065512D01*
X109099488Y-104065511D01*
X108907590Y-103986025D01*
X108907578Y-103986022D01*
X108703862Y-103945500D01*
X108703859Y-103945500D01*
X108496141Y-103945500D01*
X108496138Y-103945500D01*
X108292421Y-103986022D01*
X108292409Y-103986025D01*
X108100511Y-104065511D01*
X108100509Y-104065512D01*
X107927796Y-104180916D01*
X107927792Y-104180919D01*
X107780919Y-104327792D01*
X107780916Y-104327796D01*
X107665512Y-104500509D01*
X107665511Y-104500511D01*
X107586025Y-104692409D01*
X107586022Y-104692421D01*
X107545500Y-104896136D01*
X102654499Y-104896136D01*
X102652007Y-104883608D01*
X102613976Y-104692414D01*
X102606114Y-104673434D01*
X102534488Y-104500511D01*
X102534487Y-104500509D01*
X102511356Y-104465892D01*
X102419083Y-104327796D01*
X102419080Y-104327792D01*
X102272207Y-104180919D01*
X102272203Y-104180916D01*
X102202150Y-104134108D01*
X105749500Y-104134108D01*
X105749500Y-104265892D01*
X105758505Y-104299500D01*
X105783608Y-104393187D01*
X105793071Y-104409577D01*
X105849500Y-104507314D01*
X105942686Y-104600500D01*
X106041521Y-104657563D01*
X106055944Y-104665890D01*
X106056814Y-104666392D01*
X106184108Y-104700500D01*
X106184110Y-104700500D01*
X106315890Y-104700500D01*
X106315892Y-104700500D01*
X106443186Y-104666392D01*
X106557314Y-104600500D01*
X106650500Y-104507314D01*
X106716392Y-104393186D01*
X106750500Y-104265892D01*
X106750500Y-104134108D01*
X106716392Y-104006814D01*
X106650500Y-103892686D01*
X106557314Y-103799500D01*
X106507852Y-103770943D01*
X120499500Y-103770943D01*
X120499500Y-103929057D01*
X120536064Y-104065514D01*
X120540423Y-104081783D01*
X120540426Y-104081790D01*
X120619475Y-104218709D01*
X120619479Y-104218714D01*
X120619480Y-104218716D01*
X120731284Y-104330520D01*
X120731286Y-104330521D01*
X120731290Y-104330524D01*
X120839827Y-104393187D01*
X120868216Y-104409577D01*
X121020943Y-104450500D01*
X121020945Y-104450500D01*
X121179055Y-104450500D01*
X121179057Y-104450500D01*
X121331784Y-104409577D01*
X121462501Y-104334108D01*
X139649500Y-104334108D01*
X139649500Y-104465892D01*
X139666554Y-104529539D01*
X139683608Y-104593187D01*
X139716554Y-104650250D01*
X139749500Y-104707314D01*
X139842686Y-104800500D01*
X139956814Y-104866392D01*
X140084108Y-104900500D01*
X140084110Y-104900500D01*
X140215890Y-104900500D01*
X140215892Y-104900500D01*
X140232179Y-104896136D01*
X141345500Y-104896136D01*
X141345500Y-105103863D01*
X141386022Y-105307578D01*
X141386025Y-105307590D01*
X141465511Y-105499488D01*
X141465512Y-105499490D01*
X141580916Y-105672203D01*
X141580919Y-105672207D01*
X141727792Y-105819080D01*
X141727796Y-105819083D01*
X141900507Y-105934486D01*
X141900508Y-105934486D01*
X141900509Y-105934487D01*
X141900511Y-105934488D01*
X141939168Y-105950500D01*
X142092414Y-106013976D01*
X142276027Y-106050499D01*
X142296136Y-106054499D01*
X142296139Y-106054500D01*
X142296141Y-106054500D01*
X142503861Y-106054500D01*
X142503862Y-106054499D01*
X142707586Y-106013976D01*
X142899493Y-105934486D01*
X143072204Y-105819083D01*
X143219083Y-105672204D01*
X143334486Y-105499493D01*
X143413976Y-105307586D01*
X143428592Y-105234108D01*
X146449500Y-105234108D01*
X146449500Y-105365891D01*
X146483608Y-105493187D01*
X146487249Y-105499493D01*
X146549500Y-105607314D01*
X146642686Y-105700500D01*
X146756814Y-105766392D01*
X146884108Y-105800500D01*
X146884110Y-105800500D01*
X147015890Y-105800500D01*
X147015892Y-105800500D01*
X147143186Y-105766392D01*
X147257314Y-105700500D01*
X147350500Y-105607314D01*
X147416392Y-105493186D01*
X147450500Y-105365892D01*
X147450500Y-105234108D01*
X147416392Y-105106814D01*
X147350500Y-104992686D01*
X147257314Y-104899500D01*
X147170712Y-104849500D01*
X147143187Y-104833608D01*
X147079539Y-104816554D01*
X147015892Y-104799500D01*
X146884108Y-104799500D01*
X146756812Y-104833608D01*
X146642686Y-104899500D01*
X146642683Y-104899502D01*
X146549502Y-104992683D01*
X146549500Y-104992686D01*
X146483608Y-105106812D01*
X146449500Y-105234108D01*
X143428592Y-105234108D01*
X143454500Y-105103859D01*
X143454500Y-104896141D01*
X143454500Y-104896138D01*
X143454499Y-104896136D01*
X143452007Y-104883608D01*
X143413976Y-104692414D01*
X143389825Y-104634108D01*
X144299500Y-104634108D01*
X144299500Y-104765891D01*
X144333608Y-104893187D01*
X144341766Y-104907316D01*
X144399500Y-105007314D01*
X144492686Y-105100500D01*
X144577560Y-105149502D01*
X144606810Y-105166390D01*
X144606814Y-105166392D01*
X144734108Y-105200500D01*
X144734110Y-105200500D01*
X144865890Y-105200500D01*
X144865892Y-105200500D01*
X144993186Y-105166392D01*
X145107314Y-105100500D01*
X145200500Y-105007314D01*
X145266392Y-104893186D01*
X145300500Y-104765892D01*
X145300500Y-104634108D01*
X145266392Y-104506814D01*
X145200500Y-104392686D01*
X145107314Y-104299500D01*
X145049100Y-104265890D01*
X144993187Y-104233608D01*
X144893188Y-104206814D01*
X144865892Y-104199500D01*
X144734108Y-104199500D01*
X144606812Y-104233608D01*
X144492686Y-104299500D01*
X144492683Y-104299502D01*
X144399502Y-104392683D01*
X144399500Y-104392686D01*
X144333608Y-104506812D01*
X144299500Y-104634108D01*
X143389825Y-104634108D01*
X143348404Y-104534108D01*
X143334488Y-104500511D01*
X143334487Y-104500509D01*
X143311356Y-104465892D01*
X143219083Y-104327796D01*
X143219080Y-104327792D01*
X143072207Y-104180919D01*
X143072203Y-104180916D01*
X142899490Y-104065512D01*
X142899488Y-104065511D01*
X142707590Y-103986025D01*
X142707578Y-103986022D01*
X142503862Y-103945500D01*
X142503859Y-103945500D01*
X142296141Y-103945500D01*
X142296138Y-103945500D01*
X142092421Y-103986022D01*
X142092409Y-103986025D01*
X141900511Y-104065511D01*
X141900509Y-104065512D01*
X141727796Y-104180916D01*
X141727792Y-104180919D01*
X141580919Y-104327792D01*
X141580916Y-104327796D01*
X141465512Y-104500509D01*
X141465511Y-104500511D01*
X141386025Y-104692409D01*
X141386022Y-104692421D01*
X141345500Y-104896136D01*
X140232179Y-104896136D01*
X140343186Y-104866392D01*
X140457314Y-104800500D01*
X140550500Y-104707314D01*
X140616392Y-104593186D01*
X140650500Y-104465892D01*
X140650500Y-104334108D01*
X140616392Y-104206814D01*
X140550500Y-104092686D01*
X140457314Y-103999500D01*
X140391522Y-103961515D01*
X140343187Y-103933608D01*
X140279539Y-103916554D01*
X140215892Y-103899500D01*
X140084108Y-103899500D01*
X139956812Y-103933608D01*
X139842686Y-103999500D01*
X139842683Y-103999502D01*
X139749502Y-104092683D01*
X139749500Y-104092686D01*
X139683608Y-104206812D01*
X139651192Y-104327792D01*
X139649500Y-104334108D01*
X121462501Y-104334108D01*
X121468716Y-104330520D01*
X121580520Y-104218716D01*
X121659577Y-104081784D01*
X121700500Y-103929057D01*
X121700500Y-103770943D01*
X121659577Y-103618216D01*
X121645126Y-103593186D01*
X121580524Y-103481290D01*
X121580518Y-103481282D01*
X121468717Y-103369481D01*
X121468709Y-103369475D01*
X121331790Y-103290426D01*
X121331786Y-103290424D01*
X121331784Y-103290423D01*
X121179057Y-103249500D01*
X121020943Y-103249500D01*
X120868216Y-103290423D01*
X120868209Y-103290426D01*
X120731290Y-103369475D01*
X120731282Y-103369481D01*
X120619481Y-103481282D01*
X120619475Y-103481290D01*
X120540426Y-103618209D01*
X120540423Y-103618216D01*
X120499500Y-103770943D01*
X106507852Y-103770943D01*
X106500250Y-103766554D01*
X106443187Y-103733608D01*
X106379539Y-103716554D01*
X106315892Y-103699500D01*
X106184108Y-103699500D01*
X106056812Y-103733608D01*
X105942686Y-103799500D01*
X105942683Y-103799502D01*
X105849502Y-103892683D01*
X105849500Y-103892686D01*
X105783608Y-104006812D01*
X105763520Y-104081783D01*
X105749500Y-104134108D01*
X102202150Y-104134108D01*
X102099490Y-104065512D01*
X102010858Y-104028800D01*
X101956455Y-103984959D01*
X101934390Y-103918665D01*
X101951669Y-103850966D01*
X101996309Y-103806853D01*
X102007314Y-103800500D01*
X102100500Y-103707314D01*
X102166392Y-103593186D01*
X102200500Y-103465892D01*
X102200500Y-103334108D01*
X102166392Y-103206814D01*
X102100500Y-103092686D01*
X102007314Y-102999500D01*
X101950250Y-102966554D01*
X101893187Y-102933608D01*
X101829539Y-102916554D01*
X101765892Y-102899500D01*
X101634108Y-102899500D01*
X101506812Y-102933608D01*
X101392686Y-102999500D01*
X101392683Y-102999502D01*
X101299502Y-103092683D01*
X101299500Y-103092686D01*
X101233608Y-103206812D01*
X101199500Y-103334108D01*
X101199500Y-103465891D01*
X101233608Y-103593187D01*
X101248055Y-103618209D01*
X101299500Y-103707314D01*
X101299502Y-103707316D01*
X101366753Y-103774567D01*
X101400238Y-103835890D01*
X101395254Y-103905582D01*
X101353382Y-103961515D01*
X101303267Y-103983865D01*
X101292415Y-103986023D01*
X101292409Y-103986025D01*
X101100511Y-104065511D01*
X101100509Y-104065512D01*
X100927796Y-104180916D01*
X100927792Y-104180919D01*
X100780919Y-104327792D01*
X100780916Y-104327796D01*
X100727602Y-104407586D01*
X100673989Y-104452391D01*
X100604664Y-104461098D01*
X100541637Y-104430943D01*
X100504918Y-104371500D01*
X100500500Y-104338695D01*
X100500500Y-101684108D01*
X100799500Y-101684108D01*
X100799500Y-101815892D01*
X100816554Y-101879539D01*
X100833608Y-101943187D01*
X100855896Y-101981790D01*
X100899500Y-102057314D01*
X100992686Y-102150500D01*
X101091521Y-102207563D01*
X101100443Y-102212714D01*
X101106814Y-102216392D01*
X101234108Y-102250500D01*
X101234110Y-102250500D01*
X101365890Y-102250500D01*
X101365892Y-102250500D01*
X101493186Y-102216392D01*
X101607314Y-102150500D01*
X101700500Y-102057314D01*
X101766392Y-101943186D01*
X101800500Y-101815892D01*
X101800500Y-101684108D01*
X101798736Y-101677525D01*
X106599500Y-101677525D01*
X106599500Y-101822475D01*
X106633805Y-101950500D01*
X106637017Y-101962488D01*
X106709488Y-102088011D01*
X106709490Y-102088013D01*
X106709491Y-102088015D01*
X106811985Y-102190509D01*
X106811986Y-102190510D01*
X106811988Y-102190511D01*
X106937511Y-102262982D01*
X106937512Y-102262982D01*
X106937515Y-102262984D01*
X107077525Y-102300500D01*
X107077528Y-102300500D01*
X107222472Y-102300500D01*
X107222475Y-102300500D01*
X107362485Y-102262984D01*
X107488015Y-102190509D01*
X107541705Y-102136819D01*
X107603028Y-102103334D01*
X107629386Y-102100500D01*
X113944354Y-102100500D01*
X114011393Y-102120185D01*
X114057148Y-102172989D01*
X114067092Y-102242147D01*
X114038067Y-102305703D01*
X114006353Y-102331887D01*
X113917689Y-102383076D01*
X113917681Y-102383082D01*
X113805880Y-102494883D01*
X113805874Y-102494891D01*
X113726825Y-102631810D01*
X113726822Y-102631817D01*
X113685899Y-102784544D01*
X113685899Y-102942658D01*
X113701131Y-102999502D01*
X113726822Y-103095384D01*
X113726825Y-103095391D01*
X113805874Y-103232310D01*
X113805878Y-103232315D01*
X113805879Y-103232317D01*
X113917683Y-103344121D01*
X113917685Y-103344122D01*
X113917689Y-103344125D01*
X113980728Y-103380520D01*
X114054615Y-103423178D01*
X114207342Y-103464101D01*
X114207344Y-103464101D01*
X114365454Y-103464101D01*
X114365456Y-103464101D01*
X114518183Y-103423178D01*
X114655115Y-103344121D01*
X114766919Y-103232317D01*
X114845976Y-103095385D01*
X114886899Y-102942658D01*
X114886899Y-102784544D01*
X114845976Y-102631817D01*
X114845972Y-102631810D01*
X114766923Y-102494891D01*
X114766917Y-102494883D01*
X114655116Y-102383082D01*
X114655108Y-102383076D01*
X114566445Y-102331887D01*
X114518229Y-102281321D01*
X114505005Y-102212714D01*
X114530973Y-102147849D01*
X114587887Y-102107320D01*
X114628444Y-102100500D01*
X117974052Y-102100500D01*
X118041091Y-102120185D01*
X118086846Y-102172989D01*
X118096790Y-102242147D01*
X118067765Y-102305703D01*
X118025252Y-102336357D01*
X118025254Y-102336359D01*
X118025236Y-102336368D01*
X118021502Y-102339062D01*
X118018211Y-102340424D01*
X117881290Y-102419475D01*
X117881282Y-102419481D01*
X117769481Y-102531282D01*
X117769475Y-102531290D01*
X117690426Y-102668209D01*
X117690423Y-102668216D01*
X117649500Y-102820943D01*
X117649500Y-102979056D01*
X117690423Y-103131783D01*
X117690426Y-103131790D01*
X117769475Y-103268709D01*
X117769479Y-103268714D01*
X117769480Y-103268716D01*
X117881284Y-103380520D01*
X117881286Y-103380521D01*
X117881290Y-103380524D01*
X118018209Y-103459573D01*
X118018216Y-103459577D01*
X118170943Y-103500500D01*
X118170945Y-103500500D01*
X118329055Y-103500500D01*
X118329057Y-103500500D01*
X118481784Y-103459577D01*
X118618716Y-103380520D01*
X118730520Y-103268716D01*
X118809577Y-103131784D01*
X118850500Y-102979057D01*
X118850500Y-102820943D01*
X118809577Y-102668216D01*
X118770480Y-102600497D01*
X118730524Y-102531290D01*
X118730518Y-102531282D01*
X118618717Y-102419481D01*
X118618709Y-102419475D01*
X118481788Y-102340424D01*
X118478498Y-102339062D01*
X118476148Y-102337168D01*
X118474746Y-102336359D01*
X118474872Y-102336140D01*
X118424093Y-102295222D01*
X118402027Y-102228928D01*
X118419305Y-102161229D01*
X118470441Y-102113617D01*
X118525948Y-102100500D01*
X130970614Y-102100500D01*
X131037653Y-102120185D01*
X131058295Y-102136819D01*
X131111985Y-102190509D01*
X131111986Y-102190510D01*
X131111988Y-102190511D01*
X131237511Y-102262982D01*
X131237512Y-102262982D01*
X131237515Y-102262984D01*
X131377525Y-102300500D01*
X131377528Y-102300500D01*
X131522472Y-102300500D01*
X131522475Y-102300500D01*
X131662485Y-102262984D01*
X131788015Y-102190509D01*
X131844416Y-102134108D01*
X136199500Y-102134108D01*
X136199500Y-102265891D01*
X136233608Y-102393187D01*
X136248786Y-102419475D01*
X136299500Y-102507314D01*
X136392686Y-102600500D01*
X136506814Y-102666392D01*
X136634108Y-102700500D01*
X136634110Y-102700500D01*
X136765890Y-102700500D01*
X136765892Y-102700500D01*
X136893186Y-102666392D01*
X137007314Y-102600500D01*
X137100500Y-102507314D01*
X137166392Y-102393186D01*
X137200500Y-102265892D01*
X137200500Y-102134108D01*
X137166392Y-102006814D01*
X137100500Y-101892686D01*
X137007314Y-101799500D01*
X136956569Y-101770202D01*
X136956568Y-101770201D01*
X136893189Y-101733609D01*
X136893186Y-101733608D01*
X136765892Y-101699500D01*
X136634108Y-101699500D01*
X136506812Y-101733608D01*
X136392686Y-101799500D01*
X136392683Y-101799502D01*
X136299502Y-101892683D01*
X136299500Y-101892686D01*
X136233608Y-102006812D01*
X136199500Y-102134108D01*
X131844416Y-102134108D01*
X131890509Y-102088015D01*
X131962984Y-101962485D01*
X132000500Y-101822475D01*
X132000500Y-101677525D01*
X131998736Y-101670943D01*
X138099500Y-101670943D01*
X138099500Y-101829057D01*
X138132041Y-101950500D01*
X138140423Y-101981783D01*
X138140426Y-101981790D01*
X138219475Y-102118709D01*
X138219479Y-102118714D01*
X138219480Y-102118716D01*
X138331284Y-102230520D01*
X138331286Y-102230521D01*
X138331290Y-102230524D01*
X138443352Y-102295222D01*
X138468216Y-102309577D01*
X138620943Y-102350500D01*
X138620945Y-102350500D01*
X138779055Y-102350500D01*
X138779057Y-102350500D01*
X138931784Y-102309577D01*
X139062501Y-102234108D01*
X145149500Y-102234108D01*
X145149500Y-102365892D01*
X145154106Y-102383081D01*
X145183608Y-102493187D01*
X145191766Y-102507316D01*
X145249500Y-102607314D01*
X145342686Y-102700500D01*
X145456814Y-102766392D01*
X145584108Y-102800500D01*
X145584110Y-102800500D01*
X145715890Y-102800500D01*
X145715892Y-102800500D01*
X145843186Y-102766392D01*
X145957314Y-102700500D01*
X146050500Y-102607314D01*
X146116392Y-102493186D01*
X146150500Y-102365892D01*
X146150500Y-102234108D01*
X146116392Y-102106814D01*
X146050500Y-101992686D01*
X145957314Y-101899500D01*
X145900250Y-101866554D01*
X145843187Y-101833608D01*
X145777061Y-101815890D01*
X145715892Y-101799500D01*
X145584108Y-101799500D01*
X145456812Y-101833608D01*
X145342686Y-101899500D01*
X145342683Y-101899502D01*
X145249502Y-101992683D01*
X145249500Y-101992686D01*
X145183608Y-102106812D01*
X145158505Y-102200499D01*
X145149500Y-102234108D01*
X139062501Y-102234108D01*
X139068716Y-102230520D01*
X139180520Y-102118716D01*
X139259577Y-101981784D01*
X139300500Y-101829057D01*
X139300500Y-101670943D01*
X139259577Y-101518216D01*
X139239885Y-101484108D01*
X141899500Y-101484108D01*
X141899500Y-101615892D01*
X141914251Y-101670943D01*
X141933608Y-101743187D01*
X141946717Y-101765892D01*
X141999500Y-101857314D01*
X142092686Y-101950500D01*
X142206814Y-102016392D01*
X142334108Y-102050500D01*
X142334110Y-102050500D01*
X142465890Y-102050500D01*
X142465892Y-102050500D01*
X142593186Y-102016392D01*
X142707314Y-101950500D01*
X142800500Y-101857314D01*
X142866392Y-101743186D01*
X142895619Y-101634108D01*
X148249500Y-101634108D01*
X148249500Y-101765891D01*
X148283608Y-101893187D01*
X148312476Y-101943186D01*
X148349500Y-102007314D01*
X148442686Y-102100500D01*
X148556814Y-102166392D01*
X148684108Y-102200500D01*
X148684110Y-102200500D01*
X148815890Y-102200500D01*
X148815892Y-102200500D01*
X148943186Y-102166392D01*
X149057314Y-102100500D01*
X149150500Y-102007314D01*
X149216392Y-101893186D01*
X149250500Y-101765892D01*
X149250500Y-101634108D01*
X149216392Y-101506814D01*
X149150500Y-101392686D01*
X149057314Y-101299500D01*
X148958910Y-101242686D01*
X148943187Y-101233608D01*
X148879539Y-101216554D01*
X148815892Y-101199500D01*
X148684108Y-101199500D01*
X148556812Y-101233608D01*
X148442686Y-101299500D01*
X148442683Y-101299502D01*
X148349502Y-101392683D01*
X148349500Y-101392686D01*
X148283608Y-101506812D01*
X148249500Y-101634108D01*
X142895619Y-101634108D01*
X142900500Y-101615892D01*
X142900500Y-101484108D01*
X142866392Y-101356814D01*
X142800500Y-101242686D01*
X142707314Y-101149500D01*
X142650250Y-101116554D01*
X142593187Y-101083608D01*
X142529539Y-101066554D01*
X142465892Y-101049500D01*
X142334108Y-101049500D01*
X142206812Y-101083608D01*
X142092686Y-101149500D01*
X142092683Y-101149502D01*
X141999502Y-101242683D01*
X141999500Y-101242686D01*
X141933608Y-101356812D01*
X141922170Y-101399500D01*
X141899500Y-101484108D01*
X139239885Y-101484108D01*
X139215970Y-101442686D01*
X139180524Y-101381290D01*
X139180518Y-101381282D01*
X139068717Y-101269481D01*
X139068709Y-101269475D01*
X138931790Y-101190426D01*
X138931786Y-101190424D01*
X138931784Y-101190423D01*
X138779057Y-101149500D01*
X138620943Y-101149500D01*
X138468216Y-101190423D01*
X138468209Y-101190426D01*
X138331290Y-101269475D01*
X138331282Y-101269481D01*
X138219481Y-101381282D01*
X138219475Y-101381290D01*
X138140426Y-101518209D01*
X138140423Y-101518216D01*
X138099500Y-101670943D01*
X131998736Y-101670943D01*
X131962984Y-101537515D01*
X131932149Y-101484108D01*
X131890511Y-101411988D01*
X131890506Y-101411982D01*
X131788017Y-101309493D01*
X131788011Y-101309488D01*
X131662488Y-101237017D01*
X131662489Y-101237017D01*
X131649766Y-101233608D01*
X131522475Y-101199500D01*
X131377525Y-101199500D01*
X131250234Y-101233608D01*
X131237511Y-101237017D01*
X131111988Y-101309488D01*
X131111982Y-101309493D01*
X131058295Y-101363181D01*
X130996972Y-101396666D01*
X130970614Y-101399500D01*
X107629386Y-101399500D01*
X107562347Y-101379815D01*
X107541705Y-101363181D01*
X107488017Y-101309493D01*
X107488011Y-101309488D01*
X107362488Y-101237017D01*
X107362489Y-101237017D01*
X107349766Y-101233608D01*
X107222475Y-101199500D01*
X107077525Y-101199500D01*
X106950234Y-101233608D01*
X106937511Y-101237017D01*
X106811988Y-101309488D01*
X106811982Y-101309493D01*
X106709493Y-101411982D01*
X106709488Y-101411988D01*
X106637017Y-101537511D01*
X106637016Y-101537515D01*
X106599500Y-101677525D01*
X101798736Y-101677525D01*
X101766392Y-101556814D01*
X101700500Y-101442686D01*
X101607314Y-101349500D01*
X101538017Y-101309491D01*
X101493187Y-101283608D01*
X101429539Y-101266554D01*
X101365892Y-101249500D01*
X101234108Y-101249500D01*
X101106812Y-101283608D01*
X100992686Y-101349500D01*
X100992683Y-101349502D01*
X100899502Y-101442683D01*
X100899500Y-101442686D01*
X100833608Y-101556812D01*
X100803027Y-101670945D01*
X100799500Y-101684108D01*
X100500500Y-101684108D01*
X100500500Y-100624500D01*
X100520185Y-100557461D01*
X100572989Y-100511706D01*
X100624500Y-100500500D01*
X150375500Y-100500500D01*
X150442539Y-100520185D01*
G37*
%TD.AperFunction*%
%TD*%
M02*
