M48
; DRILL file {KiCad 9.0.6} date 2025-12-17T11:16:15-0500
; FORMAT={-:-/ absolute / inch / decimal}
; #@! TF.CreationDate,2025-12-17T11:16:15-05:00
; #@! TF.GenerationSoftware,Kicad,Pcbnew,9.0.6
; #@! TF.FileFunction,Plated,1,4,PTH
FMAT,2
INCH
; #@! TA.AperFunction,Plated,PTH,ViaDrill
T1C0.0118
; #@! TA.AperFunction,Plated,PTH,ViaDrill
T2C0.0157
; #@! TA.AperFunction,Plated,PTH,ComponentDrill
T3C0.0319
; #@! TA.AperFunction,Plated,PTH,ComponentDrill
T4C0.0394
; #@! TA.AperFunction,Plated,PTH,ComponentDrill
T5C0.0433
; #@! TA.AperFunction,Plated,PTH,ComponentDrill
T6C0.0480
; #@! TA.AperFunction,Plated,PTH,ComponentDrill
T7C0.0559
; #@! TA.AperFunction,Plated,PTH,ComponentDrill
T8C0.0563
; #@! TA.AperFunction,Plated,PTH,ComponentDrill
T9C0.0827
; #@! TA.AperFunction,Plated,PTH,ComponentDrill
T10C0.0866
%
G90
G05
T1
X4.1969Y-7.8661
X4.2045Y-6.4211
X4.2099Y-6.248
X4.2402Y-7.4055
X4.252Y-6.8071
X4.2835Y-7.7913
X4.2862Y-7.8925
X4.3386Y-5.5669
X4.3504Y-5.4449
X4.3701Y-5.5394
X4.403Y-7.7749
X4.4094Y-5.1575
X4.4094Y-5.2362
X4.4094Y-5.5157
X4.437Y-8.0354
X4.4685Y-5.0906
X4.5315Y-5.7244
X4.5394Y-5.8858
X4.5709Y-5.0315
X4.5748Y-7.8937
X4.5787Y-7.811
X4.6339Y-5.9252
X4.6575Y-6.5157
X4.7657Y-4.8366
X4.7736Y-5.8762
X4.8307Y-5.0587
X4.8583Y-5.3465
X4.8622Y-5.8465
X4.8622Y-6.0472
X4.8819Y-6.122
X4.888Y-5.1159
X4.8898Y-7.9528
X4.8917Y-4.9685
X4.8935Y-4.6431
X4.9291Y-6.7598
X4.9764Y-5.9476
X4.9921Y-4.7815
X4.9921Y-4.8642
X5.0233Y-4.6496
X5.0394Y-6.4313
X5.0413Y-4.9665
X5.0449Y-6.3795
X5.0827Y-5.8706
X5.0888Y-6.0967
X5.0925Y-4.9646
X5.1149Y-5.4882
X5.1409Y-4.5402
X5.1693Y-5.7283
X5.1929Y-6.1063
X5.2283Y-6.374
X5.2382Y-6.0689
X5.248Y-5.6747
X5.2559Y-5.3465
X5.2638Y-5.6125
X5.2638Y-5.9055
X5.2677Y-6.8228
X5.2881Y-6.7727
X5.3672Y-6.533
X5.3732Y-5.417
X5.376Y-6.4321
X5.378Y-5.3819
X5.3839Y-6.1339
X5.3878Y-6.2028
X5.3878Y-6.2972
X5.4616Y-5.8846
X5.4724Y-4.8819
X5.5236Y-6.3228
X5.5236Y-6.5236
X5.5748Y-6.626
X5.5866Y-7.3583
X5.5994Y-6.3457
X5.6102Y-5.6949
X5.6299Y-6.7018
X5.6594Y-6.1752
X5.6693Y-6.6496
X5.7087Y-7.1575
X5.7345Y-6.4053
X5.7699Y-6.4116
X5.811Y-5.126
X5.8228Y-5.9094
T2
X4.0374Y-6.0276
X4.0413Y-5.437
X4.0413Y-5.8858
X4.0453Y-8.2165
X4.0472Y-5.0512
X4.0512Y-5.2402
X4.0531Y-6.8622
X4.0551Y-4.8858
X4.0669Y-8.3819
X4.0709Y-6.3898
X4.0728Y-6.561
X4.0925Y-7.5984
X4.1063Y-7.872
X4.1457Y-4.4862
X4.1575Y-5.8681
X4.1811Y-7.2244
X4.1988Y-5.5984
X4.2067Y-4.7638
X4.2126Y-4.8622
X4.2362Y-5.5177
X4.2441Y-4.5512
X4.2539Y-4.4094
X4.2638Y-6.5925
X4.2717Y-7.6457
X4.2894Y-4.6949
X4.2953Y-6.502
X4.3287Y-7.3012
X4.3386Y-5.7598
X4.3612Y-7.0797
X4.376Y-6.3622
X4.3799Y-8.4705
X4.3898Y-7.5787
X4.3917Y-4.5669
X4.4055Y-5.8819
X4.4173Y-6.252
X4.4319Y-7.6681
X4.4626Y-7.4843
X4.4862Y-6.3307
X4.5039Y-8.4646
X4.5079Y-6.1831
X4.5118Y-5.4961
X4.5217Y-4.8543
X4.5315Y-7.4016
X4.5413Y-8.1201
X4.5906Y-6.8248
X4.6142Y-4.7224
X4.6181Y-4.6161
X4.622Y-5.315
X4.6378Y-6.1772
X4.6496Y-6.8937
X4.6575Y-5.565
X4.6969Y-4.9882
X4.7165Y-7.372
X4.7283Y-7.0492
X4.7441Y-6.3819
X4.752Y-5.3819
X4.7913Y-6.7598
X4.7933Y-7.7657
X4.8091Y-7.5906
X4.8248Y-7.4409
X4.8484Y-8.1732
X4.8504Y-8.3799
X4.8602Y-8.4783
X4.8878Y-7.5138
X4.9154Y-8.25
X4.9272Y-7.1772
X4.9311Y-6.811
X4.935Y-6.2756
X4.9567Y-7.689
X4.9724Y-6.1614
X4.9803Y-5.2067
X4.9882Y-8.1693
X5.002Y-8.4154
X5.0118Y-7.4902
X5.0157Y-8.0374
X5.0335Y-7.9055
X5.0413Y-8.248
X5.0455Y-6.0947
X5.0492Y-6.7972
X5.0531Y-7.6339
X5.0591Y-7.7992
X5.0925Y-7.4331
X5.124Y-6.6949
X5.1772Y-5.4626
X5.1969Y-7.1614
X5.2023Y-4.6909
X5.2205Y-8.1713
X5.2362Y-6.4724
X5.252Y-4.9469
X5.3268Y-6.689
X5.3307Y-7.9843
X5.3357Y-6.5974
X5.3406Y-4.5709
X5.3406Y-4.7323
X5.3563Y-8.4193
X5.3701Y-6.0118
X5.372Y-8.5236
X5.376Y-7.6929
X5.3799Y-5.2146
X5.3799Y-7.4882
X5.4075Y-7.8504
X5.4134Y-6.3897
X5.437Y-5.9173
X5.4508Y-6.0433
X5.4606Y-7.6575
X5.4685Y-8.0433
X5.4921Y-8.4705
X5.5138Y-5.2756
X5.5197Y-7.8504
X5.5217Y-7.5531
X5.5256Y-4.4291
X5.5413Y-8.1516
X5.5512Y-5.9291
X5.563Y-5.4173
X5.565Y-6.8858
X5.565Y-7.7795
X5.5866Y-7.1535
X5.6083Y-4.5827
X5.6181Y-4.4921
X5.6181Y-4.8484
X5.6378Y-4.7185
X5.6417Y-7.252
X5.6496Y-6.4331
X5.6693Y-5.3681
X5.6909Y-5.5335
X5.7362Y-4.8642
X5.748Y-4.498
X5.7657Y-5.4272
X5.7854Y-4.3957
X5.7894Y-8.126
X5.8091Y-6.1043
X5.8091Y-7.9154
X5.813Y-7.7028
X5.8287Y-6.9843
X5.8346Y-7.4783
T3
X4.0559Y-7.1992
X4.0559Y-7.3492
X4.4559Y-7.2244
X4.4559Y-7.324
X5.4071Y-7.2177
X5.4071Y-7.3173
X5.8071Y-7.1925
X5.8071Y-7.3425
T4
X4.1535Y-5.0197
X4.1535Y-5.1181
X4.1535Y-6.0236
X4.1535Y-6.122
X4.252Y-5.0197
X4.252Y-5.1181
X4.252Y-6.0236
X4.252Y-6.122
X4.3504Y-5.0197
X4.3504Y-5.1181
X4.3504Y-6.0236
X4.3504Y-6.122
X4.4406Y-4.4291
X4.5406Y-4.4291
X4.6406Y-4.4291
X4.7406Y-4.4291
X4.8327Y-5.5217
X4.8327Y-5.6201
X4.8327Y-6.5256
X4.8327Y-6.624
X4.8406Y-4.4291
X4.9311Y-5.5217
X4.9311Y-5.6201
X4.9311Y-6.5256
X4.9311Y-6.624
X4.9406Y-4.4291
X5.0295Y-5.5217
X5.0295Y-5.6201
X5.0295Y-6.5256
X5.0295Y-6.624
X5.0406Y-4.4291
X5.1406Y-4.4291
X5.2406Y-4.4291
X5.3406Y-4.4291
X5.5118Y-5.0197
X5.5118Y-5.1181
X5.5118Y-6.0236
X5.5118Y-6.122
X5.6102Y-5.0197
X5.6102Y-5.1181
X5.6102Y-6.0236
X5.6102Y-6.122
X5.7087Y-5.0197
X5.7087Y-5.1181
X5.7087Y-6.0236
X5.7087Y-6.122
T5
X4.1535Y-6.9882
X4.252Y-6.9882
X4.3504Y-6.9882
X4.5866Y-7.2717
X4.685Y-7.2717
X4.7835Y-7.2717
X5.0787Y-7.2717
X5.1772Y-7.2717
X5.2756Y-7.2717
X5.5118Y-6.9882
X5.6102Y-6.9882
X5.7087Y-6.9882
T6
X4.1929Y-7.5008
X4.1929Y-8.5228
X4.685Y-7.5008
X4.685Y-8.5228
X5.1772Y-7.5008
X5.1772Y-8.5228
X5.6693Y-7.5008
X5.6693Y-8.5228
T7
X4.1929Y-7.6228
X4.1929Y-8.4008
X4.685Y-7.6228
X4.685Y-8.4008
X5.1772Y-7.6228
X5.1772Y-8.4008
X5.6693Y-7.6228
X5.6693Y-8.4008
T8
X4.1929Y-7.9496
X4.1929Y-8.074
X4.685Y-7.9496
X4.685Y-8.074
X5.1772Y-7.9496
X5.1772Y-8.074
X5.6693Y-7.9496
X5.6693Y-8.074
T9
X4.0748Y-6.7126
X4.4291Y-6.7126
X4.5079Y-6.9961
X4.8622Y-6.9961
X5.0Y-6.9961
X5.3543Y-6.9961
X5.4331Y-6.7126
X5.7874Y-6.7126
T10
X4.439Y-8.2677
X5.4232Y-8.2677
T5
G00X4.065Y-4.7382
M15
G01X4.065Y-4.7106
M16
G05
G00X4.065Y-5.7421
M15
G01X4.065Y-5.7146
M16
G05
G00X4.439Y-4.7382
M15
G01X4.439Y-4.7106
M16
G05
G00X4.439Y-5.7421
M15
G01X4.439Y-5.7146
M16
G05
G00X4.7441Y-5.2402
M15
G01X4.7441Y-5.2126
M16
G05
G00X4.7441Y-6.2441
M15
G01X4.7441Y-6.2165
M16
G05
G00X5.1181Y-5.2402
M15
G01X5.1181Y-5.2126
M16
G05
G00X5.1181Y-6.2441
M15
G01X5.1181Y-6.2165
M16
G05
G00X5.4232Y-4.7382
M15
G01X5.4232Y-4.7106
M16
G05
G00X5.4232Y-5.7421
M15
G01X5.4232Y-5.7146
M16
G05
G00X5.7972Y-4.7382
M15
G01X5.7972Y-4.7106
M16
G05
G00X5.7972Y-5.7421
M15
G01X5.7972Y-5.7146
M16
G05
M30
