%TF.GenerationSoftware,KiCad,Pcbnew,9.0.6*%
%TF.CreationDate,2025-12-17T11:16:15-05:00*%
%TF.ProjectId,lichen-crustose-control-board,6c696368-656e-42d6-9372-7573746f7365,1.0*%
%TF.SameCoordinates,Original*%
%TF.FileFunction,Legend,Bot*%
%TF.FilePolarity,Positive*%
%FSLAX46Y46*%
G04 Gerber Fmt 4.6, Leading zero omitted, Abs format (unit mm)*
G04 Created by KiCad (PCBNEW 9.0.6) date 2025-12-17 11:16:15*
%MOMM*%
%LPD*%
G01*
G04 APERTURE LIST*
G04 Aperture macros list*
%AMRoundRect*
0 Rectangle with rounded corners*
0 $1 Rounding radius*
0 $2 $3 $4 $5 $6 $7 $8 $9 X,Y pos of 4 corners*
0 Add a 4 corners polygon primitive as box body*
4,1,4,$2,$3,$4,$5,$6,$7,$8,$9,$2,$3,0*
0 Add four circle primitives for the rounded corners*
1,1,$1+$1,$2,$3*
1,1,$1+$1,$4,$5*
1,1,$1+$1,$6,$7*
1,1,$1+$1,$8,$9*
0 Add four rect primitives between the rounded corners*
20,1,$1+$1,$2,$3,$4,$5,0*
20,1,$1+$1,$4,$5,$6,$7,0*
20,1,$1+$1,$6,$7,$8,$9,0*
20,1,$1+$1,$8,$9,$2,$3,0*%
G04 Aperture macros list end*
%ADD10C,0.550000*%
%ADD11C,0.300000*%
%ADD12C,0.250000*%
%ADD13C,0.150000*%
%ADD14C,0.120000*%
%ADD15C,0.125000*%
%ADD16RoundRect,0.076200X-0.825000X0.825000X-0.825000X-0.825000X0.825000X-0.825000X0.825000X0.825000X0*%
%ADD17C,1.802400*%
%ADD18RoundRect,0.076200X-1.558000X1.558000X-1.558000X-1.558000X1.558000X-1.558000X1.558000X1.558000X0*%
%ADD19O,2.720000X3.240000*%
%ADD20R,1.800000X1.800000*%
%ADD21C,1.800000*%
%ADD22R,1.930000X1.830000*%
%ADD23C,2.130000*%
%ADD24R,1.000000X1.000000*%
%ADD25RoundRect,0.150000X0.825000X0.150000X-0.825000X0.150000X-0.825000X-0.150000X0.825000X-0.150000X0*%
%ADD26RoundRect,0.249630X0.895370X0.535370X-0.895370X0.535370X-0.895370X-0.535370X0.895370X-0.535370X0*%
%ADD27O,2.290000X1.570000*%
%ADD28R,2.700000X1.070000*%
%ADD29RoundRect,0.249630X-0.895370X-0.535370X0.895370X-0.535370X0.895370X0.535370X-0.895370X0.535370X0*%
%ADD30C,4.400000*%
%ADD31RoundRect,0.150000X-0.150000X0.825000X-0.150000X-0.825000X0.150000X-0.825000X0.150000X0.825000X0*%
%ADD32R,1.700000X1.700000*%
%ADD33C,1.700000*%
G04 APERTURE END LIST*
D10*
X135925000Y-114700000D02*
G75*
G02*
X135375000Y-114700000I-275000J0D01*
G01*
X135375000Y-114700000D02*
G75*
G02*
X135925000Y-114700000I275000J0D01*
G01*
D11*
G36*
X102089063Y-192355582D02*
G01*
X103939935Y-192355582D01*
X103939935Y-193098569D01*
X104467500Y-193098569D01*
X104467500Y-191740090D01*
X102089063Y-191740090D01*
X102089063Y-192355582D01*
G37*
G36*
X102849635Y-193933880D02*
G01*
X104467500Y-193933880D01*
X104467500Y-193362351D01*
X102849635Y-193362351D01*
X102849635Y-193933880D01*
G37*
G36*
X102229747Y-193327180D02*
G01*
X102165333Y-193333531D01*
X102105549Y-193352322D01*
X102050714Y-193382354D01*
X102003196Y-193421565D01*
X101963907Y-193469098D01*
X101933953Y-193523918D01*
X101915156Y-193583802D01*
X101908811Y-193648115D01*
X101915162Y-193712529D01*
X101933953Y-193772313D01*
X101963913Y-193827108D01*
X102003196Y-193874529D01*
X102050729Y-193913818D01*
X102105549Y-193943771D01*
X102165340Y-193962666D01*
X102229747Y-193969051D01*
X102294173Y-193962669D01*
X102354081Y-193943771D01*
X102408786Y-193913826D01*
X102456297Y-193874529D01*
X102495501Y-193827123D01*
X102525540Y-193772313D01*
X102544331Y-193712529D01*
X102550682Y-193648115D01*
X102544337Y-193583802D01*
X102525540Y-193523918D01*
X102495508Y-193469083D01*
X102456297Y-193421565D01*
X102408801Y-193382346D01*
X102354081Y-193352322D01*
X102294179Y-193333528D01*
X102229747Y-193327180D01*
G37*
G36*
X103373078Y-195545150D02*
G01*
X103315329Y-195442243D01*
X103282394Y-195342462D01*
X103271687Y-195243861D01*
X103278923Y-195163425D01*
X103300126Y-195089988D01*
X103334642Y-195022856D01*
X103380909Y-194964691D01*
X103437763Y-194916900D01*
X103504557Y-194880611D01*
X103578866Y-194858302D01*
X103664612Y-194850523D01*
X103747481Y-194858229D01*
X103821370Y-194880611D01*
X103888248Y-194916598D01*
X103944881Y-194963180D01*
X103990902Y-195020212D01*
X104025664Y-195088339D01*
X104047005Y-195163201D01*
X104054241Y-195243861D01*
X104042222Y-195347944D01*
X104005973Y-195447619D01*
X103943370Y-195545150D01*
X104428894Y-195545150D01*
X104481045Y-195401954D01*
X104510733Y-195269003D01*
X104520256Y-195144530D01*
X104505116Y-194971551D01*
X104460218Y-194808620D01*
X104386830Y-194658348D01*
X104287935Y-194527939D01*
X104165204Y-194419206D01*
X104019070Y-194333949D01*
X103912484Y-194294180D01*
X103796573Y-194269792D01*
X103669696Y-194261409D01*
X103542482Y-194269405D01*
X103425411Y-194292721D01*
X103317024Y-194330789D01*
X103167683Y-194413297D01*
X103041976Y-194519971D01*
X102939936Y-194650166D01*
X102861725Y-194805460D01*
X102813330Y-194975681D01*
X102796878Y-195160192D01*
X102806932Y-195296915D01*
X102836523Y-195424675D01*
X102885493Y-195545150D01*
X103373078Y-195545150D01*
G37*
G36*
X101847262Y-195945219D02*
G01*
X101847262Y-196516748D01*
X103055715Y-196516748D01*
X102966151Y-196599784D01*
X102903720Y-196678160D01*
X102863648Y-196752915D01*
X102827444Y-196879111D01*
X102814464Y-197033459D01*
X102826481Y-197185839D01*
X102859918Y-197310246D01*
X102912315Y-197411958D01*
X102983312Y-197494940D01*
X103071690Y-197561211D01*
X103175068Y-197609706D01*
X103296321Y-197640217D01*
X103439161Y-197651011D01*
X104467500Y-197651011D01*
X104467500Y-197079483D01*
X103652385Y-197079483D01*
X103535621Y-197074158D01*
X103454273Y-197060524D01*
X103385452Y-197034336D01*
X103337769Y-196997601D01*
X103301228Y-196944169D01*
X103279257Y-196884099D01*
X103271687Y-196815426D01*
X103282202Y-196722787D01*
X103311399Y-196650454D01*
X103358240Y-196593684D01*
X103420340Y-196552735D01*
X103500914Y-196526389D01*
X103605261Y-196516748D01*
X104467500Y-196516748D01*
X104467500Y-195945219D01*
X101847262Y-195945219D01*
G37*
G36*
X103795725Y-197981837D02*
G01*
X103913120Y-198004123D01*
X104020306Y-198040228D01*
X104167741Y-198120532D01*
X104292057Y-198227623D01*
X104391775Y-198359504D01*
X104467362Y-198518883D01*
X104513159Y-198694870D01*
X104529049Y-198893673D01*
X104515826Y-199087702D01*
X104478801Y-199249865D01*
X104420750Y-199385495D01*
X104342730Y-199498899D01*
X104244005Y-199593097D01*
X104122109Y-199669605D01*
X103973045Y-199728297D01*
X103973045Y-199179025D01*
X104039865Y-199125739D01*
X104086310Y-199062857D01*
X104114645Y-198988598D01*
X104124583Y-198899718D01*
X104113282Y-198789493D01*
X104082477Y-198705925D01*
X104034288Y-198642697D01*
X103967273Y-198596117D01*
X103876708Y-198565742D01*
X103755287Y-198554466D01*
X103755287Y-199750279D01*
X103695249Y-199750279D01*
X103490134Y-199734670D01*
X103314414Y-199690378D01*
X103205696Y-199643675D01*
X103110855Y-199585979D01*
X103028375Y-199517271D01*
X102957153Y-199436959D01*
X102897687Y-199345045D01*
X102849772Y-199240162D01*
X102804117Y-199069763D01*
X102789587Y-198890239D01*
X103157381Y-198890239D01*
X103165754Y-198971346D01*
X103189898Y-199041703D01*
X103229646Y-199103600D01*
X103282544Y-199155205D01*
X103345759Y-199193811D01*
X103421163Y-199219829D01*
X103421163Y-198570128D01*
X103341399Y-198592507D01*
X103277458Y-198627594D01*
X103226486Y-198675229D01*
X103188995Y-198734196D01*
X103165656Y-198804860D01*
X103157381Y-198890239D01*
X102789587Y-198890239D01*
X102788086Y-198871691D01*
X102804144Y-198670629D01*
X102849772Y-198498412D01*
X102925231Y-198343954D01*
X103025078Y-198216632D01*
X103105519Y-198145532D01*
X103197234Y-198085742D01*
X103301499Y-198037068D01*
X103411618Y-198002768D01*
X103532768Y-197981503D01*
X103666536Y-197974145D01*
X103795725Y-197981837D01*
G37*
G36*
X102849635Y-200073412D02*
G01*
X102849635Y-200644940D01*
X103054616Y-200644940D01*
X102965516Y-200727946D01*
X102903389Y-200806323D01*
X102863511Y-200881108D01*
X102827409Y-201007296D01*
X102814464Y-201161651D01*
X102829144Y-201324064D01*
X102869693Y-201453048D01*
X102936452Y-201565414D01*
X103025902Y-201659403D01*
X103113017Y-201717907D01*
X103208901Y-201753925D01*
X103313610Y-201772519D01*
X103439161Y-201779204D01*
X104467500Y-201779204D01*
X104467500Y-201207676D01*
X103650599Y-201207676D01*
X103536509Y-201202779D01*
X103456746Y-201190228D01*
X103388575Y-201165468D01*
X103338456Y-201128953D01*
X103305948Y-201088551D01*
X103284876Y-201044048D01*
X103269076Y-200943619D01*
X103279620Y-200851002D01*
X103308902Y-200778668D01*
X103355905Y-200721877D01*
X103418093Y-200680933D01*
X103498801Y-200654584D01*
X103603338Y-200644940D01*
X104467500Y-200644940D01*
X104467500Y-200073412D01*
X102849635Y-200073412D01*
G37*
G36*
X102884119Y-204997348D02*
G01*
X102766373Y-204880508D01*
X102685533Y-204754942D01*
X102637407Y-204618385D01*
X102621024Y-204467173D01*
X102633935Y-204332229D01*
X102671719Y-204209985D01*
X102732004Y-204099305D01*
X102809655Y-204006516D01*
X102904394Y-203930929D01*
X103017384Y-203872426D01*
X103141406Y-203835959D01*
X103277319Y-203823517D01*
X103415882Y-203836022D01*
X103540415Y-203872426D01*
X103653590Y-203931162D01*
X103749792Y-204008027D01*
X103828827Y-204102012D01*
X103889239Y-204211496D01*
X103927062Y-204332028D01*
X103939935Y-204464013D01*
X103924700Y-204605862D01*
X103879089Y-204740282D01*
X103801153Y-204870127D01*
X103686319Y-204997348D01*
X104418315Y-204997348D01*
X104440297Y-204934562D01*
X104484881Y-204794409D01*
X104514211Y-204670093D01*
X104531995Y-204547532D01*
X104537841Y-204427743D01*
X104527438Y-204266011D01*
X104496449Y-204109643D01*
X104444693Y-203957331D01*
X104373836Y-203812812D01*
X104286612Y-203681018D01*
X104182422Y-203560833D01*
X104063634Y-203454785D01*
X103930365Y-203363107D01*
X103781253Y-203285511D01*
X103623534Y-203228320D01*
X103455164Y-203193519D01*
X103274159Y-203181646D01*
X103093112Y-203193384D01*
X102925825Y-203227686D01*
X102770225Y-203283862D01*
X102623255Y-203360567D01*
X102492097Y-203451724D01*
X102375376Y-203557674D01*
X102273185Y-203677720D01*
X102187012Y-203809998D01*
X102116403Y-203955683D01*
X102064613Y-204109100D01*
X102033557Y-204267066D01*
X102023117Y-204430903D01*
X102030625Y-204571531D01*
X102053067Y-204709385D01*
X102090234Y-204846987D01*
X102145803Y-204997348D01*
X102884119Y-204997348D01*
G37*
G36*
X102849635Y-205333670D02*
G01*
X102849635Y-205905198D01*
X103116302Y-205905198D01*
X103024704Y-205971976D01*
X102950665Y-206046251D01*
X102892362Y-206128452D01*
X102849797Y-206219461D01*
X102823570Y-206321508D01*
X102814464Y-206436885D01*
X102814464Y-206485657D01*
X102820921Y-206547069D01*
X103369781Y-206547069D01*
X103327475Y-206429654D01*
X103313177Y-206301559D01*
X103327686Y-206174730D01*
X103367600Y-206078048D01*
X103431192Y-206004254D01*
X103515518Y-205952026D01*
X103627621Y-205917852D01*
X103775621Y-205905198D01*
X104467500Y-205905198D01*
X104467500Y-205333670D01*
X102849635Y-205333670D01*
G37*
G36*
X102849635Y-207371388D02*
G01*
X103762844Y-207371388D01*
X103877271Y-207384596D01*
X103958054Y-207419841D01*
X104014204Y-207474696D01*
X104049802Y-207552502D01*
X104063033Y-207661549D01*
X104049802Y-207770596D01*
X104014204Y-207848402D01*
X103958054Y-207903257D01*
X103877271Y-207938501D01*
X103762844Y-207951709D01*
X102849635Y-207951709D01*
X102849635Y-208523238D01*
X103872341Y-208523238D01*
X104033633Y-208508293D01*
X104165893Y-208466389D01*
X104274988Y-208399638D01*
X104364872Y-208306991D01*
X104431486Y-208196719D01*
X104482868Y-208056909D01*
X104516685Y-207881074D01*
X104529049Y-207661549D01*
X104516685Y-207442024D01*
X104482868Y-207266189D01*
X104431486Y-207126379D01*
X104364872Y-207016107D01*
X104274988Y-206923460D01*
X104165893Y-206856709D01*
X104033633Y-206814804D01*
X103872341Y-206799860D01*
X102849635Y-206799860D01*
X102849635Y-207371388D01*
G37*
G36*
X103265916Y-209981459D02*
G01*
X103219238Y-209873925D01*
X103192450Y-209771180D01*
X103183759Y-209671790D01*
X103192289Y-209597785D01*
X103215358Y-209543745D01*
X103252955Y-209506797D01*
X103300675Y-209494836D01*
X103346425Y-209502667D01*
X103379535Y-209537425D01*
X103408111Y-209616423D01*
X103439710Y-209753809D01*
X103482688Y-209907086D01*
X103539586Y-210022542D01*
X103608558Y-210107717D01*
X103695690Y-210171906D01*
X103797931Y-210210968D01*
X103919602Y-210224633D01*
X104056318Y-210210053D01*
X104175278Y-210167893D01*
X104279838Y-210100114D01*
X104366383Y-210010173D01*
X104433892Y-209901379D01*
X104486321Y-209767411D01*
X104517992Y-209621228D01*
X104529049Y-209455406D01*
X104517913Y-209294968D01*
X104484244Y-209134708D01*
X104427044Y-208973233D01*
X104344538Y-208809276D01*
X103941996Y-209017005D01*
X104037707Y-209183200D01*
X104090413Y-209333744D01*
X104106997Y-209472716D01*
X104097697Y-209546805D01*
X104072101Y-209602409D01*
X104031664Y-209640884D01*
X103983349Y-209653105D01*
X103931005Y-209645137D01*
X103892949Y-209611889D01*
X103861350Y-209537563D01*
X103831125Y-209409519D01*
X103784170Y-209235034D01*
X103729970Y-209115764D01*
X103671069Y-209038025D01*
X103594158Y-208980722D01*
X103498209Y-208944934D01*
X103377749Y-208932100D01*
X103246317Y-208945094D01*
X103132102Y-208982521D01*
X103031162Y-209044012D01*
X102946767Y-209127601D01*
X102880431Y-209229942D01*
X102829439Y-209356075D01*
X102798833Y-209494732D01*
X102788086Y-209654204D01*
X102799645Y-209830686D01*
X102834280Y-210003602D01*
X102892500Y-210174350D01*
X103265916Y-209981459D01*
G37*
G36*
X103324443Y-211185240D02*
G01*
X104467500Y-211185240D01*
X104467500Y-210613712D01*
X103324443Y-210613712D01*
X103324443Y-210429064D01*
X102849635Y-210429064D01*
X102849635Y-210613712D01*
X102366034Y-210613712D01*
X102366034Y-211185240D01*
X102849635Y-211185240D01*
X102849635Y-211510572D01*
X103324443Y-211510572D01*
X103324443Y-211185240D01*
G37*
G36*
X103775522Y-211701392D02*
G01*
X103895610Y-211725744D01*
X104006155Y-211765424D01*
X104110131Y-211820178D01*
X104202997Y-211886623D01*
X104285737Y-211965184D01*
X104356886Y-212054400D01*
X104416907Y-212155133D01*
X104465851Y-212268671D01*
X104512844Y-212450361D01*
X104529049Y-212652667D01*
X104512880Y-212858239D01*
X104465851Y-213044356D01*
X104416871Y-213161190D01*
X104357311Y-213263972D01*
X104287248Y-213354163D01*
X104161189Y-213469198D01*
X104012475Y-213557083D01*
X103903954Y-213597784D01*
X103787048Y-213622629D01*
X103660216Y-213631134D01*
X103533222Y-213622807D01*
X103416261Y-213598499D01*
X103307819Y-213558731D01*
X103206152Y-213503850D01*
X103114860Y-213436412D01*
X103033046Y-213355811D01*
X102931223Y-213215028D01*
X102852932Y-213047516D01*
X102804669Y-212864447D01*
X102788097Y-212662146D01*
X103286799Y-212662146D01*
X103293957Y-212735719D01*
X103315238Y-212804891D01*
X103349448Y-212868048D01*
X103394373Y-212921120D01*
X103449008Y-212964895D01*
X103513075Y-212999705D01*
X103582855Y-213022027D01*
X103656919Y-213029518D01*
X103733842Y-213021949D01*
X103804060Y-212999705D01*
X103868127Y-212964895D01*
X103922762Y-212921120D01*
X103967687Y-212868048D01*
X104001896Y-212804891D01*
X104023177Y-212735719D01*
X104030335Y-212662146D01*
X104023180Y-212588554D01*
X104001896Y-212519264D01*
X103967701Y-212456197D01*
X103922762Y-212403035D01*
X103868142Y-212359339D01*
X103804060Y-212324450D01*
X103733430Y-212302280D01*
X103653759Y-212294637D01*
X103579931Y-212302166D01*
X103511564Y-212324450D01*
X103448754Y-212359249D01*
X103394373Y-212403035D01*
X103349433Y-212456197D01*
X103315238Y-212519264D01*
X103293954Y-212588554D01*
X103286799Y-212662146D01*
X102788097Y-212662146D01*
X102788086Y-212662009D01*
X102795732Y-212522732D01*
X102818051Y-212393651D01*
X102854443Y-212273480D01*
X102934087Y-212106171D01*
X103036206Y-211966695D01*
X103161800Y-211851901D01*
X103307819Y-211765424D01*
X103414086Y-211725378D01*
X103525823Y-211701210D01*
X103644279Y-211693021D01*
X103775522Y-211701392D01*
G37*
G36*
X103265916Y-215035088D02*
G01*
X103219238Y-214927553D01*
X103192450Y-214824809D01*
X103183759Y-214725418D01*
X103192289Y-214651414D01*
X103215358Y-214597374D01*
X103252955Y-214560425D01*
X103300675Y-214548464D01*
X103346425Y-214556295D01*
X103379535Y-214591054D01*
X103408111Y-214670051D01*
X103439710Y-214807438D01*
X103482688Y-214960715D01*
X103539586Y-215076171D01*
X103608558Y-215161346D01*
X103695690Y-215225535D01*
X103797931Y-215264597D01*
X103919602Y-215278262D01*
X104056318Y-215263681D01*
X104175278Y-215221521D01*
X104279838Y-215153742D01*
X104366383Y-215063801D01*
X104433892Y-214955008D01*
X104486321Y-214821039D01*
X104517992Y-214674856D01*
X104529049Y-214509034D01*
X104517913Y-214348597D01*
X104484244Y-214188337D01*
X104427044Y-214026861D01*
X104344538Y-213862905D01*
X103941996Y-214070634D01*
X104037707Y-214236829D01*
X104090413Y-214387373D01*
X104106997Y-214526345D01*
X104097697Y-214600433D01*
X104072101Y-214656038D01*
X104031664Y-214694512D01*
X103983349Y-214706734D01*
X103931005Y-214698765D01*
X103892949Y-214665518D01*
X103861350Y-214591192D01*
X103831125Y-214463147D01*
X103784170Y-214288662D01*
X103729970Y-214169393D01*
X103671069Y-214091654D01*
X103594158Y-214034351D01*
X103498209Y-213998562D01*
X103377749Y-213985729D01*
X103246317Y-213998723D01*
X103132102Y-214036150D01*
X103031162Y-214097641D01*
X102946767Y-214181230D01*
X102880431Y-214283570D01*
X102829439Y-214409704D01*
X102798833Y-214548361D01*
X102788086Y-214707833D01*
X102799645Y-214884314D01*
X102834280Y-215057231D01*
X102892500Y-215227978D01*
X103265916Y-215035088D01*
G37*
G36*
X103795725Y-215507971D02*
G01*
X103913120Y-215530257D01*
X104020306Y-215566362D01*
X104167741Y-215646666D01*
X104292057Y-215753757D01*
X104391775Y-215885638D01*
X104467362Y-216045017D01*
X104513159Y-216221004D01*
X104529049Y-216419807D01*
X104515826Y-216613836D01*
X104478801Y-216775999D01*
X104420750Y-216911629D01*
X104342730Y-217025033D01*
X104244005Y-217119231D01*
X104122109Y-217195739D01*
X103973045Y-217254431D01*
X103973045Y-216705159D01*
X104039865Y-216651873D01*
X104086310Y-216588991D01*
X104114645Y-216514732D01*
X104124583Y-216425852D01*
X104113282Y-216315627D01*
X104082477Y-216232059D01*
X104034288Y-216168831D01*
X103967273Y-216122251D01*
X103876708Y-216091876D01*
X103755287Y-216080600D01*
X103755287Y-217276413D01*
X103695249Y-217276413D01*
X103490134Y-217260804D01*
X103314414Y-217216512D01*
X103205696Y-217169809D01*
X103110855Y-217112113D01*
X103028375Y-217043405D01*
X102957153Y-216963093D01*
X102897687Y-216871179D01*
X102849772Y-216766296D01*
X102804117Y-216595897D01*
X102789587Y-216416373D01*
X103157381Y-216416373D01*
X103165754Y-216497480D01*
X103189898Y-216567837D01*
X103229646Y-216629734D01*
X103282544Y-216681339D01*
X103345759Y-216719945D01*
X103421163Y-216745963D01*
X103421163Y-216096262D01*
X103341399Y-216118641D01*
X103277458Y-216153728D01*
X103226486Y-216201363D01*
X103188995Y-216260330D01*
X103165656Y-216330994D01*
X103157381Y-216416373D01*
X102789587Y-216416373D01*
X102788086Y-216397825D01*
X102804144Y-216196763D01*
X102849772Y-216024546D01*
X102925231Y-215870088D01*
X103025078Y-215742766D01*
X103105519Y-215671666D01*
X103197234Y-215611876D01*
X103301499Y-215563202D01*
X103411618Y-215528902D01*
X103532768Y-215507637D01*
X103666536Y-215500279D01*
X103795725Y-215507971D01*
G37*
G36*
X146677518Y-188425764D02*
G01*
X147267316Y-188699121D01*
X146677518Y-188976874D01*
X146677518Y-189429309D01*
X147828000Y-188831207D01*
X147828000Y-188560195D01*
X146677518Y-187968835D01*
X146677518Y-188425764D01*
G37*
G36*
X146508697Y-190022819D02*
G01*
X146508697Y-189775841D01*
X146133540Y-189775841D01*
X146133540Y-190460502D01*
X147828000Y-190460502D01*
X147828000Y-190022819D01*
X146508697Y-190022819D01*
G37*
G36*
X147615313Y-190971654D02*
G01*
X147562783Y-190976742D01*
X147513317Y-190991877D01*
X147467996Y-191016115D01*
X147429200Y-191047955D01*
X147397272Y-191086823D01*
X147373024Y-191132072D01*
X147357893Y-191181565D01*
X147352801Y-191234264D01*
X147357893Y-191286963D01*
X147373024Y-191336455D01*
X147397282Y-191381769D01*
X147429200Y-191420572D01*
X147468007Y-191452468D01*
X147513317Y-191476650D01*
X147562783Y-191491785D01*
X147615313Y-191496874D01*
X147668012Y-191491781D01*
X147717504Y-191476650D01*
X147762832Y-191452473D01*
X147801719Y-191420572D01*
X147833559Y-191381776D01*
X147857797Y-191336455D01*
X147872928Y-191286963D01*
X147878020Y-191234264D01*
X147872928Y-191181565D01*
X147857797Y-191132072D01*
X147833569Y-191086816D01*
X147801719Y-191047955D01*
X147762843Y-191016111D01*
X147717504Y-190991877D01*
X147668012Y-190976747D01*
X147615313Y-190971654D01*
G37*
G36*
X147116602Y-191664034D02*
G01*
X147238452Y-191681822D01*
X147349577Y-191710440D01*
X147456598Y-191751318D01*
X147550372Y-191800704D01*
X147632312Y-191858353D01*
X147705402Y-191926401D01*
X147765726Y-192001646D01*
X147814127Y-192084717D01*
X147849272Y-192174076D01*
X147870691Y-192270347D01*
X147878020Y-192374878D01*
X147870742Y-192477922D01*
X147849370Y-192573841D01*
X147814127Y-192663866D01*
X147765615Y-192747619D01*
X147705276Y-192822839D01*
X147632312Y-192890230D01*
X147550443Y-192947249D01*
X147456671Y-192996283D01*
X147349577Y-193037069D01*
X147238447Y-193065740D01*
X147116599Y-193083561D01*
X146982724Y-193089728D01*
X146848849Y-193083561D01*
X146727000Y-193065740D01*
X146615871Y-193037069D01*
X146508806Y-192996235D01*
X146415448Y-192947195D01*
X146334308Y-192890230D01*
X146262074Y-192822909D01*
X146202141Y-192747691D01*
X146153764Y-192663866D01*
X146118465Y-192573836D01*
X146097061Y-192477918D01*
X146089772Y-192374878D01*
X146477434Y-192374878D01*
X146486671Y-192434285D01*
X146514657Y-192489086D01*
X146558149Y-192536109D01*
X146618411Y-192576622D01*
X146689246Y-192607337D01*
X146778635Y-192632017D01*
X146874589Y-192646853D01*
X146982724Y-192652045D01*
X147092813Y-192646808D01*
X147188083Y-192632017D01*
X147276520Y-192607439D01*
X147348209Y-192576622D01*
X147409393Y-192536043D01*
X147453136Y-192489086D01*
X147481122Y-192434285D01*
X147490358Y-192374878D01*
X147481011Y-192313785D01*
X147453136Y-192259595D01*
X147409535Y-192213273D01*
X147348209Y-192171961D01*
X147276442Y-192140325D01*
X147188083Y-192115492D01*
X147092817Y-192100773D01*
X146982724Y-192095562D01*
X146874585Y-192100729D01*
X146778635Y-192115492D01*
X146689327Y-192140428D01*
X146618411Y-192171961D01*
X146558007Y-192213206D01*
X146514657Y-192259595D01*
X146486782Y-192313785D01*
X146477434Y-192374878D01*
X146089772Y-192374878D01*
X146097112Y-192270352D01*
X146118562Y-192174081D01*
X146153764Y-192084717D01*
X146202030Y-192001575D01*
X146261949Y-191926332D01*
X146334308Y-191858353D01*
X146415520Y-191800758D01*
X146508880Y-191751366D01*
X146615871Y-191710440D01*
X146726996Y-191681822D01*
X146848845Y-191664034D01*
X146982724Y-191657878D01*
X147116602Y-191664034D01*
G37*
G36*
X147100403Y-194446695D02*
G01*
X147200295Y-194479372D01*
X147290656Y-194531505D01*
X147367748Y-194599637D01*
X147430936Y-194681602D01*
X147480100Y-194776176D01*
X147511098Y-194879121D01*
X147521621Y-194990816D01*
X147512633Y-195096427D01*
X147481175Y-195215715D01*
X147467595Y-195256064D01*
X147114615Y-195256064D01*
X147141579Y-195226853D01*
X147185621Y-195173352D01*
X147215634Y-195121144D01*
X147234011Y-195065309D01*
X147240254Y-195004201D01*
X147232142Y-194933608D01*
X147208958Y-194874483D01*
X147170791Y-194824243D01*
X147120655Y-194785895D01*
X147061692Y-194762624D01*
X146991321Y-194754487D01*
X146920920Y-194762601D01*
X146861572Y-194785857D01*
X146810777Y-194824243D01*
X146771859Y-194874576D01*
X146748281Y-194933698D01*
X146740044Y-195004201D01*
X146746235Y-195065780D01*
X146764762Y-195124466D01*
X146795757Y-195178227D01*
X146840965Y-195226853D01*
X146874671Y-195256064D01*
X146512703Y-195256064D01*
X146508209Y-195244829D01*
X146486697Y-195184735D01*
X146471084Y-195118897D01*
X146458676Y-194988569D01*
X146469148Y-194878662D01*
X146500295Y-194775003D01*
X146549989Y-194679900D01*
X146614894Y-194598562D01*
X146693745Y-194531182D01*
X146784594Y-194479372D01*
X146884118Y-194446645D01*
X146991321Y-194435604D01*
X147100403Y-194446695D01*
G37*
G36*
X147113912Y-194074680D02*
G01*
X147230149Y-194098263D01*
X147341175Y-194137334D01*
X147446289Y-194190521D01*
X147541288Y-194254698D01*
X147627036Y-194330188D01*
X147702526Y-194415937D01*
X147766704Y-194510935D01*
X147819891Y-194616050D01*
X147858959Y-194727077D01*
X147882543Y-194843346D01*
X147890526Y-194966001D01*
X147882559Y-195088604D01*
X147858989Y-195205208D01*
X147819891Y-195316929D01*
X147766642Y-195422794D01*
X147702455Y-195518135D01*
X147627036Y-195603866D01*
X147541288Y-195679356D01*
X147446289Y-195743533D01*
X147341175Y-195796720D01*
X147230145Y-195835846D01*
X147113908Y-195859461D01*
X146991321Y-195867453D01*
X146868722Y-195859476D01*
X146752118Y-195835874D01*
X146640393Y-195796720D01*
X146534461Y-195743470D01*
X146439055Y-195679283D01*
X146353261Y-195603866D01*
X146277843Y-195518135D01*
X146213656Y-195422794D01*
X146160407Y-195316929D01*
X146121309Y-195205208D01*
X146097738Y-195088604D01*
X146089848Y-194967174D01*
X146264845Y-194967174D01*
X146271326Y-195066194D01*
X146290452Y-195159763D01*
X146322096Y-195248835D01*
X146365140Y-195333239D01*
X146417087Y-195409742D01*
X146478216Y-195479009D01*
X146547483Y-195540138D01*
X146623986Y-195592085D01*
X146708390Y-195635129D01*
X146797464Y-195666768D01*
X146891097Y-195685896D01*
X146990247Y-195692380D01*
X147089268Y-195685900D01*
X147182870Y-195666776D01*
X147272005Y-195635129D01*
X147356351Y-195592094D01*
X147432856Y-195540148D01*
X147502180Y-195479009D01*
X147563249Y-195409748D01*
X147615165Y-195333245D01*
X147658202Y-195248835D01*
X147689846Y-195159763D01*
X147708971Y-195066194D01*
X147715452Y-194967174D01*
X147708971Y-194868087D01*
X147689846Y-194774453D01*
X147658202Y-194685317D01*
X147615169Y-194600903D01*
X147563254Y-194524366D01*
X147502180Y-194455045D01*
X147432862Y-194393965D01*
X147356357Y-194342051D01*
X147272005Y-194299023D01*
X147182870Y-194267376D01*
X147089268Y-194248252D01*
X146990247Y-194241772D01*
X146891097Y-194248256D01*
X146797464Y-194267384D01*
X146708390Y-194299023D01*
X146623980Y-194342060D01*
X146547477Y-194393975D01*
X146478216Y-194455045D01*
X146417083Y-194524372D01*
X146365136Y-194600909D01*
X146322096Y-194685317D01*
X146290452Y-194774453D01*
X146271326Y-194868087D01*
X146264845Y-194967174D01*
X146089848Y-194967174D01*
X146089772Y-194966001D01*
X146097754Y-194843346D01*
X146121339Y-194727077D01*
X146160407Y-194616050D01*
X146213594Y-194510935D01*
X146277771Y-194415937D01*
X146353261Y-194330188D01*
X146439055Y-194254771D01*
X146534461Y-194190584D01*
X146640393Y-194137334D01*
X146752114Y-194098236D01*
X146868718Y-194074665D01*
X146991321Y-194066699D01*
X147113912Y-194074680D01*
G37*
G36*
X147828000Y-198212184D02*
G01*
X147828000Y-196853022D01*
X147391391Y-197270481D01*
X147223244Y-197424971D01*
X147097811Y-197529379D01*
X146980627Y-197615312D01*
X146894210Y-197668890D01*
X146813658Y-197708173D01*
X146759193Y-197725848D01*
X146671461Y-197736985D01*
X146597211Y-197724871D01*
X146563069Y-197709650D01*
X146533122Y-197688430D01*
X146507873Y-197661789D01*
X146488083Y-197629909D01*
X146475616Y-197593667D01*
X146471182Y-197549407D01*
X146478094Y-197493225D01*
X146497608Y-197448108D01*
X146529605Y-197411458D01*
X146570975Y-197384283D01*
X146619035Y-197367646D01*
X146675564Y-197361828D01*
X146747469Y-197368472D01*
X146747469Y-196886629D01*
X146649981Y-196892211D01*
X146560886Y-196908414D01*
X146479095Y-196934696D01*
X146401526Y-196971560D01*
X146332430Y-197016636D01*
X146271000Y-197070105D01*
X146217564Y-197131533D01*
X146172895Y-197200251D01*
X146136764Y-197277027D01*
X146111003Y-197358038D01*
X146095194Y-197445387D01*
X146089772Y-197540028D01*
X146101250Y-197677174D01*
X146134615Y-197800684D01*
X146188984Y-197913253D01*
X146260156Y-198007704D01*
X146348176Y-198085269D01*
X146451838Y-198144187D01*
X146527194Y-198171332D01*
X146607234Y-198187815D01*
X146692856Y-198193426D01*
X146784039Y-198186687D01*
X146869212Y-198166853D01*
X146949507Y-198134026D01*
X147024441Y-198089439D01*
X147104518Y-198027255D01*
X147190526Y-197944494D01*
X147452842Y-197664201D01*
X147452842Y-198212184D01*
X147828000Y-198212184D01*
G37*
G36*
X147116602Y-198365276D02*
G01*
X147238452Y-198383065D01*
X147349577Y-198411682D01*
X147456598Y-198452560D01*
X147550372Y-198501946D01*
X147632312Y-198559595D01*
X147705402Y-198627643D01*
X147765726Y-198702888D01*
X147814127Y-198785959D01*
X147849272Y-198875318D01*
X147870691Y-198971589D01*
X147878020Y-199076120D01*
X147870742Y-199179165D01*
X147849370Y-199275083D01*
X147814127Y-199365108D01*
X147765615Y-199448861D01*
X147705276Y-199524081D01*
X147632312Y-199591472D01*
X147550443Y-199648492D01*
X147456671Y-199697525D01*
X147349577Y-199738311D01*
X147238447Y-199766982D01*
X147116599Y-199784803D01*
X146982724Y-199790970D01*
X146848849Y-199784803D01*
X146727000Y-199766982D01*
X146615871Y-199738311D01*
X146508806Y-199697477D01*
X146415448Y-199648437D01*
X146334308Y-199591472D01*
X146262074Y-199524151D01*
X146202141Y-199448933D01*
X146153764Y-199365108D01*
X146118465Y-199275078D01*
X146097061Y-199179160D01*
X146089772Y-199076120D01*
X146477434Y-199076120D01*
X146486671Y-199135528D01*
X146514657Y-199190328D01*
X146558149Y-199237352D01*
X146618411Y-199277865D01*
X146689246Y-199308579D01*
X146778635Y-199333259D01*
X146874589Y-199348095D01*
X146982724Y-199353287D01*
X147092813Y-199348050D01*
X147188083Y-199333259D01*
X147276520Y-199308681D01*
X147348209Y-199277865D01*
X147409393Y-199237285D01*
X147453136Y-199190328D01*
X147481122Y-199135528D01*
X147490358Y-199076120D01*
X147481011Y-199015027D01*
X147453136Y-198960837D01*
X147409535Y-198914515D01*
X147348209Y-198873203D01*
X147276442Y-198841567D01*
X147188083Y-198816734D01*
X147092817Y-198802016D01*
X146982724Y-198796804D01*
X146874585Y-198801971D01*
X146778635Y-198816734D01*
X146689327Y-198841670D01*
X146618411Y-198873203D01*
X146558007Y-198914448D01*
X146514657Y-198960837D01*
X146486782Y-199015027D01*
X146477434Y-199076120D01*
X146089772Y-199076120D01*
X146097112Y-198971594D01*
X146118562Y-198875323D01*
X146153764Y-198785959D01*
X146202030Y-198702817D01*
X146261949Y-198627574D01*
X146334308Y-198559595D01*
X146415520Y-198502000D01*
X146508880Y-198452608D01*
X146615871Y-198411682D01*
X146726996Y-198383065D01*
X146848845Y-198365276D01*
X146982724Y-198359121D01*
X147116602Y-198365276D01*
G37*
G36*
X147828000Y-201257209D02*
G01*
X147828000Y-199898046D01*
X147391391Y-200315506D01*
X147223244Y-200469995D01*
X147097811Y-200574403D01*
X146980627Y-200660337D01*
X146894210Y-200713915D01*
X146813658Y-200753197D01*
X146759193Y-200770872D01*
X146671461Y-200782010D01*
X146597211Y-200769895D01*
X146563069Y-200754674D01*
X146533122Y-200733454D01*
X146507873Y-200706813D01*
X146488083Y-200674934D01*
X146475616Y-200638692D01*
X146471182Y-200594431D01*
X146478094Y-200538250D01*
X146497608Y-200493133D01*
X146529605Y-200456483D01*
X146570975Y-200429308D01*
X146619035Y-200412671D01*
X146675564Y-200406853D01*
X146747469Y-200413496D01*
X146747469Y-199931654D01*
X146649981Y-199937235D01*
X146560886Y-199953438D01*
X146479095Y-199979721D01*
X146401526Y-200016584D01*
X146332430Y-200061661D01*
X146271000Y-200115129D01*
X146217564Y-200176558D01*
X146172895Y-200245275D01*
X146136764Y-200322052D01*
X146111003Y-200403063D01*
X146095194Y-200490411D01*
X146089772Y-200585052D01*
X146101250Y-200722198D01*
X146134615Y-200845708D01*
X146188984Y-200958278D01*
X146260156Y-201052728D01*
X146348176Y-201130293D01*
X146451838Y-201189211D01*
X146527194Y-201216356D01*
X146607234Y-201232839D01*
X146692856Y-201238451D01*
X146784039Y-201231712D01*
X146869212Y-201211878D01*
X146949507Y-201179051D01*
X147024441Y-201134464D01*
X147104518Y-201072280D01*
X147190526Y-200989518D01*
X147452842Y-200709225D01*
X147452842Y-201257209D01*
X147828000Y-201257209D01*
G37*
G36*
X146514950Y-202613440D02*
G01*
X146514950Y-202030384D01*
X146699988Y-202001270D01*
X146692173Y-202075031D01*
X146688851Y-202144201D01*
X146700264Y-202268094D01*
X146733694Y-202380921D01*
X146787336Y-202483279D01*
X146856792Y-202568500D01*
X146942222Y-202637765D01*
X147044957Y-202691305D01*
X147158357Y-202724538D01*
X147284510Y-202735952D01*
X147374454Y-202730114D01*
X147456185Y-202713175D01*
X147530903Y-202685638D01*
X147600623Y-202647375D01*
X147662729Y-202600180D01*
X147717895Y-202543587D01*
X147764403Y-202479571D01*
X147804010Y-202405459D01*
X147836499Y-202319958D01*
X147867244Y-202183601D01*
X147878020Y-202027257D01*
X147868515Y-201877571D01*
X147840602Y-201737585D01*
X147793425Y-201604380D01*
X147726394Y-201479372D01*
X147312940Y-201544340D01*
X147398745Y-201659573D01*
X147458997Y-201772756D01*
X147497166Y-201889095D01*
X147509116Y-201994627D01*
X147500330Y-202081427D01*
X147475821Y-202151084D01*
X147436722Y-202207313D01*
X147384221Y-202251110D01*
X147325162Y-202276931D01*
X147257253Y-202285764D01*
X147197508Y-202279108D01*
X147144974Y-202259740D01*
X147097966Y-202227421D01*
X147055508Y-202180447D01*
X147014241Y-202106615D01*
X146988031Y-202016168D01*
X146978621Y-201905038D01*
X146982717Y-201828464D01*
X146995327Y-201748137D01*
X147016630Y-201668527D01*
X147047692Y-201589183D01*
X146139793Y-201730258D01*
X146139793Y-202613440D01*
X146514950Y-202613440D01*
G37*
G36*
X147396569Y-203147257D02*
G01*
X147396569Y-203527983D01*
X148140630Y-203115897D01*
X148140630Y-202856022D01*
X147396569Y-203147257D01*
G37*
G36*
X146702040Y-205796608D02*
G01*
X146618310Y-205713522D01*
X146560823Y-205624231D01*
X146526600Y-205527124D01*
X146514950Y-205419595D01*
X146524131Y-205323635D01*
X146551000Y-205236706D01*
X146593870Y-205158000D01*
X146649088Y-205092017D01*
X146716458Y-205038266D01*
X146796806Y-204996664D01*
X146884999Y-204970732D01*
X146981649Y-204961884D01*
X147080183Y-204970777D01*
X147168739Y-204996664D01*
X147249219Y-205038432D01*
X147317630Y-205093091D01*
X147373832Y-205159925D01*
X147416792Y-205237781D01*
X147443688Y-205323492D01*
X147452842Y-205417348D01*
X147442009Y-205518218D01*
X147409575Y-205613806D01*
X147354153Y-205706140D01*
X147272494Y-205796608D01*
X147793024Y-205796608D01*
X147808655Y-205751961D01*
X147840359Y-205652296D01*
X147861217Y-205563894D01*
X147873863Y-205476740D01*
X147878020Y-205391556D01*
X147870623Y-205276547D01*
X147848586Y-205165352D01*
X147811782Y-205057041D01*
X147761395Y-204954272D01*
X147699368Y-204860552D01*
X147625278Y-204775087D01*
X147540807Y-204699675D01*
X147446037Y-204634482D01*
X147340002Y-204579302D01*
X147227846Y-204538633D01*
X147108116Y-204513885D01*
X146979402Y-204505443D01*
X146850658Y-204513790D01*
X146731698Y-204538182D01*
X146621049Y-204578130D01*
X146516537Y-204632675D01*
X146423269Y-204697498D01*
X146340267Y-204772840D01*
X146267598Y-204858206D01*
X146206320Y-204952271D01*
X146156108Y-205055869D01*
X146119280Y-205164966D01*
X146097196Y-205277297D01*
X146089772Y-205393803D01*
X146095111Y-205493806D01*
X146111070Y-205591835D01*
X146137500Y-205689685D01*
X146177016Y-205796608D01*
X146702040Y-205796608D01*
G37*
G36*
X147335927Y-205997955D02*
G01*
X147421323Y-206015272D01*
X147499933Y-206043489D01*
X147573871Y-206082425D01*
X147639909Y-206129675D01*
X147698746Y-206185541D01*
X147749341Y-206248983D01*
X147792023Y-206320615D01*
X147826827Y-206401354D01*
X147860245Y-206530555D01*
X147871768Y-206674417D01*
X147860270Y-206820602D01*
X147826827Y-206952952D01*
X147791997Y-207036034D01*
X147749643Y-207109123D01*
X147699821Y-207173259D01*
X147610179Y-207255062D01*
X147504427Y-207317557D01*
X147427256Y-207346500D01*
X147344123Y-207364168D01*
X147253931Y-207370216D01*
X147163624Y-207364294D01*
X147080452Y-207347009D01*
X147003338Y-207318730D01*
X146931041Y-207279703D01*
X146866123Y-207231747D01*
X146807944Y-207174431D01*
X146735536Y-207074319D01*
X146679863Y-206955199D01*
X146645542Y-206825016D01*
X146633758Y-206681158D01*
X146988390Y-206681158D01*
X146993481Y-206733477D01*
X147008614Y-206782666D01*
X147032941Y-206827578D01*
X147064887Y-206865317D01*
X147103739Y-206896446D01*
X147149297Y-206921200D01*
X147198919Y-206937073D01*
X147251586Y-206942400D01*
X147306288Y-206937018D01*
X147356220Y-206921200D01*
X147401779Y-206896446D01*
X147440630Y-206865317D01*
X147472577Y-206827578D01*
X147496904Y-206782666D01*
X147512037Y-206733477D01*
X147517127Y-206681158D01*
X147512039Y-206628826D01*
X147496904Y-206579553D01*
X147472588Y-206534706D01*
X147440630Y-206496901D01*
X147401790Y-206465829D01*
X147356220Y-206441019D01*
X147305995Y-206425253D01*
X147249339Y-206419818D01*
X147196840Y-206425172D01*
X147148223Y-206441019D01*
X147103558Y-206465765D01*
X147064887Y-206496901D01*
X147032930Y-206534706D01*
X147008614Y-206579553D01*
X146993478Y-206628826D01*
X146988390Y-206681158D01*
X146633758Y-206681158D01*
X146633750Y-206681061D01*
X146639187Y-206582019D01*
X146655059Y-206490229D01*
X146680937Y-206404773D01*
X146737572Y-206285798D01*
X146810191Y-206186615D01*
X146899502Y-206104984D01*
X147003338Y-206043489D01*
X147078906Y-206015012D01*
X147158363Y-205997826D01*
X147242598Y-205992003D01*
X147335927Y-205997955D01*
G37*
G36*
X145964720Y-208010035D02*
G01*
X147828000Y-208010035D01*
X147828000Y-207603615D01*
X145964720Y-207603615D01*
X145964720Y-208010035D01*
G37*
G36*
X146677518Y-208693133D02*
G01*
X147828000Y-208693133D01*
X147828000Y-208286713D01*
X146677518Y-208286713D01*
X146677518Y-208693133D01*
G37*
G36*
X146236709Y-208261703D02*
G01*
X146190904Y-208266219D01*
X146148390Y-208279581D01*
X146109396Y-208300937D01*
X146075606Y-208328821D01*
X146047667Y-208362622D01*
X146026367Y-208401605D01*
X146013000Y-208444189D01*
X146008488Y-208489923D01*
X146013004Y-208535728D01*
X146026367Y-208578241D01*
X146047671Y-208617207D01*
X146075606Y-208650928D01*
X146109407Y-208678867D01*
X146148390Y-208700167D01*
X146190908Y-208713604D01*
X146236709Y-208718144D01*
X146282523Y-208713606D01*
X146325124Y-208700167D01*
X146364026Y-208678873D01*
X146397811Y-208650928D01*
X146425690Y-208617218D01*
X146447050Y-208578241D01*
X146460413Y-208535728D01*
X146464929Y-208489923D01*
X146460417Y-208444189D01*
X146447050Y-208401605D01*
X146425694Y-208362611D01*
X146397811Y-208328821D01*
X146364036Y-208300931D01*
X146325124Y-208279581D01*
X146282527Y-208266217D01*
X146236709Y-208261703D01*
G37*
G36*
X146677518Y-208969811D02*
G01*
X146677518Y-209376232D01*
X146823282Y-209376232D01*
X146759922Y-209435258D01*
X146715743Y-209490993D01*
X146687385Y-209544173D01*
X146661713Y-209633906D01*
X146652508Y-209743671D01*
X146662947Y-209859164D01*
X146691782Y-209950886D01*
X146739254Y-210030791D01*
X146802863Y-210097627D01*
X146864812Y-210139230D01*
X146932996Y-210164843D01*
X147007456Y-210178065D01*
X147096736Y-210182819D01*
X147828000Y-210182819D01*
X147828000Y-209776399D01*
X147247092Y-209776399D01*
X147165962Y-209772917D01*
X147109242Y-209763992D01*
X147060765Y-209746384D01*
X147025124Y-209720419D01*
X147002007Y-209691688D01*
X146987023Y-209660042D01*
X146975787Y-209588625D01*
X146983285Y-209522765D01*
X147004108Y-209471327D01*
X147037532Y-209430942D01*
X147081755Y-209401826D01*
X147139147Y-209383089D01*
X147213484Y-209376232D01*
X147828000Y-209376232D01*
X147828000Y-208969811D01*
X146677518Y-208969811D01*
G37*
G36*
X146702040Y-212471277D02*
G01*
X146618310Y-212388191D01*
X146560823Y-212298900D01*
X146526600Y-212201792D01*
X146514950Y-212094264D01*
X146524131Y-211998304D01*
X146551000Y-211911375D01*
X146593870Y-211832669D01*
X146649088Y-211766685D01*
X146716458Y-211712935D01*
X146796806Y-211671333D01*
X146884999Y-211645401D01*
X146981649Y-211636553D01*
X147080183Y-211645445D01*
X147168739Y-211671333D01*
X147249219Y-211713100D01*
X147317630Y-211767760D01*
X147373832Y-211834594D01*
X147416792Y-211912449D01*
X147443688Y-211998161D01*
X147452842Y-212092017D01*
X147442009Y-212192887D01*
X147409575Y-212288475D01*
X147354153Y-212380809D01*
X147272494Y-212471277D01*
X147793024Y-212471277D01*
X147808655Y-212426629D01*
X147840359Y-212326965D01*
X147861217Y-212238562D01*
X147873863Y-212151408D01*
X147878020Y-212066225D01*
X147870623Y-211951216D01*
X147848586Y-211840020D01*
X147811782Y-211731710D01*
X147761395Y-211628940D01*
X147699368Y-211535220D01*
X147625278Y-211449756D01*
X147540807Y-211374343D01*
X147446037Y-211309150D01*
X147340002Y-211253971D01*
X147227846Y-211213302D01*
X147108116Y-211188554D01*
X146979402Y-211180112D01*
X146850658Y-211188458D01*
X146731698Y-211212851D01*
X146621049Y-211252798D01*
X146516537Y-211307344D01*
X146423269Y-211372166D01*
X146340267Y-211447509D01*
X146267598Y-211532875D01*
X146206320Y-211626939D01*
X146156108Y-211730537D01*
X146119280Y-211839634D01*
X146097196Y-211951965D01*
X146089772Y-212068472D01*
X146095111Y-212168474D01*
X146111070Y-212266504D01*
X146137500Y-212364354D01*
X146177016Y-212471277D01*
X146702040Y-212471277D01*
G37*
G36*
X145964720Y-213116860D02*
G01*
X147828000Y-213116860D01*
X147828000Y-212710440D01*
X145964720Y-212710440D01*
X145964720Y-213116860D01*
G37*
G36*
X147378468Y-213360945D02*
G01*
X147494559Y-213393440D01*
X147600262Y-213446175D01*
X147690149Y-213515464D01*
X147763989Y-213600472D01*
X147819402Y-213699037D01*
X147853739Y-213808154D01*
X147865515Y-213929798D01*
X147854718Y-214037264D01*
X147823712Y-214129811D01*
X147772946Y-214210535D01*
X147700700Y-214281410D01*
X147828000Y-214281410D01*
X147828000Y-214687830D01*
X146677518Y-214687830D01*
X146677518Y-214281410D01*
X146791433Y-214281410D01*
X146724999Y-214205993D01*
X146678237Y-214122731D01*
X146650371Y-214031793D01*
X146990149Y-214031793D01*
X146995263Y-214084502D01*
X147010470Y-214134082D01*
X147034805Y-214179277D01*
X147066743Y-214217222D01*
X147105616Y-214248544D01*
X147151251Y-214273496D01*
X147201005Y-214289512D01*
X147253931Y-214294892D01*
X147306534Y-214289493D01*
X147355341Y-214273496D01*
X147400006Y-214248619D01*
X147438774Y-214217222D01*
X147470734Y-214179280D01*
X147495145Y-214134082D01*
X147510278Y-214084506D01*
X147515369Y-214031793D01*
X147510227Y-213977130D01*
X147495145Y-213927257D01*
X147470739Y-213882042D01*
X147438774Y-213844019D01*
X147399787Y-213813009D01*
X147354168Y-213788918D01*
X147304186Y-213773839D01*
X147249339Y-213768695D01*
X147196847Y-213773836D01*
X147149102Y-213788918D01*
X147105311Y-213812886D01*
X147066743Y-213844019D01*
X147034801Y-213882045D01*
X147010470Y-213927257D01*
X146995314Y-213977135D01*
X146990149Y-214031793D01*
X146650371Y-214031793D01*
X146649811Y-214029967D01*
X146640002Y-213925303D01*
X146645565Y-213841321D01*
X146661799Y-213764024D01*
X146688362Y-213692393D01*
X146745659Y-213594080D01*
X146819960Y-213510970D01*
X146909480Y-213443642D01*
X147014378Y-213392268D01*
X147128222Y-213360491D01*
X147249339Y-213349770D01*
X147378468Y-213360945D01*
G37*
G36*
X146677518Y-214962945D02*
G01*
X146677518Y-215369365D01*
X146867148Y-215369365D01*
X146802012Y-215416851D01*
X146749362Y-215469669D01*
X146707902Y-215528123D01*
X146677634Y-215592840D01*
X146658983Y-215665407D01*
X146652508Y-215747453D01*
X146652508Y-215782135D01*
X146657099Y-215825806D01*
X147047399Y-215825806D01*
X147017315Y-215742311D01*
X147007148Y-215651221D01*
X147017466Y-215561032D01*
X147045849Y-215492280D01*
X147091070Y-215439804D01*
X147151035Y-215402665D01*
X147230752Y-215378363D01*
X147335997Y-215369365D01*
X147828000Y-215369365D01*
X147828000Y-214962945D01*
X146677518Y-214962945D01*
G37*
G36*
X145964720Y-216411989D02*
G01*
X147092438Y-216411989D01*
X146677518Y-216837557D01*
X146677518Y-217393063D01*
X147208990Y-216817334D01*
X147828000Y-217426671D01*
X147828000Y-216857683D01*
X147359249Y-216411989D01*
X147828000Y-216411989D01*
X147828000Y-216005569D01*
X145964720Y-216005569D01*
X145964720Y-216411989D01*
G37*
D12*
G36*
X140181175Y-116157863D02*
G01*
X139682919Y-116157863D01*
X139682919Y-115644953D01*
X139340979Y-115644953D01*
X139340979Y-116968750D01*
X139682919Y-116968750D01*
X139682919Y-116426530D01*
X140181175Y-116426530D01*
X140181175Y-116968750D01*
X140523115Y-116968750D01*
X140523115Y-115644953D01*
X140181175Y-115644953D01*
X140181175Y-116157863D01*
G37*
G36*
X138742773Y-116044663D02*
G01*
X138838449Y-116070012D01*
X138924260Y-116111933D01*
X138994994Y-116167404D01*
X139034494Y-116212094D01*
X139067711Y-116263046D01*
X139094752Y-116320972D01*
X139113807Y-116382149D01*
X139125621Y-116449454D01*
X139129709Y-116523770D01*
X139125436Y-116595542D01*
X139113054Y-116660761D01*
X139092996Y-116720309D01*
X139048383Y-116802217D01*
X138988888Y-116871281D01*
X138915620Y-116926680D01*
X138827077Y-116968673D01*
X138729306Y-116994116D01*
X138618860Y-117002943D01*
X138511066Y-116995597D01*
X138420976Y-116975028D01*
X138345625Y-116942778D01*
X138282624Y-116899433D01*
X138230291Y-116844586D01*
X138187787Y-116776866D01*
X138155180Y-116694053D01*
X138460331Y-116694053D01*
X138489934Y-116731175D01*
X138524869Y-116756977D01*
X138566124Y-116772719D01*
X138615502Y-116778240D01*
X138676738Y-116771962D01*
X138723164Y-116754848D01*
X138758291Y-116728076D01*
X138784169Y-116690846D01*
X138801044Y-116640532D01*
X138807309Y-116573076D01*
X138142968Y-116573076D01*
X138142968Y-116539722D01*
X138151639Y-116425769D01*
X138161297Y-116387452D01*
X138437662Y-116387452D01*
X138798607Y-116387452D01*
X138786174Y-116343138D01*
X138766682Y-116307616D01*
X138740218Y-116279298D01*
X138707458Y-116258469D01*
X138668201Y-116245503D01*
X138620768Y-116240906D01*
X138575708Y-116245557D01*
X138536621Y-116258971D01*
X138502234Y-116281053D01*
X138473564Y-116310441D01*
X138452117Y-116345561D01*
X138437662Y-116387452D01*
X138161297Y-116387452D01*
X138176246Y-116328146D01*
X138202192Y-116267748D01*
X138234246Y-116215058D01*
X138272417Y-116169236D01*
X138317034Y-116129668D01*
X138368098Y-116096631D01*
X138426366Y-116070012D01*
X138521032Y-116044648D01*
X138631072Y-116035742D01*
X138742773Y-116044663D01*
G37*
G36*
X137613619Y-116044972D02*
G01*
X137674007Y-116057655D01*
X137729969Y-116078408D01*
X137806776Y-116123171D01*
X137871706Y-116181219D01*
X137924306Y-116251156D01*
X137964442Y-116333107D01*
X137989267Y-116422048D01*
X137997643Y-116516671D01*
X137988913Y-116617553D01*
X137963526Y-116708249D01*
X137922327Y-116790830D01*
X137868195Y-116861054D01*
X137801782Y-116918741D01*
X137724778Y-116962033D01*
X137639530Y-116988859D01*
X137544497Y-116998059D01*
X137460539Y-116989623D01*
X137388236Y-116965400D01*
X137325171Y-116925739D01*
X137269800Y-116869297D01*
X137269800Y-116968750D01*
X136952284Y-116968750D01*
X136952284Y-116520259D01*
X137259267Y-116520259D01*
X137263485Y-116561355D01*
X137275982Y-116599485D01*
X137295418Y-116634380D01*
X137319946Y-116664667D01*
X137349588Y-116689636D01*
X137384899Y-116708707D01*
X137423631Y-116720530D01*
X137464812Y-116724507D01*
X137507518Y-116720490D01*
X137546481Y-116708707D01*
X137581806Y-116689639D01*
X137611511Y-116664667D01*
X137635738Y-116634208D01*
X137654559Y-116598569D01*
X137666340Y-116559520D01*
X137670358Y-116516671D01*
X137666342Y-116475662D01*
X137654559Y-116438361D01*
X137635834Y-116404149D01*
X137611511Y-116374018D01*
X137581803Y-116349063D01*
X137546481Y-116330054D01*
X137507514Y-116318214D01*
X137464812Y-116314179D01*
X137423634Y-116318174D01*
X137384899Y-116330054D01*
X137349591Y-116349067D01*
X137319946Y-116374018D01*
X137295476Y-116404388D01*
X137275982Y-116440040D01*
X137263469Y-116478910D01*
X137259267Y-116520259D01*
X136952284Y-116520259D01*
X136952284Y-116069936D01*
X137269800Y-116069936D01*
X137269800Y-116158932D01*
X137328719Y-116107031D01*
X137393768Y-116070498D01*
X137466240Y-116048290D01*
X137548008Y-116040627D01*
X137613619Y-116044972D01*
G37*
G36*
X136043701Y-116158092D02*
G01*
X136102568Y-116106596D01*
X136167600Y-116070315D01*
X136240092Y-116048245D01*
X136321909Y-116040627D01*
X136387527Y-116044959D01*
X136448233Y-116057630D01*
X136504785Y-116078408D01*
X136582297Y-116123223D01*
X136647362Y-116181219D01*
X136699756Y-116251188D01*
X136739182Y-116333107D01*
X136763374Y-116422013D01*
X136771544Y-116516671D01*
X136762850Y-116616024D01*
X136737427Y-116706494D01*
X136696228Y-116789074D01*
X136642096Y-116859298D01*
X136575719Y-116917189D01*
X136498679Y-116961193D01*
X136442779Y-116981477D01*
X136382926Y-116993837D01*
X136318398Y-116998059D01*
X136234440Y-116989623D01*
X136162137Y-116965400D01*
X136099072Y-116925739D01*
X136043701Y-116869297D01*
X136043701Y-116968750D01*
X135726185Y-116968750D01*
X135726185Y-116520259D01*
X136033168Y-116520259D01*
X136037386Y-116561355D01*
X136049883Y-116599485D01*
X136069319Y-116634380D01*
X136093847Y-116664667D01*
X136123489Y-116689636D01*
X136158800Y-116708707D01*
X136197531Y-116720530D01*
X136238713Y-116724507D01*
X136281419Y-116720490D01*
X136320382Y-116708707D01*
X136355707Y-116689639D01*
X136385412Y-116664667D01*
X136409638Y-116634208D01*
X136428459Y-116598569D01*
X136440240Y-116559520D01*
X136444259Y-116516671D01*
X136440020Y-116475707D01*
X136427544Y-116438361D01*
X136408166Y-116404115D01*
X136383656Y-116374018D01*
X136353949Y-116349063D01*
X136318627Y-116330054D01*
X136279892Y-116318174D01*
X136238713Y-116314179D01*
X136197535Y-116318174D01*
X136158800Y-116330054D01*
X136123492Y-116349067D01*
X136093847Y-116374018D01*
X136069377Y-116404388D01*
X136049883Y-116440040D01*
X136037370Y-116478910D01*
X136033168Y-116520259D01*
X135726185Y-116520259D01*
X135726185Y-115513062D01*
X136043701Y-115513062D01*
X136043701Y-116158092D01*
G37*
G36*
X135158509Y-116044663D02*
G01*
X135254186Y-116070012D01*
X135339996Y-116111933D01*
X135410730Y-116167404D01*
X135450230Y-116212094D01*
X135483447Y-116263046D01*
X135510488Y-116320972D01*
X135529544Y-116382149D01*
X135541357Y-116449454D01*
X135545445Y-116523770D01*
X135541172Y-116595542D01*
X135528791Y-116660761D01*
X135508733Y-116720309D01*
X135464119Y-116802217D01*
X135404624Y-116871281D01*
X135331357Y-116926680D01*
X135242813Y-116968673D01*
X135145043Y-116994116D01*
X135034596Y-117002943D01*
X134926802Y-116995597D01*
X134836712Y-116975028D01*
X134761362Y-116942778D01*
X134698360Y-116899433D01*
X134646027Y-116844586D01*
X134603523Y-116776866D01*
X134570916Y-116694053D01*
X134876067Y-116694053D01*
X134905671Y-116731175D01*
X134940605Y-116756977D01*
X134981860Y-116772719D01*
X135031238Y-116778240D01*
X135092474Y-116771962D01*
X135138900Y-116754848D01*
X135174028Y-116728076D01*
X135199905Y-116690846D01*
X135216780Y-116640532D01*
X135223045Y-116573076D01*
X134558704Y-116573076D01*
X134558704Y-116539722D01*
X134567376Y-116425769D01*
X134577034Y-116387452D01*
X134853398Y-116387452D01*
X135214344Y-116387452D01*
X135201910Y-116343138D01*
X135182418Y-116307616D01*
X135155954Y-116279298D01*
X135123194Y-116258469D01*
X135083937Y-116245503D01*
X135036504Y-116240906D01*
X134991445Y-116245557D01*
X134952357Y-116258971D01*
X134917970Y-116281053D01*
X134889300Y-116310441D01*
X134867853Y-116345561D01*
X134853398Y-116387452D01*
X134577034Y-116387452D01*
X134591982Y-116328146D01*
X134617929Y-116267748D01*
X134649982Y-116215058D01*
X134688153Y-116169236D01*
X134732771Y-116129668D01*
X134783834Y-116096631D01*
X134842102Y-116070012D01*
X134936768Y-116044648D01*
X135046808Y-116035742D01*
X135158509Y-116044663D01*
G37*
G36*
X134379186Y-116069936D02*
G01*
X134061670Y-116069936D01*
X134061670Y-116218084D01*
X134024571Y-116167197D01*
X133983307Y-116126064D01*
X133937640Y-116093673D01*
X133887080Y-116070026D01*
X133830387Y-116055455D01*
X133766289Y-116050396D01*
X133739193Y-116050396D01*
X133705075Y-116053984D01*
X133705075Y-116358906D01*
X133770306Y-116335403D01*
X133841470Y-116327459D01*
X133911930Y-116335520D01*
X133965643Y-116357694D01*
X134006639Y-116393023D01*
X134035654Y-116439871D01*
X134054640Y-116502150D01*
X134061670Y-116584372D01*
X134061670Y-116968750D01*
X134379186Y-116968750D01*
X134379186Y-116069936D01*
G37*
G36*
X132462539Y-116049092D02*
G01*
X132535229Y-116073364D01*
X132598391Y-116113030D01*
X132653610Y-116169388D01*
X132653610Y-116069936D01*
X132971126Y-116069936D01*
X132971126Y-117418156D01*
X132653610Y-117418156D01*
X132653610Y-116882349D01*
X132594146Y-116933065D01*
X132528708Y-116968820D01*
X132456035Y-116990562D01*
X132374334Y-116998059D01*
X132281109Y-116988693D01*
X132196342Y-116961193D01*
X132119613Y-116917151D01*
X132054070Y-116859298D01*
X132000639Y-116789413D01*
X131959808Y-116708249D01*
X131934440Y-116619534D01*
X131925766Y-116522014D01*
X132257937Y-116522014D01*
X132262075Y-116561596D01*
X132274499Y-116599485D01*
X132293678Y-116634397D01*
X132317852Y-116664667D01*
X132347039Y-116689701D01*
X132381203Y-116708707D01*
X132418705Y-116720508D01*
X132459361Y-116724507D01*
X132499971Y-116720311D01*
X132538282Y-116707791D01*
X132573410Y-116688295D01*
X132603388Y-116663751D01*
X132627999Y-116634141D01*
X132646741Y-116599485D01*
X132658429Y-116561405D01*
X132662387Y-116520259D01*
X132658259Y-116478895D01*
X132645977Y-116440040D01*
X132626725Y-116404375D01*
X132602548Y-116374018D01*
X132573308Y-116348993D01*
X132539197Y-116330054D01*
X132501626Y-116318194D01*
X132460963Y-116314179D01*
X132418831Y-116318417D01*
X132380287Y-116330894D01*
X132345232Y-116350565D01*
X132315257Y-116375774D01*
X132290806Y-116406255D01*
X132272744Y-116441796D01*
X132261675Y-116480579D01*
X132257937Y-116522014D01*
X131925766Y-116522014D01*
X131934406Y-116424195D01*
X131959808Y-116334023D01*
X132000940Y-116251389D01*
X132054986Y-116181219D01*
X132121321Y-116123132D01*
X132198937Y-116078408D01*
X132255253Y-116057535D01*
X132314668Y-116044911D01*
X132377845Y-116040627D01*
X132462539Y-116049092D01*
G37*
G36*
X131427511Y-116069936D02*
G01*
X131427511Y-116968750D01*
X131745027Y-116968750D01*
X131745027Y-116069936D01*
X131427511Y-116069936D01*
G37*
G36*
X131764566Y-115725553D02*
G01*
X131761038Y-115689768D01*
X131750598Y-115656555D01*
X131733914Y-115626091D01*
X131712130Y-115599692D01*
X131685723Y-115577865D01*
X131655267Y-115561224D01*
X131621999Y-115550781D01*
X131586269Y-115547256D01*
X131550484Y-115550784D01*
X131517270Y-115561224D01*
X131486828Y-115577868D01*
X131460484Y-115599692D01*
X131438656Y-115626099D01*
X131422015Y-115656555D01*
X131411518Y-115689772D01*
X131407971Y-115725553D01*
X131411517Y-115761346D01*
X131422015Y-115794628D01*
X131438652Y-115825020D01*
X131460484Y-115851415D01*
X131486820Y-115873195D01*
X131517270Y-115889883D01*
X131550484Y-115900322D01*
X131586269Y-115903851D01*
X131621999Y-115900326D01*
X131655267Y-115889883D01*
X131685731Y-115873199D01*
X131712130Y-115851415D01*
X131733918Y-115825028D01*
X131750598Y-115794628D01*
X131761039Y-115761349D01*
X131764566Y-115725553D01*
G37*
G36*
X131211356Y-116069936D02*
G01*
X130893840Y-116069936D01*
X130893840Y-116183814D01*
X130847726Y-116134314D01*
X130804183Y-116099799D01*
X130762636Y-116077645D01*
X130692532Y-116057588D01*
X130606779Y-116050396D01*
X130516549Y-116058552D01*
X130444891Y-116081079D01*
X130382466Y-116118167D01*
X130330250Y-116167862D01*
X130297748Y-116216259D01*
X130277738Y-116269528D01*
X130267408Y-116327700D01*
X130263694Y-116397450D01*
X130263694Y-116968750D01*
X130581209Y-116968750D01*
X130581209Y-116514916D01*
X130583930Y-116451533D01*
X130590903Y-116407220D01*
X130604658Y-116369347D01*
X130624944Y-116341503D01*
X130647390Y-116323443D01*
X130672114Y-116311736D01*
X130727908Y-116302959D01*
X130779361Y-116308816D01*
X130819547Y-116325084D01*
X130851098Y-116351197D01*
X130873844Y-116385746D01*
X130888483Y-116430584D01*
X130893840Y-116488660D01*
X130893840Y-116968750D01*
X131211356Y-116968750D01*
X131211356Y-116069936D01*
G37*
G36*
X129452350Y-116301203D02*
G01*
X129512091Y-116275271D01*
X129569171Y-116260389D01*
X129624388Y-116255560D01*
X129665502Y-116260299D01*
X129695524Y-116273115D01*
X129716051Y-116294002D01*
X129722696Y-116320514D01*
X129718345Y-116345930D01*
X129699035Y-116364325D01*
X129655147Y-116380201D01*
X129578822Y-116397756D01*
X129493668Y-116421632D01*
X129429525Y-116453242D01*
X129382206Y-116491560D01*
X129346545Y-116539966D01*
X129324844Y-116596767D01*
X129317253Y-116664362D01*
X129325353Y-116740315D01*
X129348775Y-116806404D01*
X129386430Y-116864493D01*
X129436397Y-116912574D01*
X129496838Y-116950078D01*
X129571265Y-116979206D01*
X129652478Y-116996801D01*
X129744601Y-117002943D01*
X129833733Y-116996757D01*
X129922767Y-116978052D01*
X130012475Y-116946274D01*
X130103562Y-116900438D01*
X129988157Y-116676803D01*
X129895826Y-116729976D01*
X129812191Y-116759257D01*
X129734984Y-116768470D01*
X129693824Y-116763304D01*
X129662933Y-116749084D01*
X129641558Y-116726618D01*
X129634768Y-116699777D01*
X129639195Y-116670697D01*
X129657666Y-116649555D01*
X129698958Y-116632000D01*
X129770094Y-116615208D01*
X129867030Y-116589122D01*
X129933291Y-116559011D01*
X129976479Y-116526288D01*
X130008314Y-116483560D01*
X130028197Y-116430255D01*
X130035327Y-116363333D01*
X130028108Y-116290315D01*
X130007315Y-116226862D01*
X129973153Y-116170784D01*
X129926715Y-116123898D01*
X129869859Y-116087045D01*
X129799785Y-116058716D01*
X129722753Y-116041713D01*
X129634158Y-116035742D01*
X129536112Y-116042164D01*
X129440048Y-116061405D01*
X129345188Y-116093750D01*
X129452350Y-116301203D01*
G37*
G36*
X128076620Y-115617720D02*
G01*
X128154351Y-115638008D01*
X128225569Y-115670877D01*
X128285250Y-115713494D01*
X128334618Y-115766324D01*
X128372186Y-115828517D01*
X128395797Y-115897460D01*
X128403784Y-115972468D01*
X128398078Y-116027568D01*
X128380221Y-116085846D01*
X128348449Y-116148478D01*
X128300210Y-116216558D01*
X128277007Y-116242890D01*
X128313873Y-116260369D01*
X128423400Y-116319216D01*
X128465971Y-116350892D01*
X128504916Y-116388520D01*
X128547511Y-116443407D01*
X128574144Y-116498124D01*
X128589000Y-116557677D01*
X128594294Y-116628870D01*
X128586281Y-116708706D01*
X128562848Y-116780606D01*
X128525169Y-116845353D01*
X128475302Y-116900819D01*
X128414695Y-116945583D01*
X128342342Y-116979740D01*
X128262756Y-117000589D01*
X128172670Y-117007828D01*
X128068097Y-116998829D01*
X127958734Y-116970956D01*
X127843014Y-116922168D01*
X127719447Y-116849528D01*
X127602973Y-116970887D01*
X127175777Y-116970887D01*
X127469708Y-116656271D01*
X127454830Y-116642304D01*
X127907513Y-116642304D01*
X127970816Y-116675446D01*
X128030077Y-116694105D01*
X128086498Y-116700082D01*
X128117023Y-116697625D01*
X128144734Y-116690465D01*
X128192514Y-116664209D01*
X128211198Y-116645811D01*
X128225563Y-116623909D01*
X128234624Y-116599315D01*
X128237699Y-116572160D01*
X128231651Y-116537995D01*
X128212083Y-116501850D01*
X128174983Y-116462145D01*
X128114280Y-116417829D01*
X127907513Y-116642304D01*
X127454830Y-116642304D01*
X127443528Y-116631694D01*
X127356899Y-116545064D01*
X127289503Y-116463625D01*
X127483752Y-116276168D01*
X127557317Y-116364943D01*
X127656325Y-116465609D01*
X127823555Y-116290212D01*
X127758049Y-116253953D01*
X127707998Y-116220832D01*
X127664681Y-116184793D01*
X127632130Y-116148857D01*
X127607007Y-116109458D01*
X127590608Y-116068104D01*
X127581463Y-116023630D01*
X127578244Y-115972391D01*
X127578888Y-115966209D01*
X127851796Y-115966209D01*
X127858324Y-116007484D01*
X127878603Y-116047897D01*
X127915447Y-116088863D01*
X127973688Y-116131073D01*
X128037950Y-116051445D01*
X128068296Y-115995287D01*
X128076499Y-115955676D01*
X128068530Y-115911988D01*
X128045129Y-115876831D01*
X128010123Y-115853244D01*
X127966742Y-115845232D01*
X127934661Y-115849344D01*
X127907480Y-115861231D01*
X127884005Y-115881182D01*
X127859882Y-115920323D01*
X127851796Y-115966209D01*
X127578888Y-115966209D01*
X127586050Y-115897474D01*
X127609003Y-115829357D01*
X127645753Y-115767795D01*
X127695022Y-115714334D01*
X127754764Y-115671055D01*
X127825921Y-115638008D01*
X127903876Y-115617754D01*
X127991014Y-115610759D01*
X128076620Y-115617720D01*
G37*
G36*
X126224757Y-116069936D02*
G01*
X126011197Y-116530715D01*
X125794202Y-116069936D01*
X125440737Y-116069936D01*
X125908004Y-116968750D01*
X126119732Y-116968750D01*
X126581733Y-116069936D01*
X126224757Y-116069936D01*
G37*
G36*
X125027785Y-116044972D02*
G01*
X125088173Y-116057655D01*
X125144135Y-116078408D01*
X125220942Y-116123171D01*
X125285872Y-116181219D01*
X125338472Y-116251156D01*
X125378608Y-116333107D01*
X125403433Y-116422048D01*
X125411810Y-116516671D01*
X125403079Y-116617553D01*
X125377692Y-116708249D01*
X125336493Y-116790830D01*
X125282361Y-116861054D01*
X125215948Y-116918741D01*
X125138944Y-116962033D01*
X125053696Y-116988859D01*
X124958663Y-116998059D01*
X124874705Y-116989623D01*
X124802402Y-116965400D01*
X124739337Y-116925739D01*
X124683966Y-116869297D01*
X124683966Y-116968750D01*
X124366450Y-116968750D01*
X124366450Y-116520259D01*
X124673433Y-116520259D01*
X124677651Y-116561355D01*
X124690148Y-116599485D01*
X124709584Y-116634380D01*
X124734112Y-116664667D01*
X124763754Y-116689636D01*
X124799065Y-116708707D01*
X124837797Y-116720530D01*
X124878979Y-116724507D01*
X124921684Y-116720490D01*
X124960647Y-116708707D01*
X124995972Y-116689639D01*
X125025677Y-116664667D01*
X125049904Y-116634208D01*
X125068725Y-116598569D01*
X125080506Y-116559520D01*
X125084524Y-116516671D01*
X125080508Y-116475662D01*
X125068725Y-116438361D01*
X125050000Y-116404149D01*
X125025677Y-116374018D01*
X124995969Y-116349063D01*
X124960647Y-116330054D01*
X124921680Y-116318214D01*
X124878979Y-116314179D01*
X124837800Y-116318174D01*
X124799065Y-116330054D01*
X124763757Y-116349067D01*
X124734112Y-116374018D01*
X124709642Y-116404388D01*
X124690148Y-116440040D01*
X124677635Y-116478910D01*
X124673433Y-116520259D01*
X124366450Y-116520259D01*
X124366450Y-116069936D01*
X124683966Y-116069936D01*
X124683966Y-116158932D01*
X124742885Y-116107031D01*
X124807934Y-116070498D01*
X124880406Y-116048290D01*
X124962174Y-116040627D01*
X125027785Y-116044972D01*
G37*
G36*
X123472521Y-116360737D02*
G01*
X123529692Y-116328655D01*
X123585126Y-116310357D01*
X123639904Y-116304409D01*
X123684591Y-116308429D01*
X123725389Y-116320208D01*
X123762685Y-116339384D01*
X123794998Y-116365088D01*
X123821549Y-116396673D01*
X123841710Y-116433781D01*
X123854103Y-116475064D01*
X123858425Y-116522701D01*
X123854144Y-116568739D01*
X123841710Y-116609789D01*
X123821716Y-116646943D01*
X123795838Y-116678406D01*
X123764153Y-116703973D01*
X123726305Y-116723285D01*
X123684715Y-116735142D01*
X123639904Y-116739161D01*
X123582080Y-116732484D01*
X123526705Y-116712346D01*
X123472521Y-116677566D01*
X123472521Y-116947302D01*
X123552075Y-116976275D01*
X123625936Y-116992768D01*
X123695088Y-116998059D01*
X123791187Y-116989647D01*
X123881704Y-116964704D01*
X123965189Y-116923933D01*
X124037638Y-116868992D01*
X124098046Y-116800808D01*
X124145410Y-116719622D01*
X124167504Y-116660408D01*
X124181053Y-116596012D01*
X124185710Y-116525525D01*
X124181268Y-116454851D01*
X124168315Y-116389812D01*
X124147166Y-116329596D01*
X124101329Y-116246629D01*
X124042065Y-116176792D01*
X123969735Y-116120103D01*
X123883460Y-116076653D01*
X123788893Y-116049766D01*
X123686386Y-116040627D01*
X123610429Y-116046212D01*
X123539452Y-116062651D01*
X123472521Y-116089857D01*
X123472521Y-116360737D01*
G37*
G36*
X122942514Y-116333718D02*
G01*
X122942514Y-116968750D01*
X123260030Y-116968750D01*
X123260030Y-116333718D01*
X123362612Y-116333718D01*
X123362612Y-116069936D01*
X123260030Y-116069936D01*
X123260030Y-115801269D01*
X122942514Y-115801269D01*
X122942514Y-116069936D01*
X122761775Y-116069936D01*
X122761775Y-116333718D01*
X122942514Y-116333718D01*
G37*
G36*
X122642096Y-116069936D02*
G01*
X122324580Y-116069936D01*
X122324580Y-116218084D01*
X122287481Y-116167197D01*
X122246217Y-116126064D01*
X122200550Y-116093673D01*
X122149990Y-116070026D01*
X122093297Y-116055455D01*
X122029199Y-116050396D01*
X122002103Y-116050396D01*
X121967985Y-116053984D01*
X121967985Y-116358906D01*
X122033216Y-116335403D01*
X122104380Y-116327459D01*
X122174840Y-116335520D01*
X122228553Y-116357694D01*
X122269549Y-116393023D01*
X122298564Y-116439871D01*
X122317550Y-116502150D01*
X122324580Y-116584372D01*
X122324580Y-116968750D01*
X122642096Y-116968750D01*
X122642096Y-116069936D01*
G37*
G36*
X121393462Y-116039990D02*
G01*
X121465174Y-116052389D01*
X121531936Y-116072607D01*
X121624885Y-116116853D01*
X121702371Y-116173586D01*
X121766146Y-116243361D01*
X121814189Y-116324483D01*
X121836436Y-116383520D01*
X121849863Y-116445596D01*
X121854412Y-116511405D01*
X121849762Y-116584318D01*
X121836233Y-116651033D01*
X121814189Y-116712447D01*
X121783770Y-116770211D01*
X121746856Y-116821804D01*
X121703211Y-116867770D01*
X121653647Y-116907298D01*
X121597684Y-116940643D01*
X121534607Y-116967834D01*
X121433668Y-116993941D01*
X121321276Y-117002943D01*
X121207069Y-116993961D01*
X121103671Y-116967834D01*
X121038763Y-116940623D01*
X120981662Y-116907534D01*
X120931556Y-116868610D01*
X120867648Y-116798577D01*
X120818823Y-116715958D01*
X120796211Y-116655669D01*
X120782408Y-116590721D01*
X120777683Y-116520259D01*
X120777803Y-116518427D01*
X121111914Y-116518427D01*
X121116119Y-116561162D01*
X121128477Y-116600172D01*
X121147816Y-116635765D01*
X121172135Y-116666117D01*
X121201620Y-116691076D01*
X121236707Y-116710081D01*
X121275136Y-116721904D01*
X121316010Y-116725881D01*
X121356894Y-116721905D01*
X121395389Y-116710081D01*
X121430426Y-116691084D01*
X121459960Y-116666117D01*
X121484236Y-116635773D01*
X121503619Y-116600172D01*
X121515935Y-116560933D01*
X121520181Y-116516671D01*
X121515999Y-116475656D01*
X121503619Y-116437674D01*
X121484286Y-116402780D01*
X121459960Y-116372568D01*
X121430426Y-116347601D01*
X121395389Y-116328604D01*
X121356894Y-116316780D01*
X121316010Y-116312805D01*
X121275136Y-116316782D01*
X121236707Y-116328604D01*
X121201620Y-116347610D01*
X121172135Y-116372568D01*
X121147816Y-116402921D01*
X121128477Y-116438514D01*
X121116076Y-116477280D01*
X121111914Y-116518427D01*
X120777803Y-116518427D01*
X120782310Y-116449706D01*
X120795814Y-116384728D01*
X120817907Y-116324483D01*
X120848397Y-116268001D01*
X120885862Y-116217283D01*
X120930640Y-116171831D01*
X121008853Y-116115262D01*
X121101916Y-116071768D01*
X121203620Y-116044955D01*
X121316086Y-116035742D01*
X121393462Y-116039990D01*
G37*
G36*
X120277825Y-115513062D02*
G01*
X120277825Y-116968750D01*
X120595341Y-116968750D01*
X120595341Y-115513062D01*
X120277825Y-115513062D01*
G37*
G36*
X119464038Y-116301203D02*
G01*
X119523780Y-116275271D01*
X119580860Y-116260389D01*
X119636077Y-116255560D01*
X119677190Y-116260299D01*
X119707213Y-116273115D01*
X119727740Y-116294002D01*
X119734385Y-116320514D01*
X119730034Y-116345930D01*
X119710724Y-116364325D01*
X119666836Y-116380201D01*
X119590510Y-116397756D01*
X119505356Y-116421632D01*
X119441214Y-116453242D01*
X119393895Y-116491560D01*
X119358234Y-116539966D01*
X119336533Y-116596767D01*
X119328941Y-116664362D01*
X119337042Y-116740315D01*
X119360464Y-116806404D01*
X119398119Y-116864493D01*
X119448086Y-116912574D01*
X119508527Y-116950078D01*
X119582954Y-116979206D01*
X119664167Y-116996801D01*
X119756290Y-117002943D01*
X119845422Y-116996757D01*
X119934456Y-116978052D01*
X120024164Y-116946274D01*
X120115251Y-116900438D01*
X119999846Y-116676803D01*
X119907515Y-116729976D01*
X119823880Y-116759257D01*
X119746673Y-116768470D01*
X119705513Y-116763304D01*
X119674621Y-116749084D01*
X119653247Y-116726618D01*
X119646457Y-116699777D01*
X119650884Y-116670697D01*
X119669355Y-116649555D01*
X119710647Y-116632000D01*
X119781783Y-116615208D01*
X119878719Y-116589122D01*
X119944980Y-116559011D01*
X119988168Y-116526288D01*
X120020003Y-116483560D01*
X120039886Y-116430255D01*
X120047015Y-116363333D01*
X120039797Y-116290315D01*
X120019004Y-116226862D01*
X119984842Y-116170784D01*
X119938404Y-116123898D01*
X119881548Y-116087045D01*
X119811474Y-116058716D01*
X119734442Y-116041713D01*
X119645847Y-116035742D01*
X119547801Y-116042164D01*
X119451736Y-116061405D01*
X119356877Y-116093750D01*
X119464038Y-116301203D01*
G37*
G36*
X119072334Y-116631694D02*
G01*
X118774892Y-116631694D01*
X119096834Y-117212992D01*
X119299861Y-117212992D01*
X119072334Y-116631694D01*
G37*
G36*
X117630232Y-116333718D02*
G01*
X117630232Y-116968750D01*
X117947748Y-116968750D01*
X117947748Y-116333718D01*
X118050330Y-116333718D01*
X118050330Y-116069936D01*
X117947748Y-116069936D01*
X117947748Y-115801269D01*
X117630232Y-115801269D01*
X117630232Y-116069936D01*
X117449493Y-116069936D01*
X117449493Y-116333718D01*
X117630232Y-116333718D01*
G37*
G36*
X117289514Y-115513062D02*
G01*
X116971998Y-115513062D01*
X116971998Y-116184425D01*
X116925867Y-116134667D01*
X116882324Y-116099983D01*
X116840794Y-116077721D01*
X116770685Y-116057608D01*
X116684936Y-116050396D01*
X116600281Y-116057073D01*
X116531165Y-116075649D01*
X116474659Y-116104758D01*
X116428558Y-116144201D01*
X116391741Y-116193300D01*
X116364799Y-116250732D01*
X116347849Y-116318095D01*
X116341851Y-116397450D01*
X116341851Y-116968750D01*
X116659367Y-116968750D01*
X116659367Y-116515908D01*
X116662325Y-116451039D01*
X116669900Y-116405846D01*
X116684449Y-116367612D01*
X116704857Y-116341122D01*
X116734541Y-116320821D01*
X116767914Y-116308615D01*
X116806065Y-116304409D01*
X116857532Y-116310251D01*
X116897717Y-116326472D01*
X116929255Y-116352494D01*
X116952005Y-116386994D01*
X116966642Y-116431757D01*
X116971998Y-116489728D01*
X116971998Y-116968750D01*
X117289514Y-116968750D01*
X117289514Y-115513062D01*
G37*
G36*
X115810623Y-116069936D02*
G01*
X115810623Y-116968750D01*
X116128139Y-116968750D01*
X116128139Y-116069936D01*
X115810623Y-116069936D01*
G37*
G36*
X116147678Y-115725553D02*
G01*
X116144150Y-115689768D01*
X116133711Y-115656555D01*
X116117026Y-115626091D01*
X116095242Y-115599692D01*
X116068835Y-115577865D01*
X116038380Y-115561224D01*
X116005111Y-115550781D01*
X115969381Y-115547256D01*
X115933596Y-115550784D01*
X115900382Y-115561224D01*
X115869941Y-115577868D01*
X115843596Y-115599692D01*
X115821769Y-115626099D01*
X115805128Y-115656555D01*
X115794631Y-115689772D01*
X115791084Y-115725553D01*
X115794629Y-115761346D01*
X115805128Y-115794628D01*
X115821764Y-115825020D01*
X115843596Y-115851415D01*
X115869932Y-115873195D01*
X115900382Y-115889883D01*
X115933596Y-115900322D01*
X115969381Y-115903851D01*
X116005111Y-115900326D01*
X116038380Y-115889883D01*
X116068844Y-115873199D01*
X116095242Y-115851415D01*
X116117031Y-115825028D01*
X116133711Y-115794628D01*
X116144152Y-115761349D01*
X116147678Y-115725553D01*
G37*
G36*
X114996837Y-116301203D02*
G01*
X115056578Y-116275271D01*
X115113658Y-116260389D01*
X115168875Y-116255560D01*
X115209989Y-116260299D01*
X115240011Y-116273115D01*
X115260538Y-116294002D01*
X115267183Y-116320514D01*
X115262832Y-116345930D01*
X115243522Y-116364325D01*
X115199634Y-116380201D01*
X115123309Y-116397756D01*
X115038155Y-116421632D01*
X114974012Y-116453242D01*
X114926693Y-116491560D01*
X114891032Y-116539966D01*
X114869332Y-116596767D01*
X114861740Y-116664362D01*
X114869840Y-116740315D01*
X114893262Y-116806404D01*
X114930917Y-116864493D01*
X114980884Y-116912574D01*
X115041325Y-116950078D01*
X115115752Y-116979206D01*
X115196965Y-116996801D01*
X115289088Y-117002943D01*
X115378220Y-116996757D01*
X115467254Y-116978052D01*
X115556962Y-116946274D01*
X115648049Y-116900438D01*
X115532644Y-116676803D01*
X115440314Y-116729976D01*
X115356678Y-116759257D01*
X115279471Y-116768470D01*
X115238311Y-116763304D01*
X115207420Y-116749084D01*
X115186045Y-116726618D01*
X115179255Y-116699777D01*
X115183682Y-116670697D01*
X115202153Y-116649555D01*
X115243446Y-116632000D01*
X115314581Y-116615208D01*
X115411517Y-116589122D01*
X115477778Y-116559011D01*
X115520966Y-116526288D01*
X115552801Y-116483560D01*
X115572684Y-116430255D01*
X115579814Y-116363333D01*
X115572595Y-116290315D01*
X115551802Y-116226862D01*
X115517640Y-116170784D01*
X115471202Y-116123898D01*
X115414346Y-116087045D01*
X115344272Y-116058716D01*
X115267240Y-116041713D01*
X115178645Y-116035742D01*
X115080600Y-116042164D01*
X114984535Y-116061405D01*
X114889675Y-116093750D01*
X114996837Y-116301203D01*
G37*
G36*
X113511840Y-116301203D02*
G01*
X113571581Y-116275271D01*
X113628662Y-116260389D01*
X113683879Y-116255560D01*
X113724992Y-116260299D01*
X113755014Y-116273115D01*
X113775541Y-116294002D01*
X113782186Y-116320514D01*
X113777836Y-116345930D01*
X113758525Y-116364325D01*
X113714638Y-116380201D01*
X113638312Y-116397756D01*
X113553158Y-116421632D01*
X113489016Y-116453242D01*
X113441697Y-116491560D01*
X113406036Y-116539966D01*
X113384335Y-116596767D01*
X113376743Y-116664362D01*
X113384844Y-116740315D01*
X113408266Y-116806404D01*
X113445921Y-116864493D01*
X113495888Y-116912574D01*
X113556329Y-116950078D01*
X113630756Y-116979206D01*
X113711969Y-116996801D01*
X113804092Y-117002943D01*
X113893224Y-116996757D01*
X113982257Y-116978052D01*
X114071966Y-116946274D01*
X114163053Y-116900438D01*
X114047648Y-116676803D01*
X113955317Y-116729976D01*
X113871681Y-116759257D01*
X113794475Y-116768470D01*
X113753315Y-116763304D01*
X113722423Y-116749084D01*
X113701049Y-116726618D01*
X113694259Y-116699777D01*
X113698686Y-116670697D01*
X113717157Y-116649555D01*
X113758449Y-116632000D01*
X113829585Y-116615208D01*
X113926521Y-116589122D01*
X113992781Y-116559011D01*
X114035970Y-116526288D01*
X114067805Y-116483560D01*
X114087687Y-116430255D01*
X114094817Y-116363333D01*
X114087598Y-116290315D01*
X114066806Y-116226862D01*
X114032644Y-116170784D01*
X113986205Y-116123898D01*
X113929350Y-116087045D01*
X113859276Y-116058716D01*
X113782244Y-116041713D01*
X113693648Y-116035742D01*
X113595603Y-116042164D01*
X113499538Y-116061405D01*
X113404679Y-116093750D01*
X113511840Y-116301203D01*
G37*
G36*
X112901691Y-116069936D02*
G01*
X112901691Y-116968750D01*
X113219207Y-116968750D01*
X113219207Y-116069936D01*
X112901691Y-116069936D01*
G37*
G36*
X113238746Y-115725553D02*
G01*
X113235218Y-115689768D01*
X113224778Y-115656555D01*
X113208094Y-115626091D01*
X113186310Y-115599692D01*
X113159903Y-115577865D01*
X113129447Y-115561224D01*
X113096179Y-115550781D01*
X113060449Y-115547256D01*
X113024664Y-115550784D01*
X112991450Y-115561224D01*
X112961008Y-115577868D01*
X112934664Y-115599692D01*
X112912836Y-115626099D01*
X112896195Y-115656555D01*
X112885698Y-115689772D01*
X112882151Y-115725553D01*
X112885697Y-115761346D01*
X112896195Y-115794628D01*
X112912832Y-115825020D01*
X112934664Y-115851415D01*
X112961000Y-115873195D01*
X112991450Y-115889883D01*
X113024664Y-115900322D01*
X113060449Y-115903851D01*
X113096179Y-115900326D01*
X113129447Y-115889883D01*
X113159911Y-115873199D01*
X113186310Y-115851415D01*
X113208099Y-115825028D01*
X113224778Y-115794628D01*
X113235219Y-115761349D01*
X113238746Y-115725553D01*
G37*
G36*
X111991886Y-116158092D02*
G01*
X112050754Y-116106596D01*
X112115786Y-116070315D01*
X112188277Y-116048245D01*
X112270094Y-116040627D01*
X112335712Y-116044959D01*
X112396418Y-116057630D01*
X112452971Y-116078408D01*
X112530482Y-116123223D01*
X112595548Y-116181219D01*
X112647941Y-116251188D01*
X112687368Y-116333107D01*
X112711559Y-116422013D01*
X112719730Y-116516671D01*
X112711036Y-116616024D01*
X112685612Y-116706494D01*
X112644413Y-116789074D01*
X112590281Y-116859298D01*
X112523905Y-116917189D01*
X112446865Y-116961193D01*
X112390965Y-116981477D01*
X112331112Y-116993837D01*
X112266583Y-116998059D01*
X112182625Y-116989623D01*
X112110322Y-116965400D01*
X112047257Y-116925739D01*
X111991886Y-116869297D01*
X111991886Y-116968750D01*
X111674371Y-116968750D01*
X111674371Y-116520259D01*
X111981353Y-116520259D01*
X111985571Y-116561355D01*
X111998069Y-116599485D01*
X112017504Y-116634380D01*
X112042032Y-116664667D01*
X112071675Y-116689636D01*
X112106986Y-116708707D01*
X112145717Y-116720530D01*
X112186899Y-116724507D01*
X112229604Y-116720490D01*
X112268568Y-116708707D01*
X112303893Y-116689639D01*
X112333597Y-116664667D01*
X112357824Y-116634208D01*
X112376645Y-116598569D01*
X112388426Y-116559520D01*
X112392445Y-116516671D01*
X112388205Y-116475707D01*
X112375729Y-116438361D01*
X112356352Y-116404115D01*
X112331842Y-116374018D01*
X112302134Y-116349063D01*
X112266812Y-116330054D01*
X112228077Y-116318174D01*
X112186899Y-116314179D01*
X112145721Y-116318174D01*
X112106986Y-116330054D01*
X112071678Y-116349067D01*
X112042032Y-116374018D01*
X112017563Y-116404388D01*
X111998069Y-116440040D01*
X111985556Y-116478910D01*
X111981353Y-116520259D01*
X111674371Y-116520259D01*
X111674371Y-115513062D01*
X111991886Y-115513062D01*
X111991886Y-116158092D01*
G37*
G36*
X111106695Y-116044663D02*
G01*
X111202371Y-116070012D01*
X111288181Y-116111933D01*
X111358916Y-116167404D01*
X111398416Y-116212094D01*
X111431632Y-116263046D01*
X111458674Y-116320972D01*
X111477729Y-116382149D01*
X111489543Y-116449454D01*
X111493631Y-116523770D01*
X111489358Y-116595542D01*
X111476976Y-116660761D01*
X111456918Y-116720309D01*
X111412305Y-116802217D01*
X111352810Y-116871281D01*
X111279542Y-116926680D01*
X111190999Y-116968673D01*
X111093228Y-116994116D01*
X110982782Y-117002943D01*
X110874988Y-116995597D01*
X110784897Y-116975028D01*
X110709547Y-116942778D01*
X110646545Y-116899433D01*
X110594213Y-116844586D01*
X110551708Y-116776866D01*
X110519102Y-116694053D01*
X110824253Y-116694053D01*
X110853856Y-116731175D01*
X110888791Y-116756977D01*
X110930046Y-116772719D01*
X110979423Y-116778240D01*
X111040660Y-116771962D01*
X111087086Y-116754848D01*
X111122213Y-116728076D01*
X111148091Y-116690846D01*
X111164966Y-116640532D01*
X111171230Y-116573076D01*
X110506890Y-116573076D01*
X110506890Y-116539722D01*
X110515561Y-116425769D01*
X110525219Y-116387452D01*
X110801584Y-116387452D01*
X111162529Y-116387452D01*
X111150096Y-116343138D01*
X111130603Y-116307616D01*
X111104140Y-116279298D01*
X111071380Y-116258469D01*
X111032123Y-116245503D01*
X110984690Y-116240906D01*
X110939630Y-116245557D01*
X110900543Y-116258971D01*
X110866156Y-116281053D01*
X110837486Y-116310441D01*
X110816038Y-116345561D01*
X110801584Y-116387452D01*
X110525219Y-116387452D01*
X110540168Y-116328146D01*
X110566114Y-116267748D01*
X110598167Y-116215058D01*
X110636339Y-116169236D01*
X110680956Y-116129668D01*
X110732020Y-116096631D01*
X110790288Y-116070012D01*
X110884954Y-116044648D01*
X110994994Y-116035742D01*
X111106695Y-116044663D01*
G37*
G36*
X110342026Y-116802588D02*
G01*
X110338051Y-116761549D01*
X110326226Y-116722904D01*
X110307290Y-116687497D01*
X110282415Y-116657187D01*
X110252050Y-116632243D01*
X110216699Y-116613300D01*
X110178033Y-116601479D01*
X110136862Y-116597500D01*
X110095691Y-116601479D01*
X110057025Y-116613300D01*
X110021623Y-116632252D01*
X109991308Y-116657187D01*
X109966390Y-116687505D01*
X109947497Y-116722904D01*
X109935673Y-116761549D01*
X109931698Y-116802588D01*
X109935677Y-116843759D01*
X109947497Y-116882425D01*
X109966386Y-116917837D01*
X109991308Y-116948218D01*
X110021618Y-116973093D01*
X110057025Y-116992029D01*
X110095691Y-117003850D01*
X110136862Y-117007828D01*
X110178033Y-117003850D01*
X110216699Y-116992029D01*
X110252055Y-116973101D01*
X110282415Y-116948218D01*
X110307294Y-116917846D01*
X110326226Y-116882425D01*
X110338047Y-116843759D01*
X110342026Y-116802588D01*
G37*
D13*
X137609580Y-155157142D02*
X137657200Y-155109523D01*
X137657200Y-155109523D02*
X137704819Y-154966666D01*
X137704819Y-154966666D02*
X137704819Y-154871428D01*
X137704819Y-154871428D02*
X137657200Y-154728571D01*
X137657200Y-154728571D02*
X137561961Y-154633333D01*
X137561961Y-154633333D02*
X137466723Y-154585714D01*
X137466723Y-154585714D02*
X137276247Y-154538095D01*
X137276247Y-154538095D02*
X137133390Y-154538095D01*
X137133390Y-154538095D02*
X136942914Y-154585714D01*
X136942914Y-154585714D02*
X136847676Y-154633333D01*
X136847676Y-154633333D02*
X136752438Y-154728571D01*
X136752438Y-154728571D02*
X136704819Y-154871428D01*
X136704819Y-154871428D02*
X136704819Y-154966666D01*
X136704819Y-154966666D02*
X136752438Y-155109523D01*
X136752438Y-155109523D02*
X136800057Y-155157142D01*
X137704819Y-156109523D02*
X137704819Y-155538095D01*
X137704819Y-155823809D02*
X136704819Y-155823809D01*
X136704819Y-155823809D02*
X136847676Y-155728571D01*
X136847676Y-155728571D02*
X136942914Y-155633333D01*
X136942914Y-155633333D02*
X136990533Y-155538095D01*
X136704819Y-156728571D02*
X136704819Y-156823809D01*
X136704819Y-156823809D02*
X136752438Y-156919047D01*
X136752438Y-156919047D02*
X136800057Y-156966666D01*
X136800057Y-156966666D02*
X136895295Y-157014285D01*
X136895295Y-157014285D02*
X137085771Y-157061904D01*
X137085771Y-157061904D02*
X137323866Y-157061904D01*
X137323866Y-157061904D02*
X137514342Y-157014285D01*
X137514342Y-157014285D02*
X137609580Y-156966666D01*
X137609580Y-156966666D02*
X137657200Y-156919047D01*
X137657200Y-156919047D02*
X137704819Y-156823809D01*
X137704819Y-156823809D02*
X137704819Y-156728571D01*
X137704819Y-156728571D02*
X137657200Y-156633333D01*
X137657200Y-156633333D02*
X137609580Y-156585714D01*
X137609580Y-156585714D02*
X137514342Y-156538095D01*
X137514342Y-156538095D02*
X137323866Y-156490476D01*
X137323866Y-156490476D02*
X137085771Y-156490476D01*
X137085771Y-156490476D02*
X136895295Y-156538095D01*
X136895295Y-156538095D02*
X136800057Y-156585714D01*
X136800057Y-156585714D02*
X136752438Y-156633333D01*
X136752438Y-156633333D02*
X136704819Y-156728571D01*
X126021428Y-143974819D02*
X125830952Y-143974819D01*
X125830952Y-143974819D02*
X125735714Y-144022438D01*
X125735714Y-144022438D02*
X125640476Y-144117676D01*
X125640476Y-144117676D02*
X125592857Y-144308152D01*
X125592857Y-144308152D02*
X125592857Y-144641485D01*
X125592857Y-144641485D02*
X125640476Y-144831961D01*
X125640476Y-144831961D02*
X125735714Y-144927200D01*
X125735714Y-144927200D02*
X125830952Y-144974819D01*
X125830952Y-144974819D02*
X126021428Y-144974819D01*
X126021428Y-144974819D02*
X126116666Y-144927200D01*
X126116666Y-144927200D02*
X126211904Y-144831961D01*
X126211904Y-144831961D02*
X126259523Y-144641485D01*
X126259523Y-144641485D02*
X126259523Y-144308152D01*
X126259523Y-144308152D02*
X126211904Y-144117676D01*
X126211904Y-144117676D02*
X126116666Y-144022438D01*
X126116666Y-144022438D02*
X126021428Y-143974819D01*
X125164285Y-144974819D02*
X125164285Y-143974819D01*
X125164285Y-143974819D02*
X124783333Y-143974819D01*
X124783333Y-143974819D02*
X124688095Y-144022438D01*
X124688095Y-144022438D02*
X124640476Y-144070057D01*
X124640476Y-144070057D02*
X124592857Y-144165295D01*
X124592857Y-144165295D02*
X124592857Y-144308152D01*
X124592857Y-144308152D02*
X124640476Y-144403390D01*
X124640476Y-144403390D02*
X124688095Y-144451009D01*
X124688095Y-144451009D02*
X124783333Y-144498628D01*
X124783333Y-144498628D02*
X125164285Y-144498628D01*
X124259523Y-143974819D02*
X123640476Y-143974819D01*
X123640476Y-143974819D02*
X123973809Y-144355771D01*
X123973809Y-144355771D02*
X123830952Y-144355771D01*
X123830952Y-144355771D02*
X123735714Y-144403390D01*
X123735714Y-144403390D02*
X123688095Y-144451009D01*
X123688095Y-144451009D02*
X123640476Y-144546247D01*
X123640476Y-144546247D02*
X123640476Y-144784342D01*
X123640476Y-144784342D02*
X123688095Y-144879580D01*
X123688095Y-144879580D02*
X123735714Y-144927200D01*
X123735714Y-144927200D02*
X123830952Y-144974819D01*
X123830952Y-144974819D02*
X124116666Y-144974819D01*
X124116666Y-144974819D02*
X124211904Y-144927200D01*
X124211904Y-144927200D02*
X124259523Y-144879580D01*
X135104819Y-143257142D02*
X134628628Y-142923809D01*
X135104819Y-142685714D02*
X134104819Y-142685714D01*
X134104819Y-142685714D02*
X134104819Y-143066666D01*
X134104819Y-143066666D02*
X134152438Y-143161904D01*
X134152438Y-143161904D02*
X134200057Y-143209523D01*
X134200057Y-143209523D02*
X134295295Y-143257142D01*
X134295295Y-143257142D02*
X134438152Y-143257142D01*
X134438152Y-143257142D02*
X134533390Y-143209523D01*
X134533390Y-143209523D02*
X134581009Y-143161904D01*
X134581009Y-143161904D02*
X134628628Y-143066666D01*
X134628628Y-143066666D02*
X134628628Y-142685714D01*
X134200057Y-143638095D02*
X134152438Y-143685714D01*
X134152438Y-143685714D02*
X134104819Y-143780952D01*
X134104819Y-143780952D02*
X134104819Y-144019047D01*
X134104819Y-144019047D02*
X134152438Y-144114285D01*
X134152438Y-144114285D02*
X134200057Y-144161904D01*
X134200057Y-144161904D02*
X134295295Y-144209523D01*
X134295295Y-144209523D02*
X134390533Y-144209523D01*
X134390533Y-144209523D02*
X134533390Y-144161904D01*
X134533390Y-144161904D02*
X135104819Y-143590476D01*
X135104819Y-143590476D02*
X135104819Y-144209523D01*
X134104819Y-145114285D02*
X134104819Y-144638095D01*
X134104819Y-144638095D02*
X134581009Y-144590476D01*
X134581009Y-144590476D02*
X134533390Y-144638095D01*
X134533390Y-144638095D02*
X134485771Y-144733333D01*
X134485771Y-144733333D02*
X134485771Y-144971428D01*
X134485771Y-144971428D02*
X134533390Y-145066666D01*
X134533390Y-145066666D02*
X134581009Y-145114285D01*
X134581009Y-145114285D02*
X134676247Y-145161904D01*
X134676247Y-145161904D02*
X134914342Y-145161904D01*
X134914342Y-145161904D02*
X135009580Y-145114285D01*
X135009580Y-145114285D02*
X135057200Y-145066666D01*
X135057200Y-145066666D02*
X135104819Y-144971428D01*
X135104819Y-144971428D02*
X135104819Y-144733333D01*
X135104819Y-144733333D02*
X135057200Y-144638095D01*
X135057200Y-144638095D02*
X135009580Y-144590476D01*
X131242857Y-188154819D02*
X131576190Y-187678628D01*
X131814285Y-188154819D02*
X131814285Y-187154819D01*
X131814285Y-187154819D02*
X131433333Y-187154819D01*
X131433333Y-187154819D02*
X131338095Y-187202438D01*
X131338095Y-187202438D02*
X131290476Y-187250057D01*
X131290476Y-187250057D02*
X131242857Y-187345295D01*
X131242857Y-187345295D02*
X131242857Y-187488152D01*
X131242857Y-187488152D02*
X131290476Y-187583390D01*
X131290476Y-187583390D02*
X131338095Y-187631009D01*
X131338095Y-187631009D02*
X131433333Y-187678628D01*
X131433333Y-187678628D02*
X131814285Y-187678628D01*
X130290476Y-188154819D02*
X130861904Y-188154819D01*
X130576190Y-188154819D02*
X130576190Y-187154819D01*
X130576190Y-187154819D02*
X130671428Y-187297676D01*
X130671428Y-187297676D02*
X130766666Y-187392914D01*
X130766666Y-187392914D02*
X130861904Y-187440533D01*
X129385714Y-187154819D02*
X129861904Y-187154819D01*
X129861904Y-187154819D02*
X129909523Y-187631009D01*
X129909523Y-187631009D02*
X129861904Y-187583390D01*
X129861904Y-187583390D02*
X129766666Y-187535771D01*
X129766666Y-187535771D02*
X129528571Y-187535771D01*
X129528571Y-187535771D02*
X129433333Y-187583390D01*
X129433333Y-187583390D02*
X129385714Y-187631009D01*
X129385714Y-187631009D02*
X129338095Y-187726247D01*
X129338095Y-187726247D02*
X129338095Y-187964342D01*
X129338095Y-187964342D02*
X129385714Y-188059580D01*
X129385714Y-188059580D02*
X129433333Y-188107200D01*
X129433333Y-188107200D02*
X129528571Y-188154819D01*
X129528571Y-188154819D02*
X129766666Y-188154819D01*
X129766666Y-188154819D02*
X129861904Y-188107200D01*
X129861904Y-188107200D02*
X129909523Y-188059580D01*
X115409580Y-146133333D02*
X115457200Y-146085714D01*
X115457200Y-146085714D02*
X115504819Y-145942857D01*
X115504819Y-145942857D02*
X115504819Y-145847619D01*
X115504819Y-145847619D02*
X115457200Y-145704762D01*
X115457200Y-145704762D02*
X115361961Y-145609524D01*
X115361961Y-145609524D02*
X115266723Y-145561905D01*
X115266723Y-145561905D02*
X115076247Y-145514286D01*
X115076247Y-145514286D02*
X114933390Y-145514286D01*
X114933390Y-145514286D02*
X114742914Y-145561905D01*
X114742914Y-145561905D02*
X114647676Y-145609524D01*
X114647676Y-145609524D02*
X114552438Y-145704762D01*
X114552438Y-145704762D02*
X114504819Y-145847619D01*
X114504819Y-145847619D02*
X114504819Y-145942857D01*
X114504819Y-145942857D02*
X114552438Y-146085714D01*
X114552438Y-146085714D02*
X114600057Y-146133333D01*
X114504819Y-146990476D02*
X114504819Y-146800000D01*
X114504819Y-146800000D02*
X114552438Y-146704762D01*
X114552438Y-146704762D02*
X114600057Y-146657143D01*
X114600057Y-146657143D02*
X114742914Y-146561905D01*
X114742914Y-146561905D02*
X114933390Y-146514286D01*
X114933390Y-146514286D02*
X115314342Y-146514286D01*
X115314342Y-146514286D02*
X115409580Y-146561905D01*
X115409580Y-146561905D02*
X115457200Y-146609524D01*
X115457200Y-146609524D02*
X115504819Y-146704762D01*
X115504819Y-146704762D02*
X115504819Y-146895238D01*
X115504819Y-146895238D02*
X115457200Y-146990476D01*
X115457200Y-146990476D02*
X115409580Y-147038095D01*
X115409580Y-147038095D02*
X115314342Y-147085714D01*
X115314342Y-147085714D02*
X115076247Y-147085714D01*
X115076247Y-147085714D02*
X114981009Y-147038095D01*
X114981009Y-147038095D02*
X114933390Y-146990476D01*
X114933390Y-146990476D02*
X114885771Y-146895238D01*
X114885771Y-146895238D02*
X114885771Y-146704762D01*
X114885771Y-146704762D02*
X114933390Y-146609524D01*
X114933390Y-146609524D02*
X114981009Y-146561905D01*
X114981009Y-146561905D02*
X115076247Y-146514286D01*
X130266666Y-168459580D02*
X130314285Y-168507200D01*
X130314285Y-168507200D02*
X130457142Y-168554819D01*
X130457142Y-168554819D02*
X130552380Y-168554819D01*
X130552380Y-168554819D02*
X130695237Y-168507200D01*
X130695237Y-168507200D02*
X130790475Y-168411961D01*
X130790475Y-168411961D02*
X130838094Y-168316723D01*
X130838094Y-168316723D02*
X130885713Y-168126247D01*
X130885713Y-168126247D02*
X130885713Y-167983390D01*
X130885713Y-167983390D02*
X130838094Y-167792914D01*
X130838094Y-167792914D02*
X130790475Y-167697676D01*
X130790475Y-167697676D02*
X130695237Y-167602438D01*
X130695237Y-167602438D02*
X130552380Y-167554819D01*
X130552380Y-167554819D02*
X130457142Y-167554819D01*
X130457142Y-167554819D02*
X130314285Y-167602438D01*
X130314285Y-167602438D02*
X130266666Y-167650057D01*
X129790475Y-168554819D02*
X129599999Y-168554819D01*
X129599999Y-168554819D02*
X129504761Y-168507200D01*
X129504761Y-168507200D02*
X129457142Y-168459580D01*
X129457142Y-168459580D02*
X129361904Y-168316723D01*
X129361904Y-168316723D02*
X129314285Y-168126247D01*
X129314285Y-168126247D02*
X129314285Y-167745295D01*
X129314285Y-167745295D02*
X129361904Y-167650057D01*
X129361904Y-167650057D02*
X129409523Y-167602438D01*
X129409523Y-167602438D02*
X129504761Y-167554819D01*
X129504761Y-167554819D02*
X129695237Y-167554819D01*
X129695237Y-167554819D02*
X129790475Y-167602438D01*
X129790475Y-167602438D02*
X129838094Y-167650057D01*
X129838094Y-167650057D02*
X129885713Y-167745295D01*
X129885713Y-167745295D02*
X129885713Y-167983390D01*
X129885713Y-167983390D02*
X129838094Y-168078628D01*
X129838094Y-168078628D02*
X129790475Y-168126247D01*
X129790475Y-168126247D02*
X129695237Y-168173866D01*
X129695237Y-168173866D02*
X129504761Y-168173866D01*
X129504761Y-168173866D02*
X129409523Y-168126247D01*
X129409523Y-168126247D02*
X129361904Y-168078628D01*
X129361904Y-168078628D02*
X129314285Y-167983390D01*
X135992857Y-152004819D02*
X136326190Y-151528628D01*
X136564285Y-152004819D02*
X136564285Y-151004819D01*
X136564285Y-151004819D02*
X136183333Y-151004819D01*
X136183333Y-151004819D02*
X136088095Y-151052438D01*
X136088095Y-151052438D02*
X136040476Y-151100057D01*
X136040476Y-151100057D02*
X135992857Y-151195295D01*
X135992857Y-151195295D02*
X135992857Y-151338152D01*
X135992857Y-151338152D02*
X136040476Y-151433390D01*
X136040476Y-151433390D02*
X136088095Y-151481009D01*
X136088095Y-151481009D02*
X136183333Y-151528628D01*
X136183333Y-151528628D02*
X136564285Y-151528628D01*
X135040476Y-152004819D02*
X135611904Y-152004819D01*
X135326190Y-152004819D02*
X135326190Y-151004819D01*
X135326190Y-151004819D02*
X135421428Y-151147676D01*
X135421428Y-151147676D02*
X135516666Y-151242914D01*
X135516666Y-151242914D02*
X135611904Y-151290533D01*
X134469047Y-151433390D02*
X134564285Y-151385771D01*
X134564285Y-151385771D02*
X134611904Y-151338152D01*
X134611904Y-151338152D02*
X134659523Y-151242914D01*
X134659523Y-151242914D02*
X134659523Y-151195295D01*
X134659523Y-151195295D02*
X134611904Y-151100057D01*
X134611904Y-151100057D02*
X134564285Y-151052438D01*
X134564285Y-151052438D02*
X134469047Y-151004819D01*
X134469047Y-151004819D02*
X134278571Y-151004819D01*
X134278571Y-151004819D02*
X134183333Y-151052438D01*
X134183333Y-151052438D02*
X134135714Y-151100057D01*
X134135714Y-151100057D02*
X134088095Y-151195295D01*
X134088095Y-151195295D02*
X134088095Y-151242914D01*
X134088095Y-151242914D02*
X134135714Y-151338152D01*
X134135714Y-151338152D02*
X134183333Y-151385771D01*
X134183333Y-151385771D02*
X134278571Y-151433390D01*
X134278571Y-151433390D02*
X134469047Y-151433390D01*
X134469047Y-151433390D02*
X134564285Y-151481009D01*
X134564285Y-151481009D02*
X134611904Y-151528628D01*
X134611904Y-151528628D02*
X134659523Y-151623866D01*
X134659523Y-151623866D02*
X134659523Y-151814342D01*
X134659523Y-151814342D02*
X134611904Y-151909580D01*
X134611904Y-151909580D02*
X134564285Y-151957200D01*
X134564285Y-151957200D02*
X134469047Y-152004819D01*
X134469047Y-152004819D02*
X134278571Y-152004819D01*
X134278571Y-152004819D02*
X134183333Y-151957200D01*
X134183333Y-151957200D02*
X134135714Y-151909580D01*
X134135714Y-151909580D02*
X134088095Y-151814342D01*
X134088095Y-151814342D02*
X134088095Y-151623866D01*
X134088095Y-151623866D02*
X134135714Y-151528628D01*
X134135714Y-151528628D02*
X134183333Y-151481009D01*
X134183333Y-151481009D02*
X134278571Y-151433390D01*
X123366666Y-199254819D02*
X123699999Y-198778628D01*
X123938094Y-199254819D02*
X123938094Y-198254819D01*
X123938094Y-198254819D02*
X123557142Y-198254819D01*
X123557142Y-198254819D02*
X123461904Y-198302438D01*
X123461904Y-198302438D02*
X123414285Y-198350057D01*
X123414285Y-198350057D02*
X123366666Y-198445295D01*
X123366666Y-198445295D02*
X123366666Y-198588152D01*
X123366666Y-198588152D02*
X123414285Y-198683390D01*
X123414285Y-198683390D02*
X123461904Y-198731009D01*
X123461904Y-198731009D02*
X123557142Y-198778628D01*
X123557142Y-198778628D02*
X123938094Y-198778628D01*
X122509523Y-198254819D02*
X122699999Y-198254819D01*
X122699999Y-198254819D02*
X122795237Y-198302438D01*
X122795237Y-198302438D02*
X122842856Y-198350057D01*
X122842856Y-198350057D02*
X122938094Y-198492914D01*
X122938094Y-198492914D02*
X122985713Y-198683390D01*
X122985713Y-198683390D02*
X122985713Y-199064342D01*
X122985713Y-199064342D02*
X122938094Y-199159580D01*
X122938094Y-199159580D02*
X122890475Y-199207200D01*
X122890475Y-199207200D02*
X122795237Y-199254819D01*
X122795237Y-199254819D02*
X122604761Y-199254819D01*
X122604761Y-199254819D02*
X122509523Y-199207200D01*
X122509523Y-199207200D02*
X122461904Y-199159580D01*
X122461904Y-199159580D02*
X122414285Y-199064342D01*
X122414285Y-199064342D02*
X122414285Y-198826247D01*
X122414285Y-198826247D02*
X122461904Y-198731009D01*
X122461904Y-198731009D02*
X122509523Y-198683390D01*
X122509523Y-198683390D02*
X122604761Y-198635771D01*
X122604761Y-198635771D02*
X122795237Y-198635771D01*
X122795237Y-198635771D02*
X122890475Y-198683390D01*
X122890475Y-198683390D02*
X122938094Y-198731009D01*
X122938094Y-198731009D02*
X122985713Y-198826247D01*
X107866666Y-199254819D02*
X108199999Y-198778628D01*
X108438094Y-199254819D02*
X108438094Y-198254819D01*
X108438094Y-198254819D02*
X108057142Y-198254819D01*
X108057142Y-198254819D02*
X107961904Y-198302438D01*
X107961904Y-198302438D02*
X107914285Y-198350057D01*
X107914285Y-198350057D02*
X107866666Y-198445295D01*
X107866666Y-198445295D02*
X107866666Y-198588152D01*
X107866666Y-198588152D02*
X107914285Y-198683390D01*
X107914285Y-198683390D02*
X107961904Y-198731009D01*
X107961904Y-198731009D02*
X108057142Y-198778628D01*
X108057142Y-198778628D02*
X108438094Y-198778628D01*
X107295237Y-198683390D02*
X107390475Y-198635771D01*
X107390475Y-198635771D02*
X107438094Y-198588152D01*
X107438094Y-198588152D02*
X107485713Y-198492914D01*
X107485713Y-198492914D02*
X107485713Y-198445295D01*
X107485713Y-198445295D02*
X107438094Y-198350057D01*
X107438094Y-198350057D02*
X107390475Y-198302438D01*
X107390475Y-198302438D02*
X107295237Y-198254819D01*
X107295237Y-198254819D02*
X107104761Y-198254819D01*
X107104761Y-198254819D02*
X107009523Y-198302438D01*
X107009523Y-198302438D02*
X106961904Y-198350057D01*
X106961904Y-198350057D02*
X106914285Y-198445295D01*
X106914285Y-198445295D02*
X106914285Y-198492914D01*
X106914285Y-198492914D02*
X106961904Y-198588152D01*
X106961904Y-198588152D02*
X107009523Y-198635771D01*
X107009523Y-198635771D02*
X107104761Y-198683390D01*
X107104761Y-198683390D02*
X107295237Y-198683390D01*
X107295237Y-198683390D02*
X107390475Y-198731009D01*
X107390475Y-198731009D02*
X107438094Y-198778628D01*
X107438094Y-198778628D02*
X107485713Y-198873866D01*
X107485713Y-198873866D02*
X107485713Y-199064342D01*
X107485713Y-199064342D02*
X107438094Y-199159580D01*
X107438094Y-199159580D02*
X107390475Y-199207200D01*
X107390475Y-199207200D02*
X107295237Y-199254819D01*
X107295237Y-199254819D02*
X107104761Y-199254819D01*
X107104761Y-199254819D02*
X107009523Y-199207200D01*
X107009523Y-199207200D02*
X106961904Y-199159580D01*
X106961904Y-199159580D02*
X106914285Y-199064342D01*
X106914285Y-199064342D02*
X106914285Y-198873866D01*
X106914285Y-198873866D02*
X106961904Y-198778628D01*
X106961904Y-198778628D02*
X107009523Y-198731009D01*
X107009523Y-198731009D02*
X107104761Y-198683390D01*
X111242857Y-150204819D02*
X111576190Y-149728628D01*
X111814285Y-150204819D02*
X111814285Y-149204819D01*
X111814285Y-149204819D02*
X111433333Y-149204819D01*
X111433333Y-149204819D02*
X111338095Y-149252438D01*
X111338095Y-149252438D02*
X111290476Y-149300057D01*
X111290476Y-149300057D02*
X111242857Y-149395295D01*
X111242857Y-149395295D02*
X111242857Y-149538152D01*
X111242857Y-149538152D02*
X111290476Y-149633390D01*
X111290476Y-149633390D02*
X111338095Y-149681009D01*
X111338095Y-149681009D02*
X111433333Y-149728628D01*
X111433333Y-149728628D02*
X111814285Y-149728628D01*
X110909523Y-149204819D02*
X110290476Y-149204819D01*
X110290476Y-149204819D02*
X110623809Y-149585771D01*
X110623809Y-149585771D02*
X110480952Y-149585771D01*
X110480952Y-149585771D02*
X110385714Y-149633390D01*
X110385714Y-149633390D02*
X110338095Y-149681009D01*
X110338095Y-149681009D02*
X110290476Y-149776247D01*
X110290476Y-149776247D02*
X110290476Y-150014342D01*
X110290476Y-150014342D02*
X110338095Y-150109580D01*
X110338095Y-150109580D02*
X110385714Y-150157200D01*
X110385714Y-150157200D02*
X110480952Y-150204819D01*
X110480952Y-150204819D02*
X110766666Y-150204819D01*
X110766666Y-150204819D02*
X110861904Y-150157200D01*
X110861904Y-150157200D02*
X110909523Y-150109580D01*
X109433333Y-149204819D02*
X109623809Y-149204819D01*
X109623809Y-149204819D02*
X109719047Y-149252438D01*
X109719047Y-149252438D02*
X109766666Y-149300057D01*
X109766666Y-149300057D02*
X109861904Y-149442914D01*
X109861904Y-149442914D02*
X109909523Y-149633390D01*
X109909523Y-149633390D02*
X109909523Y-150014342D01*
X109909523Y-150014342D02*
X109861904Y-150109580D01*
X109861904Y-150109580D02*
X109814285Y-150157200D01*
X109814285Y-150157200D02*
X109719047Y-150204819D01*
X109719047Y-150204819D02*
X109528571Y-150204819D01*
X109528571Y-150204819D02*
X109433333Y-150157200D01*
X109433333Y-150157200D02*
X109385714Y-150109580D01*
X109385714Y-150109580D02*
X109338095Y-150014342D01*
X109338095Y-150014342D02*
X109338095Y-149776247D01*
X109338095Y-149776247D02*
X109385714Y-149681009D01*
X109385714Y-149681009D02*
X109433333Y-149633390D01*
X109433333Y-149633390D02*
X109528571Y-149585771D01*
X109528571Y-149585771D02*
X109719047Y-149585771D01*
X109719047Y-149585771D02*
X109814285Y-149633390D01*
X109814285Y-149633390D02*
X109861904Y-149681009D01*
X109861904Y-149681009D02*
X109909523Y-149776247D01*
X143181904Y-179844819D02*
X143181904Y-180654342D01*
X143181904Y-180654342D02*
X143134285Y-180749580D01*
X143134285Y-180749580D02*
X143086666Y-180797200D01*
X143086666Y-180797200D02*
X142991428Y-180844819D01*
X142991428Y-180844819D02*
X142800952Y-180844819D01*
X142800952Y-180844819D02*
X142705714Y-180797200D01*
X142705714Y-180797200D02*
X142658095Y-180749580D01*
X142658095Y-180749580D02*
X142610476Y-180654342D01*
X142610476Y-180654342D02*
X142610476Y-179844819D01*
X141610476Y-180844819D02*
X142181904Y-180844819D01*
X141896190Y-180844819D02*
X141896190Y-179844819D01*
X141896190Y-179844819D02*
X141991428Y-179987676D01*
X141991428Y-179987676D02*
X142086666Y-180082914D01*
X142086666Y-180082914D02*
X142181904Y-180130533D01*
X133454819Y-143257142D02*
X132978628Y-142923809D01*
X133454819Y-142685714D02*
X132454819Y-142685714D01*
X132454819Y-142685714D02*
X132454819Y-143066666D01*
X132454819Y-143066666D02*
X132502438Y-143161904D01*
X132502438Y-143161904D02*
X132550057Y-143209523D01*
X132550057Y-143209523D02*
X132645295Y-143257142D01*
X132645295Y-143257142D02*
X132788152Y-143257142D01*
X132788152Y-143257142D02*
X132883390Y-143209523D01*
X132883390Y-143209523D02*
X132931009Y-143161904D01*
X132931009Y-143161904D02*
X132978628Y-143066666D01*
X132978628Y-143066666D02*
X132978628Y-142685714D01*
X132550057Y-143638095D02*
X132502438Y-143685714D01*
X132502438Y-143685714D02*
X132454819Y-143780952D01*
X132454819Y-143780952D02*
X132454819Y-144019047D01*
X132454819Y-144019047D02*
X132502438Y-144114285D01*
X132502438Y-144114285D02*
X132550057Y-144161904D01*
X132550057Y-144161904D02*
X132645295Y-144209523D01*
X132645295Y-144209523D02*
X132740533Y-144209523D01*
X132740533Y-144209523D02*
X132883390Y-144161904D01*
X132883390Y-144161904D02*
X133454819Y-143590476D01*
X133454819Y-143590476D02*
X133454819Y-144209523D01*
X132454819Y-145066666D02*
X132454819Y-144876190D01*
X132454819Y-144876190D02*
X132502438Y-144780952D01*
X132502438Y-144780952D02*
X132550057Y-144733333D01*
X132550057Y-144733333D02*
X132692914Y-144638095D01*
X132692914Y-144638095D02*
X132883390Y-144590476D01*
X132883390Y-144590476D02*
X133264342Y-144590476D01*
X133264342Y-144590476D02*
X133359580Y-144638095D01*
X133359580Y-144638095D02*
X133407200Y-144685714D01*
X133407200Y-144685714D02*
X133454819Y-144780952D01*
X133454819Y-144780952D02*
X133454819Y-144971428D01*
X133454819Y-144971428D02*
X133407200Y-145066666D01*
X133407200Y-145066666D02*
X133359580Y-145114285D01*
X133359580Y-145114285D02*
X133264342Y-145161904D01*
X133264342Y-145161904D02*
X133026247Y-145161904D01*
X133026247Y-145161904D02*
X132931009Y-145114285D01*
X132931009Y-145114285D02*
X132883390Y-145066666D01*
X132883390Y-145066666D02*
X132835771Y-144971428D01*
X132835771Y-144971428D02*
X132835771Y-144780952D01*
X132835771Y-144780952D02*
X132883390Y-144685714D01*
X132883390Y-144685714D02*
X132931009Y-144638095D01*
X132931009Y-144638095D02*
X133026247Y-144590476D01*
X122566666Y-172559580D02*
X122614285Y-172607200D01*
X122614285Y-172607200D02*
X122757142Y-172654819D01*
X122757142Y-172654819D02*
X122852380Y-172654819D01*
X122852380Y-172654819D02*
X122995237Y-172607200D01*
X122995237Y-172607200D02*
X123090475Y-172511961D01*
X123090475Y-172511961D02*
X123138094Y-172416723D01*
X123138094Y-172416723D02*
X123185713Y-172226247D01*
X123185713Y-172226247D02*
X123185713Y-172083390D01*
X123185713Y-172083390D02*
X123138094Y-171892914D01*
X123138094Y-171892914D02*
X123090475Y-171797676D01*
X123090475Y-171797676D02*
X122995237Y-171702438D01*
X122995237Y-171702438D02*
X122852380Y-171654819D01*
X122852380Y-171654819D02*
X122757142Y-171654819D01*
X122757142Y-171654819D02*
X122614285Y-171702438D01*
X122614285Y-171702438D02*
X122566666Y-171750057D01*
X122185713Y-171750057D02*
X122138094Y-171702438D01*
X122138094Y-171702438D02*
X122042856Y-171654819D01*
X122042856Y-171654819D02*
X121804761Y-171654819D01*
X121804761Y-171654819D02*
X121709523Y-171702438D01*
X121709523Y-171702438D02*
X121661904Y-171750057D01*
X121661904Y-171750057D02*
X121614285Y-171845295D01*
X121614285Y-171845295D02*
X121614285Y-171940533D01*
X121614285Y-171940533D02*
X121661904Y-172083390D01*
X121661904Y-172083390D02*
X122233332Y-172654819D01*
X122233332Y-172654819D02*
X121614285Y-172654819D01*
X145642857Y-136054819D02*
X145976190Y-135578628D01*
X146214285Y-136054819D02*
X146214285Y-135054819D01*
X146214285Y-135054819D02*
X145833333Y-135054819D01*
X145833333Y-135054819D02*
X145738095Y-135102438D01*
X145738095Y-135102438D02*
X145690476Y-135150057D01*
X145690476Y-135150057D02*
X145642857Y-135245295D01*
X145642857Y-135245295D02*
X145642857Y-135388152D01*
X145642857Y-135388152D02*
X145690476Y-135483390D01*
X145690476Y-135483390D02*
X145738095Y-135531009D01*
X145738095Y-135531009D02*
X145833333Y-135578628D01*
X145833333Y-135578628D02*
X146214285Y-135578628D01*
X144690476Y-136054819D02*
X145261904Y-136054819D01*
X144976190Y-136054819D02*
X144976190Y-135054819D01*
X144976190Y-135054819D02*
X145071428Y-135197676D01*
X145071428Y-135197676D02*
X145166666Y-135292914D01*
X145166666Y-135292914D02*
X145261904Y-135340533D01*
X143833333Y-135388152D02*
X143833333Y-136054819D01*
X144071428Y-135007200D02*
X144309523Y-135721485D01*
X144309523Y-135721485D02*
X143690476Y-135721485D01*
X108654819Y-203283333D02*
X108178628Y-202950000D01*
X108654819Y-202711905D02*
X107654819Y-202711905D01*
X107654819Y-202711905D02*
X107654819Y-203092857D01*
X107654819Y-203092857D02*
X107702438Y-203188095D01*
X107702438Y-203188095D02*
X107750057Y-203235714D01*
X107750057Y-203235714D02*
X107845295Y-203283333D01*
X107845295Y-203283333D02*
X107988152Y-203283333D01*
X107988152Y-203283333D02*
X108083390Y-203235714D01*
X108083390Y-203235714D02*
X108131009Y-203188095D01*
X108131009Y-203188095D02*
X108178628Y-203092857D01*
X108178628Y-203092857D02*
X108178628Y-202711905D01*
X107654819Y-203616667D02*
X107654819Y-204283333D01*
X107654819Y-204283333D02*
X108654819Y-203854762D01*
X113542857Y-133604819D02*
X113876190Y-133128628D01*
X114114285Y-133604819D02*
X114114285Y-132604819D01*
X114114285Y-132604819D02*
X113733333Y-132604819D01*
X113733333Y-132604819D02*
X113638095Y-132652438D01*
X113638095Y-132652438D02*
X113590476Y-132700057D01*
X113590476Y-132700057D02*
X113542857Y-132795295D01*
X113542857Y-132795295D02*
X113542857Y-132938152D01*
X113542857Y-132938152D02*
X113590476Y-133033390D01*
X113590476Y-133033390D02*
X113638095Y-133081009D01*
X113638095Y-133081009D02*
X113733333Y-133128628D01*
X113733333Y-133128628D02*
X114114285Y-133128628D01*
X112685714Y-132938152D02*
X112685714Y-133604819D01*
X112923809Y-132557200D02*
X113161904Y-133271485D01*
X113161904Y-133271485D02*
X112542857Y-133271485D01*
X111971428Y-132604819D02*
X111876190Y-132604819D01*
X111876190Y-132604819D02*
X111780952Y-132652438D01*
X111780952Y-132652438D02*
X111733333Y-132700057D01*
X111733333Y-132700057D02*
X111685714Y-132795295D01*
X111685714Y-132795295D02*
X111638095Y-132985771D01*
X111638095Y-132985771D02*
X111638095Y-133223866D01*
X111638095Y-133223866D02*
X111685714Y-133414342D01*
X111685714Y-133414342D02*
X111733333Y-133509580D01*
X111733333Y-133509580D02*
X111780952Y-133557200D01*
X111780952Y-133557200D02*
X111876190Y-133604819D01*
X111876190Y-133604819D02*
X111971428Y-133604819D01*
X111971428Y-133604819D02*
X112066666Y-133557200D01*
X112066666Y-133557200D02*
X112114285Y-133509580D01*
X112114285Y-133509580D02*
X112161904Y-133414342D01*
X112161904Y-133414342D02*
X112209523Y-133223866D01*
X112209523Y-133223866D02*
X112209523Y-132985771D01*
X112209523Y-132985771D02*
X112161904Y-132795295D01*
X112161904Y-132795295D02*
X112114285Y-132700057D01*
X112114285Y-132700057D02*
X112066666Y-132652438D01*
X112066666Y-132652438D02*
X111971428Y-132604819D01*
X113454819Y-206633333D02*
X112978628Y-206300000D01*
X113454819Y-206061905D02*
X112454819Y-206061905D01*
X112454819Y-206061905D02*
X112454819Y-206442857D01*
X112454819Y-206442857D02*
X112502438Y-206538095D01*
X112502438Y-206538095D02*
X112550057Y-206585714D01*
X112550057Y-206585714D02*
X112645295Y-206633333D01*
X112645295Y-206633333D02*
X112788152Y-206633333D01*
X112788152Y-206633333D02*
X112883390Y-206585714D01*
X112883390Y-206585714D02*
X112931009Y-206538095D01*
X112931009Y-206538095D02*
X112978628Y-206442857D01*
X112978628Y-206442857D02*
X112978628Y-206061905D01*
X112454819Y-206966667D02*
X112454819Y-207585714D01*
X112454819Y-207585714D02*
X112835771Y-207252381D01*
X112835771Y-207252381D02*
X112835771Y-207395238D01*
X112835771Y-207395238D02*
X112883390Y-207490476D01*
X112883390Y-207490476D02*
X112931009Y-207538095D01*
X112931009Y-207538095D02*
X113026247Y-207585714D01*
X113026247Y-207585714D02*
X113264342Y-207585714D01*
X113264342Y-207585714D02*
X113359580Y-207538095D01*
X113359580Y-207538095D02*
X113407200Y-207490476D01*
X113407200Y-207490476D02*
X113454819Y-207395238D01*
X113454819Y-207395238D02*
X113454819Y-207109524D01*
X113454819Y-207109524D02*
X113407200Y-207014286D01*
X113407200Y-207014286D02*
X113359580Y-206966667D01*
X115509580Y-152933333D02*
X115557200Y-152885714D01*
X115557200Y-152885714D02*
X115604819Y-152742857D01*
X115604819Y-152742857D02*
X115604819Y-152647619D01*
X115604819Y-152647619D02*
X115557200Y-152504762D01*
X115557200Y-152504762D02*
X115461961Y-152409524D01*
X115461961Y-152409524D02*
X115366723Y-152361905D01*
X115366723Y-152361905D02*
X115176247Y-152314286D01*
X115176247Y-152314286D02*
X115033390Y-152314286D01*
X115033390Y-152314286D02*
X114842914Y-152361905D01*
X114842914Y-152361905D02*
X114747676Y-152409524D01*
X114747676Y-152409524D02*
X114652438Y-152504762D01*
X114652438Y-152504762D02*
X114604819Y-152647619D01*
X114604819Y-152647619D02*
X114604819Y-152742857D01*
X114604819Y-152742857D02*
X114652438Y-152885714D01*
X114652438Y-152885714D02*
X114700057Y-152933333D01*
X114938152Y-153790476D02*
X115604819Y-153790476D01*
X114557200Y-153552381D02*
X115271485Y-153314286D01*
X115271485Y-153314286D02*
X115271485Y-153933333D01*
X113542857Y-137054819D02*
X113876190Y-136578628D01*
X114114285Y-137054819D02*
X114114285Y-136054819D01*
X114114285Y-136054819D02*
X113733333Y-136054819D01*
X113733333Y-136054819D02*
X113638095Y-136102438D01*
X113638095Y-136102438D02*
X113590476Y-136150057D01*
X113590476Y-136150057D02*
X113542857Y-136245295D01*
X113542857Y-136245295D02*
X113542857Y-136388152D01*
X113542857Y-136388152D02*
X113590476Y-136483390D01*
X113590476Y-136483390D02*
X113638095Y-136531009D01*
X113638095Y-136531009D02*
X113733333Y-136578628D01*
X113733333Y-136578628D02*
X114114285Y-136578628D01*
X113209523Y-136054819D02*
X112590476Y-136054819D01*
X112590476Y-136054819D02*
X112923809Y-136435771D01*
X112923809Y-136435771D02*
X112780952Y-136435771D01*
X112780952Y-136435771D02*
X112685714Y-136483390D01*
X112685714Y-136483390D02*
X112638095Y-136531009D01*
X112638095Y-136531009D02*
X112590476Y-136626247D01*
X112590476Y-136626247D02*
X112590476Y-136864342D01*
X112590476Y-136864342D02*
X112638095Y-136959580D01*
X112638095Y-136959580D02*
X112685714Y-137007200D01*
X112685714Y-137007200D02*
X112780952Y-137054819D01*
X112780952Y-137054819D02*
X113066666Y-137054819D01*
X113066666Y-137054819D02*
X113161904Y-137007200D01*
X113161904Y-137007200D02*
X113209523Y-136959580D01*
X111685714Y-136054819D02*
X112161904Y-136054819D01*
X112161904Y-136054819D02*
X112209523Y-136531009D01*
X112209523Y-136531009D02*
X112161904Y-136483390D01*
X112161904Y-136483390D02*
X112066666Y-136435771D01*
X112066666Y-136435771D02*
X111828571Y-136435771D01*
X111828571Y-136435771D02*
X111733333Y-136483390D01*
X111733333Y-136483390D02*
X111685714Y-136531009D01*
X111685714Y-136531009D02*
X111638095Y-136626247D01*
X111638095Y-136626247D02*
X111638095Y-136864342D01*
X111638095Y-136864342D02*
X111685714Y-136959580D01*
X111685714Y-136959580D02*
X111733333Y-137007200D01*
X111733333Y-137007200D02*
X111828571Y-137054819D01*
X111828571Y-137054819D02*
X112066666Y-137054819D01*
X112066666Y-137054819D02*
X112161904Y-137007200D01*
X112161904Y-137007200D02*
X112209523Y-136959580D01*
X148609580Y-160233333D02*
X148657200Y-160185714D01*
X148657200Y-160185714D02*
X148704819Y-160042857D01*
X148704819Y-160042857D02*
X148704819Y-159947619D01*
X148704819Y-159947619D02*
X148657200Y-159804762D01*
X148657200Y-159804762D02*
X148561961Y-159709524D01*
X148561961Y-159709524D02*
X148466723Y-159661905D01*
X148466723Y-159661905D02*
X148276247Y-159614286D01*
X148276247Y-159614286D02*
X148133390Y-159614286D01*
X148133390Y-159614286D02*
X147942914Y-159661905D01*
X147942914Y-159661905D02*
X147847676Y-159709524D01*
X147847676Y-159709524D02*
X147752438Y-159804762D01*
X147752438Y-159804762D02*
X147704819Y-159947619D01*
X147704819Y-159947619D02*
X147704819Y-160042857D01*
X147704819Y-160042857D02*
X147752438Y-160185714D01*
X147752438Y-160185714D02*
X147800057Y-160233333D01*
X147704819Y-160566667D02*
X147704819Y-161233333D01*
X147704819Y-161233333D02*
X148704819Y-160804762D01*
X116766666Y-205454819D02*
X117099999Y-204978628D01*
X117338094Y-205454819D02*
X117338094Y-204454819D01*
X117338094Y-204454819D02*
X116957142Y-204454819D01*
X116957142Y-204454819D02*
X116861904Y-204502438D01*
X116861904Y-204502438D02*
X116814285Y-204550057D01*
X116814285Y-204550057D02*
X116766666Y-204645295D01*
X116766666Y-204645295D02*
X116766666Y-204788152D01*
X116766666Y-204788152D02*
X116814285Y-204883390D01*
X116814285Y-204883390D02*
X116861904Y-204931009D01*
X116861904Y-204931009D02*
X116957142Y-204978628D01*
X116957142Y-204978628D02*
X117338094Y-204978628D01*
X115909523Y-204788152D02*
X115909523Y-205454819D01*
X116147618Y-204407200D02*
X116385713Y-205121485D01*
X116385713Y-205121485D02*
X115766666Y-205121485D01*
X135871428Y-168054819D02*
X135680952Y-168054819D01*
X135680952Y-168054819D02*
X135585714Y-168102438D01*
X135585714Y-168102438D02*
X135490476Y-168197676D01*
X135490476Y-168197676D02*
X135442857Y-168388152D01*
X135442857Y-168388152D02*
X135442857Y-168721485D01*
X135442857Y-168721485D02*
X135490476Y-168911961D01*
X135490476Y-168911961D02*
X135585714Y-169007200D01*
X135585714Y-169007200D02*
X135680952Y-169054819D01*
X135680952Y-169054819D02*
X135871428Y-169054819D01*
X135871428Y-169054819D02*
X135966666Y-169007200D01*
X135966666Y-169007200D02*
X136061904Y-168911961D01*
X136061904Y-168911961D02*
X136109523Y-168721485D01*
X136109523Y-168721485D02*
X136109523Y-168388152D01*
X136109523Y-168388152D02*
X136061904Y-168197676D01*
X136061904Y-168197676D02*
X135966666Y-168102438D01*
X135966666Y-168102438D02*
X135871428Y-168054819D01*
X135014285Y-169054819D02*
X135014285Y-168054819D01*
X135014285Y-168054819D02*
X134633333Y-168054819D01*
X134633333Y-168054819D02*
X134538095Y-168102438D01*
X134538095Y-168102438D02*
X134490476Y-168150057D01*
X134490476Y-168150057D02*
X134442857Y-168245295D01*
X134442857Y-168245295D02*
X134442857Y-168388152D01*
X134442857Y-168388152D02*
X134490476Y-168483390D01*
X134490476Y-168483390D02*
X134538095Y-168531009D01*
X134538095Y-168531009D02*
X134633333Y-168578628D01*
X134633333Y-168578628D02*
X135014285Y-168578628D01*
X133585714Y-168388152D02*
X133585714Y-169054819D01*
X133823809Y-168007200D02*
X134061904Y-168721485D01*
X134061904Y-168721485D02*
X133442857Y-168721485D01*
X117104819Y-152457142D02*
X116628628Y-152123809D01*
X117104819Y-151885714D02*
X116104819Y-151885714D01*
X116104819Y-151885714D02*
X116104819Y-152266666D01*
X116104819Y-152266666D02*
X116152438Y-152361904D01*
X116152438Y-152361904D02*
X116200057Y-152409523D01*
X116200057Y-152409523D02*
X116295295Y-152457142D01*
X116295295Y-152457142D02*
X116438152Y-152457142D01*
X116438152Y-152457142D02*
X116533390Y-152409523D01*
X116533390Y-152409523D02*
X116581009Y-152361904D01*
X116581009Y-152361904D02*
X116628628Y-152266666D01*
X116628628Y-152266666D02*
X116628628Y-151885714D01*
X116200057Y-152838095D02*
X116152438Y-152885714D01*
X116152438Y-152885714D02*
X116104819Y-152980952D01*
X116104819Y-152980952D02*
X116104819Y-153219047D01*
X116104819Y-153219047D02*
X116152438Y-153314285D01*
X116152438Y-153314285D02*
X116200057Y-153361904D01*
X116200057Y-153361904D02*
X116295295Y-153409523D01*
X116295295Y-153409523D02*
X116390533Y-153409523D01*
X116390533Y-153409523D02*
X116533390Y-153361904D01*
X116533390Y-153361904D02*
X117104819Y-152790476D01*
X117104819Y-152790476D02*
X117104819Y-153409523D01*
X116438152Y-154266666D02*
X117104819Y-154266666D01*
X116057200Y-154028571D02*
X116771485Y-153790476D01*
X116771485Y-153790476D02*
X116771485Y-154409523D01*
X142842857Y-168754819D02*
X143176190Y-168278628D01*
X143414285Y-168754819D02*
X143414285Y-167754819D01*
X143414285Y-167754819D02*
X143033333Y-167754819D01*
X143033333Y-167754819D02*
X142938095Y-167802438D01*
X142938095Y-167802438D02*
X142890476Y-167850057D01*
X142890476Y-167850057D02*
X142842857Y-167945295D01*
X142842857Y-167945295D02*
X142842857Y-168088152D01*
X142842857Y-168088152D02*
X142890476Y-168183390D01*
X142890476Y-168183390D02*
X142938095Y-168231009D01*
X142938095Y-168231009D02*
X143033333Y-168278628D01*
X143033333Y-168278628D02*
X143414285Y-168278628D01*
X142509523Y-167754819D02*
X141890476Y-167754819D01*
X141890476Y-167754819D02*
X142223809Y-168135771D01*
X142223809Y-168135771D02*
X142080952Y-168135771D01*
X142080952Y-168135771D02*
X141985714Y-168183390D01*
X141985714Y-168183390D02*
X141938095Y-168231009D01*
X141938095Y-168231009D02*
X141890476Y-168326247D01*
X141890476Y-168326247D02*
X141890476Y-168564342D01*
X141890476Y-168564342D02*
X141938095Y-168659580D01*
X141938095Y-168659580D02*
X141985714Y-168707200D01*
X141985714Y-168707200D02*
X142080952Y-168754819D01*
X142080952Y-168754819D02*
X142366666Y-168754819D01*
X142366666Y-168754819D02*
X142461904Y-168707200D01*
X142461904Y-168707200D02*
X142509523Y-168659580D01*
X141033333Y-168088152D02*
X141033333Y-168754819D01*
X141271428Y-167707200D02*
X141509523Y-168421485D01*
X141509523Y-168421485D02*
X140890476Y-168421485D01*
X145492857Y-158504819D02*
X145826190Y-158028628D01*
X146064285Y-158504819D02*
X146064285Y-157504819D01*
X146064285Y-157504819D02*
X145683333Y-157504819D01*
X145683333Y-157504819D02*
X145588095Y-157552438D01*
X145588095Y-157552438D02*
X145540476Y-157600057D01*
X145540476Y-157600057D02*
X145492857Y-157695295D01*
X145492857Y-157695295D02*
X145492857Y-157838152D01*
X145492857Y-157838152D02*
X145540476Y-157933390D01*
X145540476Y-157933390D02*
X145588095Y-157981009D01*
X145588095Y-157981009D02*
X145683333Y-158028628D01*
X145683333Y-158028628D02*
X146064285Y-158028628D01*
X145159523Y-157504819D02*
X144540476Y-157504819D01*
X144540476Y-157504819D02*
X144873809Y-157885771D01*
X144873809Y-157885771D02*
X144730952Y-157885771D01*
X144730952Y-157885771D02*
X144635714Y-157933390D01*
X144635714Y-157933390D02*
X144588095Y-157981009D01*
X144588095Y-157981009D02*
X144540476Y-158076247D01*
X144540476Y-158076247D02*
X144540476Y-158314342D01*
X144540476Y-158314342D02*
X144588095Y-158409580D01*
X144588095Y-158409580D02*
X144635714Y-158457200D01*
X144635714Y-158457200D02*
X144730952Y-158504819D01*
X144730952Y-158504819D02*
X145016666Y-158504819D01*
X145016666Y-158504819D02*
X145111904Y-158457200D01*
X145111904Y-158457200D02*
X145159523Y-158409580D01*
X143588095Y-158504819D02*
X144159523Y-158504819D01*
X143873809Y-158504819D02*
X143873809Y-157504819D01*
X143873809Y-157504819D02*
X143969047Y-157647676D01*
X143969047Y-157647676D02*
X144064285Y-157742914D01*
X144064285Y-157742914D02*
X144159523Y-157790533D01*
X130054819Y-143307142D02*
X129578628Y-142973809D01*
X130054819Y-142735714D02*
X129054819Y-142735714D01*
X129054819Y-142735714D02*
X129054819Y-143116666D01*
X129054819Y-143116666D02*
X129102438Y-143211904D01*
X129102438Y-143211904D02*
X129150057Y-143259523D01*
X129150057Y-143259523D02*
X129245295Y-143307142D01*
X129245295Y-143307142D02*
X129388152Y-143307142D01*
X129388152Y-143307142D02*
X129483390Y-143259523D01*
X129483390Y-143259523D02*
X129531009Y-143211904D01*
X129531009Y-143211904D02*
X129578628Y-143116666D01*
X129578628Y-143116666D02*
X129578628Y-142735714D01*
X129150057Y-143688095D02*
X129102438Y-143735714D01*
X129102438Y-143735714D02*
X129054819Y-143830952D01*
X129054819Y-143830952D02*
X129054819Y-144069047D01*
X129054819Y-144069047D02*
X129102438Y-144164285D01*
X129102438Y-144164285D02*
X129150057Y-144211904D01*
X129150057Y-144211904D02*
X129245295Y-144259523D01*
X129245295Y-144259523D02*
X129340533Y-144259523D01*
X129340533Y-144259523D02*
X129483390Y-144211904D01*
X129483390Y-144211904D02*
X130054819Y-143640476D01*
X130054819Y-143640476D02*
X130054819Y-144259523D01*
X129054819Y-144592857D02*
X129054819Y-145211904D01*
X129054819Y-145211904D02*
X129435771Y-144878571D01*
X129435771Y-144878571D02*
X129435771Y-145021428D01*
X129435771Y-145021428D02*
X129483390Y-145116666D01*
X129483390Y-145116666D02*
X129531009Y-145164285D01*
X129531009Y-145164285D02*
X129626247Y-145211904D01*
X129626247Y-145211904D02*
X129864342Y-145211904D01*
X129864342Y-145211904D02*
X129959580Y-145164285D01*
X129959580Y-145164285D02*
X130007200Y-145116666D01*
X130007200Y-145116666D02*
X130054819Y-145021428D01*
X130054819Y-145021428D02*
X130054819Y-144735714D01*
X130054819Y-144735714D02*
X130007200Y-144640476D01*
X130007200Y-144640476D02*
X129959580Y-144592857D01*
X103454819Y-177257142D02*
X102978628Y-176923809D01*
X103454819Y-176685714D02*
X102454819Y-176685714D01*
X102454819Y-176685714D02*
X102454819Y-177066666D01*
X102454819Y-177066666D02*
X102502438Y-177161904D01*
X102502438Y-177161904D02*
X102550057Y-177209523D01*
X102550057Y-177209523D02*
X102645295Y-177257142D01*
X102645295Y-177257142D02*
X102788152Y-177257142D01*
X102788152Y-177257142D02*
X102883390Y-177209523D01*
X102883390Y-177209523D02*
X102931009Y-177161904D01*
X102931009Y-177161904D02*
X102978628Y-177066666D01*
X102978628Y-177066666D02*
X102978628Y-176685714D01*
X103454819Y-178209523D02*
X103454819Y-177638095D01*
X103454819Y-177923809D02*
X102454819Y-177923809D01*
X102454819Y-177923809D02*
X102597676Y-177828571D01*
X102597676Y-177828571D02*
X102692914Y-177733333D01*
X102692914Y-177733333D02*
X102740533Y-177638095D01*
X102454819Y-179066666D02*
X102454819Y-178876190D01*
X102454819Y-178876190D02*
X102502438Y-178780952D01*
X102502438Y-178780952D02*
X102550057Y-178733333D01*
X102550057Y-178733333D02*
X102692914Y-178638095D01*
X102692914Y-178638095D02*
X102883390Y-178590476D01*
X102883390Y-178590476D02*
X103264342Y-178590476D01*
X103264342Y-178590476D02*
X103359580Y-178638095D01*
X103359580Y-178638095D02*
X103407200Y-178685714D01*
X103407200Y-178685714D02*
X103454819Y-178780952D01*
X103454819Y-178780952D02*
X103454819Y-178971428D01*
X103454819Y-178971428D02*
X103407200Y-179066666D01*
X103407200Y-179066666D02*
X103359580Y-179114285D01*
X103359580Y-179114285D02*
X103264342Y-179161904D01*
X103264342Y-179161904D02*
X103026247Y-179161904D01*
X103026247Y-179161904D02*
X102931009Y-179114285D01*
X102931009Y-179114285D02*
X102883390Y-179066666D01*
X102883390Y-179066666D02*
X102835771Y-178971428D01*
X102835771Y-178971428D02*
X102835771Y-178780952D01*
X102835771Y-178780952D02*
X102883390Y-178685714D01*
X102883390Y-178685714D02*
X102931009Y-178638095D01*
X102931009Y-178638095D02*
X103026247Y-178590476D01*
X103666666Y-124754819D02*
X103999999Y-124278628D01*
X104238094Y-124754819D02*
X104238094Y-123754819D01*
X104238094Y-123754819D02*
X103857142Y-123754819D01*
X103857142Y-123754819D02*
X103761904Y-123802438D01*
X103761904Y-123802438D02*
X103714285Y-123850057D01*
X103714285Y-123850057D02*
X103666666Y-123945295D01*
X103666666Y-123945295D02*
X103666666Y-124088152D01*
X103666666Y-124088152D02*
X103714285Y-124183390D01*
X103714285Y-124183390D02*
X103761904Y-124231009D01*
X103761904Y-124231009D02*
X103857142Y-124278628D01*
X103857142Y-124278628D02*
X104238094Y-124278628D01*
X103190475Y-124754819D02*
X102999999Y-124754819D01*
X102999999Y-124754819D02*
X102904761Y-124707200D01*
X102904761Y-124707200D02*
X102857142Y-124659580D01*
X102857142Y-124659580D02*
X102761904Y-124516723D01*
X102761904Y-124516723D02*
X102714285Y-124326247D01*
X102714285Y-124326247D02*
X102714285Y-123945295D01*
X102714285Y-123945295D02*
X102761904Y-123850057D01*
X102761904Y-123850057D02*
X102809523Y-123802438D01*
X102809523Y-123802438D02*
X102904761Y-123754819D01*
X102904761Y-123754819D02*
X103095237Y-123754819D01*
X103095237Y-123754819D02*
X103190475Y-123802438D01*
X103190475Y-123802438D02*
X103238094Y-123850057D01*
X103238094Y-123850057D02*
X103285713Y-123945295D01*
X103285713Y-123945295D02*
X103285713Y-124183390D01*
X103285713Y-124183390D02*
X103238094Y-124278628D01*
X103238094Y-124278628D02*
X103190475Y-124326247D01*
X103190475Y-124326247D02*
X103095237Y-124373866D01*
X103095237Y-124373866D02*
X102904761Y-124373866D01*
X102904761Y-124373866D02*
X102809523Y-124326247D01*
X102809523Y-124326247D02*
X102761904Y-124278628D01*
X102761904Y-124278628D02*
X102714285Y-124183390D01*
X108861904Y-179804819D02*
X108861904Y-180614342D01*
X108861904Y-180614342D02*
X108814285Y-180709580D01*
X108814285Y-180709580D02*
X108766666Y-180757200D01*
X108766666Y-180757200D02*
X108671428Y-180804819D01*
X108671428Y-180804819D02*
X108480952Y-180804819D01*
X108480952Y-180804819D02*
X108385714Y-180757200D01*
X108385714Y-180757200D02*
X108338095Y-180709580D01*
X108338095Y-180709580D02*
X108290476Y-180614342D01*
X108290476Y-180614342D02*
X108290476Y-179804819D01*
X107861904Y-179900057D02*
X107814285Y-179852438D01*
X107814285Y-179852438D02*
X107719047Y-179804819D01*
X107719047Y-179804819D02*
X107480952Y-179804819D01*
X107480952Y-179804819D02*
X107385714Y-179852438D01*
X107385714Y-179852438D02*
X107338095Y-179900057D01*
X107338095Y-179900057D02*
X107290476Y-179995295D01*
X107290476Y-179995295D02*
X107290476Y-180090533D01*
X107290476Y-180090533D02*
X107338095Y-180233390D01*
X107338095Y-180233390D02*
X107909523Y-180804819D01*
X107909523Y-180804819D02*
X107290476Y-180804819D01*
X118942857Y-170554819D02*
X119276190Y-170078628D01*
X119514285Y-170554819D02*
X119514285Y-169554819D01*
X119514285Y-169554819D02*
X119133333Y-169554819D01*
X119133333Y-169554819D02*
X119038095Y-169602438D01*
X119038095Y-169602438D02*
X118990476Y-169650057D01*
X118990476Y-169650057D02*
X118942857Y-169745295D01*
X118942857Y-169745295D02*
X118942857Y-169888152D01*
X118942857Y-169888152D02*
X118990476Y-169983390D01*
X118990476Y-169983390D02*
X119038095Y-170031009D01*
X119038095Y-170031009D02*
X119133333Y-170078628D01*
X119133333Y-170078628D02*
X119514285Y-170078628D01*
X118561904Y-169650057D02*
X118514285Y-169602438D01*
X118514285Y-169602438D02*
X118419047Y-169554819D01*
X118419047Y-169554819D02*
X118180952Y-169554819D01*
X118180952Y-169554819D02*
X118085714Y-169602438D01*
X118085714Y-169602438D02*
X118038095Y-169650057D01*
X118038095Y-169650057D02*
X117990476Y-169745295D01*
X117990476Y-169745295D02*
X117990476Y-169840533D01*
X117990476Y-169840533D02*
X118038095Y-169983390D01*
X118038095Y-169983390D02*
X118609523Y-170554819D01*
X118609523Y-170554819D02*
X117990476Y-170554819D01*
X117371428Y-169554819D02*
X117276190Y-169554819D01*
X117276190Y-169554819D02*
X117180952Y-169602438D01*
X117180952Y-169602438D02*
X117133333Y-169650057D01*
X117133333Y-169650057D02*
X117085714Y-169745295D01*
X117085714Y-169745295D02*
X117038095Y-169935771D01*
X117038095Y-169935771D02*
X117038095Y-170173866D01*
X117038095Y-170173866D02*
X117085714Y-170364342D01*
X117085714Y-170364342D02*
X117133333Y-170459580D01*
X117133333Y-170459580D02*
X117180952Y-170507200D01*
X117180952Y-170507200D02*
X117276190Y-170554819D01*
X117276190Y-170554819D02*
X117371428Y-170554819D01*
X117371428Y-170554819D02*
X117466666Y-170507200D01*
X117466666Y-170507200D02*
X117514285Y-170459580D01*
X117514285Y-170459580D02*
X117561904Y-170364342D01*
X117561904Y-170364342D02*
X117609523Y-170173866D01*
X117609523Y-170173866D02*
X117609523Y-169935771D01*
X117609523Y-169935771D02*
X117561904Y-169745295D01*
X117561904Y-169745295D02*
X117514285Y-169650057D01*
X117514285Y-169650057D02*
X117466666Y-169602438D01*
X117466666Y-169602438D02*
X117371428Y-169554819D01*
X117054819Y-145657142D02*
X116578628Y-145323809D01*
X117054819Y-145085714D02*
X116054819Y-145085714D01*
X116054819Y-145085714D02*
X116054819Y-145466666D01*
X116054819Y-145466666D02*
X116102438Y-145561904D01*
X116102438Y-145561904D02*
X116150057Y-145609523D01*
X116150057Y-145609523D02*
X116245295Y-145657142D01*
X116245295Y-145657142D02*
X116388152Y-145657142D01*
X116388152Y-145657142D02*
X116483390Y-145609523D01*
X116483390Y-145609523D02*
X116531009Y-145561904D01*
X116531009Y-145561904D02*
X116578628Y-145466666D01*
X116578628Y-145466666D02*
X116578628Y-145085714D01*
X116054819Y-145990476D02*
X116054819Y-146609523D01*
X116054819Y-146609523D02*
X116435771Y-146276190D01*
X116435771Y-146276190D02*
X116435771Y-146419047D01*
X116435771Y-146419047D02*
X116483390Y-146514285D01*
X116483390Y-146514285D02*
X116531009Y-146561904D01*
X116531009Y-146561904D02*
X116626247Y-146609523D01*
X116626247Y-146609523D02*
X116864342Y-146609523D01*
X116864342Y-146609523D02*
X116959580Y-146561904D01*
X116959580Y-146561904D02*
X117007200Y-146514285D01*
X117007200Y-146514285D02*
X117054819Y-146419047D01*
X117054819Y-146419047D02*
X117054819Y-146133333D01*
X117054819Y-146133333D02*
X117007200Y-146038095D01*
X117007200Y-146038095D02*
X116959580Y-145990476D01*
X116054819Y-147228571D02*
X116054819Y-147323809D01*
X116054819Y-147323809D02*
X116102438Y-147419047D01*
X116102438Y-147419047D02*
X116150057Y-147466666D01*
X116150057Y-147466666D02*
X116245295Y-147514285D01*
X116245295Y-147514285D02*
X116435771Y-147561904D01*
X116435771Y-147561904D02*
X116673866Y-147561904D01*
X116673866Y-147561904D02*
X116864342Y-147514285D01*
X116864342Y-147514285D02*
X116959580Y-147466666D01*
X116959580Y-147466666D02*
X117007200Y-147419047D01*
X117007200Y-147419047D02*
X117054819Y-147323809D01*
X117054819Y-147323809D02*
X117054819Y-147228571D01*
X117054819Y-147228571D02*
X117007200Y-147133333D01*
X117007200Y-147133333D02*
X116959580Y-147085714D01*
X116959580Y-147085714D02*
X116864342Y-147038095D01*
X116864342Y-147038095D02*
X116673866Y-146990476D01*
X116673866Y-146990476D02*
X116435771Y-146990476D01*
X116435771Y-146990476D02*
X116245295Y-147038095D01*
X116245295Y-147038095D02*
X116150057Y-147085714D01*
X116150057Y-147085714D02*
X116102438Y-147133333D01*
X116102438Y-147133333D02*
X116054819Y-147228571D01*
X113596428Y-193384819D02*
X113405952Y-193384819D01*
X113405952Y-193384819D02*
X113310714Y-193432438D01*
X113310714Y-193432438D02*
X113215476Y-193527676D01*
X113215476Y-193527676D02*
X113167857Y-193718152D01*
X113167857Y-193718152D02*
X113167857Y-194051485D01*
X113167857Y-194051485D02*
X113215476Y-194241961D01*
X113215476Y-194241961D02*
X113310714Y-194337200D01*
X113310714Y-194337200D02*
X113405952Y-194384819D01*
X113405952Y-194384819D02*
X113596428Y-194384819D01*
X113596428Y-194384819D02*
X113691666Y-194337200D01*
X113691666Y-194337200D02*
X113786904Y-194241961D01*
X113786904Y-194241961D02*
X113834523Y-194051485D01*
X113834523Y-194051485D02*
X113834523Y-193718152D01*
X113834523Y-193718152D02*
X113786904Y-193527676D01*
X113786904Y-193527676D02*
X113691666Y-193432438D01*
X113691666Y-193432438D02*
X113596428Y-193384819D01*
X112739285Y-194384819D02*
X112739285Y-193384819D01*
X112739285Y-193384819D02*
X112358333Y-193384819D01*
X112358333Y-193384819D02*
X112263095Y-193432438D01*
X112263095Y-193432438D02*
X112215476Y-193480057D01*
X112215476Y-193480057D02*
X112167857Y-193575295D01*
X112167857Y-193575295D02*
X112167857Y-193718152D01*
X112167857Y-193718152D02*
X112215476Y-193813390D01*
X112215476Y-193813390D02*
X112263095Y-193861009D01*
X112263095Y-193861009D02*
X112358333Y-193908628D01*
X112358333Y-193908628D02*
X112739285Y-193908628D01*
X111215476Y-194384819D02*
X111786904Y-194384819D01*
X111501190Y-194384819D02*
X111501190Y-193384819D01*
X111501190Y-193384819D02*
X111596428Y-193527676D01*
X111596428Y-193527676D02*
X111691666Y-193622914D01*
X111691666Y-193622914D02*
X111786904Y-193670533D01*
X122666666Y-162209580D02*
X122714285Y-162257200D01*
X122714285Y-162257200D02*
X122857142Y-162304819D01*
X122857142Y-162304819D02*
X122952380Y-162304819D01*
X122952380Y-162304819D02*
X123095237Y-162257200D01*
X123095237Y-162257200D02*
X123190475Y-162161961D01*
X123190475Y-162161961D02*
X123238094Y-162066723D01*
X123238094Y-162066723D02*
X123285713Y-161876247D01*
X123285713Y-161876247D02*
X123285713Y-161733390D01*
X123285713Y-161733390D02*
X123238094Y-161542914D01*
X123238094Y-161542914D02*
X123190475Y-161447676D01*
X123190475Y-161447676D02*
X123095237Y-161352438D01*
X123095237Y-161352438D02*
X122952380Y-161304819D01*
X122952380Y-161304819D02*
X122857142Y-161304819D01*
X122857142Y-161304819D02*
X122714285Y-161352438D01*
X122714285Y-161352438D02*
X122666666Y-161400057D01*
X121714285Y-162304819D02*
X122285713Y-162304819D01*
X121999999Y-162304819D02*
X121999999Y-161304819D01*
X121999999Y-161304819D02*
X122095237Y-161447676D01*
X122095237Y-161447676D02*
X122190475Y-161542914D01*
X122190475Y-161542914D02*
X122285713Y-161590533D01*
X131659580Y-144208458D02*
X131707200Y-144160839D01*
X131707200Y-144160839D02*
X131754819Y-144017982D01*
X131754819Y-144017982D02*
X131754819Y-143922744D01*
X131754819Y-143922744D02*
X131707200Y-143779887D01*
X131707200Y-143779887D02*
X131611961Y-143684649D01*
X131611961Y-143684649D02*
X131516723Y-143637030D01*
X131516723Y-143637030D02*
X131326247Y-143589411D01*
X131326247Y-143589411D02*
X131183390Y-143589411D01*
X131183390Y-143589411D02*
X130992914Y-143637030D01*
X130992914Y-143637030D02*
X130897676Y-143684649D01*
X130897676Y-143684649D02*
X130802438Y-143779887D01*
X130802438Y-143779887D02*
X130754819Y-143922744D01*
X130754819Y-143922744D02*
X130754819Y-144017982D01*
X130754819Y-144017982D02*
X130802438Y-144160839D01*
X130802438Y-144160839D02*
X130850057Y-144208458D01*
X130754819Y-144541792D02*
X130754819Y-145160839D01*
X130754819Y-145160839D02*
X131135771Y-144827506D01*
X131135771Y-144827506D02*
X131135771Y-144970363D01*
X131135771Y-144970363D02*
X131183390Y-145065601D01*
X131183390Y-145065601D02*
X131231009Y-145113220D01*
X131231009Y-145113220D02*
X131326247Y-145160839D01*
X131326247Y-145160839D02*
X131564342Y-145160839D01*
X131564342Y-145160839D02*
X131659580Y-145113220D01*
X131659580Y-145113220D02*
X131707200Y-145065601D01*
X131707200Y-145065601D02*
X131754819Y-144970363D01*
X131754819Y-144970363D02*
X131754819Y-144684649D01*
X131754819Y-144684649D02*
X131707200Y-144589411D01*
X131707200Y-144589411D02*
X131659580Y-144541792D01*
X116542857Y-149254819D02*
X116876190Y-148778628D01*
X117114285Y-149254819D02*
X117114285Y-148254819D01*
X117114285Y-148254819D02*
X116733333Y-148254819D01*
X116733333Y-148254819D02*
X116638095Y-148302438D01*
X116638095Y-148302438D02*
X116590476Y-148350057D01*
X116590476Y-148350057D02*
X116542857Y-148445295D01*
X116542857Y-148445295D02*
X116542857Y-148588152D01*
X116542857Y-148588152D02*
X116590476Y-148683390D01*
X116590476Y-148683390D02*
X116638095Y-148731009D01*
X116638095Y-148731009D02*
X116733333Y-148778628D01*
X116733333Y-148778628D02*
X117114285Y-148778628D01*
X116161904Y-148350057D02*
X116114285Y-148302438D01*
X116114285Y-148302438D02*
X116019047Y-148254819D01*
X116019047Y-148254819D02*
X115780952Y-148254819D01*
X115780952Y-148254819D02*
X115685714Y-148302438D01*
X115685714Y-148302438D02*
X115638095Y-148350057D01*
X115638095Y-148350057D02*
X115590476Y-148445295D01*
X115590476Y-148445295D02*
X115590476Y-148540533D01*
X115590476Y-148540533D02*
X115638095Y-148683390D01*
X115638095Y-148683390D02*
X116209523Y-149254819D01*
X116209523Y-149254819D02*
X115590476Y-149254819D01*
X115019047Y-148683390D02*
X115114285Y-148635771D01*
X115114285Y-148635771D02*
X115161904Y-148588152D01*
X115161904Y-148588152D02*
X115209523Y-148492914D01*
X115209523Y-148492914D02*
X115209523Y-148445295D01*
X115209523Y-148445295D02*
X115161904Y-148350057D01*
X115161904Y-148350057D02*
X115114285Y-148302438D01*
X115114285Y-148302438D02*
X115019047Y-148254819D01*
X115019047Y-148254819D02*
X114828571Y-148254819D01*
X114828571Y-148254819D02*
X114733333Y-148302438D01*
X114733333Y-148302438D02*
X114685714Y-148350057D01*
X114685714Y-148350057D02*
X114638095Y-148445295D01*
X114638095Y-148445295D02*
X114638095Y-148492914D01*
X114638095Y-148492914D02*
X114685714Y-148588152D01*
X114685714Y-148588152D02*
X114733333Y-148635771D01*
X114733333Y-148635771D02*
X114828571Y-148683390D01*
X114828571Y-148683390D02*
X115019047Y-148683390D01*
X115019047Y-148683390D02*
X115114285Y-148731009D01*
X115114285Y-148731009D02*
X115161904Y-148778628D01*
X115161904Y-148778628D02*
X115209523Y-148873866D01*
X115209523Y-148873866D02*
X115209523Y-149064342D01*
X115209523Y-149064342D02*
X115161904Y-149159580D01*
X115161904Y-149159580D02*
X115114285Y-149207200D01*
X115114285Y-149207200D02*
X115019047Y-149254819D01*
X115019047Y-149254819D02*
X114828571Y-149254819D01*
X114828571Y-149254819D02*
X114733333Y-149207200D01*
X114733333Y-149207200D02*
X114685714Y-149159580D01*
X114685714Y-149159580D02*
X114638095Y-149064342D01*
X114638095Y-149064342D02*
X114638095Y-148873866D01*
X114638095Y-148873866D02*
X114685714Y-148778628D01*
X114685714Y-148778628D02*
X114733333Y-148731009D01*
X114733333Y-148731009D02*
X114828571Y-148683390D01*
X148042857Y-131654819D02*
X148376190Y-131178628D01*
X148614285Y-131654819D02*
X148614285Y-130654819D01*
X148614285Y-130654819D02*
X148233333Y-130654819D01*
X148233333Y-130654819D02*
X148138095Y-130702438D01*
X148138095Y-130702438D02*
X148090476Y-130750057D01*
X148090476Y-130750057D02*
X148042857Y-130845295D01*
X148042857Y-130845295D02*
X148042857Y-130988152D01*
X148042857Y-130988152D02*
X148090476Y-131083390D01*
X148090476Y-131083390D02*
X148138095Y-131131009D01*
X148138095Y-131131009D02*
X148233333Y-131178628D01*
X148233333Y-131178628D02*
X148614285Y-131178628D01*
X147090476Y-131654819D02*
X147661904Y-131654819D01*
X147376190Y-131654819D02*
X147376190Y-130654819D01*
X147376190Y-130654819D02*
X147471428Y-130797676D01*
X147471428Y-130797676D02*
X147566666Y-130892914D01*
X147566666Y-130892914D02*
X147661904Y-130940533D01*
X146757142Y-130654819D02*
X146138095Y-130654819D01*
X146138095Y-130654819D02*
X146471428Y-131035771D01*
X146471428Y-131035771D02*
X146328571Y-131035771D01*
X146328571Y-131035771D02*
X146233333Y-131083390D01*
X146233333Y-131083390D02*
X146185714Y-131131009D01*
X146185714Y-131131009D02*
X146138095Y-131226247D01*
X146138095Y-131226247D02*
X146138095Y-131464342D01*
X146138095Y-131464342D02*
X146185714Y-131559580D01*
X146185714Y-131559580D02*
X146233333Y-131607200D01*
X146233333Y-131607200D02*
X146328571Y-131654819D01*
X146328571Y-131654819D02*
X146614285Y-131654819D01*
X146614285Y-131654819D02*
X146709523Y-131607200D01*
X146709523Y-131607200D02*
X146757142Y-131559580D01*
X103642857Y-136954819D02*
X103976190Y-136478628D01*
X104214285Y-136954819D02*
X104214285Y-135954819D01*
X104214285Y-135954819D02*
X103833333Y-135954819D01*
X103833333Y-135954819D02*
X103738095Y-136002438D01*
X103738095Y-136002438D02*
X103690476Y-136050057D01*
X103690476Y-136050057D02*
X103642857Y-136145295D01*
X103642857Y-136145295D02*
X103642857Y-136288152D01*
X103642857Y-136288152D02*
X103690476Y-136383390D01*
X103690476Y-136383390D02*
X103738095Y-136431009D01*
X103738095Y-136431009D02*
X103833333Y-136478628D01*
X103833333Y-136478628D02*
X104214285Y-136478628D01*
X102690476Y-136954819D02*
X103261904Y-136954819D01*
X102976190Y-136954819D02*
X102976190Y-135954819D01*
X102976190Y-135954819D02*
X103071428Y-136097676D01*
X103071428Y-136097676D02*
X103166666Y-136192914D01*
X103166666Y-136192914D02*
X103261904Y-136240533D01*
X102214285Y-136954819D02*
X102023809Y-136954819D01*
X102023809Y-136954819D02*
X101928571Y-136907200D01*
X101928571Y-136907200D02*
X101880952Y-136859580D01*
X101880952Y-136859580D02*
X101785714Y-136716723D01*
X101785714Y-136716723D02*
X101738095Y-136526247D01*
X101738095Y-136526247D02*
X101738095Y-136145295D01*
X101738095Y-136145295D02*
X101785714Y-136050057D01*
X101785714Y-136050057D02*
X101833333Y-136002438D01*
X101833333Y-136002438D02*
X101928571Y-135954819D01*
X101928571Y-135954819D02*
X102119047Y-135954819D01*
X102119047Y-135954819D02*
X102214285Y-136002438D01*
X102214285Y-136002438D02*
X102261904Y-136050057D01*
X102261904Y-136050057D02*
X102309523Y-136145295D01*
X102309523Y-136145295D02*
X102309523Y-136383390D01*
X102309523Y-136383390D02*
X102261904Y-136478628D01*
X102261904Y-136478628D02*
X102214285Y-136526247D01*
X102214285Y-136526247D02*
X102119047Y-136573866D01*
X102119047Y-136573866D02*
X101928571Y-136573866D01*
X101928571Y-136573866D02*
X101833333Y-136526247D01*
X101833333Y-136526247D02*
X101785714Y-136478628D01*
X101785714Y-136478628D02*
X101738095Y-136383390D01*
X142692857Y-161604819D02*
X143026190Y-161128628D01*
X143264285Y-161604819D02*
X143264285Y-160604819D01*
X143264285Y-160604819D02*
X142883333Y-160604819D01*
X142883333Y-160604819D02*
X142788095Y-160652438D01*
X142788095Y-160652438D02*
X142740476Y-160700057D01*
X142740476Y-160700057D02*
X142692857Y-160795295D01*
X142692857Y-160795295D02*
X142692857Y-160938152D01*
X142692857Y-160938152D02*
X142740476Y-161033390D01*
X142740476Y-161033390D02*
X142788095Y-161081009D01*
X142788095Y-161081009D02*
X142883333Y-161128628D01*
X142883333Y-161128628D02*
X143264285Y-161128628D01*
X142359523Y-160604819D02*
X141740476Y-160604819D01*
X141740476Y-160604819D02*
X142073809Y-160985771D01*
X142073809Y-160985771D02*
X141930952Y-160985771D01*
X141930952Y-160985771D02*
X141835714Y-161033390D01*
X141835714Y-161033390D02*
X141788095Y-161081009D01*
X141788095Y-161081009D02*
X141740476Y-161176247D01*
X141740476Y-161176247D02*
X141740476Y-161414342D01*
X141740476Y-161414342D02*
X141788095Y-161509580D01*
X141788095Y-161509580D02*
X141835714Y-161557200D01*
X141835714Y-161557200D02*
X141930952Y-161604819D01*
X141930952Y-161604819D02*
X142216666Y-161604819D01*
X142216666Y-161604819D02*
X142311904Y-161557200D01*
X142311904Y-161557200D02*
X142359523Y-161509580D01*
X141407142Y-160604819D02*
X140788095Y-160604819D01*
X140788095Y-160604819D02*
X141121428Y-160985771D01*
X141121428Y-160985771D02*
X140978571Y-160985771D01*
X140978571Y-160985771D02*
X140883333Y-161033390D01*
X140883333Y-161033390D02*
X140835714Y-161081009D01*
X140835714Y-161081009D02*
X140788095Y-161176247D01*
X140788095Y-161176247D02*
X140788095Y-161414342D01*
X140788095Y-161414342D02*
X140835714Y-161509580D01*
X140835714Y-161509580D02*
X140883333Y-161557200D01*
X140883333Y-161557200D02*
X140978571Y-161604819D01*
X140978571Y-161604819D02*
X141264285Y-161604819D01*
X141264285Y-161604819D02*
X141359523Y-161557200D01*
X141359523Y-161557200D02*
X141407142Y-161509580D01*
X132754819Y-157507142D02*
X132278628Y-157173809D01*
X132754819Y-156935714D02*
X131754819Y-156935714D01*
X131754819Y-156935714D02*
X131754819Y-157316666D01*
X131754819Y-157316666D02*
X131802438Y-157411904D01*
X131802438Y-157411904D02*
X131850057Y-157459523D01*
X131850057Y-157459523D02*
X131945295Y-157507142D01*
X131945295Y-157507142D02*
X132088152Y-157507142D01*
X132088152Y-157507142D02*
X132183390Y-157459523D01*
X132183390Y-157459523D02*
X132231009Y-157411904D01*
X132231009Y-157411904D02*
X132278628Y-157316666D01*
X132278628Y-157316666D02*
X132278628Y-156935714D01*
X131754819Y-157840476D02*
X131754819Y-158459523D01*
X131754819Y-158459523D02*
X132135771Y-158126190D01*
X132135771Y-158126190D02*
X132135771Y-158269047D01*
X132135771Y-158269047D02*
X132183390Y-158364285D01*
X132183390Y-158364285D02*
X132231009Y-158411904D01*
X132231009Y-158411904D02*
X132326247Y-158459523D01*
X132326247Y-158459523D02*
X132564342Y-158459523D01*
X132564342Y-158459523D02*
X132659580Y-158411904D01*
X132659580Y-158411904D02*
X132707200Y-158364285D01*
X132707200Y-158364285D02*
X132754819Y-158269047D01*
X132754819Y-158269047D02*
X132754819Y-157983333D01*
X132754819Y-157983333D02*
X132707200Y-157888095D01*
X132707200Y-157888095D02*
X132659580Y-157840476D01*
X132183390Y-159030952D02*
X132135771Y-158935714D01*
X132135771Y-158935714D02*
X132088152Y-158888095D01*
X132088152Y-158888095D02*
X131992914Y-158840476D01*
X131992914Y-158840476D02*
X131945295Y-158840476D01*
X131945295Y-158840476D02*
X131850057Y-158888095D01*
X131850057Y-158888095D02*
X131802438Y-158935714D01*
X131802438Y-158935714D02*
X131754819Y-159030952D01*
X131754819Y-159030952D02*
X131754819Y-159221428D01*
X131754819Y-159221428D02*
X131802438Y-159316666D01*
X131802438Y-159316666D02*
X131850057Y-159364285D01*
X131850057Y-159364285D02*
X131945295Y-159411904D01*
X131945295Y-159411904D02*
X131992914Y-159411904D01*
X131992914Y-159411904D02*
X132088152Y-159364285D01*
X132088152Y-159364285D02*
X132135771Y-159316666D01*
X132135771Y-159316666D02*
X132183390Y-159221428D01*
X132183390Y-159221428D02*
X132183390Y-159030952D01*
X132183390Y-159030952D02*
X132231009Y-158935714D01*
X132231009Y-158935714D02*
X132278628Y-158888095D01*
X132278628Y-158888095D02*
X132373866Y-158840476D01*
X132373866Y-158840476D02*
X132564342Y-158840476D01*
X132564342Y-158840476D02*
X132659580Y-158888095D01*
X132659580Y-158888095D02*
X132707200Y-158935714D01*
X132707200Y-158935714D02*
X132754819Y-159030952D01*
X132754819Y-159030952D02*
X132754819Y-159221428D01*
X132754819Y-159221428D02*
X132707200Y-159316666D01*
X132707200Y-159316666D02*
X132659580Y-159364285D01*
X132659580Y-159364285D02*
X132564342Y-159411904D01*
X132564342Y-159411904D02*
X132373866Y-159411904D01*
X132373866Y-159411904D02*
X132278628Y-159364285D01*
X132278628Y-159364285D02*
X132231009Y-159316666D01*
X132231009Y-159316666D02*
X132183390Y-159221428D01*
X108642857Y-172054819D02*
X108976190Y-171578628D01*
X109214285Y-172054819D02*
X109214285Y-171054819D01*
X109214285Y-171054819D02*
X108833333Y-171054819D01*
X108833333Y-171054819D02*
X108738095Y-171102438D01*
X108738095Y-171102438D02*
X108690476Y-171150057D01*
X108690476Y-171150057D02*
X108642857Y-171245295D01*
X108642857Y-171245295D02*
X108642857Y-171388152D01*
X108642857Y-171388152D02*
X108690476Y-171483390D01*
X108690476Y-171483390D02*
X108738095Y-171531009D01*
X108738095Y-171531009D02*
X108833333Y-171578628D01*
X108833333Y-171578628D02*
X109214285Y-171578628D01*
X107690476Y-172054819D02*
X108261904Y-172054819D01*
X107976190Y-172054819D02*
X107976190Y-171054819D01*
X107976190Y-171054819D02*
X108071428Y-171197676D01*
X108071428Y-171197676D02*
X108166666Y-171292914D01*
X108166666Y-171292914D02*
X108261904Y-171340533D01*
X107309523Y-171150057D02*
X107261904Y-171102438D01*
X107261904Y-171102438D02*
X107166666Y-171054819D01*
X107166666Y-171054819D02*
X106928571Y-171054819D01*
X106928571Y-171054819D02*
X106833333Y-171102438D01*
X106833333Y-171102438D02*
X106785714Y-171150057D01*
X106785714Y-171150057D02*
X106738095Y-171245295D01*
X106738095Y-171245295D02*
X106738095Y-171340533D01*
X106738095Y-171340533D02*
X106785714Y-171483390D01*
X106785714Y-171483390D02*
X107357142Y-172054819D01*
X107357142Y-172054819D02*
X106738095Y-172054819D01*
X131566666Y-155359580D02*
X131614285Y-155407200D01*
X131614285Y-155407200D02*
X131757142Y-155454819D01*
X131757142Y-155454819D02*
X131852380Y-155454819D01*
X131852380Y-155454819D02*
X131995237Y-155407200D01*
X131995237Y-155407200D02*
X132090475Y-155311961D01*
X132090475Y-155311961D02*
X132138094Y-155216723D01*
X132138094Y-155216723D02*
X132185713Y-155026247D01*
X132185713Y-155026247D02*
X132185713Y-154883390D01*
X132185713Y-154883390D02*
X132138094Y-154692914D01*
X132138094Y-154692914D02*
X132090475Y-154597676D01*
X132090475Y-154597676D02*
X131995237Y-154502438D01*
X131995237Y-154502438D02*
X131852380Y-154454819D01*
X131852380Y-154454819D02*
X131757142Y-154454819D01*
X131757142Y-154454819D02*
X131614285Y-154502438D01*
X131614285Y-154502438D02*
X131566666Y-154550057D01*
X130661904Y-154454819D02*
X131138094Y-154454819D01*
X131138094Y-154454819D02*
X131185713Y-154931009D01*
X131185713Y-154931009D02*
X131138094Y-154883390D01*
X131138094Y-154883390D02*
X131042856Y-154835771D01*
X131042856Y-154835771D02*
X130804761Y-154835771D01*
X130804761Y-154835771D02*
X130709523Y-154883390D01*
X130709523Y-154883390D02*
X130661904Y-154931009D01*
X130661904Y-154931009D02*
X130614285Y-155026247D01*
X130614285Y-155026247D02*
X130614285Y-155264342D01*
X130614285Y-155264342D02*
X130661904Y-155359580D01*
X130661904Y-155359580D02*
X130709523Y-155407200D01*
X130709523Y-155407200D02*
X130804761Y-155454819D01*
X130804761Y-155454819D02*
X131042856Y-155454819D01*
X131042856Y-155454819D02*
X131138094Y-155407200D01*
X131138094Y-155407200D02*
X131185713Y-155359580D01*
X129542857Y-155454819D02*
X129876190Y-154978628D01*
X130114285Y-155454819D02*
X130114285Y-154454819D01*
X130114285Y-154454819D02*
X129733333Y-154454819D01*
X129733333Y-154454819D02*
X129638095Y-154502438D01*
X129638095Y-154502438D02*
X129590476Y-154550057D01*
X129590476Y-154550057D02*
X129542857Y-154645295D01*
X129542857Y-154645295D02*
X129542857Y-154788152D01*
X129542857Y-154788152D02*
X129590476Y-154883390D01*
X129590476Y-154883390D02*
X129638095Y-154931009D01*
X129638095Y-154931009D02*
X129733333Y-154978628D01*
X129733333Y-154978628D02*
X130114285Y-154978628D01*
X129161904Y-154550057D02*
X129114285Y-154502438D01*
X129114285Y-154502438D02*
X129019047Y-154454819D01*
X129019047Y-154454819D02*
X128780952Y-154454819D01*
X128780952Y-154454819D02*
X128685714Y-154502438D01*
X128685714Y-154502438D02*
X128638095Y-154550057D01*
X128638095Y-154550057D02*
X128590476Y-154645295D01*
X128590476Y-154645295D02*
X128590476Y-154740533D01*
X128590476Y-154740533D02*
X128638095Y-154883390D01*
X128638095Y-154883390D02*
X129209523Y-155454819D01*
X129209523Y-155454819D02*
X128590476Y-155454819D01*
X128114285Y-155454819D02*
X127923809Y-155454819D01*
X127923809Y-155454819D02*
X127828571Y-155407200D01*
X127828571Y-155407200D02*
X127780952Y-155359580D01*
X127780952Y-155359580D02*
X127685714Y-155216723D01*
X127685714Y-155216723D02*
X127638095Y-155026247D01*
X127638095Y-155026247D02*
X127638095Y-154645295D01*
X127638095Y-154645295D02*
X127685714Y-154550057D01*
X127685714Y-154550057D02*
X127733333Y-154502438D01*
X127733333Y-154502438D02*
X127828571Y-154454819D01*
X127828571Y-154454819D02*
X128019047Y-154454819D01*
X128019047Y-154454819D02*
X128114285Y-154502438D01*
X128114285Y-154502438D02*
X128161904Y-154550057D01*
X128161904Y-154550057D02*
X128209523Y-154645295D01*
X128209523Y-154645295D02*
X128209523Y-154883390D01*
X128209523Y-154883390D02*
X128161904Y-154978628D01*
X128161904Y-154978628D02*
X128114285Y-155026247D01*
X128114285Y-155026247D02*
X128019047Y-155073866D01*
X128019047Y-155073866D02*
X127828571Y-155073866D01*
X127828571Y-155073866D02*
X127733333Y-155026247D01*
X127733333Y-155026247D02*
X127685714Y-154978628D01*
X127685714Y-154978628D02*
X127638095Y-154883390D01*
X123571428Y-117454819D02*
X123380952Y-117454819D01*
X123380952Y-117454819D02*
X123285714Y-117502438D01*
X123285714Y-117502438D02*
X123190476Y-117597676D01*
X123190476Y-117597676D02*
X123142857Y-117788152D01*
X123142857Y-117788152D02*
X123142857Y-118121485D01*
X123142857Y-118121485D02*
X123190476Y-118311961D01*
X123190476Y-118311961D02*
X123285714Y-118407200D01*
X123285714Y-118407200D02*
X123380952Y-118454819D01*
X123380952Y-118454819D02*
X123571428Y-118454819D01*
X123571428Y-118454819D02*
X123666666Y-118407200D01*
X123666666Y-118407200D02*
X123761904Y-118311961D01*
X123761904Y-118311961D02*
X123809523Y-118121485D01*
X123809523Y-118121485D02*
X123809523Y-117788152D01*
X123809523Y-117788152D02*
X123761904Y-117597676D01*
X123761904Y-117597676D02*
X123666666Y-117502438D01*
X123666666Y-117502438D02*
X123571428Y-117454819D01*
X122714285Y-118454819D02*
X122714285Y-117454819D01*
X122714285Y-117454819D02*
X122333333Y-117454819D01*
X122333333Y-117454819D02*
X122238095Y-117502438D01*
X122238095Y-117502438D02*
X122190476Y-117550057D01*
X122190476Y-117550057D02*
X122142857Y-117645295D01*
X122142857Y-117645295D02*
X122142857Y-117788152D01*
X122142857Y-117788152D02*
X122190476Y-117883390D01*
X122190476Y-117883390D02*
X122238095Y-117931009D01*
X122238095Y-117931009D02*
X122333333Y-117978628D01*
X122333333Y-117978628D02*
X122714285Y-117978628D01*
X121761904Y-117550057D02*
X121714285Y-117502438D01*
X121714285Y-117502438D02*
X121619047Y-117454819D01*
X121619047Y-117454819D02*
X121380952Y-117454819D01*
X121380952Y-117454819D02*
X121285714Y-117502438D01*
X121285714Y-117502438D02*
X121238095Y-117550057D01*
X121238095Y-117550057D02*
X121190476Y-117645295D01*
X121190476Y-117645295D02*
X121190476Y-117740533D01*
X121190476Y-117740533D02*
X121238095Y-117883390D01*
X121238095Y-117883390D02*
X121809523Y-118454819D01*
X121809523Y-118454819D02*
X121190476Y-118454819D01*
X148559580Y-165733333D02*
X148607200Y-165685714D01*
X148607200Y-165685714D02*
X148654819Y-165542857D01*
X148654819Y-165542857D02*
X148654819Y-165447619D01*
X148654819Y-165447619D02*
X148607200Y-165304762D01*
X148607200Y-165304762D02*
X148511961Y-165209524D01*
X148511961Y-165209524D02*
X148416723Y-165161905D01*
X148416723Y-165161905D02*
X148226247Y-165114286D01*
X148226247Y-165114286D02*
X148083390Y-165114286D01*
X148083390Y-165114286D02*
X147892914Y-165161905D01*
X147892914Y-165161905D02*
X147797676Y-165209524D01*
X147797676Y-165209524D02*
X147702438Y-165304762D01*
X147702438Y-165304762D02*
X147654819Y-165447619D01*
X147654819Y-165447619D02*
X147654819Y-165542857D01*
X147654819Y-165542857D02*
X147702438Y-165685714D01*
X147702438Y-165685714D02*
X147750057Y-165733333D01*
X148083390Y-166304762D02*
X148035771Y-166209524D01*
X148035771Y-166209524D02*
X147988152Y-166161905D01*
X147988152Y-166161905D02*
X147892914Y-166114286D01*
X147892914Y-166114286D02*
X147845295Y-166114286D01*
X147845295Y-166114286D02*
X147750057Y-166161905D01*
X147750057Y-166161905D02*
X147702438Y-166209524D01*
X147702438Y-166209524D02*
X147654819Y-166304762D01*
X147654819Y-166304762D02*
X147654819Y-166495238D01*
X147654819Y-166495238D02*
X147702438Y-166590476D01*
X147702438Y-166590476D02*
X147750057Y-166638095D01*
X147750057Y-166638095D02*
X147845295Y-166685714D01*
X147845295Y-166685714D02*
X147892914Y-166685714D01*
X147892914Y-166685714D02*
X147988152Y-166638095D01*
X147988152Y-166638095D02*
X148035771Y-166590476D01*
X148035771Y-166590476D02*
X148083390Y-166495238D01*
X148083390Y-166495238D02*
X148083390Y-166304762D01*
X148083390Y-166304762D02*
X148131009Y-166209524D01*
X148131009Y-166209524D02*
X148178628Y-166161905D01*
X148178628Y-166161905D02*
X148273866Y-166114286D01*
X148273866Y-166114286D02*
X148464342Y-166114286D01*
X148464342Y-166114286D02*
X148559580Y-166161905D01*
X148559580Y-166161905D02*
X148607200Y-166209524D01*
X148607200Y-166209524D02*
X148654819Y-166304762D01*
X148654819Y-166304762D02*
X148654819Y-166495238D01*
X148654819Y-166495238D02*
X148607200Y-166590476D01*
X148607200Y-166590476D02*
X148559580Y-166638095D01*
X148559580Y-166638095D02*
X148464342Y-166685714D01*
X148464342Y-166685714D02*
X148273866Y-166685714D01*
X148273866Y-166685714D02*
X148178628Y-166638095D01*
X148178628Y-166638095D02*
X148131009Y-166590476D01*
X148131009Y-166590476D02*
X148083390Y-166495238D01*
X121566666Y-203954819D02*
X121899999Y-203478628D01*
X122138094Y-203954819D02*
X122138094Y-202954819D01*
X122138094Y-202954819D02*
X121757142Y-202954819D01*
X121757142Y-202954819D02*
X121661904Y-203002438D01*
X121661904Y-203002438D02*
X121614285Y-203050057D01*
X121614285Y-203050057D02*
X121566666Y-203145295D01*
X121566666Y-203145295D02*
X121566666Y-203288152D01*
X121566666Y-203288152D02*
X121614285Y-203383390D01*
X121614285Y-203383390D02*
X121661904Y-203431009D01*
X121661904Y-203431009D02*
X121757142Y-203478628D01*
X121757142Y-203478628D02*
X122138094Y-203478628D01*
X121185713Y-203050057D02*
X121138094Y-203002438D01*
X121138094Y-203002438D02*
X121042856Y-202954819D01*
X121042856Y-202954819D02*
X120804761Y-202954819D01*
X120804761Y-202954819D02*
X120709523Y-203002438D01*
X120709523Y-203002438D02*
X120661904Y-203050057D01*
X120661904Y-203050057D02*
X120614285Y-203145295D01*
X120614285Y-203145295D02*
X120614285Y-203240533D01*
X120614285Y-203240533D02*
X120661904Y-203383390D01*
X120661904Y-203383390D02*
X121233332Y-203954819D01*
X121233332Y-203954819D02*
X120614285Y-203954819D01*
X132242857Y-163854819D02*
X132576190Y-163378628D01*
X132814285Y-163854819D02*
X132814285Y-162854819D01*
X132814285Y-162854819D02*
X132433333Y-162854819D01*
X132433333Y-162854819D02*
X132338095Y-162902438D01*
X132338095Y-162902438D02*
X132290476Y-162950057D01*
X132290476Y-162950057D02*
X132242857Y-163045295D01*
X132242857Y-163045295D02*
X132242857Y-163188152D01*
X132242857Y-163188152D02*
X132290476Y-163283390D01*
X132290476Y-163283390D02*
X132338095Y-163331009D01*
X132338095Y-163331009D02*
X132433333Y-163378628D01*
X132433333Y-163378628D02*
X132814285Y-163378628D01*
X131909523Y-162854819D02*
X131290476Y-162854819D01*
X131290476Y-162854819D02*
X131623809Y-163235771D01*
X131623809Y-163235771D02*
X131480952Y-163235771D01*
X131480952Y-163235771D02*
X131385714Y-163283390D01*
X131385714Y-163283390D02*
X131338095Y-163331009D01*
X131338095Y-163331009D02*
X131290476Y-163426247D01*
X131290476Y-163426247D02*
X131290476Y-163664342D01*
X131290476Y-163664342D02*
X131338095Y-163759580D01*
X131338095Y-163759580D02*
X131385714Y-163807200D01*
X131385714Y-163807200D02*
X131480952Y-163854819D01*
X131480952Y-163854819D02*
X131766666Y-163854819D01*
X131766666Y-163854819D02*
X131861904Y-163807200D01*
X131861904Y-163807200D02*
X131909523Y-163759580D01*
X130957142Y-162854819D02*
X130290476Y-162854819D01*
X130290476Y-162854819D02*
X130719047Y-163854819D01*
X145492857Y-164004819D02*
X145826190Y-163528628D01*
X146064285Y-164004819D02*
X146064285Y-163004819D01*
X146064285Y-163004819D02*
X145683333Y-163004819D01*
X145683333Y-163004819D02*
X145588095Y-163052438D01*
X145588095Y-163052438D02*
X145540476Y-163100057D01*
X145540476Y-163100057D02*
X145492857Y-163195295D01*
X145492857Y-163195295D02*
X145492857Y-163338152D01*
X145492857Y-163338152D02*
X145540476Y-163433390D01*
X145540476Y-163433390D02*
X145588095Y-163481009D01*
X145588095Y-163481009D02*
X145683333Y-163528628D01*
X145683333Y-163528628D02*
X146064285Y-163528628D01*
X145159523Y-163004819D02*
X144540476Y-163004819D01*
X144540476Y-163004819D02*
X144873809Y-163385771D01*
X144873809Y-163385771D02*
X144730952Y-163385771D01*
X144730952Y-163385771D02*
X144635714Y-163433390D01*
X144635714Y-163433390D02*
X144588095Y-163481009D01*
X144588095Y-163481009D02*
X144540476Y-163576247D01*
X144540476Y-163576247D02*
X144540476Y-163814342D01*
X144540476Y-163814342D02*
X144588095Y-163909580D01*
X144588095Y-163909580D02*
X144635714Y-163957200D01*
X144635714Y-163957200D02*
X144730952Y-164004819D01*
X144730952Y-164004819D02*
X145016666Y-164004819D01*
X145016666Y-164004819D02*
X145111904Y-163957200D01*
X145111904Y-163957200D02*
X145159523Y-163909580D01*
X144159523Y-163100057D02*
X144111904Y-163052438D01*
X144111904Y-163052438D02*
X144016666Y-163004819D01*
X144016666Y-163004819D02*
X143778571Y-163004819D01*
X143778571Y-163004819D02*
X143683333Y-163052438D01*
X143683333Y-163052438D02*
X143635714Y-163100057D01*
X143635714Y-163100057D02*
X143588095Y-163195295D01*
X143588095Y-163195295D02*
X143588095Y-163290533D01*
X143588095Y-163290533D02*
X143635714Y-163433390D01*
X143635714Y-163433390D02*
X144207142Y-164004819D01*
X144207142Y-164004819D02*
X143588095Y-164004819D01*
X142138095Y-112859580D02*
X142185714Y-112907200D01*
X142185714Y-112907200D02*
X142328571Y-112954819D01*
X142328571Y-112954819D02*
X142423809Y-112954819D01*
X142423809Y-112954819D02*
X142566666Y-112907200D01*
X142566666Y-112907200D02*
X142661904Y-112811961D01*
X142661904Y-112811961D02*
X142709523Y-112716723D01*
X142709523Y-112716723D02*
X142757142Y-112526247D01*
X142757142Y-112526247D02*
X142757142Y-112383390D01*
X142757142Y-112383390D02*
X142709523Y-112192914D01*
X142709523Y-112192914D02*
X142661904Y-112097676D01*
X142661904Y-112097676D02*
X142566666Y-112002438D01*
X142566666Y-112002438D02*
X142423809Y-111954819D01*
X142423809Y-111954819D02*
X142328571Y-111954819D01*
X142328571Y-111954819D02*
X142185714Y-112002438D01*
X142185714Y-112002438D02*
X142138095Y-112050057D01*
X141519047Y-111954819D02*
X141328571Y-111954819D01*
X141328571Y-111954819D02*
X141233333Y-112002438D01*
X141233333Y-112002438D02*
X141138095Y-112097676D01*
X141138095Y-112097676D02*
X141090476Y-112288152D01*
X141090476Y-112288152D02*
X141090476Y-112621485D01*
X141090476Y-112621485D02*
X141138095Y-112811961D01*
X141138095Y-112811961D02*
X141233333Y-112907200D01*
X141233333Y-112907200D02*
X141328571Y-112954819D01*
X141328571Y-112954819D02*
X141519047Y-112954819D01*
X141519047Y-112954819D02*
X141614285Y-112907200D01*
X141614285Y-112907200D02*
X141709523Y-112811961D01*
X141709523Y-112811961D02*
X141757142Y-112621485D01*
X141757142Y-112621485D02*
X141757142Y-112288152D01*
X141757142Y-112288152D02*
X141709523Y-112097676D01*
X141709523Y-112097676D02*
X141614285Y-112002438D01*
X141614285Y-112002438D02*
X141519047Y-111954819D01*
X140661904Y-112954819D02*
X140661904Y-111954819D01*
X140661904Y-111954819D02*
X140090476Y-112954819D01*
X140090476Y-112954819D02*
X140090476Y-111954819D01*
X139614285Y-112954819D02*
X139614285Y-111954819D01*
X139614285Y-111954819D02*
X139042857Y-112954819D01*
X139042857Y-112954819D02*
X139042857Y-111954819D01*
X138042857Y-112954819D02*
X138614285Y-112954819D01*
X138328571Y-112954819D02*
X138328571Y-111954819D01*
X138328571Y-111954819D02*
X138423809Y-112097676D01*
X138423809Y-112097676D02*
X138519047Y-112192914D01*
X138519047Y-112192914D02*
X138614285Y-112240533D01*
X108642857Y-144354819D02*
X108976190Y-143878628D01*
X109214285Y-144354819D02*
X109214285Y-143354819D01*
X109214285Y-143354819D02*
X108833333Y-143354819D01*
X108833333Y-143354819D02*
X108738095Y-143402438D01*
X108738095Y-143402438D02*
X108690476Y-143450057D01*
X108690476Y-143450057D02*
X108642857Y-143545295D01*
X108642857Y-143545295D02*
X108642857Y-143688152D01*
X108642857Y-143688152D02*
X108690476Y-143783390D01*
X108690476Y-143783390D02*
X108738095Y-143831009D01*
X108738095Y-143831009D02*
X108833333Y-143878628D01*
X108833333Y-143878628D02*
X109214285Y-143878628D01*
X108309523Y-143354819D02*
X107690476Y-143354819D01*
X107690476Y-143354819D02*
X108023809Y-143735771D01*
X108023809Y-143735771D02*
X107880952Y-143735771D01*
X107880952Y-143735771D02*
X107785714Y-143783390D01*
X107785714Y-143783390D02*
X107738095Y-143831009D01*
X107738095Y-143831009D02*
X107690476Y-143926247D01*
X107690476Y-143926247D02*
X107690476Y-144164342D01*
X107690476Y-144164342D02*
X107738095Y-144259580D01*
X107738095Y-144259580D02*
X107785714Y-144307200D01*
X107785714Y-144307200D02*
X107880952Y-144354819D01*
X107880952Y-144354819D02*
X108166666Y-144354819D01*
X108166666Y-144354819D02*
X108261904Y-144307200D01*
X108261904Y-144307200D02*
X108309523Y-144259580D01*
X107214285Y-144354819D02*
X107023809Y-144354819D01*
X107023809Y-144354819D02*
X106928571Y-144307200D01*
X106928571Y-144307200D02*
X106880952Y-144259580D01*
X106880952Y-144259580D02*
X106785714Y-144116723D01*
X106785714Y-144116723D02*
X106738095Y-143926247D01*
X106738095Y-143926247D02*
X106738095Y-143545295D01*
X106738095Y-143545295D02*
X106785714Y-143450057D01*
X106785714Y-143450057D02*
X106833333Y-143402438D01*
X106833333Y-143402438D02*
X106928571Y-143354819D01*
X106928571Y-143354819D02*
X107119047Y-143354819D01*
X107119047Y-143354819D02*
X107214285Y-143402438D01*
X107214285Y-143402438D02*
X107261904Y-143450057D01*
X107261904Y-143450057D02*
X107309523Y-143545295D01*
X107309523Y-143545295D02*
X107309523Y-143783390D01*
X107309523Y-143783390D02*
X107261904Y-143878628D01*
X107261904Y-143878628D02*
X107214285Y-143926247D01*
X107214285Y-143926247D02*
X107119047Y-143973866D01*
X107119047Y-143973866D02*
X106928571Y-143973866D01*
X106928571Y-143973866D02*
X106833333Y-143926247D01*
X106833333Y-143926247D02*
X106785714Y-143878628D01*
X106785714Y-143878628D02*
X106738095Y-143783390D01*
X116542857Y-150954819D02*
X116876190Y-150478628D01*
X117114285Y-150954819D02*
X117114285Y-149954819D01*
X117114285Y-149954819D02*
X116733333Y-149954819D01*
X116733333Y-149954819D02*
X116638095Y-150002438D01*
X116638095Y-150002438D02*
X116590476Y-150050057D01*
X116590476Y-150050057D02*
X116542857Y-150145295D01*
X116542857Y-150145295D02*
X116542857Y-150288152D01*
X116542857Y-150288152D02*
X116590476Y-150383390D01*
X116590476Y-150383390D02*
X116638095Y-150431009D01*
X116638095Y-150431009D02*
X116733333Y-150478628D01*
X116733333Y-150478628D02*
X117114285Y-150478628D01*
X116161904Y-150050057D02*
X116114285Y-150002438D01*
X116114285Y-150002438D02*
X116019047Y-149954819D01*
X116019047Y-149954819D02*
X115780952Y-149954819D01*
X115780952Y-149954819D02*
X115685714Y-150002438D01*
X115685714Y-150002438D02*
X115638095Y-150050057D01*
X115638095Y-150050057D02*
X115590476Y-150145295D01*
X115590476Y-150145295D02*
X115590476Y-150240533D01*
X115590476Y-150240533D02*
X115638095Y-150383390D01*
X115638095Y-150383390D02*
X116209523Y-150954819D01*
X116209523Y-150954819D02*
X115590476Y-150954819D01*
X115209523Y-150050057D02*
X115161904Y-150002438D01*
X115161904Y-150002438D02*
X115066666Y-149954819D01*
X115066666Y-149954819D02*
X114828571Y-149954819D01*
X114828571Y-149954819D02*
X114733333Y-150002438D01*
X114733333Y-150002438D02*
X114685714Y-150050057D01*
X114685714Y-150050057D02*
X114638095Y-150145295D01*
X114638095Y-150145295D02*
X114638095Y-150240533D01*
X114638095Y-150240533D02*
X114685714Y-150383390D01*
X114685714Y-150383390D02*
X115257142Y-150954819D01*
X115257142Y-150954819D02*
X114638095Y-150954819D01*
X117466666Y-199754819D02*
X117799999Y-199278628D01*
X118038094Y-199754819D02*
X118038094Y-198754819D01*
X118038094Y-198754819D02*
X117657142Y-198754819D01*
X117657142Y-198754819D02*
X117561904Y-198802438D01*
X117561904Y-198802438D02*
X117514285Y-198850057D01*
X117514285Y-198850057D02*
X117466666Y-198945295D01*
X117466666Y-198945295D02*
X117466666Y-199088152D01*
X117466666Y-199088152D02*
X117514285Y-199183390D01*
X117514285Y-199183390D02*
X117561904Y-199231009D01*
X117561904Y-199231009D02*
X117657142Y-199278628D01*
X117657142Y-199278628D02*
X118038094Y-199278628D01*
X116561904Y-198754819D02*
X117038094Y-198754819D01*
X117038094Y-198754819D02*
X117085713Y-199231009D01*
X117085713Y-199231009D02*
X117038094Y-199183390D01*
X117038094Y-199183390D02*
X116942856Y-199135771D01*
X116942856Y-199135771D02*
X116704761Y-199135771D01*
X116704761Y-199135771D02*
X116609523Y-199183390D01*
X116609523Y-199183390D02*
X116561904Y-199231009D01*
X116561904Y-199231009D02*
X116514285Y-199326247D01*
X116514285Y-199326247D02*
X116514285Y-199564342D01*
X116514285Y-199564342D02*
X116561904Y-199659580D01*
X116561904Y-199659580D02*
X116609523Y-199707200D01*
X116609523Y-199707200D02*
X116704761Y-199754819D01*
X116704761Y-199754819D02*
X116942856Y-199754819D01*
X116942856Y-199754819D02*
X117038094Y-199707200D01*
X117038094Y-199707200D02*
X117085713Y-199659580D01*
X135992857Y-150454819D02*
X136326190Y-149978628D01*
X136564285Y-150454819D02*
X136564285Y-149454819D01*
X136564285Y-149454819D02*
X136183333Y-149454819D01*
X136183333Y-149454819D02*
X136088095Y-149502438D01*
X136088095Y-149502438D02*
X136040476Y-149550057D01*
X136040476Y-149550057D02*
X135992857Y-149645295D01*
X135992857Y-149645295D02*
X135992857Y-149788152D01*
X135992857Y-149788152D02*
X136040476Y-149883390D01*
X136040476Y-149883390D02*
X136088095Y-149931009D01*
X136088095Y-149931009D02*
X136183333Y-149978628D01*
X136183333Y-149978628D02*
X136564285Y-149978628D01*
X135040476Y-150454819D02*
X135611904Y-150454819D01*
X135326190Y-150454819D02*
X135326190Y-149454819D01*
X135326190Y-149454819D02*
X135421428Y-149597676D01*
X135421428Y-149597676D02*
X135516666Y-149692914D01*
X135516666Y-149692914D02*
X135611904Y-149740533D01*
X134707142Y-149454819D02*
X134040476Y-149454819D01*
X134040476Y-149454819D02*
X134469047Y-150454819D01*
X103642857Y-133704819D02*
X103976190Y-133228628D01*
X104214285Y-133704819D02*
X104214285Y-132704819D01*
X104214285Y-132704819D02*
X103833333Y-132704819D01*
X103833333Y-132704819D02*
X103738095Y-132752438D01*
X103738095Y-132752438D02*
X103690476Y-132800057D01*
X103690476Y-132800057D02*
X103642857Y-132895295D01*
X103642857Y-132895295D02*
X103642857Y-133038152D01*
X103642857Y-133038152D02*
X103690476Y-133133390D01*
X103690476Y-133133390D02*
X103738095Y-133181009D01*
X103738095Y-133181009D02*
X103833333Y-133228628D01*
X103833333Y-133228628D02*
X104214285Y-133228628D01*
X102690476Y-133704819D02*
X103261904Y-133704819D01*
X102976190Y-133704819D02*
X102976190Y-132704819D01*
X102976190Y-132704819D02*
X103071428Y-132847676D01*
X103071428Y-132847676D02*
X103166666Y-132942914D01*
X103166666Y-132942914D02*
X103261904Y-132990533D01*
X102071428Y-132704819D02*
X101976190Y-132704819D01*
X101976190Y-132704819D02*
X101880952Y-132752438D01*
X101880952Y-132752438D02*
X101833333Y-132800057D01*
X101833333Y-132800057D02*
X101785714Y-132895295D01*
X101785714Y-132895295D02*
X101738095Y-133085771D01*
X101738095Y-133085771D02*
X101738095Y-133323866D01*
X101738095Y-133323866D02*
X101785714Y-133514342D01*
X101785714Y-133514342D02*
X101833333Y-133609580D01*
X101833333Y-133609580D02*
X101880952Y-133657200D01*
X101880952Y-133657200D02*
X101976190Y-133704819D01*
X101976190Y-133704819D02*
X102071428Y-133704819D01*
X102071428Y-133704819D02*
X102166666Y-133657200D01*
X102166666Y-133657200D02*
X102214285Y-133609580D01*
X102214285Y-133609580D02*
X102261904Y-133514342D01*
X102261904Y-133514342D02*
X102309523Y-133323866D01*
X102309523Y-133323866D02*
X102309523Y-133085771D01*
X102309523Y-133085771D02*
X102261904Y-132895295D01*
X102261904Y-132895295D02*
X102214285Y-132800057D01*
X102214285Y-132800057D02*
X102166666Y-132752438D01*
X102166666Y-132752438D02*
X102071428Y-132704819D01*
X138454819Y-152457142D02*
X137978628Y-152123809D01*
X138454819Y-151885714D02*
X137454819Y-151885714D01*
X137454819Y-151885714D02*
X137454819Y-152266666D01*
X137454819Y-152266666D02*
X137502438Y-152361904D01*
X137502438Y-152361904D02*
X137550057Y-152409523D01*
X137550057Y-152409523D02*
X137645295Y-152457142D01*
X137645295Y-152457142D02*
X137788152Y-152457142D01*
X137788152Y-152457142D02*
X137883390Y-152409523D01*
X137883390Y-152409523D02*
X137931009Y-152361904D01*
X137931009Y-152361904D02*
X137978628Y-152266666D01*
X137978628Y-152266666D02*
X137978628Y-151885714D01*
X137550057Y-152838095D02*
X137502438Y-152885714D01*
X137502438Y-152885714D02*
X137454819Y-152980952D01*
X137454819Y-152980952D02*
X137454819Y-153219047D01*
X137454819Y-153219047D02*
X137502438Y-153314285D01*
X137502438Y-153314285D02*
X137550057Y-153361904D01*
X137550057Y-153361904D02*
X137645295Y-153409523D01*
X137645295Y-153409523D02*
X137740533Y-153409523D01*
X137740533Y-153409523D02*
X137883390Y-153361904D01*
X137883390Y-153361904D02*
X138454819Y-152790476D01*
X138454819Y-152790476D02*
X138454819Y-153409523D01*
X138454819Y-154361904D02*
X138454819Y-153790476D01*
X138454819Y-154076190D02*
X137454819Y-154076190D01*
X137454819Y-154076190D02*
X137597676Y-153980952D01*
X137597676Y-153980952D02*
X137692914Y-153885714D01*
X137692914Y-153885714D02*
X137740533Y-153790476D01*
X119992857Y-142754819D02*
X120326190Y-142278628D01*
X120564285Y-142754819D02*
X120564285Y-141754819D01*
X120564285Y-141754819D02*
X120183333Y-141754819D01*
X120183333Y-141754819D02*
X120088095Y-141802438D01*
X120088095Y-141802438D02*
X120040476Y-141850057D01*
X120040476Y-141850057D02*
X119992857Y-141945295D01*
X119992857Y-141945295D02*
X119992857Y-142088152D01*
X119992857Y-142088152D02*
X120040476Y-142183390D01*
X120040476Y-142183390D02*
X120088095Y-142231009D01*
X120088095Y-142231009D02*
X120183333Y-142278628D01*
X120183333Y-142278628D02*
X120564285Y-142278628D01*
X119611904Y-141850057D02*
X119564285Y-141802438D01*
X119564285Y-141802438D02*
X119469047Y-141754819D01*
X119469047Y-141754819D02*
X119230952Y-141754819D01*
X119230952Y-141754819D02*
X119135714Y-141802438D01*
X119135714Y-141802438D02*
X119088095Y-141850057D01*
X119088095Y-141850057D02*
X119040476Y-141945295D01*
X119040476Y-141945295D02*
X119040476Y-142040533D01*
X119040476Y-142040533D02*
X119088095Y-142183390D01*
X119088095Y-142183390D02*
X119659523Y-142754819D01*
X119659523Y-142754819D02*
X119040476Y-142754819D01*
X118707142Y-141754819D02*
X118040476Y-141754819D01*
X118040476Y-141754819D02*
X118469047Y-142754819D01*
X143642857Y-172354819D02*
X143976190Y-171878628D01*
X144214285Y-172354819D02*
X144214285Y-171354819D01*
X144214285Y-171354819D02*
X143833333Y-171354819D01*
X143833333Y-171354819D02*
X143738095Y-171402438D01*
X143738095Y-171402438D02*
X143690476Y-171450057D01*
X143690476Y-171450057D02*
X143642857Y-171545295D01*
X143642857Y-171545295D02*
X143642857Y-171688152D01*
X143642857Y-171688152D02*
X143690476Y-171783390D01*
X143690476Y-171783390D02*
X143738095Y-171831009D01*
X143738095Y-171831009D02*
X143833333Y-171878628D01*
X143833333Y-171878628D02*
X144214285Y-171878628D01*
X142690476Y-172354819D02*
X143261904Y-172354819D01*
X142976190Y-172354819D02*
X142976190Y-171354819D01*
X142976190Y-171354819D02*
X143071428Y-171497676D01*
X143071428Y-171497676D02*
X143166666Y-171592914D01*
X143166666Y-171592914D02*
X143261904Y-171640533D01*
X141738095Y-172354819D02*
X142309523Y-172354819D01*
X142023809Y-172354819D02*
X142023809Y-171354819D01*
X142023809Y-171354819D02*
X142119047Y-171497676D01*
X142119047Y-171497676D02*
X142214285Y-171592914D01*
X142214285Y-171592914D02*
X142309523Y-171640533D01*
X119516666Y-199754819D02*
X119849999Y-199278628D01*
X120088094Y-199754819D02*
X120088094Y-198754819D01*
X120088094Y-198754819D02*
X119707142Y-198754819D01*
X119707142Y-198754819D02*
X119611904Y-198802438D01*
X119611904Y-198802438D02*
X119564285Y-198850057D01*
X119564285Y-198850057D02*
X119516666Y-198945295D01*
X119516666Y-198945295D02*
X119516666Y-199088152D01*
X119516666Y-199088152D02*
X119564285Y-199183390D01*
X119564285Y-199183390D02*
X119611904Y-199231009D01*
X119611904Y-199231009D02*
X119707142Y-199278628D01*
X119707142Y-199278628D02*
X120088094Y-199278628D01*
X118564285Y-199754819D02*
X119135713Y-199754819D01*
X118849999Y-199754819D02*
X118849999Y-198754819D01*
X118849999Y-198754819D02*
X118945237Y-198897676D01*
X118945237Y-198897676D02*
X119040475Y-198992914D01*
X119040475Y-198992914D02*
X119135713Y-199040533D01*
%TO.C,C10*%
X134625000Y-156550000D02*
X134625000Y-155050000D01*
X134825000Y-155050000D02*
X134825000Y-156550000D01*
D14*
%TO.C,OP3*%
X122890000Y-145365000D02*
X122890000Y-145430000D01*
X122890000Y-154170000D02*
X122890000Y-154235000D01*
X122890000Y-154235000D02*
X127010000Y-154235000D01*
X127010000Y-145365000D02*
X122890000Y-145365000D01*
X127010000Y-145430000D02*
X127010000Y-145365000D01*
X127010000Y-154235000D02*
X127010000Y-154170000D01*
X127550000Y-145430000D02*
X127310000Y-145100000D01*
X127790000Y-145100000D01*
X127550000Y-145430000D01*
G36*
X127550000Y-145430000D02*
G01*
X127310000Y-145100000D01*
X127790000Y-145100000D01*
X127550000Y-145430000D01*
G37*
D15*
%TO.C,R25*%
X133937500Y-146200000D02*
X133937500Y-147900000D01*
X135362500Y-147900000D02*
X135362500Y-146200000D01*
%TO.C,R15*%
X132950000Y-188312500D02*
X134650000Y-188312500D01*
X134650000Y-186887500D02*
X132950000Y-186887500D01*
D13*
%TO.C,C6*%
X117750000Y-146200000D02*
X119250000Y-146200000D01*
X119250000Y-146400000D02*
X117750000Y-146400000D01*
%TO.C,C9*%
X129350000Y-165650000D02*
X130850000Y-165650000D01*
X130850000Y-165850000D02*
X129350000Y-165850000D01*
D15*
%TO.C,R18*%
X132337500Y-151700000D02*
X132337500Y-153400000D01*
X133762500Y-153400000D02*
X133762500Y-151700000D01*
%TO.C,R6*%
X122487500Y-200250000D02*
X122487500Y-201950000D01*
X123912500Y-201950000D02*
X123912500Y-200250000D01*
%TO.C,R8*%
X107037500Y-195600000D02*
X107037500Y-197300000D01*
X108462500Y-197300000D02*
X108462500Y-195600000D01*
%TO.C,R36*%
X107287500Y-148850000D02*
X107287500Y-150550000D01*
X108712500Y-150550000D02*
X108712500Y-148850000D01*
D14*
%TO.C,U1*%
X139210000Y-181230000D02*
X139210000Y-187950000D01*
X139210000Y-183290000D02*
X138800000Y-183290000D01*
X139210000Y-185840000D02*
X138800000Y-185840000D01*
X139210000Y-187950000D02*
X145630000Y-187950000D01*
X145630000Y-181230000D02*
X139210000Y-181230000D01*
X145630000Y-187950000D02*
X145630000Y-181230000D01*
X146040000Y-182700000D02*
X145630000Y-182700000D01*
X146040000Y-186500000D02*
X145630000Y-186500000D01*
X148620000Y-187570000D02*
X145630000Y-187570000D01*
D15*
%TO.C,R26*%
X132287500Y-146200000D02*
X132287500Y-147900000D01*
X133712500Y-147900000D02*
X133712500Y-146200000D01*
D14*
%TO.C,C2*%
X123890000Y-171550000D02*
X123890000Y-172850000D01*
X126610000Y-171550000D02*
X126610000Y-172850000D01*
D15*
%TO.C,R14*%
X144287500Y-132350000D02*
X144287500Y-134050000D01*
X145712500Y-134050000D02*
X145712500Y-132350000D01*
%TO.C,R7*%
X109550000Y-205712500D02*
X111250000Y-205712500D01*
X111250000Y-204287500D02*
X109550000Y-204287500D01*
%TO.C,R40*%
X109787500Y-132300000D02*
X109787500Y-134000000D01*
X111212500Y-134000000D02*
X111212500Y-132300000D01*
%TO.C,R3*%
X109550000Y-207512500D02*
X111250000Y-207512500D01*
X111250000Y-206087500D02*
X109550000Y-206087500D01*
D13*
%TO.C,C4*%
X117750000Y-153000000D02*
X119250000Y-153000000D01*
X119250000Y-153200000D02*
X117750000Y-153200000D01*
D15*
%TO.C,R35*%
X109787500Y-135700000D02*
X109787500Y-137400000D01*
X111212500Y-137400000D02*
X111212500Y-135700000D01*
D13*
%TO.C,C7*%
X145800000Y-160300000D02*
X147300000Y-160300000D01*
X147300000Y-160500000D02*
X145800000Y-160500000D01*
D15*
%TO.C,R4*%
X113050000Y-205712500D02*
X114750000Y-205712500D01*
X114750000Y-204287500D02*
X113050000Y-204287500D01*
D14*
%TO.C,OP4*%
X134515000Y-158715000D02*
X134515000Y-158780000D01*
X134515000Y-167520000D02*
X134515000Y-167585000D01*
X134515000Y-167585000D02*
X138635000Y-167585000D01*
X138635000Y-158715000D02*
X134515000Y-158715000D01*
X138635000Y-158780000D02*
X138635000Y-158715000D01*
X138635000Y-167585000D02*
X138635000Y-167520000D01*
X139175000Y-158780000D02*
X138935000Y-158450000D01*
X139415000Y-158450000D01*
X139175000Y-158780000D01*
G36*
X139175000Y-158780000D02*
G01*
X138935000Y-158450000D01*
X139415000Y-158450000D01*
X139175000Y-158780000D01*
G37*
D15*
%TO.C,R24*%
X119487500Y-152250000D02*
X119487500Y-153950000D01*
X120912500Y-153950000D02*
X120912500Y-152250000D01*
%TO.C,R34*%
X141350000Y-167462500D02*
X143050000Y-167462500D01*
X143050000Y-166037500D02*
X141350000Y-166037500D01*
%TO.C,R31*%
X144137500Y-159550000D02*
X144137500Y-161250000D01*
X145562500Y-161250000D02*
X145562500Y-159550000D01*
%TO.C,R23*%
X128887500Y-146200000D02*
X128887500Y-147900000D01*
X130312500Y-147900000D02*
X130312500Y-146200000D01*
%TO.C,R16*%
X103050000Y-181062500D02*
X104750000Y-181062500D01*
X104750000Y-179637500D02*
X103050000Y-179637500D01*
%TO.C,R9*%
X104737500Y-123500000D02*
X104737500Y-125200000D01*
X106162500Y-125200000D02*
X106162500Y-123500000D01*
D14*
%TO.C,U2*%
X101900000Y-181790000D02*
X104890000Y-181790000D01*
X104480000Y-182860000D02*
X104890000Y-182860000D01*
X104480000Y-186660000D02*
X104890000Y-186660000D01*
X104890000Y-181410000D02*
X104890000Y-188130000D01*
X104890000Y-188130000D02*
X111310000Y-188130000D01*
X111310000Y-181410000D02*
X104890000Y-181410000D01*
X111310000Y-183520000D02*
X111720000Y-183520000D01*
X111310000Y-186070000D02*
X111720000Y-186070000D01*
X111310000Y-188130000D02*
X111310000Y-181410000D01*
D15*
%TO.C,R20*%
X117587500Y-166550000D02*
X117587500Y-168250000D01*
X119012500Y-168250000D02*
X119012500Y-166550000D01*
%TO.C,R30*%
X119487500Y-145450000D02*
X119487500Y-147150000D01*
X120912500Y-147150000D02*
X120912500Y-145450000D01*
D14*
%TO.C,OP1*%
X110465000Y-194775000D02*
X110465000Y-194840000D01*
X110465000Y-203580000D02*
X110465000Y-203645000D01*
X110465000Y-203645000D02*
X114585000Y-203645000D01*
X114585000Y-194775000D02*
X110465000Y-194775000D01*
X114585000Y-194840000D02*
X114585000Y-194775000D01*
X114585000Y-203645000D02*
X114585000Y-203580000D01*
X115125000Y-194840000D02*
X114885000Y-194510000D01*
X115365000Y-194510000D01*
X115125000Y-194840000D01*
G36*
X115125000Y-194840000D02*
G01*
X114885000Y-194510000D01*
X115365000Y-194510000D01*
X115125000Y-194840000D01*
G37*
%TO.C,C1*%
X123940000Y-162500000D02*
X123940000Y-161200000D01*
X126660000Y-162500000D02*
X126660000Y-161200000D01*
D13*
%TO.C,C3*%
X130550000Y-146950000D02*
X132050000Y-146950000D01*
X132050000Y-147150000D02*
X130550000Y-147150000D01*
D15*
%TO.C,R28*%
X118500000Y-149512500D02*
X120200000Y-149512500D01*
X120200000Y-148087500D02*
X118500000Y-148087500D01*
%TO.C,R13*%
X146887500Y-127500000D02*
X146887500Y-129200000D01*
X148312500Y-129200000D02*
X148312500Y-127500000D01*
%TO.C,R19*%
X104787500Y-135700000D02*
X104787500Y-137400000D01*
X106212500Y-137400000D02*
X106212500Y-135700000D01*
%TO.C,R33*%
X141275000Y-160262500D02*
X142975000Y-160262500D01*
X142975000Y-158837500D02*
X141275000Y-158837500D01*
%TO.C,R38*%
X133850000Y-158312500D02*
X135550000Y-158312500D01*
X135550000Y-156887500D02*
X133850000Y-156887500D01*
%TO.C,R12*%
X107287500Y-173650000D02*
X107287500Y-175350000D01*
X108712500Y-175350000D02*
X108712500Y-173650000D01*
D13*
%TO.C,C5*%
X130600000Y-152450000D02*
X132100000Y-152450000D01*
X132100000Y-152650000D02*
X130600000Y-152650000D01*
D15*
%TO.C,R29*%
X128887500Y-151700000D02*
X128887500Y-153400000D01*
X130312500Y-153400000D02*
X130312500Y-151700000D01*
D14*
%TO.C,OP2*%
X121115000Y-120390000D02*
X121115000Y-124510000D01*
X121115000Y-124510000D02*
X121180000Y-124510000D01*
X121180000Y-120390000D02*
X121115000Y-120390000D01*
X129920000Y-124510000D02*
X129985000Y-124510000D01*
X129985000Y-120390000D02*
X129920000Y-120390000D01*
X129985000Y-124510000D02*
X129985000Y-120390000D01*
X121180000Y-119850000D02*
X120850000Y-120090000D01*
X120850000Y-119610000D01*
X121180000Y-119850000D01*
G36*
X121180000Y-119850000D02*
G01*
X120850000Y-120090000D01*
X120850000Y-119610000D01*
X121180000Y-119850000D01*
G37*
D13*
%TO.C,C8*%
X145800000Y-165800000D02*
X147300000Y-165800000D01*
X147300000Y-166000000D02*
X145800000Y-166000000D01*
D15*
%TO.C,R2*%
X120687500Y-200250000D02*
X120687500Y-201950000D01*
X122112500Y-201950000D02*
X122112500Y-200250000D01*
%TO.C,R37*%
X131087500Y-164900000D02*
X131087500Y-166600000D01*
X132512500Y-166600000D02*
X132512500Y-164900000D01*
%TO.C,R32*%
X144137500Y-165050000D02*
X144137500Y-166750000D01*
X145562500Y-166750000D02*
X145562500Y-165050000D01*
D14*
%TO.C,CONN1*%
X111410000Y-113880000D02*
X111410000Y-111120000D01*
X134380000Y-111120000D02*
X111410000Y-111120000D01*
X134380000Y-113880000D02*
X111410000Y-113880000D01*
X134380000Y-113880000D02*
X134380000Y-111120000D01*
X135650000Y-113880000D02*
X137030000Y-113880000D01*
X137030000Y-113880000D02*
X137030000Y-112500000D01*
D15*
%TO.C,R39*%
X107287500Y-145500000D02*
X107287500Y-147200000D01*
X108712500Y-147200000D02*
X108712500Y-145500000D01*
%TO.C,R22*%
X118500000Y-151212500D02*
X120200000Y-151212500D01*
X120200000Y-149787500D02*
X118500000Y-149787500D01*
%TO.C,R5*%
X116587500Y-195950000D02*
X116587500Y-197650000D01*
X118012500Y-197650000D02*
X118012500Y-195950000D01*
%TO.C,R17*%
X131300000Y-150712500D02*
X133000000Y-150712500D01*
X133000000Y-149287500D02*
X131300000Y-149287500D01*
%TO.C,R10*%
X104787500Y-132400000D02*
X104787500Y-134100000D01*
X106212500Y-134100000D02*
X106212500Y-132400000D01*
%TO.C,R21*%
X134650000Y-154112500D02*
X136350000Y-154112500D01*
X136350000Y-152687500D02*
X134650000Y-152687500D01*
%TO.C,R27*%
X118500000Y-144512500D02*
X120200000Y-144512500D01*
X120200000Y-143087500D02*
X118500000Y-143087500D01*
%TO.C,R11*%
X142287500Y-173600000D02*
X142287500Y-175300000D01*
X143712500Y-175300000D02*
X143712500Y-173600000D01*
%TO.C,R1*%
X118637500Y-195950000D02*
X118637500Y-197650000D01*
X120062500Y-197650000D02*
X120062500Y-195950000D01*
%TD*%
%LPC*%
D16*
%TO.C,RV5*%
X116500000Y-184700000D03*
D17*
X119000000Y-184700000D03*
X121500000Y-184700000D03*
D18*
X114500000Y-177700000D03*
X123500000Y-177700000D03*
%TD*%
D19*
%TO.C,RV8*%
X120500000Y-132750000D03*
X130000000Y-132750000D03*
D20*
X122750000Y-140250000D03*
D21*
X125250000Y-140250000D03*
X127750000Y-140250000D03*
X122750000Y-142750000D03*
X125250000Y-142750000D03*
X127750000Y-142750000D03*
%TD*%
D22*
%TO.C,J8*%
X144000000Y-216480000D03*
D23*
X144000000Y-205080000D03*
X144000000Y-213380000D03*
%TD*%
D22*
%TO.C,J3*%
X106500000Y-216480000D03*
D23*
X106500000Y-205080000D03*
X106500000Y-213380000D03*
%TD*%
D19*
%TO.C,RV4*%
X137750000Y-120000000D03*
X147250000Y-120000000D03*
D20*
X140000000Y-127500000D03*
D21*
X142500000Y-127500000D03*
X145000000Y-127500000D03*
X140000000Y-130000000D03*
X142500000Y-130000000D03*
X145000000Y-130000000D03*
%TD*%
D16*
%TO.C,RV2*%
X140000000Y-177500000D03*
D17*
X142500000Y-177500000D03*
X145000000Y-177500000D03*
D18*
X138000000Y-170500000D03*
X147000000Y-170500000D03*
%TD*%
D19*
%TO.C,RV10*%
X103250000Y-145500000D03*
X112750000Y-145500000D03*
D20*
X105500000Y-153000000D03*
D21*
X108000000Y-153000000D03*
X110500000Y-153000000D03*
X105500000Y-155500000D03*
X108000000Y-155500000D03*
X110500000Y-155500000D03*
%TD*%
D22*
%TO.C,J2*%
X119000000Y-190520000D03*
D23*
X119000000Y-201920000D03*
X119000000Y-193620000D03*
%TD*%
D19*
%TO.C,RV6*%
X120500000Y-158250000D03*
X130000000Y-158250000D03*
D20*
X122750000Y-165750000D03*
D21*
X125250000Y-165750000D03*
X127750000Y-165750000D03*
X122750000Y-168250000D03*
X125250000Y-168250000D03*
X127750000Y-168250000D03*
%TD*%
D22*
%TO.C,J1*%
X106500000Y-190520000D03*
D23*
X106500000Y-201920000D03*
X106500000Y-193620000D03*
%TD*%
D22*
%TO.C,J6*%
X131500000Y-216480000D03*
D23*
X131500000Y-205080000D03*
X131500000Y-213380000D03*
%TD*%
D19*
%TO.C,RV3*%
X103250000Y-120000000D03*
X112750000Y-120000000D03*
D20*
X105500000Y-127500000D03*
D21*
X108000000Y-127500000D03*
X110500000Y-127500000D03*
X105500000Y-130000000D03*
X108000000Y-130000000D03*
X110500000Y-130000000D03*
%TD*%
D19*
%TO.C,RV9*%
X137750000Y-145500000D03*
X147250000Y-145500000D03*
D20*
X140000000Y-153000000D03*
D21*
X142500000Y-153000000D03*
X145000000Y-153000000D03*
X140000000Y-155500000D03*
X142500000Y-155500000D03*
X145000000Y-155500000D03*
%TD*%
D22*
%TO.C,J5*%
X131500000Y-190520000D03*
D23*
X131500000Y-201920000D03*
X131500000Y-193620000D03*
%TD*%
D22*
%TO.C,J4*%
X119000000Y-216480000D03*
D23*
X119000000Y-205080000D03*
X119000000Y-213380000D03*
%TD*%
D16*
%TO.C,RV7*%
X129000000Y-184700000D03*
D17*
X131500000Y-184700000D03*
X134000000Y-184700000D03*
D18*
X127000000Y-177700000D03*
X136000000Y-177700000D03*
%TD*%
D22*
%TO.C,J7*%
X144000000Y-190520000D03*
D23*
X144000000Y-201920000D03*
X144000000Y-193620000D03*
%TD*%
D16*
%TO.C,RV1*%
X105500000Y-177500000D03*
D17*
X108000000Y-177500000D03*
X110500000Y-177500000D03*
D18*
X103500000Y-170500000D03*
X112500000Y-170500000D03*
%TD*%
D24*
%TO.C,C10*%
X135575000Y-155800000D03*
X133875000Y-155800000D03*
%TD*%
D25*
%TO.C,OP3*%
X127425000Y-145990000D03*
X127425000Y-147260000D03*
X127425000Y-148530000D03*
X127425000Y-149800000D03*
X127425000Y-151070000D03*
X127425000Y-152340000D03*
X127425000Y-153610000D03*
X122475000Y-153610000D03*
X122475000Y-152340000D03*
X122475000Y-151070000D03*
X122475000Y-149800000D03*
X122475000Y-148530000D03*
X122475000Y-147260000D03*
X122475000Y-145990000D03*
%TD*%
D24*
%TO.C,R25*%
X134650000Y-147900000D03*
X134650000Y-146200000D03*
%TD*%
%TO.C,R15*%
X132950000Y-187600000D03*
X134650000Y-187600000D03*
%TD*%
%TO.C,C6*%
X118500000Y-147150000D03*
X118500000Y-145450000D03*
%TD*%
%TO.C,C9*%
X130100000Y-164900000D03*
X130100000Y-166600000D03*
%TD*%
%TO.C,R18*%
X133050000Y-151700000D03*
X133050000Y-153400000D03*
%TD*%
%TO.C,R6*%
X123200000Y-200250000D03*
X123200000Y-201950000D03*
%TD*%
%TO.C,R8*%
X107750000Y-197300000D03*
X107750000Y-195600000D03*
%TD*%
%TO.C,R36*%
X108000000Y-150550000D03*
X108000000Y-148850000D03*
%TD*%
D26*
%TO.C,U1*%
X147500000Y-186500000D03*
D27*
X147500000Y-182690000D03*
X137340000Y-183330000D03*
X137340000Y-185860000D03*
%TD*%
D24*
%TO.C,R26*%
X133000000Y-147900000D03*
X133000000Y-146200000D03*
%TD*%
D28*
%TO.C,C2*%
X125250000Y-170695000D03*
X125250000Y-173705000D03*
%TD*%
D24*
%TO.C,R14*%
X145000000Y-134050000D03*
X145000000Y-132350000D03*
%TD*%
%TO.C,R7*%
X111250000Y-205000000D03*
X109550000Y-205000000D03*
%TD*%
%TO.C,R40*%
X110500000Y-132300000D03*
X110500000Y-134000000D03*
%TD*%
%TO.C,R3*%
X109550000Y-206800000D03*
X111250000Y-206800000D03*
%TD*%
%TO.C,C4*%
X118500000Y-152250000D03*
X118500000Y-153950000D03*
%TD*%
%TO.C,R35*%
X110500000Y-137400000D03*
X110500000Y-135700000D03*
%TD*%
%TO.C,C7*%
X146550000Y-161250000D03*
X146550000Y-159550000D03*
%TD*%
%TO.C,R4*%
X114750000Y-205000000D03*
X113050000Y-205000000D03*
%TD*%
D25*
%TO.C,OP4*%
X139050000Y-159340000D03*
X139050000Y-160610000D03*
X139050000Y-161880000D03*
X139050000Y-163150000D03*
X139050000Y-164420000D03*
X139050000Y-165690000D03*
X139050000Y-166960000D03*
X134100000Y-166960000D03*
X134100000Y-165690000D03*
X134100000Y-164420000D03*
X134100000Y-163150000D03*
X134100000Y-161880000D03*
X134100000Y-160610000D03*
X134100000Y-159340000D03*
%TD*%
D24*
%TO.C,R24*%
X120200000Y-152250000D03*
X120200000Y-153950000D03*
%TD*%
%TO.C,R34*%
X141350000Y-166750000D03*
X143050000Y-166750000D03*
%TD*%
%TO.C,R31*%
X144850000Y-161250000D03*
X144850000Y-159550000D03*
%TD*%
%TO.C,R23*%
X129600000Y-147900000D03*
X129600000Y-146200000D03*
%TD*%
%TO.C,R16*%
X104750000Y-180350000D03*
X103050000Y-180350000D03*
%TD*%
%TO.C,R9*%
X105450000Y-123500000D03*
X105450000Y-125200000D03*
%TD*%
D29*
%TO.C,U2*%
X103020000Y-182860000D03*
D27*
X103020000Y-186670000D03*
X113180000Y-186030000D03*
X113180000Y-183500000D03*
%TD*%
D24*
%TO.C,R20*%
X118300000Y-168250000D03*
X118300000Y-166550000D03*
%TD*%
%TO.C,R30*%
X120200000Y-147150000D03*
X120200000Y-145450000D03*
%TD*%
D30*
%TO.C,H2*%
X137750000Y-210000000D03*
%TD*%
D25*
%TO.C,OP1*%
X115000000Y-195400000D03*
X115000000Y-196670000D03*
X115000000Y-197940000D03*
X115000000Y-199210000D03*
X115000000Y-200480000D03*
X115000000Y-201750000D03*
X115000000Y-203020000D03*
X110050000Y-203020000D03*
X110050000Y-201750000D03*
X110050000Y-200480000D03*
X110050000Y-199210000D03*
X110050000Y-197940000D03*
X110050000Y-196670000D03*
X110050000Y-195400000D03*
%TD*%
D28*
%TO.C,C1*%
X125300000Y-163355000D03*
X125300000Y-160345000D03*
%TD*%
D24*
%TO.C,C3*%
X131300000Y-147900000D03*
X131300000Y-146200000D03*
%TD*%
%TO.C,R28*%
X118500000Y-148800000D03*
X120200000Y-148800000D03*
%TD*%
%TO.C,R13*%
X147600000Y-129200000D03*
X147600000Y-127500000D03*
%TD*%
%TO.C,R19*%
X105500000Y-135700000D03*
X105500000Y-137400000D03*
%TD*%
%TO.C,R33*%
X141275000Y-159550000D03*
X142975000Y-159550000D03*
%TD*%
%TO.C,R38*%
X135550000Y-157600000D03*
X133850000Y-157600000D03*
%TD*%
%TO.C,R12*%
X108000000Y-175350000D03*
X108000000Y-173650000D03*
%TD*%
%TO.C,C5*%
X131350000Y-151700000D03*
X131350000Y-153400000D03*
%TD*%
%TO.C,R29*%
X129600000Y-151700000D03*
X129600000Y-153400000D03*
%TD*%
D31*
%TO.C,OP2*%
X121740000Y-119975000D03*
X123010000Y-119975000D03*
X124280000Y-119975000D03*
X125550000Y-119975000D03*
X126820000Y-119975000D03*
X128090000Y-119975000D03*
X129360000Y-119975000D03*
X129360000Y-124925000D03*
X128090000Y-124925000D03*
X126820000Y-124925000D03*
X125550000Y-124925000D03*
X124280000Y-124925000D03*
X123010000Y-124925000D03*
X121740000Y-124925000D03*
%TD*%
D30*
%TO.C,H1*%
X112750000Y-210000000D03*
%TD*%
D24*
%TO.C,C8*%
X146550000Y-166750000D03*
X146550000Y-165050000D03*
%TD*%
%TO.C,R2*%
X121400000Y-201950000D03*
X121400000Y-200250000D03*
%TD*%
%TO.C,R37*%
X131800000Y-164900000D03*
X131800000Y-166600000D03*
%TD*%
%TO.C,R32*%
X144850000Y-165050000D03*
X144850000Y-166750000D03*
%TD*%
D32*
%TO.C,CONN1*%
X135650000Y-112500000D03*
D33*
X133110000Y-112500000D03*
X130570000Y-112500000D03*
X128030000Y-112500000D03*
X125490000Y-112500000D03*
X122950000Y-112500000D03*
X120410000Y-112500000D03*
X117870000Y-112500000D03*
X115330000Y-112500000D03*
X112790000Y-112500000D03*
%TD*%
D24*
%TO.C,R39*%
X108000000Y-145500000D03*
X108000000Y-147200000D03*
%TD*%
%TO.C,R22*%
X118500000Y-150500000D03*
X120200000Y-150500000D03*
%TD*%
%TO.C,R5*%
X117300000Y-197650000D03*
X117300000Y-195950000D03*
%TD*%
%TO.C,R17*%
X133000000Y-150000000D03*
X131300000Y-150000000D03*
%TD*%
%TO.C,R10*%
X105500000Y-134100000D03*
X105500000Y-132400000D03*
%TD*%
%TO.C,R21*%
X136350000Y-153400000D03*
X134650000Y-153400000D03*
%TD*%
%TO.C,R27*%
X120200000Y-143800000D03*
X118500000Y-143800000D03*
%TD*%
%TO.C,R11*%
X143000000Y-175300000D03*
X143000000Y-173600000D03*
%TD*%
%TO.C,R1*%
X119350000Y-195950000D03*
X119350000Y-197650000D03*
%TD*%
%LPD*%
M02*
