%TF.GenerationSoftware,KiCad,Pcbnew,9.0.7*%
%TF.CreationDate,2026-01-03T22:14:51-05:00*%
%TF.ProjectId,lichen-crustose-control-board,6c696368-656e-42d6-9372-7573746f7365,1.0*%
%TF.SameCoordinates,Original*%
%TF.FileFunction,Copper,L1,Top*%
%TF.FilePolarity,Positive*%
%FSLAX46Y46*%
G04 Gerber Fmt 4.6, Leading zero omitted, Abs format (unit mm)*
G04 Created by KiCad (PCBNEW 9.0.7) date 2026-01-03 22:14:51*
%MOMM*%
%LPD*%
G01*
G04 APERTURE LIST*
G04 Aperture macros list*
%AMRoundRect*
0 Rectangle with rounded corners*
0 $1 Rounding radius*
0 $2 $3 $4 $5 $6 $7 $8 $9 X,Y pos of 4 corners*
0 Add a 4 corners polygon primitive as box body*
4,1,4,$2,$3,$4,$5,$6,$7,$8,$9,$2,$3,0*
0 Add four circle primitives for the rounded corners*
1,1,$1+$1,$2,$3*
1,1,$1+$1,$4,$5*
1,1,$1+$1,$6,$7*
1,1,$1+$1,$8,$9*
0 Add four rect primitives between the rounded corners*
20,1,$1+$1,$2,$3,$4,$5,0*
20,1,$1+$1,$4,$5,$6,$7,0*
20,1,$1+$1,$6,$7,$8,$9,0*
20,1,$1+$1,$8,$9,$2,$3,0*%
G04 Aperture macros list end*
%TA.AperFunction,ComponentPad*%
%ADD10R,3.116000X3.116000*%
%TD*%
%TA.AperFunction,ComponentPad*%
%ADD11R,1.650000X1.650000*%
%TD*%
%TA.AperFunction,ComponentPad*%
%ADD12C,1.650000*%
%TD*%
%TA.AperFunction,ComponentPad*%
%ADD13R,2.800000X2.800000*%
%TD*%
%TA.AperFunction,ComponentPad*%
%ADD14R,1.800000X1.800000*%
%TD*%
%TA.AperFunction,ComponentPad*%
%ADD15C,1.800000*%
%TD*%
%TA.AperFunction,ComponentPad*%
%ADD16R,2.000000X2.000000*%
%TD*%
%TA.AperFunction,ComponentPad*%
%ADD17C,2.000000*%
%TD*%
%TA.AperFunction,ComponentPad*%
%ADD18C,4.400000*%
%TD*%
%TA.AperFunction,ComponentPad*%
%ADD19RoundRect,0.249630X0.895370X0.535370X-0.895370X0.535370X-0.895370X-0.535370X0.895370X-0.535370X0*%
%TD*%
%TA.AperFunction,ComponentPad*%
%ADD20O,2.290000X1.570000*%
%TD*%
%TA.AperFunction,ComponentPad*%
%ADD21RoundRect,0.249630X-0.895370X-0.535370X0.895370X-0.535370X0.895370X0.535370X-0.895370X0.535370X0*%
%TD*%
%TA.AperFunction,ComponentPad*%
%ADD22R,1.700000X1.700000*%
%TD*%
%TA.AperFunction,ComponentPad*%
%ADD23C,1.700000*%
%TD*%
%TA.AperFunction,ViaPad*%
%ADD24C,0.800000*%
%TD*%
%TA.AperFunction,ViaPad*%
%ADD25C,0.700000*%
%TD*%
%TA.AperFunction,ViaPad*%
%ADD26C,0.600000*%
%TD*%
%TA.AperFunction,Conductor*%
%ADD27C,0.500000*%
%TD*%
%TA.AperFunction,Conductor*%
%ADD28C,0.300000*%
%TD*%
G04 APERTURE END LIST*
D10*
%TO.P,RV5,*%
%TO.N,*%
X114500000Y-177700000D03*
X123500000Y-177700000D03*
D11*
%TO.P,RV5,1,1*%
%TO.N,/Filters Sheet/CUTOFF_CV_ATTEN_L*%
X116500000Y-184700000D03*
D12*
%TO.P,RV5,2,2*%
X119000000Y-184700000D03*
%TO.P,RV5,3,3*%
%TO.N,GND*%
X121500000Y-184700000D03*
%TD*%
D13*
%TO.P,RV8,*%
%TO.N,*%
X120500000Y-132750000D03*
X130000000Y-132750000D03*
D14*
%TO.P,RV8,1,1*%
%TO.N,Net-(C3-Pad2)*%
X122750000Y-140250000D03*
D15*
%TO.P,RV8,2,2*%
%TO.N,Net-(R25-Pad1)*%
X125250000Y-140250000D03*
%TO.P,RV8,3,3*%
%TO.N,GND*%
X127750000Y-140250000D03*
%TO.P,RV8,4,4*%
%TO.N,Net-(C4-Pad2)*%
X122750000Y-142750000D03*
%TO.P,RV8,5,5*%
%TO.N,Net-(R27-Pad1)*%
X125250000Y-142750000D03*
%TO.P,RV8,6,6*%
%TO.N,GND*%
X127750000Y-142750000D03*
%TD*%
D16*
%TO.P,J8,S*%
%TO.N,GND*%
X144000000Y-216480000D03*
D17*
%TO.P,J8,T*%
%TO.N,/OUTPUT_FEEDBACK_R*%
X144000000Y-205080000D03*
%TO.P,J8,TN*%
%TO.N,unconnected-(J8-PadTN)*%
X144000000Y-213380000D03*
%TD*%
D16*
%TO.P,J3,S*%
%TO.N,GND*%
X106500000Y-216480000D03*
D17*
%TO.P,J3,T*%
%TO.N,PROGRAM_UNBUFFERED_R*%
X106500000Y-205080000D03*
%TO.P,J3,TN*%
%TO.N,PROGRAM_UNBUFFERED_L*%
X106500000Y-213380000D03*
%TD*%
D13*
%TO.P,RV4,*%
%TO.N,*%
X137750000Y-120000000D03*
X147250000Y-120000000D03*
D14*
%TO.P,RV4,1,1*%
%TO.N,/Amplifiers/CARRIER_UNAMPLIFIED_L*%
X140000000Y-127500000D03*
D15*
%TO.P,RV4,2,2*%
%TO.N,/Amplifiers/CARRER_AMPLIFICATION_R*%
X142500000Y-127500000D03*
%TO.P,RV4,3,3*%
%TO.N,/PROGRAM_CONNECTOR_R*%
X145000000Y-127500000D03*
%TO.P,RV4,4,4*%
%TO.N,/Amplifiers/CARRIER_UNAMPLIFIED_L*%
X140000000Y-130000000D03*
%TO.P,RV4,5,5*%
%TO.N,/Amplifiers/CARRIER_AMPLIFICATION_L*%
X142500000Y-130000000D03*
%TO.P,RV4,6,6*%
%TO.N,/CARRER_CONNECTOR_L*%
X145000000Y-130000000D03*
%TD*%
D10*
%TO.P,RV2,*%
%TO.N,*%
X138000000Y-170500000D03*
X147000000Y-170500000D03*
D11*
%TO.P,RV2,1,1*%
%TO.N,GND*%
X140000000Y-177500000D03*
D12*
%TO.P,RV2,2,2*%
%TO.N,Net-(R11-Pad1)*%
X142500000Y-177500000D03*
%TO.P,RV2,3,3*%
%TO.N,-2.5V*%
X145000000Y-177500000D03*
%TD*%
D13*
%TO.P,RV10,*%
%TO.N,*%
X103250000Y-145500000D03*
X112750000Y-145500000D03*
D14*
%TO.P,RV10,1,1*%
%TO.N,GND*%
X105500000Y-153000000D03*
D15*
%TO.P,RV10,2,2*%
%TO.N,/Amplifiers/FEEDBACK_MIX_R*%
X108000000Y-153000000D03*
%TO.P,RV10,3,3*%
%TO.N,/OUTPUT_FEEDBACK_R*%
X110500000Y-153000000D03*
%TO.P,RV10,4,4*%
%TO.N,GND*%
X105500000Y-155500000D03*
%TO.P,RV10,5,5*%
%TO.N,/Amplifiers/FEEDBACK_MIX_L*%
X108000000Y-155500000D03*
%TO.P,RV10,6,6*%
%TO.N,/OUTPUT_FEEDBACK_L*%
X110500000Y-155500000D03*
%TD*%
D16*
%TO.P,J2,S*%
%TO.N,GND*%
X119000000Y-190520000D03*
D17*
%TO.P,J2,T*%
%TO.N,CARRIER_UNBUFFERED_L*%
X119000000Y-201920000D03*
%TO.P,J2,TN*%
%TO.N,PROGRAM_UNBUFFERED_L*%
X119000000Y-193620000D03*
%TD*%
D13*
%TO.P,RV6,*%
%TO.N,*%
X120500000Y-158250000D03*
X130000000Y-158250000D03*
D14*
%TO.P,RV6,1,1*%
%TO.N,/Crossfaders/FILTER_OUT_L*%
X122750000Y-165750000D03*
D15*
%TO.P,RV6,2,2*%
X125250000Y-165750000D03*
%TO.P,RV6,3,3*%
%TO.N,/CONNECTOR_RM_L*%
X127750000Y-165750000D03*
%TO.P,RV6,4,4*%
%TO.N,/Crossfaders/FILTER_OUT_R*%
X122750000Y-168250000D03*
%TO.P,RV6,5,5*%
X125250000Y-168250000D03*
%TO.P,RV6,6,6*%
%TO.N,/CONNECTOR_RM_R*%
X127750000Y-168250000D03*
%TD*%
D16*
%TO.P,J1,S*%
%TO.N,GND*%
X106500000Y-190520000D03*
D17*
%TO.P,J1,T*%
%TO.N,PROGRAM_UNBUFFERED_L*%
X106500000Y-201920000D03*
%TO.P,J1,TN*%
%TO.N,unconnected-(J1-PadTN)*%
X106500000Y-193620000D03*
%TD*%
D16*
%TO.P,J6,S*%
%TO.N,GND*%
X131500000Y-216480000D03*
D17*
%TO.P,J6,T*%
%TO.N,/Filters Sheet/CUTOFF_CV_R*%
X131500000Y-205080000D03*
%TO.P,J6,TN*%
%TO.N,/Filters Sheet/CUTOFF_CV_L*%
X131500000Y-213380000D03*
%TD*%
D13*
%TO.P,RV3,*%
%TO.N,*%
X103250000Y-120000000D03*
X112750000Y-120000000D03*
D14*
%TO.P,RV3,1,1*%
%TO.N,/Amplifiers/PROGRAM_UNAMPLIFIED_L*%
X105500000Y-127500000D03*
D15*
%TO.P,RV3,2,2*%
%TO.N,/Amplifiers/PROGRAM_AMPLIFICATION_L*%
X108000000Y-127500000D03*
%TO.P,RV3,3,3*%
%TO.N,/Amplifiers/PROGRAM_AMPLIFIED_L*%
X110500000Y-127500000D03*
%TO.P,RV3,4,4*%
%TO.N,/Amplifiers/PROGRAM_UNAMPLIFIED_R*%
X105500000Y-130000000D03*
%TO.P,RV3,5,5*%
%TO.N,/Amplifiers/PROGRAM_AMPLIFICATION_R*%
X108000000Y-130000000D03*
%TO.P,RV3,6,6*%
%TO.N,/Amplifiers/PROGRAM_AMPLIFIED_R*%
X110500000Y-130000000D03*
%TD*%
D13*
%TO.P,RV9,*%
%TO.N,*%
X137750000Y-145500000D03*
X147250000Y-145500000D03*
D14*
%TO.P,RV9,1,1*%
%TO.N,GND*%
X140000000Y-153000000D03*
D15*
%TO.P,RV9,2,2*%
%TO.N,/OutputAttenuators/XFADE_OUT_UNATTENUATED_R*%
X142500000Y-153000000D03*
%TO.P,RV9,3,3*%
%TO.N,/Crossfaders/XFADE_OUT_R*%
X145000000Y-153000000D03*
%TO.P,RV9,4,4*%
%TO.N,GND*%
X140000000Y-155500000D03*
%TO.P,RV9,5,5*%
%TO.N,/OutputAttenuators/XFADE_OUT_UNATTENUATED_L*%
X142500000Y-155500000D03*
%TO.P,RV9,6,6*%
%TO.N,/Crossfaders/XFADE_OUT_L*%
X145000000Y-155500000D03*
%TD*%
D16*
%TO.P,J5,S*%
%TO.N,GND*%
X131500000Y-190520000D03*
D17*
%TO.P,J5,T*%
%TO.N,/Filters Sheet/CUTOFF_CV_L*%
X131500000Y-201920000D03*
%TO.P,J5,TN*%
%TO.N,unconnected-(J5-PadTN)*%
X131500000Y-193620000D03*
%TD*%
D16*
%TO.P,J4,S*%
%TO.N,GND*%
X119000000Y-216480000D03*
D17*
%TO.P,J4,T*%
%TO.N,CARRIER_UNBUFFERED_R*%
X119000000Y-205080000D03*
%TO.P,J4,TN*%
%TO.N,CARRIER_UNBUFFERED_L*%
X119000000Y-213380000D03*
%TD*%
D10*
%TO.P,RV7,*%
%TO.N,*%
X127000000Y-177700000D03*
X136000000Y-177700000D03*
D11*
%TO.P,RV7,1,1*%
%TO.N,/Filters Sheet/CUTOFF_CV_ATTEN_R*%
X129000000Y-184700000D03*
D12*
%TO.P,RV7,2,2*%
X131500000Y-184700000D03*
%TO.P,RV7,3,3*%
%TO.N,GND*%
X134000000Y-184700000D03*
%TD*%
D18*
%TO.P,H3,1,1*%
%TO.N,GND*%
X117000000Y-117000000D03*
%TD*%
D16*
%TO.P,J7,S*%
%TO.N,GND*%
X144000000Y-190520000D03*
D17*
%TO.P,J7,T*%
%TO.N,/OUTPUT_FEEDBACK_L*%
X144000000Y-201920000D03*
%TO.P,J7,TN*%
%TO.N,unconnected-(J7-PadTN)*%
X144000000Y-193620000D03*
%TD*%
D10*
%TO.P,RV1,*%
%TO.N,*%
X103500000Y-170500000D03*
X112500000Y-170500000D03*
D11*
%TO.P,RV1,1,1*%
%TO.N,GND*%
X105500000Y-177500000D03*
D12*
%TO.P,RV1,2,2*%
%TO.N,Net-(R12-Pad1)*%
X108000000Y-177500000D03*
%TO.P,RV1,3,3*%
%TO.N,-2.5V*%
X110500000Y-177500000D03*
%TD*%
D19*
%TO.P,U1,1,-*%
%TO.N,Net-(U1--)*%
X147500000Y-187000000D03*
D20*
%TO.P,U1,2,+*%
%TO.N,/Filters Sheet/CUTOFF_CV_L*%
X147500000Y-183190000D03*
%TO.P,U1,3*%
%TO.N,/Crossfaders/FILTER_OUT_L*%
X137340000Y-183830000D03*
%TO.P,U1,4*%
%TO.N,/CONNECTOR_RM_L*%
X137340000Y-186360000D03*
%TD*%
D21*
%TO.P,U2,1,-*%
%TO.N,Net-(U2--)*%
X103000000Y-183500000D03*
D20*
%TO.P,U2,2,+*%
%TO.N,/Filters Sheet/CUTOFF_CV_R*%
X103000000Y-187310000D03*
%TO.P,U2,3*%
%TO.N,/Crossfaders/FILTER_OUT_R*%
X113160000Y-186670000D03*
%TO.P,U2,4*%
%TO.N,/CONNECTOR_RM_R*%
X113160000Y-184140000D03*
%TD*%
D18*
%TO.P,H2,1,1*%
%TO.N,GND*%
X137750000Y-210000000D03*
%TD*%
%TO.P,H1,1,1*%
%TO.N,GND*%
X112750000Y-210000000D03*
%TD*%
D22*
%TO.P,CONN1,1,Pin_1*%
%TO.N,+12V*%
X135650000Y-112500000D03*
D23*
%TO.P,CONN1,2,Pin_2*%
%TO.N,GND*%
X133110000Y-112500000D03*
%TO.P,CONN1,3,Pin_3*%
%TO.N,/CONNECTOR_RM_L*%
X130570000Y-112500000D03*
%TO.P,CONN1,4,Pin_4*%
%TO.N,/CONNECTOR_RM_R*%
X128030000Y-112500000D03*
%TO.P,CONN1,5,Pin_5*%
%TO.N,-2.5V*%
X125490000Y-112500000D03*
%TO.P,CONN1,6,Pin_6*%
%TO.N,-12V*%
X122950000Y-112500000D03*
%TO.P,CONN1,7,Pin_7*%
%TO.N,/PROGRAM_CONNECTOR_L*%
X120410000Y-112500000D03*
%TO.P,CONN1,8,Pin_8*%
%TO.N,/CARRER_CONNECTOR_L*%
X117870000Y-112500000D03*
%TO.P,CONN1,9,Pin_9*%
%TO.N,/CARRIER_CONNECTOR_R*%
X115330000Y-112500000D03*
%TO.P,CONN1,10,Pin_10*%
%TO.N,/PROGRAM_CONNECTOR_R*%
X112790000Y-112500000D03*
%TD*%
D24*
%TO.N,GND*%
X137000000Y-148000000D03*
X121500000Y-182700000D03*
X144900000Y-145100000D03*
X147500000Y-123400000D03*
X141600000Y-122500000D03*
X143700000Y-119500000D03*
X144500000Y-112000000D03*
X104400000Y-112200000D03*
X108100000Y-113000000D03*
X105300000Y-116100000D03*
X107500000Y-119300000D03*
X110100000Y-117100000D03*
X108600000Y-117700000D03*
X108600000Y-121200000D03*
X105700000Y-148800000D03*
X102600000Y-129200000D03*
X102300000Y-138800000D03*
X106100000Y-141400000D03*
X114400000Y-140000000D03*
X113700000Y-148800000D03*
X109500000Y-158300000D03*
X107700000Y-160200000D03*
X103100000Y-162900000D03*
X102700000Y-166400000D03*
X105500000Y-175400000D03*
X106400000Y-187000000D03*
X106100000Y-185300000D03*
X102300000Y-216500000D03*
X102600000Y-213200000D03*
X104600000Y-200000000D03*
X105600000Y-207100000D03*
X108900000Y-208500000D03*
X109700000Y-211100000D03*
X111300000Y-216000000D03*
X114800000Y-216300000D03*
X115400000Y-209300000D03*
X118300000Y-207100000D03*
X115500000Y-206400000D03*
X122300000Y-211200000D03*
X122200000Y-216100000D03*
X125500000Y-211600000D03*
X129000000Y-216100000D03*
X124900000Y-215500000D03*
X125300000Y-208600000D03*
X125400000Y-203000000D03*
X128500000Y-186500000D03*
X128100000Y-196800000D03*
X130200000Y-199300000D03*
X128900000Y-201300000D03*
X131600000Y-207600000D03*
X128200000Y-207700000D03*
X128000000Y-212100000D03*
X147400000Y-211100000D03*
X147300000Y-214500000D03*
X136000000Y-216000000D03*
X139900000Y-216100000D03*
X141100000Y-213300000D03*
X147300000Y-195100000D03*
X148000000Y-191400000D03*
X147600000Y-201300000D03*
X147400000Y-207300000D03*
X135300000Y-202000000D03*
X137200000Y-206200000D03*
X140900000Y-207300000D03*
X140500000Y-202900000D03*
X138100000Y-199900000D03*
X135500000Y-196600000D03*
X140500000Y-195700000D03*
X138400000Y-195600000D03*
X128400000Y-190700000D03*
X135500000Y-190400000D03*
X140600000Y-186100000D03*
X143200000Y-183000000D03*
X141400000Y-183500000D03*
X141500000Y-179200000D03*
X128500000Y-173300000D03*
X128300000Y-170600000D03*
X130200000Y-171200000D03*
X132500000Y-168300000D03*
X147500000Y-155300000D03*
X147200000Y-157700000D03*
X147400000Y-153200000D03*
X148000000Y-142500000D03*
X143000000Y-149600000D03*
X146300000Y-150300000D03*
X141000000Y-112300000D03*
X142700000Y-118200000D03*
X143300000Y-121400000D03*
X144200000Y-114900000D03*
X147200000Y-112800000D03*
X144100000Y-137600000D03*
X146100000Y-137700000D03*
X144300000Y-140600000D03*
X145600000Y-134800000D03*
X138600000Y-173400000D03*
X130100000Y-173400000D03*
D25*
%TO.N,/Crossfaders/FILTER_OUT_R*%
X125200000Y-171700000D03*
D24*
%TO.N,GND*%
X133400000Y-140300000D03*
X141000000Y-150600000D03*
X113350000Y-190100000D03*
X116600000Y-191100000D03*
X108600000Y-216400000D03*
X104300000Y-216480000D03*
X103770000Y-190500000D03*
D26*
X140300000Y-165700000D03*
D24*
X105500000Y-158400000D03*
X102300000Y-153000000D03*
D26*
%TO.N,/PROGRAM_L_XFADE*%
X103400000Y-159700000D03*
X103400000Y-149000000D03*
%TO.N,GND*%
X123400000Y-138241877D03*
X119300000Y-139600000D03*
X126400000Y-151070000D03*
D24*
X128350000Y-193900000D03*
D26*
X123500000Y-148500000D03*
D24*
X148200000Y-189950000D03*
D25*
X124250000Y-126200000D03*
D24*
X136400000Y-152700000D03*
D26*
X117700000Y-150500000D03*
D25*
X124294975Y-117935025D03*
D26*
X140300000Y-160600000D03*
X108800000Y-197900000D03*
D24*
X126500000Y-172200000D03*
X132000000Y-181900000D03*
D26*
X116300000Y-198400000D03*
X132800000Y-161900000D03*
D24*
X102300000Y-155500000D03*
X131500000Y-138750000D03*
D25*
X126800000Y-123550000D03*
D24*
X122150000Y-192800000D03*
X141350000Y-174900000D03*
D25*
X126800000Y-121450000D03*
D24*
X133000000Y-164400000D03*
X125350000Y-159400000D03*
D25*
X116200000Y-200500000D03*
D24*
X119800000Y-187250000D03*
X140250000Y-191850000D03*
%TO.N,-2.5V*%
X131500000Y-118000000D03*
X110775000Y-179825000D03*
D26*
X135100000Y-117300000D03*
D25*
%TO.N,-12V*%
X133500000Y-135800000D03*
X123400000Y-135800000D03*
D24*
X135526000Y-167574000D03*
D25*
X121249999Y-149254612D03*
D24*
X112569669Y-194769669D03*
X133400000Y-125650000D03*
%TO.N,+12V*%
X135300000Y-169900000D03*
X138450000Y-153500000D03*
X125900000Y-195300000D03*
X137500000Y-162298159D03*
X111500000Y-192500000D03*
X126300000Y-156500000D03*
X138100000Y-150300000D03*
D25*
%TO.N,/Crossfaders/FILTER_OUT_L*%
X133800000Y-173300000D03*
D26*
X128000000Y-163355000D03*
D25*
X133700000Y-150000000D03*
D26*
%TO.N,Net-(OP3C--)*%
X110200000Y-141400000D03*
D24*
X110200000Y-146300000D03*
D25*
%TO.N,/Crossfaders/XFADE_OUT_R*%
X133299999Y-144137950D03*
X133700000Y-142558051D03*
%TO.N,/OUTPUT_FEEDBACK_L*%
X145000000Y-181800000D03*
X142223538Y-161180000D03*
X141599000Y-168300000D03*
%TO.N,Net-(C3-Pad2)*%
X129919669Y-139400000D03*
X131300000Y-145500000D03*
D26*
%TO.N,/OUTPUT_FEEDBACK_R*%
X113059620Y-163840380D03*
X111800000Y-165100000D03*
D25*
X144000000Y-168900000D03*
D26*
%TO.N,Net-(OP1D--)*%
X111837120Y-197482120D03*
X112700000Y-204100000D03*
D25*
%TO.N,/CONNECTOR_RM_L*%
X130580025Y-115319975D03*
X134316640Y-172027682D03*
%TO.N,Net-(C4-Pad2)*%
X123500000Y-153600000D03*
D24*
%TO.N,/CARRIER_CONNECTOR_R*%
X128155808Y-154804910D03*
D25*
%TO.N,/CARRER_CONNECTOR_L*%
X139069975Y-125019975D03*
X127590687Y-118100000D03*
%TO.N,/PROGRAM_CONNECTOR_R*%
X121050000Y-122850000D03*
D26*
X138350000Y-127700000D03*
D24*
%TO.N,/Amplifiers/CARRIER_IN_R*%
X117400000Y-135000000D03*
X108500000Y-194200000D03*
D25*
%TO.N,/Amplifiers/CARRIER_IN_L*%
X136550000Y-163375813D03*
D26*
X145200000Y-124300000D03*
D25*
X136325999Y-165939370D03*
D26*
X124200000Y-202000000D03*
D25*
%TO.N,/Filters Sheet/CUTOFF_CV_L*%
X143700000Y-185100000D03*
%TO.N,/PROGRAM_L_XFADE*%
X136600000Y-136700000D03*
X106800000Y-164800000D03*
X107700000Y-188100000D03*
X138724852Y-149468630D03*
D24*
X120700000Y-136700000D03*
X107000000Y-123500000D03*
D25*
%TO.N,Net-(OP3C-+)*%
X124000000Y-155500000D03*
X118300000Y-165500000D03*
%TO.N,Net-(OP3A-+)*%
X131900000Y-155100000D03*
X133050000Y-154150000D03*
X129100000Y-154500000D03*
X129100000Y-149112348D03*
D26*
%TO.N,/PROGRAM_R_XFADE*%
X111000000Y-140700000D03*
D25*
X115300000Y-149500000D03*
X106600000Y-199800000D03*
D26*
X115100000Y-145400000D03*
D25*
%TO.N,Net-(OP4D--)*%
X136750000Y-155800000D03*
X136850000Y-157550000D03*
X136850000Y-159950000D03*
X136479334Y-137591877D03*
D26*
%TO.N,/Amplifiers/CARRIER_AMPLIFICATION_L*%
X136850000Y-130250000D03*
D25*
X116100000Y-127800000D03*
D26*
X136249000Y-126500000D03*
X138500000Y-131900000D03*
D25*
X108000000Y-172900000D03*
%TO.N,/Amplifiers/CARRER_AMPLIFICATION_R*%
X147900000Y-150100000D03*
D26*
X139000000Y-126000000D03*
D25*
X142500000Y-144650000D03*
D26*
X146900000Y-128500000D03*
D25*
X143000000Y-170225314D03*
%TO.N,/Amplifiers/PROGRAM_AMPLIFICATION_R*%
X113500000Y-129300000D03*
X122699999Y-128489949D03*
X128050000Y-126150000D03*
D26*
%TO.N,/Amplifiers/FEEDBACK_MIX_L*%
X104500000Y-150600000D03*
%TO.N,/Amplifiers/FEEDBACK_MIX_R*%
X110500000Y-138300000D03*
%TO.N,/Amplifiers/PROGRAM_AMPLIFIED_L*%
X112000000Y-131000000D03*
D25*
X112000000Y-139700000D03*
X112000000Y-133000000D03*
%TO.N,/Amplifiers/PROGRAM_AMPLIFIED_R*%
X129350000Y-126100000D03*
X124155025Y-129944975D03*
%TO.N,/OutputAttenuators/XFADE_OUT_UNATTENUATED_L*%
X145656265Y-162693735D03*
%TO.N,/OutputAttenuators/XFADE_OUT_UNATTENUATED_R*%
X143750000Y-156850000D03*
X146555025Y-162855025D03*
D26*
%TO.N,/PROGRAM_CONNECTOR_L*%
X128000000Y-162300000D03*
%TO.N,GND*%
X108869620Y-200469620D03*
%TD*%
D27*
%TO.N,GND*%
X146300000Y-150300000D02*
X146300000Y-149900000D01*
X146300000Y-149900000D02*
X146000000Y-149600000D01*
X146000000Y-149600000D02*
X143000000Y-149600000D01*
D28*
%TO.N,/CONNECTOR_RM_R*%
X113160000Y-184140000D02*
X113160000Y-184040000D01*
X113160000Y-184040000D02*
X113180000Y-184020000D01*
X113180000Y-184020000D02*
X113180000Y-183220000D01*
X113180000Y-183220000D02*
X116900000Y-179500000D01*
X116900000Y-179500000D02*
X116900000Y-178500000D01*
X116900000Y-178500000D02*
X127150000Y-168250000D01*
X127150000Y-168250000D02*
X127750000Y-168250000D01*
D27*
%TO.N,GND*%
X104300000Y-216480000D02*
X106500000Y-216480000D01*
X106580000Y-216400000D02*
X106500000Y-216480000D01*
X108600000Y-216400000D02*
X106580000Y-216400000D01*
D28*
%TO.N,/OUTPUT_FEEDBACK_R*%
X113059620Y-163840380D02*
X111800000Y-165100000D01*
%TO.N,/Amplifiers/FEEDBACK_MIX_L*%
X108000000Y-155500000D02*
X108000000Y-156700000D01*
X107300000Y-157400000D02*
X104600000Y-157400000D01*
X108000000Y-156700000D02*
X107300000Y-157400000D01*
X103900000Y-156700000D02*
X103900000Y-151200000D01*
X104600000Y-157400000D02*
X103900000Y-156700000D01*
X103900000Y-151200000D02*
X104500000Y-150600000D01*
%TO.N,/PROGRAM_L_XFADE*%
X103400000Y-159700000D02*
X103400000Y-149000000D01*
D27*
%TO.N,GND*%
X105500000Y-155500000D02*
X105500000Y-153000000D01*
X140000000Y-153000000D02*
X140000000Y-155500000D01*
X140000000Y-151600000D02*
X141000000Y-150600000D01*
X140000000Y-153000000D02*
X140000000Y-151600000D01*
%TO.N,-2.5V*%
X125490000Y-112790000D02*
X125490000Y-112500000D01*
X135499000Y-163981000D02*
X145000000Y-173482000D01*
X135499000Y-117699000D02*
X135499000Y-163981000D01*
X135100000Y-117300000D02*
X135499000Y-117699000D01*
X110500000Y-179550000D02*
X110500000Y-177500000D01*
X131500000Y-118000000D02*
X130700000Y-118000000D01*
X130700000Y-118000000D02*
X125490000Y-112790000D01*
X110775000Y-179825000D02*
X110500000Y-179550000D01*
X145000000Y-173482000D02*
X145000000Y-177500000D01*
%TO.N,-12V*%
X121000000Y-149004613D02*
X121249999Y-149254612D01*
X123500000Y-112500000D02*
X122950000Y-112500000D01*
X133800000Y-126175000D02*
X133800000Y-135500000D01*
X133028000Y-121528000D02*
X126100000Y-114600000D01*
X126100000Y-114600000D02*
X123600000Y-114600000D01*
X121000000Y-138200000D02*
X121000000Y-149004613D01*
X133400000Y-122300000D02*
X133028000Y-121928000D01*
X131600000Y-177600000D02*
X131600000Y-171500000D01*
X133400000Y-125775000D02*
X133800000Y-126175000D01*
X112588120Y-193011880D02*
X117398000Y-188202000D01*
X123400000Y-135800000D02*
X121000000Y-138200000D01*
X112588120Y-194751218D02*
X112588120Y-193011880D01*
X122950000Y-113950000D02*
X122950000Y-112500000D01*
X112569669Y-194769669D02*
X112588120Y-194751218D01*
X133028000Y-121928000D02*
X133028000Y-121528000D01*
X131600000Y-171500000D02*
X135526000Y-167574000D01*
X133400000Y-125650000D02*
X133400000Y-122300000D01*
X133400000Y-125650000D02*
X133400000Y-125775000D01*
X123600000Y-114600000D02*
X122950000Y-113950000D01*
X120998000Y-188202000D02*
X131600000Y-177600000D01*
X117398000Y-188202000D02*
X120998000Y-188202000D01*
X133800000Y-135500000D02*
X133500000Y-135800000D01*
%TO.N,+12V*%
X112308032Y-182264000D02*
X112308032Y-175691968D01*
X117128000Y-170872000D02*
X117128000Y-168825496D01*
X135300000Y-169900000D02*
X133000000Y-172200000D01*
X138157000Y-153842998D02*
X138157000Y-155776274D01*
X138499998Y-153500000D02*
X138157000Y-153842998D01*
X133000000Y-172200000D02*
X133000000Y-178000000D01*
X125917366Y-195300000D02*
X125900000Y-195300000D01*
X138157000Y-155994983D02*
X138157000Y-155994988D01*
X140100000Y-121600000D02*
X140100000Y-116950000D01*
X137600000Y-124100000D02*
X140100000Y-121600000D01*
X125900000Y-195282634D02*
X125917366Y-195300000D01*
X126300000Y-159653496D02*
X126300000Y-156500000D01*
X138157000Y-155994988D02*
X138128000Y-156023988D01*
X133000000Y-178000000D02*
X125900000Y-185100000D01*
X138157004Y-155994979D02*
X138157000Y-155994983D01*
X138157000Y-155776274D02*
X138157004Y-155994979D01*
X111500000Y-183072032D02*
X112308032Y-182264000D01*
X138450000Y-153500000D02*
X138499998Y-153500000D01*
X140100000Y-116950000D02*
X135650000Y-112500000D01*
X138128000Y-161670159D02*
X137500000Y-162298159D01*
X139024854Y-150300000D02*
X141600000Y-147724854D01*
X111500000Y-192500000D02*
X111500000Y-183072032D01*
X141600000Y-140500000D02*
X137600000Y-136500000D01*
X125900000Y-185100000D02*
X125900000Y-195282634D01*
X117128000Y-168825496D02*
X126300000Y-159653496D01*
X112308032Y-175691968D02*
X117128000Y-170872000D01*
X141600000Y-147724854D02*
X141600000Y-140500000D01*
X138128000Y-156023988D02*
X138128000Y-161670159D01*
X137600000Y-136500000D02*
X137600000Y-124100000D01*
X138100000Y-150300000D02*
X139024854Y-150300000D01*
D28*
%TO.N,/Crossfaders/FILTER_OUT_L*%
X132100000Y-159900000D02*
X132100000Y-156400000D01*
X133900000Y-154600000D02*
X133900000Y-150200000D01*
X132100000Y-156400000D02*
X133900000Y-154600000D01*
X128645000Y-163355000D02*
X132100000Y-159900000D01*
X133900000Y-150200000D02*
X133700000Y-150000000D01*
X128000000Y-163355000D02*
X128645000Y-163355000D01*
X137340000Y-183330000D02*
X137340000Y-183830000D01*
X133800000Y-173300000D02*
X133800000Y-179790000D01*
X133800000Y-179790000D02*
X137340000Y-183330000D01*
%TO.N,Net-(OP3C--)*%
X110200000Y-141400000D02*
X110200000Y-146300000D01*
%TO.N,/Crossfaders/XFADE_OUT_R*%
X133700000Y-143737948D02*
X133700000Y-142558051D01*
X133299999Y-144137950D02*
X133700000Y-143737948D01*
%TO.N,/OUTPUT_FEEDBACK_L*%
X144000000Y-201920000D02*
X142344308Y-200264308D01*
X142344308Y-200264308D02*
X142344308Y-187447056D01*
X141600000Y-168299000D02*
X141599000Y-168300000D01*
X142153538Y-162346462D02*
X141600000Y-162900000D01*
X145000000Y-184791364D02*
X145000000Y-181800000D01*
X142344308Y-187447056D02*
X145000000Y-184791364D01*
X142153538Y-161250000D02*
X142153538Y-162346462D01*
X141600000Y-162900000D02*
X141600000Y-168299000D01*
X142223538Y-161180000D02*
X142153538Y-161250000D01*
%TO.N,Net-(C3-Pad2)*%
X131300000Y-145500000D02*
X131300000Y-140780331D01*
X131300000Y-140780331D02*
X129919669Y-139400000D01*
%TO.N,PROGRAM_UNBUFFERED_L*%
X106500000Y-201900000D02*
X106500000Y-201920000D01*
X103700000Y-210580000D02*
X106500000Y-213380000D01*
X103700000Y-204720000D02*
X103700000Y-210580000D01*
X106500000Y-201920000D02*
X103700000Y-204720000D01*
X114780000Y-193620000D02*
X106500000Y-201900000D01*
X119000000Y-193620000D02*
X114780000Y-193620000D01*
%TO.N,/OUTPUT_FEEDBACK_R*%
X144000000Y-168900000D02*
X144000000Y-171600000D01*
X145700000Y-179996704D02*
X145700000Y-203380000D01*
X147200000Y-178496704D02*
X145700000Y-179996704D01*
X144000000Y-171600000D02*
X147200000Y-174800000D01*
X147200000Y-174800000D02*
X147200000Y-178496704D01*
X145700000Y-203380000D02*
X144000000Y-205080000D01*
%TO.N,CARRIER_UNBUFFERED_L*%
X119000000Y-213380000D02*
X120900000Y-211480000D01*
X120900000Y-211480000D02*
X120900000Y-203820000D01*
X120900000Y-203820000D02*
X119000000Y-201920000D01*
%TO.N,Net-(OP1D--)*%
X111837120Y-197482120D02*
X112700000Y-198345000D01*
X112700000Y-198345000D02*
X112700000Y-204100000D01*
%TO.N,/CONNECTOR_RM_L*%
X130580025Y-115319975D02*
X130580025Y-115480025D01*
X137840000Y-185860000D02*
X138240000Y-185860000D01*
X134400000Y-119300000D02*
X134400000Y-159100000D01*
X134400000Y-159100000D02*
X127750000Y-165750000D01*
X138400000Y-181400000D02*
X138400000Y-175400000D01*
X130580025Y-115480025D02*
X134400000Y-119300000D01*
X138400000Y-175400000D02*
X135027682Y-172027682D01*
X139200000Y-182200000D02*
X138400000Y-181400000D01*
X135027682Y-172027682D02*
X134316640Y-172027682D01*
X137340000Y-186360000D02*
X137840000Y-185860000D01*
X139200000Y-184900000D02*
X139200000Y-182200000D01*
X138240000Y-185860000D02*
X139200000Y-184900000D01*
%TO.N,Net-(C4-Pad2)*%
X123900000Y-153600000D02*
X124200000Y-153300000D01*
X124200000Y-153300000D02*
X124200000Y-146100000D01*
X122750000Y-144650000D02*
X122750000Y-142750000D01*
X123500000Y-153600000D02*
X123900000Y-153600000D01*
X124200000Y-146100000D02*
X122750000Y-144650000D01*
%TO.N,/CARRIER_CONNECTOR_R*%
X116107659Y-112500000D02*
X115330000Y-112500000D01*
X128200000Y-154760718D02*
X128200000Y-145000000D01*
X129219669Y-137719669D02*
X121900000Y-130400000D01*
X121900000Y-118292341D02*
X116107659Y-112500000D01*
X121900000Y-130400000D02*
X121900000Y-118292341D01*
X128200000Y-145000000D02*
X129219669Y-143980331D01*
X128155808Y-154804910D02*
X128200000Y-154760718D01*
X129219669Y-143980331D02*
X129219669Y-137719669D01*
%TO.N,/CARRER_CONNECTOR_L*%
X143000000Y-125000000D02*
X143750000Y-125750000D01*
X127590687Y-118100000D02*
X126100000Y-118100000D01*
X117870000Y-112570000D02*
X117870000Y-112500000D01*
X126100000Y-118100000D02*
X125200000Y-117200000D01*
X143750000Y-128750000D02*
X145000000Y-130000000D01*
X139069975Y-125019975D02*
X139169975Y-125019975D01*
X139189950Y-125000000D02*
X143000000Y-125000000D01*
X125200000Y-117200000D02*
X122500000Y-117200000D01*
X143750000Y-125750000D02*
X143750000Y-128750000D01*
X139169975Y-125019975D02*
X139189950Y-125000000D01*
X122500000Y-117200000D02*
X117870000Y-112570000D01*
%TO.N,/PROGRAM_CONNECTOR_R*%
X145000000Y-125100000D02*
X145000000Y-127500000D01*
X119050000Y-122850000D02*
X112700000Y-116500000D01*
X121050000Y-122850000D02*
X119050000Y-122850000D01*
X143600000Y-123700000D02*
X145000000Y-125100000D01*
X138350000Y-124750000D02*
X139400000Y-123700000D01*
X112700000Y-112590000D02*
X112790000Y-112500000D01*
X138350000Y-127700000D02*
X138350000Y-124750000D01*
X139400000Y-123700000D02*
X143600000Y-123700000D01*
X112700000Y-116500000D02*
X112700000Y-112590000D01*
%TO.N,/Amplifiers/CARRIER_IN_R*%
X116600000Y-135800000D02*
X117400000Y-135000000D01*
X111700000Y-181312075D02*
X111700000Y-175400000D01*
X111700000Y-175400000D02*
X116600000Y-170500000D01*
X116600000Y-170500000D02*
X116600000Y-135800000D01*
X108500000Y-194200000D02*
X108500000Y-184512075D01*
X108500000Y-184512075D02*
X111700000Y-181312075D01*
%TO.N,/Amplifiers/CARRIER_IN_L*%
X132300000Y-177800000D02*
X125100000Y-185000000D01*
X137629000Y-155557575D02*
X137629000Y-152471000D01*
X132300000Y-171800000D02*
X132300000Y-177800000D01*
X147600000Y-140700000D02*
X147600000Y-126700000D01*
X136300000Y-167800000D02*
X136277000Y-167823000D01*
X136325999Y-165939370D02*
X136300000Y-165965369D01*
X137629000Y-155776283D02*
X137628996Y-155557579D01*
X136277000Y-167885075D02*
X135837075Y-168325000D01*
X142128000Y-147972000D02*
X142128000Y-146172000D01*
X137600000Y-161136084D02*
X137600000Y-155805283D01*
X147600000Y-126700000D02*
X145200000Y-124300000D01*
X142128000Y-146172000D02*
X147600000Y-140700000D01*
X137600000Y-155805283D02*
X137629000Y-155776283D01*
X135837075Y-168325000D02*
X135775000Y-168325000D01*
X136550000Y-162186084D02*
X137600000Y-161136084D01*
X137628996Y-155557579D02*
X137629000Y-155557575D01*
X125100000Y-185000000D02*
X125100000Y-201100000D01*
X136277000Y-167823000D02*
X136277000Y-167885075D01*
X136300000Y-165965369D02*
X136300000Y-167800000D01*
X135775000Y-168325000D02*
X132300000Y-171800000D01*
X125100000Y-201100000D02*
X124200000Y-202000000D01*
X137629000Y-152471000D02*
X142128000Y-147972000D01*
X136550000Y-163375813D02*
X136550000Y-162186084D01*
%TO.N,/Filters Sheet/CUTOFF_CV_L*%
X133800000Y-195000000D02*
X133800000Y-199620000D01*
X133800000Y-199620000D02*
X131500000Y-201920000D01*
X133800000Y-204220000D02*
X131500000Y-201920000D01*
X143700000Y-185100000D02*
X133800000Y-195000000D01*
X131500000Y-213380000D02*
X133800000Y-211080000D01*
X133800000Y-211080000D02*
X133800000Y-204220000D01*
%TO.N,/PROGRAM_L_XFADE*%
X138724852Y-149468630D02*
X139031370Y-149468630D01*
X117900000Y-133900000D02*
X120700000Y-136700000D01*
X112800000Y-123500000D02*
X117900000Y-128600000D01*
X141000000Y-141100000D02*
X136600000Y-136700000D01*
X139031370Y-149468630D02*
X141000000Y-147500000D01*
X107000000Y-123500000D02*
X112800000Y-123500000D01*
X117900000Y-128600000D02*
X117900000Y-133900000D01*
X107700000Y-180300000D02*
X107700000Y-188100000D01*
X106800000Y-179400000D02*
X107700000Y-180300000D01*
X141000000Y-147500000D02*
X141000000Y-141100000D01*
X106800000Y-164800000D02*
X106800000Y-179400000D01*
%TO.N,Net-(OP3C-+)*%
X124000000Y-155500000D02*
X124000000Y-159800000D01*
X124000000Y-159800000D02*
X118300000Y-165500000D01*
%TO.N,Net-(OP3A-+)*%
X132100000Y-155100000D02*
X131900000Y-155100000D01*
X129100000Y-154500000D02*
X129100000Y-149112348D01*
X133050000Y-154150000D02*
X132100000Y-155100000D01*
%TO.N,/PROGRAM_R_XFADE*%
X105800000Y-164000000D02*
X115300000Y-154500000D01*
X105800000Y-172800000D02*
X105800000Y-164000000D01*
X106600000Y-199800000D02*
X104844308Y-198044308D01*
X115300000Y-154500000D02*
X115300000Y-149500000D01*
X115100000Y-145400000D02*
X115100000Y-143700000D01*
X112100000Y-140700000D02*
X111000000Y-140700000D01*
X104844308Y-198044308D02*
X104844308Y-180544308D01*
X104844308Y-180544308D02*
X102700000Y-178400000D01*
X102700000Y-178400000D02*
X102700000Y-175900000D01*
X115100000Y-143700000D02*
X112100000Y-140700000D01*
X102700000Y-175900000D02*
X105800000Y-172800000D01*
%TO.N,Net-(OP4D--)*%
X136850000Y-159950000D02*
X136850000Y-157550000D01*
X137198999Y-149758994D02*
X137241006Y-149758994D01*
X137200000Y-151700000D02*
X137200000Y-149759995D01*
X136491877Y-137591877D02*
X136479334Y-137591877D01*
X140300000Y-146700000D02*
X140300000Y-141400000D01*
X140300000Y-141400000D02*
X136491877Y-137591877D01*
X137000000Y-155800000D02*
X137201000Y-155599000D01*
X137201000Y-151701000D02*
X137200000Y-151700000D01*
X137241006Y-149758994D02*
X140300000Y-146700000D01*
X137200000Y-149759995D02*
X137198999Y-149758994D01*
X137201000Y-155599000D02*
X137201000Y-151701000D01*
X136750000Y-155800000D02*
X137000000Y-155800000D01*
%TO.N,/Amplifiers/CARRIER_AMPLIFICATION_L*%
X136249000Y-129649000D02*
X136249000Y-126500000D01*
X138500000Y-131900000D02*
X141500000Y-131900000D01*
X108000000Y-172900000D02*
X108000000Y-170000000D01*
X141500000Y-131900000D02*
X142500000Y-130900000D01*
X136850000Y-130250000D02*
X136249000Y-129649000D01*
X116100000Y-161900000D02*
X116100000Y-127800000D01*
X142500000Y-130900000D02*
X142500000Y-130000000D01*
X108000000Y-170000000D02*
X116100000Y-161900000D01*
%TO.N,/Amplifiers/CARRER_AMPLIFICATION_R*%
X142500000Y-144650000D02*
X142500000Y-135100000D01*
X146900000Y-130700000D02*
X146900000Y-128500000D01*
X142500000Y-135100000D02*
X146900000Y-130700000D01*
X147900000Y-150100000D02*
X148500000Y-150700000D01*
X148500000Y-162000000D02*
X143000000Y-167500000D01*
X141000000Y-126000000D02*
X142500000Y-127500000D01*
X139000000Y-126000000D02*
X141000000Y-126000000D01*
X148500000Y-150700000D02*
X148500000Y-162000000D01*
X142500000Y-144700000D02*
X142500000Y-144650000D01*
X143000000Y-167500000D02*
X143000000Y-170225314D01*
%TO.N,/Amplifiers/PROGRAM_AMPLIFICATION_R*%
X111700000Y-132350000D02*
X108800000Y-132350000D01*
X122699999Y-128489949D02*
X125710051Y-128489949D01*
X108000000Y-131550000D02*
X108000000Y-130000000D01*
X113500000Y-130550000D02*
X111700000Y-132350000D01*
X113500000Y-129300000D02*
X113500000Y-130550000D01*
X125710051Y-128489949D02*
X128050000Y-126150000D01*
X108800000Y-132350000D02*
X108000000Y-131550000D01*
%TO.N,/Amplifiers/FEEDBACK_MIX_R*%
X108000000Y-140812075D02*
X108000000Y-153000000D01*
X108351000Y-140461075D02*
X108000000Y-140812075D01*
X110500000Y-138300000D02*
X108351000Y-140449000D01*
X108351000Y-140449000D02*
X108351000Y-140461075D01*
%TO.N,/Amplifiers/PROGRAM_AMPLIFIED_L*%
X112000000Y-131000000D02*
X112000000Y-129000000D01*
X112000000Y-129000000D02*
X110500000Y-127500000D01*
X112000000Y-139700000D02*
X112000000Y-133000000D01*
%TO.N,/Amplifiers/PROGRAM_AMPLIFIED_R*%
X124160050Y-129950000D02*
X125500000Y-129950000D01*
X125500000Y-129950000D02*
X129350000Y-126100000D01*
X124155025Y-129944975D02*
X124160050Y-129950000D01*
D27*
%TO.N,/Amplifiers/CARRIER_UNAMPLIFIED_L*%
X140000000Y-127500000D02*
X140000000Y-130000000D01*
D28*
%TO.N,/OutputAttenuators/XFADE_OUT_UNATTENUATED_L*%
X142500000Y-160200000D02*
X142500000Y-155500000D01*
X144993735Y-162693735D02*
X142500000Y-160200000D01*
X145656265Y-162693735D02*
X144993735Y-162693735D01*
%TO.N,/OutputAttenuators/XFADE_OUT_UNATTENUATED_R*%
X146555025Y-162855025D02*
X146550000Y-162850000D01*
X146550000Y-159650000D02*
X143750000Y-156850000D01*
X146550000Y-162850000D02*
X146550000Y-159650000D01*
%TO.N,/PROGRAM_CONNECTOR_L*%
X132500000Y-126100000D02*
X132500000Y-122000000D01*
X125900000Y-115400000D02*
X122100000Y-115400000D01*
X128000000Y-162300000D02*
X128000000Y-156600000D01*
X132600000Y-152000000D02*
X132600000Y-126200000D01*
X128000000Y-156600000D02*
X132600000Y-152000000D01*
X132600000Y-126200000D02*
X132500000Y-126100000D01*
X120400000Y-113700000D02*
X120410000Y-113690000D01*
X132500000Y-122000000D02*
X125900000Y-115400000D01*
X122100000Y-115400000D02*
X120400000Y-113700000D01*
X120410000Y-113690000D02*
X120410000Y-112500000D01*
%TO.N,/CONNECTOR_RM_R*%
X128750000Y-112500000D02*
X134900000Y-118650000D01*
X128030000Y-112500000D02*
X128750000Y-112500000D01*
X134900000Y-161100000D02*
X127750000Y-168250000D01*
X134900000Y-118650000D02*
X134900000Y-161100000D01*
%TO.N,/Crossfaders/FILTER_OUT_R*%
X125200000Y-171900000D02*
X115000000Y-182100000D01*
X115000000Y-185900000D02*
X114330000Y-186570000D01*
X125200000Y-171700000D02*
X125200000Y-171900000D01*
X115000000Y-182100000D02*
X115000000Y-185900000D01*
X113260000Y-186570000D02*
X113160000Y-186670000D01*
X114330000Y-186570000D02*
X113260000Y-186570000D01*
%TD*%
%TA.AperFunction,Conductor*%
%TO.N,GND*%
G36*
X101961492Y-188407894D02*
G01*
X101962095Y-188406912D01*
X101966242Y-188409453D01*
X101966249Y-188409456D01*
X101966251Y-188409458D01*
X102146539Y-188501320D01*
X102292665Y-188548799D01*
X102338977Y-188563847D01*
X102538824Y-188595500D01*
X102538829Y-188595500D01*
X103461176Y-188595500D01*
X103661022Y-188563847D01*
X103853461Y-188501320D01*
X104013513Y-188419768D01*
X104082181Y-188406872D01*
X104146922Y-188433148D01*
X104187180Y-188490254D01*
X104193808Y-188530253D01*
X104193808Y-198108379D01*
X104218577Y-198232896D01*
X104218580Y-198232932D01*
X104218584Y-198232932D01*
X104218804Y-198234041D01*
X104218809Y-198234057D01*
X104267840Y-198352431D01*
X104339034Y-198458981D01*
X104339035Y-198458982D01*
X105719345Y-199839291D01*
X105752830Y-199900614D01*
X105753281Y-199902781D01*
X105782182Y-200048074D01*
X105782184Y-200048082D01*
X105846295Y-200202860D01*
X105939373Y-200342162D01*
X105943239Y-200346872D01*
X105941777Y-200348071D01*
X105971047Y-200401674D01*
X105966063Y-200471366D01*
X105924191Y-200527299D01*
X105906176Y-200538517D01*
X105713566Y-200636657D01*
X105630215Y-200697216D01*
X105522490Y-200775483D01*
X105522488Y-200775485D01*
X105522487Y-200775485D01*
X105355485Y-200942487D01*
X105355485Y-200942488D01*
X105355483Y-200942490D01*
X105295862Y-201024550D01*
X105216657Y-201133566D01*
X105109433Y-201344003D01*
X105036446Y-201568631D01*
X104999500Y-201801902D01*
X104999500Y-202038097D01*
X105036447Y-202271369D01*
X105036447Y-202271372D01*
X105060109Y-202344194D01*
X105062104Y-202414035D01*
X105029859Y-202470193D01*
X103194724Y-204305328D01*
X103133830Y-204396463D01*
X103133831Y-204396464D01*
X103123536Y-204411871D01*
X103123533Y-204411877D01*
X103074499Y-204530255D01*
X103074497Y-204530261D01*
X103049500Y-204655928D01*
X103049500Y-204655931D01*
X103049500Y-210644069D01*
X103062865Y-210711256D01*
X103074499Y-210769744D01*
X103123535Y-210888127D01*
X103163019Y-210947220D01*
X103194726Y-210994673D01*
X103194727Y-210994674D01*
X105029859Y-212829805D01*
X105063344Y-212891128D01*
X105060109Y-212955803D01*
X105036447Y-213028628D01*
X104999500Y-213261902D01*
X104999500Y-213498097D01*
X105036446Y-213731368D01*
X105109433Y-213955996D01*
X105216657Y-214166433D01*
X105355483Y-214357510D01*
X105522490Y-214524517D01*
X105713567Y-214663343D01*
X105874839Y-214745515D01*
X105925635Y-214793490D01*
X105942430Y-214861311D01*
X105919893Y-214927445D01*
X105865178Y-214970897D01*
X105818544Y-214980000D01*
X105452155Y-214980000D01*
X105392627Y-214986401D01*
X105392620Y-214986403D01*
X105257913Y-215036645D01*
X105257906Y-215036649D01*
X105142812Y-215122809D01*
X105142809Y-215122812D01*
X105056649Y-215237906D01*
X105056645Y-215237913D01*
X105006403Y-215372620D01*
X105006401Y-215372627D01*
X105000000Y-215432155D01*
X105000000Y-216230000D01*
X106009252Y-216230000D01*
X105987482Y-216267708D01*
X105950000Y-216407591D01*
X105950000Y-216552409D01*
X105987482Y-216692292D01*
X106009252Y-216730000D01*
X105000000Y-216730000D01*
X105000000Y-217527844D01*
X105006401Y-217587372D01*
X105008187Y-217594930D01*
X105005418Y-217595584D01*
X105009444Y-217651856D01*
X104975959Y-217713180D01*
X104914637Y-217746666D01*
X104888277Y-217749500D01*
X101894500Y-217749500D01*
X101827461Y-217729815D01*
X101781706Y-217677011D01*
X101770500Y-217625500D01*
X101770500Y-188510600D01*
X101790185Y-188443561D01*
X101842989Y-188397806D01*
X101912147Y-188387862D01*
X101961492Y-188407894D01*
G37*
%TD.AperFunction*%
%TA.AperFunction,Conductor*%
G36*
X146462130Y-177647143D02*
G01*
X146520363Y-177685753D01*
X146548477Y-177749716D01*
X146549500Y-177765609D01*
X146549500Y-178175895D01*
X146529815Y-178242934D01*
X146513181Y-178263576D01*
X145194727Y-179582029D01*
X145194726Y-179582030D01*
X145123534Y-179688578D01*
X145074499Y-179806959D01*
X145074497Y-179806965D01*
X145049500Y-179932632D01*
X145049500Y-180825500D01*
X145029815Y-180892539D01*
X144977011Y-180938294D01*
X144925500Y-180949500D01*
X144916228Y-180949500D01*
X144751925Y-180982182D01*
X144751917Y-180982184D01*
X144597139Y-181046295D01*
X144457837Y-181139373D01*
X144339373Y-181257837D01*
X144246295Y-181397139D01*
X144182184Y-181551917D01*
X144182182Y-181551925D01*
X144149500Y-181716228D01*
X144149500Y-181883771D01*
X144182182Y-182048074D01*
X144182184Y-182048082D01*
X144246295Y-182202860D01*
X144246296Y-182202862D01*
X144246297Y-182202863D01*
X144304103Y-182289376D01*
X144328602Y-182326040D01*
X144349480Y-182392717D01*
X144349500Y-182394931D01*
X144349500Y-184279107D01*
X144329815Y-184346146D01*
X144277011Y-184391901D01*
X144207853Y-184401845D01*
X144156610Y-184382209D01*
X144102865Y-184346298D01*
X144102861Y-184346296D01*
X143948082Y-184282184D01*
X143948074Y-184282182D01*
X143783771Y-184249500D01*
X143783767Y-184249500D01*
X143616233Y-184249500D01*
X143616228Y-184249500D01*
X143451925Y-184282182D01*
X143451917Y-184282184D01*
X143297139Y-184346295D01*
X143157837Y-184439373D01*
X143039373Y-184557837D01*
X142946295Y-184697139D01*
X142882184Y-184851917D01*
X142882182Y-184851923D01*
X142853281Y-184997219D01*
X142820896Y-185059130D01*
X142819345Y-185060708D01*
X133294722Y-194585331D01*
X133294717Y-194585337D01*
X133267271Y-194626417D01*
X133267269Y-194626420D01*
X133249751Y-194652637D01*
X133223534Y-194691873D01*
X133174499Y-194810255D01*
X133174497Y-194810261D01*
X133149500Y-194935928D01*
X133149500Y-196435471D01*
X133129815Y-196502510D01*
X133077011Y-196548265D01*
X133007853Y-196558209D01*
X132944297Y-196529184D01*
X132911785Y-196484916D01*
X132826487Y-196288746D01*
X132805660Y-196256552D01*
X132692508Y-196081645D01*
X132526504Y-195899210D01*
X132368251Y-195774229D01*
X132332935Y-195746338D01*
X132332932Y-195746336D01*
X132116991Y-195627130D01*
X132116982Y-195627126D01*
X131884491Y-195544796D01*
X131884471Y-195544791D01*
X131641644Y-195501538D01*
X131641652Y-195501538D01*
X131400496Y-195498592D01*
X131395007Y-195498525D01*
X131395006Y-195498525D01*
X131395005Y-195498525D01*
X131395004Y-195498525D01*
X131151190Y-195535834D01*
X131151180Y-195535837D01*
X130916732Y-195612466D01*
X130697951Y-195726356D01*
X130697948Y-195726358D01*
X130500698Y-195874456D01*
X130330289Y-196052779D01*
X130330279Y-196052792D01*
X130191287Y-196256547D01*
X130191285Y-196256552D01*
X130087439Y-196480268D01*
X130087436Y-196480276D01*
X130021520Y-196717960D01*
X130021519Y-196717967D01*
X129995307Y-196963225D01*
X130009507Y-197209474D01*
X130009507Y-197209479D01*
X130063731Y-197450092D01*
X130063734Y-197450099D01*
X130110689Y-197565737D01*
X130156533Y-197678636D01*
X130285412Y-197888947D01*
X130360393Y-197975507D01*
X130446908Y-198075382D01*
X130636687Y-198232939D01*
X130636690Y-198232941D01*
X130636696Y-198232945D01*
X130849650Y-198357385D01*
X131080072Y-198445375D01*
X131080075Y-198445375D01*
X131080079Y-198445377D01*
X131321785Y-198494553D01*
X131568278Y-198503592D01*
X131812936Y-198472250D01*
X132049191Y-198401370D01*
X132270697Y-198292856D01*
X132471505Y-198149621D01*
X132646223Y-197975512D01*
X132790158Y-197775205D01*
X132899445Y-197554079D01*
X132906855Y-197529691D01*
X132945177Y-197471269D01*
X133009002Y-197442839D01*
X133078064Y-197453429D01*
X133130438Y-197499676D01*
X133149500Y-197565737D01*
X133149500Y-199299192D01*
X133129815Y-199366231D01*
X133113181Y-199386873D01*
X132050194Y-200449859D01*
X131988871Y-200483344D01*
X131924196Y-200480109D01*
X131851370Y-200456447D01*
X131851371Y-200456447D01*
X131618097Y-200419500D01*
X131618092Y-200419500D01*
X131381908Y-200419500D01*
X131381903Y-200419500D01*
X131148631Y-200456446D01*
X130924003Y-200529433D01*
X130713566Y-200636657D01*
X130630215Y-200697216D01*
X130522490Y-200775483D01*
X130522488Y-200775485D01*
X130522487Y-200775485D01*
X130355485Y-200942487D01*
X130355485Y-200942488D01*
X130355483Y-200942490D01*
X130295862Y-201024550D01*
X130216657Y-201133566D01*
X130109433Y-201344003D01*
X130036446Y-201568631D01*
X129999500Y-201801902D01*
X129999500Y-202038097D01*
X130036446Y-202271368D01*
X130109433Y-202495996D01*
X130216657Y-202706433D01*
X130355483Y-202897510D01*
X130522490Y-203064517D01*
X130713567Y-203203343D01*
X130812991Y-203254002D01*
X130924003Y-203310566D01*
X130924005Y-203310566D01*
X130924008Y-203310568D01*
X131003535Y-203336408D01*
X131144063Y-203382069D01*
X131201738Y-203421507D01*
X131228936Y-203485866D01*
X131217021Y-203554712D01*
X131169777Y-203606188D01*
X131144063Y-203617931D01*
X130924003Y-203689433D01*
X130713566Y-203796657D01*
X130617423Y-203866510D01*
X130522490Y-203935483D01*
X130522488Y-203935485D01*
X130522487Y-203935485D01*
X130355485Y-204102487D01*
X130355485Y-204102488D01*
X130355483Y-204102490D01*
X130316658Y-204155928D01*
X130216657Y-204293566D01*
X130109433Y-204504003D01*
X130036446Y-204728631D01*
X129999500Y-204961902D01*
X129999500Y-205198097D01*
X130036446Y-205431368D01*
X130109433Y-205655996D01*
X130216657Y-205866433D01*
X130355483Y-206057510D01*
X130522490Y-206224517D01*
X130713567Y-206363343D01*
X130812991Y-206414002D01*
X130924003Y-206470566D01*
X130924005Y-206470566D01*
X130924008Y-206470568D01*
X131044412Y-206509689D01*
X131148631Y-206543553D01*
X131381903Y-206580500D01*
X131381908Y-206580500D01*
X131618097Y-206580500D01*
X131851368Y-206543553D01*
X132075992Y-206470568D01*
X132286433Y-206363343D01*
X132477510Y-206224517D01*
X132644517Y-206057510D01*
X132783343Y-205866433D01*
X132890568Y-205655992D01*
X132907569Y-205603665D01*
X132947007Y-205545992D01*
X133011366Y-205518794D01*
X133080212Y-205530709D01*
X133131688Y-205577953D01*
X133149500Y-205641986D01*
X133149500Y-209440066D01*
X133129815Y-209507105D01*
X133077011Y-209552860D01*
X133007853Y-209562804D01*
X132944297Y-209533779D01*
X132910610Y-209486718D01*
X132891667Y-209440066D01*
X132843468Y-209321366D01*
X132714589Y-209111055D01*
X132714588Y-209111054D01*
X132714587Y-209111052D01*
X132639601Y-209024487D01*
X132553092Y-208924618D01*
X132363313Y-208767061D01*
X132363311Y-208767059D01*
X132363303Y-208767054D01*
X132150349Y-208642614D01*
X131919927Y-208554624D01*
X131855731Y-208541563D01*
X131678215Y-208505447D01*
X131678216Y-208505447D01*
X131637132Y-208503940D01*
X131431722Y-208496408D01*
X131431720Y-208496408D01*
X131431717Y-208496408D01*
X131187062Y-208527750D01*
X130950815Y-208598627D01*
X130950813Y-208598628D01*
X130729302Y-208707144D01*
X130528500Y-208850374D01*
X130528493Y-208850380D01*
X130353777Y-209024487D01*
X130353773Y-209024492D01*
X130209843Y-209224791D01*
X130209840Y-209224797D01*
X130100555Y-209445918D01*
X130100554Y-209445923D01*
X130028850Y-209681928D01*
X129996657Y-209926459D01*
X129996656Y-209926480D01*
X129994858Y-209999995D01*
X129994859Y-210000007D01*
X130015070Y-210245831D01*
X130075159Y-210485055D01*
X130075162Y-210485063D01*
X130173512Y-210711253D01*
X130173514Y-210711256D01*
X130307492Y-210918355D01*
X130330231Y-210943345D01*
X130455830Y-211081376D01*
X130473496Y-211100790D01*
X130667068Y-211253664D01*
X130824098Y-211340349D01*
X130883008Y-211372869D01*
X130883017Y-211372873D01*
X131115508Y-211455203D01*
X131115513Y-211455204D01*
X131115518Y-211455206D01*
X131115524Y-211455207D01*
X131115528Y-211455208D01*
X131165797Y-211464162D01*
X131358354Y-211498461D01*
X131358347Y-211498461D01*
X131377566Y-211498695D01*
X131604993Y-211501475D01*
X131848813Y-211464165D01*
X132083266Y-211387534D01*
X132302054Y-211273640D01*
X132444060Y-211167019D01*
X132509487Y-211142510D01*
X132577781Y-211157264D01*
X132627257Y-211206599D01*
X132642207Y-211274850D01*
X132617883Y-211340349D01*
X132606191Y-211353862D01*
X132050194Y-211909859D01*
X131988871Y-211943344D01*
X131924196Y-211940109D01*
X131851370Y-211916447D01*
X131851371Y-211916447D01*
X131618097Y-211879500D01*
X131618092Y-211879500D01*
X131381908Y-211879500D01*
X131381903Y-211879500D01*
X131148631Y-211916446D01*
X130924003Y-211989433D01*
X130713566Y-212096657D01*
X130604550Y-212175862D01*
X130522490Y-212235483D01*
X130522488Y-212235485D01*
X130522487Y-212235485D01*
X130355485Y-212402487D01*
X130355485Y-212402488D01*
X130355483Y-212402490D01*
X130295862Y-212484550D01*
X130216657Y-212593566D01*
X130109433Y-212804003D01*
X130036446Y-213028631D01*
X129999500Y-213261902D01*
X129999500Y-213498097D01*
X130036446Y-213731368D01*
X130109433Y-213955996D01*
X130216657Y-214166433D01*
X130355483Y-214357510D01*
X130522490Y-214524517D01*
X130713567Y-214663343D01*
X130874839Y-214745515D01*
X130925635Y-214793490D01*
X130942430Y-214861311D01*
X130919893Y-214927445D01*
X130865178Y-214970897D01*
X130818544Y-214980000D01*
X130452155Y-214980000D01*
X130392627Y-214986401D01*
X130392620Y-214986403D01*
X130257913Y-215036645D01*
X130257906Y-215036649D01*
X130142812Y-215122809D01*
X130142809Y-215122812D01*
X130056649Y-215237906D01*
X130056645Y-215237913D01*
X130006403Y-215372620D01*
X130006401Y-215372627D01*
X130000000Y-215432155D01*
X130000000Y-216230000D01*
X131009252Y-216230000D01*
X130987482Y-216267708D01*
X130950000Y-216407591D01*
X130950000Y-216552409D01*
X130987482Y-216692292D01*
X131009252Y-216730000D01*
X130000000Y-216730000D01*
X130000000Y-217527844D01*
X130006401Y-217587372D01*
X130008187Y-217594930D01*
X130005418Y-217595584D01*
X130009444Y-217651856D01*
X129975959Y-217713180D01*
X129914637Y-217746666D01*
X129888277Y-217749500D01*
X120611723Y-217749500D01*
X120544684Y-217729815D01*
X120498929Y-217677011D01*
X120488985Y-217607853D01*
X120492256Y-217595034D01*
X120491813Y-217594930D01*
X120493598Y-217587372D01*
X120499999Y-217527844D01*
X120500000Y-217527827D01*
X120500000Y-216730000D01*
X119490748Y-216730000D01*
X119512518Y-216692292D01*
X119550000Y-216552409D01*
X119550000Y-216407591D01*
X119512518Y-216267708D01*
X119490748Y-216230000D01*
X120500000Y-216230000D01*
X120500000Y-215432172D01*
X120499999Y-215432155D01*
X120493598Y-215372627D01*
X120493596Y-215372620D01*
X120443354Y-215237913D01*
X120443350Y-215237906D01*
X120357190Y-215122812D01*
X120357187Y-215122809D01*
X120242093Y-215036649D01*
X120242086Y-215036645D01*
X120107379Y-214986403D01*
X120107372Y-214986401D01*
X120047844Y-214980000D01*
X119681456Y-214980000D01*
X119614417Y-214960315D01*
X119568662Y-214907511D01*
X119558718Y-214838353D01*
X119587743Y-214774797D01*
X119625161Y-214745515D01*
X119786433Y-214663343D01*
X119977510Y-214524517D01*
X120144517Y-214357510D01*
X120283343Y-214166433D01*
X120390568Y-213955992D01*
X120463553Y-213731368D01*
X120500500Y-213498097D01*
X120500500Y-213261902D01*
X120480347Y-213134666D01*
X120463553Y-213028632D01*
X120439888Y-212955802D01*
X120437894Y-212885963D01*
X120470137Y-212829807D01*
X121405277Y-211894669D01*
X121476465Y-211788127D01*
X121525501Y-211669743D01*
X121550500Y-211544069D01*
X121550500Y-211415931D01*
X121550500Y-203755931D01*
X121550500Y-203755928D01*
X121525502Y-203630261D01*
X121525501Y-203630260D01*
X121525501Y-203630256D01*
X121476465Y-203511873D01*
X121434789Y-203449500D01*
X121416085Y-203421507D01*
X121405279Y-203405333D01*
X120470139Y-202470193D01*
X120436654Y-202408870D01*
X120439888Y-202344197D01*
X120463553Y-202271368D01*
X120480175Y-202166420D01*
X120500500Y-202038097D01*
X120500500Y-201801902D01*
X120463553Y-201568631D01*
X120418875Y-201431128D01*
X120390568Y-201344008D01*
X120390566Y-201344005D01*
X120390566Y-201344003D01*
X120325584Y-201216469D01*
X120283343Y-201133567D01*
X120144517Y-200942490D01*
X119977510Y-200775483D01*
X119786433Y-200636657D01*
X119575996Y-200529433D01*
X119351368Y-200456446D01*
X119118097Y-200419500D01*
X119118092Y-200419500D01*
X118881908Y-200419500D01*
X118881903Y-200419500D01*
X118648631Y-200456446D01*
X118424003Y-200529433D01*
X118213566Y-200636657D01*
X118130215Y-200697216D01*
X118022490Y-200775483D01*
X118022488Y-200775485D01*
X118022487Y-200775485D01*
X117855485Y-200942487D01*
X117855485Y-200942488D01*
X117855483Y-200942490D01*
X117795862Y-201024550D01*
X117716657Y-201133566D01*
X117609433Y-201344003D01*
X117536446Y-201568631D01*
X117499500Y-201801902D01*
X117499500Y-202038097D01*
X117536446Y-202271368D01*
X117609433Y-202495996D01*
X117716657Y-202706433D01*
X117855483Y-202897510D01*
X118022490Y-203064517D01*
X118213567Y-203203343D01*
X118312991Y-203254002D01*
X118424003Y-203310566D01*
X118424005Y-203310566D01*
X118424008Y-203310568D01*
X118503535Y-203336408D01*
X118644063Y-203382069D01*
X118701738Y-203421507D01*
X118728936Y-203485866D01*
X118717021Y-203554712D01*
X118669777Y-203606188D01*
X118644063Y-203617931D01*
X118424003Y-203689433D01*
X118213566Y-203796657D01*
X118117423Y-203866510D01*
X118022490Y-203935483D01*
X118022488Y-203935485D01*
X118022487Y-203935485D01*
X117855485Y-204102487D01*
X117855485Y-204102488D01*
X117855483Y-204102490D01*
X117816658Y-204155928D01*
X117716657Y-204293566D01*
X117609433Y-204504003D01*
X117536446Y-204728631D01*
X117499500Y-204961902D01*
X117499500Y-205198097D01*
X117536446Y-205431368D01*
X117609433Y-205655996D01*
X117716657Y-205866433D01*
X117855483Y-206057510D01*
X118022490Y-206224517D01*
X118213567Y-206363343D01*
X118312991Y-206414002D01*
X118424003Y-206470566D01*
X118424005Y-206470566D01*
X118424008Y-206470568D01*
X118544412Y-206509689D01*
X118648631Y-206543553D01*
X118881903Y-206580500D01*
X118881908Y-206580500D01*
X119118097Y-206580500D01*
X119351368Y-206543553D01*
X119575992Y-206470568D01*
X119786433Y-206363343D01*
X119977510Y-206224517D01*
X120037819Y-206164208D01*
X120099142Y-206130723D01*
X120168834Y-206135707D01*
X120224767Y-206177579D01*
X120249184Y-206243043D01*
X120249500Y-206251889D01*
X120249500Y-208823568D01*
X120229815Y-208890607D01*
X120177011Y-208936362D01*
X120107853Y-208946306D01*
X120046294Y-208918974D01*
X119863313Y-208767061D01*
X119863311Y-208767059D01*
X119863303Y-208767054D01*
X119650349Y-208642614D01*
X119419927Y-208554624D01*
X119355731Y-208541563D01*
X119178215Y-208505447D01*
X119178216Y-208505447D01*
X119137132Y-208503940D01*
X118931722Y-208496408D01*
X118931720Y-208496408D01*
X118931717Y-208496408D01*
X118687062Y-208527750D01*
X118450815Y-208598627D01*
X118450813Y-208598628D01*
X118229302Y-208707144D01*
X118028500Y-208850374D01*
X118028493Y-208850380D01*
X117853777Y-209024487D01*
X117853773Y-209024492D01*
X117709843Y-209224791D01*
X117709840Y-209224797D01*
X117600555Y-209445918D01*
X117600554Y-209445923D01*
X117528850Y-209681928D01*
X117496657Y-209926459D01*
X117496656Y-209926480D01*
X117494858Y-209999995D01*
X117494859Y-210000007D01*
X117515070Y-210245831D01*
X117575159Y-210485055D01*
X117575162Y-210485063D01*
X117673512Y-210711253D01*
X117673514Y-210711256D01*
X117807492Y-210918355D01*
X117830231Y-210943345D01*
X117955830Y-211081376D01*
X117973496Y-211100790D01*
X118167068Y-211253664D01*
X118324098Y-211340349D01*
X118383008Y-211372869D01*
X118383017Y-211372873D01*
X118615508Y-211455203D01*
X118615513Y-211455204D01*
X118615518Y-211455206D01*
X118615524Y-211455207D01*
X118615528Y-211455208D01*
X118665797Y-211464162D01*
X118858354Y-211498461D01*
X118858347Y-211498461D01*
X118877566Y-211498695D01*
X119104993Y-211501475D01*
X119348813Y-211464165D01*
X119583266Y-211387534D01*
X119802054Y-211273640D01*
X119944058Y-211167020D01*
X120009486Y-211142511D01*
X120077780Y-211157265D01*
X120127256Y-211206600D01*
X120142206Y-211274851D01*
X120117882Y-211340351D01*
X120106190Y-211353863D01*
X119550193Y-211909859D01*
X119488870Y-211943344D01*
X119424194Y-211940109D01*
X119351370Y-211916447D01*
X119118097Y-211879500D01*
X119118092Y-211879500D01*
X118881908Y-211879500D01*
X118881903Y-211879500D01*
X118648631Y-211916446D01*
X118424003Y-211989433D01*
X118213566Y-212096657D01*
X118104550Y-212175862D01*
X118022490Y-212235483D01*
X118022488Y-212235485D01*
X118022487Y-212235485D01*
X117855485Y-212402487D01*
X117855485Y-212402488D01*
X117855483Y-212402490D01*
X117795862Y-212484550D01*
X117716657Y-212593566D01*
X117609433Y-212804003D01*
X117536446Y-213028631D01*
X117499500Y-213261902D01*
X117499500Y-213498097D01*
X117536446Y-213731368D01*
X117609433Y-213955996D01*
X117716657Y-214166433D01*
X117855483Y-214357510D01*
X118022490Y-214524517D01*
X118213567Y-214663343D01*
X118374839Y-214745515D01*
X118425635Y-214793490D01*
X118442430Y-214861311D01*
X118419893Y-214927445D01*
X118365178Y-214970897D01*
X118318544Y-214980000D01*
X117952155Y-214980000D01*
X117892627Y-214986401D01*
X117892620Y-214986403D01*
X117757913Y-215036645D01*
X117757906Y-215036649D01*
X117642812Y-215122809D01*
X117642809Y-215122812D01*
X117556649Y-215237906D01*
X117556645Y-215237913D01*
X117506403Y-215372620D01*
X117506401Y-215372627D01*
X117500000Y-215432155D01*
X117500000Y-216230000D01*
X118509252Y-216230000D01*
X118487482Y-216267708D01*
X118450000Y-216407591D01*
X118450000Y-216552409D01*
X118487482Y-216692292D01*
X118509252Y-216730000D01*
X117500000Y-216730000D01*
X117500000Y-217527844D01*
X117506401Y-217587372D01*
X117508187Y-217594930D01*
X117505418Y-217595584D01*
X117509444Y-217651856D01*
X117475959Y-217713180D01*
X117414637Y-217746666D01*
X117388277Y-217749500D01*
X108111723Y-217749500D01*
X108044684Y-217729815D01*
X107998929Y-217677011D01*
X107988985Y-217607853D01*
X107992256Y-217595034D01*
X107991813Y-217594930D01*
X107993598Y-217587372D01*
X107999999Y-217527844D01*
X108000000Y-217527827D01*
X108000000Y-216730000D01*
X106990748Y-216730000D01*
X107012518Y-216692292D01*
X107050000Y-216552409D01*
X107050000Y-216407591D01*
X107012518Y-216267708D01*
X106990748Y-216230000D01*
X108000000Y-216230000D01*
X108000000Y-215432172D01*
X107999999Y-215432155D01*
X107993598Y-215372627D01*
X107993596Y-215372620D01*
X107943354Y-215237913D01*
X107943350Y-215237906D01*
X107857190Y-215122812D01*
X107857187Y-215122809D01*
X107742093Y-215036649D01*
X107742086Y-215036645D01*
X107607379Y-214986403D01*
X107607372Y-214986401D01*
X107547844Y-214980000D01*
X107181456Y-214980000D01*
X107114417Y-214960315D01*
X107068662Y-214907511D01*
X107058718Y-214838353D01*
X107087743Y-214774797D01*
X107125161Y-214745515D01*
X107286433Y-214663343D01*
X107477510Y-214524517D01*
X107644517Y-214357510D01*
X107783343Y-214166433D01*
X107890568Y-213955992D01*
X107963553Y-213731368D01*
X108000500Y-213498097D01*
X108000500Y-213261902D01*
X107963553Y-213028631D01*
X107917197Y-212885963D01*
X107890568Y-212804008D01*
X107890566Y-212804005D01*
X107890566Y-212804003D01*
X107783342Y-212593566D01*
X107644517Y-212402490D01*
X107477510Y-212235483D01*
X107286433Y-212096657D01*
X107075996Y-211989433D01*
X106851368Y-211916446D01*
X106618097Y-211879500D01*
X106618092Y-211879500D01*
X106381908Y-211879500D01*
X106381903Y-211879500D01*
X106148628Y-211916447D01*
X106075803Y-211940109D01*
X106005962Y-211942104D01*
X105949805Y-211909859D01*
X105388708Y-211348762D01*
X105355223Y-211287439D01*
X105360207Y-211217747D01*
X105402079Y-211161814D01*
X105467543Y-211137397D01*
X105535816Y-211152249D01*
X105553237Y-211163765D01*
X105667068Y-211253664D01*
X105824098Y-211340349D01*
X105883008Y-211372869D01*
X105883017Y-211372873D01*
X106115508Y-211455203D01*
X106115513Y-211455204D01*
X106115518Y-211455206D01*
X106115524Y-211455207D01*
X106115528Y-211455208D01*
X106165797Y-211464162D01*
X106358354Y-211498461D01*
X106358347Y-211498461D01*
X106377566Y-211498695D01*
X106604993Y-211501475D01*
X106848813Y-211464165D01*
X107083266Y-211387534D01*
X107302054Y-211273640D01*
X107499303Y-211125542D01*
X107669714Y-210947216D01*
X107808712Y-210743452D01*
X107912564Y-210519722D01*
X107978481Y-210282035D01*
X108004692Y-210036774D01*
X107990493Y-209790525D01*
X107966020Y-209681928D01*
X107936268Y-209549907D01*
X107936266Y-209549901D01*
X107843468Y-209321366D01*
X107714589Y-209111055D01*
X107714588Y-209111054D01*
X107714587Y-209111052D01*
X107639601Y-209024487D01*
X107553092Y-208924618D01*
X107363313Y-208767061D01*
X107363311Y-208767059D01*
X107363303Y-208767054D01*
X107150349Y-208642614D01*
X106919927Y-208554624D01*
X106855731Y-208541563D01*
X106678215Y-208505447D01*
X106678216Y-208505447D01*
X106637132Y-208503940D01*
X106431722Y-208496408D01*
X106431720Y-208496408D01*
X106431717Y-208496408D01*
X106187062Y-208527750D01*
X105950815Y-208598627D01*
X105950813Y-208598628D01*
X105729302Y-208707144D01*
X105528500Y-208850374D01*
X105528493Y-208850380D01*
X105353777Y-209024487D01*
X105353773Y-209024492D01*
X105209843Y-209224791D01*
X105209840Y-209224797D01*
X105100555Y-209445918D01*
X105100554Y-209445923D01*
X105028850Y-209681928D01*
X104996657Y-209926459D01*
X104996656Y-209926480D01*
X104994858Y-209999995D01*
X104994859Y-210000007D01*
X105015070Y-210245831D01*
X105075159Y-210485055D01*
X105075162Y-210485063D01*
X105173512Y-210711253D01*
X105173514Y-210711256D01*
X105287935Y-210888125D01*
X105310256Y-210922627D01*
X105309277Y-210923260D01*
X105332555Y-210983166D01*
X105318634Y-211051634D01*
X105269906Y-211101708D01*
X105201842Y-211117488D01*
X105136051Y-211093965D01*
X105121322Y-211081376D01*
X104386819Y-210346873D01*
X104353334Y-210285550D01*
X104350500Y-210259192D01*
X104350500Y-205040807D01*
X104370185Y-204973768D01*
X104386814Y-204953131D01*
X104875850Y-204464094D01*
X104937170Y-204430612D01*
X105006861Y-204435596D01*
X105062795Y-204477467D01*
X105087212Y-204542932D01*
X105081459Y-204590096D01*
X105036447Y-204728627D01*
X105036447Y-204728630D01*
X104999500Y-204961902D01*
X104999500Y-205198097D01*
X105036446Y-205431368D01*
X105109433Y-205655996D01*
X105216657Y-205866433D01*
X105355483Y-206057510D01*
X105522490Y-206224517D01*
X105713567Y-206363343D01*
X105812991Y-206414002D01*
X105924003Y-206470566D01*
X105924005Y-206470566D01*
X105924008Y-206470568D01*
X106044412Y-206509689D01*
X106148631Y-206543553D01*
X106381903Y-206580500D01*
X106381908Y-206580500D01*
X106618097Y-206580500D01*
X106851368Y-206543553D01*
X107075992Y-206470568D01*
X107286433Y-206363343D01*
X107477510Y-206224517D01*
X107644517Y-206057510D01*
X107783343Y-205866433D01*
X107890568Y-205655992D01*
X107963553Y-205431368D01*
X108000500Y-205198097D01*
X108000500Y-204961902D01*
X107963553Y-204728631D01*
X107917197Y-204585963D01*
X107890568Y-204504008D01*
X107890566Y-204504005D01*
X107890566Y-204504003D01*
X107789337Y-204305331D01*
X107783343Y-204293567D01*
X107644517Y-204102490D01*
X107477510Y-203935483D01*
X107286433Y-203796657D01*
X107206504Y-203755931D01*
X107075996Y-203689433D01*
X106855936Y-203617931D01*
X106798261Y-203578493D01*
X106771063Y-203514134D01*
X106782978Y-203445288D01*
X106830222Y-203393812D01*
X106855936Y-203382069D01*
X106911755Y-203363931D01*
X107075992Y-203310568D01*
X107286433Y-203203343D01*
X107477510Y-203064517D01*
X107644517Y-202897510D01*
X107783343Y-202706433D01*
X107890568Y-202495992D01*
X107963553Y-202271368D01*
X107963554Y-202271360D01*
X108000500Y-202038097D01*
X108000500Y-201801902D01*
X107980347Y-201674666D01*
X107963553Y-201568632D01*
X107934983Y-201480707D01*
X107932989Y-201410869D01*
X107965232Y-201354712D01*
X111188458Y-198131487D01*
X111249779Y-198098004D01*
X111319471Y-198102988D01*
X111345028Y-198116068D01*
X111457934Y-198191510D01*
X111457947Y-198191517D01*
X111504726Y-198210893D01*
X111603623Y-198251857D01*
X111670700Y-198265199D01*
X111732610Y-198297583D01*
X111734189Y-198299135D01*
X112013181Y-198578127D01*
X112046666Y-198639450D01*
X112049500Y-198665808D01*
X112049500Y-203595064D01*
X112029815Y-203662103D01*
X112028603Y-203663954D01*
X111990608Y-203720817D01*
X111990602Y-203720828D01*
X111930264Y-203866498D01*
X111930261Y-203866510D01*
X111899500Y-204021153D01*
X111899500Y-204178846D01*
X111930261Y-204333489D01*
X111930264Y-204333501D01*
X111990602Y-204479172D01*
X111990609Y-204479185D01*
X112078210Y-204610288D01*
X112078213Y-204610292D01*
X112189707Y-204721786D01*
X112189711Y-204721789D01*
X112320814Y-204809390D01*
X112320827Y-204809397D01*
X112466498Y-204869735D01*
X112466503Y-204869737D01*
X112621153Y-204900499D01*
X112621156Y-204900500D01*
X112621158Y-204900500D01*
X112778844Y-204900500D01*
X112778845Y-204900499D01*
X112933497Y-204869737D01*
X113079179Y-204809394D01*
X113210289Y-204721789D01*
X113321789Y-204610289D01*
X113409394Y-204479179D01*
X113469737Y-204333497D01*
X113500500Y-204178842D01*
X113500500Y-204021158D01*
X113500500Y-204021155D01*
X113500499Y-204021153D01*
X113478762Y-203911875D01*
X113469737Y-203866503D01*
X113409394Y-203720821D01*
X113371396Y-203663953D01*
X113350520Y-203597276D01*
X113350500Y-203595064D01*
X113350500Y-198280928D01*
X113325502Y-198155261D01*
X113325501Y-198155260D01*
X113325501Y-198155256D01*
X113292416Y-198075382D01*
X113292415Y-198075380D01*
X113276469Y-198036881D01*
X113276468Y-198036880D01*
X113276466Y-198036874D01*
X113235462Y-197975507D01*
X113205278Y-197930332D01*
X113205272Y-197930325D01*
X112654134Y-197379188D01*
X112620649Y-197317865D01*
X112620225Y-197315834D01*
X112606857Y-197248623D01*
X112582719Y-197190350D01*
X112546517Y-197102947D01*
X112546515Y-197102943D01*
X112546514Y-197102941D01*
X112471068Y-196990028D01*
X112462676Y-196963225D01*
X117495307Y-196963225D01*
X117509507Y-197209474D01*
X117509507Y-197209479D01*
X117563731Y-197450092D01*
X117563734Y-197450099D01*
X117610689Y-197565737D01*
X117656533Y-197678636D01*
X117785412Y-197888947D01*
X117860393Y-197975507D01*
X117946908Y-198075382D01*
X118136687Y-198232939D01*
X118136690Y-198232941D01*
X118136696Y-198232945D01*
X118349650Y-198357385D01*
X118580072Y-198445375D01*
X118580075Y-198445375D01*
X118580079Y-198445377D01*
X118821785Y-198494553D01*
X119068278Y-198503592D01*
X119312936Y-198472250D01*
X119549191Y-198401370D01*
X119770697Y-198292856D01*
X119971505Y-198149621D01*
X120146223Y-197975512D01*
X120290158Y-197775205D01*
X120399445Y-197554079D01*
X120471149Y-197318074D01*
X120503344Y-197073526D01*
X120505141Y-197000000D01*
X120484930Y-196754171D01*
X120424841Y-196514945D01*
X120326486Y-196288744D01*
X120192508Y-196081645D01*
X120026504Y-195899210D01*
X119868251Y-195774229D01*
X119832935Y-195746338D01*
X119832932Y-195746336D01*
X119616991Y-195627130D01*
X119616982Y-195627126D01*
X119384491Y-195544796D01*
X119384471Y-195544791D01*
X119141644Y-195501538D01*
X119141652Y-195501538D01*
X118900496Y-195498592D01*
X118895007Y-195498525D01*
X118895006Y-195498525D01*
X118895005Y-195498525D01*
X118895004Y-195498525D01*
X118651190Y-195535834D01*
X118651180Y-195535837D01*
X118416732Y-195612466D01*
X118197951Y-195726356D01*
X118197948Y-195726358D01*
X118000698Y-195874456D01*
X117830289Y-196052779D01*
X117830279Y-196052792D01*
X117691287Y-196256547D01*
X117691285Y-196256552D01*
X117587439Y-196480268D01*
X117587436Y-196480276D01*
X117521520Y-196717960D01*
X117521519Y-196717967D01*
X117495307Y-196963225D01*
X112462676Y-196963225D01*
X112450190Y-196923350D01*
X112468675Y-196855970D01*
X112486485Y-196833460D01*
X115013127Y-194306819D01*
X115074450Y-194273334D01*
X115100808Y-194270500D01*
X117571408Y-194270500D01*
X117638447Y-194290185D01*
X117681893Y-194338205D01*
X117716657Y-194406433D01*
X117855483Y-194597510D01*
X118022490Y-194764517D01*
X118213567Y-194903343D01*
X118277519Y-194935928D01*
X118424003Y-195010566D01*
X118424005Y-195010566D01*
X118424008Y-195010568D01*
X118491000Y-195032335D01*
X118648631Y-195083553D01*
X118881903Y-195120500D01*
X118881908Y-195120500D01*
X119118097Y-195120500D01*
X119351368Y-195083553D01*
X119405710Y-195065896D01*
X119575992Y-195010568D01*
X119786433Y-194903343D01*
X119977510Y-194764517D01*
X120144517Y-194597510D01*
X120283343Y-194406433D01*
X120390568Y-194195992D01*
X120463553Y-193971368D01*
X120468942Y-193937341D01*
X120500500Y-193738097D01*
X120500500Y-193501902D01*
X120463553Y-193268631D01*
X120390566Y-193044003D01*
X120283342Y-192833566D01*
X120144517Y-192642490D01*
X119977510Y-192475483D01*
X119786433Y-192336657D01*
X119625160Y-192254484D01*
X119574365Y-192206510D01*
X119557570Y-192138689D01*
X119580107Y-192072555D01*
X119634822Y-192029103D01*
X119681456Y-192020000D01*
X120047828Y-192020000D01*
X120047844Y-192019999D01*
X120107372Y-192013598D01*
X120107379Y-192013596D01*
X120242086Y-191963354D01*
X120242093Y-191963350D01*
X120357187Y-191877190D01*
X120357190Y-191877187D01*
X120443350Y-191762093D01*
X120443354Y-191762086D01*
X120493596Y-191627379D01*
X120493598Y-191627372D01*
X120499999Y-191567844D01*
X120500000Y-191567827D01*
X120500000Y-190770000D01*
X119490748Y-190770000D01*
X119512518Y-190732292D01*
X119550000Y-190592409D01*
X119550000Y-190447591D01*
X119512518Y-190307708D01*
X119490748Y-190270000D01*
X120500000Y-190270000D01*
X120500000Y-189472172D01*
X120499999Y-189472155D01*
X120493598Y-189412627D01*
X120493596Y-189412620D01*
X120443354Y-189277913D01*
X120443350Y-189277906D01*
X120351875Y-189155712D01*
X120353336Y-189154617D01*
X120325074Y-189102858D01*
X120330058Y-189033166D01*
X120371930Y-188977233D01*
X120437394Y-188952816D01*
X120446240Y-188952500D01*
X121071920Y-188952500D01*
X121169462Y-188933096D01*
X121216913Y-188923658D01*
X121353495Y-188867084D01*
X121402729Y-188834186D01*
X121476416Y-188784952D01*
X124237819Y-186023547D01*
X124299142Y-185990063D01*
X124368834Y-185995047D01*
X124424767Y-186036919D01*
X124449184Y-186102383D01*
X124449500Y-186111229D01*
X124449500Y-200779192D01*
X124429815Y-200846231D01*
X124413181Y-200866873D01*
X124097069Y-201182984D01*
X124035746Y-201216469D01*
X124033580Y-201216920D01*
X123966508Y-201230261D01*
X123966498Y-201230264D01*
X123820827Y-201290602D01*
X123820814Y-201290609D01*
X123689711Y-201378210D01*
X123689707Y-201378213D01*
X123578213Y-201489707D01*
X123578210Y-201489711D01*
X123490609Y-201620814D01*
X123490602Y-201620827D01*
X123430264Y-201766498D01*
X123430261Y-201766510D01*
X123399500Y-201921153D01*
X123399500Y-202078846D01*
X123430261Y-202233489D01*
X123430264Y-202233501D01*
X123490602Y-202379172D01*
X123490609Y-202379185D01*
X123578210Y-202510288D01*
X123578213Y-202510292D01*
X123689707Y-202621786D01*
X123689711Y-202621789D01*
X123820814Y-202709390D01*
X123820827Y-202709397D01*
X123966498Y-202769735D01*
X123966503Y-202769737D01*
X124121153Y-202800499D01*
X124121156Y-202800500D01*
X124121158Y-202800500D01*
X124278844Y-202800500D01*
X124278845Y-202800499D01*
X124433497Y-202769737D01*
X124579179Y-202709394D01*
X124710289Y-202621789D01*
X124821789Y-202510289D01*
X124909394Y-202379179D01*
X124969737Y-202233497D01*
X124983079Y-202166417D01*
X125015462Y-202104508D01*
X125016954Y-202102989D01*
X125605276Y-201514669D01*
X125676465Y-201408127D01*
X125725501Y-201289744D01*
X125741447Y-201209582D01*
X125750500Y-201164071D01*
X125750500Y-196324500D01*
X125770185Y-196257461D01*
X125822989Y-196211706D01*
X125874500Y-196200500D01*
X125988693Y-196200500D01*
X125988694Y-196200499D01*
X126049501Y-196188404D01*
X126162658Y-196165896D01*
X126162661Y-196165894D01*
X126162666Y-196165894D01*
X126326547Y-196098013D01*
X126474035Y-195999464D01*
X126599464Y-195874035D01*
X126698013Y-195726547D01*
X126698091Y-195726360D01*
X126724983Y-195661435D01*
X126765894Y-195562666D01*
X126771232Y-195535834D01*
X126788964Y-195446682D01*
X126800500Y-195388691D01*
X126800500Y-195211309D01*
X126800500Y-195211306D01*
X126800499Y-195211304D01*
X126765896Y-195037341D01*
X126765893Y-195037332D01*
X126749605Y-194998009D01*
X126698013Y-194873453D01*
X126698011Y-194873451D01*
X126698011Y-194873449D01*
X126671398Y-194833620D01*
X126650520Y-194766942D01*
X126650500Y-194764729D01*
X126650500Y-193501902D01*
X129999500Y-193501902D01*
X129999500Y-193738097D01*
X130036446Y-193971368D01*
X130109433Y-194195996D01*
X130165901Y-194306819D01*
X130216657Y-194406433D01*
X130355483Y-194597510D01*
X130522490Y-194764517D01*
X130713567Y-194903343D01*
X130777519Y-194935928D01*
X130924003Y-195010566D01*
X130924005Y-195010566D01*
X130924008Y-195010568D01*
X130991000Y-195032335D01*
X131148631Y-195083553D01*
X131381903Y-195120500D01*
X131381908Y-195120500D01*
X131618097Y-195120500D01*
X131851368Y-195083553D01*
X131905710Y-195065896D01*
X132075992Y-195010568D01*
X132286433Y-194903343D01*
X132477510Y-194764517D01*
X132644517Y-194597510D01*
X132783343Y-194406433D01*
X132890568Y-194195992D01*
X132963553Y-193971368D01*
X132968942Y-193937341D01*
X133000500Y-193738097D01*
X133000500Y-193501902D01*
X132963553Y-193268631D01*
X132890566Y-193044003D01*
X132783342Y-192833566D01*
X132644517Y-192642490D01*
X132477510Y-192475483D01*
X132286433Y-192336657D01*
X132125160Y-192254484D01*
X132074365Y-192206510D01*
X132057570Y-192138689D01*
X132080107Y-192072555D01*
X132134822Y-192029103D01*
X132181456Y-192020000D01*
X132547828Y-192020000D01*
X132547844Y-192019999D01*
X132607372Y-192013598D01*
X132607379Y-192013596D01*
X132742086Y-191963354D01*
X132742093Y-191963350D01*
X132857187Y-191877190D01*
X132857190Y-191877187D01*
X132943350Y-191762093D01*
X132943354Y-191762086D01*
X132993596Y-191627379D01*
X132993598Y-191627372D01*
X132999999Y-191567844D01*
X133000000Y-191567827D01*
X133000000Y-190770000D01*
X131990748Y-190770000D01*
X132012518Y-190732292D01*
X132050000Y-190592409D01*
X132050000Y-190447591D01*
X132012518Y-190307708D01*
X131990748Y-190270000D01*
X133000000Y-190270000D01*
X133000000Y-189472172D01*
X132999999Y-189472155D01*
X132993598Y-189412627D01*
X132993596Y-189412620D01*
X132943354Y-189277913D01*
X132943350Y-189277906D01*
X132857190Y-189162812D01*
X132857187Y-189162809D01*
X132742093Y-189076649D01*
X132742086Y-189076645D01*
X132607379Y-189026403D01*
X132607372Y-189026401D01*
X132547844Y-189020000D01*
X131750000Y-189020000D01*
X131750000Y-190029252D01*
X131712292Y-190007482D01*
X131572409Y-189970000D01*
X131427591Y-189970000D01*
X131287708Y-190007482D01*
X131250000Y-190029252D01*
X131250000Y-189020000D01*
X130452155Y-189020000D01*
X130392627Y-189026401D01*
X130392620Y-189026403D01*
X130257913Y-189076645D01*
X130257906Y-189076649D01*
X130142812Y-189162809D01*
X130142809Y-189162812D01*
X130056649Y-189277906D01*
X130056645Y-189277913D01*
X130006403Y-189412620D01*
X130006401Y-189412627D01*
X130000000Y-189472155D01*
X130000000Y-190270000D01*
X131009252Y-190270000D01*
X130987482Y-190307708D01*
X130950000Y-190447591D01*
X130950000Y-190592409D01*
X130987482Y-190732292D01*
X131009252Y-190770000D01*
X130000000Y-190770000D01*
X130000000Y-191567844D01*
X130006401Y-191627372D01*
X130006403Y-191627379D01*
X130056645Y-191762086D01*
X130056649Y-191762093D01*
X130142809Y-191877187D01*
X130142812Y-191877190D01*
X130257906Y-191963350D01*
X130257913Y-191963354D01*
X130392620Y-192013596D01*
X130392627Y-192013598D01*
X130452155Y-192019999D01*
X130452172Y-192020000D01*
X130818544Y-192020000D01*
X130885583Y-192039685D01*
X130931338Y-192092489D01*
X130941282Y-192161647D01*
X130912257Y-192225203D01*
X130874839Y-192254485D01*
X130713566Y-192336657D01*
X130610818Y-192411309D01*
X130522490Y-192475483D01*
X130522488Y-192475485D01*
X130522487Y-192475485D01*
X130355485Y-192642487D01*
X130355485Y-192642488D01*
X130355483Y-192642490D01*
X130342104Y-192660905D01*
X130216657Y-192833566D01*
X130109433Y-193044003D01*
X130036446Y-193268631D01*
X129999500Y-193501902D01*
X126650500Y-193501902D01*
X126650500Y-185462229D01*
X126670185Y-185395190D01*
X126686819Y-185374548D01*
X127064148Y-184997219D01*
X127462821Y-184598545D01*
X127524142Y-184565062D01*
X127593833Y-184570046D01*
X127649767Y-184611918D01*
X127674184Y-184677382D01*
X127674500Y-184686228D01*
X127674500Y-185572870D01*
X127674501Y-185572876D01*
X127680908Y-185632483D01*
X127731202Y-185767328D01*
X127731206Y-185767335D01*
X127817452Y-185882544D01*
X127817455Y-185882547D01*
X127932664Y-185968793D01*
X127932671Y-185968797D01*
X128067517Y-186019091D01*
X128067516Y-186019091D01*
X128074444Y-186019835D01*
X128127127Y-186025500D01*
X129872872Y-186025499D01*
X129932483Y-186019091D01*
X130067331Y-185968796D01*
X130182546Y-185882546D01*
X130268796Y-185767331D01*
X130316548Y-185639298D01*
X130358418Y-185583366D01*
X130423882Y-185558948D01*
X130492156Y-185573799D01*
X130520411Y-185594951D01*
X130636495Y-185711035D01*
X130805286Y-185833670D01*
X130869790Y-185866536D01*
X130991179Y-185928387D01*
X130991181Y-185928387D01*
X130991184Y-185928389D01*
X131097545Y-185962948D01*
X131189610Y-185992862D01*
X131395676Y-186025500D01*
X131395681Y-186025500D01*
X131604324Y-186025500D01*
X131810389Y-185992862D01*
X131824512Y-185988273D01*
X132008816Y-185928389D01*
X132194714Y-185833670D01*
X132363505Y-185711035D01*
X132511035Y-185563505D01*
X132633670Y-185394714D01*
X132639794Y-185382692D01*
X132687766Y-185331896D01*
X132755586Y-185315098D01*
X132821722Y-185337632D01*
X132860765Y-185382689D01*
X132866755Y-185394446D01*
X132902627Y-185443818D01*
X132902627Y-185443819D01*
X133476212Y-184870234D01*
X133487482Y-184912292D01*
X133559890Y-185037708D01*
X133662292Y-185140110D01*
X133787708Y-185212518D01*
X133829765Y-185223787D01*
X133256179Y-185797371D01*
X133256180Y-185797372D01*
X133305543Y-185833236D01*
X133305556Y-185833244D01*
X133491372Y-185927924D01*
X133689727Y-185992373D01*
X133895721Y-186025000D01*
X134104279Y-186025000D01*
X134310272Y-185992373D01*
X134508627Y-185927924D01*
X134694451Y-185833240D01*
X134743818Y-185797372D01*
X134743818Y-185797371D01*
X134170234Y-185223787D01*
X134212292Y-185212518D01*
X134337708Y-185140110D01*
X134440110Y-185037708D01*
X134512518Y-184912292D01*
X134523787Y-184870234D01*
X135097371Y-185443818D01*
X135097372Y-185443818D01*
X135133240Y-185394451D01*
X135227924Y-185208627D01*
X135292373Y-185010272D01*
X135325000Y-184804279D01*
X135325000Y-184595720D01*
X135292373Y-184389727D01*
X135227924Y-184191372D01*
X135133244Y-184005556D01*
X135133236Y-184005543D01*
X135097372Y-183956180D01*
X135097371Y-183956179D01*
X134523787Y-184529764D01*
X134512518Y-184487708D01*
X134440110Y-184362292D01*
X134337708Y-184259890D01*
X134212292Y-184187482D01*
X134170233Y-184176212D01*
X134743819Y-183602627D01*
X134694451Y-183566759D01*
X134508627Y-183472075D01*
X134310272Y-183407626D01*
X134104279Y-183375000D01*
X133895721Y-183375000D01*
X133689727Y-183407626D01*
X133491372Y-183472075D01*
X133305552Y-183566757D01*
X133256180Y-183602627D01*
X133829766Y-184176212D01*
X133787708Y-184187482D01*
X133662292Y-184259890D01*
X133559890Y-184362292D01*
X133487482Y-184487708D01*
X133476212Y-184529765D01*
X132902627Y-183956180D01*
X132866755Y-184005555D01*
X132866754Y-184005556D01*
X132860764Y-184017313D01*
X132812788Y-184068108D01*
X132744967Y-184084901D01*
X132678832Y-184062361D01*
X132639795Y-184017308D01*
X132633670Y-184005286D01*
X132511035Y-183836495D01*
X132363505Y-183688965D01*
X132194714Y-183566330D01*
X132179247Y-183558449D01*
X132008820Y-183471612D01*
X131810389Y-183407137D01*
X131604324Y-183374500D01*
X131604319Y-183374500D01*
X131395681Y-183374500D01*
X131395676Y-183374500D01*
X131189610Y-183407137D01*
X130991179Y-183471612D01*
X130805285Y-183566330D01*
X130636496Y-183688964D01*
X130520411Y-183805049D01*
X130459088Y-183838533D01*
X130389396Y-183833549D01*
X130333463Y-183791677D01*
X130316548Y-183760699D01*
X130268798Y-183632673D01*
X130268793Y-183632664D01*
X130182547Y-183517455D01*
X130182544Y-183517452D01*
X130067335Y-183431206D01*
X130067328Y-183431202D01*
X129932482Y-183380908D01*
X129932483Y-183380908D01*
X129872883Y-183374501D01*
X129872881Y-183374500D01*
X129872873Y-183374500D01*
X129872865Y-183374500D01*
X128986229Y-183374500D01*
X128919190Y-183354815D01*
X128873435Y-183302011D01*
X128863491Y-183232853D01*
X128892516Y-183169297D01*
X128898548Y-183162819D01*
X132937819Y-179123548D01*
X132999142Y-179090063D01*
X133068834Y-179095047D01*
X133124767Y-179136919D01*
X133149184Y-179202383D01*
X133149500Y-179211229D01*
X133149500Y-179854071D01*
X133171308Y-179963702D01*
X133172132Y-179967843D01*
X133174499Y-179979744D01*
X133174500Y-179979748D01*
X133174501Y-179979749D01*
X133223532Y-180098123D01*
X133294726Y-180204673D01*
X133294727Y-180204674D01*
X135959570Y-182869516D01*
X135993055Y-182930839D01*
X135988071Y-183000531D01*
X135972208Y-183030082D01*
X135880541Y-183156251D01*
X135788681Y-183336536D01*
X135726152Y-183528977D01*
X135694500Y-183728823D01*
X135694500Y-183931176D01*
X135726152Y-184131022D01*
X135750306Y-184205359D01*
X135788680Y-184323461D01*
X135880542Y-184503749D01*
X135999476Y-184667447D01*
X136142553Y-184810524D01*
X136250142Y-184888692D01*
X136306252Y-184929459D01*
X136414306Y-184984516D01*
X136465101Y-185032490D01*
X136481896Y-185100311D01*
X136459358Y-185166446D01*
X136414306Y-185205484D01*
X136306252Y-185260540D01*
X136231161Y-185315098D01*
X136142553Y-185379476D01*
X136142551Y-185379478D01*
X136142550Y-185379478D01*
X135999478Y-185522550D01*
X135999478Y-185522551D01*
X135999476Y-185522553D01*
X135955293Y-185583366D01*
X135880542Y-185686250D01*
X135788681Y-185866536D01*
X135726152Y-186058977D01*
X135694500Y-186258823D01*
X135694500Y-186461176D01*
X135726152Y-186661022D01*
X135772464Y-186803553D01*
X135788680Y-186853461D01*
X135880542Y-187033749D01*
X135999476Y-187197447D01*
X136142553Y-187340524D01*
X136306251Y-187459458D01*
X136486539Y-187551320D01*
X136632665Y-187598799D01*
X136678977Y-187613847D01*
X136878824Y-187645500D01*
X136878829Y-187645500D01*
X137801176Y-187645500D01*
X138001022Y-187613847D01*
X138193461Y-187551320D01*
X138373749Y-187459458D01*
X138537447Y-187340524D01*
X138680524Y-187197447D01*
X138799458Y-187033749D01*
X138891320Y-186853461D01*
X138953847Y-186661022D01*
X138985500Y-186461176D01*
X138985500Y-186258831D01*
X138981440Y-186233197D01*
X138964703Y-186127525D01*
X138973657Y-186058235D01*
X138999492Y-186020452D01*
X139705277Y-185314669D01*
X139776465Y-185208127D01*
X139825501Y-185089744D01*
X139838164Y-185026083D01*
X139850500Y-184964069D01*
X139850500Y-182135931D01*
X139850500Y-182135928D01*
X139825502Y-182010261D01*
X139825501Y-182010260D01*
X139825501Y-182010256D01*
X139776465Y-181891873D01*
X139776464Y-181891872D01*
X139776460Y-181891864D01*
X139757888Y-181864070D01*
X139757886Y-181864068D01*
X139705277Y-181785331D01*
X139705275Y-181785329D01*
X139705273Y-181785326D01*
X139086819Y-181166872D01*
X139053334Y-181105549D01*
X139050500Y-181079191D01*
X139050500Y-178949000D01*
X139070185Y-178881961D01*
X139122989Y-178836206D01*
X139174500Y-178825000D01*
X139750000Y-178825000D01*
X139750000Y-177990747D01*
X139787708Y-178012518D01*
X139927591Y-178050000D01*
X140072409Y-178050000D01*
X140212292Y-178012518D01*
X140250000Y-177990747D01*
X140250000Y-178825000D01*
X140872828Y-178825000D01*
X140872844Y-178824999D01*
X140932372Y-178818598D01*
X140932379Y-178818596D01*
X141067086Y-178768354D01*
X141067093Y-178768350D01*
X141182187Y-178682190D01*
X141182190Y-178682187D01*
X141268350Y-178567093D01*
X141268354Y-178567086D01*
X141316160Y-178438911D01*
X141358031Y-178382978D01*
X141423495Y-178358560D01*
X141491768Y-178373411D01*
X141520023Y-178394563D01*
X141636495Y-178511035D01*
X141805286Y-178633670D01*
X141849736Y-178656318D01*
X141991179Y-178728387D01*
X141991181Y-178728387D01*
X141991184Y-178728389D01*
X142097545Y-178762948D01*
X142189610Y-178792862D01*
X142395676Y-178825500D01*
X142395681Y-178825500D01*
X142604324Y-178825500D01*
X142810389Y-178792862D01*
X142847604Y-178780770D01*
X143008816Y-178728389D01*
X143194714Y-178633670D01*
X143363505Y-178511035D01*
X143511035Y-178363505D01*
X143633670Y-178194714D01*
X143639515Y-178183243D01*
X143687489Y-178132447D01*
X143755310Y-178115651D01*
X143821445Y-178138188D01*
X143860485Y-178183243D01*
X143866328Y-178194712D01*
X143948086Y-178307241D01*
X143988965Y-178363505D01*
X144136495Y-178511035D01*
X144305286Y-178633670D01*
X144349736Y-178656318D01*
X144491179Y-178728387D01*
X144491181Y-178728387D01*
X144491184Y-178728389D01*
X144597545Y-178762948D01*
X144689610Y-178792862D01*
X144895676Y-178825500D01*
X144895681Y-178825500D01*
X145104324Y-178825500D01*
X145310389Y-178792862D01*
X145347604Y-178780770D01*
X145508816Y-178728389D01*
X145694714Y-178633670D01*
X145863505Y-178511035D01*
X146011035Y-178363505D01*
X146133670Y-178194714D01*
X146228389Y-178008816D01*
X146292862Y-177810389D01*
X146303027Y-177746211D01*
X146332956Y-177683076D01*
X146392268Y-177646145D01*
X146462130Y-177647143D01*
G37*
%TD.AperFunction*%
%TA.AperFunction,Conductor*%
G36*
X141613142Y-188209318D02*
G01*
X141669075Y-188251190D01*
X141693492Y-188316654D01*
X141693808Y-188325500D01*
X141693808Y-200328377D01*
X141703374Y-200376464D01*
X141703374Y-200376467D01*
X141718805Y-200454044D01*
X141718807Y-200454052D01*
X141750030Y-200529432D01*
X141767843Y-200572435D01*
X141820646Y-200651461D01*
X141839034Y-200678981D01*
X141839035Y-200678982D01*
X142529859Y-201369805D01*
X142563344Y-201431128D01*
X142560109Y-201495803D01*
X142536447Y-201568628D01*
X142499500Y-201801902D01*
X142499500Y-202038097D01*
X142536446Y-202271368D01*
X142609433Y-202495996D01*
X142716657Y-202706433D01*
X142855483Y-202897510D01*
X143022490Y-203064517D01*
X143213567Y-203203343D01*
X143312991Y-203254002D01*
X143424003Y-203310566D01*
X143424005Y-203310566D01*
X143424008Y-203310568D01*
X143503535Y-203336408D01*
X143644063Y-203382069D01*
X143701738Y-203421507D01*
X143728936Y-203485866D01*
X143717021Y-203554712D01*
X143669777Y-203606188D01*
X143644063Y-203617931D01*
X143424003Y-203689433D01*
X143213566Y-203796657D01*
X143117423Y-203866510D01*
X143022490Y-203935483D01*
X143022488Y-203935485D01*
X143022487Y-203935485D01*
X142855485Y-204102487D01*
X142855485Y-204102488D01*
X142855483Y-204102490D01*
X142816658Y-204155928D01*
X142716657Y-204293566D01*
X142609433Y-204504003D01*
X142536446Y-204728631D01*
X142499500Y-204961902D01*
X142499500Y-205198097D01*
X142536446Y-205431368D01*
X142609433Y-205655996D01*
X142716657Y-205866433D01*
X142855483Y-206057510D01*
X143022490Y-206224517D01*
X143213567Y-206363343D01*
X143312991Y-206414002D01*
X143424003Y-206470566D01*
X143424005Y-206470566D01*
X143424008Y-206470568D01*
X143544412Y-206509689D01*
X143648631Y-206543553D01*
X143881903Y-206580500D01*
X143881908Y-206580500D01*
X144118097Y-206580500D01*
X144351368Y-206543553D01*
X144575992Y-206470568D01*
X144786433Y-206363343D01*
X144977510Y-206224517D01*
X145144517Y-206057510D01*
X145283343Y-205866433D01*
X145390568Y-205655992D01*
X145463553Y-205431368D01*
X145500500Y-205198097D01*
X145500500Y-204961902D01*
X145476344Y-204809390D01*
X145463553Y-204728632D01*
X145439888Y-204655802D01*
X145437894Y-204585963D01*
X145470137Y-204529807D01*
X146205277Y-203794669D01*
X146276465Y-203688127D01*
X146325501Y-203569744D01*
X146325550Y-203569500D01*
X146342186Y-203485866D01*
X146350500Y-203444071D01*
X146350500Y-188401957D01*
X146370185Y-188334918D01*
X146422989Y-188289163D01*
X146487100Y-188278599D01*
X146554643Y-188285500D01*
X148445356Y-188285499D01*
X148548092Y-188275004D01*
X148566494Y-188268905D01*
X148636321Y-188266502D01*
X148696364Y-188302232D01*
X148727558Y-188364752D01*
X148729500Y-188386611D01*
X148729500Y-217625500D01*
X148709815Y-217692539D01*
X148657011Y-217738294D01*
X148605500Y-217749500D01*
X145611723Y-217749500D01*
X145544684Y-217729815D01*
X145498929Y-217677011D01*
X145488985Y-217607853D01*
X145492256Y-217595034D01*
X145491813Y-217594930D01*
X145493598Y-217587372D01*
X145499999Y-217527844D01*
X145500000Y-217527827D01*
X145500000Y-216730000D01*
X144490748Y-216730000D01*
X144512518Y-216692292D01*
X144550000Y-216552409D01*
X144550000Y-216407591D01*
X144512518Y-216267708D01*
X144490748Y-216230000D01*
X145500000Y-216230000D01*
X145500000Y-215432172D01*
X145499999Y-215432155D01*
X145493598Y-215372627D01*
X145493596Y-215372620D01*
X145443354Y-215237913D01*
X145443350Y-215237906D01*
X145357190Y-215122812D01*
X145357187Y-215122809D01*
X145242093Y-215036649D01*
X145242086Y-215036645D01*
X145107379Y-214986403D01*
X145107372Y-214986401D01*
X145047844Y-214980000D01*
X144681456Y-214980000D01*
X144614417Y-214960315D01*
X144568662Y-214907511D01*
X144558718Y-214838353D01*
X144587743Y-214774797D01*
X144625161Y-214745515D01*
X144786433Y-214663343D01*
X144977510Y-214524517D01*
X145144517Y-214357510D01*
X145283343Y-214166433D01*
X145390568Y-213955992D01*
X145463553Y-213731368D01*
X145500500Y-213498097D01*
X145500500Y-213261902D01*
X145463553Y-213028631D01*
X145417197Y-212885963D01*
X145390568Y-212804008D01*
X145390566Y-212804005D01*
X145390566Y-212804003D01*
X145283342Y-212593566D01*
X145144517Y-212402490D01*
X144977510Y-212235483D01*
X144786433Y-212096657D01*
X144575996Y-211989433D01*
X144351368Y-211916446D01*
X144118097Y-211879500D01*
X144118092Y-211879500D01*
X143881908Y-211879500D01*
X143881903Y-211879500D01*
X143648631Y-211916446D01*
X143424003Y-211989433D01*
X143213566Y-212096657D01*
X143104550Y-212175862D01*
X143022490Y-212235483D01*
X143022488Y-212235485D01*
X143022487Y-212235485D01*
X142855485Y-212402487D01*
X142855485Y-212402488D01*
X142855483Y-212402490D01*
X142795862Y-212484550D01*
X142716657Y-212593566D01*
X142609433Y-212804003D01*
X142536446Y-213028631D01*
X142499500Y-213261902D01*
X142499500Y-213498097D01*
X142536446Y-213731368D01*
X142609433Y-213955996D01*
X142716657Y-214166433D01*
X142855483Y-214357510D01*
X143022490Y-214524517D01*
X143213567Y-214663343D01*
X143374839Y-214745515D01*
X143425635Y-214793490D01*
X143442430Y-214861311D01*
X143419893Y-214927445D01*
X143365178Y-214970897D01*
X143318544Y-214980000D01*
X142952155Y-214980000D01*
X142892627Y-214986401D01*
X142892620Y-214986403D01*
X142757913Y-215036645D01*
X142757906Y-215036649D01*
X142642812Y-215122809D01*
X142642809Y-215122812D01*
X142556649Y-215237906D01*
X142556645Y-215237913D01*
X142506403Y-215372620D01*
X142506401Y-215372627D01*
X142500000Y-215432155D01*
X142500000Y-216230000D01*
X143509252Y-216230000D01*
X143487482Y-216267708D01*
X143450000Y-216407591D01*
X143450000Y-216552409D01*
X143487482Y-216692292D01*
X143509252Y-216730000D01*
X142500000Y-216730000D01*
X142500000Y-217527844D01*
X142506401Y-217587372D01*
X142508187Y-217594930D01*
X142505418Y-217595584D01*
X142509444Y-217651856D01*
X142475959Y-217713180D01*
X142414637Y-217746666D01*
X142388277Y-217749500D01*
X133111723Y-217749500D01*
X133044684Y-217729815D01*
X132998929Y-217677011D01*
X132988985Y-217607853D01*
X132992256Y-217595034D01*
X132991813Y-217594930D01*
X132993598Y-217587372D01*
X132999999Y-217527844D01*
X133000000Y-217527827D01*
X133000000Y-216730000D01*
X131990748Y-216730000D01*
X132012518Y-216692292D01*
X132050000Y-216552409D01*
X132050000Y-216407591D01*
X132012518Y-216267708D01*
X131990748Y-216230000D01*
X133000000Y-216230000D01*
X133000000Y-215432172D01*
X132999999Y-215432155D01*
X132993598Y-215372627D01*
X132993596Y-215372620D01*
X132943354Y-215237913D01*
X132943350Y-215237906D01*
X132857190Y-215122812D01*
X132857187Y-215122809D01*
X132742093Y-215036649D01*
X132742086Y-215036645D01*
X132607379Y-214986403D01*
X132607372Y-214986401D01*
X132547844Y-214980000D01*
X132181456Y-214980000D01*
X132114417Y-214960315D01*
X132068662Y-214907511D01*
X132058718Y-214838353D01*
X132087743Y-214774797D01*
X132125161Y-214745515D01*
X132286433Y-214663343D01*
X132477510Y-214524517D01*
X132644517Y-214357510D01*
X132783343Y-214166433D01*
X132890568Y-213955992D01*
X132963553Y-213731368D01*
X133000500Y-213498097D01*
X133000500Y-213261902D01*
X132975868Y-213106390D01*
X132963553Y-213028632D01*
X132939888Y-212955802D01*
X132937894Y-212885962D01*
X132970137Y-212829806D01*
X134305276Y-211494669D01*
X134376465Y-211388127D01*
X134425501Y-211269744D01*
X134437275Y-211210554D01*
X134450500Y-211144071D01*
X134450500Y-209999995D01*
X142494858Y-209999995D01*
X142494859Y-210000007D01*
X142515070Y-210245831D01*
X142575159Y-210485055D01*
X142575162Y-210485063D01*
X142673512Y-210711253D01*
X142673514Y-210711256D01*
X142807492Y-210918355D01*
X142830231Y-210943345D01*
X142955830Y-211081376D01*
X142973496Y-211100790D01*
X143167068Y-211253664D01*
X143324098Y-211340349D01*
X143383008Y-211372869D01*
X143383017Y-211372873D01*
X143615508Y-211455203D01*
X143615513Y-211455204D01*
X143615518Y-211455206D01*
X143615524Y-211455207D01*
X143615528Y-211455208D01*
X143665797Y-211464162D01*
X143858354Y-211498461D01*
X143858347Y-211498461D01*
X143877566Y-211498695D01*
X144104993Y-211501475D01*
X144348813Y-211464165D01*
X144583266Y-211387534D01*
X144802054Y-211273640D01*
X144999303Y-211125542D01*
X145169714Y-210947216D01*
X145308712Y-210743452D01*
X145412564Y-210519722D01*
X145478481Y-210282035D01*
X145504692Y-210036774D01*
X145490493Y-209790525D01*
X145466020Y-209681928D01*
X145436268Y-209549907D01*
X145436266Y-209549901D01*
X145343468Y-209321366D01*
X145214589Y-209111055D01*
X145214588Y-209111054D01*
X145214587Y-209111052D01*
X145139601Y-209024487D01*
X145053092Y-208924618D01*
X144863313Y-208767061D01*
X144863311Y-208767059D01*
X144863303Y-208767054D01*
X144650349Y-208642614D01*
X144419927Y-208554624D01*
X144355731Y-208541563D01*
X144178215Y-208505447D01*
X144178216Y-208505447D01*
X144137132Y-208503940D01*
X143931722Y-208496408D01*
X143931720Y-208496408D01*
X143931717Y-208496408D01*
X143687062Y-208527750D01*
X143450815Y-208598627D01*
X143450813Y-208598628D01*
X143229302Y-208707144D01*
X143028500Y-208850374D01*
X143028493Y-208850380D01*
X142853777Y-209024487D01*
X142853773Y-209024492D01*
X142709843Y-209224791D01*
X142709840Y-209224797D01*
X142600555Y-209445918D01*
X142600554Y-209445923D01*
X142528850Y-209681928D01*
X142496657Y-209926459D01*
X142496656Y-209926480D01*
X142494858Y-209999995D01*
X134450500Y-209999995D01*
X134450500Y-204155928D01*
X134425502Y-204030261D01*
X134425501Y-204030260D01*
X134425501Y-204030256D01*
X134376465Y-203911873D01*
X134376464Y-203911872D01*
X134376461Y-203911866D01*
X134305277Y-203805332D01*
X134294614Y-203794669D01*
X134214669Y-203714724D01*
X132970138Y-202470193D01*
X132936654Y-202408871D01*
X132939888Y-202344197D01*
X132963553Y-202271368D01*
X132990231Y-202102928D01*
X133000500Y-202038097D01*
X133000500Y-201801902D01*
X132971818Y-201620814D01*
X132963553Y-201568632D01*
X132939888Y-201495802D01*
X132937894Y-201425962D01*
X132970137Y-201369806D01*
X134305276Y-200034669D01*
X134376465Y-199928127D01*
X134425501Y-199809744D01*
X134450500Y-199684069D01*
X134450500Y-195320808D01*
X134470185Y-195253769D01*
X134486819Y-195233127D01*
X141482127Y-188237819D01*
X141543450Y-188204334D01*
X141613142Y-188209318D01*
G37*
%TD.AperFunction*%
%TA.AperFunction,Conductor*%
G36*
X110668834Y-183365701D02*
G01*
X110724767Y-183407573D01*
X110749184Y-183473037D01*
X110749500Y-183481883D01*
X110749500Y-191964729D01*
X110729815Y-192031768D01*
X110728602Y-192033620D01*
X110701988Y-192073449D01*
X110701987Y-192073452D01*
X110634106Y-192237332D01*
X110634103Y-192237341D01*
X110599500Y-192411304D01*
X110599500Y-192588695D01*
X110634103Y-192762658D01*
X110634106Y-192762667D01*
X110701983Y-192926540D01*
X110701990Y-192926553D01*
X110800535Y-193074034D01*
X110800538Y-193074038D01*
X110925961Y-193199461D01*
X110925965Y-193199464D01*
X111073446Y-193298009D01*
X111073459Y-193298016D01*
X111162379Y-193334847D01*
X111237334Y-193365894D01*
X111237336Y-193365894D01*
X111237341Y-193365896D01*
X111411304Y-193400499D01*
X111411307Y-193400500D01*
X111411309Y-193400500D01*
X111588693Y-193400500D01*
X111689428Y-193380462D01*
X111759020Y-193386689D01*
X111814197Y-193429552D01*
X111837442Y-193495441D01*
X111837620Y-193502079D01*
X111837620Y-194206784D01*
X111817935Y-194273823D01*
X111816722Y-194275675D01*
X111771657Y-194343118D01*
X111771656Y-194343121D01*
X111703775Y-194507001D01*
X111703772Y-194507010D01*
X111669169Y-194680973D01*
X111669169Y-194858364D01*
X111703772Y-195032327D01*
X111703775Y-195032336D01*
X111771652Y-195196209D01*
X111771659Y-195196222D01*
X111870204Y-195343703D01*
X111870207Y-195343707D01*
X111915595Y-195389095D01*
X111949080Y-195450418D01*
X111944096Y-195520110D01*
X111915595Y-195564457D01*
X107662181Y-199817872D01*
X107600858Y-199851357D01*
X107531166Y-199846373D01*
X107475233Y-199804501D01*
X107450816Y-199739037D01*
X107450500Y-199730191D01*
X107450500Y-199716232D01*
X107450499Y-199716228D01*
X107417817Y-199551925D01*
X107417816Y-199551918D01*
X107353703Y-199397137D01*
X107288258Y-199299192D01*
X107260626Y-199257837D01*
X107142162Y-199139373D01*
X107002860Y-199046295D01*
X106848082Y-198982184D01*
X106848074Y-198982182D01*
X106702781Y-198953281D01*
X106640870Y-198920896D01*
X106639291Y-198919345D01*
X106433577Y-198713631D01*
X106400092Y-198652308D01*
X106405076Y-198582616D01*
X106446948Y-198526683D01*
X106512412Y-198502266D01*
X106525776Y-198502033D01*
X106568278Y-198503592D01*
X106812936Y-198472250D01*
X107049191Y-198401370D01*
X107270697Y-198292856D01*
X107471505Y-198149621D01*
X107646223Y-197975512D01*
X107790158Y-197775205D01*
X107899445Y-197554079D01*
X107971149Y-197318074D01*
X108003344Y-197073526D01*
X108005141Y-197000000D01*
X107984930Y-196754171D01*
X107924841Y-196514945D01*
X107826486Y-196288744D01*
X107692508Y-196081645D01*
X107526504Y-195899210D01*
X107368251Y-195774229D01*
X107332935Y-195746338D01*
X107332932Y-195746336D01*
X107116991Y-195627130D01*
X107116982Y-195627126D01*
X106884491Y-195544796D01*
X106884471Y-195544791D01*
X106641644Y-195501538D01*
X106641652Y-195501538D01*
X106400496Y-195498592D01*
X106395007Y-195498525D01*
X106395006Y-195498525D01*
X106395005Y-195498525D01*
X106395004Y-195498525D01*
X106151190Y-195535834D01*
X106151180Y-195535837D01*
X105916732Y-195612466D01*
X105697951Y-195726356D01*
X105697944Y-195726360D01*
X105693257Y-195729880D01*
X105627827Y-195754389D01*
X105559533Y-195739632D01*
X105510059Y-195690296D01*
X105494808Y-195630717D01*
X105494808Y-194987769D01*
X105514493Y-194920730D01*
X105567297Y-194874975D01*
X105636455Y-194865031D01*
X105691693Y-194887450D01*
X105713567Y-194903343D01*
X105777519Y-194935928D01*
X105924003Y-195010566D01*
X105924005Y-195010566D01*
X105924008Y-195010568D01*
X105991000Y-195032335D01*
X106148631Y-195083553D01*
X106381903Y-195120500D01*
X106381908Y-195120500D01*
X106618097Y-195120500D01*
X106851368Y-195083553D01*
X106905710Y-195065896D01*
X107075992Y-195010568D01*
X107286433Y-194903343D01*
X107477510Y-194764517D01*
X107560500Y-194681526D01*
X107621819Y-194648044D01*
X107691511Y-194653028D01*
X107747445Y-194694899D01*
X107751280Y-194700319D01*
X107800535Y-194774034D01*
X107800538Y-194774038D01*
X107925961Y-194899461D01*
X107925965Y-194899464D01*
X108073446Y-194998009D01*
X108073459Y-194998016D01*
X108156317Y-195032336D01*
X108237334Y-195065894D01*
X108237336Y-195065894D01*
X108237341Y-195065896D01*
X108411304Y-195100499D01*
X108411307Y-195100500D01*
X108411309Y-195100500D01*
X108588693Y-195100500D01*
X108588694Y-195100499D01*
X108673889Y-195083553D01*
X108762658Y-195065896D01*
X108762661Y-195065894D01*
X108762666Y-195065894D01*
X108926547Y-194998013D01*
X109074035Y-194899464D01*
X109199464Y-194774035D01*
X109298013Y-194626547D01*
X109365894Y-194462666D01*
X109400500Y-194288691D01*
X109400500Y-194111309D01*
X109400500Y-194111306D01*
X109400499Y-194111304D01*
X109365896Y-193937341D01*
X109365893Y-193937332D01*
X109298016Y-193773459D01*
X109298009Y-193773446D01*
X109199464Y-193625965D01*
X109199461Y-193625961D01*
X109186819Y-193613319D01*
X109153334Y-193551996D01*
X109150500Y-193525638D01*
X109150500Y-184832883D01*
X109170185Y-184765844D01*
X109186819Y-184745202D01*
X110537819Y-183394202D01*
X110599142Y-183360717D01*
X110668834Y-183365701D01*
G37*
%TD.AperFunction*%
%TA.AperFunction,Conductor*%
G36*
X117419911Y-189343969D02*
G01*
X117475844Y-189385841D01*
X117500261Y-189451305D01*
X117499949Y-189468834D01*
X117500178Y-189468847D01*
X117500000Y-189472172D01*
X117500000Y-190270000D01*
X118509252Y-190270000D01*
X118487482Y-190307708D01*
X118450000Y-190447591D01*
X118450000Y-190592409D01*
X118487482Y-190732292D01*
X118509252Y-190770000D01*
X117500000Y-190770000D01*
X117500000Y-191567844D01*
X117506401Y-191627372D01*
X117506403Y-191627379D01*
X117556645Y-191762086D01*
X117556649Y-191762093D01*
X117642809Y-191877187D01*
X117642812Y-191877190D01*
X117757906Y-191963350D01*
X117757913Y-191963354D01*
X117892620Y-192013596D01*
X117892627Y-192013598D01*
X117952155Y-192019999D01*
X117952172Y-192020000D01*
X118318544Y-192020000D01*
X118385583Y-192039685D01*
X118431338Y-192092489D01*
X118441282Y-192161647D01*
X118412257Y-192225203D01*
X118374839Y-192254485D01*
X118213566Y-192336657D01*
X118110818Y-192411309D01*
X118022490Y-192475483D01*
X118022488Y-192475485D01*
X118022487Y-192475485D01*
X117855485Y-192642487D01*
X117855485Y-192642488D01*
X117855483Y-192642490D01*
X117842104Y-192660905D01*
X117716657Y-192833566D01*
X117681893Y-192901795D01*
X117633918Y-192952591D01*
X117571408Y-192969500D01*
X114715929Y-192969500D01*
X114590261Y-192994497D01*
X114590255Y-192994499D01*
X114471870Y-193043535D01*
X114365331Y-193114722D01*
X114365324Y-193114728D01*
X113550301Y-193929752D01*
X113488978Y-193963237D01*
X113419286Y-193958253D01*
X113363353Y-193916381D01*
X113338936Y-193850917D01*
X113338620Y-193842071D01*
X113338620Y-193374109D01*
X113358305Y-193307070D01*
X113374939Y-193286428D01*
X115093540Y-191567827D01*
X117288898Y-189372468D01*
X117350219Y-189338985D01*
X117419911Y-189343969D01*
G37*
%TD.AperFunction*%
%TA.AperFunction,Conductor*%
G36*
X120987482Y-184912292D02*
G01*
X121059890Y-185037708D01*
X121162292Y-185140110D01*
X121287708Y-185212518D01*
X121329765Y-185223787D01*
X120756179Y-185797371D01*
X120756180Y-185797372D01*
X120805543Y-185833236D01*
X120805556Y-185833244D01*
X120991372Y-185927924D01*
X121189727Y-185992373D01*
X121395721Y-186025000D01*
X121604279Y-186025000D01*
X121810273Y-185992373D01*
X121810278Y-185992372D01*
X121816746Y-185990271D01*
X121886587Y-185988273D01*
X121946422Y-186024351D01*
X121977252Y-186087050D01*
X121969290Y-186156465D01*
X121942750Y-186195881D01*
X120723451Y-187415181D01*
X120662128Y-187448666D01*
X120635770Y-187451500D01*
X117324076Y-187451500D01*
X117295242Y-187457234D01*
X117295243Y-187457235D01*
X117179093Y-187480339D01*
X117179089Y-187480340D01*
X117110388Y-187508797D01*
X117110380Y-187508801D01*
X117104770Y-187511125D01*
X117042505Y-187536916D01*
X116986818Y-187574125D01*
X116981741Y-187577517D01*
X116981734Y-187577521D01*
X116919582Y-187619049D01*
X116919579Y-187619052D01*
X112471809Y-192066821D01*
X112453317Y-192076917D01*
X112437639Y-192091000D01*
X112423264Y-192093328D01*
X112410486Y-192100306D01*
X112389467Y-192098802D01*
X112368668Y-192102172D01*
X112355319Y-192096360D01*
X112340794Y-192095322D01*
X112323924Y-192082693D01*
X112304606Y-192074283D01*
X112288015Y-192055811D01*
X112284861Y-192053450D01*
X112281022Y-192048025D01*
X112271394Y-192033614D01*
X112250520Y-191966936D01*
X112250500Y-191964729D01*
X112250500Y-188013783D01*
X112270185Y-187946744D01*
X112322989Y-187900989D01*
X112392147Y-187891045D01*
X112412818Y-187895852D01*
X112498977Y-187923847D01*
X112698824Y-187955500D01*
X112698829Y-187955500D01*
X113621176Y-187955500D01*
X113821022Y-187923847D01*
X114013461Y-187861320D01*
X114193749Y-187769458D01*
X114357447Y-187650524D01*
X114500524Y-187507447D01*
X114619458Y-187343749D01*
X114711320Y-187163461D01*
X114728512Y-187110545D01*
X114758762Y-187061184D01*
X115505273Y-186314673D01*
X115505277Y-186314669D01*
X115576465Y-186208127D01*
X115578780Y-186202540D01*
X115620405Y-186102047D01*
X115664246Y-186047643D01*
X115730540Y-186025578D01*
X115734966Y-186025499D01*
X117372871Y-186025499D01*
X117372872Y-186025499D01*
X117432483Y-186019091D01*
X117567331Y-185968796D01*
X117682546Y-185882546D01*
X117768796Y-185767331D01*
X117816548Y-185639298D01*
X117858418Y-185583366D01*
X117923882Y-185558948D01*
X117992156Y-185573799D01*
X118020411Y-185594951D01*
X118136495Y-185711035D01*
X118305286Y-185833670D01*
X118369790Y-185866536D01*
X118491179Y-185928387D01*
X118491181Y-185928387D01*
X118491184Y-185928389D01*
X118597545Y-185962948D01*
X118689610Y-185992862D01*
X118895676Y-186025500D01*
X118895681Y-186025500D01*
X119104324Y-186025500D01*
X119310389Y-185992862D01*
X119324512Y-185988273D01*
X119508816Y-185928389D01*
X119694714Y-185833670D01*
X119863505Y-185711035D01*
X120011035Y-185563505D01*
X120133670Y-185394714D01*
X120139794Y-185382692D01*
X120187766Y-185331896D01*
X120255586Y-185315098D01*
X120321722Y-185337632D01*
X120360765Y-185382689D01*
X120366755Y-185394446D01*
X120402627Y-185443818D01*
X120402627Y-185443819D01*
X120976212Y-184870234D01*
X120987482Y-184912292D01*
G37*
%TD.AperFunction*%
%TA.AperFunction,Conductor*%
G36*
X106068834Y-173553626D02*
G01*
X106124767Y-173595498D01*
X106149184Y-173660962D01*
X106149500Y-173669808D01*
X106149500Y-176051000D01*
X106129815Y-176118039D01*
X106077011Y-176163794D01*
X106025500Y-176175000D01*
X105750000Y-176175000D01*
X105750000Y-177009252D01*
X105712292Y-176987482D01*
X105572409Y-176950000D01*
X105427591Y-176950000D01*
X105287708Y-176987482D01*
X105250000Y-177009252D01*
X105250000Y-176175000D01*
X104627155Y-176175000D01*
X104567627Y-176181401D01*
X104567620Y-176181403D01*
X104432913Y-176231645D01*
X104432906Y-176231649D01*
X104317812Y-176317809D01*
X104317809Y-176317812D01*
X104231649Y-176432906D01*
X104231645Y-176432913D01*
X104181403Y-176567620D01*
X104181401Y-176567627D01*
X104175000Y-176627155D01*
X104175000Y-177250000D01*
X105009252Y-177250000D01*
X104987482Y-177287708D01*
X104950000Y-177427591D01*
X104950000Y-177572409D01*
X104987482Y-177712292D01*
X105009252Y-177750000D01*
X104175000Y-177750000D01*
X104175000Y-178372844D01*
X104181401Y-178432372D01*
X104181403Y-178432379D01*
X104231645Y-178567086D01*
X104231649Y-178567093D01*
X104317809Y-178682187D01*
X104317812Y-178682190D01*
X104432906Y-178768350D01*
X104432913Y-178768354D01*
X104567620Y-178818596D01*
X104567627Y-178818598D01*
X104627155Y-178824999D01*
X104627172Y-178825000D01*
X105250000Y-178825000D01*
X105250000Y-177990747D01*
X105287708Y-178012518D01*
X105427591Y-178050000D01*
X105572409Y-178050000D01*
X105712292Y-178012518D01*
X105750000Y-177990747D01*
X105750000Y-178825000D01*
X106025500Y-178825000D01*
X106092539Y-178844685D01*
X106138294Y-178897489D01*
X106149500Y-178949000D01*
X106149500Y-179464071D01*
X106169046Y-179562331D01*
X106169046Y-179562332D01*
X106174497Y-179589737D01*
X106174500Y-179589746D01*
X106220912Y-179701796D01*
X106223535Y-179708127D01*
X106294723Y-179814669D01*
X106294726Y-179814673D01*
X106294727Y-179814674D01*
X107013181Y-180533126D01*
X107046666Y-180594449D01*
X107049500Y-180620807D01*
X107049500Y-187505068D01*
X107029815Y-187572107D01*
X107028602Y-187573959D01*
X106946295Y-187697139D01*
X106882184Y-187851917D01*
X106882182Y-187851925D01*
X106849500Y-188016228D01*
X106849500Y-188183771D01*
X106882182Y-188348074D01*
X106882184Y-188348082D01*
X106946295Y-188502860D01*
X107039373Y-188642162D01*
X107157834Y-188760623D01*
X107157838Y-188760626D01*
X107206136Y-188792898D01*
X107250941Y-188846510D01*
X107259648Y-188915835D01*
X107229494Y-188978862D01*
X107170051Y-189015582D01*
X107137245Y-189020000D01*
X106750000Y-189020000D01*
X106750000Y-190029252D01*
X106712292Y-190007482D01*
X106572409Y-189970000D01*
X106427591Y-189970000D01*
X106287708Y-190007482D01*
X106250000Y-190029252D01*
X106250000Y-189020000D01*
X105618808Y-189020000D01*
X105551769Y-189000315D01*
X105506014Y-188947511D01*
X105494808Y-188896000D01*
X105494808Y-180480236D01*
X105469810Y-180354569D01*
X105469809Y-180354568D01*
X105469809Y-180354564D01*
X105420773Y-180236181D01*
X105420606Y-180235931D01*
X105420598Y-180235919D01*
X105420598Y-180235918D01*
X105349582Y-180129635D01*
X103386819Y-178166872D01*
X103353334Y-178105549D01*
X103350500Y-178079191D01*
X103350500Y-176220808D01*
X103370185Y-176153769D01*
X103386819Y-176133127D01*
X105937819Y-173582127D01*
X105999142Y-173548642D01*
X106068834Y-173553626D01*
G37*
%TD.AperFunction*%
%TA.AperFunction,Conductor*%
G36*
X144968834Y-185844990D02*
G01*
X145024767Y-185886862D01*
X145049184Y-185952326D01*
X145049500Y-185961172D01*
X145049500Y-188896000D01*
X145029815Y-188963039D01*
X144977011Y-189008794D01*
X144925500Y-189020000D01*
X144250000Y-189020000D01*
X144250000Y-190029252D01*
X144212292Y-190007482D01*
X144072409Y-189970000D01*
X143927591Y-189970000D01*
X143787708Y-190007482D01*
X143750000Y-190029252D01*
X143750000Y-189020000D01*
X143118808Y-189020000D01*
X143051769Y-189000315D01*
X143006014Y-188947511D01*
X142994808Y-188896000D01*
X142994808Y-187767864D01*
X143014493Y-187700825D01*
X143031127Y-187680183D01*
X144837819Y-185873491D01*
X144899142Y-185840006D01*
X144968834Y-185844990D01*
G37*
%TD.AperFunction*%
%TA.AperFunction,Conductor*%
G36*
X121360834Y-176761624D02*
G01*
X121416767Y-176803496D01*
X121441184Y-176868960D01*
X121441500Y-176877806D01*
X121441500Y-179305870D01*
X121441501Y-179305876D01*
X121447908Y-179365483D01*
X121498202Y-179500328D01*
X121498206Y-179500335D01*
X121584452Y-179615544D01*
X121584455Y-179615547D01*
X121699664Y-179701793D01*
X121699671Y-179701797D01*
X121834517Y-179752091D01*
X121834516Y-179752091D01*
X121841444Y-179752835D01*
X121894127Y-179758500D01*
X125105872Y-179758499D01*
X125165483Y-179752091D01*
X125206665Y-179736730D01*
X125276356Y-179731745D01*
X125293329Y-179736729D01*
X125334517Y-179752091D01*
X125394127Y-179758500D01*
X128080770Y-179758499D01*
X128147809Y-179778184D01*
X128193564Y-179830987D01*
X128203508Y-179900146D01*
X128174483Y-179963702D01*
X128168451Y-179970180D01*
X122995881Y-185142750D01*
X122934558Y-185176235D01*
X122864866Y-185171251D01*
X122808933Y-185129379D01*
X122784516Y-185063915D01*
X122790271Y-185016746D01*
X122792372Y-185010278D01*
X122792373Y-185010273D01*
X122825000Y-184804279D01*
X122825000Y-184595720D01*
X122792373Y-184389727D01*
X122727924Y-184191372D01*
X122633244Y-184005556D01*
X122633236Y-184005543D01*
X122597372Y-183956180D01*
X122597371Y-183956179D01*
X122023787Y-184529765D01*
X122012518Y-184487708D01*
X121940110Y-184362292D01*
X121837708Y-184259890D01*
X121712292Y-184187482D01*
X121670233Y-184176212D01*
X122243819Y-183602627D01*
X122194451Y-183566759D01*
X122008627Y-183472075D01*
X121810272Y-183407626D01*
X121604279Y-183375000D01*
X121395721Y-183375000D01*
X121189727Y-183407626D01*
X120991372Y-183472075D01*
X120805552Y-183566757D01*
X120756180Y-183602627D01*
X121329766Y-184176212D01*
X121287708Y-184187482D01*
X121162292Y-184259890D01*
X121059890Y-184362292D01*
X120987482Y-184487708D01*
X120976212Y-184529765D01*
X120402627Y-183956180D01*
X120366755Y-184005555D01*
X120366754Y-184005556D01*
X120360764Y-184017313D01*
X120312788Y-184068108D01*
X120244967Y-184084901D01*
X120178832Y-184062361D01*
X120139795Y-184017308D01*
X120133670Y-184005286D01*
X120011035Y-183836495D01*
X119863505Y-183688965D01*
X119694714Y-183566330D01*
X119679247Y-183558449D01*
X119508820Y-183471612D01*
X119310389Y-183407137D01*
X119104324Y-183374500D01*
X119104319Y-183374500D01*
X118895681Y-183374500D01*
X118895676Y-183374500D01*
X118689610Y-183407137D01*
X118491179Y-183471612D01*
X118305285Y-183566330D01*
X118136496Y-183688964D01*
X118020411Y-183805049D01*
X117959088Y-183838533D01*
X117889396Y-183833549D01*
X117833463Y-183791677D01*
X117816548Y-183760699D01*
X117768798Y-183632673D01*
X117768793Y-183632664D01*
X117682547Y-183517455D01*
X117682544Y-183517452D01*
X117567335Y-183431206D01*
X117567328Y-183431202D01*
X117432482Y-183380908D01*
X117432483Y-183380908D01*
X117372883Y-183374501D01*
X117372881Y-183374500D01*
X117372873Y-183374500D01*
X117372865Y-183374500D01*
X115774500Y-183374500D01*
X115707461Y-183354815D01*
X115661706Y-183302011D01*
X115650500Y-183250500D01*
X115650500Y-182420807D01*
X115670185Y-182353768D01*
X115686814Y-182333131D01*
X121229821Y-176790123D01*
X121291142Y-176756640D01*
X121360834Y-176761624D01*
G37*
%TD.AperFunction*%
%TA.AperFunction,Conductor*%
G36*
X134667834Y-162354625D02*
G01*
X134723767Y-162396497D01*
X134748184Y-162461961D01*
X134748500Y-162470807D01*
X134748500Y-164054918D01*
X134748500Y-164054920D01*
X134748499Y-164054920D01*
X134777340Y-164199907D01*
X134777343Y-164199917D01*
X134833913Y-164336490D01*
X134833916Y-164336495D01*
X134843384Y-164350664D01*
X134843385Y-164350669D01*
X134843387Y-164350669D01*
X134911162Y-164452104D01*
X134916051Y-164459420D01*
X134916052Y-164459421D01*
X135671925Y-165215293D01*
X135705410Y-165276616D01*
X135700426Y-165346307D01*
X135671929Y-165390651D01*
X135665375Y-165397204D01*
X135665370Y-165397211D01*
X135572294Y-165536509D01*
X135508183Y-165691287D01*
X135508181Y-165691295D01*
X135475499Y-165855598D01*
X135475499Y-166023141D01*
X135508181Y-166187444D01*
X135508183Y-166187452D01*
X135572294Y-166342230D01*
X135628602Y-166426500D01*
X135634252Y-166444546D01*
X135644477Y-166460456D01*
X135648928Y-166491415D01*
X135649480Y-166493177D01*
X135649500Y-166495391D01*
X135649500Y-166549500D01*
X135629815Y-166616539D01*
X135577011Y-166662294D01*
X135525500Y-166673500D01*
X135437306Y-166673500D01*
X135263341Y-166708103D01*
X135263332Y-166708106D01*
X135099459Y-166775983D01*
X135099446Y-166775990D01*
X134951965Y-166874535D01*
X134951961Y-166874538D01*
X134826538Y-166999961D01*
X134826535Y-166999965D01*
X134727990Y-167147446D01*
X134727983Y-167147459D01*
X134660106Y-167311331D01*
X134660104Y-167311337D01*
X134650759Y-167358320D01*
X134618373Y-167420230D01*
X134616823Y-167421808D01*
X131017045Y-171021586D01*
X130980381Y-171076462D01*
X130980379Y-171076465D01*
X130934919Y-171144499D01*
X130934912Y-171144511D01*
X130878343Y-171281082D01*
X130878340Y-171281092D01*
X130849500Y-171426079D01*
X130849500Y-177237769D01*
X130829815Y-177304808D01*
X130813181Y-177325450D01*
X129270180Y-178868451D01*
X129208857Y-178901936D01*
X129139165Y-178896952D01*
X129083232Y-178855080D01*
X129058815Y-178789616D01*
X129058499Y-178780770D01*
X129058499Y-176094129D01*
X129058498Y-176094123D01*
X129052091Y-176034516D01*
X129001797Y-175899671D01*
X129001793Y-175899664D01*
X128915547Y-175784455D01*
X128915544Y-175784452D01*
X128800335Y-175698206D01*
X128800328Y-175698202D01*
X128665482Y-175647908D01*
X128665483Y-175647908D01*
X128605883Y-175641501D01*
X128605881Y-175641500D01*
X128605873Y-175641500D01*
X128605864Y-175641500D01*
X125394129Y-175641500D01*
X125394123Y-175641501D01*
X125334518Y-175647908D01*
X125293331Y-175663270D01*
X125223640Y-175668253D01*
X125206668Y-175663269D01*
X125165485Y-175647909D01*
X125165483Y-175647908D01*
X125105883Y-175641501D01*
X125105881Y-175641500D01*
X125105873Y-175641500D01*
X125105865Y-175641500D01*
X122677807Y-175641500D01*
X122610768Y-175621815D01*
X122565013Y-175569011D01*
X122555069Y-175499853D01*
X122584094Y-175436297D01*
X122590126Y-175429819D01*
X123749499Y-174270446D01*
X125522909Y-172497035D01*
X125563134Y-172470158D01*
X125602863Y-172453703D01*
X125742162Y-172360626D01*
X125860626Y-172242162D01*
X125953703Y-172102863D01*
X126017816Y-171948082D01*
X126050500Y-171783767D01*
X126050500Y-171616233D01*
X126017816Y-171451918D01*
X125953703Y-171297137D01*
X125905590Y-171225131D01*
X125860626Y-171157837D01*
X125742162Y-171039373D01*
X125602854Y-170946291D01*
X125600927Y-170945261D01*
X125600108Y-170944456D01*
X125597798Y-170942913D01*
X125598091Y-170942474D01*
X125551089Y-170896292D01*
X125535638Y-170828152D01*
X125559479Y-170762476D01*
X125571707Y-170748237D01*
X126857777Y-169462167D01*
X126919098Y-169428684D01*
X126988790Y-169433668D01*
X127011468Y-169445845D01*
X127011822Y-169445269D01*
X127015969Y-169447810D01*
X127015976Y-169447813D01*
X127015978Y-169447815D01*
X127104048Y-169492689D01*
X127212393Y-169547895D01*
X127212396Y-169547896D01*
X127263447Y-169564483D01*
X127422049Y-169616015D01*
X127639778Y-169650500D01*
X127639779Y-169650500D01*
X127860221Y-169650500D01*
X127860222Y-169650500D01*
X128077951Y-169616015D01*
X128287606Y-169547895D01*
X128484022Y-169447815D01*
X128662365Y-169318242D01*
X128818242Y-169162365D01*
X128947815Y-168984022D01*
X129047895Y-168787606D01*
X129116015Y-168577951D01*
X129150500Y-168360222D01*
X129150500Y-168139778D01*
X129116015Y-167922049D01*
X129110529Y-167905164D01*
X129108534Y-167835323D01*
X129140777Y-167779167D01*
X134536821Y-162383124D01*
X134598142Y-162349641D01*
X134667834Y-162354625D01*
G37*
%TD.AperFunction*%
%TA.AperFunction,Conductor*%
G36*
X140263702Y-169807516D02*
G01*
X140270180Y-169813548D01*
X144213181Y-173756549D01*
X144246666Y-173817872D01*
X144249500Y-173844230D01*
X144249500Y-176343680D01*
X144229815Y-176410719D01*
X144198387Y-176443997D01*
X144136495Y-176488964D01*
X143988966Y-176636493D01*
X143866330Y-176805286D01*
X143860484Y-176816759D01*
X143812508Y-176867554D01*
X143744687Y-176884348D01*
X143678553Y-176861809D01*
X143639516Y-176816759D01*
X143638303Y-176814380D01*
X143633670Y-176805286D01*
X143511035Y-176636495D01*
X143363505Y-176488965D01*
X143194714Y-176366330D01*
X143150261Y-176343680D01*
X143008820Y-176271612D01*
X142810389Y-176207137D01*
X142604324Y-176174500D01*
X142604319Y-176174500D01*
X142395681Y-176174500D01*
X142395676Y-176174500D01*
X142189610Y-176207137D01*
X141991179Y-176271612D01*
X141805285Y-176366330D01*
X141636496Y-176488964D01*
X141520023Y-176605437D01*
X141458700Y-176638921D01*
X141389008Y-176633937D01*
X141333075Y-176592065D01*
X141316160Y-176561088D01*
X141268354Y-176432913D01*
X141268350Y-176432906D01*
X141182190Y-176317812D01*
X141182187Y-176317809D01*
X141067093Y-176231649D01*
X141067086Y-176231645D01*
X140932379Y-176181403D01*
X140932372Y-176181401D01*
X140872844Y-176175000D01*
X140250000Y-176175000D01*
X140250000Y-177009252D01*
X140212292Y-176987482D01*
X140072409Y-176950000D01*
X139927591Y-176950000D01*
X139787708Y-176987482D01*
X139750000Y-177009252D01*
X139750000Y-176175000D01*
X139174500Y-176175000D01*
X139107461Y-176155315D01*
X139061706Y-176102511D01*
X139050500Y-176051000D01*
X139050500Y-175335928D01*
X139025502Y-175210261D01*
X139025501Y-175210260D01*
X139025501Y-175210256D01*
X138976465Y-175091873D01*
X138933041Y-175026884D01*
X138933039Y-175026881D01*
X138905282Y-174985337D01*
X138905277Y-174985331D01*
X136690126Y-172770180D01*
X136656641Y-172708857D01*
X136661625Y-172639165D01*
X136703497Y-172583232D01*
X136768961Y-172558815D01*
X136777807Y-172558499D01*
X139605871Y-172558499D01*
X139605872Y-172558499D01*
X139665483Y-172552091D01*
X139800331Y-172501796D01*
X139915546Y-172415546D01*
X140001796Y-172300331D01*
X140052091Y-172165483D01*
X140058500Y-172105873D01*
X140058499Y-169901228D01*
X140078184Y-169834190D01*
X140130987Y-169788435D01*
X140200146Y-169778491D01*
X140263702Y-169807516D01*
G37*
%TD.AperFunction*%
%TA.AperFunction,Conductor*%
G36*
X148672539Y-110770185D02*
G01*
X148718294Y-110822989D01*
X148729500Y-110874500D01*
X148729500Y-117975500D01*
X148709815Y-118042539D01*
X148657011Y-118088294D01*
X148605500Y-118099500D01*
X145802129Y-118099500D01*
X145802123Y-118099501D01*
X145742516Y-118105908D01*
X145607671Y-118156202D01*
X145607664Y-118156206D01*
X145492455Y-118242452D01*
X145492452Y-118242455D01*
X145406206Y-118357664D01*
X145406202Y-118357671D01*
X145355908Y-118492517D01*
X145353527Y-118514669D01*
X145349501Y-118552123D01*
X145349500Y-118552135D01*
X145349500Y-121447870D01*
X145349501Y-121447876D01*
X145355908Y-121507483D01*
X145406202Y-121642328D01*
X145406206Y-121642335D01*
X145492452Y-121757544D01*
X145492455Y-121757547D01*
X145607664Y-121843793D01*
X145607671Y-121843797D01*
X145742517Y-121894091D01*
X145742516Y-121894091D01*
X145749444Y-121894835D01*
X145802127Y-121900500D01*
X148605500Y-121900499D01*
X148672539Y-121920184D01*
X148718294Y-121972987D01*
X148729500Y-122024499D01*
X148729500Y-143475500D01*
X148709815Y-143542539D01*
X148657011Y-143588294D01*
X148605500Y-143599500D01*
X145919807Y-143599500D01*
X145852768Y-143579815D01*
X145807013Y-143527011D01*
X145797069Y-143457853D01*
X145826094Y-143394297D01*
X145832112Y-143387833D01*
X148105277Y-141114669D01*
X148176466Y-141008126D01*
X148217004Y-140910257D01*
X148225501Y-140889744D01*
X148250500Y-140764069D01*
X148250500Y-126635931D01*
X148250500Y-126635928D01*
X148225502Y-126510261D01*
X148225501Y-126510260D01*
X148225501Y-126510256D01*
X148196435Y-126440084D01*
X148176466Y-126391874D01*
X148153611Y-126357669D01*
X148105278Y-126285332D01*
X148105272Y-126285325D01*
X146017014Y-124197068D01*
X145983529Y-124135745D01*
X145983105Y-124133714D01*
X145969737Y-124066503D01*
X145945599Y-124008230D01*
X145909397Y-123920827D01*
X145909390Y-123920814D01*
X145821789Y-123789711D01*
X145821786Y-123789707D01*
X145710292Y-123678213D01*
X145710288Y-123678210D01*
X145579185Y-123590609D01*
X145579172Y-123590602D01*
X145433501Y-123530264D01*
X145433489Y-123530261D01*
X145278845Y-123499500D01*
X145278842Y-123499500D01*
X145121158Y-123499500D01*
X145121155Y-123499500D01*
X144966510Y-123530261D01*
X144966498Y-123530264D01*
X144820827Y-123590602D01*
X144820814Y-123590609D01*
X144689711Y-123678210D01*
X144689710Y-123678210D01*
X144681611Y-123686310D01*
X144620286Y-123719792D01*
X144550595Y-123714805D01*
X144506252Y-123686306D01*
X144014674Y-123194727D01*
X144014673Y-123194726D01*
X144014669Y-123194723D01*
X143908127Y-123123535D01*
X143789744Y-123074499D01*
X143789738Y-123074497D01*
X143664071Y-123049500D01*
X143664069Y-123049500D01*
X140011230Y-123049500D01*
X139944191Y-123029815D01*
X139898436Y-122977011D01*
X139888492Y-122907853D01*
X139917517Y-122844297D01*
X139923549Y-122837819D01*
X140682947Y-122078421D01*
X140682952Y-122078416D01*
X140735681Y-121999500D01*
X140765084Y-121955495D01*
X140821658Y-121818913D01*
X140850500Y-121673918D01*
X140850500Y-116876082D01*
X140850500Y-116876079D01*
X140821659Y-116731092D01*
X140821658Y-116731091D01*
X140821658Y-116731087D01*
X140777109Y-116623535D01*
X140765087Y-116594511D01*
X140765080Y-116594498D01*
X140682952Y-116471585D01*
X140682951Y-116471584D01*
X140578416Y-116367049D01*
X138868587Y-114657220D01*
X137036818Y-112825450D01*
X137003333Y-112764127D01*
X137000499Y-112737769D01*
X137000499Y-111602129D01*
X137000498Y-111602123D01*
X137000497Y-111602116D01*
X136994091Y-111542517D01*
X136943796Y-111407669D01*
X136943795Y-111407668D01*
X136943793Y-111407664D01*
X136857547Y-111292455D01*
X136857544Y-111292452D01*
X136742335Y-111206206D01*
X136742328Y-111206202D01*
X136607482Y-111155908D01*
X136607483Y-111155908D01*
X136547883Y-111149501D01*
X136547881Y-111149500D01*
X136547873Y-111149500D01*
X136547864Y-111149500D01*
X134752129Y-111149500D01*
X134752123Y-111149501D01*
X134692516Y-111155908D01*
X134557671Y-111206202D01*
X134557664Y-111206206D01*
X134442455Y-111292452D01*
X134442452Y-111292455D01*
X134356206Y-111407664D01*
X134356202Y-111407671D01*
X134305908Y-111542517D01*
X134299501Y-111602116D01*
X134299501Y-111602123D01*
X134299500Y-111602135D01*
X134299500Y-111612690D01*
X134279815Y-111679729D01*
X134263181Y-111700371D01*
X133592962Y-112370590D01*
X133575925Y-112307007D01*
X133510099Y-112192993D01*
X133417007Y-112099901D01*
X133302993Y-112034075D01*
X133239409Y-112017037D01*
X133871716Y-111384728D01*
X133817550Y-111345375D01*
X133628217Y-111248904D01*
X133426129Y-111183242D01*
X133216246Y-111150000D01*
X133003754Y-111150000D01*
X132793872Y-111183242D01*
X132793869Y-111183242D01*
X132591782Y-111248904D01*
X132402439Y-111345380D01*
X132348282Y-111384727D01*
X132348282Y-111384728D01*
X132980591Y-112017037D01*
X132917007Y-112034075D01*
X132802993Y-112099901D01*
X132709901Y-112192993D01*
X132644075Y-112307007D01*
X132627037Y-112370591D01*
X131994728Y-111738282D01*
X131994727Y-111738282D01*
X131955380Y-111792440D01*
X131955376Y-111792446D01*
X131950760Y-111801505D01*
X131902781Y-111852297D01*
X131834959Y-111869087D01*
X131768826Y-111846543D01*
X131729794Y-111801493D01*
X131725051Y-111792184D01*
X131725049Y-111792181D01*
X131725048Y-111792179D01*
X131600109Y-111620213D01*
X131449786Y-111469890D01*
X131277820Y-111344951D01*
X131088414Y-111248444D01*
X131088413Y-111248443D01*
X131088412Y-111248443D01*
X130886243Y-111182754D01*
X130886241Y-111182753D01*
X130886240Y-111182753D01*
X130724957Y-111157208D01*
X130676287Y-111149500D01*
X130463713Y-111149500D01*
X130415042Y-111157208D01*
X130253760Y-111182753D01*
X130051585Y-111248444D01*
X129862179Y-111344951D01*
X129690213Y-111469890D01*
X129539890Y-111620213D01*
X129414949Y-111792182D01*
X129410484Y-111800946D01*
X129362509Y-111851742D01*
X129294688Y-111868536D01*
X129228553Y-111845998D01*
X129189516Y-111800946D01*
X129185050Y-111792182D01*
X129060109Y-111620213D01*
X128909786Y-111469890D01*
X128737820Y-111344951D01*
X128548414Y-111248444D01*
X128548413Y-111248443D01*
X128548412Y-111248443D01*
X128346243Y-111182754D01*
X128346241Y-111182753D01*
X128346240Y-111182753D01*
X128184957Y-111157208D01*
X128136287Y-111149500D01*
X127923713Y-111149500D01*
X127875042Y-111157208D01*
X127713760Y-111182753D01*
X127511585Y-111248444D01*
X127322179Y-111344951D01*
X127150213Y-111469890D01*
X126999890Y-111620213D01*
X126874949Y-111792182D01*
X126870484Y-111800946D01*
X126822509Y-111851742D01*
X126754688Y-111868536D01*
X126688553Y-111845998D01*
X126649516Y-111800946D01*
X126645050Y-111792182D01*
X126520109Y-111620213D01*
X126369786Y-111469890D01*
X126197820Y-111344951D01*
X126008414Y-111248444D01*
X126008413Y-111248443D01*
X126008412Y-111248443D01*
X125806243Y-111182754D01*
X125806241Y-111182753D01*
X125806240Y-111182753D01*
X125644957Y-111157208D01*
X125596287Y-111149500D01*
X125383713Y-111149500D01*
X125335042Y-111157208D01*
X125173760Y-111182753D01*
X124971585Y-111248444D01*
X124782179Y-111344951D01*
X124610213Y-111469890D01*
X124459890Y-111620213D01*
X124334949Y-111792182D01*
X124330484Y-111800946D01*
X124282509Y-111851742D01*
X124214688Y-111868536D01*
X124148553Y-111845998D01*
X124109516Y-111800946D01*
X124105050Y-111792182D01*
X123980109Y-111620213D01*
X123829786Y-111469890D01*
X123657820Y-111344951D01*
X123468414Y-111248444D01*
X123468413Y-111248443D01*
X123468412Y-111248443D01*
X123266243Y-111182754D01*
X123266241Y-111182753D01*
X123266240Y-111182753D01*
X123104957Y-111157208D01*
X123056287Y-111149500D01*
X122843713Y-111149500D01*
X122795042Y-111157208D01*
X122633760Y-111182753D01*
X122431585Y-111248444D01*
X122242179Y-111344951D01*
X122070213Y-111469890D01*
X121919890Y-111620213D01*
X121794949Y-111792182D01*
X121790484Y-111800946D01*
X121742509Y-111851742D01*
X121674688Y-111868536D01*
X121608553Y-111845998D01*
X121569516Y-111800946D01*
X121565050Y-111792182D01*
X121440109Y-111620213D01*
X121289786Y-111469890D01*
X121117820Y-111344951D01*
X120928414Y-111248444D01*
X120928413Y-111248443D01*
X120928412Y-111248443D01*
X120726243Y-111182754D01*
X120726241Y-111182753D01*
X120726240Y-111182753D01*
X120564957Y-111157208D01*
X120516287Y-111149500D01*
X120303713Y-111149500D01*
X120255042Y-111157208D01*
X120093760Y-111182753D01*
X119891585Y-111248444D01*
X119702179Y-111344951D01*
X119530213Y-111469890D01*
X119379890Y-111620213D01*
X119254949Y-111792182D01*
X119250484Y-111800946D01*
X119202509Y-111851742D01*
X119134688Y-111868536D01*
X119068553Y-111845998D01*
X119029516Y-111800946D01*
X119025050Y-111792182D01*
X118900109Y-111620213D01*
X118749786Y-111469890D01*
X118577820Y-111344951D01*
X118388414Y-111248444D01*
X118388413Y-111248443D01*
X118388412Y-111248443D01*
X118186243Y-111182754D01*
X118186241Y-111182753D01*
X118186240Y-111182753D01*
X118024957Y-111157208D01*
X117976287Y-111149500D01*
X117763713Y-111149500D01*
X117715042Y-111157208D01*
X117553760Y-111182753D01*
X117351585Y-111248444D01*
X117162179Y-111344951D01*
X116990213Y-111469890D01*
X116839890Y-111620213D01*
X116714949Y-111792182D01*
X116710484Y-111800946D01*
X116662509Y-111851742D01*
X116594688Y-111868536D01*
X116528553Y-111845998D01*
X116489516Y-111800946D01*
X116485050Y-111792182D01*
X116360109Y-111620213D01*
X116209786Y-111469890D01*
X116037820Y-111344951D01*
X115848414Y-111248444D01*
X115848413Y-111248443D01*
X115848412Y-111248443D01*
X115646243Y-111182754D01*
X115646241Y-111182753D01*
X115646240Y-111182753D01*
X115484957Y-111157208D01*
X115436287Y-111149500D01*
X115223713Y-111149500D01*
X115175042Y-111157208D01*
X115013760Y-111182753D01*
X114811585Y-111248444D01*
X114622179Y-111344951D01*
X114450213Y-111469890D01*
X114299890Y-111620213D01*
X114174949Y-111792182D01*
X114170484Y-111800946D01*
X114122509Y-111851742D01*
X114054688Y-111868536D01*
X113988553Y-111845998D01*
X113949516Y-111800946D01*
X113945050Y-111792182D01*
X113820109Y-111620213D01*
X113669786Y-111469890D01*
X113497820Y-111344951D01*
X113308414Y-111248444D01*
X113308413Y-111248443D01*
X113308412Y-111248443D01*
X113106243Y-111182754D01*
X113106241Y-111182753D01*
X113106240Y-111182753D01*
X112944957Y-111157208D01*
X112896287Y-111149500D01*
X112683713Y-111149500D01*
X112635042Y-111157208D01*
X112473760Y-111182753D01*
X112271585Y-111248444D01*
X112082179Y-111344951D01*
X111910213Y-111469890D01*
X111759890Y-111620213D01*
X111634951Y-111792179D01*
X111538444Y-111981585D01*
X111472753Y-112183760D01*
X111439500Y-112393713D01*
X111439500Y-112606286D01*
X111464499Y-112764127D01*
X111472754Y-112816243D01*
X111537799Y-113016431D01*
X111538444Y-113018414D01*
X111634951Y-113207820D01*
X111759890Y-113379786D01*
X111910211Y-113530107D01*
X111998385Y-113594168D01*
X112041051Y-113649497D01*
X112049500Y-113694486D01*
X112049500Y-116564071D01*
X112054779Y-116590609D01*
X112072205Y-116678211D01*
X112074499Y-116689744D01*
X112123535Y-116808127D01*
X112194723Y-116914669D01*
X112194726Y-116914673D01*
X113167872Y-117887819D01*
X113201357Y-117949142D01*
X113196373Y-118018834D01*
X113154501Y-118074767D01*
X113089037Y-118099184D01*
X113080191Y-118099500D01*
X111302129Y-118099500D01*
X111302123Y-118099501D01*
X111242516Y-118105908D01*
X111107671Y-118156202D01*
X111107664Y-118156206D01*
X110992455Y-118242452D01*
X110992452Y-118242455D01*
X110906206Y-118357664D01*
X110906202Y-118357671D01*
X110855908Y-118492517D01*
X110853527Y-118514669D01*
X110849501Y-118552123D01*
X110849500Y-118552135D01*
X110849500Y-121447870D01*
X110849501Y-121447876D01*
X110855908Y-121507483D01*
X110906202Y-121642328D01*
X110906206Y-121642335D01*
X110992452Y-121757544D01*
X110992455Y-121757547D01*
X111107664Y-121843793D01*
X111107671Y-121843797D01*
X111242517Y-121894091D01*
X111242516Y-121894091D01*
X111249444Y-121894835D01*
X111302127Y-121900500D01*
X114197872Y-121900499D01*
X114257483Y-121894091D01*
X114392331Y-121843796D01*
X114507546Y-121757546D01*
X114593796Y-121642331D01*
X114644091Y-121507483D01*
X114650500Y-121447873D01*
X114650499Y-119669805D01*
X114670184Y-119602767D01*
X114722987Y-119557012D01*
X114792146Y-119547068D01*
X114855702Y-119576093D01*
X114862180Y-119582125D01*
X118544724Y-123264669D01*
X118635331Y-123355276D01*
X118635332Y-123355277D01*
X118741866Y-123426461D01*
X118741872Y-123426464D01*
X118741873Y-123426465D01*
X118860256Y-123475501D01*
X118860260Y-123475501D01*
X118860261Y-123475502D01*
X118985928Y-123500500D01*
X118985931Y-123500500D01*
X120455068Y-123500500D01*
X120522107Y-123520185D01*
X120523959Y-123521398D01*
X120537228Y-123530264D01*
X120647137Y-123603703D01*
X120801918Y-123667816D01*
X120966228Y-123700499D01*
X120966232Y-123700500D01*
X121125500Y-123700500D01*
X121192539Y-123720185D01*
X121238294Y-123772989D01*
X121249500Y-123824500D01*
X121249500Y-130464069D01*
X121261912Y-130526465D01*
X121274499Y-130589744D01*
X121313011Y-130682721D01*
X121314562Y-130687543D01*
X121315328Y-130717611D01*
X121318544Y-130747517D01*
X121316210Y-130752179D01*
X121316343Y-130757390D01*
X121300733Y-130783097D01*
X121287269Y-130809996D01*
X121282785Y-130812656D01*
X121280080Y-130817112D01*
X121253043Y-130830302D01*
X121227179Y-130845648D01*
X121219651Y-130846593D01*
X121217285Y-130847748D01*
X121213764Y-130847333D01*
X121196514Y-130849500D01*
X119052129Y-130849500D01*
X119052123Y-130849501D01*
X118992516Y-130855908D01*
X118857671Y-130906202D01*
X118857669Y-130906204D01*
X118748811Y-130987695D01*
X118683347Y-131012112D01*
X118615074Y-130997260D01*
X118565668Y-130947855D01*
X118550500Y-130888428D01*
X118550500Y-128535928D01*
X118525502Y-128410261D01*
X118525501Y-128410260D01*
X118525501Y-128410256D01*
X118476465Y-128291873D01*
X118476464Y-128291872D01*
X118476461Y-128291866D01*
X118405277Y-128185332D01*
X118405276Y-128185331D01*
X118314669Y-128094724D01*
X117073648Y-126853703D01*
X113214674Y-122994727D01*
X113214673Y-122994726D01*
X113214669Y-122994723D01*
X113108127Y-122923535D01*
X113070267Y-122907853D01*
X112989744Y-122874499D01*
X112989738Y-122874497D01*
X112864071Y-122849500D01*
X112864069Y-122849500D01*
X107674362Y-122849500D01*
X107607323Y-122829815D01*
X107586681Y-122813181D01*
X107574038Y-122800538D01*
X107574034Y-122800535D01*
X107426553Y-122701990D01*
X107426540Y-122701983D01*
X107262667Y-122634106D01*
X107262658Y-122634103D01*
X107088694Y-122599500D01*
X107088691Y-122599500D01*
X106911309Y-122599500D01*
X106911306Y-122599500D01*
X106737341Y-122634103D01*
X106737332Y-122634106D01*
X106573459Y-122701983D01*
X106573446Y-122701990D01*
X106425965Y-122800535D01*
X106425961Y-122800538D01*
X106300538Y-122925961D01*
X106300535Y-122925965D01*
X106201990Y-123073446D01*
X106201983Y-123073459D01*
X106134106Y-123237332D01*
X106134103Y-123237341D01*
X106099500Y-123411304D01*
X106099500Y-123588695D01*
X106134103Y-123762658D01*
X106134106Y-123762667D01*
X106201983Y-123926540D01*
X106201990Y-123926553D01*
X106300535Y-124074034D01*
X106300538Y-124074038D01*
X106425961Y-124199461D01*
X106425965Y-124199464D01*
X106573446Y-124298009D01*
X106573459Y-124298016D01*
X106696363Y-124348923D01*
X106737334Y-124365894D01*
X106737336Y-124365894D01*
X106737341Y-124365896D01*
X106911304Y-124400499D01*
X106911307Y-124400500D01*
X106911309Y-124400500D01*
X107088693Y-124400500D01*
X107088694Y-124400499D01*
X107146682Y-124388964D01*
X107262658Y-124365896D01*
X107262661Y-124365894D01*
X107262666Y-124365894D01*
X107426547Y-124298013D01*
X107574035Y-124199464D01*
X107576431Y-124197068D01*
X107586681Y-124186819D01*
X107648004Y-124153334D01*
X107674362Y-124150500D01*
X112479192Y-124150500D01*
X112546231Y-124170185D01*
X112566873Y-124186819D01*
X114030870Y-125650816D01*
X115450952Y-127070897D01*
X115484437Y-127132220D01*
X115479453Y-127201912D01*
X115450955Y-127246256D01*
X115439376Y-127257835D01*
X115439371Y-127257841D01*
X115346295Y-127397139D01*
X115282184Y-127551917D01*
X115282182Y-127551925D01*
X115249500Y-127716228D01*
X115249500Y-127883771D01*
X115282182Y-128048074D01*
X115282184Y-128048082D01*
X115346295Y-128202860D01*
X115346296Y-128202862D01*
X115346297Y-128202863D01*
X115400666Y-128284232D01*
X115428602Y-128326040D01*
X115449480Y-128392717D01*
X115449500Y-128394931D01*
X115449500Y-142830192D01*
X115429815Y-142897231D01*
X115377011Y-142942986D01*
X115307853Y-142952930D01*
X115244297Y-142923905D01*
X115237819Y-142917873D01*
X112693123Y-140373177D01*
X112659638Y-140311854D01*
X112664622Y-140242162D01*
X112677699Y-140216609D01*
X112753703Y-140102863D01*
X112817816Y-139948082D01*
X112850500Y-139783767D01*
X112850500Y-139616233D01*
X112817816Y-139451918D01*
X112761613Y-139316233D01*
X112753704Y-139297139D01*
X112671398Y-139173959D01*
X112650520Y-139107281D01*
X112650500Y-139105068D01*
X112650500Y-133594931D01*
X112670185Y-133527892D01*
X112671398Y-133526040D01*
X112753703Y-133402863D01*
X112817816Y-133248082D01*
X112850500Y-133083767D01*
X112850500Y-132916233D01*
X112817816Y-132751918D01*
X112753703Y-132597137D01*
X112660626Y-132457838D01*
X112657675Y-132453421D01*
X112636797Y-132386743D01*
X112655282Y-132319363D01*
X112673092Y-132296853D01*
X114005276Y-130964670D01*
X114076465Y-130858127D01*
X114125501Y-130739744D01*
X114126638Y-130734026D01*
X114126639Y-130734026D01*
X114126639Y-130734022D01*
X114150500Y-130614069D01*
X114150500Y-129894931D01*
X114170185Y-129827892D01*
X114171398Y-129826040D01*
X114253703Y-129702863D01*
X114317816Y-129548082D01*
X114350500Y-129383767D01*
X114350500Y-129216233D01*
X114317816Y-129051918D01*
X114267013Y-128929270D01*
X114253704Y-128897139D01*
X114251667Y-128894091D01*
X114209858Y-128831519D01*
X114160626Y-128757837D01*
X114042162Y-128639373D01*
X113902860Y-128546295D01*
X113748082Y-128482184D01*
X113748074Y-128482182D01*
X113583771Y-128449500D01*
X113583767Y-128449500D01*
X113416233Y-128449500D01*
X113416228Y-128449500D01*
X113251925Y-128482182D01*
X113251917Y-128482184D01*
X113097139Y-128546295D01*
X112957837Y-128639373D01*
X112839374Y-128757836D01*
X112822827Y-128782601D01*
X112818262Y-128786415D01*
X112815964Y-128791902D01*
X112791761Y-128808562D01*
X112769214Y-128827405D01*
X112763311Y-128828146D01*
X112758412Y-128831519D01*
X112729043Y-128832449D01*
X112699888Y-128836111D01*
X112694522Y-128833543D01*
X112688577Y-128833732D01*
X112663368Y-128818637D01*
X112636862Y-128805955D01*
X112632420Y-128800106D01*
X112628632Y-128797838D01*
X112617581Y-128780566D01*
X112608620Y-128768766D01*
X112606763Y-128765018D01*
X112576465Y-128691873D01*
X112557887Y-128664069D01*
X112553438Y-128657411D01*
X112553437Y-128657408D01*
X112505277Y-128585331D01*
X112505271Y-128585324D01*
X111890779Y-127970833D01*
X111857294Y-127909510D01*
X111860531Y-127844829D01*
X111866013Y-127827957D01*
X111866012Y-127827957D01*
X111866015Y-127827951D01*
X111900500Y-127610222D01*
X111900500Y-127389778D01*
X111866015Y-127172049D01*
X111816875Y-127020808D01*
X111797896Y-126962396D01*
X111797895Y-126962393D01*
X111763237Y-126894375D01*
X111697815Y-126765978D01*
X111599501Y-126630659D01*
X111568247Y-126587641D01*
X111568243Y-126587636D01*
X111412363Y-126431756D01*
X111412358Y-126431752D01*
X111234025Y-126302187D01*
X111234024Y-126302186D01*
X111234022Y-126302185D01*
X111129479Y-126248917D01*
X111037606Y-126202104D01*
X111037603Y-126202103D01*
X110827952Y-126133985D01*
X110671023Y-126109130D01*
X110610222Y-126099500D01*
X110389778Y-126099500D01*
X110328977Y-126109130D01*
X110172047Y-126133985D01*
X109962396Y-126202103D01*
X109962393Y-126202104D01*
X109765974Y-126302187D01*
X109587641Y-126431752D01*
X109587636Y-126431756D01*
X109431756Y-126587636D01*
X109431752Y-126587641D01*
X109350318Y-126699727D01*
X109294989Y-126742393D01*
X109225375Y-126748372D01*
X109163580Y-126715767D01*
X109149682Y-126699727D01*
X109068247Y-126587641D01*
X109068243Y-126587636D01*
X108912363Y-126431756D01*
X108912358Y-126431752D01*
X108734025Y-126302187D01*
X108734024Y-126302186D01*
X108734022Y-126302185D01*
X108629479Y-126248917D01*
X108537606Y-126202104D01*
X108537603Y-126202103D01*
X108327952Y-126133985D01*
X108171023Y-126109130D01*
X108110222Y-126099500D01*
X107889778Y-126099500D01*
X107828977Y-126109130D01*
X107672047Y-126133985D01*
X107462396Y-126202103D01*
X107462393Y-126202104D01*
X107265974Y-126302187D01*
X107087641Y-126431752D01*
X107087635Y-126431757D01*
X107066596Y-126452796D01*
X107005273Y-126486280D01*
X106935581Y-126481294D01*
X106879648Y-126439421D01*
X106862735Y-126408446D01*
X106843797Y-126357671D01*
X106843793Y-126357664D01*
X106757547Y-126242455D01*
X106757544Y-126242452D01*
X106642335Y-126156206D01*
X106642328Y-126156202D01*
X106507482Y-126105908D01*
X106507483Y-126105908D01*
X106447883Y-126099501D01*
X106447881Y-126099500D01*
X106447873Y-126099500D01*
X106447864Y-126099500D01*
X104552129Y-126099500D01*
X104552123Y-126099501D01*
X104492516Y-126105908D01*
X104357671Y-126156202D01*
X104357664Y-126156206D01*
X104242455Y-126242452D01*
X104242452Y-126242455D01*
X104156206Y-126357664D01*
X104156202Y-126357671D01*
X104105908Y-126492517D01*
X104099501Y-126552116D01*
X104099500Y-126552135D01*
X104099500Y-128447870D01*
X104099501Y-128447876D01*
X104105908Y-128507483D01*
X104156202Y-128642328D01*
X104156206Y-128642335D01*
X104242452Y-128757544D01*
X104242455Y-128757547D01*
X104357664Y-128843793D01*
X104357671Y-128843797D01*
X104408446Y-128862735D01*
X104464380Y-128904606D01*
X104488797Y-128970070D01*
X104473945Y-129038343D01*
X104452796Y-129066596D01*
X104431757Y-129087635D01*
X104431752Y-129087641D01*
X104302187Y-129265974D01*
X104202104Y-129462393D01*
X104202103Y-129462396D01*
X104133985Y-129672047D01*
X104099500Y-129889778D01*
X104099500Y-130110221D01*
X104133985Y-130327952D01*
X104202103Y-130537603D01*
X104202104Y-130537606D01*
X104302187Y-130734025D01*
X104431752Y-130912358D01*
X104431756Y-130912363D01*
X104587636Y-131068243D01*
X104587641Y-131068247D01*
X104724730Y-131167847D01*
X104765978Y-131197815D01*
X104875948Y-131253848D01*
X104962393Y-131297895D01*
X104962396Y-131297896D01*
X105059807Y-131329546D01*
X105172049Y-131366015D01*
X105389778Y-131400500D01*
X105389779Y-131400500D01*
X105610221Y-131400500D01*
X105610222Y-131400500D01*
X105827951Y-131366015D01*
X106037606Y-131297895D01*
X106234022Y-131197815D01*
X106412365Y-131068242D01*
X106568242Y-130912365D01*
X106649682Y-130800270D01*
X106705011Y-130757606D01*
X106774624Y-130751627D01*
X106836420Y-130784232D01*
X106850313Y-130800265D01*
X106886085Y-130849501D01*
X106931758Y-130912365D01*
X107087636Y-131068243D01*
X107087641Y-131068247D01*
X107265973Y-131197812D01*
X107265975Y-131197813D01*
X107265978Y-131197815D01*
X107281795Y-131205874D01*
X107332591Y-131253848D01*
X107349500Y-131316359D01*
X107349500Y-131614069D01*
X107349500Y-131614071D01*
X107349499Y-131614071D01*
X107374497Y-131739738D01*
X107374499Y-131739744D01*
X107407926Y-131820445D01*
X107423535Y-131858127D01*
X107431340Y-131869808D01*
X107494726Y-131964673D01*
X108385326Y-132855273D01*
X108385329Y-132855275D01*
X108385331Y-132855277D01*
X108491873Y-132926465D01*
X108610256Y-132975501D01*
X108610260Y-132975501D01*
X108610261Y-132975502D01*
X108735928Y-133000500D01*
X108735931Y-133000500D01*
X111031173Y-133000500D01*
X111098212Y-133020185D01*
X111143967Y-133072989D01*
X111152790Y-133100309D01*
X111182182Y-133248074D01*
X111182184Y-133248082D01*
X111246295Y-133402860D01*
X111328602Y-133526040D01*
X111349480Y-133592717D01*
X111349500Y-133594931D01*
X111349500Y-137721730D01*
X111329815Y-137788769D01*
X111277011Y-137834524D01*
X111207853Y-137844468D01*
X111144297Y-137815443D01*
X111125707Y-137794373D01*
X111125653Y-137794419D01*
X111124391Y-137792881D01*
X111122403Y-137790628D01*
X111121793Y-137789716D01*
X111121786Y-137789707D01*
X111010292Y-137678213D01*
X111010288Y-137678210D01*
X110879185Y-137590609D01*
X110879172Y-137590602D01*
X110733501Y-137530264D01*
X110733489Y-137530261D01*
X110578845Y-137499500D01*
X110578842Y-137499500D01*
X110421158Y-137499500D01*
X110421155Y-137499500D01*
X110266510Y-137530261D01*
X110266498Y-137530264D01*
X110120827Y-137590602D01*
X110120814Y-137590609D01*
X109989711Y-137678210D01*
X109989707Y-137678213D01*
X109878213Y-137789707D01*
X109878210Y-137789711D01*
X109790609Y-137920814D01*
X109790602Y-137920827D01*
X109730264Y-138066498D01*
X109730261Y-138066508D01*
X109716920Y-138133579D01*
X109684535Y-138195490D01*
X109682984Y-138197068D01*
X107845723Y-140034329D01*
X107828191Y-140060568D01*
X107812772Y-140079356D01*
X107494722Y-140397407D01*
X107443211Y-140474498D01*
X107443212Y-140474499D01*
X107423534Y-140503949D01*
X107374499Y-140622330D01*
X107374497Y-140622336D01*
X107349500Y-140748003D01*
X107349500Y-151683641D01*
X107329815Y-151750680D01*
X107281798Y-151794123D01*
X107267754Y-151801280D01*
X107265972Y-151802188D01*
X107087641Y-151931752D01*
X107087635Y-151931757D01*
X107066207Y-151953185D01*
X107004884Y-151986669D01*
X106935192Y-151981683D01*
X106879259Y-151939810D01*
X106862346Y-151908834D01*
X106843355Y-151857915D01*
X106843350Y-151857906D01*
X106757190Y-151742812D01*
X106757187Y-151742809D01*
X106642093Y-151656649D01*
X106642086Y-151656645D01*
X106507379Y-151606403D01*
X106507372Y-151606401D01*
X106447844Y-151600000D01*
X105750000Y-151600000D01*
X105750000Y-152566988D01*
X105692993Y-152534075D01*
X105565826Y-152500000D01*
X105434174Y-152500000D01*
X105307007Y-152534075D01*
X105250000Y-152566988D01*
X105250000Y-151600000D01*
X104800982Y-151600000D01*
X104733943Y-151580315D01*
X104688188Y-151527511D01*
X104678244Y-151458353D01*
X104707269Y-151394797D01*
X104753530Y-151361439D01*
X104879172Y-151309397D01*
X104879172Y-151309396D01*
X104879179Y-151309394D01*
X105010289Y-151221789D01*
X105121789Y-151110289D01*
X105209394Y-150979179D01*
X105269737Y-150833497D01*
X105300500Y-150678842D01*
X105300500Y-150521158D01*
X105300500Y-150521155D01*
X105300499Y-150521153D01*
X105269738Y-150366510D01*
X105269737Y-150366503D01*
X105262104Y-150348074D01*
X105209397Y-150220827D01*
X105209390Y-150220814D01*
X105121789Y-150089711D01*
X105121786Y-150089707D01*
X105010292Y-149978213D01*
X105010288Y-149978210D01*
X104879185Y-149890609D01*
X104879172Y-149890602D01*
X104733501Y-149830264D01*
X104733489Y-149830261D01*
X104578845Y-149799500D01*
X104578842Y-149799500D01*
X104421158Y-149799500D01*
X104421155Y-149799500D01*
X104266510Y-149830261D01*
X104266498Y-149830264D01*
X104221952Y-149848716D01*
X104189326Y-149852223D01*
X104156853Y-149856893D01*
X104154765Y-149855939D01*
X104152483Y-149856185D01*
X104123150Y-149841501D01*
X104093297Y-149827868D01*
X104092055Y-149825935D01*
X104090004Y-149824909D01*
X104073270Y-149796706D01*
X104055523Y-149769090D01*
X104055087Y-149766059D01*
X104054352Y-149764820D01*
X104050500Y-149734155D01*
X104050500Y-149504935D01*
X104070185Y-149437896D01*
X104071366Y-149436090D01*
X104109394Y-149379179D01*
X104169737Y-149233497D01*
X104200500Y-149078842D01*
X104200500Y-148921158D01*
X104200500Y-148921155D01*
X104200499Y-148921153D01*
X104186694Y-148851751D01*
X104169737Y-148766503D01*
X104169735Y-148766498D01*
X104109397Y-148620827D01*
X104109390Y-148620814D01*
X104021789Y-148489711D01*
X104021786Y-148489707D01*
X103910292Y-148378213D01*
X103910288Y-148378210D01*
X103779185Y-148290609D01*
X103779172Y-148290602D01*
X103633501Y-148230264D01*
X103633489Y-148230261D01*
X103478845Y-148199500D01*
X103478842Y-148199500D01*
X103321158Y-148199500D01*
X103321155Y-148199500D01*
X103166510Y-148230261D01*
X103166498Y-148230264D01*
X103020827Y-148290602D01*
X103020814Y-148290609D01*
X102889711Y-148378210D01*
X102889707Y-148378213D01*
X102778213Y-148489707D01*
X102778210Y-148489711D01*
X102690609Y-148620814D01*
X102690602Y-148620827D01*
X102630264Y-148766498D01*
X102630261Y-148766510D01*
X102599500Y-148921153D01*
X102599500Y-149078846D01*
X102630261Y-149233489D01*
X102630264Y-149233501D01*
X102690602Y-149379172D01*
X102690606Y-149379179D01*
X102728602Y-149436044D01*
X102749480Y-149502721D01*
X102749500Y-149504935D01*
X102749500Y-159195064D01*
X102729815Y-159262103D01*
X102728603Y-159263954D01*
X102690608Y-159320817D01*
X102690602Y-159320828D01*
X102630264Y-159466498D01*
X102630261Y-159466510D01*
X102599500Y-159621153D01*
X102599500Y-159778846D01*
X102630261Y-159933489D01*
X102630264Y-159933501D01*
X102690602Y-160079172D01*
X102690609Y-160079185D01*
X102778210Y-160210288D01*
X102778213Y-160210292D01*
X102889707Y-160321786D01*
X102889711Y-160321789D01*
X103020814Y-160409390D01*
X103020827Y-160409397D01*
X103166498Y-160469735D01*
X103166503Y-160469737D01*
X103321153Y-160500499D01*
X103321156Y-160500500D01*
X103321158Y-160500500D01*
X103478844Y-160500500D01*
X103478845Y-160500499D01*
X103633497Y-160469737D01*
X103779179Y-160409394D01*
X103910289Y-160321789D01*
X104021789Y-160210289D01*
X104109394Y-160079179D01*
X104169737Y-159933497D01*
X104200500Y-159778842D01*
X104200500Y-159621158D01*
X104200500Y-159621155D01*
X104200499Y-159621153D01*
X104184165Y-159539038D01*
X104169737Y-159466503D01*
X104169735Y-159466498D01*
X104109397Y-159320828D01*
X104109396Y-159320827D01*
X104109394Y-159320821D01*
X104071396Y-159263953D01*
X104050520Y-159197276D01*
X104050500Y-159195064D01*
X104050500Y-158047172D01*
X104070185Y-157980133D01*
X104122989Y-157934378D01*
X104192147Y-157924434D01*
X104243392Y-157944071D01*
X104291864Y-157976460D01*
X104291872Y-157976464D01*
X104291873Y-157976465D01*
X104410256Y-158025501D01*
X104410260Y-158025501D01*
X104410261Y-158025502D01*
X104535928Y-158050500D01*
X104535931Y-158050500D01*
X107364071Y-158050500D01*
X107448615Y-158033682D01*
X107489744Y-158025501D01*
X107608127Y-157976465D01*
X107643449Y-157952864D01*
X107643450Y-157952864D01*
X107696743Y-157917254D01*
X107714669Y-157905277D01*
X108505276Y-157114670D01*
X108547913Y-157050858D01*
X108576464Y-157008129D01*
X108586045Y-156984998D01*
X108625501Y-156889744D01*
X108630221Y-156866015D01*
X108644011Y-156796686D01*
X108676395Y-156734777D01*
X108709331Y-156710395D01*
X108734022Y-156697815D01*
X108912365Y-156568242D01*
X109068242Y-156412365D01*
X109149682Y-156300270D01*
X109205011Y-156257606D01*
X109274624Y-156251627D01*
X109336420Y-156284232D01*
X109350313Y-156300265D01*
X109427280Y-156406202D01*
X109431758Y-156412365D01*
X109587636Y-156568243D01*
X109587641Y-156568247D01*
X109726931Y-156669446D01*
X109765978Y-156697815D01*
X109853708Y-156742516D01*
X109962393Y-156797895D01*
X109962396Y-156797896D01*
X110054467Y-156827811D01*
X110172049Y-156866015D01*
X110389778Y-156900500D01*
X110389779Y-156900500D01*
X110610221Y-156900500D01*
X110610222Y-156900500D01*
X110827951Y-156866015D01*
X111037606Y-156797895D01*
X111234022Y-156697815D01*
X111412365Y-156568242D01*
X111568242Y-156412365D01*
X111697815Y-156234022D01*
X111797895Y-156037606D01*
X111866015Y-155827951D01*
X111900500Y-155610222D01*
X111900500Y-155389778D01*
X111866015Y-155172049D01*
X111815388Y-155016233D01*
X111797896Y-154962396D01*
X111797895Y-154962393D01*
X111755508Y-154879206D01*
X111697815Y-154765978D01*
X111680680Y-154742393D01*
X111568247Y-154587641D01*
X111568243Y-154587636D01*
X111412365Y-154431758D01*
X111382002Y-154409698D01*
X111300270Y-154350317D01*
X111257606Y-154294989D01*
X111251627Y-154225376D01*
X111284232Y-154163580D01*
X111300265Y-154149686D01*
X111412365Y-154068242D01*
X111568242Y-153912365D01*
X111697815Y-153734022D01*
X111797895Y-153537606D01*
X111866015Y-153327951D01*
X111900500Y-153110222D01*
X111900500Y-152889778D01*
X111866015Y-152672049D01*
X111797895Y-152462394D01*
X111797895Y-152462393D01*
X111763237Y-152394375D01*
X111697815Y-152265978D01*
X111642428Y-152189744D01*
X111568247Y-152087641D01*
X111568243Y-152087636D01*
X111412363Y-151931756D01*
X111412358Y-151931752D01*
X111234025Y-151802187D01*
X111234024Y-151802186D01*
X111234022Y-151802185D01*
X111132939Y-151750680D01*
X111037606Y-151702104D01*
X111037603Y-151702103D01*
X110827952Y-151633985D01*
X110719086Y-151616742D01*
X110610222Y-151599500D01*
X110389778Y-151599500D01*
X110317201Y-151610995D01*
X110172047Y-151633985D01*
X109962396Y-151702103D01*
X109962393Y-151702104D01*
X109765974Y-151802187D01*
X109587641Y-151931752D01*
X109587636Y-151931756D01*
X109431756Y-152087636D01*
X109431752Y-152087641D01*
X109350318Y-152199727D01*
X109294989Y-152242393D01*
X109225375Y-152248372D01*
X109163580Y-152215767D01*
X109149682Y-152199727D01*
X109068247Y-152087641D01*
X109068243Y-152087636D01*
X108912363Y-151931756D01*
X108912358Y-151931752D01*
X108734027Y-151802188D01*
X108734024Y-151802186D01*
X108734022Y-151802185D01*
X108718201Y-151794124D01*
X108667408Y-151746149D01*
X108650500Y-151683641D01*
X108650500Y-141132883D01*
X108670185Y-141065844D01*
X108686819Y-141045202D01*
X108747999Y-140984022D01*
X108856277Y-140875744D01*
X108873806Y-140849507D01*
X108889222Y-140830722D01*
X110602931Y-139117013D01*
X110664252Y-139083530D01*
X110666317Y-139083099D01*
X110733497Y-139069737D01*
X110879179Y-139009394D01*
X111010289Y-138921789D01*
X111121789Y-138810289D01*
X111122397Y-138809378D01*
X111122839Y-138809008D01*
X111125653Y-138805581D01*
X111126303Y-138806114D01*
X111148416Y-138787633D01*
X111173989Y-138765475D01*
X111175126Y-138765311D01*
X111176010Y-138764573D01*
X111209625Y-138760350D01*
X111243147Y-138755531D01*
X111244194Y-138756009D01*
X111245334Y-138755866D01*
X111275868Y-138770474D01*
X111306703Y-138784556D01*
X111307325Y-138785523D01*
X111308362Y-138786020D01*
X111326163Y-138814837D01*
X111344477Y-138843334D01*
X111344692Y-138844832D01*
X111345082Y-138845463D01*
X111349500Y-138878269D01*
X111349500Y-139105068D01*
X111329815Y-139172107D01*
X111328602Y-139173959D01*
X111246295Y-139297139D01*
X111182184Y-139451917D01*
X111182182Y-139451925D01*
X111149500Y-139616228D01*
X111149500Y-139775500D01*
X111129815Y-139842539D01*
X111077011Y-139888294D01*
X111025500Y-139899500D01*
X110921155Y-139899500D01*
X110766510Y-139930261D01*
X110766498Y-139930264D01*
X110620827Y-139990602D01*
X110620814Y-139990609D01*
X110489711Y-140078210D01*
X110489707Y-140078213D01*
X110378213Y-140189707D01*
X110378210Y-140189711D01*
X110290609Y-140320814D01*
X110290602Y-140320827D01*
X110230264Y-140466498D01*
X110230262Y-140466505D01*
X110223376Y-140501122D01*
X110190989Y-140563032D01*
X110130273Y-140597605D01*
X110125951Y-140598545D01*
X109966508Y-140630261D01*
X109966498Y-140630264D01*
X109820827Y-140690602D01*
X109820814Y-140690609D01*
X109689711Y-140778210D01*
X109689707Y-140778213D01*
X109578213Y-140889707D01*
X109578210Y-140889711D01*
X109490609Y-141020814D01*
X109490602Y-141020827D01*
X109430264Y-141166498D01*
X109430261Y-141166510D01*
X109399500Y-141321153D01*
X109399500Y-141478846D01*
X109430261Y-141633489D01*
X109430264Y-141633501D01*
X109490602Y-141779172D01*
X109490606Y-141779179D01*
X109528602Y-141836044D01*
X109549480Y-141902721D01*
X109549500Y-141904935D01*
X109549500Y-145625638D01*
X109529815Y-145692677D01*
X109513181Y-145713319D01*
X109500538Y-145725961D01*
X109500535Y-145725965D01*
X109401990Y-145873446D01*
X109401983Y-145873459D01*
X109334106Y-146037332D01*
X109334103Y-146037341D01*
X109299500Y-146211304D01*
X109299500Y-146388695D01*
X109334103Y-146562658D01*
X109334106Y-146562667D01*
X109401983Y-146726540D01*
X109401990Y-146726553D01*
X109500535Y-146874034D01*
X109500538Y-146874038D01*
X109625961Y-146999461D01*
X109625965Y-146999464D01*
X109773446Y-147098009D01*
X109773459Y-147098016D01*
X109880440Y-147142328D01*
X109937334Y-147165894D01*
X109937336Y-147165894D01*
X109937341Y-147165896D01*
X110111304Y-147200499D01*
X110111307Y-147200500D01*
X110111309Y-147200500D01*
X110288693Y-147200500D01*
X110288694Y-147200499D01*
X110346682Y-147188964D01*
X110462658Y-147165896D01*
X110462661Y-147165894D01*
X110462666Y-147165894D01*
X110626547Y-147098013D01*
X110706874Y-147044339D01*
X110773550Y-147023461D01*
X110840930Y-147041945D01*
X110887621Y-147093923D01*
X110891947Y-147104107D01*
X110906203Y-147142330D01*
X110906206Y-147142335D01*
X110992452Y-147257544D01*
X110992455Y-147257547D01*
X111107664Y-147343793D01*
X111107671Y-147343797D01*
X111242517Y-147394091D01*
X111242516Y-147394091D01*
X111249444Y-147394835D01*
X111302127Y-147400500D01*
X114197872Y-147400499D01*
X114257483Y-147394091D01*
X114392331Y-147343796D01*
X114507546Y-147257546D01*
X114593796Y-147142331D01*
X114644091Y-147007483D01*
X114650500Y-146947873D01*
X114650499Y-146265843D01*
X114670183Y-146198805D01*
X114722987Y-146153050D01*
X114792146Y-146143106D01*
X114821948Y-146151281D01*
X114866503Y-146169737D01*
X115003120Y-146196912D01*
X115021153Y-146200499D01*
X115021156Y-146200500D01*
X115021158Y-146200500D01*
X115178844Y-146200500D01*
X115301308Y-146176140D01*
X115370900Y-146182367D01*
X115426077Y-146225230D01*
X115449322Y-146291120D01*
X115449500Y-146297757D01*
X115449500Y-148525500D01*
X115429815Y-148592539D01*
X115377011Y-148638294D01*
X115325500Y-148649500D01*
X115216228Y-148649500D01*
X115051925Y-148682182D01*
X115051917Y-148682184D01*
X114897139Y-148746295D01*
X114757837Y-148839373D01*
X114639373Y-148957837D01*
X114546295Y-149097139D01*
X114482184Y-149251917D01*
X114482182Y-149251925D01*
X114449500Y-149416228D01*
X114449500Y-149583771D01*
X114482182Y-149748074D01*
X114482184Y-149748082D01*
X114546295Y-149902860D01*
X114546296Y-149902862D01*
X114546297Y-149902863D01*
X114622045Y-150016228D01*
X114628602Y-150026040D01*
X114649480Y-150092717D01*
X114649500Y-150094931D01*
X114649500Y-154179191D01*
X114629815Y-154246230D01*
X114613181Y-154266872D01*
X105294727Y-163585325D01*
X105294724Y-163585328D01*
X105242741Y-163663128D01*
X105223535Y-163691871D01*
X105174499Y-163810255D01*
X105174497Y-163810261D01*
X105149500Y-163935928D01*
X105149500Y-168317500D01*
X105129815Y-168384539D01*
X105077011Y-168430294D01*
X105025500Y-168441500D01*
X101894500Y-168441500D01*
X101827461Y-168421815D01*
X101781706Y-168369011D01*
X101770500Y-168317500D01*
X101770500Y-147524499D01*
X101790185Y-147457460D01*
X101842989Y-147411705D01*
X101894495Y-147400499D01*
X104697872Y-147400499D01*
X104757483Y-147394091D01*
X104892331Y-147343796D01*
X105007546Y-147257546D01*
X105093796Y-147142331D01*
X105144091Y-147007483D01*
X105150500Y-146947873D01*
X105150499Y-144052128D01*
X105144091Y-143992517D01*
X105142523Y-143988314D01*
X105093797Y-143857671D01*
X105093793Y-143857664D01*
X105007547Y-143742455D01*
X105007544Y-143742452D01*
X104892335Y-143656206D01*
X104892328Y-143656202D01*
X104757482Y-143605908D01*
X104757483Y-143605908D01*
X104697883Y-143599501D01*
X104697881Y-143599500D01*
X104697873Y-143599500D01*
X104697865Y-143599500D01*
X101894500Y-143599500D01*
X101827461Y-143579815D01*
X101781706Y-143527011D01*
X101770500Y-143475500D01*
X101770500Y-122024499D01*
X101790185Y-121957460D01*
X101842989Y-121911705D01*
X101894495Y-121900499D01*
X104697872Y-121900499D01*
X104757483Y-121894091D01*
X104892331Y-121843796D01*
X105007546Y-121757546D01*
X105093796Y-121642331D01*
X105144091Y-121507483D01*
X105150500Y-121447873D01*
X105150499Y-118552128D01*
X105144091Y-118492517D01*
X105119485Y-118426546D01*
X105093797Y-118357671D01*
X105093793Y-118357664D01*
X105007547Y-118242455D01*
X105007544Y-118242452D01*
X104892335Y-118156206D01*
X104892328Y-118156202D01*
X104757482Y-118105908D01*
X104757483Y-118105908D01*
X104697883Y-118099501D01*
X104697881Y-118099500D01*
X104697873Y-118099500D01*
X104697865Y-118099500D01*
X101894500Y-118099500D01*
X101827461Y-118079815D01*
X101781706Y-118027011D01*
X101770500Y-117975500D01*
X101770500Y-110874500D01*
X101790185Y-110807461D01*
X101842989Y-110761706D01*
X101894500Y-110750500D01*
X148605500Y-110750500D01*
X148672539Y-110770185D01*
G37*
%TD.AperFunction*%
%TA.AperFunction,Conductor*%
G36*
X140250000Y-154400000D02*
G01*
X140947828Y-154400000D01*
X140947844Y-154399999D01*
X141007372Y-154393598D01*
X141007379Y-154393596D01*
X141142086Y-154343354D01*
X141142093Y-154343350D01*
X141257187Y-154257190D01*
X141257190Y-154257187D01*
X141343350Y-154142093D01*
X141343353Y-154142088D01*
X141362345Y-154091166D01*
X141378863Y-154069098D01*
X141392534Y-154045160D01*
X141399504Y-154041524D01*
X141404215Y-154035232D01*
X141430041Y-154025598D01*
X141454485Y-154012850D01*
X141462314Y-154013560D01*
X141469679Y-154010813D01*
X141496613Y-154016671D01*
X141524069Y-154019162D01*
X141532003Y-154024369D01*
X141537952Y-154025663D01*
X141554717Y-154036665D01*
X141560778Y-154041385D01*
X141587635Y-154068242D01*
X141701376Y-154150879D01*
X141703031Y-154152168D01*
X141722268Y-154178913D01*
X141742393Y-154205011D01*
X141742576Y-154207147D01*
X141743829Y-154208889D01*
X141745553Y-154241807D01*
X141748372Y-154274625D01*
X141747371Y-154276520D01*
X141747484Y-154278663D01*
X141731141Y-154307280D01*
X141715767Y-154336420D01*
X141713262Y-154338589D01*
X141712836Y-154339337D01*
X141711741Y-154339907D01*
X141699727Y-154350318D01*
X141587641Y-154431752D01*
X141587636Y-154431756D01*
X141431756Y-154587636D01*
X141431752Y-154587641D01*
X141302187Y-154765974D01*
X141202104Y-154962393D01*
X141202103Y-154962396D01*
X141133985Y-155172047D01*
X141121335Y-155251917D01*
X141099500Y-155389778D01*
X141099500Y-155610222D01*
X141103283Y-155634106D01*
X141133985Y-155827952D01*
X141202103Y-156037603D01*
X141202104Y-156037606D01*
X141256467Y-156144297D01*
X141298568Y-156226924D01*
X141302187Y-156234025D01*
X141431752Y-156412358D01*
X141431756Y-156412363D01*
X141587636Y-156568243D01*
X141587641Y-156568247D01*
X141765973Y-156697812D01*
X141765975Y-156697813D01*
X141765978Y-156697815D01*
X141781795Y-156705874D01*
X141832591Y-156753848D01*
X141849500Y-156816359D01*
X141849500Y-160264073D01*
X141858437Y-160309002D01*
X141852210Y-160378593D01*
X141809347Y-160433771D01*
X141805711Y-160436295D01*
X141681376Y-160519373D01*
X141681372Y-160519376D01*
X141562911Y-160637837D01*
X141469833Y-160777139D01*
X141405722Y-160931917D01*
X141405720Y-160931925D01*
X141373038Y-161096228D01*
X141373038Y-161263771D01*
X141405720Y-161428074D01*
X141405722Y-161428082D01*
X141469833Y-161582860D01*
X141482140Y-161601278D01*
X141503018Y-161667955D01*
X141503038Y-161670169D01*
X141503038Y-162025653D01*
X141483353Y-162092692D01*
X141466719Y-162113334D01*
X141094727Y-162485325D01*
X141094724Y-162485328D01*
X141033830Y-162576463D01*
X141033831Y-162576464D01*
X141023536Y-162591871D01*
X141023533Y-162591877D01*
X140974499Y-162710255D01*
X140974497Y-162710261D01*
X140949500Y-162835928D01*
X140949500Y-167703571D01*
X140929815Y-167770610D01*
X140928602Y-167772461D01*
X140845298Y-167897134D01*
X140845293Y-167897143D01*
X140808296Y-167986460D01*
X140764455Y-168040863D01*
X140698160Y-168062927D01*
X140630461Y-168045647D01*
X140606055Y-168026687D01*
X136911568Y-164332200D01*
X136878083Y-164270877D01*
X136883067Y-164201185D01*
X136924939Y-164145252D01*
X136947494Y-164132408D01*
X136947485Y-164132391D01*
X136948131Y-164132045D01*
X136951799Y-164129957D01*
X136952360Y-164129724D01*
X136952863Y-164129516D01*
X137092162Y-164036439D01*
X137210626Y-163917975D01*
X137303703Y-163778676D01*
X137367816Y-163623895D01*
X137400500Y-163459580D01*
X137400500Y-163322659D01*
X137420185Y-163255620D01*
X137472989Y-163209865D01*
X137524500Y-163198659D01*
X137588693Y-163198659D01*
X137588694Y-163198658D01*
X137646682Y-163187123D01*
X137762658Y-163164055D01*
X137762661Y-163164053D01*
X137762666Y-163164053D01*
X137926547Y-163096172D01*
X138074035Y-162997623D01*
X138199464Y-162872194D01*
X138298013Y-162724706D01*
X138365894Y-162560825D01*
X138375239Y-162513839D01*
X138407622Y-162451931D01*
X138409067Y-162450458D01*
X138710951Y-162148575D01*
X138742524Y-162101322D01*
X138793084Y-162025654D01*
X138849658Y-161889072D01*
X138868358Y-161795064D01*
X138878500Y-161744079D01*
X138878500Y-156226924D01*
X138880881Y-156202740D01*
X138891272Y-156150500D01*
X138907504Y-156068896D01*
X138907504Y-156068888D01*
X138907505Y-156068883D01*
X138907504Y-155985331D01*
X138907504Y-155921061D01*
X138907502Y-155921053D01*
X138907500Y-155735931D01*
X138907500Y-154522492D01*
X138927185Y-154455453D01*
X138979989Y-154409698D01*
X139044762Y-154399203D01*
X139052170Y-154399999D01*
X139052172Y-154400000D01*
X139750000Y-154400000D01*
X139750000Y-153433012D01*
X139807007Y-153465925D01*
X139934174Y-153500000D01*
X140065826Y-153500000D01*
X140192993Y-153465925D01*
X140250000Y-153433012D01*
X140250000Y-154400000D01*
G37*
%TD.AperFunction*%
%TA.AperFunction,Conductor*%
G36*
X134168834Y-160353625D02*
G01*
X134224767Y-160395497D01*
X134249184Y-160460961D01*
X134249500Y-160469807D01*
X134249500Y-160779191D01*
X134229815Y-160846230D01*
X134213181Y-160866872D01*
X129361836Y-165718216D01*
X129300513Y-165751701D01*
X129230821Y-165746717D01*
X129174888Y-165704845D01*
X129152120Y-165644454D01*
X129151262Y-165644590D01*
X129150603Y-165640430D01*
X129150536Y-165640252D01*
X129150500Y-165639800D01*
X129150500Y-165639778D01*
X129116015Y-165422049D01*
X129110529Y-165405164D01*
X129108534Y-165335323D01*
X129140777Y-165279167D01*
X134037819Y-160382126D01*
X134099142Y-160348641D01*
X134168834Y-160353625D01*
G37*
%TD.AperFunction*%
%TA.AperFunction,Conductor*%
G36*
X118395211Y-135320604D02*
G01*
X118419620Y-135339566D01*
X119763181Y-136683127D01*
X119796666Y-136744450D01*
X119799500Y-136770808D01*
X119799500Y-136788695D01*
X119834103Y-136962658D01*
X119834106Y-136962667D01*
X119901983Y-137126540D01*
X119901990Y-137126553D01*
X120000535Y-137274034D01*
X120000538Y-137274038D01*
X120125961Y-137399461D01*
X120125965Y-137399464D01*
X120273446Y-137498009D01*
X120273453Y-137498013D01*
X120363330Y-137535241D01*
X120379732Y-137548458D01*
X120398738Y-137557551D01*
X120406392Y-137569942D01*
X120417732Y-137579080D01*
X120424385Y-137599068D01*
X120435458Y-137616993D01*
X120435198Y-137631554D01*
X120439798Y-137645374D01*
X120434587Y-137665789D01*
X120434212Y-137686851D01*
X120423494Y-137709253D01*
X120422520Y-137713073D01*
X120418981Y-137718689D01*
X120375520Y-137783736D01*
X120375519Y-137783738D01*
X120334913Y-137844508D01*
X120278343Y-137981082D01*
X120278340Y-137981092D01*
X120249500Y-138126079D01*
X120249500Y-138126082D01*
X120249500Y-149078531D01*
X120249500Y-149078533D01*
X120249499Y-149078533D01*
X120278340Y-149223520D01*
X120278343Y-149223530D01*
X120334914Y-149360105D01*
X120334915Y-149360107D01*
X120334916Y-149360108D01*
X120367813Y-149409342D01*
X120417048Y-149483029D01*
X120420209Y-149486190D01*
X120426095Y-149494824D01*
X120427638Y-149499597D01*
X120438199Y-149517218D01*
X120496294Y-149657472D01*
X120589372Y-149796774D01*
X120707836Y-149915238D01*
X120741293Y-149937593D01*
X120847136Y-150008315D01*
X120847137Y-150008315D01*
X120847138Y-150008316D01*
X120882200Y-150022839D01*
X121001917Y-150072428D01*
X121166227Y-150105111D01*
X121166231Y-150105112D01*
X121166232Y-150105112D01*
X121333767Y-150105112D01*
X121333768Y-150105111D01*
X121498081Y-150072428D01*
X121652862Y-150008315D01*
X121792161Y-149915238D01*
X121910625Y-149796774D01*
X122003702Y-149657475D01*
X122067815Y-149502694D01*
X122100499Y-149338379D01*
X122100499Y-149170845D01*
X122067815Y-149006530D01*
X122003702Y-148851749D01*
X121910625Y-148712450D01*
X121792161Y-148593986D01*
X121792158Y-148593984D01*
X121787854Y-148589680D01*
X121789629Y-148587904D01*
X121756488Y-148539215D01*
X121750500Y-148501148D01*
X121750500Y-143998298D01*
X121753431Y-143988314D01*
X121752175Y-143977983D01*
X121763108Y-143955359D01*
X121770185Y-143931259D01*
X121778047Y-143924445D01*
X121782577Y-143915074D01*
X121804006Y-143901952D01*
X121822989Y-143885504D01*
X121833287Y-143884023D01*
X121842164Y-143878588D01*
X121867281Y-143879135D01*
X121892147Y-143875560D01*
X121903468Y-143879923D01*
X121912017Y-143880110D01*
X121937960Y-143893218D01*
X121943795Y-143895467D01*
X121945612Y-143896691D01*
X122015978Y-143947815D01*
X122038528Y-143959305D01*
X122044795Y-143963528D01*
X122062461Y-143984836D01*
X122082591Y-144003848D01*
X122084706Y-144011667D01*
X122089389Y-144017316D01*
X122091966Y-144038509D01*
X122099500Y-144066359D01*
X122099500Y-144714069D01*
X122099500Y-144714071D01*
X122099499Y-144714071D01*
X122121274Y-144823532D01*
X122121275Y-144823535D01*
X122124499Y-144839744D01*
X122173535Y-144958127D01*
X122240210Y-145057914D01*
X122244726Y-145064673D01*
X122244727Y-145064674D01*
X123513181Y-146333127D01*
X123546666Y-146394450D01*
X123549500Y-146420808D01*
X123549500Y-152625500D01*
X123529815Y-152692539D01*
X123477011Y-152738294D01*
X123425500Y-152749500D01*
X123416228Y-152749500D01*
X123251925Y-152782182D01*
X123251917Y-152782184D01*
X123097139Y-152846295D01*
X122957837Y-152939373D01*
X122839373Y-153057837D01*
X122746295Y-153197139D01*
X122682184Y-153351917D01*
X122682182Y-153351925D01*
X122649500Y-153516228D01*
X122649500Y-153683771D01*
X122682182Y-153848074D01*
X122682184Y-153848082D01*
X122746295Y-154002860D01*
X122839373Y-154142162D01*
X122957837Y-154260626D01*
X123020035Y-154302185D01*
X123097137Y-154353703D01*
X123251918Y-154417816D01*
X123416228Y-154450499D01*
X123416232Y-154450500D01*
X123416233Y-154450500D01*
X123583768Y-154450500D01*
X123583769Y-154450499D01*
X123748082Y-154417816D01*
X123902863Y-154353703D01*
X124042162Y-154260626D01*
X124051037Y-154251750D01*
X124055632Y-154248554D01*
X124057364Y-154245850D01*
X124076916Y-154233750D01*
X124087024Y-154226720D01*
X124089633Y-154225522D01*
X124089744Y-154225501D01*
X124208127Y-154176465D01*
X124225160Y-154165084D01*
X124314669Y-154105277D01*
X124705277Y-153714669D01*
X124776465Y-153608127D01*
X124825501Y-153489744D01*
X124828650Y-153473914D01*
X124843333Y-153400099D01*
X124850500Y-153364071D01*
X124850500Y-146035928D01*
X124825502Y-145910260D01*
X124825500Y-145910254D01*
X124801974Y-145853457D01*
X124801974Y-145853456D01*
X124776469Y-145791881D01*
X124776468Y-145791880D01*
X124776466Y-145791874D01*
X124747205Y-145748082D01*
X124705278Y-145685332D01*
X124705272Y-145685325D01*
X123436819Y-144416872D01*
X123403334Y-144355549D01*
X123400500Y-144329191D01*
X123400500Y-144066359D01*
X123420185Y-143999320D01*
X123468205Y-143955874D01*
X123469216Y-143955359D01*
X123484022Y-143947815D01*
X123662365Y-143818242D01*
X123818242Y-143662365D01*
X123899682Y-143550270D01*
X123955011Y-143507606D01*
X124024624Y-143501627D01*
X124086420Y-143534232D01*
X124100313Y-143550265D01*
X124140195Y-143605158D01*
X124181758Y-143662365D01*
X124337636Y-143818243D01*
X124337641Y-143818247D01*
X124493190Y-143931259D01*
X124515978Y-143947815D01*
X124641293Y-144011667D01*
X124712393Y-144047895D01*
X124712396Y-144047896D01*
X124730032Y-144053626D01*
X124922049Y-144116015D01*
X125139778Y-144150500D01*
X125139779Y-144150500D01*
X125360221Y-144150500D01*
X125360222Y-144150500D01*
X125577951Y-144116015D01*
X125787606Y-144047895D01*
X125984022Y-143947815D01*
X126162365Y-143818242D01*
X126318242Y-143662365D01*
X126319652Y-143660425D01*
X126359805Y-143605158D01*
X126399991Y-143549845D01*
X126455320Y-143507180D01*
X126524933Y-143501201D01*
X126586728Y-143533806D01*
X126598582Y-143547485D01*
X126598932Y-143547513D01*
X127267037Y-142879408D01*
X127284075Y-142942993D01*
X127349901Y-143057007D01*
X127442993Y-143150099D01*
X127557007Y-143215925D01*
X127620589Y-143232962D01*
X126952485Y-143901065D01*
X126952485Y-143901066D01*
X127016243Y-143947388D01*
X127212589Y-144047432D01*
X127422164Y-144115526D01*
X127639819Y-144150000D01*
X127830691Y-144150000D01*
X127897730Y-144169685D01*
X127943485Y-144222489D01*
X127953429Y-144291647D01*
X127924404Y-144355203D01*
X127918372Y-144361681D01*
X127694727Y-144585325D01*
X127694726Y-144585326D01*
X127694723Y-144585331D01*
X127631393Y-144680112D01*
X127623535Y-144691873D01*
X127623534Y-144691873D01*
X127574499Y-144810255D01*
X127574497Y-144810261D01*
X127549500Y-144935928D01*
X127549500Y-154086356D01*
X127529815Y-154153395D01*
X127513181Y-154174037D01*
X127456346Y-154230871D01*
X127456343Y-154230875D01*
X127357798Y-154378356D01*
X127357791Y-154378369D01*
X127289914Y-154542242D01*
X127289911Y-154542251D01*
X127255308Y-154716214D01*
X127255308Y-154893605D01*
X127289911Y-155067568D01*
X127289914Y-155067577D01*
X127357791Y-155231450D01*
X127357798Y-155231463D01*
X127456343Y-155378944D01*
X127456346Y-155378948D01*
X127581769Y-155504371D01*
X127581773Y-155504374D01*
X127729254Y-155602919D01*
X127729267Y-155602926D01*
X127803788Y-155633793D01*
X127858192Y-155677633D01*
X127880257Y-155743927D01*
X127862978Y-155811627D01*
X127844017Y-155836035D01*
X127494724Y-156185328D01*
X127449038Y-156253702D01*
X127449039Y-156253703D01*
X127423533Y-156291875D01*
X127413237Y-156316732D01*
X127369395Y-156371135D01*
X127303100Y-156393198D01*
X127235401Y-156375918D01*
X127187792Y-156324779D01*
X127177060Y-156293468D01*
X127165895Y-156237341D01*
X127165894Y-156237334D01*
X127122100Y-156131604D01*
X127098016Y-156073459D01*
X127098009Y-156073446D01*
X126999464Y-155925965D01*
X126999461Y-155925961D01*
X126874038Y-155800538D01*
X126874034Y-155800535D01*
X126726553Y-155701990D01*
X126726540Y-155701983D01*
X126562667Y-155634106D01*
X126562658Y-155634103D01*
X126388694Y-155599500D01*
X126388691Y-155599500D01*
X126211309Y-155599500D01*
X126211306Y-155599500D01*
X126037341Y-155634103D01*
X126037332Y-155634106D01*
X125873459Y-155701983D01*
X125873446Y-155701990D01*
X125725965Y-155800535D01*
X125725961Y-155800538D01*
X125600538Y-155925961D01*
X125600535Y-155925965D01*
X125501990Y-156073446D01*
X125501983Y-156073459D01*
X125434106Y-156237332D01*
X125434103Y-156237341D01*
X125399500Y-156411304D01*
X125399500Y-156588695D01*
X125434103Y-156762658D01*
X125434106Y-156762667D01*
X125501984Y-156926542D01*
X125501985Y-156926543D01*
X125501987Y-156926547D01*
X125528602Y-156966378D01*
X125549480Y-157033055D01*
X125549500Y-157035269D01*
X125549500Y-159291265D01*
X125529815Y-159358304D01*
X125513181Y-159378946D01*
X124845796Y-160046331D01*
X124784473Y-160079816D01*
X124714781Y-160074832D01*
X124658848Y-160032960D01*
X124634431Y-159967496D01*
X124636498Y-159934457D01*
X124636689Y-159933501D01*
X124650500Y-159864069D01*
X124650500Y-156094931D01*
X124670185Y-156027892D01*
X124671398Y-156026040D01*
X124753703Y-155902863D01*
X124817816Y-155748082D01*
X124850500Y-155583767D01*
X124850500Y-155416233D01*
X124817816Y-155251918D01*
X124753703Y-155097137D01*
X124704293Y-155023190D01*
X124660626Y-154957837D01*
X124542162Y-154839373D01*
X124402860Y-154746295D01*
X124248082Y-154682184D01*
X124248074Y-154682182D01*
X124083771Y-154649500D01*
X124083767Y-154649500D01*
X123916233Y-154649500D01*
X123916228Y-154649500D01*
X123751925Y-154682182D01*
X123751917Y-154682184D01*
X123597139Y-154746295D01*
X123457837Y-154839373D01*
X123339373Y-154957837D01*
X123246295Y-155097139D01*
X123182184Y-155251917D01*
X123182182Y-155251925D01*
X123149500Y-155416228D01*
X123149500Y-155583771D01*
X123182182Y-155748074D01*
X123182184Y-155748082D01*
X123246295Y-155902860D01*
X123246296Y-155902862D01*
X123246297Y-155902863D01*
X123301403Y-155985335D01*
X123328602Y-156026040D01*
X123349480Y-156092717D01*
X123349500Y-156094931D01*
X123349500Y-159479192D01*
X123329815Y-159546231D01*
X123313181Y-159566873D01*
X118260708Y-164619345D01*
X118199385Y-164652830D01*
X118197219Y-164653281D01*
X118051923Y-164682182D01*
X118051917Y-164682184D01*
X117897139Y-164746295D01*
X117757837Y-164839373D01*
X117639373Y-164957837D01*
X117546295Y-165097139D01*
X117489061Y-165235315D01*
X117445220Y-165289718D01*
X117378925Y-165311783D01*
X117311226Y-165294504D01*
X117263616Y-165243366D01*
X117250500Y-165187862D01*
X117250500Y-156802135D01*
X118599500Y-156802135D01*
X118599500Y-159697870D01*
X118599501Y-159697876D01*
X118605908Y-159757483D01*
X118656202Y-159892328D01*
X118656206Y-159892335D01*
X118742452Y-160007544D01*
X118742455Y-160007547D01*
X118857664Y-160093793D01*
X118857671Y-160093797D01*
X118992517Y-160144091D01*
X118992516Y-160144091D01*
X118999444Y-160144835D01*
X119052127Y-160150500D01*
X121947872Y-160150499D01*
X122007483Y-160144091D01*
X122142331Y-160093796D01*
X122257546Y-160007546D01*
X122343796Y-159892331D01*
X122394091Y-159757483D01*
X122400500Y-159697873D01*
X122400499Y-156802128D01*
X122394091Y-156742517D01*
X122391204Y-156734777D01*
X122343797Y-156607671D01*
X122343793Y-156607664D01*
X122257547Y-156492455D01*
X122257544Y-156492452D01*
X122142335Y-156406206D01*
X122142328Y-156406202D01*
X122007482Y-156355908D01*
X122007483Y-156355908D01*
X121947883Y-156349501D01*
X121947881Y-156349500D01*
X121947873Y-156349500D01*
X121947864Y-156349500D01*
X119052129Y-156349500D01*
X119052123Y-156349501D01*
X118992516Y-156355908D01*
X118857671Y-156406202D01*
X118857664Y-156406206D01*
X118742455Y-156492452D01*
X118742452Y-156492455D01*
X118656206Y-156607664D01*
X118656202Y-156607671D01*
X118605908Y-156742517D01*
X118600127Y-156796297D01*
X118599501Y-156802123D01*
X118599500Y-156802135D01*
X117250500Y-156802135D01*
X117250500Y-136120808D01*
X117259144Y-136091367D01*
X117265668Y-136061381D01*
X117269422Y-136056365D01*
X117270185Y-136053769D01*
X117286819Y-136033127D01*
X117383127Y-135936819D01*
X117444450Y-135903334D01*
X117470808Y-135900500D01*
X117488693Y-135900500D01*
X117488694Y-135900499D01*
X117572813Y-135883767D01*
X117662658Y-135865896D01*
X117662661Y-135865894D01*
X117662666Y-135865894D01*
X117826547Y-135798013D01*
X117974035Y-135699464D01*
X118099464Y-135574035D01*
X118198013Y-135426547D01*
X118217378Y-135379794D01*
X118261217Y-135325392D01*
X118327511Y-135303326D01*
X118395211Y-135320604D01*
G37*
%TD.AperFunction*%
%TA.AperFunction,Conductor*%
G36*
X145268834Y-144053626D02*
G01*
X145324767Y-144095498D01*
X145349184Y-144160962D01*
X145349500Y-144169808D01*
X145349500Y-146947870D01*
X145349501Y-146947876D01*
X145355908Y-147007483D01*
X145406202Y-147142328D01*
X145406206Y-147142335D01*
X145492452Y-147257544D01*
X145492455Y-147257547D01*
X145607664Y-147343793D01*
X145607671Y-147343797D01*
X145742517Y-147394091D01*
X145742516Y-147394091D01*
X145749444Y-147394835D01*
X145802127Y-147400500D01*
X148605500Y-147400499D01*
X148672539Y-147420184D01*
X148718294Y-147472987D01*
X148729500Y-147524499D01*
X148729500Y-149427349D01*
X148709815Y-149494388D01*
X148657011Y-149540143D01*
X148587853Y-149550087D01*
X148524297Y-149521062D01*
X148517819Y-149515030D01*
X148442162Y-149439373D01*
X148302860Y-149346295D01*
X148148082Y-149282184D01*
X148148074Y-149282182D01*
X147983771Y-149249500D01*
X147983767Y-149249500D01*
X147816233Y-149249500D01*
X147816228Y-149249500D01*
X147651925Y-149282182D01*
X147651917Y-149282184D01*
X147497139Y-149346295D01*
X147357837Y-149439373D01*
X147239373Y-149557837D01*
X147146295Y-149697139D01*
X147082184Y-149851917D01*
X147082182Y-149851925D01*
X147049500Y-150016228D01*
X147049500Y-150183771D01*
X147082182Y-150348074D01*
X147082184Y-150348082D01*
X147146295Y-150502860D01*
X147239373Y-150642162D01*
X147357837Y-150760626D01*
X147450494Y-150822537D01*
X147497137Y-150853703D01*
X147651918Y-150917816D01*
X147749692Y-150937264D01*
X147811602Y-150969648D01*
X147846176Y-151030364D01*
X147849500Y-151058881D01*
X147849500Y-161679191D01*
X147829815Y-161746230D01*
X147813181Y-161766872D01*
X147412181Y-162167872D01*
X147350858Y-162201357D01*
X147281166Y-162196373D01*
X147225233Y-162154501D01*
X147200816Y-162089037D01*
X147200500Y-162080191D01*
X147200500Y-159585928D01*
X147175502Y-159460261D01*
X147175501Y-159460260D01*
X147175501Y-159460256D01*
X147126465Y-159341873D01*
X147112399Y-159320821D01*
X147112397Y-159320818D01*
X147112397Y-159320817D01*
X147055275Y-159235328D01*
X147055272Y-159235325D01*
X144932127Y-157112181D01*
X144898642Y-157050858D01*
X144903626Y-156981166D01*
X144945498Y-156925233D01*
X145010962Y-156900816D01*
X145019808Y-156900500D01*
X145110221Y-156900500D01*
X145110222Y-156900500D01*
X145327951Y-156866015D01*
X145537606Y-156797895D01*
X145734022Y-156697815D01*
X145912365Y-156568242D01*
X146068242Y-156412365D01*
X146197815Y-156234022D01*
X146297895Y-156037606D01*
X146366015Y-155827951D01*
X146400500Y-155610222D01*
X146400500Y-155389778D01*
X146366015Y-155172049D01*
X146315388Y-155016233D01*
X146297896Y-154962396D01*
X146297895Y-154962393D01*
X146255508Y-154879206D01*
X146197815Y-154765978D01*
X146180680Y-154742393D01*
X146068247Y-154587641D01*
X146068243Y-154587636D01*
X145912365Y-154431758D01*
X145882002Y-154409698D01*
X145800270Y-154350317D01*
X145757606Y-154294989D01*
X145751627Y-154225376D01*
X145784232Y-154163580D01*
X145800265Y-154149686D01*
X145912365Y-154068242D01*
X146068242Y-153912365D01*
X146197815Y-153734022D01*
X146297895Y-153537606D01*
X146366015Y-153327951D01*
X146400500Y-153110222D01*
X146400500Y-152889778D01*
X146366015Y-152672049D01*
X146297895Y-152462394D01*
X146297895Y-152462393D01*
X146263237Y-152394375D01*
X146197815Y-152265978D01*
X146142428Y-152189744D01*
X146068247Y-152087641D01*
X146068243Y-152087636D01*
X145912363Y-151931756D01*
X145912358Y-151931752D01*
X145734025Y-151802187D01*
X145734024Y-151802186D01*
X145734022Y-151802185D01*
X145632939Y-151750680D01*
X145537606Y-151702104D01*
X145537603Y-151702103D01*
X145327952Y-151633985D01*
X145219086Y-151616742D01*
X145110222Y-151599500D01*
X144889778Y-151599500D01*
X144817201Y-151610995D01*
X144672047Y-151633985D01*
X144462396Y-151702103D01*
X144462393Y-151702104D01*
X144265974Y-151802187D01*
X144087641Y-151931752D01*
X144087636Y-151931756D01*
X143931756Y-152087636D01*
X143931752Y-152087641D01*
X143850318Y-152199727D01*
X143794989Y-152242393D01*
X143725375Y-152248372D01*
X143663580Y-152215767D01*
X143649682Y-152199727D01*
X143568247Y-152087641D01*
X143568243Y-152087636D01*
X143412363Y-151931756D01*
X143412358Y-151931752D01*
X143234025Y-151802187D01*
X143234024Y-151802186D01*
X143234022Y-151802185D01*
X143132939Y-151750680D01*
X143037606Y-151702104D01*
X143037603Y-151702103D01*
X142827952Y-151633985D01*
X142719086Y-151616742D01*
X142610222Y-151599500D01*
X142389778Y-151599500D01*
X142317201Y-151610995D01*
X142172047Y-151633985D01*
X141962396Y-151702103D01*
X141962393Y-151702104D01*
X141765974Y-151802187D01*
X141587641Y-151931752D01*
X141587635Y-151931757D01*
X141566207Y-151953185D01*
X141504884Y-151986669D01*
X141435192Y-151981683D01*
X141379259Y-151939810D01*
X141362346Y-151908834D01*
X141343355Y-151857915D01*
X141343350Y-151857906D01*
X141257190Y-151742812D01*
X141257187Y-151742809D01*
X141142093Y-151656649D01*
X141142086Y-151656645D01*
X141007379Y-151606403D01*
X141007372Y-151606401D01*
X140947844Y-151600000D01*
X140250000Y-151600000D01*
X140250000Y-152566988D01*
X140192993Y-152534075D01*
X140065826Y-152500000D01*
X139934174Y-152500000D01*
X139807007Y-152534075D01*
X139750000Y-152566988D01*
X139750000Y-151600000D01*
X139719308Y-151600000D01*
X139652269Y-151580315D01*
X139606514Y-151527511D01*
X139596570Y-151458353D01*
X139625595Y-151394797D01*
X139631627Y-151388319D01*
X142633273Y-148386673D01*
X142633277Y-148386669D01*
X142704465Y-148280127D01*
X142753501Y-148161743D01*
X142778500Y-148036069D01*
X142778500Y-146492808D01*
X142798185Y-146425769D01*
X142814819Y-146405127D01*
X145137819Y-144082127D01*
X145199142Y-144048642D01*
X145268834Y-144053626D01*
G37*
%TD.AperFunction*%
%TA.AperFunction,Conductor*%
G36*
X138447230Y-147420184D02*
G01*
X138492985Y-147472988D01*
X138502929Y-147542146D01*
X138473904Y-147605702D01*
X138467872Y-147612180D01*
X136918169Y-149161883D01*
X136895591Y-149178630D01*
X136895935Y-149179145D01*
X136784331Y-149253715D01*
X136784324Y-149253721D01*
X136693725Y-149344320D01*
X136692404Y-149346297D01*
X136623447Y-149449500D01*
X136622831Y-149450421D01*
X136622533Y-149450868D01*
X136573498Y-149569249D01*
X136573496Y-149569255D01*
X136548499Y-149694922D01*
X136548499Y-149823065D01*
X136548903Y-149827168D01*
X136549500Y-149839320D01*
X136549500Y-151764071D01*
X136549903Y-151768164D01*
X136550500Y-151780316D01*
X136550500Y-154879206D01*
X136544868Y-154898385D01*
X136544155Y-154918364D01*
X136535225Y-154931225D01*
X136530815Y-154946245D01*
X136515709Y-154959334D01*
X136504307Y-154975757D01*
X136480354Y-154989969D01*
X136478011Y-154992000D01*
X136473954Y-154993767D01*
X136420953Y-155015721D01*
X136351485Y-155023190D01*
X136289005Y-154991916D01*
X136253352Y-154931827D01*
X136249500Y-154901160D01*
X136249500Y-147524499D01*
X136269185Y-147457460D01*
X136321989Y-147411705D01*
X136373495Y-147400499D01*
X138380191Y-147400499D01*
X138447230Y-147420184D01*
G37*
%TD.AperFunction*%
%TA.AperFunction,Conductor*%
G36*
X146868834Y-131753626D02*
G01*
X146924767Y-131795498D01*
X146949184Y-131860962D01*
X146949500Y-131869808D01*
X146949500Y-140379191D01*
X146929815Y-140446230D01*
X146913181Y-140466872D01*
X143362181Y-144017872D01*
X143300858Y-144051357D01*
X143231166Y-144046373D01*
X143175233Y-144004501D01*
X143150816Y-143939037D01*
X143150500Y-143930191D01*
X143150500Y-135420808D01*
X143170185Y-135353769D01*
X143186819Y-135333127D01*
X146737819Y-131782127D01*
X146799142Y-131748642D01*
X146868834Y-131753626D01*
G37*
%TD.AperFunction*%
%TA.AperFunction,Conductor*%
G36*
X127284075Y-140442993D02*
G01*
X127349901Y-140557007D01*
X127442993Y-140650099D01*
X127557007Y-140715925D01*
X127620589Y-140732962D01*
X126952485Y-141401065D01*
X126952581Y-141402279D01*
X126993243Y-141455011D01*
X126999222Y-141524624D01*
X126966617Y-141586419D01*
X126952508Y-141598643D01*
X126952485Y-141598932D01*
X127620590Y-142267037D01*
X127557007Y-142284075D01*
X127442993Y-142349901D01*
X127349901Y-142442993D01*
X127284075Y-142557007D01*
X127267037Y-142620590D01*
X126598932Y-141952485D01*
X126597448Y-141952602D01*
X126545296Y-141992817D01*
X126475682Y-141998796D01*
X126413887Y-141966190D01*
X126399990Y-141950151D01*
X126318247Y-141837641D01*
X126318243Y-141837636D01*
X126162365Y-141681758D01*
X126158941Y-141679270D01*
X126050270Y-141600317D01*
X126007606Y-141544989D01*
X126001627Y-141475376D01*
X126034232Y-141413580D01*
X126050265Y-141399686D01*
X126162365Y-141318242D01*
X126318242Y-141162365D01*
X126399991Y-141049845D01*
X126455320Y-141007180D01*
X126524933Y-141001201D01*
X126586728Y-141033806D01*
X126598582Y-141047485D01*
X126598932Y-141047513D01*
X127267037Y-140379408D01*
X127284075Y-140442993D01*
G37*
%TD.AperFunction*%
%TA.AperFunction,Conductor*%
G36*
X133398695Y-136647011D02*
G01*
X133416231Y-136650499D01*
X133416232Y-136650500D01*
X133416233Y-136650500D01*
X133583768Y-136650500D01*
X133583768Y-136650499D01*
X133601308Y-136647011D01*
X133670900Y-136653238D01*
X133726077Y-136696100D01*
X133749322Y-136761990D01*
X133749500Y-136768628D01*
X133749500Y-141583551D01*
X133729815Y-141650590D01*
X133677011Y-141696345D01*
X133625500Y-141707551D01*
X133616228Y-141707551D01*
X133451925Y-141740233D01*
X133451913Y-141740236D01*
X133421952Y-141752647D01*
X133352483Y-141760116D01*
X133290004Y-141728841D01*
X133254352Y-141668752D01*
X133250500Y-141638086D01*
X133250500Y-136768628D01*
X133270185Y-136701589D01*
X133322989Y-136655834D01*
X133392147Y-136645890D01*
X133398695Y-136647011D01*
G37*
%TD.AperFunction*%
%TA.AperFunction,Conductor*%
G36*
X124946231Y-117870185D02*
G01*
X124966873Y-117886819D01*
X125308324Y-118228269D01*
X125594724Y-118514669D01*
X125641841Y-118561786D01*
X125685332Y-118605277D01*
X125791866Y-118676461D01*
X125791872Y-118676464D01*
X125791873Y-118676465D01*
X125910256Y-118725501D01*
X125910260Y-118725501D01*
X125910261Y-118725502D01*
X126035928Y-118750500D01*
X126035931Y-118750500D01*
X126995755Y-118750500D01*
X127062794Y-118770185D01*
X127064646Y-118771398D01*
X127187824Y-118853703D01*
X127342605Y-118917816D01*
X127506915Y-118950499D01*
X127506919Y-118950500D01*
X127506920Y-118950500D01*
X127674455Y-118950500D01*
X127674456Y-118950499D01*
X127838769Y-118917816D01*
X127993550Y-118853703D01*
X128132849Y-118760626D01*
X128149082Y-118744391D01*
X128210403Y-118710906D01*
X128280095Y-118715889D01*
X128324445Y-118744391D01*
X131813181Y-122233127D01*
X131846666Y-122294450D01*
X131849500Y-122320808D01*
X131849500Y-126164070D01*
X131853418Y-126183768D01*
X131866378Y-126248917D01*
X131874499Y-126289744D01*
X131923535Y-126408127D01*
X131936363Y-126427325D01*
X131941345Y-126440375D01*
X131943045Y-126461836D01*
X131949480Y-126482383D01*
X131949500Y-126484600D01*
X131949500Y-130888428D01*
X131929815Y-130955467D01*
X131877011Y-131001222D01*
X131807853Y-131011166D01*
X131751189Y-130987695D01*
X131720429Y-130964668D01*
X131642331Y-130906204D01*
X131642329Y-130906203D01*
X131642328Y-130906202D01*
X131507482Y-130855908D01*
X131507483Y-130855908D01*
X131447883Y-130849501D01*
X131447881Y-130849500D01*
X131447873Y-130849500D01*
X131447864Y-130849500D01*
X128552129Y-130849500D01*
X128552123Y-130849501D01*
X128492516Y-130855908D01*
X128357671Y-130906202D01*
X128357664Y-130906206D01*
X128242455Y-130992452D01*
X128242452Y-130992455D01*
X128156206Y-131107664D01*
X128156202Y-131107671D01*
X128105908Y-131242517D01*
X128099501Y-131302116D01*
X128099500Y-131302135D01*
X128099500Y-134197870D01*
X128099501Y-134197876D01*
X128105908Y-134257483D01*
X128156202Y-134392328D01*
X128156206Y-134392335D01*
X128242452Y-134507544D01*
X128242455Y-134507547D01*
X128357664Y-134593793D01*
X128357671Y-134593797D01*
X128492517Y-134644091D01*
X128492516Y-134644091D01*
X128499444Y-134644835D01*
X128552127Y-134650500D01*
X131447872Y-134650499D01*
X131507483Y-134644091D01*
X131642331Y-134593796D01*
X131751189Y-134512305D01*
X131816653Y-134487887D01*
X131884926Y-134502738D01*
X131934332Y-134552143D01*
X131949500Y-134611571D01*
X131949500Y-140210522D01*
X131929815Y-140277561D01*
X131877011Y-140323316D01*
X131807853Y-140333260D01*
X131744297Y-140304235D01*
X131737819Y-140298203D01*
X130800323Y-139360708D01*
X130766838Y-139299385D01*
X130766387Y-139297218D01*
X130738783Y-139158446D01*
X130737485Y-139151918D01*
X130678449Y-139009394D01*
X130673373Y-138997139D01*
X130670243Y-138992455D01*
X130612614Y-138906206D01*
X130580295Y-138857837D01*
X130461831Y-138739373D01*
X130322529Y-138646295D01*
X130167751Y-138582184D01*
X130167743Y-138582182D01*
X130003440Y-138549500D01*
X130003436Y-138549500D01*
X129994169Y-138549500D01*
X129927130Y-138529815D01*
X129881375Y-138477011D01*
X129870169Y-138425500D01*
X129870169Y-137655597D01*
X129845171Y-137529930D01*
X129845170Y-137529929D01*
X129845170Y-137529925D01*
X129796134Y-137411542D01*
X129796133Y-137411541D01*
X129796130Y-137411535D01*
X129724946Y-137305001D01*
X129693979Y-137274034D01*
X129634338Y-137214393D01*
X126384013Y-133964068D01*
X122586819Y-130166873D01*
X122553334Y-130105550D01*
X122550500Y-130079192D01*
X122550500Y-129464449D01*
X122570185Y-129397410D01*
X122622989Y-129351655D01*
X122674500Y-129340449D01*
X122783767Y-129340449D01*
X122783768Y-129340448D01*
X122948081Y-129307765D01*
X123102862Y-129243652D01*
X123226040Y-129161347D01*
X123244086Y-129155696D01*
X123259996Y-129145472D01*
X123290957Y-129141020D01*
X123292718Y-129140469D01*
X123294931Y-129140449D01*
X123457400Y-129140449D01*
X123524439Y-129160134D01*
X123570194Y-129212938D01*
X123580138Y-129282096D01*
X123551113Y-129345652D01*
X123545081Y-129352130D01*
X123494401Y-129402809D01*
X123494398Y-129402812D01*
X123401320Y-129542114D01*
X123337209Y-129696892D01*
X123337207Y-129696900D01*
X123304525Y-129861203D01*
X123304525Y-130028746D01*
X123337207Y-130193049D01*
X123337209Y-130193057D01*
X123401320Y-130347835D01*
X123494398Y-130487137D01*
X123612862Y-130605601D01*
X123705519Y-130667512D01*
X123752162Y-130698678D01*
X123906943Y-130762791D01*
X124071253Y-130795474D01*
X124071257Y-130795475D01*
X124071258Y-130795475D01*
X124238793Y-130795475D01*
X124238794Y-130795474D01*
X124403107Y-130762791D01*
X124557888Y-130698678D01*
X124599256Y-130671036D01*
X124673547Y-130621398D01*
X124740224Y-130600520D01*
X124742437Y-130600500D01*
X125564071Y-130600500D01*
X125648615Y-130583682D01*
X125689744Y-130575501D01*
X125808127Y-130526465D01*
X125914669Y-130455277D01*
X129389292Y-126980652D01*
X129450613Y-126947169D01*
X129452665Y-126946740D01*
X129598082Y-126917816D01*
X129752863Y-126853703D01*
X129892162Y-126760626D01*
X130010626Y-126642162D01*
X130103703Y-126502863D01*
X130167816Y-126348082D01*
X130200500Y-126183767D01*
X130200500Y-126016233D01*
X130167816Y-125851918D01*
X130103703Y-125697137D01*
X130044035Y-125607838D01*
X130010626Y-125557837D01*
X129892162Y-125439373D01*
X129752860Y-125346295D01*
X129598082Y-125282184D01*
X129598074Y-125282182D01*
X129433771Y-125249500D01*
X129433767Y-125249500D01*
X129266233Y-125249500D01*
X129266228Y-125249500D01*
X129101925Y-125282182D01*
X129101917Y-125282184D01*
X128947139Y-125346295D01*
X128807837Y-125439373D01*
X128762627Y-125484583D01*
X128701304Y-125518067D01*
X128631612Y-125513082D01*
X128596287Y-125492758D01*
X128592166Y-125489376D01*
X128452860Y-125396295D01*
X128298082Y-125332184D01*
X128298074Y-125332182D01*
X128133771Y-125299500D01*
X128133767Y-125299500D01*
X127966233Y-125299500D01*
X127966228Y-125299500D01*
X127801925Y-125332182D01*
X127801917Y-125332184D01*
X127647139Y-125396295D01*
X127507837Y-125489373D01*
X127389373Y-125607837D01*
X127296295Y-125747139D01*
X127232184Y-125901917D01*
X127232182Y-125901923D01*
X127203281Y-126047219D01*
X127170896Y-126109130D01*
X127169345Y-126110708D01*
X125476924Y-127803130D01*
X125415601Y-127836615D01*
X125389243Y-127839449D01*
X123294931Y-127839449D01*
X123227892Y-127819764D01*
X123226040Y-127818551D01*
X123102859Y-127736244D01*
X122948081Y-127672133D01*
X122948073Y-127672131D01*
X122783770Y-127639449D01*
X122783766Y-127639449D01*
X122674500Y-127639449D01*
X122607461Y-127619764D01*
X122561706Y-127566960D01*
X122550500Y-127515449D01*
X122550500Y-118228269D01*
X122525502Y-118102602D01*
X122525501Y-118102601D01*
X122525501Y-118102597D01*
X122492096Y-118021952D01*
X122484628Y-117952483D01*
X122515903Y-117890004D01*
X122575992Y-117854352D01*
X122606658Y-117850500D01*
X124879192Y-117850500D01*
X124946231Y-117870185D01*
G37*
%TD.AperFunction*%
%TA.AperFunction,Conductor*%
G36*
X122605702Y-132026094D02*
G01*
X122612180Y-132032126D01*
X128532850Y-137952795D01*
X128566335Y-138014118D01*
X128569169Y-138040476D01*
X128569169Y-138893781D01*
X128549484Y-138960820D01*
X128496680Y-139006575D01*
X128427522Y-139016519D01*
X128388874Y-139004266D01*
X128287410Y-138952567D01*
X128077835Y-138884473D01*
X127860181Y-138850000D01*
X127639819Y-138850000D01*
X127422164Y-138884473D01*
X127212589Y-138952567D01*
X127016233Y-139052616D01*
X126952485Y-139098931D01*
X126952485Y-139098932D01*
X127620590Y-139767037D01*
X127557007Y-139784075D01*
X127442993Y-139849901D01*
X127349901Y-139942993D01*
X127284075Y-140057007D01*
X127267037Y-140120590D01*
X126598932Y-139452485D01*
X126597448Y-139452602D01*
X126545296Y-139492817D01*
X126475682Y-139498796D01*
X126413887Y-139466190D01*
X126399990Y-139450151D01*
X126318247Y-139337641D01*
X126318243Y-139337636D01*
X126162363Y-139181756D01*
X126162358Y-139181752D01*
X125984025Y-139052187D01*
X125984024Y-139052186D01*
X125984022Y-139052185D01*
X125900033Y-139009390D01*
X125787606Y-138952104D01*
X125787603Y-138952103D01*
X125577952Y-138883985D01*
X125469086Y-138866742D01*
X125360222Y-138849500D01*
X125139778Y-138849500D01*
X125087134Y-138857838D01*
X124922047Y-138883985D01*
X124712396Y-138952103D01*
X124712393Y-138952104D01*
X124515974Y-139052187D01*
X124337641Y-139181752D01*
X124337635Y-139181757D01*
X124316596Y-139202796D01*
X124255273Y-139236280D01*
X124185581Y-139231294D01*
X124129648Y-139189421D01*
X124112735Y-139158446D01*
X124093797Y-139107671D01*
X124093793Y-139107664D01*
X124007547Y-138992455D01*
X124007544Y-138992452D01*
X123892335Y-138906206D01*
X123892328Y-138906202D01*
X123757482Y-138855908D01*
X123757483Y-138855908D01*
X123697883Y-138849501D01*
X123697881Y-138849500D01*
X123697873Y-138849500D01*
X123697865Y-138849500D01*
X121874500Y-138849500D01*
X121865814Y-138846949D01*
X121856853Y-138848238D01*
X121832812Y-138837259D01*
X121807461Y-138829815D01*
X121801533Y-138822974D01*
X121793297Y-138819213D01*
X121779007Y-138796978D01*
X121761706Y-138777011D01*
X121759418Y-138766496D01*
X121755523Y-138760435D01*
X121750500Y-138725500D01*
X121750500Y-138562229D01*
X121770185Y-138495190D01*
X121786819Y-138474548D01*
X122703816Y-137557551D01*
X123622908Y-136638458D01*
X123663130Y-136611582D01*
X123802863Y-136553703D01*
X123942162Y-136460626D01*
X124060626Y-136342162D01*
X124153703Y-136202863D01*
X124217816Y-136048082D01*
X124250500Y-135883767D01*
X124250500Y-135716233D01*
X124217816Y-135551918D01*
X124153703Y-135397137D01*
X124110933Y-135333127D01*
X124060626Y-135257837D01*
X123942162Y-135139373D01*
X123802860Y-135046295D01*
X123648082Y-134982184D01*
X123648074Y-134982182D01*
X123483771Y-134949500D01*
X123483767Y-134949500D01*
X123316233Y-134949500D01*
X123316228Y-134949500D01*
X123151925Y-134982182D01*
X123151917Y-134982184D01*
X122997139Y-135046295D01*
X122857837Y-135139373D01*
X122739373Y-135257837D01*
X122646296Y-135397137D01*
X122588419Y-135536864D01*
X122561539Y-135577091D01*
X121736777Y-136401854D01*
X121675454Y-136435339D01*
X121605763Y-136430355D01*
X121549829Y-136388483D01*
X121534535Y-136361625D01*
X121498016Y-136273459D01*
X121498009Y-136273446D01*
X121399464Y-136125965D01*
X121399461Y-136125961D01*
X121274038Y-136000538D01*
X121274034Y-136000535D01*
X121126553Y-135901990D01*
X121126540Y-135901983D01*
X120962667Y-135834106D01*
X120962658Y-135834103D01*
X120788694Y-135799500D01*
X120788691Y-135799500D01*
X120770808Y-135799500D01*
X120703769Y-135779815D01*
X120683127Y-135763181D01*
X119782126Y-134862180D01*
X119748641Y-134800857D01*
X119753625Y-134731165D01*
X119795497Y-134675232D01*
X119860961Y-134650815D01*
X119869807Y-134650499D01*
X121947871Y-134650499D01*
X121947872Y-134650499D01*
X122007483Y-134644091D01*
X122142331Y-134593796D01*
X122257546Y-134507546D01*
X122343796Y-134392331D01*
X122394091Y-134257483D01*
X122400500Y-134197873D01*
X122400499Y-132119806D01*
X122420184Y-132052768D01*
X122472987Y-132007013D01*
X122542146Y-131997069D01*
X122605702Y-132026094D01*
G37*
%TD.AperFunction*%
%TA.AperFunction,Conductor*%
G36*
X114131444Y-113153999D02*
G01*
X114170486Y-113199056D01*
X114174951Y-113207820D01*
X114299890Y-113379786D01*
X114450213Y-113530109D01*
X114622179Y-113655048D01*
X114622181Y-113655049D01*
X114622184Y-113655051D01*
X114811588Y-113751557D01*
X115013757Y-113817246D01*
X115223713Y-113850500D01*
X115223714Y-113850500D01*
X115436286Y-113850500D01*
X115436287Y-113850500D01*
X115646243Y-113817246D01*
X115848412Y-113751557D01*
X116037816Y-113655051D01*
X116128763Y-113588974D01*
X116194565Y-113565496D01*
X116262619Y-113581321D01*
X116289326Y-113601613D01*
X121213181Y-118525467D01*
X121246666Y-118586790D01*
X121249500Y-118613148D01*
X121249500Y-121875500D01*
X121229815Y-121942539D01*
X121177011Y-121988294D01*
X121125500Y-121999500D01*
X120966228Y-121999500D01*
X120801925Y-122032182D01*
X120801917Y-122032184D01*
X120647139Y-122096295D01*
X120523959Y-122178602D01*
X120457281Y-122199480D01*
X120455068Y-122199500D01*
X119370807Y-122199500D01*
X119303768Y-122179815D01*
X119283126Y-122163181D01*
X113386819Y-116266873D01*
X113353334Y-116205550D01*
X113350500Y-116179192D01*
X113350500Y-113806099D01*
X113370185Y-113739060D01*
X113418206Y-113695614D01*
X113420420Y-113694486D01*
X113497816Y-113655051D01*
X113584138Y-113592335D01*
X113669786Y-113530109D01*
X113669788Y-113530106D01*
X113669792Y-113530104D01*
X113820104Y-113379792D01*
X113820106Y-113379788D01*
X113820109Y-113379786D01*
X113945048Y-113207820D01*
X113945047Y-113207820D01*
X113945051Y-113207816D01*
X113949514Y-113199054D01*
X113997488Y-113148259D01*
X114065308Y-113131463D01*
X114131444Y-113153999D01*
G37*
%TD.AperFunction*%
%TA.AperFunction,Conductor*%
G36*
X134263181Y-113299628D02*
G01*
X134296666Y-113360951D01*
X134299500Y-113387300D01*
X134299500Y-113397865D01*
X134299501Y-113397876D01*
X134305908Y-113457483D01*
X134356202Y-113592328D01*
X134356206Y-113592335D01*
X134442452Y-113707544D01*
X134442455Y-113707547D01*
X134557664Y-113793793D01*
X134557671Y-113793797D01*
X134692517Y-113844091D01*
X134692516Y-113844091D01*
X134699444Y-113844835D01*
X134752127Y-113850500D01*
X135887769Y-113850499D01*
X135954808Y-113870184D01*
X135975450Y-113886818D01*
X139313181Y-117224548D01*
X139346666Y-117285871D01*
X139349500Y-117312229D01*
X139349500Y-117977756D01*
X139329815Y-118044795D01*
X139277011Y-118090550D01*
X139212247Y-118101045D01*
X139197873Y-118099500D01*
X139197865Y-118099500D01*
X136373500Y-118099500D01*
X136306461Y-118079815D01*
X136260706Y-118027011D01*
X136249500Y-117975500D01*
X136249500Y-117625079D01*
X136220659Y-117480092D01*
X136220658Y-117480091D01*
X136220658Y-117480087D01*
X136220656Y-117480082D01*
X136164087Y-117343511D01*
X136164080Y-117343498D01*
X136081952Y-117220585D01*
X136037014Y-117175647D01*
X135977416Y-117116049D01*
X135846072Y-116984705D01*
X135819191Y-116944473D01*
X135809397Y-116920828D01*
X135809396Y-116920826D01*
X135809394Y-116920821D01*
X135779498Y-116876079D01*
X135721789Y-116789710D01*
X135610292Y-116678213D01*
X135610288Y-116678210D01*
X135479185Y-116590609D01*
X135479172Y-116590602D01*
X135333501Y-116530264D01*
X135333489Y-116530261D01*
X135178845Y-116499500D01*
X135178842Y-116499500D01*
X135021158Y-116499500D01*
X135021155Y-116499500D01*
X134866510Y-116530261D01*
X134866498Y-116530264D01*
X134720827Y-116590602D01*
X134720814Y-116590609D01*
X134589711Y-116678210D01*
X134589707Y-116678213D01*
X134478213Y-116789707D01*
X134478210Y-116789711D01*
X134390609Y-116920814D01*
X134390602Y-116920827D01*
X134373803Y-116961386D01*
X134329962Y-117015790D01*
X134263668Y-117037855D01*
X134195969Y-117020576D01*
X134171561Y-117001615D01*
X131098524Y-113928578D01*
X131065039Y-113867255D01*
X131070023Y-113797563D01*
X131111895Y-113741630D01*
X131129911Y-113730412D01*
X131130500Y-113730112D01*
X131277816Y-113655051D01*
X131364138Y-113592335D01*
X131449786Y-113530109D01*
X131449788Y-113530106D01*
X131449792Y-113530104D01*
X131600104Y-113379792D01*
X131600106Y-113379788D01*
X131600109Y-113379786D01*
X131667515Y-113287007D01*
X131725051Y-113207816D01*
X131729793Y-113198508D01*
X131777763Y-113147711D01*
X131845583Y-113130911D01*
X131911719Y-113153445D01*
X131950763Y-113198500D01*
X131955373Y-113207547D01*
X131994728Y-113261716D01*
X132627037Y-112629408D01*
X132644075Y-112692993D01*
X132709901Y-112807007D01*
X132802993Y-112900099D01*
X132917007Y-112965925D01*
X132980590Y-112982962D01*
X132348282Y-113615269D01*
X132348282Y-113615270D01*
X132402449Y-113654624D01*
X132591782Y-113751095D01*
X132793870Y-113816757D01*
X133003754Y-113850000D01*
X133216246Y-113850000D01*
X133426127Y-113816757D01*
X133426130Y-113816757D01*
X133628217Y-113751095D01*
X133817554Y-113654622D01*
X133871716Y-113615270D01*
X133871717Y-113615270D01*
X133239408Y-112982962D01*
X133302993Y-112965925D01*
X133417007Y-112900099D01*
X133510099Y-112807007D01*
X133575925Y-112692993D01*
X133592962Y-112629408D01*
X134263181Y-113299628D01*
G37*
%TD.AperFunction*%
%TD*%
M02*
