%TF.GenerationSoftware,KiCad,Pcbnew,9.0.8*%
%TF.CreationDate,2026-04-07T13:01:01-04:00*%
%TF.ProjectId,lichen-crustose-control-board,6c696368-656e-42d6-9372-7573746f7365,1.0*%
%TF.SameCoordinates,Original*%
%TF.FileFunction,Legend,Bot*%
%TF.FilePolarity,Positive*%
%FSLAX46Y46*%
G04 Gerber Fmt 4.6, Leading zero omitted, Abs format (unit mm)*
G04 Created by KiCad (PCBNEW 9.0.8) date 2026-04-07 13:01:01*
%MOMM*%
%LPD*%
G01*
G04 APERTURE LIST*
G04 Aperture macros list*
%AMRoundRect*
0 Rectangle with rounded corners*
0 $1 Rounding radius*
0 $2 $3 $4 $5 $6 $7 $8 $9 X,Y pos of 4 corners*
0 Add a 4 corners polygon primitive as box body*
4,1,4,$2,$3,$4,$5,$6,$7,$8,$9,$2,$3,0*
0 Add four circle primitives for the rounded corners*
1,1,$1+$1,$2,$3*
1,1,$1+$1,$4,$5*
1,1,$1+$1,$6,$7*
1,1,$1+$1,$8,$9*
0 Add four rect primitives between the rounded corners*
20,1,$1+$1,$2,$3,$4,$5,0*
20,1,$1+$1,$4,$5,$6,$7,0*
20,1,$1+$1,$6,$7,$8,$9,0*
20,1,$1+$1,$8,$9,$2,$3,0*%
G04 Aperture macros list end*
%ADD10C,0.550000*%
%ADD11C,0.250000*%
%ADD12C,0.300000*%
%ADD13C,0.150000*%
%ADD14C,0.200000*%
%ADD15C,0.120000*%
%ADD16C,0.125000*%
%ADD17C,0.325000*%
%ADD18RoundRect,0.076200X-1.558000X1.558000X-1.558000X-1.558000X1.558000X-1.558000X1.558000X1.558000X0*%
%ADD19RoundRect,0.076200X-0.825000X0.825000X-0.825000X-0.825000X0.825000X-0.825000X0.825000X0.825000X0*%
%ADD20C,1.802400*%
%ADD21RoundRect,0.076200X-1.400000X1.400000X-1.400000X-1.400000X1.400000X-1.400000X1.400000X1.400000X0*%
%ADD22R,1.800000X1.800000*%
%ADD23C,1.800000*%
%ADD24R,2.000000X2.000000*%
%ADD25C,2.000000*%
%ADD26C,4.400000*%
%ADD27R,1.000000X1.000000*%
%ADD28RoundRect,0.150000X0.825000X0.150000X-0.825000X0.150000X-0.825000X-0.150000X0.825000X-0.150000X0*%
%ADD29R,0.470000X0.530000*%
%ADD30RoundRect,0.249630X0.895370X0.535370X-0.895370X0.535370X-0.895370X-0.535370X0.895370X-0.535370X0*%
%ADD31O,2.290000X1.570000*%
%ADD32R,2.700000X1.070000*%
%ADD33R,0.530000X0.470000*%
%ADD34RoundRect,0.249630X-0.895370X-0.535370X0.895370X-0.535370X0.895370X0.535370X-0.895370X0.535370X0*%
%ADD35RoundRect,0.150000X-0.150000X0.825000X-0.150000X-0.825000X0.150000X-0.825000X0.150000X0.825000X0*%
%ADD36R,1.700000X1.700000*%
%ADD37C,1.700000*%
G04 APERTURE END LIST*
D10*
X135925000Y-114700000D02*
G75*
G02*
X135375000Y-114700000I-275000J0D01*
G01*
X135375000Y-114700000D02*
G75*
G02*
X135925000Y-114700000I275000J0D01*
G01*
D11*
G36*
X132060362Y-127767863D02*
G01*
X131562106Y-127767863D01*
X131562106Y-127254953D01*
X131220166Y-127254953D01*
X131220166Y-128578750D01*
X131562106Y-128578750D01*
X131562106Y-128036530D01*
X132060362Y-128036530D01*
X132060362Y-128578750D01*
X132402302Y-128578750D01*
X132402302Y-127254953D01*
X132060362Y-127254953D01*
X132060362Y-127767863D01*
G37*
G36*
X130621960Y-127654663D02*
G01*
X130717636Y-127680012D01*
X130803447Y-127721933D01*
X130874181Y-127777404D01*
X130913681Y-127822094D01*
X130946898Y-127873046D01*
X130973939Y-127930972D01*
X130992994Y-127992149D01*
X131004808Y-128059454D01*
X131008896Y-128133770D01*
X131004623Y-128205542D01*
X130992241Y-128270761D01*
X130972183Y-128330309D01*
X130927570Y-128412217D01*
X130868075Y-128481281D01*
X130794807Y-128536680D01*
X130706264Y-128578673D01*
X130608493Y-128604116D01*
X130498047Y-128612943D01*
X130390253Y-128605597D01*
X130300163Y-128585028D01*
X130224812Y-128552778D01*
X130161811Y-128509433D01*
X130109478Y-128454586D01*
X130066974Y-128386866D01*
X130034367Y-128304053D01*
X130339518Y-128304053D01*
X130369121Y-128341175D01*
X130404056Y-128366977D01*
X130445311Y-128382719D01*
X130494689Y-128388240D01*
X130555925Y-128381962D01*
X130602351Y-128364848D01*
X130637478Y-128338076D01*
X130663356Y-128300846D01*
X130680231Y-128250532D01*
X130686496Y-128183076D01*
X130022155Y-128183076D01*
X130022155Y-128149722D01*
X130030826Y-128035769D01*
X130040484Y-127997452D01*
X130316849Y-127997452D01*
X130677794Y-127997452D01*
X130665361Y-127953138D01*
X130645869Y-127917616D01*
X130619405Y-127889298D01*
X130586645Y-127868469D01*
X130547388Y-127855503D01*
X130499955Y-127850906D01*
X130454895Y-127855557D01*
X130415808Y-127868971D01*
X130381421Y-127891053D01*
X130352751Y-127920441D01*
X130331304Y-127955561D01*
X130316849Y-127997452D01*
X130040484Y-127997452D01*
X130055433Y-127938146D01*
X130081379Y-127877748D01*
X130113433Y-127825058D01*
X130151604Y-127779236D01*
X130196221Y-127739668D01*
X130247285Y-127706631D01*
X130305553Y-127680012D01*
X130400219Y-127654648D01*
X130510259Y-127645742D01*
X130621960Y-127654663D01*
G37*
G36*
X129492806Y-127654972D02*
G01*
X129553194Y-127667655D01*
X129609156Y-127688408D01*
X129685963Y-127733171D01*
X129750893Y-127791219D01*
X129803493Y-127861156D01*
X129843629Y-127943107D01*
X129868454Y-128032048D01*
X129876830Y-128126671D01*
X129868100Y-128227553D01*
X129842713Y-128318249D01*
X129801514Y-128400830D01*
X129747382Y-128471054D01*
X129680969Y-128528741D01*
X129603965Y-128572033D01*
X129518717Y-128598859D01*
X129423684Y-128608059D01*
X129339726Y-128599623D01*
X129267423Y-128575400D01*
X129204358Y-128535739D01*
X129148987Y-128479297D01*
X129148987Y-128578750D01*
X128831471Y-128578750D01*
X128831471Y-128130259D01*
X129138454Y-128130259D01*
X129142672Y-128171355D01*
X129155169Y-128209485D01*
X129174605Y-128244380D01*
X129199133Y-128274667D01*
X129228775Y-128299636D01*
X129264086Y-128318707D01*
X129302818Y-128330530D01*
X129343999Y-128334507D01*
X129386705Y-128330490D01*
X129425668Y-128318707D01*
X129460993Y-128299639D01*
X129490698Y-128274667D01*
X129514925Y-128244208D01*
X129533746Y-128208569D01*
X129545527Y-128169520D01*
X129549545Y-128126671D01*
X129545529Y-128085662D01*
X129533746Y-128048361D01*
X129515021Y-128014149D01*
X129490698Y-127984018D01*
X129460990Y-127959063D01*
X129425668Y-127940054D01*
X129386701Y-127928214D01*
X129343999Y-127924179D01*
X129302821Y-127928174D01*
X129264086Y-127940054D01*
X129228778Y-127959067D01*
X129199133Y-127984018D01*
X129174663Y-128014388D01*
X129155169Y-128050040D01*
X129142656Y-128088910D01*
X129138454Y-128130259D01*
X128831471Y-128130259D01*
X128831471Y-127679936D01*
X129148987Y-127679936D01*
X129148987Y-127768932D01*
X129207906Y-127717031D01*
X129272955Y-127680498D01*
X129345427Y-127658290D01*
X129427195Y-127650627D01*
X129492806Y-127654972D01*
G37*
G36*
X127922888Y-127768092D02*
G01*
X127981755Y-127716596D01*
X128046787Y-127680315D01*
X128119279Y-127658245D01*
X128201096Y-127650627D01*
X128266714Y-127654959D01*
X128327420Y-127667630D01*
X128383972Y-127688408D01*
X128461484Y-127733223D01*
X128526549Y-127791219D01*
X128578943Y-127861188D01*
X128618369Y-127943107D01*
X128642561Y-128032013D01*
X128650731Y-128126671D01*
X128642037Y-128226024D01*
X128616614Y-128316494D01*
X128575415Y-128399074D01*
X128521283Y-128469298D01*
X128454906Y-128527189D01*
X128377866Y-128571193D01*
X128321966Y-128591477D01*
X128262113Y-128603837D01*
X128197585Y-128608059D01*
X128113627Y-128599623D01*
X128041324Y-128575400D01*
X127978259Y-128535739D01*
X127922888Y-128479297D01*
X127922888Y-128578750D01*
X127605372Y-128578750D01*
X127605372Y-128130259D01*
X127912355Y-128130259D01*
X127916573Y-128171355D01*
X127929070Y-128209485D01*
X127948506Y-128244380D01*
X127973034Y-128274667D01*
X128002676Y-128299636D01*
X128037987Y-128318707D01*
X128076718Y-128330530D01*
X128117900Y-128334507D01*
X128160606Y-128330490D01*
X128199569Y-128318707D01*
X128234894Y-128299639D01*
X128264599Y-128274667D01*
X128288825Y-128244208D01*
X128307646Y-128208569D01*
X128319427Y-128169520D01*
X128323446Y-128126671D01*
X128319207Y-128085707D01*
X128306731Y-128048361D01*
X128287353Y-128014115D01*
X128262843Y-127984018D01*
X128233136Y-127959063D01*
X128197814Y-127940054D01*
X128159079Y-127928174D01*
X128117900Y-127924179D01*
X128076722Y-127928174D01*
X128037987Y-127940054D01*
X128002679Y-127959067D01*
X127973034Y-127984018D01*
X127948564Y-128014388D01*
X127929070Y-128050040D01*
X127916557Y-128088910D01*
X127912355Y-128130259D01*
X127605372Y-128130259D01*
X127605372Y-127123062D01*
X127922888Y-127123062D01*
X127922888Y-127768092D01*
G37*
G36*
X127037696Y-127654663D02*
G01*
X127133373Y-127680012D01*
X127219183Y-127721933D01*
X127289917Y-127777404D01*
X127329417Y-127822094D01*
X127362634Y-127873046D01*
X127389675Y-127930972D01*
X127408731Y-127992149D01*
X127420544Y-128059454D01*
X127424632Y-128133770D01*
X127420359Y-128205542D01*
X127407978Y-128270761D01*
X127387920Y-128330309D01*
X127343306Y-128412217D01*
X127283811Y-128481281D01*
X127210544Y-128536680D01*
X127122000Y-128578673D01*
X127024230Y-128604116D01*
X126913783Y-128612943D01*
X126805989Y-128605597D01*
X126715899Y-128585028D01*
X126640549Y-128552778D01*
X126577547Y-128509433D01*
X126525214Y-128454586D01*
X126482710Y-128386866D01*
X126450103Y-128304053D01*
X126755254Y-128304053D01*
X126784858Y-128341175D01*
X126819792Y-128366977D01*
X126861047Y-128382719D01*
X126910425Y-128388240D01*
X126971661Y-128381962D01*
X127018087Y-128364848D01*
X127053215Y-128338076D01*
X127079092Y-128300846D01*
X127095967Y-128250532D01*
X127102232Y-128183076D01*
X126437891Y-128183076D01*
X126437891Y-128149722D01*
X126446563Y-128035769D01*
X126456221Y-127997452D01*
X126732585Y-127997452D01*
X127093531Y-127997452D01*
X127081097Y-127953138D01*
X127061605Y-127917616D01*
X127035141Y-127889298D01*
X127002381Y-127868469D01*
X126963124Y-127855503D01*
X126915691Y-127850906D01*
X126870632Y-127855557D01*
X126831544Y-127868971D01*
X126797157Y-127891053D01*
X126768487Y-127920441D01*
X126747040Y-127955561D01*
X126732585Y-127997452D01*
X126456221Y-127997452D01*
X126471169Y-127938146D01*
X126497116Y-127877748D01*
X126529169Y-127825058D01*
X126567340Y-127779236D01*
X126611958Y-127739668D01*
X126663021Y-127706631D01*
X126721289Y-127680012D01*
X126815955Y-127654648D01*
X126925995Y-127645742D01*
X127037696Y-127654663D01*
G37*
G36*
X126258373Y-127679936D02*
G01*
X125940857Y-127679936D01*
X125940857Y-127828084D01*
X125903758Y-127777197D01*
X125862494Y-127736064D01*
X125816827Y-127703673D01*
X125766267Y-127680026D01*
X125709574Y-127665455D01*
X125645476Y-127660396D01*
X125618380Y-127660396D01*
X125584262Y-127663984D01*
X125584262Y-127968906D01*
X125649493Y-127945403D01*
X125720657Y-127937459D01*
X125791117Y-127945520D01*
X125844830Y-127967694D01*
X125885826Y-128003023D01*
X125914841Y-128049871D01*
X125933827Y-128112150D01*
X125940857Y-128194372D01*
X125940857Y-128578750D01*
X126258373Y-128578750D01*
X126258373Y-127679936D01*
G37*
G36*
X124341726Y-127659092D02*
G01*
X124414416Y-127683364D01*
X124477578Y-127723030D01*
X124532797Y-127779388D01*
X124532797Y-127679936D01*
X124850313Y-127679936D01*
X124850313Y-129028156D01*
X124532797Y-129028156D01*
X124532797Y-128492349D01*
X124473333Y-128543065D01*
X124407895Y-128578820D01*
X124335222Y-128600562D01*
X124253521Y-128608059D01*
X124160296Y-128598693D01*
X124075529Y-128571193D01*
X123998800Y-128527151D01*
X123933257Y-128469298D01*
X123879826Y-128399413D01*
X123838995Y-128318249D01*
X123813627Y-128229534D01*
X123804953Y-128132014D01*
X124137124Y-128132014D01*
X124141262Y-128171596D01*
X124153686Y-128209485D01*
X124172865Y-128244397D01*
X124197039Y-128274667D01*
X124226226Y-128299701D01*
X124260390Y-128318707D01*
X124297892Y-128330508D01*
X124338548Y-128334507D01*
X124379158Y-128330311D01*
X124417469Y-128317791D01*
X124452597Y-128298295D01*
X124482575Y-128273751D01*
X124507186Y-128244141D01*
X124525928Y-128209485D01*
X124537616Y-128171405D01*
X124541574Y-128130259D01*
X124537446Y-128088895D01*
X124525164Y-128050040D01*
X124505912Y-128014375D01*
X124481735Y-127984018D01*
X124452495Y-127958993D01*
X124418384Y-127940054D01*
X124380813Y-127928194D01*
X124340150Y-127924179D01*
X124298018Y-127928417D01*
X124259474Y-127940894D01*
X124224419Y-127960565D01*
X124194444Y-127985774D01*
X124169993Y-128016255D01*
X124151931Y-128051796D01*
X124140862Y-128090579D01*
X124137124Y-128132014D01*
X123804953Y-128132014D01*
X123813593Y-128034195D01*
X123838995Y-127944023D01*
X123880127Y-127861389D01*
X123934173Y-127791219D01*
X124000508Y-127733132D01*
X124078124Y-127688408D01*
X124134440Y-127667535D01*
X124193855Y-127654911D01*
X124257032Y-127650627D01*
X124341726Y-127659092D01*
G37*
G36*
X123306698Y-127679936D02*
G01*
X123306698Y-128578750D01*
X123624214Y-128578750D01*
X123624214Y-127679936D01*
X123306698Y-127679936D01*
G37*
G36*
X123643753Y-127335553D02*
G01*
X123640225Y-127299768D01*
X123629785Y-127266555D01*
X123613101Y-127236091D01*
X123591317Y-127209692D01*
X123564910Y-127187865D01*
X123534454Y-127171224D01*
X123501186Y-127160781D01*
X123465456Y-127157256D01*
X123429671Y-127160784D01*
X123396457Y-127171224D01*
X123366015Y-127187868D01*
X123339671Y-127209692D01*
X123317843Y-127236099D01*
X123301202Y-127266555D01*
X123290705Y-127299772D01*
X123287158Y-127335553D01*
X123290704Y-127371346D01*
X123301202Y-127404628D01*
X123317839Y-127435020D01*
X123339671Y-127461415D01*
X123366007Y-127483195D01*
X123396457Y-127499883D01*
X123429671Y-127510322D01*
X123465456Y-127513851D01*
X123501186Y-127510326D01*
X123534454Y-127499883D01*
X123564918Y-127483199D01*
X123591317Y-127461415D01*
X123613105Y-127435028D01*
X123629785Y-127404628D01*
X123640226Y-127371349D01*
X123643753Y-127335553D01*
G37*
G36*
X123090543Y-127679936D02*
G01*
X122773027Y-127679936D01*
X122773027Y-127793814D01*
X122726913Y-127744314D01*
X122683370Y-127709799D01*
X122641823Y-127687645D01*
X122571719Y-127667588D01*
X122485966Y-127660396D01*
X122395736Y-127668552D01*
X122324078Y-127691079D01*
X122261653Y-127728167D01*
X122209437Y-127777862D01*
X122176935Y-127826259D01*
X122156925Y-127879528D01*
X122146595Y-127937700D01*
X122142881Y-128007450D01*
X122142881Y-128578750D01*
X122460396Y-128578750D01*
X122460396Y-128124916D01*
X122463117Y-128061533D01*
X122470090Y-128017220D01*
X122483845Y-127979347D01*
X122504131Y-127951503D01*
X122526577Y-127933443D01*
X122551301Y-127921736D01*
X122607095Y-127912959D01*
X122658548Y-127918816D01*
X122698734Y-127935084D01*
X122730285Y-127961197D01*
X122753031Y-127995746D01*
X122767670Y-128040584D01*
X122773027Y-128098660D01*
X122773027Y-128578750D01*
X123090543Y-128578750D01*
X123090543Y-127679936D01*
G37*
G36*
X121331537Y-127911203D02*
G01*
X121391278Y-127885271D01*
X121448358Y-127870389D01*
X121503575Y-127865560D01*
X121544689Y-127870299D01*
X121574711Y-127883115D01*
X121595238Y-127904002D01*
X121601883Y-127930514D01*
X121597532Y-127955930D01*
X121578222Y-127974325D01*
X121534334Y-127990201D01*
X121458009Y-128007756D01*
X121372855Y-128031632D01*
X121308712Y-128063242D01*
X121261393Y-128101560D01*
X121225732Y-128149966D01*
X121204031Y-128206767D01*
X121196440Y-128274362D01*
X121204540Y-128350315D01*
X121227962Y-128416404D01*
X121265617Y-128474493D01*
X121315584Y-128522574D01*
X121376025Y-128560078D01*
X121450452Y-128589206D01*
X121531665Y-128606801D01*
X121623788Y-128612943D01*
X121712920Y-128606757D01*
X121801954Y-128588052D01*
X121891662Y-128556274D01*
X121982749Y-128510438D01*
X121867344Y-128286803D01*
X121775013Y-128339976D01*
X121691378Y-128369257D01*
X121614171Y-128378470D01*
X121573011Y-128373304D01*
X121542120Y-128359084D01*
X121520745Y-128336618D01*
X121513955Y-128309777D01*
X121518382Y-128280697D01*
X121536853Y-128259555D01*
X121578145Y-128242000D01*
X121649281Y-128225208D01*
X121746217Y-128199122D01*
X121812478Y-128169011D01*
X121855666Y-128136288D01*
X121887501Y-128093560D01*
X121907384Y-128040255D01*
X121914514Y-127973333D01*
X121907295Y-127900315D01*
X121886502Y-127836862D01*
X121852340Y-127780784D01*
X121805902Y-127733898D01*
X121749046Y-127697045D01*
X121678972Y-127668716D01*
X121601940Y-127651713D01*
X121513345Y-127645742D01*
X121415299Y-127652164D01*
X121319235Y-127671405D01*
X121224375Y-127703750D01*
X121331537Y-127911203D01*
G37*
G36*
X119955807Y-127227720D02*
G01*
X120033538Y-127248008D01*
X120104756Y-127280877D01*
X120164437Y-127323494D01*
X120213805Y-127376324D01*
X120251373Y-127438517D01*
X120274984Y-127507460D01*
X120282971Y-127582468D01*
X120277265Y-127637568D01*
X120259408Y-127695846D01*
X120227636Y-127758478D01*
X120179397Y-127826558D01*
X120156194Y-127852890D01*
X120193060Y-127870369D01*
X120302587Y-127929216D01*
X120345158Y-127960892D01*
X120384103Y-127998520D01*
X120426698Y-128053407D01*
X120453331Y-128108124D01*
X120468187Y-128167677D01*
X120473481Y-128238870D01*
X120465468Y-128318706D01*
X120442035Y-128390606D01*
X120404356Y-128455353D01*
X120354489Y-128510819D01*
X120293882Y-128555583D01*
X120221529Y-128589740D01*
X120141943Y-128610589D01*
X120051857Y-128617828D01*
X119947284Y-128608829D01*
X119837921Y-128580956D01*
X119722201Y-128532168D01*
X119598634Y-128459528D01*
X119482160Y-128580887D01*
X119054964Y-128580887D01*
X119348895Y-128266271D01*
X119334017Y-128252304D01*
X119786700Y-128252304D01*
X119850003Y-128285446D01*
X119909264Y-128304105D01*
X119965685Y-128310082D01*
X119996210Y-128307625D01*
X120023921Y-128300465D01*
X120071701Y-128274209D01*
X120090385Y-128255811D01*
X120104750Y-128233909D01*
X120113811Y-128209315D01*
X120116886Y-128182160D01*
X120110838Y-128147995D01*
X120091270Y-128111850D01*
X120054170Y-128072145D01*
X119993467Y-128027829D01*
X119786700Y-128252304D01*
X119334017Y-128252304D01*
X119322715Y-128241694D01*
X119236086Y-128155064D01*
X119168690Y-128073625D01*
X119362939Y-127886168D01*
X119436504Y-127974943D01*
X119535512Y-128075609D01*
X119702742Y-127900212D01*
X119637236Y-127863953D01*
X119587185Y-127830832D01*
X119543868Y-127794793D01*
X119511317Y-127758857D01*
X119486194Y-127719458D01*
X119469795Y-127678104D01*
X119460650Y-127633630D01*
X119457431Y-127582391D01*
X119458075Y-127576209D01*
X119730983Y-127576209D01*
X119737511Y-127617484D01*
X119757790Y-127657897D01*
X119794634Y-127698863D01*
X119852875Y-127741073D01*
X119917137Y-127661445D01*
X119947483Y-127605287D01*
X119955686Y-127565676D01*
X119947717Y-127521988D01*
X119924316Y-127486831D01*
X119889310Y-127463244D01*
X119845929Y-127455232D01*
X119813848Y-127459344D01*
X119786667Y-127471231D01*
X119763192Y-127491182D01*
X119739069Y-127530323D01*
X119730983Y-127576209D01*
X119458075Y-127576209D01*
X119465237Y-127507474D01*
X119488190Y-127439357D01*
X119524940Y-127377795D01*
X119574209Y-127324334D01*
X119633951Y-127281055D01*
X119705108Y-127248008D01*
X119783063Y-127227754D01*
X119870201Y-127220759D01*
X119955807Y-127227720D01*
G37*
G36*
X133513835Y-129779936D02*
G01*
X133300275Y-130240715D01*
X133083281Y-129779936D01*
X132729816Y-129779936D01*
X133197083Y-130678750D01*
X133408811Y-130678750D01*
X133870812Y-129779936D01*
X133513835Y-129779936D01*
G37*
G36*
X132316864Y-129754972D02*
G01*
X132377252Y-129767655D01*
X132433213Y-129788408D01*
X132510021Y-129833171D01*
X132574951Y-129891219D01*
X132627550Y-129961156D01*
X132667687Y-130043107D01*
X132692512Y-130132048D01*
X132700888Y-130226671D01*
X132692157Y-130327553D01*
X132666771Y-130418249D01*
X132625572Y-130500830D01*
X132571440Y-130571054D01*
X132505027Y-130628741D01*
X132428023Y-130672033D01*
X132342775Y-130698859D01*
X132247741Y-130708059D01*
X132163783Y-130699623D01*
X132091481Y-130675400D01*
X132028415Y-130635739D01*
X131973045Y-130579297D01*
X131973045Y-130678750D01*
X131655529Y-130678750D01*
X131655529Y-130230259D01*
X131962512Y-130230259D01*
X131966730Y-130271355D01*
X131979227Y-130309485D01*
X131998662Y-130344380D01*
X132023191Y-130374667D01*
X132052833Y-130399636D01*
X132088144Y-130418707D01*
X132126875Y-130430530D01*
X132168057Y-130434507D01*
X132210763Y-130430490D01*
X132249726Y-130418707D01*
X132285051Y-130399639D01*
X132314756Y-130374667D01*
X132338982Y-130344208D01*
X132357803Y-130308569D01*
X132369584Y-130269520D01*
X132373603Y-130226671D01*
X132369587Y-130185662D01*
X132357803Y-130148361D01*
X132339079Y-130114149D01*
X132314756Y-130084018D01*
X132285048Y-130059063D01*
X132249726Y-130040054D01*
X132210759Y-130028214D01*
X132168057Y-130024179D01*
X132126879Y-130028174D01*
X132088144Y-130040054D01*
X132052836Y-130059067D01*
X132023191Y-130084018D01*
X131998721Y-130114388D01*
X131979227Y-130150040D01*
X131966714Y-130188910D01*
X131962512Y-130230259D01*
X131655529Y-130230259D01*
X131655529Y-129779936D01*
X131973045Y-129779936D01*
X131973045Y-129868932D01*
X132031964Y-129817031D01*
X132097012Y-129780498D01*
X132169484Y-129758290D01*
X132251252Y-129750627D01*
X132316864Y-129754972D01*
G37*
G36*
X130761600Y-130070737D02*
G01*
X130818770Y-130038655D01*
X130874204Y-130020357D01*
X130928983Y-130014409D01*
X130973669Y-130018429D01*
X131014468Y-130030208D01*
X131051763Y-130049384D01*
X131084077Y-130075088D01*
X131110628Y-130106673D01*
X131130788Y-130143781D01*
X131143182Y-130185064D01*
X131147504Y-130232701D01*
X131143223Y-130278739D01*
X131130788Y-130319789D01*
X131110795Y-130356943D01*
X131084917Y-130388406D01*
X131053232Y-130413973D01*
X131015384Y-130433285D01*
X130973794Y-130445142D01*
X130928983Y-130449161D01*
X130871159Y-130442484D01*
X130815784Y-130422346D01*
X130761600Y-130387566D01*
X130761600Y-130657302D01*
X130841153Y-130686275D01*
X130915015Y-130702768D01*
X130984166Y-130708059D01*
X131080266Y-130699647D01*
X131170783Y-130674704D01*
X131254268Y-130633933D01*
X131326717Y-130578992D01*
X131387125Y-130510808D01*
X131434489Y-130429622D01*
X131456583Y-130370408D01*
X131470132Y-130306012D01*
X131474789Y-130235525D01*
X131470347Y-130164851D01*
X131457394Y-130099812D01*
X131436245Y-130039596D01*
X131390407Y-129956629D01*
X131331144Y-129886792D01*
X131258813Y-129830103D01*
X131172539Y-129786653D01*
X131077971Y-129759766D01*
X130975465Y-129750627D01*
X130899508Y-129756212D01*
X130828530Y-129772651D01*
X130761600Y-129799857D01*
X130761600Y-130070737D01*
G37*
G36*
X130231593Y-130043718D02*
G01*
X130231593Y-130678750D01*
X130549109Y-130678750D01*
X130549109Y-130043718D01*
X130651691Y-130043718D01*
X130651691Y-129779936D01*
X130549109Y-129779936D01*
X130549109Y-129511269D01*
X130231593Y-129511269D01*
X130231593Y-129779936D01*
X130050853Y-129779936D01*
X130050853Y-130043718D01*
X130231593Y-130043718D01*
G37*
G36*
X129931174Y-129779936D02*
G01*
X129613659Y-129779936D01*
X129613659Y-129928084D01*
X129576560Y-129877197D01*
X129535296Y-129836064D01*
X129489629Y-129803673D01*
X129439068Y-129780026D01*
X129382376Y-129765455D01*
X129318277Y-129760396D01*
X129291182Y-129760396D01*
X129257064Y-129763984D01*
X129257064Y-130068906D01*
X129322294Y-130045403D01*
X129393458Y-130037459D01*
X129463919Y-130045520D01*
X129517631Y-130067694D01*
X129558628Y-130103023D01*
X129587643Y-130149871D01*
X129606629Y-130212150D01*
X129613659Y-130294372D01*
X129613659Y-130678750D01*
X129931174Y-130678750D01*
X129931174Y-129779936D01*
G37*
G36*
X128682541Y-129749990D02*
G01*
X128754252Y-129762389D01*
X128821014Y-129782607D01*
X128913964Y-129826853D01*
X128991450Y-129883586D01*
X129055225Y-129953361D01*
X129103267Y-130034483D01*
X129125515Y-130093520D01*
X129138942Y-130155596D01*
X129143491Y-130221405D01*
X129138841Y-130294318D01*
X129125312Y-130361033D01*
X129103267Y-130422447D01*
X129072849Y-130480211D01*
X129035935Y-130531804D01*
X128992290Y-130577770D01*
X128942725Y-130617298D01*
X128886762Y-130650643D01*
X128823686Y-130677834D01*
X128722747Y-130703941D01*
X128610355Y-130712943D01*
X128496148Y-130703961D01*
X128392750Y-130677834D01*
X128327842Y-130650623D01*
X128270741Y-130617534D01*
X128220635Y-130578610D01*
X128156726Y-130508577D01*
X128107902Y-130425958D01*
X128085290Y-130365669D01*
X128071487Y-130300721D01*
X128066762Y-130230259D01*
X128066882Y-130228427D01*
X128400993Y-130228427D01*
X128405198Y-130271162D01*
X128417556Y-130310172D01*
X128436895Y-130345765D01*
X128461214Y-130376117D01*
X128490698Y-130401076D01*
X128525786Y-130420081D01*
X128564215Y-130431904D01*
X128605088Y-130435881D01*
X128645973Y-130431905D01*
X128684467Y-130420081D01*
X128719504Y-130401084D01*
X128749039Y-130376117D01*
X128773315Y-130345773D01*
X128792697Y-130310172D01*
X128805014Y-130270933D01*
X128809260Y-130226671D01*
X128805077Y-130185656D01*
X128792697Y-130147674D01*
X128773365Y-130112780D01*
X128749039Y-130082568D01*
X128719504Y-130057601D01*
X128684467Y-130038604D01*
X128645973Y-130026780D01*
X128605088Y-130022805D01*
X128564215Y-130026782D01*
X128525786Y-130038604D01*
X128490698Y-130057610D01*
X128461214Y-130082568D01*
X128436895Y-130112921D01*
X128417556Y-130148514D01*
X128405155Y-130187280D01*
X128400993Y-130228427D01*
X128066882Y-130228427D01*
X128071388Y-130159706D01*
X128084892Y-130094728D01*
X128106986Y-130034483D01*
X128137475Y-129978001D01*
X128174941Y-129927283D01*
X128219719Y-129881831D01*
X128297932Y-129825262D01*
X128390994Y-129781768D01*
X128492699Y-129754955D01*
X128605165Y-129745742D01*
X128682541Y-129749990D01*
G37*
G36*
X127566904Y-129223062D02*
G01*
X127566904Y-130678750D01*
X127884419Y-130678750D01*
X127884419Y-129223062D01*
X127566904Y-129223062D01*
G37*
G36*
X126753117Y-130011203D02*
G01*
X126812858Y-129985271D01*
X126869939Y-129970389D01*
X126925156Y-129965560D01*
X126966269Y-129970299D01*
X126996291Y-129983115D01*
X127016818Y-130004002D01*
X127023463Y-130030514D01*
X127019113Y-130055930D01*
X126999802Y-130074325D01*
X126955915Y-130090201D01*
X126879589Y-130107756D01*
X126794435Y-130131632D01*
X126730293Y-130163242D01*
X126682973Y-130201560D01*
X126647313Y-130249966D01*
X126625612Y-130306767D01*
X126618020Y-130374362D01*
X126626120Y-130450315D01*
X126649543Y-130516404D01*
X126687198Y-130574493D01*
X126737165Y-130622574D01*
X126797606Y-130660078D01*
X126872033Y-130689206D01*
X126953246Y-130706801D01*
X127045369Y-130712943D01*
X127134501Y-130706757D01*
X127223534Y-130688052D01*
X127313243Y-130656274D01*
X127404329Y-130610438D01*
X127288925Y-130386803D01*
X127196594Y-130439976D01*
X127112958Y-130469257D01*
X127035752Y-130478470D01*
X126994592Y-130473304D01*
X126963700Y-130459084D01*
X126942325Y-130436618D01*
X126935536Y-130409777D01*
X126939963Y-130380697D01*
X126958434Y-130359555D01*
X126999726Y-130342000D01*
X127070862Y-130325208D01*
X127167798Y-130299122D01*
X127234058Y-130269011D01*
X127277247Y-130236288D01*
X127309082Y-130193560D01*
X127328964Y-130140255D01*
X127336094Y-130073333D01*
X127328875Y-130000315D01*
X127308083Y-129936862D01*
X127273921Y-129880784D01*
X127227482Y-129833898D01*
X127170627Y-129797045D01*
X127100552Y-129768716D01*
X127023521Y-129751713D01*
X126934925Y-129745742D01*
X126836880Y-129752164D01*
X126740815Y-129771405D01*
X126645955Y-129803750D01*
X126753117Y-130011203D01*
G37*
G36*
X126361413Y-130341694D02*
G01*
X126063971Y-130341694D01*
X126385913Y-130922992D01*
X126588940Y-130922992D01*
X126361413Y-130341694D01*
G37*
G36*
X124919311Y-130043718D02*
G01*
X124919311Y-130678750D01*
X125236827Y-130678750D01*
X125236827Y-130043718D01*
X125339409Y-130043718D01*
X125339409Y-129779936D01*
X125236827Y-129779936D01*
X125236827Y-129511269D01*
X124919311Y-129511269D01*
X124919311Y-129779936D01*
X124738571Y-129779936D01*
X124738571Y-130043718D01*
X124919311Y-130043718D01*
G37*
G36*
X124578592Y-129223062D02*
G01*
X124261077Y-129223062D01*
X124261077Y-129894425D01*
X124214946Y-129844667D01*
X124171403Y-129809983D01*
X124129872Y-129787721D01*
X124059764Y-129767608D01*
X123974015Y-129760396D01*
X123889359Y-129767073D01*
X123820244Y-129785649D01*
X123763738Y-129814758D01*
X123717636Y-129854201D01*
X123680820Y-129903300D01*
X123653878Y-129960732D01*
X123636927Y-130028095D01*
X123630930Y-130107450D01*
X123630930Y-130678750D01*
X123948446Y-130678750D01*
X123948446Y-130225908D01*
X123951404Y-130161039D01*
X123958979Y-130115846D01*
X123973528Y-130077612D01*
X123993936Y-130051122D01*
X124023620Y-130030821D01*
X124056993Y-130018615D01*
X124095144Y-130014409D01*
X124146610Y-130020251D01*
X124186796Y-130036472D01*
X124218334Y-130062494D01*
X124241084Y-130096994D01*
X124255720Y-130141757D01*
X124261077Y-130199728D01*
X124261077Y-130678750D01*
X124578592Y-130678750D01*
X124578592Y-129223062D01*
G37*
G36*
X123099702Y-129779936D02*
G01*
X123099702Y-130678750D01*
X123417218Y-130678750D01*
X123417218Y-129779936D01*
X123099702Y-129779936D01*
G37*
G36*
X123436757Y-129435553D02*
G01*
X123433229Y-129399768D01*
X123422789Y-129366555D01*
X123406105Y-129336091D01*
X123384321Y-129309692D01*
X123357914Y-129287865D01*
X123327458Y-129271224D01*
X123294190Y-129260781D01*
X123258460Y-129257256D01*
X123222675Y-129260784D01*
X123189461Y-129271224D01*
X123159019Y-129287868D01*
X123132675Y-129309692D01*
X123110847Y-129336099D01*
X123094206Y-129366555D01*
X123083709Y-129399772D01*
X123080163Y-129435553D01*
X123083708Y-129471346D01*
X123094206Y-129504628D01*
X123110843Y-129535020D01*
X123132675Y-129561415D01*
X123159011Y-129583195D01*
X123189461Y-129599883D01*
X123222675Y-129610322D01*
X123258460Y-129613851D01*
X123294190Y-129610326D01*
X123327458Y-129599883D01*
X123357922Y-129583199D01*
X123384321Y-129561415D01*
X123406110Y-129535028D01*
X123422789Y-129504628D01*
X123433231Y-129471349D01*
X123436757Y-129435553D01*
G37*
G36*
X122285915Y-130011203D02*
G01*
X122345657Y-129985271D01*
X122402737Y-129970389D01*
X122457954Y-129965560D01*
X122499067Y-129970299D01*
X122529090Y-129983115D01*
X122549617Y-130004002D01*
X122556262Y-130030514D01*
X122551911Y-130055930D01*
X122532601Y-130074325D01*
X122488713Y-130090201D01*
X122412387Y-130107756D01*
X122327233Y-130131632D01*
X122263091Y-130163242D01*
X122215772Y-130201560D01*
X122180111Y-130249966D01*
X122158410Y-130306767D01*
X122150818Y-130374362D01*
X122158919Y-130450315D01*
X122182341Y-130516404D01*
X122219996Y-130574493D01*
X122269963Y-130622574D01*
X122330404Y-130660078D01*
X122404831Y-130689206D01*
X122486044Y-130706801D01*
X122578167Y-130712943D01*
X122667299Y-130706757D01*
X122756333Y-130688052D01*
X122846041Y-130656274D01*
X122937128Y-130610438D01*
X122821723Y-130386803D01*
X122729392Y-130439976D01*
X122645757Y-130469257D01*
X122568550Y-130478470D01*
X122527390Y-130473304D01*
X122496498Y-130459084D01*
X122475124Y-130436618D01*
X122468334Y-130409777D01*
X122472761Y-130380697D01*
X122491232Y-130359555D01*
X122532524Y-130342000D01*
X122603660Y-130325208D01*
X122700596Y-130299122D01*
X122766857Y-130269011D01*
X122810045Y-130236288D01*
X122841880Y-130193560D01*
X122861763Y-130140255D01*
X122868892Y-130073333D01*
X122861674Y-130000315D01*
X122840881Y-129936862D01*
X122806719Y-129880784D01*
X122760281Y-129833898D01*
X122703425Y-129797045D01*
X122633351Y-129768716D01*
X122556319Y-129751713D01*
X122467724Y-129745742D01*
X122369678Y-129752164D01*
X122273613Y-129771405D01*
X122178754Y-129803750D01*
X122285915Y-130011203D01*
G37*
G36*
X120800919Y-130011203D02*
G01*
X120860660Y-129985271D01*
X120917740Y-129970389D01*
X120972957Y-129965560D01*
X121014071Y-129970299D01*
X121044093Y-129983115D01*
X121064620Y-130004002D01*
X121071265Y-130030514D01*
X121066915Y-130055930D01*
X121047604Y-130074325D01*
X121003717Y-130090201D01*
X120927391Y-130107756D01*
X120842237Y-130131632D01*
X120778095Y-130163242D01*
X120730775Y-130201560D01*
X120695115Y-130249966D01*
X120673414Y-130306767D01*
X120665822Y-130374362D01*
X120673922Y-130450315D01*
X120697345Y-130516404D01*
X120734999Y-130574493D01*
X120784967Y-130622574D01*
X120845407Y-130660078D01*
X120919835Y-130689206D01*
X121001047Y-130706801D01*
X121093171Y-130712943D01*
X121182302Y-130706757D01*
X121271336Y-130688052D01*
X121361045Y-130656274D01*
X121452131Y-130610438D01*
X121336727Y-130386803D01*
X121244396Y-130439976D01*
X121160760Y-130469257D01*
X121083554Y-130478470D01*
X121042393Y-130473304D01*
X121011502Y-130459084D01*
X120990127Y-130436618D01*
X120983338Y-130409777D01*
X120987765Y-130380697D01*
X121006235Y-130359555D01*
X121047528Y-130342000D01*
X121118663Y-130325208D01*
X121215600Y-130299122D01*
X121281860Y-130269011D01*
X121325049Y-130236288D01*
X121356884Y-130193560D01*
X121376766Y-130140255D01*
X121383896Y-130073333D01*
X121376677Y-130000315D01*
X121355884Y-129936862D01*
X121321722Y-129880784D01*
X121275284Y-129833898D01*
X121218428Y-129797045D01*
X121148354Y-129768716D01*
X121071322Y-129751713D01*
X120982727Y-129745742D01*
X120884682Y-129752164D01*
X120788617Y-129771405D01*
X120693757Y-129803750D01*
X120800919Y-130011203D01*
G37*
G36*
X120190770Y-129779936D02*
G01*
X120190770Y-130678750D01*
X120508285Y-130678750D01*
X120508285Y-129779936D01*
X120190770Y-129779936D01*
G37*
G36*
X120527825Y-129435553D02*
G01*
X120524296Y-129399768D01*
X120513857Y-129366555D01*
X120497173Y-129336091D01*
X120475389Y-129309692D01*
X120448982Y-129287865D01*
X120418526Y-129271224D01*
X120385257Y-129260781D01*
X120349527Y-129257256D01*
X120313742Y-129260784D01*
X120280529Y-129271224D01*
X120250087Y-129287868D01*
X120223742Y-129309692D01*
X120201915Y-129336099D01*
X120185274Y-129366555D01*
X120174777Y-129399772D01*
X120171230Y-129435553D01*
X120174775Y-129471346D01*
X120185274Y-129504628D01*
X120201910Y-129535020D01*
X120223742Y-129561415D01*
X120250079Y-129583195D01*
X120280529Y-129599883D01*
X120313742Y-129610322D01*
X120349527Y-129613851D01*
X120385257Y-129610326D01*
X120418526Y-129599883D01*
X120448990Y-129583199D01*
X120475389Y-129561415D01*
X120497177Y-129535028D01*
X120513857Y-129504628D01*
X120524298Y-129471349D01*
X120527825Y-129435553D01*
G37*
G36*
X119280965Y-129868092D02*
G01*
X119339833Y-129816596D01*
X119404865Y-129780315D01*
X119477356Y-129758245D01*
X119559173Y-129750627D01*
X119624791Y-129754959D01*
X119685497Y-129767630D01*
X119742050Y-129788408D01*
X119819561Y-129833223D01*
X119884626Y-129891219D01*
X119937020Y-129961188D01*
X119976447Y-130043107D01*
X120000638Y-130132013D01*
X120008809Y-130226671D01*
X120000115Y-130326024D01*
X119974691Y-130416494D01*
X119933492Y-130499074D01*
X119879360Y-130569298D01*
X119812983Y-130627189D01*
X119735944Y-130671193D01*
X119680043Y-130691477D01*
X119620190Y-130703837D01*
X119555662Y-130708059D01*
X119471704Y-130699623D01*
X119399401Y-130675400D01*
X119336336Y-130635739D01*
X119280965Y-130579297D01*
X119280965Y-130678750D01*
X118963449Y-130678750D01*
X118963449Y-130230259D01*
X119270432Y-130230259D01*
X119274650Y-130271355D01*
X119287147Y-130309485D01*
X119306583Y-130344380D01*
X119331111Y-130374667D01*
X119360754Y-130399636D01*
X119396064Y-130418707D01*
X119434796Y-130430530D01*
X119475978Y-130434507D01*
X119518683Y-130430490D01*
X119557646Y-130418707D01*
X119592971Y-130399639D01*
X119622676Y-130374667D01*
X119646903Y-130344208D01*
X119665724Y-130308569D01*
X119677505Y-130269520D01*
X119681523Y-130226671D01*
X119677284Y-130185707D01*
X119664808Y-130148361D01*
X119645430Y-130114115D01*
X119620921Y-130084018D01*
X119591213Y-130059063D01*
X119555891Y-130040054D01*
X119517156Y-130028174D01*
X119475978Y-130024179D01*
X119434799Y-130028174D01*
X119396064Y-130040054D01*
X119360756Y-130059067D01*
X119331111Y-130084018D01*
X119306641Y-130114388D01*
X119287147Y-130150040D01*
X119274635Y-130188910D01*
X119270432Y-130230259D01*
X118963449Y-130230259D01*
X118963449Y-129223062D01*
X119280965Y-129223062D01*
X119280965Y-129868092D01*
G37*
G36*
X118395774Y-129754663D02*
G01*
X118491450Y-129780012D01*
X118577260Y-129821933D01*
X118647994Y-129877404D01*
X118687494Y-129922094D01*
X118720711Y-129973046D01*
X118747752Y-130030972D01*
X118766808Y-130092149D01*
X118778621Y-130159454D01*
X118782710Y-130233770D01*
X118778436Y-130305542D01*
X118766055Y-130370761D01*
X118745997Y-130430309D01*
X118701384Y-130512217D01*
X118641888Y-130581281D01*
X118568621Y-130636680D01*
X118480077Y-130678673D01*
X118382307Y-130704116D01*
X118271860Y-130712943D01*
X118164067Y-130705597D01*
X118073976Y-130685028D01*
X117998626Y-130652778D01*
X117935624Y-130609433D01*
X117883291Y-130554586D01*
X117840787Y-130486866D01*
X117808181Y-130404053D01*
X118113332Y-130404053D01*
X118142935Y-130441175D01*
X118177869Y-130466977D01*
X118219124Y-130482719D01*
X118268502Y-130488240D01*
X118329738Y-130481962D01*
X118376165Y-130464848D01*
X118411292Y-130438076D01*
X118437169Y-130400846D01*
X118454044Y-130350532D01*
X118460309Y-130283076D01*
X117795969Y-130283076D01*
X117795969Y-130249722D01*
X117804640Y-130135769D01*
X117814298Y-130097452D01*
X118090663Y-130097452D01*
X118451608Y-130097452D01*
X118439175Y-130053138D01*
X118419682Y-130017616D01*
X118393219Y-129989298D01*
X118360459Y-129968469D01*
X118321201Y-129955503D01*
X118273769Y-129950906D01*
X118228709Y-129955557D01*
X118189622Y-129968971D01*
X118155234Y-129991053D01*
X118126565Y-130020441D01*
X118105117Y-130055561D01*
X118090663Y-130097452D01*
X117814298Y-130097452D01*
X117829247Y-130038146D01*
X117855193Y-129977748D01*
X117887246Y-129925058D01*
X117925417Y-129879236D01*
X117970035Y-129839668D01*
X118021098Y-129806631D01*
X118079367Y-129780012D01*
X118174033Y-129754648D01*
X118284073Y-129745742D01*
X118395774Y-129754663D01*
G37*
G36*
X117631105Y-130512588D02*
G01*
X117627129Y-130471549D01*
X117615305Y-130432904D01*
X117596369Y-130397497D01*
X117571494Y-130367187D01*
X117541129Y-130342243D01*
X117505777Y-130323300D01*
X117467112Y-130311479D01*
X117425941Y-130307500D01*
X117384770Y-130311479D01*
X117346104Y-130323300D01*
X117310702Y-130342252D01*
X117280387Y-130367187D01*
X117255469Y-130397505D01*
X117236576Y-130432904D01*
X117224752Y-130471549D01*
X117220777Y-130512588D01*
X117224755Y-130553759D01*
X117236576Y-130592425D01*
X117255465Y-130627837D01*
X117280387Y-130658218D01*
X117310697Y-130683093D01*
X117346104Y-130702029D01*
X117384770Y-130713850D01*
X117425941Y-130717828D01*
X117467112Y-130713850D01*
X117505777Y-130702029D01*
X117541134Y-130683101D01*
X117571494Y-130658218D01*
X117596373Y-130627846D01*
X117615305Y-130592425D01*
X117627126Y-130553759D01*
X117631105Y-130512588D01*
G37*
D12*
G36*
X146677518Y-188903140D02*
G01*
X147267316Y-189176497D01*
X146677518Y-189454250D01*
X146677518Y-189906685D01*
X147828000Y-189308583D01*
X147828000Y-189037571D01*
X146677518Y-188446211D01*
X146677518Y-188903140D01*
G37*
G36*
X146508697Y-190500195D02*
G01*
X146508697Y-190253217D01*
X146133540Y-190253217D01*
X146133540Y-190937878D01*
X147828000Y-190937878D01*
X147828000Y-190500195D01*
X146508697Y-190500195D01*
G37*
G36*
X147615313Y-191449030D02*
G01*
X147562783Y-191454118D01*
X147513317Y-191469253D01*
X147467996Y-191493491D01*
X147429200Y-191525331D01*
X147397272Y-191564199D01*
X147373024Y-191609448D01*
X147357893Y-191658941D01*
X147352801Y-191711640D01*
X147357893Y-191764339D01*
X147373024Y-191813831D01*
X147397282Y-191859145D01*
X147429200Y-191897948D01*
X147468007Y-191929844D01*
X147513317Y-191954026D01*
X147562783Y-191969161D01*
X147615313Y-191974250D01*
X147668012Y-191969157D01*
X147717504Y-191954026D01*
X147762832Y-191929849D01*
X147801719Y-191897948D01*
X147833559Y-191859152D01*
X147857797Y-191813831D01*
X147872928Y-191764339D01*
X147878020Y-191711640D01*
X147872928Y-191658941D01*
X147857797Y-191609448D01*
X147833569Y-191564192D01*
X147801719Y-191525331D01*
X147762843Y-191493487D01*
X147717504Y-191469253D01*
X147668012Y-191454123D01*
X147615313Y-191449030D01*
G37*
G36*
X146508697Y-192530732D02*
G01*
X146508697Y-192283754D01*
X146133540Y-192283754D01*
X146133540Y-192968416D01*
X147828000Y-192968416D01*
X147828000Y-192530732D01*
X146508697Y-192530732D01*
G37*
G36*
X147100403Y-194769319D02*
G01*
X147200295Y-194801996D01*
X147290656Y-194854129D01*
X147367748Y-194922261D01*
X147430936Y-195004225D01*
X147480100Y-195098799D01*
X147511098Y-195201745D01*
X147521621Y-195313440D01*
X147512633Y-195419051D01*
X147481175Y-195538339D01*
X147467595Y-195578688D01*
X147114615Y-195578688D01*
X147141579Y-195549476D01*
X147185621Y-195495976D01*
X147215634Y-195443768D01*
X147234011Y-195387933D01*
X147240254Y-195326825D01*
X147232142Y-195256231D01*
X147208958Y-195197107D01*
X147170791Y-195146866D01*
X147120655Y-195108519D01*
X147061692Y-195085248D01*
X146991321Y-195077111D01*
X146920920Y-195085224D01*
X146861572Y-195108480D01*
X146810777Y-195146866D01*
X146771859Y-195197200D01*
X146748281Y-195256322D01*
X146740044Y-195326825D01*
X146746235Y-195388404D01*
X146764762Y-195447090D01*
X146795757Y-195500851D01*
X146840965Y-195549476D01*
X146874671Y-195578688D01*
X146512703Y-195578688D01*
X146508209Y-195567453D01*
X146486697Y-195507358D01*
X146471084Y-195441521D01*
X146458676Y-195311193D01*
X146469148Y-195201286D01*
X146500295Y-195097627D01*
X146549989Y-195002523D01*
X146614894Y-194921186D01*
X146693745Y-194853806D01*
X146784594Y-194801996D01*
X146884118Y-194769269D01*
X146991321Y-194758227D01*
X147100403Y-194769319D01*
G37*
G36*
X147113912Y-194397304D02*
G01*
X147230149Y-194420887D01*
X147341175Y-194459958D01*
X147446289Y-194513145D01*
X147541288Y-194577322D01*
X147627036Y-194652812D01*
X147702526Y-194738560D01*
X147766704Y-194833559D01*
X147819891Y-194938674D01*
X147858959Y-195049701D01*
X147882543Y-195165969D01*
X147890526Y-195288625D01*
X147882559Y-195411228D01*
X147858989Y-195527832D01*
X147819891Y-195639553D01*
X147766642Y-195745418D01*
X147702455Y-195840759D01*
X147627036Y-195926490D01*
X147541288Y-196001980D01*
X147446289Y-196066157D01*
X147341175Y-196119344D01*
X147230145Y-196158470D01*
X147113908Y-196182085D01*
X146991321Y-196190077D01*
X146868722Y-196182100D01*
X146752118Y-196158498D01*
X146640393Y-196119344D01*
X146534461Y-196066094D01*
X146439055Y-196001907D01*
X146353261Y-195926490D01*
X146277843Y-195840759D01*
X146213656Y-195745418D01*
X146160407Y-195639553D01*
X146121309Y-195527832D01*
X146097738Y-195411228D01*
X146089848Y-195289797D01*
X146264845Y-195289797D01*
X146271326Y-195388818D01*
X146290452Y-195482387D01*
X146322096Y-195571458D01*
X146365140Y-195655863D01*
X146417087Y-195732365D01*
X146478216Y-195801633D01*
X146547483Y-195862761D01*
X146623986Y-195914708D01*
X146708390Y-195957753D01*
X146797464Y-195989392D01*
X146891097Y-196008520D01*
X146990247Y-196015003D01*
X147089268Y-196008524D01*
X147182870Y-195989400D01*
X147272005Y-195957753D01*
X147356351Y-195914717D01*
X147432856Y-195862771D01*
X147502180Y-195801633D01*
X147563249Y-195732372D01*
X147615165Y-195655869D01*
X147658202Y-195571458D01*
X147689846Y-195482387D01*
X147708971Y-195388818D01*
X147715452Y-195289797D01*
X147708971Y-195190711D01*
X147689846Y-195097077D01*
X147658202Y-195007941D01*
X147615169Y-194923526D01*
X147563254Y-194846990D01*
X147502180Y-194777669D01*
X147432862Y-194716589D01*
X147356357Y-194664675D01*
X147272005Y-194621647D01*
X147182870Y-194590000D01*
X147089268Y-194570876D01*
X146990247Y-194564396D01*
X146891097Y-194570880D01*
X146797464Y-194590008D01*
X146708390Y-194621647D01*
X146623980Y-194664684D01*
X146547477Y-194716599D01*
X146478216Y-194777669D01*
X146417083Y-194846996D01*
X146365136Y-194923533D01*
X146322096Y-195007941D01*
X146290452Y-195097077D01*
X146271326Y-195190711D01*
X146264845Y-195289797D01*
X146089848Y-195289797D01*
X146089772Y-195288625D01*
X146097754Y-195165969D01*
X146121339Y-195049701D01*
X146160407Y-194938674D01*
X146213594Y-194833559D01*
X146277771Y-194738560D01*
X146353261Y-194652812D01*
X146439055Y-194577395D01*
X146534461Y-194513208D01*
X146640393Y-194459958D01*
X146752114Y-194420859D01*
X146868718Y-194397289D01*
X146991321Y-194389323D01*
X147113912Y-194397304D01*
G37*
G36*
X147828000Y-198534808D02*
G01*
X147828000Y-197175645D01*
X147391391Y-197593105D01*
X147223244Y-197747595D01*
X147097811Y-197852003D01*
X146980627Y-197937936D01*
X146894210Y-197991514D01*
X146813658Y-198030796D01*
X146759193Y-198048471D01*
X146671461Y-198059609D01*
X146597211Y-198047495D01*
X146563069Y-198032274D01*
X146533122Y-198011053D01*
X146507873Y-197984412D01*
X146488083Y-197952533D01*
X146475616Y-197916291D01*
X146471182Y-197872030D01*
X146478094Y-197815849D01*
X146497608Y-197770732D01*
X146529605Y-197734082D01*
X146570975Y-197706907D01*
X146619035Y-197690270D01*
X146675564Y-197684452D01*
X146747469Y-197691095D01*
X146747469Y-197209253D01*
X146649981Y-197214835D01*
X146560886Y-197231038D01*
X146479095Y-197257320D01*
X146401526Y-197294183D01*
X146332430Y-197339260D01*
X146271000Y-197392728D01*
X146217564Y-197454157D01*
X146172895Y-197522874D01*
X146136764Y-197599651D01*
X146111003Y-197680662D01*
X146095194Y-197768010D01*
X146089772Y-197862652D01*
X146101250Y-197999797D01*
X146134615Y-198123307D01*
X146188984Y-198235877D01*
X146260156Y-198330328D01*
X146348176Y-198407893D01*
X146451838Y-198466811D01*
X146527194Y-198493956D01*
X146607234Y-198510439D01*
X146692856Y-198516050D01*
X146784039Y-198509311D01*
X146869212Y-198489477D01*
X146949507Y-198456650D01*
X147024441Y-198412063D01*
X147104518Y-198349879D01*
X147190526Y-198267118D01*
X147452842Y-197986825D01*
X147452842Y-198534808D01*
X147828000Y-198534808D01*
G37*
G36*
X147116602Y-198687900D02*
G01*
X147238452Y-198705688D01*
X147349577Y-198734305D01*
X147456598Y-198775184D01*
X147550372Y-198824569D01*
X147632312Y-198882219D01*
X147705402Y-198950267D01*
X147765726Y-199025512D01*
X147814127Y-199108583D01*
X147849272Y-199197942D01*
X147870691Y-199294213D01*
X147878020Y-199398744D01*
X147870742Y-199501788D01*
X147849370Y-199597707D01*
X147814127Y-199687732D01*
X147765615Y-199771485D01*
X147705276Y-199846705D01*
X147632312Y-199914096D01*
X147550443Y-199971115D01*
X147456671Y-200020149D01*
X147349577Y-200060935D01*
X147238447Y-200089606D01*
X147116599Y-200107427D01*
X146982724Y-200113594D01*
X146848849Y-200107427D01*
X146727000Y-200089606D01*
X146615871Y-200060935D01*
X146508806Y-200020100D01*
X146415448Y-199971061D01*
X146334308Y-199914096D01*
X146262074Y-199846775D01*
X146202141Y-199771557D01*
X146153764Y-199687732D01*
X146118465Y-199597702D01*
X146097061Y-199501784D01*
X146089772Y-199398744D01*
X146477434Y-199398744D01*
X146486671Y-199458151D01*
X146514657Y-199512952D01*
X146558149Y-199559975D01*
X146618411Y-199600488D01*
X146689246Y-199631203D01*
X146778635Y-199655883D01*
X146874589Y-199670719D01*
X146982724Y-199675910D01*
X147092813Y-199670673D01*
X147188083Y-199655883D01*
X147276520Y-199631305D01*
X147348209Y-199600488D01*
X147409393Y-199559909D01*
X147453136Y-199512952D01*
X147481122Y-199458151D01*
X147490358Y-199398744D01*
X147481011Y-199337651D01*
X147453136Y-199283461D01*
X147409535Y-199237138D01*
X147348209Y-199195827D01*
X147276442Y-199164191D01*
X147188083Y-199139358D01*
X147092817Y-199124639D01*
X146982724Y-199119428D01*
X146874585Y-199124594D01*
X146778635Y-199139358D01*
X146689327Y-199164294D01*
X146618411Y-199195827D01*
X146558007Y-199237072D01*
X146514657Y-199283461D01*
X146486782Y-199337651D01*
X146477434Y-199398744D01*
X146089772Y-199398744D01*
X146097112Y-199294218D01*
X146118562Y-199197947D01*
X146153764Y-199108583D01*
X146202030Y-199025441D01*
X146261949Y-198950198D01*
X146334308Y-198882219D01*
X146415520Y-198824623D01*
X146508880Y-198775232D01*
X146615871Y-198734305D01*
X146726996Y-198705688D01*
X146848845Y-198687900D01*
X146982724Y-198681744D01*
X147116602Y-198687900D01*
G37*
G36*
X147828000Y-201579832D02*
G01*
X147828000Y-200220670D01*
X147391391Y-200638130D01*
X147223244Y-200792619D01*
X147097811Y-200897027D01*
X146980627Y-200982961D01*
X146894210Y-201036538D01*
X146813658Y-201075821D01*
X146759193Y-201093496D01*
X146671461Y-201104633D01*
X146597211Y-201092519D01*
X146563069Y-201077298D01*
X146533122Y-201056078D01*
X146507873Y-201029437D01*
X146488083Y-200997557D01*
X146475616Y-200961316D01*
X146471182Y-200917055D01*
X146478094Y-200860873D01*
X146497608Y-200815756D01*
X146529605Y-200779107D01*
X146570975Y-200751931D01*
X146619035Y-200735294D01*
X146675564Y-200729476D01*
X146747469Y-200736120D01*
X146747469Y-200254277D01*
X146649981Y-200259859D01*
X146560886Y-200276062D01*
X146479095Y-200302344D01*
X146401526Y-200339208D01*
X146332430Y-200384285D01*
X146271000Y-200437753D01*
X146217564Y-200499182D01*
X146172895Y-200567899D01*
X146136764Y-200644675D01*
X146111003Y-200725686D01*
X146095194Y-200813035D01*
X146089772Y-200907676D01*
X146101250Y-201044822D01*
X146134615Y-201168332D01*
X146188984Y-201280901D01*
X146260156Y-201375352D01*
X146348176Y-201452917D01*
X146451838Y-201511835D01*
X146527194Y-201538980D01*
X146607234Y-201555463D01*
X146692856Y-201561074D01*
X146784039Y-201554335D01*
X146869212Y-201534501D01*
X146949507Y-201501675D01*
X147024441Y-201457087D01*
X147104518Y-201394904D01*
X147190526Y-201312142D01*
X147452842Y-201031849D01*
X147452842Y-201579832D01*
X147828000Y-201579832D01*
G37*
G36*
X147338735Y-201738571D02*
G01*
X147418847Y-201754997D01*
X147495634Y-201782261D01*
X147567821Y-201819918D01*
X147633778Y-201867183D01*
X147694057Y-201924605D01*
X147746093Y-201989768D01*
X147790992Y-202064469D01*
X147828683Y-202149797D01*
X147855479Y-202239278D01*
X147872202Y-202338878D01*
X147878020Y-202450021D01*
X147872225Y-202559772D01*
X147855524Y-202658687D01*
X147828683Y-202748095D01*
X147790966Y-202833418D01*
X147745781Y-202908151D01*
X147693177Y-202973384D01*
X147632156Y-203030707D01*
X147565106Y-203077956D01*
X147491433Y-203115631D01*
X147413188Y-203142770D01*
X147330177Y-203159258D01*
X147241524Y-203164871D01*
X147119012Y-203154078D01*
X147006269Y-203122372D01*
X146902855Y-203071093D01*
X146814685Y-203003768D01*
X146741630Y-202921177D01*
X146685822Y-202824885D01*
X146659912Y-202754939D01*
X146644126Y-202679960D01*
X146638732Y-202599009D01*
X146646646Y-202527299D01*
X146660334Y-202485375D01*
X146679655Y-202448946D01*
X146971391Y-202448946D01*
X146977034Y-202505188D01*
X146993666Y-202556804D01*
X147019861Y-202603969D01*
X147053750Y-202644731D01*
X147094588Y-202678647D01*
X147141775Y-202704913D01*
X147193390Y-202721544D01*
X147249632Y-202727187D01*
X147305889Y-202721546D01*
X147357588Y-202704913D01*
X147404693Y-202678653D01*
X147445515Y-202644731D01*
X147479426Y-202603973D01*
X147505697Y-202556804D01*
X147522254Y-202505193D01*
X147527874Y-202448946D01*
X147522254Y-202392600D01*
X147505697Y-202340893D01*
X147479437Y-202293788D01*
X147445515Y-202252966D01*
X147404700Y-202219122D01*
X147357588Y-202192882D01*
X147305894Y-202176322D01*
X147249632Y-202170705D01*
X147193385Y-202176324D01*
X147141775Y-202192882D01*
X147094581Y-202219128D01*
X147053750Y-202252966D01*
X147019850Y-202293792D01*
X146993666Y-202340893D01*
X146977034Y-202392605D01*
X146971391Y-202448946D01*
X146679655Y-202448946D01*
X146692661Y-202424424D01*
X146692661Y-202415534D01*
X146139793Y-202893273D01*
X146139793Y-202386615D01*
X146615383Y-201993580D01*
X146726528Y-201910861D01*
X146835830Y-201845862D01*
X146943840Y-201797013D01*
X147056704Y-201760375D01*
X147159797Y-201739629D01*
X147254517Y-201733021D01*
X147338735Y-201738571D01*
G37*
G36*
X147396569Y-203469881D02*
G01*
X147396569Y-203850607D01*
X148140630Y-203438520D01*
X148140630Y-203178646D01*
X147396569Y-203469881D01*
G37*
G36*
X146702040Y-206119232D02*
G01*
X146618310Y-206036146D01*
X146560823Y-205946855D01*
X146526600Y-205849748D01*
X146514950Y-205742219D01*
X146524131Y-205646259D01*
X146551000Y-205559330D01*
X146593870Y-205480624D01*
X146649088Y-205414640D01*
X146716458Y-205360890D01*
X146796806Y-205319288D01*
X146884999Y-205293356D01*
X146981649Y-205284508D01*
X147080183Y-205293400D01*
X147168739Y-205319288D01*
X147249219Y-205361056D01*
X147317630Y-205415715D01*
X147373832Y-205482549D01*
X147416792Y-205560404D01*
X147443688Y-205646116D01*
X147452842Y-205739972D01*
X147442009Y-205840842D01*
X147409575Y-205936430D01*
X147354153Y-206028764D01*
X147272494Y-206119232D01*
X147793024Y-206119232D01*
X147808655Y-206074585D01*
X147840359Y-205974920D01*
X147861217Y-205886518D01*
X147873863Y-205799363D01*
X147878020Y-205714180D01*
X147870623Y-205599171D01*
X147848586Y-205487976D01*
X147811782Y-205379665D01*
X147761395Y-205276896D01*
X147699368Y-205183175D01*
X147625278Y-205097711D01*
X147540807Y-205022299D01*
X147446037Y-204957105D01*
X147340002Y-204901926D01*
X147227846Y-204861257D01*
X147108116Y-204836509D01*
X146979402Y-204828067D01*
X146850658Y-204836413D01*
X146731698Y-204860806D01*
X146621049Y-204900753D01*
X146516537Y-204955299D01*
X146423269Y-205020122D01*
X146340267Y-205095464D01*
X146267598Y-205180830D01*
X146206320Y-205274895D01*
X146156108Y-205378492D01*
X146119280Y-205487589D01*
X146097196Y-205599920D01*
X146089772Y-205716427D01*
X146095111Y-205816429D01*
X146111070Y-205914459D01*
X146137500Y-206012309D01*
X146177016Y-206119232D01*
X146702040Y-206119232D01*
G37*
G36*
X147335927Y-206320579D02*
G01*
X147421323Y-206337896D01*
X147499933Y-206366113D01*
X147573871Y-206405049D01*
X147639909Y-206452299D01*
X147698746Y-206508164D01*
X147749341Y-206571607D01*
X147792023Y-206643239D01*
X147826827Y-206723977D01*
X147860245Y-206853179D01*
X147871768Y-206997041D01*
X147860270Y-207143226D01*
X147826827Y-207275575D01*
X147791997Y-207358657D01*
X147749643Y-207431747D01*
X147699821Y-207495883D01*
X147610179Y-207577685D01*
X147504427Y-207640181D01*
X147427256Y-207669124D01*
X147344123Y-207686792D01*
X147253931Y-207692840D01*
X147163624Y-207686918D01*
X147080452Y-207669633D01*
X147003338Y-207641354D01*
X146931041Y-207602327D01*
X146866123Y-207554371D01*
X146807944Y-207497055D01*
X146735536Y-207396943D01*
X146679863Y-207277823D01*
X146645542Y-207147640D01*
X146633758Y-207003782D01*
X146988390Y-207003782D01*
X146993481Y-207056100D01*
X147008614Y-207105289D01*
X147032941Y-207150201D01*
X147064887Y-207187941D01*
X147103739Y-207219070D01*
X147149297Y-207243824D01*
X147198919Y-207259697D01*
X147251586Y-207265024D01*
X147306288Y-207259641D01*
X147356220Y-207243824D01*
X147401779Y-207219070D01*
X147440630Y-207187941D01*
X147472577Y-207150201D01*
X147496904Y-207105289D01*
X147512037Y-207056100D01*
X147517127Y-207003782D01*
X147512039Y-206951450D01*
X147496904Y-206902177D01*
X147472588Y-206857329D01*
X147440630Y-206819525D01*
X147401790Y-206788452D01*
X147356220Y-206763642D01*
X147305995Y-206747877D01*
X147249339Y-206742442D01*
X147196840Y-206747796D01*
X147148223Y-206763642D01*
X147103558Y-206788388D01*
X147064887Y-206819525D01*
X147032930Y-206857329D01*
X147008614Y-206902177D01*
X146993478Y-206951450D01*
X146988390Y-207003782D01*
X146633758Y-207003782D01*
X146633750Y-207003684D01*
X146639187Y-206904643D01*
X146655059Y-206812852D01*
X146680937Y-206727397D01*
X146737572Y-206608422D01*
X146810191Y-206509239D01*
X146899502Y-206427607D01*
X147003338Y-206366113D01*
X147078906Y-206337636D01*
X147158363Y-206320449D01*
X147242598Y-206314626D01*
X147335927Y-206320579D01*
G37*
G36*
X145964720Y-208332659D02*
G01*
X147828000Y-208332659D01*
X147828000Y-207926238D01*
X145964720Y-207926238D01*
X145964720Y-208332659D01*
G37*
G36*
X146677518Y-209015757D02*
G01*
X147828000Y-209015757D01*
X147828000Y-208609337D01*
X146677518Y-208609337D01*
X146677518Y-209015757D01*
G37*
G36*
X146236709Y-208584326D02*
G01*
X146190904Y-208588843D01*
X146148390Y-208602205D01*
X146109396Y-208623561D01*
X146075606Y-208651444D01*
X146047667Y-208685245D01*
X146026367Y-208724229D01*
X146013000Y-208766813D01*
X146008488Y-208812547D01*
X146013004Y-208858352D01*
X146026367Y-208900865D01*
X146047671Y-208939831D01*
X146075606Y-208973552D01*
X146109407Y-209001491D01*
X146148390Y-209022791D01*
X146190908Y-209036227D01*
X146236709Y-209040767D01*
X146282523Y-209036230D01*
X146325124Y-209022791D01*
X146364026Y-209001497D01*
X146397811Y-208973552D01*
X146425690Y-208939841D01*
X146447050Y-208900865D01*
X146460413Y-208858352D01*
X146464929Y-208812547D01*
X146460417Y-208766813D01*
X146447050Y-208724229D01*
X146425694Y-208685235D01*
X146397811Y-208651444D01*
X146364036Y-208623555D01*
X146325124Y-208602205D01*
X146282527Y-208588840D01*
X146236709Y-208584326D01*
G37*
G36*
X146677518Y-209292435D02*
G01*
X146677518Y-209698855D01*
X146823282Y-209698855D01*
X146759922Y-209757881D01*
X146715743Y-209813616D01*
X146687385Y-209866797D01*
X146661713Y-209956530D01*
X146652508Y-210066294D01*
X146662947Y-210181788D01*
X146691782Y-210273510D01*
X146739254Y-210353414D01*
X146802863Y-210420251D01*
X146864812Y-210461854D01*
X146932996Y-210487467D01*
X147007456Y-210500689D01*
X147096736Y-210505443D01*
X147828000Y-210505443D01*
X147828000Y-210099023D01*
X147247092Y-210099023D01*
X147165962Y-210095541D01*
X147109242Y-210086615D01*
X147060765Y-210069008D01*
X147025124Y-210043042D01*
X147002007Y-210014312D01*
X146987023Y-209982665D01*
X146975787Y-209911249D01*
X146983285Y-209845388D01*
X147004108Y-209793951D01*
X147037532Y-209753566D01*
X147081755Y-209724450D01*
X147139147Y-209705713D01*
X147213484Y-209698855D01*
X147828000Y-209698855D01*
X147828000Y-209292435D01*
X146677518Y-209292435D01*
G37*
G36*
X146702040Y-212793901D02*
G01*
X146618310Y-212710815D01*
X146560823Y-212621523D01*
X146526600Y-212524416D01*
X146514950Y-212416887D01*
X146524131Y-212320927D01*
X146551000Y-212233998D01*
X146593870Y-212155293D01*
X146649088Y-212089309D01*
X146716458Y-212035559D01*
X146796806Y-211993956D01*
X146884999Y-211968024D01*
X146981649Y-211959176D01*
X147080183Y-211968069D01*
X147168739Y-211993956D01*
X147249219Y-212035724D01*
X147317630Y-212090384D01*
X147373832Y-212157218D01*
X147416792Y-212235073D01*
X147443688Y-212320784D01*
X147452842Y-212414640D01*
X147442009Y-212515511D01*
X147409575Y-212611099D01*
X147354153Y-212703432D01*
X147272494Y-212793901D01*
X147793024Y-212793901D01*
X147808655Y-212749253D01*
X147840359Y-212649589D01*
X147861217Y-212561186D01*
X147873863Y-212474032D01*
X147878020Y-212388848D01*
X147870623Y-212273839D01*
X147848586Y-212162644D01*
X147811782Y-212054333D01*
X147761395Y-211951564D01*
X147699368Y-211857844D01*
X147625278Y-211772379D01*
X147540807Y-211696967D01*
X147446037Y-211631774D01*
X147340002Y-211576594D01*
X147227846Y-211535926D01*
X147108116Y-211511178D01*
X146979402Y-211502735D01*
X146850658Y-211511082D01*
X146731698Y-211535475D01*
X146621049Y-211575422D01*
X146516537Y-211629968D01*
X146423269Y-211694790D01*
X146340267Y-211770132D01*
X146267598Y-211855499D01*
X146206320Y-211949563D01*
X146156108Y-212053161D01*
X146119280Y-212162258D01*
X146097196Y-212274589D01*
X146089772Y-212391095D01*
X146095111Y-212491098D01*
X146111070Y-212589127D01*
X146137500Y-212686978D01*
X146177016Y-212793901D01*
X146702040Y-212793901D01*
G37*
G36*
X145964720Y-213439483D02*
G01*
X147828000Y-213439483D01*
X147828000Y-213033063D01*
X145964720Y-213033063D01*
X145964720Y-213439483D01*
G37*
G36*
X147378468Y-213683569D02*
G01*
X147494559Y-213716064D01*
X147600262Y-213768799D01*
X147690149Y-213838088D01*
X147763989Y-213923096D01*
X147819402Y-214021661D01*
X147853739Y-214130778D01*
X147865515Y-214252421D01*
X147854718Y-214359888D01*
X147823712Y-214452435D01*
X147772946Y-214533159D01*
X147700700Y-214604033D01*
X147828000Y-214604033D01*
X147828000Y-215010453D01*
X146677518Y-215010453D01*
X146677518Y-214604033D01*
X146791433Y-214604033D01*
X146724999Y-214528617D01*
X146678237Y-214445354D01*
X146650371Y-214354417D01*
X146990149Y-214354417D01*
X146995263Y-214407125D01*
X147010470Y-214456706D01*
X147034805Y-214501900D01*
X147066743Y-214539846D01*
X147105616Y-214571167D01*
X147151251Y-214596120D01*
X147201005Y-214612136D01*
X147253931Y-214617515D01*
X147306534Y-214612116D01*
X147355341Y-214596120D01*
X147400006Y-214571242D01*
X147438774Y-214539846D01*
X147470734Y-214501904D01*
X147495145Y-214456706D01*
X147510278Y-214407130D01*
X147515369Y-214354417D01*
X147510227Y-214299754D01*
X147495145Y-214249881D01*
X147470739Y-214204665D01*
X147438774Y-214166643D01*
X147399787Y-214135633D01*
X147354168Y-214111542D01*
X147304186Y-214096462D01*
X147249339Y-214091319D01*
X147196847Y-214096460D01*
X147149102Y-214111542D01*
X147105311Y-214135509D01*
X147066743Y-214166643D01*
X147034801Y-214204669D01*
X147010470Y-214249881D01*
X146995314Y-214299759D01*
X146990149Y-214354417D01*
X146650371Y-214354417D01*
X146649811Y-214352590D01*
X146640002Y-214247927D01*
X146645565Y-214163945D01*
X146661799Y-214086648D01*
X146688362Y-214015017D01*
X146745659Y-213916704D01*
X146819960Y-213833594D01*
X146909480Y-213766266D01*
X147014378Y-213714892D01*
X147128222Y-213683115D01*
X147249339Y-213672393D01*
X147378468Y-213683569D01*
G37*
G36*
X146677518Y-215285568D02*
G01*
X146677518Y-215691989D01*
X146867148Y-215691989D01*
X146802012Y-215739475D01*
X146749362Y-215792293D01*
X146707902Y-215850746D01*
X146677634Y-215915464D01*
X146658983Y-215988031D01*
X146652508Y-216070077D01*
X146652508Y-216104759D01*
X146657099Y-216148430D01*
X147047399Y-216148430D01*
X147017315Y-216064935D01*
X147007148Y-215973845D01*
X147017466Y-215883656D01*
X147045849Y-215814904D01*
X147091070Y-215762428D01*
X147151035Y-215725288D01*
X147230752Y-215700987D01*
X147335997Y-215691989D01*
X147828000Y-215691989D01*
X147828000Y-215285568D01*
X146677518Y-215285568D01*
G37*
G36*
X145964720Y-216734612D02*
G01*
X147092438Y-216734612D01*
X146677518Y-217160181D01*
X146677518Y-217715687D01*
X147208990Y-217139958D01*
X147828000Y-217749295D01*
X147828000Y-217180307D01*
X147359249Y-216734612D01*
X147828000Y-216734612D01*
X147828000Y-216328192D01*
X145964720Y-216328192D01*
X145964720Y-216734612D01*
G37*
G36*
X102089063Y-192355582D02*
G01*
X103939935Y-192355582D01*
X103939935Y-193098569D01*
X104467500Y-193098569D01*
X104467500Y-191740090D01*
X102089063Y-191740090D01*
X102089063Y-192355582D01*
G37*
G36*
X102849635Y-193933880D02*
G01*
X104467500Y-193933880D01*
X104467500Y-193362351D01*
X102849635Y-193362351D01*
X102849635Y-193933880D01*
G37*
G36*
X102229747Y-193327180D02*
G01*
X102165333Y-193333531D01*
X102105549Y-193352322D01*
X102050714Y-193382354D01*
X102003196Y-193421565D01*
X101963907Y-193469098D01*
X101933953Y-193523918D01*
X101915156Y-193583802D01*
X101908811Y-193648115D01*
X101915162Y-193712529D01*
X101933953Y-193772313D01*
X101963913Y-193827108D01*
X102003196Y-193874529D01*
X102050729Y-193913818D01*
X102105549Y-193943771D01*
X102165340Y-193962666D01*
X102229747Y-193969051D01*
X102294173Y-193962669D01*
X102354081Y-193943771D01*
X102408786Y-193913826D01*
X102456297Y-193874529D01*
X102495501Y-193827123D01*
X102525540Y-193772313D01*
X102544331Y-193712529D01*
X102550682Y-193648115D01*
X102544337Y-193583802D01*
X102525540Y-193523918D01*
X102495508Y-193469083D01*
X102456297Y-193421565D01*
X102408801Y-193382346D01*
X102354081Y-193352322D01*
X102294179Y-193333528D01*
X102229747Y-193327180D01*
G37*
G36*
X103373078Y-195545150D02*
G01*
X103315329Y-195442243D01*
X103282394Y-195342462D01*
X103271687Y-195243861D01*
X103278923Y-195163425D01*
X103300126Y-195089988D01*
X103334642Y-195022856D01*
X103380909Y-194964691D01*
X103437763Y-194916900D01*
X103504557Y-194880611D01*
X103578866Y-194858302D01*
X103664612Y-194850523D01*
X103747481Y-194858229D01*
X103821370Y-194880611D01*
X103888248Y-194916598D01*
X103944881Y-194963180D01*
X103990902Y-195020212D01*
X104025664Y-195088339D01*
X104047005Y-195163201D01*
X104054241Y-195243861D01*
X104042222Y-195347944D01*
X104005973Y-195447619D01*
X103943370Y-195545150D01*
X104428894Y-195545150D01*
X104481045Y-195401954D01*
X104510733Y-195269003D01*
X104520256Y-195144530D01*
X104505116Y-194971551D01*
X104460218Y-194808620D01*
X104386830Y-194658348D01*
X104287935Y-194527939D01*
X104165204Y-194419206D01*
X104019070Y-194333949D01*
X103912484Y-194294180D01*
X103796573Y-194269792D01*
X103669696Y-194261409D01*
X103542482Y-194269405D01*
X103425411Y-194292721D01*
X103317024Y-194330789D01*
X103167683Y-194413297D01*
X103041976Y-194519971D01*
X102939936Y-194650166D01*
X102861725Y-194805460D01*
X102813330Y-194975681D01*
X102796878Y-195160192D01*
X102806932Y-195296915D01*
X102836523Y-195424675D01*
X102885493Y-195545150D01*
X103373078Y-195545150D01*
G37*
G36*
X101847262Y-195945219D02*
G01*
X101847262Y-196516748D01*
X103055715Y-196516748D01*
X102966151Y-196599784D01*
X102903720Y-196678160D01*
X102863648Y-196752915D01*
X102827444Y-196879111D01*
X102814464Y-197033459D01*
X102826481Y-197185839D01*
X102859918Y-197310246D01*
X102912315Y-197411958D01*
X102983312Y-197494940D01*
X103071690Y-197561211D01*
X103175068Y-197609706D01*
X103296321Y-197640217D01*
X103439161Y-197651011D01*
X104467500Y-197651011D01*
X104467500Y-197079483D01*
X103652385Y-197079483D01*
X103535621Y-197074158D01*
X103454273Y-197060524D01*
X103385452Y-197034336D01*
X103337769Y-196997601D01*
X103301228Y-196944169D01*
X103279257Y-196884099D01*
X103271687Y-196815426D01*
X103282202Y-196722787D01*
X103311399Y-196650454D01*
X103358240Y-196593684D01*
X103420340Y-196552735D01*
X103500914Y-196526389D01*
X103605261Y-196516748D01*
X104467500Y-196516748D01*
X104467500Y-195945219D01*
X101847262Y-195945219D01*
G37*
G36*
X103795725Y-197981837D02*
G01*
X103913120Y-198004123D01*
X104020306Y-198040228D01*
X104167741Y-198120532D01*
X104292057Y-198227623D01*
X104391775Y-198359504D01*
X104467362Y-198518883D01*
X104513159Y-198694870D01*
X104529049Y-198893673D01*
X104515826Y-199087702D01*
X104478801Y-199249865D01*
X104420750Y-199385495D01*
X104342730Y-199498899D01*
X104244005Y-199593097D01*
X104122109Y-199669605D01*
X103973045Y-199728297D01*
X103973045Y-199179025D01*
X104039865Y-199125739D01*
X104086310Y-199062857D01*
X104114645Y-198988598D01*
X104124583Y-198899718D01*
X104113282Y-198789493D01*
X104082477Y-198705925D01*
X104034288Y-198642697D01*
X103967273Y-198596117D01*
X103876708Y-198565742D01*
X103755287Y-198554466D01*
X103755287Y-199750279D01*
X103695249Y-199750279D01*
X103490134Y-199734670D01*
X103314414Y-199690378D01*
X103205696Y-199643675D01*
X103110855Y-199585979D01*
X103028375Y-199517271D01*
X102957153Y-199436959D01*
X102897687Y-199345045D01*
X102849772Y-199240162D01*
X102804117Y-199069763D01*
X102789587Y-198890239D01*
X103157381Y-198890239D01*
X103165754Y-198971346D01*
X103189898Y-199041703D01*
X103229646Y-199103600D01*
X103282544Y-199155205D01*
X103345759Y-199193811D01*
X103421163Y-199219829D01*
X103421163Y-198570128D01*
X103341399Y-198592507D01*
X103277458Y-198627594D01*
X103226486Y-198675229D01*
X103188995Y-198734196D01*
X103165656Y-198804860D01*
X103157381Y-198890239D01*
X102789587Y-198890239D01*
X102788086Y-198871691D01*
X102804144Y-198670629D01*
X102849772Y-198498412D01*
X102925231Y-198343954D01*
X103025078Y-198216632D01*
X103105519Y-198145532D01*
X103197234Y-198085742D01*
X103301499Y-198037068D01*
X103411618Y-198002768D01*
X103532768Y-197981503D01*
X103666536Y-197974145D01*
X103795725Y-197981837D01*
G37*
G36*
X102849635Y-200073412D02*
G01*
X102849635Y-200644940D01*
X103054616Y-200644940D01*
X102965516Y-200727946D01*
X102903389Y-200806323D01*
X102863511Y-200881108D01*
X102827409Y-201007296D01*
X102814464Y-201161651D01*
X102829144Y-201324064D01*
X102869693Y-201453048D01*
X102936452Y-201565414D01*
X103025902Y-201659403D01*
X103113017Y-201717907D01*
X103208901Y-201753925D01*
X103313610Y-201772519D01*
X103439161Y-201779204D01*
X104467500Y-201779204D01*
X104467500Y-201207676D01*
X103650599Y-201207676D01*
X103536509Y-201202779D01*
X103456746Y-201190228D01*
X103388575Y-201165468D01*
X103338456Y-201128953D01*
X103305948Y-201088551D01*
X103284876Y-201044048D01*
X103269076Y-200943619D01*
X103279620Y-200851002D01*
X103308902Y-200778668D01*
X103355905Y-200721877D01*
X103418093Y-200680933D01*
X103498801Y-200654584D01*
X103603338Y-200644940D01*
X104467500Y-200644940D01*
X104467500Y-200073412D01*
X102849635Y-200073412D01*
G37*
G36*
X102884119Y-204997348D02*
G01*
X102766373Y-204880508D01*
X102685533Y-204754942D01*
X102637407Y-204618385D01*
X102621024Y-204467173D01*
X102633935Y-204332229D01*
X102671719Y-204209985D01*
X102732004Y-204099305D01*
X102809655Y-204006516D01*
X102904394Y-203930929D01*
X103017384Y-203872426D01*
X103141406Y-203835959D01*
X103277319Y-203823517D01*
X103415882Y-203836022D01*
X103540415Y-203872426D01*
X103653590Y-203931162D01*
X103749792Y-204008027D01*
X103828827Y-204102012D01*
X103889239Y-204211496D01*
X103927062Y-204332028D01*
X103939935Y-204464013D01*
X103924700Y-204605862D01*
X103879089Y-204740282D01*
X103801153Y-204870127D01*
X103686319Y-204997348D01*
X104418315Y-204997348D01*
X104440297Y-204934562D01*
X104484881Y-204794409D01*
X104514211Y-204670093D01*
X104531995Y-204547532D01*
X104537841Y-204427743D01*
X104527438Y-204266011D01*
X104496449Y-204109643D01*
X104444693Y-203957331D01*
X104373836Y-203812812D01*
X104286612Y-203681018D01*
X104182422Y-203560833D01*
X104063634Y-203454785D01*
X103930365Y-203363107D01*
X103781253Y-203285511D01*
X103623534Y-203228320D01*
X103455164Y-203193519D01*
X103274159Y-203181646D01*
X103093112Y-203193384D01*
X102925825Y-203227686D01*
X102770225Y-203283862D01*
X102623255Y-203360567D01*
X102492097Y-203451724D01*
X102375376Y-203557674D01*
X102273185Y-203677720D01*
X102187012Y-203809998D01*
X102116403Y-203955683D01*
X102064613Y-204109100D01*
X102033557Y-204267066D01*
X102023117Y-204430903D01*
X102030625Y-204571531D01*
X102053067Y-204709385D01*
X102090234Y-204846987D01*
X102145803Y-204997348D01*
X102884119Y-204997348D01*
G37*
G36*
X102849635Y-205333670D02*
G01*
X102849635Y-205905198D01*
X103116302Y-205905198D01*
X103024704Y-205971976D01*
X102950665Y-206046251D01*
X102892362Y-206128452D01*
X102849797Y-206219461D01*
X102823570Y-206321508D01*
X102814464Y-206436885D01*
X102814464Y-206485657D01*
X102820921Y-206547069D01*
X103369781Y-206547069D01*
X103327475Y-206429654D01*
X103313177Y-206301559D01*
X103327686Y-206174730D01*
X103367600Y-206078048D01*
X103431192Y-206004254D01*
X103515518Y-205952026D01*
X103627621Y-205917852D01*
X103775621Y-205905198D01*
X104467500Y-205905198D01*
X104467500Y-205333670D01*
X102849635Y-205333670D01*
G37*
G36*
X102849635Y-207371388D02*
G01*
X103762844Y-207371388D01*
X103877271Y-207384596D01*
X103958054Y-207419841D01*
X104014204Y-207474696D01*
X104049802Y-207552502D01*
X104063033Y-207661549D01*
X104049802Y-207770596D01*
X104014204Y-207848402D01*
X103958054Y-207903257D01*
X103877271Y-207938501D01*
X103762844Y-207951709D01*
X102849635Y-207951709D01*
X102849635Y-208523238D01*
X103872341Y-208523238D01*
X104033633Y-208508293D01*
X104165893Y-208466389D01*
X104274988Y-208399638D01*
X104364872Y-208306991D01*
X104431486Y-208196719D01*
X104482868Y-208056909D01*
X104516685Y-207881074D01*
X104529049Y-207661549D01*
X104516685Y-207442024D01*
X104482868Y-207266189D01*
X104431486Y-207126379D01*
X104364872Y-207016107D01*
X104274988Y-206923460D01*
X104165893Y-206856709D01*
X104033633Y-206814804D01*
X103872341Y-206799860D01*
X102849635Y-206799860D01*
X102849635Y-207371388D01*
G37*
G36*
X103265916Y-209981459D02*
G01*
X103219238Y-209873925D01*
X103192450Y-209771180D01*
X103183759Y-209671790D01*
X103192289Y-209597785D01*
X103215358Y-209543745D01*
X103252955Y-209506797D01*
X103300675Y-209494836D01*
X103346425Y-209502667D01*
X103379535Y-209537425D01*
X103408111Y-209616423D01*
X103439710Y-209753809D01*
X103482688Y-209907086D01*
X103539586Y-210022542D01*
X103608558Y-210107717D01*
X103695690Y-210171906D01*
X103797931Y-210210968D01*
X103919602Y-210224633D01*
X104056318Y-210210053D01*
X104175278Y-210167893D01*
X104279838Y-210100114D01*
X104366383Y-210010173D01*
X104433892Y-209901379D01*
X104486321Y-209767411D01*
X104517992Y-209621228D01*
X104529049Y-209455406D01*
X104517913Y-209294968D01*
X104484244Y-209134708D01*
X104427044Y-208973233D01*
X104344538Y-208809276D01*
X103941996Y-209017005D01*
X104037707Y-209183200D01*
X104090413Y-209333744D01*
X104106997Y-209472716D01*
X104097697Y-209546805D01*
X104072101Y-209602409D01*
X104031664Y-209640884D01*
X103983349Y-209653105D01*
X103931005Y-209645137D01*
X103892949Y-209611889D01*
X103861350Y-209537563D01*
X103831125Y-209409519D01*
X103784170Y-209235034D01*
X103729970Y-209115764D01*
X103671069Y-209038025D01*
X103594158Y-208980722D01*
X103498209Y-208944934D01*
X103377749Y-208932100D01*
X103246317Y-208945094D01*
X103132102Y-208982521D01*
X103031162Y-209044012D01*
X102946767Y-209127601D01*
X102880431Y-209229942D01*
X102829439Y-209356075D01*
X102798833Y-209494732D01*
X102788086Y-209654204D01*
X102799645Y-209830686D01*
X102834280Y-210003602D01*
X102892500Y-210174350D01*
X103265916Y-209981459D01*
G37*
G36*
X103324443Y-211185240D02*
G01*
X104467500Y-211185240D01*
X104467500Y-210613712D01*
X103324443Y-210613712D01*
X103324443Y-210429064D01*
X102849635Y-210429064D01*
X102849635Y-210613712D01*
X102366034Y-210613712D01*
X102366034Y-211185240D01*
X102849635Y-211185240D01*
X102849635Y-211510572D01*
X103324443Y-211510572D01*
X103324443Y-211185240D01*
G37*
G36*
X103775522Y-211701392D02*
G01*
X103895610Y-211725744D01*
X104006155Y-211765424D01*
X104110131Y-211820178D01*
X104202997Y-211886623D01*
X104285737Y-211965184D01*
X104356886Y-212054400D01*
X104416907Y-212155133D01*
X104465851Y-212268671D01*
X104512844Y-212450361D01*
X104529049Y-212652667D01*
X104512880Y-212858239D01*
X104465851Y-213044356D01*
X104416871Y-213161190D01*
X104357311Y-213263972D01*
X104287248Y-213354163D01*
X104161189Y-213469198D01*
X104012475Y-213557083D01*
X103903954Y-213597784D01*
X103787048Y-213622629D01*
X103660216Y-213631134D01*
X103533222Y-213622807D01*
X103416261Y-213598499D01*
X103307819Y-213558731D01*
X103206152Y-213503850D01*
X103114860Y-213436412D01*
X103033046Y-213355811D01*
X102931223Y-213215028D01*
X102852932Y-213047516D01*
X102804669Y-212864447D01*
X102788097Y-212662146D01*
X103286799Y-212662146D01*
X103293957Y-212735719D01*
X103315238Y-212804891D01*
X103349448Y-212868048D01*
X103394373Y-212921120D01*
X103449008Y-212964895D01*
X103513075Y-212999705D01*
X103582855Y-213022027D01*
X103656919Y-213029518D01*
X103733842Y-213021949D01*
X103804060Y-212999705D01*
X103868127Y-212964895D01*
X103922762Y-212921120D01*
X103967687Y-212868048D01*
X104001896Y-212804891D01*
X104023177Y-212735719D01*
X104030335Y-212662146D01*
X104023180Y-212588554D01*
X104001896Y-212519264D01*
X103967701Y-212456197D01*
X103922762Y-212403035D01*
X103868142Y-212359339D01*
X103804060Y-212324450D01*
X103733430Y-212302280D01*
X103653759Y-212294637D01*
X103579931Y-212302166D01*
X103511564Y-212324450D01*
X103448754Y-212359249D01*
X103394373Y-212403035D01*
X103349433Y-212456197D01*
X103315238Y-212519264D01*
X103293954Y-212588554D01*
X103286799Y-212662146D01*
X102788097Y-212662146D01*
X102788086Y-212662009D01*
X102795732Y-212522732D01*
X102818051Y-212393651D01*
X102854443Y-212273480D01*
X102934087Y-212106171D01*
X103036206Y-211966695D01*
X103161800Y-211851901D01*
X103307819Y-211765424D01*
X103414086Y-211725378D01*
X103525823Y-211701210D01*
X103644279Y-211693021D01*
X103775522Y-211701392D01*
G37*
G36*
X103265916Y-215035088D02*
G01*
X103219238Y-214927553D01*
X103192450Y-214824809D01*
X103183759Y-214725418D01*
X103192289Y-214651414D01*
X103215358Y-214597374D01*
X103252955Y-214560425D01*
X103300675Y-214548464D01*
X103346425Y-214556295D01*
X103379535Y-214591054D01*
X103408111Y-214670051D01*
X103439710Y-214807438D01*
X103482688Y-214960715D01*
X103539586Y-215076171D01*
X103608558Y-215161346D01*
X103695690Y-215225535D01*
X103797931Y-215264597D01*
X103919602Y-215278262D01*
X104056318Y-215263681D01*
X104175278Y-215221521D01*
X104279838Y-215153742D01*
X104366383Y-215063801D01*
X104433892Y-214955008D01*
X104486321Y-214821039D01*
X104517992Y-214674856D01*
X104529049Y-214509034D01*
X104517913Y-214348597D01*
X104484244Y-214188337D01*
X104427044Y-214026861D01*
X104344538Y-213862905D01*
X103941996Y-214070634D01*
X104037707Y-214236829D01*
X104090413Y-214387373D01*
X104106997Y-214526345D01*
X104097697Y-214600433D01*
X104072101Y-214656038D01*
X104031664Y-214694512D01*
X103983349Y-214706734D01*
X103931005Y-214698765D01*
X103892949Y-214665518D01*
X103861350Y-214591192D01*
X103831125Y-214463147D01*
X103784170Y-214288662D01*
X103729970Y-214169393D01*
X103671069Y-214091654D01*
X103594158Y-214034351D01*
X103498209Y-213998562D01*
X103377749Y-213985729D01*
X103246317Y-213998723D01*
X103132102Y-214036150D01*
X103031162Y-214097641D01*
X102946767Y-214181230D01*
X102880431Y-214283570D01*
X102829439Y-214409704D01*
X102798833Y-214548361D01*
X102788086Y-214707833D01*
X102799645Y-214884314D01*
X102834280Y-215057231D01*
X102892500Y-215227978D01*
X103265916Y-215035088D01*
G37*
G36*
X103795725Y-215507971D02*
G01*
X103913120Y-215530257D01*
X104020306Y-215566362D01*
X104167741Y-215646666D01*
X104292057Y-215753757D01*
X104391775Y-215885638D01*
X104467362Y-216045017D01*
X104513159Y-216221004D01*
X104529049Y-216419807D01*
X104515826Y-216613836D01*
X104478801Y-216775999D01*
X104420750Y-216911629D01*
X104342730Y-217025033D01*
X104244005Y-217119231D01*
X104122109Y-217195739D01*
X103973045Y-217254431D01*
X103973045Y-216705159D01*
X104039865Y-216651873D01*
X104086310Y-216588991D01*
X104114645Y-216514732D01*
X104124583Y-216425852D01*
X104113282Y-216315627D01*
X104082477Y-216232059D01*
X104034288Y-216168831D01*
X103967273Y-216122251D01*
X103876708Y-216091876D01*
X103755287Y-216080600D01*
X103755287Y-217276413D01*
X103695249Y-217276413D01*
X103490134Y-217260804D01*
X103314414Y-217216512D01*
X103205696Y-217169809D01*
X103110855Y-217112113D01*
X103028375Y-217043405D01*
X102957153Y-216963093D01*
X102897687Y-216871179D01*
X102849772Y-216766296D01*
X102804117Y-216595897D01*
X102789587Y-216416373D01*
X103157381Y-216416373D01*
X103165754Y-216497480D01*
X103189898Y-216567837D01*
X103229646Y-216629734D01*
X103282544Y-216681339D01*
X103345759Y-216719945D01*
X103421163Y-216745963D01*
X103421163Y-216096262D01*
X103341399Y-216118641D01*
X103277458Y-216153728D01*
X103226486Y-216201363D01*
X103188995Y-216260330D01*
X103165656Y-216330994D01*
X103157381Y-216416373D01*
X102789587Y-216416373D01*
X102788086Y-216397825D01*
X102804144Y-216196763D01*
X102849772Y-216024546D01*
X102925231Y-215870088D01*
X103025078Y-215742766D01*
X103105519Y-215671666D01*
X103197234Y-215611876D01*
X103301499Y-215563202D01*
X103411618Y-215528902D01*
X103532768Y-215507637D01*
X103666536Y-215500279D01*
X103795725Y-215507971D01*
G37*
D13*
X126021428Y-143974819D02*
X125830952Y-143974819D01*
X125830952Y-143974819D02*
X125735714Y-144022438D01*
X125735714Y-144022438D02*
X125640476Y-144117676D01*
X125640476Y-144117676D02*
X125592857Y-144308152D01*
X125592857Y-144308152D02*
X125592857Y-144641485D01*
X125592857Y-144641485D02*
X125640476Y-144831961D01*
X125640476Y-144831961D02*
X125735714Y-144927200D01*
X125735714Y-144927200D02*
X125830952Y-144974819D01*
X125830952Y-144974819D02*
X126021428Y-144974819D01*
X126021428Y-144974819D02*
X126116666Y-144927200D01*
X126116666Y-144927200D02*
X126211904Y-144831961D01*
X126211904Y-144831961D02*
X126259523Y-144641485D01*
X126259523Y-144641485D02*
X126259523Y-144308152D01*
X126259523Y-144308152D02*
X126211904Y-144117676D01*
X126211904Y-144117676D02*
X126116666Y-144022438D01*
X126116666Y-144022438D02*
X126021428Y-143974819D01*
X125164285Y-144974819D02*
X125164285Y-143974819D01*
X125164285Y-143974819D02*
X124783333Y-143974819D01*
X124783333Y-143974819D02*
X124688095Y-144022438D01*
X124688095Y-144022438D02*
X124640476Y-144070057D01*
X124640476Y-144070057D02*
X124592857Y-144165295D01*
X124592857Y-144165295D02*
X124592857Y-144308152D01*
X124592857Y-144308152D02*
X124640476Y-144403390D01*
X124640476Y-144403390D02*
X124688095Y-144451009D01*
X124688095Y-144451009D02*
X124783333Y-144498628D01*
X124783333Y-144498628D02*
X125164285Y-144498628D01*
X124259523Y-143974819D02*
X123640476Y-143974819D01*
X123640476Y-143974819D02*
X123973809Y-144355771D01*
X123973809Y-144355771D02*
X123830952Y-144355771D01*
X123830952Y-144355771D02*
X123735714Y-144403390D01*
X123735714Y-144403390D02*
X123688095Y-144451009D01*
X123688095Y-144451009D02*
X123640476Y-144546247D01*
X123640476Y-144546247D02*
X123640476Y-144784342D01*
X123640476Y-144784342D02*
X123688095Y-144879580D01*
X123688095Y-144879580D02*
X123735714Y-144927200D01*
X123735714Y-144927200D02*
X123830952Y-144974819D01*
X123830952Y-144974819D02*
X124116666Y-144974819D01*
X124116666Y-144974819D02*
X124211904Y-144927200D01*
X124211904Y-144927200D02*
X124259523Y-144879580D01*
X135104819Y-143257142D02*
X134628628Y-142923809D01*
X135104819Y-142685714D02*
X134104819Y-142685714D01*
X134104819Y-142685714D02*
X134104819Y-143066666D01*
X134104819Y-143066666D02*
X134152438Y-143161904D01*
X134152438Y-143161904D02*
X134200057Y-143209523D01*
X134200057Y-143209523D02*
X134295295Y-143257142D01*
X134295295Y-143257142D02*
X134438152Y-143257142D01*
X134438152Y-143257142D02*
X134533390Y-143209523D01*
X134533390Y-143209523D02*
X134581009Y-143161904D01*
X134581009Y-143161904D02*
X134628628Y-143066666D01*
X134628628Y-143066666D02*
X134628628Y-142685714D01*
X134200057Y-143638095D02*
X134152438Y-143685714D01*
X134152438Y-143685714D02*
X134104819Y-143780952D01*
X134104819Y-143780952D02*
X134104819Y-144019047D01*
X134104819Y-144019047D02*
X134152438Y-144114285D01*
X134152438Y-144114285D02*
X134200057Y-144161904D01*
X134200057Y-144161904D02*
X134295295Y-144209523D01*
X134295295Y-144209523D02*
X134390533Y-144209523D01*
X134390533Y-144209523D02*
X134533390Y-144161904D01*
X134533390Y-144161904D02*
X135104819Y-143590476D01*
X135104819Y-143590476D02*
X135104819Y-144209523D01*
X134104819Y-145114285D02*
X134104819Y-144638095D01*
X134104819Y-144638095D02*
X134581009Y-144590476D01*
X134581009Y-144590476D02*
X134533390Y-144638095D01*
X134533390Y-144638095D02*
X134485771Y-144733333D01*
X134485771Y-144733333D02*
X134485771Y-144971428D01*
X134485771Y-144971428D02*
X134533390Y-145066666D01*
X134533390Y-145066666D02*
X134581009Y-145114285D01*
X134581009Y-145114285D02*
X134676247Y-145161904D01*
X134676247Y-145161904D02*
X134914342Y-145161904D01*
X134914342Y-145161904D02*
X135009580Y-145114285D01*
X135009580Y-145114285D02*
X135057200Y-145066666D01*
X135057200Y-145066666D02*
X135104819Y-144971428D01*
X135104819Y-144971428D02*
X135104819Y-144733333D01*
X135104819Y-144733333D02*
X135057200Y-144638095D01*
X135057200Y-144638095D02*
X135009580Y-144590476D01*
X131242857Y-188154819D02*
X131576190Y-187678628D01*
X131814285Y-188154819D02*
X131814285Y-187154819D01*
X131814285Y-187154819D02*
X131433333Y-187154819D01*
X131433333Y-187154819D02*
X131338095Y-187202438D01*
X131338095Y-187202438D02*
X131290476Y-187250057D01*
X131290476Y-187250057D02*
X131242857Y-187345295D01*
X131242857Y-187345295D02*
X131242857Y-187488152D01*
X131242857Y-187488152D02*
X131290476Y-187583390D01*
X131290476Y-187583390D02*
X131338095Y-187631009D01*
X131338095Y-187631009D02*
X131433333Y-187678628D01*
X131433333Y-187678628D02*
X131814285Y-187678628D01*
X130290476Y-188154819D02*
X130861904Y-188154819D01*
X130576190Y-188154819D02*
X130576190Y-187154819D01*
X130576190Y-187154819D02*
X130671428Y-187297676D01*
X130671428Y-187297676D02*
X130766666Y-187392914D01*
X130766666Y-187392914D02*
X130861904Y-187440533D01*
X129385714Y-187154819D02*
X129861904Y-187154819D01*
X129861904Y-187154819D02*
X129909523Y-187631009D01*
X129909523Y-187631009D02*
X129861904Y-187583390D01*
X129861904Y-187583390D02*
X129766666Y-187535771D01*
X129766666Y-187535771D02*
X129528571Y-187535771D01*
X129528571Y-187535771D02*
X129433333Y-187583390D01*
X129433333Y-187583390D02*
X129385714Y-187631009D01*
X129385714Y-187631009D02*
X129338095Y-187726247D01*
X129338095Y-187726247D02*
X129338095Y-187964342D01*
X129338095Y-187964342D02*
X129385714Y-188059580D01*
X129385714Y-188059580D02*
X129433333Y-188107200D01*
X129433333Y-188107200D02*
X129528571Y-188154819D01*
X129528571Y-188154819D02*
X129766666Y-188154819D01*
X129766666Y-188154819D02*
X129861904Y-188107200D01*
X129861904Y-188107200D02*
X129909523Y-188059580D01*
X115559580Y-146133333D02*
X115607200Y-146085714D01*
X115607200Y-146085714D02*
X115654819Y-145942857D01*
X115654819Y-145942857D02*
X115654819Y-145847619D01*
X115654819Y-145847619D02*
X115607200Y-145704762D01*
X115607200Y-145704762D02*
X115511961Y-145609524D01*
X115511961Y-145609524D02*
X115416723Y-145561905D01*
X115416723Y-145561905D02*
X115226247Y-145514286D01*
X115226247Y-145514286D02*
X115083390Y-145514286D01*
X115083390Y-145514286D02*
X114892914Y-145561905D01*
X114892914Y-145561905D02*
X114797676Y-145609524D01*
X114797676Y-145609524D02*
X114702438Y-145704762D01*
X114702438Y-145704762D02*
X114654819Y-145847619D01*
X114654819Y-145847619D02*
X114654819Y-145942857D01*
X114654819Y-145942857D02*
X114702438Y-146085714D01*
X114702438Y-146085714D02*
X114750057Y-146133333D01*
X114654819Y-146990476D02*
X114654819Y-146800000D01*
X114654819Y-146800000D02*
X114702438Y-146704762D01*
X114702438Y-146704762D02*
X114750057Y-146657143D01*
X114750057Y-146657143D02*
X114892914Y-146561905D01*
X114892914Y-146561905D02*
X115083390Y-146514286D01*
X115083390Y-146514286D02*
X115464342Y-146514286D01*
X115464342Y-146514286D02*
X115559580Y-146561905D01*
X115559580Y-146561905D02*
X115607200Y-146609524D01*
X115607200Y-146609524D02*
X115654819Y-146704762D01*
X115654819Y-146704762D02*
X115654819Y-146895238D01*
X115654819Y-146895238D02*
X115607200Y-146990476D01*
X115607200Y-146990476D02*
X115559580Y-147038095D01*
X115559580Y-147038095D02*
X115464342Y-147085714D01*
X115464342Y-147085714D02*
X115226247Y-147085714D01*
X115226247Y-147085714D02*
X115131009Y-147038095D01*
X115131009Y-147038095D02*
X115083390Y-146990476D01*
X115083390Y-146990476D02*
X115035771Y-146895238D01*
X115035771Y-146895238D02*
X115035771Y-146704762D01*
X115035771Y-146704762D02*
X115083390Y-146609524D01*
X115083390Y-146609524D02*
X115131009Y-146561905D01*
X115131009Y-146561905D02*
X115226247Y-146514286D01*
X135992857Y-152004819D02*
X136326190Y-151528628D01*
X136564285Y-152004819D02*
X136564285Y-151004819D01*
X136564285Y-151004819D02*
X136183333Y-151004819D01*
X136183333Y-151004819D02*
X136088095Y-151052438D01*
X136088095Y-151052438D02*
X136040476Y-151100057D01*
X136040476Y-151100057D02*
X135992857Y-151195295D01*
X135992857Y-151195295D02*
X135992857Y-151338152D01*
X135992857Y-151338152D02*
X136040476Y-151433390D01*
X136040476Y-151433390D02*
X136088095Y-151481009D01*
X136088095Y-151481009D02*
X136183333Y-151528628D01*
X136183333Y-151528628D02*
X136564285Y-151528628D01*
X135040476Y-152004819D02*
X135611904Y-152004819D01*
X135326190Y-152004819D02*
X135326190Y-151004819D01*
X135326190Y-151004819D02*
X135421428Y-151147676D01*
X135421428Y-151147676D02*
X135516666Y-151242914D01*
X135516666Y-151242914D02*
X135611904Y-151290533D01*
X134469047Y-151433390D02*
X134564285Y-151385771D01*
X134564285Y-151385771D02*
X134611904Y-151338152D01*
X134611904Y-151338152D02*
X134659523Y-151242914D01*
X134659523Y-151242914D02*
X134659523Y-151195295D01*
X134659523Y-151195295D02*
X134611904Y-151100057D01*
X134611904Y-151100057D02*
X134564285Y-151052438D01*
X134564285Y-151052438D02*
X134469047Y-151004819D01*
X134469047Y-151004819D02*
X134278571Y-151004819D01*
X134278571Y-151004819D02*
X134183333Y-151052438D01*
X134183333Y-151052438D02*
X134135714Y-151100057D01*
X134135714Y-151100057D02*
X134088095Y-151195295D01*
X134088095Y-151195295D02*
X134088095Y-151242914D01*
X134088095Y-151242914D02*
X134135714Y-151338152D01*
X134135714Y-151338152D02*
X134183333Y-151385771D01*
X134183333Y-151385771D02*
X134278571Y-151433390D01*
X134278571Y-151433390D02*
X134469047Y-151433390D01*
X134469047Y-151433390D02*
X134564285Y-151481009D01*
X134564285Y-151481009D02*
X134611904Y-151528628D01*
X134611904Y-151528628D02*
X134659523Y-151623866D01*
X134659523Y-151623866D02*
X134659523Y-151814342D01*
X134659523Y-151814342D02*
X134611904Y-151909580D01*
X134611904Y-151909580D02*
X134564285Y-151957200D01*
X134564285Y-151957200D02*
X134469047Y-152004819D01*
X134469047Y-152004819D02*
X134278571Y-152004819D01*
X134278571Y-152004819D02*
X134183333Y-151957200D01*
X134183333Y-151957200D02*
X134135714Y-151909580D01*
X134135714Y-151909580D02*
X134088095Y-151814342D01*
X134088095Y-151814342D02*
X134088095Y-151623866D01*
X134088095Y-151623866D02*
X134135714Y-151528628D01*
X134135714Y-151528628D02*
X134183333Y-151481009D01*
X134183333Y-151481009D02*
X134278571Y-151433390D01*
X123366666Y-199254819D02*
X123699999Y-198778628D01*
X123938094Y-199254819D02*
X123938094Y-198254819D01*
X123938094Y-198254819D02*
X123557142Y-198254819D01*
X123557142Y-198254819D02*
X123461904Y-198302438D01*
X123461904Y-198302438D02*
X123414285Y-198350057D01*
X123414285Y-198350057D02*
X123366666Y-198445295D01*
X123366666Y-198445295D02*
X123366666Y-198588152D01*
X123366666Y-198588152D02*
X123414285Y-198683390D01*
X123414285Y-198683390D02*
X123461904Y-198731009D01*
X123461904Y-198731009D02*
X123557142Y-198778628D01*
X123557142Y-198778628D02*
X123938094Y-198778628D01*
X122509523Y-198254819D02*
X122699999Y-198254819D01*
X122699999Y-198254819D02*
X122795237Y-198302438D01*
X122795237Y-198302438D02*
X122842856Y-198350057D01*
X122842856Y-198350057D02*
X122938094Y-198492914D01*
X122938094Y-198492914D02*
X122985713Y-198683390D01*
X122985713Y-198683390D02*
X122985713Y-199064342D01*
X122985713Y-199064342D02*
X122938094Y-199159580D01*
X122938094Y-199159580D02*
X122890475Y-199207200D01*
X122890475Y-199207200D02*
X122795237Y-199254819D01*
X122795237Y-199254819D02*
X122604761Y-199254819D01*
X122604761Y-199254819D02*
X122509523Y-199207200D01*
X122509523Y-199207200D02*
X122461904Y-199159580D01*
X122461904Y-199159580D02*
X122414285Y-199064342D01*
X122414285Y-199064342D02*
X122414285Y-198826247D01*
X122414285Y-198826247D02*
X122461904Y-198731009D01*
X122461904Y-198731009D02*
X122509523Y-198683390D01*
X122509523Y-198683390D02*
X122604761Y-198635771D01*
X122604761Y-198635771D02*
X122795237Y-198635771D01*
X122795237Y-198635771D02*
X122890475Y-198683390D01*
X122890475Y-198683390D02*
X122938094Y-198731009D01*
X122938094Y-198731009D02*
X122985713Y-198826247D01*
X111242857Y-150204819D02*
X111576190Y-149728628D01*
X111814285Y-150204819D02*
X111814285Y-149204819D01*
X111814285Y-149204819D02*
X111433333Y-149204819D01*
X111433333Y-149204819D02*
X111338095Y-149252438D01*
X111338095Y-149252438D02*
X111290476Y-149300057D01*
X111290476Y-149300057D02*
X111242857Y-149395295D01*
X111242857Y-149395295D02*
X111242857Y-149538152D01*
X111242857Y-149538152D02*
X111290476Y-149633390D01*
X111290476Y-149633390D02*
X111338095Y-149681009D01*
X111338095Y-149681009D02*
X111433333Y-149728628D01*
X111433333Y-149728628D02*
X111814285Y-149728628D01*
X110909523Y-149204819D02*
X110290476Y-149204819D01*
X110290476Y-149204819D02*
X110623809Y-149585771D01*
X110623809Y-149585771D02*
X110480952Y-149585771D01*
X110480952Y-149585771D02*
X110385714Y-149633390D01*
X110385714Y-149633390D02*
X110338095Y-149681009D01*
X110338095Y-149681009D02*
X110290476Y-149776247D01*
X110290476Y-149776247D02*
X110290476Y-150014342D01*
X110290476Y-150014342D02*
X110338095Y-150109580D01*
X110338095Y-150109580D02*
X110385714Y-150157200D01*
X110385714Y-150157200D02*
X110480952Y-150204819D01*
X110480952Y-150204819D02*
X110766666Y-150204819D01*
X110766666Y-150204819D02*
X110861904Y-150157200D01*
X110861904Y-150157200D02*
X110909523Y-150109580D01*
X109433333Y-149204819D02*
X109623809Y-149204819D01*
X109623809Y-149204819D02*
X109719047Y-149252438D01*
X109719047Y-149252438D02*
X109766666Y-149300057D01*
X109766666Y-149300057D02*
X109861904Y-149442914D01*
X109861904Y-149442914D02*
X109909523Y-149633390D01*
X109909523Y-149633390D02*
X109909523Y-150014342D01*
X109909523Y-150014342D02*
X109861904Y-150109580D01*
X109861904Y-150109580D02*
X109814285Y-150157200D01*
X109814285Y-150157200D02*
X109719047Y-150204819D01*
X109719047Y-150204819D02*
X109528571Y-150204819D01*
X109528571Y-150204819D02*
X109433333Y-150157200D01*
X109433333Y-150157200D02*
X109385714Y-150109580D01*
X109385714Y-150109580D02*
X109338095Y-150014342D01*
X109338095Y-150014342D02*
X109338095Y-149776247D01*
X109338095Y-149776247D02*
X109385714Y-149681009D01*
X109385714Y-149681009D02*
X109433333Y-149633390D01*
X109433333Y-149633390D02*
X109528571Y-149585771D01*
X109528571Y-149585771D02*
X109719047Y-149585771D01*
X109719047Y-149585771D02*
X109814285Y-149633390D01*
X109814285Y-149633390D02*
X109861904Y-149681009D01*
X109861904Y-149681009D02*
X109909523Y-149776247D01*
X143181904Y-180344819D02*
X143181904Y-181154342D01*
X143181904Y-181154342D02*
X143134285Y-181249580D01*
X143134285Y-181249580D02*
X143086666Y-181297200D01*
X143086666Y-181297200D02*
X142991428Y-181344819D01*
X142991428Y-181344819D02*
X142800952Y-181344819D01*
X142800952Y-181344819D02*
X142705714Y-181297200D01*
X142705714Y-181297200D02*
X142658095Y-181249580D01*
X142658095Y-181249580D02*
X142610476Y-181154342D01*
X142610476Y-181154342D02*
X142610476Y-180344819D01*
X141610476Y-181344819D02*
X142181904Y-181344819D01*
X141896190Y-181344819D02*
X141896190Y-180344819D01*
X141896190Y-180344819D02*
X141991428Y-180487676D01*
X141991428Y-180487676D02*
X142086666Y-180582914D01*
X142086666Y-180582914D02*
X142181904Y-180630533D01*
D14*
X145260951Y-187011266D02*
X144499047Y-187011266D01*
X144879999Y-187392219D02*
X144879999Y-186630314D01*
X145270951Y-183211266D02*
X144509047Y-183211266D01*
D13*
X133454819Y-143257142D02*
X132978628Y-142923809D01*
X133454819Y-142685714D02*
X132454819Y-142685714D01*
X132454819Y-142685714D02*
X132454819Y-143066666D01*
X132454819Y-143066666D02*
X132502438Y-143161904D01*
X132502438Y-143161904D02*
X132550057Y-143209523D01*
X132550057Y-143209523D02*
X132645295Y-143257142D01*
X132645295Y-143257142D02*
X132788152Y-143257142D01*
X132788152Y-143257142D02*
X132883390Y-143209523D01*
X132883390Y-143209523D02*
X132931009Y-143161904D01*
X132931009Y-143161904D02*
X132978628Y-143066666D01*
X132978628Y-143066666D02*
X132978628Y-142685714D01*
X132550057Y-143638095D02*
X132502438Y-143685714D01*
X132502438Y-143685714D02*
X132454819Y-143780952D01*
X132454819Y-143780952D02*
X132454819Y-144019047D01*
X132454819Y-144019047D02*
X132502438Y-144114285D01*
X132502438Y-144114285D02*
X132550057Y-144161904D01*
X132550057Y-144161904D02*
X132645295Y-144209523D01*
X132645295Y-144209523D02*
X132740533Y-144209523D01*
X132740533Y-144209523D02*
X132883390Y-144161904D01*
X132883390Y-144161904D02*
X133454819Y-143590476D01*
X133454819Y-143590476D02*
X133454819Y-144209523D01*
X132454819Y-145066666D02*
X132454819Y-144876190D01*
X132454819Y-144876190D02*
X132502438Y-144780952D01*
X132502438Y-144780952D02*
X132550057Y-144733333D01*
X132550057Y-144733333D02*
X132692914Y-144638095D01*
X132692914Y-144638095D02*
X132883390Y-144590476D01*
X132883390Y-144590476D02*
X133264342Y-144590476D01*
X133264342Y-144590476D02*
X133359580Y-144638095D01*
X133359580Y-144638095D02*
X133407200Y-144685714D01*
X133407200Y-144685714D02*
X133454819Y-144780952D01*
X133454819Y-144780952D02*
X133454819Y-144971428D01*
X133454819Y-144971428D02*
X133407200Y-145066666D01*
X133407200Y-145066666D02*
X133359580Y-145114285D01*
X133359580Y-145114285D02*
X133264342Y-145161904D01*
X133264342Y-145161904D02*
X133026247Y-145161904D01*
X133026247Y-145161904D02*
X132931009Y-145114285D01*
X132931009Y-145114285D02*
X132883390Y-145066666D01*
X132883390Y-145066666D02*
X132835771Y-144971428D01*
X132835771Y-144971428D02*
X132835771Y-144780952D01*
X132835771Y-144780952D02*
X132883390Y-144685714D01*
X132883390Y-144685714D02*
X132931009Y-144638095D01*
X132931009Y-144638095D02*
X133026247Y-144590476D01*
X122566666Y-172559580D02*
X122614285Y-172607200D01*
X122614285Y-172607200D02*
X122757142Y-172654819D01*
X122757142Y-172654819D02*
X122852380Y-172654819D01*
X122852380Y-172654819D02*
X122995237Y-172607200D01*
X122995237Y-172607200D02*
X123090475Y-172511961D01*
X123090475Y-172511961D02*
X123138094Y-172416723D01*
X123138094Y-172416723D02*
X123185713Y-172226247D01*
X123185713Y-172226247D02*
X123185713Y-172083390D01*
X123185713Y-172083390D02*
X123138094Y-171892914D01*
X123138094Y-171892914D02*
X123090475Y-171797676D01*
X123090475Y-171797676D02*
X122995237Y-171702438D01*
X122995237Y-171702438D02*
X122852380Y-171654819D01*
X122852380Y-171654819D02*
X122757142Y-171654819D01*
X122757142Y-171654819D02*
X122614285Y-171702438D01*
X122614285Y-171702438D02*
X122566666Y-171750057D01*
X122185713Y-171750057D02*
X122138094Y-171702438D01*
X122138094Y-171702438D02*
X122042856Y-171654819D01*
X122042856Y-171654819D02*
X121804761Y-171654819D01*
X121804761Y-171654819D02*
X121709523Y-171702438D01*
X121709523Y-171702438D02*
X121661904Y-171750057D01*
X121661904Y-171750057D02*
X121614285Y-171845295D01*
X121614285Y-171845295D02*
X121614285Y-171940533D01*
X121614285Y-171940533D02*
X121661904Y-172083390D01*
X121661904Y-172083390D02*
X122233332Y-172654819D01*
X122233332Y-172654819D02*
X121614285Y-172654819D01*
X140642857Y-136954819D02*
X140976190Y-136478628D01*
X141214285Y-136954819D02*
X141214285Y-135954819D01*
X141214285Y-135954819D02*
X140833333Y-135954819D01*
X140833333Y-135954819D02*
X140738095Y-136002438D01*
X140738095Y-136002438D02*
X140690476Y-136050057D01*
X140690476Y-136050057D02*
X140642857Y-136145295D01*
X140642857Y-136145295D02*
X140642857Y-136288152D01*
X140642857Y-136288152D02*
X140690476Y-136383390D01*
X140690476Y-136383390D02*
X140738095Y-136431009D01*
X140738095Y-136431009D02*
X140833333Y-136478628D01*
X140833333Y-136478628D02*
X141214285Y-136478628D01*
X139690476Y-136954819D02*
X140261904Y-136954819D01*
X139976190Y-136954819D02*
X139976190Y-135954819D01*
X139976190Y-135954819D02*
X140071428Y-136097676D01*
X140071428Y-136097676D02*
X140166666Y-136192914D01*
X140166666Y-136192914D02*
X140261904Y-136240533D01*
X138833333Y-136288152D02*
X138833333Y-136954819D01*
X139071428Y-135907200D02*
X139309523Y-136621485D01*
X139309523Y-136621485D02*
X138690476Y-136621485D01*
X108654819Y-203283333D02*
X108178628Y-202950000D01*
X108654819Y-202711905D02*
X107654819Y-202711905D01*
X107654819Y-202711905D02*
X107654819Y-203092857D01*
X107654819Y-203092857D02*
X107702438Y-203188095D01*
X107702438Y-203188095D02*
X107750057Y-203235714D01*
X107750057Y-203235714D02*
X107845295Y-203283333D01*
X107845295Y-203283333D02*
X107988152Y-203283333D01*
X107988152Y-203283333D02*
X108083390Y-203235714D01*
X108083390Y-203235714D02*
X108131009Y-203188095D01*
X108131009Y-203188095D02*
X108178628Y-203092857D01*
X108178628Y-203092857D02*
X108178628Y-202711905D01*
X107654819Y-203616667D02*
X107654819Y-204283333D01*
X107654819Y-204283333D02*
X108654819Y-203854762D01*
X113542857Y-133604819D02*
X113876190Y-133128628D01*
X114114285Y-133604819D02*
X114114285Y-132604819D01*
X114114285Y-132604819D02*
X113733333Y-132604819D01*
X113733333Y-132604819D02*
X113638095Y-132652438D01*
X113638095Y-132652438D02*
X113590476Y-132700057D01*
X113590476Y-132700057D02*
X113542857Y-132795295D01*
X113542857Y-132795295D02*
X113542857Y-132938152D01*
X113542857Y-132938152D02*
X113590476Y-133033390D01*
X113590476Y-133033390D02*
X113638095Y-133081009D01*
X113638095Y-133081009D02*
X113733333Y-133128628D01*
X113733333Y-133128628D02*
X114114285Y-133128628D01*
X112685714Y-132938152D02*
X112685714Y-133604819D01*
X112923809Y-132557200D02*
X113161904Y-133271485D01*
X113161904Y-133271485D02*
X112542857Y-133271485D01*
X111971428Y-132604819D02*
X111876190Y-132604819D01*
X111876190Y-132604819D02*
X111780952Y-132652438D01*
X111780952Y-132652438D02*
X111733333Y-132700057D01*
X111733333Y-132700057D02*
X111685714Y-132795295D01*
X111685714Y-132795295D02*
X111638095Y-132985771D01*
X111638095Y-132985771D02*
X111638095Y-133223866D01*
X111638095Y-133223866D02*
X111685714Y-133414342D01*
X111685714Y-133414342D02*
X111733333Y-133509580D01*
X111733333Y-133509580D02*
X111780952Y-133557200D01*
X111780952Y-133557200D02*
X111876190Y-133604819D01*
X111876190Y-133604819D02*
X111971428Y-133604819D01*
X111971428Y-133604819D02*
X112066666Y-133557200D01*
X112066666Y-133557200D02*
X112114285Y-133509580D01*
X112114285Y-133509580D02*
X112161904Y-133414342D01*
X112161904Y-133414342D02*
X112209523Y-133223866D01*
X112209523Y-133223866D02*
X112209523Y-132985771D01*
X112209523Y-132985771D02*
X112161904Y-132795295D01*
X112161904Y-132795295D02*
X112114285Y-132700057D01*
X112114285Y-132700057D02*
X112066666Y-132652438D01*
X112066666Y-132652438D02*
X111971428Y-132604819D01*
X113454819Y-206633333D02*
X112978628Y-206300000D01*
X113454819Y-206061905D02*
X112454819Y-206061905D01*
X112454819Y-206061905D02*
X112454819Y-206442857D01*
X112454819Y-206442857D02*
X112502438Y-206538095D01*
X112502438Y-206538095D02*
X112550057Y-206585714D01*
X112550057Y-206585714D02*
X112645295Y-206633333D01*
X112645295Y-206633333D02*
X112788152Y-206633333D01*
X112788152Y-206633333D02*
X112883390Y-206585714D01*
X112883390Y-206585714D02*
X112931009Y-206538095D01*
X112931009Y-206538095D02*
X112978628Y-206442857D01*
X112978628Y-206442857D02*
X112978628Y-206061905D01*
X112454819Y-206966667D02*
X112454819Y-207585714D01*
X112454819Y-207585714D02*
X112835771Y-207252381D01*
X112835771Y-207252381D02*
X112835771Y-207395238D01*
X112835771Y-207395238D02*
X112883390Y-207490476D01*
X112883390Y-207490476D02*
X112931009Y-207538095D01*
X112931009Y-207538095D02*
X113026247Y-207585714D01*
X113026247Y-207585714D02*
X113264342Y-207585714D01*
X113264342Y-207585714D02*
X113359580Y-207538095D01*
X113359580Y-207538095D02*
X113407200Y-207490476D01*
X113407200Y-207490476D02*
X113454819Y-207395238D01*
X113454819Y-207395238D02*
X113454819Y-207109524D01*
X113454819Y-207109524D02*
X113407200Y-207014286D01*
X113407200Y-207014286D02*
X113359580Y-206966667D01*
X115509580Y-152933333D02*
X115557200Y-152885714D01*
X115557200Y-152885714D02*
X115604819Y-152742857D01*
X115604819Y-152742857D02*
X115604819Y-152647619D01*
X115604819Y-152647619D02*
X115557200Y-152504762D01*
X115557200Y-152504762D02*
X115461961Y-152409524D01*
X115461961Y-152409524D02*
X115366723Y-152361905D01*
X115366723Y-152361905D02*
X115176247Y-152314286D01*
X115176247Y-152314286D02*
X115033390Y-152314286D01*
X115033390Y-152314286D02*
X114842914Y-152361905D01*
X114842914Y-152361905D02*
X114747676Y-152409524D01*
X114747676Y-152409524D02*
X114652438Y-152504762D01*
X114652438Y-152504762D02*
X114604819Y-152647619D01*
X114604819Y-152647619D02*
X114604819Y-152742857D01*
X114604819Y-152742857D02*
X114652438Y-152885714D01*
X114652438Y-152885714D02*
X114700057Y-152933333D01*
X114938152Y-153790476D02*
X115604819Y-153790476D01*
X114557200Y-153552381D02*
X115271485Y-153314286D01*
X115271485Y-153314286D02*
X115271485Y-153933333D01*
X113542857Y-137054819D02*
X113876190Y-136578628D01*
X114114285Y-137054819D02*
X114114285Y-136054819D01*
X114114285Y-136054819D02*
X113733333Y-136054819D01*
X113733333Y-136054819D02*
X113638095Y-136102438D01*
X113638095Y-136102438D02*
X113590476Y-136150057D01*
X113590476Y-136150057D02*
X113542857Y-136245295D01*
X113542857Y-136245295D02*
X113542857Y-136388152D01*
X113542857Y-136388152D02*
X113590476Y-136483390D01*
X113590476Y-136483390D02*
X113638095Y-136531009D01*
X113638095Y-136531009D02*
X113733333Y-136578628D01*
X113733333Y-136578628D02*
X114114285Y-136578628D01*
X113209523Y-136054819D02*
X112590476Y-136054819D01*
X112590476Y-136054819D02*
X112923809Y-136435771D01*
X112923809Y-136435771D02*
X112780952Y-136435771D01*
X112780952Y-136435771D02*
X112685714Y-136483390D01*
X112685714Y-136483390D02*
X112638095Y-136531009D01*
X112638095Y-136531009D02*
X112590476Y-136626247D01*
X112590476Y-136626247D02*
X112590476Y-136864342D01*
X112590476Y-136864342D02*
X112638095Y-136959580D01*
X112638095Y-136959580D02*
X112685714Y-137007200D01*
X112685714Y-137007200D02*
X112780952Y-137054819D01*
X112780952Y-137054819D02*
X113066666Y-137054819D01*
X113066666Y-137054819D02*
X113161904Y-137007200D01*
X113161904Y-137007200D02*
X113209523Y-136959580D01*
X111685714Y-136054819D02*
X112161904Y-136054819D01*
X112161904Y-136054819D02*
X112209523Y-136531009D01*
X112209523Y-136531009D02*
X112161904Y-136483390D01*
X112161904Y-136483390D02*
X112066666Y-136435771D01*
X112066666Y-136435771D02*
X111828571Y-136435771D01*
X111828571Y-136435771D02*
X111733333Y-136483390D01*
X111733333Y-136483390D02*
X111685714Y-136531009D01*
X111685714Y-136531009D02*
X111638095Y-136626247D01*
X111638095Y-136626247D02*
X111638095Y-136864342D01*
X111638095Y-136864342D02*
X111685714Y-136959580D01*
X111685714Y-136959580D02*
X111733333Y-137007200D01*
X111733333Y-137007200D02*
X111828571Y-137054819D01*
X111828571Y-137054819D02*
X112066666Y-137054819D01*
X112066666Y-137054819D02*
X112161904Y-137007200D01*
X112161904Y-137007200D02*
X112209523Y-136959580D01*
X116766666Y-205454819D02*
X117099999Y-204978628D01*
X117338094Y-205454819D02*
X117338094Y-204454819D01*
X117338094Y-204454819D02*
X116957142Y-204454819D01*
X116957142Y-204454819D02*
X116861904Y-204502438D01*
X116861904Y-204502438D02*
X116814285Y-204550057D01*
X116814285Y-204550057D02*
X116766666Y-204645295D01*
X116766666Y-204645295D02*
X116766666Y-204788152D01*
X116766666Y-204788152D02*
X116814285Y-204883390D01*
X116814285Y-204883390D02*
X116861904Y-204931009D01*
X116861904Y-204931009D02*
X116957142Y-204978628D01*
X116957142Y-204978628D02*
X117338094Y-204978628D01*
X115909523Y-204788152D02*
X115909523Y-205454819D01*
X116147618Y-204407200D02*
X116385713Y-205121485D01*
X116385713Y-205121485D02*
X115766666Y-205121485D01*
X135871428Y-168054819D02*
X135680952Y-168054819D01*
X135680952Y-168054819D02*
X135585714Y-168102438D01*
X135585714Y-168102438D02*
X135490476Y-168197676D01*
X135490476Y-168197676D02*
X135442857Y-168388152D01*
X135442857Y-168388152D02*
X135442857Y-168721485D01*
X135442857Y-168721485D02*
X135490476Y-168911961D01*
X135490476Y-168911961D02*
X135585714Y-169007200D01*
X135585714Y-169007200D02*
X135680952Y-169054819D01*
X135680952Y-169054819D02*
X135871428Y-169054819D01*
X135871428Y-169054819D02*
X135966666Y-169007200D01*
X135966666Y-169007200D02*
X136061904Y-168911961D01*
X136061904Y-168911961D02*
X136109523Y-168721485D01*
X136109523Y-168721485D02*
X136109523Y-168388152D01*
X136109523Y-168388152D02*
X136061904Y-168197676D01*
X136061904Y-168197676D02*
X135966666Y-168102438D01*
X135966666Y-168102438D02*
X135871428Y-168054819D01*
X135014285Y-169054819D02*
X135014285Y-168054819D01*
X135014285Y-168054819D02*
X134633333Y-168054819D01*
X134633333Y-168054819D02*
X134538095Y-168102438D01*
X134538095Y-168102438D02*
X134490476Y-168150057D01*
X134490476Y-168150057D02*
X134442857Y-168245295D01*
X134442857Y-168245295D02*
X134442857Y-168388152D01*
X134442857Y-168388152D02*
X134490476Y-168483390D01*
X134490476Y-168483390D02*
X134538095Y-168531009D01*
X134538095Y-168531009D02*
X134633333Y-168578628D01*
X134633333Y-168578628D02*
X135014285Y-168578628D01*
X133585714Y-168388152D02*
X133585714Y-169054819D01*
X133823809Y-168007200D02*
X134061904Y-168721485D01*
X134061904Y-168721485D02*
X133442857Y-168721485D01*
X117104819Y-152457142D02*
X116628628Y-152123809D01*
X117104819Y-151885714D02*
X116104819Y-151885714D01*
X116104819Y-151885714D02*
X116104819Y-152266666D01*
X116104819Y-152266666D02*
X116152438Y-152361904D01*
X116152438Y-152361904D02*
X116200057Y-152409523D01*
X116200057Y-152409523D02*
X116295295Y-152457142D01*
X116295295Y-152457142D02*
X116438152Y-152457142D01*
X116438152Y-152457142D02*
X116533390Y-152409523D01*
X116533390Y-152409523D02*
X116581009Y-152361904D01*
X116581009Y-152361904D02*
X116628628Y-152266666D01*
X116628628Y-152266666D02*
X116628628Y-151885714D01*
X116200057Y-152838095D02*
X116152438Y-152885714D01*
X116152438Y-152885714D02*
X116104819Y-152980952D01*
X116104819Y-152980952D02*
X116104819Y-153219047D01*
X116104819Y-153219047D02*
X116152438Y-153314285D01*
X116152438Y-153314285D02*
X116200057Y-153361904D01*
X116200057Y-153361904D02*
X116295295Y-153409523D01*
X116295295Y-153409523D02*
X116390533Y-153409523D01*
X116390533Y-153409523D02*
X116533390Y-153361904D01*
X116533390Y-153361904D02*
X117104819Y-152790476D01*
X117104819Y-152790476D02*
X117104819Y-153409523D01*
X116438152Y-154266666D02*
X117104819Y-154266666D01*
X116057200Y-154028571D02*
X116771485Y-153790476D01*
X116771485Y-153790476D02*
X116771485Y-154409523D01*
X142842857Y-168754819D02*
X143176190Y-168278628D01*
X143414285Y-168754819D02*
X143414285Y-167754819D01*
X143414285Y-167754819D02*
X143033333Y-167754819D01*
X143033333Y-167754819D02*
X142938095Y-167802438D01*
X142938095Y-167802438D02*
X142890476Y-167850057D01*
X142890476Y-167850057D02*
X142842857Y-167945295D01*
X142842857Y-167945295D02*
X142842857Y-168088152D01*
X142842857Y-168088152D02*
X142890476Y-168183390D01*
X142890476Y-168183390D02*
X142938095Y-168231009D01*
X142938095Y-168231009D02*
X143033333Y-168278628D01*
X143033333Y-168278628D02*
X143414285Y-168278628D01*
X142509523Y-167754819D02*
X141890476Y-167754819D01*
X141890476Y-167754819D02*
X142223809Y-168135771D01*
X142223809Y-168135771D02*
X142080952Y-168135771D01*
X142080952Y-168135771D02*
X141985714Y-168183390D01*
X141985714Y-168183390D02*
X141938095Y-168231009D01*
X141938095Y-168231009D02*
X141890476Y-168326247D01*
X141890476Y-168326247D02*
X141890476Y-168564342D01*
X141890476Y-168564342D02*
X141938095Y-168659580D01*
X141938095Y-168659580D02*
X141985714Y-168707200D01*
X141985714Y-168707200D02*
X142080952Y-168754819D01*
X142080952Y-168754819D02*
X142366666Y-168754819D01*
X142366666Y-168754819D02*
X142461904Y-168707200D01*
X142461904Y-168707200D02*
X142509523Y-168659580D01*
X141033333Y-168088152D02*
X141033333Y-168754819D01*
X141271428Y-167707200D02*
X141509523Y-168421485D01*
X141509523Y-168421485D02*
X140890476Y-168421485D01*
X145492857Y-158504819D02*
X145826190Y-158028628D01*
X146064285Y-158504819D02*
X146064285Y-157504819D01*
X146064285Y-157504819D02*
X145683333Y-157504819D01*
X145683333Y-157504819D02*
X145588095Y-157552438D01*
X145588095Y-157552438D02*
X145540476Y-157600057D01*
X145540476Y-157600057D02*
X145492857Y-157695295D01*
X145492857Y-157695295D02*
X145492857Y-157838152D01*
X145492857Y-157838152D02*
X145540476Y-157933390D01*
X145540476Y-157933390D02*
X145588095Y-157981009D01*
X145588095Y-157981009D02*
X145683333Y-158028628D01*
X145683333Y-158028628D02*
X146064285Y-158028628D01*
X145159523Y-157504819D02*
X144540476Y-157504819D01*
X144540476Y-157504819D02*
X144873809Y-157885771D01*
X144873809Y-157885771D02*
X144730952Y-157885771D01*
X144730952Y-157885771D02*
X144635714Y-157933390D01*
X144635714Y-157933390D02*
X144588095Y-157981009D01*
X144588095Y-157981009D02*
X144540476Y-158076247D01*
X144540476Y-158076247D02*
X144540476Y-158314342D01*
X144540476Y-158314342D02*
X144588095Y-158409580D01*
X144588095Y-158409580D02*
X144635714Y-158457200D01*
X144635714Y-158457200D02*
X144730952Y-158504819D01*
X144730952Y-158504819D02*
X145016666Y-158504819D01*
X145016666Y-158504819D02*
X145111904Y-158457200D01*
X145111904Y-158457200D02*
X145159523Y-158409580D01*
X143588095Y-158504819D02*
X144159523Y-158504819D01*
X143873809Y-158504819D02*
X143873809Y-157504819D01*
X143873809Y-157504819D02*
X143969047Y-157647676D01*
X143969047Y-157647676D02*
X144064285Y-157742914D01*
X144064285Y-157742914D02*
X144159523Y-157790533D01*
X130054819Y-143307142D02*
X129578628Y-142973809D01*
X130054819Y-142735714D02*
X129054819Y-142735714D01*
X129054819Y-142735714D02*
X129054819Y-143116666D01*
X129054819Y-143116666D02*
X129102438Y-143211904D01*
X129102438Y-143211904D02*
X129150057Y-143259523D01*
X129150057Y-143259523D02*
X129245295Y-143307142D01*
X129245295Y-143307142D02*
X129388152Y-143307142D01*
X129388152Y-143307142D02*
X129483390Y-143259523D01*
X129483390Y-143259523D02*
X129531009Y-143211904D01*
X129531009Y-143211904D02*
X129578628Y-143116666D01*
X129578628Y-143116666D02*
X129578628Y-142735714D01*
X129150057Y-143688095D02*
X129102438Y-143735714D01*
X129102438Y-143735714D02*
X129054819Y-143830952D01*
X129054819Y-143830952D02*
X129054819Y-144069047D01*
X129054819Y-144069047D02*
X129102438Y-144164285D01*
X129102438Y-144164285D02*
X129150057Y-144211904D01*
X129150057Y-144211904D02*
X129245295Y-144259523D01*
X129245295Y-144259523D02*
X129340533Y-144259523D01*
X129340533Y-144259523D02*
X129483390Y-144211904D01*
X129483390Y-144211904D02*
X130054819Y-143640476D01*
X130054819Y-143640476D02*
X130054819Y-144259523D01*
X129054819Y-144592857D02*
X129054819Y-145211904D01*
X129054819Y-145211904D02*
X129435771Y-144878571D01*
X129435771Y-144878571D02*
X129435771Y-145021428D01*
X129435771Y-145021428D02*
X129483390Y-145116666D01*
X129483390Y-145116666D02*
X129531009Y-145164285D01*
X129531009Y-145164285D02*
X129626247Y-145211904D01*
X129626247Y-145211904D02*
X129864342Y-145211904D01*
X129864342Y-145211904D02*
X129959580Y-145164285D01*
X129959580Y-145164285D02*
X130007200Y-145116666D01*
X130007200Y-145116666D02*
X130054819Y-145021428D01*
X130054819Y-145021428D02*
X130054819Y-144735714D01*
X130054819Y-144735714D02*
X130007200Y-144640476D01*
X130007200Y-144640476D02*
X129959580Y-144592857D01*
X103454819Y-177257142D02*
X102978628Y-176923809D01*
X103454819Y-176685714D02*
X102454819Y-176685714D01*
X102454819Y-176685714D02*
X102454819Y-177066666D01*
X102454819Y-177066666D02*
X102502438Y-177161904D01*
X102502438Y-177161904D02*
X102550057Y-177209523D01*
X102550057Y-177209523D02*
X102645295Y-177257142D01*
X102645295Y-177257142D02*
X102788152Y-177257142D01*
X102788152Y-177257142D02*
X102883390Y-177209523D01*
X102883390Y-177209523D02*
X102931009Y-177161904D01*
X102931009Y-177161904D02*
X102978628Y-177066666D01*
X102978628Y-177066666D02*
X102978628Y-176685714D01*
X103454819Y-178209523D02*
X103454819Y-177638095D01*
X103454819Y-177923809D02*
X102454819Y-177923809D01*
X102454819Y-177923809D02*
X102597676Y-177828571D01*
X102597676Y-177828571D02*
X102692914Y-177733333D01*
X102692914Y-177733333D02*
X102740533Y-177638095D01*
X102454819Y-179066666D02*
X102454819Y-178876190D01*
X102454819Y-178876190D02*
X102502438Y-178780952D01*
X102502438Y-178780952D02*
X102550057Y-178733333D01*
X102550057Y-178733333D02*
X102692914Y-178638095D01*
X102692914Y-178638095D02*
X102883390Y-178590476D01*
X102883390Y-178590476D02*
X103264342Y-178590476D01*
X103264342Y-178590476D02*
X103359580Y-178638095D01*
X103359580Y-178638095D02*
X103407200Y-178685714D01*
X103407200Y-178685714D02*
X103454819Y-178780952D01*
X103454819Y-178780952D02*
X103454819Y-178971428D01*
X103454819Y-178971428D02*
X103407200Y-179066666D01*
X103407200Y-179066666D02*
X103359580Y-179114285D01*
X103359580Y-179114285D02*
X103264342Y-179161904D01*
X103264342Y-179161904D02*
X103026247Y-179161904D01*
X103026247Y-179161904D02*
X102931009Y-179114285D01*
X102931009Y-179114285D02*
X102883390Y-179066666D01*
X102883390Y-179066666D02*
X102835771Y-178971428D01*
X102835771Y-178971428D02*
X102835771Y-178780952D01*
X102835771Y-178780952D02*
X102883390Y-178685714D01*
X102883390Y-178685714D02*
X102931009Y-178638095D01*
X102931009Y-178638095D02*
X103026247Y-178590476D01*
X103666666Y-124754819D02*
X103999999Y-124278628D01*
X104238094Y-124754819D02*
X104238094Y-123754819D01*
X104238094Y-123754819D02*
X103857142Y-123754819D01*
X103857142Y-123754819D02*
X103761904Y-123802438D01*
X103761904Y-123802438D02*
X103714285Y-123850057D01*
X103714285Y-123850057D02*
X103666666Y-123945295D01*
X103666666Y-123945295D02*
X103666666Y-124088152D01*
X103666666Y-124088152D02*
X103714285Y-124183390D01*
X103714285Y-124183390D02*
X103761904Y-124231009D01*
X103761904Y-124231009D02*
X103857142Y-124278628D01*
X103857142Y-124278628D02*
X104238094Y-124278628D01*
X103190475Y-124754819D02*
X102999999Y-124754819D01*
X102999999Y-124754819D02*
X102904761Y-124707200D01*
X102904761Y-124707200D02*
X102857142Y-124659580D01*
X102857142Y-124659580D02*
X102761904Y-124516723D01*
X102761904Y-124516723D02*
X102714285Y-124326247D01*
X102714285Y-124326247D02*
X102714285Y-123945295D01*
X102714285Y-123945295D02*
X102761904Y-123850057D01*
X102761904Y-123850057D02*
X102809523Y-123802438D01*
X102809523Y-123802438D02*
X102904761Y-123754819D01*
X102904761Y-123754819D02*
X103095237Y-123754819D01*
X103095237Y-123754819D02*
X103190475Y-123802438D01*
X103190475Y-123802438D02*
X103238094Y-123850057D01*
X103238094Y-123850057D02*
X103285713Y-123945295D01*
X103285713Y-123945295D02*
X103285713Y-124183390D01*
X103285713Y-124183390D02*
X103238094Y-124278628D01*
X103238094Y-124278628D02*
X103190475Y-124326247D01*
X103190475Y-124326247D02*
X103095237Y-124373866D01*
X103095237Y-124373866D02*
X102904761Y-124373866D01*
X102904761Y-124373866D02*
X102809523Y-124326247D01*
X102809523Y-124326247D02*
X102761904Y-124278628D01*
X102761904Y-124278628D02*
X102714285Y-124183390D01*
X108841904Y-180444819D02*
X108841904Y-181254342D01*
X108841904Y-181254342D02*
X108794285Y-181349580D01*
X108794285Y-181349580D02*
X108746666Y-181397200D01*
X108746666Y-181397200D02*
X108651428Y-181444819D01*
X108651428Y-181444819D02*
X108460952Y-181444819D01*
X108460952Y-181444819D02*
X108365714Y-181397200D01*
X108365714Y-181397200D02*
X108318095Y-181349580D01*
X108318095Y-181349580D02*
X108270476Y-181254342D01*
X108270476Y-181254342D02*
X108270476Y-180444819D01*
X107841904Y-180540057D02*
X107794285Y-180492438D01*
X107794285Y-180492438D02*
X107699047Y-180444819D01*
X107699047Y-180444819D02*
X107460952Y-180444819D01*
X107460952Y-180444819D02*
X107365714Y-180492438D01*
X107365714Y-180492438D02*
X107318095Y-180540057D01*
X107318095Y-180540057D02*
X107270476Y-180635295D01*
X107270476Y-180635295D02*
X107270476Y-180730533D01*
X107270476Y-180730533D02*
X107318095Y-180873390D01*
X107318095Y-180873390D02*
X107889523Y-181444819D01*
X107889523Y-181444819D02*
X107270476Y-181444819D01*
D14*
X105229048Y-187288733D02*
X105990953Y-187288733D01*
X105239048Y-183488733D02*
X106000953Y-183488733D01*
X105620000Y-183107780D02*
X105620000Y-183869685D01*
D13*
X118942857Y-170554819D02*
X119276190Y-170078628D01*
X119514285Y-170554819D02*
X119514285Y-169554819D01*
X119514285Y-169554819D02*
X119133333Y-169554819D01*
X119133333Y-169554819D02*
X119038095Y-169602438D01*
X119038095Y-169602438D02*
X118990476Y-169650057D01*
X118990476Y-169650057D02*
X118942857Y-169745295D01*
X118942857Y-169745295D02*
X118942857Y-169888152D01*
X118942857Y-169888152D02*
X118990476Y-169983390D01*
X118990476Y-169983390D02*
X119038095Y-170031009D01*
X119038095Y-170031009D02*
X119133333Y-170078628D01*
X119133333Y-170078628D02*
X119514285Y-170078628D01*
X118561904Y-169650057D02*
X118514285Y-169602438D01*
X118514285Y-169602438D02*
X118419047Y-169554819D01*
X118419047Y-169554819D02*
X118180952Y-169554819D01*
X118180952Y-169554819D02*
X118085714Y-169602438D01*
X118085714Y-169602438D02*
X118038095Y-169650057D01*
X118038095Y-169650057D02*
X117990476Y-169745295D01*
X117990476Y-169745295D02*
X117990476Y-169840533D01*
X117990476Y-169840533D02*
X118038095Y-169983390D01*
X118038095Y-169983390D02*
X118609523Y-170554819D01*
X118609523Y-170554819D02*
X117990476Y-170554819D01*
X117371428Y-169554819D02*
X117276190Y-169554819D01*
X117276190Y-169554819D02*
X117180952Y-169602438D01*
X117180952Y-169602438D02*
X117133333Y-169650057D01*
X117133333Y-169650057D02*
X117085714Y-169745295D01*
X117085714Y-169745295D02*
X117038095Y-169935771D01*
X117038095Y-169935771D02*
X117038095Y-170173866D01*
X117038095Y-170173866D02*
X117085714Y-170364342D01*
X117085714Y-170364342D02*
X117133333Y-170459580D01*
X117133333Y-170459580D02*
X117180952Y-170507200D01*
X117180952Y-170507200D02*
X117276190Y-170554819D01*
X117276190Y-170554819D02*
X117371428Y-170554819D01*
X117371428Y-170554819D02*
X117466666Y-170507200D01*
X117466666Y-170507200D02*
X117514285Y-170459580D01*
X117514285Y-170459580D02*
X117561904Y-170364342D01*
X117561904Y-170364342D02*
X117609523Y-170173866D01*
X117609523Y-170173866D02*
X117609523Y-169935771D01*
X117609523Y-169935771D02*
X117561904Y-169745295D01*
X117561904Y-169745295D02*
X117514285Y-169650057D01*
X117514285Y-169650057D02*
X117466666Y-169602438D01*
X117466666Y-169602438D02*
X117371428Y-169554819D01*
X117054819Y-145657142D02*
X116578628Y-145323809D01*
X117054819Y-145085714D02*
X116054819Y-145085714D01*
X116054819Y-145085714D02*
X116054819Y-145466666D01*
X116054819Y-145466666D02*
X116102438Y-145561904D01*
X116102438Y-145561904D02*
X116150057Y-145609523D01*
X116150057Y-145609523D02*
X116245295Y-145657142D01*
X116245295Y-145657142D02*
X116388152Y-145657142D01*
X116388152Y-145657142D02*
X116483390Y-145609523D01*
X116483390Y-145609523D02*
X116531009Y-145561904D01*
X116531009Y-145561904D02*
X116578628Y-145466666D01*
X116578628Y-145466666D02*
X116578628Y-145085714D01*
X116054819Y-145990476D02*
X116054819Y-146609523D01*
X116054819Y-146609523D02*
X116435771Y-146276190D01*
X116435771Y-146276190D02*
X116435771Y-146419047D01*
X116435771Y-146419047D02*
X116483390Y-146514285D01*
X116483390Y-146514285D02*
X116531009Y-146561904D01*
X116531009Y-146561904D02*
X116626247Y-146609523D01*
X116626247Y-146609523D02*
X116864342Y-146609523D01*
X116864342Y-146609523D02*
X116959580Y-146561904D01*
X116959580Y-146561904D02*
X117007200Y-146514285D01*
X117007200Y-146514285D02*
X117054819Y-146419047D01*
X117054819Y-146419047D02*
X117054819Y-146133333D01*
X117054819Y-146133333D02*
X117007200Y-146038095D01*
X117007200Y-146038095D02*
X116959580Y-145990476D01*
X116054819Y-147228571D02*
X116054819Y-147323809D01*
X116054819Y-147323809D02*
X116102438Y-147419047D01*
X116102438Y-147419047D02*
X116150057Y-147466666D01*
X116150057Y-147466666D02*
X116245295Y-147514285D01*
X116245295Y-147514285D02*
X116435771Y-147561904D01*
X116435771Y-147561904D02*
X116673866Y-147561904D01*
X116673866Y-147561904D02*
X116864342Y-147514285D01*
X116864342Y-147514285D02*
X116959580Y-147466666D01*
X116959580Y-147466666D02*
X117007200Y-147419047D01*
X117007200Y-147419047D02*
X117054819Y-147323809D01*
X117054819Y-147323809D02*
X117054819Y-147228571D01*
X117054819Y-147228571D02*
X117007200Y-147133333D01*
X117007200Y-147133333D02*
X116959580Y-147085714D01*
X116959580Y-147085714D02*
X116864342Y-147038095D01*
X116864342Y-147038095D02*
X116673866Y-146990476D01*
X116673866Y-146990476D02*
X116435771Y-146990476D01*
X116435771Y-146990476D02*
X116245295Y-147038095D01*
X116245295Y-147038095D02*
X116150057Y-147085714D01*
X116150057Y-147085714D02*
X116102438Y-147133333D01*
X116102438Y-147133333D02*
X116054819Y-147228571D01*
X113596428Y-193384819D02*
X113405952Y-193384819D01*
X113405952Y-193384819D02*
X113310714Y-193432438D01*
X113310714Y-193432438D02*
X113215476Y-193527676D01*
X113215476Y-193527676D02*
X113167857Y-193718152D01*
X113167857Y-193718152D02*
X113167857Y-194051485D01*
X113167857Y-194051485D02*
X113215476Y-194241961D01*
X113215476Y-194241961D02*
X113310714Y-194337200D01*
X113310714Y-194337200D02*
X113405952Y-194384819D01*
X113405952Y-194384819D02*
X113596428Y-194384819D01*
X113596428Y-194384819D02*
X113691666Y-194337200D01*
X113691666Y-194337200D02*
X113786904Y-194241961D01*
X113786904Y-194241961D02*
X113834523Y-194051485D01*
X113834523Y-194051485D02*
X113834523Y-193718152D01*
X113834523Y-193718152D02*
X113786904Y-193527676D01*
X113786904Y-193527676D02*
X113691666Y-193432438D01*
X113691666Y-193432438D02*
X113596428Y-193384819D01*
X112739285Y-194384819D02*
X112739285Y-193384819D01*
X112739285Y-193384819D02*
X112358333Y-193384819D01*
X112358333Y-193384819D02*
X112263095Y-193432438D01*
X112263095Y-193432438D02*
X112215476Y-193480057D01*
X112215476Y-193480057D02*
X112167857Y-193575295D01*
X112167857Y-193575295D02*
X112167857Y-193718152D01*
X112167857Y-193718152D02*
X112215476Y-193813390D01*
X112215476Y-193813390D02*
X112263095Y-193861009D01*
X112263095Y-193861009D02*
X112358333Y-193908628D01*
X112358333Y-193908628D02*
X112739285Y-193908628D01*
X111215476Y-194384819D02*
X111786904Y-194384819D01*
X111501190Y-194384819D02*
X111501190Y-193384819D01*
X111501190Y-193384819D02*
X111596428Y-193527676D01*
X111596428Y-193527676D02*
X111691666Y-193622914D01*
X111691666Y-193622914D02*
X111786904Y-193670533D01*
X122666666Y-162209580D02*
X122714285Y-162257200D01*
X122714285Y-162257200D02*
X122857142Y-162304819D01*
X122857142Y-162304819D02*
X122952380Y-162304819D01*
X122952380Y-162304819D02*
X123095237Y-162257200D01*
X123095237Y-162257200D02*
X123190475Y-162161961D01*
X123190475Y-162161961D02*
X123238094Y-162066723D01*
X123238094Y-162066723D02*
X123285713Y-161876247D01*
X123285713Y-161876247D02*
X123285713Y-161733390D01*
X123285713Y-161733390D02*
X123238094Y-161542914D01*
X123238094Y-161542914D02*
X123190475Y-161447676D01*
X123190475Y-161447676D02*
X123095237Y-161352438D01*
X123095237Y-161352438D02*
X122952380Y-161304819D01*
X122952380Y-161304819D02*
X122857142Y-161304819D01*
X122857142Y-161304819D02*
X122714285Y-161352438D01*
X122714285Y-161352438D02*
X122666666Y-161400057D01*
X121714285Y-162304819D02*
X122285713Y-162304819D01*
X121999999Y-162304819D02*
X121999999Y-161304819D01*
X121999999Y-161304819D02*
X122095237Y-161447676D01*
X122095237Y-161447676D02*
X122190475Y-161542914D01*
X122190475Y-161542914D02*
X122285713Y-161590533D01*
X131659580Y-144208458D02*
X131707200Y-144160839D01*
X131707200Y-144160839D02*
X131754819Y-144017982D01*
X131754819Y-144017982D02*
X131754819Y-143922744D01*
X131754819Y-143922744D02*
X131707200Y-143779887D01*
X131707200Y-143779887D02*
X131611961Y-143684649D01*
X131611961Y-143684649D02*
X131516723Y-143637030D01*
X131516723Y-143637030D02*
X131326247Y-143589411D01*
X131326247Y-143589411D02*
X131183390Y-143589411D01*
X131183390Y-143589411D02*
X130992914Y-143637030D01*
X130992914Y-143637030D02*
X130897676Y-143684649D01*
X130897676Y-143684649D02*
X130802438Y-143779887D01*
X130802438Y-143779887D02*
X130754819Y-143922744D01*
X130754819Y-143922744D02*
X130754819Y-144017982D01*
X130754819Y-144017982D02*
X130802438Y-144160839D01*
X130802438Y-144160839D02*
X130850057Y-144208458D01*
X130754819Y-144541792D02*
X130754819Y-145160839D01*
X130754819Y-145160839D02*
X131135771Y-144827506D01*
X131135771Y-144827506D02*
X131135771Y-144970363D01*
X131135771Y-144970363D02*
X131183390Y-145065601D01*
X131183390Y-145065601D02*
X131231009Y-145113220D01*
X131231009Y-145113220D02*
X131326247Y-145160839D01*
X131326247Y-145160839D02*
X131564342Y-145160839D01*
X131564342Y-145160839D02*
X131659580Y-145113220D01*
X131659580Y-145113220D02*
X131707200Y-145065601D01*
X131707200Y-145065601D02*
X131754819Y-144970363D01*
X131754819Y-144970363D02*
X131754819Y-144684649D01*
X131754819Y-144684649D02*
X131707200Y-144589411D01*
X131707200Y-144589411D02*
X131659580Y-144541792D01*
X116542857Y-149254819D02*
X116876190Y-148778628D01*
X117114285Y-149254819D02*
X117114285Y-148254819D01*
X117114285Y-148254819D02*
X116733333Y-148254819D01*
X116733333Y-148254819D02*
X116638095Y-148302438D01*
X116638095Y-148302438D02*
X116590476Y-148350057D01*
X116590476Y-148350057D02*
X116542857Y-148445295D01*
X116542857Y-148445295D02*
X116542857Y-148588152D01*
X116542857Y-148588152D02*
X116590476Y-148683390D01*
X116590476Y-148683390D02*
X116638095Y-148731009D01*
X116638095Y-148731009D02*
X116733333Y-148778628D01*
X116733333Y-148778628D02*
X117114285Y-148778628D01*
X116161904Y-148350057D02*
X116114285Y-148302438D01*
X116114285Y-148302438D02*
X116019047Y-148254819D01*
X116019047Y-148254819D02*
X115780952Y-148254819D01*
X115780952Y-148254819D02*
X115685714Y-148302438D01*
X115685714Y-148302438D02*
X115638095Y-148350057D01*
X115638095Y-148350057D02*
X115590476Y-148445295D01*
X115590476Y-148445295D02*
X115590476Y-148540533D01*
X115590476Y-148540533D02*
X115638095Y-148683390D01*
X115638095Y-148683390D02*
X116209523Y-149254819D01*
X116209523Y-149254819D02*
X115590476Y-149254819D01*
X115019047Y-148683390D02*
X115114285Y-148635771D01*
X115114285Y-148635771D02*
X115161904Y-148588152D01*
X115161904Y-148588152D02*
X115209523Y-148492914D01*
X115209523Y-148492914D02*
X115209523Y-148445295D01*
X115209523Y-148445295D02*
X115161904Y-148350057D01*
X115161904Y-148350057D02*
X115114285Y-148302438D01*
X115114285Y-148302438D02*
X115019047Y-148254819D01*
X115019047Y-148254819D02*
X114828571Y-148254819D01*
X114828571Y-148254819D02*
X114733333Y-148302438D01*
X114733333Y-148302438D02*
X114685714Y-148350057D01*
X114685714Y-148350057D02*
X114638095Y-148445295D01*
X114638095Y-148445295D02*
X114638095Y-148492914D01*
X114638095Y-148492914D02*
X114685714Y-148588152D01*
X114685714Y-148588152D02*
X114733333Y-148635771D01*
X114733333Y-148635771D02*
X114828571Y-148683390D01*
X114828571Y-148683390D02*
X115019047Y-148683390D01*
X115019047Y-148683390D02*
X115114285Y-148731009D01*
X115114285Y-148731009D02*
X115161904Y-148778628D01*
X115161904Y-148778628D02*
X115209523Y-148873866D01*
X115209523Y-148873866D02*
X115209523Y-149064342D01*
X115209523Y-149064342D02*
X115161904Y-149159580D01*
X115161904Y-149159580D02*
X115114285Y-149207200D01*
X115114285Y-149207200D02*
X115019047Y-149254819D01*
X115019047Y-149254819D02*
X114828571Y-149254819D01*
X114828571Y-149254819D02*
X114733333Y-149207200D01*
X114733333Y-149207200D02*
X114685714Y-149159580D01*
X114685714Y-149159580D02*
X114638095Y-149064342D01*
X114638095Y-149064342D02*
X114638095Y-148873866D01*
X114638095Y-148873866D02*
X114685714Y-148778628D01*
X114685714Y-148778628D02*
X114733333Y-148731009D01*
X114733333Y-148731009D02*
X114828571Y-148683390D01*
X144804819Y-123857142D02*
X144328628Y-123523809D01*
X144804819Y-123285714D02*
X143804819Y-123285714D01*
X143804819Y-123285714D02*
X143804819Y-123666666D01*
X143804819Y-123666666D02*
X143852438Y-123761904D01*
X143852438Y-123761904D02*
X143900057Y-123809523D01*
X143900057Y-123809523D02*
X143995295Y-123857142D01*
X143995295Y-123857142D02*
X144138152Y-123857142D01*
X144138152Y-123857142D02*
X144233390Y-123809523D01*
X144233390Y-123809523D02*
X144281009Y-123761904D01*
X144281009Y-123761904D02*
X144328628Y-123666666D01*
X144328628Y-123666666D02*
X144328628Y-123285714D01*
X144804819Y-124809523D02*
X144804819Y-124238095D01*
X144804819Y-124523809D02*
X143804819Y-124523809D01*
X143804819Y-124523809D02*
X143947676Y-124428571D01*
X143947676Y-124428571D02*
X144042914Y-124333333D01*
X144042914Y-124333333D02*
X144090533Y-124238095D01*
X143804819Y-125142857D02*
X143804819Y-125761904D01*
X143804819Y-125761904D02*
X144185771Y-125428571D01*
X144185771Y-125428571D02*
X144185771Y-125571428D01*
X144185771Y-125571428D02*
X144233390Y-125666666D01*
X144233390Y-125666666D02*
X144281009Y-125714285D01*
X144281009Y-125714285D02*
X144376247Y-125761904D01*
X144376247Y-125761904D02*
X144614342Y-125761904D01*
X144614342Y-125761904D02*
X144709580Y-125714285D01*
X144709580Y-125714285D02*
X144757200Y-125666666D01*
X144757200Y-125666666D02*
X144804819Y-125571428D01*
X144804819Y-125571428D02*
X144804819Y-125285714D01*
X144804819Y-125285714D02*
X144757200Y-125190476D01*
X144757200Y-125190476D02*
X144709580Y-125142857D01*
X103642857Y-136954819D02*
X103976190Y-136478628D01*
X104214285Y-136954819D02*
X104214285Y-135954819D01*
X104214285Y-135954819D02*
X103833333Y-135954819D01*
X103833333Y-135954819D02*
X103738095Y-136002438D01*
X103738095Y-136002438D02*
X103690476Y-136050057D01*
X103690476Y-136050057D02*
X103642857Y-136145295D01*
X103642857Y-136145295D02*
X103642857Y-136288152D01*
X103642857Y-136288152D02*
X103690476Y-136383390D01*
X103690476Y-136383390D02*
X103738095Y-136431009D01*
X103738095Y-136431009D02*
X103833333Y-136478628D01*
X103833333Y-136478628D02*
X104214285Y-136478628D01*
X102690476Y-136954819D02*
X103261904Y-136954819D01*
X102976190Y-136954819D02*
X102976190Y-135954819D01*
X102976190Y-135954819D02*
X103071428Y-136097676D01*
X103071428Y-136097676D02*
X103166666Y-136192914D01*
X103166666Y-136192914D02*
X103261904Y-136240533D01*
X102214285Y-136954819D02*
X102023809Y-136954819D01*
X102023809Y-136954819D02*
X101928571Y-136907200D01*
X101928571Y-136907200D02*
X101880952Y-136859580D01*
X101880952Y-136859580D02*
X101785714Y-136716723D01*
X101785714Y-136716723D02*
X101738095Y-136526247D01*
X101738095Y-136526247D02*
X101738095Y-136145295D01*
X101738095Y-136145295D02*
X101785714Y-136050057D01*
X101785714Y-136050057D02*
X101833333Y-136002438D01*
X101833333Y-136002438D02*
X101928571Y-135954819D01*
X101928571Y-135954819D02*
X102119047Y-135954819D01*
X102119047Y-135954819D02*
X102214285Y-136002438D01*
X102214285Y-136002438D02*
X102261904Y-136050057D01*
X102261904Y-136050057D02*
X102309523Y-136145295D01*
X102309523Y-136145295D02*
X102309523Y-136383390D01*
X102309523Y-136383390D02*
X102261904Y-136478628D01*
X102261904Y-136478628D02*
X102214285Y-136526247D01*
X102214285Y-136526247D02*
X102119047Y-136573866D01*
X102119047Y-136573866D02*
X101928571Y-136573866D01*
X101928571Y-136573866D02*
X101833333Y-136526247D01*
X101833333Y-136526247D02*
X101785714Y-136478628D01*
X101785714Y-136478628D02*
X101738095Y-136383390D01*
X142692857Y-161604819D02*
X143026190Y-161128628D01*
X143264285Y-161604819D02*
X143264285Y-160604819D01*
X143264285Y-160604819D02*
X142883333Y-160604819D01*
X142883333Y-160604819D02*
X142788095Y-160652438D01*
X142788095Y-160652438D02*
X142740476Y-160700057D01*
X142740476Y-160700057D02*
X142692857Y-160795295D01*
X142692857Y-160795295D02*
X142692857Y-160938152D01*
X142692857Y-160938152D02*
X142740476Y-161033390D01*
X142740476Y-161033390D02*
X142788095Y-161081009D01*
X142788095Y-161081009D02*
X142883333Y-161128628D01*
X142883333Y-161128628D02*
X143264285Y-161128628D01*
X142359523Y-160604819D02*
X141740476Y-160604819D01*
X141740476Y-160604819D02*
X142073809Y-160985771D01*
X142073809Y-160985771D02*
X141930952Y-160985771D01*
X141930952Y-160985771D02*
X141835714Y-161033390D01*
X141835714Y-161033390D02*
X141788095Y-161081009D01*
X141788095Y-161081009D02*
X141740476Y-161176247D01*
X141740476Y-161176247D02*
X141740476Y-161414342D01*
X141740476Y-161414342D02*
X141788095Y-161509580D01*
X141788095Y-161509580D02*
X141835714Y-161557200D01*
X141835714Y-161557200D02*
X141930952Y-161604819D01*
X141930952Y-161604819D02*
X142216666Y-161604819D01*
X142216666Y-161604819D02*
X142311904Y-161557200D01*
X142311904Y-161557200D02*
X142359523Y-161509580D01*
X141407142Y-160604819D02*
X140788095Y-160604819D01*
X140788095Y-160604819D02*
X141121428Y-160985771D01*
X141121428Y-160985771D02*
X140978571Y-160985771D01*
X140978571Y-160985771D02*
X140883333Y-161033390D01*
X140883333Y-161033390D02*
X140835714Y-161081009D01*
X140835714Y-161081009D02*
X140788095Y-161176247D01*
X140788095Y-161176247D02*
X140788095Y-161414342D01*
X140788095Y-161414342D02*
X140835714Y-161509580D01*
X140835714Y-161509580D02*
X140883333Y-161557200D01*
X140883333Y-161557200D02*
X140978571Y-161604819D01*
X140978571Y-161604819D02*
X141264285Y-161604819D01*
X141264285Y-161604819D02*
X141359523Y-161557200D01*
X141359523Y-161557200D02*
X141407142Y-161509580D01*
X132854819Y-156957142D02*
X132378628Y-156623809D01*
X132854819Y-156385714D02*
X131854819Y-156385714D01*
X131854819Y-156385714D02*
X131854819Y-156766666D01*
X131854819Y-156766666D02*
X131902438Y-156861904D01*
X131902438Y-156861904D02*
X131950057Y-156909523D01*
X131950057Y-156909523D02*
X132045295Y-156957142D01*
X132045295Y-156957142D02*
X132188152Y-156957142D01*
X132188152Y-156957142D02*
X132283390Y-156909523D01*
X132283390Y-156909523D02*
X132331009Y-156861904D01*
X132331009Y-156861904D02*
X132378628Y-156766666D01*
X132378628Y-156766666D02*
X132378628Y-156385714D01*
X131854819Y-157290476D02*
X131854819Y-157909523D01*
X131854819Y-157909523D02*
X132235771Y-157576190D01*
X132235771Y-157576190D02*
X132235771Y-157719047D01*
X132235771Y-157719047D02*
X132283390Y-157814285D01*
X132283390Y-157814285D02*
X132331009Y-157861904D01*
X132331009Y-157861904D02*
X132426247Y-157909523D01*
X132426247Y-157909523D02*
X132664342Y-157909523D01*
X132664342Y-157909523D02*
X132759580Y-157861904D01*
X132759580Y-157861904D02*
X132807200Y-157814285D01*
X132807200Y-157814285D02*
X132854819Y-157719047D01*
X132854819Y-157719047D02*
X132854819Y-157433333D01*
X132854819Y-157433333D02*
X132807200Y-157338095D01*
X132807200Y-157338095D02*
X132759580Y-157290476D01*
X132283390Y-158480952D02*
X132235771Y-158385714D01*
X132235771Y-158385714D02*
X132188152Y-158338095D01*
X132188152Y-158338095D02*
X132092914Y-158290476D01*
X132092914Y-158290476D02*
X132045295Y-158290476D01*
X132045295Y-158290476D02*
X131950057Y-158338095D01*
X131950057Y-158338095D02*
X131902438Y-158385714D01*
X131902438Y-158385714D02*
X131854819Y-158480952D01*
X131854819Y-158480952D02*
X131854819Y-158671428D01*
X131854819Y-158671428D02*
X131902438Y-158766666D01*
X131902438Y-158766666D02*
X131950057Y-158814285D01*
X131950057Y-158814285D02*
X132045295Y-158861904D01*
X132045295Y-158861904D02*
X132092914Y-158861904D01*
X132092914Y-158861904D02*
X132188152Y-158814285D01*
X132188152Y-158814285D02*
X132235771Y-158766666D01*
X132235771Y-158766666D02*
X132283390Y-158671428D01*
X132283390Y-158671428D02*
X132283390Y-158480952D01*
X132283390Y-158480952D02*
X132331009Y-158385714D01*
X132331009Y-158385714D02*
X132378628Y-158338095D01*
X132378628Y-158338095D02*
X132473866Y-158290476D01*
X132473866Y-158290476D02*
X132664342Y-158290476D01*
X132664342Y-158290476D02*
X132759580Y-158338095D01*
X132759580Y-158338095D02*
X132807200Y-158385714D01*
X132807200Y-158385714D02*
X132854819Y-158480952D01*
X132854819Y-158480952D02*
X132854819Y-158671428D01*
X132854819Y-158671428D02*
X132807200Y-158766666D01*
X132807200Y-158766666D02*
X132759580Y-158814285D01*
X132759580Y-158814285D02*
X132664342Y-158861904D01*
X132664342Y-158861904D02*
X132473866Y-158861904D01*
X132473866Y-158861904D02*
X132378628Y-158814285D01*
X132378628Y-158814285D02*
X132331009Y-158766666D01*
X132331009Y-158766666D02*
X132283390Y-158671428D01*
X108642857Y-172054819D02*
X108976190Y-171578628D01*
X109214285Y-172054819D02*
X109214285Y-171054819D01*
X109214285Y-171054819D02*
X108833333Y-171054819D01*
X108833333Y-171054819D02*
X108738095Y-171102438D01*
X108738095Y-171102438D02*
X108690476Y-171150057D01*
X108690476Y-171150057D02*
X108642857Y-171245295D01*
X108642857Y-171245295D02*
X108642857Y-171388152D01*
X108642857Y-171388152D02*
X108690476Y-171483390D01*
X108690476Y-171483390D02*
X108738095Y-171531009D01*
X108738095Y-171531009D02*
X108833333Y-171578628D01*
X108833333Y-171578628D02*
X109214285Y-171578628D01*
X107690476Y-172054819D02*
X108261904Y-172054819D01*
X107976190Y-172054819D02*
X107976190Y-171054819D01*
X107976190Y-171054819D02*
X108071428Y-171197676D01*
X108071428Y-171197676D02*
X108166666Y-171292914D01*
X108166666Y-171292914D02*
X108261904Y-171340533D01*
X107309523Y-171150057D02*
X107261904Y-171102438D01*
X107261904Y-171102438D02*
X107166666Y-171054819D01*
X107166666Y-171054819D02*
X106928571Y-171054819D01*
X106928571Y-171054819D02*
X106833333Y-171102438D01*
X106833333Y-171102438D02*
X106785714Y-171150057D01*
X106785714Y-171150057D02*
X106738095Y-171245295D01*
X106738095Y-171245295D02*
X106738095Y-171340533D01*
X106738095Y-171340533D02*
X106785714Y-171483390D01*
X106785714Y-171483390D02*
X107357142Y-172054819D01*
X107357142Y-172054819D02*
X106738095Y-172054819D01*
X131566666Y-155359580D02*
X131614285Y-155407200D01*
X131614285Y-155407200D02*
X131757142Y-155454819D01*
X131757142Y-155454819D02*
X131852380Y-155454819D01*
X131852380Y-155454819D02*
X131995237Y-155407200D01*
X131995237Y-155407200D02*
X132090475Y-155311961D01*
X132090475Y-155311961D02*
X132138094Y-155216723D01*
X132138094Y-155216723D02*
X132185713Y-155026247D01*
X132185713Y-155026247D02*
X132185713Y-154883390D01*
X132185713Y-154883390D02*
X132138094Y-154692914D01*
X132138094Y-154692914D02*
X132090475Y-154597676D01*
X132090475Y-154597676D02*
X131995237Y-154502438D01*
X131995237Y-154502438D02*
X131852380Y-154454819D01*
X131852380Y-154454819D02*
X131757142Y-154454819D01*
X131757142Y-154454819D02*
X131614285Y-154502438D01*
X131614285Y-154502438D02*
X131566666Y-154550057D01*
X130661904Y-154454819D02*
X131138094Y-154454819D01*
X131138094Y-154454819D02*
X131185713Y-154931009D01*
X131185713Y-154931009D02*
X131138094Y-154883390D01*
X131138094Y-154883390D02*
X131042856Y-154835771D01*
X131042856Y-154835771D02*
X130804761Y-154835771D01*
X130804761Y-154835771D02*
X130709523Y-154883390D01*
X130709523Y-154883390D02*
X130661904Y-154931009D01*
X130661904Y-154931009D02*
X130614285Y-155026247D01*
X130614285Y-155026247D02*
X130614285Y-155264342D01*
X130614285Y-155264342D02*
X130661904Y-155359580D01*
X130661904Y-155359580D02*
X130709523Y-155407200D01*
X130709523Y-155407200D02*
X130804761Y-155454819D01*
X130804761Y-155454819D02*
X131042856Y-155454819D01*
X131042856Y-155454819D02*
X131138094Y-155407200D01*
X131138094Y-155407200D02*
X131185713Y-155359580D01*
X129542857Y-155454819D02*
X129876190Y-154978628D01*
X130114285Y-155454819D02*
X130114285Y-154454819D01*
X130114285Y-154454819D02*
X129733333Y-154454819D01*
X129733333Y-154454819D02*
X129638095Y-154502438D01*
X129638095Y-154502438D02*
X129590476Y-154550057D01*
X129590476Y-154550057D02*
X129542857Y-154645295D01*
X129542857Y-154645295D02*
X129542857Y-154788152D01*
X129542857Y-154788152D02*
X129590476Y-154883390D01*
X129590476Y-154883390D02*
X129638095Y-154931009D01*
X129638095Y-154931009D02*
X129733333Y-154978628D01*
X129733333Y-154978628D02*
X130114285Y-154978628D01*
X129161904Y-154550057D02*
X129114285Y-154502438D01*
X129114285Y-154502438D02*
X129019047Y-154454819D01*
X129019047Y-154454819D02*
X128780952Y-154454819D01*
X128780952Y-154454819D02*
X128685714Y-154502438D01*
X128685714Y-154502438D02*
X128638095Y-154550057D01*
X128638095Y-154550057D02*
X128590476Y-154645295D01*
X128590476Y-154645295D02*
X128590476Y-154740533D01*
X128590476Y-154740533D02*
X128638095Y-154883390D01*
X128638095Y-154883390D02*
X129209523Y-155454819D01*
X129209523Y-155454819D02*
X128590476Y-155454819D01*
X128114285Y-155454819D02*
X127923809Y-155454819D01*
X127923809Y-155454819D02*
X127828571Y-155407200D01*
X127828571Y-155407200D02*
X127780952Y-155359580D01*
X127780952Y-155359580D02*
X127685714Y-155216723D01*
X127685714Y-155216723D02*
X127638095Y-155026247D01*
X127638095Y-155026247D02*
X127638095Y-154645295D01*
X127638095Y-154645295D02*
X127685714Y-154550057D01*
X127685714Y-154550057D02*
X127733333Y-154502438D01*
X127733333Y-154502438D02*
X127828571Y-154454819D01*
X127828571Y-154454819D02*
X128019047Y-154454819D01*
X128019047Y-154454819D02*
X128114285Y-154502438D01*
X128114285Y-154502438D02*
X128161904Y-154550057D01*
X128161904Y-154550057D02*
X128209523Y-154645295D01*
X128209523Y-154645295D02*
X128209523Y-154883390D01*
X128209523Y-154883390D02*
X128161904Y-154978628D01*
X128161904Y-154978628D02*
X128114285Y-155026247D01*
X128114285Y-155026247D02*
X128019047Y-155073866D01*
X128019047Y-155073866D02*
X127828571Y-155073866D01*
X127828571Y-155073866D02*
X127733333Y-155026247D01*
X127733333Y-155026247D02*
X127685714Y-154978628D01*
X127685714Y-154978628D02*
X127638095Y-154883390D01*
X123571428Y-117454819D02*
X123380952Y-117454819D01*
X123380952Y-117454819D02*
X123285714Y-117502438D01*
X123285714Y-117502438D02*
X123190476Y-117597676D01*
X123190476Y-117597676D02*
X123142857Y-117788152D01*
X123142857Y-117788152D02*
X123142857Y-118121485D01*
X123142857Y-118121485D02*
X123190476Y-118311961D01*
X123190476Y-118311961D02*
X123285714Y-118407200D01*
X123285714Y-118407200D02*
X123380952Y-118454819D01*
X123380952Y-118454819D02*
X123571428Y-118454819D01*
X123571428Y-118454819D02*
X123666666Y-118407200D01*
X123666666Y-118407200D02*
X123761904Y-118311961D01*
X123761904Y-118311961D02*
X123809523Y-118121485D01*
X123809523Y-118121485D02*
X123809523Y-117788152D01*
X123809523Y-117788152D02*
X123761904Y-117597676D01*
X123761904Y-117597676D02*
X123666666Y-117502438D01*
X123666666Y-117502438D02*
X123571428Y-117454819D01*
X122714285Y-118454819D02*
X122714285Y-117454819D01*
X122714285Y-117454819D02*
X122333333Y-117454819D01*
X122333333Y-117454819D02*
X122238095Y-117502438D01*
X122238095Y-117502438D02*
X122190476Y-117550057D01*
X122190476Y-117550057D02*
X122142857Y-117645295D01*
X122142857Y-117645295D02*
X122142857Y-117788152D01*
X122142857Y-117788152D02*
X122190476Y-117883390D01*
X122190476Y-117883390D02*
X122238095Y-117931009D01*
X122238095Y-117931009D02*
X122333333Y-117978628D01*
X122333333Y-117978628D02*
X122714285Y-117978628D01*
X121761904Y-117550057D02*
X121714285Y-117502438D01*
X121714285Y-117502438D02*
X121619047Y-117454819D01*
X121619047Y-117454819D02*
X121380952Y-117454819D01*
X121380952Y-117454819D02*
X121285714Y-117502438D01*
X121285714Y-117502438D02*
X121238095Y-117550057D01*
X121238095Y-117550057D02*
X121190476Y-117645295D01*
X121190476Y-117645295D02*
X121190476Y-117740533D01*
X121190476Y-117740533D02*
X121238095Y-117883390D01*
X121238095Y-117883390D02*
X121809523Y-118454819D01*
X121809523Y-118454819D02*
X121190476Y-118454819D01*
X121566666Y-203954819D02*
X121899999Y-203478628D01*
X122138094Y-203954819D02*
X122138094Y-202954819D01*
X122138094Y-202954819D02*
X121757142Y-202954819D01*
X121757142Y-202954819D02*
X121661904Y-203002438D01*
X121661904Y-203002438D02*
X121614285Y-203050057D01*
X121614285Y-203050057D02*
X121566666Y-203145295D01*
X121566666Y-203145295D02*
X121566666Y-203288152D01*
X121566666Y-203288152D02*
X121614285Y-203383390D01*
X121614285Y-203383390D02*
X121661904Y-203431009D01*
X121661904Y-203431009D02*
X121757142Y-203478628D01*
X121757142Y-203478628D02*
X122138094Y-203478628D01*
X121185713Y-203050057D02*
X121138094Y-203002438D01*
X121138094Y-203002438D02*
X121042856Y-202954819D01*
X121042856Y-202954819D02*
X120804761Y-202954819D01*
X120804761Y-202954819D02*
X120709523Y-203002438D01*
X120709523Y-203002438D02*
X120661904Y-203050057D01*
X120661904Y-203050057D02*
X120614285Y-203145295D01*
X120614285Y-203145295D02*
X120614285Y-203240533D01*
X120614285Y-203240533D02*
X120661904Y-203383390D01*
X120661904Y-203383390D02*
X121233332Y-203954819D01*
X121233332Y-203954819D02*
X120614285Y-203954819D01*
X145492857Y-164004819D02*
X145826190Y-163528628D01*
X146064285Y-164004819D02*
X146064285Y-163004819D01*
X146064285Y-163004819D02*
X145683333Y-163004819D01*
X145683333Y-163004819D02*
X145588095Y-163052438D01*
X145588095Y-163052438D02*
X145540476Y-163100057D01*
X145540476Y-163100057D02*
X145492857Y-163195295D01*
X145492857Y-163195295D02*
X145492857Y-163338152D01*
X145492857Y-163338152D02*
X145540476Y-163433390D01*
X145540476Y-163433390D02*
X145588095Y-163481009D01*
X145588095Y-163481009D02*
X145683333Y-163528628D01*
X145683333Y-163528628D02*
X146064285Y-163528628D01*
X145159523Y-163004819D02*
X144540476Y-163004819D01*
X144540476Y-163004819D02*
X144873809Y-163385771D01*
X144873809Y-163385771D02*
X144730952Y-163385771D01*
X144730952Y-163385771D02*
X144635714Y-163433390D01*
X144635714Y-163433390D02*
X144588095Y-163481009D01*
X144588095Y-163481009D02*
X144540476Y-163576247D01*
X144540476Y-163576247D02*
X144540476Y-163814342D01*
X144540476Y-163814342D02*
X144588095Y-163909580D01*
X144588095Y-163909580D02*
X144635714Y-163957200D01*
X144635714Y-163957200D02*
X144730952Y-164004819D01*
X144730952Y-164004819D02*
X145016666Y-164004819D01*
X145016666Y-164004819D02*
X145111904Y-163957200D01*
X145111904Y-163957200D02*
X145159523Y-163909580D01*
X144159523Y-163100057D02*
X144111904Y-163052438D01*
X144111904Y-163052438D02*
X144016666Y-163004819D01*
X144016666Y-163004819D02*
X143778571Y-163004819D01*
X143778571Y-163004819D02*
X143683333Y-163052438D01*
X143683333Y-163052438D02*
X143635714Y-163100057D01*
X143635714Y-163100057D02*
X143588095Y-163195295D01*
X143588095Y-163195295D02*
X143588095Y-163290533D01*
X143588095Y-163290533D02*
X143635714Y-163433390D01*
X143635714Y-163433390D02*
X144207142Y-164004819D01*
X144207142Y-164004819D02*
X143588095Y-164004819D01*
X142138095Y-112859580D02*
X142185714Y-112907200D01*
X142185714Y-112907200D02*
X142328571Y-112954819D01*
X142328571Y-112954819D02*
X142423809Y-112954819D01*
X142423809Y-112954819D02*
X142566666Y-112907200D01*
X142566666Y-112907200D02*
X142661904Y-112811961D01*
X142661904Y-112811961D02*
X142709523Y-112716723D01*
X142709523Y-112716723D02*
X142757142Y-112526247D01*
X142757142Y-112526247D02*
X142757142Y-112383390D01*
X142757142Y-112383390D02*
X142709523Y-112192914D01*
X142709523Y-112192914D02*
X142661904Y-112097676D01*
X142661904Y-112097676D02*
X142566666Y-112002438D01*
X142566666Y-112002438D02*
X142423809Y-111954819D01*
X142423809Y-111954819D02*
X142328571Y-111954819D01*
X142328571Y-111954819D02*
X142185714Y-112002438D01*
X142185714Y-112002438D02*
X142138095Y-112050057D01*
X141519047Y-111954819D02*
X141328571Y-111954819D01*
X141328571Y-111954819D02*
X141233333Y-112002438D01*
X141233333Y-112002438D02*
X141138095Y-112097676D01*
X141138095Y-112097676D02*
X141090476Y-112288152D01*
X141090476Y-112288152D02*
X141090476Y-112621485D01*
X141090476Y-112621485D02*
X141138095Y-112811961D01*
X141138095Y-112811961D02*
X141233333Y-112907200D01*
X141233333Y-112907200D02*
X141328571Y-112954819D01*
X141328571Y-112954819D02*
X141519047Y-112954819D01*
X141519047Y-112954819D02*
X141614285Y-112907200D01*
X141614285Y-112907200D02*
X141709523Y-112811961D01*
X141709523Y-112811961D02*
X141757142Y-112621485D01*
X141757142Y-112621485D02*
X141757142Y-112288152D01*
X141757142Y-112288152D02*
X141709523Y-112097676D01*
X141709523Y-112097676D02*
X141614285Y-112002438D01*
X141614285Y-112002438D02*
X141519047Y-111954819D01*
X140661904Y-112954819D02*
X140661904Y-111954819D01*
X140661904Y-111954819D02*
X140090476Y-112954819D01*
X140090476Y-112954819D02*
X140090476Y-111954819D01*
X139614285Y-112954819D02*
X139614285Y-111954819D01*
X139614285Y-111954819D02*
X139042857Y-112954819D01*
X139042857Y-112954819D02*
X139042857Y-111954819D01*
X138042857Y-112954819D02*
X138614285Y-112954819D01*
X138328571Y-112954819D02*
X138328571Y-111954819D01*
X138328571Y-111954819D02*
X138423809Y-112097676D01*
X138423809Y-112097676D02*
X138519047Y-112192914D01*
X138519047Y-112192914D02*
X138614285Y-112240533D01*
X108642857Y-144354819D02*
X108976190Y-143878628D01*
X109214285Y-144354819D02*
X109214285Y-143354819D01*
X109214285Y-143354819D02*
X108833333Y-143354819D01*
X108833333Y-143354819D02*
X108738095Y-143402438D01*
X108738095Y-143402438D02*
X108690476Y-143450057D01*
X108690476Y-143450057D02*
X108642857Y-143545295D01*
X108642857Y-143545295D02*
X108642857Y-143688152D01*
X108642857Y-143688152D02*
X108690476Y-143783390D01*
X108690476Y-143783390D02*
X108738095Y-143831009D01*
X108738095Y-143831009D02*
X108833333Y-143878628D01*
X108833333Y-143878628D02*
X109214285Y-143878628D01*
X108309523Y-143354819D02*
X107690476Y-143354819D01*
X107690476Y-143354819D02*
X108023809Y-143735771D01*
X108023809Y-143735771D02*
X107880952Y-143735771D01*
X107880952Y-143735771D02*
X107785714Y-143783390D01*
X107785714Y-143783390D02*
X107738095Y-143831009D01*
X107738095Y-143831009D02*
X107690476Y-143926247D01*
X107690476Y-143926247D02*
X107690476Y-144164342D01*
X107690476Y-144164342D02*
X107738095Y-144259580D01*
X107738095Y-144259580D02*
X107785714Y-144307200D01*
X107785714Y-144307200D02*
X107880952Y-144354819D01*
X107880952Y-144354819D02*
X108166666Y-144354819D01*
X108166666Y-144354819D02*
X108261904Y-144307200D01*
X108261904Y-144307200D02*
X108309523Y-144259580D01*
X107214285Y-144354819D02*
X107023809Y-144354819D01*
X107023809Y-144354819D02*
X106928571Y-144307200D01*
X106928571Y-144307200D02*
X106880952Y-144259580D01*
X106880952Y-144259580D02*
X106785714Y-144116723D01*
X106785714Y-144116723D02*
X106738095Y-143926247D01*
X106738095Y-143926247D02*
X106738095Y-143545295D01*
X106738095Y-143545295D02*
X106785714Y-143450057D01*
X106785714Y-143450057D02*
X106833333Y-143402438D01*
X106833333Y-143402438D02*
X106928571Y-143354819D01*
X106928571Y-143354819D02*
X107119047Y-143354819D01*
X107119047Y-143354819D02*
X107214285Y-143402438D01*
X107214285Y-143402438D02*
X107261904Y-143450057D01*
X107261904Y-143450057D02*
X107309523Y-143545295D01*
X107309523Y-143545295D02*
X107309523Y-143783390D01*
X107309523Y-143783390D02*
X107261904Y-143878628D01*
X107261904Y-143878628D02*
X107214285Y-143926247D01*
X107214285Y-143926247D02*
X107119047Y-143973866D01*
X107119047Y-143973866D02*
X106928571Y-143973866D01*
X106928571Y-143973866D02*
X106833333Y-143926247D01*
X106833333Y-143926247D02*
X106785714Y-143878628D01*
X106785714Y-143878628D02*
X106738095Y-143783390D01*
X116542857Y-150954819D02*
X116876190Y-150478628D01*
X117114285Y-150954819D02*
X117114285Y-149954819D01*
X117114285Y-149954819D02*
X116733333Y-149954819D01*
X116733333Y-149954819D02*
X116638095Y-150002438D01*
X116638095Y-150002438D02*
X116590476Y-150050057D01*
X116590476Y-150050057D02*
X116542857Y-150145295D01*
X116542857Y-150145295D02*
X116542857Y-150288152D01*
X116542857Y-150288152D02*
X116590476Y-150383390D01*
X116590476Y-150383390D02*
X116638095Y-150431009D01*
X116638095Y-150431009D02*
X116733333Y-150478628D01*
X116733333Y-150478628D02*
X117114285Y-150478628D01*
X116161904Y-150050057D02*
X116114285Y-150002438D01*
X116114285Y-150002438D02*
X116019047Y-149954819D01*
X116019047Y-149954819D02*
X115780952Y-149954819D01*
X115780952Y-149954819D02*
X115685714Y-150002438D01*
X115685714Y-150002438D02*
X115638095Y-150050057D01*
X115638095Y-150050057D02*
X115590476Y-150145295D01*
X115590476Y-150145295D02*
X115590476Y-150240533D01*
X115590476Y-150240533D02*
X115638095Y-150383390D01*
X115638095Y-150383390D02*
X116209523Y-150954819D01*
X116209523Y-150954819D02*
X115590476Y-150954819D01*
X115209523Y-150050057D02*
X115161904Y-150002438D01*
X115161904Y-150002438D02*
X115066666Y-149954819D01*
X115066666Y-149954819D02*
X114828571Y-149954819D01*
X114828571Y-149954819D02*
X114733333Y-150002438D01*
X114733333Y-150002438D02*
X114685714Y-150050057D01*
X114685714Y-150050057D02*
X114638095Y-150145295D01*
X114638095Y-150145295D02*
X114638095Y-150240533D01*
X114638095Y-150240533D02*
X114685714Y-150383390D01*
X114685714Y-150383390D02*
X115257142Y-150954819D01*
X115257142Y-150954819D02*
X114638095Y-150954819D01*
X103642857Y-133704819D02*
X103976190Y-133228628D01*
X104214285Y-133704819D02*
X104214285Y-132704819D01*
X104214285Y-132704819D02*
X103833333Y-132704819D01*
X103833333Y-132704819D02*
X103738095Y-132752438D01*
X103738095Y-132752438D02*
X103690476Y-132800057D01*
X103690476Y-132800057D02*
X103642857Y-132895295D01*
X103642857Y-132895295D02*
X103642857Y-133038152D01*
X103642857Y-133038152D02*
X103690476Y-133133390D01*
X103690476Y-133133390D02*
X103738095Y-133181009D01*
X103738095Y-133181009D02*
X103833333Y-133228628D01*
X103833333Y-133228628D02*
X104214285Y-133228628D01*
X102690476Y-133704819D02*
X103261904Y-133704819D01*
X102976190Y-133704819D02*
X102976190Y-132704819D01*
X102976190Y-132704819D02*
X103071428Y-132847676D01*
X103071428Y-132847676D02*
X103166666Y-132942914D01*
X103166666Y-132942914D02*
X103261904Y-132990533D01*
X102071428Y-132704819D02*
X101976190Y-132704819D01*
X101976190Y-132704819D02*
X101880952Y-132752438D01*
X101880952Y-132752438D02*
X101833333Y-132800057D01*
X101833333Y-132800057D02*
X101785714Y-132895295D01*
X101785714Y-132895295D02*
X101738095Y-133085771D01*
X101738095Y-133085771D02*
X101738095Y-133323866D01*
X101738095Y-133323866D02*
X101785714Y-133514342D01*
X101785714Y-133514342D02*
X101833333Y-133609580D01*
X101833333Y-133609580D02*
X101880952Y-133657200D01*
X101880952Y-133657200D02*
X101976190Y-133704819D01*
X101976190Y-133704819D02*
X102071428Y-133704819D01*
X102071428Y-133704819D02*
X102166666Y-133657200D01*
X102166666Y-133657200D02*
X102214285Y-133609580D01*
X102214285Y-133609580D02*
X102261904Y-133514342D01*
X102261904Y-133514342D02*
X102309523Y-133323866D01*
X102309523Y-133323866D02*
X102309523Y-133085771D01*
X102309523Y-133085771D02*
X102261904Y-132895295D01*
X102261904Y-132895295D02*
X102214285Y-132800057D01*
X102214285Y-132800057D02*
X102166666Y-132752438D01*
X102166666Y-132752438D02*
X102071428Y-132704819D01*
X143642857Y-172354819D02*
X143976190Y-171878628D01*
X144214285Y-172354819D02*
X144214285Y-171354819D01*
X144214285Y-171354819D02*
X143833333Y-171354819D01*
X143833333Y-171354819D02*
X143738095Y-171402438D01*
X143738095Y-171402438D02*
X143690476Y-171450057D01*
X143690476Y-171450057D02*
X143642857Y-171545295D01*
X143642857Y-171545295D02*
X143642857Y-171688152D01*
X143642857Y-171688152D02*
X143690476Y-171783390D01*
X143690476Y-171783390D02*
X143738095Y-171831009D01*
X143738095Y-171831009D02*
X143833333Y-171878628D01*
X143833333Y-171878628D02*
X144214285Y-171878628D01*
X142690476Y-172354819D02*
X143261904Y-172354819D01*
X142976190Y-172354819D02*
X142976190Y-171354819D01*
X142976190Y-171354819D02*
X143071428Y-171497676D01*
X143071428Y-171497676D02*
X143166666Y-171592914D01*
X143166666Y-171592914D02*
X143261904Y-171640533D01*
X141738095Y-172354819D02*
X142309523Y-172354819D01*
X142023809Y-172354819D02*
X142023809Y-171354819D01*
X142023809Y-171354819D02*
X142119047Y-171497676D01*
X142119047Y-171497676D02*
X142214285Y-171592914D01*
X142214285Y-171592914D02*
X142309523Y-171640533D01*
X119516666Y-199754819D02*
X119849999Y-199278628D01*
X120088094Y-199754819D02*
X120088094Y-198754819D01*
X120088094Y-198754819D02*
X119707142Y-198754819D01*
X119707142Y-198754819D02*
X119611904Y-198802438D01*
X119611904Y-198802438D02*
X119564285Y-198850057D01*
X119564285Y-198850057D02*
X119516666Y-198945295D01*
X119516666Y-198945295D02*
X119516666Y-199088152D01*
X119516666Y-199088152D02*
X119564285Y-199183390D01*
X119564285Y-199183390D02*
X119611904Y-199231009D01*
X119611904Y-199231009D02*
X119707142Y-199278628D01*
X119707142Y-199278628D02*
X120088094Y-199278628D01*
X118564285Y-199754819D02*
X119135713Y-199754819D01*
X118849999Y-199754819D02*
X118849999Y-198754819D01*
X118849999Y-198754819D02*
X118945237Y-198897676D01*
X118945237Y-198897676D02*
X119040475Y-198992914D01*
X119040475Y-198992914D02*
X119135713Y-199040533D01*
%TO.C,C10*%
X134625000Y-156550000D02*
X134625000Y-155050000D01*
X134825000Y-155050000D02*
X134825000Y-156550000D01*
D15*
%TO.C,OP3*%
X122890000Y-145365000D02*
X122890000Y-145430000D01*
X122890000Y-154170000D02*
X122890000Y-154235000D01*
X122890000Y-154235000D02*
X127010000Y-154235000D01*
X127010000Y-145365000D02*
X122890000Y-145365000D01*
X127010000Y-145430000D02*
X127010000Y-145365000D01*
X127010000Y-154235000D02*
X127010000Y-154170000D01*
X127550000Y-145430000D02*
X127310000Y-145100000D01*
X127790000Y-145100000D01*
X127550000Y-145430000D01*
G36*
X127550000Y-145430000D02*
G01*
X127310000Y-145100000D01*
X127790000Y-145100000D01*
X127550000Y-145430000D01*
G37*
D16*
%TO.C,R25*%
X133937500Y-146200000D02*
X133937500Y-147900000D01*
X135362500Y-147900000D02*
X135362500Y-146200000D01*
%TO.C,R15*%
X132950000Y-188312500D02*
X134650000Y-188312500D01*
X134650000Y-186887500D02*
X132950000Y-186887500D01*
D13*
%TO.C,C6*%
X117750000Y-146200000D02*
X119250000Y-146200000D01*
X119250000Y-146400000D02*
X117750000Y-146400000D01*
%TO.C,C9*%
X129350000Y-165650000D02*
X130850000Y-165650000D01*
X130850000Y-165850000D02*
X129350000Y-165850000D01*
D16*
%TO.C,R18*%
X132337500Y-151700000D02*
X132337500Y-153400000D01*
X133762500Y-153400000D02*
X133762500Y-151700000D01*
%TO.C,R6*%
X122487500Y-200250000D02*
X122487500Y-201950000D01*
X123912500Y-201950000D02*
X123912500Y-200250000D01*
%TO.C,R8*%
X107047500Y-195430000D02*
X107047500Y-197130000D01*
X108472500Y-197130000D02*
X108472500Y-195430000D01*
%TO.C,R36*%
X107287500Y-148850000D02*
X107287500Y-150550000D01*
X108712500Y-150550000D02*
X108712500Y-148850000D01*
D15*
%TO.C,U1*%
X139210000Y-181730000D02*
X139210000Y-188450000D01*
X139210000Y-183790000D02*
X138800000Y-183790000D01*
X139210000Y-186340000D02*
X138800000Y-186340000D01*
X139210000Y-188450000D02*
X145630000Y-188450000D01*
X145630000Y-181730000D02*
X139210000Y-181730000D01*
X145630000Y-188450000D02*
X145630000Y-181730000D01*
X146040000Y-183200000D02*
X145630000Y-183200000D01*
X146040000Y-187000000D02*
X145630000Y-187000000D01*
X148620000Y-188070000D02*
X145630000Y-188070000D01*
D17*
X146232500Y-181990000D02*
G75*
G02*
X145907500Y-181990000I-162500J0D01*
G01*
X145907500Y-181990000D02*
G75*
G02*
X146232500Y-181990000I162500J0D01*
G01*
D16*
%TO.C,R26*%
X132287500Y-146200000D02*
X132287500Y-147900000D01*
X133712500Y-147900000D02*
X133712500Y-146200000D01*
D15*
%TO.C,C2*%
X123890000Y-171550000D02*
X123890000Y-172850000D01*
X126610000Y-171550000D02*
X126610000Y-172850000D01*
D16*
%TO.C,R14*%
X139287500Y-133250000D02*
X139287500Y-134950000D01*
X140712500Y-134950000D02*
X140712500Y-133250000D01*
%TO.C,R7*%
X109550000Y-205712500D02*
X111250000Y-205712500D01*
X111250000Y-204287500D02*
X109550000Y-204287500D01*
%TO.C,R40*%
X109787500Y-132300000D02*
X109787500Y-134000000D01*
X111212500Y-134000000D02*
X111212500Y-132300000D01*
%TO.C,R3*%
X109550000Y-207512500D02*
X111250000Y-207512500D01*
X111250000Y-206087500D02*
X109550000Y-206087500D01*
D13*
%TO.C,C4*%
X117750000Y-153000000D02*
X119250000Y-153000000D01*
X119250000Y-153200000D02*
X117750000Y-153200000D01*
D16*
%TO.C,R35*%
X109787500Y-135700000D02*
X109787500Y-137400000D01*
X111212500Y-137400000D02*
X111212500Y-135700000D01*
D13*
%TO.C,C7*%
X145800000Y-160300000D02*
X147300000Y-160300000D01*
X147300000Y-160500000D02*
X145800000Y-160500000D01*
D16*
%TO.C,R4*%
X113050000Y-205712500D02*
X114750000Y-205712500D01*
X114750000Y-204287500D02*
X113050000Y-204287500D01*
D15*
%TO.C,OP4*%
X134515000Y-158715000D02*
X134515000Y-158780000D01*
X134515000Y-167520000D02*
X134515000Y-167585000D01*
X134515000Y-167585000D02*
X138635000Y-167585000D01*
X138635000Y-158715000D02*
X134515000Y-158715000D01*
X138635000Y-158780000D02*
X138635000Y-158715000D01*
X138635000Y-167585000D02*
X138635000Y-167520000D01*
X139175000Y-158780000D02*
X138935000Y-158450000D01*
X139415000Y-158450000D01*
X139175000Y-158780000D01*
G36*
X139175000Y-158780000D02*
G01*
X138935000Y-158450000D01*
X139415000Y-158450000D01*
X139175000Y-158780000D01*
G37*
D16*
%TO.C,R24*%
X119487500Y-152250000D02*
X119487500Y-153950000D01*
X120912500Y-153950000D02*
X120912500Y-152250000D01*
%TO.C,R34*%
X141350000Y-167462500D02*
X143050000Y-167462500D01*
X143050000Y-166037500D02*
X141350000Y-166037500D01*
%TO.C,R31*%
X144137500Y-159550000D02*
X144137500Y-161250000D01*
X145562500Y-161250000D02*
X145562500Y-159550000D01*
%TO.C,R23*%
X128887500Y-146200000D02*
X128887500Y-147900000D01*
X130312500Y-147900000D02*
X130312500Y-146200000D01*
%TO.C,R16*%
X103050000Y-181062500D02*
X104750000Y-181062500D01*
X104750000Y-179637500D02*
X103050000Y-179637500D01*
%TO.C,R9*%
X104737500Y-123500000D02*
X104737500Y-125200000D01*
X106162500Y-125200000D02*
X106162500Y-123500000D01*
D15*
%TO.C,U2*%
X101880000Y-182430000D02*
X104870000Y-182430000D01*
X104460000Y-183500000D02*
X104870000Y-183500000D01*
X104460000Y-187300000D02*
X104870000Y-187300000D01*
X104870000Y-182050000D02*
X104870000Y-188770000D01*
X104870000Y-188770000D02*
X111290000Y-188770000D01*
X111290000Y-182050000D02*
X104870000Y-182050000D01*
X111290000Y-184160000D02*
X111700000Y-184160000D01*
X111290000Y-186710000D02*
X111700000Y-186710000D01*
X111290000Y-188770000D02*
X111290000Y-182050000D01*
D17*
X104592500Y-188510000D02*
G75*
G02*
X104267500Y-188510000I-162500J0D01*
G01*
X104267500Y-188510000D02*
G75*
G02*
X104592500Y-188510000I162500J0D01*
G01*
D16*
%TO.C,R20*%
X117587500Y-166550000D02*
X117587500Y-168250000D01*
X119012500Y-168250000D02*
X119012500Y-166550000D01*
%TO.C,R30*%
X119487500Y-145450000D02*
X119487500Y-147150000D01*
X120912500Y-147150000D02*
X120912500Y-145450000D01*
D15*
%TO.C,OP1*%
X110465000Y-194775000D02*
X110465000Y-194840000D01*
X110465000Y-203580000D02*
X110465000Y-203645000D01*
X110465000Y-203645000D02*
X114585000Y-203645000D01*
X114585000Y-194775000D02*
X110465000Y-194775000D01*
X114585000Y-194840000D02*
X114585000Y-194775000D01*
X114585000Y-203645000D02*
X114585000Y-203580000D01*
X115125000Y-194840000D02*
X114885000Y-194510000D01*
X115365000Y-194510000D01*
X115125000Y-194840000D01*
G36*
X115125000Y-194840000D02*
G01*
X114885000Y-194510000D01*
X115365000Y-194510000D01*
X115125000Y-194840000D01*
G37*
%TO.C,C1*%
X123940000Y-162500000D02*
X123940000Y-161200000D01*
X126660000Y-162500000D02*
X126660000Y-161200000D01*
D13*
%TO.C,C3*%
X130550000Y-146950000D02*
X132050000Y-146950000D01*
X132050000Y-147150000D02*
X130550000Y-147150000D01*
D16*
%TO.C,R28*%
X118500000Y-149512500D02*
X120200000Y-149512500D01*
X120200000Y-148087500D02*
X118500000Y-148087500D01*
%TO.C,R13*%
X140650000Y-125012500D02*
X142350000Y-125012500D01*
X142350000Y-123587500D02*
X140650000Y-123587500D01*
%TO.C,R19*%
X104787500Y-135700000D02*
X104787500Y-137400000D01*
X106212500Y-137400000D02*
X106212500Y-135700000D01*
%TO.C,R33*%
X141275000Y-160262500D02*
X142975000Y-160262500D01*
X142975000Y-158837500D02*
X141275000Y-158837500D01*
%TO.C,R38*%
X133850000Y-158312500D02*
X135550000Y-158312500D01*
X135550000Y-156887500D02*
X133850000Y-156887500D01*
%TO.C,R12*%
X107287500Y-173650000D02*
X107287500Y-175350000D01*
X108712500Y-175350000D02*
X108712500Y-173650000D01*
D13*
%TO.C,C5*%
X130600000Y-152450000D02*
X132100000Y-152450000D01*
X132100000Y-152650000D02*
X130600000Y-152650000D01*
D16*
%TO.C,R29*%
X128887500Y-151700000D02*
X128887500Y-153400000D01*
X130312500Y-153400000D02*
X130312500Y-151700000D01*
D15*
%TO.C,OP2*%
X121115000Y-120390000D02*
X121115000Y-124510000D01*
X121115000Y-124510000D02*
X121180000Y-124510000D01*
X121180000Y-120390000D02*
X121115000Y-120390000D01*
X129920000Y-124510000D02*
X129985000Y-124510000D01*
X129985000Y-120390000D02*
X129920000Y-120390000D01*
X129985000Y-124510000D02*
X129985000Y-120390000D01*
X121180000Y-119850000D02*
X120850000Y-120090000D01*
X120850000Y-119610000D01*
X121180000Y-119850000D01*
G36*
X121180000Y-119850000D02*
G01*
X120850000Y-120090000D01*
X120850000Y-119610000D01*
X121180000Y-119850000D01*
G37*
D13*
%TO.C,C8*%
X145800000Y-165800000D02*
X147300000Y-165800000D01*
X147300000Y-166000000D02*
X145800000Y-166000000D01*
D16*
%TO.C,R2*%
X120687500Y-200250000D02*
X120687500Y-201950000D01*
X122112500Y-201950000D02*
X122112500Y-200250000D01*
%TO.C,R37*%
X131087500Y-164900000D02*
X131087500Y-166600000D01*
X132512500Y-166600000D02*
X132512500Y-164900000D01*
%TO.C,R32*%
X144137500Y-165050000D02*
X144137500Y-166750000D01*
X145562500Y-166750000D02*
X145562500Y-165050000D01*
D15*
%TO.C,CONN1*%
X111410000Y-113880000D02*
X111410000Y-111120000D01*
X134380000Y-111120000D02*
X111410000Y-111120000D01*
X134380000Y-113880000D02*
X111410000Y-113880000D01*
X134380000Y-113880000D02*
X134380000Y-111120000D01*
X135650000Y-113880000D02*
X137030000Y-113880000D01*
X137030000Y-113880000D02*
X137030000Y-112500000D01*
D16*
%TO.C,R39*%
X107287500Y-145500000D02*
X107287500Y-147200000D01*
X108712500Y-147200000D02*
X108712500Y-145500000D01*
%TO.C,R22*%
X118500000Y-151212500D02*
X120200000Y-151212500D01*
X120200000Y-149787500D02*
X118500000Y-149787500D01*
%TO.C,R5*%
X116587500Y-195950000D02*
X116587500Y-197650000D01*
X118012500Y-197650000D02*
X118012500Y-195950000D01*
%TO.C,R17*%
X131300000Y-150712500D02*
X133000000Y-150712500D01*
X133000000Y-149287500D02*
X131300000Y-149287500D01*
%TO.C,R10*%
X104787500Y-132400000D02*
X104787500Y-134100000D01*
X106212500Y-134100000D02*
X106212500Y-132400000D01*
%TO.C,R21*%
X134650000Y-154112500D02*
X136350000Y-154112500D01*
X136350000Y-152687500D02*
X134650000Y-152687500D01*
%TO.C,R27*%
X118500000Y-144512500D02*
X120200000Y-144512500D01*
X120200000Y-143087500D02*
X118500000Y-143087500D01*
%TO.C,R11*%
X142287500Y-173600000D02*
X142287500Y-175300000D01*
X143712500Y-175300000D02*
X143712500Y-173600000D01*
%TO.C,R1*%
X118637500Y-195950000D02*
X118637500Y-197650000D01*
X120062500Y-197650000D02*
X120062500Y-195950000D01*
%TD*%
%LPC*%
D18*
%TO.C,RV5*%
X114500000Y-177700000D03*
X123500000Y-177700000D03*
D19*
X116500000Y-184700000D03*
D20*
X119000000Y-184700000D03*
X121500000Y-184700000D03*
%TD*%
D21*
%TO.C,RV8*%
X120500000Y-132750000D03*
X130000000Y-132750000D03*
D22*
X122750000Y-140250000D03*
D23*
X125250000Y-140250000D03*
X127750000Y-140250000D03*
X122750000Y-142750000D03*
X125250000Y-142750000D03*
X127750000Y-142750000D03*
%TD*%
D24*
%TO.C,J8*%
X144000000Y-216480000D03*
D25*
X144000000Y-205080000D03*
X144000000Y-213380000D03*
%TD*%
D24*
%TO.C,J3*%
X106500000Y-216480000D03*
D25*
X106500000Y-205080000D03*
X106500000Y-213380000D03*
%TD*%
D21*
%TO.C,RV4*%
X137750000Y-120000000D03*
X147250000Y-120000000D03*
D22*
X140000000Y-127500000D03*
D23*
X142500000Y-127500000D03*
X145000000Y-127500000D03*
X140000000Y-130000000D03*
X142500000Y-130000000D03*
X145000000Y-130000000D03*
%TD*%
D18*
%TO.C,RV2*%
X138000000Y-170500000D03*
X147000000Y-170500000D03*
D19*
X140000000Y-177500000D03*
D20*
X142500000Y-177500000D03*
X145000000Y-177500000D03*
%TD*%
D21*
%TO.C,RV10*%
X103250000Y-145500000D03*
X112750000Y-145500000D03*
D22*
X105500000Y-153000000D03*
D23*
X108000000Y-153000000D03*
X110500000Y-153000000D03*
X105500000Y-155500000D03*
X108000000Y-155500000D03*
X110500000Y-155500000D03*
%TD*%
D24*
%TO.C,J2*%
X119000000Y-190520000D03*
D25*
X119000000Y-201920000D03*
X119000000Y-193620000D03*
%TD*%
D21*
%TO.C,RV6*%
X120500000Y-158250000D03*
X130000000Y-158250000D03*
D22*
X122750000Y-165750000D03*
D23*
X125250000Y-165750000D03*
X127750000Y-165750000D03*
X122750000Y-168250000D03*
X125250000Y-168250000D03*
X127750000Y-168250000D03*
%TD*%
D24*
%TO.C,J1*%
X106500000Y-190520000D03*
D25*
X106500000Y-201920000D03*
X106500000Y-193620000D03*
%TD*%
D24*
%TO.C,J6*%
X131500000Y-216480000D03*
D25*
X131500000Y-205080000D03*
X131500000Y-213380000D03*
%TD*%
D21*
%TO.C,RV3*%
X103250000Y-120000000D03*
X112750000Y-120000000D03*
D22*
X105500000Y-127500000D03*
D23*
X108000000Y-127500000D03*
X110500000Y-127500000D03*
X105500000Y-130000000D03*
X108000000Y-130000000D03*
X110500000Y-130000000D03*
%TD*%
D21*
%TO.C,RV9*%
X137750000Y-145500000D03*
X147250000Y-145500000D03*
D22*
X140000000Y-153000000D03*
D23*
X142500000Y-153000000D03*
X145000000Y-153000000D03*
X140000000Y-155500000D03*
X142500000Y-155500000D03*
X145000000Y-155500000D03*
%TD*%
D24*
%TO.C,J5*%
X131500000Y-190520000D03*
D25*
X131500000Y-201920000D03*
X131500000Y-193620000D03*
%TD*%
D24*
%TO.C,J4*%
X119000000Y-216480000D03*
D25*
X119000000Y-205080000D03*
X119000000Y-213380000D03*
%TD*%
D18*
%TO.C,RV7*%
X127000000Y-177700000D03*
X136000000Y-177700000D03*
D19*
X129000000Y-184700000D03*
D20*
X131500000Y-184700000D03*
X134000000Y-184700000D03*
%TD*%
D26*
%TO.C,H3*%
X117000000Y-117000000D03*
%TD*%
D24*
%TO.C,J7*%
X144000000Y-190520000D03*
D25*
X144000000Y-201920000D03*
X144000000Y-193620000D03*
%TD*%
D18*
%TO.C,RV1*%
X103500000Y-170500000D03*
X112500000Y-170500000D03*
D19*
X105500000Y-177500000D03*
D20*
X108000000Y-177500000D03*
X110500000Y-177500000D03*
%TD*%
D27*
%TO.C,C10*%
X135575000Y-155800000D03*
X133875000Y-155800000D03*
%TD*%
D28*
%TO.C,OP3*%
X127425000Y-145990000D03*
X127425000Y-147260000D03*
X127425000Y-148530000D03*
X127425000Y-149800000D03*
X127425000Y-151070000D03*
X127425000Y-152340000D03*
X127425000Y-153610000D03*
X122475000Y-153610000D03*
X122475000Y-152340000D03*
X122475000Y-151070000D03*
X122475000Y-149800000D03*
X122475000Y-148530000D03*
X122475000Y-147260000D03*
X122475000Y-145990000D03*
%TD*%
D27*
%TO.C,R25*%
X134650000Y-147900000D03*
X134650000Y-146200000D03*
%TD*%
%TO.C,R15*%
X132950000Y-187600000D03*
X134650000Y-187600000D03*
%TD*%
%TO.C,C6*%
X118500000Y-147150000D03*
X118500000Y-145450000D03*
%TD*%
%TO.C,C9*%
X130100000Y-164900000D03*
X130100000Y-166600000D03*
%TD*%
%TO.C,R18*%
X133050000Y-151700000D03*
X133050000Y-153400000D03*
%TD*%
%TO.C,R6*%
X123200000Y-200250000D03*
X123200000Y-201950000D03*
%TD*%
%TO.C,R8*%
X107760000Y-197130000D03*
X107760000Y-195430000D03*
%TD*%
%TO.C,R36*%
X108000000Y-150550000D03*
X108000000Y-148850000D03*
%TD*%
D29*
%TO.C,C12*%
X141100000Y-163170000D03*
X142130000Y-163170000D03*
%TD*%
D30*
%TO.C,U1*%
X147500000Y-187000000D03*
D31*
X147500000Y-183190000D03*
X137340000Y-183830000D03*
X137340000Y-186360000D03*
%TD*%
D27*
%TO.C,R26*%
X133000000Y-147900000D03*
X133000000Y-146200000D03*
%TD*%
D32*
%TO.C,C2*%
X125250000Y-170695000D03*
X125250000Y-173705000D03*
%TD*%
D27*
%TO.C,R14*%
X140000000Y-134950000D03*
X140000000Y-133250000D03*
%TD*%
%TO.C,R7*%
X111250000Y-205000000D03*
X109550000Y-205000000D03*
%TD*%
%TO.C,R40*%
X110500000Y-132300000D03*
X110500000Y-134000000D03*
%TD*%
%TO.C,R3*%
X109550000Y-206800000D03*
X111250000Y-206800000D03*
%TD*%
%TO.C,C4*%
X118500000Y-152250000D03*
X118500000Y-153950000D03*
%TD*%
D29*
%TO.C,C16*%
X120175000Y-142210000D03*
X119145000Y-142210000D03*
%TD*%
D33*
%TO.C,C13*%
X129990000Y-149205000D03*
X129990000Y-150235000D03*
%TD*%
D27*
%TO.C,R35*%
X110500000Y-137400000D03*
X110500000Y-135700000D03*
%TD*%
%TO.C,C7*%
X146550000Y-161250000D03*
X146550000Y-159550000D03*
%TD*%
%TO.C,R4*%
X114750000Y-205000000D03*
X113050000Y-205000000D03*
%TD*%
D28*
%TO.C,OP4*%
X139050000Y-159340000D03*
X139050000Y-160610000D03*
X139050000Y-161880000D03*
X139050000Y-163150000D03*
X139050000Y-164420000D03*
X139050000Y-165690000D03*
X139050000Y-166960000D03*
X134100000Y-166960000D03*
X134100000Y-165690000D03*
X134100000Y-164420000D03*
X134100000Y-163150000D03*
X134100000Y-161880000D03*
X134100000Y-160610000D03*
X134100000Y-159340000D03*
%TD*%
D29*
%TO.C,C17*%
X108215000Y-199180000D03*
X107185000Y-199180000D03*
%TD*%
D27*
%TO.C,R24*%
X120200000Y-152250000D03*
X120200000Y-153950000D03*
%TD*%
%TO.C,R34*%
X141350000Y-166750000D03*
X143050000Y-166750000D03*
%TD*%
%TO.C,R31*%
X144850000Y-161250000D03*
X144850000Y-159550000D03*
%TD*%
%TO.C,R23*%
X129600000Y-147900000D03*
X129600000Y-146200000D03*
%TD*%
%TO.C,R16*%
X104750000Y-180350000D03*
X103050000Y-180350000D03*
%TD*%
%TO.C,R9*%
X105450000Y-123500000D03*
X105450000Y-125200000D03*
%TD*%
D34*
%TO.C,U2*%
X103000000Y-183500000D03*
D31*
X103000000Y-187310000D03*
X113160000Y-186670000D03*
X113160000Y-184140000D03*
%TD*%
D27*
%TO.C,R20*%
X118300000Y-168250000D03*
X118300000Y-166550000D03*
%TD*%
%TO.C,R30*%
X120200000Y-147150000D03*
X120200000Y-145450000D03*
%TD*%
D26*
%TO.C,H2*%
X137750000Y-210000000D03*
%TD*%
D28*
%TO.C,OP1*%
X115000000Y-195400000D03*
X115000000Y-196670000D03*
X115000000Y-197940000D03*
X115000000Y-199210000D03*
X115000000Y-200480000D03*
X115000000Y-201750000D03*
X115000000Y-203020000D03*
X110050000Y-203020000D03*
X110050000Y-201750000D03*
X110050000Y-200480000D03*
X110050000Y-199210000D03*
X110050000Y-197940000D03*
X110050000Y-196670000D03*
X110050000Y-195400000D03*
%TD*%
D32*
%TO.C,C1*%
X125300000Y-163355000D03*
X125300000Y-160345000D03*
%TD*%
D33*
%TO.C,C18*%
X131690000Y-163155000D03*
X131690000Y-162125000D03*
%TD*%
D27*
%TO.C,C3*%
X131300000Y-147900000D03*
X131300000Y-146200000D03*
%TD*%
D33*
%TO.C,C14*%
X117040000Y-199185000D03*
X117040000Y-200215000D03*
%TD*%
D27*
%TO.C,R28*%
X118500000Y-148800000D03*
X120200000Y-148800000D03*
%TD*%
%TO.C,R13*%
X142350000Y-124300000D03*
X140650000Y-124300000D03*
%TD*%
%TO.C,R19*%
X105500000Y-135700000D03*
X105500000Y-137400000D03*
%TD*%
%TO.C,R33*%
X141275000Y-159550000D03*
X142975000Y-159550000D03*
%TD*%
%TO.C,R38*%
X135550000Y-157600000D03*
X133850000Y-157600000D03*
%TD*%
%TO.C,R12*%
X108000000Y-175350000D03*
X108000000Y-173650000D03*
%TD*%
%TO.C,C5*%
X131350000Y-151700000D03*
X131350000Y-153400000D03*
%TD*%
D29*
%TO.C,C11*%
X125520000Y-116300000D03*
X124490000Y-116300000D03*
%TD*%
D27*
%TO.C,R29*%
X129600000Y-151700000D03*
X129600000Y-153400000D03*
%TD*%
D35*
%TO.C,OP2*%
X121740000Y-119975000D03*
X123010000Y-119975000D03*
X124280000Y-119975000D03*
X125550000Y-119975000D03*
X126820000Y-119975000D03*
X128090000Y-119975000D03*
X129360000Y-119975000D03*
X129360000Y-124925000D03*
X128090000Y-124925000D03*
X126820000Y-124925000D03*
X125550000Y-124925000D03*
X124280000Y-124925000D03*
X123010000Y-124925000D03*
X121740000Y-124925000D03*
%TD*%
D26*
%TO.C,H1*%
X112750000Y-210000000D03*
%TD*%
D27*
%TO.C,C8*%
X146550000Y-166750000D03*
X146550000Y-165050000D03*
%TD*%
%TO.C,R2*%
X121400000Y-201950000D03*
X121400000Y-200250000D03*
%TD*%
%TO.C,R37*%
X131800000Y-164900000D03*
X131800000Y-166600000D03*
%TD*%
%TO.C,R32*%
X144850000Y-165050000D03*
X144850000Y-166750000D03*
%TD*%
D36*
%TO.C,CONN1*%
X135650000Y-112500000D03*
D37*
X133110000Y-112500000D03*
X130570000Y-112500000D03*
X128030000Y-112500000D03*
X125490000Y-112500000D03*
X122950000Y-112500000D03*
X120410000Y-112500000D03*
X117870000Y-112500000D03*
X115330000Y-112500000D03*
X112790000Y-112500000D03*
%TD*%
D27*
%TO.C,R39*%
X108000000Y-145500000D03*
X108000000Y-147200000D03*
%TD*%
%TO.C,R22*%
X118500000Y-150500000D03*
X120200000Y-150500000D03*
%TD*%
%TO.C,R5*%
X117300000Y-197650000D03*
X117300000Y-195950000D03*
%TD*%
%TO.C,R17*%
X133000000Y-150000000D03*
X131300000Y-150000000D03*
%TD*%
%TO.C,R10*%
X105500000Y-134100000D03*
X105500000Y-132400000D03*
%TD*%
D29*
%TO.C,C19*%
X125545000Y-127060000D03*
X124515000Y-127060000D03*
%TD*%
D27*
%TO.C,R21*%
X136350000Y-153400000D03*
X134650000Y-153400000D03*
%TD*%
%TO.C,R27*%
X120200000Y-143800000D03*
X118500000Y-143800000D03*
%TD*%
%TO.C,R11*%
X143000000Y-175300000D03*
X143000000Y-173600000D03*
%TD*%
%TO.C,R1*%
X119350000Y-195950000D03*
X119350000Y-197650000D03*
%TD*%
%LPD*%
M02*
