%TF.GenerationSoftware,KiCad,Pcbnew,7.0.8*%
%TF.CreationDate,2024-09-22T22:05:30-04:00*%
%TF.ProjectId,lichen-bifocals-control-board,6c696368-656e-42d6-9269-666f63616c73,1.0*%
%TF.SameCoordinates,Original*%
%TF.FileFunction,Drillmap*%
%TF.FilePolarity,Positive*%
%FSLAX45Y45*%
G04 Gerber Fmt 4.5, Leading zero omitted, Abs format (unit mm)*
G04 Created by KiCad (PCBNEW 7.0.8) date 2024-09-22 22:05:30*
%MOMM*%
%LPD*%
G01*
G04 APERTURE LIST*
%ADD10C,0.100000*%
%ADD11C,0.200000*%
%ADD12C,0.040000*%
%ADD13C,0.081280*%
%ADD14C,0.101600*%
%ADD15C,0.110000*%
%ADD16C,0.210000*%
G04 APERTURE END LIST*
D10*
X10125000Y-11025000D02*
X13905000Y-11025000D01*
X13905000Y-21825000D01*
X10125000Y-21825000D01*
X10125000Y-11025000D01*
D11*
D12*
X11341000Y-17901000D02*
X11381000Y-17941000D01*
X11381000Y-17901000D02*
X11341000Y-17941000D01*
X11857000Y-13585000D02*
X11897000Y-13625000D01*
X11897000Y-13585000D02*
X11857000Y-13625000D01*
X12135000Y-14172000D02*
X12175000Y-14212000D01*
X12175000Y-14172000D02*
X12135000Y-14212000D01*
X12196000Y-11813000D02*
X12236000Y-11853000D01*
X12236000Y-11813000D02*
X12196000Y-11853000D01*
X12216000Y-13233000D02*
X12256000Y-13273000D01*
X12256000Y-13233000D02*
X12216000Y-13273000D01*
X12273000Y-16214000D02*
X12313000Y-16254000D01*
X12313000Y-16214000D02*
X12273000Y-16254000D01*
X12349000Y-13958000D02*
X12389000Y-13998000D01*
X12389000Y-13958000D02*
X12349000Y-13998000D01*
X12466000Y-16238000D02*
X12506000Y-16278000D01*
X12506000Y-16238000D02*
X12466000Y-16278000D01*
X12707000Y-14555000D02*
X12747000Y-14595000D01*
X12747000Y-14555000D02*
X12707000Y-14595000D01*
X12710000Y-15992000D02*
X12750000Y-16032000D01*
X12750000Y-15992000D02*
X12710000Y-16032000D01*
X12813000Y-17747000D02*
X12853000Y-17787000D01*
X12853000Y-17747000D02*
X12813000Y-17787000D01*
X12888000Y-16945000D02*
X12928000Y-16985000D01*
X12928000Y-16945000D02*
X12888000Y-16985000D01*
X13233000Y-15243000D02*
X13273000Y-15283000D01*
X13273000Y-15243000D02*
X13233000Y-15283000D01*
D13*
X11928640Y-16628400D02*
G75*
G03*
X11928640Y-16628400I-40640J0D01*
G01*
X12182640Y-16628400D02*
G75*
G03*
X12182640Y-16628400I-40640J0D01*
G01*
D10*
X11507000Y-11165000D02*
X11507000Y-11265000D01*
X11457000Y-11215000D02*
X11557000Y-11215000D01*
X11507000Y-11419000D02*
X11507000Y-11519000D01*
X11457000Y-11469000D02*
X11557000Y-11469000D01*
X11507000Y-17168000D02*
X11507000Y-17268000D01*
X11457000Y-17218000D02*
X11557000Y-17218000D01*
X11507000Y-17422000D02*
X11507000Y-17522000D01*
X11457000Y-17472000D02*
X11557000Y-17472000D01*
X11761000Y-11165000D02*
X11761000Y-11265000D01*
X11711000Y-11215000D02*
X11811000Y-11215000D01*
X11761000Y-11419000D02*
X11761000Y-11519000D01*
X11711000Y-11469000D02*
X11811000Y-11469000D01*
X11761000Y-17168000D02*
X11761000Y-17268000D01*
X11711000Y-17218000D02*
X11811000Y-17218000D01*
X11761000Y-17422000D02*
X11761000Y-17522000D01*
X11711000Y-17472000D02*
X11811000Y-17472000D01*
X12015000Y-11165000D02*
X12015000Y-11265000D01*
X11965000Y-11215000D02*
X12065000Y-11215000D01*
X12015000Y-11419000D02*
X12015000Y-11519000D01*
X11965000Y-11469000D02*
X12065000Y-11469000D01*
X12015000Y-17168000D02*
X12015000Y-17268000D01*
X11965000Y-17218000D02*
X12065000Y-17218000D01*
X12015000Y-17422000D02*
X12015000Y-17522000D01*
X11965000Y-17472000D02*
X12065000Y-17472000D01*
X12269000Y-11165000D02*
X12269000Y-11265000D01*
X12219000Y-11215000D02*
X12319000Y-11215000D01*
X12269000Y-11419000D02*
X12269000Y-11519000D01*
X12219000Y-11469000D02*
X12319000Y-11469000D01*
X12269000Y-17168000D02*
X12269000Y-17268000D01*
X12219000Y-17218000D02*
X12319000Y-17218000D01*
X12269000Y-17422000D02*
X12269000Y-17522000D01*
X12219000Y-17472000D02*
X12319000Y-17472000D01*
X12523000Y-11165000D02*
X12523000Y-11265000D01*
X12473000Y-11215000D02*
X12573000Y-11215000D01*
X12523000Y-11419000D02*
X12523000Y-11519000D01*
X12473000Y-11469000D02*
X12573000Y-11469000D01*
X12523000Y-17168000D02*
X12523000Y-17268000D01*
X12473000Y-17218000D02*
X12573000Y-17218000D01*
X12523000Y-17422000D02*
X12523000Y-17522000D01*
X12473000Y-17472000D02*
X12573000Y-17472000D01*
D14*
X10592401Y-14326861D02*
X10592401Y-14255019D01*
X10520559Y-14255019D01*
X10520559Y-14326861D01*
X10592401Y-14326861D01*
X10592401Y-14778981D02*
X10592401Y-14707139D01*
X10520559Y-14707139D01*
X10520559Y-14778981D01*
X10592401Y-14778981D01*
X11242641Y-14326861D02*
X11242641Y-14255019D01*
X11170799Y-14255019D01*
X11170799Y-14326861D01*
X11242641Y-14326861D01*
X11242641Y-14778981D02*
X11242641Y-14707139D01*
X11170799Y-14707139D01*
X11170799Y-14778981D01*
X11242641Y-14778981D01*
D15*
X10629700Y-17827300D02*
X10684700Y-17772300D01*
X10629700Y-17717300D01*
X10574700Y-17772300D01*
X10629700Y-17827300D01*
X10629700Y-18677300D02*
X10684700Y-18622300D01*
X10629700Y-18567300D01*
X10574700Y-18622300D01*
X10629700Y-18677300D01*
X10629700Y-18977300D02*
X10684700Y-18922300D01*
X10629700Y-18867300D01*
X10574700Y-18922300D01*
X10629700Y-18977300D01*
X10629700Y-19212700D02*
X10684700Y-19157700D01*
X10629700Y-19102700D01*
X10574700Y-19157700D01*
X10629700Y-19212700D01*
X10629700Y-20062700D02*
X10684700Y-20007700D01*
X10629700Y-19952700D01*
X10574700Y-20007700D01*
X10629700Y-20062700D01*
X10629700Y-20362700D02*
X10684700Y-20307700D01*
X10629700Y-20252700D01*
X10574700Y-20307700D01*
X10629700Y-20362700D01*
X10629700Y-20597900D02*
X10684700Y-20542900D01*
X10629700Y-20487900D01*
X10574700Y-20542900D01*
X10629700Y-20597900D01*
X10629700Y-21447900D02*
X10684700Y-21392900D01*
X10629700Y-21337900D01*
X10574700Y-21392900D01*
X10629700Y-21447900D01*
X10629700Y-21747900D02*
X10684700Y-21692900D01*
X10629700Y-21637900D01*
X10574700Y-21692900D01*
X10629700Y-21747900D01*
X10631600Y-17383400D02*
X10686600Y-17328400D01*
X10631600Y-17273400D01*
X10576600Y-17328400D01*
X10631600Y-17383400D01*
X10881600Y-17383400D02*
X10936600Y-17328400D01*
X10881600Y-17273400D01*
X10826600Y-17328400D01*
X10881600Y-17383400D01*
X11127200Y-13172600D02*
X11182200Y-13117600D01*
X11127200Y-13062600D01*
X11072200Y-13117600D01*
X11127200Y-13172600D01*
X11131600Y-17383400D02*
X11186600Y-17328400D01*
X11131600Y-17273400D01*
X11076600Y-17328400D01*
X11131600Y-17383400D01*
X11377200Y-13172600D02*
X11432200Y-13117600D01*
X11377200Y-13062600D01*
X11322200Y-13117600D01*
X11377200Y-13172600D01*
X11627200Y-13172600D02*
X11682200Y-13117600D01*
X11627200Y-13062600D01*
X11572200Y-13117600D01*
X11627200Y-13172600D01*
X11765000Y-15975300D02*
X11820000Y-15920300D01*
X11765000Y-15865300D01*
X11710000Y-15920300D01*
X11765000Y-15975300D01*
X12015000Y-15975300D02*
X12070000Y-15920300D01*
X12015000Y-15865300D01*
X11960000Y-15920300D01*
X12015000Y-15975300D01*
X12015000Y-17827300D02*
X12070000Y-17772300D01*
X12015000Y-17717300D01*
X11960000Y-17772300D01*
X12015000Y-17827300D01*
X12015000Y-18677300D02*
X12070000Y-18622300D01*
X12015000Y-18567300D01*
X11960000Y-18622300D01*
X12015000Y-18677300D01*
X12015000Y-18977300D02*
X12070000Y-18922300D01*
X12015000Y-18867300D01*
X11960000Y-18922300D01*
X12015000Y-18977300D01*
X12015000Y-19212700D02*
X12070000Y-19157700D01*
X12015000Y-19102700D01*
X11960000Y-19157700D01*
X12015000Y-19212700D01*
X12015000Y-20062700D02*
X12070000Y-20007700D01*
X12015000Y-19952700D01*
X11960000Y-20007700D01*
X12015000Y-20062700D01*
X12015000Y-20362700D02*
X12070000Y-20307700D01*
X12015000Y-20252700D01*
X11960000Y-20307700D01*
X12015000Y-20362700D01*
X12015000Y-20597900D02*
X12070000Y-20542900D01*
X12015000Y-20487900D01*
X11960000Y-20542900D01*
X12015000Y-20597900D01*
X12015000Y-21447900D02*
X12070000Y-21392900D01*
X12015000Y-21337900D01*
X11960000Y-21392900D01*
X12015000Y-21447900D01*
X12015000Y-21747900D02*
X12070000Y-21692900D01*
X12015000Y-21637900D01*
X11960000Y-21692900D01*
X12015000Y-21747900D01*
X12265000Y-15975300D02*
X12320000Y-15920300D01*
X12265000Y-15865300D01*
X12210000Y-15920300D01*
X12265000Y-15975300D01*
X12908700Y-14560700D02*
X12963700Y-14505700D01*
X12908700Y-14450700D01*
X12853700Y-14505700D01*
X12908700Y-14560700D01*
X12908700Y-17383400D02*
X12963700Y-17328400D01*
X12908700Y-17273400D01*
X12853700Y-17328400D01*
X12908700Y-17383400D01*
X13158700Y-14560700D02*
X13213700Y-14505700D01*
X13158700Y-14450700D01*
X13103700Y-14505700D01*
X13158700Y-14560700D01*
X13158700Y-17383400D02*
X13213700Y-17328400D01*
X13158700Y-17273400D01*
X13103700Y-17328400D01*
X13158700Y-17383400D01*
X13400400Y-17827300D02*
X13455400Y-17772300D01*
X13400400Y-17717300D01*
X13345400Y-17772300D01*
X13400400Y-17827300D01*
X13400400Y-18677300D02*
X13455400Y-18622300D01*
X13400400Y-18567300D01*
X13345400Y-18622300D01*
X13400400Y-18677300D01*
X13400400Y-18977300D02*
X13455400Y-18922300D01*
X13400400Y-18867300D01*
X13345400Y-18922300D01*
X13400400Y-18977300D01*
X13400400Y-19212700D02*
X13455400Y-19157700D01*
X13400400Y-19102700D01*
X13345400Y-19157700D01*
X13400400Y-19212700D01*
X13400400Y-20062700D02*
X13455400Y-20007700D01*
X13400400Y-19952700D01*
X13345400Y-20007700D01*
X13400400Y-20062700D01*
X13400400Y-20362700D02*
X13455400Y-20307700D01*
X13400400Y-20252700D01*
X13345400Y-20307700D01*
X13400400Y-20362700D01*
X13400400Y-20597900D02*
X13455400Y-20542900D01*
X13400400Y-20487900D01*
X13345400Y-20542900D01*
X13400400Y-20597900D01*
X13400400Y-21447900D02*
X13455400Y-21392900D01*
X13400400Y-21337900D01*
X13345400Y-21392900D01*
X13400400Y-21447900D01*
X13400400Y-21747900D02*
X13455400Y-21692900D01*
X13400400Y-21637900D01*
X13345400Y-21692900D01*
X13400400Y-21747900D01*
X13408700Y-14560700D02*
X13463700Y-14505700D01*
X13408700Y-14450700D01*
X13353700Y-14505700D01*
X13408700Y-14560700D01*
X13408700Y-17383400D02*
X13463700Y-17328400D01*
X13408700Y-17273400D01*
X13353700Y-17328400D01*
X13408700Y-17383400D01*
D16*
X10326600Y-16523400D02*
X10536600Y-16733400D01*
X10536600Y-16523400D02*
X10326600Y-16733400D01*
X10536600Y-16628400D02*
G75*
G03*
X10536600Y-16628400I-105000J0D01*
G01*
X10822200Y-12312600D02*
X11032200Y-12522600D01*
X11032200Y-12312600D02*
X10822200Y-12522600D01*
X11032200Y-12417600D02*
G75*
G03*
X11032200Y-12417600I-105000J0D01*
G01*
X11226600Y-16523400D02*
X11436600Y-16733400D01*
X11436600Y-16523400D02*
X11226600Y-16733400D01*
X11436600Y-16628400D02*
G75*
G03*
X11436600Y-16628400I-105000J0D01*
G01*
X11460000Y-15115300D02*
X11670000Y-15325300D01*
X11670000Y-15115300D02*
X11460000Y-15325300D01*
X11670000Y-15220300D02*
G75*
G03*
X11670000Y-15220300I-105000J0D01*
G01*
X11722200Y-12312600D02*
X11932200Y-12522600D01*
X11932200Y-12312600D02*
X11722200Y-12522600D01*
X11932200Y-12417600D02*
G75*
G03*
X11932200Y-12417600I-105000J0D01*
G01*
X12360000Y-15115300D02*
X12570000Y-15325300D01*
X12570000Y-15115300D02*
X12360000Y-15325300D01*
X12570000Y-15220300D02*
G75*
G03*
X12570000Y-15220300I-105000J0D01*
G01*
X12603700Y-13700700D02*
X12813700Y-13910700D01*
X12813700Y-13700700D02*
X12603700Y-13910700D01*
X12813700Y-13805700D02*
G75*
G03*
X12813700Y-13805700I-105000J0D01*
G01*
X12603700Y-16523400D02*
X12813700Y-16733400D01*
X12813700Y-16523400D02*
X12603700Y-16733400D01*
X12813700Y-16628400D02*
G75*
G03*
X12813700Y-16628400I-105000J0D01*
G01*
X13503700Y-13700700D02*
X13713700Y-13910700D01*
X13713700Y-13700700D02*
X13503700Y-13910700D01*
X13713700Y-13805700D02*
G75*
G03*
X13713700Y-13805700I-105000J0D01*
G01*
X13503700Y-16523400D02*
X13713700Y-16733400D01*
X13713700Y-16523400D02*
X13503700Y-16733400D01*
X13713700Y-16628400D02*
G75*
G03*
X13713700Y-16628400I-105000J0D01*
G01*
D11*
X10380777Y-22141484D02*
X10380777Y-21941484D01*
X10380777Y-21941484D02*
X10428396Y-21941484D01*
X10428396Y-21941484D02*
X10456967Y-21951008D01*
X10456967Y-21951008D02*
X10476015Y-21970055D01*
X10476015Y-21970055D02*
X10485539Y-21989103D01*
X10485539Y-21989103D02*
X10495063Y-22027198D01*
X10495063Y-22027198D02*
X10495063Y-22055770D01*
X10495063Y-22055770D02*
X10485539Y-22093865D01*
X10485539Y-22093865D02*
X10476015Y-22112912D01*
X10476015Y-22112912D02*
X10456967Y-22131960D01*
X10456967Y-22131960D02*
X10428396Y-22141484D01*
X10428396Y-22141484D02*
X10380777Y-22141484D01*
X10580777Y-22141484D02*
X10580777Y-22008150D01*
X10580777Y-22046246D02*
X10590301Y-22027198D01*
X10590301Y-22027198D02*
X10599824Y-22017674D01*
X10599824Y-22017674D02*
X10618872Y-22008150D01*
X10618872Y-22008150D02*
X10637920Y-22008150D01*
X10704586Y-22141484D02*
X10704586Y-22008150D01*
X10704586Y-21941484D02*
X10695063Y-21951008D01*
X10695063Y-21951008D02*
X10704586Y-21960531D01*
X10704586Y-21960531D02*
X10714110Y-21951008D01*
X10714110Y-21951008D02*
X10704586Y-21941484D01*
X10704586Y-21941484D02*
X10704586Y-21960531D01*
X10828396Y-22141484D02*
X10809348Y-22131960D01*
X10809348Y-22131960D02*
X10799824Y-22112912D01*
X10799824Y-22112912D02*
X10799824Y-21941484D01*
X10933158Y-22141484D02*
X10914110Y-22131960D01*
X10914110Y-22131960D02*
X10904586Y-22112912D01*
X10904586Y-22112912D02*
X10904586Y-21941484D01*
X11161729Y-22141484D02*
X11161729Y-21941484D01*
X11161729Y-21941484D02*
X11228396Y-22084341D01*
X11228396Y-22084341D02*
X11295062Y-21941484D01*
X11295062Y-21941484D02*
X11295062Y-22141484D01*
X11476015Y-22141484D02*
X11476015Y-22036722D01*
X11476015Y-22036722D02*
X11466491Y-22017674D01*
X11466491Y-22017674D02*
X11447443Y-22008150D01*
X11447443Y-22008150D02*
X11409348Y-22008150D01*
X11409348Y-22008150D02*
X11390301Y-22017674D01*
X11476015Y-22131960D02*
X11456967Y-22141484D01*
X11456967Y-22141484D02*
X11409348Y-22141484D01*
X11409348Y-22141484D02*
X11390301Y-22131960D01*
X11390301Y-22131960D02*
X11380777Y-22112912D01*
X11380777Y-22112912D02*
X11380777Y-22093865D01*
X11380777Y-22093865D02*
X11390301Y-22074817D01*
X11390301Y-22074817D02*
X11409348Y-22065293D01*
X11409348Y-22065293D02*
X11456967Y-22065293D01*
X11456967Y-22065293D02*
X11476015Y-22055770D01*
X11571253Y-22008150D02*
X11571253Y-22208150D01*
X11571253Y-22017674D02*
X11590301Y-22008150D01*
X11590301Y-22008150D02*
X11628396Y-22008150D01*
X11628396Y-22008150D02*
X11647443Y-22017674D01*
X11647443Y-22017674D02*
X11656967Y-22027198D01*
X11656967Y-22027198D02*
X11666491Y-22046246D01*
X11666491Y-22046246D02*
X11666491Y-22103389D01*
X11666491Y-22103389D02*
X11656967Y-22122436D01*
X11656967Y-22122436D02*
X11647443Y-22131960D01*
X11647443Y-22131960D02*
X11628396Y-22141484D01*
X11628396Y-22141484D02*
X11590301Y-22141484D01*
X11590301Y-22141484D02*
X11571253Y-22131960D01*
X11752205Y-22122436D02*
X11761729Y-22131960D01*
X11761729Y-22131960D02*
X11752205Y-22141484D01*
X11752205Y-22141484D02*
X11742682Y-22131960D01*
X11742682Y-22131960D02*
X11752205Y-22122436D01*
X11752205Y-22122436D02*
X11752205Y-22141484D01*
X11752205Y-22017674D02*
X11761729Y-22027198D01*
X11761729Y-22027198D02*
X11752205Y-22036722D01*
X11752205Y-22036722D02*
X11742682Y-22027198D01*
X11742682Y-22027198D02*
X11752205Y-22017674D01*
X11752205Y-22017674D02*
X11752205Y-22036722D01*
D12*
X10080000Y-22450000D02*
X10120000Y-22490000D01*
X10120000Y-22450000D02*
X10080000Y-22490000D01*
D11*
X10418872Y-22361484D02*
X10437920Y-22361484D01*
X10437920Y-22361484D02*
X10456967Y-22371008D01*
X10456967Y-22371008D02*
X10466491Y-22380531D01*
X10466491Y-22380531D02*
X10476015Y-22399579D01*
X10476015Y-22399579D02*
X10485539Y-22437674D01*
X10485539Y-22437674D02*
X10485539Y-22485293D01*
X10485539Y-22485293D02*
X10476015Y-22523388D01*
X10476015Y-22523388D02*
X10466491Y-22542436D01*
X10466491Y-22542436D02*
X10456967Y-22551960D01*
X10456967Y-22551960D02*
X10437920Y-22561484D01*
X10437920Y-22561484D02*
X10418872Y-22561484D01*
X10418872Y-22561484D02*
X10399824Y-22551960D01*
X10399824Y-22551960D02*
X10390301Y-22542436D01*
X10390301Y-22542436D02*
X10380777Y-22523388D01*
X10380777Y-22523388D02*
X10371253Y-22485293D01*
X10371253Y-22485293D02*
X10371253Y-22437674D01*
X10371253Y-22437674D02*
X10380777Y-22399579D01*
X10380777Y-22399579D02*
X10390301Y-22380531D01*
X10390301Y-22380531D02*
X10399824Y-22371008D01*
X10399824Y-22371008D02*
X10418872Y-22361484D01*
X10571253Y-22542436D02*
X10580777Y-22551960D01*
X10580777Y-22551960D02*
X10571253Y-22561484D01*
X10571253Y-22561484D02*
X10561729Y-22551960D01*
X10561729Y-22551960D02*
X10571253Y-22542436D01*
X10571253Y-22542436D02*
X10571253Y-22561484D01*
X10752205Y-22428150D02*
X10752205Y-22561484D01*
X10704586Y-22351960D02*
X10656967Y-22494817D01*
X10656967Y-22494817D02*
X10780777Y-22494817D01*
X10895063Y-22361484D02*
X10914110Y-22361484D01*
X10914110Y-22361484D02*
X10933158Y-22371008D01*
X10933158Y-22371008D02*
X10942682Y-22380531D01*
X10942682Y-22380531D02*
X10952205Y-22399579D01*
X10952205Y-22399579D02*
X10961729Y-22437674D01*
X10961729Y-22437674D02*
X10961729Y-22485293D01*
X10961729Y-22485293D02*
X10952205Y-22523388D01*
X10952205Y-22523388D02*
X10942682Y-22542436D01*
X10942682Y-22542436D02*
X10933158Y-22551960D01*
X10933158Y-22551960D02*
X10914110Y-22561484D01*
X10914110Y-22561484D02*
X10895063Y-22561484D01*
X10895063Y-22561484D02*
X10876015Y-22551960D01*
X10876015Y-22551960D02*
X10866491Y-22542436D01*
X10866491Y-22542436D02*
X10856967Y-22523388D01*
X10856967Y-22523388D02*
X10847444Y-22485293D01*
X10847444Y-22485293D02*
X10847444Y-22437674D01*
X10847444Y-22437674D02*
X10856967Y-22399579D01*
X10856967Y-22399579D02*
X10866491Y-22380531D01*
X10866491Y-22380531D02*
X10876015Y-22371008D01*
X10876015Y-22371008D02*
X10895063Y-22361484D01*
X11085539Y-22361484D02*
X11104586Y-22361484D01*
X11104586Y-22361484D02*
X11123634Y-22371008D01*
X11123634Y-22371008D02*
X11133158Y-22380531D01*
X11133158Y-22380531D02*
X11142682Y-22399579D01*
X11142682Y-22399579D02*
X11152205Y-22437674D01*
X11152205Y-22437674D02*
X11152205Y-22485293D01*
X11152205Y-22485293D02*
X11142682Y-22523388D01*
X11142682Y-22523388D02*
X11133158Y-22542436D01*
X11133158Y-22542436D02*
X11123634Y-22551960D01*
X11123634Y-22551960D02*
X11104586Y-22561484D01*
X11104586Y-22561484D02*
X11085539Y-22561484D01*
X11085539Y-22561484D02*
X11066491Y-22551960D01*
X11066491Y-22551960D02*
X11056967Y-22542436D01*
X11056967Y-22542436D02*
X11047444Y-22523388D01*
X11047444Y-22523388D02*
X11037920Y-22485293D01*
X11037920Y-22485293D02*
X11037920Y-22437674D01*
X11037920Y-22437674D02*
X11047444Y-22399579D01*
X11047444Y-22399579D02*
X11056967Y-22380531D01*
X11056967Y-22380531D02*
X11066491Y-22371008D01*
X11066491Y-22371008D02*
X11085539Y-22361484D01*
X11237920Y-22561484D02*
X11237920Y-22428150D01*
X11237920Y-22447198D02*
X11247443Y-22437674D01*
X11247443Y-22437674D02*
X11266491Y-22428150D01*
X11266491Y-22428150D02*
X11295063Y-22428150D01*
X11295063Y-22428150D02*
X11314110Y-22437674D01*
X11314110Y-22437674D02*
X11323634Y-22456722D01*
X11323634Y-22456722D02*
X11323634Y-22561484D01*
X11323634Y-22456722D02*
X11333158Y-22437674D01*
X11333158Y-22437674D02*
X11352205Y-22428150D01*
X11352205Y-22428150D02*
X11380777Y-22428150D01*
X11380777Y-22428150D02*
X11399824Y-22437674D01*
X11399824Y-22437674D02*
X11409348Y-22456722D01*
X11409348Y-22456722D02*
X11409348Y-22561484D01*
X11504586Y-22561484D02*
X11504586Y-22428150D01*
X11504586Y-22447198D02*
X11514110Y-22437674D01*
X11514110Y-22437674D02*
X11533158Y-22428150D01*
X11533158Y-22428150D02*
X11561729Y-22428150D01*
X11561729Y-22428150D02*
X11580777Y-22437674D01*
X11580777Y-22437674D02*
X11590301Y-22456722D01*
X11590301Y-22456722D02*
X11590301Y-22561484D01*
X11590301Y-22456722D02*
X11599824Y-22437674D01*
X11599824Y-22437674D02*
X11618872Y-22428150D01*
X11618872Y-22428150D02*
X11647443Y-22428150D01*
X11647443Y-22428150D02*
X11666491Y-22437674D01*
X11666491Y-22437674D02*
X11676015Y-22456722D01*
X11676015Y-22456722D02*
X11676015Y-22561484D01*
X12066491Y-22351960D02*
X11895063Y-22609103D01*
X12323634Y-22361484D02*
X12342682Y-22361484D01*
X12342682Y-22361484D02*
X12361729Y-22371008D01*
X12361729Y-22371008D02*
X12371253Y-22380531D01*
X12371253Y-22380531D02*
X12380777Y-22399579D01*
X12380777Y-22399579D02*
X12390301Y-22437674D01*
X12390301Y-22437674D02*
X12390301Y-22485293D01*
X12390301Y-22485293D02*
X12380777Y-22523388D01*
X12380777Y-22523388D02*
X12371253Y-22542436D01*
X12371253Y-22542436D02*
X12361729Y-22551960D01*
X12361729Y-22551960D02*
X12342682Y-22561484D01*
X12342682Y-22561484D02*
X12323634Y-22561484D01*
X12323634Y-22561484D02*
X12304586Y-22551960D01*
X12304586Y-22551960D02*
X12295063Y-22542436D01*
X12295063Y-22542436D02*
X12285539Y-22523388D01*
X12285539Y-22523388D02*
X12276015Y-22485293D01*
X12276015Y-22485293D02*
X12276015Y-22437674D01*
X12276015Y-22437674D02*
X12285539Y-22399579D01*
X12285539Y-22399579D02*
X12295063Y-22380531D01*
X12295063Y-22380531D02*
X12304586Y-22371008D01*
X12304586Y-22371008D02*
X12323634Y-22361484D01*
X12476015Y-22542436D02*
X12485539Y-22551960D01*
X12485539Y-22551960D02*
X12476015Y-22561484D01*
X12476015Y-22561484D02*
X12466491Y-22551960D01*
X12466491Y-22551960D02*
X12476015Y-22542436D01*
X12476015Y-22542436D02*
X12476015Y-22561484D01*
X12609348Y-22361484D02*
X12628396Y-22361484D01*
X12628396Y-22361484D02*
X12647444Y-22371008D01*
X12647444Y-22371008D02*
X12656967Y-22380531D01*
X12656967Y-22380531D02*
X12666491Y-22399579D01*
X12666491Y-22399579D02*
X12676015Y-22437674D01*
X12676015Y-22437674D02*
X12676015Y-22485293D01*
X12676015Y-22485293D02*
X12666491Y-22523388D01*
X12666491Y-22523388D02*
X12656967Y-22542436D01*
X12656967Y-22542436D02*
X12647444Y-22551960D01*
X12647444Y-22551960D02*
X12628396Y-22561484D01*
X12628396Y-22561484D02*
X12609348Y-22561484D01*
X12609348Y-22561484D02*
X12590301Y-22551960D01*
X12590301Y-22551960D02*
X12580777Y-22542436D01*
X12580777Y-22542436D02*
X12571253Y-22523388D01*
X12571253Y-22523388D02*
X12561729Y-22485293D01*
X12561729Y-22485293D02*
X12561729Y-22437674D01*
X12561729Y-22437674D02*
X12571253Y-22399579D01*
X12571253Y-22399579D02*
X12580777Y-22380531D01*
X12580777Y-22380531D02*
X12590301Y-22371008D01*
X12590301Y-22371008D02*
X12609348Y-22361484D01*
X12866491Y-22561484D02*
X12752206Y-22561484D01*
X12809348Y-22561484D02*
X12809348Y-22361484D01*
X12809348Y-22361484D02*
X12790301Y-22390055D01*
X12790301Y-22390055D02*
X12771253Y-22409103D01*
X12771253Y-22409103D02*
X12752206Y-22418627D01*
X13047444Y-22361484D02*
X12952206Y-22361484D01*
X12952206Y-22361484D02*
X12942682Y-22456722D01*
X12942682Y-22456722D02*
X12952206Y-22447198D01*
X12952206Y-22447198D02*
X12971253Y-22437674D01*
X12971253Y-22437674D02*
X13018872Y-22437674D01*
X13018872Y-22437674D02*
X13037920Y-22447198D01*
X13037920Y-22447198D02*
X13047444Y-22456722D01*
X13047444Y-22456722D02*
X13056967Y-22475769D01*
X13056967Y-22475769D02*
X13056967Y-22523388D01*
X13056967Y-22523388D02*
X13047444Y-22542436D01*
X13047444Y-22542436D02*
X13037920Y-22551960D01*
X13037920Y-22551960D02*
X13018872Y-22561484D01*
X13018872Y-22561484D02*
X12971253Y-22561484D01*
X12971253Y-22561484D02*
X12952206Y-22551960D01*
X12952206Y-22551960D02*
X12942682Y-22542436D01*
X13123634Y-22361484D02*
X13256967Y-22361484D01*
X13256967Y-22361484D02*
X13171253Y-22561484D01*
X13323634Y-22361484D02*
X13323634Y-22399579D01*
X13399825Y-22361484D02*
X13399825Y-22399579D01*
X13695063Y-22637674D02*
X13685539Y-22628150D01*
X13685539Y-22628150D02*
X13666491Y-22599579D01*
X13666491Y-22599579D02*
X13656968Y-22580531D01*
X13656968Y-22580531D02*
X13647444Y-22551960D01*
X13647444Y-22551960D02*
X13637920Y-22504341D01*
X13637920Y-22504341D02*
X13637920Y-22466246D01*
X13637920Y-22466246D02*
X13647444Y-22418627D01*
X13647444Y-22418627D02*
X13656968Y-22390055D01*
X13656968Y-22390055D02*
X13666491Y-22371008D01*
X13666491Y-22371008D02*
X13685539Y-22342436D01*
X13685539Y-22342436D02*
X13695063Y-22332912D01*
X13876015Y-22561484D02*
X13761729Y-22561484D01*
X13818872Y-22561484D02*
X13818872Y-22361484D01*
X13818872Y-22361484D02*
X13799825Y-22390055D01*
X13799825Y-22390055D02*
X13780777Y-22409103D01*
X13780777Y-22409103D02*
X13761729Y-22418627D01*
X13942682Y-22361484D02*
X14066491Y-22361484D01*
X14066491Y-22361484D02*
X13999825Y-22437674D01*
X13999825Y-22437674D02*
X14028396Y-22437674D01*
X14028396Y-22437674D02*
X14047444Y-22447198D01*
X14047444Y-22447198D02*
X14056968Y-22456722D01*
X14056968Y-22456722D02*
X14066491Y-22475769D01*
X14066491Y-22475769D02*
X14066491Y-22523388D01*
X14066491Y-22523388D02*
X14056968Y-22542436D01*
X14056968Y-22542436D02*
X14047444Y-22551960D01*
X14047444Y-22551960D02*
X14028396Y-22561484D01*
X14028396Y-22561484D02*
X13971253Y-22561484D01*
X13971253Y-22561484D02*
X13952206Y-22551960D01*
X13952206Y-22551960D02*
X13942682Y-22542436D01*
X14304587Y-22561484D02*
X14304587Y-22361484D01*
X14390301Y-22561484D02*
X14390301Y-22456722D01*
X14390301Y-22456722D02*
X14380777Y-22437674D01*
X14380777Y-22437674D02*
X14361730Y-22428150D01*
X14361730Y-22428150D02*
X14333158Y-22428150D01*
X14333158Y-22428150D02*
X14314110Y-22437674D01*
X14314110Y-22437674D02*
X14304587Y-22447198D01*
X14514110Y-22561484D02*
X14495063Y-22551960D01*
X14495063Y-22551960D02*
X14485539Y-22542436D01*
X14485539Y-22542436D02*
X14476015Y-22523388D01*
X14476015Y-22523388D02*
X14476015Y-22466246D01*
X14476015Y-22466246D02*
X14485539Y-22447198D01*
X14485539Y-22447198D02*
X14495063Y-22437674D01*
X14495063Y-22437674D02*
X14514110Y-22428150D01*
X14514110Y-22428150D02*
X14542682Y-22428150D01*
X14542682Y-22428150D02*
X14561730Y-22437674D01*
X14561730Y-22437674D02*
X14571253Y-22447198D01*
X14571253Y-22447198D02*
X14580777Y-22466246D01*
X14580777Y-22466246D02*
X14580777Y-22523388D01*
X14580777Y-22523388D02*
X14571253Y-22542436D01*
X14571253Y-22542436D02*
X14561730Y-22551960D01*
X14561730Y-22551960D02*
X14542682Y-22561484D01*
X14542682Y-22561484D02*
X14514110Y-22561484D01*
X14695063Y-22561484D02*
X14676015Y-22551960D01*
X14676015Y-22551960D02*
X14666491Y-22532912D01*
X14666491Y-22532912D02*
X14666491Y-22361484D01*
X14847444Y-22551960D02*
X14828396Y-22561484D01*
X14828396Y-22561484D02*
X14790301Y-22561484D01*
X14790301Y-22561484D02*
X14771253Y-22551960D01*
X14771253Y-22551960D02*
X14761730Y-22532912D01*
X14761730Y-22532912D02*
X14761730Y-22456722D01*
X14761730Y-22456722D02*
X14771253Y-22437674D01*
X14771253Y-22437674D02*
X14790301Y-22428150D01*
X14790301Y-22428150D02*
X14828396Y-22428150D01*
X14828396Y-22428150D02*
X14847444Y-22437674D01*
X14847444Y-22437674D02*
X14856968Y-22456722D01*
X14856968Y-22456722D02*
X14856968Y-22475769D01*
X14856968Y-22475769D02*
X14761730Y-22494817D01*
X14933158Y-22551960D02*
X14952206Y-22561484D01*
X14952206Y-22561484D02*
X14990301Y-22561484D01*
X14990301Y-22561484D02*
X15009349Y-22551960D01*
X15009349Y-22551960D02*
X15018872Y-22532912D01*
X15018872Y-22532912D02*
X15018872Y-22523388D01*
X15018872Y-22523388D02*
X15009349Y-22504341D01*
X15009349Y-22504341D02*
X14990301Y-22494817D01*
X14990301Y-22494817D02*
X14961730Y-22494817D01*
X14961730Y-22494817D02*
X14942682Y-22485293D01*
X14942682Y-22485293D02*
X14933158Y-22466246D01*
X14933158Y-22466246D02*
X14933158Y-22456722D01*
X14933158Y-22456722D02*
X14942682Y-22437674D01*
X14942682Y-22437674D02*
X14961730Y-22428150D01*
X14961730Y-22428150D02*
X14990301Y-22428150D01*
X14990301Y-22428150D02*
X15009349Y-22437674D01*
X15085539Y-22637674D02*
X15095063Y-22628150D01*
X15095063Y-22628150D02*
X15114111Y-22599579D01*
X15114111Y-22599579D02*
X15123634Y-22580531D01*
X15123634Y-22580531D02*
X15133158Y-22551960D01*
X15133158Y-22551960D02*
X15142682Y-22504341D01*
X15142682Y-22504341D02*
X15142682Y-22466246D01*
X15142682Y-22466246D02*
X15133158Y-22418627D01*
X15133158Y-22418627D02*
X15123634Y-22390055D01*
X15123634Y-22390055D02*
X15114111Y-22371008D01*
X15114111Y-22371008D02*
X15095063Y-22342436D01*
X15095063Y-22342436D02*
X15085539Y-22332912D01*
D13*
X10120000Y-22734000D02*
G75*
G03*
X10120000Y-22734000I-40640J0D01*
G01*
D11*
X10418872Y-22625484D02*
X10437920Y-22625484D01*
X10437920Y-22625484D02*
X10456967Y-22635008D01*
X10456967Y-22635008D02*
X10466491Y-22644531D01*
X10466491Y-22644531D02*
X10476015Y-22663579D01*
X10476015Y-22663579D02*
X10485539Y-22701674D01*
X10485539Y-22701674D02*
X10485539Y-22749293D01*
X10485539Y-22749293D02*
X10476015Y-22787388D01*
X10476015Y-22787388D02*
X10466491Y-22806436D01*
X10466491Y-22806436D02*
X10456967Y-22815960D01*
X10456967Y-22815960D02*
X10437920Y-22825484D01*
X10437920Y-22825484D02*
X10418872Y-22825484D01*
X10418872Y-22825484D02*
X10399824Y-22815960D01*
X10399824Y-22815960D02*
X10390301Y-22806436D01*
X10390301Y-22806436D02*
X10380777Y-22787388D01*
X10380777Y-22787388D02*
X10371253Y-22749293D01*
X10371253Y-22749293D02*
X10371253Y-22701674D01*
X10371253Y-22701674D02*
X10380777Y-22663579D01*
X10380777Y-22663579D02*
X10390301Y-22644531D01*
X10390301Y-22644531D02*
X10399824Y-22635008D01*
X10399824Y-22635008D02*
X10418872Y-22625484D01*
X10571253Y-22806436D02*
X10580777Y-22815960D01*
X10580777Y-22815960D02*
X10571253Y-22825484D01*
X10571253Y-22825484D02*
X10561729Y-22815960D01*
X10561729Y-22815960D02*
X10571253Y-22806436D01*
X10571253Y-22806436D02*
X10571253Y-22825484D01*
X10695063Y-22711198D02*
X10676015Y-22701674D01*
X10676015Y-22701674D02*
X10666491Y-22692150D01*
X10666491Y-22692150D02*
X10656967Y-22673103D01*
X10656967Y-22673103D02*
X10656967Y-22663579D01*
X10656967Y-22663579D02*
X10666491Y-22644531D01*
X10666491Y-22644531D02*
X10676015Y-22635008D01*
X10676015Y-22635008D02*
X10695063Y-22625484D01*
X10695063Y-22625484D02*
X10733158Y-22625484D01*
X10733158Y-22625484D02*
X10752205Y-22635008D01*
X10752205Y-22635008D02*
X10761729Y-22644531D01*
X10761729Y-22644531D02*
X10771253Y-22663579D01*
X10771253Y-22663579D02*
X10771253Y-22673103D01*
X10771253Y-22673103D02*
X10761729Y-22692150D01*
X10761729Y-22692150D02*
X10752205Y-22701674D01*
X10752205Y-22701674D02*
X10733158Y-22711198D01*
X10733158Y-22711198D02*
X10695063Y-22711198D01*
X10695063Y-22711198D02*
X10676015Y-22720722D01*
X10676015Y-22720722D02*
X10666491Y-22730246D01*
X10666491Y-22730246D02*
X10656967Y-22749293D01*
X10656967Y-22749293D02*
X10656967Y-22787388D01*
X10656967Y-22787388D02*
X10666491Y-22806436D01*
X10666491Y-22806436D02*
X10676015Y-22815960D01*
X10676015Y-22815960D02*
X10695063Y-22825484D01*
X10695063Y-22825484D02*
X10733158Y-22825484D01*
X10733158Y-22825484D02*
X10752205Y-22815960D01*
X10752205Y-22815960D02*
X10761729Y-22806436D01*
X10761729Y-22806436D02*
X10771253Y-22787388D01*
X10771253Y-22787388D02*
X10771253Y-22749293D01*
X10771253Y-22749293D02*
X10761729Y-22730246D01*
X10761729Y-22730246D02*
X10752205Y-22720722D01*
X10752205Y-22720722D02*
X10733158Y-22711198D01*
X10961729Y-22825484D02*
X10847444Y-22825484D01*
X10904586Y-22825484D02*
X10904586Y-22625484D01*
X10904586Y-22625484D02*
X10885539Y-22654055D01*
X10885539Y-22654055D02*
X10866491Y-22673103D01*
X10866491Y-22673103D02*
X10847444Y-22682627D01*
X11028396Y-22625484D02*
X11152205Y-22625484D01*
X11152205Y-22625484D02*
X11085539Y-22701674D01*
X11085539Y-22701674D02*
X11114110Y-22701674D01*
X11114110Y-22701674D02*
X11133158Y-22711198D01*
X11133158Y-22711198D02*
X11142682Y-22720722D01*
X11142682Y-22720722D02*
X11152205Y-22739769D01*
X11152205Y-22739769D02*
X11152205Y-22787388D01*
X11152205Y-22787388D02*
X11142682Y-22806436D01*
X11142682Y-22806436D02*
X11133158Y-22815960D01*
X11133158Y-22815960D02*
X11114110Y-22825484D01*
X11114110Y-22825484D02*
X11056967Y-22825484D01*
X11056967Y-22825484D02*
X11037920Y-22815960D01*
X11037920Y-22815960D02*
X11028396Y-22806436D01*
X11237920Y-22825484D02*
X11237920Y-22692150D01*
X11237920Y-22711198D02*
X11247443Y-22701674D01*
X11247443Y-22701674D02*
X11266491Y-22692150D01*
X11266491Y-22692150D02*
X11295063Y-22692150D01*
X11295063Y-22692150D02*
X11314110Y-22701674D01*
X11314110Y-22701674D02*
X11323634Y-22720722D01*
X11323634Y-22720722D02*
X11323634Y-22825484D01*
X11323634Y-22720722D02*
X11333158Y-22701674D01*
X11333158Y-22701674D02*
X11352205Y-22692150D01*
X11352205Y-22692150D02*
X11380777Y-22692150D01*
X11380777Y-22692150D02*
X11399824Y-22701674D01*
X11399824Y-22701674D02*
X11409348Y-22720722D01*
X11409348Y-22720722D02*
X11409348Y-22825484D01*
X11504586Y-22825484D02*
X11504586Y-22692150D01*
X11504586Y-22711198D02*
X11514110Y-22701674D01*
X11514110Y-22701674D02*
X11533158Y-22692150D01*
X11533158Y-22692150D02*
X11561729Y-22692150D01*
X11561729Y-22692150D02*
X11580777Y-22701674D01*
X11580777Y-22701674D02*
X11590301Y-22720722D01*
X11590301Y-22720722D02*
X11590301Y-22825484D01*
X11590301Y-22720722D02*
X11599824Y-22701674D01*
X11599824Y-22701674D02*
X11618872Y-22692150D01*
X11618872Y-22692150D02*
X11647443Y-22692150D01*
X11647443Y-22692150D02*
X11666491Y-22701674D01*
X11666491Y-22701674D02*
X11676015Y-22720722D01*
X11676015Y-22720722D02*
X11676015Y-22825484D01*
X12066491Y-22615960D02*
X11895063Y-22873103D01*
X12323634Y-22625484D02*
X12342682Y-22625484D01*
X12342682Y-22625484D02*
X12361729Y-22635008D01*
X12361729Y-22635008D02*
X12371253Y-22644531D01*
X12371253Y-22644531D02*
X12380777Y-22663579D01*
X12380777Y-22663579D02*
X12390301Y-22701674D01*
X12390301Y-22701674D02*
X12390301Y-22749293D01*
X12390301Y-22749293D02*
X12380777Y-22787388D01*
X12380777Y-22787388D02*
X12371253Y-22806436D01*
X12371253Y-22806436D02*
X12361729Y-22815960D01*
X12361729Y-22815960D02*
X12342682Y-22825484D01*
X12342682Y-22825484D02*
X12323634Y-22825484D01*
X12323634Y-22825484D02*
X12304586Y-22815960D01*
X12304586Y-22815960D02*
X12295063Y-22806436D01*
X12295063Y-22806436D02*
X12285539Y-22787388D01*
X12285539Y-22787388D02*
X12276015Y-22749293D01*
X12276015Y-22749293D02*
X12276015Y-22701674D01*
X12276015Y-22701674D02*
X12285539Y-22663579D01*
X12285539Y-22663579D02*
X12295063Y-22644531D01*
X12295063Y-22644531D02*
X12304586Y-22635008D01*
X12304586Y-22635008D02*
X12323634Y-22625484D01*
X12476015Y-22806436D02*
X12485539Y-22815960D01*
X12485539Y-22815960D02*
X12476015Y-22825484D01*
X12476015Y-22825484D02*
X12466491Y-22815960D01*
X12466491Y-22815960D02*
X12476015Y-22806436D01*
X12476015Y-22806436D02*
X12476015Y-22825484D01*
X12609348Y-22625484D02*
X12628396Y-22625484D01*
X12628396Y-22625484D02*
X12647444Y-22635008D01*
X12647444Y-22635008D02*
X12656967Y-22644531D01*
X12656967Y-22644531D02*
X12666491Y-22663579D01*
X12666491Y-22663579D02*
X12676015Y-22701674D01*
X12676015Y-22701674D02*
X12676015Y-22749293D01*
X12676015Y-22749293D02*
X12666491Y-22787388D01*
X12666491Y-22787388D02*
X12656967Y-22806436D01*
X12656967Y-22806436D02*
X12647444Y-22815960D01*
X12647444Y-22815960D02*
X12628396Y-22825484D01*
X12628396Y-22825484D02*
X12609348Y-22825484D01*
X12609348Y-22825484D02*
X12590301Y-22815960D01*
X12590301Y-22815960D02*
X12580777Y-22806436D01*
X12580777Y-22806436D02*
X12571253Y-22787388D01*
X12571253Y-22787388D02*
X12561729Y-22749293D01*
X12561729Y-22749293D02*
X12561729Y-22701674D01*
X12561729Y-22701674D02*
X12571253Y-22663579D01*
X12571253Y-22663579D02*
X12580777Y-22644531D01*
X12580777Y-22644531D02*
X12590301Y-22635008D01*
X12590301Y-22635008D02*
X12609348Y-22625484D01*
X12742682Y-22625484D02*
X12866491Y-22625484D01*
X12866491Y-22625484D02*
X12799825Y-22701674D01*
X12799825Y-22701674D02*
X12828396Y-22701674D01*
X12828396Y-22701674D02*
X12847444Y-22711198D01*
X12847444Y-22711198D02*
X12856967Y-22720722D01*
X12856967Y-22720722D02*
X12866491Y-22739769D01*
X12866491Y-22739769D02*
X12866491Y-22787388D01*
X12866491Y-22787388D02*
X12856967Y-22806436D01*
X12856967Y-22806436D02*
X12847444Y-22815960D01*
X12847444Y-22815960D02*
X12828396Y-22825484D01*
X12828396Y-22825484D02*
X12771253Y-22825484D01*
X12771253Y-22825484D02*
X12752206Y-22815960D01*
X12752206Y-22815960D02*
X12742682Y-22806436D01*
X12942682Y-22644531D02*
X12952206Y-22635008D01*
X12952206Y-22635008D02*
X12971253Y-22625484D01*
X12971253Y-22625484D02*
X13018872Y-22625484D01*
X13018872Y-22625484D02*
X13037920Y-22635008D01*
X13037920Y-22635008D02*
X13047444Y-22644531D01*
X13047444Y-22644531D02*
X13056967Y-22663579D01*
X13056967Y-22663579D02*
X13056967Y-22682627D01*
X13056967Y-22682627D02*
X13047444Y-22711198D01*
X13047444Y-22711198D02*
X12933158Y-22825484D01*
X12933158Y-22825484D02*
X13056967Y-22825484D01*
X13180777Y-22625484D02*
X13199825Y-22625484D01*
X13199825Y-22625484D02*
X13218872Y-22635008D01*
X13218872Y-22635008D02*
X13228396Y-22644531D01*
X13228396Y-22644531D02*
X13237920Y-22663579D01*
X13237920Y-22663579D02*
X13247444Y-22701674D01*
X13247444Y-22701674D02*
X13247444Y-22749293D01*
X13247444Y-22749293D02*
X13237920Y-22787388D01*
X13237920Y-22787388D02*
X13228396Y-22806436D01*
X13228396Y-22806436D02*
X13218872Y-22815960D01*
X13218872Y-22815960D02*
X13199825Y-22825484D01*
X13199825Y-22825484D02*
X13180777Y-22825484D01*
X13180777Y-22825484D02*
X13161729Y-22815960D01*
X13161729Y-22815960D02*
X13152206Y-22806436D01*
X13152206Y-22806436D02*
X13142682Y-22787388D01*
X13142682Y-22787388D02*
X13133158Y-22749293D01*
X13133158Y-22749293D02*
X13133158Y-22701674D01*
X13133158Y-22701674D02*
X13142682Y-22663579D01*
X13142682Y-22663579D02*
X13152206Y-22644531D01*
X13152206Y-22644531D02*
X13161729Y-22635008D01*
X13161729Y-22635008D02*
X13180777Y-22625484D01*
X13323634Y-22625484D02*
X13323634Y-22663579D01*
X13399825Y-22625484D02*
X13399825Y-22663579D01*
X13695063Y-22901674D02*
X13685539Y-22892150D01*
X13685539Y-22892150D02*
X13666491Y-22863579D01*
X13666491Y-22863579D02*
X13656968Y-22844531D01*
X13656968Y-22844531D02*
X13647444Y-22815960D01*
X13647444Y-22815960D02*
X13637920Y-22768341D01*
X13637920Y-22768341D02*
X13637920Y-22730246D01*
X13637920Y-22730246D02*
X13647444Y-22682627D01*
X13647444Y-22682627D02*
X13656968Y-22654055D01*
X13656968Y-22654055D02*
X13666491Y-22635008D01*
X13666491Y-22635008D02*
X13685539Y-22606436D01*
X13685539Y-22606436D02*
X13695063Y-22596912D01*
X13761729Y-22644531D02*
X13771253Y-22635008D01*
X13771253Y-22635008D02*
X13790301Y-22625484D01*
X13790301Y-22625484D02*
X13837920Y-22625484D01*
X13837920Y-22625484D02*
X13856968Y-22635008D01*
X13856968Y-22635008D02*
X13866491Y-22644531D01*
X13866491Y-22644531D02*
X13876015Y-22663579D01*
X13876015Y-22663579D02*
X13876015Y-22682627D01*
X13876015Y-22682627D02*
X13866491Y-22711198D01*
X13866491Y-22711198D02*
X13752206Y-22825484D01*
X13752206Y-22825484D02*
X13876015Y-22825484D01*
X14114110Y-22825484D02*
X14114110Y-22625484D01*
X14199825Y-22825484D02*
X14199825Y-22720722D01*
X14199825Y-22720722D02*
X14190301Y-22701674D01*
X14190301Y-22701674D02*
X14171253Y-22692150D01*
X14171253Y-22692150D02*
X14142682Y-22692150D01*
X14142682Y-22692150D02*
X14123634Y-22701674D01*
X14123634Y-22701674D02*
X14114110Y-22711198D01*
X14323634Y-22825484D02*
X14304587Y-22815960D01*
X14304587Y-22815960D02*
X14295063Y-22806436D01*
X14295063Y-22806436D02*
X14285539Y-22787388D01*
X14285539Y-22787388D02*
X14285539Y-22730246D01*
X14285539Y-22730246D02*
X14295063Y-22711198D01*
X14295063Y-22711198D02*
X14304587Y-22701674D01*
X14304587Y-22701674D02*
X14323634Y-22692150D01*
X14323634Y-22692150D02*
X14352206Y-22692150D01*
X14352206Y-22692150D02*
X14371253Y-22701674D01*
X14371253Y-22701674D02*
X14380777Y-22711198D01*
X14380777Y-22711198D02*
X14390301Y-22730246D01*
X14390301Y-22730246D02*
X14390301Y-22787388D01*
X14390301Y-22787388D02*
X14380777Y-22806436D01*
X14380777Y-22806436D02*
X14371253Y-22815960D01*
X14371253Y-22815960D02*
X14352206Y-22825484D01*
X14352206Y-22825484D02*
X14323634Y-22825484D01*
X14504587Y-22825484D02*
X14485539Y-22815960D01*
X14485539Y-22815960D02*
X14476015Y-22796912D01*
X14476015Y-22796912D02*
X14476015Y-22625484D01*
X14656968Y-22815960D02*
X14637920Y-22825484D01*
X14637920Y-22825484D02*
X14599825Y-22825484D01*
X14599825Y-22825484D02*
X14580777Y-22815960D01*
X14580777Y-22815960D02*
X14571253Y-22796912D01*
X14571253Y-22796912D02*
X14571253Y-22720722D01*
X14571253Y-22720722D02*
X14580777Y-22701674D01*
X14580777Y-22701674D02*
X14599825Y-22692150D01*
X14599825Y-22692150D02*
X14637920Y-22692150D01*
X14637920Y-22692150D02*
X14656968Y-22701674D01*
X14656968Y-22701674D02*
X14666491Y-22720722D01*
X14666491Y-22720722D02*
X14666491Y-22739769D01*
X14666491Y-22739769D02*
X14571253Y-22758817D01*
X14742682Y-22815960D02*
X14761730Y-22825484D01*
X14761730Y-22825484D02*
X14799825Y-22825484D01*
X14799825Y-22825484D02*
X14818872Y-22815960D01*
X14818872Y-22815960D02*
X14828396Y-22796912D01*
X14828396Y-22796912D02*
X14828396Y-22787388D01*
X14828396Y-22787388D02*
X14818872Y-22768341D01*
X14818872Y-22768341D02*
X14799825Y-22758817D01*
X14799825Y-22758817D02*
X14771253Y-22758817D01*
X14771253Y-22758817D02*
X14752206Y-22749293D01*
X14752206Y-22749293D02*
X14742682Y-22730246D01*
X14742682Y-22730246D02*
X14742682Y-22720722D01*
X14742682Y-22720722D02*
X14752206Y-22701674D01*
X14752206Y-22701674D02*
X14771253Y-22692150D01*
X14771253Y-22692150D02*
X14799825Y-22692150D01*
X14799825Y-22692150D02*
X14818872Y-22701674D01*
X14895063Y-22901674D02*
X14904587Y-22892150D01*
X14904587Y-22892150D02*
X14923634Y-22863579D01*
X14923634Y-22863579D02*
X14933158Y-22844531D01*
X14933158Y-22844531D02*
X14942682Y-22815960D01*
X14942682Y-22815960D02*
X14952206Y-22768341D01*
X14952206Y-22768341D02*
X14952206Y-22730246D01*
X14952206Y-22730246D02*
X14942682Y-22682627D01*
X14942682Y-22682627D02*
X14933158Y-22654055D01*
X14933158Y-22654055D02*
X14923634Y-22635008D01*
X14923634Y-22635008D02*
X14904587Y-22606436D01*
X14904587Y-22606436D02*
X14895063Y-22596912D01*
D10*
X10070000Y-22948000D02*
X10070000Y-23048000D01*
X10020000Y-22998000D02*
X10120000Y-22998000D01*
D11*
X10485539Y-23089484D02*
X10371253Y-23089484D01*
X10428396Y-23089484D02*
X10428396Y-22889484D01*
X10428396Y-22889484D02*
X10409348Y-22918055D01*
X10409348Y-22918055D02*
X10390301Y-22937103D01*
X10390301Y-22937103D02*
X10371253Y-22946627D01*
X10571253Y-23070436D02*
X10580777Y-23079960D01*
X10580777Y-23079960D02*
X10571253Y-23089484D01*
X10571253Y-23089484D02*
X10561729Y-23079960D01*
X10561729Y-23079960D02*
X10571253Y-23070436D01*
X10571253Y-23070436D02*
X10571253Y-23089484D01*
X10704586Y-22889484D02*
X10723634Y-22889484D01*
X10723634Y-22889484D02*
X10742682Y-22899008D01*
X10742682Y-22899008D02*
X10752205Y-22908531D01*
X10752205Y-22908531D02*
X10761729Y-22927579D01*
X10761729Y-22927579D02*
X10771253Y-22965674D01*
X10771253Y-22965674D02*
X10771253Y-23013293D01*
X10771253Y-23013293D02*
X10761729Y-23051388D01*
X10761729Y-23051388D02*
X10752205Y-23070436D01*
X10752205Y-23070436D02*
X10742682Y-23079960D01*
X10742682Y-23079960D02*
X10723634Y-23089484D01*
X10723634Y-23089484D02*
X10704586Y-23089484D01*
X10704586Y-23089484D02*
X10685539Y-23079960D01*
X10685539Y-23079960D02*
X10676015Y-23070436D01*
X10676015Y-23070436D02*
X10666491Y-23051388D01*
X10666491Y-23051388D02*
X10656967Y-23013293D01*
X10656967Y-23013293D02*
X10656967Y-22965674D01*
X10656967Y-22965674D02*
X10666491Y-22927579D01*
X10666491Y-22927579D02*
X10676015Y-22908531D01*
X10676015Y-22908531D02*
X10685539Y-22899008D01*
X10685539Y-22899008D02*
X10704586Y-22889484D01*
X10895063Y-22889484D02*
X10914110Y-22889484D01*
X10914110Y-22889484D02*
X10933158Y-22899008D01*
X10933158Y-22899008D02*
X10942682Y-22908531D01*
X10942682Y-22908531D02*
X10952205Y-22927579D01*
X10952205Y-22927579D02*
X10961729Y-22965674D01*
X10961729Y-22965674D02*
X10961729Y-23013293D01*
X10961729Y-23013293D02*
X10952205Y-23051388D01*
X10952205Y-23051388D02*
X10942682Y-23070436D01*
X10942682Y-23070436D02*
X10933158Y-23079960D01*
X10933158Y-23079960D02*
X10914110Y-23089484D01*
X10914110Y-23089484D02*
X10895063Y-23089484D01*
X10895063Y-23089484D02*
X10876015Y-23079960D01*
X10876015Y-23079960D02*
X10866491Y-23070436D01*
X10866491Y-23070436D02*
X10856967Y-23051388D01*
X10856967Y-23051388D02*
X10847444Y-23013293D01*
X10847444Y-23013293D02*
X10847444Y-22965674D01*
X10847444Y-22965674D02*
X10856967Y-22927579D01*
X10856967Y-22927579D02*
X10866491Y-22908531D01*
X10866491Y-22908531D02*
X10876015Y-22899008D01*
X10876015Y-22899008D02*
X10895063Y-22889484D01*
X11085539Y-22889484D02*
X11104586Y-22889484D01*
X11104586Y-22889484D02*
X11123634Y-22899008D01*
X11123634Y-22899008D02*
X11133158Y-22908531D01*
X11133158Y-22908531D02*
X11142682Y-22927579D01*
X11142682Y-22927579D02*
X11152205Y-22965674D01*
X11152205Y-22965674D02*
X11152205Y-23013293D01*
X11152205Y-23013293D02*
X11142682Y-23051388D01*
X11142682Y-23051388D02*
X11133158Y-23070436D01*
X11133158Y-23070436D02*
X11123634Y-23079960D01*
X11123634Y-23079960D02*
X11104586Y-23089484D01*
X11104586Y-23089484D02*
X11085539Y-23089484D01*
X11085539Y-23089484D02*
X11066491Y-23079960D01*
X11066491Y-23079960D02*
X11056967Y-23070436D01*
X11056967Y-23070436D02*
X11047444Y-23051388D01*
X11047444Y-23051388D02*
X11037920Y-23013293D01*
X11037920Y-23013293D02*
X11037920Y-22965674D01*
X11037920Y-22965674D02*
X11047444Y-22927579D01*
X11047444Y-22927579D02*
X11056967Y-22908531D01*
X11056967Y-22908531D02*
X11066491Y-22899008D01*
X11066491Y-22899008D02*
X11085539Y-22889484D01*
X11237920Y-23089484D02*
X11237920Y-22956150D01*
X11237920Y-22975198D02*
X11247443Y-22965674D01*
X11247443Y-22965674D02*
X11266491Y-22956150D01*
X11266491Y-22956150D02*
X11295063Y-22956150D01*
X11295063Y-22956150D02*
X11314110Y-22965674D01*
X11314110Y-22965674D02*
X11323634Y-22984722D01*
X11323634Y-22984722D02*
X11323634Y-23089484D01*
X11323634Y-22984722D02*
X11333158Y-22965674D01*
X11333158Y-22965674D02*
X11352205Y-22956150D01*
X11352205Y-22956150D02*
X11380777Y-22956150D01*
X11380777Y-22956150D02*
X11399824Y-22965674D01*
X11399824Y-22965674D02*
X11409348Y-22984722D01*
X11409348Y-22984722D02*
X11409348Y-23089484D01*
X11504586Y-23089484D02*
X11504586Y-22956150D01*
X11504586Y-22975198D02*
X11514110Y-22965674D01*
X11514110Y-22965674D02*
X11533158Y-22956150D01*
X11533158Y-22956150D02*
X11561729Y-22956150D01*
X11561729Y-22956150D02*
X11580777Y-22965674D01*
X11580777Y-22965674D02*
X11590301Y-22984722D01*
X11590301Y-22984722D02*
X11590301Y-23089484D01*
X11590301Y-22984722D02*
X11599824Y-22965674D01*
X11599824Y-22965674D02*
X11618872Y-22956150D01*
X11618872Y-22956150D02*
X11647443Y-22956150D01*
X11647443Y-22956150D02*
X11666491Y-22965674D01*
X11666491Y-22965674D02*
X11676015Y-22984722D01*
X11676015Y-22984722D02*
X11676015Y-23089484D01*
X12066491Y-22879960D02*
X11895063Y-23137103D01*
X12323634Y-22889484D02*
X12342682Y-22889484D01*
X12342682Y-22889484D02*
X12361729Y-22899008D01*
X12361729Y-22899008D02*
X12371253Y-22908531D01*
X12371253Y-22908531D02*
X12380777Y-22927579D01*
X12380777Y-22927579D02*
X12390301Y-22965674D01*
X12390301Y-22965674D02*
X12390301Y-23013293D01*
X12390301Y-23013293D02*
X12380777Y-23051388D01*
X12380777Y-23051388D02*
X12371253Y-23070436D01*
X12371253Y-23070436D02*
X12361729Y-23079960D01*
X12361729Y-23079960D02*
X12342682Y-23089484D01*
X12342682Y-23089484D02*
X12323634Y-23089484D01*
X12323634Y-23089484D02*
X12304586Y-23079960D01*
X12304586Y-23079960D02*
X12295063Y-23070436D01*
X12295063Y-23070436D02*
X12285539Y-23051388D01*
X12285539Y-23051388D02*
X12276015Y-23013293D01*
X12276015Y-23013293D02*
X12276015Y-22965674D01*
X12276015Y-22965674D02*
X12285539Y-22927579D01*
X12285539Y-22927579D02*
X12295063Y-22908531D01*
X12295063Y-22908531D02*
X12304586Y-22899008D01*
X12304586Y-22899008D02*
X12323634Y-22889484D01*
X12476015Y-23070436D02*
X12485539Y-23079960D01*
X12485539Y-23079960D02*
X12476015Y-23089484D01*
X12476015Y-23089484D02*
X12466491Y-23079960D01*
X12466491Y-23079960D02*
X12476015Y-23070436D01*
X12476015Y-23070436D02*
X12476015Y-23089484D01*
X12609348Y-22889484D02*
X12628396Y-22889484D01*
X12628396Y-22889484D02*
X12647444Y-22899008D01*
X12647444Y-22899008D02*
X12656967Y-22908531D01*
X12656967Y-22908531D02*
X12666491Y-22927579D01*
X12666491Y-22927579D02*
X12676015Y-22965674D01*
X12676015Y-22965674D02*
X12676015Y-23013293D01*
X12676015Y-23013293D02*
X12666491Y-23051388D01*
X12666491Y-23051388D02*
X12656967Y-23070436D01*
X12656967Y-23070436D02*
X12647444Y-23079960D01*
X12647444Y-23079960D02*
X12628396Y-23089484D01*
X12628396Y-23089484D02*
X12609348Y-23089484D01*
X12609348Y-23089484D02*
X12590301Y-23079960D01*
X12590301Y-23079960D02*
X12580777Y-23070436D01*
X12580777Y-23070436D02*
X12571253Y-23051388D01*
X12571253Y-23051388D02*
X12561729Y-23013293D01*
X12561729Y-23013293D02*
X12561729Y-22965674D01*
X12561729Y-22965674D02*
X12571253Y-22927579D01*
X12571253Y-22927579D02*
X12580777Y-22908531D01*
X12580777Y-22908531D02*
X12590301Y-22899008D01*
X12590301Y-22899008D02*
X12609348Y-22889484D01*
X12742682Y-22889484D02*
X12866491Y-22889484D01*
X12866491Y-22889484D02*
X12799825Y-22965674D01*
X12799825Y-22965674D02*
X12828396Y-22965674D01*
X12828396Y-22965674D02*
X12847444Y-22975198D01*
X12847444Y-22975198D02*
X12856967Y-22984722D01*
X12856967Y-22984722D02*
X12866491Y-23003769D01*
X12866491Y-23003769D02*
X12866491Y-23051388D01*
X12866491Y-23051388D02*
X12856967Y-23070436D01*
X12856967Y-23070436D02*
X12847444Y-23079960D01*
X12847444Y-23079960D02*
X12828396Y-23089484D01*
X12828396Y-23089484D02*
X12771253Y-23089484D01*
X12771253Y-23089484D02*
X12752206Y-23079960D01*
X12752206Y-23079960D02*
X12742682Y-23070436D01*
X12961729Y-23089484D02*
X12999825Y-23089484D01*
X12999825Y-23089484D02*
X13018872Y-23079960D01*
X13018872Y-23079960D02*
X13028396Y-23070436D01*
X13028396Y-23070436D02*
X13047444Y-23041865D01*
X13047444Y-23041865D02*
X13056967Y-23003769D01*
X13056967Y-23003769D02*
X13056967Y-22927579D01*
X13056967Y-22927579D02*
X13047444Y-22908531D01*
X13047444Y-22908531D02*
X13037920Y-22899008D01*
X13037920Y-22899008D02*
X13018872Y-22889484D01*
X13018872Y-22889484D02*
X12980777Y-22889484D01*
X12980777Y-22889484D02*
X12961729Y-22899008D01*
X12961729Y-22899008D02*
X12952206Y-22908531D01*
X12952206Y-22908531D02*
X12942682Y-22927579D01*
X12942682Y-22927579D02*
X12942682Y-22975198D01*
X12942682Y-22975198D02*
X12952206Y-22994246D01*
X12952206Y-22994246D02*
X12961729Y-23003769D01*
X12961729Y-23003769D02*
X12980777Y-23013293D01*
X12980777Y-23013293D02*
X13018872Y-23013293D01*
X13018872Y-23013293D02*
X13037920Y-23003769D01*
X13037920Y-23003769D02*
X13047444Y-22994246D01*
X13047444Y-22994246D02*
X13056967Y-22975198D01*
X13228396Y-22956150D02*
X13228396Y-23089484D01*
X13180777Y-22879960D02*
X13133158Y-23022817D01*
X13133158Y-23022817D02*
X13256967Y-23022817D01*
X13323634Y-22889484D02*
X13323634Y-22927579D01*
X13399825Y-22889484D02*
X13399825Y-22927579D01*
X13695063Y-23165674D02*
X13685539Y-23156150D01*
X13685539Y-23156150D02*
X13666491Y-23127579D01*
X13666491Y-23127579D02*
X13656968Y-23108531D01*
X13656968Y-23108531D02*
X13647444Y-23079960D01*
X13647444Y-23079960D02*
X13637920Y-23032341D01*
X13637920Y-23032341D02*
X13637920Y-22994246D01*
X13637920Y-22994246D02*
X13647444Y-22946627D01*
X13647444Y-22946627D02*
X13656968Y-22918055D01*
X13656968Y-22918055D02*
X13666491Y-22899008D01*
X13666491Y-22899008D02*
X13685539Y-22870436D01*
X13685539Y-22870436D02*
X13695063Y-22860912D01*
X13761729Y-22908531D02*
X13771253Y-22899008D01*
X13771253Y-22899008D02*
X13790301Y-22889484D01*
X13790301Y-22889484D02*
X13837920Y-22889484D01*
X13837920Y-22889484D02*
X13856968Y-22899008D01*
X13856968Y-22899008D02*
X13866491Y-22908531D01*
X13866491Y-22908531D02*
X13876015Y-22927579D01*
X13876015Y-22927579D02*
X13876015Y-22946627D01*
X13876015Y-22946627D02*
X13866491Y-22975198D01*
X13866491Y-22975198D02*
X13752206Y-23089484D01*
X13752206Y-23089484D02*
X13876015Y-23089484D01*
X13999825Y-22889484D02*
X14018872Y-22889484D01*
X14018872Y-22889484D02*
X14037920Y-22899008D01*
X14037920Y-22899008D02*
X14047444Y-22908531D01*
X14047444Y-22908531D02*
X14056968Y-22927579D01*
X14056968Y-22927579D02*
X14066491Y-22965674D01*
X14066491Y-22965674D02*
X14066491Y-23013293D01*
X14066491Y-23013293D02*
X14056968Y-23051388D01*
X14056968Y-23051388D02*
X14047444Y-23070436D01*
X14047444Y-23070436D02*
X14037920Y-23079960D01*
X14037920Y-23079960D02*
X14018872Y-23089484D01*
X14018872Y-23089484D02*
X13999825Y-23089484D01*
X13999825Y-23089484D02*
X13980777Y-23079960D01*
X13980777Y-23079960D02*
X13971253Y-23070436D01*
X13971253Y-23070436D02*
X13961729Y-23051388D01*
X13961729Y-23051388D02*
X13952206Y-23013293D01*
X13952206Y-23013293D02*
X13952206Y-22965674D01*
X13952206Y-22965674D02*
X13961729Y-22927579D01*
X13961729Y-22927579D02*
X13971253Y-22908531D01*
X13971253Y-22908531D02*
X13980777Y-22899008D01*
X13980777Y-22899008D02*
X13999825Y-22889484D01*
X14304587Y-23089484D02*
X14304587Y-22889484D01*
X14390301Y-23089484D02*
X14390301Y-22984722D01*
X14390301Y-22984722D02*
X14380777Y-22965674D01*
X14380777Y-22965674D02*
X14361730Y-22956150D01*
X14361730Y-22956150D02*
X14333158Y-22956150D01*
X14333158Y-22956150D02*
X14314110Y-22965674D01*
X14314110Y-22965674D02*
X14304587Y-22975198D01*
X14514110Y-23089484D02*
X14495063Y-23079960D01*
X14495063Y-23079960D02*
X14485539Y-23070436D01*
X14485539Y-23070436D02*
X14476015Y-23051388D01*
X14476015Y-23051388D02*
X14476015Y-22994246D01*
X14476015Y-22994246D02*
X14485539Y-22975198D01*
X14485539Y-22975198D02*
X14495063Y-22965674D01*
X14495063Y-22965674D02*
X14514110Y-22956150D01*
X14514110Y-22956150D02*
X14542682Y-22956150D01*
X14542682Y-22956150D02*
X14561730Y-22965674D01*
X14561730Y-22965674D02*
X14571253Y-22975198D01*
X14571253Y-22975198D02*
X14580777Y-22994246D01*
X14580777Y-22994246D02*
X14580777Y-23051388D01*
X14580777Y-23051388D02*
X14571253Y-23070436D01*
X14571253Y-23070436D02*
X14561730Y-23079960D01*
X14561730Y-23079960D02*
X14542682Y-23089484D01*
X14542682Y-23089484D02*
X14514110Y-23089484D01*
X14695063Y-23089484D02*
X14676015Y-23079960D01*
X14676015Y-23079960D02*
X14666491Y-23060912D01*
X14666491Y-23060912D02*
X14666491Y-22889484D01*
X14847444Y-23079960D02*
X14828396Y-23089484D01*
X14828396Y-23089484D02*
X14790301Y-23089484D01*
X14790301Y-23089484D02*
X14771253Y-23079960D01*
X14771253Y-23079960D02*
X14761730Y-23060912D01*
X14761730Y-23060912D02*
X14761730Y-22984722D01*
X14761730Y-22984722D02*
X14771253Y-22965674D01*
X14771253Y-22965674D02*
X14790301Y-22956150D01*
X14790301Y-22956150D02*
X14828396Y-22956150D01*
X14828396Y-22956150D02*
X14847444Y-22965674D01*
X14847444Y-22965674D02*
X14856968Y-22984722D01*
X14856968Y-22984722D02*
X14856968Y-23003769D01*
X14856968Y-23003769D02*
X14761730Y-23022817D01*
X14933158Y-23079960D02*
X14952206Y-23089484D01*
X14952206Y-23089484D02*
X14990301Y-23089484D01*
X14990301Y-23089484D02*
X15009349Y-23079960D01*
X15009349Y-23079960D02*
X15018872Y-23060912D01*
X15018872Y-23060912D02*
X15018872Y-23051388D01*
X15018872Y-23051388D02*
X15009349Y-23032341D01*
X15009349Y-23032341D02*
X14990301Y-23022817D01*
X14990301Y-23022817D02*
X14961730Y-23022817D01*
X14961730Y-23022817D02*
X14942682Y-23013293D01*
X14942682Y-23013293D02*
X14933158Y-22994246D01*
X14933158Y-22994246D02*
X14933158Y-22984722D01*
X14933158Y-22984722D02*
X14942682Y-22965674D01*
X14942682Y-22965674D02*
X14961730Y-22956150D01*
X14961730Y-22956150D02*
X14990301Y-22956150D01*
X14990301Y-22956150D02*
X15009349Y-22965674D01*
X15085539Y-23165674D02*
X15095063Y-23156150D01*
X15095063Y-23156150D02*
X15114111Y-23127579D01*
X15114111Y-23127579D02*
X15123634Y-23108531D01*
X15123634Y-23108531D02*
X15133158Y-23079960D01*
X15133158Y-23079960D02*
X15142682Y-23032341D01*
X15142682Y-23032341D02*
X15142682Y-22994246D01*
X15142682Y-22994246D02*
X15133158Y-22946627D01*
X15133158Y-22946627D02*
X15123634Y-22918055D01*
X15123634Y-22918055D02*
X15114111Y-22899008D01*
X15114111Y-22899008D02*
X15095063Y-22870436D01*
X15095063Y-22870436D02*
X15085539Y-22860912D01*
D14*
X10105121Y-23297921D02*
X10105121Y-23226079D01*
X10033279Y-23226079D01*
X10033279Y-23297921D01*
X10105121Y-23297921D01*
D11*
X10485539Y-23353484D02*
X10371253Y-23353484D01*
X10428396Y-23353484D02*
X10428396Y-23153484D01*
X10428396Y-23153484D02*
X10409348Y-23182055D01*
X10409348Y-23182055D02*
X10390301Y-23201103D01*
X10390301Y-23201103D02*
X10371253Y-23210627D01*
X10571253Y-23334436D02*
X10580777Y-23343960D01*
X10580777Y-23343960D02*
X10571253Y-23353484D01*
X10571253Y-23353484D02*
X10561729Y-23343960D01*
X10561729Y-23343960D02*
X10571253Y-23334436D01*
X10571253Y-23334436D02*
X10571253Y-23353484D01*
X10704586Y-23153484D02*
X10723634Y-23153484D01*
X10723634Y-23153484D02*
X10742682Y-23163008D01*
X10742682Y-23163008D02*
X10752205Y-23172531D01*
X10752205Y-23172531D02*
X10761729Y-23191579D01*
X10761729Y-23191579D02*
X10771253Y-23229674D01*
X10771253Y-23229674D02*
X10771253Y-23277293D01*
X10771253Y-23277293D02*
X10761729Y-23315388D01*
X10761729Y-23315388D02*
X10752205Y-23334436D01*
X10752205Y-23334436D02*
X10742682Y-23343960D01*
X10742682Y-23343960D02*
X10723634Y-23353484D01*
X10723634Y-23353484D02*
X10704586Y-23353484D01*
X10704586Y-23353484D02*
X10685539Y-23343960D01*
X10685539Y-23343960D02*
X10676015Y-23334436D01*
X10676015Y-23334436D02*
X10666491Y-23315388D01*
X10666491Y-23315388D02*
X10656967Y-23277293D01*
X10656967Y-23277293D02*
X10656967Y-23229674D01*
X10656967Y-23229674D02*
X10666491Y-23191579D01*
X10666491Y-23191579D02*
X10676015Y-23172531D01*
X10676015Y-23172531D02*
X10685539Y-23163008D01*
X10685539Y-23163008D02*
X10704586Y-23153484D01*
X10961729Y-23353484D02*
X10847444Y-23353484D01*
X10904586Y-23353484D02*
X10904586Y-23153484D01*
X10904586Y-23153484D02*
X10885539Y-23182055D01*
X10885539Y-23182055D02*
X10866491Y-23201103D01*
X10866491Y-23201103D02*
X10847444Y-23210627D01*
X11133158Y-23153484D02*
X11095063Y-23153484D01*
X11095063Y-23153484D02*
X11076015Y-23163008D01*
X11076015Y-23163008D02*
X11066491Y-23172531D01*
X11066491Y-23172531D02*
X11047444Y-23201103D01*
X11047444Y-23201103D02*
X11037920Y-23239198D01*
X11037920Y-23239198D02*
X11037920Y-23315388D01*
X11037920Y-23315388D02*
X11047444Y-23334436D01*
X11047444Y-23334436D02*
X11056967Y-23343960D01*
X11056967Y-23343960D02*
X11076015Y-23353484D01*
X11076015Y-23353484D02*
X11114110Y-23353484D01*
X11114110Y-23353484D02*
X11133158Y-23343960D01*
X11133158Y-23343960D02*
X11142682Y-23334436D01*
X11142682Y-23334436D02*
X11152205Y-23315388D01*
X11152205Y-23315388D02*
X11152205Y-23267769D01*
X11152205Y-23267769D02*
X11142682Y-23248722D01*
X11142682Y-23248722D02*
X11133158Y-23239198D01*
X11133158Y-23239198D02*
X11114110Y-23229674D01*
X11114110Y-23229674D02*
X11076015Y-23229674D01*
X11076015Y-23229674D02*
X11056967Y-23239198D01*
X11056967Y-23239198D02*
X11047444Y-23248722D01*
X11047444Y-23248722D02*
X11037920Y-23267769D01*
X11237920Y-23353484D02*
X11237920Y-23220150D01*
X11237920Y-23239198D02*
X11247443Y-23229674D01*
X11247443Y-23229674D02*
X11266491Y-23220150D01*
X11266491Y-23220150D02*
X11295063Y-23220150D01*
X11295063Y-23220150D02*
X11314110Y-23229674D01*
X11314110Y-23229674D02*
X11323634Y-23248722D01*
X11323634Y-23248722D02*
X11323634Y-23353484D01*
X11323634Y-23248722D02*
X11333158Y-23229674D01*
X11333158Y-23229674D02*
X11352205Y-23220150D01*
X11352205Y-23220150D02*
X11380777Y-23220150D01*
X11380777Y-23220150D02*
X11399824Y-23229674D01*
X11399824Y-23229674D02*
X11409348Y-23248722D01*
X11409348Y-23248722D02*
X11409348Y-23353484D01*
X11504586Y-23353484D02*
X11504586Y-23220150D01*
X11504586Y-23239198D02*
X11514110Y-23229674D01*
X11514110Y-23229674D02*
X11533158Y-23220150D01*
X11533158Y-23220150D02*
X11561729Y-23220150D01*
X11561729Y-23220150D02*
X11580777Y-23229674D01*
X11580777Y-23229674D02*
X11590301Y-23248722D01*
X11590301Y-23248722D02*
X11590301Y-23353484D01*
X11590301Y-23248722D02*
X11599824Y-23229674D01*
X11599824Y-23229674D02*
X11618872Y-23220150D01*
X11618872Y-23220150D02*
X11647443Y-23220150D01*
X11647443Y-23220150D02*
X11666491Y-23229674D01*
X11666491Y-23229674D02*
X11676015Y-23248722D01*
X11676015Y-23248722D02*
X11676015Y-23353484D01*
X12066491Y-23143960D02*
X11895063Y-23401103D01*
X12323634Y-23153484D02*
X12342682Y-23153484D01*
X12342682Y-23153484D02*
X12361729Y-23163008D01*
X12361729Y-23163008D02*
X12371253Y-23172531D01*
X12371253Y-23172531D02*
X12380777Y-23191579D01*
X12380777Y-23191579D02*
X12390301Y-23229674D01*
X12390301Y-23229674D02*
X12390301Y-23277293D01*
X12390301Y-23277293D02*
X12380777Y-23315388D01*
X12380777Y-23315388D02*
X12371253Y-23334436D01*
X12371253Y-23334436D02*
X12361729Y-23343960D01*
X12361729Y-23343960D02*
X12342682Y-23353484D01*
X12342682Y-23353484D02*
X12323634Y-23353484D01*
X12323634Y-23353484D02*
X12304586Y-23343960D01*
X12304586Y-23343960D02*
X12295063Y-23334436D01*
X12295063Y-23334436D02*
X12285539Y-23315388D01*
X12285539Y-23315388D02*
X12276015Y-23277293D01*
X12276015Y-23277293D02*
X12276015Y-23229674D01*
X12276015Y-23229674D02*
X12285539Y-23191579D01*
X12285539Y-23191579D02*
X12295063Y-23172531D01*
X12295063Y-23172531D02*
X12304586Y-23163008D01*
X12304586Y-23163008D02*
X12323634Y-23153484D01*
X12476015Y-23334436D02*
X12485539Y-23343960D01*
X12485539Y-23343960D02*
X12476015Y-23353484D01*
X12476015Y-23353484D02*
X12466491Y-23343960D01*
X12466491Y-23343960D02*
X12476015Y-23334436D01*
X12476015Y-23334436D02*
X12476015Y-23353484D01*
X12609348Y-23153484D02*
X12628396Y-23153484D01*
X12628396Y-23153484D02*
X12647444Y-23163008D01*
X12647444Y-23163008D02*
X12656967Y-23172531D01*
X12656967Y-23172531D02*
X12666491Y-23191579D01*
X12666491Y-23191579D02*
X12676015Y-23229674D01*
X12676015Y-23229674D02*
X12676015Y-23277293D01*
X12676015Y-23277293D02*
X12666491Y-23315388D01*
X12666491Y-23315388D02*
X12656967Y-23334436D01*
X12656967Y-23334436D02*
X12647444Y-23343960D01*
X12647444Y-23343960D02*
X12628396Y-23353484D01*
X12628396Y-23353484D02*
X12609348Y-23353484D01*
X12609348Y-23353484D02*
X12590301Y-23343960D01*
X12590301Y-23343960D02*
X12580777Y-23334436D01*
X12580777Y-23334436D02*
X12571253Y-23315388D01*
X12571253Y-23315388D02*
X12561729Y-23277293D01*
X12561729Y-23277293D02*
X12561729Y-23229674D01*
X12561729Y-23229674D02*
X12571253Y-23191579D01*
X12571253Y-23191579D02*
X12580777Y-23172531D01*
X12580777Y-23172531D02*
X12590301Y-23163008D01*
X12590301Y-23163008D02*
X12609348Y-23153484D01*
X12847444Y-23220150D02*
X12847444Y-23353484D01*
X12799825Y-23143960D02*
X12752206Y-23286817D01*
X12752206Y-23286817D02*
X12876015Y-23286817D01*
X12990301Y-23153484D02*
X13009348Y-23153484D01*
X13009348Y-23153484D02*
X13028396Y-23163008D01*
X13028396Y-23163008D02*
X13037920Y-23172531D01*
X13037920Y-23172531D02*
X13047444Y-23191579D01*
X13047444Y-23191579D02*
X13056967Y-23229674D01*
X13056967Y-23229674D02*
X13056967Y-23277293D01*
X13056967Y-23277293D02*
X13047444Y-23315388D01*
X13047444Y-23315388D02*
X13037920Y-23334436D01*
X13037920Y-23334436D02*
X13028396Y-23343960D01*
X13028396Y-23343960D02*
X13009348Y-23353484D01*
X13009348Y-23353484D02*
X12990301Y-23353484D01*
X12990301Y-23353484D02*
X12971253Y-23343960D01*
X12971253Y-23343960D02*
X12961729Y-23334436D01*
X12961729Y-23334436D02*
X12952206Y-23315388D01*
X12952206Y-23315388D02*
X12942682Y-23277293D01*
X12942682Y-23277293D02*
X12942682Y-23229674D01*
X12942682Y-23229674D02*
X12952206Y-23191579D01*
X12952206Y-23191579D02*
X12961729Y-23172531D01*
X12961729Y-23172531D02*
X12971253Y-23163008D01*
X12971253Y-23163008D02*
X12990301Y-23153484D01*
X13180777Y-23153484D02*
X13199825Y-23153484D01*
X13199825Y-23153484D02*
X13218872Y-23163008D01*
X13218872Y-23163008D02*
X13228396Y-23172531D01*
X13228396Y-23172531D02*
X13237920Y-23191579D01*
X13237920Y-23191579D02*
X13247444Y-23229674D01*
X13247444Y-23229674D02*
X13247444Y-23277293D01*
X13247444Y-23277293D02*
X13237920Y-23315388D01*
X13237920Y-23315388D02*
X13228396Y-23334436D01*
X13228396Y-23334436D02*
X13218872Y-23343960D01*
X13218872Y-23343960D02*
X13199825Y-23353484D01*
X13199825Y-23353484D02*
X13180777Y-23353484D01*
X13180777Y-23353484D02*
X13161729Y-23343960D01*
X13161729Y-23343960D02*
X13152206Y-23334436D01*
X13152206Y-23334436D02*
X13142682Y-23315388D01*
X13142682Y-23315388D02*
X13133158Y-23277293D01*
X13133158Y-23277293D02*
X13133158Y-23229674D01*
X13133158Y-23229674D02*
X13142682Y-23191579D01*
X13142682Y-23191579D02*
X13152206Y-23172531D01*
X13152206Y-23172531D02*
X13161729Y-23163008D01*
X13161729Y-23163008D02*
X13180777Y-23153484D01*
X13323634Y-23153484D02*
X13323634Y-23191579D01*
X13399825Y-23153484D02*
X13399825Y-23191579D01*
X13695063Y-23429674D02*
X13685539Y-23420150D01*
X13685539Y-23420150D02*
X13666491Y-23391579D01*
X13666491Y-23391579D02*
X13656968Y-23372531D01*
X13656968Y-23372531D02*
X13647444Y-23343960D01*
X13647444Y-23343960D02*
X13637920Y-23296341D01*
X13637920Y-23296341D02*
X13637920Y-23258246D01*
X13637920Y-23258246D02*
X13647444Y-23210627D01*
X13647444Y-23210627D02*
X13656968Y-23182055D01*
X13656968Y-23182055D02*
X13666491Y-23163008D01*
X13666491Y-23163008D02*
X13685539Y-23134436D01*
X13685539Y-23134436D02*
X13695063Y-23124912D01*
X13856968Y-23220150D02*
X13856968Y-23353484D01*
X13809348Y-23143960D02*
X13761729Y-23286817D01*
X13761729Y-23286817D02*
X13885539Y-23286817D01*
X14114110Y-23353484D02*
X14114110Y-23153484D01*
X14199825Y-23353484D02*
X14199825Y-23248722D01*
X14199825Y-23248722D02*
X14190301Y-23229674D01*
X14190301Y-23229674D02*
X14171253Y-23220150D01*
X14171253Y-23220150D02*
X14142682Y-23220150D01*
X14142682Y-23220150D02*
X14123634Y-23229674D01*
X14123634Y-23229674D02*
X14114110Y-23239198D01*
X14323634Y-23353484D02*
X14304587Y-23343960D01*
X14304587Y-23343960D02*
X14295063Y-23334436D01*
X14295063Y-23334436D02*
X14285539Y-23315388D01*
X14285539Y-23315388D02*
X14285539Y-23258246D01*
X14285539Y-23258246D02*
X14295063Y-23239198D01*
X14295063Y-23239198D02*
X14304587Y-23229674D01*
X14304587Y-23229674D02*
X14323634Y-23220150D01*
X14323634Y-23220150D02*
X14352206Y-23220150D01*
X14352206Y-23220150D02*
X14371253Y-23229674D01*
X14371253Y-23229674D02*
X14380777Y-23239198D01*
X14380777Y-23239198D02*
X14390301Y-23258246D01*
X14390301Y-23258246D02*
X14390301Y-23315388D01*
X14390301Y-23315388D02*
X14380777Y-23334436D01*
X14380777Y-23334436D02*
X14371253Y-23343960D01*
X14371253Y-23343960D02*
X14352206Y-23353484D01*
X14352206Y-23353484D02*
X14323634Y-23353484D01*
X14504587Y-23353484D02*
X14485539Y-23343960D01*
X14485539Y-23343960D02*
X14476015Y-23324912D01*
X14476015Y-23324912D02*
X14476015Y-23153484D01*
X14656968Y-23343960D02*
X14637920Y-23353484D01*
X14637920Y-23353484D02*
X14599825Y-23353484D01*
X14599825Y-23353484D02*
X14580777Y-23343960D01*
X14580777Y-23343960D02*
X14571253Y-23324912D01*
X14571253Y-23324912D02*
X14571253Y-23248722D01*
X14571253Y-23248722D02*
X14580777Y-23229674D01*
X14580777Y-23229674D02*
X14599825Y-23220150D01*
X14599825Y-23220150D02*
X14637920Y-23220150D01*
X14637920Y-23220150D02*
X14656968Y-23229674D01*
X14656968Y-23229674D02*
X14666491Y-23248722D01*
X14666491Y-23248722D02*
X14666491Y-23267769D01*
X14666491Y-23267769D02*
X14571253Y-23286817D01*
X14742682Y-23343960D02*
X14761730Y-23353484D01*
X14761730Y-23353484D02*
X14799825Y-23353484D01*
X14799825Y-23353484D02*
X14818872Y-23343960D01*
X14818872Y-23343960D02*
X14828396Y-23324912D01*
X14828396Y-23324912D02*
X14828396Y-23315388D01*
X14828396Y-23315388D02*
X14818872Y-23296341D01*
X14818872Y-23296341D02*
X14799825Y-23286817D01*
X14799825Y-23286817D02*
X14771253Y-23286817D01*
X14771253Y-23286817D02*
X14752206Y-23277293D01*
X14752206Y-23277293D02*
X14742682Y-23258246D01*
X14742682Y-23258246D02*
X14742682Y-23248722D01*
X14742682Y-23248722D02*
X14752206Y-23229674D01*
X14752206Y-23229674D02*
X14771253Y-23220150D01*
X14771253Y-23220150D02*
X14799825Y-23220150D01*
X14799825Y-23220150D02*
X14818872Y-23229674D01*
X14895063Y-23429674D02*
X14904587Y-23420150D01*
X14904587Y-23420150D02*
X14923634Y-23391579D01*
X14923634Y-23391579D02*
X14933158Y-23372531D01*
X14933158Y-23372531D02*
X14942682Y-23343960D01*
X14942682Y-23343960D02*
X14952206Y-23296341D01*
X14952206Y-23296341D02*
X14952206Y-23258246D01*
X14952206Y-23258246D02*
X14942682Y-23210627D01*
X14942682Y-23210627D02*
X14933158Y-23182055D01*
X14933158Y-23182055D02*
X14923634Y-23163008D01*
X14923634Y-23163008D02*
X14904587Y-23134436D01*
X14904587Y-23134436D02*
X14895063Y-23124912D01*
D15*
X10065000Y-23581000D02*
X10120000Y-23526000D01*
X10065000Y-23471000D01*
X10010000Y-23526000D01*
X10065000Y-23581000D01*
D11*
X10485539Y-23617484D02*
X10371253Y-23617484D01*
X10428396Y-23617484D02*
X10428396Y-23417484D01*
X10428396Y-23417484D02*
X10409348Y-23446055D01*
X10409348Y-23446055D02*
X10390301Y-23465103D01*
X10390301Y-23465103D02*
X10371253Y-23474627D01*
X10571253Y-23598436D02*
X10580777Y-23607960D01*
X10580777Y-23607960D02*
X10571253Y-23617484D01*
X10571253Y-23617484D02*
X10561729Y-23607960D01*
X10561729Y-23607960D02*
X10571253Y-23598436D01*
X10571253Y-23598436D02*
X10571253Y-23617484D01*
X10771253Y-23617484D02*
X10656967Y-23617484D01*
X10714110Y-23617484D02*
X10714110Y-23417484D01*
X10714110Y-23417484D02*
X10695063Y-23446055D01*
X10695063Y-23446055D02*
X10676015Y-23465103D01*
X10676015Y-23465103D02*
X10656967Y-23474627D01*
X10895063Y-23417484D02*
X10914110Y-23417484D01*
X10914110Y-23417484D02*
X10933158Y-23427008D01*
X10933158Y-23427008D02*
X10942682Y-23436531D01*
X10942682Y-23436531D02*
X10952205Y-23455579D01*
X10952205Y-23455579D02*
X10961729Y-23493674D01*
X10961729Y-23493674D02*
X10961729Y-23541293D01*
X10961729Y-23541293D02*
X10952205Y-23579388D01*
X10952205Y-23579388D02*
X10942682Y-23598436D01*
X10942682Y-23598436D02*
X10933158Y-23607960D01*
X10933158Y-23607960D02*
X10914110Y-23617484D01*
X10914110Y-23617484D02*
X10895063Y-23617484D01*
X10895063Y-23617484D02*
X10876015Y-23607960D01*
X10876015Y-23607960D02*
X10866491Y-23598436D01*
X10866491Y-23598436D02*
X10856967Y-23579388D01*
X10856967Y-23579388D02*
X10847444Y-23541293D01*
X10847444Y-23541293D02*
X10847444Y-23493674D01*
X10847444Y-23493674D02*
X10856967Y-23455579D01*
X10856967Y-23455579D02*
X10866491Y-23436531D01*
X10866491Y-23436531D02*
X10876015Y-23427008D01*
X10876015Y-23427008D02*
X10895063Y-23417484D01*
X11085539Y-23417484D02*
X11104586Y-23417484D01*
X11104586Y-23417484D02*
X11123634Y-23427008D01*
X11123634Y-23427008D02*
X11133158Y-23436531D01*
X11133158Y-23436531D02*
X11142682Y-23455579D01*
X11142682Y-23455579D02*
X11152205Y-23493674D01*
X11152205Y-23493674D02*
X11152205Y-23541293D01*
X11152205Y-23541293D02*
X11142682Y-23579388D01*
X11142682Y-23579388D02*
X11133158Y-23598436D01*
X11133158Y-23598436D02*
X11123634Y-23607960D01*
X11123634Y-23607960D02*
X11104586Y-23617484D01*
X11104586Y-23617484D02*
X11085539Y-23617484D01*
X11085539Y-23617484D02*
X11066491Y-23607960D01*
X11066491Y-23607960D02*
X11056967Y-23598436D01*
X11056967Y-23598436D02*
X11047444Y-23579388D01*
X11047444Y-23579388D02*
X11037920Y-23541293D01*
X11037920Y-23541293D02*
X11037920Y-23493674D01*
X11037920Y-23493674D02*
X11047444Y-23455579D01*
X11047444Y-23455579D02*
X11056967Y-23436531D01*
X11056967Y-23436531D02*
X11066491Y-23427008D01*
X11066491Y-23427008D02*
X11085539Y-23417484D01*
X11237920Y-23617484D02*
X11237920Y-23484150D01*
X11237920Y-23503198D02*
X11247443Y-23493674D01*
X11247443Y-23493674D02*
X11266491Y-23484150D01*
X11266491Y-23484150D02*
X11295063Y-23484150D01*
X11295063Y-23484150D02*
X11314110Y-23493674D01*
X11314110Y-23493674D02*
X11323634Y-23512722D01*
X11323634Y-23512722D02*
X11323634Y-23617484D01*
X11323634Y-23512722D02*
X11333158Y-23493674D01*
X11333158Y-23493674D02*
X11352205Y-23484150D01*
X11352205Y-23484150D02*
X11380777Y-23484150D01*
X11380777Y-23484150D02*
X11399824Y-23493674D01*
X11399824Y-23493674D02*
X11409348Y-23512722D01*
X11409348Y-23512722D02*
X11409348Y-23617484D01*
X11504586Y-23617484D02*
X11504586Y-23484150D01*
X11504586Y-23503198D02*
X11514110Y-23493674D01*
X11514110Y-23493674D02*
X11533158Y-23484150D01*
X11533158Y-23484150D02*
X11561729Y-23484150D01*
X11561729Y-23484150D02*
X11580777Y-23493674D01*
X11580777Y-23493674D02*
X11590301Y-23512722D01*
X11590301Y-23512722D02*
X11590301Y-23617484D01*
X11590301Y-23512722D02*
X11599824Y-23493674D01*
X11599824Y-23493674D02*
X11618872Y-23484150D01*
X11618872Y-23484150D02*
X11647443Y-23484150D01*
X11647443Y-23484150D02*
X11666491Y-23493674D01*
X11666491Y-23493674D02*
X11676015Y-23512722D01*
X11676015Y-23512722D02*
X11676015Y-23617484D01*
X12066491Y-23407960D02*
X11895063Y-23665103D01*
X12323634Y-23417484D02*
X12342682Y-23417484D01*
X12342682Y-23417484D02*
X12361729Y-23427008D01*
X12361729Y-23427008D02*
X12371253Y-23436531D01*
X12371253Y-23436531D02*
X12380777Y-23455579D01*
X12380777Y-23455579D02*
X12390301Y-23493674D01*
X12390301Y-23493674D02*
X12390301Y-23541293D01*
X12390301Y-23541293D02*
X12380777Y-23579388D01*
X12380777Y-23579388D02*
X12371253Y-23598436D01*
X12371253Y-23598436D02*
X12361729Y-23607960D01*
X12361729Y-23607960D02*
X12342682Y-23617484D01*
X12342682Y-23617484D02*
X12323634Y-23617484D01*
X12323634Y-23617484D02*
X12304586Y-23607960D01*
X12304586Y-23607960D02*
X12295063Y-23598436D01*
X12295063Y-23598436D02*
X12285539Y-23579388D01*
X12285539Y-23579388D02*
X12276015Y-23541293D01*
X12276015Y-23541293D02*
X12276015Y-23493674D01*
X12276015Y-23493674D02*
X12285539Y-23455579D01*
X12285539Y-23455579D02*
X12295063Y-23436531D01*
X12295063Y-23436531D02*
X12304586Y-23427008D01*
X12304586Y-23427008D02*
X12323634Y-23417484D01*
X12476015Y-23598436D02*
X12485539Y-23607960D01*
X12485539Y-23607960D02*
X12476015Y-23617484D01*
X12476015Y-23617484D02*
X12466491Y-23607960D01*
X12466491Y-23607960D02*
X12476015Y-23598436D01*
X12476015Y-23598436D02*
X12476015Y-23617484D01*
X12609348Y-23417484D02*
X12628396Y-23417484D01*
X12628396Y-23417484D02*
X12647444Y-23427008D01*
X12647444Y-23427008D02*
X12656967Y-23436531D01*
X12656967Y-23436531D02*
X12666491Y-23455579D01*
X12666491Y-23455579D02*
X12676015Y-23493674D01*
X12676015Y-23493674D02*
X12676015Y-23541293D01*
X12676015Y-23541293D02*
X12666491Y-23579388D01*
X12666491Y-23579388D02*
X12656967Y-23598436D01*
X12656967Y-23598436D02*
X12647444Y-23607960D01*
X12647444Y-23607960D02*
X12628396Y-23617484D01*
X12628396Y-23617484D02*
X12609348Y-23617484D01*
X12609348Y-23617484D02*
X12590301Y-23607960D01*
X12590301Y-23607960D02*
X12580777Y-23598436D01*
X12580777Y-23598436D02*
X12571253Y-23579388D01*
X12571253Y-23579388D02*
X12561729Y-23541293D01*
X12561729Y-23541293D02*
X12561729Y-23493674D01*
X12561729Y-23493674D02*
X12571253Y-23455579D01*
X12571253Y-23455579D02*
X12580777Y-23436531D01*
X12580777Y-23436531D02*
X12590301Y-23427008D01*
X12590301Y-23427008D02*
X12609348Y-23417484D01*
X12847444Y-23484150D02*
X12847444Y-23617484D01*
X12799825Y-23407960D02*
X12752206Y-23550817D01*
X12752206Y-23550817D02*
X12876015Y-23550817D01*
X12933158Y-23417484D02*
X13056967Y-23417484D01*
X13056967Y-23417484D02*
X12990301Y-23493674D01*
X12990301Y-23493674D02*
X13018872Y-23493674D01*
X13018872Y-23493674D02*
X13037920Y-23503198D01*
X13037920Y-23503198D02*
X13047444Y-23512722D01*
X13047444Y-23512722D02*
X13056967Y-23531769D01*
X13056967Y-23531769D02*
X13056967Y-23579388D01*
X13056967Y-23579388D02*
X13047444Y-23598436D01*
X13047444Y-23598436D02*
X13037920Y-23607960D01*
X13037920Y-23607960D02*
X13018872Y-23617484D01*
X13018872Y-23617484D02*
X12961729Y-23617484D01*
X12961729Y-23617484D02*
X12942682Y-23607960D01*
X12942682Y-23607960D02*
X12933158Y-23598436D01*
X13123634Y-23417484D02*
X13247444Y-23417484D01*
X13247444Y-23417484D02*
X13180777Y-23493674D01*
X13180777Y-23493674D02*
X13209348Y-23493674D01*
X13209348Y-23493674D02*
X13228396Y-23503198D01*
X13228396Y-23503198D02*
X13237920Y-23512722D01*
X13237920Y-23512722D02*
X13247444Y-23531769D01*
X13247444Y-23531769D02*
X13247444Y-23579388D01*
X13247444Y-23579388D02*
X13237920Y-23598436D01*
X13237920Y-23598436D02*
X13228396Y-23607960D01*
X13228396Y-23607960D02*
X13209348Y-23617484D01*
X13209348Y-23617484D02*
X13152206Y-23617484D01*
X13152206Y-23617484D02*
X13133158Y-23607960D01*
X13133158Y-23607960D02*
X13123634Y-23598436D01*
X13323634Y-23417484D02*
X13323634Y-23455579D01*
X13399825Y-23417484D02*
X13399825Y-23455579D01*
X13695063Y-23693674D02*
X13685539Y-23684150D01*
X13685539Y-23684150D02*
X13666491Y-23655579D01*
X13666491Y-23655579D02*
X13656968Y-23636531D01*
X13656968Y-23636531D02*
X13647444Y-23607960D01*
X13647444Y-23607960D02*
X13637920Y-23560341D01*
X13637920Y-23560341D02*
X13637920Y-23522246D01*
X13637920Y-23522246D02*
X13647444Y-23474627D01*
X13647444Y-23474627D02*
X13656968Y-23446055D01*
X13656968Y-23446055D02*
X13666491Y-23427008D01*
X13666491Y-23427008D02*
X13685539Y-23398436D01*
X13685539Y-23398436D02*
X13695063Y-23388912D01*
X13856968Y-23484150D02*
X13856968Y-23617484D01*
X13809348Y-23407960D02*
X13761729Y-23550817D01*
X13761729Y-23550817D02*
X13885539Y-23550817D01*
X13952206Y-23436531D02*
X13961729Y-23427008D01*
X13961729Y-23427008D02*
X13980777Y-23417484D01*
X13980777Y-23417484D02*
X14028396Y-23417484D01*
X14028396Y-23417484D02*
X14047444Y-23427008D01*
X14047444Y-23427008D02*
X14056968Y-23436531D01*
X14056968Y-23436531D02*
X14066491Y-23455579D01*
X14066491Y-23455579D02*
X14066491Y-23474627D01*
X14066491Y-23474627D02*
X14056968Y-23503198D01*
X14056968Y-23503198D02*
X13942682Y-23617484D01*
X13942682Y-23617484D02*
X14066491Y-23617484D01*
X14304587Y-23617484D02*
X14304587Y-23417484D01*
X14390301Y-23617484D02*
X14390301Y-23512722D01*
X14390301Y-23512722D02*
X14380777Y-23493674D01*
X14380777Y-23493674D02*
X14361730Y-23484150D01*
X14361730Y-23484150D02*
X14333158Y-23484150D01*
X14333158Y-23484150D02*
X14314110Y-23493674D01*
X14314110Y-23493674D02*
X14304587Y-23503198D01*
X14514110Y-23617484D02*
X14495063Y-23607960D01*
X14495063Y-23607960D02*
X14485539Y-23598436D01*
X14485539Y-23598436D02*
X14476015Y-23579388D01*
X14476015Y-23579388D02*
X14476015Y-23522246D01*
X14476015Y-23522246D02*
X14485539Y-23503198D01*
X14485539Y-23503198D02*
X14495063Y-23493674D01*
X14495063Y-23493674D02*
X14514110Y-23484150D01*
X14514110Y-23484150D02*
X14542682Y-23484150D01*
X14542682Y-23484150D02*
X14561730Y-23493674D01*
X14561730Y-23493674D02*
X14571253Y-23503198D01*
X14571253Y-23503198D02*
X14580777Y-23522246D01*
X14580777Y-23522246D02*
X14580777Y-23579388D01*
X14580777Y-23579388D02*
X14571253Y-23598436D01*
X14571253Y-23598436D02*
X14561730Y-23607960D01*
X14561730Y-23607960D02*
X14542682Y-23617484D01*
X14542682Y-23617484D02*
X14514110Y-23617484D01*
X14695063Y-23617484D02*
X14676015Y-23607960D01*
X14676015Y-23607960D02*
X14666491Y-23588912D01*
X14666491Y-23588912D02*
X14666491Y-23417484D01*
X14847444Y-23607960D02*
X14828396Y-23617484D01*
X14828396Y-23617484D02*
X14790301Y-23617484D01*
X14790301Y-23617484D02*
X14771253Y-23607960D01*
X14771253Y-23607960D02*
X14761730Y-23588912D01*
X14761730Y-23588912D02*
X14761730Y-23512722D01*
X14761730Y-23512722D02*
X14771253Y-23493674D01*
X14771253Y-23493674D02*
X14790301Y-23484150D01*
X14790301Y-23484150D02*
X14828396Y-23484150D01*
X14828396Y-23484150D02*
X14847444Y-23493674D01*
X14847444Y-23493674D02*
X14856968Y-23512722D01*
X14856968Y-23512722D02*
X14856968Y-23531769D01*
X14856968Y-23531769D02*
X14761730Y-23550817D01*
X14933158Y-23607960D02*
X14952206Y-23617484D01*
X14952206Y-23617484D02*
X14990301Y-23617484D01*
X14990301Y-23617484D02*
X15009349Y-23607960D01*
X15009349Y-23607960D02*
X15018872Y-23588912D01*
X15018872Y-23588912D02*
X15018872Y-23579388D01*
X15018872Y-23579388D02*
X15009349Y-23560341D01*
X15009349Y-23560341D02*
X14990301Y-23550817D01*
X14990301Y-23550817D02*
X14961730Y-23550817D01*
X14961730Y-23550817D02*
X14942682Y-23541293D01*
X14942682Y-23541293D02*
X14933158Y-23522246D01*
X14933158Y-23522246D02*
X14933158Y-23512722D01*
X14933158Y-23512722D02*
X14942682Y-23493674D01*
X14942682Y-23493674D02*
X14961730Y-23484150D01*
X14961730Y-23484150D02*
X14990301Y-23484150D01*
X14990301Y-23484150D02*
X15009349Y-23493674D01*
X15085539Y-23693674D02*
X15095063Y-23684150D01*
X15095063Y-23684150D02*
X15114111Y-23655579D01*
X15114111Y-23655579D02*
X15123634Y-23636531D01*
X15123634Y-23636531D02*
X15133158Y-23607960D01*
X15133158Y-23607960D02*
X15142682Y-23560341D01*
X15142682Y-23560341D02*
X15142682Y-23522246D01*
X15142682Y-23522246D02*
X15133158Y-23474627D01*
X15133158Y-23474627D02*
X15123634Y-23446055D01*
X15123634Y-23446055D02*
X15114111Y-23427008D01*
X15114111Y-23427008D02*
X15095063Y-23398436D01*
X15095063Y-23398436D02*
X15085539Y-23388912D01*
X9920000Y-23690000D02*
X10120000Y-23890000D01*
X10120000Y-23690000D02*
X9920000Y-23890000D01*
X10120000Y-23790000D02*
G75*
G03*
X10120000Y-23790000I-100000J0D01*
G01*
X10371253Y-23700531D02*
X10380777Y-23691008D01*
X10380777Y-23691008D02*
X10399824Y-23681484D01*
X10399824Y-23681484D02*
X10447444Y-23681484D01*
X10447444Y-23681484D02*
X10466491Y-23691008D01*
X10466491Y-23691008D02*
X10476015Y-23700531D01*
X10476015Y-23700531D02*
X10485539Y-23719579D01*
X10485539Y-23719579D02*
X10485539Y-23738627D01*
X10485539Y-23738627D02*
X10476015Y-23767198D01*
X10476015Y-23767198D02*
X10361729Y-23881484D01*
X10361729Y-23881484D02*
X10485539Y-23881484D01*
X10571253Y-23862436D02*
X10580777Y-23871960D01*
X10580777Y-23871960D02*
X10571253Y-23881484D01*
X10571253Y-23881484D02*
X10561729Y-23871960D01*
X10561729Y-23871960D02*
X10571253Y-23862436D01*
X10571253Y-23862436D02*
X10571253Y-23881484D01*
X10771253Y-23881484D02*
X10656967Y-23881484D01*
X10714110Y-23881484D02*
X10714110Y-23681484D01*
X10714110Y-23681484D02*
X10695063Y-23710055D01*
X10695063Y-23710055D02*
X10676015Y-23729103D01*
X10676015Y-23729103D02*
X10656967Y-23738627D01*
X10895063Y-23681484D02*
X10914110Y-23681484D01*
X10914110Y-23681484D02*
X10933158Y-23691008D01*
X10933158Y-23691008D02*
X10942682Y-23700531D01*
X10942682Y-23700531D02*
X10952205Y-23719579D01*
X10952205Y-23719579D02*
X10961729Y-23757674D01*
X10961729Y-23757674D02*
X10961729Y-23805293D01*
X10961729Y-23805293D02*
X10952205Y-23843388D01*
X10952205Y-23843388D02*
X10942682Y-23862436D01*
X10942682Y-23862436D02*
X10933158Y-23871960D01*
X10933158Y-23871960D02*
X10914110Y-23881484D01*
X10914110Y-23881484D02*
X10895063Y-23881484D01*
X10895063Y-23881484D02*
X10876015Y-23871960D01*
X10876015Y-23871960D02*
X10866491Y-23862436D01*
X10866491Y-23862436D02*
X10856967Y-23843388D01*
X10856967Y-23843388D02*
X10847444Y-23805293D01*
X10847444Y-23805293D02*
X10847444Y-23757674D01*
X10847444Y-23757674D02*
X10856967Y-23719579D01*
X10856967Y-23719579D02*
X10866491Y-23700531D01*
X10866491Y-23700531D02*
X10876015Y-23691008D01*
X10876015Y-23691008D02*
X10895063Y-23681484D01*
X11085539Y-23681484D02*
X11104586Y-23681484D01*
X11104586Y-23681484D02*
X11123634Y-23691008D01*
X11123634Y-23691008D02*
X11133158Y-23700531D01*
X11133158Y-23700531D02*
X11142682Y-23719579D01*
X11142682Y-23719579D02*
X11152205Y-23757674D01*
X11152205Y-23757674D02*
X11152205Y-23805293D01*
X11152205Y-23805293D02*
X11142682Y-23843388D01*
X11142682Y-23843388D02*
X11133158Y-23862436D01*
X11133158Y-23862436D02*
X11123634Y-23871960D01*
X11123634Y-23871960D02*
X11104586Y-23881484D01*
X11104586Y-23881484D02*
X11085539Y-23881484D01*
X11085539Y-23881484D02*
X11066491Y-23871960D01*
X11066491Y-23871960D02*
X11056967Y-23862436D01*
X11056967Y-23862436D02*
X11047444Y-23843388D01*
X11047444Y-23843388D02*
X11037920Y-23805293D01*
X11037920Y-23805293D02*
X11037920Y-23757674D01*
X11037920Y-23757674D02*
X11047444Y-23719579D01*
X11047444Y-23719579D02*
X11056967Y-23700531D01*
X11056967Y-23700531D02*
X11066491Y-23691008D01*
X11066491Y-23691008D02*
X11085539Y-23681484D01*
X11237920Y-23881484D02*
X11237920Y-23748150D01*
X11237920Y-23767198D02*
X11247443Y-23757674D01*
X11247443Y-23757674D02*
X11266491Y-23748150D01*
X11266491Y-23748150D02*
X11295063Y-23748150D01*
X11295063Y-23748150D02*
X11314110Y-23757674D01*
X11314110Y-23757674D02*
X11323634Y-23776722D01*
X11323634Y-23776722D02*
X11323634Y-23881484D01*
X11323634Y-23776722D02*
X11333158Y-23757674D01*
X11333158Y-23757674D02*
X11352205Y-23748150D01*
X11352205Y-23748150D02*
X11380777Y-23748150D01*
X11380777Y-23748150D02*
X11399824Y-23757674D01*
X11399824Y-23757674D02*
X11409348Y-23776722D01*
X11409348Y-23776722D02*
X11409348Y-23881484D01*
X11504586Y-23881484D02*
X11504586Y-23748150D01*
X11504586Y-23767198D02*
X11514110Y-23757674D01*
X11514110Y-23757674D02*
X11533158Y-23748150D01*
X11533158Y-23748150D02*
X11561729Y-23748150D01*
X11561729Y-23748150D02*
X11580777Y-23757674D01*
X11580777Y-23757674D02*
X11590301Y-23776722D01*
X11590301Y-23776722D02*
X11590301Y-23881484D01*
X11590301Y-23776722D02*
X11599824Y-23757674D01*
X11599824Y-23757674D02*
X11618872Y-23748150D01*
X11618872Y-23748150D02*
X11647443Y-23748150D01*
X11647443Y-23748150D02*
X11666491Y-23757674D01*
X11666491Y-23757674D02*
X11676015Y-23776722D01*
X11676015Y-23776722D02*
X11676015Y-23881484D01*
X12066491Y-23671960D02*
X11895063Y-23929103D01*
X12323634Y-23681484D02*
X12342682Y-23681484D01*
X12342682Y-23681484D02*
X12361729Y-23691008D01*
X12361729Y-23691008D02*
X12371253Y-23700531D01*
X12371253Y-23700531D02*
X12380777Y-23719579D01*
X12380777Y-23719579D02*
X12390301Y-23757674D01*
X12390301Y-23757674D02*
X12390301Y-23805293D01*
X12390301Y-23805293D02*
X12380777Y-23843388D01*
X12380777Y-23843388D02*
X12371253Y-23862436D01*
X12371253Y-23862436D02*
X12361729Y-23871960D01*
X12361729Y-23871960D02*
X12342682Y-23881484D01*
X12342682Y-23881484D02*
X12323634Y-23881484D01*
X12323634Y-23881484D02*
X12304586Y-23871960D01*
X12304586Y-23871960D02*
X12295063Y-23862436D01*
X12295063Y-23862436D02*
X12285539Y-23843388D01*
X12285539Y-23843388D02*
X12276015Y-23805293D01*
X12276015Y-23805293D02*
X12276015Y-23757674D01*
X12276015Y-23757674D02*
X12285539Y-23719579D01*
X12285539Y-23719579D02*
X12295063Y-23700531D01*
X12295063Y-23700531D02*
X12304586Y-23691008D01*
X12304586Y-23691008D02*
X12323634Y-23681484D01*
X12476015Y-23862436D02*
X12485539Y-23871960D01*
X12485539Y-23871960D02*
X12476015Y-23881484D01*
X12476015Y-23881484D02*
X12466491Y-23871960D01*
X12466491Y-23871960D02*
X12476015Y-23862436D01*
X12476015Y-23862436D02*
X12476015Y-23881484D01*
X12609348Y-23681484D02*
X12628396Y-23681484D01*
X12628396Y-23681484D02*
X12647444Y-23691008D01*
X12647444Y-23691008D02*
X12656967Y-23700531D01*
X12656967Y-23700531D02*
X12666491Y-23719579D01*
X12666491Y-23719579D02*
X12676015Y-23757674D01*
X12676015Y-23757674D02*
X12676015Y-23805293D01*
X12676015Y-23805293D02*
X12666491Y-23843388D01*
X12666491Y-23843388D02*
X12656967Y-23862436D01*
X12656967Y-23862436D02*
X12647444Y-23871960D01*
X12647444Y-23871960D02*
X12628396Y-23881484D01*
X12628396Y-23881484D02*
X12609348Y-23881484D01*
X12609348Y-23881484D02*
X12590301Y-23871960D01*
X12590301Y-23871960D02*
X12580777Y-23862436D01*
X12580777Y-23862436D02*
X12571253Y-23843388D01*
X12571253Y-23843388D02*
X12561729Y-23805293D01*
X12561729Y-23805293D02*
X12561729Y-23757674D01*
X12561729Y-23757674D02*
X12571253Y-23719579D01*
X12571253Y-23719579D02*
X12580777Y-23700531D01*
X12580777Y-23700531D02*
X12590301Y-23691008D01*
X12590301Y-23691008D02*
X12609348Y-23681484D01*
X12790301Y-23767198D02*
X12771253Y-23757674D01*
X12771253Y-23757674D02*
X12761729Y-23748150D01*
X12761729Y-23748150D02*
X12752206Y-23729103D01*
X12752206Y-23729103D02*
X12752206Y-23719579D01*
X12752206Y-23719579D02*
X12761729Y-23700531D01*
X12761729Y-23700531D02*
X12771253Y-23691008D01*
X12771253Y-23691008D02*
X12790301Y-23681484D01*
X12790301Y-23681484D02*
X12828396Y-23681484D01*
X12828396Y-23681484D02*
X12847444Y-23691008D01*
X12847444Y-23691008D02*
X12856967Y-23700531D01*
X12856967Y-23700531D02*
X12866491Y-23719579D01*
X12866491Y-23719579D02*
X12866491Y-23729103D01*
X12866491Y-23729103D02*
X12856967Y-23748150D01*
X12856967Y-23748150D02*
X12847444Y-23757674D01*
X12847444Y-23757674D02*
X12828396Y-23767198D01*
X12828396Y-23767198D02*
X12790301Y-23767198D01*
X12790301Y-23767198D02*
X12771253Y-23776722D01*
X12771253Y-23776722D02*
X12761729Y-23786246D01*
X12761729Y-23786246D02*
X12752206Y-23805293D01*
X12752206Y-23805293D02*
X12752206Y-23843388D01*
X12752206Y-23843388D02*
X12761729Y-23862436D01*
X12761729Y-23862436D02*
X12771253Y-23871960D01*
X12771253Y-23871960D02*
X12790301Y-23881484D01*
X12790301Y-23881484D02*
X12828396Y-23881484D01*
X12828396Y-23881484D02*
X12847444Y-23871960D01*
X12847444Y-23871960D02*
X12856967Y-23862436D01*
X12856967Y-23862436D02*
X12866491Y-23843388D01*
X12866491Y-23843388D02*
X12866491Y-23805293D01*
X12866491Y-23805293D02*
X12856967Y-23786246D01*
X12856967Y-23786246D02*
X12847444Y-23776722D01*
X12847444Y-23776722D02*
X12828396Y-23767198D01*
X12942682Y-23700531D02*
X12952206Y-23691008D01*
X12952206Y-23691008D02*
X12971253Y-23681484D01*
X12971253Y-23681484D02*
X13018872Y-23681484D01*
X13018872Y-23681484D02*
X13037920Y-23691008D01*
X13037920Y-23691008D02*
X13047444Y-23700531D01*
X13047444Y-23700531D02*
X13056967Y-23719579D01*
X13056967Y-23719579D02*
X13056967Y-23738627D01*
X13056967Y-23738627D02*
X13047444Y-23767198D01*
X13047444Y-23767198D02*
X12933158Y-23881484D01*
X12933158Y-23881484D02*
X13056967Y-23881484D01*
X13123634Y-23681484D02*
X13256967Y-23681484D01*
X13256967Y-23681484D02*
X13171253Y-23881484D01*
X13323634Y-23681484D02*
X13323634Y-23719579D01*
X13399825Y-23681484D02*
X13399825Y-23719579D01*
X13695063Y-23957674D02*
X13685539Y-23948150D01*
X13685539Y-23948150D02*
X13666491Y-23919579D01*
X13666491Y-23919579D02*
X13656968Y-23900531D01*
X13656968Y-23900531D02*
X13647444Y-23871960D01*
X13647444Y-23871960D02*
X13637920Y-23824341D01*
X13637920Y-23824341D02*
X13637920Y-23786246D01*
X13637920Y-23786246D02*
X13647444Y-23738627D01*
X13647444Y-23738627D02*
X13656968Y-23710055D01*
X13656968Y-23710055D02*
X13666491Y-23691008D01*
X13666491Y-23691008D02*
X13685539Y-23662436D01*
X13685539Y-23662436D02*
X13695063Y-23652912D01*
X13876015Y-23881484D02*
X13761729Y-23881484D01*
X13818872Y-23881484D02*
X13818872Y-23681484D01*
X13818872Y-23681484D02*
X13799825Y-23710055D01*
X13799825Y-23710055D02*
X13780777Y-23729103D01*
X13780777Y-23729103D02*
X13761729Y-23738627D01*
X13999825Y-23681484D02*
X14018872Y-23681484D01*
X14018872Y-23681484D02*
X14037920Y-23691008D01*
X14037920Y-23691008D02*
X14047444Y-23700531D01*
X14047444Y-23700531D02*
X14056968Y-23719579D01*
X14056968Y-23719579D02*
X14066491Y-23757674D01*
X14066491Y-23757674D02*
X14066491Y-23805293D01*
X14066491Y-23805293D02*
X14056968Y-23843388D01*
X14056968Y-23843388D02*
X14047444Y-23862436D01*
X14047444Y-23862436D02*
X14037920Y-23871960D01*
X14037920Y-23871960D02*
X14018872Y-23881484D01*
X14018872Y-23881484D02*
X13999825Y-23881484D01*
X13999825Y-23881484D02*
X13980777Y-23871960D01*
X13980777Y-23871960D02*
X13971253Y-23862436D01*
X13971253Y-23862436D02*
X13961729Y-23843388D01*
X13961729Y-23843388D02*
X13952206Y-23805293D01*
X13952206Y-23805293D02*
X13952206Y-23757674D01*
X13952206Y-23757674D02*
X13961729Y-23719579D01*
X13961729Y-23719579D02*
X13971253Y-23700531D01*
X13971253Y-23700531D02*
X13980777Y-23691008D01*
X13980777Y-23691008D02*
X13999825Y-23681484D01*
X14304587Y-23881484D02*
X14304587Y-23681484D01*
X14390301Y-23881484D02*
X14390301Y-23776722D01*
X14390301Y-23776722D02*
X14380777Y-23757674D01*
X14380777Y-23757674D02*
X14361730Y-23748150D01*
X14361730Y-23748150D02*
X14333158Y-23748150D01*
X14333158Y-23748150D02*
X14314110Y-23757674D01*
X14314110Y-23757674D02*
X14304587Y-23767198D01*
X14514110Y-23881484D02*
X14495063Y-23871960D01*
X14495063Y-23871960D02*
X14485539Y-23862436D01*
X14485539Y-23862436D02*
X14476015Y-23843388D01*
X14476015Y-23843388D02*
X14476015Y-23786246D01*
X14476015Y-23786246D02*
X14485539Y-23767198D01*
X14485539Y-23767198D02*
X14495063Y-23757674D01*
X14495063Y-23757674D02*
X14514110Y-23748150D01*
X14514110Y-23748150D02*
X14542682Y-23748150D01*
X14542682Y-23748150D02*
X14561730Y-23757674D01*
X14561730Y-23757674D02*
X14571253Y-23767198D01*
X14571253Y-23767198D02*
X14580777Y-23786246D01*
X14580777Y-23786246D02*
X14580777Y-23843388D01*
X14580777Y-23843388D02*
X14571253Y-23862436D01*
X14571253Y-23862436D02*
X14561730Y-23871960D01*
X14561730Y-23871960D02*
X14542682Y-23881484D01*
X14542682Y-23881484D02*
X14514110Y-23881484D01*
X14695063Y-23881484D02*
X14676015Y-23871960D01*
X14676015Y-23871960D02*
X14666491Y-23852912D01*
X14666491Y-23852912D02*
X14666491Y-23681484D01*
X14847444Y-23871960D02*
X14828396Y-23881484D01*
X14828396Y-23881484D02*
X14790301Y-23881484D01*
X14790301Y-23881484D02*
X14771253Y-23871960D01*
X14771253Y-23871960D02*
X14761730Y-23852912D01*
X14761730Y-23852912D02*
X14761730Y-23776722D01*
X14761730Y-23776722D02*
X14771253Y-23757674D01*
X14771253Y-23757674D02*
X14790301Y-23748150D01*
X14790301Y-23748150D02*
X14828396Y-23748150D01*
X14828396Y-23748150D02*
X14847444Y-23757674D01*
X14847444Y-23757674D02*
X14856968Y-23776722D01*
X14856968Y-23776722D02*
X14856968Y-23795769D01*
X14856968Y-23795769D02*
X14761730Y-23814817D01*
X14933158Y-23871960D02*
X14952206Y-23881484D01*
X14952206Y-23881484D02*
X14990301Y-23881484D01*
X14990301Y-23881484D02*
X15009349Y-23871960D01*
X15009349Y-23871960D02*
X15018872Y-23852912D01*
X15018872Y-23852912D02*
X15018872Y-23843388D01*
X15018872Y-23843388D02*
X15009349Y-23824341D01*
X15009349Y-23824341D02*
X14990301Y-23814817D01*
X14990301Y-23814817D02*
X14961730Y-23814817D01*
X14961730Y-23814817D02*
X14942682Y-23805293D01*
X14942682Y-23805293D02*
X14933158Y-23786246D01*
X14933158Y-23786246D02*
X14933158Y-23776722D01*
X14933158Y-23776722D02*
X14942682Y-23757674D01*
X14942682Y-23757674D02*
X14961730Y-23748150D01*
X14961730Y-23748150D02*
X14990301Y-23748150D01*
X14990301Y-23748150D02*
X15009349Y-23757674D01*
X15085539Y-23957674D02*
X15095063Y-23948150D01*
X15095063Y-23948150D02*
X15114111Y-23919579D01*
X15114111Y-23919579D02*
X15123634Y-23900531D01*
X15123634Y-23900531D02*
X15133158Y-23871960D01*
X15133158Y-23871960D02*
X15142682Y-23824341D01*
X15142682Y-23824341D02*
X15142682Y-23786246D01*
X15142682Y-23786246D02*
X15133158Y-23738627D01*
X15133158Y-23738627D02*
X15123634Y-23710055D01*
X15123634Y-23710055D02*
X15114111Y-23691008D01*
X15114111Y-23691008D02*
X15095063Y-23662436D01*
X15095063Y-23662436D02*
X15085539Y-23652912D01*
M02*
