%TF.GenerationSoftware,KiCad,Pcbnew,7.0.8*%
%TF.CreationDate,2024-09-22T22:05:30-04:00*%
%TF.ProjectId,lichen-bifocals-control-board,6c696368-656e-42d6-9269-666f63616c73,1.0*%
%TF.SameCoordinates,Original*%
%TF.FileFunction,Drillmap*%
%TF.FilePolarity,Positive*%
%FSLAX45Y45*%
G04 Gerber Fmt 4.5, Leading zero omitted, Abs format (unit mm)*
G04 Created by KiCad (PCBNEW 7.0.8) date 2024-09-22 22:05:30*
%MOMM*%
%LPD*%
G01*
G04 APERTURE LIST*
%ADD10C,0.100000*%
%ADD11C,0.200000*%
%ADD12C,0.220000*%
G04 APERTURE END LIST*
D10*
X10125000Y-11025000D02*
X13905000Y-11025000D01*
X13905000Y-21825000D01*
X10125000Y-21825000D01*
X10125000Y-11025000D01*
D11*
D12*
X11212300Y-20197700D02*
X11432300Y-20417700D01*
X11432300Y-20197700D02*
X11212300Y-20417700D01*
X12597700Y-20197700D02*
X12817700Y-20417700D01*
X12817700Y-20197700D02*
X12597700Y-20417700D01*
D11*
X10380777Y-22141484D02*
X10380777Y-21941484D01*
X10380777Y-21941484D02*
X10428396Y-21941484D01*
X10428396Y-21941484D02*
X10456967Y-21951008D01*
X10456967Y-21951008D02*
X10476015Y-21970055D01*
X10476015Y-21970055D02*
X10485539Y-21989103D01*
X10485539Y-21989103D02*
X10495063Y-22027198D01*
X10495063Y-22027198D02*
X10495063Y-22055770D01*
X10495063Y-22055770D02*
X10485539Y-22093865D01*
X10485539Y-22093865D02*
X10476015Y-22112912D01*
X10476015Y-22112912D02*
X10456967Y-22131960D01*
X10456967Y-22131960D02*
X10428396Y-22141484D01*
X10428396Y-22141484D02*
X10380777Y-22141484D01*
X10580777Y-22141484D02*
X10580777Y-22008150D01*
X10580777Y-22046246D02*
X10590301Y-22027198D01*
X10590301Y-22027198D02*
X10599824Y-22017674D01*
X10599824Y-22017674D02*
X10618872Y-22008150D01*
X10618872Y-22008150D02*
X10637920Y-22008150D01*
X10704586Y-22141484D02*
X10704586Y-22008150D01*
X10704586Y-21941484D02*
X10695063Y-21951008D01*
X10695063Y-21951008D02*
X10704586Y-21960531D01*
X10704586Y-21960531D02*
X10714110Y-21951008D01*
X10714110Y-21951008D02*
X10704586Y-21941484D01*
X10704586Y-21941484D02*
X10704586Y-21960531D01*
X10828396Y-22141484D02*
X10809348Y-22131960D01*
X10809348Y-22131960D02*
X10799824Y-22112912D01*
X10799824Y-22112912D02*
X10799824Y-21941484D01*
X10933158Y-22141484D02*
X10914110Y-22131960D01*
X10914110Y-22131960D02*
X10904586Y-22112912D01*
X10904586Y-22112912D02*
X10904586Y-21941484D01*
X11161729Y-22141484D02*
X11161729Y-21941484D01*
X11161729Y-21941484D02*
X11228396Y-22084341D01*
X11228396Y-22084341D02*
X11295062Y-21941484D01*
X11295062Y-21941484D02*
X11295062Y-22141484D01*
X11476015Y-22141484D02*
X11476015Y-22036722D01*
X11476015Y-22036722D02*
X11466491Y-22017674D01*
X11466491Y-22017674D02*
X11447443Y-22008150D01*
X11447443Y-22008150D02*
X11409348Y-22008150D01*
X11409348Y-22008150D02*
X11390301Y-22017674D01*
X11476015Y-22131960D02*
X11456967Y-22141484D01*
X11456967Y-22141484D02*
X11409348Y-22141484D01*
X11409348Y-22141484D02*
X11390301Y-22131960D01*
X11390301Y-22131960D02*
X11380777Y-22112912D01*
X11380777Y-22112912D02*
X11380777Y-22093865D01*
X11380777Y-22093865D02*
X11390301Y-22074817D01*
X11390301Y-22074817D02*
X11409348Y-22065293D01*
X11409348Y-22065293D02*
X11456967Y-22065293D01*
X11456967Y-22065293D02*
X11476015Y-22055770D01*
X11571253Y-22008150D02*
X11571253Y-22208150D01*
X11571253Y-22017674D02*
X11590301Y-22008150D01*
X11590301Y-22008150D02*
X11628396Y-22008150D01*
X11628396Y-22008150D02*
X11647443Y-22017674D01*
X11647443Y-22017674D02*
X11656967Y-22027198D01*
X11656967Y-22027198D02*
X11666491Y-22046246D01*
X11666491Y-22046246D02*
X11666491Y-22103389D01*
X11666491Y-22103389D02*
X11656967Y-22122436D01*
X11656967Y-22122436D02*
X11647443Y-22131960D01*
X11647443Y-22131960D02*
X11628396Y-22141484D01*
X11628396Y-22141484D02*
X11590301Y-22141484D01*
X11590301Y-22141484D02*
X11571253Y-22131960D01*
X11752205Y-22122436D02*
X11761729Y-22131960D01*
X11761729Y-22131960D02*
X11752205Y-22141484D01*
X11752205Y-22141484D02*
X11742682Y-22131960D01*
X11742682Y-22131960D02*
X11752205Y-22122436D01*
X11752205Y-22122436D02*
X11752205Y-22141484D01*
X11752205Y-22017674D02*
X11761729Y-22027198D01*
X11761729Y-22027198D02*
X11752205Y-22036722D01*
X11752205Y-22036722D02*
X11742682Y-22027198D01*
X11742682Y-22027198D02*
X11752205Y-22017674D01*
X11752205Y-22017674D02*
X11752205Y-22036722D01*
X9920000Y-22370000D02*
X10120000Y-22570000D01*
X10120000Y-22370000D02*
X9920000Y-22570000D01*
X10371253Y-22380531D02*
X10380777Y-22371008D01*
X10380777Y-22371008D02*
X10399824Y-22361484D01*
X10399824Y-22361484D02*
X10447444Y-22361484D01*
X10447444Y-22361484D02*
X10466491Y-22371008D01*
X10466491Y-22371008D02*
X10476015Y-22380531D01*
X10476015Y-22380531D02*
X10485539Y-22399579D01*
X10485539Y-22399579D02*
X10485539Y-22418627D01*
X10485539Y-22418627D02*
X10476015Y-22447198D01*
X10476015Y-22447198D02*
X10361729Y-22561484D01*
X10361729Y-22561484D02*
X10485539Y-22561484D01*
X10571253Y-22542436D02*
X10580777Y-22551960D01*
X10580777Y-22551960D02*
X10571253Y-22561484D01*
X10571253Y-22561484D02*
X10561729Y-22551960D01*
X10561729Y-22551960D02*
X10571253Y-22542436D01*
X10571253Y-22542436D02*
X10571253Y-22561484D01*
X10656967Y-22380531D02*
X10666491Y-22371008D01*
X10666491Y-22371008D02*
X10685539Y-22361484D01*
X10685539Y-22361484D02*
X10733158Y-22361484D01*
X10733158Y-22361484D02*
X10752205Y-22371008D01*
X10752205Y-22371008D02*
X10761729Y-22380531D01*
X10761729Y-22380531D02*
X10771253Y-22399579D01*
X10771253Y-22399579D02*
X10771253Y-22418627D01*
X10771253Y-22418627D02*
X10761729Y-22447198D01*
X10761729Y-22447198D02*
X10647444Y-22561484D01*
X10647444Y-22561484D02*
X10771253Y-22561484D01*
X10895063Y-22361484D02*
X10914110Y-22361484D01*
X10914110Y-22361484D02*
X10933158Y-22371008D01*
X10933158Y-22371008D02*
X10942682Y-22380531D01*
X10942682Y-22380531D02*
X10952205Y-22399579D01*
X10952205Y-22399579D02*
X10961729Y-22437674D01*
X10961729Y-22437674D02*
X10961729Y-22485293D01*
X10961729Y-22485293D02*
X10952205Y-22523388D01*
X10952205Y-22523388D02*
X10942682Y-22542436D01*
X10942682Y-22542436D02*
X10933158Y-22551960D01*
X10933158Y-22551960D02*
X10914110Y-22561484D01*
X10914110Y-22561484D02*
X10895063Y-22561484D01*
X10895063Y-22561484D02*
X10876015Y-22551960D01*
X10876015Y-22551960D02*
X10866491Y-22542436D01*
X10866491Y-22542436D02*
X10856967Y-22523388D01*
X10856967Y-22523388D02*
X10847444Y-22485293D01*
X10847444Y-22485293D02*
X10847444Y-22437674D01*
X10847444Y-22437674D02*
X10856967Y-22399579D01*
X10856967Y-22399579D02*
X10866491Y-22380531D01*
X10866491Y-22380531D02*
X10876015Y-22371008D01*
X10876015Y-22371008D02*
X10895063Y-22361484D01*
X11085539Y-22361484D02*
X11104586Y-22361484D01*
X11104586Y-22361484D02*
X11123634Y-22371008D01*
X11123634Y-22371008D02*
X11133158Y-22380531D01*
X11133158Y-22380531D02*
X11142682Y-22399579D01*
X11142682Y-22399579D02*
X11152205Y-22437674D01*
X11152205Y-22437674D02*
X11152205Y-22485293D01*
X11152205Y-22485293D02*
X11142682Y-22523388D01*
X11142682Y-22523388D02*
X11133158Y-22542436D01*
X11133158Y-22542436D02*
X11123634Y-22551960D01*
X11123634Y-22551960D02*
X11104586Y-22561484D01*
X11104586Y-22561484D02*
X11085539Y-22561484D01*
X11085539Y-22561484D02*
X11066491Y-22551960D01*
X11066491Y-22551960D02*
X11056967Y-22542436D01*
X11056967Y-22542436D02*
X11047444Y-22523388D01*
X11047444Y-22523388D02*
X11037920Y-22485293D01*
X11037920Y-22485293D02*
X11037920Y-22437674D01*
X11037920Y-22437674D02*
X11047444Y-22399579D01*
X11047444Y-22399579D02*
X11056967Y-22380531D01*
X11056967Y-22380531D02*
X11066491Y-22371008D01*
X11066491Y-22371008D02*
X11085539Y-22361484D01*
X11237920Y-22561484D02*
X11237920Y-22428150D01*
X11237920Y-22447198D02*
X11247443Y-22437674D01*
X11247443Y-22437674D02*
X11266491Y-22428150D01*
X11266491Y-22428150D02*
X11295063Y-22428150D01*
X11295063Y-22428150D02*
X11314110Y-22437674D01*
X11314110Y-22437674D02*
X11323634Y-22456722D01*
X11323634Y-22456722D02*
X11323634Y-22561484D01*
X11323634Y-22456722D02*
X11333158Y-22437674D01*
X11333158Y-22437674D02*
X11352205Y-22428150D01*
X11352205Y-22428150D02*
X11380777Y-22428150D01*
X11380777Y-22428150D02*
X11399824Y-22437674D01*
X11399824Y-22437674D02*
X11409348Y-22456722D01*
X11409348Y-22456722D02*
X11409348Y-22561484D01*
X11504586Y-22561484D02*
X11504586Y-22428150D01*
X11504586Y-22447198D02*
X11514110Y-22437674D01*
X11514110Y-22437674D02*
X11533158Y-22428150D01*
X11533158Y-22428150D02*
X11561729Y-22428150D01*
X11561729Y-22428150D02*
X11580777Y-22437674D01*
X11580777Y-22437674D02*
X11590301Y-22456722D01*
X11590301Y-22456722D02*
X11590301Y-22561484D01*
X11590301Y-22456722D02*
X11599824Y-22437674D01*
X11599824Y-22437674D02*
X11618872Y-22428150D01*
X11618872Y-22428150D02*
X11647443Y-22428150D01*
X11647443Y-22428150D02*
X11666491Y-22437674D01*
X11666491Y-22437674D02*
X11676015Y-22456722D01*
X11676015Y-22456722D02*
X11676015Y-22561484D01*
X12066491Y-22351960D02*
X11895063Y-22609103D01*
X12323634Y-22361484D02*
X12342682Y-22361484D01*
X12342682Y-22361484D02*
X12361729Y-22371008D01*
X12361729Y-22371008D02*
X12371253Y-22380531D01*
X12371253Y-22380531D02*
X12380777Y-22399579D01*
X12380777Y-22399579D02*
X12390301Y-22437674D01*
X12390301Y-22437674D02*
X12390301Y-22485293D01*
X12390301Y-22485293D02*
X12380777Y-22523388D01*
X12380777Y-22523388D02*
X12371253Y-22542436D01*
X12371253Y-22542436D02*
X12361729Y-22551960D01*
X12361729Y-22551960D02*
X12342682Y-22561484D01*
X12342682Y-22561484D02*
X12323634Y-22561484D01*
X12323634Y-22561484D02*
X12304586Y-22551960D01*
X12304586Y-22551960D02*
X12295063Y-22542436D01*
X12295063Y-22542436D02*
X12285539Y-22523388D01*
X12285539Y-22523388D02*
X12276015Y-22485293D01*
X12276015Y-22485293D02*
X12276015Y-22437674D01*
X12276015Y-22437674D02*
X12285539Y-22399579D01*
X12285539Y-22399579D02*
X12295063Y-22380531D01*
X12295063Y-22380531D02*
X12304586Y-22371008D01*
X12304586Y-22371008D02*
X12323634Y-22361484D01*
X12476015Y-22542436D02*
X12485539Y-22551960D01*
X12485539Y-22551960D02*
X12476015Y-22561484D01*
X12476015Y-22561484D02*
X12466491Y-22551960D01*
X12466491Y-22551960D02*
X12476015Y-22542436D01*
X12476015Y-22542436D02*
X12476015Y-22561484D01*
X12609348Y-22361484D02*
X12628396Y-22361484D01*
X12628396Y-22361484D02*
X12647444Y-22371008D01*
X12647444Y-22371008D02*
X12656967Y-22380531D01*
X12656967Y-22380531D02*
X12666491Y-22399579D01*
X12666491Y-22399579D02*
X12676015Y-22437674D01*
X12676015Y-22437674D02*
X12676015Y-22485293D01*
X12676015Y-22485293D02*
X12666491Y-22523388D01*
X12666491Y-22523388D02*
X12656967Y-22542436D01*
X12656967Y-22542436D02*
X12647444Y-22551960D01*
X12647444Y-22551960D02*
X12628396Y-22561484D01*
X12628396Y-22561484D02*
X12609348Y-22561484D01*
X12609348Y-22561484D02*
X12590301Y-22551960D01*
X12590301Y-22551960D02*
X12580777Y-22542436D01*
X12580777Y-22542436D02*
X12571253Y-22523388D01*
X12571253Y-22523388D02*
X12561729Y-22485293D01*
X12561729Y-22485293D02*
X12561729Y-22437674D01*
X12561729Y-22437674D02*
X12571253Y-22399579D01*
X12571253Y-22399579D02*
X12580777Y-22380531D01*
X12580777Y-22380531D02*
X12590301Y-22371008D01*
X12590301Y-22371008D02*
X12609348Y-22361484D01*
X12790301Y-22447198D02*
X12771253Y-22437674D01*
X12771253Y-22437674D02*
X12761729Y-22428150D01*
X12761729Y-22428150D02*
X12752206Y-22409103D01*
X12752206Y-22409103D02*
X12752206Y-22399579D01*
X12752206Y-22399579D02*
X12761729Y-22380531D01*
X12761729Y-22380531D02*
X12771253Y-22371008D01*
X12771253Y-22371008D02*
X12790301Y-22361484D01*
X12790301Y-22361484D02*
X12828396Y-22361484D01*
X12828396Y-22361484D02*
X12847444Y-22371008D01*
X12847444Y-22371008D02*
X12856967Y-22380531D01*
X12856967Y-22380531D02*
X12866491Y-22399579D01*
X12866491Y-22399579D02*
X12866491Y-22409103D01*
X12866491Y-22409103D02*
X12856967Y-22428150D01*
X12856967Y-22428150D02*
X12847444Y-22437674D01*
X12847444Y-22437674D02*
X12828396Y-22447198D01*
X12828396Y-22447198D02*
X12790301Y-22447198D01*
X12790301Y-22447198D02*
X12771253Y-22456722D01*
X12771253Y-22456722D02*
X12761729Y-22466246D01*
X12761729Y-22466246D02*
X12752206Y-22485293D01*
X12752206Y-22485293D02*
X12752206Y-22523388D01*
X12752206Y-22523388D02*
X12761729Y-22542436D01*
X12761729Y-22542436D02*
X12771253Y-22551960D01*
X12771253Y-22551960D02*
X12790301Y-22561484D01*
X12790301Y-22561484D02*
X12828396Y-22561484D01*
X12828396Y-22561484D02*
X12847444Y-22551960D01*
X12847444Y-22551960D02*
X12856967Y-22542436D01*
X12856967Y-22542436D02*
X12866491Y-22523388D01*
X12866491Y-22523388D02*
X12866491Y-22485293D01*
X12866491Y-22485293D02*
X12856967Y-22466246D01*
X12856967Y-22466246D02*
X12847444Y-22456722D01*
X12847444Y-22456722D02*
X12828396Y-22447198D01*
X13037920Y-22361484D02*
X12999825Y-22361484D01*
X12999825Y-22361484D02*
X12980777Y-22371008D01*
X12980777Y-22371008D02*
X12971253Y-22380531D01*
X12971253Y-22380531D02*
X12952206Y-22409103D01*
X12952206Y-22409103D02*
X12942682Y-22447198D01*
X12942682Y-22447198D02*
X12942682Y-22523388D01*
X12942682Y-22523388D02*
X12952206Y-22542436D01*
X12952206Y-22542436D02*
X12961729Y-22551960D01*
X12961729Y-22551960D02*
X12980777Y-22561484D01*
X12980777Y-22561484D02*
X13018872Y-22561484D01*
X13018872Y-22561484D02*
X13037920Y-22551960D01*
X13037920Y-22551960D02*
X13047444Y-22542436D01*
X13047444Y-22542436D02*
X13056967Y-22523388D01*
X13056967Y-22523388D02*
X13056967Y-22475769D01*
X13056967Y-22475769D02*
X13047444Y-22456722D01*
X13047444Y-22456722D02*
X13037920Y-22447198D01*
X13037920Y-22447198D02*
X13018872Y-22437674D01*
X13018872Y-22437674D02*
X12980777Y-22437674D01*
X12980777Y-22437674D02*
X12961729Y-22447198D01*
X12961729Y-22447198D02*
X12952206Y-22456722D01*
X12952206Y-22456722D02*
X12942682Y-22475769D01*
X13228396Y-22361484D02*
X13190301Y-22361484D01*
X13190301Y-22361484D02*
X13171253Y-22371008D01*
X13171253Y-22371008D02*
X13161729Y-22380531D01*
X13161729Y-22380531D02*
X13142682Y-22409103D01*
X13142682Y-22409103D02*
X13133158Y-22447198D01*
X13133158Y-22447198D02*
X13133158Y-22523388D01*
X13133158Y-22523388D02*
X13142682Y-22542436D01*
X13142682Y-22542436D02*
X13152206Y-22551960D01*
X13152206Y-22551960D02*
X13171253Y-22561484D01*
X13171253Y-22561484D02*
X13209348Y-22561484D01*
X13209348Y-22561484D02*
X13228396Y-22551960D01*
X13228396Y-22551960D02*
X13237920Y-22542436D01*
X13237920Y-22542436D02*
X13247444Y-22523388D01*
X13247444Y-22523388D02*
X13247444Y-22475769D01*
X13247444Y-22475769D02*
X13237920Y-22456722D01*
X13237920Y-22456722D02*
X13228396Y-22447198D01*
X13228396Y-22447198D02*
X13209348Y-22437674D01*
X13209348Y-22437674D02*
X13171253Y-22437674D01*
X13171253Y-22437674D02*
X13152206Y-22447198D01*
X13152206Y-22447198D02*
X13142682Y-22456722D01*
X13142682Y-22456722D02*
X13133158Y-22475769D01*
X13323634Y-22361484D02*
X13323634Y-22399579D01*
X13399825Y-22361484D02*
X13399825Y-22399579D01*
X13695063Y-22637674D02*
X13685539Y-22628150D01*
X13685539Y-22628150D02*
X13666491Y-22599579D01*
X13666491Y-22599579D02*
X13656968Y-22580531D01*
X13656968Y-22580531D02*
X13647444Y-22551960D01*
X13647444Y-22551960D02*
X13637920Y-22504341D01*
X13637920Y-22504341D02*
X13637920Y-22466246D01*
X13637920Y-22466246D02*
X13647444Y-22418627D01*
X13647444Y-22418627D02*
X13656968Y-22390055D01*
X13656968Y-22390055D02*
X13666491Y-22371008D01*
X13666491Y-22371008D02*
X13685539Y-22342436D01*
X13685539Y-22342436D02*
X13695063Y-22332912D01*
X13761729Y-22380531D02*
X13771253Y-22371008D01*
X13771253Y-22371008D02*
X13790301Y-22361484D01*
X13790301Y-22361484D02*
X13837920Y-22361484D01*
X13837920Y-22361484D02*
X13856968Y-22371008D01*
X13856968Y-22371008D02*
X13866491Y-22380531D01*
X13866491Y-22380531D02*
X13876015Y-22399579D01*
X13876015Y-22399579D02*
X13876015Y-22418627D01*
X13876015Y-22418627D02*
X13866491Y-22447198D01*
X13866491Y-22447198D02*
X13752206Y-22561484D01*
X13752206Y-22561484D02*
X13876015Y-22561484D01*
X14114110Y-22561484D02*
X14114110Y-22361484D01*
X14199825Y-22561484D02*
X14199825Y-22456722D01*
X14199825Y-22456722D02*
X14190301Y-22437674D01*
X14190301Y-22437674D02*
X14171253Y-22428150D01*
X14171253Y-22428150D02*
X14142682Y-22428150D01*
X14142682Y-22428150D02*
X14123634Y-22437674D01*
X14123634Y-22437674D02*
X14114110Y-22447198D01*
X14323634Y-22561484D02*
X14304587Y-22551960D01*
X14304587Y-22551960D02*
X14295063Y-22542436D01*
X14295063Y-22542436D02*
X14285539Y-22523388D01*
X14285539Y-22523388D02*
X14285539Y-22466246D01*
X14285539Y-22466246D02*
X14295063Y-22447198D01*
X14295063Y-22447198D02*
X14304587Y-22437674D01*
X14304587Y-22437674D02*
X14323634Y-22428150D01*
X14323634Y-22428150D02*
X14352206Y-22428150D01*
X14352206Y-22428150D02*
X14371253Y-22437674D01*
X14371253Y-22437674D02*
X14380777Y-22447198D01*
X14380777Y-22447198D02*
X14390301Y-22466246D01*
X14390301Y-22466246D02*
X14390301Y-22523388D01*
X14390301Y-22523388D02*
X14380777Y-22542436D01*
X14380777Y-22542436D02*
X14371253Y-22551960D01*
X14371253Y-22551960D02*
X14352206Y-22561484D01*
X14352206Y-22561484D02*
X14323634Y-22561484D01*
X14504587Y-22561484D02*
X14485539Y-22551960D01*
X14485539Y-22551960D02*
X14476015Y-22532912D01*
X14476015Y-22532912D02*
X14476015Y-22361484D01*
X14656968Y-22551960D02*
X14637920Y-22561484D01*
X14637920Y-22561484D02*
X14599825Y-22561484D01*
X14599825Y-22561484D02*
X14580777Y-22551960D01*
X14580777Y-22551960D02*
X14571253Y-22532912D01*
X14571253Y-22532912D02*
X14571253Y-22456722D01*
X14571253Y-22456722D02*
X14580777Y-22437674D01*
X14580777Y-22437674D02*
X14599825Y-22428150D01*
X14599825Y-22428150D02*
X14637920Y-22428150D01*
X14637920Y-22428150D02*
X14656968Y-22437674D01*
X14656968Y-22437674D02*
X14666491Y-22456722D01*
X14666491Y-22456722D02*
X14666491Y-22475769D01*
X14666491Y-22475769D02*
X14571253Y-22494817D01*
X14742682Y-22551960D02*
X14761730Y-22561484D01*
X14761730Y-22561484D02*
X14799825Y-22561484D01*
X14799825Y-22561484D02*
X14818872Y-22551960D01*
X14818872Y-22551960D02*
X14828396Y-22532912D01*
X14828396Y-22532912D02*
X14828396Y-22523388D01*
X14828396Y-22523388D02*
X14818872Y-22504341D01*
X14818872Y-22504341D02*
X14799825Y-22494817D01*
X14799825Y-22494817D02*
X14771253Y-22494817D01*
X14771253Y-22494817D02*
X14752206Y-22485293D01*
X14752206Y-22485293D02*
X14742682Y-22466246D01*
X14742682Y-22466246D02*
X14742682Y-22456722D01*
X14742682Y-22456722D02*
X14752206Y-22437674D01*
X14752206Y-22437674D02*
X14771253Y-22428150D01*
X14771253Y-22428150D02*
X14799825Y-22428150D01*
X14799825Y-22428150D02*
X14818872Y-22437674D01*
X14895063Y-22637674D02*
X14904587Y-22628150D01*
X14904587Y-22628150D02*
X14923634Y-22599579D01*
X14923634Y-22599579D02*
X14933158Y-22580531D01*
X14933158Y-22580531D02*
X14942682Y-22551960D01*
X14942682Y-22551960D02*
X14952206Y-22504341D01*
X14952206Y-22504341D02*
X14952206Y-22466246D01*
X14952206Y-22466246D02*
X14942682Y-22418627D01*
X14942682Y-22418627D02*
X14933158Y-22390055D01*
X14933158Y-22390055D02*
X14923634Y-22371008D01*
X14923634Y-22371008D02*
X14904587Y-22342436D01*
X14904587Y-22342436D02*
X14895063Y-22332912D01*
X15256968Y-22637674D02*
X15247444Y-22628150D01*
X15247444Y-22628150D02*
X15228396Y-22599579D01*
X15228396Y-22599579D02*
X15218872Y-22580531D01*
X15218872Y-22580531D02*
X15209349Y-22551960D01*
X15209349Y-22551960D02*
X15199825Y-22504341D01*
X15199825Y-22504341D02*
X15199825Y-22466246D01*
X15199825Y-22466246D02*
X15209349Y-22418627D01*
X15209349Y-22418627D02*
X15218872Y-22390055D01*
X15218872Y-22390055D02*
X15228396Y-22371008D01*
X15228396Y-22371008D02*
X15247444Y-22342436D01*
X15247444Y-22342436D02*
X15256968Y-22332912D01*
X15333158Y-22428150D02*
X15333158Y-22561484D01*
X15333158Y-22447198D02*
X15342682Y-22437674D01*
X15342682Y-22437674D02*
X15361730Y-22428150D01*
X15361730Y-22428150D02*
X15390301Y-22428150D01*
X15390301Y-22428150D02*
X15409349Y-22437674D01*
X15409349Y-22437674D02*
X15418872Y-22456722D01*
X15418872Y-22456722D02*
X15418872Y-22561484D01*
X15542682Y-22561484D02*
X15523634Y-22551960D01*
X15523634Y-22551960D02*
X15514111Y-22542436D01*
X15514111Y-22542436D02*
X15504587Y-22523388D01*
X15504587Y-22523388D02*
X15504587Y-22466246D01*
X15504587Y-22466246D02*
X15514111Y-22447198D01*
X15514111Y-22447198D02*
X15523634Y-22437674D01*
X15523634Y-22437674D02*
X15542682Y-22428150D01*
X15542682Y-22428150D02*
X15571253Y-22428150D01*
X15571253Y-22428150D02*
X15590301Y-22437674D01*
X15590301Y-22437674D02*
X15599825Y-22447198D01*
X15599825Y-22447198D02*
X15609349Y-22466246D01*
X15609349Y-22466246D02*
X15609349Y-22523388D01*
X15609349Y-22523388D02*
X15599825Y-22542436D01*
X15599825Y-22542436D02*
X15590301Y-22551960D01*
X15590301Y-22551960D02*
X15571253Y-22561484D01*
X15571253Y-22561484D02*
X15542682Y-22561484D01*
X15666492Y-22428150D02*
X15742682Y-22428150D01*
X15695063Y-22361484D02*
X15695063Y-22532912D01*
X15695063Y-22532912D02*
X15704587Y-22551960D01*
X15704587Y-22551960D02*
X15723634Y-22561484D01*
X15723634Y-22561484D02*
X15742682Y-22561484D01*
X15961730Y-22428150D02*
X15961730Y-22628150D01*
X15961730Y-22437674D02*
X15980777Y-22428150D01*
X15980777Y-22428150D02*
X16018873Y-22428150D01*
X16018873Y-22428150D02*
X16037920Y-22437674D01*
X16037920Y-22437674D02*
X16047444Y-22447198D01*
X16047444Y-22447198D02*
X16056968Y-22466246D01*
X16056968Y-22466246D02*
X16056968Y-22523388D01*
X16056968Y-22523388D02*
X16047444Y-22542436D01*
X16047444Y-22542436D02*
X16037920Y-22551960D01*
X16037920Y-22551960D02*
X16018873Y-22561484D01*
X16018873Y-22561484D02*
X15980777Y-22561484D01*
X15980777Y-22561484D02*
X15961730Y-22551960D01*
X16171253Y-22561484D02*
X16152206Y-22551960D01*
X16152206Y-22551960D02*
X16142682Y-22532912D01*
X16142682Y-22532912D02*
X16142682Y-22361484D01*
X16333158Y-22561484D02*
X16333158Y-22456722D01*
X16333158Y-22456722D02*
X16323634Y-22437674D01*
X16323634Y-22437674D02*
X16304587Y-22428150D01*
X16304587Y-22428150D02*
X16266492Y-22428150D01*
X16266492Y-22428150D02*
X16247444Y-22437674D01*
X16333158Y-22551960D02*
X16314111Y-22561484D01*
X16314111Y-22561484D02*
X16266492Y-22561484D01*
X16266492Y-22561484D02*
X16247444Y-22551960D01*
X16247444Y-22551960D02*
X16237920Y-22532912D01*
X16237920Y-22532912D02*
X16237920Y-22513865D01*
X16237920Y-22513865D02*
X16247444Y-22494817D01*
X16247444Y-22494817D02*
X16266492Y-22485293D01*
X16266492Y-22485293D02*
X16314111Y-22485293D01*
X16314111Y-22485293D02*
X16333158Y-22475769D01*
X16399825Y-22428150D02*
X16476015Y-22428150D01*
X16428396Y-22361484D02*
X16428396Y-22532912D01*
X16428396Y-22532912D02*
X16437920Y-22551960D01*
X16437920Y-22551960D02*
X16456968Y-22561484D01*
X16456968Y-22561484D02*
X16476015Y-22561484D01*
X16618873Y-22551960D02*
X16599825Y-22561484D01*
X16599825Y-22561484D02*
X16561730Y-22561484D01*
X16561730Y-22561484D02*
X16542682Y-22551960D01*
X16542682Y-22551960D02*
X16533158Y-22532912D01*
X16533158Y-22532912D02*
X16533158Y-22456722D01*
X16533158Y-22456722D02*
X16542682Y-22437674D01*
X16542682Y-22437674D02*
X16561730Y-22428150D01*
X16561730Y-22428150D02*
X16599825Y-22428150D01*
X16599825Y-22428150D02*
X16618873Y-22437674D01*
X16618873Y-22437674D02*
X16628396Y-22456722D01*
X16628396Y-22456722D02*
X16628396Y-22475769D01*
X16628396Y-22475769D02*
X16533158Y-22494817D01*
X16799825Y-22561484D02*
X16799825Y-22361484D01*
X16799825Y-22551960D02*
X16780777Y-22561484D01*
X16780777Y-22561484D02*
X16742682Y-22561484D01*
X16742682Y-22561484D02*
X16723634Y-22551960D01*
X16723634Y-22551960D02*
X16714111Y-22542436D01*
X16714111Y-22542436D02*
X16704587Y-22523388D01*
X16704587Y-22523388D02*
X16704587Y-22466246D01*
X16704587Y-22466246D02*
X16714111Y-22447198D01*
X16714111Y-22447198D02*
X16723634Y-22437674D01*
X16723634Y-22437674D02*
X16742682Y-22428150D01*
X16742682Y-22428150D02*
X16780777Y-22428150D01*
X16780777Y-22428150D02*
X16799825Y-22437674D01*
X16876016Y-22637674D02*
X16885539Y-22628150D01*
X16885539Y-22628150D02*
X16904587Y-22599579D01*
X16904587Y-22599579D02*
X16914111Y-22580531D01*
X16914111Y-22580531D02*
X16923635Y-22551960D01*
X16923635Y-22551960D02*
X16933158Y-22504341D01*
X16933158Y-22504341D02*
X16933158Y-22466246D01*
X16933158Y-22466246D02*
X16923635Y-22418627D01*
X16923635Y-22418627D02*
X16914111Y-22390055D01*
X16914111Y-22390055D02*
X16904587Y-22371008D01*
X16904587Y-22371008D02*
X16885539Y-22342436D01*
X16885539Y-22342436D02*
X16876016Y-22332912D01*
M02*
