G04 #@! TF.GenerationSoftware,KiCad,Pcbnew,7.0.8*
G04 #@! TF.CreationDate,2024-09-22T22:05:25-04:00*
G04 #@! TF.ProjectId,lichen-bifocals-control-board,6c696368-656e-42d6-9269-666f63616c73,1.0*
G04 #@! TF.SameCoordinates,Original*
G04 #@! TF.FileFunction,Copper,L2,Bot*
G04 #@! TF.FilePolarity,Positive*
%FSLAX46Y46*%
G04 Gerber Fmt 4.6, Leading zero omitted, Abs format (unit mm)*
G04 Created by KiCad (PCBNEW 7.0.8) date 2024-09-22 22:05:25*
%MOMM*%
%LPD*%
G01*
G04 APERTURE LIST*
G04 #@! TA.AperFunction,ComponentPad*
%ADD10C,1.650000*%
G04 #@! TD*
G04 #@! TA.AperFunction,ComponentPad*
%ADD11R,1.650000X1.650000*%
G04 #@! TD*
G04 #@! TA.AperFunction,ComponentPad*
%ADD12R,3.116000X3.116000*%
G04 #@! TD*
G04 #@! TA.AperFunction,ComponentPad*
%ADD13C,1.219200*%
G04 #@! TD*
G04 #@! TA.AperFunction,ComponentPad*
%ADD14C,1.879600*%
G04 #@! TD*
G04 #@! TA.AperFunction,ComponentPad*
%ADD15O,1.700000X1.700000*%
G04 #@! TD*
G04 #@! TA.AperFunction,ViaPad*
%ADD16C,0.800000*%
G04 #@! TD*
G04 #@! TA.AperFunction,Conductor*
%ADD17C,0.250000*%
G04 #@! TD*
G04 #@! TA.AperFunction,Conductor*
%ADD18C,0.500000*%
G04 #@! TD*
G04 APERTURE END LIST*
D10*
X134004000Y-216929000D03*
X134004000Y-213929000D03*
X134004000Y-205429000D03*
X106297000Y-203077000D03*
X106297000Y-200077000D03*
X106297000Y-191577000D03*
D11*
X129087000Y-173284000D03*
D10*
X131587000Y-173284000D03*
X134087000Y-173284000D03*
D12*
X127087000Y-166284000D03*
X136087000Y-166284000D03*
D11*
X111272000Y-131176000D03*
D10*
X113772000Y-131176000D03*
X116272000Y-131176000D03*
D12*
X109272000Y-124176000D03*
X118272000Y-124176000D03*
D11*
X117650000Y-159203000D03*
D10*
X120150000Y-159203000D03*
X122650000Y-159203000D03*
D12*
X115650000Y-152203000D03*
X124650000Y-152203000D03*
D10*
X120150000Y-216929000D03*
X120150000Y-213929000D03*
X120150000Y-205429000D03*
D11*
X106316000Y-173284000D03*
D10*
X108816000Y-173284000D03*
X111316000Y-173284000D03*
D12*
X104316000Y-166284000D03*
X113316000Y-166284000D03*
D10*
X120150000Y-189223000D03*
X120150000Y-186223000D03*
X120150000Y-177723000D03*
X120150000Y-203077000D03*
X120150000Y-200077000D03*
X120150000Y-191577000D03*
X134004000Y-189223000D03*
X134004000Y-186223000D03*
X134004000Y-177723000D03*
X134004000Y-203077000D03*
X134004000Y-200077000D03*
X134004000Y-191577000D03*
D11*
X129087000Y-145057000D03*
D10*
X131587000Y-145057000D03*
X134087000Y-145057000D03*
D12*
X127087000Y-138057000D03*
X136087000Y-138057000D03*
D10*
X106297000Y-216929000D03*
X106297000Y-213929000D03*
X106297000Y-205429000D03*
D13*
X118880000Y-166284000D03*
X121420000Y-166284000D03*
D10*
X106297000Y-189223000D03*
X106297000Y-186223000D03*
X106297000Y-177723000D03*
D14*
X105564800Y-142909400D03*
X112067200Y-142909400D03*
X105564800Y-147430600D03*
X112067200Y-147430600D03*
D15*
X125230000Y-174720000D03*
X125230000Y-172180000D03*
X122690000Y-174720000D03*
X122690000Y-172180000D03*
X120150000Y-174720000D03*
X120150000Y-172180000D03*
X117610000Y-174720000D03*
X117610000Y-172180000D03*
X115070000Y-174720000D03*
X115070000Y-172180000D03*
X125230000Y-114690000D03*
X125230000Y-112150000D03*
X122690000Y-114690000D03*
X122690000Y-112150000D03*
X120150000Y-114690000D03*
X120150000Y-112150000D03*
X117610000Y-114690000D03*
X117610000Y-112150000D03*
X115070000Y-114690000D03*
X115070000Y-112150000D03*
D16*
X123690000Y-139780000D03*
X122160000Y-118330000D03*
X129080000Y-169650000D03*
X121550000Y-141920000D03*
X127270000Y-145750000D03*
X127300000Y-160120000D03*
X124860000Y-162580000D03*
X132530000Y-152630000D03*
X122930000Y-162340000D03*
X118770000Y-136050000D03*
X122360000Y-132530000D03*
X113610000Y-179210000D03*
X128330000Y-177670000D03*
D17*
X123690000Y-139780000D02*
X121550000Y-141920000D01*
X129087000Y-169657000D02*
X129080000Y-169650000D01*
X122160000Y-118330000D02*
X122160000Y-116700000D01*
X122160000Y-116700000D02*
X120150000Y-114690000D01*
X129087000Y-173284000D02*
X129087000Y-169657000D01*
X119705000Y-129184620D02*
X115780000Y-125259620D01*
X119705000Y-136140305D02*
X119705000Y-129184620D01*
X115780000Y-116520000D02*
X117610000Y-114690000D01*
X118880000Y-136965305D02*
X119705000Y-136140305D01*
X118880000Y-166284000D02*
X118880000Y-136965305D01*
X115780000Y-125259620D02*
X115780000Y-116520000D01*
X115070000Y-200349000D02*
X115070000Y-174720000D01*
X120150000Y-205429000D02*
X115070000Y-200349000D01*
X127190000Y-145750000D02*
X127300000Y-145860000D01*
X127300000Y-160120000D02*
X127300000Y-160030000D01*
X124860000Y-162580000D02*
X123830000Y-163610000D01*
X127300000Y-145860000D02*
X127300000Y-160120000D01*
X123830000Y-163610000D02*
X123830000Y-170780000D01*
X127270000Y-145750000D02*
X127190000Y-145750000D01*
X123830000Y-170780000D02*
X125230000Y-172180000D01*
X127270000Y-145830000D02*
X127270000Y-145830000D01*
X127270000Y-145830000D02*
X127270000Y-145750000D01*
X120126000Y-177723000D02*
X122690000Y-175159000D01*
X122690000Y-175159000D02*
X122690000Y-174720000D01*
X122930000Y-162340000D02*
X122690000Y-162580000D01*
X132535000Y-146005000D02*
X131587000Y-145057000D01*
X132535000Y-152735000D02*
X132535000Y-152635000D01*
X132535000Y-152635000D02*
X132530000Y-152630000D01*
X132530000Y-152630000D02*
X132535000Y-152625000D01*
X122690000Y-162580000D02*
X122690000Y-172180000D01*
X132535000Y-152625000D02*
X132535000Y-146005000D01*
X120150000Y-159203000D02*
X120150000Y-172180000D01*
X120150000Y-191577000D02*
X116120000Y-187547000D01*
X116120000Y-187547000D02*
X116120000Y-176210000D01*
X116120000Y-176210000D02*
X117610000Y-174720000D01*
X115070000Y-114690000D02*
X111050000Y-114690000D01*
X111274204Y-142909400D02*
X111670702Y-142512902D01*
X105564800Y-120175200D02*
X105564800Y-142909400D01*
X111050000Y-114690000D02*
X105564800Y-120175200D01*
X113660000Y-136050000D02*
X118770000Y-136050000D01*
X122360000Y-132530000D02*
X123865000Y-131025000D01*
X108360000Y-211865000D02*
X108360000Y-193641000D01*
X123865000Y-131025000D02*
X123865000Y-113515000D01*
X118770000Y-136050000D02*
X118770000Y-136030000D01*
X106296000Y-191577000D02*
X106593000Y-191577000D01*
X123865000Y-113515000D02*
X125230000Y-112150000D01*
X106296000Y-213929000D02*
X108360000Y-211865000D01*
X109850000Y-139860000D02*
X113660000Y-136050000D01*
X112490000Y-185680000D02*
X112490000Y-170500000D01*
X106593000Y-191577000D02*
X112490000Y-185680000D01*
X118770000Y-136030000D02*
X118670000Y-136130000D01*
X109850000Y-167860000D02*
X109850000Y-139860000D01*
X108360000Y-193641000D02*
X106296000Y-191577000D01*
X112490000Y-170500000D02*
X109850000Y-167860000D01*
X127020000Y-172169620D02*
X124480000Y-169629620D01*
X125585000Y-164210380D02*
X125585000Y-162279695D01*
X127020000Y-198445000D02*
X127020000Y-172169620D01*
X120155000Y-151283620D02*
X120155000Y-117015000D01*
X120155000Y-117015000D02*
X118785000Y-115645000D01*
X134004000Y-205429000D02*
X127020000Y-198445000D01*
X118785000Y-113325000D02*
X117610000Y-112150000D01*
X125570000Y-156698620D02*
X120155000Y-151283620D01*
X118785000Y-115645000D02*
X118785000Y-113325000D01*
X124480000Y-169629620D02*
X124480000Y-165315380D01*
X125585000Y-162279695D02*
X125570000Y-162264695D01*
X124480000Y-165315380D02*
X125585000Y-164210380D01*
X125570000Y-162264695D02*
X125570000Y-156698620D01*
D18*
X136040000Y-143030000D02*
X130237000Y-137227000D01*
X133680000Y-154560000D02*
X136040000Y-152200000D01*
X133680000Y-172410000D02*
X133680000Y-154560000D01*
X130237000Y-137227000D02*
X130237000Y-119697000D01*
X130237000Y-119697000D02*
X125230000Y-114690000D01*
X136040000Y-152200000D02*
X136040000Y-143030000D01*
X133750000Y-172480000D02*
X133680000Y-172410000D01*
D17*
X113640000Y-172180000D02*
X115070000Y-172180000D01*
X131587000Y-173284000D02*
X131587000Y-174441000D01*
X112940000Y-172880000D02*
X113640000Y-172180000D01*
X112940000Y-178540000D02*
X112940000Y-172880000D01*
X113610000Y-179210000D02*
X112940000Y-178540000D01*
X131587000Y-174441000D02*
X128358000Y-177670000D01*
X128330000Y-177698000D02*
X128428000Y-177600000D01*
X128330000Y-177670000D02*
X128330000Y-177698000D01*
X128358000Y-177670000D02*
X128330000Y-177670000D01*
M02*
