G04 #@! TF.GenerationSoftware,KiCad,Pcbnew,7.0.8*
G04 #@! TF.CreationDate,2024-09-22T22:21:13-04:00*
G04 #@! TF.ProjectId,lichen-passive-mutes-board,6c696368-656e-42d7-9061-73736976652d,1.0*
G04 #@! TF.SameCoordinates,Original*
G04 #@! TF.FileFunction,Copper,L2,Bot*
G04 #@! TF.FilePolarity,Positive*
%FSLAX46Y46*%
G04 Gerber Fmt 4.6, Leading zero omitted, Abs format (unit mm)*
G04 Created by KiCad (PCBNEW 7.0.8) date 2024-09-22 22:21:13*
%MOMM*%
%LPD*%
G01*
G04 APERTURE LIST*
G04 #@! TA.AperFunction,ComponentPad*
%ADD10C,1.651000*%
G04 #@! TD*
G04 #@! TA.AperFunction,ComponentPad*
%ADD11C,2.000000*%
G04 #@! TD*
G04 #@! TA.AperFunction,Conductor*
%ADD12C,0.250000*%
G04 #@! TD*
G04 APERTURE END LIST*
D10*
X107440000Y-195000000D03*
X104900000Y-195000000D03*
X102360000Y-195000000D03*
D11*
X104900000Y-135000000D03*
X104900000Y-126500000D03*
X104900000Y-175500000D03*
X104900000Y-164000000D03*
X104900000Y-172500000D03*
X104900000Y-123500000D03*
X104900000Y-112000000D03*
X104900000Y-120500000D03*
D10*
X107440000Y-205250000D03*
X104900000Y-205250000D03*
X102360000Y-205250000D03*
D11*
X104900000Y-149500000D03*
X104900000Y-138000000D03*
X104900000Y-146500000D03*
X104900000Y-187000000D03*
X104900000Y-178500000D03*
X104900000Y-161000000D03*
X104900000Y-152500000D03*
D10*
X107440000Y-215500000D03*
X104900000Y-215500000D03*
X102360000Y-215500000D03*
D12*
X104900000Y-112000000D02*
X107440000Y-114540000D01*
X107440000Y-114540000D02*
X107440000Y-195000000D01*
X103575000Y-162325000D02*
X104900000Y-161000000D01*
X103575000Y-193675000D02*
X103575000Y-162325000D01*
X104900000Y-195000000D02*
X103575000Y-193675000D01*
X104900000Y-215500000D02*
X106050500Y-214349500D01*
X106050500Y-188150500D02*
X104900000Y-187000000D01*
X106050500Y-214349500D02*
X106050500Y-188150500D01*
X101760000Y-146360000D02*
X101760000Y-126640000D01*
X106880000Y-151480000D02*
X104900000Y-149500000D01*
X106880000Y-173520000D02*
X106880000Y-151480000D01*
X104900000Y-175500000D02*
X106880000Y-173520000D01*
X104900000Y-149500000D02*
X101760000Y-146360000D01*
X101760000Y-126640000D02*
X104900000Y-123500000D01*
M02*
