%TF.GenerationSoftware,KiCad,Pcbnew,7.0.8*%
%TF.CreationDate,2024-09-22T22:14:21-04:00*%
%TF.ProjectId,lichen-dev-module,6c696368-656e-42d6-9465-762d6d6f6475,1.0*%
%TF.SameCoordinates,Original*%
%TF.FileFunction,Drillmap*%
%TF.FilePolarity,Positive*%
%FSLAX45Y45*%
G04 Gerber Fmt 4.5, Leading zero omitted, Abs format (unit mm)*
G04 Created by KiCad (PCBNEW 7.0.8) date 2024-09-22 22:14:21*
%MOMM*%
%LPD*%
G01*
G04 APERTURE LIST*
%ADD10C,0.100000*%
%ADD11C,0.200000*%
G04 APERTURE END LIST*
D10*
X10111000Y-11017000D02*
X16969000Y-11017000D01*
X16969000Y-21833000D01*
X10111000Y-21833000D01*
X10111000Y-11017000D01*
D11*
X10366777Y-22149484D02*
X10366777Y-21949484D01*
X10366777Y-21949484D02*
X10414396Y-21949484D01*
X10414396Y-21949484D02*
X10442967Y-21959008D01*
X10442967Y-21959008D02*
X10462015Y-21978055D01*
X10462015Y-21978055D02*
X10471539Y-21997103D01*
X10471539Y-21997103D02*
X10481063Y-22035198D01*
X10481063Y-22035198D02*
X10481063Y-22063770D01*
X10481063Y-22063770D02*
X10471539Y-22101865D01*
X10471539Y-22101865D02*
X10462015Y-22120912D01*
X10462015Y-22120912D02*
X10442967Y-22139960D01*
X10442967Y-22139960D02*
X10414396Y-22149484D01*
X10414396Y-22149484D02*
X10366777Y-22149484D01*
X10566777Y-22149484D02*
X10566777Y-22016150D01*
X10566777Y-22054246D02*
X10576301Y-22035198D01*
X10576301Y-22035198D02*
X10585824Y-22025674D01*
X10585824Y-22025674D02*
X10604872Y-22016150D01*
X10604872Y-22016150D02*
X10623920Y-22016150D01*
X10690586Y-22149484D02*
X10690586Y-22016150D01*
X10690586Y-21949484D02*
X10681063Y-21959008D01*
X10681063Y-21959008D02*
X10690586Y-21968531D01*
X10690586Y-21968531D02*
X10700110Y-21959008D01*
X10700110Y-21959008D02*
X10690586Y-21949484D01*
X10690586Y-21949484D02*
X10690586Y-21968531D01*
X10814396Y-22149484D02*
X10795348Y-22139960D01*
X10795348Y-22139960D02*
X10785824Y-22120912D01*
X10785824Y-22120912D02*
X10785824Y-21949484D01*
X10919158Y-22149484D02*
X10900110Y-22139960D01*
X10900110Y-22139960D02*
X10890586Y-22120912D01*
X10890586Y-22120912D02*
X10890586Y-21949484D01*
X11147729Y-22149484D02*
X11147729Y-21949484D01*
X11147729Y-21949484D02*
X11214396Y-22092341D01*
X11214396Y-22092341D02*
X11281062Y-21949484D01*
X11281062Y-21949484D02*
X11281062Y-22149484D01*
X11462015Y-22149484D02*
X11462015Y-22044722D01*
X11462015Y-22044722D02*
X11452491Y-22025674D01*
X11452491Y-22025674D02*
X11433443Y-22016150D01*
X11433443Y-22016150D02*
X11395348Y-22016150D01*
X11395348Y-22016150D02*
X11376301Y-22025674D01*
X11462015Y-22139960D02*
X11442967Y-22149484D01*
X11442967Y-22149484D02*
X11395348Y-22149484D01*
X11395348Y-22149484D02*
X11376301Y-22139960D01*
X11376301Y-22139960D02*
X11366777Y-22120912D01*
X11366777Y-22120912D02*
X11366777Y-22101865D01*
X11366777Y-22101865D02*
X11376301Y-22082817D01*
X11376301Y-22082817D02*
X11395348Y-22073293D01*
X11395348Y-22073293D02*
X11442967Y-22073293D01*
X11442967Y-22073293D02*
X11462015Y-22063770D01*
X11557253Y-22016150D02*
X11557253Y-22216150D01*
X11557253Y-22025674D02*
X11576301Y-22016150D01*
X11576301Y-22016150D02*
X11614396Y-22016150D01*
X11614396Y-22016150D02*
X11633443Y-22025674D01*
X11633443Y-22025674D02*
X11642967Y-22035198D01*
X11642967Y-22035198D02*
X11652491Y-22054246D01*
X11652491Y-22054246D02*
X11652491Y-22111389D01*
X11652491Y-22111389D02*
X11642967Y-22130436D01*
X11642967Y-22130436D02*
X11633443Y-22139960D01*
X11633443Y-22139960D02*
X11614396Y-22149484D01*
X11614396Y-22149484D02*
X11576301Y-22149484D01*
X11576301Y-22149484D02*
X11557253Y-22139960D01*
X11738205Y-22130436D02*
X11747729Y-22139960D01*
X11747729Y-22139960D02*
X11738205Y-22149484D01*
X11738205Y-22149484D02*
X11728682Y-22139960D01*
X11728682Y-22139960D02*
X11738205Y-22130436D01*
X11738205Y-22130436D02*
X11738205Y-22149484D01*
X11738205Y-22025674D02*
X11747729Y-22035198D01*
X11747729Y-22035198D02*
X11738205Y-22044722D01*
X11738205Y-22044722D02*
X11728682Y-22035198D01*
X11728682Y-22035198D02*
X11738205Y-22025674D01*
X11738205Y-22025674D02*
X11738205Y-22044722D01*
M02*
