M48
; DRILL file {KiCad 9.0.6} date 2025-12-17T11:16:36-0500
; FORMAT={-:-/ absolute / inch / decimal}
; #@! TF.CreationDate,2025-12-17T11:16:36-05:00
; #@! TF.GenerationSoftware,Kicad,Pcbnew,9.0.6
; #@! TF.FileFunction,NonPlated,1,2,NPTH
FMAT,2
INCH
; #@! TA.AperFunction,NonPlated,NPTH,ComponentDrill
T1C0.1260
; #@! TA.AperFunction,NonPlated,NPTH,ComponentDrill
T2C0.2520
; #@! TA.AperFunction,NonPlated,NPTH,ComponentDrill
T3C0.2559
; #@! TA.AperFunction,NonPlated,NPTH,ComponentDrill
T4C0.2913
%
G90
G05
T2
X4.1929Y-7.7559
X4.1929Y-8.2677
X4.685Y-7.7559
X4.685Y-8.2677
X5.1772Y-7.7559
X5.1772Y-8.2677
X5.6693Y-7.7559
X5.6693Y-8.2677
T3
X4.252Y-6.7126
X4.685Y-6.9961
X5.1772Y-6.9961
X5.6102Y-6.7126
T4
X4.252Y-4.7244
X4.252Y-5.7283
X4.9311Y-5.2264
X4.9311Y-6.2303
X5.6102Y-4.7244
X5.6102Y-5.7283
T1
G00X4.2165Y-4.0551
M15
G01X4.248Y-4.0551
M16
G05
G00X4.2165Y-8.878
M15
G01X4.248Y-8.878
M16
G05
G00X5.6165Y-4.0551
M15
G01X5.648Y-4.0551
M16
G05
G00X5.6831Y-8.878
M15
G01X5.7146Y-8.878
M16
G05
M30
