%TF.GenerationSoftware,KiCad,Pcbnew,9.0.8*%
%TF.CreationDate,2026-04-07T13:03:43-04:00*%
%TF.ProjectId,lichen-stereo-latencies-controls,6c696368-656e-42d7-9374-6572656f2d6c,rev?*%
%TF.SameCoordinates,Original*%
%TF.FileFunction,Legend,Bot*%
%TF.FilePolarity,Positive*%
%FSLAX46Y46*%
G04 Gerber Fmt 4.6, Leading zero omitted, Abs format (unit mm)*
G04 Created by KiCad (PCBNEW 9.0.8) date 2026-04-07 13:03:43*
%MOMM*%
%LPD*%
G01*
G04 APERTURE LIST*
G04 Aperture macros list*
%AMRoundRect*
0 Rectangle with rounded corners*
0 $1 Rounding radius*
0 $2 $3 $4 $5 $6 $7 $8 $9 X,Y pos of 4 corners*
0 Add a 4 corners polygon primitive as box body*
4,1,4,$2,$3,$4,$5,$6,$7,$8,$9,$2,$3,0*
0 Add four circle primitives for the rounded corners*
1,1,$1+$1,$2,$3*
1,1,$1+$1,$4,$5*
1,1,$1+$1,$6,$7*
1,1,$1+$1,$8,$9*
0 Add four rect primitives between the rounded corners*
20,1,$1+$1,$2,$3,$4,$5,0*
20,1,$1+$1,$4,$5,$6,$7,0*
20,1,$1+$1,$6,$7,$8,$9,0*
20,1,$1+$1,$8,$9,$2,$3,0*%
G04 Aperture macros list end*
%ADD10C,0.400000*%
%ADD11C,0.150000*%
%ADD12C,0.120000*%
%ADD13R,2.000000X2.000000*%
%ADD14C,2.000000*%
%ADD15RoundRect,0.076200X-1.400000X1.400000X-1.400000X-1.400000X1.400000X-1.400000X1.400000X1.400000X0*%
%ADD16R,1.800000X1.800000*%
%ADD17C,1.800000*%
%ADD18C,2.200000*%
%ADD19R,1.700000X1.700000*%
%ADD20C,1.700000*%
G04 APERTURE END LIST*
D10*
X105070000Y-132710000D02*
G75*
G02*
X104670000Y-132710000I-200000J0D01*
G01*
X104670000Y-132710000D02*
G75*
G02*
X105070000Y-132710000I200000J0D01*
G01*
X105190000Y-110860000D02*
G75*
G02*
X104790000Y-110860000I-200000J0D01*
G01*
X104790000Y-110860000D02*
G75*
G02*
X105190000Y-110860000I200000J0D01*
G01*
D11*
X102953333Y-113534819D02*
X102953333Y-114249104D01*
X102953333Y-114249104D02*
X103000952Y-114391961D01*
X103000952Y-114391961D02*
X103096190Y-114487200D01*
X103096190Y-114487200D02*
X103239047Y-114534819D01*
X103239047Y-114534819D02*
X103334285Y-114534819D01*
X101953333Y-114534819D02*
X102524761Y-114534819D01*
X102239047Y-114534819D02*
X102239047Y-113534819D01*
X102239047Y-113534819D02*
X102334285Y-113677676D01*
X102334285Y-113677676D02*
X102429523Y-113772914D01*
X102429523Y-113772914D02*
X102524761Y-113820533D01*
D12*
%TO.C,J1*%
X103620000Y-111430000D02*
X103620000Y-112810000D01*
X103620000Y-114080000D02*
X103620000Y-116730000D01*
X103620000Y-116730000D02*
X116540000Y-116730000D01*
X105000000Y-111430000D02*
X103620000Y-111430000D01*
X106270000Y-111430000D02*
X106270000Y-114080000D01*
X106270000Y-111430000D02*
X116540000Y-111430000D01*
X106270000Y-114080000D02*
X103620000Y-114080000D01*
X116540000Y-111430000D02*
X116540000Y-116730000D01*
%TO.C,J2*%
X103620000Y-133320000D02*
X103620000Y-134700000D01*
X103620000Y-135970000D02*
X103620000Y-138620000D01*
X103620000Y-138620000D02*
X116540000Y-138620000D01*
X105000000Y-133320000D02*
X103620000Y-133320000D01*
X106270000Y-133320000D02*
X106270000Y-135970000D01*
X106270000Y-133320000D02*
X116540000Y-133320000D01*
X106270000Y-135970000D02*
X103620000Y-135970000D01*
X116540000Y-133320000D02*
X116540000Y-138620000D01*
%TD*%
%LPC*%
D13*
%TO.C,J7*%
X105000000Y-190270000D03*
D14*
X105000000Y-201670000D03*
X105000000Y-193370000D03*
%TD*%
D15*
%TO.C,RV1*%
X105250000Y-121500000D03*
X114750000Y-121500000D03*
D16*
X107500000Y-129000000D03*
D17*
X110000000Y-129000000D03*
X112500000Y-129000000D03*
X107500000Y-131500000D03*
X110000000Y-131500000D03*
X112500000Y-131500000D03*
%TD*%
D13*
%TO.C,J4*%
X105000000Y-175270000D03*
D14*
X105000000Y-186670000D03*
X105000000Y-178370000D03*
%TD*%
D18*
%TO.C,H2*%
X110000000Y-205000000D03*
%TD*%
D13*
%TO.C,J8*%
X115000000Y-190270000D03*
D14*
X115000000Y-201670000D03*
X115000000Y-193370000D03*
%TD*%
D13*
%TO.C,J6*%
X115000000Y-160270000D03*
D14*
X115000000Y-171670000D03*
X115000000Y-163370000D03*
%TD*%
D18*
%TO.C,H1*%
X110000000Y-158750000D03*
%TD*%
D13*
%TO.C,J3*%
X105000000Y-160270000D03*
D14*
X105000000Y-171670000D03*
X105000000Y-163370000D03*
%TD*%
D13*
%TO.C,J9*%
X105000000Y-205270000D03*
D14*
X105000000Y-216670000D03*
X105000000Y-208370000D03*
%TD*%
D13*
%TO.C,J10*%
X115000000Y-205270000D03*
D14*
X115000000Y-216670000D03*
X115000000Y-208370000D03*
%TD*%
D15*
%TO.C,RV2*%
X105250000Y-144500000D03*
X114750000Y-144500000D03*
D16*
X107500000Y-152000000D03*
D17*
X110000000Y-152000000D03*
X112500000Y-152000000D03*
X107500000Y-154500000D03*
X110000000Y-154500000D03*
X112500000Y-154500000D03*
%TD*%
D13*
%TO.C,J5*%
X115000000Y-175270000D03*
D14*
X115000000Y-186670000D03*
X115000000Y-178370000D03*
%TD*%
D19*
%TO.C,J1*%
X105000000Y-112810000D03*
D20*
X105000000Y-115350000D03*
X107540000Y-112810000D03*
X107540000Y-115350000D03*
X110080000Y-112810000D03*
X110080000Y-115350000D03*
X112620000Y-112810000D03*
X112620000Y-115350000D03*
X115160000Y-112810000D03*
X115160000Y-115350000D03*
%TD*%
D19*
%TO.C,J2*%
X105000000Y-134700000D03*
D20*
X105000000Y-137240000D03*
X107540000Y-134700000D03*
X107540000Y-137240000D03*
X110080000Y-134700000D03*
X110080000Y-137240000D03*
X112620000Y-134700000D03*
X112620000Y-137240000D03*
X115160000Y-134700000D03*
X115160000Y-137240000D03*
%TD*%
%LPD*%
M02*
