%TF.GenerationSoftware,KiCad,Pcbnew,7.0.8*%
%TF.CreationDate,2024-09-22T22:09:26-04:00*%
%TF.ProjectId,lichen-bifocals-panel,6c696368-656e-42d6-9269-666f63616c73,rev?*%
%TF.SameCoordinates,Original*%
%TF.FileFunction,Drillmap*%
%TF.FilePolarity,Positive*%
%FSLAX45Y45*%
G04 Gerber Fmt 4.5, Leading zero omitted, Abs format (unit mm)*
G04 Created by KiCad (PCBNEW 7.0.8) date 2024-09-22 22:09:26*
%MOMM*%
%LPD*%
G01*
G04 APERTURE LIST*
%ADD10C,0.100000*%
%ADD11C,0.200000*%
G04 APERTURE END LIST*
D10*
X10000000Y-10000000D02*
X14030000Y-10000000D01*
X14030000Y-22850000D01*
X10000000Y-22850000D01*
X10000000Y-10000000D01*
D11*
X10255777Y-23166484D02*
X10255777Y-22966484D01*
X10255777Y-22966484D02*
X10303396Y-22966484D01*
X10303396Y-22966484D02*
X10331967Y-22976008D01*
X10331967Y-22976008D02*
X10351015Y-22995055D01*
X10351015Y-22995055D02*
X10360539Y-23014103D01*
X10360539Y-23014103D02*
X10370063Y-23052198D01*
X10370063Y-23052198D02*
X10370063Y-23080769D01*
X10370063Y-23080769D02*
X10360539Y-23118865D01*
X10360539Y-23118865D02*
X10351015Y-23137912D01*
X10351015Y-23137912D02*
X10331967Y-23156960D01*
X10331967Y-23156960D02*
X10303396Y-23166484D01*
X10303396Y-23166484D02*
X10255777Y-23166484D01*
X10455777Y-23166484D02*
X10455777Y-23033150D01*
X10455777Y-23071246D02*
X10465301Y-23052198D01*
X10465301Y-23052198D02*
X10474824Y-23042674D01*
X10474824Y-23042674D02*
X10493872Y-23033150D01*
X10493872Y-23033150D02*
X10512920Y-23033150D01*
X10579586Y-23166484D02*
X10579586Y-23033150D01*
X10579586Y-22966484D02*
X10570063Y-22976008D01*
X10570063Y-22976008D02*
X10579586Y-22985531D01*
X10579586Y-22985531D02*
X10589110Y-22976008D01*
X10589110Y-22976008D02*
X10579586Y-22966484D01*
X10579586Y-22966484D02*
X10579586Y-22985531D01*
X10703396Y-23166484D02*
X10684348Y-23156960D01*
X10684348Y-23156960D02*
X10674824Y-23137912D01*
X10674824Y-23137912D02*
X10674824Y-22966484D01*
X10808158Y-23166484D02*
X10789110Y-23156960D01*
X10789110Y-23156960D02*
X10779586Y-23137912D01*
X10779586Y-23137912D02*
X10779586Y-22966484D01*
X11036729Y-23166484D02*
X11036729Y-22966484D01*
X11036729Y-22966484D02*
X11103396Y-23109341D01*
X11103396Y-23109341D02*
X11170063Y-22966484D01*
X11170063Y-22966484D02*
X11170063Y-23166484D01*
X11351015Y-23166484D02*
X11351015Y-23061722D01*
X11351015Y-23061722D02*
X11341491Y-23042674D01*
X11341491Y-23042674D02*
X11322443Y-23033150D01*
X11322443Y-23033150D02*
X11284348Y-23033150D01*
X11284348Y-23033150D02*
X11265301Y-23042674D01*
X11351015Y-23156960D02*
X11331967Y-23166484D01*
X11331967Y-23166484D02*
X11284348Y-23166484D01*
X11284348Y-23166484D02*
X11265301Y-23156960D01*
X11265301Y-23156960D02*
X11255777Y-23137912D01*
X11255777Y-23137912D02*
X11255777Y-23118865D01*
X11255777Y-23118865D02*
X11265301Y-23099817D01*
X11265301Y-23099817D02*
X11284348Y-23090293D01*
X11284348Y-23090293D02*
X11331967Y-23090293D01*
X11331967Y-23090293D02*
X11351015Y-23080769D01*
X11446253Y-23033150D02*
X11446253Y-23233150D01*
X11446253Y-23042674D02*
X11465301Y-23033150D01*
X11465301Y-23033150D02*
X11503396Y-23033150D01*
X11503396Y-23033150D02*
X11522443Y-23042674D01*
X11522443Y-23042674D02*
X11531967Y-23052198D01*
X11531967Y-23052198D02*
X11541491Y-23071246D01*
X11541491Y-23071246D02*
X11541491Y-23128388D01*
X11541491Y-23128388D02*
X11531967Y-23147436D01*
X11531967Y-23147436D02*
X11522443Y-23156960D01*
X11522443Y-23156960D02*
X11503396Y-23166484D01*
X11503396Y-23166484D02*
X11465301Y-23166484D01*
X11465301Y-23166484D02*
X11446253Y-23156960D01*
X11627205Y-23147436D02*
X11636729Y-23156960D01*
X11636729Y-23156960D02*
X11627205Y-23166484D01*
X11627205Y-23166484D02*
X11617682Y-23156960D01*
X11617682Y-23156960D02*
X11627205Y-23147436D01*
X11627205Y-23147436D02*
X11627205Y-23166484D01*
X11627205Y-23042674D02*
X11636729Y-23052198D01*
X11636729Y-23052198D02*
X11627205Y-23061722D01*
X11627205Y-23061722D02*
X11617682Y-23052198D01*
X11617682Y-23052198D02*
X11627205Y-23042674D01*
X11627205Y-23042674D02*
X11627205Y-23061722D01*
M02*
