G04 #@! TF.GenerationSoftware,KiCad,Pcbnew,7.0.8*
G04 #@! TF.CreationDate,2024-09-22T22:09:22-04:00*
G04 #@! TF.ProjectId,lichen-bifocals-panel,6c696368-656e-42d6-9269-666f63616c73,rev?*
G04 #@! TF.SameCoordinates,Original*
G04 #@! TF.FileFunction,Copper,L1,Top*
G04 #@! TF.FilePolarity,Positive*
%FSLAX46Y46*%
G04 Gerber Fmt 4.6, Leading zero omitted, Abs format (unit mm)*
G04 Created by KiCad (PCBNEW 7.0.8) date 2024-09-22 22:09:22*
%MOMM*%
%LPD*%
G01*
G04 APERTURE LIST*
G04 Aperture macros list*
%AMRoundRect*
0 Rectangle with rounded corners*
0 $1 Rounding radius*
0 $2 $3 $4 $5 $6 $7 $8 $9 X,Y pos of 4 corners*
0 Add a 4 corners polygon primitive as box body*
4,1,4,$2,$3,$4,$5,$6,$7,$8,$9,$2,$3,0*
0 Add four circle primitives for the rounded corners*
1,1,$1+$1,$2,$3*
1,1,$1+$1,$4,$5*
1,1,$1+$1,$6,$7*
1,1,$1+$1,$8,$9*
0 Add four rect primitives between the rounded corners*
20,1,$1+$1,$2,$3,$4,$5,0*
20,1,$1+$1,$4,$5,$6,$7,0*
20,1,$1+$1,$6,$7,$8,$9,0*
20,1,$1+$1,$8,$9,$2,$3,0*%
G04 Aperture macros list end*
G04 #@! TA.AperFunction,WasherPad*
%ADD10C,7.400000*%
G04 #@! TD*
G04 #@! TA.AperFunction,WasherPad*
%ADD11RoundRect,1.600000X0.400000X0.000000X-0.400000X0.000000X-0.400000X0.000000X0.400000X0.000000X0*%
G04 #@! TD*
G04 #@! TA.AperFunction,WasherPad*
%ADD12C,5.100000*%
G04 #@! TD*
G04 #@! TA.AperFunction,WasherPad*
%ADD13RoundRect,1.600000X-0.400000X0.000000X0.400000X0.000000X0.400000X0.000000X-0.400000X0.000000X0*%
G04 #@! TD*
G04 APERTURE END LIST*
D10*
X131587000Y-166284000D03*
X131587000Y-138057000D03*
D11*
X132900000Y-225500000D03*
D12*
X108816000Y-145170000D03*
D10*
X113772000Y-124176000D03*
X108816000Y-166284000D03*
D13*
X107500000Y-103000000D03*
D10*
X120150000Y-152203000D03*
D11*
X132900000Y-103000000D03*
D13*
X107500000Y-225500000D03*
G04 #@! TA.AperFunction,NonConductor*
G36*
X139842539Y-100420185D02*
G01*
X139888294Y-100472989D01*
X139899500Y-100524500D01*
X139899500Y-227975500D01*
X139879815Y-228042539D01*
X139827011Y-228088294D01*
X139775500Y-228099500D01*
X100524500Y-228099500D01*
X100457461Y-228079815D01*
X100411706Y-228027011D01*
X100400500Y-227975500D01*
X100400500Y-225643679D01*
X104999500Y-225643679D01*
X104999985Y-225647210D01*
X105003059Y-225669574D01*
X105003553Y-225674826D01*
X105005630Y-225715304D01*
X105005631Y-225715321D01*
X105023949Y-225821557D01*
X105038629Y-225928359D01*
X105047482Y-225959961D01*
X105048879Y-225966153D01*
X105054453Y-225998480D01*
X105054455Y-225998486D01*
X105087070Y-226101248D01*
X105116156Y-226205058D01*
X105116157Y-226205060D01*
X105129226Y-226235149D01*
X105131454Y-226241094D01*
X105141383Y-226272375D01*
X105141385Y-226272381D01*
X105187685Y-226369736D01*
X105230636Y-226468619D01*
X105230636Y-226468620D01*
X105247691Y-226496667D01*
X105250706Y-226502251D01*
X105264799Y-226531882D01*
X105323927Y-226622030D01*
X105379945Y-226714147D01*
X105392771Y-226729912D01*
X105400653Y-226739601D01*
X105404395Y-226744714D01*
X105422400Y-226772164D01*
X105422402Y-226772167D01*
X105493250Y-226853418D01*
X105561289Y-226937050D01*
X105561291Y-226937052D01*
X105561292Y-226937053D01*
X105585270Y-226959447D01*
X105585278Y-226959454D01*
X105589681Y-226964010D01*
X105611252Y-226988748D01*
X105692497Y-227059590D01*
X105771296Y-227133184D01*
X105771298Y-227133185D01*
X105771302Y-227133189D01*
X105798108Y-227152110D01*
X105803104Y-227156035D01*
X105803109Y-227156039D01*
X105827836Y-227177600D01*
X105917990Y-227236732D01*
X106006064Y-227298901D01*
X106006068Y-227298903D01*
X106035195Y-227313995D01*
X106040675Y-227317200D01*
X106068118Y-227335201D01*
X106165488Y-227381508D01*
X106261203Y-227431104D01*
X106283877Y-227439162D01*
X106292118Y-227442091D01*
X106297986Y-227444522D01*
X106308247Y-227449401D01*
X106327622Y-227458616D01*
X106430384Y-227491231D01*
X106531968Y-227527334D01*
X106531969Y-227527334D01*
X106531971Y-227527335D01*
X106540342Y-227529074D01*
X106564109Y-227534013D01*
X106570221Y-227535613D01*
X106601514Y-227545545D01*
X106707758Y-227563863D01*
X106813314Y-227585798D01*
X106846046Y-227588037D01*
X106852347Y-227588793D01*
X106884692Y-227594370D01*
X106934513Y-227596924D01*
X107004257Y-227600500D01*
X107004264Y-227600500D01*
X107995743Y-227600500D01*
X108115302Y-227594371D01*
X108147643Y-227588795D01*
X108153952Y-227588037D01*
X108163878Y-227587357D01*
X108186686Y-227585798D01*
X108292241Y-227563863D01*
X108398486Y-227545545D01*
X108429765Y-227535617D01*
X108435891Y-227534012D01*
X108468032Y-227527334D01*
X108569615Y-227491231D01*
X108672378Y-227458616D01*
X108702028Y-227444514D01*
X108707865Y-227442096D01*
X108738797Y-227431104D01*
X108834511Y-227381508D01*
X108931882Y-227335201D01*
X108959324Y-227317200D01*
X108964793Y-227314000D01*
X108993936Y-227298901D01*
X109082009Y-227236732D01*
X109172164Y-227177600D01*
X109196898Y-227156031D01*
X109201866Y-227152127D01*
X109228698Y-227133189D01*
X109307502Y-227059590D01*
X109388748Y-226988748D01*
X109410317Y-226964010D01*
X109414718Y-226959456D01*
X109438708Y-226937053D01*
X109506749Y-226853418D01*
X109577600Y-226772164D01*
X109595601Y-226744717D01*
X109599335Y-226739613D01*
X109620055Y-226714147D01*
X109676072Y-226622030D01*
X109735201Y-226531882D01*
X109749297Y-226502241D01*
X109752308Y-226496667D01*
X109762640Y-226479675D01*
X109769361Y-226468626D01*
X109769362Y-226468623D01*
X109812314Y-226369736D01*
X109858611Y-226272388D01*
X109858616Y-226272378D01*
X109868548Y-226241082D01*
X109870765Y-226235165D01*
X109883844Y-226205058D01*
X109912929Y-226101248D01*
X109945545Y-225998486D01*
X109951124Y-225966122D01*
X109952516Y-225959961D01*
X109961371Y-225928358D01*
X109976050Y-225821558D01*
X109994370Y-225715308D01*
X109996445Y-225674825D01*
X109996940Y-225669574D01*
X110000499Y-225643682D01*
X110000500Y-225643681D01*
X110000500Y-225643679D01*
X130399500Y-225643679D01*
X130399985Y-225647210D01*
X130403059Y-225669574D01*
X130403553Y-225674826D01*
X130405630Y-225715304D01*
X130405631Y-225715321D01*
X130423949Y-225821557D01*
X130438629Y-225928359D01*
X130447482Y-225959961D01*
X130448879Y-225966153D01*
X130454453Y-225998480D01*
X130454455Y-225998486D01*
X130487070Y-226101248D01*
X130516156Y-226205058D01*
X130516157Y-226205060D01*
X130529226Y-226235149D01*
X130531454Y-226241094D01*
X130541383Y-226272375D01*
X130541385Y-226272381D01*
X130587685Y-226369736D01*
X130630636Y-226468619D01*
X130630636Y-226468620D01*
X130647691Y-226496667D01*
X130650706Y-226502251D01*
X130664799Y-226531882D01*
X130723927Y-226622030D01*
X130779945Y-226714147D01*
X130792771Y-226729912D01*
X130800653Y-226739601D01*
X130804395Y-226744714D01*
X130822400Y-226772164D01*
X130822402Y-226772167D01*
X130893250Y-226853418D01*
X130961289Y-226937050D01*
X130961291Y-226937052D01*
X130961292Y-226937053D01*
X130985270Y-226959447D01*
X130985278Y-226959454D01*
X130989681Y-226964010D01*
X131011252Y-226988748D01*
X131092497Y-227059590D01*
X131171296Y-227133184D01*
X131171298Y-227133185D01*
X131171302Y-227133189D01*
X131198108Y-227152110D01*
X131203104Y-227156035D01*
X131203109Y-227156039D01*
X131227836Y-227177600D01*
X131317990Y-227236732D01*
X131406064Y-227298901D01*
X131406068Y-227298903D01*
X131435195Y-227313995D01*
X131440675Y-227317200D01*
X131468118Y-227335201D01*
X131565488Y-227381508D01*
X131661203Y-227431104D01*
X131683877Y-227439162D01*
X131692118Y-227442091D01*
X131697986Y-227444522D01*
X131708247Y-227449401D01*
X131727622Y-227458616D01*
X131830384Y-227491231D01*
X131931968Y-227527334D01*
X131931969Y-227527334D01*
X131931971Y-227527335D01*
X131940342Y-227529074D01*
X131964109Y-227534013D01*
X131970221Y-227535613D01*
X132001514Y-227545545D01*
X132107758Y-227563863D01*
X132213314Y-227585798D01*
X132246046Y-227588037D01*
X132252347Y-227588793D01*
X132284692Y-227594370D01*
X132334513Y-227596924D01*
X132404257Y-227600500D01*
X132404264Y-227600500D01*
X133395743Y-227600500D01*
X133515302Y-227594371D01*
X133547643Y-227588795D01*
X133553952Y-227588037D01*
X133563878Y-227587357D01*
X133586686Y-227585798D01*
X133692241Y-227563863D01*
X133798486Y-227545545D01*
X133829765Y-227535617D01*
X133835891Y-227534012D01*
X133868032Y-227527334D01*
X133969615Y-227491231D01*
X134072378Y-227458616D01*
X134102028Y-227444514D01*
X134107865Y-227442096D01*
X134138797Y-227431104D01*
X134234511Y-227381508D01*
X134331882Y-227335201D01*
X134359324Y-227317200D01*
X134364793Y-227314000D01*
X134393936Y-227298901D01*
X134482009Y-227236732D01*
X134572164Y-227177600D01*
X134596898Y-227156031D01*
X134601866Y-227152127D01*
X134628698Y-227133189D01*
X134707502Y-227059590D01*
X134788748Y-226988748D01*
X134810317Y-226964010D01*
X134814718Y-226959456D01*
X134838708Y-226937053D01*
X134906749Y-226853418D01*
X134977600Y-226772164D01*
X134995601Y-226744717D01*
X134999335Y-226739613D01*
X135020055Y-226714147D01*
X135076072Y-226622030D01*
X135135201Y-226531882D01*
X135149297Y-226502241D01*
X135152308Y-226496667D01*
X135162640Y-226479675D01*
X135169361Y-226468626D01*
X135169362Y-226468623D01*
X135212314Y-226369736D01*
X135258611Y-226272388D01*
X135258616Y-226272378D01*
X135268548Y-226241082D01*
X135270765Y-226235165D01*
X135283844Y-226205058D01*
X135312929Y-226101248D01*
X135345545Y-225998486D01*
X135351124Y-225966122D01*
X135352516Y-225959961D01*
X135361371Y-225928358D01*
X135376050Y-225821558D01*
X135394370Y-225715308D01*
X135396445Y-225674825D01*
X135396940Y-225669574D01*
X135400499Y-225643682D01*
X135400500Y-225643681D01*
X135400500Y-225356324D01*
X135396940Y-225330424D01*
X135396445Y-225325173D01*
X135394370Y-225284692D01*
X135376050Y-225178441D01*
X135361371Y-225071642D01*
X135352517Y-225040040D01*
X135351120Y-225033851D01*
X135345545Y-225001514D01*
X135312929Y-224898751D01*
X135283844Y-224794942D01*
X135270765Y-224764832D01*
X135268543Y-224758903D01*
X135258616Y-224727622D01*
X135212314Y-224630263D01*
X135169361Y-224531375D01*
X135152306Y-224503330D01*
X135149293Y-224497749D01*
X135135204Y-224468124D01*
X135135201Y-224468118D01*
X135076072Y-224377969D01*
X135020055Y-224285853D01*
X134999344Y-224260396D01*
X134995595Y-224255272D01*
X134977602Y-224227838D01*
X134906749Y-224146581D01*
X134838712Y-224062952D01*
X134838708Y-224062947D01*
X134814717Y-224040540D01*
X134810317Y-224035989D01*
X134788748Y-224011252D01*
X134707502Y-223940409D01*
X134628701Y-223866813D01*
X134624392Y-223863771D01*
X134601884Y-223847883D01*
X134596900Y-223843969D01*
X134572164Y-223822400D01*
X134482009Y-223763267D01*
X134393936Y-223701099D01*
X134364797Y-223686000D01*
X134359329Y-223682802D01*
X134331882Y-223664799D01*
X134331878Y-223664797D01*
X134331873Y-223664794D01*
X134234511Y-223618491D01*
X134138796Y-223568895D01*
X134138792Y-223568894D01*
X134107874Y-223557905D01*
X134102006Y-223555474D01*
X134072385Y-223541386D01*
X134072380Y-223541385D01*
X134072378Y-223541384D01*
X133969615Y-223508768D01*
X133868044Y-223472670D01*
X133868038Y-223472668D01*
X133868032Y-223472666D01*
X133835903Y-223465988D01*
X133829762Y-223464380D01*
X133798497Y-223454458D01*
X133798489Y-223454456D01*
X133798486Y-223454455D01*
X133798482Y-223454454D01*
X133798481Y-223454454D01*
X133692241Y-223436136D01*
X133586686Y-223414202D01*
X133586681Y-223414201D01*
X133586682Y-223414201D01*
X133553943Y-223411961D01*
X133547647Y-223411205D01*
X133534199Y-223408886D01*
X133515312Y-223405630D01*
X133515297Y-223405628D01*
X133395743Y-223399500D01*
X133395736Y-223399500D01*
X132404264Y-223399500D01*
X132404257Y-223399500D01*
X132284706Y-223405628D01*
X132284678Y-223405631D01*
X132252348Y-223411204D01*
X132246048Y-223411961D01*
X132213319Y-223414201D01*
X132107758Y-223436136D01*
X132001516Y-223454454D01*
X132001502Y-223454458D01*
X131970241Y-223464379D01*
X131964100Y-223465987D01*
X131931980Y-223472662D01*
X131931954Y-223472670D01*
X131830384Y-223508768D01*
X131727618Y-223541385D01*
X131697989Y-223555476D01*
X131692124Y-223557906D01*
X131661200Y-223568897D01*
X131565488Y-223618491D01*
X131468120Y-223664797D01*
X131468112Y-223664802D01*
X131440676Y-223682798D01*
X131435193Y-223686005D01*
X131406064Y-223701098D01*
X131317990Y-223763267D01*
X131227836Y-223822400D01*
X131227827Y-223822406D01*
X131203102Y-223843965D01*
X131198110Y-223847887D01*
X131171311Y-223866803D01*
X131171294Y-223866817D01*
X131092497Y-223940409D01*
X131011258Y-224011246D01*
X131011256Y-224011247D01*
X130989691Y-224035978D01*
X130985280Y-224040542D01*
X130961293Y-224062944D01*
X130961292Y-224062945D01*
X130893250Y-224146581D01*
X130822398Y-224227837D01*
X130822395Y-224227842D01*
X130804403Y-224255273D01*
X130800654Y-224260396D01*
X130779943Y-224285855D01*
X130779941Y-224285858D01*
X130723927Y-224377969D01*
X130664800Y-224468115D01*
X130650706Y-224497747D01*
X130647691Y-224503330D01*
X130630640Y-224531372D01*
X130587685Y-224630263D01*
X130541384Y-224727620D01*
X130541383Y-224727622D01*
X130531454Y-224758904D01*
X130529227Y-224764846D01*
X130516156Y-224794942D01*
X130487070Y-224898751D01*
X130454455Y-225001513D01*
X130448879Y-225033847D01*
X130447482Y-225040040D01*
X130438629Y-225071642D01*
X130438629Y-225071643D01*
X130423949Y-225178442D01*
X130405632Y-225284675D01*
X130405630Y-225284695D01*
X130403555Y-225325151D01*
X130403059Y-225330415D01*
X130399500Y-225356316D01*
X130399500Y-225643679D01*
X110000500Y-225643679D01*
X110000500Y-225356324D01*
X109996940Y-225330424D01*
X109996445Y-225325173D01*
X109994370Y-225284692D01*
X109976050Y-225178441D01*
X109961371Y-225071642D01*
X109952517Y-225040040D01*
X109951120Y-225033851D01*
X109945545Y-225001514D01*
X109912929Y-224898751D01*
X109883844Y-224794942D01*
X109870765Y-224764832D01*
X109868543Y-224758903D01*
X109858616Y-224727622D01*
X109812314Y-224630263D01*
X109769361Y-224531375D01*
X109752306Y-224503330D01*
X109749293Y-224497749D01*
X109735204Y-224468124D01*
X109735201Y-224468118D01*
X109676072Y-224377969D01*
X109620055Y-224285853D01*
X109599344Y-224260396D01*
X109595595Y-224255272D01*
X109577602Y-224227838D01*
X109506749Y-224146581D01*
X109438712Y-224062952D01*
X109438708Y-224062947D01*
X109414717Y-224040540D01*
X109410317Y-224035989D01*
X109388748Y-224011252D01*
X109307502Y-223940409D01*
X109228701Y-223866813D01*
X109224392Y-223863771D01*
X109201884Y-223847883D01*
X109196900Y-223843969D01*
X109172164Y-223822400D01*
X109082009Y-223763267D01*
X108993936Y-223701099D01*
X108964797Y-223686000D01*
X108959329Y-223682802D01*
X108931882Y-223664799D01*
X108931878Y-223664797D01*
X108931873Y-223664794D01*
X108834511Y-223618491D01*
X108738796Y-223568895D01*
X108738792Y-223568894D01*
X108707874Y-223557905D01*
X108702006Y-223555474D01*
X108672385Y-223541386D01*
X108672380Y-223541385D01*
X108672378Y-223541384D01*
X108569615Y-223508768D01*
X108468044Y-223472670D01*
X108468038Y-223472668D01*
X108468032Y-223472666D01*
X108435903Y-223465988D01*
X108429762Y-223464380D01*
X108398497Y-223454458D01*
X108398489Y-223454456D01*
X108398486Y-223454455D01*
X108398482Y-223454454D01*
X108398481Y-223454454D01*
X108292241Y-223436136D01*
X108186686Y-223414202D01*
X108186681Y-223414201D01*
X108186682Y-223414201D01*
X108153943Y-223411961D01*
X108147647Y-223411205D01*
X108134199Y-223408886D01*
X108115312Y-223405630D01*
X108115297Y-223405628D01*
X107995743Y-223399500D01*
X107995736Y-223399500D01*
X107004264Y-223399500D01*
X107004257Y-223399500D01*
X106884706Y-223405628D01*
X106884678Y-223405631D01*
X106852348Y-223411204D01*
X106846048Y-223411961D01*
X106813319Y-223414201D01*
X106707758Y-223436136D01*
X106601516Y-223454454D01*
X106601502Y-223454458D01*
X106570241Y-223464379D01*
X106564100Y-223465987D01*
X106531980Y-223472662D01*
X106531954Y-223472670D01*
X106430384Y-223508768D01*
X106327618Y-223541385D01*
X106297989Y-223555476D01*
X106292124Y-223557906D01*
X106261200Y-223568897D01*
X106165488Y-223618491D01*
X106068120Y-223664797D01*
X106068112Y-223664802D01*
X106040676Y-223682798D01*
X106035193Y-223686005D01*
X106006064Y-223701098D01*
X105917990Y-223763267D01*
X105827836Y-223822400D01*
X105827827Y-223822406D01*
X105803102Y-223843965D01*
X105798110Y-223847887D01*
X105771311Y-223866803D01*
X105771294Y-223866817D01*
X105692497Y-223940409D01*
X105611258Y-224011246D01*
X105611256Y-224011247D01*
X105589691Y-224035978D01*
X105585280Y-224040542D01*
X105561293Y-224062944D01*
X105561292Y-224062945D01*
X105493250Y-224146581D01*
X105422398Y-224227837D01*
X105422395Y-224227842D01*
X105404403Y-224255273D01*
X105400654Y-224260396D01*
X105379943Y-224285855D01*
X105379941Y-224285858D01*
X105323927Y-224377969D01*
X105264800Y-224468115D01*
X105250706Y-224497747D01*
X105247691Y-224503330D01*
X105230640Y-224531372D01*
X105187685Y-224630263D01*
X105141384Y-224727620D01*
X105141383Y-224727622D01*
X105131454Y-224758904D01*
X105129227Y-224764846D01*
X105116156Y-224794942D01*
X105087070Y-224898751D01*
X105054455Y-225001513D01*
X105048879Y-225033847D01*
X105047482Y-225040040D01*
X105038629Y-225071642D01*
X105038629Y-225071643D01*
X105023949Y-225178442D01*
X105005632Y-225284675D01*
X105005630Y-225284695D01*
X105003555Y-225325151D01*
X105003059Y-225330415D01*
X104999500Y-225356316D01*
X104999500Y-225643679D01*
X100400500Y-225643679D01*
X100400500Y-210523112D01*
X102762742Y-210523112D01*
X102792768Y-210898258D01*
X102862500Y-211268077D01*
X102971143Y-211628383D01*
X103117473Y-211975108D01*
X103299824Y-212304307D01*
X103516127Y-212612251D01*
X103516133Y-212612258D01*
X103516138Y-212612265D01*
X103763959Y-212895484D01*
X104040481Y-213150757D01*
X104342569Y-213375191D01*
X104666802Y-213566243D01*
X105009506Y-213721749D01*
X105366798Y-213839947D01*
X105734629Y-213919498D01*
X106108832Y-213959500D01*
X106391019Y-213959500D01*
X106391021Y-213959500D01*
X106474347Y-213955058D01*
X106672788Y-213944483D01*
X106672792Y-213944482D01*
X106672802Y-213944482D01*
X107044346Y-213884620D01*
X107407422Y-213785606D01*
X107757916Y-213648559D01*
X108091858Y-213475034D01*
X108405463Y-213266996D01*
X108695179Y-213026802D01*
X108957722Y-212757174D01*
X109190118Y-212461167D01*
X109389735Y-212142135D01*
X109554309Y-211803692D01*
X109681976Y-211449674D01*
X109771291Y-211084090D01*
X109821240Y-210711085D01*
X109826246Y-210523112D01*
X116615742Y-210523112D01*
X116645768Y-210898258D01*
X116715500Y-211268077D01*
X116824143Y-211628383D01*
X116970473Y-211975108D01*
X117152824Y-212304307D01*
X117369127Y-212612251D01*
X117369133Y-212612258D01*
X117369138Y-212612265D01*
X117616959Y-212895484D01*
X117893481Y-213150757D01*
X118195569Y-213375191D01*
X118519802Y-213566243D01*
X118862506Y-213721749D01*
X119219798Y-213839947D01*
X119587629Y-213919498D01*
X119961832Y-213959500D01*
X120244019Y-213959500D01*
X120244021Y-213959500D01*
X120327347Y-213955058D01*
X120525788Y-213944483D01*
X120525792Y-213944482D01*
X120525802Y-213944482D01*
X120897346Y-213884620D01*
X121260422Y-213785606D01*
X121610916Y-213648559D01*
X121944858Y-213475034D01*
X122258463Y-213266996D01*
X122548179Y-213026802D01*
X122810722Y-212757174D01*
X123043118Y-212461167D01*
X123242735Y-212142135D01*
X123407309Y-211803692D01*
X123534976Y-211449674D01*
X123624291Y-211084090D01*
X123674240Y-210711085D01*
X123679246Y-210523112D01*
X130469742Y-210523112D01*
X130499768Y-210898258D01*
X130569500Y-211268077D01*
X130678143Y-211628383D01*
X130824473Y-211975108D01*
X131006824Y-212304307D01*
X131223127Y-212612251D01*
X131223133Y-212612258D01*
X131223138Y-212612265D01*
X131470959Y-212895484D01*
X131747481Y-213150757D01*
X132049569Y-213375191D01*
X132373802Y-213566243D01*
X132716506Y-213721749D01*
X133073798Y-213839947D01*
X133441629Y-213919498D01*
X133815832Y-213959500D01*
X134098019Y-213959500D01*
X134098021Y-213959500D01*
X134181347Y-213955058D01*
X134379788Y-213944483D01*
X134379792Y-213944482D01*
X134379802Y-213944482D01*
X134751346Y-213884620D01*
X135114422Y-213785606D01*
X135464916Y-213648559D01*
X135798858Y-213475034D01*
X136112463Y-213266996D01*
X136402179Y-213026802D01*
X136664722Y-212757174D01*
X136897118Y-212461167D01*
X137096735Y-212142135D01*
X137261309Y-211803692D01*
X137388976Y-211449674D01*
X137478291Y-211084090D01*
X137528240Y-210711085D01*
X137538258Y-210334883D01*
X137508232Y-209959747D01*
X137438501Y-209589929D01*
X137329856Y-209229617D01*
X137183528Y-208882895D01*
X137091006Y-208715865D01*
X137001175Y-208553692D01*
X136784872Y-208245748D01*
X136784867Y-208245742D01*
X136784862Y-208245735D01*
X136537041Y-207962516D01*
X136260519Y-207707243D01*
X136260517Y-207707241D01*
X135958435Y-207482812D01*
X135958431Y-207482809D01*
X135634198Y-207291757D01*
X135291494Y-207136251D01*
X135291491Y-207136250D01*
X135291489Y-207136249D01*
X134934215Y-207018057D01*
X134934210Y-207018055D01*
X134934202Y-207018053D01*
X134566371Y-206938502D01*
X134566369Y-206938501D01*
X134566367Y-206938501D01*
X134192168Y-206898500D01*
X133909979Y-206898500D01*
X133888735Y-206899632D01*
X133628211Y-206913516D01*
X133628185Y-206913519D01*
X133256656Y-206973379D01*
X133256653Y-206973380D01*
X132893577Y-207072394D01*
X132730265Y-207136251D01*
X132543084Y-207209441D01*
X132543082Y-207209441D01*
X132543082Y-207209442D01*
X132209141Y-207382966D01*
X131895542Y-207590999D01*
X131895533Y-207591006D01*
X131605831Y-207831188D01*
X131605817Y-207831201D01*
X131343274Y-208100829D01*
X131110889Y-208396822D01*
X131110884Y-208396829D01*
X130911267Y-208715862D01*
X130911259Y-208715876D01*
X130746688Y-209054313D01*
X130619022Y-209408331D01*
X130529709Y-209773906D01*
X130529708Y-209773914D01*
X130479761Y-210146908D01*
X130479759Y-210146924D01*
X130469742Y-210523112D01*
X123679246Y-210523112D01*
X123684258Y-210334883D01*
X123654232Y-209959747D01*
X123584501Y-209589929D01*
X123475856Y-209229617D01*
X123329528Y-208882895D01*
X123237006Y-208715865D01*
X123147175Y-208553692D01*
X122930872Y-208245748D01*
X122930867Y-208245742D01*
X122930862Y-208245735D01*
X122683041Y-207962516D01*
X122406519Y-207707243D01*
X122406517Y-207707241D01*
X122104435Y-207482812D01*
X122104431Y-207482809D01*
X121780198Y-207291757D01*
X121437494Y-207136251D01*
X121437491Y-207136250D01*
X121437489Y-207136249D01*
X121080215Y-207018057D01*
X121080210Y-207018055D01*
X121080202Y-207018053D01*
X120712371Y-206938502D01*
X120712369Y-206938501D01*
X120712367Y-206938501D01*
X120338168Y-206898500D01*
X120055979Y-206898500D01*
X120034735Y-206899632D01*
X119774211Y-206913516D01*
X119774185Y-206913519D01*
X119402656Y-206973379D01*
X119402653Y-206973380D01*
X119039577Y-207072394D01*
X118876265Y-207136251D01*
X118689084Y-207209441D01*
X118689082Y-207209441D01*
X118689082Y-207209442D01*
X118355141Y-207382966D01*
X118041542Y-207590999D01*
X118041533Y-207591006D01*
X117751831Y-207831188D01*
X117751817Y-207831201D01*
X117489274Y-208100829D01*
X117256889Y-208396822D01*
X117256884Y-208396829D01*
X117057267Y-208715862D01*
X117057259Y-208715876D01*
X116892688Y-209054313D01*
X116765022Y-209408331D01*
X116675709Y-209773906D01*
X116675708Y-209773914D01*
X116625761Y-210146908D01*
X116625759Y-210146924D01*
X116615742Y-210523112D01*
X109826246Y-210523112D01*
X109831258Y-210334883D01*
X109801232Y-209959747D01*
X109731501Y-209589929D01*
X109622856Y-209229617D01*
X109476528Y-208882895D01*
X109384006Y-208715865D01*
X109294175Y-208553692D01*
X109077872Y-208245748D01*
X109077867Y-208245742D01*
X109077862Y-208245735D01*
X108830041Y-207962516D01*
X108553519Y-207707243D01*
X108553517Y-207707241D01*
X108251435Y-207482812D01*
X108251431Y-207482809D01*
X107927198Y-207291757D01*
X107584494Y-207136251D01*
X107584491Y-207136250D01*
X107584489Y-207136249D01*
X107227215Y-207018057D01*
X107227210Y-207018055D01*
X107227202Y-207018053D01*
X106859371Y-206938502D01*
X106859369Y-206938501D01*
X106859367Y-206938501D01*
X106485168Y-206898500D01*
X106202979Y-206898500D01*
X106181735Y-206899632D01*
X105921211Y-206913516D01*
X105921185Y-206913519D01*
X105549656Y-206973379D01*
X105549653Y-206973380D01*
X105186577Y-207072394D01*
X105023265Y-207136251D01*
X104836084Y-207209441D01*
X104836082Y-207209441D01*
X104836082Y-207209442D01*
X104502141Y-207382966D01*
X104188542Y-207590999D01*
X104188533Y-207591006D01*
X103898831Y-207831188D01*
X103898817Y-207831201D01*
X103636274Y-208100829D01*
X103403889Y-208396822D01*
X103403884Y-208396829D01*
X103204267Y-208715862D01*
X103204259Y-208715876D01*
X103039688Y-209054313D01*
X102912022Y-209408331D01*
X102822709Y-209773906D01*
X102822708Y-209773914D01*
X102772761Y-210146908D01*
X102772759Y-210146924D01*
X102762742Y-210523112D01*
X100400500Y-210523112D01*
X100400500Y-196671112D01*
X102762742Y-196671112D01*
X102792768Y-197046258D01*
X102862500Y-197416077D01*
X102971143Y-197776383D01*
X103117473Y-198123108D01*
X103299824Y-198452307D01*
X103516127Y-198760251D01*
X103516133Y-198760258D01*
X103516138Y-198760265D01*
X103763959Y-199043484D01*
X104040481Y-199298757D01*
X104342569Y-199523191D01*
X104666802Y-199714243D01*
X105009506Y-199869749D01*
X105366798Y-199987947D01*
X105734629Y-200067498D01*
X106108832Y-200107500D01*
X106391019Y-200107500D01*
X106391021Y-200107500D01*
X106474347Y-200103058D01*
X106672788Y-200092483D01*
X106672792Y-200092482D01*
X106672802Y-200092482D01*
X107044346Y-200032620D01*
X107407422Y-199933606D01*
X107757916Y-199796559D01*
X108091858Y-199623034D01*
X108405463Y-199414996D01*
X108695179Y-199174802D01*
X108957722Y-198905174D01*
X109190118Y-198609167D01*
X109389735Y-198290135D01*
X109554309Y-197951692D01*
X109681976Y-197597674D01*
X109771291Y-197232090D01*
X109821240Y-196859085D01*
X109826246Y-196671112D01*
X116615742Y-196671112D01*
X116645768Y-197046258D01*
X116715500Y-197416077D01*
X116824143Y-197776383D01*
X116970473Y-198123108D01*
X117152824Y-198452307D01*
X117369127Y-198760251D01*
X117369133Y-198760258D01*
X117369138Y-198760265D01*
X117616959Y-199043484D01*
X117893481Y-199298757D01*
X118195569Y-199523191D01*
X118519802Y-199714243D01*
X118862506Y-199869749D01*
X119219798Y-199987947D01*
X119587629Y-200067498D01*
X119961832Y-200107500D01*
X120244019Y-200107500D01*
X120244021Y-200107500D01*
X120327347Y-200103058D01*
X120525788Y-200092483D01*
X120525792Y-200092482D01*
X120525802Y-200092482D01*
X120897346Y-200032620D01*
X121260422Y-199933606D01*
X121610916Y-199796559D01*
X121944858Y-199623034D01*
X122258463Y-199414996D01*
X122548179Y-199174802D01*
X122810722Y-198905174D01*
X123043118Y-198609167D01*
X123242735Y-198290135D01*
X123407309Y-197951692D01*
X123534976Y-197597674D01*
X123624291Y-197232090D01*
X123674240Y-196859085D01*
X123679246Y-196671112D01*
X130469742Y-196671112D01*
X130499768Y-197046258D01*
X130569500Y-197416077D01*
X130678143Y-197776383D01*
X130824473Y-198123108D01*
X131006824Y-198452307D01*
X131223127Y-198760251D01*
X131223133Y-198760258D01*
X131223138Y-198760265D01*
X131470959Y-199043484D01*
X131747481Y-199298757D01*
X132049569Y-199523191D01*
X132373802Y-199714243D01*
X132716506Y-199869749D01*
X133073798Y-199987947D01*
X133441629Y-200067498D01*
X133815832Y-200107500D01*
X134098019Y-200107500D01*
X134098021Y-200107500D01*
X134181347Y-200103058D01*
X134379788Y-200092483D01*
X134379792Y-200092482D01*
X134379802Y-200092482D01*
X134751346Y-200032620D01*
X135114422Y-199933606D01*
X135464916Y-199796559D01*
X135798858Y-199623034D01*
X136112463Y-199414996D01*
X136402179Y-199174802D01*
X136664722Y-198905174D01*
X136897118Y-198609167D01*
X137096735Y-198290135D01*
X137261309Y-197951692D01*
X137388976Y-197597674D01*
X137478291Y-197232090D01*
X137528240Y-196859085D01*
X137538258Y-196482883D01*
X137508232Y-196107747D01*
X137438501Y-195737929D01*
X137329856Y-195377617D01*
X137183528Y-195030895D01*
X137091006Y-194863865D01*
X137001175Y-194701692D01*
X136784872Y-194393748D01*
X136784867Y-194393742D01*
X136784862Y-194393735D01*
X136537041Y-194110516D01*
X136260519Y-193855243D01*
X136260517Y-193855241D01*
X135958435Y-193630812D01*
X135958431Y-193630809D01*
X135634198Y-193439757D01*
X135291494Y-193284251D01*
X135291491Y-193284250D01*
X135291489Y-193284249D01*
X134934215Y-193166057D01*
X134934210Y-193166055D01*
X134934202Y-193166053D01*
X134566371Y-193086502D01*
X134566369Y-193086501D01*
X134566367Y-193086501D01*
X134192168Y-193046500D01*
X133909979Y-193046500D01*
X133888735Y-193047632D01*
X133628211Y-193061516D01*
X133628185Y-193061519D01*
X133256656Y-193121379D01*
X133256653Y-193121380D01*
X132893577Y-193220394D01*
X132730265Y-193284251D01*
X132543084Y-193357441D01*
X132543082Y-193357441D01*
X132543082Y-193357442D01*
X132209141Y-193530966D01*
X131895542Y-193738999D01*
X131895533Y-193739006D01*
X131605831Y-193979188D01*
X131605817Y-193979201D01*
X131343274Y-194248829D01*
X131110889Y-194544822D01*
X131110884Y-194544829D01*
X130911267Y-194863862D01*
X130911259Y-194863876D01*
X130746688Y-195202313D01*
X130619022Y-195556331D01*
X130529709Y-195921906D01*
X130529708Y-195921914D01*
X130479761Y-196294908D01*
X130479759Y-196294924D01*
X130469742Y-196671112D01*
X123679246Y-196671112D01*
X123684258Y-196482883D01*
X123654232Y-196107747D01*
X123584501Y-195737929D01*
X123475856Y-195377617D01*
X123329528Y-195030895D01*
X123237006Y-194863865D01*
X123147175Y-194701692D01*
X122930872Y-194393748D01*
X122930867Y-194393742D01*
X122930862Y-194393735D01*
X122683041Y-194110516D01*
X122406519Y-193855243D01*
X122406517Y-193855241D01*
X122104435Y-193630812D01*
X122104431Y-193630809D01*
X121780198Y-193439757D01*
X121437494Y-193284251D01*
X121437491Y-193284250D01*
X121437489Y-193284249D01*
X121080215Y-193166057D01*
X121080210Y-193166055D01*
X121080202Y-193166053D01*
X120712371Y-193086502D01*
X120712369Y-193086501D01*
X120712367Y-193086501D01*
X120338168Y-193046500D01*
X120055979Y-193046500D01*
X120034735Y-193047632D01*
X119774211Y-193061516D01*
X119774185Y-193061519D01*
X119402656Y-193121379D01*
X119402653Y-193121380D01*
X119039577Y-193220394D01*
X118876265Y-193284251D01*
X118689084Y-193357441D01*
X118689082Y-193357441D01*
X118689082Y-193357442D01*
X118355141Y-193530966D01*
X118041542Y-193738999D01*
X118041533Y-193739006D01*
X117751831Y-193979188D01*
X117751817Y-193979201D01*
X117489274Y-194248829D01*
X117256889Y-194544822D01*
X117256884Y-194544829D01*
X117057267Y-194863862D01*
X117057259Y-194863876D01*
X116892688Y-195202313D01*
X116765022Y-195556331D01*
X116675709Y-195921906D01*
X116675708Y-195921914D01*
X116625761Y-196294908D01*
X116625759Y-196294924D01*
X116615742Y-196671112D01*
X109826246Y-196671112D01*
X109831258Y-196482883D01*
X109801232Y-196107747D01*
X109731501Y-195737929D01*
X109622856Y-195377617D01*
X109476528Y-195030895D01*
X109384006Y-194863865D01*
X109294175Y-194701692D01*
X109077872Y-194393748D01*
X109077867Y-194393742D01*
X109077862Y-194393735D01*
X108830041Y-194110516D01*
X108553519Y-193855243D01*
X108553517Y-193855241D01*
X108251435Y-193630812D01*
X108251431Y-193630809D01*
X107927198Y-193439757D01*
X107584494Y-193284251D01*
X107584491Y-193284250D01*
X107584489Y-193284249D01*
X107227215Y-193166057D01*
X107227210Y-193166055D01*
X107227202Y-193166053D01*
X106859371Y-193086502D01*
X106859369Y-193086501D01*
X106859367Y-193086501D01*
X106485168Y-193046500D01*
X106202979Y-193046500D01*
X106181735Y-193047632D01*
X105921211Y-193061516D01*
X105921185Y-193061519D01*
X105549656Y-193121379D01*
X105549653Y-193121380D01*
X105186577Y-193220394D01*
X105023265Y-193284251D01*
X104836084Y-193357441D01*
X104836082Y-193357441D01*
X104836082Y-193357442D01*
X104502141Y-193530966D01*
X104188542Y-193738999D01*
X104188533Y-193739006D01*
X103898831Y-193979188D01*
X103898817Y-193979201D01*
X103636274Y-194248829D01*
X103403889Y-194544822D01*
X103403884Y-194544829D01*
X103204267Y-194863862D01*
X103204259Y-194863876D01*
X103039688Y-195202313D01*
X102912022Y-195556331D01*
X102822709Y-195921906D01*
X102822708Y-195921914D01*
X102772761Y-196294908D01*
X102772759Y-196294924D01*
X102762742Y-196671112D01*
X100400500Y-196671112D01*
X100400500Y-182817112D01*
X102762742Y-182817112D01*
X102792768Y-183192258D01*
X102862500Y-183562077D01*
X102971143Y-183922383D01*
X103117473Y-184269108D01*
X103299824Y-184598307D01*
X103516127Y-184906251D01*
X103516133Y-184906258D01*
X103516138Y-184906265D01*
X103763959Y-185189484D01*
X104040481Y-185444757D01*
X104342569Y-185669191D01*
X104666802Y-185860243D01*
X105009506Y-186015749D01*
X105366798Y-186133947D01*
X105734629Y-186213498D01*
X106108832Y-186253500D01*
X106391019Y-186253500D01*
X106391021Y-186253500D01*
X106474347Y-186249058D01*
X106672788Y-186238483D01*
X106672792Y-186238482D01*
X106672802Y-186238482D01*
X107044346Y-186178620D01*
X107407422Y-186079606D01*
X107757916Y-185942559D01*
X108091858Y-185769034D01*
X108405463Y-185560996D01*
X108695179Y-185320802D01*
X108957722Y-185051174D01*
X109190118Y-184755167D01*
X109389735Y-184436135D01*
X109554309Y-184097692D01*
X109681976Y-183743674D01*
X109771291Y-183378090D01*
X109821240Y-183005085D01*
X109826246Y-182817112D01*
X116615742Y-182817112D01*
X116645768Y-183192258D01*
X116715500Y-183562077D01*
X116824143Y-183922383D01*
X116970473Y-184269108D01*
X117152824Y-184598307D01*
X117369127Y-184906251D01*
X117369133Y-184906258D01*
X117369138Y-184906265D01*
X117616959Y-185189484D01*
X117893481Y-185444757D01*
X118195569Y-185669191D01*
X118519802Y-185860243D01*
X118862506Y-186015749D01*
X119219798Y-186133947D01*
X119587629Y-186213498D01*
X119961832Y-186253500D01*
X120244019Y-186253500D01*
X120244021Y-186253500D01*
X120327347Y-186249058D01*
X120525788Y-186238483D01*
X120525792Y-186238482D01*
X120525802Y-186238482D01*
X120897346Y-186178620D01*
X121260422Y-186079606D01*
X121610916Y-185942559D01*
X121944858Y-185769034D01*
X122258463Y-185560996D01*
X122548179Y-185320802D01*
X122810722Y-185051174D01*
X123043118Y-184755167D01*
X123242735Y-184436135D01*
X123407309Y-184097692D01*
X123534976Y-183743674D01*
X123624291Y-183378090D01*
X123674240Y-183005085D01*
X123679246Y-182817112D01*
X130469742Y-182817112D01*
X130499768Y-183192258D01*
X130569500Y-183562077D01*
X130678143Y-183922383D01*
X130824473Y-184269108D01*
X131006824Y-184598307D01*
X131223127Y-184906251D01*
X131223133Y-184906258D01*
X131223138Y-184906265D01*
X131470959Y-185189484D01*
X131747481Y-185444757D01*
X132049569Y-185669191D01*
X132373802Y-185860243D01*
X132716506Y-186015749D01*
X133073798Y-186133947D01*
X133441629Y-186213498D01*
X133815832Y-186253500D01*
X134098019Y-186253500D01*
X134098021Y-186253500D01*
X134181347Y-186249058D01*
X134379788Y-186238483D01*
X134379792Y-186238482D01*
X134379802Y-186238482D01*
X134751346Y-186178620D01*
X135114422Y-186079606D01*
X135464916Y-185942559D01*
X135798858Y-185769034D01*
X136112463Y-185560996D01*
X136402179Y-185320802D01*
X136664722Y-185051174D01*
X136897118Y-184755167D01*
X137096735Y-184436135D01*
X137261309Y-184097692D01*
X137388976Y-183743674D01*
X137478291Y-183378090D01*
X137528240Y-183005085D01*
X137538258Y-182628883D01*
X137508232Y-182253747D01*
X137438501Y-181883929D01*
X137329856Y-181523617D01*
X137183528Y-181176895D01*
X137091006Y-181009865D01*
X137001175Y-180847692D01*
X136784872Y-180539748D01*
X136784867Y-180539742D01*
X136784862Y-180539735D01*
X136537041Y-180256516D01*
X136260519Y-180001243D01*
X136260517Y-180001241D01*
X135958435Y-179776812D01*
X135958431Y-179776809D01*
X135634198Y-179585757D01*
X135291494Y-179430251D01*
X135291491Y-179430250D01*
X135291489Y-179430249D01*
X134934215Y-179312057D01*
X134934210Y-179312055D01*
X134934202Y-179312053D01*
X134566371Y-179232502D01*
X134566369Y-179232501D01*
X134566367Y-179232501D01*
X134192168Y-179192500D01*
X133909979Y-179192500D01*
X133888735Y-179193632D01*
X133628211Y-179207516D01*
X133628185Y-179207519D01*
X133256656Y-179267379D01*
X133256653Y-179267380D01*
X132893577Y-179366394D01*
X132730265Y-179430251D01*
X132543084Y-179503441D01*
X132543082Y-179503441D01*
X132543082Y-179503442D01*
X132209141Y-179676966D01*
X131895542Y-179884999D01*
X131895533Y-179885006D01*
X131605831Y-180125188D01*
X131605817Y-180125201D01*
X131343274Y-180394829D01*
X131110889Y-180690822D01*
X131110884Y-180690829D01*
X130911267Y-181009862D01*
X130911259Y-181009876D01*
X130746688Y-181348313D01*
X130619022Y-181702331D01*
X130529709Y-182067906D01*
X130529708Y-182067914D01*
X130479761Y-182440908D01*
X130479759Y-182440924D01*
X130469742Y-182817112D01*
X123679246Y-182817112D01*
X123684258Y-182628883D01*
X123654232Y-182253747D01*
X123584501Y-181883929D01*
X123475856Y-181523617D01*
X123329528Y-181176895D01*
X123237006Y-181009865D01*
X123147175Y-180847692D01*
X122930872Y-180539748D01*
X122930867Y-180539742D01*
X122930862Y-180539735D01*
X122683041Y-180256516D01*
X122406519Y-180001243D01*
X122406517Y-180001241D01*
X122104435Y-179776812D01*
X122104431Y-179776809D01*
X121780198Y-179585757D01*
X121437494Y-179430251D01*
X121437491Y-179430250D01*
X121437489Y-179430249D01*
X121080215Y-179312057D01*
X121080210Y-179312055D01*
X121080202Y-179312053D01*
X120712371Y-179232502D01*
X120712369Y-179232501D01*
X120712367Y-179232501D01*
X120338168Y-179192500D01*
X120055979Y-179192500D01*
X120034735Y-179193632D01*
X119774211Y-179207516D01*
X119774185Y-179207519D01*
X119402656Y-179267379D01*
X119402653Y-179267380D01*
X119039577Y-179366394D01*
X118876265Y-179430251D01*
X118689084Y-179503441D01*
X118689082Y-179503441D01*
X118689082Y-179503442D01*
X118355141Y-179676966D01*
X118041542Y-179884999D01*
X118041533Y-179885006D01*
X117751831Y-180125188D01*
X117751817Y-180125201D01*
X117489274Y-180394829D01*
X117256889Y-180690822D01*
X117256884Y-180690829D01*
X117057267Y-181009862D01*
X117057259Y-181009876D01*
X116892688Y-181348313D01*
X116765022Y-181702331D01*
X116675709Y-182067906D01*
X116675708Y-182067914D01*
X116625761Y-182440908D01*
X116625759Y-182440924D01*
X116615742Y-182817112D01*
X109826246Y-182817112D01*
X109831258Y-182628883D01*
X109801232Y-182253747D01*
X109731501Y-181883929D01*
X109622856Y-181523617D01*
X109476528Y-181176895D01*
X109384006Y-181009865D01*
X109294175Y-180847692D01*
X109077872Y-180539748D01*
X109077867Y-180539742D01*
X109077862Y-180539735D01*
X108830041Y-180256516D01*
X108553519Y-180001243D01*
X108553517Y-180001241D01*
X108251435Y-179776812D01*
X108251431Y-179776809D01*
X107927198Y-179585757D01*
X107584494Y-179430251D01*
X107584491Y-179430250D01*
X107584489Y-179430249D01*
X107227215Y-179312057D01*
X107227210Y-179312055D01*
X107227202Y-179312053D01*
X106859371Y-179232502D01*
X106859369Y-179232501D01*
X106859367Y-179232501D01*
X106485168Y-179192500D01*
X106202979Y-179192500D01*
X106181735Y-179193632D01*
X105921211Y-179207516D01*
X105921185Y-179207519D01*
X105549656Y-179267379D01*
X105549653Y-179267380D01*
X105186577Y-179366394D01*
X105023265Y-179430251D01*
X104836084Y-179503441D01*
X104836082Y-179503441D01*
X104836082Y-179503442D01*
X104502141Y-179676966D01*
X104188542Y-179884999D01*
X104188533Y-179885006D01*
X103898831Y-180125188D01*
X103898817Y-180125201D01*
X103636274Y-180394829D01*
X103403889Y-180690822D01*
X103403884Y-180690829D01*
X103204267Y-181009862D01*
X103204259Y-181009876D01*
X103039688Y-181348313D01*
X102912022Y-181702331D01*
X102822709Y-182067906D01*
X102822708Y-182067914D01*
X102772761Y-182440908D01*
X102772759Y-182440924D01*
X102762742Y-182817112D01*
X100400500Y-182817112D01*
X100400500Y-166284000D01*
X104610434Y-166284000D01*
X104630685Y-166696218D01*
X104688802Y-167088012D01*
X104691244Y-167104471D01*
X104791527Y-167504821D01*
X104930555Y-167893379D01*
X104930562Y-167893395D01*
X104930564Y-167893400D01*
X105107022Y-168266490D01*
X105107024Y-168266493D01*
X105319198Y-168620484D01*
X105565058Y-168951988D01*
X105842215Y-169257784D01*
X106148011Y-169534941D01*
X106148017Y-169534946D01*
X106479513Y-169780800D01*
X106833510Y-169992978D01*
X107206600Y-170169436D01*
X107206609Y-170169439D01*
X107206620Y-170169444D01*
X107567738Y-170298654D01*
X107595189Y-170308476D01*
X107995535Y-170408757D01*
X108403782Y-170469315D01*
X108816000Y-170489566D01*
X109228218Y-170469315D01*
X109636465Y-170408757D01*
X110036811Y-170308476D01*
X110217380Y-170243866D01*
X110425379Y-170169444D01*
X110425385Y-170169441D01*
X110425400Y-170169436D01*
X110798490Y-169992978D01*
X111152487Y-169780800D01*
X111483983Y-169534946D01*
X111789784Y-169257784D01*
X112066946Y-168951983D01*
X112312800Y-168620487D01*
X112524978Y-168266490D01*
X112701436Y-167893400D01*
X112840476Y-167504811D01*
X112940757Y-167104465D01*
X113001315Y-166696218D01*
X113021566Y-166284001D01*
X118214569Y-166284001D01*
X118234269Y-166559442D01*
X118234270Y-166559449D01*
X118264023Y-166696218D01*
X118292968Y-166829274D01*
X118352884Y-166989917D01*
X118389470Y-167088008D01*
X118389472Y-167088012D01*
X118521808Y-167330367D01*
X118521813Y-167330375D01*
X118687292Y-167551430D01*
X118687308Y-167551448D01*
X118882551Y-167746691D01*
X118882569Y-167746707D01*
X119103624Y-167912186D01*
X119103632Y-167912191D01*
X119345987Y-168044527D01*
X119345991Y-168044529D01*
X119345993Y-168044530D01*
X119604726Y-168141032D01*
X119874559Y-168199731D01*
X120081056Y-168214500D01*
X120218944Y-168214500D01*
X120425441Y-168199731D01*
X120695274Y-168141032D01*
X120954007Y-168044530D01*
X121196373Y-167912188D01*
X121417438Y-167746701D01*
X121612701Y-167551438D01*
X121778188Y-167330373D01*
X121910530Y-167088007D01*
X122007032Y-166829274D01*
X122065731Y-166559441D01*
X122085431Y-166284000D01*
X127381434Y-166284000D01*
X127401685Y-166696218D01*
X127459802Y-167088012D01*
X127462244Y-167104471D01*
X127562527Y-167504821D01*
X127701555Y-167893379D01*
X127701562Y-167893395D01*
X127701564Y-167893400D01*
X127878022Y-168266490D01*
X127878024Y-168266493D01*
X128090198Y-168620484D01*
X128336058Y-168951988D01*
X128613215Y-169257784D01*
X128919011Y-169534941D01*
X128919017Y-169534946D01*
X129250513Y-169780800D01*
X129604510Y-169992978D01*
X129977600Y-170169436D01*
X129977609Y-170169439D01*
X129977620Y-170169444D01*
X130338738Y-170298654D01*
X130366189Y-170308476D01*
X130766535Y-170408757D01*
X131174782Y-170469315D01*
X131587000Y-170489566D01*
X131999218Y-170469315D01*
X132407465Y-170408757D01*
X132807811Y-170308476D01*
X132988380Y-170243866D01*
X133196379Y-170169444D01*
X133196385Y-170169441D01*
X133196400Y-170169436D01*
X133569490Y-169992978D01*
X133923487Y-169780800D01*
X134254983Y-169534946D01*
X134560784Y-169257784D01*
X134837946Y-168951983D01*
X135083800Y-168620487D01*
X135295978Y-168266490D01*
X135472436Y-167893400D01*
X135611476Y-167504811D01*
X135711757Y-167104465D01*
X135772315Y-166696218D01*
X135792566Y-166284000D01*
X135772315Y-165871782D01*
X135711757Y-165463535D01*
X135611476Y-165063189D01*
X135594789Y-165016551D01*
X135472444Y-164674620D01*
X135472437Y-164674604D01*
X135472436Y-164674600D01*
X135295978Y-164301510D01*
X135083800Y-163947513D01*
X134837946Y-163616017D01*
X134837941Y-163616011D01*
X134560784Y-163310215D01*
X134254988Y-163033058D01*
X133923484Y-162787198D01*
X133569493Y-162575024D01*
X133569494Y-162575024D01*
X133569490Y-162575022D01*
X133196400Y-162398564D01*
X133196396Y-162398562D01*
X133196395Y-162398562D01*
X133196379Y-162398555D01*
X132807821Y-162259527D01*
X132807815Y-162259525D01*
X132807811Y-162259524D01*
X132609205Y-162209776D01*
X132407471Y-162159244D01*
X132407466Y-162159243D01*
X132407465Y-162159243D01*
X132306577Y-162144277D01*
X131999227Y-162098686D01*
X131999223Y-162098685D01*
X131999218Y-162098685D01*
X131587000Y-162078434D01*
X131174782Y-162098685D01*
X131174776Y-162098685D01*
X131174772Y-162098686D01*
X130766528Y-162159244D01*
X130464316Y-162234944D01*
X130366189Y-162259524D01*
X130366186Y-162259524D01*
X130366178Y-162259527D01*
X129977620Y-162398555D01*
X129977604Y-162398562D01*
X129604506Y-162575024D01*
X129250515Y-162787198D01*
X128919011Y-163033058D01*
X128613215Y-163310215D01*
X128336058Y-163616011D01*
X128090198Y-163947515D01*
X127878024Y-164301506D01*
X127701562Y-164674604D01*
X127701555Y-164674620D01*
X127562527Y-165063178D01*
X127462244Y-165463528D01*
X127462243Y-165463535D01*
X127401685Y-165871782D01*
X127381434Y-166284000D01*
X122085431Y-166284000D01*
X122065731Y-166008559D01*
X122007032Y-165738726D01*
X121910530Y-165479993D01*
X121901543Y-165463535D01*
X121778191Y-165237632D01*
X121778186Y-165237624D01*
X121612707Y-165016569D01*
X121612691Y-165016551D01*
X121417448Y-164821308D01*
X121417430Y-164821292D01*
X121196375Y-164655813D01*
X121196367Y-164655808D01*
X120954012Y-164523472D01*
X120954008Y-164523470D01*
X120855917Y-164486884D01*
X120695274Y-164426968D01*
X120695270Y-164426967D01*
X120695267Y-164426966D01*
X120425449Y-164368270D01*
X120425442Y-164368269D01*
X120218944Y-164353500D01*
X120081056Y-164353500D01*
X119874557Y-164368269D01*
X119874550Y-164368270D01*
X119604732Y-164426966D01*
X119604727Y-164426967D01*
X119604726Y-164426968D01*
X119542172Y-164450299D01*
X119345991Y-164523470D01*
X119345987Y-164523472D01*
X119103632Y-164655808D01*
X119103624Y-164655813D01*
X118882569Y-164821292D01*
X118882551Y-164821308D01*
X118687308Y-165016551D01*
X118687292Y-165016569D01*
X118521813Y-165237624D01*
X118521808Y-165237632D01*
X118389472Y-165479987D01*
X118389470Y-165479991D01*
X118292966Y-165738732D01*
X118234270Y-166008550D01*
X118234269Y-166008557D01*
X118214569Y-166283998D01*
X118214569Y-166284001D01*
X113021566Y-166284001D01*
X113021566Y-166284000D01*
X113001315Y-165871782D01*
X112940757Y-165463535D01*
X112840476Y-165063189D01*
X112823789Y-165016551D01*
X112701444Y-164674620D01*
X112701437Y-164674604D01*
X112701436Y-164674600D01*
X112524978Y-164301510D01*
X112312800Y-163947513D01*
X112066946Y-163616017D01*
X112066941Y-163616011D01*
X111789784Y-163310215D01*
X111483988Y-163033058D01*
X111152484Y-162787198D01*
X110798493Y-162575024D01*
X110798494Y-162575024D01*
X110798490Y-162575022D01*
X110425400Y-162398564D01*
X110425396Y-162398562D01*
X110425395Y-162398562D01*
X110425379Y-162398555D01*
X110036821Y-162259527D01*
X110036815Y-162259525D01*
X110036811Y-162259524D01*
X109838205Y-162209776D01*
X109636471Y-162159244D01*
X109636466Y-162159243D01*
X109636465Y-162159243D01*
X109535577Y-162144277D01*
X109228227Y-162098686D01*
X109228223Y-162098685D01*
X109228218Y-162098685D01*
X108816000Y-162078434D01*
X108403782Y-162098685D01*
X108403776Y-162098685D01*
X108403772Y-162098686D01*
X107995528Y-162159244D01*
X107693316Y-162234944D01*
X107595189Y-162259524D01*
X107595186Y-162259524D01*
X107595178Y-162259527D01*
X107206620Y-162398555D01*
X107206604Y-162398562D01*
X106833506Y-162575024D01*
X106479515Y-162787198D01*
X106148011Y-163033058D01*
X105842215Y-163310215D01*
X105565058Y-163616011D01*
X105319198Y-163947515D01*
X105107024Y-164301506D01*
X104930562Y-164674604D01*
X104930555Y-164674620D01*
X104791527Y-165063178D01*
X104691244Y-165463528D01*
X104691243Y-165463535D01*
X104630685Y-165871782D01*
X104610434Y-166284000D01*
X100400500Y-166284000D01*
X100400500Y-152203000D01*
X115944434Y-152203000D01*
X115964685Y-152615218D01*
X115964685Y-152615223D01*
X115964686Y-152615227D01*
X116025244Y-153023471D01*
X116125527Y-153423821D01*
X116264555Y-153812379D01*
X116264562Y-153812395D01*
X116264564Y-153812400D01*
X116441022Y-154185490D01*
X116441024Y-154185493D01*
X116653198Y-154539484D01*
X116899058Y-154870988D01*
X117176215Y-155176784D01*
X117482011Y-155453941D01*
X117482017Y-155453946D01*
X117813513Y-155699800D01*
X118167510Y-155911978D01*
X118540600Y-156088436D01*
X118540609Y-156088439D01*
X118540620Y-156088444D01*
X118901738Y-156217654D01*
X118929189Y-156227476D01*
X119329535Y-156327757D01*
X119737782Y-156388315D01*
X120150000Y-156408566D01*
X120562218Y-156388315D01*
X120970465Y-156327757D01*
X121370811Y-156227476D01*
X121551380Y-156162866D01*
X121759379Y-156088444D01*
X121759385Y-156088441D01*
X121759400Y-156088436D01*
X122132490Y-155911978D01*
X122486487Y-155699800D01*
X122817983Y-155453946D01*
X123123784Y-155176784D01*
X123400946Y-154870983D01*
X123646800Y-154539487D01*
X123858978Y-154185490D01*
X124035436Y-153812400D01*
X124174476Y-153423811D01*
X124274757Y-153023465D01*
X124335315Y-152615218D01*
X124355566Y-152203000D01*
X124335315Y-151790782D01*
X124274757Y-151382535D01*
X124174476Y-150982189D01*
X124164654Y-150954738D01*
X124035444Y-150593620D01*
X124035437Y-150593604D01*
X124035436Y-150593600D01*
X123858978Y-150220510D01*
X123646800Y-149866513D01*
X123400946Y-149535017D01*
X123400941Y-149535011D01*
X123123784Y-149229215D01*
X122817988Y-148952058D01*
X122486484Y-148706198D01*
X122132493Y-148494024D01*
X122132494Y-148494024D01*
X122132490Y-148494022D01*
X121759400Y-148317564D01*
X121759396Y-148317562D01*
X121759395Y-148317562D01*
X121759379Y-148317555D01*
X121370821Y-148178527D01*
X121370815Y-148178525D01*
X121370811Y-148178524D01*
X121172205Y-148128776D01*
X120970471Y-148078244D01*
X120970466Y-148078243D01*
X120970465Y-148078243D01*
X120806042Y-148053853D01*
X120562227Y-148017686D01*
X120562223Y-148017685D01*
X120562218Y-148017685D01*
X120150000Y-147997434D01*
X119737782Y-148017685D01*
X119737776Y-148017685D01*
X119737772Y-148017686D01*
X119329528Y-148078244D01*
X119027316Y-148153944D01*
X118929189Y-148178524D01*
X118929186Y-148178524D01*
X118929178Y-148178527D01*
X118540620Y-148317555D01*
X118540604Y-148317562D01*
X118167506Y-148494024D01*
X117813515Y-148706198D01*
X117482011Y-148952058D01*
X117176215Y-149229215D01*
X116899058Y-149535011D01*
X116653198Y-149866515D01*
X116441024Y-150220506D01*
X116264562Y-150593604D01*
X116264555Y-150593620D01*
X116125527Y-150982178D01*
X116025244Y-151382528D01*
X116025243Y-151382535D01*
X115964685Y-151790782D01*
X115944434Y-152203000D01*
X100400500Y-152203000D01*
X100400500Y-145170000D01*
X105760693Y-145170000D01*
X105779903Y-145512081D01*
X105779904Y-145512086D01*
X105837296Y-145849870D01*
X105932147Y-146179104D01*
X106036108Y-146430087D01*
X106063263Y-146495646D01*
X106228998Y-146795521D01*
X106427269Y-147074959D01*
X106655570Y-147330426D01*
X106655573Y-147330429D01*
X106911040Y-147558730D01*
X106911046Y-147558734D01*
X106911047Y-147558735D01*
X107190479Y-147757002D01*
X107490352Y-147922736D01*
X107806896Y-148053853D01*
X108136130Y-148148704D01*
X108473914Y-148206096D01*
X108816000Y-148225307D01*
X109158086Y-148206096D01*
X109495870Y-148148704D01*
X109825104Y-148053853D01*
X110141648Y-147922736D01*
X110441521Y-147757002D01*
X110720953Y-147558735D01*
X110976428Y-147330428D01*
X111204735Y-147074953D01*
X111403002Y-146795521D01*
X111568736Y-146495648D01*
X111699853Y-146179104D01*
X111794704Y-145849870D01*
X111852096Y-145512086D01*
X111871307Y-145170000D01*
X111852096Y-144827914D01*
X111794704Y-144490130D01*
X111699853Y-144160896D01*
X111568736Y-143844352D01*
X111403002Y-143544479D01*
X111204735Y-143265047D01*
X111204734Y-143265046D01*
X111204730Y-143265040D01*
X110976429Y-143009573D01*
X110976426Y-143009570D01*
X110720959Y-142781269D01*
X110441521Y-142582998D01*
X110141646Y-142417263D01*
X110076087Y-142390108D01*
X109825104Y-142286147D01*
X109740479Y-142261766D01*
X109495875Y-142191297D01*
X109495866Y-142191295D01*
X109158093Y-142133905D01*
X109158081Y-142133903D01*
X108816000Y-142114693D01*
X108473918Y-142133903D01*
X108473906Y-142133905D01*
X108136133Y-142191295D01*
X108136124Y-142191297D01*
X107806899Y-142286146D01*
X107806896Y-142286147D01*
X107714184Y-142324549D01*
X107490353Y-142417263D01*
X107190478Y-142582998D01*
X106911040Y-142781269D01*
X106655573Y-143009570D01*
X106655570Y-143009573D01*
X106427269Y-143265040D01*
X106228998Y-143544478D01*
X106063263Y-143844353D01*
X105932146Y-144160899D01*
X105837297Y-144490124D01*
X105837295Y-144490133D01*
X105779905Y-144827906D01*
X105779903Y-144827918D01*
X105760693Y-145170000D01*
X100400500Y-145170000D01*
X100400500Y-138057000D01*
X127381434Y-138057000D01*
X127401685Y-138469218D01*
X127401685Y-138469223D01*
X127401686Y-138469227D01*
X127462244Y-138877471D01*
X127562527Y-139277821D01*
X127701555Y-139666379D01*
X127701562Y-139666395D01*
X127701564Y-139666400D01*
X127878022Y-140039490D01*
X127878024Y-140039493D01*
X128090198Y-140393484D01*
X128336058Y-140724988D01*
X128613215Y-141030784D01*
X128919011Y-141307941D01*
X128919017Y-141307946D01*
X129250513Y-141553800D01*
X129604510Y-141765978D01*
X129977600Y-141942436D01*
X129977609Y-141942439D01*
X129977620Y-141942444D01*
X130338738Y-142071654D01*
X130366189Y-142081476D01*
X130766535Y-142181757D01*
X131174782Y-142242315D01*
X131587000Y-142262566D01*
X131999218Y-142242315D01*
X132407465Y-142181757D01*
X132807811Y-142081476D01*
X132988380Y-142016866D01*
X133196379Y-141942444D01*
X133196385Y-141942441D01*
X133196400Y-141942436D01*
X133569490Y-141765978D01*
X133923487Y-141553800D01*
X134254983Y-141307946D01*
X134560784Y-141030784D01*
X134837946Y-140724983D01*
X135083800Y-140393487D01*
X135295978Y-140039490D01*
X135472436Y-139666400D01*
X135611476Y-139277811D01*
X135711757Y-138877465D01*
X135772315Y-138469218D01*
X135792566Y-138057000D01*
X135772315Y-137644782D01*
X135711757Y-137236535D01*
X135611476Y-136836189D01*
X135601654Y-136808738D01*
X135472444Y-136447620D01*
X135472437Y-136447604D01*
X135472436Y-136447600D01*
X135295978Y-136074510D01*
X135083800Y-135720513D01*
X134837946Y-135389017D01*
X134837941Y-135389011D01*
X134560784Y-135083215D01*
X134254988Y-134806058D01*
X133923484Y-134560198D01*
X133569493Y-134348024D01*
X133569494Y-134348024D01*
X133569490Y-134348022D01*
X133196400Y-134171564D01*
X133196396Y-134171562D01*
X133196395Y-134171562D01*
X133196379Y-134171555D01*
X132807821Y-134032527D01*
X132807815Y-134032525D01*
X132807811Y-134032524D01*
X132609205Y-133982776D01*
X132407471Y-133932244D01*
X132407466Y-133932243D01*
X132407465Y-133932243D01*
X132306577Y-133917277D01*
X131999227Y-133871686D01*
X131999223Y-133871685D01*
X131999218Y-133871685D01*
X131587000Y-133851434D01*
X131174782Y-133871685D01*
X131174776Y-133871685D01*
X131174772Y-133871686D01*
X130766528Y-133932244D01*
X130464316Y-134007944D01*
X130366189Y-134032524D01*
X130366186Y-134032524D01*
X130366178Y-134032527D01*
X129977620Y-134171555D01*
X129977604Y-134171562D01*
X129604506Y-134348024D01*
X129250515Y-134560198D01*
X128919011Y-134806058D01*
X128613215Y-135083215D01*
X128336058Y-135389011D01*
X128090198Y-135720515D01*
X127878024Y-136074506D01*
X127701562Y-136447604D01*
X127701555Y-136447620D01*
X127562527Y-136836178D01*
X127462244Y-137236528D01*
X127462243Y-137236535D01*
X127401685Y-137644782D01*
X127381434Y-138057000D01*
X100400500Y-138057000D01*
X100400500Y-124176000D01*
X109566434Y-124176000D01*
X109586685Y-124588218D01*
X109586685Y-124588223D01*
X109586686Y-124588227D01*
X109647244Y-124996471D01*
X109747527Y-125396821D01*
X109886555Y-125785379D01*
X109886562Y-125785395D01*
X109886564Y-125785400D01*
X110063022Y-126158490D01*
X110063024Y-126158493D01*
X110275198Y-126512484D01*
X110521058Y-126843988D01*
X110798215Y-127149784D01*
X111104011Y-127426941D01*
X111104017Y-127426946D01*
X111435513Y-127672800D01*
X111789510Y-127884978D01*
X112162600Y-128061436D01*
X112162609Y-128061439D01*
X112162620Y-128061444D01*
X112523738Y-128190654D01*
X112551189Y-128200476D01*
X112951535Y-128300757D01*
X113359782Y-128361315D01*
X113772000Y-128381566D01*
X114184218Y-128361315D01*
X114592465Y-128300757D01*
X114992811Y-128200476D01*
X115173380Y-128135866D01*
X115381379Y-128061444D01*
X115381385Y-128061441D01*
X115381400Y-128061436D01*
X115754490Y-127884978D01*
X116108487Y-127672800D01*
X116439983Y-127426946D01*
X116745784Y-127149784D01*
X117022946Y-126843983D01*
X117268800Y-126512487D01*
X117480978Y-126158490D01*
X117657436Y-125785400D01*
X117796476Y-125396811D01*
X117896757Y-124996465D01*
X117957315Y-124588218D01*
X117977566Y-124176000D01*
X117957315Y-123763782D01*
X117896757Y-123355535D01*
X117796476Y-122955189D01*
X117786654Y-122927738D01*
X117657444Y-122566620D01*
X117657437Y-122566604D01*
X117657436Y-122566600D01*
X117480978Y-122193510D01*
X117268800Y-121839513D01*
X117022946Y-121508017D01*
X117022941Y-121508011D01*
X116745784Y-121202215D01*
X116439988Y-120925058D01*
X116108484Y-120679198D01*
X115754493Y-120467024D01*
X115754494Y-120467024D01*
X115754490Y-120467022D01*
X115381400Y-120290564D01*
X115381396Y-120290562D01*
X115381395Y-120290562D01*
X115381379Y-120290555D01*
X114992821Y-120151527D01*
X114992815Y-120151525D01*
X114992811Y-120151524D01*
X114794205Y-120101776D01*
X114592471Y-120051244D01*
X114592466Y-120051243D01*
X114592465Y-120051243D01*
X114491577Y-120036277D01*
X114184227Y-119990686D01*
X114184223Y-119990685D01*
X114184218Y-119990685D01*
X113772000Y-119970434D01*
X113359782Y-119990685D01*
X113359776Y-119990685D01*
X113359772Y-119990686D01*
X112951528Y-120051244D01*
X112649316Y-120126944D01*
X112551189Y-120151524D01*
X112551186Y-120151524D01*
X112551178Y-120151527D01*
X112162620Y-120290555D01*
X112162604Y-120290562D01*
X111789506Y-120467024D01*
X111435515Y-120679198D01*
X111104011Y-120925058D01*
X110798215Y-121202215D01*
X110521058Y-121508011D01*
X110275198Y-121839515D01*
X110063024Y-122193506D01*
X109886562Y-122566604D01*
X109886555Y-122566620D01*
X109747527Y-122955178D01*
X109647244Y-123355528D01*
X109647243Y-123355535D01*
X109586685Y-123763782D01*
X109566434Y-124176000D01*
X100400500Y-124176000D01*
X100400500Y-103143679D01*
X104999500Y-103143679D01*
X104999985Y-103147210D01*
X105003059Y-103169574D01*
X105003553Y-103174826D01*
X105005630Y-103215304D01*
X105005631Y-103215321D01*
X105023949Y-103321557D01*
X105038629Y-103428359D01*
X105047482Y-103459961D01*
X105048879Y-103466153D01*
X105054453Y-103498480D01*
X105054455Y-103498486D01*
X105087070Y-103601248D01*
X105116156Y-103705058D01*
X105116157Y-103705060D01*
X105129226Y-103735149D01*
X105131454Y-103741094D01*
X105141383Y-103772375D01*
X105141385Y-103772381D01*
X105187685Y-103869736D01*
X105230636Y-103968619D01*
X105230636Y-103968620D01*
X105247691Y-103996667D01*
X105250706Y-104002251D01*
X105264799Y-104031882D01*
X105323927Y-104122030D01*
X105379945Y-104214147D01*
X105392771Y-104229912D01*
X105400653Y-104239601D01*
X105404395Y-104244714D01*
X105422400Y-104272164D01*
X105422402Y-104272167D01*
X105493250Y-104353418D01*
X105561289Y-104437050D01*
X105561291Y-104437052D01*
X105561292Y-104437053D01*
X105585270Y-104459447D01*
X105585278Y-104459454D01*
X105589681Y-104464010D01*
X105611252Y-104488748D01*
X105692497Y-104559590D01*
X105771296Y-104633184D01*
X105771298Y-104633185D01*
X105771302Y-104633189D01*
X105798108Y-104652110D01*
X105803104Y-104656035D01*
X105803109Y-104656039D01*
X105827836Y-104677600D01*
X105917990Y-104736732D01*
X106006064Y-104798901D01*
X106006068Y-104798903D01*
X106035195Y-104813995D01*
X106040675Y-104817200D01*
X106068118Y-104835201D01*
X106165488Y-104881508D01*
X106261203Y-104931104D01*
X106283877Y-104939162D01*
X106292118Y-104942091D01*
X106297986Y-104944522D01*
X106308247Y-104949401D01*
X106327622Y-104958616D01*
X106430384Y-104991231D01*
X106531968Y-105027334D01*
X106531969Y-105027334D01*
X106531971Y-105027335D01*
X106540342Y-105029074D01*
X106564109Y-105034013D01*
X106570221Y-105035613D01*
X106601514Y-105045545D01*
X106707758Y-105063863D01*
X106813314Y-105085798D01*
X106846046Y-105088037D01*
X106852347Y-105088793D01*
X106884692Y-105094370D01*
X106934513Y-105096924D01*
X107004257Y-105100500D01*
X107004264Y-105100500D01*
X107995743Y-105100500D01*
X108115302Y-105094371D01*
X108147643Y-105088795D01*
X108153952Y-105088037D01*
X108163878Y-105087357D01*
X108186686Y-105085798D01*
X108292241Y-105063863D01*
X108398486Y-105045545D01*
X108429765Y-105035617D01*
X108435891Y-105034012D01*
X108468032Y-105027334D01*
X108569615Y-104991231D01*
X108672378Y-104958616D01*
X108702028Y-104944514D01*
X108707865Y-104942096D01*
X108738797Y-104931104D01*
X108834511Y-104881508D01*
X108931882Y-104835201D01*
X108959324Y-104817200D01*
X108964793Y-104814000D01*
X108993936Y-104798901D01*
X109082009Y-104736732D01*
X109172164Y-104677600D01*
X109196898Y-104656031D01*
X109201866Y-104652127D01*
X109228698Y-104633189D01*
X109307502Y-104559590D01*
X109388748Y-104488748D01*
X109410317Y-104464010D01*
X109414718Y-104459456D01*
X109438708Y-104437053D01*
X109506749Y-104353418D01*
X109577600Y-104272164D01*
X109595601Y-104244717D01*
X109599335Y-104239613D01*
X109620055Y-104214147D01*
X109676072Y-104122030D01*
X109735201Y-104031882D01*
X109749297Y-104002241D01*
X109752308Y-103996667D01*
X109762640Y-103979675D01*
X109769361Y-103968626D01*
X109769362Y-103968623D01*
X109812314Y-103869736D01*
X109858611Y-103772388D01*
X109858616Y-103772378D01*
X109868548Y-103741082D01*
X109870765Y-103735165D01*
X109883844Y-103705058D01*
X109912929Y-103601248D01*
X109945545Y-103498486D01*
X109951124Y-103466122D01*
X109952516Y-103459961D01*
X109961371Y-103428358D01*
X109976050Y-103321558D01*
X109994370Y-103215308D01*
X109996445Y-103174825D01*
X109996940Y-103169574D01*
X110000499Y-103143682D01*
X110000500Y-103143681D01*
X110000500Y-103143679D01*
X130399500Y-103143679D01*
X130399985Y-103147210D01*
X130403059Y-103169574D01*
X130403553Y-103174826D01*
X130405630Y-103215304D01*
X130405631Y-103215321D01*
X130423949Y-103321557D01*
X130438629Y-103428359D01*
X130447482Y-103459961D01*
X130448879Y-103466153D01*
X130454453Y-103498480D01*
X130454455Y-103498486D01*
X130487070Y-103601248D01*
X130516156Y-103705058D01*
X130516157Y-103705060D01*
X130529226Y-103735149D01*
X130531454Y-103741094D01*
X130541383Y-103772375D01*
X130541385Y-103772381D01*
X130587685Y-103869736D01*
X130630636Y-103968619D01*
X130630636Y-103968620D01*
X130647691Y-103996667D01*
X130650706Y-104002251D01*
X130664799Y-104031882D01*
X130723927Y-104122030D01*
X130779945Y-104214147D01*
X130792771Y-104229912D01*
X130800653Y-104239601D01*
X130804395Y-104244714D01*
X130822400Y-104272164D01*
X130822402Y-104272167D01*
X130893250Y-104353418D01*
X130961289Y-104437050D01*
X130961291Y-104437052D01*
X130961292Y-104437053D01*
X130985270Y-104459447D01*
X130985278Y-104459454D01*
X130989681Y-104464010D01*
X131011252Y-104488748D01*
X131092497Y-104559590D01*
X131171296Y-104633184D01*
X131171298Y-104633185D01*
X131171302Y-104633189D01*
X131198108Y-104652110D01*
X131203104Y-104656035D01*
X131203109Y-104656039D01*
X131227836Y-104677600D01*
X131317990Y-104736732D01*
X131406064Y-104798901D01*
X131406068Y-104798903D01*
X131435195Y-104813995D01*
X131440675Y-104817200D01*
X131468118Y-104835201D01*
X131565488Y-104881508D01*
X131661203Y-104931104D01*
X131683877Y-104939162D01*
X131692118Y-104942091D01*
X131697986Y-104944522D01*
X131708247Y-104949401D01*
X131727622Y-104958616D01*
X131830384Y-104991231D01*
X131931968Y-105027334D01*
X131931969Y-105027334D01*
X131931971Y-105027335D01*
X131940342Y-105029074D01*
X131964109Y-105034013D01*
X131970221Y-105035613D01*
X132001514Y-105045545D01*
X132107758Y-105063863D01*
X132213314Y-105085798D01*
X132246046Y-105088037D01*
X132252347Y-105088793D01*
X132284692Y-105094370D01*
X132334513Y-105096924D01*
X132404257Y-105100500D01*
X132404264Y-105100500D01*
X133395743Y-105100500D01*
X133515302Y-105094371D01*
X133547643Y-105088795D01*
X133553952Y-105088037D01*
X133563878Y-105087357D01*
X133586686Y-105085798D01*
X133692241Y-105063863D01*
X133798486Y-105045545D01*
X133829765Y-105035617D01*
X133835891Y-105034012D01*
X133868032Y-105027334D01*
X133969615Y-104991231D01*
X134072378Y-104958616D01*
X134102028Y-104944514D01*
X134107865Y-104942096D01*
X134138797Y-104931104D01*
X134234511Y-104881508D01*
X134331882Y-104835201D01*
X134359324Y-104817200D01*
X134364793Y-104814000D01*
X134393936Y-104798901D01*
X134482009Y-104736732D01*
X134572164Y-104677600D01*
X134596898Y-104656031D01*
X134601866Y-104652127D01*
X134628698Y-104633189D01*
X134707502Y-104559590D01*
X134788748Y-104488748D01*
X134810317Y-104464010D01*
X134814718Y-104459456D01*
X134838708Y-104437053D01*
X134906749Y-104353418D01*
X134977600Y-104272164D01*
X134995601Y-104244717D01*
X134999335Y-104239613D01*
X135020055Y-104214147D01*
X135076072Y-104122030D01*
X135135201Y-104031882D01*
X135149297Y-104002241D01*
X135152308Y-103996667D01*
X135162640Y-103979675D01*
X135169361Y-103968626D01*
X135169362Y-103968623D01*
X135212314Y-103869736D01*
X135258611Y-103772388D01*
X135258616Y-103772378D01*
X135268548Y-103741082D01*
X135270765Y-103735165D01*
X135283844Y-103705058D01*
X135312929Y-103601248D01*
X135345545Y-103498486D01*
X135351124Y-103466122D01*
X135352516Y-103459961D01*
X135361371Y-103428358D01*
X135376050Y-103321558D01*
X135394370Y-103215308D01*
X135396445Y-103174825D01*
X135396940Y-103169574D01*
X135400499Y-103143682D01*
X135400500Y-103143681D01*
X135400500Y-102856324D01*
X135396940Y-102830424D01*
X135396445Y-102825173D01*
X135394370Y-102784692D01*
X135376050Y-102678441D01*
X135361371Y-102571642D01*
X135352517Y-102540040D01*
X135351120Y-102533851D01*
X135345545Y-102501514D01*
X135312929Y-102398751D01*
X135283844Y-102294942D01*
X135270765Y-102264832D01*
X135268543Y-102258903D01*
X135258616Y-102227622D01*
X135212314Y-102130263D01*
X135169361Y-102031375D01*
X135152306Y-102003330D01*
X135149293Y-101997749D01*
X135135204Y-101968124D01*
X135135201Y-101968118D01*
X135076072Y-101877969D01*
X135020055Y-101785853D01*
X134999344Y-101760396D01*
X134995595Y-101755272D01*
X134977602Y-101727838D01*
X134906749Y-101646581D01*
X134838712Y-101562952D01*
X134838708Y-101562947D01*
X134814717Y-101540540D01*
X134810317Y-101535989D01*
X134788748Y-101511252D01*
X134707502Y-101440409D01*
X134628701Y-101366813D01*
X134624392Y-101363771D01*
X134601884Y-101347883D01*
X134596900Y-101343969D01*
X134572164Y-101322400D01*
X134482009Y-101263267D01*
X134393936Y-101201099D01*
X134364797Y-101186000D01*
X134359329Y-101182802D01*
X134331882Y-101164799D01*
X134331878Y-101164797D01*
X134331873Y-101164794D01*
X134234511Y-101118491D01*
X134138796Y-101068895D01*
X134138792Y-101068894D01*
X134107874Y-101057905D01*
X134102006Y-101055474D01*
X134072385Y-101041386D01*
X134072380Y-101041385D01*
X134072378Y-101041384D01*
X133969615Y-101008768D01*
X133868044Y-100972670D01*
X133868038Y-100972668D01*
X133868032Y-100972666D01*
X133835903Y-100965988D01*
X133829762Y-100964380D01*
X133798497Y-100954458D01*
X133798489Y-100954456D01*
X133798486Y-100954455D01*
X133798482Y-100954454D01*
X133798481Y-100954454D01*
X133692241Y-100936136D01*
X133586686Y-100914202D01*
X133586681Y-100914201D01*
X133586682Y-100914201D01*
X133553943Y-100911961D01*
X133547647Y-100911205D01*
X133534199Y-100908886D01*
X133515312Y-100905630D01*
X133515297Y-100905628D01*
X133395743Y-100899500D01*
X133395736Y-100899500D01*
X132404264Y-100899500D01*
X132404257Y-100899500D01*
X132284706Y-100905628D01*
X132284678Y-100905631D01*
X132252348Y-100911204D01*
X132246048Y-100911961D01*
X132213319Y-100914201D01*
X132107758Y-100936136D01*
X132001516Y-100954454D01*
X132001502Y-100954458D01*
X131970241Y-100964379D01*
X131964100Y-100965987D01*
X131931980Y-100972662D01*
X131931954Y-100972670D01*
X131830384Y-101008768D01*
X131727618Y-101041385D01*
X131697989Y-101055476D01*
X131692124Y-101057906D01*
X131661200Y-101068897D01*
X131565488Y-101118491D01*
X131468120Y-101164797D01*
X131468112Y-101164802D01*
X131440676Y-101182798D01*
X131435193Y-101186005D01*
X131406064Y-101201098D01*
X131317990Y-101263267D01*
X131227836Y-101322400D01*
X131227827Y-101322406D01*
X131203102Y-101343965D01*
X131198110Y-101347887D01*
X131171311Y-101366803D01*
X131171294Y-101366817D01*
X131092497Y-101440409D01*
X131011258Y-101511246D01*
X131011256Y-101511247D01*
X130989691Y-101535978D01*
X130985280Y-101540542D01*
X130961293Y-101562944D01*
X130961292Y-101562945D01*
X130893250Y-101646581D01*
X130822398Y-101727837D01*
X130822395Y-101727842D01*
X130804403Y-101755273D01*
X130800654Y-101760396D01*
X130779943Y-101785855D01*
X130779941Y-101785858D01*
X130723927Y-101877969D01*
X130664800Y-101968115D01*
X130650706Y-101997747D01*
X130647691Y-102003330D01*
X130630640Y-102031372D01*
X130587685Y-102130263D01*
X130541384Y-102227620D01*
X130541383Y-102227622D01*
X130531454Y-102258904D01*
X130529227Y-102264846D01*
X130516156Y-102294942D01*
X130487070Y-102398751D01*
X130454455Y-102501513D01*
X130448879Y-102533847D01*
X130447482Y-102540040D01*
X130438629Y-102571642D01*
X130438629Y-102571643D01*
X130423949Y-102678442D01*
X130405632Y-102784675D01*
X130405630Y-102784695D01*
X130403555Y-102825151D01*
X130403059Y-102830415D01*
X130399500Y-102856316D01*
X130399500Y-103143679D01*
X110000500Y-103143679D01*
X110000500Y-102856324D01*
X109996940Y-102830424D01*
X109996445Y-102825173D01*
X109994370Y-102784692D01*
X109976050Y-102678441D01*
X109961371Y-102571642D01*
X109952517Y-102540040D01*
X109951120Y-102533851D01*
X109945545Y-102501514D01*
X109912929Y-102398751D01*
X109883844Y-102294942D01*
X109870765Y-102264832D01*
X109868543Y-102258903D01*
X109858616Y-102227622D01*
X109812314Y-102130263D01*
X109769361Y-102031375D01*
X109752306Y-102003330D01*
X109749293Y-101997749D01*
X109735204Y-101968124D01*
X109735201Y-101968118D01*
X109676072Y-101877969D01*
X109620055Y-101785853D01*
X109599344Y-101760396D01*
X109595595Y-101755272D01*
X109577602Y-101727838D01*
X109506749Y-101646581D01*
X109438712Y-101562952D01*
X109438708Y-101562947D01*
X109414717Y-101540540D01*
X109410317Y-101535989D01*
X109388748Y-101511252D01*
X109307502Y-101440409D01*
X109228701Y-101366813D01*
X109224392Y-101363771D01*
X109201884Y-101347883D01*
X109196900Y-101343969D01*
X109172164Y-101322400D01*
X109082009Y-101263267D01*
X108993936Y-101201099D01*
X108964797Y-101186000D01*
X108959329Y-101182802D01*
X108931882Y-101164799D01*
X108931878Y-101164797D01*
X108931873Y-101164794D01*
X108834511Y-101118491D01*
X108738796Y-101068895D01*
X108738792Y-101068894D01*
X108707874Y-101057905D01*
X108702006Y-101055474D01*
X108672385Y-101041386D01*
X108672380Y-101041385D01*
X108672378Y-101041384D01*
X108569615Y-101008768D01*
X108468044Y-100972670D01*
X108468038Y-100972668D01*
X108468032Y-100972666D01*
X108435903Y-100965988D01*
X108429762Y-100964380D01*
X108398497Y-100954458D01*
X108398489Y-100954456D01*
X108398486Y-100954455D01*
X108398482Y-100954454D01*
X108398481Y-100954454D01*
X108292241Y-100936136D01*
X108186686Y-100914202D01*
X108186681Y-100914201D01*
X108186682Y-100914201D01*
X108153943Y-100911961D01*
X108147647Y-100911205D01*
X108134199Y-100908886D01*
X108115312Y-100905630D01*
X108115297Y-100905628D01*
X107995743Y-100899500D01*
X107995736Y-100899500D01*
X107004264Y-100899500D01*
X107004257Y-100899500D01*
X106884706Y-100905628D01*
X106884678Y-100905631D01*
X106852348Y-100911204D01*
X106846048Y-100911961D01*
X106813319Y-100914201D01*
X106707758Y-100936136D01*
X106601516Y-100954454D01*
X106601502Y-100954458D01*
X106570241Y-100964379D01*
X106564100Y-100965987D01*
X106531980Y-100972662D01*
X106531954Y-100972670D01*
X106430384Y-101008768D01*
X106327618Y-101041385D01*
X106297989Y-101055476D01*
X106292124Y-101057906D01*
X106261200Y-101068897D01*
X106165488Y-101118491D01*
X106068120Y-101164797D01*
X106068112Y-101164802D01*
X106040676Y-101182798D01*
X106035193Y-101186005D01*
X106006064Y-101201098D01*
X105917990Y-101263267D01*
X105827836Y-101322400D01*
X105827827Y-101322406D01*
X105803102Y-101343965D01*
X105798110Y-101347887D01*
X105771311Y-101366803D01*
X105771294Y-101366817D01*
X105692497Y-101440409D01*
X105611258Y-101511246D01*
X105611256Y-101511247D01*
X105589691Y-101535978D01*
X105585280Y-101540542D01*
X105561293Y-101562944D01*
X105561292Y-101562945D01*
X105493250Y-101646581D01*
X105422398Y-101727837D01*
X105422395Y-101727842D01*
X105404403Y-101755273D01*
X105400654Y-101760396D01*
X105379943Y-101785855D01*
X105379941Y-101785858D01*
X105323927Y-101877969D01*
X105264800Y-101968115D01*
X105250706Y-101997747D01*
X105247691Y-102003330D01*
X105230640Y-102031372D01*
X105187685Y-102130263D01*
X105141384Y-102227620D01*
X105141383Y-102227622D01*
X105131454Y-102258904D01*
X105129227Y-102264846D01*
X105116156Y-102294942D01*
X105087070Y-102398751D01*
X105054455Y-102501513D01*
X105048879Y-102533847D01*
X105047482Y-102540040D01*
X105038629Y-102571642D01*
X105038629Y-102571643D01*
X105023949Y-102678442D01*
X105005632Y-102784675D01*
X105005630Y-102784695D01*
X105003555Y-102825151D01*
X105003059Y-102830415D01*
X104999500Y-102856316D01*
X104999500Y-103143679D01*
X100400500Y-103143679D01*
X100400500Y-100524500D01*
X100420185Y-100457461D01*
X100472989Y-100411706D01*
X100524500Y-100400500D01*
X139775500Y-100400500D01*
X139842539Y-100420185D01*
G37*
G04 #@! TD.AperFunction*
M02*
