%TF.GenerationSoftware,KiCad,Pcbnew,9.0.8*%
%TF.CreationDate,2026-04-07T12:37:46-04:00*%
%TF.ProjectId,lichen-stereo-klein-filter-panel,6c696368-656e-42d7-9374-6572656f2d6b,rev?*%
%TF.SameCoordinates,Original*%
%TF.FileFunction,Legend,Bot*%
%TF.FilePolarity,Positive*%
%FSLAX46Y46*%
G04 Gerber Fmt 4.6, Leading zero omitted, Abs format (unit mm)*
G04 Created by KiCad (PCBNEW 9.0.8) date 2026-04-07 12:37:46*
%MOMM*%
%LPD*%
G01*
G04 APERTURE LIST*
G04 Aperture macros list*
%AMRoundRect*
0 Rectangle with rounded corners*
0 $1 Rounding radius*
0 $2 $3 $4 $5 $6 $7 $8 $9 X,Y pos of 4 corners*
0 Add a 4 corners polygon primitive as box body*
4,1,4,$2,$3,$4,$5,$6,$7,$8,$9,$2,$3,0*
0 Add four circle primitives for the rounded corners*
1,1,$1+$1,$2,$3*
1,1,$1+$1,$4,$5*
1,1,$1+$1,$6,$7*
1,1,$1+$1,$8,$9*
0 Add four rect primitives between the rounded corners*
20,1,$1+$1,$2,$3,$4,$5,0*
20,1,$1+$1,$4,$5,$6,$7,0*
20,1,$1+$1,$6,$7,$8,$9,0*
20,1,$1+$1,$8,$9,$2,$3,0*%
G04 Aperture macros list end*
%ADD10C,0.300000*%
%ADD11C,6.400000*%
%ADD12C,7.400000*%
%ADD13RoundRect,1.600000X-0.400000X-0.000010X0.400000X-0.000010X0.400000X0.000010X-0.400000X0.000010X0*%
%ADD14C,6.500000*%
G04 APERTURE END LIST*
D10*
G36*
X121509120Y-109444785D02*
G01*
X121581820Y-109371521D01*
X121659950Y-109321220D01*
X121744919Y-109291275D01*
X121839007Y-109281081D01*
X121922972Y-109289115D01*
X121999035Y-109312625D01*
X122067902Y-109350136D01*
X122125638Y-109398452D01*
X122172669Y-109457401D01*
X122209071Y-109527705D01*
X122231762Y-109604874D01*
X122239504Y-109689443D01*
X122231723Y-109775660D01*
X122209071Y-109853147D01*
X122172525Y-109923567D01*
X122124698Y-109983426D01*
X122066218Y-110032603D01*
X121998094Y-110070193D01*
X121923097Y-110093727D01*
X121840973Y-110101737D01*
X121752712Y-110092258D01*
X121669072Y-110063878D01*
X121588280Y-110015384D01*
X121509120Y-109943932D01*
X121509120Y-110399396D01*
X121548187Y-110413073D01*
X121635393Y-110440814D01*
X121712745Y-110459064D01*
X121789005Y-110470130D01*
X121863541Y-110473768D01*
X121964174Y-110467295D01*
X122061470Y-110448013D01*
X122156242Y-110415809D01*
X122246165Y-110371720D01*
X122328170Y-110317447D01*
X122402951Y-110252618D01*
X122468937Y-110178706D01*
X122525981Y-110095782D01*
X122574263Y-110003002D01*
X122609848Y-109904865D01*
X122631503Y-109800102D01*
X122638890Y-109687477D01*
X122631587Y-109574825D01*
X122610243Y-109470736D01*
X122575289Y-109373918D01*
X122527562Y-109282469D01*
X122470842Y-109200860D01*
X122404917Y-109128234D01*
X122330222Y-109064648D01*
X122247915Y-109011030D01*
X122157267Y-108967095D01*
X122061808Y-108934870D01*
X121963518Y-108915546D01*
X121861575Y-108909050D01*
X121774073Y-108913722D01*
X121688297Y-108927686D01*
X121602678Y-108950812D01*
X121509120Y-108985389D01*
X121509120Y-109444785D01*
G37*
G36*
X120944235Y-108799630D02*
G01*
X120944235Y-110430000D01*
X121299853Y-110430000D01*
X121299853Y-108799630D01*
X120944235Y-108799630D01*
G37*
G36*
X120310331Y-109395369D02*
G01*
X120377966Y-109409574D01*
X120440643Y-109432817D01*
X120526667Y-109482951D01*
X120599389Y-109547965D01*
X120658301Y-109626295D01*
X120703253Y-109718080D01*
X120731058Y-109817694D01*
X120740439Y-109923672D01*
X120730660Y-110036660D01*
X120702227Y-110138239D01*
X120656084Y-110230729D01*
X120595457Y-110309380D01*
X120521075Y-110373990D01*
X120434830Y-110422477D01*
X120339352Y-110452522D01*
X120232915Y-110462826D01*
X120138882Y-110453378D01*
X120057903Y-110426248D01*
X119987270Y-110381828D01*
X119925254Y-110318613D01*
X119925254Y-110430000D01*
X119569637Y-110430000D01*
X119569637Y-109927690D01*
X119913457Y-109927690D01*
X119918181Y-109973717D01*
X119932178Y-110016423D01*
X119953946Y-110055506D01*
X119981418Y-110089427D01*
X120014617Y-110117392D01*
X120054166Y-110138752D01*
X120097545Y-110151993D01*
X120143668Y-110156448D01*
X120191498Y-110151949D01*
X120235137Y-110138752D01*
X120274701Y-110117396D01*
X120307970Y-110089427D01*
X120335104Y-110055313D01*
X120356184Y-110015397D01*
X120369379Y-109971662D01*
X120373879Y-109923672D01*
X120369381Y-109877741D01*
X120356184Y-109835964D01*
X120335213Y-109797647D01*
X120307970Y-109763900D01*
X120274698Y-109735950D01*
X120235137Y-109714661D01*
X120191494Y-109701400D01*
X120143668Y-109696880D01*
X120097548Y-109701355D01*
X120054166Y-109714661D01*
X120014620Y-109735955D01*
X119981418Y-109763900D01*
X119954012Y-109797914D01*
X119932178Y-109837845D01*
X119918164Y-109881379D01*
X119913457Y-109927690D01*
X119569637Y-109927690D01*
X119569637Y-109423328D01*
X119925254Y-109423328D01*
X119925254Y-109523004D01*
X119991243Y-109464874D01*
X120064098Y-109423958D01*
X120145267Y-109399085D01*
X120236847Y-109390502D01*
X120310331Y-109395369D01*
G37*
G36*
X118552023Y-109522063D02*
G01*
X118617955Y-109464387D01*
X118690791Y-109423753D01*
X118771981Y-109399034D01*
X118863616Y-109390502D01*
X118937108Y-109395354D01*
X119005099Y-109409546D01*
X119068438Y-109432817D01*
X119155251Y-109483010D01*
X119228124Y-109547965D01*
X119286805Y-109626330D01*
X119330962Y-109718080D01*
X119358057Y-109817654D01*
X119367208Y-109923672D01*
X119357471Y-110034947D01*
X119328996Y-110136273D01*
X119282853Y-110228763D01*
X119222226Y-110307414D01*
X119147884Y-110372251D01*
X119061599Y-110421536D01*
X118998991Y-110444254D01*
X118931955Y-110458097D01*
X118859684Y-110462826D01*
X118765651Y-110453378D01*
X118684672Y-110426248D01*
X118614039Y-110381828D01*
X118552023Y-110318613D01*
X118552023Y-110430000D01*
X118196406Y-110430000D01*
X118196406Y-109927690D01*
X118540226Y-109927690D01*
X118544950Y-109973717D01*
X118558947Y-110016423D01*
X118580715Y-110055506D01*
X118608187Y-110089427D01*
X118641386Y-110117392D01*
X118680935Y-110138752D01*
X118724314Y-110151993D01*
X118770437Y-110156448D01*
X118818267Y-110151949D01*
X118861906Y-110138752D01*
X118901470Y-110117396D01*
X118934739Y-110089427D01*
X118961873Y-110055313D01*
X118982953Y-110015397D01*
X118996148Y-109971662D01*
X119000648Y-109923672D01*
X118995900Y-109877792D01*
X118981927Y-109835964D01*
X118960224Y-109797609D01*
X118932773Y-109763900D01*
X118899501Y-109735950D01*
X118859940Y-109714661D01*
X118816557Y-109701355D01*
X118770437Y-109696880D01*
X118724317Y-109701355D01*
X118680935Y-109714661D01*
X118641389Y-109735955D01*
X118608187Y-109763900D01*
X118580781Y-109797914D01*
X118558947Y-109837845D01*
X118544933Y-109881379D01*
X118540226Y-109927690D01*
X118196406Y-109927690D01*
X118196406Y-108799630D01*
X118552023Y-108799630D01*
X118552023Y-109522063D01*
G37*
G36*
X117477713Y-109389788D02*
G01*
X117558029Y-109403676D01*
X117632803Y-109426320D01*
X117736906Y-109475876D01*
X117823691Y-109539417D01*
X117895119Y-109617564D01*
X117948927Y-109708421D01*
X117973844Y-109774542D01*
X117988882Y-109844068D01*
X117993977Y-109917773D01*
X117988769Y-109999436D01*
X117973616Y-110074157D01*
X117948927Y-110142941D01*
X117914858Y-110207637D01*
X117873514Y-110265420D01*
X117824631Y-110316903D01*
X117769119Y-110361173D01*
X117706441Y-110398520D01*
X117635795Y-110428974D01*
X117522744Y-110458214D01*
X117396864Y-110468297D01*
X117268953Y-110458236D01*
X117153147Y-110428974D01*
X117080450Y-110398497D01*
X117016497Y-110361438D01*
X116960378Y-110317843D01*
X116888800Y-110239406D01*
X116834117Y-110146873D01*
X116808792Y-110079349D01*
X116793333Y-110006608D01*
X116788040Y-109927690D01*
X116788175Y-109925638D01*
X117162379Y-109925638D01*
X117167089Y-109973502D01*
X117180929Y-110017192D01*
X117202589Y-110057057D01*
X117229827Y-110091051D01*
X117262849Y-110119005D01*
X117302147Y-110140291D01*
X117345187Y-110153532D01*
X117390966Y-110157986D01*
X117436757Y-110153534D01*
X117479870Y-110140291D01*
X117519112Y-110119014D01*
X117552191Y-110091051D01*
X117579379Y-110057066D01*
X117601088Y-110017192D01*
X117614883Y-109973245D01*
X117619638Y-109923672D01*
X117614954Y-109877735D01*
X117601088Y-109835195D01*
X117579435Y-109796113D01*
X117552191Y-109762276D01*
X117519112Y-109734314D01*
X117479870Y-109713037D01*
X117436757Y-109699794D01*
X117390966Y-109695341D01*
X117345187Y-109699795D01*
X117302147Y-109713037D01*
X117262849Y-109734323D01*
X117229827Y-109762276D01*
X117202589Y-109796271D01*
X117180929Y-109836135D01*
X117167040Y-109879554D01*
X117162379Y-109925638D01*
X116788175Y-109925638D01*
X116793222Y-109848671D01*
X116808346Y-109775896D01*
X116833091Y-109708421D01*
X116867239Y-109645161D01*
X116909201Y-109588357D01*
X116959352Y-109537451D01*
X117046950Y-109474094D01*
X117151181Y-109425380D01*
X117265090Y-109395349D01*
X117391051Y-109385031D01*
X117477713Y-109389788D01*
G37*
G36*
X116583817Y-109423328D02*
G01*
X116228199Y-109423328D01*
X116228199Y-109550872D01*
X116176551Y-109495432D01*
X116127783Y-109456775D01*
X116081250Y-109431962D01*
X116002733Y-109409499D01*
X115906690Y-109401444D01*
X115805633Y-109410578D01*
X115725376Y-109435809D01*
X115655460Y-109477347D01*
X115596978Y-109533005D01*
X115560575Y-109587211D01*
X115538164Y-109646871D01*
X115526595Y-109712024D01*
X115522435Y-109790144D01*
X115522435Y-110430000D01*
X115878052Y-110430000D01*
X115878052Y-109921706D01*
X115881099Y-109850717D01*
X115888909Y-109801086D01*
X115904315Y-109758669D01*
X115927035Y-109727484D01*
X115952174Y-109707256D01*
X115979865Y-109694145D01*
X116042355Y-109684314D01*
X116099983Y-109690874D01*
X116144991Y-109709094D01*
X116180327Y-109738340D01*
X116205804Y-109777036D01*
X116222199Y-109827254D01*
X116228199Y-109892299D01*
X116228199Y-110430000D01*
X116583817Y-110430000D01*
X116583817Y-109423328D01*
G37*
G36*
X114927459Y-109423328D02*
G01*
X114927459Y-110430000D01*
X115283077Y-110430000D01*
X115283077Y-109423328D01*
X114927459Y-109423328D01*
G37*
G36*
X115304961Y-109037620D02*
G01*
X115301009Y-108997541D01*
X115289317Y-108960341D01*
X115270631Y-108926222D01*
X115246233Y-108896655D01*
X115216657Y-108872208D01*
X115182547Y-108853571D01*
X115145286Y-108841875D01*
X115105268Y-108837927D01*
X115065189Y-108841879D01*
X115027990Y-108853571D01*
X114993895Y-108872212D01*
X114964389Y-108896655D01*
X114939942Y-108926231D01*
X114921304Y-108960341D01*
X114909548Y-108997545D01*
X114905575Y-109037620D01*
X114909546Y-109077707D01*
X114921304Y-109114984D01*
X114939937Y-109149022D01*
X114964389Y-109178585D01*
X114993885Y-109202978D01*
X115027990Y-109221669D01*
X115065189Y-109233361D01*
X115105268Y-109237313D01*
X115145286Y-109233365D01*
X115182547Y-109221669D01*
X115216666Y-109202982D01*
X115246233Y-109178585D01*
X115270636Y-109149032D01*
X115289317Y-109114984D01*
X115301011Y-109077711D01*
X115304961Y-109037620D01*
G37*
G36*
X114293555Y-109395369D02*
G01*
X114361190Y-109409574D01*
X114423867Y-109432817D01*
X114509891Y-109482951D01*
X114582613Y-109547965D01*
X114641525Y-109626295D01*
X114686477Y-109718080D01*
X114714282Y-109817694D01*
X114723663Y-109923672D01*
X114713884Y-110036660D01*
X114685451Y-110138239D01*
X114639308Y-110230729D01*
X114578681Y-110309380D01*
X114504299Y-110373990D01*
X114418054Y-110422477D01*
X114322576Y-110452522D01*
X114216139Y-110462826D01*
X114122106Y-110453378D01*
X114041127Y-110426248D01*
X113970494Y-110381828D01*
X113908478Y-110318613D01*
X113908478Y-110430000D01*
X113552861Y-110430000D01*
X113552861Y-109927690D01*
X113896681Y-109927690D01*
X113901405Y-109973717D01*
X113915402Y-110016423D01*
X113937170Y-110055506D01*
X113964642Y-110089427D01*
X113997841Y-110117392D01*
X114037390Y-110138752D01*
X114080769Y-110151993D01*
X114126892Y-110156448D01*
X114174722Y-110151949D01*
X114218361Y-110138752D01*
X114257925Y-110117396D01*
X114291194Y-110089427D01*
X114318328Y-110055313D01*
X114339408Y-110015397D01*
X114352603Y-109971662D01*
X114357103Y-109923672D01*
X114352605Y-109877741D01*
X114339408Y-109835964D01*
X114318437Y-109797647D01*
X114291194Y-109763900D01*
X114257922Y-109735950D01*
X114218361Y-109714661D01*
X114174718Y-109701400D01*
X114126892Y-109696880D01*
X114080772Y-109701355D01*
X114037390Y-109714661D01*
X113997844Y-109735955D01*
X113964642Y-109763900D01*
X113937236Y-109797914D01*
X113915402Y-109837845D01*
X113901388Y-109881379D01*
X113896681Y-109927690D01*
X113552861Y-109927690D01*
X113552861Y-109423328D01*
X113908478Y-109423328D01*
X113908478Y-109523004D01*
X113974467Y-109464874D01*
X114047322Y-109423958D01*
X114128491Y-109399085D01*
X114220071Y-109390502D01*
X114293555Y-109395369D01*
G37*
G36*
X112076419Y-109399984D02*
G01*
X112157832Y-109427168D01*
X112228573Y-109471594D01*
X112290418Y-109534715D01*
X112290418Y-109423328D01*
X112646036Y-109423328D01*
X112646036Y-110933335D01*
X112290418Y-110933335D01*
X112290418Y-110333230D01*
X112223819Y-110390033D01*
X112150528Y-110430078D01*
X112069134Y-110454429D01*
X111977629Y-110462826D01*
X111873217Y-110452336D01*
X111778278Y-110421536D01*
X111692341Y-110372209D01*
X111618933Y-110307414D01*
X111559090Y-110229143D01*
X111513360Y-110138239D01*
X111484948Y-110038878D01*
X111475233Y-109929656D01*
X111847264Y-109929656D01*
X111851899Y-109973988D01*
X111865814Y-110016423D01*
X111887294Y-110055525D01*
X111914370Y-110089427D01*
X111947059Y-110117465D01*
X111985322Y-110138752D01*
X112027325Y-110151969D01*
X112072859Y-110156448D01*
X112118343Y-110151748D01*
X112161250Y-110137726D01*
X112200594Y-110115890D01*
X112234169Y-110088401D01*
X112261734Y-110055238D01*
X112282724Y-110016423D01*
X112295815Y-109973774D01*
X112300249Y-109927690D01*
X112295625Y-109881363D01*
X112281870Y-109837845D01*
X112260307Y-109797900D01*
X112233229Y-109763900D01*
X112200480Y-109735873D01*
X112162276Y-109714661D01*
X112120196Y-109701378D01*
X112074654Y-109696880D01*
X112027465Y-109701627D01*
X111984296Y-109715601D01*
X111945035Y-109737633D01*
X111911463Y-109765867D01*
X111884078Y-109800006D01*
X111863848Y-109839811D01*
X111851451Y-109883248D01*
X111847264Y-109929656D01*
X111475233Y-109929656D01*
X111484910Y-109820098D01*
X111513360Y-109719106D01*
X111559427Y-109626556D01*
X111619959Y-109547965D01*
X111694255Y-109482908D01*
X111781184Y-109432817D01*
X111844259Y-109409439D01*
X111910804Y-109395300D01*
X111981561Y-109390502D01*
X112076419Y-109399984D01*
G37*
G36*
X110880994Y-109395369D02*
G01*
X110948629Y-109409574D01*
X111011306Y-109432817D01*
X111097330Y-109482951D01*
X111170052Y-109547965D01*
X111228964Y-109626295D01*
X111273916Y-109718080D01*
X111301721Y-109817694D01*
X111311102Y-109923672D01*
X111301323Y-110036660D01*
X111272890Y-110138239D01*
X111226747Y-110230729D01*
X111166119Y-110309380D01*
X111091738Y-110373990D01*
X111005493Y-110422477D01*
X110910015Y-110452522D01*
X110803578Y-110462826D01*
X110709545Y-110453378D01*
X110628565Y-110426248D01*
X110557932Y-110381828D01*
X110495917Y-110318613D01*
X110495917Y-110430000D01*
X110140299Y-110430000D01*
X110140299Y-109927690D01*
X110484120Y-109927690D01*
X110488844Y-109973717D01*
X110502841Y-110016423D01*
X110524609Y-110055506D01*
X110552081Y-110089427D01*
X110585280Y-110117392D01*
X110624828Y-110138752D01*
X110668208Y-110151993D01*
X110714331Y-110156448D01*
X110762161Y-110151949D01*
X110805800Y-110138752D01*
X110845364Y-110117396D01*
X110878633Y-110089427D01*
X110905767Y-110055313D01*
X110926847Y-110015397D01*
X110940042Y-109971662D01*
X110944542Y-109923672D01*
X110940044Y-109877741D01*
X110926847Y-109835964D01*
X110905875Y-109797647D01*
X110878633Y-109763900D01*
X110845361Y-109735950D01*
X110805800Y-109714661D01*
X110762157Y-109701400D01*
X110714331Y-109696880D01*
X110668211Y-109701355D01*
X110624828Y-109714661D01*
X110585283Y-109735955D01*
X110552081Y-109763900D01*
X110524675Y-109797914D01*
X110502841Y-109837845D01*
X110488827Y-109881379D01*
X110484120Y-109927690D01*
X110140299Y-109927690D01*
X110140299Y-109423328D01*
X110495917Y-109423328D01*
X110495917Y-109523004D01*
X110561906Y-109464874D01*
X110634761Y-109423958D01*
X110715930Y-109399085D01*
X110807510Y-109390502D01*
X110880994Y-109395369D01*
G37*
G36*
X109899574Y-109423328D02*
G01*
X109543956Y-109423328D01*
X109543956Y-109550872D01*
X109492308Y-109495432D01*
X109443540Y-109456775D01*
X109397007Y-109431962D01*
X109318491Y-109409499D01*
X109222447Y-109401444D01*
X109121390Y-109410578D01*
X109041133Y-109435809D01*
X108971217Y-109477347D01*
X108912735Y-109533005D01*
X108876332Y-109587211D01*
X108853921Y-109646871D01*
X108842352Y-109712024D01*
X108838192Y-109790144D01*
X108838192Y-110430000D01*
X109193810Y-110430000D01*
X109193810Y-109921706D01*
X109196856Y-109850717D01*
X109204666Y-109801086D01*
X109220072Y-109758669D01*
X109242793Y-109727484D01*
X109267932Y-109707256D01*
X109295622Y-109694145D01*
X109358112Y-109684314D01*
X109415740Y-109690874D01*
X109460748Y-109709094D01*
X109496085Y-109738340D01*
X109521561Y-109777036D01*
X109537956Y-109827254D01*
X109543956Y-109892299D01*
X109543956Y-110430000D01*
X109899574Y-110430000D01*
X109899574Y-109423328D01*
G37*
G36*
X108203763Y-109395023D02*
G01*
X108310921Y-109423414D01*
X108407028Y-109470366D01*
X108486250Y-109532493D01*
X108530490Y-109582545D01*
X108567693Y-109639612D01*
X108597979Y-109704488D01*
X108619321Y-109773006D01*
X108632553Y-109848389D01*
X108637131Y-109931622D01*
X108632345Y-110012007D01*
X108618478Y-110085052D01*
X108596013Y-110151746D01*
X108546046Y-110243483D01*
X108479411Y-110320835D01*
X108397352Y-110382882D01*
X108298183Y-110429914D01*
X108188680Y-110458410D01*
X108064980Y-110468297D01*
X107944251Y-110460069D01*
X107843350Y-110437032D01*
X107758958Y-110400911D01*
X107688396Y-110352365D01*
X107629783Y-110290936D01*
X107582178Y-110215090D01*
X107545659Y-110122339D01*
X107887428Y-110122339D01*
X107920584Y-110163916D01*
X107959710Y-110192815D01*
X108005916Y-110210445D01*
X108061219Y-110216629D01*
X108129803Y-110209597D01*
X108181801Y-110190430D01*
X108221143Y-110160445D01*
X108250126Y-110118747D01*
X108269026Y-110062396D01*
X108276043Y-109986845D01*
X107531981Y-109986845D01*
X107531981Y-109949488D01*
X107541693Y-109821861D01*
X107552510Y-109778946D01*
X107862039Y-109778946D01*
X108266297Y-109778946D01*
X108252372Y-109729315D01*
X108230540Y-109689529D01*
X108200901Y-109657814D01*
X108164210Y-109634486D01*
X108120242Y-109619964D01*
X108067117Y-109614815D01*
X108016650Y-109620024D01*
X107972873Y-109635047D01*
X107934359Y-109659780D01*
X107902249Y-109692694D01*
X107878228Y-109732028D01*
X107862039Y-109778946D01*
X107552510Y-109778946D01*
X107569253Y-109712524D01*
X107598313Y-109644878D01*
X107634212Y-109585865D01*
X107676964Y-109534544D01*
X107726936Y-109490228D01*
X107784127Y-109453227D01*
X107849387Y-109423414D01*
X107955413Y-109395006D01*
X108078658Y-109385031D01*
X108203763Y-109395023D01*
G37*
G36*
X106975303Y-108799630D02*
G01*
X106975303Y-110430000D01*
X107330921Y-110430000D01*
X107330921Y-108799630D01*
X106975303Y-108799630D01*
G37*
G36*
X127279955Y-111775328D02*
G01*
X127040768Y-112291401D01*
X126797734Y-111775328D01*
X126401853Y-111775328D01*
X126925192Y-112782000D01*
X127162328Y-112782000D01*
X127679769Y-111775328D01*
X127279955Y-111775328D01*
G37*
G36*
X125882532Y-111627610D02*
G01*
X126098638Y-111627610D01*
X126098638Y-111299348D01*
X125499559Y-111299348D01*
X125499559Y-112782000D01*
X125882532Y-112782000D01*
X125882532Y-111627610D01*
G37*
G36*
X125052302Y-112595899D02*
G01*
X125047849Y-112549935D01*
X125034606Y-112506652D01*
X125013398Y-112466996D01*
X124985538Y-112433050D01*
X124951529Y-112405113D01*
X124911935Y-112383896D01*
X124868630Y-112370657D01*
X124822518Y-112366200D01*
X124776406Y-112370657D01*
X124733101Y-112383896D01*
X124693451Y-112405122D01*
X124659498Y-112433050D01*
X124631589Y-112467006D01*
X124610430Y-112506652D01*
X124597187Y-112549935D01*
X124592734Y-112595899D01*
X124597191Y-112642010D01*
X124610430Y-112685316D01*
X124631585Y-112724978D01*
X124659498Y-112759004D01*
X124693445Y-112786864D01*
X124733101Y-112808072D01*
X124776406Y-112821312D01*
X124822518Y-112825768D01*
X124868630Y-112821312D01*
X124911935Y-112808072D01*
X124951535Y-112786873D01*
X124985538Y-112759004D01*
X125013402Y-112724987D01*
X125034606Y-112685316D01*
X125047845Y-112642010D01*
X125052302Y-112595899D01*
G37*
G36*
X123915941Y-111267473D02*
G01*
X124000178Y-111286242D01*
X124078371Y-111317043D01*
X124151121Y-111359276D01*
X124216958Y-111411705D01*
X124276440Y-111475019D01*
X124326836Y-111546080D01*
X124370054Y-111627770D01*
X124405864Y-111721387D01*
X124430904Y-111818621D01*
X124446469Y-111925240D01*
X124451855Y-112042383D01*
X124446469Y-112159527D01*
X124430904Y-112266145D01*
X124405864Y-112363379D01*
X124370096Y-112457023D01*
X124326883Y-112539075D01*
X124276440Y-112610773D01*
X124216898Y-112674726D01*
X124151058Y-112727510D01*
X124078371Y-112769861D01*
X124000182Y-112800613D01*
X123915945Y-112819355D01*
X123824481Y-112825768D01*
X123734317Y-112819399D01*
X123650388Y-112800698D01*
X123571616Y-112769861D01*
X123498332Y-112727413D01*
X123432514Y-112674617D01*
X123373547Y-112610773D01*
X123323655Y-112539138D01*
X123280751Y-112457087D01*
X123245063Y-112363379D01*
X123219976Y-112266141D01*
X123204383Y-112159524D01*
X123198987Y-112042383D01*
X123581960Y-112042383D01*
X123586542Y-112138711D01*
X123599484Y-112222073D01*
X123620990Y-112299455D01*
X123647954Y-112362183D01*
X123683461Y-112415718D01*
X123724549Y-112453994D01*
X123772499Y-112478481D01*
X123824481Y-112486563D01*
X123877937Y-112478384D01*
X123925353Y-112453994D01*
X123965885Y-112415843D01*
X124002033Y-112362183D01*
X124029714Y-112299387D01*
X124051443Y-112222073D01*
X124064322Y-112138715D01*
X124068882Y-112042383D01*
X124064361Y-111947762D01*
X124051443Y-111863805D01*
X124029624Y-111785661D01*
X124002033Y-111723610D01*
X123965943Y-111670756D01*
X123925353Y-111632825D01*
X123877937Y-111608434D01*
X123824481Y-111600255D01*
X123772499Y-111608337D01*
X123724549Y-111632825D01*
X123683403Y-111670880D01*
X123647954Y-111723610D01*
X123621079Y-111785590D01*
X123599484Y-111863805D01*
X123586503Y-111947765D01*
X123581960Y-112042383D01*
X123198987Y-112042383D01*
X123204383Y-111925243D01*
X123219976Y-111818625D01*
X123245063Y-111721387D01*
X123280793Y-111627705D01*
X123323703Y-111546017D01*
X123373547Y-111475019D01*
X123432453Y-111411814D01*
X123498269Y-111359373D01*
X123571616Y-111317043D01*
X123650392Y-111286157D01*
X123734320Y-111267429D01*
X123824481Y-111261050D01*
X123915941Y-111267473D01*
G37*
G36*
X121633670Y-111593004D02*
G01*
X121724371Y-111620258D01*
X121807587Y-111663740D01*
X121878757Y-111720532D01*
X121937714Y-111789526D01*
X121983048Y-111869020D01*
X122011684Y-111956103D01*
X122021346Y-112049906D01*
X122011641Y-112145352D01*
X121983048Y-112232758D01*
X121937432Y-112311824D01*
X121877816Y-112379280D01*
X121806097Y-112434569D01*
X121723345Y-112477587D01*
X121633268Y-112504711D01*
X121535534Y-112513919D01*
X121443125Y-112506054D01*
X121338748Y-112478528D01*
X121303443Y-112466645D01*
X121303443Y-112157788D01*
X121329003Y-112181382D01*
X121375816Y-112219919D01*
X121421497Y-112246180D01*
X121470353Y-112262260D01*
X121523823Y-112267722D01*
X121585592Y-112260624D01*
X121637326Y-112240338D01*
X121681286Y-112206942D01*
X121714840Y-112163073D01*
X121735203Y-112111481D01*
X121742323Y-112049906D01*
X121735223Y-111988305D01*
X121714874Y-111936376D01*
X121681286Y-111891930D01*
X121637244Y-111857876D01*
X121585513Y-111837246D01*
X121523823Y-111830039D01*
X121469941Y-111835455D01*
X121418591Y-111851666D01*
X121371550Y-111878787D01*
X121329003Y-111918345D01*
X121303443Y-111947837D01*
X121303443Y-111631115D01*
X121313273Y-111627183D01*
X121365856Y-111608360D01*
X121423464Y-111594698D01*
X121537501Y-111583842D01*
X121633670Y-111593004D01*
G37*
G36*
X121664571Y-111268035D02*
G01*
X121766306Y-111288672D01*
X121863455Y-111322856D01*
X121955430Y-111369394D01*
X122038554Y-111425550D01*
X122113584Y-111491603D01*
X122179574Y-111566673D01*
X122235738Y-111650153D01*
X122282331Y-111742844D01*
X122316542Y-111840600D01*
X122337166Y-111942629D01*
X122344137Y-112049906D01*
X122337154Y-112157173D01*
X122316518Y-112258880D01*
X122282331Y-112356028D01*
X122235793Y-112448003D01*
X122179638Y-112531127D01*
X122113584Y-112606157D01*
X122038554Y-112672211D01*
X121955430Y-112728366D01*
X121863455Y-112774904D01*
X121766306Y-112809089D01*
X121664571Y-112829725D01*
X121557248Y-112836710D01*
X121449970Y-112829739D01*
X121347941Y-112809115D01*
X121250185Y-112774904D01*
X121157554Y-112728311D01*
X121074130Y-112672148D01*
X120999116Y-112606157D01*
X120933062Y-112531127D01*
X120876907Y-112448003D01*
X120830369Y-112356028D01*
X120796133Y-112258876D01*
X120775470Y-112157170D01*
X120768478Y-112049906D01*
X120768539Y-112048966D01*
X120921667Y-112048966D01*
X120927336Y-112135609D01*
X120944070Y-112217511D01*
X120971761Y-112295504D01*
X121009417Y-112369307D01*
X121054870Y-112436249D01*
X121108366Y-112496907D01*
X121168969Y-112550343D01*
X121235909Y-112595769D01*
X121309769Y-112633427D01*
X121387706Y-112661115D01*
X121469579Y-112677850D01*
X121556222Y-112683521D01*
X121642922Y-112677850D01*
X121724852Y-112661115D01*
X121802846Y-112633427D01*
X121876709Y-112595773D01*
X121943678Y-112550347D01*
X122004334Y-112496907D01*
X122057779Y-112436254D01*
X122103204Y-112369312D01*
X122140854Y-112295504D01*
X122168545Y-112217511D01*
X122185278Y-112135609D01*
X122190948Y-112048966D01*
X122185275Y-111962209D01*
X122168538Y-111880281D01*
X122140854Y-111802341D01*
X122103196Y-111728482D01*
X122057770Y-111661542D01*
X122004334Y-111600939D01*
X121943673Y-111547447D01*
X121876703Y-111501994D01*
X121802846Y-111464334D01*
X121724852Y-111436645D01*
X121642922Y-111419910D01*
X121556222Y-111414240D01*
X121469579Y-111419910D01*
X121387706Y-111436645D01*
X121309769Y-111464334D01*
X121235915Y-111501997D01*
X121168975Y-111547451D01*
X121108366Y-111600939D01*
X121054878Y-111661548D01*
X121009425Y-111728488D01*
X120971761Y-111802341D01*
X120944077Y-111880281D01*
X120927340Y-111962209D01*
X120921667Y-112048966D01*
X120768539Y-112048966D01*
X120775457Y-111942632D01*
X120796109Y-111840604D01*
X120830369Y-111742844D01*
X120876962Y-111650153D01*
X120933126Y-111566673D01*
X120999116Y-111491603D01*
X121074130Y-111425612D01*
X121157554Y-111369449D01*
X121250185Y-111322856D01*
X121347941Y-111288645D01*
X121449970Y-111268021D01*
X121557248Y-111261050D01*
X121664571Y-111268035D01*
G37*
G36*
X118716838Y-112782000D02*
G01*
X119906105Y-112782000D01*
X119540827Y-112399967D01*
X119405649Y-112252838D01*
X119314292Y-112143085D01*
X119239100Y-112040548D01*
X119192220Y-111964934D01*
X119157848Y-111894450D01*
X119142382Y-111846794D01*
X119132637Y-111770028D01*
X119143237Y-111705060D01*
X119156555Y-111675186D01*
X119175123Y-111648981D01*
X119198434Y-111626889D01*
X119226328Y-111609573D01*
X119258040Y-111598664D01*
X119296768Y-111594784D01*
X119345927Y-111600832D01*
X119385404Y-111617907D01*
X119417473Y-111645904D01*
X119441251Y-111682103D01*
X119455808Y-111724155D01*
X119460899Y-111773618D01*
X119455086Y-111836535D01*
X119876698Y-111836535D01*
X119871814Y-111751234D01*
X119857637Y-111673275D01*
X119834639Y-111601708D01*
X119802384Y-111533835D01*
X119762942Y-111473376D01*
X119716157Y-111419625D01*
X119662407Y-111372869D01*
X119602279Y-111333783D01*
X119535100Y-111302169D01*
X119464215Y-111279628D01*
X119387785Y-111265795D01*
X119304974Y-111261050D01*
X119184972Y-111271093D01*
X119076900Y-111300288D01*
X118978402Y-111347861D01*
X118895758Y-111410136D01*
X118827888Y-111487154D01*
X118776335Y-111577858D01*
X118752583Y-111643795D01*
X118738161Y-111713830D01*
X118733251Y-111788749D01*
X118739147Y-111868534D01*
X118756502Y-111943061D01*
X118785226Y-112013318D01*
X118824239Y-112078886D01*
X118878650Y-112148953D01*
X118951066Y-112224210D01*
X119196323Y-112453737D01*
X118716838Y-112453737D01*
X118716838Y-112782000D01*
G37*
G36*
X118052354Y-111267473D02*
G01*
X118136591Y-111286242D01*
X118214784Y-111317043D01*
X118287534Y-111359276D01*
X118353372Y-111411705D01*
X118412853Y-111475019D01*
X118463249Y-111546080D01*
X118506467Y-111627770D01*
X118542277Y-111721387D01*
X118567317Y-111818621D01*
X118582882Y-111925240D01*
X118588268Y-112042383D01*
X118582882Y-112159527D01*
X118567317Y-112266145D01*
X118542277Y-112363379D01*
X118506509Y-112457023D01*
X118463296Y-112539075D01*
X118412853Y-112610773D01*
X118353311Y-112674726D01*
X118287471Y-112727510D01*
X118214784Y-112769861D01*
X118136595Y-112800613D01*
X118052358Y-112819355D01*
X117960894Y-112825768D01*
X117870730Y-112819399D01*
X117786801Y-112800698D01*
X117708029Y-112769861D01*
X117634745Y-112727413D01*
X117568927Y-112674617D01*
X117509960Y-112610773D01*
X117460069Y-112539138D01*
X117417164Y-112457087D01*
X117381476Y-112363379D01*
X117356389Y-112266141D01*
X117340796Y-112159524D01*
X117335400Y-112042383D01*
X117718373Y-112042383D01*
X117722955Y-112138711D01*
X117735897Y-112222073D01*
X117757403Y-112299455D01*
X117784367Y-112362183D01*
X117819874Y-112415718D01*
X117860962Y-112453994D01*
X117908912Y-112478481D01*
X117960894Y-112486563D01*
X118014350Y-112478384D01*
X118061766Y-112453994D01*
X118102298Y-112415843D01*
X118138446Y-112362183D01*
X118166127Y-112299387D01*
X118187856Y-112222073D01*
X118200735Y-112138715D01*
X118205295Y-112042383D01*
X118200774Y-111947762D01*
X118187856Y-111863805D01*
X118166037Y-111785661D01*
X118138446Y-111723610D01*
X118102356Y-111670756D01*
X118061766Y-111632825D01*
X118014350Y-111608434D01*
X117960894Y-111600255D01*
X117908912Y-111608337D01*
X117860962Y-111632825D01*
X117819816Y-111670880D01*
X117784367Y-111723610D01*
X117757492Y-111785590D01*
X117735897Y-111863805D01*
X117722916Y-111947765D01*
X117718373Y-112042383D01*
X117335400Y-112042383D01*
X117340796Y-111925243D01*
X117356389Y-111818625D01*
X117381476Y-111721387D01*
X117417207Y-111627705D01*
X117460116Y-111546017D01*
X117509960Y-111475019D01*
X117568866Y-111411814D01*
X117634682Y-111359373D01*
X117708029Y-111317043D01*
X117786805Y-111286157D01*
X117870733Y-111267429D01*
X117960894Y-111261050D01*
X118052354Y-111267473D01*
G37*
G36*
X116052441Y-112782000D02*
G01*
X117241708Y-112782000D01*
X116876431Y-112399967D01*
X116741253Y-112252838D01*
X116649896Y-112143085D01*
X116574704Y-112040548D01*
X116527823Y-111964934D01*
X116493451Y-111894450D01*
X116477986Y-111846794D01*
X116468240Y-111770028D01*
X116478840Y-111705060D01*
X116492159Y-111675186D01*
X116510726Y-111648981D01*
X116534037Y-111626889D01*
X116561932Y-111609573D01*
X116593643Y-111598664D01*
X116632371Y-111594784D01*
X116681530Y-111600832D01*
X116721008Y-111617907D01*
X116753076Y-111645904D01*
X116776855Y-111682103D01*
X116791412Y-111724155D01*
X116796503Y-111773618D01*
X116790690Y-111836535D01*
X117212302Y-111836535D01*
X117207418Y-111751234D01*
X117193240Y-111673275D01*
X117170243Y-111601708D01*
X117137988Y-111533835D01*
X117098545Y-111473376D01*
X117051761Y-111419625D01*
X116998011Y-111372869D01*
X116937883Y-111333783D01*
X116870704Y-111302169D01*
X116799819Y-111279628D01*
X116723389Y-111265795D01*
X116640578Y-111261050D01*
X116520575Y-111271093D01*
X116412504Y-111300288D01*
X116314006Y-111347861D01*
X116231361Y-111410136D01*
X116163492Y-111487154D01*
X116111939Y-111577858D01*
X116088187Y-111643795D01*
X116073764Y-111713830D01*
X116068854Y-111788749D01*
X116074751Y-111868534D01*
X116092106Y-111943061D01*
X116120829Y-112013318D01*
X116159843Y-112078886D01*
X116214254Y-112148953D01*
X116286670Y-112224210D01*
X116531927Y-112453737D01*
X116052441Y-112453737D01*
X116052441Y-112782000D01*
G37*
G36*
X115690412Y-111720960D02*
G01*
X115762791Y-111818212D01*
X115819666Y-111913851D01*
X115862408Y-112008360D01*
X115894467Y-112107116D01*
X115912619Y-112197322D01*
X115918401Y-112280203D01*
X115913545Y-112353893D01*
X115899172Y-112423991D01*
X115875316Y-112491180D01*
X115842366Y-112554344D01*
X115801009Y-112612056D01*
X115750765Y-112664800D01*
X115693748Y-112710332D01*
X115628384Y-112749618D01*
X115553722Y-112782598D01*
X115475427Y-112806044D01*
X115388276Y-112820677D01*
X115291026Y-112825768D01*
X115194994Y-112820697D01*
X115108443Y-112806084D01*
X115030212Y-112782598D01*
X114955554Y-112749595D01*
X114890162Y-112710058D01*
X114833083Y-112664030D01*
X114782926Y-112610636D01*
X114741583Y-112551968D01*
X114708617Y-112487504D01*
X114684871Y-112419039D01*
X114670443Y-112346405D01*
X114665982Y-112275928D01*
X115048505Y-112275928D01*
X115053441Y-112325153D01*
X115067996Y-112370389D01*
X115090973Y-112411606D01*
X115120655Y-112447326D01*
X115156318Y-112476998D01*
X115197591Y-112499984D01*
X115242750Y-112514473D01*
X115291967Y-112519390D01*
X115341269Y-112514472D01*
X115386513Y-112499984D01*
X115427730Y-112477007D01*
X115463450Y-112447326D01*
X115493063Y-112411612D01*
X115516023Y-112370389D01*
X115530513Y-112325157D01*
X115535428Y-112275928D01*
X115530511Y-112226712D01*
X115516023Y-112181553D01*
X115493058Y-112140258D01*
X115463450Y-112104531D01*
X115427727Y-112074869D01*
X115386513Y-112051958D01*
X115341265Y-112037405D01*
X115291967Y-112032467D01*
X115242755Y-112037405D01*
X115197591Y-112051958D01*
X115156321Y-112074878D01*
X115120655Y-112104531D01*
X115090979Y-112140264D01*
X115067996Y-112181553D01*
X115053443Y-112226716D01*
X115048505Y-112275928D01*
X114665982Y-112275928D01*
X114665533Y-112268833D01*
X114674976Y-112161636D01*
X114702719Y-112062985D01*
X114747588Y-111972498D01*
X114806497Y-111895349D01*
X114878765Y-111831426D01*
X114963020Y-111782594D01*
X115024223Y-111759923D01*
X115089830Y-111746110D01*
X115160662Y-111741391D01*
X115223408Y-111748315D01*
X115260091Y-111760292D01*
X115313423Y-111788578D01*
X115321203Y-111788578D01*
X114903181Y-111304819D01*
X115346506Y-111304819D01*
X115690412Y-111720960D01*
G37*
G36*
X114398648Y-112404498D02*
G01*
X114065513Y-112404498D01*
X114426089Y-113055551D01*
X114653479Y-113055551D01*
X114398648Y-112404498D01*
G37*
G36*
X112080466Y-111796785D02*
G01*
X112153167Y-111723521D01*
X112231296Y-111673220D01*
X112316265Y-111643275D01*
X112410353Y-111633081D01*
X112494318Y-111641115D01*
X112570381Y-111664625D01*
X112639248Y-111702136D01*
X112696984Y-111750452D01*
X112744016Y-111809401D01*
X112780417Y-111879705D01*
X112803108Y-111956874D01*
X112810850Y-112041443D01*
X112803069Y-112127660D01*
X112780417Y-112205147D01*
X112743871Y-112275567D01*
X112696044Y-112335426D01*
X112637564Y-112384603D01*
X112569441Y-112422193D01*
X112494443Y-112445727D01*
X112412319Y-112453737D01*
X112324058Y-112444258D01*
X112240418Y-112415878D01*
X112159626Y-112367384D01*
X112080466Y-112295932D01*
X112080466Y-112751396D01*
X112119533Y-112765073D01*
X112206739Y-112792814D01*
X112284092Y-112811064D01*
X112360351Y-112822130D01*
X112434887Y-112825768D01*
X112535520Y-112819295D01*
X112632816Y-112800013D01*
X112727588Y-112767809D01*
X112817511Y-112723720D01*
X112899516Y-112669447D01*
X112974297Y-112604618D01*
X113040283Y-112530706D01*
X113097327Y-112447782D01*
X113145609Y-112355002D01*
X113181194Y-112256865D01*
X113202849Y-112152102D01*
X113210236Y-112039477D01*
X113202933Y-111926825D01*
X113181589Y-111822736D01*
X113146635Y-111725918D01*
X113098908Y-111634469D01*
X113042188Y-111552860D01*
X112976264Y-111480234D01*
X112901568Y-111416648D01*
X112819262Y-111363030D01*
X112728614Y-111319095D01*
X112633154Y-111286870D01*
X112534864Y-111267546D01*
X112432921Y-111261050D01*
X112345419Y-111265722D01*
X112259643Y-111279686D01*
X112174024Y-111302812D01*
X112080466Y-111337389D01*
X112080466Y-111796785D01*
G37*
G36*
X111393232Y-111741788D02*
G01*
X111473549Y-111755676D01*
X111548322Y-111778320D01*
X111652425Y-111827876D01*
X111739210Y-111891417D01*
X111810638Y-111969564D01*
X111864446Y-112060421D01*
X111889363Y-112126542D01*
X111904401Y-112196068D01*
X111909496Y-112269773D01*
X111904288Y-112351436D01*
X111889136Y-112426157D01*
X111864446Y-112494941D01*
X111830377Y-112559637D01*
X111789033Y-112617420D01*
X111740151Y-112668903D01*
X111684639Y-112713173D01*
X111621960Y-112750520D01*
X111551314Y-112780974D01*
X111438263Y-112810214D01*
X111312384Y-112820297D01*
X111184472Y-112810236D01*
X111068666Y-112780974D01*
X110995969Y-112750497D01*
X110932016Y-112713438D01*
X110875897Y-112669843D01*
X110804320Y-112591406D01*
X110749636Y-112498873D01*
X110724311Y-112431349D01*
X110708852Y-112358608D01*
X110703559Y-112279690D01*
X110703694Y-112277638D01*
X111077898Y-112277638D01*
X111082608Y-112325502D01*
X111096449Y-112369192D01*
X111118108Y-112409057D01*
X111145346Y-112443051D01*
X111178368Y-112471005D01*
X111217666Y-112492291D01*
X111260707Y-112505532D01*
X111306485Y-112509986D01*
X111352276Y-112505534D01*
X111395390Y-112492291D01*
X111434631Y-112471014D01*
X111467710Y-112443051D01*
X111494899Y-112409066D01*
X111516607Y-112369192D01*
X111530402Y-112325245D01*
X111535158Y-112275672D01*
X111530473Y-112229735D01*
X111516607Y-112187195D01*
X111494955Y-112148113D01*
X111467710Y-112114276D01*
X111434631Y-112086314D01*
X111395390Y-112065037D01*
X111352276Y-112051794D01*
X111306485Y-112047341D01*
X111260707Y-112051795D01*
X111217666Y-112065037D01*
X111178368Y-112086323D01*
X111145346Y-112114276D01*
X111118108Y-112148271D01*
X111096449Y-112188135D01*
X111082560Y-112231554D01*
X111077898Y-112277638D01*
X110703694Y-112277638D01*
X110708741Y-112200671D01*
X110723866Y-112127896D01*
X110748610Y-112060421D01*
X110782759Y-111997161D01*
X110824720Y-111940357D01*
X110874871Y-111889451D01*
X110962470Y-111826094D01*
X111066700Y-111777380D01*
X111180609Y-111747349D01*
X111306571Y-111737031D01*
X111393232Y-111741788D01*
G37*
G36*
X110143718Y-111151630D02*
G01*
X110143718Y-112782000D01*
X110499336Y-112782000D01*
X110499336Y-111151630D01*
X110143718Y-111151630D01*
G37*
G36*
X109546007Y-111775328D02*
G01*
X109546007Y-112782000D01*
X109901625Y-112782000D01*
X109901625Y-111775328D01*
X109546007Y-111775328D01*
G37*
G36*
X109923509Y-111389620D02*
G01*
X109919557Y-111349541D01*
X109907865Y-111312341D01*
X109889178Y-111278222D01*
X109864781Y-111248655D01*
X109835205Y-111224208D01*
X109801094Y-111205571D01*
X109763833Y-111193875D01*
X109723816Y-111189927D01*
X109683737Y-111193879D01*
X109646538Y-111205571D01*
X109612443Y-111224212D01*
X109582937Y-111248655D01*
X109558490Y-111278231D01*
X109539852Y-111312341D01*
X109528095Y-111349545D01*
X109524123Y-111389620D01*
X109528094Y-111429707D01*
X109539852Y-111466984D01*
X109558485Y-111501022D01*
X109582937Y-111530585D01*
X109612433Y-111554978D01*
X109646538Y-111573669D01*
X109683737Y-111585361D01*
X109723816Y-111589313D01*
X109763833Y-111585365D01*
X109801094Y-111573669D01*
X109835214Y-111554982D01*
X109864781Y-111530585D01*
X109889184Y-111501032D01*
X109907865Y-111466984D01*
X109919559Y-111429711D01*
X109923509Y-111389620D01*
G37*
G36*
X109303914Y-111775328D02*
G01*
X108948296Y-111775328D01*
X108948296Y-111902872D01*
X108896648Y-111847432D01*
X108847880Y-111808775D01*
X108801347Y-111783962D01*
X108722831Y-111761499D01*
X108626787Y-111753444D01*
X108525730Y-111762578D01*
X108445473Y-111787809D01*
X108375557Y-111829347D01*
X108317075Y-111885005D01*
X108280672Y-111939211D01*
X108258261Y-111998871D01*
X108246692Y-112064024D01*
X108242532Y-112142144D01*
X108242532Y-112782000D01*
X108598150Y-112782000D01*
X108598150Y-112273706D01*
X108601196Y-112202717D01*
X108609006Y-112153086D01*
X108624412Y-112110669D01*
X108647132Y-112079484D01*
X108672271Y-112059256D01*
X108699962Y-112046145D01*
X108762452Y-112036314D01*
X108820080Y-112042874D01*
X108865088Y-112061094D01*
X108900424Y-112090340D01*
X108925901Y-112129036D01*
X108942296Y-112179254D01*
X108948296Y-112244299D01*
X108948296Y-112782000D01*
X109303914Y-112782000D01*
X109303914Y-111775328D01*
G37*
G36*
X106240131Y-111796785D02*
G01*
X106312832Y-111723521D01*
X106390961Y-111673220D01*
X106475930Y-111643275D01*
X106570018Y-111633081D01*
X106653983Y-111641115D01*
X106730046Y-111664625D01*
X106798913Y-111702136D01*
X106856649Y-111750452D01*
X106903681Y-111809401D01*
X106940083Y-111879705D01*
X106962773Y-111956874D01*
X106970515Y-112041443D01*
X106962734Y-112127660D01*
X106940083Y-112205147D01*
X106903536Y-112275567D01*
X106855709Y-112335426D01*
X106797229Y-112384603D01*
X106729106Y-112422193D01*
X106654108Y-112445727D01*
X106571984Y-112453737D01*
X106483723Y-112444258D01*
X106400083Y-112415878D01*
X106319291Y-112367384D01*
X106240131Y-112295932D01*
X106240131Y-112751396D01*
X106279198Y-112765073D01*
X106366405Y-112792814D01*
X106443757Y-112811064D01*
X106520016Y-112822130D01*
X106594552Y-112825768D01*
X106695185Y-112819295D01*
X106792481Y-112800013D01*
X106887253Y-112767809D01*
X106977176Y-112723720D01*
X107059181Y-112669447D01*
X107133962Y-112604618D01*
X107199948Y-112530706D01*
X107256992Y-112447782D01*
X107305274Y-112355002D01*
X107340859Y-112256865D01*
X107362514Y-112152102D01*
X107369901Y-112039477D01*
X107362598Y-111926825D01*
X107341254Y-111822736D01*
X107306300Y-111725918D01*
X107258573Y-111634469D01*
X107201853Y-111552860D01*
X107135929Y-111480234D01*
X107061233Y-111416648D01*
X106978927Y-111363030D01*
X106888279Y-111319095D01*
X106792819Y-111286870D01*
X106694529Y-111267546D01*
X106592586Y-111261050D01*
X106505084Y-111265722D01*
X106419308Y-111279686D01*
X106333689Y-111302812D01*
X106240131Y-111337389D01*
X106240131Y-111796785D01*
G37*
G36*
X105675247Y-111151630D02*
G01*
X105675247Y-112782000D01*
X106030864Y-112782000D01*
X106030864Y-111151630D01*
X105675247Y-111151630D01*
G37*
G36*
X105041343Y-111747369D02*
G01*
X105108977Y-111761574D01*
X105171654Y-111784817D01*
X105257679Y-111834951D01*
X105330400Y-111899965D01*
X105389312Y-111978295D01*
X105434264Y-112070080D01*
X105462069Y-112169694D01*
X105471450Y-112275672D01*
X105461672Y-112388660D01*
X105433238Y-112490239D01*
X105387096Y-112582729D01*
X105326468Y-112661380D01*
X105252086Y-112725990D01*
X105165841Y-112774477D01*
X105070364Y-112804522D01*
X104963926Y-112814826D01*
X104869893Y-112805378D01*
X104788914Y-112778248D01*
X104718281Y-112733828D01*
X104656265Y-112670613D01*
X104656265Y-112782000D01*
X104300648Y-112782000D01*
X104300648Y-112279690D01*
X104644468Y-112279690D01*
X104649193Y-112325717D01*
X104663190Y-112368423D01*
X104684957Y-112407506D01*
X104712429Y-112441427D01*
X104745628Y-112469392D01*
X104785177Y-112490752D01*
X104828556Y-112503993D01*
X104874680Y-112508448D01*
X104922510Y-112503949D01*
X104966148Y-112490752D01*
X105005712Y-112469396D01*
X105038982Y-112441427D01*
X105066116Y-112407313D01*
X105087195Y-112367397D01*
X105100390Y-112323662D01*
X105104891Y-112275672D01*
X105100392Y-112229741D01*
X105087195Y-112187964D01*
X105066224Y-112149647D01*
X105038982Y-112115900D01*
X105005709Y-112087950D01*
X104966148Y-112066661D01*
X104922506Y-112053400D01*
X104874680Y-112048880D01*
X104828560Y-112053355D01*
X104785177Y-112066661D01*
X104745632Y-112087955D01*
X104712429Y-112115900D01*
X104685023Y-112149914D01*
X104663190Y-112189845D01*
X104649175Y-112233379D01*
X104644468Y-112279690D01*
X104300648Y-112279690D01*
X104300648Y-111775328D01*
X104656265Y-111775328D01*
X104656265Y-111875004D01*
X104722255Y-111816874D01*
X104795109Y-111775958D01*
X104876278Y-111751085D01*
X104967858Y-111742502D01*
X105041343Y-111747369D01*
G37*
G36*
X104059922Y-111775328D02*
G01*
X103704304Y-111775328D01*
X103704304Y-111941255D01*
X103662754Y-111884260D01*
X103616538Y-111838192D01*
X103565391Y-111801914D01*
X103508763Y-111775429D01*
X103445267Y-111759110D01*
X103373478Y-111753444D01*
X103343130Y-111753444D01*
X103304919Y-111757462D01*
X103304919Y-112098974D01*
X103377976Y-112072651D01*
X103457680Y-112063755D01*
X103536596Y-112072782D01*
X103596754Y-112097618D01*
X103642670Y-112137186D01*
X103675167Y-112189656D01*
X103696431Y-112259408D01*
X103704304Y-112351497D01*
X103704304Y-112782000D01*
X104059922Y-112782000D01*
X104059922Y-111775328D01*
G37*
G36*
X102792009Y-111151630D02*
G01*
X102792009Y-112138383D01*
X102419636Y-111775328D01*
X101933568Y-111775328D01*
X102437331Y-112240367D01*
X101904161Y-112782000D01*
X102402026Y-112782000D01*
X102792009Y-112371842D01*
X102792009Y-112782000D01*
X103147626Y-112782000D01*
X103147626Y-111151630D01*
X102792009Y-111151630D01*
G37*
%LPC*%
D11*
%TO.C,H9*%
X105000000Y-211750000D03*
%TD*%
D12*
%TO.C,H3*%
X108000000Y-160000000D03*
%TD*%
D13*
%TO.C,REF\u002A\u002A*%
X122740000Y-225500000D03*
%TD*%
D12*
%TO.C,H2*%
X122000000Y-142000000D03*
%TD*%
D14*
%TO.C,H5*%
X122000000Y-180000000D03*
%TD*%
%TO.C,H4*%
X108000000Y-180000000D03*
%TD*%
D11*
%TO.C,H11*%
X125000000Y-211750000D03*
%TD*%
%TO.C,H6*%
X105000000Y-196750000D03*
%TD*%
%TO.C,H8*%
X125000000Y-196750000D03*
%TD*%
D13*
%TO.C,REF\u002A\u002A*%
X107500000Y-103000000D03*
%TD*%
D12*
%TO.C,H1*%
X108000000Y-124000000D03*
%TD*%
D11*
%TO.C,H10*%
X115000000Y-211750000D03*
%TD*%
%TO.C,H7*%
X115000000Y-196750000D03*
%TD*%
%LPD*%
M02*
