%TF.GenerationSoftware,KiCad,Pcbnew,9.0.8*%
%TF.CreationDate,2026-04-07T13:52:52-04:00*%
%TF.ProjectId,lichen-stereo-klein-filter-controls,6c696368-656e-42d7-9374-6572656f2d6b,rev?*%
%TF.SameCoordinates,Original*%
%TF.FileFunction,Soldermask,Top*%
%TF.FilePolarity,Negative*%
%FSLAX46Y46*%
G04 Gerber Fmt 4.6, Leading zero omitted, Abs format (unit mm)*
G04 Created by KiCad (PCBNEW 9.0.8) date 2026-04-07 13:52:52*
%MOMM*%
%LPD*%
G01*
G04 APERTURE LIST*
G04 APERTURE END LIST*
G36*
X105256790Y-215600393D02*
G01*
X105420952Y-215653733D01*
X105574748Y-215732096D01*
X105714393Y-215833553D01*
X105836447Y-215955607D01*
X105937904Y-216095252D01*
X106016267Y-216249048D01*
X106069607Y-216413210D01*
X106096609Y-216583695D01*
X106096609Y-216756305D01*
X106069607Y-216926790D01*
X106016267Y-217090952D01*
X105937904Y-217244748D01*
X105836447Y-217384393D01*
X105714393Y-217506447D01*
X105574748Y-217607904D01*
X105420952Y-217686267D01*
X105256790Y-217739607D01*
X105086305Y-217766609D01*
X104913695Y-217766609D01*
X104743210Y-217739607D01*
X104579048Y-217686267D01*
X104425252Y-217607904D01*
X104285607Y-217506447D01*
X104163553Y-217384393D01*
X104062096Y-217244748D01*
X103983733Y-217090952D01*
X103930393Y-216926790D01*
X103903391Y-216756305D01*
X103903391Y-216583695D01*
X103930393Y-216413210D01*
X103983733Y-216249048D01*
X104062096Y-216095252D01*
X104163553Y-215955607D01*
X104285607Y-215833553D01*
X104425252Y-215732096D01*
X104579048Y-215653733D01*
X104743210Y-215600393D01*
X104913695Y-215573391D01*
X105086305Y-215573391D01*
X105256790Y-215600393D01*
G37*
G36*
X115256790Y-215600393D02*
G01*
X115420952Y-215653733D01*
X115574748Y-215732096D01*
X115714393Y-215833553D01*
X115836447Y-215955607D01*
X115937904Y-216095252D01*
X116016267Y-216249048D01*
X116069607Y-216413210D01*
X116096609Y-216583695D01*
X116096609Y-216756305D01*
X116069607Y-216926790D01*
X116016267Y-217090952D01*
X115937904Y-217244748D01*
X115836447Y-217384393D01*
X115714393Y-217506447D01*
X115574748Y-217607904D01*
X115420952Y-217686267D01*
X115256790Y-217739607D01*
X115086305Y-217766609D01*
X114913695Y-217766609D01*
X114743210Y-217739607D01*
X114579048Y-217686267D01*
X114425252Y-217607904D01*
X114285607Y-217506447D01*
X114163553Y-217384393D01*
X114062096Y-217244748D01*
X113983733Y-217090952D01*
X113930393Y-216926790D01*
X113903391Y-216756305D01*
X113903391Y-216583695D01*
X113930393Y-216413210D01*
X113983733Y-216249048D01*
X114062096Y-216095252D01*
X114163553Y-215955607D01*
X114285607Y-215833553D01*
X114425252Y-215732096D01*
X114579048Y-215653733D01*
X114743210Y-215600393D01*
X114913695Y-215573391D01*
X115086305Y-215573391D01*
X115256790Y-215600393D01*
G37*
G36*
X125256790Y-215600393D02*
G01*
X125420952Y-215653733D01*
X125574748Y-215732096D01*
X125714393Y-215833553D01*
X125836447Y-215955607D01*
X125937904Y-216095252D01*
X126016267Y-216249048D01*
X126069607Y-216413210D01*
X126096609Y-216583695D01*
X126096609Y-216756305D01*
X126069607Y-216926790D01*
X126016267Y-217090952D01*
X125937904Y-217244748D01*
X125836447Y-217384393D01*
X125714393Y-217506447D01*
X125574748Y-217607904D01*
X125420952Y-217686267D01*
X125256790Y-217739607D01*
X125086305Y-217766609D01*
X124913695Y-217766609D01*
X124743210Y-217739607D01*
X124579048Y-217686267D01*
X124425252Y-217607904D01*
X124285607Y-217506447D01*
X124163553Y-217384393D01*
X124062096Y-217244748D01*
X123983733Y-217090952D01*
X123930393Y-216926790D01*
X123903391Y-216756305D01*
X123903391Y-216583695D01*
X123930393Y-216413210D01*
X123983733Y-216249048D01*
X124062096Y-216095252D01*
X124163553Y-215955607D01*
X124285607Y-215833553D01*
X124425252Y-215732096D01*
X124579048Y-215653733D01*
X124743210Y-215600393D01*
X124913695Y-215573391D01*
X125086305Y-215573391D01*
X125256790Y-215600393D01*
G37*
G36*
X105256790Y-207300393D02*
G01*
X105420952Y-207353733D01*
X105574748Y-207432096D01*
X105714393Y-207533553D01*
X105836447Y-207655607D01*
X105937904Y-207795252D01*
X106016267Y-207949048D01*
X106069607Y-208113210D01*
X106096609Y-208283695D01*
X106096609Y-208456305D01*
X106069607Y-208626790D01*
X106016267Y-208790952D01*
X105937904Y-208944748D01*
X105836447Y-209084393D01*
X105714393Y-209206447D01*
X105574748Y-209307904D01*
X105420952Y-209386267D01*
X105256790Y-209439607D01*
X105086305Y-209466609D01*
X104913695Y-209466609D01*
X104743210Y-209439607D01*
X104579048Y-209386267D01*
X104425252Y-209307904D01*
X104285607Y-209206447D01*
X104163553Y-209084393D01*
X104062096Y-208944748D01*
X103983733Y-208790952D01*
X103930393Y-208626790D01*
X103903391Y-208456305D01*
X103903391Y-208283695D01*
X103930393Y-208113210D01*
X103983733Y-207949048D01*
X104062096Y-207795252D01*
X104163553Y-207655607D01*
X104285607Y-207533553D01*
X104425252Y-207432096D01*
X104579048Y-207353733D01*
X104743210Y-207300393D01*
X104913695Y-207273391D01*
X105086305Y-207273391D01*
X105256790Y-207300393D01*
G37*
G36*
X115256790Y-207300393D02*
G01*
X115420952Y-207353733D01*
X115574748Y-207432096D01*
X115714393Y-207533553D01*
X115836447Y-207655607D01*
X115937904Y-207795252D01*
X116016267Y-207949048D01*
X116069607Y-208113210D01*
X116096609Y-208283695D01*
X116096609Y-208456305D01*
X116069607Y-208626790D01*
X116016267Y-208790952D01*
X115937904Y-208944748D01*
X115836447Y-209084393D01*
X115714393Y-209206447D01*
X115574748Y-209307904D01*
X115420952Y-209386267D01*
X115256790Y-209439607D01*
X115086305Y-209466609D01*
X114913695Y-209466609D01*
X114743210Y-209439607D01*
X114579048Y-209386267D01*
X114425252Y-209307904D01*
X114285607Y-209206447D01*
X114163553Y-209084393D01*
X114062096Y-208944748D01*
X113983733Y-208790952D01*
X113930393Y-208626790D01*
X113903391Y-208456305D01*
X113903391Y-208283695D01*
X113930393Y-208113210D01*
X113983733Y-207949048D01*
X114062096Y-207795252D01*
X114163553Y-207655607D01*
X114285607Y-207533553D01*
X114425252Y-207432096D01*
X114579048Y-207353733D01*
X114743210Y-207300393D01*
X114913695Y-207273391D01*
X115086305Y-207273391D01*
X115256790Y-207300393D01*
G37*
G36*
X125256790Y-207300393D02*
G01*
X125420952Y-207353733D01*
X125574748Y-207432096D01*
X125714393Y-207533553D01*
X125836447Y-207655607D01*
X125937904Y-207795252D01*
X126016267Y-207949048D01*
X126069607Y-208113210D01*
X126096609Y-208283695D01*
X126096609Y-208456305D01*
X126069607Y-208626790D01*
X126016267Y-208790952D01*
X125937904Y-208944748D01*
X125836447Y-209084393D01*
X125714393Y-209206447D01*
X125574748Y-209307904D01*
X125420952Y-209386267D01*
X125256790Y-209439607D01*
X125086305Y-209466609D01*
X124913695Y-209466609D01*
X124743210Y-209439607D01*
X124579048Y-209386267D01*
X124425252Y-209307904D01*
X124285607Y-209206447D01*
X124163553Y-209084393D01*
X124062096Y-208944748D01*
X123983733Y-208790952D01*
X123930393Y-208626790D01*
X123903391Y-208456305D01*
X123903391Y-208283695D01*
X123930393Y-208113210D01*
X123983733Y-207949048D01*
X124062096Y-207795252D01*
X124163553Y-207655607D01*
X124285607Y-207533553D01*
X124425252Y-207432096D01*
X124579048Y-207353733D01*
X124743210Y-207300393D01*
X124913695Y-207273391D01*
X125086305Y-207273391D01*
X125256790Y-207300393D01*
G37*
G36*
X106038268Y-204177612D02*
G01*
X106070711Y-204199289D01*
X106092388Y-204231732D01*
X106100000Y-204270000D01*
X106100000Y-206270000D01*
X106092388Y-206308268D01*
X106070711Y-206340711D01*
X106038268Y-206362388D01*
X106000000Y-206370000D01*
X104000000Y-206370000D01*
X103961732Y-206362388D01*
X103929289Y-206340711D01*
X103907612Y-206308268D01*
X103900000Y-206270000D01*
X103900000Y-204270000D01*
X103907612Y-204231732D01*
X103929289Y-204199289D01*
X103961732Y-204177612D01*
X104000000Y-204170000D01*
X106000000Y-204170000D01*
X106038268Y-204177612D01*
G37*
G36*
X116038268Y-204177612D02*
G01*
X116070711Y-204199289D01*
X116092388Y-204231732D01*
X116100000Y-204270000D01*
X116100000Y-206270000D01*
X116092388Y-206308268D01*
X116070711Y-206340711D01*
X116038268Y-206362388D01*
X116000000Y-206370000D01*
X114000000Y-206370000D01*
X113961732Y-206362388D01*
X113929289Y-206340711D01*
X113907612Y-206308268D01*
X113900000Y-206270000D01*
X113900000Y-204270000D01*
X113907612Y-204231732D01*
X113929289Y-204199289D01*
X113961732Y-204177612D01*
X114000000Y-204170000D01*
X116000000Y-204170000D01*
X116038268Y-204177612D01*
G37*
G36*
X126038268Y-204177612D02*
G01*
X126070711Y-204199289D01*
X126092388Y-204231732D01*
X126100000Y-204270000D01*
X126100000Y-206270000D01*
X126092388Y-206308268D01*
X126070711Y-206340711D01*
X126038268Y-206362388D01*
X126000000Y-206370000D01*
X124000000Y-206370000D01*
X123961732Y-206362388D01*
X123929289Y-206340711D01*
X123907612Y-206308268D01*
X123900000Y-206270000D01*
X123900000Y-204270000D01*
X123907612Y-204231732D01*
X123929289Y-204199289D01*
X123961732Y-204177612D01*
X124000000Y-204170000D01*
X126000000Y-204170000D01*
X126038268Y-204177612D01*
G37*
G36*
X105256790Y-200600393D02*
G01*
X105420952Y-200653733D01*
X105574748Y-200732096D01*
X105714393Y-200833553D01*
X105836447Y-200955607D01*
X105937904Y-201095252D01*
X106016267Y-201249048D01*
X106069607Y-201413210D01*
X106096609Y-201583695D01*
X106096609Y-201756305D01*
X106069607Y-201926790D01*
X106016267Y-202090952D01*
X105937904Y-202244748D01*
X105836447Y-202384393D01*
X105714393Y-202506447D01*
X105574748Y-202607904D01*
X105420952Y-202686267D01*
X105256790Y-202739607D01*
X105086305Y-202766609D01*
X104913695Y-202766609D01*
X104743210Y-202739607D01*
X104579048Y-202686267D01*
X104425252Y-202607904D01*
X104285607Y-202506447D01*
X104163553Y-202384393D01*
X104062096Y-202244748D01*
X103983733Y-202090952D01*
X103930393Y-201926790D01*
X103903391Y-201756305D01*
X103903391Y-201583695D01*
X103930393Y-201413210D01*
X103983733Y-201249048D01*
X104062096Y-201095252D01*
X104163553Y-200955607D01*
X104285607Y-200833553D01*
X104425252Y-200732096D01*
X104579048Y-200653733D01*
X104743210Y-200600393D01*
X104913695Y-200573391D01*
X105086305Y-200573391D01*
X105256790Y-200600393D01*
G37*
G36*
X115256790Y-200600393D02*
G01*
X115420952Y-200653733D01*
X115574748Y-200732096D01*
X115714393Y-200833553D01*
X115836447Y-200955607D01*
X115937904Y-201095252D01*
X116016267Y-201249048D01*
X116069607Y-201413210D01*
X116096609Y-201583695D01*
X116096609Y-201756305D01*
X116069607Y-201926790D01*
X116016267Y-202090952D01*
X115937904Y-202244748D01*
X115836447Y-202384393D01*
X115714393Y-202506447D01*
X115574748Y-202607904D01*
X115420952Y-202686267D01*
X115256790Y-202739607D01*
X115086305Y-202766609D01*
X114913695Y-202766609D01*
X114743210Y-202739607D01*
X114579048Y-202686267D01*
X114425252Y-202607904D01*
X114285607Y-202506447D01*
X114163553Y-202384393D01*
X114062096Y-202244748D01*
X113983733Y-202090952D01*
X113930393Y-201926790D01*
X113903391Y-201756305D01*
X113903391Y-201583695D01*
X113930393Y-201413210D01*
X113983733Y-201249048D01*
X114062096Y-201095252D01*
X114163553Y-200955607D01*
X114285607Y-200833553D01*
X114425252Y-200732096D01*
X114579048Y-200653733D01*
X114743210Y-200600393D01*
X114913695Y-200573391D01*
X115086305Y-200573391D01*
X115256790Y-200600393D01*
G37*
G36*
X125256790Y-200600393D02*
G01*
X125420952Y-200653733D01*
X125574748Y-200732096D01*
X125714393Y-200833553D01*
X125836447Y-200955607D01*
X125937904Y-201095252D01*
X126016267Y-201249048D01*
X126069607Y-201413210D01*
X126096609Y-201583695D01*
X126096609Y-201756305D01*
X126069607Y-201926790D01*
X126016267Y-202090952D01*
X125937904Y-202244748D01*
X125836447Y-202384393D01*
X125714393Y-202506447D01*
X125574748Y-202607904D01*
X125420952Y-202686267D01*
X125256790Y-202739607D01*
X125086305Y-202766609D01*
X124913695Y-202766609D01*
X124743210Y-202739607D01*
X124579048Y-202686267D01*
X124425252Y-202607904D01*
X124285607Y-202506447D01*
X124163553Y-202384393D01*
X124062096Y-202244748D01*
X123983733Y-202090952D01*
X123930393Y-201926790D01*
X123903391Y-201756305D01*
X123903391Y-201583695D01*
X123930393Y-201413210D01*
X123983733Y-201249048D01*
X124062096Y-201095252D01*
X124163553Y-200955607D01*
X124285607Y-200833553D01*
X124425252Y-200732096D01*
X124579048Y-200653733D01*
X124743210Y-200600393D01*
X124913695Y-200573391D01*
X125086305Y-200573391D01*
X125256790Y-200600393D01*
G37*
G36*
X105256790Y-192300393D02*
G01*
X105420952Y-192353733D01*
X105574748Y-192432096D01*
X105714393Y-192533553D01*
X105836447Y-192655607D01*
X105937904Y-192795252D01*
X106016267Y-192949048D01*
X106069607Y-193113210D01*
X106096609Y-193283695D01*
X106096609Y-193456305D01*
X106069607Y-193626790D01*
X106016267Y-193790952D01*
X105937904Y-193944748D01*
X105836447Y-194084393D01*
X105714393Y-194206447D01*
X105574748Y-194307904D01*
X105420952Y-194386267D01*
X105256790Y-194439607D01*
X105086305Y-194466609D01*
X104913695Y-194466609D01*
X104743210Y-194439607D01*
X104579048Y-194386267D01*
X104425252Y-194307904D01*
X104285607Y-194206447D01*
X104163553Y-194084393D01*
X104062096Y-193944748D01*
X103983733Y-193790952D01*
X103930393Y-193626790D01*
X103903391Y-193456305D01*
X103903391Y-193283695D01*
X103930393Y-193113210D01*
X103983733Y-192949048D01*
X104062096Y-192795252D01*
X104163553Y-192655607D01*
X104285607Y-192533553D01*
X104425252Y-192432096D01*
X104579048Y-192353733D01*
X104743210Y-192300393D01*
X104913695Y-192273391D01*
X105086305Y-192273391D01*
X105256790Y-192300393D01*
G37*
G36*
X115256790Y-192300393D02*
G01*
X115420952Y-192353733D01*
X115574748Y-192432096D01*
X115714393Y-192533553D01*
X115836447Y-192655607D01*
X115937904Y-192795252D01*
X116016267Y-192949048D01*
X116069607Y-193113210D01*
X116096609Y-193283695D01*
X116096609Y-193456305D01*
X116069607Y-193626790D01*
X116016267Y-193790952D01*
X115937904Y-193944748D01*
X115836447Y-194084393D01*
X115714393Y-194206447D01*
X115574748Y-194307904D01*
X115420952Y-194386267D01*
X115256790Y-194439607D01*
X115086305Y-194466609D01*
X114913695Y-194466609D01*
X114743210Y-194439607D01*
X114579048Y-194386267D01*
X114425252Y-194307904D01*
X114285607Y-194206447D01*
X114163553Y-194084393D01*
X114062096Y-193944748D01*
X113983733Y-193790952D01*
X113930393Y-193626790D01*
X113903391Y-193456305D01*
X113903391Y-193283695D01*
X113930393Y-193113210D01*
X113983733Y-192949048D01*
X114062096Y-192795252D01*
X114163553Y-192655607D01*
X114285607Y-192533553D01*
X114425252Y-192432096D01*
X114579048Y-192353733D01*
X114743210Y-192300393D01*
X114913695Y-192273391D01*
X115086305Y-192273391D01*
X115256790Y-192300393D01*
G37*
G36*
X125256790Y-192300393D02*
G01*
X125420952Y-192353733D01*
X125574748Y-192432096D01*
X125714393Y-192533553D01*
X125836447Y-192655607D01*
X125937904Y-192795252D01*
X126016267Y-192949048D01*
X126069607Y-193113210D01*
X126096609Y-193283695D01*
X126096609Y-193456305D01*
X126069607Y-193626790D01*
X126016267Y-193790952D01*
X125937904Y-193944748D01*
X125836447Y-194084393D01*
X125714393Y-194206447D01*
X125574748Y-194307904D01*
X125420952Y-194386267D01*
X125256790Y-194439607D01*
X125086305Y-194466609D01*
X124913695Y-194466609D01*
X124743210Y-194439607D01*
X124579048Y-194386267D01*
X124425252Y-194307904D01*
X124285607Y-194206447D01*
X124163553Y-194084393D01*
X124062096Y-193944748D01*
X123983733Y-193790952D01*
X123930393Y-193626790D01*
X123903391Y-193456305D01*
X123903391Y-193283695D01*
X123930393Y-193113210D01*
X123983733Y-192949048D01*
X124062096Y-192795252D01*
X124163553Y-192655607D01*
X124285607Y-192533553D01*
X124425252Y-192432096D01*
X124579048Y-192353733D01*
X124743210Y-192300393D01*
X124913695Y-192273391D01*
X125086305Y-192273391D01*
X125256790Y-192300393D01*
G37*
G36*
X106038268Y-189177612D02*
G01*
X106070711Y-189199289D01*
X106092388Y-189231732D01*
X106100000Y-189270000D01*
X106100000Y-191270000D01*
X106092388Y-191308268D01*
X106070711Y-191340711D01*
X106038268Y-191362388D01*
X106000000Y-191370000D01*
X104000000Y-191370000D01*
X103961732Y-191362388D01*
X103929289Y-191340711D01*
X103907612Y-191308268D01*
X103900000Y-191270000D01*
X103900000Y-189270000D01*
X103907612Y-189231732D01*
X103929289Y-189199289D01*
X103961732Y-189177612D01*
X104000000Y-189170000D01*
X106000000Y-189170000D01*
X106038268Y-189177612D01*
G37*
G36*
X116038268Y-189177612D02*
G01*
X116070711Y-189199289D01*
X116092388Y-189231732D01*
X116100000Y-189270000D01*
X116100000Y-191270000D01*
X116092388Y-191308268D01*
X116070711Y-191340711D01*
X116038268Y-191362388D01*
X116000000Y-191370000D01*
X114000000Y-191370000D01*
X113961732Y-191362388D01*
X113929289Y-191340711D01*
X113907612Y-191308268D01*
X113900000Y-191270000D01*
X113900000Y-189270000D01*
X113907612Y-189231732D01*
X113929289Y-189199289D01*
X113961732Y-189177612D01*
X114000000Y-189170000D01*
X116000000Y-189170000D01*
X116038268Y-189177612D01*
G37*
G36*
X126038268Y-189177612D02*
G01*
X126070711Y-189199289D01*
X126092388Y-189231732D01*
X126100000Y-189270000D01*
X126100000Y-191270000D01*
X126092388Y-191308268D01*
X126070711Y-191340711D01*
X126038268Y-191362388D01*
X126000000Y-191370000D01*
X124000000Y-191370000D01*
X123961732Y-191362388D01*
X123929289Y-191340711D01*
X123907612Y-191308268D01*
X123900000Y-191270000D01*
X123900000Y-189270000D01*
X123907612Y-189231732D01*
X123929289Y-189199289D01*
X123961732Y-189177612D01*
X124000000Y-189170000D01*
X126000000Y-189170000D01*
X126038268Y-189177612D01*
G37*
G36*
X106354160Y-186104600D02*
G01*
X106378882Y-186121118D01*
X106395400Y-186145840D01*
X106401200Y-186175000D01*
X106401200Y-187825000D01*
X106395400Y-187854160D01*
X106378882Y-187878882D01*
X106354160Y-187895400D01*
X106325000Y-187901200D01*
X104675000Y-187901200D01*
X104645840Y-187895400D01*
X104621118Y-187878882D01*
X104604600Y-187854160D01*
X104598800Y-187825000D01*
X104598800Y-186175000D01*
X104604600Y-186145840D01*
X104621118Y-186121118D01*
X104645840Y-186104600D01*
X104675000Y-186098800D01*
X106325000Y-186098800D01*
X106354160Y-186104600D01*
G37*
G36*
X120354160Y-186104600D02*
G01*
X120378882Y-186121118D01*
X120395400Y-186145840D01*
X120401200Y-186175000D01*
X120401200Y-187825000D01*
X120395400Y-187854160D01*
X120378882Y-187878882D01*
X120354160Y-187895400D01*
X120325000Y-187901200D01*
X118675000Y-187901200D01*
X118645840Y-187895400D01*
X118621118Y-187878882D01*
X118604600Y-187854160D01*
X118598800Y-187825000D01*
X118598800Y-186175000D01*
X118604600Y-186145840D01*
X118621118Y-186121118D01*
X118645840Y-186104600D01*
X118675000Y-186098800D01*
X120325000Y-186098800D01*
X120354160Y-186104600D01*
G37*
G36*
X108261605Y-186137605D02*
G01*
X108424823Y-186205213D01*
X108571715Y-186303363D01*
X108696637Y-186428285D01*
X108794787Y-186575177D01*
X108862395Y-186738395D01*
X108896860Y-186911667D01*
X108896860Y-187088333D01*
X108862395Y-187261605D01*
X108794787Y-187424823D01*
X108696637Y-187571715D01*
X108571715Y-187696637D01*
X108424823Y-187794787D01*
X108261605Y-187862395D01*
X108088333Y-187896860D01*
X107911667Y-187896860D01*
X107738395Y-187862395D01*
X107575177Y-187794787D01*
X107428285Y-187696637D01*
X107303363Y-187571715D01*
X107205213Y-187424823D01*
X107137605Y-187261605D01*
X107103140Y-187088333D01*
X107103140Y-186911667D01*
X107137605Y-186738395D01*
X107205213Y-186575177D01*
X107303363Y-186428285D01*
X107428285Y-186303363D01*
X107575177Y-186205213D01*
X107738395Y-186137605D01*
X107911667Y-186103140D01*
X108088333Y-186103140D01*
X108261605Y-186137605D01*
G37*
G36*
X110761605Y-186137605D02*
G01*
X110924823Y-186205213D01*
X111071715Y-186303363D01*
X111196637Y-186428285D01*
X111294787Y-186575177D01*
X111362395Y-186738395D01*
X111396860Y-186911667D01*
X111396860Y-187088333D01*
X111362395Y-187261605D01*
X111294787Y-187424823D01*
X111196637Y-187571715D01*
X111071715Y-187696637D01*
X110924823Y-187794787D01*
X110761605Y-187862395D01*
X110588333Y-187896860D01*
X110411667Y-187896860D01*
X110238395Y-187862395D01*
X110075177Y-187794787D01*
X109928285Y-187696637D01*
X109803363Y-187571715D01*
X109705213Y-187424823D01*
X109637605Y-187261605D01*
X109603140Y-187088333D01*
X109603140Y-186911667D01*
X109637605Y-186738395D01*
X109705213Y-186575177D01*
X109803363Y-186428285D01*
X109928285Y-186303363D01*
X110075177Y-186205213D01*
X110238395Y-186137605D01*
X110411667Y-186103140D01*
X110588333Y-186103140D01*
X110761605Y-186137605D01*
G37*
G36*
X122261605Y-186137605D02*
G01*
X122424823Y-186205213D01*
X122571715Y-186303363D01*
X122696637Y-186428285D01*
X122794787Y-186575177D01*
X122862395Y-186738395D01*
X122896860Y-186911667D01*
X122896860Y-187088333D01*
X122862395Y-187261605D01*
X122794787Y-187424823D01*
X122696637Y-187571715D01*
X122571715Y-187696637D01*
X122424823Y-187794787D01*
X122261605Y-187862395D01*
X122088333Y-187896860D01*
X121911667Y-187896860D01*
X121738395Y-187862395D01*
X121575177Y-187794787D01*
X121428285Y-187696637D01*
X121303363Y-187571715D01*
X121205213Y-187424823D01*
X121137605Y-187261605D01*
X121103140Y-187088333D01*
X121103140Y-186911667D01*
X121137605Y-186738395D01*
X121205213Y-186575177D01*
X121303363Y-186428285D01*
X121428285Y-186303363D01*
X121575177Y-186205213D01*
X121738395Y-186137605D01*
X121911667Y-186103140D01*
X122088333Y-186103140D01*
X122261605Y-186137605D01*
G37*
G36*
X124761605Y-186137605D02*
G01*
X124924823Y-186205213D01*
X125071715Y-186303363D01*
X125196637Y-186428285D01*
X125294787Y-186575177D01*
X125362395Y-186738395D01*
X125396860Y-186911667D01*
X125396860Y-187088333D01*
X125362395Y-187261605D01*
X125294787Y-187424823D01*
X125196637Y-187571715D01*
X125071715Y-187696637D01*
X124924823Y-187794787D01*
X124761605Y-187862395D01*
X124588333Y-187896860D01*
X124411667Y-187896860D01*
X124238395Y-187862395D01*
X124075177Y-187794787D01*
X123928285Y-187696637D01*
X123803363Y-187571715D01*
X123705213Y-187424823D01*
X123637605Y-187261605D01*
X123603140Y-187088333D01*
X123603140Y-186911667D01*
X123637605Y-186738395D01*
X123705213Y-186575177D01*
X123803363Y-186428285D01*
X123928285Y-186303363D01*
X124075177Y-186205213D01*
X124238395Y-186137605D01*
X124411667Y-186103140D01*
X124588333Y-186103140D01*
X124761605Y-186137605D01*
G37*
G36*
X115280134Y-184833156D02*
G01*
X115459220Y-184891345D01*
X115626998Y-184976832D01*
X115779338Y-185087513D01*
X115912487Y-185220662D01*
X116023168Y-185373002D01*
X116108655Y-185540780D01*
X116166844Y-185719866D01*
X116196301Y-185905849D01*
X116196301Y-186094151D01*
X116166844Y-186280134D01*
X116108655Y-186459220D01*
X116023168Y-186626998D01*
X115912487Y-186779338D01*
X115779338Y-186912487D01*
X115626998Y-187023168D01*
X115459220Y-187108655D01*
X115280134Y-187166844D01*
X115094151Y-187196301D01*
X114905849Y-187196301D01*
X114719866Y-187166844D01*
X114540780Y-187108655D01*
X114373002Y-187023168D01*
X114220662Y-186912487D01*
X114087513Y-186779338D01*
X113976832Y-186626998D01*
X113891345Y-186459220D01*
X113833156Y-186280134D01*
X113803699Y-186094151D01*
X113803699Y-185905849D01*
X113833156Y-185719866D01*
X113891345Y-185540780D01*
X113976832Y-185373002D01*
X114087513Y-185220662D01*
X114220662Y-185087513D01*
X114373002Y-184976832D01*
X114540780Y-184891345D01*
X114719866Y-184833156D01*
X114905849Y-184803699D01*
X115094151Y-184803699D01*
X115280134Y-184833156D01*
G37*
G36*
X105087160Y-178371600D02*
G01*
X105111882Y-178388118D01*
X105128400Y-178412840D01*
X105134200Y-178442000D01*
X105134200Y-181558000D01*
X105128400Y-181587160D01*
X105111882Y-181611882D01*
X105087160Y-181628400D01*
X105058000Y-181634200D01*
X101942000Y-181634200D01*
X101912840Y-181628400D01*
X101888118Y-181611882D01*
X101871600Y-181587160D01*
X101865800Y-181558000D01*
X101865800Y-178442000D01*
X101871600Y-178412840D01*
X101888118Y-178388118D01*
X101912840Y-178371600D01*
X101942000Y-178365800D01*
X105058000Y-178365800D01*
X105087160Y-178371600D01*
G37*
G36*
X114087160Y-178371600D02*
G01*
X114111882Y-178388118D01*
X114128400Y-178412840D01*
X114134200Y-178442000D01*
X114134200Y-181558000D01*
X114128400Y-181587160D01*
X114111882Y-181611882D01*
X114087160Y-181628400D01*
X114058000Y-181634200D01*
X110942000Y-181634200D01*
X110912840Y-181628400D01*
X110888118Y-181611882D01*
X110871600Y-181587160D01*
X110865800Y-181558000D01*
X110865800Y-178442000D01*
X110871600Y-178412840D01*
X110888118Y-178388118D01*
X110912840Y-178371600D01*
X110942000Y-178365800D01*
X114058000Y-178365800D01*
X114087160Y-178371600D01*
G37*
G36*
X119087160Y-178371600D02*
G01*
X119111882Y-178388118D01*
X119128400Y-178412840D01*
X119134200Y-178442000D01*
X119134200Y-181558000D01*
X119128400Y-181587160D01*
X119111882Y-181611882D01*
X119087160Y-181628400D01*
X119058000Y-181634200D01*
X115942000Y-181634200D01*
X115912840Y-181628400D01*
X115888118Y-181611882D01*
X115871600Y-181587160D01*
X115865800Y-181558000D01*
X115865800Y-178442000D01*
X115871600Y-178412840D01*
X115888118Y-178388118D01*
X115912840Y-178371600D01*
X115942000Y-178365800D01*
X119058000Y-178365800D01*
X119087160Y-178371600D01*
G37*
G36*
X128087160Y-178371600D02*
G01*
X128111882Y-178388118D01*
X128128400Y-178412840D01*
X128134200Y-178442000D01*
X128134200Y-181558000D01*
X128128400Y-181587160D01*
X128111882Y-181611882D01*
X128087160Y-181628400D01*
X128058000Y-181634200D01*
X124942000Y-181634200D01*
X124912840Y-181628400D01*
X124888118Y-181611882D01*
X124871600Y-181587160D01*
X124865800Y-181558000D01*
X124865800Y-178442000D01*
X124871600Y-178412840D01*
X124888118Y-178388118D01*
X124912840Y-178371600D01*
X124942000Y-178365800D01*
X128058000Y-178365800D01*
X128087160Y-178371600D01*
G37*
G36*
X106354160Y-166104600D02*
G01*
X106378882Y-166121118D01*
X106395400Y-166145840D01*
X106401200Y-166175000D01*
X106401200Y-167825000D01*
X106395400Y-167854160D01*
X106378882Y-167878882D01*
X106354160Y-167895400D01*
X106325000Y-167901200D01*
X104675000Y-167901200D01*
X104645840Y-167895400D01*
X104621118Y-167878882D01*
X104604600Y-167854160D01*
X104598800Y-167825000D01*
X104598800Y-166175000D01*
X104604600Y-166145840D01*
X104621118Y-166121118D01*
X104645840Y-166104600D01*
X104675000Y-166098800D01*
X106325000Y-166098800D01*
X106354160Y-166104600D01*
G37*
G36*
X108261605Y-166137605D02*
G01*
X108424823Y-166205213D01*
X108571715Y-166303363D01*
X108696637Y-166428285D01*
X108794787Y-166575177D01*
X108862395Y-166738395D01*
X108896860Y-166911667D01*
X108896860Y-167088333D01*
X108862395Y-167261605D01*
X108794787Y-167424823D01*
X108696637Y-167571715D01*
X108571715Y-167696637D01*
X108424823Y-167794787D01*
X108261605Y-167862395D01*
X108088333Y-167896860D01*
X107911667Y-167896860D01*
X107738395Y-167862395D01*
X107575177Y-167794787D01*
X107428285Y-167696637D01*
X107303363Y-167571715D01*
X107205213Y-167424823D01*
X107137605Y-167261605D01*
X107103140Y-167088333D01*
X107103140Y-166911667D01*
X107137605Y-166738395D01*
X107205213Y-166575177D01*
X107303363Y-166428285D01*
X107428285Y-166303363D01*
X107575177Y-166205213D01*
X107738395Y-166137605D01*
X107911667Y-166103140D01*
X108088333Y-166103140D01*
X108261605Y-166137605D01*
G37*
G36*
X110761605Y-166137605D02*
G01*
X110924823Y-166205213D01*
X111071715Y-166303363D01*
X111196637Y-166428285D01*
X111294787Y-166575177D01*
X111362395Y-166738395D01*
X111396860Y-166911667D01*
X111396860Y-167088333D01*
X111362395Y-167261605D01*
X111294787Y-167424823D01*
X111196637Y-167571715D01*
X111071715Y-167696637D01*
X110924823Y-167794787D01*
X110761605Y-167862395D01*
X110588333Y-167896860D01*
X110411667Y-167896860D01*
X110238395Y-167862395D01*
X110075177Y-167794787D01*
X109928285Y-167696637D01*
X109803363Y-167571715D01*
X109705213Y-167424823D01*
X109637605Y-167261605D01*
X109603140Y-167088333D01*
X109603140Y-166911667D01*
X109637605Y-166738395D01*
X109705213Y-166575177D01*
X109803363Y-166428285D01*
X109928285Y-166303363D01*
X110075177Y-166205213D01*
X110238395Y-166137605D01*
X110411667Y-166103140D01*
X110588333Y-166103140D01*
X110761605Y-166137605D01*
G37*
G36*
X105087160Y-158371600D02*
G01*
X105111882Y-158388118D01*
X105128400Y-158412840D01*
X105134200Y-158442000D01*
X105134200Y-161558000D01*
X105128400Y-161587160D01*
X105111882Y-161611882D01*
X105087160Y-161628400D01*
X105058000Y-161634200D01*
X101942000Y-161634200D01*
X101912840Y-161628400D01*
X101888118Y-161611882D01*
X101871600Y-161587160D01*
X101865800Y-161558000D01*
X101865800Y-158442000D01*
X101871600Y-158412840D01*
X101888118Y-158388118D01*
X101912840Y-158371600D01*
X101942000Y-158365800D01*
X105058000Y-158365800D01*
X105087160Y-158371600D01*
G37*
G36*
X114087160Y-158371600D02*
G01*
X114111882Y-158388118D01*
X114128400Y-158412840D01*
X114134200Y-158442000D01*
X114134200Y-161558000D01*
X114128400Y-161587160D01*
X114111882Y-161611882D01*
X114087160Y-161628400D01*
X114058000Y-161634200D01*
X110942000Y-161634200D01*
X110912840Y-161628400D01*
X110888118Y-161611882D01*
X110871600Y-161587160D01*
X110865800Y-161558000D01*
X110865800Y-158442000D01*
X110871600Y-158412840D01*
X110888118Y-158388118D01*
X110912840Y-158371600D01*
X110942000Y-158365800D01*
X114058000Y-158365800D01*
X114087160Y-158371600D01*
G37*
G36*
X119790285Y-151043060D02*
G01*
X119971397Y-151118079D01*
X120134393Y-151226990D01*
X120273010Y-151365607D01*
X120381921Y-151528603D01*
X120456940Y-151709715D01*
X120495185Y-151901983D01*
X120495185Y-152098017D01*
X120456940Y-152290285D01*
X120381921Y-152471397D01*
X120273010Y-152634393D01*
X120134393Y-152773010D01*
X119971397Y-152881921D01*
X119790285Y-152956940D01*
X119598017Y-152995185D01*
X119401983Y-152995185D01*
X119209715Y-152956940D01*
X119028603Y-152881921D01*
X118865607Y-152773010D01*
X118726990Y-152634393D01*
X118618079Y-152471397D01*
X118543060Y-152290285D01*
X118504815Y-152098017D01*
X118504815Y-151901983D01*
X118543060Y-151709715D01*
X118618079Y-151528603D01*
X118726990Y-151365607D01*
X118865607Y-151226990D01*
X119028603Y-151118079D01*
X119209715Y-151043060D01*
X119401983Y-151004815D01*
X119598017Y-151004815D01*
X119790285Y-151043060D01*
G37*
G36*
X122290285Y-151043060D02*
G01*
X122471397Y-151118079D01*
X122634393Y-151226990D01*
X122773010Y-151365607D01*
X122881921Y-151528603D01*
X122956940Y-151709715D01*
X122995185Y-151901983D01*
X122995185Y-152098017D01*
X122956940Y-152290285D01*
X122881921Y-152471397D01*
X122773010Y-152634393D01*
X122634393Y-152773010D01*
X122471397Y-152881921D01*
X122290285Y-152956940D01*
X122098017Y-152995185D01*
X121901983Y-152995185D01*
X121709715Y-152956940D01*
X121528603Y-152881921D01*
X121365607Y-152773010D01*
X121226990Y-152634393D01*
X121118079Y-152471397D01*
X121043060Y-152290285D01*
X121004815Y-152098017D01*
X121004815Y-151901983D01*
X121043060Y-151709715D01*
X121118079Y-151528603D01*
X121226990Y-151365607D01*
X121365607Y-151226990D01*
X121528603Y-151118079D01*
X121709715Y-151043060D01*
X121901983Y-151004815D01*
X122098017Y-151004815D01*
X122290285Y-151043060D01*
G37*
G36*
X124790285Y-151043060D02*
G01*
X124971397Y-151118079D01*
X125134393Y-151226990D01*
X125273010Y-151365607D01*
X125381921Y-151528603D01*
X125456940Y-151709715D01*
X125495185Y-151901983D01*
X125495185Y-152098017D01*
X125456940Y-152290285D01*
X125381921Y-152471397D01*
X125273010Y-152634393D01*
X125134393Y-152773010D01*
X124971397Y-152881921D01*
X124790285Y-152956940D01*
X124598017Y-152995185D01*
X124401983Y-152995185D01*
X124209715Y-152956940D01*
X124028603Y-152881921D01*
X123865607Y-152773010D01*
X123726990Y-152634393D01*
X123618079Y-152471397D01*
X123543060Y-152290285D01*
X123504815Y-152098017D01*
X123504815Y-151901983D01*
X123543060Y-151709715D01*
X123618079Y-151528603D01*
X123726990Y-151365607D01*
X123865607Y-151226990D01*
X124028603Y-151118079D01*
X124209715Y-151043060D01*
X124401983Y-151004815D01*
X124598017Y-151004815D01*
X124790285Y-151043060D01*
G37*
G36*
X103461256Y-149038754D02*
G01*
X103624257Y-149106271D01*
X103770954Y-149204291D01*
X103895709Y-149329046D01*
X103993729Y-149475743D01*
X104061246Y-149638744D01*
X104095666Y-149811785D01*
X104095666Y-149988215D01*
X104061246Y-150161256D01*
X103993729Y-150324257D01*
X103895709Y-150470954D01*
X103770954Y-150595709D01*
X103624257Y-150693729D01*
X103461256Y-150761246D01*
X103288215Y-150795666D01*
X103111785Y-150795666D01*
X102938744Y-150761246D01*
X102775743Y-150693729D01*
X102629046Y-150595709D01*
X102504291Y-150470954D01*
X102406271Y-150324257D01*
X102338754Y-150161256D01*
X102304334Y-149988215D01*
X102304334Y-149811785D01*
X102338754Y-149638744D01*
X102406271Y-149475743D01*
X102504291Y-149329046D01*
X102629046Y-149204291D01*
X102775743Y-149106271D01*
X102938744Y-149038754D01*
X103111785Y-149004334D01*
X103288215Y-149004334D01*
X103461256Y-149038754D01*
G37*
G36*
X108461256Y-149038754D02*
G01*
X108624257Y-149106271D01*
X108770954Y-149204291D01*
X108895709Y-149329046D01*
X108993729Y-149475743D01*
X109061246Y-149638744D01*
X109095666Y-149811785D01*
X109095666Y-149988215D01*
X109061246Y-150161256D01*
X108993729Y-150324257D01*
X108895709Y-150470954D01*
X108770954Y-150595709D01*
X108624257Y-150693729D01*
X108461256Y-150761246D01*
X108288215Y-150795666D01*
X108111785Y-150795666D01*
X107938744Y-150761246D01*
X107775743Y-150693729D01*
X107629046Y-150595709D01*
X107504291Y-150470954D01*
X107406271Y-150324257D01*
X107338754Y-150161256D01*
X107304334Y-149988215D01*
X107304334Y-149811785D01*
X107338754Y-149638744D01*
X107406271Y-149475743D01*
X107504291Y-149329046D01*
X107629046Y-149204291D01*
X107775743Y-149106271D01*
X107938744Y-149038754D01*
X108111785Y-149004334D01*
X108288215Y-149004334D01*
X108461256Y-149038754D01*
G37*
G36*
X120438268Y-148507612D02*
G01*
X120470711Y-148529289D01*
X120492388Y-148561732D01*
X120500000Y-148600000D01*
X120500000Y-150400000D01*
X120492388Y-150438268D01*
X120470711Y-150470711D01*
X120438268Y-150492388D01*
X120400000Y-150500000D01*
X118600000Y-150500000D01*
X118561732Y-150492388D01*
X118529289Y-150470711D01*
X118507612Y-150438268D01*
X118500000Y-150400000D01*
X118500000Y-148600000D01*
X118507612Y-148561732D01*
X118529289Y-148529289D01*
X118561732Y-148507612D01*
X118600000Y-148500000D01*
X120400000Y-148500000D01*
X120438268Y-148507612D01*
G37*
G36*
X122290285Y-148543060D02*
G01*
X122471397Y-148618079D01*
X122634393Y-148726990D01*
X122773010Y-148865607D01*
X122881921Y-149028603D01*
X122956940Y-149209715D01*
X122995185Y-149401983D01*
X122995185Y-149598017D01*
X122956940Y-149790285D01*
X122881921Y-149971397D01*
X122773010Y-150134393D01*
X122634393Y-150273010D01*
X122471397Y-150381921D01*
X122290285Y-150456940D01*
X122098017Y-150495185D01*
X121901983Y-150495185D01*
X121709715Y-150456940D01*
X121528603Y-150381921D01*
X121365607Y-150273010D01*
X121226990Y-150134393D01*
X121118079Y-149971397D01*
X121043060Y-149790285D01*
X121004815Y-149598017D01*
X121004815Y-149401983D01*
X121043060Y-149209715D01*
X121118079Y-149028603D01*
X121226990Y-148865607D01*
X121365607Y-148726990D01*
X121528603Y-148618079D01*
X121709715Y-148543060D01*
X121901983Y-148504815D01*
X122098017Y-148504815D01*
X122290285Y-148543060D01*
G37*
G36*
X124790285Y-148543060D02*
G01*
X124971397Y-148618079D01*
X125134393Y-148726990D01*
X125273010Y-148865607D01*
X125381921Y-149028603D01*
X125456940Y-149209715D01*
X125495185Y-149401983D01*
X125495185Y-149598017D01*
X125456940Y-149790285D01*
X125381921Y-149971397D01*
X125273010Y-150134393D01*
X125134393Y-150273010D01*
X124971397Y-150381921D01*
X124790285Y-150456940D01*
X124598017Y-150495185D01*
X124401983Y-150495185D01*
X124209715Y-150456940D01*
X124028603Y-150381921D01*
X123865607Y-150273010D01*
X123726990Y-150134393D01*
X123618079Y-149971397D01*
X123543060Y-149790285D01*
X123504815Y-149598017D01*
X123504815Y-149401983D01*
X123543060Y-149209715D01*
X123618079Y-149028603D01*
X123726990Y-148865607D01*
X123865607Y-148726990D01*
X124028603Y-148618079D01*
X124209715Y-148543060D01*
X124401983Y-148504815D01*
X124598017Y-148504815D01*
X124790285Y-148543060D01*
G37*
G36*
X103461256Y-144238754D02*
G01*
X103624257Y-144306271D01*
X103770954Y-144404291D01*
X103895709Y-144529046D01*
X103993729Y-144675743D01*
X104061246Y-144838744D01*
X104095666Y-145011785D01*
X104095666Y-145188215D01*
X104061246Y-145361256D01*
X103993729Y-145524257D01*
X103895709Y-145670954D01*
X103770954Y-145795709D01*
X103624257Y-145893729D01*
X103461256Y-145961246D01*
X103288215Y-145995666D01*
X103111785Y-145995666D01*
X102938744Y-145961246D01*
X102775743Y-145893729D01*
X102629046Y-145795709D01*
X102504291Y-145670954D01*
X102406271Y-145524257D01*
X102338754Y-145361256D01*
X102304334Y-145188215D01*
X102304334Y-145011785D01*
X102338754Y-144838744D01*
X102406271Y-144675743D01*
X102504291Y-144529046D01*
X102629046Y-144404291D01*
X102775743Y-144306271D01*
X102938744Y-144238754D01*
X103111785Y-144204334D01*
X103288215Y-144204334D01*
X103461256Y-144238754D01*
G37*
G36*
X108461256Y-144238754D02*
G01*
X108624257Y-144306271D01*
X108770954Y-144404291D01*
X108895709Y-144529046D01*
X108993729Y-144675743D01*
X109061246Y-144838744D01*
X109095666Y-145011785D01*
X109095666Y-145188215D01*
X109061246Y-145361256D01*
X108993729Y-145524257D01*
X108895709Y-145670954D01*
X108770954Y-145795709D01*
X108624257Y-145893729D01*
X108461256Y-145961246D01*
X108288215Y-145995666D01*
X108111785Y-145995666D01*
X107938744Y-145961246D01*
X107775743Y-145893729D01*
X107629046Y-145795709D01*
X107504291Y-145670954D01*
X107406271Y-145524257D01*
X107338754Y-145361256D01*
X107304334Y-145188215D01*
X107304334Y-145011785D01*
X107338754Y-144838744D01*
X107406271Y-144675743D01*
X107504291Y-144529046D01*
X107629046Y-144404291D01*
X107775743Y-144306271D01*
X107938744Y-144238754D01*
X108111785Y-144204334D01*
X108288215Y-144204334D01*
X108461256Y-144238754D01*
G37*
G36*
X118679160Y-140529600D02*
G01*
X118703882Y-140546118D01*
X118720400Y-140570840D01*
X118726200Y-140600000D01*
X118726200Y-143400000D01*
X118720400Y-143429160D01*
X118703882Y-143453882D01*
X118679160Y-143470400D01*
X118650000Y-143476200D01*
X115850000Y-143476200D01*
X115820840Y-143470400D01*
X115796118Y-143453882D01*
X115779600Y-143429160D01*
X115773800Y-143400000D01*
X115773800Y-140600000D01*
X115779600Y-140570840D01*
X115796118Y-140546118D01*
X115820840Y-140529600D01*
X115850000Y-140523800D01*
X118650000Y-140523800D01*
X118679160Y-140529600D01*
G37*
G36*
X128179160Y-140529600D02*
G01*
X128203882Y-140546118D01*
X128220400Y-140570840D01*
X128226200Y-140600000D01*
X128226200Y-143400000D01*
X128220400Y-143429160D01*
X128203882Y-143453882D01*
X128179160Y-143470400D01*
X128150000Y-143476200D01*
X125350000Y-143476200D01*
X125320840Y-143470400D01*
X125296118Y-143453882D01*
X125279600Y-143429160D01*
X125273800Y-143400000D01*
X125273800Y-140600000D01*
X125279600Y-140570840D01*
X125296118Y-140546118D01*
X125320840Y-140529600D01*
X125350000Y-140523800D01*
X128150000Y-140523800D01*
X128179160Y-140529600D01*
G37*
G36*
X103461256Y-139238754D02*
G01*
X103624257Y-139306271D01*
X103770954Y-139404291D01*
X103895709Y-139529046D01*
X103993729Y-139675743D01*
X104061246Y-139838744D01*
X104095666Y-140011785D01*
X104095666Y-140188215D01*
X104061246Y-140361256D01*
X103993729Y-140524257D01*
X103895709Y-140670954D01*
X103770954Y-140795709D01*
X103624257Y-140893729D01*
X103461256Y-140961246D01*
X103288215Y-140995666D01*
X103111785Y-140995666D01*
X102938744Y-140961246D01*
X102775743Y-140893729D01*
X102629046Y-140795709D01*
X102504291Y-140670954D01*
X102406271Y-140524257D01*
X102338754Y-140361256D01*
X102304334Y-140188215D01*
X102304334Y-140011785D01*
X102338754Y-139838744D01*
X102406271Y-139675743D01*
X102504291Y-139529046D01*
X102629046Y-139404291D01*
X102775743Y-139306271D01*
X102938744Y-139238754D01*
X103111785Y-139204334D01*
X103288215Y-139204334D01*
X103461256Y-139238754D01*
G37*
G36*
X108461256Y-139238754D02*
G01*
X108624257Y-139306271D01*
X108770954Y-139404291D01*
X108895709Y-139529046D01*
X108993729Y-139675743D01*
X109061246Y-139838744D01*
X109095666Y-140011785D01*
X109095666Y-140188215D01*
X109061246Y-140361256D01*
X108993729Y-140524257D01*
X108895709Y-140670954D01*
X108770954Y-140795709D01*
X108624257Y-140893729D01*
X108461256Y-140961246D01*
X108288215Y-140995666D01*
X108111785Y-140995666D01*
X107938744Y-140961246D01*
X107775743Y-140893729D01*
X107629046Y-140795709D01*
X107504291Y-140670954D01*
X107406271Y-140524257D01*
X107338754Y-140361256D01*
X107304334Y-140188215D01*
X107304334Y-140011785D01*
X107338754Y-139838744D01*
X107406271Y-139675743D01*
X107504291Y-139529046D01*
X107629046Y-139404291D01*
X107775743Y-139306271D01*
X107938744Y-139238754D01*
X108111785Y-139204334D01*
X108288215Y-139204334D01*
X108461256Y-139238754D01*
G37*
G36*
X103461256Y-134938754D02*
G01*
X103624257Y-135006271D01*
X103770954Y-135104291D01*
X103895709Y-135229046D01*
X103993729Y-135375743D01*
X104061246Y-135538744D01*
X104095666Y-135711785D01*
X104095666Y-135888215D01*
X104061246Y-136061256D01*
X103993729Y-136224257D01*
X103895709Y-136370954D01*
X103770954Y-136495709D01*
X103624257Y-136593729D01*
X103461256Y-136661246D01*
X103288215Y-136695666D01*
X103111785Y-136695666D01*
X102938744Y-136661246D01*
X102775743Y-136593729D01*
X102629046Y-136495709D01*
X102504291Y-136370954D01*
X102406271Y-136224257D01*
X102338754Y-136061256D01*
X102304334Y-135888215D01*
X102304334Y-135711785D01*
X102338754Y-135538744D01*
X102406271Y-135375743D01*
X102504291Y-135229046D01*
X102629046Y-135104291D01*
X102775743Y-135006271D01*
X102938744Y-134938754D01*
X103111785Y-134904334D01*
X103288215Y-134904334D01*
X103461256Y-134938754D01*
G37*
G36*
X108461256Y-134938754D02*
G01*
X108624257Y-135006271D01*
X108770954Y-135104291D01*
X108895709Y-135229046D01*
X108993729Y-135375743D01*
X109061246Y-135538744D01*
X109095666Y-135711785D01*
X109095666Y-135888215D01*
X109061246Y-136061256D01*
X108993729Y-136224257D01*
X108895709Y-136370954D01*
X108770954Y-136495709D01*
X108624257Y-136593729D01*
X108461256Y-136661246D01*
X108288215Y-136695666D01*
X108111785Y-136695666D01*
X107938744Y-136661246D01*
X107775743Y-136593729D01*
X107629046Y-136495709D01*
X107504291Y-136370954D01*
X107406271Y-136224257D01*
X107338754Y-136061256D01*
X107304334Y-135888215D01*
X107304334Y-135711785D01*
X107338754Y-135538744D01*
X107406271Y-135375743D01*
X107504291Y-135229046D01*
X107629046Y-135104291D01*
X107775743Y-135006271D01*
X107938744Y-134938754D01*
X108111785Y-134904334D01*
X108288215Y-134904334D01*
X108461256Y-134938754D01*
G37*
G36*
X106354160Y-130104600D02*
G01*
X106378882Y-130121118D01*
X106395400Y-130145840D01*
X106401200Y-130175000D01*
X106401200Y-131825000D01*
X106395400Y-131854160D01*
X106378882Y-131878882D01*
X106354160Y-131895400D01*
X106325000Y-131901200D01*
X104675000Y-131901200D01*
X104645840Y-131895400D01*
X104621118Y-131878882D01*
X104604600Y-131854160D01*
X104598800Y-131825000D01*
X104598800Y-130175000D01*
X104604600Y-130145840D01*
X104621118Y-130121118D01*
X104645840Y-130104600D01*
X104675000Y-130098800D01*
X106325000Y-130098800D01*
X106354160Y-130104600D01*
G37*
G36*
X108261605Y-130137605D02*
G01*
X108424823Y-130205213D01*
X108571715Y-130303363D01*
X108696637Y-130428285D01*
X108794787Y-130575177D01*
X108862395Y-130738395D01*
X108896860Y-130911667D01*
X108896860Y-131088333D01*
X108862395Y-131261605D01*
X108794787Y-131424823D01*
X108696637Y-131571715D01*
X108571715Y-131696637D01*
X108424823Y-131794787D01*
X108261605Y-131862395D01*
X108088333Y-131896860D01*
X107911667Y-131896860D01*
X107738395Y-131862395D01*
X107575177Y-131794787D01*
X107428285Y-131696637D01*
X107303363Y-131571715D01*
X107205213Y-131424823D01*
X107137605Y-131261605D01*
X107103140Y-131088333D01*
X107103140Y-130911667D01*
X107137605Y-130738395D01*
X107205213Y-130575177D01*
X107303363Y-130428285D01*
X107428285Y-130303363D01*
X107575177Y-130205213D01*
X107738395Y-130137605D01*
X107911667Y-130103140D01*
X108088333Y-130103140D01*
X108261605Y-130137605D01*
G37*
G36*
X110761605Y-130137605D02*
G01*
X110924823Y-130205213D01*
X111071715Y-130303363D01*
X111196637Y-130428285D01*
X111294787Y-130575177D01*
X111362395Y-130738395D01*
X111396860Y-130911667D01*
X111396860Y-131088333D01*
X111362395Y-131261605D01*
X111294787Y-131424823D01*
X111196637Y-131571715D01*
X111071715Y-131696637D01*
X110924823Y-131794787D01*
X110761605Y-131862395D01*
X110588333Y-131896860D01*
X110411667Y-131896860D01*
X110238395Y-131862395D01*
X110075177Y-131794787D01*
X109928285Y-131696637D01*
X109803363Y-131571715D01*
X109705213Y-131424823D01*
X109637605Y-131261605D01*
X109603140Y-131088333D01*
X109603140Y-130911667D01*
X109637605Y-130738395D01*
X109705213Y-130575177D01*
X109803363Y-130428285D01*
X109928285Y-130303363D01*
X110075177Y-130205213D01*
X110238395Y-130137605D01*
X110411667Y-130103140D01*
X110588333Y-130103140D01*
X110761605Y-130137605D01*
G37*
G36*
X105087160Y-122371600D02*
G01*
X105111882Y-122388118D01*
X105128400Y-122412840D01*
X105134200Y-122442000D01*
X105134200Y-125558000D01*
X105128400Y-125587160D01*
X105111882Y-125611882D01*
X105087160Y-125628400D01*
X105058000Y-125634200D01*
X101942000Y-125634200D01*
X101912840Y-125628400D01*
X101888118Y-125611882D01*
X101871600Y-125587160D01*
X101865800Y-125558000D01*
X101865800Y-122442000D01*
X101871600Y-122412840D01*
X101888118Y-122388118D01*
X101912840Y-122371600D01*
X101942000Y-122365800D01*
X105058000Y-122365800D01*
X105087160Y-122371600D01*
G37*
G36*
X114087160Y-122371600D02*
G01*
X114111882Y-122388118D01*
X114128400Y-122412840D01*
X114134200Y-122442000D01*
X114134200Y-125558000D01*
X114128400Y-125587160D01*
X114111882Y-125611882D01*
X114087160Y-125628400D01*
X114058000Y-125634200D01*
X110942000Y-125634200D01*
X110912840Y-125628400D01*
X110888118Y-125611882D01*
X110871600Y-125587160D01*
X110865800Y-125558000D01*
X110865800Y-122442000D01*
X110871600Y-122412840D01*
X110888118Y-122388118D01*
X110912840Y-122371600D01*
X110942000Y-122365800D01*
X114058000Y-122365800D01*
X114087160Y-122371600D01*
G37*
G36*
X115280134Y-112833156D02*
G01*
X115459220Y-112891345D01*
X115626998Y-112976832D01*
X115779338Y-113087513D01*
X115912487Y-113220662D01*
X116023168Y-113373002D01*
X116108655Y-113540780D01*
X116166844Y-113719866D01*
X116196301Y-113905849D01*
X116196301Y-114094151D01*
X116166844Y-114280134D01*
X116108655Y-114459220D01*
X116023168Y-114626998D01*
X115912487Y-114779338D01*
X115779338Y-114912487D01*
X115626998Y-115023168D01*
X115459220Y-115108655D01*
X115280134Y-115166844D01*
X115094151Y-115196301D01*
X114905849Y-115196301D01*
X114719866Y-115166844D01*
X114540780Y-115108655D01*
X114373002Y-115023168D01*
X114220662Y-114912487D01*
X114087513Y-114779338D01*
X113976832Y-114626998D01*
X113891345Y-114459220D01*
X113833156Y-114280134D01*
X113803699Y-114094151D01*
X113803699Y-113905849D01*
X113833156Y-113719866D01*
X113891345Y-113540780D01*
X113976832Y-113373002D01*
X114087513Y-113220662D01*
X114220662Y-113087513D01*
X114373002Y-112976832D01*
X114540780Y-112891345D01*
X114719866Y-112833156D01*
X114905849Y-112803699D01*
X115094151Y-112803699D01*
X115280134Y-112833156D01*
G37*
M02*
