M48
; DRILL file {KiCad 9.0.8} date 2026-04-07T13:52:53-0400
; FORMAT={-:-/ absolute / inch / decimal}
; #@! TF.CreationDate,2026-04-07T13:52:53-04:00
; #@! TF.GenerationSoftware,Kicad,Pcbnew,9.0.8
; #@! TF.FileFunction,Plated,1,2,PTH
FMAT,2
INCH
; #@! TA.AperFunction,Plated,PTH,ViaDrill
T1C0.0118
; #@! TA.AperFunction,Plated,PTH,ViaDrill
T2C0.0157
; #@! TA.AperFunction,Plated,PTH,ComponentDrill
T3C0.0315
; #@! TA.AperFunction,Plated,PTH,ComponentDrill
T4C0.0394
; #@! TA.AperFunction,Plated,PTH,ComponentDrill
T5C0.0433
; #@! TA.AperFunction,Plated,PTH,ComponentDrill
T6C0.0827
%
G90
G05
T1
X3.9961Y-6.0118
X4.0315Y-6.0039
X4.1734Y-5.0395
X4.315Y-4.7323
X4.4292Y-6.3897
X4.4961Y-6.4291
X4.5591Y-5.9961
X4.563Y-4.9055
X4.563Y-5.2323
X4.5728Y-5.8406
X4.5984Y-5.3701
X4.6137Y-4.8966
X4.6409Y-4.6228
X4.6909Y-6.5752
X4.6909Y-6.8465
X4.7047Y-5.7913
X4.7165Y-7.4488
X4.7165Y-8.3386
X4.8012Y-4.5256
X4.8031Y-7.0748
X4.8307Y-4.9221
X4.8307Y-5.0551
X4.8433Y-4.6228
X4.8583Y-5.701
X5.0071Y-4.5228
X5.0197Y-5.3661
X5.0236Y-5.4409
X5.0472Y-4.9646
T2
X3.998Y-4.9941
X4.0039Y-4.7047
X4.0079Y-8.0433
X4.0177Y-8.2539
X4.0276Y-4.5
X4.0276Y-8.4173
X4.0472Y-7.3661
X4.0512Y-4.6102
X4.0591Y-4.4016
X4.0591Y-6.9724
X4.063Y-6.5669
X4.0787Y-6.685
X4.0787Y-6.748
X4.0787Y-6.8268
X4.0906Y-5.1024
X4.1102Y-6.9173
X4.126Y-4.563
X4.126Y-4.752
X4.1299Y-4.4449
X4.1299Y-6.4173
X4.1299Y-8.4409
X4.1378Y-7.2087
X4.1457Y-6.8071
X4.1614Y-6.1929
X4.248Y-7.7874
X4.2559Y-5.4331
X4.2677Y-4.563
X4.2677Y-7.6024
X4.2717Y-8.5118
X4.2756Y-5.8071
X4.2756Y-6.0079
X4.2776Y-7.1772
X4.2795Y-7.4331
X4.2835Y-6.1811
X4.2835Y-6.9173
X4.2854Y-7.9252
X4.2913Y-4.6339
X4.2953Y-5.2441
X4.3031Y-4.9567
X4.311Y-5.6299
X4.315Y-6.0472
X4.315Y-8.0039
X4.3189Y-5.4291
X4.3268Y-4.8346
X4.3386Y-8.1319
X4.3425Y-4.4724
X4.3425Y-6.1535
X4.3465Y-5.8346
X4.3465Y-7.2165
X4.3622Y-4.6772
X4.374Y-6.9528
X4.3819Y-6.8543
X4.3898Y-7.9331
X4.3937Y-5.8031
X4.3976Y-8.4803
X4.4016Y-8.3583
X4.4075Y-5.2106
X4.4134Y-4.6024
X4.4134Y-7.4134
X4.4154Y-7.685
X4.4252Y-6.4567
X4.4252Y-6.5984
X4.4291Y-5.3228
X4.4528Y-6.0394
X4.4685Y-5.6378
X4.4685Y-6.0827
X4.4724Y-6.1496
X4.4764Y-4.7795
X4.4803Y-5.0984
X4.4843Y-5.8425
X4.5079Y-6.9606
X4.5197Y-4.6299
X4.5197Y-6.874
X4.5315Y-7.1929
X4.5512Y-6.5957
X4.5827Y-5.7362
X4.5866Y-6.9449
X4.626Y-7.4331
X4.6339Y-8.2441
X4.6417Y-5.0709
X4.6437Y-7.8051
X4.6457Y-8.0157
X4.6496Y-7.6102
X4.6496Y-7.6811
X4.6496Y-8.5
X4.6535Y-5.748
X4.6535Y-7.9094
X4.6575Y-5.315
X4.6732Y-6.0827
X4.6772Y-6.9488
X4.6811Y-7.2028
X4.7126Y-4.4331
X4.7244Y-5.2323
X4.7441Y-5.5039
X4.752Y-5.7402
X4.7559Y-5.6496
X4.7638Y-6.0669
X4.7677Y-5.2913
X4.7717Y-5.4016
X4.7717Y-5.4724
X4.7795Y-6.1339
X4.7835Y-8.5118
X4.7953Y-6.9488
X4.8051Y-6.4193
X4.811Y-7.8425
X4.811Y-8.0118
X4.815Y-6.2008
X4.815Y-7.689
X4.8189Y-8.2756
X4.8228Y-7.9252
X4.8504Y-6.8504
X4.8583Y-6.8976
X4.8622Y-4.4429
X4.878Y-7.1535
X4.8819Y-7.2441
X4.8858Y-5.2441
X4.8886Y-6.6957
X4.8898Y-6.0984
X4.8937Y-6.1949
X4.8937Y-6.3031
X4.9055Y-6.5335
X4.9114Y-6.3642
X4.9429Y-5.2028
X4.9685Y-6.5591
X4.9685Y-6.6339
X4.9685Y-6.689
X5.0118Y-7.2559
X5.0118Y-7.6496
X5.0118Y-8.2087
X5.0157Y-7.3701
X5.0197Y-6.9488
X5.0276Y-8.4803
X5.0394Y-5.7087
X5.0394Y-6.2874
X5.0394Y-8.3819
X5.0453Y-6.1988
X5.0472Y-6.122
X5.0472Y-8.0591
X5.0512Y-4.3976
T3
X4.063Y-5.3465
X4.063Y-5.5157
X4.063Y-5.7126
X4.063Y-5.9016
X4.2598Y-5.3465
X4.2598Y-5.5157
X4.2598Y-5.7126
X4.2598Y-5.9016
T4
X4.7047Y-5.8858
X4.7047Y-5.9843
X4.8031Y-5.8858
X4.8031Y-5.9843
X4.9016Y-5.8858
X4.9016Y-5.9843
T5
X4.1339Y-7.4909
X4.1339Y-7.613
X4.1339Y-7.9398
X4.1339Y-8.0815
X4.1339Y-8.2035
X4.1339Y-8.5303
X4.1535Y-5.1575
X4.1535Y-6.5748
X4.1535Y-7.3622
X4.252Y-5.1575
X4.252Y-6.5748
X4.252Y-7.3622
X4.3504Y-5.1575
X4.3504Y-6.5748
X4.3504Y-7.3622
X4.5276Y-7.4909
X4.5276Y-7.613
X4.5276Y-7.9398
X4.5276Y-8.0815
X4.5276Y-8.2035
X4.5276Y-8.5303
X4.7047Y-7.3622
X4.8031Y-7.3622
X4.9016Y-7.3622
X4.9213Y-7.4909
X4.9213Y-7.613
X4.9213Y-7.9398
X4.9213Y-8.0815
X4.9213Y-8.2035
X4.9213Y-8.5303
T6
X4.0748Y-4.8819
X4.0748Y-6.2992
X4.0748Y-7.0866
X4.4291Y-4.8819
X4.4291Y-6.2992
X4.4291Y-7.0866
X4.626Y-7.0866
X4.9803Y-7.0866
T5
G00X4.6299Y-5.5906
M15
G01X4.6024Y-5.5906
M16
G05
G00X5.0039Y-5.5906
M15
G01X4.9764Y-5.5906
M16
G05
M30
