%TF.GenerationSoftware,KiCad,Pcbnew,9.0.8*%
%TF.CreationDate,2026-04-07T13:52:52-04:00*%
%TF.ProjectId,lichen-stereo-klein-filter-controls,6c696368-656e-42d7-9374-6572656f2d6b,rev?*%
%TF.SameCoordinates,Original*%
%TF.FileFunction,Copper,L2,Bot*%
%TF.FilePolarity,Positive*%
%FSLAX46Y46*%
G04 Gerber Fmt 4.6, Leading zero omitted, Abs format (unit mm)*
G04 Created by KiCad (PCBNEW 9.0.8) date 2026-04-07 13:52:52*
%MOMM*%
%LPD*%
G01*
G04 APERTURE LIST*
G04 Aperture macros list*
%AMRoundRect*
0 Rectangle with rounded corners*
0 $1 Rounding radius*
0 $2 $3 $4 $5 $6 $7 $8 $9 X,Y pos of 4 corners*
0 Add a 4 corners polygon primitive as box body*
4,1,4,$2,$3,$4,$5,$6,$7,$8,$9,$2,$3,0*
0 Add four circle primitives for the rounded corners*
1,1,$1+$1,$2,$3*
1,1,$1+$1,$4,$5*
1,1,$1+$1,$6,$7*
1,1,$1+$1,$8,$9*
0 Add four rect primitives between the rounded corners*
20,1,$1+$1,$2,$3,$4,$5,0*
20,1,$1+$1,$4,$5,$6,$7,0*
20,1,$1+$1,$6,$7,$8,$9,0*
20,1,$1+$1,$8,$9,$2,$3,0*%
G04 Aperture macros list end*
%TA.AperFunction,ComponentPad*%
%ADD10R,2.000000X2.000000*%
%TD*%
%TA.AperFunction,ComponentPad*%
%ADD11C,2.000000*%
%TD*%
%TA.AperFunction,ComponentPad*%
%ADD12R,2.800000X2.800000*%
%TD*%
%TA.AperFunction,ComponentPad*%
%ADD13R,1.800000X1.800000*%
%TD*%
%TA.AperFunction,ComponentPad*%
%ADD14C,1.800000*%
%TD*%
%TA.AperFunction,ComponentPad*%
%ADD15C,1.600000*%
%TD*%
%TA.AperFunction,ComponentPad*%
%ADD16R,3.116000X3.116000*%
%TD*%
%TA.AperFunction,ComponentPad*%
%ADD17R,1.650000X1.650000*%
%TD*%
%TA.AperFunction,ComponentPad*%
%ADD18C,1.650000*%
%TD*%
%TA.AperFunction,SMDPad,CuDef*%
%ADD19R,1.000000X1.000000*%
%TD*%
%TA.AperFunction,SMDPad,CuDef*%
%ADD20RoundRect,0.150000X0.825000X0.150000X-0.825000X0.150000X-0.825000X-0.150000X0.825000X-0.150000X0*%
%TD*%
%TA.AperFunction,SMDPad,CuDef*%
%ADD21R,0.530000X0.470000*%
%TD*%
%TA.AperFunction,SMDPad,CuDef*%
%ADD22R,3.000000X1.000000*%
%TD*%
%TA.AperFunction,ViaPad*%
%ADD23C,0.700000*%
%TD*%
%TA.AperFunction,ViaPad*%
%ADD24C,0.800000*%
%TD*%
%TA.AperFunction,Conductor*%
%ADD25C,0.300000*%
%TD*%
%TA.AperFunction,Conductor*%
%ADD26C,1.000000*%
%TD*%
%TA.AperFunction,Conductor*%
%ADD27C,0.500000*%
%TD*%
%TA.AperFunction,Conductor*%
%ADD28C,0.750000*%
%TD*%
G04 APERTURE END LIST*
D10*
%TO.P,J2,S*%
%TO.N,GND*%
X115000000Y-205270000D03*
D11*
%TO.P,J2,T*%
%TO.N,/SKEW_CV*%
X115000000Y-216670000D03*
%TO.P,J2,TN*%
%TO.N,unconnected-(J2-PadTN)*%
X115000000Y-208370000D03*
%TD*%
D10*
%TO.P,J6,S*%
%TO.N,GND*%
X125000000Y-205270000D03*
D11*
%TO.P,J6,T*%
%TO.N,Net-(J6-PadT)*%
X125000000Y-216670000D03*
%TO.P,J6,TN*%
%TO.N,unconnected-(J6-PadTN)*%
X125000000Y-208370000D03*
%TD*%
D12*
%TO.P,RV7,*%
%TO.N,*%
X117250000Y-142000000D03*
X126750000Y-142000000D03*
D13*
%TO.P,RV7,1,1*%
%TO.N,GND*%
X119500000Y-149500000D03*
D14*
%TO.P,RV7,2,2*%
%TO.N,RESONANCE_ATTEN_R*%
X122000000Y-149500000D03*
%TO.P,RV7,3,3*%
%TO.N,LADDER_OUT_R*%
X124500000Y-149500000D03*
%TO.P,RV7,4,4*%
%TO.N,GND*%
X119500000Y-152000000D03*
%TO.P,RV7,5,5*%
%TO.N,RESONANCE_ATTEN_L*%
X122000000Y-152000000D03*
%TO.P,RV7,6,6*%
%TO.N,LADDER_OUT_L*%
X124500000Y-152000000D03*
%TD*%
D10*
%TO.P,J1,S*%
%TO.N,GND*%
X115000000Y-190270000D03*
D11*
%TO.P,J1,T*%
%TO.N,/CV_IN*%
X115000000Y-201670000D03*
%TO.P,J1,TN*%
%TO.N,unconnected-(J1-PadTN)*%
X115000000Y-193370000D03*
%TD*%
D15*
%TO.P,C12,1*%
%TO.N,AUDIO_OUT_DC_COUPLED_R*%
X103200000Y-149900000D03*
%TO.P,C12,2*%
%TO.N,/AUDIO_OUT_FILTERED_R*%
X108200000Y-149900000D03*
%TD*%
%TO.P,C8,1*%
%TO.N,/IN_R*%
X103200000Y-140100000D03*
%TO.P,C8,2*%
%TO.N,Net-(C8-Pad2)*%
X108200000Y-140100000D03*
%TD*%
D16*
%TO.P,RV4,*%
%TO.N,*%
X117500000Y-180000000D03*
X126500000Y-180000000D03*
D17*
%TO.P,RV4,1,1*%
%TO.N,GND*%
X119500000Y-187000000D03*
D18*
%TO.P,RV4,2,2*%
%TO.N,/SKEW_CV_ATTEN*%
X122000000Y-187000000D03*
%TO.P,RV4,3,3*%
%TO.N,/SKEW_CV*%
X124500000Y-187000000D03*
%TD*%
D16*
%TO.P,RV2,*%
%TO.N,*%
X103500000Y-160000000D03*
X112500000Y-160000000D03*
D17*
%TO.P,RV2,1,1*%
%TO.N,/1V1_INV*%
X105500000Y-167000000D03*
D18*
%TO.P,RV2,2,2*%
%TO.N,Net-(R5-Pad1)*%
X108000000Y-167000000D03*
%TO.P,RV2,3,3*%
%TO.N,/1V1_BUFFERED*%
X110500000Y-167000000D03*
%TD*%
D10*
%TO.P,J3,S*%
%TO.N,GND*%
X125000000Y-190270000D03*
D11*
%TO.P,J3,T*%
%TO.N,Net-(J3-PadT)*%
X125000000Y-201670000D03*
%TO.P,J3,TN*%
%TO.N,unconnected-(J3-PadTN)*%
X125000000Y-193370000D03*
%TD*%
D15*
%TO.P,C5,1*%
%TO.N,AUDIO_OUT_DC_COUPLED_L*%
X103200000Y-145100000D03*
%TO.P,C5,2*%
%TO.N,/AUDIO_OUT_FILTERED_L*%
X108200000Y-145100000D03*
%TD*%
D10*
%TO.P,J4,S*%
%TO.N,GND*%
X105000000Y-190270000D03*
D11*
%TO.P,J4,T*%
%TO.N,/IN_L*%
X105000000Y-201670000D03*
%TO.P,J4,TN*%
%TO.N,unconnected-(J4-PadTN)*%
X105000000Y-193370000D03*
%TD*%
D10*
%TO.P,J5,S*%
%TO.N,GND*%
X105000000Y-205270000D03*
D11*
%TO.P,J5,T*%
%TO.N,/IN_R*%
X105000000Y-216670000D03*
%TO.P,J5,TN*%
%TO.N,/IN_L*%
X105000000Y-208370000D03*
%TD*%
D16*
%TO.P,RV1,*%
%TO.N,*%
X103500000Y-124000000D03*
X112500000Y-124000000D03*
D17*
%TO.P,RV1,1,1*%
%TO.N,Net-(R2-Pad1)*%
X105500000Y-131000000D03*
D18*
%TO.P,RV1,2,2*%
%TO.N,CUTOFF_CV_OFFSET*%
X108000000Y-131000000D03*
%TO.P,RV1,3,3*%
%TO.N,+12V*%
X110500000Y-131000000D03*
%TD*%
D15*
%TO.P,C1,1*%
%TO.N,/IN_L*%
X103200000Y-135800000D03*
%TO.P,C1,2*%
%TO.N,Net-(C1-Pad2)*%
X108200000Y-135800000D03*
%TD*%
D16*
%TO.P,RV3,*%
%TO.N,*%
X103500000Y-180000000D03*
X112500000Y-180000000D03*
D17*
%TO.P,RV3,1,1*%
%TO.N,GND*%
X105500000Y-187000000D03*
D18*
%TO.P,RV3,2,2*%
%TO.N,CUTOFF_CV_IN*%
X108000000Y-187000000D03*
%TO.P,RV3,3,3*%
%TO.N,/CV_IN*%
X110500000Y-187000000D03*
%TD*%
D19*
%TO.P,R11,1*%
%TO.N,Net-(U1B--)*%
X125500000Y-171350000D03*
%TO.P,R11,2*%
%TO.N,/SKEW_CV_SCALED*%
X125500000Y-173050000D03*
%TD*%
%TO.P,R23,1*%
%TO.N,AUDIO_IN_SCALED_L*%
X113500000Y-134050000D03*
%TO.P,R23,2*%
%TO.N,GND*%
X113500000Y-132350000D03*
%TD*%
D20*
%TO.P,U1,1*%
%TO.N,/1V1_BUFFERED*%
X122375000Y-164990000D03*
%TO.P,U1,2,-*%
X122375000Y-166260000D03*
%TO.P,U1,3,+*%
%TO.N,/1V1*%
X122375000Y-167530000D03*
%TO.P,U1,4,V+*%
%TO.N,+12V*%
X122375000Y-168800000D03*
%TO.P,U1,5,+*%
%TO.N,GND*%
X122375000Y-170070000D03*
%TO.P,U1,6,-*%
%TO.N,Net-(U1B--)*%
X122375000Y-171340000D03*
%TO.P,U1,7*%
%TO.N,/SKEW_CV_SCALED*%
X122375000Y-172610000D03*
%TO.P,U1,8*%
%TO.N,/1V1_INV*%
X117425000Y-172610000D03*
%TO.P,U1,9,-*%
%TO.N,Net-(U1C--)*%
X117425000Y-171340000D03*
%TO.P,U1,10,+*%
%TO.N,GND*%
X117425000Y-170070000D03*
%TO.P,U1,11,V-*%
%TO.N,-12V*%
X117425000Y-168800000D03*
%TO.P,U1,12,+*%
%TO.N,GND*%
X117425000Y-167530000D03*
%TO.P,U1,13,-*%
%TO.N,Net-(U1D--)*%
X117425000Y-166260000D03*
%TO.P,U1,14*%
%TO.N,SKEW_CV_MIXED*%
X117425000Y-164990000D03*
%TD*%
D19*
%TO.P,R9,1*%
%TO.N,Net-(U1D--)*%
X114200000Y-166050000D03*
%TO.P,R9,2*%
%TO.N,SKEW_CV_MIXED*%
X114200000Y-164350000D03*
%TD*%
%TO.P,R5,1*%
%TO.N,Net-(R5-Pad1)*%
X108050000Y-164300000D03*
%TO.P,R5,2*%
%TO.N,Net-(U1D--)*%
X109750000Y-164300000D03*
%TD*%
%TO.P,R6,1*%
%TO.N,/1V1_BUFFERED*%
X110500000Y-169650000D03*
%TO.P,R6,2*%
%TO.N,Net-(U1C--)*%
X110500000Y-171350000D03*
%TD*%
%TO.P,R44,1*%
%TO.N,GND*%
X111200000Y-151550000D03*
%TO.P,R44,2*%
%TO.N,/AUDIO_OUT_FILTERED_R*%
X111200000Y-149850000D03*
%TD*%
%TO.P,R4,1*%
%TO.N,/1V1*%
X127500000Y-167550000D03*
%TO.P,R4,2*%
%TO.N,+12V*%
X127500000Y-169250000D03*
%TD*%
%TO.P,R15,1*%
%TO.N,/SKEW_CV_SCALED*%
X120850000Y-175000000D03*
%TO.P,R15,2*%
%TO.N,Net-(U1D--)*%
X119150000Y-175000000D03*
%TD*%
D21*
%TO.P,C31,1*%
%TO.N,+12V*%
X125200000Y-168785000D03*
%TO.P,C31,2*%
%TO.N,GND*%
X125200000Y-169815000D03*
%TD*%
D19*
%TO.P,R7,1*%
%TO.N,/1V1*%
X127500000Y-165050000D03*
%TO.P,R7,2*%
%TO.N,GND*%
X127500000Y-163350000D03*
%TD*%
%TO.P,R2,1*%
%TO.N,Net-(R2-Pad1)*%
X102700000Y-131050000D03*
%TO.P,R2,2*%
%TO.N,-12V*%
X102700000Y-129350000D03*
%TD*%
%TO.P,R3,1*%
%TO.N,Net-(U1C--)*%
X114200000Y-171350000D03*
%TO.P,R3,2*%
%TO.N,/1V1_INV*%
X114200000Y-173050000D03*
%TD*%
%TO.P,R28,1*%
%TO.N,GND*%
X111100000Y-143350000D03*
%TO.P,R28,2*%
%TO.N,/AUDIO_OUT_FILTERED_L*%
X111100000Y-145050000D03*
%TD*%
%TO.P,R37,1*%
%TO.N,Net-(C8-Pad2)*%
X111100000Y-140050000D03*
%TO.P,R37,2*%
%TO.N,AUDIO_IN_SCALED_R*%
X111100000Y-138350000D03*
%TD*%
%TO.P,R14,1*%
%TO.N,/SKEW_CV_ATTEN*%
X127500000Y-173050000D03*
%TO.P,R14,2*%
%TO.N,Net-(U1B--)*%
X127500000Y-171350000D03*
%TD*%
D22*
%TO.P,J7,1,Pin_1*%
%TO.N,+12V*%
X125020000Y-130120000D03*
%TO.P,J7,2,Pin_2*%
%TO.N,GND*%
X119980000Y-130120000D03*
%TO.P,J7,3,Pin_3*%
%TO.N,LADDER_OUT_L*%
X125020000Y-127580000D03*
%TO.P,J7,4,Pin_4*%
%TO.N,LADDER_OUT_R*%
X119980000Y-127580000D03*
%TO.P,J7,5,Pin_5*%
%TO.N,AUDIO_OUT_DC_COUPLED_L*%
X125020000Y-125040000D03*
%TO.P,J7,6,Pin_6*%
%TO.N,AUDIO_OUT_DC_COUPLED_R*%
X119980000Y-125040000D03*
%TO.P,J7,7,Pin_7*%
%TO.N,-12V*%
X125020000Y-122500000D03*
%TO.P,J7,8,Pin_8*%
%TO.N,AUDIO_IN_SCALED_L*%
X119980000Y-122500000D03*
%TO.P,J7,9,Pin_9*%
%TO.N,AUDIO_IN_SCALED_R*%
X125020000Y-119960000D03*
%TO.P,J7,10,Pin_10*%
%TO.N,CUTOFF_CV_IN*%
X119980000Y-119960000D03*
%TO.P,J7,11,Pin_11*%
%TO.N,CUTOFF_CV_OFFSET*%
X125020000Y-117420000D03*
%TO.P,J7,12,Pin_12*%
%TO.N,SKEW_CV_MIXED*%
X119980000Y-117420000D03*
%TO.P,J7,13,Pin_13*%
%TO.N,RESONANCE_ATTEN_L*%
X125020000Y-114880000D03*
%TO.P,J7,14,Pin_14*%
%TO.N,RESONANCE_ATTEN_R*%
X119980000Y-114880000D03*
%TD*%
D19*
%TO.P,R43,1*%
%TO.N,/AUDIO_OUT_FILTERED_R*%
X113400000Y-149850000D03*
%TO.P,R43,2*%
%TO.N,Net-(J6-PadT)*%
X113400000Y-151550000D03*
%TD*%
%TO.P,R38,1*%
%TO.N,AUDIO_IN_SCALED_R*%
X113500000Y-138350000D03*
%TO.P,R38,2*%
%TO.N,GND*%
X113500000Y-136650000D03*
%TD*%
%TO.P,R21,1*%
%TO.N,Net-(C1-Pad2)*%
X111100000Y-135750000D03*
%TO.P,R21,2*%
%TO.N,AUDIO_IN_SCALED_L*%
X111100000Y-134050000D03*
%TD*%
D21*
%TO.P,C32,1*%
%TO.N,-12V*%
X114500000Y-168515000D03*
%TO.P,C32,2*%
%TO.N,GND*%
X114500000Y-167485000D03*
%TD*%
D19*
%TO.P,R27,1*%
%TO.N,/AUDIO_OUT_FILTERED_L*%
X113500000Y-145050000D03*
%TO.P,R27,2*%
%TO.N,Net-(J3-PadT)*%
X113500000Y-146750000D03*
%TD*%
D23*
%TO.N,/IN_L*%
X101500000Y-152700000D03*
%TO.N,AUDIO_OUT_DC_COUPLED_L*%
X127600000Y-138200000D03*
X128200000Y-126100000D03*
%TO.N,/IN_R*%
X102400000Y-152500000D03*
%TO.N,AUDIO_OUT_DC_COUPLED_R*%
X106004074Y-128004074D03*
D24*
%TO.N,GND*%
X122500000Y-201300000D03*
X128200000Y-155500000D03*
X104800000Y-115900000D03*
X114800000Y-117600000D03*
X128150000Y-157450000D03*
X110400000Y-148200000D03*
X121000000Y-154100000D03*
X122050000Y-163050000D03*
X118900000Y-182950000D03*
X112500000Y-135200000D03*
X123400000Y-175200000D03*
X113500000Y-143200000D03*
X116500000Y-176400000D03*
X102800000Y-187100000D03*
X128200000Y-204700000D03*
X109000000Y-117700000D03*
X108850000Y-201300000D03*
X107900000Y-197800000D03*
X110300000Y-113600000D03*
X117700000Y-209400000D03*
X124300000Y-160100000D03*
X102900000Y-117100000D03*
X121400000Y-155800000D03*
X113800000Y-129500000D03*
X118100000Y-215900000D03*
X103100000Y-111800000D03*
X113600000Y-156200000D03*
X104800000Y-120700000D03*
X105100000Y-183100000D03*
X123200000Y-174000000D03*
X127700000Y-215400000D03*
X117950000Y-198250000D03*
X120700000Y-145800000D03*
X111950000Y-132350000D03*
X113900000Y-148400000D03*
X104900000Y-163000000D03*
X118200000Y-146000000D03*
X111700000Y-215400000D03*
X111600000Y-147400000D03*
X104900000Y-214400000D03*
X102300000Y-213800000D03*
X103200000Y-166800000D03*
X112150000Y-195200000D03*
X114800000Y-174600000D03*
X117500000Y-188800000D03*
X109600000Y-153600000D03*
X108800000Y-157000000D03*
X102300000Y-114300000D03*
X109700000Y-137900000D03*
X108100000Y-138000000D03*
X114500000Y-176800000D03*
X119700000Y-112600000D03*
X115600000Y-167530000D03*
X110300000Y-156300000D03*
X112100000Y-188300000D03*
X109500000Y-143000000D03*
X122400000Y-210200000D03*
X109300000Y-125900000D03*
X118200000Y-200900000D03*
X124200000Y-154900000D03*
X101700000Y-119500000D03*
X109900000Y-122800000D03*
D23*
X119500000Y-147100000D03*
D24*
X128300000Y-111700000D03*
X111800000Y-212300000D03*
X104400000Y-175700000D03*
X124300000Y-157350000D03*
X127300000Y-184300000D03*
X115100000Y-182700000D03*
X122200000Y-199200000D03*
X103600000Y-169800000D03*
X125550000Y-132150000D03*
X128000000Y-145000000D03*
X116400000Y-145700000D03*
X108650000Y-182300000D03*
X124000000Y-184000000D03*
X118000000Y-203600000D03*
X123500000Y-112850000D03*
X118700000Y-154500000D03*
X108600000Y-152600000D03*
X123900000Y-181700000D03*
X111100000Y-176600000D03*
X118100000Y-193300000D03*
X121500000Y-216200000D03*
X108400000Y-115900000D03*
X113100000Y-153400000D03*
X121800000Y-176500000D03*
X108600000Y-147500000D03*
X105300000Y-172900000D03*
X124100000Y-133200000D03*
X127300000Y-208500000D03*
X126200000Y-169900000D03*
X128000000Y-212900000D03*
X110400000Y-183300000D03*
X122200000Y-203500000D03*
X108700000Y-188800000D03*
X108800000Y-175700000D03*
X122300000Y-195300000D03*
X108500000Y-216200000D03*
X124170000Y-170070000D03*
X121100000Y-134400000D03*
X124750000Y-161650000D03*
X103600000Y-171400000D03*
X124600000Y-165950000D03*
X127500000Y-176500000D03*
X118300000Y-135000000D03*
X108400000Y-193100000D03*
X111300000Y-174100000D03*
X103600000Y-173400000D03*
X101550000Y-126850000D03*
X117900000Y-128800000D03*
X113500000Y-154500000D03*
X121200000Y-139000000D03*
X121200000Y-137200000D03*
X110800000Y-118800000D03*
X120800000Y-143500000D03*
X104900000Y-112900000D03*
X113700000Y-121400000D03*
X103100000Y-177100000D03*
X118100000Y-195100000D03*
X102050000Y-209650000D03*
X110200000Y-206550000D03*
X118800000Y-176500000D03*
X111500000Y-201500000D03*
X128000000Y-159700000D03*
X109600000Y-203300000D03*
X122300000Y-157500000D03*
X101800000Y-204300000D03*
X109100000Y-133200000D03*
X127400000Y-187200000D03*
X112100000Y-116900000D03*
X127300000Y-194300000D03*
%TO.N,+12V*%
X120000000Y-132900000D03*
X126200000Y-168500000D03*
X120500000Y-139800000D03*
X126200000Y-166600000D03*
%TO.N,-12V*%
X105700000Y-157300000D03*
X103900000Y-129600000D03*
X112400000Y-167600000D03*
X112400000Y-164000000D03*
D23*
%TO.N,/SKEW_CV*%
X119800000Y-189200000D03*
X119800000Y-211800000D03*
%TO.N,Net-(J3-PadT)*%
X116150000Y-148350000D03*
%TO.N,Net-(J6-PadT)*%
X115800000Y-152300000D03*
%TO.N,AUDIO_IN_SCALED_R*%
X117186950Y-124373901D03*
X116800000Y-136400000D03*
%TO.N,AUDIO_IN_SCALED_L*%
X115900000Y-124600000D03*
X115900000Y-132900000D03*
%TO.N,CUTOFF_CV_OFFSET*%
X123020000Y-117420000D03*
X122700000Y-125022000D03*
%TO.N,LADDER_OUT_L*%
X127500000Y-136300000D03*
%TO.N,SKEW_CV_MIXED*%
X117880000Y-117420000D03*
X114200000Y-163300000D03*
%TO.N,RESONANCE_ATTEN_R*%
X121950000Y-114950000D03*
%TO.N,RESONANCE_ATTEN_L*%
X123400000Y-144805025D03*
X127180000Y-114880000D03*
%TO.N,LADDER_OUT_R*%
X122700000Y-128400000D03*
%TO.N,CUTOFF_CV_IN*%
X109600000Y-120200000D03*
%TO.N,Net-(U1D--)*%
X119150000Y-173900000D03*
X119150000Y-167010001D03*
%TO.N,/1V1_BUFFERED*%
X112501000Y-162299000D03*
%TO.N,/SKEW_CV_ATTEN*%
X122000000Y-179700000D03*
%TD*%
D25*
%TO.N,/IN_L*%
X101500000Y-152700000D02*
X101500000Y-137500000D01*
X101500000Y-137500000D02*
X103200000Y-135800000D01*
%TO.N,Net-(C1-Pad2)*%
X108250000Y-135750000D02*
X108200000Y-135800000D01*
X111100000Y-135750000D02*
X108250000Y-135750000D01*
%TO.N,/AUDIO_OUT_FILTERED_L*%
X113500000Y-145050000D02*
X111100000Y-145050000D01*
X108250000Y-145050000D02*
X108200000Y-145100000D01*
X111100000Y-145050000D02*
X108250000Y-145050000D01*
%TO.N,AUDIO_OUT_DC_COUPLED_L*%
X127140000Y-125040000D02*
X128200000Y-126100000D01*
X125020000Y-125040000D02*
X127140000Y-125040000D01*
X127600000Y-138200000D02*
X116500000Y-138200000D01*
X116500000Y-138200000D02*
X112800000Y-141900000D01*
X106400000Y-141900000D02*
X103200000Y-145100000D01*
X112800000Y-141900000D02*
X106400000Y-141900000D01*
%TO.N,/IN_R*%
X102049000Y-152149000D02*
X102049000Y-141251000D01*
X102049000Y-141251000D02*
X103200000Y-140100000D01*
X102400000Y-152500000D02*
X102049000Y-152149000D01*
%TO.N,Net-(C8-Pad2)*%
X108250000Y-140050000D02*
X108200000Y-140100000D01*
X111100000Y-140050000D02*
X108250000Y-140050000D01*
%TO.N,/AUDIO_OUT_FILTERED_R*%
X111200000Y-149850000D02*
X108250000Y-149850000D01*
X108250000Y-149850000D02*
X108200000Y-149900000D01*
X113400000Y-149850000D02*
X111200000Y-149850000D01*
%TO.N,AUDIO_OUT_DC_COUPLED_R*%
X115600000Y-126900000D02*
X117500000Y-125000000D01*
X107100000Y-126900000D02*
X115600000Y-126900000D01*
X106004074Y-127995926D02*
X107100000Y-126900000D01*
X119940000Y-125000000D02*
X119980000Y-125040000D01*
X117500000Y-125000000D02*
X119940000Y-125000000D01*
X106004074Y-128004074D02*
X106004074Y-127995926D01*
D26*
%TO.N,GND*%
X119500000Y-149500000D02*
X119500000Y-152000000D01*
D27*
X125285000Y-169900000D02*
X125200000Y-169815000D01*
D26*
X105000000Y-190270000D02*
X115000000Y-190270000D01*
X105000000Y-205270000D02*
X115000000Y-205270000D01*
D27*
X126200000Y-169900000D02*
X125285000Y-169900000D01*
X117425000Y-167530000D02*
X115600000Y-167530000D01*
X115600000Y-167530000D02*
X114655000Y-167530000D01*
D28*
X111950000Y-132350000D02*
X113500000Y-132350000D01*
D27*
X124425000Y-169815000D02*
X124170000Y-170070000D01*
D26*
X125000000Y-190270000D02*
X115000000Y-190270000D01*
X125000000Y-205270000D02*
X115000000Y-205270000D01*
D27*
X124170000Y-170070000D02*
X122375000Y-170070000D01*
D28*
X104400000Y-175700000D02*
X108800000Y-175700000D01*
D25*
X114655000Y-167530000D02*
X114500000Y-167685000D01*
D28*
X118700000Y-154500000D02*
X113500000Y-154500000D01*
D27*
X125200000Y-169815000D02*
X124425000Y-169815000D01*
D28*
%TO.N,+12V*%
X120000000Y-132900000D02*
X120000000Y-131274000D01*
X123180000Y-130120000D02*
X122026000Y-131274000D01*
D27*
X126950000Y-169250000D02*
X127500000Y-169250000D01*
X125715000Y-168785000D02*
X125200000Y-168785000D01*
D28*
X110774000Y-131274000D02*
X110500000Y-131000000D01*
D27*
X126050000Y-168650000D02*
X125850000Y-168650000D01*
X126200000Y-168500000D02*
X126050000Y-168650000D01*
D28*
X120000000Y-131274000D02*
X110774000Y-131274000D01*
X125020000Y-130120000D02*
X123180000Y-130120000D01*
X126200000Y-145500000D02*
X120500000Y-139800000D01*
D27*
X126200000Y-168500000D02*
X126950000Y-169250000D01*
D28*
X122026000Y-131274000D02*
X120000000Y-131274000D01*
D27*
X125185000Y-168800000D02*
X125200000Y-168785000D01*
X122375000Y-168800000D02*
X125185000Y-168800000D01*
X125850000Y-168650000D02*
X125715000Y-168785000D01*
D28*
X126200000Y-166600000D02*
X126200000Y-145500000D01*
%TO.N,-12V*%
X104183562Y-127916438D02*
X106700000Y-125400000D01*
D27*
X102750000Y-129300000D02*
X102700000Y-129350000D01*
D28*
X113315000Y-168515000D02*
X113700000Y-168515000D01*
X103600000Y-129300000D02*
X102750000Y-129300000D01*
X128200000Y-113700000D02*
X128200000Y-121600000D01*
X106700000Y-113900000D02*
X109300000Y-111300000D01*
X102700000Y-129350000D02*
X102700000Y-128300000D01*
D27*
X117425000Y-168800000D02*
X115700000Y-168800000D01*
X115415000Y-168515000D02*
X114500000Y-168515000D01*
D28*
X103900000Y-129600000D02*
X103600000Y-129300000D01*
X128200000Y-121600000D02*
X127300000Y-122500000D01*
X125800000Y-111300000D02*
X128200000Y-113700000D01*
D27*
X113700000Y-168515000D02*
X114500000Y-168515000D01*
D28*
X102700000Y-128300000D02*
X103083562Y-127916438D01*
X105700000Y-157300000D02*
X112400000Y-164000000D01*
X103083562Y-127916438D02*
X104183562Y-127916438D01*
D27*
X115700000Y-168800000D02*
X115415000Y-168515000D01*
D28*
X112400000Y-167600000D02*
X113315000Y-168515000D01*
X106700000Y-125400000D02*
X106700000Y-113900000D01*
X127300000Y-122500000D02*
X125020000Y-122500000D01*
X109300000Y-111300000D02*
X125800000Y-111300000D01*
D25*
%TO.N,/SKEW_CV*%
X122800000Y-188700000D02*
X124500000Y-187000000D01*
X120300000Y-188700000D02*
X122800000Y-188700000D01*
X119800000Y-211870000D02*
X115000000Y-216670000D01*
X119800000Y-189200000D02*
X120300000Y-188700000D01*
X119800000Y-211800000D02*
X119800000Y-211870000D01*
%TO.N,Net-(J3-PadT)*%
X116150000Y-148350000D02*
X114550000Y-146750000D01*
X114550000Y-146750000D02*
X113500000Y-146750000D01*
%TO.N,Net-(J6-PadT)*%
X115050000Y-151550000D02*
X115800000Y-152300000D01*
X113400000Y-151550000D02*
X115050000Y-151550000D01*
%TO.N,AUDIO_IN_SCALED_R*%
X123240000Y-119960000D02*
X122600000Y-120600000D01*
X113500000Y-138350000D02*
X111100000Y-138350000D01*
X114850000Y-138350000D02*
X113500000Y-138350000D01*
X116800000Y-136400000D02*
X114850000Y-138350000D01*
X122600000Y-120600000D02*
X122600000Y-123300000D01*
X122100000Y-123800000D02*
X117760851Y-123800000D01*
X122600000Y-123300000D02*
X122100000Y-123800000D01*
X117760851Y-123800000D02*
X117186950Y-124373901D01*
X125020000Y-119960000D02*
X123240000Y-119960000D01*
%TO.N,AUDIO_IN_SCALED_L*%
X118000000Y-122500000D02*
X119980000Y-122500000D01*
X113500000Y-134050000D02*
X111100000Y-134050000D01*
X114750000Y-134050000D02*
X115900000Y-132900000D01*
X113500000Y-134050000D02*
X114750000Y-134050000D01*
X115900000Y-124600000D02*
X118000000Y-122500000D01*
%TO.N,CUTOFF_CV_OFFSET*%
X108000000Y-129500000D02*
X109100000Y-128400000D01*
X121422000Y-126300000D02*
X122700000Y-125022000D01*
X109100000Y-128400000D02*
X115620000Y-128400000D01*
X108000000Y-131000000D02*
X108000000Y-129500000D01*
X115620000Y-128400000D02*
X117720000Y-126300000D01*
X123025000Y-117425000D02*
X123020000Y-117420000D01*
X123020000Y-117420000D02*
X125020000Y-117420000D01*
X117720000Y-126300000D02*
X121422000Y-126300000D01*
%TO.N,LADDER_OUT_L*%
X127500000Y-128000000D02*
X127500000Y-136300000D01*
X127080000Y-127580000D02*
X127500000Y-128000000D01*
X125020000Y-127580000D02*
X127080000Y-127580000D01*
%TO.N,SKEW_CV_MIXED*%
X115050000Y-164350000D02*
X115690000Y-164990000D01*
X114200000Y-163300000D02*
X114200000Y-164350000D01*
X114200000Y-164350000D02*
X115050000Y-164350000D01*
X117880000Y-117420000D02*
X119980000Y-117420000D01*
X115690000Y-164990000D02*
X117425000Y-164990000D01*
%TO.N,RESONANCE_ATTEN_R*%
X121950000Y-114950000D02*
X121880000Y-114880000D01*
X121950000Y-114950000D02*
X122000000Y-115000000D01*
X121880000Y-114880000D02*
X119980000Y-114880000D01*
%TO.N,RESONANCE_ATTEN_L*%
X123250000Y-150750000D02*
X122000000Y-152000000D01*
X127180000Y-114880000D02*
X125020000Y-114880000D01*
X123294975Y-144805025D02*
X123250000Y-144850000D01*
X123400000Y-144805025D02*
X123294975Y-144805025D01*
X123250000Y-144850000D02*
X123250000Y-150750000D01*
%TO.N,LADDER_OUT_R*%
X121900000Y-127600000D02*
X120000000Y-127600000D01*
X120000000Y-127600000D02*
X119980000Y-127580000D01*
X122700000Y-128400000D02*
X121900000Y-127600000D01*
%TO.N,CUTOFF_CV_IN*%
X119740000Y-120200000D02*
X109600000Y-120200000D01*
X119980000Y-119960000D02*
X119740000Y-120200000D01*
%TO.N,Net-(R2-Pad1)*%
X105450000Y-131050000D02*
X102700000Y-131050000D01*
X105500000Y-131000000D02*
X105450000Y-131050000D01*
%TO.N,/1V1_INV*%
X115350000Y-173050000D02*
X115790000Y-172610000D01*
X114200000Y-173050000D02*
X115350000Y-173050000D01*
X108750000Y-173050000D02*
X114200000Y-173050000D01*
X105500000Y-167000000D02*
X105500000Y-169800000D01*
X115790000Y-172610000D02*
X117425000Y-172610000D01*
X105500000Y-169800000D02*
X108750000Y-173050000D01*
%TO.N,Net-(U1C--)*%
X117425000Y-171340000D02*
X114210000Y-171340000D01*
X114210000Y-171340000D02*
X114200000Y-171350000D01*
X114200000Y-171350000D02*
X110500000Y-171350000D01*
%TO.N,/1V1*%
X127320000Y-167530000D02*
X127500000Y-167350000D01*
X127500000Y-165050000D02*
X127500000Y-167550000D01*
X122375000Y-167530000D02*
X127320000Y-167530000D01*
%TO.N,Net-(R5-Pad1)*%
X108000000Y-164350000D02*
X108050000Y-164300000D01*
X108000000Y-167000000D02*
X108000000Y-164350000D01*
%TO.N,Net-(U1D--)*%
X118399999Y-166260000D02*
X117425000Y-166260000D01*
X119150000Y-175000000D02*
X119150000Y-173900000D01*
X115540000Y-166260000D02*
X117425000Y-166260000D01*
X112750000Y-166050000D02*
X114200000Y-166050000D01*
X114200000Y-166050000D02*
X115330000Y-166050000D01*
X109750000Y-164300000D02*
X111000000Y-164300000D01*
X119150000Y-167010001D02*
X118399999Y-166260000D01*
X111000000Y-164300000D02*
X112750000Y-166050000D01*
X115330000Y-166050000D02*
X115540000Y-166260000D01*
%TO.N,/1V1_BUFFERED*%
X120990000Y-164990000D02*
X122375000Y-164990000D01*
X110500000Y-169650000D02*
X110500000Y-167000000D01*
X122375000Y-164990000D02*
X122375000Y-166260000D01*
X112501000Y-162299000D02*
X118299000Y-162299000D01*
X118299000Y-162299000D02*
X120990000Y-164990000D01*
%TO.N,/SKEW_CV_SCALED*%
X120850000Y-173050000D02*
X121290000Y-172610000D01*
X122375000Y-172610000D02*
X123710000Y-172610000D01*
X123710000Y-172610000D02*
X124150000Y-173050000D01*
X121290000Y-172610000D02*
X122375000Y-172610000D01*
X120850000Y-175000000D02*
X120850000Y-173050000D01*
X124150000Y-173050000D02*
X125500000Y-173050000D01*
%TO.N,Net-(U1B--)*%
X125490000Y-171340000D02*
X125500000Y-171350000D01*
X127500000Y-171350000D02*
X125500000Y-171350000D01*
X122375000Y-171340000D02*
X125490000Y-171340000D01*
%TO.N,/SKEW_CV_ATTEN*%
X127500000Y-174200000D02*
X127500000Y-173050000D01*
X122000000Y-179700000D02*
X127500000Y-174200000D01*
%TD*%
%TA.AperFunction,Conductor*%
%TO.N,GND*%
G36*
X123067406Y-125819201D02*
G01*
X123076578Y-125819547D01*
X123098158Y-125834594D01*
X123121680Y-125846368D01*
X123132803Y-125858751D01*
X123133891Y-125859509D01*
X123134234Y-125860344D01*
X123136452Y-125862812D01*
X123158462Y-125892214D01*
X123162455Y-125897547D01*
X123277664Y-125983793D01*
X123277671Y-125983797D01*
X123412517Y-126034091D01*
X123412516Y-126034091D01*
X123419444Y-126034835D01*
X123472127Y-126040500D01*
X126567872Y-126040499D01*
X126627483Y-126034091D01*
X126762331Y-125983796D01*
X126877546Y-125897546D01*
X126877547Y-125897544D01*
X126877549Y-125897543D01*
X126883818Y-125891275D01*
X126884757Y-125892214D01*
X126933364Y-125855827D01*
X127003056Y-125850841D01*
X127064377Y-125884323D01*
X127064381Y-125884327D01*
X127319345Y-126139291D01*
X127352830Y-126200614D01*
X127353281Y-126202781D01*
X127382182Y-126348074D01*
X127382184Y-126348082D01*
X127446295Y-126502860D01*
X127539373Y-126642162D01*
X127657837Y-126760626D01*
X127750494Y-126822537D01*
X127797137Y-126853703D01*
X127951918Y-126917816D01*
X128112754Y-126949808D01*
X128116228Y-126950499D01*
X128116232Y-126950500D01*
X128116233Y-126950500D01*
X128283768Y-126950500D01*
X128283769Y-126950499D01*
X128448082Y-126917816D01*
X128602863Y-126853703D01*
X128742162Y-126760626D01*
X128742165Y-126760623D01*
X128787819Y-126714970D01*
X128849142Y-126681485D01*
X128918834Y-126686469D01*
X128974767Y-126728341D01*
X128999184Y-126793805D01*
X128999500Y-126802651D01*
X128999500Y-217625500D01*
X128979815Y-217692539D01*
X128927011Y-217738294D01*
X128875500Y-217749500D01*
X126313781Y-217749500D01*
X126246742Y-217729815D01*
X126200987Y-217677011D01*
X126191043Y-217607853D01*
X126213463Y-217552614D01*
X126283343Y-217456433D01*
X126390568Y-217245992D01*
X126463553Y-217021368D01*
X126500500Y-216788097D01*
X126500500Y-216551902D01*
X126463553Y-216318631D01*
X126417197Y-216175963D01*
X126390568Y-216094008D01*
X126390566Y-216094005D01*
X126390566Y-216094003D01*
X126283342Y-215883566D01*
X126144517Y-215692490D01*
X125977510Y-215525483D01*
X125786433Y-215386657D01*
X125575996Y-215279433D01*
X125351368Y-215206446D01*
X125118097Y-215169500D01*
X125118092Y-215169500D01*
X124881908Y-215169500D01*
X124881903Y-215169500D01*
X124648631Y-215206446D01*
X124424003Y-215279433D01*
X124213566Y-215386657D01*
X124104550Y-215465862D01*
X124022490Y-215525483D01*
X124022488Y-215525485D01*
X124022487Y-215525485D01*
X123855485Y-215692487D01*
X123855485Y-215692488D01*
X123855483Y-215692490D01*
X123795862Y-215774550D01*
X123716657Y-215883566D01*
X123609433Y-216094003D01*
X123536446Y-216318631D01*
X123499500Y-216551902D01*
X123499500Y-216788097D01*
X123536446Y-217021368D01*
X123609433Y-217245996D01*
X123716657Y-217456433D01*
X123786537Y-217552614D01*
X123810017Y-217618421D01*
X123794192Y-217686475D01*
X123744086Y-217735170D01*
X123686219Y-217749500D01*
X116313781Y-217749500D01*
X116246742Y-217729815D01*
X116200987Y-217677011D01*
X116191043Y-217607853D01*
X116213463Y-217552614D01*
X116283343Y-217456433D01*
X116390568Y-217245992D01*
X116463553Y-217021368D01*
X116500500Y-216788097D01*
X116500500Y-216551902D01*
X116480347Y-216424666D01*
X116463553Y-216318632D01*
X116439888Y-216245802D01*
X116437894Y-216175963D01*
X116470137Y-216119807D01*
X119926674Y-212663270D01*
X119987995Y-212629787D01*
X119990064Y-212629355D01*
X120048082Y-212617816D01*
X120202863Y-212553703D01*
X120342162Y-212460626D01*
X120460626Y-212342162D01*
X120553703Y-212202863D01*
X120617816Y-212048082D01*
X120650500Y-211883767D01*
X120650500Y-211716233D01*
X120617816Y-211551918D01*
X120553703Y-211397137D01*
X120522537Y-211350494D01*
X120460626Y-211257837D01*
X120342162Y-211139373D01*
X120202860Y-211046295D01*
X120048082Y-210982184D01*
X120048074Y-210982182D01*
X119883771Y-210949500D01*
X119883767Y-210949500D01*
X119716233Y-210949500D01*
X119716228Y-210949500D01*
X119551925Y-210982182D01*
X119551917Y-210982184D01*
X119397139Y-211046295D01*
X119257837Y-211139373D01*
X119139373Y-211257837D01*
X119046295Y-211397139D01*
X118982184Y-211551917D01*
X118982182Y-211551925D01*
X118949500Y-211716228D01*
X118949500Y-211749191D01*
X118929815Y-211816230D01*
X118913181Y-211836872D01*
X115550193Y-215199859D01*
X115488870Y-215233344D01*
X115424194Y-215230109D01*
X115351370Y-215206447D01*
X115118097Y-215169500D01*
X115118092Y-215169500D01*
X114881908Y-215169500D01*
X114881903Y-215169500D01*
X114648631Y-215206446D01*
X114424003Y-215279433D01*
X114213566Y-215386657D01*
X114104550Y-215465862D01*
X114022490Y-215525483D01*
X114022488Y-215525485D01*
X114022487Y-215525485D01*
X113855485Y-215692487D01*
X113855485Y-215692488D01*
X113855483Y-215692490D01*
X113795862Y-215774550D01*
X113716657Y-215883566D01*
X113609433Y-216094003D01*
X113536446Y-216318631D01*
X113499500Y-216551902D01*
X113499500Y-216788097D01*
X113536446Y-217021368D01*
X113609433Y-217245996D01*
X113716657Y-217456433D01*
X113786537Y-217552614D01*
X113810017Y-217618421D01*
X113794192Y-217686475D01*
X113744086Y-217735170D01*
X113686219Y-217749500D01*
X106313781Y-217749500D01*
X106246742Y-217729815D01*
X106200987Y-217677011D01*
X106191043Y-217607853D01*
X106213463Y-217552614D01*
X106283343Y-217456433D01*
X106390568Y-217245992D01*
X106463553Y-217021368D01*
X106500500Y-216788097D01*
X106500500Y-216551902D01*
X106463553Y-216318631D01*
X106417197Y-216175963D01*
X106390568Y-216094008D01*
X106390566Y-216094005D01*
X106390566Y-216094003D01*
X106283342Y-215883566D01*
X106144517Y-215692490D01*
X105977510Y-215525483D01*
X105786433Y-215386657D01*
X105575996Y-215279433D01*
X105351368Y-215206446D01*
X105118097Y-215169500D01*
X105118092Y-215169500D01*
X104881908Y-215169500D01*
X104881903Y-215169500D01*
X104648631Y-215206446D01*
X104424003Y-215279433D01*
X104213566Y-215386657D01*
X104104550Y-215465862D01*
X104022490Y-215525483D01*
X104022488Y-215525485D01*
X104022487Y-215525485D01*
X103855485Y-215692487D01*
X103855485Y-215692488D01*
X103855483Y-215692490D01*
X103795862Y-215774550D01*
X103716657Y-215883566D01*
X103609433Y-216094003D01*
X103536446Y-216318631D01*
X103499500Y-216551902D01*
X103499500Y-216788097D01*
X103536446Y-217021368D01*
X103609433Y-217245996D01*
X103716657Y-217456433D01*
X103786537Y-217552614D01*
X103810017Y-217618421D01*
X103794192Y-217686475D01*
X103744086Y-217735170D01*
X103686219Y-217749500D01*
X101124500Y-217749500D01*
X101057461Y-217729815D01*
X101011706Y-217677011D01*
X101000500Y-217625500D01*
X101000500Y-208251902D01*
X103499500Y-208251902D01*
X103499500Y-208488097D01*
X103536446Y-208721368D01*
X103609433Y-208945996D01*
X103716657Y-209156433D01*
X103855483Y-209347510D01*
X104022490Y-209514517D01*
X104213567Y-209653343D01*
X104312991Y-209704002D01*
X104424003Y-209760566D01*
X104424005Y-209760566D01*
X104424008Y-209760568D01*
X104544412Y-209799689D01*
X104648631Y-209833553D01*
X104881903Y-209870500D01*
X104881908Y-209870500D01*
X105118097Y-209870500D01*
X105351368Y-209833553D01*
X105575992Y-209760568D01*
X105786433Y-209653343D01*
X105977510Y-209514517D01*
X106144517Y-209347510D01*
X106283343Y-209156433D01*
X106390568Y-208945992D01*
X106463553Y-208721368D01*
X106500500Y-208488097D01*
X106500500Y-208251902D01*
X113499500Y-208251902D01*
X113499500Y-208488097D01*
X113536446Y-208721368D01*
X113609433Y-208945996D01*
X113716657Y-209156433D01*
X113855483Y-209347510D01*
X114022490Y-209514517D01*
X114213567Y-209653343D01*
X114312991Y-209704002D01*
X114424003Y-209760566D01*
X114424005Y-209760566D01*
X114424008Y-209760568D01*
X114544412Y-209799689D01*
X114648631Y-209833553D01*
X114881903Y-209870500D01*
X114881908Y-209870500D01*
X115118097Y-209870500D01*
X115351368Y-209833553D01*
X115575992Y-209760568D01*
X115786433Y-209653343D01*
X115977510Y-209514517D01*
X116144517Y-209347510D01*
X116283343Y-209156433D01*
X116390568Y-208945992D01*
X116463553Y-208721368D01*
X116500500Y-208488097D01*
X116500500Y-208251902D01*
X123499500Y-208251902D01*
X123499500Y-208488097D01*
X123536446Y-208721368D01*
X123609433Y-208945996D01*
X123716657Y-209156433D01*
X123855483Y-209347510D01*
X124022490Y-209514517D01*
X124213567Y-209653343D01*
X124312991Y-209704002D01*
X124424003Y-209760566D01*
X124424005Y-209760566D01*
X124424008Y-209760568D01*
X124544412Y-209799689D01*
X124648631Y-209833553D01*
X124881903Y-209870500D01*
X124881908Y-209870500D01*
X125118097Y-209870500D01*
X125351368Y-209833553D01*
X125575992Y-209760568D01*
X125786433Y-209653343D01*
X125977510Y-209514517D01*
X126144517Y-209347510D01*
X126283343Y-209156433D01*
X126390568Y-208945992D01*
X126463553Y-208721368D01*
X126500500Y-208488097D01*
X126500500Y-208251902D01*
X126463553Y-208018631D01*
X126390566Y-207794003D01*
X126283342Y-207583566D01*
X126144517Y-207392490D01*
X125977510Y-207225483D01*
X125786433Y-207086657D01*
X125625160Y-207004484D01*
X125574365Y-206956510D01*
X125557570Y-206888689D01*
X125580107Y-206822555D01*
X125634822Y-206779103D01*
X125681456Y-206770000D01*
X126047828Y-206770000D01*
X126047844Y-206769999D01*
X126107372Y-206763598D01*
X126107379Y-206763596D01*
X126242086Y-206713354D01*
X126242093Y-206713350D01*
X126357187Y-206627190D01*
X126357190Y-206627187D01*
X126443350Y-206512093D01*
X126443354Y-206512086D01*
X126493596Y-206377379D01*
X126493598Y-206377372D01*
X126499999Y-206317844D01*
X126500000Y-206317827D01*
X126500000Y-205520000D01*
X125490748Y-205520000D01*
X125512518Y-205482292D01*
X125550000Y-205342409D01*
X125550000Y-205197591D01*
X125512518Y-205057708D01*
X125490748Y-205020000D01*
X126500000Y-205020000D01*
X126500000Y-204222172D01*
X126499999Y-204222155D01*
X126493598Y-204162627D01*
X126493596Y-204162620D01*
X126443354Y-204027913D01*
X126443350Y-204027906D01*
X126357190Y-203912812D01*
X126357187Y-203912809D01*
X126242093Y-203826649D01*
X126242086Y-203826645D01*
X126107379Y-203776403D01*
X126107372Y-203776401D01*
X126047844Y-203770000D01*
X125250000Y-203770000D01*
X125250000Y-204779252D01*
X125212292Y-204757482D01*
X125072409Y-204720000D01*
X124927591Y-204720000D01*
X124787708Y-204757482D01*
X124750000Y-204779252D01*
X124750000Y-203770000D01*
X123952155Y-203770000D01*
X123892627Y-203776401D01*
X123892620Y-203776403D01*
X123757913Y-203826645D01*
X123757906Y-203826649D01*
X123642812Y-203912809D01*
X123642809Y-203912812D01*
X123556649Y-204027906D01*
X123556645Y-204027913D01*
X123506403Y-204162620D01*
X123506401Y-204162627D01*
X123500000Y-204222155D01*
X123500000Y-205020000D01*
X124509252Y-205020000D01*
X124487482Y-205057708D01*
X124450000Y-205197591D01*
X124450000Y-205342409D01*
X124487482Y-205482292D01*
X124509252Y-205520000D01*
X123500000Y-205520000D01*
X123500000Y-206317844D01*
X123506401Y-206377372D01*
X123506403Y-206377379D01*
X123556645Y-206512086D01*
X123556649Y-206512093D01*
X123642809Y-206627187D01*
X123642812Y-206627190D01*
X123757906Y-206713350D01*
X123757913Y-206713354D01*
X123892620Y-206763596D01*
X123892627Y-206763598D01*
X123952155Y-206769999D01*
X123952172Y-206770000D01*
X124318544Y-206770000D01*
X124385583Y-206789685D01*
X124431338Y-206842489D01*
X124441282Y-206911647D01*
X124412257Y-206975203D01*
X124374839Y-207004485D01*
X124213566Y-207086657D01*
X124104550Y-207165862D01*
X124022490Y-207225483D01*
X124022488Y-207225485D01*
X124022487Y-207225485D01*
X123855485Y-207392487D01*
X123855485Y-207392488D01*
X123855483Y-207392490D01*
X123795862Y-207474550D01*
X123716657Y-207583566D01*
X123609433Y-207794003D01*
X123536446Y-208018631D01*
X123499500Y-208251902D01*
X116500500Y-208251902D01*
X116463553Y-208018631D01*
X116390566Y-207794003D01*
X116283342Y-207583566D01*
X116144517Y-207392490D01*
X115977510Y-207225483D01*
X115786433Y-207086657D01*
X115625160Y-207004484D01*
X115574365Y-206956510D01*
X115557570Y-206888689D01*
X115580107Y-206822555D01*
X115634822Y-206779103D01*
X115681456Y-206770000D01*
X116047828Y-206770000D01*
X116047844Y-206769999D01*
X116107372Y-206763598D01*
X116107379Y-206763596D01*
X116242086Y-206713354D01*
X116242093Y-206713350D01*
X116357187Y-206627190D01*
X116357190Y-206627187D01*
X116443350Y-206512093D01*
X116443354Y-206512086D01*
X116493596Y-206377379D01*
X116493598Y-206377372D01*
X116499999Y-206317844D01*
X116500000Y-206317827D01*
X116500000Y-205520000D01*
X115490748Y-205520000D01*
X115512518Y-205482292D01*
X115550000Y-205342409D01*
X115550000Y-205197591D01*
X115512518Y-205057708D01*
X115490748Y-205020000D01*
X116500000Y-205020000D01*
X116500000Y-204222172D01*
X116499999Y-204222155D01*
X116493598Y-204162627D01*
X116493596Y-204162620D01*
X116443354Y-204027913D01*
X116443350Y-204027906D01*
X116357190Y-203912812D01*
X116357187Y-203912809D01*
X116242093Y-203826649D01*
X116242086Y-203826645D01*
X116107379Y-203776403D01*
X116107372Y-203776401D01*
X116047844Y-203770000D01*
X115250000Y-203770000D01*
X115250000Y-204779252D01*
X115212292Y-204757482D01*
X115072409Y-204720000D01*
X114927591Y-204720000D01*
X114787708Y-204757482D01*
X114750000Y-204779252D01*
X114750000Y-203770000D01*
X113952155Y-203770000D01*
X113892627Y-203776401D01*
X113892620Y-203776403D01*
X113757913Y-203826645D01*
X113757906Y-203826649D01*
X113642812Y-203912809D01*
X113642809Y-203912812D01*
X113556649Y-204027906D01*
X113556645Y-204027913D01*
X113506403Y-204162620D01*
X113506401Y-204162627D01*
X113500000Y-204222155D01*
X113500000Y-205020000D01*
X114509252Y-205020000D01*
X114487482Y-205057708D01*
X114450000Y-205197591D01*
X114450000Y-205342409D01*
X114487482Y-205482292D01*
X114509252Y-205520000D01*
X113500000Y-205520000D01*
X113500000Y-206317844D01*
X113506401Y-206377372D01*
X113506403Y-206377379D01*
X113556645Y-206512086D01*
X113556649Y-206512093D01*
X113642809Y-206627187D01*
X113642812Y-206627190D01*
X113757906Y-206713350D01*
X113757913Y-206713354D01*
X113892620Y-206763596D01*
X113892627Y-206763598D01*
X113952155Y-206769999D01*
X113952172Y-206770000D01*
X114318544Y-206770000D01*
X114385583Y-206789685D01*
X114431338Y-206842489D01*
X114441282Y-206911647D01*
X114412257Y-206975203D01*
X114374839Y-207004485D01*
X114213566Y-207086657D01*
X114104550Y-207165862D01*
X114022490Y-207225483D01*
X114022488Y-207225485D01*
X114022487Y-207225485D01*
X113855485Y-207392487D01*
X113855485Y-207392488D01*
X113855483Y-207392490D01*
X113795862Y-207474550D01*
X113716657Y-207583566D01*
X113609433Y-207794003D01*
X113536446Y-208018631D01*
X113499500Y-208251902D01*
X106500500Y-208251902D01*
X106463553Y-208018631D01*
X106390566Y-207794003D01*
X106283342Y-207583566D01*
X106144517Y-207392490D01*
X105977510Y-207225483D01*
X105786433Y-207086657D01*
X105625160Y-207004484D01*
X105574365Y-206956510D01*
X105557570Y-206888689D01*
X105580107Y-206822555D01*
X105634822Y-206779103D01*
X105681456Y-206770000D01*
X106047828Y-206770000D01*
X106047844Y-206769999D01*
X106107372Y-206763598D01*
X106107379Y-206763596D01*
X106242086Y-206713354D01*
X106242093Y-206713350D01*
X106357187Y-206627190D01*
X106357190Y-206627187D01*
X106443350Y-206512093D01*
X106443354Y-206512086D01*
X106493596Y-206377379D01*
X106493598Y-206377372D01*
X106499999Y-206317844D01*
X106500000Y-206317827D01*
X106500000Y-205520000D01*
X105490748Y-205520000D01*
X105512518Y-205482292D01*
X105550000Y-205342409D01*
X105550000Y-205197591D01*
X105512518Y-205057708D01*
X105490748Y-205020000D01*
X106500000Y-205020000D01*
X106500000Y-204222172D01*
X106499999Y-204222155D01*
X106493598Y-204162627D01*
X106493596Y-204162620D01*
X106443354Y-204027913D01*
X106443350Y-204027906D01*
X106357190Y-203912812D01*
X106357187Y-203912809D01*
X106242093Y-203826649D01*
X106242086Y-203826645D01*
X106107379Y-203776403D01*
X106107372Y-203776401D01*
X106047844Y-203770000D01*
X105250000Y-203770000D01*
X105250000Y-204779252D01*
X105212292Y-204757482D01*
X105072409Y-204720000D01*
X104927591Y-204720000D01*
X104787708Y-204757482D01*
X104750000Y-204779252D01*
X104750000Y-203770000D01*
X103952155Y-203770000D01*
X103892627Y-203776401D01*
X103892620Y-203776403D01*
X103757913Y-203826645D01*
X103757906Y-203826649D01*
X103642812Y-203912809D01*
X103642809Y-203912812D01*
X103556649Y-204027906D01*
X103556645Y-204027913D01*
X103506403Y-204162620D01*
X103506401Y-204162627D01*
X103500000Y-204222155D01*
X103500000Y-205020000D01*
X104509252Y-205020000D01*
X104487482Y-205057708D01*
X104450000Y-205197591D01*
X104450000Y-205342409D01*
X104487482Y-205482292D01*
X104509252Y-205520000D01*
X103500000Y-205520000D01*
X103500000Y-206317844D01*
X103506401Y-206377372D01*
X103506403Y-206377379D01*
X103556645Y-206512086D01*
X103556649Y-206512093D01*
X103642809Y-206627187D01*
X103642812Y-206627190D01*
X103757906Y-206713350D01*
X103757913Y-206713354D01*
X103892620Y-206763596D01*
X103892627Y-206763598D01*
X103952155Y-206769999D01*
X103952172Y-206770000D01*
X104318544Y-206770000D01*
X104385583Y-206789685D01*
X104431338Y-206842489D01*
X104441282Y-206911647D01*
X104412257Y-206975203D01*
X104374839Y-207004485D01*
X104213566Y-207086657D01*
X104104550Y-207165862D01*
X104022490Y-207225483D01*
X104022488Y-207225485D01*
X104022487Y-207225485D01*
X103855485Y-207392487D01*
X103855485Y-207392488D01*
X103855483Y-207392490D01*
X103795862Y-207474550D01*
X103716657Y-207583566D01*
X103609433Y-207794003D01*
X103536446Y-208018631D01*
X103499500Y-208251902D01*
X101000500Y-208251902D01*
X101000500Y-201551902D01*
X103499500Y-201551902D01*
X103499500Y-201788097D01*
X103536446Y-202021368D01*
X103609433Y-202245996D01*
X103716657Y-202456433D01*
X103855483Y-202647510D01*
X104022490Y-202814517D01*
X104213567Y-202953343D01*
X104312991Y-203004002D01*
X104424003Y-203060566D01*
X104424005Y-203060566D01*
X104424008Y-203060568D01*
X104544412Y-203099689D01*
X104648631Y-203133553D01*
X104881903Y-203170500D01*
X104881908Y-203170500D01*
X105118097Y-203170500D01*
X105351368Y-203133553D01*
X105575992Y-203060568D01*
X105786433Y-202953343D01*
X105977510Y-202814517D01*
X106144517Y-202647510D01*
X106283343Y-202456433D01*
X106390568Y-202245992D01*
X106463553Y-202021368D01*
X106500500Y-201788097D01*
X106500500Y-201551902D01*
X113499500Y-201551902D01*
X113499500Y-201788097D01*
X113536446Y-202021368D01*
X113609433Y-202245996D01*
X113716657Y-202456433D01*
X113855483Y-202647510D01*
X114022490Y-202814517D01*
X114213567Y-202953343D01*
X114312991Y-203004002D01*
X114424003Y-203060566D01*
X114424005Y-203060566D01*
X114424008Y-203060568D01*
X114544412Y-203099689D01*
X114648631Y-203133553D01*
X114881903Y-203170500D01*
X114881908Y-203170500D01*
X115118097Y-203170500D01*
X115351368Y-203133553D01*
X115575992Y-203060568D01*
X115786433Y-202953343D01*
X115977510Y-202814517D01*
X116144517Y-202647510D01*
X116283343Y-202456433D01*
X116390568Y-202245992D01*
X116463553Y-202021368D01*
X116500500Y-201788097D01*
X116500500Y-201551902D01*
X123499500Y-201551902D01*
X123499500Y-201788097D01*
X123536446Y-202021368D01*
X123609433Y-202245996D01*
X123716657Y-202456433D01*
X123855483Y-202647510D01*
X124022490Y-202814517D01*
X124213567Y-202953343D01*
X124312991Y-203004002D01*
X124424003Y-203060566D01*
X124424005Y-203060566D01*
X124424008Y-203060568D01*
X124544412Y-203099689D01*
X124648631Y-203133553D01*
X124881903Y-203170500D01*
X124881908Y-203170500D01*
X125118097Y-203170500D01*
X125351368Y-203133553D01*
X125575992Y-203060568D01*
X125786433Y-202953343D01*
X125977510Y-202814517D01*
X126144517Y-202647510D01*
X126283343Y-202456433D01*
X126390568Y-202245992D01*
X126463553Y-202021368D01*
X126500500Y-201788097D01*
X126500500Y-201551902D01*
X126463553Y-201318631D01*
X126390566Y-201094003D01*
X126283342Y-200883566D01*
X126144517Y-200692490D01*
X125977510Y-200525483D01*
X125786433Y-200386657D01*
X125575996Y-200279433D01*
X125351368Y-200206446D01*
X125118097Y-200169500D01*
X125118092Y-200169500D01*
X124881908Y-200169500D01*
X124881903Y-200169500D01*
X124648631Y-200206446D01*
X124424003Y-200279433D01*
X124213566Y-200386657D01*
X124104550Y-200465862D01*
X124022490Y-200525483D01*
X124022488Y-200525485D01*
X124022487Y-200525485D01*
X123855485Y-200692487D01*
X123855485Y-200692488D01*
X123855483Y-200692490D01*
X123795862Y-200774550D01*
X123716657Y-200883566D01*
X123609433Y-201094003D01*
X123536446Y-201318631D01*
X123499500Y-201551902D01*
X116500500Y-201551902D01*
X116463553Y-201318631D01*
X116390566Y-201094003D01*
X116283342Y-200883566D01*
X116144517Y-200692490D01*
X115977510Y-200525483D01*
X115786433Y-200386657D01*
X115575996Y-200279433D01*
X115351368Y-200206446D01*
X115118097Y-200169500D01*
X115118092Y-200169500D01*
X114881908Y-200169500D01*
X114881903Y-200169500D01*
X114648631Y-200206446D01*
X114424003Y-200279433D01*
X114213566Y-200386657D01*
X114104550Y-200465862D01*
X114022490Y-200525483D01*
X114022488Y-200525485D01*
X114022487Y-200525485D01*
X113855485Y-200692487D01*
X113855485Y-200692488D01*
X113855483Y-200692490D01*
X113795862Y-200774550D01*
X113716657Y-200883566D01*
X113609433Y-201094003D01*
X113536446Y-201318631D01*
X113499500Y-201551902D01*
X106500500Y-201551902D01*
X106463553Y-201318631D01*
X106390566Y-201094003D01*
X106283342Y-200883566D01*
X106144517Y-200692490D01*
X105977510Y-200525483D01*
X105786433Y-200386657D01*
X105575996Y-200279433D01*
X105351368Y-200206446D01*
X105118097Y-200169500D01*
X105118092Y-200169500D01*
X104881908Y-200169500D01*
X104881903Y-200169500D01*
X104648631Y-200206446D01*
X104424003Y-200279433D01*
X104213566Y-200386657D01*
X104104550Y-200465862D01*
X104022490Y-200525483D01*
X104022488Y-200525485D01*
X104022487Y-200525485D01*
X103855485Y-200692487D01*
X103855485Y-200692488D01*
X103855483Y-200692490D01*
X103795862Y-200774550D01*
X103716657Y-200883566D01*
X103609433Y-201094003D01*
X103536446Y-201318631D01*
X103499500Y-201551902D01*
X101000500Y-201551902D01*
X101000500Y-193251902D01*
X103499500Y-193251902D01*
X103499500Y-193488097D01*
X103536446Y-193721368D01*
X103609433Y-193945996D01*
X103716657Y-194156433D01*
X103855483Y-194347510D01*
X104022490Y-194514517D01*
X104213567Y-194653343D01*
X104312991Y-194704002D01*
X104424003Y-194760566D01*
X104424005Y-194760566D01*
X104424008Y-194760568D01*
X104544412Y-194799689D01*
X104648631Y-194833553D01*
X104881903Y-194870500D01*
X104881908Y-194870500D01*
X105118097Y-194870500D01*
X105351368Y-194833553D01*
X105575992Y-194760568D01*
X105786433Y-194653343D01*
X105977510Y-194514517D01*
X106144517Y-194347510D01*
X106283343Y-194156433D01*
X106390568Y-193945992D01*
X106463553Y-193721368D01*
X106500500Y-193488097D01*
X106500500Y-193251902D01*
X113499500Y-193251902D01*
X113499500Y-193488097D01*
X113536446Y-193721368D01*
X113609433Y-193945996D01*
X113716657Y-194156433D01*
X113855483Y-194347510D01*
X114022490Y-194514517D01*
X114213567Y-194653343D01*
X114312991Y-194704002D01*
X114424003Y-194760566D01*
X114424005Y-194760566D01*
X114424008Y-194760568D01*
X114544412Y-194799689D01*
X114648631Y-194833553D01*
X114881903Y-194870500D01*
X114881908Y-194870500D01*
X115118097Y-194870500D01*
X115351368Y-194833553D01*
X115575992Y-194760568D01*
X115786433Y-194653343D01*
X115977510Y-194514517D01*
X116144517Y-194347510D01*
X116283343Y-194156433D01*
X116390568Y-193945992D01*
X116463553Y-193721368D01*
X116500500Y-193488097D01*
X116500500Y-193251902D01*
X116463553Y-193018631D01*
X116390566Y-192794003D01*
X116283342Y-192583566D01*
X116144517Y-192392490D01*
X115977510Y-192225483D01*
X115786433Y-192086657D01*
X115625160Y-192004484D01*
X115574365Y-191956510D01*
X115557570Y-191888689D01*
X115580107Y-191822555D01*
X115634822Y-191779103D01*
X115681456Y-191770000D01*
X116047828Y-191770000D01*
X116047844Y-191769999D01*
X116107372Y-191763598D01*
X116107379Y-191763596D01*
X116242086Y-191713354D01*
X116242093Y-191713350D01*
X116357187Y-191627190D01*
X116357190Y-191627187D01*
X116443350Y-191512093D01*
X116443354Y-191512086D01*
X116493596Y-191377379D01*
X116493598Y-191377372D01*
X116499999Y-191317844D01*
X116500000Y-191317827D01*
X116500000Y-190520000D01*
X115490748Y-190520000D01*
X115512518Y-190482292D01*
X115550000Y-190342409D01*
X115550000Y-190197591D01*
X115512518Y-190057708D01*
X115490748Y-190020000D01*
X116500000Y-190020000D01*
X116500000Y-189222172D01*
X116499999Y-189222155D01*
X116493598Y-189162627D01*
X116493596Y-189162620D01*
X116443354Y-189027913D01*
X116443350Y-189027906D01*
X116357190Y-188912812D01*
X116357187Y-188912809D01*
X116242093Y-188826649D01*
X116242086Y-188826645D01*
X116107379Y-188776403D01*
X116107372Y-188776401D01*
X116047844Y-188770000D01*
X115250000Y-188770000D01*
X115250000Y-189779252D01*
X115212292Y-189757482D01*
X115072409Y-189720000D01*
X114927591Y-189720000D01*
X114787708Y-189757482D01*
X114750000Y-189779252D01*
X114750000Y-188770000D01*
X113952155Y-188770000D01*
X113892627Y-188776401D01*
X113892620Y-188776403D01*
X113757913Y-188826645D01*
X113757906Y-188826649D01*
X113642812Y-188912809D01*
X113642809Y-188912812D01*
X113556649Y-189027906D01*
X113556645Y-189027913D01*
X113506403Y-189162620D01*
X113506401Y-189162627D01*
X113500000Y-189222155D01*
X113500000Y-190020000D01*
X114509252Y-190020000D01*
X114487482Y-190057708D01*
X114450000Y-190197591D01*
X114450000Y-190342409D01*
X114487482Y-190482292D01*
X114509252Y-190520000D01*
X113500000Y-190520000D01*
X113500000Y-191317844D01*
X113506401Y-191377372D01*
X113506403Y-191377379D01*
X113556645Y-191512086D01*
X113556649Y-191512093D01*
X113642809Y-191627187D01*
X113642812Y-191627190D01*
X113757906Y-191713350D01*
X113757913Y-191713354D01*
X113892620Y-191763596D01*
X113892627Y-191763598D01*
X113952155Y-191769999D01*
X113952172Y-191770000D01*
X114318544Y-191770000D01*
X114385583Y-191789685D01*
X114431338Y-191842489D01*
X114441282Y-191911647D01*
X114412257Y-191975203D01*
X114374839Y-192004485D01*
X114213566Y-192086657D01*
X114104550Y-192165862D01*
X114022490Y-192225483D01*
X114022488Y-192225485D01*
X114022487Y-192225485D01*
X113855485Y-192392487D01*
X113855485Y-192392488D01*
X113855483Y-192392490D01*
X113795862Y-192474550D01*
X113716657Y-192583566D01*
X113609433Y-192794003D01*
X113536446Y-193018631D01*
X113499500Y-193251902D01*
X106500500Y-193251902D01*
X106463553Y-193018631D01*
X106390566Y-192794003D01*
X106283342Y-192583566D01*
X106144517Y-192392490D01*
X105977510Y-192225483D01*
X105786433Y-192086657D01*
X105625160Y-192004484D01*
X105574365Y-191956510D01*
X105557570Y-191888689D01*
X105580107Y-191822555D01*
X105634822Y-191779103D01*
X105681456Y-191770000D01*
X106047828Y-191770000D01*
X106047844Y-191769999D01*
X106107372Y-191763598D01*
X106107379Y-191763596D01*
X106242086Y-191713354D01*
X106242093Y-191713350D01*
X106357187Y-191627190D01*
X106357190Y-191627187D01*
X106443350Y-191512093D01*
X106443354Y-191512086D01*
X106493596Y-191377379D01*
X106493598Y-191377372D01*
X106499999Y-191317844D01*
X106500000Y-191317827D01*
X106500000Y-190520000D01*
X105490748Y-190520000D01*
X105512518Y-190482292D01*
X105550000Y-190342409D01*
X105550000Y-190197591D01*
X105512518Y-190057708D01*
X105490748Y-190020000D01*
X106500000Y-190020000D01*
X106500000Y-189222172D01*
X106499999Y-189222155D01*
X106493598Y-189162627D01*
X106493596Y-189162620D01*
X106443354Y-189027913D01*
X106443350Y-189027906D01*
X106357190Y-188912812D01*
X106357187Y-188912809D01*
X106242093Y-188826649D01*
X106242086Y-188826645D01*
X106107379Y-188776403D01*
X106107372Y-188776401D01*
X106047844Y-188770000D01*
X105250000Y-188770000D01*
X105250000Y-189779252D01*
X105212292Y-189757482D01*
X105072409Y-189720000D01*
X104927591Y-189720000D01*
X104787708Y-189757482D01*
X104750000Y-189779252D01*
X104750000Y-188770000D01*
X103952155Y-188770000D01*
X103892627Y-188776401D01*
X103892620Y-188776403D01*
X103757913Y-188826645D01*
X103757906Y-188826649D01*
X103642812Y-188912809D01*
X103642809Y-188912812D01*
X103556649Y-189027906D01*
X103556645Y-189027913D01*
X103506403Y-189162620D01*
X103506401Y-189162627D01*
X103500000Y-189222155D01*
X103500000Y-190020000D01*
X104509252Y-190020000D01*
X104487482Y-190057708D01*
X104450000Y-190197591D01*
X104450000Y-190342409D01*
X104487482Y-190482292D01*
X104509252Y-190520000D01*
X103500000Y-190520000D01*
X103500000Y-191317844D01*
X103506401Y-191377372D01*
X103506403Y-191377379D01*
X103556645Y-191512086D01*
X103556649Y-191512093D01*
X103642809Y-191627187D01*
X103642812Y-191627190D01*
X103757906Y-191713350D01*
X103757913Y-191713354D01*
X103892620Y-191763596D01*
X103892627Y-191763598D01*
X103952155Y-191769999D01*
X103952172Y-191770000D01*
X104318544Y-191770000D01*
X104385583Y-191789685D01*
X104431338Y-191842489D01*
X104441282Y-191911647D01*
X104412257Y-191975203D01*
X104374839Y-192004485D01*
X104213566Y-192086657D01*
X104104550Y-192165862D01*
X104022490Y-192225483D01*
X104022488Y-192225485D01*
X104022487Y-192225485D01*
X103855485Y-192392487D01*
X103855485Y-192392488D01*
X103855483Y-192392490D01*
X103795862Y-192474550D01*
X103716657Y-192583566D01*
X103609433Y-192794003D01*
X103536446Y-193018631D01*
X103499500Y-193251902D01*
X101000500Y-193251902D01*
X101000500Y-186127155D01*
X104175000Y-186127155D01*
X104175000Y-186750000D01*
X105009252Y-186750000D01*
X104987482Y-186787708D01*
X104950000Y-186927591D01*
X104950000Y-187072409D01*
X104987482Y-187212292D01*
X105009252Y-187250000D01*
X104175000Y-187250000D01*
X104175000Y-187872844D01*
X104181401Y-187932372D01*
X104181403Y-187932379D01*
X104231645Y-188067086D01*
X104231649Y-188067093D01*
X104317809Y-188182187D01*
X104317812Y-188182190D01*
X104432906Y-188268350D01*
X104432913Y-188268354D01*
X104567620Y-188318596D01*
X104567627Y-188318598D01*
X104627155Y-188324999D01*
X104627172Y-188325000D01*
X105250000Y-188325000D01*
X105250000Y-187490747D01*
X105287708Y-187512518D01*
X105427591Y-187550000D01*
X105572409Y-187550000D01*
X105712292Y-187512518D01*
X105750000Y-187490747D01*
X105750000Y-188325000D01*
X106372828Y-188325000D01*
X106372844Y-188324999D01*
X106432372Y-188318598D01*
X106432379Y-188318596D01*
X106567086Y-188268354D01*
X106567093Y-188268350D01*
X106682187Y-188182190D01*
X106682190Y-188182187D01*
X106768350Y-188067093D01*
X106768354Y-188067086D01*
X106816160Y-187938911D01*
X106858031Y-187882978D01*
X106923495Y-187858560D01*
X106991768Y-187873411D01*
X107020023Y-187894563D01*
X107136495Y-188011035D01*
X107305286Y-188133670D01*
X107393116Y-188178421D01*
X107491179Y-188228387D01*
X107491181Y-188228387D01*
X107491184Y-188228389D01*
X107597545Y-188262948D01*
X107689610Y-188292862D01*
X107895676Y-188325500D01*
X107895681Y-188325500D01*
X108104324Y-188325500D01*
X108310389Y-188292862D01*
X108357582Y-188277528D01*
X108508816Y-188228389D01*
X108694714Y-188133670D01*
X108863505Y-188011035D01*
X109011035Y-187863505D01*
X109133670Y-187694714D01*
X109139515Y-187683243D01*
X109187489Y-187632447D01*
X109255310Y-187615651D01*
X109321445Y-187638188D01*
X109360485Y-187683243D01*
X109366328Y-187694712D01*
X109448086Y-187807241D01*
X109488965Y-187863505D01*
X109636495Y-188011035D01*
X109805286Y-188133670D01*
X109893116Y-188178421D01*
X109991179Y-188228387D01*
X109991181Y-188228387D01*
X109991184Y-188228389D01*
X110097545Y-188262948D01*
X110189610Y-188292862D01*
X110395676Y-188325500D01*
X110395681Y-188325500D01*
X110604324Y-188325500D01*
X110810389Y-188292862D01*
X110857582Y-188277528D01*
X111008816Y-188228389D01*
X111194714Y-188133670D01*
X111363505Y-188011035D01*
X111511035Y-187863505D01*
X111633670Y-187694714D01*
X111728389Y-187508816D01*
X111792862Y-187310389D01*
X111802427Y-187250000D01*
X111825500Y-187104324D01*
X111825500Y-186895675D01*
X111792862Y-186689610D01*
X111750000Y-186557695D01*
X111728389Y-186491184D01*
X111728387Y-186491181D01*
X111728387Y-186491179D01*
X111662470Y-186361809D01*
X111633670Y-186305286D01*
X111511035Y-186136495D01*
X111363505Y-185988965D01*
X111231971Y-185893399D01*
X113645500Y-185893399D01*
X113645500Y-186106600D01*
X113678853Y-186317180D01*
X113678853Y-186317183D01*
X113744734Y-186519944D01*
X113744736Y-186519947D01*
X113841528Y-186709913D01*
X113966846Y-186882397D01*
X114117603Y-187033154D01*
X114290087Y-187158472D01*
X114480053Y-187255264D01*
X114480055Y-187255265D01*
X114649711Y-187310389D01*
X114682821Y-187321147D01*
X114893399Y-187354500D01*
X114893400Y-187354500D01*
X115106600Y-187354500D01*
X115106601Y-187354500D01*
X115317179Y-187321147D01*
X115317182Y-187321146D01*
X115317183Y-187321146D01*
X115519944Y-187255265D01*
X115519944Y-187255264D01*
X115519947Y-187255264D01*
X115709913Y-187158472D01*
X115882397Y-187033154D01*
X116033154Y-186882397D01*
X116158472Y-186709913D01*
X116255264Y-186519947D01*
X116264611Y-186491179D01*
X116321146Y-186317183D01*
X116321146Y-186317182D01*
X116321147Y-186317179D01*
X116351244Y-186127155D01*
X118175000Y-186127155D01*
X118175000Y-186750000D01*
X119009252Y-186750000D01*
X118987482Y-186787708D01*
X118950000Y-186927591D01*
X118950000Y-187072409D01*
X118987482Y-187212292D01*
X119009252Y-187250000D01*
X118175000Y-187250000D01*
X118175000Y-187872844D01*
X118181401Y-187932372D01*
X118181403Y-187932379D01*
X118231645Y-188067086D01*
X118231649Y-188067093D01*
X118317809Y-188182187D01*
X118317812Y-188182190D01*
X118432906Y-188268350D01*
X118432913Y-188268354D01*
X118567620Y-188318596D01*
X118567627Y-188318598D01*
X118627155Y-188324999D01*
X118627172Y-188325000D01*
X119172849Y-188325000D01*
X119239888Y-188344685D01*
X119285643Y-188397489D01*
X119295587Y-188466647D01*
X119266562Y-188530203D01*
X119260530Y-188536681D01*
X119139376Y-188657834D01*
X119139373Y-188657837D01*
X119046295Y-188797139D01*
X118982184Y-188951917D01*
X118982182Y-188951925D01*
X118949500Y-189116228D01*
X118949500Y-189283771D01*
X118982182Y-189448074D01*
X118982184Y-189448082D01*
X119046295Y-189602860D01*
X119139373Y-189742162D01*
X119257837Y-189860626D01*
X119350494Y-189922537D01*
X119397137Y-189953703D01*
X119551918Y-190017816D01*
X119716228Y-190050499D01*
X119716232Y-190050500D01*
X119716233Y-190050500D01*
X119883768Y-190050500D01*
X119883769Y-190050499D01*
X120048082Y-190017816D01*
X120202863Y-189953703D01*
X120342162Y-189860626D01*
X120460626Y-189742162D01*
X120553703Y-189602863D01*
X120617816Y-189448082D01*
X120617817Y-189448072D01*
X120619585Y-189442250D01*
X120621316Y-189442775D01*
X120649746Y-189388410D01*
X120710457Y-189353827D01*
X120738990Y-189350500D01*
X122864071Y-189350500D01*
X122948615Y-189333682D01*
X122989744Y-189325501D01*
X123108127Y-189276465D01*
X123126679Y-189264069D01*
X123214669Y-189205277D01*
X123288320Y-189131625D01*
X123349641Y-189098142D01*
X123419333Y-189103126D01*
X123475267Y-189144997D01*
X123499684Y-189210461D01*
X123500000Y-189219308D01*
X123500000Y-190020000D01*
X124509252Y-190020000D01*
X124487482Y-190057708D01*
X124450000Y-190197591D01*
X124450000Y-190342409D01*
X124487482Y-190482292D01*
X124509252Y-190520000D01*
X123500000Y-190520000D01*
X123500000Y-191317844D01*
X123506401Y-191377372D01*
X123506403Y-191377379D01*
X123556645Y-191512086D01*
X123556649Y-191512093D01*
X123642809Y-191627187D01*
X123642812Y-191627190D01*
X123757906Y-191713350D01*
X123757913Y-191713354D01*
X123892620Y-191763596D01*
X123892627Y-191763598D01*
X123952155Y-191769999D01*
X123952172Y-191770000D01*
X124318544Y-191770000D01*
X124385583Y-191789685D01*
X124431338Y-191842489D01*
X124441282Y-191911647D01*
X124412257Y-191975203D01*
X124374839Y-192004485D01*
X124213566Y-192086657D01*
X124104550Y-192165862D01*
X124022490Y-192225483D01*
X124022488Y-192225485D01*
X124022487Y-192225485D01*
X123855485Y-192392487D01*
X123855485Y-192392488D01*
X123855483Y-192392490D01*
X123795862Y-192474550D01*
X123716657Y-192583566D01*
X123609433Y-192794003D01*
X123536446Y-193018631D01*
X123499500Y-193251902D01*
X123499500Y-193488097D01*
X123536446Y-193721368D01*
X123609433Y-193945996D01*
X123716657Y-194156433D01*
X123855483Y-194347510D01*
X124022490Y-194514517D01*
X124213567Y-194653343D01*
X124312991Y-194704002D01*
X124424003Y-194760566D01*
X124424005Y-194760566D01*
X124424008Y-194760568D01*
X124544412Y-194799689D01*
X124648631Y-194833553D01*
X124881903Y-194870500D01*
X124881908Y-194870500D01*
X125118097Y-194870500D01*
X125351368Y-194833553D01*
X125575992Y-194760568D01*
X125786433Y-194653343D01*
X125977510Y-194514517D01*
X126144517Y-194347510D01*
X126283343Y-194156433D01*
X126390568Y-193945992D01*
X126463553Y-193721368D01*
X126500500Y-193488097D01*
X126500500Y-193251902D01*
X126463553Y-193018631D01*
X126390566Y-192794003D01*
X126283342Y-192583566D01*
X126144517Y-192392490D01*
X125977510Y-192225483D01*
X125786433Y-192086657D01*
X125625160Y-192004484D01*
X125574365Y-191956510D01*
X125557570Y-191888689D01*
X125580107Y-191822555D01*
X125634822Y-191779103D01*
X125681456Y-191770000D01*
X126047828Y-191770000D01*
X126047844Y-191769999D01*
X126107372Y-191763598D01*
X126107379Y-191763596D01*
X126242086Y-191713354D01*
X126242093Y-191713350D01*
X126357187Y-191627190D01*
X126357190Y-191627187D01*
X126443350Y-191512093D01*
X126443354Y-191512086D01*
X126493596Y-191377379D01*
X126493598Y-191377372D01*
X126499999Y-191317844D01*
X126500000Y-191317827D01*
X126500000Y-190520000D01*
X125490748Y-190520000D01*
X125512518Y-190482292D01*
X125550000Y-190342409D01*
X125550000Y-190197591D01*
X125512518Y-190057708D01*
X125490748Y-190020000D01*
X126500000Y-190020000D01*
X126500000Y-189222172D01*
X126499999Y-189222155D01*
X126493598Y-189162627D01*
X126493596Y-189162620D01*
X126443354Y-189027913D01*
X126443350Y-189027906D01*
X126357190Y-188912812D01*
X126357187Y-188912809D01*
X126242093Y-188826649D01*
X126242086Y-188826645D01*
X126107379Y-188776403D01*
X126107372Y-188776401D01*
X126047844Y-188770000D01*
X125250000Y-188770000D01*
X125250000Y-189779252D01*
X125212292Y-189757482D01*
X125072409Y-189720000D01*
X124927591Y-189720000D01*
X124787708Y-189757482D01*
X124750000Y-189779252D01*
X124750000Y-188770000D01*
X123949308Y-188770000D01*
X123882269Y-188750315D01*
X123836514Y-188697511D01*
X123826570Y-188628353D01*
X123855595Y-188564797D01*
X123861626Y-188558319D01*
X123889742Y-188530203D01*
X124090959Y-188328985D01*
X124152278Y-188295503D01*
X124198033Y-188294196D01*
X124240853Y-188300977D01*
X124395676Y-188325500D01*
X124395681Y-188325500D01*
X124604324Y-188325500D01*
X124810389Y-188292862D01*
X124857582Y-188277528D01*
X125008816Y-188228389D01*
X125194714Y-188133670D01*
X125363505Y-188011035D01*
X125511035Y-187863505D01*
X125633670Y-187694714D01*
X125728389Y-187508816D01*
X125792862Y-187310389D01*
X125802427Y-187250000D01*
X125825500Y-187104324D01*
X125825500Y-186895675D01*
X125792862Y-186689610D01*
X125750000Y-186557695D01*
X125728389Y-186491184D01*
X125728387Y-186491181D01*
X125728387Y-186491179D01*
X125662470Y-186361809D01*
X125633670Y-186305286D01*
X125511035Y-186136495D01*
X125363505Y-185988965D01*
X125194714Y-185866330D01*
X125008820Y-185771612D01*
X124810389Y-185707137D01*
X124604324Y-185674500D01*
X124604319Y-185674500D01*
X124395681Y-185674500D01*
X124395676Y-185674500D01*
X124189610Y-185707137D01*
X123991179Y-185771612D01*
X123805285Y-185866330D01*
X123636493Y-185988966D01*
X123488966Y-186136493D01*
X123366330Y-186305286D01*
X123360484Y-186316759D01*
X123312508Y-186367554D01*
X123244687Y-186384348D01*
X123178553Y-186361809D01*
X123139516Y-186316759D01*
X123138303Y-186314380D01*
X123133670Y-186305286D01*
X123011035Y-186136495D01*
X122863505Y-185988965D01*
X122694714Y-185866330D01*
X122508820Y-185771612D01*
X122310389Y-185707137D01*
X122104324Y-185674500D01*
X122104319Y-185674500D01*
X121895681Y-185674500D01*
X121895676Y-185674500D01*
X121689610Y-185707137D01*
X121491179Y-185771612D01*
X121305285Y-185866330D01*
X121136496Y-185988964D01*
X121020023Y-186105437D01*
X120958700Y-186138921D01*
X120889008Y-186133937D01*
X120833075Y-186092065D01*
X120816160Y-186061088D01*
X120768354Y-185932913D01*
X120768350Y-185932906D01*
X120682190Y-185817812D01*
X120682187Y-185817809D01*
X120567093Y-185731649D01*
X120567086Y-185731645D01*
X120432379Y-185681403D01*
X120432372Y-185681401D01*
X120372844Y-185675000D01*
X119750000Y-185675000D01*
X119750000Y-186509252D01*
X119712292Y-186487482D01*
X119572409Y-186450000D01*
X119427591Y-186450000D01*
X119287708Y-186487482D01*
X119250000Y-186509252D01*
X119250000Y-185675000D01*
X118627155Y-185675000D01*
X118567627Y-185681401D01*
X118567620Y-185681403D01*
X118432913Y-185731645D01*
X118432906Y-185731649D01*
X118317812Y-185817809D01*
X118317809Y-185817812D01*
X118231649Y-185932906D01*
X118231645Y-185932913D01*
X118181403Y-186067620D01*
X118181401Y-186067627D01*
X118175000Y-186127155D01*
X116351244Y-186127155D01*
X116354500Y-186106601D01*
X116354500Y-185893399D01*
X116321147Y-185682821D01*
X116321146Y-185682817D01*
X116321146Y-185682816D01*
X116255265Y-185480055D01*
X116255263Y-185480052D01*
X116158471Y-185290086D01*
X116033154Y-185117603D01*
X115882397Y-184966846D01*
X115709913Y-184841528D01*
X115519947Y-184744736D01*
X115519944Y-184744734D01*
X115317181Y-184678853D01*
X115176793Y-184656617D01*
X115106601Y-184645500D01*
X114893399Y-184645500D01*
X114823206Y-184656617D01*
X114682819Y-184678853D01*
X114682816Y-184678853D01*
X114480055Y-184744734D01*
X114480052Y-184744736D01*
X114290086Y-184841528D01*
X114117601Y-184966847D01*
X113966847Y-185117601D01*
X113841528Y-185290086D01*
X113744736Y-185480052D01*
X113744734Y-185480055D01*
X113678853Y-185682816D01*
X113678853Y-185682819D01*
X113645500Y-185893399D01*
X111231971Y-185893399D01*
X111194714Y-185866330D01*
X111008820Y-185771612D01*
X110810389Y-185707137D01*
X110604324Y-185674500D01*
X110604319Y-185674500D01*
X110395681Y-185674500D01*
X110395676Y-185674500D01*
X110189610Y-185707137D01*
X109991179Y-185771612D01*
X109805285Y-185866330D01*
X109636493Y-185988966D01*
X109488966Y-186136493D01*
X109366330Y-186305286D01*
X109360484Y-186316759D01*
X109312508Y-186367554D01*
X109244687Y-186384348D01*
X109178553Y-186361809D01*
X109139516Y-186316759D01*
X109138303Y-186314380D01*
X109133670Y-186305286D01*
X109011035Y-186136495D01*
X108863505Y-185988965D01*
X108694714Y-185866330D01*
X108508820Y-185771612D01*
X108310389Y-185707137D01*
X108104324Y-185674500D01*
X108104319Y-185674500D01*
X107895681Y-185674500D01*
X107895676Y-185674500D01*
X107689610Y-185707137D01*
X107491179Y-185771612D01*
X107305285Y-185866330D01*
X107136496Y-185988964D01*
X107020023Y-186105437D01*
X106958700Y-186138921D01*
X106889008Y-186133937D01*
X106833075Y-186092065D01*
X106816160Y-186061088D01*
X106768354Y-185932913D01*
X106768350Y-185932906D01*
X106682190Y-185817812D01*
X106682187Y-185817809D01*
X106567093Y-185731649D01*
X106567086Y-185731645D01*
X106432379Y-185681403D01*
X106432372Y-185681401D01*
X106372844Y-185675000D01*
X105750000Y-185675000D01*
X105750000Y-186509252D01*
X105712292Y-186487482D01*
X105572409Y-186450000D01*
X105427591Y-186450000D01*
X105287708Y-186487482D01*
X105250000Y-186509252D01*
X105250000Y-185675000D01*
X104627155Y-185675000D01*
X104567627Y-185681401D01*
X104567620Y-185681403D01*
X104432913Y-185731645D01*
X104432906Y-185731649D01*
X104317812Y-185817809D01*
X104317809Y-185817812D01*
X104231649Y-185932906D01*
X104231645Y-185932913D01*
X104181403Y-186067620D01*
X104181401Y-186067627D01*
X104175000Y-186127155D01*
X101000500Y-186127155D01*
X101000500Y-178394135D01*
X101441500Y-178394135D01*
X101441500Y-181605870D01*
X101441501Y-181605876D01*
X101447908Y-181665483D01*
X101498202Y-181800328D01*
X101498206Y-181800335D01*
X101584452Y-181915544D01*
X101584455Y-181915547D01*
X101699664Y-182001793D01*
X101699671Y-182001797D01*
X101834517Y-182052091D01*
X101834516Y-182052091D01*
X101841444Y-182052835D01*
X101894127Y-182058500D01*
X105105872Y-182058499D01*
X105165483Y-182052091D01*
X105300331Y-182001796D01*
X105415546Y-181915546D01*
X105501796Y-181800331D01*
X105552091Y-181665483D01*
X105558500Y-181605873D01*
X105558499Y-178394135D01*
X110441500Y-178394135D01*
X110441500Y-181605870D01*
X110441501Y-181605876D01*
X110447908Y-181665483D01*
X110498202Y-181800328D01*
X110498206Y-181800335D01*
X110584452Y-181915544D01*
X110584455Y-181915547D01*
X110699664Y-182001793D01*
X110699671Y-182001797D01*
X110834517Y-182052091D01*
X110834516Y-182052091D01*
X110841444Y-182052835D01*
X110894127Y-182058500D01*
X114105872Y-182058499D01*
X114165483Y-182052091D01*
X114300331Y-182001796D01*
X114415546Y-181915546D01*
X114501796Y-181800331D01*
X114552091Y-181665483D01*
X114558500Y-181605873D01*
X114558499Y-178394135D01*
X115441500Y-178394135D01*
X115441500Y-181605870D01*
X115441501Y-181605876D01*
X115447908Y-181665483D01*
X115498202Y-181800328D01*
X115498206Y-181800335D01*
X115584452Y-181915544D01*
X115584455Y-181915547D01*
X115699664Y-182001793D01*
X115699671Y-182001797D01*
X115834517Y-182052091D01*
X115834516Y-182052091D01*
X115841444Y-182052835D01*
X115894127Y-182058500D01*
X119105872Y-182058499D01*
X119165483Y-182052091D01*
X119300331Y-182001796D01*
X119415546Y-181915546D01*
X119501796Y-181800331D01*
X119552091Y-181665483D01*
X119558500Y-181605873D01*
X119558499Y-178394128D01*
X119552091Y-178334517D01*
X119501796Y-178199669D01*
X119501795Y-178199668D01*
X119501793Y-178199664D01*
X119415547Y-178084455D01*
X119415544Y-178084452D01*
X119300335Y-177998206D01*
X119300328Y-177998202D01*
X119165482Y-177947908D01*
X119165483Y-177947908D01*
X119105883Y-177941501D01*
X119105881Y-177941500D01*
X119105873Y-177941500D01*
X119105864Y-177941500D01*
X115894129Y-177941500D01*
X115894123Y-177941501D01*
X115834516Y-177947908D01*
X115699671Y-177998202D01*
X115699664Y-177998206D01*
X115584455Y-178084452D01*
X115584452Y-178084455D01*
X115498206Y-178199664D01*
X115498202Y-178199671D01*
X115447908Y-178334517D01*
X115445530Y-178356642D01*
X115441501Y-178394123D01*
X115441500Y-178394135D01*
X114558499Y-178394135D01*
X114558499Y-178394128D01*
X114552091Y-178334517D01*
X114501796Y-178199669D01*
X114501795Y-178199668D01*
X114501793Y-178199664D01*
X114415547Y-178084455D01*
X114415544Y-178084452D01*
X114300335Y-177998206D01*
X114300328Y-177998202D01*
X114165482Y-177947908D01*
X114165483Y-177947908D01*
X114105883Y-177941501D01*
X114105881Y-177941500D01*
X114105873Y-177941500D01*
X114105864Y-177941500D01*
X110894129Y-177941500D01*
X110894123Y-177941501D01*
X110834516Y-177947908D01*
X110699671Y-177998202D01*
X110699664Y-177998206D01*
X110584455Y-178084452D01*
X110584452Y-178084455D01*
X110498206Y-178199664D01*
X110498202Y-178199671D01*
X110447908Y-178334517D01*
X110445530Y-178356642D01*
X110441501Y-178394123D01*
X110441500Y-178394135D01*
X105558499Y-178394135D01*
X105558499Y-178394128D01*
X105552091Y-178334517D01*
X105501796Y-178199669D01*
X105501795Y-178199668D01*
X105501793Y-178199664D01*
X105415547Y-178084455D01*
X105415544Y-178084452D01*
X105300335Y-177998206D01*
X105300328Y-177998202D01*
X105165482Y-177947908D01*
X105165483Y-177947908D01*
X105105883Y-177941501D01*
X105105881Y-177941500D01*
X105105873Y-177941500D01*
X105105864Y-177941500D01*
X101894129Y-177941500D01*
X101894123Y-177941501D01*
X101834516Y-177947908D01*
X101699671Y-177998202D01*
X101699664Y-177998206D01*
X101584455Y-178084452D01*
X101584452Y-178084455D01*
X101498206Y-178199664D01*
X101498202Y-178199671D01*
X101447908Y-178334517D01*
X101445530Y-178356642D01*
X101441501Y-178394123D01*
X101441500Y-178394135D01*
X101000500Y-178394135D01*
X101000500Y-153599254D01*
X101020185Y-153532215D01*
X101072989Y-153486460D01*
X101142147Y-153476516D01*
X101171952Y-153484692D01*
X101251918Y-153517816D01*
X101416228Y-153550499D01*
X101416232Y-153550500D01*
X101416233Y-153550500D01*
X101583768Y-153550500D01*
X101583769Y-153550499D01*
X101748082Y-153517816D01*
X101902863Y-153453703D01*
X102042162Y-153360626D01*
X102049209Y-153353577D01*
X102110530Y-153320091D01*
X102161083Y-153319639D01*
X102316231Y-153350499D01*
X102316232Y-153350500D01*
X102316233Y-153350500D01*
X102483768Y-153350500D01*
X102483769Y-153350499D01*
X102648082Y-153317816D01*
X102802863Y-153253703D01*
X102942162Y-153160626D01*
X103060626Y-153042162D01*
X103153703Y-152902863D01*
X103217816Y-152748082D01*
X103250500Y-152583767D01*
X103250500Y-152416233D01*
X103217816Y-152251918D01*
X103156530Y-152103961D01*
X103153996Y-152097844D01*
X110200000Y-152097844D01*
X110206401Y-152157372D01*
X110206403Y-152157379D01*
X110256645Y-152292086D01*
X110256649Y-152292093D01*
X110342809Y-152407187D01*
X110342812Y-152407190D01*
X110457906Y-152493350D01*
X110457913Y-152493354D01*
X110592620Y-152543596D01*
X110592627Y-152543598D01*
X110652155Y-152549999D01*
X110652172Y-152550000D01*
X110950000Y-152550000D01*
X110950000Y-151800000D01*
X110200000Y-151800000D01*
X110200000Y-152097844D01*
X103153996Y-152097844D01*
X103153704Y-152097139D01*
X103132781Y-152065826D01*
X103088798Y-152000000D01*
X103060626Y-151957837D01*
X102948946Y-151846157D01*
X102948943Y-151846155D01*
X102942162Y-151839374D01*
X102802863Y-151746297D01*
X102766327Y-151731163D01*
X102757426Y-151725558D01*
X102740986Y-151706935D01*
X102721643Y-151691347D01*
X102718264Y-151681196D01*
X102711186Y-151673178D01*
X102707423Y-151648623D01*
X102699579Y-151625053D01*
X102699500Y-151620628D01*
X102699500Y-151275475D01*
X102719185Y-151208436D01*
X102771989Y-151162681D01*
X102841147Y-151152737D01*
X102861820Y-151157545D01*
X102895458Y-151168475D01*
X102895461Y-151168475D01*
X102895466Y-151168477D01*
X103097648Y-151200500D01*
X103097649Y-151200500D01*
X103302351Y-151200500D01*
X103302352Y-151200500D01*
X103504534Y-151168477D01*
X103699219Y-151105220D01*
X103881610Y-151012287D01*
X103992450Y-150931758D01*
X104047213Y-150891971D01*
X104047215Y-150891968D01*
X104047219Y-150891966D01*
X104191966Y-150747219D01*
X104191968Y-150747215D01*
X104191971Y-150747213D01*
X104268344Y-150642093D01*
X104312287Y-150581610D01*
X104405220Y-150399219D01*
X104468477Y-150204534D01*
X104500500Y-150002352D01*
X104500500Y-149797648D01*
X106899500Y-149797648D01*
X106899500Y-150002351D01*
X106931522Y-150204534D01*
X106994781Y-150399223D01*
X107046385Y-150500500D01*
X107076636Y-150559871D01*
X107087715Y-150581613D01*
X107208028Y-150747213D01*
X107352786Y-150891971D01*
X107504406Y-151002127D01*
X107518390Y-151012287D01*
X107634607Y-151071503D01*
X107700776Y-151105218D01*
X107700778Y-151105218D01*
X107700781Y-151105220D01*
X107805137Y-151139127D01*
X107895465Y-151168477D01*
X107996557Y-151184488D01*
X108097648Y-151200500D01*
X108097649Y-151200500D01*
X108302351Y-151200500D01*
X108302352Y-151200500D01*
X108504534Y-151168477D01*
X108699219Y-151105220D01*
X108881610Y-151012287D01*
X108992450Y-150931758D01*
X109047213Y-150891971D01*
X109047215Y-150891968D01*
X109047219Y-150891966D01*
X109191966Y-150747219D01*
X109191968Y-150747215D01*
X109191971Y-150747213D01*
X109312284Y-150581614D01*
X109312285Y-150581613D01*
X109312287Y-150581610D01*
X109319117Y-150568204D01*
X109367091Y-150517409D01*
X109429602Y-150500500D01*
X110135859Y-150500500D01*
X110202898Y-150520185D01*
X110241685Y-150559871D01*
X110247881Y-150570017D01*
X110256204Y-150592331D01*
X110285002Y-150630800D01*
X110288047Y-150635786D01*
X110295658Y-150664096D01*
X110305905Y-150691567D01*
X110304625Y-150697448D01*
X110306188Y-150703260D01*
X110297285Y-150731191D01*
X110291054Y-150759840D01*
X110285302Y-150768789D01*
X110284971Y-150769830D01*
X110284251Y-150770424D01*
X110281489Y-150774724D01*
X110256648Y-150807907D01*
X110256645Y-150807913D01*
X110206403Y-150942620D01*
X110206401Y-150942627D01*
X110200000Y-151002155D01*
X110200000Y-151300000D01*
X111076000Y-151300000D01*
X111143039Y-151319685D01*
X111188794Y-151372489D01*
X111200000Y-151424000D01*
X111200000Y-151550000D01*
X111326000Y-151550000D01*
X111393039Y-151569685D01*
X111438794Y-151622489D01*
X111450000Y-151674000D01*
X111450000Y-152550000D01*
X111747828Y-152550000D01*
X111747844Y-152549999D01*
X111807372Y-152543598D01*
X111807379Y-152543596D01*
X111942086Y-152493354D01*
X111942093Y-152493350D01*
X112057187Y-152407190D01*
X112057190Y-152407187D01*
X112143350Y-152292093D01*
X112143355Y-152292084D01*
X112183551Y-152184313D01*
X112225422Y-152128379D01*
X112290886Y-152103961D01*
X112359159Y-152118812D01*
X112408565Y-152168217D01*
X112415915Y-152184312D01*
X112456202Y-152292328D01*
X112456206Y-152292335D01*
X112542452Y-152407544D01*
X112542455Y-152407547D01*
X112657664Y-152493793D01*
X112657671Y-152493797D01*
X112792517Y-152544091D01*
X112792516Y-152544091D01*
X112799444Y-152544835D01*
X112852127Y-152550500D01*
X113947872Y-152550499D01*
X114007483Y-152544091D01*
X114142331Y-152493796D01*
X114257546Y-152407546D01*
X114343796Y-152292331D01*
X114347960Y-152281165D01*
X114389829Y-152225234D01*
X114455293Y-152200816D01*
X114464141Y-152200500D01*
X114729191Y-152200500D01*
X114758634Y-152209145D01*
X114788617Y-152215668D01*
X114793632Y-152219422D01*
X114796230Y-152220185D01*
X114816872Y-152236818D01*
X114919345Y-152339290D01*
X114952830Y-152400613D01*
X114953281Y-152402781D01*
X114982182Y-152548074D01*
X114982184Y-152548082D01*
X115046295Y-152702860D01*
X115139373Y-152842162D01*
X115257837Y-152960626D01*
X115317820Y-153000705D01*
X115397137Y-153053703D01*
X115551918Y-153117816D01*
X115716228Y-153150499D01*
X115716232Y-153150500D01*
X115716233Y-153150500D01*
X115883768Y-153150500D01*
X115883769Y-153150499D01*
X116048082Y-153117816D01*
X116202863Y-153053703D01*
X116342162Y-152960626D01*
X116460626Y-152842162D01*
X116553703Y-152702863D01*
X116617816Y-152548082D01*
X116650500Y-152383767D01*
X116650500Y-152216233D01*
X116617816Y-152051918D01*
X116553703Y-151897137D01*
X116488798Y-151800000D01*
X116460626Y-151757837D01*
X116342162Y-151639373D01*
X116202860Y-151546295D01*
X116048082Y-151482184D01*
X116048074Y-151482182D01*
X115902781Y-151453281D01*
X115840870Y-151420896D01*
X115839291Y-151419345D01*
X115464674Y-151044727D01*
X115464673Y-151044726D01*
X115416124Y-151012287D01*
X115358127Y-150973535D01*
X115239744Y-150924499D01*
X115239738Y-150924497D01*
X115114071Y-150899500D01*
X115114069Y-150899500D01*
X114464141Y-150899500D01*
X114397102Y-150879815D01*
X114358279Y-150840070D01*
X114352106Y-150829950D01*
X114343796Y-150807669D01*
X114315290Y-150769591D01*
X114312228Y-150764570D01*
X114304640Y-150736285D01*
X114294406Y-150708849D01*
X114295692Y-150702934D01*
X114294124Y-150697087D01*
X114303033Y-150669185D01*
X114309257Y-150640575D01*
X114315046Y-150631566D01*
X114315378Y-150630528D01*
X114316093Y-150629936D01*
X114318820Y-150625694D01*
X114343796Y-150592331D01*
X114352795Y-150568205D01*
X114365093Y-150535232D01*
X114394091Y-150457483D01*
X114400500Y-150397873D01*
X114400499Y-149302128D01*
X114394091Y-149242517D01*
X114385092Y-149218390D01*
X114343797Y-149107671D01*
X114343793Y-149107664D01*
X114257547Y-148992455D01*
X114257544Y-148992452D01*
X114142335Y-148906206D01*
X114142328Y-148906202D01*
X114007482Y-148855908D01*
X114007483Y-148855908D01*
X113947883Y-148849501D01*
X113947881Y-148849500D01*
X113947873Y-148849500D01*
X113947864Y-148849500D01*
X112852129Y-148849500D01*
X112852123Y-148849501D01*
X112792516Y-148855908D01*
X112657671Y-148906202D01*
X112657664Y-148906206D01*
X112542455Y-148992452D01*
X112542452Y-148992455D01*
X112456206Y-149107664D01*
X112456204Y-149107668D01*
X112456204Y-149107669D01*
X112452039Y-149118834D01*
X112438771Y-149136558D01*
X112429572Y-149156703D01*
X112418241Y-149163984D01*
X112410171Y-149174766D01*
X112389422Y-149182504D01*
X112370794Y-149194477D01*
X112348878Y-149197628D01*
X112344707Y-149199184D01*
X112335859Y-149199500D01*
X112264141Y-149199500D01*
X112197102Y-149179815D01*
X112151347Y-149127011D01*
X112147969Y-149118859D01*
X112143796Y-149107669D01*
X112143793Y-149107665D01*
X112143793Y-149107664D01*
X112057547Y-148992455D01*
X112057544Y-148992452D01*
X111942335Y-148906206D01*
X111942328Y-148906202D01*
X111807482Y-148855908D01*
X111807483Y-148855908D01*
X111747883Y-148849501D01*
X111747881Y-148849500D01*
X111747873Y-148849500D01*
X111747864Y-148849500D01*
X110652129Y-148849500D01*
X110652123Y-148849501D01*
X110592516Y-148855908D01*
X110457671Y-148906202D01*
X110457664Y-148906206D01*
X110342455Y-148992452D01*
X110342452Y-148992455D01*
X110256206Y-149107664D01*
X110256204Y-149107668D01*
X110256204Y-149107669D01*
X110252039Y-149118834D01*
X110210171Y-149174766D01*
X110144707Y-149199184D01*
X110135859Y-149199500D01*
X109361744Y-149199500D01*
X109294705Y-149179815D01*
X109261425Y-149148384D01*
X109191969Y-149052784D01*
X109047213Y-148908028D01*
X108881613Y-148787715D01*
X108881612Y-148787714D01*
X108881610Y-148787713D01*
X108813207Y-148752860D01*
X108699223Y-148694781D01*
X108504534Y-148631522D01*
X108329995Y-148603878D01*
X108302352Y-148599500D01*
X108097648Y-148599500D01*
X108073329Y-148603351D01*
X107895465Y-148631522D01*
X107700776Y-148694781D01*
X107518386Y-148787715D01*
X107352786Y-148908028D01*
X107208028Y-149052786D01*
X107087715Y-149218386D01*
X106994781Y-149400776D01*
X106931522Y-149595465D01*
X106899500Y-149797648D01*
X104500500Y-149797648D01*
X104468477Y-149595466D01*
X104458846Y-149565826D01*
X104405218Y-149400776D01*
X104371503Y-149334607D01*
X104312287Y-149218390D01*
X104275543Y-149167816D01*
X104191971Y-149052786D01*
X104047213Y-148908028D01*
X103881613Y-148787715D01*
X103881612Y-148787714D01*
X103881610Y-148787713D01*
X103813207Y-148752860D01*
X103699223Y-148694781D01*
X103504534Y-148631522D01*
X103329995Y-148603878D01*
X103302352Y-148599500D01*
X103097648Y-148599500D01*
X103041652Y-148608369D01*
X102895464Y-148631523D01*
X102895457Y-148631524D01*
X102861817Y-148642455D01*
X102791976Y-148644450D01*
X102732144Y-148608369D01*
X102701316Y-148545668D01*
X102699500Y-148524524D01*
X102699500Y-146475475D01*
X102719185Y-146408436D01*
X102771989Y-146362681D01*
X102841147Y-146352737D01*
X102861820Y-146357545D01*
X102895458Y-146368475D01*
X102895461Y-146368475D01*
X102895466Y-146368477D01*
X103097648Y-146400500D01*
X103097649Y-146400500D01*
X103302351Y-146400500D01*
X103302352Y-146400500D01*
X103504534Y-146368477D01*
X103699219Y-146305220D01*
X103881610Y-146212287D01*
X104002444Y-146124497D01*
X104047213Y-146091971D01*
X104047215Y-146091968D01*
X104047219Y-146091966D01*
X104191966Y-145947219D01*
X104191968Y-145947215D01*
X104191971Y-145947213D01*
X104253413Y-145862644D01*
X104312287Y-145781610D01*
X104405220Y-145599219D01*
X104468477Y-145404534D01*
X104500500Y-145202352D01*
X104500500Y-144997648D01*
X106899500Y-144997648D01*
X106899500Y-145202351D01*
X106931522Y-145404534D01*
X106994781Y-145599223D01*
X107046385Y-145700500D01*
X107087488Y-145781169D01*
X107087715Y-145781613D01*
X107208028Y-145947213D01*
X107352786Y-146091971D01*
X107504391Y-146202116D01*
X107518390Y-146212287D01*
X107634607Y-146271503D01*
X107700776Y-146305218D01*
X107700778Y-146305218D01*
X107700781Y-146305220D01*
X107805137Y-146339127D01*
X107895465Y-146368477D01*
X107996557Y-146384488D01*
X108097648Y-146400500D01*
X108097649Y-146400500D01*
X108302351Y-146400500D01*
X108302352Y-146400500D01*
X108504534Y-146368477D01*
X108699219Y-146305220D01*
X108881610Y-146212287D01*
X109002444Y-146124497D01*
X109047213Y-146091971D01*
X109047215Y-146091968D01*
X109047219Y-146091966D01*
X109191966Y-145947219D01*
X109191968Y-145947215D01*
X109191971Y-145947213D01*
X109312284Y-145781614D01*
X109312285Y-145781613D01*
X109312287Y-145781610D01*
X109319117Y-145768204D01*
X109367091Y-145717409D01*
X109429602Y-145700500D01*
X110035859Y-145700500D01*
X110102898Y-145720185D01*
X110148653Y-145772989D01*
X110152030Y-145781140D01*
X110156204Y-145792331D01*
X110156205Y-145792332D01*
X110156206Y-145792335D01*
X110242452Y-145907544D01*
X110242455Y-145907547D01*
X110357664Y-145993793D01*
X110357671Y-145993797D01*
X110492517Y-146044091D01*
X110492516Y-146044091D01*
X110499444Y-146044835D01*
X110552127Y-146050500D01*
X111647872Y-146050499D01*
X111707483Y-146044091D01*
X111842331Y-145993796D01*
X111957546Y-145907546D01*
X112043796Y-145792331D01*
X112047960Y-145781165D01*
X112089829Y-145725234D01*
X112155293Y-145700816D01*
X112164141Y-145700500D01*
X112435859Y-145700500D01*
X112502898Y-145720185D01*
X112541722Y-145759932D01*
X112547894Y-145770052D01*
X112556204Y-145792331D01*
X112584699Y-145830395D01*
X112587771Y-145835432D01*
X112595358Y-145863716D01*
X112605592Y-145891155D01*
X112604305Y-145897068D01*
X112605874Y-145902916D01*
X112596964Y-145930812D01*
X112590740Y-145959428D01*
X112584948Y-145968440D01*
X112584618Y-145969474D01*
X112583905Y-145970062D01*
X112581176Y-145974310D01*
X112556203Y-146007669D01*
X112556202Y-146007671D01*
X112505908Y-146142517D01*
X112499501Y-146202116D01*
X112499500Y-146202135D01*
X112499500Y-147297870D01*
X112499501Y-147297876D01*
X112505908Y-147357483D01*
X112556202Y-147492328D01*
X112556206Y-147492335D01*
X112642452Y-147607544D01*
X112642455Y-147607547D01*
X112757664Y-147693793D01*
X112757671Y-147693797D01*
X112892517Y-147744091D01*
X112892516Y-147744091D01*
X112899444Y-147744835D01*
X112952127Y-147750500D01*
X114047872Y-147750499D01*
X114107483Y-147744091D01*
X114242331Y-147693796D01*
X114345907Y-147616259D01*
X114411371Y-147591842D01*
X114479644Y-147606693D01*
X114507899Y-147627845D01*
X115269345Y-148389291D01*
X115302830Y-148450614D01*
X115303281Y-148452781D01*
X115332182Y-148598074D01*
X115332184Y-148598082D01*
X115396295Y-148752860D01*
X115489373Y-148892162D01*
X115607837Y-149010626D01*
X115700494Y-149072537D01*
X115747137Y-149103703D01*
X115747138Y-149103703D01*
X115747139Y-149103704D01*
X115782201Y-149118227D01*
X115901918Y-149167816D01*
X116059617Y-149199184D01*
X116066228Y-149200499D01*
X116066232Y-149200500D01*
X116066233Y-149200500D01*
X116233768Y-149200500D01*
X116233769Y-149200499D01*
X116398082Y-149167816D01*
X116552863Y-149103703D01*
X116692162Y-149010626D01*
X116810626Y-148892162D01*
X116903703Y-148752863D01*
X116967816Y-148598082D01*
X116975165Y-148561133D01*
X116982421Y-148524660D01*
X117000499Y-148433771D01*
X117000500Y-148433768D01*
X117000500Y-148266232D01*
X117000499Y-148266228D01*
X116982210Y-148174282D01*
X116967816Y-148101918D01*
X116903703Y-147947137D01*
X116872537Y-147900494D01*
X116810626Y-147807837D01*
X116692162Y-147689373D01*
X116552860Y-147596295D01*
X116398082Y-147532184D01*
X116398074Y-147532182D01*
X116252781Y-147503281D01*
X116190870Y-147470896D01*
X116189291Y-147469345D01*
X114964674Y-146244727D01*
X114964673Y-146244726D01*
X114916124Y-146212287D01*
X114858127Y-146173535D01*
X114739744Y-146124499D01*
X114739738Y-146124497D01*
X114614071Y-146099500D01*
X114614069Y-146099500D01*
X114564141Y-146099500D01*
X114497102Y-146079815D01*
X114458279Y-146040070D01*
X114452106Y-146029950D01*
X114443796Y-146007669D01*
X114415290Y-145969591D01*
X114412228Y-145964570D01*
X114404640Y-145936285D01*
X114394406Y-145908849D01*
X114395692Y-145902934D01*
X114394124Y-145897087D01*
X114403033Y-145869185D01*
X114409257Y-145840575D01*
X114415046Y-145831566D01*
X114415378Y-145830528D01*
X114416093Y-145829936D01*
X114418820Y-145825694D01*
X114443796Y-145792331D01*
X114452795Y-145768205D01*
X114464174Y-145737693D01*
X114494091Y-145657483D01*
X114500500Y-145597873D01*
X114500499Y-144502128D01*
X114494091Y-144442517D01*
X114485092Y-144418390D01*
X114443797Y-144307671D01*
X114443793Y-144307664D01*
X114357547Y-144192455D01*
X114357544Y-144192452D01*
X114242335Y-144106206D01*
X114242328Y-144106202D01*
X114107482Y-144055908D01*
X114107483Y-144055908D01*
X114047883Y-144049501D01*
X114047881Y-144049500D01*
X114047873Y-144049500D01*
X114047864Y-144049500D01*
X112952129Y-144049500D01*
X112952123Y-144049501D01*
X112892516Y-144055908D01*
X112757671Y-144106202D01*
X112757664Y-144106206D01*
X112642455Y-144192452D01*
X112642452Y-144192455D01*
X112556206Y-144307664D01*
X112556204Y-144307668D01*
X112556204Y-144307669D01*
X112552039Y-144318834D01*
X112510171Y-144374766D01*
X112444707Y-144399184D01*
X112435859Y-144399500D01*
X112164141Y-144399500D01*
X112097102Y-144379815D01*
X112058315Y-144340129D01*
X112052118Y-144329982D01*
X112043796Y-144307669D01*
X112014998Y-144269200D01*
X112011952Y-144264212D01*
X112004340Y-144235901D01*
X111994094Y-144208431D01*
X111995373Y-144202549D01*
X111993811Y-144196738D01*
X112002713Y-144168806D01*
X112008945Y-144140158D01*
X112014696Y-144131208D01*
X112015028Y-144130168D01*
X112015747Y-144129573D01*
X112018512Y-144125271D01*
X112043351Y-144092090D01*
X112093597Y-143957376D01*
X112093598Y-143957372D01*
X112099999Y-143897844D01*
X112100000Y-143897827D01*
X112100000Y-143600000D01*
X110100000Y-143600000D01*
X110100000Y-143897844D01*
X110106401Y-143957372D01*
X110106403Y-143957379D01*
X110156645Y-144092086D01*
X110156646Y-144092088D01*
X110181488Y-144125273D01*
X110188743Y-144144726D01*
X110200364Y-144161927D01*
X110200705Y-144176799D01*
X110205904Y-144190738D01*
X110201491Y-144211022D01*
X110201968Y-144231778D01*
X110192935Y-144250351D01*
X110191052Y-144259011D01*
X110188047Y-144264211D01*
X110184992Y-144269212D01*
X110156204Y-144307669D01*
X110147882Y-144329979D01*
X110141685Y-144340128D01*
X110124265Y-144355936D01*
X110110170Y-144374766D01*
X110098873Y-144378979D01*
X110089945Y-144387082D01*
X110066745Y-144390963D01*
X110044706Y-144399184D01*
X110035858Y-144399500D01*
X109361744Y-144399500D01*
X109294705Y-144379815D01*
X109261425Y-144348384D01*
X109191969Y-144252784D01*
X109047213Y-144108028D01*
X108881613Y-143987715D01*
X108881612Y-143987714D01*
X108881610Y-143987713D01*
X108816475Y-143954525D01*
X108699223Y-143894781D01*
X108504534Y-143831522D01*
X108329995Y-143803878D01*
X108302352Y-143799500D01*
X108097648Y-143799500D01*
X108073329Y-143803351D01*
X107895465Y-143831522D01*
X107700776Y-143894781D01*
X107518386Y-143987715D01*
X107352786Y-144108028D01*
X107208028Y-144252786D01*
X107087715Y-144418386D01*
X106994781Y-144600776D01*
X106931522Y-144795465D01*
X106899500Y-144997648D01*
X104500500Y-144997648D01*
X104472269Y-144819405D01*
X104476879Y-144784801D01*
X104481300Y-144750593D01*
X104481469Y-144750344D01*
X104481496Y-144750147D01*
X104482057Y-144749485D01*
X104507134Y-144712810D01*
X106633127Y-142586819D01*
X106694450Y-142553334D01*
X106720808Y-142550500D01*
X109999466Y-142550500D01*
X110066505Y-142570185D01*
X110112260Y-142622989D01*
X110122204Y-142692147D01*
X110115648Y-142717832D01*
X110106403Y-142742617D01*
X110106401Y-142742627D01*
X110100000Y-142802155D01*
X110100000Y-143100000D01*
X112100000Y-143100000D01*
X112100000Y-142802172D01*
X112099999Y-142802155D01*
X112093598Y-142742627D01*
X112093596Y-142742617D01*
X112084352Y-142717832D01*
X112079368Y-142648141D01*
X112112854Y-142586818D01*
X112174177Y-142553334D01*
X112200534Y-142550500D01*
X112864071Y-142550500D01*
X112948615Y-142533682D01*
X112989744Y-142525501D01*
X113108127Y-142476465D01*
X113214669Y-142405277D01*
X115137820Y-140482125D01*
X115199142Y-140448641D01*
X115268833Y-140453625D01*
X115324767Y-140495497D01*
X115349184Y-140560961D01*
X115349500Y-140569807D01*
X115349500Y-143447870D01*
X115349501Y-143447876D01*
X115355908Y-143507483D01*
X115406202Y-143642328D01*
X115406206Y-143642335D01*
X115492452Y-143757544D01*
X115492455Y-143757547D01*
X115607664Y-143843793D01*
X115607671Y-143843797D01*
X115742517Y-143894091D01*
X115742516Y-143894091D01*
X115748925Y-143894780D01*
X115802127Y-143900500D01*
X118697872Y-143900499D01*
X118757483Y-143894091D01*
X118892331Y-143843796D01*
X119007546Y-143757546D01*
X119093796Y-143642331D01*
X119144091Y-143507483D01*
X119150500Y-143447873D01*
X119150499Y-140552128D01*
X119144091Y-140492517D01*
X119140215Y-140482126D01*
X119093797Y-140357671D01*
X119093793Y-140357664D01*
X119007547Y-140242455D01*
X119007544Y-140242452D01*
X118892335Y-140156206D01*
X118892328Y-140156202D01*
X118757482Y-140105908D01*
X118757483Y-140105908D01*
X118697883Y-140099501D01*
X118697881Y-140099500D01*
X118697873Y-140099500D01*
X118697865Y-140099500D01*
X115819806Y-140099500D01*
X115752767Y-140079815D01*
X115707012Y-140027011D01*
X115697068Y-139957853D01*
X115726093Y-139894297D01*
X115732107Y-139887837D01*
X116733126Y-138886818D01*
X116794449Y-138853334D01*
X116820807Y-138850500D01*
X119891396Y-138850500D01*
X119958435Y-138870185D01*
X120004190Y-138922989D01*
X120014134Y-138992147D01*
X119985109Y-139055703D01*
X119960288Y-139077602D01*
X119925961Y-139100538D01*
X119800538Y-139225961D01*
X119800535Y-139225965D01*
X119701990Y-139373446D01*
X119701983Y-139373459D01*
X119634106Y-139537332D01*
X119634103Y-139537341D01*
X119599500Y-139711304D01*
X119599500Y-139888695D01*
X119634103Y-140062658D01*
X119634106Y-140062667D01*
X119701983Y-140226540D01*
X119701990Y-140226553D01*
X119800535Y-140374034D01*
X119800538Y-140374038D01*
X119925961Y-140499461D01*
X119925969Y-140499467D01*
X120022359Y-140563873D01*
X120041150Y-140579294D01*
X123235725Y-143773869D01*
X123269210Y-143835192D01*
X123264226Y-143904884D01*
X123222354Y-143960817D01*
X123172236Y-143983167D01*
X123151923Y-143987207D01*
X123151917Y-143987209D01*
X122997139Y-144051320D01*
X122857837Y-144144398D01*
X122739373Y-144262862D01*
X122646295Y-144402164D01*
X122582184Y-144556942D01*
X122582182Y-144556950D01*
X122549500Y-144721253D01*
X122549500Y-144888796D01*
X122582182Y-145053099D01*
X122582184Y-145053107D01*
X122590061Y-145072123D01*
X122599500Y-145119576D01*
X122599500Y-148051544D01*
X122579815Y-148118583D01*
X122527011Y-148164338D01*
X122457853Y-148174282D01*
X122437183Y-148169475D01*
X122327953Y-148133985D01*
X122327954Y-148133985D01*
X122164654Y-148108121D01*
X122110222Y-148099500D01*
X121889778Y-148099500D01*
X121817201Y-148110995D01*
X121672047Y-148133985D01*
X121462396Y-148202103D01*
X121462393Y-148202104D01*
X121265974Y-148302187D01*
X121087641Y-148431752D01*
X121087635Y-148431757D01*
X121066207Y-148453185D01*
X121004884Y-148486669D01*
X120935192Y-148481683D01*
X120879259Y-148439810D01*
X120862346Y-148408834D01*
X120843355Y-148357915D01*
X120843350Y-148357906D01*
X120757190Y-148242812D01*
X120757187Y-148242809D01*
X120642093Y-148156649D01*
X120642086Y-148156645D01*
X120507379Y-148106403D01*
X120507372Y-148106401D01*
X120447844Y-148100000D01*
X119750000Y-148100000D01*
X119750000Y-149066988D01*
X119692993Y-149034075D01*
X119565826Y-149000000D01*
X119434174Y-149000000D01*
X119307007Y-149034075D01*
X119250000Y-149066988D01*
X119250000Y-148100000D01*
X118552155Y-148100000D01*
X118492627Y-148106401D01*
X118492620Y-148106403D01*
X118357913Y-148156645D01*
X118357906Y-148156649D01*
X118242812Y-148242809D01*
X118242809Y-148242812D01*
X118156649Y-148357906D01*
X118156645Y-148357913D01*
X118106403Y-148492620D01*
X118106401Y-148492627D01*
X118100000Y-148552155D01*
X118100000Y-149250000D01*
X119066988Y-149250000D01*
X119034075Y-149307007D01*
X119000000Y-149434174D01*
X119000000Y-149565826D01*
X119034075Y-149692993D01*
X119066988Y-149750000D01*
X118100000Y-149750000D01*
X118100000Y-150447844D01*
X118106401Y-150507372D01*
X118106403Y-150507379D01*
X118156645Y-150642086D01*
X118156649Y-150642093D01*
X118242809Y-150757187D01*
X118242812Y-150757190D01*
X118357906Y-150843350D01*
X118357913Y-150843354D01*
X118456229Y-150880023D01*
X118507222Y-150829031D01*
X118568545Y-150795546D01*
X118638237Y-150800530D01*
X118682584Y-150829031D01*
X119370590Y-151517037D01*
X119307007Y-151534075D01*
X119192993Y-151599901D01*
X119099901Y-151692993D01*
X119034075Y-151807007D01*
X119017037Y-151870590D01*
X118348932Y-151202485D01*
X118348931Y-151202485D01*
X118302616Y-151266233D01*
X118202567Y-151462589D01*
X118134473Y-151672164D01*
X118100000Y-151889818D01*
X118100000Y-152110181D01*
X118134473Y-152327835D01*
X118202567Y-152537410D01*
X118302611Y-152733756D01*
X118348932Y-152797513D01*
X119017037Y-152129408D01*
X119034075Y-152192993D01*
X119099901Y-152307007D01*
X119192993Y-152400099D01*
X119307007Y-152465925D01*
X119370590Y-152482962D01*
X118702485Y-153151065D01*
X118702485Y-153151066D01*
X118766243Y-153197388D01*
X118962589Y-153297432D01*
X119172164Y-153365526D01*
X119389819Y-153400000D01*
X119610181Y-153400000D01*
X119827835Y-153365526D01*
X120037410Y-153297432D01*
X120233760Y-153197386D01*
X120297513Y-153151066D01*
X120297514Y-153151066D01*
X119629409Y-152482962D01*
X119692993Y-152465925D01*
X119807007Y-152400099D01*
X119900099Y-152307007D01*
X119965925Y-152192993D01*
X119982962Y-152129410D01*
X120651066Y-152797514D01*
X120652547Y-152797397D01*
X120704700Y-152757180D01*
X120774314Y-152751200D01*
X120836109Y-152783806D01*
X120850008Y-152799846D01*
X120931752Y-152912359D01*
X121087636Y-153068243D01*
X121087641Y-153068247D01*
X121200854Y-153150500D01*
X121265978Y-153197815D01*
X121394375Y-153263237D01*
X121462393Y-153297895D01*
X121462396Y-153297896D01*
X121529316Y-153319639D01*
X121672049Y-153366015D01*
X121889778Y-153400500D01*
X121889779Y-153400500D01*
X122110221Y-153400500D01*
X122110222Y-153400500D01*
X122327951Y-153366015D01*
X122537606Y-153297895D01*
X122734022Y-153197815D01*
X122912365Y-153068242D01*
X123068242Y-152912365D01*
X123149682Y-152800270D01*
X123205011Y-152757606D01*
X123274624Y-152751627D01*
X123336420Y-152784232D01*
X123350313Y-152800265D01*
X123431754Y-152912359D01*
X123431758Y-152912365D01*
X123587636Y-153068243D01*
X123587641Y-153068247D01*
X123700854Y-153150500D01*
X123765978Y-153197815D01*
X123894375Y-153263237D01*
X123962393Y-153297895D01*
X123962396Y-153297896D01*
X124029316Y-153319639D01*
X124172049Y-153366015D01*
X124389778Y-153400500D01*
X124389779Y-153400500D01*
X124610221Y-153400500D01*
X124610222Y-153400500D01*
X124827951Y-153366015D01*
X125037606Y-153297895D01*
X125144204Y-153243579D01*
X125212873Y-153230683D01*
X125277614Y-153256959D01*
X125317871Y-153314065D01*
X125324500Y-153354064D01*
X125324500Y-166373414D01*
X125322117Y-166397606D01*
X125299500Y-166511306D01*
X125299500Y-166688693D01*
X125307977Y-166731308D01*
X125301750Y-166800899D01*
X125258888Y-166856077D01*
X125192998Y-166879322D01*
X125186360Y-166879500D01*
X123895476Y-166879500D01*
X123828437Y-166859815D01*
X123782682Y-166807011D01*
X123772738Y-166737853D01*
X123788742Y-166692382D01*
X123801744Y-166670398D01*
X123820123Y-166607140D01*
X123847597Y-166512573D01*
X123847598Y-166512567D01*
X123850499Y-166475701D01*
X123850500Y-166475694D01*
X123850500Y-166044306D01*
X123847598Y-166007431D01*
X123845830Y-166001347D01*
X123801745Y-165849606D01*
X123801744Y-165849603D01*
X123801744Y-165849602D01*
X123718081Y-165708135D01*
X123718078Y-165708132D01*
X123713298Y-165701969D01*
X123715750Y-165700066D01*
X123689155Y-165651421D01*
X123694104Y-165581726D01*
X123714940Y-165549304D01*
X123713298Y-165548031D01*
X123718075Y-165541870D01*
X123718081Y-165541865D01*
X123801744Y-165400398D01*
X123847242Y-165243796D01*
X123847597Y-165242573D01*
X123847598Y-165242567D01*
X123847964Y-165237913D01*
X123850500Y-165205694D01*
X123850500Y-164774306D01*
X123847598Y-164737431D01*
X123836567Y-164699464D01*
X123801745Y-164579606D01*
X123801744Y-164579603D01*
X123801744Y-164579602D01*
X123718081Y-164438135D01*
X123718079Y-164438133D01*
X123718076Y-164438129D01*
X123601870Y-164321923D01*
X123601862Y-164321917D01*
X123460396Y-164238255D01*
X123460393Y-164238254D01*
X123302573Y-164192402D01*
X123302567Y-164192401D01*
X123265701Y-164189500D01*
X123265694Y-164189500D01*
X121484306Y-164189500D01*
X121484298Y-164189500D01*
X121447432Y-164192401D01*
X121447426Y-164192402D01*
X121289607Y-164238254D01*
X121282441Y-164241355D01*
X121281912Y-164240133D01*
X121222088Y-164255307D01*
X121155827Y-164233142D01*
X121139020Y-164219074D01*
X118713674Y-161793727D01*
X118713673Y-161793726D01*
X118713669Y-161793723D01*
X118607127Y-161722535D01*
X118488744Y-161673499D01*
X118488738Y-161673497D01*
X118363071Y-161648500D01*
X118363069Y-161648500D01*
X114682500Y-161648500D01*
X114615461Y-161628815D01*
X114569706Y-161576011D01*
X114558500Y-161524500D01*
X114558499Y-158394129D01*
X114558498Y-158394123D01*
X114558497Y-158394116D01*
X114552091Y-158334517D01*
X114501796Y-158199669D01*
X114501795Y-158199668D01*
X114501793Y-158199664D01*
X114415547Y-158084455D01*
X114415544Y-158084452D01*
X114300335Y-157998206D01*
X114300328Y-157998202D01*
X114165482Y-157947908D01*
X114165483Y-157947908D01*
X114105883Y-157941501D01*
X114105881Y-157941500D01*
X114105873Y-157941500D01*
X114105864Y-157941500D01*
X110894129Y-157941500D01*
X110894123Y-157941501D01*
X110834516Y-157947908D01*
X110699671Y-157998202D01*
X110699664Y-157998206D01*
X110584455Y-158084452D01*
X110584452Y-158084455D01*
X110498206Y-158199664D01*
X110498202Y-158199671D01*
X110447908Y-158334517D01*
X110441501Y-158394116D01*
X110441501Y-158394123D01*
X110441500Y-158394135D01*
X110441500Y-160503994D01*
X110421815Y-160571033D01*
X110369011Y-160616788D01*
X110299853Y-160626732D01*
X110236297Y-160597707D01*
X110229819Y-160591675D01*
X106479294Y-156841150D01*
X106463873Y-156822359D01*
X106399467Y-156725969D01*
X106399461Y-156725961D01*
X106274038Y-156600538D01*
X106274034Y-156600535D01*
X106126553Y-156501990D01*
X106126540Y-156501983D01*
X105962667Y-156434106D01*
X105962658Y-156434103D01*
X105788694Y-156399500D01*
X105788691Y-156399500D01*
X105611309Y-156399500D01*
X105611306Y-156399500D01*
X105437341Y-156434103D01*
X105437332Y-156434106D01*
X105273459Y-156501983D01*
X105273446Y-156501990D01*
X105125965Y-156600535D01*
X105125961Y-156600538D01*
X105000538Y-156725961D01*
X105000535Y-156725965D01*
X104901990Y-156873446D01*
X104901983Y-156873459D01*
X104834106Y-157037332D01*
X104834103Y-157037341D01*
X104799500Y-157211304D01*
X104799500Y-157388695D01*
X104834103Y-157562658D01*
X104834106Y-157562667D01*
X104901983Y-157726540D01*
X104901992Y-157726556D01*
X104916728Y-157748611D01*
X104937605Y-157815289D01*
X104919119Y-157882669D01*
X104867140Y-157929358D01*
X104813625Y-157941500D01*
X101894129Y-157941500D01*
X101894123Y-157941501D01*
X101834516Y-157947908D01*
X101699671Y-157998202D01*
X101699664Y-157998206D01*
X101584455Y-158084452D01*
X101584452Y-158084455D01*
X101498206Y-158199664D01*
X101498202Y-158199671D01*
X101447908Y-158334517D01*
X101441501Y-158394116D01*
X101441501Y-158394123D01*
X101441500Y-158394135D01*
X101441500Y-161605870D01*
X101441501Y-161605876D01*
X101447908Y-161665483D01*
X101498202Y-161800328D01*
X101498206Y-161800335D01*
X101584452Y-161915544D01*
X101584455Y-161915547D01*
X101699664Y-162001793D01*
X101699671Y-162001797D01*
X101834517Y-162052091D01*
X101834516Y-162052091D01*
X101841444Y-162052835D01*
X101894127Y-162058500D01*
X105105872Y-162058499D01*
X105165483Y-162052091D01*
X105300331Y-162001796D01*
X105415546Y-161915546D01*
X105501796Y-161800331D01*
X105552091Y-161665483D01*
X105558500Y-161605873D01*
X105558499Y-158696004D01*
X105578184Y-158628966D01*
X105630987Y-158583211D01*
X105700146Y-158573267D01*
X105763702Y-158602292D01*
X105770180Y-158608324D01*
X110249675Y-163087819D01*
X110283160Y-163149142D01*
X110278176Y-163218834D01*
X110236304Y-163274767D01*
X110170840Y-163299184D01*
X110161994Y-163299500D01*
X109202129Y-163299500D01*
X109202123Y-163299501D01*
X109142516Y-163305908D01*
X109007671Y-163356202D01*
X109007669Y-163356203D01*
X108974310Y-163381176D01*
X108908845Y-163405592D01*
X108840572Y-163390740D01*
X108825690Y-163381176D01*
X108792330Y-163356203D01*
X108792328Y-163356202D01*
X108657482Y-163305908D01*
X108657483Y-163305908D01*
X108597883Y-163299501D01*
X108597881Y-163299500D01*
X108597873Y-163299500D01*
X108597864Y-163299500D01*
X107502129Y-163299500D01*
X107502123Y-163299501D01*
X107442516Y-163305908D01*
X107307671Y-163356202D01*
X107307664Y-163356206D01*
X107192455Y-163442452D01*
X107192452Y-163442455D01*
X107106206Y-163557664D01*
X107106202Y-163557671D01*
X107055908Y-163692517D01*
X107049501Y-163752116D01*
X107049500Y-163752135D01*
X107049500Y-164847870D01*
X107049501Y-164847876D01*
X107055908Y-164907483D01*
X107106202Y-165042328D01*
X107106206Y-165042335D01*
X107175358Y-165134709D01*
X107192454Y-165157546D01*
X107299811Y-165237914D01*
X107341682Y-165293847D01*
X107349500Y-165337180D01*
X107349500Y-165771025D01*
X107329815Y-165838064D01*
X107298386Y-165871343D01*
X107136496Y-165988964D01*
X107020411Y-166105049D01*
X106959088Y-166138533D01*
X106889396Y-166133549D01*
X106833463Y-166091677D01*
X106816548Y-166060699D01*
X106768798Y-165932673D01*
X106768793Y-165932664D01*
X106682547Y-165817455D01*
X106682544Y-165817452D01*
X106567335Y-165731206D01*
X106567328Y-165731202D01*
X106432482Y-165680908D01*
X106432483Y-165680908D01*
X106372883Y-165674501D01*
X106372881Y-165674500D01*
X106372873Y-165674500D01*
X106372864Y-165674500D01*
X104627129Y-165674500D01*
X104627123Y-165674501D01*
X104567516Y-165680908D01*
X104432671Y-165731202D01*
X104432664Y-165731206D01*
X104317455Y-165817452D01*
X104317452Y-165817455D01*
X104231206Y-165932664D01*
X104231202Y-165932671D01*
X104180908Y-166067517D01*
X104174501Y-166127116D01*
X104174500Y-166127135D01*
X104174500Y-167872870D01*
X104174501Y-167872876D01*
X104180908Y-167932483D01*
X104231202Y-168067328D01*
X104231206Y-168067335D01*
X104317452Y-168182544D01*
X104317455Y-168182547D01*
X104432664Y-168268793D01*
X104432671Y-168268797D01*
X104477618Y-168285561D01*
X104567517Y-168319091D01*
X104627127Y-168325500D01*
X104725500Y-168325499D01*
X104792538Y-168345183D01*
X104838294Y-168397986D01*
X104849500Y-168449499D01*
X104849500Y-169864069D01*
X104849500Y-169864071D01*
X104849499Y-169864071D01*
X104874497Y-169989738D01*
X104874499Y-169989744D01*
X104923293Y-170107544D01*
X104923535Y-170108127D01*
X104994723Y-170214669D01*
X104994726Y-170214673D01*
X108335325Y-173555272D01*
X108335332Y-173555278D01*
X108399081Y-173597873D01*
X108437486Y-173623534D01*
X108441873Y-173626465D01*
X108560256Y-173675501D01*
X108560260Y-173675501D01*
X108560261Y-173675502D01*
X108685928Y-173700500D01*
X108685931Y-173700500D01*
X113135859Y-173700500D01*
X113202898Y-173720185D01*
X113248653Y-173772989D01*
X113252030Y-173781140D01*
X113256204Y-173792331D01*
X113256205Y-173792332D01*
X113256206Y-173792335D01*
X113342452Y-173907544D01*
X113342455Y-173907547D01*
X113457664Y-173993793D01*
X113457671Y-173993797D01*
X113592517Y-174044091D01*
X113592516Y-174044091D01*
X113599444Y-174044835D01*
X113652127Y-174050500D01*
X114747872Y-174050499D01*
X114807483Y-174044091D01*
X114942331Y-173993796D01*
X115057546Y-173907546D01*
X115143796Y-173792331D01*
X115147960Y-173781165D01*
X115189829Y-173725234D01*
X115255293Y-173700816D01*
X115264141Y-173700500D01*
X115414071Y-173700500D01*
X115509209Y-173681575D01*
X115539744Y-173675501D01*
X115658127Y-173626465D01*
X115662514Y-173623534D01*
X115764669Y-173555277D01*
X116023127Y-173296819D01*
X116050054Y-173282115D01*
X116075873Y-173265523D01*
X116082073Y-173264631D01*
X116084450Y-173263334D01*
X116110808Y-173260500D01*
X116134484Y-173260500D01*
X116197605Y-173277768D01*
X116229819Y-173296819D01*
X116339602Y-173361744D01*
X116368928Y-173370264D01*
X116497426Y-173407597D01*
X116497429Y-173407597D01*
X116497431Y-173407598D01*
X116534306Y-173410500D01*
X116534314Y-173410500D01*
X118246604Y-173410500D01*
X118313643Y-173430185D01*
X118359398Y-173482989D01*
X118369342Y-173552147D01*
X118361165Y-173581951D01*
X118354566Y-173597883D01*
X118332184Y-173651917D01*
X118332182Y-173651925D01*
X118299500Y-173816228D01*
X118299500Y-173816233D01*
X118299500Y-173983767D01*
X118301495Y-173993796D01*
X118312171Y-174047471D01*
X118305942Y-174117063D01*
X118289820Y-174145972D01*
X118206204Y-174257668D01*
X118206202Y-174257671D01*
X118155908Y-174392517D01*
X118149501Y-174452116D01*
X118149501Y-174452123D01*
X118149500Y-174452135D01*
X118149500Y-175547870D01*
X118149501Y-175547876D01*
X118155908Y-175607483D01*
X118206202Y-175742328D01*
X118206206Y-175742335D01*
X118292452Y-175857544D01*
X118292455Y-175857547D01*
X118407664Y-175943793D01*
X118407671Y-175943797D01*
X118542517Y-175994091D01*
X118542516Y-175994091D01*
X118549444Y-175994835D01*
X118602127Y-176000500D01*
X119697872Y-176000499D01*
X119757483Y-175994091D01*
X119892329Y-175943797D01*
X119892329Y-175943796D01*
X119892331Y-175943796D01*
X119925689Y-175918823D01*
X119991151Y-175894406D01*
X120059425Y-175909257D01*
X120074305Y-175918820D01*
X120107669Y-175943796D01*
X120107670Y-175943796D01*
X120107670Y-175943797D01*
X120242517Y-175994091D01*
X120242516Y-175994091D01*
X120249444Y-175994835D01*
X120302127Y-176000500D01*
X121397872Y-176000499D01*
X121457483Y-175994091D01*
X121592331Y-175943796D01*
X121707546Y-175857546D01*
X121793796Y-175742331D01*
X121844091Y-175607483D01*
X121850500Y-175547873D01*
X121850499Y-174452128D01*
X121844091Y-174392517D01*
X121843056Y-174389743D01*
X121793797Y-174257671D01*
X121793793Y-174257664D01*
X121707547Y-174142455D01*
X121707544Y-174142452D01*
X121592335Y-174056206D01*
X121592332Y-174056205D01*
X121592331Y-174056204D01*
X121581161Y-174052038D01*
X121525231Y-174010166D01*
X121500816Y-173944701D01*
X121500500Y-173935858D01*
X121500500Y-173534500D01*
X121520185Y-173467461D01*
X121572989Y-173421706D01*
X121624500Y-173410500D01*
X123265686Y-173410500D01*
X123265694Y-173410500D01*
X123302569Y-173407598D01*
X123453052Y-173363878D01*
X123522920Y-173364077D01*
X123575325Y-173395271D01*
X123663043Y-173482989D01*
X123735331Y-173555277D01*
X123735332Y-173555278D01*
X123799081Y-173597873D01*
X123837486Y-173623534D01*
X123841873Y-173626465D01*
X123960256Y-173675501D01*
X123960260Y-173675501D01*
X123960261Y-173675502D01*
X124085928Y-173700500D01*
X124085931Y-173700500D01*
X124435859Y-173700500D01*
X124502898Y-173720185D01*
X124548653Y-173772989D01*
X124552030Y-173781140D01*
X124556204Y-173792331D01*
X124556205Y-173792332D01*
X124556206Y-173792335D01*
X124642452Y-173907544D01*
X124642455Y-173907547D01*
X124757664Y-173993793D01*
X124757671Y-173993797D01*
X124892517Y-174044091D01*
X124892516Y-174044091D01*
X124899444Y-174044835D01*
X124952127Y-174050500D01*
X126047872Y-174050499D01*
X126107483Y-174044091D01*
X126242331Y-173993796D01*
X126357546Y-173907546D01*
X126400734Y-173849854D01*
X126417746Y-173837119D01*
X126431424Y-173820854D01*
X126445157Y-173816599D01*
X126456667Y-173807984D01*
X126477864Y-173806468D01*
X126498164Y-173800180D01*
X126512016Y-173804025D01*
X126526359Y-173803000D01*
X126545012Y-173813185D01*
X126565488Y-173818870D01*
X126580292Y-173832450D01*
X126587682Y-173836485D01*
X126592501Y-173841585D01*
X126596059Y-173845570D01*
X126642454Y-173907546D01*
X126669391Y-173927711D01*
X126677649Y-173936961D01*
X126687526Y-173957768D01*
X126701330Y-173976208D01*
X126702225Y-173988735D01*
X126707611Y-174000080D01*
X126704670Y-174022925D01*
X126706314Y-174045900D01*
X126700296Y-174056920D01*
X126698693Y-174069378D01*
X126683866Y-174087009D01*
X126672829Y-174107223D01*
X121960708Y-178819345D01*
X121899385Y-178852830D01*
X121897219Y-178853281D01*
X121751923Y-178882182D01*
X121751917Y-178882184D01*
X121597139Y-178946295D01*
X121457837Y-179039373D01*
X121339373Y-179157837D01*
X121246295Y-179297139D01*
X121182184Y-179451917D01*
X121182182Y-179451925D01*
X121149500Y-179616228D01*
X121149500Y-179783771D01*
X121182182Y-179948074D01*
X121182184Y-179948082D01*
X121246295Y-180102860D01*
X121339373Y-180242162D01*
X121457837Y-180360626D01*
X121550494Y-180422537D01*
X121597137Y-180453703D01*
X121751918Y-180517816D01*
X121916228Y-180550499D01*
X121916232Y-180550500D01*
X121916233Y-180550500D01*
X122083768Y-180550500D01*
X122083769Y-180550499D01*
X122248082Y-180517816D01*
X122402863Y-180453703D01*
X122542162Y-180360626D01*
X122660626Y-180242162D01*
X122753703Y-180102863D01*
X122817816Y-179948082D01*
X122846718Y-179802781D01*
X122879102Y-179740870D01*
X122880596Y-179739349D01*
X124229819Y-178390127D01*
X124291142Y-178356642D01*
X124360834Y-178361626D01*
X124416767Y-178403498D01*
X124441184Y-178468962D01*
X124441500Y-178477808D01*
X124441500Y-181605870D01*
X124441501Y-181605876D01*
X124447908Y-181665483D01*
X124498202Y-181800328D01*
X124498206Y-181800335D01*
X124584452Y-181915544D01*
X124584455Y-181915547D01*
X124699664Y-182001793D01*
X124699671Y-182001797D01*
X124834517Y-182052091D01*
X124834516Y-182052091D01*
X124841444Y-182052835D01*
X124894127Y-182058500D01*
X128105872Y-182058499D01*
X128165483Y-182052091D01*
X128300331Y-182001796D01*
X128415546Y-181915546D01*
X128501796Y-181800331D01*
X128552091Y-181665483D01*
X128558500Y-181605873D01*
X128558499Y-178394128D01*
X128552091Y-178334517D01*
X128501796Y-178199669D01*
X128501795Y-178199668D01*
X128501793Y-178199664D01*
X128415547Y-178084455D01*
X128415544Y-178084452D01*
X128300335Y-177998206D01*
X128300328Y-177998202D01*
X128165482Y-177947908D01*
X128165483Y-177947908D01*
X128105883Y-177941501D01*
X128105881Y-177941500D01*
X128105873Y-177941500D01*
X128105865Y-177941500D01*
X124977807Y-177941500D01*
X124910768Y-177921815D01*
X124865013Y-177869011D01*
X124855069Y-177799853D01*
X124884094Y-177736297D01*
X124890112Y-177729833D01*
X128005277Y-174614669D01*
X128076466Y-174508126D01*
X128125501Y-174389743D01*
X128150500Y-174264069D01*
X128150500Y-174135931D01*
X128150500Y-174114141D01*
X128170185Y-174047102D01*
X128222989Y-174001347D01*
X128231149Y-173997966D01*
X128242331Y-173993796D01*
X128357546Y-173907546D01*
X128443796Y-173792331D01*
X128494091Y-173657483D01*
X128500500Y-173597873D01*
X128500499Y-172502128D01*
X128494091Y-172442517D01*
X128477929Y-172399184D01*
X128443797Y-172307670D01*
X128436786Y-172298305D01*
X128418823Y-172274310D01*
X128394406Y-172208849D01*
X128409257Y-172140575D01*
X128418823Y-172125690D01*
X128443796Y-172092331D01*
X128494091Y-171957483D01*
X128500500Y-171897873D01*
X128500499Y-170802128D01*
X128494091Y-170742517D01*
X128465093Y-170664770D01*
X128443797Y-170607671D01*
X128443793Y-170607664D01*
X128357547Y-170492455D01*
X128357544Y-170492452D01*
X128235231Y-170400888D01*
X128236930Y-170398617D01*
X128197743Y-170359435D01*
X128182886Y-170291163D01*
X128207298Y-170225697D01*
X128236311Y-170200556D01*
X128235231Y-170199112D01*
X128315136Y-170139293D01*
X128357546Y-170107546D01*
X128443796Y-169992331D01*
X128494091Y-169857483D01*
X128500500Y-169797873D01*
X128500499Y-168702128D01*
X128494091Y-168642517D01*
X128472959Y-168585858D01*
X128443797Y-168507670D01*
X128436786Y-168498305D01*
X128418823Y-168474310D01*
X128394406Y-168408849D01*
X128409257Y-168340575D01*
X128418820Y-168325694D01*
X128443796Y-168292331D01*
X128494091Y-168157483D01*
X128500500Y-168097873D01*
X128500499Y-167002128D01*
X128494091Y-166942517D01*
X128489491Y-166930185D01*
X128443797Y-166807671D01*
X128443793Y-166807664D01*
X128357547Y-166692455D01*
X128357544Y-166692452D01*
X128242335Y-166606206D01*
X128242332Y-166606205D01*
X128242331Y-166606204D01*
X128231161Y-166602038D01*
X128175231Y-166560166D01*
X128150816Y-166494701D01*
X128150500Y-166485858D01*
X128150500Y-166114141D01*
X128170185Y-166047102D01*
X128222989Y-166001347D01*
X128231149Y-165997966D01*
X128242331Y-165993796D01*
X128248785Y-165988965D01*
X128280447Y-165965261D01*
X128357546Y-165907546D01*
X128443796Y-165792331D01*
X128494091Y-165657483D01*
X128500500Y-165597873D01*
X128500499Y-164502128D01*
X128494091Y-164442517D01*
X128492457Y-164438137D01*
X128443797Y-164307672D01*
X128443796Y-164307669D01*
X128418509Y-164273891D01*
X128394094Y-164208430D01*
X128408945Y-164140157D01*
X128418512Y-164125271D01*
X128443351Y-164092090D01*
X128493597Y-163957376D01*
X128493598Y-163957372D01*
X128499999Y-163897844D01*
X128500000Y-163897827D01*
X128500000Y-163600000D01*
X127624000Y-163600000D01*
X127556961Y-163580315D01*
X127511206Y-163527511D01*
X127500000Y-163476000D01*
X127500000Y-163350000D01*
X127374000Y-163350000D01*
X127306961Y-163330315D01*
X127261206Y-163277511D01*
X127250000Y-163226000D01*
X127250000Y-163100000D01*
X127750000Y-163100000D01*
X128500000Y-163100000D01*
X128500000Y-162802172D01*
X128499999Y-162802155D01*
X128493598Y-162742627D01*
X128493596Y-162742620D01*
X128443354Y-162607913D01*
X128443350Y-162607906D01*
X128357190Y-162492812D01*
X128357187Y-162492809D01*
X128242093Y-162406649D01*
X128242086Y-162406645D01*
X128107379Y-162356403D01*
X128107372Y-162356401D01*
X128047844Y-162350000D01*
X127750000Y-162350000D01*
X127750000Y-163100000D01*
X127250000Y-163100000D01*
X127250000Y-162381335D01*
X127151847Y-162340478D01*
X127143167Y-162333458D01*
X127132461Y-162330315D01*
X127116490Y-162311883D01*
X127097520Y-162296542D01*
X127094013Y-162285943D01*
X127086706Y-162277511D01*
X127078036Y-162237661D01*
X127075571Y-162230209D01*
X127076028Y-162228429D01*
X127075500Y-162226000D01*
X127075500Y-145413768D01*
X127075499Y-145413766D01*
X127073663Y-145404534D01*
X127041855Y-145244626D01*
X127026638Y-145207888D01*
X126975861Y-145085301D01*
X126975854Y-145085288D01*
X126880046Y-144941902D01*
X126826936Y-144888792D01*
X126758099Y-144819955D01*
X126050324Y-144112180D01*
X126016839Y-144050857D01*
X126021823Y-143981165D01*
X126063695Y-143925232D01*
X126129159Y-143900815D01*
X126138005Y-143900499D01*
X128197871Y-143900499D01*
X128197872Y-143900499D01*
X128257483Y-143894091D01*
X128392331Y-143843796D01*
X128507546Y-143757546D01*
X128593796Y-143642331D01*
X128644091Y-143507483D01*
X128650500Y-143447873D01*
X128650499Y-140552128D01*
X128644091Y-140492517D01*
X128640215Y-140482126D01*
X128593797Y-140357671D01*
X128593793Y-140357664D01*
X128507547Y-140242455D01*
X128507544Y-140242452D01*
X128392335Y-140156206D01*
X128392328Y-140156202D01*
X128257482Y-140105908D01*
X128257483Y-140105908D01*
X128197883Y-140099501D01*
X128197881Y-140099500D01*
X128197873Y-140099500D01*
X128197864Y-140099500D01*
X125302129Y-140099500D01*
X125302123Y-140099501D01*
X125242516Y-140105908D01*
X125107671Y-140156202D01*
X125107664Y-140156206D01*
X124992455Y-140242452D01*
X124992452Y-140242455D01*
X124906206Y-140357664D01*
X124906202Y-140357671D01*
X124855908Y-140492517D01*
X124849501Y-140552116D01*
X124849501Y-140552123D01*
X124849500Y-140552135D01*
X124849500Y-142611994D01*
X124829815Y-142679033D01*
X124777011Y-142724788D01*
X124707853Y-142734732D01*
X124644297Y-142705707D01*
X124637819Y-142699675D01*
X121279294Y-139341150D01*
X121263873Y-139322359D01*
X121199467Y-139225969D01*
X121199461Y-139225961D01*
X121074038Y-139100538D01*
X121039712Y-139077602D01*
X120994908Y-139023989D01*
X120986201Y-138954664D01*
X121016356Y-138891637D01*
X121075799Y-138854918D01*
X121108604Y-138850500D01*
X127005068Y-138850500D01*
X127072107Y-138870185D01*
X127073959Y-138871398D01*
X127197137Y-138953703D01*
X127197138Y-138953703D01*
X127197139Y-138953704D01*
X127232201Y-138968227D01*
X127351918Y-139017816D01*
X127514680Y-139050191D01*
X127516228Y-139050499D01*
X127516232Y-139050500D01*
X127516233Y-139050500D01*
X127683768Y-139050500D01*
X127683769Y-139050499D01*
X127848082Y-139017816D01*
X128002863Y-138953703D01*
X128142162Y-138860626D01*
X128260626Y-138742162D01*
X128353703Y-138602863D01*
X128417816Y-138448082D01*
X128450500Y-138283767D01*
X128450500Y-138116233D01*
X128417816Y-137951918D01*
X128355770Y-137802127D01*
X128353704Y-137797139D01*
X128260626Y-137657837D01*
X128142162Y-137539373D01*
X128002860Y-137446295D01*
X127848082Y-137382184D01*
X127848074Y-137382182D01*
X127744960Y-137361671D01*
X127683049Y-137329286D01*
X127648474Y-137268570D01*
X127652214Y-137198801D01*
X127693081Y-137142129D01*
X127742274Y-137119664D01*
X127742250Y-137119585D01*
X127742839Y-137119406D01*
X127744962Y-137118436D01*
X127748082Y-137117816D01*
X127902863Y-137053703D01*
X128042162Y-136960626D01*
X128160626Y-136842162D01*
X128253703Y-136702863D01*
X128317816Y-136548082D01*
X128350500Y-136383767D01*
X128350500Y-136216233D01*
X128317816Y-136051918D01*
X128253703Y-135897137D01*
X128171398Y-135773959D01*
X128150520Y-135707281D01*
X128150500Y-135705068D01*
X128150500Y-127935928D01*
X128125502Y-127810261D01*
X128125501Y-127810260D01*
X128125501Y-127810256D01*
X128087574Y-127718692D01*
X128076466Y-127691875D01*
X128076460Y-127691865D01*
X128055880Y-127661065D01*
X128055878Y-127661063D01*
X128005277Y-127585331D01*
X128005275Y-127585329D01*
X128005273Y-127585326D01*
X127494673Y-127074726D01*
X127494669Y-127074723D01*
X127388127Y-127003535D01*
X127269744Y-126954499D01*
X127269738Y-126954497D01*
X127144071Y-126929500D01*
X127144069Y-126929500D01*
X127084141Y-126929500D01*
X127017102Y-126909815D01*
X126971347Y-126857011D01*
X126967969Y-126848859D01*
X126963796Y-126837669D01*
X126963793Y-126837665D01*
X126963793Y-126837664D01*
X126877547Y-126722455D01*
X126877544Y-126722452D01*
X126762335Y-126636206D01*
X126762328Y-126636202D01*
X126627482Y-126585908D01*
X126627483Y-126585908D01*
X126567883Y-126579501D01*
X126567881Y-126579500D01*
X126567873Y-126579500D01*
X126567864Y-126579500D01*
X123472129Y-126579500D01*
X123472123Y-126579501D01*
X123412516Y-126585908D01*
X123277671Y-126636202D01*
X123277664Y-126636206D01*
X123162455Y-126722452D01*
X123162452Y-126722455D01*
X123076206Y-126837664D01*
X123076202Y-126837671D01*
X123025908Y-126972517D01*
X123019501Y-127032116D01*
X123019500Y-127032135D01*
X123019500Y-127445295D01*
X123013564Y-127465508D01*
X123012437Y-127486548D01*
X123003917Y-127498362D01*
X122999815Y-127512334D01*
X122983896Y-127526127D01*
X122971571Y-127543220D01*
X122958016Y-127548553D01*
X122947011Y-127558089D01*
X122926157Y-127561087D01*
X122906552Y-127568801D01*
X122881755Y-127567471D01*
X122877853Y-127568033D01*
X122871309Y-127566912D01*
X122802781Y-127553281D01*
X122740870Y-127520896D01*
X122739291Y-127519345D01*
X122314674Y-127094727D01*
X122314673Y-127094726D01*
X122314669Y-127094723D01*
X122208127Y-127023535D01*
X122159840Y-127003534D01*
X122089744Y-126974499D01*
X122079780Y-126972517D01*
X122046945Y-126965985D01*
X122033442Y-126963299D01*
X121971532Y-126930912D01*
X121971525Y-126930900D01*
X121941455Y-126885014D01*
X121920697Y-126829358D01*
X121923159Y-126828439D01*
X121911215Y-126773580D01*
X121935621Y-126708111D01*
X121947212Y-126694732D01*
X122739293Y-125902652D01*
X122753746Y-125894441D01*
X122763910Y-125883568D01*
X122791306Y-125873101D01*
X122796544Y-125870126D01*
X122799633Y-125869344D01*
X122948082Y-125839816D01*
X122998042Y-125819121D01*
X123006758Y-125816915D01*
X123033049Y-125817906D01*
X123059201Y-125815094D01*
X123067406Y-125819201D01*
G37*
%TD.AperFunction*%
%TA.AperFunction,Conductor*%
G36*
X118045231Y-162969185D02*
G01*
X118065873Y-162985819D01*
X120575325Y-165495272D01*
X120575328Y-165495275D01*
X120575331Y-165495277D01*
X120649335Y-165544724D01*
X120681873Y-165566465D01*
X120800256Y-165615501D01*
X120884945Y-165632347D01*
X120946856Y-165664732D01*
X120981430Y-165725447D01*
X120977691Y-165795217D01*
X120967487Y-165817084D01*
X120948254Y-165849605D01*
X120948254Y-165849606D01*
X120902402Y-166007426D01*
X120902401Y-166007432D01*
X120899500Y-166044298D01*
X120899500Y-166475701D01*
X120902401Y-166512567D01*
X120902402Y-166512573D01*
X120948254Y-166670393D01*
X120948255Y-166670396D01*
X120948256Y-166670398D01*
X120962506Y-166694494D01*
X121031917Y-166811862D01*
X121036702Y-166818031D01*
X121034256Y-166819927D01*
X121060857Y-166868642D01*
X121055873Y-166938334D01*
X121035069Y-166970703D01*
X121036702Y-166971969D01*
X121031917Y-166978137D01*
X120948255Y-167119603D01*
X120948254Y-167119606D01*
X120902402Y-167277426D01*
X120902401Y-167277432D01*
X120899500Y-167314298D01*
X120899500Y-167745701D01*
X120902401Y-167782567D01*
X120902402Y-167782573D01*
X120948254Y-167940393D01*
X120948255Y-167940396D01*
X121031917Y-168081862D01*
X121036702Y-168088031D01*
X121034256Y-168089927D01*
X121060857Y-168138642D01*
X121055873Y-168208334D01*
X121035069Y-168240703D01*
X121036702Y-168241969D01*
X121031917Y-168248137D01*
X120948255Y-168389603D01*
X120948254Y-168389606D01*
X120902402Y-168547426D01*
X120902401Y-168547432D01*
X120899500Y-168584298D01*
X120899500Y-169015701D01*
X120902401Y-169052567D01*
X120902402Y-169052573D01*
X120948254Y-169210393D01*
X120948255Y-169210396D01*
X121031917Y-169351862D01*
X121036702Y-169358031D01*
X121034369Y-169359840D01*
X121061210Y-169408995D01*
X121056226Y-169478687D01*
X121035470Y-169511021D01*
X121037097Y-169512283D01*
X121032313Y-169518449D01*
X120948718Y-169659801D01*
X120902899Y-169817513D01*
X120902704Y-169819998D01*
X120902705Y-169820000D01*
X123847295Y-169820000D01*
X123847295Y-169819998D01*
X123847100Y-169817511D01*
X123847099Y-169817505D01*
X123815603Y-169709095D01*
X123815802Y-169639225D01*
X123853744Y-169580555D01*
X123917383Y-169551712D01*
X123934679Y-169550500D01*
X124354138Y-169550500D01*
X124421177Y-169570185D01*
X124433357Y-169580000D01*
X125965000Y-169580000D01*
X125984009Y-169560990D01*
X125984685Y-169558690D01*
X125996857Y-169548142D01*
X126001319Y-169543681D01*
X126001638Y-169544000D01*
X126037489Y-169512935D01*
X126106647Y-169502991D01*
X126170203Y-169532016D01*
X126176681Y-169538048D01*
X126471587Y-169832954D01*
X126471818Y-169833108D01*
X126471911Y-169833219D01*
X126476299Y-169836821D01*
X126475616Y-169837652D01*
X126516623Y-169886720D01*
X126519109Y-169892876D01*
X126556203Y-169992330D01*
X126556206Y-169992335D01*
X126642452Y-170107544D01*
X126642455Y-170107547D01*
X126764769Y-170199112D01*
X126763070Y-170201381D01*
X126802264Y-170240580D01*
X126817111Y-170308854D01*
X126792690Y-170374317D01*
X126763689Y-170399445D01*
X126764769Y-170400888D01*
X126642455Y-170492452D01*
X126599266Y-170550145D01*
X126543332Y-170592015D01*
X126473640Y-170596999D01*
X126412317Y-170563513D01*
X126400734Y-170550145D01*
X126363195Y-170500000D01*
X126357546Y-170492454D01*
X126357544Y-170492453D01*
X126357544Y-170492452D01*
X126242335Y-170406206D01*
X126242328Y-170406202D01*
X126107483Y-170355908D01*
X126051851Y-170349927D01*
X125987300Y-170323188D01*
X125947453Y-170265795D01*
X125944960Y-170195970D01*
X125948928Y-170183301D01*
X125958596Y-170157381D01*
X125958598Y-170157372D01*
X125964999Y-170097844D01*
X125965000Y-170097827D01*
X125965000Y-170050000D01*
X124435000Y-170050000D01*
X124435000Y-170097844D01*
X124441401Y-170157372D01*
X124441403Y-170157379D01*
X124491645Y-170292086D01*
X124491647Y-170292088D01*
X124583126Y-170414289D01*
X124581297Y-170415657D01*
X124590295Y-170432136D01*
X124606943Y-170458617D01*
X124606903Y-170462552D01*
X124608790Y-170466007D01*
X124606558Y-170497209D01*
X124606247Y-170528483D01*
X124604005Y-170532905D01*
X124603806Y-170535699D01*
X124591267Y-170560440D01*
X124589172Y-170563628D01*
X124556204Y-170607669D01*
X124550893Y-170621907D01*
X124543230Y-170633575D01*
X124526806Y-170647521D01*
X124513894Y-170664770D01*
X124500702Y-170669689D01*
X124489972Y-170678802D01*
X124468615Y-170681655D01*
X124448429Y-170689184D01*
X124439587Y-170689500D01*
X123894896Y-170689500D01*
X123827857Y-170669815D01*
X123782102Y-170617011D01*
X123772158Y-170547853D01*
X123788164Y-170502379D01*
X123801281Y-170480198D01*
X123847100Y-170322486D01*
X123847295Y-170320001D01*
X123847295Y-170320000D01*
X120902705Y-170320000D01*
X120902704Y-170320001D01*
X120902899Y-170322486D01*
X120948718Y-170480198D01*
X121032314Y-170621552D01*
X121037100Y-170627722D01*
X121034640Y-170629629D01*
X121061210Y-170678288D01*
X121056226Y-170747980D01*
X121035162Y-170780781D01*
X121036699Y-170781974D01*
X121031915Y-170788140D01*
X120948255Y-170929603D01*
X120948254Y-170929606D01*
X120902402Y-171087426D01*
X120902401Y-171087432D01*
X120899500Y-171124298D01*
X120899500Y-171555701D01*
X120902401Y-171592567D01*
X120902402Y-171592573D01*
X120948254Y-171750393D01*
X120948255Y-171750396D01*
X121018054Y-171868421D01*
X121035237Y-171936145D01*
X121013077Y-172002408D01*
X120980212Y-172034644D01*
X120875332Y-172104721D01*
X120875325Y-172104727D01*
X120344726Y-172635326D01*
X120273534Y-172741874D01*
X120224499Y-172860255D01*
X120224497Y-172860261D01*
X120199500Y-172985928D01*
X120199500Y-173587862D01*
X120179815Y-173654901D01*
X120127011Y-173700656D01*
X120057853Y-173710600D01*
X119994297Y-173681575D01*
X119960939Y-173635315D01*
X119903704Y-173497139D01*
X119894249Y-173482989D01*
X119858967Y-173430185D01*
X119810626Y-173357837D01*
X119692162Y-173239373D01*
X119552860Y-173146295D01*
X119398082Y-173082184D01*
X119398074Y-173082182D01*
X119233771Y-173049500D01*
X119233767Y-173049500D01*
X119066233Y-173049500D01*
X119066232Y-173049500D01*
X119029834Y-173056739D01*
X118960243Y-173050510D01*
X118905066Y-173007645D01*
X118881824Y-172941755D01*
X118886569Y-172900529D01*
X118897598Y-172862569D01*
X118900500Y-172825694D01*
X118900500Y-172394306D01*
X118897598Y-172357431D01*
X118895584Y-172350500D01*
X118863836Y-172241224D01*
X118851744Y-172199602D01*
X118768081Y-172058135D01*
X118768078Y-172058132D01*
X118763298Y-172051969D01*
X118765750Y-172050066D01*
X118739155Y-172001421D01*
X118744104Y-171931726D01*
X118764940Y-171899304D01*
X118763298Y-171898031D01*
X118768075Y-171891870D01*
X118768081Y-171891865D01*
X118851744Y-171750398D01*
X118897598Y-171592569D01*
X118900500Y-171555694D01*
X118900500Y-171124306D01*
X118897598Y-171087431D01*
X118851744Y-170929602D01*
X118768081Y-170788135D01*
X118768078Y-170788132D01*
X118763298Y-170781969D01*
X118765635Y-170780155D01*
X118738798Y-170731050D01*
X118743756Y-170661356D01*
X118764554Y-170628998D01*
X118762903Y-170627717D01*
X118767686Y-170621550D01*
X118851281Y-170480198D01*
X118897100Y-170322486D01*
X118897295Y-170320001D01*
X118897295Y-170320000D01*
X115952705Y-170320000D01*
X115952704Y-170320001D01*
X115952899Y-170322486D01*
X115998718Y-170480198D01*
X116011836Y-170502379D01*
X116029019Y-170570103D01*
X116006859Y-170636366D01*
X115952393Y-170680129D01*
X115905104Y-170689500D01*
X115260413Y-170689500D01*
X115193374Y-170669815D01*
X115147619Y-170617011D01*
X115144233Y-170608838D01*
X115143799Y-170607674D01*
X115143793Y-170607664D01*
X115057547Y-170492455D01*
X115057544Y-170492452D01*
X114942335Y-170406206D01*
X114942328Y-170406202D01*
X114807482Y-170355908D01*
X114807483Y-170355908D01*
X114747883Y-170349501D01*
X114747881Y-170349500D01*
X114747873Y-170349500D01*
X114747864Y-170349500D01*
X113652129Y-170349500D01*
X113652123Y-170349501D01*
X113592516Y-170355908D01*
X113457671Y-170406202D01*
X113457664Y-170406206D01*
X113342455Y-170492452D01*
X113342452Y-170492455D01*
X113256206Y-170607664D01*
X113256204Y-170607668D01*
X113256204Y-170607669D01*
X113252039Y-170618834D01*
X113210171Y-170674766D01*
X113144707Y-170699184D01*
X113135859Y-170699500D01*
X111564141Y-170699500D01*
X111497102Y-170679815D01*
X111458279Y-170640070D01*
X111452106Y-170629950D01*
X111443796Y-170607669D01*
X111415290Y-170569591D01*
X111412228Y-170564570D01*
X111404640Y-170536285D01*
X111394406Y-170508849D01*
X111395692Y-170502934D01*
X111394124Y-170497087D01*
X111403033Y-170469185D01*
X111409257Y-170440575D01*
X111415046Y-170431566D01*
X111415378Y-170430528D01*
X111416093Y-170429936D01*
X111418823Y-170425690D01*
X111443796Y-170392331D01*
X111456066Y-170359435D01*
X111481529Y-170291163D01*
X111494091Y-170257483D01*
X111500500Y-170197873D01*
X111500499Y-169102128D01*
X111494091Y-169042517D01*
X111484089Y-169015701D01*
X111443797Y-168907671D01*
X111443793Y-168907664D01*
X111357547Y-168792455D01*
X111357544Y-168792452D01*
X111242335Y-168706206D01*
X111242332Y-168706205D01*
X111242331Y-168706204D01*
X111231161Y-168702038D01*
X111175231Y-168660166D01*
X111150816Y-168594701D01*
X111150500Y-168585858D01*
X111150500Y-168228974D01*
X111170185Y-168161935D01*
X111201611Y-168128658D01*
X111363505Y-168011035D01*
X111396370Y-167978169D01*
X111457690Y-167944685D01*
X111527382Y-167949669D01*
X111583316Y-167991539D01*
X111598610Y-168018396D01*
X111601984Y-168026541D01*
X111601990Y-168026553D01*
X111700535Y-168174034D01*
X111700538Y-168174038D01*
X111825961Y-168299461D01*
X111825969Y-168299467D01*
X111922359Y-168363873D01*
X111941150Y-168379294D01*
X112756897Y-169195042D01*
X112756901Y-169195045D01*
X112900288Y-169290854D01*
X112900301Y-169290861D01*
X113047567Y-169351860D01*
X113059626Y-169356855D01*
X113190825Y-169382952D01*
X113228766Y-169390499D01*
X113228769Y-169390500D01*
X113228771Y-169390500D01*
X113786231Y-169390500D01*
X113786232Y-169390499D01*
X113955374Y-169356855D01*
X114078604Y-169305811D01*
X114114698Y-169290861D01*
X114114698Y-169290860D01*
X114114705Y-169290858D01*
X114117629Y-169288903D01*
X114121382Y-169286397D01*
X114188059Y-169265520D01*
X114190272Y-169265500D01*
X114426082Y-169265500D01*
X115052770Y-169265500D01*
X115077233Y-169272683D01*
X115102528Y-169275921D01*
X115113290Y-169283271D01*
X115119809Y-169285185D01*
X115132512Y-169294541D01*
X115136636Y-169298004D01*
X115221584Y-169382952D01*
X115295270Y-169432186D01*
X115344505Y-169465084D01*
X115344506Y-169465084D01*
X115344507Y-169465085D01*
X115344509Y-169465086D01*
X115473335Y-169518447D01*
X115481087Y-169521658D01*
X115481091Y-169521658D01*
X115481092Y-169521659D01*
X115626079Y-169550500D01*
X115626082Y-169550500D01*
X115626083Y-169550500D01*
X115773918Y-169550500D01*
X115865321Y-169550500D01*
X115932360Y-169570185D01*
X115978115Y-169622989D01*
X115988059Y-169692147D01*
X115984397Y-169709095D01*
X115952900Y-169817505D01*
X115952899Y-169817511D01*
X115952704Y-169819998D01*
X115952705Y-169820000D01*
X118897295Y-169820000D01*
X118897295Y-169819998D01*
X118897100Y-169817513D01*
X118851281Y-169659801D01*
X118767685Y-169518447D01*
X118762900Y-169512278D01*
X118765366Y-169510364D01*
X118738802Y-169461776D01*
X118743749Y-169392082D01*
X118764856Y-169359232D01*
X118763301Y-169358026D01*
X118768077Y-169351868D01*
X118768081Y-169351865D01*
X118851744Y-169210398D01*
X118897598Y-169052569D01*
X118900500Y-169015694D01*
X118900500Y-168584306D01*
X118897598Y-168547431D01*
X118886046Y-168507670D01*
X118851745Y-168389606D01*
X118851744Y-168389603D01*
X118851744Y-168389602D01*
X118768081Y-168248135D01*
X118768078Y-168248132D01*
X118763298Y-168241969D01*
X118765635Y-168240155D01*
X118738798Y-168191050D01*
X118743756Y-168121356D01*
X118752310Y-168103094D01*
X118864618Y-167906686D01*
X118879599Y-167892281D01*
X118890787Y-167874761D01*
X118904278Y-167868552D01*
X118914983Y-167858260D01*
X118935377Y-167854241D01*
X118954259Y-167845552D01*
X118976598Y-167846117D01*
X118983535Y-167844751D01*
X118987702Y-167846399D01*
X118996452Y-167846620D01*
X119066231Y-167860500D01*
X119066232Y-167860501D01*
X119066233Y-167860501D01*
X119233768Y-167860501D01*
X119233769Y-167860500D01*
X119398082Y-167827817D01*
X119552863Y-167763704D01*
X119692162Y-167670627D01*
X119810626Y-167552163D01*
X119903703Y-167412864D01*
X119967816Y-167258083D01*
X120000500Y-167093768D01*
X120000500Y-166926234D01*
X119967816Y-166761919D01*
X119903703Y-166607138D01*
X119869050Y-166555277D01*
X119810626Y-166467838D01*
X119692162Y-166349374D01*
X119552860Y-166256296D01*
X119398082Y-166192185D01*
X119398074Y-166192183D01*
X119252781Y-166163282D01*
X119190870Y-166130897D01*
X119189291Y-166129346D01*
X118814673Y-165754727D01*
X118814672Y-165754726D01*
X118814668Y-165754723D01*
X118806666Y-165749376D01*
X118802404Y-165745252D01*
X118799212Y-165743986D01*
X118788537Y-165731833D01*
X118774777Y-165718518D01*
X118771601Y-165714088D01*
X118768081Y-165708135D01*
X118765444Y-165705498D01*
X118759526Y-165697242D01*
X118751224Y-165673496D01*
X118739155Y-165651421D01*
X118739889Y-165641076D01*
X118736467Y-165631287D01*
X118742322Y-165606819D01*
X118744104Y-165581726D01*
X118750832Y-165571256D01*
X118752728Y-165563336D01*
X118761061Y-165555340D01*
X118764940Y-165549304D01*
X118763298Y-165548031D01*
X118768075Y-165541870D01*
X118768081Y-165541865D01*
X118851744Y-165400398D01*
X118897242Y-165243796D01*
X118897597Y-165242573D01*
X118897598Y-165242567D01*
X118897964Y-165237913D01*
X118900500Y-165205694D01*
X118900500Y-164774306D01*
X118897598Y-164737431D01*
X118886567Y-164699464D01*
X118851745Y-164579606D01*
X118851744Y-164579603D01*
X118851744Y-164579602D01*
X118768081Y-164438135D01*
X118768079Y-164438133D01*
X118768076Y-164438129D01*
X118651870Y-164321923D01*
X118651862Y-164321917D01*
X118510396Y-164238255D01*
X118510393Y-164238254D01*
X118352573Y-164192402D01*
X118352567Y-164192401D01*
X118315701Y-164189500D01*
X118315694Y-164189500D01*
X116534306Y-164189500D01*
X116534298Y-164189500D01*
X116497432Y-164192401D01*
X116497426Y-164192402D01*
X116339606Y-164238254D01*
X116339603Y-164238255D01*
X116197605Y-164322232D01*
X116181703Y-164326582D01*
X116169419Y-164334477D01*
X116134484Y-164339500D01*
X116010808Y-164339500D01*
X115943769Y-164319815D01*
X115923127Y-164303181D01*
X115464674Y-163844727D01*
X115464673Y-163844726D01*
X115464669Y-163844723D01*
X115358127Y-163773535D01*
X115358125Y-163773534D01*
X115239740Y-163724497D01*
X115239412Y-163724398D01*
X115239261Y-163724299D01*
X115234116Y-163722168D01*
X115234520Y-163721191D01*
X115180977Y-163686094D01*
X115170167Y-163671298D01*
X115163588Y-163660735D01*
X115143796Y-163607669D01*
X115064855Y-163502217D01*
X115062050Y-163497714D01*
X115054047Y-163468963D01*
X115043619Y-163441004D01*
X115044104Y-163433240D01*
X115043315Y-163430403D01*
X115044528Y-163426477D01*
X115045687Y-163407961D01*
X115046159Y-163405592D01*
X115049113Y-163390740D01*
X115050500Y-163383769D01*
X115050500Y-163216232D01*
X115050499Y-163216229D01*
X115026921Y-163097691D01*
X115033148Y-163028100D01*
X115076011Y-162972922D01*
X115141901Y-162949678D01*
X115148538Y-162949500D01*
X117978192Y-162949500D01*
X118045231Y-162969185D01*
G37*
%TD.AperFunction*%
%TA.AperFunction,Conductor*%
G36*
X113202898Y-166720185D02*
G01*
X113248653Y-166772989D01*
X113252030Y-166781140D01*
X113256204Y-166792331D01*
X113256205Y-166792332D01*
X113256206Y-166792335D01*
X113342452Y-166907544D01*
X113342455Y-166907547D01*
X113457664Y-166993793D01*
X113457671Y-166993797D01*
X113479995Y-167002123D01*
X113592517Y-167044091D01*
X113626885Y-167047786D01*
X113691434Y-167074524D01*
X113731282Y-167131916D01*
X113736918Y-167184329D01*
X113735000Y-167202169D01*
X113735000Y-167250000D01*
X115265000Y-167250000D01*
X115265000Y-167202172D01*
X115264999Y-167202155D01*
X115258598Y-167142627D01*
X115258597Y-167142623D01*
X115225368Y-167053532D01*
X115220384Y-166983840D01*
X115253869Y-166922517D01*
X115315192Y-166889032D01*
X115365739Y-166888581D01*
X115428178Y-166901001D01*
X115475930Y-166910500D01*
X115475931Y-166910500D01*
X115905104Y-166910500D01*
X115972143Y-166930185D01*
X116017898Y-166982989D01*
X116027842Y-167052147D01*
X116011836Y-167097621D01*
X115998718Y-167119801D01*
X115952899Y-167277513D01*
X115952704Y-167279998D01*
X115952705Y-167280000D01*
X117301000Y-167280000D01*
X117368039Y-167299685D01*
X117413794Y-167352489D01*
X117425000Y-167404000D01*
X117425000Y-167656000D01*
X117405315Y-167723039D01*
X117352511Y-167768794D01*
X117301000Y-167780000D01*
X115952705Y-167780000D01*
X115915888Y-167819828D01*
X115913815Y-167817911D01*
X115885223Y-167846898D01*
X115817053Y-167862217D01*
X115776751Y-167850732D01*
X115776124Y-167852247D01*
X115633917Y-167793343D01*
X115633907Y-167793340D01*
X115488920Y-167764500D01*
X115488918Y-167764500D01*
X115360862Y-167764500D01*
X115293823Y-167744815D01*
X115273181Y-167728181D01*
X115265000Y-167720000D01*
X114093157Y-167720000D01*
X114045704Y-167710561D01*
X113955374Y-167673145D01*
X113955366Y-167673143D01*
X113786232Y-167639500D01*
X113786229Y-167639500D01*
X113729006Y-167639500D01*
X113661967Y-167619815D01*
X113641325Y-167603181D01*
X113179294Y-167141150D01*
X113163873Y-167122359D01*
X113099467Y-167025969D01*
X113099461Y-167025961D01*
X112985681Y-166912181D01*
X112952196Y-166850858D01*
X112957180Y-166781166D01*
X112999052Y-166725233D01*
X113064516Y-166700816D01*
X113073362Y-166700500D01*
X113135859Y-166700500D01*
X113202898Y-166720185D01*
G37*
%TD.AperFunction*%
%TA.AperFunction,Conductor*%
G36*
X120996613Y-150516671D02*
G01*
X121024069Y-150519162D01*
X121032003Y-150524369D01*
X121037952Y-150525663D01*
X121054717Y-150536665D01*
X121060778Y-150541385D01*
X121087635Y-150568242D01*
X121201376Y-150650879D01*
X121203031Y-150652168D01*
X121222268Y-150678913D01*
X121242393Y-150705011D01*
X121242576Y-150707147D01*
X121243829Y-150708889D01*
X121245553Y-150741807D01*
X121248372Y-150774625D01*
X121247371Y-150776520D01*
X121247484Y-150778663D01*
X121231141Y-150807280D01*
X121215767Y-150836420D01*
X121213262Y-150838589D01*
X121212836Y-150839337D01*
X121211741Y-150839907D01*
X121199727Y-150850318D01*
X121087641Y-150931752D01*
X121087636Y-150931756D01*
X120931756Y-151087636D01*
X120850008Y-151200153D01*
X120794678Y-151242818D01*
X120725064Y-151248797D01*
X120663269Y-151216191D01*
X120651416Y-151202513D01*
X120651065Y-151202485D01*
X119982962Y-151870589D01*
X119965925Y-151807007D01*
X119900099Y-151692993D01*
X119807007Y-151599901D01*
X119692993Y-151534075D01*
X119629408Y-151517037D01*
X120317415Y-150829031D01*
X120378738Y-150795546D01*
X120448430Y-150800530D01*
X120492777Y-150829031D01*
X120543769Y-150880023D01*
X120642090Y-150843352D01*
X120642091Y-150843351D01*
X120757187Y-150757190D01*
X120757190Y-150757187D01*
X120843350Y-150642093D01*
X120843353Y-150642088D01*
X120862345Y-150591166D01*
X120878863Y-150569098D01*
X120892534Y-150545160D01*
X120899504Y-150541524D01*
X120904215Y-150535232D01*
X120930041Y-150525598D01*
X120954485Y-150512850D01*
X120962314Y-150513560D01*
X120969679Y-150510813D01*
X120996613Y-150516671D01*
G37*
%TD.AperFunction*%
%TA.AperFunction,Conductor*%
G36*
X108379033Y-110770185D02*
G01*
X108424788Y-110822989D01*
X108434732Y-110892147D01*
X108405707Y-110955703D01*
X108399675Y-110962181D01*
X106141901Y-113219955D01*
X106080927Y-113280929D01*
X106019953Y-113341902D01*
X105924145Y-113485288D01*
X105924138Y-113485301D01*
X105858146Y-113644621D01*
X105858143Y-113644633D01*
X105824500Y-113813766D01*
X105824500Y-124985993D01*
X105815855Y-125015433D01*
X105809332Y-125045420D01*
X105805577Y-125050435D01*
X105804815Y-125053032D01*
X105788181Y-125073674D01*
X105770180Y-125091675D01*
X105708857Y-125125160D01*
X105639165Y-125120176D01*
X105583232Y-125078304D01*
X105558815Y-125012840D01*
X105558499Y-125003994D01*
X105558499Y-122394129D01*
X105558498Y-122394123D01*
X105558497Y-122394116D01*
X105552091Y-122334517D01*
X105550093Y-122329161D01*
X105501797Y-122199671D01*
X105501793Y-122199664D01*
X105415547Y-122084455D01*
X105415544Y-122084452D01*
X105300335Y-121998206D01*
X105300328Y-121998202D01*
X105165482Y-121947908D01*
X105165483Y-121947908D01*
X105105883Y-121941501D01*
X105105881Y-121941500D01*
X105105873Y-121941500D01*
X105105864Y-121941500D01*
X101894129Y-121941500D01*
X101894123Y-121941501D01*
X101834516Y-121947908D01*
X101699671Y-121998202D01*
X101699664Y-121998206D01*
X101584455Y-122084452D01*
X101584452Y-122084455D01*
X101498206Y-122199664D01*
X101498202Y-122199671D01*
X101447908Y-122334517D01*
X101441501Y-122394116D01*
X101441501Y-122394123D01*
X101441500Y-122394135D01*
X101441500Y-125605870D01*
X101441501Y-125605876D01*
X101447908Y-125665483D01*
X101498202Y-125800328D01*
X101498206Y-125800335D01*
X101584452Y-125915544D01*
X101584455Y-125915547D01*
X101699664Y-126001793D01*
X101699671Y-126001797D01*
X101834517Y-126052091D01*
X101834516Y-126052091D01*
X101841444Y-126052835D01*
X101894127Y-126058500D01*
X104503994Y-126058499D01*
X104571033Y-126078184D01*
X104616788Y-126130987D01*
X104626732Y-126200146D01*
X104597707Y-126263702D01*
X104591675Y-126270180D01*
X103857237Y-127004619D01*
X103795914Y-127038104D01*
X103769556Y-127040938D01*
X102997330Y-127040938D01*
X102828195Y-127074581D01*
X102828183Y-127074584D01*
X102668863Y-127140576D01*
X102668851Y-127140583D01*
X102567766Y-127208127D01*
X102567765Y-127208128D01*
X102525460Y-127236394D01*
X102525459Y-127236395D01*
X102235729Y-127526127D01*
X102141901Y-127619955D01*
X102100793Y-127661063D01*
X102019953Y-127741902D01*
X101924145Y-127885288D01*
X101924138Y-127885301D01*
X101858146Y-128044621D01*
X101858143Y-128044633D01*
X101824500Y-128213766D01*
X101824500Y-128475165D01*
X101804815Y-128542204D01*
X101799767Y-128549476D01*
X101756204Y-128607668D01*
X101756202Y-128607671D01*
X101705908Y-128742517D01*
X101699501Y-128802116D01*
X101699500Y-128802135D01*
X101699500Y-129897870D01*
X101699501Y-129897876D01*
X101705908Y-129957483D01*
X101756202Y-130092328D01*
X101756203Y-130092330D01*
X101781176Y-130125690D01*
X101805592Y-130191155D01*
X101790740Y-130259428D01*
X101781176Y-130274310D01*
X101756203Y-130307669D01*
X101756202Y-130307671D01*
X101705908Y-130442517D01*
X101699501Y-130502116D01*
X101699500Y-130502135D01*
X101699500Y-131597870D01*
X101699501Y-131597876D01*
X101705908Y-131657483D01*
X101756202Y-131792328D01*
X101756206Y-131792335D01*
X101842452Y-131907544D01*
X101842455Y-131907547D01*
X101957664Y-131993793D01*
X101957671Y-131993797D01*
X102092517Y-132044091D01*
X102092516Y-132044091D01*
X102099444Y-132044835D01*
X102152127Y-132050500D01*
X103247872Y-132050499D01*
X103307483Y-132044091D01*
X103442331Y-131993796D01*
X103557546Y-131907546D01*
X103643796Y-131792331D01*
X103647960Y-131781165D01*
X103689829Y-131725234D01*
X103755293Y-131700816D01*
X103764141Y-131700500D01*
X104050501Y-131700500D01*
X104117540Y-131720185D01*
X104163295Y-131772989D01*
X104174501Y-131824500D01*
X104174501Y-131872876D01*
X104180908Y-131932483D01*
X104231202Y-132067328D01*
X104231206Y-132067335D01*
X104317452Y-132182544D01*
X104317455Y-132182547D01*
X104432664Y-132268793D01*
X104432671Y-132268797D01*
X104567517Y-132319091D01*
X104567516Y-132319091D01*
X104574444Y-132319835D01*
X104627127Y-132325500D01*
X106372872Y-132325499D01*
X106432483Y-132319091D01*
X106567331Y-132268796D01*
X106682546Y-132182546D01*
X106768796Y-132067331D01*
X106775315Y-132049854D01*
X106816548Y-131939300D01*
X106858418Y-131883366D01*
X106923882Y-131858948D01*
X106992156Y-131873799D01*
X107020411Y-131894951D01*
X107136495Y-132011035D01*
X107305286Y-132133670D01*
X107374989Y-132169185D01*
X107491179Y-132228387D01*
X107491181Y-132228387D01*
X107491184Y-132228389D01*
X107597545Y-132262948D01*
X107689610Y-132292862D01*
X107895676Y-132325500D01*
X107895681Y-132325500D01*
X108104324Y-132325500D01*
X108310389Y-132292862D01*
X108315667Y-132291147D01*
X108508816Y-132228389D01*
X108694714Y-132133670D01*
X108863505Y-132011035D01*
X109011035Y-131863505D01*
X109133670Y-131694714D01*
X109139515Y-131683243D01*
X109187489Y-131632447D01*
X109255310Y-131615651D01*
X109321445Y-131638188D01*
X109360485Y-131683243D01*
X109366328Y-131694712D01*
X109429144Y-131781169D01*
X109488965Y-131863505D01*
X109636495Y-132011035D01*
X109805286Y-132133670D01*
X109874989Y-132169185D01*
X109991179Y-132228387D01*
X109991181Y-132228387D01*
X109991184Y-132228389D01*
X110097545Y-132262948D01*
X110189610Y-132292862D01*
X110395676Y-132325500D01*
X110395681Y-132325500D01*
X110604324Y-132325500D01*
X110704222Y-132309677D01*
X110810389Y-132292862D01*
X110810392Y-132292861D01*
X110810393Y-132292861D01*
X111008813Y-132228390D01*
X111008813Y-132228389D01*
X111008816Y-132228389D01*
X111137121Y-132163014D01*
X111193415Y-132149500D01*
X115148349Y-132149500D01*
X115215388Y-132169185D01*
X115261143Y-132221989D01*
X115271087Y-132291147D01*
X115242906Y-132352854D01*
X115243239Y-132353128D01*
X115242206Y-132354385D01*
X115242062Y-132354703D01*
X115241088Y-132355748D01*
X115239373Y-132357837D01*
X115146295Y-132497139D01*
X115082184Y-132651917D01*
X115082182Y-132651923D01*
X115053281Y-132797219D01*
X115020896Y-132859130D01*
X115019345Y-132860708D01*
X114638673Y-133241380D01*
X114577350Y-133274865D01*
X114507658Y-133269881D01*
X114451725Y-133228009D01*
X114427308Y-133162545D01*
X114440784Y-133100596D01*
X114440253Y-133100398D01*
X114441631Y-133096703D01*
X114442160Y-133094272D01*
X114442163Y-133094267D01*
X114443351Y-133092090D01*
X114493597Y-132957376D01*
X114493598Y-132957372D01*
X114499999Y-132897844D01*
X114500000Y-132897827D01*
X114500000Y-132600000D01*
X112500000Y-132600000D01*
X112500000Y-132897844D01*
X112506401Y-132957372D01*
X112506403Y-132957379D01*
X112556645Y-133092086D01*
X112556646Y-133092088D01*
X112581488Y-133125273D01*
X112588743Y-133144726D01*
X112600364Y-133161927D01*
X112600705Y-133176799D01*
X112605904Y-133190738D01*
X112601491Y-133211022D01*
X112601968Y-133231778D01*
X112592935Y-133250351D01*
X112591052Y-133259011D01*
X112588047Y-133264211D01*
X112584992Y-133269212D01*
X112556204Y-133307669D01*
X112547882Y-133329979D01*
X112541685Y-133340128D01*
X112524265Y-133355936D01*
X112510170Y-133374766D01*
X112498873Y-133378979D01*
X112489945Y-133387082D01*
X112466745Y-133390963D01*
X112444706Y-133399184D01*
X112435858Y-133399500D01*
X112164141Y-133399500D01*
X112097102Y-133379815D01*
X112051347Y-133327011D01*
X112047969Y-133318859D01*
X112043796Y-133307669D01*
X112043793Y-133307665D01*
X112043793Y-133307664D01*
X111957547Y-133192455D01*
X111957544Y-133192452D01*
X111842335Y-133106206D01*
X111842328Y-133106202D01*
X111707482Y-133055908D01*
X111707483Y-133055908D01*
X111647883Y-133049501D01*
X111647881Y-133049500D01*
X111647873Y-133049500D01*
X111647864Y-133049500D01*
X110552129Y-133049500D01*
X110552123Y-133049501D01*
X110492516Y-133055908D01*
X110357671Y-133106202D01*
X110357664Y-133106206D01*
X110242455Y-133192452D01*
X110242452Y-133192455D01*
X110156206Y-133307664D01*
X110156202Y-133307671D01*
X110105908Y-133442517D01*
X110099501Y-133502116D01*
X110099500Y-133502135D01*
X110099500Y-134597870D01*
X110099501Y-134597876D01*
X110105908Y-134657483D01*
X110156202Y-134792328D01*
X110156203Y-134792330D01*
X110181176Y-134825690D01*
X110188418Y-134845109D01*
X110200031Y-134862277D01*
X110200381Y-134877184D01*
X110205592Y-134891155D01*
X110201186Y-134911406D01*
X110201674Y-134932128D01*
X110192630Y-134950738D01*
X110190740Y-134959428D01*
X110187771Y-134964568D01*
X110184699Y-134969604D01*
X110156204Y-135007669D01*
X110147894Y-135029947D01*
X110141722Y-135040068D01*
X110124286Y-135055908D01*
X110110171Y-135074766D01*
X110098907Y-135078967D01*
X110090009Y-135087052D01*
X110066777Y-135090951D01*
X110044707Y-135099184D01*
X110035859Y-135099500D01*
X109361744Y-135099500D01*
X109294705Y-135079815D01*
X109261425Y-135048384D01*
X109191969Y-134952784D01*
X109047213Y-134808028D01*
X108881613Y-134687715D01*
X108881612Y-134687714D01*
X108881610Y-134687713D01*
X108822280Y-134657483D01*
X108699223Y-134594781D01*
X108504534Y-134531522D01*
X108329995Y-134503878D01*
X108302352Y-134499500D01*
X108097648Y-134499500D01*
X108073329Y-134503351D01*
X107895465Y-134531522D01*
X107700776Y-134594781D01*
X107518386Y-134687715D01*
X107352786Y-134808028D01*
X107208028Y-134952786D01*
X107087715Y-135118386D01*
X106994781Y-135300776D01*
X106931522Y-135495465D01*
X106899500Y-135697648D01*
X106899500Y-135902351D01*
X106931522Y-136104534D01*
X106994781Y-136299223D01*
X107046385Y-136400500D01*
X107087488Y-136481169D01*
X107087715Y-136481613D01*
X107208028Y-136647213D01*
X107352786Y-136791971D01*
X107457257Y-136867872D01*
X107518390Y-136912287D01*
X107634607Y-136971503D01*
X107700776Y-137005218D01*
X107700778Y-137005218D01*
X107700781Y-137005220D01*
X107805137Y-137039127D01*
X107895465Y-137068477D01*
X107965402Y-137079554D01*
X108097648Y-137100500D01*
X108097649Y-137100500D01*
X108302351Y-137100500D01*
X108302352Y-137100500D01*
X108504534Y-137068477D01*
X108699219Y-137005220D01*
X108881610Y-136912287D01*
X108978130Y-136842162D01*
X109047213Y-136791971D01*
X109047215Y-136791968D01*
X109047219Y-136791966D01*
X109191966Y-136647219D01*
X109191968Y-136647215D01*
X109191971Y-136647213D01*
X109312284Y-136481614D01*
X109312285Y-136481613D01*
X109312287Y-136481610D01*
X109319117Y-136468204D01*
X109367091Y-136417409D01*
X109429602Y-136400500D01*
X110035859Y-136400500D01*
X110102898Y-136420185D01*
X110148653Y-136472989D01*
X110152030Y-136481140D01*
X110156204Y-136492331D01*
X110156205Y-136492332D01*
X110156206Y-136492335D01*
X110242452Y-136607544D01*
X110242455Y-136607547D01*
X110357664Y-136693793D01*
X110357671Y-136693797D01*
X110492517Y-136744091D01*
X110492516Y-136744091D01*
X110499444Y-136744835D01*
X110552127Y-136750500D01*
X111647872Y-136750499D01*
X111707483Y-136744091D01*
X111842331Y-136693796D01*
X111957546Y-136607546D01*
X112043796Y-136492331D01*
X112094091Y-136357483D01*
X112100500Y-136297873D01*
X112100500Y-136102155D01*
X112500000Y-136102155D01*
X112500000Y-136400000D01*
X113250000Y-136400000D01*
X113750000Y-136400000D01*
X114500000Y-136400000D01*
X114500000Y-136102172D01*
X114499999Y-136102155D01*
X114493598Y-136042627D01*
X114493596Y-136042620D01*
X114443354Y-135907913D01*
X114443350Y-135907906D01*
X114357190Y-135792812D01*
X114357187Y-135792809D01*
X114242093Y-135706649D01*
X114242086Y-135706645D01*
X114107379Y-135656403D01*
X114107372Y-135656401D01*
X114047844Y-135650000D01*
X113750000Y-135650000D01*
X113750000Y-136400000D01*
X113250000Y-136400000D01*
X113250000Y-135650000D01*
X112952155Y-135650000D01*
X112892627Y-135656401D01*
X112892620Y-135656403D01*
X112757913Y-135706645D01*
X112757906Y-135706649D01*
X112642812Y-135792809D01*
X112642809Y-135792812D01*
X112556649Y-135907906D01*
X112556645Y-135907913D01*
X112506403Y-136042620D01*
X112506401Y-136042627D01*
X112500000Y-136102155D01*
X112100500Y-136102155D01*
X112100499Y-135747712D01*
X112100499Y-135202129D01*
X112100498Y-135202123D01*
X112094091Y-135142516D01*
X112043797Y-135007670D01*
X112033411Y-134993797D01*
X112018823Y-134974310D01*
X112011579Y-134954889D01*
X111999967Y-134937721D01*
X111999616Y-134922818D01*
X111994406Y-134908849D01*
X111998812Y-134888592D01*
X111998325Y-134867870D01*
X112007367Y-134849263D01*
X112009257Y-134840575D01*
X112012228Y-134835430D01*
X112015290Y-134830408D01*
X112043796Y-134792331D01*
X112052106Y-134770049D01*
X112058279Y-134759930D01*
X112075713Y-134744090D01*
X112089829Y-134725234D01*
X112101094Y-134721031D01*
X112109994Y-134712947D01*
X112133223Y-134709047D01*
X112155293Y-134700816D01*
X112164141Y-134700500D01*
X112435859Y-134700500D01*
X112502898Y-134720185D01*
X112548653Y-134772989D01*
X112552030Y-134781140D01*
X112556204Y-134792331D01*
X112556205Y-134792332D01*
X112556206Y-134792335D01*
X112642452Y-134907544D01*
X112642455Y-134907547D01*
X112757664Y-134993793D01*
X112757671Y-134993797D01*
X112892517Y-135044091D01*
X112892516Y-135044091D01*
X112899444Y-135044835D01*
X112952127Y-135050500D01*
X114047872Y-135050499D01*
X114107483Y-135044091D01*
X114242331Y-134993796D01*
X114357546Y-134907546D01*
X114443796Y-134792331D01*
X114447960Y-134781165D01*
X114489829Y-134725234D01*
X114555293Y-134700816D01*
X114564141Y-134700500D01*
X114814071Y-134700500D01*
X114898615Y-134683682D01*
X114939744Y-134675501D01*
X115058127Y-134626465D01*
X115164669Y-134555277D01*
X115939293Y-133780652D01*
X116000614Y-133747169D01*
X116002781Y-133746718D01*
X116021360Y-133743022D01*
X116148082Y-133717816D01*
X116302863Y-133653703D01*
X116442162Y-133560626D01*
X116560626Y-133442162D01*
X116653703Y-133302863D01*
X116717816Y-133148082D01*
X116750500Y-132983767D01*
X116750500Y-132816233D01*
X116717816Y-132651918D01*
X116653703Y-132497137D01*
X116622537Y-132450494D01*
X116560626Y-132357837D01*
X116556761Y-132353128D01*
X116558702Y-132351534D01*
X116530485Y-132299858D01*
X116535469Y-132230166D01*
X116577341Y-132174233D01*
X116642805Y-132149816D01*
X116651651Y-132149500D01*
X119000500Y-132149500D01*
X119067539Y-132169185D01*
X119113294Y-132221989D01*
X119124500Y-132273500D01*
X119124500Y-132673414D01*
X119122117Y-132697606D01*
X119099500Y-132811306D01*
X119099500Y-132988695D01*
X119134103Y-133162658D01*
X119134106Y-133162667D01*
X119201983Y-133326540D01*
X119201990Y-133326553D01*
X119300535Y-133474034D01*
X119300538Y-133474038D01*
X119425961Y-133599461D01*
X119425965Y-133599464D01*
X119573446Y-133698009D01*
X119573459Y-133698016D01*
X119692127Y-133747169D01*
X119737334Y-133765894D01*
X119737336Y-133765894D01*
X119737341Y-133765896D01*
X119911304Y-133800499D01*
X119911307Y-133800500D01*
X119911309Y-133800500D01*
X120088693Y-133800500D01*
X120088694Y-133800499D01*
X120146682Y-133788964D01*
X120262658Y-133765896D01*
X120262661Y-133765894D01*
X120262666Y-133765894D01*
X120426547Y-133698013D01*
X120574035Y-133599464D01*
X120699464Y-133474035D01*
X120798013Y-133326547D01*
X120865894Y-133162666D01*
X120877126Y-133106202D01*
X120900499Y-132988695D01*
X120900500Y-132988693D01*
X120900500Y-132811306D01*
X120877883Y-132697606D01*
X120875500Y-132673414D01*
X120875500Y-132273500D01*
X120895185Y-132206461D01*
X120947989Y-132160706D01*
X120999500Y-132149500D01*
X122112231Y-132149500D01*
X122112232Y-132149499D01*
X122281374Y-132115855D01*
X122439155Y-132050500D01*
X122440698Y-132049861D01*
X122440698Y-132049860D01*
X122440705Y-132049858D01*
X122584099Y-131954045D01*
X123381326Y-131156816D01*
X123442647Y-131123333D01*
X123469005Y-131120499D01*
X123472118Y-131120499D01*
X123472127Y-131120500D01*
X126567872Y-131120499D01*
X126627483Y-131114091D01*
X126682167Y-131093694D01*
X126751858Y-131088711D01*
X126813181Y-131122196D01*
X126846666Y-131183519D01*
X126849500Y-131209877D01*
X126849500Y-135705068D01*
X126829815Y-135772107D01*
X126828602Y-135773959D01*
X126746295Y-135897139D01*
X126682184Y-136051917D01*
X126682182Y-136051925D01*
X126649500Y-136216228D01*
X126649500Y-136383771D01*
X126682182Y-136548074D01*
X126682184Y-136548082D01*
X126746295Y-136702860D01*
X126839373Y-136842162D01*
X126957837Y-136960626D01*
X127024574Y-137005218D01*
X127097137Y-137053703D01*
X127251918Y-137117816D01*
X127261209Y-137119664D01*
X127355039Y-137138328D01*
X127416950Y-137170712D01*
X127451524Y-137231428D01*
X127447785Y-137301197D01*
X127406919Y-137357870D01*
X127357726Y-137380337D01*
X127357750Y-137380415D01*
X127357175Y-137380589D01*
X127355048Y-137381561D01*
X127351922Y-137382183D01*
X127351917Y-137382184D01*
X127197139Y-137446295D01*
X127073959Y-137528602D01*
X127007281Y-137549480D01*
X127005068Y-137549500D01*
X116869808Y-137549500D01*
X116848562Y-137543261D01*
X116826475Y-137541682D01*
X116815691Y-137533609D01*
X116802769Y-137529815D01*
X116788269Y-137513081D01*
X116770542Y-137499811D01*
X116765834Y-137487190D01*
X116757014Y-137477011D01*
X116753862Y-137455094D01*
X116746124Y-137434347D01*
X116748986Y-137421185D01*
X116747070Y-137407853D01*
X116756268Y-137387711D01*
X116760975Y-137366074D01*
X116774245Y-137348347D01*
X116776095Y-137344297D01*
X116782126Y-137337820D01*
X116790660Y-137329286D01*
X116839292Y-137280653D01*
X116900613Y-137247169D01*
X116902781Y-137246718D01*
X116921360Y-137243022D01*
X117048082Y-137217816D01*
X117202863Y-137153703D01*
X117342162Y-137060626D01*
X117460626Y-136942162D01*
X117553703Y-136802863D01*
X117617816Y-136648082D01*
X117650500Y-136483767D01*
X117650500Y-136316233D01*
X117617816Y-136151918D01*
X117553703Y-135997137D01*
X117494081Y-135907906D01*
X117460626Y-135857837D01*
X117342162Y-135739373D01*
X117202860Y-135646295D01*
X117048082Y-135582184D01*
X117048074Y-135582182D01*
X116883771Y-135549500D01*
X116883767Y-135549500D01*
X116716233Y-135549500D01*
X116716228Y-135549500D01*
X116551925Y-135582182D01*
X116551917Y-135582184D01*
X116397139Y-135646295D01*
X116257837Y-135739373D01*
X116139373Y-135857837D01*
X116046295Y-135997139D01*
X115982184Y-136151917D01*
X115982182Y-136151923D01*
X115953281Y-136297219D01*
X115920896Y-136359130D01*
X115919345Y-136360708D01*
X114641658Y-137638395D01*
X114624598Y-137647710D01*
X114610494Y-137661085D01*
X114594564Y-137664109D01*
X114580335Y-137671880D01*
X114560948Y-137670493D01*
X114541851Y-137674120D01*
X114526815Y-137668052D01*
X114510643Y-137666896D01*
X114495083Y-137655247D01*
X114477058Y-137647974D01*
X114462822Y-137631096D01*
X114454710Y-137625024D01*
X114452772Y-137622363D01*
X114445384Y-137611928D01*
X114443796Y-137607669D01*
X114417509Y-137572554D01*
X114416573Y-137571232D01*
X114405751Y-137539683D01*
X114394094Y-137508431D01*
X114394457Y-137506759D01*
X114393903Y-137505143D01*
X114401853Y-137472760D01*
X114408945Y-137440158D01*
X114410421Y-137437860D01*
X114410562Y-137437288D01*
X114411144Y-137436735D01*
X114418512Y-137425271D01*
X114443351Y-137392090D01*
X114493597Y-137257376D01*
X114493598Y-137257372D01*
X114499999Y-137197844D01*
X114500000Y-137197827D01*
X114500000Y-136900000D01*
X112500000Y-136900000D01*
X112500000Y-137197844D01*
X112506401Y-137257372D01*
X112506403Y-137257379D01*
X112556645Y-137392086D01*
X112556646Y-137392088D01*
X112581488Y-137425273D01*
X112588743Y-137444726D01*
X112600364Y-137461927D01*
X112600705Y-137476799D01*
X112605904Y-137490738D01*
X112601491Y-137511022D01*
X112601968Y-137531778D01*
X112592935Y-137550351D01*
X112591052Y-137559011D01*
X112588047Y-137564211D01*
X112584992Y-137569212D01*
X112556204Y-137607669D01*
X112547882Y-137629979D01*
X112541685Y-137640128D01*
X112524265Y-137655936D01*
X112510170Y-137674766D01*
X112498873Y-137678979D01*
X112489945Y-137687082D01*
X112466745Y-137690963D01*
X112444706Y-137699184D01*
X112435858Y-137699500D01*
X112164141Y-137699500D01*
X112097102Y-137679815D01*
X112051347Y-137627011D01*
X112047969Y-137618859D01*
X112043796Y-137607669D01*
X112043793Y-137607665D01*
X112043793Y-137607664D01*
X111957547Y-137492455D01*
X111957544Y-137492452D01*
X111842335Y-137406206D01*
X111842328Y-137406202D01*
X111707482Y-137355908D01*
X111707483Y-137355908D01*
X111647883Y-137349501D01*
X111647881Y-137349500D01*
X111647873Y-137349500D01*
X111647864Y-137349500D01*
X110552129Y-137349500D01*
X110552123Y-137349501D01*
X110492516Y-137355908D01*
X110357671Y-137406202D01*
X110357664Y-137406206D01*
X110242455Y-137492452D01*
X110242452Y-137492455D01*
X110156206Y-137607664D01*
X110156202Y-137607671D01*
X110105908Y-137742517D01*
X110099501Y-137802116D01*
X110099500Y-137802135D01*
X110099500Y-138897870D01*
X110099501Y-138897876D01*
X110105908Y-138957483D01*
X110156202Y-139092328D01*
X110156203Y-139092330D01*
X110181176Y-139125690D01*
X110188418Y-139145109D01*
X110200031Y-139162277D01*
X110200381Y-139177184D01*
X110205592Y-139191155D01*
X110201186Y-139211406D01*
X110201674Y-139232128D01*
X110192630Y-139250738D01*
X110190740Y-139259428D01*
X110187771Y-139264568D01*
X110184699Y-139269604D01*
X110156204Y-139307669D01*
X110147894Y-139329947D01*
X110141722Y-139340068D01*
X110124286Y-139355908D01*
X110110171Y-139374766D01*
X110098907Y-139378967D01*
X110090009Y-139387052D01*
X110066777Y-139390951D01*
X110044707Y-139399184D01*
X110035859Y-139399500D01*
X109361744Y-139399500D01*
X109294705Y-139379815D01*
X109261425Y-139348384D01*
X109191969Y-139252784D01*
X109047213Y-139108028D01*
X108881613Y-138987715D01*
X108881612Y-138987714D01*
X108881610Y-138987713D01*
X108776401Y-138934106D01*
X108699223Y-138894781D01*
X108504534Y-138831522D01*
X108329995Y-138803878D01*
X108302352Y-138799500D01*
X108097648Y-138799500D01*
X108073329Y-138803351D01*
X107895465Y-138831522D01*
X107700776Y-138894781D01*
X107518386Y-138987715D01*
X107352786Y-139108028D01*
X107208028Y-139252786D01*
X107087715Y-139418386D01*
X106994781Y-139600776D01*
X106931522Y-139795465D01*
X106899500Y-139997648D01*
X106899500Y-140202351D01*
X106931522Y-140404534D01*
X106994781Y-140599223D01*
X107046385Y-140700500D01*
X107087488Y-140781169D01*
X107087715Y-140781613D01*
X107208028Y-140947213D01*
X107298634Y-141037819D01*
X107332119Y-141099142D01*
X107327135Y-141168834D01*
X107285263Y-141224767D01*
X107219799Y-141249184D01*
X107210953Y-141249500D01*
X106335929Y-141249500D01*
X106210261Y-141274497D01*
X106210255Y-141274499D01*
X106091870Y-141323535D01*
X105985331Y-141394722D01*
X105985324Y-141394728D01*
X103587190Y-143792862D01*
X103525867Y-143826347D01*
X103480111Y-143827654D01*
X103334611Y-143804609D01*
X103302352Y-143799500D01*
X103097648Y-143799500D01*
X103041652Y-143808369D01*
X102895464Y-143831523D01*
X102895457Y-143831524D01*
X102861817Y-143842455D01*
X102791976Y-143844450D01*
X102732144Y-143808369D01*
X102701316Y-143745668D01*
X102699500Y-143724524D01*
X102699500Y-141571808D01*
X102708144Y-141542367D01*
X102714668Y-141512381D01*
X102718422Y-141507365D01*
X102719185Y-141504769D01*
X102735819Y-141484127D01*
X102812809Y-141407137D01*
X102874132Y-141373652D01*
X102919887Y-141372345D01*
X103097648Y-141400500D01*
X103097649Y-141400500D01*
X103302351Y-141400500D01*
X103302352Y-141400500D01*
X103504534Y-141368477D01*
X103699219Y-141305220D01*
X103881610Y-141212287D01*
X104013240Y-141116653D01*
X104047213Y-141091971D01*
X104047215Y-141091968D01*
X104047219Y-141091966D01*
X104191966Y-140947219D01*
X104191968Y-140947215D01*
X104191971Y-140947213D01*
X104244732Y-140874590D01*
X104312287Y-140781610D01*
X104405220Y-140599219D01*
X104468477Y-140404534D01*
X104500500Y-140202352D01*
X104500500Y-139997648D01*
X104468477Y-139795466D01*
X104405220Y-139600781D01*
X104405218Y-139600778D01*
X104405218Y-139600776D01*
X104354954Y-139502129D01*
X104312287Y-139418390D01*
X104292352Y-139390951D01*
X104191971Y-139252786D01*
X104047213Y-139108028D01*
X103881613Y-138987715D01*
X103881612Y-138987714D01*
X103881610Y-138987713D01*
X103776401Y-138934106D01*
X103699223Y-138894781D01*
X103504534Y-138831522D01*
X103329995Y-138803878D01*
X103302352Y-138799500D01*
X103097648Y-138799500D01*
X103073329Y-138803351D01*
X102895465Y-138831522D01*
X102700776Y-138894781D01*
X102518386Y-138987715D01*
X102348839Y-139110897D01*
X102347735Y-139109378D01*
X102291278Y-139134681D01*
X102222192Y-139124248D01*
X102169713Y-139078121D01*
X102150500Y-139011821D01*
X102150500Y-137820807D01*
X102170185Y-137753768D01*
X102186815Y-137733130D01*
X102812809Y-137107135D01*
X102874130Y-137073652D01*
X102919886Y-137072345D01*
X102965402Y-137079554D01*
X103097648Y-137100500D01*
X103097649Y-137100500D01*
X103302351Y-137100500D01*
X103302352Y-137100500D01*
X103504534Y-137068477D01*
X103699219Y-137005220D01*
X103881610Y-136912287D01*
X103978130Y-136842162D01*
X104047213Y-136791971D01*
X104047215Y-136791968D01*
X104047219Y-136791966D01*
X104191966Y-136647219D01*
X104191968Y-136647215D01*
X104191971Y-136647213D01*
X104244732Y-136574590D01*
X104312287Y-136481610D01*
X104405220Y-136299219D01*
X104468477Y-136104534D01*
X104500500Y-135902352D01*
X104500500Y-135697648D01*
X104468477Y-135495466D01*
X104405220Y-135300781D01*
X104405218Y-135300778D01*
X104405218Y-135300776D01*
X104354954Y-135202129D01*
X104312287Y-135118390D01*
X104266892Y-135055908D01*
X104191971Y-134952786D01*
X104047213Y-134808028D01*
X103881613Y-134687715D01*
X103881612Y-134687714D01*
X103881610Y-134687713D01*
X103822280Y-134657483D01*
X103699223Y-134594781D01*
X103504534Y-134531522D01*
X103329995Y-134503878D01*
X103302352Y-134499500D01*
X103097648Y-134499500D01*
X103073329Y-134503351D01*
X102895465Y-134531522D01*
X102700776Y-134594781D01*
X102518386Y-134687715D01*
X102352786Y-134808028D01*
X102208028Y-134952786D01*
X102087715Y-135118386D01*
X101994781Y-135300776D01*
X101931522Y-135495465D01*
X101899500Y-135697648D01*
X101899500Y-135902351D01*
X101927654Y-136080111D01*
X101918699Y-136149405D01*
X101892862Y-136187190D01*
X101212181Y-136867872D01*
X101150858Y-136901357D01*
X101081167Y-136896373D01*
X101025233Y-136854502D01*
X101000816Y-136789037D01*
X101000500Y-136780191D01*
X101000500Y-110874500D01*
X101020185Y-110807461D01*
X101072989Y-110761706D01*
X101124500Y-110750500D01*
X108311994Y-110750500D01*
X108379033Y-110770185D01*
G37*
%TD.AperFunction*%
%TA.AperFunction,Conductor*%
G36*
X117898833Y-127143625D02*
G01*
X117954767Y-127185497D01*
X117979184Y-127250961D01*
X117979500Y-127259807D01*
X117979500Y-128127870D01*
X117979501Y-128127876D01*
X117985908Y-128187483D01*
X118036202Y-128322328D01*
X118036206Y-128322335D01*
X118122452Y-128437544D01*
X118122455Y-128437547D01*
X118237664Y-128523793D01*
X118237671Y-128523797D01*
X118372517Y-128574091D01*
X118372516Y-128574091D01*
X118379444Y-128574835D01*
X118432127Y-128580500D01*
X121527872Y-128580499D01*
X121587483Y-128574091D01*
X121711607Y-128527795D01*
X121781296Y-128522812D01*
X121842619Y-128556297D01*
X121876104Y-128617620D01*
X121876555Y-128619786D01*
X121882182Y-128648076D01*
X121882184Y-128648082D01*
X121946295Y-128802860D01*
X122039373Y-128942162D01*
X122157837Y-129060626D01*
X122194811Y-129085331D01*
X122297137Y-129153703D01*
X122451918Y-129217816D01*
X122551454Y-129237614D01*
X122613362Y-129269998D01*
X122647937Y-129330713D01*
X122644198Y-129400483D01*
X122614942Y-129446912D01*
X122191681Y-129870174D01*
X122130358Y-129903659D01*
X122060667Y-129898675D01*
X122004733Y-129856804D01*
X121980316Y-129791339D01*
X121980000Y-129782493D01*
X121980000Y-129572172D01*
X121979999Y-129572155D01*
X121973598Y-129512627D01*
X121973596Y-129512620D01*
X121923354Y-129377913D01*
X121923350Y-129377906D01*
X121837190Y-129262812D01*
X121837187Y-129262809D01*
X121722093Y-129176649D01*
X121722086Y-129176645D01*
X121587379Y-129126403D01*
X121587372Y-129126401D01*
X121527844Y-129120000D01*
X120230000Y-129120000D01*
X120230000Y-129996000D01*
X120210315Y-130063039D01*
X120157511Y-130108794D01*
X120106000Y-130120000D01*
X119980000Y-130120000D01*
X119980000Y-130246000D01*
X119960315Y-130313039D01*
X119907511Y-130358794D01*
X119856000Y-130370000D01*
X117973500Y-130370000D01*
X117926496Y-130395666D01*
X117900138Y-130398500D01*
X111757152Y-130398500D01*
X111690113Y-130378815D01*
X111646667Y-130330794D01*
X111633671Y-130305287D01*
X111590596Y-130246000D01*
X111511035Y-130136495D01*
X111363505Y-129988965D01*
X111194714Y-129866330D01*
X111150500Y-129843802D01*
X111008820Y-129771612D01*
X110810389Y-129707137D01*
X110710546Y-129691324D01*
X110604324Y-129674500D01*
X110604319Y-129674500D01*
X110395681Y-129674500D01*
X110395676Y-129674500D01*
X110189610Y-129707137D01*
X109991179Y-129771612D01*
X109805285Y-129866330D01*
X109636493Y-129988966D01*
X109488966Y-130136493D01*
X109366330Y-130305286D01*
X109360484Y-130316759D01*
X109312508Y-130367554D01*
X109244687Y-130384348D01*
X109178553Y-130361809D01*
X109139516Y-130316759D01*
X109137620Y-130313039D01*
X109133670Y-130305286D01*
X109011035Y-130136495D01*
X108863505Y-129988965D01*
X108730446Y-129892291D01*
X108687782Y-129836961D01*
X108681803Y-129767348D01*
X108714409Y-129705553D01*
X108715578Y-129704367D01*
X108847790Y-129572155D01*
X117980000Y-129572155D01*
X117980000Y-129870000D01*
X119730000Y-129870000D01*
X119730000Y-129120000D01*
X118432155Y-129120000D01*
X118372627Y-129126401D01*
X118372620Y-129126403D01*
X118237913Y-129176645D01*
X118237906Y-129176649D01*
X118122812Y-129262809D01*
X118122809Y-129262812D01*
X118036649Y-129377906D01*
X118036645Y-129377913D01*
X117986403Y-129512620D01*
X117986401Y-129512627D01*
X117980000Y-129572155D01*
X108847790Y-129572155D01*
X109333127Y-129086819D01*
X109394450Y-129053334D01*
X109420808Y-129050500D01*
X115684071Y-129050500D01*
X115786513Y-129030122D01*
X115809744Y-129025501D01*
X115928127Y-128976465D01*
X115975959Y-128944505D01*
X116034669Y-128905277D01*
X117767821Y-127172124D01*
X117829142Y-127138641D01*
X117898833Y-127143625D01*
G37*
%TD.AperFunction*%
%TA.AperFunction,Conductor*%
G36*
X125453033Y-112195185D02*
G01*
X125473675Y-112211819D01*
X127094943Y-113833087D01*
X127099812Y-113842005D01*
X127107841Y-113848242D01*
X127116277Y-113872158D01*
X127128428Y-113894410D01*
X127127703Y-113904547D01*
X127131084Y-113914132D01*
X127125253Y-113938806D01*
X127123444Y-113964102D01*
X127117352Y-113972239D01*
X127115015Y-113982129D01*
X127096768Y-113999735D01*
X127081572Y-114020035D01*
X127070711Y-114024878D01*
X127064736Y-114030644D01*
X127031454Y-114042385D01*
X126995415Y-114049553D01*
X126984710Y-114051683D01*
X126915118Y-114045454D01*
X126885793Y-114026235D01*
X126884646Y-114027769D01*
X126847197Y-113999735D01*
X126762331Y-113936204D01*
X126762329Y-113936203D01*
X126762328Y-113936202D01*
X126627482Y-113885908D01*
X126627483Y-113885908D01*
X126567883Y-113879501D01*
X126567881Y-113879500D01*
X126567873Y-113879500D01*
X126567864Y-113879500D01*
X123472129Y-113879500D01*
X123472123Y-113879501D01*
X123412516Y-113885908D01*
X123277671Y-113936202D01*
X123277664Y-113936206D01*
X123162455Y-114022452D01*
X123162452Y-114022455D01*
X123076206Y-114137664D01*
X123076202Y-114137671D01*
X123025908Y-114272517D01*
X123019501Y-114332116D01*
X123019500Y-114332135D01*
X123019500Y-114708227D01*
X122999815Y-114775266D01*
X122947011Y-114821021D01*
X122877853Y-114830965D01*
X122814297Y-114801940D01*
X122776523Y-114743162D01*
X122773885Y-114732429D01*
X122767816Y-114701918D01*
X122703703Y-114547137D01*
X122672537Y-114500494D01*
X122610626Y-114407837D01*
X122492162Y-114289373D01*
X122352860Y-114196295D01*
X122198082Y-114132184D01*
X122198074Y-114132182D01*
X122033771Y-114099500D01*
X122033767Y-114099500D01*
X121957292Y-114099500D01*
X121890253Y-114079815D01*
X121858025Y-114049810D01*
X121837550Y-114022458D01*
X121837547Y-114022455D01*
X121837546Y-114022454D01*
X121834315Y-114020035D01*
X121722335Y-113936206D01*
X121722328Y-113936202D01*
X121587482Y-113885908D01*
X121587483Y-113885908D01*
X121527883Y-113879501D01*
X121527881Y-113879500D01*
X121527873Y-113879500D01*
X121527864Y-113879500D01*
X118432129Y-113879500D01*
X118432123Y-113879501D01*
X118372516Y-113885908D01*
X118237671Y-113936202D01*
X118237664Y-113936206D01*
X118122455Y-114022452D01*
X118122452Y-114022455D01*
X118036206Y-114137664D01*
X118036202Y-114137671D01*
X117985908Y-114272517D01*
X117979501Y-114332116D01*
X117979500Y-114332135D01*
X117979500Y-115427870D01*
X117979501Y-115427876D01*
X117985908Y-115487483D01*
X118036202Y-115622328D01*
X118036206Y-115622335D01*
X118122452Y-115737544D01*
X118122455Y-115737547D01*
X118237664Y-115823793D01*
X118237671Y-115823797D01*
X118372517Y-115874091D01*
X118372516Y-115874091D01*
X118379444Y-115874835D01*
X118432127Y-115880500D01*
X121527872Y-115880499D01*
X121587483Y-115874091D01*
X121722331Y-115823796D01*
X121732857Y-115815915D01*
X121798317Y-115791496D01*
X121831356Y-115793562D01*
X121866233Y-115800500D01*
X121866234Y-115800500D01*
X122033768Y-115800500D01*
X122033769Y-115800499D01*
X122198082Y-115767816D01*
X122352863Y-115703703D01*
X122492162Y-115610626D01*
X122610626Y-115492162D01*
X122703703Y-115352863D01*
X122767816Y-115198082D01*
X122773883Y-115167579D01*
X122806266Y-115105670D01*
X122866980Y-115071094D01*
X122936750Y-115074832D01*
X122993423Y-115115697D01*
X123019006Y-115180715D01*
X123019500Y-115191769D01*
X123019500Y-115427869D01*
X123019501Y-115427876D01*
X123025908Y-115487483D01*
X123076202Y-115622328D01*
X123076206Y-115622335D01*
X123162452Y-115737544D01*
X123162455Y-115737547D01*
X123277664Y-115823793D01*
X123277671Y-115823797D01*
X123412517Y-115874091D01*
X123412516Y-115874091D01*
X123419444Y-115874835D01*
X123472127Y-115880500D01*
X126567872Y-115880499D01*
X126627483Y-115874091D01*
X126762331Y-115823796D01*
X126877546Y-115737546D01*
X126877546Y-115737545D01*
X126884646Y-115732231D01*
X126886549Y-115734773D01*
X126934123Y-115708776D01*
X126984710Y-115708317D01*
X127096231Y-115730499D01*
X127096232Y-115730500D01*
X127200500Y-115730500D01*
X127267539Y-115750185D01*
X127313294Y-115802989D01*
X127324500Y-115854500D01*
X127324500Y-121185994D01*
X127304815Y-121253033D01*
X127288181Y-121273675D01*
X126977459Y-121584396D01*
X126916136Y-121617881D01*
X126846444Y-121612897D01*
X126815467Y-121595981D01*
X126762335Y-121556206D01*
X126762328Y-121556202D01*
X126627482Y-121505908D01*
X126627483Y-121505908D01*
X126567883Y-121499501D01*
X126567881Y-121499500D01*
X126567873Y-121499500D01*
X126567864Y-121499500D01*
X123472129Y-121499500D01*
X123472123Y-121499501D01*
X123412512Y-121505909D01*
X123404969Y-121507692D01*
X123404307Y-121504893D01*
X123348139Y-121508910D01*
X123286816Y-121475423D01*
X123253333Y-121414099D01*
X123250500Y-121387744D01*
X123250500Y-121072255D01*
X123270185Y-121005216D01*
X123322989Y-120959461D01*
X123392147Y-120949517D01*
X123404856Y-120952764D01*
X123404965Y-120952307D01*
X123412516Y-120954091D01*
X123419444Y-120954835D01*
X123472127Y-120960500D01*
X126567872Y-120960499D01*
X126627483Y-120954091D01*
X126762331Y-120903796D01*
X126877546Y-120817546D01*
X126963796Y-120702331D01*
X127014091Y-120567483D01*
X127020500Y-120507873D01*
X127020499Y-119412128D01*
X127014091Y-119352517D01*
X127010591Y-119343134D01*
X126963797Y-119217671D01*
X126963793Y-119217664D01*
X126877547Y-119102455D01*
X126877544Y-119102452D01*
X126762335Y-119016206D01*
X126762328Y-119016202D01*
X126627482Y-118965908D01*
X126627483Y-118965908D01*
X126567883Y-118959501D01*
X126567881Y-118959500D01*
X126567873Y-118959500D01*
X126567864Y-118959500D01*
X123472129Y-118959500D01*
X123472123Y-118959501D01*
X123412516Y-118965908D01*
X123277671Y-119016202D01*
X123277664Y-119016206D01*
X123162455Y-119102452D01*
X123162452Y-119102455D01*
X123076205Y-119217665D01*
X123076204Y-119217666D01*
X123048269Y-119292564D01*
X123006398Y-119348497D01*
X122979541Y-119363790D01*
X122931874Y-119383533D01*
X122825326Y-119454726D01*
X122825325Y-119454727D01*
X122192180Y-120087873D01*
X122130857Y-120121358D01*
X122061165Y-120116374D01*
X122005232Y-120074502D01*
X121980815Y-120009038D01*
X121980499Y-120000192D01*
X121980499Y-119412129D01*
X121980498Y-119412123D01*
X121980497Y-119412116D01*
X121974091Y-119352517D01*
X121970591Y-119343134D01*
X121923797Y-119217671D01*
X121923793Y-119217664D01*
X121837547Y-119102455D01*
X121837544Y-119102452D01*
X121722335Y-119016206D01*
X121722328Y-119016202D01*
X121587482Y-118965908D01*
X121587483Y-118965908D01*
X121527883Y-118959501D01*
X121527881Y-118959500D01*
X121527873Y-118959500D01*
X121527864Y-118959500D01*
X118432129Y-118959500D01*
X118432123Y-118959501D01*
X118372516Y-118965908D01*
X118237671Y-119016202D01*
X118237664Y-119016206D01*
X118122455Y-119102452D01*
X118122452Y-119102455D01*
X118036206Y-119217664D01*
X118036202Y-119217671D01*
X117985908Y-119352517D01*
X117982719Y-119382184D01*
X117979501Y-119412123D01*
X117979500Y-119412135D01*
X117979500Y-119425500D01*
X117959815Y-119492539D01*
X117907011Y-119538294D01*
X117855500Y-119549500D01*
X110194932Y-119549500D01*
X110127893Y-119529815D01*
X110126041Y-119528602D01*
X110002860Y-119446295D01*
X109848082Y-119382184D01*
X109848074Y-119382182D01*
X109683771Y-119349500D01*
X109683767Y-119349500D01*
X109516233Y-119349500D01*
X109516228Y-119349500D01*
X109351925Y-119382182D01*
X109351917Y-119382184D01*
X109197139Y-119446295D01*
X109057837Y-119539373D01*
X108939373Y-119657837D01*
X108846295Y-119797139D01*
X108782184Y-119951917D01*
X108782182Y-119951925D01*
X108749500Y-120116228D01*
X108749500Y-120283771D01*
X108782182Y-120448074D01*
X108782184Y-120448082D01*
X108846295Y-120602860D01*
X108939373Y-120742162D01*
X109057837Y-120860626D01*
X109149735Y-120922030D01*
X109197137Y-120953703D01*
X109197138Y-120953703D01*
X109197139Y-120953704D01*
X109211038Y-120959461D01*
X109351918Y-121017816D01*
X109516228Y-121050499D01*
X109516232Y-121050500D01*
X109516233Y-121050500D01*
X109683768Y-121050500D01*
X109683769Y-121050499D01*
X109848082Y-121017816D01*
X110002863Y-120953703D01*
X110126041Y-120871398D01*
X110192719Y-120850520D01*
X110194932Y-120850500D01*
X118125203Y-120850500D01*
X118192242Y-120870185D01*
X118199514Y-120875233D01*
X118237669Y-120903796D01*
X118237671Y-120903797D01*
X118372517Y-120954091D01*
X118372516Y-120954091D01*
X118379444Y-120954835D01*
X118432127Y-120960500D01*
X121527872Y-120960499D01*
X121587483Y-120954091D01*
X121722331Y-120903796D01*
X121751190Y-120882191D01*
X121816651Y-120857775D01*
X121884925Y-120872626D01*
X121934331Y-120922030D01*
X121949500Y-120981459D01*
X121949500Y-121478540D01*
X121929815Y-121545579D01*
X121877011Y-121591334D01*
X121807853Y-121601278D01*
X121751189Y-121577807D01*
X121722331Y-121556204D01*
X121722328Y-121556202D01*
X121587482Y-121505908D01*
X121587483Y-121505908D01*
X121527883Y-121499501D01*
X121527881Y-121499500D01*
X121527873Y-121499500D01*
X121527864Y-121499500D01*
X118432129Y-121499500D01*
X118432123Y-121499501D01*
X118372516Y-121505908D01*
X118237671Y-121556202D01*
X118237664Y-121556206D01*
X118122455Y-121642452D01*
X118122452Y-121642455D01*
X118036205Y-121757665D01*
X118036204Y-121757667D01*
X118031408Y-121770526D01*
X117989534Y-121826458D01*
X117939420Y-121848805D01*
X117810261Y-121874497D01*
X117810255Y-121874499D01*
X117691870Y-121923535D01*
X117585331Y-121994722D01*
X117585324Y-121994728D01*
X115860708Y-123719345D01*
X115799385Y-123752830D01*
X115797219Y-123753281D01*
X115651923Y-123782182D01*
X115651917Y-123782184D01*
X115497139Y-123846295D01*
X115357837Y-123939373D01*
X115239373Y-124057837D01*
X115146295Y-124197139D01*
X115082184Y-124351917D01*
X115082182Y-124351925D01*
X115049500Y-124516228D01*
X115049500Y-124683771D01*
X115082182Y-124848074D01*
X115082184Y-124848082D01*
X115146295Y-125002860D01*
X115239373Y-125142162D01*
X115357837Y-125260626D01*
X115437375Y-125313771D01*
X115497137Y-125353703D01*
X115651918Y-125417816D01*
X115816228Y-125450499D01*
X115816232Y-125450500D01*
X115830191Y-125450500D01*
X115897230Y-125470185D01*
X115942985Y-125522989D01*
X115952929Y-125592147D01*
X115923904Y-125655703D01*
X115917872Y-125662181D01*
X115366873Y-126213181D01*
X115305550Y-126246666D01*
X115279192Y-126249500D01*
X114323497Y-126249500D01*
X114256458Y-126229815D01*
X114210703Y-126177011D01*
X114200759Y-126107853D01*
X114229784Y-126044297D01*
X114280165Y-126009318D01*
X114300326Y-126001798D01*
X114300326Y-126001797D01*
X114300331Y-126001796D01*
X114415546Y-125915546D01*
X114501796Y-125800331D01*
X114552091Y-125665483D01*
X114558500Y-125605873D01*
X114558499Y-122394128D01*
X114552091Y-122334517D01*
X114550093Y-122329161D01*
X114501797Y-122199671D01*
X114501793Y-122199664D01*
X114415547Y-122084455D01*
X114415544Y-122084452D01*
X114300335Y-121998206D01*
X114300328Y-121998202D01*
X114165482Y-121947908D01*
X114165483Y-121947908D01*
X114105883Y-121941501D01*
X114105881Y-121941500D01*
X114105873Y-121941500D01*
X114105864Y-121941500D01*
X110894129Y-121941500D01*
X110894123Y-121941501D01*
X110834516Y-121947908D01*
X110699671Y-121998202D01*
X110699664Y-121998206D01*
X110584455Y-122084452D01*
X110584452Y-122084455D01*
X110498206Y-122199664D01*
X110498202Y-122199671D01*
X110447908Y-122334517D01*
X110441501Y-122394116D01*
X110441501Y-122394123D01*
X110441500Y-122394135D01*
X110441500Y-125605870D01*
X110441501Y-125605876D01*
X110447908Y-125665483D01*
X110498202Y-125800328D01*
X110498206Y-125800335D01*
X110584452Y-125915544D01*
X110584455Y-125915547D01*
X110699664Y-126001793D01*
X110699673Y-126001798D01*
X110719835Y-126009318D01*
X110775769Y-126051188D01*
X110800187Y-126116653D01*
X110785336Y-126184926D01*
X110735931Y-126234332D01*
X110676503Y-126249500D01*
X107388007Y-126249500D01*
X107320968Y-126229815D01*
X107275213Y-126177011D01*
X107265269Y-126107853D01*
X107294294Y-126044297D01*
X107300326Y-126037819D01*
X107380042Y-125958102D01*
X107380045Y-125958099D01*
X107475858Y-125814705D01*
X107541855Y-125655374D01*
X107575500Y-125486229D01*
X107575500Y-125313771D01*
X107575500Y-117336228D01*
X117029500Y-117336228D01*
X117029500Y-117503771D01*
X117062182Y-117668074D01*
X117062184Y-117668082D01*
X117126295Y-117822860D01*
X117219373Y-117962162D01*
X117337837Y-118080626D01*
X117430494Y-118142537D01*
X117477137Y-118173703D01*
X117631918Y-118237816D01*
X117749740Y-118261252D01*
X117796228Y-118270499D01*
X117796232Y-118270500D01*
X117796233Y-118270500D01*
X117963769Y-118270500D01*
X118027468Y-118257829D01*
X118097059Y-118264056D01*
X118125971Y-118280179D01*
X118237669Y-118363796D01*
X118237670Y-118363796D01*
X118237671Y-118363797D01*
X118372517Y-118414091D01*
X118372516Y-118414091D01*
X118379444Y-118414835D01*
X118432127Y-118420500D01*
X121527872Y-118420499D01*
X121587483Y-118414091D01*
X121722331Y-118363796D01*
X121837546Y-118277546D01*
X121923796Y-118162331D01*
X121974091Y-118027483D01*
X121980500Y-117967873D01*
X121980499Y-117756276D01*
X122000183Y-117689239D01*
X122052987Y-117643484D01*
X122122145Y-117633540D01*
X122185701Y-117662565D01*
X122219060Y-117708825D01*
X122266295Y-117822860D01*
X122359373Y-117962162D01*
X122477837Y-118080626D01*
X122570494Y-118142537D01*
X122617137Y-118173703D01*
X122771918Y-118237816D01*
X122889740Y-118261252D01*
X122936228Y-118270499D01*
X122936232Y-118270500D01*
X123109859Y-118270500D01*
X123109859Y-118272924D01*
X123167998Y-118283927D01*
X123185854Y-118295063D01*
X123277665Y-118363793D01*
X123277668Y-118363795D01*
X123277671Y-118363797D01*
X123412517Y-118414091D01*
X123412516Y-118414091D01*
X123419444Y-118414835D01*
X123472127Y-118420500D01*
X126567872Y-118420499D01*
X126627483Y-118414091D01*
X126762331Y-118363796D01*
X126877546Y-118277546D01*
X126963796Y-118162331D01*
X127014091Y-118027483D01*
X127020500Y-117967873D01*
X127020499Y-116872128D01*
X127014091Y-116812517D01*
X126963796Y-116677669D01*
X126963795Y-116677668D01*
X126963793Y-116677664D01*
X126877547Y-116562455D01*
X126877544Y-116562452D01*
X126762335Y-116476206D01*
X126762328Y-116476202D01*
X126627482Y-116425908D01*
X126627483Y-116425908D01*
X126567883Y-116419501D01*
X126567881Y-116419500D01*
X126567873Y-116419500D01*
X126567864Y-116419500D01*
X123472129Y-116419500D01*
X123472123Y-116419501D01*
X123412516Y-116425908D01*
X123277671Y-116476202D01*
X123277669Y-116476204D01*
X123185859Y-116544933D01*
X123120395Y-116569350D01*
X123109859Y-116569209D01*
X123109859Y-116569500D01*
X122936228Y-116569500D01*
X122771925Y-116602182D01*
X122771917Y-116602184D01*
X122617139Y-116666295D01*
X122477837Y-116759373D01*
X122359373Y-116877837D01*
X122266295Y-117017139D01*
X122219060Y-117131175D01*
X122175218Y-117185579D01*
X122108924Y-117207643D01*
X122041225Y-117190363D01*
X121993615Y-117139226D01*
X121980499Y-117083722D01*
X121980499Y-116872129D01*
X121980498Y-116872123D01*
X121974091Y-116812516D01*
X121923797Y-116677671D01*
X121923793Y-116677664D01*
X121837547Y-116562455D01*
X121837544Y-116562452D01*
X121722335Y-116476206D01*
X121722328Y-116476202D01*
X121587482Y-116425908D01*
X121587483Y-116425908D01*
X121527883Y-116419501D01*
X121527881Y-116419500D01*
X121527873Y-116419500D01*
X121527864Y-116419500D01*
X118432129Y-116419500D01*
X118432123Y-116419501D01*
X118372516Y-116425908D01*
X118237671Y-116476202D01*
X118237668Y-116476204D01*
X118125972Y-116559820D01*
X118060508Y-116584237D01*
X118027471Y-116582171D01*
X117992521Y-116575219D01*
X117963767Y-116569500D01*
X117796233Y-116569500D01*
X117796228Y-116569500D01*
X117631925Y-116602182D01*
X117631917Y-116602184D01*
X117477139Y-116666295D01*
X117337837Y-116759373D01*
X117219373Y-116877837D01*
X117126295Y-117017139D01*
X117062184Y-117171917D01*
X117062182Y-117171925D01*
X117029500Y-117336228D01*
X107575500Y-117336228D01*
X107575500Y-114314006D01*
X107595185Y-114246967D01*
X107611819Y-114226325D01*
X107944745Y-113893399D01*
X113645500Y-113893399D01*
X113645500Y-114106600D01*
X113678853Y-114317180D01*
X113678853Y-114317183D01*
X113744734Y-114519944D01*
X113744736Y-114519947D01*
X113841528Y-114709913D01*
X113966846Y-114882397D01*
X114117603Y-115033154D01*
X114290087Y-115158472D01*
X114480053Y-115255264D01*
X114480055Y-115255265D01*
X114669182Y-115316715D01*
X114682821Y-115321147D01*
X114893399Y-115354500D01*
X114893400Y-115354500D01*
X115106600Y-115354500D01*
X115106601Y-115354500D01*
X115317179Y-115321147D01*
X115317182Y-115321146D01*
X115317183Y-115321146D01*
X115519944Y-115255265D01*
X115519944Y-115255264D01*
X115519947Y-115255264D01*
X115709913Y-115158472D01*
X115882397Y-115033154D01*
X116033154Y-114882397D01*
X116158472Y-114709913D01*
X116255264Y-114519947D01*
X116321147Y-114317179D01*
X116354500Y-114106601D01*
X116354500Y-113893399D01*
X116321147Y-113682821D01*
X116321146Y-113682817D01*
X116321146Y-113682816D01*
X116255265Y-113480055D01*
X116255263Y-113480052D01*
X116185112Y-113342371D01*
X116158472Y-113290087D01*
X116033154Y-113117603D01*
X115882397Y-112966846D01*
X115709913Y-112841528D01*
X115519947Y-112744736D01*
X115519944Y-112744734D01*
X115317181Y-112678853D01*
X115176793Y-112656617D01*
X115106601Y-112645500D01*
X114893399Y-112645500D01*
X114823206Y-112656617D01*
X114682819Y-112678853D01*
X114682816Y-112678853D01*
X114480055Y-112744734D01*
X114480052Y-112744736D01*
X114290086Y-112841528D01*
X114117601Y-112966847D01*
X113966847Y-113117601D01*
X113841528Y-113290086D01*
X113744736Y-113480052D01*
X113744734Y-113480055D01*
X113678853Y-113682816D01*
X113678853Y-113682819D01*
X113645500Y-113893399D01*
X107944745Y-113893399D01*
X109626325Y-112211819D01*
X109687648Y-112178334D01*
X109714006Y-112175500D01*
X125385994Y-112175500D01*
X125453033Y-112195185D01*
G37*
%TD.AperFunction*%
%TA.AperFunction,Conductor*%
G36*
X128942539Y-110770185D02*
G01*
X128988294Y-110822989D01*
X128999500Y-110874500D01*
X128999500Y-112961993D01*
X128993261Y-112983238D01*
X128991682Y-113005325D01*
X128983609Y-113016108D01*
X128979815Y-113029032D01*
X128963082Y-113043530D01*
X128949812Y-113061259D01*
X128937189Y-113065967D01*
X128927011Y-113074787D01*
X128905095Y-113077938D01*
X128884348Y-113085677D01*
X128871185Y-113082813D01*
X128857853Y-113084731D01*
X128837710Y-113075532D01*
X128816075Y-113070826D01*
X128798345Y-113057555D01*
X128794297Y-113055706D01*
X128787820Y-113049676D01*
X128781674Y-113043530D01*
X128758099Y-113019955D01*
X126700325Y-110962181D01*
X126666840Y-110900858D01*
X126671824Y-110831166D01*
X126713696Y-110775233D01*
X126779160Y-110750816D01*
X126788006Y-110750500D01*
X128875500Y-110750500D01*
X128942539Y-110770185D01*
G37*
%TD.AperFunction*%
%TD*%
M02*
