%TF.GenerationSoftware,KiCad,Pcbnew,9.0.8*%
%TF.CreationDate,2026-04-07T13:52:52-04:00*%
%TF.ProjectId,lichen-stereo-klein-filter-controls,6c696368-656e-42d7-9374-6572656f2d6b,rev?*%
%TF.SameCoordinates,Original*%
%TF.FileFunction,Copper,L1,Top*%
%TF.FilePolarity,Positive*%
%FSLAX46Y46*%
G04 Gerber Fmt 4.6, Leading zero omitted, Abs format (unit mm)*
G04 Created by KiCad (PCBNEW 9.0.8) date 2026-04-07 13:52:52*
%MOMM*%
%LPD*%
G01*
G04 APERTURE LIST*
%TA.AperFunction,ComponentPad*%
%ADD10R,2.000000X2.000000*%
%TD*%
%TA.AperFunction,ComponentPad*%
%ADD11C,2.000000*%
%TD*%
%TA.AperFunction,ComponentPad*%
%ADD12R,2.800000X2.800000*%
%TD*%
%TA.AperFunction,ComponentPad*%
%ADD13R,1.800000X1.800000*%
%TD*%
%TA.AperFunction,ComponentPad*%
%ADD14C,1.800000*%
%TD*%
%TA.AperFunction,ComponentPad*%
%ADD15C,1.600000*%
%TD*%
%TA.AperFunction,ComponentPad*%
%ADD16R,3.116000X3.116000*%
%TD*%
%TA.AperFunction,ComponentPad*%
%ADD17R,1.650000X1.650000*%
%TD*%
%TA.AperFunction,ComponentPad*%
%ADD18C,1.650000*%
%TD*%
%TA.AperFunction,ViaPad*%
%ADD19C,0.700000*%
%TD*%
%TA.AperFunction,ViaPad*%
%ADD20C,0.800000*%
%TD*%
%TA.AperFunction,Conductor*%
%ADD21C,0.300000*%
%TD*%
%TA.AperFunction,Conductor*%
%ADD22C,0.750000*%
%TD*%
%TA.AperFunction,Conductor*%
%ADD23C,1.000000*%
%TD*%
G04 APERTURE END LIST*
D10*
%TO.P,J2,S*%
%TO.N,GND*%
X115000000Y-205270000D03*
D11*
%TO.P,J2,T*%
%TO.N,/SKEW_CV*%
X115000000Y-216670000D03*
%TO.P,J2,TN*%
%TO.N,unconnected-(J2-PadTN)*%
X115000000Y-208370000D03*
%TD*%
D10*
%TO.P,J6,S*%
%TO.N,GND*%
X125000000Y-205270000D03*
D11*
%TO.P,J6,T*%
%TO.N,Net-(J6-PadT)*%
X125000000Y-216670000D03*
%TO.P,J6,TN*%
%TO.N,unconnected-(J6-PadTN)*%
X125000000Y-208370000D03*
%TD*%
D12*
%TO.P,RV7,*%
%TO.N,*%
X117250000Y-142000000D03*
X126750000Y-142000000D03*
D13*
%TO.P,RV7,1,1*%
%TO.N,GND*%
X119500000Y-149500000D03*
D14*
%TO.P,RV7,2,2*%
%TO.N,RESONANCE_ATTEN_R*%
X122000000Y-149500000D03*
%TO.P,RV7,3,3*%
%TO.N,LADDER_OUT_R*%
X124500000Y-149500000D03*
%TO.P,RV7,4,4*%
%TO.N,GND*%
X119500000Y-152000000D03*
%TO.P,RV7,5,5*%
%TO.N,RESONANCE_ATTEN_L*%
X122000000Y-152000000D03*
%TO.P,RV7,6,6*%
%TO.N,LADDER_OUT_L*%
X124500000Y-152000000D03*
%TD*%
D10*
%TO.P,J1,S*%
%TO.N,GND*%
X115000000Y-190270000D03*
D11*
%TO.P,J1,T*%
%TO.N,/CV_IN*%
X115000000Y-201670000D03*
%TO.P,J1,TN*%
%TO.N,unconnected-(J1-PadTN)*%
X115000000Y-193370000D03*
%TD*%
D15*
%TO.P,C12,1*%
%TO.N,AUDIO_OUT_DC_COUPLED_R*%
X103200000Y-149900000D03*
%TO.P,C12,2*%
%TO.N,/AUDIO_OUT_FILTERED_R*%
X108200000Y-149900000D03*
%TD*%
%TO.P,C8,1*%
%TO.N,/IN_R*%
X103200000Y-140100000D03*
%TO.P,C8,2*%
%TO.N,Net-(C8-Pad2)*%
X108200000Y-140100000D03*
%TD*%
D16*
%TO.P,RV4,*%
%TO.N,*%
X117500000Y-180000000D03*
X126500000Y-180000000D03*
D17*
%TO.P,RV4,1,1*%
%TO.N,GND*%
X119500000Y-187000000D03*
D18*
%TO.P,RV4,2,2*%
%TO.N,/SKEW_CV_ATTEN*%
X122000000Y-187000000D03*
%TO.P,RV4,3,3*%
%TO.N,/SKEW_CV*%
X124500000Y-187000000D03*
%TD*%
D16*
%TO.P,RV2,*%
%TO.N,*%
X103500000Y-160000000D03*
X112500000Y-160000000D03*
D17*
%TO.P,RV2,1,1*%
%TO.N,/1V1_INV*%
X105500000Y-167000000D03*
D18*
%TO.P,RV2,2,2*%
%TO.N,Net-(R5-Pad1)*%
X108000000Y-167000000D03*
%TO.P,RV2,3,3*%
%TO.N,/1V1_BUFFERED*%
X110500000Y-167000000D03*
%TD*%
D10*
%TO.P,J3,S*%
%TO.N,GND*%
X125000000Y-190270000D03*
D11*
%TO.P,J3,T*%
%TO.N,Net-(J3-PadT)*%
X125000000Y-201670000D03*
%TO.P,J3,TN*%
%TO.N,unconnected-(J3-PadTN)*%
X125000000Y-193370000D03*
%TD*%
D15*
%TO.P,C5,1*%
%TO.N,AUDIO_OUT_DC_COUPLED_L*%
X103200000Y-145100000D03*
%TO.P,C5,2*%
%TO.N,/AUDIO_OUT_FILTERED_L*%
X108200000Y-145100000D03*
%TD*%
D10*
%TO.P,J4,S*%
%TO.N,GND*%
X105000000Y-190270000D03*
D11*
%TO.P,J4,T*%
%TO.N,/IN_L*%
X105000000Y-201670000D03*
%TO.P,J4,TN*%
%TO.N,unconnected-(J4-PadTN)*%
X105000000Y-193370000D03*
%TD*%
D10*
%TO.P,J5,S*%
%TO.N,GND*%
X105000000Y-205270000D03*
D11*
%TO.P,J5,T*%
%TO.N,/IN_R*%
X105000000Y-216670000D03*
%TO.P,J5,TN*%
%TO.N,/IN_L*%
X105000000Y-208370000D03*
%TD*%
D16*
%TO.P,RV1,*%
%TO.N,*%
X103500000Y-124000000D03*
X112500000Y-124000000D03*
D17*
%TO.P,RV1,1,1*%
%TO.N,Net-(R2-Pad1)*%
X105500000Y-131000000D03*
D18*
%TO.P,RV1,2,2*%
%TO.N,CUTOFF_CV_OFFSET*%
X108000000Y-131000000D03*
%TO.P,RV1,3,3*%
%TO.N,+12V*%
X110500000Y-131000000D03*
%TD*%
D15*
%TO.P,C1,1*%
%TO.N,/IN_L*%
X103200000Y-135800000D03*
%TO.P,C1,2*%
%TO.N,Net-(C1-Pad2)*%
X108200000Y-135800000D03*
%TD*%
D16*
%TO.P,RV3,*%
%TO.N,*%
X103500000Y-180000000D03*
X112500000Y-180000000D03*
D17*
%TO.P,RV3,1,1*%
%TO.N,GND*%
X105500000Y-187000000D03*
D18*
%TO.P,RV3,2,2*%
%TO.N,CUTOFF_CV_IN*%
X108000000Y-187000000D03*
%TO.P,RV3,3,3*%
%TO.N,/CV_IN*%
X110500000Y-187000000D03*
%TD*%
D19*
%TO.N,/IN_L*%
X101500000Y-152700000D03*
%TO.N,AUDIO_OUT_DC_COUPLED_L*%
X127600000Y-138200000D03*
X128200000Y-126100000D03*
%TO.N,/IN_R*%
X102400000Y-152500000D03*
%TO.N,AUDIO_OUT_DC_COUPLED_R*%
X106004074Y-128004074D03*
D20*
%TO.N,GND*%
X122500000Y-201300000D03*
X128200000Y-155500000D03*
X104800000Y-115900000D03*
X114800000Y-117600000D03*
X128150000Y-157450000D03*
X110400000Y-148200000D03*
X121000000Y-154100000D03*
X122050000Y-163050000D03*
X118900000Y-182950000D03*
X112500000Y-135200000D03*
X123400000Y-175200000D03*
X113500000Y-143200000D03*
X116500000Y-176400000D03*
X102800000Y-187100000D03*
X128200000Y-204700000D03*
X109000000Y-117700000D03*
X108850000Y-201300000D03*
X107900000Y-197800000D03*
X110300000Y-113600000D03*
X117700000Y-209400000D03*
X124300000Y-160100000D03*
X102900000Y-117100000D03*
X121400000Y-155800000D03*
X113800000Y-129500000D03*
X118100000Y-215900000D03*
X103100000Y-111800000D03*
X113600000Y-156200000D03*
X104800000Y-120700000D03*
X105100000Y-183100000D03*
X123200000Y-174000000D03*
X127700000Y-215400000D03*
X117950000Y-198250000D03*
X120700000Y-145800000D03*
X111950000Y-132350000D03*
X113900000Y-148400000D03*
X104900000Y-163000000D03*
X118200000Y-146000000D03*
X111700000Y-215400000D03*
X111600000Y-147400000D03*
X104900000Y-214400000D03*
X102300000Y-213800000D03*
X103200000Y-166800000D03*
X112150000Y-195200000D03*
X114800000Y-174600000D03*
X117500000Y-188800000D03*
X109600000Y-153600000D03*
X108800000Y-157000000D03*
X102300000Y-114300000D03*
X109700000Y-137900000D03*
X108100000Y-138000000D03*
X114500000Y-176800000D03*
X119700000Y-112600000D03*
X115600000Y-167530000D03*
X110300000Y-156300000D03*
X112100000Y-188300000D03*
X109500000Y-143000000D03*
X122400000Y-210200000D03*
X109300000Y-125900000D03*
X118200000Y-200900000D03*
X124200000Y-154900000D03*
X101700000Y-119500000D03*
X109900000Y-122800000D03*
D19*
X119500000Y-147100000D03*
D20*
X128300000Y-111700000D03*
X111800000Y-212300000D03*
X104400000Y-175700000D03*
X124300000Y-157350000D03*
X127300000Y-184300000D03*
X115100000Y-182700000D03*
X122200000Y-199200000D03*
X103600000Y-169800000D03*
X125550000Y-132150000D03*
X128000000Y-145000000D03*
X116400000Y-145700000D03*
X108650000Y-182300000D03*
X124000000Y-184000000D03*
X118000000Y-203600000D03*
X123500000Y-112850000D03*
X118700000Y-154500000D03*
X108600000Y-152600000D03*
X123900000Y-181700000D03*
X111100000Y-176600000D03*
X118100000Y-193300000D03*
X121500000Y-216200000D03*
X108400000Y-115900000D03*
X113100000Y-153400000D03*
X121800000Y-176500000D03*
X108600000Y-147500000D03*
X105300000Y-172900000D03*
X124100000Y-133200000D03*
X127300000Y-208500000D03*
X126200000Y-169900000D03*
X128000000Y-212900000D03*
X110400000Y-183300000D03*
X122200000Y-203500000D03*
X108700000Y-188800000D03*
X108800000Y-175700000D03*
X122300000Y-195300000D03*
X108500000Y-216200000D03*
X124170000Y-170070000D03*
X121100000Y-134400000D03*
X124750000Y-161650000D03*
X103600000Y-171400000D03*
X124600000Y-165950000D03*
X127500000Y-176500000D03*
X118300000Y-135000000D03*
X108400000Y-193100000D03*
X111300000Y-174100000D03*
X103600000Y-173400000D03*
X101550000Y-126850000D03*
X117900000Y-128800000D03*
X113500000Y-154500000D03*
X121200000Y-139000000D03*
X121200000Y-137200000D03*
X110800000Y-118800000D03*
X120800000Y-143500000D03*
X104900000Y-112900000D03*
X113700000Y-121400000D03*
X103100000Y-177100000D03*
X118100000Y-195100000D03*
X102050000Y-209650000D03*
X110200000Y-206550000D03*
X118800000Y-176500000D03*
X111500000Y-201500000D03*
X128000000Y-159700000D03*
X109600000Y-203300000D03*
X122300000Y-157500000D03*
X101800000Y-204300000D03*
X109100000Y-133200000D03*
X127400000Y-187200000D03*
X112100000Y-116900000D03*
X127300000Y-194300000D03*
%TO.N,+12V*%
X120000000Y-132900000D03*
X126200000Y-168500000D03*
X120500000Y-139800000D03*
X126200000Y-166600000D03*
%TO.N,-12V*%
X105700000Y-157300000D03*
X103900000Y-129600000D03*
X112400000Y-167600000D03*
X112400000Y-164000000D03*
D19*
%TO.N,/SKEW_CV*%
X119800000Y-189200000D03*
X119800000Y-211800000D03*
%TO.N,Net-(J3-PadT)*%
X116150000Y-148350000D03*
%TO.N,Net-(J6-PadT)*%
X115800000Y-152300000D03*
%TO.N,AUDIO_IN_SCALED_R*%
X117186950Y-124373901D03*
X116800000Y-136400000D03*
%TO.N,AUDIO_IN_SCALED_L*%
X115900000Y-124600000D03*
X115900000Y-132900000D03*
%TO.N,CUTOFF_CV_OFFSET*%
X123020000Y-117420000D03*
X122700000Y-125022000D03*
%TO.N,LADDER_OUT_L*%
X127500000Y-136300000D03*
%TO.N,SKEW_CV_MIXED*%
X117880000Y-117420000D03*
X114200000Y-163300000D03*
%TO.N,RESONANCE_ATTEN_R*%
X121950000Y-114950000D03*
%TO.N,RESONANCE_ATTEN_L*%
X123400000Y-144805025D03*
X127180000Y-114880000D03*
%TO.N,LADDER_OUT_R*%
X122700000Y-128400000D03*
%TO.N,CUTOFF_CV_IN*%
X109600000Y-120200000D03*
%TO.N,Net-(U1D--)*%
X119150000Y-173900000D03*
X119150000Y-167010001D03*
%TO.N,/1V1_BUFFERED*%
X112501000Y-162299000D03*
%TO.N,/SKEW_CV_ATTEN*%
X122000000Y-179700000D03*
%TD*%
D21*
%TO.N,/IN_L*%
X103970000Y-208370000D02*
X105000000Y-208370000D01*
X105000000Y-201670000D02*
X101100000Y-197770000D01*
X105000000Y-201670000D02*
X104230000Y-201670000D01*
X102700000Y-207100000D02*
X103970000Y-208370000D01*
X104230000Y-201670000D02*
X102700000Y-203200000D01*
X102700000Y-203200000D02*
X102700000Y-207100000D01*
X101100000Y-197770000D02*
X101100000Y-153100000D01*
X101100000Y-153100000D02*
X101500000Y-152700000D01*
%TO.N,AUDIO_OUT_DC_COUPLED_L*%
X128200000Y-137600000D02*
X128200000Y-126100000D01*
X127600000Y-138200000D02*
X128200000Y-137600000D01*
%TO.N,/IN_R*%
X101528000Y-154700000D02*
X101528000Y-195828000D01*
X107800000Y-213870000D02*
X105000000Y-216670000D01*
X107800000Y-202100000D02*
X107800000Y-213870000D01*
X102400000Y-152500000D02*
X102400000Y-153828000D01*
X102400000Y-153828000D02*
X101528000Y-154700000D01*
X101528000Y-195828000D02*
X107800000Y-202100000D01*
%TO.N,AUDIO_OUT_DC_COUPLED_R*%
X103100000Y-128300000D02*
X101500000Y-129900000D01*
X101500000Y-129900000D02*
X101500000Y-148200000D01*
X105708148Y-128300000D02*
X103100000Y-128300000D01*
X106004074Y-128004074D02*
X105708148Y-128300000D01*
X101500000Y-148200000D02*
X103200000Y-149900000D01*
D22*
%TO.N,GND*%
X118300000Y-139098000D02*
X119500000Y-140298000D01*
X119500000Y-140298000D02*
X119500000Y-147100000D01*
D23*
X119500000Y-147100000D02*
X119500000Y-149500000D01*
D22*
X118300000Y-135000000D02*
X118300000Y-139098000D01*
X104800000Y-115900000D02*
X108400000Y-115900000D01*
%TO.N,+12V*%
X120000000Y-139300000D02*
X120000000Y-132900000D01*
X126200000Y-168500000D02*
X126200000Y-166600000D01*
X120500000Y-139800000D02*
X120000000Y-139300000D01*
%TO.N,-12V*%
X105700000Y-157300000D02*
X105700000Y-133752000D01*
X112400000Y-167600000D02*
X112400000Y-164000000D01*
X103900000Y-131952000D02*
X103900000Y-129600000D01*
X105700000Y-133752000D02*
X103900000Y-131952000D01*
D21*
%TO.N,/CV_IN*%
X115000000Y-201670000D02*
X110500000Y-197170000D01*
X110500000Y-197170000D02*
X110500000Y-187000000D01*
%TO.N,/SKEW_CV*%
X119800000Y-189200000D02*
X119800000Y-211800000D01*
%TO.N,Net-(J3-PadT)*%
X116150000Y-148350000D02*
X117400000Y-149600000D01*
X117400000Y-149600000D02*
X117400000Y-156500000D01*
X117400000Y-156500000D02*
X128700000Y-167800000D01*
X128700000Y-197970000D02*
X125000000Y-201670000D01*
X128700000Y-167800000D02*
X128700000Y-197970000D01*
%TO.N,Net-(J6-PadT)*%
X115800000Y-152300000D02*
X115800000Y-157600000D01*
X120676000Y-212346000D02*
X125000000Y-216670000D01*
X115800000Y-157600000D02*
X120676000Y-162476000D01*
X120676000Y-162476000D02*
X120676000Y-212346000D01*
%TO.N,AUDIO_IN_SCALED_R*%
X116800000Y-124760851D02*
X116800000Y-136400000D01*
X117186950Y-124373901D02*
X116800000Y-124760851D01*
%TO.N,AUDIO_IN_SCALED_L*%
X115900000Y-132900000D02*
X115900000Y-124600000D01*
%TO.N,CUTOFF_CV_OFFSET*%
X122700000Y-125022000D02*
X122700000Y-117750000D01*
X122700000Y-117750000D02*
X123025000Y-117425000D01*
%TO.N,LADDER_OUT_L*%
X124500000Y-139300000D02*
X124500000Y-145100000D01*
X127500000Y-136300000D02*
X124500000Y-139300000D01*
X124500000Y-145100000D02*
X126900000Y-147500000D01*
X126000000Y-152000000D02*
X124500000Y-152000000D01*
X126900000Y-151100000D02*
X126000000Y-152000000D01*
X126900000Y-147500000D02*
X126900000Y-151100000D01*
%TO.N,SKEW_CV_MIXED*%
X114200000Y-163000000D02*
X115100000Y-162100000D01*
X115100000Y-162100000D02*
X115100000Y-120200000D01*
X115100000Y-120200000D02*
X117880000Y-117420000D01*
X114200000Y-163300000D02*
X114200000Y-163000000D01*
%TO.N,RESONANCE_ATTEN_R*%
X122000000Y-115000000D02*
X122000000Y-149500000D01*
%TO.N,RESONANCE_ATTEN_L*%
X127500000Y-131900000D02*
X123400000Y-136000000D01*
X127180000Y-114880000D02*
X127500000Y-115200000D01*
X123400000Y-136000000D02*
X123400000Y-144805025D01*
X127500000Y-115200000D02*
X127500000Y-131900000D01*
%TO.N,LADDER_OUT_R*%
X122700000Y-145200000D02*
X124500000Y-147000000D01*
X124500000Y-147000000D02*
X124500000Y-149500000D01*
X122700000Y-128400000D02*
X122700000Y-145200000D01*
%TO.N,CUTOFF_CV_IN*%
X106800000Y-123000000D02*
X106800000Y-185800000D01*
X106800000Y-185800000D02*
X108000000Y-187000000D01*
X109600000Y-120200000D02*
X106800000Y-123000000D01*
%TO.N,Net-(U1D--)*%
X119150000Y-173900000D02*
X119150000Y-167010001D01*
%TO.N,/1V1_BUFFERED*%
X110500000Y-164300000D02*
X110500000Y-167000000D01*
X112501000Y-162299000D02*
X110500000Y-164300000D01*
%TO.N,/SKEW_CV_ATTEN*%
X122000000Y-179700000D02*
X122000000Y-187000000D01*
%TD*%
%TA.AperFunction,Conductor*%
%TO.N,GND*%
G36*
X101205703Y-198796095D02*
G01*
X101212181Y-198802127D01*
X103529859Y-201119805D01*
X103534455Y-201128222D01*
X103542083Y-201134036D01*
X103550927Y-201158389D01*
X103563344Y-201181128D01*
X103562840Y-201191190D01*
X103565934Y-201199708D01*
X103563112Y-201234889D01*
X103561856Y-201240428D01*
X103536447Y-201318632D01*
X103518594Y-201431350D01*
X103517691Y-201435336D01*
X103501654Y-201464405D01*
X103489300Y-201490466D01*
X103486219Y-201492383D01*
X103484438Y-201495614D01*
X102194726Y-202785326D01*
X102123534Y-202891874D01*
X102074499Y-203010255D01*
X102074497Y-203010261D01*
X102049500Y-203135928D01*
X102049500Y-203135931D01*
X102049500Y-207164069D01*
X102049500Y-207164071D01*
X102049499Y-207164071D01*
X102074497Y-207289738D01*
X102074499Y-207289744D01*
X102123534Y-207408125D01*
X102194726Y-207514673D01*
X102194727Y-207514674D01*
X103168147Y-208488092D01*
X103464724Y-208784669D01*
X103555331Y-208875276D01*
X103568390Y-208884002D01*
X103576250Y-208891536D01*
X103588437Y-208912775D01*
X103604136Y-208931559D01*
X103608371Y-208942728D01*
X103609429Y-208945985D01*
X103609431Y-208945988D01*
X103609432Y-208945992D01*
X103716657Y-209156433D01*
X103855483Y-209347510D01*
X104022490Y-209514517D01*
X104213567Y-209653343D01*
X104312991Y-209704002D01*
X104424003Y-209760566D01*
X104424005Y-209760566D01*
X104424008Y-209760568D01*
X104544412Y-209799689D01*
X104648631Y-209833553D01*
X104881903Y-209870500D01*
X104881908Y-209870500D01*
X105118097Y-209870500D01*
X105351368Y-209833553D01*
X105575992Y-209760568D01*
X105786433Y-209653343D01*
X105977510Y-209514517D01*
X106144517Y-209347510D01*
X106283343Y-209156433D01*
X106390568Y-208945992D01*
X106463553Y-208721368D01*
X106500500Y-208488097D01*
X106500500Y-208251902D01*
X106463553Y-208018631D01*
X106390566Y-207794003D01*
X106283342Y-207583566D01*
X106144517Y-207392490D01*
X105977510Y-207225483D01*
X105786433Y-207086657D01*
X105625160Y-207004484D01*
X105574365Y-206956510D01*
X105557570Y-206888689D01*
X105580107Y-206822555D01*
X105634822Y-206779103D01*
X105681456Y-206770000D01*
X106047828Y-206770000D01*
X106047844Y-206769999D01*
X106107372Y-206763598D01*
X106107379Y-206763596D01*
X106242086Y-206713354D01*
X106242093Y-206713350D01*
X106357187Y-206627190D01*
X106357190Y-206627187D01*
X106443350Y-206512093D01*
X106443354Y-206512086D01*
X106493596Y-206377379D01*
X106493598Y-206377372D01*
X106499999Y-206317844D01*
X106500000Y-206317827D01*
X106500000Y-205520000D01*
X105490748Y-205520000D01*
X105512518Y-205482292D01*
X105550000Y-205342409D01*
X105550000Y-205197591D01*
X105512518Y-205057708D01*
X105490748Y-205020000D01*
X106500000Y-205020000D01*
X106500000Y-204222172D01*
X106499999Y-204222155D01*
X106493598Y-204162627D01*
X106493596Y-204162620D01*
X106443354Y-204027913D01*
X106443350Y-204027906D01*
X106357190Y-203912812D01*
X106357187Y-203912809D01*
X106242093Y-203826649D01*
X106242086Y-203826645D01*
X106107379Y-203776403D01*
X106107372Y-203776401D01*
X106047844Y-203770000D01*
X105250000Y-203770000D01*
X105250000Y-204779252D01*
X105212292Y-204757482D01*
X105072409Y-204720000D01*
X104927591Y-204720000D01*
X104787708Y-204757482D01*
X104750000Y-204779252D01*
X104750000Y-203770000D01*
X103952155Y-203770000D01*
X103892627Y-203776401D01*
X103892620Y-203776403D01*
X103757913Y-203826645D01*
X103757906Y-203826649D01*
X103642812Y-203912809D01*
X103573766Y-204005042D01*
X103517832Y-204046912D01*
X103448140Y-204051896D01*
X103386817Y-204018410D01*
X103353333Y-203957086D01*
X103350500Y-203930730D01*
X103350500Y-203520807D01*
X103370185Y-203453768D01*
X103386815Y-203433130D01*
X103937722Y-202882222D01*
X103999043Y-202848739D01*
X104068734Y-202853723D01*
X104098286Y-202869587D01*
X104128962Y-202891874D01*
X104213567Y-202953343D01*
X104325263Y-203010255D01*
X104424003Y-203060566D01*
X104424005Y-203060566D01*
X104424008Y-203060568D01*
X104544412Y-203099689D01*
X104648631Y-203133553D01*
X104881903Y-203170500D01*
X104881908Y-203170500D01*
X105118097Y-203170500D01*
X105351368Y-203133553D01*
X105575992Y-203060568D01*
X105786433Y-202953343D01*
X105977510Y-202814517D01*
X106144517Y-202647510D01*
X106283343Y-202456433D01*
X106390568Y-202245992D01*
X106463553Y-202021368D01*
X106471679Y-201970063D01*
X106501608Y-201906928D01*
X106560919Y-201869996D01*
X106630782Y-201870994D01*
X106681833Y-201901779D01*
X107113181Y-202333127D01*
X107146666Y-202394450D01*
X107149500Y-202420808D01*
X107149500Y-213549191D01*
X107129815Y-213616230D01*
X107113181Y-213636872D01*
X105550193Y-215199859D01*
X105488870Y-215233344D01*
X105424194Y-215230109D01*
X105351370Y-215206447D01*
X105118097Y-215169500D01*
X105118092Y-215169500D01*
X104881908Y-215169500D01*
X104881903Y-215169500D01*
X104648631Y-215206446D01*
X104424003Y-215279433D01*
X104213566Y-215386657D01*
X104104550Y-215465862D01*
X104022490Y-215525483D01*
X104022488Y-215525485D01*
X104022487Y-215525485D01*
X103855485Y-215692487D01*
X103855485Y-215692488D01*
X103855483Y-215692490D01*
X103795862Y-215774550D01*
X103716657Y-215883566D01*
X103609433Y-216094003D01*
X103536446Y-216318631D01*
X103499500Y-216551902D01*
X103499500Y-216788097D01*
X103536446Y-217021368D01*
X103609433Y-217245996D01*
X103716657Y-217456433D01*
X103786537Y-217552614D01*
X103810017Y-217618421D01*
X103794192Y-217686475D01*
X103744086Y-217735170D01*
X103686219Y-217749500D01*
X101124500Y-217749500D01*
X101057461Y-217729815D01*
X101011706Y-217677011D01*
X101000500Y-217625500D01*
X101000500Y-211713225D01*
X103495307Y-211713225D01*
X103509507Y-211959474D01*
X103509507Y-211959479D01*
X103563731Y-212200092D01*
X103656533Y-212428636D01*
X103785412Y-212638947D01*
X103860393Y-212725507D01*
X103946908Y-212825382D01*
X104136687Y-212982939D01*
X104136690Y-212982941D01*
X104136696Y-212982945D01*
X104349650Y-213107385D01*
X104580072Y-213195375D01*
X104580075Y-213195375D01*
X104580079Y-213195377D01*
X104821785Y-213244553D01*
X105068278Y-213253592D01*
X105312936Y-213222250D01*
X105549191Y-213151370D01*
X105770697Y-213042856D01*
X105971505Y-212899621D01*
X106146223Y-212725512D01*
X106290158Y-212525205D01*
X106399445Y-212304079D01*
X106471149Y-212068074D01*
X106503344Y-211823526D01*
X106505141Y-211750000D01*
X106484930Y-211504171D01*
X106424841Y-211264945D01*
X106326486Y-211038744D01*
X106192508Y-210831645D01*
X106026504Y-210649210D01*
X105832932Y-210496336D01*
X105616991Y-210377130D01*
X105616982Y-210377126D01*
X105384491Y-210294796D01*
X105384471Y-210294791D01*
X105141644Y-210251538D01*
X105141652Y-210251538D01*
X104900496Y-210248592D01*
X104895007Y-210248525D01*
X104895006Y-210248525D01*
X104895005Y-210248525D01*
X104895004Y-210248525D01*
X104651190Y-210285834D01*
X104651180Y-210285837D01*
X104416732Y-210362466D01*
X104197951Y-210476356D01*
X104197948Y-210476358D01*
X104000698Y-210624456D01*
X103830289Y-210802779D01*
X103830279Y-210802792D01*
X103691287Y-211006547D01*
X103691285Y-211006552D01*
X103587439Y-211230268D01*
X103587436Y-211230276D01*
X103521520Y-211467960D01*
X103521519Y-211467967D01*
X103495307Y-211713225D01*
X101000500Y-211713225D01*
X101000500Y-198889808D01*
X101020185Y-198822769D01*
X101072989Y-198777014D01*
X101142147Y-198767070D01*
X101205703Y-198796095D01*
G37*
%TD.AperFunction*%
%TA.AperFunction,Conductor*%
G36*
X106109994Y-158183327D02*
G01*
X106145648Y-158243415D01*
X106149500Y-158274083D01*
X106149500Y-165550500D01*
X106129815Y-165617539D01*
X106077011Y-165663294D01*
X106025500Y-165674500D01*
X104627129Y-165674500D01*
X104627123Y-165674501D01*
X104567516Y-165680908D01*
X104432671Y-165731202D01*
X104432664Y-165731206D01*
X104317455Y-165817452D01*
X104317452Y-165817455D01*
X104231206Y-165932664D01*
X104231202Y-165932671D01*
X104180908Y-166067517D01*
X104174501Y-166127116D01*
X104174500Y-166127135D01*
X104174500Y-167872870D01*
X104174501Y-167872876D01*
X104180908Y-167932483D01*
X104231202Y-168067328D01*
X104231206Y-168067335D01*
X104317452Y-168182544D01*
X104317455Y-168182547D01*
X104432664Y-168268793D01*
X104432671Y-168268797D01*
X104567517Y-168319091D01*
X104567516Y-168319091D01*
X104574444Y-168319835D01*
X104627127Y-168325500D01*
X106025500Y-168325499D01*
X106092539Y-168345184D01*
X106138294Y-168397987D01*
X106149500Y-168449499D01*
X106149500Y-185551000D01*
X106129815Y-185618039D01*
X106077011Y-185663794D01*
X106025500Y-185675000D01*
X105750000Y-185675000D01*
X105750000Y-186509252D01*
X105712292Y-186487482D01*
X105572409Y-186450000D01*
X105427591Y-186450000D01*
X105287708Y-186487482D01*
X105250000Y-186509252D01*
X105250000Y-185675000D01*
X104627155Y-185675000D01*
X104567627Y-185681401D01*
X104567620Y-185681403D01*
X104432913Y-185731645D01*
X104432906Y-185731649D01*
X104317812Y-185817809D01*
X104317809Y-185817812D01*
X104231649Y-185932906D01*
X104231645Y-185932913D01*
X104181403Y-186067620D01*
X104181401Y-186067627D01*
X104175000Y-186127155D01*
X104175000Y-186750000D01*
X105009252Y-186750000D01*
X104987482Y-186787708D01*
X104950000Y-186927591D01*
X104950000Y-187072409D01*
X104987482Y-187212292D01*
X105009252Y-187250000D01*
X104175000Y-187250000D01*
X104175000Y-187872844D01*
X104181401Y-187932372D01*
X104181403Y-187932379D01*
X104231645Y-188067086D01*
X104231649Y-188067093D01*
X104317809Y-188182187D01*
X104317812Y-188182190D01*
X104432906Y-188268350D01*
X104432913Y-188268354D01*
X104567620Y-188318596D01*
X104567627Y-188318598D01*
X104627155Y-188324999D01*
X104627172Y-188325000D01*
X105250000Y-188325000D01*
X105250000Y-187490747D01*
X105287708Y-187512518D01*
X105427591Y-187550000D01*
X105572409Y-187550000D01*
X105712292Y-187512518D01*
X105750000Y-187490747D01*
X105750000Y-188325000D01*
X106372828Y-188325000D01*
X106372844Y-188324999D01*
X106432372Y-188318598D01*
X106432379Y-188318596D01*
X106567086Y-188268354D01*
X106567093Y-188268350D01*
X106682187Y-188182190D01*
X106682190Y-188182187D01*
X106768350Y-188067093D01*
X106768354Y-188067086D01*
X106816160Y-187938911D01*
X106858031Y-187882978D01*
X106923495Y-187858560D01*
X106991768Y-187873411D01*
X107020023Y-187894563D01*
X107136495Y-188011035D01*
X107305286Y-188133670D01*
X107360760Y-188161935D01*
X107491179Y-188228387D01*
X107491181Y-188228387D01*
X107491184Y-188228389D01*
X107597545Y-188262948D01*
X107689610Y-188292862D01*
X107895676Y-188325500D01*
X107895681Y-188325500D01*
X108104324Y-188325500D01*
X108310389Y-188292862D01*
X108508816Y-188228389D01*
X108694714Y-188133670D01*
X108863505Y-188011035D01*
X109011035Y-187863505D01*
X109133670Y-187694714D01*
X109139515Y-187683243D01*
X109187489Y-187632447D01*
X109255310Y-187615651D01*
X109321445Y-187638188D01*
X109360485Y-187683243D01*
X109366328Y-187694712D01*
X109448086Y-187807241D01*
X109488965Y-187863505D01*
X109636495Y-188011035D01*
X109798387Y-188128657D01*
X109841051Y-188183986D01*
X109849500Y-188228974D01*
X109849500Y-197234069D01*
X109849500Y-197234071D01*
X109849499Y-197234071D01*
X109873620Y-197355328D01*
X109874498Y-197359743D01*
X109923533Y-197478125D01*
X109994726Y-197584673D01*
X109994727Y-197584674D01*
X113529859Y-201119805D01*
X113563344Y-201181128D01*
X113560109Y-201245803D01*
X113536447Y-201318628D01*
X113499500Y-201551902D01*
X113499500Y-201788097D01*
X113536446Y-202021368D01*
X113609433Y-202245996D01*
X113685075Y-202394450D01*
X113716657Y-202456433D01*
X113855483Y-202647510D01*
X114022490Y-202814517D01*
X114213567Y-202953343D01*
X114312991Y-203004002D01*
X114424003Y-203060566D01*
X114424005Y-203060566D01*
X114424008Y-203060568D01*
X114544412Y-203099689D01*
X114648631Y-203133553D01*
X114881903Y-203170500D01*
X114881908Y-203170500D01*
X115118097Y-203170500D01*
X115351368Y-203133553D01*
X115575992Y-203060568D01*
X115786433Y-202953343D01*
X115977510Y-202814517D01*
X116144517Y-202647510D01*
X116283343Y-202456433D01*
X116390568Y-202245992D01*
X116463553Y-202021368D01*
X116471679Y-201970063D01*
X116500500Y-201788097D01*
X116500500Y-201551902D01*
X116463553Y-201318631D01*
X116417197Y-201175963D01*
X116390568Y-201094008D01*
X116390566Y-201094005D01*
X116390566Y-201094003D01*
X116283342Y-200883566D01*
X116144517Y-200692490D01*
X115977510Y-200525483D01*
X115786433Y-200386657D01*
X115575996Y-200279433D01*
X115351368Y-200206446D01*
X115118097Y-200169500D01*
X115118092Y-200169500D01*
X114881908Y-200169500D01*
X114881903Y-200169500D01*
X114648628Y-200206447D01*
X114575803Y-200230109D01*
X114505962Y-200232104D01*
X114449805Y-200199859D01*
X111186819Y-196936873D01*
X111172115Y-196909945D01*
X111155523Y-196884127D01*
X111154631Y-196877926D01*
X111153334Y-196875550D01*
X111150500Y-196849192D01*
X111150500Y-196713225D01*
X113495307Y-196713225D01*
X113509507Y-196959474D01*
X113509507Y-196959479D01*
X113563731Y-197200092D01*
X113656533Y-197428636D01*
X113785412Y-197638947D01*
X113794286Y-197649191D01*
X113946908Y-197825382D01*
X114136687Y-197982939D01*
X114136690Y-197982941D01*
X114136696Y-197982945D01*
X114349650Y-198107385D01*
X114580072Y-198195375D01*
X114580075Y-198195375D01*
X114580079Y-198195377D01*
X114821785Y-198244553D01*
X115068278Y-198253592D01*
X115312936Y-198222250D01*
X115549191Y-198151370D01*
X115770697Y-198042856D01*
X115971505Y-197899621D01*
X116146223Y-197725512D01*
X116290158Y-197525205D01*
X116399445Y-197304079D01*
X116471149Y-197068074D01*
X116503344Y-196823526D01*
X116505141Y-196750000D01*
X116484930Y-196504171D01*
X116424841Y-196264945D01*
X116326486Y-196038744D01*
X116192508Y-195831645D01*
X116026504Y-195649210D01*
X115832932Y-195496336D01*
X115616991Y-195377130D01*
X115616982Y-195377126D01*
X115384491Y-195294796D01*
X115384471Y-195294791D01*
X115141644Y-195251538D01*
X115141652Y-195251538D01*
X114900496Y-195248592D01*
X114895007Y-195248525D01*
X114895006Y-195248525D01*
X114895005Y-195248525D01*
X114895004Y-195248525D01*
X114651190Y-195285834D01*
X114651180Y-195285837D01*
X114416732Y-195362466D01*
X114197951Y-195476356D01*
X114197948Y-195476358D01*
X114000698Y-195624456D01*
X113830289Y-195802779D01*
X113830279Y-195802792D01*
X113691287Y-196006547D01*
X113691285Y-196006552D01*
X113587439Y-196230268D01*
X113587436Y-196230276D01*
X113521520Y-196467960D01*
X113521519Y-196467967D01*
X113495307Y-196713225D01*
X111150500Y-196713225D01*
X111150500Y-193251902D01*
X113499500Y-193251902D01*
X113499500Y-193488097D01*
X113536446Y-193721368D01*
X113609433Y-193945996D01*
X113716657Y-194156433D01*
X113855483Y-194347510D01*
X114022490Y-194514517D01*
X114213567Y-194653343D01*
X114312991Y-194704002D01*
X114424003Y-194760566D01*
X114424005Y-194760566D01*
X114424008Y-194760568D01*
X114544412Y-194799689D01*
X114648631Y-194833553D01*
X114881903Y-194870500D01*
X114881908Y-194870500D01*
X115118097Y-194870500D01*
X115351368Y-194833553D01*
X115575992Y-194760568D01*
X115786433Y-194653343D01*
X115977510Y-194514517D01*
X116144517Y-194347510D01*
X116283343Y-194156433D01*
X116390568Y-193945992D01*
X116463553Y-193721368D01*
X116500500Y-193488097D01*
X116500500Y-193251902D01*
X116463553Y-193018631D01*
X116390566Y-192794003D01*
X116283342Y-192583566D01*
X116144517Y-192392490D01*
X115977510Y-192225483D01*
X115786433Y-192086657D01*
X115625160Y-192004484D01*
X115574365Y-191956510D01*
X115557570Y-191888689D01*
X115580107Y-191822555D01*
X115634822Y-191779103D01*
X115681456Y-191770000D01*
X116047828Y-191770000D01*
X116047844Y-191769999D01*
X116107372Y-191763598D01*
X116107379Y-191763596D01*
X116242086Y-191713354D01*
X116242093Y-191713350D01*
X116357187Y-191627190D01*
X116357190Y-191627187D01*
X116443350Y-191512093D01*
X116443354Y-191512086D01*
X116493596Y-191377379D01*
X116493598Y-191377372D01*
X116499999Y-191317844D01*
X116500000Y-191317827D01*
X116500000Y-190520000D01*
X115490748Y-190520000D01*
X115512518Y-190482292D01*
X115550000Y-190342409D01*
X115550000Y-190197591D01*
X115512518Y-190057708D01*
X115490748Y-190020000D01*
X116500000Y-190020000D01*
X116500000Y-189222172D01*
X116499999Y-189222155D01*
X116493598Y-189162627D01*
X116493596Y-189162620D01*
X116443354Y-189027913D01*
X116443350Y-189027906D01*
X116357190Y-188912812D01*
X116357187Y-188912809D01*
X116242093Y-188826649D01*
X116242086Y-188826645D01*
X116107379Y-188776403D01*
X116107372Y-188776401D01*
X116047844Y-188770000D01*
X115250000Y-188770000D01*
X115250000Y-189779252D01*
X115212292Y-189757482D01*
X115072409Y-189720000D01*
X114927591Y-189720000D01*
X114787708Y-189757482D01*
X114750000Y-189779252D01*
X114750000Y-188770000D01*
X113952155Y-188770000D01*
X113892627Y-188776401D01*
X113892620Y-188776403D01*
X113757913Y-188826645D01*
X113757906Y-188826649D01*
X113642812Y-188912809D01*
X113642809Y-188912812D01*
X113556649Y-189027906D01*
X113556645Y-189027913D01*
X113506403Y-189162620D01*
X113506401Y-189162627D01*
X113500000Y-189222155D01*
X113500000Y-190020000D01*
X114509252Y-190020000D01*
X114487482Y-190057708D01*
X114450000Y-190197591D01*
X114450000Y-190342409D01*
X114487482Y-190482292D01*
X114509252Y-190520000D01*
X113500000Y-190520000D01*
X113500000Y-191317844D01*
X113506401Y-191377372D01*
X113506403Y-191377379D01*
X113556645Y-191512086D01*
X113556649Y-191512093D01*
X113642809Y-191627187D01*
X113642812Y-191627190D01*
X113757906Y-191713350D01*
X113757913Y-191713354D01*
X113892620Y-191763596D01*
X113892627Y-191763598D01*
X113952155Y-191769999D01*
X113952172Y-191770000D01*
X114318544Y-191770000D01*
X114385583Y-191789685D01*
X114431338Y-191842489D01*
X114441282Y-191911647D01*
X114412257Y-191975203D01*
X114374839Y-192004485D01*
X114213566Y-192086657D01*
X114104550Y-192165862D01*
X114022490Y-192225483D01*
X114022488Y-192225485D01*
X114022487Y-192225485D01*
X113855485Y-192392487D01*
X113855485Y-192392488D01*
X113855483Y-192392490D01*
X113795862Y-192474550D01*
X113716657Y-192583566D01*
X113609433Y-192794003D01*
X113536446Y-193018631D01*
X113499500Y-193251902D01*
X111150500Y-193251902D01*
X111150500Y-188228974D01*
X111170185Y-188161935D01*
X111201611Y-188128658D01*
X111363505Y-188011035D01*
X111511035Y-187863505D01*
X111633670Y-187694714D01*
X111728389Y-187508816D01*
X111792862Y-187310389D01*
X111802427Y-187250000D01*
X111825500Y-187104324D01*
X111825500Y-186895675D01*
X111792862Y-186689610D01*
X111750000Y-186557695D01*
X111728389Y-186491184D01*
X111728387Y-186491181D01*
X111728387Y-186491179D01*
X111662470Y-186361809D01*
X111633670Y-186305286D01*
X111511035Y-186136495D01*
X111363505Y-185988965D01*
X111231971Y-185893399D01*
X113645500Y-185893399D01*
X113645500Y-186106600D01*
X113678853Y-186317180D01*
X113678853Y-186317183D01*
X113744734Y-186519944D01*
X113744736Y-186519947D01*
X113841528Y-186709913D01*
X113966846Y-186882397D01*
X114117603Y-187033154D01*
X114290087Y-187158472D01*
X114480053Y-187255264D01*
X114480055Y-187255265D01*
X114649711Y-187310389D01*
X114682821Y-187321147D01*
X114893399Y-187354500D01*
X114893400Y-187354500D01*
X115106600Y-187354500D01*
X115106601Y-187354500D01*
X115317179Y-187321147D01*
X115317182Y-187321146D01*
X115317183Y-187321146D01*
X115519944Y-187255265D01*
X115519944Y-187255264D01*
X115519947Y-187255264D01*
X115709913Y-187158472D01*
X115882397Y-187033154D01*
X116033154Y-186882397D01*
X116158472Y-186709913D01*
X116255264Y-186519947D01*
X116264611Y-186491179D01*
X116321146Y-186317183D01*
X116321146Y-186317182D01*
X116321147Y-186317179D01*
X116354500Y-186106601D01*
X116354500Y-185893399D01*
X116321147Y-185682821D01*
X116321146Y-185682817D01*
X116321146Y-185682816D01*
X116255265Y-185480055D01*
X116255263Y-185480052D01*
X116158471Y-185290086D01*
X116033154Y-185117603D01*
X115882397Y-184966846D01*
X115709913Y-184841528D01*
X115519947Y-184744736D01*
X115519944Y-184744734D01*
X115317181Y-184678853D01*
X115176793Y-184656617D01*
X115106601Y-184645500D01*
X114893399Y-184645500D01*
X114823206Y-184656617D01*
X114682819Y-184678853D01*
X114682816Y-184678853D01*
X114480055Y-184744734D01*
X114480052Y-184744736D01*
X114290086Y-184841528D01*
X114117601Y-184966847D01*
X113966847Y-185117601D01*
X113841528Y-185290086D01*
X113744736Y-185480052D01*
X113744734Y-185480055D01*
X113678853Y-185682816D01*
X113678853Y-185682819D01*
X113645500Y-185893399D01*
X111231971Y-185893399D01*
X111194714Y-185866330D01*
X111150500Y-185843802D01*
X111008820Y-185771612D01*
X110810389Y-185707137D01*
X110604324Y-185674500D01*
X110604319Y-185674500D01*
X110395681Y-185674500D01*
X110395676Y-185674500D01*
X110189610Y-185707137D01*
X109991179Y-185771612D01*
X109805285Y-185866330D01*
X109636493Y-185988966D01*
X109488966Y-186136493D01*
X109366330Y-186305286D01*
X109360484Y-186316759D01*
X109312508Y-186367554D01*
X109244687Y-186384348D01*
X109178553Y-186361809D01*
X109139516Y-186316759D01*
X109138303Y-186314380D01*
X109133670Y-186305286D01*
X109011035Y-186136495D01*
X108863505Y-185988965D01*
X108694714Y-185866330D01*
X108650500Y-185843802D01*
X108508820Y-185771612D01*
X108310389Y-185707137D01*
X108104324Y-185674500D01*
X108104319Y-185674500D01*
X107895681Y-185674500D01*
X107895676Y-185674500D01*
X107698036Y-185705803D01*
X107692610Y-185705101D01*
X107687484Y-185707014D01*
X107658328Y-185700671D01*
X107628742Y-185696848D01*
X107623138Y-185693016D01*
X107619211Y-185692162D01*
X107590957Y-185671011D01*
X107486819Y-185566873D01*
X107453334Y-185505550D01*
X107450500Y-185479192D01*
X107450500Y-178394135D01*
X110441500Y-178394135D01*
X110441500Y-181605870D01*
X110441501Y-181605876D01*
X110447908Y-181665483D01*
X110498202Y-181800328D01*
X110498206Y-181800335D01*
X110584452Y-181915544D01*
X110584455Y-181915547D01*
X110699664Y-182001793D01*
X110699671Y-182001797D01*
X110834517Y-182052091D01*
X110834516Y-182052091D01*
X110841444Y-182052835D01*
X110894127Y-182058500D01*
X114105872Y-182058499D01*
X114165483Y-182052091D01*
X114300331Y-182001796D01*
X114415546Y-181915546D01*
X114501796Y-181800331D01*
X114552091Y-181665483D01*
X114558500Y-181605873D01*
X114558499Y-178394135D01*
X115441500Y-178394135D01*
X115441500Y-181605870D01*
X115441501Y-181605876D01*
X115447908Y-181665483D01*
X115498202Y-181800328D01*
X115498206Y-181800335D01*
X115584452Y-181915544D01*
X115584455Y-181915547D01*
X115699664Y-182001793D01*
X115699671Y-182001797D01*
X115834517Y-182052091D01*
X115834516Y-182052091D01*
X115841444Y-182052835D01*
X115894127Y-182058500D01*
X119105872Y-182058499D01*
X119165483Y-182052091D01*
X119300331Y-182001796D01*
X119415546Y-181915546D01*
X119501796Y-181800331D01*
X119552091Y-181665483D01*
X119558500Y-181605873D01*
X119558499Y-178394128D01*
X119552091Y-178334517D01*
X119501796Y-178199669D01*
X119501795Y-178199668D01*
X119501793Y-178199664D01*
X119415547Y-178084455D01*
X119415544Y-178084452D01*
X119300335Y-177998206D01*
X119300328Y-177998202D01*
X119165482Y-177947908D01*
X119165483Y-177947908D01*
X119105883Y-177941501D01*
X119105881Y-177941500D01*
X119105873Y-177941500D01*
X119105864Y-177941500D01*
X115894129Y-177941500D01*
X115894123Y-177941501D01*
X115834516Y-177947908D01*
X115699671Y-177998202D01*
X115699664Y-177998206D01*
X115584455Y-178084452D01*
X115584452Y-178084455D01*
X115498206Y-178199664D01*
X115498202Y-178199671D01*
X115447908Y-178334517D01*
X115441501Y-178394116D01*
X115441501Y-178394123D01*
X115441500Y-178394135D01*
X114558499Y-178394135D01*
X114558499Y-178394128D01*
X114552091Y-178334517D01*
X114501796Y-178199669D01*
X114501795Y-178199668D01*
X114501793Y-178199664D01*
X114415547Y-178084455D01*
X114415544Y-178084452D01*
X114300335Y-177998206D01*
X114300328Y-177998202D01*
X114165482Y-177947908D01*
X114165483Y-177947908D01*
X114105883Y-177941501D01*
X114105881Y-177941500D01*
X114105873Y-177941500D01*
X114105864Y-177941500D01*
X110894129Y-177941500D01*
X110894123Y-177941501D01*
X110834516Y-177947908D01*
X110699671Y-177998202D01*
X110699664Y-177998206D01*
X110584455Y-178084452D01*
X110584452Y-178084455D01*
X110498206Y-178199664D01*
X110498202Y-178199671D01*
X110447908Y-178334517D01*
X110441501Y-178394116D01*
X110441501Y-178394123D01*
X110441500Y-178394135D01*
X107450500Y-178394135D01*
X107450500Y-168385841D01*
X107470185Y-168318802D01*
X107522989Y-168273047D01*
X107592147Y-168263103D01*
X107612808Y-168267907D01*
X107689611Y-168292862D01*
X107719564Y-168297606D01*
X107895676Y-168325500D01*
X107895681Y-168325500D01*
X108104324Y-168325500D01*
X108310389Y-168292862D01*
X108332659Y-168285626D01*
X108508816Y-168228389D01*
X108694714Y-168133670D01*
X108863505Y-168011035D01*
X109011035Y-167863505D01*
X109133670Y-167694714D01*
X109139515Y-167683243D01*
X109187489Y-167632447D01*
X109255310Y-167615651D01*
X109321445Y-167638188D01*
X109360485Y-167683243D01*
X109366328Y-167694712D01*
X109448086Y-167807241D01*
X109488965Y-167863505D01*
X109636495Y-168011035D01*
X109805286Y-168133670D01*
X109884513Y-168174038D01*
X109991179Y-168228387D01*
X109991181Y-168228387D01*
X109991184Y-168228389D01*
X110097545Y-168262948D01*
X110189610Y-168292862D01*
X110395676Y-168325500D01*
X110395681Y-168325500D01*
X110604324Y-168325500D01*
X110810389Y-168292862D01*
X110832659Y-168285626D01*
X111008816Y-168228389D01*
X111194714Y-168133670D01*
X111363505Y-168011035D01*
X111396370Y-167978169D01*
X111457690Y-167944685D01*
X111527382Y-167949669D01*
X111583316Y-167991539D01*
X111598610Y-168018396D01*
X111601984Y-168026541D01*
X111601990Y-168026553D01*
X111700535Y-168174034D01*
X111700538Y-168174038D01*
X111825961Y-168299461D01*
X111825965Y-168299464D01*
X111973446Y-168398009D01*
X111973459Y-168398016D01*
X112096363Y-168448923D01*
X112137334Y-168465894D01*
X112137336Y-168465894D01*
X112137341Y-168465896D01*
X112311304Y-168500499D01*
X112311307Y-168500500D01*
X112311309Y-168500500D01*
X112488693Y-168500500D01*
X112488694Y-168500499D01*
X112546682Y-168488964D01*
X112662658Y-168465896D01*
X112662661Y-168465894D01*
X112662666Y-168465894D01*
X112826547Y-168398013D01*
X112974035Y-168299464D01*
X113099464Y-168174035D01*
X113198013Y-168026547D01*
X113265894Y-167862666D01*
X113300500Y-167688691D01*
X113300500Y-167511309D01*
X113300500Y-167511306D01*
X113277883Y-167397606D01*
X113275500Y-167373414D01*
X113275500Y-164226584D01*
X113277883Y-164202392D01*
X113300500Y-164088693D01*
X113300500Y-163911306D01*
X113299903Y-163905244D01*
X113302193Y-163905018D01*
X113307506Y-163845638D01*
X113350369Y-163790460D01*
X113416258Y-163767214D01*
X113484255Y-163783281D01*
X113526000Y-163822146D01*
X113539375Y-163842164D01*
X113657837Y-163960626D01*
X113750494Y-164022537D01*
X113797137Y-164053703D01*
X113951918Y-164117816D01*
X114116228Y-164150499D01*
X114116232Y-164150500D01*
X114116233Y-164150500D01*
X114283768Y-164150500D01*
X114283769Y-164150499D01*
X114448082Y-164117816D01*
X114602863Y-164053703D01*
X114742162Y-163960626D01*
X114860626Y-163842162D01*
X114953703Y-163702863D01*
X115017816Y-163548082D01*
X115050500Y-163383767D01*
X115050500Y-163216233D01*
X115039076Y-163158803D01*
X115045302Y-163089215D01*
X115073010Y-163046934D01*
X115605276Y-162514669D01*
X115676465Y-162408127D01*
X115725501Y-162289744D01*
X115736404Y-162234931D01*
X115750500Y-162164069D01*
X115750500Y-158769808D01*
X115770185Y-158702769D01*
X115822989Y-158657014D01*
X115892147Y-158647070D01*
X115955703Y-158676095D01*
X115962181Y-158682127D01*
X119989181Y-162709127D01*
X120022666Y-162770450D01*
X120025500Y-162796808D01*
X120025500Y-166383350D01*
X120005815Y-166450389D01*
X119953011Y-166496144D01*
X119883853Y-166506088D01*
X119820297Y-166477063D01*
X119813819Y-166471031D01*
X119692162Y-166349374D01*
X119552860Y-166256296D01*
X119398082Y-166192185D01*
X119398074Y-166192183D01*
X119233771Y-166159501D01*
X119233767Y-166159501D01*
X119066233Y-166159501D01*
X119066228Y-166159501D01*
X118901925Y-166192183D01*
X118901917Y-166192185D01*
X118747139Y-166256296D01*
X118607837Y-166349374D01*
X118489373Y-166467838D01*
X118396295Y-166607140D01*
X118332184Y-166761918D01*
X118332182Y-166761926D01*
X118299500Y-166926229D01*
X118299500Y-167093772D01*
X118332182Y-167258075D01*
X118332184Y-167258083D01*
X118396295Y-167412861D01*
X118396296Y-167412863D01*
X118396297Y-167412864D01*
X118460410Y-167508816D01*
X118478602Y-167536041D01*
X118499480Y-167602718D01*
X118499500Y-167604932D01*
X118499500Y-173305068D01*
X118479815Y-173372107D01*
X118478602Y-173373959D01*
X118396295Y-173497139D01*
X118332184Y-173651917D01*
X118332182Y-173651925D01*
X118299500Y-173816228D01*
X118299500Y-173983771D01*
X118332182Y-174148074D01*
X118332184Y-174148082D01*
X118396295Y-174302860D01*
X118489373Y-174442162D01*
X118607837Y-174560626D01*
X118700494Y-174622537D01*
X118747137Y-174653703D01*
X118901918Y-174717816D01*
X119066228Y-174750499D01*
X119066232Y-174750500D01*
X119066233Y-174750500D01*
X119233768Y-174750500D01*
X119233769Y-174750499D01*
X119398082Y-174717816D01*
X119552863Y-174653703D01*
X119692162Y-174560626D01*
X119734983Y-174517805D01*
X119813819Y-174438970D01*
X119875142Y-174405485D01*
X119944834Y-174410469D01*
X120000767Y-174452341D01*
X120025184Y-174517805D01*
X120025500Y-174526651D01*
X120025500Y-185551000D01*
X120005815Y-185618039D01*
X119953011Y-185663794D01*
X119901500Y-185675000D01*
X119750000Y-185675000D01*
X119750000Y-186509252D01*
X119712292Y-186487482D01*
X119572409Y-186450000D01*
X119427591Y-186450000D01*
X119287708Y-186487482D01*
X119250000Y-186509252D01*
X119250000Y-185675000D01*
X118627155Y-185675000D01*
X118567627Y-185681401D01*
X118567620Y-185681403D01*
X118432913Y-185731645D01*
X118432906Y-185731649D01*
X118317812Y-185817809D01*
X118317809Y-185817812D01*
X118231649Y-185932906D01*
X118231645Y-185932913D01*
X118181403Y-186067620D01*
X118181401Y-186067627D01*
X118175000Y-186127155D01*
X118175000Y-186750000D01*
X119009252Y-186750000D01*
X118987482Y-186787708D01*
X118950000Y-186927591D01*
X118950000Y-187072409D01*
X118987482Y-187212292D01*
X119009252Y-187250000D01*
X118175000Y-187250000D01*
X118175000Y-187872844D01*
X118181401Y-187932372D01*
X118181403Y-187932379D01*
X118231645Y-188067086D01*
X118231649Y-188067093D01*
X118317809Y-188182187D01*
X118317812Y-188182190D01*
X118432906Y-188268350D01*
X118432913Y-188268354D01*
X118567620Y-188318596D01*
X118567627Y-188318598D01*
X118627155Y-188324999D01*
X118627172Y-188325000D01*
X119172849Y-188325000D01*
X119239888Y-188344685D01*
X119285643Y-188397489D01*
X119295587Y-188466647D01*
X119266562Y-188530203D01*
X119260530Y-188536681D01*
X119139376Y-188657834D01*
X119139373Y-188657837D01*
X119046295Y-188797139D01*
X118982184Y-188951917D01*
X118982182Y-188951925D01*
X118949500Y-189116228D01*
X118949500Y-189283771D01*
X118982182Y-189448074D01*
X118982184Y-189448082D01*
X119046295Y-189602860D01*
X119128602Y-189726040D01*
X119149480Y-189792717D01*
X119149500Y-189794931D01*
X119149500Y-211205068D01*
X119129815Y-211272107D01*
X119128602Y-211273959D01*
X119046295Y-211397139D01*
X118982184Y-211551917D01*
X118982182Y-211551925D01*
X118949500Y-211716228D01*
X118949500Y-211883771D01*
X118982182Y-212048074D01*
X118982184Y-212048082D01*
X119046295Y-212202860D01*
X119139373Y-212342162D01*
X119257837Y-212460626D01*
X119350494Y-212522537D01*
X119397137Y-212553703D01*
X119551918Y-212617816D01*
X119658142Y-212638945D01*
X119716228Y-212650499D01*
X119716232Y-212650500D01*
X119716233Y-212650500D01*
X119883768Y-212650500D01*
X119883768Y-212650499D01*
X119990819Y-212629206D01*
X120060411Y-212635433D01*
X120115588Y-212678296D01*
X120118113Y-212681932D01*
X120170724Y-212760671D01*
X120170727Y-212760674D01*
X123529859Y-216119805D01*
X123563344Y-216181128D01*
X123560109Y-216245803D01*
X123536447Y-216318628D01*
X123499500Y-216551902D01*
X123499500Y-216788097D01*
X123536446Y-217021368D01*
X123609433Y-217245996D01*
X123716657Y-217456433D01*
X123786537Y-217552614D01*
X123810017Y-217618421D01*
X123794192Y-217686475D01*
X123744086Y-217735170D01*
X123686219Y-217749500D01*
X116313781Y-217749500D01*
X116246742Y-217729815D01*
X116200987Y-217677011D01*
X116191043Y-217607853D01*
X116213463Y-217552614D01*
X116283343Y-217456433D01*
X116390568Y-217245992D01*
X116463553Y-217021368D01*
X116500500Y-216788097D01*
X116500500Y-216551902D01*
X116463553Y-216318631D01*
X116417197Y-216175963D01*
X116390568Y-216094008D01*
X116390566Y-216094005D01*
X116390566Y-216094003D01*
X116283342Y-215883566D01*
X116144517Y-215692490D01*
X115977510Y-215525483D01*
X115786433Y-215386657D01*
X115575996Y-215279433D01*
X115351368Y-215206446D01*
X115118097Y-215169500D01*
X115118092Y-215169500D01*
X114881908Y-215169500D01*
X114881903Y-215169500D01*
X114648631Y-215206446D01*
X114424003Y-215279433D01*
X114213566Y-215386657D01*
X114104550Y-215465862D01*
X114022490Y-215525483D01*
X114022488Y-215525485D01*
X114022487Y-215525485D01*
X113855485Y-215692487D01*
X113855485Y-215692488D01*
X113855483Y-215692490D01*
X113795862Y-215774550D01*
X113716657Y-215883566D01*
X113609433Y-216094003D01*
X113536446Y-216318631D01*
X113499500Y-216551902D01*
X113499500Y-216788097D01*
X113536446Y-217021368D01*
X113609433Y-217245996D01*
X113716657Y-217456433D01*
X113786537Y-217552614D01*
X113810017Y-217618421D01*
X113794192Y-217686475D01*
X113744086Y-217735170D01*
X113686219Y-217749500D01*
X106313781Y-217749500D01*
X106246742Y-217729815D01*
X106200987Y-217677011D01*
X106191043Y-217607853D01*
X106213463Y-217552614D01*
X106283343Y-217456433D01*
X106390568Y-217245992D01*
X106463553Y-217021368D01*
X106500500Y-216788097D01*
X106500500Y-216551902D01*
X106480347Y-216424666D01*
X106463553Y-216318632D01*
X106439888Y-216245802D01*
X106437894Y-216175963D01*
X106470137Y-216119807D01*
X108305277Y-214284669D01*
X108376465Y-214178127D01*
X108425501Y-214059744D01*
X108450500Y-213934069D01*
X108450500Y-211713225D01*
X113495307Y-211713225D01*
X113509507Y-211959474D01*
X113509507Y-211959479D01*
X113563731Y-212200092D01*
X113656533Y-212428636D01*
X113785412Y-212638947D01*
X113860393Y-212725507D01*
X113946908Y-212825382D01*
X114136687Y-212982939D01*
X114136690Y-212982941D01*
X114136696Y-212982945D01*
X114349650Y-213107385D01*
X114580072Y-213195375D01*
X114580075Y-213195375D01*
X114580079Y-213195377D01*
X114821785Y-213244553D01*
X115068278Y-213253592D01*
X115312936Y-213222250D01*
X115549191Y-213151370D01*
X115770697Y-213042856D01*
X115971505Y-212899621D01*
X116146223Y-212725512D01*
X116290158Y-212525205D01*
X116399445Y-212304079D01*
X116471149Y-212068074D01*
X116503344Y-211823526D01*
X116505141Y-211750000D01*
X116484930Y-211504171D01*
X116424841Y-211264945D01*
X116326486Y-211038744D01*
X116192508Y-210831645D01*
X116026504Y-210649210D01*
X115832932Y-210496336D01*
X115616991Y-210377130D01*
X115616982Y-210377126D01*
X115384491Y-210294796D01*
X115384471Y-210294791D01*
X115141644Y-210251538D01*
X115141652Y-210251538D01*
X114900496Y-210248592D01*
X114895007Y-210248525D01*
X114895006Y-210248525D01*
X114895005Y-210248525D01*
X114895004Y-210248525D01*
X114651190Y-210285834D01*
X114651180Y-210285837D01*
X114416732Y-210362466D01*
X114197951Y-210476356D01*
X114197948Y-210476358D01*
X114000698Y-210624456D01*
X113830289Y-210802779D01*
X113830279Y-210802792D01*
X113691287Y-211006547D01*
X113691285Y-211006552D01*
X113587439Y-211230268D01*
X113587436Y-211230276D01*
X113521520Y-211467960D01*
X113521519Y-211467967D01*
X113495307Y-211713225D01*
X108450500Y-211713225D01*
X108450500Y-208251902D01*
X113499500Y-208251902D01*
X113499500Y-208488097D01*
X113536446Y-208721368D01*
X113609433Y-208945996D01*
X113716657Y-209156433D01*
X113855483Y-209347510D01*
X114022490Y-209514517D01*
X114213567Y-209653343D01*
X114312991Y-209704002D01*
X114424003Y-209760566D01*
X114424005Y-209760566D01*
X114424008Y-209760568D01*
X114544412Y-209799689D01*
X114648631Y-209833553D01*
X114881903Y-209870500D01*
X114881908Y-209870500D01*
X115118097Y-209870500D01*
X115351368Y-209833553D01*
X115575992Y-209760568D01*
X115786433Y-209653343D01*
X115977510Y-209514517D01*
X116144517Y-209347510D01*
X116283343Y-209156433D01*
X116390568Y-208945992D01*
X116463553Y-208721368D01*
X116500500Y-208488097D01*
X116500500Y-208251902D01*
X116463553Y-208018631D01*
X116390566Y-207794003D01*
X116283342Y-207583566D01*
X116144517Y-207392490D01*
X115977510Y-207225483D01*
X115786433Y-207086657D01*
X115625160Y-207004484D01*
X115574365Y-206956510D01*
X115557570Y-206888689D01*
X115580107Y-206822555D01*
X115634822Y-206779103D01*
X115681456Y-206770000D01*
X116047828Y-206770000D01*
X116047844Y-206769999D01*
X116107372Y-206763598D01*
X116107379Y-206763596D01*
X116242086Y-206713354D01*
X116242093Y-206713350D01*
X116357187Y-206627190D01*
X116357190Y-206627187D01*
X116443350Y-206512093D01*
X116443354Y-206512086D01*
X116493596Y-206377379D01*
X116493598Y-206377372D01*
X116499999Y-206317844D01*
X116500000Y-206317827D01*
X116500000Y-205520000D01*
X115490748Y-205520000D01*
X115512518Y-205482292D01*
X115550000Y-205342409D01*
X115550000Y-205197591D01*
X115512518Y-205057708D01*
X115490748Y-205020000D01*
X116500000Y-205020000D01*
X116500000Y-204222172D01*
X116499999Y-204222155D01*
X116493598Y-204162627D01*
X116493596Y-204162620D01*
X116443354Y-204027913D01*
X116443350Y-204027906D01*
X116357190Y-203912812D01*
X116357187Y-203912809D01*
X116242093Y-203826649D01*
X116242086Y-203826645D01*
X116107379Y-203776403D01*
X116107372Y-203776401D01*
X116047844Y-203770000D01*
X115250000Y-203770000D01*
X115250000Y-204779252D01*
X115212292Y-204757482D01*
X115072409Y-204720000D01*
X114927591Y-204720000D01*
X114787708Y-204757482D01*
X114750000Y-204779252D01*
X114750000Y-203770000D01*
X113952155Y-203770000D01*
X113892627Y-203776401D01*
X113892620Y-203776403D01*
X113757913Y-203826645D01*
X113757906Y-203826649D01*
X113642812Y-203912809D01*
X113642809Y-203912812D01*
X113556649Y-204027906D01*
X113556645Y-204027913D01*
X113506403Y-204162620D01*
X113506401Y-204162627D01*
X113500000Y-204222155D01*
X113500000Y-205020000D01*
X114509252Y-205020000D01*
X114487482Y-205057708D01*
X114450000Y-205197591D01*
X114450000Y-205342409D01*
X114487482Y-205482292D01*
X114509252Y-205520000D01*
X113500000Y-205520000D01*
X113500000Y-206317844D01*
X113506401Y-206377372D01*
X113506403Y-206377379D01*
X113556645Y-206512086D01*
X113556649Y-206512093D01*
X113642809Y-206627187D01*
X113642812Y-206627190D01*
X113757906Y-206713350D01*
X113757913Y-206713354D01*
X113892620Y-206763596D01*
X113892627Y-206763598D01*
X113952155Y-206769999D01*
X113952172Y-206770000D01*
X114318544Y-206770000D01*
X114385583Y-206789685D01*
X114431338Y-206842489D01*
X114441282Y-206911647D01*
X114412257Y-206975203D01*
X114374839Y-207004485D01*
X114213566Y-207086657D01*
X114107019Y-207164069D01*
X114022490Y-207225483D01*
X114022488Y-207225485D01*
X114022487Y-207225485D01*
X113855485Y-207392487D01*
X113855485Y-207392488D01*
X113855483Y-207392490D01*
X113844122Y-207408127D01*
X113716657Y-207583566D01*
X113609433Y-207794003D01*
X113536446Y-208018631D01*
X113499500Y-208251902D01*
X108450500Y-208251902D01*
X108450500Y-202035931D01*
X108450500Y-202035928D01*
X108425502Y-201910261D01*
X108425501Y-201910260D01*
X108425501Y-201910256D01*
X108376465Y-201791873D01*
X108337842Y-201734069D01*
X108337842Y-201734068D01*
X108305274Y-201685327D01*
X108305271Y-201685324D01*
X105074236Y-198454290D01*
X105040751Y-198392967D01*
X105045735Y-198323275D01*
X105087607Y-198267342D01*
X105146158Y-198243615D01*
X105312936Y-198222250D01*
X105549191Y-198151370D01*
X105770697Y-198042856D01*
X105971505Y-197899621D01*
X106146223Y-197725512D01*
X106290158Y-197525205D01*
X106399445Y-197304079D01*
X106471149Y-197068074D01*
X106503344Y-196823526D01*
X106505141Y-196750000D01*
X106484930Y-196504171D01*
X106424841Y-196264945D01*
X106326486Y-196038744D01*
X106192508Y-195831645D01*
X106026504Y-195649210D01*
X105832932Y-195496336D01*
X105616991Y-195377130D01*
X105616982Y-195377126D01*
X105384491Y-195294796D01*
X105384471Y-195294791D01*
X105141644Y-195251538D01*
X105141652Y-195251538D01*
X104900496Y-195248592D01*
X104895007Y-195248525D01*
X104895006Y-195248525D01*
X104895005Y-195248525D01*
X104895004Y-195248525D01*
X104651190Y-195285834D01*
X104651180Y-195285837D01*
X104416732Y-195362466D01*
X104197951Y-195476356D01*
X104197948Y-195476358D01*
X104000698Y-195624456D01*
X103830289Y-195802779D01*
X103830279Y-195802792D01*
X103691287Y-196006547D01*
X103691285Y-196006552D01*
X103587439Y-196230268D01*
X103587436Y-196230276D01*
X103521520Y-196467960D01*
X103521518Y-196467967D01*
X103507217Y-196601788D01*
X103480520Y-196666356D01*
X103423152Y-196706241D01*
X103353329Y-196708779D01*
X103296238Y-196676292D01*
X102214819Y-195594873D01*
X102181334Y-195533550D01*
X102178500Y-195507192D01*
X102178500Y-193251902D01*
X103499500Y-193251902D01*
X103499500Y-193488097D01*
X103536446Y-193721368D01*
X103609433Y-193945996D01*
X103716657Y-194156433D01*
X103855483Y-194347510D01*
X104022490Y-194514517D01*
X104213567Y-194653343D01*
X104312991Y-194704002D01*
X104424003Y-194760566D01*
X104424005Y-194760566D01*
X104424008Y-194760568D01*
X104544412Y-194799689D01*
X104648631Y-194833553D01*
X104881903Y-194870500D01*
X104881908Y-194870500D01*
X105118097Y-194870500D01*
X105351368Y-194833553D01*
X105575992Y-194760568D01*
X105786433Y-194653343D01*
X105977510Y-194514517D01*
X106144517Y-194347510D01*
X106283343Y-194156433D01*
X106390568Y-193945992D01*
X106463553Y-193721368D01*
X106500500Y-193488097D01*
X106500500Y-193251902D01*
X106463553Y-193018631D01*
X106390566Y-192794003D01*
X106283342Y-192583566D01*
X106144517Y-192392490D01*
X105977510Y-192225483D01*
X105786433Y-192086657D01*
X105625160Y-192004484D01*
X105574365Y-191956510D01*
X105557570Y-191888689D01*
X105580107Y-191822555D01*
X105634822Y-191779103D01*
X105681456Y-191770000D01*
X106047828Y-191770000D01*
X106047844Y-191769999D01*
X106107372Y-191763598D01*
X106107379Y-191763596D01*
X106242086Y-191713354D01*
X106242093Y-191713350D01*
X106357187Y-191627190D01*
X106357190Y-191627187D01*
X106443350Y-191512093D01*
X106443354Y-191512086D01*
X106493596Y-191377379D01*
X106493598Y-191377372D01*
X106499999Y-191317844D01*
X106500000Y-191317827D01*
X106500000Y-190520000D01*
X105490748Y-190520000D01*
X105512518Y-190482292D01*
X105550000Y-190342409D01*
X105550000Y-190197591D01*
X105512518Y-190057708D01*
X105490748Y-190020000D01*
X106500000Y-190020000D01*
X106500000Y-189222172D01*
X106499999Y-189222155D01*
X106493598Y-189162627D01*
X106493596Y-189162620D01*
X106443354Y-189027913D01*
X106443350Y-189027906D01*
X106357190Y-188912812D01*
X106357187Y-188912809D01*
X106242093Y-188826649D01*
X106242086Y-188826645D01*
X106107379Y-188776403D01*
X106107372Y-188776401D01*
X106047844Y-188770000D01*
X105250000Y-188770000D01*
X105250000Y-189779252D01*
X105212292Y-189757482D01*
X105072409Y-189720000D01*
X104927591Y-189720000D01*
X104787708Y-189757482D01*
X104750000Y-189779252D01*
X104750000Y-188770000D01*
X103952155Y-188770000D01*
X103892627Y-188776401D01*
X103892620Y-188776403D01*
X103757913Y-188826645D01*
X103757906Y-188826649D01*
X103642812Y-188912809D01*
X103642809Y-188912812D01*
X103556649Y-189027906D01*
X103556645Y-189027913D01*
X103506403Y-189162620D01*
X103506401Y-189162627D01*
X103500000Y-189222155D01*
X103500000Y-190020000D01*
X104509252Y-190020000D01*
X104487482Y-190057708D01*
X104450000Y-190197591D01*
X104450000Y-190342409D01*
X104487482Y-190482292D01*
X104509252Y-190520000D01*
X103500000Y-190520000D01*
X103500000Y-191317844D01*
X103506401Y-191377372D01*
X103506403Y-191377379D01*
X103556645Y-191512086D01*
X103556649Y-191512093D01*
X103642809Y-191627187D01*
X103642812Y-191627190D01*
X103757906Y-191713350D01*
X103757913Y-191713354D01*
X103892620Y-191763596D01*
X103892627Y-191763598D01*
X103952155Y-191769999D01*
X103952172Y-191770000D01*
X104318544Y-191770000D01*
X104385583Y-191789685D01*
X104431338Y-191842489D01*
X104441282Y-191911647D01*
X104412257Y-191975203D01*
X104374839Y-192004485D01*
X104213566Y-192086657D01*
X104104550Y-192165862D01*
X104022490Y-192225483D01*
X104022488Y-192225485D01*
X104022487Y-192225485D01*
X103855485Y-192392487D01*
X103855485Y-192392488D01*
X103855483Y-192392490D01*
X103795862Y-192474550D01*
X103716657Y-192583566D01*
X103609433Y-192794003D01*
X103536446Y-193018631D01*
X103499500Y-193251902D01*
X102178500Y-193251902D01*
X102178500Y-182182499D01*
X102198185Y-182115460D01*
X102250989Y-182069705D01*
X102302500Y-182058499D01*
X105105871Y-182058499D01*
X105105872Y-182058499D01*
X105165483Y-182052091D01*
X105300331Y-182001796D01*
X105415546Y-181915546D01*
X105501796Y-181800331D01*
X105552091Y-181665483D01*
X105558500Y-181605873D01*
X105558499Y-178394128D01*
X105552091Y-178334517D01*
X105501796Y-178199669D01*
X105501795Y-178199668D01*
X105501793Y-178199664D01*
X105415547Y-178084455D01*
X105415544Y-178084452D01*
X105300335Y-177998206D01*
X105300328Y-177998202D01*
X105165482Y-177947908D01*
X105165483Y-177947908D01*
X105105883Y-177941501D01*
X105105881Y-177941500D01*
X105105873Y-177941500D01*
X105105865Y-177941500D01*
X102302500Y-177941500D01*
X102235461Y-177921815D01*
X102189706Y-177869011D01*
X102178500Y-177817500D01*
X102178500Y-162182499D01*
X102198185Y-162115460D01*
X102250989Y-162069705D01*
X102302500Y-162058499D01*
X105105871Y-162058499D01*
X105105872Y-162058499D01*
X105165483Y-162052091D01*
X105300331Y-162001796D01*
X105415546Y-161915546D01*
X105501796Y-161800331D01*
X105552091Y-161665483D01*
X105558500Y-161605873D01*
X105558499Y-158394128D01*
X105552439Y-158337753D01*
X105564846Y-158268994D01*
X105612457Y-158217857D01*
X105675729Y-158200500D01*
X105788693Y-158200500D01*
X105788694Y-158200499D01*
X105875025Y-158183327D01*
X105962658Y-158165896D01*
X105962661Y-158165894D01*
X105962666Y-158165894D01*
X105978047Y-158159522D01*
X106047515Y-158152053D01*
X106109994Y-158183327D01*
G37*
%TD.AperFunction*%
%TA.AperFunction,Conductor*%
G36*
X116708362Y-152726355D02*
G01*
X116745082Y-152785798D01*
X116749500Y-152818604D01*
X116749500Y-156564069D01*
X116761903Y-156626420D01*
X116762073Y-156627278D01*
X116762079Y-156627307D01*
X116774497Y-156689736D01*
X116774499Y-156689744D01*
X116823534Y-156808125D01*
X116894726Y-156914673D01*
X116894727Y-156914674D01*
X125671761Y-165691707D01*
X125705246Y-165753030D01*
X125700262Y-165822722D01*
X125658390Y-165878655D01*
X125652973Y-165882489D01*
X125625963Y-165900536D01*
X125500538Y-166025961D01*
X125500535Y-166025965D01*
X125401990Y-166173446D01*
X125401983Y-166173459D01*
X125334106Y-166337332D01*
X125334103Y-166337341D01*
X125299500Y-166511304D01*
X125299500Y-166511309D01*
X125299500Y-166688691D01*
X125299500Y-166688693D01*
X125299499Y-166688693D01*
X125322117Y-166802392D01*
X125324500Y-166826584D01*
X125324500Y-168273414D01*
X125322117Y-168297606D01*
X125299500Y-168411306D01*
X125299500Y-168588695D01*
X125334103Y-168762658D01*
X125334106Y-168762667D01*
X125401983Y-168926540D01*
X125401990Y-168926553D01*
X125500535Y-169074034D01*
X125500538Y-169074038D01*
X125625961Y-169199461D01*
X125625965Y-169199464D01*
X125773446Y-169298009D01*
X125773459Y-169298016D01*
X125896363Y-169348923D01*
X125937334Y-169365894D01*
X125937336Y-169365894D01*
X125937341Y-169365896D01*
X126111304Y-169400499D01*
X126111307Y-169400500D01*
X126111309Y-169400500D01*
X126288693Y-169400500D01*
X126288694Y-169400499D01*
X126346682Y-169388964D01*
X126462658Y-169365896D01*
X126462661Y-169365894D01*
X126462666Y-169365894D01*
X126626547Y-169298013D01*
X126774035Y-169199464D01*
X126899464Y-169074035D01*
X126998013Y-168926547D01*
X127065894Y-168762666D01*
X127100500Y-168588691D01*
X127100500Y-168411309D01*
X127100500Y-168411306D01*
X127077883Y-168297606D01*
X127075500Y-168273414D01*
X127075500Y-167394808D01*
X127095185Y-167327769D01*
X127147989Y-167282014D01*
X127217147Y-167272070D01*
X127280703Y-167301095D01*
X127287181Y-167307127D01*
X128013181Y-168033127D01*
X128046666Y-168094450D01*
X128049500Y-168120808D01*
X128049500Y-177817500D01*
X128029815Y-177884539D01*
X127977011Y-177930294D01*
X127925500Y-177941500D01*
X124894129Y-177941500D01*
X124894123Y-177941501D01*
X124834516Y-177947908D01*
X124699671Y-177998202D01*
X124699664Y-177998206D01*
X124584455Y-178084452D01*
X124584452Y-178084455D01*
X124498206Y-178199664D01*
X124498202Y-178199671D01*
X124447908Y-178334517D01*
X124441501Y-178394116D01*
X124441501Y-178394123D01*
X124441500Y-178394135D01*
X124441500Y-181605870D01*
X124441501Y-181605876D01*
X124447908Y-181665483D01*
X124498202Y-181800328D01*
X124498206Y-181800335D01*
X124584452Y-181915544D01*
X124584455Y-181915547D01*
X124699664Y-182001793D01*
X124699671Y-182001797D01*
X124834517Y-182052091D01*
X124834516Y-182052091D01*
X124841444Y-182052835D01*
X124894127Y-182058500D01*
X127925500Y-182058499D01*
X127992539Y-182078184D01*
X128038294Y-182130988D01*
X128049500Y-182182499D01*
X128049500Y-197649191D01*
X128029815Y-197716230D01*
X128013181Y-197736872D01*
X125550193Y-200199859D01*
X125488870Y-200233344D01*
X125424194Y-200230109D01*
X125351370Y-200206447D01*
X125118097Y-200169500D01*
X125118092Y-200169500D01*
X124881908Y-200169500D01*
X124881903Y-200169500D01*
X124648631Y-200206446D01*
X124424003Y-200279433D01*
X124213566Y-200386657D01*
X124104550Y-200465862D01*
X124022490Y-200525483D01*
X124022488Y-200525485D01*
X124022487Y-200525485D01*
X123855485Y-200692487D01*
X123855485Y-200692488D01*
X123855483Y-200692490D01*
X123795862Y-200774550D01*
X123716657Y-200883566D01*
X123609433Y-201094003D01*
X123536446Y-201318631D01*
X123499500Y-201551902D01*
X123499500Y-201788097D01*
X123536446Y-202021368D01*
X123609433Y-202245996D01*
X123685075Y-202394450D01*
X123716657Y-202456433D01*
X123855483Y-202647510D01*
X124022490Y-202814517D01*
X124213567Y-202953343D01*
X124312991Y-203004002D01*
X124424003Y-203060566D01*
X124424005Y-203060566D01*
X124424008Y-203060568D01*
X124544412Y-203099689D01*
X124648631Y-203133553D01*
X124881903Y-203170500D01*
X124881908Y-203170500D01*
X125118097Y-203170500D01*
X125351368Y-203133553D01*
X125575992Y-203060568D01*
X125786433Y-202953343D01*
X125977510Y-202814517D01*
X126144517Y-202647510D01*
X126283343Y-202456433D01*
X126390568Y-202245992D01*
X126463553Y-202021368D01*
X126471679Y-201970063D01*
X126500500Y-201788097D01*
X126500500Y-201551902D01*
X126480347Y-201424666D01*
X126463553Y-201318632D01*
X126439888Y-201245802D01*
X126437894Y-201175963D01*
X126470137Y-201119807D01*
X128787819Y-198802126D01*
X128849142Y-198768641D01*
X128918834Y-198773625D01*
X128974767Y-198815497D01*
X128999184Y-198880961D01*
X128999500Y-198889807D01*
X128999500Y-217625500D01*
X128979815Y-217692539D01*
X128927011Y-217738294D01*
X128875500Y-217749500D01*
X126313781Y-217749500D01*
X126246742Y-217729815D01*
X126200987Y-217677011D01*
X126191043Y-217607853D01*
X126213463Y-217552614D01*
X126283343Y-217456433D01*
X126390568Y-217245992D01*
X126463553Y-217021368D01*
X126500500Y-216788097D01*
X126500500Y-216551902D01*
X126463553Y-216318631D01*
X126417197Y-216175963D01*
X126390568Y-216094008D01*
X126390566Y-216094005D01*
X126390566Y-216094003D01*
X126283342Y-215883566D01*
X126144517Y-215692490D01*
X125977510Y-215525483D01*
X125786433Y-215386657D01*
X125575996Y-215279433D01*
X125351368Y-215206446D01*
X125118097Y-215169500D01*
X125118092Y-215169500D01*
X124881908Y-215169500D01*
X124881903Y-215169500D01*
X124648628Y-215206447D01*
X124575803Y-215230109D01*
X124505962Y-215232104D01*
X124449805Y-215199859D01*
X121362819Y-212112873D01*
X121329334Y-212051550D01*
X121326500Y-212025192D01*
X121326500Y-211713225D01*
X123495307Y-211713225D01*
X123509507Y-211959474D01*
X123509507Y-211959479D01*
X123563731Y-212200092D01*
X123656533Y-212428636D01*
X123785412Y-212638947D01*
X123860393Y-212725507D01*
X123946908Y-212825382D01*
X124136687Y-212982939D01*
X124136690Y-212982941D01*
X124136696Y-212982945D01*
X124349650Y-213107385D01*
X124580072Y-213195375D01*
X124580075Y-213195375D01*
X124580079Y-213195377D01*
X124821785Y-213244553D01*
X125068278Y-213253592D01*
X125312936Y-213222250D01*
X125549191Y-213151370D01*
X125770697Y-213042856D01*
X125971505Y-212899621D01*
X126146223Y-212725512D01*
X126290158Y-212525205D01*
X126399445Y-212304079D01*
X126471149Y-212068074D01*
X126503344Y-211823526D01*
X126505141Y-211750000D01*
X126484930Y-211504171D01*
X126424841Y-211264945D01*
X126326486Y-211038744D01*
X126192508Y-210831645D01*
X126026504Y-210649210D01*
X125832932Y-210496336D01*
X125616991Y-210377130D01*
X125616982Y-210377126D01*
X125384491Y-210294796D01*
X125384471Y-210294791D01*
X125141644Y-210251538D01*
X125141652Y-210251538D01*
X124900496Y-210248592D01*
X124895007Y-210248525D01*
X124895006Y-210248525D01*
X124895005Y-210248525D01*
X124895004Y-210248525D01*
X124651190Y-210285834D01*
X124651180Y-210285837D01*
X124416732Y-210362466D01*
X124197951Y-210476356D01*
X124197948Y-210476358D01*
X124000698Y-210624456D01*
X123830289Y-210802779D01*
X123830279Y-210802792D01*
X123691287Y-211006547D01*
X123691285Y-211006552D01*
X123587439Y-211230268D01*
X123587436Y-211230276D01*
X123521520Y-211467960D01*
X123521519Y-211467967D01*
X123495307Y-211713225D01*
X121326500Y-211713225D01*
X121326500Y-208251902D01*
X123499500Y-208251902D01*
X123499500Y-208488097D01*
X123536446Y-208721368D01*
X123609433Y-208945996D01*
X123716657Y-209156433D01*
X123855483Y-209347510D01*
X124022490Y-209514517D01*
X124213567Y-209653343D01*
X124312991Y-209704002D01*
X124424003Y-209760566D01*
X124424005Y-209760566D01*
X124424008Y-209760568D01*
X124544412Y-209799689D01*
X124648631Y-209833553D01*
X124881903Y-209870500D01*
X124881908Y-209870500D01*
X125118097Y-209870500D01*
X125351368Y-209833553D01*
X125575992Y-209760568D01*
X125786433Y-209653343D01*
X125977510Y-209514517D01*
X126144517Y-209347510D01*
X126283343Y-209156433D01*
X126390568Y-208945992D01*
X126463553Y-208721368D01*
X126500500Y-208488097D01*
X126500500Y-208251902D01*
X126463553Y-208018631D01*
X126390566Y-207794003D01*
X126283342Y-207583566D01*
X126144517Y-207392490D01*
X125977510Y-207225483D01*
X125786433Y-207086657D01*
X125625160Y-207004484D01*
X125574365Y-206956510D01*
X125557570Y-206888689D01*
X125580107Y-206822555D01*
X125634822Y-206779103D01*
X125681456Y-206770000D01*
X126047828Y-206770000D01*
X126047844Y-206769999D01*
X126107372Y-206763598D01*
X126107379Y-206763596D01*
X126242086Y-206713354D01*
X126242093Y-206713350D01*
X126357187Y-206627190D01*
X126357190Y-206627187D01*
X126443350Y-206512093D01*
X126443354Y-206512086D01*
X126493596Y-206377379D01*
X126493598Y-206377372D01*
X126499999Y-206317844D01*
X126500000Y-206317827D01*
X126500000Y-205520000D01*
X125490748Y-205520000D01*
X125512518Y-205482292D01*
X125550000Y-205342409D01*
X125550000Y-205197591D01*
X125512518Y-205057708D01*
X125490748Y-205020000D01*
X126500000Y-205020000D01*
X126500000Y-204222172D01*
X126499999Y-204222155D01*
X126493598Y-204162627D01*
X126493596Y-204162620D01*
X126443354Y-204027913D01*
X126443350Y-204027906D01*
X126357190Y-203912812D01*
X126357187Y-203912809D01*
X126242093Y-203826649D01*
X126242086Y-203826645D01*
X126107379Y-203776403D01*
X126107372Y-203776401D01*
X126047844Y-203770000D01*
X125250000Y-203770000D01*
X125250000Y-204779252D01*
X125212292Y-204757482D01*
X125072409Y-204720000D01*
X124927591Y-204720000D01*
X124787708Y-204757482D01*
X124750000Y-204779252D01*
X124750000Y-203770000D01*
X123952155Y-203770000D01*
X123892627Y-203776401D01*
X123892620Y-203776403D01*
X123757913Y-203826645D01*
X123757906Y-203826649D01*
X123642812Y-203912809D01*
X123642809Y-203912812D01*
X123556649Y-204027906D01*
X123556645Y-204027913D01*
X123506403Y-204162620D01*
X123506401Y-204162627D01*
X123500000Y-204222155D01*
X123500000Y-205020000D01*
X124509252Y-205020000D01*
X124487482Y-205057708D01*
X124450000Y-205197591D01*
X124450000Y-205342409D01*
X124487482Y-205482292D01*
X124509252Y-205520000D01*
X123500000Y-205520000D01*
X123500000Y-206317844D01*
X123506401Y-206377372D01*
X123506403Y-206377379D01*
X123556645Y-206512086D01*
X123556649Y-206512093D01*
X123642809Y-206627187D01*
X123642812Y-206627190D01*
X123757906Y-206713350D01*
X123757913Y-206713354D01*
X123892620Y-206763596D01*
X123892627Y-206763598D01*
X123952155Y-206769999D01*
X123952172Y-206770000D01*
X124318544Y-206770000D01*
X124385583Y-206789685D01*
X124431338Y-206842489D01*
X124441282Y-206911647D01*
X124412257Y-206975203D01*
X124374839Y-207004485D01*
X124213566Y-207086657D01*
X124107019Y-207164069D01*
X124022490Y-207225483D01*
X124022488Y-207225485D01*
X124022487Y-207225485D01*
X123855485Y-207392487D01*
X123855485Y-207392488D01*
X123855483Y-207392490D01*
X123844122Y-207408127D01*
X123716657Y-207583566D01*
X123609433Y-207794003D01*
X123536446Y-208018631D01*
X123499500Y-208251902D01*
X121326500Y-208251902D01*
X121326500Y-196713225D01*
X123495307Y-196713225D01*
X123509507Y-196959474D01*
X123509507Y-196959479D01*
X123563731Y-197200092D01*
X123656533Y-197428636D01*
X123785412Y-197638947D01*
X123794286Y-197649191D01*
X123946908Y-197825382D01*
X124136687Y-197982939D01*
X124136690Y-197982941D01*
X124136696Y-197982945D01*
X124349650Y-198107385D01*
X124580072Y-198195375D01*
X124580075Y-198195375D01*
X124580079Y-198195377D01*
X124821785Y-198244553D01*
X125068278Y-198253592D01*
X125312936Y-198222250D01*
X125549191Y-198151370D01*
X125770697Y-198042856D01*
X125971505Y-197899621D01*
X126146223Y-197725512D01*
X126290158Y-197525205D01*
X126399445Y-197304079D01*
X126471149Y-197068074D01*
X126503344Y-196823526D01*
X126505141Y-196750000D01*
X126484930Y-196504171D01*
X126424841Y-196264945D01*
X126326486Y-196038744D01*
X126192508Y-195831645D01*
X126026504Y-195649210D01*
X125832932Y-195496336D01*
X125616991Y-195377130D01*
X125616982Y-195377126D01*
X125384491Y-195294796D01*
X125384471Y-195294791D01*
X125141644Y-195251538D01*
X125141652Y-195251538D01*
X124900496Y-195248592D01*
X124895007Y-195248525D01*
X124895006Y-195248525D01*
X124895005Y-195248525D01*
X124895004Y-195248525D01*
X124651190Y-195285834D01*
X124651180Y-195285837D01*
X124416732Y-195362466D01*
X124197951Y-195476356D01*
X124197948Y-195476358D01*
X124000698Y-195624456D01*
X123830289Y-195802779D01*
X123830279Y-195802792D01*
X123691287Y-196006547D01*
X123691285Y-196006552D01*
X123587439Y-196230268D01*
X123587436Y-196230276D01*
X123521520Y-196467960D01*
X123521519Y-196467967D01*
X123495307Y-196713225D01*
X121326500Y-196713225D01*
X121326500Y-193251902D01*
X123499500Y-193251902D01*
X123499500Y-193488097D01*
X123536446Y-193721368D01*
X123609433Y-193945996D01*
X123716657Y-194156433D01*
X123855483Y-194347510D01*
X124022490Y-194514517D01*
X124213567Y-194653343D01*
X124312991Y-194704002D01*
X124424003Y-194760566D01*
X124424005Y-194760566D01*
X124424008Y-194760568D01*
X124544412Y-194799689D01*
X124648631Y-194833553D01*
X124881903Y-194870500D01*
X124881908Y-194870500D01*
X125118097Y-194870500D01*
X125351368Y-194833553D01*
X125575992Y-194760568D01*
X125786433Y-194653343D01*
X125977510Y-194514517D01*
X126144517Y-194347510D01*
X126283343Y-194156433D01*
X126390568Y-193945992D01*
X126463553Y-193721368D01*
X126500500Y-193488097D01*
X126500500Y-193251902D01*
X126463553Y-193018631D01*
X126390566Y-192794003D01*
X126283342Y-192583566D01*
X126144517Y-192392490D01*
X125977510Y-192225483D01*
X125786433Y-192086657D01*
X125625160Y-192004484D01*
X125574365Y-191956510D01*
X125557570Y-191888689D01*
X125580107Y-191822555D01*
X125634822Y-191779103D01*
X125681456Y-191770000D01*
X126047828Y-191770000D01*
X126047844Y-191769999D01*
X126107372Y-191763598D01*
X126107379Y-191763596D01*
X126242086Y-191713354D01*
X126242093Y-191713350D01*
X126357187Y-191627190D01*
X126357190Y-191627187D01*
X126443350Y-191512093D01*
X126443354Y-191512086D01*
X126493596Y-191377379D01*
X126493598Y-191377372D01*
X126499999Y-191317844D01*
X126500000Y-191317827D01*
X126500000Y-190520000D01*
X125490748Y-190520000D01*
X125512518Y-190482292D01*
X125550000Y-190342409D01*
X125550000Y-190197591D01*
X125512518Y-190057708D01*
X125490748Y-190020000D01*
X126500000Y-190020000D01*
X126500000Y-189222172D01*
X126499999Y-189222155D01*
X126493598Y-189162627D01*
X126493596Y-189162620D01*
X126443354Y-189027913D01*
X126443350Y-189027906D01*
X126357190Y-188912812D01*
X126357187Y-188912809D01*
X126242093Y-188826649D01*
X126242086Y-188826645D01*
X126107379Y-188776403D01*
X126107372Y-188776401D01*
X126047844Y-188770000D01*
X125250000Y-188770000D01*
X125250000Y-189779252D01*
X125212292Y-189757482D01*
X125072409Y-189720000D01*
X124927591Y-189720000D01*
X124787708Y-189757482D01*
X124750000Y-189779252D01*
X124750000Y-188770000D01*
X123952155Y-188770000D01*
X123892627Y-188776401D01*
X123892620Y-188776403D01*
X123757913Y-188826645D01*
X123757906Y-188826649D01*
X123642812Y-188912809D01*
X123642809Y-188912812D01*
X123556649Y-189027906D01*
X123556645Y-189027913D01*
X123506403Y-189162620D01*
X123506401Y-189162627D01*
X123500000Y-189222155D01*
X123500000Y-190020000D01*
X124509252Y-190020000D01*
X124487482Y-190057708D01*
X124450000Y-190197591D01*
X124450000Y-190342409D01*
X124487482Y-190482292D01*
X124509252Y-190520000D01*
X123500000Y-190520000D01*
X123500000Y-191317844D01*
X123506401Y-191377372D01*
X123506403Y-191377379D01*
X123556645Y-191512086D01*
X123556649Y-191512093D01*
X123642809Y-191627187D01*
X123642812Y-191627190D01*
X123757906Y-191713350D01*
X123757913Y-191713354D01*
X123892620Y-191763596D01*
X123892627Y-191763598D01*
X123952155Y-191769999D01*
X123952172Y-191770000D01*
X124318544Y-191770000D01*
X124385583Y-191789685D01*
X124431338Y-191842489D01*
X124441282Y-191911647D01*
X124412257Y-191975203D01*
X124374839Y-192004485D01*
X124213566Y-192086657D01*
X124104550Y-192165862D01*
X124022490Y-192225483D01*
X124022488Y-192225485D01*
X124022487Y-192225485D01*
X123855485Y-192392487D01*
X123855485Y-192392488D01*
X123855483Y-192392490D01*
X123795862Y-192474550D01*
X123716657Y-192583566D01*
X123609433Y-192794003D01*
X123536446Y-193018631D01*
X123499500Y-193251902D01*
X121326500Y-193251902D01*
X121326500Y-188345550D01*
X121346185Y-188278511D01*
X121398989Y-188232756D01*
X121468147Y-188222812D01*
X121488819Y-188227619D01*
X121491175Y-188228384D01*
X121491184Y-188228389D01*
X121655053Y-188281633D01*
X121689610Y-188292862D01*
X121895676Y-188325500D01*
X121895681Y-188325500D01*
X122104324Y-188325500D01*
X122310389Y-188292862D01*
X122508816Y-188228389D01*
X122694714Y-188133670D01*
X122863505Y-188011035D01*
X123011035Y-187863505D01*
X123133670Y-187694714D01*
X123139515Y-187683243D01*
X123187489Y-187632447D01*
X123255310Y-187615651D01*
X123321445Y-187638188D01*
X123360485Y-187683243D01*
X123366328Y-187694712D01*
X123448086Y-187807241D01*
X123488965Y-187863505D01*
X123636495Y-188011035D01*
X123805286Y-188133670D01*
X123860760Y-188161935D01*
X123991179Y-188228387D01*
X123991181Y-188228387D01*
X123991184Y-188228389D01*
X124097545Y-188262948D01*
X124189610Y-188292862D01*
X124395676Y-188325500D01*
X124395681Y-188325500D01*
X124604324Y-188325500D01*
X124810389Y-188292862D01*
X125008816Y-188228389D01*
X125194714Y-188133670D01*
X125363505Y-188011035D01*
X125511035Y-187863505D01*
X125633670Y-187694714D01*
X125728389Y-187508816D01*
X125792862Y-187310389D01*
X125802427Y-187250000D01*
X125825500Y-187104324D01*
X125825500Y-186895675D01*
X125792862Y-186689610D01*
X125750000Y-186557695D01*
X125728389Y-186491184D01*
X125728387Y-186491181D01*
X125728387Y-186491179D01*
X125662470Y-186361809D01*
X125633670Y-186305286D01*
X125511035Y-186136495D01*
X125363505Y-185988965D01*
X125194714Y-185866330D01*
X125150500Y-185843802D01*
X125008820Y-185771612D01*
X124810389Y-185707137D01*
X124604324Y-185674500D01*
X124604319Y-185674500D01*
X124395681Y-185674500D01*
X124395676Y-185674500D01*
X124189610Y-185707137D01*
X123991179Y-185771612D01*
X123805285Y-185866330D01*
X123636493Y-185988966D01*
X123488966Y-186136493D01*
X123366330Y-186305286D01*
X123360484Y-186316759D01*
X123312508Y-186367554D01*
X123244687Y-186384348D01*
X123178553Y-186361809D01*
X123139516Y-186316759D01*
X123138303Y-186314380D01*
X123133670Y-186305286D01*
X123011035Y-186136495D01*
X122863505Y-185988965D01*
X122701614Y-185871343D01*
X122658949Y-185816012D01*
X122650500Y-185771025D01*
X122650500Y-180294931D01*
X122670185Y-180227892D01*
X122671398Y-180226040D01*
X122753703Y-180102863D01*
X122817816Y-179948082D01*
X122850500Y-179783767D01*
X122850500Y-179616233D01*
X122817816Y-179451918D01*
X122753703Y-179297137D01*
X122673500Y-179177105D01*
X122660626Y-179157837D01*
X122542162Y-179039373D01*
X122402860Y-178946295D01*
X122248082Y-178882184D01*
X122248074Y-178882182D01*
X122083771Y-178849500D01*
X122083767Y-178849500D01*
X121916233Y-178849500D01*
X121916228Y-178849500D01*
X121751925Y-178882182D01*
X121751917Y-178882184D01*
X121597140Y-178946295D01*
X121519390Y-178998246D01*
X121452713Y-179019123D01*
X121385333Y-179000638D01*
X121338643Y-178948659D01*
X121326500Y-178895143D01*
X121326500Y-162411928D01*
X121301502Y-162286261D01*
X121301501Y-162286260D01*
X121301501Y-162286256D01*
X121252465Y-162167873D01*
X121213299Y-162109257D01*
X121181276Y-162061330D01*
X116486819Y-157366873D01*
X116453334Y-157305550D01*
X116450500Y-157279192D01*
X116450500Y-152894931D01*
X116455827Y-152876787D01*
X116456165Y-152857878D01*
X116469665Y-152829660D01*
X116470185Y-152827892D01*
X116471398Y-152826040D01*
X116488616Y-152800272D01*
X116522399Y-152749711D01*
X116576010Y-152704908D01*
X116645335Y-152696201D01*
X116708362Y-152726355D01*
G37*
%TD.AperFunction*%
%TA.AperFunction,Conductor*%
G36*
X128958362Y-137890856D02*
G01*
X128995082Y-137950299D01*
X128999500Y-137983105D01*
X128999500Y-166880192D01*
X128979815Y-166947231D01*
X128927011Y-166992986D01*
X128857853Y-167002930D01*
X128794297Y-166973905D01*
X128787819Y-166967873D01*
X118086819Y-156266873D01*
X118053334Y-156205550D01*
X118050500Y-156179192D01*
X118050500Y-152755457D01*
X118070185Y-152688418D01*
X118122989Y-152642663D01*
X118192147Y-152632719D01*
X118255703Y-152661744D01*
X118284985Y-152699163D01*
X118302609Y-152733754D01*
X118348932Y-152797513D01*
X119017037Y-152129408D01*
X119034075Y-152192993D01*
X119099901Y-152307007D01*
X119192993Y-152400099D01*
X119307007Y-152465925D01*
X119370590Y-152482962D01*
X118702485Y-153151065D01*
X118702485Y-153151066D01*
X118766243Y-153197388D01*
X118962589Y-153297432D01*
X119172164Y-153365526D01*
X119389819Y-153400000D01*
X119610181Y-153400000D01*
X119827835Y-153365526D01*
X120037410Y-153297432D01*
X120233760Y-153197386D01*
X120297513Y-153151066D01*
X120297514Y-153151066D01*
X119629409Y-152482962D01*
X119692993Y-152465925D01*
X119807007Y-152400099D01*
X119900099Y-152307007D01*
X119965925Y-152192993D01*
X119982962Y-152129410D01*
X120651066Y-152797514D01*
X120652547Y-152797397D01*
X120704700Y-152757180D01*
X120774314Y-152751200D01*
X120836109Y-152783806D01*
X120850008Y-152799846D01*
X120931752Y-152912359D01*
X121087636Y-153068243D01*
X121087641Y-153068247D01*
X121124369Y-153094931D01*
X121265978Y-153197815D01*
X121394375Y-153263237D01*
X121462393Y-153297895D01*
X121462396Y-153297896D01*
X121567221Y-153331955D01*
X121672049Y-153366015D01*
X121889778Y-153400500D01*
X121889779Y-153400500D01*
X122110221Y-153400500D01*
X122110222Y-153400500D01*
X122327951Y-153366015D01*
X122537606Y-153297895D01*
X122734022Y-153197815D01*
X122912365Y-153068242D01*
X123068242Y-152912365D01*
X123149682Y-152800270D01*
X123205011Y-152757606D01*
X123274624Y-152751627D01*
X123336420Y-152784232D01*
X123350313Y-152800265D01*
X123431753Y-152912358D01*
X123431758Y-152912365D01*
X123587636Y-153068243D01*
X123587641Y-153068247D01*
X123624369Y-153094931D01*
X123765978Y-153197815D01*
X123894375Y-153263237D01*
X123962393Y-153297895D01*
X123962396Y-153297896D01*
X124067221Y-153331955D01*
X124172049Y-153366015D01*
X124389778Y-153400500D01*
X124389779Y-153400500D01*
X124610221Y-153400500D01*
X124610222Y-153400500D01*
X124827951Y-153366015D01*
X125037606Y-153297895D01*
X125234022Y-153197815D01*
X125412365Y-153068242D01*
X125568242Y-152912365D01*
X125697815Y-152734022D01*
X125705874Y-152718204D01*
X125753848Y-152667409D01*
X125816359Y-152650500D01*
X126064071Y-152650500D01*
X126159063Y-152631604D01*
X126189744Y-152625501D01*
X126308127Y-152576465D01*
X126326679Y-152564069D01*
X126414669Y-152505277D01*
X127405276Y-151514669D01*
X127476465Y-151408127D01*
X127525501Y-151289744D01*
X127542853Y-151202513D01*
X127543253Y-151200502D01*
X127543253Y-151200499D01*
X127550500Y-151164069D01*
X127550500Y-147435928D01*
X127525502Y-147310260D01*
X127525500Y-147310254D01*
X127518953Y-147294450D01*
X127505189Y-147261221D01*
X127476466Y-147191874D01*
X127405277Y-147085331D01*
X127405272Y-147085325D01*
X125186819Y-144866872D01*
X125153334Y-144805549D01*
X125150500Y-144779191D01*
X125150500Y-144022243D01*
X125170185Y-143955204D01*
X125222989Y-143909449D01*
X125287756Y-143898954D01*
X125302127Y-143900500D01*
X128197872Y-143900499D01*
X128257483Y-143894091D01*
X128392331Y-143843796D01*
X128507546Y-143757546D01*
X128593796Y-143642331D01*
X128644091Y-143507483D01*
X128650500Y-143447873D01*
X128650499Y-140552128D01*
X128644091Y-140492517D01*
X128612262Y-140407180D01*
X128593797Y-140357671D01*
X128593793Y-140357664D01*
X128507547Y-140242455D01*
X128507544Y-140242452D01*
X128392335Y-140156206D01*
X128392328Y-140156202D01*
X128257482Y-140105908D01*
X128257483Y-140105908D01*
X128197883Y-140099501D01*
X128197881Y-140099500D01*
X128197873Y-140099500D01*
X128197864Y-140099500D01*
X125302129Y-140099500D01*
X125302121Y-140099501D01*
X125287752Y-140101046D01*
X125218993Y-140088639D01*
X125167857Y-140041027D01*
X125150500Y-139977756D01*
X125150500Y-139620807D01*
X125170185Y-139553768D01*
X125186814Y-139533131D01*
X126537819Y-138182125D01*
X126599142Y-138148641D01*
X126668834Y-138153625D01*
X126724767Y-138195497D01*
X126749184Y-138260961D01*
X126749500Y-138269807D01*
X126749500Y-138283771D01*
X126782182Y-138448074D01*
X126782184Y-138448082D01*
X126846295Y-138602860D01*
X126939373Y-138742162D01*
X127057837Y-138860626D01*
X127135251Y-138912352D01*
X127197137Y-138953703D01*
X127351918Y-139017816D01*
X127516228Y-139050499D01*
X127516232Y-139050500D01*
X127516233Y-139050500D01*
X127683768Y-139050500D01*
X127683769Y-139050499D01*
X127848082Y-139017816D01*
X128002863Y-138953703D01*
X128142162Y-138860626D01*
X128260626Y-138742162D01*
X128353703Y-138602863D01*
X128417816Y-138448082D01*
X128446718Y-138302776D01*
X128479102Y-138240869D01*
X128480543Y-138239401D01*
X128705276Y-138014669D01*
X128772398Y-137914214D01*
X128826010Y-137869409D01*
X128895335Y-137860702D01*
X128958362Y-137890856D01*
G37*
%TD.AperFunction*%
%TA.AperFunction,Conductor*%
G36*
X128942539Y-110770185D02*
G01*
X128988294Y-110822989D01*
X128999500Y-110874500D01*
X128999500Y-125397349D01*
X128979815Y-125464388D01*
X128927011Y-125510143D01*
X128857853Y-125520087D01*
X128794297Y-125491062D01*
X128787819Y-125485030D01*
X128742162Y-125439373D01*
X128602860Y-125346295D01*
X128448082Y-125282184D01*
X128448074Y-125282182D01*
X128283771Y-125249500D01*
X128283767Y-125249500D01*
X128274500Y-125249500D01*
X128207461Y-125229815D01*
X128161706Y-125177011D01*
X128150500Y-125125500D01*
X128150500Y-115135928D01*
X128125502Y-115010261D01*
X128125501Y-115010260D01*
X128125501Y-115010256D01*
X128076465Y-114891873D01*
X128076465Y-114891872D01*
X128059334Y-114866235D01*
X128059330Y-114866229D01*
X128059329Y-114866228D01*
X128050855Y-114853544D01*
X128032434Y-114802059D01*
X128031689Y-114802208D01*
X128030688Y-114797179D01*
X128030557Y-114796811D01*
X128030500Y-114796238D01*
X128030500Y-114796233D01*
X127997816Y-114631918D01*
X127933703Y-114477137D01*
X127887398Y-114407837D01*
X127840626Y-114337837D01*
X127722162Y-114219373D01*
X127582860Y-114126295D01*
X127428082Y-114062184D01*
X127428074Y-114062182D01*
X127263771Y-114029500D01*
X127263767Y-114029500D01*
X127096233Y-114029500D01*
X127096228Y-114029500D01*
X126931925Y-114062182D01*
X126931917Y-114062184D01*
X126777139Y-114126295D01*
X126637837Y-114219373D01*
X126519373Y-114337837D01*
X126426295Y-114477139D01*
X126362184Y-114631917D01*
X126362182Y-114631925D01*
X126329500Y-114796228D01*
X126329500Y-114963771D01*
X126362182Y-115128074D01*
X126362184Y-115128082D01*
X126426295Y-115282860D01*
X126519373Y-115422162D01*
X126637837Y-115540626D01*
X126655291Y-115552288D01*
X126777137Y-115633703D01*
X126777138Y-115633703D01*
X126777139Y-115633704D01*
X126782515Y-115636578D01*
X126781356Y-115638744D01*
X126827351Y-115675804D01*
X126849421Y-115742096D01*
X126849500Y-115746531D01*
X126849500Y-131579192D01*
X126829815Y-131646231D01*
X126813181Y-131666873D01*
X123562181Y-134917873D01*
X123500858Y-134951358D01*
X123431166Y-134946374D01*
X123375233Y-134904502D01*
X123350816Y-134839038D01*
X123350500Y-134830192D01*
X123350500Y-128994931D01*
X123370185Y-128927892D01*
X123371398Y-128926040D01*
X123453703Y-128802863D01*
X123517816Y-128648082D01*
X123550500Y-128483767D01*
X123550500Y-128316233D01*
X123517816Y-128151918D01*
X123453703Y-127997137D01*
X123422537Y-127950494D01*
X123360626Y-127857837D01*
X123242162Y-127739373D01*
X123102860Y-127646295D01*
X122948082Y-127582184D01*
X122948074Y-127582182D01*
X122783771Y-127549500D01*
X122783767Y-127549500D01*
X122774500Y-127549500D01*
X122707461Y-127529815D01*
X122661706Y-127477011D01*
X122650500Y-127425500D01*
X122650500Y-125996500D01*
X122670185Y-125929461D01*
X122722989Y-125883706D01*
X122774500Y-125872500D01*
X122783768Y-125872500D01*
X122783769Y-125872499D01*
X122948082Y-125839816D01*
X123102863Y-125775703D01*
X123242162Y-125682626D01*
X123360626Y-125564162D01*
X123453703Y-125424863D01*
X123517816Y-125270082D01*
X123550500Y-125105767D01*
X123550500Y-124938233D01*
X123517816Y-124773918D01*
X123453703Y-124619137D01*
X123371398Y-124495959D01*
X123350520Y-124429281D01*
X123350500Y-124427068D01*
X123350500Y-118286531D01*
X123370185Y-118219492D01*
X123418189Y-118177895D01*
X123417485Y-118176578D01*
X123422857Y-118173705D01*
X123422863Y-118173703D01*
X123562162Y-118080626D01*
X123680626Y-117962162D01*
X123773703Y-117822863D01*
X123837816Y-117668082D01*
X123870500Y-117503767D01*
X123870500Y-117336233D01*
X123837816Y-117171918D01*
X123773703Y-117017137D01*
X123742537Y-116970494D01*
X123680626Y-116877837D01*
X123562162Y-116759373D01*
X123422860Y-116666295D01*
X123268082Y-116602184D01*
X123268074Y-116602182D01*
X123103771Y-116569500D01*
X123103767Y-116569500D01*
X122936233Y-116569500D01*
X122936228Y-116569500D01*
X122798691Y-116596858D01*
X122729099Y-116590631D01*
X122673922Y-116547768D01*
X122650678Y-116481878D01*
X122650500Y-116475241D01*
X122650500Y-115470101D01*
X122670185Y-115403062D01*
X122671398Y-115401210D01*
X122703703Y-115352863D01*
X122767816Y-115198082D01*
X122800500Y-115033767D01*
X122800500Y-114866233D01*
X122800500Y-114866229D01*
X122800499Y-114866228D01*
X122767817Y-114701925D01*
X122767816Y-114701918D01*
X122703703Y-114547137D01*
X122656930Y-114477137D01*
X122610626Y-114407837D01*
X122492162Y-114289373D01*
X122352860Y-114196295D01*
X122198082Y-114132184D01*
X122198074Y-114132182D01*
X122033771Y-114099500D01*
X122033767Y-114099500D01*
X121866233Y-114099500D01*
X121866228Y-114099500D01*
X121701925Y-114132182D01*
X121701917Y-114132184D01*
X121547139Y-114196295D01*
X121407837Y-114289373D01*
X121289373Y-114407837D01*
X121196295Y-114547139D01*
X121132184Y-114701917D01*
X121132182Y-114701925D01*
X121099500Y-114866228D01*
X121099500Y-115033771D01*
X121132182Y-115198074D01*
X121132184Y-115198082D01*
X121196295Y-115352860D01*
X121289372Y-115492160D01*
X121289373Y-115492161D01*
X121289374Y-115492162D01*
X121313181Y-115515969D01*
X121346666Y-115577290D01*
X121349500Y-115603650D01*
X121349500Y-139076638D01*
X121345124Y-139091538D01*
X121345711Y-139107056D01*
X121335482Y-139124377D01*
X121329815Y-139143677D01*
X121318080Y-139153845D01*
X121310183Y-139167218D01*
X121292212Y-139176260D01*
X121277011Y-139189432D01*
X121261641Y-139191641D01*
X121247769Y-139198622D01*
X121227763Y-139196513D01*
X121207853Y-139199376D01*
X121192754Y-139192822D01*
X121178284Y-139191297D01*
X121157840Y-139177667D01*
X121147894Y-139173350D01*
X121142604Y-139169105D01*
X121074035Y-139100536D01*
X120973144Y-139033122D01*
X120968923Y-139029735D01*
X120967679Y-139027952D01*
X120958848Y-139020704D01*
X120911819Y-138973675D01*
X120878334Y-138912352D01*
X120875500Y-138885994D01*
X120875500Y-133126584D01*
X120877883Y-133102392D01*
X120900500Y-132988693D01*
X120900500Y-132811306D01*
X120900499Y-132811304D01*
X120865896Y-132637341D01*
X120865893Y-132637332D01*
X120798016Y-132473459D01*
X120798009Y-132473446D01*
X120699464Y-132325965D01*
X120699461Y-132325961D01*
X120574038Y-132200538D01*
X120574034Y-132200535D01*
X120426553Y-132101990D01*
X120426540Y-132101983D01*
X120262667Y-132034106D01*
X120262658Y-132034103D01*
X120088694Y-131999500D01*
X120088691Y-131999500D01*
X119911309Y-131999500D01*
X119911306Y-131999500D01*
X119737341Y-132034103D01*
X119737332Y-132034106D01*
X119573459Y-132101983D01*
X119573446Y-132101990D01*
X119425965Y-132200535D01*
X119425961Y-132200538D01*
X119300538Y-132325961D01*
X119300535Y-132325965D01*
X119201990Y-132473446D01*
X119201983Y-132473459D01*
X119134106Y-132637332D01*
X119134103Y-132637341D01*
X119099500Y-132811304D01*
X119099500Y-132811309D01*
X119099500Y-132988691D01*
X119099500Y-132988693D01*
X119099499Y-132988693D01*
X119122117Y-133102392D01*
X119124500Y-133126584D01*
X119124500Y-139386233D01*
X119158143Y-139555366D01*
X119158146Y-139555378D01*
X119224138Y-139714698D01*
X119224145Y-139714711D01*
X119319954Y-139858098D01*
X119319957Y-139858102D01*
X119720704Y-140258848D01*
X119736125Y-140277638D01*
X119800535Y-140374034D01*
X119800538Y-140374038D01*
X119925961Y-140499461D01*
X119925965Y-140499464D01*
X120073446Y-140598009D01*
X120073459Y-140598016D01*
X120196363Y-140648923D01*
X120237334Y-140665894D01*
X120237336Y-140665894D01*
X120237341Y-140665896D01*
X120411304Y-140700499D01*
X120411307Y-140700500D01*
X120411309Y-140700500D01*
X120588693Y-140700500D01*
X120588694Y-140700499D01*
X120646682Y-140688964D01*
X120762658Y-140665896D01*
X120762661Y-140665894D01*
X120762666Y-140665894D01*
X120923626Y-140599223D01*
X120926540Y-140598016D01*
X120926540Y-140598015D01*
X120926547Y-140598013D01*
X121074035Y-140499464D01*
X121080983Y-140492516D01*
X121137819Y-140435681D01*
X121199142Y-140402196D01*
X121268834Y-140407180D01*
X121324767Y-140449052D01*
X121349184Y-140514516D01*
X121349500Y-140523362D01*
X121349500Y-148183641D01*
X121329815Y-148250680D01*
X121281798Y-148294123D01*
X121267754Y-148301280D01*
X121265972Y-148302188D01*
X121087641Y-148431752D01*
X121087635Y-148431757D01*
X121066207Y-148453185D01*
X121004884Y-148486669D01*
X120935192Y-148481683D01*
X120879259Y-148439810D01*
X120862346Y-148408834D01*
X120843355Y-148357915D01*
X120843350Y-148357906D01*
X120757190Y-148242812D01*
X120757187Y-148242809D01*
X120642093Y-148156649D01*
X120642086Y-148156645D01*
X120507379Y-148106403D01*
X120507372Y-148106401D01*
X120447844Y-148100000D01*
X119750000Y-148100000D01*
X119750000Y-149066988D01*
X119692993Y-149034075D01*
X119565826Y-149000000D01*
X119434174Y-149000000D01*
X119307007Y-149034075D01*
X119250000Y-149066988D01*
X119250000Y-148100000D01*
X118552155Y-148100000D01*
X118492627Y-148106401D01*
X118492620Y-148106403D01*
X118357913Y-148156645D01*
X118357906Y-148156649D01*
X118242812Y-148242809D01*
X118242809Y-148242812D01*
X118156649Y-148357906D01*
X118156645Y-148357913D01*
X118106403Y-148492620D01*
X118106401Y-148492627D01*
X118100000Y-148552155D01*
X118100000Y-149080691D01*
X118080315Y-149147730D01*
X118027511Y-149193485D01*
X117958353Y-149203429D01*
X117894797Y-149174404D01*
X117888319Y-149168372D01*
X117030654Y-148310708D01*
X116997169Y-148249385D01*
X116996718Y-148247218D01*
X116984072Y-148183641D01*
X116967816Y-148101918D01*
X116903703Y-147947137D01*
X116872537Y-147900494D01*
X116810626Y-147807837D01*
X116692162Y-147689373D01*
X116552860Y-147596295D01*
X116398082Y-147532184D01*
X116398074Y-147532182D01*
X116233771Y-147499500D01*
X116233767Y-147499500D01*
X116066233Y-147499500D01*
X116066228Y-147499500D01*
X115898691Y-147532825D01*
X115829099Y-147526598D01*
X115773922Y-147483734D01*
X115750678Y-147417845D01*
X115750500Y-147411208D01*
X115750500Y-144024499D01*
X115770185Y-143957460D01*
X115822989Y-143911705D01*
X115874495Y-143900499D01*
X118697872Y-143900499D01*
X118757483Y-143894091D01*
X118892331Y-143843796D01*
X119007546Y-143757546D01*
X119093796Y-143642331D01*
X119144091Y-143507483D01*
X119150500Y-143447873D01*
X119150499Y-140552128D01*
X119144091Y-140492517D01*
X119112262Y-140407180D01*
X119093797Y-140357671D01*
X119093793Y-140357664D01*
X119007547Y-140242455D01*
X119007544Y-140242452D01*
X118892335Y-140156206D01*
X118892328Y-140156202D01*
X118757482Y-140105908D01*
X118757483Y-140105908D01*
X118697883Y-140099501D01*
X118697881Y-140099500D01*
X118697873Y-140099500D01*
X118697865Y-140099500D01*
X115874500Y-140099500D01*
X115807461Y-140079815D01*
X115761706Y-140027011D01*
X115750500Y-139975500D01*
X115750500Y-136712137D01*
X115770185Y-136645098D01*
X115822989Y-136599343D01*
X115892147Y-136589399D01*
X115955703Y-136618424D01*
X115989061Y-136664684D01*
X116046295Y-136802860D01*
X116139373Y-136942162D01*
X116257837Y-137060626D01*
X116286900Y-137080045D01*
X116397137Y-137153703D01*
X116551918Y-137217816D01*
X116716228Y-137250499D01*
X116716232Y-137250500D01*
X116716233Y-137250500D01*
X116883768Y-137250500D01*
X116883769Y-137250499D01*
X117048082Y-137217816D01*
X117202863Y-137153703D01*
X117342162Y-137060626D01*
X117460626Y-136942162D01*
X117553703Y-136802863D01*
X117617816Y-136648082D01*
X117650500Y-136483767D01*
X117650500Y-136316233D01*
X117617816Y-136151918D01*
X117553703Y-135997137D01*
X117506307Y-135926205D01*
X117471398Y-135873959D01*
X117450520Y-135807281D01*
X117450500Y-135805068D01*
X117450500Y-125268163D01*
X117470185Y-125201124D01*
X117522989Y-125155369D01*
X117527048Y-125153602D01*
X117589807Y-125127607D01*
X117589810Y-125127605D01*
X117589813Y-125127604D01*
X117729112Y-125034527D01*
X117847576Y-124916063D01*
X117940653Y-124776764D01*
X118004766Y-124621983D01*
X118037450Y-124457668D01*
X118037450Y-124290134D01*
X118004766Y-124125819D01*
X117940653Y-123971038D01*
X117909487Y-123924395D01*
X117847576Y-123831738D01*
X117729112Y-123713274D01*
X117589810Y-123620196D01*
X117435032Y-123556085D01*
X117435024Y-123556083D01*
X117270721Y-123523401D01*
X117270717Y-123523401D01*
X117103183Y-123523401D01*
X117103178Y-123523401D01*
X116938875Y-123556083D01*
X116938867Y-123556085D01*
X116784089Y-123620196D01*
X116644787Y-123713274D01*
X116644784Y-123713277D01*
X116526330Y-123831732D01*
X116526324Y-123831738D01*
X116519512Y-123841933D01*
X116465897Y-123886735D01*
X116396572Y-123895438D01*
X116347524Y-123876138D01*
X116302865Y-123846298D01*
X116302861Y-123846296D01*
X116148082Y-123782184D01*
X116148074Y-123782182D01*
X115983771Y-123749500D01*
X115983767Y-123749500D01*
X115874500Y-123749500D01*
X115807461Y-123729815D01*
X115761706Y-123677011D01*
X115750500Y-123625500D01*
X115750500Y-120520808D01*
X115770185Y-120453769D01*
X115786819Y-120433127D01*
X116837764Y-119382182D01*
X117919293Y-118300652D01*
X117980614Y-118267169D01*
X117982781Y-118266718D01*
X118001360Y-118263022D01*
X118128082Y-118237816D01*
X118282863Y-118173703D01*
X118422162Y-118080626D01*
X118540626Y-117962162D01*
X118633703Y-117822863D01*
X118697816Y-117668082D01*
X118730500Y-117503767D01*
X118730500Y-117336233D01*
X118697816Y-117171918D01*
X118633703Y-117017137D01*
X118602537Y-116970494D01*
X118540626Y-116877837D01*
X118422162Y-116759373D01*
X118282860Y-116666295D01*
X118128082Y-116602184D01*
X118128074Y-116602182D01*
X117963771Y-116569500D01*
X117963767Y-116569500D01*
X117796233Y-116569500D01*
X117796228Y-116569500D01*
X117631925Y-116602182D01*
X117631917Y-116602184D01*
X117477139Y-116666295D01*
X117337837Y-116759373D01*
X117219373Y-116877837D01*
X117126295Y-117017139D01*
X117062184Y-117171917D01*
X117062182Y-117171923D01*
X117033281Y-117317219D01*
X117000896Y-117379130D01*
X116999345Y-117380708D01*
X114594723Y-119785330D01*
X114586838Y-119797133D01*
X114586835Y-119797137D01*
X114523534Y-119891874D01*
X114474499Y-120010255D01*
X114474497Y-120010261D01*
X114449500Y-120135928D01*
X114449500Y-121875246D01*
X114429815Y-121942285D01*
X114377011Y-121988040D01*
X114307853Y-121997984D01*
X114282168Y-121991428D01*
X114165485Y-121947909D01*
X114165483Y-121947908D01*
X114105883Y-121941501D01*
X114105881Y-121941500D01*
X114105873Y-121941500D01*
X114105864Y-121941500D01*
X110894129Y-121941500D01*
X110894123Y-121941501D01*
X110834516Y-121947908D01*
X110699671Y-121998202D01*
X110699664Y-121998206D01*
X110584455Y-122084452D01*
X110584452Y-122084455D01*
X110498206Y-122199664D01*
X110498202Y-122199671D01*
X110447908Y-122334517D01*
X110441501Y-122394116D01*
X110441501Y-122394123D01*
X110441500Y-122394135D01*
X110441500Y-125605870D01*
X110441501Y-125605876D01*
X110447908Y-125665483D01*
X110498202Y-125800328D01*
X110498206Y-125800335D01*
X110584452Y-125915544D01*
X110584455Y-125915547D01*
X110699664Y-126001793D01*
X110699671Y-126001797D01*
X110834517Y-126052091D01*
X110834516Y-126052091D01*
X110841444Y-126052835D01*
X110894127Y-126058500D01*
X114105872Y-126058499D01*
X114165483Y-126052091D01*
X114205751Y-126037072D01*
X114282167Y-126008571D01*
X114351859Y-126003587D01*
X114413182Y-126037072D01*
X114446666Y-126098396D01*
X114449500Y-126124753D01*
X114449500Y-157875246D01*
X114429815Y-157942285D01*
X114377011Y-157988040D01*
X114307853Y-157997984D01*
X114282168Y-157991428D01*
X114165485Y-157947909D01*
X114165483Y-157947908D01*
X114105883Y-157941501D01*
X114105881Y-157941500D01*
X114105873Y-157941500D01*
X114105864Y-157941500D01*
X110894129Y-157941500D01*
X110894123Y-157941501D01*
X110834516Y-157947908D01*
X110699671Y-157998202D01*
X110699664Y-157998206D01*
X110584455Y-158084452D01*
X110584452Y-158084455D01*
X110498206Y-158199664D01*
X110498202Y-158199671D01*
X110447908Y-158334517D01*
X110441501Y-158394116D01*
X110441501Y-158394123D01*
X110441500Y-158394135D01*
X110441500Y-161605870D01*
X110441501Y-161605876D01*
X110447908Y-161665483D01*
X110498202Y-161800328D01*
X110498206Y-161800335D01*
X110584452Y-161915544D01*
X110584455Y-161915547D01*
X110699664Y-162001793D01*
X110699671Y-162001797D01*
X110834517Y-162052091D01*
X110834516Y-162052091D01*
X110841444Y-162052835D01*
X110894127Y-162058500D01*
X111522192Y-162058499D01*
X111589231Y-162078183D01*
X111634986Y-162130987D01*
X111644930Y-162200146D01*
X111615905Y-162263702D01*
X111609873Y-162270180D01*
X109994727Y-163885325D01*
X109994726Y-163885326D01*
X109923534Y-163991874D01*
X109874499Y-164110255D01*
X109874497Y-164110261D01*
X109849500Y-164235928D01*
X109849500Y-165771025D01*
X109829815Y-165838064D01*
X109798386Y-165871343D01*
X109636493Y-165988966D01*
X109488966Y-166136493D01*
X109366330Y-166305286D01*
X109360484Y-166316759D01*
X109312508Y-166367554D01*
X109244687Y-166384348D01*
X109178553Y-166361809D01*
X109139516Y-166316759D01*
X109138303Y-166314380D01*
X109133670Y-166305286D01*
X109011035Y-166136495D01*
X108863505Y-165988965D01*
X108694714Y-165866330D01*
X108650500Y-165843802D01*
X108508820Y-165771612D01*
X108310389Y-165707137D01*
X108104324Y-165674500D01*
X108104319Y-165674500D01*
X107895681Y-165674500D01*
X107895676Y-165674500D01*
X107689609Y-165707138D01*
X107689606Y-165707138D01*
X107612818Y-165732089D01*
X107542977Y-165734084D01*
X107483144Y-165698004D01*
X107452316Y-165635303D01*
X107450500Y-165614158D01*
X107450500Y-151180045D01*
X107470185Y-151113006D01*
X107522989Y-151067251D01*
X107592147Y-151057307D01*
X107630793Y-151069559D01*
X107655388Y-151082091D01*
X107700776Y-151105218D01*
X107700778Y-151105218D01*
X107700781Y-151105220D01*
X107805137Y-151139127D01*
X107895465Y-151168477D01*
X107968502Y-151180045D01*
X108097648Y-151200500D01*
X108097649Y-151200500D01*
X108302351Y-151200500D01*
X108302352Y-151200500D01*
X108504534Y-151168477D01*
X108699219Y-151105220D01*
X108881610Y-151012287D01*
X108992450Y-150931758D01*
X109047213Y-150891971D01*
X109047215Y-150891968D01*
X109047219Y-150891966D01*
X109191966Y-150747219D01*
X109191968Y-150747215D01*
X109191971Y-150747213D01*
X109268344Y-150642093D01*
X109312287Y-150581610D01*
X109405220Y-150399219D01*
X109468477Y-150204534D01*
X109500500Y-150002352D01*
X109500500Y-149797648D01*
X109468477Y-149595466D01*
X109458846Y-149565826D01*
X109413905Y-149427511D01*
X109405220Y-149400781D01*
X109405218Y-149400778D01*
X109405218Y-149400776D01*
X109371503Y-149334607D01*
X109312287Y-149218390D01*
X109299289Y-149200500D01*
X109191971Y-149052786D01*
X109047213Y-148908028D01*
X108881613Y-148787715D01*
X108881612Y-148787714D01*
X108881610Y-148787713D01*
X108804399Y-148748372D01*
X108699223Y-148694781D01*
X108504534Y-148631522D01*
X108329995Y-148603878D01*
X108302352Y-148599500D01*
X108097648Y-148599500D01*
X108073329Y-148603351D01*
X107895465Y-148631522D01*
X107700773Y-148694782D01*
X107630794Y-148730439D01*
X107562125Y-148743335D01*
X107497385Y-148717058D01*
X107457128Y-148659952D01*
X107450500Y-148619954D01*
X107450500Y-146380045D01*
X107470185Y-146313006D01*
X107522989Y-146267251D01*
X107592147Y-146257307D01*
X107630793Y-146269559D01*
X107643620Y-146276095D01*
X107700776Y-146305218D01*
X107700778Y-146305218D01*
X107700781Y-146305220D01*
X107805137Y-146339127D01*
X107895465Y-146368477D01*
X107903869Y-146369808D01*
X108097648Y-146400500D01*
X108097649Y-146400500D01*
X108302351Y-146400500D01*
X108302352Y-146400500D01*
X108504534Y-146368477D01*
X108699219Y-146305220D01*
X108881610Y-146212287D01*
X108974590Y-146144732D01*
X109047213Y-146091971D01*
X109047215Y-146091968D01*
X109047219Y-146091966D01*
X109191966Y-145947219D01*
X109191968Y-145947215D01*
X109191971Y-145947213D01*
X109249500Y-145868029D01*
X109312287Y-145781610D01*
X109405220Y-145599219D01*
X109468477Y-145404534D01*
X109500500Y-145202352D01*
X109500500Y-144997648D01*
X109479787Y-144866872D01*
X109468477Y-144795465D01*
X109405218Y-144600776D01*
X109371503Y-144534607D01*
X109312287Y-144418390D01*
X109249500Y-144331970D01*
X109191971Y-144252786D01*
X109047213Y-144108028D01*
X108881613Y-143987715D01*
X108881612Y-143987714D01*
X108881610Y-143987713D01*
X108817808Y-143955204D01*
X108699223Y-143894781D01*
X108504534Y-143831522D01*
X108329995Y-143803878D01*
X108302352Y-143799500D01*
X108097648Y-143799500D01*
X108073329Y-143803351D01*
X107895465Y-143831522D01*
X107700773Y-143894782D01*
X107630794Y-143930439D01*
X107562125Y-143943335D01*
X107497385Y-143917058D01*
X107457128Y-143859952D01*
X107450500Y-143819954D01*
X107450500Y-141380045D01*
X107470185Y-141313006D01*
X107522989Y-141267251D01*
X107592147Y-141257307D01*
X107630793Y-141269559D01*
X107655388Y-141282091D01*
X107700776Y-141305218D01*
X107700778Y-141305218D01*
X107700781Y-141305220D01*
X107805137Y-141339127D01*
X107895465Y-141368477D01*
X107968502Y-141380045D01*
X108097648Y-141400500D01*
X108097649Y-141400500D01*
X108302351Y-141400500D01*
X108302352Y-141400500D01*
X108504534Y-141368477D01*
X108699219Y-141305220D01*
X108881610Y-141212287D01*
X108974590Y-141144732D01*
X109047213Y-141091971D01*
X109047215Y-141091968D01*
X109047219Y-141091966D01*
X109191966Y-140947219D01*
X109191968Y-140947215D01*
X109191971Y-140947213D01*
X109249500Y-140868029D01*
X109312287Y-140781610D01*
X109405220Y-140599219D01*
X109468477Y-140404534D01*
X109500500Y-140202352D01*
X109500500Y-139997648D01*
X109468477Y-139795466D01*
X109405220Y-139600781D01*
X109405218Y-139600778D01*
X109405218Y-139600776D01*
X109352725Y-139497754D01*
X109312287Y-139418390D01*
X109249500Y-139331970D01*
X109191971Y-139252786D01*
X109047213Y-139108028D01*
X108881613Y-138987715D01*
X108881612Y-138987714D01*
X108881610Y-138987713D01*
X108814862Y-138953703D01*
X108699223Y-138894781D01*
X108504534Y-138831522D01*
X108329995Y-138803878D01*
X108302352Y-138799500D01*
X108097648Y-138799500D01*
X108073329Y-138803351D01*
X107895465Y-138831522D01*
X107700773Y-138894782D01*
X107630794Y-138930439D01*
X107562125Y-138943335D01*
X107497385Y-138917058D01*
X107457128Y-138859952D01*
X107450500Y-138819954D01*
X107450500Y-137080045D01*
X107470185Y-137013006D01*
X107522989Y-136967251D01*
X107592147Y-136957307D01*
X107630793Y-136969559D01*
X107655388Y-136982091D01*
X107700776Y-137005218D01*
X107700778Y-137005218D01*
X107700781Y-137005220D01*
X107805137Y-137039127D01*
X107895465Y-137068477D01*
X107968502Y-137080045D01*
X108097648Y-137100500D01*
X108097649Y-137100500D01*
X108302351Y-137100500D01*
X108302352Y-137100500D01*
X108504534Y-137068477D01*
X108699219Y-137005220D01*
X108881610Y-136912287D01*
X108974590Y-136844732D01*
X109047213Y-136791971D01*
X109047215Y-136791968D01*
X109047219Y-136791966D01*
X109191966Y-136647219D01*
X109191968Y-136647215D01*
X109191971Y-136647213D01*
X109249500Y-136568029D01*
X109312287Y-136481610D01*
X109405220Y-136299219D01*
X109468477Y-136104534D01*
X109500500Y-135902352D01*
X109500500Y-135697648D01*
X109468477Y-135495466D01*
X109464161Y-135482184D01*
X109435034Y-135392539D01*
X109405220Y-135300781D01*
X109405218Y-135300778D01*
X109405218Y-135300776D01*
X109371503Y-135234607D01*
X109312287Y-135118390D01*
X109249500Y-135031970D01*
X109191971Y-134952786D01*
X109047213Y-134808028D01*
X108881613Y-134687715D01*
X108881612Y-134687714D01*
X108881610Y-134687713D01*
X108824653Y-134658691D01*
X108699223Y-134594781D01*
X108504534Y-134531522D01*
X108329995Y-134503878D01*
X108302352Y-134499500D01*
X108097648Y-134499500D01*
X108073329Y-134503351D01*
X107895465Y-134531522D01*
X107700773Y-134594782D01*
X107630794Y-134630439D01*
X107562125Y-134643335D01*
X107497385Y-134617058D01*
X107457128Y-134559952D01*
X107450500Y-134519954D01*
X107450500Y-132385841D01*
X107470185Y-132318802D01*
X107522989Y-132273047D01*
X107592147Y-132263103D01*
X107612808Y-132267907D01*
X107689611Y-132292862D01*
X107723956Y-132298301D01*
X107895676Y-132325500D01*
X107895681Y-132325500D01*
X108104324Y-132325500D01*
X108310389Y-132292862D01*
X108508816Y-132228389D01*
X108694714Y-132133670D01*
X108863505Y-132011035D01*
X109011035Y-131863505D01*
X109133670Y-131694714D01*
X109139515Y-131683243D01*
X109187489Y-131632447D01*
X109255310Y-131615651D01*
X109321445Y-131638188D01*
X109360485Y-131683243D01*
X109366328Y-131694712D01*
X109448086Y-131807241D01*
X109488965Y-131863505D01*
X109636495Y-132011035D01*
X109805286Y-132133670D01*
X109893116Y-132178421D01*
X109991179Y-132228387D01*
X109991181Y-132228387D01*
X109991184Y-132228389D01*
X110097545Y-132262948D01*
X110189610Y-132292862D01*
X110395676Y-132325500D01*
X110395681Y-132325500D01*
X110604324Y-132325500D01*
X110810389Y-132292862D01*
X111008816Y-132228389D01*
X111194714Y-132133670D01*
X111363505Y-132011035D01*
X111511035Y-131863505D01*
X111633670Y-131694714D01*
X111728389Y-131508816D01*
X111792862Y-131310389D01*
X111825500Y-131104324D01*
X111825500Y-130895675D01*
X111792862Y-130689610D01*
X111728387Y-130491179D01*
X111662470Y-130361809D01*
X111633670Y-130305286D01*
X111511035Y-130136495D01*
X111363505Y-129988965D01*
X111194714Y-129866330D01*
X111008820Y-129771612D01*
X110810389Y-129707137D01*
X110604324Y-129674500D01*
X110604319Y-129674500D01*
X110395681Y-129674500D01*
X110395676Y-129674500D01*
X110189610Y-129707137D01*
X109991179Y-129771612D01*
X109805285Y-129866330D01*
X109636493Y-129988966D01*
X109488966Y-130136493D01*
X109366330Y-130305286D01*
X109360484Y-130316759D01*
X109312508Y-130367554D01*
X109244687Y-130384348D01*
X109178553Y-130361809D01*
X109139516Y-130316759D01*
X109138303Y-130314380D01*
X109133670Y-130305286D01*
X109011035Y-130136495D01*
X108863505Y-129988965D01*
X108694714Y-129866330D01*
X108508820Y-129771612D01*
X108310389Y-129707137D01*
X108104324Y-129674500D01*
X108104319Y-129674500D01*
X107895681Y-129674500D01*
X107895676Y-129674500D01*
X107689609Y-129707138D01*
X107689606Y-129707138D01*
X107612818Y-129732089D01*
X107542977Y-129734084D01*
X107483144Y-129698004D01*
X107452316Y-129635303D01*
X107450500Y-129614158D01*
X107450500Y-123320808D01*
X107470185Y-123253769D01*
X107486819Y-123233127D01*
X108520282Y-122199664D01*
X109639293Y-121080652D01*
X109700614Y-121047169D01*
X109702781Y-121046718D01*
X109721360Y-121043022D01*
X109848082Y-121017816D01*
X110002863Y-120953703D01*
X110142162Y-120860626D01*
X110260626Y-120742162D01*
X110353703Y-120602863D01*
X110417816Y-120448082D01*
X110450500Y-120283767D01*
X110450500Y-120116233D01*
X110417816Y-119951918D01*
X110353703Y-119797137D01*
X110353700Y-119797133D01*
X110260626Y-119657837D01*
X110142162Y-119539373D01*
X110002860Y-119446295D01*
X109848082Y-119382184D01*
X109848074Y-119382182D01*
X109683771Y-119349500D01*
X109683767Y-119349500D01*
X109516233Y-119349500D01*
X109516228Y-119349500D01*
X109351925Y-119382182D01*
X109351917Y-119382184D01*
X109197139Y-119446295D01*
X109057837Y-119539373D01*
X108939373Y-119657837D01*
X108846297Y-119797137D01*
X108782184Y-119951917D01*
X108782182Y-119951923D01*
X108753281Y-120097219D01*
X108720896Y-120159130D01*
X108719345Y-120160708D01*
X106294727Y-122585325D01*
X106294724Y-122585328D01*
X106235547Y-122673895D01*
X106223535Y-122691871D01*
X106174499Y-122810255D01*
X106174497Y-122810261D01*
X106149500Y-122935928D01*
X106149500Y-127029574D01*
X106129815Y-127096613D01*
X106077011Y-127142368D01*
X106025500Y-127153574D01*
X105920302Y-127153574D01*
X105755999Y-127186256D01*
X105755991Y-127186258D01*
X105601213Y-127250369D01*
X105461911Y-127343447D01*
X105343450Y-127461908D01*
X105343447Y-127461912D01*
X105254927Y-127594391D01*
X105201314Y-127639196D01*
X105151825Y-127649500D01*
X103035929Y-127649500D01*
X102910261Y-127674497D01*
X102910255Y-127674499D01*
X102791874Y-127723534D01*
X102685326Y-127794726D01*
X102685325Y-127794727D01*
X101212181Y-129267872D01*
X101150858Y-129301357D01*
X101081166Y-129296373D01*
X101025233Y-129254501D01*
X101000816Y-129189037D01*
X101000500Y-129180191D01*
X101000500Y-122394135D01*
X101441500Y-122394135D01*
X101441500Y-125605870D01*
X101441501Y-125605876D01*
X101447908Y-125665483D01*
X101498202Y-125800328D01*
X101498206Y-125800335D01*
X101584452Y-125915544D01*
X101584455Y-125915547D01*
X101699664Y-126001793D01*
X101699671Y-126001797D01*
X101834517Y-126052091D01*
X101834516Y-126052091D01*
X101841444Y-126052835D01*
X101894127Y-126058500D01*
X105105872Y-126058499D01*
X105165483Y-126052091D01*
X105300331Y-126001796D01*
X105415546Y-125915546D01*
X105501796Y-125800331D01*
X105552091Y-125665483D01*
X105558500Y-125605873D01*
X105558499Y-122394128D01*
X105552091Y-122334517D01*
X105501796Y-122199669D01*
X105501795Y-122199668D01*
X105501793Y-122199664D01*
X105415547Y-122084455D01*
X105415544Y-122084452D01*
X105300335Y-121998206D01*
X105300328Y-121998202D01*
X105165482Y-121947908D01*
X105165483Y-121947908D01*
X105105883Y-121941501D01*
X105105881Y-121941500D01*
X105105873Y-121941500D01*
X105105864Y-121941500D01*
X101894129Y-121941500D01*
X101894123Y-121941501D01*
X101834516Y-121947908D01*
X101699671Y-121998202D01*
X101699664Y-121998206D01*
X101584455Y-122084452D01*
X101584452Y-122084455D01*
X101498206Y-122199664D01*
X101498202Y-122199671D01*
X101447908Y-122334517D01*
X101441501Y-122394116D01*
X101441501Y-122394123D01*
X101441500Y-122394135D01*
X101000500Y-122394135D01*
X101000500Y-113893399D01*
X113645500Y-113893399D01*
X113645500Y-114106600D01*
X113678853Y-114317180D01*
X113678853Y-114317183D01*
X113744734Y-114519944D01*
X113744736Y-114519947D01*
X113841528Y-114709913D01*
X113966846Y-114882397D01*
X114117603Y-115033154D01*
X114290087Y-115158472D01*
X114480053Y-115255264D01*
X114480055Y-115255265D01*
X114564985Y-115282860D01*
X114682821Y-115321147D01*
X114893399Y-115354500D01*
X114893400Y-115354500D01*
X115106600Y-115354500D01*
X115106601Y-115354500D01*
X115317179Y-115321147D01*
X115317182Y-115321146D01*
X115317183Y-115321146D01*
X115519944Y-115255265D01*
X115519944Y-115255264D01*
X115519947Y-115255264D01*
X115709913Y-115158472D01*
X115882397Y-115033154D01*
X116033154Y-114882397D01*
X116158472Y-114709913D01*
X116255264Y-114519947D01*
X116321147Y-114317179D01*
X116354500Y-114106601D01*
X116354500Y-113893399D01*
X116321147Y-113682821D01*
X116321146Y-113682817D01*
X116321146Y-113682816D01*
X116255265Y-113480055D01*
X116255263Y-113480052D01*
X116158471Y-113290086D01*
X116033154Y-113117603D01*
X115882397Y-112966846D01*
X115709913Y-112841528D01*
X115519947Y-112744736D01*
X115519944Y-112744734D01*
X115317181Y-112678853D01*
X115176793Y-112656617D01*
X115106601Y-112645500D01*
X114893399Y-112645500D01*
X114823206Y-112656617D01*
X114682819Y-112678853D01*
X114682816Y-112678853D01*
X114480055Y-112744734D01*
X114480052Y-112744736D01*
X114290086Y-112841528D01*
X114117601Y-112966847D01*
X113966847Y-113117601D01*
X113841528Y-113290086D01*
X113744736Y-113480052D01*
X113744734Y-113480055D01*
X113678853Y-113682816D01*
X113678853Y-113682819D01*
X113645500Y-113893399D01*
X101000500Y-113893399D01*
X101000500Y-110874500D01*
X101020185Y-110807461D01*
X101072989Y-110761706D01*
X101124500Y-110750500D01*
X128875500Y-110750500D01*
X128942539Y-110770185D01*
G37*
%TD.AperFunction*%
%TA.AperFunction,Conductor*%
G36*
X118248812Y-150761680D02*
G01*
X118357910Y-150843352D01*
X118357913Y-150843354D01*
X118456229Y-150880023D01*
X118507222Y-150829031D01*
X118568545Y-150795546D01*
X118638237Y-150800530D01*
X118682584Y-150829031D01*
X119370590Y-151517037D01*
X119307007Y-151534075D01*
X119192993Y-151599901D01*
X119099901Y-151692993D01*
X119034075Y-151807007D01*
X119017037Y-151870590D01*
X118348932Y-151202485D01*
X118348931Y-151202485D01*
X118302616Y-151266234D01*
X118302614Y-151266237D01*
X118284984Y-151300838D01*
X118237009Y-151351634D01*
X118169188Y-151368428D01*
X118103053Y-151345890D01*
X118059602Y-151291174D01*
X118050500Y-151244542D01*
X118050500Y-150860946D01*
X118070185Y-150793907D01*
X118122989Y-150748152D01*
X118192147Y-150738208D01*
X118248812Y-150761680D01*
G37*
%TD.AperFunction*%
%TA.AperFunction,Conductor*%
G36*
X120996613Y-150516671D02*
G01*
X121024069Y-150519162D01*
X121032003Y-150524369D01*
X121037952Y-150525663D01*
X121054717Y-150536665D01*
X121060778Y-150541385D01*
X121087635Y-150568242D01*
X121201376Y-150650879D01*
X121203031Y-150652168D01*
X121222268Y-150678913D01*
X121242393Y-150705011D01*
X121242576Y-150707147D01*
X121243829Y-150708889D01*
X121245553Y-150741807D01*
X121248372Y-150774625D01*
X121247371Y-150776520D01*
X121247484Y-150778663D01*
X121231141Y-150807280D01*
X121215767Y-150836420D01*
X121213262Y-150838589D01*
X121212836Y-150839337D01*
X121211741Y-150839907D01*
X121199727Y-150850318D01*
X121087641Y-150931752D01*
X121087636Y-150931756D01*
X120931756Y-151087636D01*
X120850008Y-151200153D01*
X120794678Y-151242818D01*
X120725064Y-151248797D01*
X120663269Y-151216191D01*
X120651416Y-151202513D01*
X120651065Y-151202485D01*
X119982962Y-151870589D01*
X119965925Y-151807007D01*
X119900099Y-151692993D01*
X119807007Y-151599901D01*
X119692993Y-151534075D01*
X119629408Y-151517037D01*
X120317415Y-150829031D01*
X120378738Y-150795546D01*
X120448430Y-150800530D01*
X120492777Y-150829031D01*
X120543769Y-150880023D01*
X120642090Y-150843352D01*
X120642091Y-150843351D01*
X120757187Y-150757190D01*
X120757190Y-150757187D01*
X120843350Y-150642093D01*
X120843353Y-150642088D01*
X120862345Y-150591166D01*
X120878863Y-150569098D01*
X120892534Y-150545160D01*
X120899504Y-150541524D01*
X120904215Y-150535232D01*
X120930041Y-150525598D01*
X120954485Y-150512850D01*
X120962314Y-150513560D01*
X120969679Y-150510813D01*
X120996613Y-150516671D01*
G37*
%TD.AperFunction*%
%TD*%
M02*
