%TF.GenerationSoftware,KiCad,Pcbnew,7.0.8*%
%TF.CreationDate,2024-02-26T10:57:56-05:00*%
%TF.ProjectId,lichen-passive-mutes-panel,6c696368-656e-42d7-9061-73736976652d,rev?*%
%TF.SameCoordinates,Original*%
%TF.FileFunction,Legend,Bot*%
%TF.FilePolarity,Positive*%
%FSLAX46Y46*%
G04 Gerber Fmt 4.6, Leading zero omitted, Abs format (unit mm)*
G04 Created by KiCad (PCBNEW 7.0.8) date 2024-02-26 10:57:56*
%MOMM*%
%LPD*%
G01*
G04 APERTURE LIST*
G04 Aperture macros list*
%AMRoundRect*
0 Rectangle with rounded corners*
0 $1 Rounding radius*
0 $2 $3 $4 $5 $6 $7 $8 $9 X,Y pos of 4 corners*
0 Add a 4 corners polygon primitive as box body*
4,1,4,$2,$3,$4,$5,$6,$7,$8,$9,$2,$3,0*
0 Add four circle primitives for the rounded corners*
1,1,$1+$1,$2,$3*
1,1,$1+$1,$4,$5*
1,1,$1+$1,$6,$7*
1,1,$1+$1,$8,$9*
0 Add four rect primitives between the rounded corners*
20,1,$1+$1,$2,$3,$4,$5,0*
20,1,$1+$1,$4,$5,$6,$7,0*
20,1,$1+$1,$6,$7,$8,$9,0*
20,1,$1+$1,$8,$9,$2,$3,0*%
G04 Aperture macros list end*
%ADD10C,0.150000*%
%ADD11C,6.400000*%
%ADD12C,5.000000*%
%ADD13RoundRect,1.600000X-0.400000X0.000000X0.400000X0.000000X0.400000X0.000000X-0.400000X0.000000X0*%
G04 APERTURE END LIST*
D10*
G36*
X108217055Y-214878660D02*
G01*
X108902400Y-214878660D01*
X108917541Y-214878593D01*
X108932190Y-214878393D01*
X108946347Y-214878059D01*
X108960011Y-214877591D01*
X108973183Y-214876990D01*
X108985862Y-214876255D01*
X108998050Y-214875387D01*
X109009745Y-214874385D01*
X109020948Y-214873250D01*
X109031658Y-214871981D01*
X109041876Y-214870579D01*
X109051602Y-214869043D01*
X109065268Y-214866488D01*
X109077826Y-214863633D01*
X109085582Y-214861563D01*
X109098264Y-214858192D01*
X109110572Y-214854401D01*
X109122507Y-214850190D01*
X109134068Y-214845557D01*
X109145256Y-214840504D01*
X109156070Y-214835030D01*
X109166511Y-214829135D01*
X109176578Y-214822820D01*
X109186272Y-214816083D01*
X109195592Y-214808926D01*
X109201598Y-214803921D01*
X109212984Y-214793797D01*
X109223637Y-214783268D01*
X109233554Y-214772334D01*
X109242737Y-214760996D01*
X109251186Y-214749253D01*
X109258899Y-214737106D01*
X109265878Y-214724554D01*
X109272123Y-214711598D01*
X109277632Y-214698237D01*
X109282408Y-214684471D01*
X109286448Y-214670301D01*
X109289754Y-214655727D01*
X109292325Y-214640748D01*
X109294162Y-214625365D01*
X109295264Y-214609577D01*
X109295631Y-214593384D01*
X109295418Y-214581010D01*
X109294780Y-214568738D01*
X109293716Y-214556570D01*
X109292227Y-214544505D01*
X109290312Y-214532543D01*
X109287972Y-214520684D01*
X109285206Y-214508928D01*
X109282015Y-214497274D01*
X109278398Y-214485724D01*
X109274355Y-214474277D01*
X109269887Y-214462934D01*
X109264994Y-214451693D01*
X109259675Y-214440555D01*
X109253930Y-214429520D01*
X109247760Y-214418588D01*
X109241165Y-214407759D01*
X109100481Y-214485673D01*
X109107421Y-214496506D01*
X109113679Y-214507205D01*
X109119254Y-214517772D01*
X109124146Y-214528206D01*
X109128355Y-214538506D01*
X109131882Y-214548673D01*
X109134727Y-214558707D01*
X109136888Y-214568609D01*
X109138368Y-214578377D01*
X109139278Y-214591194D01*
X109139316Y-214594361D01*
X109138841Y-214607303D01*
X109137418Y-214619477D01*
X109135046Y-214630882D01*
X109131725Y-214641519D01*
X109127455Y-214651387D01*
X109122237Y-214660487D01*
X109116069Y-214668818D01*
X109108953Y-214676381D01*
X109100888Y-214683175D01*
X109091874Y-214689201D01*
X109085338Y-214692791D01*
X109074557Y-214697898D01*
X109062363Y-214702502D01*
X109048757Y-214706605D01*
X109038901Y-214709060D01*
X109028418Y-214711293D01*
X109017307Y-214713302D01*
X109005568Y-214715088D01*
X108993201Y-214716651D01*
X108980206Y-214717991D01*
X108966584Y-214719107D01*
X108952334Y-214720000D01*
X108937456Y-214720670D01*
X108921951Y-214721116D01*
X108905817Y-214721339D01*
X108897515Y-214721367D01*
X108217055Y-214721367D01*
X108217055Y-214878660D01*
G37*
G36*
X108217055Y-215295826D02*
G01*
X109123684Y-215295826D01*
X109123684Y-215607480D01*
X109280000Y-215607480D01*
X109280000Y-215138534D01*
X108217055Y-215138534D01*
X108217055Y-215295826D01*
G37*
G36*
X108266147Y-216501409D02*
G01*
X108457878Y-216501409D01*
X108450755Y-216492683D01*
X108443859Y-216483938D01*
X108437189Y-216475174D01*
X108430744Y-216466391D01*
X108424526Y-216457589D01*
X108418534Y-216448767D01*
X108412768Y-216439927D01*
X108407228Y-216431067D01*
X108401915Y-216422189D01*
X108396827Y-216413291D01*
X108391965Y-216404374D01*
X108387330Y-216395438D01*
X108382921Y-216386483D01*
X108378738Y-216377509D01*
X108374781Y-216368516D01*
X108367545Y-216350473D01*
X108361214Y-216332353D01*
X108355787Y-216314157D01*
X108351265Y-216295884D01*
X108347647Y-216277536D01*
X108344933Y-216259111D01*
X108343124Y-216240609D01*
X108342220Y-216222032D01*
X108342107Y-216212714D01*
X108342221Y-216202491D01*
X108342564Y-216192369D01*
X108343135Y-216182349D01*
X108343935Y-216172429D01*
X108344963Y-216162611D01*
X108346220Y-216152894D01*
X108349419Y-216133763D01*
X108353532Y-216115036D01*
X108358559Y-216096714D01*
X108364500Y-216078796D01*
X108371355Y-216061284D01*
X108379124Y-216044175D01*
X108387807Y-216027471D01*
X108397404Y-216011172D01*
X108407915Y-215995277D01*
X108419340Y-215979787D01*
X108431679Y-215964701D01*
X108438191Y-215957310D01*
X108444932Y-215950019D01*
X108451902Y-215942831D01*
X108459099Y-215935743D01*
X108466446Y-215928770D01*
X108473894Y-215922019D01*
X108481443Y-215915490D01*
X108489092Y-215909181D01*
X108496841Y-215903094D01*
X108504692Y-215897229D01*
X108520694Y-215886161D01*
X108537100Y-215875980D01*
X108553907Y-215866683D01*
X108571118Y-215858272D01*
X108588731Y-215850746D01*
X108606747Y-215844106D01*
X108625165Y-215838351D01*
X108643986Y-215833481D01*
X108653548Y-215831378D01*
X108663210Y-215829497D01*
X108672973Y-215827837D01*
X108682836Y-215826398D01*
X108692800Y-215825181D01*
X108702865Y-215824185D01*
X108713031Y-215823410D01*
X108723297Y-215822857D01*
X108733663Y-215822525D01*
X108744131Y-215822414D01*
X108754476Y-215822525D01*
X108764720Y-215822857D01*
X108774862Y-215823410D01*
X108784904Y-215824185D01*
X108794844Y-215825181D01*
X108804684Y-215826398D01*
X108814422Y-215827837D01*
X108824059Y-215829497D01*
X108843030Y-215833481D01*
X108861596Y-215838351D01*
X108879758Y-215844106D01*
X108897515Y-215850746D01*
X108914868Y-215858272D01*
X108931816Y-215866683D01*
X108948360Y-215875980D01*
X108964499Y-215886161D01*
X108980233Y-215897229D01*
X108995563Y-215909181D01*
X109003077Y-215915490D01*
X109010489Y-215922019D01*
X109017800Y-215928770D01*
X109025010Y-215935743D01*
X109032042Y-215942876D01*
X109038852Y-215950108D01*
X109045438Y-215957440D01*
X109051800Y-215964872D01*
X109063856Y-215980036D01*
X109075019Y-215995597D01*
X109085288Y-216011558D01*
X109094665Y-216027918D01*
X109103149Y-216044676D01*
X109110739Y-216061833D01*
X109117437Y-216079389D01*
X109123241Y-216097344D01*
X109128153Y-216115697D01*
X109132172Y-216134450D01*
X109135297Y-216153601D01*
X109136525Y-216163326D01*
X109137530Y-216173151D01*
X109138311Y-216183075D01*
X109138869Y-216193099D01*
X109139204Y-216203223D01*
X109139316Y-216213447D01*
X109139208Y-216223943D01*
X109138884Y-216234242D01*
X109138345Y-216244344D01*
X109137591Y-216254251D01*
X109136054Y-216268741D01*
X109134033Y-216282790D01*
X109131526Y-216296396D01*
X109128535Y-216309560D01*
X109125058Y-216322282D01*
X109121096Y-216334562D01*
X109116649Y-216346399D01*
X109111716Y-216357794D01*
X109107209Y-216368164D01*
X109102237Y-216378665D01*
X109096800Y-216389297D01*
X109092116Y-216397897D01*
X109087134Y-216406581D01*
X109081854Y-216415349D01*
X109076276Y-216424200D01*
X109074836Y-216426427D01*
X109068882Y-216435399D01*
X109062623Y-216444485D01*
X109056059Y-216453686D01*
X109049190Y-216463002D01*
X109042015Y-216472432D01*
X109034535Y-216481977D01*
X109026750Y-216491636D01*
X109018660Y-216501409D01*
X109214542Y-216501409D01*
X109219531Y-216492817D01*
X109224362Y-216484198D01*
X109229034Y-216475552D01*
X109233548Y-216466879D01*
X109242100Y-216449454D01*
X109250019Y-216431922D01*
X109257304Y-216414283D01*
X109263956Y-216396537D01*
X109269974Y-216378685D01*
X109275359Y-216360725D01*
X109280110Y-216342659D01*
X109284228Y-216324486D01*
X109287712Y-216306206D01*
X109290563Y-216287819D01*
X109292780Y-216269325D01*
X109294364Y-216250724D01*
X109295314Y-216232017D01*
X109295631Y-216213203D01*
X109295475Y-216199056D01*
X109295006Y-216185039D01*
X109294225Y-216171153D01*
X109293131Y-216157397D01*
X109291725Y-216143771D01*
X109290007Y-216130275D01*
X109287976Y-216116910D01*
X109285632Y-216103675D01*
X109282976Y-216090570D01*
X109280008Y-216077595D01*
X109276727Y-216064751D01*
X109273134Y-216052037D01*
X109269228Y-216039453D01*
X109265010Y-216026999D01*
X109260479Y-216014675D01*
X109255636Y-216002482D01*
X109250481Y-215990419D01*
X109245013Y-215978486D01*
X109239232Y-215966684D01*
X109233139Y-215955011D01*
X109226734Y-215943469D01*
X109220016Y-215932057D01*
X109212986Y-215920775D01*
X109205643Y-215909624D01*
X109197988Y-215898603D01*
X109190020Y-215887712D01*
X109181740Y-215876951D01*
X109173147Y-215866320D01*
X109164242Y-215855820D01*
X109155024Y-215845450D01*
X109145494Y-215835210D01*
X109135652Y-215825101D01*
X109125497Y-215815258D01*
X109115211Y-215805728D01*
X109104795Y-215796511D01*
X109094249Y-215787606D01*
X109083573Y-215779013D01*
X109072766Y-215770733D01*
X109061829Y-215762765D01*
X109050762Y-215755110D01*
X109039565Y-215747767D01*
X109028238Y-215740737D01*
X109016780Y-215734019D01*
X109005192Y-215727613D01*
X108993474Y-215721520D01*
X108981625Y-215715740D01*
X108969647Y-215710272D01*
X108957538Y-215705116D01*
X108945299Y-215700273D01*
X108932929Y-215695743D01*
X108920430Y-215691524D01*
X108907800Y-215687619D01*
X108895040Y-215684025D01*
X108882150Y-215680745D01*
X108869129Y-215677776D01*
X108855979Y-215675120D01*
X108842698Y-215672777D01*
X108829287Y-215670746D01*
X108815745Y-215669027D01*
X108802073Y-215667621D01*
X108788272Y-215666528D01*
X108774340Y-215665747D01*
X108760277Y-215665278D01*
X108746085Y-215665122D01*
X108733351Y-215665252D01*
X108720705Y-215665644D01*
X108708147Y-215666298D01*
X108695675Y-215667213D01*
X108683291Y-215668389D01*
X108670994Y-215669827D01*
X108658785Y-215671526D01*
X108646663Y-215673487D01*
X108634628Y-215675709D01*
X108622680Y-215678192D01*
X108610820Y-215680937D01*
X108599047Y-215683944D01*
X108587361Y-215687211D01*
X108575762Y-215690740D01*
X108564251Y-215694531D01*
X108552827Y-215698583D01*
X108541491Y-215702896D01*
X108530242Y-215707471D01*
X108519080Y-215712307D01*
X108508005Y-215717405D01*
X108497018Y-215722764D01*
X108486118Y-215728384D01*
X108475305Y-215734266D01*
X108464579Y-215740409D01*
X108453941Y-215746814D01*
X108443390Y-215753480D01*
X108432927Y-215760408D01*
X108422551Y-215767597D01*
X108412262Y-215775047D01*
X108402060Y-215782759D01*
X108391946Y-215790732D01*
X108381919Y-215798967D01*
X108369852Y-215809365D01*
X108358169Y-215819953D01*
X108346869Y-215830729D01*
X108335951Y-215841694D01*
X108325417Y-215852848D01*
X108315266Y-215864191D01*
X108305498Y-215875723D01*
X108296113Y-215887444D01*
X108287111Y-215899353D01*
X108278492Y-215911452D01*
X108270256Y-215923739D01*
X108262404Y-215936216D01*
X108254934Y-215948881D01*
X108247847Y-215961735D01*
X108241144Y-215974779D01*
X108234823Y-215988011D01*
X108228886Y-216001432D01*
X108223331Y-216015041D01*
X108218160Y-216028840D01*
X108213372Y-216042828D01*
X108208967Y-216057004D01*
X108204945Y-216071370D01*
X108201305Y-216085924D01*
X108198049Y-216100668D01*
X108195177Y-216115600D01*
X108192687Y-216130721D01*
X108190580Y-216146031D01*
X108188856Y-216161530D01*
X108187515Y-216177218D01*
X108186558Y-216193095D01*
X108185983Y-216209160D01*
X108185792Y-216225415D01*
X108186105Y-216243237D01*
X108187047Y-216260983D01*
X108188617Y-216278652D01*
X108190814Y-216296245D01*
X108193639Y-216313762D01*
X108197092Y-216331202D01*
X108201172Y-216348567D01*
X108205881Y-216365854D01*
X108211217Y-216383066D01*
X108217181Y-216400201D01*
X108223772Y-216417260D01*
X108230992Y-216434242D01*
X108238839Y-216451149D01*
X108247314Y-216467978D01*
X108256417Y-216484732D01*
X108266147Y-216501409D01*
G37*
G36*
X108217055Y-217006503D02*
G01*
X108902400Y-217006503D01*
X108917541Y-217006437D01*
X108932190Y-217006236D01*
X108946347Y-217005902D01*
X108960011Y-217005435D01*
X108973183Y-217004834D01*
X108985862Y-217004099D01*
X108998050Y-217003231D01*
X109009745Y-217002229D01*
X109020948Y-217001094D01*
X109031658Y-216999825D01*
X109041876Y-216998422D01*
X109051602Y-216996886D01*
X109065268Y-216994332D01*
X109077826Y-216991477D01*
X109085582Y-216989406D01*
X109098264Y-216986036D01*
X109110572Y-216982245D01*
X109122507Y-216978033D01*
X109134068Y-216973401D01*
X109145256Y-216968348D01*
X109156070Y-216962874D01*
X109166511Y-216956979D01*
X109176578Y-216950663D01*
X109186272Y-216943927D01*
X109195592Y-216936770D01*
X109201598Y-216931765D01*
X109212984Y-216921640D01*
X109223637Y-216911111D01*
X109233554Y-216900178D01*
X109242737Y-216888839D01*
X109251186Y-216877097D01*
X109258899Y-216864949D01*
X109265878Y-216852398D01*
X109272123Y-216839441D01*
X109277632Y-216826080D01*
X109282408Y-216812315D01*
X109286448Y-216798145D01*
X109289754Y-216783571D01*
X109292325Y-216768592D01*
X109294162Y-216753208D01*
X109295264Y-216737420D01*
X109295631Y-216721228D01*
X109295418Y-216708853D01*
X109294780Y-216696582D01*
X109293716Y-216684414D01*
X109292227Y-216672349D01*
X109290312Y-216660386D01*
X109287972Y-216648527D01*
X109285206Y-216636771D01*
X109282015Y-216625118D01*
X109278398Y-216613568D01*
X109274355Y-216602121D01*
X109269887Y-216590777D01*
X109264994Y-216579536D01*
X109259675Y-216568398D01*
X109253930Y-216557364D01*
X109247760Y-216546432D01*
X109241165Y-216535603D01*
X109100481Y-216613517D01*
X109107421Y-216624349D01*
X109113679Y-216635049D01*
X109119254Y-216645616D01*
X109124146Y-216656049D01*
X109128355Y-216666350D01*
X109131882Y-216676517D01*
X109134727Y-216686551D01*
X109136888Y-216696452D01*
X109138368Y-216706220D01*
X109139278Y-216719037D01*
X109139316Y-216722205D01*
X109138841Y-216735147D01*
X109137418Y-216747321D01*
X109135046Y-216758726D01*
X109131725Y-216769363D01*
X109127455Y-216779231D01*
X109122237Y-216788331D01*
X109116069Y-216796662D01*
X109108953Y-216804224D01*
X109100888Y-216811019D01*
X109091874Y-216817044D01*
X109085338Y-216820635D01*
X109074557Y-216825741D01*
X109062363Y-216830346D01*
X109048757Y-216834448D01*
X109038901Y-216836904D01*
X109028418Y-216839137D01*
X109017307Y-216841146D01*
X109005568Y-216842932D01*
X108993201Y-216844495D01*
X108980206Y-216845834D01*
X108966584Y-216846951D01*
X108952334Y-216847844D01*
X108937456Y-216848513D01*
X108921951Y-216848960D01*
X108905817Y-216849183D01*
X108897515Y-216849211D01*
X108217055Y-216849211D01*
X108217055Y-217006503D01*
G37*
G36*
X108217055Y-217423670D02*
G01*
X109123684Y-217423670D01*
X109123684Y-217735324D01*
X109280000Y-217735324D01*
X109280000Y-217266378D01*
X108217055Y-217266378D01*
X108217055Y-217423670D01*
G37*
G36*
X108266147Y-218629253D02*
G01*
X108457878Y-218629253D01*
X108450755Y-218620527D01*
X108443859Y-218611782D01*
X108437189Y-218603018D01*
X108430744Y-218594234D01*
X108424526Y-218585432D01*
X108418534Y-218576611D01*
X108412768Y-218567770D01*
X108407228Y-218558911D01*
X108401915Y-218550032D01*
X108396827Y-218541135D01*
X108391965Y-218532218D01*
X108387330Y-218523282D01*
X108382921Y-218514327D01*
X108378738Y-218505353D01*
X108374781Y-218496360D01*
X108367545Y-218478316D01*
X108361214Y-218460197D01*
X108355787Y-218442001D01*
X108351265Y-218423728D01*
X108347647Y-218405379D01*
X108344933Y-218386954D01*
X108343124Y-218368453D01*
X108342220Y-218349875D01*
X108342107Y-218340558D01*
X108342221Y-218330335D01*
X108342564Y-218320213D01*
X108343135Y-218310192D01*
X108343935Y-218300273D01*
X108344963Y-218290455D01*
X108346220Y-218280737D01*
X108349419Y-218261606D01*
X108353532Y-218242880D01*
X108358559Y-218224558D01*
X108364500Y-218206640D01*
X108371355Y-218189127D01*
X108379124Y-218172019D01*
X108387807Y-218155315D01*
X108397404Y-218139015D01*
X108407915Y-218123121D01*
X108419340Y-218107630D01*
X108431679Y-218092544D01*
X108438191Y-218085153D01*
X108444932Y-218077863D01*
X108451902Y-218070674D01*
X108459099Y-218063586D01*
X108466446Y-218056614D01*
X108473894Y-218049863D01*
X108481443Y-218043333D01*
X108489092Y-218037025D01*
X108496841Y-218030938D01*
X108504692Y-218025072D01*
X108520694Y-218014005D01*
X108537100Y-218003823D01*
X108553907Y-217994527D01*
X108571118Y-217986116D01*
X108588731Y-217978590D01*
X108606747Y-217971950D01*
X108625165Y-217966195D01*
X108643986Y-217961325D01*
X108653548Y-217959222D01*
X108663210Y-217957341D01*
X108672973Y-217955681D01*
X108682836Y-217954242D01*
X108692800Y-217953025D01*
X108702865Y-217952028D01*
X108713031Y-217951254D01*
X108723297Y-217950700D01*
X108733663Y-217950368D01*
X108744131Y-217950258D01*
X108754476Y-217950368D01*
X108764720Y-217950700D01*
X108774862Y-217951254D01*
X108784904Y-217952028D01*
X108794844Y-217953025D01*
X108804684Y-217954242D01*
X108814422Y-217955681D01*
X108824059Y-217957341D01*
X108843030Y-217961325D01*
X108861596Y-217966195D01*
X108879758Y-217971950D01*
X108897515Y-217978590D01*
X108914868Y-217986116D01*
X108931816Y-217994527D01*
X108948360Y-218003823D01*
X108964499Y-218014005D01*
X108980233Y-218025072D01*
X108995563Y-218037025D01*
X109003077Y-218043333D01*
X109010489Y-218049863D01*
X109017800Y-218056614D01*
X109025010Y-218063586D01*
X109032042Y-218070719D01*
X109038852Y-218077952D01*
X109045438Y-218085284D01*
X109051800Y-218092716D01*
X109063856Y-218107879D01*
X109075019Y-218123441D01*
X109085288Y-218139402D01*
X109094665Y-218155761D01*
X109103149Y-218172520D01*
X109110739Y-218189677D01*
X109117437Y-218207233D01*
X109123241Y-218225187D01*
X109128153Y-218243541D01*
X109132172Y-218262293D01*
X109135297Y-218281444D01*
X109136525Y-218291169D01*
X109137530Y-218300994D01*
X109138311Y-218310919D01*
X109138869Y-218320943D01*
X109139204Y-218331067D01*
X109139316Y-218341290D01*
X109139208Y-218351786D01*
X109138884Y-218362085D01*
X109138345Y-218372188D01*
X109137591Y-218382094D01*
X109136054Y-218396585D01*
X109134033Y-218410634D01*
X109131526Y-218424240D01*
X109128535Y-218437404D01*
X109125058Y-218450126D01*
X109121096Y-218462405D01*
X109116649Y-218474243D01*
X109111716Y-218485638D01*
X109107209Y-218496008D01*
X109102237Y-218506508D01*
X109096800Y-218517140D01*
X109092116Y-218525740D01*
X109087134Y-218534424D01*
X109081854Y-218543192D01*
X109076276Y-218552044D01*
X109074836Y-218554270D01*
X109068882Y-218563242D01*
X109062623Y-218572329D01*
X109056059Y-218581530D01*
X109049190Y-218590846D01*
X109042015Y-218600276D01*
X109034535Y-218609820D01*
X109026750Y-218619479D01*
X109018660Y-218629253D01*
X109214542Y-218629253D01*
X109219531Y-218620660D01*
X109224362Y-218612041D01*
X109229034Y-218603396D01*
X109233548Y-218594723D01*
X109242100Y-218577298D01*
X109250019Y-218559766D01*
X109257304Y-218542127D01*
X109263956Y-218524381D01*
X109269974Y-218506528D01*
X109275359Y-218488569D01*
X109280110Y-218470503D01*
X109284228Y-218452329D01*
X109287712Y-218434049D01*
X109290563Y-218415662D01*
X109292780Y-218397169D01*
X109294364Y-218378568D01*
X109295314Y-218359861D01*
X109295631Y-218341046D01*
X109295475Y-218326899D01*
X109295006Y-218312883D01*
X109294225Y-218298997D01*
X109293131Y-218285241D01*
X109291725Y-218271615D01*
X109290007Y-218258119D01*
X109287976Y-218244754D01*
X109285632Y-218231519D01*
X109282976Y-218218414D01*
X109280008Y-218205439D01*
X109276727Y-218192595D01*
X109273134Y-218179880D01*
X109269228Y-218167296D01*
X109265010Y-218154843D01*
X109260479Y-218142519D01*
X109255636Y-218130326D01*
X109250481Y-218118263D01*
X109245013Y-218106330D01*
X109239232Y-218094527D01*
X109233139Y-218082855D01*
X109226734Y-218071313D01*
X109220016Y-218059901D01*
X109212986Y-218048619D01*
X109205643Y-218037468D01*
X109197988Y-218026446D01*
X109190020Y-218015555D01*
X109181740Y-218004795D01*
X109173147Y-217994164D01*
X109164242Y-217983664D01*
X109155024Y-217973294D01*
X109145494Y-217963054D01*
X109135652Y-217952944D01*
X109125497Y-217943102D01*
X109115211Y-217933572D01*
X109104795Y-217924354D01*
X109094249Y-217915449D01*
X109083573Y-217906857D01*
X109072766Y-217898576D01*
X109061829Y-217890609D01*
X109050762Y-217882954D01*
X109039565Y-217875611D01*
X109028238Y-217868580D01*
X109016780Y-217861863D01*
X109005192Y-217855457D01*
X108993474Y-217849364D01*
X108981625Y-217843584D01*
X108969647Y-217838116D01*
X108957538Y-217832960D01*
X108945299Y-217828117D01*
X108932929Y-217823586D01*
X108920430Y-217819368D01*
X108907800Y-217815462D01*
X108895040Y-217811869D01*
X108882150Y-217808588D01*
X108869129Y-217805620D01*
X108855979Y-217802964D01*
X108842698Y-217800621D01*
X108829287Y-217798590D01*
X108815745Y-217796871D01*
X108802073Y-217795465D01*
X108788272Y-217794371D01*
X108774340Y-217793590D01*
X108760277Y-217793122D01*
X108746085Y-217792965D01*
X108733351Y-217793096D01*
X108720705Y-217793488D01*
X108708147Y-217794142D01*
X108695675Y-217795057D01*
X108683291Y-217796233D01*
X108670994Y-217797671D01*
X108658785Y-217799370D01*
X108646663Y-217801331D01*
X108634628Y-217803553D01*
X108622680Y-217806036D01*
X108610820Y-217808781D01*
X108599047Y-217811787D01*
X108587361Y-217815055D01*
X108575762Y-217818584D01*
X108564251Y-217822375D01*
X108552827Y-217826427D01*
X108541491Y-217830740D01*
X108530242Y-217835315D01*
X108519080Y-217840151D01*
X108508005Y-217845249D01*
X108497018Y-217850608D01*
X108486118Y-217856228D01*
X108475305Y-217862110D01*
X108464579Y-217868253D01*
X108453941Y-217874658D01*
X108443390Y-217881324D01*
X108432927Y-217888252D01*
X108422551Y-217895440D01*
X108412262Y-217902891D01*
X108402060Y-217910603D01*
X108391946Y-217918576D01*
X108381919Y-217926810D01*
X108369852Y-217937209D01*
X108358169Y-217947796D01*
X108346869Y-217958572D01*
X108335951Y-217969538D01*
X108325417Y-217980692D01*
X108315266Y-217992035D01*
X108305498Y-218003567D01*
X108296113Y-218015287D01*
X108287111Y-218027197D01*
X108278492Y-218039296D01*
X108270256Y-218051583D01*
X108262404Y-218064060D01*
X108254934Y-218076725D01*
X108247847Y-218089579D01*
X108241144Y-218102622D01*
X108234823Y-218115854D01*
X108228886Y-218129275D01*
X108223331Y-218142885D01*
X108218160Y-218156684D01*
X108213372Y-218170672D01*
X108208967Y-218184848D01*
X108204945Y-218199214D01*
X108201305Y-218213768D01*
X108198049Y-218228511D01*
X108195177Y-218243444D01*
X108192687Y-218258565D01*
X108190580Y-218273875D01*
X108188856Y-218289374D01*
X108187515Y-218305061D01*
X108186558Y-218320938D01*
X108185983Y-218337004D01*
X108185792Y-218353258D01*
X108186105Y-218371080D01*
X108187047Y-218388826D01*
X108188617Y-218406496D01*
X108190814Y-218424089D01*
X108193639Y-218441606D01*
X108197092Y-218459046D01*
X108201172Y-218476410D01*
X108205881Y-218493698D01*
X108211217Y-218510910D01*
X108217181Y-218528045D01*
X108223772Y-218545104D01*
X108230992Y-218562086D01*
X108238839Y-218578992D01*
X108247314Y-218595822D01*
X108256417Y-218612576D01*
X108266147Y-218629253D01*
G37*
G36*
X108217055Y-219134347D02*
G01*
X108902400Y-219134347D01*
X108917541Y-219134280D01*
X108932190Y-219134080D01*
X108946347Y-219133746D01*
X108960011Y-219133278D01*
X108973183Y-219132677D01*
X108985862Y-219131943D01*
X108998050Y-219131075D01*
X109009745Y-219130073D01*
X109020948Y-219128937D01*
X109031658Y-219127669D01*
X109041876Y-219126266D01*
X109051602Y-219124730D01*
X109065268Y-219122175D01*
X109077826Y-219119320D01*
X109085582Y-219117250D01*
X109098264Y-219113880D01*
X109110572Y-219110089D01*
X109122507Y-219105877D01*
X109134068Y-219101244D01*
X109145256Y-219096191D01*
X109156070Y-219090717D01*
X109166511Y-219084822D01*
X109176578Y-219078507D01*
X109186272Y-219071771D01*
X109195592Y-219064614D01*
X109201598Y-219059609D01*
X109212984Y-219049484D01*
X109223637Y-219038955D01*
X109233554Y-219028021D01*
X109242737Y-219016683D01*
X109251186Y-219004940D01*
X109258899Y-218992793D01*
X109265878Y-218980241D01*
X109272123Y-218967285D01*
X109277632Y-218953924D01*
X109282408Y-218940159D01*
X109286448Y-218925989D01*
X109289754Y-218911414D01*
X109292325Y-218896435D01*
X109294162Y-218881052D01*
X109295264Y-218865264D01*
X109295631Y-218849071D01*
X109295418Y-218836697D01*
X109294780Y-218824426D01*
X109293716Y-218812257D01*
X109292227Y-218800192D01*
X109290312Y-218788230D01*
X109287972Y-218776371D01*
X109285206Y-218764615D01*
X109282015Y-218752962D01*
X109278398Y-218741412D01*
X109274355Y-218729965D01*
X109269887Y-218718621D01*
X109264994Y-218707380D01*
X109259675Y-218696242D01*
X109253930Y-218685207D01*
X109247760Y-218674276D01*
X109241165Y-218663447D01*
X109100481Y-218741360D01*
X109107421Y-218752193D01*
X109113679Y-218762893D01*
X109119254Y-218773459D01*
X109124146Y-218783893D01*
X109128355Y-218794193D01*
X109131882Y-218804361D01*
X109134727Y-218814395D01*
X109136888Y-218824296D01*
X109138368Y-218834064D01*
X109139278Y-218846881D01*
X109139316Y-218850048D01*
X109138841Y-218862991D01*
X109137418Y-218875164D01*
X109135046Y-218886570D01*
X109131725Y-218897206D01*
X109127455Y-218907075D01*
X109122237Y-218916174D01*
X109116069Y-218924505D01*
X109108953Y-218932068D01*
X109100888Y-218938862D01*
X109091874Y-218944888D01*
X109085338Y-218948478D01*
X109074557Y-218953585D01*
X109062363Y-218958190D01*
X109048757Y-218962292D01*
X109038901Y-218964748D01*
X109028418Y-218966980D01*
X109017307Y-218968990D01*
X109005568Y-218970776D01*
X108993201Y-218972338D01*
X108980206Y-218973678D01*
X108966584Y-218974794D01*
X108952334Y-218975687D01*
X108937456Y-218976357D01*
X108921951Y-218976803D01*
X108905817Y-218977027D01*
X108897515Y-218977055D01*
X108217055Y-218977055D01*
X108217055Y-219134347D01*
G37*
G36*
X108217055Y-219551514D02*
G01*
X109123684Y-219551514D01*
X109123684Y-219863168D01*
X109280000Y-219863168D01*
X109280000Y-219394221D01*
X108217055Y-219394221D01*
X108217055Y-219551514D01*
G37*
G36*
X108266147Y-220757096D02*
G01*
X108457878Y-220757096D01*
X108450755Y-220748371D01*
X108443859Y-220739626D01*
X108437189Y-220730861D01*
X108430744Y-220722078D01*
X108424526Y-220713276D01*
X108418534Y-220704455D01*
X108412768Y-220695614D01*
X108407228Y-220686755D01*
X108401915Y-220677876D01*
X108396827Y-220668978D01*
X108391965Y-220660061D01*
X108387330Y-220651126D01*
X108382921Y-220642171D01*
X108378738Y-220633197D01*
X108374781Y-220624204D01*
X108367545Y-220606160D01*
X108361214Y-220588040D01*
X108355787Y-220569844D01*
X108351265Y-220551572D01*
X108347647Y-220533223D01*
X108344933Y-220514798D01*
X108343124Y-220496297D01*
X108342220Y-220477719D01*
X108342107Y-220468401D01*
X108342221Y-220458179D01*
X108342564Y-220448057D01*
X108343135Y-220438036D01*
X108343935Y-220428117D01*
X108344963Y-220418298D01*
X108346220Y-220408581D01*
X108349419Y-220389450D01*
X108353532Y-220370723D01*
X108358559Y-220352401D01*
X108364500Y-220334484D01*
X108371355Y-220316971D01*
X108379124Y-220299862D01*
X108387807Y-220283159D01*
X108397404Y-220266859D01*
X108407915Y-220250964D01*
X108419340Y-220235474D01*
X108431679Y-220220388D01*
X108438191Y-220212997D01*
X108444932Y-220205707D01*
X108451902Y-220198518D01*
X108459099Y-220191430D01*
X108466446Y-220184458D01*
X108473894Y-220177707D01*
X108481443Y-220171177D01*
X108489092Y-220164869D01*
X108496841Y-220158782D01*
X108504692Y-220152916D01*
X108520694Y-220141849D01*
X108537100Y-220131667D01*
X108553907Y-220122370D01*
X108571118Y-220113959D01*
X108588731Y-220106434D01*
X108606747Y-220099793D01*
X108625165Y-220094038D01*
X108643986Y-220089169D01*
X108653548Y-220087066D01*
X108663210Y-220085184D01*
X108672973Y-220083524D01*
X108682836Y-220082086D01*
X108692800Y-220080868D01*
X108702865Y-220079872D01*
X108713031Y-220079097D01*
X108723297Y-220078544D01*
X108733663Y-220078212D01*
X108744131Y-220078101D01*
X108754476Y-220078212D01*
X108764720Y-220078544D01*
X108774862Y-220079097D01*
X108784904Y-220079872D01*
X108794844Y-220080868D01*
X108804684Y-220082086D01*
X108814422Y-220083524D01*
X108824059Y-220085184D01*
X108843030Y-220089169D01*
X108861596Y-220094038D01*
X108879758Y-220099793D01*
X108897515Y-220106434D01*
X108914868Y-220113959D01*
X108931816Y-220122370D01*
X108948360Y-220131667D01*
X108964499Y-220141849D01*
X108980233Y-220152916D01*
X108995563Y-220164869D01*
X109003077Y-220171177D01*
X109010489Y-220177707D01*
X109017800Y-220184458D01*
X109025010Y-220191430D01*
X109032042Y-220198563D01*
X109038852Y-220205796D01*
X109045438Y-220213128D01*
X109051800Y-220220560D01*
X109063856Y-220235723D01*
X109075019Y-220251285D01*
X109085288Y-220267246D01*
X109094665Y-220283605D01*
X109103149Y-220300363D01*
X109110739Y-220317520D01*
X109117437Y-220335076D01*
X109123241Y-220353031D01*
X109128153Y-220371385D01*
X109132172Y-220390137D01*
X109135297Y-220409288D01*
X109136525Y-220419013D01*
X109137530Y-220428838D01*
X109138311Y-220438762D01*
X109138869Y-220448787D01*
X109139204Y-220458911D01*
X109139316Y-220469134D01*
X109139208Y-220479630D01*
X109138884Y-220489929D01*
X109138345Y-220500032D01*
X109137591Y-220509938D01*
X109136054Y-220524429D01*
X109134033Y-220538477D01*
X109131526Y-220552083D01*
X109128535Y-220565248D01*
X109125058Y-220577969D01*
X109121096Y-220590249D01*
X109116649Y-220602086D01*
X109111716Y-220613482D01*
X109107209Y-220623851D01*
X109102237Y-220634352D01*
X109096800Y-220644984D01*
X109092116Y-220653584D01*
X109087134Y-220662268D01*
X109081854Y-220671036D01*
X109076276Y-220679888D01*
X109074836Y-220682114D01*
X109068882Y-220691086D01*
X109062623Y-220700173D01*
X109056059Y-220709374D01*
X109049190Y-220718689D01*
X109042015Y-220728119D01*
X109034535Y-220737664D01*
X109026750Y-220747323D01*
X109018660Y-220757096D01*
X109214542Y-220757096D01*
X109219531Y-220748504D01*
X109224362Y-220739885D01*
X109229034Y-220731239D01*
X109233548Y-220722567D01*
X109242100Y-220705141D01*
X109250019Y-220687609D01*
X109257304Y-220669970D01*
X109263956Y-220652225D01*
X109269974Y-220634372D01*
X109275359Y-220616413D01*
X109280110Y-220598346D01*
X109284228Y-220580173D01*
X109287712Y-220561893D01*
X109290563Y-220543506D01*
X109292780Y-220525012D01*
X109294364Y-220506412D01*
X109295314Y-220487704D01*
X109295631Y-220468890D01*
X109295475Y-220454743D01*
X109295006Y-220440727D01*
X109294225Y-220426840D01*
X109293131Y-220413084D01*
X109291725Y-220399458D01*
X109290007Y-220385963D01*
X109287976Y-220372597D01*
X109285632Y-220359362D01*
X109282976Y-220346257D01*
X109280008Y-220333283D01*
X109276727Y-220320438D01*
X109273134Y-220307724D01*
X109269228Y-220295140D01*
X109265010Y-220282686D01*
X109260479Y-220270363D01*
X109255636Y-220258169D01*
X109250481Y-220246106D01*
X109245013Y-220234174D01*
X109239232Y-220222371D01*
X109233139Y-220210699D01*
X109226734Y-220199156D01*
X109220016Y-220187744D01*
X109212986Y-220176463D01*
X109205643Y-220165311D01*
X109197988Y-220154290D01*
X109190020Y-220143399D01*
X109181740Y-220132638D01*
X109173147Y-220122008D01*
X109164242Y-220111508D01*
X109155024Y-220101137D01*
X109145494Y-220090898D01*
X109135652Y-220080788D01*
X109125497Y-220070946D01*
X109115211Y-220061416D01*
X109104795Y-220052198D01*
X109094249Y-220043293D01*
X109083573Y-220034700D01*
X109072766Y-220026420D01*
X109061829Y-220018452D01*
X109050762Y-220010797D01*
X109039565Y-220003454D01*
X109028238Y-219996424D01*
X109016780Y-219989706D01*
X109005192Y-219983301D01*
X108993474Y-219977208D01*
X108981625Y-219971427D01*
X108969647Y-219965959D01*
X108957538Y-219960804D01*
X108945299Y-219955961D01*
X108932929Y-219951430D01*
X108920430Y-219947212D01*
X108907800Y-219943306D01*
X108895040Y-219939713D01*
X108882150Y-219936432D01*
X108869129Y-219933464D01*
X108855979Y-219930808D01*
X108842698Y-219928464D01*
X108829287Y-219926433D01*
X108815745Y-219924715D01*
X108802073Y-219923309D01*
X108788272Y-219922215D01*
X108774340Y-219921434D01*
X108760277Y-219920965D01*
X108746085Y-219920809D01*
X108733351Y-219920940D01*
X108720705Y-219921332D01*
X108708147Y-219921985D01*
X108695675Y-219922900D01*
X108683291Y-219924077D01*
X108670994Y-219925514D01*
X108658785Y-219927214D01*
X108646663Y-219929174D01*
X108634628Y-219931396D01*
X108622680Y-219933880D01*
X108610820Y-219936625D01*
X108599047Y-219939631D01*
X108587361Y-219942899D01*
X108575762Y-219946428D01*
X108564251Y-219950218D01*
X108552827Y-219954270D01*
X108541491Y-219958584D01*
X108530242Y-219963158D01*
X108519080Y-219967995D01*
X108508005Y-219973092D01*
X108497018Y-219978451D01*
X108486118Y-219984072D01*
X108475305Y-219989954D01*
X108464579Y-219996097D01*
X108453941Y-220002502D01*
X108443390Y-220009168D01*
X108432927Y-220016095D01*
X108422551Y-220023284D01*
X108412262Y-220030734D01*
X108402060Y-220038446D01*
X108391946Y-220046419D01*
X108381919Y-220054654D01*
X108369852Y-220065053D01*
X108358169Y-220075640D01*
X108346869Y-220086416D01*
X108335951Y-220097381D01*
X108325417Y-220108535D01*
X108315266Y-220119878D01*
X108305498Y-220131410D01*
X108296113Y-220143131D01*
X108287111Y-220155041D01*
X108278492Y-220167139D01*
X108270256Y-220179427D01*
X108262404Y-220191903D01*
X108254934Y-220204569D01*
X108247847Y-220217423D01*
X108241144Y-220230466D01*
X108234823Y-220243698D01*
X108228886Y-220257119D01*
X108223331Y-220270729D01*
X108218160Y-220284528D01*
X108213372Y-220298515D01*
X108208967Y-220312692D01*
X108204945Y-220327057D01*
X108201305Y-220341612D01*
X108198049Y-220356355D01*
X108195177Y-220371287D01*
X108192687Y-220386408D01*
X108190580Y-220401718D01*
X108188856Y-220417217D01*
X108187515Y-220432905D01*
X108186558Y-220448782D01*
X108185983Y-220464848D01*
X108185792Y-220481102D01*
X108186105Y-220498924D01*
X108187047Y-220516670D01*
X108188617Y-220534339D01*
X108190814Y-220551933D01*
X108193639Y-220569449D01*
X108197092Y-220586890D01*
X108201172Y-220604254D01*
X108205881Y-220621542D01*
X108211217Y-220638753D01*
X108217181Y-220655888D01*
X108223772Y-220672947D01*
X108230992Y-220689930D01*
X108238839Y-220706836D01*
X108247314Y-220723666D01*
X108256417Y-220740419D01*
X108266147Y-220757096D01*
G37*
G36*
X108217055Y-221262191D02*
G01*
X108902400Y-221262191D01*
X108917541Y-221262124D01*
X108932190Y-221261924D01*
X108946347Y-221261590D01*
X108960011Y-221261122D01*
X108973183Y-221260521D01*
X108985862Y-221259786D01*
X108998050Y-221258918D01*
X109009745Y-221257916D01*
X109020948Y-221256781D01*
X109031658Y-221255512D01*
X109041876Y-221254110D01*
X109051602Y-221252574D01*
X109065268Y-221250019D01*
X109077826Y-221247164D01*
X109085582Y-221245094D01*
X109098264Y-221241723D01*
X109110572Y-221237932D01*
X109122507Y-221233721D01*
X109134068Y-221229088D01*
X109145256Y-221224035D01*
X109156070Y-221218561D01*
X109166511Y-221212666D01*
X109176578Y-221206351D01*
X109186272Y-221199614D01*
X109195592Y-221192457D01*
X109201598Y-221187452D01*
X109212984Y-221177328D01*
X109223637Y-221166799D01*
X109233554Y-221155865D01*
X109242737Y-221144527D01*
X109251186Y-221132784D01*
X109258899Y-221120637D01*
X109265878Y-221108085D01*
X109272123Y-221095129D01*
X109277632Y-221081768D01*
X109282408Y-221068002D01*
X109286448Y-221053832D01*
X109289754Y-221039258D01*
X109292325Y-221024279D01*
X109294162Y-221008896D01*
X109295264Y-220993108D01*
X109295631Y-220976915D01*
X109295418Y-220964541D01*
X109294780Y-220952269D01*
X109293716Y-220940101D01*
X109292227Y-220928036D01*
X109290312Y-220916074D01*
X109287972Y-220904215D01*
X109285206Y-220892459D01*
X109282015Y-220880806D01*
X109278398Y-220869255D01*
X109274355Y-220857809D01*
X109269887Y-220846465D01*
X109264994Y-220835224D01*
X109259675Y-220824086D01*
X109253930Y-220813051D01*
X109247760Y-220802119D01*
X109241165Y-220791290D01*
X109100481Y-220869204D01*
X109107421Y-220880037D01*
X109113679Y-220890736D01*
X109119254Y-220901303D01*
X109124146Y-220911737D01*
X109128355Y-220922037D01*
X109131882Y-220932204D01*
X109134727Y-220942239D01*
X109136888Y-220952140D01*
X109138368Y-220961908D01*
X109139278Y-220974725D01*
X109139316Y-220977892D01*
X109138841Y-220990834D01*
X109137418Y-221003008D01*
X109135046Y-221014413D01*
X109131725Y-221025050D01*
X109127455Y-221034918D01*
X109122237Y-221044018D01*
X109116069Y-221052349D01*
X109108953Y-221059912D01*
X109100888Y-221066706D01*
X109091874Y-221072732D01*
X109085338Y-221076322D01*
X109074557Y-221081429D01*
X109062363Y-221086033D01*
X109048757Y-221090136D01*
X109038901Y-221092591D01*
X109028418Y-221094824D01*
X109017307Y-221096833D01*
X109005568Y-221098619D01*
X108993201Y-221100182D01*
X108980206Y-221101522D01*
X108966584Y-221102638D01*
X108952334Y-221103531D01*
X108937456Y-221104201D01*
X108921951Y-221104647D01*
X108905817Y-221104870D01*
X108897515Y-221104898D01*
X108217055Y-221104898D01*
X108217055Y-221262191D01*
G37*
G36*
X108217055Y-221679357D02*
G01*
X109123684Y-221679357D01*
X109123684Y-221991011D01*
X109280000Y-221991011D01*
X109280000Y-221522065D01*
X108217055Y-221522065D01*
X108217055Y-221679357D01*
G37*
G36*
X108266147Y-222884940D02*
G01*
X108457878Y-222884940D01*
X108450755Y-222876214D01*
X108443859Y-222867469D01*
X108437189Y-222858705D01*
X108430744Y-222849922D01*
X108424526Y-222841120D01*
X108418534Y-222832298D01*
X108412768Y-222823458D01*
X108407228Y-222814598D01*
X108401915Y-222805720D01*
X108396827Y-222796822D01*
X108391965Y-222787905D01*
X108387330Y-222778969D01*
X108382921Y-222770014D01*
X108378738Y-222761040D01*
X108374781Y-222752047D01*
X108367545Y-222734004D01*
X108361214Y-222715884D01*
X108355787Y-222697688D01*
X108351265Y-222679416D01*
X108347647Y-222661067D01*
X108344933Y-222642642D01*
X108343124Y-222624140D01*
X108342220Y-222605563D01*
X108342107Y-222596245D01*
X108342221Y-222586022D01*
X108342564Y-222575900D01*
X108343135Y-222565880D01*
X108343935Y-222555960D01*
X108344963Y-222546142D01*
X108346220Y-222536425D01*
X108349419Y-222517294D01*
X108353532Y-222498567D01*
X108358559Y-222480245D01*
X108364500Y-222462328D01*
X108371355Y-222444815D01*
X108379124Y-222427706D01*
X108387807Y-222411002D01*
X108397404Y-222394703D01*
X108407915Y-222378808D01*
X108419340Y-222363318D01*
X108431679Y-222348232D01*
X108438191Y-222340841D01*
X108444932Y-222333551D01*
X108451902Y-222326362D01*
X108459099Y-222319274D01*
X108466446Y-222312301D01*
X108473894Y-222305550D01*
X108481443Y-222299021D01*
X108489092Y-222292712D01*
X108496841Y-222286625D01*
X108504692Y-222280760D01*
X108520694Y-222269692D01*
X108537100Y-222259511D01*
X108553907Y-222250214D01*
X108571118Y-222241803D01*
X108588731Y-222234277D01*
X108606747Y-222227637D01*
X108625165Y-222221882D01*
X108643986Y-222217012D01*
X108653548Y-222214910D01*
X108663210Y-222213028D01*
X108672973Y-222211368D01*
X108682836Y-222209929D01*
X108692800Y-222208712D01*
X108702865Y-222207716D01*
X108713031Y-222206941D01*
X108723297Y-222206388D01*
X108733663Y-222206056D01*
X108744131Y-222205945D01*
X108754476Y-222206056D01*
X108764720Y-222206388D01*
X108774862Y-222206941D01*
X108784904Y-222207716D01*
X108794844Y-222208712D01*
X108804684Y-222209929D01*
X108814422Y-222211368D01*
X108824059Y-222213028D01*
X108843030Y-222217012D01*
X108861596Y-222221882D01*
X108879758Y-222227637D01*
X108897515Y-222234277D01*
X108914868Y-222241803D01*
X108931816Y-222250214D01*
X108948360Y-222259511D01*
X108964499Y-222269692D01*
X108980233Y-222280760D01*
X108995563Y-222292712D01*
X109003077Y-222299021D01*
X109010489Y-222305550D01*
X109017800Y-222312301D01*
X109025010Y-222319274D01*
X109032042Y-222326407D01*
X109038852Y-222333639D01*
X109045438Y-222340972D01*
X109051800Y-222348404D01*
X109063856Y-222363567D01*
X109075019Y-222379129D01*
X109085288Y-222395089D01*
X109094665Y-222411449D01*
X109103149Y-222428207D01*
X109110739Y-222445364D01*
X109117437Y-222462920D01*
X109123241Y-222480875D01*
X109128153Y-222499228D01*
X109132172Y-222517981D01*
X109135297Y-222537132D01*
X109136525Y-222546857D01*
X109137530Y-222556682D01*
X109138311Y-222566606D01*
X109138869Y-222576630D01*
X109139204Y-222586754D01*
X109139316Y-222596978D01*
X109139208Y-222607474D01*
X109138884Y-222617773D01*
X109138345Y-222627876D01*
X109137591Y-222637782D01*
X109136054Y-222652272D01*
X109134033Y-222666321D01*
X109131526Y-222679927D01*
X109128535Y-222693091D01*
X109125058Y-222705813D01*
X109121096Y-222718093D01*
X109116649Y-222729930D01*
X109111716Y-222741325D01*
X109107209Y-222751695D01*
X109102237Y-222762196D01*
X109096800Y-222772828D01*
X109092116Y-222781428D01*
X109087134Y-222790112D01*
X109081854Y-222798880D01*
X109076276Y-222807732D01*
X109074836Y-222809958D01*
X109068882Y-222818930D01*
X109062623Y-222828016D01*
X109056059Y-222837217D01*
X109049190Y-222846533D01*
X109042015Y-222855963D01*
X109034535Y-222865508D01*
X109026750Y-222875167D01*
X109018660Y-222884940D01*
X109214542Y-222884940D01*
X109219531Y-222876348D01*
X109224362Y-222867729D01*
X109229034Y-222859083D01*
X109233548Y-222850410D01*
X109242100Y-222832985D01*
X109250019Y-222815453D01*
X109257304Y-222797814D01*
X109263956Y-222780068D01*
X109269974Y-222762216D01*
X109275359Y-222744256D01*
X109280110Y-222726190D01*
X109284228Y-222708017D01*
X109287712Y-222689737D01*
X109290563Y-222671350D01*
X109292780Y-222652856D01*
X109294364Y-222634255D01*
X109295314Y-222615548D01*
X109295631Y-222596734D01*
X109295475Y-222582587D01*
X109295006Y-222568570D01*
X109294225Y-222554684D01*
X109293131Y-222540928D01*
X109291725Y-222527302D01*
X109290007Y-222513806D01*
X109287976Y-222500441D01*
X109285632Y-222487206D01*
X109282976Y-222474101D01*
X109280008Y-222461126D01*
X109276727Y-222448282D01*
X109273134Y-222435568D01*
X109269228Y-222422984D01*
X109265010Y-222410530D01*
X109260479Y-222398206D01*
X109255636Y-222386013D01*
X109250481Y-222373950D01*
X109245013Y-222362017D01*
X109239232Y-222350215D01*
X109233139Y-222338542D01*
X109226734Y-222327000D01*
X109220016Y-222315588D01*
X109212986Y-222304306D01*
X109205643Y-222293155D01*
X109197988Y-222282134D01*
X109190020Y-222271243D01*
X109181740Y-222260482D01*
X109173147Y-222249852D01*
X109164242Y-222239351D01*
X109155024Y-222228981D01*
X109145494Y-222218741D01*
X109135652Y-222208632D01*
X109125497Y-222198789D01*
X109115211Y-222189259D01*
X109104795Y-222180042D01*
X109094249Y-222171137D01*
X109083573Y-222162544D01*
X109072766Y-222154264D01*
X109061829Y-222146296D01*
X109050762Y-222138641D01*
X109039565Y-222131298D01*
X109028238Y-222124268D01*
X109016780Y-222117550D01*
X109005192Y-222111144D01*
X108993474Y-222105052D01*
X108981625Y-222099271D01*
X108969647Y-222093803D01*
X108957538Y-222088647D01*
X108945299Y-222083804D01*
X108932929Y-222079274D01*
X108920430Y-222075055D01*
X108907800Y-222071150D01*
X108895040Y-222067556D01*
X108882150Y-222064276D01*
X108869129Y-222061307D01*
X108855979Y-222058651D01*
X108842698Y-222056308D01*
X108829287Y-222054277D01*
X108815745Y-222052558D01*
X108802073Y-222051152D01*
X108788272Y-222050059D01*
X108774340Y-222049278D01*
X108760277Y-222048809D01*
X108746085Y-222048653D01*
X108733351Y-222048783D01*
X108720705Y-222049176D01*
X108708147Y-222049829D01*
X108695675Y-222050744D01*
X108683291Y-222051920D01*
X108670994Y-222053358D01*
X108658785Y-222055057D01*
X108646663Y-222057018D01*
X108634628Y-222059240D01*
X108622680Y-222061723D01*
X108610820Y-222064468D01*
X108599047Y-222067475D01*
X108587361Y-222070742D01*
X108575762Y-222074271D01*
X108564251Y-222078062D01*
X108552827Y-222082114D01*
X108541491Y-222086427D01*
X108530242Y-222091002D01*
X108519080Y-222095838D01*
X108508005Y-222100936D01*
X108497018Y-222106295D01*
X108486118Y-222111915D01*
X108475305Y-222117797D01*
X108464579Y-222123941D01*
X108453941Y-222130345D01*
X108443390Y-222137011D01*
X108432927Y-222143939D01*
X108422551Y-222151128D01*
X108412262Y-222158578D01*
X108402060Y-222166290D01*
X108391946Y-222174263D01*
X108381919Y-222182498D01*
X108369852Y-222192896D01*
X108358169Y-222203484D01*
X108346869Y-222214260D01*
X108335951Y-222225225D01*
X108325417Y-222236379D01*
X108315266Y-222247722D01*
X108305498Y-222259254D01*
X108296113Y-222270975D01*
X108287111Y-222282884D01*
X108278492Y-222294983D01*
X108270256Y-222307271D01*
X108262404Y-222319747D01*
X108254934Y-222332412D01*
X108247847Y-222345267D01*
X108241144Y-222358310D01*
X108234823Y-222371542D01*
X108228886Y-222384963D01*
X108223331Y-222398573D01*
X108218160Y-222412371D01*
X108213372Y-222426359D01*
X108208967Y-222440536D01*
X108204945Y-222454901D01*
X108201305Y-222469455D01*
X108198049Y-222484199D01*
X108195177Y-222499131D01*
X108192687Y-222514252D01*
X108190580Y-222529562D01*
X108188856Y-222545061D01*
X108187515Y-222560749D01*
X108186558Y-222576626D01*
X108185983Y-222592691D01*
X108185792Y-222608946D01*
X108186105Y-222626768D01*
X108187047Y-222644514D01*
X108188617Y-222662183D01*
X108190814Y-222679776D01*
X108193639Y-222697293D01*
X108197092Y-222714733D01*
X108201172Y-222732098D01*
X108205881Y-222749385D01*
X108211217Y-222766597D01*
X108217181Y-222783732D01*
X108223772Y-222800791D01*
X108230992Y-222817773D01*
X108238839Y-222834680D01*
X108247314Y-222851509D01*
X108256417Y-222868263D01*
X108266147Y-222884940D01*
G37*
G36*
X100357055Y-102452344D02*
G01*
X101263684Y-102452344D01*
X101263684Y-102763998D01*
X101420000Y-102763998D01*
X101420000Y-102295052D01*
X100357055Y-102295052D01*
X100357055Y-102452344D01*
G37*
G36*
X100747843Y-103041458D02*
G01*
X101420000Y-103041458D01*
X101420000Y-102884166D01*
X100747843Y-102884166D01*
X100747843Y-103041458D01*
G37*
G36*
X100473314Y-102868534D02*
G01*
X100463232Y-102869000D01*
X100453500Y-102870396D01*
X100441829Y-102873452D01*
X100430707Y-102877962D01*
X100420134Y-102883928D01*
X100412070Y-102889747D01*
X100404357Y-102896498D01*
X100402484Y-102898332D01*
X100395500Y-102906022D01*
X100389447Y-102914070D01*
X100384326Y-102922477D01*
X100379234Y-102933491D01*
X100375596Y-102945065D01*
X100373734Y-102954728D01*
X100372803Y-102964750D01*
X100372686Y-102969895D01*
X100373152Y-102980264D01*
X100374549Y-102990243D01*
X100376876Y-102999834D01*
X100381096Y-103011274D01*
X100385519Y-103019989D01*
X100390873Y-103028314D01*
X100397159Y-103036250D01*
X100402484Y-103041946D01*
X100409960Y-103048930D01*
X100417856Y-103054983D01*
X100428316Y-103061239D01*
X100439432Y-103066041D01*
X100448797Y-103068834D01*
X100458582Y-103070697D01*
X100468787Y-103071628D01*
X100474047Y-103071744D01*
X100484469Y-103071279D01*
X100494487Y-103069882D01*
X100504100Y-103067554D01*
X100515548Y-103063334D01*
X100526364Y-103057660D01*
X100534561Y-103052073D01*
X100542354Y-103045555D01*
X100546099Y-103041946D01*
X100553082Y-103034474D01*
X100559135Y-103026590D01*
X100565391Y-103016155D01*
X100570193Y-103005075D01*
X100573539Y-102993352D01*
X100575169Y-102983510D01*
X100575867Y-102973256D01*
X100575896Y-102970628D01*
X100575434Y-102960255D01*
X100574049Y-102950264D01*
X100571740Y-102940654D01*
X100568508Y-102931427D01*
X100564352Y-102922580D01*
X100559272Y-102914116D01*
X100553269Y-102906033D01*
X100546343Y-102898332D01*
X100538684Y-102891348D01*
X100530604Y-102885295D01*
X100522106Y-102880174D01*
X100513187Y-102875983D01*
X100503848Y-102872724D01*
X100494090Y-102870396D01*
X100483912Y-102869000D01*
X100473314Y-102868534D01*
G37*
G36*
X100779351Y-103747808D02*
G01*
X100983293Y-103747808D01*
X100975452Y-103741289D01*
X100967925Y-103734860D01*
X100957225Y-103725384D01*
X100947234Y-103716109D01*
X100937951Y-103707037D01*
X100929377Y-103698166D01*
X100921511Y-103689497D01*
X100914353Y-103681030D01*
X100907904Y-103672764D01*
X100902163Y-103664701D01*
X100895610Y-103654263D01*
X100889828Y-103643841D01*
X100884818Y-103632968D01*
X100880578Y-103621645D01*
X100877109Y-103609872D01*
X100874411Y-103597649D01*
X100872483Y-103584975D01*
X100871544Y-103575174D01*
X100871038Y-103565119D01*
X100870942Y-103558276D01*
X100871179Y-103547642D01*
X100871892Y-103537233D01*
X100873080Y-103527049D01*
X100874743Y-103517090D01*
X100876881Y-103507357D01*
X100879494Y-103497849D01*
X100882582Y-103488566D01*
X100888106Y-103475063D01*
X100894698Y-103462067D01*
X100902359Y-103449578D01*
X100908061Y-103441533D01*
X100914238Y-103433713D01*
X100920889Y-103426119D01*
X100928016Y-103418750D01*
X100931758Y-103415150D01*
X100939450Y-103408229D01*
X100947382Y-103401754D01*
X100955555Y-103395727D01*
X100963968Y-103390145D01*
X100972621Y-103385010D01*
X100981515Y-103380322D01*
X100990649Y-103376080D01*
X101000024Y-103372285D01*
X101009639Y-103368936D01*
X101019495Y-103366034D01*
X101029591Y-103363578D01*
X101039927Y-103361569D01*
X101050504Y-103360006D01*
X101061321Y-103358890D01*
X101072379Y-103358220D01*
X101083677Y-103357997D01*
X101095210Y-103358211D01*
X101106483Y-103358855D01*
X101117497Y-103359929D01*
X101128251Y-103361431D01*
X101138746Y-103363363D01*
X101148982Y-103365725D01*
X101158957Y-103368515D01*
X101168674Y-103371735D01*
X101178130Y-103375385D01*
X101187328Y-103379463D01*
X101196265Y-103383971D01*
X101204944Y-103388909D01*
X101213362Y-103394275D01*
X101221522Y-103400071D01*
X101229421Y-103406297D01*
X101237062Y-103412951D01*
X101244308Y-103420060D01*
X101251086Y-103427404D01*
X101257398Y-103434982D01*
X101265988Y-103446789D01*
X101273526Y-103459125D01*
X101280013Y-103471988D01*
X101285447Y-103485380D01*
X101289830Y-103499300D01*
X101292168Y-103508873D01*
X101294038Y-103518681D01*
X101295440Y-103528723D01*
X101296375Y-103539000D01*
X101296843Y-103549512D01*
X101296901Y-103554856D01*
X101296693Y-103565090D01*
X101296068Y-103575092D01*
X101295027Y-103584863D01*
X101292991Y-103597529D01*
X101290215Y-103609783D01*
X101286698Y-103621625D01*
X101282441Y-103633055D01*
X101277443Y-103644072D01*
X101273210Y-103652065D01*
X101266672Y-103662484D01*
X101260883Y-103670588D01*
X101254333Y-103678941D01*
X101247024Y-103687544D01*
X101238954Y-103696395D01*
X101230125Y-103705496D01*
X101220536Y-103714845D01*
X101210187Y-103724444D01*
X101202865Y-103730981D01*
X101195206Y-103737629D01*
X101187209Y-103744387D01*
X101183084Y-103747808D01*
X101386538Y-103747808D01*
X101392483Y-103736174D01*
X101398044Y-103724537D01*
X101403222Y-103712895D01*
X101408016Y-103701250D01*
X101412427Y-103689600D01*
X101416454Y-103677947D01*
X101420098Y-103666290D01*
X101423358Y-103654630D01*
X101426234Y-103642965D01*
X101428727Y-103631297D01*
X101430837Y-103619625D01*
X101432563Y-103607949D01*
X101433905Y-103596269D01*
X101434864Y-103584585D01*
X101435439Y-103572898D01*
X101435631Y-103561207D01*
X101435241Y-103542199D01*
X101434070Y-103523582D01*
X101432119Y-103505356D01*
X101429388Y-103487522D01*
X101425876Y-103470078D01*
X101421583Y-103453026D01*
X101416510Y-103436365D01*
X101410657Y-103420095D01*
X101404024Y-103404217D01*
X101396609Y-103388729D01*
X101388415Y-103373633D01*
X101379440Y-103358928D01*
X101369685Y-103344614D01*
X101359149Y-103330691D01*
X101347832Y-103317159D01*
X101335736Y-103304019D01*
X101322997Y-103291508D01*
X101309877Y-103279805D01*
X101296374Y-103268908D01*
X101282491Y-103258819D01*
X101268225Y-103249537D01*
X101253579Y-103241062D01*
X101238550Y-103233394D01*
X101223140Y-103226533D01*
X101207348Y-103220479D01*
X101191174Y-103215233D01*
X101174619Y-103210794D01*
X101157683Y-103207161D01*
X101140364Y-103204336D01*
X101122664Y-103202319D01*
X101104583Y-103201108D01*
X101086120Y-103200704D01*
X101067707Y-103201114D01*
X101049655Y-103202342D01*
X101031963Y-103204388D01*
X101014633Y-103207253D01*
X100997663Y-103210937D01*
X100981053Y-103215439D01*
X100964804Y-103220760D01*
X100948916Y-103226899D01*
X100933389Y-103233857D01*
X100918222Y-103241634D01*
X100903415Y-103250229D01*
X100888970Y-103259643D01*
X100874885Y-103269876D01*
X100861160Y-103280927D01*
X100847797Y-103292796D01*
X100834794Y-103305484D01*
X100822372Y-103318768D01*
X100810751Y-103332424D01*
X100799932Y-103346451D01*
X100789914Y-103360851D01*
X100780698Y-103375623D01*
X100772283Y-103390767D01*
X100764669Y-103406283D01*
X100757857Y-103422172D01*
X100751846Y-103438432D01*
X100746637Y-103455064D01*
X100742229Y-103472069D01*
X100738623Y-103489445D01*
X100735818Y-103507194D01*
X100733814Y-103525315D01*
X100732612Y-103543807D01*
X100732212Y-103562672D01*
X100732396Y-103574902D01*
X100732948Y-103587043D01*
X100733869Y-103599097D01*
X100735158Y-103611063D01*
X100736815Y-103622941D01*
X100738841Y-103634731D01*
X100741234Y-103646434D01*
X100743996Y-103658049D01*
X100747127Y-103669576D01*
X100750625Y-103681016D01*
X100754492Y-103692367D01*
X100758727Y-103703631D01*
X100763331Y-103714807D01*
X100768302Y-103725895D01*
X100773642Y-103736896D01*
X100779351Y-103747808D01*
G37*
G36*
X100263265Y-103935387D02*
G01*
X100263265Y-104092679D01*
X100805973Y-104092679D01*
X100797041Y-104103064D01*
X100788685Y-104113581D01*
X100780906Y-104124229D01*
X100773702Y-104135010D01*
X100767075Y-104145921D01*
X100761025Y-104156965D01*
X100755550Y-104168140D01*
X100750652Y-104179446D01*
X100746330Y-104190885D01*
X100742584Y-104202455D01*
X100739415Y-104214157D01*
X100736822Y-104225990D01*
X100734805Y-104237955D01*
X100733364Y-104250052D01*
X100732500Y-104262280D01*
X100732212Y-104274640D01*
X100732499Y-104288658D01*
X100733360Y-104302320D01*
X100734796Y-104315624D01*
X100736806Y-104328572D01*
X100739391Y-104341163D01*
X100742550Y-104353397D01*
X100746283Y-104365274D01*
X100750591Y-104376795D01*
X100755473Y-104387958D01*
X100760929Y-104398765D01*
X100766960Y-104409215D01*
X100773565Y-104419308D01*
X100780744Y-104429045D01*
X100788498Y-104438424D01*
X100796826Y-104447447D01*
X100805729Y-104456113D01*
X100814025Y-104463093D01*
X100822917Y-104469622D01*
X100832405Y-104475702D01*
X100842487Y-104481331D01*
X100853165Y-104486509D01*
X100864439Y-104491238D01*
X100876307Y-104495516D01*
X100888771Y-104499344D01*
X100901831Y-104502721D01*
X100915485Y-104505648D01*
X100929735Y-104508125D01*
X100944581Y-104510151D01*
X100960022Y-104511727D01*
X100976058Y-104512853D01*
X100992689Y-104513529D01*
X101009916Y-104513754D01*
X101420000Y-104513754D01*
X101420000Y-104356461D01*
X101023838Y-104356461D01*
X101013936Y-104356351D01*
X100999735Y-104355770D01*
X100986316Y-104354691D01*
X100973678Y-104353114D01*
X100961821Y-104351039D01*
X100950746Y-104348465D01*
X100940452Y-104345394D01*
X100930939Y-104341825D01*
X100919471Y-104336291D01*
X100909392Y-104329872D01*
X100907090Y-104328129D01*
X100898617Y-104320569D01*
X100891275Y-104311933D01*
X100885062Y-104302220D01*
X100879979Y-104291432D01*
X100876025Y-104279567D01*
X100873801Y-104269962D01*
X100872212Y-104259752D01*
X100871259Y-104248936D01*
X100870942Y-104237515D01*
X100871138Y-104227686D01*
X100872170Y-104213637D01*
X100874086Y-104200421D01*
X100876887Y-104188037D01*
X100880572Y-104176487D01*
X100885142Y-104165769D01*
X100890595Y-104155885D01*
X100896934Y-104146833D01*
X100904157Y-104138614D01*
X100912264Y-104131228D01*
X100921256Y-104124675D01*
X100931464Y-104118957D01*
X100942948Y-104113801D01*
X100955707Y-104109208D01*
X100969742Y-104105178D01*
X100979806Y-104102803D01*
X100990437Y-104100678D01*
X101001635Y-104098803D01*
X101013400Y-104097179D01*
X101025731Y-104095804D01*
X101038630Y-104094679D01*
X101052094Y-104093804D01*
X101066126Y-104093179D01*
X101080724Y-104092804D01*
X101095889Y-104092679D01*
X101420000Y-104092679D01*
X101420000Y-103935387D01*
X100263265Y-103935387D01*
G37*
G36*
X101104041Y-104671400D02*
G01*
X101123183Y-104672462D01*
X101141837Y-104674232D01*
X101160003Y-104676710D01*
X101177680Y-104679895D01*
X101194869Y-104683789D01*
X101211569Y-104688390D01*
X101227780Y-104693700D01*
X101243504Y-104699717D01*
X101258738Y-104706442D01*
X101273484Y-104713876D01*
X101287742Y-104722017D01*
X101301511Y-104730866D01*
X101314792Y-104740423D01*
X101327584Y-104750688D01*
X101339888Y-104761660D01*
X101351482Y-104773248D01*
X101362328Y-104785295D01*
X101372426Y-104797802D01*
X101381775Y-104810768D01*
X101390377Y-104824195D01*
X101398231Y-104838082D01*
X101405337Y-104852428D01*
X101411695Y-104867234D01*
X101417305Y-104882500D01*
X101422167Y-104898226D01*
X101426281Y-104914412D01*
X101429647Y-104931058D01*
X101432265Y-104948164D01*
X101434135Y-104965729D01*
X101435257Y-104983754D01*
X101435631Y-105002240D01*
X101435459Y-105015127D01*
X101434944Y-105027778D01*
X101434085Y-105040193D01*
X101432883Y-105052370D01*
X101431338Y-105064312D01*
X101429449Y-105076016D01*
X101427216Y-105087484D01*
X101424640Y-105098715D01*
X101421698Y-105109794D01*
X101418366Y-105120682D01*
X101414645Y-105131379D01*
X101410535Y-105141885D01*
X101406036Y-105152201D01*
X101401147Y-105162325D01*
X101395869Y-105172259D01*
X101390202Y-105182002D01*
X101384081Y-105191570D01*
X101377562Y-105200977D01*
X101370647Y-105210224D01*
X101363335Y-105219310D01*
X101355626Y-105228237D01*
X101347520Y-105237003D01*
X101339018Y-105245608D01*
X101330118Y-105254054D01*
X101320730Y-105262427D01*
X101310884Y-105270693D01*
X101303199Y-105276822D01*
X101295256Y-105282892D01*
X101287056Y-105288901D01*
X101278598Y-105294850D01*
X101269883Y-105300739D01*
X101260910Y-105306568D01*
X101251679Y-105312337D01*
X101242191Y-105318046D01*
X101171605Y-105187620D01*
X101180405Y-105181737D01*
X101188854Y-105175934D01*
X101196952Y-105170212D01*
X101208441Y-105161778D01*
X101219140Y-105153525D01*
X101229049Y-105145452D01*
X101238168Y-105137560D01*
X101246497Y-105129847D01*
X101254036Y-105122315D01*
X101262860Y-105112553D01*
X101270279Y-105103112D01*
X101275036Y-105095881D01*
X101280652Y-105085686D01*
X101285436Y-105074857D01*
X101289388Y-105063395D01*
X101292507Y-105051299D01*
X101294795Y-105038570D01*
X101295965Y-105028607D01*
X101296667Y-105018288D01*
X101296901Y-105007613D01*
X101296719Y-104998466D01*
X101295762Y-104985136D01*
X101293985Y-104972274D01*
X101291389Y-104959880D01*
X101287972Y-104947954D01*
X101283735Y-104936496D01*
X101278678Y-104925505D01*
X101272801Y-104914983D01*
X101266105Y-104904929D01*
X101258588Y-104895343D01*
X101250251Y-104886224D01*
X101241122Y-104877701D01*
X101231414Y-104869898D01*
X101221127Y-104862817D01*
X101210260Y-104856457D01*
X101198813Y-104850819D01*
X101186787Y-104845901D01*
X101174181Y-104841705D01*
X101160995Y-104838230D01*
X101147230Y-104835477D01*
X101132885Y-104833445D01*
X101123000Y-104832491D01*
X101123000Y-105311939D01*
X101086608Y-105311939D01*
X101076284Y-105311856D01*
X101066101Y-105311607D01*
X101056061Y-105311192D01*
X101046163Y-105310611D01*
X101026793Y-105308951D01*
X101007992Y-105306627D01*
X100989760Y-105303639D01*
X100972096Y-105299987D01*
X100955001Y-105295671D01*
X100938475Y-105290690D01*
X100922517Y-105285046D01*
X100907128Y-105278738D01*
X100892307Y-105271765D01*
X100878055Y-105264129D01*
X100864372Y-105255829D01*
X100851257Y-105246864D01*
X100838711Y-105237236D01*
X100826734Y-105226943D01*
X100815288Y-105215956D01*
X100804580Y-105204488D01*
X100794611Y-105192539D01*
X100785380Y-105180109D01*
X100776888Y-105167199D01*
X100769134Y-105153808D01*
X100762119Y-105139935D01*
X100755842Y-105125582D01*
X100750304Y-105110748D01*
X100745504Y-105095433D01*
X100741442Y-105079638D01*
X100738119Y-105063361D01*
X100735535Y-105046604D01*
X100733689Y-105029366D01*
X100732581Y-105011647D01*
X100732291Y-104997355D01*
X100870942Y-104997355D01*
X100871438Y-105012446D01*
X100872926Y-105026824D01*
X100875407Y-105040488D01*
X100878879Y-105053439D01*
X100883345Y-105065676D01*
X100888802Y-105077199D01*
X100895251Y-105088009D01*
X100902693Y-105098105D01*
X100911127Y-105107487D01*
X100920553Y-105116156D01*
X100930972Y-105124111D01*
X100942383Y-105131352D01*
X100954786Y-105137880D01*
X100968181Y-105143694D01*
X100982568Y-105148795D01*
X100997948Y-105153182D01*
X100997948Y-104842749D01*
X100994278Y-104843722D01*
X100983568Y-104846962D01*
X100973304Y-104850683D01*
X100963487Y-104854885D01*
X100954116Y-104859567D01*
X100945191Y-104864731D01*
X100943733Y-104865652D01*
X100935272Y-104871399D01*
X100927309Y-104877524D01*
X100919845Y-104884027D01*
X100912878Y-104890908D01*
X100905380Y-104899413D01*
X100900380Y-104905856D01*
X100894023Y-104915236D01*
X100888413Y-104925036D01*
X100883551Y-104935258D01*
X100879979Y-104944354D01*
X100878884Y-104947452D01*
X100876025Y-104956917D01*
X100873801Y-104966640D01*
X100872212Y-104976621D01*
X100871259Y-104986859D01*
X100870942Y-104997355D01*
X100732291Y-104997355D01*
X100732212Y-104993447D01*
X100732589Y-104975414D01*
X100733719Y-104957829D01*
X100735603Y-104940693D01*
X100738241Y-104924006D01*
X100741633Y-104907766D01*
X100745779Y-104891975D01*
X100750678Y-104876633D01*
X100756331Y-104861739D01*
X100762737Y-104847293D01*
X100769898Y-104833296D01*
X100777812Y-104819747D01*
X100786479Y-104806647D01*
X100795901Y-104793995D01*
X100806076Y-104781791D01*
X100817005Y-104770036D01*
X100828688Y-104758729D01*
X100834853Y-104753335D01*
X100847536Y-104743059D01*
X100860691Y-104733469D01*
X100874317Y-104724564D01*
X100888414Y-104716344D01*
X100902983Y-104708808D01*
X100918023Y-104701958D01*
X100933534Y-104695793D01*
X100949517Y-104690313D01*
X100965971Y-104685517D01*
X100982896Y-104681407D01*
X101000293Y-104677982D01*
X101018161Y-104675242D01*
X101036500Y-104673187D01*
X101055310Y-104671817D01*
X101074592Y-104671132D01*
X101084410Y-104671046D01*
X101104041Y-104671400D01*
G37*
G36*
X100747843Y-105476071D02*
G01*
X100747843Y-105633363D01*
X100811102Y-105633363D01*
X100801549Y-105643578D01*
X100792612Y-105653952D01*
X100784292Y-105664484D01*
X100776588Y-105675174D01*
X100769500Y-105686023D01*
X100763028Y-105697030D01*
X100757173Y-105708196D01*
X100751934Y-105719520D01*
X100747312Y-105731002D01*
X100743306Y-105742643D01*
X100739916Y-105754442D01*
X100737142Y-105766399D01*
X100734985Y-105778515D01*
X100733444Y-105790789D01*
X100732520Y-105803222D01*
X100732212Y-105815812D01*
X100732499Y-105830234D01*
X100733360Y-105844252D01*
X100734796Y-105857864D01*
X100736806Y-105871072D01*
X100739391Y-105883876D01*
X100742550Y-105896275D01*
X100746283Y-105908270D01*
X100750591Y-105919860D01*
X100755473Y-105931045D01*
X100760929Y-105941827D01*
X100766960Y-105952203D01*
X100773565Y-105962175D01*
X100780744Y-105971742D01*
X100788498Y-105980905D01*
X100796826Y-105989664D01*
X100805729Y-105998018D01*
X100813854Y-106004850D01*
X100822597Y-106011241D01*
X100831958Y-106017192D01*
X100841938Y-106022701D01*
X100852536Y-106027770D01*
X100863752Y-106032399D01*
X100875586Y-106036586D01*
X100888039Y-106040333D01*
X100901109Y-106043639D01*
X100914798Y-106046504D01*
X100929106Y-106048928D01*
X100944031Y-106050911D01*
X100959575Y-106052454D01*
X100975737Y-106053556D01*
X100992517Y-106054217D01*
X101009916Y-106054438D01*
X101420000Y-106054438D01*
X101420000Y-105897145D01*
X101046064Y-105897145D01*
X101033937Y-105897038D01*
X101022288Y-105896718D01*
X101011116Y-105896184D01*
X101000421Y-105895436D01*
X100990203Y-105894474D01*
X100980462Y-105893299D01*
X100966744Y-105891135D01*
X100954101Y-105888490D01*
X100942530Y-105885364D01*
X100932033Y-105881758D01*
X100922609Y-105877671D01*
X100911713Y-105871473D01*
X100909288Y-105869790D01*
X100900300Y-105862509D01*
X100892511Y-105853853D01*
X100885921Y-105843824D01*
X100880528Y-105832421D01*
X100877270Y-105822967D01*
X100874686Y-105812740D01*
X100872777Y-105801741D01*
X100871541Y-105789969D01*
X100870979Y-105777423D01*
X100870942Y-105773070D01*
X100871388Y-105759129D01*
X100872728Y-105745973D01*
X100874960Y-105733604D01*
X100878086Y-105722019D01*
X100882104Y-105711221D01*
X100887016Y-105701208D01*
X100892820Y-105691981D01*
X100899518Y-105683540D01*
X100907109Y-105675884D01*
X100915592Y-105669014D01*
X100921744Y-105664870D01*
X100931791Y-105659240D01*
X100943156Y-105654163D01*
X100955840Y-105649640D01*
X100969841Y-105645671D01*
X100979907Y-105643332D01*
X100990560Y-105641240D01*
X101001798Y-105639394D01*
X101013621Y-105637794D01*
X101026031Y-105636440D01*
X101039026Y-105635332D01*
X101052608Y-105634471D01*
X101066775Y-105633855D01*
X101081528Y-105633486D01*
X101096866Y-105633363D01*
X101420000Y-105633363D01*
X101420000Y-105476071D01*
X100747843Y-105476071D01*
G37*
G36*
X100507752Y-107308136D02*
G01*
X100586154Y-107178932D01*
X100574726Y-107172093D01*
X100564070Y-107165313D01*
X100554186Y-107158594D01*
X100545076Y-107151935D01*
X100536738Y-107145336D01*
X100529173Y-107138798D01*
X100520289Y-107130173D01*
X100512779Y-107121655D01*
X100506642Y-107113244D01*
X100504089Y-107109078D01*
X100498937Y-107100087D01*
X100494472Y-107090455D01*
X100490694Y-107080181D01*
X100487602Y-107069267D01*
X100485198Y-107057711D01*
X100483481Y-107045514D01*
X100482450Y-107032676D01*
X100482128Y-107022627D01*
X100482107Y-107019197D01*
X100482442Y-107006805D01*
X100483446Y-106994817D01*
X100485121Y-106983232D01*
X100487465Y-106972050D01*
X100490479Y-106961273D01*
X100494163Y-106950899D01*
X100498516Y-106940928D01*
X100503539Y-106931361D01*
X100509232Y-106922198D01*
X100515595Y-106913438D01*
X100520209Y-106907822D01*
X100527342Y-106899878D01*
X100534818Y-106892715D01*
X100542637Y-106886334D01*
X100550800Y-106880734D01*
X100559307Y-106875916D01*
X100571183Y-106870706D01*
X100580491Y-106867711D01*
X100590142Y-106865497D01*
X100600137Y-106864065D01*
X100610476Y-106863413D01*
X100613998Y-106863370D01*
X100628382Y-106864381D01*
X100642225Y-106867414D01*
X100655527Y-106872470D01*
X100668289Y-106879547D01*
X100676496Y-106885389D01*
X100684462Y-106892130D01*
X100692188Y-106899769D01*
X100699674Y-106908307D01*
X100706919Y-106917744D01*
X100713924Y-106928079D01*
X100720688Y-106939313D01*
X100727212Y-106951446D01*
X100733496Y-106964478D01*
X100739539Y-106978408D01*
X100783014Y-107084166D01*
X100789668Y-107099985D01*
X100796501Y-107115265D01*
X100803513Y-107130004D01*
X100810705Y-107144204D01*
X100818076Y-107157863D01*
X100825627Y-107170982D01*
X100833357Y-107183562D01*
X100841266Y-107195601D01*
X100849355Y-107207101D01*
X100857623Y-107218060D01*
X100866070Y-107228480D01*
X100874697Y-107238359D01*
X100883503Y-107247699D01*
X100892488Y-107256498D01*
X100901653Y-107264757D01*
X100910997Y-107272477D01*
X100920565Y-107279723D01*
X100930399Y-107286502D01*
X100940501Y-107292813D01*
X100950870Y-107298657D01*
X100961506Y-107304033D01*
X100972409Y-107308942D01*
X100983580Y-107313383D01*
X100995017Y-107317356D01*
X101006722Y-107320863D01*
X101018693Y-107323901D01*
X101030932Y-107326473D01*
X101043438Y-107328576D01*
X101056211Y-107330213D01*
X101069252Y-107331381D01*
X101082559Y-107332083D01*
X101096133Y-107332316D01*
X101114312Y-107331939D01*
X101132091Y-107330809D01*
X101149468Y-107328925D01*
X101166445Y-107326287D01*
X101183021Y-107322895D01*
X101199196Y-107318749D01*
X101214971Y-107313850D01*
X101230345Y-107308197D01*
X101245318Y-107301791D01*
X101259891Y-107294630D01*
X101274062Y-107286716D01*
X101287834Y-107278049D01*
X101301204Y-107268627D01*
X101314174Y-107258452D01*
X101326743Y-107247523D01*
X101338911Y-107235840D01*
X101350623Y-107223477D01*
X101361580Y-107210748D01*
X101371781Y-107197656D01*
X101381226Y-107184198D01*
X101389916Y-107170377D01*
X101397850Y-107156191D01*
X101405028Y-107141640D01*
X101411451Y-107126725D01*
X101417118Y-107111445D01*
X101422030Y-107095801D01*
X101426186Y-107079793D01*
X101429586Y-107063420D01*
X101432231Y-107046683D01*
X101434120Y-107029581D01*
X101435253Y-107012115D01*
X101435631Y-106994284D01*
X101435305Y-106977403D01*
X101434326Y-106960892D01*
X101432694Y-106944751D01*
X101430410Y-106928980D01*
X101427474Y-106913579D01*
X101423884Y-106898549D01*
X101419643Y-106883888D01*
X101414748Y-106869598D01*
X101409201Y-106855678D01*
X101403002Y-106842129D01*
X101396150Y-106828949D01*
X101388645Y-106816140D01*
X101380487Y-106803700D01*
X101371678Y-106791631D01*
X101362215Y-106779932D01*
X101352100Y-106768604D01*
X101341424Y-106757900D01*
X101330217Y-106747710D01*
X101318480Y-106738032D01*
X101306213Y-106728869D01*
X101293415Y-106720218D01*
X101280087Y-106712081D01*
X101266228Y-106704457D01*
X101251838Y-106697346D01*
X101236918Y-106690749D01*
X101221468Y-106684664D01*
X101205487Y-106679094D01*
X101188976Y-106674036D01*
X101171935Y-106669492D01*
X101154363Y-106665461D01*
X101136260Y-106661943D01*
X101117627Y-106658939D01*
X101081967Y-106816964D01*
X101093404Y-106818404D01*
X101104388Y-106819975D01*
X101114920Y-106821678D01*
X101125000Y-106823513D01*
X101134627Y-106825479D01*
X101148221Y-106828675D01*
X101160797Y-106832168D01*
X101172355Y-106835957D01*
X101182896Y-106840042D01*
X101192419Y-106844423D01*
X101203534Y-106850726D01*
X101210683Y-106855799D01*
X101218994Y-106862145D01*
X101226769Y-106868850D01*
X101234008Y-106875914D01*
X101240710Y-106883337D01*
X101246876Y-106891118D01*
X101252506Y-106899258D01*
X101257600Y-106907757D01*
X101262158Y-106916615D01*
X101266179Y-106925831D01*
X101269664Y-106935406D01*
X101272613Y-106945340D01*
X101275026Y-106955633D01*
X101276903Y-106966284D01*
X101278243Y-106977294D01*
X101279048Y-106988663D01*
X101279316Y-107000390D01*
X101278873Y-107014270D01*
X101277547Y-107027699D01*
X101275336Y-107040677D01*
X101272240Y-107053204D01*
X101268260Y-107065280D01*
X101263396Y-107076906D01*
X101257647Y-107088081D01*
X101251014Y-107098805D01*
X101243496Y-107109078D01*
X101235094Y-107118901D01*
X101229002Y-107125198D01*
X101219332Y-107134103D01*
X101209189Y-107142131D01*
X101198575Y-107149284D01*
X101187488Y-107155561D01*
X101175929Y-107160962D01*
X101163898Y-107165487D01*
X101151394Y-107169136D01*
X101138418Y-107171910D01*
X101124970Y-107173807D01*
X101111049Y-107174829D01*
X101101507Y-107175024D01*
X101090055Y-107174723D01*
X101078964Y-107173822D01*
X101068234Y-107172319D01*
X101057864Y-107170215D01*
X101047854Y-107167511D01*
X101044598Y-107166475D01*
X101035036Y-107162935D01*
X101025765Y-107158725D01*
X101016786Y-107153844D01*
X101008099Y-107148295D01*
X100999704Y-107142075D01*
X100996971Y-107139853D01*
X100988922Y-107132697D01*
X100981080Y-107124786D01*
X100973443Y-107116119D01*
X100967237Y-107108320D01*
X100961174Y-107099996D01*
X100956427Y-107092958D01*
X100950521Y-107083760D01*
X100944711Y-107074025D01*
X100938996Y-107063753D01*
X100933376Y-107052944D01*
X100928949Y-107043911D01*
X100924583Y-107034535D01*
X100920279Y-107024815D01*
X100877536Y-106922965D01*
X100871682Y-106909622D01*
X100865662Y-106896702D01*
X100859474Y-106884205D01*
X100853119Y-106872132D01*
X100846598Y-106860483D01*
X100839909Y-106849257D01*
X100833054Y-106838455D01*
X100826031Y-106828077D01*
X100818842Y-106818122D01*
X100811486Y-106808591D01*
X100803962Y-106799483D01*
X100796272Y-106790799D01*
X100788415Y-106782539D01*
X100780390Y-106774702D01*
X100772199Y-106767289D01*
X100763841Y-106760300D01*
X100755316Y-106753734D01*
X100746624Y-106747591D01*
X100737765Y-106741873D01*
X100728739Y-106736577D01*
X100719546Y-106731706D01*
X100710186Y-106727258D01*
X100700659Y-106723234D01*
X100690965Y-106719633D01*
X100681104Y-106716456D01*
X100671077Y-106713703D01*
X100660882Y-106711373D01*
X100650520Y-106709467D01*
X100639991Y-106707984D01*
X100629296Y-106706925D01*
X100618433Y-106706289D01*
X100607404Y-106706078D01*
X100592596Y-106706434D01*
X100578094Y-106707501D01*
X100563898Y-106709280D01*
X100550006Y-106711772D01*
X100536420Y-106714974D01*
X100523140Y-106718889D01*
X100510164Y-106723515D01*
X100497494Y-106728853D01*
X100485129Y-106734903D01*
X100473070Y-106741665D01*
X100461316Y-106749138D01*
X100449867Y-106757323D01*
X100438723Y-106766220D01*
X100427885Y-106775828D01*
X100417352Y-106786148D01*
X100407124Y-106797180D01*
X100397276Y-106808710D01*
X100388062Y-106820586D01*
X100379484Y-106832806D01*
X100371541Y-106845372D01*
X100364234Y-106858284D01*
X100357562Y-106871541D01*
X100351526Y-106885143D01*
X100346125Y-106899091D01*
X100341359Y-106913384D01*
X100337229Y-106928022D01*
X100333734Y-106943006D01*
X100330875Y-106958335D01*
X100328651Y-106974009D01*
X100327062Y-106990029D01*
X100326109Y-107006394D01*
X100325792Y-107023105D01*
X100325969Y-107034430D01*
X100326502Y-107045599D01*
X100327391Y-107056612D01*
X100328635Y-107067469D01*
X100330234Y-107078170D01*
X100332189Y-107088716D01*
X100334499Y-107099105D01*
X100337164Y-107109338D01*
X100340185Y-107119415D01*
X100343561Y-107129336D01*
X100347293Y-107139101D01*
X100351380Y-107148711D01*
X100355822Y-107158164D01*
X100360620Y-107167461D01*
X100365773Y-107176602D01*
X100371282Y-107185587D01*
X100377146Y-107194417D01*
X100383365Y-107203090D01*
X100389940Y-107211607D01*
X100396870Y-107219968D01*
X100404156Y-107228174D01*
X100411797Y-107236223D01*
X100419793Y-107244116D01*
X100428145Y-107251854D01*
X100436852Y-107259435D01*
X100445914Y-107266860D01*
X100455332Y-107274130D01*
X100465105Y-107281243D01*
X100475234Y-107288200D01*
X100485718Y-107295002D01*
X100496558Y-107301647D01*
X100507752Y-107308136D01*
G37*
G36*
X100747843Y-107577292D02*
G01*
X101129839Y-107751681D01*
X100686782Y-107939504D01*
X101129839Y-108129036D01*
X100747843Y-108301228D01*
X100747843Y-108473419D01*
X101467138Y-108124884D01*
X101036538Y-107939504D01*
X101467138Y-107752170D01*
X100747843Y-107404368D01*
X100747843Y-107577292D01*
G37*
G36*
X101412184Y-109194424D02*
G01*
X100982316Y-109194424D01*
X100982316Y-109268918D01*
X100982234Y-109279247D01*
X100981986Y-109289442D01*
X100981574Y-109299504D01*
X100980996Y-109309432D01*
X100979345Y-109328887D01*
X100977035Y-109347808D01*
X100974064Y-109366195D01*
X100970432Y-109384048D01*
X100966141Y-109401366D01*
X100961189Y-109418150D01*
X100955577Y-109434400D01*
X100949305Y-109450116D01*
X100942373Y-109465297D01*
X100934781Y-109479944D01*
X100926528Y-109494056D01*
X100917615Y-109507635D01*
X100908042Y-109520679D01*
X100897808Y-109533189D01*
X100887010Y-109545049D01*
X100875742Y-109556144D01*
X100864005Y-109566473D01*
X100851799Y-109576038D01*
X100839123Y-109584837D01*
X100825978Y-109592872D01*
X100812363Y-109600141D01*
X100798279Y-109606645D01*
X100783726Y-109612383D01*
X100768703Y-109617357D01*
X100753211Y-109621565D01*
X100737249Y-109625009D01*
X100720818Y-109627687D01*
X100703918Y-109629600D01*
X100686548Y-109630747D01*
X100668709Y-109631130D01*
X100652035Y-109630773D01*
X100635720Y-109629703D01*
X100619765Y-109627919D01*
X100604167Y-109625421D01*
X100588929Y-109622209D01*
X100574049Y-109618284D01*
X100559528Y-109613646D01*
X100545366Y-109608293D01*
X100531562Y-109602227D01*
X100518118Y-109595448D01*
X100505031Y-109587954D01*
X100492304Y-109579747D01*
X100479935Y-109570827D01*
X100467926Y-109561193D01*
X100456274Y-109550845D01*
X100444982Y-109539783D01*
X100438728Y-109533215D01*
X100429823Y-109523120D01*
X100421489Y-109512733D01*
X100413726Y-109502054D01*
X100406534Y-109491083D01*
X100399913Y-109479821D01*
X100393863Y-109468266D01*
X100388384Y-109456419D01*
X100383476Y-109444280D01*
X100379139Y-109431850D01*
X100375373Y-109419127D01*
X100374246Y-109414820D01*
X100371080Y-109401133D01*
X100369148Y-109391372D01*
X100367359Y-109381102D01*
X100365713Y-109370322D01*
X100364210Y-109359032D01*
X100362851Y-109347233D01*
X100361634Y-109334924D01*
X100360561Y-109322107D01*
X100359631Y-109308779D01*
X100358844Y-109294942D01*
X100358200Y-109280596D01*
X100357699Y-109265740D01*
X100357341Y-109250374D01*
X100357126Y-109234500D01*
X100357055Y-109218115D01*
X100357055Y-109194424D01*
X100495785Y-109194424D01*
X100495785Y-109246936D01*
X100495952Y-109260896D01*
X100496452Y-109274412D01*
X100497287Y-109287486D01*
X100498456Y-109300116D01*
X100499959Y-109312303D01*
X100501795Y-109324047D01*
X100503966Y-109335348D01*
X100506470Y-109346205D01*
X100509309Y-109356620D01*
X100512481Y-109366591D01*
X100515987Y-109376119D01*
X100524001Y-109393846D01*
X100533351Y-109409800D01*
X100544037Y-109423981D01*
X100556058Y-109436390D01*
X100569415Y-109447026D01*
X100584108Y-109455889D01*
X100600136Y-109462980D01*
X100617501Y-109468298D01*
X100636200Y-109471843D01*
X100646051Y-109472951D01*
X100656236Y-109473616D01*
X100666755Y-109473838D01*
X100677634Y-109473623D01*
X100688168Y-109472978D01*
X100698356Y-109471903D01*
X100717697Y-109468465D01*
X100735657Y-109463307D01*
X100752235Y-109456430D01*
X100767431Y-109447834D01*
X100781246Y-109437519D01*
X100793680Y-109425484D01*
X100804732Y-109411730D01*
X100814402Y-109396257D01*
X100822691Y-109379064D01*
X100826318Y-109369824D01*
X100829599Y-109360153D01*
X100832534Y-109350052D01*
X100835125Y-109339522D01*
X100837370Y-109328562D01*
X100839269Y-109317172D01*
X100840823Y-109305352D01*
X100842032Y-109293102D01*
X100842896Y-109280423D01*
X100843414Y-109267314D01*
X100843586Y-109253775D01*
X100843586Y-109194424D01*
X100495785Y-109194424D01*
X100357055Y-109194424D01*
X100357055Y-109037131D01*
X101412184Y-109037131D01*
X101412184Y-109194424D01*
G37*
G36*
X101100547Y-109693028D02*
G01*
X101118978Y-109694076D01*
X101137016Y-109695822D01*
X101154660Y-109698266D01*
X101171912Y-109701409D01*
X101188770Y-109705250D01*
X101205236Y-109709790D01*
X101221308Y-109715027D01*
X101236987Y-109720964D01*
X101252273Y-109727598D01*
X101267166Y-109734931D01*
X101281666Y-109742963D01*
X101295773Y-109751692D01*
X101309487Y-109761121D01*
X101322808Y-109771247D01*
X101335736Y-109782072D01*
X101347832Y-109793553D01*
X101359149Y-109805405D01*
X101369685Y-109817627D01*
X101379440Y-109830218D01*
X101388415Y-109843180D01*
X101396609Y-109856513D01*
X101404024Y-109870215D01*
X101410657Y-109884288D01*
X101416510Y-109898730D01*
X101421583Y-109913543D01*
X101425876Y-109928727D01*
X101429388Y-109944280D01*
X101432119Y-109960203D01*
X101434070Y-109976497D01*
X101435241Y-109993161D01*
X101435631Y-110010195D01*
X101435287Y-110023816D01*
X101434253Y-110037325D01*
X101432531Y-110050721D01*
X101430120Y-110064005D01*
X101427021Y-110077176D01*
X101423232Y-110090234D01*
X101418754Y-110103180D01*
X101413588Y-110116013D01*
X101407733Y-110128734D01*
X101401189Y-110141342D01*
X101393956Y-110153837D01*
X101386034Y-110166220D01*
X101377424Y-110178491D01*
X101368125Y-110190648D01*
X101358136Y-110202694D01*
X101347459Y-110214626D01*
X101420000Y-110214626D01*
X101420000Y-110364836D01*
X100747843Y-110364836D01*
X100747843Y-110214626D01*
X100826978Y-110214626D01*
X100815502Y-110202992D01*
X100804767Y-110191171D01*
X100794772Y-110179163D01*
X100785518Y-110166968D01*
X100777003Y-110154586D01*
X100769230Y-110142017D01*
X100762196Y-110129261D01*
X100755903Y-110116318D01*
X100750350Y-110103188D01*
X100745538Y-110089871D01*
X100741466Y-110076368D01*
X100738135Y-110062677D01*
X100735543Y-110048799D01*
X100733741Y-110035108D01*
X100870942Y-110035108D01*
X100871173Y-110045487D01*
X100871869Y-110055620D01*
X100873028Y-110065507D01*
X100875636Y-110079876D01*
X100879288Y-110093692D01*
X100883983Y-110106953D01*
X100889721Y-110119661D01*
X100896502Y-110131814D01*
X100904327Y-110143414D01*
X100913194Y-110154460D01*
X100923106Y-110164952D01*
X100930293Y-110171639D01*
X100937993Y-110177998D01*
X100945951Y-110183947D01*
X100954166Y-110189485D01*
X100962640Y-110194614D01*
X100971370Y-110199331D01*
X100980359Y-110203639D01*
X100989604Y-110207536D01*
X100999108Y-110211024D01*
X101008869Y-110214100D01*
X101018888Y-110216767D01*
X101029164Y-110219023D01*
X101039698Y-110220870D01*
X101050490Y-110222305D01*
X101061539Y-110223331D01*
X101072846Y-110223947D01*
X101084410Y-110224152D01*
X101095945Y-110223947D01*
X101107224Y-110223331D01*
X101118247Y-110222305D01*
X101129015Y-110220870D01*
X101139527Y-110219023D01*
X101149783Y-110216767D01*
X101159784Y-110214100D01*
X101169528Y-110211024D01*
X101179018Y-110207536D01*
X101188251Y-110203639D01*
X101197229Y-110199331D01*
X101205951Y-110194614D01*
X101214418Y-110189485D01*
X101222628Y-110183947D01*
X101230583Y-110177998D01*
X101238283Y-110171639D01*
X101248759Y-110161504D01*
X101258204Y-110150788D01*
X101266619Y-110139493D01*
X101274003Y-110127618D01*
X101280357Y-110115164D01*
X101285681Y-110102130D01*
X101289975Y-110088517D01*
X101293237Y-110074324D01*
X101294840Y-110064540D01*
X101295985Y-110054498D01*
X101296672Y-110044199D01*
X101296901Y-110033642D01*
X101296842Y-110028677D01*
X101296369Y-110018907D01*
X101294772Y-110004654D01*
X101292110Y-109990881D01*
X101288383Y-109977588D01*
X101283592Y-109964777D01*
X101277736Y-109952447D01*
X101270815Y-109940597D01*
X101262829Y-109929228D01*
X101253779Y-109918341D01*
X101243664Y-109907933D01*
X101236329Y-109901263D01*
X101228710Y-109895052D01*
X101220812Y-109889241D01*
X101212635Y-109883832D01*
X101204180Y-109878823D01*
X101195447Y-109874215D01*
X101186435Y-109870007D01*
X101177144Y-109866200D01*
X101167575Y-109862794D01*
X101157727Y-109859789D01*
X101147600Y-109857184D01*
X101137195Y-109854980D01*
X101126511Y-109853177D01*
X101115549Y-109851775D01*
X101104308Y-109850773D01*
X101092789Y-109850172D01*
X101080990Y-109849972D01*
X101069929Y-109850178D01*
X101059093Y-109850796D01*
X101048481Y-109851826D01*
X101038095Y-109853269D01*
X101027934Y-109855124D01*
X101017999Y-109857390D01*
X101008288Y-109860070D01*
X100998803Y-109863161D01*
X100989542Y-109866664D01*
X100980507Y-109870580D01*
X100971697Y-109874907D01*
X100963113Y-109879647D01*
X100954753Y-109884799D01*
X100946619Y-109890363D01*
X100938709Y-109896340D01*
X100931025Y-109902728D01*
X100927329Y-109906066D01*
X100920288Y-109912898D01*
X100910606Y-109923531D01*
X100901981Y-109934627D01*
X100894412Y-109946188D01*
X100887899Y-109958212D01*
X100882442Y-109970700D01*
X100878041Y-109983652D01*
X100874697Y-109997067D01*
X100872408Y-110010946D01*
X100871176Y-110025288D01*
X100870942Y-110035108D01*
X100733741Y-110035108D01*
X100733692Y-110034734D01*
X100732582Y-110020482D01*
X100732212Y-110006043D01*
X100732602Y-109989426D01*
X100733773Y-109973158D01*
X100735724Y-109957239D01*
X100738455Y-109941670D01*
X100741967Y-109926449D01*
X100746259Y-109911578D01*
X100751332Y-109897056D01*
X100757185Y-109882883D01*
X100763819Y-109869060D01*
X100771233Y-109855585D01*
X100779428Y-109842460D01*
X100788403Y-109829684D01*
X100798158Y-109817257D01*
X100808694Y-109805180D01*
X100820010Y-109793451D01*
X100832107Y-109782072D01*
X100844789Y-109771247D01*
X100857859Y-109761121D01*
X100871319Y-109751692D01*
X100885169Y-109742963D01*
X100899407Y-109734931D01*
X100914035Y-109727598D01*
X100929052Y-109720964D01*
X100944459Y-109715027D01*
X100960254Y-109709790D01*
X100976439Y-109705250D01*
X100993013Y-109701409D01*
X101009977Y-109698266D01*
X101027330Y-109695822D01*
X101045071Y-109694076D01*
X101063203Y-109693028D01*
X101081723Y-109692679D01*
X101100547Y-109693028D01*
G37*
G36*
X100747843Y-110563161D02*
G01*
X100747843Y-110720453D01*
X100811102Y-110720453D01*
X100801549Y-110730668D01*
X100792612Y-110741042D01*
X100784292Y-110751574D01*
X100776588Y-110762264D01*
X100769500Y-110773113D01*
X100763028Y-110784120D01*
X100757173Y-110795286D01*
X100751934Y-110806610D01*
X100747312Y-110818092D01*
X100743306Y-110829733D01*
X100739916Y-110841532D01*
X100737142Y-110853489D01*
X100734985Y-110865605D01*
X100733444Y-110877879D01*
X100732520Y-110890312D01*
X100732212Y-110902903D01*
X100732499Y-110917324D01*
X100733360Y-110931342D01*
X100734796Y-110944954D01*
X100736806Y-110958162D01*
X100739391Y-110970966D01*
X100742550Y-110983365D01*
X100746283Y-110995360D01*
X100750591Y-111006950D01*
X100755473Y-111018136D01*
X100760929Y-111028917D01*
X100766960Y-111039293D01*
X100773565Y-111049265D01*
X100780744Y-111058832D01*
X100788498Y-111067995D01*
X100796826Y-111076754D01*
X100805729Y-111085108D01*
X100813854Y-111091940D01*
X100822597Y-111098331D01*
X100831958Y-111104282D01*
X100841938Y-111109791D01*
X100852536Y-111114860D01*
X100863752Y-111119489D01*
X100875586Y-111123676D01*
X100888039Y-111127423D01*
X100901109Y-111130729D01*
X100914798Y-111133594D01*
X100929106Y-111136018D01*
X100944031Y-111138002D01*
X100959575Y-111139544D01*
X100975737Y-111140646D01*
X100992517Y-111141307D01*
X101009916Y-111141528D01*
X101420000Y-111141528D01*
X101420000Y-110984235D01*
X101046064Y-110984235D01*
X101033937Y-110984129D01*
X101022288Y-110983808D01*
X101011116Y-110983274D01*
X101000421Y-110982526D01*
X100990203Y-110981564D01*
X100980462Y-110980389D01*
X100966744Y-110978225D01*
X100954101Y-110975580D01*
X100942530Y-110972454D01*
X100932033Y-110968848D01*
X100922609Y-110964761D01*
X100911713Y-110958563D01*
X100909288Y-110956880D01*
X100900300Y-110949599D01*
X100892511Y-110940943D01*
X100885921Y-110930914D01*
X100880528Y-110919511D01*
X100877270Y-110910057D01*
X100874686Y-110899830D01*
X100872777Y-110888831D01*
X100871541Y-110877059D01*
X100870979Y-110864513D01*
X100870942Y-110860160D01*
X100871388Y-110846219D01*
X100872728Y-110833063D01*
X100874960Y-110820694D01*
X100878086Y-110809109D01*
X100882104Y-110798311D01*
X100887016Y-110788298D01*
X100892820Y-110779071D01*
X100899518Y-110770630D01*
X100907109Y-110762974D01*
X100915592Y-110756104D01*
X100921744Y-110751960D01*
X100931791Y-110746330D01*
X100943156Y-110741253D01*
X100955840Y-110736730D01*
X100969841Y-110732761D01*
X100979907Y-110730422D01*
X100990560Y-110728330D01*
X101001798Y-110726484D01*
X101013621Y-110724884D01*
X101026031Y-110723530D01*
X101039026Y-110722422D01*
X101052608Y-110721561D01*
X101066775Y-110720945D01*
X101081528Y-110720576D01*
X101096866Y-110720453D01*
X101420000Y-110720453D01*
X101420000Y-110563161D01*
X100747843Y-110563161D01*
G37*
G36*
X101104041Y-111299174D02*
G01*
X101123183Y-111300236D01*
X101141837Y-111302006D01*
X101160003Y-111304484D01*
X101177680Y-111307669D01*
X101194869Y-111311563D01*
X101211569Y-111316164D01*
X101227780Y-111321474D01*
X101243504Y-111327491D01*
X101258738Y-111334216D01*
X101273484Y-111341649D01*
X101287742Y-111349791D01*
X101301511Y-111358640D01*
X101314792Y-111368197D01*
X101327584Y-111378461D01*
X101339888Y-111389434D01*
X101351482Y-111401021D01*
X101362328Y-111413069D01*
X101372426Y-111425576D01*
X101381775Y-111438542D01*
X101390377Y-111451969D01*
X101398231Y-111465856D01*
X101405337Y-111480202D01*
X101411695Y-111495008D01*
X101417305Y-111510274D01*
X101422167Y-111526000D01*
X101426281Y-111542186D01*
X101429647Y-111558832D01*
X101432265Y-111575938D01*
X101434135Y-111593503D01*
X101435257Y-111611528D01*
X101435631Y-111630013D01*
X101435459Y-111642901D01*
X101434944Y-111655552D01*
X101434085Y-111667967D01*
X101432883Y-111680144D01*
X101431338Y-111692085D01*
X101429449Y-111703790D01*
X101427216Y-111715258D01*
X101424640Y-111726489D01*
X101421698Y-111737568D01*
X101418366Y-111748456D01*
X101414645Y-111759153D01*
X101410535Y-111769659D01*
X101406036Y-111779975D01*
X101401147Y-111790099D01*
X101395869Y-111800033D01*
X101390202Y-111809776D01*
X101384081Y-111819344D01*
X101377562Y-111828751D01*
X101370647Y-111837998D01*
X101363335Y-111847084D01*
X101355626Y-111856011D01*
X101347520Y-111864777D01*
X101339018Y-111873382D01*
X101330118Y-111881828D01*
X101320730Y-111890201D01*
X101310884Y-111898467D01*
X101303199Y-111904596D01*
X101295256Y-111910666D01*
X101287056Y-111916675D01*
X101278598Y-111922624D01*
X101269883Y-111928513D01*
X101260910Y-111934342D01*
X101251679Y-111940111D01*
X101242191Y-111945819D01*
X101171605Y-111815394D01*
X101180405Y-111809511D01*
X101188854Y-111803708D01*
X101196952Y-111797986D01*
X101208441Y-111789552D01*
X101219140Y-111781299D01*
X101229049Y-111773226D01*
X101238168Y-111765334D01*
X101246497Y-111757621D01*
X101254036Y-111750089D01*
X101262860Y-111740327D01*
X101270279Y-111730886D01*
X101275036Y-111723655D01*
X101280652Y-111713460D01*
X101285436Y-111702631D01*
X101289388Y-111691169D01*
X101292507Y-111679073D01*
X101294795Y-111666344D01*
X101295965Y-111656381D01*
X101296667Y-111646062D01*
X101296901Y-111635387D01*
X101296719Y-111626240D01*
X101295762Y-111612910D01*
X101293985Y-111600048D01*
X101291389Y-111587654D01*
X101287972Y-111575728D01*
X101283735Y-111564269D01*
X101278678Y-111553279D01*
X101272801Y-111542757D01*
X101266105Y-111532703D01*
X101258588Y-111523116D01*
X101250251Y-111513998D01*
X101241122Y-111505474D01*
X101231414Y-111497672D01*
X101221127Y-111490591D01*
X101210260Y-111484231D01*
X101198813Y-111478592D01*
X101186787Y-111473675D01*
X101174181Y-111469479D01*
X101160995Y-111466004D01*
X101147230Y-111463251D01*
X101132885Y-111461219D01*
X101123000Y-111460265D01*
X101123000Y-111939713D01*
X101086608Y-111939713D01*
X101076284Y-111939630D01*
X101066101Y-111939381D01*
X101056061Y-111938966D01*
X101046163Y-111938385D01*
X101026793Y-111936725D01*
X101007992Y-111934401D01*
X100989760Y-111931413D01*
X100972096Y-111927761D01*
X100955001Y-111923445D01*
X100938475Y-111918464D01*
X100922517Y-111912820D01*
X100907128Y-111906512D01*
X100892307Y-111899539D01*
X100878055Y-111891903D01*
X100864372Y-111883602D01*
X100851257Y-111874638D01*
X100838711Y-111865009D01*
X100826734Y-111854717D01*
X100815288Y-111843730D01*
X100804580Y-111832262D01*
X100794611Y-111820313D01*
X100785380Y-111807883D01*
X100776888Y-111794973D01*
X100769134Y-111781581D01*
X100762119Y-111767709D01*
X100755842Y-111753356D01*
X100750304Y-111738522D01*
X100745504Y-111723207D01*
X100741442Y-111707412D01*
X100738119Y-111691135D01*
X100735535Y-111674378D01*
X100733689Y-111657140D01*
X100732581Y-111639421D01*
X100732291Y-111625129D01*
X100870942Y-111625129D01*
X100871438Y-111640220D01*
X100872926Y-111654598D01*
X100875407Y-111668262D01*
X100878879Y-111681213D01*
X100883345Y-111693450D01*
X100888802Y-111704973D01*
X100895251Y-111715783D01*
X100902693Y-111725879D01*
X100911127Y-111735261D01*
X100920553Y-111743930D01*
X100930972Y-111751885D01*
X100942383Y-111759126D01*
X100954786Y-111765654D01*
X100968181Y-111771468D01*
X100982568Y-111776569D01*
X100997948Y-111780956D01*
X100997948Y-111470523D01*
X100994278Y-111471496D01*
X100983568Y-111474736D01*
X100973304Y-111478457D01*
X100963487Y-111482659D01*
X100954116Y-111487341D01*
X100945191Y-111492505D01*
X100943733Y-111493426D01*
X100935272Y-111499173D01*
X100927309Y-111505298D01*
X100919845Y-111511801D01*
X100912878Y-111518682D01*
X100905380Y-111527187D01*
X100900380Y-111533630D01*
X100894023Y-111543010D01*
X100888413Y-111552810D01*
X100883551Y-111563032D01*
X100879979Y-111572128D01*
X100878884Y-111575226D01*
X100876025Y-111584691D01*
X100873801Y-111594414D01*
X100872212Y-111604395D01*
X100871259Y-111614633D01*
X100870942Y-111625129D01*
X100732291Y-111625129D01*
X100732212Y-111621221D01*
X100732589Y-111603188D01*
X100733719Y-111585603D01*
X100735603Y-111568467D01*
X100738241Y-111551779D01*
X100741633Y-111535540D01*
X100745779Y-111519749D01*
X100750678Y-111504407D01*
X100756331Y-111489513D01*
X100762737Y-111475067D01*
X100769898Y-111461070D01*
X100777812Y-111447521D01*
X100786479Y-111434421D01*
X100795901Y-111421769D01*
X100806076Y-111409565D01*
X100817005Y-111397810D01*
X100828688Y-111386503D01*
X100834853Y-111381109D01*
X100847536Y-111370833D01*
X100860691Y-111361243D01*
X100874317Y-111352338D01*
X100888414Y-111344117D01*
X100902983Y-111336582D01*
X100918023Y-111329732D01*
X100933534Y-111323567D01*
X100949517Y-111318086D01*
X100965971Y-111313291D01*
X100982896Y-111309181D01*
X101000293Y-111305756D01*
X101018161Y-111303016D01*
X101036500Y-111300961D01*
X101055310Y-111299591D01*
X101074592Y-111298906D01*
X101084410Y-111298820D01*
X101104041Y-111299174D01*
G37*
G36*
X100263265Y-112261137D02*
G01*
X101420000Y-112261137D01*
X101420000Y-112103845D01*
X100263265Y-112103845D01*
X100263265Y-112261137D01*
G37*
G36*
X100747843Y-112969441D02*
G01*
X101123733Y-113141632D01*
X100747843Y-113313335D01*
X100747843Y-113486259D01*
X101462986Y-113140411D01*
X100747843Y-112797250D01*
X100747843Y-112969441D01*
G37*
G36*
X100513370Y-113868255D02*
G01*
X100513370Y-113685806D01*
X100357055Y-113773244D01*
X100357055Y-114025547D01*
X101427815Y-114025547D01*
X101427815Y-113868255D01*
X100513370Y-113868255D01*
G37*
G36*
X101341109Y-114398750D02*
G01*
X101329529Y-114399424D01*
X101318450Y-114401446D01*
X101307872Y-114404815D01*
X101297794Y-114409531D01*
X101288218Y-114415596D01*
X101279142Y-114423008D01*
X101275652Y-114426350D01*
X101267701Y-114435307D01*
X101261098Y-114444778D01*
X101255842Y-114454761D01*
X101251934Y-114465257D01*
X101249373Y-114476266D01*
X101248160Y-114487787D01*
X101248053Y-114492540D01*
X101248726Y-114504331D01*
X101250748Y-114515585D01*
X101254117Y-114526303D01*
X101258834Y-114536484D01*
X101264898Y-114546129D01*
X101272310Y-114555237D01*
X101275652Y-114558729D01*
X101284545Y-114566680D01*
X101293975Y-114573284D01*
X101303941Y-114578540D01*
X101314445Y-114582448D01*
X101325484Y-114585008D01*
X101337061Y-114586221D01*
X101341842Y-114586329D01*
X101353774Y-114585655D01*
X101365145Y-114583634D01*
X101375956Y-114580265D01*
X101386206Y-114575548D01*
X101395896Y-114569484D01*
X101405025Y-114562072D01*
X101408520Y-114558729D01*
X101416330Y-114550029D01*
X101422817Y-114540721D01*
X101427980Y-114530805D01*
X101431819Y-114520280D01*
X101434334Y-114509147D01*
X101435525Y-114497406D01*
X101435631Y-114492540D01*
X101434975Y-114480409D01*
X101433007Y-114468898D01*
X101429728Y-114458007D01*
X101425136Y-114447736D01*
X101419233Y-114438086D01*
X101412018Y-114429056D01*
X101408764Y-114425617D01*
X101399964Y-114417877D01*
X101390508Y-114411449D01*
X101380396Y-114406333D01*
X101369628Y-114402529D01*
X101358204Y-114400036D01*
X101346125Y-114398855D01*
X101341109Y-114398750D01*
G37*
G36*
X100899421Y-114768161D02*
G01*
X100915707Y-114768508D01*
X100931768Y-114769087D01*
X100947603Y-114769896D01*
X100963214Y-114770938D01*
X100978599Y-114772210D01*
X100993759Y-114773714D01*
X101008695Y-114775449D01*
X101023404Y-114777416D01*
X101037889Y-114779614D01*
X101052149Y-114782043D01*
X101066183Y-114784704D01*
X101079992Y-114787596D01*
X101093577Y-114790719D01*
X101106936Y-114794074D01*
X101120069Y-114797660D01*
X101132978Y-114801477D01*
X101145661Y-114805526D01*
X101158120Y-114809807D01*
X101170353Y-114814318D01*
X101182361Y-114819061D01*
X101194144Y-114824035D01*
X101205701Y-114829241D01*
X101217034Y-114834678D01*
X101228141Y-114840346D01*
X101239023Y-114846246D01*
X101249680Y-114852377D01*
X101260112Y-114858740D01*
X101270319Y-114865334D01*
X101280300Y-114872159D01*
X101290057Y-114879215D01*
X101299588Y-114886503D01*
X101307958Y-114893262D01*
X101316062Y-114900104D01*
X101323900Y-114907029D01*
X101331473Y-114914038D01*
X101338780Y-114921130D01*
X101345821Y-114928306D01*
X101352597Y-114935565D01*
X101359107Y-114942908D01*
X101371329Y-114957844D01*
X101382489Y-114973114D01*
X101392586Y-114988718D01*
X101401620Y-115004656D01*
X101409592Y-115020928D01*
X101416500Y-115037533D01*
X101422346Y-115054473D01*
X101427128Y-115071746D01*
X101430848Y-115089354D01*
X101433505Y-115107295D01*
X101435100Y-115125570D01*
X101435631Y-115144180D01*
X101435498Y-115153509D01*
X101434435Y-115171912D01*
X101432310Y-115189970D01*
X101429121Y-115207686D01*
X101424870Y-115225057D01*
X101419556Y-115242086D01*
X101413179Y-115258770D01*
X101405739Y-115275112D01*
X101397236Y-115291110D01*
X101387670Y-115306764D01*
X101377042Y-115322075D01*
X101365351Y-115337043D01*
X101352597Y-115351667D01*
X101345821Y-115358850D01*
X101338780Y-115365947D01*
X101331473Y-115372959D01*
X101323900Y-115379884D01*
X101316062Y-115386724D01*
X101307958Y-115393478D01*
X101299588Y-115400146D01*
X101290063Y-115407419D01*
X101280328Y-115414461D01*
X101270381Y-115421272D01*
X101260223Y-115427852D01*
X101249853Y-115434202D01*
X101239272Y-115440320D01*
X101228480Y-115446208D01*
X101217476Y-115451864D01*
X101206261Y-115457290D01*
X101194835Y-115462485D01*
X101183198Y-115467449D01*
X101171349Y-115472182D01*
X101159289Y-115476685D01*
X101147017Y-115480956D01*
X101134534Y-115484997D01*
X101121840Y-115488806D01*
X101108935Y-115492385D01*
X101095818Y-115495733D01*
X101082490Y-115498850D01*
X101068950Y-115501736D01*
X101055199Y-115504391D01*
X101041237Y-115506815D01*
X101027064Y-115509009D01*
X101012679Y-115510971D01*
X100998083Y-115512703D01*
X100983275Y-115514204D01*
X100968256Y-115515474D01*
X100953026Y-115516512D01*
X100937585Y-115517321D01*
X100921932Y-115517898D01*
X100906068Y-115518244D01*
X100889993Y-115518360D01*
X100873857Y-115518244D01*
X100857936Y-115517898D01*
X100842228Y-115517321D01*
X100826734Y-115516512D01*
X100811453Y-115515474D01*
X100796386Y-115514204D01*
X100781533Y-115512703D01*
X100766894Y-115510971D01*
X100752469Y-115509009D01*
X100738257Y-115506815D01*
X100724258Y-115504391D01*
X100710474Y-115501736D01*
X100696903Y-115498850D01*
X100683546Y-115495733D01*
X100670403Y-115492385D01*
X100657473Y-115488806D01*
X100644757Y-115484997D01*
X100632255Y-115480956D01*
X100619967Y-115476685D01*
X100607892Y-115472182D01*
X100596031Y-115467449D01*
X100584384Y-115462485D01*
X100572950Y-115457290D01*
X100561730Y-115451864D01*
X100550724Y-115446208D01*
X100539931Y-115440320D01*
X100529353Y-115434202D01*
X100518988Y-115427852D01*
X100508836Y-115421272D01*
X100498899Y-115414461D01*
X100489175Y-115407419D01*
X100479665Y-115400146D01*
X100471280Y-115393477D01*
X100463161Y-115386721D01*
X100455308Y-115379878D01*
X100447722Y-115372947D01*
X100440402Y-115365929D01*
X100433348Y-115358824D01*
X100426560Y-115351632D01*
X100420039Y-115344352D01*
X100407794Y-115329530D01*
X100396614Y-115314360D01*
X100386499Y-115298840D01*
X100377449Y-115282971D01*
X100369463Y-115266752D01*
X100362542Y-115250185D01*
X100356686Y-115233268D01*
X100351895Y-115216002D01*
X100348168Y-115198387D01*
X100345507Y-115180423D01*
X100343909Y-115162109D01*
X100343377Y-115143447D01*
X100343391Y-115142958D01*
X100482107Y-115142958D01*
X100482558Y-115154616D01*
X100483912Y-115166020D01*
X100486168Y-115177170D01*
X100489327Y-115188067D01*
X100493389Y-115198710D01*
X100498353Y-115209099D01*
X100504220Y-115219234D01*
X100510989Y-115229115D01*
X100518660Y-115238743D01*
X100527235Y-115248116D01*
X100536711Y-115257236D01*
X100547091Y-115266103D01*
X100558373Y-115274715D01*
X100570557Y-115283074D01*
X100583644Y-115291178D01*
X100597634Y-115299030D01*
X100604943Y-115302846D01*
X100619915Y-115310116D01*
X100635356Y-115316902D01*
X100651266Y-115323202D01*
X100667645Y-115329018D01*
X100684494Y-115334350D01*
X100701812Y-115339196D01*
X100719600Y-115343559D01*
X100737857Y-115347436D01*
X100756584Y-115350829D01*
X100775780Y-115353737D01*
X100785554Y-115355009D01*
X100795445Y-115356160D01*
X100805454Y-115357190D01*
X100815580Y-115358099D01*
X100825823Y-115358886D01*
X100836184Y-115359553D01*
X100846662Y-115360098D01*
X100857258Y-115360522D01*
X100867971Y-115360825D01*
X100878801Y-115361007D01*
X100889748Y-115361067D01*
X100900665Y-115361007D01*
X100911464Y-115360825D01*
X100922145Y-115360522D01*
X100932708Y-115360098D01*
X100943154Y-115359553D01*
X100953481Y-115358886D01*
X100963691Y-115358099D01*
X100973783Y-115357190D01*
X100983757Y-115356160D01*
X100993614Y-115355009D01*
X101012973Y-115352343D01*
X101031860Y-115349193D01*
X101050277Y-115345558D01*
X101068222Y-115341438D01*
X101085696Y-115336834D01*
X101102698Y-115331745D01*
X101119230Y-115326171D01*
X101135290Y-115320113D01*
X101150878Y-115313570D01*
X101165996Y-115306542D01*
X101180642Y-115299030D01*
X101194720Y-115291178D01*
X101207890Y-115283074D01*
X101220152Y-115274715D01*
X101231505Y-115266103D01*
X101241950Y-115257236D01*
X101251487Y-115248116D01*
X101260116Y-115238743D01*
X101267836Y-115229115D01*
X101274648Y-115219234D01*
X101280552Y-115209099D01*
X101285548Y-115198710D01*
X101289635Y-115188067D01*
X101292814Y-115177170D01*
X101295085Y-115166020D01*
X101296447Y-115154616D01*
X101296901Y-115142958D01*
X101296447Y-115131215D01*
X101295085Y-115119736D01*
X101292814Y-115108523D01*
X101289635Y-115097575D01*
X101285548Y-115086892D01*
X101280552Y-115076475D01*
X101274648Y-115066322D01*
X101267836Y-115056435D01*
X101260116Y-115046813D01*
X101251487Y-115037457D01*
X101241950Y-115028365D01*
X101231505Y-115019539D01*
X101220152Y-115010978D01*
X101207890Y-115002683D01*
X101194720Y-114994652D01*
X101180642Y-114986887D01*
X101173209Y-114983100D01*
X101157988Y-114975888D01*
X101142291Y-114969156D01*
X101126120Y-114962905D01*
X101109473Y-114957134D01*
X101092351Y-114951845D01*
X101074754Y-114947036D01*
X101056682Y-114942709D01*
X101038135Y-114938862D01*
X101019113Y-114935496D01*
X101009423Y-114933993D01*
X100999615Y-114932611D01*
X100989688Y-114931349D01*
X100979643Y-114930207D01*
X100969478Y-114929185D01*
X100959195Y-114928283D01*
X100948793Y-114927502D01*
X100938272Y-114926841D01*
X100927633Y-114926300D01*
X100916874Y-114925879D01*
X100905997Y-114925578D01*
X100895001Y-114925398D01*
X100883886Y-114925338D01*
X100873211Y-114925399D01*
X100862647Y-114925580D01*
X100852195Y-114925883D01*
X100841854Y-114926307D01*
X100831625Y-114926853D01*
X100821507Y-114927519D01*
X100811501Y-114928307D01*
X100801607Y-114929215D01*
X100782154Y-114931396D01*
X100763147Y-114934062D01*
X100744586Y-114937212D01*
X100726472Y-114940847D01*
X100708804Y-114944967D01*
X100691583Y-114949571D01*
X100674809Y-114954660D01*
X100658481Y-114960234D01*
X100642599Y-114966293D01*
X100627164Y-114972836D01*
X100612176Y-114979863D01*
X100597634Y-114987376D01*
X100583644Y-114995225D01*
X100570557Y-115003324D01*
X100558373Y-115011673D01*
X100547091Y-115020272D01*
X100536711Y-115029121D01*
X100527235Y-115038220D01*
X100518660Y-115047569D01*
X100510989Y-115057168D01*
X100504220Y-115067017D01*
X100498353Y-115077116D01*
X100493389Y-115087465D01*
X100489327Y-115098063D01*
X100486168Y-115108912D01*
X100483912Y-115120011D01*
X100482558Y-115131360D01*
X100482107Y-115142958D01*
X100343391Y-115142958D01*
X100343909Y-115124755D01*
X100345507Y-115106413D01*
X100348168Y-115088423D01*
X100351895Y-115070785D01*
X100356686Y-115053497D01*
X100362542Y-115036560D01*
X100369463Y-115019974D01*
X100377449Y-115003740D01*
X100386499Y-114987856D01*
X100396614Y-114972324D01*
X100407794Y-114957143D01*
X100420039Y-114942313D01*
X100426560Y-114935029D01*
X100433348Y-114927834D01*
X100440402Y-114920726D01*
X100447722Y-114913706D01*
X100455308Y-114906774D01*
X100463161Y-114899929D01*
X100471280Y-114893172D01*
X100479665Y-114886503D01*
X100489168Y-114879215D01*
X100498871Y-114872159D01*
X100508774Y-114865334D01*
X100518877Y-114858740D01*
X100529180Y-114852377D01*
X100539682Y-114846246D01*
X100550385Y-114840346D01*
X100561287Y-114834678D01*
X100572390Y-114829241D01*
X100583692Y-114824035D01*
X100595194Y-114819061D01*
X100606896Y-114814318D01*
X100618798Y-114809807D01*
X100630900Y-114805526D01*
X100643201Y-114801477D01*
X100655703Y-114797660D01*
X100668404Y-114794074D01*
X100681305Y-114790719D01*
X100694406Y-114787596D01*
X100707707Y-114784704D01*
X100721208Y-114782043D01*
X100734909Y-114779614D01*
X100748809Y-114777416D01*
X100762910Y-114775449D01*
X100777210Y-114773714D01*
X100791711Y-114772210D01*
X100806411Y-114770938D01*
X100821311Y-114769896D01*
X100836411Y-114769087D01*
X100851710Y-114768508D01*
X100867210Y-114768161D01*
X100882909Y-114768046D01*
X100899421Y-114768161D01*
G37*
G36*
X101221430Y-115761137D02*
G01*
X101274919Y-115897913D01*
X101667418Y-115703251D01*
X101623942Y-115599204D01*
X101221430Y-115761137D01*
G37*
G36*
X100406147Y-117347250D02*
G01*
X100597878Y-117347250D01*
X100590755Y-117338524D01*
X100583859Y-117329779D01*
X100577189Y-117321015D01*
X100570744Y-117312232D01*
X100564526Y-117303429D01*
X100558534Y-117294608D01*
X100552768Y-117285768D01*
X100547228Y-117276908D01*
X100541915Y-117268029D01*
X100536827Y-117259132D01*
X100531965Y-117250215D01*
X100527330Y-117241279D01*
X100522921Y-117232324D01*
X100518738Y-117223350D01*
X100514781Y-117214357D01*
X100507545Y-117196314D01*
X100501214Y-117178194D01*
X100495787Y-117159998D01*
X100491265Y-117141725D01*
X100487647Y-117123377D01*
X100484933Y-117104952D01*
X100483124Y-117086450D01*
X100482220Y-117067872D01*
X100482107Y-117058555D01*
X100482221Y-117048332D01*
X100482564Y-117038210D01*
X100483135Y-117028190D01*
X100483935Y-117018270D01*
X100484963Y-117008452D01*
X100486220Y-116998735D01*
X100489419Y-116979603D01*
X100493532Y-116960877D01*
X100498559Y-116942555D01*
X100504500Y-116924637D01*
X100511355Y-116907124D01*
X100519124Y-116890016D01*
X100527807Y-116873312D01*
X100537404Y-116857013D01*
X100547915Y-116841118D01*
X100559340Y-116825627D01*
X100571679Y-116810542D01*
X100578191Y-116803150D01*
X100584932Y-116795860D01*
X100591902Y-116788671D01*
X100599099Y-116781584D01*
X100606446Y-116774611D01*
X100613894Y-116767860D01*
X100621443Y-116761331D01*
X100629092Y-116755022D01*
X100636841Y-116748935D01*
X100644692Y-116743070D01*
X100660694Y-116732002D01*
X100677100Y-116721820D01*
X100693907Y-116712524D01*
X100711118Y-116704113D01*
X100728731Y-116696587D01*
X100746747Y-116689947D01*
X100765165Y-116684192D01*
X100783986Y-116679322D01*
X100793548Y-116677219D01*
X100803210Y-116675338D01*
X100812973Y-116673678D01*
X100822836Y-116672239D01*
X100832800Y-116671022D01*
X100842865Y-116670026D01*
X100853031Y-116669251D01*
X100863297Y-116668698D01*
X100873663Y-116668366D01*
X100884131Y-116668255D01*
X100894476Y-116668366D01*
X100904720Y-116668698D01*
X100914862Y-116669251D01*
X100924904Y-116670026D01*
X100934844Y-116671022D01*
X100944684Y-116672239D01*
X100954422Y-116673678D01*
X100964059Y-116675338D01*
X100983030Y-116679322D01*
X101001596Y-116684192D01*
X101019758Y-116689947D01*
X101037515Y-116696587D01*
X101054868Y-116704113D01*
X101071816Y-116712524D01*
X101088360Y-116721820D01*
X101104499Y-116732002D01*
X101120233Y-116743070D01*
X101135563Y-116755022D01*
X101143077Y-116761331D01*
X101150489Y-116767860D01*
X101157800Y-116774611D01*
X101165010Y-116781584D01*
X101172042Y-116788716D01*
X101178852Y-116795949D01*
X101185438Y-116803281D01*
X101191800Y-116810713D01*
X101203856Y-116825876D01*
X101215019Y-116841438D01*
X101225288Y-116857399D01*
X101234665Y-116873759D01*
X101243149Y-116890517D01*
X101250739Y-116907674D01*
X101257437Y-116925230D01*
X101263241Y-116943185D01*
X101268153Y-116961538D01*
X101272172Y-116980290D01*
X101275297Y-116999442D01*
X101276525Y-117009167D01*
X101277530Y-117018991D01*
X101278311Y-117028916D01*
X101278869Y-117038940D01*
X101279204Y-117049064D01*
X101279316Y-117059288D01*
X101279208Y-117069783D01*
X101278884Y-117080083D01*
X101278345Y-117090185D01*
X101277591Y-117100092D01*
X101276054Y-117114582D01*
X101274033Y-117128631D01*
X101271526Y-117142237D01*
X101268535Y-117155401D01*
X101265058Y-117168123D01*
X101261096Y-117180403D01*
X101256649Y-117192240D01*
X101251716Y-117203635D01*
X101247209Y-117214005D01*
X101242237Y-117224506D01*
X101236800Y-117235138D01*
X101232116Y-117243738D01*
X101227134Y-117252422D01*
X101221854Y-117261189D01*
X101216276Y-117270041D01*
X101214836Y-117272267D01*
X101208882Y-117281240D01*
X101202623Y-117290326D01*
X101196059Y-117299527D01*
X101189190Y-117308843D01*
X101182015Y-117318273D01*
X101174535Y-117327817D01*
X101166750Y-117337476D01*
X101158660Y-117347250D01*
X101354542Y-117347250D01*
X101359531Y-117338658D01*
X101364362Y-117330039D01*
X101369034Y-117321393D01*
X101373548Y-117312720D01*
X101382100Y-117295295D01*
X101390019Y-117277763D01*
X101397304Y-117260124D01*
X101403956Y-117242378D01*
X101409974Y-117224526D01*
X101415359Y-117206566D01*
X101420110Y-117188500D01*
X101424228Y-117170327D01*
X101427712Y-117152047D01*
X101430563Y-117133660D01*
X101432780Y-117115166D01*
X101434364Y-117096565D01*
X101435314Y-117077858D01*
X101435631Y-117059043D01*
X101435475Y-117044897D01*
X101435006Y-117030880D01*
X101434225Y-117016994D01*
X101433131Y-117003238D01*
X101431725Y-116989612D01*
X101430007Y-116976116D01*
X101427976Y-116962751D01*
X101425632Y-116949516D01*
X101422976Y-116936411D01*
X101420008Y-116923436D01*
X101416727Y-116910592D01*
X101413134Y-116897878D01*
X101409228Y-116885294D01*
X101405010Y-116872840D01*
X101400479Y-116860516D01*
X101395636Y-116848323D01*
X101390481Y-116836260D01*
X101385013Y-116824327D01*
X101379232Y-116812524D01*
X101373139Y-116800852D01*
X101366734Y-116789310D01*
X101360016Y-116777898D01*
X101352986Y-116766616D01*
X101345643Y-116755465D01*
X101337988Y-116744444D01*
X101330020Y-116733553D01*
X101321740Y-116722792D01*
X101313147Y-116712161D01*
X101304242Y-116701661D01*
X101295024Y-116691291D01*
X101285494Y-116681051D01*
X101275652Y-116670942D01*
X101265497Y-116661099D01*
X101255211Y-116651569D01*
X101244795Y-116642352D01*
X101234249Y-116633446D01*
X101223573Y-116624854D01*
X101212766Y-116616574D01*
X101201829Y-116608606D01*
X101190762Y-116600951D01*
X101179565Y-116593608D01*
X101168238Y-116586578D01*
X101156780Y-116579860D01*
X101145192Y-116573454D01*
X101133474Y-116567361D01*
X101121625Y-116561581D01*
X101109647Y-116556113D01*
X101097538Y-116550957D01*
X101085299Y-116546114D01*
X101072929Y-116541584D01*
X101060430Y-116537365D01*
X101047800Y-116533460D01*
X101035040Y-116529866D01*
X101022150Y-116526585D01*
X101009129Y-116523617D01*
X100995979Y-116520961D01*
X100982698Y-116518618D01*
X100969287Y-116516587D01*
X100955745Y-116514868D01*
X100942073Y-116513462D01*
X100928272Y-116512369D01*
X100914340Y-116511587D01*
X100900277Y-116511119D01*
X100886085Y-116510963D01*
X100873351Y-116511093D01*
X100860705Y-116511485D01*
X100848147Y-116512139D01*
X100835675Y-116513054D01*
X100823291Y-116514230D01*
X100810994Y-116515668D01*
X100798785Y-116517367D01*
X100786663Y-116519328D01*
X100774628Y-116521550D01*
X100762680Y-116524033D01*
X100750820Y-116526778D01*
X100739047Y-116529784D01*
X100727361Y-116533052D01*
X100715762Y-116536581D01*
X100704251Y-116540372D01*
X100692827Y-116544424D01*
X100681491Y-116548737D01*
X100670242Y-116553312D01*
X100659080Y-116558148D01*
X100648005Y-116563246D01*
X100637018Y-116568605D01*
X100626118Y-116574225D01*
X100615305Y-116580107D01*
X100604579Y-116586250D01*
X100593941Y-116592655D01*
X100583390Y-116599321D01*
X100572927Y-116606249D01*
X100562551Y-116613438D01*
X100552262Y-116620888D01*
X100542060Y-116628600D01*
X100531946Y-116636573D01*
X100521919Y-116644808D01*
X100509852Y-116655206D01*
X100498169Y-116665793D01*
X100486869Y-116676570D01*
X100475951Y-116687535D01*
X100465417Y-116698689D01*
X100455266Y-116710032D01*
X100445498Y-116721564D01*
X100436113Y-116733285D01*
X100427111Y-116745194D01*
X100418492Y-116757293D01*
X100410256Y-116769580D01*
X100402404Y-116782057D01*
X100394934Y-116794722D01*
X100387847Y-116807576D01*
X100381144Y-116820620D01*
X100374823Y-116833852D01*
X100368886Y-116847273D01*
X100363331Y-116860882D01*
X100358160Y-116874681D01*
X100353372Y-116888669D01*
X100348967Y-116902845D01*
X100344945Y-116917211D01*
X100341305Y-116931765D01*
X100338049Y-116946509D01*
X100335177Y-116961441D01*
X100332687Y-116976562D01*
X100330580Y-116991872D01*
X100328856Y-117007371D01*
X100327515Y-117023059D01*
X100326558Y-117038935D01*
X100325983Y-117055001D01*
X100325792Y-117071256D01*
X100326105Y-117089078D01*
X100327047Y-117106823D01*
X100328617Y-117124493D01*
X100330814Y-117142086D01*
X100333639Y-117159603D01*
X100337092Y-117177043D01*
X100341172Y-117194407D01*
X100345881Y-117211695D01*
X100351217Y-117228907D01*
X100357181Y-117246042D01*
X100363772Y-117263101D01*
X100370992Y-117280083D01*
X100378839Y-117296989D01*
X100387314Y-117313819D01*
X100396417Y-117330573D01*
X100406147Y-117347250D01*
G37*
G36*
X101097732Y-117476602D02*
G01*
X101116264Y-117477779D01*
X101134391Y-117479739D01*
X101152111Y-117482484D01*
X101169424Y-117486013D01*
X101186332Y-117490327D01*
X101202832Y-117495424D01*
X101218927Y-117501306D01*
X101234614Y-117507972D01*
X101249896Y-117515423D01*
X101264771Y-117523657D01*
X101279239Y-117532676D01*
X101293301Y-117542479D01*
X101306957Y-117553067D01*
X101320206Y-117564438D01*
X101333049Y-117576594D01*
X101345471Y-117589300D01*
X101357092Y-117602385D01*
X101367911Y-117615847D01*
X101377929Y-117629686D01*
X101387145Y-117643904D01*
X101395560Y-117658499D01*
X101403173Y-117673473D01*
X101409986Y-117688824D01*
X101415996Y-117704553D01*
X101421205Y-117720659D01*
X101425613Y-117737144D01*
X101429220Y-117754006D01*
X101432025Y-117771246D01*
X101434028Y-117788864D01*
X101435230Y-117806860D01*
X101435631Y-117825233D01*
X101435238Y-117843795D01*
X101434059Y-117861988D01*
X101432093Y-117879813D01*
X101429342Y-117897270D01*
X101425804Y-117914358D01*
X101421480Y-117931078D01*
X101416370Y-117947430D01*
X101410474Y-117963414D01*
X101403792Y-117979029D01*
X101396323Y-117994276D01*
X101388069Y-118009155D01*
X101379028Y-118023665D01*
X101369201Y-118037808D01*
X101358588Y-118051582D01*
X101347188Y-118064987D01*
X101335003Y-118078025D01*
X101322175Y-118090447D01*
X101308968Y-118102067D01*
X101295384Y-118112886D01*
X101281422Y-118122904D01*
X101267082Y-118132121D01*
X101252365Y-118140536D01*
X101237270Y-118148149D01*
X101221796Y-118154961D01*
X101205945Y-118160972D01*
X101189717Y-118166181D01*
X101173110Y-118170589D01*
X101156126Y-118174195D01*
X101138763Y-118177000D01*
X101121023Y-118179004D01*
X101102905Y-118180206D01*
X101084410Y-118180607D01*
X101066058Y-118180209D01*
X101048067Y-118179015D01*
X101030437Y-118177026D01*
X101013167Y-118174241D01*
X100996258Y-118170660D01*
X100979710Y-118166284D01*
X100963522Y-118161112D01*
X100947695Y-118155144D01*
X100932228Y-118148381D01*
X100917123Y-118140822D01*
X100902377Y-118132467D01*
X100887993Y-118123316D01*
X100873969Y-118113370D01*
X100860306Y-118102628D01*
X100847003Y-118091091D01*
X100834061Y-118078757D01*
X100821728Y-118065699D01*
X100810190Y-118052291D01*
X100799448Y-118038535D01*
X100789502Y-118024429D01*
X100780351Y-118009973D01*
X100771997Y-117995169D01*
X100764437Y-117980016D01*
X100757674Y-117964513D01*
X100751706Y-117948661D01*
X100746534Y-117932460D01*
X100742158Y-117915909D01*
X100738577Y-117899010D01*
X100735792Y-117881761D01*
X100733803Y-117864163D01*
X100732609Y-117846216D01*
X100732217Y-117828164D01*
X100870942Y-117828164D01*
X100871171Y-117839051D01*
X100871857Y-117849669D01*
X100873002Y-117860018D01*
X100874605Y-117870098D01*
X100876666Y-117879908D01*
X100879185Y-117889450D01*
X100883822Y-117903258D01*
X100889489Y-117916461D01*
X100896186Y-117929058D01*
X100903914Y-117941050D01*
X100912673Y-117952437D01*
X100922462Y-117963218D01*
X100929560Y-117970069D01*
X100936948Y-117976517D01*
X100944642Y-117982549D01*
X100952641Y-117988164D01*
X100960945Y-117993364D01*
X100969555Y-117998148D01*
X100978469Y-118002515D01*
X100987690Y-118006467D01*
X100997215Y-118010003D01*
X101007046Y-118013123D01*
X101017182Y-118015827D01*
X101027623Y-118018115D01*
X101038370Y-118019986D01*
X101049422Y-118021442D01*
X101060779Y-118022482D01*
X101072442Y-118023106D01*
X101084410Y-118023314D01*
X101090417Y-118023262D01*
X101102204Y-118022846D01*
X101113687Y-118022014D01*
X101124867Y-118020766D01*
X101135743Y-118019102D01*
X101146316Y-118017023D01*
X101156586Y-118014527D01*
X101166552Y-118011615D01*
X101176215Y-118008287D01*
X101185574Y-118004543D01*
X101194630Y-118000384D01*
X101203383Y-117995808D01*
X101211832Y-117990816D01*
X101223937Y-117982549D01*
X101231628Y-117976517D01*
X101239016Y-117970069D01*
X101246025Y-117963304D01*
X101255692Y-117952630D01*
X101264340Y-117941325D01*
X101271972Y-117929389D01*
X101278586Y-117916821D01*
X101284182Y-117903623D01*
X101288761Y-117889794D01*
X101291248Y-117880223D01*
X101293283Y-117870372D01*
X101294866Y-117860241D01*
X101295997Y-117849829D01*
X101296675Y-117839137D01*
X101296901Y-117828164D01*
X101296672Y-117817277D01*
X101295985Y-117806659D01*
X101294840Y-117796311D01*
X101293237Y-117786231D01*
X101291177Y-117776420D01*
X101288658Y-117766878D01*
X101284021Y-117753070D01*
X101278354Y-117739868D01*
X101271656Y-117727270D01*
X101263928Y-117715278D01*
X101255170Y-117703892D01*
X101245381Y-117693110D01*
X101238283Y-117686259D01*
X101234624Y-117683013D01*
X101223163Y-117673894D01*
X101215116Y-117668330D01*
X101206745Y-117663178D01*
X101198050Y-117658438D01*
X101189030Y-117654111D01*
X101179686Y-117650195D01*
X101170017Y-117646692D01*
X101160024Y-117643601D01*
X101149707Y-117640922D01*
X101139065Y-117638655D01*
X101128099Y-117636800D01*
X101116808Y-117635357D01*
X101105193Y-117634327D01*
X101093254Y-117633709D01*
X101080990Y-117633503D01*
X101069522Y-117633713D01*
X101058322Y-117634342D01*
X101047388Y-117635392D01*
X101036721Y-117636861D01*
X101026322Y-117638750D01*
X101016190Y-117641059D01*
X101006325Y-117643788D01*
X100996727Y-117646936D01*
X100987396Y-117650504D01*
X100978332Y-117654492D01*
X100969536Y-117658900D01*
X100961006Y-117663728D01*
X100952744Y-117668975D01*
X100944749Y-117674642D01*
X100937021Y-117680729D01*
X100929560Y-117687236D01*
X100922462Y-117694112D01*
X100912673Y-117704909D01*
X100903914Y-117716286D01*
X100896186Y-117728242D01*
X100889489Y-117740778D01*
X100883822Y-117753893D01*
X100879185Y-117767588D01*
X100876666Y-117777040D01*
X100874605Y-117786750D01*
X100873002Y-117796717D01*
X100871857Y-117806942D01*
X100871171Y-117817424D01*
X100870942Y-117828164D01*
X100732217Y-117828164D01*
X100732212Y-117827920D01*
X100732608Y-117809715D01*
X100733795Y-117791860D01*
X100735775Y-117774353D01*
X100738547Y-117757196D01*
X100742110Y-117740388D01*
X100746466Y-117723930D01*
X100751613Y-117707820D01*
X100757552Y-117692060D01*
X100764283Y-117676649D01*
X100771806Y-117661587D01*
X100780120Y-117646874D01*
X100789227Y-117632510D01*
X100799126Y-117618496D01*
X100809816Y-117604831D01*
X100821298Y-117591515D01*
X100833572Y-117578548D01*
X100846380Y-117566156D01*
X100859523Y-117554563D01*
X100873002Y-117543769D01*
X100886817Y-117533775D01*
X100900968Y-117524581D01*
X100915455Y-117516186D01*
X100930277Y-117508591D01*
X100945436Y-117501795D01*
X100960930Y-117495798D01*
X100976760Y-117490601D01*
X100992926Y-117486204D01*
X101009427Y-117482606D01*
X101026265Y-117479808D01*
X101043438Y-117477809D01*
X101060947Y-117476610D01*
X101078792Y-117476210D01*
X101097732Y-117476602D01*
G37*
G36*
X101779525Y-118505938D02*
G01*
X101341109Y-118505938D01*
X101352555Y-118517420D01*
X101363263Y-118529092D01*
X101373232Y-118540952D01*
X101382462Y-118553001D01*
X101390955Y-118565239D01*
X101398708Y-118577665D01*
X101405724Y-118590281D01*
X101412001Y-118603086D01*
X101417539Y-118616079D01*
X101422339Y-118629262D01*
X101426400Y-118642633D01*
X101429723Y-118656193D01*
X101432308Y-118669942D01*
X101434154Y-118683880D01*
X101435262Y-118698007D01*
X101435631Y-118712323D01*
X101435244Y-118728844D01*
X101434082Y-118745006D01*
X101432145Y-118760809D01*
X101429433Y-118776254D01*
X101425947Y-118791340D01*
X101421686Y-118806067D01*
X101416651Y-118820435D01*
X101410840Y-118834445D01*
X101404255Y-118848096D01*
X101396896Y-118861388D01*
X101388761Y-118874321D01*
X101379852Y-118886896D01*
X101370168Y-118899112D01*
X101359710Y-118910969D01*
X101348476Y-118922468D01*
X101336468Y-118933607D01*
X101323787Y-118944284D01*
X101310716Y-118954273D01*
X101297256Y-118963572D01*
X101283407Y-118972182D01*
X101269168Y-118980104D01*
X101254540Y-118987337D01*
X101239523Y-118993881D01*
X101224117Y-118999736D01*
X101208321Y-119004902D01*
X101192136Y-119009380D01*
X101175562Y-119013168D01*
X101158599Y-119016268D01*
X101141246Y-119018679D01*
X101123504Y-119020401D01*
X101105373Y-119021435D01*
X101086852Y-119021779D01*
X101067945Y-119021432D01*
X101049449Y-119020390D01*
X101031362Y-119018653D01*
X101013686Y-119016222D01*
X100996420Y-119013097D01*
X100979565Y-119009277D01*
X100963119Y-119004762D01*
X100947084Y-118999553D01*
X100931459Y-118993649D01*
X100916245Y-118987051D01*
X100901440Y-118979758D01*
X100887046Y-118971770D01*
X100873062Y-118963088D01*
X100859489Y-118953712D01*
X100846326Y-118943640D01*
X100833572Y-118932875D01*
X100821298Y-118921727D01*
X100809816Y-118910206D01*
X100799126Y-118898310D01*
X100789227Y-118886041D01*
X100780120Y-118873398D01*
X100771806Y-118860380D01*
X100764283Y-118846989D01*
X100757552Y-118833224D01*
X100751613Y-118819084D01*
X100746466Y-118804571D01*
X100742110Y-118789683D01*
X100738547Y-118774422D01*
X100735775Y-118758787D01*
X100733795Y-118742777D01*
X100732608Y-118726394D01*
X100732212Y-118709637D01*
X100732563Y-118695474D01*
X100733465Y-118683503D01*
X100870942Y-118683503D01*
X100871476Y-118697925D01*
X100873080Y-118711884D01*
X100875752Y-118725380D01*
X100879494Y-118738411D01*
X100884305Y-118750979D01*
X100890184Y-118763084D01*
X100897133Y-118774724D01*
X100905151Y-118785901D01*
X100914238Y-118796615D01*
X100924394Y-118806864D01*
X100931758Y-118813440D01*
X100939377Y-118819621D01*
X100947275Y-118825404D01*
X100955452Y-118830788D01*
X100963907Y-118835773D01*
X100972640Y-118840359D01*
X100981652Y-118844546D01*
X100990943Y-118848335D01*
X101000512Y-118851725D01*
X101010360Y-118854716D01*
X101020487Y-118857308D01*
X101030892Y-118859502D01*
X101041576Y-118861296D01*
X101052538Y-118862692D01*
X101063779Y-118863689D01*
X101075298Y-118864287D01*
X101087096Y-118864487D01*
X101098215Y-118864281D01*
X101109101Y-118863666D01*
X101119754Y-118862640D01*
X101130175Y-118861205D01*
X101140362Y-118859358D01*
X101150317Y-118857102D01*
X101160039Y-118854435D01*
X101169528Y-118851359D01*
X101178785Y-118847871D01*
X101187809Y-118843974D01*
X101196599Y-118839666D01*
X101205157Y-118834948D01*
X101213483Y-118829820D01*
X101221575Y-118824282D01*
X101229435Y-118818333D01*
X101237062Y-118811974D01*
X101244308Y-118805516D01*
X101254301Y-118795425D01*
X101263241Y-118784848D01*
X101271130Y-118773786D01*
X101277968Y-118762239D01*
X101283753Y-118750207D01*
X101288486Y-118737690D01*
X101292168Y-118724688D01*
X101294797Y-118711200D01*
X101296375Y-118697228D01*
X101296901Y-118682770D01*
X101296843Y-118677611D01*
X101296382Y-118667481D01*
X101295458Y-118657600D01*
X101293207Y-118643248D01*
X101289917Y-118629459D01*
X101285588Y-118616232D01*
X101280220Y-118603567D01*
X101273813Y-118591465D01*
X101266366Y-118579925D01*
X101257881Y-118568948D01*
X101248357Y-118558533D01*
X101237794Y-118548681D01*
X101230065Y-118542440D01*
X101222083Y-118536602D01*
X101213846Y-118531167D01*
X101205356Y-118526134D01*
X101196612Y-118521504D01*
X101187614Y-118517276D01*
X101178362Y-118513451D01*
X101168857Y-118510029D01*
X101159098Y-118507010D01*
X101149085Y-118504392D01*
X101138818Y-118502178D01*
X101128297Y-118500366D01*
X101117523Y-118498957D01*
X101106495Y-118497951D01*
X101095213Y-118497347D01*
X101083677Y-118497145D01*
X101077744Y-118497196D01*
X101066095Y-118497598D01*
X101054734Y-118498404D01*
X101043661Y-118499611D01*
X101032876Y-118501222D01*
X101022380Y-118503235D01*
X101012171Y-118505651D01*
X101002250Y-118508469D01*
X100992618Y-118511690D01*
X100983274Y-118515314D01*
X100974218Y-118519340D01*
X100965450Y-118523769D01*
X100952838Y-118531167D01*
X100940875Y-118539471D01*
X100929560Y-118548681D01*
X100922462Y-118555275D01*
X100912673Y-118565625D01*
X100903914Y-118576524D01*
X100896186Y-118587973D01*
X100889489Y-118599972D01*
X100883822Y-118612520D01*
X100879185Y-118625617D01*
X100875578Y-118639264D01*
X100873002Y-118653461D01*
X100871857Y-118663230D01*
X100871171Y-118673244D01*
X100870942Y-118683503D01*
X100733465Y-118683503D01*
X100733616Y-118681503D01*
X100735372Y-118667722D01*
X100737829Y-118654132D01*
X100740989Y-118640733D01*
X100744851Y-118627525D01*
X100749415Y-118614508D01*
X100754682Y-118601681D01*
X100760651Y-118589046D01*
X100767322Y-118576601D01*
X100774695Y-118564346D01*
X100782770Y-118552283D01*
X100791547Y-118540411D01*
X100801027Y-118528729D01*
X100811209Y-118517238D01*
X100822093Y-118505938D01*
X100747843Y-118505938D01*
X100747843Y-118348646D01*
X101779525Y-118348646D01*
X101779525Y-118505938D01*
G37*
G36*
X101291772Y-119371779D02*
G01*
X100747843Y-119072337D01*
X100747843Y-119250635D01*
X101132037Y-119454333D01*
X100747843Y-119644354D01*
X100747843Y-119818011D01*
X101779525Y-119287515D01*
X101779525Y-119111905D01*
X101291772Y-119371779D01*
G37*
G36*
X100747843Y-119918639D02*
G01*
X100747843Y-120075931D01*
X100811835Y-120075931D01*
X100803570Y-120083814D01*
X100795812Y-120091524D01*
X100788561Y-120099064D01*
X100781816Y-120106431D01*
X100773611Y-120115987D01*
X100766306Y-120125238D01*
X100759903Y-120134183D01*
X100754400Y-120142823D01*
X100749797Y-120151158D01*
X100744731Y-120161919D01*
X100740524Y-120173288D01*
X100737776Y-120182821D01*
X100735578Y-120192743D01*
X100733929Y-120203055D01*
X100732830Y-120213756D01*
X100732280Y-120224846D01*
X100732212Y-120230537D01*
X100732549Y-120241987D01*
X100733560Y-120253532D01*
X100735245Y-120265171D01*
X100737604Y-120276905D01*
X100740637Y-120288733D01*
X100744345Y-120300656D01*
X100748726Y-120312673D01*
X100753781Y-120324784D01*
X100759511Y-120336990D01*
X100765914Y-120349290D01*
X100770558Y-120357543D01*
X100919790Y-120287201D01*
X100914203Y-120279021D01*
X100907609Y-120268167D01*
X100901991Y-120257375D01*
X100897350Y-120246644D01*
X100893687Y-120235973D01*
X100891000Y-120225364D01*
X100889290Y-120214816D01*
X100888558Y-120204328D01*
X100888527Y-120201716D01*
X100889265Y-120186484D01*
X100891477Y-120172235D01*
X100895165Y-120158969D01*
X100900327Y-120146685D01*
X100906965Y-120135384D01*
X100915077Y-120125066D01*
X100924665Y-120115730D01*
X100935727Y-120107377D01*
X100948264Y-120100007D01*
X100962277Y-120093620D01*
X100977764Y-120088215D01*
X100994727Y-120083793D01*
X101013164Y-120080353D01*
X101022936Y-120079002D01*
X101033077Y-120077897D01*
X101043586Y-120077037D01*
X101054464Y-120076422D01*
X101065711Y-120076054D01*
X101077327Y-120075931D01*
X101420000Y-120075931D01*
X101420000Y-119918639D01*
X100747843Y-119918639D01*
G37*
G36*
X100747843Y-120620104D02*
G01*
X101420000Y-120620104D01*
X101420000Y-120462812D01*
X100747843Y-120462812D01*
X100747843Y-120620104D01*
G37*
G36*
X100473314Y-120447180D02*
G01*
X100463232Y-120447646D01*
X100453500Y-120449043D01*
X100441829Y-120452098D01*
X100430707Y-120456608D01*
X100420134Y-120462574D01*
X100412070Y-120468394D01*
X100404357Y-120475145D01*
X100402484Y-120476978D01*
X100395500Y-120484668D01*
X100389447Y-120492716D01*
X100384326Y-120501124D01*
X100379234Y-120512137D01*
X100375596Y-120523711D01*
X100373734Y-120533374D01*
X100372803Y-120543396D01*
X100372686Y-120548541D01*
X100373152Y-120558910D01*
X100374549Y-120568890D01*
X100376876Y-120578480D01*
X100381096Y-120589920D01*
X100385519Y-120598635D01*
X100390873Y-120606960D01*
X100397159Y-120614896D01*
X100402484Y-120620593D01*
X100409960Y-120627576D01*
X100417856Y-120633629D01*
X100428316Y-120639885D01*
X100439432Y-120644687D01*
X100448797Y-120647480D01*
X100458582Y-120649343D01*
X100468787Y-120650274D01*
X100474047Y-120650390D01*
X100484469Y-120649925D01*
X100494487Y-120648528D01*
X100504100Y-120646200D01*
X100515548Y-120641981D01*
X100526364Y-120636306D01*
X100534561Y-120630719D01*
X100542354Y-120624201D01*
X100546099Y-120620593D01*
X100553082Y-120613120D01*
X100559135Y-120605236D01*
X100565391Y-120594801D01*
X100570193Y-120583722D01*
X100573539Y-120571998D01*
X100575169Y-120562156D01*
X100575867Y-120551902D01*
X100575896Y-120549274D01*
X100575434Y-120538901D01*
X100574049Y-120528910D01*
X100571740Y-120519301D01*
X100568508Y-120510073D01*
X100564352Y-120501227D01*
X100559272Y-120492762D01*
X100553269Y-120484679D01*
X100546343Y-120476978D01*
X100538684Y-120469994D01*
X100530604Y-120463941D01*
X100522106Y-120458820D01*
X100513187Y-120454630D01*
X100503848Y-120451371D01*
X100494090Y-120449043D01*
X100483912Y-120447646D01*
X100473314Y-120447180D01*
G37*
G36*
X101105068Y-120779690D02*
G01*
X101123141Y-120780709D01*
X101140827Y-120782407D01*
X101158125Y-120784785D01*
X101175036Y-120787842D01*
X101191560Y-120791578D01*
X101207696Y-120795993D01*
X101223445Y-120801088D01*
X101238807Y-120806862D01*
X101253781Y-120813316D01*
X101268368Y-120820448D01*
X101282567Y-120828260D01*
X101296379Y-120836751D01*
X101309804Y-120845922D01*
X101322841Y-120855772D01*
X101335491Y-120866301D01*
X101347381Y-120877270D01*
X101358504Y-120888622D01*
X101368859Y-120900359D01*
X101378448Y-120912478D01*
X101387269Y-120924981D01*
X101395323Y-120937868D01*
X101402611Y-120951138D01*
X101409131Y-120964792D01*
X101414884Y-120978829D01*
X101419870Y-120993250D01*
X101424089Y-121008054D01*
X101427540Y-121023242D01*
X101430225Y-121038814D01*
X101432143Y-121054769D01*
X101433294Y-121071107D01*
X101433677Y-121087829D01*
X101433308Y-121102589D01*
X101432200Y-121117131D01*
X101430354Y-121131455D01*
X101427769Y-121145562D01*
X101424446Y-121159452D01*
X101420385Y-121173123D01*
X101415585Y-121186578D01*
X101410047Y-121199815D01*
X101403770Y-121212834D01*
X101396754Y-121225636D01*
X101389001Y-121238220D01*
X101380508Y-121250587D01*
X101371278Y-121262736D01*
X101361309Y-121274667D01*
X101350601Y-121286381D01*
X101339155Y-121297878D01*
X101432700Y-121297878D01*
X101445503Y-121297714D01*
X101457899Y-121297224D01*
X101469889Y-121296405D01*
X101481472Y-121295260D01*
X101492649Y-121293787D01*
X101503420Y-121291988D01*
X101513784Y-121289861D01*
X101523742Y-121287406D01*
X101542438Y-121281516D01*
X101559508Y-121274316D01*
X101574953Y-121265808D01*
X101588771Y-121255990D01*
X101600964Y-121244864D01*
X101611532Y-121232429D01*
X101620473Y-121218684D01*
X101627789Y-121203631D01*
X101633479Y-121187269D01*
X101637544Y-121169597D01*
X101639982Y-121150617D01*
X101640592Y-121140636D01*
X101640795Y-121130327D01*
X101640734Y-121124691D01*
X101640245Y-121113674D01*
X101639269Y-121102996D01*
X101637803Y-121092657D01*
X101635849Y-121082659D01*
X101633407Y-121073000D01*
X101628827Y-121059148D01*
X101623148Y-121046060D01*
X101616371Y-121033737D01*
X101608494Y-121022178D01*
X101599518Y-121011383D01*
X101589443Y-121001352D01*
X101578269Y-120992086D01*
X101574881Y-120989597D01*
X101565618Y-120983766D01*
X101555222Y-120978496D01*
X101546090Y-120974684D01*
X101536232Y-120971230D01*
X101525650Y-120968135D01*
X101514342Y-120965399D01*
X101502309Y-120963021D01*
X101502309Y-120808660D01*
X101518481Y-120810661D01*
X101534206Y-120813247D01*
X101549484Y-120816416D01*
X101564316Y-120820170D01*
X101578702Y-120824507D01*
X101592641Y-120829428D01*
X101606134Y-120834933D01*
X101619180Y-120841022D01*
X101631779Y-120847695D01*
X101643932Y-120854951D01*
X101655639Y-120862792D01*
X101666898Y-120871216D01*
X101677712Y-120880225D01*
X101688079Y-120889817D01*
X101697999Y-120899993D01*
X101707473Y-120910753D01*
X101716198Y-120921653D01*
X101724360Y-120932918D01*
X101731960Y-120944550D01*
X101738996Y-120956549D01*
X101745469Y-120968913D01*
X101751380Y-120981645D01*
X101756727Y-120994742D01*
X101761512Y-121008206D01*
X101765734Y-121022036D01*
X101769393Y-121036233D01*
X101772489Y-121050796D01*
X101775022Y-121065725D01*
X101776992Y-121081021D01*
X101778399Y-121096683D01*
X101779244Y-121112711D01*
X101779525Y-121129106D01*
X101779119Y-121148475D01*
X101777903Y-121167319D01*
X101775876Y-121185638D01*
X101773037Y-121203432D01*
X101769388Y-121220702D01*
X101764928Y-121237447D01*
X101759656Y-121253667D01*
X101753574Y-121269363D01*
X101746681Y-121284533D01*
X101738977Y-121299179D01*
X101730462Y-121313301D01*
X101721136Y-121326897D01*
X101710999Y-121339969D01*
X101700051Y-121352516D01*
X101688292Y-121364538D01*
X101675722Y-121376036D01*
X101668920Y-121381866D01*
X101658399Y-121390150D01*
X101647496Y-121397880D01*
X101636211Y-121405057D01*
X101624544Y-121411679D01*
X101612495Y-121417748D01*
X101600064Y-121423262D01*
X101587250Y-121428223D01*
X101574055Y-121432630D01*
X101560477Y-121436484D01*
X101546517Y-121439783D01*
X101536042Y-121441795D01*
X101524948Y-121443619D01*
X101515230Y-121444994D01*
X101505084Y-121446237D01*
X101494508Y-121447350D01*
X101483503Y-121448332D01*
X101476672Y-121448899D01*
X101464849Y-121449721D01*
X101454995Y-121450267D01*
X101444790Y-121450713D01*
X101434234Y-121451060D01*
X101423327Y-121451308D01*
X101412069Y-121451457D01*
X101400460Y-121451507D01*
X100750774Y-121451507D01*
X100750774Y-121297878D01*
X100826245Y-121297878D01*
X100814858Y-121287363D01*
X100804206Y-121276518D01*
X100794288Y-121265343D01*
X100785105Y-121253838D01*
X100776657Y-121242003D01*
X100768943Y-121229837D01*
X100761964Y-121217342D01*
X100755720Y-121204516D01*
X100750210Y-121191361D01*
X100745435Y-121177875D01*
X100741395Y-121164059D01*
X100738089Y-121149913D01*
X100735518Y-121135437D01*
X100733681Y-121120630D01*
X100733569Y-121119092D01*
X100870942Y-121119092D01*
X100871172Y-121129145D01*
X100872379Y-121143799D01*
X100874620Y-121157942D01*
X100877897Y-121171574D01*
X100882208Y-121184695D01*
X100887554Y-121197306D01*
X100893935Y-121209405D01*
X100901350Y-121220993D01*
X100909800Y-121232071D01*
X100919285Y-121242637D01*
X100929804Y-121252693D01*
X100933430Y-121255849D01*
X100944764Y-121264714D01*
X100956785Y-121272679D01*
X100969494Y-121279741D01*
X100978347Y-121283949D01*
X100987506Y-121287755D01*
X100996971Y-121291161D01*
X101006741Y-121294167D01*
X101016816Y-121296771D01*
X101027196Y-121298975D01*
X101037882Y-121300778D01*
X101048872Y-121302181D01*
X101060169Y-121303183D01*
X101071770Y-121303784D01*
X101083677Y-121303984D01*
X101094816Y-121303802D01*
X101105701Y-121303255D01*
X101116332Y-121302344D01*
X101126710Y-121301068D01*
X101136833Y-121299428D01*
X101146703Y-121297424D01*
X101156319Y-121295055D01*
X101170268Y-121290818D01*
X101183645Y-121285761D01*
X101196451Y-121279884D01*
X101208687Y-121273188D01*
X101220351Y-121265671D01*
X101231444Y-121257334D01*
X101239134Y-121250812D01*
X101246328Y-121244007D01*
X101256188Y-121233271D01*
X101264932Y-121221899D01*
X101272560Y-121209892D01*
X101279071Y-121197250D01*
X101284467Y-121183972D01*
X101288746Y-121170059D01*
X101290978Y-121160430D01*
X101292715Y-121150519D01*
X101293955Y-121140326D01*
X101294699Y-121129850D01*
X101294947Y-121119092D01*
X101294886Y-121113664D01*
X101294395Y-121103030D01*
X101293415Y-121092692D01*
X101291943Y-121082649D01*
X101289982Y-121072903D01*
X101286120Y-121058837D01*
X101281155Y-121045437D01*
X101275086Y-121032702D01*
X101267914Y-121020633D01*
X101259639Y-121009229D01*
X101250260Y-120998490D01*
X101239778Y-120988418D01*
X101232177Y-120982072D01*
X101221083Y-120973953D01*
X101209419Y-120966633D01*
X101197184Y-120960112D01*
X101184378Y-120954389D01*
X101171000Y-120949464D01*
X101157052Y-120945338D01*
X101147436Y-120943031D01*
X101137566Y-120941079D01*
X101127442Y-120939482D01*
X101117065Y-120938240D01*
X101106434Y-120937353D01*
X101095549Y-120936820D01*
X101084410Y-120936643D01*
X101073094Y-120936820D01*
X101062043Y-120937353D01*
X101051257Y-120938240D01*
X101040736Y-120939482D01*
X101030481Y-120941079D01*
X101020491Y-120943031D01*
X101010766Y-120945338D01*
X100996676Y-120949464D01*
X100983183Y-120954389D01*
X100970286Y-120960112D01*
X100957986Y-120966633D01*
X100946284Y-120973953D01*
X100935177Y-120982072D01*
X100927399Y-120988503D01*
X100920122Y-120995219D01*
X100910148Y-121005826D01*
X100901303Y-121017072D01*
X100893587Y-121028958D01*
X100887001Y-121041484D01*
X100881543Y-121054650D01*
X100877215Y-121068455D01*
X100874956Y-121078014D01*
X100873200Y-121087857D01*
X100871945Y-121097984D01*
X100871193Y-121108396D01*
X100870942Y-121119092D01*
X100733569Y-121119092D01*
X100732579Y-121105494D01*
X100732212Y-121090027D01*
X100732632Y-121072386D01*
X100733895Y-121055181D01*
X100735998Y-121038413D01*
X100738944Y-121022082D01*
X100742730Y-121006188D01*
X100747359Y-120990731D01*
X100752828Y-120975711D01*
X100759139Y-120961128D01*
X100766292Y-120946982D01*
X100774286Y-120933273D01*
X100783122Y-120920001D01*
X100792799Y-120907166D01*
X100803318Y-120894768D01*
X100814678Y-120882806D01*
X100826880Y-120871282D01*
X100839923Y-120860195D01*
X100852793Y-120850405D01*
X100866003Y-120841247D01*
X100879553Y-120832720D01*
X100893442Y-120824825D01*
X100907672Y-120817562D01*
X100922240Y-120810930D01*
X100937149Y-120804930D01*
X100952397Y-120799562D01*
X100967984Y-120794825D01*
X100983912Y-120790719D01*
X101000178Y-120787245D01*
X101016785Y-120784403D01*
X101033731Y-120782193D01*
X101051017Y-120780614D01*
X101068643Y-120779666D01*
X101086608Y-120779351D01*
X101105068Y-120779690D01*
G37*
G36*
X100263265Y-121647878D02*
G01*
X100263265Y-121805170D01*
X100805973Y-121805170D01*
X100797041Y-121815556D01*
X100788685Y-121826072D01*
X100780906Y-121836721D01*
X100773702Y-121847501D01*
X100767075Y-121858413D01*
X100761025Y-121869456D01*
X100755550Y-121880631D01*
X100750652Y-121891938D01*
X100746330Y-121903376D01*
X100742584Y-121914946D01*
X100739415Y-121926648D01*
X100736822Y-121938481D01*
X100734805Y-121950446D01*
X100733364Y-121962543D01*
X100732500Y-121974771D01*
X100732212Y-121987131D01*
X100732499Y-122001150D01*
X100733360Y-122014811D01*
X100734796Y-122028116D01*
X100736806Y-122041063D01*
X100739391Y-122053654D01*
X100742550Y-122065888D01*
X100746283Y-122077766D01*
X100750591Y-122089286D01*
X100755473Y-122100450D01*
X100760929Y-122111256D01*
X100766960Y-122121706D01*
X100773565Y-122131799D01*
X100780744Y-122141536D01*
X100788498Y-122150915D01*
X100796826Y-122159938D01*
X100805729Y-122168604D01*
X100814025Y-122175584D01*
X100822917Y-122182114D01*
X100832405Y-122188193D01*
X100842487Y-122193822D01*
X100853165Y-122199001D01*
X100864439Y-122203729D01*
X100876307Y-122208007D01*
X100888771Y-122211835D01*
X100901831Y-122215212D01*
X100915485Y-122218139D01*
X100929735Y-122220616D01*
X100944581Y-122222643D01*
X100960022Y-122224219D01*
X100976058Y-122225344D01*
X100992689Y-122226020D01*
X101009916Y-122226245D01*
X101420000Y-122226245D01*
X101420000Y-122068953D01*
X101023838Y-122068953D01*
X101013936Y-122068842D01*
X100999735Y-122068261D01*
X100986316Y-122067182D01*
X100973678Y-122065605D01*
X100961821Y-122063530D01*
X100950746Y-122060957D01*
X100940452Y-122057885D01*
X100930939Y-122054316D01*
X100919471Y-122048783D01*
X100909392Y-122042364D01*
X100907090Y-122040621D01*
X100898617Y-122033060D01*
X100891275Y-122024424D01*
X100885062Y-122014712D01*
X100879979Y-122003923D01*
X100876025Y-121992058D01*
X100873801Y-121982453D01*
X100872212Y-121972243D01*
X100871259Y-121961427D01*
X100870942Y-121950006D01*
X100871138Y-121940178D01*
X100872170Y-121926128D01*
X100874086Y-121912912D01*
X100876887Y-121900529D01*
X100880572Y-121888978D01*
X100885142Y-121878261D01*
X100890595Y-121868376D01*
X100896934Y-121859324D01*
X100904157Y-121851105D01*
X100912264Y-121843719D01*
X100921256Y-121837166D01*
X100931464Y-121831448D01*
X100942948Y-121826293D01*
X100955707Y-121821700D01*
X100969742Y-121817669D01*
X100979806Y-121815294D01*
X100990437Y-121813169D01*
X101001635Y-121811295D01*
X101013400Y-121809670D01*
X101025731Y-121808295D01*
X101038630Y-121807170D01*
X101052094Y-121806295D01*
X101066126Y-121805670D01*
X101080724Y-121805295D01*
X101095889Y-121805170D01*
X101420000Y-121805170D01*
X101420000Y-121647878D01*
X100263265Y-121647878D01*
G37*
G36*
X100888527Y-122572093D02*
G01*
X101420000Y-122572093D01*
X101420000Y-122414801D01*
X100888527Y-122414801D01*
X100888527Y-122352274D01*
X100749797Y-122352274D01*
X100749797Y-122414801D01*
X100497739Y-122414801D01*
X100497739Y-122572093D01*
X100749797Y-122572093D01*
X100749797Y-122696168D01*
X100888527Y-122696168D01*
X100888527Y-122572093D01*
G37*
G36*
X101263684Y-123493133D02*
G01*
X101263684Y-123886120D01*
X101420000Y-123886120D01*
X101420000Y-123177327D01*
X100972058Y-123543691D01*
X100963792Y-123550370D01*
X100955663Y-123556911D01*
X100947672Y-123563314D01*
X100939818Y-123569581D01*
X100932102Y-123575710D01*
X100920784Y-123584646D01*
X100909776Y-123593272D01*
X100899077Y-123601590D01*
X100888687Y-123609598D01*
X100878607Y-123617298D01*
X100868835Y-123624688D01*
X100859372Y-123631769D01*
X100856287Y-123634061D01*
X100847222Y-123640778D01*
X100838435Y-123647190D01*
X100829928Y-123653297D01*
X100821700Y-123659100D01*
X100811163Y-123666362D01*
X100801122Y-123673083D01*
X100791578Y-123679261D01*
X100782529Y-123684898D01*
X100773977Y-123689993D01*
X100761955Y-123696933D01*
X100750161Y-123703190D01*
X100738594Y-123708765D01*
X100727254Y-123713657D01*
X100716142Y-123717867D01*
X100705258Y-123721394D01*
X100694601Y-123724238D01*
X100684172Y-123726400D01*
X100673970Y-123727879D01*
X100663996Y-123728675D01*
X100657473Y-123728827D01*
X100643718Y-123728370D01*
X100630388Y-123726998D01*
X100617483Y-123724712D01*
X100605003Y-123721511D01*
X100592948Y-123717396D01*
X100581318Y-123712367D01*
X100570113Y-123706422D01*
X100559334Y-123699564D01*
X100548979Y-123691791D01*
X100539049Y-123683103D01*
X100532665Y-123676803D01*
X100523630Y-123666878D01*
X100515483Y-123656519D01*
X100508225Y-123645726D01*
X100501856Y-123634500D01*
X100496376Y-123622840D01*
X100491784Y-123610746D01*
X100488081Y-123598219D01*
X100485267Y-123585258D01*
X100483341Y-123571864D01*
X100482304Y-123558036D01*
X100482107Y-123548576D01*
X100482293Y-123538711D01*
X100483777Y-123519780D01*
X100486746Y-123501916D01*
X100491200Y-123485118D01*
X100497138Y-123469388D01*
X100504561Y-123454723D01*
X100513468Y-123441126D01*
X100523860Y-123428595D01*
X100535736Y-123417131D01*
X100549097Y-123406734D01*
X100563942Y-123397403D01*
X100580272Y-123389139D01*
X100598087Y-123381941D01*
X100607550Y-123378742D01*
X100617386Y-123375810D01*
X100627592Y-123373145D01*
X100638169Y-123370746D01*
X100649118Y-123368614D01*
X100660437Y-123366748D01*
X100672128Y-123365150D01*
X100672128Y-123206636D01*
X100651902Y-123209288D01*
X100632318Y-123212450D01*
X100613377Y-123216123D01*
X100595077Y-123220306D01*
X100577419Y-123224999D01*
X100560404Y-123230203D01*
X100544031Y-123235918D01*
X100528299Y-123242143D01*
X100513210Y-123248878D01*
X100498763Y-123256124D01*
X100484958Y-123263880D01*
X100471795Y-123272146D01*
X100459275Y-123280923D01*
X100447396Y-123290211D01*
X100436159Y-123300009D01*
X100425565Y-123310317D01*
X100415612Y-123321136D01*
X100406302Y-123332465D01*
X100397634Y-123344304D01*
X100389608Y-123356654D01*
X100382224Y-123369515D01*
X100375482Y-123382886D01*
X100369382Y-123396767D01*
X100363924Y-123411159D01*
X100359108Y-123426061D01*
X100354935Y-123441474D01*
X100351403Y-123457397D01*
X100348514Y-123473830D01*
X100346266Y-123490774D01*
X100344661Y-123508228D01*
X100343698Y-123526193D01*
X100343377Y-123544668D01*
X100343734Y-123562561D01*
X100344804Y-123580091D01*
X100346588Y-123597258D01*
X100349086Y-123614064D01*
X100352298Y-123630506D01*
X100356223Y-123646586D01*
X100360861Y-123662303D01*
X100366214Y-123677658D01*
X100372280Y-123692651D01*
X100379059Y-123707280D01*
X100386553Y-123721548D01*
X100394760Y-123735452D01*
X100403680Y-123748994D01*
X100413314Y-123762174D01*
X100423662Y-123774991D01*
X100434724Y-123787445D01*
X100446312Y-123799394D01*
X100458240Y-123810572D01*
X100470507Y-123820979D01*
X100483114Y-123830615D01*
X100496061Y-123839481D01*
X100509348Y-123847575D01*
X100522974Y-123854898D01*
X100536939Y-123861451D01*
X100551245Y-123867233D01*
X100565890Y-123872243D01*
X100580875Y-123876483D01*
X100596199Y-123879952D01*
X100611863Y-123882651D01*
X100627867Y-123884578D01*
X100644210Y-123885734D01*
X100660893Y-123886120D01*
X100671596Y-123885939D01*
X100682272Y-123885398D01*
X100692921Y-123884497D01*
X100703544Y-123883234D01*
X100714140Y-123881612D01*
X100724709Y-123879628D01*
X100735251Y-123877284D01*
X100745767Y-123874579D01*
X100756256Y-123871514D01*
X100766719Y-123868088D01*
X100777154Y-123864301D01*
X100787563Y-123860153D01*
X100797945Y-123855645D01*
X100808301Y-123850777D01*
X100818630Y-123845548D01*
X100828932Y-123839958D01*
X100839984Y-123833813D01*
X100848593Y-123828754D01*
X100857478Y-123823309D01*
X100866637Y-123817477D01*
X100876071Y-123811259D01*
X100885779Y-123804655D01*
X100895763Y-123797664D01*
X100906021Y-123790286D01*
X100916554Y-123782522D01*
X100927362Y-123774372D01*
X100931025Y-123771570D01*
X100942251Y-123762935D01*
X100953854Y-123753884D01*
X100961800Y-123747619D01*
X100969913Y-123741168D01*
X100978195Y-123734532D01*
X100986644Y-123727712D01*
X100995261Y-123720706D01*
X101004046Y-123713515D01*
X101012999Y-123706139D01*
X101022120Y-123698578D01*
X101031409Y-123690832D01*
X101040866Y-123682901D01*
X101050491Y-123674785D01*
X101060283Y-123666483D01*
X101070244Y-123657997D01*
X101263684Y-123493133D01*
G37*
G36*
X100899421Y-124061113D02*
G01*
X100915707Y-124061460D01*
X100931768Y-124062039D01*
X100947603Y-124062848D01*
X100963214Y-124063889D01*
X100978599Y-124065162D01*
X100993759Y-124066666D01*
X101008695Y-124068401D01*
X101023404Y-124070368D01*
X101037889Y-124072566D01*
X101052149Y-124074995D01*
X101066183Y-124077656D01*
X101079992Y-124080548D01*
X101093577Y-124083671D01*
X101106936Y-124087026D01*
X101120069Y-124090612D01*
X101132978Y-124094429D01*
X101145661Y-124098478D01*
X101158120Y-124102758D01*
X101170353Y-124107270D01*
X101182361Y-124112013D01*
X101194144Y-124116987D01*
X101205701Y-124122193D01*
X101217034Y-124127630D01*
X101228141Y-124133298D01*
X101239023Y-124139198D01*
X101249680Y-124145329D01*
X101260112Y-124151692D01*
X101270319Y-124158285D01*
X101280300Y-124165111D01*
X101290057Y-124172167D01*
X101299588Y-124179455D01*
X101307958Y-124186214D01*
X101316062Y-124193056D01*
X101323900Y-124199981D01*
X101331473Y-124206990D01*
X101338780Y-124214082D01*
X101345821Y-124221258D01*
X101352597Y-124228517D01*
X101359107Y-124235860D01*
X101371329Y-124250796D01*
X101382489Y-124266066D01*
X101392586Y-124281670D01*
X101401620Y-124297608D01*
X101409592Y-124313879D01*
X101416500Y-124330485D01*
X101422346Y-124347425D01*
X101427128Y-124364698D01*
X101430848Y-124382306D01*
X101433505Y-124400247D01*
X101435100Y-124418522D01*
X101435631Y-124437131D01*
X101435498Y-124446461D01*
X101434435Y-124464863D01*
X101432310Y-124482922D01*
X101429121Y-124500637D01*
X101424870Y-124518009D01*
X101419556Y-124535037D01*
X101413179Y-124551722D01*
X101405739Y-124568064D01*
X101397236Y-124584062D01*
X101387670Y-124599716D01*
X101377042Y-124615027D01*
X101365351Y-124629995D01*
X101352597Y-124644619D01*
X101345821Y-124651802D01*
X101338780Y-124658899D01*
X101331473Y-124665911D01*
X101323900Y-124672836D01*
X101316062Y-124679676D01*
X101307958Y-124686430D01*
X101299588Y-124693098D01*
X101290063Y-124700371D01*
X101280328Y-124707413D01*
X101270381Y-124714224D01*
X101260223Y-124720804D01*
X101249853Y-124727154D01*
X101239272Y-124733272D01*
X101228480Y-124739160D01*
X101217476Y-124744816D01*
X101206261Y-124750242D01*
X101194835Y-124755437D01*
X101183198Y-124760401D01*
X101171349Y-124765134D01*
X101159289Y-124769637D01*
X101147017Y-124773908D01*
X101134534Y-124777948D01*
X101121840Y-124781758D01*
X101108935Y-124785337D01*
X101095818Y-124788685D01*
X101082490Y-124791802D01*
X101068950Y-124794688D01*
X101055199Y-124797343D01*
X101041237Y-124799767D01*
X101027064Y-124801961D01*
X101012679Y-124803923D01*
X100998083Y-124805655D01*
X100983275Y-124807155D01*
X100968256Y-124808425D01*
X100953026Y-124809464D01*
X100937585Y-124810272D01*
X100921932Y-124810850D01*
X100906068Y-124811196D01*
X100889993Y-124811311D01*
X100873857Y-124811196D01*
X100857936Y-124810850D01*
X100842228Y-124810272D01*
X100826734Y-124809464D01*
X100811453Y-124808425D01*
X100796386Y-124807155D01*
X100781533Y-124805655D01*
X100766894Y-124803923D01*
X100752469Y-124801961D01*
X100738257Y-124799767D01*
X100724258Y-124797343D01*
X100710474Y-124794688D01*
X100696903Y-124791802D01*
X100683546Y-124788685D01*
X100670403Y-124785337D01*
X100657473Y-124781758D01*
X100644757Y-124777948D01*
X100632255Y-124773908D01*
X100619967Y-124769637D01*
X100607892Y-124765134D01*
X100596031Y-124760401D01*
X100584384Y-124755437D01*
X100572950Y-124750242D01*
X100561730Y-124744816D01*
X100550724Y-124739160D01*
X100539931Y-124733272D01*
X100529353Y-124727154D01*
X100518988Y-124720804D01*
X100508836Y-124714224D01*
X100498899Y-124707413D01*
X100489175Y-124700371D01*
X100479665Y-124693098D01*
X100471280Y-124686429D01*
X100463161Y-124679673D01*
X100455308Y-124672830D01*
X100447722Y-124665899D01*
X100440402Y-124658881D01*
X100433348Y-124651776D01*
X100426560Y-124644583D01*
X100420039Y-124637304D01*
X100407794Y-124622482D01*
X100396614Y-124607311D01*
X100386499Y-124591791D01*
X100377449Y-124575922D01*
X100369463Y-124559704D01*
X100362542Y-124543137D01*
X100356686Y-124526220D01*
X100351895Y-124508954D01*
X100348168Y-124491339D01*
X100345507Y-124473375D01*
X100343909Y-124455061D01*
X100343377Y-124436399D01*
X100343391Y-124435910D01*
X100482107Y-124435910D01*
X100482558Y-124447568D01*
X100483912Y-124458972D01*
X100486168Y-124470122D01*
X100489327Y-124481019D01*
X100493389Y-124491661D01*
X100498353Y-124502050D01*
X100504220Y-124512186D01*
X100510989Y-124522067D01*
X100518660Y-124531694D01*
X100527235Y-124541068D01*
X100536711Y-124550188D01*
X100547091Y-124559054D01*
X100558373Y-124567667D01*
X100570557Y-124576025D01*
X100583644Y-124584130D01*
X100597634Y-124591981D01*
X100604943Y-124595798D01*
X100619915Y-124603068D01*
X100635356Y-124609854D01*
X100651266Y-124616154D01*
X100667645Y-124621970D01*
X100684494Y-124627302D01*
X100701812Y-124632148D01*
X100719600Y-124636510D01*
X100737857Y-124640388D01*
X100756584Y-124643780D01*
X100775780Y-124646688D01*
X100785554Y-124647961D01*
X100795445Y-124649112D01*
X100805454Y-124650142D01*
X100815580Y-124651050D01*
X100825823Y-124651838D01*
X100836184Y-124652504D01*
X100846662Y-124653050D01*
X100857258Y-124653474D01*
X100867971Y-124653777D01*
X100878801Y-124653958D01*
X100889748Y-124654019D01*
X100900665Y-124653958D01*
X100911464Y-124653777D01*
X100922145Y-124653474D01*
X100932708Y-124653050D01*
X100943154Y-124652504D01*
X100953481Y-124651838D01*
X100963691Y-124651050D01*
X100973783Y-124650142D01*
X100983757Y-124649112D01*
X100993614Y-124647961D01*
X101012973Y-124645295D01*
X101031860Y-124642145D01*
X101050277Y-124638510D01*
X101068222Y-124634390D01*
X101085696Y-124629786D01*
X101102698Y-124624697D01*
X101119230Y-124619123D01*
X101135290Y-124613064D01*
X101150878Y-124606521D01*
X101165996Y-124599494D01*
X101180642Y-124591981D01*
X101194720Y-124584130D01*
X101207890Y-124576025D01*
X101220152Y-124567667D01*
X101231505Y-124559054D01*
X101241950Y-124550188D01*
X101251487Y-124541068D01*
X101260116Y-124531694D01*
X101267836Y-124522067D01*
X101274648Y-124512186D01*
X101280552Y-124502050D01*
X101285548Y-124491661D01*
X101289635Y-124481019D01*
X101292814Y-124470122D01*
X101295085Y-124458972D01*
X101296447Y-124447568D01*
X101296901Y-124435910D01*
X101296447Y-124424166D01*
X101295085Y-124412688D01*
X101292814Y-124401475D01*
X101289635Y-124390527D01*
X101285548Y-124379844D01*
X101280552Y-124369427D01*
X101274648Y-124359274D01*
X101267836Y-124349387D01*
X101260116Y-124339765D01*
X101251487Y-124330409D01*
X101241950Y-124321317D01*
X101231505Y-124312491D01*
X101220152Y-124303930D01*
X101207890Y-124295635D01*
X101194720Y-124287604D01*
X101180642Y-124279839D01*
X101173209Y-124276052D01*
X101157988Y-124268839D01*
X101142291Y-124262108D01*
X101126120Y-124255856D01*
X101109473Y-124250086D01*
X101092351Y-124244797D01*
X101074754Y-124239988D01*
X101056682Y-124235661D01*
X101038135Y-124231814D01*
X101019113Y-124228448D01*
X101009423Y-124226945D01*
X100999615Y-124225563D01*
X100989688Y-124224300D01*
X100979643Y-124223158D01*
X100969478Y-124222137D01*
X100959195Y-124221235D01*
X100948793Y-124220454D01*
X100938272Y-124219792D01*
X100927633Y-124219252D01*
X100916874Y-124218831D01*
X100905997Y-124218530D01*
X100895001Y-124218350D01*
X100883886Y-124218290D01*
X100873211Y-124218350D01*
X100862647Y-124218532D01*
X100852195Y-124218835D01*
X100841854Y-124219259D01*
X100831625Y-124219804D01*
X100821507Y-124220471D01*
X100811501Y-124221258D01*
X100801607Y-124222167D01*
X100782154Y-124224348D01*
X100763147Y-124227014D01*
X100744586Y-124230164D01*
X100726472Y-124233799D01*
X100708804Y-124237919D01*
X100691583Y-124242523D01*
X100674809Y-124247612D01*
X100658481Y-124253186D01*
X100642599Y-124259244D01*
X100627164Y-124265787D01*
X100612176Y-124272815D01*
X100597634Y-124280327D01*
X100583644Y-124288177D01*
X100570557Y-124296276D01*
X100558373Y-124304625D01*
X100547091Y-124313224D01*
X100536711Y-124322073D01*
X100527235Y-124331172D01*
X100518660Y-124340521D01*
X100510989Y-124350120D01*
X100504220Y-124359969D01*
X100498353Y-124370068D01*
X100493389Y-124380416D01*
X100489327Y-124391015D01*
X100486168Y-124401864D01*
X100483912Y-124412963D01*
X100482558Y-124424312D01*
X100482107Y-124435910D01*
X100343391Y-124435910D01*
X100343909Y-124417706D01*
X100345507Y-124399365D01*
X100348168Y-124381375D01*
X100351895Y-124363736D01*
X100356686Y-124346449D01*
X100362542Y-124329512D01*
X100369463Y-124312926D01*
X100377449Y-124296692D01*
X100386499Y-124280808D01*
X100396614Y-124265276D01*
X100407794Y-124250095D01*
X100420039Y-124235265D01*
X100426560Y-124227981D01*
X100433348Y-124220786D01*
X100440402Y-124213678D01*
X100447722Y-124206658D01*
X100455308Y-124199725D01*
X100463161Y-124192881D01*
X100471280Y-124186124D01*
X100479665Y-124179455D01*
X100489168Y-124172167D01*
X100498871Y-124165111D01*
X100508774Y-124158285D01*
X100518877Y-124151692D01*
X100529180Y-124145329D01*
X100539682Y-124139198D01*
X100550385Y-124133298D01*
X100561287Y-124127630D01*
X100572390Y-124122193D01*
X100583692Y-124116987D01*
X100595194Y-124112013D01*
X100606896Y-124107270D01*
X100618798Y-124102758D01*
X100630900Y-124098478D01*
X100643201Y-124094429D01*
X100655703Y-124090612D01*
X100668404Y-124087026D01*
X100681305Y-124083671D01*
X100694406Y-124080548D01*
X100707707Y-124077656D01*
X100721208Y-124074995D01*
X100734909Y-124072566D01*
X100748809Y-124070368D01*
X100762910Y-124068401D01*
X100777210Y-124066666D01*
X100791711Y-124065162D01*
X100806411Y-124063889D01*
X100821311Y-124062848D01*
X100836411Y-124062039D01*
X100851710Y-124061460D01*
X100867210Y-124061113D01*
X100882909Y-124060997D01*
X100899421Y-124061113D01*
G37*
G36*
X101263684Y-125220418D02*
G01*
X101263684Y-125613405D01*
X101420000Y-125613405D01*
X101420000Y-124904612D01*
X100972058Y-125270976D01*
X100963792Y-125277655D01*
X100955663Y-125284196D01*
X100947672Y-125290600D01*
X100939818Y-125296866D01*
X100932102Y-125302995D01*
X100920784Y-125311931D01*
X100909776Y-125320558D01*
X100899077Y-125328875D01*
X100888687Y-125336884D01*
X100878607Y-125344583D01*
X100868835Y-125351974D01*
X100859372Y-125359055D01*
X100856287Y-125361346D01*
X100847222Y-125368063D01*
X100838435Y-125374475D01*
X100829928Y-125380583D01*
X100821700Y-125386385D01*
X100811163Y-125393647D01*
X100801122Y-125400368D01*
X100791578Y-125406547D01*
X100782529Y-125412183D01*
X100773977Y-125417278D01*
X100761955Y-125424218D01*
X100750161Y-125430476D01*
X100738594Y-125436051D01*
X100727254Y-125440943D01*
X100716142Y-125445152D01*
X100705258Y-125448679D01*
X100694601Y-125451524D01*
X100684172Y-125453685D01*
X100673970Y-125455164D01*
X100663996Y-125455961D01*
X100657473Y-125456113D01*
X100643718Y-125455655D01*
X100630388Y-125454284D01*
X100617483Y-125451997D01*
X100605003Y-125448797D01*
X100592948Y-125444682D01*
X100581318Y-125439652D01*
X100570113Y-125433708D01*
X100559334Y-125426849D01*
X100548979Y-125419076D01*
X100539049Y-125410389D01*
X100532665Y-125404089D01*
X100523630Y-125394163D01*
X100515483Y-125383804D01*
X100508225Y-125373012D01*
X100501856Y-125361785D01*
X100496376Y-125350125D01*
X100491784Y-125338032D01*
X100488081Y-125325504D01*
X100485267Y-125312544D01*
X100483341Y-125299149D01*
X100482304Y-125285321D01*
X100482107Y-125275861D01*
X100482293Y-125265996D01*
X100483777Y-125247065D01*
X100486746Y-125229201D01*
X100491200Y-125212404D01*
X100497138Y-125196673D01*
X100504561Y-125182009D01*
X100513468Y-125168411D01*
X100523860Y-125155881D01*
X100535736Y-125144416D01*
X100549097Y-125134019D01*
X100563942Y-125124688D01*
X100580272Y-125116424D01*
X100598087Y-125109226D01*
X100607550Y-125106028D01*
X100617386Y-125103096D01*
X100627592Y-125100430D01*
X100638169Y-125098031D01*
X100649118Y-125095899D01*
X100660437Y-125094034D01*
X100672128Y-125092435D01*
X100672128Y-124933921D01*
X100651902Y-124936573D01*
X100632318Y-124939735D01*
X100613377Y-124943408D01*
X100595077Y-124947591D01*
X100577419Y-124952285D01*
X100560404Y-124957489D01*
X100544031Y-124963203D01*
X100528299Y-124969428D01*
X100513210Y-124976163D01*
X100498763Y-124983409D01*
X100484958Y-124991165D01*
X100471795Y-124999432D01*
X100459275Y-125008209D01*
X100447396Y-125017496D01*
X100436159Y-125027294D01*
X100425565Y-125037602D01*
X100415612Y-125048421D01*
X100406302Y-125059750D01*
X100397634Y-125071590D01*
X100389608Y-125083940D01*
X100382224Y-125096800D01*
X100375482Y-125110171D01*
X100369382Y-125124052D01*
X100363924Y-125138444D01*
X100359108Y-125153346D01*
X100354935Y-125168759D01*
X100351403Y-125184682D01*
X100348514Y-125201115D01*
X100346266Y-125218059D01*
X100344661Y-125235514D01*
X100343698Y-125253478D01*
X100343377Y-125271953D01*
X100343734Y-125289846D01*
X100344804Y-125307376D01*
X100346588Y-125324544D01*
X100349086Y-125341349D01*
X100352298Y-125357791D01*
X100356223Y-125373871D01*
X100360861Y-125389589D01*
X100366214Y-125404944D01*
X100372280Y-125419936D01*
X100379059Y-125434566D01*
X100386553Y-125448833D01*
X100394760Y-125462738D01*
X100403680Y-125476280D01*
X100413314Y-125489459D01*
X100423662Y-125502276D01*
X100434724Y-125514731D01*
X100446312Y-125526680D01*
X100458240Y-125537858D01*
X100470507Y-125548265D01*
X100483114Y-125557901D01*
X100496061Y-125566766D01*
X100509348Y-125574860D01*
X100522974Y-125582184D01*
X100536939Y-125588736D01*
X100551245Y-125594518D01*
X100565890Y-125599529D01*
X100580875Y-125603769D01*
X100596199Y-125607238D01*
X100611863Y-125609936D01*
X100627867Y-125611863D01*
X100644210Y-125613019D01*
X100660893Y-125613405D01*
X100671596Y-125613225D01*
X100682272Y-125612684D01*
X100692921Y-125611782D01*
X100703544Y-125610520D01*
X100714140Y-125608897D01*
X100724709Y-125606913D01*
X100735251Y-125604569D01*
X100745767Y-125601864D01*
X100756256Y-125598799D01*
X100766719Y-125595373D01*
X100777154Y-125591586D01*
X100787563Y-125587439D01*
X100797945Y-125582931D01*
X100808301Y-125578062D01*
X100818630Y-125572833D01*
X100828932Y-125567243D01*
X100839984Y-125561099D01*
X100848593Y-125556040D01*
X100857478Y-125550594D01*
X100866637Y-125544763D01*
X100876071Y-125538545D01*
X100885779Y-125531940D01*
X100895763Y-125524949D01*
X100906021Y-125517572D01*
X100916554Y-125509808D01*
X100927362Y-125501658D01*
X100931025Y-125498855D01*
X100942251Y-125490220D01*
X100953854Y-125481169D01*
X100961800Y-125474904D01*
X100969913Y-125468453D01*
X100978195Y-125461818D01*
X100986644Y-125454997D01*
X100995261Y-125447991D01*
X101004046Y-125440801D01*
X101012999Y-125433425D01*
X101022120Y-125425864D01*
X101031409Y-125418118D01*
X101040866Y-125410186D01*
X101050491Y-125402070D01*
X101060283Y-125393769D01*
X101070244Y-125385282D01*
X101263684Y-125220418D01*
G37*
G36*
X101263684Y-126247459D02*
G01*
X101412184Y-126247459D01*
X101412184Y-126404752D01*
X101263684Y-126404752D01*
X101263684Y-126521011D01*
X101124954Y-126521011D01*
X101124954Y-126404752D01*
X100281339Y-126404752D01*
X100510056Y-126247459D01*
X100769581Y-126247459D01*
X101124954Y-126247459D01*
X101124954Y-126003949D01*
X100769581Y-126247459D01*
X100510056Y-126247459D01*
X101263684Y-125729176D01*
X101263684Y-126247459D01*
G37*
G36*
X100406147Y-127925896D02*
G01*
X100597878Y-127925896D01*
X100590755Y-127917170D01*
X100583859Y-127908425D01*
X100577189Y-127899661D01*
X100570744Y-127890878D01*
X100564526Y-127882076D01*
X100558534Y-127873254D01*
X100552768Y-127864414D01*
X100547228Y-127855554D01*
X100541915Y-127846676D01*
X100536827Y-127837778D01*
X100531965Y-127828861D01*
X100527330Y-127819925D01*
X100522921Y-127810970D01*
X100518738Y-127801996D01*
X100514781Y-127793003D01*
X100507545Y-127774960D01*
X100501214Y-127756840D01*
X100495787Y-127738644D01*
X100491265Y-127720372D01*
X100487647Y-127702023D01*
X100484933Y-127683598D01*
X100483124Y-127665096D01*
X100482220Y-127646519D01*
X100482107Y-127637201D01*
X100482221Y-127626978D01*
X100482564Y-127616857D01*
X100483135Y-127606836D01*
X100483935Y-127596916D01*
X100484963Y-127587098D01*
X100486220Y-127577381D01*
X100489419Y-127558250D01*
X100493532Y-127539523D01*
X100498559Y-127521201D01*
X100504500Y-127503284D01*
X100511355Y-127485771D01*
X100519124Y-127468662D01*
X100527807Y-127451958D01*
X100537404Y-127435659D01*
X100547915Y-127419764D01*
X100559340Y-127404274D01*
X100571679Y-127389188D01*
X100578191Y-127381797D01*
X100584932Y-127374507D01*
X100591902Y-127367318D01*
X100599099Y-127360230D01*
X100606446Y-127353257D01*
X100613894Y-127346506D01*
X100621443Y-127339977D01*
X100629092Y-127333668D01*
X100636841Y-127327581D01*
X100644692Y-127321716D01*
X100660694Y-127310648D01*
X100677100Y-127300467D01*
X100693907Y-127291170D01*
X100711118Y-127282759D01*
X100728731Y-127275233D01*
X100746747Y-127268593D01*
X100765165Y-127262838D01*
X100783986Y-127257968D01*
X100793548Y-127255866D01*
X100803210Y-127253984D01*
X100812973Y-127252324D01*
X100822836Y-127250885D01*
X100832800Y-127249668D01*
X100842865Y-127248672D01*
X100853031Y-127247897D01*
X100863297Y-127247344D01*
X100873663Y-127247012D01*
X100884131Y-127246901D01*
X100894476Y-127247012D01*
X100904720Y-127247344D01*
X100914862Y-127247897D01*
X100924904Y-127248672D01*
X100934844Y-127249668D01*
X100944684Y-127250885D01*
X100954422Y-127252324D01*
X100964059Y-127253984D01*
X100983030Y-127257968D01*
X101001596Y-127262838D01*
X101019758Y-127268593D01*
X101037515Y-127275233D01*
X101054868Y-127282759D01*
X101071816Y-127291170D01*
X101088360Y-127300467D01*
X101104499Y-127310648D01*
X101120233Y-127321716D01*
X101135563Y-127333668D01*
X101143077Y-127339977D01*
X101150489Y-127346506D01*
X101157800Y-127353257D01*
X101165010Y-127360230D01*
X101172042Y-127367363D01*
X101178852Y-127374595D01*
X101185438Y-127381928D01*
X101191800Y-127389360D01*
X101203856Y-127404523D01*
X101215019Y-127420085D01*
X101225288Y-127436045D01*
X101234665Y-127452405D01*
X101243149Y-127469163D01*
X101250739Y-127486320D01*
X101257437Y-127503876D01*
X101263241Y-127521831D01*
X101268153Y-127540184D01*
X101272172Y-127558937D01*
X101275297Y-127578088D01*
X101276525Y-127587813D01*
X101277530Y-127597638D01*
X101278311Y-127607562D01*
X101278869Y-127617586D01*
X101279204Y-127627710D01*
X101279316Y-127637934D01*
X101279208Y-127648430D01*
X101278884Y-127658729D01*
X101278345Y-127668832D01*
X101277591Y-127678738D01*
X101276054Y-127693228D01*
X101274033Y-127707277D01*
X101271526Y-127720883D01*
X101268535Y-127734047D01*
X101265058Y-127746769D01*
X101261096Y-127759049D01*
X101256649Y-127770886D01*
X101251716Y-127782281D01*
X101247209Y-127792651D01*
X101242237Y-127803152D01*
X101236800Y-127813784D01*
X101232116Y-127822384D01*
X101227134Y-127831068D01*
X101221854Y-127839836D01*
X101216276Y-127848688D01*
X101214836Y-127850914D01*
X101208882Y-127859886D01*
X101202623Y-127868972D01*
X101196059Y-127878173D01*
X101189190Y-127887489D01*
X101182015Y-127896919D01*
X101174535Y-127906464D01*
X101166750Y-127916123D01*
X101158660Y-127925896D01*
X101354542Y-127925896D01*
X101359531Y-127917304D01*
X101364362Y-127908685D01*
X101369034Y-127900039D01*
X101373548Y-127891366D01*
X101382100Y-127873941D01*
X101390019Y-127856409D01*
X101397304Y-127838770D01*
X101403956Y-127821024D01*
X101409974Y-127803172D01*
X101415359Y-127785212D01*
X101420110Y-127767146D01*
X101424228Y-127748973D01*
X101427712Y-127730693D01*
X101430563Y-127712306D01*
X101432780Y-127693812D01*
X101434364Y-127675211D01*
X101435314Y-127656504D01*
X101435631Y-127637690D01*
X101435475Y-127623543D01*
X101435006Y-127609526D01*
X101434225Y-127595640D01*
X101433131Y-127581884D01*
X101431725Y-127568258D01*
X101430007Y-127554763D01*
X101427976Y-127541397D01*
X101425632Y-127528162D01*
X101422976Y-127515057D01*
X101420008Y-127502082D01*
X101416727Y-127489238D01*
X101413134Y-127476524D01*
X101409228Y-127463940D01*
X101405010Y-127451486D01*
X101400479Y-127439162D01*
X101395636Y-127426969D01*
X101390481Y-127414906D01*
X101385013Y-127402973D01*
X101379232Y-127391171D01*
X101373139Y-127379498D01*
X101366734Y-127367956D01*
X101360016Y-127356544D01*
X101352986Y-127345263D01*
X101345643Y-127334111D01*
X101337988Y-127323090D01*
X101330020Y-127312199D01*
X101321740Y-127301438D01*
X101313147Y-127290808D01*
X101304242Y-127280307D01*
X101295024Y-127269937D01*
X101285494Y-127259697D01*
X101275652Y-127249588D01*
X101265497Y-127239745D01*
X101255211Y-127230215D01*
X101244795Y-127220998D01*
X101234249Y-127212093D01*
X101223573Y-127203500D01*
X101212766Y-127195220D01*
X101201829Y-127187252D01*
X101190762Y-127179597D01*
X101179565Y-127172254D01*
X101168238Y-127165224D01*
X101156780Y-127158506D01*
X101145192Y-127152101D01*
X101133474Y-127146008D01*
X101121625Y-127140227D01*
X101109647Y-127134759D01*
X101097538Y-127129603D01*
X101085299Y-127124760D01*
X101072929Y-127120230D01*
X101060430Y-127116012D01*
X101047800Y-127112106D01*
X101035040Y-127108512D01*
X101022150Y-127105232D01*
X101009129Y-127102263D01*
X100995979Y-127099607D01*
X100982698Y-127097264D01*
X100969287Y-127095233D01*
X100955745Y-127093514D01*
X100942073Y-127092108D01*
X100928272Y-127091015D01*
X100914340Y-127090234D01*
X100900277Y-127089765D01*
X100886085Y-127089609D01*
X100873351Y-127089739D01*
X100860705Y-127090132D01*
X100848147Y-127090785D01*
X100835675Y-127091700D01*
X100823291Y-127092876D01*
X100810994Y-127094314D01*
X100798785Y-127096013D01*
X100786663Y-127097974D01*
X100774628Y-127100196D01*
X100762680Y-127102680D01*
X100750820Y-127105424D01*
X100739047Y-127108431D01*
X100727361Y-127111698D01*
X100715762Y-127115227D01*
X100704251Y-127119018D01*
X100692827Y-127123070D01*
X100681491Y-127127383D01*
X100670242Y-127131958D01*
X100659080Y-127136794D01*
X100648005Y-127141892D01*
X100637018Y-127147251D01*
X100626118Y-127152871D01*
X100615305Y-127158753D01*
X100604579Y-127164897D01*
X100593941Y-127171301D01*
X100583390Y-127177967D01*
X100572927Y-127184895D01*
X100562551Y-127192084D01*
X100552262Y-127199534D01*
X100542060Y-127207246D01*
X100531946Y-127215219D01*
X100521919Y-127223454D01*
X100509852Y-127233852D01*
X100498169Y-127244440D01*
X100486869Y-127255216D01*
X100475951Y-127266181D01*
X100465417Y-127277335D01*
X100455266Y-127288678D01*
X100445498Y-127300210D01*
X100436113Y-127311931D01*
X100427111Y-127323840D01*
X100418492Y-127335939D01*
X100410256Y-127348227D01*
X100402404Y-127360703D01*
X100394934Y-127373368D01*
X100387847Y-127386223D01*
X100381144Y-127399266D01*
X100374823Y-127412498D01*
X100368886Y-127425919D01*
X100363331Y-127439529D01*
X100358160Y-127453327D01*
X100353372Y-127467315D01*
X100348967Y-127481492D01*
X100344945Y-127495857D01*
X100341305Y-127510411D01*
X100338049Y-127525155D01*
X100335177Y-127540087D01*
X100332687Y-127555208D01*
X100330580Y-127570518D01*
X100328856Y-127586017D01*
X100327515Y-127601705D01*
X100326558Y-127617582D01*
X100325983Y-127633647D01*
X100325792Y-127649902D01*
X100326105Y-127667724D01*
X100327047Y-127685470D01*
X100328617Y-127703139D01*
X100330814Y-127720732D01*
X100333639Y-127738249D01*
X100337092Y-127755689D01*
X100341172Y-127773054D01*
X100345881Y-127790341D01*
X100351217Y-127807553D01*
X100357181Y-127824688D01*
X100363772Y-127841747D01*
X100370992Y-127858729D01*
X100378839Y-127875636D01*
X100387314Y-127892465D01*
X100396417Y-127909219D01*
X100406147Y-127925896D01*
G37*
G36*
X101097732Y-128055249D02*
G01*
X101116264Y-128056425D01*
X101134391Y-128058386D01*
X101152111Y-128061130D01*
X101169424Y-128064660D01*
X101186332Y-128068973D01*
X101202832Y-128074071D01*
X101218927Y-128079952D01*
X101234614Y-128086619D01*
X101249896Y-128094069D01*
X101264771Y-128102303D01*
X101279239Y-128111322D01*
X101293301Y-128121125D01*
X101306957Y-128131713D01*
X101320206Y-128143084D01*
X101333049Y-128155240D01*
X101345471Y-128167947D01*
X101357092Y-128181031D01*
X101367911Y-128194493D01*
X101377929Y-128208333D01*
X101387145Y-128222550D01*
X101395560Y-128237146D01*
X101403173Y-128252119D01*
X101409986Y-128267470D01*
X101415996Y-128283199D01*
X101421205Y-128299305D01*
X101425613Y-128315790D01*
X101429220Y-128332652D01*
X101432025Y-128349892D01*
X101434028Y-128367510D01*
X101435230Y-128385506D01*
X101435631Y-128403879D01*
X101435238Y-128422441D01*
X101434059Y-128440634D01*
X101432093Y-128458459D01*
X101429342Y-128475916D01*
X101425804Y-128493004D01*
X101421480Y-128509724D01*
X101416370Y-128526076D01*
X101410474Y-128542060D01*
X101403792Y-128557675D01*
X101396323Y-128572922D01*
X101388069Y-128587801D01*
X101379028Y-128602312D01*
X101369201Y-128616454D01*
X101358588Y-128630228D01*
X101347188Y-128643633D01*
X101335003Y-128656671D01*
X101322175Y-128669093D01*
X101308968Y-128680713D01*
X101295384Y-128691533D01*
X101281422Y-128701550D01*
X101267082Y-128710767D01*
X101252365Y-128719182D01*
X101237270Y-128726795D01*
X101221796Y-128733607D01*
X101205945Y-128739618D01*
X101189717Y-128744827D01*
X101173110Y-128749235D01*
X101156126Y-128752841D01*
X101138763Y-128755646D01*
X101121023Y-128757650D01*
X101102905Y-128758852D01*
X101084410Y-128759253D01*
X101066058Y-128758855D01*
X101048067Y-128757661D01*
X101030437Y-128755672D01*
X101013167Y-128752887D01*
X100996258Y-128749307D01*
X100979710Y-128744930D01*
X100963522Y-128739758D01*
X100947695Y-128733790D01*
X100932228Y-128727027D01*
X100917123Y-128719468D01*
X100902377Y-128711113D01*
X100887993Y-128701963D01*
X100873969Y-128692016D01*
X100860306Y-128681274D01*
X100847003Y-128669737D01*
X100834061Y-128657404D01*
X100821728Y-128644345D01*
X100810190Y-128630938D01*
X100799448Y-128617181D01*
X100789502Y-128603075D01*
X100780351Y-128588620D01*
X100771997Y-128573815D01*
X100764437Y-128558662D01*
X100757674Y-128543159D01*
X100751706Y-128527307D01*
X100746534Y-128511106D01*
X100742158Y-128494556D01*
X100738577Y-128477656D01*
X100735792Y-128460407D01*
X100733803Y-128442809D01*
X100732609Y-128424862D01*
X100732217Y-128406810D01*
X100870942Y-128406810D01*
X100871171Y-128417697D01*
X100871857Y-128428315D01*
X100873002Y-128438664D01*
X100874605Y-128448744D01*
X100876666Y-128458555D01*
X100879185Y-128468096D01*
X100883822Y-128481904D01*
X100889489Y-128495107D01*
X100896186Y-128507704D01*
X100903914Y-128519696D01*
X100912673Y-128531083D01*
X100922462Y-128541864D01*
X100929560Y-128548715D01*
X100936948Y-128555163D01*
X100944642Y-128561195D01*
X100952641Y-128566810D01*
X100960945Y-128572010D01*
X100969555Y-128576794D01*
X100978469Y-128581162D01*
X100987690Y-128585113D01*
X100997215Y-128588649D01*
X101007046Y-128591769D01*
X101017182Y-128594473D01*
X101027623Y-128596761D01*
X101038370Y-128598633D01*
X101049422Y-128600089D01*
X101060779Y-128601128D01*
X101072442Y-128601752D01*
X101084410Y-128601960D01*
X101090417Y-128601908D01*
X101102204Y-128601492D01*
X101113687Y-128600660D01*
X101124867Y-128599413D01*
X101135743Y-128597749D01*
X101146316Y-128595669D01*
X101156586Y-128593173D01*
X101166552Y-128590261D01*
X101176215Y-128586933D01*
X101185574Y-128583189D01*
X101194630Y-128579030D01*
X101203383Y-128574454D01*
X101211832Y-128569462D01*
X101223937Y-128561195D01*
X101231628Y-128555163D01*
X101239016Y-128548715D01*
X101246025Y-128541950D01*
X101255692Y-128531276D01*
X101264340Y-128519971D01*
X101271972Y-128508035D01*
X101278586Y-128495468D01*
X101284182Y-128482269D01*
X101288761Y-128468440D01*
X101291248Y-128458869D01*
X101293283Y-128449019D01*
X101294866Y-128438887D01*
X101295997Y-128428475D01*
X101296675Y-128417783D01*
X101296901Y-128406810D01*
X101296672Y-128395923D01*
X101295985Y-128385306D01*
X101294840Y-128374957D01*
X101293237Y-128364877D01*
X101291177Y-128355066D01*
X101288658Y-128345525D01*
X101284021Y-128331716D01*
X101278354Y-128318514D01*
X101271656Y-128305916D01*
X101263928Y-128293924D01*
X101255170Y-128282538D01*
X101245381Y-128271756D01*
X101238283Y-128264905D01*
X101234624Y-128261660D01*
X101223163Y-128252540D01*
X101215116Y-128246976D01*
X101206745Y-128241824D01*
X101198050Y-128237085D01*
X101189030Y-128232757D01*
X101179686Y-128228841D01*
X101170017Y-128225338D01*
X101160024Y-128222247D01*
X101149707Y-128219568D01*
X101139065Y-128217301D01*
X101128099Y-128215446D01*
X101116808Y-128214004D01*
X101105193Y-128212973D01*
X101093254Y-128212355D01*
X101080990Y-128212149D01*
X101069522Y-128212359D01*
X101058322Y-128212988D01*
X101047388Y-128214038D01*
X101036721Y-128215507D01*
X101026322Y-128217396D01*
X101016190Y-128219705D01*
X101006325Y-128222434D01*
X100996727Y-128225582D01*
X100987396Y-128229150D01*
X100978332Y-128233138D01*
X100969536Y-128237546D01*
X100961006Y-128242374D01*
X100952744Y-128247621D01*
X100944749Y-128253288D01*
X100937021Y-128259375D01*
X100929560Y-128265882D01*
X100922462Y-128272758D01*
X100912673Y-128283555D01*
X100903914Y-128294932D01*
X100896186Y-128306888D01*
X100889489Y-128319424D01*
X100883822Y-128332539D01*
X100879185Y-128346234D01*
X100876666Y-128355686D01*
X100874605Y-128365396D01*
X100873002Y-128375363D01*
X100871857Y-128385588D01*
X100871171Y-128396070D01*
X100870942Y-128406810D01*
X100732217Y-128406810D01*
X100732212Y-128406566D01*
X100732608Y-128388361D01*
X100733795Y-128370506D01*
X100735775Y-128353000D01*
X100738547Y-128335843D01*
X100742110Y-128319035D01*
X100746466Y-128302576D01*
X100751613Y-128286466D01*
X100757552Y-128270706D01*
X100764283Y-128255295D01*
X100771806Y-128240233D01*
X100780120Y-128225520D01*
X100789227Y-128211157D01*
X100799126Y-128197142D01*
X100809816Y-128183477D01*
X100821298Y-128170161D01*
X100833572Y-128157194D01*
X100846380Y-128144802D01*
X100859523Y-128133209D01*
X100873002Y-128122415D01*
X100886817Y-128112421D01*
X100900968Y-128103227D01*
X100915455Y-128094832D01*
X100930277Y-128087237D01*
X100945436Y-128080441D01*
X100960930Y-128074445D01*
X100976760Y-128069248D01*
X100992926Y-128064850D01*
X101009427Y-128061253D01*
X101026265Y-128058454D01*
X101043438Y-128056455D01*
X101060947Y-128055256D01*
X101078792Y-128054856D01*
X101097732Y-128055249D01*
G37*
G36*
X100263265Y-129084584D02*
G01*
X101420000Y-129084584D01*
X101420000Y-128927292D01*
X100263265Y-128927292D01*
X100263265Y-129084584D01*
G37*
G36*
X100747843Y-129432386D02*
G01*
X101420000Y-129432386D01*
X101420000Y-129275094D01*
X100747843Y-129275094D01*
X100747843Y-129432386D01*
G37*
G36*
X100473314Y-129259462D02*
G01*
X100463232Y-129259928D01*
X100453500Y-129261325D01*
X100441829Y-129264380D01*
X100430707Y-129268890D01*
X100420134Y-129274856D01*
X100412070Y-129280676D01*
X100404357Y-129287427D01*
X100402484Y-129289260D01*
X100395500Y-129296950D01*
X100389447Y-129304998D01*
X100384326Y-129313405D01*
X100379234Y-129324419D01*
X100375596Y-129335993D01*
X100373734Y-129345656D01*
X100372803Y-129355678D01*
X100372686Y-129360823D01*
X100373152Y-129371192D01*
X100374549Y-129381171D01*
X100376876Y-129390762D01*
X100381096Y-129402202D01*
X100385519Y-129410917D01*
X100390873Y-129419242D01*
X100397159Y-129427178D01*
X100402484Y-129432875D01*
X100409960Y-129439858D01*
X100417856Y-129445911D01*
X100428316Y-129452167D01*
X100439432Y-129456969D01*
X100448797Y-129459762D01*
X100458582Y-129461625D01*
X100468787Y-129462556D01*
X100474047Y-129462672D01*
X100484469Y-129462207D01*
X100494487Y-129460810D01*
X100504100Y-129458482D01*
X100515548Y-129454263D01*
X100526364Y-129448588D01*
X100534561Y-129443001D01*
X100542354Y-129436483D01*
X100546099Y-129432875D01*
X100553082Y-129425402D01*
X100559135Y-129417518D01*
X100565391Y-129407083D01*
X100570193Y-129396003D01*
X100573539Y-129384280D01*
X100575169Y-129374438D01*
X100575867Y-129364184D01*
X100575896Y-129361556D01*
X100575434Y-129351183D01*
X100574049Y-129341192D01*
X100571740Y-129331582D01*
X100568508Y-129322355D01*
X100564352Y-129313509D01*
X100559272Y-129305044D01*
X100553269Y-129296961D01*
X100546343Y-129289260D01*
X100538684Y-129282276D01*
X100530604Y-129276223D01*
X100522106Y-129271102D01*
X100513187Y-129266912D01*
X100503848Y-129263652D01*
X100494090Y-129261325D01*
X100483912Y-129259928D01*
X100473314Y-129259462D01*
G37*
G36*
X100747843Y-129622896D02*
G01*
X100747843Y-129780188D01*
X100811102Y-129780188D01*
X100801549Y-129790403D01*
X100792612Y-129800777D01*
X100784292Y-129811309D01*
X100776588Y-129821999D01*
X100769500Y-129832848D01*
X100763028Y-129843855D01*
X100757173Y-129855021D01*
X100751934Y-129866345D01*
X100747312Y-129877827D01*
X100743306Y-129889468D01*
X100739916Y-129901267D01*
X100737142Y-129913224D01*
X100734985Y-129925340D01*
X100733444Y-129937614D01*
X100732520Y-129950046D01*
X100732212Y-129962637D01*
X100732499Y-129977059D01*
X100733360Y-129991076D01*
X100734796Y-130004689D01*
X100736806Y-130017897D01*
X100739391Y-130030701D01*
X100742550Y-130043100D01*
X100746283Y-130055095D01*
X100750591Y-130066685D01*
X100755473Y-130077870D01*
X100760929Y-130088651D01*
X100766960Y-130099028D01*
X100773565Y-130109000D01*
X100780744Y-130118567D01*
X100788498Y-130127730D01*
X100796826Y-130136489D01*
X100805729Y-130144842D01*
X100813854Y-130151675D01*
X100822597Y-130158066D01*
X100831958Y-130164017D01*
X100841938Y-130169526D01*
X100852536Y-130174595D01*
X100863752Y-130179223D01*
X100875586Y-130183411D01*
X100888039Y-130187158D01*
X100901109Y-130190463D01*
X100914798Y-130193329D01*
X100929106Y-130195753D01*
X100944031Y-130197736D01*
X100959575Y-130199279D01*
X100975737Y-130200381D01*
X100992517Y-130201042D01*
X101009916Y-130201263D01*
X101420000Y-130201263D01*
X101420000Y-130043970D01*
X101046064Y-130043970D01*
X101033937Y-130043863D01*
X101022288Y-130043543D01*
X101011116Y-130043008D01*
X101000421Y-130042260D01*
X100990203Y-130041299D01*
X100980462Y-130040123D01*
X100966744Y-130037960D01*
X100954101Y-130035315D01*
X100942530Y-130032189D01*
X100932033Y-130028583D01*
X100922609Y-130024496D01*
X100911713Y-130018298D01*
X100909288Y-130016615D01*
X100900300Y-130009334D01*
X100892511Y-130000678D01*
X100885921Y-129990649D01*
X100880528Y-129979246D01*
X100877270Y-129969792D01*
X100874686Y-129959565D01*
X100872777Y-129948566D01*
X100871541Y-129936793D01*
X100870979Y-129924248D01*
X100870942Y-129919895D01*
X100871388Y-129905954D01*
X100872728Y-129892798D01*
X100874960Y-129880428D01*
X100878086Y-129868844D01*
X100882104Y-129858046D01*
X100887016Y-129848033D01*
X100892820Y-129838806D01*
X100899518Y-129830365D01*
X100907109Y-129822709D01*
X100915592Y-129815839D01*
X100921744Y-129811695D01*
X100931791Y-129806065D01*
X100943156Y-129800988D01*
X100955840Y-129796465D01*
X100969841Y-129792495D01*
X100979907Y-129790157D01*
X100990560Y-129788065D01*
X101001798Y-129786219D01*
X101013621Y-129784619D01*
X101026031Y-129783265D01*
X101039026Y-129782157D01*
X101052608Y-129781296D01*
X101066775Y-129780680D01*
X101081528Y-129780311D01*
X101096866Y-129780188D01*
X101420000Y-129780188D01*
X101420000Y-129622896D01*
X100747843Y-129622896D01*
G37*
G36*
X100406147Y-131642295D02*
G01*
X100597878Y-131642295D01*
X100590755Y-131633569D01*
X100583859Y-131624824D01*
X100577189Y-131616060D01*
X100570744Y-131607277D01*
X100564526Y-131598475D01*
X100558534Y-131589653D01*
X100552768Y-131580813D01*
X100547228Y-131571953D01*
X100541915Y-131563075D01*
X100536827Y-131554177D01*
X100531965Y-131545260D01*
X100527330Y-131536325D01*
X100522921Y-131527370D01*
X100518738Y-131518396D01*
X100514781Y-131509402D01*
X100507545Y-131491359D01*
X100501214Y-131473239D01*
X100495787Y-131455043D01*
X100491265Y-131436771D01*
X100487647Y-131418422D01*
X100484933Y-131399997D01*
X100483124Y-131381496D01*
X100482220Y-131362918D01*
X100482107Y-131353600D01*
X100482221Y-131343377D01*
X100482564Y-131333256D01*
X100483135Y-131323235D01*
X100483935Y-131313316D01*
X100484963Y-131303497D01*
X100486220Y-131293780D01*
X100489419Y-131274649D01*
X100493532Y-131255922D01*
X100498559Y-131237600D01*
X100504500Y-131219683D01*
X100511355Y-131202170D01*
X100519124Y-131185061D01*
X100527807Y-131168357D01*
X100537404Y-131152058D01*
X100547915Y-131136163D01*
X100559340Y-131120673D01*
X100571679Y-131105587D01*
X100578191Y-131098196D01*
X100584932Y-131090906D01*
X100591902Y-131083717D01*
X100599099Y-131076629D01*
X100606446Y-131069657D01*
X100613894Y-131062906D01*
X100621443Y-131056376D01*
X100629092Y-131050068D01*
X100636841Y-131043981D01*
X100644692Y-131038115D01*
X100660694Y-131027048D01*
X100677100Y-131016866D01*
X100693907Y-131007569D01*
X100711118Y-130999158D01*
X100728731Y-130991632D01*
X100746747Y-130984992D01*
X100765165Y-130979237D01*
X100783986Y-130974368D01*
X100793548Y-130972265D01*
X100803210Y-130970383D01*
X100812973Y-130968723D01*
X100822836Y-130967284D01*
X100832800Y-130966067D01*
X100842865Y-130965071D01*
X100853031Y-130964296D01*
X100863297Y-130963743D01*
X100873663Y-130963411D01*
X100884131Y-130963300D01*
X100894476Y-130963411D01*
X100904720Y-130963743D01*
X100914862Y-130964296D01*
X100924904Y-130965071D01*
X100934844Y-130966067D01*
X100944684Y-130967284D01*
X100954422Y-130968723D01*
X100964059Y-130970383D01*
X100983030Y-130974368D01*
X101001596Y-130979237D01*
X101019758Y-130984992D01*
X101037515Y-130991632D01*
X101054868Y-130999158D01*
X101071816Y-131007569D01*
X101088360Y-131016866D01*
X101104499Y-131027048D01*
X101120233Y-131038115D01*
X101135563Y-131050068D01*
X101143077Y-131056376D01*
X101150489Y-131062906D01*
X101157800Y-131069657D01*
X101165010Y-131076629D01*
X101172042Y-131083762D01*
X101178852Y-131090994D01*
X101185438Y-131098327D01*
X101191800Y-131105759D01*
X101203856Y-131120922D01*
X101215019Y-131136484D01*
X101225288Y-131152444D01*
X101234665Y-131168804D01*
X101243149Y-131185562D01*
X101250739Y-131202719D01*
X101257437Y-131220275D01*
X101263241Y-131238230D01*
X101268153Y-131256583D01*
X101272172Y-131275336D01*
X101275297Y-131294487D01*
X101276525Y-131304212D01*
X101277530Y-131314037D01*
X101278311Y-131323961D01*
X101278869Y-131333986D01*
X101279204Y-131344109D01*
X101279316Y-131354333D01*
X101279208Y-131364829D01*
X101278884Y-131375128D01*
X101278345Y-131385231D01*
X101277591Y-131395137D01*
X101276054Y-131409628D01*
X101274033Y-131423676D01*
X101271526Y-131437282D01*
X101268535Y-131450446D01*
X101265058Y-131463168D01*
X101261096Y-131475448D01*
X101256649Y-131487285D01*
X101251716Y-131498681D01*
X101247209Y-131509050D01*
X101242237Y-131519551D01*
X101236800Y-131530183D01*
X101232116Y-131538783D01*
X101227134Y-131547467D01*
X101221854Y-131556235D01*
X101216276Y-131565087D01*
X101214836Y-131567313D01*
X101208882Y-131576285D01*
X101202623Y-131585372D01*
X101196059Y-131594573D01*
X101189190Y-131603888D01*
X101182015Y-131613318D01*
X101174535Y-131622863D01*
X101166750Y-131632522D01*
X101158660Y-131642295D01*
X101354542Y-131642295D01*
X101359531Y-131633703D01*
X101364362Y-131625084D01*
X101369034Y-131616438D01*
X101373548Y-131607766D01*
X101382100Y-131590340D01*
X101390019Y-131572808D01*
X101397304Y-131555169D01*
X101403956Y-131537424D01*
X101409974Y-131519571D01*
X101415359Y-131501612D01*
X101420110Y-131483545D01*
X101424228Y-131465372D01*
X101427712Y-131447092D01*
X101430563Y-131428705D01*
X101432780Y-131410211D01*
X101434364Y-131391611D01*
X101435314Y-131372903D01*
X101435631Y-131354089D01*
X101435475Y-131339942D01*
X101435006Y-131325926D01*
X101434225Y-131312039D01*
X101433131Y-131298283D01*
X101431725Y-131284657D01*
X101430007Y-131271162D01*
X101427976Y-131257796D01*
X101425632Y-131244561D01*
X101422976Y-131231456D01*
X101420008Y-131218482D01*
X101416727Y-131205637D01*
X101413134Y-131192923D01*
X101409228Y-131180339D01*
X101405010Y-131167885D01*
X101400479Y-131155562D01*
X101395636Y-131143368D01*
X101390481Y-131131305D01*
X101385013Y-131119372D01*
X101379232Y-131107570D01*
X101373139Y-131095897D01*
X101366734Y-131084355D01*
X101360016Y-131072943D01*
X101352986Y-131061662D01*
X101345643Y-131050510D01*
X101337988Y-131039489D01*
X101330020Y-131028598D01*
X101321740Y-131017837D01*
X101313147Y-131007207D01*
X101304242Y-130996706D01*
X101295024Y-130986336D01*
X101285494Y-130976097D01*
X101275652Y-130965987D01*
X101265497Y-130956144D01*
X101255211Y-130946614D01*
X101244795Y-130937397D01*
X101234249Y-130928492D01*
X101223573Y-130919899D01*
X101212766Y-130911619D01*
X101201829Y-130903651D01*
X101190762Y-130895996D01*
X101179565Y-130888653D01*
X101168238Y-130881623D01*
X101156780Y-130874905D01*
X101145192Y-130868500D01*
X101133474Y-130862407D01*
X101121625Y-130856626D01*
X101109647Y-130851158D01*
X101097538Y-130846003D01*
X101085299Y-130841160D01*
X101072929Y-130836629D01*
X101060430Y-130832411D01*
X101047800Y-130828505D01*
X101035040Y-130824912D01*
X101022150Y-130821631D01*
X101009129Y-130818662D01*
X100995979Y-130816007D01*
X100982698Y-130813663D01*
X100969287Y-130811632D01*
X100955745Y-130809914D01*
X100942073Y-130808508D01*
X100928272Y-130807414D01*
X100914340Y-130806633D01*
X100900277Y-130806164D01*
X100886085Y-130806008D01*
X100873351Y-130806139D01*
X100860705Y-130806531D01*
X100848147Y-130807184D01*
X100835675Y-130808099D01*
X100823291Y-130809276D01*
X100810994Y-130810713D01*
X100798785Y-130812413D01*
X100786663Y-130814373D01*
X100774628Y-130816595D01*
X100762680Y-130819079D01*
X100750820Y-130821824D01*
X100739047Y-130824830D01*
X100727361Y-130828098D01*
X100715762Y-130831627D01*
X100704251Y-130835417D01*
X100692827Y-130839469D01*
X100681491Y-130843783D01*
X100670242Y-130848357D01*
X100659080Y-130853193D01*
X100648005Y-130858291D01*
X100637018Y-130863650D01*
X100626118Y-130869271D01*
X100615305Y-130875152D01*
X100604579Y-130881296D01*
X100593941Y-130887700D01*
X100583390Y-130894367D01*
X100572927Y-130901294D01*
X100562551Y-130908483D01*
X100552262Y-130915933D01*
X100542060Y-130923645D01*
X100531946Y-130931618D01*
X100521919Y-130939853D01*
X100509852Y-130950251D01*
X100498169Y-130960839D01*
X100486869Y-130971615D01*
X100475951Y-130982580D01*
X100465417Y-130993734D01*
X100455266Y-131005077D01*
X100445498Y-131016609D01*
X100436113Y-131028330D01*
X100427111Y-131040240D01*
X100418492Y-131052338D01*
X100410256Y-131064626D01*
X100402404Y-131077102D01*
X100394934Y-131089767D01*
X100387847Y-131102622D01*
X100381144Y-131115665D01*
X100374823Y-131128897D01*
X100368886Y-131142318D01*
X100363331Y-131155928D01*
X100358160Y-131169726D01*
X100353372Y-131183714D01*
X100348967Y-131197891D01*
X100344945Y-131212256D01*
X100341305Y-131226811D01*
X100338049Y-131241554D01*
X100335177Y-131256486D01*
X100332687Y-131271607D01*
X100330580Y-131286917D01*
X100328856Y-131302416D01*
X100327515Y-131318104D01*
X100326558Y-131333981D01*
X100325983Y-131350046D01*
X100325792Y-131366301D01*
X100326105Y-131384123D01*
X100327047Y-131401869D01*
X100328617Y-131419538D01*
X100330814Y-131437131D01*
X100333639Y-131454648D01*
X100337092Y-131472089D01*
X100341172Y-131489453D01*
X100345881Y-131506741D01*
X100351217Y-131523952D01*
X100357181Y-131541087D01*
X100363772Y-131558146D01*
X100370992Y-131575129D01*
X100378839Y-131592035D01*
X100387314Y-131608865D01*
X100396417Y-131625618D01*
X100406147Y-131642295D01*
G37*
G36*
X100263265Y-131959811D02*
G01*
X101420000Y-131959811D01*
X101420000Y-131802519D01*
X100263265Y-131802519D01*
X100263265Y-131959811D01*
G37*
G36*
X101100547Y-132119407D02*
G01*
X101118978Y-132120454D01*
X101137016Y-132122200D01*
X101154660Y-132124644D01*
X101171912Y-132127787D01*
X101188770Y-132131628D01*
X101205236Y-132136168D01*
X101221308Y-132141406D01*
X101236987Y-132147342D01*
X101252273Y-132153977D01*
X101267166Y-132161310D01*
X101281666Y-132169341D01*
X101295773Y-132178071D01*
X101309487Y-132187499D01*
X101322808Y-132197625D01*
X101335736Y-132208450D01*
X101347832Y-132219932D01*
X101359149Y-132231783D01*
X101369685Y-132244005D01*
X101379440Y-132256597D01*
X101388415Y-132269559D01*
X101396609Y-132282891D01*
X101404024Y-132296593D01*
X101410657Y-132310666D01*
X101416510Y-132325109D01*
X101421583Y-132339922D01*
X101425876Y-132355105D01*
X101429388Y-132370658D01*
X101432119Y-132386582D01*
X101434070Y-132402875D01*
X101435241Y-132419539D01*
X101435631Y-132436573D01*
X101435287Y-132450194D01*
X101434253Y-132463703D01*
X101432531Y-132477099D01*
X101430120Y-132490383D01*
X101427021Y-132503554D01*
X101423232Y-132516612D01*
X101418754Y-132529558D01*
X101413588Y-132542391D01*
X101407733Y-132555112D01*
X101401189Y-132567720D01*
X101393956Y-132580216D01*
X101386034Y-132592599D01*
X101377424Y-132604869D01*
X101368125Y-132617027D01*
X101358136Y-132629072D01*
X101347459Y-132641004D01*
X101420000Y-132641004D01*
X101420000Y-132791214D01*
X100747843Y-132791214D01*
X100747843Y-132641004D01*
X100826978Y-132641004D01*
X100815502Y-132629370D01*
X100804767Y-132617549D01*
X100794772Y-132605541D01*
X100785518Y-132593346D01*
X100777003Y-132580965D01*
X100769230Y-132568396D01*
X100762196Y-132555640D01*
X100755903Y-132542697D01*
X100750350Y-132529567D01*
X100745538Y-132516250D01*
X100741466Y-132502746D01*
X100738135Y-132489055D01*
X100735543Y-132475177D01*
X100733741Y-132461486D01*
X100870942Y-132461486D01*
X100871173Y-132471865D01*
X100871869Y-132481998D01*
X100873028Y-132491886D01*
X100875636Y-132506255D01*
X100879288Y-132520070D01*
X100883983Y-132533331D01*
X100889721Y-132546039D01*
X100896502Y-132558192D01*
X100904327Y-132569792D01*
X100913194Y-132580838D01*
X100923106Y-132591331D01*
X100930293Y-132598018D01*
X100937993Y-132604377D01*
X100945951Y-132610325D01*
X100954166Y-132615864D01*
X100962640Y-132620992D01*
X100971370Y-132625710D01*
X100980359Y-132630017D01*
X100989604Y-132633915D01*
X100999108Y-132637402D01*
X101008869Y-132640479D01*
X101018888Y-132643145D01*
X101029164Y-132645402D01*
X101039698Y-132647248D01*
X101050490Y-132648684D01*
X101061539Y-132649709D01*
X101072846Y-132650325D01*
X101084410Y-132650530D01*
X101095945Y-132650325D01*
X101107224Y-132649709D01*
X101118247Y-132648684D01*
X101129015Y-132647248D01*
X101139527Y-132645402D01*
X101149783Y-132643145D01*
X101159784Y-132640479D01*
X101169528Y-132637402D01*
X101179018Y-132633915D01*
X101188251Y-132630017D01*
X101197229Y-132625710D01*
X101205951Y-132620992D01*
X101214418Y-132615864D01*
X101222628Y-132610325D01*
X101230583Y-132604377D01*
X101238283Y-132598018D01*
X101248759Y-132587882D01*
X101258204Y-132577166D01*
X101266619Y-132565871D01*
X101274003Y-132553997D01*
X101280357Y-132541542D01*
X101285681Y-132528509D01*
X101289975Y-132514895D01*
X101293237Y-132500702D01*
X101294840Y-132490918D01*
X101295985Y-132480876D01*
X101296672Y-132470577D01*
X101296901Y-132460020D01*
X101296842Y-132455055D01*
X101296369Y-132445286D01*
X101294772Y-132431032D01*
X101292110Y-132417259D01*
X101288383Y-132403967D01*
X101283592Y-132391155D01*
X101277736Y-132378825D01*
X101270815Y-132366975D01*
X101262829Y-132355607D01*
X101253779Y-132344719D01*
X101243664Y-132334312D01*
X101236329Y-132327641D01*
X101228710Y-132321430D01*
X101220812Y-132315619D01*
X101212635Y-132310210D01*
X101204180Y-132305201D01*
X101195447Y-132300593D01*
X101186435Y-132296385D01*
X101177144Y-132292579D01*
X101167575Y-132289173D01*
X101157727Y-132286167D01*
X101147600Y-132283563D01*
X101137195Y-132281359D01*
X101126511Y-132279556D01*
X101115549Y-132278153D01*
X101104308Y-132277151D01*
X101092789Y-132276550D01*
X101080990Y-132276350D01*
X101069929Y-132276556D01*
X101059093Y-132277174D01*
X101048481Y-132278205D01*
X101038095Y-132279647D01*
X101027934Y-132281502D01*
X101017999Y-132283769D01*
X101008288Y-132286448D01*
X100998803Y-132289539D01*
X100989542Y-132293042D01*
X100980507Y-132296958D01*
X100971697Y-132301285D01*
X100963113Y-132306025D01*
X100954753Y-132311177D01*
X100946619Y-132316741D01*
X100938709Y-132322718D01*
X100931025Y-132329106D01*
X100927329Y-132332445D01*
X100920288Y-132339276D01*
X100910606Y-132349909D01*
X100901981Y-132361006D01*
X100894412Y-132372566D01*
X100887899Y-132384590D01*
X100882442Y-132397078D01*
X100878041Y-132410030D01*
X100874697Y-132423445D01*
X100872408Y-132437324D01*
X100871176Y-132451667D01*
X100870942Y-132461486D01*
X100733741Y-132461486D01*
X100733692Y-132461112D01*
X100732582Y-132446860D01*
X100732212Y-132432421D01*
X100732602Y-132415804D01*
X100733773Y-132399536D01*
X100735724Y-132383617D01*
X100738455Y-132368048D01*
X100741967Y-132352827D01*
X100746259Y-132337956D01*
X100751332Y-132323434D01*
X100757185Y-132309262D01*
X100763819Y-132295438D01*
X100771233Y-132281964D01*
X100779428Y-132268838D01*
X100788403Y-132256062D01*
X100798158Y-132243636D01*
X100808694Y-132231558D01*
X100820010Y-132219830D01*
X100832107Y-132208450D01*
X100844789Y-132197625D01*
X100857859Y-132187499D01*
X100871319Y-132178071D01*
X100885169Y-132169341D01*
X100899407Y-132161310D01*
X100914035Y-132153977D01*
X100929052Y-132147342D01*
X100944459Y-132141406D01*
X100960254Y-132136168D01*
X100976439Y-132131628D01*
X100993013Y-132127787D01*
X101009977Y-132124644D01*
X101027330Y-132122200D01*
X101045071Y-132120454D01*
X101063203Y-132119407D01*
X101081723Y-132119057D01*
X101100547Y-132119407D01*
G37*
G36*
X100747843Y-132989539D02*
G01*
X100747843Y-133146831D01*
X100811835Y-133146831D01*
X100803570Y-133154714D01*
X100795812Y-133162425D01*
X100788561Y-133169964D01*
X100781816Y-133177331D01*
X100773611Y-133186887D01*
X100766306Y-133196138D01*
X100759903Y-133205083D01*
X100754400Y-133213723D01*
X100749797Y-133222058D01*
X100744731Y-133232819D01*
X100740524Y-133244188D01*
X100737776Y-133253721D01*
X100735578Y-133263643D01*
X100733929Y-133273955D01*
X100732830Y-133284656D01*
X100732280Y-133295746D01*
X100732212Y-133301437D01*
X100732549Y-133312887D01*
X100733560Y-133324432D01*
X100735245Y-133336071D01*
X100737604Y-133347805D01*
X100740637Y-133359633D01*
X100744345Y-133371556D01*
X100748726Y-133383573D01*
X100753781Y-133395684D01*
X100759511Y-133407890D01*
X100765914Y-133420191D01*
X100770558Y-133428443D01*
X100919790Y-133358101D01*
X100914203Y-133349921D01*
X100907609Y-133339068D01*
X100901991Y-133328275D01*
X100897350Y-133317544D01*
X100893687Y-133306873D01*
X100891000Y-133296264D01*
X100889290Y-133285716D01*
X100888558Y-133275229D01*
X100888527Y-133272616D01*
X100889265Y-133257385D01*
X100891477Y-133243136D01*
X100895165Y-133229869D01*
X100900327Y-133217585D01*
X100906965Y-133206284D01*
X100915077Y-133195966D01*
X100924665Y-133186631D01*
X100935727Y-133178278D01*
X100948264Y-133170907D01*
X100962277Y-133164520D01*
X100977764Y-133159115D01*
X100994727Y-133154693D01*
X101013164Y-133151253D01*
X101022936Y-133149902D01*
X101033077Y-133148797D01*
X101043586Y-133147937D01*
X101054464Y-133147323D01*
X101065711Y-133146954D01*
X101077327Y-133146831D01*
X101420000Y-133146831D01*
X101420000Y-132989539D01*
X100747843Y-132989539D01*
G37*
G36*
X100263265Y-133691004D02*
G01*
X100965219Y-133691004D01*
X100747843Y-133907648D01*
X100747843Y-134114277D01*
X101030188Y-133825094D01*
X101420000Y-134135282D01*
X101420000Y-133935736D01*
X101136434Y-133715673D01*
X101161102Y-133691004D01*
X101420000Y-133691004D01*
X101420000Y-133533712D01*
X100263265Y-133533712D01*
X100263265Y-133691004D01*
G37*
%LPC*%
D11*
%TO.C,IN_2*%
X104900000Y-130000000D03*
%TD*%
D12*
%TO.C,SUBMINI_SWITCH3*%
X104900000Y-215500000D03*
%TD*%
D11*
%TO.C,OUT_3*%
X104900000Y-182000000D03*
%TD*%
%TO.C,IN_1*%
X104900000Y-117000000D03*
%TD*%
D13*
%TO.C, *%
X107500000Y-103000000D03*
%TD*%
D12*
%TO.C,SUBMINI_SWITCH2*%
X104900000Y-205250000D03*
%TD*%
D11*
%TO.C,IN_3*%
X104900000Y-143000000D03*
%TD*%
D13*
%TO.C, *%
X107500000Y-225500000D03*
%TD*%
D11*
%TO.C,OUT_2*%
X104900000Y-169000000D03*
%TD*%
%TO.C,OUT_1*%
X104900000Y-156000000D03*
%TD*%
D12*
%TO.C,SUBMINI_SWITCH1*%
X104900000Y-195000000D03*
%TD*%
%LPD*%
M02*
