M48
; DRILL file {KiCad 7.0.8} date 2024 September 22, Sunday 21:54:56
; FORMAT={-:-/ absolute / metric / decimal}
; #@! TF.CreationDate,2024-09-22T21:54:56-04:00
; #@! TF.GenerationSoftware,Kicad,Pcbnew,7.0.8
; #@! TF.FileFunction,NonPlated,1,2,NPTH
FMAT,2
METRIC
; #@! TA.AperFunction,NonPlated,NPTH,ComponentDrill
T1C2.200
; #@! TA.AperFunction,NonPlated,NPTH,ComponentDrill
T2C3.200
; #@! TA.AperFunction,NonPlated,NPTH,ComponentDrill
T3C5.000
; #@! TA.AperFunction,NonPlated,NPTH,ComponentDrill
T4C6.400
%
G90
G05
T1
X111.45Y-134.008
X111.45Y-205.008
X119.95Y-212.577
X128.45Y-134.008
X128.45Y-205.008
X145.45Y-134.008
X145.45Y-205.008
X162.45Y-134.008
X162.45Y-205.008
X170.95Y-212.577
X179.45Y-134.008
X179.45Y-205.008
X196.45Y-134.008
X196.45Y-205.008
X213.45Y-134.008
X213.45Y-205.008
X221.95Y-212.577
X230.45Y-134.008
X230.45Y-205.008
T2
X111.45Y-124.234
X128.45Y-124.234
X145.45Y-124.234
X162.45Y-124.234
X179.45Y-124.234
X196.45Y-124.234
X213.45Y-124.234
X230.45Y-124.234
T3
X111.45Y-212.577
X128.45Y-212.577
X145.45Y-212.577
X162.45Y-212.577
X179.45Y-212.577
X196.45Y-212.577
X213.45Y-212.577
X230.45Y-212.577
T4
X162.45Y-116.108
X179.45Y-116.108
T2
X107.1Y-103.0G85X107.9Y-103.0
G05
X107.1Y-225.5G85X107.9Y-225.5
G05
X234.9Y-103.0G85X234.1Y-103.0
G05
X234.9Y-225.5G85X234.1Y-225.5
G05
T0
M30
