G04 #@! TF.GenerationSoftware,KiCad,Pcbnew,7.0.8*
G04 #@! TF.CreationDate,2024-09-22T21:54:43-04:00*
G04 #@! TF.ProjectId,lichen-freddie-panel,6c696368-656e-42d6-9672-65646469652d,1.0*
G04 #@! TF.SameCoordinates,Original*
G04 #@! TF.FileFunction,Profile,NP*
%FSLAX46Y46*%
G04 Gerber Fmt 4.6, Leading zero omitted, Abs format (unit mm)*
G04 Created by KiCad (PCBNEW 7.0.8) date 2024-09-22 21:54:43*
%MOMM*%
%LPD*%
G01*
G04 APERTURE LIST*
G04 #@! TA.AperFunction,Profile*
%ADD10C,0.100000*%
G04 #@! TD*
G04 APERTURE END LIST*
D10*
X100000000Y-100000000D02*
X241900000Y-100000000D01*
X241900000Y-228500000D01*
X100000000Y-228500000D01*
X100000000Y-100000000D01*
X143950000Y-201008000D02*
X143950000Y-138008000D01*
X145450000Y-136508000D02*
X145450000Y-136508000D01*
X145450000Y-137508000D02*
X145450000Y-137508000D01*
X145450000Y-201508000D02*
X145450000Y-201508000D01*
X145450000Y-202508000D02*
X145450000Y-202508000D01*
X146950000Y-138008000D02*
X146950000Y-201008000D01*
X145450000Y-136508000D02*
G75*
G03*
X143950000Y-138008000I0J-1500000D01*
G01*
X146950000Y-138008000D02*
G75*
G03*
X145450000Y-136508000I-1500001J-1D01*
G01*
X143950000Y-201008000D02*
G75*
G03*
X145450000Y-202508000I1500000J0D01*
G01*
X145450000Y-202508000D02*
G75*
G03*
X146950000Y-201008000I-1J1500001D01*
G01*
X160950000Y-201008000D02*
X160950000Y-138008000D01*
X162450000Y-136508000D02*
X162450000Y-136508000D01*
X162450000Y-137508000D02*
X162450000Y-137508000D01*
X162450000Y-201508000D02*
X162450000Y-201508000D01*
X162450000Y-202508000D02*
X162450000Y-202508000D01*
X163950000Y-138008000D02*
X163950000Y-201008000D01*
X162450000Y-136508000D02*
G75*
G03*
X160950000Y-138008000I0J-1500000D01*
G01*
X163950000Y-138008000D02*
G75*
G03*
X162450000Y-136508000I-1500001J-1D01*
G01*
X160950000Y-201008000D02*
G75*
G03*
X162450000Y-202508000I1500000J0D01*
G01*
X162450000Y-202508000D02*
G75*
G03*
X163950000Y-201008000I-1J1500001D01*
G01*
X177950000Y-201008000D02*
X177950000Y-138008000D01*
X179450000Y-136508000D02*
X179450000Y-136508000D01*
X179450000Y-137508000D02*
X179450000Y-137508000D01*
X179450000Y-201508000D02*
X179450000Y-201508000D01*
X179450000Y-202508000D02*
X179450000Y-202508000D01*
X180950000Y-138008000D02*
X180950000Y-201008000D01*
X179450000Y-136508000D02*
G75*
G03*
X177950000Y-138008000I0J-1500000D01*
G01*
X180950000Y-138008000D02*
G75*
G03*
X179450000Y-136508000I-1500001J-1D01*
G01*
X177950000Y-201008000D02*
G75*
G03*
X179450000Y-202508000I1500000J0D01*
G01*
X179450000Y-202508000D02*
G75*
G03*
X180950000Y-201008000I-1J1500001D01*
G01*
X228950000Y-201008000D02*
X228950000Y-138008000D01*
X230450000Y-136508000D02*
X230450000Y-136508000D01*
X230450000Y-137508000D02*
X230450000Y-137508000D01*
X230450000Y-201508000D02*
X230450000Y-201508000D01*
X230450000Y-202508000D02*
X230450000Y-202508000D01*
X231950000Y-138008000D02*
X231950000Y-201008000D01*
X230450000Y-136508000D02*
G75*
G03*
X228950000Y-138008000I0J-1500000D01*
G01*
X231950000Y-138008000D02*
G75*
G03*
X230450000Y-136508000I-1500001J-1D01*
G01*
X228950000Y-201008000D02*
G75*
G03*
X230450000Y-202508000I1500000J0D01*
G01*
X230450000Y-202508000D02*
G75*
G03*
X231950000Y-201008000I-1J1500001D01*
G01*
X211950000Y-201008000D02*
X211950000Y-138008000D01*
X213450000Y-136508000D02*
X213450000Y-136508000D01*
X213450000Y-137508000D02*
X213450000Y-137508000D01*
X213450000Y-201508000D02*
X213450000Y-201508000D01*
X213450000Y-202508000D02*
X213450000Y-202508000D01*
X214950000Y-138008000D02*
X214950000Y-201008000D01*
X213450000Y-136508000D02*
G75*
G03*
X211950000Y-138008000I0J-1500000D01*
G01*
X214950000Y-138008000D02*
G75*
G03*
X213450000Y-136508000I-1500001J-1D01*
G01*
X211950000Y-201008000D02*
G75*
G03*
X213450000Y-202508000I1500000J0D01*
G01*
X213450000Y-202508000D02*
G75*
G03*
X214950000Y-201008000I-1J1500001D01*
G01*
X194950000Y-201008000D02*
X194950000Y-138008000D01*
X196450000Y-136508000D02*
X196450000Y-136508000D01*
X196450000Y-137508000D02*
X196450000Y-137508000D01*
X196450000Y-201508000D02*
X196450000Y-201508000D01*
X196450000Y-202508000D02*
X196450000Y-202508000D01*
X197950000Y-138008000D02*
X197950000Y-201008000D01*
X196450000Y-136508000D02*
G75*
G03*
X194950000Y-138008000I0J-1500000D01*
G01*
X197950000Y-138008000D02*
G75*
G03*
X196450000Y-136508000I-1500001J-1D01*
G01*
X194950000Y-201008000D02*
G75*
G03*
X196450000Y-202508000I1500000J0D01*
G01*
X196450000Y-202508000D02*
G75*
G03*
X197950000Y-201008000I-1J1500001D01*
G01*
X126950000Y-201008000D02*
X126950000Y-138008000D01*
X128450000Y-136508000D02*
X128450000Y-136508000D01*
X128450000Y-137508000D02*
X128450000Y-137508000D01*
X128450000Y-201508000D02*
X128450000Y-201508000D01*
X128450000Y-202508000D02*
X128450000Y-202508000D01*
X129950000Y-138008000D02*
X129950000Y-201008000D01*
X128450000Y-136508000D02*
G75*
G03*
X126950000Y-138008000I0J-1500000D01*
G01*
X129950000Y-138008000D02*
G75*
G03*
X128450000Y-136508000I-1500001J-1D01*
G01*
X126950000Y-201008000D02*
G75*
G03*
X128450000Y-202508000I1500000J0D01*
G01*
X128450000Y-202508000D02*
G75*
G03*
X129950000Y-201008000I-1J1500001D01*
G01*
X109950000Y-201008000D02*
X109950000Y-138008000D01*
X111450000Y-136508000D02*
X111450000Y-136508000D01*
X111450000Y-137508000D02*
X111450000Y-137508000D01*
X111450000Y-201508000D02*
X111450000Y-201508000D01*
X111450000Y-202508000D02*
X111450000Y-202508000D01*
X112950000Y-138008000D02*
X112950000Y-201008000D01*
X111450000Y-136508000D02*
G75*
G03*
X109950000Y-138008000I0J-1500000D01*
G01*
X112950000Y-138008000D02*
G75*
G03*
X111450000Y-136508000I-1500001J-1D01*
G01*
X109950000Y-201008000D02*
G75*
G03*
X111450000Y-202508000I1500000J0D01*
G01*
X111450000Y-202508000D02*
G75*
G03*
X112950000Y-201008000I-1J1500001D01*
G01*
M02*
