%TF.GenerationSoftware,KiCad,Pcbnew,9.0.8*%
%TF.CreationDate,2026-04-07T13:30:41-04:00*%
%TF.ProjectId,lichen-stereo-latencies-panel,6c696368-656e-42d7-9374-6572656f2d6c,rev?*%
%TF.SameCoordinates,Original*%
%TF.FileFunction,Copper,L1,Top*%
%TF.FilePolarity,Positive*%
%FSLAX46Y46*%
G04 Gerber Fmt 4.6, Leading zero omitted, Abs format (unit mm)*
G04 Created by KiCad (PCBNEW 9.0.8) date 2026-04-07 13:30:41*
%MOMM*%
%LPD*%
G01*
G04 APERTURE LIST*
G04 Aperture macros list*
%AMRoundRect*
0 Rectangle with rounded corners*
0 $1 Rounding radius*
0 $2 $3 $4 $5 $6 $7 $8 $9 X,Y pos of 4 corners*
0 Add a 4 corners polygon primitive as box body*
4,1,4,$2,$3,$4,$5,$6,$7,$8,$9,$2,$3,0*
0 Add four circle primitives for the rounded corners*
1,1,$1+$1,$2,$3*
1,1,$1+$1,$4,$5*
1,1,$1+$1,$6,$7*
1,1,$1+$1,$8,$9*
0 Add four rect primitives between the rounded corners*
20,1,$1+$1,$2,$3,$4,$5,0*
20,1,$1+$1,$4,$5,$6,$7,0*
20,1,$1+$1,$6,$7,$8,$9,0*
20,1,$1+$1,$8,$9,$2,$3,0*%
G04 Aperture macros list end*
%TA.AperFunction,WasherPad*%
%ADD10RoundRect,1.600000X-0.400000X-0.000010X0.400000X-0.000010X0.400000X0.000010X-0.400000X0.000010X0*%
%TD*%
G04 APERTURE END LIST*
D10*
%TO.P,H2,*%
%TO.N,*%
X107500000Y-225500000D03*
%TD*%
%TO.P,H1,*%
%TO.N,*%
X107500000Y-103000000D03*
%TD*%
%TA.AperFunction,NonConductor*%
G36*
X119442539Y-100520185D02*
G01*
X119488294Y-100572989D01*
X119499500Y-100624500D01*
X119499500Y-227875500D01*
X119479815Y-227942539D01*
X119427011Y-227988294D01*
X119375500Y-227999500D01*
X100624500Y-227999500D01*
X100557461Y-227979815D01*
X100511706Y-227927011D01*
X100500500Y-227875500D01*
X100500500Y-225404231D01*
X104999500Y-225404231D01*
X104999500Y-225595768D01*
X105005629Y-225715303D01*
X105005629Y-225715305D01*
X105054454Y-225998481D01*
X105054456Y-225998490D01*
X105141381Y-226272372D01*
X105141387Y-226272386D01*
X105264800Y-226531885D01*
X105422397Y-226772161D01*
X105422399Y-226772163D01*
X105422400Y-226772164D01*
X105611252Y-226988748D01*
X105827836Y-227177600D01*
X105827838Y-227177602D01*
X106068114Y-227335199D01*
X106327613Y-227458612D01*
X106327627Y-227458618D01*
X106464568Y-227502080D01*
X106601514Y-227545545D01*
X106884692Y-227594370D01*
X106906436Y-227595484D01*
X107004231Y-227600499D01*
X107004257Y-227600499D01*
X107004264Y-227600500D01*
X107004270Y-227600500D01*
X107995730Y-227600500D01*
X107995736Y-227600500D01*
X107995742Y-227600499D01*
X107995768Y-227600499D01*
X108081138Y-227596121D01*
X108115308Y-227594370D01*
X108398486Y-227545545D01*
X108672378Y-227458616D01*
X108931882Y-227335201D01*
X109172164Y-227177600D01*
X109388748Y-226988748D01*
X109577600Y-226772164D01*
X109735201Y-226531882D01*
X109858616Y-226272378D01*
X109945545Y-225998486D01*
X109994370Y-225715308D01*
X109996121Y-225681138D01*
X110000499Y-225595768D01*
X110000500Y-225595729D01*
X110000500Y-225404270D01*
X110000499Y-225404231D01*
X109994370Y-225284696D01*
X109994370Y-225284694D01*
X109994370Y-225284692D01*
X109945545Y-225001514D01*
X109858616Y-224727622D01*
X109735201Y-224468118D01*
X109735200Y-224468117D01*
X109735199Y-224468114D01*
X109577602Y-224227838D01*
X109577600Y-224227836D01*
X109388748Y-224011252D01*
X109172164Y-223822400D01*
X109172163Y-223822399D01*
X109172161Y-223822397D01*
X108931885Y-223664800D01*
X108672386Y-223541387D01*
X108672372Y-223541381D01*
X108398490Y-223454456D01*
X108398481Y-223454454D01*
X108115304Y-223405629D01*
X107995768Y-223399500D01*
X107995736Y-223399500D01*
X107004264Y-223399500D01*
X107004231Y-223399500D01*
X106884696Y-223405629D01*
X106884694Y-223405629D01*
X106601518Y-223454454D01*
X106601509Y-223454456D01*
X106327627Y-223541381D01*
X106327613Y-223541387D01*
X106068114Y-223664800D01*
X105827838Y-223822397D01*
X105827836Y-223822399D01*
X105611252Y-224011252D01*
X105422399Y-224227836D01*
X105422397Y-224227838D01*
X105264800Y-224468114D01*
X105141387Y-224727613D01*
X105141381Y-224727627D01*
X105054456Y-225001509D01*
X105054454Y-225001518D01*
X105005629Y-225284694D01*
X105005629Y-225284696D01*
X104999500Y-225404231D01*
X100500500Y-225404231D01*
X100500500Y-211580491D01*
X101549500Y-211580491D01*
X101549500Y-211919508D01*
X101582729Y-212256901D01*
X101648870Y-212589410D01*
X101747284Y-212913841D01*
X101877024Y-213227060D01*
X101877026Y-213227065D01*
X102036831Y-213526039D01*
X102036842Y-213526057D01*
X102225184Y-213807930D01*
X102225194Y-213807944D01*
X102440269Y-214070014D01*
X102679985Y-214309730D01*
X102679990Y-214309734D01*
X102679991Y-214309735D01*
X102942061Y-214524810D01*
X103223949Y-214713162D01*
X103223958Y-214713167D01*
X103223960Y-214713168D01*
X103522934Y-214872973D01*
X103522936Y-214872973D01*
X103522942Y-214872977D01*
X103836160Y-215002716D01*
X104160586Y-215101129D01*
X104493096Y-215167270D01*
X104830488Y-215200500D01*
X104830491Y-215200500D01*
X105169509Y-215200500D01*
X105169512Y-215200500D01*
X105506904Y-215167270D01*
X105839414Y-215101129D01*
X106163840Y-215002716D01*
X106477058Y-214872977D01*
X106776051Y-214713162D01*
X107057939Y-214524810D01*
X107320009Y-214309735D01*
X107559735Y-214070009D01*
X107774810Y-213807939D01*
X107963162Y-213526051D01*
X108122977Y-213227058D01*
X108252716Y-212913840D01*
X108351129Y-212589414D01*
X108417270Y-212256904D01*
X108450500Y-211919512D01*
X108450500Y-211580491D01*
X111549500Y-211580491D01*
X111549500Y-211919508D01*
X111582729Y-212256901D01*
X111648870Y-212589410D01*
X111747284Y-212913841D01*
X111877024Y-213227060D01*
X111877026Y-213227065D01*
X112036831Y-213526039D01*
X112036842Y-213526057D01*
X112225184Y-213807930D01*
X112225194Y-213807944D01*
X112440269Y-214070014D01*
X112679985Y-214309730D01*
X112679990Y-214309734D01*
X112679991Y-214309735D01*
X112942061Y-214524810D01*
X113223949Y-214713162D01*
X113223958Y-214713167D01*
X113223960Y-214713168D01*
X113522934Y-214872973D01*
X113522936Y-214872973D01*
X113522942Y-214872977D01*
X113836160Y-215002716D01*
X114160586Y-215101129D01*
X114493096Y-215167270D01*
X114830488Y-215200500D01*
X114830491Y-215200500D01*
X115169509Y-215200500D01*
X115169512Y-215200500D01*
X115506904Y-215167270D01*
X115839414Y-215101129D01*
X116163840Y-215002716D01*
X116477058Y-214872977D01*
X116776051Y-214713162D01*
X117057939Y-214524810D01*
X117320009Y-214309735D01*
X117559735Y-214070009D01*
X117774810Y-213807939D01*
X117963162Y-213526051D01*
X118122977Y-213227058D01*
X118252716Y-212913840D01*
X118351129Y-212589414D01*
X118417270Y-212256904D01*
X118450500Y-211919512D01*
X118450500Y-211580488D01*
X118417270Y-211243096D01*
X118351129Y-210910586D01*
X118252716Y-210586160D01*
X118122977Y-210272942D01*
X117963162Y-209973949D01*
X117774810Y-209692061D01*
X117559735Y-209429991D01*
X117559734Y-209429990D01*
X117559730Y-209429985D01*
X117320014Y-209190269D01*
X117057944Y-208975194D01*
X117057943Y-208975193D01*
X117057939Y-208975190D01*
X116776051Y-208786838D01*
X116776046Y-208786835D01*
X116776039Y-208786831D01*
X116477065Y-208627026D01*
X116477060Y-208627024D01*
X116163841Y-208497284D01*
X115973382Y-208439509D01*
X115839414Y-208398871D01*
X115839411Y-208398870D01*
X115839410Y-208398870D01*
X115506901Y-208332729D01*
X115269199Y-208309318D01*
X115169512Y-208299500D01*
X114830488Y-208299500D01*
X114739738Y-208308437D01*
X114493098Y-208332729D01*
X114160589Y-208398870D01*
X113836158Y-208497284D01*
X113522939Y-208627024D01*
X113522934Y-208627026D01*
X113223960Y-208786831D01*
X113223942Y-208786842D01*
X112942069Y-208975184D01*
X112942055Y-208975194D01*
X112679985Y-209190269D01*
X112440269Y-209429985D01*
X112225194Y-209692055D01*
X112225184Y-209692069D01*
X112036842Y-209973942D01*
X112036831Y-209973960D01*
X111877026Y-210272934D01*
X111877024Y-210272939D01*
X111747284Y-210586158D01*
X111648870Y-210910589D01*
X111582729Y-211243098D01*
X111549500Y-211580491D01*
X108450500Y-211580491D01*
X108450500Y-211580488D01*
X108417270Y-211243096D01*
X108351129Y-210910586D01*
X108252716Y-210586160D01*
X108122977Y-210272942D01*
X107963162Y-209973949D01*
X107774810Y-209692061D01*
X107559735Y-209429991D01*
X107559734Y-209429990D01*
X107559730Y-209429985D01*
X107320014Y-209190269D01*
X107057944Y-208975194D01*
X107057943Y-208975193D01*
X107057939Y-208975190D01*
X106776051Y-208786838D01*
X106776046Y-208786835D01*
X106776039Y-208786831D01*
X106477065Y-208627026D01*
X106477060Y-208627024D01*
X106163841Y-208497284D01*
X105973382Y-208439509D01*
X105839414Y-208398871D01*
X105839411Y-208398870D01*
X105839410Y-208398870D01*
X105506901Y-208332729D01*
X105269199Y-208309318D01*
X105169512Y-208299500D01*
X104830488Y-208299500D01*
X104739738Y-208308437D01*
X104493098Y-208332729D01*
X104160589Y-208398870D01*
X103836158Y-208497284D01*
X103522939Y-208627024D01*
X103522934Y-208627026D01*
X103223960Y-208786831D01*
X103223942Y-208786842D01*
X102942069Y-208975184D01*
X102942055Y-208975194D01*
X102679985Y-209190269D01*
X102440269Y-209429985D01*
X102225194Y-209692055D01*
X102225184Y-209692069D01*
X102036842Y-209973942D01*
X102036831Y-209973960D01*
X101877026Y-210272934D01*
X101877024Y-210272939D01*
X101747284Y-210586158D01*
X101648870Y-210910589D01*
X101582729Y-211243098D01*
X101549500Y-211580491D01*
X100500500Y-211580491D01*
X100500500Y-196580491D01*
X101549500Y-196580491D01*
X101549500Y-196919508D01*
X101582729Y-197256901D01*
X101648870Y-197589410D01*
X101747284Y-197913841D01*
X101877024Y-198227060D01*
X101877026Y-198227065D01*
X102036831Y-198526039D01*
X102036842Y-198526057D01*
X102225184Y-198807930D01*
X102225194Y-198807944D01*
X102440269Y-199070014D01*
X102679985Y-199309730D01*
X102679990Y-199309734D01*
X102679991Y-199309735D01*
X102942061Y-199524810D01*
X103223949Y-199713162D01*
X103223958Y-199713167D01*
X103223960Y-199713168D01*
X103522934Y-199872973D01*
X103522936Y-199872973D01*
X103522942Y-199872977D01*
X103836160Y-200002716D01*
X104160586Y-200101129D01*
X104493096Y-200167270D01*
X104830488Y-200200500D01*
X104830491Y-200200500D01*
X105169509Y-200200500D01*
X105169512Y-200200500D01*
X105506904Y-200167270D01*
X105839414Y-200101129D01*
X106163840Y-200002716D01*
X106477058Y-199872977D01*
X106776051Y-199713162D01*
X107057939Y-199524810D01*
X107320009Y-199309735D01*
X107559735Y-199070009D01*
X107774810Y-198807939D01*
X107963162Y-198526051D01*
X108122977Y-198227058D01*
X108252716Y-197913840D01*
X108351129Y-197589414D01*
X108417270Y-197256904D01*
X108450500Y-196919512D01*
X108450500Y-196580491D01*
X111549500Y-196580491D01*
X111549500Y-196919508D01*
X111582729Y-197256901D01*
X111648870Y-197589410D01*
X111747284Y-197913841D01*
X111877024Y-198227060D01*
X111877026Y-198227065D01*
X112036831Y-198526039D01*
X112036842Y-198526057D01*
X112225184Y-198807930D01*
X112225194Y-198807944D01*
X112440269Y-199070014D01*
X112679985Y-199309730D01*
X112679990Y-199309734D01*
X112679991Y-199309735D01*
X112942061Y-199524810D01*
X113223949Y-199713162D01*
X113223958Y-199713167D01*
X113223960Y-199713168D01*
X113522934Y-199872973D01*
X113522936Y-199872973D01*
X113522942Y-199872977D01*
X113836160Y-200002716D01*
X114160586Y-200101129D01*
X114493096Y-200167270D01*
X114830488Y-200200500D01*
X114830491Y-200200500D01*
X115169509Y-200200500D01*
X115169512Y-200200500D01*
X115506904Y-200167270D01*
X115839414Y-200101129D01*
X116163840Y-200002716D01*
X116477058Y-199872977D01*
X116776051Y-199713162D01*
X117057939Y-199524810D01*
X117320009Y-199309735D01*
X117559735Y-199070009D01*
X117774810Y-198807939D01*
X117963162Y-198526051D01*
X118122977Y-198227058D01*
X118252716Y-197913840D01*
X118351129Y-197589414D01*
X118417270Y-197256904D01*
X118450500Y-196919512D01*
X118450500Y-196580488D01*
X118417270Y-196243096D01*
X118351129Y-195910586D01*
X118252716Y-195586160D01*
X118122977Y-195272942D01*
X117963162Y-194973949D01*
X117774810Y-194692061D01*
X117559735Y-194429991D01*
X117559734Y-194429990D01*
X117559730Y-194429985D01*
X117320014Y-194190269D01*
X117057944Y-193975194D01*
X117057943Y-193975193D01*
X117057939Y-193975190D01*
X116776051Y-193786838D01*
X116776046Y-193786835D01*
X116776039Y-193786831D01*
X116477065Y-193627026D01*
X116477060Y-193627024D01*
X116163841Y-193497284D01*
X115973382Y-193439509D01*
X115839414Y-193398871D01*
X115839411Y-193398870D01*
X115839410Y-193398870D01*
X115506901Y-193332729D01*
X115269199Y-193309318D01*
X115169512Y-193299500D01*
X114830488Y-193299500D01*
X114739738Y-193308437D01*
X114493098Y-193332729D01*
X114160589Y-193398870D01*
X113836158Y-193497284D01*
X113522939Y-193627024D01*
X113522934Y-193627026D01*
X113223960Y-193786831D01*
X113223942Y-193786842D01*
X112942069Y-193975184D01*
X112942055Y-193975194D01*
X112679985Y-194190269D01*
X112440269Y-194429985D01*
X112225194Y-194692055D01*
X112225184Y-194692069D01*
X112036842Y-194973942D01*
X112036831Y-194973960D01*
X111877026Y-195272934D01*
X111877024Y-195272939D01*
X111747284Y-195586158D01*
X111648870Y-195910589D01*
X111582729Y-196243098D01*
X111549500Y-196580491D01*
X108450500Y-196580491D01*
X108450500Y-196580488D01*
X108417270Y-196243096D01*
X108351129Y-195910586D01*
X108252716Y-195586160D01*
X108122977Y-195272942D01*
X107963162Y-194973949D01*
X107774810Y-194692061D01*
X107559735Y-194429991D01*
X107559734Y-194429990D01*
X107559730Y-194429985D01*
X107320014Y-194190269D01*
X107057944Y-193975194D01*
X107057943Y-193975193D01*
X107057939Y-193975190D01*
X106776051Y-193786838D01*
X106776046Y-193786835D01*
X106776039Y-193786831D01*
X106477065Y-193627026D01*
X106477060Y-193627024D01*
X106163841Y-193497284D01*
X105973382Y-193439509D01*
X105839414Y-193398871D01*
X105839411Y-193398870D01*
X105839410Y-193398870D01*
X105506901Y-193332729D01*
X105269199Y-193309318D01*
X105169512Y-193299500D01*
X104830488Y-193299500D01*
X104739738Y-193308437D01*
X104493098Y-193332729D01*
X104160589Y-193398870D01*
X103836158Y-193497284D01*
X103522939Y-193627024D01*
X103522934Y-193627026D01*
X103223960Y-193786831D01*
X103223942Y-193786842D01*
X102942069Y-193975184D01*
X102942055Y-193975194D01*
X102679985Y-194190269D01*
X102440269Y-194429985D01*
X102225194Y-194692055D01*
X102225184Y-194692069D01*
X102036842Y-194973942D01*
X102036831Y-194973960D01*
X101877026Y-195272934D01*
X101877024Y-195272939D01*
X101747284Y-195586158D01*
X101648870Y-195910589D01*
X101582729Y-196243098D01*
X101549500Y-196580491D01*
X100500500Y-196580491D01*
X100500500Y-181580491D01*
X101549500Y-181580491D01*
X101549500Y-181919508D01*
X101582729Y-182256901D01*
X101648870Y-182589410D01*
X101747284Y-182913841D01*
X101877024Y-183227060D01*
X101877026Y-183227065D01*
X102036831Y-183526039D01*
X102036842Y-183526057D01*
X102225184Y-183807930D01*
X102225194Y-183807944D01*
X102440269Y-184070014D01*
X102679985Y-184309730D01*
X102679990Y-184309734D01*
X102679991Y-184309735D01*
X102942061Y-184524810D01*
X103223949Y-184713162D01*
X103223958Y-184713167D01*
X103223960Y-184713168D01*
X103522934Y-184872973D01*
X103522936Y-184872973D01*
X103522942Y-184872977D01*
X103836160Y-185002716D01*
X104160586Y-185101129D01*
X104493096Y-185167270D01*
X104830488Y-185200500D01*
X104830491Y-185200500D01*
X105169509Y-185200500D01*
X105169512Y-185200500D01*
X105506904Y-185167270D01*
X105839414Y-185101129D01*
X106163840Y-185002716D01*
X106477058Y-184872977D01*
X106776051Y-184713162D01*
X107057939Y-184524810D01*
X107320009Y-184309735D01*
X107559735Y-184070009D01*
X107774810Y-183807939D01*
X107963162Y-183526051D01*
X108122977Y-183227058D01*
X108252716Y-182913840D01*
X108351129Y-182589414D01*
X108417270Y-182256904D01*
X108450500Y-181919512D01*
X108450500Y-181580491D01*
X111549500Y-181580491D01*
X111549500Y-181919508D01*
X111582729Y-182256901D01*
X111648870Y-182589410D01*
X111747284Y-182913841D01*
X111877024Y-183227060D01*
X111877026Y-183227065D01*
X112036831Y-183526039D01*
X112036842Y-183526057D01*
X112225184Y-183807930D01*
X112225194Y-183807944D01*
X112440269Y-184070014D01*
X112679985Y-184309730D01*
X112679990Y-184309734D01*
X112679991Y-184309735D01*
X112942061Y-184524810D01*
X113223949Y-184713162D01*
X113223958Y-184713167D01*
X113223960Y-184713168D01*
X113522934Y-184872973D01*
X113522936Y-184872973D01*
X113522942Y-184872977D01*
X113836160Y-185002716D01*
X114160586Y-185101129D01*
X114493096Y-185167270D01*
X114830488Y-185200500D01*
X114830491Y-185200500D01*
X115169509Y-185200500D01*
X115169512Y-185200500D01*
X115506904Y-185167270D01*
X115839414Y-185101129D01*
X116163840Y-185002716D01*
X116477058Y-184872977D01*
X116776051Y-184713162D01*
X117057939Y-184524810D01*
X117320009Y-184309735D01*
X117559735Y-184070009D01*
X117774810Y-183807939D01*
X117963162Y-183526051D01*
X118122977Y-183227058D01*
X118252716Y-182913840D01*
X118351129Y-182589414D01*
X118417270Y-182256904D01*
X118450500Y-181919512D01*
X118450500Y-181580488D01*
X118417270Y-181243096D01*
X118351129Y-180910586D01*
X118252716Y-180586160D01*
X118122977Y-180272942D01*
X117963162Y-179973949D01*
X117774810Y-179692061D01*
X117559735Y-179429991D01*
X117559734Y-179429990D01*
X117559730Y-179429985D01*
X117320014Y-179190269D01*
X117057944Y-178975194D01*
X117057943Y-178975193D01*
X117057939Y-178975190D01*
X116776051Y-178786838D01*
X116776046Y-178786835D01*
X116776039Y-178786831D01*
X116477065Y-178627026D01*
X116477060Y-178627024D01*
X116163841Y-178497284D01*
X115973382Y-178439509D01*
X115839414Y-178398871D01*
X115839411Y-178398870D01*
X115839410Y-178398870D01*
X115506901Y-178332729D01*
X115269199Y-178309318D01*
X115169512Y-178299500D01*
X114830488Y-178299500D01*
X114739738Y-178308437D01*
X114493098Y-178332729D01*
X114160589Y-178398870D01*
X113836158Y-178497284D01*
X113522939Y-178627024D01*
X113522934Y-178627026D01*
X113223960Y-178786831D01*
X113223942Y-178786842D01*
X112942069Y-178975184D01*
X112942055Y-178975194D01*
X112679985Y-179190269D01*
X112440269Y-179429985D01*
X112225194Y-179692055D01*
X112225184Y-179692069D01*
X112036842Y-179973942D01*
X112036831Y-179973960D01*
X111877026Y-180272934D01*
X111877024Y-180272939D01*
X111747284Y-180586158D01*
X111648870Y-180910589D01*
X111582729Y-181243098D01*
X111549500Y-181580491D01*
X108450500Y-181580491D01*
X108450500Y-181580488D01*
X108417270Y-181243096D01*
X108351129Y-180910586D01*
X108252716Y-180586160D01*
X108122977Y-180272942D01*
X107963162Y-179973949D01*
X107774810Y-179692061D01*
X107559735Y-179429991D01*
X107559734Y-179429990D01*
X107559730Y-179429985D01*
X107320014Y-179190269D01*
X107057944Y-178975194D01*
X107057943Y-178975193D01*
X107057939Y-178975190D01*
X106776051Y-178786838D01*
X106776046Y-178786835D01*
X106776039Y-178786831D01*
X106477065Y-178627026D01*
X106477060Y-178627024D01*
X106163841Y-178497284D01*
X105973382Y-178439509D01*
X105839414Y-178398871D01*
X105839411Y-178398870D01*
X105839410Y-178398870D01*
X105506901Y-178332729D01*
X105269199Y-178309318D01*
X105169512Y-178299500D01*
X104830488Y-178299500D01*
X104739738Y-178308437D01*
X104493098Y-178332729D01*
X104160589Y-178398870D01*
X103836158Y-178497284D01*
X103522939Y-178627024D01*
X103522934Y-178627026D01*
X103223960Y-178786831D01*
X103223942Y-178786842D01*
X102942069Y-178975184D01*
X102942055Y-178975194D01*
X102679985Y-179190269D01*
X102440269Y-179429985D01*
X102225194Y-179692055D01*
X102225184Y-179692069D01*
X102036842Y-179973942D01*
X102036831Y-179973960D01*
X101877026Y-180272934D01*
X101877024Y-180272939D01*
X101747284Y-180586158D01*
X101648870Y-180910589D01*
X101582729Y-181243098D01*
X101549500Y-181580491D01*
X100500500Y-181580491D01*
X100500500Y-144305927D01*
X106049500Y-144305927D01*
X106049500Y-144694072D01*
X106087544Y-145080347D01*
X106087547Y-145080364D01*
X106163264Y-145461030D01*
X106163267Y-145461041D01*
X106275945Y-145832489D01*
X106424485Y-146191095D01*
X106424487Y-146191100D01*
X106607450Y-146533400D01*
X106607461Y-146533418D01*
X106823096Y-146856139D01*
X106823106Y-146856153D01*
X107069347Y-147156198D01*
X107343801Y-147430652D01*
X107343806Y-147430656D01*
X107343807Y-147430657D01*
X107643852Y-147676898D01*
X107966588Y-147892543D01*
X107966597Y-147892548D01*
X107966599Y-147892549D01*
X108308899Y-148075512D01*
X108308901Y-148075512D01*
X108308907Y-148075516D01*
X108667512Y-148224055D01*
X109038949Y-148336730D01*
X109038955Y-148336731D01*
X109038958Y-148336732D01*
X109038969Y-148336735D01*
X109277680Y-148384216D01*
X109419642Y-148412454D01*
X109805924Y-148450500D01*
X109805927Y-148450500D01*
X110194073Y-148450500D01*
X110194076Y-148450500D01*
X110580358Y-148412454D01*
X110768788Y-148374973D01*
X110961030Y-148336735D01*
X110961041Y-148336732D01*
X110961041Y-148336731D01*
X110961051Y-148336730D01*
X111332488Y-148224055D01*
X111691093Y-148075516D01*
X112033412Y-147892543D01*
X112356148Y-147676898D01*
X112656193Y-147430657D01*
X112930657Y-147156193D01*
X113176898Y-146856148D01*
X113392543Y-146533412D01*
X113575516Y-146191093D01*
X113724055Y-145832488D01*
X113836730Y-145461051D01*
X113836732Y-145461041D01*
X113836735Y-145461030D01*
X113874973Y-145268788D01*
X113912454Y-145080358D01*
X113950500Y-144694076D01*
X113950500Y-144305924D01*
X113912454Y-143919642D01*
X113884216Y-143777680D01*
X113836735Y-143538969D01*
X113836732Y-143538958D01*
X113836731Y-143538955D01*
X113836730Y-143538949D01*
X113724055Y-143167512D01*
X113575516Y-142808907D01*
X113392543Y-142466588D01*
X113176898Y-142143852D01*
X112930657Y-141843807D01*
X112930656Y-141843806D01*
X112930652Y-141843801D01*
X112656198Y-141569347D01*
X112356153Y-141323106D01*
X112356152Y-141323105D01*
X112356148Y-141323102D01*
X112033412Y-141107457D01*
X112033407Y-141107454D01*
X112033400Y-141107450D01*
X111691100Y-140924487D01*
X111691095Y-140924485D01*
X111332489Y-140775945D01*
X110961041Y-140663267D01*
X110961030Y-140663264D01*
X110580364Y-140587547D01*
X110580347Y-140587544D01*
X110288239Y-140558774D01*
X110194076Y-140549500D01*
X109805924Y-140549500D01*
X109718836Y-140558077D01*
X109419652Y-140587544D01*
X109419635Y-140587547D01*
X109038969Y-140663264D01*
X109038958Y-140663267D01*
X108667510Y-140775945D01*
X108308904Y-140924485D01*
X108308899Y-140924487D01*
X107966599Y-141107450D01*
X107966581Y-141107461D01*
X107643860Y-141323096D01*
X107643846Y-141323106D01*
X107343801Y-141569347D01*
X107069347Y-141843801D01*
X106823106Y-142143846D01*
X106823096Y-142143860D01*
X106607461Y-142466581D01*
X106607450Y-142466599D01*
X106424487Y-142808899D01*
X106424485Y-142808904D01*
X106275945Y-143167510D01*
X106163267Y-143538958D01*
X106163264Y-143538969D01*
X106087547Y-143919635D01*
X106087544Y-143919652D01*
X106049500Y-144305927D01*
X100500500Y-144305927D01*
X100500500Y-121305927D01*
X106049500Y-121305927D01*
X106049500Y-121694072D01*
X106087544Y-122080347D01*
X106087547Y-122080364D01*
X106163264Y-122461030D01*
X106163267Y-122461041D01*
X106275945Y-122832489D01*
X106424485Y-123191095D01*
X106424487Y-123191100D01*
X106607450Y-123533400D01*
X106607461Y-123533418D01*
X106823096Y-123856139D01*
X106823106Y-123856153D01*
X107069347Y-124156198D01*
X107343801Y-124430652D01*
X107343806Y-124430656D01*
X107343807Y-124430657D01*
X107643852Y-124676898D01*
X107966588Y-124892543D01*
X107966597Y-124892548D01*
X107966599Y-124892549D01*
X108308899Y-125075512D01*
X108308901Y-125075512D01*
X108308907Y-125075516D01*
X108667512Y-125224055D01*
X109038949Y-125336730D01*
X109038955Y-125336731D01*
X109038958Y-125336732D01*
X109038969Y-125336735D01*
X109277680Y-125384216D01*
X109419642Y-125412454D01*
X109805924Y-125450500D01*
X109805927Y-125450500D01*
X110194073Y-125450500D01*
X110194076Y-125450500D01*
X110580358Y-125412454D01*
X110768788Y-125374973D01*
X110961030Y-125336735D01*
X110961041Y-125336732D01*
X110961041Y-125336731D01*
X110961051Y-125336730D01*
X111332488Y-125224055D01*
X111691093Y-125075516D01*
X112033412Y-124892543D01*
X112356148Y-124676898D01*
X112656193Y-124430657D01*
X112930657Y-124156193D01*
X113176898Y-123856148D01*
X113392543Y-123533412D01*
X113575516Y-123191093D01*
X113724055Y-122832488D01*
X113836730Y-122461051D01*
X113836732Y-122461041D01*
X113836735Y-122461030D01*
X113874973Y-122268788D01*
X113912454Y-122080358D01*
X113950500Y-121694076D01*
X113950500Y-121305924D01*
X113912454Y-120919642D01*
X113884216Y-120777680D01*
X113836735Y-120538969D01*
X113836732Y-120538958D01*
X113836731Y-120538955D01*
X113836730Y-120538949D01*
X113724055Y-120167512D01*
X113575516Y-119808907D01*
X113392543Y-119466588D01*
X113176898Y-119143852D01*
X112930657Y-118843807D01*
X112930656Y-118843806D01*
X112930652Y-118843801D01*
X112656198Y-118569347D01*
X112356153Y-118323106D01*
X112356152Y-118323105D01*
X112356148Y-118323102D01*
X112033412Y-118107457D01*
X112033407Y-118107454D01*
X112033400Y-118107450D01*
X111691100Y-117924487D01*
X111691095Y-117924485D01*
X111332489Y-117775945D01*
X110961041Y-117663267D01*
X110961030Y-117663264D01*
X110580364Y-117587547D01*
X110580347Y-117587544D01*
X110288239Y-117558774D01*
X110194076Y-117549500D01*
X109805924Y-117549500D01*
X109718836Y-117558077D01*
X109419652Y-117587544D01*
X109419635Y-117587547D01*
X109038969Y-117663264D01*
X109038958Y-117663267D01*
X108667510Y-117775945D01*
X108308904Y-117924485D01*
X108308899Y-117924487D01*
X107966599Y-118107450D01*
X107966581Y-118107461D01*
X107643860Y-118323096D01*
X107643846Y-118323106D01*
X107343801Y-118569347D01*
X107069347Y-118843801D01*
X106823106Y-119143846D01*
X106823096Y-119143860D01*
X106607461Y-119466581D01*
X106607450Y-119466599D01*
X106424487Y-119808899D01*
X106424485Y-119808904D01*
X106275945Y-120167510D01*
X106163267Y-120538958D01*
X106163264Y-120538969D01*
X106087547Y-120919635D01*
X106087544Y-120919652D01*
X106049500Y-121305927D01*
X100500500Y-121305927D01*
X100500500Y-102904231D01*
X104999500Y-102904231D01*
X104999500Y-103095768D01*
X105005629Y-103215303D01*
X105005629Y-103215305D01*
X105054454Y-103498481D01*
X105054456Y-103498490D01*
X105141381Y-103772372D01*
X105141387Y-103772386D01*
X105264800Y-104031885D01*
X105422397Y-104272161D01*
X105422399Y-104272163D01*
X105422400Y-104272164D01*
X105611252Y-104488748D01*
X105827836Y-104677600D01*
X105827838Y-104677602D01*
X106068114Y-104835199D01*
X106327613Y-104958612D01*
X106327627Y-104958618D01*
X106464568Y-105002080D01*
X106601514Y-105045545D01*
X106884692Y-105094370D01*
X106906436Y-105095484D01*
X107004231Y-105100499D01*
X107004257Y-105100499D01*
X107004264Y-105100500D01*
X107004270Y-105100500D01*
X107995730Y-105100500D01*
X107995736Y-105100500D01*
X107995742Y-105100499D01*
X107995768Y-105100499D01*
X108081138Y-105096121D01*
X108115308Y-105094370D01*
X108398486Y-105045545D01*
X108672378Y-104958616D01*
X108931882Y-104835201D01*
X109172164Y-104677600D01*
X109388748Y-104488748D01*
X109577600Y-104272164D01*
X109735201Y-104031882D01*
X109858616Y-103772378D01*
X109945545Y-103498486D01*
X109994370Y-103215308D01*
X109996121Y-103181138D01*
X110000499Y-103095768D01*
X110000500Y-103095729D01*
X110000500Y-102904270D01*
X110000499Y-102904231D01*
X109994370Y-102784696D01*
X109994370Y-102784694D01*
X109994370Y-102784692D01*
X109945545Y-102501514D01*
X109858616Y-102227622D01*
X109735201Y-101968118D01*
X109735200Y-101968117D01*
X109735199Y-101968114D01*
X109577602Y-101727838D01*
X109577600Y-101727836D01*
X109388748Y-101511252D01*
X109172164Y-101322400D01*
X109172163Y-101322399D01*
X109172161Y-101322397D01*
X108931885Y-101164800D01*
X108672386Y-101041387D01*
X108672372Y-101041381D01*
X108398490Y-100954456D01*
X108398481Y-100954454D01*
X108115304Y-100905629D01*
X107995768Y-100899500D01*
X107995736Y-100899500D01*
X107004264Y-100899500D01*
X107004231Y-100899500D01*
X106884696Y-100905629D01*
X106884694Y-100905629D01*
X106601518Y-100954454D01*
X106601509Y-100954456D01*
X106327627Y-101041381D01*
X106327613Y-101041387D01*
X106068114Y-101164800D01*
X105827838Y-101322397D01*
X105827836Y-101322399D01*
X105611252Y-101511252D01*
X105422399Y-101727836D01*
X105422397Y-101727838D01*
X105264800Y-101968114D01*
X105141387Y-102227613D01*
X105141381Y-102227627D01*
X105054456Y-102501509D01*
X105054454Y-102501518D01*
X105005629Y-102784694D01*
X105005629Y-102784696D01*
X104999500Y-102904231D01*
X100500500Y-102904231D01*
X100500500Y-100624500D01*
X100520185Y-100557461D01*
X100572989Y-100511706D01*
X100624500Y-100500500D01*
X119375500Y-100500500D01*
X119442539Y-100520185D01*
G37*
%TD.AperFunction*%
M02*
